<?xml version="1.0" encoding="UTF-8" standalone="no"?>
<!DOCTYPE svg PUBLIC "-//W3C//DTD SVG 1.1//EN"
 "http://www.w3.org/Graphics/SVG/1.1/DTD/svg11.dtd">
<!-- Generated by graphviz version 2.47.1 (20210417.1919)
 -->
<!-- Pages: 1 -->
<svg width="2131pt" height="1022pt"
 viewBox="0.00 0.00 2130.72 1022.00" xmlns="http://www.w3.org/2000/svg" xmlns:xlink="http://www.w3.org/1999/xlink">
<g id="graph0" class="graph" transform="scale(1 1) rotate(0) translate(4 1018)">
<polygon fill="white" stroke="transparent" points="-4,4 -4,-1018 2126.72,-1018 2126.72,4 -4,4"/>
<!-- http://purl.org/dj/kaggle/1&#45;mpnn/activity/1124677141715745769 -->
<g id="node1" class="node">
<title>http://purl.org/dj/kaggle/1&#45;mpnn/activity/1124677141715745769</title>
<ellipse fill="none" stroke="black" cx="352.72" cy="-996" rx="148.67" ry="18"/>
<text text-anchor="middle" x="352.72" y="-992.3" font-family="Times,serif" font-size="14.00">1124677141715745769 (Visualisation)</text>
</g>
<!-- http://purl.org/dj/kaggle/1&#45;mpnn/activity/&#45;6953940530139739661 -->
<g id="node2" class="node">
<title>http://purl.org/dj/kaggle/1&#45;mpnn/activity/&#45;6953940530139739661</title>
<ellipse fill="none" stroke="black" cx="352.72" cy="-855" rx="145.67" ry="18"/>
<text text-anchor="middle" x="352.72" y="-851.3" font-family="Times,serif" font-size="14.00">&#45;6953940530139739661 (Preparation)</text>
</g>
<!-- http://purl.org/dj/kaggle/1&#45;mpnn/activity/1124677141715745769&#45;&gt;http://purl.org/dj/kaggle/1&#45;mpnn/activity/&#45;6953940530139739661 -->
<g id="edge1" class="edge">
<title>http://purl.org/dj/kaggle/1&#45;mpnn/activity/1124677141715745769&#45;&gt;http://purl.org/dj/kaggle/1&#45;mpnn/activity/&#45;6953940530139739661</title>
<path fill="none" stroke="black" d="M352.72,-977.96C352.72,-954.4 352.72,-911.64 352.72,-883.53"/>
<polygon fill="black" stroke="black" points="356.22,-883.18 352.72,-873.18 349.22,-883.18 356.22,-883.18"/>
<text text-anchor="middle" x="376.22" y="-948.8" font-family="Times,serif" font-size="14.00">previous</text>
</g>
<!-- http://purl.org/dj/kaggle/1&#45;mpnn/activity/&#45;9034038135517847802 -->
<g id="node3" class="node">
<title>http://purl.org/dj/kaggle/1&#45;mpnn/activity/&#45;9034038135517847802</title>
<ellipse fill="none" stroke="black" cx="1125.72" cy="-105" rx="126.98" ry="18"/>
<text text-anchor="middle" x="1125.72" y="-101.3" font-family="Times,serif" font-size="14.00">&#45;9034038135517847802 (Reuse)</text>
</g>
<!-- http://purl.org/dj/kaggle/1&#45;mpnn/activity/1124677141715745769&#45;&gt;http://purl.org/dj/kaggle/1&#45;mpnn/activity/&#45;9034038135517847802 -->
<g id="edge2" class="edge">
<title>http://purl.org/dj/kaggle/1&#45;mpnn/activity/1124677141715745769&#45;&gt;http://purl.org/dj/kaggle/1&#45;mpnn/activity/&#45;9034038135517847802</title>
<path fill="none" stroke="black" d="M251.85,-982.75C173.73,-970.34 78.72,-947.54 78.72,-910 78.72,-910 78.72,-910 78.72,-191 78.72,-116.58 -203.51,-191.86 308.72,-141 547.42,-117.3 826.92,-109.64 989.39,-107.17"/>
<polygon fill="black" stroke="black" points="989.49,-110.67 999.44,-107.02 989.39,-103.67 989.49,-110.67"/>
<text text-anchor="middle" x="102.22" y="-536.3" font-family="Times,serif" font-size="14.00">previous</text>
</g>
<!-- http://purl.org/dj/kaggle/1&#45;mpnn/activity/8890436446640507973 -->
<g id="node4" class="node">
<title>http://purl.org/dj/kaggle/1&#45;mpnn/activity/8890436446640507973</title>
<ellipse fill="none" stroke="black" cx="1679.72" cy="-909" rx="142.97" ry="18"/>
<text text-anchor="middle" x="1679.72" y="-905.3" font-family="Times,serif" font-size="14.00">8890436446640507973 (Preparation)</text>
</g>
<!-- http://purl.org/dj/kaggle/1&#45;mpnn/activity/1124677141715745769&#45;&gt;http://purl.org/dj/kaggle/1&#45;mpnn/activity/8890436446640507973 -->
<g id="edge3" class="edge">
<title>http://purl.org/dj/kaggle/1&#45;mpnn/activity/1124677141715745769&#45;&gt;http://purl.org/dj/kaggle/1&#45;mpnn/activity/8890436446640507973</title>
<path fill="none" stroke="black" d="M480.86,-986.79C732.46,-970.68 1288.85,-935.04 1545.37,-918.61"/>
<polygon fill="black" stroke="black" points="1545.74,-922.09 1555.49,-917.96 1545.29,-915.1 1545.74,-922.09"/>
<text text-anchor="middle" x="1119.22" y="-948.8" font-family="Times,serif" font-size="14.00">previous</text>
</g>
<!-- http://purl.org/dj/kaggle/1&#45;mpnn/activity/6322130387878598513 -->
<g id="node5" class="node">
<title>http://purl.org/dj/kaggle/1&#45;mpnn/activity/6322130387878598513</title>
<ellipse fill="none" stroke="black" cx="352.72" cy="-366" rx="133.48" ry="18"/>
<text text-anchor="middle" x="352.72" y="-362.3" font-family="Times,serif" font-size="14.00">6322130387878598513 (Analysis)</text>
</g>
<!-- http://purl.org/dj/kaggle/1&#45;mpnn/activity/&#45;6953940530139739661&#45;&gt;http://purl.org/dj/kaggle/1&#45;mpnn/activity/6322130387878598513 -->
<g id="edge4" class="edge">
<title>http://purl.org/dj/kaggle/1&#45;mpnn/activity/&#45;6953940530139739661&#45;&gt;http://purl.org/dj/kaggle/1&#45;mpnn/activity/6322130387878598513</title>
<path fill="none" stroke="black" d="M352.72,-836.75C352.72,-817.62 352.72,-785.86 352.72,-758.5 352.72,-758.5 352.72,-758.5 352.72,-452 352.72,-432.75 352.72,-411.05 352.72,-394.4"/>
<polygon fill="black" stroke="black" points="356.22,-394.26 352.72,-384.26 349.22,-394.26 356.22,-394.26"/>
<text text-anchor="middle" x="376.22" y="-623.3" font-family="Times,serif" font-size="14.00">previous</text>
</g>
<!-- http://purl.org/dj/kaggle/1&#45;mpnn -->
<g id="node6" class="node">
<title>http://purl.org/dj/kaggle/1&#45;mpnn</title>
<ellipse fill="none" stroke="black" cx="1125.72" cy="-18" rx="96.68" ry="18"/>
<text text-anchor="middle" x="1125.72" y="-14.3" font-family="Times,serif" font-size="14.00">1&#45;mpnn (1&#45;mpnn.ipynb)</text>
</g>
<!-- http://purl.org/dj/kaggle/1&#45;mpnn/activity/&#45;9034038135517847802&#45;&gt;http://purl.org/dj/kaggle/1&#45;mpnn -->
<g id="edge5" class="edge">
<title>http://purl.org/dj/kaggle/1&#45;mpnn/activity/&#45;9034038135517847802&#45;&gt;http://purl.org/dj/kaggle/1&#45;mpnn</title>
<path fill="none" stroke="black" d="M1125.72,-86.8C1125.72,-75.16 1125.72,-59.55 1125.72,-46.24"/>
<polygon fill="black" stroke="black" points="1129.22,-46.18 1125.72,-36.18 1122.22,-46.18 1129.22,-46.18"/>
<text text-anchor="middle" x="1149.22" y="-57.8" font-family="Times,serif" font-size="14.00">previous</text>
</g>
<!-- http://purl.org/dj/kaggle/1&#45;mpnn/activity/8890436446640507973&#45;&gt;http://purl.org/dj/kaggle/1&#45;mpnn/activity/&#45;9034038135517847802 -->
<g id="edge6" class="edge">
<title>http://purl.org/dj/kaggle/1&#45;mpnn/activity/8890436446640507973&#45;&gt;http://purl.org/dj/kaggle/1&#45;mpnn/activity/&#45;9034038135517847802</title>
<path fill="none" stroke="black" d="M1799.33,-899.08C1915.91,-886.99 2075.72,-859.87 2075.72,-802 2075.72,-802 2075.72,-802 2075.72,-191 2075.72,-122.41 1997.11,-153.73 1929.72,-141 1805.82,-117.59 1456.99,-109.79 1261.97,-107.23"/>
<polygon fill="black" stroke="black" points="1261.99,-103.73 1251.94,-107.1 1261.9,-110.73 1261.99,-103.73"/>
<text text-anchor="middle" x="2099.22" y="-492.8" font-family="Times,serif" font-size="14.00">previous</text>
</g>
<!-- http://purl.org/dj/kaggle/1&#45;mpnn/activity/&#45;7070572315175789949 -->
<g id="node7" class="node">
<title>http://purl.org/dj/kaggle/1&#45;mpnn/activity/&#45;7070572315175789949</title>
<ellipse fill="none" stroke="black" cx="1679.72" cy="-801" rx="135.68" ry="18"/>
<text text-anchor="middle" x="1679.72" y="-797.3" font-family="Times,serif" font-size="14.00">&#45;7070572315175789949 (Analysis)</text>
</g>
<!-- http://purl.org/dj/kaggle/1&#45;mpnn/activity/8890436446640507973&#45;&gt;http://purl.org/dj/kaggle/1&#45;mpnn/activity/&#45;7070572315175789949 -->
<g id="edge7" class="edge">
<title>http://purl.org/dj/kaggle/1&#45;mpnn/activity/8890436446640507973&#45;&gt;http://purl.org/dj/kaggle/1&#45;mpnn/activity/&#45;7070572315175789949</title>
<path fill="none" stroke="black" d="M1679.72,-890.97C1679.72,-874.38 1679.72,-848.88 1679.72,-829.43"/>
<polygon fill="black" stroke="black" points="1683.22,-829.34 1679.72,-819.34 1676.22,-829.34 1683.22,-829.34"/>
<text text-anchor="middle" x="1703.22" y="-851.3" font-family="Times,serif" font-size="14.00">previous</text>
</g>
<!-- http://purl.org/dj/kaggle/1&#45;mpnn/activity/6322130387878598513&#45;&gt;http://purl.org/dj/kaggle/1&#45;mpnn/activity/&#45;9034038135517847802 -->
<g id="edge8" class="edge">
<title>http://purl.org/dj/kaggle/1&#45;mpnn/activity/6322130387878598513&#45;&gt;http://purl.org/dj/kaggle/1&#45;mpnn/activity/&#45;9034038135517847802</title>
<path fill="none" stroke="black" d="M383.06,-348.32C402.93,-336.17 428.34,-318.19 445.72,-297 484.66,-249.51 458.32,-209.12 508.72,-174 583.82,-121.66 830.99,-108.84 988.76,-106.14"/>
<polygon fill="black" stroke="black" points="989.07,-109.63 999.02,-105.98 988.96,-102.64 989.07,-109.63"/>
<text text-anchor="middle" x="497.22" y="-231.8" font-family="Times,serif" font-size="14.00">previous</text>
</g>
<!-- http://purl.org/dj/kaggle/1&#45;mpnn/activity/&#45;3258148798283552024 -->
<g id="node8" class="node">
<title>http://purl.org/dj/kaggle/1&#45;mpnn/activity/&#45;3258148798283552024</title>
<ellipse fill="none" stroke="black" cx="292.72" cy="-279" rx="144.07" ry="18"/>
<text text-anchor="middle" x="292.72" y="-275.3" font-family="Times,serif" font-size="14.00">&#45;3258148798283552024 (Movement)</text>
</g>
<!-- http://purl.org/dj/kaggle/1&#45;mpnn/activity/6322130387878598513&#45;&gt;http://purl.org/dj/kaggle/1&#45;mpnn/activity/&#45;3258148798283552024 -->
<g id="edge9" class="edge">
<title>http://purl.org/dj/kaggle/1&#45;mpnn/activity/6322130387878598513&#45;&gt;http://purl.org/dj/kaggle/1&#45;mpnn/activity/&#45;3258148798283552024</title>
<path fill="none" stroke="black" d="M340.57,-347.8C332.03,-335.7 320.46,-319.3 310.83,-305.67"/>
<polygon fill="black" stroke="black" points="313.47,-303.33 304.84,-297.18 307.75,-307.36 313.47,-303.33"/>
<text text-anchor="middle" x="350.22" y="-318.8" font-family="Times,serif" font-size="14.00">previous</text>
</g>
<!-- http://purl.org/dj/kaggle/1&#45;mpnn/activity/&#45;7070572315175789949&#45;&gt;http://purl.org/dj/kaggle/1&#45;mpnn/activity/&#45;9034038135517847802 -->
<g id="edge36" class="edge">
<title>http://purl.org/dj/kaggle/1&#45;mpnn/activity/&#45;7070572315175789949&#45;&gt;http://purl.org/dj/kaggle/1&#45;mpnn/activity/&#45;9034038135517847802</title>
<path fill="none" stroke="black" d="M1793.79,-791.21C1886.06,-780.85 2000.72,-759.1 2000.72,-715 2000.72,-715 2000.72,-715 2000.72,-191 2000.72,-117.75 1508.71,-106.56 1262.57,-105.55"/>
<polygon fill="black" stroke="black" points="1262.49,-102.05 1252.48,-105.51 1262.47,-109.05 1262.49,-102.05"/>
<text text-anchor="middle" x="2024.22" y="-449.3" font-family="Times,serif" font-size="14.00">previous</text>
</g>
<!-- http://purl.org/dj/kaggle/1&#45;mpnn/activity/&#45;7070572315175789949&#45;&gt;http://purl.org/dj/kaggle/1&#45;mpnn/activity/&#45;3258148798283552024 -->
<g id="edge37" class="edge">
<title>http://purl.org/dj/kaggle/1&#45;mpnn/activity/&#45;7070572315175789949&#45;&gt;http://purl.org/dj/kaggle/1&#45;mpnn/activity/&#45;3258148798283552024</title>
<path fill="none" stroke="black" d="M1547.32,-796.91C1246.55,-789.03 537.72,-765.12 537.72,-715 537.72,-715 537.72,-715 537.72,-365 537.72,-332.12 457.95,-309.09 389.45,-295.37"/>
<polygon fill="black" stroke="black" points="389.92,-291.9 379.44,-293.41 388.58,-298.77 389.92,-291.9"/>
<text text-anchor="middle" x="561.22" y="-536.3" font-family="Times,serif" font-size="14.00">previous</text>
</g>
<!-- http://purl.org/dj/kaggle/1&#45;mpnn/activity/&#45;1849970091916748225 -->
<g id="node20" class="node">
<title>http://purl.org/dj/kaggle/1&#45;mpnn/activity/&#45;1849970091916748225</title>
<ellipse fill="none" stroke="black" cx="1679.72" cy="-714" rx="144.07" ry="18"/>
<text text-anchor="middle" x="1679.72" y="-710.3" font-family="Times,serif" font-size="14.00">&#45;1849970091916748225 (Movement)</text>
</g>
<!-- http://purl.org/dj/kaggle/1&#45;mpnn/activity/&#45;7070572315175789949&#45;&gt;http://purl.org/dj/kaggle/1&#45;mpnn/activity/&#45;1849970091916748225 -->
<g id="edge38" class="edge">
<title>http://purl.org/dj/kaggle/1&#45;mpnn/activity/&#45;7070572315175789949&#45;&gt;http://purl.org/dj/kaggle/1&#45;mpnn/activity/&#45;1849970091916748225</title>
<path fill="none" stroke="black" d="M1687.91,-783.02C1691.6,-773.41 1694.71,-761.12 1692.72,-750 1692.23,-747.28 1691.54,-744.5 1690.74,-741.75"/>
<polygon fill="black" stroke="black" points="1693.99,-740.44 1687.45,-732.1 1687.36,-742.7 1693.99,-740.44"/>
<text text-anchor="middle" x="1716.22" y="-753.8" font-family="Times,serif" font-size="14.00">previous</text>
</g>
<!-- http://purl.org/dj/kaggle/1&#45;mpnn/activity/&#45;3258148798283552024&#45;&gt;http://purl.org/dj/kaggle/1&#45;mpnn/activity/&#45;9034038135517847802 -->
<g id="edge12" class="edge">
<title>http://purl.org/dj/kaggle/1&#45;mpnn/activity/&#45;3258148798283552024&#45;&gt;http://purl.org/dj/kaggle/1&#45;mpnn/activity/&#45;9034038135517847802</title>
<path fill="none" stroke="black" d="M317.82,-261.05C337.26,-247.67 364.68,-228.28 387.72,-210 406.71,-194.92 409.65,-188.99 428.72,-174 448.78,-158.22 451.59,-149.34 475.72,-141 522.99,-124.65 815.82,-114.17 991.91,-109.27"/>
<polygon fill="black" stroke="black" points="992.13,-112.76 1002.03,-108.99 991.94,-105.77 992.13,-112.76"/>
<text text-anchor="middle" x="452.22" y="-188.3" font-family="Times,serif" font-size="14.00">previous</text>
</g>
<!-- http://purl.org/dj/kaggle/1&#45;mpnn/activity/459420873896397707 -->
<g id="node9" class="node">
<title>http://purl.org/dj/kaggle/1&#45;mpnn/activity/459420873896397707</title>
<ellipse fill="none" stroke="black" cx="646.72" cy="-192" rx="128.88" ry="18"/>
<text text-anchor="middle" x="646.72" y="-188.3" font-family="Times,serif" font-size="14.00">459420873896397707 (Analysis)</text>
</g>
<!-- http://purl.org/dj/kaggle/1&#45;mpnn/activity/&#45;3258148798283552024&#45;&gt;http://purl.org/dj/kaggle/1&#45;mpnn/activity/459420873896397707 -->
<g id="edge13" class="edge">
<title>http://purl.org/dj/kaggle/1&#45;mpnn/activity/&#45;3258148798283552024&#45;&gt;http://purl.org/dj/kaggle/1&#45;mpnn/activity/459420873896397707</title>
<path fill="none" stroke="black" d="M403.5,-267.46C443.44,-262.12 488.54,-254.29 528.72,-243 554.86,-235.65 582.9,-223.94 605.08,-213.7"/>
<polygon fill="black" stroke="black" points="606.64,-216.84 614.21,-209.42 603.67,-210.5 606.64,-216.84"/>
<text text-anchor="middle" x="596.22" y="-231.8" font-family="Times,serif" font-size="14.00">previous</text>
</g>
<!-- http://purl.org/dj/kaggle/1&#45;mpnn/activity/&#45;5231034235319353066 -->
<g id="node10" class="node">
<title>http://purl.org/dj/kaggle/1&#45;mpnn/activity/&#45;5231034235319353066</title>
<ellipse fill="none" stroke="black" cx="242.72" cy="-192" rx="135.68" ry="18"/>
<text text-anchor="middle" x="242.72" y="-188.3" font-family="Times,serif" font-size="14.00">&#45;5231034235319353066 (Analysis)</text>
</g>
<!-- http://purl.org/dj/kaggle/1&#45;mpnn/activity/&#45;3258148798283552024&#45;&gt;http://purl.org/dj/kaggle/1&#45;mpnn/activity/&#45;5231034235319353066 -->
<g id="edge14" class="edge">
<title>http://purl.org/dj/kaggle/1&#45;mpnn/activity/&#45;3258148798283552024&#45;&gt;http://purl.org/dj/kaggle/1&#45;mpnn/activity/&#45;5231034235319353066</title>
<path fill="none" stroke="black" d="M282.6,-260.8C275.55,-248.82 266.02,-232.62 258.04,-219.06"/>
<polygon fill="black" stroke="black" points="260.91,-217.02 252.82,-210.18 254.87,-220.57 260.91,-217.02"/>
<text text-anchor="middle" x="294.22" y="-231.8" font-family="Times,serif" font-size="14.00">previous</text>
</g>
<!-- http://purl.org/dj/kaggle/1&#45;mpnn/activity/459420873896397707&#45;&gt;http://purl.org/dj/kaggle/1&#45;mpnn/activity/&#45;9034038135517847802 -->
<g id="edge10" class="edge">
<title>http://purl.org/dj/kaggle/1&#45;mpnn/activity/459420873896397707&#45;&gt;http://purl.org/dj/kaggle/1&#45;mpnn/activity/&#45;9034038135517847802</title>
<path fill="none" stroke="black" d="M672.04,-174.32C690.75,-162.88 717.29,-148.47 742.72,-141 789.07,-127.39 905.43,-117.98 997.81,-112.37"/>
<polygon fill="black" stroke="black" points="998.04,-115.87 1007.81,-111.77 997.62,-108.88 998.04,-115.87"/>
<text text-anchor="middle" x="766.22" y="-144.8" font-family="Times,serif" font-size="14.00">previous</text>
</g>
<!-- http://purl.org/dj/kaggle/1&#45;mpnn/activity/459420873896397707&#45;&gt;http://purl.org/dj/kaggle/1&#45;mpnn -->
<g id="edge11" class="edge">
<title>http://purl.org/dj/kaggle/1&#45;mpnn/activity/459420873896397707&#45;&gt;http://purl.org/dj/kaggle/1&#45;mpnn</title>
<path fill="none" stroke="black" d="M543.67,-181.1C453.83,-172.22 337.29,-159.99 333.72,-156 329.27,-151.03 329.37,-146.06 333.72,-141 420.74,-39.54 823.36,-21.66 1018.75,-19.05"/>
<polygon fill="black" stroke="black" points="1018.8,-22.55 1028.76,-18.93 1018.71,-15.55 1018.8,-22.55"/>
<text text-anchor="middle" x="448.22" y="-101.3" font-family="Times,serif" font-size="14.00">previous</text>
</g>
<!-- http://purl.org/dj/kaggle/1&#45;mpnn/activity/&#45;5231034235319353066&#45;&gt;http://purl.org/dj/kaggle/1&#45;mpnn/activity/&#45;9034038135517847802 -->
<g id="edge22" class="edge">
<title>http://purl.org/dj/kaggle/1&#45;mpnn/activity/&#45;5231034235319353066&#45;&gt;http://purl.org/dj/kaggle/1&#45;mpnn/activity/&#45;9034038135517847802</title>
<path fill="none" stroke="black" d="M271.78,-174.23C293.56,-162.59 324.52,-147.97 353.72,-141 470.25,-113.19 799.89,-107.15 988.6,-106.04"/>
<polygon fill="black" stroke="black" points="988.89,-109.54 998.87,-105.98 988.85,-102.54 988.89,-109.54"/>
<text text-anchor="middle" x="377.22" y="-144.8" font-family="Times,serif" font-size="14.00">previous</text>
</g>
<!-- http://purl.org/dj/kaggle/1&#45;mpnn/activity/6293218098420384481 -->
<g id="node11" class="node">
<title>http://purl.org/dj/kaggle/1&#45;mpnn/activity/6293218098420384481</title>
<ellipse fill="none" stroke="black" cx="1263.72" cy="-366" rx="148.67" ry="18"/>
<text text-anchor="middle" x="1263.72" y="-362.3" font-family="Times,serif" font-size="14.00">6293218098420384481 (Visualisation)</text>
</g>
<!-- http://purl.org/dj/kaggle/1&#45;mpnn/activity/6293218098420384481&#45;&gt;http://purl.org/dj/kaggle/1&#45;mpnn/activity/&#45;9034038135517847802 -->
<g id="edge15" class="edge">
<title>http://purl.org/dj/kaggle/1&#45;mpnn/activity/6293218098420384481&#45;&gt;http://purl.org/dj/kaggle/1&#45;mpnn/activity/&#45;9034038135517847802</title>
<path fill="none" stroke="black" d="M1254.66,-348.01C1231.12,-303.83 1167.87,-185.13 1139.65,-132.15"/>
<polygon fill="black" stroke="black" points="1142.59,-130.24 1134.8,-123.06 1136.42,-133.53 1142.59,-130.24"/>
<text text-anchor="middle" x="1222.22" y="-231.8" font-family="Times,serif" font-size="14.00">previous</text>
</g>
<!-- http://purl.org/dj/kaggle/1&#45;mpnn/activity/6293218098420384481&#45;&gt;http://purl.org/dj/kaggle/1&#45;mpnn -->
<g id="edge16" class="edge">
<title>http://purl.org/dj/kaggle/1&#45;mpnn/activity/6293218098420384481&#45;&gt;http://purl.org/dj/kaggle/1&#45;mpnn</title>
<path fill="none" stroke="black" d="M1403.36,-359.63C1587.31,-350.65 1887.72,-328.55 1887.72,-280 1887.72,-280 1887.72,-280 1887.72,-104 1887.72,-38.84 1441.99,-23.63 1232.33,-20.08"/>
<polygon fill="black" stroke="black" points="1232.28,-16.58 1222.22,-19.92 1232.16,-23.58 1232.28,-16.58"/>
<text text-anchor="middle" x="1911.22" y="-188.3" font-family="Times,serif" font-size="14.00">previous</text>
</g>
<!-- http://purl.org/dj/kaggle/1&#45;mpnn/activity/&#45;3415377174235298539 -->
<g id="node12" class="node">
<title>http://purl.org/dj/kaggle/1&#45;mpnn/activity/&#45;3415377174235298539</title>
<ellipse fill="none" stroke="black" cx="1018.72" cy="-279" rx="126.98" ry="18"/>
<text text-anchor="middle" x="1018.72" y="-275.3" font-family="Times,serif" font-size="14.00">&#45;3415377174235298539 (Reuse)</text>
</g>
<!-- http://purl.org/dj/kaggle/1&#45;mpnn/activity/6293218098420384481&#45;&gt;http://purl.org/dj/kaggle/1&#45;mpnn/activity/&#45;3415377174235298539 -->
<g id="edge17" class="edge">
<title>http://purl.org/dj/kaggle/1&#45;mpnn/activity/6293218098420384481&#45;&gt;http://purl.org/dj/kaggle/1&#45;mpnn/activity/&#45;3415377174235298539</title>
<path fill="none" stroke="black" d="M1217.06,-348.81C1176.27,-334.66 1116.99,-314.09 1073.86,-299.13"/>
<polygon fill="black" stroke="black" points="1074.97,-295.81 1064.37,-295.84 1072.67,-302.42 1074.97,-295.81"/>
<text text-anchor="middle" x="1180.22" y="-318.8" font-family="Times,serif" font-size="14.00">previous</text>
</g>
<!-- http://purl.org/dj/kaggle/1&#45;mpnn/activity/&#45;1531049626311651776 -->
<g id="node13" class="node">
<title>http://purl.org/dj/kaggle/1&#45;mpnn/activity/&#45;1531049626311651776</title>
<ellipse fill="none" stroke="black" cx="1366.72" cy="-279" rx="126.98" ry="18"/>
<text text-anchor="middle" x="1366.72" y="-275.3" font-family="Times,serif" font-size="14.00">&#45;1531049626311651776 (Reuse)</text>
</g>
<!-- http://purl.org/dj/kaggle/1&#45;mpnn/activity/6293218098420384481&#45;&gt;http://purl.org/dj/kaggle/1&#45;mpnn/activity/&#45;1531049626311651776 -->
<g id="edge18" class="edge">
<title>http://purl.org/dj/kaggle/1&#45;mpnn/activity/6293218098420384481&#45;&gt;http://purl.org/dj/kaggle/1&#45;mpnn/activity/&#45;1531049626311651776</title>
<path fill="none" stroke="black" d="M1284.56,-347.8C1300.02,-335.04 1321.27,-317.5 1338.28,-303.46"/>
<polygon fill="black" stroke="black" points="1340.77,-305.95 1346.25,-296.89 1336.31,-300.55 1340.77,-305.95"/>
<text text-anchor="middle" x="1345.22" y="-318.8" font-family="Times,serif" font-size="14.00">previous</text>
</g>
<!-- http://purl.org/dj/kaggle/1&#45;mpnn/activity/&#45;3415377174235298539&#45;&gt;http://purl.org/dj/kaggle/1&#45;mpnn/activity/459420873896397707 -->
<g id="edge19" class="edge">
<title>http://purl.org/dj/kaggle/1&#45;mpnn/activity/&#45;3415377174235298539&#45;&gt;http://purl.org/dj/kaggle/1&#45;mpnn/activity/459420873896397707</title>
<path fill="none" stroke="black" d="M923.69,-267.08C883.03,-261.43 835.22,-253.48 792.72,-243 774.9,-238.61 734.35,-224.6 700.49,-212.52"/>
<polygon fill="black" stroke="black" points="701.29,-209.09 690.69,-209.02 698.93,-215.68 701.29,-209.09"/>
<text text-anchor="middle" x="816.22" y="-231.8" font-family="Times,serif" font-size="14.00">previous</text>
</g>
<!-- http://purl.org/dj/kaggle/1&#45;mpnn/activity/3823847652349953361 -->
<g id="node14" class="node">
<title>http://purl.org/dj/kaggle/1&#45;mpnn/activity/3823847652349953361</title>
<ellipse fill="none" stroke="black" cx="964.72" cy="-192" rx="133.48" ry="18"/>
<text text-anchor="middle" x="964.72" y="-188.3" font-family="Times,serif" font-size="14.00">3823847652349953361 (Analysis)</text>
</g>
<!-- http://purl.org/dj/kaggle/1&#45;mpnn/activity/&#45;3415377174235298539&#45;&gt;http://purl.org/dj/kaggle/1&#45;mpnn/activity/3823847652349953361 -->
<g id="edge20" class="edge">
<title>http://purl.org/dj/kaggle/1&#45;mpnn/activity/&#45;3415377174235298539&#45;&gt;http://purl.org/dj/kaggle/1&#45;mpnn/activity/3823847652349953361</title>
<path fill="none" stroke="black" d="M1007.79,-260.8C1000.1,-248.7 989.69,-232.3 981.02,-218.67"/>
<polygon fill="black" stroke="black" points="983.94,-216.74 975.63,-210.18 978.03,-220.49 983.94,-216.74"/>
<text text-anchor="middle" x="1019.22" y="-231.8" font-family="Times,serif" font-size="14.00">previous</text>
</g>
<!-- http://purl.org/dj/kaggle/1&#45;mpnn/activity/&#45;3170321347844730948 -->
<g id="node15" class="node">
<title>http://purl.org/dj/kaggle/1&#45;mpnn/activity/&#45;3170321347844730948</title>
<ellipse fill="none" stroke="black" cx="1342.72" cy="-192" rx="151.37" ry="18"/>
<text text-anchor="middle" x="1342.72" y="-188.3" font-family="Times,serif" font-size="14.00">&#45;3170321347844730948 (Visualisation)</text>
</g>
<!-- http://purl.org/dj/kaggle/1&#45;mpnn/activity/&#45;1531049626311651776&#45;&gt;http://purl.org/dj/kaggle/1&#45;mpnn/activity/&#45;3170321347844730948 -->
<g id="edge21" class="edge">
<title>http://purl.org/dj/kaggle/1&#45;mpnn/activity/&#45;1531049626311651776&#45;&gt;http://purl.org/dj/kaggle/1&#45;mpnn/activity/&#45;3170321347844730948</title>
<path fill="none" stroke="black" d="M1361.86,-260.8C1358.54,-249.05 1354.08,-233.24 1350.29,-219.84"/>
<polygon fill="black" stroke="black" points="1353.65,-218.85 1347.56,-210.18 1346.91,-220.75 1353.65,-218.85"/>
<text text-anchor="middle" x="1380.22" y="-231.8" font-family="Times,serif" font-size="14.00">previous</text>
</g>
<!-- http://purl.org/dj/kaggle/1&#45;mpnn/activity/3823847652349953361&#45;&gt;http://purl.org/dj/kaggle/1&#45;mpnn/activity/&#45;9034038135517847802 -->
<g id="edge23" class="edge">
<title>http://purl.org/dj/kaggle/1&#45;mpnn/activity/3823847652349953361&#45;&gt;http://purl.org/dj/kaggle/1&#45;mpnn/activity/&#45;9034038135517847802</title>
<path fill="none" stroke="black" d="M996.14,-174.41C1021.63,-160.95 1057.73,-141.89 1085.35,-127.31"/>
<polygon fill="black" stroke="black" points="1087.16,-130.31 1094.37,-122.55 1083.89,-124.12 1087.16,-130.31"/>
<text text-anchor="middle" x="1079.22" y="-144.8" font-family="Times,serif" font-size="14.00">previous</text>
</g>
<!-- http://purl.org/dj/kaggle/1&#45;mpnn/activity/&#45;3170321347844730948&#45;&gt;http://purl.org/dj/kaggle/1&#45;mpnn/activity/&#45;9034038135517847802 -->
<g id="edge46" class="edge">
<title>http://purl.org/dj/kaggle/1&#45;mpnn/activity/&#45;3170321347844730948&#45;&gt;http://purl.org/dj/kaggle/1&#45;mpnn/activity/&#45;9034038135517847802</title>
<path fill="none" stroke="black" d="M1300.88,-174.61C1265.22,-160.65 1213.9,-140.54 1176.01,-125.7"/>
<polygon fill="black" stroke="black" points="1177.28,-122.44 1166.69,-122.05 1174.73,-128.96 1177.28,-122.44"/>
<text text-anchor="middle" x="1271.22" y="-144.8" font-family="Times,serif" font-size="14.00">previous</text>
</g>
<!-- http://purl.org/dj/kaggle/1&#45;mpnn/activity/&#45;7857535631998937213 -->
<g id="node16" class="node">
<title>http://purl.org/dj/kaggle/1&#45;mpnn/activity/&#45;7857535631998937213</title>
<ellipse fill="none" stroke="black" cx="945.72" cy="-453" rx="144.07" ry="18"/>
<text text-anchor="middle" x="945.72" y="-449.3" font-family="Times,serif" font-size="14.00">&#45;7857535631998937213 (Movement)</text>
</g>
<!-- http://purl.org/dj/kaggle/1&#45;mpnn/activity/&#45;7857535631998937213&#45;&gt;http://purl.org/dj/kaggle/1&#45;mpnn/activity/&#45;9034038135517847802 -->
<g id="edge24" class="edge">
<title>http://purl.org/dj/kaggle/1&#45;mpnn/activity/&#45;7857535631998937213&#45;&gt;http://purl.org/dj/kaggle/1&#45;mpnn/activity/&#45;9034038135517847802</title>
<path fill="none" stroke="black" d="M897.15,-435.99C787.84,-399.73 531.07,-313.22 519.72,-297 510.54,-283.89 509.41,-273.24 519.72,-261 534.82,-243.06 600.83,-248.15 623.72,-243 648.02,-237.54 653.4,-233.41 677.72,-228 724.79,-217.53 741.56,-231.52 784.72,-210 805.54,-199.62 802.18,-184.94 822.72,-174 880.96,-142.96 952.79,-126.06 1011.89,-116.87"/>
<polygon fill="black" stroke="black" points="1012.64,-120.3 1022.01,-115.35 1011.6,-113.38 1012.64,-120.3"/>
<text text-anchor="middle" x="543.22" y="-275.3" font-family="Times,serif" font-size="14.00">previous</text>
</g>
<!-- http://purl.org/dj/kaggle/1&#45;mpnn/activity/&#45;7857535631998937213&#45;&gt;http://purl.org/dj/kaggle/1&#45;mpnn/activity/6293218098420384481 -->
<g id="edge25" class="edge">
<title>http://purl.org/dj/kaggle/1&#45;mpnn/activity/&#45;7857535631998937213&#45;&gt;http://purl.org/dj/kaggle/1&#45;mpnn/activity/6293218098420384481</title>
<path fill="none" stroke="black" d="M972.4,-435.1C991.11,-424.01 1017.08,-410.12 1041.72,-402 1072.95,-391.71 1107.68,-384.4 1140.22,-379.23"/>
<polygon fill="black" stroke="black" points="1140.89,-382.67 1150.24,-377.69 1139.82,-375.75 1140.89,-382.67"/>
<text text-anchor="middle" x="1065.22" y="-405.8" font-family="Times,serif" font-size="14.00">previous</text>
</g>
<!-- http://purl.org/dj/kaggle/1&#45;mpnn/activity/&#45;7094867868547133132 -->
<g id="node17" class="node">
<title>http://purl.org/dj/kaggle/1&#45;mpnn/activity/&#45;7094867868547133132</title>
<ellipse fill="none" stroke="black" cx="945.72" cy="-366" rx="151.37" ry="18"/>
<text text-anchor="middle" x="945.72" y="-362.3" font-family="Times,serif" font-size="14.00">&#45;7094867868547133132 (Visualisation)</text>
</g>
<!-- http://purl.org/dj/kaggle/1&#45;mpnn/activity/&#45;7857535631998937213&#45;&gt;http://purl.org/dj/kaggle/1&#45;mpnn/activity/&#45;7094867868547133132 -->
<g id="edge26" class="edge">
<title>http://purl.org/dj/kaggle/1&#45;mpnn/activity/&#45;7857535631998937213&#45;&gt;http://purl.org/dj/kaggle/1&#45;mpnn/activity/&#45;7094867868547133132</title>
<path fill="none" stroke="black" d="M945.72,-434.8C945.72,-423.16 945.72,-407.55 945.72,-394.24"/>
<polygon fill="black" stroke="black" points="949.22,-394.18 945.72,-384.18 942.22,-394.18 949.22,-394.18"/>
<text text-anchor="middle" x="969.22" y="-405.8" font-family="Times,serif" font-size="14.00">previous</text>
</g>
<!-- http://purl.org/dj/kaggle/1&#45;mpnn/activity/&#45;7094867868547133132&#45;&gt;http://purl.org/dj/kaggle/1&#45;mpnn/activity/&#45;9034038135517847802 -->
<g id="edge27" class="edge">
<title>http://purl.org/dj/kaggle/1&#45;mpnn/activity/&#45;7094867868547133132&#45;&gt;http://purl.org/dj/kaggle/1&#45;mpnn/activity/&#45;9034038135517847802</title>
<path fill="none" stroke="black" d="M1060.07,-354.13C1096.23,-344.66 1132.52,-327.57 1154.72,-297 1164.12,-284.05 1159.91,-276.13 1154.72,-261 1151.43,-251.41 1144.52,-252.39 1140.72,-243 1126.13,-207.02 1124.01,-161.61 1124.41,-133.18"/>
<polygon fill="black" stroke="black" points="1127.91,-133.25 1124.67,-123.17 1120.91,-133.07 1127.91,-133.25"/>
<text text-anchor="middle" x="1164.22" y="-231.8" font-family="Times,serif" font-size="14.00">previous</text>
</g>
<!-- http://purl.org/dj/kaggle/1&#45;mpnn/activity/3927917655740320532 -->
<g id="node18" class="node">
<title>http://purl.org/dj/kaggle/1&#45;mpnn/activity/3927917655740320532</title>
<ellipse fill="none" stroke="black" cx="1252.72" cy="-540" rx="133.48" ry="18"/>
<text text-anchor="middle" x="1252.72" y="-536.3" font-family="Times,serif" font-size="14.00">3927917655740320532 (Analysis)</text>
</g>
<!-- http://purl.org/dj/kaggle/1&#45;mpnn/activity/3927917655740320532&#45;&gt;http://purl.org/dj/kaggle/1&#45;mpnn/activity/&#45;9034038135517847802 -->
<g id="edge28" class="edge">
<title>http://purl.org/dj/kaggle/1&#45;mpnn/activity/3927917655740320532&#45;&gt;http://purl.org/dj/kaggle/1&#45;mpnn/activity/&#45;9034038135517847802</title>
<path fill="none" stroke="black" d="M1346.8,-527.23C1424.37,-514.81 1521.72,-491.71 1521.72,-454 1521.72,-454 1521.72,-454 1521.72,-191 1521.72,-136.14 1374.59,-116.58 1259.69,-109.67"/>
<polygon fill="black" stroke="black" points="1259.57,-106.15 1249.38,-109.07 1259.17,-113.14 1259.57,-106.15"/>
<text text-anchor="middle" x="1545.22" y="-318.8" font-family="Times,serif" font-size="14.00">previous</text>
</g>
<!-- http://purl.org/dj/kaggle/1&#45;mpnn/activity/3927917655740320532&#45;&gt;http://purl.org/dj/kaggle/1&#45;mpnn/activity/6293218098420384481 -->
<g id="edge29" class="edge">
<title>http://purl.org/dj/kaggle/1&#45;mpnn/activity/3927917655740320532&#45;&gt;http://purl.org/dj/kaggle/1&#45;mpnn/activity/6293218098420384481</title>
<path fill="none" stroke="black" d="M1325.85,-524.83C1355.91,-515.02 1387.82,-498.54 1405.72,-471 1430.61,-432.69 1377.98,-403.65 1329.89,-386.12"/>
<polygon fill="black" stroke="black" points="1330.95,-382.79 1320.36,-382.77 1328.63,-389.39 1330.95,-382.79"/>
<text text-anchor="middle" x="1435.22" y="-449.3" font-family="Times,serif" font-size="14.00">previous</text>
</g>
<!-- http://purl.org/dj/kaggle/1&#45;mpnn/activity/3927917655740320532&#45;&gt;http://purl.org/dj/kaggle/1&#45;mpnn/activity/&#45;3415377174235298539 -->
<g id="edge30" class="edge">
<title>http://purl.org/dj/kaggle/1&#45;mpnn/activity/3927917655740320532&#45;&gt;http://purl.org/dj/kaggle/1&#45;mpnn/activity/&#45;3415377174235298539</title>
<path fill="none" stroke="black" d="M1122.87,-535.8C1007.46,-531.76 847.97,-522.89 787.72,-504 760.15,-495.36 751.11,-492.41 731.72,-471 709.82,-446.82 691.49,-430.85 706.72,-402 726.57,-364.39 747.27,-366.18 785.72,-348 834.78,-324.8 893.45,-307.73 939.65,-296.49"/>
<polygon fill="black" stroke="black" points="940.69,-299.84 949.6,-294.12 939.06,-293.03 940.69,-299.84"/>
<text text-anchor="middle" x="730.22" y="-405.8" font-family="Times,serif" font-size="14.00">previous</text>
</g>
<!-- http://purl.org/dj/kaggle/1&#45;mpnn/activity/3927917655740320532&#45;&gt;http://purl.org/dj/kaggle/1&#45;mpnn/activity/&#45;7857535631998937213 -->
<g id="edge31" class="edge">
<title>http://purl.org/dj/kaggle/1&#45;mpnn/activity/3927917655740320532&#45;&gt;http://purl.org/dj/kaggle/1&#45;mpnn/activity/&#45;7857535631998937213</title>
<path fill="none" stroke="black" d="M1197.12,-523.61C1145.04,-509.19 1067.15,-487.62 1011.89,-472.32"/>
<polygon fill="black" stroke="black" points="1012.77,-468.93 1002.19,-469.64 1010.9,-475.68 1012.77,-468.93"/>
<text text-anchor="middle" x="1141.22" y="-492.8" font-family="Times,serif" font-size="14.00">previous</text>
</g>
<!-- http://purl.org/dj/kaggle/1&#45;mpnn/activity/3927917655740320532&#45;&gt;http://purl.org/dj/kaggle/1&#45;mpnn/activity/&#45;7094867868547133132 -->
<g id="edge32" class="edge">
<title>http://purl.org/dj/kaggle/1&#45;mpnn/activity/3927917655740320532&#45;&gt;http://purl.org/dj/kaggle/1&#45;mpnn/activity/&#45;7094867868547133132</title>
<path fill="none" stroke="black" d="M1135.67,-531.33C993.97,-520.83 771.02,-499.93 745.72,-471 707.22,-426.99 781.77,-398.93 850.54,-383.19"/>
<polygon fill="black" stroke="black" points="851.62,-386.53 860.63,-380.96 850.11,-379.7 851.62,-386.53"/>
<text text-anchor="middle" x="769.22" y="-449.3" font-family="Times,serif" font-size="14.00">previous</text>
</g>
<!-- http://purl.org/dj/kaggle/1&#45;mpnn/activity/&#45;5749951148596980553 -->
<g id="node19" class="node">
<title>http://purl.org/dj/kaggle/1&#45;mpnn/activity/&#45;5749951148596980553</title>
<ellipse fill="none" stroke="black" cx="1252.72" cy="-453" rx="144.07" ry="18"/>
<text text-anchor="middle" x="1252.72" y="-449.3" font-family="Times,serif" font-size="14.00">&#45;5749951148596980553 (Movement)</text>
</g>
<!-- http://purl.org/dj/kaggle/1&#45;mpnn/activity/3927917655740320532&#45;&gt;http://purl.org/dj/kaggle/1&#45;mpnn/activity/&#45;5749951148596980553 -->
<g id="edge33" class="edge">
<title>http://purl.org/dj/kaggle/1&#45;mpnn/activity/3927917655740320532&#45;&gt;http://purl.org/dj/kaggle/1&#45;mpnn/activity/&#45;5749951148596980553</title>
<path fill="none" stroke="black" d="M1252.72,-521.8C1252.72,-510.16 1252.72,-494.55 1252.72,-481.24"/>
<polygon fill="black" stroke="black" points="1256.22,-481.18 1252.72,-471.18 1249.22,-481.18 1256.22,-481.18"/>
<text text-anchor="middle" x="1276.22" y="-492.8" font-family="Times,serif" font-size="14.00">previous</text>
</g>
<!-- http://purl.org/dj/kaggle/1&#45;mpnn/activity/&#45;5749951148596980553&#45;&gt;http://purl.org/dj/kaggle/1&#45;mpnn/activity/6293218098420384481 -->
<g id="edge34" class="edge">
<title>http://purl.org/dj/kaggle/1&#45;mpnn/activity/&#45;5749951148596980553&#45;&gt;http://purl.org/dj/kaggle/1&#45;mpnn/activity/6293218098420384481</title>
<path fill="none" stroke="black" d="M1254.94,-434.8C1256.45,-423.16 1258.47,-407.55 1260.19,-394.24"/>
<polygon fill="black" stroke="black" points="1263.68,-394.54 1261.49,-384.18 1256.74,-393.64 1263.68,-394.54"/>
<text text-anchor="middle" x="1283.22" y="-405.8" font-family="Times,serif" font-size="14.00">previous</text>
</g>
<!-- http://purl.org/dj/kaggle/1&#45;mpnn/activity/&#45;5749951148596980553&#45;&gt;http://purl.org/dj/kaggle/1&#45;mpnn/activity/&#45;7094867868547133132 -->
<g id="edge35" class="edge">
<title>http://purl.org/dj/kaggle/1&#45;mpnn/activity/&#45;5749951148596980553&#45;&gt;http://purl.org/dj/kaggle/1&#45;mpnn/activity/&#45;7094867868547133132</title>
<path fill="none" stroke="black" d="M1204.31,-435.92C1172.71,-425.65 1130.46,-412.38 1092.72,-402 1070.35,-395.85 1045.9,-389.77 1023.47,-384.45"/>
<polygon fill="black" stroke="black" points="1024.2,-381.03 1013.66,-382.14 1022.59,-387.84 1024.2,-381.03"/>
<text text-anchor="middle" x="1165.22" y="-405.8" font-family="Times,serif" font-size="14.00">previous</text>
</g>
<!-- http://purl.org/dj/kaggle/1&#45;mpnn/activity/&#45;1849970091916748225&#45;&gt;http://purl.org/dj/kaggle/1&#45;mpnn/activity/&#45;7070572315175789949 -->
<g id="edge39" class="edge">
<title>http://purl.org/dj/kaggle/1&#45;mpnn/activity/&#45;1849970091916748225&#45;&gt;http://purl.org/dj/kaggle/1&#45;mpnn/activity/&#45;7070572315175789949</title>
<path fill="none" stroke="black" d="M1654.99,-731.74C1644.75,-740.89 1636.37,-752.82 1641.72,-765 1643.42,-768.88 1645.79,-772.52 1648.52,-775.88"/>
<polygon fill="black" stroke="black" points="1645.99,-778.31 1655.4,-783.18 1651.08,-773.5 1645.99,-778.31"/>
<text text-anchor="middle" x="1665.22" y="-753.8" font-family="Times,serif" font-size="14.00">previous</text>
</g>
<!-- http://purl.org/dj/kaggle/1&#45;mpnn/activity/&#45;6159568080292337984 -->
<g id="node21" class="node">
<title>http://purl.org/dj/kaggle/1&#45;mpnn/activity/&#45;6159568080292337984</title>
<ellipse fill="none" stroke="black" cx="1679.72" cy="-627" rx="151.37" ry="18"/>
<text text-anchor="middle" x="1679.72" y="-623.3" font-family="Times,serif" font-size="14.00">&#45;6159568080292337984 (Visualisation)</text>
</g>
<!-- http://purl.org/dj/kaggle/1&#45;mpnn/activity/&#45;1849970091916748225&#45;&gt;http://purl.org/dj/kaggle/1&#45;mpnn/activity/&#45;6159568080292337984 -->
<g id="edge40" class="edge">
<title>http://purl.org/dj/kaggle/1&#45;mpnn/activity/&#45;1849970091916748225&#45;&gt;http://purl.org/dj/kaggle/1&#45;mpnn/activity/&#45;6159568080292337984</title>
<path fill="none" stroke="black" d="M1679.72,-695.8C1679.72,-684.16 1679.72,-668.55 1679.72,-655.24"/>
<polygon fill="black" stroke="black" points="1683.22,-655.18 1679.72,-645.18 1676.22,-655.18 1683.22,-655.18"/>
<text text-anchor="middle" x="1703.22" y="-666.8" font-family="Times,serif" font-size="14.00">previous</text>
</g>
<!-- http://purl.org/dj/kaggle/1&#45;mpnn/activity/&#45;6159568080292337984&#45;&gt;http://purl.org/dj/kaggle/1&#45;mpnn/activity/&#45;9034038135517847802 -->
<g id="edge41" class="edge">
<title>http://purl.org/dj/kaggle/1&#45;mpnn/activity/&#45;6159568080292337984&#45;&gt;http://purl.org/dj/kaggle/1&#45;mpnn/activity/&#45;9034038135517847802</title>
<path fill="none" stroke="black" d="M1768.18,-612.38C1838.7,-598.95 1925.72,-575.4 1925.72,-541 1925.72,-541 1925.72,-541 1925.72,-408.5 1925.72,-304.12 2008.27,-251.83 1938.72,-174 1894.64,-124.68 1482.07,-111.13 1262.2,-107.41"/>
<polygon fill="black" stroke="black" points="1261.94,-103.9 1251.88,-107.24 1261.82,-110.9 1261.94,-103.9"/>
<text text-anchor="middle" x="1957.22" y="-362.3" font-family="Times,serif" font-size="14.00">previous</text>
</g>
<!-- http://purl.org/dj/kaggle/1&#45;mpnn/activity/&#45;6159568080292337984&#45;&gt;http://purl.org/dj/kaggle/1&#45;mpnn/activity/3927917655740320532 -->
<g id="edge42" class="edge">
<title>http://purl.org/dj/kaggle/1&#45;mpnn/activity/&#45;6159568080292337984&#45;&gt;http://purl.org/dj/kaggle/1&#45;mpnn/activity/3927917655740320532</title>
<path fill="none" stroke="black" d="M1605.34,-611.19C1529.49,-596.1 1412.16,-572.74 1333.93,-557.17"/>
<polygon fill="black" stroke="black" points="1334.6,-553.73 1324.11,-555.21 1333.23,-560.6 1334.6,-553.73"/>
<text text-anchor="middle" x="1515.22" y="-579.8" font-family="Times,serif" font-size="14.00">previous</text>
</g>
<!-- http://purl.org/dj/kaggle/1&#45;mpnn/activity/5327010726456262503 -->
<g id="node22" class="node">
<title>http://purl.org/dj/kaggle/1&#45;mpnn/activity/5327010726456262503</title>
<ellipse fill="none" stroke="black" cx="724.72" cy="-279" rx="148.67" ry="18"/>
<text text-anchor="middle" x="724.72" y="-275.3" font-family="Times,serif" font-size="14.00">5327010726456262503 (Visualisation)</text>
</g>
<!-- http://purl.org/dj/kaggle/1&#45;mpnn/activity/5327010726456262503&#45;&gt;http://purl.org/dj/kaggle/1&#45;mpnn/activity/459420873896397707 -->
<g id="edge43" class="edge">
<title>http://purl.org/dj/kaggle/1&#45;mpnn/activity/5327010726456262503&#45;&gt;http://purl.org/dj/kaggle/1&#45;mpnn/activity/459420873896397707</title>
<path fill="none" stroke="black" d="M708.93,-260.8C697.54,-248.39 682.01,-231.46 669.31,-217.62"/>
<polygon fill="black" stroke="black" points="671.55,-214.89 662.21,-209.89 666.39,-219.62 671.55,-214.89"/>
<text text-anchor="middle" x="714.22" y="-231.8" font-family="Times,serif" font-size="14.00">previous</text>
</g>
<!-- http://purl.org/dj/kaggle/1&#45;mpnn/activity/5327010726456262503&#45;&gt;http://purl.org/dj/kaggle/1&#45;mpnn/activity/3823847652349953361 -->
<g id="edge44" class="edge">
<title>http://purl.org/dj/kaggle/1&#45;mpnn/activity/5327010726456262503&#45;&gt;http://purl.org/dj/kaggle/1&#45;mpnn/activity/3823847652349953361</title>
<path fill="none" stroke="black" d="M782.31,-262.39C801.93,-256.72 823.91,-249.98 843.72,-243 868.85,-234.14 896.34,-222.91 918.76,-213.33"/>
<polygon fill="black" stroke="black" points="920.23,-216.51 928.04,-209.34 917.47,-210.08 920.23,-216.51"/>
<text text-anchor="middle" x="905.22" y="-231.8" font-family="Times,serif" font-size="14.00">previous</text>
</g>
<!-- http://purl.org/dj/kaggle/1&#45;mpnn/activity/&#45;7264976336094478664 -->
<g id="node23" class="node">
<title>http://purl.org/dj/kaggle/1&#45;mpnn/activity/&#45;7264976336094478664</title>
<ellipse fill="none" stroke="black" cx="1700.72" cy="-192" rx="151.37" ry="18"/>
<text text-anchor="middle" x="1700.72" y="-188.3" font-family="Times,serif" font-size="14.00">&#45;7264976336094478664 (Visualisation)</text>
</g>
<!-- http://purl.org/dj/kaggle/1&#45;mpnn/activity/&#45;7264976336094478664&#45;&gt;http://purl.org/dj/kaggle/1&#45;mpnn/activity/&#45;9034038135517847802 -->
<g id="edge45" class="edge">
<title>http://purl.org/dj/kaggle/1&#45;mpnn/activity/&#45;7264976336094478664&#45;&gt;http://purl.org/dj/kaggle/1&#45;mpnn/activity/&#45;9034038135517847802</title>
<path fill="none" stroke="black" d="M1656.18,-174.73C1623.33,-163.42 1577.31,-148.99 1535.72,-141 1444.05,-123.4 1339.14,-114.65 1258.4,-110.3"/>
<polygon fill="black" stroke="black" points="1258.34,-106.79 1248.17,-109.76 1257.98,-113.78 1258.34,-106.79"/>
<text text-anchor="middle" x="1618.22" y="-144.8" font-family="Times,serif" font-size="14.00">previous</text>
</g>
</g>
</svg>
