<?xml version="1.0" encoding="UTF-8" standalone="no"?>
<!DOCTYPE svg PUBLIC "-//W3C//DTD SVG 1.1//EN"
 "http://www.w3.org/Graphics/SVG/1.1/DTD/svg11.dtd">
<!-- Generated by graphviz version 2.47.1 (20210417.1919)
 -->
<!-- Pages: 1 -->
<svg width="3034pt" height="566pt"
 viewBox="0.00 0.00 3034.13 566.00" xmlns="http://www.w3.org/2000/svg" xmlns:xlink="http://www.w3.org/1999/xlink">
<g id="graph0" class="graph" transform="scale(1 1) rotate(0) translate(4 562)">
<polygon fill="white" stroke="transparent" points="-4,4 -4,-562 3030.13,-562 3030.13,4 -4,4"/>
<!-- http://purl.org/dj/kaggle/a&#45;quick&#45;simple&#45;eda/activity/&#45;4206390281632994341 -->
<g id="node1" class="node">
<title>http://purl.org/dj/kaggle/a&#45;quick&#45;simple&#45;eda/activity/&#45;4206390281632994341</title>
<ellipse fill="none" stroke="black" cx="824.14" cy="-453" rx="151.37" ry="18"/>
<text text-anchor="middle" x="824.14" y="-449.3" font-family="Times,serif" font-size="14.00">&#45;4206390281632994341 (Visualisation)</text>
</g>
<!-- http://purl.org/dj/kaggle/a&#45;quick&#45;simple&#45;eda/activity/8935780979262475574 -->
<g id="node2" class="node">
<title>http://purl.org/dj/kaggle/a&#45;quick&#45;simple&#45;eda/activity/8935780979262475574</title>
<ellipse fill="none" stroke="black" cx="356.14" cy="-366" rx="142.97" ry="18"/>
<text text-anchor="middle" x="356.14" y="-362.3" font-family="Times,serif" font-size="14.00">8935780979262475574 (Preparation)</text>
</g>
<!-- http://purl.org/dj/kaggle/a&#45;quick&#45;simple&#45;eda/activity/&#45;4206390281632994341&#45;&gt;http://purl.org/dj/kaggle/a&#45;quick&#45;simple&#45;eda/activity/8935780979262475574 -->
<g id="edge1" class="edge">
<title>http://purl.org/dj/kaggle/a&#45;quick&#45;simple&#45;eda/activity/&#45;4206390281632994341&#45;&gt;http://purl.org/dj/kaggle/a&#45;quick&#45;simple&#45;eda/activity/8935780979262475574</title>
<path fill="none" stroke="black" d="M745.01,-437.63C661.65,-422.49 530.69,-398.7 444.13,-382.98"/>
<polygon fill="black" stroke="black" points="444.52,-379.5 434.06,-381.15 443.27,-386.38 444.52,-379.5"/>
<text text-anchor="middle" x="642.64" y="-405.8" font-family="Times,serif" font-size="14.00">previous</text>
</g>
<!-- http://purl.org/dj/kaggle/a&#45;quick&#45;simple&#45;eda/activity/&#45;3641278206966041543 -->
<g id="node3" class="node">
<title>http://purl.org/dj/kaggle/a&#45;quick&#45;simple&#45;eda/activity/&#45;3641278206966041543</title>
<ellipse fill="none" stroke="black" cx="1090.14" cy="-279" rx="126.98" ry="18"/>
<text text-anchor="middle" x="1090.14" y="-275.3" font-family="Times,serif" font-size="14.00">&#45;3641278206966041543 (Reuse)</text>
</g>
<!-- http://purl.org/dj/kaggle/a&#45;quick&#45;simple&#45;eda/activity/&#45;4206390281632994341&#45;&gt;http://purl.org/dj/kaggle/a&#45;quick&#45;simple&#45;eda/activity/&#45;3641278206966041543 -->
<g id="edge2" class="edge">
<title>http://purl.org/dj/kaggle/a&#45;quick&#45;simple&#45;eda/activity/&#45;4206390281632994341&#45;&gt;http://purl.org/dj/kaggle/a&#45;quick&#45;simple&#45;eda/activity/&#45;3641278206966041543</title>
<path fill="none" stroke="black" d="M842.4,-434.77C865.13,-413.59 905.46,-376.9 942.14,-348 962.19,-332.2 966.42,-326.62 989.14,-315 1001.05,-308.9 1014.27,-303.47 1027.11,-298.8"/>
<polygon fill="black" stroke="black" points="1028.56,-302 1036.83,-295.38 1026.23,-295.4 1028.56,-302"/>
<text text-anchor="middle" x="965.64" y="-362.3" font-family="Times,serif" font-size="14.00">previous</text>
</g>
<!-- http://purl.org/dj/kaggle/a&#45;quick&#45;simple&#45;eda/activity/8935780979262475574&#45;&gt;http://purl.org/dj/kaggle/a&#45;quick&#45;simple&#45;eda/activity/&#45;3641278206966041543 -->
<g id="edge3" class="edge">
<title>http://purl.org/dj/kaggle/a&#45;quick&#45;simple&#45;eda/activity/8935780979262475574&#45;&gt;http://purl.org/dj/kaggle/a&#45;quick&#45;simple&#45;eda/activity/&#45;3641278206966041543</title>
<path fill="none" stroke="black" d="M458.71,-353.37C524.84,-345.5 601.2,-335.55 616.14,-330 627.58,-325.75 627.58,-318.93 639.14,-315 695.74,-295.76 844.53,-287.03 955.84,-283.11"/>
<polygon fill="black" stroke="black" points="956.28,-286.59 966.15,-282.75 956.04,-279.6 956.28,-286.59"/>
<text text-anchor="middle" x="662.64" y="-318.8" font-family="Times,serif" font-size="14.00">previous</text>
</g>
<!-- http://purl.org/dj/kaggle/a&#45;quick&#45;simple&#45;eda -->
<g id="node4" class="node">
<title>http://purl.org/dj/kaggle/a&#45;quick&#45;simple&#45;eda</title>
<ellipse fill="none" stroke="black" cx="1090.14" cy="-192" rx="178.17" ry="18"/>
<text text-anchor="middle" x="1090.14" y="-188.3" font-family="Times,serif" font-size="14.00">a&#45;quick&#45;simple&#45;eda (a&#45;quick&#45;simple&#45;eda.ipynb)</text>
</g>
<!-- http://purl.org/dj/kaggle/a&#45;quick&#45;simple&#45;eda/activity/8935780979262475574&#45;&gt;http://purl.org/dj/kaggle/a&#45;quick&#45;simple&#45;eda -->
<g id="edge4" class="edge">
<title>http://purl.org/dj/kaggle/a&#45;quick&#45;simple&#45;eda/activity/8935780979262475574&#45;&gt;http://purl.org/dj/kaggle/a&#45;quick&#45;simple&#45;eda</title>
<path fill="none" stroke="black" d="M420.63,-349.89C555.8,-318.21 868.23,-245 1013.41,-210.98"/>
<polygon fill="black" stroke="black" points="1014.21,-214.39 1023.15,-208.7 1012.61,-207.57 1014.21,-214.39"/>
<text text-anchor="middle" x="818.64" y="-275.3" font-family="Times,serif" font-size="14.00">previous</text>
</g>
<!-- http://purl.org/dj/kaggle/a&#45;quick&#45;simple&#45;eda/activity/&#45;3641278206966041543&#45;&gt;http://purl.org/dj/kaggle/a&#45;quick&#45;simple&#45;eda/activity/8935780979262475574 -->
<g id="edge5" class="edge">
<title>http://purl.org/dj/kaggle/a&#45;quick&#45;simple&#45;eda/activity/&#45;3641278206966041543&#45;&gt;http://purl.org/dj/kaggle/a&#45;quick&#45;simple&#45;eda/activity/8935780979262475574</title>
<path fill="none" stroke="black" d="M967.5,-283.59C873.15,-287.75 751.35,-296.57 705.14,-315 695.15,-318.99 696.11,-325.96 686.14,-330 612.43,-359.83 587.21,-339.58 508.14,-348 495.41,-349.36 482.08,-350.8 468.84,-352.26"/>
<polygon fill="black" stroke="black" points="468.29,-348.8 458.73,-353.38 469.06,-355.76 468.29,-348.8"/>
<text text-anchor="middle" x="728.64" y="-318.8" font-family="Times,serif" font-size="14.00">previous</text>
</g>
<!-- http://purl.org/dj/kaggle/a&#45;quick&#45;simple&#45;eda/activity/&#45;3641278206966041543&#45;&gt;http://purl.org/dj/kaggle/a&#45;quick&#45;simple&#45;eda -->
<g id="edge6" class="edge">
<title>http://purl.org/dj/kaggle/a&#45;quick&#45;simple&#45;eda/activity/&#45;3641278206966041543&#45;&gt;http://purl.org/dj/kaggle/a&#45;quick&#45;simple&#45;eda</title>
<path fill="none" stroke="black" d="M1090.14,-260.8C1090.14,-249.16 1090.14,-233.55 1090.14,-220.24"/>
<polygon fill="black" stroke="black" points="1093.64,-220.18 1090.14,-210.18 1086.64,-220.18 1093.64,-220.18"/>
<text text-anchor="middle" x="1113.64" y="-231.8" font-family="Times,serif" font-size="14.00">previous</text>
</g>
<!-- http://purl.org/dj/kaggle/a&#45;quick&#45;simple&#45;eda/activity/4580808100210505850 -->
<g id="node5" class="node">
<title>http://purl.org/dj/kaggle/a&#45;quick&#45;simple&#45;eda/activity/4580808100210505850</title>
<ellipse fill="none" stroke="black" cx="196.14" cy="-192" rx="142.97" ry="18"/>
<text text-anchor="middle" x="196.14" y="-188.3" font-family="Times,serif" font-size="14.00">4580808100210505850 (Preparation)</text>
</g>
<!-- http://purl.org/dj/kaggle/a&#45;quick&#45;simple&#45;eda/activity/&#45;3641278206966041543&#45;&gt;http://purl.org/dj/kaggle/a&#45;quick&#45;simple&#45;eda/activity/4580808100210505850 -->
<g id="edge7" class="edge">
<title>http://purl.org/dj/kaggle/a&#45;quick&#45;simple&#45;eda/activity/&#45;3641278206966041543&#45;&gt;http://purl.org/dj/kaggle/a&#45;quick&#45;simple&#45;eda/activity/4580808100210505850</title>
<path fill="none" stroke="black" d="M970.14,-273.06C789.94,-265.41 467.76,-250.79 443.14,-243 431.15,-239.21 430.92,-232.4 419.14,-228 389.07,-216.78 355.42,-209.16 323.56,-203.98"/>
<polygon fill="black" stroke="black" points="323.7,-200.46 313.29,-202.38 322.63,-207.38 323.7,-200.46"/>
<text text-anchor="middle" x="466.64" y="-231.8" font-family="Times,serif" font-size="14.00">previous</text>
</g>
<!-- http://purl.org/dj/kaggle/a&#45;quick&#45;simple&#45;eda/activity/3366242761391369786 -->
<g id="node6" class="node">
<title>http://purl.org/dj/kaggle/a&#45;quick&#45;simple&#45;eda/activity/3366242761391369786</title>
<ellipse fill="none" stroke="black" cx="410.14" cy="-105" rx="141.88" ry="18"/>
<text text-anchor="middle" x="410.14" y="-101.3" font-family="Times,serif" font-size="14.00">3366242761391369786 (Movement)</text>
</g>
<!-- http://purl.org/dj/kaggle/a&#45;quick&#45;simple&#45;eda/activity/4580808100210505850&#45;&gt;http://purl.org/dj/kaggle/a&#45;quick&#45;simple&#45;eda/activity/3366242761391369786 -->
<g id="edge8" class="edge">
<title>http://purl.org/dj/kaggle/a&#45;quick&#45;simple&#45;eda/activity/4580808100210505850&#45;&gt;http://purl.org/dj/kaggle/a&#45;quick&#45;simple&#45;eda/activity/3366242761391369786</title>
<path fill="none" stroke="black" d="M230.77,-174.37C252.48,-164.2 281.18,-151.23 307.14,-141 321.06,-135.51 336.23,-130.07 350.54,-125.17"/>
<polygon fill="black" stroke="black" points="351.93,-128.39 360.28,-121.87 349.69,-121.76 351.93,-128.39"/>
<text text-anchor="middle" x="330.64" y="-144.8" font-family="Times,serif" font-size="14.00">previous</text>
</g>
<!-- http://purl.org/dj/kaggle/a&#45;quick&#45;simple&#45;eda/activity/3366242761391369786&#45;&gt;http://purl.org/dj/kaggle/a&#45;quick&#45;simple&#45;eda/activity/8935780979262475574 -->
<g id="edge17" class="edge">
<title>http://purl.org/dj/kaggle/a&#45;quick&#45;simple&#45;eda/activity/3366242761391369786&#45;&gt;http://purl.org/dj/kaggle/a&#45;quick&#45;simple&#45;eda/activity/8935780979262475574</title>
<path fill="none" stroke="black" d="M402.8,-123C393.11,-146.23 376.34,-189.44 368.14,-228 360.16,-265.52 357.47,-309.91 356.57,-337.77"/>
<polygon fill="black" stroke="black" points="353.07,-337.84 356.3,-347.93 360.07,-338.03 353.07,-337.84"/>
<text text-anchor="middle" x="391.64" y="-231.8" font-family="Times,serif" font-size="14.00">previous</text>
</g>
<!-- http://purl.org/dj/kaggle/a&#45;quick&#45;simple&#45;eda/activity/3366242761391369786&#45;&gt;http://purl.org/dj/kaggle/a&#45;quick&#45;simple&#45;eda/activity/&#45;3641278206966041543 -->
<g id="edge18" class="edge">
<title>http://purl.org/dj/kaggle/a&#45;quick&#45;simple&#45;eda/activity/3366242761391369786&#45;&gt;http://purl.org/dj/kaggle/a&#45;quick&#45;simple&#45;eda/activity/&#45;3641278206966041543</title>
<path fill="none" stroke="black" d="M422.28,-123.09C445.76,-154.42 500.88,-219.96 566.14,-243 634.95,-267.3 822.6,-274.89 953.55,-277.17"/>
<polygon fill="black" stroke="black" points="953.61,-280.68 963.67,-277.34 953.73,-273.68 953.61,-280.68"/>
<text text-anchor="middle" x="530.64" y="-188.3" font-family="Times,serif" font-size="14.00">previous</text>
</g>
<!-- http://purl.org/dj/kaggle/a&#45;quick&#45;simple&#45;eda/activity/&#45;5575696175151426801 -->
<g id="node11" class="node">
<title>http://purl.org/dj/kaggle/a&#45;quick&#45;simple&#45;eda/activity/&#45;5575696175151426801</title>
<ellipse fill="none" stroke="black" cx="1534.14" cy="-18" rx="145.67" ry="18"/>
<text text-anchor="middle" x="1534.14" y="-14.3" font-family="Times,serif" font-size="14.00">&#45;5575696175151426801 (Preparation)</text>
</g>
<!-- http://purl.org/dj/kaggle/a&#45;quick&#45;simple&#45;eda/activity/3366242761391369786&#45;&gt;http://purl.org/dj/kaggle/a&#45;quick&#45;simple&#45;eda/activity/&#45;5575696175151426801 -->
<g id="edge19" class="edge">
<title>http://purl.org/dj/kaggle/a&#45;quick&#45;simple&#45;eda/activity/3366242761391369786&#45;&gt;http://purl.org/dj/kaggle/a&#45;quick&#45;simple&#45;eda/activity/&#45;5575696175151426801</title>
<path fill="none" stroke="black" d="M528.3,-95.06C740.08,-79.05 1182.7,-45.58 1403.31,-28.89"/>
<polygon fill="black" stroke="black" points="1403.62,-32.38 1413.32,-28.14 1403.09,-25.4 1403.62,-32.38"/>
<text text-anchor="middle" x="1062.64" y="-57.8" font-family="Times,serif" font-size="14.00">previous</text>
</g>
<!-- http://purl.org/dj/kaggle/a&#45;quick&#45;simple&#45;eda/activity/&#45;1435285656489103489 -->
<g id="node12" class="node">
<title>http://purl.org/dj/kaggle/a&#45;quick&#45;simple&#45;eda/activity/&#45;1435285656489103489</title>
<ellipse fill="none" stroke="black" cx="522.14" cy="-18" rx="145.67" ry="18"/>
<text text-anchor="middle" x="522.14" y="-14.3" font-family="Times,serif" font-size="14.00">&#45;1435285656489103489 (Preparation)</text>
</g>
<!-- http://purl.org/dj/kaggle/a&#45;quick&#45;simple&#45;eda/activity/3366242761391369786&#45;&gt;http://purl.org/dj/kaggle/a&#45;quick&#45;simple&#45;eda/activity/&#45;1435285656489103489 -->
<g id="edge20" class="edge">
<title>http://purl.org/dj/kaggle/a&#45;quick&#45;simple&#45;eda/activity/3366242761391369786&#45;&gt;http://purl.org/dj/kaggle/a&#45;quick&#45;simple&#45;eda/activity/&#45;1435285656489103489</title>
<path fill="none" stroke="black" d="M432.27,-87.21C449.26,-74.31 472.92,-56.36 491.7,-42.1"/>
<polygon fill="black" stroke="black" points="493.82,-44.88 499.67,-36.05 489.59,-39.31 493.82,-44.88"/>
<text text-anchor="middle" x="496.64" y="-57.8" font-family="Times,serif" font-size="14.00">previous</text>
</g>
<!-- http://purl.org/dj/kaggle/a&#45;quick&#45;simple&#45;eda/activity/3208538427433747291 -->
<g id="node7" class="node">
<title>http://purl.org/dj/kaggle/a&#45;quick&#45;simple&#45;eda/activity/3208538427433747291</title>
<ellipse fill="none" stroke="black" cx="1645.14" cy="-453" rx="142.97" ry="18"/>
<text text-anchor="middle" x="1645.14" y="-449.3" font-family="Times,serif" font-size="14.00">3208538427433747291 (Preparation)</text>
</g>
<!-- http://purl.org/dj/kaggle/a&#45;quick&#45;simple&#45;eda/activity/3208538427433747291&#45;&gt;http://purl.org/dj/kaggle/a&#45;quick&#45;simple&#45;eda/activity/&#45;3641278206966041543 -->
<g id="edge9" class="edge">
<title>http://purl.org/dj/kaggle/a&#45;quick&#45;simple&#45;eda/activity/3208538427433747291&#45;&gt;http://purl.org/dj/kaggle/a&#45;quick&#45;simple&#45;eda/activity/&#45;3641278206966041543</title>
<path fill="none" stroke="black" d="M1650.52,-434.74C1656.48,-411.79 1662.66,-371.41 1641.14,-348 1612.84,-317.21 1369.64,-296.91 1215.94,-287.03"/>
<polygon fill="black" stroke="black" points="1216.16,-283.54 1205.95,-286.4 1215.71,-290.53 1216.16,-283.54"/>
<text text-anchor="middle" x="1678.64" y="-362.3" font-family="Times,serif" font-size="14.00">previous</text>
</g>
<!-- http://purl.org/dj/kaggle/a&#45;quick&#45;simple&#45;eda/activity/1528125097339415392 -->
<g id="node8" class="node">
<title>http://purl.org/dj/kaggle/a&#45;quick&#45;simple&#45;eda/activity/1528125097339415392</title>
<ellipse fill="none" stroke="black" cx="1882.14" cy="-366" rx="148.67" ry="18"/>
<text text-anchor="middle" x="1882.14" y="-362.3" font-family="Times,serif" font-size="14.00">1528125097339415392 (Visualisation)</text>
</g>
<!-- http://purl.org/dj/kaggle/a&#45;quick&#45;simple&#45;eda/activity/3208538427433747291&#45;&gt;http://purl.org/dj/kaggle/a&#45;quick&#45;simple&#45;eda/activity/1528125097339415392 -->
<g id="edge10" class="edge">
<title>http://purl.org/dj/kaggle/a&#45;quick&#45;simple&#45;eda/activity/3208538427433747291&#45;&gt;http://purl.org/dj/kaggle/a&#45;quick&#45;simple&#45;eda/activity/1528125097339415392</title>
<path fill="none" stroke="black" d="M1690.27,-435.81C1729.27,-421.83 1785.75,-401.57 1827.34,-386.65"/>
<polygon fill="black" stroke="black" points="1828.54,-389.94 1836.77,-383.27 1826.17,-383.35 1828.54,-389.94"/>
<text text-anchor="middle" x="1800.64" y="-405.8" font-family="Times,serif" font-size="14.00">previous</text>
</g>
<!-- http://purl.org/dj/kaggle/a&#45;quick&#45;simple&#45;eda/activity/1528125097339415392&#45;&gt;http://purl.org/dj/kaggle/a&#45;quick&#45;simple&#45;eda/activity/&#45;3641278206966041543 -->
<g id="edge11" class="edge">
<title>http://purl.org/dj/kaggle/a&#45;quick&#45;simple&#45;eda/activity/1528125097339415392&#45;&gt;http://purl.org/dj/kaggle/a&#45;quick&#45;simple&#45;eda/activity/&#45;3641278206966041543</title>
<path fill="none" stroke="black" d="M1782.06,-352.62C1755.49,-347.43 1727.22,-340.16 1702.14,-330 1690.83,-325.42 1690.73,-318.82 1679.14,-315 1598.31,-288.34 1374.22,-281.54 1226.93,-280.06"/>
<polygon fill="black" stroke="black" points="1226.93,-276.56 1216.9,-279.96 1226.86,-283.55 1226.93,-276.56"/>
<text text-anchor="middle" x="1725.64" y="-318.8" font-family="Times,serif" font-size="14.00">previous</text>
</g>
<!-- http://purl.org/dj/kaggle/a&#45;quick&#45;simple&#45;eda/activity/1528125097339415392&#45;&gt;http://purl.org/dj/kaggle/a&#45;quick&#45;simple&#45;eda -->
<g id="edge12" class="edge">
<title>http://purl.org/dj/kaggle/a&#45;quick&#45;simple&#45;eda/activity/1528125097339415392&#45;&gt;http://purl.org/dj/kaggle/a&#45;quick&#45;simple&#45;eda</title>
<path fill="none" stroke="black" d="M1843.75,-348.5C1817.5,-337.74 1781.7,-324.06 1749.14,-315 1561.64,-262.84 1337.82,-226.76 1205.19,-208.01"/>
<polygon fill="black" stroke="black" points="1205.4,-204.51 1195.01,-206.58 1204.43,-211.44 1205.4,-204.51"/>
<text text-anchor="middle" x="1693.64" y="-275.3" font-family="Times,serif" font-size="14.00">previous</text>
</g>
<!-- http://purl.org/dj/kaggle/a&#45;quick&#45;simple&#45;eda/activity/&#45;8188049188789453828 -->
<g id="node9" class="node">
<title>http://purl.org/dj/kaggle/a&#45;quick&#45;simple&#45;eda/activity/&#45;8188049188789453828</title>
<ellipse fill="none" stroke="black" cx="1177.14" cy="-366" rx="145.67" ry="18"/>
<text text-anchor="middle" x="1177.14" y="-362.3" font-family="Times,serif" font-size="14.00">&#45;8188049188789453828 (Preparation)</text>
</g>
<!-- http://purl.org/dj/kaggle/a&#45;quick&#45;simple&#45;eda/activity/&#45;8188049188789453828&#45;&gt;http://purl.org/dj/kaggle/a&#45;quick&#45;simple&#45;eda/activity/&#45;3641278206966041543 -->
<g id="edge13" class="edge">
<title>http://purl.org/dj/kaggle/a&#45;quick&#45;simple&#45;eda/activity/&#45;8188049188789453828&#45;&gt;http://purl.org/dj/kaggle/a&#45;quick&#45;simple&#45;eda/activity/&#45;3641278206966041543</title>
<path fill="none" stroke="black" d="M1159.53,-347.8C1146.71,-335.27 1129.18,-318.14 1114.94,-304.23"/>
<polygon fill="black" stroke="black" points="1117.02,-301.37 1107.42,-296.89 1112.13,-306.38 1117.02,-301.37"/>
<text text-anchor="middle" x="1161.64" y="-318.8" font-family="Times,serif" font-size="14.00">previous</text>
</g>
<!-- http://purl.org/dj/kaggle/a&#45;quick&#45;simple&#45;eda/activity/&#45;8874148303292187732 -->
<g id="node10" class="node">
<title>http://purl.org/dj/kaggle/a&#45;quick&#45;simple&#45;eda/activity/&#45;8874148303292187732</title>
<ellipse fill="none" stroke="black" cx="842.14" cy="-540" rx="151.37" ry="18"/>
<text text-anchor="middle" x="842.14" y="-536.3" font-family="Times,serif" font-size="14.00">&#45;8874148303292187732 (Visualisation)</text>
</g>
<!-- http://purl.org/dj/kaggle/a&#45;quick&#45;simple&#45;eda/activity/&#45;8874148303292187732&#45;&gt;http://purl.org/dj/kaggle/a&#45;quick&#45;simple&#45;eda/activity/8935780979262475574 -->
<g id="edge14" class="edge">
<title>http://purl.org/dj/kaggle/a&#45;quick&#45;simple&#45;eda/activity/&#45;8874148303292187732&#45;&gt;http://purl.org/dj/kaggle/a&#45;quick&#45;simple&#45;eda/activity/8935780979262475574</title>
<path fill="none" stroke="black" d="M709.01,-531.35C557.59,-521.26 327.75,-501.17 301.14,-471 279.92,-446.95 305.42,-413.28 328.31,-390.84"/>
<polygon fill="black" stroke="black" points="330.72,-393.38 335.59,-383.97 325.91,-388.29 330.72,-393.38"/>
<text text-anchor="middle" x="324.64" y="-449.3" font-family="Times,serif" font-size="14.00">previous</text>
</g>
<!-- http://purl.org/dj/kaggle/a&#45;quick&#45;simple&#45;eda/activity/&#45;8874148303292187732&#45;&gt;http://purl.org/dj/kaggle/a&#45;quick&#45;simple&#45;eda/activity/3208538427433747291 -->
<g id="edge15" class="edge">
<title>http://purl.org/dj/kaggle/a&#45;quick&#45;simple&#45;eda/activity/&#45;8874148303292187732&#45;&gt;http://purl.org/dj/kaggle/a&#45;quick&#45;simple&#45;eda/activity/3208538427433747291</title>
<path fill="none" stroke="black" d="M951.27,-527.45C1102.54,-511.44 1374.74,-482.62 1529.42,-466.25"/>
<polygon fill="black" stroke="black" points="1529.86,-469.72 1539.44,-465.19 1529.13,-462.76 1529.86,-469.72"/>
<text text-anchor="middle" x="1314.64" y="-492.8" font-family="Times,serif" font-size="14.00">previous</text>
</g>
<!-- http://purl.org/dj/kaggle/a&#45;quick&#45;simple&#45;eda/activity/&#45;5575696175151426801&#45;&gt;http://purl.org/dj/kaggle/a&#45;quick&#45;simple&#45;eda/activity/&#45;3641278206966041543 -->
<g id="edge16" class="edge">
<title>http://purl.org/dj/kaggle/a&#45;quick&#45;simple&#45;eda/activity/&#45;5575696175151426801&#45;&gt;http://purl.org/dj/kaggle/a&#45;quick&#45;simple&#45;eda/activity/&#45;3641278206966041543</title>
<path fill="none" stroke="black" d="M1515.46,-35.93C1474.79,-72.1 1374.05,-157.82 1277.14,-210 1238.33,-230.9 1191.75,-247.86 1154.79,-259.61"/>
<polygon fill="black" stroke="black" points="1153.62,-256.31 1145.12,-262.64 1155.71,-262.99 1153.62,-256.31"/>
<text text-anchor="middle" x="1405.64" y="-144.8" font-family="Times,serif" font-size="14.00">previous</text>
</g>
<!-- http://purl.org/dj/kaggle/a&#45;quick&#45;simple&#45;eda/activity/&#45;1435285656489103489&#45;&gt;http://purl.org/dj/kaggle/a&#45;quick&#45;simple&#45;eda/activity/&#45;3641278206966041543 -->
<g id="edge21" class="edge">
<title>http://purl.org/dj/kaggle/a&#45;quick&#45;simple&#45;eda/activity/&#45;1435285656489103489&#45;&gt;http://purl.org/dj/kaggle/a&#45;quick&#45;simple&#45;eda/activity/&#45;3641278206966041543</title>
<path fill="none" stroke="black" d="M552.68,-35.84C616.59,-70.73 769.61,-152.48 903.14,-210 945.81,-228.38 995.25,-246.21 1032.58,-259"/>
<polygon fill="black" stroke="black" points="1031.69,-262.4 1042.28,-262.31 1033.94,-255.77 1031.69,-262.4"/>
<text text-anchor="middle" x="807.64" y="-144.8" font-family="Times,serif" font-size="14.00">previous</text>
</g>
<!-- http://purl.org/dj/kaggle/a&#45;quick&#45;simple&#45;eda/activity/&#45;7809109147285017853 -->
<g id="node13" class="node">
<title>http://purl.org/dj/kaggle/a&#45;quick&#45;simple&#45;eda/activity/&#45;7809109147285017853</title>
<ellipse fill="none" stroke="black" cx="1645.14" cy="-540" rx="151.37" ry="18"/>
<text text-anchor="middle" x="1645.14" y="-536.3" font-family="Times,serif" font-size="14.00">&#45;7809109147285017853 (Visualisation)</text>
</g>
<!-- http://purl.org/dj/kaggle/a&#45;quick&#45;simple&#45;eda/activity/&#45;7809109147285017853&#45;&gt;http://purl.org/dj/kaggle/a&#45;quick&#45;simple&#45;eda/activity/&#45;3641278206966041543 -->
<g id="edge22" class="edge">
<title>http://purl.org/dj/kaggle/a&#45;quick&#45;simple&#45;eda/activity/&#45;7809109147285017853&#45;&gt;http://purl.org/dj/kaggle/a&#45;quick&#45;simple&#45;eda/activity/&#45;3641278206966041543</title>
<path fill="none" stroke="black" d="M1497.18,-536.09C1386.64,-532.33 1245.64,-523.72 1191.14,-504 1104.52,-472.66 1064.41,-465.85 1022.14,-384 1007.2,-355.07 1033.51,-324.1 1057.63,-303.55"/>
<polygon fill="black" stroke="black" points="1060.13,-306.04 1065.66,-297 1055.7,-300.61 1060.13,-306.04"/>
<text text-anchor="middle" x="1064.64" y="-405.8" font-family="Times,serif" font-size="14.00">previous</text>
</g>
<!-- http://purl.org/dj/kaggle/a&#45;quick&#45;simple&#45;eda/activity/&#45;7809109147285017853&#45;&gt;http://purl.org/dj/kaggle/a&#45;quick&#45;simple&#45;eda/activity/3208538427433747291 -->
<g id="edge23" class="edge">
<title>http://purl.org/dj/kaggle/a&#45;quick&#45;simple&#45;eda/activity/&#45;7809109147285017853&#45;&gt;http://purl.org/dj/kaggle/a&#45;quick&#45;simple&#45;eda/activity/3208538427433747291</title>
<path fill="none" stroke="black" d="M1645.14,-521.8C1645.14,-510.16 1645.14,-494.55 1645.14,-481.24"/>
<polygon fill="black" stroke="black" points="1648.64,-481.18 1645.14,-471.18 1641.64,-481.18 1648.64,-481.18"/>
<text text-anchor="middle" x="1668.64" y="-492.8" font-family="Times,serif" font-size="14.00">previous</text>
</g>
<!-- http://purl.org/dj/kaggle/a&#45;quick&#45;simple&#45;eda/activity/8286949000408077004 -->
<g id="node14" class="node">
<title>http://purl.org/dj/kaggle/a&#45;quick&#45;simple&#45;eda/activity/8286949000408077004</title>
<ellipse fill="none" stroke="black" cx="1949.14" cy="-453" rx="142.97" ry="18"/>
<text text-anchor="middle" x="1949.14" y="-449.3" font-family="Times,serif" font-size="14.00">8286949000408077004 (Preparation)</text>
</g>
<!-- http://purl.org/dj/kaggle/a&#45;quick&#45;simple&#45;eda/activity/&#45;7809109147285017853&#45;&gt;http://purl.org/dj/kaggle/a&#45;quick&#45;simple&#45;eda/activity/8286949000408077004 -->
<g id="edge24" class="edge">
<title>http://purl.org/dj/kaggle/a&#45;quick&#45;simple&#45;eda/activity/&#45;7809109147285017853&#45;&gt;http://purl.org/dj/kaggle/a&#45;quick&#45;simple&#45;eda/activity/8286949000408077004</title>
<path fill="none" stroke="black" d="M1701.61,-523.21C1753.09,-508.82 1829.17,-487.54 1883.37,-472.39"/>
<polygon fill="black" stroke="black" points="1884.54,-475.7 1893.23,-469.63 1882.66,-468.95 1884.54,-475.7"/>
<text text-anchor="middle" x="1838.64" y="-492.8" font-family="Times,serif" font-size="14.00">previous</text>
</g>
<!-- http://purl.org/dj/kaggle/a&#45;quick&#45;simple&#45;eda/activity/8286949000408077004&#45;&gt;http://purl.org/dj/kaggle/a&#45;quick&#45;simple&#45;eda/activity/&#45;3641278206966041543 -->
<g id="edge25" class="edge">
<title>http://purl.org/dj/kaggle/a&#45;quick&#45;simple&#45;eda/activity/8286949000408077004&#45;&gt;http://purl.org/dj/kaggle/a&#45;quick&#45;simple&#45;eda/activity/&#45;3641278206966041543</title>
<path fill="none" stroke="black" d="M1981.6,-435.35C2017.67,-414.74 2067.44,-378.62 2040.14,-348 2013.31,-317.91 1476.04,-294.2 1221.61,-284.62"/>
<polygon fill="black" stroke="black" points="1221.69,-281.12 1211.56,-284.24 1221.42,-288.11 1221.69,-281.12"/>
<text text-anchor="middle" x="2070.64" y="-362.3" font-family="Times,serif" font-size="14.00">previous</text>
</g>
<!-- http://purl.org/dj/kaggle/a&#45;quick&#45;simple&#45;eda/activity/8286949000408077004&#45;&gt;http://purl.org/dj/kaggle/a&#45;quick&#45;simple&#45;eda/activity/1528125097339415392 -->
<g id="edge26" class="edge">
<title>http://purl.org/dj/kaggle/a&#45;quick&#45;simple&#45;eda/activity/8286949000408077004&#45;&gt;http://purl.org/dj/kaggle/a&#45;quick&#45;simple&#45;eda/activity/1528125097339415392</title>
<path fill="none" stroke="black" d="M1935.58,-434.8C1925.95,-422.59 1912.87,-405.99 1902.06,-392.28"/>
<polygon fill="black" stroke="black" points="1904.62,-389.86 1895.68,-384.18 1899.12,-394.2 1904.62,-389.86"/>
<text text-anchor="middle" x="1942.64" y="-405.8" font-family="Times,serif" font-size="14.00">previous</text>
</g>
<!-- http://purl.org/dj/kaggle/a&#45;quick&#45;simple&#45;eda/activity/&#45;9049514792346671011 -->
<g id="node15" class="node">
<title>http://purl.org/dj/kaggle/a&#45;quick&#45;simple&#45;eda/activity/&#45;9049514792346671011</title>
<ellipse fill="none" stroke="black" cx="1486.14" cy="-366" rx="145.67" ry="18"/>
<text text-anchor="middle" x="1486.14" y="-362.3" font-family="Times,serif" font-size="14.00">&#45;9049514792346671011 (Preparation)</text>
</g>
<!-- http://purl.org/dj/kaggle/a&#45;quick&#45;simple&#45;eda/activity/&#45;9049514792346671011&#45;&gt;http://purl.org/dj/kaggle/a&#45;quick&#45;simple&#45;eda/activity/&#45;3641278206966041543 -->
<g id="edge27" class="edge">
<title>http://purl.org/dj/kaggle/a&#45;quick&#45;simple&#45;eda/activity/&#45;9049514792346671011&#45;&gt;http://purl.org/dj/kaggle/a&#45;quick&#45;simple&#45;eda/activity/&#45;3641278206966041543</title>
<path fill="none" stroke="black" d="M1416.71,-350.1C1346.8,-335.09 1239.21,-312 1166.82,-296.46"/>
<polygon fill="black" stroke="black" points="1167.36,-293 1156.85,-294.32 1165.89,-299.84 1167.36,-293"/>
<text text-anchor="middle" x="1334.64" y="-318.8" font-family="Times,serif" font-size="14.00">previous</text>
</g>
<!-- http://purl.org/dj/kaggle/a&#45;quick&#45;simple&#45;eda/activity/1428948492683479018 -->
<g id="node16" class="node">
<title>http://purl.org/dj/kaggle/a&#45;quick&#45;simple&#45;eda/activity/1428948492683479018</title>
<ellipse fill="none" stroke="black" cx="124.14" cy="-453" rx="124.28" ry="18"/>
<text text-anchor="middle" x="124.14" y="-449.3" font-family="Times,serif" font-size="14.00">1428948492683479018 (Reuse)</text>
</g>
<!-- http://purl.org/dj/kaggle/a&#45;quick&#45;simple&#45;eda/activity/1428948492683479018&#45;&gt;http://purl.org/dj/kaggle/a&#45;quick&#45;simple&#45;eda/activity/8935780979262475574 -->
<g id="edge28" class="edge">
<title>http://purl.org/dj/kaggle/a&#45;quick&#45;simple&#45;eda/activity/1428948492683479018&#45;&gt;http://purl.org/dj/kaggle/a&#45;quick&#45;simple&#45;eda/activity/8935780979262475574</title>
<path fill="none" stroke="black" d="M155.86,-435.5C176.85,-425 205.18,-411.62 231.14,-402 247.92,-395.78 266.32,-390.05 283.72,-385.1"/>
<polygon fill="black" stroke="black" points="285.13,-388.34 293.82,-382.29 283.25,-381.6 285.13,-388.34"/>
<text text-anchor="middle" x="254.64" y="-405.8" font-family="Times,serif" font-size="14.00">previous</text>
</g>
<!-- http://purl.org/dj/kaggle/a&#45;quick&#45;simple&#45;eda/activity/1428948492683479018&#45;&gt;http://purl.org/dj/kaggle/a&#45;quick&#45;simple&#45;eda/activity/4580808100210505850 -->
<g id="edge29" class="edge">
<title>http://purl.org/dj/kaggle/a&#45;quick&#45;simple&#45;eda/activity/1428948492683479018&#45;&gt;http://purl.org/dj/kaggle/a&#45;quick&#45;simple&#45;eda/activity/4580808100210505850</title>
<path fill="none" stroke="black" d="M119.5,-434.72C113.21,-408.32 104.08,-356.65 116.14,-315 126.98,-277.57 153.69,-241.06 173.27,-217.89"/>
<polygon fill="black" stroke="black" points="175.97,-220.12 179.87,-210.27 170.68,-215.54 175.97,-220.12"/>
<text text-anchor="middle" x="139.64" y="-318.8" font-family="Times,serif" font-size="14.00">previous</text>
</g>
<!-- http://purl.org/dj/kaggle/a&#45;quick&#45;simple&#45;eda/activity/2354491199985921904 -->
<g id="node17" class="node">
<title>http://purl.org/dj/kaggle/a&#45;quick&#45;simple&#45;eda/activity/2354491199985921904</title>
<ellipse fill="none" stroke="black" cx="506.14" cy="-453" rx="148.67" ry="18"/>
<text text-anchor="middle" x="506.14" y="-449.3" font-family="Times,serif" font-size="14.00">2354491199985921904 (Visualisation)</text>
</g>
<!-- http://purl.org/dj/kaggle/a&#45;quick&#45;simple&#45;eda/activity/2354491199985921904&#45;&gt;http://purl.org/dj/kaggle/a&#45;quick&#45;simple&#45;eda/activity/8935780979262475574 -->
<g id="edge30" class="edge">
<title>http://purl.org/dj/kaggle/a&#45;quick&#45;simple&#45;eda/activity/2354491199985921904&#45;&gt;http://purl.org/dj/kaggle/a&#45;quick&#45;simple&#45;eda/activity/8935780979262475574</title>
<path fill="none" stroke="black" d="M476.5,-435.21C453.08,-421.93 420.21,-403.31 394.73,-388.87"/>
<polygon fill="black" stroke="black" points="396.14,-385.64 385.71,-383.76 392.69,-391.73 396.14,-385.64"/>
<text text-anchor="middle" x="463.64" y="-405.8" font-family="Times,serif" font-size="14.00">previous</text>
</g>
<!-- http://purl.org/dj/kaggle/a&#45;quick&#45;simple&#45;eda/activity/2354491199985921904&#45;&gt;http://purl.org/dj/kaggle/a&#45;quick&#45;simple&#45;eda/activity/&#45;3641278206966041543 -->
<g id="edge31" class="edge">
<title>http://purl.org/dj/kaggle/a&#45;quick&#45;simple&#45;eda/activity/2354491199985921904&#45;&gt;http://purl.org/dj/kaggle/a&#45;quick&#45;simple&#45;eda/activity/&#45;3641278206966041543</title>
<path fill="none" stroke="black" d="M576.8,-437.07C605.75,-430.91 639.56,-423.67 670.14,-417 735.98,-402.63 760.6,-419.09 818.14,-384 835.92,-373.15 830.73,-359.44 848.14,-348 891.51,-319.5 910.19,-329.08 960.14,-315 980.54,-309.25 1002.79,-303.18 1023.03,-297.74"/>
<polygon fill="black" stroke="black" points="1024.03,-301.1 1032.78,-295.13 1022.22,-294.34 1024.03,-301.1"/>
<text text-anchor="middle" x="871.64" y="-362.3" font-family="Times,serif" font-size="14.00">previous</text>
</g>
<!-- http://purl.org/dj/kaggle/a&#45;quick&#45;simple&#45;eda/activity/2354491199985921904&#45;&gt;http://purl.org/dj/kaggle/a&#45;quick&#45;simple&#45;eda/activity/4580808100210505850 -->
<g id="edge32" class="edge">
<title>http://purl.org/dj/kaggle/a&#45;quick&#45;simple&#45;eda/activity/2354491199985921904&#45;&gt;http://purl.org/dj/kaggle/a&#45;quick&#45;simple&#45;eda/activity/4580808100210505850</title>
<path fill="none" stroke="black" d="M400.04,-440.31C311.65,-430.51 200.01,-417.96 199.14,-417 149.78,-362.43 171.74,-266.18 186.56,-219.66"/>
<polygon fill="black" stroke="black" points="189.94,-220.59 189.77,-209.99 183.3,-218.38 189.94,-220.59"/>
<text text-anchor="middle" x="192.64" y="-318.8" font-family="Times,serif" font-size="14.00">previous</text>
</g>
<!-- http://purl.org/dj/kaggle/a&#45;quick&#45;simple&#45;eda/activity/3379520249464455441 -->
<g id="node18" class="node">
<title>http://purl.org/dj/kaggle/a&#45;quick&#45;simple&#45;eda/activity/3379520249464455441</title>
<ellipse fill="none" stroke="black" cx="2275.14" cy="-366" rx="142.97" ry="18"/>
<text text-anchor="middle" x="2275.14" y="-362.3" font-family="Times,serif" font-size="14.00">3379520249464455441 (Preparation)</text>
</g>
<!-- http://purl.org/dj/kaggle/a&#45;quick&#45;simple&#45;eda/activity/3379520249464455441&#45;&gt;http://purl.org/dj/kaggle/a&#45;quick&#45;simple&#45;eda/activity/&#45;3641278206966041543 -->
<g id="edge33" class="edge">
<title>http://purl.org/dj/kaggle/a&#45;quick&#45;simple&#45;eda/activity/3379520249464455441&#45;&gt;http://purl.org/dj/kaggle/a&#45;quick&#45;simple&#45;eda/activity/&#45;3641278206966041543</title>
<path fill="none" stroke="black" d="M2225.5,-349.03C2186.66,-337.31 2131.05,-322.23 2081.14,-315 1998.79,-303.08 1475.69,-289.2 1224.46,-283.12"/>
<polygon fill="black" stroke="black" points="1224.26,-279.62 1214.18,-282.87 1224.09,-286.62 1224.26,-279.62"/>
<text text-anchor="middle" x="2174.64" y="-318.8" font-family="Times,serif" font-size="14.00">previous</text>
</g>
<!-- http://purl.org/dj/kaggle/a&#45;quick&#45;simple&#45;eda/activity/5858369851873056839 -->
<g id="node19" class="node">
<title>http://purl.org/dj/kaggle/a&#45;quick&#45;simple&#45;eda/activity/5858369851873056839</title>
<ellipse fill="none" stroke="black" cx="2579.14" cy="-366" rx="142.97" ry="18"/>
<text text-anchor="middle" x="2579.14" y="-362.3" font-family="Times,serif" font-size="14.00">5858369851873056839 (Preparation)</text>
</g>
<!-- http://purl.org/dj/kaggle/a&#45;quick&#45;simple&#45;eda/activity/5858369851873056839&#45;&gt;http://purl.org/dj/kaggle/a&#45;quick&#45;simple&#45;eda/activity/&#45;3641278206966041543 -->
<g id="edge34" class="edge">
<title>http://purl.org/dj/kaggle/a&#45;quick&#45;simple&#45;eda/activity/5858369851873056839&#45;&gt;http://purl.org/dj/kaggle/a&#45;quick&#45;simple&#45;eda/activity/&#45;3641278206966041543</title>
<path fill="none" stroke="black" d="M2495.17,-351.41C2418.95,-339.65 2303.31,-323.28 2202.14,-315 2107.15,-307.23 1497.63,-290.63 1223.44,-283.44"/>
<polygon fill="black" stroke="black" points="1223.52,-279.94 1213.43,-283.18 1223.34,-286.94 1223.52,-279.94"/>
<text text-anchor="middle" x="2360.64" y="-318.8" font-family="Times,serif" font-size="14.00">previous</text>
</g>
<!-- http://purl.org/dj/kaggle/a&#45;quick&#45;simple&#45;eda/activity/3884714694980560506 -->
<g id="node20" class="node">
<title>http://purl.org/dj/kaggle/a&#45;quick&#45;simple&#45;eda/activity/3884714694980560506</title>
<ellipse fill="none" stroke="black" cx="2883.14" cy="-366" rx="142.97" ry="18"/>
<text text-anchor="middle" x="2883.14" y="-362.3" font-family="Times,serif" font-size="14.00">3884714694980560506 (Preparation)</text>
</g>
<!-- http://purl.org/dj/kaggle/a&#45;quick&#45;simple&#45;eda/activity/3884714694980560506&#45;&gt;http://purl.org/dj/kaggle/a&#45;quick&#45;simple&#45;eda/activity/&#45;3641278206966041543 -->
<g id="edge35" class="edge">
<title>http://purl.org/dj/kaggle/a&#45;quick&#45;simple&#45;eda/activity/3884714694980560506&#45;&gt;http://purl.org/dj/kaggle/a&#45;quick&#45;simple&#45;eda/activity/&#45;3641278206966041543</title>
<path fill="none" stroke="black" d="M2785.18,-352.81C2685.45,-340.95 2526.29,-323.5 2388.14,-315 2359.4,-313.23 1549.52,-291.99 1223.85,-283.48"/>
<polygon fill="black" stroke="black" points="1223.5,-279.97 1213.41,-283.21 1223.32,-286.97 1223.5,-279.97"/>
<text text-anchor="middle" x="2588.64" y="-318.8" font-family="Times,serif" font-size="14.00">previous</text>
</g>
<!-- http://purl.org/dj/kaggle/a&#45;quick&#45;simple&#45;eda/activity/&#45;2401515814579716486 -->
<g id="node21" class="node">
<title>http://purl.org/dj/kaggle/a&#45;quick&#45;simple&#45;eda/activity/&#45;2401515814579716486</title>
<ellipse fill="none" stroke="black" cx="663.14" cy="-366" rx="145.67" ry="18"/>
<text text-anchor="middle" x="663.14" y="-362.3" font-family="Times,serif" font-size="14.00">&#45;2401515814579716486 (Preparation)</text>
</g>
<!-- http://purl.org/dj/kaggle/a&#45;quick&#45;simple&#45;eda/activity/&#45;2401515814579716486&#45;&gt;http://purl.org/dj/kaggle/a&#45;quick&#45;simple&#45;eda/activity/&#45;3641278206966041543 -->
<g id="edge36" class="edge">
<title>http://purl.org/dj/kaggle/a&#45;quick&#45;simple&#45;eda/activity/&#45;2401515814579716486&#45;&gt;http://purl.org/dj/kaggle/a&#45;quick&#45;simple&#45;eda/activity/&#45;3641278206966041543</title>
<path fill="none" stroke="black" d="M709.51,-348.92C724.56,-343.34 741.21,-336.77 756.14,-330 769,-324.17 770.66,-319.21 784.14,-315 839.39,-297.74 902.64,-288.81 957.24,-284.27"/>
<polygon fill="black" stroke="black" points="957.63,-287.75 967.33,-283.47 957.08,-280.77 957.63,-287.75"/>
<text text-anchor="middle" x="807.64" y="-318.8" font-family="Times,serif" font-size="14.00">previous</text>
</g>
</g>
</svg>
