<?xml version="1.0" encoding="UTF-8" standalone="no"?>
<!DOCTYPE svg PUBLIC "-//W3C//DTD SVG 1.1//EN"
 "http://www.w3.org/Graphics/SVG/1.1/DTD/svg11.dtd">
<!-- Generated by graphviz version 2.44.1 (20200629.0846)
 -->
<!-- Pages: 1 -->
<svg width="610pt" height="413pt"
 viewBox="0.00 0.00 609.58 413.00" xmlns="http://www.w3.org/2000/svg" xmlns:xlink="http://www.w3.org/1999/xlink">
<g id="graph0" class="graph" transform="scale(1 1) rotate(0) translate(4 409)">
<polygon fill="white" stroke="transparent" points="-4,4 -4,-409 605.58,-409 605.58,4 -4,4"/>
<!-- http://purl.org/dj/kaggle/a1&#45;demo&#45;pandas&#45;and&#45;uci&#45;adult&#45;dataset#80085334 -->
<g id="node1" class="node">
<title>http://purl.org/dj/kaggle/a1&#45;demo&#45;pandas&#45;and&#45;uci&#45;adult&#45;dataset#80085334</title>
<ellipse fill="none" stroke="black" cx="99.44" cy="-213" rx="99.38" ry="18"/>
<text text-anchor="middle" x="99.44" y="-209.3" font-family="Times,serif" font-size="14.00">80085334 (pd(0): Reuse)</text>
</g>
<!-- http://purl.org/dj/python/lib/144966264 -->
<g id="node2" class="node">
<title>http://purl.org/dj/python/lib/144966264</title>
<ellipse fill="none" stroke="black" cx="257.44" cy="-105" rx="109.38" ry="18"/>
<text text-anchor="middle" x="257.44" y="-101.3" font-family="Times,serif" font-size="14.00">144966264 (pandas: Reuse)</text>
</g>
<!-- http://purl.org/dj/kaggle/a1&#45;demo&#45;pandas&#45;and&#45;uci&#45;adult&#45;dataset#80085334&#45;&gt;http://purl.org/dj/python/lib/144966264 -->
<g id="edge1" class="edge">
<title>http://purl.org/dj/kaggle/a1&#45;demo&#45;pandas&#45;and&#45;uci&#45;adult&#45;dataset#80085334&#45;&gt;http://purl.org/dj/python/lib/144966264</title>
<path fill="none" stroke="black" d="M105.87,-194.9C112.79,-178.76 125.3,-154.99 143.44,-141 153.63,-133.14 165.59,-127.04 177.87,-122.29"/>
<polygon fill="black" stroke="black" points="179.05,-125.59 187.29,-118.93 176.69,-119 179.05,-125.59"/>
<text text-anchor="middle" x="181.94" y="-155.3" font-family="Times,serif" font-size="14.00">assignedFrom</text>
</g>
<!-- http://purl.org/dj/kaggle/a1&#45;demo&#45;pandas&#45;and&#45;uci&#45;adult&#45;dataset -->
<g id="node3" class="node">
<title>http://purl.org/dj/kaggle/a1&#45;demo&#45;pandas&#45;and&#45;uci&#45;adult&#45;dataset</title>
<ellipse fill="none" stroke="black" cx="257.44" cy="-18" rx="146.47" ry="18"/>
<text text-anchor="middle" x="257.44" y="-14.3" font-family="Times,serif" font-size="14.00">a1&#45;demo&#45;pandas&#45;and&#45;uci&#45;adult&#45;dataset</text>
</g>
<!-- http://purl.org/dj/kaggle/a1&#45;demo&#45;pandas&#45;and&#45;uci&#45;adult&#45;dataset#80085334&#45;&gt;http://purl.org/dj/kaggle/a1&#45;demo&#45;pandas&#45;and&#45;uci&#45;adult&#45;dataset -->
<g id="edge2" class="edge">
<title>http://purl.org/dj/kaggle/a1&#45;demo&#45;pandas&#45;and&#45;uci&#45;adult&#45;dataset#80085334&#45;&gt;http://purl.org/dj/kaggle/a1&#45;demo&#45;pandas&#45;and&#45;uci&#45;adult&#45;dataset</title>
<path fill="none" stroke="black" d="M91.22,-194.94C80.12,-169.18 64.15,-119.86 86.44,-87 103.69,-61.58 132.09,-45.67 160.85,-35.7"/>
<polygon fill="black" stroke="black" points="162.16,-38.95 170.6,-32.54 160,-32.29 162.16,-38.95"/>
<text text-anchor="middle" x="112.94" y="-101.3" font-family="Times,serif" font-size="14.00">appearsIn</text>
</g>
<!-- http://purl.org/dj/python/lib/144966264&#45;&gt;http://purl.org/dj/kaggle/a1&#45;demo&#45;pandas&#45;and&#45;uci&#45;adult&#45;dataset -->
<g id="edge3" class="edge">
<title>http://purl.org/dj/python/lib/144966264&#45;&gt;http://purl.org/dj/kaggle/a1&#45;demo&#45;pandas&#45;and&#45;uci&#45;adult&#45;dataset</title>
<path fill="none" stroke="black" d="M257.44,-86.8C257.44,-75.16 257.44,-59.55 257.44,-46.24"/>
<polygon fill="black" stroke="black" points="260.94,-46.18 257.44,-36.18 253.94,-46.18 260.94,-46.18"/>
<text text-anchor="middle" x="290.44" y="-57.8" font-family="Times,serif" font-size="14.00">importedBy</text>
</g>
<!-- http://purl.org/dj/kaggle/a1&#45;demo&#45;pandas&#45;and&#45;uci&#45;adult&#45;dataset#2016086216 -->
<g id="node4" class="node">
<title>http://purl.org/dj/kaggle/a1&#45;demo&#45;pandas&#45;and&#45;uci&#45;adult&#45;dataset#2016086216</title>
<ellipse fill="none" stroke="black" cx="425.44" cy="-159" rx="176.27" ry="18"/>
<text text-anchor="middle" x="425.44" y="-155.3" font-family="Times,serif" font-size="14.00">2016086216 (../input/adult.data.csv(0): Reuse)</text>
</g>
<!-- http://purl.org/dj/kaggle/a1&#45;demo&#45;pandas&#45;and&#45;uci&#45;adult&#45;dataset#2016086216&#45;&gt;http://purl.org/dj/kaggle/a1&#45;demo&#45;pandas&#45;and&#45;uci&#45;adult&#45;dataset -->
<g id="edge4" class="edge">
<title>http://purl.org/dj/kaggle/a1&#45;demo&#45;pandas&#45;and&#45;uci&#45;adult&#45;dataset#2016086216&#45;&gt;http://purl.org/dj/kaggle/a1&#45;demo&#45;pandas&#45;and&#45;uci&#45;adult&#45;dataset</title>
<path fill="none" stroke="black" d="M415.82,-140.94C406.69,-125.7 391.95,-103.32 375.44,-87 355.64,-67.42 329.08,-51.46 306.18,-39.94"/>
<polygon fill="black" stroke="black" points="307.47,-36.68 296.95,-35.43 304.4,-42.97 307.47,-36.68"/>
<text text-anchor="middle" x="429.94" y="-101.3" font-family="Times,serif" font-size="14.00">appearsIn</text>
</g>
<!-- http://purl.org/dj/kaggle/a1&#45;demo&#45;pandas&#45;and&#45;uci&#45;adult&#45;dataset#243401328 -->
<g id="node5" class="node">
<title>http://purl.org/dj/kaggle/a1&#45;demo&#45;pandas&#45;and&#45;uci&#45;adult&#45;dataset#243401328</title>
<ellipse fill="none" stroke="black" cx="234.44" cy="-300" rx="135.68" ry="18"/>
<text text-anchor="middle" x="234.44" y="-296.3" font-family="Times,serif" font-size="14.00">243401328 (data(0)$0: Movement)</text>
</g>
<!-- http://purl.org/dj/kaggle/a1&#45;demo&#45;pandas&#45;and&#45;uci&#45;adult&#45;dataset#243401328&#45;&gt;http://purl.org/dj/kaggle/a1&#45;demo&#45;pandas&#45;and&#45;uci&#45;adult&#45;dataset#80085334 -->
<g id="edge5" class="edge">
<title>http://purl.org/dj/kaggle/a1&#45;demo&#45;pandas&#45;and&#45;uci&#45;adult&#45;dataset#243401328&#45;&gt;http://purl.org/dj/kaggle/a1&#45;demo&#45;pandas&#45;and&#45;uci&#45;adult&#45;dataset#80085334</title>
<path fill="none" stroke="black" d="M203,-282.34C192.81,-276.72 181.53,-270.28 171.44,-264 157.69,-255.44 142.93,-245.35 130.37,-236.49"/>
<polygon fill="black" stroke="black" points="132.25,-233.53 122.07,-230.58 128.19,-239.23 132.25,-233.53"/>
<text text-anchor="middle" x="195.94" y="-252.8" font-family="Times,serif" font-size="14.00">read_csv</text>
</g>
<!-- http://purl.org/dj/kaggle/a1&#45;demo&#45;pandas&#45;and&#45;uci&#45;adult&#45;dataset#243401328&#45;&gt;http://purl.org/dj/python/lib/144966264 -->
<g id="edge6" class="edge">
<title>http://purl.org/dj/kaggle/a1&#45;demo&#45;pandas&#45;and&#45;uci&#45;adult&#45;dataset#243401328&#45;&gt;http://purl.org/dj/python/lib/144966264</title>
<path fill="none" stroke="black" d="M233.13,-281.98C231.84,-261.32 230.57,-225.45 234.44,-195 237.15,-173.69 243.37,-150.19 248.66,-132.69"/>
<polygon fill="black" stroke="black" points="252,-133.73 251.63,-123.14 245.31,-131.65 252,-133.73"/>
<text text-anchor="middle" x="279.94" y="-209.3" font-family="Times,serif" font-size="14.00">previousActivity</text>
</g>
<!-- http://purl.org/dj/kaggle/a1&#45;demo&#45;pandas&#45;and&#45;uci&#45;adult&#45;dataset#243401328&#45;&gt;http://purl.org/dj/kaggle/a1&#45;demo&#45;pandas&#45;and&#45;uci&#45;adult&#45;dataset#2016086216 -->
<g id="edge7" class="edge">
<title>http://purl.org/dj/kaggle/a1&#45;demo&#45;pandas&#45;and&#45;uci&#45;adult&#45;dataset#243401328&#45;&gt;http://purl.org/dj/kaggle/a1&#45;demo&#45;pandas&#45;and&#45;uci&#45;adult&#45;dataset#2016086216</title>
<path fill="none" stroke="black" d="M258.33,-282.06C277.59,-268.36 305.33,-248.54 329.44,-231 351.24,-215.14 375.68,-197.06 394.44,-183.12"/>
<polygon fill="black" stroke="black" points="396.69,-185.8 402.63,-177.03 392.51,-180.19 396.69,-185.8"/>
<text text-anchor="middle" x="326.94" y="-252.8" font-family="Times,serif" font-size="14.00">read_csv</text>
</g>
<!-- http://purl.org/dj/kaggle/a1&#45;demo&#45;pandas&#45;and&#45;uci&#45;adult&#45;dataset#243466865 -->
<g id="node6" class="node">
<title>http://purl.org/dj/kaggle/a1&#45;demo&#45;pandas&#45;and&#45;uci&#45;adult&#45;dataset#243466865</title>
<ellipse fill="none" stroke="black" cx="234.44" cy="-387" rx="137.58" ry="18"/>
<text text-anchor="middle" x="234.44" y="-383.3" font-family="Times,serif" font-size="14.00">243466865 (data(0)$1: Preparation)</text>
</g>
<!-- http://purl.org/dj/kaggle/a1&#45;demo&#45;pandas&#45;and&#45;uci&#45;adult&#45;dataset#243466865&#45;&gt;http://purl.org/dj/kaggle/a1&#45;demo&#45;pandas&#45;and&#45;uci&#45;adult&#45;dataset#243401328 -->
<g id="edge8" class="edge">
<title>http://purl.org/dj/kaggle/a1&#45;demo&#45;pandas&#45;and&#45;uci&#45;adult&#45;dataset#243466865&#45;&gt;http://purl.org/dj/kaggle/a1&#45;demo&#45;pandas&#45;and&#45;uci&#45;adult&#45;dataset#243401328</title>
<path fill="none" stroke="black" d="M234.44,-368.8C234.44,-357.16 234.44,-341.55 234.44,-328.24"/>
<polygon fill="black" stroke="black" points="237.94,-328.18 234.44,-318.18 230.94,-328.18 237.94,-328.18"/>
<text text-anchor="middle" x="279.94" y="-339.8" font-family="Times,serif" font-size="14.00">previousActivity</text>
</g>
</g>
</svg>
