<?xml version="1.0" encoding="UTF-8" standalone="no"?>
<!DOCTYPE svg PUBLIC "-//W3C//DTD SVG 1.1//EN"
 "http://www.w3.org/Graphics/SVG/1.1/DTD/svg11.dtd">
<!-- Generated by graphviz version 2.47.1 (20210417.1919)
 -->
<!-- Pages: 1 -->
<svg width="2583pt" height="827pt"
 viewBox="0.00 0.00 2582.97 827.00" xmlns="http://www.w3.org/2000/svg" xmlns:xlink="http://www.w3.org/1999/xlink">
<g id="graph0" class="graph" transform="scale(1 1) rotate(0) translate(4 823)">
<polygon fill="white" stroke="transparent" points="-4,4 -4,-823 2578.97,-823 2578.97,4 -4,4"/>
<!-- http://purl.org/dj/kaggle/aptos&#45;2019&#45;keras&#45;baseline/activity/1453198275034262676 -->
<g id="node1" class="node">
<title>http://purl.org/dj/kaggle/aptos&#45;2019&#45;keras&#45;baseline/activity/1453198275034262676</title>
<ellipse fill="none" stroke="black" cx="1552.53" cy="-540" rx="148.67" ry="18"/>
<text text-anchor="middle" x="1552.53" y="-536.3" font-family="Times,serif" font-size="14.00">1453198275034262676 (Visualisation)</text>
</g>
<!-- http://purl.org/dj/kaggle/aptos&#45;2019&#45;keras&#45;baseline/activity/8063027198271505430 -->
<g id="node2" class="node">
<title>http://purl.org/dj/kaggle/aptos&#45;2019&#45;keras&#45;baseline/activity/8063027198271505430</title>
<ellipse fill="none" stroke="black" cx="1147.53" cy="-105" rx="124.28" ry="18"/>
<text text-anchor="middle" x="1147.53" y="-101.3" font-family="Times,serif" font-size="14.00">8063027198271505430 (Reuse)</text>
</g>
<!-- http://purl.org/dj/kaggle/aptos&#45;2019&#45;keras&#45;baseline/activity/1453198275034262676&#45;&gt;http://purl.org/dj/kaggle/aptos&#45;2019&#45;keras&#45;baseline/activity/8063027198271505430 -->
<g id="edge1" class="edge">
<title>http://purl.org/dj/kaggle/aptos&#45;2019&#45;keras&#45;baseline/activity/1453198275034262676&#45;&gt;http://purl.org/dj/kaggle/aptos&#45;2019&#45;keras&#45;baseline/activity/8063027198271505430</title>
<path fill="none" stroke="black" d="M1546.41,-521.99C1540.86,-505.01 1533.53,-478.04 1533.53,-454 1533.53,-454 1533.53,-454 1533.53,-191 1533.53,-137.38 1389.67,-117.55 1277.6,-110.24"/>
<polygon fill="black" stroke="black" points="1277.75,-106.74 1267.55,-109.61 1277.31,-113.72 1277.75,-106.74"/>
<text text-anchor="middle" x="1557.03" y="-318.8" font-family="Times,serif" font-size="14.00">previous</text>
</g>
<!-- http://purl.org/dj/kaggle/aptos&#45;2019&#45;keras&#45;baseline/activity/1113332574488460427 -->
<g id="node3" class="node">
<title>http://purl.org/dj/kaggle/aptos&#45;2019&#45;keras&#45;baseline/activity/1113332574488460427</title>
<ellipse fill="none" stroke="black" cx="1264.53" cy="-453" rx="142.97" ry="18"/>
<text text-anchor="middle" x="1264.53" y="-449.3" font-family="Times,serif" font-size="14.00">1113332574488460427 (Preparation)</text>
</g>
<!-- http://purl.org/dj/kaggle/aptos&#45;2019&#45;keras&#45;baseline/activity/1453198275034262676&#45;&gt;http://purl.org/dj/kaggle/aptos&#45;2019&#45;keras&#45;baseline/activity/1113332574488460427 -->
<g id="edge2" class="edge">
<title>http://purl.org/dj/kaggle/aptos&#45;2019&#45;keras&#45;baseline/activity/1453198275034262676&#45;&gt;http://purl.org/dj/kaggle/aptos&#45;2019&#45;keras&#45;baseline/activity/1113332574488460427</title>
<path fill="none" stroke="black" d="M1498.7,-523.11C1450.21,-508.8 1378.91,-487.76 1327.73,-472.65"/>
<polygon fill="black" stroke="black" points="1328.68,-469.28 1318.1,-469.81 1326.7,-476 1328.68,-469.28"/>
<text text-anchor="middle" x="1450.03" y="-492.8" font-family="Times,serif" font-size="14.00">previous</text>
</g>
<!-- http://purl.org/dj/kaggle/aptos&#45;2019&#45;keras&#45;baseline -->
<g id="node4" class="node">
<title>http://purl.org/dj/kaggle/aptos&#45;2019&#45;keras&#45;baseline</title>
<ellipse fill="none" stroke="black" cx="225.53" cy="-18" rx="225.56" ry="18"/>
<text text-anchor="middle" x="225.53" y="-14.3" font-family="Times,serif" font-size="14.00">aptos&#45;2019&#45;keras&#45;baseline (aptos&#45;2019&#45;keras&#45;baseline.ipynb)</text>
</g>
<!-- http://purl.org/dj/kaggle/aptos&#45;2019&#45;keras&#45;baseline/activity/8063027198271505430&#45;&gt;http://purl.org/dj/kaggle/aptos&#45;2019&#45;keras&#45;baseline -->
<g id="edge3" class="edge">
<title>http://purl.org/dj/kaggle/aptos&#45;2019&#45;keras&#45;baseline/activity/8063027198271505430&#45;&gt;http://purl.org/dj/kaggle/aptos&#45;2019&#45;keras&#45;baseline</title>
<path fill="none" stroke="black" d="M1045.78,-94.62C883.71,-79.68 566.01,-50.39 377.09,-32.97"/>
<polygon fill="black" stroke="black" points="377.36,-29.48 367.08,-32.05 376.71,-36.45 377.36,-29.48"/>
<text text-anchor="middle" x="766.03" y="-57.8" font-family="Times,serif" font-size="14.00">previous</text>
</g>
<!-- http://purl.org/dj/kaggle/aptos&#45;2019&#45;keras&#45;baseline/activity/1113332574488460427&#45;&gt;http://purl.org/dj/kaggle/aptos&#45;2019&#45;keras&#45;baseline/activity/8063027198271505430 -->
<g id="edge4" class="edge">
<title>http://purl.org/dj/kaggle/aptos&#45;2019&#45;keras&#45;baseline/activity/1113332574488460427&#45;&gt;http://purl.org/dj/kaggle/aptos&#45;2019&#45;keras&#45;baseline/activity/8063027198271505430</title>
<path fill="none" stroke="black" d="M1361.8,-439.72C1402.5,-428.59 1440.53,-407.38 1440.53,-367 1440.53,-367 1440.53,-367 1440.53,-191 1440.53,-151.3 1340.06,-128.95 1256.79,-117.24"/>
<polygon fill="black" stroke="black" points="1257.11,-113.75 1246.73,-115.87 1256.16,-120.69 1257.11,-113.75"/>
<text text-anchor="middle" x="1464.03" y="-275.3" font-family="Times,serif" font-size="14.00">previous</text>
</g>
<!-- http://purl.org/dj/kaggle/aptos&#45;2019&#45;keras&#45;baseline/activity/&#45;333065616427115368 -->
<g id="node5" class="node">
<title>http://purl.org/dj/kaggle/aptos&#45;2019&#45;keras&#45;baseline/activity/&#45;333065616427115368</title>
<ellipse fill="none" stroke="black" cx="1264.53" cy="-366" rx="147.57" ry="18"/>
<text text-anchor="middle" x="1264.53" y="-362.3" font-family="Times,serif" font-size="14.00">&#45;333065616427115368 (Visualisation)</text>
</g>
<!-- http://purl.org/dj/kaggle/aptos&#45;2019&#45;keras&#45;baseline/activity/1113332574488460427&#45;&gt;http://purl.org/dj/kaggle/aptos&#45;2019&#45;keras&#45;baseline/activity/&#45;333065616427115368 -->
<g id="edge5" class="edge">
<title>http://purl.org/dj/kaggle/aptos&#45;2019&#45;keras&#45;baseline/activity/1113332574488460427&#45;&gt;http://purl.org/dj/kaggle/aptos&#45;2019&#45;keras&#45;baseline/activity/&#45;333065616427115368</title>
<path fill="none" stroke="black" d="M1264.53,-434.8C1264.53,-423.16 1264.53,-407.55 1264.53,-394.24"/>
<polygon fill="black" stroke="black" points="1268.03,-394.18 1264.53,-384.18 1261.03,-394.18 1268.03,-394.18"/>
<text text-anchor="middle" x="1288.03" y="-405.8" font-family="Times,serif" font-size="14.00">previous</text>
</g>
<!-- http://purl.org/dj/kaggle/aptos&#45;2019&#45;keras&#45;baseline/activity/&#45;333065616427115368&#45;&gt;http://purl.org/dj/kaggle/aptos&#45;2019&#45;keras&#45;baseline/activity/8063027198271505430 -->
<g id="edge23" class="edge">
<title>http://purl.org/dj/kaggle/aptos&#45;2019&#45;keras&#45;baseline/activity/&#45;333065616427115368&#45;&gt;http://purl.org/dj/kaggle/aptos&#45;2019&#45;keras&#45;baseline/activity/8063027198271505430</title>
<path fill="none" stroke="black" d="M1256.85,-348.01C1236.94,-303.92 1183.5,-185.62 1159.49,-132.48"/>
<polygon fill="black" stroke="black" points="1162.54,-130.73 1155.23,-123.06 1156.16,-133.61 1162.54,-130.73"/>
<text text-anchor="middle" x="1233.03" y="-231.8" font-family="Times,serif" font-size="14.00">previous</text>
</g>
<!-- http://purl.org/dj/kaggle/aptos&#45;2019&#45;keras&#45;baseline/activity/221772525558906888 -->
<g id="node14" class="node">
<title>http://purl.org/dj/kaggle/aptos&#45;2019&#45;keras&#45;baseline/activity/221772525558906888</title>
<ellipse fill="none" stroke="black" cx="788.53" cy="-279" rx="119.68" ry="18"/>
<text text-anchor="middle" x="788.53" y="-275.3" font-family="Times,serif" font-size="14.00">221772525558906888 (Reuse)</text>
</g>
<!-- http://purl.org/dj/kaggle/aptos&#45;2019&#45;keras&#45;baseline/activity/&#45;333065616427115368&#45;&gt;http://purl.org/dj/kaggle/aptos&#45;2019&#45;keras&#45;baseline/activity/221772525558906888 -->
<g id="edge24" class="edge">
<title>http://purl.org/dj/kaggle/aptos&#45;2019&#45;keras&#45;baseline/activity/&#45;333065616427115368&#45;&gt;http://purl.org/dj/kaggle/aptos&#45;2019&#45;keras&#45;baseline/activity/221772525558906888</title>
<path fill="none" stroke="black" d="M1135.37,-357.2C1097.2,-352.08 1055.92,-343.69 1019.53,-330 1008.11,-325.7 1007.9,-319.44 996.53,-315 966.29,-303.19 932.05,-295.36 900.21,-290.18"/>
<polygon fill="black" stroke="black" points="900.38,-286.66 889.96,-288.58 899.3,-293.58 900.38,-286.66"/>
<text text-anchor="middle" x="1043.03" y="-318.8" font-family="Times,serif" font-size="14.00">previous</text>
</g>
<!-- http://purl.org/dj/kaggle/aptos&#45;2019&#45;keras&#45;baseline/activity/8597962296435037758 -->
<g id="node6" class="node">
<title>http://purl.org/dj/kaggle/aptos&#45;2019&#45;keras&#45;baseline/activity/8597962296435037758</title>
<ellipse fill="none" stroke="black" cx="1161.53" cy="-627" rx="142.97" ry="18"/>
<text text-anchor="middle" x="1161.53" y="-623.3" font-family="Times,serif" font-size="14.00">8597962296435037758 (Preparation)</text>
</g>
<!-- http://purl.org/dj/kaggle/aptos&#45;2019&#45;keras&#45;baseline/activity/8597962296435037758&#45;&gt;http://purl.org/dj/kaggle/aptos&#45;2019&#45;keras&#45;baseline/activity/1453198275034262676 -->
<g id="edge6" class="edge">
<title>http://purl.org/dj/kaggle/aptos&#45;2019&#45;keras&#45;baseline/activity/8597962296435037758&#45;&gt;http://purl.org/dj/kaggle/aptos&#45;2019&#45;keras&#45;baseline/activity/1453198275034262676</title>
<path fill="none" stroke="black" d="M1230.08,-611.1C1298.07,-596.32 1402.13,-573.7 1473.54,-558.17"/>
<polygon fill="black" stroke="black" points="1474.37,-561.57 1483.4,-556.03 1472.88,-554.73 1474.37,-561.57"/>
<text text-anchor="middle" x="1404.03" y="-579.8" font-family="Times,serif" font-size="14.00">previous</text>
</g>
<!-- http://purl.org/dj/kaggle/aptos&#45;2019&#45;keras&#45;baseline/activity/8597962296435037758&#45;&gt;http://purl.org/dj/kaggle/aptos&#45;2019&#45;keras&#45;baseline/activity/8063027198271505430 -->
<g id="edge7" class="edge">
<title>http://purl.org/dj/kaggle/aptos&#45;2019&#45;keras&#45;baseline/activity/8597962296435037758&#45;&gt;http://purl.org/dj/kaggle/aptos&#45;2019&#45;keras&#45;baseline/activity/8063027198271505430</title>
<path fill="none" stroke="black" d="M1289.56,-618.94C1443.02,-609.15 1683.08,-589.06 1710.53,-558 1778.85,-480.7 1602.04,-179.98 1506.53,-141 1465.89,-124.41 1362.09,-115.5 1276.5,-110.82"/>
<polygon fill="black" stroke="black" points="1276.59,-107.32 1266.42,-110.29 1276.22,-114.32 1276.59,-107.32"/>
<text text-anchor="middle" x="1717.03" y="-362.3" font-family="Times,serif" font-size="14.00">previous</text>
</g>
<!-- http://purl.org/dj/kaggle/aptos&#45;2019&#45;keras&#45;baseline/activity/3370116500061784550 -->
<g id="node7" class="node">
<title>http://purl.org/dj/kaggle/aptos&#45;2019&#45;keras&#45;baseline/activity/3370116500061784550</title>
<ellipse fill="none" stroke="black" cx="604.53" cy="-540" rx="148.67" ry="18"/>
<text text-anchor="middle" x="604.53" y="-536.3" font-family="Times,serif" font-size="14.00">3370116500061784550 (Visualisation)</text>
</g>
<!-- http://purl.org/dj/kaggle/aptos&#45;2019&#45;keras&#45;baseline/activity/8597962296435037758&#45;&gt;http://purl.org/dj/kaggle/aptos&#45;2019&#45;keras&#45;baseline/activity/3370116500061784550 -->
<g id="edge8" class="edge">
<title>http://purl.org/dj/kaggle/aptos&#45;2019&#45;keras&#45;baseline/activity/8597962296435037758&#45;&gt;http://purl.org/dj/kaggle/aptos&#45;2019&#45;keras&#45;baseline/activity/3370116500061784550</title>
<path fill="none" stroke="black" d="M1093.04,-611.19C1065.49,-605.12 1033.46,-597.9 1004.53,-591 978.21,-584.72 972.18,-580.67 945.53,-576 865.03,-561.89 843.83,-566.37 762.53,-558 749.17,-556.62 735.18,-555.16 721.27,-553.68"/>
<polygon fill="black" stroke="black" points="721.49,-550.19 711.18,-552.61 720.75,-557.15 721.49,-550.19"/>
<text text-anchor="middle" x="1028.03" y="-579.8" font-family="Times,serif" font-size="14.00">previous</text>
</g>
<!-- http://purl.org/dj/kaggle/aptos&#45;2019&#45;keras&#45;baseline/activity/1926424776944265803 -->
<g id="node8" class="node">
<title>http://purl.org/dj/kaggle/aptos&#45;2019&#45;keras&#45;baseline/activity/1926424776944265803</title>
<ellipse fill="none" stroke="black" cx="1236.53" cy="-540" rx="148.67" ry="18"/>
<text text-anchor="middle" x="1236.53" y="-536.3" font-family="Times,serif" font-size="14.00">1926424776944265803 (Visualisation)</text>
</g>
<!-- http://purl.org/dj/kaggle/aptos&#45;2019&#45;keras&#45;baseline/activity/8597962296435037758&#45;&gt;http://purl.org/dj/kaggle/aptos&#45;2019&#45;keras&#45;baseline/activity/1926424776944265803 -->
<g id="edge9" class="edge">
<title>http://purl.org/dj/kaggle/aptos&#45;2019&#45;keras&#45;baseline/activity/8597962296435037758&#45;&gt;http://purl.org/dj/kaggle/aptos&#45;2019&#45;keras&#45;baseline/activity/1926424776944265803</title>
<path fill="none" stroke="black" d="M1176.71,-608.8C1187.58,-596.47 1202.4,-579.68 1214.57,-565.89"/>
<polygon fill="black" stroke="black" points="1217.38,-567.99 1221.38,-558.18 1212.13,-563.36 1217.38,-567.99"/>
<text text-anchor="middle" x="1227.03" y="-579.8" font-family="Times,serif" font-size="14.00">previous</text>
</g>
<!-- http://purl.org/dj/kaggle/aptos&#45;2019&#45;keras&#45;baseline/activity/5054291258872447704 -->
<g id="node9" class="node">
<title>http://purl.org/dj/kaggle/aptos&#45;2019&#45;keras&#45;baseline/activity/5054291258872447704</title>
<ellipse fill="none" stroke="black" cx="920.53" cy="-540" rx="148.67" ry="18"/>
<text text-anchor="middle" x="920.53" y="-536.3" font-family="Times,serif" font-size="14.00">5054291258872447704 (Visualisation)</text>
</g>
<!-- http://purl.org/dj/kaggle/aptos&#45;2019&#45;keras&#45;baseline/activity/8597962296435037758&#45;&gt;http://purl.org/dj/kaggle/aptos&#45;2019&#45;keras&#45;baseline/activity/5054291258872447704 -->
<g id="edge10" class="edge">
<title>http://purl.org/dj/kaggle/aptos&#45;2019&#45;keras&#45;baseline/activity/8597962296435037758&#45;&gt;http://purl.org/dj/kaggle/aptos&#45;2019&#45;keras&#45;baseline/activity/5054291258872447704</title>
<path fill="none" stroke="black" d="M1130.18,-609.31C1109.42,-598.74 1081.36,-585.35 1055.53,-576 1037.4,-569.44 1017.49,-563.58 998.66,-558.61"/>
<polygon fill="black" stroke="black" points="999.48,-555.21 988.93,-556.09 997.73,-561.98 999.48,-555.21"/>
<text text-anchor="middle" x="1115.03" y="-579.8" font-family="Times,serif" font-size="14.00">previous</text>
</g>
<!-- http://purl.org/dj/kaggle/aptos&#45;2019&#45;keras&#45;baseline/activity/3370116500061784550&#45;&gt;http://purl.org/dj/kaggle/aptos&#45;2019&#45;keras&#45;baseline/activity/8063027198271505430 -->
<g id="edge11" class="edge">
<title>http://purl.org/dj/kaggle/aptos&#45;2019&#45;keras&#45;baseline/activity/3370116500061784550&#45;&gt;http://purl.org/dj/kaggle/aptos&#45;2019&#45;keras&#45;baseline/activity/8063027198271505430</title>
<path fill="none" stroke="black" d="M604.53,-521.74C604.53,-504.57 604.53,-477.46 604.53,-454 604.53,-454 604.53,-454 604.53,-191 604.53,-148.78 864.07,-124.31 1024.29,-113.23"/>
<polygon fill="black" stroke="black" points="1024.95,-116.69 1034.69,-112.52 1024.48,-109.71 1024.95,-116.69"/>
<text text-anchor="middle" x="628.03" y="-318.8" font-family="Times,serif" font-size="14.00">previous</text>
</g>
<!-- http://purl.org/dj/kaggle/aptos&#45;2019&#45;keras&#45;baseline/activity/1926424776944265803&#45;&gt;http://purl.org/dj/kaggle/aptos&#45;2019&#45;keras&#45;baseline/activity/8063027198271505430 -->
<g id="edge12" class="edge">
<title>http://purl.org/dj/kaggle/aptos&#45;2019&#45;keras&#45;baseline/activity/1926424776944265803&#45;&gt;http://purl.org/dj/kaggle/aptos&#45;2019&#45;keras&#45;baseline/activity/8063027198271505430</title>
<path fill="none" stroke="black" d="M1160.8,-524.39C1124.38,-512.51 1088.53,-491.33 1088.53,-454 1088.53,-454 1088.53,-454 1088.53,-191 1088.53,-167.38 1104.09,-145.6 1119.23,-130"/>
<polygon fill="black" stroke="black" points="1121.84,-132.35 1126.56,-122.86 1116.96,-127.33 1121.84,-132.35"/>
<text text-anchor="middle" x="1112.03" y="-318.8" font-family="Times,serif" font-size="14.00">previous</text>
</g>
<!-- http://purl.org/dj/kaggle/aptos&#45;2019&#45;keras&#45;baseline/activity/1926424776944265803&#45;&gt;http://purl.org/dj/kaggle/aptos&#45;2019&#45;keras&#45;baseline/activity/1113332574488460427 -->
<g id="edge13" class="edge">
<title>http://purl.org/dj/kaggle/aptos&#45;2019&#45;keras&#45;baseline/activity/1926424776944265803&#45;&gt;http://purl.org/dj/kaggle/aptos&#45;2019&#45;keras&#45;baseline/activity/1113332574488460427</title>
<path fill="none" stroke="black" d="M1242.2,-521.8C1246.07,-510.05 1251.28,-494.24 1255.69,-480.84"/>
<polygon fill="black" stroke="black" points="1259.07,-481.77 1258.87,-471.18 1252.42,-479.58 1259.07,-481.77"/>
<text text-anchor="middle" x="1276.03" y="-492.8" font-family="Times,serif" font-size="14.00">previous</text>
</g>
<!-- http://purl.org/dj/kaggle/aptos&#45;2019&#45;keras&#45;baseline/activity/5054291258872447704&#45;&gt;http://purl.org/dj/kaggle/aptos&#45;2019&#45;keras&#45;baseline/activity/8063027198271505430 -->
<g id="edge14" class="edge">
<title>http://purl.org/dj/kaggle/aptos&#45;2019&#45;keras&#45;baseline/activity/5054291258872447704&#45;&gt;http://purl.org/dj/kaggle/aptos&#45;2019&#45;keras&#45;baseline/activity/8063027198271505430</title>
<path fill="none" stroke="black" d="M929.7,-521.96C937.86,-505.17 948.53,-478.55 948.53,-454 948.53,-454 948.53,-454 948.53,-191 948.53,-148.74 986.96,-127.21 1030.04,-116.34"/>
<polygon fill="black" stroke="black" points="1030.93,-119.73 1039.88,-114.06 1029.34,-112.91 1030.93,-119.73"/>
<text text-anchor="middle" x="972.03" y="-318.8" font-family="Times,serif" font-size="14.00">previous</text>
</g>
<!-- http://purl.org/dj/kaggle/aptos&#45;2019&#45;keras&#45;baseline/activity/5054291258872447704&#45;&gt;http://purl.org/dj/kaggle/aptos&#45;2019&#45;keras&#45;baseline/activity/1113332574488460427 -->
<g id="edge15" class="edge">
<title>http://purl.org/dj/kaggle/aptos&#45;2019&#45;keras&#45;baseline/activity/5054291258872447704&#45;&gt;http://purl.org/dj/kaggle/aptos&#45;2019&#45;keras&#45;baseline/activity/1113332574488460427</title>
<path fill="none" stroke="black" d="M982.83,-523.61C1042,-508.98 1130.92,-487.01 1192.98,-471.68"/>
<polygon fill="black" stroke="black" points="1193.83,-475.08 1202.7,-469.28 1192.15,-468.28 1193.83,-475.08"/>
<text text-anchor="middle" x="1137.03" y="-492.8" font-family="Times,serif" font-size="14.00">previous</text>
</g>
<!-- http://purl.org/dj/kaggle/aptos&#45;2019&#45;keras&#45;baseline/activity/3539205729210279969 -->
<g id="node10" class="node">
<title>http://purl.org/dj/kaggle/aptos&#45;2019&#45;keras&#45;baseline/activity/3539205729210279969</title>
<ellipse fill="none" stroke="black" cx="383.53" cy="-801" rx="142.97" ry="18"/>
<text text-anchor="middle" x="383.53" y="-797.3" font-family="Times,serif" font-size="14.00">3539205729210279969 (Preparation)</text>
</g>
<!-- http://purl.org/dj/kaggle/aptos&#45;2019&#45;keras&#45;baseline/activity/3539205729210279969&#45;&gt;http://purl.org/dj/kaggle/aptos&#45;2019&#45;keras&#45;baseline/activity/8063027198271505430 -->
<g id="edge16" class="edge">
<title>http://purl.org/dj/kaggle/aptos&#45;2019&#45;keras&#45;baseline/activity/3539205729210279969&#45;&gt;http://purl.org/dj/kaggle/aptos&#45;2019&#45;keras&#45;baseline/activity/8063027198271505430</title>
<path fill="none" stroke="black" d="M378.38,-782.92C373.7,-765.88 367.53,-738.88 367.53,-715 367.53,-715 367.53,-715 367.53,-191 367.53,-126.77 790.88,-111.05 1013.8,-107.22"/>
<polygon fill="black" stroke="black" points="1014,-110.71 1023.94,-107.05 1013.88,-103.72 1014,-110.71"/>
<text text-anchor="middle" x="391.03" y="-449.3" font-family="Times,serif" font-size="14.00">previous</text>
</g>
<!-- http://purl.org/dj/kaggle/aptos&#45;2019&#45;keras&#45;baseline/activity/5576035117352729409 -->
<g id="node11" class="node">
<title>http://purl.org/dj/kaggle/aptos&#45;2019&#45;keras&#45;baseline/activity/5576035117352729409</title>
<ellipse fill="none" stroke="black" cx="519.53" cy="-714" rx="124.28" ry="18"/>
<text text-anchor="middle" x="519.53" y="-710.3" font-family="Times,serif" font-size="14.00">5576035117352729409 (Reuse)</text>
</g>
<!-- http://purl.org/dj/kaggle/aptos&#45;2019&#45;keras&#45;baseline/activity/3539205729210279969&#45;&gt;http://purl.org/dj/kaggle/aptos&#45;2019&#45;keras&#45;baseline/activity/5576035117352729409 -->
<g id="edge17" class="edge">
<title>http://purl.org/dj/kaggle/aptos&#45;2019&#45;keras&#45;baseline/activity/3539205729210279969&#45;&gt;http://purl.org/dj/kaggle/aptos&#45;2019&#45;keras&#45;baseline/activity/5576035117352729409</title>
<path fill="none" stroke="black" d="M410.4,-783.21C431.54,-769.99 461.18,-751.47 484.23,-737.06"/>
<polygon fill="black" stroke="black" points="486.09,-740.03 492.72,-731.76 482.38,-734.09 486.09,-740.03"/>
<text text-anchor="middle" x="484.03" y="-753.8" font-family="Times,serif" font-size="14.00">previous</text>
</g>
<!-- http://purl.org/dj/kaggle/aptos&#45;2019&#45;keras&#45;baseline/activity/5576035117352729409&#45;&gt;http://purl.org/dj/kaggle/aptos&#45;2019&#45;keras&#45;baseline/activity/8597962296435037758 -->
<g id="edge18" class="edge">
<title>http://purl.org/dj/kaggle/aptos&#45;2019&#45;keras&#45;baseline/activity/5576035117352729409&#45;&gt;http://purl.org/dj/kaggle/aptos&#45;2019&#45;keras&#45;baseline/activity/8597962296435037758</title>
<path fill="none" stroke="black" d="M607.79,-701.31C725.08,-685.79 932.01,-658.39 1056.99,-641.84"/>
<polygon fill="black" stroke="black" points="1057.51,-645.3 1066.96,-640.52 1056.59,-638.36 1057.51,-645.3"/>
<text text-anchor="middle" x="903.03" y="-666.8" font-family="Times,serif" font-size="14.00">previous</text>
</g>
<!-- http://purl.org/dj/kaggle/aptos&#45;2019&#45;keras&#45;baseline/activity/&#45;4348925528264686378 -->
<g id="node12" class="node">
<title>http://purl.org/dj/kaggle/aptos&#45;2019&#45;keras&#45;baseline/activity/&#45;4348925528264686378</title>
<ellipse fill="none" stroke="black" cx="776.53" cy="-192" rx="144.07" ry="18"/>
<text text-anchor="middle" x="776.53" y="-188.3" font-family="Times,serif" font-size="14.00">&#45;4348925528264686378 (Movement)</text>
</g>
<!-- http://purl.org/dj/kaggle/aptos&#45;2019&#45;keras&#45;baseline/activity/5576035117352729409&#45;&gt;http://purl.org/dj/kaggle/aptos&#45;2019&#45;keras&#45;baseline/activity/&#45;4348925528264686378 -->
<g id="edge19" class="edge">
<title>http://purl.org/dj/kaggle/aptos&#45;2019&#45;keras&#45;baseline/activity/5576035117352729409&#45;&gt;http://purl.org/dj/kaggle/aptos&#45;2019&#45;keras&#45;baseline/activity/&#45;4348925528264686378</title>
<path fill="none" stroke="black" d="M508.29,-695.79C490.96,-668.12 458.48,-611.41 446.53,-558 443.04,-542.39 446.24,-538 446.53,-522 447.42,-472.42 450.53,-460.09 450.53,-410.5 450.53,-410.5 450.53,-410.5 450.53,-278 450.53,-235.58 555.21,-213.94 645.93,-203.15"/>
<polygon fill="black" stroke="black" points="646.53,-206.61 656.07,-201.98 645.73,-199.65 646.53,-206.61"/>
<text text-anchor="middle" x="474.03" y="-449.3" font-family="Times,serif" font-size="14.00">previous</text>
</g>
<!-- http://purl.org/dj/kaggle/aptos&#45;2019&#45;keras&#45;baseline/activity/&#45;4348925528264686378&#45;&gt;http://purl.org/dj/kaggle/aptos&#45;2019&#45;keras&#45;baseline/activity/8063027198271505430 -->
<g id="edge20" class="edge">
<title>http://purl.org/dj/kaggle/aptos&#45;2019&#45;keras&#45;baseline/activity/&#45;4348925528264686378&#45;&gt;http://purl.org/dj/kaggle/aptos&#45;2019&#45;keras&#45;baseline/activity/8063027198271505430</title>
<path fill="none" stroke="black" d="M807.19,-174.28C828.99,-163.12 859.28,-149.08 887.53,-141 932.62,-128.11 983.5,-119.92 1028.21,-114.75"/>
<polygon fill="black" stroke="black" points="1028.7,-118.21 1038.25,-113.62 1027.92,-111.26 1028.7,-118.21"/>
<text text-anchor="middle" x="911.03" y="-144.8" font-family="Times,serif" font-size="14.00">previous</text>
</g>
<!-- http://purl.org/dj/kaggle/aptos&#45;2019&#45;keras&#45;baseline/activity/&#45;4584717598320329838 -->
<g id="node13" class="node">
<title>http://purl.org/dj/kaggle/aptos&#45;2019&#45;keras&#45;baseline/activity/&#45;4584717598320329838</title>
<ellipse fill="none" stroke="black" cx="188.53" cy="-192" rx="151.37" ry="18"/>
<text text-anchor="middle" x="188.53" y="-188.3" font-family="Times,serif" font-size="14.00">&#45;4584717598320329838 (Visualisation)</text>
</g>
<!-- http://purl.org/dj/kaggle/aptos&#45;2019&#45;keras&#45;baseline/activity/&#45;4584717598320329838&#45;&gt;http://purl.org/dj/kaggle/aptos&#45;2019&#45;keras&#45;baseline/activity/8063027198271505430 -->
<g id="edge21" class="edge">
<title>http://purl.org/dj/kaggle/aptos&#45;2019&#45;keras&#45;baseline/activity/&#45;4584717598320329838&#45;&gt;http://purl.org/dj/kaggle/aptos&#45;2019&#45;keras&#45;baseline/activity/8063027198271505430</title>
<path fill="none" stroke="black" d="M219.55,-174.21C242.77,-162.56 275.71,-147.93 306.53,-141 437.01,-111.66 810.83,-106.38 1013.32,-105.76"/>
<polygon fill="black" stroke="black" points="1013.43,-109.26 1023.42,-105.73 1013.41,-102.26 1013.43,-109.26"/>
<text text-anchor="middle" x="330.03" y="-144.8" font-family="Times,serif" font-size="14.00">previous</text>
</g>
<!-- http://purl.org/dj/kaggle/aptos&#45;2019&#45;keras&#45;baseline/activity/&#45;4584717598320329838&#45;&gt;http://purl.org/dj/kaggle/aptos&#45;2019&#45;keras&#45;baseline -->
<g id="edge22" class="edge">
<title>http://purl.org/dj/kaggle/aptos&#45;2019&#45;keras&#45;baseline/activity/&#45;4584717598320329838&#45;&gt;http://purl.org/dj/kaggle/aptos&#45;2019&#45;keras&#45;baseline</title>
<path fill="none" stroke="black" d="M192.21,-173.88C198.64,-144 211.95,-82.11 219.66,-46.27"/>
<polygon fill="black" stroke="black" points="223.18,-46.56 221.86,-36.05 216.34,-45.09 223.18,-46.56"/>
<text text-anchor="middle" x="235.03" y="-101.3" font-family="Times,serif" font-size="14.00">previous</text>
</g>
<!-- http://purl.org/dj/kaggle/aptos&#45;2019&#45;keras&#45;baseline/activity/221772525558906888&#45;&gt;http://purl.org/dj/kaggle/aptos&#45;2019&#45;keras&#45;baseline/activity/&#45;4348925528264686378 -->
<g id="edge25" class="edge">
<title>http://purl.org/dj/kaggle/aptos&#45;2019&#45;keras&#45;baseline/activity/221772525558906888&#45;&gt;http://purl.org/dj/kaggle/aptos&#45;2019&#45;keras&#45;baseline/activity/&#45;4348925528264686378</title>
<path fill="none" stroke="black" d="M786.1,-260.8C784.46,-249.16 782.25,-233.55 780.38,-220.24"/>
<polygon fill="black" stroke="black" points="783.82,-219.59 778.95,-210.18 776.89,-220.57 783.82,-219.59"/>
<text text-anchor="middle" x="807.03" y="-231.8" font-family="Times,serif" font-size="14.00">previous</text>
</g>
<!-- http://purl.org/dj/kaggle/aptos&#45;2019&#45;keras&#45;baseline/activity/&#45;5790465650102949966 -->
<g id="node15" class="node">
<title>http://purl.org/dj/kaggle/aptos&#45;2019&#45;keras&#45;baseline/activity/&#45;5790465650102949966</title>
<ellipse fill="none" stroke="black" cx="1781.53" cy="-192" rx="151.37" ry="18"/>
<text text-anchor="middle" x="1781.53" y="-188.3" font-family="Times,serif" font-size="14.00">&#45;5790465650102949966 (Visualisation)</text>
</g>
<!-- http://purl.org/dj/kaggle/aptos&#45;2019&#45;keras&#45;baseline/activity/&#45;5790465650102949966&#45;&gt;http://purl.org/dj/kaggle/aptos&#45;2019&#45;keras&#45;baseline/activity/8063027198271505430 -->
<g id="edge26" class="edge">
<title>http://purl.org/dj/kaggle/aptos&#45;2019&#45;keras&#45;baseline/activity/&#45;5790465650102949966&#45;&gt;http://purl.org/dj/kaggle/aptos&#45;2019&#45;keras&#45;baseline/activity/8063027198271505430</title>
<path fill="none" stroke="black" d="M1737.37,-174.72C1704.51,-163.32 1658.31,-148.79 1616.53,-141 1504.43,-120.1 1375.06,-111.58 1280.62,-108.16"/>
<polygon fill="black" stroke="black" points="1280.55,-104.66 1270.44,-107.81 1280.31,-111.65 1280.55,-104.66"/>
<text text-anchor="middle" x="1700.03" y="-144.8" font-family="Times,serif" font-size="14.00">previous</text>
</g>
<!-- http://purl.org/dj/kaggle/aptos&#45;2019&#45;keras&#45;baseline/activity/&#45;4993837145878389558 -->
<g id="node16" class="node">
<title>http://purl.org/dj/kaggle/aptos&#45;2019&#45;keras&#45;baseline/activity/&#45;4993837145878389558</title>
<ellipse fill="none" stroke="black" cx="859.53" cy="-627" rx="126.98" ry="18"/>
<text text-anchor="middle" x="859.53" y="-623.3" font-family="Times,serif" font-size="14.00">&#45;4993837145878389558 (Reuse)</text>
</g>
<!-- http://purl.org/dj/kaggle/aptos&#45;2019&#45;keras&#45;baseline/activity/&#45;4993837145878389558&#45;&gt;http://purl.org/dj/kaggle/aptos&#45;2019&#45;keras&#45;baseline/activity/3370116500061784550 -->
<g id="edge27" class="edge">
<title>http://purl.org/dj/kaggle/aptos&#45;2019&#45;keras&#45;baseline/activity/&#45;4993837145878389558&#45;&gt;http://purl.org/dj/kaggle/aptos&#45;2019&#45;keras&#45;baseline/activity/3370116500061784550</title>
<path fill="none" stroke="black" d="M812.16,-610.21C769.9,-596.12 707.87,-575.45 662.62,-560.36"/>
<polygon fill="black" stroke="black" points="663.54,-556.98 652.94,-557.14 661.32,-563.62 663.54,-556.98"/>
<text text-anchor="middle" x="771.03" y="-579.8" font-family="Times,serif" font-size="14.00">previous</text>
</g>
<!-- http://purl.org/dj/kaggle/aptos&#45;2019&#45;keras&#45;baseline/activity/&#45;4993837145878389558&#45;&gt;http://purl.org/dj/kaggle/aptos&#45;2019&#45;keras&#45;baseline/activity/5054291258872447704 -->
<g id="edge28" class="edge">
<title>http://purl.org/dj/kaggle/aptos&#45;2019&#45;keras&#45;baseline/activity/&#45;4993837145878389558&#45;&gt;http://purl.org/dj/kaggle/aptos&#45;2019&#45;keras&#45;baseline/activity/5054291258872447704</title>
<path fill="none" stroke="black" d="M871.87,-608.8C880.56,-596.7 892.32,-580.3 902.11,-566.67"/>
<polygon fill="black" stroke="black" points="905.22,-568.34 908.2,-558.18 899.53,-564.26 905.22,-568.34"/>
<text text-anchor="middle" x="918.03" y="-579.8" font-family="Times,serif" font-size="14.00">previous</text>
</g>
<!-- http://purl.org/dj/kaggle/aptos&#45;2019&#45;keras&#45;baseline/activity/&#45;7198240973848310231 -->
<g id="node17" class="node">
<title>http://purl.org/dj/kaggle/aptos&#45;2019&#45;keras&#45;baseline/activity/&#45;7198240973848310231</title>
<ellipse fill="none" stroke="black" cx="2102.53" cy="-192" rx="151.37" ry="18"/>
<text text-anchor="middle" x="2102.53" y="-188.3" font-family="Times,serif" font-size="14.00">&#45;7198240973848310231 (Visualisation)</text>
</g>
<!-- http://purl.org/dj/kaggle/aptos&#45;2019&#45;keras&#45;baseline/activity/&#45;7198240973848310231&#45;&gt;http://purl.org/dj/kaggle/aptos&#45;2019&#45;keras&#45;baseline/activity/8063027198271505430 -->
<g id="edge29" class="edge">
<title>http://purl.org/dj/kaggle/aptos&#45;2019&#45;keras&#45;baseline/activity/&#45;7198240973848310231&#45;&gt;http://purl.org/dj/kaggle/aptos&#45;2019&#45;keras&#45;baseline/activity/8063027198271505430</title>
<path fill="none" stroke="black" d="M2014.09,-177.37C1938.23,-166.12 1825.92,-150.52 1727.53,-141 1572.4,-126 1393.27,-116.36 1275.6,-111.07"/>
<polygon fill="black" stroke="black" points="1275.62,-107.57 1265.48,-110.62 1275.31,-114.56 1275.62,-107.57"/>
<text text-anchor="middle" x="1876.03" y="-144.8" font-family="Times,serif" font-size="14.00">previous</text>
</g>
<!-- http://purl.org/dj/kaggle/aptos&#45;2019&#45;keras&#45;baseline/activity/&#45;3147488491542980664 -->
<g id="node18" class="node">
<title>http://purl.org/dj/kaggle/aptos&#45;2019&#45;keras&#45;baseline/activity/&#45;3147488491542980664</title>
<ellipse fill="none" stroke="black" cx="2423.53" cy="-192" rx="151.37" ry="18"/>
<text text-anchor="middle" x="2423.53" y="-188.3" font-family="Times,serif" font-size="14.00">&#45;3147488491542980664 (Visualisation)</text>
</g>
<!-- http://purl.org/dj/kaggle/aptos&#45;2019&#45;keras&#45;baseline/activity/&#45;3147488491542980664&#45;&gt;http://purl.org/dj/kaggle/aptos&#45;2019&#45;keras&#45;baseline/activity/8063027198271505430 -->
<g id="edge30" class="edge">
<title>http://purl.org/dj/kaggle/aptos&#45;2019&#45;keras&#45;baseline/activity/&#45;3147488491542980664&#45;&gt;http://purl.org/dj/kaggle/aptos&#45;2019&#45;keras&#45;baseline/activity/8063027198271505430</title>
<path fill="none" stroke="black" d="M2315.3,-179.37C2297.66,-177.53 2279.59,-175.68 2262.53,-174 2103.08,-158.25 2063.38,-152.04 1903.53,-141 1683.94,-125.83 1428,-115.53 1277.32,-110.22"/>
<polygon fill="black" stroke="black" points="1277.22,-106.71 1267.11,-109.86 1276.98,-113.71 1277.22,-106.71"/>
<text text-anchor="middle" x="2107.03" y="-144.8" font-family="Times,serif" font-size="14.00">previous</text>
</g>
</g>
</svg>
