<?xml version="1.0" encoding="UTF-8" standalone="no"?>
<!DOCTYPE svg PUBLIC "-//W3C//DTD SVG 1.1//EN"
 "http://www.w3.org/Graphics/SVG/1.1/DTD/svg11.dtd">
<!-- Generated by graphviz version 2.47.1 (20210417.1919)
 -->
<!-- Pages: 1 -->
<svg width="4883pt" height="608pt"
 viewBox="0.00 0.00 4883.03 608.00" xmlns="http://www.w3.org/2000/svg" xmlns:xlink="http://www.w3.org/1999/xlink">
<g id="graph0" class="graph" transform="scale(1 1) rotate(0) translate(4 604)">
<polygon fill="white" stroke="transparent" points="-4,4 -4,-604 4879.03,-604 4879.03,4 -4,4"/>
<!-- http://purl.org/dj/kaggle/basic&#45;exploration&#45;of&#45;the&#45;ai&#45;report&#45;data#1762791005 -->
<g id="node1" class="node">
<title>http://purl.org/dj/kaggle/basic&#45;exploration&#45;of&#45;the&#45;ai&#45;report&#45;data#1762791005</title>
<ellipse fill="none" stroke="black" cx="258.03" cy="-267" rx="258.05" ry="18"/>
<text text-anchor="middle" x="258.03" y="-263.3" font-family="Times,serif" font-size="14.00">1762791005 ([&lt;_ast.Constant object at 0x7fd4c048e760&gt;](0): Reuse)</text>
</g>
<!-- http://purl.org/dj/kaggle/basic&#45;exploration&#45;of&#45;the&#45;ai&#45;report&#45;data -->
<g id="node2" class="node">
<title>http://purl.org/dj/kaggle/basic&#45;exploration&#45;of&#45;the&#45;ai&#45;report&#45;data</title>
<ellipse fill="none" stroke="black" cx="3347.03" cy="-18" rx="312.74" ry="18"/>
<text text-anchor="middle" x="3347.03" y="-14.3" font-family="Times,serif" font-size="14.00">basic&#45;exploration&#45;of&#45;the&#45;ai&#45;report&#45;data (basic&#45;exploration&#45;of&#45;the&#45;ai&#45;report&#45;data.ipynb)</text>
</g>
<!-- http://purl.org/dj/kaggle/basic&#45;exploration&#45;of&#45;the&#45;ai&#45;report&#45;data#1762791005&#45;&gt;http://purl.org/dj/kaggle/basic&#45;exploration&#45;of&#45;the&#45;ai&#45;report&#45;data -->
<g id="edge1" class="edge">
<title>http://purl.org/dj/kaggle/basic&#45;exploration&#45;of&#45;the&#45;ai&#45;report&#45;data#1762791005&#45;&gt;http://purl.org/dj/kaggle/basic&#45;exploration&#45;of&#45;the&#45;ai&#45;report&#45;data</title>
<path fill="none" stroke="black" d="M330.84,-249.66C521.85,-207.67 1053.62,-96.29 1503.03,-54 1788.46,-27.14 2576.84,-20.73 3024.88,-19.31"/>
<polygon fill="black" stroke="black" points="3025.08,-22.81 3035.07,-19.27 3025.06,-15.81 3025.08,-22.81"/>
<text text-anchor="middle" x="901.03" y="-155.3" font-family="Times,serif" font-size="14.00">appearsIn ()</text>
</g>
<!-- http://purl.org/dj/kaggle/basic&#45;exploration&#45;of&#45;the&#45;ai&#45;report&#45;data#467731373 -->
<g id="node3" class="node">
<title>http://purl.org/dj/kaggle/basic&#45;exploration&#45;of&#45;the&#45;ai&#45;report&#45;data#467731373</title>
<ellipse fill="none" stroke="black" cx="2214.03" cy="-408" rx="155.17" ry="18"/>
<text text-anchor="middle" x="2214.03" y="-404.3" font-family="Times,serif" font-size="14.00">467731373 (df_jobs(0)$0: Visualisation)</text>
</g>
<!-- http://purl.org/dj/kaggle/basic&#45;exploration&#45;of&#45;the&#45;ai&#45;report&#45;data#876096738 -->
<g id="node4" class="node">
<title>http://purl.org/dj/kaggle/basic&#45;exploration&#45;of&#45;the&#45;ai&#45;report&#45;data#876096738</title>
<ellipse fill="none" stroke="black" cx="2650.03" cy="-159" rx="630.39" ry="18"/>
<text text-anchor="middle" x="2650.03" y="-155.3" font-family="Times,serif" font-size="14.00">876096738 (/kaggle/input/the&#45;2019&#45;ai&#45;index&#45;report/AI INDEX 2019 PUBLIC DATA/4. The Economy/4.1. Jobs/Burning Glass/AI Postings USA monthly data.xlsx(0): Reuse)</text>
</g>
<!-- http://purl.org/dj/kaggle/basic&#45;exploration&#45;of&#45;the&#45;ai&#45;report&#45;data#467731373&#45;&gt;http://purl.org/dj/kaggle/basic&#45;exploration&#45;of&#45;the&#45;ai&#45;report&#45;data#876096738 -->
<g id="edge2" class="edge">
<title>http://purl.org/dj/kaggle/basic&#45;exploration&#45;of&#45;the&#45;ai&#45;report&#45;data#467731373&#45;&gt;http://purl.org/dj/kaggle/basic&#45;exploration&#45;of&#45;the&#45;ai&#45;report&#45;data#876096738</title>
<path fill="none" stroke="black" d="M2243.65,-390.22C2320.21,-346.84 2524.66,-231.02 2610.84,-182.2"/>
<polygon fill="black" stroke="black" points="2612.81,-185.11 2619.78,-177.13 2609.36,-179.02 2612.81,-185.11"/>
<text text-anchor="middle" x="2433.03" y="-317.3" font-family="Times,serif" font-size="14.00">read_excel ()</text>
</g>
<!-- http://purl.org/dj/kaggle/basic&#45;exploration&#45;of&#45;the&#45;ai&#45;report&#45;data#132776362 -->
<g id="node5" class="node">
<title>http://purl.org/dj/kaggle/basic&#45;exploration&#45;of&#45;the&#45;ai&#45;report&#45;data#132776362</title>
<ellipse fill="none" stroke="black" cx="1897.03" cy="-321" rx="137.58" ry="18"/>
<text text-anchor="middle" x="1897.03" y="-317.3" font-family="Times,serif" font-size="14.00">132776362 (pd(0)$0: Visualisation)</text>
</g>
<!-- http://purl.org/dj/kaggle/basic&#45;exploration&#45;of&#45;the&#45;ai&#45;report&#45;data#467731373&#45;&gt;http://purl.org/dj/kaggle/basic&#45;exploration&#45;of&#45;the&#45;ai&#45;report&#45;data#132776362 -->
<g id="edge3" class="edge">
<title>http://purl.org/dj/kaggle/basic&#45;exploration&#45;of&#45;the&#45;ai&#45;report&#45;data#467731373&#45;&gt;http://purl.org/dj/kaggle/basic&#45;exploration&#45;of&#45;the&#45;ai&#45;report&#45;data#132776362</title>
<path fill="none" stroke="black" d="M2155.51,-391.31C2101.43,-376.81 2021.08,-355.26 1964.35,-340.05"/>
<polygon fill="black" stroke="black" points="1964.96,-336.59 1954.4,-337.38 1963.15,-343.35 1964.96,-336.59"/>
<text text-anchor="middle" x="2111.03" y="-360.8" font-family="Times,serif" font-size="14.00">read_excel ()</text>
</g>
<!-- http://purl.org/dj/kaggle/basic&#45;exploration&#45;of&#45;the&#45;ai&#45;report&#45;data#876096738&#45;&gt;http://purl.org/dj/kaggle/basic&#45;exploration&#45;of&#45;the&#45;ai&#45;report&#45;data -->
<g id="edge4" class="edge">
<title>http://purl.org/dj/kaggle/basic&#45;exploration&#45;of&#45;the&#45;ai&#45;report&#45;data#876096738&#45;&gt;http://purl.org/dj/kaggle/basic&#45;exploration&#45;of&#45;the&#45;ai&#45;report&#45;data</title>
<path fill="none" stroke="black" d="M2734.8,-141.09C2866.37,-114.85 3118.74,-64.53 3254.75,-37.4"/>
<polygon fill="black" stroke="black" points="3255.62,-40.8 3264.74,-35.41 3254.25,-33.93 3255.62,-40.8"/>
<text text-anchor="middle" x="3032.03" y="-101.3" font-family="Times,serif" font-size="14.00">appearsIn ()</text>
</g>
<!-- http://purl.org/dj/kaggle/basic&#45;exploration&#45;of&#45;the&#45;ai&#45;report&#45;data#80085334 -->
<g id="node6" class="node">
<title>http://purl.org/dj/kaggle/basic&#45;exploration&#45;of&#45;the&#45;ai&#45;report&#45;data#80085334</title>
<ellipse fill="none" stroke="black" cx="1443.03" cy="-213" rx="124.28" ry="18"/>
<text text-anchor="middle" x="1443.03" y="-209.3" font-family="Times,serif" font-size="14.00">80085334 (pd(0): Visualisation)</text>
</g>
<!-- http://purl.org/dj/kaggle/basic&#45;exploration&#45;of&#45;the&#45;ai&#45;report&#45;data#132776362&#45;&gt;http://purl.org/dj/kaggle/basic&#45;exploration&#45;of&#45;the&#45;ai&#45;report&#45;data#80085334 -->
<g id="edge5" class="edge">
<title>http://purl.org/dj/kaggle/basic&#45;exploration&#45;of&#45;the&#45;ai&#45;report&#45;data#132776362&#45;&gt;http://purl.org/dj/kaggle/basic&#45;exploration&#45;of&#45;the&#45;ai&#45;report&#45;data#80085334</title>
<path fill="none" stroke="black" d="M1839.48,-304.58C1827.3,-299.61 1815.1,-293.2 1805.03,-285 1790.3,-273.02 1798.19,-258.97 1782.03,-249 1748.1,-228.08 1655.98,-219.48 1576.32,-216.04"/>
<polygon fill="black" stroke="black" points="1576.31,-212.53 1566.17,-215.62 1576.02,-219.53 1576.31,-212.53"/>
<text text-anchor="middle" x="1840.03" y="-263.3" font-family="Times,serif" font-size="14.00">set_option ()</text>
</g>
<!-- http://purl.org/dj/kaggle/basic&#45;exploration&#45;of&#45;the&#45;ai&#45;report&#45;data#65470741 -->
<g id="node7" class="node">
<title>http://purl.org/dj/kaggle/basic&#45;exploration&#45;of&#45;the&#45;ai&#45;report&#45;data#65470741</title>
<ellipse fill="none" stroke="black" cx="1642.03" cy="-159" rx="103.98" ry="18"/>
<text text-anchor="middle" x="1642.03" y="-155.3" font-family="Times,serif" font-size="14.00">65470741 (120(0): Reuse)</text>
</g>
<!-- http://purl.org/dj/kaggle/basic&#45;exploration&#45;of&#45;the&#45;ai&#45;report&#45;data#132776362&#45;&gt;http://purl.org/dj/kaggle/basic&#45;exploration&#45;of&#45;the&#45;ai&#45;report&#45;data#65470741 -->
<g id="edge6" class="edge">
<title>http://purl.org/dj/kaggle/basic&#45;exploration&#45;of&#45;the&#45;ai&#45;report&#45;data#132776362&#45;&gt;http://purl.org/dj/kaggle/basic&#45;exploration&#45;of&#45;the&#45;ai&#45;report&#45;data#65470741</title>
<path fill="none" stroke="black" d="M1895.92,-302.99C1894.02,-287.14 1888.88,-263.78 1875.03,-249 1836.58,-208 1777.22,-185.69 1728.03,-173.67"/>
<polygon fill="black" stroke="black" points="1728.56,-170.19 1718.02,-171.32 1726.96,-177.01 1728.56,-170.19"/>
<text text-anchor="middle" x="1928.03" y="-263.3" font-family="Times,serif" font-size="14.00">set_option ()</text>
</g>
<!-- http://purl.org/dj/kaggle/basic&#45;exploration&#45;of&#45;the&#45;ai&#45;report&#45;data#445383666 -->
<g id="node8" class="node">
<title>http://purl.org/dj/kaggle/basic&#45;exploration&#45;of&#45;the&#45;ai&#45;report&#45;data#445383666</title>
<ellipse fill="none" stroke="black" cx="1883.03" cy="-159" rx="131.88" ry="18"/>
<text text-anchor="middle" x="1883.03" y="-155.3" font-family="Times,serif" font-size="14.00">445383666 (max_rows(0): Reuse)</text>
</g>
<!-- http://purl.org/dj/kaggle/basic&#45;exploration&#45;of&#45;the&#45;ai&#45;report&#45;data#132776362&#45;&gt;http://purl.org/dj/kaggle/basic&#45;exploration&#45;of&#45;the&#45;ai&#45;report&#45;data#445383666 -->
<g id="edge7" class="edge">
<title>http://purl.org/dj/kaggle/basic&#45;exploration&#45;of&#45;the&#45;ai&#45;report&#45;data#132776362&#45;&gt;http://purl.org/dj/kaggle/basic&#45;exploration&#45;of&#45;the&#45;ai&#45;report&#45;data#445383666</title>
<path fill="none" stroke="black" d="M1947.32,-304.15C1955.55,-299.31 1963.02,-293.05 1968.03,-285 1976.48,-271.41 1973.98,-263.85 1968.03,-249 1957.39,-222.45 1934.63,-199.33 1915.34,-183.31"/>
<polygon fill="black" stroke="black" points="1917.32,-180.41 1907.33,-176.89 1912.94,-185.88 1917.32,-180.41"/>
<text text-anchor="middle" x="2009.03" y="-263.3" font-family="Times,serif" font-size="14.00">set_option ()</text>
</g>
<!-- http://purl.org/dj/kaggle/basic&#45;exploration&#45;of&#45;the&#45;ai&#45;report&#45;data#80085334&#45;&gt;http://purl.org/dj/kaggle/basic&#45;exploration&#45;of&#45;the&#45;ai&#45;report&#45;data -->
<g id="edge33" class="edge">
<title>http://purl.org/dj/kaggle/basic&#45;exploration&#45;of&#45;the&#45;ai&#45;report&#45;data#80085334&#45;&gt;http://purl.org/dj/kaggle/basic&#45;exploration&#45;of&#45;the&#45;ai&#45;report&#45;data</title>
<path fill="none" stroke="black" d="M1431.81,-195.03C1422.9,-179.21 1413.91,-155.88 1427.03,-141 1528.93,-25.4 1961.38,-65.87 2115.03,-54 2423.3,-30.19 2776.07,-22.11 3024.9,-19.58"/>
<polygon fill="black" stroke="black" points="3025.22,-23.08 3035.19,-19.48 3025.16,-16.08 3025.22,-23.08"/>
<text text-anchor="middle" x="1556.03" y="-101.3" font-family="Times,serif" font-size="14.00">appearsIn ()</text>
</g>
<!-- http://purl.org/dj/python/lib/144966264 -->
<g id="node21" class="node">
<title>http://purl.org/dj/python/lib/144966264</title>
<ellipse fill="none" stroke="black" cx="2084.03" cy="-105" rx="109.38" ry="18"/>
<text text-anchor="middle" x="2084.03" y="-101.3" font-family="Times,serif" font-size="14.00">144966264 (pandas: Reuse)</text>
</g>
<!-- http://purl.org/dj/kaggle/basic&#45;exploration&#45;of&#45;the&#45;ai&#45;report&#45;data#80085334&#45;&gt;http://purl.org/dj/python/lib/144966264 -->
<g id="edge34" class="edge">
<title>http://purl.org/dj/kaggle/basic&#45;exploration&#45;of&#45;the&#45;ai&#45;report&#45;data#80085334&#45;&gt;http://purl.org/dj/python/lib/144966264</title>
<path fill="none" stroke="black" d="M1435.82,-194.98C1430.28,-178.89 1425.61,-155.16 1439.03,-141 1456.84,-122.2 1784.9,-112.3 1966.11,-108.25"/>
<polygon fill="black" stroke="black" points="1966.31,-111.75 1976.23,-108.03 1966.15,-104.75 1966.31,-111.75"/>
<text text-anchor="middle" x="1484.03" y="-155.3" font-family="Times,serif" font-size="14.00">assignedFrom ()</text>
</g>
<!-- http://purl.org/dj/kaggle/basic&#45;exploration&#45;of&#45;the&#45;ai&#45;report&#45;data#65470741&#45;&gt;http://purl.org/dj/kaggle/basic&#45;exploration&#45;of&#45;the&#45;ai&#45;report&#45;data -->
<g id="edge37" class="edge">
<title>http://purl.org/dj/kaggle/basic&#45;exploration&#45;of&#45;the&#45;ai&#45;report&#45;data#65470741&#45;&gt;http://purl.org/dj/kaggle/basic&#45;exploration&#45;of&#45;the&#45;ai&#45;report&#45;data</title>
<path fill="none" stroke="black" d="M1712.46,-145.7C1724.94,-143.87 1737.84,-142.2 1750.03,-141 1800.05,-136.08 2156.13,-143.48 2202.03,-123 2222.41,-113.91 2216.75,-96.31 2237.03,-87 2309.49,-53.74 2750.6,-35.09 3054.44,-26.04"/>
<polygon fill="black" stroke="black" points="3054.84,-29.53 3064.73,-25.74 3054.64,-22.54 3054.84,-29.53"/>
<text text-anchor="middle" x="2270.03" y="-101.3" font-family="Times,serif" font-size="14.00">appearsIn ()</text>
</g>
<!-- http://purl.org/dj/kaggle/basic&#45;exploration&#45;of&#45;the&#45;ai&#45;report&#45;data#445383666&#45;&gt;http://purl.org/dj/kaggle/basic&#45;exploration&#45;of&#45;the&#45;ai&#45;report&#45;data -->
<g id="edge38" class="edge">
<title>http://purl.org/dj/kaggle/basic&#45;exploration&#45;of&#45;the&#45;ai&#45;report&#45;data#445383666&#45;&gt;http://purl.org/dj/kaggle/basic&#45;exploration&#45;of&#45;the&#45;ai&#45;report&#45;data</title>
<path fill="none" stroke="black" d="M1973.65,-145.88C1988.79,-144.08 2004.34,-142.38 2019.03,-141 2146.72,-129.04 2179.2,-133.38 2307.03,-123 2626.28,-97.07 2999.74,-57.45 3200.85,-35.35"/>
<polygon fill="black" stroke="black" points="3201.33,-38.82 3210.89,-34.25 3200.57,-31.86 3201.33,-38.82"/>
<text text-anchor="middle" x="2729.03" y="-101.3" font-family="Times,serif" font-size="14.00">appearsIn ()</text>
</g>
<!-- http://purl.org/dj/kaggle/basic&#45;exploration&#45;of&#45;the&#45;ai&#45;report&#45;data#83689828 -->
<g id="node9" class="node">
<title>http://purl.org/dj/kaggle/basic&#45;exploration&#45;of&#45;the&#45;ai&#45;report&#45;data#83689828</title>
<ellipse fill="none" stroke="black" cx="4346.03" cy="-213" rx="123.48" ry="18"/>
<text text-anchor="middle" x="4346.03" y="-209.3" font-family="Times,serif" font-size="14.00">83689828 (os(0): Visualisation)</text>
</g>
<!-- http://purl.org/dj/kaggle/basic&#45;exploration&#45;of&#45;the&#45;ai&#45;report&#45;data#83689828&#45;&gt;http://purl.org/dj/kaggle/basic&#45;exploration&#45;of&#45;the&#45;ai&#45;report&#45;data -->
<g id="edge8" class="edge">
<title>http://purl.org/dj/kaggle/basic&#45;exploration&#45;of&#45;the&#45;ai&#45;report&#45;data#83689828&#45;&gt;http://purl.org/dj/kaggle/basic&#45;exploration&#45;of&#45;the&#45;ai&#45;report&#45;data</title>
<path fill="none" stroke="black" d="M4274.98,-198.27C4098.54,-164.19 3640.31,-75.66 3441.43,-37.24"/>
<polygon fill="black" stroke="black" points="3442.07,-33.8 3431.58,-35.34 3440.74,-40.67 3442.07,-33.8"/>
<text text-anchor="middle" x="3913.03" y="-101.3" font-family="Times,serif" font-size="14.00">appearsIn ()</text>
</g>
<!-- http://purl.org/dj/python/lib/22216931 -->
<g id="node10" class="node">
<title>http://purl.org/dj/python/lib/22216931</title>
<ellipse fill="none" stroke="black" cx="4252.03" cy="-105" rx="88.28" ry="18"/>
<text text-anchor="middle" x="4252.03" y="-101.3" font-family="Times,serif" font-size="14.00">22216931 (os: Reuse)</text>
</g>
<!-- http://purl.org/dj/kaggle/basic&#45;exploration&#45;of&#45;the&#45;ai&#45;report&#45;data#83689828&#45;&gt;http://purl.org/dj/python/lib/22216931 -->
<g id="edge9" class="edge">
<title>http://purl.org/dj/kaggle/basic&#45;exploration&#45;of&#45;the&#45;ai&#45;report&#45;data#83689828&#45;&gt;http://purl.org/dj/python/lib/22216931</title>
<path fill="none" stroke="black" d="M4330.92,-194.97C4315.51,-177.58 4291.42,-150.42 4273.91,-130.68"/>
<polygon fill="black" stroke="black" points="4276.35,-128.15 4267.09,-122.99 4271.11,-132.79 4276.35,-128.15"/>
<text text-anchor="middle" x="4357.03" y="-155.3" font-family="Times,serif" font-size="14.00">assignedFrom ()</text>
</g>
<!-- http://purl.org/dj/python/lib/22216931&#45;&gt;http://purl.org/dj/kaggle/basic&#45;exploration&#45;of&#45;the&#45;ai&#45;report&#45;data -->
<g id="edge10" class="edge">
<title>http://purl.org/dj/python/lib/22216931&#45;&gt;http://purl.org/dj/kaggle/basic&#45;exploration&#45;of&#45;the&#45;ai&#45;report&#45;data</title>
<path fill="none" stroke="black" d="M4193.1,-91.58C4135.67,-79.97 4045.75,-63.1 3967.03,-54 3855.75,-41.14 3732.68,-32.96 3625.71,-27.77"/>
<polygon fill="black" stroke="black" points="3625.56,-24.26 3615.41,-27.28 3625.23,-31.25 3625.56,-24.26"/>
<text text-anchor="middle" x="4108.53" y="-57.8" font-family="Times,serif" font-size="14.00">importedBy ()</text>
</g>
<!-- http://purl.org/dj/kaggle/basic&#45;exploration&#45;of&#45;the&#45;ai&#45;report&#45;data#42008801 -->
<g id="node11" class="node">
<title>http://purl.org/dj/kaggle/basic&#45;exploration&#45;of&#45;the&#45;ai&#45;report&#45;data#42008801</title>
<ellipse fill="none" stroke="black" cx="4075.03" cy="-321" rx="120.48" ry="18"/>
<text text-anchor="middle" x="4075.03" y="-317.3" font-family="Times,serif" font-size="14.00">42008801 (_(0): Visualisation)</text>
</g>
<!-- http://purl.org/dj/kaggle/basic&#45;exploration&#45;of&#45;the&#45;ai&#45;report&#45;data#42008801&#45;&gt;http://purl.org/dj/kaggle/basic&#45;exploration&#45;of&#45;the&#45;ai&#45;report&#45;data -->
<g id="edge11" class="edge">
<title>http://purl.org/dj/kaggle/basic&#45;exploration&#45;of&#45;the&#45;ai&#45;report&#45;data#42008801&#45;&gt;http://purl.org/dj/kaggle/basic&#45;exploration&#45;of&#45;the&#45;ai&#45;report&#45;data</title>
<path fill="none" stroke="black" d="M3988.35,-308.43C3973.89,-306.56 3959.04,-304.69 3945.03,-303 3814.99,-287.28 3446.58,-329.31 3360.03,-231 3349.45,-218.99 3356.35,-210.57 3360.03,-195 3362.08,-186.29 3366.97,-185.71 3369.03,-177 3379.72,-131.71 3366.9,-77.82 3356.83,-46.12"/>
<polygon fill="black" stroke="black" points="3360.03,-44.65 3353.55,-36.26 3353.38,-46.86 3360.03,-44.65"/>
<text text-anchor="middle" x="3407.03" y="-155.3" font-family="Times,serif" font-size="14.00">appearsIn ()</text>
</g>
<!-- http://purl.org/dj/kaggle/basic&#45;exploration&#45;of&#45;the&#45;ai&#45;report&#45;data#42008801&#45;&gt;http://purl.org/dj/kaggle/basic&#45;exploration&#45;of&#45;the&#45;ai&#45;report&#45;data#83689828 -->
<g id="edge12" class="edge">
<title>http://purl.org/dj/kaggle/basic&#45;exploration&#45;of&#45;the&#45;ai&#45;report&#45;data#42008801&#45;&gt;http://purl.org/dj/kaggle/basic&#45;exploration&#45;of&#45;the&#45;ai&#45;report&#45;data#83689828</title>
<path fill="none" stroke="black" d="M4086.37,-302.95C4098.38,-286.35 4118.92,-261.82 4143.03,-249 4153.05,-243.67 4203.07,-235.02 4250.94,-227.65"/>
<polygon fill="black" stroke="black" points="4251.75,-231.07 4261.11,-226.1 4250.69,-224.15 4251.75,-231.07"/>
<text text-anchor="middle" x="4176.53" y="-263.3" font-family="Times,serif" font-size="14.00">iteratorOf ()</text>
</g>
<!-- http://purl.org/dj/kaggle/basic&#45;exploration&#45;of&#45;the&#45;ai&#45;report&#45;data#1148721419 -->
<g id="node12" class="node">
<title>http://purl.org/dj/kaggle/basic&#45;exploration&#45;of&#45;the&#45;ai&#45;report&#45;data#1148721419</title>
<ellipse fill="none" stroke="black" cx="3787.03" cy="-213" rx="417.83" ry="18"/>
<text text-anchor="middle" x="3787.03" y="-209.3" font-family="Times,serif" font-size="14.00">1148721419 (/kaggle/input/the&#45;2019&#45;ai&#45;index&#45;report/AI INDEX 2019 PUBLIC DATA/4. The Economy(0): Reuse)</text>
</g>
<!-- http://purl.org/dj/kaggle/basic&#45;exploration&#45;of&#45;the&#45;ai&#45;report&#45;data#42008801&#45;&gt;http://purl.org/dj/kaggle/basic&#45;exploration&#45;of&#45;the&#45;ai&#45;report&#45;data#1148721419 -->
<g id="edge13" class="edge">
<title>http://purl.org/dj/kaggle/basic&#45;exploration&#45;of&#45;the&#45;ai&#45;report&#45;data#42008801&#45;&gt;http://purl.org/dj/kaggle/basic&#45;exploration&#45;of&#45;the&#45;ai&#45;report&#45;data#1148721419</title>
<path fill="none" stroke="black" d="M3979.52,-309.98C3952.88,-304.8 3924.54,-296.93 3900.03,-285 3877.92,-274.24 3878.55,-262.54 3858.03,-249 3850.85,-244.27 3842.95,-239.76 3835.1,-235.65"/>
<polygon fill="black" stroke="black" points="3836.46,-232.41 3825.95,-231.01 3833.29,-238.65 3836.46,-232.41"/>
<text text-anchor="middle" x="3933.53" y="-263.3" font-family="Times,serif" font-size="14.00">iteratorOf ()</text>
</g>
<!-- http://purl.org/dj/kaggle/basic&#45;exploration&#45;of&#45;the&#45;ai&#45;report&#45;data#1148721419&#45;&gt;http://purl.org/dj/kaggle/basic&#45;exploration&#45;of&#45;the&#45;ai&#45;report&#45;data -->
<g id="edge14" class="edge">
<title>http://purl.org/dj/kaggle/basic&#45;exploration&#45;of&#45;the&#45;ai&#45;report&#45;data#1148721419&#45;&gt;http://purl.org/dj/kaggle/basic&#45;exploration&#45;of&#45;the&#45;ai&#45;report&#45;data</title>
<path fill="none" stroke="black" d="M3748.37,-195.04C3667.94,-159.76 3482.81,-78.56 3394.96,-40.03"/>
<polygon fill="black" stroke="black" points="3396.32,-36.8 3385.76,-35.99 3393.51,-43.21 3396.32,-36.8"/>
<text text-anchor="middle" x="3615.03" y="-101.3" font-family="Times,serif" font-size="14.00">appearsIn ()</text>
</g>
<!-- http://purl.org/dj/kaggle/basic&#45;exploration&#45;of&#45;the&#45;ai&#45;report&#45;data#417399731 -->
<g id="node13" class="node">
<title>http://purl.org/dj/kaggle/basic&#45;exploration&#45;of&#45;the&#45;ai&#45;report&#45;data#417399731</title>
<ellipse fill="none" stroke="black" cx="4324.03" cy="-495" rx="147.57" ry="18"/>
<text text-anchor="middle" x="4324.03" y="-491.3" font-family="Times,serif" font-size="14.00">417399731 (print[15/8]: Visualisation)</text>
</g>
<!-- http://purl.org/dj/kaggle/basic&#45;exploration&#45;of&#45;the&#45;ai&#45;report&#45;data#417399731&#45;&gt;http://purl.org/dj/kaggle/basic&#45;exploration&#45;of&#45;the&#45;ai&#45;report&#45;data#83689828 -->
<g id="edge15" class="edge">
<title>http://purl.org/dj/kaggle/basic&#45;exploration&#45;of&#45;the&#45;ai&#45;report&#45;data#417399731&#45;&gt;http://purl.org/dj/kaggle/basic&#45;exploration&#45;of&#45;the&#45;ai&#45;report&#45;data#83689828</title>
<path fill="none" stroke="black" d="M4325.37,-476.91C4329.06,-429.95 4339.38,-298.65 4343.88,-241.34"/>
<polygon fill="black" stroke="black" points="4347.38,-241.47 4344.67,-231.23 4340.4,-240.92 4347.38,-241.47"/>
<text text-anchor="middle" x="4353.53" y="-360.8" font-family="Times,serif" font-size="14.00">print ()</text>
</g>
<!-- http://purl.org/dj/kaggle/basic&#45;exploration&#45;of&#45;the&#45;ai&#45;report&#45;data#427361219 -->
<g id="node14" class="node">
<title>http://purl.org/dj/kaggle/basic&#45;exploration&#45;of&#45;the&#45;ai&#45;report&#45;data#427361219</title>
<ellipse fill="none" stroke="black" cx="4481.03" cy="-408" rx="126.18" ry="18"/>
<text text-anchor="middle" x="4481.03" y="-404.3" font-family="Times,serif" font-size="14.00">427361219 (filename(0): Reuse)</text>
</g>
<!-- http://purl.org/dj/kaggle/basic&#45;exploration&#45;of&#45;the&#45;ai&#45;report&#45;data#417399731&#45;&gt;http://purl.org/dj/kaggle/basic&#45;exploration&#45;of&#45;the&#45;ai&#45;report&#45;data#427361219 -->
<g id="edge16" class="edge">
<title>http://purl.org/dj/kaggle/basic&#45;exploration&#45;of&#45;the&#45;ai&#45;report&#45;data#417399731&#45;&gt;http://purl.org/dj/kaggle/basic&#45;exploration&#45;of&#45;the&#45;ai&#45;report&#45;data#427361219</title>
<path fill="none" stroke="black" d="M4355.05,-477.21C4379.83,-463.79 4414.72,-444.9 4441.5,-430.4"/>
<polygon fill="black" stroke="black" points="4443.48,-433.31 4450.61,-425.47 4440.15,-427.15 4443.48,-433.31"/>
<text text-anchor="middle" x="4430.53" y="-447.8" font-family="Times,serif" font-size="14.00">print ()</text>
</g>
<!-- http://purl.org/dj/kaggle/basic&#45;exploration&#45;of&#45;the&#45;ai&#45;report&#45;data#355533666 -->
<g id="node15" class="node">
<title>http://purl.org/dj/kaggle/basic&#45;exploration&#45;of&#45;the&#45;ai&#45;report&#45;data#355533666</title>
<ellipse fill="none" stroke="black" cx="3787.03" cy="-321" rx="149.47" ry="18"/>
<text text-anchor="middle" x="3787.03" y="-317.3" font-family="Times,serif" font-size="14.00">355533666 (dirname(0): Visualisation)</text>
</g>
<!-- http://purl.org/dj/kaggle/basic&#45;exploration&#45;of&#45;the&#45;ai&#45;report&#45;data#417399731&#45;&gt;http://purl.org/dj/kaggle/basic&#45;exploration&#45;of&#45;the&#45;ai&#45;report&#45;data#355533666 -->
<g id="edge17" class="edge">
<title>http://purl.org/dj/kaggle/basic&#45;exploration&#45;of&#45;the&#45;ai&#45;report&#45;data#417399731&#45;&gt;http://purl.org/dj/kaggle/basic&#45;exploration&#45;of&#45;the&#45;ai&#45;report&#45;data#355533666</title>
<path fill="none" stroke="black" d="M4273.99,-477.97C4174.76,-446.19 3953.45,-375.31 3846.78,-341.14"/>
<polygon fill="black" stroke="black" points="3847.72,-337.77 3837.13,-338.05 3845.59,-344.43 3847.72,-337.77"/>
<text text-anchor="middle" x="4127.53" y="-404.3" font-family="Times,serif" font-size="14.00">print ()</text>
</g>
<!-- http://purl.org/dj/kaggle/basic&#45;exploration&#45;of&#45;the&#45;ai&#45;report&#45;data#427361219&#45;&gt;http://purl.org/dj/kaggle/basic&#45;exploration&#45;of&#45;the&#45;ai&#45;report&#45;data -->
<g id="edge18" class="edge">
<title>http://purl.org/dj/kaggle/basic&#45;exploration&#45;of&#45;the&#45;ai&#45;report&#45;data#427361219&#45;&gt;http://purl.org/dj/kaggle/basic&#45;exploration&#45;of&#45;the&#45;ai&#45;report&#45;data</title>
<path fill="none" stroke="black" d="M4591.62,-399.27C4686.84,-389.48 4809.03,-367.96 4809.03,-322 4809.03,-322 4809.03,-322 4809.03,-104 4809.03,-64.75 4850.41,-81.17 4635.03,-54 4455.2,-31.32 3986.92,-23.33 3667.44,-20.52"/>
<polygon fill="black" stroke="black" points="3667.12,-17.01 3657.09,-20.43 3667.06,-24.01 3667.12,-17.01"/>
<text text-anchor="middle" x="4842.03" y="-209.3" font-family="Times,serif" font-size="14.00">appearsIn ()</text>
</g>
<!-- http://purl.org/dj/kaggle/basic&#45;exploration&#45;of&#45;the&#45;ai&#45;report&#45;data#512164918 -->
<g id="node16" class="node">
<title>http://purl.org/dj/kaggle/basic&#45;exploration&#45;of&#45;the&#45;ai&#45;report&#45;data#512164918</title>
<ellipse fill="none" stroke="black" cx="4481.03" cy="-321" rx="129.18" ry="18"/>
<text text-anchor="middle" x="4481.03" y="-317.3" font-family="Times,serif" font-size="14.00">512164918 (filenames(0): Reuse)</text>
</g>
<!-- http://purl.org/dj/kaggle/basic&#45;exploration&#45;of&#45;the&#45;ai&#45;report&#45;data#427361219&#45;&gt;http://purl.org/dj/kaggle/basic&#45;exploration&#45;of&#45;the&#45;ai&#45;report&#45;data#512164918 -->
<g id="edge19" class="edge">
<title>http://purl.org/dj/kaggle/basic&#45;exploration&#45;of&#45;the&#45;ai&#45;report&#45;data#427361219&#45;&gt;http://purl.org/dj/kaggle/basic&#45;exploration&#45;of&#45;the&#45;ai&#45;report&#45;data#512164918</title>
<path fill="none" stroke="black" d="M4481.03,-389.8C4481.03,-378.16 4481.03,-362.55 4481.03,-349.24"/>
<polygon fill="black" stroke="black" points="4484.53,-349.18 4481.03,-339.18 4477.53,-349.18 4484.53,-349.18"/>
<text text-anchor="middle" x="4514.53" y="-360.8" font-family="Times,serif" font-size="14.00">iteratorOf ()</text>
</g>
<!-- http://purl.org/dj/kaggle/basic&#45;exploration&#45;of&#45;the&#45;ai&#45;report&#45;data#355533666&#45;&gt;http://purl.org/dj/kaggle/basic&#45;exploration&#45;of&#45;the&#45;ai&#45;report&#45;data -->
<g id="edge20" class="edge">
<title>http://purl.org/dj/kaggle/basic&#45;exploration&#45;of&#45;the&#45;ai&#45;report&#45;data#355533666&#45;&gt;http://purl.org/dj/kaggle/basic&#45;exploration&#45;of&#45;the&#45;ai&#45;report&#45;data</title>
<path fill="none" stroke="black" d="M3640.24,-317.51C3514.62,-313.98 3350.43,-305.46 3327.03,-285 3258.29,-224.9 3307.29,-99.59 3333.45,-45.17"/>
<polygon fill="black" stroke="black" points="3336.61,-46.68 3337.88,-36.16 3330.33,-43.59 3336.61,-46.68"/>
<text text-anchor="middle" x="3332.03" y="-155.3" font-family="Times,serif" font-size="14.00">appearsIn ()</text>
</g>
<!-- http://purl.org/dj/kaggle/basic&#45;exploration&#45;of&#45;the&#45;ai&#45;report&#45;data#355533666&#45;&gt;http://purl.org/dj/kaggle/basic&#45;exploration&#45;of&#45;the&#45;ai&#45;report&#45;data#83689828 -->
<g id="edge21" class="edge">
<title>http://purl.org/dj/kaggle/basic&#45;exploration&#45;of&#45;the&#45;ai&#45;report&#45;data#355533666&#45;&gt;http://purl.org/dj/kaggle/basic&#45;exploration&#45;of&#45;the&#45;ai&#45;report&#45;data#83689828</title>
<path fill="none" stroke="black" d="M3883.95,-307.28C3911.33,-302.06 3940.8,-294.84 3967.03,-285 3996.86,-273.8 3998.7,-258.77 4029.03,-249 4107.66,-223.68 4131.94,-240.28 4214.03,-231 4225.04,-229.76 4236.55,-228.38 4248,-226.97"/>
<polygon fill="black" stroke="black" points="4248.54,-230.43 4258.03,-225.72 4247.67,-223.48 4248.54,-230.43"/>
<text text-anchor="middle" x="4062.53" y="-263.3" font-family="Times,serif" font-size="14.00">iteratorOf ()</text>
</g>
<!-- http://purl.org/dj/kaggle/basic&#45;exploration&#45;of&#45;the&#45;ai&#45;report&#45;data#355533666&#45;&gt;http://purl.org/dj/kaggle/basic&#45;exploration&#45;of&#45;the&#45;ai&#45;report&#45;data#1148721419 -->
<g id="edge22" class="edge">
<title>http://purl.org/dj/kaggle/basic&#45;exploration&#45;of&#45;the&#45;ai&#45;report&#45;data#355533666&#45;&gt;http://purl.org/dj/kaggle/basic&#45;exploration&#45;of&#45;the&#45;ai&#45;report&#45;data#1148721419</title>
<path fill="none" stroke="black" d="M3787.03,-302.97C3787.03,-286.38 3787.03,-260.88 3787.03,-241.43"/>
<polygon fill="black" stroke="black" points="3790.53,-241.34 3787.03,-231.34 3783.53,-241.34 3790.53,-241.34"/>
<text text-anchor="middle" x="3820.53" y="-263.3" font-family="Times,serif" font-size="14.00">iteratorOf ()</text>
</g>
<!-- http://purl.org/dj/kaggle/basic&#45;exploration&#45;of&#45;the&#45;ai&#45;report&#45;data#512164918&#45;&gt;http://purl.org/dj/kaggle/basic&#45;exploration&#45;of&#45;the&#45;ai&#45;report&#45;data -->
<g id="edge23" class="edge">
<title>http://purl.org/dj/kaggle/basic&#45;exploration&#45;of&#45;the&#45;ai&#45;report&#45;data#512164918&#45;&gt;http://purl.org/dj/kaggle/basic&#45;exploration&#45;of&#45;the&#45;ai&#45;report&#45;data</title>
<path fill="none" stroke="black" d="M4485.19,-302.64C4490.29,-277.34 4496.18,-229.6 4478.03,-195 4443.3,-128.78 4416.95,-118.27 4349.03,-87 4268.39,-49.87 4240.32,-63.28 4152.03,-54 3989,-36.87 3806.55,-28.08 3656.62,-23.6"/>
<polygon fill="black" stroke="black" points="3656.43,-20.09 3646.34,-23.3 3656.23,-27.09 3656.43,-20.09"/>
<text text-anchor="middle" x="4500.03" y="-155.3" font-family="Times,serif" font-size="14.00">appearsIn ()</text>
</g>
<!-- http://purl.org/dj/kaggle/basic&#45;exploration&#45;of&#45;the&#45;ai&#45;report&#45;data#512164918&#45;&gt;http://purl.org/dj/kaggle/basic&#45;exploration&#45;of&#45;the&#45;ai&#45;report&#45;data#83689828 -->
<g id="edge24" class="edge">
<title>http://purl.org/dj/kaggle/basic&#45;exploration&#45;of&#45;the&#45;ai&#45;report&#45;data#512164918&#45;&gt;http://purl.org/dj/kaggle/basic&#45;exploration&#45;of&#45;the&#45;ai&#45;report&#45;data#83689828</title>
<path fill="none" stroke="black" d="M4446.12,-303.66C4436.03,-298.3 4425.26,-291.92 4416.03,-285 4397.91,-271.42 4380.04,-253.19 4366.88,-238.6"/>
<polygon fill="black" stroke="black" points="4369.34,-236.09 4360.09,-230.92 4364.1,-240.73 4369.34,-236.09"/>
<text text-anchor="middle" x="4449.53" y="-263.3" font-family="Times,serif" font-size="14.00">iteratorOf ()</text>
</g>
<!-- http://purl.org/dj/kaggle/basic&#45;exploration&#45;of&#45;the&#45;ai&#45;report&#45;data#512164918&#45;&gt;http://purl.org/dj/kaggle/basic&#45;exploration&#45;of&#45;the&#45;ai&#45;report&#45;data#1148721419 -->
<g id="edge25" class="edge">
<title>http://purl.org/dj/kaggle/basic&#45;exploration&#45;of&#45;the&#45;ai&#45;report&#45;data#512164918&#45;&gt;http://purl.org/dj/kaggle/basic&#45;exploration&#45;of&#45;the&#45;ai&#45;report&#45;data#1148721419</title>
<path fill="none" stroke="black" d="M4401.1,-306.83C4371.04,-301.14 4336.71,-293.76 4306.03,-285 4262.21,-272.49 4254.49,-258.97 4210.03,-249 4167.83,-239.53 4122.75,-232.57 4078.33,-227.46"/>
<polygon fill="black" stroke="black" points="4078.59,-223.96 4068.26,-226.33 4077.81,-230.92 4078.59,-223.96"/>
<text text-anchor="middle" x="4339.53" y="-263.3" font-family="Times,serif" font-size="14.00">iteratorOf ()</text>
</g>
<!-- http://purl.org/dj/python/lib/111084090 -->
<g id="node17" class="node">
<title>http://purl.org/dj/python/lib/111084090</title>
<ellipse fill="none" stroke="black" cx="4569.03" cy="-105" rx="109.68" ry="18"/>
<text text-anchor="middle" x="4569.03" y="-101.3" font-family="Times,serif" font-size="14.00">111084090 (numpy: Reuse)</text>
</g>
<!-- http://purl.org/dj/python/lib/111084090&#45;&gt;http://purl.org/dj/kaggle/basic&#45;exploration&#45;of&#45;the&#45;ai&#45;report&#45;data -->
<g id="edge26" class="edge">
<title>http://purl.org/dj/python/lib/111084090&#45;&gt;http://purl.org/dj/kaggle/basic&#45;exploration&#45;of&#45;the&#45;ai&#45;report&#45;data</title>
<path fill="none" stroke="black" d="M4537.63,-87.74C4513.12,-75.95 4477.85,-60.91 4445.03,-54 4369.86,-38.17 3954.44,-28.4 3656.79,-23.34"/>
<polygon fill="black" stroke="black" points="3656.75,-19.84 3646.7,-23.17 3656.64,-26.83 3656.75,-19.84"/>
<text text-anchor="middle" x="4533.53" y="-57.8" font-family="Times,serif" font-size="14.00">importedBy ()</text>
</g>
<!-- http://purl.org/dj/kaggle/basic&#45;exploration&#45;of&#45;the&#45;ai&#45;report&#45;data#128123297 -->
<g id="node18" class="node">
<title>http://purl.org/dj/kaggle/basic&#45;exploration&#45;of&#45;the&#45;ai&#45;report&#45;data#128123297</title>
<ellipse fill="none" stroke="black" cx="1151.03" cy="-495" rx="135.68" ry="18"/>
<text text-anchor="middle" x="1151.03" y="-491.3" font-family="Times,serif" font-size="14.00">128123297 (df(0)$1: Visualisation)</text>
</g>
<!-- http://purl.org/dj/kaggle/basic&#45;exploration&#45;of&#45;the&#45;ai&#45;report&#45;data#128057760 -->
<g id="node19" class="node">
<title>http://purl.org/dj/kaggle/basic&#45;exploration&#45;of&#45;the&#45;ai&#45;report&#45;data#128057760</title>
<ellipse fill="none" stroke="black" cx="1151.03" cy="-408" rx="111.28" ry="18"/>
<text text-anchor="middle" x="1151.03" y="-404.3" font-family="Times,serif" font-size="14.00">128057760 (df(0)$0: Reuse)</text>
</g>
<!-- http://purl.org/dj/kaggle/basic&#45;exploration&#45;of&#45;the&#45;ai&#45;report&#45;data#128123297&#45;&gt;http://purl.org/dj/kaggle/basic&#45;exploration&#45;of&#45;the&#45;ai&#45;report&#45;data#128057760 -->
<g id="edge27" class="edge">
<title>http://purl.org/dj/kaggle/basic&#45;exploration&#45;of&#45;the&#45;ai&#45;report&#45;data#128123297&#45;&gt;http://purl.org/dj/kaggle/basic&#45;exploration&#45;of&#45;the&#45;ai&#45;report&#45;data#128057760</title>
<path fill="none" stroke="black" d="M1151.03,-476.8C1151.03,-465.16 1151.03,-449.55 1151.03,-436.24"/>
<polygon fill="black" stroke="black" points="1154.53,-436.18 1151.03,-426.18 1147.53,-436.18 1154.53,-436.18"/>
<text text-anchor="middle" x="1193.53" y="-447.8" font-family="Times,serif" font-size="14.00">value_counts ()</text>
</g>
<!-- http://purl.org/dj/kaggle/basic&#45;exploration&#45;of&#45;the&#45;ai&#45;report&#45;data#128057760&#45;&gt;http://purl.org/dj/kaggle/basic&#45;exploration&#45;of&#45;the&#45;ai&#45;report&#45;data#1762791005 -->
<g id="edge28" class="edge">
<title>http://purl.org/dj/kaggle/basic&#45;exploration&#45;of&#45;the&#45;ai&#45;report&#45;data#128057760&#45;&gt;http://purl.org/dj/kaggle/basic&#45;exploration&#45;of&#45;the&#45;ai&#45;report&#45;data#1762791005</title>
<path fill="none" stroke="black" d="M1073.73,-394.97C915.01,-370.26 551.88,-313.74 368.43,-285.18"/>
<polygon fill="black" stroke="black" points="368.91,-281.72 358.49,-283.64 367.83,-288.63 368.91,-281.72"/>
<text text-anchor="middle" x="962.03" y="-360.8" font-family="Times,serif" font-size="14.00">read_excel ()</text>
</g>
<!-- http://purl.org/dj/kaggle/basic&#45;exploration&#45;of&#45;the&#45;ai&#45;report&#45;data#128057760&#45;&gt;http://purl.org/dj/kaggle/basic&#45;exploration&#45;of&#45;the&#45;ai&#45;report&#45;data#132776362 -->
<g id="edge29" class="edge">
<title>http://purl.org/dj/kaggle/basic&#45;exploration&#45;of&#45;the&#45;ai&#45;report&#45;data#128057760&#45;&gt;http://purl.org/dj/kaggle/basic&#45;exploration&#45;of&#45;the&#45;ai&#45;report&#45;data#132776362</title>
<path fill="none" stroke="black" d="M1239.16,-396.96C1375.69,-381.4 1638.06,-351.51 1786.88,-334.55"/>
<polygon fill="black" stroke="black" points="1787.42,-338.01 1796.96,-333.4 1786.63,-331.06 1787.42,-338.01"/>
<text text-anchor="middle" x="1605.03" y="-360.8" font-family="Times,serif" font-size="14.00">read_excel ()</text>
</g>
<!-- http://purl.org/dj/kaggle/basic&#45;exploration&#45;of&#45;the&#45;ai&#45;report&#45;data#2647993806 -->
<g id="node20" class="node">
<title>http://purl.org/dj/kaggle/basic&#45;exploration&#45;of&#45;the&#45;ai&#45;report&#45;data#2647993806</title>
<ellipse fill="none" stroke="black" cx="1151.03" cy="-267" rx="630.39" ry="18"/>
<text text-anchor="middle" x="1151.03" y="-263.3" font-family="Times,serif" font-size="14.00">2647993806 (/kaggle/input/the&#45;2019&#45;ai&#45;index&#45;report/AI INDEX 2019 PUBLIC DATA/5. Education/Udacity/Copy of Copy of Data to Share with Stanford, SG.xlsx(0): Reuse)</text>
</g>
<!-- http://purl.org/dj/kaggle/basic&#45;exploration&#45;of&#45;the&#45;ai&#45;report&#45;data#128057760&#45;&gt;http://purl.org/dj/kaggle/basic&#45;exploration&#45;of&#45;the&#45;ai&#45;report&#45;data#2647993806 -->
<g id="edge30" class="edge">
<title>http://purl.org/dj/kaggle/basic&#45;exploration&#45;of&#45;the&#45;ai&#45;report&#45;data#128057760&#45;&gt;http://purl.org/dj/kaggle/basic&#45;exploration&#45;of&#45;the&#45;ai&#45;report&#45;data#2647993806</title>
<path fill="none" stroke="black" d="M1151.03,-389.96C1151.03,-366.4 1151.03,-323.64 1151.03,-295.53"/>
<polygon fill="black" stroke="black" points="1154.53,-295.18 1151.03,-285.18 1147.53,-295.18 1154.53,-295.18"/>
<text text-anchor="middle" x="1187.03" y="-360.8" font-family="Times,serif" font-size="14.00">read_excel ()</text>
</g>
<!-- http://purl.org/dj/kaggle/basic&#45;exploration&#45;of&#45;the&#45;ai&#45;report&#45;data#2647993806&#45;&gt;http://purl.org/dj/kaggle/basic&#45;exploration&#45;of&#45;the&#45;ai&#45;report&#45;data -->
<g id="edge31" class="edge">
<title>http://purl.org/dj/kaggle/basic&#45;exploration&#45;of&#45;the&#45;ai&#45;report&#45;data#2647993806&#45;&gt;http://purl.org/dj/kaggle/basic&#45;exploration&#45;of&#45;the&#45;ai&#45;report&#45;data</title>
<path fill="none" stroke="black" d="M1177.29,-248.99C1215.28,-224.53 1287.91,-178.26 1351.03,-141 1393.52,-115.92 1401.64,-103.81 1448.03,-87 1522.03,-60.18 1543.74,-62.16 1622.03,-54 1884.4,-26.65 2602.29,-20.37 3024.7,-19.11"/>
<polygon fill="black" stroke="black" points="3024.94,-22.61 3034.93,-19.08 3024.92,-15.61 3024.94,-22.61"/>
<text text-anchor="middle" x="1384.03" y="-155.3" font-family="Times,serif" font-size="14.00">appearsIn ()</text>
</g>
<!-- http://purl.org/dj/python/lib/144966264&#45;&gt;http://purl.org/dj/kaggle/basic&#45;exploration&#45;of&#45;the&#45;ai&#45;report&#45;data -->
<g id="edge32" class="edge">
<title>http://purl.org/dj/python/lib/144966264&#45;&gt;http://purl.org/dj/kaggle/basic&#45;exploration&#45;of&#45;the&#45;ai&#45;report&#45;data</title>
<path fill="none" stroke="black" d="M2098.41,-87.14C2109.53,-75.46 2126.02,-60.82 2144.03,-54 2185.18,-38.42 2693.12,-28.19 3035.68,-23.01"/>
<polygon fill="black" stroke="black" points="3035.82,-26.51 3045.77,-22.86 3035.72,-19.51 3035.82,-26.51"/>
<text text-anchor="middle" x="2183.53" y="-57.8" font-family="Times,serif" font-size="14.00">importedBy ()</text>
</g>
<!-- http://purl.org/dj/kaggle/basic&#45;exploration&#45;of&#45;the&#45;ai&#45;report&#45;data#82575712 -->
<g id="node22" class="node">
<title>http://purl.org/dj/kaggle/basic&#45;exploration&#45;of&#45;the&#45;ai&#45;report&#45;data#82575712</title>
<ellipse fill="none" stroke="black" cx="4649.03" cy="-213" rx="124.28" ry="18"/>
<text text-anchor="middle" x="4649.03" y="-209.3" font-family="Times,serif" font-size="14.00">82575712 (np(0): Visualisation)</text>
</g>
<!-- http://purl.org/dj/kaggle/basic&#45;exploration&#45;of&#45;the&#45;ai&#45;report&#45;data#82575712&#45;&gt;http://purl.org/dj/kaggle/basic&#45;exploration&#45;of&#45;the&#45;ai&#45;report&#45;data -->
<g id="edge35" class="edge">
<title>http://purl.org/dj/kaggle/basic&#45;exploration&#45;of&#45;the&#45;ai&#45;report&#45;data#82575712&#45;&gt;http://purl.org/dj/kaggle/basic&#45;exploration&#45;of&#45;the&#45;ai&#45;report&#45;data</title>
<path fill="none" stroke="black" d="M4683.7,-195.63C4690.65,-190.67 4697.04,-184.49 4701.03,-177 4720.02,-141.32 4715.84,-116.32 4688.03,-87 4652.61,-49.66 4627.85,-62.13 4577.03,-54 4409.19,-27.14 3974.75,-20.15 3670,-18.7"/>
<polygon fill="black" stroke="black" points="3669.68,-15.2 3659.67,-18.66 3669.65,-22.2 3669.68,-15.2"/>
<text text-anchor="middle" x="4743.03" y="-101.3" font-family="Times,serif" font-size="14.00">appearsIn ()</text>
</g>
<!-- http://purl.org/dj/kaggle/basic&#45;exploration&#45;of&#45;the&#45;ai&#45;report&#45;data#82575712&#45;&gt;http://purl.org/dj/python/lib/111084090 -->
<g id="edge36" class="edge">
<title>http://purl.org/dj/kaggle/basic&#45;exploration&#45;of&#45;the&#45;ai&#45;report&#45;data#82575712&#45;&gt;http://purl.org/dj/python/lib/111084090</title>
<path fill="none" stroke="black" d="M4628.61,-195.21C4622.59,-189.74 4616.22,-183.41 4611.03,-177 4599.83,-163.16 4589.6,-146.02 4582.04,-132.05"/>
<polygon fill="black" stroke="black" points="4585.02,-130.18 4577.26,-122.96 4578.82,-133.44 4585.02,-130.18"/>
<text text-anchor="middle" x="4656.03" y="-155.3" font-family="Times,serif" font-size="14.00">assignedFrom ()</text>
</g>
<!-- http://purl.org/dj/kaggle/basic&#45;exploration&#45;of&#45;the&#45;ai&#45;report&#45;data#467796910 -->
<g id="node23" class="node">
<title>http://purl.org/dj/kaggle/basic&#45;exploration&#45;of&#45;the&#45;ai&#45;report&#45;data#467796910</title>
<ellipse fill="none" stroke="black" cx="2214.03" cy="-495" rx="129.98" ry="18"/>
<text text-anchor="middle" x="2214.03" y="-491.3" font-family="Times,serif" font-size="14.00">467796910 (df_jobs(0)$1: Reuse)</text>
</g>
<!-- http://purl.org/dj/kaggle/basic&#45;exploration&#45;of&#45;the&#45;ai&#45;report&#45;data#467796910&#45;&gt;http://purl.org/dj/kaggle/basic&#45;exploration&#45;of&#45;the&#45;ai&#45;report&#45;data#467731373 -->
<g id="edge39" class="edge">
<title>http://purl.org/dj/kaggle/basic&#45;exploration&#45;of&#45;the&#45;ai&#45;report&#45;data#467796910&#45;&gt;http://purl.org/dj/kaggle/basic&#45;exploration&#45;of&#45;the&#45;ai&#45;report&#45;data#467731373</title>
<path fill="none" stroke="black" d="M2214.03,-476.8C2214.03,-465.16 2214.03,-449.55 2214.03,-436.24"/>
<polygon fill="black" stroke="black" points="2217.53,-436.18 2214.03,-426.18 2210.53,-436.18 2217.53,-436.18"/>
<text text-anchor="middle" x="2232.53" y="-447.8" font-family="Times,serif" font-size="14.00">sum ()</text>
</g>
<!-- http://purl.org/dj/kaggle/basic&#45;exploration&#45;of&#45;the&#45;ai&#45;report&#45;data#467862447 -->
<g id="node24" class="node">
<title>http://purl.org/dj/kaggle/basic&#45;exploration&#45;of&#45;the&#45;ai&#45;report&#45;data#467862447</title>
<ellipse fill="none" stroke="black" cx="2214.03" cy="-582" rx="129.98" ry="18"/>
<text text-anchor="middle" x="2214.03" y="-578.3" font-family="Times,serif" font-size="14.00">467862447 (df_jobs(0)$2: Reuse)</text>
</g>
<!-- http://purl.org/dj/kaggle/basic&#45;exploration&#45;of&#45;the&#45;ai&#45;report&#45;data#467862447&#45;&gt;http://purl.org/dj/kaggle/basic&#45;exploration&#45;of&#45;the&#45;ai&#45;report&#45;data#467796910 -->
<g id="edge40" class="edge">
<title>http://purl.org/dj/kaggle/basic&#45;exploration&#45;of&#45;the&#45;ai&#45;report&#45;data#467862447&#45;&gt;http://purl.org/dj/kaggle/basic&#45;exploration&#45;of&#45;the&#45;ai&#45;report&#45;data#467796910</title>
<path fill="none" stroke="black" d="M2214.03,-563.8C2214.03,-552.16 2214.03,-536.55 2214.03,-523.24"/>
<polygon fill="black" stroke="black" points="2217.53,-523.18 2214.03,-513.18 2210.53,-523.18 2217.53,-523.18"/>
<text text-anchor="middle" x="2231.03" y="-534.8" font-family="Times,serif" font-size="14.00">plot ()</text>
</g>
</g>
</svg>
