<?xml version="1.0" encoding="UTF-8" standalone="no"?>
<!DOCTYPE svg PUBLIC "-//W3C//DTD SVG 1.1//EN"
 "http://www.w3.org/Graphics/SVG/1.1/DTD/svg11.dtd">
<!-- Generated by graphviz version 2.47.1 (20210417.1919)
 -->
<!-- Pages: 1 -->
<svg width="882pt" height="392pt"
 viewBox="0.00 0.00 881.51 392.00" xmlns="http://www.w3.org/2000/svg" xmlns:xlink="http://www.w3.org/1999/xlink">
<g id="graph0" class="graph" transform="scale(1 1) rotate(0) translate(4 388)">
<polygon fill="white" stroke="transparent" points="-4,4 -4,-388 877.51,-388 877.51,4 -4,4"/>
<!-- http://purl.org/dj/kaggle/basic&#45;data&#45;exploration#1257178776 -->
<g id="node1" class="node">
<title>http://purl.org/dj/kaggle/basic&#45;data&#45;exploration#1257178776</title>
<ellipse fill="none" stroke="black" cx="500.28" cy="-279" rx="182.77" ry="18"/>
<text text-anchor="middle" x="500.28" y="-275.3" font-family="Times,serif" font-size="14.00">1257178776 (melbourne_data(0)$0: Movement)</text>
</g>
<!-- http://purl.org/dj/kaggle/basic&#45;data&#45;exploration#2019035306 -->
<g id="node2" class="node">
<title>http://purl.org/dj/kaggle/basic&#45;data&#45;exploration#2019035306</title>
<ellipse fill="none" stroke="black" cx="351.28" cy="-192" rx="181.17" ry="18"/>
<text text-anchor="middle" x="351.28" y="-188.3" font-family="Times,serif" font-size="14.00">2019035306 (melbourne_file_path(0)$0: Reuse)</text>
</g>
<!-- http://purl.org/dj/kaggle/basic&#45;data&#45;exploration#1257178776&#45;&gt;http://purl.org/dj/kaggle/basic&#45;data&#45;exploration#2019035306 -->
<g id="edge1" class="edge">
<title>http://purl.org/dj/kaggle/basic&#45;data&#45;exploration#1257178776&#45;&gt;http://purl.org/dj/kaggle/basic&#45;data&#45;exploration#2019035306</title>
<path fill="none" stroke="black" d="M470.84,-261.21C447.65,-247.98 415.13,-229.43 389.86,-215.01"/>
<polygon fill="black" stroke="black" points="391.33,-211.82 380.91,-209.9 387.86,-217.9 391.33,-211.82"/>
<text text-anchor="middle" x="465.78" y="-231.8" font-family="Times,serif" font-size="14.00">read_csv ()</text>
</g>
<!-- http://purl.org/dj/kaggle/basic&#45;data&#45;exploration#80085334 -->
<g id="node3" class="node">
<title>http://purl.org/dj/kaggle/basic&#45;data&#45;exploration#80085334</title>
<ellipse fill="none" stroke="black" cx="675.28" cy="-192" rx="99.38" ry="18"/>
<text text-anchor="middle" x="675.28" y="-188.3" font-family="Times,serif" font-size="14.00">80085334 (pd(0): Reuse)</text>
</g>
<!-- http://purl.org/dj/kaggle/basic&#45;data&#45;exploration#1257178776&#45;&gt;http://purl.org/dj/kaggle/basic&#45;data&#45;exploration#80085334 -->
<g id="edge2" class="edge">
<title>http://purl.org/dj/kaggle/basic&#45;data&#45;exploration#1257178776&#45;&gt;http://purl.org/dj/kaggle/basic&#45;data&#45;exploration#80085334</title>
<path fill="none" stroke="black" d="M534.85,-261.21C563.11,-247.48 603.15,-228.03 633.26,-213.41"/>
<polygon fill="black" stroke="black" points="634.79,-216.56 642.26,-209.04 631.73,-210.26 634.79,-216.56"/>
<text text-anchor="middle" x="627.78" y="-231.8" font-family="Times,serif" font-size="14.00">read_csv ()</text>
</g>
<!-- http://purl.org/dj/kaggle/basic&#45;data&#45;exploration#58004286 -->
<g id="node4" class="node">
<title>http://purl.org/dj/kaggle/basic&#45;data&#45;exploration#58004286</title>
<ellipse fill="none" stroke="black" cx="274.28" cy="-105" rx="274.05" ry="18"/>
<text text-anchor="middle" x="274.28" y="-101.3" font-family="Times,serif" font-size="14.00">58004286 (../input/melbourne&#45;housing&#45;snapshot/melb_data.csv(0): Reuse)</text>
</g>
<!-- http://purl.org/dj/kaggle/basic&#45;data&#45;exploration#2019035306&#45;&gt;http://purl.org/dj/kaggle/basic&#45;data&#45;exploration#58004286 -->
<g id="edge3" class="edge">
<title>http://purl.org/dj/kaggle/basic&#45;data&#45;exploration#2019035306&#45;&gt;http://purl.org/dj/kaggle/basic&#45;data&#45;exploration#58004286</title>
<path fill="none" stroke="black" d="M335.69,-173.8C324.53,-161.47 309.31,-144.68 296.82,-130.89"/>
<polygon fill="black" stroke="black" points="299.14,-128.24 289.83,-123.18 293.95,-132.94 299.14,-128.24"/>
<text text-anchor="middle" x="363.28" y="-144.8" font-family="Times,serif" font-size="14.00">assignedFrom ()</text>
</g>
<!-- http://purl.org/dj/python/lib/144966264 -->
<g id="node5" class="node">
<title>http://purl.org/dj/python/lib/144966264</title>
<ellipse fill="none" stroke="black" cx="675.28" cy="-105" rx="109.38" ry="18"/>
<text text-anchor="middle" x="675.28" y="-101.3" font-family="Times,serif" font-size="14.00">144966264 (pandas: Reuse)</text>
</g>
<!-- http://purl.org/dj/kaggle/basic&#45;data&#45;exploration#80085334&#45;&gt;http://purl.org/dj/python/lib/144966264 -->
<g id="edge4" class="edge">
<title>http://purl.org/dj/kaggle/basic&#45;data&#45;exploration#80085334&#45;&gt;http://purl.org/dj/python/lib/144966264</title>
<path fill="none" stroke="black" d="M675.28,-173.8C675.28,-162.16 675.28,-146.55 675.28,-133.24"/>
<polygon fill="black" stroke="black" points="678.78,-133.18 675.28,-123.18 671.78,-133.18 678.78,-133.18"/>
<text text-anchor="middle" x="720.28" y="-144.8" font-family="Times,serif" font-size="14.00">assignedFrom ()</text>
</g>
<!-- http://purl.org/dj/kaggle/basic&#45;data&#45;exploration -->
<g id="node6" class="node">
<title>http://purl.org/dj/kaggle/basic&#45;data&#45;exploration</title>
<ellipse fill="none" stroke="black" cx="675.28" cy="-18" rx="198.47" ry="18"/>
<text text-anchor="middle" x="675.28" y="-14.3" font-family="Times,serif" font-size="14.00">basic&#45;data&#45;exploration (basic&#45;data&#45;exploration.ipynb)</text>
</g>
<!-- http://purl.org/dj/kaggle/basic&#45;data&#45;exploration#80085334&#45;&gt;http://purl.org/dj/kaggle/basic&#45;data&#45;exploration -->
<g id="edge5" class="edge">
<title>http://purl.org/dj/kaggle/basic&#45;data&#45;exploration#80085334&#45;&gt;http://purl.org/dj/kaggle/basic&#45;data&#45;exploration</title>
<path fill="none" stroke="black" d="M731.41,-177.04C757.36,-167.02 784.39,-150.32 793.28,-123 798.22,-107.78 799.62,-101.69 793.28,-87 784.8,-67.37 776.19,-65.67 758.28,-54 750.2,-48.74 741.21,-43.99 732.21,-39.8"/>
<polygon fill="black" stroke="black" points="733.42,-36.51 722.86,-35.64 730.57,-42.9 733.42,-36.51"/>
<text text-anchor="middle" x="830.28" y="-101.3" font-family="Times,serif" font-size="14.00">appearsIn ()</text>
</g>
<!-- http://purl.org/dj/kaggle/basic&#45;data&#45;exploration#58004286&#45;&gt;http://purl.org/dj/kaggle/basic&#45;data&#45;exploration -->
<g id="edge6" class="edge">
<title>http://purl.org/dj/kaggle/basic&#45;data&#45;exploration#58004286&#45;&gt;http://purl.org/dj/kaggle/basic&#45;data&#45;exploration</title>
<path fill="none" stroke="black" d="M351.12,-87.71C419.86,-73.14 520.42,-51.82 591.27,-36.81"/>
<polygon fill="black" stroke="black" points="592.01,-40.23 601.07,-34.73 590.56,-33.38 592.01,-40.23"/>
<text text-anchor="middle" x="532.28" y="-57.8" font-family="Times,serif" font-size="14.00">appearsIn ()</text>
</g>
<!-- http://purl.org/dj/python/lib/144966264&#45;&gt;http://purl.org/dj/kaggle/basic&#45;data&#45;exploration -->
<g id="edge7" class="edge">
<title>http://purl.org/dj/python/lib/144966264&#45;&gt;http://purl.org/dj/kaggle/basic&#45;data&#45;exploration</title>
<path fill="none" stroke="black" d="M675.28,-86.8C675.28,-75.16 675.28,-59.55 675.28,-46.24"/>
<polygon fill="black" stroke="black" points="678.78,-46.18 675.28,-36.18 671.78,-46.18 678.78,-46.18"/>
<text text-anchor="middle" x="714.78" y="-57.8" font-family="Times,serif" font-size="14.00">importedBy ()</text>
</g>
<!-- http://purl.org/dj/kaggle/basic&#45;data&#45;exploration#1257244313 -->
<g id="node7" class="node">
<title>http://purl.org/dj/kaggle/basic&#45;data&#45;exploration#1257244313</title>
<ellipse fill="none" stroke="black" cx="500.28" cy="-366" rx="165.17" ry="18"/>
<text text-anchor="middle" x="500.28" y="-362.3" font-family="Times,serif" font-size="14.00">1257244313 (melbourne_data(0)$1: Reuse)</text>
</g>
<!-- http://purl.org/dj/kaggle/basic&#45;data&#45;exploration#1257244313&#45;&gt;http://purl.org/dj/kaggle/basic&#45;data&#45;exploration#1257178776 -->
<g id="edge8" class="edge">
<title>http://purl.org/dj/kaggle/basic&#45;data&#45;exploration#1257244313&#45;&gt;http://purl.org/dj/kaggle/basic&#45;data&#45;exploration#1257178776</title>
<path fill="none" stroke="black" d="M500.28,-347.8C500.28,-336.16 500.28,-320.55 500.28,-307.24"/>
<polygon fill="black" stroke="black" points="503.78,-307.18 500.28,-297.18 496.78,-307.18 503.78,-307.18"/>
<text text-anchor="middle" x="529.28" y="-318.8" font-family="Times,serif" font-size="14.00">describe ()</text>
</g>
</g>
</svg>
