<?xml version="1.0" encoding="UTF-8" standalone="no"?>
<!DOCTYPE svg PUBLIC "-//W3C//DTD SVG 1.1//EN"
 "http://www.w3.org/Graphics/SVG/1.1/DTD/svg11.dtd">
<!-- Generated by graphviz version 2.44.1 (20200629.0846)
 -->
<!-- Pages: 1 -->
<svg width="4316pt" height="608pt"
 viewBox="0.00 0.00 4315.68 608.00" xmlns="http://www.w3.org/2000/svg" xmlns:xlink="http://www.w3.org/1999/xlink">
<g id="graph0" class="graph" transform="scale(1 1) rotate(0) translate(4 604)">
<polygon fill="white" stroke="transparent" points="-4,4 -4,-604 4311.68,-604 4311.68,4 -4,4"/>
<!-- http://purl.org/dj/kaggle/basic&#45;exploration&#45;of&#45;the&#45;ai&#45;report&#45;data#42008801 -->
<g id="node1" class="node">
<title>http://purl.org/dj/kaggle/basic&#45;exploration&#45;of&#45;the&#45;ai&#45;report&#45;data#42008801</title>
<ellipse fill="none" stroke="black" cx="120.24" cy="-321" rx="120.48" ry="18"/>
<text text-anchor="middle" x="120.24" y="-317.3" font-family="Times,serif" font-size="14.00">42008801 (_(0): Visualisation)</text>
</g>
<!-- http://purl.org/dj/kaggle/basic&#45;exploration&#45;of&#45;the&#45;ai&#45;report&#45;data#83689828 -->
<g id="node2" class="node">
<title>http://purl.org/dj/kaggle/basic&#45;exploration&#45;of&#45;the&#45;ai&#45;report&#45;data#83689828</title>
<ellipse fill="none" stroke="black" cx="1181.24" cy="-213" rx="123.48" ry="18"/>
<text text-anchor="middle" x="1181.24" y="-209.3" font-family="Times,serif" font-size="14.00">83689828 (os(0): Visualisation)</text>
</g>
<!-- http://purl.org/dj/kaggle/basic&#45;exploration&#45;of&#45;the&#45;ai&#45;report&#45;data#42008801&#45;&gt;http://purl.org/dj/kaggle/basic&#45;exploration&#45;of&#45;the&#45;ai&#45;report&#45;data#83689828 -->
<g id="edge1" class="edge">
<title>http://purl.org/dj/kaggle/basic&#45;exploration&#45;of&#45;the&#45;ai&#45;report&#45;data#42008801&#45;&gt;http://purl.org/dj/kaggle/basic&#45;exploration&#45;of&#45;the&#45;ai&#45;report&#45;data#83689828</title>
<path fill="none" stroke="black" d="M231.29,-314.09C401.55,-304.93 708.13,-288.06 713.24,-285 729.32,-275.35 719.15,-258.64 735.24,-249 765.22,-231.04 1014.44,-234.23 1049.24,-231 1060.92,-229.91 1073.16,-228.59 1085.28,-227.17"/>
<polygon fill="black" stroke="black" points="1085.91,-230.62 1095.42,-225.95 1085.07,-223.67 1085.91,-230.62"/>
<text text-anchor="middle" x="762.24" y="-263.3" font-family="Times,serif" font-size="14.00">iteratorOf</text>
</g>
<!-- http://purl.org/dj/kaggle/basic&#45;exploration&#45;of&#45;the&#45;ai&#45;report&#45;data -->
<g id="node3" class="node">
<title>http://purl.org/dj/kaggle/basic&#45;exploration&#45;of&#45;the&#45;ai&#45;report&#45;data</title>
<ellipse fill="none" stroke="black" cx="1514.24" cy="-18" rx="146.47" ry="18"/>
<text text-anchor="middle" x="1514.24" y="-14.3" font-family="Times,serif" font-size="14.00">basic&#45;exploration&#45;of&#45;the&#45;ai&#45;report&#45;data</text>
</g>
<!-- http://purl.org/dj/kaggle/basic&#45;exploration&#45;of&#45;the&#45;ai&#45;report&#45;data#42008801&#45;&gt;http://purl.org/dj/kaggle/basic&#45;exploration&#45;of&#45;the&#45;ai&#45;report&#45;data -->
<g id="edge2" class="edge">
<title>http://purl.org/dj/kaggle/basic&#45;exploration&#45;of&#45;the&#45;ai&#45;report&#45;data#42008801&#45;&gt;http://purl.org/dj/kaggle/basic&#45;exploration&#45;of&#45;the&#45;ai&#45;report&#45;data</title>
<path fill="none" stroke="black" d="M119.39,-302.82C118.64,-267.13 122.29,-184.66 168.24,-141 251.27,-62.09 306.89,-103.49 420.24,-87 752.35,-38.68 1146.09,-24.66 1358.92,-20.62"/>
<polygon fill="black" stroke="black" points="1359.29,-24.11 1369.23,-20.43 1359.16,-17.11 1359.29,-24.11"/>
<text text-anchor="middle" x="194.74" y="-155.3" font-family="Times,serif" font-size="14.00">appearsIn</text>
</g>
<!-- http://purl.org/dj/kaggle/basic&#45;exploration&#45;of&#45;the&#45;ai&#45;report&#45;data#1148721419 -->
<g id="node4" class="node">
<title>http://purl.org/dj/kaggle/basic&#45;exploration&#45;of&#45;the&#45;ai&#45;report&#45;data#1148721419</title>
<ellipse fill="none" stroke="black" cx="622.24" cy="-213" rx="417.83" ry="18"/>
<text text-anchor="middle" x="622.24" y="-209.3" font-family="Times,serif" font-size="14.00">1148721419 (/kaggle/input/the&#45;2019&#45;ai&#45;index&#45;report/AI INDEX 2019 PUBLIC DATA/4. The Economy(0): Reuse)</text>
</g>
<!-- http://purl.org/dj/kaggle/basic&#45;exploration&#45;of&#45;the&#45;ai&#45;report&#45;data#42008801&#45;&gt;http://purl.org/dj/kaggle/basic&#45;exploration&#45;of&#45;the&#45;ai&#45;report&#45;data#1148721419 -->
<g id="edge3" class="edge">
<title>http://purl.org/dj/kaggle/basic&#45;exploration&#45;of&#45;the&#45;ai&#45;report&#45;data#42008801&#45;&gt;http://purl.org/dj/kaggle/basic&#45;exploration&#45;of&#45;the&#45;ai&#45;report&#45;data#1148721419</title>
<path fill="none" stroke="black" d="M186.64,-305.98C275.65,-287.18 433.92,-253.76 533.2,-232.8"/>
<polygon fill="black" stroke="black" points="534.15,-236.18 543.21,-230.69 532.71,-229.33 534.15,-236.18"/>
<text text-anchor="middle" x="473.24" y="-263.3" font-family="Times,serif" font-size="14.00">iteratorOf</text>
</g>
<!-- http://purl.org/dj/kaggle/basic&#45;exploration&#45;of&#45;the&#45;ai&#45;report&#45;data#83689828&#45;&gt;http://purl.org/dj/kaggle/basic&#45;exploration&#45;of&#45;the&#45;ai&#45;report&#45;data -->
<g id="edge4" class="edge">
<title>http://purl.org/dj/kaggle/basic&#45;exploration&#45;of&#45;the&#45;ai&#45;report&#45;data#83689828&#45;&gt;http://purl.org/dj/kaggle/basic&#45;exploration&#45;of&#45;the&#45;ai&#45;report&#45;data</title>
<path fill="none" stroke="black" d="M1146.44,-195.56C1101.54,-172.16 1032.94,-127.57 1066.24,-87 1102.88,-42.36 1244.85,-26.56 1359.28,-21.2"/>
<polygon fill="black" stroke="black" points="1359.72,-24.68 1369.56,-20.74 1359.41,-17.69 1359.72,-24.68"/>
<text text-anchor="middle" x="1092.74" y="-101.3" font-family="Times,serif" font-size="14.00">appearsIn</text>
</g>
<!-- http://purl.org/dj/python/lib/22216931 -->
<g id="node5" class="node">
<title>http://purl.org/dj/python/lib/22216931</title>
<ellipse fill="none" stroke="black" cx="1216.24" cy="-105" rx="88.28" ry="18"/>
<text text-anchor="middle" x="1216.24" y="-101.3" font-family="Times,serif" font-size="14.00">22216931 (os: Reuse)</text>
</g>
<!-- http://purl.org/dj/kaggle/basic&#45;exploration&#45;of&#45;the&#45;ai&#45;report&#45;data#83689828&#45;&gt;http://purl.org/dj/python/lib/22216931 -->
<g id="edge5" class="edge">
<title>http://purl.org/dj/kaggle/basic&#45;exploration&#45;of&#45;the&#45;ai&#45;report&#45;data#83689828&#45;&gt;http://purl.org/dj/python/lib/22216931</title>
<path fill="none" stroke="black" d="M1186.86,-194.97C1192.42,-178.12 1201.02,-152.1 1207.47,-132.54"/>
<polygon fill="black" stroke="black" points="1210.82,-133.58 1210.63,-122.99 1204.17,-131.39 1210.82,-133.58"/>
<text text-anchor="middle" x="1249.74" y="-155.3" font-family="Times,serif" font-size="14.00">previousActivity</text>
</g>
<!-- http://purl.org/dj/kaggle/basic&#45;exploration&#45;of&#45;the&#45;ai&#45;report&#45;data#1148721419&#45;&gt;http://purl.org/dj/kaggle/basic&#45;exploration&#45;of&#45;the&#45;ai&#45;report&#45;data -->
<g id="edge6" class="edge">
<title>http://purl.org/dj/kaggle/basic&#45;exploration&#45;of&#45;the&#45;ai&#45;report&#45;data#1148721419&#45;&gt;http://purl.org/dj/kaggle/basic&#45;exploration&#45;of&#45;the&#45;ai&#45;report&#45;data</title>
<path fill="none" stroke="black" d="M664.61,-195.05C728.66,-169.75 854.25,-121.4 963.24,-87 1017.62,-69.83 1031.04,-63.7 1087.24,-54 1179.24,-38.12 1283.67,-29.4 1366.23,-24.63"/>
<polygon fill="black" stroke="black" points="1366.65,-28.11 1376.44,-24.06 1366.26,-21.12 1366.65,-28.11"/>
<text text-anchor="middle" x="1008.74" y="-101.3" font-family="Times,serif" font-size="14.00">previousActivity</text>
</g>
<!-- http://purl.org/dj/python/lib/22216931&#45;&gt;http://purl.org/dj/kaggle/basic&#45;exploration&#45;of&#45;the&#45;ai&#45;report&#45;data -->
<g id="edge7" class="edge">
<title>http://purl.org/dj/python/lib/22216931&#45;&gt;http://purl.org/dj/kaggle/basic&#45;exploration&#45;of&#45;the&#45;ai&#45;report&#45;data</title>
<path fill="none" stroke="black" d="M1224.06,-86.76C1230.11,-75.52 1239.58,-61.59 1252.24,-54 1273.69,-41.15 1324.36,-32.9 1375.49,-27.66"/>
<polygon fill="black" stroke="black" points="1376.1,-31.11 1385.71,-26.65 1375.41,-24.15 1376.1,-31.11"/>
<text text-anchor="middle" x="1285.24" y="-57.8" font-family="Times,serif" font-size="14.00">importedBy</text>
</g>
<!-- http://purl.org/dj/kaggle/basic&#45;exploration&#45;of&#45;the&#45;ai&#45;report&#45;data#82575712 -->
<g id="node6" class="node">
<title>http://purl.org/dj/kaggle/basic&#45;exploration&#45;of&#45;the&#45;ai&#45;report&#45;data#82575712</title>
<ellipse fill="none" stroke="black" cx="1630.24" cy="-213" rx="124.28" ry="18"/>
<text text-anchor="middle" x="1630.24" y="-209.3" font-family="Times,serif" font-size="14.00">82575712 (np(0): Visualisation)</text>
</g>
<!-- http://purl.org/dj/kaggle/basic&#45;exploration&#45;of&#45;the&#45;ai&#45;report&#45;data#82575712&#45;&gt;http://purl.org/dj/kaggle/basic&#45;exploration&#45;of&#45;the&#45;ai&#45;report&#45;data -->
<g id="edge8" class="edge">
<title>http://purl.org/dj/kaggle/basic&#45;exploration&#45;of&#45;the&#45;ai&#45;report&#45;data#82575712&#45;&gt;http://purl.org/dj/kaggle/basic&#45;exploration&#45;of&#45;the&#45;ai&#45;report&#45;data</title>
<path fill="none" stroke="black" d="M1568.66,-197.22C1530.21,-184.46 1483.7,-161.76 1460.24,-123 1444.13,-96.38 1466.55,-64.44 1487.21,-43.04"/>
<polygon fill="black" stroke="black" points="1489.74,-45.46 1494.38,-35.94 1484.81,-40.49 1489.74,-45.46"/>
<text text-anchor="middle" x="1505.74" y="-101.3" font-family="Times,serif" font-size="14.00">previousActivity</text>
</g>
<!-- http://purl.org/dj/python/lib/111084090 -->
<g id="node7" class="node">
<title>http://purl.org/dj/python/lib/111084090</title>
<ellipse fill="none" stroke="black" cx="1670.24" cy="-105" rx="109.68" ry="18"/>
<text text-anchor="middle" x="1670.24" y="-101.3" font-family="Times,serif" font-size="14.00">111084090 (numpy: Reuse)</text>
</g>
<!-- http://purl.org/dj/kaggle/basic&#45;exploration&#45;of&#45;the&#45;ai&#45;report&#45;data#82575712&#45;&gt;http://purl.org/dj/python/lib/111084090 -->
<g id="edge9" class="edge">
<title>http://purl.org/dj/kaggle/basic&#45;exploration&#45;of&#45;the&#45;ai&#45;report&#45;data#82575712&#45;&gt;http://purl.org/dj/python/lib/111084090</title>
<path fill="none" stroke="black" d="M1636.67,-194.97C1643.02,-178.12 1652.84,-152.1 1660.22,-132.54"/>
<polygon fill="black" stroke="black" points="1663.57,-133.58 1663.83,-122.99 1657.02,-131.11 1663.57,-133.58"/>
<text text-anchor="middle" x="1700.74" y="-155.3" font-family="Times,serif" font-size="14.00">previousActivity</text>
</g>
<!-- http://purl.org/dj/python/lib/111084090&#45;&gt;http://purl.org/dj/kaggle/basic&#45;exploration&#45;of&#45;the&#45;ai&#45;report&#45;data -->
<g id="edge10" class="edge">
<title>http://purl.org/dj/python/lib/111084090&#45;&gt;http://purl.org/dj/kaggle/basic&#45;exploration&#45;of&#45;the&#45;ai&#45;report&#45;data</title>
<path fill="none" stroke="black" d="M1640.16,-87.61C1615.61,-74.23 1580.71,-55.22 1553.88,-40.6"/>
<polygon fill="black" stroke="black" points="1555.21,-37.34 1544.76,-35.63 1551.86,-43.49 1555.21,-37.34"/>
<text text-anchor="middle" x="1634.24" y="-57.8" font-family="Times,serif" font-size="14.00">importedBy</text>
</g>
<!-- http://purl.org/dj/kaggle/basic&#45;exploration&#45;of&#45;the&#45;ai&#45;report&#45;data#128057760 -->
<g id="node8" class="node">
<title>http://purl.org/dj/kaggle/basic&#45;exploration&#45;of&#45;the&#45;ai&#45;report&#45;data#128057760</title>
<ellipse fill="none" stroke="black" cx="3032.24" cy="-408" rx="135.68" ry="18"/>
<text text-anchor="middle" x="3032.24" y="-404.3" font-family="Times,serif" font-size="14.00">128057760 (df(0)$0: Visualisation)</text>
</g>
<!-- http://purl.org/dj/kaggle/basic&#45;exploration&#45;of&#45;the&#45;ai&#45;report&#45;data#2647993806 -->
<g id="node9" class="node">
<title>http://purl.org/dj/kaggle/basic&#45;exploration&#45;of&#45;the&#45;ai&#45;report&#45;data#2647993806</title>
<ellipse fill="none" stroke="black" cx="3677.24" cy="-267" rx="630.39" ry="18"/>
<text text-anchor="middle" x="3677.24" y="-263.3" font-family="Times,serif" font-size="14.00">2647993806 (/kaggle/input/the&#45;2019&#45;ai&#45;index&#45;report/AI INDEX 2019 PUBLIC DATA/5. Education/Udacity/Copy of Copy of Data to Share with Stanford, SG.xlsx(0): Reuse)</text>
</g>
<!-- http://purl.org/dj/kaggle/basic&#45;exploration&#45;of&#45;the&#45;ai&#45;report&#45;data#128057760&#45;&gt;http://purl.org/dj/kaggle/basic&#45;exploration&#45;of&#45;the&#45;ai&#45;report&#45;data#2647993806 -->
<g id="edge11" class="edge">
<title>http://purl.org/dj/kaggle/basic&#45;exploration&#45;of&#45;the&#45;ai&#45;report&#45;data#128057760&#45;&gt;http://purl.org/dj/kaggle/basic&#45;exploration&#45;of&#45;the&#45;ai&#45;report&#45;data#2647993806</title>
<path fill="none" stroke="black" d="M3100.05,-392.39C3217.47,-367.08 3458.57,-315.12 3588.92,-287.03"/>
<polygon fill="black" stroke="black" points="3589.84,-290.42 3598.88,-284.89 3588.36,-283.57 3589.84,-290.42"/>
<text text-anchor="middle" x="3288.74" y="-360.8" font-family="Times,serif" font-size="14.00">read_excel</text>
</g>
<!-- http://purl.org/dj/kaggle/basic&#45;exploration&#45;of&#45;the&#45;ai&#45;report&#45;data#1013583234 -->
<g id="node10" class="node">
<title>http://purl.org/dj/kaggle/basic&#45;exploration&#45;of&#45;the&#45;ai&#45;report&#45;data#1013583234</title>
<ellipse fill="none" stroke="black" cx="3027.24" cy="-159" rx="245.06" ry="18"/>
<text text-anchor="middle" x="3027.24" y="-155.3" font-family="Times,serif" font-size="14.00">1013583234 ([&lt;_ast.Constant object at 0x12f8ab160&gt;](0): Reuse)</text>
</g>
<!-- http://purl.org/dj/kaggle/basic&#45;exploration&#45;of&#45;the&#45;ai&#45;report&#45;data#128057760&#45;&gt;http://purl.org/dj/kaggle/basic&#45;exploration&#45;of&#45;the&#45;ai&#45;report&#45;data#1013583234 -->
<g id="edge12" class="edge">
<title>http://purl.org/dj/kaggle/basic&#45;exploration&#45;of&#45;the&#45;ai&#45;report&#45;data#128057760&#45;&gt;http://purl.org/dj/kaggle/basic&#45;exploration&#45;of&#45;the&#45;ai&#45;report&#45;data#1013583234</title>
<path fill="none" stroke="black" d="M3031.89,-389.63C3031.03,-347.28 3028.83,-238.42 3027.79,-187.29"/>
<polygon fill="black" stroke="black" points="3031.29,-186.95 3027.58,-177.02 3024.29,-187.09 3031.29,-186.95"/>
<text text-anchor="middle" x="3075.74" y="-317.3" font-family="Times,serif" font-size="14.00">previousActivity</text>
</g>
<!-- http://purl.org/dj/kaggle/basic&#45;exploration&#45;of&#45;the&#45;ai&#45;report&#45;data#132776362 -->
<g id="node11" class="node">
<title>http://purl.org/dj/kaggle/basic&#45;exploration&#45;of&#45;the&#45;ai&#45;report&#45;data#132776362</title>
<ellipse fill="none" stroke="black" cx="2778.24" cy="-321" rx="137.58" ry="18"/>
<text text-anchor="middle" x="2778.24" y="-317.3" font-family="Times,serif" font-size="14.00">132776362 (pd(0)$0: Visualisation)</text>
</g>
<!-- http://purl.org/dj/kaggle/basic&#45;exploration&#45;of&#45;the&#45;ai&#45;report&#45;data#128057760&#45;&gt;http://purl.org/dj/kaggle/basic&#45;exploration&#45;of&#45;the&#45;ai&#45;report&#45;data#132776362 -->
<g id="edge13" class="edge">
<title>http://purl.org/dj/kaggle/basic&#45;exploration&#45;of&#45;the&#45;ai&#45;report&#45;data#128057760&#45;&gt;http://purl.org/dj/kaggle/basic&#45;exploration&#45;of&#45;the&#45;ai&#45;report&#45;data#132776362</title>
<path fill="none" stroke="black" d="M2984.76,-391.11C2942.49,-376.97 2880.55,-356.24 2835.54,-341.17"/>
<polygon fill="black" stroke="black" points="2836.51,-337.81 2825.91,-337.95 2834.29,-344.45 2836.51,-337.81"/>
<text text-anchor="middle" x="2949.74" y="-360.8" font-family="Times,serif" font-size="14.00">read_excel</text>
</g>
<!-- http://purl.org/dj/kaggle/basic&#45;exploration&#45;of&#45;the&#45;ai&#45;report&#45;data#2647993806&#45;&gt;http://purl.org/dj/kaggle/basic&#45;exploration&#45;of&#45;the&#45;ai&#45;report&#45;data -->
<g id="edge14" class="edge">
<title>http://purl.org/dj/kaggle/basic&#45;exploration&#45;of&#45;the&#45;ai&#45;report&#45;data#2647993806&#45;&gt;http://purl.org/dj/kaggle/basic&#45;exploration&#45;of&#45;the&#45;ai&#45;report&#45;data</title>
<path fill="none" stroke="black" d="M3630.25,-249.01C3556.65,-222.88 3409.34,-172.57 3281.24,-141 3149.27,-108.48 3114.71,-106.75 2980.24,-87 2852.77,-68.28 2820.74,-63.25 2692.24,-54 2326.95,-27.69 1896.56,-21.06 1670.71,-19.45"/>
<polygon fill="black" stroke="black" points="1670.46,-15.95 1660.44,-19.38 1670.42,-22.95 1670.46,-15.95"/>
<text text-anchor="middle" x="3456.74" y="-155.3" font-family="Times,serif" font-size="14.00">previousActivity</text>
</g>
<!-- http://purl.org/dj/kaggle/basic&#45;exploration&#45;of&#45;the&#45;ai&#45;report&#45;data#1013583234&#45;&gt;http://purl.org/dj/kaggle/basic&#45;exploration&#45;of&#45;the&#45;ai&#45;report&#45;data -->
<g id="edge15" class="edge">
<title>http://purl.org/dj/kaggle/basic&#45;exploration&#45;of&#45;the&#45;ai&#45;report&#45;data#1013583234&#45;&gt;http://purl.org/dj/kaggle/basic&#45;exploration&#45;of&#45;the&#45;ai&#45;report&#45;data</title>
<path fill="none" stroke="black" d="M2981.12,-141.22C2908.82,-115.96 2763.85,-69.45 2636.24,-54 2453.94,-31.93 1932.02,-23.39 1669.29,-20.41"/>
<polygon fill="black" stroke="black" points="1669.32,-16.91 1659.28,-20.3 1669.24,-23.91 1669.32,-16.91"/>
<text text-anchor="middle" x="2949.74" y="-101.3" font-family="Times,serif" font-size="14.00">appearsIn</text>
</g>
<!-- http://purl.org/dj/kaggle/basic&#45;exploration&#45;of&#45;the&#45;ai&#45;report&#45;data#445383666 -->
<g id="node12" class="node">
<title>http://purl.org/dj/kaggle/basic&#45;exploration&#45;of&#45;the&#45;ai&#45;report&#45;data#445383666</title>
<ellipse fill="none" stroke="black" cx="2075.24" cy="-159" rx="131.88" ry="18"/>
<text text-anchor="middle" x="2075.24" y="-155.3" font-family="Times,serif" font-size="14.00">445383666 (max_rows(0): Reuse)</text>
</g>
<!-- http://purl.org/dj/kaggle/basic&#45;exploration&#45;of&#45;the&#45;ai&#45;report&#45;data#132776362&#45;&gt;http://purl.org/dj/kaggle/basic&#45;exploration&#45;of&#45;the&#45;ai&#45;report&#45;data#445383666 -->
<g id="edge16" class="edge">
<title>http://purl.org/dj/kaggle/basic&#45;exploration&#45;of&#45;the&#45;ai&#45;report&#45;data#132776362&#45;&gt;http://purl.org/dj/kaggle/basic&#45;exploration&#45;of&#45;the&#45;ai&#45;report&#45;data#445383666</title>
<path fill="none" stroke="black" d="M2725.83,-304.34C2714.87,-299.38 2704,-293.03 2695.24,-285 2681.91,-272.77 2691,-259.45 2676.24,-249 2656.17,-234.79 2346.47,-194.06 2179.72,-172.99"/>
<polygon fill="black" stroke="black" points="2179.79,-169.47 2169.43,-171.69 2178.92,-176.41 2179.79,-169.47"/>
<text text-anchor="middle" x="2723.74" y="-263.3" font-family="Times,serif" font-size="14.00">set_option</text>
</g>
<!-- http://purl.org/dj/kaggle/basic&#45;exploration&#45;of&#45;the&#45;ai&#45;report&#45;data#65470741 -->
<g id="node13" class="node">
<title>http://purl.org/dj/kaggle/basic&#45;exploration&#45;of&#45;the&#45;ai&#45;report&#45;data#65470741</title>
<ellipse fill="none" stroke="black" cx="2354.24" cy="-159" rx="103.98" ry="18"/>
<text text-anchor="middle" x="2354.24" y="-155.3" font-family="Times,serif" font-size="14.00">65470741 (120(0): Reuse)</text>
</g>
<!-- http://purl.org/dj/kaggle/basic&#45;exploration&#45;of&#45;the&#45;ai&#45;report&#45;data#132776362&#45;&gt;http://purl.org/dj/kaggle/basic&#45;exploration&#45;of&#45;the&#45;ai&#45;report&#45;data#65470741 -->
<g id="edge17" class="edge">
<title>http://purl.org/dj/kaggle/basic&#45;exploration&#45;of&#45;the&#45;ai&#45;report&#45;data#132776362&#45;&gt;http://purl.org/dj/kaggle/basic&#45;exploration&#45;of&#45;the&#45;ai&#45;report&#45;data#65470741</title>
<path fill="none" stroke="black" d="M2775.24,-302.73C2772.1,-287.75 2766.21,-265.89 2756.24,-249 2739.3,-220.31 2734.36,-209.25 2704.24,-195 2658.7,-173.46 2528.33,-182.42 2478.24,-177 2466.14,-175.69 2453.39,-174.14 2440.87,-172.51"/>
<polygon fill="black" stroke="black" points="2441.26,-169.04 2430.89,-171.2 2440.34,-175.98 2441.26,-169.04"/>
<text text-anchor="middle" x="2798.74" y="-263.3" font-family="Times,serif" font-size="14.00">set_option</text>
</g>
<!-- http://purl.org/dj/kaggle/basic&#45;exploration&#45;of&#45;the&#45;ai&#45;report&#45;data#80085334 -->
<g id="node14" class="node">
<title>http://purl.org/dj/kaggle/basic&#45;exploration&#45;of&#45;the&#45;ai&#45;report&#45;data#80085334</title>
<ellipse fill="none" stroke="black" cx="2880.24" cy="-213" rx="124.28" ry="18"/>
<text text-anchor="middle" x="2880.24" y="-209.3" font-family="Times,serif" font-size="14.00">80085334 (pd(0): Visualisation)</text>
</g>
<!-- http://purl.org/dj/kaggle/basic&#45;exploration&#45;of&#45;the&#45;ai&#45;report&#45;data#132776362&#45;&gt;http://purl.org/dj/kaggle/basic&#45;exploration&#45;of&#45;the&#45;ai&#45;report&#45;data#80085334 -->
<g id="edge18" class="edge">
<title>http://purl.org/dj/kaggle/basic&#45;exploration&#45;of&#45;the&#45;ai&#45;report&#45;data#132776362&#45;&gt;http://purl.org/dj/kaggle/basic&#45;exploration&#45;of&#45;the&#45;ai&#45;report&#45;data#80085334</title>
<path fill="none" stroke="black" d="M2814.33,-303.46C2823.13,-298.35 2832.06,-292.16 2839.24,-285 2851.93,-272.34 2862.06,-254.96 2869.07,-240.56"/>
<polygon fill="black" stroke="black" points="2872.4,-241.7 2873.42,-231.16 2866.05,-238.76 2872.4,-241.7"/>
<text text-anchor="middle" x="2891.74" y="-263.3" font-family="Times,serif" font-size="14.00">set_option</text>
</g>
<!-- http://purl.org/dj/kaggle/basic&#45;exploration&#45;of&#45;the&#45;ai&#45;report&#45;data#445383666&#45;&gt;http://purl.org/dj/kaggle/basic&#45;exploration&#45;of&#45;the&#45;ai&#45;report&#45;data -->
<g id="edge24" class="edge">
<title>http://purl.org/dj/kaggle/basic&#45;exploration&#45;of&#45;the&#45;ai&#45;report&#45;data#445383666&#45;&gt;http://purl.org/dj/kaggle/basic&#45;exploration&#45;of&#45;the&#45;ai&#45;report&#45;data</title>
<path fill="none" stroke="black" d="M2043.36,-141.36C1996.64,-117.78 1906.22,-75.16 1824.24,-54 1770.41,-40.11 1709.92,-31.73 1656.76,-26.67"/>
<polygon fill="black" stroke="black" points="1656.85,-23.17 1646.57,-25.74 1656.21,-30.14 1656.85,-23.17"/>
<text text-anchor="middle" x="2050.74" y="-101.3" font-family="Times,serif" font-size="14.00">previousActivity</text>
</g>
<!-- http://purl.org/dj/kaggle/basic&#45;exploration&#45;of&#45;the&#45;ai&#45;report&#45;data#65470741&#45;&gt;http://purl.org/dj/kaggle/basic&#45;exploration&#45;of&#45;the&#45;ai&#45;report&#45;data -->
<g id="edge25" class="edge">
<title>http://purl.org/dj/kaggle/basic&#45;exploration&#45;of&#45;the&#45;ai&#45;report&#45;data#65470741&#45;&gt;http://purl.org/dj/kaggle/basic&#45;exploration&#45;of&#45;the&#45;ai&#45;report&#45;data</title>
<path fill="none" stroke="black" d="M2307.43,-142.85C2256.82,-126.95 2173.54,-102.21 2100.24,-87 1947.99,-55.41 1770.21,-37.37 1650.74,-27.92"/>
<polygon fill="black" stroke="black" points="1650.69,-24.41 1640.45,-27.12 1650.14,-31.39 1650.69,-24.41"/>
<text text-anchor="middle" x="2283.74" y="-101.3" font-family="Times,serif" font-size="14.00">previousActivity</text>
</g>
<!-- http://purl.org/dj/kaggle/basic&#45;exploration&#45;of&#45;the&#45;ai&#45;report&#45;data#80085334&#45;&gt;http://purl.org/dj/kaggle/basic&#45;exploration&#45;of&#45;the&#45;ai&#45;report&#45;data -->
<g id="edge35" class="edge">
<title>http://purl.org/dj/kaggle/basic&#45;exploration&#45;of&#45;the&#45;ai&#45;report&#45;data#80085334&#45;&gt;http://purl.org/dj/kaggle/basic&#45;exploration&#45;of&#45;the&#45;ai&#45;report&#45;data</title>
<path fill="none" stroke="black" d="M2793.81,-200.01C2754.41,-194.02 2707.28,-186.1 2665.24,-177 2515.81,-144.67 2483.73,-113.95 2333.24,-87 2172.03,-58.13 2129.44,-67.66 1966.24,-54 1858.51,-44.99 1736.27,-35.57 1646.1,-28.78"/>
<polygon fill="black" stroke="black" points="1646.33,-25.28 1636.09,-28.02 1645.8,-32.26 1646.33,-25.28"/>
<text text-anchor="middle" x="2504.74" y="-101.3" font-family="Times,serif" font-size="14.00">appearsIn</text>
</g>
<!-- http://purl.org/dj/python/lib/144966264 -->
<g id="node23" class="node">
<title>http://purl.org/dj/python/lib/144966264</title>
<ellipse fill="none" stroke="black" cx="2673.24" cy="-105" rx="109.38" ry="18"/>
<text text-anchor="middle" x="2673.24" y="-101.3" font-family="Times,serif" font-size="14.00">144966264 (pandas: Reuse)</text>
</g>
<!-- http://purl.org/dj/kaggle/basic&#45;exploration&#45;of&#45;the&#45;ai&#45;report&#45;data#80085334&#45;&gt;http://purl.org/dj/python/lib/144966264 -->
<g id="edge36" class="edge">
<title>http://purl.org/dj/kaggle/basic&#45;exploration&#45;of&#45;the&#45;ai&#45;report&#45;data#80085334&#45;&gt;http://purl.org/dj/python/lib/144966264</title>
<path fill="none" stroke="black" d="M2788.69,-200.8C2740.61,-194.04 2690.03,-185.18 2682.24,-177 2671.35,-165.56 2669.05,-147.97 2669.5,-133.16"/>
<polygon fill="black" stroke="black" points="2673.01,-133.22 2670.23,-123 2666.03,-132.72 2673.01,-133.22"/>
<text text-anchor="middle" x="2727.74" y="-155.3" font-family="Times,serif" font-size="14.00">previousActivity</text>
</g>
<!-- http://purl.org/dj/kaggle/basic&#45;exploration&#45;of&#45;the&#45;ai&#45;report&#45;data#249561878 -->
<g id="node15" class="node">
<title>http://purl.org/dj/kaggle/basic&#45;exploration&#45;of&#45;the&#45;ai&#45;report&#45;data#249561878</title>
<ellipse fill="none" stroke="black" cx="1241.24" cy="-321" rx="136.48" ry="18"/>
<text text-anchor="middle" x="1241.24" y="-317.3" font-family="Times,serif" font-size="14.00">249561878 (print[0]: Visualisation)</text>
</g>
<!-- http://purl.org/dj/kaggle/basic&#45;exploration&#45;of&#45;the&#45;ai&#45;report&#45;data#249561878&#45;&gt;http://purl.org/dj/kaggle/basic&#45;exploration&#45;of&#45;the&#45;ai&#45;report&#45;data#83689828 -->
<g id="edge19" class="edge">
<title>http://purl.org/dj/kaggle/basic&#45;exploration&#45;of&#45;the&#45;ai&#45;report&#45;data#249561878&#45;&gt;http://purl.org/dj/kaggle/basic&#45;exploration&#45;of&#45;the&#45;ai&#45;report&#45;data#83689828</title>
<path fill="none" stroke="black" d="M1231.6,-302.97C1221.93,-285.89 1206.93,-259.38 1195.81,-239.74"/>
<polygon fill="black" stroke="black" points="1198.83,-237.97 1190.86,-230.99 1192.74,-241.42 1198.83,-237.97"/>
<text text-anchor="middle" x="1233.24" y="-263.3" font-family="Times,serif" font-size="14.00">print</text>
</g>
<!-- http://purl.org/dj/kaggle/basic&#45;exploration&#45;of&#45;the&#45;ai&#45;report&#45;data#467796910 -->
<g id="node16" class="node">
<title>http://purl.org/dj/kaggle/basic&#45;exploration&#45;of&#45;the&#45;ai&#45;report&#45;data#467796910</title>
<ellipse fill="none" stroke="black" cx="2342.24" cy="-495" rx="155.17" ry="18"/>
<text text-anchor="middle" x="2342.24" y="-491.3" font-family="Times,serif" font-size="14.00">467796910 (df_jobs(0)$1: Visualisation)</text>
</g>
<!-- http://purl.org/dj/kaggle/basic&#45;exploration&#45;of&#45;the&#45;ai&#45;report&#45;data#467731373 -->
<g id="node17" class="node">
<title>http://purl.org/dj/kaggle/basic&#45;exploration&#45;of&#45;the&#45;ai&#45;report&#45;data#467731373</title>
<ellipse fill="none" stroke="black" cx="2342.24" cy="-408" rx="155.17" ry="18"/>
<text text-anchor="middle" x="2342.24" y="-404.3" font-family="Times,serif" font-size="14.00">467731373 (df_jobs(0)$0: Visualisation)</text>
</g>
<!-- http://purl.org/dj/kaggle/basic&#45;exploration&#45;of&#45;the&#45;ai&#45;report&#45;data#467796910&#45;&gt;http://purl.org/dj/kaggle/basic&#45;exploration&#45;of&#45;the&#45;ai&#45;report&#45;data#467731373 -->
<g id="edge20" class="edge">
<title>http://purl.org/dj/kaggle/basic&#45;exploration&#45;of&#45;the&#45;ai&#45;report&#45;data#467796910&#45;&gt;http://purl.org/dj/kaggle/basic&#45;exploration&#45;of&#45;the&#45;ai&#45;report&#45;data#467731373</title>
<path fill="none" stroke="black" d="M2342.24,-476.8C2342.24,-465.16 2342.24,-449.55 2342.24,-436.24"/>
<polygon fill="black" stroke="black" points="2345.74,-436.18 2342.24,-426.18 2338.74,-436.18 2345.74,-436.18"/>
<text text-anchor="middle" x="2354.24" y="-447.8" font-family="Times,serif" font-size="14.00">sum</text>
</g>
<!-- http://purl.org/dj/kaggle/basic&#45;exploration&#45;of&#45;the&#45;ai&#45;report&#45;data#467731373&#45;&gt;http://purl.org/dj/kaggle/basic&#45;exploration&#45;of&#45;the&#45;ai&#45;report&#45;data#132776362 -->
<g id="edge21" class="edge">
<title>http://purl.org/dj/kaggle/basic&#45;exploration&#45;of&#45;the&#45;ai&#45;report&#45;data#467731373&#45;&gt;http://purl.org/dj/kaggle/basic&#45;exploration&#45;of&#45;the&#45;ai&#45;report&#45;data#132776362</title>
<path fill="none" stroke="black" d="M2418.18,-392.19C2495.51,-377.12 2615.08,-353.81 2694.95,-338.24"/>
<polygon fill="black" stroke="black" points="2695.83,-341.63 2704.98,-336.28 2694.49,-334.76 2695.83,-341.63"/>
<text text-anchor="middle" x="2615.74" y="-360.8" font-family="Times,serif" font-size="14.00">read_excel</text>
</g>
<!-- http://purl.org/dj/kaggle/basic&#45;exploration&#45;of&#45;the&#45;ai&#45;report&#45;data#876096738 -->
<g id="node18" class="node">
<title>http://purl.org/dj/kaggle/basic&#45;exploration&#45;of&#45;the&#45;ai&#45;report&#45;data#876096738</title>
<ellipse fill="none" stroke="black" cx="2045.24" cy="-267" rx="630.39" ry="18"/>
<text text-anchor="middle" x="2045.24" y="-263.3" font-family="Times,serif" font-size="14.00">876096738 (/kaggle/input/the&#45;2019&#45;ai&#45;index&#45;report/AI INDEX 2019 PUBLIC DATA/4. The Economy/4.1. Jobs/Burning Glass/AI Postings USA monthly data.xlsx(0): Reuse)</text>
</g>
<!-- http://purl.org/dj/kaggle/basic&#45;exploration&#45;of&#45;the&#45;ai&#45;report&#45;data#467731373&#45;&gt;http://purl.org/dj/kaggle/basic&#45;exploration&#45;of&#45;the&#45;ai&#45;report&#45;data#876096738 -->
<g id="edge22" class="edge">
<title>http://purl.org/dj/kaggle/basic&#45;exploration&#45;of&#45;the&#45;ai&#45;report&#45;data#467731373&#45;&gt;http://purl.org/dj/kaggle/basic&#45;exploration&#45;of&#45;the&#45;ai&#45;report&#45;data#876096738</title>
<path fill="none" stroke="black" d="M2306.71,-390.37C2252.78,-365.13 2150.27,-317.16 2090.89,-289.36"/>
<polygon fill="black" stroke="black" points="2092.28,-286.15 2081.74,-285.08 2089.31,-292.49 2092.28,-286.15"/>
<text text-anchor="middle" x="2295.74" y="-360.8" font-family="Times,serif" font-size="14.00">read_excel</text>
</g>
<!-- http://purl.org/dj/kaggle/basic&#45;exploration&#45;of&#45;the&#45;ai&#45;report&#45;data#876096738&#45;&gt;http://purl.org/dj/kaggle/basic&#45;exploration&#45;of&#45;the&#45;ai&#45;report&#45;data -->
<g id="edge23" class="edge">
<title>http://purl.org/dj/kaggle/basic&#45;exploration&#45;of&#45;the&#45;ai&#45;report&#45;data#876096738&#45;&gt;http://purl.org/dj/kaggle/basic&#45;exploration&#45;of&#45;the&#45;ai&#45;report&#45;data</title>
<path fill="none" stroke="black" d="M2007,-248.98C1972.57,-232.81 1921.38,-206.62 1881.24,-177 1835.22,-143.03 1838.78,-115.6 1789.24,-87 1742.08,-59.77 1724.06,-67.26 1671.24,-54 1646.36,-47.75 1619.13,-41.48 1594.43,-36.01"/>
<polygon fill="black" stroke="black" points="1594.9,-32.53 1584.38,-33.8 1593.39,-39.37 1594.9,-32.53"/>
<text text-anchor="middle" x="1907.74" y="-155.3" font-family="Times,serif" font-size="14.00">appearsIn</text>
</g>
<!-- http://purl.org/dj/kaggle/basic&#45;exploration&#45;of&#45;the&#45;ai&#45;report&#45;data#249692951 -->
<g id="node19" class="node">
<title>http://purl.org/dj/kaggle/basic&#45;exploration&#45;of&#45;the&#45;ai&#45;report&#45;data#249692951</title>
<ellipse fill="none" stroke="black" cx="610.24" cy="-408" rx="136.48" ry="18"/>
<text text-anchor="middle" x="610.24" y="-404.3" font-family="Times,serif" font-size="14.00">249692951 (print[1]: Visualisation)</text>
</g>
<!-- http://purl.org/dj/kaggle/basic&#45;exploration&#45;of&#45;the&#45;ai&#45;report&#45;data#355533666 -->
<g id="node20" class="node">
<title>http://purl.org/dj/kaggle/basic&#45;exploration&#45;of&#45;the&#45;ai&#45;report&#45;data#355533666</title>
<ellipse fill="none" stroke="black" cx="610.24" cy="-321" rx="149.47" ry="18"/>
<text text-anchor="middle" x="610.24" y="-317.3" font-family="Times,serif" font-size="14.00">355533666 (dirname(0): Visualisation)</text>
</g>
<!-- http://purl.org/dj/kaggle/basic&#45;exploration&#45;of&#45;the&#45;ai&#45;report&#45;data#249692951&#45;&gt;http://purl.org/dj/kaggle/basic&#45;exploration&#45;of&#45;the&#45;ai&#45;report&#45;data#355533666 -->
<g id="edge26" class="edge">
<title>http://purl.org/dj/kaggle/basic&#45;exploration&#45;of&#45;the&#45;ai&#45;report&#45;data#249692951&#45;&gt;http://purl.org/dj/kaggle/basic&#45;exploration&#45;of&#45;the&#45;ai&#45;report&#45;data#355533666</title>
<path fill="none" stroke="black" d="M610.24,-389.8C610.24,-378.16 610.24,-362.55 610.24,-349.24"/>
<polygon fill="black" stroke="black" points="613.74,-349.18 610.24,-339.18 606.74,-349.18 613.74,-349.18"/>
<text text-anchor="middle" x="623.24" y="-360.8" font-family="Times,serif" font-size="14.00">print</text>
</g>
<!-- http://purl.org/dj/kaggle/basic&#45;exploration&#45;of&#45;the&#45;ai&#45;report&#45;data#355533666&#45;&gt;http://purl.org/dj/kaggle/basic&#45;exploration&#45;of&#45;the&#45;ai&#45;report&#45;data#83689828 -->
<g id="edge27" class="edge">
<title>http://purl.org/dj/kaggle/basic&#45;exploration&#45;of&#45;the&#45;ai&#45;report&#45;data#355533666&#45;&gt;http://purl.org/dj/kaggle/basic&#45;exploration&#45;of&#45;the&#45;ai&#45;report&#45;data#83689828</title>
<path fill="none" stroke="black" d="M717.39,-308.3C742.97,-303.14 769.68,-295.71 793.24,-285 816.87,-274.26 815.08,-258.5 839.24,-249 882.83,-231.85 1002.67,-235.99 1049.24,-231 1060.43,-229.8 1072.15,-228.44 1083.78,-227.03"/>
<polygon fill="black" stroke="black" points="1084.47,-230.47 1093.97,-225.77 1083.61,-223.52 1084.47,-230.47"/>
<text text-anchor="middle" x="866.24" y="-263.3" font-family="Times,serif" font-size="14.00">iteratorOf</text>
</g>
<!-- http://purl.org/dj/kaggle/basic&#45;exploration&#45;of&#45;the&#45;ai&#45;report&#45;data#355533666&#45;&gt;http://purl.org/dj/kaggle/basic&#45;exploration&#45;of&#45;the&#45;ai&#45;report&#45;data -->
<g id="edge28" class="edge">
<title>http://purl.org/dj/kaggle/basic&#45;exploration&#45;of&#45;the&#45;ai&#45;report&#45;data#355533666&#45;&gt;http://purl.org/dj/kaggle/basic&#45;exploration&#45;of&#45;the&#45;ai&#45;report&#45;data</title>
<path fill="none" stroke="black" d="M488.36,-310.55C379.45,-299.27 231.6,-275.99 195.24,-231 185.18,-218.56 184.93,-207.23 195.24,-195 270.57,-105.64 1051.01,-47.58 1374.73,-27.17"/>
<polygon fill="black" stroke="black" points="1375.35,-30.64 1385.11,-26.52 1374.91,-23.65 1375.35,-30.64"/>
<text text-anchor="middle" x="355.74" y="-155.3" font-family="Times,serif" font-size="14.00">appearsIn</text>
</g>
<!-- http://purl.org/dj/kaggle/basic&#45;exploration&#45;of&#45;the&#45;ai&#45;report&#45;data#355533666&#45;&gt;http://purl.org/dj/kaggle/basic&#45;exploration&#45;of&#45;the&#45;ai&#45;report&#45;data#1148721419 -->
<g id="edge29" class="edge">
<title>http://purl.org/dj/kaggle/basic&#45;exploration&#45;of&#45;the&#45;ai&#45;report&#45;data#355533666&#45;&gt;http://purl.org/dj/kaggle/basic&#45;exploration&#45;of&#45;the&#45;ai&#45;report&#45;data#1148721419</title>
<path fill="none" stroke="black" d="M612.17,-302.97C614.05,-286.38 616.93,-260.88 619.13,-241.43"/>
<polygon fill="black" stroke="black" points="622.63,-241.67 620.28,-231.34 615.67,-240.88 622.63,-241.67"/>
<text text-anchor="middle" x="663.74" y="-263.3" font-family="Times,serif" font-size="14.00">previousActivity</text>
</g>
<!-- http://purl.org/dj/kaggle/basic&#45;exploration&#45;of&#45;the&#45;ai&#45;report&#45;data#427361219 -->
<g id="node21" class="node">
<title>http://purl.org/dj/kaggle/basic&#45;exploration&#45;of&#45;the&#45;ai&#45;report&#45;data#427361219</title>
<ellipse fill="none" stroke="black" cx="1169.24" cy="-408" rx="150.57" ry="18"/>
<text text-anchor="middle" x="1169.24" y="-404.3" font-family="Times,serif" font-size="14.00">427361219 (filename(0): Visualisation)</text>
</g>
<!-- http://purl.org/dj/kaggle/basic&#45;exploration&#45;of&#45;the&#45;ai&#45;report&#45;data#427361219&#45;&gt;http://purl.org/dj/kaggle/basic&#45;exploration&#45;of&#45;the&#45;ai&#45;report&#45;data -->
<g id="edge30" class="edge">
<title>http://purl.org/dj/kaggle/basic&#45;exploration&#45;of&#45;the&#45;ai&#45;report&#45;data#427361219&#45;&gt;http://purl.org/dj/kaggle/basic&#45;exploration&#45;of&#45;the&#45;ai&#45;report&#45;data</title>
<path fill="none" stroke="black" d="M1276.93,-395.36C1316.12,-385.96 1357.74,-369.11 1386.24,-339 1396.17,-328.51 1445.99,-100.8 1450.24,-87 1454.83,-72.08 1452.63,-66.29 1462.24,-54 1465.72,-49.55 1469.92,-45.47 1474.41,-41.79"/>
<polygon fill="black" stroke="black" points="1476.79,-44.38 1482.72,-35.6 1472.61,-38.77 1476.79,-44.38"/>
<text text-anchor="middle" x="1450.74" y="-209.3" font-family="Times,serif" font-size="14.00">appearsIn</text>
</g>
<!-- http://purl.org/dj/kaggle/basic&#45;exploration&#45;of&#45;the&#45;ai&#45;report&#45;data#512164918 -->
<g id="node22" class="node">
<title>http://purl.org/dj/kaggle/basic&#45;exploration&#45;of&#45;the&#45;ai&#45;report&#45;data#512164918</title>
<ellipse fill="none" stroke="black" cx="932.24" cy="-321" rx="154.07" ry="18"/>
<text text-anchor="middle" x="932.24" y="-317.3" font-family="Times,serif" font-size="14.00">512164918 (filenames(0): Visualisation)</text>
</g>
<!-- http://purl.org/dj/kaggle/basic&#45;exploration&#45;of&#45;the&#45;ai&#45;report&#45;data#427361219&#45;&gt;http://purl.org/dj/kaggle/basic&#45;exploration&#45;of&#45;the&#45;ai&#45;report&#45;data#512164918 -->
<g id="edge31" class="edge">
<title>http://purl.org/dj/kaggle/basic&#45;exploration&#45;of&#45;the&#45;ai&#45;report&#45;data#427361219&#45;&gt;http://purl.org/dj/kaggle/basic&#45;exploration&#45;of&#45;the&#45;ai&#45;report&#45;data#512164918</title>
<path fill="none" stroke="black" d="M1124.1,-390.81C1085.1,-376.83 1028.63,-356.57 987.04,-341.65"/>
<polygon fill="black" stroke="black" points="988.2,-338.35 977.61,-338.27 985.84,-344.94 988.2,-338.35"/>
<text text-anchor="middle" x="1092.24" y="-360.8" font-family="Times,serif" font-size="14.00">iteratorOf</text>
</g>
<!-- http://purl.org/dj/kaggle/basic&#45;exploration&#45;of&#45;the&#45;ai&#45;report&#45;data#512164918&#45;&gt;http://purl.org/dj/kaggle/basic&#45;exploration&#45;of&#45;the&#45;ai&#45;report&#45;data#83689828 -->
<g id="edge32" class="edge">
<title>http://purl.org/dj/kaggle/basic&#45;exploration&#45;of&#45;the&#45;ai&#45;report&#45;data#512164918&#45;&gt;http://purl.org/dj/kaggle/basic&#45;exploration&#45;of&#45;the&#45;ai&#45;report&#45;data#83689828</title>
<path fill="none" stroke="black" d="M976.91,-303.63C992.02,-297.93 1008.93,-291.37 1024.24,-285 1062.79,-268.97 1105.97,-249.32 1137.27,-234.75"/>
<polygon fill="black" stroke="black" points="1139,-237.81 1146.59,-230.41 1136.04,-231.46 1139,-237.81"/>
<text text-anchor="middle" x="1133.24" y="-263.3" font-family="Times,serif" font-size="14.00">iteratorOf</text>
</g>
<!-- http://purl.org/dj/kaggle/basic&#45;exploration&#45;of&#45;the&#45;ai&#45;report&#45;data#512164918&#45;&gt;http://purl.org/dj/kaggle/basic&#45;exploration&#45;of&#45;the&#45;ai&#45;report&#45;data -->
<g id="edge33" class="edge">
<title>http://purl.org/dj/kaggle/basic&#45;exploration&#45;of&#45;the&#45;ai&#45;report&#45;data#512164918&#45;&gt;http://purl.org/dj/kaggle/basic&#45;exploration&#45;of&#45;the&#45;ai&#45;report&#45;data</title>
<path fill="none" stroke="black" d="M1040.54,-308.18C1079.84,-302.71 1124.36,-295.13 1164.24,-285 1181.31,-280.67 1301.62,-244.23 1313.24,-231 1340.29,-200.22 1317.93,-179.01 1333.24,-141 1350.16,-99 1350.07,-81.23 1386.24,-54 1396.12,-46.57 1407.47,-40.71 1419.26,-36.1"/>
<polygon fill="black" stroke="black" points="1420.57,-39.35 1428.79,-32.66 1418.19,-32.76 1420.57,-39.35"/>
<text text-anchor="middle" x="1359.74" y="-155.3" font-family="Times,serif" font-size="14.00">appearsIn</text>
</g>
<!-- http://purl.org/dj/kaggle/basic&#45;exploration&#45;of&#45;the&#45;ai&#45;report&#45;data#512164918&#45;&gt;http://purl.org/dj/kaggle/basic&#45;exploration&#45;of&#45;the&#45;ai&#45;report&#45;data#1148721419 -->
<g id="edge34" class="edge">
<title>http://purl.org/dj/kaggle/basic&#45;exploration&#45;of&#45;the&#45;ai&#45;report&#45;data#512164918&#45;&gt;http://purl.org/dj/kaggle/basic&#45;exploration&#45;of&#45;the&#45;ai&#45;report&#45;data#1148721419</title>
<path fill="none" stroke="black" d="M928.72,-302.92C924.34,-286.31 915.14,-261.77 897.24,-249 886.31,-241.2 867.07,-235.14 843.67,-230.43"/>
<polygon fill="black" stroke="black" points="844.25,-226.97 833.77,-228.55 842.95,-233.85 844.25,-226.97"/>
<text text-anchor="middle" x="968.74" y="-263.3" font-family="Times,serif" font-size="14.00">previousActivity</text>
</g>
<!-- http://purl.org/dj/python/lib/144966264&#45;&gt;http://purl.org/dj/kaggle/basic&#45;exploration&#45;of&#45;the&#45;ai&#45;report&#45;data -->
<g id="edge37" class="edge">
<title>http://purl.org/dj/python/lib/144966264&#45;&gt;http://purl.org/dj/kaggle/basic&#45;exploration&#45;of&#45;the&#45;ai&#45;report&#45;data</title>
<path fill="none" stroke="black" d="M2631.73,-88.33C2598.36,-76.53 2549.99,-61.2 2506.24,-54 2350.23,-28.33 1908.24,-21.48 1670.36,-19.65"/>
<polygon fill="black" stroke="black" points="1670.27,-16.15 1660.24,-19.58 1670.22,-23.15 1670.27,-16.15"/>
<text text-anchor="middle" x="2599.24" y="-57.8" font-family="Times,serif" font-size="14.00">importedBy</text>
</g>
<!-- http://purl.org/dj/kaggle/basic&#45;exploration&#45;of&#45;the&#45;ai&#45;report&#45;data#249824024 -->
<g id="node24" class="node">
<title>http://purl.org/dj/kaggle/basic&#45;exploration&#45;of&#45;the&#45;ai&#45;report&#45;data#249824024</title>
<ellipse fill="none" stroke="black" cx="1169.24" cy="-495" rx="136.48" ry="18"/>
<text text-anchor="middle" x="1169.24" y="-491.3" font-family="Times,serif" font-size="14.00">249824024 (print[2]: Visualisation)</text>
</g>
<!-- http://purl.org/dj/kaggle/basic&#45;exploration&#45;of&#45;the&#45;ai&#45;report&#45;data#249824024&#45;&gt;http://purl.org/dj/kaggle/basic&#45;exploration&#45;of&#45;the&#45;ai&#45;report&#45;data#427361219 -->
<g id="edge38" class="edge">
<title>http://purl.org/dj/kaggle/basic&#45;exploration&#45;of&#45;the&#45;ai&#45;report&#45;data#249824024&#45;&gt;http://purl.org/dj/kaggle/basic&#45;exploration&#45;of&#45;the&#45;ai&#45;report&#45;data#427361219</title>
<path fill="none" stroke="black" d="M1169.24,-476.8C1169.24,-465.16 1169.24,-449.55 1169.24,-436.24"/>
<polygon fill="black" stroke="black" points="1172.74,-436.18 1169.24,-426.18 1165.74,-436.18 1172.74,-436.18"/>
<text text-anchor="middle" x="1182.24" y="-447.8" font-family="Times,serif" font-size="14.00">print</text>
</g>
<!-- http://purl.org/dj/kaggle/basic&#45;exploration&#45;of&#45;the&#45;ai&#45;report&#45;data#467862447 -->
<g id="node25" class="node">
<title>http://purl.org/dj/kaggle/basic&#45;exploration&#45;of&#45;the&#45;ai&#45;report&#45;data#467862447</title>
<ellipse fill="none" stroke="black" cx="2342.24" cy="-582" rx="155.17" ry="18"/>
<text text-anchor="middle" x="2342.24" y="-578.3" font-family="Times,serif" font-size="14.00">467862447 (df_jobs(0)$2: Visualisation)</text>
</g>
<!-- http://purl.org/dj/kaggle/basic&#45;exploration&#45;of&#45;the&#45;ai&#45;report&#45;data#467862447&#45;&gt;http://purl.org/dj/kaggle/basic&#45;exploration&#45;of&#45;the&#45;ai&#45;report&#45;data#467796910 -->
<g id="edge39" class="edge">
<title>http://purl.org/dj/kaggle/basic&#45;exploration&#45;of&#45;the&#45;ai&#45;report&#45;data#467862447&#45;&gt;http://purl.org/dj/kaggle/basic&#45;exploration&#45;of&#45;the&#45;ai&#45;report&#45;data#467796910</title>
<path fill="none" stroke="black" d="M2342.24,-563.8C2342.24,-552.16 2342.24,-536.55 2342.24,-523.24"/>
<polygon fill="black" stroke="black" points="2345.74,-523.18 2342.24,-513.18 2338.74,-523.18 2345.74,-523.18"/>
<text text-anchor="middle" x="2353.24" y="-534.8" font-family="Times,serif" font-size="14.00">plot</text>
</g>
<!-- http://purl.org/dj/kaggle/basic&#45;exploration&#45;of&#45;the&#45;ai&#45;report&#45;data#128123297 -->
<g id="node26" class="node">
<title>http://purl.org/dj/kaggle/basic&#45;exploration&#45;of&#45;the&#45;ai&#45;report&#45;data#128123297</title>
<ellipse fill="none" stroke="black" cx="3032.24" cy="-495" rx="135.68" ry="18"/>
<text text-anchor="middle" x="3032.24" y="-491.3" font-family="Times,serif" font-size="14.00">128123297 (df(0)$1: Visualisation)</text>
</g>
<!-- http://purl.org/dj/kaggle/basic&#45;exploration&#45;of&#45;the&#45;ai&#45;report&#45;data#128123297&#45;&gt;http://purl.org/dj/kaggle/basic&#45;exploration&#45;of&#45;the&#45;ai&#45;report&#45;data#128057760 -->
<g id="edge40" class="edge">
<title>http://purl.org/dj/kaggle/basic&#45;exploration&#45;of&#45;the&#45;ai&#45;report&#45;data#128123297&#45;&gt;http://purl.org/dj/kaggle/basic&#45;exploration&#45;of&#45;the&#45;ai&#45;report&#45;data#128057760</title>
<path fill="none" stroke="black" d="M3032.24,-476.8C3032.24,-465.16 3032.24,-449.55 3032.24,-436.24"/>
<polygon fill="black" stroke="black" points="3035.74,-436.18 3032.24,-426.18 3028.74,-436.18 3035.74,-436.18"/>
<text text-anchor="middle" x="3068.24" y="-447.8" font-family="Times,serif" font-size="14.00">value_counts</text>
</g>
</g>
</svg>
