<?xml version="1.0" encoding="UTF-8" standalone="no"?>
<!DOCTYPE svg PUBLIC "-//W3C//DTD SVG 1.1//EN"
 "http://www.w3.org/Graphics/SVG/1.1/DTD/svg11.dtd">
<!-- Generated by graphviz version 2.44.1 (20200629.0846)
 -->
<!-- Pages: 1 -->
<svg width="919pt" height="392pt"
 viewBox="0.00 0.00 919.47 392.00" xmlns="http://www.w3.org/2000/svg" xmlns:xlink="http://www.w3.org/1999/xlink">
<g id="graph0" class="graph" transform="scale(1 1) rotate(0) translate(4 388)">
<polygon fill="white" stroke="transparent" points="-4,4 -4,-388 915.47,-388 915.47,4 -4,4"/>
<!-- http://purl.org/dj/python/lib/144966264 -->
<g id="node1" class="node">
<title>http://purl.org/dj/python/lib/144966264</title>
<ellipse fill="none" stroke="black" cx="109.19" cy="-105" rx="109.38" ry="18"/>
<text text-anchor="middle" x="109.19" y="-101.3" font-family="Times,serif" font-size="14.00">144966264 (pandas: Reuse)</text>
</g>
<!-- http://purl.org/dj/kaggle/basic&#45;data&#45;exploration -->
<g id="node2" class="node">
<title>http://purl.org/dj/kaggle/basic&#45;data&#45;exploration</title>
<ellipse fill="none" stroke="black" cx="254.19" cy="-18" rx="89.08" ry="18"/>
<text text-anchor="middle" x="254.19" y="-14.3" font-family="Times,serif" font-size="14.00">basic&#45;data&#45;exploration</text>
</g>
<!-- http://purl.org/dj/python/lib/144966264&#45;&gt;http://purl.org/dj/kaggle/basic&#45;data&#45;exploration -->
<g id="edge1" class="edge">
<title>http://purl.org/dj/python/lib/144966264&#45;&gt;http://purl.org/dj/kaggle/basic&#45;data&#45;exploration</title>
<path fill="none" stroke="black" d="M119.14,-87.04C126.27,-76.22 136.79,-62.65 149.19,-54 160.48,-46.13 173.67,-39.92 186.81,-35.07"/>
<polygon fill="black" stroke="black" points="188.04,-38.34 196.35,-31.76 185.75,-31.73 188.04,-38.34"/>
<text text-anchor="middle" x="194.69" y="-57.8" font-family="Times,serif" font-size="14.00">previousActivity</text>
</g>
<!-- http://purl.org/dj/kaggle/basic&#45;data&#45;exploration#1257178776 -->
<g id="node3" class="node">
<title>http://purl.org/dj/kaggle/basic&#45;data&#45;exploration#1257178776</title>
<ellipse fill="none" stroke="black" cx="403.19" cy="-279" rx="182.77" ry="18"/>
<text text-anchor="middle" x="403.19" y="-275.3" font-family="Times,serif" font-size="14.00">1257178776 (melbourne_data(0)$0: Movement)</text>
</g>
<!-- http://purl.org/dj/kaggle/basic&#45;data&#45;exploration#1257178776&#45;&gt;http://purl.org/dj/python/lib/144966264 -->
<g id="edge2" class="edge">
<title>http://purl.org/dj/kaggle/basic&#45;data&#45;exploration#1257178776&#45;&gt;http://purl.org/dj/python/lib/144966264</title>
<path fill="none" stroke="black" d="M258.34,-267.98C174.83,-258.85 81.31,-241.72 55.19,-210 34.97,-185.45 59.58,-152.1 81.81,-129.85"/>
<polygon fill="black" stroke="black" points="84.41,-132.22 89.19,-122.76 79.56,-127.17 84.41,-132.22"/>
<text text-anchor="middle" x="100.69" y="-188.3" font-family="Times,serif" font-size="14.00">previousActivity</text>
</g>
<!-- http://purl.org/dj/kaggle/basic&#45;data&#45;exploration#58004286 -->
<g id="node4" class="node">
<title>http://purl.org/dj/kaggle/basic&#45;data&#45;exploration#58004286</title>
<ellipse fill="none" stroke="black" cx="637.19" cy="-105" rx="274.05" ry="18"/>
<text text-anchor="middle" x="637.19" y="-101.3" font-family="Times,serif" font-size="14.00">58004286 (../input/melbourne&#45;housing&#45;snapshot/melb_data.csv(0): Reuse)</text>
</g>
<!-- http://purl.org/dj/kaggle/basic&#45;data&#45;exploration#1257178776&#45;&gt;http://purl.org/dj/kaggle/basic&#45;data&#45;exploration#58004286 -->
<g id="edge3" class="edge">
<title>http://purl.org/dj/kaggle/basic&#45;data&#45;exploration#1257178776&#45;&gt;http://purl.org/dj/kaggle/basic&#45;data&#45;exploration#58004286</title>
<path fill="none" stroke="black" d="M544.74,-267.54C626.35,-258.23 717.72,-241.07 743.19,-210 768.46,-179.18 724.55,-147.65 685.8,-127.51"/>
<polygon fill="black" stroke="black" points="687.12,-124.26 676.61,-122.9 683.98,-130.52 687.12,-124.26"/>
<text text-anchor="middle" x="795.69" y="-188.3" font-family="Times,serif" font-size="14.00">previousActivity</text>
</g>
<!-- http://purl.org/dj/kaggle/basic&#45;data&#45;exploration#80085334 -->
<g id="node5" class="node">
<title>http://purl.org/dj/kaggle/basic&#45;data&#45;exploration#80085334</title>
<ellipse fill="none" stroke="black" cx="254.19" cy="-192" rx="99.38" ry="18"/>
<text text-anchor="middle" x="254.19" y="-188.3" font-family="Times,serif" font-size="14.00">80085334 (pd(0): Reuse)</text>
</g>
<!-- http://purl.org/dj/kaggle/basic&#45;data&#45;exploration#1257178776&#45;&gt;http://purl.org/dj/kaggle/basic&#45;data&#45;exploration#80085334 -->
<g id="edge4" class="edge">
<title>http://purl.org/dj/kaggle/basic&#45;data&#45;exploration#1257178776&#45;&gt;http://purl.org/dj/kaggle/basic&#45;data&#45;exploration#80085334</title>
<path fill="none" stroke="black" d="M373.75,-261.21C350.26,-247.81 317.2,-228.94 291.79,-214.45"/>
<polygon fill="black" stroke="black" points="293.23,-211.24 282.81,-209.33 289.76,-217.32 293.23,-211.24"/>
<text text-anchor="middle" x="383.69" y="-231.8" font-family="Times,serif" font-size="14.00">previousActivity</text>
</g>
<!-- http://purl.org/dj/kaggle/basic&#45;data&#45;exploration#2019035306 -->
<g id="node6" class="node">
<title>http://purl.org/dj/kaggle/basic&#45;data&#45;exploration#2019035306</title>
<ellipse fill="none" stroke="black" cx="553.19" cy="-192" rx="181.17" ry="18"/>
<text text-anchor="middle" x="553.19" y="-188.3" font-family="Times,serif" font-size="14.00">2019035306 (melbourne_file_path(0)$0: Reuse)</text>
</g>
<!-- http://purl.org/dj/kaggle/basic&#45;data&#45;exploration#1257178776&#45;&gt;http://purl.org/dj/kaggle/basic&#45;data&#45;exploration#2019035306 -->
<g id="edge5" class="edge">
<title>http://purl.org/dj/kaggle/basic&#45;data&#45;exploration#1257178776&#45;&gt;http://purl.org/dj/kaggle/basic&#45;data&#45;exploration#2019035306</title>
<path fill="none" stroke="black" d="M432.83,-261.21C456.17,-247.98 488.91,-229.43 514.35,-215.01"/>
<polygon fill="black" stroke="black" points="516.39,-217.88 523.36,-209.9 512.93,-211.79 516.39,-217.88"/>
<text text-anchor="middle" x="511.69" y="-231.8" font-family="Times,serif" font-size="14.00">read_csv</text>
</g>
<!-- http://purl.org/dj/kaggle/basic&#45;data&#45;exploration#58004286&#45;&gt;http://purl.org/dj/kaggle/basic&#45;data&#45;exploration -->
<g id="edge6" class="edge">
<title>http://purl.org/dj/kaggle/basic&#45;data&#45;exploration#58004286&#45;&gt;http://purl.org/dj/kaggle/basic&#45;data&#45;exploration</title>
<path fill="none" stroke="black" d="M563.34,-87.61C493.56,-72.12 389.75,-49.09 322.02,-34.05"/>
<polygon fill="black" stroke="black" points="322.4,-30.55 311.88,-31.8 320.88,-37.39 322.4,-30.55"/>
<text text-anchor="middle" x="514.69" y="-57.8" font-family="Times,serif" font-size="14.00">previousActivity</text>
</g>
<!-- http://purl.org/dj/kaggle/basic&#45;data&#45;exploration#80085334&#45;&gt;http://purl.org/dj/python/lib/144966264 -->
<g id="edge7" class="edge">
<title>http://purl.org/dj/kaggle/basic&#45;data&#45;exploration#80085334&#45;&gt;http://purl.org/dj/python/lib/144966264</title>
<path fill="none" stroke="black" d="M205.81,-176.27C191.54,-170.92 176.26,-164.14 163.19,-156 151.84,-148.93 140.74,-139.28 131.59,-130.34"/>
<polygon fill="black" stroke="black" points="133.91,-127.72 124.39,-123.08 128.94,-132.65 133.91,-127.72"/>
<text text-anchor="middle" x="201.69" y="-144.8" font-family="Times,serif" font-size="14.00">assignedFrom</text>
</g>
<!-- http://purl.org/dj/kaggle/basic&#45;data&#45;exploration#80085334&#45;&gt;http://purl.org/dj/kaggle/basic&#45;data&#45;exploration -->
<g id="edge8" class="edge">
<title>http://purl.org/dj/kaggle/basic&#45;data&#45;exploration#80085334&#45;&gt;http://purl.org/dj/kaggle/basic&#45;data&#45;exploration</title>
<path fill="none" stroke="black" d="M254.19,-173.88C254.19,-144 254.19,-82.11 254.19,-46.27"/>
<polygon fill="black" stroke="black" points="257.69,-46.05 254.19,-36.05 250.69,-46.05 257.69,-46.05"/>
<text text-anchor="middle" x="299.69" y="-101.3" font-family="Times,serif" font-size="14.00">previousActivity</text>
</g>
<!-- http://purl.org/dj/kaggle/basic&#45;data&#45;exploration#2019035306&#45;&gt;http://purl.org/dj/kaggle/basic&#45;data&#45;exploration#58004286 -->
<g id="edge9" class="edge">
<title>http://purl.org/dj/kaggle/basic&#45;data&#45;exploration#2019035306&#45;&gt;http://purl.org/dj/kaggle/basic&#45;data&#45;exploration#58004286</title>
<path fill="none" stroke="black" d="M570.19,-173.8C582.49,-161.36 599.28,-144.36 612.97,-130.5"/>
<polygon fill="black" stroke="black" points="615.68,-132.75 620.22,-123.18 610.7,-127.83 615.68,-132.75"/>
<text text-anchor="middle" x="638.69" y="-144.8" font-family="Times,serif" font-size="14.00">assignedFrom</text>
</g>
<!-- http://purl.org/dj/kaggle/basic&#45;data&#45;exploration#1257244313 -->
<g id="node7" class="node">
<title>http://purl.org/dj/kaggle/basic&#45;data&#45;exploration#1257244313</title>
<ellipse fill="none" stroke="black" cx="403.19" cy="-366" rx="165.17" ry="18"/>
<text text-anchor="middle" x="403.19" y="-362.3" font-family="Times,serif" font-size="14.00">1257244313 (melbourne_data(0)$1: Reuse)</text>
</g>
<!-- http://purl.org/dj/kaggle/basic&#45;data&#45;exploration#1257244313&#45;&gt;http://purl.org/dj/kaggle/basic&#45;data&#45;exploration#1257178776 -->
<g id="edge10" class="edge">
<title>http://purl.org/dj/kaggle/basic&#45;data&#45;exploration#1257244313&#45;&gt;http://purl.org/dj/kaggle/basic&#45;data&#45;exploration#1257178776</title>
<path fill="none" stroke="black" d="M403.19,-347.8C403.19,-336.16 403.19,-320.55 403.19,-307.24"/>
<polygon fill="black" stroke="black" points="406.69,-307.18 403.19,-297.18 399.69,-307.18 406.69,-307.18"/>
<text text-anchor="middle" x="448.69" y="-318.8" font-family="Times,serif" font-size="14.00">previousActivity</text>
</g>
</g>
</svg>
