<?xml version="1.0" encoding="UTF-8" standalone="no"?>
<!DOCTYPE svg PUBLIC "-//W3C//DTD SVG 1.1//EN"
 "http://www.w3.org/Graphics/SVG/1.1/DTD/svg11.dtd">
<!-- Generated by graphviz version 2.47.1 (20210417.1919)
 -->
<!-- Pages: 1 -->
<svg width="1054pt" height="674pt"
 viewBox="0.00 0.00 1053.83 674.00" xmlns="http://www.w3.org/2000/svg" xmlns:xlink="http://www.w3.org/1999/xlink">
<g id="graph0" class="graph" transform="scale(1 1) rotate(0) translate(4 670)">
<polygon fill="white" stroke="transparent" points="-4,4 -4,-670 1049.83,-670 1049.83,4 -4,4"/>
<!-- http://purl.org/dj/kaggle/beginner&#45;s&#45;tutorial&#45;python/activity/&#45;6411863677726511739 -->
<g id="node1" class="node">
<title>http://purl.org/dj/kaggle/beginner&#45;s&#45;tutorial&#45;python/activity/&#45;6411863677726511739</title>
<ellipse fill="none" stroke="black" cx="794.83" cy="-648" rx="145.67" ry="18"/>
<text text-anchor="middle" x="794.83" y="-644.3" font-family="Times,serif" font-size="14.00">&#45;6411863677726511739 (Preparation)</text>
</g>
<!-- http://purl.org/dj/kaggle/beginner&#45;s&#45;tutorial&#45;python/activity/617849797122242779 -->
<g id="node2" class="node">
<title>http://purl.org/dj/kaggle/beginner&#45;s&#45;tutorial&#45;python/activity/617849797122242779</title>
<ellipse fill="none" stroke="black" cx="839.83" cy="-507" rx="144.07" ry="18"/>
<text text-anchor="middle" x="839.83" y="-503.3" font-family="Times,serif" font-size="14.00">617849797122242779 (Visualisation)</text>
</g>
<!-- http://purl.org/dj/kaggle/beginner&#45;s&#45;tutorial&#45;python/activity/&#45;6411863677726511739&#45;&gt;http://purl.org/dj/kaggle/beginner&#45;s&#45;tutorial&#45;python/activity/617849797122242779 -->
<g id="edge1" class="edge">
<title>http://purl.org/dj/kaggle/beginner&#45;s&#45;tutorial&#45;python/activity/&#45;6411863677726511739&#45;&gt;http://purl.org/dj/kaggle/beginner&#45;s&#45;tutorial&#45;python/activity/617849797122242779</title>
<path fill="none" stroke="black" d="M801.96,-629.85C807.49,-616.2 815.14,-596.55 820.83,-579 825.49,-564.63 829.9,-548.37 833.3,-535.04"/>
<polygon fill="black" stroke="black" points="836.76,-535.62 835.79,-525.07 829.97,-533.92 836.76,-535.62"/>
<text text-anchor="middle" x="838.33" y="-600.8" font-family="Times,serif" font-size="14.00">previous</text>
</g>
<!-- http://purl.org/dj/kaggle/beginner&#45;s&#45;tutorial&#45;python/activity/&#45;879255396822276537 -->
<g id="node3" class="node">
<title>http://purl.org/dj/kaggle/beginner&#45;s&#45;tutorial&#45;python/activity/&#45;879255396822276537</title>
<ellipse fill="none" stroke="black" cx="356.83" cy="-279" rx="147.57" ry="18"/>
<text text-anchor="middle" x="356.83" y="-275.3" font-family="Times,serif" font-size="14.00">&#45;879255396822276537 (Visualisation)</text>
</g>
<!-- http://purl.org/dj/kaggle/beginner&#45;s&#45;tutorial&#45;python/activity/&#45;6411863677726511739&#45;&gt;http://purl.org/dj/kaggle/beginner&#45;s&#45;tutorial&#45;python/activity/&#45;879255396822276537 -->
<g id="edge2" class="edge">
<title>http://purl.org/dj/kaggle/beginner&#45;s&#45;tutorial&#45;python/activity/&#45;6411863677726511739&#45;&gt;http://purl.org/dj/kaggle/beginner&#45;s&#45;tutorial&#45;python/activity/&#45;879255396822276537</title>
<path fill="none" stroke="black" d="M678.05,-637.24C538.85,-624 324.83,-597.81 324.83,-562 324.83,-562 324.83,-562 324.83,-365 324.83,-344.31 333.24,-322.49 341.44,-306.14"/>
<polygon fill="black" stroke="black" points="344.59,-307.67 346.17,-297.2 338.4,-304.4 344.59,-307.67"/>
<text text-anchor="middle" x="348.33" y="-449.3" font-family="Times,serif" font-size="14.00">previous</text>
</g>
<!-- http://purl.org/dj/kaggle/beginner&#45;s&#45;tutorial&#45;python/activity/&#45;5018041284846149384 -->
<g id="node4" class="node">
<title>http://purl.org/dj/kaggle/beginner&#45;s&#45;tutorial&#45;python/activity/&#45;5018041284846149384</title>
<ellipse fill="none" stroke="black" cx="660.83" cy="-561" rx="151.37" ry="18"/>
<text text-anchor="middle" x="660.83" y="-557.3" font-family="Times,serif" font-size="14.00">&#45;5018041284846149384 (Visualisation)</text>
</g>
<!-- http://purl.org/dj/kaggle/beginner&#45;s&#45;tutorial&#45;python/activity/&#45;6411863677726511739&#45;&gt;http://purl.org/dj/kaggle/beginner&#45;s&#45;tutorial&#45;python/activity/&#45;5018041284846149384 -->
<g id="edge3" class="edge">
<title>http://purl.org/dj/kaggle/beginner&#45;s&#45;tutorial&#45;python/activity/&#45;6411863677726511739&#45;&gt;http://purl.org/dj/kaggle/beginner&#45;s&#45;tutorial&#45;python/activity/&#45;5018041284846149384</title>
<path fill="none" stroke="black" d="M768.36,-630.21C747.62,-617.05 718.58,-598.63 695.91,-584.25"/>
<polygon fill="black" stroke="black" points="697.57,-581.16 687.25,-578.76 693.82,-587.07 697.57,-581.16"/>
<text text-anchor="middle" x="760.33" y="-600.8" font-family="Times,serif" font-size="14.00">previous</text>
</g>
<!-- http://purl.org/dj/kaggle/beginner&#45;s&#45;tutorial&#45;python/activity/&#45;1358425044901421730 -->
<g id="node5" class="node">
<title>http://purl.org/dj/kaggle/beginner&#45;s&#45;tutorial&#45;python/activity/&#45;1358425044901421730</title>
<ellipse fill="none" stroke="black" cx="641.83" cy="-105" rx="126.98" ry="18"/>
<text text-anchor="middle" x="641.83" y="-101.3" font-family="Times,serif" font-size="14.00">&#45;1358425044901421730 (Reuse)</text>
</g>
<!-- http://purl.org/dj/kaggle/beginner&#45;s&#45;tutorial&#45;python/activity/&#45;6411863677726511739&#45;&gt;http://purl.org/dj/kaggle/beginner&#45;s&#45;tutorial&#45;python/activity/&#45;1358425044901421730 -->
<g id="edge4" class="edge">
<title>http://purl.org/dj/kaggle/beginner&#45;s&#45;tutorial&#45;python/activity/&#45;6411863677726511739&#45;&gt;http://purl.org/dj/kaggle/beginner&#45;s&#45;tutorial&#45;python/activity/&#45;1358425044901421730</title>
<path fill="none" stroke="black" d="M914.38,-637.72C958.91,-627.09 998.83,-605.45 998.83,-562 998.83,-562 998.83,-562 998.83,-191 998.83,-142.44 872.27,-121.58 769.86,-112.64"/>
<polygon fill="black" stroke="black" points="769.97,-109.14 759.71,-111.78 769.39,-116.11 769.97,-109.14"/>
<text text-anchor="middle" x="1022.33" y="-362.3" font-family="Times,serif" font-size="14.00">previous</text>
</g>
<!-- http://purl.org/dj/kaggle/beginner&#45;s&#45;tutorial&#45;python/activity/617849797122242779&#45;&gt;http://purl.org/dj/kaggle/beginner&#45;s&#45;tutorial&#45;python/activity/&#45;1358425044901421730 -->
<g id="edge5" class="edge">
<title>http://purl.org/dj/kaggle/beginner&#45;s&#45;tutorial&#45;python/activity/617849797122242779&#45;&gt;http://purl.org/dj/kaggle/beginner&#45;s&#45;tutorial&#45;python/activity/&#45;1358425044901421730</title>
<path fill="none" stroke="black" d="M833.35,-488.67C826.86,-469.75 817.83,-438.4 817.83,-410.5 817.83,-410.5 817.83,-410.5 817.83,-191 817.83,-152.6 783.44,-131.54 745.06,-119.99"/>
<polygon fill="black" stroke="black" points="745.81,-116.57 735.24,-117.26 743.94,-123.31 745.81,-116.57"/>
<text text-anchor="middle" x="841.33" y="-318.8" font-family="Times,serif" font-size="14.00">previous</text>
</g>
<!-- http://purl.org/dj/kaggle/beginner&#45;s&#45;tutorial&#45;python/activity/&#45;879255396822276537&#45;&gt;http://purl.org/dj/kaggle/beginner&#45;s&#45;tutorial&#45;python/activity/&#45;1358425044901421730 -->
<g id="edge6" class="edge">
<title>http://purl.org/dj/kaggle/beginner&#45;s&#45;tutorial&#45;python/activity/&#45;879255396822276537&#45;&gt;http://purl.org/dj/kaggle/beginner&#45;s&#45;tutorial&#45;python/activity/&#45;1358425044901421730</title>
<path fill="none" stroke="black" d="M418.56,-262.62C455.66,-251.6 502.71,-234.36 539.83,-210 557.53,-198.38 595.73,-157.46 620.02,-130.54"/>
<polygon fill="black" stroke="black" points="622.7,-132.8 626.78,-123.02 617.49,-128.12 622.7,-132.8"/>
<text text-anchor="middle" x="602.33" y="-188.3" font-family="Times,serif" font-size="14.00">previous</text>
</g>
<!-- http://purl.org/dj/kaggle/beginner&#45;s&#45;tutorial&#45;python/activity/&#45;6494738636142344830 -->
<g id="node6" class="node">
<title>http://purl.org/dj/kaggle/beginner&#45;s&#45;tutorial&#45;python/activity/&#45;6494738636142344830</title>
<ellipse fill="none" stroke="black" cx="384.83" cy="-192" rx="145.67" ry="18"/>
<text text-anchor="middle" x="384.83" y="-188.3" font-family="Times,serif" font-size="14.00">&#45;6494738636142344830 (Preparation)</text>
</g>
<!-- http://purl.org/dj/kaggle/beginner&#45;s&#45;tutorial&#45;python/activity/&#45;879255396822276537&#45;&gt;http://purl.org/dj/kaggle/beginner&#45;s&#45;tutorial&#45;python/activity/&#45;6494738636142344830 -->
<g id="edge7" class="edge">
<title>http://purl.org/dj/kaggle/beginner&#45;s&#45;tutorial&#45;python/activity/&#45;879255396822276537&#45;&gt;http://purl.org/dj/kaggle/beginner&#45;s&#45;tutorial&#45;python/activity/&#45;6494738636142344830</title>
<path fill="none" stroke="black" d="M351.8,-260.79C349.8,-250.89 348.8,-238.39 352.83,-228 354.19,-224.49 356.09,-221.12 358.28,-217.95"/>
<polygon fill="black" stroke="black" points="361.08,-220.06 364.63,-210.07 355.63,-215.67 361.08,-220.06"/>
<text text-anchor="middle" x="376.33" y="-231.8" font-family="Times,serif" font-size="14.00">previous</text>
</g>
<!-- http://purl.org/dj/kaggle/beginner&#45;s&#45;tutorial&#45;python -->
<g id="node7" class="node">
<title>http://purl.org/dj/kaggle/beginner&#45;s&#45;tutorial&#45;python</title>
<ellipse fill="none" stroke="black" cx="226.83" cy="-18" rx="226.66" ry="18"/>
<text text-anchor="middle" x="226.83" y="-14.3" font-family="Times,serif" font-size="14.00">beginner&#45;s&#45;tutorial&#45;python (beginner&#45;s&#45;tutorial&#45;python.ipynb)</text>
</g>
<!-- http://purl.org/dj/kaggle/beginner&#45;s&#45;tutorial&#45;python/activity/&#45;879255396822276537&#45;&gt;http://purl.org/dj/kaggle/beginner&#45;s&#45;tutorial&#45;python -->
<g id="edge8" class="edge">
<title>http://purl.org/dj/kaggle/beginner&#45;s&#45;tutorial&#45;python/activity/&#45;879255396822276537&#45;&gt;http://purl.org/dj/kaggle/beginner&#45;s&#45;tutorial&#45;python</title>
<path fill="none" stroke="black" d="M299.95,-262.25C273.85,-251.89 245.32,-235.41 229.83,-210 198.76,-159.03 209.9,-85.31 219.25,-46.03"/>
<polygon fill="black" stroke="black" points="222.69,-46.69 221.74,-36.14 215.91,-44.98 222.69,-46.69"/>
<text text-anchor="middle" x="235.33" y="-144.8" font-family="Times,serif" font-size="14.00">previous</text>
</g>
<!-- http://purl.org/dj/kaggle/beginner&#45;s&#45;tutorial&#45;python/activity/&#45;5018041284846149384&#45;&gt;http://purl.org/dj/kaggle/beginner&#45;s&#45;tutorial&#45;python/activity/&#45;1358425044901421730 -->
<g id="edge9" class="edge">
<title>http://purl.org/dj/kaggle/beginner&#45;s&#45;tutorial&#45;python/activity/&#45;5018041284846149384&#45;&gt;http://purl.org/dj/kaggle/beginner&#45;s&#45;tutorial&#45;python/activity/&#45;1358425044901421730</title>
<path fill="none" stroke="black" d="M669.12,-542.97C681.62,-515.68 703.83,-460.19 703.83,-410.5 703.83,-410.5 703.83,-410.5 703.83,-191 703.83,-167.14 687.69,-145.5 671.88,-130.02"/>
<polygon fill="black" stroke="black" points="673.93,-127.16 664.21,-122.94 669.18,-132.3 673.93,-127.16"/>
<text text-anchor="middle" x="727.33" y="-318.8" font-family="Times,serif" font-size="14.00">previous</text>
</g>
<!-- http://purl.org/dj/kaggle/beginner&#45;s&#45;tutorial&#45;python/activity/1880820223416152401 -->
<g id="node8" class="node">
<title>http://purl.org/dj/kaggle/beginner&#45;s&#45;tutorial&#45;python/activity/1880820223416152401</title>
<ellipse fill="none" stroke="black" cx="532.83" cy="-453" rx="142.97" ry="18"/>
<text text-anchor="middle" x="532.83" y="-449.3" font-family="Times,serif" font-size="14.00">1880820223416152401 (Preparation)</text>
</g>
<!-- http://purl.org/dj/kaggle/beginner&#45;s&#45;tutorial&#45;python/activity/&#45;5018041284846149384&#45;&gt;http://purl.org/dj/kaggle/beginner&#45;s&#45;tutorial&#45;python/activity/1880820223416152401 -->
<g id="edge10" class="edge">
<title>http://purl.org/dj/kaggle/beginner&#45;s&#45;tutorial&#45;python/activity/&#45;5018041284846149384&#45;&gt;http://purl.org/dj/kaggle/beginner&#45;s&#45;tutorial&#45;python/activity/1880820223416152401</title>
<path fill="none" stroke="black" d="M640.26,-542.97C618.8,-525.2 585.01,-497.21 561.06,-477.38"/>
<polygon fill="black" stroke="black" points="563.28,-474.67 553.34,-470.99 558.81,-480.06 563.28,-474.67"/>
<text text-anchor="middle" x="639.33" y="-503.3" font-family="Times,serif" font-size="14.00">previous</text>
</g>
<!-- http://purl.org/dj/kaggle/beginner&#45;s&#45;tutorial&#45;python/activity/&#45;1358425044901421730&#45;&gt;http://purl.org/dj/kaggle/beginner&#45;s&#45;tutorial&#45;python -->
<g id="edge11" class="edge">
<title>http://purl.org/dj/kaggle/beginner&#45;s&#45;tutorial&#45;python/activity/&#45;1358425044901421730&#45;&gt;http://purl.org/dj/kaggle/beginner&#45;s&#45;tutorial&#45;python</title>
<path fill="none" stroke="black" d="M572.84,-89.87C502.14,-75.39 391.97,-52.82 314.99,-37.06"/>
<polygon fill="black" stroke="black" points="315.33,-33.55 304.83,-34.98 313.93,-40.41 315.33,-33.55"/>
<text text-anchor="middle" x="483.33" y="-57.8" font-family="Times,serif" font-size="14.00">previous</text>
</g>
<!-- http://purl.org/dj/kaggle/beginner&#45;s&#45;tutorial&#45;python/activity/&#45;6494738636142344830&#45;&gt;http://purl.org/dj/kaggle/beginner&#45;s&#45;tutorial&#45;python/activity/&#45;879255396822276537 -->
<g id="edge12" class="edge">
<title>http://purl.org/dj/kaggle/beginner&#45;s&#45;tutorial&#45;python/activity/&#45;6494738636142344830&#45;&gt;http://purl.org/dj/kaggle/beginner&#45;s&#45;tutorial&#45;python/activity/&#45;879255396822276537</title>
<path fill="none" stroke="black" d="M396.07,-210.14C401.06,-220.02 404.81,-232.52 399.83,-243 397.97,-246.91 395.44,-250.53 392.52,-253.84"/>
<polygon fill="black" stroke="black" points="389.9,-251.5 385.17,-260.98 394.78,-256.52 389.9,-251.5"/>
<text text-anchor="middle" x="426.33" y="-231.8" font-family="Times,serif" font-size="14.00">previous</text>
</g>
<!-- http://purl.org/dj/kaggle/beginner&#45;s&#45;tutorial&#45;python/activity/&#45;6494738636142344830&#45;&gt;http://purl.org/dj/kaggle/beginner&#45;s&#45;tutorial&#45;python/activity/&#45;1358425044901421730 -->
<g id="edge13" class="edge">
<title>http://purl.org/dj/kaggle/beginner&#45;s&#45;tutorial&#45;python/activity/&#45;6494738636142344830&#45;&gt;http://purl.org/dj/kaggle/beginner&#45;s&#45;tutorial&#45;python/activity/&#45;1358425044901421730</title>
<path fill="none" stroke="black" d="M420.86,-174.55C444.66,-164.08 476.72,-150.71 505.83,-141 525.71,-134.37 547.56,-128.25 567.83,-123.04"/>
<polygon fill="black" stroke="black" points="568.8,-126.41 577.64,-120.56 567.09,-119.62 568.8,-126.41"/>
<text text-anchor="middle" x="529.33" y="-144.8" font-family="Times,serif" font-size="14.00">previous</text>
</g>
<!-- http://purl.org/dj/kaggle/beginner&#45;s&#45;tutorial&#45;python/activity/2553275153192611181 -->
<g id="node9" class="node">
<title>http://purl.org/dj/kaggle/beginner&#45;s&#45;tutorial&#45;python/activity/2553275153192611181</title>
<ellipse fill="none" stroke="black" cx="532.83" cy="-366" rx="141.88" ry="18"/>
<text text-anchor="middle" x="532.83" y="-362.3" font-family="Times,serif" font-size="14.00">2553275153192611181 (Movement)</text>
</g>
<!-- http://purl.org/dj/kaggle/beginner&#45;s&#45;tutorial&#45;python/activity/1880820223416152401&#45;&gt;http://purl.org/dj/kaggle/beginner&#45;s&#45;tutorial&#45;python/activity/2553275153192611181 -->
<g id="edge14" class="edge">
<title>http://purl.org/dj/kaggle/beginner&#45;s&#45;tutorial&#45;python/activity/1880820223416152401&#45;&gt;http://purl.org/dj/kaggle/beginner&#45;s&#45;tutorial&#45;python/activity/2553275153192611181</title>
<path fill="none" stroke="black" d="M532.83,-434.8C532.83,-423.16 532.83,-407.55 532.83,-394.24"/>
<polygon fill="black" stroke="black" points="536.33,-394.18 532.83,-384.18 529.33,-394.18 536.33,-394.18"/>
<text text-anchor="middle" x="556.33" y="-405.8" font-family="Times,serif" font-size="14.00">previous</text>
</g>
<!-- http://purl.org/dj/kaggle/beginner&#45;s&#45;tutorial&#45;python/activity/2553275153192611181&#45;&gt;http://purl.org/dj/kaggle/beginner&#45;s&#45;tutorial&#45;python/activity/&#45;879255396822276537 -->
<g id="edge15" class="edge">
<title>http://purl.org/dj/kaggle/beginner&#45;s&#45;tutorial&#45;python/activity/2553275153192611181&#45;&gt;http://purl.org/dj/kaggle/beginner&#45;s&#45;tutorial&#45;python/activity/&#45;879255396822276537</title>
<path fill="none" stroke="black" d="M498.48,-348.41C470.37,-334.84 430.46,-315.56 400.17,-300.93"/>
<polygon fill="black" stroke="black" points="401.62,-297.75 391.1,-296.55 398.58,-304.05 401.62,-297.75"/>
<text text-anchor="middle" x="479.33" y="-318.8" font-family="Times,serif" font-size="14.00">previous</text>
</g>
<!-- http://purl.org/dj/kaggle/beginner&#45;s&#45;tutorial&#45;python/activity/2553275153192611181&#45;&gt;http://purl.org/dj/kaggle/beginner&#45;s&#45;tutorial&#45;python/activity/&#45;1358425044901421730 -->
<g id="edge16" class="edge">
<title>http://purl.org/dj/kaggle/beginner&#45;s&#45;tutorial&#45;python/activity/2553275153192611181&#45;&gt;http://purl.org/dj/kaggle/beginner&#45;s&#45;tutorial&#45;python/activity/&#45;1358425044901421730</title>
<path fill="none" stroke="black" d="M546.88,-347.65C568.24,-320.24 608.47,-264.42 627.83,-210 636.76,-184.89 640.06,-154.52 641.24,-133.1"/>
<polygon fill="black" stroke="black" points="644.74,-133.22 641.68,-123.08 637.75,-132.91 644.74,-133.22"/>
<text text-anchor="middle" x="644.33" y="-231.8" font-family="Times,serif" font-size="14.00">previous</text>
</g>
</g>
</svg>
