<?xml version="1.0" encoding="UTF-8" standalone="no"?>
<!DOCTYPE svg PUBLIC "-//W3C//DTD SVG 1.1//EN"
 "http://www.w3.org/Graphics/SVG/1.1/DTD/svg11.dtd">
<!-- Generated by graphviz version 2.47.1 (20210417.1919)
 -->
<!-- Pages: 1 -->
<svg width="882pt" height="587pt"
 viewBox="0.00 0.00 882.00 587.00" xmlns="http://www.w3.org/2000/svg" xmlns:xlink="http://www.w3.org/1999/xlink">
<g id="graph0" class="graph" transform="scale(1 1) rotate(0) translate(4 583)">
<polygon fill="white" stroke="transparent" points="-4,4 -4,-583 878,-583 878,4 -4,4"/>
<!-- http://purl.org/dj/kaggle/benchmark/activity/2064759205928580349 -->
<g id="node1" class="node">
<title>http://purl.org/dj/kaggle/benchmark/activity/2064759205928580349</title>
<ellipse fill="none" stroke="black" cx="146" cy="-474" rx="142.97" ry="18"/>
<text text-anchor="middle" x="146" y="-470.3" font-family="Times,serif" font-size="14.00">2064759205928580349 (Preparation)</text>
</g>
<!-- http://purl.org/dj/kaggle/benchmark/activity/6164368568402935338 -->
<g id="node2" class="node">
<title>http://purl.org/dj/kaggle/benchmark/activity/6164368568402935338</title>
<ellipse fill="none" stroke="black" cx="314" cy="-387" rx="148.67" ry="18"/>
<text text-anchor="middle" x="314" y="-383.3" font-family="Times,serif" font-size="14.00">6164368568402935338 (Visualisation)</text>
</g>
<!-- http://purl.org/dj/kaggle/benchmark/activity/2064759205928580349&#45;&gt;http://purl.org/dj/kaggle/benchmark/activity/6164368568402935338 -->
<g id="edge1" class="edge">
<title>http://purl.org/dj/kaggle/benchmark/activity/2064759205928580349&#45;&gt;http://purl.org/dj/kaggle/benchmark/activity/6164368568402935338</title>
<path fill="none" stroke="black" d="M178.79,-456.41C205.42,-442.94 243.14,-423.85 271.98,-409.26"/>
<polygon fill="black" stroke="black" points="273.66,-412.33 281.01,-404.69 270.5,-406.09 273.66,-412.33"/>
<text text-anchor="middle" x="264.5" y="-426.8" font-family="Times,serif" font-size="14.00">previous</text>
</g>
<!-- http://purl.org/dj/kaggle/benchmark/activity/&#45;5655584377253858765 -->
<g id="node3" class="node">
<title>http://purl.org/dj/kaggle/benchmark/activity/&#45;5655584377253858765</title>
<ellipse fill="none" stroke="black" cx="406" cy="-105" rx="126.98" ry="18"/>
<text text-anchor="middle" x="406" y="-101.3" font-family="Times,serif" font-size="14.00">&#45;5655584377253858765 (Reuse)</text>
</g>
<!-- http://purl.org/dj/kaggle/benchmark/activity/2064759205928580349&#45;&gt;http://purl.org/dj/kaggle/benchmark/activity/&#45;5655584377253858765 -->
<g id="edge2" class="edge">
<title>http://purl.org/dj/kaggle/benchmark/activity/2064759205928580349&#45;&gt;http://purl.org/dj/kaggle/benchmark/activity/&#45;5655584377253858765</title>
<path fill="none" stroke="black" d="M72.57,-458.52C36.22,-446.63 0,-425.4 0,-388 0,-388 0,-388 0,-191 0,-160.38 179.23,-132.92 299.53,-117.95"/>
<polygon fill="black" stroke="black" points="300.03,-121.41 309.53,-116.71 299.17,-114.46 300.03,-121.41"/>
<text text-anchor="middle" x="23.5" y="-275.3" font-family="Times,serif" font-size="14.00">previous</text>
</g>
<!-- http://purl.org/dj/kaggle/benchmark/activity/2027707111029398744 -->
<g id="node4" class="node">
<title>http://purl.org/dj/kaggle/benchmark/activity/2027707111029398744</title>
<ellipse fill="none" stroke="black" cx="233" cy="-279" rx="141.88" ry="18"/>
<text text-anchor="middle" x="233" y="-275.3" font-family="Times,serif" font-size="14.00">2027707111029398744 (Movement)</text>
</g>
<!-- http://purl.org/dj/kaggle/benchmark/activity/2064759205928580349&#45;&gt;http://purl.org/dj/kaggle/benchmark/activity/2027707111029398744 -->
<g id="edge3" class="edge">
<title>http://purl.org/dj/kaggle/benchmark/activity/2064759205928580349&#45;&gt;http://purl.org/dj/kaggle/benchmark/activity/2027707111029398744</title>
<path fill="none" stroke="black" d="M131.52,-455.86C115.57,-434.76 94.04,-398.16 109,-369 124.76,-338.29 156.59,-315.79 184.06,-301.09"/>
<polygon fill="black" stroke="black" points="185.88,-304.09 193.17,-296.41 182.68,-297.86 185.88,-304.09"/>
<text text-anchor="middle" x="132.5" y="-383.3" font-family="Times,serif" font-size="14.00">previous</text>
</g>
<!-- http://purl.org/dj/kaggle/benchmark/activity/6164368568402935338&#45;&gt;http://purl.org/dj/kaggle/benchmark/activity/&#45;5655584377253858765 -->
<g id="edge4" class="edge">
<title>http://purl.org/dj/kaggle/benchmark/activity/6164368568402935338&#45;&gt;http://purl.org/dj/kaggle/benchmark/activity/&#45;5655584377253858765</title>
<path fill="none" stroke="black" d="M329.79,-369C345.14,-351.83 368.35,-324.05 384,-297 404.87,-260.92 411.08,-250.92 419,-210 424.03,-184.02 419.15,-153.99 414,-132.9"/>
<polygon fill="black" stroke="black" points="417.33,-131.83 411.41,-123.04 410.56,-133.6 417.33,-131.83"/>
<text text-anchor="middle" x="438.5" y="-231.8" font-family="Times,serif" font-size="14.00">previous</text>
</g>
<!-- http://purl.org/dj/kaggle/benchmark/activity/6164368568402935338&#45;&gt;http://purl.org/dj/kaggle/benchmark/activity/2027707111029398744 -->
<g id="edge5" class="edge">
<title>http://purl.org/dj/kaggle/benchmark/activity/6164368568402935338&#45;&gt;http://purl.org/dj/kaggle/benchmark/activity/2027707111029398744</title>
<path fill="none" stroke="black" d="M300.99,-368.97C287.76,-351.66 267.13,-324.66 252.06,-304.94"/>
<polygon fill="black" stroke="black" points="254.83,-302.81 245.98,-296.99 249.27,-307.06 254.83,-302.81"/>
<text text-anchor="middle" x="309.5" y="-329.3" font-family="Times,serif" font-size="14.00">previous</text>
</g>
<!-- http://purl.org/dj/kaggle/benchmark -->
<g id="node5" class="node">
<title>http://purl.org/dj/kaggle/benchmark</title>
<ellipse fill="none" stroke="black" cx="212" cy="-18" rx="120.48" ry="18"/>
<text text-anchor="middle" x="212" y="-14.3" font-family="Times,serif" font-size="14.00">benchmark (benchmark.ipynb)</text>
</g>
<!-- http://purl.org/dj/kaggle/benchmark/activity/&#45;5655584377253858765&#45;&gt;http://purl.org/dj/kaggle/benchmark -->
<g id="edge6" class="edge">
<title>http://purl.org/dj/kaggle/benchmark/activity/&#45;5655584377253858765&#45;&gt;http://purl.org/dj/kaggle/benchmark</title>
<path fill="none" stroke="black" d="M368.59,-87.61C337.09,-73.81 291.9,-54.01 258.15,-39.22"/>
<polygon fill="black" stroke="black" points="259.52,-36 248.96,-35.19 256.72,-42.41 259.52,-36"/>
<text text-anchor="middle" x="344.5" y="-57.8" font-family="Times,serif" font-size="14.00">previous</text>
</g>
<!-- http://purl.org/dj/kaggle/benchmark/activity/2027707111029398744&#45;&gt;http://purl.org/dj/kaggle/benchmark/activity/&#45;5655584377253858765 -->
<g id="edge7" class="edge">
<title>http://purl.org/dj/kaggle/benchmark/activity/2027707111029398744&#45;&gt;http://purl.org/dj/kaggle/benchmark/activity/&#45;5655584377253858765</title>
<path fill="none" stroke="black" d="M266.68,-261.3C288.93,-249.15 317.8,-231.16 339,-210 362.14,-186.9 381.46,-154.49 393.31,-132.02"/>
<polygon fill="black" stroke="black" points="396.46,-133.54 397.92,-123.05 390.24,-130.34 396.46,-133.54"/>
<text text-anchor="middle" x="391.5" y="-188.3" font-family="Times,serif" font-size="14.00">previous</text>
</g>
<!-- http://purl.org/dj/kaggle/benchmark/activity/&#45;3720158713804251845 -->
<g id="node6" class="node">
<title>http://purl.org/dj/kaggle/benchmark/activity/&#45;3720158713804251845</title>
<ellipse fill="none" stroke="black" cx="179" cy="-192" rx="151.37" ry="18"/>
<text text-anchor="middle" x="179" y="-188.3" font-family="Times,serif" font-size="14.00">&#45;3720158713804251845 (Visualisation)</text>
</g>
<!-- http://purl.org/dj/kaggle/benchmark/activity/2027707111029398744&#45;&gt;http://purl.org/dj/kaggle/benchmark/activity/&#45;3720158713804251845 -->
<g id="edge8" class="edge">
<title>http://purl.org/dj/kaggle/benchmark/activity/2027707111029398744&#45;&gt;http://purl.org/dj/kaggle/benchmark/activity/&#45;3720158713804251845</title>
<path fill="none" stroke="black" d="M222.07,-260.8C214.39,-248.7 203.97,-232.3 195.31,-218.67"/>
<polygon fill="black" stroke="black" points="198.23,-216.74 189.91,-210.18 192.32,-220.49 198.23,-216.74"/>
<text text-anchor="middle" x="233.5" y="-231.8" font-family="Times,serif" font-size="14.00">previous</text>
</g>
<!-- http://purl.org/dj/kaggle/benchmark/activity/&#45;3720158713804251845&#45;&gt;http://purl.org/dj/kaggle/benchmark/activity/&#45;5655584377253858765 -->
<g id="edge15" class="edge">
<title>http://purl.org/dj/kaggle/benchmark/activity/&#45;3720158713804251845&#45;&gt;http://purl.org/dj/kaggle/benchmark/activity/&#45;5655584377253858765</title>
<path fill="none" stroke="black" d="M219.11,-174.56C243.78,-164.58 276.1,-151.74 305,-141 319.28,-135.7 334.78,-130.2 349.25,-125.17"/>
<polygon fill="black" stroke="black" points="350.77,-128.35 359.08,-121.78 348.49,-121.73 350.77,-128.35"/>
<text text-anchor="middle" x="328.5" y="-144.8" font-family="Times,serif" font-size="14.00">previous</text>
</g>
<!-- http://purl.org/dj/kaggle/benchmark/activity/&#45;3720158713804251845&#45;&gt;http://purl.org/dj/kaggle/benchmark -->
<g id="edge16" class="edge">
<title>http://purl.org/dj/kaggle/benchmark/activity/&#45;3720158713804251845&#45;&gt;http://purl.org/dj/kaggle/benchmark</title>
<path fill="none" stroke="black" d="M182.28,-173.88C188.02,-144 199.89,-82.11 206.77,-46.27"/>
<polygon fill="black" stroke="black" points="210.28,-46.53 208.73,-36.05 203.41,-45.21 210.28,-46.53"/>
<text text-anchor="middle" x="222.5" y="-101.3" font-family="Times,serif" font-size="14.00">previous</text>
</g>
<!-- http://purl.org/dj/kaggle/benchmark/activity/6674064153757612209 -->
<g id="node7" class="node">
<title>http://purl.org/dj/kaggle/benchmark/activity/6674064153757612209</title>
<ellipse fill="none" stroke="black" cx="491" cy="-561" rx="148.67" ry="18"/>
<text text-anchor="middle" x="491" y="-557.3" font-family="Times,serif" font-size="14.00">6674064153757612209 (Visualisation)</text>
</g>
<!-- http://purl.org/dj/kaggle/benchmark/activity/6674064153757612209&#45;&gt;http://purl.org/dj/kaggle/benchmark/activity/2064759205928580349 -->
<g id="edge9" class="edge">
<title>http://purl.org/dj/kaggle/benchmark/activity/6674064153757612209&#45;&gt;http://purl.org/dj/kaggle/benchmark/activity/2064759205928580349</title>
<path fill="none" stroke="black" d="M428.52,-544.61C369.17,-529.98 280,-508.01 217.76,-492.68"/>
<polygon fill="black" stroke="black" points="218.56,-489.27 208.01,-490.28 216.88,-496.07 218.56,-489.27"/>
<text text-anchor="middle" x="363.5" y="-513.8" font-family="Times,serif" font-size="14.00">previous</text>
</g>
<!-- http://purl.org/dj/kaggle/benchmark/activity/6674064153757612209&#45;&gt;http://purl.org/dj/kaggle/benchmark/activity/&#45;5655584377253858765 -->
<g id="edge10" class="edge">
<title>http://purl.org/dj/kaggle/benchmark/activity/6674064153757612209&#45;&gt;http://purl.org/dj/kaggle/benchmark/activity/&#45;5655584377253858765</title>
<path fill="none" stroke="black" d="M617.55,-551.41C712.79,-541.34 827,-519.9 827,-475 827,-475 827,-475 827,-191 827,-131.8 665.03,-113.34 542.02,-107.85"/>
<polygon fill="black" stroke="black" points="541.88,-104.34 531.74,-107.42 541.59,-111.34 541.88,-104.34"/>
<text text-anchor="middle" x="850.5" y="-329.3" font-family="Times,serif" font-size="14.00">previous</text>
</g>
<!-- http://purl.org/dj/kaggle/benchmark/activity/1188267505578980883 -->
<g id="node8" class="node">
<title>http://purl.org/dj/kaggle/benchmark/activity/1188267505578980883</title>
<ellipse fill="none" stroke="black" cx="491" cy="-474" rx="142.97" ry="18"/>
<text text-anchor="middle" x="491" y="-470.3" font-family="Times,serif" font-size="14.00">1188267505578980883 (Preparation)</text>
</g>
<!-- http://purl.org/dj/kaggle/benchmark/activity/6674064153757612209&#45;&gt;http://purl.org/dj/kaggle/benchmark/activity/1188267505578980883 -->
<g id="edge11" class="edge">
<title>http://purl.org/dj/kaggle/benchmark/activity/6674064153757612209&#45;&gt;http://purl.org/dj/kaggle/benchmark/activity/1188267505578980883</title>
<path fill="none" stroke="black" d="M491,-542.8C491,-531.16 491,-515.55 491,-502.24"/>
<polygon fill="black" stroke="black" points="494.5,-502.18 491,-492.18 487.5,-502.18 494.5,-502.18"/>
<text text-anchor="middle" x="514.5" y="-513.8" font-family="Times,serif" font-size="14.00">previous</text>
</g>
<!-- http://purl.org/dj/kaggle/benchmark/activity/1188267505578980883&#45;&gt;http://purl.org/dj/kaggle/benchmark/activity/6164368568402935338 -->
<g id="edge12" class="edge">
<title>http://purl.org/dj/kaggle/benchmark/activity/1188267505578980883&#45;&gt;http://purl.org/dj/kaggle/benchmark/activity/6164368568402935338</title>
<path fill="none" stroke="black" d="M456.45,-456.41C428.19,-442.84 388.05,-423.56 357.58,-408.93"/>
<polygon fill="black" stroke="black" points="358.99,-405.72 348.46,-404.55 355.96,-412.03 358.99,-405.72"/>
<text text-anchor="middle" x="436.5" y="-426.8" font-family="Times,serif" font-size="14.00">previous</text>
</g>
<!-- http://purl.org/dj/kaggle/benchmark/activity/1188267505578980883&#45;&gt;http://purl.org/dj/kaggle/benchmark/activity/&#45;5655584377253858765 -->
<g id="edge13" class="edge">
<title>http://purl.org/dj/kaggle/benchmark/activity/1188267505578980883&#45;&gt;http://purl.org/dj/kaggle/benchmark/activity/&#45;5655584377253858765</title>
<path fill="none" stroke="black" d="M491,-455.74C491,-438.57 491,-411.46 491,-388 491,-388 491,-388 491,-191 491,-163.92 469.16,-142.45 447.62,-127.86"/>
<polygon fill="black" stroke="black" points="449.42,-124.86 439.11,-122.42 445.65,-130.76 449.42,-124.86"/>
<text text-anchor="middle" x="514.5" y="-275.3" font-family="Times,serif" font-size="14.00">previous</text>
</g>
<!-- http://purl.org/dj/kaggle/benchmark/activity/4969737001988908652 -->
<g id="node9" class="node">
<title>http://purl.org/dj/kaggle/benchmark/activity/4969737001988908652</title>
<ellipse fill="none" stroke="black" cx="655" cy="-333" rx="148.67" ry="18"/>
<text text-anchor="middle" x="655" y="-329.3" font-family="Times,serif" font-size="14.00">4969737001988908652 (Visualisation)</text>
</g>
<!-- http://purl.org/dj/kaggle/benchmark/activity/1188267505578980883&#45;&gt;http://purl.org/dj/kaggle/benchmark/activity/4969737001988908652 -->
<g id="edge14" class="edge">
<title>http://purl.org/dj/kaggle/benchmark/activity/1188267505578980883&#45;&gt;http://purl.org/dj/kaggle/benchmark/activity/4969737001988908652</title>
<path fill="none" stroke="black" d="M511.11,-455.96C540.21,-431.3 594.16,-385.57 627.09,-357.66"/>
<polygon fill="black" stroke="black" points="629.62,-360.1 634.98,-350.97 625.09,-354.76 629.62,-360.1"/>
<text text-anchor="middle" x="571.5" y="-426.8" font-family="Times,serif" font-size="14.00">previous</text>
</g>
<!-- http://purl.org/dj/kaggle/benchmark/activity/4969737001988908652&#45;&gt;http://purl.org/dj/kaggle/benchmark/activity/&#45;5655584377253858765 -->
<g id="edge17" class="edge">
<title>http://purl.org/dj/kaggle/benchmark/activity/4969737001988908652&#45;&gt;http://purl.org/dj/kaggle/benchmark/activity/&#45;5655584377253858765</title>
<path fill="none" stroke="black" d="M645.99,-314.81C625.73,-277.75 573,-189.8 505,-141 495.89,-134.46 485.45,-129.05 474.84,-124.59"/>
<polygon fill="black" stroke="black" points="476.08,-121.32 465.5,-120.92 473.52,-127.84 476.08,-121.32"/>
<text text-anchor="middle" x="623.5" y="-231.8" font-family="Times,serif" font-size="14.00">previous</text>
</g>
</g>
</svg>
