<?xml version="1.0" encoding="UTF-8" standalone="no"?>
<!DOCTYPE svg PUBLIC "-//W3C//DTD SVG 1.1//EN"
 "http://www.w3.org/Graphics/SVG/1.1/DTD/svg11.dtd">
<!-- Generated by graphviz version 2.47.1 (20210417.1919)
 -->
<!-- Pages: 1 -->
<svg width="2346pt" height="521pt"
 viewBox="0.00 0.00 2346.08 521.00" xmlns="http://www.w3.org/2000/svg" xmlns:xlink="http://www.w3.org/1999/xlink">
<g id="graph0" class="graph" transform="scale(1 1) rotate(0) translate(4 517)">
<polygon fill="white" stroke="transparent" points="-4,4 -4,-517 2342.08,-517 2342.08,4 -4,4"/>
<!-- http://purl.org/dj/kaggle/book&#45;with&#45;the&#45;highest&#45;text&#45;reviews#2688289319 -->
<g id="node1" class="node">
<title>http://purl.org/dj/kaggle/book&#45;with&#45;the&#45;highest&#45;text&#45;reviews#2688289319</title>
<ellipse fill="none" stroke="black" cx="1603.64" cy="-267" rx="202.26" ry="18"/>
<text text-anchor="middle" x="1603.64" y="-263.3" font-family="Times,serif" font-size="14.00">2688289319 (Number of unique books: {}(0): Reuse)</text>
</g>
<!-- http://purl.org/dj/kaggle/book&#45;with&#45;the&#45;highest&#45;text&#45;reviews -->
<g id="node2" class="node">
<title>http://purl.org/dj/kaggle/book&#45;with&#45;the&#45;highest&#45;text&#45;reviews</title>
<ellipse fill="none" stroke="black" cx="959.64" cy="-18" rx="289.75" ry="18"/>
<text text-anchor="middle" x="959.64" y="-14.3" font-family="Times,serif" font-size="14.00">book&#45;with&#45;the&#45;highest&#45;text&#45;reviews (book&#45;with&#45;the&#45;highest&#45;text&#45;reviews.ipynb)</text>
</g>
<!-- http://purl.org/dj/kaggle/book&#45;with&#45;the&#45;highest&#45;text&#45;reviews#2688289319&#45;&gt;http://purl.org/dj/kaggle/book&#45;with&#45;the&#45;highest&#45;text&#45;reviews -->
<g id="edge1" class="edge">
<title>http://purl.org/dj/kaggle/book&#45;with&#45;the&#45;highest&#45;text&#45;reviews#2688289319&#45;&gt;http://purl.org/dj/kaggle/book&#45;with&#45;the&#45;highest&#45;text&#45;reviews</title>
<path fill="none" stroke="black" d="M1593.14,-248.8C1582.39,-231.01 1565.36,-202.34 1551.64,-177 1521.59,-121.49 1534.6,-86.74 1480.64,-54 1457.72,-40.09 1344.72,-31.56 1229.79,-26.41"/>
<polygon fill="black" stroke="black" points="1229.89,-22.91 1219.74,-25.97 1229.58,-29.91 1229.89,-22.91"/>
<text text-anchor="middle" x="1584.64" y="-155.3" font-family="Times,serif" font-size="14.00">appearsIn ()</text>
</g>
<!-- http://purl.org/dj/kaggle/book&#45;with&#45;the&#45;highest&#45;text&#45;reviews#292815631 -->
<g id="node3" class="node">
<title>http://purl.org/dj/kaggle/book&#45;with&#45;the&#45;highest&#45;text&#45;reviews#292815631</title>
<ellipse fill="none" stroke="black" cx="117.64" cy="-159" rx="117.78" ry="18"/>
<text text-anchor="middle" x="117.64" y="-155.3" font-family="Times,serif" font-size="14.00">292815631 (ggplot(0): Reuse)</text>
</g>
<!-- http://purl.org/dj/kaggle/book&#45;with&#45;the&#45;highest&#45;text&#45;reviews#292815631&#45;&gt;http://purl.org/dj/kaggle/book&#45;with&#45;the&#45;highest&#45;text&#45;reviews -->
<g id="edge2" class="edge">
<title>http://purl.org/dj/kaggle/book&#45;with&#45;the&#45;highest&#45;text&#45;reviews#292815631&#45;&gt;http://purl.org/dj/kaggle/book&#45;with&#45;the&#45;highest&#45;text&#45;reviews</title>
<path fill="none" stroke="black" d="M93.33,-141.18C87.8,-136.04 82.67,-129.9 79.64,-123 73.21,-108.35 69.01,-98.96 79.64,-87 118.57,-43.23 425.03,-27.48 665.49,-21.9"/>
<polygon fill="black" stroke="black" points="665.89,-25.4 675.81,-21.67 665.73,-18.4 665.89,-25.4"/>
<text text-anchor="middle" x="112.64" y="-101.3" font-family="Times,serif" font-size="14.00">appearsIn ()</text>
</g>
<!-- http://purl.org/dj/kaggle/book&#45;with&#45;the&#45;highest&#45;text&#45;reviews#205193837 -->
<g id="node4" class="node">
<title>http://purl.org/dj/kaggle/book&#45;with&#45;the&#45;highest&#45;text&#45;reviews#205193837</title>
<ellipse fill="none" stroke="black" cx="868.64" cy="-213" rx="113.98" ry="18"/>
<text text-anchor="middle" x="868.64" y="-209.3" font-family="Times,serif" font-size="14.00">205193837 (False(0): Reuse)</text>
</g>
<!-- http://purl.org/dj/kaggle/book&#45;with&#45;the&#45;highest&#45;text&#45;reviews#205193837&#45;&gt;http://purl.org/dj/kaggle/book&#45;with&#45;the&#45;highest&#45;text&#45;reviews -->
<g id="edge3" class="edge">
<title>http://purl.org/dj/kaggle/book&#45;with&#45;the&#45;highest&#45;text&#45;reviews#205193837&#45;&gt;http://purl.org/dj/kaggle/book&#45;with&#45;the&#45;highest&#45;text&#45;reviews</title>
<path fill="none" stroke="black" d="M854.6,-194.9C841.6,-177.88 823.18,-150.4 815.64,-123 811.39,-107.57 807.08,-100.52 815.64,-87 829.81,-64.63 853.54,-49.48 877.69,-39.28"/>
<polygon fill="black" stroke="black" points="879.29,-42.41 887.3,-35.47 876.72,-35.9 879.29,-42.41"/>
<text text-anchor="middle" x="848.64" y="-101.3" font-family="Times,serif" font-size="14.00">appearsIn ()</text>
</g>
<!-- http://purl.org/dj/kaggle/book&#45;with&#45;the&#45;highest&#45;text&#45;reviews#4084075785 -->
<g id="node5" class="node">
<title>http://purl.org/dj/kaggle/book&#45;with&#45;the&#45;highest&#45;text&#45;reviews#4084075785</title>
<ellipse fill="none" stroke="black" cx="1221.64" cy="-159" rx="221.76" ry="18"/>
<text text-anchor="middle" x="1221.64" y="-155.3" font-family="Times,serif" font-size="14.00">4084075785 (../input/goodreadsbooks/books.csv(0): Reuse)</text>
</g>
<!-- http://purl.org/dj/kaggle/book&#45;with&#45;the&#45;highest&#45;text&#45;reviews#4084075785&#45;&gt;http://purl.org/dj/kaggle/book&#45;with&#45;the&#45;highest&#45;text&#45;reviews -->
<g id="edge4" class="edge">
<title>http://purl.org/dj/kaggle/book&#45;with&#45;the&#45;highest&#45;text&#45;reviews#4084075785&#45;&gt;http://purl.org/dj/kaggle/book&#45;with&#45;the&#45;highest&#45;text&#45;reviews</title>
<path fill="none" stroke="black" d="M1224.74,-140.91C1226.58,-125.22 1226.6,-102.18 1214.64,-87 1196.98,-64.59 1136.15,-47.89 1078.33,-36.65"/>
<polygon fill="black" stroke="black" points="1078.81,-33.18 1068.34,-34.75 1077.51,-40.06 1078.81,-33.18"/>
<text text-anchor="middle" x="1258.64" y="-101.3" font-family="Times,serif" font-size="14.00">appearsIn ()</text>
</g>
<!-- http://purl.org/dj/kaggle/book&#45;with&#45;the&#45;highest&#45;text&#45;reviews#233833124 -->
<g id="node6" class="node">
<title>http://purl.org/dj/kaggle/book&#45;with&#45;the&#45;highest&#45;text&#45;reviews#233833124</title>
<ellipse fill="none" stroke="black" cx="1384.64" cy="-321" rx="108.58" ry="18"/>
<text text-anchor="middle" x="1384.64" y="-317.3" font-family="Times,serif" font-size="14.00">233833124 (title(0): Reuse)</text>
</g>
<!-- http://purl.org/dj/kaggle/book&#45;with&#45;the&#45;highest&#45;text&#45;reviews#233833124&#45;&gt;http://purl.org/dj/kaggle/book&#45;with&#45;the&#45;highest&#45;text&#45;reviews -->
<g id="edge5" class="edge">
<title>http://purl.org/dj/kaggle/book&#45;with&#45;the&#45;highest&#45;text&#45;reviews#233833124&#45;&gt;http://purl.org/dj/kaggle/book&#45;with&#45;the&#45;highest&#45;text&#45;reviews</title>
<path fill="none" stroke="black" d="M1386.89,-302.89C1389.19,-288.21 1393.47,-266.68 1400.64,-249 1420.11,-200.97 1474.4,-183.44 1444.64,-141 1405.99,-85.89 1236.25,-52.78 1108.38,-35.24"/>
<polygon fill="black" stroke="black" points="1108.47,-31.72 1098.09,-33.85 1107.53,-38.66 1108.47,-31.72"/>
<text text-anchor="middle" x="1485.64" y="-155.3" font-family="Times,serif" font-size="14.00">appearsIn ()</text>
</g>
<!-- http://purl.org/dj/kaggle/book&#45;with&#45;the&#45;highest&#45;text&#45;reviews#787678472 -->
<g id="node7" class="node">
<title>http://purl.org/dj/kaggle/book&#45;with&#45;the&#45;highest&#45;text&#45;reviews#787678472</title>
<ellipse fill="none" stroke="black" cx="942.64" cy="-408" rx="162.47" ry="18"/>
<text text-anchor="middle" x="942.64" y="-404.3" font-family="Times,serif" font-size="14.00">787678472 (most_rated(0)$0: Preparation)</text>
</g>
<!-- http://purl.org/dj/kaggle/book&#45;with&#45;the&#45;highest&#45;text&#45;reviews#787678472&#45;&gt;http://purl.org/dj/kaggle/book&#45;with&#45;the&#45;highest&#45;text&#45;reviews#205193837 -->
<g id="edge6" class="edge">
<title>http://purl.org/dj/kaggle/book&#45;with&#45;the&#45;highest&#45;text&#45;reviews#787678472&#45;&gt;http://purl.org/dj/kaggle/book&#45;with&#45;the&#45;highest&#45;text&#45;reviews#205193837</title>
<path fill="none" stroke="black" d="M936.07,-389.87C923.13,-356.11 894.23,-280.75 878.81,-240.52"/>
<polygon fill="black" stroke="black" points="882.04,-239.17 875.19,-231.09 875.5,-241.68 882.04,-239.17"/>
<text text-anchor="middle" x="935.14" y="-317.3" font-family="Times,serif" font-size="14.00">head ()</text>
</g>
<!-- http://purl.org/dj/kaggle/book&#45;with&#45;the&#45;highest&#45;text&#45;reviews#787678472&#45;&gt;http://purl.org/dj/kaggle/book&#45;with&#45;the&#45;highest&#45;text&#45;reviews#233833124 -->
<g id="edge7" class="edge">
<title>http://purl.org/dj/kaggle/book&#45;with&#45;the&#45;highest&#45;text&#45;reviews#787678472&#45;&gt;http://purl.org/dj/kaggle/book&#45;with&#45;the&#45;highest&#45;text&#45;reviews#233833124</title>
<path fill="none" stroke="black" d="M988.16,-390.6C1020.31,-379.59 1064.64,-365.59 1104.64,-357 1168.13,-343.37 1185.2,-347.06 1249.64,-339 1263.03,-337.33 1277.17,-335.55 1291.05,-333.81"/>
<polygon fill="black" stroke="black" points="1291.62,-337.26 1301.11,-332.54 1290.75,-330.32 1291.62,-337.26"/>
<text text-anchor="middle" x="1124.14" y="-360.8" font-family="Times,serif" font-size="14.00">head ()</text>
</g>
<!-- http://purl.org/dj/kaggle/book&#45;with&#45;the&#45;highest&#45;text&#45;reviews#1630799923 -->
<g id="node8" class="node">
<title>http://purl.org/dj/kaggle/book&#45;with&#45;the&#45;highest&#45;text&#45;reviews#1630799923</title>
<ellipse fill="none" stroke="black" cx="543.64" cy="-267" rx="168.17" ry="18"/>
<text text-anchor="middle" x="543.64" y="-263.3" font-family="Times,serif" font-size="14.00">1630799923 (text_reviews_count(0): Reuse)</text>
</g>
<!-- http://purl.org/dj/kaggle/book&#45;with&#45;the&#45;highest&#45;text&#45;reviews#787678472&#45;&gt;http://purl.org/dj/kaggle/book&#45;with&#45;the&#45;highest&#45;text&#45;reviews#1630799923 -->
<g id="edge8" class="edge">
<title>http://purl.org/dj/kaggle/book&#45;with&#45;the&#45;highest&#45;text&#45;reviews#787678472&#45;&gt;http://purl.org/dj/kaggle/book&#45;with&#45;the&#45;highest&#45;text&#45;reviews#1630799923</title>
<path fill="none" stroke="black" d="M814.34,-396.9C758.11,-391.12 699.16,-382.85 673.64,-372 630.68,-353.73 590.18,-317.12 566.14,-292.58"/>
<polygon fill="black" stroke="black" points="568.38,-289.86 558.93,-285.07 563.33,-294.71 568.38,-289.86"/>
<text text-anchor="middle" x="693.14" y="-360.8" font-family="Times,serif" font-size="14.00">head ()</text>
</g>
<!-- http://purl.org/dj/kaggle/book&#45;with&#45;the&#45;highest&#45;text&#45;reviews#30998711 -->
<g id="node9" class="node">
<title>http://purl.org/dj/kaggle/book&#45;with&#45;the&#45;highest&#45;text&#45;reviews#30998711</title>
<ellipse fill="none" stroke="black" cx="718.64" cy="-159" rx="94.78" ry="18"/>
<text text-anchor="middle" x="718.64" y="-155.3" font-family="Times,serif" font-size="14.00">30998711 (5(0): Reuse)</text>
</g>
<!-- http://purl.org/dj/kaggle/book&#45;with&#45;the&#45;highest&#45;text&#45;reviews#787678472&#45;&gt;http://purl.org/dj/kaggle/book&#45;with&#45;the&#45;highest&#45;text&#45;reviews#30998711 -->
<g id="edge9" class="edge">
<title>http://purl.org/dj/kaggle/book&#45;with&#45;the&#45;highest&#45;text&#45;reviews#787678472&#45;&gt;http://purl.org/dj/kaggle/book&#45;with&#45;the&#45;highest&#45;text&#45;reviews#30998711</title>
<path fill="none" stroke="black" d="M916.48,-390.16C874.71,-362.02 792.85,-301.5 745.64,-231 736.69,-217.64 730.14,-200.9 725.74,-187.03"/>
<polygon fill="black" stroke="black" points="728.99,-185.68 722.78,-177.09 722.28,-187.67 728.99,-185.68"/>
<text text-anchor="middle" x="865.14" y="-317.3" font-family="Times,serif" font-size="14.00">head ()</text>
</g>
<!-- http://purl.org/dj/kaggle/book&#45;with&#45;the&#45;highest&#45;text&#45;reviews#128057760 -->
<g id="node10" class="node">
<title>http://purl.org/dj/kaggle/book&#45;with&#45;the&#45;highest&#45;text&#45;reviews#128057760</title>
<ellipse fill="none" stroke="black" cx="1111.64" cy="-321" rx="128.88" ry="18"/>
<text text-anchor="middle" x="1111.64" y="-317.3" font-family="Times,serif" font-size="14.00">128057760 (df(0)$0: Movement)</text>
</g>
<!-- http://purl.org/dj/kaggle/book&#45;with&#45;the&#45;highest&#45;text&#45;reviews#787678472&#45;&gt;http://purl.org/dj/kaggle/book&#45;with&#45;the&#45;highest&#45;text&#45;reviews#128057760 -->
<g id="edge10" class="edge">
<title>http://purl.org/dj/kaggle/book&#45;with&#45;the&#45;highest&#45;text&#45;reviews#787678472&#45;&gt;http://purl.org/dj/kaggle/book&#45;with&#45;the&#45;highest&#45;text&#45;reviews#128057760</title>
<path fill="none" stroke="black" d="M959.09,-389.93C970.24,-379.2 985.78,-365.78 1001.64,-357 1013.7,-350.32 1027.23,-344.71 1040.56,-340.06"/>
<polygon fill="black" stroke="black" points="1041.82,-343.33 1050.2,-336.85 1039.61,-336.69 1041.82,-343.33"/>
<text text-anchor="middle" x="1021.14" y="-360.8" font-family="Times,serif" font-size="14.00">head ()</text>
</g>
<!-- http://purl.org/dj/kaggle/book&#45;with&#45;the&#45;highest&#45;text&#45;reviews#1630799923&#45;&gt;http://purl.org/dj/kaggle/book&#45;with&#45;the&#45;highest&#45;text&#45;reviews -->
<g id="edge11" class="edge">
<title>http://purl.org/dj/kaggle/book&#45;with&#45;the&#45;highest&#45;text&#45;reviews#1630799923&#45;&gt;http://purl.org/dj/kaggle/book&#45;with&#45;the&#45;highest&#45;text&#45;reviews</title>
<path fill="none" stroke="black" d="M539.17,-248.96C533.48,-223.22 526.79,-173.94 548.64,-141 561.19,-122.07 711.92,-60.64 733.64,-54 758.55,-46.39 785.54,-40.37 811.91,-35.65"/>
<polygon fill="black" stroke="black" points="812.73,-39.06 821.98,-33.9 811.53,-32.16 812.73,-39.06"/>
<text text-anchor="middle" x="581.64" y="-155.3" font-family="Times,serif" font-size="14.00">appearsIn ()</text>
</g>
<!-- http://purl.org/dj/kaggle/book&#45;with&#45;the&#45;highest&#45;text&#45;reviews#30998711&#45;&gt;http://purl.org/dj/kaggle/book&#45;with&#45;the&#45;highest&#45;text&#45;reviews -->
<g id="edge12" class="edge">
<title>http://purl.org/dj/kaggle/book&#45;with&#45;the&#45;highest&#45;text&#45;reviews#30998711&#45;&gt;http://purl.org/dj/kaggle/book&#45;with&#45;the&#45;highest&#45;text&#45;reviews</title>
<path fill="none" stroke="black" d="M711.96,-140.77C707.19,-125.41 703.28,-102.96 713.64,-87 728.4,-64.25 785.29,-47.71 840.64,-36.64"/>
<polygon fill="black" stroke="black" points="841.43,-40.05 850.58,-34.71 840.1,-33.18 841.43,-40.05"/>
<text text-anchor="middle" x="746.64" y="-101.3" font-family="Times,serif" font-size="14.00">appearsIn ()</text>
</g>
<!-- http://purl.org/dj/kaggle/book&#45;with&#45;the&#45;highest&#45;text&#45;reviews#128057760&#45;&gt;http://purl.org/dj/kaggle/book&#45;with&#45;the&#45;highest&#45;text&#45;reviews#205193837 -->
<g id="edge13" class="edge">
<title>http://purl.org/dj/kaggle/book&#45;with&#45;the&#45;highest&#45;text&#45;reviews#128057760&#45;&gt;http://purl.org/dj/kaggle/book&#45;with&#45;the&#45;highest&#45;text&#45;reviews#205193837</title>
<path fill="none" stroke="black" d="M1074.2,-303.67C1031.36,-284.98 961.16,-254.36 914.92,-234.19"/>
<polygon fill="black" stroke="black" points="916.28,-230.97 905.72,-230.17 913.49,-237.38 916.28,-230.97"/>
<text text-anchor="middle" x="1057.14" y="-263.3" font-family="Times,serif" font-size="14.00">read_csv ()</text>
</g>
<!-- http://purl.org/dj/kaggle/book&#45;with&#45;the&#45;highest&#45;text&#45;reviews#128057760&#45;&gt;http://purl.org/dj/kaggle/book&#45;with&#45;the&#45;highest&#45;text&#45;reviews#4084075785 -->
<g id="edge14" class="edge">
<title>http://purl.org/dj/kaggle/book&#45;with&#45;the&#45;highest&#45;text&#45;reviews#128057760&#45;&gt;http://purl.org/dj/kaggle/book&#45;with&#45;the&#45;highest&#45;text&#45;reviews#4084075785</title>
<path fill="none" stroke="black" d="M1146.85,-303.57C1155.85,-298.39 1165.11,-292.14 1172.64,-285 1193.4,-265.33 1196.9,-257.51 1207.64,-231 1213.26,-217.13 1216.68,-200.79 1218.73,-187.28"/>
<polygon fill="black" stroke="black" points="1222.23,-187.54 1220.1,-177.16 1215.29,-186.6 1222.23,-187.54"/>
<text text-anchor="middle" x="1231.14" y="-263.3" font-family="Times,serif" font-size="14.00">read_csv ()</text>
</g>
<!-- http://purl.org/dj/kaggle/book&#45;with&#45;the&#45;highest&#45;text&#45;reviews#80085334 -->
<g id="node11" class="node">
<title>http://purl.org/dj/kaggle/book&#45;with&#45;the&#45;highest&#45;text&#45;reviews#80085334</title>
<ellipse fill="none" stroke="black" cx="1099.64" cy="-213" rx="99.38" ry="18"/>
<text text-anchor="middle" x="1099.64" y="-209.3" font-family="Times,serif" font-size="14.00">80085334 (pd(0): Reuse)</text>
</g>
<!-- http://purl.org/dj/kaggle/book&#45;with&#45;the&#45;highest&#45;text&#45;reviews#128057760&#45;&gt;http://purl.org/dj/kaggle/book&#45;with&#45;the&#45;highest&#45;text&#45;reviews#80085334 -->
<g id="edge15" class="edge">
<title>http://purl.org/dj/kaggle/book&#45;with&#45;the&#45;highest&#45;text&#45;reviews#128057760&#45;&gt;http://purl.org/dj/kaggle/book&#45;with&#45;the&#45;highest&#45;text&#45;reviews#80085334</title>
<path fill="none" stroke="black" d="M1109.71,-302.97C1107.83,-286.38 1104.95,-260.88 1102.74,-241.43"/>
<polygon fill="black" stroke="black" points="1106.21,-240.88 1101.6,-231.34 1099.25,-241.67 1106.21,-240.88"/>
<text text-anchor="middle" x="1138.14" y="-263.3" font-family="Times,serif" font-size="14.00">read_csv ()</text>
</g>
<!-- http://purl.org/dj/kaggle/book&#45;with&#45;the&#45;highest&#45;text&#45;reviews#80085334&#45;&gt;http://purl.org/dj/kaggle/book&#45;with&#45;the&#45;highest&#45;text&#45;reviews -->
<g id="edge22" class="edge">
<title>http://purl.org/dj/kaggle/book&#45;with&#45;the&#45;highest&#45;text&#45;reviews#80085334&#45;&gt;http://purl.org/dj/kaggle/book&#45;with&#45;the&#45;highest&#45;text&#45;reviews</title>
<path fill="none" stroke="black" d="M1027.62,-200.55C967.29,-190.87 890.79,-178.36 889.64,-177 879.3,-164.79 886.44,-156.68 889.64,-141 897.16,-104.14 920.99,-67.45 938.77,-44.09"/>
<polygon fill="black" stroke="black" points="941.6,-46.14 945,-36.1 936.09,-41.83 941.6,-46.14"/>
<text text-anchor="middle" x="943.64" y="-101.3" font-family="Times,serif" font-size="14.00">appearsIn ()</text>
</g>
<!-- http://purl.org/dj/python/lib/144966264 -->
<g id="node17" class="node">
<title>http://purl.org/dj/python/lib/144966264</title>
<ellipse fill="none" stroke="black" cx="1096.64" cy="-105" rx="109.38" ry="18"/>
<text text-anchor="middle" x="1096.64" y="-101.3" font-family="Times,serif" font-size="14.00">144966264 (pandas: Reuse)</text>
</g>
<!-- http://purl.org/dj/kaggle/book&#45;with&#45;the&#45;highest&#45;text&#45;reviews#80085334&#45;&gt;http://purl.org/dj/python/lib/144966264 -->
<g id="edge23" class="edge">
<title>http://purl.org/dj/kaggle/book&#45;with&#45;the&#45;highest&#45;text&#45;reviews#80085334&#45;&gt;http://purl.org/dj/python/lib/144966264</title>
<path fill="none" stroke="black" d="M1028.02,-200.49C971.85,-191.3 902.77,-179.54 900.64,-177 890.35,-164.75 890.37,-153.27 900.64,-141 904.36,-136.55 958.12,-127.14 1008.39,-119.19"/>
<polygon fill="black" stroke="black" points="1009.05,-122.63 1018.38,-117.63 1007.96,-115.72 1009.05,-122.63"/>
<text text-anchor="middle" x="945.64" y="-155.3" font-family="Times,serif" font-size="14.00">assignedFrom ()</text>
</g>
<!-- http://purl.org/dj/kaggle/book&#45;with&#45;the&#45;highest&#45;text&#45;reviews#196084263 -->
<g id="node12" class="node">
<title>http://purl.org/dj/kaggle/book&#45;with&#45;the&#45;highest&#45;text&#45;reviews#196084263</title>
<ellipse fill="none" stroke="black" cx="233.64" cy="-408" rx="137.58" ry="18"/>
<text text-anchor="middle" x="233.64" y="-404.3" font-family="Times,serif" font-size="14.00">196084263 (plt(0)$1: Visualisation)</text>
</g>
<!-- http://purl.org/dj/kaggle/book&#45;with&#45;the&#45;highest&#45;text&#45;reviews#196018726 -->
<g id="node13" class="node">
<title>http://purl.org/dj/kaggle/book&#45;with&#45;the&#45;highest&#45;text&#45;reviews#196018726</title>
<ellipse fill="none" stroke="black" cx="233.64" cy="-321" rx="113.18" ry="18"/>
<text text-anchor="middle" x="233.64" y="-317.3" font-family="Times,serif" font-size="14.00">196018726 (plt(0)$0: Reuse)</text>
</g>
<!-- http://purl.org/dj/kaggle/book&#45;with&#45;the&#45;highest&#45;text&#45;reviews#196084263&#45;&gt;http://purl.org/dj/kaggle/book&#45;with&#45;the&#45;highest&#45;text&#45;reviews#196018726 -->
<g id="edge16" class="edge">
<title>http://purl.org/dj/kaggle/book&#45;with&#45;the&#45;highest&#45;text&#45;reviews#196084263&#45;&gt;http://purl.org/dj/kaggle/book&#45;with&#45;the&#45;highest&#45;text&#45;reviews#196018726</title>
<path fill="none" stroke="black" d="M233.64,-389.8C233.64,-378.16 233.64,-362.55 233.64,-349.24"/>
<polygon fill="black" stroke="black" points="237.14,-349.18 233.64,-339.18 230.14,-349.18 237.14,-349.18"/>
<text text-anchor="middle" x="256.14" y="-360.8" font-family="Times,serif" font-size="14.00">figure ()</text>
</g>
<!-- http://purl.org/dj/kaggle/book&#45;with&#45;the&#45;highest&#45;text&#45;reviews#196018726&#45;&gt;http://purl.org/dj/kaggle/book&#45;with&#45;the&#45;highest&#45;text&#45;reviews#292815631 -->
<g id="edge17" class="edge">
<title>http://purl.org/dj/kaggle/book&#45;with&#45;the&#45;highest&#45;text&#45;reviews#196018726&#45;&gt;http://purl.org/dj/kaggle/book&#45;with&#45;the&#45;highest&#45;text&#45;reviews#292815631</title>
<path fill="none" stroke="black" d="M221.23,-302.88C200.73,-274.61 159.72,-218.04 135.91,-185.2"/>
<polygon fill="black" stroke="black" points="138.67,-183.04 129.96,-177 133,-187.15 138.67,-183.04"/>
<text text-anchor="middle" x="222.14" y="-263.3" font-family="Times,serif" font-size="14.00">use ()</text>
</g>
<!-- http://purl.org/dj/kaggle/book&#45;with&#45;the&#45;highest&#45;text&#45;reviews#127074770 -->
<g id="node14" class="node">
<title>http://purl.org/dj/kaggle/book&#45;with&#45;the&#45;highest&#45;text&#45;reviews#127074770</title>
<ellipse fill="none" stroke="black" cx="305.64" cy="-213" rx="104.78" ry="18"/>
<text text-anchor="middle" x="305.64" y="-209.3" font-family="Times,serif" font-size="14.00">127074770 (plt(0): Reuse)</text>
</g>
<!-- http://purl.org/dj/kaggle/book&#45;with&#45;the&#45;highest&#45;text&#45;reviews#196018726&#45;&gt;http://purl.org/dj/kaggle/book&#45;with&#45;the&#45;highest&#45;text&#45;reviews#127074770 -->
<g id="edge18" class="edge">
<title>http://purl.org/dj/kaggle/book&#45;with&#45;the&#45;highest&#45;text&#45;reviews#196018726&#45;&gt;http://purl.org/dj/kaggle/book&#45;with&#45;the&#45;highest&#45;text&#45;reviews#127074770</title>
<path fill="none" stroke="black" d="M245.21,-302.97C256.86,-285.82 274.98,-259.14 288.34,-239.47"/>
<polygon fill="black" stroke="black" points="291.38,-241.23 294.1,-230.99 285.59,-237.29 291.38,-241.23"/>
<text text-anchor="middle" x="296.14" y="-263.3" font-family="Times,serif" font-size="14.00">use ()</text>
</g>
<!-- http://purl.org/dj/kaggle/book&#45;with&#45;the&#45;highest&#45;text&#45;reviews#127074770&#45;&gt;http://purl.org/dj/kaggle/book&#45;with&#45;the&#45;highest&#45;text&#45;reviews -->
<g id="edge19" class="edge">
<title>http://purl.org/dj/kaggle/book&#45;with&#45;the&#45;highest&#45;text&#45;reviews#127074770&#45;&gt;http://purl.org/dj/kaggle/book&#45;with&#45;the&#45;highest&#45;text&#45;reviews</title>
<path fill="none" stroke="black" d="M355.32,-196.95C370.05,-191.59 385.9,-184.89 399.64,-177 481.46,-130.03 481.89,-79.79 572.64,-54 605.77,-44.58 674.03,-37.11 744.14,-31.53"/>
<polygon fill="black" stroke="black" points="744.79,-34.99 754.49,-30.72 744.25,-28.01 744.79,-34.99"/>
<text text-anchor="middle" x="537.64" y="-101.3" font-family="Times,serif" font-size="14.00">appearsIn ()</text>
</g>
<!-- http://purl.org/dj/python/lib/1065617167 -->
<g id="node15" class="node">
<title>http://purl.org/dj/python/lib/1065617167</title>
<ellipse fill="none" stroke="black" cx="305.64" cy="-105" rx="150.57" ry="18"/>
<text text-anchor="middle" x="305.64" y="-101.3" font-family="Times,serif" font-size="14.00">1065617167 (matplotlib.pyplot: Reuse)</text>
</g>
<!-- http://purl.org/dj/kaggle/book&#45;with&#45;the&#45;highest&#45;text&#45;reviews#127074770&#45;&gt;http://purl.org/dj/python/lib/1065617167 -->
<g id="edge20" class="edge">
<title>http://purl.org/dj/kaggle/book&#45;with&#45;the&#45;highest&#45;text&#45;reviews#127074770&#45;&gt;http://purl.org/dj/python/lib/1065617167</title>
<path fill="none" stroke="black" d="M305.64,-194.97C305.64,-178.38 305.64,-152.88 305.64,-133.43"/>
<polygon fill="black" stroke="black" points="309.14,-133.34 305.64,-123.34 302.14,-133.34 309.14,-133.34"/>
<text text-anchor="middle" x="350.64" y="-155.3" font-family="Times,serif" font-size="14.00">assignedFrom ()</text>
</g>
<!-- http://purl.org/dj/python/lib/1065617167&#45;&gt;http://purl.org/dj/kaggle/book&#45;with&#45;the&#45;highest&#45;text&#45;reviews -->
<g id="edge30" class="edge">
<title>http://purl.org/dj/python/lib/1065617167&#45;&gt;http://purl.org/dj/kaggle/book&#45;with&#45;the&#45;highest&#45;text&#45;reviews</title>
<path fill="none" stroke="black" d="M330.32,-87.09C348.59,-75.54 374.56,-61.09 399.64,-54 452.92,-38.93 569.33,-30.34 682.29,-25.45"/>
<polygon fill="black" stroke="black" points="682.66,-28.94 692.5,-25.02 682.37,-21.94 682.66,-28.94"/>
<text text-anchor="middle" x="439.14" y="-57.8" font-family="Times,serif" font-size="14.00">importedBy ()</text>
</g>
<!-- http://purl.org/dj/kaggle/book&#45;with&#45;the&#45;highest&#45;text&#45;reviews#415040422 -->
<g id="node16" class="node">
<title>http://purl.org/dj/kaggle/book&#45;with&#45;the&#45;highest&#45;text&#45;reviews#415040422</title>
<ellipse fill="none" stroke="black" cx="942.64" cy="-495" rx="147.57" ry="18"/>
<text text-anchor="middle" x="942.64" y="-491.3" font-family="Times,serif" font-size="14.00">415040422 (print[10/0]: Visualisation)</text>
</g>
<!-- http://purl.org/dj/kaggle/book&#45;with&#45;the&#45;highest&#45;text&#45;reviews#415040422&#45;&gt;http://purl.org/dj/kaggle/book&#45;with&#45;the&#45;highest&#45;text&#45;reviews#787678472 -->
<g id="edge21" class="edge">
<title>http://purl.org/dj/kaggle/book&#45;with&#45;the&#45;highest&#45;text&#45;reviews#415040422&#45;&gt;http://purl.org/dj/kaggle/book&#45;with&#45;the&#45;highest&#45;text&#45;reviews#787678472</title>
<path fill="none" stroke="black" d="M942.64,-476.8C942.64,-465.16 942.64,-449.55 942.64,-436.24"/>
<polygon fill="black" stroke="black" points="946.14,-436.18 942.64,-426.18 939.14,-436.18 946.14,-436.18"/>
<text text-anchor="middle" x="962.14" y="-447.8" font-family="Times,serif" font-size="14.00">print ()</text>
</g>
<!-- http://purl.org/dj/python/lib/144966264&#45;&gt;http://purl.org/dj/kaggle/book&#45;with&#45;the&#45;highest&#45;text&#45;reviews -->
<g id="edge29" class="edge">
<title>http://purl.org/dj/python/lib/144966264&#45;&gt;http://purl.org/dj/kaggle/book&#45;with&#45;the&#45;highest&#45;text&#45;reviews</title>
<path fill="none" stroke="black" d="M1069.9,-87.41C1048.77,-74.3 1019.07,-55.87 995.82,-41.45"/>
<polygon fill="black" stroke="black" points="997.59,-38.43 987.25,-36.13 993.9,-44.38 997.59,-38.43"/>
<text text-anchor="middle" x="1076.14" y="-57.8" font-family="Times,serif" font-size="14.00">importedBy ()</text>
</g>
<!-- http://purl.org/dj/kaggle/book&#45;with&#45;the&#45;highest&#45;text&#45;reviews#198115882 -->
<g id="node18" class="node">
<title>http://purl.org/dj/kaggle/book&#45;with&#45;the&#45;highest&#45;text&#45;reviews#198115882</title>
<ellipse fill="none" stroke="black" cx="1751.64" cy="-495" rx="115.08" ry="18"/>
<text text-anchor="middle" x="1751.64" y="-491.3" font-family="Times,serif" font-size="14.00">198115882 (sns(0)$0: Reuse)</text>
</g>
<!-- http://purl.org/dj/kaggle/book&#45;with&#45;the&#45;highest&#45;text&#45;reviews#198115882&#45;&gt;http://purl.org/dj/kaggle/book&#45;with&#45;the&#45;highest&#45;text&#45;reviews#787678472 -->
<g id="edge24" class="edge">
<title>http://purl.org/dj/kaggle/book&#45;with&#45;the&#45;highest&#45;text&#45;reviews#198115882&#45;&gt;http://purl.org/dj/kaggle/book&#45;with&#45;the&#45;highest&#45;text&#45;reviews#787678472</title>
<path fill="none" stroke="black" d="M1658.84,-484.25C1512.79,-468.9 1229.2,-439.11 1066.11,-421.97"/>
<polygon fill="black" stroke="black" points="1066.34,-418.48 1056.03,-420.91 1065.61,-425.44 1066.34,-418.48"/>
<text text-anchor="middle" x="1421.64" y="-447.8" font-family="Times,serif" font-size="14.00">barplot ()</text>
</g>
<!-- http://purl.org/dj/kaggle/book&#45;with&#45;the&#45;highest&#45;text&#45;reviews#128647638 -->
<g id="node19" class="node">
<title>http://purl.org/dj/kaggle/book&#45;with&#45;the&#45;highest&#45;text&#45;reviews#128647638</title>
<ellipse fill="none" stroke="black" cx="2029.64" cy="-213" rx="106.68" ry="18"/>
<text text-anchor="middle" x="2029.64" y="-209.3" font-family="Times,serif" font-size="14.00">128647638 (sns(0): Reuse)</text>
</g>
<!-- http://purl.org/dj/kaggle/book&#45;with&#45;the&#45;highest&#45;text&#45;reviews#198115882&#45;&gt;http://purl.org/dj/kaggle/book&#45;with&#45;the&#45;highest&#45;text&#45;reviews#128647638 -->
<g id="edge25" class="edge">
<title>http://purl.org/dj/kaggle/book&#45;with&#45;the&#45;highest&#45;text&#45;reviews#198115882&#45;&gt;http://purl.org/dj/kaggle/book&#45;with&#45;the&#45;highest&#45;text&#45;reviews#128647638</title>
<path fill="none" stroke="black" d="M1768.61,-476.91C1816.12,-429.05 1950.59,-293.62 2005.66,-238.15"/>
<polygon fill="black" stroke="black" points="2008.33,-240.43 2012.89,-230.87 2003.36,-235.5 2008.33,-240.43"/>
<text text-anchor="middle" x="1912.64" y="-360.8" font-family="Times,serif" font-size="14.00">barplot ()</text>
</g>
<!-- http://purl.org/dj/kaggle/book&#45;with&#45;the&#45;highest&#45;text&#45;reviews#128647638&#45;&gt;http://purl.org/dj/kaggle/book&#45;with&#45;the&#45;highest&#45;text&#45;reviews -->
<g id="edge26" class="edge">
<title>http://purl.org/dj/kaggle/book&#45;with&#45;the&#45;highest&#45;text&#45;reviews#128647638&#45;&gt;http://purl.org/dj/kaggle/book&#45;with&#45;the&#45;highest&#45;text&#45;reviews</title>
<path fill="none" stroke="black" d="M2030.99,-194.85C2031.28,-178.89 2029.05,-155.46 2015.64,-141 1954.49,-75.06 1908.55,-105.95 1820.64,-87 1633.72,-46.71 1419.38,-29.69 1251.32,-22.75"/>
<polygon fill="black" stroke="black" points="1251.21,-19.24 1241.08,-22.34 1250.93,-26.24 1251.21,-19.24"/>
<text text-anchor="middle" x="2028.64" y="-101.3" font-family="Times,serif" font-size="14.00">appearsIn ()</text>
</g>
<!-- http://purl.org/dj/python/lib/194380523 -->
<g id="node20" class="node">
<title>http://purl.org/dj/python/lib/194380523</title>
<ellipse fill="none" stroke="black" cx="2225.64" cy="-105" rx="112.38" ry="18"/>
<text text-anchor="middle" x="2225.64" y="-101.3" font-family="Times,serif" font-size="14.00">194380523 (seaborn: Reuse)</text>
</g>
<!-- http://purl.org/dj/kaggle/book&#45;with&#45;the&#45;highest&#45;text&#45;reviews#128647638&#45;&gt;http://purl.org/dj/python/lib/194380523 -->
<g id="edge27" class="edge">
<title>http://purl.org/dj/kaggle/book&#45;with&#45;the&#45;highest&#45;text&#45;reviews#128647638&#45;&gt;http://purl.org/dj/python/lib/194380523</title>
<path fill="none" stroke="black" d="M2059.84,-195.67C2093.79,-177.31 2149.04,-147.42 2186.34,-127.25"/>
<polygon fill="black" stroke="black" points="2188.28,-130.18 2195.41,-122.35 2184.95,-124.03 2188.28,-130.18"/>
<text text-anchor="middle" x="2201.64" y="-155.3" font-family="Times,serif" font-size="14.00">assignedFrom ()</text>
</g>
<!-- http://purl.org/dj/python/lib/194380523&#45;&gt;http://purl.org/dj/kaggle/book&#45;with&#45;the&#45;highest&#45;text&#45;reviews -->
<g id="edge28" class="edge">
<title>http://purl.org/dj/python/lib/194380523&#45;&gt;http://purl.org/dj/kaggle/book&#45;with&#45;the&#45;highest&#45;text&#45;reviews</title>
<path fill="none" stroke="black" d="M2180.66,-88.45C2144.21,-76.62 2091.27,-61.21 2043.64,-54 1897.8,-31.93 1524.46,-23.76 1256.7,-20.75"/>
<polygon fill="black" stroke="black" points="1256.47,-17.25 1246.43,-20.64 1256.39,-24.25 1256.47,-17.25"/>
<text text-anchor="middle" x="2148.14" y="-57.8" font-family="Times,serif" font-size="14.00">importedBy ()</text>
</g>
<!-- http://purl.org/dj/kaggle/book&#45;with&#45;the&#45;highest&#45;text&#45;reviews#358286204 -->
<g id="node21" class="node">
<title>http://purl.org/dj/kaggle/book&#45;with&#45;the&#45;highest&#45;text&#45;reviews#358286204</title>
<ellipse fill="none" stroke="black" cx="1603.64" cy="-408" rx="143.77" ry="18"/>
<text text-anchor="middle" x="1603.64" y="-404.3" font-family="Times,serif" font-size="14.00">358286204 (print[7/0]: Visualisation)</text>
</g>
<!-- http://purl.org/dj/kaggle/book&#45;with&#45;the&#45;highest&#45;text&#45;reviews#358286204&#45;&gt;http://purl.org/dj/kaggle/book&#45;with&#45;the&#45;highest&#45;text&#45;reviews#233833124 -->
<g id="edge31" class="edge">
<title>http://purl.org/dj/kaggle/book&#45;with&#45;the&#45;highest&#45;text&#45;reviews#358286204&#45;&gt;http://purl.org/dj/kaggle/book&#45;with&#45;the&#45;highest&#45;text&#45;reviews#233833124</title>
<path fill="none" stroke="black" d="M1556.61,-390.97C1540.11,-385.18 1521.48,-378.48 1504.64,-372 1480.03,-362.53 1452.9,-351.29 1430.66,-341.87"/>
<polygon fill="black" stroke="black" points="1432.03,-338.65 1421.46,-337.96 1429.29,-345.09 1432.03,-338.65"/>
<text text-anchor="middle" x="1524.14" y="-360.8" font-family="Times,serif" font-size="14.00">print ()</text>
</g>
<!-- http://purl.org/dj/kaggle/book&#45;with&#45;the&#45;highest&#45;text&#45;reviews#358286204&#45;&gt;http://purl.org/dj/kaggle/book&#45;with&#45;the&#45;highest&#45;text&#45;reviews#128057760 -->
<g id="edge32" class="edge">
<title>http://purl.org/dj/kaggle/book&#45;with&#45;the&#45;highest&#45;text&#45;reviews#358286204&#45;&gt;http://purl.org/dj/kaggle/book&#45;with&#45;the&#45;highest&#45;text&#45;reviews#128057760</title>
<path fill="none" stroke="black" d="M1500.3,-395.43C1411.15,-385.43 1296.24,-372.5 1293.64,-372 1251.88,-363.96 1205.68,-351.22 1170.27,-340.61"/>
<polygon fill="black" stroke="black" points="1171.17,-337.22 1160.59,-337.68 1169.15,-343.92 1171.17,-337.22"/>
<text text-anchor="middle" x="1313.14" y="-360.8" font-family="Times,serif" font-size="14.00">print ()</text>
</g>
<!-- http://purl.org/dj/kaggle/book&#45;with&#45;the&#45;highest&#45;text&#45;reviews#2487617972 -->
<g id="node22" class="node">
<title>http://purl.org/dj/kaggle/book&#45;with&#45;the&#45;highest&#45;text&#45;reviews#2487617972</title>
<ellipse fill="none" stroke="black" cx="1820.64" cy="-159" rx="193.87" ry="18"/>
<text text-anchor="middle" x="1820.64" y="-155.3" font-family="Times,serif" font-size="14.00">2487617972 (Number of total books: {}(0): Reuse)</text>
</g>
<!-- http://purl.org/dj/kaggle/book&#45;with&#45;the&#45;highest&#45;text&#45;reviews#358286204&#45;&gt;http://purl.org/dj/kaggle/book&#45;with&#45;the&#45;highest&#45;text&#45;reviews#2487617972 -->
<g id="edge33" class="edge">
<title>http://purl.org/dj/kaggle/book&#45;with&#45;the&#45;highest&#45;text&#45;reviews#358286204&#45;&gt;http://purl.org/dj/kaggle/book&#45;with&#45;the&#45;highest&#45;text&#45;reviews#2487617972</title>
<path fill="none" stroke="black" d="M1654.68,-391.09C1702.45,-373.33 1771.55,-339.67 1806.64,-285 1825.4,-255.76 1826.25,-214.59 1824.21,-187.61"/>
<polygon fill="black" stroke="black" points="1827.66,-186.96 1823.24,-177.33 1820.69,-187.62 1827.66,-186.96"/>
<text text-anchor="middle" x="1812.14" y="-317.3" font-family="Times,serif" font-size="14.00">print ()</text>
</g>
<!-- http://purl.org/dj/kaggle/book&#45;with&#45;the&#45;highest&#45;text&#45;reviews#2487617972&#45;&gt;http://purl.org/dj/kaggle/book&#45;with&#45;the&#45;highest&#45;text&#45;reviews -->
<g id="edge34" class="edge">
<title>http://purl.org/dj/kaggle/book&#45;with&#45;the&#45;highest&#45;text&#45;reviews#2487617972&#45;&gt;http://purl.org/dj/kaggle/book&#45;with&#45;the&#45;highest&#45;text&#45;reviews</title>
<path fill="none" stroke="black" d="M1789.68,-141.16C1743.37,-116.91 1652.63,-73 1569.64,-54 1506.53,-39.55 1364.91,-30.92 1234,-25.85"/>
<polygon fill="black" stroke="black" points="1233.92,-22.35 1223.79,-25.46 1233.65,-29.34 1233.92,-22.35"/>
<text text-anchor="middle" x="1783.64" y="-101.3" font-family="Times,serif" font-size="14.00">appearsIn ()</text>
</g>
<!-- http://purl.org/dj/kaggle/book&#45;with&#45;the&#45;highest&#45;text&#45;reviews#358548349 -->
<g id="node23" class="node">
<title>http://purl.org/dj/kaggle/book&#45;with&#45;the&#45;highest&#45;text&#45;reviews#358548349</title>
<ellipse fill="none" stroke="black" cx="1298.64" cy="-408" rx="143.77" ry="18"/>
<text text-anchor="middle" x="1298.64" y="-404.3" font-family="Times,serif" font-size="14.00">358548349 (print[8/0]: Visualisation)</text>
</g>
<!-- http://purl.org/dj/kaggle/book&#45;with&#45;the&#45;highest&#45;text&#45;reviews#358548349&#45;&gt;http://purl.org/dj/kaggle/book&#45;with&#45;the&#45;highest&#45;text&#45;reviews#2688289319 -->
<g id="edge35" class="edge">
<title>http://purl.org/dj/kaggle/book&#45;with&#45;the&#45;highest&#45;text&#45;reviews#358548349&#45;&gt;http://purl.org/dj/kaggle/book&#45;with&#45;the&#45;highest&#45;text&#45;reviews#2688289319</title>
<path fill="none" stroke="black" d="M1397.36,-394.9C1462.63,-386.57 1537.32,-376.27 1543.64,-372 1570.53,-353.81 1586.91,-319.26 1595.61,-294.99"/>
<polygon fill="black" stroke="black" points="1599,-295.89 1598.88,-285.29 1592.37,-293.65 1599,-295.89"/>
<text text-anchor="middle" x="1578.14" y="-360.8" font-family="Times,serif" font-size="14.00">print ()</text>
</g>
<!-- http://purl.org/dj/kaggle/book&#45;with&#45;the&#45;highest&#45;text&#45;reviews#358548349&#45;&gt;http://purl.org/dj/kaggle/book&#45;with&#45;the&#45;highest&#45;text&#45;reviews#233833124 -->
<g id="edge36" class="edge">
<title>http://purl.org/dj/kaggle/book&#45;with&#45;the&#45;highest&#45;text&#45;reviews#358548349&#45;&gt;http://purl.org/dj/kaggle/book&#45;with&#45;the&#45;highest&#45;text&#45;reviews#233833124</title>
<path fill="none" stroke="black" d="M1316.04,-389.8C1328.72,-377.27 1346.05,-360.14 1360.12,-346.23"/>
<polygon fill="black" stroke="black" points="1362.9,-348.4 1367.56,-338.89 1357.98,-343.43 1362.9,-348.4"/>
<text text-anchor="middle" x="1367.14" y="-360.8" font-family="Times,serif" font-size="14.00">print ()</text>
</g>
<!-- http://purl.org/dj/kaggle/book&#45;with&#45;the&#45;highest&#45;text&#45;reviews#358548349&#45;&gt;http://purl.org/dj/kaggle/book&#45;with&#45;the&#45;highest&#45;text&#45;reviews#128057760 -->
<g id="edge37" class="edge">
<title>http://purl.org/dj/kaggle/book&#45;with&#45;the&#45;highest&#45;text&#45;reviews#358548349&#45;&gt;http://purl.org/dj/kaggle/book&#45;with&#45;the&#45;highest&#45;text&#45;reviews#128057760</title>
<path fill="none" stroke="black" d="M1221.52,-392.8C1203.22,-387.72 1184.21,-380.95 1167.64,-372 1155.33,-365.36 1143.5,-355.5 1133.91,-346.28"/>
<polygon fill="black" stroke="black" points="1136.28,-343.7 1126.74,-339.11 1131.33,-348.65 1136.28,-343.7"/>
<text text-anchor="middle" x="1187.14" y="-360.8" font-family="Times,serif" font-size="14.00">print ()</text>
</g>
</g>
</svg>
