<?xml version="1.0" encoding="UTF-8" standalone="no"?>
<!DOCTYPE svg PUBLIC "-//W3C//DTD SVG 1.1//EN"
 "http://www.w3.org/Graphics/SVG/1.1/DTD/svg11.dtd">
<!-- Generated by graphviz version 2.44.1 (20200629.0846)
 -->
<!-- Pages: 1 -->
<svg width="5290pt" height="218pt"
 viewBox="0.00 0.00 5290.03 218.00" xmlns="http://www.w3.org/2000/svg" xmlns:xlink="http://www.w3.org/1999/xlink">
<g id="graph0" class="graph" transform="scale(1 1) rotate(0) translate(4 214)">
<polygon fill="white" stroke="transparent" points="-4,4 -4,-214 5286.03,-214 5286.03,4 -4,4"/>
<!-- http://purl.org/dj/kaggle/booleans&#45;and&#45;conditionals&#45;daily#249692951 -->
<g id="node1" class="node">
<title>http://purl.org/dj/kaggle/booleans&#45;and&#45;conditionals&#45;daily#249692951</title>
<ellipse fill="none" stroke="black" cx="995.29" cy="-192" rx="136.48" ry="18"/>
<text text-anchor="middle" x="995.29" y="-188.3" font-family="Times,serif" font-size="14.00">249692951 (print[1]: Visualisation)</text>
</g>
<!-- http://purl.org/dj/kaggle/booleans&#45;and&#45;conditionals&#45;daily#48169196 -->
<g id="node2" class="node">
<title>http://purl.org/dj/kaggle/booleans&#45;and&#45;conditionals&#45;daily#48169196</title>
<ellipse fill="none" stroke="black" cx="2549.29" cy="-105" rx="99.38" ry="18"/>
<text text-anchor="middle" x="2549.29" y="-101.3" font-family="Times,serif" font-size="14.00">48169196 (19(0): Reuse)</text>
</g>
<!-- http://purl.org/dj/kaggle/booleans&#45;and&#45;conditionals&#45;daily#249692951&#45;&gt;http://purl.org/dj/kaggle/booleans&#45;and&#45;conditionals&#45;daily#48169196 -->
<g id="edge1" class="edge">
<title>http://purl.org/dj/kaggle/booleans&#45;and&#45;conditionals&#45;daily#249692951&#45;&gt;http://purl.org/dj/kaggle/booleans&#45;and&#45;conditionals&#45;daily#48169196</title>
<path fill="none" stroke="black" d="M1130.59,-189.47C1453.47,-185.54 2251.15,-174.11 2371.29,-156 2414.37,-149.5 2461.81,-135.84 2496.88,-124.44"/>
<polygon fill="black" stroke="black" points="2498.02,-127.74 2506.42,-121.29 2495.83,-121.09 2498.02,-127.74"/>
<text text-anchor="middle" x="2463.79" y="-144.8" font-family="Times,serif" font-size="14.00">previous</text>
</g>
<!-- http://purl.org/dj/kaggle/booleans&#45;and&#45;conditionals&#45;daily#17039490 -->
<g id="node3" class="node">
<title>http://purl.org/dj/kaggle/booleans&#45;and&#45;conditionals&#45;daily#17039490</title>
<ellipse fill="none" stroke="black" cx="791.29" cy="-105" rx="90.98" ry="18"/>
<text text-anchor="middle" x="791.29" y="-101.3" font-family="Times,serif" font-size="14.00">17039490 ((0): Reuse)</text>
</g>
<!-- http://purl.org/dj/kaggle/booleans&#45;and&#45;conditionals&#45;daily#249692951&#45;&gt;http://purl.org/dj/kaggle/booleans&#45;and&#45;conditionals&#45;daily#17039490 -->
<g id="edge2" class="edge">
<title>http://purl.org/dj/kaggle/booleans&#45;and&#45;conditionals&#45;daily#249692951&#45;&gt;http://purl.org/dj/kaggle/booleans&#45;and&#45;conditionals&#45;daily#17039490</title>
<path fill="none" stroke="black" d="M955.96,-174.61C922.16,-160.53 873.37,-140.2 837.68,-125.33"/>
<polygon fill="black" stroke="black" points="839.02,-122.09 828.44,-121.48 836.33,-128.56 839.02,-122.09"/>
<text text-anchor="middle" x="928.79" y="-144.8" font-family="Times,serif" font-size="14.00">previous</text>
</g>
<!-- http://purl.org/dj/kaggle/booleans&#45;and&#45;conditionals&#45;daily#165478946 -->
<g id="node4" class="node">
<title>http://purl.org/dj/kaggle/booleans&#45;and&#45;conditionals&#45;daily#165478946</title>
<ellipse fill="none" stroke="black" cx="2320.29" cy="-105" rx="111.58" ry="18"/>
<text text-anchor="middle" x="2320.29" y="-101.3" font-family="Times,serif" font-size="14.00">165478946 (True(0): Reuse)</text>
</g>
<!-- http://purl.org/dj/kaggle/booleans&#45;and&#45;conditionals&#45;daily#249692951&#45;&gt;http://purl.org/dj/kaggle/booleans&#45;and&#45;conditionals&#45;daily#165478946 -->
<g id="edge3" class="edge">
<title>http://purl.org/dj/kaggle/booleans&#45;and&#45;conditionals&#45;daily#249692951&#45;&gt;http://purl.org/dj/kaggle/booleans&#45;and&#45;conditionals&#45;daily#165478946</title>
<path fill="none" stroke="black" d="M1129.58,-188.6C1366.98,-184 1851.65,-172.86 2020.29,-156 2061.56,-151.87 2165.17,-133.98 2239.05,-120.77"/>
<polygon fill="black" stroke="black" points="2240.05,-124.15 2249.27,-118.94 2238.81,-117.26 2240.05,-124.15"/>
<text text-anchor="middle" x="2137.79" y="-144.8" font-family="Times,serif" font-size="14.00">previous</text>
</g>
<!-- http://purl.org/dj/kaggle/booleans&#45;and&#45;conditionals&#45;daily#119800252 -->
<g id="node5" class="node">
<title>http://purl.org/dj/kaggle/booleans&#45;and&#45;conditionals&#45;daily#119800252</title>
<ellipse fill="none" stroke="black" cx="105.29" cy="-105" rx="105.08" ry="18"/>
<text text-anchor="middle" x="105.29" y="-101.3" font-family="Times,serif" font-size="14.00">119800252 (asf(0): Reuse)</text>
</g>
<!-- http://purl.org/dj/kaggle/booleans&#45;and&#45;conditionals&#45;daily#249692951&#45;&gt;http://purl.org/dj/kaggle/booleans&#45;and&#45;conditionals&#45;daily#119800252 -->
<g id="edge4" class="edge">
<title>http://purl.org/dj/kaggle/booleans&#45;and&#45;conditionals&#45;daily#249692951&#45;&gt;http://purl.org/dj/kaggle/booleans&#45;and&#45;conditionals&#45;daily#119800252</title>
<path fill="none" stroke="black" d="M876.19,-183.19C723.8,-172.59 451.85,-151.64 220.29,-123 210.6,-121.8 200.47,-120.45 190.4,-119.04"/>
<polygon fill="black" stroke="black" points="190.77,-115.56 180.38,-117.62 189.79,-122.49 190.77,-115.56"/>
<text text-anchor="middle" x="541.79" y="-144.8" font-family="Times,serif" font-size="14.00">previous</text>
</g>
<!-- http://purl.org/dj/kaggle/booleans&#45;and&#45;conditionals&#45;daily#2053376315 -->
<g id="node6" class="node">
<title>http://purl.org/dj/kaggle/booleans&#45;and&#45;conditionals&#45;daily#2053376315</title>
<ellipse fill="none" stroke="black" cx="1287.29" cy="-105" rx="178.97" ry="18"/>
<text text-anchor="middle" x="1287.29" y="-101.3" font-family="Times,serif" font-size="14.00">2053376315 (can_run_for_president(0): Reuse)</text>
</g>
<!-- http://purl.org/dj/kaggle/booleans&#45;and&#45;conditionals&#45;daily#249692951&#45;&gt;http://purl.org/dj/kaggle/booleans&#45;and&#45;conditionals&#45;daily#2053376315 -->
<g id="edge5" class="edge">
<title>http://purl.org/dj/kaggle/booleans&#45;and&#45;conditionals&#45;daily#249692951&#45;&gt;http://purl.org/dj/kaggle/booleans&#45;and&#45;conditionals&#45;daily#2053376315</title>
<path fill="none" stroke="black" d="M1033.76,-174.71C1059.83,-164.11 1095.23,-150.52 1127.29,-141 1149.61,-134.37 1174.02,-128.4 1196.9,-123.35"/>
<polygon fill="black" stroke="black" points="1197.92,-126.71 1206.95,-121.17 1196.43,-119.87 1197.92,-126.71"/>
<text text-anchor="middle" x="1150.79" y="-144.8" font-family="Times,serif" font-size="14.00">previous</text>
</g>
<!-- http://purl.org/dj/kaggle/booleans&#45;and&#45;conditionals&#45;daily#285868788 -->
<g id="node7" class="node">
<title>http://purl.org/dj/kaggle/booleans&#45;and&#45;conditionals&#45;daily#285868788</title>
<ellipse fill="none" stroke="black" cx="347.29" cy="-105" rx="118.08" ry="18"/>
<text text-anchor="middle" x="347.29" y="-101.3" font-family="Times,serif" font-size="14.00">285868788 (is_odd(0): Reuse)</text>
</g>
<!-- http://purl.org/dj/kaggle/booleans&#45;and&#45;conditionals&#45;daily#249692951&#45;&gt;http://purl.org/dj/kaggle/booleans&#45;and&#45;conditionals&#45;daily#285868788 -->
<g id="edge6" class="edge">
<title>http://purl.org/dj/kaggle/booleans&#45;and&#45;conditionals&#45;daily#249692951&#45;&gt;http://purl.org/dj/kaggle/booleans&#45;and&#45;conditionals&#45;daily#285868788</title>
<path fill="none" stroke="black" d="M898.35,-179.27C843.93,-172.61 774.81,-164.02 713.29,-156 620.82,-143.95 515.31,-129.45 441.41,-119.18"/>
<polygon fill="black" stroke="black" points="441.59,-115.67 431.2,-117.76 440.62,-122.61 441.59,-115.67"/>
<text text-anchor="middle" x="736.79" y="-144.8" font-family="Times,serif" font-size="14.00">previous</text>
</g>
<!-- http://purl.org/dj/kaggle/booleans&#45;and&#45;conditionals&#45;daily#29950131 -->
<g id="node8" class="node">
<title>http://purl.org/dj/kaggle/booleans&#45;and&#45;conditionals&#45;daily#29950131</title>
<ellipse fill="none" stroke="black" cx="2761.29" cy="-105" rx="94.78" ry="18"/>
<text text-anchor="middle" x="2761.29" y="-101.3" font-family="Times,serif" font-size="14.00">29950131 (1(0): Reuse)</text>
</g>
<!-- http://purl.org/dj/kaggle/booleans&#45;and&#45;conditionals&#45;daily#249692951&#45;&gt;http://purl.org/dj/kaggle/booleans&#45;and&#45;conditionals&#45;daily#29950131 -->
<g id="edge7" class="edge">
<title>http://purl.org/dj/kaggle/booleans&#45;and&#45;conditionals&#45;daily#249692951&#45;&gt;http://purl.org/dj/kaggle/booleans&#45;and&#45;conditionals&#45;daily#29950131</title>
<path fill="none" stroke="black" d="M1129.99,-189C1520.73,-183.1 2629.28,-165.56 2666.29,-156 2688.42,-150.29 2711.15,-138.57 2728.82,-127.92"/>
<polygon fill="black" stroke="black" points="2730.92,-130.73 2737.57,-122.48 2727.23,-124.79 2730.92,-130.73"/>
<text text-anchor="middle" x="2727.79" y="-144.8" font-family="Times,serif" font-size="14.00">previous</text>
</g>
<!-- http://purl.org/dj/kaggle/booleans&#45;and&#45;conditionals&#45;daily#48431340 -->
<g id="node9" class="node">
<title>http://purl.org/dj/kaggle/booleans&#45;and&#45;conditionals&#45;daily#48431340</title>
<ellipse fill="none" stroke="black" cx="583.29" cy="-105" rx="99.38" ry="18"/>
<text text-anchor="middle" x="583.29" y="-101.3" font-family="Times,serif" font-size="14.00">48431340 (55(0): Reuse)</text>
</g>
<!-- http://purl.org/dj/kaggle/booleans&#45;and&#45;conditionals&#45;daily#249692951&#45;&gt;http://purl.org/dj/kaggle/booleans&#45;and&#45;conditionals&#45;daily#48431340 -->
<g id="edge8" class="edge">
<title>http://purl.org/dj/kaggle/booleans&#45;and&#45;conditionals&#45;daily#249692951&#45;&gt;http://purl.org/dj/kaggle/booleans&#45;and&#45;conditionals&#45;daily#48431340</title>
<path fill="none" stroke="black" d="M924.93,-176.48C850.04,-161.03 732.09,-136.7 656.22,-121.05"/>
<polygon fill="black" stroke="black" points="656.77,-117.59 646.27,-118.99 655.35,-124.44 656.77,-117.59"/>
<text text-anchor="middle" x="836.79" y="-144.8" font-family="Times,serif" font-size="14.00">previous</text>
</g>
<!-- http://purl.org/dj/kaggle/booleans&#45;and&#45;conditionals&#45;daily#29687986 -->
<g id="node10" class="node">
<title>http://purl.org/dj/kaggle/booleans&#45;and&#45;conditionals&#45;daily#29687986</title>
<ellipse fill="none" stroke="black" cx="995.29" cy="-105" rx="94.78" ry="18"/>
<text text-anchor="middle" x="995.29" y="-101.3" font-family="Times,serif" font-size="14.00">29687986 (0(0): Reuse)</text>
</g>
<!-- http://purl.org/dj/kaggle/booleans&#45;and&#45;conditionals&#45;daily#249692951&#45;&gt;http://purl.org/dj/kaggle/booleans&#45;and&#45;conditionals&#45;daily#29687986 -->
<g id="edge9" class="edge">
<title>http://purl.org/dj/kaggle/booleans&#45;and&#45;conditionals&#45;daily#249692951&#45;&gt;http://purl.org/dj/kaggle/booleans&#45;and&#45;conditionals&#45;daily#29687986</title>
<path fill="none" stroke="black" d="M995.29,-173.8C995.29,-162.16 995.29,-146.55 995.29,-133.24"/>
<polygon fill="black" stroke="black" points="998.79,-133.18 995.29,-123.18 991.79,-133.18 998.79,-133.18"/>
<text text-anchor="middle" x="1018.79" y="-144.8" font-family="Times,serif" font-size="14.00">previous</text>
</g>
<!-- http://purl.org/dj/kaggle/booleans&#45;and&#45;conditionals&#45;daily -->
<g id="node11" class="node">
<title>http://purl.org/dj/kaggle/booleans&#45;and&#45;conditionals&#45;daily</title>
<ellipse fill="none" stroke="black" cx="2395.29" cy="-18" rx="124.28" ry="18"/>
<text text-anchor="middle" x="2395.29" y="-14.3" font-family="Times,serif" font-size="14.00">booleans&#45;and&#45;conditionals&#45;daily</text>
</g>
<!-- http://purl.org/dj/kaggle/booleans&#45;and&#45;conditionals&#45;daily#48169196&#45;&gt;http://purl.org/dj/kaggle/booleans&#45;and&#45;conditionals&#45;daily -->
<g id="edge10" class="edge">
<title>http://purl.org/dj/kaggle/booleans&#45;and&#45;conditionals&#45;daily#48169196&#45;&gt;http://purl.org/dj/kaggle/booleans&#45;and&#45;conditionals&#45;daily</title>
<path fill="none" stroke="black" d="M2519.6,-87.61C2495.28,-74.19 2460.69,-55.1 2434.17,-40.46"/>
<polygon fill="black" stroke="black" points="2435.6,-37.25 2425.15,-35.48 2432.22,-43.38 2435.6,-37.25"/>
<text text-anchor="middle" x="2504.79" y="-57.8" font-family="Times,serif" font-size="14.00">previous</text>
</g>
<!-- http://purl.org/dj/kaggle/booleans&#45;and&#45;conditionals&#45;daily#17039490&#45;&gt;http://purl.org/dj/kaggle/booleans&#45;and&#45;conditionals&#45;daily -->
<g id="edge11" class="edge">
<title>http://purl.org/dj/kaggle/booleans&#45;and&#45;conditionals&#45;daily#17039490&#45;&gt;http://purl.org/dj/kaggle/booleans&#45;and&#45;conditionals&#45;daily</title>
<path fill="none" stroke="black" d="M855.73,-92.28C867.53,-90.35 879.76,-88.49 891.29,-87 1054.14,-65.89 1095.38,-63.87 1259.29,-54 1621.43,-32.2 2049.37,-23.66 2261.79,-20.58"/>
<polygon fill="black" stroke="black" points="2262.1,-24.07 2272.05,-20.43 2262,-17.08 2262.1,-24.07"/>
<text text-anchor="middle" x="1282.79" y="-57.8" font-family="Times,serif" font-size="14.00">previous</text>
</g>
<!-- http://purl.org/dj/kaggle/booleans&#45;and&#45;conditionals&#45;daily#165478946&#45;&gt;http://purl.org/dj/kaggle/booleans&#45;and&#45;conditionals&#45;daily -->
<g id="edge12" class="edge">
<title>http://purl.org/dj/kaggle/booleans&#45;and&#45;conditionals&#45;daily#165478946&#45;&gt;http://purl.org/dj/kaggle/booleans&#45;and&#45;conditionals&#45;daily</title>
<path fill="none" stroke="black" d="M2335.47,-86.8C2346.42,-74.39 2361.36,-57.46 2373.57,-43.62"/>
<polygon fill="black" stroke="black" points="2376.4,-45.7 2380.39,-35.89 2371.15,-41.07 2376.4,-45.7"/>
<text text-anchor="middle" x="2384.79" y="-57.8" font-family="Times,serif" font-size="14.00">previous</text>
</g>
<!-- http://purl.org/dj/kaggle/booleans&#45;and&#45;conditionals&#45;daily#119800252&#45;&gt;http://purl.org/dj/kaggle/booleans&#45;and&#45;conditionals&#45;daily -->
<g id="edge13" class="edge">
<title>http://purl.org/dj/kaggle/booleans&#45;and&#45;conditionals&#45;daily#119800252&#45;&gt;http://purl.org/dj/kaggle/booleans&#45;and&#45;conditionals&#45;daily</title>
<path fill="none" stroke="black" d="M180.37,-92.32C193.66,-90.42 207.37,-88.56 220.29,-87 375.85,-68.2 414.85,-62.84 571.29,-54 900.24,-35.41 1899.24,-23.92 2261.92,-20.27"/>
<polygon fill="black" stroke="black" points="2261.97,-23.77 2271.94,-20.17 2261.9,-16.77 2261.97,-23.77"/>
<text text-anchor="middle" x="594.79" y="-57.8" font-family="Times,serif" font-size="14.00">previous</text>
</g>
<!-- http://purl.org/dj/kaggle/booleans&#45;and&#45;conditionals&#45;daily#2053376315&#45;&gt;http://purl.org/dj/kaggle/booleans&#45;and&#45;conditionals&#45;daily -->
<g id="edge14" class="edge">
<title>http://purl.org/dj/kaggle/booleans&#45;and&#45;conditionals&#45;daily#2053376315&#45;&gt;http://purl.org/dj/kaggle/booleans&#45;and&#45;conditionals&#45;daily</title>
<path fill="none" stroke="black" d="M1408.78,-91.76C1518.77,-80.94 1685.28,-65.17 1830.29,-54 1981.77,-42.34 2156.32,-32 2270.85,-25.64"/>
<polygon fill="black" stroke="black" points="2271.26,-29.12 2281.05,-25.07 2270.88,-22.13 2271.26,-29.12"/>
<text text-anchor="middle" x="1853.79" y="-57.8" font-family="Times,serif" font-size="14.00">previous</text>
</g>
<!-- http://purl.org/dj/kaggle/booleans&#45;and&#45;conditionals&#45;daily#285868788&#45;&gt;http://purl.org/dj/kaggle/booleans&#45;and&#45;conditionals&#45;daily -->
<g id="edge15" class="edge">
<title>http://purl.org/dj/kaggle/booleans&#45;and&#45;conditionals&#45;daily#285868788&#45;&gt;http://purl.org/dj/kaggle/booleans&#45;and&#45;conditionals&#45;daily</title>
<path fill="none" stroke="black" d="M429.1,-91.99C515.44,-79.91 655.61,-61.95 777.29,-54 1064.5,-35.24 1928.3,-24.09 2261.85,-20.39"/>
<polygon fill="black" stroke="black" points="2262.08,-23.88 2272.04,-20.27 2262.01,-16.88 2262.08,-23.88"/>
<text text-anchor="middle" x="800.79" y="-57.8" font-family="Times,serif" font-size="14.00">previous</text>
</g>
<!-- http://purl.org/dj/kaggle/booleans&#45;and&#45;conditionals&#45;daily#29950131&#45;&gt;http://purl.org/dj/kaggle/booleans&#45;and&#45;conditionals&#45;daily -->
<g id="edge16" class="edge">
<title>http://purl.org/dj/kaggle/booleans&#45;and&#45;conditionals&#45;daily#29950131&#45;&gt;http://purl.org/dj/kaggle/booleans&#45;and&#45;conditionals&#45;daily</title>
<path fill="none" stroke="black" d="M2703.7,-90.63C2640,-75.83 2537.23,-51.96 2468.02,-35.89"/>
<polygon fill="black" stroke="black" points="2468.59,-32.43 2458.06,-33.58 2467.01,-39.25 2468.59,-32.43"/>
<text text-anchor="middle" x="2622.79" y="-57.8" font-family="Times,serif" font-size="14.00">previous</text>
</g>
<!-- http://purl.org/dj/kaggle/booleans&#45;and&#45;conditionals&#45;daily#48431340&#45;&gt;http://purl.org/dj/kaggle/booleans&#45;and&#45;conditionals&#45;daily -->
<g id="edge17" class="edge">
<title>http://purl.org/dj/kaggle/booleans&#45;and&#45;conditionals&#45;daily#48431340&#45;&gt;http://purl.org/dj/kaggle/booleans&#45;and&#45;conditionals&#45;daily</title>
<path fill="none" stroke="black" d="M654.09,-92.35C666.48,-90.45 679.25,-88.59 691.29,-87 827.33,-68.99 861.36,-63.06 998.29,-54 1460.91,-23.39 2011.32,-18.98 2260.66,-18.71"/>
<polygon fill="black" stroke="black" points="2260.86,-22.21 2270.85,-18.7 2260.85,-15.21 2260.86,-22.21"/>
<text text-anchor="middle" x="1021.79" y="-57.8" font-family="Times,serif" font-size="14.00">previous</text>
</g>
<!-- http://purl.org/dj/kaggle/booleans&#45;and&#45;conditionals&#45;daily#29687986&#45;&gt;http://purl.org/dj/kaggle/booleans&#45;and&#45;conditionals&#45;daily -->
<g id="edge18" class="edge">
<title>http://purl.org/dj/kaggle/booleans&#45;and&#45;conditionals&#45;daily#29687986&#45;&gt;http://purl.org/dj/kaggle/booleans&#45;and&#45;conditionals&#45;daily</title>
<path fill="none" stroke="black" d="M1062.01,-92.12C1074.38,-90.2 1087.2,-88.38 1099.29,-87 1521.96,-38.62 2026.17,-24.61 2261.7,-20.6"/>
<polygon fill="black" stroke="black" points="2262.08,-24.09 2272.02,-20.42 2261.97,-17.09 2262.08,-24.09"/>
<text text-anchor="middle" x="1476.79" y="-57.8" font-family="Times,serif" font-size="14.00">previous</text>
</g>
<!-- http://purl.org/dj/kaggle/booleans&#45;and&#45;conditionals&#45;daily#249561878 -->
<g id="node12" class="node">
<title>http://purl.org/dj/kaggle/booleans&#45;and&#45;conditionals&#45;daily#249561878</title>
<ellipse fill="none" stroke="black" cx="2320.29" cy="-192" rx="136.48" ry="18"/>
<text text-anchor="middle" x="2320.29" y="-188.3" font-family="Times,serif" font-size="14.00">249561878 (print[0]: Visualisation)</text>
</g>
<!-- http://purl.org/dj/kaggle/booleans&#45;and&#45;conditionals&#45;daily#249561878&#45;&gt;http://purl.org/dj/kaggle/booleans&#45;and&#45;conditionals&#45;daily#165478946 -->
<g id="edge19" class="edge">
<title>http://purl.org/dj/kaggle/booleans&#45;and&#45;conditionals&#45;daily#249561878&#45;&gt;http://purl.org/dj/kaggle/booleans&#45;and&#45;conditionals&#45;daily#165478946</title>
<path fill="none" stroke="black" d="M2320.29,-173.8C2320.29,-162.16 2320.29,-146.55 2320.29,-133.24"/>
<polygon fill="black" stroke="black" points="2323.79,-133.18 2320.29,-123.18 2316.79,-133.18 2323.79,-133.18"/>
<text text-anchor="middle" x="2343.79" y="-144.8" font-family="Times,serif" font-size="14.00">previous</text>
</g>
<!-- http://purl.org/dj/kaggle/booleans&#45;and&#45;conditionals&#45;daily#249561878&#45;&gt;http://purl.org/dj/kaggle/booleans&#45;and&#45;conditionals&#45;daily#2053376315 -->
<g id="edge20" class="edge">
<title>http://purl.org/dj/kaggle/booleans&#45;and&#45;conditionals&#45;daily#249561878&#45;&gt;http://purl.org/dj/kaggle/booleans&#45;and&#45;conditionals&#45;daily#2053376315</title>
<path fill="none" stroke="black" d="M2192.9,-185.48C2072.72,-179.8 1887.58,-169.83 1727.29,-156 1616.84,-146.47 1491.22,-131.81 1402.56,-120.83"/>
<polygon fill="black" stroke="black" points="1402.84,-117.34 1392.48,-119.58 1401.97,-124.28 1402.84,-117.34"/>
<text text-anchor="middle" x="1750.79" y="-144.8" font-family="Times,serif" font-size="14.00">previous</text>
</g>
<!-- http://purl.org/dj/kaggle/booleans&#45;and&#45;conditionals&#45;daily#249561878&#45;&gt;http://purl.org/dj/kaggle/booleans&#45;and&#45;conditionals&#45;daily#29687986 -->
<g id="edge21" class="edge">
<title>http://purl.org/dj/kaggle/booleans&#45;and&#45;conditionals&#45;daily#249561878&#45;&gt;http://purl.org/dj/kaggle/booleans&#45;and&#45;conditionals&#45;daily#29687986</title>
<path fill="none" stroke="black" d="M2185.2,-189.08C1959.53,-184.62 1491.91,-170.03 1099.29,-123 1090.58,-121.96 1081.48,-120.71 1072.45,-119.37"/>
<polygon fill="black" stroke="black" points="1072.72,-115.87 1062.3,-117.82 1071.66,-122.79 1072.72,-115.87"/>
<text text-anchor="middle" x="1456.79" y="-144.8" font-family="Times,serif" font-size="14.00">previous</text>
</g>
<!-- http://purl.org/dj/kaggle/booleans&#45;and&#45;conditionals&#45;daily#47120616 -->
<g id="node13" class="node">
<title>http://purl.org/dj/kaggle/booleans&#45;and&#45;conditionals&#45;daily#47120616</title>
<ellipse fill="none" stroke="black" cx="2973.29" cy="-105" rx="99.38" ry="18"/>
<text text-anchor="middle" x="2973.29" y="-101.3" font-family="Times,serif" font-size="14.00">47120616 (15(0): Reuse)</text>
</g>
<!-- http://purl.org/dj/kaggle/booleans&#45;and&#45;conditionals&#45;daily#249561878&#45;&gt;http://purl.org/dj/kaggle/booleans&#45;and&#45;conditionals&#45;daily#47120616 -->
<g id="edge22" class="edge">
<title>http://purl.org/dj/kaggle/booleans&#45;and&#45;conditionals&#45;daily#249561878&#45;&gt;http://purl.org/dj/kaggle/booleans&#45;and&#45;conditionals&#45;daily#47120616</title>
<path fill="none" stroke="black" d="M2456.69,-190.9C2601.3,-189.36 2819.5,-182.48 2898.29,-156 2915.73,-150.14 2932.98,-139.11 2946.52,-128.9"/>
<polygon fill="black" stroke="black" points="2948.73,-131.62 2954.45,-122.7 2944.42,-126.11 2948.73,-131.62"/>
<text text-anchor="middle" x="2949.79" y="-144.8" font-family="Times,serif" font-size="14.00">previous</text>
</g>
<!-- http://purl.org/dj/kaggle/booleans&#45;and&#45;conditionals&#45;daily#408093522 -->
<g id="node14" class="node">
<title>http://purl.org/dj/kaggle/booleans&#45;and&#45;conditionals&#45;daily#408093522</title>
<ellipse fill="none" stroke="black" cx="3221.29" cy="-105" rx="130.78" ry="18"/>
<text text-anchor="middle" x="3221.29" y="-101.3" font-family="Times,serif" font-size="14.00">408093522 (Is &#45;1 odd?(0): Reuse)</text>
</g>
<!-- http://purl.org/dj/kaggle/booleans&#45;and&#45;conditionals&#45;daily#249561878&#45;&gt;http://purl.org/dj/kaggle/booleans&#45;and&#45;conditionals&#45;daily#408093522 -->
<g id="edge23" class="edge">
<title>http://purl.org/dj/kaggle/booleans&#45;and&#45;conditionals&#45;daily#249561878&#45;&gt;http://purl.org/dj/kaggle/booleans&#45;and&#45;conditionals&#45;daily#408093522</title>
<path fill="none" stroke="black" d="M2455.77,-189.66C2588.99,-186.96 2797.86,-179.03 2977.29,-156 3036.37,-148.42 3102.53,-134.51 3151.03,-123.29"/>
<polygon fill="black" stroke="black" points="3151.85,-126.69 3160.8,-121.01 3150.26,-119.88 3151.85,-126.69"/>
<text text-anchor="middle" x="3087.79" y="-144.8" font-family="Times,serif" font-size="14.00">previous</text>
</g>
<!-- http://purl.org/dj/kaggle/booleans&#45;and&#45;conditionals&#45;daily#459277189 -->
<g id="node15" class="node">
<title>http://purl.org/dj/kaggle/booleans&#45;and&#45;conditionals&#45;daily#459277189</title>
<ellipse fill="none" stroke="black" cx="3506.29" cy="-105" rx="136.48" ry="18"/>
<text text-anchor="middle" x="3506.29" y="-101.3" font-family="Times,serif" font-size="14.00">459277189 (Is 100 odd?(0): Reuse)</text>
</g>
<!-- http://purl.org/dj/kaggle/booleans&#45;and&#45;conditionals&#45;daily#249561878&#45;&gt;http://purl.org/dj/kaggle/booleans&#45;and&#45;conditionals&#45;daily#459277189 -->
<g id="edge24" class="edge">
<title>http://purl.org/dj/kaggle/booleans&#45;and&#45;conditionals&#45;daily#249561878&#45;&gt;http://purl.org/dj/kaggle/booleans&#45;and&#45;conditionals&#45;daily#459277189</title>
<path fill="none" stroke="black" d="M2454.49,-188.49C2612.72,-184.75 2883.52,-175.89 3115.29,-156 3216.48,-147.32 3331.74,-131.9 3410.76,-120.47"/>
<polygon fill="black" stroke="black" points="3411.31,-123.93 3420.7,-119.03 3410.3,-117 3411.31,-123.93"/>
<text text-anchor="middle" x="3278.79" y="-144.8" font-family="Times,serif" font-size="14.00">previous</text>
</g>
<!-- http://purl.org/dj/kaggle/booleans&#45;and&#45;conditionals&#45;daily#4266265841 -->
<g id="node16" class="node">
<title>http://purl.org/dj/kaggle/booleans&#45;and&#45;conditionals&#45;daily#4266265841</title>
<ellipse fill="none" stroke="black" cx="3889.29" cy="-105" rx="228.56" ry="18"/>
<text text-anchor="middle" x="3889.29" y="-101.3" font-family="Times,serif" font-size="14.00">4266265841 (Can a 45&#45;year&#45;old run for president?(0): Reuse)</text>
</g>
<!-- http://purl.org/dj/kaggle/booleans&#45;and&#45;conditionals&#45;daily#249561878&#45;&gt;http://purl.org/dj/kaggle/booleans&#45;and&#45;conditionals&#45;daily#4266265841 -->
<g id="edge25" class="edge">
<title>http://purl.org/dj/kaggle/booleans&#45;and&#45;conditionals&#45;daily#249561878&#45;&gt;http://purl.org/dj/kaggle/booleans&#45;and&#45;conditionals&#45;daily#4266265841</title>
<path fill="none" stroke="black" d="M2454.36,-188.37C2644.15,-184.16 3001.96,-174.44 3306.29,-156 3455.56,-146.96 3625.94,-131.78 3743.79,-120.51"/>
<polygon fill="black" stroke="black" points="3744.34,-123.98 3753.96,-119.54 3743.67,-117.01 3744.34,-123.98"/>
<text text-anchor="middle" x="3521.79" y="-144.8" font-family="Times,serif" font-size="14.00">previous</text>
</g>
<!-- http://purl.org/dj/kaggle/booleans&#45;and&#45;conditionals&#45;daily#4268166386 -->
<g id="node17" class="node">
<title>http://purl.org/dj/kaggle/booleans&#45;and&#45;conditionals&#45;daily#4268166386</title>
<ellipse fill="none" stroke="black" cx="4365.29" cy="-105" rx="228.56" ry="18"/>
<text text-anchor="middle" x="4365.29" y="-101.3" font-family="Times,serif" font-size="14.00">4268166386 (Can a 19&#45;year&#45;old run for president?(0): Reuse)</text>
</g>
<!-- http://purl.org/dj/kaggle/booleans&#45;and&#45;conditionals&#45;daily#249561878&#45;&gt;http://purl.org/dj/kaggle/booleans&#45;and&#45;conditionals&#45;daily#4268166386 -->
<g id="edge26" class="edge">
<title>http://purl.org/dj/kaggle/booleans&#45;and&#45;conditionals&#45;daily#249561878&#45;&gt;http://purl.org/dj/kaggle/booleans&#45;and&#45;conditionals&#45;daily#4268166386</title>
<path fill="none" stroke="black" d="M2454.46,-188.43C2680.43,-183.83 3151.3,-173.03 3549.29,-156 3806.36,-145 3870.51,-139.5 4127.29,-123 4148.99,-121.61 4171.79,-120.07 4194.34,-118.51"/>
<polygon fill="black" stroke="black" points="4194.59,-122 4204.32,-117.81 4194.1,-115.01 4194.59,-122"/>
<text text-anchor="middle" x="3861.79" y="-144.8" font-family="Times,serif" font-size="14.00">previous</text>
</g>
<!-- http://purl.org/dj/kaggle/booleans&#45;and&#45;conditionals&#45;daily#181273156 -->
<g id="node18" class="node">
<title>http://purl.org/dj/kaggle/booleans&#45;and&#45;conditionals&#45;daily#181273156</title>
<ellipse fill="none" stroke="black" cx="1594.29" cy="-105" rx="110.48" ry="18"/>
<text text-anchor="middle" x="1594.29" y="-101.3" font-family="Times,serif" font-size="14.00">181273156 (type(0): Reuse)</text>
</g>
<!-- http://purl.org/dj/kaggle/booleans&#45;and&#45;conditionals&#45;daily#249561878&#45;&gt;http://purl.org/dj/kaggle/booleans&#45;and&#45;conditionals&#45;daily#181273156 -->
<g id="edge27" class="edge">
<title>http://purl.org/dj/kaggle/booleans&#45;and&#45;conditionals&#45;daily#249561878&#45;&gt;http://purl.org/dj/kaggle/booleans&#45;and&#45;conditionals&#45;daily#181273156</title>
<path fill="none" stroke="black" d="M2195.31,-184.69C2104.81,-179.3 1979.68,-170.12 1870.29,-156 1801.75,-147.15 1724.38,-132.75 1669.04,-121.67"/>
<polygon fill="black" stroke="black" points="1669.46,-118.18 1658.97,-119.64 1668.08,-125.04 1669.46,-118.18"/>
<text text-anchor="middle" x="1893.79" y="-144.8" font-family="Times,serif" font-size="14.00">previous</text>
</g>
<!-- http://purl.org/dj/kaggle/booleans&#45;and&#45;conditionals&#45;daily#170590766 -->
<g id="node19" class="node">
<title>http://purl.org/dj/kaggle/booleans&#45;and&#45;conditionals&#45;daily#170590766</title>
<ellipse fill="none" stroke="black" cx="1833.29" cy="-105" rx="110.48" ry="18"/>
<text text-anchor="middle" x="1833.29" y="-101.3" font-family="Times,serif" font-size="14.00">170590766 (bool(0): Reuse)</text>
</g>
<!-- http://purl.org/dj/kaggle/booleans&#45;and&#45;conditionals&#45;daily#249561878&#45;&gt;http://purl.org/dj/kaggle/booleans&#45;and&#45;conditionals&#45;daily#170590766 -->
<g id="edge28" class="edge">
<title>http://purl.org/dj/kaggle/booleans&#45;and&#45;conditionals&#45;daily#249561878&#45;&gt;http://purl.org/dj/kaggle/booleans&#45;and&#45;conditionals&#45;daily#170590766</title>
<path fill="none" stroke="black" d="M2192.61,-185.54C2126.53,-180.85 2044.91,-172.15 1973.29,-156 1941.34,-148.8 1906.66,-136.45 1879.81,-125.82"/>
<polygon fill="black" stroke="black" points="1880.87,-122.48 1870.29,-122 1878.27,-128.97 1880.87,-122.48"/>
<text text-anchor="middle" x="1996.79" y="-144.8" font-family="Times,serif" font-size="14.00">previous</text>
</g>
<!-- http://purl.org/dj/kaggle/booleans&#45;and&#45;conditionals&#45;daily#174457395 -->
<g id="node20" class="node">
<title>http://purl.org/dj/kaggle/booleans&#45;and&#45;conditionals&#45;daily#174457395</title>
<ellipse fill="none" stroke="black" cx="2076.29" cy="-105" rx="114.28" ry="18"/>
<text text-anchor="middle" x="2076.29" y="-101.3" font-family="Times,serif" font-size="14.00">174457395 (spam(0): Reuse)</text>
</g>
<!-- http://purl.org/dj/kaggle/booleans&#45;and&#45;conditionals&#45;daily#249561878&#45;&gt;http://purl.org/dj/kaggle/booleans&#45;and&#45;conditionals&#45;daily#174457395 -->
<g id="edge29" class="edge">
<title>http://purl.org/dj/kaggle/booleans&#45;and&#45;conditionals&#45;daily#249561878&#45;&gt;http://purl.org/dj/kaggle/booleans&#45;and&#45;conditionals&#45;daily#174457395</title>
<path fill="none" stroke="black" d="M2274.4,-175.01C2233.58,-160.79 2173.85,-139.99 2130.66,-124.94"/>
<polygon fill="black" stroke="black" points="2131.75,-121.61 2121.16,-121.63 2129.45,-128.22 2131.75,-121.61"/>
<text text-anchor="middle" x="2235.79" y="-144.8" font-family="Times,serif" font-size="14.00">previous</text>
</g>
<!-- http://purl.org/dj/kaggle/booleans&#45;and&#45;conditionals&#45;daily#47120616&#45;&gt;http://purl.org/dj/kaggle/booleans&#45;and&#45;conditionals&#45;daily -->
<g id="edge30" class="edge">
<title>http://purl.org/dj/kaggle/booleans&#45;and&#45;conditionals&#45;daily#47120616&#45;&gt;http://purl.org/dj/kaggle/booleans&#45;and&#45;conditionals&#45;daily</title>
<path fill="none" stroke="black" d="M2900.97,-92.58C2889.05,-90.71 2876.83,-88.79 2865.29,-87 2769.76,-72.15 2745.96,-67.91 2650.29,-54 2598.48,-46.47 2540.68,-38.5 2493.22,-32.07"/>
<polygon fill="black" stroke="black" points="2493.64,-28.6 2483.26,-30.72 2492.7,-35.53 2493.64,-28.6"/>
<text text-anchor="middle" x="2769.79" y="-57.8" font-family="Times,serif" font-size="14.00">previous</text>
</g>
<!-- http://purl.org/dj/kaggle/booleans&#45;and&#45;conditionals&#45;daily#408093522&#45;&gt;http://purl.org/dj/kaggle/booleans&#45;and&#45;conditionals&#45;daily -->
<g id="edge31" class="edge">
<title>http://purl.org/dj/kaggle/booleans&#45;and&#45;conditionals&#45;daily#408093522&#45;&gt;http://purl.org/dj/kaggle/booleans&#45;and&#45;conditionals&#45;daily</title>
<path fill="none" stroke="black" d="M3127.16,-92.5C3111.83,-90.65 3096.12,-88.76 3081.29,-87 2955.11,-72.01 2923.71,-66.85 2797.29,-54 2701.21,-44.24 2592.04,-34.84 2511.73,-28.25"/>
<polygon fill="black" stroke="black" points="2511.84,-24.74 2501.59,-27.41 2511.27,-31.72 2511.84,-24.74"/>
<text text-anchor="middle" x="2952.79" y="-57.8" font-family="Times,serif" font-size="14.00">previous</text>
</g>
<!-- http://purl.org/dj/kaggle/booleans&#45;and&#45;conditionals&#45;daily#459277189&#45;&gt;http://purl.org/dj/kaggle/booleans&#45;and&#45;conditionals&#45;daily -->
<g id="edge32" class="edge">
<title>http://purl.org/dj/kaggle/booleans&#45;and&#45;conditionals&#45;daily#459277189&#45;&gt;http://purl.org/dj/kaggle/booleans&#45;and&#45;conditionals&#45;daily</title>
<path fill="none" stroke="black" d="M3409.62,-92.25C3393.49,-90.41 3376.92,-88.59 3361.29,-87 3192.2,-69.77 3149.8,-66.41 2980.29,-54 2821.67,-42.39 2638.64,-31.91 2520.16,-25.51"/>
<polygon fill="black" stroke="black" points="2520.14,-22 2509.96,-24.96 2519.76,-28.99 2520.14,-22"/>
<text text-anchor="middle" x="3193.79" y="-57.8" font-family="Times,serif" font-size="14.00">previous</text>
</g>
<!-- http://purl.org/dj/kaggle/booleans&#45;and&#45;conditionals&#45;daily#4266265841&#45;&gt;http://purl.org/dj/kaggle/booleans&#45;and&#45;conditionals&#45;daily -->
<g id="edge33" class="edge">
<title>http://purl.org/dj/kaggle/booleans&#45;and&#45;conditionals&#45;daily#4266265841&#45;&gt;http://purl.org/dj/kaggle/booleans&#45;and&#45;conditionals&#45;daily</title>
<path fill="none" stroke="black" d="M3739.49,-91.39C3604.16,-80.34 3399.5,-64.44 3221.29,-54 2975.33,-39.59 2687.84,-28.77 2525.1,-23.2"/>
<polygon fill="black" stroke="black" points="2525.16,-19.7 2515.04,-22.86 2524.92,-26.7 2525.16,-19.7"/>
<text text-anchor="middle" x="3464.79" y="-57.8" font-family="Times,serif" font-size="14.00">previous</text>
</g>
<!-- http://purl.org/dj/kaggle/booleans&#45;and&#45;conditionals&#45;daily#4268166386&#45;&gt;http://purl.org/dj/kaggle/booleans&#45;and&#45;conditionals&#45;daily -->
<g id="edge34" class="edge">
<title>http://purl.org/dj/kaggle/booleans&#45;and&#45;conditionals&#45;daily#4268166386&#45;&gt;http://purl.org/dj/kaggle/booleans&#45;and&#45;conditionals&#45;daily</title>
<path fill="none" stroke="black" d="M4204.97,-92.12C4179.01,-90.32 4152.41,-88.55 4127.29,-87 3845.22,-69.6 3774.65,-65.84 3492.29,-54 3143.59,-39.38 2732.32,-27.76 2526.5,-22.34"/>
<polygon fill="black" stroke="black" points="2526.34,-18.83 2516.25,-22.07 2526.16,-25.83 2526.34,-18.83"/>
<text text-anchor="middle" x="3843.79" y="-57.8" font-family="Times,serif" font-size="14.00">previous</text>
</g>
<!-- http://purl.org/dj/kaggle/booleans&#45;and&#45;conditionals&#45;daily#181273156&#45;&gt;http://purl.org/dj/kaggle/booleans&#45;and&#45;conditionals&#45;daily -->
<g id="edge35" class="edge">
<title>http://purl.org/dj/kaggle/booleans&#45;and&#45;conditionals&#45;daily#181273156&#45;&gt;http://purl.org/dj/kaggle/booleans&#45;and&#45;conditionals&#45;daily</title>
<path fill="none" stroke="black" d="M1673.31,-92.39C1686.96,-90.5 1701.03,-88.63 1714.29,-87 1913.32,-62.48 2145.92,-40.74 2281.31,-28.76"/>
<polygon fill="black" stroke="black" points="2281.64,-32.25 2291.29,-27.88 2281.02,-25.28 2281.64,-32.25"/>
<text text-anchor="middle" x="2035.79" y="-57.8" font-family="Times,serif" font-size="14.00">previous</text>
</g>
<!-- http://purl.org/dj/kaggle/booleans&#45;and&#45;conditionals&#45;daily#170590766&#45;&gt;http://purl.org/dj/kaggle/booleans&#45;and&#45;conditionals&#45;daily -->
<g id="edge36" class="edge">
<title>http://purl.org/dj/kaggle/booleans&#45;and&#45;conditionals&#45;daily#170590766&#45;&gt;http://purl.org/dj/kaggle/booleans&#45;and&#45;conditionals&#45;daily</title>
<path fill="none" stroke="black" d="M1911.14,-92.23C2013.57,-76.73 2193.36,-49.54 2302.67,-33.01"/>
<polygon fill="black" stroke="black" points="2303.33,-36.45 2312.7,-31.49 2302.28,-29.53 2303.33,-36.45"/>
<text text-anchor="middle" x="2170.79" y="-57.8" font-family="Times,serif" font-size="14.00">previous</text>
</g>
<!-- http://purl.org/dj/kaggle/booleans&#45;and&#45;conditionals&#45;daily#174457395&#45;&gt;http://purl.org/dj/kaggle/booleans&#45;and&#45;conditionals&#45;daily -->
<g id="edge37" class="edge">
<title>http://purl.org/dj/kaggle/booleans&#45;and&#45;conditionals&#45;daily#174457395&#45;&gt;http://purl.org/dj/kaggle/booleans&#45;and&#45;conditionals&#45;daily</title>
<path fill="none" stroke="black" d="M2131.86,-89.19C2186.7,-74.58 2270.58,-52.23 2328.9,-36.69"/>
<polygon fill="black" stroke="black" points="2329.99,-40.02 2338.75,-34.06 2328.19,-33.26 2329.99,-40.02"/>
<text text-anchor="middle" x="2277.79" y="-57.8" font-family="Times,serif" font-size="14.00">previous</text>
</g>
<!-- http://purl.org/dj/kaggle/booleans&#45;and&#45;conditionals&#45;daily#249824024 -->
<g id="node21" class="node">
<title>http://purl.org/dj/kaggle/booleans&#45;and&#45;conditionals&#45;daily#249824024</title>
<ellipse fill="none" stroke="black" cx="4496.29" cy="-192" rx="136.48" ry="18"/>
<text text-anchor="middle" x="4496.29" y="-188.3" font-family="Times,serif" font-size="14.00">249824024 (print[2]: Visualisation)</text>
</g>
<!-- http://purl.org/dj/kaggle/booleans&#45;and&#45;conditionals&#45;daily#249824024&#45;&gt;http://purl.org/dj/kaggle/booleans&#45;and&#45;conditionals&#45;daily#48169196 -->
<g id="edge38" class="edge">
<title>http://purl.org/dj/kaggle/booleans&#45;and&#45;conditionals&#45;daily#249824024&#45;&gt;http://purl.org/dj/kaggle/booleans&#45;and&#45;conditionals&#45;daily#48169196</title>
<path fill="none" stroke="black" d="M4359.89,-190.65C4019.53,-189.38 3139.24,-183.44 2847.29,-156 2841.82,-155.49 2715.76,-134.21 2629.37,-119.58"/>
<polygon fill="black" stroke="black" points="2629.75,-116.1 2619.31,-117.88 2628.58,-123 2629.75,-116.1"/>
<text text-anchor="middle" x="2870.79" y="-144.8" font-family="Times,serif" font-size="14.00">previous</text>
</g>
<!-- http://purl.org/dj/kaggle/booleans&#45;and&#45;conditionals&#45;daily#249824024&#45;&gt;http://purl.org/dj/kaggle/booleans&#45;and&#45;conditionals&#45;daily#165478946 -->
<g id="edge39" class="edge">
<title>http://purl.org/dj/kaggle/booleans&#45;and&#45;conditionals&#45;daily#249824024&#45;&gt;http://purl.org/dj/kaggle/booleans&#45;and&#45;conditionals&#45;daily#165478946</title>
<path fill="none" stroke="black" d="M4359.72,-191.11C3986.35,-190.97 2953.91,-187.67 2615.29,-156 2539.63,-148.92 2454.11,-133.61 2394.71,-121.78"/>
<polygon fill="black" stroke="black" points="2395.16,-118.3 2384.67,-119.76 2393.78,-125.16 2395.16,-118.3"/>
<text text-anchor="middle" x="2638.79" y="-144.8" font-family="Times,serif" font-size="14.00">previous</text>
</g>
<!-- http://purl.org/dj/kaggle/booleans&#45;and&#45;conditionals&#45;daily#249824024&#45;&gt;http://purl.org/dj/kaggle/booleans&#45;and&#45;conditionals&#45;daily#29950131 -->
<g id="edge40" class="edge">
<title>http://purl.org/dj/kaggle/booleans&#45;and&#45;conditionals&#45;daily#249824024&#45;&gt;http://purl.org/dj/kaggle/booleans&#45;and&#45;conditionals&#45;daily#29950131</title>
<path fill="none" stroke="black" d="M4414.54,-177.58C4336.99,-165.51 4217.06,-148.55 4112.29,-141 3559.45,-101.15 3417.41,-171.84 2865.29,-123 2855.89,-122.17 2846.06,-120.98 2836.34,-119.62"/>
<polygon fill="black" stroke="black" points="2836.69,-116.13 2826.29,-118.14 2835.67,-123.06 2836.69,-116.13"/>
<text text-anchor="middle" x="4283.79" y="-144.8" font-family="Times,serif" font-size="14.00">previous</text>
</g>
<!-- http://purl.org/dj/kaggle/booleans&#45;and&#45;conditionals&#45;daily#48103659 -->
<g id="node22" class="node">
<title>http://purl.org/dj/kaggle/booleans&#45;and&#45;conditionals&#45;daily#48103659</title>
<ellipse fill="none" stroke="black" cx="4711.29" cy="-105" rx="99.38" ry="18"/>
<text text-anchor="middle" x="4711.29" y="-101.3" font-family="Times,serif" font-size="14.00">48103659 (45(0): Reuse)</text>
</g>
<!-- http://purl.org/dj/kaggle/booleans&#45;and&#45;conditionals&#45;daily#249824024&#45;&gt;http://purl.org/dj/kaggle/booleans&#45;and&#45;conditionals&#45;daily#48103659 -->
<g id="edge41" class="edge">
<title>http://purl.org/dj/kaggle/booleans&#45;and&#45;conditionals&#45;daily#249824024&#45;&gt;http://purl.org/dj/kaggle/booleans&#45;and&#45;conditionals&#45;daily#48103659</title>
<path fill="none" stroke="black" d="M4537.24,-174.81C4572.8,-160.75 4624.39,-140.36 4662.17,-125.42"/>
<polygon fill="black" stroke="black" points="4663.94,-128.49 4671.95,-121.55 4661.36,-121.98 4663.94,-128.49"/>
<text text-anchor="middle" x="4639.79" y="-144.8" font-family="Times,serif" font-size="14.00">previous</text>
</g>
<!-- http://purl.org/dj/kaggle/booleans&#45;and&#45;conditionals&#45;daily#64815379 -->
<g id="node23" class="node">
<title>http://purl.org/dj/kaggle/booleans&#45;and&#45;conditionals&#45;daily#64815379</title>
<ellipse fill="none" stroke="black" cx="4932.29" cy="-105" rx="103.98" ry="18"/>
<text text-anchor="middle" x="4932.29" y="-101.3" font-family="Times,serif" font-size="14.00">64815379 (100(0): Reuse)</text>
</g>
<!-- http://purl.org/dj/kaggle/booleans&#45;and&#45;conditionals&#45;daily#249824024&#45;&gt;http://purl.org/dj/kaggle/booleans&#45;and&#45;conditionals&#45;daily#64815379 -->
<g id="edge42" class="edge">
<title>http://purl.org/dj/kaggle/booleans&#45;and&#45;conditionals&#45;daily#249824024&#45;&gt;http://purl.org/dj/kaggle/booleans&#45;and&#45;conditionals&#45;daily#64815379</title>
<path fill="none" stroke="black" d="M4569.27,-176.77C4648.66,-161.3 4775.01,-136.66 4855.77,-120.92"/>
<polygon fill="black" stroke="black" points="4856.73,-124.3 4865.87,-118.95 4855.39,-117.43 4856.73,-124.3"/>
<text text-anchor="middle" x="4763.79" y="-144.8" font-family="Times,serif" font-size="14.00">previous</text>
</g>
<!-- http://purl.org/dj/kaggle/booleans&#45;and&#45;conditionals&#45;daily#205193837 -->
<g id="node24" class="node">
<title>http://purl.org/dj/kaggle/booleans&#45;and&#45;conditionals&#45;daily#205193837</title>
<ellipse fill="none" stroke="black" cx="5168.29" cy="-105" rx="113.98" ry="18"/>
<text text-anchor="middle" x="5168.29" y="-101.3" font-family="Times,serif" font-size="14.00">205193837 (False(0): Reuse)</text>
</g>
<!-- http://purl.org/dj/kaggle/booleans&#45;and&#45;conditionals&#45;daily#249824024&#45;&gt;http://purl.org/dj/kaggle/booleans&#45;and&#45;conditionals&#45;daily#205193837 -->
<g id="edge43" class="edge">
<title>http://purl.org/dj/kaggle/booleans&#45;and&#45;conditionals&#45;daily#249824024&#45;&gt;http://purl.org/dj/kaggle/booleans&#45;and&#45;conditionals&#45;daily#205193837</title>
<path fill="none" stroke="black" d="M4594.99,-179.57C4652.32,-172.86 4725.91,-164.13 4791.29,-156 4904.26,-141.96 4932.46,-138.13 5045.29,-123 5055.25,-121.67 5065.66,-120.25 5076.02,-118.84"/>
<polygon fill="black" stroke="black" points="5076.5,-122.3 5085.93,-117.48 5075.55,-115.37 5076.5,-122.3"/>
<text text-anchor="middle" x="4932.79" y="-144.8" font-family="Times,serif" font-size="14.00">previous</text>
</g>
<!-- http://purl.org/dj/kaggle/booleans&#45;and&#45;conditionals&#45;daily#48103659&#45;&gt;http://purl.org/dj/kaggle/booleans&#45;and&#45;conditionals&#45;daily -->
<g id="edge44" class="edge">
<title>http://purl.org/dj/kaggle/booleans&#45;and&#45;conditionals&#45;daily#48103659&#45;&gt;http://purl.org/dj/kaggle/booleans&#45;and&#45;conditionals&#45;daily</title>
<path fill="none" stroke="black" d="M4642.3,-91.97C4629.37,-90.05 4615.94,-88.28 4603.29,-87 4279.27,-54.3 4196.76,-65.19 3871.29,-54 3375.82,-36.96 2786.49,-25.69 2527.96,-21.2"/>
<polygon fill="black" stroke="black" points="2527.84,-17.69 2517.78,-21.02 2527.72,-24.69 2527.84,-17.69"/>
<text text-anchor="middle" x="4399.79" y="-57.8" font-family="Times,serif" font-size="14.00">previous</text>
</g>
<!-- http://purl.org/dj/kaggle/booleans&#45;and&#45;conditionals&#45;daily#64815379&#45;&gt;http://purl.org/dj/kaggle/booleans&#45;and&#45;conditionals&#45;daily -->
<g id="edge45" class="edge">
<title>http://purl.org/dj/kaggle/booleans&#45;and&#45;conditionals&#45;daily#64815379&#45;&gt;http://purl.org/dj/kaggle/booleans&#45;and&#45;conditionals&#45;daily</title>
<path fill="none" stroke="black" d="M4858.83,-92.24C4845.69,-90.34 4832.1,-88.5 4819.29,-87 4645.64,-66.65 4601.91,-62.84 4427.29,-54 4056.18,-35.2 2920.15,-23.64 2529.16,-20.14"/>
<polygon fill="black" stroke="black" points="2528.96,-16.64 2518.93,-20.05 2528.9,-23.64 2528.96,-16.64"/>
<text text-anchor="middle" x="4672.79" y="-57.8" font-family="Times,serif" font-size="14.00">previous</text>
</g>
<!-- http://purl.org/dj/kaggle/booleans&#45;and&#45;conditionals&#45;daily#205193837&#45;&gt;http://purl.org/dj/kaggle/booleans&#45;and&#45;conditionals&#45;daily -->
<g id="edge46" class="edge">
<title>http://purl.org/dj/kaggle/booleans&#45;and&#45;conditionals&#45;daily#205193837&#45;&gt;http://purl.org/dj/kaggle/booleans&#45;and&#45;conditionals&#45;daily</title>
<path fill="none" stroke="black" d="M5087.3,-92.31C5073.31,-90.44 5058.89,-88.59 5045.29,-87 4892.3,-69.12 4854.09,-62.51 4700.29,-54 4273.68,-30.4 2955.26,-21.82 2529.42,-19.62"/>
<polygon fill="black" stroke="black" points="2529.24,-16.12 2519.22,-19.57 2529.2,-23.12 2529.24,-16.12"/>
<text text-anchor="middle" x="4913.79" y="-57.8" font-family="Times,serif" font-size="14.00">previous</text>
</g>
</g>
</svg>
