<?xml version="1.0" encoding="UTF-8" standalone="no"?>
<!DOCTYPE svg PUBLIC "-//W3C//DTD SVG 1.1//EN"
 "http://www.w3.org/Graphics/SVG/1.1/DTD/svg11.dtd">
<!-- Generated by graphviz version 2.44.1 (20200629.0846)
 -->
<!-- Pages: 1 -->
<svg width="5507pt" height="218pt"
 viewBox="0.00 0.00 5507.18 218.00" xmlns="http://www.w3.org/2000/svg" xmlns:xlink="http://www.w3.org/1999/xlink">
<g id="graph0" class="graph" transform="scale(1 1) rotate(0) translate(4 214)">
<polygon fill="white" stroke="transparent" points="-4,4 -4,-214 5503.18,-214 5503.18,4 -4,4"/>
<!-- http://purl.org/dj/kaggle/booleans&#45;and&#45;conditionals#48103658 -->
<g id="node1" class="node">
<title>http://purl.org/dj/kaggle/booleans&#45;and&#45;conditionals#48103658</title>
<ellipse fill="none" stroke="black" cx="570.74" cy="-105" rx="99.38" ry="18"/>
<text text-anchor="middle" x="570.74" y="-101.3" font-family="Times,serif" font-size="14.00">48103658 (80(0): Reuse)</text>
</g>
<!-- http://purl.org/dj/kaggle/booleans&#45;and&#45;conditionals -->
<g id="node2" class="node">
<title>http://purl.org/dj/kaggle/booleans&#45;and&#45;conditionals</title>
<ellipse fill="none" stroke="black" cx="2450.74" cy="-18" rx="103.18" ry="18"/>
<text text-anchor="middle" x="2450.74" y="-14.3" font-family="Times,serif" font-size="14.00">booleans&#45;and&#45;conditionals</text>
</g>
<!-- http://purl.org/dj/kaggle/booleans&#45;and&#45;conditionals#48103658&#45;&gt;http://purl.org/dj/kaggle/booleans&#45;and&#45;conditionals -->
<g id="edge1" class="edge">
<title>http://purl.org/dj/kaggle/booleans&#45;and&#45;conditionals#48103658&#45;&gt;http://purl.org/dj/kaggle/booleans&#45;and&#45;conditionals</title>
<path fill="none" stroke="black" d="M641.91,-92.4C654.5,-90.49 667.49,-88.61 679.74,-87 816.24,-69.05 850.36,-62.99 987.74,-54 1490.04,-21.14 2091.15,-18.18 2337.26,-18.52"/>
<polygon fill="black" stroke="black" points="2337.28,-22.02 2347.29,-18.54 2337.29,-15.02 2337.28,-22.02"/>
<text text-anchor="middle" x="1011.24" y="-57.8" font-family="Times,serif" font-size="14.00">previous</text>
</g>
<!-- http://purl.org/dj/kaggle/booleans&#45;and&#45;conditionals#249824024 -->
<g id="node3" class="node">
<title>http://purl.org/dj/kaggle/booleans&#45;and&#45;conditionals#249824024</title>
<ellipse fill="none" stroke="black" cx="914.74" cy="-192" rx="136.48" ry="18"/>
<text text-anchor="middle" x="914.74" y="-188.3" font-family="Times,serif" font-size="14.00">249824024 (print[2]: Visualisation)</text>
</g>
<!-- http://purl.org/dj/kaggle/booleans&#45;and&#45;conditionals#48169196 -->
<g id="node4" class="node">
<title>http://purl.org/dj/kaggle/booleans&#45;and&#45;conditionals#48169196</title>
<ellipse fill="none" stroke="black" cx="1004.74" cy="-105" rx="99.38" ry="18"/>
<text text-anchor="middle" x="1004.74" y="-101.3" font-family="Times,serif" font-size="14.00">48169196 (19(0): Reuse)</text>
</g>
<!-- http://purl.org/dj/kaggle/booleans&#45;and&#45;conditionals#249824024&#45;&gt;http://purl.org/dj/kaggle/booleans&#45;and&#45;conditionals#48169196 -->
<g id="edge2" class="edge">
<title>http://purl.org/dj/kaggle/booleans&#45;and&#45;conditionals#249824024&#45;&gt;http://purl.org/dj/kaggle/booleans&#45;and&#45;conditionals#48169196</title>
<path fill="none" stroke="black" d="M932.95,-173.8C946.34,-161.16 964.69,-143.82 979.49,-129.85"/>
<polygon fill="black" stroke="black" points="981.99,-132.3 986.86,-122.89 977.19,-127.21 981.99,-132.3"/>
<text text-anchor="middle" x="988.24" y="-144.8" font-family="Times,serif" font-size="14.00">previous</text>
</g>
<!-- http://purl.org/dj/kaggle/booleans&#45;and&#45;conditionals#165478946 -->
<g id="node5" class="node">
<title>http://purl.org/dj/kaggle/booleans&#45;and&#45;conditionals#165478946</title>
<ellipse fill="none" stroke="black" cx="1441.74" cy="-105" rx="111.58" ry="18"/>
<text text-anchor="middle" x="1441.74" y="-101.3" font-family="Times,serif" font-size="14.00">165478946 (True(0): Reuse)</text>
</g>
<!-- http://purl.org/dj/kaggle/booleans&#45;and&#45;conditionals#249824024&#45;&gt;http://purl.org/dj/kaggle/booleans&#45;and&#45;conditionals#165478946 -->
<g id="edge3" class="edge">
<title>http://purl.org/dj/kaggle/booleans&#45;and&#45;conditionals#249824024&#45;&gt;http://purl.org/dj/kaggle/booleans&#45;and&#45;conditionals#165478946</title>
<path fill="none" stroke="black" d="M1048.63,-188.35C1126.04,-184.54 1224.82,-175.79 1310.74,-156 1340.71,-149.1 1373.01,-136.83 1398.04,-126.17"/>
<polygon fill="black" stroke="black" points="1399.47,-129.36 1407.26,-122.18 1396.69,-122.94 1399.47,-129.36"/>
<text text-anchor="middle" x="1381.24" y="-144.8" font-family="Times,serif" font-size="14.00">previous</text>
</g>
<!-- http://purl.org/dj/kaggle/booleans&#45;and&#45;conditionals#29950131 -->
<g id="node6" class="node">
<title>http://purl.org/dj/kaggle/booleans&#45;and&#45;conditionals#29950131</title>
<ellipse fill="none" stroke="black" cx="1216.74" cy="-105" rx="94.78" ry="18"/>
<text text-anchor="middle" x="1216.74" y="-101.3" font-family="Times,serif" font-size="14.00">29950131 (1(0): Reuse)</text>
</g>
<!-- http://purl.org/dj/kaggle/booleans&#45;and&#45;conditionals#249824024&#45;&gt;http://purl.org/dj/kaggle/booleans&#45;and&#45;conditionals#29950131 -->
<g id="edge4" class="edge">
<title>http://purl.org/dj/kaggle/booleans&#45;and&#45;conditionals#249824024&#45;&gt;http://purl.org/dj/kaggle/booleans&#45;and&#45;conditionals#29950131</title>
<path fill="none" stroke="black" d="M1023.27,-181.08C1057.96,-175.87 1096.07,-167.97 1129.74,-156 1149.13,-149.11 1169.15,-137.93 1185.09,-127.89"/>
<polygon fill="black" stroke="black" points="1186.99,-130.83 1193.49,-122.46 1183.19,-124.95 1186.99,-130.83"/>
<text text-anchor="middle" x="1185.24" y="-144.8" font-family="Times,serif" font-size="14.00">previous</text>
</g>
<!-- http://purl.org/dj/kaggle/booleans&#45;and&#45;conditionals#48103659 -->
<g id="node7" class="node">
<title>http://purl.org/dj/kaggle/booleans&#45;and&#45;conditionals#48103659</title>
<ellipse fill="none" stroke="black" cx="787.74" cy="-105" rx="99.38" ry="18"/>
<text text-anchor="middle" x="787.74" y="-101.3" font-family="Times,serif" font-size="14.00">48103659 (45(0): Reuse)</text>
</g>
<!-- http://purl.org/dj/kaggle/booleans&#45;and&#45;conditionals#249824024&#45;&gt;http://purl.org/dj/kaggle/booleans&#45;and&#45;conditionals#48103659 -->
<g id="edge5" class="edge">
<title>http://purl.org/dj/kaggle/booleans&#45;and&#45;conditionals#249824024&#45;&gt;http://purl.org/dj/kaggle/booleans&#45;and&#45;conditionals#48103659</title>
<path fill="none" stroke="black" d="M842.86,-176.57C830.43,-171.61 818.42,-164.94 808.74,-156 802.15,-149.91 797.56,-141.43 794.39,-133.18"/>
<polygon fill="black" stroke="black" points="797.63,-131.82 791.19,-123.41 790.98,-134 797.63,-131.82"/>
<text text-anchor="middle" x="832.24" y="-144.8" font-family="Times,serif" font-size="14.00">previous</text>
</g>
<!-- http://purl.org/dj/kaggle/booleans&#45;and&#45;conditionals#205193837 -->
<g id="node8" class="node">
<title>http://purl.org/dj/kaggle/booleans&#45;and&#45;conditionals#205193837</title>
<ellipse fill="none" stroke="black" cx="113.74" cy="-105" rx="113.98" ry="18"/>
<text text-anchor="middle" x="113.74" y="-101.3" font-family="Times,serif" font-size="14.00">205193837 (False(0): Reuse)</text>
</g>
<!-- http://purl.org/dj/kaggle/booleans&#45;and&#45;conditionals#249824024&#45;&gt;http://purl.org/dj/kaggle/booleans&#45;and&#45;conditionals#205193837 -->
<g id="edge6" class="edge">
<title>http://purl.org/dj/kaggle/booleans&#45;and&#45;conditionals#249824024&#45;&gt;http://purl.org/dj/kaggle/booleans&#45;and&#45;conditionals#205193837</title>
<path fill="none" stroke="black" d="M810.16,-180.41C787.91,-178.23 764.55,-175.99 742.74,-174 647.25,-165.28 623.17,-165.4 527.74,-156 398.2,-143.24 365.88,-139.24 236.74,-123 226.61,-121.73 216.02,-120.34 205.48,-118.93"/>
<polygon fill="black" stroke="black" points="205.79,-115.44 195.41,-117.57 204.86,-122.38 205.79,-115.44"/>
<text text-anchor="middle" x="551.24" y="-144.8" font-family="Times,serif" font-size="14.00">previous</text>
</g>
<!-- http://purl.org/dj/kaggle/booleans&#45;and&#45;conditionals#64815379 -->
<g id="node9" class="node">
<title>http://purl.org/dj/kaggle/booleans&#45;and&#45;conditionals#64815379</title>
<ellipse fill="none" stroke="black" cx="349.74" cy="-105" rx="103.98" ry="18"/>
<text text-anchor="middle" x="349.74" y="-101.3" font-family="Times,serif" font-size="14.00">64815379 (100(0): Reuse)</text>
</g>
<!-- http://purl.org/dj/kaggle/booleans&#45;and&#45;conditionals#249824024&#45;&gt;http://purl.org/dj/kaggle/booleans&#45;and&#45;conditionals#64815379 -->
<g id="edge7" class="edge">
<title>http://purl.org/dj/kaggle/booleans&#45;and&#45;conditionals#249824024&#45;&gt;http://purl.org/dj/kaggle/booleans&#45;and&#45;conditionals#64815379</title>
<path fill="none" stroke="black" d="M814.2,-179.82C746.9,-171.96 667.95,-161.82 652.74,-156 641.69,-151.77 641.85,-145.09 630.74,-141 560.27,-115.07 537.22,-132.59 462.74,-123 453.47,-121.81 443.78,-120.48 434.14,-119.1"/>
<polygon fill="black" stroke="black" points="434.53,-115.62 424.14,-117.65 433.53,-122.55 434.53,-115.62"/>
<text text-anchor="middle" x="676.24" y="-144.8" font-family="Times,serif" font-size="14.00">previous</text>
</g>
<!-- http://purl.org/dj/kaggle/booleans&#45;and&#45;conditionals#48169196&#45;&gt;http://purl.org/dj/kaggle/booleans&#45;and&#45;conditionals -->
<g id="edge8" class="edge">
<title>http://purl.org/dj/kaggle/booleans&#45;and&#45;conditionals#48169196&#45;&gt;http://purl.org/dj/kaggle/booleans&#45;and&#45;conditionals</title>
<path fill="none" stroke="black" d="M1075.24,-92.28C1087.71,-90.39 1100.59,-88.54 1112.74,-87 1263.79,-67.82 1301.81,-64.01 1453.74,-54 1774.1,-32.9 2153.27,-24 2338.1,-20.7"/>
<polygon fill="black" stroke="black" points="2338.44,-24.2 2348.37,-20.52 2338.31,-17.2 2338.44,-24.2"/>
<text text-anchor="middle" x="1477.24" y="-57.8" font-family="Times,serif" font-size="14.00">previous</text>
</g>
<!-- http://purl.org/dj/kaggle/booleans&#45;and&#45;conditionals#165478946&#45;&gt;http://purl.org/dj/kaggle/booleans&#45;and&#45;conditionals -->
<g id="edge9" class="edge">
<title>http://purl.org/dj/kaggle/booleans&#45;and&#45;conditionals#165478946&#45;&gt;http://purl.org/dj/kaggle/booleans&#45;and&#45;conditionals</title>
<path fill="none" stroke="black" d="M1521.41,-92.29C1535.18,-90.41 1549.36,-88.58 1562.74,-87 1843.2,-53.98 2175.48,-33.46 2342.87,-24.42"/>
<polygon fill="black" stroke="black" points="2343.13,-27.91 2352.92,-23.88 2342.75,-20.92 2343.13,-27.91"/>
<text text-anchor="middle" x="1902.24" y="-57.8" font-family="Times,serif" font-size="14.00">previous</text>
</g>
<!-- http://purl.org/dj/kaggle/booleans&#45;and&#45;conditionals#29950131&#45;&gt;http://purl.org/dj/kaggle/booleans&#45;and&#45;conditionals -->
<g id="edge10" class="edge">
<title>http://purl.org/dj/kaggle/booleans&#45;and&#45;conditionals#29950131&#45;&gt;http://purl.org/dj/kaggle/booleans&#45;and&#45;conditionals</title>
<path fill="none" stroke="black" d="M1284.05,-92.29C1296.24,-90.37 1308.85,-88.51 1320.74,-87 1691.24,-39.8 2134.39,-25.2 2338.14,-20.82"/>
<polygon fill="black" stroke="black" points="2338.33,-24.31 2348.25,-20.6 2338.18,-17.31 2338.33,-24.31"/>
<text text-anchor="middle" x="1653.24" y="-57.8" font-family="Times,serif" font-size="14.00">previous</text>
</g>
<!-- http://purl.org/dj/kaggle/booleans&#45;and&#45;conditionals#48103659&#45;&gt;http://purl.org/dj/kaggle/booleans&#45;and&#45;conditionals -->
<g id="edge11" class="edge">
<title>http://purl.org/dj/kaggle/booleans&#45;and&#45;conditionals#48103659&#45;&gt;http://purl.org/dj/kaggle/booleans&#45;and&#45;conditionals</title>
<path fill="none" stroke="black" d="M858.9,-92.36C871.49,-90.46 884.49,-88.59 896.74,-87 1037.65,-68.71 1072.96,-63.35 1214.74,-54 1627.76,-26.76 2119.78,-20.7 2337.5,-19.37"/>
<polygon fill="black" stroke="black" points="2337.68,-22.86 2347.66,-19.31 2337.64,-15.87 2337.68,-22.86"/>
<text text-anchor="middle" x="1238.24" y="-57.8" font-family="Times,serif" font-size="14.00">previous</text>
</g>
<!-- http://purl.org/dj/kaggle/booleans&#45;and&#45;conditionals#205193837&#45;&gt;http://purl.org/dj/kaggle/booleans&#45;and&#45;conditionals -->
<g id="edge12" class="edge">
<title>http://purl.org/dj/kaggle/booleans&#45;and&#45;conditionals#205193837&#45;&gt;http://purl.org/dj/kaggle/booleans&#45;and&#45;conditionals</title>
<path fill="none" stroke="black" d="M194.43,-92.25C282.32,-80.05 427.17,-61.7 552.74,-54 903.01,-32.52 1983.99,-22.56 2337.55,-19.81"/>
<polygon fill="black" stroke="black" points="2337.82,-23.31 2347.79,-19.73 2337.77,-16.31 2337.82,-23.31"/>
<text text-anchor="middle" x="576.24" y="-57.8" font-family="Times,serif" font-size="14.00">previous</text>
</g>
<!-- http://purl.org/dj/kaggle/booleans&#45;and&#45;conditionals#64815379&#45;&gt;http://purl.org/dj/kaggle/booleans&#45;and&#45;conditionals -->
<g id="edge13" class="edge">
<title>http://purl.org/dj/kaggle/booleans&#45;and&#45;conditionals#64815379&#45;&gt;http://purl.org/dj/kaggle/booleans&#45;and&#45;conditionals</title>
<path fill="none" stroke="black" d="M424.14,-92.36C437,-90.48 450.25,-88.62 462.74,-87 597.52,-69.55 631.12,-62.75 766.74,-54 1073.37,-34.21 2011.43,-23.32 2337.57,-20.06"/>
<polygon fill="black" stroke="black" points="2338.01,-23.56 2347.97,-19.96 2337.94,-16.56 2338.01,-23.56"/>
<text text-anchor="middle" x="790.24" y="-57.8" font-family="Times,serif" font-size="14.00">previous</text>
</g>
<!-- http://purl.org/dj/kaggle/booleans&#45;and&#45;conditionals#249561878 -->
<g id="node10" class="node">
<title>http://purl.org/dj/kaggle/booleans&#45;and&#45;conditionals#249561878</title>
<ellipse fill="none" stroke="black" cx="3887.74" cy="-192" rx="136.48" ry="18"/>
<text text-anchor="middle" x="3887.74" y="-188.3" font-family="Times,serif" font-size="14.00">249561878 (print[0]: Visualisation)</text>
</g>
<!-- http://purl.org/dj/kaggle/booleans&#45;and&#45;conditionals#249561878&#45;&gt;http://purl.org/dj/kaggle/booleans&#45;and&#45;conditionals#165478946 -->
<g id="edge14" class="edge">
<title>http://purl.org/dj/kaggle/booleans&#45;and&#45;conditionals#249561878&#45;&gt;http://purl.org/dj/kaggle/booleans&#45;and&#45;conditionals#165478946</title>
<path fill="none" stroke="black" d="M3752.15,-189.73C3420.29,-186.34 2573.81,-175.97 2291.74,-156 2235.93,-152.05 2222.54,-145.17 2166.74,-141 1898.92,-120.98 1830.34,-145.72 1562.74,-123 1551.7,-122.06 1540.14,-120.8 1528.72,-119.39"/>
<polygon fill="black" stroke="black" points="1529.1,-115.91 1518.73,-118.11 1528.21,-122.85 1529.1,-115.91"/>
<text text-anchor="middle" x="2315.24" y="-144.8" font-family="Times,serif" font-size="14.00">previous</text>
</g>
<!-- http://purl.org/dj/kaggle/booleans&#45;and&#45;conditionals#2053376315 -->
<g id="node11" class="node">
<title>http://purl.org/dj/kaggle/booleans&#45;and&#45;conditionals#2053376315</title>
<ellipse fill="none" stroke="black" cx="2450.74" cy="-105" rx="178.97" ry="18"/>
<text text-anchor="middle" x="2450.74" y="-101.3" font-family="Times,serif" font-size="14.00">2053376315 (can_run_for_president(0): Reuse)</text>
</g>
<!-- http://purl.org/dj/kaggle/booleans&#45;and&#45;conditionals#249561878&#45;&gt;http://purl.org/dj/kaggle/booleans&#45;and&#45;conditionals#2053376315 -->
<g id="edge15" class="edge">
<title>http://purl.org/dj/kaggle/booleans&#45;and&#45;conditionals#249561878&#45;&gt;http://purl.org/dj/kaggle/booleans&#45;and&#45;conditionals#2053376315</title>
<path fill="none" stroke="black" d="M3759.06,-185.91C3532.44,-176.52 3047.42,-154.51 2638.74,-123 2621.87,-121.7 2604.16,-120.23 2586.64,-118.72"/>
<polygon fill="black" stroke="black" points="2586.62,-115.2 2576.35,-117.82 2586.01,-122.18 2586.62,-115.2"/>
<text text-anchor="middle" x="3142.24" y="-144.8" font-family="Times,serif" font-size="14.00">previous</text>
</g>
<!-- http://purl.org/dj/kaggle/booleans&#45;and&#45;conditionals#4268166386 -->
<g id="node12" class="node">
<title>http://purl.org/dj/kaggle/booleans&#45;and&#45;conditionals#4268166386</title>
<ellipse fill="none" stroke="black" cx="3530.74" cy="-105" rx="228.56" ry="18"/>
<text text-anchor="middle" x="3530.74" y="-101.3" font-family="Times,serif" font-size="14.00">4268166386 (Can a 19&#45;year&#45;old run for president?(0): Reuse)</text>
</g>
<!-- http://purl.org/dj/kaggle/booleans&#45;and&#45;conditionals#249561878&#45;&gt;http://purl.org/dj/kaggle/booleans&#45;and&#45;conditionals#4268166386 -->
<g id="edge16" class="edge">
<title>http://purl.org/dj/kaggle/booleans&#45;and&#45;conditionals#249561878&#45;&gt;http://purl.org/dj/kaggle/booleans&#45;and&#45;conditionals#4268166386</title>
<path fill="none" stroke="black" d="M3824.74,-176C3764.48,-161.65 3673.44,-139.98 3608.65,-124.55"/>
<polygon fill="black" stroke="black" points="3609.43,-121.14 3598.89,-122.23 3607.81,-127.95 3609.43,-121.14"/>
<text text-anchor="middle" x="3753.24" y="-144.8" font-family="Times,serif" font-size="14.00">previous</text>
</g>
<!-- http://purl.org/dj/kaggle/booleans&#45;and&#45;conditionals#170590766 -->
<g id="node13" class="node">
<title>http://purl.org/dj/kaggle/booleans&#45;and&#45;conditionals#170590766</title>
<ellipse fill="none" stroke="black" cx="3887.74" cy="-105" rx="110.48" ry="18"/>
<text text-anchor="middle" x="3887.74" y="-101.3" font-family="Times,serif" font-size="14.00">170590766 (bool(0): Reuse)</text>
</g>
<!-- http://purl.org/dj/kaggle/booleans&#45;and&#45;conditionals#249561878&#45;&gt;http://purl.org/dj/kaggle/booleans&#45;and&#45;conditionals#170590766 -->
<g id="edge17" class="edge">
<title>http://purl.org/dj/kaggle/booleans&#45;and&#45;conditionals#249561878&#45;&gt;http://purl.org/dj/kaggle/booleans&#45;and&#45;conditionals#170590766</title>
<path fill="none" stroke="black" d="M3887.74,-173.8C3887.74,-162.16 3887.74,-146.55 3887.74,-133.24"/>
<polygon fill="black" stroke="black" points="3891.24,-133.18 3887.74,-123.18 3884.24,-133.18 3891.24,-133.18"/>
<text text-anchor="middle" x="3911.24" y="-144.8" font-family="Times,serif" font-size="14.00">previous</text>
</g>
<!-- http://purl.org/dj/kaggle/booleans&#45;and&#45;conditionals#4266265841 -->
<g id="node14" class="node">
<title>http://purl.org/dj/kaggle/booleans&#45;and&#45;conditionals#4266265841</title>
<ellipse fill="none" stroke="black" cx="4244.74" cy="-105" rx="228.56" ry="18"/>
<text text-anchor="middle" x="4244.74" y="-101.3" font-family="Times,serif" font-size="14.00">4266265841 (Can a 45&#45;year&#45;old run for president?(0): Reuse)</text>
</g>
<!-- http://purl.org/dj/kaggle/booleans&#45;and&#45;conditionals#249561878&#45;&gt;http://purl.org/dj/kaggle/booleans&#45;and&#45;conditionals#4266265841 -->
<g id="edge18" class="edge">
<title>http://purl.org/dj/kaggle/booleans&#45;and&#45;conditionals#249561878&#45;&gt;http://purl.org/dj/kaggle/booleans&#45;and&#45;conditionals#4266265841</title>
<path fill="none" stroke="black" d="M3950.74,-176C4011,-161.65 4102.04,-139.98 4166.83,-124.55"/>
<polygon fill="black" stroke="black" points="4167.67,-127.95 4176.59,-122.23 4166.05,-121.14 4167.67,-127.95"/>
<text text-anchor="middle" x="4110.24" y="-144.8" font-family="Times,serif" font-size="14.00">previous</text>
</g>
<!-- http://purl.org/dj/kaggle/booleans&#45;and&#45;conditionals#408093522 -->
<g id="node15" class="node">
<title>http://purl.org/dj/kaggle/booleans&#45;and&#45;conditionals#408093522</title>
<ellipse fill="none" stroke="black" cx="4621.74" cy="-105" rx="130.78" ry="18"/>
<text text-anchor="middle" x="4621.74" y="-101.3" font-family="Times,serif" font-size="14.00">408093522 (Is &#45;1 odd?(0): Reuse)</text>
</g>
<!-- http://purl.org/dj/kaggle/booleans&#45;and&#45;conditionals#249561878&#45;&gt;http://purl.org/dj/kaggle/booleans&#45;and&#45;conditionals#408093522 -->
<g id="edge19" class="edge">
<title>http://purl.org/dj/kaggle/booleans&#45;and&#45;conditionals#249561878&#45;&gt;http://purl.org/dj/kaggle/booleans&#45;and&#45;conditionals#408093522</title>
<path fill="none" stroke="black" d="M3988.04,-179.78C4106.34,-166.49 4308.89,-143.56 4482.74,-123 4494.15,-121.65 4506.09,-120.22 4517.97,-118.78"/>
<polygon fill="black" stroke="black" points="4518.41,-122.25 4527.92,-117.58 4517.57,-115.31 4518.41,-122.25"/>
<text text-anchor="middle" x="4342.24" y="-144.8" font-family="Times,serif" font-size="14.00">previous</text>
</g>
<!-- http://purl.org/dj/kaggle/booleans&#45;and&#45;conditionals#29687986 -->
<g id="node16" class="node">
<title>http://purl.org/dj/kaggle/booleans&#45;and&#45;conditionals#29687986</title>
<ellipse fill="none" stroke="black" cx="2942.74" cy="-105" rx="94.78" ry="18"/>
<text text-anchor="middle" x="2942.74" y="-101.3" font-family="Times,serif" font-size="14.00">29687986 (0(0): Reuse)</text>
</g>
<!-- http://purl.org/dj/kaggle/booleans&#45;and&#45;conditionals#249561878&#45;&gt;http://purl.org/dj/kaggle/booleans&#45;and&#45;conditionals#29687986 -->
<g id="edge20" class="edge">
<title>http://purl.org/dj/kaggle/booleans&#45;and&#45;conditionals#249561878&#45;&gt;http://purl.org/dj/kaggle/booleans&#45;and&#45;conditionals#29687986</title>
<path fill="none" stroke="black" d="M3763.4,-184.55C3598.94,-175.21 3300.3,-155.37 3046.74,-123 3038.1,-121.9 3029.08,-120.62 3020.12,-119.26"/>
<polygon fill="black" stroke="black" points="3020.47,-115.78 3010.05,-117.71 3019.4,-122.69 3020.47,-115.78"/>
<text text-anchor="middle" x="3369.24" y="-144.8" font-family="Times,serif" font-size="14.00">previous</text>
</g>
<!-- http://purl.org/dj/kaggle/booleans&#45;and&#45;conditionals#181273156 -->
<g id="node17" class="node">
<title>http://purl.org/dj/kaggle/booleans&#45;and&#45;conditionals#181273156</title>
<ellipse fill="none" stroke="black" cx="4880.74" cy="-105" rx="110.48" ry="18"/>
<text text-anchor="middle" x="4880.74" y="-101.3" font-family="Times,serif" font-size="14.00">181273156 (type(0): Reuse)</text>
</g>
<!-- http://purl.org/dj/kaggle/booleans&#45;and&#45;conditionals#249561878&#45;&gt;http://purl.org/dj/kaggle/booleans&#45;and&#45;conditionals#181273156 -->
<g id="edge21" class="edge">
<title>http://purl.org/dj/kaggle/booleans&#45;and&#45;conditionals#249561878&#45;&gt;http://purl.org/dj/kaggle/booleans&#45;and&#45;conditionals#181273156</title>
<path fill="none" stroke="black" d="M4011.03,-184.16C4180.51,-174.13 4494.83,-153.27 4761.74,-123 4771.8,-121.86 4782.31,-120.54 4792.76,-119.15"/>
<polygon fill="black" stroke="black" points="4793.29,-122.61 4802.73,-117.8 4792.35,-115.68 4793.29,-122.61"/>
<text text-anchor="middle" x="4593.24" y="-144.8" font-family="Times,serif" font-size="14.00">previous</text>
</g>
<!-- http://purl.org/dj/kaggle/booleans&#45;and&#45;conditionals#459277189 -->
<g id="node18" class="node">
<title>http://purl.org/dj/kaggle/booleans&#45;and&#45;conditionals#459277189</title>
<ellipse fill="none" stroke="black" cx="5145.74" cy="-105" rx="136.48" ry="18"/>
<text text-anchor="middle" x="5145.74" y="-101.3" font-family="Times,serif" font-size="14.00">459277189 (Is 100 odd?(0): Reuse)</text>
</g>
<!-- http://purl.org/dj/kaggle/booleans&#45;and&#45;conditionals#249561878&#45;&gt;http://purl.org/dj/kaggle/booleans&#45;and&#45;conditionals#459277189 -->
<g id="edge22" class="edge">
<title>http://purl.org/dj/kaggle/booleans&#45;and&#45;conditionals#249561878&#45;&gt;http://purl.org/dj/kaggle/booleans&#45;and&#45;conditionals#459277189</title>
<path fill="none" stroke="black" d="M4017.59,-186.34C4164.17,-180.71 4409.73,-170.22 4620.74,-156 4789.44,-144.63 4831.53,-140.11 4999.74,-123 5012.38,-121.71 5025.63,-120.28 5038.78,-118.82"/>
<polygon fill="black" stroke="black" points="5039.25,-122.29 5048.79,-117.69 5038.46,-115.33 5039.25,-122.29"/>
<text text-anchor="middle" x="4840.24" y="-144.8" font-family="Times,serif" font-size="14.00">previous</text>
</g>
<!-- http://purl.org/dj/kaggle/booleans&#45;and&#45;conditionals#47120616 -->
<g id="node19" class="node">
<title>http://purl.org/dj/kaggle/booleans&#45;and&#45;conditionals#47120616</title>
<ellipse fill="none" stroke="black" cx="5399.74" cy="-105" rx="99.38" ry="18"/>
<text text-anchor="middle" x="5399.74" y="-101.3" font-family="Times,serif" font-size="14.00">47120616 (15(0): Reuse)</text>
</g>
<!-- http://purl.org/dj/kaggle/booleans&#45;and&#45;conditionals#249561878&#45;&gt;http://purl.org/dj/kaggle/booleans&#45;and&#45;conditionals#47120616 -->
<g id="edge23" class="edge">
<title>http://purl.org/dj/kaggle/booleans&#45;and&#45;conditionals#249561878&#45;&gt;http://purl.org/dj/kaggle/booleans&#45;and&#45;conditionals#47120616</title>
<path fill="none" stroke="black" d="M4020.97,-188.02C4209.58,-183.4 4565.19,-173.2 4867.74,-156 5056.01,-145.3 5103.44,-144.88 5290.74,-123 5300.06,-121.91 5309.8,-120.62 5319.47,-119.24"/>
<polygon fill="black" stroke="black" points="5320.1,-122.68 5329.49,-117.77 5319.09,-115.75 5320.1,-122.68"/>
<text text-anchor="middle" x="5131.24" y="-144.8" font-family="Times,serif" font-size="14.00">previous</text>
</g>
<!-- http://purl.org/dj/kaggle/booleans&#45;and&#45;conditionals#174457395 -->
<g id="node20" class="node">
<title>http://purl.org/dj/kaggle/booleans&#45;and&#45;conditionals#174457395</title>
<ellipse fill="none" stroke="black" cx="3169.74" cy="-105" rx="114.28" ry="18"/>
<text text-anchor="middle" x="3169.74" y="-101.3" font-family="Times,serif" font-size="14.00">174457395 (spam(0): Reuse)</text>
</g>
<!-- http://purl.org/dj/kaggle/booleans&#45;and&#45;conditionals#249561878&#45;&gt;http://purl.org/dj/kaggle/booleans&#45;and&#45;conditionals#174457395 -->
<g id="edge24" class="edge">
<title>http://purl.org/dj/kaggle/booleans&#45;and&#45;conditionals#249561878&#45;&gt;http://purl.org/dj/kaggle/booleans&#45;and&#45;conditionals#174457395</title>
<path fill="none" stroke="black" d="M3785.53,-180.06C3666.92,-167.19 3465.52,-144.81 3292.74,-123 3282.69,-121.73 3272.19,-120.36 3261.74,-118.96"/>
<polygon fill="black" stroke="black" points="3262.12,-115.48 3251.75,-117.61 3261.19,-122.41 3262.12,-115.48"/>
<text text-anchor="middle" x="3577.24" y="-144.8" font-family="Times,serif" font-size="14.00">previous</text>
</g>
<!-- http://purl.org/dj/kaggle/booleans&#45;and&#45;conditionals#2053376315&#45;&gt;http://purl.org/dj/kaggle/booleans&#45;and&#45;conditionals -->
<g id="edge25" class="edge">
<title>http://purl.org/dj/kaggle/booleans&#45;and&#45;conditionals#2053376315&#45;&gt;http://purl.org/dj/kaggle/booleans&#45;and&#45;conditionals</title>
<path fill="none" stroke="black" d="M2450.74,-86.8C2450.74,-75.16 2450.74,-59.55 2450.74,-46.24"/>
<polygon fill="black" stroke="black" points="2454.24,-46.18 2450.74,-36.18 2447.24,-46.18 2454.24,-46.18"/>
<text text-anchor="middle" x="2474.24" y="-57.8" font-family="Times,serif" font-size="14.00">previous</text>
</g>
<!-- http://purl.org/dj/kaggle/booleans&#45;and&#45;conditionals#4268166386&#45;&gt;http://purl.org/dj/kaggle/booleans&#45;and&#45;conditionals -->
<g id="edge26" class="edge">
<title>http://purl.org/dj/kaggle/booleans&#45;and&#45;conditionals#4268166386&#45;&gt;http://purl.org/dj/kaggle/booleans&#45;and&#45;conditionals</title>
<path fill="none" stroke="black" d="M3390.08,-90.78C3275.6,-80.22 3109.8,-65.34 2964.74,-54 2823.64,-42.97 2660.6,-32.2 2556.65,-25.59"/>
<polygon fill="black" stroke="black" points="2556.66,-22.08 2546.46,-24.94 2556.22,-29.07 2556.66,-22.08"/>
<text text-anchor="middle" x="3159.24" y="-57.8" font-family="Times,serif" font-size="14.00">previous</text>
</g>
<!-- http://purl.org/dj/kaggle/booleans&#45;and&#45;conditionals#170590766&#45;&gt;http://purl.org/dj/kaggle/booleans&#45;and&#45;conditionals -->
<g id="edge27" class="edge">
<title>http://purl.org/dj/kaggle/booleans&#45;and&#45;conditionals#170590766&#45;&gt;http://purl.org/dj/kaggle/booleans&#45;and&#45;conditionals</title>
<path fill="none" stroke="black" d="M3810.72,-92.02C3796.77,-90.13 3782.34,-88.35 3768.74,-87 3323.58,-42.66 2790.78,-26.4 2562.97,-21.18"/>
<polygon fill="black" stroke="black" points="2562.77,-17.67 2552.69,-20.95 2562.61,-24.67 2562.77,-17.67"/>
<text text-anchor="middle" x="3576.24" y="-57.8" font-family="Times,serif" font-size="14.00">previous</text>
</g>
<!-- http://purl.org/dj/kaggle/booleans&#45;and&#45;conditionals#4266265841&#45;&gt;http://purl.org/dj/kaggle/booleans&#45;and&#45;conditionals -->
<g id="edge28" class="edge">
<title>http://purl.org/dj/kaggle/booleans&#45;and&#45;conditionals#4266265841&#45;&gt;http://purl.org/dj/kaggle/booleans&#45;and&#45;conditionals</title>
<path fill="none" stroke="black" d="M4101.98,-90.91C3972.17,-79.47 3775.25,-63.29 3603.74,-54 3222.72,-33.37 2770.17,-24.06 2563.63,-20.65"/>
<polygon fill="black" stroke="black" points="2563.44,-17.14 2553.38,-20.48 2563.32,-24.14 2563.44,-17.14"/>
<text text-anchor="middle" x="3856.24" y="-57.8" font-family="Times,serif" font-size="14.00">previous</text>
</g>
<!-- http://purl.org/dj/kaggle/booleans&#45;and&#45;conditionals#408093522&#45;&gt;http://purl.org/dj/kaggle/booleans&#45;and&#45;conditionals -->
<g id="edge29" class="edge">
<title>http://purl.org/dj/kaggle/booleans&#45;and&#45;conditionals#408093522&#45;&gt;http://purl.org/dj/kaggle/booleans&#45;and&#45;conditionals</title>
<path fill="none" stroke="black" d="M4530.99,-92.02C4514.93,-90.15 4498.36,-88.38 4482.74,-87 4217.15,-63.47 4150.16,-64.59 3883.74,-54 3392.23,-34.46 2805.43,-24.23 2563.5,-20.58"/>
<polygon fill="black" stroke="black" points="2563.35,-17.08 2553.29,-20.43 2563.24,-24.08 2563.35,-17.08"/>
<text text-anchor="middle" x="4267.24" y="-57.8" font-family="Times,serif" font-size="14.00">previous</text>
</g>
<!-- http://purl.org/dj/kaggle/booleans&#45;and&#45;conditionals#29687986&#45;&gt;http://purl.org/dj/kaggle/booleans&#45;and&#45;conditionals -->
<g id="edge30" class="edge">
<title>http://purl.org/dj/kaggle/booleans&#45;and&#45;conditionals#29687986&#45;&gt;http://purl.org/dj/kaggle/booleans&#45;and&#45;conditionals</title>
<path fill="none" stroke="black" d="M2876.87,-91.99C2820.16,-81.7 2736.11,-66.61 2662.74,-54 2620.38,-46.72 2573.22,-38.91 2534.15,-32.51"/>
<polygon fill="black" stroke="black" points="2534.31,-28.99 2523.87,-30.83 2533.18,-35.9 2534.31,-28.99"/>
<text text-anchor="middle" x="2770.24" y="-57.8" font-family="Times,serif" font-size="14.00">previous</text>
</g>
<!-- http://purl.org/dj/kaggle/booleans&#45;and&#45;conditionals#181273156&#45;&gt;http://purl.org/dj/kaggle/booleans&#45;and&#45;conditionals -->
<g id="edge31" class="edge">
<title>http://purl.org/dj/kaggle/booleans&#45;and&#45;conditionals#181273156&#45;&gt;http://purl.org/dj/kaggle/booleans&#45;and&#45;conditionals</title>
<path fill="none" stroke="black" d="M4803.39,-92.13C4789.54,-90.24 4775.23,-88.44 4761.74,-87 4554.84,-64.94 4502.6,-63.31 4294.74,-54 3639.76,-24.66 2852.85,-19.86 2564.07,-19.12"/>
<polygon fill="black" stroke="black" points="2564.02,-15.62 2554.01,-19.09 2564,-22.62 2564.02,-15.62"/>
<text text-anchor="middle" x="4591.24" y="-57.8" font-family="Times,serif" font-size="14.00">previous</text>
</g>
<!-- http://purl.org/dj/kaggle/booleans&#45;and&#45;conditionals#459277189&#45;&gt;http://purl.org/dj/kaggle/booleans&#45;and&#45;conditionals -->
<g id="edge32" class="edge">
<title>http://purl.org/dj/kaggle/booleans&#45;and&#45;conditionals#459277189&#45;&gt;http://purl.org/dj/kaggle/booleans&#45;and&#45;conditionals</title>
<path fill="none" stroke="black" d="M5048.79,-92.26C4943.21,-80.07 4769.26,-61.72 4618.74,-54 4212.91,-33.17 2949.62,-22.58 2563.8,-19.77"/>
<polygon fill="black" stroke="black" points="2563.77,-16.27 2553.74,-19.7 2563.72,-23.27 2563.77,-16.27"/>
<text text-anchor="middle" x="4845.24" y="-57.8" font-family="Times,serif" font-size="14.00">previous</text>
</g>
<!-- http://purl.org/dj/kaggle/booleans&#45;and&#45;conditionals#47120616&#45;&gt;http://purl.org/dj/kaggle/booleans&#45;and&#45;conditionals -->
<g id="edge33" class="edge">
<title>http://purl.org/dj/kaggle/booleans&#45;and&#45;conditionals#47120616&#45;&gt;http://purl.org/dj/kaggle/booleans&#45;and&#45;conditionals</title>
<path fill="none" stroke="black" d="M5329.49,-92.24C5316.62,-90.32 5303.29,-88.47 5290.74,-87 5105.65,-65.29 5058.89,-62.68 4872.74,-54 4414.63,-32.63 2979,-22.27 2564.09,-19.67"/>
<polygon fill="black" stroke="black" points="2563.91,-16.17 2553.89,-19.61 2563.86,-23.17 2563.91,-16.17"/>
<text text-anchor="middle" x="5140.24" y="-57.8" font-family="Times,serif" font-size="14.00">previous</text>
</g>
<!-- http://purl.org/dj/kaggle/booleans&#45;and&#45;conditionals#174457395&#45;&gt;http://purl.org/dj/kaggle/booleans&#45;and&#45;conditionals -->
<g id="edge34" class="edge">
<title>http://purl.org/dj/kaggle/booleans&#45;and&#45;conditionals#174457395&#45;&gt;http://purl.org/dj/kaggle/booleans&#45;and&#45;conditionals</title>
<path fill="none" stroke="black" d="M3087.05,-92.51C3073.58,-90.65 3059.77,-88.76 3046.74,-87 2936.11,-72.02 2908.62,-66.94 2797.74,-54 2714.19,-44.25 2619.14,-34.78 2549.67,-28.15"/>
<polygon fill="black" stroke="black" points="2549.9,-24.66 2539.61,-27.19 2549.23,-31.62 2549.9,-24.66"/>
<text text-anchor="middle" x="2937.24" y="-57.8" font-family="Times,serif" font-size="14.00">previous</text>
</g>
<!-- http://purl.org/dj/kaggle/booleans&#45;and&#45;conditionals#285868788 -->
<g id="node21" class="node">
<title>http://purl.org/dj/kaggle/booleans&#45;and&#45;conditionals#285868788</title>
<ellipse fill="none" stroke="black" cx="1689.74" cy="-105" rx="118.08" ry="18"/>
<text text-anchor="middle" x="1689.74" y="-101.3" font-family="Times,serif" font-size="14.00">285868788 (is_odd(0): Reuse)</text>
</g>
<!-- http://purl.org/dj/kaggle/booleans&#45;and&#45;conditionals#285868788&#45;&gt;http://purl.org/dj/kaggle/booleans&#45;and&#45;conditionals -->
<g id="edge35" class="edge">
<title>http://purl.org/dj/kaggle/booleans&#45;and&#45;conditionals#285868788&#45;&gt;http://purl.org/dj/kaggle/booleans&#45;and&#45;conditionals</title>
<path fill="none" stroke="black" d="M1775.45,-92.5C1789.57,-90.64 1804.06,-88.75 1817.74,-87 1937.22,-71.74 1967,-67.1 2086.74,-54 2175.95,-44.24 2277.62,-34.59 2350.79,-27.9"/>
<polygon fill="black" stroke="black" points="2351.28,-31.37 2360.92,-26.98 2350.64,-24.4 2351.28,-31.37"/>
<text text-anchor="middle" x="2110.24" y="-57.8" font-family="Times,serif" font-size="14.00">previous</text>
</g>
<!-- http://purl.org/dj/kaggle/booleans&#45;and&#45;conditionals#48431340 -->
<g id="node22" class="node">
<title>http://purl.org/dj/kaggle/booleans&#45;and&#45;conditionals#48431340</title>
<ellipse fill="none" stroke="black" cx="1925.74" cy="-105" rx="99.38" ry="18"/>
<text text-anchor="middle" x="1925.74" y="-101.3" font-family="Times,serif" font-size="14.00">48431340 (55(0): Reuse)</text>
</g>
<!-- http://purl.org/dj/kaggle/booleans&#45;and&#45;conditionals#48431340&#45;&gt;http://purl.org/dj/kaggle/booleans&#45;and&#45;conditionals -->
<g id="edge36" class="edge">
<title>http://purl.org/dj/kaggle/booleans&#45;and&#45;conditionals#48431340&#45;&gt;http://purl.org/dj/kaggle/booleans&#45;and&#45;conditionals</title>
<path fill="none" stroke="black" d="M1996.36,-92.26C2057.96,-82.05 2149.74,-66.91 2229.74,-54 2275,-46.69 2325.5,-38.69 2366.79,-32.18"/>
<polygon fill="black" stroke="black" points="2367.47,-35.61 2376.8,-30.6 2366.38,-28.7 2367.47,-35.61"/>
<text text-anchor="middle" x="2253.24" y="-57.8" font-family="Times,serif" font-size="14.00">previous</text>
</g>
<!-- http://purl.org/dj/kaggle/booleans&#45;and&#45;conditionals#249955097 -->
<g id="node23" class="node">
<title>http://purl.org/dj/kaggle/booleans&#45;and&#45;conditionals#249955097</title>
<ellipse fill="none" stroke="black" cx="597.74" cy="-192" rx="136.48" ry="18"/>
<text text-anchor="middle" x="597.74" y="-188.3" font-family="Times,serif" font-size="14.00">249955097 (print[3]: Visualisation)</text>
</g>
<!-- http://purl.org/dj/kaggle/booleans&#45;and&#45;conditionals#249955097&#45;&gt;http://purl.org/dj/kaggle/booleans&#45;and&#45;conditionals#48103658 -->
<g id="edge37" class="edge">
<title>http://purl.org/dj/kaggle/booleans&#45;and&#45;conditionals#249955097&#45;&gt;http://purl.org/dj/kaggle/booleans&#45;and&#45;conditionals#48103658</title>
<path fill="none" stroke="black" d="M590.32,-173.71C588.06,-168.12 585.66,-161.84 583.74,-156 581.31,-148.62 579.04,-140.51 577.1,-133.01"/>
<polygon fill="black" stroke="black" points="580.49,-132.13 574.66,-123.28 573.7,-133.83 580.49,-132.13"/>
<text text-anchor="middle" x="607.24" y="-144.8" font-family="Times,serif" font-size="14.00">previous</text>
</g>
<!-- http://purl.org/dj/kaggle/booleans&#45;and&#45;conditionals#249955097&#45;&gt;http://purl.org/dj/kaggle/booleans&#45;and&#45;conditionals#48103659 -->
<g id="edge38" class="edge">
<title>http://purl.org/dj/kaggle/booleans&#45;and&#45;conditionals#249955097&#45;&gt;http://purl.org/dj/kaggle/booleans&#45;and&#45;conditionals#48103659</title>
<path fill="none" stroke="black" d="M652.54,-175.42C669.27,-170 687.52,-163.4 703.74,-156 721.17,-148.05 739.55,-137.4 754.66,-127.96"/>
<polygon fill="black" stroke="black" points="756.58,-130.89 763.15,-122.58 752.83,-124.98 756.58,-130.89"/>
<text text-anchor="middle" x="755.24" y="-144.8" font-family="Times,serif" font-size="14.00">previous</text>
</g>
<!-- http://purl.org/dj/kaggle/booleans&#45;and&#45;conditionals#249692951 -->
<g id="node24" class="node">
<title>http://purl.org/dj/kaggle/booleans&#45;and&#45;conditionals#249692951</title>
<ellipse fill="none" stroke="black" cx="1689.74" cy="-192" rx="136.48" ry="18"/>
<text text-anchor="middle" x="1689.74" y="-188.3" font-family="Times,serif" font-size="14.00">249692951 (print[1]: Visualisation)</text>
</g>
<!-- http://purl.org/dj/kaggle/booleans&#45;and&#45;conditionals#249692951&#45;&gt;http://purl.org/dj/kaggle/booleans&#45;and&#45;conditionals#48103658 -->
<g id="edge39" class="edge">
<title>http://purl.org/dj/kaggle/booleans&#45;and&#45;conditionals#249692951&#45;&gt;http://purl.org/dj/kaggle/booleans&#45;and&#45;conditionals#48103658</title>
<path fill="none" stroke="black" d="M1554.48,-189.29C1363.3,-186.14 1023.83,-177.62 902.74,-156 881.15,-152.15 877.21,-145.47 855.74,-141 778.76,-124.96 757.72,-133.06 679.74,-123 670.74,-121.84 661.34,-120.53 652,-119.16"/>
<polygon fill="black" stroke="black" points="652.31,-115.66 641.9,-117.65 651.28,-122.59 652.31,-115.66"/>
<text text-anchor="middle" x="926.24" y="-144.8" font-family="Times,serif" font-size="14.00">previous</text>
</g>
<!-- http://purl.org/dj/kaggle/booleans&#45;and&#45;conditionals#249692951&#45;&gt;http://purl.org/dj/kaggle/booleans&#45;and&#45;conditionals#48169196 -->
<g id="edge40" class="edge">
<title>http://purl.org/dj/kaggle/booleans&#45;and&#45;conditionals#249692951&#45;&gt;http://purl.org/dj/kaggle/booleans&#45;and&#45;conditionals#48169196</title>
<path fill="none" stroke="black" d="M1556.45,-187.96C1470.98,-184.1 1358.02,-175.42 1259.74,-156 1238.23,-151.75 1234.05,-146.17 1212.74,-141 1200.29,-137.98 1139.26,-127.8 1086.51,-119.19"/>
<polygon fill="black" stroke="black" points="1086.86,-115.7 1076.43,-117.55 1085.74,-122.61 1086.86,-115.7"/>
<text text-anchor="middle" x="1283.24" y="-144.8" font-family="Times,serif" font-size="14.00">previous</text>
</g>
<!-- http://purl.org/dj/kaggle/booleans&#45;and&#45;conditionals#249692951&#45;&gt;http://purl.org/dj/kaggle/booleans&#45;and&#45;conditionals#165478946 -->
<g id="edge41" class="edge">
<title>http://purl.org/dj/kaggle/booleans&#45;and&#45;conditionals#249692951&#45;&gt;http://purl.org/dj/kaggle/booleans&#45;and&#45;conditionals#165478946</title>
<path fill="none" stroke="black" d="M1643.09,-175.01C1601.48,-160.75 1540.52,-139.86 1496.58,-124.8"/>
<polygon fill="black" stroke="black" points="1497.52,-121.42 1486.92,-121.49 1495.25,-128.04 1497.52,-121.42"/>
<text text-anchor="middle" x="1603.24" y="-144.8" font-family="Times,serif" font-size="14.00">previous</text>
</g>
<!-- http://purl.org/dj/kaggle/booleans&#45;and&#45;conditionals#249692951&#45;&gt;http://purl.org/dj/kaggle/booleans&#45;and&#45;conditionals#29950131 -->
<g id="edge42" class="edge">
<title>http://purl.org/dj/kaggle/booleans&#45;and&#45;conditionals#249692951&#45;&gt;http://purl.org/dj/kaggle/booleans&#45;and&#45;conditionals#29950131</title>
<path fill="none" stroke="black" d="M1612.43,-177.11C1524.15,-161.24 1380.65,-135.46 1292.87,-119.68"/>
<polygon fill="black" stroke="black" points="1293.44,-116.23 1282.98,-117.9 1292.2,-123.12 1293.44,-116.23"/>
<text text-anchor="middle" x="1504.24" y="-144.8" font-family="Times,serif" font-size="14.00">previous</text>
</g>
<!-- http://purl.org/dj/kaggle/booleans&#45;and&#45;conditionals#249692951&#45;&gt;http://purl.org/dj/kaggle/booleans&#45;and&#45;conditionals#48103659 -->
<g id="edge43" class="edge">
<title>http://purl.org/dj/kaggle/booleans&#45;and&#45;conditionals#249692951&#45;&gt;http://purl.org/dj/kaggle/booleans&#45;and&#45;conditionals#48103659</title>
<path fill="none" stroke="black" d="M1553.75,-190.07C1429.47,-187.59 1240.9,-179.76 1078.74,-156 1050.26,-151.83 1043.99,-146.49 1015.74,-141 963.23,-130.8 949.61,-131.12 896.74,-123 888.14,-121.68 879.17,-120.29 870.22,-118.9"/>
<polygon fill="black" stroke="black" points="870.56,-115.42 860.14,-117.34 869.49,-122.33 870.56,-115.42"/>
<text text-anchor="middle" x="1102.24" y="-144.8" font-family="Times,serif" font-size="14.00">previous</text>
</g>
<!-- http://purl.org/dj/kaggle/booleans&#45;and&#45;conditionals#249692951&#45;&gt;http://purl.org/dj/kaggle/booleans&#45;and&#45;conditionals#2053376315 -->
<g id="edge44" class="edge">
<title>http://purl.org/dj/kaggle/booleans&#45;and&#45;conditionals#249692951&#45;&gt;http://purl.org/dj/kaggle/booleans&#45;and&#45;conditionals#2053376315</title>
<path fill="none" stroke="black" d="M1790.4,-179.76C1928.32,-164.35 2175.91,-136.7 2325.6,-119.98"/>
<polygon fill="black" stroke="black" points="2326.21,-123.43 2335.76,-118.84 2325.43,-116.47 2326.21,-123.43"/>
<text text-anchor="middle" x="2139.24" y="-144.8" font-family="Times,serif" font-size="14.00">previous</text>
</g>
<!-- http://purl.org/dj/kaggle/booleans&#45;and&#45;conditionals#249692951&#45;&gt;http://purl.org/dj/kaggle/booleans&#45;and&#45;conditionals#29687986 -->
<g id="edge45" class="edge">
<title>http://purl.org/dj/kaggle/booleans&#45;and&#45;conditionals#249692951&#45;&gt;http://purl.org/dj/kaggle/booleans&#45;and&#45;conditionals#29687986</title>
<path fill="none" stroke="black" d="M1823.38,-188.1C2020.85,-183.28 2373.39,-172.53 2429.74,-156 2442.54,-152.25 2442.94,-144.75 2455.74,-141 2537.51,-117.03 2754,-131.89 2838.74,-123 2847.76,-122.05 2857.19,-120.84 2866.52,-119.49"/>
<polygon fill="black" stroke="black" points="2867.22,-122.92 2876.6,-117.98 2866.19,-116 2867.22,-122.92"/>
<text text-anchor="middle" x="2479.24" y="-144.8" font-family="Times,serif" font-size="14.00">previous</text>
</g>
<!-- http://purl.org/dj/kaggle/booleans&#45;and&#45;conditionals#249692951&#45;&gt;http://purl.org/dj/kaggle/booleans&#45;and&#45;conditionals#285868788 -->
<g id="edge46" class="edge">
<title>http://purl.org/dj/kaggle/booleans&#45;and&#45;conditionals#249692951&#45;&gt;http://purl.org/dj/kaggle/booleans&#45;and&#45;conditionals#285868788</title>
<path fill="none" stroke="black" d="M1689.74,-173.8C1689.74,-162.16 1689.74,-146.55 1689.74,-133.24"/>
<polygon fill="black" stroke="black" points="1693.24,-133.18 1689.74,-123.18 1686.24,-133.18 1693.24,-133.18"/>
<text text-anchor="middle" x="1713.24" y="-144.8" font-family="Times,serif" font-size="14.00">previous</text>
</g>
<!-- http://purl.org/dj/kaggle/booleans&#45;and&#45;conditionals#249692951&#45;&gt;http://purl.org/dj/kaggle/booleans&#45;and&#45;conditionals#48431340 -->
<g id="edge47" class="edge">
<title>http://purl.org/dj/kaggle/booleans&#45;and&#45;conditionals#249692951&#45;&gt;http://purl.org/dj/kaggle/booleans&#45;and&#45;conditionals#48431340</title>
<path fill="none" stroke="black" d="M1734.41,-174.91C1774.08,-160.62 1832.07,-139.74 1873.8,-124.71"/>
<polygon fill="black" stroke="black" points="1875.02,-127.99 1883.24,-121.31 1872.65,-121.4 1875.02,-127.99"/>
<text text-anchor="middle" x="1845.24" y="-144.8" font-family="Times,serif" font-size="14.00">previous</text>
</g>
<!-- http://purl.org/dj/kaggle/booleans&#45;and&#45;conditionals#119800252 -->
<g id="node25" class="node">
<title>http://purl.org/dj/kaggle/booleans&#45;and&#45;conditionals#119800252</title>
<ellipse fill="none" stroke="black" cx="2148.74" cy="-105" rx="105.08" ry="18"/>
<text text-anchor="middle" x="2148.74" y="-101.3" font-family="Times,serif" font-size="14.00">119800252 (asf(0): Reuse)</text>
</g>
<!-- http://purl.org/dj/kaggle/booleans&#45;and&#45;conditionals#249692951&#45;&gt;http://purl.org/dj/kaggle/booleans&#45;and&#45;conditionals#119800252 -->
<g id="edge48" class="edge">
<title>http://purl.org/dj/kaggle/booleans&#45;and&#45;conditionals#249692951&#45;&gt;http://purl.org/dj/kaggle/booleans&#45;and&#45;conditionals#119800252</title>
<path fill="none" stroke="black" d="M1765.53,-176.96C1849.67,-161.38 1984.81,-136.36 2070.08,-120.57"/>
<polygon fill="black" stroke="black" points="2070.77,-124 2079.96,-118.74 2069.49,-117.12 2070.77,-124"/>
<text text-anchor="middle" x="1969.24" y="-144.8" font-family="Times,serif" font-size="14.00">previous</text>
</g>
<!-- http://purl.org/dj/kaggle/booleans&#45;and&#45;conditionals#17039490 -->
<g id="node26" class="node">
<title>http://purl.org/dj/kaggle/booleans&#45;and&#45;conditionals#17039490</title>
<ellipse fill="none" stroke="black" cx="2738.74" cy="-105" rx="90.98" ry="18"/>
<text text-anchor="middle" x="2738.74" y="-101.3" font-family="Times,serif" font-size="14.00">17039490 ((0): Reuse)</text>
</g>
<!-- http://purl.org/dj/kaggle/booleans&#45;and&#45;conditionals#249692951&#45;&gt;http://purl.org/dj/kaggle/booleans&#45;and&#45;conditionals#17039490 -->
<g id="edge49" class="edge">
<title>http://purl.org/dj/kaggle/booleans&#45;and&#45;conditionals#249692951&#45;&gt;http://purl.org/dj/kaggle/booleans&#45;and&#45;conditionals#17039490</title>
<path fill="none" stroke="black" d="M1824,-188.62C1985.63,-184.9 2247.24,-175.97 2342.74,-156 2361.32,-152.11 2364.19,-145.04 2382.74,-141 2494.19,-116.72 2525.49,-136.57 2638.74,-123 2647.25,-121.98 2656.14,-120.73 2664.96,-119.38"/>
<polygon fill="black" stroke="black" points="2665.53,-122.84 2674.86,-117.82 2664.44,-115.92 2665.53,-122.84"/>
<text text-anchor="middle" x="2406.24" y="-144.8" font-family="Times,serif" font-size="14.00">previous</text>
</g>
<!-- http://purl.org/dj/kaggle/booleans&#45;and&#45;conditionals#119800252&#45;&gt;http://purl.org/dj/kaggle/booleans&#45;and&#45;conditionals -->
<g id="edge50" class="edge">
<title>http://purl.org/dj/kaggle/booleans&#45;and&#45;conditionals#119800252&#45;&gt;http://purl.org/dj/kaggle/booleans&#45;and&#45;conditionals</title>
<path fill="none" stroke="black" d="M2201,-89.29C2253.32,-74.57 2333.79,-51.92 2389.17,-36.33"/>
<polygon fill="black" stroke="black" points="2390.19,-39.68 2398.87,-33.6 2388.29,-32.94 2390.19,-39.68"/>
<text text-anchor="middle" x="2341.24" y="-57.8" font-family="Times,serif" font-size="14.00">previous</text>
</g>
<!-- http://purl.org/dj/kaggle/booleans&#45;and&#45;conditionals#17039490&#45;&gt;http://purl.org/dj/kaggle/booleans&#45;and&#45;conditionals -->
<g id="edge51" class="edge">
<title>http://purl.org/dj/kaggle/booleans&#45;and&#45;conditionals#17039490&#45;&gt;http://purl.org/dj/kaggle/booleans&#45;and&#45;conditionals</title>
<path fill="none" stroke="black" d="M2690.21,-89.68C2640.71,-75.07 2563.82,-52.37 2510.58,-36.66"/>
<polygon fill="black" stroke="black" points="2511.5,-33.28 2500.92,-33.81 2509.52,-40 2511.5,-33.28"/>
<text text-anchor="middle" x="2635.24" y="-57.8" font-family="Times,serif" font-size="14.00">previous</text>
</g>
</g>
</svg>
