<?xml version="1.0" encoding="UTF-8" standalone="no"?>
<!DOCTYPE svg PUBLIC "-//W3C//DTD SVG 1.1//EN"
 "http://www.w3.org/Graphics/SVG/1.1/DTD/svg11.dtd">
<!-- Generated by graphviz version 2.47.1 (20210417.1919)
 -->
<!-- Pages: 1 -->
<svg width="1810pt" height="479pt"
 viewBox="0.00 0.00 1809.69 479.00" xmlns="http://www.w3.org/2000/svg" xmlns:xlink="http://www.w3.org/1999/xlink">
<g id="graph0" class="graph" transform="scale(1 1) rotate(0) translate(4 475)">
<polygon fill="white" stroke="transparent" points="-4,4 -4,-475 1805.69,-475 1805.69,4 -4,4"/>
<!-- http://purl.org/dj/kaggle/boundingboxes&#45;vgg16/activity/3091341882495352668 -->
<g id="node1" class="node">
<title>http://purl.org/dj/kaggle/boundingboxes&#45;vgg16/activity/3091341882495352668</title>
<ellipse fill="none" stroke="black" cx="490" cy="-366" rx="141.88" ry="18"/>
<text text-anchor="middle" x="490" y="-362.3" font-family="Times,serif" font-size="14.00">3091341882495352668 (Movement)</text>
</g>
<!-- http://purl.org/dj/kaggle/boundingboxes&#45;vgg16/activity/5231178380147928523 -->
<g id="node2" class="node">
<title>http://purl.org/dj/kaggle/boundingboxes&#45;vgg16/activity/5231178380147928523</title>
<ellipse fill="none" stroke="black" cx="475" cy="-279" rx="124.28" ry="18"/>
<text text-anchor="middle" x="475" y="-275.3" font-family="Times,serif" font-size="14.00">5231178380147928523 (Reuse)</text>
</g>
<!-- http://purl.org/dj/kaggle/boundingboxes&#45;vgg16/activity/3091341882495352668&#45;&gt;http://purl.org/dj/kaggle/boundingboxes&#45;vgg16/activity/5231178380147928523 -->
<g id="edge1" class="edge">
<title>http://purl.org/dj/kaggle/boundingboxes&#45;vgg16/activity/3091341882495352668&#45;&gt;http://purl.org/dj/kaggle/boundingboxes&#45;vgg16/activity/5231178380147928523</title>
<path fill="none" stroke="black" d="M463.38,-348.13C457.58,-343.06 452.21,-336.97 449,-330 445.25,-321.87 447.51,-313.16 451.95,-305.32"/>
<polygon fill="black" stroke="black" points="454.94,-307.15 457.7,-296.93 449.16,-303.2 454.94,-307.15"/>
<text text-anchor="middle" x="472.5" y="-318.8" font-family="Times,serif" font-size="14.00">previous</text>
</g>
<!-- http://purl.org/dj/kaggle/boundingboxes&#45;vgg16/activity/4316560150267115257 -->
<g id="node3" class="node">
<title>http://purl.org/dj/kaggle/boundingboxes&#45;vgg16/activity/4316560150267115257</title>
<ellipse fill="none" stroke="black" cx="792" cy="-105" rx="124.28" ry="18"/>
<text text-anchor="middle" x="792" y="-101.3" font-family="Times,serif" font-size="14.00">4316560150267115257 (Reuse)</text>
</g>
<!-- http://purl.org/dj/kaggle/boundingboxes&#45;vgg16/activity/3091341882495352668&#45;&gt;http://purl.org/dj/kaggle/boundingboxes&#45;vgg16/activity/4316560150267115257 -->
<g id="edge2" class="edge">
<title>http://purl.org/dj/kaggle/boundingboxes&#45;vgg16/activity/3091341882495352668&#45;&gt;http://purl.org/dj/kaggle/boundingboxes&#45;vgg16/activity/4316560150267115257</title>
<path fill="none" stroke="black" d="M525.8,-348.37C575.64,-323.82 666.49,-273.81 726,-210 748.08,-186.33 767.12,-154.29 779,-132.05"/>
<polygon fill="black" stroke="black" points="782.11,-133.66 783.64,-123.18 775.91,-130.42 782.11,-133.66"/>
<text text-anchor="middle" x="730.5" y="-231.8" font-family="Times,serif" font-size="14.00">previous</text>
</g>
<!-- http://purl.org/dj/kaggle/boundingboxes&#45;vgg16/activity/5231178380147928523&#45;&gt;http://purl.org/dj/kaggle/boundingboxes&#45;vgg16/activity/3091341882495352668 -->
<g id="edge3" class="edge">
<title>http://purl.org/dj/kaggle/boundingboxes&#45;vgg16/activity/5231178380147928523&#45;&gt;http://purl.org/dj/kaggle/boundingboxes&#45;vgg16/activity/3091341882495352668</title>
<path fill="none" stroke="black" d="M487.67,-296.95C491.06,-302.43 494.26,-308.72 496,-315 498,-322.22 497.99,-330.2 497.09,-337.63"/>
<polygon fill="black" stroke="black" points="493.62,-337.17 495.35,-347.63 500.51,-338.38 493.62,-337.17"/>
<text text-anchor="middle" x="520.5" y="-318.8" font-family="Times,serif" font-size="14.00">previous</text>
</g>
<!-- http://purl.org/dj/kaggle/boundingboxes&#45;vgg16/activity/&#45;7524209055285106338 -->
<g id="node4" class="node">
<title>http://purl.org/dj/kaggle/boundingboxes&#45;vgg16/activity/&#45;7524209055285106338</title>
<ellipse fill="none" stroke="black" cx="573" cy="-192" rx="144.07" ry="18"/>
<text text-anchor="middle" x="573" y="-188.3" font-family="Times,serif" font-size="14.00">&#45;7524209055285106338 (Movement)</text>
</g>
<!-- http://purl.org/dj/kaggle/boundingboxes&#45;vgg16/activity/5231178380147928523&#45;&gt;http://purl.org/dj/kaggle/boundingboxes&#45;vgg16/activity/&#45;7524209055285106338 -->
<g id="edge4" class="edge">
<title>http://purl.org/dj/kaggle/boundingboxes&#45;vgg16/activity/5231178380147928523&#45;&gt;http://purl.org/dj/kaggle/boundingboxes&#45;vgg16/activity/&#45;7524209055285106338</title>
<path fill="none" stroke="black" d="M503.79,-261.4C512.26,-255.99 521.3,-249.64 529,-243 537.62,-235.56 546.13,-226.44 553.32,-218.03"/>
<polygon fill="black" stroke="black" points="556.07,-220.2 559.79,-210.28 550.7,-215.72 556.07,-220.2"/>
<text text-anchor="middle" x="566.5" y="-231.8" font-family="Times,serif" font-size="14.00">previous</text>
</g>
<!-- http://purl.org/dj/kaggle/boundingboxes&#45;vgg16/activity/4316560150267115257&#45;&gt;http://purl.org/dj/kaggle/boundingboxes&#45;vgg16/activity/&#45;7524209055285106338 -->
<g id="edge5" class="edge">
<title>http://purl.org/dj/kaggle/boundingboxes&#45;vgg16/activity/4316560150267115257&#45;&gt;http://purl.org/dj/kaggle/boundingboxes&#45;vgg16/activity/&#45;7524209055285106338</title>
<path fill="none" stroke="black" d="M689.3,-115.15C649.26,-120.54 609.31,-128.77 594,-141 586.81,-146.74 582.05,-155.39 578.91,-163.89"/>
<polygon fill="black" stroke="black" points="575.51,-163.02 575.92,-173.61 582.21,-165.08 575.51,-163.02"/>
<text text-anchor="middle" x="617.5" y="-144.8" font-family="Times,serif" font-size="14.00">previous</text>
</g>
<!-- http://purl.org/dj/kaggle/boundingboxes&#45;vgg16 -->
<g id="node5" class="node">
<title>http://purl.org/dj/kaggle/boundingboxes&#45;vgg16</title>
<ellipse fill="none" stroke="black" cx="1245" cy="-18" rx="198.47" ry="18"/>
<text text-anchor="middle" x="1245" y="-14.3" font-family="Times,serif" font-size="14.00">boundingboxes&#45;vgg16 (boundingboxes&#45;vgg16.ipynb)</text>
</g>
<!-- http://purl.org/dj/kaggle/boundingboxes&#45;vgg16/activity/4316560150267115257&#45;&gt;http://purl.org/dj/kaggle/boundingboxes&#45;vgg16 -->
<g id="edge6" class="edge">
<title>http://purl.org/dj/kaggle/boundingboxes&#45;vgg16/activity/4316560150267115257&#45;&gt;http://purl.org/dj/kaggle/boundingboxes&#45;vgg16</title>
<path fill="none" stroke="black" d="M864.53,-90.39C942.79,-75.71 1067.62,-52.28 1152.79,-36.3"/>
<polygon fill="black" stroke="black" points="1153.53,-39.72 1162.72,-34.44 1152.24,-32.84 1153.53,-39.72"/>
<text text-anchor="middle" x="1068.5" y="-57.8" font-family="Times,serif" font-size="14.00">previous</text>
</g>
<!-- http://purl.org/dj/kaggle/boundingboxes&#45;vgg16/activity/&#45;7524209055285106338&#45;&gt;http://purl.org/dj/kaggle/boundingboxes&#45;vgg16/activity/5231178380147928523 -->
<g id="edge7" class="edge">
<title>http://purl.org/dj/kaggle/boundingboxes&#45;vgg16/activity/&#45;7524209055285106338&#45;&gt;http://purl.org/dj/kaggle/boundingboxes&#45;vgg16/activity/5231178380147928523</title>
<path fill="none" stroke="black" d="M503.21,-207.76C493.42,-212.69 484.5,-219.25 478,-228 473.24,-234.41 471.51,-242.65 471.24,-250.58"/>
<polygon fill="black" stroke="black" points="467.75,-250.79 471.61,-260.66 474.75,-250.54 467.75,-250.79"/>
<text text-anchor="middle" x="501.5" y="-231.8" font-family="Times,serif" font-size="14.00">previous</text>
</g>
<!-- http://purl.org/dj/kaggle/boundingboxes&#45;vgg16/activity/&#45;7524209055285106338&#45;&gt;http://purl.org/dj/kaggle/boundingboxes&#45;vgg16/activity/4316560150267115257 -->
<g id="edge8" class="edge">
<title>http://purl.org/dj/kaggle/boundingboxes&#45;vgg16/activity/&#45;7524209055285106338&#45;&gt;http://purl.org/dj/kaggle/boundingboxes&#45;vgg16/activity/4316560150267115257</title>
<path fill="none" stroke="black" d="M607.09,-174.47C628.84,-164.22 657.77,-151.12 684,-141 698.93,-135.24 715.26,-129.61 730.59,-124.61"/>
<polygon fill="black" stroke="black" points="732.06,-127.81 740.5,-121.42 729.91,-121.15 732.06,-127.81"/>
<text text-anchor="middle" x="707.5" y="-144.8" font-family="Times,serif" font-size="14.00">previous</text>
</g>
<!-- http://purl.org/dj/kaggle/boundingboxes&#45;vgg16/activity/&#45;2451577300948905022 -->
<g id="node6" class="node">
<title>http://purl.org/dj/kaggle/boundingboxes&#45;vgg16/activity/&#45;2451577300948905022</title>
<ellipse fill="none" stroke="black" cx="179" cy="-366" rx="151.37" ry="18"/>
<text text-anchor="middle" x="179" y="-362.3" font-family="Times,serif" font-size="14.00">&#45;2451577300948905022 (Visualisation)</text>
</g>
<!-- http://purl.org/dj/kaggle/boundingboxes&#45;vgg16/activity/&#45;2451577300948905022&#45;&gt;http://purl.org/dj/kaggle/boundingboxes&#45;vgg16/activity/5231178380147928523 -->
<g id="edge9" class="edge">
<title>http://purl.org/dj/kaggle/boundingboxes&#45;vgg16/activity/&#45;2451577300948905022&#45;&gt;http://purl.org/dj/kaggle/boundingboxes&#45;vgg16/activity/5231178380147928523</title>
<path fill="none" stroke="black" d="M233.98,-349.21C284.4,-334.73 359.04,-313.3 411.88,-298.13"/>
<polygon fill="black" stroke="black" points="413.16,-301.4 421.81,-295.27 411.23,-294.67 413.16,-301.4"/>
<text text-anchor="middle" x="368.5" y="-318.8" font-family="Times,serif" font-size="14.00">previous</text>
</g>
<!-- http://purl.org/dj/kaggle/boundingboxes&#45;vgg16/activity/&#45;2451577300948905022&#45;&gt;http://purl.org/dj/kaggle/boundingboxes&#45;vgg16/activity/4316560150267115257 -->
<g id="edge10" class="edge">
<title>http://purl.org/dj/kaggle/boundingboxes&#45;vgg16/activity/&#45;2451577300948905022&#45;&gt;http://purl.org/dj/kaggle/boundingboxes&#45;vgg16/activity/4316560150267115257</title>
<path fill="none" stroke="black" d="M161.9,-348.08C127.41,-311.94 56.64,-226.27 104,-174 140.62,-133.58 472.02,-116.28 661.18,-109.64"/>
<polygon fill="black" stroke="black" points="661.32,-113.14 671.19,-109.3 661.08,-106.14 661.32,-113.14"/>
<text text-anchor="middle" x="116.5" y="-231.8" font-family="Times,serif" font-size="14.00">previous</text>
</g>
<!-- http://purl.org/dj/kaggle/boundingboxes&#45;vgg16/activity/&#45;2451577300948905022&#45;&gt;http://purl.org/dj/kaggle/boundingboxes&#45;vgg16/activity/&#45;7524209055285106338 -->
<g id="edge11" class="edge">
<title>http://purl.org/dj/kaggle/boundingboxes&#45;vgg16/activity/&#45;2451577300948905022&#45;&gt;http://purl.org/dj/kaggle/boundingboxes&#45;vgg16/activity/&#45;7524209055285106338</title>
<path fill="none" stroke="black" d="M193.22,-347.78C213.41,-324.5 252.66,-283.34 295,-261 347.12,-233.5 410.62,-216.89 463.77,-206.98"/>
<polygon fill="black" stroke="black" points="464.69,-210.37 473.91,-205.14 463.44,-203.48 464.69,-210.37"/>
<text text-anchor="middle" x="318.5" y="-275.3" font-family="Times,serif" font-size="14.00">previous</text>
</g>
<!-- http://purl.org/dj/kaggle/boundingboxes&#45;vgg16/activity/&#45;2594889985182072329 -->
<g id="node7" class="node">
<title>http://purl.org/dj/kaggle/boundingboxes&#45;vgg16/activity/&#45;2594889985182072329</title>
<ellipse fill="none" stroke="black" cx="660" cy="-453" rx="151.37" ry="18"/>
<text text-anchor="middle" x="660" y="-449.3" font-family="Times,serif" font-size="14.00">&#45;2594889985182072329 (Visualisation)</text>
</g>
<!-- http://purl.org/dj/kaggle/boundingboxes&#45;vgg16/activity/&#45;2594889985182072329&#45;&gt;http://purl.org/dj/kaggle/boundingboxes&#45;vgg16/activity/3091341882495352668 -->
<g id="edge12" class="edge">
<title>http://purl.org/dj/kaggle/boundingboxes&#45;vgg16/activity/&#45;2594889985182072329&#45;&gt;http://purl.org/dj/kaggle/boundingboxes&#45;vgg16/activity/3091341882495352668</title>
<path fill="none" stroke="black" d="M626.82,-435.41C599.79,-421.89 561.46,-402.73 532.24,-388.12"/>
<polygon fill="black" stroke="black" points="533.61,-384.89 523.1,-383.55 530.48,-391.15 533.61,-384.89"/>
<text text-anchor="middle" x="608.5" y="-405.8" font-family="Times,serif" font-size="14.00">previous</text>
</g>
<!-- http://purl.org/dj/kaggle/boundingboxes&#45;vgg16/activity/&#45;2594889985182072329&#45;&gt;http://purl.org/dj/kaggle/boundingboxes&#45;vgg16/activity/4316560150267115257 -->
<g id="edge13" class="edge">
<title>http://purl.org/dj/kaggle/boundingboxes&#45;vgg16/activity/&#45;2594889985182072329&#45;&gt;http://purl.org/dj/kaggle/boundingboxes&#45;vgg16/activity/4316560150267115257</title>
<path fill="none" stroke="black" d="M781.88,-442.31C863.04,-433.03 959.33,-415.6 985,-384 995.09,-371.58 991.07,-362.8 985,-348 952.34,-268.32 900.09,-279.32 849,-210 828.35,-181.99 828.86,-171.44 812,-141 810.37,-138.06 808.65,-134.99 806.93,-131.95"/>
<polygon fill="black" stroke="black" points="809.85,-130 801.86,-123.04 803.76,-133.46 809.85,-130"/>
<text text-anchor="middle" x="974.5" y="-275.3" font-family="Times,serif" font-size="14.00">previous</text>
</g>
<!-- http://purl.org/dj/kaggle/boundingboxes&#45;vgg16/activity/&#45;2594889985182072329&#45;&gt;http://purl.org/dj/kaggle/boundingboxes&#45;vgg16/activity/&#45;7524209055285106338 -->
<g id="edge14" class="edge">
<title>http://purl.org/dj/kaggle/boundingboxes&#45;vgg16/activity/&#45;2594889985182072329&#45;&gt;http://purl.org/dj/kaggle/boundingboxes&#45;vgg16/activity/&#45;7524209055285106338</title>
<path fill="none" stroke="black" d="M658.02,-434.62C655.42,-408.53 651.74,-357.74 657,-315 661.82,-275.81 697.95,-260.13 675,-228 670.59,-221.82 665.01,-216.72 658.75,-212.51"/>
<polygon fill="black" stroke="black" points="660.24,-209.33 649.84,-207.31 656.71,-215.37 660.24,-209.33"/>
<text text-anchor="middle" x="680.5" y="-318.8" font-family="Times,serif" font-size="14.00">previous</text>
</g>
<!-- http://purl.org/dj/kaggle/boundingboxes&#45;vgg16/activity/8039896046398356810 -->
<g id="node8" class="node">
<title>http://purl.org/dj/kaggle/boundingboxes&#45;vgg16/activity/8039896046398356810</title>
<ellipse fill="none" stroke="black" cx="262" cy="-192" rx="148.67" ry="18"/>
<text text-anchor="middle" x="262" y="-188.3" font-family="Times,serif" font-size="14.00">8039896046398356810 (Visualisation)</text>
</g>
<!-- http://purl.org/dj/kaggle/boundingboxes&#45;vgg16/activity/8039896046398356810&#45;&gt;http://purl.org/dj/kaggle/boundingboxes&#45;vgg16/activity/4316560150267115257 -->
<g id="edge15" class="edge">
<title>http://purl.org/dj/kaggle/boundingboxes&#45;vgg16/activity/8039896046398356810&#45;&gt;http://purl.org/dj/kaggle/boundingboxes&#45;vgg16/activity/4316560150267115257</title>
<path fill="none" stroke="black" d="M335.47,-176.31C389.45,-165.77 464.63,-151.61 531,-141 583.37,-132.63 641.87,-124.66 690.19,-118.44"/>
<polygon fill="black" stroke="black" points="690.86,-121.88 700.34,-117.14 689.97,-114.94 690.86,-121.88"/>
<text text-anchor="middle" x="554.5" y="-144.8" font-family="Times,serif" font-size="14.00">previous</text>
</g>
<!-- http://purl.org/dj/kaggle/boundingboxes&#45;vgg16/activity/5937269484055956660 -->
<g id="node9" class="node">
<title>http://purl.org/dj/kaggle/boundingboxes&#45;vgg16/activity/5937269484055956660</title>
<ellipse fill="none" stroke="black" cx="1660" cy="-192" rx="141.88" ry="18"/>
<text text-anchor="middle" x="1660" y="-188.3" font-family="Times,serif" font-size="14.00">5937269484055956660 (Movement)</text>
</g>
<!-- http://purl.org/dj/kaggle/boundingboxes&#45;vgg16/activity/5937269484055956660&#45;&gt;http://purl.org/dj/kaggle/boundingboxes&#45;vgg16/activity/4316560150267115257 -->
<g id="edge16" class="edge">
<title>http://purl.org/dj/kaggle/boundingboxes&#45;vgg16/activity/5937269484055956660&#45;&gt;http://purl.org/dj/kaggle/boundingboxes&#45;vgg16/activity/4316560150267115257</title>
<path fill="none" stroke="black" d="M1619.36,-174.74C1588.31,-163.12 1544.16,-148.29 1504,-141 1396.57,-121.49 1098.98,-112.25 924.41,-108.39"/>
<polygon fill="black" stroke="black" points="924.45,-104.89 914.38,-108.17 924.3,-111.89 924.45,-104.89"/>
<text text-anchor="middle" x="1583.5" y="-144.8" font-family="Times,serif" font-size="14.00">previous</text>
</g>
<!-- http://purl.org/dj/kaggle/boundingboxes&#45;vgg16/activity/5937269484055956660&#45;&gt;http://purl.org/dj/kaggle/boundingboxes&#45;vgg16 -->
<g id="edge17" class="edge">
<title>http://purl.org/dj/kaggle/boundingboxes&#45;vgg16/activity/5937269484055956660&#45;&gt;http://purl.org/dj/kaggle/boundingboxes&#45;vgg16</title>
<path fill="none" stroke="black" d="M1646.63,-173.64C1637.59,-162.93 1624.81,-149.63 1611,-141 1525.39,-87.49 1413.71,-54.7 1336.33,-36.78"/>
<polygon fill="black" stroke="black" points="1336.65,-33.26 1326.13,-34.45 1335.1,-40.09 1336.65,-33.26"/>
<text text-anchor="middle" x="1598.5" y="-101.3" font-family="Times,serif" font-size="14.00">previous</text>
</g>
<!-- http://purl.org/dj/kaggle/boundingboxes&#45;vgg16/activity/8774043831632019031 -->
<g id="node10" class="node">
<title>http://purl.org/dj/kaggle/boundingboxes&#45;vgg16/activity/8774043831632019031</title>
<ellipse fill="none" stroke="black" cx="171" cy="-453" rx="148.67" ry="18"/>
<text text-anchor="middle" x="171" y="-449.3" font-family="Times,serif" font-size="14.00">8774043831632019031 (Visualisation)</text>
</g>
<!-- http://purl.org/dj/kaggle/boundingboxes&#45;vgg16/activity/8774043831632019031&#45;&gt;http://purl.org/dj/kaggle/boundingboxes&#45;vgg16/activity/3091341882495352668 -->
<g id="edge18" class="edge">
<title>http://purl.org/dj/kaggle/boundingboxes&#45;vgg16/activity/8774043831632019031&#45;&gt;http://purl.org/dj/kaggle/boundingboxes&#45;vgg16/activity/3091341882495352668</title>
<path fill="none" stroke="black" d="M229.51,-436.41C283.92,-421.91 364.97,-400.32 422.18,-385.07"/>
<polygon fill="black" stroke="black" points="423.1,-388.45 431.86,-382.49 421.3,-381.68 423.1,-388.45"/>
<text text-anchor="middle" x="373.5" y="-405.8" font-family="Times,serif" font-size="14.00">previous</text>
</g>
<!-- http://purl.org/dj/kaggle/boundingboxes&#45;vgg16/activity/8774043831632019031&#45;&gt;http://purl.org/dj/kaggle/boundingboxes&#45;vgg16/activity/4316560150267115257 -->
<g id="edge19" class="edge">
<title>http://purl.org/dj/kaggle/boundingboxes&#45;vgg16/activity/8774043831632019031&#45;&gt;http://purl.org/dj/kaggle/boundingboxes&#45;vgg16/activity/4316560150267115257</title>
<path fill="none" stroke="black" d="M76.5,-438.92C36.95,-427.59 0,-406.45 0,-367 0,-367 0,-367 0,-191 0,-125.63 432.12,-110.45 657.98,-106.99"/>
<polygon fill="black" stroke="black" points="658.3,-110.48 668.25,-106.84 658.2,-103.48 658.3,-110.48"/>
<text text-anchor="middle" x="23.5" y="-275.3" font-family="Times,serif" font-size="14.00">previous</text>
</g>
<!-- http://purl.org/dj/kaggle/boundingboxes&#45;vgg16/activity/6286028882733155049 -->
<g id="node11" class="node">
<title>http://purl.org/dj/kaggle/boundingboxes&#45;vgg16/activity/6286028882733155049</title>
<ellipse fill="none" stroke="black" cx="1490" cy="-453" rx="141.88" ry="18"/>
<text text-anchor="middle" x="1490" y="-449.3" font-family="Times,serif" font-size="14.00">6286028882733155049 (Movement)</text>
</g>
<!-- http://purl.org/dj/kaggle/boundingboxes&#45;vgg16/activity/&#45;3044634925094780555 -->
<g id="node12" class="node">
<title>http://purl.org/dj/kaggle/boundingboxes&#45;vgg16/activity/&#45;3044634925094780555</title>
<ellipse fill="none" stroke="black" cx="1490" cy="-366" rx="151.37" ry="18"/>
<text text-anchor="middle" x="1490" y="-362.3" font-family="Times,serif" font-size="14.00">&#45;3044634925094780555 (Visualisation)</text>
</g>
<!-- http://purl.org/dj/kaggle/boundingboxes&#45;vgg16/activity/6286028882733155049&#45;&gt;http://purl.org/dj/kaggle/boundingboxes&#45;vgg16/activity/&#45;3044634925094780555 -->
<g id="edge20" class="edge">
<title>http://purl.org/dj/kaggle/boundingboxes&#45;vgg16/activity/6286028882733155049&#45;&gt;http://purl.org/dj/kaggle/boundingboxes&#45;vgg16/activity/&#45;3044634925094780555</title>
<path fill="none" stroke="black" d="M1490,-434.8C1490,-423.16 1490,-407.55 1490,-394.24"/>
<polygon fill="black" stroke="black" points="1493.5,-394.18 1490,-384.18 1486.5,-394.18 1493.5,-394.18"/>
<text text-anchor="middle" x="1513.5" y="-405.8" font-family="Times,serif" font-size="14.00">previous</text>
</g>
<!-- http://purl.org/dj/kaggle/boundingboxes&#45;vgg16/activity/&#45;3044634925094780555&#45;&gt;http://purl.org/dj/kaggle/boundingboxes&#45;vgg16/activity/5231178380147928523 -->
<g id="edge21" class="edge">
<title>http://purl.org/dj/kaggle/boundingboxes&#45;vgg16/activity/&#45;3044634925094780555&#45;&gt;http://purl.org/dj/kaggle/boundingboxes&#45;vgg16/activity/5231178380147928523</title>
<path fill="none" stroke="black" d="M1370.08,-354.96C1173.09,-338.46 783.55,-305.84 589.89,-289.62"/>
<polygon fill="black" stroke="black" points="589.94,-286.11 579.68,-288.77 589.35,-293.09 589.94,-286.11"/>
<text text-anchor="middle" x="1066.5" y="-318.8" font-family="Times,serif" font-size="14.00">previous</text>
</g>
<!-- http://purl.org/dj/kaggle/boundingboxes&#45;vgg16/activity/&#45;3044634925094780555&#45;&gt;http://purl.org/dj/kaggle/boundingboxes&#45;vgg16/activity/4316560150267115257 -->
<g id="edge22" class="edge">
<title>http://purl.org/dj/kaggle/boundingboxes&#45;vgg16/activity/&#45;3044634925094780555&#45;&gt;http://purl.org/dj/kaggle/boundingboxes&#45;vgg16/activity/4316560150267115257</title>
<path fill="none" stroke="black" d="M1494.57,-347.79C1503.36,-310.3 1517.88,-220.91 1471,-174 1433.02,-135.99 1107.89,-117.71 921.66,-110.27"/>
<polygon fill="black" stroke="black" points="921.65,-106.77 911.52,-109.88 921.38,-113.77 921.65,-106.77"/>
<text text-anchor="middle" x="1524.5" y="-231.8" font-family="Times,serif" font-size="14.00">previous</text>
</g>
<!-- http://purl.org/dj/kaggle/boundingboxes&#45;vgg16/activity/&#45;3044634925094780555&#45;&gt;http://purl.org/dj/kaggle/boundingboxes&#45;vgg16/activity/5937269484055956660 -->
<g id="edge23" class="edge">
<title>http://purl.org/dj/kaggle/boundingboxes&#45;vgg16/activity/&#45;3044634925094780555&#45;&gt;http://purl.org/dj/kaggle/boundingboxes&#45;vgg16/activity/5937269484055956660</title>
<path fill="none" stroke="black" d="M1506.92,-347.88C1537.22,-317.23 1600.81,-252.89 1635.74,-217.55"/>
<polygon fill="black" stroke="black" points="1638.61,-219.62 1643.15,-210.05 1633.63,-214.7 1638.61,-219.62"/>
<text text-anchor="middle" x="1614.5" y="-275.3" font-family="Times,serif" font-size="14.00">previous</text>
</g>
<!-- http://purl.org/dj/kaggle/boundingboxes&#45;vgg16/activity/&#45;5178838334422396741 -->
<g id="node13" class="node">
<title>http://purl.org/dj/kaggle/boundingboxes&#45;vgg16/activity/&#45;5178838334422396741</title>
<ellipse fill="none" stroke="black" cx="832" cy="-366" rx="144.07" ry="18"/>
<text text-anchor="middle" x="832" y="-362.3" font-family="Times,serif" font-size="14.00">&#45;5178838334422396741 (Movement)</text>
</g>
<!-- http://purl.org/dj/kaggle/boundingboxes&#45;vgg16/activity/&#45;5178838334422396741&#45;&gt;http://purl.org/dj/kaggle/boundingboxes&#45;vgg16/activity/5231178380147928523 -->
<g id="edge24" class="edge">
<title>http://purl.org/dj/kaggle/boundingboxes&#45;vgg16/activity/&#45;5178838334422396741&#45;&gt;http://purl.org/dj/kaggle/boundingboxes&#45;vgg16/activity/5231178380147928523</title>
<path fill="none" stroke="black" d="M778.59,-349.21C762.93,-343.86 746,-337.35 731,-330 720.04,-324.63 719.41,-319.34 708,-315 673.05,-301.71 633.36,-293.44 596.76,-288.31"/>
<polygon fill="black" stroke="black" points="596.9,-284.8 586.53,-286.95 595.97,-291.74 596.9,-284.8"/>
<text text-anchor="middle" x="754.5" y="-318.8" font-family="Times,serif" font-size="14.00">previous</text>
</g>
<!-- http://purl.org/dj/kaggle/boundingboxes&#45;vgg16/activity/&#45;5178838334422396741&#45;&gt;http://purl.org/dj/kaggle/boundingboxes&#45;vgg16/activity/4316560150267115257 -->
<g id="edge25" class="edge">
<title>http://purl.org/dj/kaggle/boundingboxes&#45;vgg16/activity/&#45;5178838334422396741&#45;&gt;http://purl.org/dj/kaggle/boundingboxes&#45;vgg16/activity/4316560150267115257</title>
<path fill="none" stroke="black" d="M829.31,-347.6C822.5,-303.46 804.48,-186.83 796.23,-133.42"/>
<polygon fill="black" stroke="black" points="799.66,-132.67 794.67,-123.32 792.74,-133.74 799.66,-132.67"/>
<text text-anchor="middle" x="835.5" y="-231.8" font-family="Times,serif" font-size="14.00">previous</text>
</g>
<!-- http://purl.org/dj/kaggle/boundingboxes&#45;vgg16/activity/&#45;1118898311023835835 -->
<g id="node14" class="node">
<title>http://purl.org/dj/kaggle/boundingboxes&#45;vgg16/activity/&#45;1118898311023835835</title>
<ellipse fill="none" stroke="black" cx="1009" cy="-192" rx="151.37" ry="18"/>
<text text-anchor="middle" x="1009" y="-188.3" font-family="Times,serif" font-size="14.00">&#45;1118898311023835835 (Visualisation)</text>
</g>
<!-- http://purl.org/dj/kaggle/boundingboxes&#45;vgg16/activity/&#45;1118898311023835835&#45;&gt;http://purl.org/dj/kaggle/boundingboxes&#45;vgg16/activity/4316560150267115257 -->
<g id="edge26" class="edge">
<title>http://purl.org/dj/kaggle/boundingboxes&#45;vgg16/activity/&#45;1118898311023835835&#45;&gt;http://purl.org/dj/kaggle/boundingboxes&#45;vgg16/activity/4316560150267115257</title>
<path fill="none" stroke="black" d="M967.16,-174.61C931.51,-160.65 880.18,-140.54 842.3,-125.7"/>
<polygon fill="black" stroke="black" points="843.56,-122.44 832.98,-122.05 841.01,-128.96 843.56,-122.44"/>
<text text-anchor="middle" x="936.5" y="-144.8" font-family="Times,serif" font-size="14.00">previous</text>
</g>
<!-- http://purl.org/dj/kaggle/boundingboxes&#45;vgg16/activity/7396181727659613686 -->
<g id="node15" class="node">
<title>http://purl.org/dj/kaggle/boundingboxes&#45;vgg16/activity/7396181727659613686</title>
<ellipse fill="none" stroke="black" cx="1320" cy="-192" rx="141.88" ry="18"/>
<text text-anchor="middle" x="1320" y="-188.3" font-family="Times,serif" font-size="14.00">7396181727659613686 (Movement)</text>
</g>
<!-- http://purl.org/dj/kaggle/boundingboxes&#45;vgg16/activity/7396181727659613686&#45;&gt;http://purl.org/dj/kaggle/boundingboxes&#45;vgg16/activity/4316560150267115257 -->
<g id="edge27" class="edge">
<title>http://purl.org/dj/kaggle/boundingboxes&#45;vgg16/activity/7396181727659613686&#45;&gt;http://purl.org/dj/kaggle/boundingboxes&#45;vgg16/activity/4316560150267115257</title>
<path fill="none" stroke="black" d="M1236.05,-177.48C1139.28,-161.91 980.86,-136.4 881.72,-120.44"/>
<polygon fill="black" stroke="black" points="882.15,-116.97 871.72,-118.83 881.04,-123.88 882.15,-116.97"/>
<text text-anchor="middle" x="1110.5" y="-144.8" font-family="Times,serif" font-size="14.00">previous</text>
</g>
</g>
</svg>
