<?xml version="1.0" encoding="UTF-8" standalone="no"?>
<!DOCTYPE svg PUBLIC "-//W3C//DTD SVG 1.1//EN"
 "http://www.w3.org/Graphics/SVG/1.1/DTD/svg11.dtd">
<!-- Generated by graphviz version 2.47.1 (20210417.1919)
 -->
<!-- Pages: 1 -->
<svg width="1231pt" height="479pt"
 viewBox="0.00 0.00 1230.98 479.00" xmlns="http://www.w3.org/2000/svg" xmlns:xlink="http://www.w3.org/1999/xlink">
<g id="graph0" class="graph" transform="scale(1 1) rotate(0) translate(4 475)">
<polygon fill="white" stroke="transparent" points="-4,4 -4,-475 1226.98,-475 1226.98,4 -4,4"/>
<!-- http://purl.org/dj/kaggle/bowl19&#45;state&#45;transfers/activity/&#45;6304113576904971354 -->
<g id="node1" class="node">
<title>http://purl.org/dj/kaggle/bowl19&#45;state&#45;transfers/activity/&#45;6304113576904971354</title>
<ellipse fill="none" stroke="black" cx="535.98" cy="-279" rx="144.07" ry="18"/>
<text text-anchor="middle" x="535.98" y="-275.3" font-family="Times,serif" font-size="14.00">&#45;6304113576904971354 (Movement)</text>
</g>
<!-- http://purl.org/dj/kaggle/bowl19&#45;state&#45;transfers/activity/&#45;8662939756123130830 -->
<g id="node2" class="node">
<title>http://purl.org/dj/kaggle/bowl19&#45;state&#45;transfers/activity/&#45;8662939756123130830</title>
<ellipse fill="none" stroke="black" cx="214.98" cy="-192" rx="151.37" ry="18"/>
<text text-anchor="middle" x="214.98" y="-188.3" font-family="Times,serif" font-size="14.00">&#45;8662939756123130830 (Visualisation)</text>
</g>
<!-- http://purl.org/dj/kaggle/bowl19&#45;state&#45;transfers/activity/&#45;6304113576904971354&#45;&gt;http://purl.org/dj/kaggle/bowl19&#45;state&#45;transfers/activity/&#45;8662939756123130830 -->
<g id="edge1" class="edge">
<title>http://purl.org/dj/kaggle/bowl19&#45;state&#45;transfers/activity/&#45;6304113576904971354&#45;&gt;http://purl.org/dj/kaggle/bowl19&#45;state&#45;transfers/activity/&#45;8662939756123130830</title>
<path fill="none" stroke="black" d="M477.48,-262.51C422.86,-248.05 341.33,-226.46 283.65,-211.19"/>
<polygon fill="black" stroke="black" points="284.46,-207.78 273.89,-208.6 282.66,-214.54 284.46,-207.78"/>
<text text-anchor="middle" x="418.48" y="-231.8" font-family="Times,serif" font-size="14.00">previous</text>
</g>
<!-- http://purl.org/dj/kaggle/bowl19&#45;state&#45;transfers/activity/7175780381740465456 -->
<g id="node3" class="node">
<title>http://purl.org/dj/kaggle/bowl19&#45;state&#45;transfers/activity/7175780381740465456</title>
<ellipse fill="none" stroke="black" cx="636.98" cy="-105" rx="124.28" ry="18"/>
<text text-anchor="middle" x="636.98" y="-101.3" font-family="Times,serif" font-size="14.00">7175780381740465456 (Reuse)</text>
</g>
<!-- http://purl.org/dj/kaggle/bowl19&#45;state&#45;transfers/activity/&#45;6304113576904971354&#45;&gt;http://purl.org/dj/kaggle/bowl19&#45;state&#45;transfers/activity/7175780381740465456 -->
<g id="edge2" class="edge">
<title>http://purl.org/dj/kaggle/bowl19&#45;state&#45;transfers/activity/&#45;6304113576904971354&#45;&gt;http://purl.org/dj/kaggle/bowl19&#45;state&#45;transfers/activity/7175780381740465456</title>
<path fill="none" stroke="black" d="M409.28,-270.35C261.55,-260.1 34.11,-239.71 7.98,-210 -2.59,-197.99 -2.71,-185.91 7.98,-174 24.83,-155.23 341.32,-128.39 518.79,-114.72"/>
<polygon fill="black" stroke="black" points="519.26,-118.19 528.97,-113.94 518.73,-111.22 519.26,-118.19"/>
<text text-anchor="middle" x="31.48" y="-188.3" font-family="Times,serif" font-size="14.00">previous</text>
</g>
<!-- http://purl.org/dj/kaggle/bowl19&#45;state&#45;transfers/activity/6345340341021691771 -->
<g id="node4" class="node">
<title>http://purl.org/dj/kaggle/bowl19&#45;state&#45;transfers/activity/6345340341021691771</title>
<ellipse fill="none" stroke="black" cx="853.98" cy="-192" rx="148.67" ry="18"/>
<text text-anchor="middle" x="853.98" y="-188.3" font-family="Times,serif" font-size="14.00">6345340341021691771 (Visualisation)</text>
</g>
<!-- http://purl.org/dj/kaggle/bowl19&#45;state&#45;transfers/activity/&#45;6304113576904971354&#45;&gt;http://purl.org/dj/kaggle/bowl19&#45;state&#45;transfers/activity/6345340341021691771 -->
<g id="edge3" class="edge">
<title>http://purl.org/dj/kaggle/bowl19&#45;state&#45;transfers/activity/&#45;6304113576904971354&#45;&gt;http://purl.org/dj/kaggle/bowl19&#45;state&#45;transfers/activity/6345340341021691771</title>
<path fill="none" stroke="black" d="M561.45,-261.04C579.33,-249.93 604.21,-236.03 627.98,-228 659.43,-217.38 694.44,-209.96 727.33,-204.79"/>
<polygon fill="black" stroke="black" points="728.1,-208.21 737.46,-203.25 727.05,-201.29 728.1,-208.21"/>
<text text-anchor="middle" x="651.48" y="-231.8" font-family="Times,serif" font-size="14.00">previous</text>
</g>
<!-- http://purl.org/dj/kaggle/bowl19&#45;state&#45;transfers/activity/&#45;2790346641572437803 -->
<g id="node5" class="node">
<title>http://purl.org/dj/kaggle/bowl19&#45;state&#45;transfers/activity/&#45;2790346641572437803</title>
<ellipse fill="none" stroke="black" cx="535.98" cy="-192" rx="151.37" ry="18"/>
<text text-anchor="middle" x="535.98" y="-188.3" font-family="Times,serif" font-size="14.00">&#45;2790346641572437803 (Visualisation)</text>
</g>
<!-- http://purl.org/dj/kaggle/bowl19&#45;state&#45;transfers/activity/&#45;6304113576904971354&#45;&gt;http://purl.org/dj/kaggle/bowl19&#45;state&#45;transfers/activity/&#45;2790346641572437803 -->
<g id="edge4" class="edge">
<title>http://purl.org/dj/kaggle/bowl19&#45;state&#45;transfers/activity/&#45;6304113576904971354&#45;&gt;http://purl.org/dj/kaggle/bowl19&#45;state&#45;transfers/activity/&#45;2790346641572437803</title>
<path fill="none" stroke="black" d="M535.98,-260.8C535.98,-249.16 535.98,-233.55 535.98,-220.24"/>
<polygon fill="black" stroke="black" points="539.48,-220.18 535.98,-210.18 532.48,-220.18 539.48,-220.18"/>
<text text-anchor="middle" x="559.48" y="-231.8" font-family="Times,serif" font-size="14.00">previous</text>
</g>
<!-- http://purl.org/dj/kaggle/bowl19&#45;state&#45;transfers/activity/&#45;8662939756123130830&#45;&gt;http://purl.org/dj/kaggle/bowl19&#45;state&#45;transfers/activity/7175780381740465456 -->
<g id="edge5" class="edge">
<title>http://purl.org/dj/kaggle/bowl19&#45;state&#45;transfers/activity/&#45;8662939756123130830&#45;&gt;http://purl.org/dj/kaggle/bowl19&#45;state&#45;transfers/activity/7175780381740465456</title>
<path fill="none" stroke="black" d="M288.48,-176.19C363.63,-161.06 479.98,-137.62 557.29,-122.05"/>
<polygon fill="black" stroke="black" points="558.35,-125.41 567.46,-120 556.97,-118.55 558.35,-125.41"/>
<text text-anchor="middle" x="475.48" y="-144.8" font-family="Times,serif" font-size="14.00">previous</text>
</g>
<!-- http://purl.org/dj/kaggle/bowl19&#45;state&#45;transfers -->
<g id="node6" class="node">
<title>http://purl.org/dj/kaggle/bowl19&#45;state&#45;transfers</title>
<ellipse fill="none" stroke="black" cx="284.98" cy="-18" rx="198.47" ry="18"/>
<text text-anchor="middle" x="284.98" y="-14.3" font-family="Times,serif" font-size="14.00">bowl19&#45;state&#45;transfers (bowl19&#45;state&#45;transfers.ipynb)</text>
</g>
<!-- http://purl.org/dj/kaggle/bowl19&#45;state&#45;transfers/activity/&#45;8662939756123130830&#45;&gt;http://purl.org/dj/kaggle/bowl19&#45;state&#45;transfers -->
<g id="edge6" class="edge">
<title>http://purl.org/dj/kaggle/bowl19&#45;state&#45;transfers/activity/&#45;8662939756123130830&#45;&gt;http://purl.org/dj/kaggle/bowl19&#45;state&#45;transfers</title>
<path fill="none" stroke="black" d="M221.95,-173.88C234.21,-143.74 259.73,-81.04 274.25,-45.35"/>
<polygon fill="black" stroke="black" points="277.51,-46.63 278.04,-36.05 271.03,-43.99 277.51,-46.63"/>
<text text-anchor="middle" x="280.48" y="-101.3" font-family="Times,serif" font-size="14.00">previous</text>
</g>
<!-- http://purl.org/dj/kaggle/bowl19&#45;state&#45;transfers/activity/7175780381740465456&#45;&gt;http://purl.org/dj/kaggle/bowl19&#45;state&#45;transfers -->
<g id="edge7" class="edge">
<title>http://purl.org/dj/kaggle/bowl19&#45;state&#45;transfers/activity/7175780381740465456&#45;&gt;http://purl.org/dj/kaggle/bowl19&#45;state&#45;transfers</title>
<path fill="none" stroke="black" d="M576.07,-89.29C516.48,-74.9 425.56,-52.95 361.21,-37.41"/>
<polygon fill="black" stroke="black" points="361.67,-33.92 351.12,-34.97 360.02,-40.72 361.67,-33.92"/>
<text text-anchor="middle" x="506.48" y="-57.8" font-family="Times,serif" font-size="14.00">previous</text>
</g>
<!-- http://purl.org/dj/kaggle/bowl19&#45;state&#45;transfers/activity/6345340341021691771&#45;&gt;http://purl.org/dj/kaggle/bowl19&#45;state&#45;transfers/activity/&#45;6304113576904971354 -->
<g id="edge8" class="edge">
<title>http://purl.org/dj/kaggle/bowl19&#45;state&#45;transfers/activity/6345340341021691771&#45;&gt;http://purl.org/dj/kaggle/bowl19&#45;state&#45;transfers/activity/&#45;6304113576904971354</title>
<path fill="none" stroke="black" d="M777.18,-207.45C753.67,-212.82 727.97,-219.68 704.98,-228 690.96,-233.07 688.95,-237.82 674.98,-243 656.42,-249.88 635.97,-255.87 616.59,-260.85"/>
<polygon fill="black" stroke="black" points="615.73,-257.46 606.88,-263.29 617.43,-264.25 615.73,-257.46"/>
<text text-anchor="middle" x="728.48" y="-231.8" font-family="Times,serif" font-size="14.00">previous</text>
</g>
<!-- http://purl.org/dj/kaggle/bowl19&#45;state&#45;transfers/activity/6345340341021691771&#45;&gt;http://purl.org/dj/kaggle/bowl19&#45;state&#45;transfers/activity/7175780381740465456 -->
<g id="edge9" class="edge">
<title>http://purl.org/dj/kaggle/bowl19&#45;state&#45;transfers/activity/6345340341021691771&#45;&gt;http://purl.org/dj/kaggle/bowl19&#45;state&#45;transfers/activity/7175780381740465456</title>
<path fill="none" stroke="black" d="M812.4,-174.71C776.77,-160.76 725.36,-140.62 687.4,-125.75"/>
<polygon fill="black" stroke="black" points="688.64,-122.48 678.05,-122.09 686.09,-129 688.64,-122.48"/>
<text text-anchor="middle" x="781.48" y="-144.8" font-family="Times,serif" font-size="14.00">previous</text>
</g>
<!-- http://purl.org/dj/kaggle/bowl19&#45;state&#45;transfers/activity/&#45;2790346641572437803&#45;&gt;http://purl.org/dj/kaggle/bowl19&#45;state&#45;transfers/activity/7175780381740465456 -->
<g id="edge10" class="edge">
<title>http://purl.org/dj/kaggle/bowl19&#45;state&#45;transfers/activity/&#45;2790346641572437803&#45;&gt;http://purl.org/dj/kaggle/bowl19&#45;state&#45;transfers/activity/7175780381740465456</title>
<path fill="none" stroke="black" d="M556.42,-173.8C571.58,-161.04 592.41,-143.5 609.1,-129.46"/>
<polygon fill="black" stroke="black" points="611.52,-132 616.91,-122.89 607.01,-126.65 611.52,-132"/>
<text text-anchor="middle" x="615.48" y="-144.8" font-family="Times,serif" font-size="14.00">previous</text>
</g>
<!-- http://purl.org/dj/kaggle/bowl19&#45;state&#45;transfers/activity/6324696613396959095 -->
<g id="node7" class="node">
<title>http://purl.org/dj/kaggle/bowl19&#45;state&#45;transfers/activity/6324696613396959095</title>
<ellipse fill="none" stroke="black" cx="970.98" cy="-366" rx="148.67" ry="18"/>
<text text-anchor="middle" x="970.98" y="-362.3" font-family="Times,serif" font-size="14.00">6324696613396959095 (Visualisation)</text>
</g>
<!-- http://purl.org/dj/kaggle/bowl19&#45;state&#45;transfers/activity/6324696613396959095&#45;&gt;http://purl.org/dj/kaggle/bowl19&#45;state&#45;transfers/activity/7175780381740465456 -->
<g id="edge11" class="edge">
<title>http://purl.org/dj/kaggle/bowl19&#45;state&#45;transfers/activity/6324696613396959095&#45;&gt;http://purl.org/dj/kaggle/bowl19&#45;state&#45;transfers/activity/7175780381740465456</title>
<path fill="none" stroke="black" d="M1026.4,-349.15C1052.02,-338.74 1080.03,-322.25 1094.98,-297 1113.83,-265.17 1079.62,-184.43 1069.98,-174 1030.09,-130.84 880.7,-115 768.47,-109.24"/>
<polygon fill="black" stroke="black" points="768.58,-105.74 758.42,-108.74 768.23,-112.73 768.58,-105.74"/>
<text text-anchor="middle" x="1120.48" y="-231.8" font-family="Times,serif" font-size="14.00">previous</text>
</g>
<!-- http://purl.org/dj/kaggle/bowl19&#45;state&#45;transfers/activity/4050181736484063176 -->
<g id="node8" class="node">
<title>http://purl.org/dj/kaggle/bowl19&#45;state&#45;transfers/activity/4050181736484063176</title>
<ellipse fill="none" stroke="black" cx="970.98" cy="-453" rx="142.97" ry="18"/>
<text text-anchor="middle" x="970.98" y="-449.3" font-family="Times,serif" font-size="14.00">4050181736484063176 (Preparation)</text>
</g>
<!-- http://purl.org/dj/kaggle/bowl19&#45;state&#45;transfers/activity/6324696613396959095&#45;&gt;http://purl.org/dj/kaggle/bowl19&#45;state&#45;transfers/activity/4050181736484063176 -->
<g id="edge12" class="edge">
<title>http://purl.org/dj/kaggle/bowl19&#45;state&#45;transfers/activity/6324696613396959095&#45;&gt;http://purl.org/dj/kaggle/bowl19&#45;state&#45;transfers/activity/4050181736484063176</title>
<path fill="none" stroke="black" d="M979.18,-383.98C982.86,-393.59 985.98,-405.88 983.98,-417 983.49,-419.72 982.8,-422.5 982,-425.25"/>
<polygon fill="black" stroke="black" points="978.63,-424.3 978.71,-434.9 985.25,-426.56 978.63,-424.3"/>
<text text-anchor="middle" x="1007.48" y="-405.8" font-family="Times,serif" font-size="14.00">previous</text>
</g>
<!-- http://purl.org/dj/kaggle/bowl19&#45;state&#45;transfers/activity/&#45;4738682657922040695 -->
<g id="node9" class="node">
<title>http://purl.org/dj/kaggle/bowl19&#45;state&#45;transfers/activity/&#45;4738682657922040695</title>
<ellipse fill="none" stroke="black" cx="939.98" cy="-279" rx="145.67" ry="18"/>
<text text-anchor="middle" x="939.98" y="-275.3" font-family="Times,serif" font-size="14.00">&#45;4738682657922040695 (Preparation)</text>
</g>
<!-- http://purl.org/dj/kaggle/bowl19&#45;state&#45;transfers/activity/6324696613396959095&#45;&gt;http://purl.org/dj/kaggle/bowl19&#45;state&#45;transfers/activity/&#45;4738682657922040695 -->
<g id="edge13" class="edge">
<title>http://purl.org/dj/kaggle/bowl19&#45;state&#45;transfers/activity/6324696613396959095&#45;&gt;http://purl.org/dj/kaggle/bowl19&#45;state&#45;transfers/activity/&#45;4738682657922040695</title>
<path fill="none" stroke="black" d="M964.7,-347.8C960.42,-336.05 954.65,-320.24 949.77,-306.84"/>
<polygon fill="black" stroke="black" points="952.96,-305.37 946.24,-297.18 946.38,-307.77 952.96,-305.37"/>
<text text-anchor="middle" x="980.48" y="-318.8" font-family="Times,serif" font-size="14.00">previous</text>
</g>
<!-- http://purl.org/dj/kaggle/bowl19&#45;state&#45;transfers/activity/4050181736484063176&#45;&gt;http://purl.org/dj/kaggle/bowl19&#45;state&#45;transfers/activity/7175780381740465456 -->
<g id="edge14" class="edge">
<title>http://purl.org/dj/kaggle/bowl19&#45;state&#45;transfers/activity/4050181736484063176&#45;&gt;http://purl.org/dj/kaggle/bowl19&#45;state&#45;transfers/activity/7175780381740465456</title>
<path fill="none" stroke="black" d="M1090.52,-443.03C1135.5,-432.49 1175.98,-410.83 1175.98,-367 1175.98,-367 1175.98,-367 1175.98,-191 1175.98,-125.77 1101.68,-155.07 1037.98,-141 949.81,-121.53 848.5,-112.8 769.77,-108.92"/>
<polygon fill="black" stroke="black" points="769.46,-105.41 759.31,-108.43 769.13,-112.4 769.46,-105.41"/>
<text text-anchor="middle" x="1199.48" y="-275.3" font-family="Times,serif" font-size="14.00">previous</text>
</g>
<!-- http://purl.org/dj/kaggle/bowl19&#45;state&#45;transfers/activity/4050181736484063176&#45;&gt;http://purl.org/dj/kaggle/bowl19&#45;state&#45;transfers/activity/6345340341021691771 -->
<g id="edge15" class="edge">
<title>http://purl.org/dj/kaggle/bowl19&#45;state&#45;transfers/activity/4050181736484063176&#45;&gt;http://purl.org/dj/kaggle/bowl19&#45;state&#45;transfers/activity/6345340341021691771</title>
<path fill="none" stroke="black" d="M904.2,-437.01C872.71,-426.84 836.88,-410.29 812.98,-384 775.26,-342.52 763.33,-312.72 784.98,-261 792.36,-243.36 806.79,-227.98 820.56,-216.33"/>
<polygon fill="black" stroke="black" points="822.94,-218.91 828.53,-209.91 818.55,-213.45 822.94,-218.91"/>
<text text-anchor="middle" x="800.48" y="-318.8" font-family="Times,serif" font-size="14.00">previous</text>
</g>
<!-- http://purl.org/dj/kaggle/bowl19&#45;state&#45;transfers/activity/4050181736484063176&#45;&gt;http://purl.org/dj/kaggle/bowl19&#45;state&#45;transfers/activity/6324696613396959095 -->
<g id="edge16" class="edge">
<title>http://purl.org/dj/kaggle/bowl19&#45;state&#45;transfers/activity/4050181736484063176&#45;&gt;http://purl.org/dj/kaggle/bowl19&#45;state&#45;transfers/activity/6324696613396959095</title>
<path fill="none" stroke="black" d="M946.25,-435.26C936.02,-426.11 927.64,-414.18 932.98,-402 934.68,-398.12 937.05,-394.48 939.78,-391.12"/>
<polygon fill="black" stroke="black" points="942.35,-393.5 946.66,-383.82 937.26,-388.69 942.35,-393.5"/>
<text text-anchor="middle" x="956.48" y="-405.8" font-family="Times,serif" font-size="14.00">previous</text>
</g>
<!-- http://purl.org/dj/kaggle/bowl19&#45;state&#45;transfers/activity/&#45;4738682657922040695&#45;&gt;http://purl.org/dj/kaggle/bowl19&#45;state&#45;transfers/activity/7175780381740465456 -->
<g id="edge17" class="edge">
<title>http://purl.org/dj/kaggle/bowl19&#45;state&#45;transfers/activity/&#45;4738682657922040695&#45;&gt;http://purl.org/dj/kaggle/bowl19&#45;state&#45;transfers/activity/7175780381740465456</title>
<path fill="none" stroke="black" d="M965.97,-261.12C995.36,-239.97 1036.19,-202.99 1011.98,-174 980.54,-136.35 859.75,-119.5 763.64,-111.99"/>
<polygon fill="black" stroke="black" points="763.77,-108.49 753.54,-111.23 763.24,-115.47 763.77,-108.49"/>
<text text-anchor="middle" x="1042.48" y="-188.3" font-family="Times,serif" font-size="14.00">previous</text>
</g>
<!-- http://purl.org/dj/kaggle/bowl19&#45;state&#45;transfers/activity/&#45;4738682657922040695&#45;&gt;http://purl.org/dj/kaggle/bowl19&#45;state&#45;transfers/activity/6345340341021691771 -->
<g id="edge18" class="edge">
<title>http://purl.org/dj/kaggle/bowl19&#45;state&#45;transfers/activity/&#45;4738682657922040695&#45;&gt;http://purl.org/dj/kaggle/bowl19&#45;state&#45;transfers/activity/6345340341021691771</title>
<path fill="none" stroke="black" d="M922.57,-260.8C909.9,-248.27 892.57,-231.14 878.49,-217.23"/>
<polygon fill="black" stroke="black" points="880.63,-214.43 871.06,-209.89 875.71,-219.4 880.63,-214.43"/>
<text text-anchor="middle" x="925.48" y="-231.8" font-family="Times,serif" font-size="14.00">previous</text>
</g>
</g>
</svg>
