<?xml version="1.0" encoding="UTF-8" standalone="no"?>
<!DOCTYPE svg PUBLIC "-//W3C//DTD SVG 1.1//EN"
 "http://www.w3.org/Graphics/SVG/1.1/DTD/svg11.dtd">
<!-- Generated by graphviz version 2.47.1 (20210417.1919)
 -->
<!-- Pages: 1 -->
<svg width="2820pt" height="587pt"
 viewBox="0.00 0.00 2820.08 587.00" xmlns="http://www.w3.org/2000/svg" xmlns:xlink="http://www.w3.org/1999/xlink">
<g id="graph0" class="graph" transform="scale(1 1) rotate(0) translate(4 583)">
<polygon fill="white" stroke="transparent" points="-4,4 -4,-583 2816.08,-583 2816.08,4 -4,4"/>
<!-- http://purl.org/dj/kaggle/capsule&#45;kannad/activity/&#45;1572517530352436026 -->
<g id="node1" class="node">
<title>http://purl.org/dj/kaggle/capsule&#45;kannad/activity/&#45;1572517530352436026</title>
<ellipse fill="none" stroke="black" cx="179.08" cy="-192" rx="145.67" ry="18"/>
<text text-anchor="middle" x="179.08" y="-188.3" font-family="Times,serif" font-size="14.00">&#45;1572517530352436026 (Preparation)</text>
</g>
<!-- http://purl.org/dj/kaggle/capsule&#45;kannad -->
<g id="node2" class="node">
<title>http://purl.org/dj/kaggle/capsule&#45;kannad</title>
<ellipse fill="none" stroke="black" cx="359.08" cy="-18" rx="150.57" ry="18"/>
<text text-anchor="middle" x="359.08" y="-14.3" font-family="Times,serif" font-size="14.00">capsule&#45;kannad (capsule&#45;kannad.ipynb)</text>
</g>
<!-- http://purl.org/dj/kaggle/capsule&#45;kannad/activity/&#45;1572517530352436026&#45;&gt;http://purl.org/dj/kaggle/capsule&#45;kannad -->
<g id="edge1" class="edge">
<title>http://purl.org/dj/kaggle/capsule&#45;kannad/activity/&#45;1572517530352436026&#45;&gt;http://purl.org/dj/kaggle/capsule&#45;kannad</title>
<path fill="none" stroke="black" d="M197,-173.88C229.21,-143.1 296.97,-78.35 333.86,-43.1"/>
<polygon fill="black" stroke="black" points="336.42,-45.49 341.23,-36.05 331.59,-40.43 336.42,-45.49"/>
<text text-anchor="middle" x="310.58" y="-101.3" font-family="Times,serif" font-size="14.00">previous</text>
</g>
<!-- http://purl.org/dj/kaggle/capsule&#45;kannad/activity/&#45;8341527652629000045 -->
<g id="node3" class="node">
<title>http://purl.org/dj/kaggle/capsule&#45;kannad/activity/&#45;8341527652629000045</title>
<ellipse fill="none" stroke="black" cx="1261.08" cy="-105" rx="126.98" ry="18"/>
<text text-anchor="middle" x="1261.08" y="-101.3" font-family="Times,serif" font-size="14.00">&#45;8341527652629000045 (Reuse)</text>
</g>
<!-- http://purl.org/dj/kaggle/capsule&#45;kannad/activity/&#45;1572517530352436026&#45;&gt;http://purl.org/dj/kaggle/capsule&#45;kannad/activity/&#45;8341527652629000045 -->
<g id="edge2" class="edge">
<title>http://purl.org/dj/kaggle/capsule&#45;kannad/activity/&#45;1572517530352436026&#45;&gt;http://purl.org/dj/kaggle/capsule&#45;kannad/activity/&#45;8341527652629000045</title>
<path fill="none" stroke="black" d="M283.71,-179.46C300.55,-177.62 317.79,-175.75 334.08,-174 473.16,-159.04 507.66,-152.32 647.08,-141 814.12,-127.44 1007.15,-117.35 1131.5,-111.57"/>
<polygon fill="black" stroke="black" points="1131.99,-115.06 1141.82,-111.1 1131.67,-108.06 1131.99,-115.06"/>
<text text-anchor="middle" x="670.58" y="-144.8" font-family="Times,serif" font-size="14.00">previous</text>
</g>
<!-- http://purl.org/dj/kaggle/capsule&#45;kannad/activity/&#45;8341527652629000045&#45;&gt;http://purl.org/dj/kaggle/capsule&#45;kannad -->
<g id="edge3" class="edge">
<title>http://purl.org/dj/kaggle/capsule&#45;kannad/activity/&#45;8341527652629000045&#45;&gt;http://purl.org/dj/kaggle/capsule&#45;kannad</title>
<path fill="none" stroke="black" d="M1158.49,-94.33C991.83,-78.63 662.89,-47.63 483.28,-30.7"/>
<polygon fill="black" stroke="black" points="483.53,-27.21 473.25,-29.76 482.88,-34.18 483.53,-27.21"/>
<text text-anchor="middle" x="888.58" y="-57.8" font-family="Times,serif" font-size="14.00">previous</text>
</g>
<!-- http://purl.org/dj/kaggle/capsule&#45;kannad/activity/6809796326318311767 -->
<g id="node4" class="node">
<title>http://purl.org/dj/kaggle/capsule&#45;kannad/activity/6809796326318311767</title>
<ellipse fill="none" stroke="black" cx="2454.08" cy="-561" rx="142.97" ry="18"/>
<text text-anchor="middle" x="2454.08" y="-557.3" font-family="Times,serif" font-size="14.00">6809796326318311767 (Preparation)</text>
</g>
<!-- http://purl.org/dj/kaggle/capsule&#45;kannad/activity/6809796326318311767&#45;&gt;http://purl.org/dj/kaggle/capsule&#45;kannad/activity/&#45;8341527652629000045 -->
<g id="edge4" class="edge">
<title>http://purl.org/dj/kaggle/capsule&#45;kannad/activity/6809796326318311767&#45;&gt;http://purl.org/dj/kaggle/capsule&#45;kannad/activity/&#45;8341527652629000045</title>
<path fill="none" stroke="black" d="M2568.56,-550.11C2657.24,-539.17 2765.08,-517.19 2765.08,-475 2765.08,-475 2765.08,-475 2765.08,-191 2765.08,-114.37 2675.72,-153.22 2600.08,-141 2483.87,-122.22 1713.77,-111.25 1396.9,-107.49"/>
<polygon fill="black" stroke="black" points="1396.78,-103.99 1386.74,-107.37 1396.7,-110.99 1396.78,-103.99"/>
<text text-anchor="middle" x="2788.58" y="-329.3" font-family="Times,serif" font-size="14.00">previous</text>
</g>
<!-- http://purl.org/dj/kaggle/capsule&#45;kannad/activity/8149293078188041366 -->
<g id="node5" class="node">
<title>http://purl.org/dj/kaggle/capsule&#45;kannad/activity/8149293078188041366</title>
<ellipse fill="none" stroke="black" cx="1975.08" cy="-474" rx="148.67" ry="18"/>
<text text-anchor="middle" x="1975.08" y="-470.3" font-family="Times,serif" font-size="14.00">8149293078188041366 (Visualisation)</text>
</g>
<!-- http://purl.org/dj/kaggle/capsule&#45;kannad/activity/6809796326318311767&#45;&gt;http://purl.org/dj/kaggle/capsule&#45;kannad/activity/8149293078188041366 -->
<g id="edge5" class="edge">
<title>http://purl.org/dj/kaggle/capsule&#45;kannad/activity/6809796326318311767&#45;&gt;http://purl.org/dj/kaggle/capsule&#45;kannad/activity/8149293078188041366</title>
<path fill="none" stroke="black" d="M2374.98,-545.96C2289.78,-530.84 2154.45,-506.83 2065.2,-490.99"/>
<polygon fill="black" stroke="black" points="2065.55,-487.5 2055.09,-489.2 2064.33,-494.39 2065.55,-487.5"/>
<text text-anchor="middle" x="2266.58" y="-513.8" font-family="Times,serif" font-size="14.00">previous</text>
</g>
<!-- http://purl.org/dj/kaggle/capsule&#45;kannad/activity/8149293078188041366&#45;&gt;http://purl.org/dj/kaggle/capsule&#45;kannad/activity/&#45;1572517530352436026 -->
<g id="edge6" class="edge">
<title>http://purl.org/dj/kaggle/capsule&#45;kannad/activity/8149293078188041366&#45;&gt;http://purl.org/dj/kaggle/capsule&#45;kannad/activity/&#45;1572517530352436026</title>
<path fill="none" stroke="black" d="M1843.72,-465.45C1688.17,-455.61 1421.49,-435.93 1194.08,-405 933.4,-369.55 869.4,-351.74 612.08,-297 483.33,-269.61 334.31,-232.65 248.93,-210.97"/>
<polygon fill="black" stroke="black" points="249.65,-207.54 239.09,-208.46 247.92,-214.32 249.65,-207.54"/>
<text text-anchor="middle" x="888.58" y="-329.3" font-family="Times,serif" font-size="14.00">previous</text>
</g>
<!-- http://purl.org/dj/kaggle/capsule&#45;kannad/activity/&#45;7519143956458999720 -->
<g id="node6" class="node">
<title>http://purl.org/dj/kaggle/capsule&#45;kannad/activity/&#45;7519143956458999720</title>
<ellipse fill="none" stroke="black" cx="1349.08" cy="-387" rx="145.67" ry="18"/>
<text text-anchor="middle" x="1349.08" y="-383.3" font-family="Times,serif" font-size="14.00">&#45;7519143956458999720 (Preparation)</text>
</g>
<!-- http://purl.org/dj/kaggle/capsule&#45;kannad/activity/8149293078188041366&#45;&gt;http://purl.org/dj/kaggle/capsule&#45;kannad/activity/&#45;7519143956458999720 -->
<g id="edge7" class="edge">
<title>http://purl.org/dj/kaggle/capsule&#45;kannad/activity/8149293078188041366&#45;&gt;http://purl.org/dj/kaggle/capsule&#45;kannad/activity/&#45;7519143956458999720</title>
<path fill="none" stroke="black" d="M1880,-460.09C1765.09,-444.49 1572.39,-418.32 1453.46,-402.17"/>
<polygon fill="black" stroke="black" points="1453.63,-398.66 1443.25,-400.79 1452.69,-405.6 1453.63,-398.66"/>
<text text-anchor="middle" x="1723.58" y="-426.8" font-family="Times,serif" font-size="14.00">previous</text>
</g>
<!-- http://purl.org/dj/kaggle/capsule&#45;kannad/activity/7500594070642535398 -->
<g id="node7" class="node">
<title>http://purl.org/dj/kaggle/capsule&#45;kannad/activity/7500594070642535398</title>
<ellipse fill="none" stroke="black" cx="1975.08" cy="-387" rx="142.97" ry="18"/>
<text text-anchor="middle" x="1975.08" y="-383.3" font-family="Times,serif" font-size="14.00">7500594070642535398 (Preparation)</text>
</g>
<!-- http://purl.org/dj/kaggle/capsule&#45;kannad/activity/8149293078188041366&#45;&gt;http://purl.org/dj/kaggle/capsule&#45;kannad/activity/7500594070642535398 -->
<g id="edge8" class="edge">
<title>http://purl.org/dj/kaggle/capsule&#45;kannad/activity/8149293078188041366&#45;&gt;http://purl.org/dj/kaggle/capsule&#45;kannad/activity/7500594070642535398</title>
<path fill="none" stroke="black" d="M1975.08,-455.8C1975.08,-444.16 1975.08,-428.55 1975.08,-415.24"/>
<polygon fill="black" stroke="black" points="1978.58,-415.18 1975.08,-405.18 1971.58,-415.18 1978.58,-415.18"/>
<text text-anchor="middle" x="1998.58" y="-426.8" font-family="Times,serif" font-size="14.00">previous</text>
</g>
<!-- http://purl.org/dj/kaggle/capsule&#45;kannad/activity/427942986580376085 -->
<g id="node8" class="node">
<title>http://purl.org/dj/kaggle/capsule&#45;kannad/activity/427942986580376085</title>
<ellipse fill="none" stroke="black" cx="2604.08" cy="-333" rx="138.38" ry="18"/>
<text text-anchor="middle" x="2604.08" y="-329.3" font-family="Times,serif" font-size="14.00">427942986580376085 (Preparation)</text>
</g>
<!-- http://purl.org/dj/kaggle/capsule&#45;kannad/activity/8149293078188041366&#45;&gt;http://purl.org/dj/kaggle/capsule&#45;kannad/activity/427942986580376085 -->
<g id="edge9" class="edge">
<title>http://purl.org/dj/kaggle/capsule&#45;kannad/activity/8149293078188041366&#45;&gt;http://purl.org/dj/kaggle/capsule&#45;kannad/activity/427942986580376085</title>
<path fill="none" stroke="black" d="M2043.29,-457.93C2161.42,-431.82 2403.3,-378.37 2527.2,-350.99"/>
<polygon fill="black" stroke="black" points="2527.99,-354.4 2537,-348.82 2526.48,-347.56 2527.99,-354.4"/>
<text text-anchor="middle" x="2219.58" y="-426.8" font-family="Times,serif" font-size="14.00">previous</text>
</g>
<!-- http://purl.org/dj/kaggle/capsule&#45;kannad/activity/&#45;4999135308795039072 -->
<g id="node10" class="node">
<title>http://purl.org/dj/kaggle/capsule&#45;kannad/activity/&#45;4999135308795039072</title>
<ellipse fill="none" stroke="black" cx="765.08" cy="-279" rx="144.07" ry="18"/>
<text text-anchor="middle" x="765.08" y="-275.3" font-family="Times,serif" font-size="14.00">&#45;4999135308795039072 (Movement)</text>
</g>
<!-- http://purl.org/dj/kaggle/capsule&#45;kannad/activity/&#45;7519143956458999720&#45;&gt;http://purl.org/dj/kaggle/capsule&#45;kannad/activity/&#45;4999135308795039072 -->
<g id="edge11" class="edge">
<title>http://purl.org/dj/kaggle/capsule&#45;kannad/activity/&#45;7519143956458999720&#45;&gt;http://purl.org/dj/kaggle/capsule&#45;kannad/activity/&#45;4999135308795039072</title>
<path fill="none" stroke="black" d="M1270.62,-371.76C1162.07,-352.06 966.64,-316.58 853.19,-295.99"/>
<polygon fill="black" stroke="black" points="853.61,-292.51 843.15,-294.17 852.36,-299.4 853.61,-292.51"/>
<text text-anchor="middle" x="1167.58" y="-329.3" font-family="Times,serif" font-size="14.00">previous</text>
</g>
<!-- http://purl.org/dj/kaggle/capsule&#45;kannad/activity/7500594070642535398&#45;&gt;http://purl.org/dj/kaggle/capsule&#45;kannad/activity/&#45;8341527652629000045 -->
<g id="edge12" class="edge">
<title>http://purl.org/dj/kaggle/capsule&#45;kannad/activity/7500594070642535398&#45;&gt;http://purl.org/dj/kaggle/capsule&#45;kannad/activity/&#45;8341527652629000045</title>
<path fill="none" stroke="black" d="M2052.02,-371.82C2224.16,-338.47 2619.78,-252.01 2547.08,-174 2508.32,-132.41 1719.2,-113.98 1396.66,-108.16"/>
<polygon fill="black" stroke="black" points="1396.38,-104.66 1386.32,-107.98 1396.25,-111.66 1396.38,-104.66"/>
<text text-anchor="middle" x="2552.58" y="-231.8" font-family="Times,serif" font-size="14.00">previous</text>
</g>
<!-- http://purl.org/dj/kaggle/capsule&#45;kannad/activity/8318884767294695419 -->
<g id="node11" class="node">
<title>http://purl.org/dj/kaggle/capsule&#45;kannad/activity/8318884767294695419</title>
<ellipse fill="none" stroke="black" cx="1474.08" cy="-279" rx="148.67" ry="18"/>
<text text-anchor="middle" x="1474.08" y="-275.3" font-family="Times,serif" font-size="14.00">8318884767294695419 (Visualisation)</text>
</g>
<!-- http://purl.org/dj/kaggle/capsule&#45;kannad/activity/7500594070642535398&#45;&gt;http://purl.org/dj/kaggle/capsule&#45;kannad/activity/8318884767294695419 -->
<g id="edge13" class="edge">
<title>http://purl.org/dj/kaggle/capsule&#45;kannad/activity/7500594070642535398&#45;&gt;http://purl.org/dj/kaggle/capsule&#45;kannad/activity/8318884767294695419</title>
<path fill="none" stroke="black" d="M1905.42,-371.26C1813.36,-351.78 1651.54,-317.55 1554.42,-297"/>
<polygon fill="black" stroke="black" points="1554.87,-293.52 1544.36,-294.87 1553.42,-300.36 1554.87,-293.52"/>
<text text-anchor="middle" x="1822.58" y="-329.3" font-family="Times,serif" font-size="14.00">previous</text>
</g>
<!-- http://purl.org/dj/kaggle/capsule&#45;kannad/activity/427942986580376085&#45;&gt;http://purl.org/dj/kaggle/capsule&#45;kannad/activity/&#45;8341527652629000045 -->
<g id="edge14" class="edge">
<title>http://purl.org/dj/kaggle/capsule&#45;kannad/activity/427942986580376085&#45;&gt;http://purl.org/dj/kaggle/capsule&#45;kannad/activity/&#45;8341527652629000045</title>
<path fill="none" stroke="black" d="M2608.31,-314.74C2616.46,-276.76 2629.49,-185.77 2580.08,-141 2558.38,-121.34 1729.61,-110.76 1397.08,-107.29"/>
<polygon fill="black" stroke="black" points="1396.94,-103.79 1386.9,-107.19 1396.87,-110.79 1396.94,-103.79"/>
<text text-anchor="middle" x="2639.58" y="-231.8" font-family="Times,serif" font-size="14.00">previous</text>
</g>
<!-- http://purl.org/dj/kaggle/capsule&#45;kannad/activity/4951755935612116935 -->
<g id="node9" class="node">
<title>http://purl.org/dj/kaggle/capsule&#45;kannad/activity/4951755935612116935</title>
<ellipse fill="none" stroke="black" cx="780.08" cy="-192" rx="142.97" ry="18"/>
<text text-anchor="middle" x="780.08" y="-188.3" font-family="Times,serif" font-size="14.00">4951755935612116935 (Preparation)</text>
</g>
<!-- http://purl.org/dj/kaggle/capsule&#45;kannad/activity/4951755935612116935&#45;&gt;http://purl.org/dj/kaggle/capsule&#45;kannad/activity/&#45;8341527652629000045 -->
<g id="edge10" class="edge">
<title>http://purl.org/dj/kaggle/capsule&#45;kannad/activity/4951755935612116935&#45;&gt;http://purl.org/dj/kaggle/capsule&#45;kannad/activity/&#45;8341527652629000045</title>
<path fill="none" stroke="black" d="M812.21,-174.22C835.43,-162.9 867.89,-148.66 898.08,-141 972.36,-122.15 1057.56,-113.3 1126.74,-109.21"/>
<polygon fill="black" stroke="black" points="1127.04,-112.7 1136.82,-108.64 1126.64,-105.71 1127.04,-112.7"/>
<text text-anchor="middle" x="921.58" y="-144.8" font-family="Times,serif" font-size="14.00">previous</text>
</g>
<!-- http://purl.org/dj/kaggle/capsule&#45;kannad/activity/&#45;4999135308795039072&#45;&gt;http://purl.org/dj/kaggle/capsule&#45;kannad/activity/&#45;1572517530352436026 -->
<g id="edge16" class="edge">
<title>http://purl.org/dj/kaggle/capsule&#45;kannad/activity/&#45;4999135308795039072&#45;&gt;http://purl.org/dj/kaggle/capsule&#45;kannad/activity/&#45;1572517530352436026</title>
<path fill="none" stroke="black" d="M687.77,-263.76C667.5,-258.59 646.03,-251.79 627.08,-243 616.67,-238.17 616.88,-231.86 606.08,-228 549.03,-207.62 394.42,-215.3 334.08,-210 320.41,-208.8 306.07,-207.41 291.87,-205.95"/>
<polygon fill="black" stroke="black" points="291.88,-202.43 281.57,-204.87 291.15,-209.39 291.88,-202.43"/>
<text text-anchor="middle" x="650.58" y="-231.8" font-family="Times,serif" font-size="14.00">previous</text>
</g>
<!-- http://purl.org/dj/kaggle/capsule&#45;kannad/activity/&#45;4999135308795039072&#45;&gt;http://purl.org/dj/kaggle/capsule&#45;kannad/activity/&#45;8341527652629000045 -->
<g id="edge17" class="edge">
<title>http://purl.org/dj/kaggle/capsule&#45;kannad/activity/&#45;4999135308795039072&#45;&gt;http://purl.org/dj/kaggle/capsule&#45;kannad/activity/&#45;8341527652629000045</title>
<path fill="none" stroke="black" d="M818.9,-262.2C853.01,-250.74 897.13,-233.2 932.08,-210 950.93,-197.49 948.29,-184.98 968.08,-174 1023.21,-143.4 1091.52,-126.54 1148.31,-117.26"/>
<polygon fill="black" stroke="black" points="1149.08,-120.68 1158.41,-115.67 1147.99,-113.77 1149.08,-120.68"/>
<text text-anchor="middle" x="991.58" y="-188.3" font-family="Times,serif" font-size="14.00">previous</text>
</g>
<!-- http://purl.org/dj/kaggle/capsule&#45;kannad/activity/680625644022092683 -->
<g id="node12" class="node">
<title>http://purl.org/dj/kaggle/capsule&#45;kannad/activity/680625644022092683</title>
<ellipse fill="none" stroke="black" cx="481.08" cy="-192" rx="138.38" ry="18"/>
<text text-anchor="middle" x="481.08" y="-188.3" font-family="Times,serif" font-size="14.00">680625644022092683 (Preparation)</text>
</g>
<!-- http://purl.org/dj/kaggle/capsule&#45;kannad/activity/&#45;4999135308795039072&#45;&gt;http://purl.org/dj/kaggle/capsule&#45;kannad/activity/680625644022092683 -->
<g id="edge18" class="edge">
<title>http://purl.org/dj/kaggle/capsule&#45;kannad/activity/&#45;4999135308795039072&#45;&gt;http://purl.org/dj/kaggle/capsule&#45;kannad/activity/680625644022092683</title>
<path fill="none" stroke="black" d="M741.07,-261.16C724.19,-250.1 700.67,-236.21 678.08,-228 651.21,-218.23 621.26,-211.13 592.98,-205.98"/>
<polygon fill="black" stroke="black" points="593.51,-202.52 583.06,-204.24 592.31,-209.42 593.51,-202.52"/>
<text text-anchor="middle" x="734.58" y="-231.8" font-family="Times,serif" font-size="14.00">previous</text>
</g>
<!-- http://purl.org/dj/kaggle/capsule&#45;kannad/activity/8318884767294695419&#45;&gt;http://purl.org/dj/kaggle/capsule&#45;kannad/activity/&#45;1572517530352436026 -->
<g id="edge19" class="edge">
<title>http://purl.org/dj/kaggle/capsule&#45;kannad/activity/8318884767294695419&#45;&gt;http://purl.org/dj/kaggle/capsule&#45;kannad/activity/&#45;1572517530352436026</title>
<path fill="none" stroke="black" d="M1353.2,-268.47C1211.61,-257.55 969.93,-239.67 762.08,-228 571.99,-217.33 523.92,-224.39 334.08,-210 319.82,-208.92 304.85,-207.56 290.07,-206.09"/>
<polygon fill="black" stroke="black" points="290.18,-202.58 279.87,-205.05 289.47,-209.54 290.18,-202.58"/>
<text text-anchor="middle" x="1021.58" y="-231.8" font-family="Times,serif" font-size="14.00">previous</text>
</g>
<!-- http://purl.org/dj/kaggle/capsule&#45;kannad/activity/&#45;6035254020956647555 -->
<g id="node13" class="node">
<title>http://purl.org/dj/kaggle/capsule&#45;kannad/activity/&#45;6035254020956647555</title>
<ellipse fill="none" stroke="black" cx="1474.08" cy="-192" rx="145.67" ry="18"/>
<text text-anchor="middle" x="1474.08" y="-188.3" font-family="Times,serif" font-size="14.00">&#45;6035254020956647555 (Preparation)</text>
</g>
<!-- http://purl.org/dj/kaggle/capsule&#45;kannad/activity/8318884767294695419&#45;&gt;http://purl.org/dj/kaggle/capsule&#45;kannad/activity/&#45;6035254020956647555 -->
<g id="edge20" class="edge">
<title>http://purl.org/dj/kaggle/capsule&#45;kannad/activity/8318884767294695419&#45;&gt;http://purl.org/dj/kaggle/capsule&#45;kannad/activity/&#45;6035254020956647555</title>
<path fill="none" stroke="black" d="M1474.08,-260.8C1474.08,-249.16 1474.08,-233.55 1474.08,-220.24"/>
<polygon fill="black" stroke="black" points="1477.58,-220.18 1474.08,-210.18 1470.58,-220.18 1477.58,-220.18"/>
<text text-anchor="middle" x="1497.58" y="-231.8" font-family="Times,serif" font-size="14.00">previous</text>
</g>
<!-- http://purl.org/dj/kaggle/capsule&#45;kannad/activity/680625644022092683&#45;&gt;http://purl.org/dj/kaggle/capsule&#45;kannad/activity/&#45;8341527652629000045 -->
<g id="edge15" class="edge">
<title>http://purl.org/dj/kaggle/capsule&#45;kannad/activity/680625644022092683&#45;&gt;http://purl.org/dj/kaggle/capsule&#45;kannad/activity/&#45;8341527652629000045</title>
<path fill="none" stroke="black" d="M559.5,-177.13C624.77,-166 720.23,-150.69 804.08,-141 915.7,-128.11 1043.22,-118.79 1135.15,-113.02"/>
<polygon fill="black" stroke="black" points="1135.57,-116.5 1145.33,-112.39 1135.14,-109.52 1135.57,-116.5"/>
<text text-anchor="middle" x="827.58" y="-144.8" font-family="Times,serif" font-size="14.00">previous</text>
</g>
<!-- http://purl.org/dj/kaggle/capsule&#45;kannad/activity/&#45;6035254020956647555&#45;&gt;http://purl.org/dj/kaggle/capsule&#45;kannad/activity/&#45;8341527652629000045 -->
<g id="edge21" class="edge">
<title>http://purl.org/dj/kaggle/capsule&#45;kannad/activity/&#45;6035254020956647555&#45;&gt;http://purl.org/dj/kaggle/capsule&#45;kannad/activity/&#45;8341527652629000045</title>
<path fill="none" stroke="black" d="M1433.26,-174.71C1398.44,-160.82 1348.26,-140.79 1311.04,-125.94"/>
<polygon fill="black" stroke="black" points="1311.98,-122.54 1301.4,-122.09 1309.39,-129.05 1311.98,-122.54"/>
<text text-anchor="middle" x="1404.58" y="-144.8" font-family="Times,serif" font-size="14.00">previous</text>
</g>
<!-- http://purl.org/dj/kaggle/capsule&#45;kannad/activity/1921749407961353408 -->
<g id="node14" class="node">
<title>http://purl.org/dj/kaggle/capsule&#45;kannad/activity/1921749407961353408</title>
<ellipse fill="none" stroke="black" cx="1167.08" cy="-192" rx="142.97" ry="18"/>
<text text-anchor="middle" x="1167.08" y="-188.3" font-family="Times,serif" font-size="14.00">1921749407961353408 (Preparation)</text>
</g>
<!-- http://purl.org/dj/kaggle/capsule&#45;kannad/activity/1921749407961353408&#45;&gt;http://purl.org/dj/kaggle/capsule&#45;kannad/activity/&#45;8341527652629000045 -->
<g id="edge22" class="edge">
<title>http://purl.org/dj/kaggle/capsule&#45;kannad/activity/1921749407961353408&#45;&gt;http://purl.org/dj/kaggle/capsule&#45;kannad/activity/&#45;8341527652629000045</title>
<path fill="none" stroke="black" d="M1186.1,-173.8C1200.08,-161.16 1219.25,-143.82 1234.71,-129.85"/>
<polygon fill="black" stroke="black" points="1237.34,-132.19 1242.41,-122.89 1232.64,-127 1237.34,-132.19"/>
<text text-anchor="middle" x="1243.58" y="-144.8" font-family="Times,serif" font-size="14.00">previous</text>
</g>
<!-- http://purl.org/dj/kaggle/capsule&#45;kannad/activity/&#45;2550468648158075943 -->
<g id="node15" class="node">
<title>http://purl.org/dj/kaggle/capsule&#45;kannad/activity/&#45;2550468648158075943</title>
<ellipse fill="none" stroke="black" cx="160.08" cy="-387" rx="151.37" ry="18"/>
<text text-anchor="middle" x="160.08" y="-383.3" font-family="Times,serif" font-size="14.00">&#45;2550468648158075943 (Visualisation)</text>
</g>
<!-- http://purl.org/dj/kaggle/capsule&#45;kannad/activity/&#45;2550468648158075943&#45;&gt;http://purl.org/dj/kaggle/capsule&#45;kannad/activity/&#45;1572517530352436026 -->
<g id="edge23" class="edge">
<title>http://purl.org/dj/kaggle/capsule&#45;kannad/activity/&#45;2550468648158075943&#45;&gt;http://purl.org/dj/kaggle/capsule&#45;kannad/activity/&#45;1572517530352436026</title>
<path fill="none" stroke="black" d="M205.63,-369.74C237.26,-355.78 277.02,-332.25 296.08,-297 303.69,-282.93 304.06,-274.87 296.08,-261 283.57,-239.26 261.15,-223.83 239.26,-213.22"/>
<polygon fill="black" stroke="black" points="240.49,-209.94 229.94,-208.97 237.58,-216.31 240.49,-209.94"/>
<text text-anchor="middle" x="325.58" y="-275.3" font-family="Times,serif" font-size="14.00">previous</text>
</g>
<!-- http://purl.org/dj/kaggle/capsule&#45;kannad/activity/&#45;2550468648158075943&#45;&gt;http://purl.org/dj/kaggle/capsule&#45;kannad/activity/&#45;8341527652629000045 -->
<g id="edge24" class="edge">
<title>http://purl.org/dj/kaggle/capsule&#45;kannad/activity/&#45;2550468648158075943&#45;&gt;http://purl.org/dj/kaggle/capsule&#45;kannad/activity/&#45;8341527652629000045</title>
<path fill="none" stroke="black" d="M114.53,-369.74C82.9,-355.78 43.14,-332.25 24.08,-297 -1.92,-248.91 -13.19,-213.99 24.08,-174 61.18,-134.19 813.05,-114.82 1126.11,-108.46"/>
<polygon fill="black" stroke="black" points="1126.22,-111.96 1136.15,-108.25 1126.08,-104.96 1126.22,-111.96"/>
<text text-anchor="middle" x="25.58" y="-231.8" font-family="Times,serif" font-size="14.00">previous</text>
</g>
<!-- http://purl.org/dj/kaggle/capsule&#45;kannad/activity/&#45;8618754473140756102 -->
<g id="node16" class="node">
<title>http://purl.org/dj/kaggle/capsule&#45;kannad/activity/&#45;8618754473140756102</title>
<ellipse fill="none" stroke="black" cx="160.08" cy="-279" rx="126.98" ry="18"/>
<text text-anchor="middle" x="160.08" y="-275.3" font-family="Times,serif" font-size="14.00">&#45;8618754473140756102 (Reuse)</text>
</g>
<!-- http://purl.org/dj/kaggle/capsule&#45;kannad/activity/&#45;2550468648158075943&#45;&gt;http://purl.org/dj/kaggle/capsule&#45;kannad/activity/&#45;8618754473140756102 -->
<g id="edge25" class="edge">
<title>http://purl.org/dj/kaggle/capsule&#45;kannad/activity/&#45;2550468648158075943&#45;&gt;http://purl.org/dj/kaggle/capsule&#45;kannad/activity/&#45;8618754473140756102</title>
<path fill="none" stroke="black" d="M160.08,-368.97C160.08,-352.38 160.08,-326.88 160.08,-307.43"/>
<polygon fill="black" stroke="black" points="163.58,-307.34 160.08,-297.34 156.58,-307.34 163.58,-307.34"/>
<text text-anchor="middle" x="183.58" y="-329.3" font-family="Times,serif" font-size="14.00">previous</text>
</g>
<!-- http://purl.org/dj/kaggle/capsule&#45;kannad/activity/&#45;8618754473140756102&#45;&gt;http://purl.org/dj/kaggle/capsule&#45;kannad/activity/&#45;1572517530352436026 -->
<g id="edge26" class="edge">
<title>http://purl.org/dj/kaggle/capsule&#45;kannad/activity/&#45;8618754473140756102&#45;&gt;http://purl.org/dj/kaggle/capsule&#45;kannad/activity/&#45;1572517530352436026</title>
<path fill="none" stroke="black" d="M163.92,-260.8C166.52,-249.16 170.02,-233.55 172.99,-220.24"/>
<polygon fill="black" stroke="black" points="176.47,-220.7 175.24,-210.18 169.64,-219.17 176.47,-220.7"/>
<text text-anchor="middle" x="194.58" y="-231.8" font-family="Times,serif" font-size="14.00">previous</text>
</g>
<!-- http://purl.org/dj/kaggle/capsule&#45;kannad/activity/1536154276548338119 -->
<g id="node17" class="node">
<title>http://purl.org/dj/kaggle/capsule&#45;kannad/activity/1536154276548338119</title>
<ellipse fill="none" stroke="black" cx="1781.08" cy="-192" rx="142.97" ry="18"/>
<text text-anchor="middle" x="1781.08" y="-188.3" font-family="Times,serif" font-size="14.00">1536154276548338119 (Preparation)</text>
</g>
<!-- http://purl.org/dj/kaggle/capsule&#45;kannad/activity/1536154276548338119&#45;&gt;http://purl.org/dj/kaggle/capsule&#45;kannad/activity/&#45;8341527652629000045 -->
<g id="edge27" class="edge">
<title>http://purl.org/dj/kaggle/capsule&#45;kannad/activity/1536154276548338119&#45;&gt;http://purl.org/dj/kaggle/capsule&#45;kannad/activity/&#45;8341527652629000045</title>
<path fill="none" stroke="black" d="M1697.53,-177.34C1602.7,-161.84 1448.58,-136.65 1351.13,-120.72"/>
<polygon fill="black" stroke="black" points="1351.44,-117.22 1341,-119.06 1350.31,-124.13 1351.44,-117.22"/>
<text text-anchor="middle" x="1576.58" y="-144.8" font-family="Times,serif" font-size="14.00">previous</text>
</g>
<!-- http://purl.org/dj/kaggle/capsule&#45;kannad/activity/&#45;8640458390877654448 -->
<g id="node18" class="node">
<title>http://purl.org/dj/kaggle/capsule&#45;kannad/activity/&#45;8640458390877654448</title>
<ellipse fill="none" stroke="black" cx="2088.08" cy="-192" rx="145.67" ry="18"/>
<text text-anchor="middle" x="2088.08" y="-188.3" font-family="Times,serif" font-size="14.00">&#45;8640458390877654448 (Preparation)</text>
</g>
<!-- http://purl.org/dj/kaggle/capsule&#45;kannad/activity/&#45;8640458390877654448&#45;&gt;http://purl.org/dj/kaggle/capsule&#45;kannad/activity/&#45;8341527652629000045 -->
<g id="edge28" class="edge">
<title>http://purl.org/dj/kaggle/capsule&#45;kannad/activity/&#45;8640458390877654448&#45;&gt;http://purl.org/dj/kaggle/capsule&#45;kannad/activity/&#45;8341527652629000045</title>
<path fill="none" stroke="black" d="M1983.45,-179.4C1966.61,-177.57 1949.37,-175.72 1933.08,-174 1735.6,-153.18 1505.34,-130.15 1372.08,-116.94"/>
<polygon fill="black" stroke="black" points="1372.16,-113.43 1361.86,-115.93 1371.47,-120.4 1372.16,-113.43"/>
<text text-anchor="middle" x="1772.58" y="-144.8" font-family="Times,serif" font-size="14.00">previous</text>
</g>
<!-- http://purl.org/dj/kaggle/capsule&#45;kannad/activity/1831454214227028381 -->
<g id="node19" class="node">
<title>http://purl.org/dj/kaggle/capsule&#45;kannad/activity/1831454214227028381</title>
<ellipse fill="none" stroke="black" cx="2395.08" cy="-192" rx="142.97" ry="18"/>
<text text-anchor="middle" x="2395.08" y="-188.3" font-family="Times,serif" font-size="14.00">1831454214227028381 (Preparation)</text>
</g>
<!-- http://purl.org/dj/kaggle/capsule&#45;kannad/activity/1831454214227028381&#45;&gt;http://purl.org/dj/kaggle/capsule&#45;kannad/activity/&#45;8341527652629000045 -->
<g id="edge29" class="edge">
<title>http://purl.org/dj/kaggle/capsule&#45;kannad/activity/1831454214227028381&#45;&gt;http://purl.org/dj/kaggle/capsule&#45;kannad/activity/&#45;8341527652629000045</title>
<path fill="none" stroke="black" d="M2294.16,-179.18C2277.12,-177.34 2259.6,-175.54 2243.08,-174 1936.27,-145.43 1574.5,-123.37 1387.39,-112.82"/>
<polygon fill="black" stroke="black" points="1387.43,-109.32 1377.25,-112.25 1387.03,-116.31 1387.43,-109.32"/>
<text text-anchor="middle" x="2052.58" y="-144.8" font-family="Times,serif" font-size="14.00">previous</text>
</g>
</g>
</svg>
