<?xml version="1.0" encoding="UTF-8" standalone="no"?>
<!DOCTYPE svg PUBLIC "-//W3C//DTD SVG 1.1//EN"
 "http://www.w3.org/Graphics/SVG/1.1/DTD/svg11.dtd">
<!-- Generated by graphviz version 2.44.1 (20200629.0846)
 -->
<!-- Pages: 1 -->
<svg width="5472pt" height="434pt"
 viewBox="0.00 0.00 5471.53 434.00" xmlns="http://www.w3.org/2000/svg" xmlns:xlink="http://www.w3.org/1999/xlink">
<g id="graph0" class="graph" transform="scale(1 1) rotate(0) translate(4 430)">
<polygon fill="white" stroke="transparent" points="-4,4 -4,-430 5467.53,-430 5467.53,4 -4,4"/>
<!-- http://purl.org/dj/kaggle/concorde&#45;solver#133824944 -->
<g id="node1" class="node">
<title>http://purl.org/dj/kaggle/concorde&#45;solver#133824944</title>
<ellipse fill="none" stroke="black" cx="137.14" cy="-321" rx="112.38" ry="18"/>
<text text-anchor="middle" x="137.14" y="-317.3" font-family="Times,serif" font-size="14.00">133824944 (ax(0)$1: Reuse)</text>
</g>
<!-- http://purl.org/dj/kaggle/concorde&#45;solver#133759407 -->
<g id="node2" class="node">
<title>http://purl.org/dj/kaggle/concorde&#45;solver#133759407</title>
<ellipse fill="none" stroke="black" cx="137.14" cy="-213" rx="137.28" ry="18"/>
<text text-anchor="middle" x="137.14" y="-209.3" font-family="Times,serif" font-size="14.00">133759407 (ax(0)$0: Visualisation)</text>
</g>
<!-- http://purl.org/dj/kaggle/concorde&#45;solver#133824944&#45;&gt;http://purl.org/dj/kaggle/concorde&#45;solver#133759407 -->
<g id="edge1" class="edge">
<title>http://purl.org/dj/kaggle/concorde&#45;solver#133824944&#45;&gt;http://purl.org/dj/kaggle/concorde&#45;solver#133759407</title>
<path fill="none" stroke="black" d="M137.14,-302.97C137.14,-286.38 137.14,-260.88 137.14,-241.43"/>
<polygon fill="black" stroke="black" points="140.64,-241.34 137.14,-231.34 133.64,-241.34 140.64,-241.34"/>
<text text-anchor="middle" x="160.64" y="-263.3" font-family="Times,serif" font-size="14.00">previous</text>
</g>
<!-- http://purl.org/dj/python/lib/109117977 -->
<g id="node3" class="node">
<title>http://purl.org/dj/python/lib/109117977</title>
<ellipse fill="none" stroke="black" cx="134.14" cy="-105" rx="104.78" ry="18"/>
<text text-anchor="middle" x="134.14" y="-101.3" font-family="Times,serif" font-size="14.00">109117977 (pylab: Reuse)</text>
</g>
<!-- http://purl.org/dj/kaggle/concorde&#45;solver#133759407&#45;&gt;http://purl.org/dj/python/lib/109117977 -->
<g id="edge2" class="edge">
<title>http://purl.org/dj/kaggle/concorde&#45;solver#133759407&#45;&gt;http://purl.org/dj/python/lib/109117977</title>
<path fill="none" stroke="black" d="M136.66,-194.97C136.19,-178.38 135.46,-152.88 134.91,-133.43"/>
<polygon fill="black" stroke="black" points="138.41,-133.24 134.63,-123.34 131.41,-133.44 138.41,-133.24"/>
<text text-anchor="middle" x="159.64" y="-155.3" font-family="Times,serif" font-size="14.00">previous</text>
</g>
<!-- http://purl.org/dj/kaggle/concorde&#45;solver#82182494 -->
<g id="node4" class="node">
<title>http://purl.org/dj/kaggle/concorde&#45;solver#82182494</title>
<ellipse fill="none" stroke="black" cx="354.14" cy="-105" rx="97.48" ry="18"/>
<text text-anchor="middle" x="354.14" y="-101.3" font-family="Times,serif" font-size="14.00">82182494 (pl(0): Reuse)</text>
</g>
<!-- http://purl.org/dj/kaggle/concorde&#45;solver#133759407&#45;&gt;http://purl.org/dj/kaggle/concorde&#45;solver#82182494 -->
<g id="edge3" class="edge">
<title>http://purl.org/dj/kaggle/concorde&#45;solver#133759407&#45;&gt;http://purl.org/dj/kaggle/concorde&#45;solver#82182494</title>
<path fill="none" stroke="black" d="M219.03,-198.47C238.44,-193.36 258.6,-186.41 276.14,-177 297.98,-165.28 318.54,-146.09 333.06,-130.62"/>
<polygon fill="black" stroke="black" points="335.93,-132.67 340.08,-122.93 330.75,-127.96 335.93,-132.67"/>
<text text-anchor="middle" x="345.64" y="-155.3" font-family="Times,serif" font-size="14.00">previous</text>
</g>
<!-- http://purl.org/dj/kaggle/concorde&#45;solver#46137572 -->
<g id="node5" class="node">
<title>http://purl.org/dj/kaggle/concorde&#45;solver#46137572</title>
<ellipse fill="none" stroke="black" cx="569.14" cy="-105" rx="99.38" ry="18"/>
<text text-anchor="middle" x="569.14" y="-101.3" font-family="Times,serif" font-size="14.00">46137572 (20(0): Reuse)</text>
</g>
<!-- http://purl.org/dj/kaggle/concorde&#45;solver#133759407&#45;&gt;http://purl.org/dj/kaggle/concorde&#45;solver#46137572 -->
<g id="edge4" class="edge">
<title>http://purl.org/dj/kaggle/concorde&#45;solver#133759407&#45;&gt;http://purl.org/dj/kaggle/concorde&#45;solver#46137572</title>
<path fill="none" stroke="black" d="M235.29,-200.41C251.28,-198.57 267.67,-196.71 283.14,-195 321.34,-190.78 420.45,-193.54 455.14,-177 475.56,-167.26 472.51,-153.84 491.14,-141 499.39,-135.31 508.71,-130.19 517.96,-125.73"/>
<polygon fill="black" stroke="black" points="519.54,-128.86 527.15,-121.5 516.61,-122.51 519.54,-128.86"/>
<text text-anchor="middle" x="514.64" y="-155.3" font-family="Times,serif" font-size="14.00">previous</text>
</g>
<!-- http://purl.org/dj/kaggle/concorde&#45;solver -->
<g id="node6" class="node">
<title>http://purl.org/dj/kaggle/concorde&#45;solver</title>
<ellipse fill="none" stroke="black" cx="2391.14" cy="-18" rx="67.69" ry="18"/>
<text text-anchor="middle" x="2391.14" y="-14.3" font-family="Times,serif" font-size="14.00">concorde&#45;solver</text>
</g>
<!-- http://purl.org/dj/python/lib/109117977&#45;&gt;http://purl.org/dj/kaggle/concorde&#45;solver -->
<g id="edge5" class="edge">
<title>http://purl.org/dj/python/lib/109117977&#45;&gt;http://purl.org/dj/kaggle/concorde&#45;solver</title>
<path fill="none" stroke="black" d="M208.36,-92.23C289.21,-80.02 422.49,-61.66 538.14,-54 891.7,-30.6 2008.47,-21.56 2313.5,-19.49"/>
<polygon fill="black" stroke="black" points="2313.6,-22.99 2323.58,-19.42 2313.55,-15.99 2313.6,-22.99"/>
<text text-anchor="middle" x="561.64" y="-57.8" font-family="Times,serif" font-size="14.00">previous</text>
</g>
<!-- http://purl.org/dj/kaggle/concorde&#45;solver#82182494&#45;&gt;http://purl.org/dj/kaggle/concorde&#45;solver -->
<g id="edge6" class="edge">
<title>http://purl.org/dj/kaggle/concorde&#45;solver#82182494&#45;&gt;http://purl.org/dj/kaggle/concorde&#45;solver</title>
<path fill="none" stroke="black" d="M423.59,-92.36C499.95,-80.17 626.38,-61.73 736.14,-54 1048.7,-31.99 2029.54,-22.08 2313.44,-19.63"/>
<polygon fill="black" stroke="black" points="2313.67,-23.13 2323.64,-19.54 2313.61,-16.13 2313.67,-23.13"/>
<text text-anchor="middle" x="759.64" y="-57.8" font-family="Times,serif" font-size="14.00">previous</text>
</g>
<!-- http://purl.org/dj/kaggle/concorde&#45;solver#46137572&#45;&gt;http://purl.org/dj/kaggle/concorde&#45;solver -->
<g id="edge7" class="edge">
<title>http://purl.org/dj/kaggle/concorde&#45;solver#46137572&#45;&gt;http://purl.org/dj/kaggle/concorde&#45;solver</title>
<path fill="none" stroke="black" d="M635.94,-91.61C704.29,-79.54 813.7,-61.89 909.14,-54 1185.82,-31.14 2048.7,-21.95 2313.24,-19.63"/>
<polygon fill="black" stroke="black" points="2313.55,-23.13 2323.52,-19.54 2313.49,-16.13 2313.55,-23.13"/>
<text text-anchor="middle" x="932.64" y="-57.8" font-family="Times,serif" font-size="14.00">previous</text>
</g>
<!-- http://purl.org/dj/python/lib/392168505 -->
<g id="node7" class="node">
<title>http://purl.org/dj/python/lib/392168505</title>
<ellipse fill="none" stroke="black" cx="808.14" cy="-105" rx="121.58" ry="18"/>
<text text-anchor="middle" x="808.14" y="-101.3" font-family="Times,serif" font-size="14.00">392168505 (matplotlib: Reuse)</text>
</g>
<!-- http://purl.org/dj/python/lib/392168505&#45;&gt;http://purl.org/dj/kaggle/concorde&#45;solver -->
<g id="edge8" class="edge">
<title>http://purl.org/dj/python/lib/392168505&#45;&gt;http://purl.org/dj/kaggle/concorde&#45;solver</title>
<path fill="none" stroke="black" d="M864.64,-89.05C912.36,-77.16 982.7,-61.34 1045.14,-54 1293.3,-24.84 2065.68,-19.97 2313.66,-19.16"/>
<polygon fill="black" stroke="black" points="2313.67,-22.66 2323.66,-19.13 2313.65,-15.66 2313.67,-22.66"/>
<text text-anchor="middle" x="1068.64" y="-57.8" font-family="Times,serif" font-size="14.00">previous</text>
</g>
<!-- http://purl.org/dj/kaggle/concorde&#45;solver#121635265 -->
<g id="node8" class="node">
<title>http://purl.org/dj/kaggle/concorde&#45;solver#121635265</title>
<ellipse fill="none" stroke="black" cx="1053.14" cy="-105" rx="105.88" ry="18"/>
<text text-anchor="middle" x="1053.14" y="-101.3" font-family="Times,serif" font-size="14.00">121635265 (len(0): Reuse)</text>
</g>
<!-- http://purl.org/dj/kaggle/concorde&#45;solver#121635265&#45;&gt;http://purl.org/dj/kaggle/concorde&#45;solver -->
<g id="edge9" class="edge">
<title>http://purl.org/dj/kaggle/concorde&#45;solver#121635265&#45;&gt;http://purl.org/dj/kaggle/concorde&#45;solver</title>
<path fill="none" stroke="black" d="M1071.33,-87.09C1085.2,-75.39 1105.39,-60.74 1126.14,-54 1238.52,-17.49 2055.32,-17.63 2313.29,-18.6"/>
<polygon fill="black" stroke="black" points="2313.31,-22.1 2323.32,-18.64 2313.34,-15.1 2313.31,-22.1"/>
<text text-anchor="middle" x="1149.64" y="-57.8" font-family="Times,serif" font-size="14.00">previous</text>
</g>
<!-- http://purl.org/dj/kaggle/concorde&#45;solver#249692951 -->
<g id="node9" class="node">
<title>http://purl.org/dj/kaggle/concorde&#45;solver#249692951</title>
<ellipse fill="none" stroke="black" cx="1325.14" cy="-408" rx="136.48" ry="18"/>
<text text-anchor="middle" x="1325.14" y="-404.3" font-family="Times,serif" font-size="14.00">249692951 (print[1]: Visualisation)</text>
</g>
<!-- http://purl.org/dj/python/lib/72221104 -->
<g id="node10" class="node">
<title>http://purl.org/dj/python/lib/72221104</title>
<ellipse fill="none" stroke="black" cx="1244.14" cy="-321" rx="96.68" ry="18"/>
<text text-anchor="middle" x="1244.14" y="-317.3" font-family="Times,serif" font-size="14.00">72221104 (time: Reuse)</text>
</g>
<!-- http://purl.org/dj/kaggle/concorde&#45;solver#249692951&#45;&gt;http://purl.org/dj/python/lib/72221104 -->
<g id="edge10" class="edge">
<title>http://purl.org/dj/kaggle/concorde&#45;solver#249692951&#45;&gt;http://purl.org/dj/python/lib/72221104</title>
<path fill="none" stroke="black" d="M1308.75,-389.8C1296.81,-377.27 1280.48,-360.14 1267.23,-346.23"/>
<polygon fill="black" stroke="black" points="1269.66,-343.71 1260.23,-338.89 1264.59,-348.54 1269.66,-343.71"/>
<text text-anchor="middle" x="1313.64" y="-360.8" font-family="Times,serif" font-size="14.00">previous</text>
</g>
<!-- http://purl.org/dj/kaggle/concorde&#45;solver#173998641 -->
<g id="node11" class="node">
<title>http://purl.org/dj/kaggle/concorde&#45;solver#173998641</title>
<ellipse fill="none" stroke="black" cx="1470.14" cy="-321" rx="111.28" ry="18"/>
<text text-anchor="middle" x="1470.14" y="-317.3" font-family="Times,serif" font-size="14.00">173998641 (time(0): Reuse)</text>
</g>
<!-- http://purl.org/dj/kaggle/concorde&#45;solver#249692951&#45;&gt;http://purl.org/dj/kaggle/concorde&#45;solver#173998641 -->
<g id="edge11" class="edge">
<title>http://purl.org/dj/kaggle/concorde&#45;solver#249692951&#45;&gt;http://purl.org/dj/kaggle/concorde&#45;solver#173998641</title>
<path fill="none" stroke="black" d="M1379.19,-391.27C1392.77,-386.15 1406.94,-379.75 1419.14,-372 1429.98,-365.11 1440.41,-355.6 1448.97,-346.73"/>
<polygon fill="black" stroke="black" points="1451.75,-348.88 1455.98,-339.17 1446.62,-344.12 1451.75,-348.88"/>
<text text-anchor="middle" x="1461.64" y="-360.8" font-family="Times,serif" font-size="14.00">previous</text>
</g>
<!-- http://purl.org/dj/python/lib/72221104&#45;&gt;http://purl.org/dj/kaggle/concorde&#45;solver -->
<g id="edge12" class="edge">
<title>http://purl.org/dj/python/lib/72221104&#45;&gt;http://purl.org/dj/kaggle/concorde&#45;solver</title>
<path fill="none" stroke="black" d="M1235.29,-302.87C1219.92,-270.89 1191.3,-200 1206.14,-141 1221.17,-81.22 1253.91,-67.1 1314.14,-54 1410.74,-33 2082.07,-22.82 2313.18,-19.91"/>
<polygon fill="black" stroke="black" points="2313.56,-23.4 2323.52,-19.78 2313.48,-16.4 2313.56,-23.4"/>
<text text-anchor="middle" x="1229.64" y="-155.3" font-family="Times,serif" font-size="14.00">previous</text>
</g>
<!-- http://purl.org/dj/kaggle/concorde&#45;solver#173998641&#45;&gt;http://purl.org/dj/kaggle/concorde&#45;solver -->
<g id="edge13" class="edge">
<title>http://purl.org/dj/kaggle/concorde&#45;solver#173998641&#45;&gt;http://purl.org/dj/kaggle/concorde&#45;solver</title>
<path fill="none" stroke="black" d="M1445.58,-303.38C1379.3,-257.61 1204.38,-130.25 1244.14,-87 1280.36,-47.59 2062.23,-26.46 2313.86,-20.66"/>
<polygon fill="black" stroke="black" points="2314.1,-24.16 2324.02,-20.43 2313.94,-17.16 2314.1,-24.16"/>
<text text-anchor="middle" x="1308.64" y="-155.3" font-family="Times,serif" font-size="14.00">previous</text>
</g>
<!-- http://purl.org/dj/kaggle/concorde&#45;solver#82575712 -->
<g id="node12" class="node">
<title>http://purl.org/dj/kaggle/concorde&#45;solver#82575712</title>
<ellipse fill="none" stroke="black" cx="1352.14" cy="-105" rx="99.38" ry="18"/>
<text text-anchor="middle" x="1352.14" y="-101.3" font-family="Times,serif" font-size="14.00">82575712 (np(0): Reuse)</text>
</g>
<!-- http://purl.org/dj/kaggle/concorde&#45;solver#82575712&#45;&gt;http://purl.org/dj/kaggle/concorde&#45;solver -->
<g id="edge14" class="edge">
<title>http://purl.org/dj/kaggle/concorde&#45;solver#82575712&#45;&gt;http://purl.org/dj/kaggle/concorde&#45;solver</title>
<path fill="none" stroke="black" d="M1422.99,-92.29C1435.68,-90.38 1448.78,-88.53 1461.14,-87 1776.53,-47.87 2155.1,-28.76 2314.49,-21.98"/>
<polygon fill="black" stroke="black" points="2314.82,-25.47 2324.66,-21.55 2314.53,-18.48 2314.82,-25.47"/>
<text text-anchor="middle" x="1791.64" y="-57.8" font-family="Times,serif" font-size="14.00">previous</text>
</g>
<!-- http://purl.org/dj/kaggle/concorde&#45;solver#397542231 -->
<g id="node13" class="node">
<title>http://purl.org/dj/kaggle/concorde&#45;solver#397542231</title>
<ellipse fill="none" stroke="black" cx="1866.14" cy="-213" rx="139.98" ry="18"/>
<text text-anchor="middle" x="1866.14" y="-209.3" font-family="Times,serif" font-size="14.00">397542231 (cities(0)$0: Movement)</text>
</g>
<!-- http://purl.org/dj/python/lib/144966264 -->
<g id="node14" class="node">
<title>http://purl.org/dj/python/lib/144966264</title>
<ellipse fill="none" stroke="black" cx="1579.14" cy="-105" rx="109.38" ry="18"/>
<text text-anchor="middle" x="1579.14" y="-101.3" font-family="Times,serif" font-size="14.00">144966264 (pandas: Reuse)</text>
</g>
<!-- http://purl.org/dj/kaggle/concorde&#45;solver#397542231&#45;&gt;http://purl.org/dj/python/lib/144966264 -->
<g id="edge15" class="edge">
<title>http://purl.org/dj/kaggle/concorde&#45;solver#397542231&#45;&gt;http://purl.org/dj/python/lib/144966264</title>
<path fill="none" stroke="black" d="M1822.24,-195.79C1770.83,-176.8 1685.79,-145.39 1631.13,-125.2"/>
<polygon fill="black" stroke="black" points="1632.22,-121.88 1621.63,-121.69 1629.8,-128.44 1632.22,-121.88"/>
<text text-anchor="middle" x="1788.64" y="-155.3" font-family="Times,serif" font-size="14.00">previous</text>
</g>
<!-- http://purl.org/dj/kaggle/concorde&#45;solver#1442514791 -->
<g id="node15" class="node">
<title>http://purl.org/dj/kaggle/concorde&#45;solver#1442514791</title>
<ellipse fill="none" stroke="black" cx="1866.14" cy="-105" rx="159.77" ry="18"/>
<text text-anchor="middle" x="1866.14" y="-101.3" font-family="Times,serif" font-size="14.00">1442514791 (../input/cities.csv(0): Reuse)</text>
</g>
<!-- http://purl.org/dj/kaggle/concorde&#45;solver#397542231&#45;&gt;http://purl.org/dj/kaggle/concorde&#45;solver#1442514791 -->
<g id="edge16" class="edge">
<title>http://purl.org/dj/kaggle/concorde&#45;solver#397542231&#45;&gt;http://purl.org/dj/kaggle/concorde&#45;solver#1442514791</title>
<path fill="none" stroke="black" d="M1866.14,-194.97C1866.14,-178.38 1866.14,-152.88 1866.14,-133.43"/>
<polygon fill="black" stroke="black" points="1869.64,-133.34 1866.14,-123.34 1862.64,-133.34 1869.64,-133.34"/>
<text text-anchor="middle" x="1889.64" y="-155.3" font-family="Times,serif" font-size="14.00">previous</text>
</g>
<!-- http://purl.org/dj/kaggle/concorde&#45;solver#80085334 -->
<g id="node16" class="node">
<title>http://purl.org/dj/kaggle/concorde&#45;solver#80085334</title>
<ellipse fill="none" stroke="black" cx="2143.14" cy="-105" rx="99.38" ry="18"/>
<text text-anchor="middle" x="2143.14" y="-101.3" font-family="Times,serif" font-size="14.00">80085334 (pd(0): Reuse)</text>
</g>
<!-- http://purl.org/dj/kaggle/concorde&#45;solver#397542231&#45;&gt;http://purl.org/dj/kaggle/concorde&#45;solver#80085334 -->
<g id="edge17" class="edge">
<title>http://purl.org/dj/kaggle/concorde&#45;solver#397542231&#45;&gt;http://purl.org/dj/kaggle/concorde&#45;solver#80085334</title>
<path fill="none" stroke="black" d="M1899.25,-195.37C1930.64,-180.01 1979.37,-157.19 2023.14,-141 2041.08,-134.36 2060.9,-128.15 2079.17,-122.85"/>
<polygon fill="black" stroke="black" points="2080.19,-126.2 2088.85,-120.08 2078.27,-119.46 2080.19,-126.2"/>
<text text-anchor="middle" x="2046.64" y="-155.3" font-family="Times,serif" font-size="14.00">previous</text>
</g>
<!-- http://purl.org/dj/python/lib/144966264&#45;&gt;http://purl.org/dj/kaggle/concorde&#45;solver -->
<g id="edge18" class="edge">
<title>http://purl.org/dj/python/lib/144966264&#45;&gt;http://purl.org/dj/kaggle/concorde&#45;solver</title>
<path fill="none" stroke="black" d="M1657.16,-92.36C1670.48,-90.49 1684.2,-88.63 1697.14,-87 1922.55,-58.58 2190.43,-35.28 2317.38,-24.87"/>
<polygon fill="black" stroke="black" points="2317.69,-28.36 2327.38,-24.06 2317.12,-21.38 2317.69,-28.36"/>
<text text-anchor="middle" x="2006.64" y="-57.8" font-family="Times,serif" font-size="14.00">previous</text>
</g>
<!-- http://purl.org/dj/kaggle/concorde&#45;solver#1442514791&#45;&gt;http://purl.org/dj/kaggle/concorde&#45;solver -->
<g id="edge19" class="edge">
<title>http://purl.org/dj/kaggle/concorde&#45;solver#1442514791&#45;&gt;http://purl.org/dj/kaggle/concorde&#45;solver</title>
<path fill="none" stroke="black" d="M1940.48,-89.04C1993.95,-78.53 2067.84,-64.54 2133.14,-54 2196.52,-43.77 2268.99,-34.12 2320.95,-27.55"/>
<polygon fill="black" stroke="black" points="2321.57,-31 2331.06,-26.28 2320.7,-24.06 2321.57,-31"/>
<text text-anchor="middle" x="2156.64" y="-57.8" font-family="Times,serif" font-size="14.00">previous</text>
</g>
<!-- http://purl.org/dj/kaggle/concorde&#45;solver#80085334&#45;&gt;http://purl.org/dj/kaggle/concorde&#45;solver -->
<g id="edge20" class="edge">
<title>http://purl.org/dj/kaggle/concorde&#45;solver#80085334&#45;&gt;http://purl.org/dj/kaggle/concorde&#45;solver</title>
<path fill="none" stroke="black" d="M2160.73,-87.07C2173.25,-75.97 2191.02,-62.07 2209.14,-54 2242.83,-38.99 2282.85,-30.4 2316.76,-25.5"/>
<polygon fill="black" stroke="black" points="2317.64,-28.91 2327.08,-24.09 2316.7,-21.97 2317.64,-28.91"/>
<text text-anchor="middle" x="2232.64" y="-57.8" font-family="Times,serif" font-size="14.00">previous</text>
</g>
<!-- http://purl.org/dj/kaggle/concorde&#45;solver#249561878 -->
<g id="node17" class="node">
<title>http://purl.org/dj/kaggle/concorde&#45;solver#249561878</title>
<ellipse fill="none" stroke="black" cx="2261.14" cy="-408" rx="136.48" ry="18"/>
<text text-anchor="middle" x="2261.14" y="-404.3" font-family="Times,serif" font-size="14.00">249561878 (print[0]: Visualisation)</text>
</g>
<!-- http://purl.org/dj/kaggle/concorde&#45;solver#249561878&#45;&gt;http://purl.org/dj/python/lib/72221104 -->
<g id="edge21" class="edge">
<title>http://purl.org/dj/kaggle/concorde&#45;solver#249561878&#45;&gt;http://purl.org/dj/python/lib/72221104</title>
<path fill="none" stroke="black" d="M2126,-405.16C1894.23,-401.48 1438.92,-391.83 1368.14,-372 1354.92,-368.3 1353.63,-362.68 1341.14,-357 1328.02,-351.04 1313.57,-345.37 1299.91,-340.39"/>
<polygon fill="black" stroke="black" points="1300.74,-336.97 1290.14,-336.9 1298.38,-343.56 1300.74,-336.97"/>
<text text-anchor="middle" x="1391.64" y="-360.8" font-family="Times,serif" font-size="14.00">previous</text>
</g>
<!-- http://purl.org/dj/kaggle/concorde&#45;solver#249561878&#45;&gt;http://purl.org/dj/kaggle/concorde&#45;solver#173998641 -->
<g id="edge22" class="edge">
<title>http://purl.org/dj/kaggle/concorde&#45;solver#249561878&#45;&gt;http://purl.org/dj/kaggle/concorde&#45;solver#173998641</title>
<path fill="none" stroke="black" d="M2155.81,-396.54C2027.2,-383.65 1803.08,-360.75 1611.14,-339 1596.61,-337.35 1581.24,-335.56 1566.2,-333.77"/>
<polygon fill="black" stroke="black" points="1566.21,-330.24 1555.86,-332.53 1565.38,-337.19 1566.21,-330.24"/>
<text text-anchor="middle" x="1937.64" y="-360.8" font-family="Times,serif" font-size="14.00">previous</text>
</g>
<!-- http://purl.org/dj/kaggle/concorde&#45;solver#204997172 -->
<g id="node18" class="node">
<title>http://purl.org/dj/kaggle/concorde&#45;solver#204997172</title>
<ellipse fill="none" stroke="black" cx="2118.14" cy="-267" rx="128.08" ry="18"/>
<text text-anchor="middle" x="2118.14" y="-263.3" font-family="Times,serif" font-size="14.00">204997172 (EUC_2D(0): Reuse)</text>
</g>
<!-- http://purl.org/dj/kaggle/concorde&#45;solver#249561878&#45;&gt;http://purl.org/dj/kaggle/concorde&#45;solver#204997172 -->
<g id="edge23" class="edge">
<title>http://purl.org/dj/kaggle/concorde&#45;solver#249561878&#45;&gt;http://purl.org/dj/kaggle/concorde&#45;solver#204997172</title>
<path fill="none" stroke="black" d="M2227,-390.45C2217.8,-385.21 2208.18,-378.94 2200.14,-372 2173.4,-348.92 2149.23,-316.1 2134.17,-293.53"/>
<polygon fill="black" stroke="black" points="2137.07,-291.58 2128.67,-285.13 2131.22,-295.41 2137.07,-291.58"/>
<text text-anchor="middle" x="2223.64" y="-360.8" font-family="Times,serif" font-size="14.00">previous</text>
</g>
<!-- http://purl.org/dj/kaggle/concorde&#45;solver#414712689 -->
<g id="node19" class="node">
<title>http://purl.org/dj/kaggle/concorde&#45;solver#414712689</title>
<ellipse fill="none" stroke="black" cx="1745.14" cy="-321" rx="125.38" ry="18"/>
<text text-anchor="middle" x="1745.14" y="-317.3" font-family="Times,serif" font-size="14.00">414712689 (solver(0)$0: Reuse)</text>
</g>
<!-- http://purl.org/dj/kaggle/concorde&#45;solver#249561878&#45;&gt;http://purl.org/dj/kaggle/concorde&#45;solver#414712689 -->
<g id="edge24" class="edge">
<title>http://purl.org/dj/kaggle/concorde&#45;solver#249561878&#45;&gt;http://purl.org/dj/kaggle/concorde&#45;solver#414712689</title>
<path fill="none" stroke="black" d="M2179.38,-393.53C2085.37,-378.05 1931.58,-352.71 1834.49,-336.72"/>
<polygon fill="black" stroke="black" points="1834.84,-333.23 1824.4,-335.06 1833.7,-340.14 1834.84,-333.23"/>
<text text-anchor="middle" x="2057.64" y="-360.8" font-family="Times,serif" font-size="14.00">previous</text>
</g>
<!-- http://purl.org/dj/kaggle/concorde&#45;solver#165478946 -->
<g id="node20" class="node">
<title>http://purl.org/dj/kaggle/concorde&#45;solver#165478946</title>
<ellipse fill="none" stroke="black" cx="2256.14" cy="-159" rx="111.58" ry="18"/>
<text text-anchor="middle" x="2256.14" y="-155.3" font-family="Times,serif" font-size="14.00">165478946 (True(0): Reuse)</text>
</g>
<!-- http://purl.org/dj/kaggle/concorde&#45;solver#249561878&#45;&gt;http://purl.org/dj/kaggle/concorde&#45;solver#165478946 -->
<g id="edge25" class="edge">
<title>http://purl.org/dj/kaggle/concorde&#45;solver#249561878&#45;&gt;http://purl.org/dj/kaggle/concorde&#45;solver#165478946</title>
<path fill="none" stroke="black" d="M2260.79,-389.63C2259.93,-347.28 2257.73,-238.42 2256.69,-187.29"/>
<polygon fill="black" stroke="black" points="2260.18,-186.95 2256.48,-177.02 2253.19,-187.09 2260.18,-186.95"/>
<text text-anchor="middle" x="2283.64" y="-317.3" font-family="Times,serif" font-size="14.00">previous</text>
</g>
<!-- http://purl.org/dj/kaggle/concorde&#45;solver#47317224 -->
<g id="node21" class="node">
<title>http://purl.org/dj/kaggle/concorde&#45;solver#47317224</title>
<ellipse fill="none" stroke="black" cx="2385.14" cy="-267" rx="99.38" ry="18"/>
<text text-anchor="middle" x="2385.14" y="-263.3" font-family="Times,serif" font-size="14.00">47317224 (42(0): Reuse)</text>
</g>
<!-- http://purl.org/dj/kaggle/concorde&#45;solver#249561878&#45;&gt;http://purl.org/dj/kaggle/concorde&#45;solver#47317224 -->
<g id="edge26" class="edge">
<title>http://purl.org/dj/kaggle/concorde&#45;solver#249561878&#45;&gt;http://purl.org/dj/kaggle/concorde&#45;solver#47317224</title>
<path fill="none" stroke="black" d="M2276.34,-389.96C2298,-365.67 2337.88,-320.97 2362.87,-292.96"/>
<polygon fill="black" stroke="black" points="2365.76,-294.98 2369.81,-285.18 2360.54,-290.32 2365.76,-294.98"/>
<text text-anchor="middle" x="2328.64" y="-360.8" font-family="Times,serif" font-size="14.00">previous</text>
</g>
<!-- http://purl.org/dj/kaggle/concorde&#45;solver#88604998 -->
<g id="node22" class="node">
<title>http://purl.org/dj/kaggle/concorde&#45;solver#88604998</title>
<ellipse fill="none" stroke="black" cx="2550.14" cy="-159" rx="106.68" ry="18"/>
<text text-anchor="middle" x="2550.14" y="-155.3" font-family="Times,serif" font-size="14.00">88604998 (60.0(0): Reuse)</text>
</g>
<!-- http://purl.org/dj/kaggle/concorde&#45;solver#249561878&#45;&gt;http://purl.org/dj/kaggle/concorde&#45;solver#88604998 -->
<g id="edge27" class="edge">
<title>http://purl.org/dj/kaggle/concorde&#45;solver#249561878&#45;&gt;http://purl.org/dj/kaggle/concorde&#45;solver#88604998</title>
<path fill="none" stroke="black" d="M2314.86,-391.4C2367.14,-373.63 2445.47,-339.74 2493.14,-285 2518.41,-255.97 2534.47,-213.87 2542.89,-186.71"/>
<polygon fill="black" stroke="black" points="2546.26,-187.67 2545.75,-177.09 2539.55,-185.68 2546.26,-187.67"/>
<text text-anchor="middle" x="2499.64" y="-317.3" font-family="Times,serif" font-size="14.00">previous</text>
</g>
<!-- http://purl.org/dj/kaggle/concorde&#45;solver#462029812 -->
<g id="node23" class="node">
<title>http://purl.org/dj/kaggle/concorde&#45;solver#462029812</title>
<ellipse fill="none" stroke="black" cx="2675.14" cy="-267" rx="133.48" ry="18"/>
<text text-anchor="middle" x="2675.14" y="-263.3" font-family="Times,serif" font-size="14.00">462029812 (TSPSolver(0): Reuse)</text>
</g>
<!-- http://purl.org/dj/kaggle/concorde&#45;solver#249561878&#45;&gt;http://purl.org/dj/kaggle/concorde&#45;solver#462029812 -->
<g id="edge28" class="edge">
<title>http://purl.org/dj/kaggle/concorde&#45;solver#249561878&#45;&gt;http://purl.org/dj/kaggle/concorde&#45;solver#462029812</title>
<path fill="none" stroke="black" d="M2393,-403.21C2438.34,-398.48 2488.61,-389.32 2532.14,-372 2578.61,-353.51 2623.85,-316.44 2650.6,-291.92"/>
<polygon fill="black" stroke="black" points="2653.04,-294.43 2657.97,-285.05 2648.26,-289.31 2653.04,-294.43"/>
<text text-anchor="middle" x="2586.64" y="-360.8" font-family="Times,serif" font-size="14.00">previous</text>
</g>
<!-- http://purl.org/dj/python/lib/529335507 -->
<g id="node24" class="node">
<title>http://purl.org/dj/python/lib/529335507</title>
<ellipse fill="none" stroke="black" cx="2862.14" cy="-159" rx="129.98" ry="18"/>
<text text-anchor="middle" x="2862.14" y="-155.3" font-family="Times,serif" font-size="14.00">529335507 (concorde.tsp: Reuse)</text>
</g>
<!-- http://purl.org/dj/kaggle/concorde&#45;solver#249561878&#45;&gt;http://purl.org/dj/python/lib/529335507 -->
<g id="edge29" class="edge">
<title>http://purl.org/dj/kaggle/concorde&#45;solver#249561878&#45;&gt;http://purl.org/dj/python/lib/529335507</title>
<path fill="none" stroke="black" d="M2393.57,-403.45C2460.53,-399.26 2542.57,-390.42 2614.14,-372 2709.2,-347.54 2749.82,-356.44 2817.14,-285 2842.69,-257.88 2853.92,-215.21 2858.72,-187.41"/>
<polygon fill="black" stroke="black" points="2862.23,-187.62 2860.31,-177.2 2855.31,-186.54 2862.23,-187.62"/>
<text text-anchor="middle" x="2821.64" y="-317.3" font-family="Times,serif" font-size="14.00">previous</text>
</g>
<!-- http://purl.org/dj/kaggle/concorde&#45;solver#204997172&#45;&gt;http://purl.org/dj/kaggle/concorde&#45;solver -->
<g id="edge30" class="edge">
<title>http://purl.org/dj/kaggle/concorde&#45;solver#204997172&#45;&gt;http://purl.org/dj/kaggle/concorde&#45;solver</title>
<path fill="none" stroke="black" d="M2105.56,-248.73C2087.93,-222.23 2060.89,-171.42 2088.14,-141 2112.45,-113.85 2218.29,-138.78 2251.14,-123 2271.54,-113.2 2269.58,-101.27 2287.14,-87 2308.58,-69.58 2334.59,-52.58 2355.24,-39.93"/>
<polygon fill="black" stroke="black" points="2357.28,-42.78 2364.02,-34.61 2353.65,-36.8 2357.28,-42.78"/>
<text text-anchor="middle" x="2111.64" y="-155.3" font-family="Times,serif" font-size="14.00">previous</text>
</g>
<!-- http://purl.org/dj/kaggle/concorde&#45;solver#414712689&#45;&gt;http://purl.org/dj/kaggle/concorde&#45;solver#397542231 -->
<g id="edge31" class="edge">
<title>http://purl.org/dj/kaggle/concorde&#45;solver#414712689&#45;&gt;http://purl.org/dj/kaggle/concorde&#45;solver#397542231</title>
<path fill="none" stroke="black" d="M1764.31,-303.2C1784.46,-285.55 1816.32,-257.64 1839.04,-237.74"/>
<polygon fill="black" stroke="black" points="1841.44,-240.29 1846.65,-231.07 1836.83,-235.03 1841.44,-240.29"/>
<text text-anchor="middle" x="1847.64" y="-263.3" font-family="Times,serif" font-size="14.00">previous</text>
</g>
<!-- http://purl.org/dj/kaggle/concorde&#45;solver#165478946&#45;&gt;http://purl.org/dj/kaggle/concorde&#45;solver -->
<g id="edge32" class="edge">
<title>http://purl.org/dj/kaggle/concorde&#45;solver#165478946&#45;&gt;http://purl.org/dj/kaggle/concorde&#45;solver</title>
<path fill="none" stroke="black" d="M2272.69,-140.96C2296.5,-116.44 2340.54,-71.1 2367.69,-43.14"/>
<polygon fill="black" stroke="black" points="2370.41,-45.36 2374.87,-35.75 2365.39,-40.48 2370.41,-45.36"/>
<text text-anchor="middle" x="2347.64" y="-101.3" font-family="Times,serif" font-size="14.00">previous</text>
</g>
<!-- http://purl.org/dj/kaggle/concorde&#45;solver#47317224&#45;&gt;http://purl.org/dj/kaggle/concorde&#45;solver -->
<g id="edge33" class="edge">
<title>http://purl.org/dj/kaggle/concorde&#45;solver#47317224&#45;&gt;http://purl.org/dj/kaggle/concorde&#45;solver</title>
<path fill="none" stroke="black" d="M2385.32,-248.61C2385.6,-224.46 2386.2,-179.4 2387.14,-141 2387.93,-108.52 2389.21,-71.19 2390.11,-46.46"/>
<polygon fill="black" stroke="black" points="2393.61,-46.49 2390.48,-36.37 2386.61,-46.24 2393.61,-46.49"/>
<text text-anchor="middle" x="2410.64" y="-155.3" font-family="Times,serif" font-size="14.00">previous</text>
</g>
<!-- http://purl.org/dj/kaggle/concorde&#45;solver#88604998&#45;&gt;http://purl.org/dj/kaggle/concorde&#45;solver -->
<g id="edge34" class="edge">
<title>http://purl.org/dj/kaggle/concorde&#45;solver#88604998&#45;&gt;http://purl.org/dj/kaggle/concorde&#45;solver</title>
<path fill="none" stroke="black" d="M2489.48,-144.15C2475.88,-139.07 2462.21,-132.21 2451.14,-123 2438.01,-112.08 2417.1,-72.52 2403.75,-45.47"/>
<polygon fill="black" stroke="black" points="2406.74,-43.6 2399.21,-36.14 2400.44,-46.67 2406.74,-43.6"/>
<text text-anchor="middle" x="2474.64" y="-101.3" font-family="Times,serif" font-size="14.00">previous</text>
</g>
<!-- http://purl.org/dj/kaggle/concorde&#45;solver#462029812&#45;&gt;http://purl.org/dj/kaggle/concorde&#45;solver -->
<g id="edge35" class="edge">
<title>http://purl.org/dj/kaggle/concorde&#45;solver#462029812&#45;&gt;http://purl.org/dj/kaggle/concorde&#45;solver</title>
<path fill="none" stroke="black" d="M2675.24,-248.8C2675.04,-218.16 2672.79,-155.93 2658.14,-141 2621.59,-103.76 2589.78,-144.27 2542.14,-123 2519.07,-112.7 2518.61,-101.8 2498.14,-87 2474.88,-70.19 2447.56,-52.86 2426.35,-39.91"/>
<polygon fill="black" stroke="black" points="2428.03,-36.83 2417.66,-34.64 2424.4,-42.82 2428.03,-36.83"/>
<text text-anchor="middle" x="2694.64" y="-155.3" font-family="Times,serif" font-size="14.00">previous</text>
</g>
<!-- http://purl.org/dj/python/lib/529335507&#45;&gt;http://purl.org/dj/kaggle/concorde&#45;solver -->
<g id="edge36" class="edge">
<title>http://purl.org/dj/python/lib/529335507&#45;&gt;http://purl.org/dj/kaggle/concorde&#45;solver</title>
<path fill="none" stroke="black" d="M2770.62,-146.21C2756.4,-144.43 2741.88,-142.64 2728.14,-141 2692.39,-136.73 2597.39,-142.52 2567.14,-123 2537.16,-103.66 2554.66,-75.42 2526.14,-54 2508.09,-40.45 2485.28,-32.12 2463.58,-27.02"/>
<polygon fill="black" stroke="black" points="2464.22,-23.57 2453.71,-24.89 2462.74,-30.42 2464.22,-23.57"/>
<text text-anchor="middle" x="2590.64" y="-101.3" font-family="Times,serif" font-size="14.00">previous</text>
</g>
<!-- http://purl.org/dj/kaggle/concorde&#45;solver#29950131 -->
<g id="node25" class="node">
<title>http://purl.org/dj/kaggle/concorde&#45;solver#29950131</title>
<ellipse fill="none" stroke="black" cx="2718.14" cy="-105" rx="94.78" ry="18"/>
<text text-anchor="middle" x="2718.14" y="-101.3" font-family="Times,serif" font-size="14.00">29950131 (1(0): Reuse)</text>
</g>
<!-- http://purl.org/dj/kaggle/concorde&#45;solver#29950131&#45;&gt;http://purl.org/dj/kaggle/concorde&#45;solver -->
<g id="edge37" class="edge">
<title>http://purl.org/dj/kaggle/concorde&#45;solver#29950131&#45;&gt;http://purl.org/dj/kaggle/concorde&#45;solver</title>
<path fill="none" stroke="black" d="M2678.01,-88.57C2648.94,-77.81 2608.51,-63.69 2572.14,-54 2534.7,-44.02 2492.2,-35.65 2457.79,-29.61"/>
<polygon fill="black" stroke="black" points="2458.3,-26.14 2447.85,-27.88 2457.11,-33.04 2458.3,-26.14"/>
<text text-anchor="middle" x="2644.64" y="-57.8" font-family="Times,serif" font-size="14.00">previous</text>
</g>
<!-- http://purl.org/dj/kaggle/concorde&#45;solver#29687986 -->
<g id="node26" class="node">
<title>http://purl.org/dj/kaggle/concorde&#45;solver#29687986</title>
<ellipse fill="none" stroke="black" cx="2926.14" cy="-105" rx="94.78" ry="18"/>
<text text-anchor="middle" x="2926.14" y="-101.3" font-family="Times,serif" font-size="14.00">29687986 (0(0): Reuse)</text>
</g>
<!-- http://purl.org/dj/kaggle/concorde&#45;solver#29687986&#45;&gt;http://purl.org/dj/kaggle/concorde&#45;solver -->
<g id="edge38" class="edge">
<title>http://purl.org/dj/kaggle/concorde&#45;solver#29687986&#45;&gt;http://purl.org/dj/kaggle/concorde&#45;solver</title>
<path fill="none" stroke="black" d="M2866.31,-90.99C2814.97,-80.12 2738.92,-64.72 2672.14,-54 2601.28,-42.63 2519.85,-32.84 2462.96,-26.53"/>
<polygon fill="black" stroke="black" points="2463.31,-23.05 2452.99,-25.44 2462.54,-30.01 2463.31,-23.05"/>
<text text-anchor="middle" x="2780.64" y="-57.8" font-family="Times,serif" font-size="14.00">previous</text>
</g>
<!-- http://purl.org/dj/kaggle/concorde&#45;solver#324207345 -->
<g id="node27" class="node">
<title>http://purl.org/dj/kaggle/concorde&#45;solver#324207345</title>
<ellipse fill="none" stroke="black" cx="2009.14" cy="-321" rx="120.48" ry="18"/>
<text text-anchor="middle" x="2009.14" y="-317.3" font-family="Times,serif" font-size="14.00">324207345 (lines(0)$0: Reuse)</text>
</g>
<!-- http://purl.org/dj/kaggle/concorde&#45;solver#324207345&#45;&gt;http://purl.org/dj/kaggle/concorde&#45;solver#397542231 -->
<g id="edge39" class="edge">
<title>http://purl.org/dj/kaggle/concorde&#45;solver#324207345&#45;&gt;http://purl.org/dj/kaggle/concorde&#45;solver#397542231</title>
<path fill="none" stroke="black" d="M1967.91,-304.08C1956.49,-298.8 1944.42,-292.37 1934.14,-285 1915.88,-271.91 1898.42,-253.51 1885.76,-238.73"/>
<polygon fill="black" stroke="black" points="1888.35,-236.37 1879.25,-230.94 1882.98,-240.85 1888.35,-236.37"/>
<text text-anchor="middle" x="1957.64" y="-263.3" font-family="Times,serif" font-size="14.00">previous</text>
</g>
<!-- http://purl.org/dj/kaggle/concorde&#45;solver#44630251 -->
<g id="node28" class="node">
<title>http://purl.org/dj/kaggle/concorde&#45;solver#44630251</title>
<ellipse fill="none" stroke="black" cx="3132.14" cy="-105" rx="92.88" ry="18"/>
<text text-anchor="middle" x="3132.14" y="-101.3" font-family="Times,serif" font-size="14.00">44630251 (i(0): Reuse)</text>
</g>
<!-- http://purl.org/dj/kaggle/concorde&#45;solver#44630251&#45;&gt;http://purl.org/dj/kaggle/concorde&#45;solver -->
<g id="edge40" class="edge">
<title>http://purl.org/dj/kaggle/concorde&#45;solver#44630251&#45;&gt;http://purl.org/dj/kaggle/concorde&#45;solver</title>
<path fill="none" stroke="black" d="M3064.68,-92.59C3053.16,-90.69 3041.31,-88.76 3030.14,-87 2931.6,-71.47 2907.22,-65.51 2808.14,-54 2688.81,-40.14 2549.66,-29.58 2466.08,-23.84"/>
<polygon fill="black" stroke="black" points="2466.13,-20.34 2455.91,-23.15 2465.65,-27.32 2466.13,-20.34"/>
<text text-anchor="middle" x="2943.64" y="-57.8" font-family="Times,serif" font-size="14.00">previous</text>
</g>
<!-- http://purl.org/dj/kaggle/concorde&#45;solver#30212276 -->
<g id="node29" class="node">
<title>http://purl.org/dj/kaggle/concorde&#45;solver#30212276</title>
<ellipse fill="none" stroke="black" cx="3338.14" cy="-105" rx="94.78" ry="18"/>
<text text-anchor="middle" x="3338.14" y="-101.3" font-family="Times,serif" font-size="14.00">30212276 (2(0): Reuse)</text>
</g>
<!-- http://purl.org/dj/kaggle/concorde&#45;solver#30212276&#45;&gt;http://purl.org/dj/kaggle/concorde&#45;solver -->
<g id="edge41" class="edge">
<title>http://purl.org/dj/kaggle/concorde&#45;solver#30212276&#45;&gt;http://purl.org/dj/kaggle/concorde&#45;solver</title>
<path fill="none" stroke="black" d="M3269.94,-92.48C3258.02,-90.57 3245.73,-88.67 3234.14,-87 3117.54,-70.16 3088.44,-64.89 2971.14,-54 2791.18,-37.3 2579.04,-26.83 2467.9,-22.05"/>
<polygon fill="black" stroke="black" points="2467.93,-18.55 2457.79,-21.62 2467.63,-25.54 2467.93,-18.55"/>
<text text-anchor="middle" x="3131.64" y="-57.8" font-family="Times,serif" font-size="14.00">previous</text>
</g>
<!-- http://purl.org/dj/kaggle/concorde&#45;solver#225116815 -->
<g id="node30" class="node">
<title>http://purl.org/dj/kaggle/concorde&#45;solver#225116815</title>
<ellipse fill="none" stroke="black" cx="3565.14" cy="-105" rx="114.28" ry="18"/>
<text text-anchor="middle" x="3565.14" y="-101.3" font-family="Times,serif" font-size="14.00">225116815 (range(0): Reuse)</text>
</g>
<!-- http://purl.org/dj/kaggle/concorde&#45;solver#225116815&#45;&gt;http://purl.org/dj/kaggle/concorde&#45;solver -->
<g id="edge42" class="edge">
<title>http://purl.org/dj/kaggle/concorde&#45;solver#225116815&#45;&gt;http://purl.org/dj/kaggle/concorde&#45;solver</title>
<path fill="none" stroke="black" d="M3483.13,-92.42C3469.45,-90.56 3455.4,-88.69 3442.14,-87 3316.52,-71 3285.35,-64.22 3159.14,-54 2906.86,-33.57 2606.93,-24.2 2468.37,-20.72"/>
<polygon fill="black" stroke="black" points="2468.35,-17.22 2458.27,-20.47 2468.18,-24.21 2468.35,-17.22"/>
<text text-anchor="middle" x="3329.64" y="-57.8" font-family="Times,serif" font-size="14.00">previous</text>
</g>
<!-- http://purl.org/dj/kaggle/concorde&#45;solver#184287756 -->
<g id="node31" class="node">
<title>http://purl.org/dj/kaggle/concorde&#45;solver#184287756</title>
<ellipse fill="none" stroke="black" cx="430.14" cy="-213" rx="137.58" ry="18"/>
<text text-anchor="middle" x="430.14" y="-209.3" font-family="Times,serif" font-size="14.00">184287756 (fig(0)$0: Visualisation)</text>
</g>
<!-- http://purl.org/dj/kaggle/concorde&#45;solver#184287756&#45;&gt;http://purl.org/dj/python/lib/109117977 -->
<g id="edge43" class="edge">
<title>http://purl.org/dj/kaggle/concorde&#45;solver#184287756&#45;&gt;http://purl.org/dj/python/lib/109117977</title>
<path fill="none" stroke="black" d="M330.62,-200.53C288.09,-194.5 243.95,-186.41 225.14,-177 204.33,-166.59 205.36,-155.47 187.14,-141 181.68,-136.67 175.69,-132.35 169.77,-128.29"/>
<polygon fill="black" stroke="black" points="171.46,-125.21 161.2,-122.57 167.57,-131.03 171.46,-125.21"/>
<text text-anchor="middle" x="248.64" y="-155.3" font-family="Times,serif" font-size="14.00">previous</text>
</g>
<!-- http://purl.org/dj/kaggle/concorde&#45;solver#184287756&#45;&gt;http://purl.org/dj/kaggle/concorde&#45;solver#82182494 -->
<g id="edge44" class="edge">
<title>http://purl.org/dj/kaggle/concorde&#45;solver#184287756&#45;&gt;http://purl.org/dj/kaggle/concorde&#45;solver#82182494</title>
<path fill="none" stroke="black" d="M417.93,-194.97C405.57,-177.74 386.33,-150.9 372.21,-131.21"/>
<polygon fill="black" stroke="black" points="374.99,-129.08 366.32,-122.99 369.3,-133.15 374.99,-129.08"/>
<text text-anchor="middle" x="427.64" y="-155.3" font-family="Times,serif" font-size="14.00">previous</text>
</g>
<!-- http://purl.org/dj/kaggle/concorde&#45;solver#184287756&#45;&gt;http://purl.org/dj/kaggle/concorde&#45;solver#46137572 -->
<g id="edge45" class="edge">
<title>http://purl.org/dj/kaggle/concorde&#45;solver#184287756&#45;&gt;http://purl.org/dj/kaggle/concorde&#45;solver#46137572</title>
<path fill="none" stroke="black" d="M507.46,-198.01C520.16,-193.01 532.35,-186.22 542.14,-177 554.27,-165.58 561,-148.14 564.71,-133.4"/>
<polygon fill="black" stroke="black" points="568.21,-133.79 566.91,-123.28 561.37,-132.3 568.21,-133.79"/>
<text text-anchor="middle" x="586.64" y="-155.3" font-family="Times,serif" font-size="14.00">previous</text>
</g>
<!-- http://purl.org/dj/kaggle/concorde&#45;solver#2813138862 -->
<g id="node32" class="node">
<title>http://purl.org/dj/kaggle/concorde&#45;solver#2813138862</title>
<ellipse fill="none" stroke="black" cx="4065.14" cy="-105" rx="367.43" ry="18"/>
<text text-anchor="middle" x="4065.14" y="-101.3" font-family="Times,serif" font-size="14.00">2813138862 ([&lt;_ast.Tuple object at 0x12f85e790&gt;, &lt;_ast.Tuple object at 0x12fc4f9d0&gt;](0): Reuse)</text>
</g>
<!-- http://purl.org/dj/kaggle/concorde&#45;solver#2813138862&#45;&gt;http://purl.org/dj/kaggle/concorde&#45;solver -->
<g id="edge46" class="edge">
<title>http://purl.org/dj/kaggle/concorde&#45;solver#2813138862&#45;&gt;http://purl.org/dj/kaggle/concorde&#45;solver</title>
<path fill="none" stroke="black" d="M3882.25,-89.35C3739.35,-78.33 3535.71,-63.54 3357.14,-54 3026.92,-36.36 2632.73,-25.14 2468.69,-20.91"/>
<polygon fill="black" stroke="black" points="2468.31,-17.4 2458.22,-20.64 2468.13,-24.39 2468.31,-17.4"/>
<text text-anchor="middle" x="3614.64" y="-57.8" font-family="Times,serif" font-size="14.00">previous</text>
</g>
<!-- http://purl.org/dj/kaggle/concorde&#45;solver#1048512072 -->
<g id="node33" class="node">
<title>http://purl.org/dj/kaggle/concorde&#45;solver#1048512072</title>
<ellipse fill="none" stroke="black" cx="4604.14" cy="-105" rx="153.27" ry="18"/>
<text text-anchor="middle" x="4604.14" y="-101.3" font-family="Times,serif" font-size="14.00">1048512072 (submission.csv(0): Reuse)</text>
</g>
<!-- http://purl.org/dj/kaggle/concorde&#45;solver#1048512072&#45;&gt;http://purl.org/dj/kaggle/concorde&#45;solver -->
<g id="edge47" class="edge">
<title>http://purl.org/dj/kaggle/concorde&#45;solver#1048512072&#45;&gt;http://purl.org/dj/kaggle/concorde&#45;solver</title>
<path fill="none" stroke="black" d="M4498.13,-91.97C4479.17,-90.1 4459.58,-88.34 4441.14,-87 3673.65,-31.18 2741.15,-21.15 2469.09,-19.37"/>
<polygon fill="black" stroke="black" points="2468.95,-15.87 2458.93,-19.31 2468.9,-22.87 2468.95,-15.87"/>
<text text-anchor="middle" x="4129.64" y="-57.8" font-family="Times,serif" font-size="14.00">previous</text>
</g>
<!-- http://purl.org/dj/kaggle/concorde&#45;solver#78840146 -->
<g id="node34" class="node">
<title>http://purl.org/dj/kaggle/concorde&#45;solver#78840146</title>
<ellipse fill="none" stroke="black" cx="4877.14" cy="-105" rx="102.08" ry="18"/>
<text text-anchor="middle" x="4877.14" y="-101.3" font-family="Times,serif" font-size="14.00">78840146 (mc(0): Reuse)</text>
</g>
<!-- http://purl.org/dj/kaggle/concorde&#45;solver#78840146&#45;&gt;http://purl.org/dj/kaggle/concorde&#45;solver -->
<g id="edge48" class="edge">
<title>http://purl.org/dj/kaggle/concorde&#45;solver#78840146&#45;&gt;http://purl.org/dj/kaggle/concorde&#45;solver</title>
<path fill="none" stroke="black" d="M4805.92,-92.04C4792.72,-90.12 4779.03,-88.33 4766.14,-87 4496.51,-59.12 4428.02,-64.02 4157.14,-54 3504.58,-29.86 2715.73,-21.66 2468.83,-19.59"/>
<polygon fill="black" stroke="black" points="2468.56,-16.09 2458.53,-19.5 2468.5,-23.09 2468.56,-16.09"/>
<text text-anchor="middle" x="4578.64" y="-57.8" font-family="Times,serif" font-size="14.00">previous</text>
</g>
<!-- http://purl.org/dj/python/lib/111084090 -->
<g id="node35" class="node">
<title>http://purl.org/dj/python/lib/111084090</title>
<ellipse fill="none" stroke="black" cx="5107.14" cy="-105" rx="109.68" ry="18"/>
<text text-anchor="middle" x="5107.14" y="-101.3" font-family="Times,serif" font-size="14.00">111084090 (numpy: Reuse)</text>
</g>
<!-- http://purl.org/dj/python/lib/111084090&#45;&gt;http://purl.org/dj/kaggle/concorde&#45;solver -->
<g id="edge49" class="edge">
<title>http://purl.org/dj/python/lib/111084090&#45;&gt;http://purl.org/dj/kaggle/concorde&#45;solver</title>
<path fill="none" stroke="black" d="M5029.44,-92.26C5015.7,-90.37 5001.51,-88.53 4988.14,-87 4818.83,-67.61 4776.33,-62.68 4606.14,-54 4177.05,-32.1 2809.73,-21.77 2468.75,-19.49"/>
<polygon fill="black" stroke="black" points="2468.74,-15.99 2458.72,-19.43 2468.7,-22.99 2468.74,-15.99"/>
<text text-anchor="middle" x="4845.64" y="-57.8" font-family="Times,serif" font-size="14.00">previous</text>
</g>
<!-- http://purl.org/dj/kaggle/concorde&#45;solver#228262554 -->
<g id="node36" class="node">
<title>http://purl.org/dj/kaggle/concorde&#45;solver#228262554</title>
<ellipse fill="none" stroke="black" cx="5349.14" cy="-105" rx="114.28" ry="18"/>
<text text-anchor="middle" x="5349.14" y="-101.3" font-family="Times,serif" font-size="14.00">228262554 (equal(0): Reuse)</text>
</g>
<!-- http://purl.org/dj/kaggle/concorde&#45;solver#228262554&#45;&gt;http://purl.org/dj/kaggle/concorde&#45;solver -->
<g id="edge50" class="edge">
<title>http://purl.org/dj/kaggle/concorde&#45;solver#228262554&#45;&gt;http://purl.org/dj/kaggle/concorde&#45;solver</title>
<path fill="none" stroke="black" d="M5267.82,-92.25C5253.93,-90.38 5239.63,-88.56 5226.14,-87 5069.61,-68.88 5030.48,-62.45 4873.14,-54 4388.44,-27.97 2834.86,-20.65 2468.88,-19.27"/>
<polygon fill="black" stroke="black" points="2468.67,-15.77 2458.66,-19.23 2468.65,-22.77 2468.67,-15.77"/>
<text text-anchor="middle" x="5090.64" y="-57.8" font-family="Times,serif" font-size="14.00">previous</text>
</g>
</g>
</svg>
