<?xml version="1.0" encoding="UTF-8" standalone="no"?>
<!DOCTYPE svg PUBLIC "-//W3C//DTD SVG 1.1//EN"
 "http://www.w3.org/Graphics/SVG/1.1/DTD/svg11.dtd">
<!-- Generated by graphviz version 2.44.1 (20200629.0846)
 -->
<!-- Pages: 1 -->
<svg width="1399pt" height="305pt"
 viewBox="0.00 0.00 1398.79 305.00" xmlns="http://www.w3.org/2000/svg" xmlns:xlink="http://www.w3.org/1999/xlink">
<g id="graph0" class="graph" transform="scale(1 1) rotate(0) translate(4 301)">
<polygon fill="white" stroke="transparent" points="-4,4 -4,-301 1394.79,-301 1394.79,4 -4,4"/>
<!-- http://purl.org/dj/kaggle/creating&#45;your&#45;own&#45;notebooks#127074770 -->
<g id="node1" class="node">
<title>http://purl.org/dj/kaggle/creating&#45;your&#45;own&#45;notebooks#127074770</title>
<ellipse fill="none" stroke="black" cx="163.71" cy="-192" rx="104.78" ry="18"/>
<text text-anchor="middle" x="163.71" y="-188.3" font-family="Times,serif" font-size="14.00">127074770 (plt(0): Reuse)</text>
</g>
<!-- http://purl.org/dj/kaggle/creating&#45;your&#45;own&#45;notebooks -->
<g id="node2" class="node">
<title>http://purl.org/dj/kaggle/creating&#45;your&#45;own&#45;notebooks</title>
<ellipse fill="none" stroke="black" cx="627.71" cy="-18" rx="115.08" ry="18"/>
<text text-anchor="middle" x="627.71" y="-14.3" font-family="Times,serif" font-size="14.00">creating&#45;your&#45;own&#45;notebooks</text>
</g>
<!-- http://purl.org/dj/kaggle/creating&#45;your&#45;own&#45;notebooks#127074770&#45;&gt;http://purl.org/dj/kaggle/creating&#45;your&#45;own&#45;notebooks -->
<g id="edge1" class="edge">
<title>http://purl.org/dj/kaggle/creating&#45;your&#45;own&#45;notebooks#127074770&#45;&gt;http://purl.org/dj/kaggle/creating&#45;your&#45;own&#45;notebooks</title>
<path fill="none" stroke="black" d="M108.03,-176.66C50.48,-159.26 -26.29,-127.19 9.71,-87 42.25,-50.66 337,-31.74 507.41,-23.75"/>
<polygon fill="black" stroke="black" points="507.61,-27.25 517.44,-23.29 507.29,-20.25 507.61,-27.25"/>
<text text-anchor="middle" x="55.21" y="-101.3" font-family="Times,serif" font-size="14.00">previousActivity</text>
</g>
<!-- http://purl.org/dj/python/lib/1065617167 -->
<g id="node3" class="node">
<title>http://purl.org/dj/python/lib/1065617167</title>
<ellipse fill="none" stroke="black" cx="260.71" cy="-105" rx="150.57" ry="18"/>
<text text-anchor="middle" x="260.71" y="-101.3" font-family="Times,serif" font-size="14.00">1065617167 (matplotlib.pyplot: Reuse)</text>
</g>
<!-- http://purl.org/dj/kaggle/creating&#45;your&#45;own&#45;notebooks#127074770&#45;&gt;http://purl.org/dj/python/lib/1065617167 -->
<g id="edge2" class="edge">
<title>http://purl.org/dj/kaggle/creating&#45;your&#45;own&#45;notebooks#127074770&#45;&gt;http://purl.org/dj/python/lib/1065617167</title>
<path fill="none" stroke="black" d="M182.87,-174.21C197.39,-161.48 217.53,-143.84 233.68,-129.68"/>
<polygon fill="black" stroke="black" points="236.03,-132.27 241.25,-123.05 231.42,-127.01 236.03,-132.27"/>
<text text-anchor="middle" x="257.21" y="-144.8" font-family="Times,serif" font-size="14.00">assignedFrom</text>
</g>
<!-- http://purl.org/dj/python/lib/1065617167&#45;&gt;http://purl.org/dj/kaggle/creating&#45;your&#45;own&#45;notebooks -->
<g id="edge3" class="edge">
<title>http://purl.org/dj/python/lib/1065617167&#45;&gt;http://purl.org/dj/kaggle/creating&#45;your&#45;own&#45;notebooks</title>
<path fill="none" stroke="black" d="M282.72,-86.99C298.52,-75.7 320.82,-61.62 342.71,-54 394.24,-36.07 453.8,-27.07 505.11,-22.65"/>
<polygon fill="black" stroke="black" points="505.57,-26.12 515.26,-21.82 505.01,-19.14 505.57,-26.12"/>
<text text-anchor="middle" x="388.21" y="-57.8" font-family="Times,serif" font-size="14.00">previousActivity</text>
</g>
<!-- http://purl.org/dj/kaggle/creating&#45;your&#45;own&#45;notebooks#80085334 -->
<g id="node4" class="node">
<title>http://purl.org/dj/kaggle/creating&#45;your&#45;own&#45;notebooks#80085334</title>
<ellipse fill="none" stroke="black" cx="497.71" cy="-192" rx="99.38" ry="18"/>
<text text-anchor="middle" x="497.71" y="-188.3" font-family="Times,serif" font-size="14.00">80085334 (pd(0): Reuse)</text>
</g>
<!-- http://purl.org/dj/kaggle/creating&#45;your&#45;own&#45;notebooks#80085334&#45;&gt;http://purl.org/dj/kaggle/creating&#45;your&#45;own&#45;notebooks -->
<g id="edge4" class="edge">
<title>http://purl.org/dj/kaggle/creating&#45;your&#45;own&#45;notebooks#80085334&#45;&gt;http://purl.org/dj/kaggle/creating&#45;your&#45;own&#45;notebooks</title>
<path fill="none" stroke="black" d="M481.63,-174.05C463.21,-152.51 437.85,-114.78 456.71,-87 475.08,-59.92 506.12,-43.63 536.75,-33.82"/>
<polygon fill="black" stroke="black" points="538.08,-37.08 546.66,-30.86 536.08,-30.37 538.08,-37.08"/>
<text text-anchor="middle" x="483.21" y="-101.3" font-family="Times,serif" font-size="14.00">appearsIn</text>
</g>
<!-- http://purl.org/dj/python/lib/144966264 -->
<g id="node5" class="node">
<title>http://purl.org/dj/python/lib/144966264</title>
<ellipse fill="none" stroke="black" cx="627.71" cy="-105" rx="109.38" ry="18"/>
<text text-anchor="middle" x="627.71" y="-101.3" font-family="Times,serif" font-size="14.00">144966264 (pandas: Reuse)</text>
</g>
<!-- http://purl.org/dj/kaggle/creating&#45;your&#45;own&#45;notebooks#80085334&#45;&gt;http://purl.org/dj/python/lib/144966264 -->
<g id="edge5" class="edge">
<title>http://purl.org/dj/kaggle/creating&#45;your&#45;own&#45;notebooks#80085334&#45;&gt;http://purl.org/dj/python/lib/144966264</title>
<path fill="none" stroke="black" d="M523.08,-174.41C543.3,-161.19 571.8,-142.56 593.95,-128.07"/>
<polygon fill="black" stroke="black" points="595.94,-130.95 602.4,-122.55 592.11,-125.09 595.94,-130.95"/>
<text text-anchor="middle" x="609.21" y="-144.8" font-family="Times,serif" font-size="14.00">assignedFrom</text>
</g>
<!-- http://purl.org/dj/python/lib/144966264&#45;&gt;http://purl.org/dj/kaggle/creating&#45;your&#45;own&#45;notebooks -->
<g id="edge6" class="edge">
<title>http://purl.org/dj/python/lib/144966264&#45;&gt;http://purl.org/dj/kaggle/creating&#45;your&#45;own&#45;notebooks</title>
<path fill="none" stroke="black" d="M627.71,-86.8C627.71,-75.16 627.71,-59.55 627.71,-46.24"/>
<polygon fill="black" stroke="black" points="631.21,-46.18 627.71,-36.18 624.21,-46.18 631.21,-46.18"/>
<text text-anchor="middle" x="673.21" y="-57.8" font-family="Times,serif" font-size="14.00">previousActivity</text>
</g>
<!-- http://purl.org/dj/python/lib/194380523 -->
<g id="node6" class="node">
<title>http://purl.org/dj/python/lib/194380523</title>
<ellipse fill="none" stroke="black" cx="955.71" cy="-105" rx="112.38" ry="18"/>
<text text-anchor="middle" x="955.71" y="-101.3" font-family="Times,serif" font-size="14.00">194380523 (seaborn: Reuse)</text>
</g>
<!-- http://purl.org/dj/python/lib/194380523&#45;&gt;http://purl.org/dj/kaggle/creating&#45;your&#45;own&#45;notebooks -->
<g id="edge7" class="edge">
<title>http://purl.org/dj/python/lib/194380523&#45;&gt;http://purl.org/dj/kaggle/creating&#45;your&#45;own&#45;notebooks</title>
<path fill="none" stroke="black" d="M907.15,-88.64C873.51,-78.24 827.59,-64.53 786.71,-54 760.13,-47.15 730.84,-40.46 704.72,-34.8"/>
<polygon fill="black" stroke="black" points="705.39,-31.36 694.88,-32.68 703.91,-38.21 705.39,-31.36"/>
<text text-anchor="middle" x="884.21" y="-57.8" font-family="Times,serif" font-size="14.00">previousActivity</text>
</g>
<!-- http://purl.org/dj/kaggle/creating&#45;your&#45;own&#45;notebooks#956106220 -->
<g id="node7" class="node">
<title>http://purl.org/dj/kaggle/creating&#45;your&#45;own&#45;notebooks#956106220</title>
<ellipse fill="none" stroke="black" cx="1238.71" cy="-105" rx="152.17" ry="18"/>
<text text-anchor="middle" x="1238.71" y="-101.3" font-family="Times,serif" font-size="14.00">956106220 (Setup Complete(0): Reuse)</text>
</g>
<!-- http://purl.org/dj/kaggle/creating&#45;your&#45;own&#45;notebooks#956106220&#45;&gt;http://purl.org/dj/kaggle/creating&#45;your&#45;own&#45;notebooks -->
<g id="edge8" class="edge">
<title>http://purl.org/dj/kaggle/creating&#45;your&#45;own&#45;notebooks#956106220&#45;&gt;http://purl.org/dj/kaggle/creating&#45;your&#45;own&#45;notebooks</title>
<path fill="none" stroke="black" d="M1158.28,-89.72C1096.87,-79.08 1010.1,-64.62 933.71,-54 866.49,-44.65 790.72,-35.97 731.39,-29.59"/>
<polygon fill="black" stroke="black" points="731.58,-26.09 721.26,-28.51 730.83,-33.05 731.58,-26.09"/>
<text text-anchor="middle" x="1053.21" y="-57.8" font-family="Times,serif" font-size="14.00">appearsIn</text>
</g>
<!-- http://purl.org/dj/kaggle/creating&#45;your&#45;own&#45;notebooks#128647638 -->
<g id="node8" class="node">
<title>http://purl.org/dj/kaggle/creating&#45;your&#45;own&#45;notebooks#128647638</title>
<ellipse fill="none" stroke="black" cx="826.71" cy="-192" rx="106.68" ry="18"/>
<text text-anchor="middle" x="826.71" y="-188.3" font-family="Times,serif" font-size="14.00">128647638 (sns(0): Reuse)</text>
</g>
<!-- http://purl.org/dj/kaggle/creating&#45;your&#45;own&#45;notebooks#128647638&#45;&gt;http://purl.org/dj/kaggle/creating&#45;your&#45;own&#45;notebooks -->
<g id="edge9" class="edge">
<title>http://purl.org/dj/kaggle/creating&#45;your&#45;own&#45;notebooks#128647638&#45;&gt;http://purl.org/dj/kaggle/creating&#45;your&#45;own&#45;notebooks</title>
<path fill="none" stroke="black" d="M815.62,-174.07C793.95,-141.38 746.05,-71.28 722.71,-54 713.94,-47.51 703.85,-42.12 693.59,-37.66"/>
<polygon fill="black" stroke="black" points="694.73,-34.35 684.15,-33.83 692.1,-40.83 694.73,-34.35"/>
<text text-anchor="middle" x="807.21" y="-101.3" font-family="Times,serif" font-size="14.00">appearsIn</text>
</g>
<!-- http://purl.org/dj/kaggle/creating&#45;your&#45;own&#45;notebooks#128647638&#45;&gt;http://purl.org/dj/python/lib/194380523 -->
<g id="edge10" class="edge">
<title>http://purl.org/dj/kaggle/creating&#45;your&#45;own&#45;notebooks#128647638&#45;&gt;http://purl.org/dj/python/lib/194380523</title>
<path fill="none" stroke="black" d="M851.88,-174.41C871.95,-161.19 900.23,-142.56 922.21,-128.07"/>
<polygon fill="black" stroke="black" points="924.17,-130.97 930.59,-122.55 920.31,-125.13 924.17,-130.97"/>
<text text-anchor="middle" x="938.21" y="-144.8" font-family="Times,serif" font-size="14.00">assignedFrom</text>
</g>
<!-- http://purl.org/dj/kaggle/creating&#45;your&#45;own&#45;notebooks#132776362 -->
<g id="node9" class="node">
<title>http://purl.org/dj/kaggle/creating&#45;your&#45;own&#45;notebooks#132776362</title>
<ellipse fill="none" stroke="black" cx="497.71" cy="-279" rx="112.38" ry="18"/>
<text text-anchor="middle" x="497.71" y="-275.3" font-family="Times,serif" font-size="14.00">132776362 (pd(0)$0: Reuse)</text>
</g>
<!-- http://purl.org/dj/kaggle/creating&#45;your&#45;own&#45;notebooks#132776362&#45;&gt;http://purl.org/dj/kaggle/creating&#45;your&#45;own&#45;notebooks#80085334 -->
<g id="edge11" class="edge">
<title>http://purl.org/dj/kaggle/creating&#45;your&#45;own&#45;notebooks#132776362&#45;&gt;http://purl.org/dj/kaggle/creating&#45;your&#45;own&#45;notebooks#80085334</title>
<path fill="none" stroke="black" d="M497.71,-260.8C497.71,-249.16 497.71,-233.55 497.71,-220.24"/>
<polygon fill="black" stroke="black" points="501.21,-220.18 497.71,-210.18 494.21,-220.18 501.21,-220.18"/>
<text text-anchor="middle" x="581.21" y="-231.8" font-family="Times,serif" font-size="14.00">register_matplotlib_converters</text>
</g>
<!-- http://purl.org/dj/kaggle/creating&#45;your&#45;own&#45;notebooks#249561878 -->
<g id="node10" class="node">
<title>http://purl.org/dj/kaggle/creating&#45;your&#45;own&#45;notebooks#249561878</title>
<ellipse fill="none" stroke="black" cx="1238.71" cy="-192" rx="136.48" ry="18"/>
<text text-anchor="middle" x="1238.71" y="-188.3" font-family="Times,serif" font-size="14.00">249561878 (print[0]: Visualisation)</text>
</g>
<!-- http://purl.org/dj/kaggle/creating&#45;your&#45;own&#45;notebooks#249561878&#45;&gt;http://purl.org/dj/kaggle/creating&#45;your&#45;own&#45;notebooks#956106220 -->
<g id="edge12" class="edge">
<title>http://purl.org/dj/kaggle/creating&#45;your&#45;own&#45;notebooks#249561878&#45;&gt;http://purl.org/dj/kaggle/creating&#45;your&#45;own&#45;notebooks#956106220</title>
<path fill="none" stroke="black" d="M1238.71,-173.8C1238.71,-162.16 1238.71,-146.55 1238.71,-133.24"/>
<polygon fill="black" stroke="black" points="1242.21,-133.18 1238.71,-123.18 1235.21,-133.18 1242.21,-133.18"/>
<text text-anchor="middle" x="1251.71" y="-144.8" font-family="Times,serif" font-size="14.00">print</text>
</g>
</g>
</svg>
