<?xml version="1.0" encoding="UTF-8" standalone="no"?>
<!DOCTYPE svg PUBLIC "-//W3C//DTD SVG 1.1//EN"
 "http://www.w3.org/Graphics/SVG/1.1/DTD/svg11.dtd">
<!-- Generated by graphviz version 2.47.1 (20210417.1919)
 -->
<!-- Pages: 1 -->
<svg width="1417pt" height="305pt"
 viewBox="0.00 0.00 1416.53 305.00" xmlns="http://www.w3.org/2000/svg" xmlns:xlink="http://www.w3.org/1999/xlink">
<g id="graph0" class="graph" transform="scale(1 1) rotate(0) translate(4 301)">
<polygon fill="white" stroke="transparent" points="-4,4 -4,-301 1412.53,-301 1412.53,4 -4,4"/>
<!-- http://purl.org/dj/kaggle/creating&#45;your&#45;own&#45;notebooks#415564712 -->
<g id="node1" class="node">
<title>http://purl.org/dj/kaggle/creating&#45;your&#45;own&#45;notebooks#415564712</title>
<ellipse fill="none" stroke="black" cx="152.09" cy="-192" rx="147.57" ry="18"/>
<text text-anchor="middle" x="152.09" y="-188.3" font-family="Times,serif" font-size="14.00">415564712 (print[12/0]: Visualisation)</text>
</g>
<!-- http://purl.org/dj/kaggle/creating&#45;your&#45;own&#45;notebooks#956106220 -->
<g id="node2" class="node">
<title>http://purl.org/dj/kaggle/creating&#45;your&#45;own&#45;notebooks#956106220</title>
<ellipse fill="none" stroke="black" cx="152.09" cy="-105" rx="152.17" ry="18"/>
<text text-anchor="middle" x="152.09" y="-101.3" font-family="Times,serif" font-size="14.00">956106220 (Setup Complete(0): Reuse)</text>
</g>
<!-- http://purl.org/dj/kaggle/creating&#45;your&#45;own&#45;notebooks#415564712&#45;&gt;http://purl.org/dj/kaggle/creating&#45;your&#45;own&#45;notebooks#956106220 -->
<g id="edge1" class="edge">
<title>http://purl.org/dj/kaggle/creating&#45;your&#45;own&#45;notebooks#415564712&#45;&gt;http://purl.org/dj/kaggle/creating&#45;your&#45;own&#45;notebooks#956106220</title>
<path fill="none" stroke="black" d="M152.09,-173.8C152.09,-162.16 152.09,-146.55 152.09,-133.24"/>
<polygon fill="black" stroke="black" points="155.59,-133.18 152.09,-123.18 148.59,-133.18 155.59,-133.18"/>
<text text-anchor="middle" x="171.59" y="-144.8" font-family="Times,serif" font-size="14.00">print ()</text>
</g>
<!-- http://purl.org/dj/kaggle/creating&#45;your&#45;own&#45;notebooks -->
<g id="node3" class="node">
<title>http://purl.org/dj/kaggle/creating&#45;your&#45;own&#45;notebooks</title>
<ellipse fill="none" stroke="black" cx="762.09" cy="-18" rx="250.46" ry="18"/>
<text text-anchor="middle" x="762.09" y="-14.3" font-family="Times,serif" font-size="14.00">creating&#45;your&#45;own&#45;notebooks (creating&#45;your&#45;own&#45;notebooks.ipynb)</text>
</g>
<!-- http://purl.org/dj/kaggle/creating&#45;your&#45;own&#45;notebooks#956106220&#45;&gt;http://purl.org/dj/kaggle/creating&#45;your&#45;own&#45;notebooks -->
<g id="edge2" class="edge">
<title>http://purl.org/dj/kaggle/creating&#45;your&#45;own&#45;notebooks#956106220&#45;&gt;http://purl.org/dj/kaggle/creating&#45;your&#45;own&#45;notebooks</title>
<path fill="none" stroke="black" d="M180.81,-87.19C201.97,-75.68 231.87,-61.25 260.09,-54 310.96,-40.92 424.8,-32.41 531.22,-27.06"/>
<polygon fill="black" stroke="black" points="531.68,-30.54 541.5,-26.55 531.34,-23.55 531.68,-30.54"/>
<text text-anchor="middle" x="293.09" y="-57.8" font-family="Times,serif" font-size="14.00">appearsIn ()</text>
</g>
<!-- http://purl.org/dj/python/lib/1065617167 -->
<g id="node4" class="node">
<title>http://purl.org/dj/python/lib/1065617167</title>
<ellipse fill="none" stroke="black" cx="575.09" cy="-105" rx="150.57" ry="18"/>
<text text-anchor="middle" x="575.09" y="-101.3" font-family="Times,serif" font-size="14.00">1065617167 (matplotlib.pyplot: Reuse)</text>
</g>
<!-- http://purl.org/dj/python/lib/1065617167&#45;&gt;http://purl.org/dj/kaggle/creating&#45;your&#45;own&#45;notebooks -->
<g id="edge3" class="edge">
<title>http://purl.org/dj/python/lib/1065617167&#45;&gt;http://purl.org/dj/kaggle/creating&#45;your&#45;own&#45;notebooks</title>
<path fill="none" stroke="black" d="M604.23,-87.24C622.55,-77.03 646.85,-64.05 669.09,-54 680.26,-48.95 692.4,-44.01 704.11,-39.5"/>
<polygon fill="black" stroke="black" points="705.7,-42.64 713.82,-35.82 703.22,-36.09 705.7,-42.64"/>
<text text-anchor="middle" x="708.59" y="-57.8" font-family="Times,serif" font-size="14.00">importedBy ()</text>
</g>
<!-- http://purl.org/dj/kaggle/creating&#45;your&#45;own&#45;notebooks#80085334 -->
<g id="node5" class="node">
<title>http://purl.org/dj/kaggle/creating&#45;your&#45;own&#45;notebooks#80085334</title>
<ellipse fill="none" stroke="black" cx="785.09" cy="-192" rx="99.38" ry="18"/>
<text text-anchor="middle" x="785.09" y="-188.3" font-family="Times,serif" font-size="14.00">80085334 (pd(0): Reuse)</text>
</g>
<!-- http://purl.org/dj/kaggle/creating&#45;your&#45;own&#45;notebooks#80085334&#45;&gt;http://purl.org/dj/kaggle/creating&#45;your&#45;own&#45;notebooks -->
<g id="edge4" class="edge">
<title>http://purl.org/dj/kaggle/creating&#45;your&#45;own&#45;notebooks#80085334&#45;&gt;http://purl.org/dj/kaggle/creating&#45;your&#45;own&#45;notebooks</title>
<path fill="none" stroke="black" d="M780.96,-173.77C777.82,-160.08 773.62,-140.41 771.09,-123 767.3,-97.04 764.92,-67.18 763.56,-46.14"/>
<polygon fill="black" stroke="black" points="767.05,-45.77 762.95,-36 760.06,-46.2 767.05,-45.77"/>
<text text-anchor="middle" x="804.09" y="-101.3" font-family="Times,serif" font-size="14.00">appearsIn ()</text>
</g>
<!-- http://purl.org/dj/python/lib/144966264 -->
<g id="node6" class="node">
<title>http://purl.org/dj/python/lib/144966264</title>
<ellipse fill="none" stroke="black" cx="955.09" cy="-105" rx="109.38" ry="18"/>
<text text-anchor="middle" x="955.09" y="-101.3" font-family="Times,serif" font-size="14.00">144966264 (pandas: Reuse)</text>
</g>
<!-- http://purl.org/dj/kaggle/creating&#45;your&#45;own&#45;notebooks#80085334&#45;&gt;http://purl.org/dj/python/lib/144966264 -->
<g id="edge5" class="edge">
<title>http://purl.org/dj/kaggle/creating&#45;your&#45;own&#45;notebooks#80085334&#45;&gt;http://purl.org/dj/python/lib/144966264</title>
<path fill="none" stroke="black" d="M817.46,-174.81C844.67,-161.21 883.74,-141.67 913.3,-126.89"/>
<polygon fill="black" stroke="black" points="915.16,-129.87 922.54,-122.27 912.03,-123.61 915.16,-129.87"/>
<text text-anchor="middle" x="926.09" y="-144.8" font-family="Times,serif" font-size="14.00">assignedFrom ()</text>
</g>
<!-- http://purl.org/dj/python/lib/144966264&#45;&gt;http://purl.org/dj/kaggle/creating&#45;your&#45;own&#45;notebooks -->
<g id="edge6" class="edge">
<title>http://purl.org/dj/python/lib/144966264&#45;&gt;http://purl.org/dj/kaggle/creating&#45;your&#45;own&#45;notebooks</title>
<path fill="none" stroke="black" d="M918.78,-88.01C887.94,-74.43 843.44,-54.83 809.74,-39.99"/>
<polygon fill="black" stroke="black" points="811.1,-36.76 800.54,-35.94 808.28,-43.17 811.1,-36.76"/>
<text text-anchor="middle" x="910.59" y="-57.8" font-family="Times,serif" font-size="14.00">importedBy ()</text>
</g>
<!-- http://purl.org/dj/kaggle/creating&#45;your&#45;own&#45;notebooks#132776362 -->
<g id="node7" class="node">
<title>http://purl.org/dj/kaggle/creating&#45;your&#45;own&#45;notebooks#132776362</title>
<ellipse fill="none" stroke="black" cx="785.09" cy="-279" rx="112.38" ry="18"/>
<text text-anchor="middle" x="785.09" y="-275.3" font-family="Times,serif" font-size="14.00">132776362 (pd(0)$0: Reuse)</text>
</g>
<!-- http://purl.org/dj/kaggle/creating&#45;your&#45;own&#45;notebooks#132776362&#45;&gt;http://purl.org/dj/kaggle/creating&#45;your&#45;own&#45;notebooks#80085334 -->
<g id="edge7" class="edge">
<title>http://purl.org/dj/kaggle/creating&#45;your&#45;own&#45;notebooks#132776362&#45;&gt;http://purl.org/dj/kaggle/creating&#45;your&#45;own&#45;notebooks#80085334</title>
<path fill="none" stroke="black" d="M785.09,-260.8C785.09,-249.16 785.09,-233.55 785.09,-220.24"/>
<polygon fill="black" stroke="black" points="788.59,-220.18 785.09,-210.18 781.59,-220.18 788.59,-220.18"/>
<text text-anchor="middle" x="875.09" y="-231.8" font-family="Times,serif" font-size="14.00">register_matplotlib_converters ()</text>
</g>
<!-- http://purl.org/dj/python/lib/194380523 -->
<g id="node8" class="node">
<title>http://purl.org/dj/python/lib/194380523</title>
<ellipse fill="none" stroke="black" cx="1296.09" cy="-105" rx="112.38" ry="18"/>
<text text-anchor="middle" x="1296.09" y="-101.3" font-family="Times,serif" font-size="14.00">194380523 (seaborn: Reuse)</text>
</g>
<!-- http://purl.org/dj/python/lib/194380523&#45;&gt;http://purl.org/dj/kaggle/creating&#45;your&#45;own&#45;notebooks -->
<g id="edge8" class="edge">
<title>http://purl.org/dj/python/lib/194380523&#45;&gt;http://purl.org/dj/kaggle/creating&#45;your&#45;own&#45;notebooks</title>
<path fill="none" stroke="black" d="M1248.7,-88.61C1212.27,-77.36 1160.48,-62.62 1114.09,-54 1061.05,-44.15 1002.97,-36.94 949.55,-31.72"/>
<polygon fill="black" stroke="black" points="949.57,-28.2 939.28,-30.73 948.9,-35.17 949.57,-28.2"/>
<text text-anchor="middle" x="1218.59" y="-57.8" font-family="Times,serif" font-size="14.00">importedBy ()</text>
</g>
<!-- http://purl.org/dj/kaggle/creating&#45;your&#45;own&#45;notebooks#128647638 -->
<g id="node9" class="node">
<title>http://purl.org/dj/kaggle/creating&#45;your&#45;own&#45;notebooks#128647638</title>
<ellipse fill="none" stroke="black" cx="1157.09" cy="-192" rx="106.68" ry="18"/>
<text text-anchor="middle" x="1157.09" y="-188.3" font-family="Times,serif" font-size="14.00">128647638 (sns(0): Reuse)</text>
</g>
<!-- http://purl.org/dj/kaggle/creating&#45;your&#45;own&#45;notebooks#128647638&#45;&gt;http://purl.org/dj/kaggle/creating&#45;your&#45;own&#45;notebooks -->
<g id="edge9" class="edge">
<title>http://purl.org/dj/kaggle/creating&#45;your&#45;own&#45;notebooks#128647638&#45;&gt;http://purl.org/dj/kaggle/creating&#45;your&#45;own&#45;notebooks</title>
<path fill="none" stroke="black" d="M1145.13,-173.73C1126.52,-147.32 1090.94,-98.72 1073.09,-87 1032.13,-60.11 982.25,-43.69 934.54,-33.71"/>
<polygon fill="black" stroke="black" points="935.2,-30.28 924.71,-31.74 933.83,-37.14 935.2,-30.28"/>
<text text-anchor="middle" x="1140.09" y="-101.3" font-family="Times,serif" font-size="14.00">appearsIn ()</text>
</g>
<!-- http://purl.org/dj/kaggle/creating&#45;your&#45;own&#45;notebooks#128647638&#45;&gt;http://purl.org/dj/python/lib/194380523 -->
<g id="edge10" class="edge">
<title>http://purl.org/dj/kaggle/creating&#45;your&#45;own&#45;notebooks#128647638&#45;&gt;http://purl.org/dj/python/lib/194380523</title>
<path fill="none" stroke="black" d="M1184.22,-174.41C1205.93,-161.13 1236.58,-142.39 1260.3,-127.88"/>
<polygon fill="black" stroke="black" points="1262.32,-130.75 1269.02,-122.55 1258.67,-124.78 1262.32,-130.75"/>
<text text-anchor="middle" x="1279.09" y="-144.8" font-family="Times,serif" font-size="14.00">assignedFrom ()</text>
</g>
<!-- http://purl.org/dj/kaggle/creating&#45;your&#45;own&#45;notebooks#127074770 -->
<g id="node10" class="node">
<title>http://purl.org/dj/kaggle/creating&#45;your&#45;own&#45;notebooks#127074770</title>
<ellipse fill="none" stroke="black" cx="504.09" cy="-192" rx="104.78" ry="18"/>
<text text-anchor="middle" x="504.09" y="-188.3" font-family="Times,serif" font-size="14.00">127074770 (plt(0): Reuse)</text>
</g>
<!-- http://purl.org/dj/kaggle/creating&#45;your&#45;own&#45;notebooks#127074770&#45;&gt;http://purl.org/dj/kaggle/creating&#45;your&#45;own&#45;notebooks -->
<g id="edge11" class="edge">
<title>http://purl.org/dj/kaggle/creating&#45;your&#45;own&#45;notebooks#127074770&#45;&gt;http://purl.org/dj/kaggle/creating&#45;your&#45;own&#45;notebooks</title>
<path fill="none" stroke="black" d="M447.69,-176.84C390.24,-159.76 314.17,-128.13 349.09,-87 375.92,-55.39 460.88,-38.45 546.83,-29.38"/>
<polygon fill="black" stroke="black" points="547.44,-32.84 557.04,-28.34 546.73,-25.87 547.44,-32.84"/>
<text text-anchor="middle" x="382.09" y="-101.3" font-family="Times,serif" font-size="14.00">appearsIn ()</text>
</g>
<!-- http://purl.org/dj/kaggle/creating&#45;your&#45;own&#45;notebooks#127074770&#45;&gt;http://purl.org/dj/python/lib/1065617167 -->
<g id="edge12" class="edge">
<title>http://purl.org/dj/kaggle/creating&#45;your&#45;own&#45;notebooks#127074770&#45;&gt;http://purl.org/dj/python/lib/1065617167</title>
<path fill="none" stroke="black" d="M518.45,-173.8C528.75,-161.47 542.78,-144.68 554.3,-130.89"/>
<polygon fill="black" stroke="black" points="557.02,-133.09 560.74,-123.18 551.64,-128.61 557.02,-133.09"/>
<text text-anchor="middle" x="589.09" y="-144.8" font-family="Times,serif" font-size="14.00">assignedFrom ()</text>
</g>
</g>
</svg>
