<?xml version="1.0" encoding="UTF-8" standalone="no"?>
<!DOCTYPE svg PUBLIC "-//W3C//DTD SVG 1.1//EN"
 "http://www.w3.org/Graphics/SVG/1.1/DTD/svg11.dtd">
<!-- Generated by graphviz version 2.44.1 (20200629.0846)
 -->
<!-- Pages: 1 -->
<svg width="6886pt" height="500pt"
 viewBox="0.00 0.00 6885.65 500.00" xmlns="http://www.w3.org/2000/svg" xmlns:xlink="http://www.w3.org/1999/xlink">
<g id="graph0" class="graph" transform="scale(1 1) rotate(0) translate(4 496)">
<polygon fill="white" stroke="transparent" points="-4,4 -4,-496 6881.65,-496 6881.65,4 -4,4"/>
<!-- http://purl.org/dj/kaggle/creating&#45;reading&#45;and&#45;writing#71827775 -->
<g id="node1" class="node">
<title>http://purl.org/dj/kaggle/creating&#45;reading&#45;and&#45;writing#71827775</title>
<ellipse fill="none" stroke="black" cx="2851.65" cy="-105" rx="101.28" ry="18"/>
<text text-anchor="middle" x="2851.65" y="-101.3" font-family="Times,serif" font-size="14.00">71827775 (No(0): Reuse)</text>
</g>
<!-- http://purl.org/dj/kaggle/creating&#45;reading&#45;and&#45;writing -->
<g id="node2" class="node">
<title>http://purl.org/dj/kaggle/creating&#45;reading&#45;and&#45;writing</title>
<ellipse fill="none" stroke="black" cx="2923.65" cy="-18" rx="112.38" ry="18"/>
<text text-anchor="middle" x="2923.65" y="-14.3" font-family="Times,serif" font-size="14.00">creating&#45;reading&#45;and&#45;writing</text>
</g>
<!-- http://purl.org/dj/kaggle/creating&#45;reading&#45;and&#45;writing#71827775&#45;&gt;http://purl.org/dj/kaggle/creating&#45;reading&#45;and&#45;writing -->
<g id="edge1" class="edge">
<title>http://purl.org/dj/kaggle/creating&#45;reading&#45;and&#45;writing#71827775&#45;&gt;http://purl.org/dj/kaggle/creating&#45;reading&#45;and&#45;writing</title>
<path fill="none" stroke="black" d="M2866.22,-86.8C2876.73,-74.39 2891.08,-57.46 2902.8,-43.62"/>
<polygon fill="black" stroke="black" points="2905.56,-45.78 2909.35,-35.89 2900.22,-41.25 2905.56,-45.78"/>
<text text-anchor="middle" x="2915.15" y="-57.8" font-family="Times,serif" font-size="14.00">previous</text>
</g>
<!-- http://purl.org/dj/kaggle/creating&#45;reading&#45;and&#45;writing#29687986 -->
<g id="node3" class="node">
<title>http://purl.org/dj/kaggle/creating&#45;reading&#45;and&#45;writing#29687986</title>
<ellipse fill="none" stroke="black" cx="6068.65" cy="-246" rx="94.78" ry="18"/>
<text text-anchor="middle" x="6068.65" y="-242.3" font-family="Times,serif" font-size="14.00">29687986 (0(0): Reuse)</text>
</g>
<!-- http://purl.org/dj/kaggle/creating&#45;reading&#45;and&#45;writing#29687986&#45;&gt;http://purl.org/dj/kaggle/creating&#45;reading&#45;and&#45;writing -->
<g id="edge2" class="edge">
<title>http://purl.org/dj/kaggle/creating&#45;reading&#45;and&#45;writing#29687986&#45;&gt;http://purl.org/dj/kaggle/creating&#45;reading&#45;and&#45;writing</title>
<path fill="none" stroke="black" d="M6159.65,-240.76C6384.82,-228.67 6943.01,-188.16 6844.65,-87 6776.85,-17.26 3704.15,-17.85 3046.65,-18.77"/>
<polygon fill="black" stroke="black" points="3046.2,-15.27 3036.21,-18.79 3046.21,-22.27 3046.2,-15.27"/>
<text text-anchor="middle" x="6854.15" y="-144.8" font-family="Times,serif" font-size="14.00">previous</text>
</g>
<!-- http://purl.org/dj/kaggle/creating&#45;reading&#45;and&#45;writing#132841899 -->
<g id="node4" class="node">
<title>http://purl.org/dj/kaggle/creating&#45;reading&#45;and&#45;writing#132841899</title>
<ellipse fill="none" stroke="black" cx="5126.65" cy="-192" rx="131.88" ry="18"/>
<text text-anchor="middle" x="5126.65" y="-188.3" font-family="Times,serif" font-size="14.00">132841899 (pd(0)$1: Preparation)</text>
</g>
<!-- http://purl.org/dj/kaggle/creating&#45;reading&#45;and&#45;writing#105251221 -->
<g id="node5" class="node">
<title>http://purl.org/dj/kaggle/creating&#45;reading&#45;and&#45;writing#105251221</title>
<ellipse fill="none" stroke="black" cx="5126.65" cy="-105" rx="109.68" ry="18"/>
<text text-anchor="middle" x="5126.65" y="-101.3" font-family="Times,serif" font-size="14.00">105251221 (Bob(0): Reuse)</text>
</g>
<!-- http://purl.org/dj/kaggle/creating&#45;reading&#45;and&#45;writing#132841899&#45;&gt;http://purl.org/dj/kaggle/creating&#45;reading&#45;and&#45;writing#105251221 -->
<g id="edge3" class="edge">
<title>http://purl.org/dj/kaggle/creating&#45;reading&#45;and&#45;writing#132841899&#45;&gt;http://purl.org/dj/kaggle/creating&#45;reading&#45;and&#45;writing#105251221</title>
<path fill="none" stroke="black" d="M5126.65,-173.8C5126.65,-162.16 5126.65,-146.55 5126.65,-133.24"/>
<polygon fill="black" stroke="black" points="5130.15,-133.18 5126.65,-123.18 5123.15,-133.18 5130.15,-133.18"/>
<text text-anchor="middle" x="5150.15" y="-144.8" font-family="Times,serif" font-size="14.00">previous</text>
</g>
<!-- http://purl.org/dj/kaggle/creating&#45;reading&#45;and&#45;writing#1211308328 -->
<g id="node6" class="node">
<title>http://purl.org/dj/kaggle/creating&#45;reading&#45;and&#45;writing#1211308328</title>
<ellipse fill="none" stroke="black" cx="6442.65" cy="-105" rx="392.63" ry="18"/>
<text text-anchor="middle" x="6442.65" y="-101.3" font-family="Times,serif" font-size="14.00">1211308328 ([&lt;_ast.Constant object at 0x1066054f0&gt;, &lt;_ast.Constant object at 0x106605910&gt;](0): Reuse)</text>
</g>
<!-- http://purl.org/dj/kaggle/creating&#45;reading&#45;and&#45;writing#132841899&#45;&gt;http://purl.org/dj/kaggle/creating&#45;reading&#45;and&#45;writing#1211308328 -->
<g id="edge4" class="edge">
<title>http://purl.org/dj/kaggle/creating&#45;reading&#45;and&#45;writing#132841899&#45;&gt;http://purl.org/dj/kaggle/creating&#45;reading&#45;and&#45;writing#1211308328</title>
<path fill="none" stroke="black" d="M5243.15,-183.48C5460.78,-169.42 5932.57,-138.95 6215.28,-120.69"/>
<polygon fill="black" stroke="black" points="6215.92,-124.15 6225.67,-120.01 6215.46,-117.17 6215.92,-124.15"/>
<text text-anchor="middle" x="5886.15" y="-144.8" font-family="Times,serif" font-size="14.00">previous</text>
</g>
<!-- http://purl.org/dj/kaggle/creating&#45;reading&#45;and&#45;writing#114688431 -->
<g id="node7" class="node">
<title>http://purl.org/dj/kaggle/creating&#45;reading&#45;and&#45;writing#114688431</title>
<ellipse fill="none" stroke="black" cx="4890.65" cy="-105" rx="108.58" ry="18"/>
<text text-anchor="middle" x="4890.65" y="-101.3" font-family="Times,serif" font-size="14.00">114688431 (Sue(0): Reuse)</text>
</g>
<!-- http://purl.org/dj/kaggle/creating&#45;reading&#45;and&#45;writing#132841899&#45;&gt;http://purl.org/dj/kaggle/creating&#45;reading&#45;and&#45;writing#114688431 -->
<g id="edge5" class="edge">
<title>http://purl.org/dj/kaggle/creating&#45;reading&#45;and&#45;writing#132841899&#45;&gt;http://purl.org/dj/kaggle/creating&#45;reading&#45;and&#45;writing#114688431</title>
<path fill="none" stroke="black" d="M5082.26,-175.01C5042.87,-160.82 4985.26,-140.07 4943.5,-125.03"/>
<polygon fill="black" stroke="black" points="4944.64,-121.72 4934.05,-121.63 4942.27,-128.31 4944.64,-121.72"/>
<text text-anchor="middle" x="5046.15" y="-144.8" font-family="Times,serif" font-size="14.00">previous</text>
</g>
<!-- http://purl.org/dj/kaggle/creating&#45;reading&#45;and&#45;writing#1669012052 -->
<g id="node8" class="node">
<title>http://purl.org/dj/kaggle/creating&#45;reading&#45;and&#45;writing#1669012052</title>
<ellipse fill="none" stroke="black" cx="5643.65" cy="-105" rx="388.83" ry="18"/>
<text text-anchor="middle" x="5643.65" y="-101.3" font-family="Times,serif" font-size="14.00">1669012052 ([&lt;_ast.Constant object at 0x12f85e9a0&gt;, &lt;_ast.Constant object at 0x12f85eca0&gt;](0): Reuse)</text>
</g>
<!-- http://purl.org/dj/kaggle/creating&#45;reading&#45;and&#45;writing#132841899&#45;&gt;http://purl.org/dj/kaggle/creating&#45;reading&#45;and&#45;writing#1669012052 -->
<g id="edge6" class="edge">
<title>http://purl.org/dj/kaggle/creating&#45;reading&#45;and&#45;writing#132841899&#45;&gt;http://purl.org/dj/kaggle/creating&#45;reading&#45;and&#45;writing#1669012052</title>
<path fill="none" stroke="black" d="M5207.43,-177.72C5295.16,-163.3 5435.81,-140.17 5533.59,-124.1"/>
<polygon fill="black" stroke="black" points="5534.21,-127.54 5543.51,-122.46 5533.08,-120.63 5534.21,-127.54"/>
<text text-anchor="middle" x="5439.15" y="-144.8" font-family="Times,serif" font-size="14.00">previous</text>
</g>
<!-- http://purl.org/dj/kaggle/creating&#45;reading&#45;and&#45;writing#105251221&#45;&gt;http://purl.org/dj/kaggle/creating&#45;reading&#45;and&#45;writing -->
<g id="edge7" class="edge">
<title>http://purl.org/dj/kaggle/creating&#45;reading&#45;and&#45;writing#105251221&#45;&gt;http://purl.org/dj/kaggle/creating&#45;reading&#45;and&#45;writing</title>
<path fill="none" stroke="black" d="M5049.63,-92.14C5036,-90.26 5021.92,-88.46 5008.65,-87 4815.48,-65.8 4766.76,-63.4 4572.65,-54 4002.59,-26.4 3320.63,-20.56 3046.56,-19.33"/>
<polygon fill="black" stroke="black" points="3046.2,-15.83 3036.19,-19.28 3046.17,-22.83 3046.2,-15.83"/>
<text text-anchor="middle" x="4850.15" y="-57.8" font-family="Times,serif" font-size="14.00">previous</text>
</g>
<!-- http://purl.org/dj/kaggle/creating&#45;reading&#45;and&#45;writing#1211308328&#45;&gt;http://purl.org/dj/kaggle/creating&#45;reading&#45;and&#45;writing -->
<g id="edge8" class="edge">
<title>http://purl.org/dj/kaggle/creating&#45;reading&#45;and&#45;writing#1211308328&#45;&gt;http://purl.org/dj/kaggle/creating&#45;reading&#45;and&#45;writing</title>
<path fill="none" stroke="black" d="M6166.55,-92.18C6124.7,-90.43 6082.03,-88.65 6041.65,-87 5668.79,-71.76 5575.69,-64.2 5202.65,-54 4378.83,-31.48 3387.06,-22.44 3045.87,-19.85"/>
<polygon fill="black" stroke="black" points="3045.75,-16.35 3035.72,-19.77 3045.69,-23.35 3045.75,-16.35"/>
<text text-anchor="middle" x="5645.15" y="-57.8" font-family="Times,serif" font-size="14.00">previous</text>
</g>
<!-- http://purl.org/dj/kaggle/creating&#45;reading&#45;and&#45;writing#114688431&#45;&gt;http://purl.org/dj/kaggle/creating&#45;reading&#45;and&#45;writing -->
<g id="edge9" class="edge">
<title>http://purl.org/dj/kaggle/creating&#45;reading&#45;and&#45;writing#114688431&#45;&gt;http://purl.org/dj/kaggle/creating&#45;reading&#45;and&#45;writing</title>
<path fill="none" stroke="black" d="M4815.57,-91.96C4801.35,-90.03 4786.57,-88.25 4772.65,-87 4124.09,-28.52 3343.24,-20.02 3046.31,-19.01"/>
<polygon fill="black" stroke="black" points="3045.96,-15.51 3035.95,-18.98 3045.94,-22.51 3045.96,-15.51"/>
<text text-anchor="middle" x="4545.15" y="-57.8" font-family="Times,serif" font-size="14.00">previous</text>
</g>
<!-- http://purl.org/dj/kaggle/creating&#45;reading&#45;and&#45;writing#1669012052&#45;&gt;http://purl.org/dj/kaggle/creating&#45;reading&#45;and&#45;writing -->
<g id="edge10" class="edge">
<title>http://purl.org/dj/kaggle/creating&#45;reading&#45;and&#45;writing#1669012052&#45;&gt;http://purl.org/dj/kaggle/creating&#45;reading&#45;and&#45;writing</title>
<path fill="none" stroke="black" d="M5455.69,-89.24C5300.71,-77.68 5075.05,-62.21 4877.65,-54 4185.48,-25.23 3354.43,-20.09 3046.34,-19.18"/>
<polygon fill="black" stroke="black" points="3046.06,-15.68 3036.05,-19.16 3046.04,-22.68 3046.06,-15.68"/>
<text text-anchor="middle" x="5175.15" y="-57.8" font-family="Times,serif" font-size="14.00">previous</text>
</g>
<!-- http://purl.org/dj/kaggle/creating&#45;reading&#45;and&#45;writing#1021773295 -->
<g id="node9" class="node">
<title>http://purl.org/dj/kaggle/creating&#45;reading&#45;and&#45;writing#1021773295</title>
<ellipse fill="none" stroke="black" cx="2466.65" cy="-387" rx="174.67" ry="18"/>
<text text-anchor="middle" x="2466.65" y="-383.3" font-family="Times,serif" font-size="14.00">1021773295 (wine_reviews(0)$2: Movement)</text>
</g>
<!-- http://purl.org/dj/kaggle/creating&#45;reading&#45;and&#45;writing#1021773295&#45;&gt;http://purl.org/dj/kaggle/creating&#45;reading&#45;and&#45;writing#29687986 -->
<g id="edge11" class="edge">
<title>http://purl.org/dj/kaggle/creating&#45;reading&#45;and&#45;writing#1021773295&#45;&gt;http://purl.org/dj/kaggle/creating&#45;reading&#45;and&#45;writing#29687986</title>
<path fill="none" stroke="black" d="M2626.95,-379.81C3244.82,-355.97 5462.44,-270.39 5966.31,-250.95"/>
<polygon fill="black" stroke="black" points="5966.61,-254.44 5976.47,-250.56 5966.34,-247.45 5966.61,-254.44"/>
<text text-anchor="middle" x="3757.15" y="-339.8" font-family="Times,serif" font-size="14.00">previous</text>
</g>
<!-- http://purl.org/dj/kaggle/creating&#45;reading&#45;and&#45;writing#3018526890 -->
<g id="node10" class="node">
<title>http://purl.org/dj/kaggle/creating&#45;reading&#45;and&#45;writing#3018526890</title>
<ellipse fill="none" stroke="black" cx="1354.65" cy="-300" rx="273.75" ry="18"/>
<text text-anchor="middle" x="1354.65" y="-296.3" font-family="Times,serif" font-size="14.00">3018526890 (../input/wine&#45;reviews/winemag&#45;data&#45;130k&#45;v2.csv(0): Reuse)</text>
</g>
<!-- http://purl.org/dj/kaggle/creating&#45;reading&#45;and&#45;writing#1021773295&#45;&gt;http://purl.org/dj/kaggle/creating&#45;reading&#45;and&#45;writing#3018526890 -->
<g id="edge12" class="edge">
<title>http://purl.org/dj/kaggle/creating&#45;reading&#45;and&#45;writing#1021773295&#45;&gt;http://purl.org/dj/kaggle/creating&#45;reading&#45;and&#45;writing#3018526890</title>
<path fill="none" stroke="black" d="M2391.21,-370.71C2324.91,-357.52 2233.44,-339.98 2196.65,-336 1949.52,-309.29 1885.96,-329.45 1637.65,-318 1610.38,-316.74 1581.65,-315.23 1553.36,-313.64"/>
<polygon fill="black" stroke="black" points="1553.56,-310.14 1543.38,-313.07 1553.16,-317.13 1553.56,-310.14"/>
<text text-anchor="middle" x="2313.15" y="-339.8" font-family="Times,serif" font-size="14.00">previous</text>
</g>
<!-- http://purl.org/dj/kaggle/creating&#45;reading&#45;and&#45;writing#2093819640 -->
<g id="node11" class="node">
<title>http://purl.org/dj/kaggle/creating&#45;reading&#45;and&#45;writing#2093819640</title>
<ellipse fill="none" stroke="black" cx="531.65" cy="-300" rx="531.81" ry="18"/>
<text text-anchor="middle" x="531.65" y="-296.3" font-family="Times,serif" font-size="14.00">2093819640 ([&lt;_ast.Constant object at 0x12f85ef40&gt;, &lt;_ast.Constant object at 0x12f85edc0&gt;, &lt;_ast.Constant object at 0x12f85e7f0&gt;](0): Reuse)</text>
</g>
<!-- http://purl.org/dj/kaggle/creating&#45;reading&#45;and&#45;writing#1021773295&#45;&gt;http://purl.org/dj/kaggle/creating&#45;reading&#45;and&#45;writing#2093819640 -->
<g id="edge13" class="edge">
<title>http://purl.org/dj/kaggle/creating&#45;reading&#45;and&#45;writing#1021773295&#45;&gt;http://purl.org/dj/kaggle/creating&#45;reading&#45;and&#45;writing#2093819640</title>
<path fill="none" stroke="black" d="M2324.46,-376.52C2155.19,-365.5 1863.91,-347.38 1613.65,-336 1578.38,-334.4 1211.6,-322.61 914.71,-313.15"/>
<polygon fill="black" stroke="black" points="914.72,-309.65 904.62,-312.83 914.5,-316.65 914.72,-309.65"/>
<text text-anchor="middle" x="1919.15" y="-339.8" font-family="Times,serif" font-size="14.00">previous</text>
</g>
<!-- http://purl.org/dj/kaggle/creating&#45;reading&#45;and&#45;writing#2686861454 -->
<g id="node12" class="node">
<title>http://purl.org/dj/kaggle/creating&#45;reading&#45;and&#45;writing#2686861454</title>
<ellipse fill="none" stroke="black" cx="2466.65" cy="-300" rx="820.45" ry="18"/>
<text text-anchor="middle" x="2466.65" y="-296.3" font-family="Times,serif" font-size="14.00">2686861454 ([&lt;_ast.Constant object at 0x12f85ecd0&gt;, &lt;_ast.Constant object at 0x12f85eaf0&gt;, &lt;_ast.Constant object at 0x12f85eee0&gt;, &lt;_ast.Constant object at 0x12f85e6d0&gt;, &lt;_ast.Constant object at 0x12f85ec70&gt;](0): Reuse)</text>
</g>
<!-- http://purl.org/dj/kaggle/creating&#45;reading&#45;and&#45;writing#1021773295&#45;&gt;http://purl.org/dj/kaggle/creating&#45;reading&#45;and&#45;writing#2686861454 -->
<g id="edge14" class="edge">
<title>http://purl.org/dj/kaggle/creating&#45;reading&#45;and&#45;writing#1021773295&#45;&gt;http://purl.org/dj/kaggle/creating&#45;reading&#45;and&#45;writing#2686861454</title>
<path fill="none" stroke="black" d="M2466.65,-368.8C2466.65,-357.16 2466.65,-341.55 2466.65,-328.24"/>
<polygon fill="black" stroke="black" points="2470.15,-328.18 2466.65,-318.18 2463.15,-328.18 2470.15,-328.18"/>
<text text-anchor="middle" x="2490.15" y="-339.8" font-family="Times,serif" font-size="14.00">previous</text>
</g>
<!-- http://purl.org/dj/kaggle/creating&#45;reading&#45;and&#45;writing#132972973 -->
<g id="node13" class="node">
<title>http://purl.org/dj/kaggle/creating&#45;reading&#45;and&#45;writing#132972973</title>
<ellipse fill="none" stroke="black" cx="3417.65" cy="-300" rx="112.38" ry="18"/>
<text text-anchor="middle" x="3417.65" y="-296.3" font-family="Times,serif" font-size="14.00">132972973 (pd(0)$3: Reuse)</text>
</g>
<!-- http://purl.org/dj/kaggle/creating&#45;reading&#45;and&#45;writing#1021773295&#45;&gt;http://purl.org/dj/kaggle/creating&#45;reading&#45;and&#45;writing#132972973 -->
<g id="edge15" class="edge">
<title>http://purl.org/dj/kaggle/creating&#45;reading&#45;and&#45;writing#1021773295&#45;&gt;http://purl.org/dj/kaggle/creating&#45;reading&#45;and&#45;writing#132972973</title>
<path fill="none" stroke="black" d="M2610.29,-376.7C2775.79,-365.4 3055.78,-344.53 3295.65,-318 3306.15,-316.84 3317.14,-315.49 3328.03,-314.08"/>
<polygon fill="black" stroke="black" points="3328.54,-317.54 3338,-312.76 3327.63,-310.6 3328.54,-317.54"/>
<text text-anchor="middle" x="3137.15" y="-339.8" font-family="Times,serif" font-size="14.00">previous</text>
</g>
<!-- http://purl.org/dj/kaggle/creating&#45;reading&#45;and&#45;writing#3018526890&#45;&gt;http://purl.org/dj/kaggle/creating&#45;reading&#45;and&#45;writing -->
<g id="edge16" class="edge">
<title>http://purl.org/dj/kaggle/creating&#45;reading&#45;and&#45;writing#3018526890&#45;&gt;http://purl.org/dj/kaggle/creating&#45;reading&#45;and&#45;writing</title>
<path fill="none" stroke="black" d="M1212.59,-284.61C1098.37,-271.09 934.48,-247.27 794.65,-210 729.41,-192.61 690.98,-211.59 652.65,-156 641.75,-140.19 637.29,-113.15 662.65,-87 710.78,-37.37 745.98,-61.95 814.65,-54 1011.37,-31.24 2381.33,-21.95 2801.45,-19.62"/>
<polygon fill="black" stroke="black" points="2801.52,-23.12 2811.5,-19.57 2801.48,-16.12 2801.52,-23.12"/>
<text text-anchor="middle" x="676.15" y="-144.8" font-family="Times,serif" font-size="14.00">previous</text>
</g>
<!-- http://purl.org/dj/kaggle/creating&#45;reading&#45;and&#45;writing#2093819640&#45;&gt;http://purl.org/dj/kaggle/creating&#45;reading&#45;and&#45;writing -->
<g id="edge17" class="edge">
<title>http://purl.org/dj/kaggle/creating&#45;reading&#45;and&#45;writing#2093819640&#45;&gt;http://purl.org/dj/kaggle/creating&#45;reading&#45;and&#45;writing</title>
<path fill="none" stroke="black" d="M534.78,-281.96C544.95,-232.52 582.31,-90.2 680.65,-54 780.57,-17.22 2346.86,-17.74 2801.08,-18.67"/>
<polygon fill="black" stroke="black" points="2801.27,-22.17 2811.28,-18.69 2801.29,-15.17 2801.27,-22.17"/>
<text text-anchor="middle" x="610.15" y="-144.8" font-family="Times,serif" font-size="14.00">previous</text>
</g>
<!-- http://purl.org/dj/kaggle/creating&#45;reading&#45;and&#45;writing#2686861454&#45;&gt;http://purl.org/dj/kaggle/creating&#45;reading&#45;and&#45;writing -->
<g id="edge18" class="edge">
<title>http://purl.org/dj/kaggle/creating&#45;reading&#45;and&#45;writing#2686861454&#45;&gt;http://purl.org/dj/kaggle/creating&#45;reading&#45;and&#45;writing</title>
<path fill="none" stroke="black" d="M2002.36,-285.16C1501.23,-265.32 762.49,-219.89 674.65,-123 663.91,-111.15 663.54,-98.51 674.65,-87 711.88,-48.45 2338.75,-26.01 2801.84,-20.4"/>
<polygon fill="black" stroke="black" points="2801.94,-23.9 2811.9,-20.28 2801.86,-16.9 2801.94,-23.9"/>
<text text-anchor="middle" x="755.15" y="-144.8" font-family="Times,serif" font-size="14.00">previous</text>
</g>
<!-- http://purl.org/dj/kaggle/creating&#45;reading&#45;and&#45;writing#132972973&#45;&gt;http://purl.org/dj/kaggle/creating&#45;reading&#45;and&#45;writing#132841899 -->
<g id="edge19" class="edge">
<title>http://purl.org/dj/kaggle/creating&#45;reading&#45;and&#45;writing#132972973&#45;&gt;http://purl.org/dj/kaggle/creating&#45;reading&#45;and&#45;writing#132841899</title>
<path fill="none" stroke="black" d="M3523.73,-294C3656.02,-287.64 3889.1,-276.03 4088.65,-264 4419.23,-244.07 4808.71,-216.27 5003.17,-202.1"/>
<polygon fill="black" stroke="black" points="5003.7,-205.57 5013.41,-201.35 5003.19,-198.58 5003.7,-205.57"/>
<text text-anchor="middle" x="4650.15" y="-242.3" font-family="Times,serif" font-size="14.00">previous</text>
</g>
<!-- http://purl.org/dj/kaggle/creating&#45;reading&#45;and&#45;writing#132776362 -->
<g id="node14" class="node">
<title>http://purl.org/dj/kaggle/creating&#45;reading&#45;and&#45;writing#132776362</title>
<ellipse fill="none" stroke="black" cx="2623.65" cy="-192" rx="131.88" ry="18"/>
<text text-anchor="middle" x="2623.65" y="-188.3" font-family="Times,serif" font-size="14.00">132776362 (pd(0)$0: Preparation)</text>
</g>
<!-- http://purl.org/dj/kaggle/creating&#45;reading&#45;and&#45;writing#132972973&#45;&gt;http://purl.org/dj/kaggle/creating&#45;reading&#45;and&#45;writing#132776362 -->
<g id="edge20" class="edge">
<title>http://purl.org/dj/kaggle/creating&#45;reading&#45;and&#45;writing#132972973&#45;&gt;http://purl.org/dj/kaggle/creating&#45;reading&#45;and&#45;writing#132776362</title>
<path fill="none" stroke="black" d="M3335.96,-287.54C3322.5,-285.67 3308.68,-283.77 3295.65,-282 3093.64,-254.55 2857.3,-223.49 2725.6,-206.28"/>
<polygon fill="black" stroke="black" points="2725.9,-202.79 2715.53,-204.97 2724.99,-209.73 2725.9,-202.79"/>
<text text-anchor="middle" x="3171.15" y="-242.3" font-family="Times,serif" font-size="14.00">previous</text>
</g>
<!-- http://purl.org/dj/kaggle/creating&#45;reading&#45;and&#45;writing#132907436 -->
<g id="node15" class="node">
<title>http://purl.org/dj/kaggle/creating&#45;reading&#45;and&#45;writing#132907436</title>
<ellipse fill="none" stroke="black" cx="4374.65" cy="-192" rx="131.88" ry="18"/>
<text text-anchor="middle" x="4374.65" y="-188.3" font-family="Times,serif" font-size="14.00">132907436 (pd(0)$2: Preparation)</text>
</g>
<!-- http://purl.org/dj/kaggle/creating&#45;reading&#45;and&#45;writing#132972973&#45;&gt;http://purl.org/dj/kaggle/creating&#45;reading&#45;and&#45;writing#132907436 -->
<g id="edge21" class="edge">
<title>http://purl.org/dj/kaggle/creating&#45;reading&#45;and&#45;writing#132972973&#45;&gt;http://purl.org/dj/kaggle/creating&#45;reading&#45;and&#45;writing#132907436</title>
<path fill="none" stroke="black" d="M3507.25,-289.08C3683.57,-269.55 4074.98,-226.19 4265.82,-205.06"/>
<polygon fill="black" stroke="black" points="4266.31,-208.52 4275.86,-203.94 4265.54,-201.56 4266.31,-208.52"/>
<text text-anchor="middle" x="4061.15" y="-242.3" font-family="Times,serif" font-size="14.00">previous</text>
</g>
<!-- http://purl.org/dj/kaggle/creating&#45;reading&#45;and&#45;writing#132776362&#45;&gt;http://purl.org/dj/kaggle/creating&#45;reading&#45;and&#45;writing#71827775 -->
<g id="edge22" class="edge">
<title>http://purl.org/dj/kaggle/creating&#45;reading&#45;and&#45;writing#132776362&#45;&gt;http://purl.org/dj/kaggle/creating&#45;reading&#45;and&#45;writing#71827775</title>
<path fill="none" stroke="black" d="M2666.81,-174.91C2704.93,-160.7 2760.58,-139.95 2800.84,-124.94"/>
<polygon fill="black" stroke="black" points="2802.07,-128.22 2810.21,-121.45 2799.62,-121.66 2802.07,-128.22"/>
<text text-anchor="middle" x="2774.15" y="-144.8" font-family="Times,serif" font-size="14.00">previous</text>
</g>
<!-- http://purl.org/dj/kaggle/creating&#45;reading&#45;and&#45;writing#80085334 -->
<g id="node16" class="node">
<title>http://purl.org/dj/kaggle/creating&#45;reading&#45;and&#45;writing#80085334</title>
<ellipse fill="none" stroke="black" cx="3070.65" cy="-105" rx="99.38" ry="18"/>
<text text-anchor="middle" x="3070.65" y="-101.3" font-family="Times,serif" font-size="14.00">80085334 (pd(0): Reuse)</text>
</g>
<!-- http://purl.org/dj/kaggle/creating&#45;reading&#45;and&#45;writing#132776362&#45;&gt;http://purl.org/dj/kaggle/creating&#45;reading&#45;and&#45;writing#80085334 -->
<g id="edge23" class="edge">
<title>http://purl.org/dj/kaggle/creating&#45;reading&#45;and&#45;writing#132776362&#45;&gt;http://purl.org/dj/kaggle/creating&#45;reading&#45;and&#45;writing#80085334</title>
<path fill="none" stroke="black" d="M2697.47,-176.96C2779.67,-161.33 2911.89,-136.19 2994.88,-120.41"/>
<polygon fill="black" stroke="black" points="2995.58,-123.84 3004.75,-118.53 2994.27,-116.96 2995.58,-123.84"/>
<text text-anchor="middle" x="2897.15" y="-144.8" font-family="Times,serif" font-size="14.00">previous</text>
</g>
<!-- http://purl.org/dj/kaggle/creating&#45;reading&#45;and&#45;writing#1635195390 -->
<g id="node17" class="node">
<title>http://purl.org/dj/kaggle/creating&#45;reading&#45;and&#45;writing#1635195390</title>
<ellipse fill="none" stroke="black" cx="1073.65" cy="-105" rx="389.93" ry="18"/>
<text text-anchor="middle" x="1073.65" y="-101.3" font-family="Times,serif" font-size="14.00">1635195390 ([&lt;_ast.Constant object at 0x12f989dc0&gt;, &lt;_ast.Constant object at 0x12f989a00&gt;](0): Reuse)</text>
</g>
<!-- http://purl.org/dj/kaggle/creating&#45;reading&#45;and&#45;writing#132776362&#45;&gt;http://purl.org/dj/kaggle/creating&#45;reading&#45;and&#45;writing#1635195390 -->
<g id="edge24" class="edge">
<title>http://purl.org/dj/kaggle/creating&#45;reading&#45;and&#45;writing#132776362&#45;&gt;http://purl.org/dj/kaggle/creating&#45;reading&#45;and&#45;writing#1635195390</title>
<path fill="none" stroke="black" d="M2499.06,-185.99C2347.63,-179.73 2084.33,-168.35 1858.65,-156 1667.02,-145.51 1449.21,-131.47 1291.72,-120.94"/>
<polygon fill="black" stroke="black" points="1291.64,-117.43 1281.43,-120.25 1291.17,-124.41 1291.64,-117.43"/>
<text text-anchor="middle" x="1882.15" y="-144.8" font-family="Times,serif" font-size="14.00">previous</text>
</g>
<!-- http://purl.org/dj/python/lib/144966264 -->
<g id="node18" class="node">
<title>http://purl.org/dj/python/lib/144966264</title>
<ellipse fill="none" stroke="black" cx="1590.65" cy="-105" rx="109.38" ry="18"/>
<text text-anchor="middle" x="1590.65" y="-101.3" font-family="Times,serif" font-size="14.00">144966264 (pandas: Reuse)</text>
</g>
<!-- http://purl.org/dj/kaggle/creating&#45;reading&#45;and&#45;writing#132776362&#45;&gt;http://purl.org/dj/python/lib/144966264 -->
<g id="edge25" class="edge">
<title>http://purl.org/dj/kaggle/creating&#45;reading&#45;and&#45;writing#132776362&#45;&gt;http://purl.org/dj/python/lib/144966264</title>
<path fill="none" stroke="black" d="M2502.91,-184.62C2327.79,-174.79 1993.21,-153.77 1709.65,-123 1699.35,-121.88 1688.58,-120.56 1677.89,-119.15"/>
<polygon fill="black" stroke="black" points="1678.07,-115.64 1667.69,-117.78 1677.14,-122.58 1678.07,-115.64"/>
<text text-anchor="middle" x="2085.15" y="-144.8" font-family="Times,serif" font-size="14.00">previous</text>
</g>
<!-- http://purl.org/dj/kaggle/creating&#45;reading&#45;and&#45;writing#1507793412 -->
<g id="node19" class="node">
<title>http://purl.org/dj/kaggle/creating&#45;reading&#45;and&#45;writing#1507793412</title>
<ellipse fill="none" stroke="black" cx="2107.65" cy="-105" rx="389.13" ry="18"/>
<text text-anchor="middle" x="2107.65" y="-101.3" font-family="Times,serif" font-size="14.00">1507793412 ([&lt;_ast.Constant object at 0x12f989c10&gt;, &lt;_ast.Constant object at 0x12f989ee0&gt;](0): Reuse)</text>
</g>
<!-- http://purl.org/dj/kaggle/creating&#45;reading&#45;and&#45;writing#132776362&#45;&gt;http://purl.org/dj/kaggle/creating&#45;reading&#45;and&#45;writing#1507793412 -->
<g id="edge26" class="edge">
<title>http://purl.org/dj/kaggle/creating&#45;reading&#45;and&#45;writing#132776362&#45;&gt;http://purl.org/dj/kaggle/creating&#45;reading&#45;and&#45;writing#1507793412</title>
<path fill="none" stroke="black" d="M2543.03,-177.72C2455.47,-163.3 2315.1,-140.17 2217.5,-124.1"/>
<polygon fill="black" stroke="black" points="2218.04,-120.64 2207.6,-122.46 2216.9,-127.54 2218.04,-120.64"/>
<text text-anchor="middle" x="2420.15" y="-144.8" font-family="Times,serif" font-size="14.00">previous</text>
</g>
<!-- http://purl.org/dj/kaggle/creating&#45;reading&#45;and&#45;writing#115474867 -->
<g id="node20" class="node">
<title>http://purl.org/dj/kaggle/creating&#45;reading&#45;and&#45;writing#115474867</title>
<ellipse fill="none" stroke="black" cx="2623.65" cy="-105" rx="108.58" ry="18"/>
<text text-anchor="middle" x="2623.65" y="-101.3" font-family="Times,serif" font-size="14.00">115474867 (Yes(0): Reuse)</text>
</g>
<!-- http://purl.org/dj/kaggle/creating&#45;reading&#45;and&#45;writing#132776362&#45;&gt;http://purl.org/dj/kaggle/creating&#45;reading&#45;and&#45;writing#115474867 -->
<g id="edge27" class="edge">
<title>http://purl.org/dj/kaggle/creating&#45;reading&#45;and&#45;writing#132776362&#45;&gt;http://purl.org/dj/kaggle/creating&#45;reading&#45;and&#45;writing#115474867</title>
<path fill="none" stroke="black" d="M2623.65,-173.8C2623.65,-162.16 2623.65,-146.55 2623.65,-133.24"/>
<polygon fill="black" stroke="black" points="2627.15,-133.18 2623.65,-123.18 2620.15,-133.18 2627.15,-133.18"/>
<text text-anchor="middle" x="2647.15" y="-144.8" font-family="Times,serif" font-size="14.00">previous</text>
</g>
<!-- http://purl.org/dj/kaggle/creating&#45;reading&#45;and&#45;writing#132907436&#45;&gt;http://purl.org/dj/kaggle/creating&#45;reading&#45;and&#45;writing#105251221 -->
<g id="edge33" class="edge">
<title>http://purl.org/dj/kaggle/creating&#45;reading&#45;and&#45;writing#132907436&#45;&gt;http://purl.org/dj/kaggle/creating&#45;reading&#45;and&#45;writing#105251221</title>
<path fill="none" stroke="black" d="M4479.7,-181.06C4605.58,-168.84 4822.81,-146.78 5008.65,-123 5018.28,-121.77 5028.33,-120.42 5038.34,-119.03"/>
<polygon fill="black" stroke="black" points="5038.89,-122.49 5048.31,-117.64 5037.92,-115.56 5038.89,-122.49"/>
<text text-anchor="middle" x="4875.15" y="-144.8" font-family="Times,serif" font-size="14.00">previous</text>
</g>
<!-- http://purl.org/dj/kaggle/creating&#45;reading&#45;and&#45;writing#132907436&#45;&gt;http://purl.org/dj/kaggle/creating&#45;reading&#45;and&#45;writing#114688431 -->
<g id="edge34" class="edge">
<title>http://purl.org/dj/kaggle/creating&#45;reading&#45;and&#45;writing#132907436&#45;&gt;http://purl.org/dj/kaggle/creating&#45;reading&#45;and&#45;writing#114688431</title>
<path fill="none" stroke="black" d="M4455.28,-177.72C4550.82,-161.98 4709.26,-135.88 4806.37,-119.88"/>
<polygon fill="black" stroke="black" points="4807.15,-123.3 4816.45,-118.22 4806.01,-116.4 4807.15,-123.3"/>
<text text-anchor="middle" x="4686.15" y="-144.8" font-family="Times,serif" font-size="14.00">previous</text>
</g>
<!-- http://purl.org/dj/kaggle/creating&#45;reading&#45;and&#45;writing#1495800311 -->
<g id="node21" class="node">
<title>http://purl.org/dj/kaggle/creating&#45;reading&#45;and&#45;writing#1495800311</title>
<ellipse fill="none" stroke="black" cx="3577.65" cy="-105" rx="389.93" ry="18"/>
<text text-anchor="middle" x="3577.65" y="-101.3" font-family="Times,serif" font-size="14.00">1495800311 ([&lt;_ast.Constant object at 0x12f85e700&gt;, &lt;_ast.Constant object at 0x12f85eb80&gt;](0): Reuse)</text>
</g>
<!-- http://purl.org/dj/kaggle/creating&#45;reading&#45;and&#45;writing#132907436&#45;&gt;http://purl.org/dj/kaggle/creating&#45;reading&#45;and&#45;writing#1495800311 -->
<g id="edge35" class="edge">
<title>http://purl.org/dj/kaggle/creating&#45;reading&#45;and&#45;writing#132907436&#45;&gt;http://purl.org/dj/kaggle/creating&#45;reading&#45;and&#45;writing#1495800311</title>
<path fill="none" stroke="black" d="M4274.12,-180.28C4138.47,-165.81 3895.44,-139.89 3735.36,-122.82"/>
<polygon fill="black" stroke="black" points="3735.25,-119.29 3724.94,-121.71 3734.51,-126.25 3735.25,-119.29"/>
<text text-anchor="middle" x="4047.15" y="-144.8" font-family="Times,serif" font-size="14.00">previous</text>
</g>
<!-- http://purl.org/dj/kaggle/creating&#45;reading&#45;and&#45;writing#1632901671 -->
<g id="node22" class="node">
<title>http://purl.org/dj/kaggle/creating&#45;reading&#45;and&#45;writing#1632901671</title>
<ellipse fill="none" stroke="black" cx="4374.65" cy="-105" rx="389.13" ry="18"/>
<text text-anchor="middle" x="4374.65" y="-101.3" font-family="Times,serif" font-size="14.00">1632901671 ([&lt;_ast.Constant object at 0x12f85eb20&gt;, &lt;_ast.Constant object at 0x12f85e8e0&gt;](0): Reuse)</text>
</g>
<!-- http://purl.org/dj/kaggle/creating&#45;reading&#45;and&#45;writing#132907436&#45;&gt;http://purl.org/dj/kaggle/creating&#45;reading&#45;and&#45;writing#1632901671 -->
<g id="edge36" class="edge">
<title>http://purl.org/dj/kaggle/creating&#45;reading&#45;and&#45;writing#132907436&#45;&gt;http://purl.org/dj/kaggle/creating&#45;reading&#45;and&#45;writing#1632901671</title>
<path fill="none" stroke="black" d="M4374.65,-173.8C4374.65,-162.16 4374.65,-146.55 4374.65,-133.24"/>
<polygon fill="black" stroke="black" points="4378.15,-133.18 4374.65,-123.18 4371.15,-133.18 4378.15,-133.18"/>
<text text-anchor="middle" x="4398.15" y="-144.8" font-family="Times,serif" font-size="14.00">previous</text>
</g>
<!-- http://purl.org/dj/kaggle/creating&#45;reading&#45;and&#45;writing#80085334&#45;&gt;http://purl.org/dj/kaggle/creating&#45;reading&#45;and&#45;writing -->
<g id="edge28" class="edge">
<title>http://purl.org/dj/kaggle/creating&#45;reading&#45;and&#45;writing#80085334&#45;&gt;http://purl.org/dj/kaggle/creating&#45;reading&#45;and&#45;writing</title>
<path fill="none" stroke="black" d="M3042.31,-87.61C3019.2,-74.25 2986.37,-55.26 2961.1,-40.65"/>
<polygon fill="black" stroke="black" points="2962.57,-37.46 2952.16,-35.48 2959.06,-43.52 2962.57,-37.46"/>
<text text-anchor="middle" x="3029.15" y="-57.8" font-family="Times,serif" font-size="14.00">previous</text>
</g>
<!-- http://purl.org/dj/kaggle/creating&#45;reading&#45;and&#45;writing#1635195390&#45;&gt;http://purl.org/dj/kaggle/creating&#45;reading&#45;and&#45;writing -->
<g id="edge29" class="edge">
<title>http://purl.org/dj/kaggle/creating&#45;reading&#45;and&#45;writing#1635195390&#45;&gt;http://purl.org/dj/kaggle/creating&#45;reading&#45;and&#45;writing</title>
<path fill="none" stroke="black" d="M1280.92,-89.75C1446.01,-78.78 1683.06,-63.87 1890.65,-54 2220.82,-38.31 2610.68,-27.08 2803.39,-22.01"/>
<polygon fill="black" stroke="black" points="2803.63,-25.51 2813.54,-21.75 2803.45,-18.51 2803.63,-25.51"/>
<text text-anchor="middle" x="1914.15" y="-57.8" font-family="Times,serif" font-size="14.00">previous</text>
</g>
<!-- http://purl.org/dj/python/lib/144966264&#45;&gt;http://purl.org/dj/kaggle/creating&#45;reading&#45;and&#45;writing -->
<g id="edge30" class="edge">
<title>http://purl.org/dj/python/lib/144966264&#45;&gt;http://purl.org/dj/kaggle/creating&#45;reading&#45;and&#45;writing</title>
<path fill="none" stroke="black" d="M1667.03,-92.1C1681.18,-90.18 1695.84,-88.37 1709.65,-87 2109.26,-47.34 2585.32,-29.07 2803.56,-22.31"/>
<polygon fill="black" stroke="black" points="2803.87,-25.8 2813.76,-21.99 2803.66,-18.8 2803.87,-25.8"/>
<text text-anchor="middle" x="2133.15" y="-57.8" font-family="Times,serif" font-size="14.00">previous</text>
</g>
<!-- http://purl.org/dj/kaggle/creating&#45;reading&#45;and&#45;writing#1507793412&#45;&gt;http://purl.org/dj/kaggle/creating&#45;reading&#45;and&#45;writing -->
<g id="edge31" class="edge">
<title>http://purl.org/dj/kaggle/creating&#45;reading&#45;and&#45;writing#1507793412&#45;&gt;http://purl.org/dj/kaggle/creating&#45;reading&#45;and&#45;writing</title>
<path fill="none" stroke="black" d="M2257.8,-88.36C2421.98,-71.26 2680.57,-44.32 2822.34,-29.55"/>
<polygon fill="black" stroke="black" points="2822.76,-33.03 2832.34,-28.51 2822.03,-26.07 2822.76,-33.03"/>
<text text-anchor="middle" x="2587.15" y="-57.8" font-family="Times,serif" font-size="14.00">previous</text>
</g>
<!-- http://purl.org/dj/kaggle/creating&#45;reading&#45;and&#45;writing#115474867&#45;&gt;http://purl.org/dj/kaggle/creating&#45;reading&#45;and&#45;writing -->
<g id="edge32" class="edge">
<title>http://purl.org/dj/kaggle/creating&#45;reading&#45;and&#45;writing#115474867&#45;&gt;http://purl.org/dj/kaggle/creating&#45;reading&#45;and&#45;writing</title>
<path fill="none" stroke="black" d="M2675.91,-89.19C2727.43,-74.6 2806.2,-52.28 2861.04,-36.74"/>
<polygon fill="black" stroke="black" points="2862.32,-40.01 2870.99,-33.92 2860.41,-33.28 2862.32,-40.01"/>
<text text-anchor="middle" x="2814.15" y="-57.8" font-family="Times,serif" font-size="14.00">previous</text>
</g>
<!-- http://purl.org/dj/kaggle/creating&#45;reading&#45;and&#45;writing#1495800311&#45;&gt;http://purl.org/dj/kaggle/creating&#45;reading&#45;and&#45;writing -->
<g id="edge37" class="edge">
<title>http://purl.org/dj/kaggle/creating&#45;reading&#45;and&#45;writing#1495800311&#45;&gt;http://purl.org/dj/kaggle/creating&#45;reading&#45;and&#45;writing</title>
<path fill="none" stroke="black" d="M3453.87,-87.91C3327.16,-71.44 3133,-46.21 3018.14,-31.28"/>
<polygon fill="black" stroke="black" points="3018.32,-27.78 3007.96,-29.96 3017.42,-34.72 3018.32,-27.78"/>
<text text-anchor="middle" x="3313.15" y="-57.8" font-family="Times,serif" font-size="14.00">previous</text>
</g>
<!-- http://purl.org/dj/kaggle/creating&#45;reading&#45;and&#45;writing#1632901671&#45;&gt;http://purl.org/dj/kaggle/creating&#45;reading&#45;and&#45;writing -->
<g id="edge38" class="edge">
<title>http://purl.org/dj/kaggle/creating&#45;reading&#45;and&#45;writing#1632901671&#45;&gt;http://purl.org/dj/kaggle/creating&#45;reading&#45;and&#45;writing</title>
<path fill="none" stroke="black" d="M4143.94,-90.48C3828.62,-72.01 3275.15,-39.59 3037.42,-25.66"/>
<polygon fill="black" stroke="black" points="3037.56,-22.17 3027.37,-25.08 3037.15,-29.15 3037.56,-22.17"/>
<text text-anchor="middle" x="3759.15" y="-57.8" font-family="Times,serif" font-size="14.00">previous</text>
</g>
<!-- http://purl.org/dj/kaggle/creating&#45;reading&#45;and&#45;writing#1021642221 -->
<g id="node23" class="node">
<title>http://purl.org/dj/kaggle/creating&#45;reading&#45;and&#45;writing#1021642221</title>
<ellipse fill="none" stroke="black" cx="1725.65" cy="-387" rx="174.67" ry="18"/>
<text text-anchor="middle" x="1725.65" y="-383.3" font-family="Times,serif" font-size="14.00">1021642221 (wine_reviews(0)$0: Movement)</text>
</g>
<!-- http://purl.org/dj/kaggle/creating&#45;reading&#45;and&#45;writing#1021642221&#45;&gt;http://purl.org/dj/kaggle/creating&#45;reading&#45;and&#45;writing#3018526890 -->
<g id="edge39" class="edge">
<title>http://purl.org/dj/kaggle/creating&#45;reading&#45;and&#45;writing#1021642221&#45;&gt;http://purl.org/dj/kaggle/creating&#45;reading&#45;and&#45;writing#3018526890</title>
<path fill="none" stroke="black" d="M1657.61,-370.41C1595.23,-356.12 1502.75,-334.93 1436.39,-319.73"/>
<polygon fill="black" stroke="black" points="1436.91,-316.26 1426.38,-317.43 1435.35,-323.08 1436.91,-316.26"/>
<text text-anchor="middle" x="1586.15" y="-339.8" font-family="Times,serif" font-size="14.00">previous</text>
</g>
<!-- http://purl.org/dj/kaggle/creating&#45;reading&#45;and&#45;writing#1021642221&#45;&gt;http://purl.org/dj/kaggle/creating&#45;reading&#45;and&#45;writing#2093819640 -->
<g id="edge40" class="edge">
<title>http://purl.org/dj/kaggle/creating&#45;reading&#45;and&#45;writing#1021642221&#45;&gt;http://purl.org/dj/kaggle/creating&#45;reading&#45;and&#45;writing#2093819640</title>
<path fill="none" stroke="black" d="M1586.35,-376.08C1383.01,-361.61 1002.63,-334.53 758.56,-317.15"/>
<polygon fill="black" stroke="black" points="758.71,-313.66 748.49,-316.44 758.21,-320.64 758.71,-313.66"/>
<text text-anchor="middle" x="1224.15" y="-339.8" font-family="Times,serif" font-size="14.00">previous</text>
</g>
<!-- http://purl.org/dj/kaggle/creating&#45;reading&#45;and&#45;writing#1021642221&#45;&gt;http://purl.org/dj/kaggle/creating&#45;reading&#45;and&#45;writing#2686861454 -->
<g id="edge41" class="edge">
<title>http://purl.org/dj/kaggle/creating&#45;reading&#45;and&#45;writing#1021642221&#45;&gt;http://purl.org/dj/kaggle/creating&#45;reading&#45;and&#45;writing#2686861454</title>
<path fill="none" stroke="black" d="M1835,-372.88C1920.61,-362.66 2042.69,-348.21 2149.65,-336 2199.45,-330.32 2253.66,-324.28 2302.94,-318.84"/>
<polygon fill="black" stroke="black" points="2303.49,-322.3 2313.05,-317.73 2302.73,-315.34 2303.49,-322.3"/>
<text text-anchor="middle" x="2173.15" y="-339.8" font-family="Times,serif" font-size="14.00">previous</text>
</g>
<!-- http://purl.org/dj/kaggle/creating&#45;reading&#45;and&#45;writing#1021642221&#45;&gt;http://purl.org/dj/kaggle/creating&#45;reading&#45;and&#45;writing#132972973 -->
<g id="edge42" class="edge">
<title>http://purl.org/dj/kaggle/creating&#45;reading&#45;and&#45;writing#1021642221&#45;&gt;http://purl.org/dj/kaggle/creating&#45;reading&#45;and&#45;writing#132972973</title>
<path fill="none" stroke="black" d="M1895.01,-382.49C2018.4,-378.43 2189.39,-369.71 2338.65,-351 2373.25,-346.66 2380.98,-339.7 2415.65,-336 2804.63,-294.45 2905.69,-349.05 3295.65,-318 3306.95,-317.1 3318.79,-315.85 3330.48,-314.42"/>
<polygon fill="black" stroke="black" points="3331.2,-317.86 3340.68,-313.13 3330.32,-310.91 3331.2,-317.86"/>
<text text-anchor="middle" x="2439.15" y="-339.8" font-family="Times,serif" font-size="14.00">previous</text>
</g>
<!-- http://purl.org/dj/kaggle/creating&#45;reading&#45;and&#45;writing#1021838832 -->
<g id="node24" class="node">
<title>http://purl.org/dj/kaggle/creating&#45;reading&#45;and&#45;writing#1021838832</title>
<ellipse fill="none" stroke="black" cx="2466.65" cy="-474" rx="176.27" ry="18"/>
<text text-anchor="middle" x="2466.65" y="-470.3" font-family="Times,serif" font-size="14.00">1021838832 (wine_reviews(0)$3: Preparation)</text>
</g>
<!-- http://purl.org/dj/kaggle/creating&#45;reading&#45;and&#45;writing#1021838832&#45;&gt;http://purl.org/dj/kaggle/creating&#45;reading&#45;and&#45;writing#1021773295 -->
<g id="edge43" class="edge">
<title>http://purl.org/dj/kaggle/creating&#45;reading&#45;and&#45;writing#1021838832&#45;&gt;http://purl.org/dj/kaggle/creating&#45;reading&#45;and&#45;writing#1021773295</title>
<path fill="none" stroke="black" d="M2466.65,-455.8C2466.65,-444.16 2466.65,-428.55 2466.65,-415.24"/>
<polygon fill="black" stroke="black" points="2470.15,-415.18 2466.65,-405.18 2463.15,-415.18 2470.15,-415.18"/>
<text text-anchor="middle" x="2490.15" y="-426.8" font-family="Times,serif" font-size="14.00">previous</text>
</g>
<!-- http://purl.org/dj/kaggle/creating&#45;reading&#45;and&#45;writing#1021707758 -->
<g id="node25" class="node">
<title>http://purl.org/dj/kaggle/creating&#45;reading&#45;and&#45;writing#1021707758</title>
<ellipse fill="none" stroke="black" cx="1725.65" cy="-474" rx="176.27" ry="18"/>
<text text-anchor="middle" x="1725.65" y="-470.3" font-family="Times,serif" font-size="14.00">1021707758 (wine_reviews(0)$1: Preparation)</text>
</g>
<!-- http://purl.org/dj/kaggle/creating&#45;reading&#45;and&#45;writing#1021707758&#45;&gt;http://purl.org/dj/kaggle/creating&#45;reading&#45;and&#45;writing#1021642221 -->
<g id="edge44" class="edge">
<title>http://purl.org/dj/kaggle/creating&#45;reading&#45;and&#45;writing#1021707758&#45;&gt;http://purl.org/dj/kaggle/creating&#45;reading&#45;and&#45;writing#1021642221</title>
<path fill="none" stroke="black" d="M1725.65,-455.8C1725.65,-444.16 1725.65,-428.55 1725.65,-415.24"/>
<polygon fill="black" stroke="black" points="1729.15,-415.18 1725.65,-405.18 1722.15,-415.18 1729.15,-415.18"/>
<text text-anchor="middle" x="1749.15" y="-426.8" font-family="Times,serif" font-size="14.00">previous</text>
</g>
</g>
</svg>
