<?xml version="1.0" encoding="UTF-8" standalone="no"?>
<!DOCTYPE svg PUBLIC "-//W3C//DTD SVG 1.1//EN"
 "http://www.w3.org/Graphics/SVG/1.1/DTD/svg11.dtd">
<!-- Generated by graphviz version 2.47.1 (20210417.1919)
 -->
<!-- Pages: 1 -->
<svg width="4169pt" height="953pt"
 viewBox="0.00 0.00 4168.89 953.00" xmlns="http://www.w3.org/2000/svg" xmlns:xlink="http://www.w3.org/1999/xlink">
<g id="graph0" class="graph" transform="scale(1 1) rotate(0) translate(4 949)">
<polygon fill="white" stroke="transparent" points="-4,4 -4,-949 4164.89,-949 4164.89,4 -4,4"/>
<!-- http://purl.org/dj/kaggle/creating&#45;reading&#45;and&#45;writing#1021642221 -->
<g id="node1" class="node">
<title>http://purl.org/dj/kaggle/creating&#45;reading&#45;and&#45;writing#1021642221</title>
<ellipse fill="none" stroke="black" cx="1011.89" cy="-840" rx="174.67" ry="18"/>
<text text-anchor="middle" x="1011.89" y="-836.3" font-family="Times,serif" font-size="14.00">1021642221 (wine_reviews(0)$0: Movement)</text>
</g>
<!-- http://purl.org/dj/kaggle/creating&#45;reading&#45;and&#45;writing#133038510 -->
<g id="node2" class="node">
<title>http://purl.org/dj/kaggle/creating&#45;reading&#45;and&#45;writing#133038510</title>
<ellipse fill="none" stroke="black" cx="1066.89" cy="-753" rx="112.38" ry="18"/>
<text text-anchor="middle" x="1066.89" y="-749.3" font-family="Times,serif" font-size="14.00">133038510 (pd(0)$4: Reuse)</text>
</g>
<!-- http://purl.org/dj/kaggle/creating&#45;reading&#45;and&#45;writing#1021642221&#45;&gt;http://purl.org/dj/kaggle/creating&#45;reading&#45;and&#45;writing#133038510 -->
<g id="edge1" class="edge">
<title>http://purl.org/dj/kaggle/creating&#45;reading&#45;and&#45;writing#1021642221&#45;&gt;http://purl.org/dj/kaggle/creating&#45;reading&#45;and&#45;writing#133038510</title>
<path fill="none" stroke="black" d="M1023.02,-821.8C1030.85,-809.7 1041.46,-793.3 1050.28,-779.67"/>
<polygon fill="black" stroke="black" points="1053.28,-781.47 1055.78,-771.18 1047.41,-777.67 1053.28,-781.47"/>
<text text-anchor="middle" x="1072.39" y="-792.8" font-family="Times,serif" font-size="14.00">read_csv ()</text>
</g>
<!-- http://purl.org/dj/kaggle/creating&#45;reading&#45;and&#45;writing#3018526890 -->
<g id="node3" class="node">
<title>http://purl.org/dj/kaggle/creating&#45;reading&#45;and&#45;writing#3018526890</title>
<ellipse fill="none" stroke="black" cx="624.89" cy="-753" rx="273.75" ry="18"/>
<text text-anchor="middle" x="624.89" y="-749.3" font-family="Times,serif" font-size="14.00">3018526890 (../input/wine&#45;reviews/winemag&#45;data&#45;130k&#45;v2.csv(0): Reuse)</text>
</g>
<!-- http://purl.org/dj/kaggle/creating&#45;reading&#45;and&#45;writing#1021642221&#45;&gt;http://purl.org/dj/kaggle/creating&#45;reading&#45;and&#45;writing#3018526890 -->
<g id="edge2" class="edge">
<title>http://purl.org/dj/kaggle/creating&#45;reading&#45;and&#45;writing#1021642221&#45;&gt;http://purl.org/dj/kaggle/creating&#45;reading&#45;and&#45;writing#3018526890</title>
<path fill="none" stroke="black" d="M960,-822.71C924.92,-812.1 877.43,-798.52 834.89,-789 805.16,-782.34 772.8,-776.35 742.59,-771.27"/>
<polygon fill="black" stroke="black" points="742.87,-767.77 732.44,-769.59 741.73,-774.68 742.87,-767.77"/>
<text text-anchor="middle" x="924.39" y="-792.8" font-family="Times,serif" font-size="14.00">read_csv ()</text>
</g>
<!-- http://purl.org/dj/kaggle/creating&#45;reading&#45;and&#45;writing#3245746410 -->
<g id="node4" class="node">
<title>http://purl.org/dj/kaggle/creating&#45;reading&#45;and&#45;writing#3245746410</title>
<ellipse fill="none" stroke="black" cx="3373.89" cy="-591" rx="570.8" ry="18"/>
<text text-anchor="middle" x="3373.89" y="-587.3" font-family="Times,serif" font-size="14.00">3245746410 ([&lt;_ast.Constant object at 0x7fd5007f04c0&gt;, &lt;_ast.Constant object at 0x7fd5007f0580&gt;, &lt;_ast.Constant object at 0x7fd5007f0c10&gt;](0): Reuse)</text>
</g>
<!-- http://purl.org/dj/kaggle/creating&#45;reading&#45;and&#45;writing#133038510&#45;&gt;http://purl.org/dj/kaggle/creating&#45;reading&#45;and&#45;writing#3245746410 -->
<g id="edge3" class="edge">
<title>http://purl.org/dj/kaggle/creating&#45;reading&#45;and&#45;writing#133038510&#45;&gt;http://purl.org/dj/kaggle/creating&#45;reading&#45;and&#45;writing#3245746410</title>
<path fill="none" stroke="black" d="M1167.88,-745C1512.02,-721.13 2644.92,-642.56 3139.47,-608.26"/>
<polygon fill="black" stroke="black" points="3139.86,-611.74 3149.59,-607.56 3139.38,-604.76 3139.86,-611.74"/>
<text text-anchor="middle" x="2094.89" y="-695.3" font-family="Times,serif" font-size="14.00">Series ()</text>
</g>
<!-- http://purl.org/dj/kaggle/creating&#45;reading&#45;and&#45;writing#132972973 -->
<g id="node5" class="node">
<title>http://purl.org/dj/kaggle/creating&#45;reading&#45;and&#45;writing#132972973</title>
<ellipse fill="none" stroke="black" cx="1104.89" cy="-645" rx="112.38" ry="18"/>
<text text-anchor="middle" x="1104.89" y="-641.3" font-family="Times,serif" font-size="14.00">132972973 (pd(0)$3: Reuse)</text>
</g>
<!-- http://purl.org/dj/kaggle/creating&#45;reading&#45;and&#45;writing#133038510&#45;&gt;http://purl.org/dj/kaggle/creating&#45;reading&#45;and&#45;writing#132972973 -->
<g id="edge4" class="edge">
<title>http://purl.org/dj/kaggle/creating&#45;reading&#45;and&#45;writing#133038510&#45;&gt;http://purl.org/dj/kaggle/creating&#45;reading&#45;and&#45;writing#132972973</title>
<path fill="none" stroke="black" d="M1073,-734.97C1079.04,-718.12 1088.36,-692.1 1095.38,-672.54"/>
<polygon fill="black" stroke="black" points="1098.72,-673.58 1098.8,-662.99 1092.13,-671.22 1098.72,-673.58"/>
<text text-anchor="middle" x="1113.89" y="-695.3" font-family="Times,serif" font-size="14.00">Series ()</text>
</g>
<!-- http://purl.org/dj/kaggle/creating&#45;reading&#45;and&#45;writing -->
<g id="node6" class="node">
<title>http://purl.org/dj/kaggle/creating&#45;reading&#45;and&#45;writing</title>
<ellipse fill="none" stroke="black" cx="2447.89" cy="-18" rx="244.26" ry="18"/>
<text text-anchor="middle" x="2447.89" y="-14.3" font-family="Times,serif" font-size="14.00">creating&#45;reading&#45;and&#45;writing (creating&#45;reading&#45;and&#45;writing.ipynb)</text>
</g>
<!-- http://purl.org/dj/kaggle/creating&#45;reading&#45;and&#45;writing#3018526890&#45;&gt;http://purl.org/dj/kaggle/creating&#45;reading&#45;and&#45;writing -->
<g id="edge5" class="edge">
<title>http://purl.org/dj/kaggle/creating&#45;reading&#45;and&#45;writing#3018526890&#45;&gt;http://purl.org/dj/kaggle/creating&#45;reading&#45;and&#45;writing</title>
<path fill="none" stroke="black" d="M447.69,-739.25C332.98,-725.93 204.89,-699.16 204.89,-646 204.89,-646 204.89,-646 204.89,-104 204.89,-54.57 1614.73,-30.09 2198.94,-22.07"/>
<polygon fill="black" stroke="black" points="2199.23,-25.56 2209.18,-21.93 2199.13,-18.57 2199.23,-25.56"/>
<text text-anchor="middle" x="237.89" y="-371.3" font-family="Times,serif" font-size="14.00">appearsIn ()</text>
</g>
<!-- http://purl.org/dj/kaggle/creating&#45;reading&#45;and&#45;writing#3245746410&#45;&gt;http://purl.org/dj/kaggle/creating&#45;reading&#45;and&#45;writing -->
<g id="edge6" class="edge">
<title>http://purl.org/dj/kaggle/creating&#45;reading&#45;and&#45;writing#3245746410&#45;&gt;http://purl.org/dj/kaggle/creating&#45;reading&#45;and&#45;writing</title>
<path fill="none" stroke="black" d="M3640.57,-575.07C3845.91,-559.85 4094.89,-531.58 4094.89,-484 4094.89,-484 4094.89,-484 4094.89,-104 4094.89,-35.12 3164.06,-21.77 2701.95,-19.38"/>
<polygon fill="black" stroke="black" points="2701.82,-15.88 2691.8,-19.33 2701.78,-22.88 2701.82,-15.88"/>
<text text-anchor="middle" x="4127.89" y="-317.3" font-family="Times,serif" font-size="14.00">appearsIn ()</text>
</g>
<!-- http://purl.org/dj/kaggle/creating&#45;reading&#45;and&#45;writing#132907436 -->
<g id="node7" class="node">
<title>http://purl.org/dj/kaggle/creating&#45;reading&#45;and&#45;writing#132907436</title>
<ellipse fill="none" stroke="black" cx="2151.89" cy="-537" rx="131.88" ry="18"/>
<text text-anchor="middle" x="2151.89" y="-533.3" font-family="Times,serif" font-size="14.00">132907436 (pd(0)$2: Preparation)</text>
</g>
<!-- http://purl.org/dj/kaggle/creating&#45;reading&#45;and&#45;writing#132972973&#45;&gt;http://purl.org/dj/kaggle/creating&#45;reading&#45;and&#45;writing#132907436 -->
<g id="edge7" class="edge">
<title>http://purl.org/dj/kaggle/creating&#45;reading&#45;and&#45;writing#132972973&#45;&gt;http://purl.org/dj/kaggle/creating&#45;reading&#45;and&#45;writing#132907436</title>
<path fill="none" stroke="black" d="M1197.35,-634.64C1389.47,-615.19 1831.27,-570.46 2039.46,-549.38"/>
<polygon fill="black" stroke="black" points="2039.91,-552.86 2049.5,-548.37 2039.2,-545.89 2039.91,-552.86"/>
<text text-anchor="middle" x="1805.89" y="-587.3" font-family="Times,serif" font-size="14.00">Series ()</text>
</g>
<!-- http://purl.org/dj/kaggle/creating&#45;reading&#45;and&#45;writing#3394716544 -->
<g id="node8" class="node">
<title>http://purl.org/dj/kaggle/creating&#45;reading&#45;and&#45;writing#3394716544</title>
<ellipse fill="none" stroke="black" cx="1104.89" cy="-483" rx="884.64" ry="18"/>
<text text-anchor="middle" x="1104.89" y="-479.3" font-family="Times,serif" font-size="14.00">3394716544 ([&lt;_ast.Constant object at 0x7fd5007f0700&gt;, &lt;_ast.Constant object at 0x7fd5007f02e0&gt;, &lt;_ast.Constant object at 0x7fd5007f05b0&gt;, &lt;_ast.Constant object at 0x7fd5007f0400&gt;, &lt;_ast.Constant object at 0x7fd5007f0e80&gt;](0): Reuse)</text>
</g>
<!-- http://purl.org/dj/kaggle/creating&#45;reading&#45;and&#45;writing#132972973&#45;&gt;http://purl.org/dj/kaggle/creating&#45;reading&#45;and&#45;writing#3394716544 -->
<g id="edge8" class="edge">
<title>http://purl.org/dj/kaggle/creating&#45;reading&#45;and&#45;writing#132972973&#45;&gt;http://purl.org/dj/kaggle/creating&#45;reading&#45;and&#45;writing#3394716544</title>
<path fill="none" stroke="black" d="M1104.89,-626.88C1104.89,-599.35 1104.89,-545.01 1104.89,-511.85"/>
<polygon fill="black" stroke="black" points="1108.39,-511.48 1104.89,-501.48 1101.39,-511.48 1108.39,-511.48"/>
<text text-anchor="middle" x="1127.89" y="-587.3" font-family="Times,serif" font-size="14.00">Series ()</text>
</g>
<!-- http://purl.org/dj/kaggle/creating&#45;reading&#45;and&#45;writing#16849889 -->
<g id="node9" class="node">
<title>http://purl.org/dj/kaggle/creating&#45;reading&#45;and&#45;writing#16849889</title>
<ellipse fill="none" stroke="black" cx="1510.89" cy="-375" rx="404.03" ry="18"/>
<text text-anchor="middle" x="1510.89" y="-371.3" font-family="Times,serif" font-size="14.00">16849889 ([&lt;_ast.Constant object at 0x7fd5007f0c40&gt;, &lt;_ast.Constant object at 0x7fd5007f0ac0&gt;](0): Reuse)</text>
</g>
<!-- http://purl.org/dj/kaggle/creating&#45;reading&#45;and&#45;writing#132907436&#45;&gt;http://purl.org/dj/kaggle/creating&#45;reading&#45;and&#45;writing#16849889 -->
<g id="edge27" class="edge">
<title>http://purl.org/dj/kaggle/creating&#45;reading&#45;and&#45;writing#132907436&#45;&gt;http://purl.org/dj/kaggle/creating&#45;reading&#45;and&#45;writing#16849889</title>
<path fill="none" stroke="black" d="M2062.14,-523.68C2045.07,-518.54 2028.12,-511.27 2013.89,-501 1998.5,-489.89 2006.64,-475.61 1990.89,-465 1940.52,-431.07 1796.1,-407.23 1678.73,-392.83"/>
<polygon fill="black" stroke="black" points="1678.88,-389.32 1668.54,-391.59 1678.04,-396.27 1678.88,-389.32"/>
<text text-anchor="middle" x="2050.89" y="-479.3" font-family="Times,serif" font-size="14.00">DataFrame ()</text>
</g>
<!-- http://purl.org/dj/kaggle/creating&#45;reading&#45;and&#45;writing#11344823 -->
<g id="node20" class="node">
<title>http://purl.org/dj/kaggle/creating&#45;reading&#45;and&#45;writing#11344823</title>
<ellipse fill="none" stroke="black" cx="1447.89" cy="-267" rx="404.83" ry="18"/>
<text text-anchor="middle" x="1447.89" y="-263.3" font-family="Times,serif" font-size="14.00">11344823 ([&lt;_ast.Constant object at 0x7fd5007f09d0&gt;, &lt;_ast.Constant object at 0x7fd5007f0a30&gt;](0): Reuse)</text>
</g>
<!-- http://purl.org/dj/kaggle/creating&#45;reading&#45;and&#45;writing#132907436&#45;&gt;http://purl.org/dj/kaggle/creating&#45;reading&#45;and&#45;writing#11344823 -->
<g id="edge28" class="edge">
<title>http://purl.org/dj/kaggle/creating&#45;reading&#45;and&#45;writing#132907436&#45;&gt;http://purl.org/dj/kaggle/creating&#45;reading&#45;and&#45;writing#11344823</title>
<path fill="none" stroke="black" d="M2138.5,-518.8C2126.25,-503.68 2107.15,-481.55 2087.89,-465 2021.69,-408.13 2004.82,-389.66 1923.89,-357 1830.43,-319.28 1720.12,-297.37 1629.24,-284.74"/>
<polygon fill="black" stroke="black" points="1629.48,-281.24 1619.1,-283.35 1628.53,-288.17 1629.48,-281.24"/>
<text text-anchor="middle" x="2102.89" y="-425.3" font-family="Times,serif" font-size="14.00">DataFrame ()</text>
</g>
<!-- http://purl.org/dj/kaggle/creating&#45;reading&#45;and&#45;writing#105251221 -->
<g id="node21" class="node">
<title>http://purl.org/dj/kaggle/creating&#45;reading&#45;and&#45;writing#105251221</title>
<ellipse fill="none" stroke="black" cx="2441.89" cy="-321" rx="109.68" ry="18"/>
<text text-anchor="middle" x="2441.89" y="-317.3" font-family="Times,serif" font-size="14.00">105251221 (Bob(0): Reuse)</text>
</g>
<!-- http://purl.org/dj/kaggle/creating&#45;reading&#45;and&#45;writing#132907436&#45;&gt;http://purl.org/dj/kaggle/creating&#45;reading&#45;and&#45;writing#105251221 -->
<g id="edge29" class="edge">
<title>http://purl.org/dj/kaggle/creating&#45;reading&#45;and&#45;writing#132907436&#45;&gt;http://purl.org/dj/kaggle/creating&#45;reading&#45;and&#45;writing#105251221</title>
<path fill="none" stroke="black" d="M2174.65,-519.21C2226.32,-481.08 2352.54,-387.93 2411.11,-344.72"/>
<polygon fill="black" stroke="black" points="2413.27,-347.47 2419.24,-338.71 2409.12,-341.84 2413.27,-347.47"/>
<text text-anchor="middle" x="2357.89" y="-425.3" font-family="Times,serif" font-size="14.00">DataFrame ()</text>
</g>
<!-- http://purl.org/dj/kaggle/creating&#45;reading&#45;and&#45;writing#132841899 -->
<g id="node22" class="node">
<title>http://purl.org/dj/kaggle/creating&#45;reading&#45;and&#45;writing#132841899</title>
<ellipse fill="none" stroke="black" cx="2640.89" cy="-429" rx="131.88" ry="18"/>
<text text-anchor="middle" x="2640.89" y="-425.3" font-family="Times,serif" font-size="14.00">132841899 (pd(0)$1: Preparation)</text>
</g>
<!-- http://purl.org/dj/kaggle/creating&#45;reading&#45;and&#45;writing#132907436&#45;&gt;http://purl.org/dj/kaggle/creating&#45;reading&#45;and&#45;writing#132841899 -->
<g id="edge30" class="edge">
<title>http://purl.org/dj/kaggle/creating&#45;reading&#45;and&#45;writing#132907436&#45;&gt;http://purl.org/dj/kaggle/creating&#45;reading&#45;and&#45;writing#132841899</title>
<path fill="none" stroke="black" d="M2256.74,-526.03C2304.68,-520.42 2362,-512.25 2412.89,-501 2473.61,-487.58 2541.45,-465.51 2587.22,-449.53"/>
<polygon fill="black" stroke="black" points="2588.65,-452.74 2596.93,-446.12 2586.33,-446.14 2588.65,-452.74"/>
<text text-anchor="middle" x="2574.89" y="-479.3" font-family="Times,serif" font-size="14.00">DataFrame ()</text>
</g>
<!-- http://purl.org/dj/kaggle/creating&#45;reading&#45;and&#45;writing#114688431 -->
<g id="node23" class="node">
<title>http://purl.org/dj/kaggle/creating&#45;reading&#45;and&#45;writing#114688431</title>
<ellipse fill="none" stroke="black" cx="2205.89" cy="-321" rx="108.58" ry="18"/>
<text text-anchor="middle" x="2205.89" y="-317.3" font-family="Times,serif" font-size="14.00">114688431 (Sue(0): Reuse)</text>
</g>
<!-- http://purl.org/dj/kaggle/creating&#45;reading&#45;and&#45;writing#132907436&#45;&gt;http://purl.org/dj/kaggle/creating&#45;reading&#45;and&#45;writing#114688431 -->
<g id="edge31" class="edge">
<title>http://purl.org/dj/kaggle/creating&#45;reading&#45;and&#45;writing#132907436&#45;&gt;http://purl.org/dj/kaggle/creating&#45;reading&#45;and&#45;writing#114688431</title>
<path fill="none" stroke="black" d="M2156.22,-518.85C2165.58,-481.75 2187.77,-393.81 2199.05,-349.1"/>
<polygon fill="black" stroke="black" points="2202.49,-349.78 2201.54,-339.23 2195.7,-348.07 2202.49,-349.78"/>
<text text-anchor="middle" x="2219.89" y="-425.3" font-family="Times,serif" font-size="14.00">DataFrame ()</text>
</g>
<!-- http://purl.org/dj/kaggle/creating&#45;reading&#45;and&#45;writing#3394716544&#45;&gt;http://purl.org/dj/kaggle/creating&#45;reading&#45;and&#45;writing -->
<g id="edge40" class="edge">
<title>http://purl.org/dj/kaggle/creating&#45;reading&#45;and&#45;writing#3394716544&#45;&gt;http://purl.org/dj/kaggle/creating&#45;reading&#45;and&#45;writing</title>
<path fill="none" stroke="black" d="M1036.97,-464.92C994.14,-449.61 946.89,-422.24 946.89,-376 946.89,-376 946.89,-376 946.89,-104 946.89,-98.83 1061.02,-65.55 1144.89,-54 1340.12,-27.12 1872.84,-20.62 2193.45,-19.2"/>
<polygon fill="black" stroke="black" points="2193.83,-22.7 2203.82,-19.16 2193.8,-15.7 2193.83,-22.7"/>
<text text-anchor="middle" x="979.89" y="-263.3" font-family="Times,serif" font-size="14.00">appearsIn ()</text>
</g>
<!-- http://purl.org/dj/kaggle/creating&#45;reading&#45;and&#45;writing#16849889&#45;&gt;http://purl.org/dj/kaggle/creating&#45;reading&#45;and&#45;writing -->
<g id="edge9" class="edge">
<title>http://purl.org/dj/kaggle/creating&#45;reading&#45;and&#45;writing#16849889&#45;&gt;http://purl.org/dj/kaggle/creating&#45;reading&#45;and&#45;writing</title>
<path fill="none" stroke="black" d="M1257.72,-360.93C1140.98,-347.71 1027.89,-321.17 1027.89,-268 1027.89,-268 1027.89,-268 1027.89,-104 1027.89,-46.1 1790.09,-27.41 2197.65,-21.56"/>
<polygon fill="black" stroke="black" points="2197.86,-25.06 2207.81,-21.42 2197.76,-18.06 2197.86,-25.06"/>
<text text-anchor="middle" x="1060.89" y="-209.3" font-family="Times,serif" font-size="14.00">appearsIn ()</text>
</g>
<!-- http://purl.org/dj/kaggle/creating&#45;reading&#45;and&#45;writing#80085334 -->
<g id="node10" class="node">
<title>http://purl.org/dj/kaggle/creating&#45;reading&#45;and&#45;writing#80085334</title>
<ellipse fill="none" stroke="black" cx="2701.89" cy="-213" rx="99.38" ry="18"/>
<text text-anchor="middle" x="2701.89" y="-209.3" font-family="Times,serif" font-size="14.00">80085334 (pd(0): Reuse)</text>
</g>
<!-- http://purl.org/dj/kaggle/creating&#45;reading&#45;and&#45;writing#80085334&#45;&gt;http://purl.org/dj/kaggle/creating&#45;reading&#45;and&#45;writing -->
<g id="edge10" class="edge">
<title>http://purl.org/dj/kaggle/creating&#45;reading&#45;and&#45;writing#80085334&#45;&gt;http://purl.org/dj/kaggle/creating&#45;reading&#45;and&#45;writing</title>
<path fill="none" stroke="black" d="M2776.07,-200.85C2818.07,-193.79 2863.48,-184.6 2869.89,-177 2895.7,-146.43 2897.26,-117.94 2871.89,-87 2844.84,-54 2757.22,-36.92 2668.6,-28.12"/>
<polygon fill="black" stroke="black" points="2668.92,-24.63 2658.63,-27.16 2668.25,-31.6 2668.92,-24.63"/>
<text text-anchor="middle" x="2921.89" y="-101.3" font-family="Times,serif" font-size="14.00">appearsIn ()</text>
</g>
<!-- http://purl.org/dj/python/lib/144966264 -->
<g id="node11" class="node">
<title>http://purl.org/dj/python/lib/144966264</title>
<ellipse fill="none" stroke="black" cx="2753.89" cy="-105" rx="109.38" ry="18"/>
<text text-anchor="middle" x="2753.89" y="-101.3" font-family="Times,serif" font-size="14.00">144966264 (pandas: Reuse)</text>
</g>
<!-- http://purl.org/dj/kaggle/creating&#45;reading&#45;and&#45;writing#80085334&#45;&gt;http://purl.org/dj/python/lib/144966264 -->
<g id="edge11" class="edge">
<title>http://purl.org/dj/kaggle/creating&#45;reading&#45;and&#45;writing#80085334&#45;&gt;http://purl.org/dj/python/lib/144966264</title>
<path fill="none" stroke="black" d="M2749.71,-197.05C2758.53,-192.09 2766.61,-185.55 2771.89,-177 2780.2,-163.55 2776.2,-146.42 2769.88,-132.36"/>
<polygon fill="black" stroke="black" points="2772.88,-130.55 2765.26,-123.19 2766.63,-133.7 2772.88,-130.55"/>
<text text-anchor="middle" x="2820.89" y="-155.3" font-family="Times,serif" font-size="14.00">assignedFrom ()</text>
</g>
<!-- http://purl.org/dj/python/lib/144966264&#45;&gt;http://purl.org/dj/kaggle/creating&#45;reading&#45;and&#45;writing -->
<g id="edge12" class="edge">
<title>http://purl.org/dj/python/lib/144966264&#45;&gt;http://purl.org/dj/kaggle/creating&#45;reading&#45;and&#45;writing</title>
<path fill="none" stroke="black" d="M2701.04,-89.18C2665.4,-79.21 2617.33,-65.78 2574.89,-54 2556.4,-48.87 2536.38,-43.34 2517.83,-38.23"/>
<polygon fill="black" stroke="black" points="2518.56,-34.8 2507.98,-35.52 2516.7,-41.55 2518.56,-34.8"/>
<text text-anchor="middle" x="2663.39" y="-57.8" font-family="Times,serif" font-size="14.00">importedBy ()</text>
</g>
<!-- http://purl.org/dj/kaggle/creating&#45;reading&#45;and&#45;writing#132776362 -->
<g id="node12" class="node">
<title>http://purl.org/dj/kaggle/creating&#45;reading&#45;and&#45;writing#132776362</title>
<ellipse fill="none" stroke="black" cx="2701.89" cy="-321" rx="131.88" ry="18"/>
<text text-anchor="middle" x="2701.89" y="-317.3" font-family="Times,serif" font-size="14.00">132776362 (pd(0)$0: Preparation)</text>
</g>
<!-- http://purl.org/dj/kaggle/creating&#45;reading&#45;and&#45;writing#132776362&#45;&gt;http://purl.org/dj/kaggle/creating&#45;reading&#45;and&#45;writing#80085334 -->
<g id="edge13" class="edge">
<title>http://purl.org/dj/kaggle/creating&#45;reading&#45;and&#45;writing#132776362&#45;&gt;http://purl.org/dj/kaggle/creating&#45;reading&#45;and&#45;writing#80085334</title>
<path fill="none" stroke="black" d="M2701.89,-302.97C2701.89,-286.38 2701.89,-260.88 2701.89,-241.43"/>
<polygon fill="black" stroke="black" points="2705.39,-241.34 2701.89,-231.34 2698.39,-241.34 2705.39,-241.34"/>
<text text-anchor="middle" x="2738.89" y="-263.3" font-family="Times,serif" font-size="14.00">DataFrame ()</text>
</g>
<!-- http://purl.org/dj/kaggle/creating&#45;reading&#45;and&#45;writing#71827775 -->
<g id="node13" class="node">
<title>http://purl.org/dj/kaggle/creating&#45;reading&#45;and&#45;writing#71827775</title>
<ellipse fill="none" stroke="black" cx="2920.89" cy="-213" rx="101.28" ry="18"/>
<text text-anchor="middle" x="2920.89" y="-209.3" font-family="Times,serif" font-size="14.00">71827775 (No(0): Reuse)</text>
</g>
<!-- http://purl.org/dj/kaggle/creating&#45;reading&#45;and&#45;writing#132776362&#45;&gt;http://purl.org/dj/kaggle/creating&#45;reading&#45;and&#45;writing#71827775 -->
<g id="edge14" class="edge">
<title>http://purl.org/dj/kaggle/creating&#45;reading&#45;and&#45;writing#132776362&#45;&gt;http://purl.org/dj/kaggle/creating&#45;reading&#45;and&#45;writing#71827775</title>
<path fill="none" stroke="black" d="M2739.34,-303.6C2752.25,-297.84 2766.76,-291.25 2779.89,-285 2814.13,-268.71 2852.55,-249.29 2880.62,-234.88"/>
<polygon fill="black" stroke="black" points="2882.44,-237.88 2889.73,-230.2 2879.23,-231.66 2882.44,-237.88"/>
<text text-anchor="middle" x="2885.89" y="-263.3" font-family="Times,serif" font-size="14.00">DataFrame ()</text>
</g>
<!-- http://purl.org/dj/kaggle/creating&#45;reading&#45;and&#45;writing#115474867 -->
<g id="node14" class="node">
<title>http://purl.org/dj/kaggle/creating&#45;reading&#45;and&#45;writing#115474867</title>
<ellipse fill="none" stroke="black" cx="3047.89" cy="-159" rx="108.58" ry="18"/>
<text text-anchor="middle" x="3047.89" y="-155.3" font-family="Times,serif" font-size="14.00">115474867 (Yes(0): Reuse)</text>
</g>
<!-- http://purl.org/dj/kaggle/creating&#45;reading&#45;and&#45;writing#132776362&#45;&gt;http://purl.org/dj/kaggle/creating&#45;reading&#45;and&#45;writing#115474867 -->
<g id="edge15" class="edge">
<title>http://purl.org/dj/kaggle/creating&#45;reading&#45;and&#45;writing#132776362&#45;&gt;http://purl.org/dj/kaggle/creating&#45;reading&#45;and&#45;writing#115474867</title>
<path fill="none" stroke="black" d="M2809.44,-310.48C2847.2,-305.26 2889.51,-297.25 2926.89,-285 2976.38,-268.78 2998.82,-272.03 3030.89,-231 3040.53,-218.67 3044.83,-201.71 3046.69,-187.45"/>
<polygon fill="black" stroke="black" points="3050.2,-187.5 3047.69,-177.21 3043.24,-186.82 3050.2,-187.5"/>
<text text-anchor="middle" x="3049.89" y="-263.3" font-family="Times,serif" font-size="14.00">DataFrame ()</text>
</g>
<!-- http://purl.org/dj/kaggle/creating&#45;reading&#45;and&#45;writing#4117633879 -->
<g id="node15" class="node">
<title>http://purl.org/dj/kaggle/creating&#45;reading&#45;and&#45;writing#4117633879</title>
<ellipse fill="none" stroke="black" cx="2109.89" cy="-105" rx="414.83" ry="18"/>
<text text-anchor="middle" x="2109.89" y="-101.3" font-family="Times,serif" font-size="14.00">4117633879 ([&lt;_ast.Constant object at 0x7fd5007f0460&gt;, &lt;_ast.Constant object at 0x7fd5007f0430&gt;](0): Reuse)</text>
</g>
<!-- http://purl.org/dj/kaggle/creating&#45;reading&#45;and&#45;writing#132776362&#45;&gt;http://purl.org/dj/kaggle/creating&#45;reading&#45;and&#45;writing#4117633879 -->
<g id="edge16" class="edge">
<title>http://purl.org/dj/kaggle/creating&#45;reading&#45;and&#45;writing#132776362&#45;&gt;http://purl.org/dj/kaggle/creating&#45;reading&#45;and&#45;writing#4117633879</title>
<path fill="none" stroke="black" d="M2617.6,-307.08C2424.21,-277.04 1963.53,-203.09 1941.89,-177 1931.68,-164.68 1931.8,-153.41 1941.89,-141 1947.08,-134.61 1957.86,-129.35 1971.57,-125.03"/>
<polygon fill="black" stroke="black" points="1972.85,-128.31 1981.49,-122.19 1970.92,-121.58 1972.85,-128.31"/>
<text text-anchor="middle" x="2198.89" y="-209.3" font-family="Times,serif" font-size="14.00">DataFrame ()</text>
</g>
<!-- http://purl.org/dj/kaggle/creating&#45;reading&#45;and&#45;writing#4291763127 -->
<g id="node16" class="node">
<title>http://purl.org/dj/kaggle/creating&#45;reading&#45;and&#45;writing#4291763127</title>
<ellipse fill="none" stroke="black" cx="2356.89" cy="-159" rx="414.03" ry="18"/>
<text text-anchor="middle" x="2356.89" y="-155.3" font-family="Times,serif" font-size="14.00">4291763127 ([&lt;_ast.Constant object at 0x7fd5007f0e20&gt;, &lt;_ast.Constant object at 0x7fd5007f0b80&gt;](0): Reuse)</text>
</g>
<!-- http://purl.org/dj/kaggle/creating&#45;reading&#45;and&#45;writing#132776362&#45;&gt;http://purl.org/dj/kaggle/creating&#45;reading&#45;and&#45;writing#4291763127 -->
<g id="edge17" class="edge">
<title>http://purl.org/dj/kaggle/creating&#45;reading&#45;and&#45;writing#132776362&#45;&gt;http://purl.org/dj/kaggle/creating&#45;reading&#45;and&#45;writing#4291763127</title>
<path fill="none" stroke="black" d="M2664.94,-303.56C2651.94,-297.74 2637.25,-291.12 2623.89,-285 2545.54,-249.09 2454.75,-206.34 2401.77,-181.28"/>
<polygon fill="black" stroke="black" points="2403.19,-178.08 2392.65,-176.96 2400.19,-184.41 2403.19,-178.08"/>
<text text-anchor="middle" x="2660.89" y="-263.3" font-family="Times,serif" font-size="14.00">DataFrame ()</text>
</g>
<!-- http://purl.org/dj/kaggle/creating&#45;reading&#45;and&#45;writing#71827775&#45;&gt;http://purl.org/dj/kaggle/creating&#45;reading&#45;and&#45;writing -->
<g id="edge18" class="edge">
<title>http://purl.org/dj/kaggle/creating&#45;reading&#45;and&#45;writing#71827775&#45;&gt;http://purl.org/dj/kaggle/creating&#45;reading&#45;and&#45;writing</title>
<path fill="none" stroke="black" d="M2922.02,-194.8C2923.68,-179.68 2927.78,-157.55 2937.89,-141 2944.3,-130.51 2953.75,-134.17 2958.89,-123 2965.58,-108.46 2968.52,-99.78 2958.89,-87 2939.09,-60.72 2773.39,-42.19 2635.96,-31.18"/>
<polygon fill="black" stroke="black" points="2635.95,-27.67 2625.7,-30.37 2635.39,-34.65 2635.95,-27.67"/>
<text text-anchor="middle" x="2997.89" y="-101.3" font-family="Times,serif" font-size="14.00">appearsIn ()</text>
</g>
<!-- http://purl.org/dj/kaggle/creating&#45;reading&#45;and&#45;writing#115474867&#45;&gt;http://purl.org/dj/kaggle/creating&#45;reading&#45;and&#45;writing -->
<g id="edge19" class="edge">
<title>http://purl.org/dj/kaggle/creating&#45;reading&#45;and&#45;writing#115474867&#45;&gt;http://purl.org/dj/kaggle/creating&#45;reading&#45;and&#45;writing</title>
<path fill="none" stroke="black" d="M3062,-140.84C3065.62,-135.46 3069.02,-129.27 3070.89,-123 3075.48,-107.67 3078.83,-100.89 3070.89,-87 3056.56,-61.92 3042.52,-62.46 3014.89,-54 2955.84,-35.92 2818.88,-27.16 2694.36,-22.92"/>
<polygon fill="black" stroke="black" points="2694.38,-19.42 2684.27,-22.58 2694.15,-26.41 2694.38,-19.42"/>
<text text-anchor="middle" x="3107.89" y="-101.3" font-family="Times,serif" font-size="14.00">appearsIn ()</text>
</g>
<!-- http://purl.org/dj/kaggle/creating&#45;reading&#45;and&#45;writing#4117633879&#45;&gt;http://purl.org/dj/kaggle/creating&#45;reading&#45;and&#45;writing -->
<g id="edge20" class="edge">
<title>http://purl.org/dj/kaggle/creating&#45;reading&#45;and&#45;writing#4117633879&#45;&gt;http://purl.org/dj/kaggle/creating&#45;reading&#45;and&#45;writing</title>
<path fill="none" stroke="black" d="M2176.67,-87.21C2233.14,-73.01 2314,-52.67 2372.73,-37.9"/>
<polygon fill="black" stroke="black" points="2373.84,-41.23 2382.69,-35.4 2372.14,-34.44 2373.84,-41.23"/>
<text text-anchor="middle" x="2331.89" y="-57.8" font-family="Times,serif" font-size="14.00">appearsIn ()</text>
</g>
<!-- http://purl.org/dj/kaggle/creating&#45;reading&#45;and&#45;writing#4291763127&#45;&gt;http://purl.org/dj/kaggle/creating&#45;reading&#45;and&#45;writing -->
<g id="edge21" class="edge">
<title>http://purl.org/dj/kaggle/creating&#45;reading&#45;and&#45;writing#4291763127&#45;&gt;http://purl.org/dj/kaggle/creating&#45;reading&#45;and&#45;writing</title>
<path fill="none" stroke="black" d="M2493.82,-141.98C2512.39,-137.18 2527.33,-130.99 2533.89,-123 2557.1,-94.75 2520.06,-62.3 2487.59,-41.26"/>
<polygon fill="black" stroke="black" points="2489.38,-38.25 2479.05,-35.91 2485.66,-44.18 2489.38,-38.25"/>
<text text-anchor="middle" x="2573.89" y="-101.3" font-family="Times,serif" font-size="14.00">appearsIn ()</text>
</g>
<!-- http://purl.org/dj/kaggle/creating&#45;reading&#45;and&#45;writing#1021773295 -->
<g id="node17" class="node">
<title>http://purl.org/dj/kaggle/creating&#45;reading&#45;and&#45;writing#1021773295</title>
<ellipse fill="none" stroke="black" cx="624.89" cy="-840" rx="174.67" ry="18"/>
<text text-anchor="middle" x="624.89" y="-836.3" font-family="Times,serif" font-size="14.00">1021773295 (wine_reviews(0)$2: Movement)</text>
</g>
<!-- http://purl.org/dj/kaggle/creating&#45;reading&#45;and&#45;writing#1021773295&#45;&gt;http://purl.org/dj/kaggle/creating&#45;reading&#45;and&#45;writing#133038510 -->
<g id="edge22" class="edge">
<title>http://purl.org/dj/kaggle/creating&#45;reading&#45;and&#45;writing#1021773295&#45;&gt;http://purl.org/dj/kaggle/creating&#45;reading&#45;and&#45;writing#133038510</title>
<path fill="none" stroke="black" d="M665.46,-822.38C694.16,-811.28 733.81,-797.25 769.89,-789 788.88,-784.66 887.68,-773.38 966.19,-764.79"/>
<polygon fill="black" stroke="black" points="966.58,-768.27 976.14,-763.7 965.82,-761.31 966.58,-768.27"/>
<text text-anchor="middle" x="800.39" y="-792.8" font-family="Times,serif" font-size="14.00">read_csv ()</text>
</g>
<!-- http://purl.org/dj/kaggle/creating&#45;reading&#45;and&#45;writing#1021773295&#45;&gt;http://purl.org/dj/kaggle/creating&#45;reading&#45;and&#45;writing#3018526890 -->
<g id="edge23" class="edge">
<title>http://purl.org/dj/kaggle/creating&#45;reading&#45;and&#45;writing#1021773295&#45;&gt;http://purl.org/dj/kaggle/creating&#45;reading&#45;and&#45;writing#3018526890</title>
<path fill="none" stroke="black" d="M624.89,-821.8C624.89,-810.16 624.89,-794.55 624.89,-781.24"/>
<polygon fill="black" stroke="black" points="628.39,-781.18 624.89,-771.18 621.39,-781.18 628.39,-781.18"/>
<text text-anchor="middle" x="655.39" y="-792.8" font-family="Times,serif" font-size="14.00">read_csv ()</text>
</g>
<!-- http://purl.org/dj/kaggle/creating&#45;reading&#45;and&#45;writing#29687986 -->
<g id="node18" class="node">
<title>http://purl.org/dj/kaggle/creating&#45;reading&#45;and&#45;writing#29687986</title>
<ellipse fill="none" stroke="black" cx="94.89" cy="-699" rx="94.78" ry="18"/>
<text text-anchor="middle" x="94.89" y="-695.3" font-family="Times,serif" font-size="14.00">29687986 (0(0): Reuse)</text>
</g>
<!-- http://purl.org/dj/kaggle/creating&#45;reading&#45;and&#45;writing#1021773295&#45;&gt;http://purl.org/dj/kaggle/creating&#45;reading&#45;and&#45;writing#29687986 -->
<g id="edge24" class="edge">
<title>http://purl.org/dj/kaggle/creating&#45;reading&#45;and&#45;writing#1021773295&#45;&gt;http://purl.org/dj/kaggle/creating&#45;reading&#45;and&#45;writing#29687986</title>
<path fill="none" stroke="black" d="M556.34,-823.42C498.9,-810.15 414.81,-790.23 341.89,-771 276.97,-753.88 203.04,-732.36 153.11,-717.52"/>
<polygon fill="black" stroke="black" points="154.04,-714.14 143.46,-714.65 152.04,-720.85 154.04,-714.14"/>
<text text-anchor="middle" x="500.39" y="-792.8" font-family="Times,serif" font-size="14.00">read_csv ()</text>
</g>
<!-- http://purl.org/dj/kaggle/creating&#45;reading&#45;and&#45;writing#29687986&#45;&gt;http://purl.org/dj/kaggle/creating&#45;reading&#45;and&#45;writing -->
<g id="edge25" class="edge">
<title>http://purl.org/dj/kaggle/creating&#45;reading&#45;and&#45;writing#29687986&#45;&gt;http://purl.org/dj/kaggle/creating&#45;reading&#45;and&#45;writing</title>
<path fill="none" stroke="black" d="M97.78,-680.8C101.04,-659.88 105.89,-623.45 105.89,-592 105.89,-592 105.89,-592 105.89,-104 105.89,-60.17 148.69,-65.84 190.89,-54 285.71,-27.39 1623.62,-20.99 2193.64,-19.47"/>
<polygon fill="black" stroke="black" points="2194.07,-22.97 2204.06,-19.44 2194.05,-15.97 2194.07,-22.97"/>
<text text-anchor="middle" x="138.89" y="-371.3" font-family="Times,serif" font-size="14.00">appearsIn ()</text>
</g>
<!-- http://purl.org/dj/kaggle/creating&#45;reading&#45;and&#45;writing#4141226890 -->
<g id="node19" class="node">
<title>http://purl.org/dj/kaggle/creating&#45;reading&#45;and&#45;writing#4141226890</title>
<ellipse fill="none" stroke="black" cx="3575.89" cy="-159" rx="414.83" ry="18"/>
<text text-anchor="middle" x="3575.89" y="-155.3" font-family="Times,serif" font-size="14.00">4141226890 ([&lt;_ast.Constant object at 0x7fd5007f0550&gt;, &lt;_ast.Constant object at 0x7fd5007f06d0&gt;](0): Reuse)</text>
</g>
<!-- http://purl.org/dj/kaggle/creating&#45;reading&#45;and&#45;writing#4141226890&#45;&gt;http://purl.org/dj/kaggle/creating&#45;reading&#45;and&#45;writing -->
<g id="edge26" class="edge">
<title>http://purl.org/dj/kaggle/creating&#45;reading&#45;and&#45;writing#4141226890&#45;&gt;http://purl.org/dj/kaggle/creating&#45;reading&#45;and&#45;writing</title>
<path fill="none" stroke="black" d="M3506.9,-141.25C3406.7,-117.63 3214.72,-75.09 3048.89,-54 2929.12,-38.77 2795.08,-30.16 2684.02,-25.29"/>
<polygon fill="black" stroke="black" points="2684.17,-21.79 2674.03,-24.86 2683.87,-28.79 2684.17,-21.79"/>
<text text-anchor="middle" x="3458.89" y="-101.3" font-family="Times,serif" font-size="14.00">appearsIn ()</text>
</g>
<!-- http://purl.org/dj/kaggle/creating&#45;reading&#45;and&#45;writing#11344823&#45;&gt;http://purl.org/dj/kaggle/creating&#45;reading&#45;and&#45;writing -->
<g id="edge32" class="edge">
<title>http://purl.org/dj/kaggle/creating&#45;reading&#45;and&#45;writing#11344823&#45;&gt;http://purl.org/dj/kaggle/creating&#45;reading&#45;and&#45;writing</title>
<path fill="none" stroke="black" d="M1455.23,-248.7C1474.27,-206.3 1529.8,-97.52 1614.89,-54 1665.5,-28.11 1967.71,-20.82 2193.65,-19.04"/>
<polygon fill="black" stroke="black" points="2193.7,-22.54 2203.67,-18.97 2193.65,-15.54 2193.7,-22.54"/>
<text text-anchor="middle" x="1549.89" y="-155.3" font-family="Times,serif" font-size="14.00">appearsIn ()</text>
</g>
<!-- http://purl.org/dj/kaggle/creating&#45;reading&#45;and&#45;writing#105251221&#45;&gt;http://purl.org/dj/kaggle/creating&#45;reading&#45;and&#45;writing -->
<g id="edge33" class="edge">
<title>http://purl.org/dj/kaggle/creating&#45;reading&#45;and&#45;writing#105251221&#45;&gt;http://purl.org/dj/kaggle/creating&#45;reading&#45;and&#45;writing</title>
<path fill="none" stroke="black" d="M2369.08,-307.49C2259.88,-288.42 2059.03,-252.08 1988.89,-231 1888.11,-200.71 1870.41,-172.15 1769.89,-141 1733.42,-129.7 1709.9,-152.69 1685.89,-123 1675.83,-110.56 1675.09,-98.81 1685.89,-87 1720.95,-48.67 1997.71,-31.79 2207.68,-24.46"/>
<polygon fill="black" stroke="black" points="2208.07,-27.95 2217.94,-24.11 2207.83,-20.96 2208.07,-27.95"/>
<text text-anchor="middle" x="1892.89" y="-155.3" font-family="Times,serif" font-size="14.00">appearsIn ()</text>
</g>
<!-- http://purl.org/dj/kaggle/creating&#45;reading&#45;and&#45;writing#132841899&#45;&gt;http://purl.org/dj/kaggle/creating&#45;reading&#45;and&#45;writing#132776362 -->
<g id="edge34" class="edge">
<title>http://purl.org/dj/kaggle/creating&#45;reading&#45;and&#45;writing#132841899&#45;&gt;http://purl.org/dj/kaggle/creating&#45;reading&#45;and&#45;writing#132776362</title>
<path fill="none" stroke="black" d="M2650.69,-410.97C2660.52,-393.89 2675.77,-367.38 2687.08,-347.74"/>
<polygon fill="black" stroke="black" points="2690.16,-349.4 2692.12,-338.99 2684.09,-345.91 2690.16,-349.4"/>
<text text-anchor="middle" x="2716.89" y="-371.3" font-family="Times,serif" font-size="14.00">DataFrame ()</text>
</g>
<!-- http://purl.org/dj/kaggle/creating&#45;reading&#45;and&#45;writing#132841899&#45;&gt;http://purl.org/dj/kaggle/creating&#45;reading&#45;and&#45;writing#4141226890 -->
<g id="edge35" class="edge">
<title>http://purl.org/dj/kaggle/creating&#45;reading&#45;and&#45;writing#132841899&#45;&gt;http://purl.org/dj/kaggle/creating&#45;reading&#45;and&#45;writing#4141226890</title>
<path fill="none" stroke="black" d="M2693.35,-412.47C2713.55,-406.45 2736.81,-399.46 2757.89,-393 2962.31,-330.36 3011.04,-306.75 3216.89,-249 3310.78,-222.66 3419.6,-196.25 3492.61,-179.13"/>
<polygon fill="black" stroke="black" points="3493.73,-182.46 3502.67,-176.77 3492.13,-175.64 3493.73,-182.46"/>
<text text-anchor="middle" x="3072.89" y="-317.3" font-family="Times,serif" font-size="14.00">DataFrame ()</text>
</g>
<!-- http://purl.org/dj/kaggle/creating&#45;reading&#45;and&#45;writing#132841899&#45;&gt;http://purl.org/dj/kaggle/creating&#45;reading&#45;and&#45;writing#105251221 -->
<g id="edge36" class="edge">
<title>http://purl.org/dj/kaggle/creating&#45;reading&#45;and&#45;writing#132841899&#45;&gt;http://purl.org/dj/kaggle/creating&#45;reading&#45;and&#45;writing#105251221</title>
<path fill="none" stroke="black" d="M2612.44,-411.24C2603.22,-405.62 2593.01,-399.2 2583.89,-393 2561.84,-378.01 2559.29,-369.78 2535.89,-357 2524.8,-350.94 2512.44,-345.5 2500.42,-340.82"/>
<polygon fill="black" stroke="black" points="2501.48,-337.48 2490.89,-337.23 2499.01,-344.03 2501.48,-337.48"/>
<text text-anchor="middle" x="2620.89" y="-371.3" font-family="Times,serif" font-size="14.00">DataFrame ()</text>
</g>
<!-- http://purl.org/dj/kaggle/creating&#45;reading&#45;and&#45;writing#132841899&#45;&gt;http://purl.org/dj/kaggle/creating&#45;reading&#45;and&#45;writing#114688431 -->
<g id="edge37" class="edge">
<title>http://purl.org/dj/kaggle/creating&#45;reading&#45;and&#45;writing#132841899&#45;&gt;http://purl.org/dj/kaggle/creating&#45;reading&#45;and&#45;writing#114688431</title>
<path fill="none" stroke="black" d="M2562.21,-414.48C2529.77,-408.51 2491.89,-401.03 2457.89,-393 2391.12,-377.24 2315.48,-355.38 2264.65,-340.1"/>
<polygon fill="black" stroke="black" points="2265.41,-336.67 2254.82,-337.13 2263.38,-343.37 2265.41,-336.67"/>
<text text-anchor="middle" x="2494.89" y="-371.3" font-family="Times,serif" font-size="14.00">DataFrame ()</text>
</g>
<!-- http://purl.org/dj/kaggle/creating&#45;reading&#45;and&#45;writing#4120451933 -->
<g id="node24" class="node">
<title>http://purl.org/dj/kaggle/creating&#45;reading&#45;and&#45;writing#4120451933</title>
<ellipse fill="none" stroke="black" cx="3640.89" cy="-267" rx="414.83" ry="18"/>
<text text-anchor="middle" x="3640.89" y="-263.3" font-family="Times,serif" font-size="14.00">4120451933 ([&lt;_ast.Constant object at 0x7fd5007f0370&gt;, &lt;_ast.Constant object at 0x7fd5007f0670&gt;](0): Reuse)</text>
</g>
<!-- http://purl.org/dj/kaggle/creating&#45;reading&#45;and&#45;writing#132841899&#45;&gt;http://purl.org/dj/kaggle/creating&#45;reading&#45;and&#45;writing#4120451933 -->
<g id="edge38" class="edge">
<title>http://purl.org/dj/kaggle/creating&#45;reading&#45;and&#45;writing#132841899&#45;&gt;http://purl.org/dj/kaggle/creating&#45;reading&#45;and&#45;writing#4120451933</title>
<path fill="none" stroke="black" d="M2771.71,-426.63C2880.54,-423.77 3039.18,-415.62 3175.89,-393 3324.2,-368.46 3493.59,-316.72 3581.27,-288.1"/>
<polygon fill="black" stroke="black" points="3582.62,-291.34 3591.03,-284.9 3580.44,-284.69 3582.62,-291.34"/>
<text text-anchor="middle" x="3378.89" y="-371.3" font-family="Times,serif" font-size="14.00">DataFrame ()</text>
</g>
<!-- http://purl.org/dj/kaggle/creating&#45;reading&#45;and&#45;writing#114688431&#45;&gt;http://purl.org/dj/kaggle/creating&#45;reading&#45;and&#45;writing -->
<g id="edge39" class="edge">
<title>http://purl.org/dj/kaggle/creating&#45;reading&#45;and&#45;writing#114688431&#45;&gt;http://purl.org/dj/kaggle/creating&#45;reading&#45;and&#45;writing</title>
<path fill="none" stroke="black" d="M2145.03,-306.08C2119.03,-299.93 2088.39,-292.43 2060.89,-285 1874.37,-234.63 1584.79,-258.43 1673.89,-87 1685.66,-64.35 1696.75,-62.27 1720.89,-54 1766.16,-38.49 2012.44,-29.08 2205.97,-23.98"/>
<polygon fill="black" stroke="black" points="2206.11,-27.48 2216.02,-23.72 2205.93,-20.48 2206.11,-27.48"/>
<text text-anchor="middle" x="1697.89" y="-155.3" font-family="Times,serif" font-size="14.00">appearsIn ()</text>
</g>
<!-- http://purl.org/dj/kaggle/creating&#45;reading&#45;and&#45;writing#4120451933&#45;&gt;http://purl.org/dj/kaggle/creating&#45;reading&#45;and&#45;writing -->
<g id="edge43" class="edge">
<title>http://purl.org/dj/kaggle/creating&#45;reading&#45;and&#45;writing#4120451933&#45;&gt;http://purl.org/dj/kaggle/creating&#45;reading&#45;and&#45;writing</title>
<path fill="none" stroke="black" d="M3847.1,-251.34C3953.08,-236.04 4049.12,-204.8 3991.89,-141 3907.63,-47.06 3116.69,-25.29 2700.8,-20.36"/>
<polygon fill="black" stroke="black" points="2700.78,-16.86 2690.74,-20.24 2700.7,-23.86 2700.78,-16.86"/>
<text text-anchor="middle" x="4041.89" y="-155.3" font-family="Times,serif" font-size="14.00">appearsIn ()</text>
</g>
<!-- http://purl.org/dj/kaggle/creating&#45;reading&#45;and&#45;writing#1021838832 -->
<g id="node25" class="node">
<title>http://purl.org/dj/kaggle/creating&#45;reading&#45;and&#45;writing#1021838832</title>
<ellipse fill="none" stroke="black" cx="624.89" cy="-927" rx="176.27" ry="18"/>
<text text-anchor="middle" x="624.89" y="-923.3" font-family="Times,serif" font-size="14.00">1021838832 (wine_reviews(0)$3: Preparation)</text>
</g>
<!-- http://purl.org/dj/kaggle/creating&#45;reading&#45;and&#45;writing#1021838832&#45;&gt;http://purl.org/dj/kaggle/creating&#45;reading&#45;and&#45;writing#1021773295 -->
<g id="edge41" class="edge">
<title>http://purl.org/dj/kaggle/creating&#45;reading&#45;and&#45;writing#1021838832&#45;&gt;http://purl.org/dj/kaggle/creating&#45;reading&#45;and&#45;writing#1021773295</title>
<path fill="none" stroke="black" d="M624.89,-908.8C624.89,-897.16 624.89,-881.55 624.89,-868.24"/>
<polygon fill="black" stroke="black" points="628.39,-868.18 624.89,-858.18 621.39,-868.18 628.39,-868.18"/>
<text text-anchor="middle" x="644.39" y="-879.8" font-family="Times,serif" font-size="14.00">head ()</text>
</g>
<!-- http://purl.org/dj/kaggle/creating&#45;reading&#45;and&#45;writing#1021707758 -->
<g id="node26" class="node">
<title>http://purl.org/dj/kaggle/creating&#45;reading&#45;and&#45;writing#1021707758</title>
<ellipse fill="none" stroke="black" cx="1011.89" cy="-927" rx="176.27" ry="18"/>
<text text-anchor="middle" x="1011.89" y="-923.3" font-family="Times,serif" font-size="14.00">1021707758 (wine_reviews(0)$1: Preparation)</text>
</g>
<!-- http://purl.org/dj/kaggle/creating&#45;reading&#45;and&#45;writing#1021707758&#45;&gt;http://purl.org/dj/kaggle/creating&#45;reading&#45;and&#45;writing#1021642221 -->
<g id="edge42" class="edge">
<title>http://purl.org/dj/kaggle/creating&#45;reading&#45;and&#45;writing#1021707758&#45;&gt;http://purl.org/dj/kaggle/creating&#45;reading&#45;and&#45;writing#1021642221</title>
<path fill="none" stroke="black" d="M1011.89,-908.8C1011.89,-897.16 1011.89,-881.55 1011.89,-868.24"/>
<polygon fill="black" stroke="black" points="1015.39,-868.18 1011.89,-858.18 1008.39,-868.18 1015.39,-868.18"/>
<text text-anchor="middle" x="1031.39" y="-879.8" font-family="Times,serif" font-size="14.00">head ()</text>
</g>
</g>
</svg>
