<?xml version="1.0" encoding="UTF-8" standalone="no"?>
<!DOCTYPE svg PUBLIC "-//W3C//DTD SVG 1.1//EN"
 "http://www.w3.org/Graphics/SVG/1.1/DTD/svg11.dtd">
<!-- Generated by graphviz version 2.47.1 (20210417.1919)
 -->
<!-- Pages: 1 -->
<svg width="3061pt" height="500pt"
 viewBox="0.00 0.00 3060.84 500.00" xmlns="http://www.w3.org/2000/svg" xmlns:xlink="http://www.w3.org/1999/xlink">
<g id="graph0" class="graph" transform="scale(1 1) rotate(0) translate(4 496)">
<polygon fill="white" stroke="transparent" points="-4,4 -4,-496 3056.84,-496 3056.84,4 -4,4"/>
<!-- http://purl.org/dj/kaggle/dangerous&#45;bites/activity/&#45;5638578101280827349 -->
<g id="node1" class="node">
<title>http://purl.org/dj/kaggle/dangerous&#45;bites/activity/&#45;5638578101280827349</title>
<ellipse fill="none" stroke="black" cx="1146.84" cy="-192" rx="151.37" ry="18"/>
<text text-anchor="middle" x="1146.84" y="-188.3" font-family="Times,serif" font-size="14.00">&#45;5638578101280827349 (Visualisation)</text>
</g>
<!-- http://purl.org/dj/kaggle/dangerous&#45;bites/activity/&#45;3360235303498298774 -->
<g id="node2" class="node">
<title>http://purl.org/dj/kaggle/dangerous&#45;bites/activity/&#45;3360235303498298774</title>
<ellipse fill="none" stroke="black" cx="1431.84" cy="-105" rx="126.98" ry="18"/>
<text text-anchor="middle" x="1431.84" y="-101.3" font-family="Times,serif" font-size="14.00">&#45;3360235303498298774 (Reuse)</text>
</g>
<!-- http://purl.org/dj/kaggle/dangerous&#45;bites/activity/&#45;5638578101280827349&#45;&gt;http://purl.org/dj/kaggle/dangerous&#45;bites/activity/&#45;3360235303498298774 -->
<g id="edge1" class="edge">
<title>http://purl.org/dj/kaggle/dangerous&#45;bites/activity/&#45;5638578101280827349&#45;&gt;http://purl.org/dj/kaggle/dangerous&#45;bites/activity/&#45;3360235303498298774</title>
<path fill="none" stroke="black" d="M1183.77,-174.52C1208.59,-163.9 1242.23,-150.37 1272.84,-141 1296.95,-133.62 1323.56,-127.13 1348.01,-121.81"/>
<polygon fill="black" stroke="black" points="1348.93,-125.19 1357.97,-119.68 1347.46,-118.34 1348.93,-125.19"/>
<text text-anchor="middle" x="1296.34" y="-144.8" font-family="Times,serif" font-size="14.00">previous</text>
</g>
<!-- http://purl.org/dj/kaggle/dangerous&#45;bites -->
<g id="node3" class="node">
<title>http://purl.org/dj/kaggle/dangerous&#45;bites</title>
<ellipse fill="none" stroke="black" cx="1431.84" cy="-18" rx="152.97" ry="18"/>
<text text-anchor="middle" x="1431.84" y="-14.3" font-family="Times,serif" font-size="14.00">dangerous&#45;bites (dangerous&#45;bites.ipynb)</text>
</g>
<!-- http://purl.org/dj/kaggle/dangerous&#45;bites/activity/&#45;3360235303498298774&#45;&gt;http://purl.org/dj/kaggle/dangerous&#45;bites -->
<g id="edge2" class="edge">
<title>http://purl.org/dj/kaggle/dangerous&#45;bites/activity/&#45;3360235303498298774&#45;&gt;http://purl.org/dj/kaggle/dangerous&#45;bites</title>
<path fill="none" stroke="black" d="M1431.84,-86.8C1431.84,-75.16 1431.84,-59.55 1431.84,-46.24"/>
<polygon fill="black" stroke="black" points="1435.34,-46.18 1431.84,-36.18 1428.34,-46.18 1435.34,-46.18"/>
<text text-anchor="middle" x="1455.34" y="-57.8" font-family="Times,serif" font-size="14.00">previous</text>
</g>
<!-- http://purl.org/dj/kaggle/dangerous&#45;bites/activity/7137837480318814839 -->
<g id="node4" class="node">
<title>http://purl.org/dj/kaggle/dangerous&#45;bites/activity/7137837480318814839</title>
<ellipse fill="none" stroke="black" cx="1691.84" cy="-387" rx="141.88" ry="18"/>
<text text-anchor="middle" x="1691.84" y="-383.3" font-family="Times,serif" font-size="14.00">7137837480318814839 (Movement)</text>
</g>
<!-- http://purl.org/dj/kaggle/dangerous&#45;bites/activity/7137837480318814839&#45;&gt;http://purl.org/dj/kaggle/dangerous&#45;bites/activity/&#45;3360235303498298774 -->
<g id="edge3" class="edge">
<title>http://purl.org/dj/kaggle/dangerous&#45;bites/activity/7137837480318814839&#45;&gt;http://purl.org/dj/kaggle/dangerous&#45;bites/activity/&#45;3360235303498298774</title>
<path fill="none" stroke="black" d="M1691.91,-368.92C1691.7,-332.25 1689.09,-247.72 1669.84,-228 1635.23,-192.56 1605.02,-230.3 1559.84,-210 1517.89,-191.15 1478.19,-155.02 1454.43,-130.7"/>
<polygon fill="black" stroke="black" points="1456.74,-128.06 1447.3,-123.26 1451.69,-132.9 1456.74,-128.06"/>
<text text-anchor="middle" x="1707.34" y="-242.3" font-family="Times,serif" font-size="14.00">previous</text>
</g>
<!-- http://purl.org/dj/kaggle/dangerous&#45;bites/activity/227645166779919383 -->
<g id="node5" class="node">
<title>http://purl.org/dj/kaggle/dangerous&#45;bites/activity/227645166779919383</title>
<ellipse fill="none" stroke="black" cx="1881.84" cy="-246" rx="138.38" ry="18"/>
<text text-anchor="middle" x="1881.84" y="-242.3" font-family="Times,serif" font-size="14.00">227645166779919383 (Preparation)</text>
</g>
<!-- http://purl.org/dj/kaggle/dangerous&#45;bites/activity/7137837480318814839&#45;&gt;http://purl.org/dj/kaggle/dangerous&#45;bites/activity/227645166779919383 -->
<g id="edge4" class="edge">
<title>http://purl.org/dj/kaggle/dangerous&#45;bites/activity/7137837480318814839&#45;&gt;http://purl.org/dj/kaggle/dangerous&#45;bites/activity/227645166779919383</title>
<path fill="none" stroke="black" d="M1825.37,-380.88C1926.23,-373.88 2052.75,-357.29 2085.84,-318 2115.52,-282.76 2069.71,-264.99 2014.04,-256.04"/>
<polygon fill="black" stroke="black" points="2014.33,-252.54 2003.92,-254.52 2013.29,-259.47 2014.33,-252.54"/>
<text text-anchor="middle" x="2084.34" y="-339.8" font-family="Times,serif" font-size="14.00">previous</text>
</g>
<!-- http://purl.org/dj/kaggle/dangerous&#45;bites/activity/&#45;113236999554563878 -->
<g id="node6" class="node">
<title>http://purl.org/dj/kaggle/dangerous&#45;bites/activity/&#45;113236999554563878</title>
<ellipse fill="none" stroke="black" cx="925.84" cy="-300" rx="141.88" ry="18"/>
<text text-anchor="middle" x="925.84" y="-296.3" font-family="Times,serif" font-size="14.00">&#45;113236999554563878 (Preparation)</text>
</g>
<!-- http://purl.org/dj/kaggle/dangerous&#45;bites/activity/7137837480318814839&#45;&gt;http://purl.org/dj/kaggle/dangerous&#45;bites/activity/&#45;113236999554563878 -->
<g id="edge5" class="edge">
<title>http://purl.org/dj/kaggle/dangerous&#45;bites/activity/7137837480318814839&#45;&gt;http://purl.org/dj/kaggle/dangerous&#45;bites/activity/&#45;113236999554563878</title>
<path fill="none" stroke="black" d="M1580.77,-375.77C1554.56,-373.46 1526.72,-371.07 1500.84,-369 1388.02,-359.98 1359.29,-363.72 1246.84,-351 1235.56,-349.72 1111.56,-330.29 1021.04,-316.03"/>
<polygon fill="black" stroke="black" points="1021.43,-312.55 1011.01,-314.45 1020.34,-319.46 1021.43,-312.55"/>
<text text-anchor="middle" x="1270.34" y="-339.8" font-family="Times,serif" font-size="14.00">previous</text>
</g>
<!-- http://purl.org/dj/kaggle/dangerous&#45;bites/activity/227645166779919383&#45;&gt;http://purl.org/dj/kaggle/dangerous&#45;bites/activity/&#45;3360235303498298774 -->
<g id="edge6" class="edge">
<title>http://purl.org/dj/kaggle/dangerous&#45;bites/activity/227645166779919383&#45;&gt;http://purl.org/dj/kaggle/dangerous&#45;bites/activity/&#45;3360235303498298774</title>
<path fill="none" stroke="black" d="M1784.07,-233.25C1769.25,-231.48 1754.14,-229.69 1739.84,-228 1705.4,-223.94 1613.93,-228.86 1584.84,-210 1554.9,-190.6 1571.82,-163.12 1543.84,-141 1534.66,-133.75 1523.96,-127.99 1512.89,-123.41"/>
<polygon fill="black" stroke="black" points="1514.12,-120.14 1503.53,-119.85 1511.63,-126.68 1514.12,-120.14"/>
<text text-anchor="middle" x="1608.34" y="-188.3" font-family="Times,serif" font-size="14.00">previous</text>
</g>
<!-- http://purl.org/dj/kaggle/dangerous&#45;bites/activity/&#45;113236999554563878&#45;&gt;http://purl.org/dj/kaggle/dangerous&#45;bites/activity/&#45;3360235303498298774 -->
<g id="edge7" class="edge">
<title>http://purl.org/dj/kaggle/dangerous&#45;bites/activity/&#45;113236999554563878&#45;&gt;http://purl.org/dj/kaggle/dangerous&#45;bites/activity/&#45;3360235303498298774</title>
<path fill="none" stroke="black" d="M921.88,-281.73C916.83,-254.76 911.79,-202.78 939.84,-174 987.81,-124.77 1166.86,-110.49 1295.11,-106.71"/>
<polygon fill="black" stroke="black" points="1295.51,-110.2 1305.41,-106.43 1295.32,-103.21 1295.51,-110.2"/>
<text text-anchor="middle" x="963.34" y="-188.3" font-family="Times,serif" font-size="14.00">previous</text>
</g>
<!-- http://purl.org/dj/kaggle/dangerous&#45;bites/activity/3343039596677969447 -->
<g id="node7" class="node">
<title>http://purl.org/dj/kaggle/dangerous&#45;bites/activity/3343039596677969447</title>
<ellipse fill="none" stroke="black" cx="752.84" cy="-192" rx="141.88" ry="18"/>
<text text-anchor="middle" x="752.84" y="-188.3" font-family="Times,serif" font-size="14.00">3343039596677969447 (Movement)</text>
</g>
<!-- http://purl.org/dj/kaggle/dangerous&#45;bites/activity/&#45;113236999554563878&#45;&gt;http://purl.org/dj/kaggle/dangerous&#45;bites/activity/3343039596677969447 -->
<g id="edge8" class="edge">
<title>http://purl.org/dj/kaggle/dangerous&#45;bites/activity/&#45;113236999554563878&#45;&gt;http://purl.org/dj/kaggle/dangerous&#45;bites/activity/3343039596677969447</title>
<path fill="none" stroke="black" d="M898.42,-282.2C868.81,-264.06 821.51,-235.08 788.9,-215.1"/>
<polygon fill="black" stroke="black" points="790.48,-211.96 780.12,-209.72 786.82,-217.93 790.48,-211.96"/>
<text text-anchor="middle" x="889.34" y="-242.3" font-family="Times,serif" font-size="14.00">previous</text>
</g>
<!-- http://purl.org/dj/kaggle/dangerous&#45;bites/activity/&#45;8136762762038971918 -->
<g id="node8" class="node">
<title>http://purl.org/dj/kaggle/dangerous&#45;bites/activity/&#45;8136762762038971918</title>
<ellipse fill="none" stroke="black" cx="2737.84" cy="-192" rx="151.37" ry="18"/>
<text text-anchor="middle" x="2737.84" y="-188.3" font-family="Times,serif" font-size="14.00">&#45;8136762762038971918 (Visualisation)</text>
</g>
<!-- http://purl.org/dj/kaggle/dangerous&#45;bites/activity/&#45;113236999554563878&#45;&gt;http://purl.org/dj/kaggle/dangerous&#45;bites/activity/&#45;8136762762038971918 -->
<g id="edge9" class="edge">
<title>http://purl.org/dj/kaggle/dangerous&#45;bites/activity/&#45;113236999554563878&#45;&gt;http://purl.org/dj/kaggle/dangerous&#45;bites/activity/&#45;8136762762038971918</title>
<path fill="none" stroke="black" d="M1067.15,-298.5C1251.27,-296.8 1555.12,-290.02 1599.84,-264 1616.25,-254.45 1606.27,-237.28 1622.84,-228 1669.13,-202.07 2524.87,-213.31 2577.84,-210 2593.05,-209.05 2609.04,-207.73 2624.79,-206.25"/>
<polygon fill="black" stroke="black" points="2625.48,-209.7 2635.09,-205.25 2624.8,-202.73 2625.48,-209.7"/>
<text text-anchor="middle" x="1646.34" y="-242.3" font-family="Times,serif" font-size="14.00">previous</text>
</g>
<!-- http://purl.org/dj/kaggle/dangerous&#45;bites/activity/1298771721430057582 -->
<g id="node9" class="node">
<title>http://purl.org/dj/kaggle/dangerous&#45;bites/activity/1298771721430057582</title>
<ellipse fill="none" stroke="black" cx="367.84" cy="-192" rx="141.88" ry="18"/>
<text text-anchor="middle" x="367.84" y="-188.3" font-family="Times,serif" font-size="14.00">1298771721430057582 (Movement)</text>
</g>
<!-- http://purl.org/dj/kaggle/dangerous&#45;bites/activity/&#45;113236999554563878&#45;&gt;http://purl.org/dj/kaggle/dangerous&#45;bites/activity/1298771721430057582 -->
<g id="edge10" class="edge">
<title>http://purl.org/dj/kaggle/dangerous&#45;bites/activity/&#45;113236999554563878&#45;&gt;http://purl.org/dj/kaggle/dangerous&#45;bites/activity/1298771721430057582</title>
<path fill="none" stroke="black" d="M850.58,-284.7C747.16,-265.06 561.62,-229.81 453.16,-209.21"/>
<polygon fill="black" stroke="black" points="453.71,-205.75 443.23,-207.32 452.4,-212.63 453.71,-205.75"/>
<text text-anchor="middle" x="753.34" y="-242.3" font-family="Times,serif" font-size="14.00">previous</text>
</g>
<!-- http://purl.org/dj/kaggle/dangerous&#45;bites/activity/3343039596677969447&#45;&gt;http://purl.org/dj/kaggle/dangerous&#45;bites/activity/&#45;3360235303498298774 -->
<g id="edge11" class="edge">
<title>http://purl.org/dj/kaggle/dangerous&#45;bites/activity/3343039596677969447&#45;&gt;http://purl.org/dj/kaggle/dangerous&#45;bites/activity/&#45;3360235303498298774</title>
<path fill="none" stroke="black" d="M783.62,-174.39C806.66,-162.84 839.32,-148.24 869.84,-141 948.02,-122.44 1157.52,-113.29 1297.46,-109.11"/>
<polygon fill="black" stroke="black" points="1297.94,-112.6 1307.84,-108.81 1297.74,-105.6 1297.94,-112.6"/>
<text text-anchor="middle" x="893.34" y="-144.8" font-family="Times,serif" font-size="14.00">previous</text>
</g>
<!-- http://purl.org/dj/kaggle/dangerous&#45;bites/activity/&#45;8136762762038971918&#45;&gt;http://purl.org/dj/kaggle/dangerous&#45;bites/activity/&#45;3360235303498298774 -->
<g id="edge14" class="edge">
<title>http://purl.org/dj/kaggle/dangerous&#45;bites/activity/&#45;8136762762038971918&#45;&gt;http://purl.org/dj/kaggle/dangerous&#45;bites/activity/&#45;3360235303498298774</title>
<path fill="none" stroke="black" d="M2631.17,-179.13C2613.37,-177.3 2595.09,-175.52 2577.84,-174 2210.36,-141.59 1775.18,-120.5 1562.31,-111.3"/>
<polygon fill="black" stroke="black" points="1562.17,-107.79 1552.03,-110.86 1561.87,-114.79 1562.17,-107.79"/>
<text text-anchor="middle" x="2350.34" y="-144.8" font-family="Times,serif" font-size="14.00">previous</text>
</g>
<!-- http://purl.org/dj/kaggle/dangerous&#45;bites/activity/&#45;8136762762038971918&#45;&gt;http://purl.org/dj/kaggle/dangerous&#45;bites -->
<g id="edge15" class="edge">
<title>http://purl.org/dj/kaggle/dangerous&#45;bites/activity/&#45;8136762762038971918&#45;&gt;http://purl.org/dj/kaggle/dangerous&#45;bites</title>
<path fill="none" stroke="black" d="M2644.63,-177.8C2571.97,-167.57 2468.52,-153.14 2377.84,-141 2075.55,-100.52 1718.58,-55.14 1542.07,-32.86"/>
<polygon fill="black" stroke="black" points="1542.35,-29.37 1531.99,-31.59 1541.48,-36.31 1542.35,-29.37"/>
<text text-anchor="middle" x="2257.34" y="-101.3" font-family="Times,serif" font-size="14.00">previous</text>
</g>
<!-- http://purl.org/dj/kaggle/dangerous&#45;bites/activity/1298771721430057582&#45;&gt;http://purl.org/dj/kaggle/dangerous&#45;bites/activity/&#45;3360235303498298774 -->
<g id="edge16" class="edge">
<title>http://purl.org/dj/kaggle/dangerous&#45;bites/activity/1298771721430057582&#45;&gt;http://purl.org/dj/kaggle/dangerous&#45;bites/activity/&#45;3360235303498298774</title>
<path fill="none" stroke="black" d="M398.08,-174.41C421.12,-162.7 454.01,-147.91 484.84,-141 561.7,-123.78 1053.48,-112.74 1296.42,-108.27"/>
<polygon fill="black" stroke="black" points="1296.79,-111.76 1306.73,-108.08 1296.67,-104.76 1296.79,-111.76"/>
<text text-anchor="middle" x="508.34" y="-144.8" font-family="Times,serif" font-size="14.00">previous</text>
</g>
<!-- http://purl.org/dj/kaggle/dangerous&#45;bites/activity/1298771721430057582&#45;&gt;http://purl.org/dj/kaggle/dangerous&#45;bites -->
<g id="edge17" class="edge">
<title>http://purl.org/dj/kaggle/dangerous&#45;bites/activity/1298771721430057582&#45;&gt;http://purl.org/dj/kaggle/dangerous&#45;bites</title>
<path fill="none" stroke="black" d="M385.3,-173.92C397.97,-162.61 416.11,-148.51 434.84,-141 586.52,-80.16 1050.54,-43.01 1288.22,-27.48"/>
<polygon fill="black" stroke="black" points="1288.57,-30.96 1298.32,-26.82 1288.12,-23.97 1288.57,-30.96"/>
<text text-anchor="middle" x="695.34" y="-101.3" font-family="Times,serif" font-size="14.00">previous</text>
</g>
<!-- http://purl.org/dj/kaggle/dangerous&#45;bites/activity/5838307636988905985 -->
<g id="node10" class="node">
<title>http://purl.org/dj/kaggle/dangerous&#45;bites/activity/5838307636988905985</title>
<ellipse fill="none" stroke="black" cx="148.84" cy="-387" rx="148.67" ry="18"/>
<text text-anchor="middle" x="148.84" y="-383.3" font-family="Times,serif" font-size="14.00">5838307636988905985 (Visualisation)</text>
</g>
<!-- http://purl.org/dj/kaggle/dangerous&#45;bites/activity/5838307636988905985&#45;&gt;http://purl.org/dj/kaggle/dangerous&#45;bites/activity/&#45;3360235303498298774 -->
<g id="edge12" class="edge">
<title>http://purl.org/dj/kaggle/dangerous&#45;bites/activity/5838307636988905985&#45;&gt;http://purl.org/dj/kaggle/dangerous&#45;bites/activity/&#45;3360235303498298774</title>
<path fill="none" stroke="black" d="M145.74,-368.72C141.17,-338.91 134.93,-276.38 152.84,-228 170.97,-179.02 183.58,-160.98 231.84,-141 244.02,-135.96 987.41,-117 1297.88,-109.29"/>
<polygon fill="black" stroke="black" points="1298.38,-112.78 1308.29,-109.03 1298.21,-105.78 1298.38,-112.78"/>
<text text-anchor="middle" x="176.34" y="-242.3" font-family="Times,serif" font-size="14.00">previous</text>
</g>
<!-- http://purl.org/dj/kaggle/dangerous&#45;bites/activity/5838307636988905985&#45;&gt;http://purl.org/dj/kaggle/dangerous&#45;bites/activity/&#45;113236999554563878 -->
<g id="edge13" class="edge">
<title>http://purl.org/dj/kaggle/dangerous&#45;bites/activity/5838307636988905985&#45;&gt;http://purl.org/dj/kaggle/dangerous&#45;bites/activity/&#45;113236999554563878</title>
<path fill="none" stroke="black" d="M255.25,-374.36C401.21,-358.39 662.42,-329.82 812.12,-313.44"/>
<polygon fill="black" stroke="black" points="812.7,-316.9 822.26,-312.33 811.94,-309.94 812.7,-316.9"/>
<text text-anchor="middle" x="608.34" y="-339.8" font-family="Times,serif" font-size="14.00">previous</text>
</g>
<!-- http://purl.org/dj/kaggle/dangerous&#45;bites/activity/197839586960569521 -->
<g id="node11" class="node">
<title>http://purl.org/dj/kaggle/dangerous&#45;bites/activity/197839586960569521</title>
<ellipse fill="none" stroke="black" cx="1091.84" cy="-246" rx="144.07" ry="18"/>
<text text-anchor="middle" x="1091.84" y="-242.3" font-family="Times,serif" font-size="14.00">197839586960569521 (Visualisation)</text>
</g>
<!-- http://purl.org/dj/kaggle/dangerous&#45;bites/activity/197839586960569521&#45;&gt;http://purl.org/dj/kaggle/dangerous&#45;bites/activity/&#45;3360235303498298774 -->
<g id="edge18" class="edge">
<title>http://purl.org/dj/kaggle/dangerous&#45;bites/activity/197839586960569521&#45;&gt;http://purl.org/dj/kaggle/dangerous&#45;bites/activity/&#45;3360235303498298774</title>
<path fill="none" stroke="black" d="M1196.04,-233.52C1240.6,-227.5 1286.92,-219.4 1306.84,-210 1328.77,-199.65 1329.3,-189.63 1347.84,-174 1365.79,-158.86 1386.27,-142.27 1402.52,-129.26"/>
<polygon fill="black" stroke="black" points="1404.96,-131.79 1410.59,-122.82 1400.59,-126.32 1404.96,-131.79"/>
<text text-anchor="middle" x="1371.34" y="-188.3" font-family="Times,serif" font-size="14.00">previous</text>
</g>
<!-- http://purl.org/dj/kaggle/dangerous&#45;bites/activity/1638087560021210402 -->
<g id="node12" class="node">
<title>http://purl.org/dj/kaggle/dangerous&#45;bites/activity/1638087560021210402</title>
<ellipse fill="none" stroke="black" cx="1349.84" cy="-387" rx="141.88" ry="18"/>
<text text-anchor="middle" x="1349.84" y="-383.3" font-family="Times,serif" font-size="14.00">1638087560021210402 (Movement)</text>
</g>
<!-- http://purl.org/dj/kaggle/dangerous&#45;bites/activity/1638087560021210402&#45;&gt;http://purl.org/dj/kaggle/dangerous&#45;bites/activity/&#45;3360235303498298774 -->
<g id="edge19" class="edge">
<title>http://purl.org/dj/kaggle/dangerous&#45;bites/activity/1638087560021210402&#45;&gt;http://purl.org/dj/kaggle/dangerous&#45;bites/activity/&#45;3360235303498298774</title>
<path fill="none" stroke="black" d="M1312.7,-369.47C1304.37,-364.46 1296.14,-358.3 1289.84,-351 1252.68,-307.99 1217.3,-270.68 1254.84,-228 1296.27,-180.9 1345.99,-249.37 1394.84,-210 1417.97,-191.35 1426.66,-157.14 1429.91,-133.06"/>
<polygon fill="black" stroke="black" points="1433.38,-133.45 1431.02,-123.12 1426.43,-132.67 1433.38,-133.45"/>
<text text-anchor="middle" x="1278.34" y="-242.3" font-family="Times,serif" font-size="14.00">previous</text>
</g>
<!-- http://purl.org/dj/kaggle/dangerous&#45;bites/activity/1638087560021210402&#45;&gt;http://purl.org/dj/kaggle/dangerous&#45;bites/activity/&#45;113236999554563878 -->
<g id="edge20" class="edge">
<title>http://purl.org/dj/kaggle/dangerous&#45;bites/activity/1638087560021210402&#45;&gt;http://purl.org/dj/kaggle/dangerous&#45;bites/activity/&#45;113236999554563878</title>
<path fill="none" stroke="black" d="M1242.27,-375.26C1152.4,-366.14 1037.27,-354.07 1026.84,-351 1012.53,-346.8 1010.19,-342.63 996.84,-336 987.7,-331.46 977.89,-326.61 968.56,-322.01"/>
<polygon fill="black" stroke="black" points="969.96,-318.8 959.44,-317.52 966.87,-325.08 969.96,-318.8"/>
<text text-anchor="middle" x="1050.34" y="-339.8" font-family="Times,serif" font-size="14.00">previous</text>
</g>
<!-- http://purl.org/dj/kaggle/dangerous&#45;bites/activity/1638087560021210402&#45;&gt;http://purl.org/dj/kaggle/dangerous&#45;bites/activity/&#45;8136762762038971918 -->
<g id="edge21" class="edge">
<title>http://purl.org/dj/kaggle/dangerous&#45;bites/activity/1638087560021210402&#45;&gt;http://purl.org/dj/kaggle/dangerous&#45;bites/activity/&#45;8136762762038971918</title>
<path fill="none" stroke="black" d="M1433.64,-372.45C1613.31,-343.63 2049.11,-275.09 2415.84,-228 2435.97,-225.41 2535.81,-214.61 2619.06,-205.68"/>
<polygon fill="black" stroke="black" points="2619.55,-209.15 2629.12,-204.61 2618.8,-202.19 2619.55,-209.15"/>
<text text-anchor="middle" x="2031.34" y="-296.3" font-family="Times,serif" font-size="14.00">previous</text>
</g>
<!-- http://purl.org/dj/kaggle/dangerous&#45;bites/activity/352724716320746356 -->
<g id="node13" class="node">
<title>http://purl.org/dj/kaggle/dangerous&#45;bites/activity/352724716320746356</title>
<ellipse fill="none" stroke="black" cx="1454.84" cy="-246" rx="144.07" ry="18"/>
<text text-anchor="middle" x="1454.84" y="-242.3" font-family="Times,serif" font-size="14.00">352724716320746356 (Visualisation)</text>
</g>
<!-- http://purl.org/dj/kaggle/dangerous&#45;bites/activity/1638087560021210402&#45;&gt;http://purl.org/dj/kaggle/dangerous&#45;bites/activity/352724716320746356 -->
<g id="edge22" class="edge">
<title>http://purl.org/dj/kaggle/dangerous&#45;bites/activity/1638087560021210402&#45;&gt;http://purl.org/dj/kaggle/dangerous&#45;bites/activity/352724716320746356</title>
<path fill="none" stroke="black" d="M1386.53,-369.54C1394.97,-364.5 1403.36,-358.31 1409.84,-351 1429.53,-328.79 1441.65,-296.63 1448.27,-273.97"/>
<polygon fill="black" stroke="black" points="1451.65,-274.86 1450.93,-264.29 1444.9,-273 1451.65,-274.86"/>
<text text-anchor="middle" x="1444.34" y="-339.8" font-family="Times,serif" font-size="14.00">previous</text>
</g>
<!-- http://purl.org/dj/kaggle/dangerous&#45;bites/activity/352724716320746356&#45;&gt;http://purl.org/dj/kaggle/dangerous&#45;bites/activity/&#45;3360235303498298774 -->
<g id="edge23" class="edge">
<title>http://purl.org/dj/kaggle/dangerous&#45;bites/activity/352724716320746356&#45;&gt;http://purl.org/dj/kaggle/dangerous&#45;bites/activity/&#45;3360235303498298774</title>
<path fill="none" stroke="black" d="M1452.02,-227.96C1448.1,-204.3 1440.98,-161.26 1436.33,-133.15"/>
<polygon fill="black" stroke="black" points="1439.77,-132.48 1434.68,-123.18 1432.86,-133.62 1439.77,-132.48"/>
<text text-anchor="middle" x="1473.34" y="-188.3" font-family="Times,serif" font-size="14.00">previous</text>
</g>
<!-- http://purl.org/dj/kaggle/dangerous&#45;bites/activity/&#45;3145677704387711157 -->
<g id="node14" class="node">
<title>http://purl.org/dj/kaggle/dangerous&#45;bites/activity/&#45;3145677704387711157</title>
<ellipse fill="none" stroke="black" cx="2843.84" cy="-300" rx="145.67" ry="18"/>
<text text-anchor="middle" x="2843.84" y="-296.3" font-family="Times,serif" font-size="14.00">&#45;3145677704387711157 (Preparation)</text>
</g>
<!-- http://purl.org/dj/kaggle/dangerous&#45;bites/activity/&#45;3145677704387711157&#45;&gt;http://purl.org/dj/kaggle/dangerous&#45;bites/activity/&#45;3360235303498298774 -->
<g id="edge24" class="edge">
<title>http://purl.org/dj/kaggle/dangerous&#45;bites/activity/&#45;3145677704387711157&#45;&gt;http://purl.org/dj/kaggle/dangerous&#45;bites/activity/&#45;3360235303498298774</title>
<path fill="none" stroke="black" d="M2861.73,-282C2887.13,-255.87 2927.44,-205.54 2897.84,-174 2818.6,-89.57 2493.48,-146.81 2377.84,-141 2088.07,-126.45 1748.08,-115.32 1564.93,-109.82"/>
<polygon fill="black" stroke="black" points="1564.82,-106.31 1554.72,-109.51 1564.61,-113.31 1564.82,-106.31"/>
<text text-anchor="middle" x="2931.34" y="-188.3" font-family="Times,serif" font-size="14.00">previous</text>
</g>
<!-- http://purl.org/dj/kaggle/dangerous&#45;bites/activity/&#45;3145677704387711157&#45;&gt;http://purl.org/dj/kaggle/dangerous&#45;bites/activity/&#45;8136762762038971918 -->
<g id="edge25" class="edge">
<title>http://purl.org/dj/kaggle/dangerous&#45;bites/activity/&#45;3145677704387711157&#45;&gt;http://purl.org/dj/kaggle/dangerous&#45;bites/activity/&#45;8136762762038971918</title>
<path fill="none" stroke="black" d="M2826.81,-281.97C2809.27,-264.43 2781.77,-236.94 2761.99,-217.16"/>
<polygon fill="black" stroke="black" points="2764.37,-214.58 2754.83,-209.99 2759.42,-219.53 2764.37,-214.58"/>
<text text-anchor="middle" x="2829.34" y="-242.3" font-family="Times,serif" font-size="14.00">previous</text>
</g>
<!-- http://purl.org/dj/kaggle/dangerous&#45;bites/activity/&#45;5817796190166519031 -->
<g id="node15" class="node">
<title>http://purl.org/dj/kaggle/dangerous&#45;bites/activity/&#45;5817796190166519031</title>
<ellipse fill="none" stroke="black" cx="1786.84" cy="-192" rx="145.67" ry="18"/>
<text text-anchor="middle" x="1786.84" y="-188.3" font-family="Times,serif" font-size="14.00">&#45;5817796190166519031 (Preparation)</text>
</g>
<!-- http://purl.org/dj/kaggle/dangerous&#45;bites/activity/&#45;5817796190166519031&#45;&gt;http://purl.org/dj/kaggle/dangerous&#45;bites/activity/&#45;3360235303498298774 -->
<g id="edge26" class="edge">
<title>http://purl.org/dj/kaggle/dangerous&#45;bites/activity/&#45;5817796190166519031&#45;&gt;http://purl.org/dj/kaggle/dangerous&#45;bites/activity/&#45;3360235303498298774</title>
<path fill="none" stroke="black" d="M1727.47,-175.43C1688.43,-165.31 1636.18,-152.01 1589.84,-141 1563.53,-134.75 1534.68,-128.25 1508.91,-122.58"/>
<polygon fill="black" stroke="black" points="1509.34,-119.09 1498.83,-120.37 1507.84,-125.93 1509.34,-119.09"/>
<text text-anchor="middle" x="1673.34" y="-144.8" font-family="Times,serif" font-size="14.00">previous</text>
</g>
<!-- http://purl.org/dj/kaggle/dangerous&#45;bites/activity/2937208570109432295 -->
<g id="node16" class="node">
<title>http://purl.org/dj/kaggle/dangerous&#45;bites/activity/2937208570109432295</title>
<ellipse fill="none" stroke="black" cx="460.84" cy="-300" rx="148.67" ry="18"/>
<text text-anchor="middle" x="460.84" y="-296.3" font-family="Times,serif" font-size="14.00">2937208570109432295 (Visualisation)</text>
</g>
<!-- http://purl.org/dj/kaggle/dangerous&#45;bites/activity/2937208570109432295&#45;&gt;http://purl.org/dj/kaggle/dangerous&#45;bites/activity/&#45;3360235303498298774 -->
<g id="edge27" class="edge">
<title>http://purl.org/dj/kaggle/dangerous&#45;bites/activity/2937208570109432295&#45;&gt;http://purl.org/dj/kaggle/dangerous&#45;bites/activity/&#45;3360235303498298774</title>
<path fill="none" stroke="black" d="M508.12,-282.86C517.03,-277.99 525.52,-271.79 531.84,-264 557.84,-231.94 523.84,-201.27 554.84,-174 609.14,-126.23 1063.29,-111.92 1295.8,-107.71"/>
<polygon fill="black" stroke="black" points="1296.08,-111.21 1306.02,-107.53 1295.96,-104.21 1296.08,-111.21"/>
<text text-anchor="middle" x="578.34" y="-188.3" font-family="Times,serif" font-size="14.00">previous</text>
</g>
<!-- http://purl.org/dj/kaggle/dangerous&#45;bites/activity/2937208570109432295&#45;&gt;http://purl.org/dj/kaggle/dangerous&#45;bites/activity/1298771721430057582 -->
<g id="edge28" class="edge">
<title>http://purl.org/dj/kaggle/dangerous&#45;bites/activity/2937208570109432295&#45;&gt;http://purl.org/dj/kaggle/dangerous&#45;bites/activity/1298771721430057582</title>
<path fill="none" stroke="black" d="M416.02,-282.67C407.08,-277.77 398.43,-271.62 391.84,-264 381.14,-251.65 375.17,-234.34 371.85,-219.91"/>
<polygon fill="black" stroke="black" points="375.27,-219.14 369.88,-210.01 368.4,-220.5 375.27,-219.14"/>
<text text-anchor="middle" x="415.34" y="-242.3" font-family="Times,serif" font-size="14.00">previous</text>
</g>
<!-- http://purl.org/dj/kaggle/dangerous&#45;bites/activity/7760928452132277926 -->
<g id="node17" class="node">
<title>http://purl.org/dj/kaggle/dangerous&#45;bites/activity/7760928452132277926</title>
<ellipse fill="none" stroke="black" cx="2419.84" cy="-300" rx="142.97" ry="18"/>
<text text-anchor="middle" x="2419.84" y="-296.3" font-family="Times,serif" font-size="14.00">7760928452132277926 (Preparation)</text>
</g>
<!-- http://purl.org/dj/kaggle/dangerous&#45;bites/activity/7760928452132277926&#45;&gt;http://purl.org/dj/kaggle/dangerous&#45;bites/activity/&#45;8136762762038971918 -->
<g id="edge29" class="edge">
<title>http://purl.org/dj/kaggle/dangerous&#45;bites/activity/7760928452132277926&#45;&gt;http://purl.org/dj/kaggle/dangerous&#45;bites/activity/&#45;8136762762038971918</title>
<path fill="none" stroke="black" d="M2460,-282.65C2498,-267.48 2556.8,-244.79 2608.84,-228 2627.36,-222.02 2647.59,-216.2 2666.43,-211.08"/>
<polygon fill="black" stroke="black" points="2667.39,-214.45 2676.14,-208.47 2665.57,-207.69 2667.39,-214.45"/>
<text text-anchor="middle" x="2632.34" y="-242.3" font-family="Times,serif" font-size="14.00">previous</text>
</g>
<!-- http://purl.org/dj/kaggle/dangerous&#45;bites/activity/3108448850593021493 -->
<g id="node18" class="node">
<title>http://purl.org/dj/kaggle/dangerous&#45;bites/activity/3108448850593021493</title>
<ellipse fill="none" stroke="black" cx="2139.84" cy="-387" rx="148.67" ry="18"/>
<text text-anchor="middle" x="2139.84" y="-383.3" font-family="Times,serif" font-size="14.00">3108448850593021493 (Visualisation)</text>
</g>
<!-- http://purl.org/dj/kaggle/dangerous&#45;bites/activity/7760928452132277926&#45;&gt;http://purl.org/dj/kaggle/dangerous&#45;bites/activity/3108448850593021493 -->
<g id="edge30" class="edge">
<title>http://purl.org/dj/kaggle/dangerous&#45;bites/activity/7760928452132277926&#45;&gt;http://purl.org/dj/kaggle/dangerous&#45;bites/activity/3108448850593021493</title>
<path fill="none" stroke="black" d="M2360.71,-316.49C2338.99,-322.36 2314.23,-329.26 2291.84,-336 2260.19,-345.53 2225.13,-357 2196.66,-366.55"/>
<polygon fill="black" stroke="black" points="2195.24,-363.33 2186.88,-369.84 2197.48,-369.97 2195.24,-363.33"/>
<text text-anchor="middle" x="2315.34" y="-339.8" font-family="Times,serif" font-size="14.00">previous</text>
</g>
<!-- http://purl.org/dj/kaggle/dangerous&#45;bites/activity/5363918028127938414 -->
<g id="node19" class="node">
<title>http://purl.org/dj/kaggle/dangerous&#45;bites/activity/5363918028127938414</title>
<ellipse fill="none" stroke="black" cx="2419.84" cy="-192" rx="148.67" ry="18"/>
<text text-anchor="middle" x="2419.84" y="-188.3" font-family="Times,serif" font-size="14.00">5363918028127938414 (Visualisation)</text>
</g>
<!-- http://purl.org/dj/kaggle/dangerous&#45;bites/activity/7760928452132277926&#45;&gt;http://purl.org/dj/kaggle/dangerous&#45;bites/activity/5363918028127938414 -->
<g id="edge31" class="edge">
<title>http://purl.org/dj/kaggle/dangerous&#45;bites/activity/7760928452132277926&#45;&gt;http://purl.org/dj/kaggle/dangerous&#45;bites/activity/5363918028127938414</title>
<path fill="none" stroke="black" d="M2419.84,-281.97C2419.84,-265.38 2419.84,-239.88 2419.84,-220.43"/>
<polygon fill="black" stroke="black" points="2423.34,-220.34 2419.84,-210.34 2416.34,-220.34 2423.34,-220.34"/>
<text text-anchor="middle" x="2443.34" y="-242.3" font-family="Times,serif" font-size="14.00">previous</text>
</g>
<!-- http://purl.org/dj/kaggle/dangerous&#45;bites/activity/3108448850593021493&#45;&gt;http://purl.org/dj/kaggle/dangerous&#45;bites/activity/&#45;113236999554563878 -->
<g id="edge32" class="edge">
<title>http://purl.org/dj/kaggle/dangerous&#45;bites/activity/3108448850593021493&#45;&gt;http://purl.org/dj/kaggle/dangerous&#45;bites/activity/&#45;113236999554563878</title>
<path fill="none" stroke="black" d="M2010.49,-378.04C1958.41,-374.98 1897.78,-371.6 1842.84,-369 1629.59,-358.9 1574.63,-377.78 1362.84,-351 1331.7,-347.06 1324.85,-340.83 1293.84,-336 1216.47,-323.96 1129.27,-315.44 1059.17,-309.83"/>
<polygon fill="black" stroke="black" points="1059.2,-306.32 1048.96,-309.02 1058.65,-313.3 1059.2,-306.32"/>
<text text-anchor="middle" x="1386.34" y="-339.8" font-family="Times,serif" font-size="14.00">previous</text>
</g>
<!-- http://purl.org/dj/kaggle/dangerous&#45;bites/activity/3108448850593021493&#45;&gt;http://purl.org/dj/kaggle/dangerous&#45;bites/activity/7760928452132277926 -->
<g id="edge33" class="edge">
<title>http://purl.org/dj/kaggle/dangerous&#45;bites/activity/3108448850593021493&#45;&gt;http://purl.org/dj/kaggle/dangerous&#45;bites/activity/7760928452132277926</title>
<path fill="none" stroke="black" d="M2247.96,-374.61C2278.01,-369.41 2310.23,-361.88 2338.84,-351 2356.49,-344.28 2374.52,-333.6 2389.08,-323.83"/>
<polygon fill="black" stroke="black" points="2391.42,-326.47 2397.66,-317.91 2387.44,-320.71 2391.42,-326.47"/>
<text text-anchor="middle" x="2392.34" y="-339.8" font-family="Times,serif" font-size="14.00">previous</text>
</g>
<!-- http://purl.org/dj/kaggle/dangerous&#45;bites/activity/5363918028127938414&#45;&gt;http://purl.org/dj/kaggle/dangerous&#45;bites/activity/&#45;3360235303498298774 -->
<g id="edge34" class="edge">
<title>http://purl.org/dj/kaggle/dangerous&#45;bites/activity/5363918028127938414&#45;&gt;http://purl.org/dj/kaggle/dangerous&#45;bites/activity/&#45;3360235303498298774</title>
<path fill="none" stroke="black" d="M2314.06,-179.24C2296.62,-177.41 2278.73,-175.6 2261.84,-174 2009.38,-150.08 1713.23,-127.02 1551.78,-114.86"/>
<polygon fill="black" stroke="black" points="1551.58,-111.34 1541.34,-114.08 1551.05,-118.32 1551.58,-111.34"/>
<text text-anchor="middle" x="2080.34" y="-144.8" font-family="Times,serif" font-size="14.00">previous</text>
</g>
<!-- http://purl.org/dj/kaggle/dangerous&#45;bites/activity/&#45;3444654097123294752 -->
<g id="node20" class="node">
<title>http://purl.org/dj/kaggle/dangerous&#45;bites/activity/&#45;3444654097123294752</title>
<ellipse fill="none" stroke="black" cx="629.84" cy="-387" rx="151.37" ry="18"/>
<text text-anchor="middle" x="629.84" y="-383.3" font-family="Times,serif" font-size="14.00">&#45;3444654097123294752 (Visualisation)</text>
</g>
<!-- http://purl.org/dj/kaggle/dangerous&#45;bites/activity/&#45;3444654097123294752&#45;&gt;http://purl.org/dj/kaggle/dangerous&#45;bites/activity/&#45;3360235303498298774 -->
<g id="edge35" class="edge">
<title>http://purl.org/dj/kaggle/dangerous&#45;bites/activity/&#45;3444654097123294752&#45;&gt;http://purl.org/dj/kaggle/dangerous&#45;bites/activity/&#45;3360235303498298774</title>
<path fill="none" stroke="black" d="M494.41,-378.81C432.32,-370.45 360,-353.18 302.84,-318 239.35,-278.93 168.23,-230.52 216.84,-174 280.73,-99.7 337.26,-150.07 434.84,-141 598.07,-125.83 1065.1,-113.96 1297.34,-108.8"/>
<polygon fill="black" stroke="black" points="1297.62,-112.29 1307.54,-108.57 1297.47,-105.3 1297.62,-112.29"/>
<text text-anchor="middle" x="251.34" y="-242.3" font-family="Times,serif" font-size="14.00">previous</text>
</g>
<!-- http://purl.org/dj/kaggle/dangerous&#45;bites/activity/&#45;3444654097123294752&#45;&gt;http://purl.org/dj/kaggle/dangerous&#45;bites/activity/&#45;113236999554563878 -->
<g id="edge36" class="edge">
<title>http://purl.org/dj/kaggle/dangerous&#45;bites/activity/&#45;3444654097123294752&#45;&gt;http://purl.org/dj/kaggle/dangerous&#45;bites/activity/&#45;113236999554563878</title>
<path fill="none" stroke="black" d="M684.82,-370.21C734.77,-355.87 808.48,-334.7 861.23,-319.55"/>
<polygon fill="black" stroke="black" points="862.5,-322.83 871.15,-316.7 860.57,-316.1 862.5,-322.83"/>
<text text-anchor="middle" x="819.34" y="-339.8" font-family="Times,serif" font-size="14.00">previous</text>
</g>
<!-- http://purl.org/dj/kaggle/dangerous&#45;bites/activity/&#45;692331835866501967 -->
<g id="node21" class="node">
<title>http://purl.org/dj/kaggle/dangerous&#45;bites/activity/&#45;692331835866501967</title>
<ellipse fill="none" stroke="black" cx="2845.84" cy="-387" rx="147.57" ry="18"/>
<text text-anchor="middle" x="2845.84" y="-383.3" font-family="Times,serif" font-size="14.00">&#45;692331835866501967 (Visualisation)</text>
</g>
<!-- http://purl.org/dj/kaggle/dangerous&#45;bites/activity/&#45;692331835866501967&#45;&gt;http://purl.org/dj/kaggle/dangerous&#45;bites/activity/&#45;3360235303498298774 -->
<g id="edge37" class="edge">
<title>http://purl.org/dj/kaggle/dangerous&#45;bites/activity/&#45;692331835866501967&#45;&gt;http://purl.org/dj/kaggle/dangerous&#45;bites/activity/&#45;3360235303498298774</title>
<path fill="none" stroke="black" d="M2920.17,-371.44C2949.87,-361.58 2981.18,-345.18 2998.84,-318 3026.39,-275.6 2988.09,-196.67 2958.84,-174 2885.94,-117.51 2282.97,-132.17 1969.84,-123 1831.25,-118.94 1672.59,-113.88 1563.68,-110.34"/>
<polygon fill="black" stroke="black" points="1563.73,-106.84 1553.62,-110.01 1563.51,-113.83 1563.73,-106.84"/>
<text text-anchor="middle" x="3029.34" y="-242.3" font-family="Times,serif" font-size="14.00">previous</text>
</g>
<!-- http://purl.org/dj/kaggle/dangerous&#45;bites/activity/&#45;692331835866501967&#45;&gt;http://purl.org/dj/kaggle/dangerous&#45;bites/activity/&#45;3145677704387711157 -->
<g id="edge38" class="edge">
<title>http://purl.org/dj/kaggle/dangerous&#45;bites/activity/&#45;692331835866501967&#45;&gt;http://purl.org/dj/kaggle/dangerous&#45;bites/activity/&#45;3145677704387711157</title>
<path fill="none" stroke="black" d="M2845.43,-368.8C2845.16,-357.16 2844.79,-341.55 2844.48,-328.24"/>
<polygon fill="black" stroke="black" points="2847.98,-328.09 2844.24,-318.18 2840.98,-328.26 2847.98,-328.09"/>
<text text-anchor="middle" x="2868.34" y="-339.8" font-family="Times,serif" font-size="14.00">previous</text>
</g>
<!-- http://purl.org/dj/kaggle/dangerous&#45;bites/activity/&#45;3159824388302525757 -->
<g id="node22" class="node">
<title>http://purl.org/dj/kaggle/dangerous&#45;bites/activity/&#45;3159824388302525757</title>
<ellipse fill="none" stroke="black" cx="2101.84" cy="-192" rx="151.37" ry="18"/>
<text text-anchor="middle" x="2101.84" y="-188.3" font-family="Times,serif" font-size="14.00">&#45;3159824388302525757 (Visualisation)</text>
</g>
<!-- http://purl.org/dj/kaggle/dangerous&#45;bites/activity/&#45;3159824388302525757&#45;&gt;http://purl.org/dj/kaggle/dangerous&#45;bites/activity/&#45;3360235303498298774 -->
<g id="edge39" class="edge">
<title>http://purl.org/dj/kaggle/dangerous&#45;bites/activity/&#45;3159824388302525757&#45;&gt;http://purl.org/dj/kaggle/dangerous&#45;bites/activity/&#45;3360235303498298774</title>
<path fill="none" stroke="black" d="M2002.25,-178.37C1876.08,-162.36 1659.81,-134.92 1532.92,-118.82"/>
<polygon fill="black" stroke="black" points="1533.18,-115.33 1522.82,-117.54 1532.3,-122.27 1533.18,-115.33"/>
<text text-anchor="middle" x="1830.34" y="-144.8" font-family="Times,serif" font-size="14.00">previous</text>
</g>
<!-- http://purl.org/dj/kaggle/dangerous&#45;bites/activity/8837903087203412139 -->
<g id="node23" class="node">
<title>http://purl.org/dj/kaggle/dangerous&#45;bites/activity/8837903087203412139</title>
<ellipse fill="none" stroke="black" cx="2721.84" cy="-474" rx="142.97" ry="18"/>
<text text-anchor="middle" x="2721.84" y="-470.3" font-family="Times,serif" font-size="14.00">8837903087203412139 (Preparation)</text>
</g>
<!-- http://purl.org/dj/kaggle/dangerous&#45;bites/activity/8837903087203412139&#45;&gt;http://purl.org/dj/kaggle/dangerous&#45;bites/activity/&#45;8136762762038971918 -->
<g id="edge40" class="edge">
<title>http://purl.org/dj/kaggle/dangerous&#45;bites/activity/8837903087203412139&#45;&gt;http://purl.org/dj/kaggle/dangerous&#45;bites/activity/&#45;8136762762038971918</title>
<path fill="none" stroke="black" d="M2710.84,-455.92C2702.98,-442.63 2693.07,-423.42 2688.84,-405 2676.59,-351.72 2675.23,-334.94 2688.84,-282 2694.78,-258.87 2708.15,-235.31 2719.42,-218.25"/>
<polygon fill="black" stroke="black" points="2722.33,-220.19 2725.07,-209.95 2716.55,-216.24 2722.33,-220.19"/>
<text text-anchor="middle" x="2702.34" y="-339.8" font-family="Times,serif" font-size="14.00">previous</text>
</g>
<!-- http://purl.org/dj/kaggle/dangerous&#45;bites/activity/8837903087203412139&#45;&gt;http://purl.org/dj/kaggle/dangerous&#45;bites/activity/&#45;692331835866501967 -->
<g id="edge41" class="edge">
<title>http://purl.org/dj/kaggle/dangerous&#45;bites/activity/8837903087203412139&#45;&gt;http://purl.org/dj/kaggle/dangerous&#45;bites/activity/&#45;692331835866501967</title>
<path fill="none" stroke="black" d="M2746.34,-456.21C2765.44,-443.11 2792.16,-424.8 2813.1,-410.44"/>
<polygon fill="black" stroke="black" points="2815.12,-413.3 2821.39,-404.76 2811.16,-407.53 2815.12,-413.3"/>
<text text-anchor="middle" x="2814.34" y="-426.8" font-family="Times,serif" font-size="14.00">previous</text>
</g>
<!-- http://purl.org/dj/kaggle/dangerous&#45;bites/activity/&#45;6111043694032671544 -->
<g id="node24" class="node">
<title>http://purl.org/dj/kaggle/dangerous&#45;bites/activity/&#45;6111043694032671544</title>
<ellipse fill="none" stroke="black" cx="1025.84" cy="-387" rx="144.07" ry="18"/>
<text text-anchor="middle" x="1025.84" y="-383.3" font-family="Times,serif" font-size="14.00">&#45;6111043694032671544 (Movement)</text>
</g>
<!-- http://purl.org/dj/kaggle/dangerous&#45;bites/activity/&#45;6111043694032671544&#45;&gt;http://purl.org/dj/kaggle/dangerous&#45;bites/activity/&#45;113236999554563878 -->
<g id="edge42" class="edge">
<title>http://purl.org/dj/kaggle/dangerous&#45;bites/activity/&#45;6111043694032671544&#45;&gt;http://purl.org/dj/kaggle/dangerous&#45;bites/activity/&#45;113236999554563878</title>
<path fill="none" stroke="black" d="M977.62,-369.91C967.6,-364.97 957.71,-358.74 949.84,-351 943.23,-344.49 938.19,-335.81 934.49,-327.5"/>
<polygon fill="black" stroke="black" points="937.68,-326.07 930.73,-318.08 931.18,-328.66 937.68,-326.07"/>
<text text-anchor="middle" x="973.34" y="-339.8" font-family="Times,serif" font-size="14.00">previous</text>
</g>
<!-- http://purl.org/dj/kaggle/dangerous&#45;bites/activity/&#45;6111043694032671544&#45;&gt;http://purl.org/dj/kaggle/dangerous&#45;bites/activity/197839586960569521 -->
<g id="edge43" class="edge">
<title>http://purl.org/dj/kaggle/dangerous&#45;bites/activity/&#45;6111043694032671544&#45;&gt;http://purl.org/dj/kaggle/dangerous&#45;bites/activity/197839586960569521</title>
<path fill="none" stroke="black" d="M1056.53,-369.05C1063.16,-364.05 1069.48,-358.01 1073.84,-351 1088.22,-327.86 1091.97,-296.52 1092.58,-274.31"/>
<polygon fill="black" stroke="black" points="1096.08,-274.25 1092.66,-264.22 1089.08,-274.19 1096.08,-274.25"/>
<text text-anchor="middle" x="1105.34" y="-339.8" font-family="Times,serif" font-size="14.00">previous</text>
</g>
<!-- http://purl.org/dj/kaggle/dangerous&#45;bites/activity/&#45;4541803185338722961 -->
<g id="node25" class="node">
<title>http://purl.org/dj/kaggle/dangerous&#45;bites/activity/&#45;4541803185338722961</title>
<ellipse fill="none" stroke="black" cx="1691.84" cy="-474" rx="151.37" ry="18"/>
<text text-anchor="middle" x="1691.84" y="-470.3" font-family="Times,serif" font-size="14.00">&#45;4541803185338722961 (Visualisation)</text>
</g>
<!-- http://purl.org/dj/kaggle/dangerous&#45;bites/activity/&#45;4541803185338722961&#45;&gt;http://purl.org/dj/kaggle/dangerous&#45;bites/activity/7137837480318814839 -->
<g id="edge44" class="edge">
<title>http://purl.org/dj/kaggle/dangerous&#45;bites/activity/&#45;4541803185338722961&#45;&gt;http://purl.org/dj/kaggle/dangerous&#45;bites/activity/7137837480318814839</title>
<path fill="none" stroke="black" d="M1691.84,-455.8C1691.84,-444.16 1691.84,-428.55 1691.84,-415.24"/>
<polygon fill="black" stroke="black" points="1695.34,-415.18 1691.84,-405.18 1688.34,-415.18 1695.34,-415.18"/>
<text text-anchor="middle" x="1715.34" y="-426.8" font-family="Times,serif" font-size="14.00">previous</text>
</g>
<!-- http://purl.org/dj/kaggle/dangerous&#45;bites/activity/2867316893644808311 -->
<g id="node26" class="node">
<title>http://purl.org/dj/kaggle/dangerous&#45;bites/activity/2867316893644808311</title>
<ellipse fill="none" stroke="black" cx="2455.84" cy="-387" rx="148.67" ry="18"/>
<text text-anchor="middle" x="2455.84" y="-383.3" font-family="Times,serif" font-size="14.00">2867316893644808311 (Visualisation)</text>
</g>
<!-- http://purl.org/dj/kaggle/dangerous&#45;bites/activity/2867316893644808311&#45;&gt;http://purl.org/dj/kaggle/dangerous&#45;bites/activity/7760928452132277926 -->
<g id="edge45" class="edge">
<title>http://purl.org/dj/kaggle/dangerous&#45;bites/activity/2867316893644808311&#45;&gt;http://purl.org/dj/kaggle/dangerous&#45;bites/activity/7760928452132277926</title>
<path fill="none" stroke="black" d="M2448.55,-368.8C2443.53,-356.93 2436.75,-340.93 2431.04,-327.45"/>
<polygon fill="black" stroke="black" points="2434.23,-326.02 2427.11,-318.18 2427.79,-328.75 2434.23,-326.02"/>
<text text-anchor="middle" x="2463.34" y="-339.8" font-family="Times,serif" font-size="14.00">previous</text>
</g>
</g>
</svg>
