<?xml version="1.0" encoding="UTF-8" standalone="no"?>
<!DOCTYPE svg PUBLIC "-//W3C//DTD SVG 1.1//EN"
 "http://www.w3.org/Graphics/SVG/1.1/DTD/svg11.dtd">
<!-- Generated by graphviz version 2.44.1 (20200629.0846)
 -->
<!-- Pages: 1 -->
<svg width="3052pt" height="803pt"
 viewBox="0.00 0.00 3051.68 803.00" xmlns="http://www.w3.org/2000/svg" xmlns:xlink="http://www.w3.org/1999/xlink">
<g id="graph0" class="graph" transform="scale(1 1) rotate(0) translate(4 799)">
<polygon fill="white" stroke="transparent" points="-4,4 -4,-799 3047.68,-799 3047.68,4 -4,4"/>
<!-- http://purl.org/dj/python/lib/111084090 -->
<g id="node1" class="node">
<title>http://purl.org/dj/python/lib/111084090</title>
<ellipse fill="none" stroke="black" cx="296.89" cy="-105" rx="109.68" ry="18"/>
<text text-anchor="middle" x="296.89" y="-101.3" font-family="Times,serif" font-size="14.00">111084090 (numpy: Reuse)</text>
</g>
<!-- http://purl.org/dj/kaggle/data&#45;cleaning&#45;challenge&#45;parsing&#45;dates -->
<g id="node2" class="node">
<title>http://purl.org/dj/kaggle/data&#45;cleaning&#45;challenge&#45;parsing&#45;dates</title>
<ellipse fill="none" stroke="black" cx="1307.89" cy="-18" rx="144.07" ry="18"/>
<text text-anchor="middle" x="1307.89" y="-14.3" font-family="Times,serif" font-size="14.00">data&#45;cleaning&#45;challenge&#45;parsing&#45;dates</text>
</g>
<!-- http://purl.org/dj/python/lib/111084090&#45;&gt;http://purl.org/dj/kaggle/data&#45;cleaning&#45;challenge&#45;parsing&#45;dates -->
<g id="edge1" class="edge">
<title>http://purl.org/dj/python/lib/111084090&#45;&gt;http://purl.org/dj/kaggle/data&#45;cleaning&#45;challenge&#45;parsing&#45;dates</title>
<path fill="none" stroke="black" d="M305.84,-86.8C312.87,-75.28 323.81,-60.98 337.89,-54 373.79,-36.21 891.68,-25.54 1155.61,-21.22"/>
<polygon fill="black" stroke="black" points="1155.73,-24.72 1165.67,-21.06 1155.61,-17.72 1155.73,-24.72"/>
<text text-anchor="middle" x="383.39" y="-57.8" font-family="Times,serif" font-size="14.00">previousActivity</text>
</g>
<!-- http://purl.org/dj/kaggle/data&#45;cleaning&#45;challenge&#45;parsing&#45;dates#769787130 -->
<g id="node3" class="node">
<title>http://purl.org/dj/kaggle/data&#45;cleaning&#45;challenge&#45;parsing&#45;dates#769787130</title>
<ellipse fill="none" stroke="black" cx="1000.89" cy="-408" rx="163.57" ry="18"/>
<text text-anchor="middle" x="1000.89" y="-404.3" font-family="Times,serif" font-size="14.00">769787130 (landslides(0)$1: Visualisation)</text>
</g>
<!-- http://purl.org/dj/kaggle/data&#45;cleaning&#45;challenge&#45;parsing&#45;dates#769787130&#45;&gt;http://purl.org/dj/kaggle/data&#45;cleaning&#45;challenge&#45;parsing&#45;dates#769787130 -->
<g id="edge2" class="edge">
<title>http://purl.org/dj/kaggle/data&#45;cleaning&#45;challenge&#45;parsing&#45;dates#769787130&#45;&gt;http://purl.org/dj/kaggle/data&#45;cleaning&#45;challenge&#45;parsing&#45;dates#769787130</title>
<path fill="none" stroke="black" d="M1152.72,-414.77C1170.84,-413.54 1182.68,-411.28 1182.68,-408 1182.68,-405.39 1175.16,-403.42 1162.94,-402.11"/>
<polygon fill="black" stroke="black" points="1162.98,-398.6 1152.72,-401.23 1162.38,-405.57 1162.98,-398.6"/>
<text text-anchor="middle" x="1215.18" y="-404.3" font-family="Times,serif" font-size="14.00">to_datetime</text>
</g>
<!-- http://purl.org/dj/kaggle/data&#45;cleaning&#45;challenge&#45;parsing&#45;dates#165806624 -->
<g id="node4" class="node">
<title>http://purl.org/dj/kaggle/data&#45;cleaning&#45;challenge&#45;parsing&#45;dates#165806624</title>
<ellipse fill="none" stroke="black" cx="680.89" cy="-321" rx="109.68" ry="18"/>
<text text-anchor="middle" x="680.89" y="-317.3" font-family="Times,serif" font-size="14.00">165806624 (date(0): Reuse)</text>
</g>
<!-- http://purl.org/dj/kaggle/data&#45;cleaning&#45;challenge&#45;parsing&#45;dates#769787130&#45;&gt;http://purl.org/dj/kaggle/data&#45;cleaning&#45;challenge&#45;parsing&#45;dates#165806624 -->
<g id="edge3" class="edge">
<title>http://purl.org/dj/kaggle/data&#45;cleaning&#45;challenge&#45;parsing&#45;dates#769787130&#45;&gt;http://purl.org/dj/kaggle/data&#45;cleaning&#45;challenge&#45;parsing&#45;dates#165806624</title>
<path fill="none" stroke="black" d="M881.21,-395.69C829.2,-389.66 774.75,-381.52 750.89,-372 735.23,-365.75 719.76,-355.28 707.36,-345.54"/>
<polygon fill="black" stroke="black" points="709.27,-342.57 699.31,-338.96 704.84,-348 709.27,-342.57"/>
<text text-anchor="middle" x="796.39" y="-360.8" font-family="Times,serif" font-size="14.00">previousActivity</text>
</g>
<!-- http://purl.org/dj/kaggle/data&#45;cleaning&#45;challenge&#45;parsing&#45;dates#769721593 -->
<g id="node5" class="node">
<title>http://purl.org/dj/kaggle/data&#45;cleaning&#45;challenge&#45;parsing&#45;dates#769721593</title>
<ellipse fill="none" stroke="black" cx="1050.89" cy="-321" rx="156.77" ry="18"/>
<text text-anchor="middle" x="1050.89" y="-317.3" font-family="Times,serif" font-size="14.00">769721593 (landslides(0)$0: Movement)</text>
</g>
<!-- http://purl.org/dj/kaggle/data&#45;cleaning&#45;challenge&#45;parsing&#45;dates#769787130&#45;&gt;http://purl.org/dj/kaggle/data&#45;cleaning&#45;challenge&#45;parsing&#45;dates#769721593 -->
<g id="edge4" class="edge">
<title>http://purl.org/dj/kaggle/data&#45;cleaning&#45;challenge&#45;parsing&#45;dates#769787130&#45;&gt;http://purl.org/dj/kaggle/data&#45;cleaning&#45;challenge&#45;parsing&#45;dates#769721593</title>
<path fill="none" stroke="black" d="M1011.01,-389.8C1018.06,-377.82 1027.59,-361.62 1035.56,-348.06"/>
<polygon fill="black" stroke="black" points="1038.73,-349.57 1040.79,-339.18 1032.7,-346.02 1038.73,-349.57"/>
<text text-anchor="middle" x="1074.39" y="-360.8" font-family="Times,serif" font-size="14.00">previousActivity</text>
</g>
<!-- http://purl.org/dj/kaggle/data&#45;cleaning&#45;challenge&#45;parsing&#45;dates#80085334 -->
<g id="node6" class="node">
<title>http://purl.org/dj/kaggle/data&#45;cleaning&#45;challenge&#45;parsing&#45;dates#80085334</title>
<ellipse fill="none" stroke="black" cx="1250.89" cy="-213" rx="124.28" ry="18"/>
<text text-anchor="middle" x="1250.89" y="-209.3" font-family="Times,serif" font-size="14.00">80085334 (pd(0): Visualisation)</text>
</g>
<!-- http://purl.org/dj/kaggle/data&#45;cleaning&#45;challenge&#45;parsing&#45;dates#769787130&#45;&gt;http://purl.org/dj/kaggle/data&#45;cleaning&#45;challenge&#45;parsing&#45;dates#80085334 -->
<g id="edge5" class="edge">
<title>http://purl.org/dj/kaggle/data&#45;cleaning&#45;challenge&#45;parsing&#45;dates#769787130&#45;&gt;http://purl.org/dj/kaggle/data&#45;cleaning&#45;challenge&#45;parsing&#45;dates#80085334</title>
<path fill="none" stroke="black" d="M1109.72,-394.47C1148.12,-384.93 1188.71,-368.21 1216.89,-339 1242.25,-312.71 1249.12,-269.45 1250.75,-241.35"/>
<polygon fill="black" stroke="black" points="1254.26,-241.16 1251.15,-231.03 1247.27,-240.89 1254.26,-241.16"/>
<text text-anchor="middle" x="1271.39" y="-317.3" font-family="Times,serif" font-size="14.00">to_datetime</text>
</g>
<!-- http://purl.org/dj/kaggle/data&#45;cleaning&#45;challenge&#45;parsing&#45;dates#489423789 -->
<g id="node7" class="node">
<title>http://purl.org/dj/kaggle/data&#45;cleaning&#45;challenge&#45;parsing&#45;dates#489423789</title>
<ellipse fill="none" stroke="black" cx="798.89" cy="-267" rx="139.98" ry="18"/>
<text text-anchor="middle" x="798.89" y="-263.3" font-family="Times,serif" font-size="14.00">489423789 (%m/%d/%y(0): Reuse)</text>
</g>
<!-- http://purl.org/dj/kaggle/data&#45;cleaning&#45;challenge&#45;parsing&#45;dates#769787130&#45;&gt;http://purl.org/dj/kaggle/data&#45;cleaning&#45;challenge&#45;parsing&#45;dates#489423789 -->
<g id="edge6" class="edge">
<title>http://purl.org/dj/kaggle/data&#45;cleaning&#45;challenge&#45;parsing&#45;dates#769787130&#45;&gt;http://purl.org/dj/kaggle/data&#45;cleaning&#45;challenge&#45;parsing&#45;dates#489423789</title>
<path fill="none" stroke="black" d="M963.17,-390.34C951.91,-384.92 939.69,-378.59 928.89,-372 890.16,-348.36 850.04,-314.6 824.8,-292.02"/>
<polygon fill="black" stroke="black" points="826.92,-289.22 817.15,-285.11 822.22,-294.41 826.92,-289.22"/>
<text text-anchor="middle" x="974.39" y="-360.8" font-family="Times,serif" font-size="14.00">previousActivity</text>
</g>
<!-- http://purl.org/dj/kaggle/data&#45;cleaning&#45;challenge&#45;parsing&#45;dates#165806624&#45;&gt;http://purl.org/dj/kaggle/data&#45;cleaning&#45;challenge&#45;parsing&#45;dates -->
<g id="edge7" class="edge">
<title>http://purl.org/dj/kaggle/data&#45;cleaning&#45;challenge&#45;parsing&#45;dates#165806624&#45;&gt;http://purl.org/dj/kaggle/data&#45;cleaning&#45;challenge&#45;parsing&#45;dates</title>
<path fill="none" stroke="black" d="M662.34,-302.89C657.59,-297.6 652.97,-291.45 649.89,-285 622.13,-226.78 601.14,-197.69 631.89,-141 652.87,-102.32 674.31,-104.03 714.89,-87 777.43,-60.75 796.81,-64.02 863.89,-54 963.38,-39.14 1076.42,-30.34 1163.54,-25.28"/>
<polygon fill="black" stroke="black" points="1163.98,-28.76 1173.77,-24.7 1163.58,-21.78 1163.98,-28.76"/>
<text text-anchor="middle" x="658.39" y="-155.3" font-family="Times,serif" font-size="14.00">appearsIn</text>
</g>
<!-- http://purl.org/dj/kaggle/data&#45;cleaning&#45;challenge&#45;parsing&#45;dates#769721593&#45;&gt;http://purl.org/dj/kaggle/data&#45;cleaning&#45;challenge&#45;parsing&#45;dates#80085334 -->
<g id="edge8" class="edge">
<title>http://purl.org/dj/kaggle/data&#45;cleaning&#45;challenge&#45;parsing&#45;dates#769721593&#45;&gt;http://purl.org/dj/kaggle/data&#45;cleaning&#45;challenge&#45;parsing&#45;dates#80085334</title>
<path fill="none" stroke="black" d="M1068.96,-302.99C1086.62,-287.13 1114.87,-263.78 1142.89,-249 1155.31,-242.45 1169.17,-236.84 1182.72,-232.15"/>
<polygon fill="black" stroke="black" points="1184.12,-235.37 1192.5,-228.89 1181.91,-228.73 1184.12,-235.37"/>
<text text-anchor="middle" x="1188.39" y="-263.3" font-family="Times,serif" font-size="14.00">previousActivity</text>
</g>
<!-- http://purl.org/dj/kaggle/data&#45;cleaning&#45;challenge&#45;parsing&#45;dates#697241186 -->
<g id="node8" class="node">
<title>http://purl.org/dj/kaggle/data&#45;cleaning&#45;challenge&#45;parsing&#45;dates#697241186</title>
<ellipse fill="none" stroke="black" cx="980.89" cy="-159" rx="221.76" ry="18"/>
<text text-anchor="middle" x="980.89" y="-155.3" font-family="Times,serif" font-size="14.00">697241186 (../input/landslide&#45;events/catalog.csv(0): Reuse)</text>
</g>
<!-- http://purl.org/dj/kaggle/data&#45;cleaning&#45;challenge&#45;parsing&#45;dates#769721593&#45;&gt;http://purl.org/dj/kaggle/data&#45;cleaning&#45;challenge&#45;parsing&#45;dates#697241186 -->
<g id="edge9" class="edge">
<title>http://purl.org/dj/kaggle/data&#45;cleaning&#45;challenge&#45;parsing&#45;dates#769721593&#45;&gt;http://purl.org/dj/kaggle/data&#45;cleaning&#45;challenge&#45;parsing&#45;dates#697241186</title>
<path fill="none" stroke="black" d="M1014.63,-303.41C1007.36,-298.48 1000.53,-292.38 995.89,-285 977.37,-255.57 976.08,-214.45 977.75,-187.53"/>
<polygon fill="black" stroke="black" points="981.26,-187.53 978.57,-177.28 974.28,-186.97 981.26,-187.53"/>
<text text-anchor="middle" x="1041.39" y="-263.3" font-family="Times,serif" font-size="14.00">previousActivity</text>
</g>
<!-- http://purl.org/dj/kaggle/data&#45;cleaning&#45;challenge&#45;parsing&#45;dates#80085334&#45;&gt;http://purl.org/dj/kaggle/data&#45;cleaning&#45;challenge&#45;parsing&#45;dates -->
<g id="edge10" class="edge">
<title>http://purl.org/dj/kaggle/data&#45;cleaning&#45;challenge&#45;parsing&#45;dates#80085334&#45;&gt;http://purl.org/dj/kaggle/data&#45;cleaning&#45;challenge&#45;parsing&#45;dates</title>
<path fill="none" stroke="black" d="M1241.36,-195.02C1228.78,-170.2 1210.09,-123.05 1226.89,-87 1235.6,-68.32 1252.24,-52.96 1268.18,-41.58"/>
<polygon fill="black" stroke="black" points="1270.58,-44.18 1276.91,-35.68 1266.66,-38.38 1270.58,-44.18"/>
<text text-anchor="middle" x="1253.39" y="-101.3" font-family="Times,serif" font-size="14.00">appearsIn</text>
</g>
<!-- http://purl.org/dj/python/lib/144966264 -->
<g id="node9" class="node">
<title>http://purl.org/dj/python/lib/144966264</title>
<ellipse fill="none" stroke="black" cx="1397.89" cy="-105" rx="109.38" ry="18"/>
<text text-anchor="middle" x="1397.89" y="-101.3" font-family="Times,serif" font-size="14.00">144966264 (pandas: Reuse)</text>
</g>
<!-- http://purl.org/dj/kaggle/data&#45;cleaning&#45;challenge&#45;parsing&#45;dates#80085334&#45;&gt;http://purl.org/dj/python/lib/144966264 -->
<g id="edge11" class="edge">
<title>http://purl.org/dj/kaggle/data&#45;cleaning&#45;challenge&#45;parsing&#45;dates#80085334&#45;&gt;http://purl.org/dj/python/lib/144966264</title>
<path fill="none" stroke="black" d="M1244.05,-194.86C1239.02,-179.14 1234.91,-156.08 1246.89,-141 1254.8,-131.05 1277.42,-123.68 1302.82,-118.34"/>
<polygon fill="black" stroke="black" points="1303.54,-121.77 1312.67,-116.39 1302.18,-114.9 1303.54,-121.77"/>
<text text-anchor="middle" x="1285.39" y="-155.3" font-family="Times,serif" font-size="14.00">assignedFrom</text>
</g>
<!-- http://purl.org/dj/kaggle/data&#45;cleaning&#45;challenge&#45;parsing&#45;dates#489423789&#45;&gt;http://purl.org/dj/kaggle/data&#45;cleaning&#45;challenge&#45;parsing&#45;dates -->
<g id="edge12" class="edge">
<title>http://purl.org/dj/kaggle/data&#45;cleaning&#45;challenge&#45;parsing&#45;dates#489423789&#45;&gt;http://purl.org/dj/kaggle/data&#45;cleaning&#45;challenge&#45;parsing&#45;dates</title>
<path fill="none" stroke="black" d="M768.13,-249.4C727.63,-225.43 665.1,-179.77 696.89,-141 755.38,-69.67 1007.14,-39.24 1168.67,-26.86"/>
<polygon fill="black" stroke="black" points="1168.99,-30.35 1178.7,-26.11 1168.47,-23.37 1168.99,-30.35"/>
<text text-anchor="middle" x="723.39" y="-155.3" font-family="Times,serif" font-size="14.00">appearsIn</text>
</g>
<!-- http://purl.org/dj/kaggle/data&#45;cleaning&#45;challenge&#45;parsing&#45;dates#697241186&#45;&gt;http://purl.org/dj/kaggle/data&#45;cleaning&#45;challenge&#45;parsing&#45;dates -->
<g id="edge13" class="edge">
<title>http://purl.org/dj/kaggle/data&#45;cleaning&#45;challenge&#45;parsing&#45;dates#697241186&#45;&gt;http://purl.org/dj/kaggle/data&#45;cleaning&#45;challenge&#45;parsing&#45;dates</title>
<path fill="none" stroke="black" d="M1007.18,-140.91C1031.75,-125.44 1069.81,-102.74 1104.89,-87 1149.38,-67.05 1201.58,-49.69 1241.9,-37.5"/>
<polygon fill="black" stroke="black" points="1243.05,-40.81 1251.63,-34.59 1241.04,-34.11 1243.05,-40.81"/>
<text text-anchor="middle" x="1150.39" y="-101.3" font-family="Times,serif" font-size="14.00">previousActivity</text>
</g>
<!-- http://purl.org/dj/python/lib/144966264&#45;&gt;http://purl.org/dj/kaggle/data&#45;cleaning&#45;challenge&#45;parsing&#45;dates -->
<g id="edge26" class="edge">
<title>http://purl.org/dj/python/lib/144966264&#45;&gt;http://purl.org/dj/kaggle/data&#45;cleaning&#45;challenge&#45;parsing&#45;dates</title>
<path fill="none" stroke="black" d="M1380.11,-87.21C1366.76,-74.6 1348.29,-57.16 1333.38,-43.07"/>
<polygon fill="black" stroke="black" points="1335.62,-40.37 1325.94,-36.05 1330.81,-45.46 1335.62,-40.37"/>
<text text-anchor="middle" x="1404.39" y="-57.8" font-family="Times,serif" font-size="14.00">previousActivity</text>
</g>
<!-- http://purl.org/dj/kaggle/data&#45;cleaning&#45;challenge&#45;parsing&#45;dates#584123452 -->
<g id="node10" class="node">
<title>http://purl.org/dj/kaggle/data&#45;cleaning&#45;challenge&#45;parsing&#45;dates#584123452</title>
<ellipse fill="none" stroke="black" cx="2208.89" cy="-408" rx="159.77" ry="18"/>
<text text-anchor="middle" x="2208.89" y="-404.3" font-family="Times,serif" font-size="14.00">584123452 (volcanos(0)$1: Visualisation)</text>
</g>
<!-- http://purl.org/dj/kaggle/data&#45;cleaning&#45;challenge&#45;parsing&#45;dates#584057915 -->
<g id="node11" class="node">
<title>http://purl.org/dj/kaggle/data&#45;cleaning&#45;challenge&#45;parsing&#45;dates#584057915</title>
<ellipse fill="none" stroke="black" cx="2082.89" cy="-321" rx="152.97" ry="18"/>
<text text-anchor="middle" x="2082.89" y="-317.3" font-family="Times,serif" font-size="14.00">584057915 (volcanos(0)$0: Movement)</text>
</g>
<!-- http://purl.org/dj/kaggle/data&#45;cleaning&#45;challenge&#45;parsing&#45;dates#584123452&#45;&gt;http://purl.org/dj/kaggle/data&#45;cleaning&#45;challenge&#45;parsing&#45;dates#584057915 -->
<g id="edge14" class="edge">
<title>http://purl.org/dj/kaggle/data&#45;cleaning&#45;challenge&#45;parsing&#45;dates#584123452&#45;&gt;http://purl.org/dj/kaggle/data&#45;cleaning&#45;challenge&#45;parsing&#45;dates#584057915</title>
<path fill="none" stroke="black" d="M2184,-390.21C2164.71,-377.19 2137.79,-359.03 2116.57,-344.72"/>
<polygon fill="black" stroke="black" points="2118.41,-341.74 2108.16,-339.05 2114.5,-347.54 2118.41,-341.74"/>
<text text-anchor="middle" x="2198.39" y="-360.8" font-family="Times,serif" font-size="14.00">previousActivity</text>
</g>
<!-- http://purl.org/dj/kaggle/data&#45;cleaning&#45;challenge&#45;parsing&#45;dates#30998711 -->
<g id="node12" class="node">
<title>http://purl.org/dj/kaggle/data&#45;cleaning&#45;challenge&#45;parsing&#45;dates#30998711</title>
<ellipse fill="none" stroke="black" cx="2407.89" cy="-159" rx="94.78" ry="18"/>
<text text-anchor="middle" x="2407.89" y="-155.3" font-family="Times,serif" font-size="14.00">30998711 (5(0): Reuse)</text>
</g>
<!-- http://purl.org/dj/kaggle/data&#45;cleaning&#45;challenge&#45;parsing&#45;dates#584123452&#45;&gt;http://purl.org/dj/kaggle/data&#45;cleaning&#45;challenge&#45;parsing&#45;dates#30998711 -->
<g id="edge15" class="edge">
<title>http://purl.org/dj/kaggle/data&#45;cleaning&#45;challenge&#45;parsing&#45;dates#584123452&#45;&gt;http://purl.org/dj/kaggle/data&#45;cleaning&#45;challenge&#45;parsing&#45;dates#30998711</title>
<path fill="none" stroke="black" d="M2229.48,-389.95C2235.65,-384.47 2242.27,-378.2 2247.89,-372 2313.45,-299.69 2317.2,-271.44 2377.89,-195 2380.58,-191.62 2383.47,-188.1 2386.35,-184.66"/>
<polygon fill="black" stroke="black" points="2389.17,-186.76 2392.98,-176.87 2383.84,-182.22 2389.17,-186.76"/>
<text text-anchor="middle" x="2347.39" y="-317.3" font-family="Times,serif" font-size="14.00">previousActivity</text>
</g>
<!-- http://purl.org/dj/kaggle/data&#45;cleaning&#45;challenge&#45;parsing&#45;dates#584057915&#45;&gt;http://purl.org/dj/kaggle/data&#45;cleaning&#45;challenge&#45;parsing&#45;dates#80085334 -->
<g id="edge16" class="edge">
<title>http://purl.org/dj/kaggle/data&#45;cleaning&#45;challenge&#45;parsing&#45;dates#584057915&#45;&gt;http://purl.org/dj/kaggle/data&#45;cleaning&#45;challenge&#45;parsing&#45;dates#80085334</title>
<path fill="none" stroke="black" d="M2027.13,-304.18C1956.68,-284.29 1842.16,-252.34 1821.89,-249 1673.59,-224.55 1501.08,-216.77 1384.81,-214.51"/>
<polygon fill="black" stroke="black" points="1384.85,-211.01 1374.79,-214.32 1384.72,-218 1384.85,-211.01"/>
<text text-anchor="middle" x="2002.39" y="-263.3" font-family="Times,serif" font-size="14.00">previousActivity</text>
</g>
<!-- http://purl.org/dj/kaggle/data&#45;cleaning&#45;challenge&#45;parsing&#45;dates#1554976687 -->
<g id="node13" class="node">
<title>http://purl.org/dj/kaggle/data&#45;cleaning&#45;challenge&#45;parsing&#45;dates#1554976687</title>
<ellipse fill="none" stroke="black" cx="2068.89" cy="-159" rx="239.36" ry="18"/>
<text text-anchor="middle" x="2068.89" y="-155.3" font-family="Times,serif" font-size="14.00">1554976687 (../input/volcanic&#45;eruptions/database.csv(0): Reuse)</text>
</g>
<!-- http://purl.org/dj/kaggle/data&#45;cleaning&#45;challenge&#45;parsing&#45;dates#584057915&#45;&gt;http://purl.org/dj/kaggle/data&#45;cleaning&#45;challenge&#45;parsing&#45;dates#1554976687 -->
<g id="edge17" class="edge">
<title>http://purl.org/dj/kaggle/data&#45;cleaning&#45;challenge&#45;parsing&#45;dates#584057915&#45;&gt;http://purl.org/dj/kaggle/data&#45;cleaning&#45;challenge&#45;parsing&#45;dates#1554976687</title>
<path fill="none" stroke="black" d="M2081.39,-302.88C2078.97,-275.21 2074.18,-220.44 2071.28,-187.33"/>
<polygon fill="black" stroke="black" points="2074.74,-186.66 2070.38,-177 2067.76,-187.27 2074.74,-186.66"/>
<text text-anchor="middle" x="2124.39" y="-263.3" font-family="Times,serif" font-size="14.00">previousActivity</text>
</g>
<!-- http://purl.org/dj/kaggle/data&#45;cleaning&#45;challenge&#45;parsing&#45;dates#30998711&#45;&gt;http://purl.org/dj/kaggle/data&#45;cleaning&#45;challenge&#45;parsing&#45;dates -->
<g id="edge18" class="edge">
<title>http://purl.org/dj/kaggle/data&#45;cleaning&#45;challenge&#45;parsing&#45;dates#30998711&#45;&gt;http://purl.org/dj/kaggle/data&#45;cleaning&#45;challenge&#45;parsing&#45;dates</title>
<path fill="none" stroke="black" d="M2340.83,-146.23C2330.16,-144.43 2319.23,-142.63 2308.89,-141 2142.56,-114.75 2100.95,-108.1 1933.89,-87 1757.94,-64.78 1553.59,-43.41 1427.5,-30.74"/>
<polygon fill="black" stroke="black" points="1427.73,-27.25 1417.44,-29.73 1427.04,-34.21 1427.73,-27.25"/>
<text text-anchor="middle" x="2236.39" y="-101.3" font-family="Times,serif" font-size="14.00">previousActivity</text>
</g>
<!-- http://purl.org/dj/kaggle/data&#45;cleaning&#45;challenge&#45;parsing&#45;dates#1554976687&#45;&gt;http://purl.org/dj/kaggle/data&#45;cleaning&#45;challenge&#45;parsing&#45;dates -->
<g id="edge19" class="edge">
<title>http://purl.org/dj/kaggle/data&#45;cleaning&#45;challenge&#45;parsing&#45;dates#1554976687&#45;&gt;http://purl.org/dj/kaggle/data&#45;cleaning&#45;challenge&#45;parsing&#45;dates</title>
<path fill="none" stroke="black" d="M1982.34,-142.19C1836.2,-115.5 1542.15,-61.79 1395.38,-34.98"/>
<polygon fill="black" stroke="black" points="1395.97,-31.53 1385.5,-33.18 1394.71,-38.42 1395.97,-31.53"/>
<text text-anchor="middle" x="1903.39" y="-101.3" font-family="Times,serif" font-size="14.00">appearsIn</text>
</g>
<!-- http://purl.org/dj/kaggle/data&#45;cleaning&#45;challenge&#45;parsing&#45;dates#29687986 -->
<g id="node14" class="node">
<title>http://purl.org/dj/kaggle/data&#45;cleaning&#45;challenge&#45;parsing&#45;dates#29687986</title>
<ellipse fill="none" stroke="black" cx="94.89" cy="-159" rx="94.78" ry="18"/>
<text text-anchor="middle" x="94.89" y="-155.3" font-family="Times,serif" font-size="14.00">29687986 (0(0): Reuse)</text>
</g>
<!-- http://purl.org/dj/kaggle/data&#45;cleaning&#45;challenge&#45;parsing&#45;dates#29687986&#45;&gt;http://purl.org/dj/kaggle/data&#45;cleaning&#45;challenge&#45;parsing&#45;dates -->
<g id="edge20" class="edge">
<title>http://purl.org/dj/kaggle/data&#45;cleaning&#45;challenge&#45;parsing&#45;dates#29687986&#45;&gt;http://purl.org/dj/kaggle/data&#45;cleaning&#45;challenge&#45;parsing&#45;dates</title>
<path fill="none" stroke="black" d="M86.5,-140.96C80.03,-125.09 74.14,-101.72 86.89,-87 154.53,-8.96 214.03,-63.17 316.89,-54 612.06,-27.69 958.33,-20.94 1153.53,-19.34"/>
<polygon fill="black" stroke="black" points="1153.61,-22.84 1163.58,-19.26 1153.55,-15.84 1153.61,-22.84"/>
<text text-anchor="middle" x="132.39" y="-101.3" font-family="Times,serif" font-size="14.00">previousActivity</text>
</g>
<!-- http://purl.org/dj/kaggle/data&#45;cleaning&#45;challenge&#45;parsing&#45;dates#2737703504 -->
<g id="node15" class="node">
<title>http://purl.org/dj/kaggle/data&#45;cleaning&#45;challenge&#45;parsing&#45;dates#2737703504</title>
<ellipse fill="none" stroke="black" cx="534.89" cy="-603" rx="224.46" ry="18"/>
<text text-anchor="middle" x="534.89" y="-599.3" font-family="Times,serif" font-size="14.00">2737703504 (day_of_month_landslides(0)$1: Visualisation)</text>
</g>
<!-- http://purl.org/dj/kaggle/data&#45;cleaning&#45;challenge&#45;parsing&#45;dates#692192510 -->
<g id="node16" class="node">
<title>http://purl.org/dj/kaggle/data&#45;cleaning&#45;challenge&#45;parsing&#45;dates#692192510</title>
<ellipse fill="none" stroke="black" cx="358.89" cy="-462" rx="137.28" ry="18"/>
<text text-anchor="middle" x="358.89" y="-458.3" font-family="Times,serif" font-size="14.00">692192510 (date_parsed(0): Reuse)</text>
</g>
<!-- http://purl.org/dj/kaggle/data&#45;cleaning&#45;challenge&#45;parsing&#45;dates#2737703504&#45;&gt;http://purl.org/dj/kaggle/data&#45;cleaning&#45;challenge&#45;parsing&#45;dates#692192510 -->
<g id="edge21" class="edge">
<title>http://purl.org/dj/kaggle/data&#45;cleaning&#45;challenge&#45;parsing&#45;dates#2737703504&#45;&gt;http://purl.org/dj/kaggle/data&#45;cleaning&#45;challenge&#45;parsing&#45;dates#692192510</title>
<path fill="none" stroke="black" d="M463.08,-585.91C450.61,-581.11 438.31,-574.93 427.89,-567 401.22,-546.7 381.59,-512.96 370.23,-489.43"/>
<polygon fill="black" stroke="black" points="373.39,-487.95 366,-480.35 367.05,-490.9 373.39,-487.95"/>
<text text-anchor="middle" x="466.39" y="-555.8" font-family="Times,serif" font-size="14.00">assignedFrom</text>
</g>
<!-- http://purl.org/dj/kaggle/data&#45;cleaning&#45;challenge&#45;parsing&#45;dates#769852667 -->
<g id="node17" class="node">
<title>http://purl.org/dj/kaggle/data&#45;cleaning&#45;challenge&#45;parsing&#45;dates#769852667</title>
<ellipse fill="none" stroke="black" cx="1000.89" cy="-516" rx="157.87" ry="18"/>
<text text-anchor="middle" x="1000.89" y="-512.3" font-family="Times,serif" font-size="14.00">769852667 (landslides(0)$2: Preparation)</text>
</g>
<!-- http://purl.org/dj/kaggle/data&#45;cleaning&#45;challenge&#45;parsing&#45;dates#2737703504&#45;&gt;http://purl.org/dj/kaggle/data&#45;cleaning&#45;challenge&#45;parsing&#45;dates#769852667 -->
<g id="edge22" class="edge">
<title>http://purl.org/dj/kaggle/data&#45;cleaning&#45;challenge&#45;parsing&#45;dates#2737703504&#45;&gt;http://purl.org/dj/kaggle/data&#45;cleaning&#45;challenge&#45;parsing&#45;dates#769852667</title>
<path fill="none" stroke="black" d="M620.63,-586.36C703.11,-571.32 827.29,-548.66 911.1,-533.38"/>
<polygon fill="black" stroke="black" points="911.91,-536.79 921.12,-531.55 910.65,-529.9 911.91,-536.79"/>
<text text-anchor="middle" x="841.39" y="-555.8" font-family="Times,serif" font-size="14.00">previousActivity</text>
</g>
<!-- http://purl.org/dj/kaggle/data&#45;cleaning&#45;challenge&#45;parsing&#45;dates#692192510&#45;&gt;http://purl.org/dj/kaggle/data&#45;cleaning&#45;challenge&#45;parsing&#45;dates -->
<g id="edge23" class="edge">
<title>http://purl.org/dj/kaggle/data&#45;cleaning&#45;challenge&#45;parsing&#45;dates#692192510&#45;&gt;http://purl.org/dj/kaggle/data&#45;cleaning&#45;challenge&#45;parsing&#45;dates</title>
<path fill="none" stroke="black" d="M366.73,-443.66C394.63,-383.95 495.27,-185.22 640.89,-87 687.81,-55.35 708.04,-63.2 763.89,-54 894.74,-32.46 1045.34,-24.01 1154.85,-20.78"/>
<polygon fill="black" stroke="black" points="1155.09,-24.27 1164.99,-20.49 1154.89,-17.28 1155.09,-24.27"/>
<text text-anchor="middle" x="507.39" y="-263.3" font-family="Times,serif" font-size="14.00">appearsIn</text>
</g>
<!-- http://purl.org/dj/kaggle/data&#45;cleaning&#45;challenge&#45;parsing&#45;dates#769852667&#45;&gt;http://purl.org/dj/kaggle/data&#45;cleaning&#45;challenge&#45;parsing&#45;dates#769787130 -->
<g id="edge24" class="edge">
<title>http://purl.org/dj/kaggle/data&#45;cleaning&#45;challenge&#45;parsing&#45;dates#769852667&#45;&gt;http://purl.org/dj/kaggle/data&#45;cleaning&#45;challenge&#45;parsing&#45;dates#769787130</title>
<path fill="none" stroke="black" d="M1000.89,-497.97C1000.89,-481.38 1000.89,-455.88 1000.89,-436.43"/>
<polygon fill="black" stroke="black" points="1004.39,-436.34 1000.89,-426.34 997.39,-436.34 1004.39,-436.34"/>
<text text-anchor="middle" x="1013.89" y="-458.3" font-family="Times,serif" font-size="14.00">head</text>
</g>
<!-- http://purl.org/dj/kaggle/data&#45;cleaning&#45;challenge&#45;parsing&#45;dates#769852667&#45;&gt;http://purl.org/dj/kaggle/data&#45;cleaning&#45;challenge&#45;parsing&#45;dates#80085334 -->
<g id="edge25" class="edge">
<title>http://purl.org/dj/kaggle/data&#45;cleaning&#45;challenge&#45;parsing&#45;dates#769852667&#45;&gt;http://purl.org/dj/kaggle/data&#45;cleaning&#45;challenge&#45;parsing&#45;dates#80085334</title>
<path fill="none" stroke="black" d="M1154,-511.47C1297.54,-504.54 1497.28,-484.35 1546.89,-426 1623.89,-335.43 1428,-263.51 1318.62,-231.73"/>
<polygon fill="black" stroke="black" points="1319.54,-228.35 1308.96,-228.96 1317.61,-235.08 1319.54,-228.35"/>
<text text-anchor="middle" x="1608.39" y="-360.8" font-family="Times,serif" font-size="14.00">previousActivity</text>
</g>
<!-- http://purl.org/dj/kaggle/data&#45;cleaning&#45;challenge&#45;parsing&#45;dates#2737637967 -->
<g id="node18" class="node">
<title>http://purl.org/dj/kaggle/data&#45;cleaning&#45;challenge&#45;parsing&#45;dates#2737637967</title>
<ellipse fill="none" stroke="black" cx="1000.89" cy="-603" rx="224.46" ry="18"/>
<text text-anchor="middle" x="1000.89" y="-599.3" font-family="Times,serif" font-size="14.00">2737637967 (day_of_month_landslides(0)$0: Visualisation)</text>
</g>
<!-- http://purl.org/dj/kaggle/data&#45;cleaning&#45;challenge&#45;parsing&#45;dates#2737637967&#45;&gt;http://purl.org/dj/kaggle/data&#45;cleaning&#45;challenge&#45;parsing&#45;dates#165806624 -->
<g id="edge27" class="edge">
<title>http://purl.org/dj/kaggle/data&#45;cleaning&#45;challenge&#45;parsing&#45;dates#2737637967&#45;&gt;http://purl.org/dj/kaggle/data&#45;cleaning&#45;challenge&#45;parsing&#45;dates#165806624</title>
<path fill="none" stroke="black" d="M830.02,-591.29C721.74,-574.01 592.2,-531.03 537.89,-426 530.54,-411.79 529.35,-403.53 537.89,-390 553.52,-365.27 580.87,-349.34 607.49,-339.18"/>
<polygon fill="black" stroke="black" points="609.01,-342.36 617.25,-335.69 606.65,-335.77 609.01,-342.36"/>
<text text-anchor="middle" x="614.39" y="-458.3" font-family="Times,serif" font-size="14.00">assignedFrom</text>
</g>
<!-- http://purl.org/dj/kaggle/data&#45;cleaning&#45;challenge&#45;parsing&#45;dates#2737637967&#45;&gt;http://purl.org/dj/kaggle/data&#45;cleaning&#45;challenge&#45;parsing&#45;dates#769852667 -->
<g id="edge28" class="edge">
<title>http://purl.org/dj/kaggle/data&#45;cleaning&#45;challenge&#45;parsing&#45;dates#2737637967&#45;&gt;http://purl.org/dj/kaggle/data&#45;cleaning&#45;challenge&#45;parsing&#45;dates#769852667</title>
<path fill="none" stroke="black" d="M1000.89,-584.8C1000.89,-573.16 1000.89,-557.55 1000.89,-544.24"/>
<polygon fill="black" stroke="black" points="1004.39,-544.18 1000.89,-534.18 997.39,-544.18 1004.39,-544.18"/>
<text text-anchor="middle" x="1046.39" y="-555.8" font-family="Times,serif" font-size="14.00">previousActivity</text>
</g>
<!-- http://purl.org/dj/kaggle/data&#45;cleaning&#45;challenge&#45;parsing&#45;dates#128647638 -->
<g id="node19" class="node">
<title>http://purl.org/dj/kaggle/data&#45;cleaning&#45;challenge&#45;parsing&#45;dates#128647638</title>
<ellipse fill="none" stroke="black" cx="2517.89" cy="-213" rx="131.08" ry="18"/>
<text text-anchor="middle" x="2517.89" y="-209.3" font-family="Times,serif" font-size="14.00">128647638 (sns(0): Visualisation)</text>
</g>
<!-- http://purl.org/dj/kaggle/data&#45;cleaning&#45;challenge&#45;parsing&#45;dates#128647638&#45;&gt;http://purl.org/dj/kaggle/data&#45;cleaning&#45;challenge&#45;parsing&#45;dates -->
<g id="edge29" class="edge">
<title>http://purl.org/dj/kaggle/data&#45;cleaning&#45;challenge&#45;parsing&#45;dates#128647638&#45;&gt;http://purl.org/dj/kaggle/data&#45;cleaning&#45;challenge&#45;parsing&#45;dates</title>
<path fill="none" stroke="black" d="M2519.64,-194.75C2520.26,-178.5 2518.3,-154.65 2503.89,-141 2483.2,-121.39 2404.45,-130.29 2376.89,-123 2334.85,-111.87 2328.31,-96.62 2285.89,-87 2132.25,-52.15 1689.4,-32.14 1455.95,-23.74"/>
<polygon fill="black" stroke="black" points="1455.8,-20.23 1445.68,-23.37 1455.55,-27.22 1455.8,-20.23"/>
<text text-anchor="middle" x="2403.39" y="-101.3" font-family="Times,serif" font-size="14.00">appearsIn</text>
</g>
<!-- http://purl.org/dj/python/lib/194380523 -->
<g id="node20" class="node">
<title>http://purl.org/dj/python/lib/194380523</title>
<ellipse fill="none" stroke="black" cx="2550.89" cy="-105" rx="112.38" ry="18"/>
<text text-anchor="middle" x="2550.89" y="-101.3" font-family="Times,serif" font-size="14.00">194380523 (seaborn: Reuse)</text>
</g>
<!-- http://purl.org/dj/kaggle/data&#45;cleaning&#45;challenge&#45;parsing&#45;dates#128647638&#45;&gt;http://purl.org/dj/python/lib/194380523 -->
<g id="edge30" class="edge">
<title>http://purl.org/dj/kaggle/data&#45;cleaning&#45;challenge&#45;parsing&#45;dates#128647638&#45;&gt;http://purl.org/dj/python/lib/194380523</title>
<path fill="none" stroke="black" d="M2523.28,-194.91C2525.07,-189.22 2527.07,-182.84 2528.89,-177 2533.41,-162.52 2538.42,-146.36 2542.51,-133.12"/>
<polygon fill="black" stroke="black" points="2545.97,-133.81 2545.58,-123.22 2539.28,-131.74 2545.97,-133.81"/>
<text text-anchor="middle" x="2584.39" y="-155.3" font-family="Times,serif" font-size="14.00">previousActivity</text>
</g>
<!-- http://purl.org/dj/python/lib/194380523&#45;&gt;http://purl.org/dj/kaggle/data&#45;cleaning&#45;challenge&#45;parsing&#45;dates -->
<g id="edge31" class="edge">
<title>http://purl.org/dj/python/lib/194380523&#45;&gt;http://purl.org/dj/kaggle/data&#45;cleaning&#45;challenge&#45;parsing&#45;dates</title>
<path fill="none" stroke="black" d="M2508.53,-88.18C2474.76,-76.38 2425.99,-61.12 2381.89,-54 2209.69,-26.19 1715.99,-20.33 1462.36,-19.2"/>
<polygon fill="black" stroke="black" points="1462.34,-15.7 1452.33,-19.15 1462.31,-22.7 1462.34,-15.7"/>
<text text-anchor="middle" x="2475.89" y="-57.8" font-family="Times,serif" font-size="14.00">importedBy</text>
</g>
<!-- http://purl.org/dj/kaggle/data&#45;cleaning&#45;challenge&#45;parsing&#45;dates#136577460 -->
<g id="node21" class="node">
<title>http://purl.org/dj/kaggle/data&#45;cleaning&#45;challenge&#45;parsing&#45;dates#136577460</title>
<ellipse fill="none" stroke="black" cx="202.89" cy="-321" rx="137.58" ry="18"/>
<text text-anchor="middle" x="202.89" y="-317.3" font-family="Times,serif" font-size="14.00">136577460 (np(0)$0: Visualisation)</text>
</g>
<!-- http://purl.org/dj/kaggle/data&#45;cleaning&#45;challenge&#45;parsing&#45;dates#136577460&#45;&gt;http://purl.org/dj/kaggle/data&#45;cleaning&#45;challenge&#45;parsing&#45;dates#29687986 -->
<g id="edge32" class="edge">
<title>http://purl.org/dj/kaggle/data&#45;cleaning&#45;challenge&#45;parsing&#45;dates#136577460&#45;&gt;http://purl.org/dj/kaggle/data&#45;cleaning&#45;challenge&#45;parsing&#45;dates#29687986</title>
<path fill="none" stroke="black" d="M165.01,-303.67C156.55,-298.65 148.22,-292.44 141.89,-285 117.76,-256.62 105.4,-214.63 99.55,-187.29"/>
<polygon fill="black" stroke="black" points="102.94,-186.36 97.55,-177.24 96.07,-187.73 102.94,-186.36"/>
<text text-anchor="middle" x="187.39" y="-263.3" font-family="Times,serif" font-size="14.00">previousActivity</text>
</g>
<!-- http://purl.org/dj/kaggle/data&#45;cleaning&#45;challenge&#45;parsing&#45;dates#82575712 -->
<g id="node22" class="node">
<title>http://purl.org/dj/kaggle/data&#45;cleaning&#45;challenge&#45;parsing&#45;dates#82575712</title>
<ellipse fill="none" stroke="black" cx="296.89" cy="-213" rx="124.28" ry="18"/>
<text text-anchor="middle" x="296.89" y="-209.3" font-family="Times,serif" font-size="14.00">82575712 (np(0): Visualisation)</text>
</g>
<!-- http://purl.org/dj/kaggle/data&#45;cleaning&#45;challenge&#45;parsing&#45;dates#136577460&#45;&gt;http://purl.org/dj/kaggle/data&#45;cleaning&#45;challenge&#45;parsing&#45;dates#82575712 -->
<g id="edge33" class="edge">
<title>http://purl.org/dj/kaggle/data&#45;cleaning&#45;challenge&#45;parsing&#45;dates#136577460&#45;&gt;http://purl.org/dj/kaggle/data&#45;cleaning&#45;challenge&#45;parsing&#45;dates#82575712</title>
<path fill="none" stroke="black" d="M217.99,-302.97C233.41,-285.58 257.5,-258.42 275.01,-238.68"/>
<polygon fill="black" stroke="black" points="277.81,-240.79 281.83,-230.99 272.57,-236.15 277.81,-240.79"/>
<text text-anchor="middle" x="276.39" y="-263.3" font-family="Times,serif" font-size="14.00">seed</text>
</g>
<!-- http://purl.org/dj/kaggle/data&#45;cleaning&#45;challenge&#45;parsing&#45;dates#82575712&#45;&gt;http://purl.org/dj/python/lib/111084090 -->
<g id="edge34" class="edge">
<title>http://purl.org/dj/kaggle/data&#45;cleaning&#45;challenge&#45;parsing&#45;dates#82575712&#45;&gt;http://purl.org/dj/python/lib/111084090</title>
<path fill="none" stroke="black" d="M296.89,-194.97C296.89,-178.38 296.89,-152.88 296.89,-133.43"/>
<polygon fill="black" stroke="black" points="300.39,-133.34 296.89,-123.34 293.39,-133.34 300.39,-133.34"/>
<text text-anchor="middle" x="342.39" y="-155.3" font-family="Times,serif" font-size="14.00">previousActivity</text>
</g>
<!-- http://purl.org/dj/kaggle/data&#45;cleaning&#45;challenge&#45;parsing&#45;dates#82575712&#45;&gt;http://purl.org/dj/kaggle/data&#45;cleaning&#45;challenge&#45;parsing&#45;dates -->
<g id="edge35" class="edge">
<title>http://purl.org/dj/kaggle/data&#45;cleaning&#45;challenge&#45;parsing&#45;dates#82575712&#45;&gt;http://purl.org/dj/kaggle/data&#45;cleaning&#45;challenge&#45;parsing&#45;dates</title>
<path fill="none" stroke="black" d="M354.47,-196.98C367.55,-191.94 380.83,-185.39 391.89,-177 431.2,-147.17 417.51,-116.73 456.89,-87 491.23,-61.08 505.7,-62.42 547.89,-54 659.74,-31.68 966.55,-23.55 1154.37,-20.62"/>
<polygon fill="black" stroke="black" points="1154.67,-24.11 1164.62,-20.46 1154.57,-17.11 1154.67,-24.11"/>
<text text-anchor="middle" x="502.39" y="-101.3" font-family="Times,serif" font-size="14.00">previousActivity</text>
</g>
<!-- http://purl.org/dj/kaggle/data&#45;cleaning&#45;challenge&#45;parsing&#45;dates#249692951 -->
<g id="node23" class="node">
<title>http://purl.org/dj/kaggle/data&#45;cleaning&#45;challenge&#45;parsing&#45;dates#249692951</title>
<ellipse fill="none" stroke="black" cx="682.89" cy="-408" rx="136.48" ry="18"/>
<text text-anchor="middle" x="682.89" y="-404.3" font-family="Times,serif" font-size="14.00">249692951 (print[1]: Visualisation)</text>
</g>
<!-- http://purl.org/dj/kaggle/data&#45;cleaning&#45;challenge&#45;parsing&#45;dates#249692951&#45;&gt;http://purl.org/dj/kaggle/data&#45;cleaning&#45;challenge&#45;parsing&#45;dates#165806624 -->
<g id="edge36" class="edge">
<title>http://purl.org/dj/kaggle/data&#45;cleaning&#45;challenge&#45;parsing&#45;dates#249692951&#45;&gt;http://purl.org/dj/kaggle/data&#45;cleaning&#45;challenge&#45;parsing&#45;dates#165806624</title>
<path fill="none" stroke="black" d="M682.49,-389.8C682.21,-378.16 681.85,-362.55 681.53,-349.24"/>
<polygon fill="black" stroke="black" points="685.03,-349.09 681.3,-339.18 678.03,-349.26 685.03,-349.09"/>
<text text-anchor="middle" x="695.89" y="-360.8" font-family="Times,serif" font-size="14.00">print</text>
</g>
<!-- http://purl.org/dj/kaggle/data&#45;cleaning&#45;challenge&#45;parsing&#45;dates#892142964 -->
<g id="node24" class="node">
<title>http://purl.org/dj/kaggle/data&#45;cleaning&#45;challenge&#45;parsing&#45;dates#892142964</title>
<ellipse fill="none" stroke="black" cx="1748.89" cy="-321" rx="163.27" ry="18"/>
<text text-anchor="middle" x="1748.89" y="-317.3" font-family="Times,serif" font-size="14.00">892142964 (earthquakes(0)$0: Movement)</text>
</g>
<!-- http://purl.org/dj/kaggle/data&#45;cleaning&#45;challenge&#45;parsing&#45;dates#892142964&#45;&gt;http://purl.org/dj/kaggle/data&#45;cleaning&#45;challenge&#45;parsing&#45;dates#80085334 -->
<g id="edge37" class="edge">
<title>http://purl.org/dj/kaggle/data&#45;cleaning&#45;challenge&#45;parsing&#45;dates#892142964&#45;&gt;http://purl.org/dj/kaggle/data&#45;cleaning&#45;challenge&#45;parsing&#45;dates#80085334</title>
<path fill="none" stroke="black" d="M1667.78,-305.35C1649.46,-300.32 1630.53,-293.68 1613.89,-285 1592.1,-273.62 1594.45,-258.77 1571.89,-249 1537.56,-234.13 1451.77,-225.26 1377.51,-220.16"/>
<polygon fill="black" stroke="black" points="1377.33,-216.64 1367.12,-219.47 1376.86,-223.63 1377.33,-216.64"/>
<text text-anchor="middle" x="1659.39" y="-263.3" font-family="Times,serif" font-size="14.00">previousActivity</text>
</g>
<!-- http://purl.org/dj/kaggle/data&#45;cleaning&#45;challenge&#45;parsing&#45;dates#1761284055 -->
<g id="node25" class="node">
<title>http://purl.org/dj/kaggle/data&#45;cleaning&#45;challenge&#45;parsing&#45;dates#1761284055</title>
<ellipse fill="none" stroke="black" cx="1578.89" cy="-159" rx="245.86" ry="18"/>
<text text-anchor="middle" x="1578.89" y="-155.3" font-family="Times,serif" font-size="14.00">1761284055 (../input/earthquake&#45;database/database.csv(0): Reuse)</text>
</g>
<!-- http://purl.org/dj/kaggle/data&#45;cleaning&#45;challenge&#45;parsing&#45;dates#892142964&#45;&gt;http://purl.org/dj/kaggle/data&#45;cleaning&#45;challenge&#45;parsing&#45;dates#1761284055 -->
<g id="edge38" class="edge">
<title>http://purl.org/dj/kaggle/data&#45;cleaning&#45;challenge&#45;parsing&#45;dates#892142964&#45;&gt;http://purl.org/dj/kaggle/data&#45;cleaning&#45;challenge&#45;parsing&#45;dates#1761284055</title>
<path fill="none" stroke="black" d="M1738.11,-302.94C1734.52,-297.24 1730.52,-290.86 1726.89,-285 1717.01,-269.06 1717.7,-262.69 1704.89,-249 1679.66,-222.03 1645.04,-198.29 1618.48,-182.13"/>
<polygon fill="black" stroke="black" points="1620.19,-179.07 1609.81,-176.94 1616.59,-185.08 1620.19,-179.07"/>
<text text-anchor="middle" x="1772.39" y="-263.3" font-family="Times,serif" font-size="14.00">previousActivity</text>
</g>
<!-- http://purl.org/dj/kaggle/data&#45;cleaning&#45;challenge&#45;parsing&#45;dates#1761284055&#45;&gt;http://purl.org/dj/kaggle/data&#45;cleaning&#45;challenge&#45;parsing&#45;dates -->
<g id="edge39" class="edge">
<title>http://purl.org/dj/kaggle/data&#45;cleaning&#45;challenge&#45;parsing&#45;dates#1761284055&#45;&gt;http://purl.org/dj/kaggle/data&#45;cleaning&#45;challenge&#45;parsing&#45;dates</title>
<path fill="none" stroke="black" d="M1566.58,-140.95C1554.82,-125.5 1535.96,-102.8 1515.89,-87 1483.35,-61.38 1440.81,-45.25 1402.69,-35.17"/>
<polygon fill="black" stroke="black" points="1403.13,-31.67 1392.58,-32.61 1401.42,-38.46 1403.13,-31.67"/>
<text text-anchor="middle" x="1578.39" y="-101.3" font-family="Times,serif" font-size="14.00">appearsIn</text>
</g>
<!-- http://purl.org/dj/python/lib/248120142 -->
<g id="node26" class="node">
<title>http://purl.org/dj/python/lib/248120142</title>
<ellipse fill="none" stroke="black" cx="2796.89" cy="-105" rx="115.88" ry="18"/>
<text text-anchor="middle" x="2796.89" y="-101.3" font-family="Times,serif" font-size="14.00">248120142 (datetime: Reuse)</text>
</g>
<!-- http://purl.org/dj/python/lib/248120142&#45;&gt;http://purl.org/dj/kaggle/data&#45;cleaning&#45;challenge&#45;parsing&#45;dates -->
<g id="edge40" class="edge">
<title>http://purl.org/dj/python/lib/248120142&#45;&gt;http://purl.org/dj/kaggle/data&#45;cleaning&#45;challenge&#45;parsing&#45;dates</title>
<path fill="none" stroke="black" d="M2732.69,-89.95C2675.37,-78.06 2588.97,-61.76 2512.89,-54 2313.59,-33.67 1738.47,-24.17 1461.09,-20.68"/>
<polygon fill="black" stroke="black" points="1460.99,-17.17 1450.95,-20.55 1460.9,-24.17 1460.99,-17.17"/>
<text text-anchor="middle" x="2647.89" y="-57.8" font-family="Times,serif" font-size="14.00">importedBy</text>
</g>
<!-- http://purl.org/dj/kaggle/data&#45;cleaning&#45;challenge&#45;parsing&#45;dates#431293391 -->
<g id="node27" class="node">
<title>http://purl.org/dj/kaggle/data&#45;cleaning&#45;challenge&#45;parsing&#45;dates#431293391</title>
<ellipse fill="none" stroke="black" cx="2892.89" cy="-213" rx="150.57" ry="18"/>
<text text-anchor="middle" x="2892.89" y="-209.3" font-family="Times,serif" font-size="14.00">431293391 (datetime(0): Visualisation)</text>
</g>
<!-- http://purl.org/dj/kaggle/data&#45;cleaning&#45;challenge&#45;parsing&#45;dates#431293391&#45;&gt;http://purl.org/dj/kaggle/data&#45;cleaning&#45;challenge&#45;parsing&#45;dates -->
<g id="edge41" class="edge">
<title>http://purl.org/dj/kaggle/data&#45;cleaning&#45;challenge&#45;parsing&#45;dates#431293391&#45;&gt;http://purl.org/dj/kaggle/data&#45;cleaning&#45;challenge&#45;parsing&#45;dates</title>
<path fill="none" stroke="black" d="M2920.15,-195.24C2926.09,-190.17 2931.59,-184.05 2934.89,-177 2952.03,-140.4 2951.83,-114.15 2921.89,-87 2868.35,-38.46 1854.31,-24 1461.51,-20.21"/>
<polygon fill="black" stroke="black" points="1461.52,-16.71 1451.49,-20.11 1461.46,-23.71 1461.52,-16.71"/>
<text text-anchor="middle" x="2990.39" y="-101.3" font-family="Times,serif" font-size="14.00">previousActivity</text>
</g>
<!-- http://purl.org/dj/kaggle/data&#45;cleaning&#45;challenge&#45;parsing&#45;dates#431293391&#45;&gt;http://purl.org/dj/python/lib/248120142 -->
<g id="edge42" class="edge">
<title>http://purl.org/dj/kaggle/data&#45;cleaning&#45;challenge&#45;parsing&#45;dates#431293391&#45;&gt;http://purl.org/dj/python/lib/248120142</title>
<path fill="none" stroke="black" d="M2875.18,-194.81C2869.56,-189.22 2863.38,-182.92 2857.89,-177 2843.95,-161.96 2828.92,-144.49 2817.27,-130.64"/>
<polygon fill="black" stroke="black" points="2819.94,-128.38 2810.84,-122.95 2814.57,-132.87 2819.94,-128.38"/>
<text text-anchor="middle" x="2896.39" y="-155.3" font-family="Times,serif" font-size="14.00">assignedFrom</text>
</g>
<!-- http://purl.org/dj/kaggle/data&#45;cleaning&#45;challenge&#45;parsing&#45;dates#198115882 -->
<g id="node28" class="node">
<title>http://purl.org/dj/kaggle/data&#45;cleaning&#45;challenge&#45;parsing&#45;dates#198115882</title>
<ellipse fill="none" stroke="black" cx="2337.89" cy="-777" rx="139.98" ry="18"/>
<text text-anchor="middle" x="2337.89" y="-773.3" font-family="Times,serif" font-size="14.00">198115882 (sns(0)$0: Visualisation)</text>
</g>
<!-- http://purl.org/dj/kaggle/data&#45;cleaning&#45;challenge&#45;parsing&#45;dates#198115882&#45;&gt;http://purl.org/dj/kaggle/data&#45;cleaning&#45;challenge&#45;parsing&#45;dates#128647638 -->
<g id="edge43" class="edge">
<title>http://purl.org/dj/kaggle/data&#45;cleaning&#45;challenge&#45;parsing&#45;dates#198115882&#45;&gt;http://purl.org/dj/kaggle/data&#45;cleaning&#45;challenge&#45;parsing&#45;dates#128647638</title>
<path fill="none" stroke="black" d="M2392.27,-760.37C2424.02,-747.54 2457.89,-725.72 2457.89,-691 2457.89,-691 2457.89,-691 2457.89,-320 2457.89,-289.15 2477.38,-259.03 2494.14,-238.84"/>
<polygon fill="black" stroke="black" points="2496.96,-240.93 2500.86,-231.08 2491.67,-236.35 2496.96,-240.93"/>
<text text-anchor="middle" x="2478.39" y="-512.3" font-family="Times,serif" font-size="14.00">distplot</text>
</g>
<!-- http://purl.org/dj/kaggle/data&#45;cleaning&#45;challenge&#45;parsing&#45;dates#2737769041 -->
<g id="node29" class="node">
<title>http://purl.org/dj/kaggle/data&#45;cleaning&#45;challenge&#45;parsing&#45;dates#2737769041</title>
<ellipse fill="none" stroke="black" cx="894.89" cy="-690" rx="224.46" ry="18"/>
<text text-anchor="middle" x="894.89" y="-686.3" font-family="Times,serif" font-size="14.00">2737769041 (day_of_month_landslides(0)$2: Visualisation)</text>
</g>
<!-- http://purl.org/dj/kaggle/data&#45;cleaning&#45;challenge&#45;parsing&#45;dates#198115882&#45;&gt;http://purl.org/dj/kaggle/data&#45;cleaning&#45;challenge&#45;parsing&#45;dates#2737769041 -->
<g id="edge44" class="edge">
<title>http://purl.org/dj/kaggle/data&#45;cleaning&#45;challenge&#45;parsing&#45;dates#198115882&#45;&gt;http://purl.org/dj/kaggle/data&#45;cleaning&#45;challenge&#45;parsing&#45;dates#2737769041</title>
<path fill="none" stroke="black" d="M2213.61,-768.68C1959.29,-753.7 1378.32,-719.48 1079.66,-701.88"/>
<polygon fill="black" stroke="black" points="1079.79,-698.39 1069.6,-701.29 1079.37,-705.37 1079.79,-698.39"/>
<text text-anchor="middle" x="1723.39" y="-729.8" font-family="Times,serif" font-size="14.00">distplot</text>
</g>
<!-- http://purl.org/dj/kaggle/data&#45;cleaning&#45;challenge&#45;parsing&#45;dates#2737769041&#45;&gt;http://purl.org/dj/kaggle/data&#45;cleaning&#45;challenge&#45;parsing&#45;dates#2737703504 -->
<g id="edge45" class="edge">
<title>http://purl.org/dj/kaggle/data&#45;cleaning&#45;challenge&#45;parsing&#45;dates#2737769041&#45;&gt;http://purl.org/dj/kaggle/data&#45;cleaning&#45;challenge&#45;parsing&#45;dates#2737703504</title>
<path fill="none" stroke="black" d="M826.33,-672.81C765.62,-658.48 677.03,-637.56 613.48,-622.56"/>
<polygon fill="black" stroke="black" points="614.04,-619.09 603.5,-620.2 612.43,-625.9 614.04,-619.09"/>
<text text-anchor="middle" x="755.89" y="-642.8" font-family="Times,serif" font-size="14.00">dropna</text>
</g>
<!-- http://purl.org/dj/kaggle/data&#45;cleaning&#45;challenge&#45;parsing&#45;dates#249561878 -->
<g id="node30" class="node">
<title>http://purl.org/dj/kaggle/data&#45;cleaning&#45;challenge&#45;parsing&#45;dates#249561878</title>
<ellipse fill="none" stroke="black" cx="1401.89" cy="-408" rx="136.48" ry="18"/>
<text text-anchor="middle" x="1401.89" y="-404.3" font-family="Times,serif" font-size="14.00">249561878 (print[0]: Visualisation)</text>
</g>
<!-- http://purl.org/dj/kaggle/data&#45;cleaning&#45;challenge&#45;parsing&#45;dates#249561878&#45;&gt;http://purl.org/dj/kaggle/data&#45;cleaning&#45;challenge&#45;parsing&#45;dates#769721593 -->
<g id="edge46" class="edge">
<title>http://purl.org/dj/kaggle/data&#45;cleaning&#45;challenge&#45;parsing&#45;dates#249561878&#45;&gt;http://purl.org/dj/kaggle/data&#45;cleaning&#45;challenge&#45;parsing&#45;dates#769721593</title>
<path fill="none" stroke="black" d="M1339.54,-391.9C1279.43,-377.34 1188.42,-355.31 1124.71,-339.88"/>
<polygon fill="black" stroke="black" points="1125.27,-336.41 1114.73,-337.46 1123.63,-343.22 1125.27,-336.41"/>
<text text-anchor="middle" x="1293.39" y="-360.8" font-family="Times,serif" font-size="14.00">previousActivity</text>
</g>
</g>
</svg>
