<?xml version="1.0" encoding="UTF-8" standalone="no"?>
<!DOCTYPE svg PUBLIC "-//W3C//DTD SVG 1.1//EN"
 "http://www.w3.org/Graphics/SVG/1.1/DTD/svg11.dtd">
<!-- Generated by graphviz version 2.47.1 (20210417.1919)
 -->
<!-- Pages: 1 -->
<svg width="650pt" height="392pt"
 viewBox="0.00 0.00 650.37 392.00" xmlns="http://www.w3.org/2000/svg" xmlns:xlink="http://www.w3.org/1999/xlink">
<g id="graph0" class="graph" transform="scale(1 1) rotate(0) translate(4 388)">
<polygon fill="white" stroke="transparent" points="-4,4 -4,-388 646.37,-388 646.37,4 -4,4"/>
<!-- http://purl.org/dj/kaggle/data&#45;leakage/activity/3503965955210731310 -->
<g id="node1" class="node">
<title>http://purl.org/dj/kaggle/data&#45;leakage/activity/3503965955210731310</title>
<ellipse fill="none" stroke="black" cx="336.94" cy="-105" rx="124.28" ry="18"/>
<text text-anchor="middle" x="336.94" y="-101.3" font-family="Times,serif" font-size="14.00">3503965955210731310 (Reuse)</text>
</g>
<!-- http://purl.org/dj/kaggle/data&#45;leakage -->
<g id="node2" class="node">
<title>http://purl.org/dj/kaggle/data&#45;leakage</title>
<ellipse fill="none" stroke="black" cx="452.94" cy="-18" rx="129.98" ry="18"/>
<text text-anchor="middle" x="452.94" y="-14.3" font-family="Times,serif" font-size="14.00">data&#45;leakage (data&#45;leakage.ipynb)</text>
</g>
<!-- http://purl.org/dj/kaggle/data&#45;leakage/activity/3503965955210731310&#45;&gt;http://purl.org/dj/kaggle/data&#45;leakage -->
<g id="edge1" class="edge">
<title>http://purl.org/dj/kaggle/data&#45;leakage/activity/3503965955210731310&#45;&gt;http://purl.org/dj/kaggle/data&#45;leakage</title>
<path fill="none" stroke="black" d="M359.85,-87.21C377.57,-74.23 402.28,-56.12 421.79,-41.83"/>
<polygon fill="black" stroke="black" points="424.07,-44.49 430.07,-35.76 419.93,-38.85 424.07,-44.49"/>
<text text-anchor="middle" x="424.44" y="-57.8" font-family="Times,serif" font-size="14.00">previous</text>
</g>
<!-- http://purl.org/dj/kaggle/data&#45;leakage/activity/&#45;5938044937505803777 -->
<g id="node3" class="node">
<title>http://purl.org/dj/kaggle/data&#45;leakage/activity/&#45;5938044937505803777</title>
<ellipse fill="none" stroke="black" cx="490.94" cy="-366" rx="151.37" ry="18"/>
<text text-anchor="middle" x="490.94" y="-362.3" font-family="Times,serif" font-size="14.00">&#45;5938044937505803777 (Visualisation)</text>
</g>
<!-- http://purl.org/dj/kaggle/data&#45;leakage/activity/&#45;5938044937505803777&#45;&gt;http://purl.org/dj/kaggle/data&#45;leakage/activity/3503965955210731310 -->
<g id="edge2" class="edge">
<title>http://purl.org/dj/kaggle/data&#45;leakage/activity/&#45;5938044937505803777&#45;&gt;http://purl.org/dj/kaggle/data&#45;leakage/activity/3503965955210731310</title>
<path fill="none" stroke="black" d="M492.95,-347.75C497.44,-306.26 506.48,-202.19 487.94,-174 471.61,-149.18 443.87,-133.32 416.59,-123.23"/>
<polygon fill="black" stroke="black" points="417.57,-119.86 406.97,-119.89 415.27,-126.48 417.57,-119.86"/>
<text text-anchor="middle" x="522.44" y="-231.8" font-family="Times,serif" font-size="14.00">previous</text>
</g>
<!-- http://purl.org/dj/kaggle/data&#45;leakage/activity/&#45;5938044937505803777&#45;&gt;http://purl.org/dj/kaggle/data&#45;leakage -->
<g id="edge3" class="edge">
<title>http://purl.org/dj/kaggle/data&#45;leakage/activity/&#45;5938044937505803777&#45;&gt;http://purl.org/dj/kaggle/data&#45;leakage</title>
<path fill="none" stroke="black" d="M520.87,-348.21C542.87,-333.42 568.94,-309.64 568.94,-280 568.94,-280 568.94,-280 568.94,-104 568.94,-72.91 541.49,-51.95 513.3,-38.63"/>
<polygon fill="black" stroke="black" points="514.71,-35.43 504.15,-34.57 511.87,-41.83 514.71,-35.43"/>
<text text-anchor="middle" x="592.44" y="-188.3" font-family="Times,serif" font-size="14.00">previous</text>
</g>
<!-- http://purl.org/dj/kaggle/data&#45;leakage/activity/7203154848098177254 -->
<g id="node4" class="node">
<title>http://purl.org/dj/kaggle/data&#45;leakage/activity/7203154848098177254</title>
<ellipse fill="none" stroke="black" cx="157.94" cy="-279" rx="142.97" ry="18"/>
<text text-anchor="middle" x="157.94" y="-275.3" font-family="Times,serif" font-size="14.00">7203154848098177254 (Preparation)</text>
</g>
<!-- http://purl.org/dj/kaggle/data&#45;leakage/activity/&#45;5938044937505803777&#45;&gt;http://purl.org/dj/kaggle/data&#45;leakage/activity/7203154848098177254 -->
<g id="edge4" class="edge">
<title>http://purl.org/dj/kaggle/data&#45;leakage/activity/&#45;5938044937505803777&#45;&gt;http://purl.org/dj/kaggle/data&#45;leakage/activity/7203154848098177254</title>
<path fill="none" stroke="black" d="M430.25,-349.51C373.2,-334.95 287.87,-313.17 227.97,-297.88"/>
<polygon fill="black" stroke="black" points="228.76,-294.47 218.21,-295.38 227.03,-301.25 228.76,-294.47"/>
<text text-anchor="middle" x="367.44" y="-318.8" font-family="Times,serif" font-size="14.00">previous</text>
</g>
<!-- http://purl.org/dj/kaggle/data&#45;leakage/activity/7203154848098177254&#45;&gt;http://purl.org/dj/kaggle/data&#45;leakage/activity/3503965955210731310 -->
<g id="edge5" class="edge">
<title>http://purl.org/dj/kaggle/data&#45;leakage/activity/7203154848098177254&#45;&gt;http://purl.org/dj/kaggle/data&#45;leakage/activity/3503965955210731310</title>
<path fill="none" stroke="black" d="M147.62,-260.83C135.83,-238.7 120.38,-199.99 138.94,-174 159.69,-144.92 193.7,-128.15 227.73,-118.52"/>
<polygon fill="black" stroke="black" points="229.01,-121.8 237.79,-115.87 227.23,-115.03 229.01,-121.8"/>
<text text-anchor="middle" x="162.44" y="-188.3" font-family="Times,serif" font-size="14.00">previous</text>
</g>
<!-- http://purl.org/dj/kaggle/data&#45;leakage/activity/7453651380963302460 -->
<g id="node5" class="node">
<title>http://purl.org/dj/kaggle/data&#45;leakage/activity/7453651380963302460</title>
<ellipse fill="none" stroke="black" cx="336.94" cy="-192" rx="141.88" ry="18"/>
<text text-anchor="middle" x="336.94" y="-188.3" font-family="Times,serif" font-size="14.00">7453651380963302460 (Movement)</text>
</g>
<!-- http://purl.org/dj/kaggle/data&#45;leakage/activity/7203154848098177254&#45;&gt;http://purl.org/dj/kaggle/data&#45;leakage/activity/7453651380963302460 -->
<g id="edge6" class="edge">
<title>http://purl.org/dj/kaggle/data&#45;leakage/activity/7203154848098177254&#45;&gt;http://purl.org/dj/kaggle/data&#45;leakage/activity/7453651380963302460</title>
<path fill="none" stroke="black" d="M192.87,-261.41C221.46,-247.84 262.05,-228.56 292.86,-213.93"/>
<polygon fill="black" stroke="black" points="294.55,-217 302.09,-209.55 291.55,-210.68 294.55,-217"/>
<text text-anchor="middle" x="281.44" y="-231.8" font-family="Times,serif" font-size="14.00">previous</text>
</g>
<!-- http://purl.org/dj/kaggle/data&#45;leakage/activity/7453651380963302460&#45;&gt;http://purl.org/dj/kaggle/data&#45;leakage/activity/3503965955210731310 -->
<g id="edge10" class="edge">
<title>http://purl.org/dj/kaggle/data&#45;leakage/activity/7453651380963302460&#45;&gt;http://purl.org/dj/kaggle/data&#45;leakage/activity/3503965955210731310</title>
<path fill="none" stroke="black" d="M336.94,-173.8C336.94,-162.16 336.94,-146.55 336.94,-133.24"/>
<polygon fill="black" stroke="black" points="340.44,-133.18 336.94,-123.18 333.44,-133.18 340.44,-133.18"/>
<text text-anchor="middle" x="360.44" y="-144.8" font-family="Times,serif" font-size="14.00">previous</text>
</g>
<!-- http://purl.org/dj/kaggle/data&#45;leakage/activity/7453651380963302460&#45;&gt;http://purl.org/dj/kaggle/data&#45;leakage/activity/&#45;5938044937505803777 -->
<g id="edge11" class="edge">
<title>http://purl.org/dj/kaggle/data&#45;leakage/activity/7453651380963302460&#45;&gt;http://purl.org/dj/kaggle/data&#45;leakage/activity/&#45;5938044937505803777</title>
<path fill="none" stroke="black" d="M352.2,-210.05C379.6,-240.65 437.2,-304.99 468.89,-340.37"/>
<polygon fill="black" stroke="black" points="466.33,-342.76 475.61,-347.88 471.54,-338.09 466.33,-342.76"/>
<text text-anchor="middle" x="452.44" y="-275.3" font-family="Times,serif" font-size="14.00">previous</text>
</g>
<!-- http://purl.org/dj/kaggle/data&#45;leakage/activity/&#45;423195521190291226 -->
<g id="node6" class="node">
<title>http://purl.org/dj/kaggle/data&#45;leakage/activity/&#45;423195521190291226</title>
<ellipse fill="none" stroke="black" cx="157.94" cy="-366" rx="147.57" ry="18"/>
<text text-anchor="middle" x="157.94" y="-362.3" font-family="Times,serif" font-size="14.00">&#45;423195521190291226 (Visualisation)</text>
</g>
<!-- http://purl.org/dj/kaggle/data&#45;leakage/activity/&#45;423195521190291226&#45;&gt;http://purl.org/dj/kaggle/data&#45;leakage/activity/3503965955210731310 -->
<g id="edge7" class="edge">
<title>http://purl.org/dj/kaggle/data&#45;leakage/activity/&#45;423195521190291226&#45;&gt;http://purl.org/dj/kaggle/data&#45;leakage/activity/3503965955210731310</title>
<path fill="none" stroke="black" d="M84.08,-350.32C54.56,-340.44 23.47,-324.05 5.94,-297 -2.77,-283.57 -0.88,-275.48 5.94,-261 41.55,-185.31 75.2,-176.53 150.94,-141 174.05,-130.16 200.26,-122.67 225.56,-117.51"/>
<polygon fill="black" stroke="black" points="226.43,-120.9 235.58,-115.57 225.1,-114.03 226.43,-120.9"/>
<text text-anchor="middle" x="47.44" y="-231.8" font-family="Times,serif" font-size="14.00">previous</text>
</g>
<!-- http://purl.org/dj/kaggle/data&#45;leakage/activity/&#45;423195521190291226&#45;&gt;http://purl.org/dj/kaggle/data&#45;leakage/activity/7203154848098177254 -->
<g id="edge8" class="edge">
<title>http://purl.org/dj/kaggle/data&#45;leakage/activity/&#45;423195521190291226&#45;&gt;http://purl.org/dj/kaggle/data&#45;leakage/activity/7203154848098177254</title>
<path fill="none" stroke="black" d="M157.94,-347.8C157.94,-336.16 157.94,-320.55 157.94,-307.24"/>
<polygon fill="black" stroke="black" points="161.44,-307.18 157.94,-297.18 154.44,-307.18 161.44,-307.18"/>
<text text-anchor="middle" x="181.44" y="-318.8" font-family="Times,serif" font-size="14.00">previous</text>
</g>
<!-- http://purl.org/dj/kaggle/data&#45;leakage/activity/&#45;423195521190291226&#45;&gt;http://purl.org/dj/kaggle/data&#45;leakage/activity/7453651380963302460 -->
<g id="edge9" class="edge">
<title>http://purl.org/dj/kaggle/data&#45;leakage/activity/&#45;423195521190291226&#45;&gt;http://purl.org/dj/kaggle/data&#45;leakage/activity/7453651380963302460</title>
<path fill="none" stroke="black" d="M223.23,-349.86C253.6,-339.67 287.81,-323.16 309.94,-297 328.14,-275.48 334.26,-243.14 336.22,-220.25"/>
<polygon fill="black" stroke="black" points="339.72,-220.37 336.87,-210.16 332.73,-219.91 339.72,-220.37"/>
<text text-anchor="middle" x="351.44" y="-275.3" font-family="Times,serif" font-size="14.00">previous</text>
</g>
</g>
</svg>
