<?xml version="1.0" encoding="UTF-8" standalone="no"?>
<!DOCTYPE svg PUBLIC "-//W3C//DTD SVG 1.1//EN"
 "http://www.w3.org/Graphics/SVG/1.1/DTD/svg11.dtd">
<!-- Generated by graphviz version 2.47.1 (20210417.1919)
 -->
<!-- Pages: 1 -->
<svg width="2963pt" height="803pt"
 viewBox="0.00 0.00 2962.62 803.00" xmlns="http://www.w3.org/2000/svg" xmlns:xlink="http://www.w3.org/1999/xlink">
<g id="graph0" class="graph" transform="scale(1 1) rotate(0) translate(4 799)">
<polygon fill="white" stroke="transparent" points="-4,4 -4,-799 2958.62,-799 2958.62,4 -4,4"/>
<!-- http://purl.org/dj/kaggle/data&#45;cleaning&#45;challenge&#45;parsing&#45;dates#82575712 -->
<g id="node1" class="node">
<title>http://purl.org/dj/kaggle/data&#45;cleaning&#45;challenge&#45;parsing&#45;dates#82575712</title>
<ellipse fill="none" stroke="black" cx="129.62" cy="-213" rx="99.38" ry="18"/>
<text text-anchor="middle" x="129.62" y="-209.3" font-family="Times,serif" font-size="14.00">82575712 (np(0): Reuse)</text>
</g>
<!-- http://purl.org/dj/python/lib/111084090 -->
<g id="node2" class="node">
<title>http://purl.org/dj/python/lib/111084090</title>
<ellipse fill="none" stroke="black" cx="194.62" cy="-105" rx="109.68" ry="18"/>
<text text-anchor="middle" x="194.62" y="-101.3" font-family="Times,serif" font-size="14.00">111084090 (numpy: Reuse)</text>
</g>
<!-- http://purl.org/dj/kaggle/data&#45;cleaning&#45;challenge&#45;parsing&#45;dates#82575712&#45;&gt;http://purl.org/dj/python/lib/111084090 -->
<g id="edge1" class="edge">
<title>http://purl.org/dj/kaggle/data&#45;cleaning&#45;challenge&#45;parsing&#45;dates#82575712&#45;&gt;http://purl.org/dj/python/lib/111084090</title>
<path fill="none" stroke="black" d="M140.06,-194.97C150.53,-177.89 166.79,-151.38 178.83,-131.74"/>
<polygon fill="black" stroke="black" points="181.96,-133.34 184.2,-122.99 175.99,-129.68 181.96,-133.34"/>
<text text-anchor="middle" x="217.62" y="-155.3" font-family="Times,serif" font-size="14.00">assignedFrom ()</text>
</g>
<!-- http://purl.org/dj/kaggle/data&#45;cleaning&#45;challenge&#45;parsing&#45;dates -->
<g id="node3" class="node">
<title>http://purl.org/dj/kaggle/data&#45;cleaning&#45;challenge&#45;parsing&#45;dates</title>
<ellipse fill="none" stroke="black" cx="1259.62" cy="-18" rx="308.95" ry="18"/>
<text text-anchor="middle" x="1259.62" y="-14.3" font-family="Times,serif" font-size="14.00">data&#45;cleaning&#45;challenge&#45;parsing&#45;dates (data&#45;cleaning&#45;challenge&#45;parsing&#45;dates.ipynb)</text>
</g>
<!-- http://purl.org/dj/kaggle/data&#45;cleaning&#45;challenge&#45;parsing&#45;dates#82575712&#45;&gt;http://purl.org/dj/kaggle/data&#45;cleaning&#45;challenge&#45;parsing&#45;dates -->
<g id="edge2" class="edge">
<title>http://purl.org/dj/kaggle/data&#45;cleaning&#45;challenge&#45;parsing&#45;dates#82575712&#45;&gt;http://purl.org/dj/kaggle/data&#45;cleaning&#45;challenge&#45;parsing&#45;dates</title>
<path fill="none" stroke="black" d="M94.08,-195.98C47.23,-172.72 -25.39,-127.91 9.62,-87 71.33,-14.88 126.12,-62.95 220.62,-54 461.82,-31.16 735.75,-22.65 941.77,-19.72"/>
<polygon fill="black" stroke="black" points="941.88,-23.22 951.83,-19.58 941.79,-16.22 941.88,-23.22"/>
<text text-anchor="middle" x="42.62" y="-101.3" font-family="Times,serif" font-size="14.00">appearsIn ()</text>
</g>
<!-- http://purl.org/dj/python/lib/111084090&#45;&gt;http://purl.org/dj/kaggle/data&#45;cleaning&#45;challenge&#45;parsing&#45;dates -->
<g id="edge3" class="edge">
<title>http://purl.org/dj/python/lib/111084090&#45;&gt;http://purl.org/dj/kaggle/data&#45;cleaning&#45;challenge&#45;parsing&#45;dates</title>
<path fill="none" stroke="black" d="M207.34,-86.71C216.96,-75.14 231.28,-60.82 247.62,-54 310.49,-27.76 668.31,-20.46 940.82,-18.79"/>
<polygon fill="black" stroke="black" points="940.9,-22.29 950.88,-18.73 940.86,-15.29 940.9,-22.29"/>
<text text-anchor="middle" x="287.12" y="-57.8" font-family="Times,serif" font-size="14.00">importedBy ()</text>
</g>
<!-- http://purl.org/dj/kaggle/data&#45;cleaning&#45;challenge&#45;parsing&#45;dates#431293391 -->
<g id="node4" class="node">
<title>http://purl.org/dj/kaggle/data&#45;cleaning&#45;challenge&#45;parsing&#45;dates#431293391</title>
<ellipse fill="none" stroke="black" cx="373.62" cy="-213" rx="126.18" ry="18"/>
<text text-anchor="middle" x="373.62" y="-209.3" font-family="Times,serif" font-size="14.00">431293391 (datetime(0): Reuse)</text>
</g>
<!-- http://purl.org/dj/kaggle/data&#45;cleaning&#45;challenge&#45;parsing&#45;dates#431293391&#45;&gt;http://purl.org/dj/kaggle/data&#45;cleaning&#45;challenge&#45;parsing&#45;dates -->
<g id="edge4" class="edge">
<title>http://purl.org/dj/kaggle/data&#45;cleaning&#45;challenge&#45;parsing&#45;dates#431293391&#45;&gt;http://purl.org/dj/kaggle/data&#45;cleaning&#45;challenge&#45;parsing&#45;dates</title>
<path fill="none" stroke="black" d="M362.43,-194.77C346.82,-168.34 323.2,-117.62 349.62,-87 388.63,-41.79 697.39,-26.24 944.6,-21.1"/>
<polygon fill="black" stroke="black" points="944.91,-24.6 954.84,-20.9 944.77,-17.6 944.91,-24.6"/>
<text text-anchor="middle" x="382.62" y="-101.3" font-family="Times,serif" font-size="14.00">appearsIn ()</text>
</g>
<!-- http://purl.org/dj/python/lib/248120142 -->
<g id="node5" class="node">
<title>http://purl.org/dj/python/lib/248120142</title>
<ellipse fill="none" stroke="black" cx="540.62" cy="-105" rx="115.88" ry="18"/>
<text text-anchor="middle" x="540.62" y="-101.3" font-family="Times,serif" font-size="14.00">248120142 (datetime: Reuse)</text>
</g>
<!-- http://purl.org/dj/kaggle/data&#45;cleaning&#45;challenge&#45;parsing&#45;dates#431293391&#45;&gt;http://purl.org/dj/python/lib/248120142 -->
<g id="edge5" class="edge">
<title>http://purl.org/dj/kaggle/data&#45;cleaning&#45;challenge&#45;parsing&#45;dates#431293391&#45;&gt;http://purl.org/dj/python/lib/248120142</title>
<path fill="none" stroke="black" d="M366.69,-194.79C361.59,-179.02 357.44,-155.92 369.62,-141 375.22,-134.13 411.45,-126.23 449.12,-119.67"/>
<polygon fill="black" stroke="black" points="449.96,-123.08 459.23,-117.95 448.79,-116.18 449.96,-123.08"/>
<text text-anchor="middle" x="414.62" y="-155.3" font-family="Times,serif" font-size="14.00">assignedFrom ()</text>
</g>
<!-- http://purl.org/dj/python/lib/248120142&#45;&gt;http://purl.org/dj/kaggle/data&#45;cleaning&#45;challenge&#45;parsing&#45;dates -->
<g id="edge6" class="edge">
<title>http://purl.org/dj/python/lib/248120142&#45;&gt;http://purl.org/dj/kaggle/data&#45;cleaning&#45;challenge&#45;parsing&#45;dates</title>
<path fill="none" stroke="black" d="M555.22,-86.78C566.14,-75.24 582.15,-60.94 599.62,-54 634.74,-40.05 808.5,-31.19 968.91,-25.87"/>
<polygon fill="black" stroke="black" points="969.09,-29.37 978.97,-25.55 968.86,-22.37 969.09,-29.37"/>
<text text-anchor="middle" x="639.12" y="-57.8" font-family="Times,serif" font-size="14.00">importedBy ()</text>
</g>
<!-- http://purl.org/dj/kaggle/data&#45;cleaning&#45;challenge&#45;parsing&#45;dates#136577460 -->
<g id="node6" class="node">
<title>http://purl.org/dj/kaggle/data&#45;cleaning&#45;challenge&#45;parsing&#45;dates#136577460</title>
<ellipse fill="none" stroke="black" cx="508.62" cy="-321" rx="112.38" ry="18"/>
<text text-anchor="middle" x="508.62" y="-317.3" font-family="Times,serif" font-size="14.00">136577460 (np(0)$0: Reuse)</text>
</g>
<!-- http://purl.org/dj/kaggle/data&#45;cleaning&#45;challenge&#45;parsing&#45;dates#136577460&#45;&gt;http://purl.org/dj/kaggle/data&#45;cleaning&#45;challenge&#45;parsing&#45;dates#82575712 -->
<g id="edge7" class="edge">
<title>http://purl.org/dj/kaggle/data&#45;cleaning&#45;challenge&#45;parsing&#45;dates#136577460&#45;&gt;http://purl.org/dj/kaggle/data&#45;cleaning&#45;challenge&#45;parsing&#45;dates#82575712</title>
<path fill="none" stroke="black" d="M455.12,-305.04C385.65,-285.61 264.62,-251.76 191.34,-231.26"/>
<polygon fill="black" stroke="black" points="191.9,-227.78 181.32,-228.46 190.01,-234.53 191.9,-227.78"/>
<text text-anchor="middle" x="394.12" y="-263.3" font-family="Times,serif" font-size="14.00">seed ()</text>
</g>
<!-- http://purl.org/dj/kaggle/data&#45;cleaning&#45;challenge&#45;parsing&#45;dates#29687986 -->
<g id="node7" class="node">
<title>http://purl.org/dj/kaggle/data&#45;cleaning&#45;challenge&#45;parsing&#45;dates#29687986</title>
<ellipse fill="none" stroke="black" cx="563.62" cy="-159" rx="94.78" ry="18"/>
<text text-anchor="middle" x="563.62" y="-155.3" font-family="Times,serif" font-size="14.00">29687986 (0(0): Reuse)</text>
</g>
<!-- http://purl.org/dj/kaggle/data&#45;cleaning&#45;challenge&#45;parsing&#45;dates#136577460&#45;&gt;http://purl.org/dj/kaggle/data&#45;cleaning&#45;challenge&#45;parsing&#45;dates#29687986 -->
<g id="edge8" class="edge">
<title>http://purl.org/dj/kaggle/data&#45;cleaning&#45;challenge&#45;parsing&#45;dates#136577460&#45;&gt;http://purl.org/dj/kaggle/data&#45;cleaning&#45;challenge&#45;parsing&#45;dates#29687986</title>
<path fill="none" stroke="black" d="M514.5,-302.88C524.1,-274.97 543.17,-219.48 554.52,-186.47"/>
<polygon fill="black" stroke="black" points="557.83,-187.59 557.77,-177 551.21,-185.32 557.83,-187.59"/>
<text text-anchor="middle" x="551.12" y="-263.3" font-family="Times,serif" font-size="14.00">seed ()</text>
</g>
<!-- http://purl.org/dj/kaggle/data&#45;cleaning&#45;challenge&#45;parsing&#45;dates#29687986&#45;&gt;http://purl.org/dj/kaggle/data&#45;cleaning&#45;challenge&#45;parsing&#45;dates -->
<g id="edge9" class="edge">
<title>http://purl.org/dj/kaggle/data&#45;cleaning&#45;challenge&#45;parsing&#45;dates#29687986&#45;&gt;http://purl.org/dj/kaggle/data&#45;cleaning&#45;challenge&#45;parsing&#45;dates</title>
<path fill="none" stroke="black" d="M616.96,-144.04C633.17,-138.67 650.64,-131.69 665.62,-123 686.6,-110.83 686.5,-100.53 706.62,-87 733.83,-68.7 740.99,-62.67 772.62,-54 815.51,-42.24 905.07,-34.23 995.84,-28.89"/>
<polygon fill="black" stroke="black" points="996.26,-32.37 1006.05,-28.3 995.86,-25.38 996.26,-32.37"/>
<text text-anchor="middle" x="739.62" y="-101.3" font-family="Times,serif" font-size="14.00">appearsIn ()</text>
</g>
<!-- http://purl.org/dj/kaggle/data&#45;cleaning&#45;challenge&#45;parsing&#45;dates#769787130 -->
<g id="node8" class="node">
<title>http://purl.org/dj/kaggle/data&#45;cleaning&#45;challenge&#45;parsing&#45;dates#769787130</title>
<ellipse fill="none" stroke="black" cx="1234.62" cy="-408" rx="139.18" ry="18"/>
<text text-anchor="middle" x="1234.62" y="-404.3" font-family="Times,serif" font-size="14.00">769787130 (landslides(0)$1: Reuse)</text>
</g>
<!-- http://purl.org/dj/kaggle/data&#45;cleaning&#45;challenge&#45;parsing&#45;dates#769787130&#45;&gt;http://purl.org/dj/kaggle/data&#45;cleaning&#45;challenge&#45;parsing&#45;dates#769787130 -->
<g id="edge10" class="edge">
<title>http://purl.org/dj/kaggle/data&#45;cleaning&#45;challenge&#45;parsing&#45;dates#769787130&#45;&gt;http://purl.org/dj/kaggle/data&#45;cleaning&#45;challenge&#45;parsing&#45;dates#769787130</title>
<path fill="none" stroke="black" d="M1362.82,-414.99C1380.16,-413.82 1391.71,-411.49 1391.71,-408 1391.71,-405.25 1384.52,-403.22 1372.97,-401.91"/>
<polygon fill="black" stroke="black" points="1373.09,-398.41 1362.82,-401.01 1372.47,-405.38 1373.09,-398.41"/>
<text text-anchor="middle" x="1430.71" y="-404.3" font-family="Times,serif" font-size="14.00">to_datetime ()</text>
</g>
<!-- http://purl.org/dj/kaggle/data&#45;cleaning&#45;challenge&#45;parsing&#45;dates#489423789 -->
<g id="node9" class="node">
<title>http://purl.org/dj/kaggle/data&#45;cleaning&#45;challenge&#45;parsing&#45;dates#489423789</title>
<ellipse fill="none" stroke="black" cx="1235.62" cy="-267" rx="139.98" ry="18"/>
<text text-anchor="middle" x="1235.62" y="-263.3" font-family="Times,serif" font-size="14.00">489423789 (%m/%d/%y(0): Reuse)</text>
</g>
<!-- http://purl.org/dj/kaggle/data&#45;cleaning&#45;challenge&#45;parsing&#45;dates#769787130&#45;&gt;http://purl.org/dj/kaggle/data&#45;cleaning&#45;challenge&#45;parsing&#45;dates#489423789 -->
<g id="edge11" class="edge">
<title>http://purl.org/dj/kaggle/data&#45;cleaning&#45;challenge&#45;parsing&#45;dates#769787130&#45;&gt;http://purl.org/dj/kaggle/data&#45;cleaning&#45;challenge&#45;parsing&#45;dates#489423789</title>
<path fill="none" stroke="black" d="M1234.74,-389.96C1234.91,-366.4 1235.22,-323.64 1235.42,-295.53"/>
<polygon fill="black" stroke="black" points="1238.92,-295.21 1235.49,-285.18 1231.92,-295.16 1238.92,-295.21"/>
<text text-anchor="middle" x="1273.62" y="-360.8" font-family="Times,serif" font-size="14.00">to_datetime ()</text>
</g>
<!-- http://purl.org/dj/kaggle/data&#45;cleaning&#45;challenge&#45;parsing&#45;dates#165806624 -->
<g id="node10" class="node">
<title>http://purl.org/dj/kaggle/data&#45;cleaning&#45;challenge&#45;parsing&#45;dates#165806624</title>
<ellipse fill="none" stroke="black" cx="749.62" cy="-321" rx="109.68" ry="18"/>
<text text-anchor="middle" x="749.62" y="-317.3" font-family="Times,serif" font-size="14.00">165806624 (date(0): Reuse)</text>
</g>
<!-- http://purl.org/dj/kaggle/data&#45;cleaning&#45;challenge&#45;parsing&#45;dates#769787130&#45;&gt;http://purl.org/dj/kaggle/data&#45;cleaning&#45;challenge&#45;parsing&#45;dates#165806624 -->
<g id="edge12" class="edge">
<title>http://purl.org/dj/kaggle/data&#45;cleaning&#45;challenge&#45;parsing&#45;dates#769787130&#45;&gt;http://purl.org/dj/kaggle/data&#45;cleaning&#45;challenge&#45;parsing&#45;dates#165806624</title>
<path fill="none" stroke="black" d="M1124.5,-396.98C1090.8,-391.78 1054.07,-383.91 1021.62,-372 1009.45,-367.54 1008.84,-361.32 996.62,-357 942.03,-337.72 924.93,-347.13 867.62,-339 858.34,-337.68 848.65,-336.3 838.99,-334.92"/>
<polygon fill="black" stroke="black" points="839.35,-331.43 828.95,-333.48 838.35,-338.36 839.35,-331.43"/>
<text text-anchor="middle" x="1060.62" y="-360.8" font-family="Times,serif" font-size="14.00">to_datetime ()</text>
</g>
<!-- http://purl.org/dj/kaggle/data&#45;cleaning&#45;challenge&#45;parsing&#45;dates#80085334 -->
<g id="node11" class="node">
<title>http://purl.org/dj/kaggle/data&#45;cleaning&#45;challenge&#45;parsing&#45;dates#80085334</title>
<ellipse fill="none" stroke="black" cx="1368.62" cy="-213" rx="99.38" ry="18"/>
<text text-anchor="middle" x="1368.62" y="-209.3" font-family="Times,serif" font-size="14.00">80085334 (pd(0): Reuse)</text>
</g>
<!-- http://purl.org/dj/kaggle/data&#45;cleaning&#45;challenge&#45;parsing&#45;dates#769787130&#45;&gt;http://purl.org/dj/kaggle/data&#45;cleaning&#45;challenge&#45;parsing&#45;dates#80085334 -->
<g id="edge13" class="edge">
<title>http://purl.org/dj/kaggle/data&#45;cleaning&#45;challenge&#45;parsing&#45;dates#769787130&#45;&gt;http://purl.org/dj/kaggle/data&#45;cleaning&#45;challenge&#45;parsing&#45;dates#80085334</title>
<path fill="none" stroke="black" d="M1284.43,-391.04C1295.72,-386.03 1307.15,-379.74 1316.62,-372 1352.99,-342.27 1362.65,-329.85 1376.62,-285 1381.01,-270.89 1379.58,-254.53 1376.8,-241.08"/>
<polygon fill="black" stroke="black" points="1380.12,-239.9 1374.36,-231.01 1373.31,-241.55 1380.12,-239.9"/>
<text text-anchor="middle" x="1408.62" y="-317.3" font-family="Times,serif" font-size="14.00">to_datetime ()</text>
</g>
<!-- http://purl.org/dj/kaggle/data&#45;cleaning&#45;challenge&#45;parsing&#45;dates#769721593 -->
<g id="node12" class="node">
<title>http://purl.org/dj/kaggle/data&#45;cleaning&#45;challenge&#45;parsing&#45;dates#769721593</title>
<ellipse fill="none" stroke="black" cx="1033.62" cy="-321" rx="156.77" ry="18"/>
<text text-anchor="middle" x="1033.62" y="-317.3" font-family="Times,serif" font-size="14.00">769721593 (landslides(0)$0: Movement)</text>
</g>
<!-- http://purl.org/dj/kaggle/data&#45;cleaning&#45;challenge&#45;parsing&#45;dates#769787130&#45;&gt;http://purl.org/dj/kaggle/data&#45;cleaning&#45;challenge&#45;parsing&#45;dates#769721593 -->
<g id="edge14" class="edge">
<title>http://purl.org/dj/kaggle/data&#45;cleaning&#45;challenge&#45;parsing&#45;dates#769787130&#45;&gt;http://purl.org/dj/kaggle/data&#45;cleaning&#45;challenge&#45;parsing&#45;dates#769721593</title>
<path fill="none" stroke="black" d="M1186.1,-391.11C1169.89,-385.47 1151.84,-378.81 1135.62,-372 1115.09,-363.37 1092.82,-352.63 1074.35,-343.31"/>
<polygon fill="black" stroke="black" points="1075.84,-340.14 1065.34,-338.73 1072.66,-346.38 1075.84,-340.14"/>
<text text-anchor="middle" x="1174.62" y="-360.8" font-family="Times,serif" font-size="14.00">to_datetime ()</text>
</g>
<!-- http://purl.org/dj/kaggle/data&#45;cleaning&#45;challenge&#45;parsing&#45;dates#489423789&#45;&gt;http://purl.org/dj/kaggle/data&#45;cleaning&#45;challenge&#45;parsing&#45;dates -->
<g id="edge15" class="edge">
<title>http://purl.org/dj/kaggle/data&#45;cleaning&#45;challenge&#45;parsing&#45;dates#489423789&#45;&gt;http://purl.org/dj/kaggle/data&#45;cleaning&#45;challenge&#45;parsing&#45;dates</title>
<path fill="none" stroke="black" d="M1233.38,-248.98C1231.15,-231.09 1227.89,-202.13 1226.62,-177 1225.81,-161.02 1224.51,-156.86 1226.62,-141 1231.07,-107.5 1242.11,-70.16 1250.2,-45.72"/>
<polygon fill="black" stroke="black" points="1253.57,-46.67 1253.45,-36.08 1246.94,-44.43 1253.57,-46.67"/>
<text text-anchor="middle" x="1259.62" y="-155.3" font-family="Times,serif" font-size="14.00">appearsIn ()</text>
</g>
<!-- http://purl.org/dj/kaggle/data&#45;cleaning&#45;challenge&#45;parsing&#45;dates#165806624&#45;&gt;http://purl.org/dj/kaggle/data&#45;cleaning&#45;challenge&#45;parsing&#45;dates -->
<g id="edge16" class="edge">
<title>http://purl.org/dj/kaggle/data&#45;cleaning&#45;challenge&#45;parsing&#45;dates#165806624&#45;&gt;http://purl.org/dj/kaggle/data&#45;cleaning&#45;challenge&#45;parsing&#45;dates</title>
<path fill="none" stroke="black" d="M732.46,-303.18C699.86,-269.23 635.85,-191.43 677.62,-141 691.32,-124.45 751.55,-127.24 772.62,-123 914.02,-94.51 1077.97,-58.98 1175.01,-37.69"/>
<polygon fill="black" stroke="black" points="1176.04,-41.05 1185.06,-35.48 1174.54,-34.21 1176.04,-41.05"/>
<text text-anchor="middle" x="710.62" y="-155.3" font-family="Times,serif" font-size="14.00">appearsIn ()</text>
</g>
<!-- http://purl.org/dj/kaggle/data&#45;cleaning&#45;challenge&#45;parsing&#45;dates#80085334&#45;&gt;http://purl.org/dj/kaggle/data&#45;cleaning&#45;challenge&#45;parsing&#45;dates -->
<g id="edge17" class="edge">
<title>http://purl.org/dj/kaggle/data&#45;cleaning&#45;challenge&#45;parsing&#45;dates#80085334&#45;&gt;http://purl.org/dj/kaggle/data&#45;cleaning&#45;challenge&#45;parsing&#45;dates</title>
<path fill="none" stroke="black" d="M1339.13,-195.73C1331.67,-190.52 1324.2,-184.21 1318.62,-177 1287.89,-137.3 1271.86,-79.91 1264.62,-46.33"/>
<polygon fill="black" stroke="black" points="1268,-45.41 1262.57,-36.32 1261.15,-46.82 1268,-45.41"/>
<text text-anchor="middle" x="1319.62" y="-101.3" font-family="Times,serif" font-size="14.00">appearsIn ()</text>
</g>
<!-- http://purl.org/dj/python/lib/144966264 -->
<g id="node13" class="node">
<title>http://purl.org/dj/python/lib/144966264</title>
<ellipse fill="none" stroke="black" cx="1493.62" cy="-105" rx="109.38" ry="18"/>
<text text-anchor="middle" x="1493.62" y="-101.3" font-family="Times,serif" font-size="14.00">144966264 (pandas: Reuse)</text>
</g>
<!-- http://purl.org/dj/kaggle/data&#45;cleaning&#45;challenge&#45;parsing&#45;dates#80085334&#45;&gt;http://purl.org/dj/python/lib/144966264 -->
<g id="edge18" class="edge">
<title>http://purl.org/dj/kaggle/data&#45;cleaning&#45;challenge&#45;parsing&#45;dates#80085334&#45;&gt;http://purl.org/dj/python/lib/144966264</title>
<path fill="none" stroke="black" d="M1343.68,-195.28C1338,-190.15 1332.73,-183.98 1329.62,-177 1323.1,-162.39 1319.55,-153.44 1329.62,-141 1335.02,-134.33 1370.23,-126.38 1406.66,-119.74"/>
<polygon fill="black" stroke="black" points="1407.71,-123.11 1416.94,-117.91 1406.48,-116.22 1407.71,-123.11"/>
<text text-anchor="middle" x="1374.62" y="-155.3" font-family="Times,serif" font-size="14.00">assignedFrom ()</text>
</g>
<!-- http://purl.org/dj/kaggle/data&#45;cleaning&#45;challenge&#45;parsing&#45;dates#769721593&#45;&gt;http://purl.org/dj/kaggle/data&#45;cleaning&#45;challenge&#45;parsing&#45;dates#80085334 -->
<g id="edge19" class="edge">
<title>http://purl.org/dj/kaggle/data&#45;cleaning&#45;challenge&#45;parsing&#45;dates#769721593&#45;&gt;http://purl.org/dj/kaggle/data&#45;cleaning&#45;challenge&#45;parsing&#45;dates#80085334</title>
<path fill="none" stroke="black" d="M1025.1,-302.84C1018.53,-286.88 1012.56,-263.45 1025.62,-249 1041.37,-231.56 1166.85,-222.35 1261.52,-217.83"/>
<polygon fill="black" stroke="black" points="1261.91,-221.32 1271.74,-217.35 1261.59,-214.32 1261.91,-221.32"/>
<text text-anchor="middle" x="1056.12" y="-263.3" font-family="Times,serif" font-size="14.00">read_csv ()</text>
</g>
<!-- http://purl.org/dj/kaggle/data&#45;cleaning&#45;challenge&#45;parsing&#45;dates#697241186 -->
<g id="node14" class="node">
<title>http://purl.org/dj/kaggle/data&#45;cleaning&#45;challenge&#45;parsing&#45;dates#697241186</title>
<ellipse fill="none" stroke="black" cx="974.62" cy="-159" rx="221.76" ry="18"/>
<text text-anchor="middle" x="974.62" y="-155.3" font-family="Times,serif" font-size="14.00">697241186 (../input/landslide&#45;events/catalog.csv(0): Reuse)</text>
</g>
<!-- http://purl.org/dj/kaggle/data&#45;cleaning&#45;challenge&#45;parsing&#45;dates#769721593&#45;&gt;http://purl.org/dj/kaggle/data&#45;cleaning&#45;challenge&#45;parsing&#45;dates#697241186 -->
<g id="edge20" class="edge">
<title>http://purl.org/dj/kaggle/data&#45;cleaning&#45;challenge&#45;parsing&#45;dates#769721593&#45;&gt;http://purl.org/dj/kaggle/data&#45;cleaning&#45;challenge&#45;parsing&#45;dates#697241186</title>
<path fill="none" stroke="black" d="M974.36,-304.29C965.76,-299.48 958,-293.19 952.62,-285 933.11,-255.32 946.89,-213.45 959.78,-186.52"/>
<polygon fill="black" stroke="black" points="963.04,-187.82 964.42,-177.32 956.79,-184.67 963.04,-187.82"/>
<text text-anchor="middle" x="983.12" y="-263.3" font-family="Times,serif" font-size="14.00">read_csv ()</text>
</g>
<!-- http://purl.org/dj/python/lib/144966264&#45;&gt;http://purl.org/dj/kaggle/data&#45;cleaning&#45;challenge&#45;parsing&#45;dates -->
<g id="edge28" class="edge">
<title>http://purl.org/dj/python/lib/144966264&#45;&gt;http://purl.org/dj/kaggle/data&#45;cleaning&#45;challenge&#45;parsing&#45;dates</title>
<path fill="none" stroke="black" d="M1450.7,-88.41C1412.63,-74.58 1356.79,-54.3 1315.29,-39.22"/>
<polygon fill="black" stroke="black" points="1316.46,-35.93 1305.87,-35.8 1314.07,-42.51 1316.46,-35.93"/>
<text text-anchor="middle" x="1430.12" y="-57.8" font-family="Times,serif" font-size="14.00">importedBy ()</text>
</g>
<!-- http://purl.org/dj/kaggle/data&#45;cleaning&#45;challenge&#45;parsing&#45;dates#697241186&#45;&gt;http://purl.org/dj/kaggle/data&#45;cleaning&#45;challenge&#45;parsing&#45;dates -->
<g id="edge34" class="edge">
<title>http://purl.org/dj/kaggle/data&#45;cleaning&#45;challenge&#45;parsing&#45;dates#697241186&#45;&gt;http://purl.org/dj/kaggle/data&#45;cleaning&#45;challenge&#45;parsing&#45;dates</title>
<path fill="none" stroke="black" d="M1009.28,-141.09C1061.13,-115.81 1158.86,-68.14 1215.66,-40.44"/>
<polygon fill="black" stroke="black" points="1217.3,-43.53 1224.75,-36 1214.23,-37.24 1217.3,-43.53"/>
<text text-anchor="middle" x="1149.62" y="-101.3" font-family="Times,serif" font-size="14.00">appearsIn ()</text>
</g>
<!-- http://purl.org/dj/kaggle/data&#45;cleaning&#45;challenge&#45;parsing&#45;dates#2737637967 -->
<g id="node15" class="node">
<title>http://purl.org/dj/kaggle/data&#45;cleaning&#45;challenge&#45;parsing&#45;dates#2737637967</title>
<ellipse fill="none" stroke="black" cx="934.62" cy="-603" rx="199.56" ry="18"/>
<text text-anchor="middle" x="934.62" y="-599.3" font-family="Times,serif" font-size="14.00">2737637967 (day_of_month_landslides(0)$0: Reuse)</text>
</g>
<!-- http://purl.org/dj/kaggle/data&#45;cleaning&#45;challenge&#45;parsing&#45;dates#2737637967&#45;&gt;http://purl.org/dj/kaggle/data&#45;cleaning&#45;challenge&#45;parsing&#45;dates#165806624 -->
<g id="edge21" class="edge">
<title>http://purl.org/dj/kaggle/data&#45;cleaning&#45;challenge&#45;parsing&#45;dates#2737637967&#45;&gt;http://purl.org/dj/kaggle/data&#45;cleaning&#45;challenge&#45;parsing&#45;dates#165806624</title>
<path fill="none" stroke="black" d="M912.42,-584.92C876.77,-556.2 807.14,-494.6 771.62,-426 759.13,-401.89 753.73,-371.13 751.4,-349.34"/>
<polygon fill="black" stroke="black" points="754.86,-348.78 750.46,-339.14 747.89,-349.42 754.86,-348.78"/>
<text text-anchor="middle" x="850.62" y="-458.3" font-family="Times,serif" font-size="14.00">assignedFrom ()</text>
</g>
<!-- http://purl.org/dj/kaggle/data&#45;cleaning&#45;challenge&#45;parsing&#45;dates#769852667 -->
<g id="node16" class="node">
<title>http://purl.org/dj/kaggle/data&#45;cleaning&#45;challenge&#45;parsing&#45;dates#769852667</title>
<ellipse fill="none" stroke="black" cx="1234.62" cy="-516" rx="157.87" ry="18"/>
<text text-anchor="middle" x="1234.62" y="-512.3" font-family="Times,serif" font-size="14.00">769852667 (landslides(0)$2: Preparation)</text>
</g>
<!-- http://purl.org/dj/kaggle/data&#45;cleaning&#45;challenge&#45;parsing&#45;dates#2737637967&#45;&gt;http://purl.org/dj/kaggle/data&#45;cleaning&#45;challenge&#45;parsing&#45;dates#769852667 -->
<g id="edge22" class="edge">
<title>http://purl.org/dj/kaggle/data&#45;cleaning&#45;challenge&#45;parsing&#45;dates#2737637967&#45;&gt;http://purl.org/dj/kaggle/data&#45;cleaning&#45;challenge&#45;parsing&#45;dates#769852667</title>
<path fill="none" stroke="black" d="M992.11,-585.71C1042.53,-571.42 1115.85,-550.65 1168.65,-535.69"/>
<polygon fill="black" stroke="black" points="1169.93,-538.97 1178.59,-532.87 1168.02,-532.23 1169.93,-538.97"/>
<text text-anchor="middle" x="1146.62" y="-555.8" font-family="Times,serif" font-size="14.00">assignedFrom ()</text>
</g>
<!-- http://purl.org/dj/kaggle/data&#45;cleaning&#45;challenge&#45;parsing&#45;dates#769852667&#45;&gt;http://purl.org/dj/kaggle/data&#45;cleaning&#45;challenge&#45;parsing&#45;dates#769787130 -->
<g id="edge23" class="edge">
<title>http://purl.org/dj/kaggle/data&#45;cleaning&#45;challenge&#45;parsing&#45;dates#769852667&#45;&gt;http://purl.org/dj/kaggle/data&#45;cleaning&#45;challenge&#45;parsing&#45;dates#769787130</title>
<path fill="none" stroke="black" d="M1234.62,-497.97C1234.62,-481.38 1234.62,-455.88 1234.62,-436.43"/>
<polygon fill="black" stroke="black" points="1238.12,-436.34 1234.62,-426.34 1231.12,-436.34 1238.12,-436.34"/>
<text text-anchor="middle" x="1254.12" y="-458.3" font-family="Times,serif" font-size="14.00">head ()</text>
</g>
<!-- http://purl.org/dj/kaggle/data&#45;cleaning&#45;challenge&#45;parsing&#45;dates#1761284055 -->
<g id="node17" class="node">
<title>http://purl.org/dj/kaggle/data&#45;cleaning&#45;challenge&#45;parsing&#45;dates#1761284055</title>
<ellipse fill="none" stroke="black" cx="1674.62" cy="-159" rx="245.86" ry="18"/>
<text text-anchor="middle" x="1674.62" y="-155.3" font-family="Times,serif" font-size="14.00">1761284055 (../input/earthquake&#45;database/database.csv(0): Reuse)</text>
</g>
<!-- http://purl.org/dj/kaggle/data&#45;cleaning&#45;challenge&#45;parsing&#45;dates#1761284055&#45;&gt;http://purl.org/dj/kaggle/data&#45;cleaning&#45;challenge&#45;parsing&#45;dates -->
<g id="edge24" class="edge">
<title>http://purl.org/dj/kaggle/data&#45;cleaning&#45;challenge&#45;parsing&#45;dates#1761284055&#45;&gt;http://purl.org/dj/kaggle/data&#45;cleaning&#45;challenge&#45;parsing&#45;dates</title>
<path fill="none" stroke="black" d="M1664.02,-140.95C1652.95,-124.6 1634.09,-100.47 1611.62,-87 1567.57,-60.61 1515.36,-44.16 1464.82,-33.99"/>
<polygon fill="black" stroke="black" points="1465.22,-30.51 1454.73,-32.04 1463.89,-37.38 1465.22,-30.51"/>
<text text-anchor="middle" x="1682.62" y="-101.3" font-family="Times,serif" font-size="14.00">appearsIn ()</text>
</g>
<!-- http://purl.org/dj/kaggle/data&#45;cleaning&#45;challenge&#45;parsing&#45;dates#584057915 -->
<g id="node18" class="node">
<title>http://purl.org/dj/kaggle/data&#45;cleaning&#45;challenge&#45;parsing&#45;dates#584057915</title>
<ellipse fill="none" stroke="black" cx="2164.62" cy="-321" rx="152.97" ry="18"/>
<text text-anchor="middle" x="2164.62" y="-317.3" font-family="Times,serif" font-size="14.00">584057915 (volcanos(0)$0: Movement)</text>
</g>
<!-- http://purl.org/dj/kaggle/data&#45;cleaning&#45;challenge&#45;parsing&#45;dates#584057915&#45;&gt;http://purl.org/dj/kaggle/data&#45;cleaning&#45;challenge&#45;parsing&#45;dates#80085334 -->
<g id="edge25" class="edge">
<title>http://purl.org/dj/kaggle/data&#45;cleaning&#45;challenge&#45;parsing&#45;dates#584057915&#45;&gt;http://purl.org/dj/kaggle/data&#45;cleaning&#45;challenge&#45;parsing&#45;dates#80085334</title>
<path fill="none" stroke="black" d="M2085.5,-305.58C1998.13,-290.03 1853.2,-265.31 1727.62,-249 1639.99,-237.62 1539.88,-228.15 1467.68,-221.95"/>
<polygon fill="black" stroke="black" points="1467.95,-218.45 1457.69,-221.09 1467.35,-225.43 1467.95,-218.45"/>
<text text-anchor="middle" x="1996.12" y="-263.3" font-family="Times,serif" font-size="14.00">read_csv ()</text>
</g>
<!-- http://purl.org/dj/kaggle/data&#45;cleaning&#45;challenge&#45;parsing&#45;dates#1554976687 -->
<g id="node19" class="node">
<title>http://purl.org/dj/kaggle/data&#45;cleaning&#45;challenge&#45;parsing&#45;dates#1554976687</title>
<ellipse fill="none" stroke="black" cx="2164.62" cy="-159" rx="239.36" ry="18"/>
<text text-anchor="middle" x="2164.62" y="-155.3" font-family="Times,serif" font-size="14.00">1554976687 (../input/volcanic&#45;eruptions/database.csv(0): Reuse)</text>
</g>
<!-- http://purl.org/dj/kaggle/data&#45;cleaning&#45;challenge&#45;parsing&#45;dates#584057915&#45;&gt;http://purl.org/dj/kaggle/data&#45;cleaning&#45;challenge&#45;parsing&#45;dates#1554976687 -->
<g id="edge26" class="edge">
<title>http://purl.org/dj/kaggle/data&#45;cleaning&#45;challenge&#45;parsing&#45;dates#584057915&#45;&gt;http://purl.org/dj/kaggle/data&#45;cleaning&#45;challenge&#45;parsing&#45;dates#1554976687</title>
<path fill="none" stroke="black" d="M2164.62,-302.88C2164.62,-275.35 2164.62,-221.01 2164.62,-187.85"/>
<polygon fill="black" stroke="black" points="2168.12,-187.48 2164.62,-177.48 2161.12,-187.48 2168.12,-187.48"/>
<text text-anchor="middle" x="2195.12" y="-263.3" font-family="Times,serif" font-size="14.00">read_csv ()</text>
</g>
<!-- http://purl.org/dj/kaggle/data&#45;cleaning&#45;challenge&#45;parsing&#45;dates#1554976687&#45;&gt;http://purl.org/dj/kaggle/data&#45;cleaning&#45;challenge&#45;parsing&#45;dates -->
<g id="edge27" class="edge">
<title>http://purl.org/dj/kaggle/data&#45;cleaning&#45;challenge&#45;parsing&#45;dates#1554976687&#45;&gt;http://purl.org/dj/kaggle/data&#45;cleaning&#45;challenge&#45;parsing&#45;dates</title>
<path fill="none" stroke="black" d="M2083,-141.99C1969.06,-120.03 1755.7,-80.29 1572.62,-54 1522.87,-46.86 1468.49,-40.33 1419.23,-34.9"/>
<polygon fill="black" stroke="black" points="1419.44,-31.4 1409.12,-33.79 1418.68,-38.36 1419.44,-31.4"/>
<text text-anchor="middle" x="2009.62" y="-101.3" font-family="Times,serif" font-size="14.00">appearsIn ()</text>
</g>
<!-- http://purl.org/dj/kaggle/data&#45;cleaning&#45;challenge&#45;parsing&#45;dates#2737769041 -->
<g id="node20" class="node">
<title>http://purl.org/dj/kaggle/data&#45;cleaning&#45;challenge&#45;parsing&#45;dates#2737769041</title>
<ellipse fill="none" stroke="black" cx="2555.62" cy="-690" rx="199.56" ry="18"/>
<text text-anchor="middle" x="2555.62" y="-686.3" font-family="Times,serif" font-size="14.00">2737769041 (day_of_month_landslides(0)$2: Reuse)</text>
</g>
<!-- http://purl.org/dj/kaggle/data&#45;cleaning&#45;challenge&#45;parsing&#45;dates#2737703504 -->
<g id="node21" class="node">
<title>http://purl.org/dj/kaggle/data&#45;cleaning&#45;challenge&#45;parsing&#45;dates#2737703504</title>
<ellipse fill="none" stroke="black" cx="2555.62" cy="-603" rx="199.56" ry="18"/>
<text text-anchor="middle" x="2555.62" y="-599.3" font-family="Times,serif" font-size="14.00">2737703504 (day_of_month_landslides(0)$1: Reuse)</text>
</g>
<!-- http://purl.org/dj/kaggle/data&#45;cleaning&#45;challenge&#45;parsing&#45;dates#2737769041&#45;&gt;http://purl.org/dj/kaggle/data&#45;cleaning&#45;challenge&#45;parsing&#45;dates#2737703504 -->
<g id="edge29" class="edge">
<title>http://purl.org/dj/kaggle/data&#45;cleaning&#45;challenge&#45;parsing&#45;dates#2737769041&#45;&gt;http://purl.org/dj/kaggle/data&#45;cleaning&#45;challenge&#45;parsing&#45;dates#2737703504</title>
<path fill="none" stroke="black" d="M2555.62,-671.8C2555.62,-660.16 2555.62,-644.55 2555.62,-631.24"/>
<polygon fill="black" stroke="black" points="2559.12,-631.18 2555.62,-621.18 2552.12,-631.18 2559.12,-631.18"/>
<text text-anchor="middle" x="2581.12" y="-642.8" font-family="Times,serif" font-size="14.00">dropna ()</text>
</g>
<!-- http://purl.org/dj/kaggle/data&#45;cleaning&#45;challenge&#45;parsing&#45;dates#2737703504&#45;&gt;http://purl.org/dj/kaggle/data&#45;cleaning&#45;challenge&#45;parsing&#45;dates#769852667 -->
<g id="edge30" class="edge">
<title>http://purl.org/dj/kaggle/data&#45;cleaning&#45;challenge&#45;parsing&#45;dates#2737703504&#45;&gt;http://purl.org/dj/kaggle/data&#45;cleaning&#45;challenge&#45;parsing&#45;dates#769852667</title>
<path fill="none" stroke="black" d="M2398.57,-591.89C2140.09,-575.26 1628.83,-542.37 1378.93,-526.29"/>
<polygon fill="black" stroke="black" points="1378.9,-522.78 1368.69,-525.63 1378.45,-529.76 1378.9,-522.78"/>
<text text-anchor="middle" x="2018.62" y="-555.8" font-family="Times,serif" font-size="14.00">assignedFrom ()</text>
</g>
<!-- http://purl.org/dj/kaggle/data&#45;cleaning&#45;challenge&#45;parsing&#45;dates#692192510 -->
<g id="node22" class="node">
<title>http://purl.org/dj/kaggle/data&#45;cleaning&#45;challenge&#45;parsing&#45;dates#692192510</title>
<ellipse fill="none" stroke="black" cx="2604.62" cy="-462" rx="137.28" ry="18"/>
<text text-anchor="middle" x="2604.62" y="-458.3" font-family="Times,serif" font-size="14.00">692192510 (date_parsed(0): Reuse)</text>
</g>
<!-- http://purl.org/dj/kaggle/data&#45;cleaning&#45;challenge&#45;parsing&#45;dates#2737703504&#45;&gt;http://purl.org/dj/kaggle/data&#45;cleaning&#45;challenge&#45;parsing&#45;dates#692192510 -->
<g id="edge31" class="edge">
<title>http://purl.org/dj/kaggle/data&#45;cleaning&#45;challenge&#45;parsing&#45;dates#2737703504&#45;&gt;http://purl.org/dj/kaggle/data&#45;cleaning&#45;challenge&#45;parsing&#45;dates#692192510</title>
<path fill="none" stroke="black" d="M2561.63,-584.96C2570,-561.2 2585.27,-517.88 2595.18,-489.78"/>
<polygon fill="black" stroke="black" points="2598.54,-490.78 2598.56,-480.18 2591.94,-488.45 2598.54,-490.78"/>
<text text-anchor="middle" x="2617.62" y="-555.8" font-family="Times,serif" font-size="14.00">assignedFrom ()</text>
</g>
<!-- http://purl.org/dj/kaggle/data&#45;cleaning&#45;challenge&#45;parsing&#45;dates#692192510&#45;&gt;http://purl.org/dj/kaggle/data&#45;cleaning&#45;challenge&#45;parsing&#45;dates -->
<g id="edge32" class="edge">
<title>http://purl.org/dj/kaggle/data&#45;cleaning&#45;challenge&#45;parsing&#45;dates#692192510&#45;&gt;http://purl.org/dj/kaggle/data&#45;cleaning&#45;challenge&#45;parsing&#45;dates</title>
<path fill="none" stroke="black" d="M2607.22,-443.79C2609.88,-424.71 2613.62,-392.98 2613.62,-365.5 2613.62,-365.5 2613.62,-365.5 2613.62,-104 2613.62,-51.84 1965.17,-31.17 1565.77,-23.38"/>
<polygon fill="black" stroke="black" points="1565.57,-19.87 1555.5,-23.18 1565.43,-26.87 1565.57,-19.87"/>
<text text-anchor="middle" x="2646.62" y="-263.3" font-family="Times,serif" font-size="14.00">appearsIn ()</text>
</g>
<!-- http://purl.org/dj/kaggle/data&#45;cleaning&#45;challenge&#45;parsing&#45;dates#30998711 -->
<g id="node23" class="node">
<title>http://purl.org/dj/kaggle/data&#45;cleaning&#45;challenge&#45;parsing&#45;dates#30998711</title>
<ellipse fill="none" stroke="black" cx="2503.62" cy="-159" rx="94.78" ry="18"/>
<text text-anchor="middle" x="2503.62" y="-155.3" font-family="Times,serif" font-size="14.00">30998711 (5(0): Reuse)</text>
</g>
<!-- http://purl.org/dj/kaggle/data&#45;cleaning&#45;challenge&#45;parsing&#45;dates#30998711&#45;&gt;http://purl.org/dj/kaggle/data&#45;cleaning&#45;challenge&#45;parsing&#45;dates -->
<g id="edge33" class="edge">
<title>http://purl.org/dj/kaggle/data&#45;cleaning&#45;challenge&#45;parsing&#45;dates#30998711&#45;&gt;http://purl.org/dj/kaggle/data&#45;cleaning&#45;challenge&#45;parsing&#45;dates</title>
<path fill="none" stroke="black" d="M2436.84,-146.07C2348.01,-130.56 2185.95,-103.51 2046.62,-87 1848.22,-63.49 1620.78,-44.72 1461.59,-32.9"/>
<polygon fill="black" stroke="black" points="1461.43,-29.38 1451.2,-32.14 1460.92,-36.36 1461.43,-29.38"/>
<text text-anchor="middle" x="2328.62" y="-101.3" font-family="Times,serif" font-size="14.00">appearsIn ()</text>
</g>
<!-- http://purl.org/dj/kaggle/data&#45;cleaning&#45;challenge&#45;parsing&#45;dates#416613292 -->
<g id="node24" class="node">
<title>http://purl.org/dj/kaggle/data&#45;cleaning&#45;challenge&#45;parsing&#45;dates#416613292</title>
<ellipse fill="none" stroke="black" cx="928.62" cy="-408" rx="147.57" ry="18"/>
<text text-anchor="middle" x="928.62" y="-404.3" font-family="Times,serif" font-size="14.00">416613292 (print[16/0]: Visualisation)</text>
</g>
<!-- http://purl.org/dj/kaggle/data&#45;cleaning&#45;challenge&#45;parsing&#45;dates#416613292&#45;&gt;http://purl.org/dj/kaggle/data&#45;cleaning&#45;challenge&#45;parsing&#45;dates#165806624 -->
<g id="edge35" class="edge">
<title>http://purl.org/dj/kaggle/data&#45;cleaning&#45;challenge&#45;parsing&#45;dates#416613292&#45;&gt;http://purl.org/dj/kaggle/data&#45;cleaning&#45;challenge&#45;parsing&#45;dates#165806624</title>
<path fill="none" stroke="black" d="M893.68,-390.41C864.91,-376.75 823.98,-357.31 793.1,-342.65"/>
<polygon fill="black" stroke="black" points="794.39,-339.39 783.86,-338.26 791.39,-345.71 794.39,-339.39"/>
<text text-anchor="middle" x="869.12" y="-360.8" font-family="Times,serif" font-size="14.00">print ()</text>
</g>
<!-- http://purl.org/dj/kaggle/data&#45;cleaning&#45;challenge&#45;parsing&#45;dates#416613292&#45;&gt;http://purl.org/dj/kaggle/data&#45;cleaning&#45;challenge&#45;parsing&#45;dates#769721593 -->
<g id="edge36" class="edge">
<title>http://purl.org/dj/kaggle/data&#45;cleaning&#45;challenge&#45;parsing&#45;dates#416613292&#45;&gt;http://purl.org/dj/kaggle/data&#45;cleaning&#45;challenge&#45;parsing&#45;dates#769721593</title>
<path fill="none" stroke="black" d="M935.32,-389.92C940.19,-379.33 947.67,-366.05 957.62,-357 963.43,-351.71 970.19,-347.09 977.23,-343.09"/>
<polygon fill="black" stroke="black" points="979.01,-346.11 986.24,-338.36 975.76,-339.91 979.01,-346.11"/>
<text text-anchor="middle" x="977.12" y="-360.8" font-family="Times,serif" font-size="14.00">print ()</text>
</g>
<!-- http://purl.org/dj/kaggle/data&#45;cleaning&#45;challenge&#45;parsing&#45;dates#584123452 -->
<g id="node25" class="node">
<title>http://purl.org/dj/kaggle/data&#45;cleaning&#45;challenge&#45;parsing&#45;dates#584123452</title>
<ellipse fill="none" stroke="black" cx="2345.62" cy="-408" rx="135.38" ry="18"/>
<text text-anchor="middle" x="2345.62" y="-404.3" font-family="Times,serif" font-size="14.00">584123452 (volcanos(0)$1: Reuse)</text>
</g>
<!-- http://purl.org/dj/kaggle/data&#45;cleaning&#45;challenge&#45;parsing&#45;dates#584123452&#45;&gt;http://purl.org/dj/kaggle/data&#45;cleaning&#45;challenge&#45;parsing&#45;dates#584057915 -->
<g id="edge37" class="edge">
<title>http://purl.org/dj/kaggle/data&#45;cleaning&#45;challenge&#45;parsing&#45;dates#584123452&#45;&gt;http://purl.org/dj/kaggle/data&#45;cleaning&#45;challenge&#45;parsing&#45;dates#584057915</title>
<path fill="none" stroke="black" d="M2310.29,-390.41C2281.39,-376.84 2240.34,-357.56 2209.19,-342.93"/>
<polygon fill="black" stroke="black" points="2210.4,-339.63 2199.86,-338.55 2207.42,-345.97 2210.4,-339.63"/>
<text text-anchor="middle" x="2291.62" y="-360.8" font-family="Times,serif" font-size="14.00">sample ()</text>
</g>
<!-- http://purl.org/dj/kaggle/data&#45;cleaning&#45;challenge&#45;parsing&#45;dates#584123452&#45;&gt;http://purl.org/dj/kaggle/data&#45;cleaning&#45;challenge&#45;parsing&#45;dates#30998711 -->
<g id="edge38" class="edge">
<title>http://purl.org/dj/kaggle/data&#45;cleaning&#45;challenge&#45;parsing&#45;dates#584123452&#45;&gt;http://purl.org/dj/kaggle/data&#45;cleaning&#45;challenge&#45;parsing&#45;dates#30998711</title>
<path fill="none" stroke="black" d="M2356.48,-390.02C2383.65,-347.54 2454.72,-236.45 2487.1,-185.82"/>
<polygon fill="black" stroke="black" points="2490.24,-187.41 2492.68,-177.1 2484.35,-183.63 2490.24,-187.41"/>
<text text-anchor="middle" x="2437.62" y="-317.3" font-family="Times,serif" font-size="14.00">sample ()</text>
</g>
<!-- http://purl.org/dj/python/lib/194380523 -->
<g id="node26" class="node">
<title>http://purl.org/dj/python/lib/194380523</title>
<ellipse fill="none" stroke="black" cx="2753.62" cy="-105" rx="112.38" ry="18"/>
<text text-anchor="middle" x="2753.62" y="-101.3" font-family="Times,serif" font-size="14.00">194380523 (seaborn: Reuse)</text>
</g>
<!-- http://purl.org/dj/python/lib/194380523&#45;&gt;http://purl.org/dj/kaggle/data&#45;cleaning&#45;challenge&#45;parsing&#45;dates -->
<g id="edge39" class="edge">
<title>http://purl.org/dj/python/lib/194380523&#45;&gt;http://purl.org/dj/kaggle/data&#45;cleaning&#45;challenge&#45;parsing&#45;dates</title>
<path fill="none" stroke="black" d="M2721.69,-87.68C2696.79,-75.86 2660.94,-60.81 2627.62,-54 2527.64,-33.56 1945.69,-24.79 1573.73,-21.23"/>
<polygon fill="black" stroke="black" points="1573.65,-17.73 1563.62,-21.14 1573.58,-24.73 1573.65,-17.73"/>
<text text-anchor="middle" x="2716.12" y="-57.8" font-family="Times,serif" font-size="14.00">importedBy ()</text>
</g>
<!-- http://purl.org/dj/kaggle/data&#45;cleaning&#45;challenge&#45;parsing&#45;dates#128647638 -->
<g id="node27" class="node">
<title>http://purl.org/dj/kaggle/data&#45;cleaning&#45;challenge&#45;parsing&#45;dates#128647638</title>
<ellipse fill="none" stroke="black" cx="2783.62" cy="-213" rx="106.68" ry="18"/>
<text text-anchor="middle" x="2783.62" y="-209.3" font-family="Times,serif" font-size="14.00">128647638 (sns(0): Reuse)</text>
</g>
<!-- http://purl.org/dj/kaggle/data&#45;cleaning&#45;challenge&#45;parsing&#45;dates#128647638&#45;&gt;http://purl.org/dj/kaggle/data&#45;cleaning&#45;challenge&#45;parsing&#45;dates -->
<g id="edge40" class="edge">
<title>http://purl.org/dj/kaggle/data&#45;cleaning&#45;challenge&#45;parsing&#45;dates#128647638&#45;&gt;http://purl.org/dj/kaggle/data&#45;cleaning&#45;challenge&#45;parsing&#45;dates</title>
<path fill="none" stroke="black" d="M2839.92,-197.54C2850.14,-192.56 2859.72,-185.9 2866.62,-177 2891.22,-145.26 2898.78,-119.07 2874.62,-87 2842.62,-44.53 2812.18,-62.02 2759.62,-54 2646.02,-36.67 1976.33,-26.6 1571.15,-22.02"/>
<polygon fill="black" stroke="black" points="1571.07,-18.52 1561.03,-21.9 1570.99,-25.52 1571.07,-18.52"/>
<text text-anchor="middle" x="2921.62" y="-101.3" font-family="Times,serif" font-size="14.00">appearsIn ()</text>
</g>
<!-- http://purl.org/dj/kaggle/data&#45;cleaning&#45;challenge&#45;parsing&#45;dates#128647638&#45;&gt;http://purl.org/dj/python/lib/194380523 -->
<g id="edge41" class="edge">
<title>http://purl.org/dj/kaggle/data&#45;cleaning&#45;challenge&#45;parsing&#45;dates#128647638&#45;&gt;http://purl.org/dj/python/lib/194380523</title>
<path fill="none" stroke="black" d="M2778.8,-194.97C2774.05,-178.2 2766.73,-152.34 2761.21,-132.81"/>
<polygon fill="black" stroke="black" points="2764.52,-131.66 2758.43,-122.99 2757.78,-133.56 2764.52,-131.66"/>
<text text-anchor="middle" x="2817.62" y="-155.3" font-family="Times,serif" font-size="14.00">assignedFrom ()</text>
</g>
<!-- http://purl.org/dj/kaggle/data&#45;cleaning&#45;challenge&#45;parsing&#45;dates#198115882 -->
<g id="node28" class="node">
<title>http://purl.org/dj/kaggle/data&#45;cleaning&#45;challenge&#45;parsing&#45;dates#198115882</title>
<ellipse fill="none" stroke="black" cx="2669.62" cy="-777" rx="139.98" ry="18"/>
<text text-anchor="middle" x="2669.62" y="-773.3" font-family="Times,serif" font-size="14.00">198115882 (sns(0)$0: Visualisation)</text>
</g>
<!-- http://purl.org/dj/kaggle/data&#45;cleaning&#45;challenge&#45;parsing&#45;dates#198115882&#45;&gt;http://purl.org/dj/kaggle/data&#45;cleaning&#45;challenge&#45;parsing&#45;dates#2737769041 -->
<g id="edge42" class="edge">
<title>http://purl.org/dj/kaggle/data&#45;cleaning&#45;challenge&#45;parsing&#45;dates#198115882&#45;&gt;http://purl.org/dj/kaggle/data&#45;cleaning&#45;challenge&#45;parsing&#45;dates#2737769041</title>
<path fill="none" stroke="black" d="M2647.1,-759.21C2629.8,-746.31 2605.72,-728.36 2586.61,-714.1"/>
<polygon fill="black" stroke="black" points="2588.59,-711.22 2578.48,-708.05 2584.41,-716.83 2588.59,-711.22"/>
<text text-anchor="middle" x="2645.62" y="-729.8" font-family="Times,serif" font-size="14.00">distplot ()</text>
</g>
<!-- http://purl.org/dj/kaggle/data&#45;cleaning&#45;challenge&#45;parsing&#45;dates#198115882&#45;&gt;http://purl.org/dj/kaggle/data&#45;cleaning&#45;challenge&#45;parsing&#45;dates#128647638 -->
<g id="edge43" class="edge">
<title>http://purl.org/dj/kaggle/data&#45;cleaning&#45;challenge&#45;parsing&#45;dates#198115882&#45;&gt;http://purl.org/dj/kaggle/data&#45;cleaning&#45;challenge&#45;parsing&#45;dates#128647638</title>
<path fill="none" stroke="black" d="M2719.95,-760.19C2750.49,-747.11 2783.62,-725.07 2783.62,-691 2783.62,-691 2783.62,-691 2783.62,-320 2783.62,-293.24 2783.62,-262.67 2783.62,-241.26"/>
<polygon fill="black" stroke="black" points="2787.12,-241.26 2783.62,-231.26 2780.12,-241.26 2787.12,-241.26"/>
<text text-anchor="middle" x="2810.62" y="-512.3" font-family="Times,serif" font-size="14.00">distplot ()</text>
</g>
<!-- http://purl.org/dj/kaggle/data&#45;cleaning&#45;challenge&#45;parsing&#45;dates#892142964 -->
<g id="node29" class="node">
<title>http://purl.org/dj/kaggle/data&#45;cleaning&#45;challenge&#45;parsing&#45;dates#892142964</title>
<ellipse fill="none" stroke="black" cx="1650.62" cy="-321" rx="163.27" ry="18"/>
<text text-anchor="middle" x="1650.62" y="-317.3" font-family="Times,serif" font-size="14.00">892142964 (earthquakes(0)$0: Movement)</text>
</g>
<!-- http://purl.org/dj/kaggle/data&#45;cleaning&#45;challenge&#45;parsing&#45;dates#892142964&#45;&gt;http://purl.org/dj/kaggle/data&#45;cleaning&#45;challenge&#45;parsing&#45;dates#80085334 -->
<g id="edge44" class="edge">
<title>http://purl.org/dj/kaggle/data&#45;cleaning&#45;challenge&#45;parsing&#45;dates#892142964&#45;&gt;http://purl.org/dj/kaggle/data&#45;cleaning&#45;challenge&#45;parsing&#45;dates#80085334</title>
<path fill="none" stroke="black" d="M1606.87,-303.55C1556.18,-284.5 1472.82,-253.17 1419.34,-233.07"/>
<polygon fill="black" stroke="black" points="1420.31,-229.69 1409.72,-229.45 1417.85,-236.24 1420.31,-229.69"/>
<text text-anchor="middle" x="1581.12" y="-263.3" font-family="Times,serif" font-size="14.00">read_csv ()</text>
</g>
<!-- http://purl.org/dj/kaggle/data&#45;cleaning&#45;challenge&#45;parsing&#45;dates#892142964&#45;&gt;http://purl.org/dj/kaggle/data&#45;cleaning&#45;challenge&#45;parsing&#45;dates#1761284055 -->
<g id="edge45" class="edge">
<title>http://purl.org/dj/kaggle/data&#45;cleaning&#45;challenge&#45;parsing&#45;dates#892142964&#45;&gt;http://purl.org/dj/kaggle/data&#45;cleaning&#45;challenge&#45;parsing&#45;dates#1761284055</title>
<path fill="none" stroke="black" d="M1653.19,-302.88C1657.35,-275.09 1665.62,-219.96 1670.58,-186.9"/>
<polygon fill="black" stroke="black" points="1674.05,-187.41 1672.07,-177 1667.12,-186.37 1674.05,-187.41"/>
<text text-anchor="middle" x="1691.12" y="-263.3" font-family="Times,serif" font-size="14.00">read_csv ()</text>
</g>
</g>
</svg>
