<?xml version="1.0" encoding="UTF-8" standalone="no"?>
<!DOCTYPE svg PUBLIC "-//W3C//DTD SVG 1.1//EN"
 "http://www.w3.org/Graphics/SVG/1.1/DTD/svg11.dtd">
<!-- Generated by graphviz version 2.47.1 (20210417.1919)
 -->
<!-- Pages: 1 -->
<svg width="1694pt" height="650pt"
 viewBox="0.00 0.00 1693.89 650.00" xmlns="http://www.w3.org/2000/svg" xmlns:xlink="http://www.w3.org/1999/xlink">
<g id="graph0" class="graph" transform="scale(1 1) rotate(0) translate(4 646)">
<polygon fill="white" stroke="transparent" points="-4,4 -4,-646 1689.89,-646 1689.89,4 -4,4"/>
<!-- http://purl.org/dj/kaggle/data&#45;types&#45;and&#45;missing&#45;values#30998711 -->
<g id="node1" class="node">
<title>http://purl.org/dj/kaggle/data&#45;types&#45;and&#45;missing&#45;values#30998711</title>
<ellipse fill="none" stroke="black" cx="1098.95" cy="-213" rx="94.78" ry="18"/>
<text text-anchor="middle" x="1098.95" y="-209.3" font-family="Times,serif" font-size="14.00">30998711 (5(0): Reuse)</text>
</g>
<!-- http://purl.org/dj/kaggle/data&#45;types&#45;and&#45;missing&#45;values -->
<g id="node2" class="node">
<title>http://purl.org/dj/kaggle/data&#45;types&#45;and&#45;missing&#45;values</title>
<ellipse fill="none" stroke="black" cx="975.95" cy="-18" rx="256.95" ry="18"/>
<text text-anchor="middle" x="975.95" y="-14.3" font-family="Times,serif" font-size="14.00">data&#45;types&#45;and&#45;missing&#45;values (data&#45;types&#45;and&#45;missing&#45;values.ipynb)</text>
</g>
<!-- http://purl.org/dj/kaggle/data&#45;types&#45;and&#45;missing&#45;values#30998711&#45;&gt;http://purl.org/dj/kaggle/data&#45;types&#45;and&#45;missing&#45;values -->
<g id="edge1" class="edge">
<title>http://purl.org/dj/kaggle/data&#45;types&#45;and&#45;missing&#45;values#30998711&#45;&gt;http://purl.org/dj/kaggle/data&#45;types&#45;and&#45;missing&#45;values</title>
<path fill="none" stroke="black" d="M1100.45,-194.81C1101.26,-180.26 1101.32,-158.97 1096.95,-141 1090.66,-115.12 1088.09,-107.39 1070.95,-87 1055.63,-68.77 1034.38,-52.96 1015.86,-41.18"/>
<polygon fill="black" stroke="black" points="1017.65,-38.18 1007.3,-35.9 1013.97,-44.13 1017.65,-38.18"/>
<text text-anchor="middle" x="1125.95" y="-101.3" font-family="Times,serif" font-size="14.00">appearsIn ()</text>
</g>
<!-- http://purl.org/dj/kaggle/data&#45;types&#45;and&#45;missing&#45;values#497026013 -->
<g id="node3" class="node">
<title>http://purl.org/dj/kaggle/data&#45;types&#45;and&#45;missing&#45;values#497026013</title>
<ellipse fill="none" stroke="black" cx="953.95" cy="-537" rx="131.08" ry="18"/>
<text text-anchor="middle" x="953.95" y="-533.3" font-family="Times,serif" font-size="14.00">497026013 (reviews(0)$2: Reuse)</text>
</g>
<!-- http://purl.org/dj/kaggle/data&#45;types&#45;and&#45;missing&#45;values#496960476 -->
<g id="node4" class="node">
<title>http://purl.org/dj/kaggle/data&#45;types&#45;and&#45;missing&#45;values#496960476</title>
<ellipse fill="none" stroke="black" cx="953.95" cy="-429" rx="131.08" ry="18"/>
<text text-anchor="middle" x="953.95" y="-425.3" font-family="Times,serif" font-size="14.00">496960476 (reviews(0)$1: Reuse)</text>
</g>
<!-- http://purl.org/dj/kaggle/data&#45;types&#45;and&#45;missing&#45;values#497026013&#45;&gt;http://purl.org/dj/kaggle/data&#45;types&#45;and&#45;missing&#45;values#496960476 -->
<g id="edge2" class="edge">
<title>http://purl.org/dj/kaggle/data&#45;types&#45;and&#45;missing&#45;values#497026013&#45;&gt;http://purl.org/dj/kaggle/data&#45;types&#45;and&#45;missing&#45;values#496960476</title>
<path fill="none" stroke="black" d="M953.95,-518.97C953.95,-502.38 953.95,-476.88 953.95,-457.43"/>
<polygon fill="black" stroke="black" points="957.45,-457.34 953.95,-447.34 950.45,-457.34 957.45,-457.34"/>
<text text-anchor="middle" x="974.45" y="-479.3" font-family="Times,serif" font-size="14.00">fillna ()</text>
</g>
<!-- http://purl.org/dj/kaggle/data&#45;types&#45;and&#45;missing&#45;values#356123506 -->
<g id="node5" class="node">
<title>http://purl.org/dj/kaggle/data&#45;types&#45;and&#45;missing&#45;values#356123506</title>
<ellipse fill="none" stroke="black" cx="207.95" cy="-267" rx="129.98" ry="18"/>
<text text-anchor="middle" x="207.95" y="-263.3" font-family="Times,serif" font-size="14.00">356123506 (Unknown(0): Reuse)</text>
</g>
<!-- http://purl.org/dj/kaggle/data&#45;types&#45;and&#45;missing&#45;values#497026013&#45;&gt;http://purl.org/dj/kaggle/data&#45;types&#45;and&#45;missing&#45;values#356123506 -->
<g id="edge3" class="edge">
<title>http://purl.org/dj/kaggle/data&#45;types&#45;and&#45;missing&#45;values#497026013&#45;&gt;http://purl.org/dj/kaggle/data&#45;types&#45;and&#45;missing&#45;values#356123506</title>
<path fill="none" stroke="black" d="M909.52,-520.04C780.1,-473.54 403.67,-338.31 262.38,-287.55"/>
<polygon fill="black" stroke="black" points="263.22,-284.13 252.62,-284.05 260.85,-290.72 263.22,-284.13"/>
<text text-anchor="middle" x="722.45" y="-425.3" font-family="Times,serif" font-size="14.00">fillna ()</text>
</g>
<!-- http://purl.org/dj/kaggle/data&#45;types&#45;and&#45;missing&#45;values#496894939 -->
<g id="node6" class="node">
<title>http://purl.org/dj/kaggle/data&#45;types&#45;and&#45;missing&#45;values#496894939</title>
<ellipse fill="none" stroke="black" cx="683.95" cy="-321" rx="148.67" ry="18"/>
<text text-anchor="middle" x="683.95" y="-317.3" font-family="Times,serif" font-size="14.00">496894939 (reviews(0)$0: Movement)</text>
</g>
<!-- http://purl.org/dj/kaggle/data&#45;types&#45;and&#45;missing&#45;values#496960476&#45;&gt;http://purl.org/dj/kaggle/data&#45;types&#45;and&#45;missing&#45;values#496894939 -->
<g id="edge4" class="edge">
<title>http://purl.org/dj/kaggle/data&#45;types&#45;and&#45;missing&#45;values#496960476&#45;&gt;http://purl.org/dj/kaggle/data&#45;types&#45;and&#45;missing&#45;values#496894939</title>
<path fill="none" stroke="black" d="M912.65,-411.79C865.05,-393.1 786.78,-362.37 735.3,-342.16"/>
<polygon fill="black" stroke="black" points="736.28,-338.78 725.69,-338.39 733.72,-345.3 736.28,-338.78"/>
<text text-anchor="middle" x="882.95" y="-371.3" font-family="Times,serif" font-size="14.00">astype ()</text>
</g>
<!-- http://purl.org/dj/kaggle/data&#45;types&#45;and&#45;missing&#45;values#327680770 -->
<g id="node7" class="node">
<title>http://purl.org/dj/kaggle/data&#45;types&#45;and&#45;missing&#45;values#327680770</title>
<ellipse fill="none" stroke="black" cx="1245.95" cy="-159" rx="119.68" ry="18"/>
<text text-anchor="middle" x="1245.95" y="-155.3" font-family="Times,serif" font-size="14.00">327680770 (float64(0): Reuse)</text>
</g>
<!-- http://purl.org/dj/kaggle/data&#45;types&#45;and&#45;missing&#45;values#496960476&#45;&gt;http://purl.org/dj/kaggle/data&#45;types&#45;and&#45;missing&#45;values#327680770 -->
<g id="edge5" class="edge">
<title>http://purl.org/dj/kaggle/data&#45;types&#45;and&#45;missing&#45;values#496960476&#45;&gt;http://purl.org/dj/kaggle/data&#45;types&#45;and&#45;missing&#45;values#327680770</title>
<path fill="none" stroke="black" d="M982.9,-411.37C1033.39,-381.14 1138.29,-312.69 1202.95,-231 1214,-217.05 1224.39,-200.03 1232.2,-186.16"/>
<polygon fill="black" stroke="black" points="1235.41,-187.58 1237.16,-177.13 1229.27,-184.21 1235.41,-187.58"/>
<text text-anchor="middle" x="1155.95" y="-317.3" font-family="Times,serif" font-size="14.00">astype ()</text>
</g>
<!-- http://purl.org/dj/kaggle/data&#45;types&#45;and&#45;missing&#45;values#356123506&#45;&gt;http://purl.org/dj/kaggle/data&#45;types&#45;and&#45;missing&#45;values -->
<g id="edge6" class="edge">
<title>http://purl.org/dj/kaggle/data&#45;types&#45;and&#45;missing&#45;values#356123506&#45;&gt;http://purl.org/dj/kaggle/data&#45;types&#45;and&#45;missing&#45;values</title>
<path fill="none" stroke="black" d="M141.93,-251.43C69.19,-232.33 -32.18,-194.81 10.95,-141 122.02,-2.42 225.1,-78.81 400.95,-54 507.93,-38.91 627.02,-30.32 728.94,-25.44"/>
<polygon fill="black" stroke="black" points="729.24,-28.93 739.06,-24.96 728.91,-21.93 729.24,-28.93"/>
<text text-anchor="middle" x="43.95" y="-155.3" font-family="Times,serif" font-size="14.00">appearsIn ()</text>
</g>
<!-- http://purl.org/dj/kaggle/data&#45;types&#45;and&#45;missing&#45;values#80085334 -->
<g id="node8" class="node">
<title>http://purl.org/dj/kaggle/data&#45;types&#45;and&#45;missing&#45;values#80085334</title>
<ellipse fill="none" stroke="black" cx="681.95" cy="-213" rx="99.38" ry="18"/>
<text text-anchor="middle" x="681.95" y="-209.3" font-family="Times,serif" font-size="14.00">80085334 (pd(0): Reuse)</text>
</g>
<!-- http://purl.org/dj/kaggle/data&#45;types&#45;and&#45;missing&#45;values#496894939&#45;&gt;http://purl.org/dj/kaggle/data&#45;types&#45;and&#45;missing&#45;values#80085334 -->
<g id="edge7" class="edge">
<title>http://purl.org/dj/kaggle/data&#45;types&#45;and&#45;missing&#45;values#496894939&#45;&gt;http://purl.org/dj/kaggle/data&#45;types&#45;and&#45;missing&#45;values#80085334</title>
<path fill="none" stroke="black" d="M683.63,-302.97C683.32,-286.38 682.84,-260.88 682.47,-241.43"/>
<polygon fill="black" stroke="black" points="685.97,-241.27 682.28,-231.34 678.97,-241.4 685.97,-241.27"/>
<text text-anchor="middle" x="714.45" y="-263.3" font-family="Times,serif" font-size="14.00">read_csv ()</text>
</g>
<!-- http://purl.org/dj/kaggle/data&#45;types&#45;and&#45;missing&#45;values#29687986 -->
<g id="node9" class="node">
<title>http://purl.org/dj/kaggle/data&#45;types&#45;and&#45;missing&#45;values#29687986</title>
<ellipse fill="none" stroke="black" cx="885.95" cy="-105" rx="94.78" ry="18"/>
<text text-anchor="middle" x="885.95" y="-101.3" font-family="Times,serif" font-size="14.00">29687986 (0(0): Reuse)</text>
</g>
<!-- http://purl.org/dj/kaggle/data&#45;types&#45;and&#45;missing&#45;values#496894939&#45;&gt;http://purl.org/dj/kaggle/data&#45;types&#45;and&#45;missing&#45;values#29687986 -->
<g id="edge8" class="edge">
<title>http://purl.org/dj/kaggle/data&#45;types&#45;and&#45;missing&#45;values#496894939&#45;&gt;http://purl.org/dj/kaggle/data&#45;types&#45;and&#45;missing&#45;values#29687986</title>
<path fill="none" stroke="black" d="M721.13,-303.49C730.73,-298.32 740.67,-292.08 748.95,-285 771.85,-265.41 774.5,-256.87 789.95,-231 812.49,-193.26 802.11,-174.17 830.95,-141 835.14,-136.18 840.16,-131.78 845.43,-127.86"/>
<polygon fill="black" stroke="black" points="847.58,-130.63 853.85,-122.09 843.63,-124.86 847.58,-130.63"/>
<text text-anchor="middle" x="836.45" y="-209.3" font-family="Times,serif" font-size="14.00">read_csv ()</text>
</g>
<!-- http://purl.org/dj/kaggle/data&#45;types&#45;and&#45;missing&#45;values#3018526890 -->
<g id="node10" class="node">
<title>http://purl.org/dj/kaggle/data&#45;types&#45;and&#45;missing&#45;values#3018526890</title>
<ellipse fill="none" stroke="black" cx="359.95" cy="-159" rx="273.75" ry="18"/>
<text text-anchor="middle" x="359.95" y="-155.3" font-family="Times,serif" font-size="14.00">3018526890 (../input/wine&#45;reviews/winemag&#45;data&#45;130k&#45;v2.csv(0): Reuse)</text>
</g>
<!-- http://purl.org/dj/kaggle/data&#45;types&#45;and&#45;missing&#45;values#496894939&#45;&gt;http://purl.org/dj/kaggle/data&#45;types&#45;and&#45;missing&#45;values#3018526890 -->
<g id="edge9" class="edge">
<title>http://purl.org/dj/kaggle/data&#45;types&#45;and&#45;missing&#45;values#496894939&#45;&gt;http://purl.org/dj/kaggle/data&#45;types&#45;and&#45;missing&#45;values#3018526890</title>
<path fill="none" stroke="black" d="M650.2,-303.33C591.03,-274.11 468.69,-213.7 403.33,-181.42"/>
<polygon fill="black" stroke="black" points="404.64,-178.16 394.12,-176.87 401.54,-184.44 404.64,-178.16"/>
<text text-anchor="middle" x="639.45" y="-263.3" font-family="Times,serif" font-size="14.00">read_csv ()</text>
</g>
<!-- http://purl.org/dj/kaggle/data&#45;types&#45;and&#45;missing&#45;values#327680770&#45;&gt;http://purl.org/dj/kaggle/data&#45;types&#45;and&#45;missing&#45;values -->
<g id="edge10" class="edge">
<title>http://purl.org/dj/kaggle/data&#45;types&#45;and&#45;missing&#45;values#327680770&#45;&gt;http://purl.org/dj/kaggle/data&#45;types&#45;and&#45;missing&#45;values</title>
<path fill="none" stroke="black" d="M1234.99,-141.05C1224.47,-125.68 1207.48,-103.03 1188.95,-87 1161.05,-62.85 1124.5,-47.26 1089.57,-37.2"/>
<polygon fill="black" stroke="black" points="1090.34,-33.78 1079.77,-34.51 1088.49,-40.53 1090.34,-33.78"/>
<text text-anchor="middle" x="1254.95" y="-101.3" font-family="Times,serif" font-size="14.00">appearsIn ()</text>
</g>
<!-- http://purl.org/dj/kaggle/data&#45;types&#45;and&#45;missing&#45;values#80085334&#45;&gt;http://purl.org/dj/kaggle/data&#45;types&#45;and&#45;missing&#45;values -->
<g id="edge11" class="edge">
<title>http://purl.org/dj/kaggle/data&#45;types&#45;and&#45;missing&#45;values#80085334&#45;&gt;http://purl.org/dj/kaggle/data&#45;types&#45;and&#45;missing&#45;values</title>
<path fill="none" stroke="black" d="M675.58,-194.76C668.43,-178.02 655.11,-153.38 634.95,-141 605.4,-122.85 503.01,-148.9 479.95,-123 469.31,-111.05 469.43,-99.06 479.95,-87 500.97,-62.9 661.74,-44.04 794.63,-32.35"/>
<polygon fill="black" stroke="black" points="795.3,-35.81 804.96,-31.46 794.7,-28.84 795.3,-35.81"/>
<text text-anchor="middle" x="512.95" y="-101.3" font-family="Times,serif" font-size="14.00">appearsIn ()</text>
</g>
<!-- http://purl.org/dj/python/lib/144966264 -->
<g id="node11" class="node">
<title>http://purl.org/dj/python/lib/144966264</title>
<ellipse fill="none" stroke="black" cx="663.95" cy="-105" rx="109.38" ry="18"/>
<text text-anchor="middle" x="663.95" y="-101.3" font-family="Times,serif" font-size="14.00">144966264 (pandas: Reuse)</text>
</g>
<!-- http://purl.org/dj/kaggle/data&#45;types&#45;and&#45;missing&#45;values#80085334&#45;&gt;http://purl.org/dj/python/lib/144966264 -->
<g id="edge12" class="edge">
<title>http://purl.org/dj/kaggle/data&#45;types&#45;and&#45;missing&#45;values#80085334&#45;&gt;http://purl.org/dj/python/lib/144966264</title>
<path fill="none" stroke="black" d="M679.06,-194.97C676.24,-178.38 671.91,-152.88 668.61,-133.43"/>
<polygon fill="black" stroke="black" points="672.02,-132.61 666.9,-123.34 665.12,-133.79 672.02,-132.61"/>
<text text-anchor="middle" x="720.95" y="-155.3" font-family="Times,serif" font-size="14.00">assignedFrom ()</text>
</g>
<!-- http://purl.org/dj/kaggle/data&#45;types&#45;and&#45;missing&#45;values#29687986&#45;&gt;http://purl.org/dj/kaggle/data&#45;types&#45;and&#45;missing&#45;values -->
<g id="edge13" class="edge">
<title>http://purl.org/dj/kaggle/data&#45;types&#45;and&#45;missing&#45;values#29687986&#45;&gt;http://purl.org/dj/kaggle/data&#45;types&#45;and&#45;missing&#45;values</title>
<path fill="none" stroke="black" d="M902.77,-87.14C912.63,-77.36 925.38,-64.86 936.95,-54 940.75,-50.43 944.81,-46.71 948.81,-43.08"/>
<polygon fill="black" stroke="black" points="951.27,-45.57 956.36,-36.28 946.59,-40.37 951.27,-45.57"/>
<text text-anchor="middle" x="969.95" y="-57.8" font-family="Times,serif" font-size="14.00">appearsIn ()</text>
</g>
<!-- http://purl.org/dj/kaggle/data&#45;types&#45;and&#45;missing&#45;values#3018526890&#45;&gt;http://purl.org/dj/kaggle/data&#45;types&#45;and&#45;missing&#45;values -->
<g id="edge14" class="edge">
<title>http://purl.org/dj/kaggle/data&#45;types&#45;and&#45;missing&#45;values#3018526890&#45;&gt;http://purl.org/dj/kaggle/data&#45;types&#45;and&#45;missing&#45;values</title>
<path fill="none" stroke="black" d="M361.55,-140.84C363.85,-125.11 369.44,-102.03 382.95,-87 407.03,-60.22 422,-62.68 456.95,-54 509.91,-40.85 628.53,-32.31 739.02,-26.97"/>
<polygon fill="black" stroke="black" points="739.52,-30.45 749.34,-26.48 739.19,-23.46 739.52,-30.45"/>
<text text-anchor="middle" x="415.95" y="-101.3" font-family="Times,serif" font-size="14.00">appearsIn ()</text>
</g>
<!-- http://purl.org/dj/python/lib/144966264&#45;&gt;http://purl.org/dj/kaggle/data&#45;types&#45;and&#45;missing&#45;values -->
<g id="edge15" class="edge">
<title>http://purl.org/dj/python/lib/144966264&#45;&gt;http://purl.org/dj/kaggle/data&#45;types&#45;and&#45;missing&#45;values</title>
<path fill="none" stroke="black" d="M715.15,-88.96C749.98,-78.83 797.17,-65.3 838.95,-54 858.72,-48.65 880.15,-43.07 900.06,-37.98"/>
<polygon fill="black" stroke="black" points="901.18,-41.31 910,-35.45 899.45,-34.53 901.18,-41.31"/>
<text text-anchor="middle" x="878.45" y="-57.8" font-family="Times,serif" font-size="14.00">importedBy ()</text>
</g>
<!-- http://purl.org/dj/kaggle/data&#45;types&#45;and&#45;missing&#45;values#132776362 -->
<g id="node12" class="node">
<title>http://purl.org/dj/kaggle/data&#45;types&#45;and&#45;missing&#45;values#132776362</title>
<ellipse fill="none" stroke="black" cx="963.95" cy="-321" rx="112.38" ry="18"/>
<text text-anchor="middle" x="963.95" y="-317.3" font-family="Times,serif" font-size="14.00">132776362 (pd(0)$0: Reuse)</text>
</g>
<!-- http://purl.org/dj/kaggle/data&#45;types&#45;and&#45;missing&#45;values#132776362&#45;&gt;http://purl.org/dj/kaggle/data&#45;types&#45;and&#45;missing&#45;values#30998711 -->
<g id="edge16" class="edge">
<title>http://purl.org/dj/kaggle/data&#45;types&#45;and&#45;missing&#45;values#132776362&#45;&gt;http://purl.org/dj/kaggle/data&#45;types&#45;and&#45;missing&#45;values#30998711</title>
<path fill="none" stroke="black" d="M1005.27,-304.18C1016.42,-298.94 1028.12,-292.5 1037.95,-285 1054.8,-272.15 1070.32,-253.97 1081.48,-239.22"/>
<polygon fill="black" stroke="black" points="1084.42,-241.13 1087.53,-231 1078.78,-236.98 1084.42,-241.13"/>
<text text-anchor="middle" x="1108.95" y="-263.3" font-family="Times,serif" font-size="14.00">set_option ()</text>
</g>
<!-- http://purl.org/dj/kaggle/data&#45;types&#45;and&#45;missing&#45;values#132776362&#45;&gt;http://purl.org/dj/kaggle/data&#45;types&#45;and&#45;missing&#45;values#80085334 -->
<g id="edge17" class="edge">
<title>http://purl.org/dj/kaggle/data&#45;types&#45;and&#45;missing&#45;values#132776362&#45;&gt;http://purl.org/dj/kaggle/data&#45;types&#45;and&#45;missing&#45;values#80085334</title>
<path fill="none" stroke="black" d="M922.04,-304.25C871.52,-285.26 786.7,-253.37 732.58,-233.03"/>
<polygon fill="black" stroke="black" points="733.77,-229.74 723.18,-229.5 731.31,-236.29 733.77,-229.74"/>
<text text-anchor="middle" x="899.95" y="-263.3" font-family="Times,serif" font-size="14.00">set_option ()</text>
</g>
<!-- http://purl.org/dj/kaggle/data&#45;types&#45;and&#45;missing&#45;values#445383666 -->
<g id="node13" class="node">
<title>http://purl.org/dj/kaggle/data&#45;types&#45;and&#45;missing&#45;values#445383666</title>
<ellipse fill="none" stroke="black" cx="963.95" cy="-159" rx="131.88" ry="18"/>
<text text-anchor="middle" x="963.95" y="-155.3" font-family="Times,serif" font-size="14.00">445383666 (max_rows(0): Reuse)</text>
</g>
<!-- http://purl.org/dj/kaggle/data&#45;types&#45;and&#45;missing&#45;values#132776362&#45;&gt;http://purl.org/dj/kaggle/data&#45;types&#45;and&#45;missing&#45;values#445383666 -->
<g id="edge18" class="edge">
<title>http://purl.org/dj/kaggle/data&#45;types&#45;and&#45;missing&#45;values#132776362&#45;&gt;http://purl.org/dj/kaggle/data&#45;types&#45;and&#45;missing&#45;values#445383666</title>
<path fill="none" stroke="black" d="M963.95,-302.88C963.95,-275.35 963.95,-221.01 963.95,-187.85"/>
<polygon fill="black" stroke="black" points="967.45,-187.48 963.95,-177.48 960.45,-187.48 967.45,-187.48"/>
<text text-anchor="middle" x="998.95" y="-263.3" font-family="Times,serif" font-size="14.00">set_option ()</text>
</g>
<!-- http://purl.org/dj/kaggle/data&#45;types&#45;and&#45;missing&#45;values#445383666&#45;&gt;http://purl.org/dj/kaggle/data&#45;types&#45;and&#45;missing&#45;values -->
<g id="edge19" class="edge">
<title>http://purl.org/dj/kaggle/data&#45;types&#45;and&#45;missing&#45;values#445383666&#45;&gt;http://purl.org/dj/kaggle/data&#45;types&#45;and&#45;missing&#45;values</title>
<path fill="none" stroke="black" d="M978.66,-141.08C982.81,-135.6 987,-129.31 989.95,-123 1000.41,-100.64 1000.04,-93.51 1002.95,-69 1003.74,-62.38 1005.1,-60.31 1002.95,-54 1001.86,-50.8 1000.35,-47.67 998.59,-44.68"/>
<polygon fill="black" stroke="black" points="1001.3,-42.44 992.76,-36.18 995.53,-46.4 1001.3,-42.44"/>
<text text-anchor="middle" x="1033.95" y="-101.3" font-family="Times,serif" font-size="14.00">appearsIn ()</text>
</g>
<!-- http://purl.org/dj/kaggle/data&#45;types&#45;and&#45;missing&#45;values#334234442 -->
<g id="node14" class="node">
<title>http://purl.org/dj/kaggle/data&#45;types&#45;and&#45;missing&#45;values#334234442</title>
<ellipse fill="none" stroke="black" cx="1380.95" cy="-483" rx="126.18" ry="18"/>
<text text-anchor="middle" x="1380.95" y="-479.3" font-family="Times,serif" font-size="14.00">334234442 (@kerino(0): Reuse)</text>
</g>
<!-- http://purl.org/dj/kaggle/data&#45;types&#45;and&#45;missing&#45;values#334234442&#45;&gt;http://purl.org/dj/kaggle/data&#45;types&#45;and&#45;missing&#45;values -->
<g id="edge20" class="edge">
<title>http://purl.org/dj/kaggle/data&#45;types&#45;and&#45;missing&#45;values#334234442&#45;&gt;http://purl.org/dj/kaggle/data&#45;types&#45;and&#45;missing&#45;values</title>
<path fill="none" stroke="black" d="M1380.95,-464.74C1380.95,-443.76 1380.95,-407.28 1380.95,-376 1380.95,-376 1380.95,-376 1380.95,-104 1380.95,-61.15 1293.03,-39.78 1199.12,-29.17"/>
<polygon fill="black" stroke="black" points="1199.45,-25.69 1189.13,-28.09 1198.69,-32.65 1199.45,-25.69"/>
<text text-anchor="middle" x="1413.95" y="-263.3" font-family="Times,serif" font-size="14.00">appearsIn ()</text>
</g>
<!-- http://purl.org/dj/kaggle/data&#45;types&#45;and&#45;missing&#45;values#769918282 -->
<g id="node15" class="node">
<title>http://purl.org/dj/kaggle/data&#45;types&#45;and&#45;missing&#45;values#769918282</title>
<ellipse fill="none" stroke="black" cx="1540.95" cy="-375" rx="144.87" ry="18"/>
<text text-anchor="middle" x="1540.95" y="-371.3" font-family="Times,serif" font-size="14.00">769918282 (@kerinokeefe(0): Reuse)</text>
</g>
<!-- http://purl.org/dj/kaggle/data&#45;types&#45;and&#45;missing&#45;values#769918282&#45;&gt;http://purl.org/dj/kaggle/data&#45;types&#45;and&#45;missing&#45;values -->
<g id="edge21" class="edge">
<title>http://purl.org/dj/kaggle/data&#45;types&#45;and&#45;missing&#45;values#769918282&#45;&gt;http://purl.org/dj/kaggle/data&#45;types&#45;and&#45;missing&#45;values</title>
<path fill="none" stroke="black" d="M1530.02,-356.75C1518.18,-336.37 1500.95,-301.04 1500.95,-268 1500.95,-268 1500.95,-268 1500.95,-104 1500.95,-51.91 1445.26,-67.49 1394.95,-54 1355.66,-43.46 1271.14,-35.46 1188.24,-29.79"/>
<polygon fill="black" stroke="black" points="1188.35,-26.29 1178.14,-29.11 1187.88,-33.28 1188.35,-26.29"/>
<text text-anchor="middle" x="1533.95" y="-209.3" font-family="Times,serif" font-size="14.00">appearsIn ()</text>
</g>
<!-- http://purl.org/dj/kaggle/data&#45;types&#45;and&#45;missing&#45;values#497091550 -->
<g id="node16" class="node">
<title>http://purl.org/dj/kaggle/data&#45;types&#45;and&#45;missing&#45;values#497091550</title>
<ellipse fill="none" stroke="black" cx="1380.95" cy="-624" rx="131.08" ry="18"/>
<text text-anchor="middle" x="1380.95" y="-620.3" font-family="Times,serif" font-size="14.00">497091550 (reviews(0)$3: Reuse)</text>
</g>
<!-- http://purl.org/dj/kaggle/data&#45;types&#45;and&#45;missing&#45;values#497091550&#45;&gt;http://purl.org/dj/kaggle/data&#45;types&#45;and&#45;missing&#45;values#497026013 -->
<g id="edge22" class="edge">
<title>http://purl.org/dj/kaggle/data&#45;types&#45;and&#45;missing&#45;values#497091550&#45;&gt;http://purl.org/dj/kaggle/data&#45;types&#45;and&#45;missing&#45;values#497026013</title>
<path fill="none" stroke="black" d="M1309.48,-608.77C1233.78,-593.7 1114.48,-569.95 1035.24,-554.18"/>
<polygon fill="black" stroke="black" points="1035.79,-550.72 1025.3,-552.2 1034.42,-557.59 1035.79,-550.72"/>
<text text-anchor="middle" x="1219.95" y="-576.8" font-family="Times,serif" font-size="14.00">replace ()</text>
</g>
<!-- http://purl.org/dj/kaggle/data&#45;types&#45;and&#45;missing&#45;values#497091550&#45;&gt;http://purl.org/dj/kaggle/data&#45;types&#45;and&#45;missing&#45;values#334234442 -->
<g id="edge23" class="edge">
<title>http://purl.org/dj/kaggle/data&#45;types&#45;and&#45;missing&#45;values#497091550&#45;&gt;http://purl.org/dj/kaggle/data&#45;types&#45;and&#45;missing&#45;values#334234442</title>
<path fill="none" stroke="black" d="M1380.95,-605.96C1380.95,-582.4 1380.95,-539.64 1380.95,-511.53"/>
<polygon fill="black" stroke="black" points="1384.45,-511.18 1380.95,-501.18 1377.45,-511.18 1384.45,-511.18"/>
<text text-anchor="middle" x="1406.95" y="-576.8" font-family="Times,serif" font-size="14.00">replace ()</text>
</g>
<!-- http://purl.org/dj/kaggle/data&#45;types&#45;and&#45;missing&#45;values#497091550&#45;&gt;http://purl.org/dj/kaggle/data&#45;types&#45;and&#45;missing&#45;values#769918282 -->
<g id="edge24" class="edge">
<title>http://purl.org/dj/kaggle/data&#45;types&#45;and&#45;missing&#45;values#497091550&#45;&gt;http://purl.org/dj/kaggle/data&#45;types&#45;and&#45;missing&#45;values#769918282</title>
<path fill="none" stroke="black" d="M1410.78,-606.46C1419.56,-601.05 1428.95,-594.69 1436.95,-588 1477.03,-554.51 1492.42,-547.63 1515.95,-501 1531.72,-469.74 1537.55,-429.38 1539.7,-403.1"/>
<polygon fill="black" stroke="black" points="1543.19,-403.32 1540.4,-393.11 1536.21,-402.84 1543.19,-403.32"/>
<text text-anchor="middle" x="1531.95" y="-533.3" font-family="Times,serif" font-size="14.00">replace ()</text>
</g>
</g>
</svg>
