<?xml version="1.0" encoding="UTF-8" standalone="no"?>
<!DOCTYPE svg PUBLIC "-//W3C//DTD SVG 1.1//EN"
 "http://www.w3.org/Graphics/SVG/1.1/DTD/svg11.dtd">
<!-- Generated by graphviz version 2.47.1 (20210417.1919)
 -->
<!-- Pages: 1 -->
<svg width="2694pt" height="479pt"
 viewBox="0.00 0.00 2694.27 479.00" xmlns="http://www.w3.org/2000/svg" xmlns:xlink="http://www.w3.org/1999/xlink">
<g id="graph0" class="graph" transform="scale(1 1) rotate(0) translate(4 475)">
<polygon fill="white" stroke="transparent" points="-4,4 -4,-475 2690.27,-475 2690.27,4 -4,4"/>
<!-- http://purl.org/dj/kaggle/dataset&#45;preprocessing/activity/8365412100280230614 -->
<g id="node1" class="node">
<title>http://purl.org/dj/kaggle/dataset&#45;preprocessing/activity/8365412100280230614</title>
<ellipse fill="none" stroke="black" cx="660.44" cy="-453" rx="142.97" ry="18"/>
<text text-anchor="middle" x="660.44" y="-449.3" font-family="Times,serif" font-size="14.00">8365412100280230614 (Preparation)</text>
</g>
<!-- http://purl.org/dj/kaggle/dataset&#45;preprocessing/activity/&#45;2954862126882675593 -->
<g id="node2" class="node">
<title>http://purl.org/dj/kaggle/dataset&#45;preprocessing/activity/&#45;2954862126882675593</title>
<ellipse fill="none" stroke="black" cx="501.44" cy="-366" rx="151.37" ry="18"/>
<text text-anchor="middle" x="501.44" y="-362.3" font-family="Times,serif" font-size="14.00">&#45;2954862126882675593 (Visualisation)</text>
</g>
<!-- http://purl.org/dj/kaggle/dataset&#45;preprocessing/activity/8365412100280230614&#45;&gt;http://purl.org/dj/kaggle/dataset&#45;preprocessing/activity/&#45;2954862126882675593 -->
<g id="edge1" class="edge">
<title>http://purl.org/dj/kaggle/dataset&#45;preprocessing/activity/8365412100280230614&#45;&gt;http://purl.org/dj/kaggle/dataset&#45;preprocessing/activity/&#45;2954862126882675593</title>
<path fill="none" stroke="black" d="M629.4,-435.41C604.31,-422 568.81,-403.02 541.56,-388.45"/>
<polygon fill="black" stroke="black" points="543.13,-385.32 532.66,-383.69 539.83,-391.5 543.13,-385.32"/>
<text text-anchor="middle" x="614.94" y="-405.8" font-family="Times,serif" font-size="14.00">previous</text>
</g>
<!-- http://purl.org/dj/kaggle/dataset&#45;preprocessing/activity/&#45;7246872278023657376 -->
<g id="node3" class="node">
<title>http://purl.org/dj/kaggle/dataset&#45;preprocessing/activity/&#45;7246872278023657376</title>
<ellipse fill="none" stroke="black" cx="592.44" cy="-192" rx="151.37" ry="18"/>
<text text-anchor="middle" x="592.44" y="-188.3" font-family="Times,serif" font-size="14.00">&#45;7246872278023657376 (Visualisation)</text>
</g>
<!-- http://purl.org/dj/kaggle/dataset&#45;preprocessing/activity/8365412100280230614&#45;&gt;http://purl.org/dj/kaggle/dataset&#45;preprocessing/activity/&#45;7246872278023657376 -->
<g id="edge2" class="edge">
<title>http://purl.org/dj/kaggle/dataset&#45;preprocessing/activity/8365412100280230614&#45;&gt;http://purl.org/dj/kaggle/dataset&#45;preprocessing/activity/&#45;7246872278023657376</title>
<path fill="none" stroke="black" d="M664.38,-434.86C671.46,-400.43 683.45,-321.04 659.44,-261 652.44,-243.51 638.44,-228.14 625.05,-216.46"/>
<polygon fill="black" stroke="black" points="627.22,-213.71 617.28,-210.02 622.75,-219.1 627.22,-213.71"/>
<text text-anchor="middle" x="696.94" y="-318.8" font-family="Times,serif" font-size="14.00">previous</text>
</g>
<!-- http://purl.org/dj/kaggle/dataset&#45;preprocessing/activity/2006206008145644145 -->
<g id="node4" class="node">
<title>http://purl.org/dj/kaggle/dataset&#45;preprocessing/activity/2006206008145644145</title>
<ellipse fill="none" stroke="black" cx="1390.44" cy="-105" rx="124.28" ry="18"/>
<text text-anchor="middle" x="1390.44" y="-101.3" font-family="Times,serif" font-size="14.00">2006206008145644145 (Reuse)</text>
</g>
<!-- http://purl.org/dj/kaggle/dataset&#45;preprocessing/activity/8365412100280230614&#45;&gt;http://purl.org/dj/kaggle/dataset&#45;preprocessing/activity/2006206008145644145 -->
<g id="edge3" class="edge">
<title>http://purl.org/dj/kaggle/dataset&#45;preprocessing/activity/8365412100280230614&#45;&gt;http://purl.org/dj/kaggle/dataset&#45;preprocessing/activity/2006206008145644145</title>
<path fill="none" stroke="black" d="M803.55,-452.27C1213.08,-452.1 2360.44,-444.69 2360.44,-367 2360.44,-367 2360.44,-367 2360.44,-191 2360.44,-155.75 2493.88,-183.51 1901.44,-141 1767.75,-131.41 1614.34,-120.98 1510.77,-114.02"/>
<polygon fill="black" stroke="black" points="1510.81,-110.52 1500.6,-113.34 1510.34,-117.5 1510.81,-110.52"/>
<text text-anchor="middle" x="2383.94" y="-275.3" font-family="Times,serif" font-size="14.00">previous</text>
</g>
<!-- http://purl.org/dj/kaggle/dataset&#45;preprocessing/activity/4116344964216524793 -->
<g id="node5" class="node">
<title>http://purl.org/dj/kaggle/dataset&#45;preprocessing/activity/4116344964216524793</title>
<ellipse fill="none" stroke="black" cx="2537.44" cy="-192" rx="148.67" ry="18"/>
<text text-anchor="middle" x="2537.44" y="-188.3" font-family="Times,serif" font-size="14.00">4116344964216524793 (Visualisation)</text>
</g>
<!-- http://purl.org/dj/kaggle/dataset&#45;preprocessing/activity/8365412100280230614&#45;&gt;http://purl.org/dj/kaggle/dataset&#45;preprocessing/activity/4116344964216524793 -->
<g id="edge4" class="edge">
<title>http://purl.org/dj/kaggle/dataset&#45;preprocessing/activity/8365412100280230614&#45;&gt;http://purl.org/dj/kaggle/dataset&#45;preprocessing/activity/4116344964216524793</title>
<path fill="none" stroke="black" d="M803.42,-452.53C1202.77,-453.54 2305.38,-453.04 2374.44,-417 2456.61,-374.11 2507.44,-268.85 2527.54,-219.43"/>
<polygon fill="black" stroke="black" points="2530.83,-220.64 2531.26,-210.05 2524.32,-218.06 2530.83,-220.64"/>
<text text-anchor="middle" x="2500.94" y="-318.8" font-family="Times,serif" font-size="14.00">previous</text>
</g>
<!-- http://purl.org/dj/kaggle/dataset&#45;preprocessing/activity/&#45;1048090173621562321 -->
<g id="node6" class="node">
<title>http://purl.org/dj/kaggle/dataset&#45;preprocessing/activity/&#45;1048090173621562321</title>
<ellipse fill="none" stroke="black" cx="151.44" cy="-192" rx="151.37" ry="18"/>
<text text-anchor="middle" x="151.44" y="-188.3" font-family="Times,serif" font-size="14.00">&#45;1048090173621562321 (Visualisation)</text>
</g>
<!-- http://purl.org/dj/kaggle/dataset&#45;preprocessing/activity/8365412100280230614&#45;&gt;http://purl.org/dj/kaggle/dataset&#45;preprocessing/activity/&#45;1048090173621562321 -->
<g id="edge5" class="edge">
<title>http://purl.org/dj/kaggle/dataset&#45;preprocessing/activity/8365412100280230614&#45;&gt;http://purl.org/dj/kaggle/dataset&#45;preprocessing/activity/&#45;1048090173621562321</title>
<path fill="none" stroke="black" d="M553.74,-441C489.98,-431.6 408.58,-414.53 341.44,-384 261.34,-347.58 196.36,-261.55 167.53,-218.48"/>
<polygon fill="black" stroke="black" points="170.36,-216.41 161.94,-209.98 164.51,-220.26 170.36,-216.41"/>
<text text-anchor="middle" x="284.94" y="-318.8" font-family="Times,serif" font-size="14.00">previous</text>
</g>
<!-- http://purl.org/dj/kaggle/dataset&#45;preprocessing/activity/&#45;2954862126882675593&#45;&gt;http://purl.org/dj/kaggle/dataset&#45;preprocessing/activity/8365412100280230614 -->
<g id="edge6" class="edge">
<title>http://purl.org/dj/kaggle/dataset&#45;preprocessing/activity/&#45;2954862126882675593&#45;&gt;http://purl.org/dj/kaggle/dataset&#45;preprocessing/activity/8365412100280230614</title>
<path fill="none" stroke="black" d="M503.82,-384.13C506.22,-395.03 510.99,-408.61 520.44,-417 529.51,-425.06 540.16,-431.32 551.47,-436.18"/>
<polygon fill="black" stroke="black" points="550.51,-439.56 561.1,-439.94 553.06,-433.04 550.51,-439.56"/>
<text text-anchor="middle" x="543.94" y="-405.8" font-family="Times,serif" font-size="14.00">previous</text>
</g>
<!-- http://purl.org/dj/kaggle/dataset&#45;preprocessing/activity/&#45;2954862126882675593&#45;&gt;http://purl.org/dj/kaggle/dataset&#45;preprocessing/activity/2006206008145644145 -->
<g id="edge7" class="edge">
<title>http://purl.org/dj/kaggle/dataset&#45;preprocessing/activity/&#45;2954862126882675593&#45;&gt;http://purl.org/dj/kaggle/dataset&#45;preprocessing/activity/2006206008145644145</title>
<path fill="none" stroke="black" d="M440.25,-349.45C409.62,-338.99 373.95,-322.36 349.44,-297 331.42,-278.37 332.42,-268.43 327.44,-243 315.59,-182.5 363,-160.63 421.44,-141 498.36,-115.15 1009.17,-108.39 1256.59,-106.62"/>
<polygon fill="black" stroke="black" points="1256.75,-110.12 1266.73,-106.55 1256.7,-103.12 1256.75,-110.12"/>
<text text-anchor="middle" x="350.94" y="-231.8" font-family="Times,serif" font-size="14.00">previous</text>
</g>
<!-- http://purl.org/dj/kaggle/dataset&#45;preprocessing/activity/&#45;8338189583496759518 -->
<g id="node7" class="node">
<title>http://purl.org/dj/kaggle/dataset&#45;preprocessing/activity/&#45;8338189583496759518</title>
<ellipse fill="none" stroke="black" cx="504.44" cy="-279" rx="145.67" ry="18"/>
<text text-anchor="middle" x="504.44" y="-275.3" font-family="Times,serif" font-size="14.00">&#45;8338189583496759518 (Preparation)</text>
</g>
<!-- http://purl.org/dj/kaggle/dataset&#45;preprocessing/activity/&#45;2954862126882675593&#45;&gt;http://purl.org/dj/kaggle/dataset&#45;preprocessing/activity/&#45;8338189583496759518 -->
<g id="edge8" class="edge">
<title>http://purl.org/dj/kaggle/dataset&#45;preprocessing/activity/&#45;2954862126882675593&#45;&gt;http://purl.org/dj/kaggle/dataset&#45;preprocessing/activity/&#45;8338189583496759518</title>
<path fill="none" stroke="black" d="M502.04,-347.8C502.45,-336.16 503.01,-320.55 503.48,-307.24"/>
<polygon fill="black" stroke="black" points="506.98,-307.29 503.83,-297.18 499.98,-307.05 506.98,-307.29"/>
<text text-anchor="middle" x="526.94" y="-318.8" font-family="Times,serif" font-size="14.00">previous</text>
</g>
<!-- http://purl.org/dj/kaggle/dataset&#45;preprocessing/activity/&#45;7246872278023657376&#45;&gt;http://purl.org/dj/kaggle/dataset&#45;preprocessing/activity/2006206008145644145 -->
<g id="edge9" class="edge">
<title>http://purl.org/dj/kaggle/dataset&#45;preprocessing/activity/&#45;7246872278023657376&#45;&gt;http://purl.org/dj/kaggle/dataset&#45;preprocessing/activity/2006206008145644145</title>
<path fill="none" stroke="black" d="M701.31,-179.4C854.32,-163.11 1131.25,-133.61 1283.31,-117.41"/>
<polygon fill="black" stroke="black" points="1284.02,-120.86 1293.59,-116.32 1283.28,-113.89 1284.02,-120.86"/>
<text text-anchor="middle" x="1061.94" y="-144.8" font-family="Times,serif" font-size="14.00">previous</text>
</g>
<!-- http://purl.org/dj/kaggle/dataset&#45;preprocessing/activity/&#45;7246872278023657376&#45;&gt;http://purl.org/dj/kaggle/dataset&#45;preprocessing/activity/&#45;8338189583496759518 -->
<g id="edge10" class="edge">
<title>http://purl.org/dj/kaggle/dataset&#45;preprocessing/activity/&#45;7246872278023657376&#45;&gt;http://purl.org/dj/kaggle/dataset&#45;preprocessing/activity/&#45;8338189583496759518</title>
<path fill="none" stroke="black" d="M544.08,-209.13C534.91,-214.01 526.11,-220.2 519.44,-228 513.97,-234.39 510.49,-242.72 508.29,-250.74"/>
<polygon fill="black" stroke="black" points="504.86,-250.05 506.11,-260.57 511.69,-251.56 504.86,-250.05"/>
<text text-anchor="middle" x="542.94" y="-231.8" font-family="Times,serif" font-size="14.00">previous</text>
</g>
<!-- http://purl.org/dj/kaggle/dataset&#45;preprocessing -->
<g id="node8" class="node">
<title>http://purl.org/dj/kaggle/dataset&#45;preprocessing</title>
<ellipse fill="none" stroke="black" cx="2063.44" cy="-18" rx="193.87" ry="18"/>
<text text-anchor="middle" x="2063.44" y="-14.3" font-family="Times,serif" font-size="14.00">dataset&#45;preprocessing (dataset&#45;preprocessing.ipynb)</text>
</g>
<!-- http://purl.org/dj/kaggle/dataset&#45;preprocessing/activity/2006206008145644145&#45;&gt;http://purl.org/dj/kaggle/dataset&#45;preprocessing -->
<g id="edge11" class="edge">
<title>http://purl.org/dj/kaggle/dataset&#45;preprocessing/activity/2006206008145644145&#45;&gt;http://purl.org/dj/kaggle/dataset&#45;preprocessing</title>
<path fill="none" stroke="black" d="M1480.85,-92.58C1600.25,-77.5 1810.85,-50.9 1943.46,-34.15"/>
<polygon fill="black" stroke="black" points="1944.18,-37.59 1953.67,-32.86 1943.31,-30.64 1944.18,-37.59"/>
<text text-anchor="middle" x="1789.94" y="-57.8" font-family="Times,serif" font-size="14.00">previous</text>
</g>
<!-- http://purl.org/dj/kaggle/dataset&#45;preprocessing/activity/4116344964216524793&#45;&gt;http://purl.org/dj/kaggle/dataset&#45;preprocessing/activity/2006206008145644145 -->
<g id="edge12" class="edge">
<title>http://purl.org/dj/kaggle/dataset&#45;preprocessing/activity/4116344964216524793&#45;&gt;http://purl.org/dj/kaggle/dataset&#45;preprocessing/activity/2006206008145644145</title>
<path fill="none" stroke="black" d="M2495.27,-174.72C2462.79,-163 2416.47,-148.07 2374.44,-141 2215.08,-114.2 1754.4,-107.9 1524.39,-106.43"/>
<polygon fill="black" stroke="black" points="1524.31,-102.93 1514.29,-106.37 1524.26,-109.93 1524.31,-102.93"/>
<text text-anchor="middle" x="2456.94" y="-144.8" font-family="Times,serif" font-size="14.00">previous</text>
</g>
<!-- http://purl.org/dj/kaggle/dataset&#45;preprocessing/activity/4116344964216524793&#45;&gt;http://purl.org/dj/kaggle/dataset&#45;preprocessing -->
<g id="edge13" class="edge">
<title>http://purl.org/dj/kaggle/dataset&#45;preprocessing/activity/4116344964216524793&#45;&gt;http://purl.org/dj/kaggle/dataset&#45;preprocessing</title>
<path fill="none" stroke="black" d="M2523.26,-173.97C2513.4,-163.11 2499.37,-149.54 2484.44,-141 2385.83,-84.65 2259.1,-52.54 2170.56,-35.55"/>
<polygon fill="black" stroke="black" points="2170.97,-32.07 2160.5,-33.66 2169.68,-38.95 2170.97,-32.07"/>
<text text-anchor="middle" x="2472.94" y="-101.3" font-family="Times,serif" font-size="14.00">previous</text>
</g>
<!-- http://purl.org/dj/kaggle/dataset&#45;preprocessing/activity/&#45;1048090173621562321&#45;&gt;http://purl.org/dj/kaggle/dataset&#45;preprocessing/activity/2006206008145644145 -->
<g id="edge14" class="edge">
<title>http://purl.org/dj/kaggle/dataset&#45;preprocessing/activity/&#45;1048090173621562321&#45;&gt;http://purl.org/dj/kaggle/dataset&#45;preprocessing/activity/2006206008145644145</title>
<path fill="none" stroke="black" d="M181.95,-174.36C205.18,-162.62 238.36,-147.82 269.44,-141 363.43,-120.38 980.7,-110.73 1257.05,-107.41"/>
<polygon fill="black" stroke="black" points="1257.18,-110.91 1267.14,-107.29 1257.1,-103.91 1257.18,-110.91"/>
<text text-anchor="middle" x="292.94" y="-144.8" font-family="Times,serif" font-size="14.00">previous</text>
</g>
<!-- http://purl.org/dj/kaggle/dataset&#45;preprocessing/activity/&#45;8338189583496759518&#45;&gt;http://purl.org/dj/kaggle/dataset&#45;preprocessing/activity/&#45;7246872278023657376 -->
<g id="edge15" class="edge">
<title>http://purl.org/dj/kaggle/dataset&#45;preprocessing/activity/&#45;8338189583496759518&#45;&gt;http://purl.org/dj/kaggle/dataset&#45;preprocessing/activity/&#45;7246872278023657376</title>
<path fill="none" stroke="black" d="M541.67,-261.57C550.5,-256.5 559.39,-250.29 566.44,-243 572.89,-236.32 578.13,-227.73 582.17,-219.55"/>
<polygon fill="black" stroke="black" points="585.43,-220.84 586.36,-210.29 579.05,-217.96 585.43,-220.84"/>
<text text-anchor="middle" x="601.94" y="-231.8" font-family="Times,serif" font-size="14.00">previous</text>
</g>
<!-- http://purl.org/dj/kaggle/dataset&#45;preprocessing/activity/&#45;8338189583496759518&#45;&gt;http://purl.org/dj/kaggle/dataset&#45;preprocessing/activity/2006206008145644145 -->
<g id="edge16" class="edge">
<title>http://purl.org/dj/kaggle/dataset&#45;preprocessing/activity/&#45;8338189583496759518&#45;&gt;http://purl.org/dj/kaggle/dataset&#45;preprocessing/activity/2006206008145644145</title>
<path fill="none" stroke="black" d="M489.29,-260.98C478.8,-250.13 463.96,-236.55 448.44,-228 422.93,-213.95 402.97,-233.25 385.44,-210 375.8,-197.23 374.51,-185.69 385.44,-174 443.62,-111.75 995.71,-104.87 1255.94,-105.13"/>
<polygon fill="black" stroke="black" points="1256.21,-108.63 1266.22,-105.15 1256.22,-101.63 1256.21,-108.63"/>
<text text-anchor="middle" x="408.94" y="-188.3" font-family="Times,serif" font-size="14.00">previous</text>
</g>
<!-- http://purl.org/dj/kaggle/dataset&#45;preprocessing/activity/&#45;8338189583496759518&#45;&gt;http://purl.org/dj/kaggle/dataset&#45;preprocessing/activity/&#45;1048090173621562321 -->
<g id="edge17" class="edge">
<title>http://purl.org/dj/kaggle/dataset&#45;preprocessing/activity/&#45;8338189583496759518&#45;&gt;http://purl.org/dj/kaggle/dataset&#45;preprocessing/activity/&#45;1048090173621562321</title>
<path fill="none" stroke="black" d="M449.69,-262.23C433.8,-256.9 416.64,-250.39 401.44,-243 390.46,-237.66 389.83,-232.36 378.44,-228 349.2,-216.81 316.55,-209.2 285.32,-204.01"/>
<polygon fill="black" stroke="black" points="285.67,-200.52 275.24,-202.41 284.57,-207.44 285.67,-200.52"/>
<text text-anchor="middle" x="424.94" y="-231.8" font-family="Times,serif" font-size="14.00">previous</text>
</g>
<!-- http://purl.org/dj/kaggle/dataset&#45;preprocessing/activity/&#45;2036228928699526398 -->
<g id="node9" class="node">
<title>http://purl.org/dj/kaggle/dataset&#45;preprocessing/activity/&#45;2036228928699526398</title>
<ellipse fill="none" stroke="black" cx="913.44" cy="-192" rx="151.37" ry="18"/>
<text text-anchor="middle" x="913.44" y="-188.3" font-family="Times,serif" font-size="14.00">&#45;2036228928699526398 (Visualisation)</text>
</g>
<!-- http://purl.org/dj/kaggle/dataset&#45;preprocessing/activity/&#45;2036228928699526398&#45;&gt;http://purl.org/dj/kaggle/dataset&#45;preprocessing/activity/2006206008145644145 -->
<g id="edge18" class="edge">
<title>http://purl.org/dj/kaggle/dataset&#45;preprocessing/activity/&#45;2036228928699526398&#45;&gt;http://purl.org/dj/kaggle/dataset&#45;preprocessing/activity/2006206008145644145</title>
<path fill="none" stroke="black" d="M993.81,-176.68C1080.23,-161.28 1217.04,-136.9 1305.26,-121.18"/>
<polygon fill="black" stroke="black" points="1306.01,-124.6 1315.24,-119.4 1304.78,-117.71 1306.01,-124.6"/>
<text text-anchor="middle" x="1203.94" y="-144.8" font-family="Times,serif" font-size="14.00">previous</text>
</g>
<!-- http://purl.org/dj/kaggle/dataset&#45;preprocessing/activity/6711985813792594104 -->
<g id="node10" class="node">
<title>http://purl.org/dj/kaggle/dataset&#45;preprocessing/activity/6711985813792594104</title>
<ellipse fill="none" stroke="black" cx="1231.44" cy="-192" rx="148.67" ry="18"/>
<text text-anchor="middle" x="1231.44" y="-188.3" font-family="Times,serif" font-size="14.00">6711985813792594104 (Visualisation)</text>
</g>
<!-- http://purl.org/dj/kaggle/dataset&#45;preprocessing/activity/6711985813792594104&#45;&gt;http://purl.org/dj/kaggle/dataset&#45;preprocessing/activity/2006206008145644145 -->
<g id="edge19" class="edge">
<title>http://purl.org/dj/kaggle/dataset&#45;preprocessing/activity/6711985813792594104&#45;&gt;http://purl.org/dj/kaggle/dataset&#45;preprocessing/activity/2006206008145644145</title>
<path fill="none" stroke="black" d="M1262.85,-174.21C1288.06,-160.73 1323.59,-141.73 1350.76,-127.21"/>
<polygon fill="black" stroke="black" points="1352.46,-130.27 1359.63,-122.47 1349.16,-124.1 1352.46,-130.27"/>
<text text-anchor="middle" x="1343.94" y="-144.8" font-family="Times,serif" font-size="14.00">previous</text>
</g>
<!-- http://purl.org/dj/kaggle/dataset&#45;preprocessing/activity/&#45;1284214276818658476 -->
<g id="node11" class="node">
<title>http://purl.org/dj/kaggle/dataset&#45;preprocessing/activity/&#45;1284214276818658476</title>
<ellipse fill="none" stroke="black" cx="1549.44" cy="-192" rx="151.37" ry="18"/>
<text text-anchor="middle" x="1549.44" y="-188.3" font-family="Times,serif" font-size="14.00">&#45;1284214276818658476 (Visualisation)</text>
</g>
<!-- http://purl.org/dj/kaggle/dataset&#45;preprocessing/activity/&#45;1284214276818658476&#45;&gt;http://purl.org/dj/kaggle/dataset&#45;preprocessing/activity/2006206008145644145 -->
<g id="edge20" class="edge">
<title>http://purl.org/dj/kaggle/dataset&#45;preprocessing/activity/&#45;1284214276818658476&#45;&gt;http://purl.org/dj/kaggle/dataset&#45;preprocessing/activity/2006206008145644145</title>
<path fill="none" stroke="black" d="M1518.02,-174.21C1492.82,-160.73 1457.28,-141.73 1430.11,-127.21"/>
<polygon fill="black" stroke="black" points="1431.71,-124.1 1421.24,-122.47 1428.41,-130.27 1431.71,-124.1"/>
<text text-anchor="middle" x="1502.94" y="-144.8" font-family="Times,serif" font-size="14.00">previous</text>
</g>
<!-- http://purl.org/dj/kaggle/dataset&#45;preprocessing/activity/2842182356132240979 -->
<g id="node12" class="node">
<title>http://purl.org/dj/kaggle/dataset&#45;preprocessing/activity/2842182356132240979</title>
<ellipse fill="none" stroke="black" cx="1867.44" cy="-192" rx="148.67" ry="18"/>
<text text-anchor="middle" x="1867.44" y="-188.3" font-family="Times,serif" font-size="14.00">2842182356132240979 (Visualisation)</text>
</g>
<!-- http://purl.org/dj/kaggle/dataset&#45;preprocessing/activity/2842182356132240979&#45;&gt;http://purl.org/dj/kaggle/dataset&#45;preprocessing/activity/2006206008145644145 -->
<g id="edge21" class="edge">
<title>http://purl.org/dj/kaggle/dataset&#45;preprocessing/activity/2842182356132240979&#45;&gt;http://purl.org/dj/kaggle/dataset&#45;preprocessing/activity/2006206008145644145</title>
<path fill="none" stroke="black" d="M1787.6,-176.77C1701.15,-161.37 1563.82,-136.9 1475.42,-121.14"/>
<polygon fill="black" stroke="black" points="1475.88,-117.67 1465.42,-119.36 1474.65,-124.56 1475.88,-117.67"/>
<text text-anchor="middle" x="1680.94" y="-144.8" font-family="Times,serif" font-size="14.00">previous</text>
</g>
<!-- http://purl.org/dj/kaggle/dataset&#45;preprocessing/activity/6296763850640682734 -->
<g id="node13" class="node">
<title>http://purl.org/dj/kaggle/dataset&#45;preprocessing/activity/6296763850640682734</title>
<ellipse fill="none" stroke="black" cx="2183.44" cy="-192" rx="148.67" ry="18"/>
<text text-anchor="middle" x="2183.44" y="-188.3" font-family="Times,serif" font-size="14.00">6296763850640682734 (Visualisation)</text>
</g>
<!-- http://purl.org/dj/kaggle/dataset&#45;preprocessing/activity/6296763850640682734&#45;&gt;http://purl.org/dj/kaggle/dataset&#45;preprocessing/activity/2006206008145644145 -->
<g id="edge22" class="edge">
<title>http://purl.org/dj/kaggle/dataset&#45;preprocessing/activity/6296763850640682734&#45;&gt;http://purl.org/dj/kaggle/dataset&#45;preprocessing/activity/2006206008145644145</title>
<path fill="none" stroke="black" d="M2076.35,-179.47C2059.32,-177.64 2041.9,-175.77 2025.44,-174 1839.62,-154.05 1623.2,-130.89 1497.04,-117.4"/>
<polygon fill="black" stroke="black" points="1497.31,-113.91 1486.99,-116.32 1496.56,-120.87 1497.31,-113.91"/>
<text text-anchor="middle" x="1873.94" y="-144.8" font-family="Times,serif" font-size="14.00">previous</text>
</g>
</g>
</svg>
