<?xml version="1.0" encoding="UTF-8" standalone="no"?>
<!DOCTYPE svg PUBLIC "-//W3C//DTD SVG 1.1//EN"
 "http://www.w3.org/Graphics/SVG/1.1/DTD/svg11.dtd">
<!-- Generated by graphviz version 2.44.1 (20200629.0846)
 -->
<!-- Pages: 1 -->
<svg width="3372pt" height="629pt"
 viewBox="0.00 0.00 3372.02 629.00" xmlns="http://www.w3.org/2000/svg" xmlns:xlink="http://www.w3.org/1999/xlink">
<g id="graph0" class="graph" transform="scale(1 1) rotate(0) translate(4 625)">
<polygon fill="white" stroke="transparent" points="-4,4 -4,-625 3368.02,-625 3368.02,4 -4,4"/>
<!-- http://purl.org/dj/kaggle/data&#45;cleaning&#45;challenge&#45;parsing&#45;dates#769787130 -->
<g id="node1" class="node">
<title>http://purl.org/dj/kaggle/data&#45;cleaning&#45;challenge&#45;parsing&#45;dates#769787130</title>
<ellipse fill="none" stroke="black" cx="703.23" cy="-408" rx="163.57" ry="18"/>
<text text-anchor="middle" x="703.23" y="-404.3" font-family="Times,serif" font-size="14.00">769787130 (landslides(0)$1: Visualisation)</text>
</g>
<!-- http://purl.org/dj/kaggle/data&#45;cleaning&#45;challenge&#45;parsing&#45;dates#165806624 -->
<g id="node2" class="node">
<title>http://purl.org/dj/kaggle/data&#45;cleaning&#45;challenge&#45;parsing&#45;dates#165806624</title>
<ellipse fill="none" stroke="black" cx="516.23" cy="-321" rx="109.68" ry="18"/>
<text text-anchor="middle" x="516.23" y="-317.3" font-family="Times,serif" font-size="14.00">165806624 (date(0): Reuse)</text>
</g>
<!-- http://purl.org/dj/kaggle/data&#45;cleaning&#45;challenge&#45;parsing&#45;dates#769787130&#45;&gt;http://purl.org/dj/kaggle/data&#45;cleaning&#45;challenge&#45;parsing&#45;dates#165806624 -->
<g id="edge1" class="edge">
<title>http://purl.org/dj/kaggle/data&#45;cleaning&#45;challenge&#45;parsing&#45;dates#769787130&#45;&gt;http://purl.org/dj/kaggle/data&#45;cleaning&#45;challenge&#45;parsing&#45;dates#165806624</title>
<path fill="none" stroke="black" d="M666.73,-390.41C636.45,-376.65 593.27,-357.02 560.93,-342.32"/>
<polygon fill="black" stroke="black" points="562.24,-339.07 551.69,-338.12 559.34,-345.44 562.24,-339.07"/>
<text text-anchor="middle" x="643.73" y="-360.8" font-family="Times,serif" font-size="14.00">previous</text>
</g>
<!-- http://purl.org/dj/kaggle/data&#45;cleaning&#45;challenge&#45;parsing&#45;dates#769721593 -->
<g id="node3" class="node">
<title>http://purl.org/dj/kaggle/data&#45;cleaning&#45;challenge&#45;parsing&#45;dates#769721593</title>
<ellipse fill="none" stroke="black" cx="963.23" cy="-321" rx="156.77" ry="18"/>
<text text-anchor="middle" x="963.23" y="-317.3" font-family="Times,serif" font-size="14.00">769721593 (landslides(0)$0: Movement)</text>
</g>
<!-- http://purl.org/dj/kaggle/data&#45;cleaning&#45;challenge&#45;parsing&#45;dates#769787130&#45;&gt;http://purl.org/dj/kaggle/data&#45;cleaning&#45;challenge&#45;parsing&#45;dates#769721593 -->
<g id="edge2" class="edge">
<title>http://purl.org/dj/kaggle/data&#45;cleaning&#45;challenge&#45;parsing&#45;dates#769787130&#45;&gt;http://purl.org/dj/kaggle/data&#45;cleaning&#45;challenge&#45;parsing&#45;dates#769721593</title>
<path fill="none" stroke="black" d="M752.75,-390.81C795.85,-376.72 858.41,-356.27 904.12,-341.32"/>
<polygon fill="black" stroke="black" points="905.48,-344.56 913.9,-338.13 903.31,-337.91 905.48,-344.56"/>
<text text-anchor="middle" x="871.73" y="-360.8" font-family="Times,serif" font-size="14.00">previous</text>
</g>
<!-- http://purl.org/dj/kaggle/data&#45;cleaning&#45;challenge&#45;parsing&#45;dates#489423789 -->
<g id="node4" class="node">
<title>http://purl.org/dj/kaggle/data&#45;cleaning&#45;challenge&#45;parsing&#45;dates#489423789</title>
<ellipse fill="none" stroke="black" cx="691.23" cy="-267" rx="139.98" ry="18"/>
<text text-anchor="middle" x="691.23" y="-263.3" font-family="Times,serif" font-size="14.00">489423789 (%m/%d/%y(0): Reuse)</text>
</g>
<!-- http://purl.org/dj/kaggle/data&#45;cleaning&#45;challenge&#45;parsing&#45;dates#769787130&#45;&gt;http://purl.org/dj/kaggle/data&#45;cleaning&#45;challenge&#45;parsing&#45;dates#489423789 -->
<g id="edge3" class="edge">
<title>http://purl.org/dj/kaggle/data&#45;cleaning&#45;challenge&#45;parsing&#45;dates#769787130&#45;&gt;http://purl.org/dj/kaggle/data&#45;cleaning&#45;challenge&#45;parsing&#45;dates#489423789</title>
<path fill="none" stroke="black" d="M701.76,-389.96C699.72,-366.3 696,-323.26 693.57,-295.15"/>
<polygon fill="black" stroke="black" points="697.06,-294.85 692.71,-285.18 690.09,-295.45 697.06,-294.85"/>
<text text-anchor="middle" x="722.73" y="-360.8" font-family="Times,serif" font-size="14.00">previous</text>
</g>
<!-- http://purl.org/dj/kaggle/data&#45;cleaning&#45;challenge&#45;parsing&#45;dates -->
<g id="node5" class="node">
<title>http://purl.org/dj/kaggle/data&#45;cleaning&#45;challenge&#45;parsing&#45;dates</title>
<ellipse fill="none" stroke="black" cx="2010.23" cy="-18" rx="144.07" ry="18"/>
<text text-anchor="middle" x="2010.23" y="-14.3" font-family="Times,serif" font-size="14.00">data&#45;cleaning&#45;challenge&#45;parsing&#45;dates</text>
</g>
<!-- http://purl.org/dj/kaggle/data&#45;cleaning&#45;challenge&#45;parsing&#45;dates#165806624&#45;&gt;http://purl.org/dj/kaggle/data&#45;cleaning&#45;challenge&#45;parsing&#45;dates -->
<g id="edge4" class="edge">
<title>http://purl.org/dj/kaggle/data&#45;cleaning&#45;challenge&#45;parsing&#45;dates#165806624&#45;&gt;http://purl.org/dj/kaggle/data&#45;cleaning&#45;challenge&#45;parsing&#45;dates</title>
<path fill="none" stroke="black" d="M512.89,-302.75C507.3,-269.02 499.49,-193.08 530.23,-141 552.41,-103.42 571.3,-102.13 612.23,-87 721.9,-46.46 756.66,-63.14 873.23,-54 1223.78,-26.51 1636.71,-20.33 1855.68,-19.11"/>
<polygon fill="black" stroke="black" points="1855.97,-22.61 1865.96,-19.06 1855.94,-15.61 1855.97,-22.61"/>
<text text-anchor="middle" x="553.73" y="-155.3" font-family="Times,serif" font-size="14.00">previous</text>
</g>
<!-- http://purl.org/dj/kaggle/data&#45;cleaning&#45;challenge&#45;parsing&#45;dates#80085334 -->
<g id="node6" class="node">
<title>http://purl.org/dj/kaggle/data&#45;cleaning&#45;challenge&#45;parsing&#45;dates#80085334</title>
<ellipse fill="none" stroke="black" cx="1155.23" cy="-213" rx="124.28" ry="18"/>
<text text-anchor="middle" x="1155.23" y="-209.3" font-family="Times,serif" font-size="14.00">80085334 (pd(0): Visualisation)</text>
</g>
<!-- http://purl.org/dj/kaggle/data&#45;cleaning&#45;challenge&#45;parsing&#45;dates#769721593&#45;&gt;http://purl.org/dj/kaggle/data&#45;cleaning&#45;challenge&#45;parsing&#45;dates#80085334 -->
<g id="edge5" class="edge">
<title>http://purl.org/dj/kaggle/data&#45;cleaning&#45;challenge&#45;parsing&#45;dates#769721593&#45;&gt;http://purl.org/dj/kaggle/data&#45;cleaning&#45;challenge&#45;parsing&#45;dates#80085334</title>
<path fill="none" stroke="black" d="M993.65,-303.2C1026.89,-284.85 1080.23,-255.41 1116.45,-235.41"/>
<polygon fill="black" stroke="black" points="1118.2,-238.44 1125.27,-230.54 1114.82,-232.31 1118.2,-238.44"/>
<text text-anchor="middle" x="1110.73" y="-263.3" font-family="Times,serif" font-size="14.00">previous</text>
</g>
<!-- http://purl.org/dj/kaggle/data&#45;cleaning&#45;challenge&#45;parsing&#45;dates#697241186 -->
<g id="node7" class="node">
<title>http://purl.org/dj/kaggle/data&#45;cleaning&#45;challenge&#45;parsing&#45;dates#697241186</title>
<ellipse fill="none" stroke="black" cx="868.23" cy="-159" rx="221.76" ry="18"/>
<text text-anchor="middle" x="868.23" y="-155.3" font-family="Times,serif" font-size="14.00">697241186 (../input/landslide&#45;events/catalog.csv(0): Reuse)</text>
</g>
<!-- http://purl.org/dj/kaggle/data&#45;cleaning&#45;challenge&#45;parsing&#45;dates#769721593&#45;&gt;http://purl.org/dj/kaggle/data&#45;cleaning&#45;challenge&#45;parsing&#45;dates#697241186 -->
<g id="edge6" class="edge">
<title>http://purl.org/dj/kaggle/data&#45;cleaning&#45;challenge&#45;parsing&#45;dates#769721593&#45;&gt;http://purl.org/dj/kaggle/data&#45;cleaning&#45;challenge&#45;parsing&#45;dates#697241186</title>
<path fill="none" stroke="black" d="M953.06,-302.88C936.35,-274.73 902.98,-218.52 883.44,-185.62"/>
<polygon fill="black" stroke="black" points="886.44,-183.81 878.32,-177 880.42,-187.39 886.44,-183.81"/>
<text text-anchor="middle" x="963.73" y="-263.3" font-family="Times,serif" font-size="14.00">previous</text>
</g>
<!-- http://purl.org/dj/kaggle/data&#45;cleaning&#45;challenge&#45;parsing&#45;dates#489423789&#45;&gt;http://purl.org/dj/kaggle/data&#45;cleaning&#45;challenge&#45;parsing&#45;dates -->
<g id="edge7" class="edge">
<title>http://purl.org/dj/kaggle/data&#45;cleaning&#45;challenge&#45;parsing&#45;dates#489423789&#45;&gt;http://purl.org/dj/kaggle/data&#45;cleaning&#45;challenge&#45;parsing&#45;dates</title>
<path fill="none" stroke="black" d="M660.69,-249.33C620.48,-225.28 558.44,-179.51 590.23,-141 669.66,-44.78 1505.41,-24.45 1856.39,-20.15"/>
<polygon fill="black" stroke="black" points="1856.67,-23.65 1866.63,-20.03 1856.59,-16.65 1856.67,-23.65"/>
<text text-anchor="middle" x="613.73" y="-155.3" font-family="Times,serif" font-size="14.00">previous</text>
</g>
<!-- http://purl.org/dj/kaggle/data&#45;cleaning&#45;challenge&#45;parsing&#45;dates#80085334&#45;&gt;http://purl.org/dj/kaggle/data&#45;cleaning&#45;challenge&#45;parsing&#45;dates -->
<g id="edge8" class="edge">
<title>http://purl.org/dj/kaggle/data&#45;cleaning&#45;challenge&#45;parsing&#45;dates#80085334&#45;&gt;http://purl.org/dj/kaggle/data&#45;cleaning&#45;challenge&#45;parsing&#45;dates</title>
<path fill="none" stroke="black" d="M1135.03,-194.93C1130.24,-189.72 1125.79,-183.6 1123.23,-177 1117.44,-162.08 1113.5,-153.7 1123.23,-141 1238.34,9.31 1352.11,-75.28 1540.23,-54 1651.04,-41.47 1777.07,-32.36 1870.71,-26.58"/>
<polygon fill="black" stroke="black" points="1871.04,-30.07 1880.81,-25.96 1870.62,-23.08 1871.04,-30.07"/>
<text text-anchor="middle" x="1196.73" y="-101.3" font-family="Times,serif" font-size="14.00">previous</text>
</g>
<!-- http://purl.org/dj/python/lib/144966264 -->
<g id="node8" class="node">
<title>http://purl.org/dj/python/lib/144966264</title>
<ellipse fill="none" stroke="black" cx="1488.23" cy="-105" rx="109.38" ry="18"/>
<text text-anchor="middle" x="1488.23" y="-101.3" font-family="Times,serif" font-size="14.00">144966264 (pandas: Reuse)</text>
</g>
<!-- http://purl.org/dj/kaggle/data&#45;cleaning&#45;challenge&#45;parsing&#45;dates#80085334&#45;&gt;http://purl.org/dj/python/lib/144966264 -->
<g id="edge9" class="edge">
<title>http://purl.org/dj/kaggle/data&#45;cleaning&#45;challenge&#45;parsing&#45;dates#80085334&#45;&gt;http://purl.org/dj/python/lib/144966264</title>
<path fill="none" stroke="black" d="M1142.16,-195.07C1131.65,-179.27 1120.68,-155.96 1134.23,-141 1150.2,-123.37 1275.13,-114.29 1372.11,-109.85"/>
<polygon fill="black" stroke="black" points="1372.46,-113.33 1382.3,-109.39 1372.15,-106.34 1372.46,-113.33"/>
<text text-anchor="middle" x="1157.73" y="-155.3" font-family="Times,serif" font-size="14.00">previous</text>
</g>
<!-- http://purl.org/dj/kaggle/data&#45;cleaning&#45;challenge&#45;parsing&#45;dates#697241186&#45;&gt;http://purl.org/dj/kaggle/data&#45;cleaning&#45;challenge&#45;parsing&#45;dates -->
<g id="edge10" class="edge">
<title>http://purl.org/dj/kaggle/data&#45;cleaning&#45;challenge&#45;parsing&#45;dates#697241186&#45;&gt;http://purl.org/dj/kaggle/data&#45;cleaning&#45;challenge&#45;parsing&#45;dates</title>
<path fill="none" stroke="black" d="M895.08,-141.13C935.72,-116.64 1016.07,-72.17 1091.23,-54 1163.38,-36.56 1615.61,-25.99 1857.68,-21.51"/>
<polygon fill="black" stroke="black" points="1858.04,-25 1867.98,-21.32 1857.92,-18 1858.04,-25"/>
<text text-anchor="middle" x="1018.73" y="-101.3" font-family="Times,serif" font-size="14.00">previous</text>
</g>
<!-- http://purl.org/dj/python/lib/144966264&#45;&gt;http://purl.org/dj/kaggle/data&#45;cleaning&#45;challenge&#45;parsing&#45;dates -->
<g id="edge13" class="edge">
<title>http://purl.org/dj/python/lib/144966264&#45;&gt;http://purl.org/dj/kaggle/data&#45;cleaning&#45;challenge&#45;parsing&#45;dates</title>
<path fill="none" stroke="black" d="M1511.8,-87.22C1529.26,-75.73 1554.11,-61.3 1578.23,-54 1629.89,-38.36 1759.34,-29.26 1863.15,-24.28"/>
<polygon fill="black" stroke="black" points="1863.61,-27.76 1873.43,-23.79 1863.28,-20.77 1863.61,-27.76"/>
<text text-anchor="middle" x="1601.73" y="-57.8" font-family="Times,serif" font-size="14.00">previous</text>
</g>
<!-- http://purl.org/dj/kaggle/data&#45;cleaning&#45;challenge&#45;parsing&#45;dates#769852667 -->
<g id="node9" class="node">
<title>http://purl.org/dj/kaggle/data&#45;cleaning&#45;challenge&#45;parsing&#45;dates#769852667</title>
<ellipse fill="none" stroke="black" cx="700.23" cy="-516" rx="157.87" ry="18"/>
<text text-anchor="middle" x="700.23" y="-512.3" font-family="Times,serif" font-size="14.00">769852667 (landslides(0)$2: Preparation)</text>
</g>
<!-- http://purl.org/dj/kaggle/data&#45;cleaning&#45;challenge&#45;parsing&#45;dates#769852667&#45;&gt;http://purl.org/dj/kaggle/data&#45;cleaning&#45;challenge&#45;parsing&#45;dates#769787130 -->
<g id="edge11" class="edge">
<title>http://purl.org/dj/kaggle/data&#45;cleaning&#45;challenge&#45;parsing&#45;dates#769852667&#45;&gt;http://purl.org/dj/kaggle/data&#45;cleaning&#45;challenge&#45;parsing&#45;dates#769787130</title>
<path fill="none" stroke="black" d="M700.71,-497.97C701.18,-481.38 701.9,-455.88 702.45,-436.43"/>
<polygon fill="black" stroke="black" points="705.95,-436.44 702.74,-426.34 698.96,-436.24 705.95,-436.44"/>
<text text-anchor="middle" x="724.73" y="-458.3" font-family="Times,serif" font-size="14.00">previous</text>
</g>
<!-- http://purl.org/dj/kaggle/data&#45;cleaning&#45;challenge&#45;parsing&#45;dates#769852667&#45;&gt;http://purl.org/dj/kaggle/data&#45;cleaning&#45;challenge&#45;parsing&#45;dates#80085334 -->
<g id="edge12" class="edge">
<title>http://purl.org/dj/kaggle/data&#45;cleaning&#45;challenge&#45;parsing&#45;dates#769852667&#45;&gt;http://purl.org/dj/kaggle/data&#45;cleaning&#45;challenge&#45;parsing&#45;dates#80085334</title>
<path fill="none" stroke="black" d="M839.55,-507.51C961.46,-497.69 1125.32,-475.47 1166.23,-426 1210.03,-373.04 1184.19,-284.75 1166.92,-240.7"/>
<polygon fill="black" stroke="black" points="1170.08,-239.19 1163.07,-231.25 1163.6,-241.83 1170.08,-239.19"/>
<text text-anchor="middle" x="1212.73" y="-360.8" font-family="Times,serif" font-size="14.00">previous</text>
</g>
<!-- http://purl.org/dj/kaggle/data&#45;cleaning&#45;challenge&#45;parsing&#45;dates#2737703504 -->
<g id="node10" class="node">
<title>http://purl.org/dj/kaggle/data&#45;cleaning&#45;challenge&#45;parsing&#45;dates#2737703504</title>
<ellipse fill="none" stroke="black" cx="224.23" cy="-603" rx="224.46" ry="18"/>
<text text-anchor="middle" x="224.23" y="-599.3" font-family="Times,serif" font-size="14.00">2737703504 (day_of_month_landslides(0)$1: Visualisation)</text>
</g>
<!-- http://purl.org/dj/kaggle/data&#45;cleaning&#45;challenge&#45;parsing&#45;dates#2737703504&#45;&gt;http://purl.org/dj/kaggle/data&#45;cleaning&#45;challenge&#45;parsing&#45;dates#769852667 -->
<g id="edge14" class="edge">
<title>http://purl.org/dj/kaggle/data&#45;cleaning&#45;challenge&#45;parsing&#45;dates#2737703504&#45;&gt;http://purl.org/dj/kaggle/data&#45;cleaning&#45;challenge&#45;parsing&#45;dates#769852667</title>
<path fill="none" stroke="black" d="M311.54,-586.41C395.96,-571.33 523.35,-548.59 609.06,-533.28"/>
<polygon fill="black" stroke="black" points="609.81,-536.7 619.04,-531.5 608.58,-529.81 609.81,-536.7"/>
<text text-anchor="middle" x="513.73" y="-555.8" font-family="Times,serif" font-size="14.00">previous</text>
</g>
<!-- http://purl.org/dj/kaggle/data&#45;cleaning&#45;challenge&#45;parsing&#45;dates#692192510 -->
<g id="node11" class="node">
<title>http://purl.org/dj/kaggle/data&#45;cleaning&#45;challenge&#45;parsing&#45;dates#692192510</title>
<ellipse fill="none" stroke="black" cx="184.23" cy="-462" rx="137.28" ry="18"/>
<text text-anchor="middle" x="184.23" y="-458.3" font-family="Times,serif" font-size="14.00">692192510 (date_parsed(0): Reuse)</text>
</g>
<!-- http://purl.org/dj/kaggle/data&#45;cleaning&#45;challenge&#45;parsing&#45;dates#2737703504&#45;&gt;http://purl.org/dj/kaggle/data&#45;cleaning&#45;challenge&#45;parsing&#45;dates#692192510 -->
<g id="edge15" class="edge">
<title>http://purl.org/dj/kaggle/data&#45;cleaning&#45;challenge&#45;parsing&#45;dates#2737703504&#45;&gt;http://purl.org/dj/kaggle/data&#45;cleaning&#45;challenge&#45;parsing&#45;dates#692192510</title>
<path fill="none" stroke="black" d="M219.33,-584.96C212.52,-561.3 200.13,-518.26 192.04,-490.15"/>
<polygon fill="black" stroke="black" points="195.3,-488.83 189.18,-480.18 188.58,-490.76 195.3,-488.83"/>
<text text-anchor="middle" x="237.73" y="-555.8" font-family="Times,serif" font-size="14.00">previous</text>
</g>
<!-- http://purl.org/dj/kaggle/data&#45;cleaning&#45;challenge&#45;parsing&#45;dates#692192510&#45;&gt;http://purl.org/dj/kaggle/data&#45;cleaning&#45;challenge&#45;parsing&#45;dates -->
<g id="edge16" class="edge">
<title>http://purl.org/dj/kaggle/data&#45;cleaning&#45;challenge&#45;parsing&#45;dates#692192510&#45;&gt;http://purl.org/dj/kaggle/data&#45;cleaning&#45;challenge&#45;parsing&#45;dates</title>
<path fill="none" stroke="black" d="M183.94,-443.75C183.65,-424.62 183.23,-392.86 183.23,-365.5 183.23,-365.5 183.23,-365.5 183.23,-104 183.23,3.91 558.55,-60.97 666.23,-54 1096.42,-26.17 1605.42,-20.28 1855.61,-19.16"/>
<polygon fill="black" stroke="black" points="1855.88,-22.66 1865.87,-19.11 1855.85,-15.66 1855.88,-22.66"/>
<text text-anchor="middle" x="206.73" y="-263.3" font-family="Times,serif" font-size="14.00">previous</text>
</g>
<!-- http://purl.org/dj/kaggle/data&#45;cleaning&#45;challenge&#45;parsing&#45;dates#82575712 -->
<g id="node12" class="node">
<title>http://purl.org/dj/kaggle/data&#45;cleaning&#45;challenge&#45;parsing&#45;dates#82575712</title>
<ellipse fill="none" stroke="black" cx="2346.23" cy="-213" rx="124.28" ry="18"/>
<text text-anchor="middle" x="2346.23" y="-209.3" font-family="Times,serif" font-size="14.00">82575712 (np(0): Visualisation)</text>
</g>
<!-- http://purl.org/dj/kaggle/data&#45;cleaning&#45;challenge&#45;parsing&#45;dates#82575712&#45;&gt;http://purl.org/dj/kaggle/data&#45;cleaning&#45;challenge&#45;parsing&#45;dates -->
<g id="edge17" class="edge">
<title>http://purl.org/dj/kaggle/data&#45;cleaning&#45;challenge&#45;parsing&#45;dates#82575712&#45;&gt;http://purl.org/dj/kaggle/data&#45;cleaning&#45;challenge&#45;parsing&#45;dates</title>
<path fill="none" stroke="black" d="M2357.17,-194.95C2365.83,-179.06 2374.48,-155.69 2361.23,-141 2335.2,-112.13 2221.68,-141 2187.23,-123 2168.52,-113.22 2173.07,-99.74 2156.23,-87 2129.29,-66.61 2095.25,-50.32 2066.82,-38.8"/>
<polygon fill="black" stroke="black" points="2068,-35.5 2057.41,-35.07 2065.42,-42.01 2068,-35.5"/>
<text text-anchor="middle" x="2210.73" y="-101.3" font-family="Times,serif" font-size="14.00">previous</text>
</g>
<!-- http://purl.org/dj/python/lib/111084090 -->
<g id="node13" class="node">
<title>http://purl.org/dj/python/lib/111084090</title>
<ellipse fill="none" stroke="black" cx="2353.23" cy="-105" rx="109.68" ry="18"/>
<text text-anchor="middle" x="2353.23" y="-101.3" font-family="Times,serif" font-size="14.00">111084090 (numpy: Reuse)</text>
</g>
<!-- http://purl.org/dj/kaggle/data&#45;cleaning&#45;challenge&#45;parsing&#45;dates#82575712&#45;&gt;http://purl.org/dj/python/lib/111084090 -->
<g id="edge18" class="edge">
<title>http://purl.org/dj/kaggle/data&#45;cleaning&#45;challenge&#45;parsing&#45;dates#82575712&#45;&gt;http://purl.org/dj/python/lib/111084090</title>
<path fill="none" stroke="black" d="M2372.21,-195.02C2377.88,-189.96 2383.1,-183.89 2386.23,-177 2392.84,-162.43 2392.14,-155.87 2386.23,-141 2384.82,-137.45 2382.87,-134.06 2380.6,-130.87"/>
<polygon fill="black" stroke="black" points="2383.13,-128.44 2374.05,-122.97 2377.74,-132.91 2383.13,-128.44"/>
<text text-anchor="middle" x="2413.73" y="-155.3" font-family="Times,serif" font-size="14.00">previous</text>
</g>
<!-- http://purl.org/dj/python/lib/111084090&#45;&gt;http://purl.org/dj/kaggle/data&#45;cleaning&#45;challenge&#45;parsing&#45;dates -->
<g id="edge19" class="edge">
<title>http://purl.org/dj/python/lib/111084090&#45;&gt;http://purl.org/dj/kaggle/data&#45;cleaning&#45;challenge&#45;parsing&#45;dates</title>
<path fill="none" stroke="black" d="M2308.16,-88.53C2276.08,-77.88 2231.83,-63.93 2192.23,-54 2163.33,-46.76 2131.53,-40.18 2102.71,-34.73"/>
<polygon fill="black" stroke="black" points="2103.12,-31.24 2092.65,-32.84 2101.84,-38.12 2103.12,-31.24"/>
<text text-anchor="middle" x="2268.73" y="-57.8" font-family="Times,serif" font-size="14.00">previous</text>
</g>
<!-- http://purl.org/dj/kaggle/data&#45;cleaning&#45;challenge&#45;parsing&#45;dates#2737637967 -->
<g id="node14" class="node">
<title>http://purl.org/dj/kaggle/data&#45;cleaning&#45;challenge&#45;parsing&#45;dates#2737637967</title>
<ellipse fill="none" stroke="black" cx="697.23" cy="-603" rx="224.46" ry="18"/>
<text text-anchor="middle" x="697.23" y="-599.3" font-family="Times,serif" font-size="14.00">2737637967 (day_of_month_landslides(0)$0: Visualisation)</text>
</g>
<!-- http://purl.org/dj/kaggle/data&#45;cleaning&#45;challenge&#45;parsing&#45;dates#2737637967&#45;&gt;http://purl.org/dj/kaggle/data&#45;cleaning&#45;challenge&#45;parsing&#45;dates#165806624 -->
<g id="edge20" class="edge">
<title>http://purl.org/dj/kaggle/data&#45;cleaning&#45;challenge&#45;parsing&#45;dates#2737637967&#45;&gt;http://purl.org/dj/kaggle/data&#45;cleaning&#45;challenge&#45;parsing&#45;dates#165806624</title>
<path fill="none" stroke="black" d="M613.24,-586.25C583.28,-576.31 552.27,-560.17 533.23,-534 493,-478.69 502.09,-392.43 510.19,-348.97"/>
<polygon fill="black" stroke="black" points="513.62,-349.62 512.14,-339.13 506.76,-348.26 513.62,-349.62"/>
<text text-anchor="middle" x="531.73" y="-458.3" font-family="Times,serif" font-size="14.00">previous</text>
</g>
<!-- http://purl.org/dj/kaggle/data&#45;cleaning&#45;challenge&#45;parsing&#45;dates#2737637967&#45;&gt;http://purl.org/dj/kaggle/data&#45;cleaning&#45;challenge&#45;parsing&#45;dates#769852667 -->
<g id="edge21" class="edge">
<title>http://purl.org/dj/kaggle/data&#45;cleaning&#45;challenge&#45;parsing&#45;dates#2737637967&#45;&gt;http://purl.org/dj/kaggle/data&#45;cleaning&#45;challenge&#45;parsing&#45;dates#769852667</title>
<path fill="none" stroke="black" d="M697.84,-584.8C698.25,-573.16 698.8,-557.55 699.27,-544.24"/>
<polygon fill="black" stroke="black" points="702.77,-544.29 699.62,-534.18 695.77,-544.05 702.77,-544.29"/>
<text text-anchor="middle" x="721.73" y="-555.8" font-family="Times,serif" font-size="14.00">previous</text>
</g>
<!-- http://purl.org/dj/kaggle/data&#45;cleaning&#45;challenge&#45;parsing&#45;dates#1554976687 -->
<g id="node15" class="node">
<title>http://purl.org/dj/kaggle/data&#45;cleaning&#45;challenge&#45;parsing&#45;dates#1554976687</title>
<ellipse fill="none" stroke="black" cx="1926.23" cy="-159" rx="239.36" ry="18"/>
<text text-anchor="middle" x="1926.23" y="-155.3" font-family="Times,serif" font-size="14.00">1554976687 (../input/volcanic&#45;eruptions/database.csv(0): Reuse)</text>
</g>
<!-- http://purl.org/dj/kaggle/data&#45;cleaning&#45;challenge&#45;parsing&#45;dates#1554976687&#45;&gt;http://purl.org/dj/kaggle/data&#45;cleaning&#45;challenge&#45;parsing&#45;dates -->
<g id="edge22" class="edge">
<title>http://purl.org/dj/kaggle/data&#45;cleaning&#45;challenge&#45;parsing&#45;dates#1554976687&#45;&gt;http://purl.org/dj/kaggle/data&#45;cleaning&#45;challenge&#45;parsing&#45;dates</title>
<path fill="none" stroke="black" d="M1936.53,-140.96C1951.01,-116.99 1977.52,-73.12 1994.49,-45.05"/>
<polygon fill="black" stroke="black" points="1997.67,-46.55 1999.85,-36.18 1991.68,-42.93 1997.67,-46.55"/>
<text text-anchor="middle" x="1991.73" y="-101.3" font-family="Times,serif" font-size="14.00">previous</text>
</g>
<!-- http://purl.org/dj/kaggle/data&#45;cleaning&#45;challenge&#45;parsing&#45;dates#892142964 -->
<g id="node16" class="node">
<title>http://purl.org/dj/kaggle/data&#45;cleaning&#45;challenge&#45;parsing&#45;dates#892142964</title>
<ellipse fill="none" stroke="black" cx="1399.23" cy="-321" rx="163.27" ry="18"/>
<text text-anchor="middle" x="1399.23" y="-317.3" font-family="Times,serif" font-size="14.00">892142964 (earthquakes(0)$0: Movement)</text>
</g>
<!-- http://purl.org/dj/kaggle/data&#45;cleaning&#45;challenge&#45;parsing&#45;dates#892142964&#45;&gt;http://purl.org/dj/kaggle/data&#45;cleaning&#45;challenge&#45;parsing&#45;dates#80085334 -->
<g id="edge23" class="edge">
<title>http://purl.org/dj/kaggle/data&#45;cleaning&#45;challenge&#45;parsing&#45;dates#892142964&#45;&gt;http://purl.org/dj/kaggle/data&#45;cleaning&#45;challenge&#45;parsing&#45;dates#80085334</title>
<path fill="none" stroke="black" d="M1361.11,-303.44C1318.09,-284.75 1248.13,-254.36 1201.89,-234.27"/>
<polygon fill="black" stroke="black" points="1203.25,-231.05 1192.69,-230.27 1200.46,-237.47 1203.25,-231.05"/>
<text text-anchor="middle" x="1336.73" y="-263.3" font-family="Times,serif" font-size="14.00">previous</text>
</g>
<!-- http://purl.org/dj/kaggle/data&#45;cleaning&#45;challenge&#45;parsing&#45;dates#1761284055 -->
<g id="node17" class="node">
<title>http://purl.org/dj/kaggle/data&#45;cleaning&#45;challenge&#45;parsing&#45;dates#1761284055</title>
<ellipse fill="none" stroke="black" cx="1436.23" cy="-159" rx="245.86" ry="18"/>
<text text-anchor="middle" x="1436.23" y="-155.3" font-family="Times,serif" font-size="14.00">1761284055 (../input/earthquake&#45;database/database.csv(0): Reuse)</text>
</g>
<!-- http://purl.org/dj/kaggle/data&#45;cleaning&#45;challenge&#45;parsing&#45;dates#892142964&#45;&gt;http://purl.org/dj/kaggle/data&#45;cleaning&#45;challenge&#45;parsing&#45;dates#1761284055 -->
<g id="edge24" class="edge">
<title>http://purl.org/dj/kaggle/data&#45;cleaning&#45;challenge&#45;parsing&#45;dates#892142964&#45;&gt;http://purl.org/dj/kaggle/data&#45;cleaning&#45;challenge&#45;parsing&#45;dates#1761284055</title>
<path fill="none" stroke="black" d="M1403.19,-302.88C1409.62,-275.09 1422.36,-219.96 1430.01,-186.9"/>
<polygon fill="black" stroke="black" points="1433.46,-187.53 1432.3,-177 1426.64,-185.95 1433.46,-187.53"/>
<text text-anchor="middle" x="1438.73" y="-263.3" font-family="Times,serif" font-size="14.00">previous</text>
</g>
<!-- http://purl.org/dj/kaggle/data&#45;cleaning&#45;challenge&#45;parsing&#45;dates#1761284055&#45;&gt;http://purl.org/dj/kaggle/data&#45;cleaning&#45;challenge&#45;parsing&#45;dates -->
<g id="edge25" class="edge">
<title>http://purl.org/dj/kaggle/data&#45;cleaning&#45;challenge&#45;parsing&#45;dates#1761284055&#45;&gt;http://purl.org/dj/kaggle/data&#45;cleaning&#45;challenge&#45;parsing&#45;dates</title>
<path fill="none" stroke="black" d="M1518.12,-141.98C1546.13,-136.28 1577.61,-129.63 1606.23,-123 1725.49,-95.39 1863.38,-58.9 1943.31,-37.3"/>
<polygon fill="black" stroke="black" points="1944.51,-40.6 1953.24,-34.61 1942.68,-33.84 1944.51,-40.6"/>
<text text-anchor="middle" x="1772.73" y="-101.3" font-family="Times,serif" font-size="14.00">previous</text>
</g>
<!-- http://purl.org/dj/kaggle/data&#45;cleaning&#45;challenge&#45;parsing&#45;dates#128647638 -->
<g id="node18" class="node">
<title>http://purl.org/dj/kaggle/data&#45;cleaning&#45;challenge&#45;parsing&#45;dates#128647638</title>
<ellipse fill="none" stroke="black" cx="2619.23" cy="-213" rx="131.08" ry="18"/>
<text text-anchor="middle" x="2619.23" y="-209.3" font-family="Times,serif" font-size="14.00">128647638 (sns(0): Visualisation)</text>
</g>
<!-- http://purl.org/dj/kaggle/data&#45;cleaning&#45;challenge&#45;parsing&#45;dates#128647638&#45;&gt;http://purl.org/dj/kaggle/data&#45;cleaning&#45;challenge&#45;parsing&#45;dates -->
<g id="edge26" class="edge">
<title>http://purl.org/dj/kaggle/data&#45;cleaning&#45;challenge&#45;parsing&#45;dates#128647638&#45;&gt;http://purl.org/dj/kaggle/data&#45;cleaning&#45;challenge&#45;parsing&#45;dates</title>
<path fill="none" stroke="black" d="M2596.53,-194.97C2573.66,-177.55 2537.66,-149.37 2508.23,-123 2491.38,-107.9 2492.24,-97.56 2472.23,-87 2416.44,-57.58 2257.81,-38.8 2141.95,-28.6"/>
<polygon fill="black" stroke="black" points="2142.2,-25.11 2131.94,-27.73 2141.59,-32.08 2142.2,-25.11"/>
<text text-anchor="middle" x="2531.73" y="-101.3" font-family="Times,serif" font-size="14.00">previous</text>
</g>
<!-- http://purl.org/dj/python/lib/194380523 -->
<g id="node19" class="node">
<title>http://purl.org/dj/python/lib/194380523</title>
<ellipse fill="none" stroke="black" cx="2676.23" cy="-105" rx="112.38" ry="18"/>
<text text-anchor="middle" x="2676.23" y="-101.3" font-family="Times,serif" font-size="14.00">194380523 (seaborn: Reuse)</text>
</g>
<!-- http://purl.org/dj/kaggle/data&#45;cleaning&#45;challenge&#45;parsing&#45;dates#128647638&#45;&gt;http://purl.org/dj/python/lib/194380523 -->
<g id="edge27" class="edge">
<title>http://purl.org/dj/kaggle/data&#45;cleaning&#45;challenge&#45;parsing&#45;dates#128647638&#45;&gt;http://purl.org/dj/python/lib/194380523</title>
<path fill="none" stroke="black" d="M2628.39,-194.97C2637.53,-177.97 2651.7,-151.62 2662.25,-132.01"/>
<polygon fill="black" stroke="black" points="2665.44,-133.45 2667.09,-122.99 2659.28,-130.14 2665.44,-133.45"/>
<text text-anchor="middle" x="2678.73" y="-155.3" font-family="Times,serif" font-size="14.00">previous</text>
</g>
<!-- http://purl.org/dj/python/lib/194380523&#45;&gt;http://purl.org/dj/kaggle/data&#45;cleaning&#45;challenge&#45;parsing&#45;dates -->
<g id="edge28" class="edge">
<title>http://purl.org/dj/python/lib/194380523&#45;&gt;http://purl.org/dj/kaggle/data&#45;cleaning&#45;challenge&#45;parsing&#45;dates</title>
<path fill="none" stroke="black" d="M2634.33,-88.25C2601.8,-76.73 2555.28,-61.81 2513.23,-54 2397.26,-32.47 2264.01,-23.91 2163.81,-20.63"/>
<polygon fill="black" stroke="black" points="2163.71,-17.12 2153.61,-20.31 2163.49,-24.12 2163.71,-17.12"/>
<text text-anchor="middle" x="2595.73" y="-57.8" font-family="Times,serif" font-size="14.00">previous</text>
</g>
<!-- http://purl.org/dj/kaggle/data&#45;cleaning&#45;challenge&#45;parsing&#45;dates#136577460 -->
<g id="node20" class="node">
<title>http://purl.org/dj/kaggle/data&#45;cleaning&#45;challenge&#45;parsing&#45;dates#136577460</title>
<ellipse fill="none" stroke="black" cx="2906.23" cy="-213" rx="137.58" ry="18"/>
<text text-anchor="middle" x="2906.23" y="-209.3" font-family="Times,serif" font-size="14.00">136577460 (np(0)$0: Visualisation)</text>
</g>
<!-- http://purl.org/dj/kaggle/data&#45;cleaning&#45;challenge&#45;parsing&#45;dates#29687986 -->
<g id="node21" class="node">
<title>http://purl.org/dj/kaggle/data&#45;cleaning&#45;challenge&#45;parsing&#45;dates#29687986</title>
<ellipse fill="none" stroke="black" cx="2901.23" cy="-105" rx="94.78" ry="18"/>
<text text-anchor="middle" x="2901.23" y="-101.3" font-family="Times,serif" font-size="14.00">29687986 (0(0): Reuse)</text>
</g>
<!-- http://purl.org/dj/kaggle/data&#45;cleaning&#45;challenge&#45;parsing&#45;dates#136577460&#45;&gt;http://purl.org/dj/kaggle/data&#45;cleaning&#45;challenge&#45;parsing&#45;dates#29687986 -->
<g id="edge29" class="edge">
<title>http://purl.org/dj/kaggle/data&#45;cleaning&#45;challenge&#45;parsing&#45;dates#136577460&#45;&gt;http://purl.org/dj/kaggle/data&#45;cleaning&#45;challenge&#45;parsing&#45;dates#29687986</title>
<path fill="none" stroke="black" d="M2905.43,-194.97C2904.64,-178.38 2903.44,-152.88 2902.52,-133.43"/>
<polygon fill="black" stroke="black" points="2906.02,-133.16 2902.05,-123.34 2899.02,-133.49 2906.02,-133.16"/>
<text text-anchor="middle" x="2927.73" y="-155.3" font-family="Times,serif" font-size="14.00">previous</text>
</g>
<!-- http://purl.org/dj/kaggle/data&#45;cleaning&#45;challenge&#45;parsing&#45;dates#29687986&#45;&gt;http://purl.org/dj/kaggle/data&#45;cleaning&#45;challenge&#45;parsing&#45;dates -->
<g id="edge30" class="edge">
<title>http://purl.org/dj/kaggle/data&#45;cleaning&#45;challenge&#45;parsing&#45;dates#29687986&#45;&gt;http://purl.org/dj/kaggle/data&#45;cleaning&#45;challenge&#45;parsing&#45;dates</title>
<path fill="none" stroke="black" d="M2841.08,-91.01C2784.98,-79.41 2698.84,-62.92 2623.23,-54 2466.2,-35.47 2285.35,-26.66 2160.99,-22.53"/>
<polygon fill="black" stroke="black" points="2160.75,-19.02 2150.64,-22.19 2160.52,-26.02 2160.75,-19.02"/>
<text text-anchor="middle" x="2745.73" y="-57.8" font-family="Times,serif" font-size="14.00">previous</text>
</g>
<!-- http://purl.org/dj/kaggle/data&#45;cleaning&#45;challenge&#45;parsing&#45;dates#584123452 -->
<g id="node22" class="node">
<title>http://purl.org/dj/kaggle/data&#45;cleaning&#45;challenge&#45;parsing&#45;dates#584123452</title>
<ellipse fill="none" stroke="black" cx="2077.23" cy="-408" rx="159.77" ry="18"/>
<text text-anchor="middle" x="2077.23" y="-404.3" font-family="Times,serif" font-size="14.00">584123452 (volcanos(0)$1: Visualisation)</text>
</g>
<!-- http://purl.org/dj/kaggle/data&#45;cleaning&#45;challenge&#45;parsing&#45;dates#584057915 -->
<g id="node23" class="node">
<title>http://purl.org/dj/kaggle/data&#45;cleaning&#45;challenge&#45;parsing&#45;dates#584057915</title>
<ellipse fill="none" stroke="black" cx="1926.23" cy="-321" rx="152.97" ry="18"/>
<text text-anchor="middle" x="1926.23" y="-317.3" font-family="Times,serif" font-size="14.00">584057915 (volcanos(0)$0: Movement)</text>
</g>
<!-- http://purl.org/dj/kaggle/data&#45;cleaning&#45;challenge&#45;parsing&#45;dates#584123452&#45;&gt;http://purl.org/dj/kaggle/data&#45;cleaning&#45;challenge&#45;parsing&#45;dates#584057915 -->
<g id="edge31" class="edge">
<title>http://purl.org/dj/kaggle/data&#45;cleaning&#45;challenge&#45;parsing&#45;dates#584123452&#45;&gt;http://purl.org/dj/kaggle/data&#45;cleaning&#45;challenge&#45;parsing&#45;dates#584057915</title>
<path fill="none" stroke="black" d="M2047.4,-390.21C2023.72,-376.88 1990.44,-358.14 1964.74,-343.68"/>
<polygon fill="black" stroke="black" points="1966.43,-340.61 1956,-338.76 1963,-346.71 1966.43,-340.61"/>
<text text-anchor="middle" x="2033.73" y="-360.8" font-family="Times,serif" font-size="14.00">previous</text>
</g>
<!-- http://purl.org/dj/kaggle/data&#45;cleaning&#45;challenge&#45;parsing&#45;dates#30998711 -->
<g id="node24" class="node">
<title>http://purl.org/dj/kaggle/data&#45;cleaning&#45;challenge&#45;parsing&#45;dates#30998711</title>
<ellipse fill="none" stroke="black" cx="2265.23" cy="-159" rx="94.78" ry="18"/>
<text text-anchor="middle" x="2265.23" y="-155.3" font-family="Times,serif" font-size="14.00">30998711 (5(0): Reuse)</text>
</g>
<!-- http://purl.org/dj/kaggle/data&#45;cleaning&#45;challenge&#45;parsing&#45;dates#584123452&#45;&gt;http://purl.org/dj/kaggle/data&#45;cleaning&#45;challenge&#45;parsing&#45;dates#30998711 -->
<g id="edge32" class="edge">
<title>http://purl.org/dj/kaggle/data&#45;cleaning&#45;challenge&#45;parsing&#45;dates#584123452&#45;&gt;http://purl.org/dj/kaggle/data&#45;cleaning&#45;challenge&#45;parsing&#45;dates#30998711</title>
<path fill="none" stroke="black" d="M2085.13,-389.98C2103.47,-351.75 2152.07,-257.52 2213.23,-195 2217.72,-190.41 2222.91,-186.07 2228.24,-182.11"/>
<polygon fill="black" stroke="black" points="2230.45,-184.84 2236.63,-176.23 2226.43,-179.1 2230.45,-184.84"/>
<text text-anchor="middle" x="2154.73" y="-317.3" font-family="Times,serif" font-size="14.00">previous</text>
</g>
<!-- http://purl.org/dj/kaggle/data&#45;cleaning&#45;challenge&#45;parsing&#45;dates#584057915&#45;&gt;http://purl.org/dj/kaggle/data&#45;cleaning&#45;challenge&#45;parsing&#45;dates#80085334 -->
<g id="edge33" class="edge">
<title>http://purl.org/dj/kaggle/data&#45;cleaning&#45;challenge&#45;parsing&#45;dates#584057915&#45;&gt;http://purl.org/dj/kaggle/data&#45;cleaning&#45;challenge&#45;parsing&#45;dates#80085334</title>
<path fill="none" stroke="black" d="M1843.32,-305.84C1752.61,-290.61 1602.84,-266.28 1473.23,-249 1404.13,-239.79 1326.35,-231.19 1265.01,-224.83"/>
<polygon fill="black" stroke="black" points="1265.22,-221.33 1254.92,-223.79 1264.5,-228.3 1265.22,-221.33"/>
<text text-anchor="middle" x="1731.73" y="-263.3" font-family="Times,serif" font-size="14.00">previous</text>
</g>
<!-- http://purl.org/dj/kaggle/data&#45;cleaning&#45;challenge&#45;parsing&#45;dates#584057915&#45;&gt;http://purl.org/dj/kaggle/data&#45;cleaning&#45;challenge&#45;parsing&#45;dates#1554976687 -->
<g id="edge34" class="edge">
<title>http://purl.org/dj/kaggle/data&#45;cleaning&#45;challenge&#45;parsing&#45;dates#584057915&#45;&gt;http://purl.org/dj/kaggle/data&#45;cleaning&#45;challenge&#45;parsing&#45;dates#1554976687</title>
<path fill="none" stroke="black" d="M1926.23,-302.88C1926.23,-275.35 1926.23,-221.01 1926.23,-187.85"/>
<polygon fill="black" stroke="black" points="1929.73,-187.48 1926.23,-177.48 1922.73,-187.48 1929.73,-187.48"/>
<text text-anchor="middle" x="1949.73" y="-263.3" font-family="Times,serif" font-size="14.00">previous</text>
</g>
<!-- http://purl.org/dj/kaggle/data&#45;cleaning&#45;challenge&#45;parsing&#45;dates#30998711&#45;&gt;http://purl.org/dj/kaggle/data&#45;cleaning&#45;challenge&#45;parsing&#45;dates -->
<g id="edge35" class="edge">
<title>http://purl.org/dj/kaggle/data&#45;cleaning&#45;challenge&#45;parsing&#45;dates#30998711&#45;&gt;http://purl.org/dj/kaggle/data&#45;cleaning&#45;challenge&#45;parsing&#45;dates</title>
<path fill="none" stroke="black" d="M2196.35,-146.6C2161.87,-140.09 2124.32,-131.55 2109.23,-123 2074.84,-103.52 2045.08,-68.29 2027.4,-44.28"/>
<polygon fill="black" stroke="black" points="2030.13,-42.07 2021.45,-35.99 2024.44,-46.15 2030.13,-42.07"/>
<text text-anchor="middle" x="2132.73" y="-101.3" font-family="Times,serif" font-size="14.00">previous</text>
</g>
<!-- http://purl.org/dj/kaggle/data&#45;cleaning&#45;challenge&#45;parsing&#45;dates#249692951 -->
<g id="node25" class="node">
<title>http://purl.org/dj/kaggle/data&#45;cleaning&#45;challenge&#45;parsing&#45;dates#249692951</title>
<ellipse fill="none" stroke="black" cx="347.23" cy="-408" rx="136.48" ry="18"/>
<text text-anchor="middle" x="347.23" y="-404.3" font-family="Times,serif" font-size="14.00">249692951 (print[1]: Visualisation)</text>
</g>
<!-- http://purl.org/dj/kaggle/data&#45;cleaning&#45;challenge&#45;parsing&#45;dates#249692951&#45;&gt;http://purl.org/dj/kaggle/data&#45;cleaning&#45;challenge&#45;parsing&#45;dates#165806624 -->
<g id="edge36" class="edge">
<title>http://purl.org/dj/kaggle/data&#45;cleaning&#45;challenge&#45;parsing&#45;dates#249692951&#45;&gt;http://purl.org/dj/kaggle/data&#45;cleaning&#45;challenge&#45;parsing&#45;dates#165806624</title>
<path fill="none" stroke="black" d="M380.22,-390.41C407.26,-376.81 445.69,-357.48 474.8,-342.84"/>
<polygon fill="black" stroke="black" points="476.54,-345.88 483.9,-338.26 473.39,-339.63 476.54,-345.88"/>
<text text-anchor="middle" x="464.73" y="-360.8" font-family="Times,serif" font-size="14.00">previous</text>
</g>
<!-- http://purl.org/dj/kaggle/data&#45;cleaning&#45;challenge&#45;parsing&#45;dates#249561878 -->
<g id="node26" class="node">
<title>http://purl.org/dj/kaggle/data&#45;cleaning&#45;challenge&#45;parsing&#45;dates#249561878</title>
<ellipse fill="none" stroke="black" cx="1021.23" cy="-408" rx="136.48" ry="18"/>
<text text-anchor="middle" x="1021.23" y="-404.3" font-family="Times,serif" font-size="14.00">249561878 (print[0]: Visualisation)</text>
</g>
<!-- http://purl.org/dj/kaggle/data&#45;cleaning&#45;challenge&#45;parsing&#45;dates#249561878&#45;&gt;http://purl.org/dj/kaggle/data&#45;cleaning&#45;challenge&#45;parsing&#45;dates#769721593 -->
<g id="edge37" class="edge">
<title>http://purl.org/dj/kaggle/data&#45;cleaning&#45;challenge&#45;parsing&#45;dates#249561878&#45;&gt;http://purl.org/dj/kaggle/data&#45;cleaning&#45;challenge&#45;parsing&#45;dates#769721593</title>
<path fill="none" stroke="black" d="M1009.49,-389.8C1001.24,-377.7 990.05,-361.3 980.74,-347.67"/>
<polygon fill="black" stroke="black" points="983.48,-345.46 974.95,-339.18 977.7,-349.41 983.48,-345.46"/>
<text text-anchor="middle" x="1018.73" y="-360.8" font-family="Times,serif" font-size="14.00">previous</text>
</g>
<!-- http://purl.org/dj/kaggle/data&#45;cleaning&#45;challenge&#45;parsing&#45;dates#431293391 -->
<g id="node27" class="node">
<title>http://purl.org/dj/kaggle/data&#45;cleaning&#45;challenge&#45;parsing&#45;dates#431293391</title>
<ellipse fill="none" stroke="black" cx="3213.23" cy="-213" rx="150.57" ry="18"/>
<text text-anchor="middle" x="3213.23" y="-209.3" font-family="Times,serif" font-size="14.00">431293391 (datetime(0): Visualisation)</text>
</g>
<!-- http://purl.org/dj/kaggle/data&#45;cleaning&#45;challenge&#45;parsing&#45;dates#431293391&#45;&gt;http://purl.org/dj/kaggle/data&#45;cleaning&#45;challenge&#45;parsing&#45;dates -->
<g id="edge38" class="edge">
<title>http://purl.org/dj/kaggle/data&#45;cleaning&#45;challenge&#45;parsing&#45;dates#431293391&#45;&gt;http://purl.org/dj/kaggle/data&#45;cleaning&#45;challenge&#45;parsing&#45;dates</title>
<path fill="none" stroke="black" d="M3173.33,-195.58C3137.13,-179.73 3083.16,-153.66 3041.23,-123 3022.97,-109.64 3025.47,-97.11 3005.23,-87 2931.67,-50.25 2419.41,-30.6 2160.02,-22.9"/>
<polygon fill="black" stroke="black" points="2159.86,-19.4 2149.76,-22.6 2159.65,-26.39 2159.86,-19.4"/>
<text text-anchor="middle" x="3064.73" y="-101.3" font-family="Times,serif" font-size="14.00">previous</text>
</g>
<!-- http://purl.org/dj/python/lib/248120142 -->
<g id="node28" class="node">
<title>http://purl.org/dj/python/lib/248120142</title>
<ellipse fill="none" stroke="black" cx="3213.23" cy="-105" rx="115.88" ry="18"/>
<text text-anchor="middle" x="3213.23" y="-101.3" font-family="Times,serif" font-size="14.00">248120142 (datetime: Reuse)</text>
</g>
<!-- http://purl.org/dj/kaggle/data&#45;cleaning&#45;challenge&#45;parsing&#45;dates#431293391&#45;&gt;http://purl.org/dj/python/lib/248120142 -->
<g id="edge39" class="edge">
<title>http://purl.org/dj/kaggle/data&#45;cleaning&#45;challenge&#45;parsing&#45;dates#431293391&#45;&gt;http://purl.org/dj/python/lib/248120142</title>
<path fill="none" stroke="black" d="M3213.23,-194.97C3213.23,-178.38 3213.23,-152.88 3213.23,-133.43"/>
<polygon fill="black" stroke="black" points="3216.73,-133.34 3213.23,-123.34 3209.73,-133.34 3216.73,-133.34"/>
<text text-anchor="middle" x="3236.73" y="-155.3" font-family="Times,serif" font-size="14.00">previous</text>
</g>
<!-- http://purl.org/dj/python/lib/248120142&#45;&gt;http://purl.org/dj/kaggle/data&#45;cleaning&#45;challenge&#45;parsing&#45;dates -->
<g id="edge40" class="edge">
<title>http://purl.org/dj/python/lib/248120142&#45;&gt;http://purl.org/dj/kaggle/data&#45;cleaning&#45;challenge&#45;parsing&#45;dates</title>
<path fill="none" stroke="black" d="M3171.38,-88.19C3138.02,-76.4 3089.84,-61.14 3046.23,-54 2881.35,-27 2410.65,-20.75 2164.49,-19.36"/>
<polygon fill="black" stroke="black" points="2164.4,-15.86 2154.38,-19.3 2164.36,-22.86 2164.4,-15.86"/>
<text text-anchor="middle" x="3129.73" y="-57.8" font-family="Times,serif" font-size="14.00">previous</text>
</g>
</g>
</svg>
