<?xml version="1.0" encoding="UTF-8" standalone="no"?>
<!DOCTYPE svg PUBLIC "-//W3C//DTD SVG 1.1//EN"
 "http://www.w3.org/Graphics/SVG/1.1/DTD/svg11.dtd">
<!-- Generated by graphviz version 2.44.1 (20200629.0846)
 -->
<!-- Pages: 1 -->
<svg width="1853pt" height="650pt"
 viewBox="0.00 0.00 1852.98 650.00" xmlns="http://www.w3.org/2000/svg" xmlns:xlink="http://www.w3.org/1999/xlink">
<g id="graph0" class="graph" transform="scale(1 1) rotate(0) translate(4 646)">
<polygon fill="white" stroke="transparent" points="-4,4 -4,-646 1848.98,-646 1848.98,4 -4,4"/>
<!-- http://purl.org/dj/kaggle/data&#45;types&#45;and&#45;missing&#45;values#29687986 -->
<g id="node1" class="node">
<title>http://purl.org/dj/kaggle/data&#45;types&#45;and&#45;missing&#45;values#29687986</title>
<ellipse fill="none" stroke="black" cx="875.89" cy="-105" rx="94.78" ry="18"/>
<text text-anchor="middle" x="875.89" y="-101.3" font-family="Times,serif" font-size="14.00">29687986 (0(0): Reuse)</text>
</g>
<!-- http://purl.org/dj/kaggle/data&#45;types&#45;and&#45;missing&#45;values -->
<g id="node2" class="node">
<title>http://purl.org/dj/kaggle/data&#45;types&#45;and&#45;missing&#45;values</title>
<ellipse fill="none" stroke="black" cx="952.89" cy="-18" rx="118.08" ry="18"/>
<text text-anchor="middle" x="952.89" y="-14.3" font-family="Times,serif" font-size="14.00">data&#45;types&#45;and&#45;missing&#45;values</text>
</g>
<!-- http://purl.org/dj/kaggle/data&#45;types&#45;and&#45;missing&#45;values#29687986&#45;&gt;http://purl.org/dj/kaggle/data&#45;types&#45;and&#45;missing&#45;values -->
<g id="edge1" class="edge">
<title>http://purl.org/dj/kaggle/data&#45;types&#45;and&#45;missing&#45;values#29687986&#45;&gt;http://purl.org/dj/kaggle/data&#45;types&#45;and&#45;missing&#45;values</title>
<path fill="none" stroke="black" d="M882.26,-86.98C886.69,-76.66 893.33,-63.67 901.89,-54 905.86,-49.52 910.51,-45.33 915.37,-41.52"/>
<polygon fill="black" stroke="black" points="917.64,-44.2 923.65,-35.47 913.51,-38.54 917.64,-44.2"/>
<text text-anchor="middle" x="947.39" y="-57.8" font-family="Times,serif" font-size="14.00">previousActivity</text>
</g>
<!-- http://purl.org/dj/kaggle/data&#45;types&#45;and&#45;missing&#45;values#496960476 -->
<g id="node3" class="node">
<title>http://purl.org/dj/kaggle/data&#45;types&#45;and&#45;missing&#45;values#496960476</title>
<ellipse fill="none" stroke="black" cx="1211.89" cy="-429" rx="155.97" ry="18"/>
<text text-anchor="middle" x="1211.89" y="-425.3" font-family="Times,serif" font-size="14.00">496960476 (reviews(0)$1: Visualisation)</text>
</g>
<!-- http://purl.org/dj/kaggle/data&#45;types&#45;and&#45;missing&#45;values#327680770 -->
<g id="node4" class="node">
<title>http://purl.org/dj/kaggle/data&#45;types&#45;and&#45;missing&#45;values#327680770</title>
<ellipse fill="none" stroke="black" cx="1195.89" cy="-159" rx="119.68" ry="18"/>
<text text-anchor="middle" x="1195.89" y="-155.3" font-family="Times,serif" font-size="14.00">327680770 (float64(0): Reuse)</text>
</g>
<!-- http://purl.org/dj/kaggle/data&#45;types&#45;and&#45;missing&#45;values#496960476&#45;&gt;http://purl.org/dj/kaggle/data&#45;types&#45;and&#45;missing&#45;values#327680770 -->
<g id="edge2" class="edge">
<title>http://purl.org/dj/kaggle/data&#45;types&#45;and&#45;missing&#45;values#496960476&#45;&gt;http://purl.org/dj/kaggle/data&#45;types&#45;and&#45;missing&#45;values#327680770</title>
<path fill="none" stroke="black" d="M1220.69,-411.03C1244.65,-363.74 1307.63,-231.62 1282.89,-195 1278.76,-188.88 1273.35,-183.83 1267.26,-179.66"/>
<polygon fill="black" stroke="black" points="1268.97,-176.6 1258.58,-174.51 1265.4,-182.62 1268.97,-176.6"/>
<text text-anchor="middle" x="1313.39" y="-317.3" font-family="Times,serif" font-size="14.00">previousActivity</text>
</g>
<!-- http://purl.org/dj/kaggle/data&#45;types&#45;and&#45;missing&#45;values#496894939 -->
<g id="node5" class="node">
<title>http://purl.org/dj/kaggle/data&#45;types&#45;and&#45;missing&#45;values#496894939</title>
<ellipse fill="none" stroke="black" cx="720.89" cy="-321" rx="148.67" ry="18"/>
<text text-anchor="middle" x="720.89" y="-317.3" font-family="Times,serif" font-size="14.00">496894939 (reviews(0)$0: Movement)</text>
</g>
<!-- http://purl.org/dj/kaggle/data&#45;types&#45;and&#45;missing&#45;values#496960476&#45;&gt;http://purl.org/dj/kaggle/data&#45;types&#45;and&#45;missing&#45;values#496894939 -->
<g id="edge3" class="edge">
<title>http://purl.org/dj/kaggle/data&#45;types&#45;and&#45;missing&#45;values#496960476&#45;&gt;http://purl.org/dj/kaggle/data&#45;types&#45;and&#45;missing&#45;values#496894939</title>
<path fill="none" stroke="black" d="M1141.8,-412.87C1051.47,-393.37 894.8,-359.55 800.2,-339.12"/>
<polygon fill="black" stroke="black" points="800.91,-335.69 790.4,-337.01 799.43,-342.54 800.91,-335.69"/>
<text text-anchor="middle" x="1085.39" y="-371.3" font-family="Times,serif" font-size="14.00">previousActivity</text>
</g>
<!-- http://purl.org/dj/kaggle/data&#45;types&#45;and&#45;missing&#45;values#327680770&#45;&gt;http://purl.org/dj/kaggle/data&#45;types&#45;and&#45;missing&#45;values -->
<g id="edge4" class="edge">
<title>http://purl.org/dj/kaggle/data&#45;types&#45;and&#45;missing&#45;values#327680770&#45;&gt;http://purl.org/dj/kaggle/data&#45;types&#45;and&#45;missing&#45;values</title>
<path fill="none" stroke="black" d="M1176.26,-141.14C1157.84,-125.83 1129.12,-103.23 1101.89,-87 1070.38,-68.21 1032.77,-51.09 1003.23,-38.73"/>
<polygon fill="black" stroke="black" points="1004.52,-35.47 993.94,-34.88 1001.84,-41.94 1004.52,-35.47"/>
<text text-anchor="middle" x="1198.39" y="-101.3" font-family="Times,serif" font-size="14.00">previousActivity</text>
</g>
<!-- http://purl.org/dj/kaggle/data&#45;types&#45;and&#45;missing&#45;values#496894939&#45;&gt;http://purl.org/dj/kaggle/data&#45;types&#45;and&#45;missing&#45;values#29687986 -->
<g id="edge5" class="edge">
<title>http://purl.org/dj/kaggle/data&#45;types&#45;and&#45;missing&#45;values#496894939&#45;&gt;http://purl.org/dj/kaggle/data&#45;types&#45;and&#45;missing&#45;values#29687986</title>
<path fill="none" stroke="black" d="M692.02,-303.3C654.78,-279.59 597.92,-234.65 625.89,-195 647.14,-164.88 739.52,-137.64 805.8,-121.44"/>
<polygon fill="black" stroke="black" points="806.88,-124.78 815.78,-119.04 805.24,-117.98 806.88,-124.78"/>
<text text-anchor="middle" x="671.39" y="-209.3" font-family="Times,serif" font-size="14.00">previousActivity</text>
</g>
<!-- http://purl.org/dj/kaggle/data&#45;types&#45;and&#45;missing&#45;values#80085334 -->
<g id="node6" class="node">
<title>http://purl.org/dj/kaggle/data&#45;types&#45;and&#45;missing&#45;values#80085334</title>
<ellipse fill="none" stroke="black" cx="456.89" cy="-213" rx="124.28" ry="18"/>
<text text-anchor="middle" x="456.89" y="-209.3" font-family="Times,serif" font-size="14.00">80085334 (pd(0): Visualisation)</text>
</g>
<!-- http://purl.org/dj/kaggle/data&#45;types&#45;and&#45;missing&#45;values#496894939&#45;&gt;http://purl.org/dj/kaggle/data&#45;types&#45;and&#45;missing&#45;values#80085334 -->
<g id="edge6" class="edge">
<title>http://purl.org/dj/kaggle/data&#45;types&#45;and&#45;missing&#45;values#496894939&#45;&gt;http://purl.org/dj/kaggle/data&#45;types&#45;and&#45;missing&#45;values#80085334</title>
<path fill="none" stroke="black" d="M610.6,-308.85C569.73,-303.2 529.14,-295.31 511.89,-285 493.99,-274.3 479.78,-255.4 470.29,-239.79"/>
<polygon fill="black" stroke="black" points="473.29,-237.98 465.26,-231.06 467.23,-241.48 473.29,-237.98"/>
<text text-anchor="middle" x="557.39" y="-263.3" font-family="Times,serif" font-size="14.00">previousActivity</text>
</g>
<!-- http://purl.org/dj/kaggle/data&#45;types&#45;and&#45;missing&#45;values#3018526890 -->
<g id="node7" class="node">
<title>http://purl.org/dj/kaggle/data&#45;types&#45;and&#45;missing&#45;values#3018526890</title>
<ellipse fill="none" stroke="black" cx="999.89" cy="-213" rx="273.75" ry="18"/>
<text text-anchor="middle" x="999.89" y="-209.3" font-family="Times,serif" font-size="14.00">3018526890 (../input/wine&#45;reviews/winemag&#45;data&#45;130k&#45;v2.csv(0): Reuse)</text>
</g>
<!-- http://purl.org/dj/kaggle/data&#45;types&#45;and&#45;missing&#45;values#496894939&#45;&gt;http://purl.org/dj/kaggle/data&#45;types&#45;and&#45;missing&#45;values#3018526890 -->
<g id="edge7" class="edge">
<title>http://purl.org/dj/kaggle/data&#45;types&#45;and&#45;missing&#45;values#496894939&#45;&gt;http://purl.org/dj/kaggle/data&#45;types&#45;and&#45;missing&#45;values#3018526890</title>
<path fill="none" stroke="black" d="M763.87,-303.67C812.8,-285.08 892.79,-254.69 945.89,-234.52"/>
<polygon fill="black" stroke="black" points="947.37,-237.7 955.48,-230.87 944.88,-231.15 947.37,-237.7"/>
<text text-anchor="middle" x="926.39" y="-263.3" font-family="Times,serif" font-size="14.00">read_csv</text>
</g>
<!-- http://purl.org/dj/kaggle/data&#45;types&#45;and&#45;missing&#45;values#80085334&#45;&gt;http://purl.org/dj/kaggle/data&#45;types&#45;and&#45;missing&#45;values -->
<g id="edge15" class="edge">
<title>http://purl.org/dj/kaggle/data&#45;types&#45;and&#45;missing&#45;values#80085334&#45;&gt;http://purl.org/dj/kaggle/data&#45;types&#45;and&#45;missing&#45;values</title>
<path fill="none" stroke="black" d="M459.35,-194.85C464.17,-162.35 475.06,-94.36 482.89,-87 531.12,-41.64 703.83,-26.43 825.84,-21.4"/>
<polygon fill="black" stroke="black" points="826.16,-24.89 836.01,-20.99 825.88,-17.89 826.16,-24.89"/>
<text text-anchor="middle" x="509.39" y="-101.3" font-family="Times,serif" font-size="14.00">appearsIn</text>
</g>
<!-- http://purl.org/dj/python/lib/144966264 -->
<g id="node13" class="node">
<title>http://purl.org/dj/python/lib/144966264</title>
<ellipse fill="none" stroke="black" cx="653.89" cy="-105" rx="109.38" ry="18"/>
<text text-anchor="middle" x="653.89" y="-101.3" font-family="Times,serif" font-size="14.00">144966264 (pandas: Reuse)</text>
</g>
<!-- http://purl.org/dj/kaggle/data&#45;types&#45;and&#45;missing&#45;values#80085334&#45;&gt;http://purl.org/dj/python/lib/144966264 -->
<g id="edge16" class="edge">
<title>http://purl.org/dj/kaggle/data&#45;types&#45;and&#45;missing&#45;values#80085334&#45;&gt;http://purl.org/dj/python/lib/144966264</title>
<path fill="none" stroke="black" d="M472.57,-194.95C490.9,-175.16 519.56,-144.74 525.89,-141 539.94,-132.71 556.01,-126.32 571.9,-121.43"/>
<polygon fill="black" stroke="black" points="573.13,-124.72 581.76,-118.57 571.18,-117.99 573.13,-124.72"/>
<text text-anchor="middle" x="564.39" y="-155.3" font-family="Times,serif" font-size="14.00">assignedFrom</text>
</g>
<!-- http://purl.org/dj/kaggle/data&#45;types&#45;and&#45;missing&#45;values#3018526890&#45;&gt;http://purl.org/dj/kaggle/data&#45;types&#45;and&#45;missing&#45;values -->
<g id="edge18" class="edge">
<title>http://purl.org/dj/kaggle/data&#45;types&#45;and&#45;missing&#45;values#3018526890&#45;&gt;http://purl.org/dj/kaggle/data&#45;types&#45;and&#45;missing&#45;values</title>
<path fill="none" stroke="black" d="M1000.8,-194.85C1002.43,-159.21 1004.64,-78.44 992.89,-54 991,-50.07 988.45,-46.4 985.54,-43.02"/>
<polygon fill="black" stroke="black" points="987.79,-40.32 978.25,-35.71 982.83,-45.26 987.79,-40.32"/>
<text text-anchor="middle" x="1047.39" y="-101.3" font-family="Times,serif" font-size="14.00">previousActivity</text>
</g>
<!-- http://purl.org/dj/kaggle/data&#45;types&#45;and&#45;missing&#45;values#497026013 -->
<g id="node8" class="node">
<title>http://purl.org/dj/kaggle/data&#45;types&#45;and&#45;missing&#45;values#497026013</title>
<ellipse fill="none" stroke="black" cx="1380.89" cy="-537" rx="155.97" ry="18"/>
<text text-anchor="middle" x="1380.89" y="-533.3" font-family="Times,serif" font-size="14.00">497026013 (reviews(0)$2: Visualisation)</text>
</g>
<!-- http://purl.org/dj/kaggle/data&#45;types&#45;and&#45;missing&#45;values#497026013&#45;&gt;http://purl.org/dj/kaggle/data&#45;types&#45;and&#45;missing&#45;values#496960476 -->
<g id="edge8" class="edge">
<title>http://purl.org/dj/kaggle/data&#45;types&#45;and&#45;missing&#45;values#497026013&#45;&gt;http://purl.org/dj/kaggle/data&#45;types&#45;and&#45;missing&#45;values#496960476</title>
<path fill="none" stroke="black" d="M1354.11,-519.2C1325.27,-501.11 1279.25,-472.25 1247.4,-452.27"/>
<polygon fill="black" stroke="black" points="1249.16,-449.24 1238.82,-446.89 1245.44,-455.17 1249.16,-449.24"/>
<text text-anchor="middle" x="1335.89" y="-479.3" font-family="Times,serif" font-size="14.00">fillna</text>
</g>
<!-- http://purl.org/dj/kaggle/data&#45;types&#45;and&#45;missing&#45;values#356123506 -->
<g id="node9" class="node">
<title>http://purl.org/dj/kaggle/data&#45;types&#45;and&#45;missing&#45;values#356123506</title>
<ellipse fill="none" stroke="black" cx="1418.89" cy="-267" rx="129.98" ry="18"/>
<text text-anchor="middle" x="1418.89" y="-263.3" font-family="Times,serif" font-size="14.00">356123506 (Unknown(0): Reuse)</text>
</g>
<!-- http://purl.org/dj/kaggle/data&#45;types&#45;and&#45;missing&#45;values#497026013&#45;&gt;http://purl.org/dj/kaggle/data&#45;types&#45;and&#45;missing&#45;values#356123506 -->
<g id="edge9" class="edge">
<title>http://purl.org/dj/kaggle/data&#45;types&#45;and&#45;missing&#45;values#497026013&#45;&gt;http://purl.org/dj/kaggle/data&#45;types&#45;and&#45;missing&#45;values#356123506</title>
<path fill="none" stroke="black" d="M1383.33,-518.83C1389.76,-473.45 1407.26,-350.06 1415.05,-295.07"/>
<polygon fill="black" stroke="black" points="1418.54,-295.42 1416.48,-285.03 1411.61,-294.44 1418.54,-295.42"/>
<text text-anchor="middle" x="1411.89" y="-425.3" font-family="Times,serif" font-size="14.00">fillna</text>
</g>
<!-- http://purl.org/dj/kaggle/data&#45;types&#45;and&#45;missing&#45;values#356123506&#45;&gt;http://purl.org/dj/kaggle/data&#45;types&#45;and&#45;missing&#45;values -->
<g id="edge10" class="edge">
<title>http://purl.org/dj/kaggle/data&#45;types&#45;and&#45;missing&#45;values#356123506&#45;&gt;http://purl.org/dj/kaggle/data&#45;types&#45;and&#45;missing&#45;values</title>
<path fill="none" stroke="black" d="M1408.51,-248.9C1392.58,-223.51 1360.22,-175.17 1324.89,-141 1294.85,-111.94 1286.07,-104.01 1247.89,-87 1185.15,-59.05 1109.58,-41.92 1050.64,-31.84"/>
<polygon fill="black" stroke="black" points="1051.02,-28.35 1040.59,-30.16 1049.87,-35.26 1051.02,-28.35"/>
<text text-anchor="middle" x="1401.39" y="-155.3" font-family="Times,serif" font-size="14.00">previousActivity</text>
</g>
<!-- http://purl.org/dj/kaggle/data&#45;types&#45;and&#45;missing&#45;values#132776362 -->
<g id="node10" class="node">
<title>http://purl.org/dj/kaggle/data&#45;types&#45;and&#45;missing&#45;values#132776362</title>
<ellipse fill="none" stroke="black" cx="304.89" cy="-321" rx="137.58" ry="18"/>
<text text-anchor="middle" x="304.89" y="-317.3" font-family="Times,serif" font-size="14.00">132776362 (pd(0)$0: Visualisation)</text>
</g>
<!-- http://purl.org/dj/kaggle/data&#45;types&#45;and&#45;missing&#45;values#132776362&#45;&gt;http://purl.org/dj/kaggle/data&#45;types&#45;and&#45;missing&#45;values#80085334 -->
<g id="edge12" class="edge">
<title>http://purl.org/dj/kaggle/data&#45;types&#45;and&#45;missing&#45;values#132776362&#45;&gt;http://purl.org/dj/kaggle/data&#45;types&#45;and&#45;missing&#45;values#80085334</title>
<path fill="none" stroke="black" d="M335.81,-303.38C345.61,-297.82 356.37,-291.4 365.89,-285 387.76,-270.3 411.17,-251.97 428.77,-237.62"/>
<polygon fill="black" stroke="black" points="431.41,-239.98 436.91,-230.93 426.96,-234.57 431.41,-239.98"/>
<text text-anchor="middle" x="443.39" y="-263.3" font-family="Times,serif" font-size="14.00">set_option</text>
</g>
<!-- http://purl.org/dj/kaggle/data&#45;types&#45;and&#45;missing&#45;values#30998711 -->
<g id="node11" class="node">
<title>http://purl.org/dj/kaggle/data&#45;types&#45;and&#45;missing&#45;values#30998711</title>
<ellipse fill="none" stroke="black" cx="94.89" cy="-159" rx="94.78" ry="18"/>
<text text-anchor="middle" x="94.89" y="-155.3" font-family="Times,serif" font-size="14.00">30998711 (5(0): Reuse)</text>
</g>
<!-- http://purl.org/dj/kaggle/data&#45;types&#45;and&#45;missing&#45;values#132776362&#45;&gt;http://purl.org/dj/kaggle/data&#45;types&#45;and&#45;missing&#45;values#30998711 -->
<g id="edge11" class="edge">
<title>http://purl.org/dj/kaggle/data&#45;types&#45;and&#45;missing&#45;values#132776362&#45;&gt;http://purl.org/dj/kaggle/data&#45;types&#45;and&#45;missing&#45;values#30998711</title>
<path fill="none" stroke="black" d="M248.38,-304.51C234.82,-299.44 220.83,-293 208.89,-285 168.38,-257.85 132.47,-213.34 112.23,-185.4"/>
<polygon fill="black" stroke="black" points="114.87,-183.08 106.22,-176.96 109.16,-187.14 114.87,-183.08"/>
<text text-anchor="middle" x="254.39" y="-263.3" font-family="Times,serif" font-size="14.00">previousActivity</text>
</g>
<!-- http://purl.org/dj/kaggle/data&#45;types&#45;and&#45;missing&#45;values#445383666 -->
<g id="node12" class="node">
<title>http://purl.org/dj/kaggle/data&#45;types&#45;and&#45;missing&#45;values#445383666</title>
<ellipse fill="none" stroke="black" cx="326.89" cy="-159" rx="131.88" ry="18"/>
<text text-anchor="middle" x="326.89" y="-155.3" font-family="Times,serif" font-size="14.00">445383666 (max_rows(0): Reuse)</text>
</g>
<!-- http://purl.org/dj/kaggle/data&#45;types&#45;and&#45;missing&#45;values#132776362&#45;&gt;http://purl.org/dj/kaggle/data&#45;types&#45;and&#45;missing&#45;values#445383666 -->
<g id="edge13" class="edge">
<title>http://purl.org/dj/kaggle/data&#45;types&#45;and&#45;missing&#45;values#132776362&#45;&gt;http://purl.org/dj/kaggle/data&#45;types&#45;and&#45;missing&#45;values#445383666</title>
<path fill="none" stroke="black" d="M303.73,-302.71C303.04,-288.29 302.67,-267.23 304.89,-249 307.46,-227.93 313.32,-204.67 318.34,-187.21"/>
<polygon fill="black" stroke="black" points="321.84,-187.75 321.33,-177.16 315.13,-185.75 321.84,-187.75"/>
<text text-anchor="middle" x="333.39" y="-263.3" font-family="Times,serif" font-size="14.00">set_option</text>
</g>
<!-- http://purl.org/dj/kaggle/data&#45;types&#45;and&#45;missing&#45;values#30998711&#45;&gt;http://purl.org/dj/kaggle/data&#45;types&#45;and&#45;missing&#45;values -->
<g id="edge14" class="edge">
<title>http://purl.org/dj/kaggle/data&#45;types&#45;and&#45;missing&#45;values#30998711&#45;&gt;http://purl.org/dj/kaggle/data&#45;types&#45;and&#45;missing&#45;values</title>
<path fill="none" stroke="black" d="M136.65,-142.77C178.27,-127.8 244.13,-104.7 301.89,-87 355.6,-70.55 368.48,-63.23 423.89,-54 559.67,-31.37 717.34,-23.24 824.99,-20.39"/>
<polygon fill="black" stroke="black" points="825.34,-23.88 835.25,-20.13 825.16,-16.88 825.34,-23.88"/>
<text text-anchor="middle" x="328.39" y="-101.3" font-family="Times,serif" font-size="14.00">appearsIn</text>
</g>
<!-- http://purl.org/dj/kaggle/data&#45;types&#45;and&#45;missing&#45;values#445383666&#45;&gt;http://purl.org/dj/kaggle/data&#45;types&#45;and&#45;missing&#45;values -->
<g id="edge17" class="edge">
<title>http://purl.org/dj/kaggle/data&#45;types&#45;and&#45;missing&#45;values#445383666&#45;&gt;http://purl.org/dj/kaggle/data&#45;types&#45;and&#45;missing&#45;values</title>
<path fill="none" stroke="black" d="M340.97,-140.69C363.06,-115.19 408.67,-68.92 459.89,-54 526.15,-34.7 703.78,-25.84 826.67,-21.91"/>
<polygon fill="black" stroke="black" points="827.01,-25.41 836.9,-21.59 826.79,-18.41 827.01,-25.41"/>
<text text-anchor="middle" x="423.39" y="-101.3" font-family="Times,serif" font-size="14.00">appearsIn</text>
</g>
<!-- http://purl.org/dj/python/lib/144966264&#45;&gt;http://purl.org/dj/kaggle/data&#45;types&#45;and&#45;missing&#45;values -->
<g id="edge24" class="edge">
<title>http://purl.org/dj/python/lib/144966264&#45;&gt;http://purl.org/dj/kaggle/data&#45;types&#45;and&#45;missing&#45;values</title>
<path fill="none" stroke="black" d="M695.09,-88.32C723.67,-77.77 762.77,-64.03 797.89,-54 822.61,-46.94 849.86,-40.39 874.53,-34.9"/>
<polygon fill="black" stroke="black" points="875.55,-38.26 884.57,-32.7 874.05,-31.42 875.55,-38.26"/>
<text text-anchor="middle" x="843.39" y="-57.8" font-family="Times,serif" font-size="14.00">previousActivity</text>
</g>
<!-- http://purl.org/dj/kaggle/data&#45;types&#45;and&#45;missing&#45;values#497091550 -->
<g id="node14" class="node">
<title>http://purl.org/dj/kaggle/data&#45;types&#45;and&#45;missing&#45;values#497091550</title>
<ellipse fill="none" stroke="black" cx="1572.89" cy="-624" rx="155.97" ry="18"/>
<text text-anchor="middle" x="1572.89" y="-620.3" font-family="Times,serif" font-size="14.00">497091550 (reviews(0)$3: Visualisation)</text>
</g>
<!-- http://purl.org/dj/kaggle/data&#45;types&#45;and&#45;missing&#45;values#497091550&#45;&gt;http://purl.org/dj/kaggle/data&#45;types&#45;and&#45;missing&#45;values#497026013 -->
<g id="edge19" class="edge">
<title>http://purl.org/dj/kaggle/data&#45;types&#45;and&#45;missing&#45;values#497091550&#45;&gt;http://purl.org/dj/kaggle/data&#45;types&#45;and&#45;missing&#45;values#497026013</title>
<path fill="none" stroke="black" d="M1535.42,-606.41C1504.62,-592.78 1460.84,-573.4 1427.74,-558.74"/>
<polygon fill="black" stroke="black" points="1428.83,-555.4 1418.27,-554.55 1426,-561.8 1428.83,-555.4"/>
<text text-anchor="middle" x="1507.89" y="-576.8" font-family="Times,serif" font-size="14.00">replace</text>
</g>
<!-- http://purl.org/dj/kaggle/data&#45;types&#45;and&#45;missing&#45;values#769918282 -->
<g id="node15" class="node">
<title>http://purl.org/dj/kaggle/data&#45;types&#45;and&#45;missing&#45;values#769918282</title>
<ellipse fill="none" stroke="black" cx="1563.89" cy="-375" rx="144.87" ry="18"/>
<text text-anchor="middle" x="1563.89" y="-371.3" font-family="Times,serif" font-size="14.00">769918282 (@kerinokeefe(0): Reuse)</text>
</g>
<!-- http://purl.org/dj/kaggle/data&#45;types&#45;and&#45;missing&#45;values#497091550&#45;&gt;http://purl.org/dj/kaggle/data&#45;types&#45;and&#45;missing&#45;values#769918282 -->
<g id="edge20" class="edge">
<title>http://purl.org/dj/kaggle/data&#45;types&#45;and&#45;missing&#45;values#497091550&#45;&gt;http://purl.org/dj/kaggle/data&#45;types&#45;and&#45;missing&#45;values#769918282</title>
<path fill="none" stroke="black" d="M1572.26,-605.63C1570.72,-563.28 1566.75,-454.42 1564.89,-403.29"/>
<polygon fill="black" stroke="black" points="1568.37,-402.89 1564.51,-393.02 1561.38,-403.14 1568.37,-402.89"/>
<text text-anchor="middle" x="1589.89" y="-533.3" font-family="Times,serif" font-size="14.00">replace</text>
</g>
<!-- http://purl.org/dj/kaggle/data&#45;types&#45;and&#45;missing&#45;values#334234442 -->
<g id="node16" class="node">
<title>http://purl.org/dj/kaggle/data&#45;types&#45;and&#45;missing&#45;values#334234442</title>
<ellipse fill="none" stroke="black" cx="1718.89" cy="-483" rx="126.18" ry="18"/>
<text text-anchor="middle" x="1718.89" y="-479.3" font-family="Times,serif" font-size="14.00">334234442 (@kerino(0): Reuse)</text>
</g>
<!-- http://purl.org/dj/kaggle/data&#45;types&#45;and&#45;missing&#45;values#497091550&#45;&gt;http://purl.org/dj/kaggle/data&#45;types&#45;and&#45;missing&#45;values#334234442 -->
<g id="edge21" class="edge">
<title>http://purl.org/dj/kaggle/data&#45;types&#45;and&#45;missing&#45;values#497091550&#45;&gt;http://purl.org/dj/kaggle/data&#45;types&#45;and&#45;missing&#45;values#334234442</title>
<path fill="none" stroke="black" d="M1590.79,-605.96C1616.52,-581.47 1664.06,-536.2 1693.43,-508.24"/>
<polygon fill="black" stroke="black" points="1696.01,-510.61 1700.84,-501.18 1691.19,-505.54 1696.01,-510.61"/>
<text text-anchor="middle" x="1643.89" y="-576.8" font-family="Times,serif" font-size="14.00">replace</text>
</g>
<!-- http://purl.org/dj/kaggle/data&#45;types&#45;and&#45;missing&#45;values#769918282&#45;&gt;http://purl.org/dj/kaggle/data&#45;types&#45;and&#45;missing&#45;values -->
<g id="edge22" class="edge">
<title>http://purl.org/dj/kaggle/data&#45;types&#45;and&#45;missing&#45;values#769918282&#45;&gt;http://purl.org/dj/kaggle/data&#45;types&#45;and&#45;missing&#45;values</title>
<path fill="none" stroke="black" d="M1563.89,-356.74C1563.89,-335.76 1563.89,-299.28 1563.89,-268 1563.89,-268 1563.89,-268 1563.89,-104 1563.89,-55.21 1254.35,-32.81 1075.91,-23.95"/>
<polygon fill="black" stroke="black" points="1075.83,-20.45 1065.67,-23.45 1075.49,-27.44 1075.83,-20.45"/>
<text text-anchor="middle" x="1590.39" y="-209.3" font-family="Times,serif" font-size="14.00">appearsIn</text>
</g>
<!-- http://purl.org/dj/kaggle/data&#45;types&#45;and&#45;missing&#45;values#334234442&#45;&gt;http://purl.org/dj/kaggle/data&#45;types&#45;and&#45;missing&#45;values -->
<g id="edge23" class="edge">
<title>http://purl.org/dj/kaggle/data&#45;types&#45;and&#45;missing&#45;values#334234442&#45;&gt;http://purl.org/dj/kaggle/data&#45;types&#45;and&#45;missing&#45;values</title>
<path fill="none" stroke="black" d="M1720.21,-464.75C1721.69,-443.79 1723.89,-407.32 1723.89,-376 1723.89,-376 1723.89,-376 1723.89,-104 1723.89,-40.08 1299.81,-24.22 1080.69,-20.29"/>
<polygon fill="black" stroke="black" points="1080.47,-16.79 1070.41,-20.11 1080.35,-23.78 1080.47,-16.79"/>
<text text-anchor="middle" x="1750.39" y="-263.3" font-family="Times,serif" font-size="14.00">appearsIn</text>
</g>
</g>
</svg>
