<?xml version="1.0" encoding="UTF-8" standalone="no"?>
<!DOCTYPE svg PUBLIC "-//W3C//DTD SVG 1.1//EN"
 "http://www.w3.org/Graphics/SVG/1.1/DTD/svg11.dtd">
<!-- Generated by graphviz version 2.44.1 (20200629.0846)
 -->
<!-- Pages: 1 -->
<svg width="2773pt" height="413pt"
 viewBox="0.00 0.00 2773.03 413.00" xmlns="http://www.w3.org/2000/svg" xmlns:xlink="http://www.w3.org/1999/xlink">
<g id="graph0" class="graph" transform="scale(1 1) rotate(0) translate(4 409)">
<polygon fill="white" stroke="transparent" points="-4,4 -4,-409 2769.03,-409 2769.03,4 -4,4"/>
<!-- http://purl.org/dj/kaggle/depression&#45;on&#45;twitter#80085334 -->
<g id="node1" class="node">
<title>http://purl.org/dj/kaggle/depression&#45;on&#45;twitter#80085334</title>
<ellipse fill="none" stroke="black" cx="244.19" cy="-213" rx="124.28" ry="18"/>
<text text-anchor="middle" x="244.19" y="-209.3" font-family="Times,serif" font-size="14.00">80085334 (pd(0): Visualisation)</text>
</g>
<!-- http://purl.org/dj/kaggle/depression&#45;on&#45;twitter -->
<g id="node2" class="node">
<title>http://purl.org/dj/kaggle/depression&#45;on&#45;twitter</title>
<ellipse fill="none" stroke="black" cx="1569.19" cy="-18" rx="85.59" ry="18"/>
<text text-anchor="middle" x="1569.19" y="-14.3" font-family="Times,serif" font-size="14.00">depression&#45;on&#45;twitter</text>
</g>
<!-- http://purl.org/dj/kaggle/depression&#45;on&#45;twitter#80085334&#45;&gt;http://purl.org/dj/kaggle/depression&#45;on&#45;twitter -->
<g id="edge1" class="edge">
<title>http://purl.org/dj/kaggle/depression&#45;on&#45;twitter#80085334&#45;&gt;http://purl.org/dj/kaggle/depression&#45;on&#45;twitter</title>
<path fill="none" stroke="black" d="M245.2,-195C247.11,-178.69 252.59,-154.59 268.19,-141 364.74,-56.89 424.26,-103.85 551.19,-87 888.79,-42.19 1293.51,-26.33 1474.1,-21.21"/>
<polygon fill="black" stroke="black" points="1474.46,-24.7 1484.36,-20.93 1474.26,-17.71 1474.46,-24.7"/>
<text text-anchor="middle" x="574.69" y="-101.3" font-family="Times,serif" font-size="14.00">previous</text>
</g>
<!-- http://purl.org/dj/python/lib/144966264 -->
<g id="node3" class="node">
<title>http://purl.org/dj/python/lib/144966264</title>
<ellipse fill="none" stroke="black" cx="109.19" cy="-105" rx="109.38" ry="18"/>
<text text-anchor="middle" x="109.19" y="-101.3" font-family="Times,serif" font-size="14.00">144966264 (pandas: Reuse)</text>
</g>
<!-- http://purl.org/dj/kaggle/depression&#45;on&#45;twitter#80085334&#45;&gt;http://purl.org/dj/python/lib/144966264 -->
<g id="edge2" class="edge">
<title>http://purl.org/dj/kaggle/depression&#45;on&#45;twitter#80085334&#45;&gt;http://purl.org/dj/python/lib/144966264</title>
<path fill="none" stroke="black" d="M218.67,-195.22C210.42,-189.6 201.3,-183.19 193.19,-177 173.36,-161.87 151.89,-143.7 135.63,-129.52"/>
<polygon fill="black" stroke="black" points="137.92,-126.88 128.09,-122.92 133.3,-132.14 137.92,-126.88"/>
<text text-anchor="middle" x="216.69" y="-155.3" font-family="Times,serif" font-size="14.00">previous</text>
</g>
<!-- http://purl.org/dj/python/lib/144966264&#45;&gt;http://purl.org/dj/kaggle/depression&#45;on&#45;twitter -->
<g id="edge3" class="edge">
<title>http://purl.org/dj/python/lib/144966264&#45;&gt;http://purl.org/dj/kaggle/depression&#45;on&#45;twitter</title>
<path fill="none" stroke="black" d="M130.21,-87.31C146.4,-75.55 169.87,-60.73 193.19,-54 315,-18.82 1180.57,-17.91 1472.97,-18.63"/>
<polygon fill="black" stroke="black" points="1473.12,-22.13 1483.13,-18.66 1473.13,-15.13 1473.12,-22.13"/>
<text text-anchor="middle" x="216.69" y="-57.8" font-family="Times,serif" font-size="14.00">previous</text>
</g>
<!-- http://purl.org/dj/kaggle/depression&#45;on&#45;twitter#325321464 -->
<g id="node4" class="node">
<title>http://purl.org/dj/kaggle/depression&#45;on&#45;twitter#325321464</title>
<ellipse fill="none" stroke="black" cx="387.19" cy="-159" rx="118.08" ry="18"/>
<text text-anchor="middle" x="387.19" y="-155.3" font-family="Times,serif" font-size="14.00">325321464 (latin&#45;1(0): Reuse)</text>
</g>
<!-- http://purl.org/dj/kaggle/depression&#45;on&#45;twitter#325321464&#45;&gt;http://purl.org/dj/kaggle/depression&#45;on&#45;twitter -->
<g id="edge4" class="edge">
<title>http://purl.org/dj/kaggle/depression&#45;on&#45;twitter#325321464&#45;&gt;http://purl.org/dj/kaggle/depression&#45;on&#45;twitter</title>
<path fill="none" stroke="black" d="M463.26,-145.18C593.81,-123.58 869.08,-79.76 1103.19,-54 1232.74,-39.74 1383.2,-29.6 1477.32,-24.02"/>
<polygon fill="black" stroke="black" points="1477.6,-27.51 1487.38,-23.42 1477.19,-20.52 1477.6,-27.51"/>
<text text-anchor="middle" x="859.69" y="-101.3" font-family="Times,serif" font-size="14.00">previous</text>
</g>
<!-- http://purl.org/dj/kaggle/depression&#45;on&#45;twitter#243401328 -->
<g id="node5" class="node">
<title>http://purl.org/dj/kaggle/depression&#45;on&#45;twitter#243401328</title>
<ellipse fill="none" stroke="black" cx="396.19" cy="-300" rx="135.68" ry="18"/>
<text text-anchor="middle" x="396.19" y="-296.3" font-family="Times,serif" font-size="14.00">243401328 (data(0)$0: Movement)</text>
</g>
<!-- http://purl.org/dj/kaggle/depression&#45;on&#45;twitter#243401328&#45;&gt;http://purl.org/dj/kaggle/depression&#45;on&#45;twitter#80085334 -->
<g id="edge5" class="edge">
<title>http://purl.org/dj/kaggle/depression&#45;on&#45;twitter#243401328&#45;&gt;http://purl.org/dj/kaggle/depression&#45;on&#45;twitter#80085334</title>
<path fill="none" stroke="black" d="M362.24,-282.4C350.99,-276.73 338.47,-270.25 327.19,-264 311.35,-255.23 294.15,-244.99 279.54,-236.07"/>
<polygon fill="black" stroke="black" points="281.17,-232.96 270.81,-230.71 277.51,-238.93 281.17,-232.96"/>
<text text-anchor="middle" x="350.69" y="-252.8" font-family="Times,serif" font-size="14.00">previous</text>
</g>
<!-- http://purl.org/dj/kaggle/depression&#45;on&#45;twitter#243401328&#45;&gt;http://purl.org/dj/kaggle/depression&#45;on&#45;twitter#325321464 -->
<g id="edge6" class="edge">
<title>http://purl.org/dj/kaggle/depression&#45;on&#45;twitter#243401328&#45;&gt;http://purl.org/dj/kaggle/depression&#45;on&#45;twitter#325321464</title>
<path fill="none" stroke="black" d="M395.09,-281.96C393.56,-258.4 390.79,-215.64 388.97,-187.53"/>
<polygon fill="black" stroke="black" points="392.44,-186.94 388.3,-177.18 385.46,-187.39 392.44,-186.94"/>
<text text-anchor="middle" x="417.69" y="-252.8" font-family="Times,serif" font-size="14.00">previous</text>
</g>
<!-- http://purl.org/dj/kaggle/depression&#45;on&#45;twitter#2453018879 -->
<g id="node6" class="node">
<title>http://purl.org/dj/kaggle/depression&#45;on&#45;twitter#2453018879</title>
<ellipse fill="none" stroke="black" cx="865.19" cy="-159" rx="354.44" ry="18"/>
<text text-anchor="middle" x="865.19" y="-155.3" font-family="Times,serif" font-size="14.00">2453018879 (/kaggle/input/sentiment140/training.1600000.processed.noemoticon.csv(0): Reuse)</text>
</g>
<!-- http://purl.org/dj/kaggle/depression&#45;on&#45;twitter#243401328&#45;&gt;http://purl.org/dj/kaggle/depression&#45;on&#45;twitter#2453018879 -->
<g id="edge7" class="edge">
<title>http://purl.org/dj/kaggle/depression&#45;on&#45;twitter#243401328&#45;&gt;http://purl.org/dj/kaggle/depression&#45;on&#45;twitter#2453018879</title>
<path fill="none" stroke="black" d="M449.08,-283.33C535.03,-257.85 704.87,-207.52 798.81,-179.67"/>
<polygon fill="black" stroke="black" points="799.9,-183 808.49,-176.8 797.91,-176.29 799.9,-183"/>
<text text-anchor="middle" x="585.69" y="-252.8" font-family="Times,serif" font-size="14.00">previous</text>
</g>
<!-- http://purl.org/dj/kaggle/depression&#45;on&#45;twitter#2453018879&#45;&gt;http://purl.org/dj/kaggle/depression&#45;on&#45;twitter -->
<g id="edge8" class="edge">
<title>http://purl.org/dj/kaggle/depression&#45;on&#45;twitter#2453018879&#45;&gt;http://purl.org/dj/kaggle/depression&#45;on&#45;twitter</title>
<path fill="none" stroke="black" d="M900.1,-140.94C934.11,-124.94 987.65,-101.38 1036.19,-87 1185.44,-42.8 1366.58,-27.33 1474.62,-21.91"/>
<polygon fill="black" stroke="black" points="1475.03,-25.4 1484.85,-21.42 1474.69,-18.41 1475.03,-25.4"/>
<text text-anchor="middle" x="1059.69" y="-101.3" font-family="Times,serif" font-size="14.00">previous</text>
</g>
<!-- http://purl.org/dj/kaggle/depression&#45;on&#45;twitter#83689828 -->
<g id="node7" class="node">
<title>http://purl.org/dj/kaggle/depression&#45;on&#45;twitter#83689828</title>
<ellipse fill="none" stroke="black" cx="1077.19" cy="-213" rx="123.48" ry="18"/>
<text text-anchor="middle" x="1077.19" y="-209.3" font-family="Times,serif" font-size="14.00">83689828 (os(0): Visualisation)</text>
</g>
<!-- http://purl.org/dj/kaggle/depression&#45;on&#45;twitter#83689828&#45;&gt;http://purl.org/dj/kaggle/depression&#45;on&#45;twitter -->
<g id="edge9" class="edge">
<title>http://purl.org/dj/kaggle/depression&#45;on&#45;twitter#83689828&#45;&gt;http://purl.org/dj/kaggle/depression&#45;on&#45;twitter</title>
<path fill="none" stroke="black" d="M1166.62,-200.53C1215.99,-193.48 1269.15,-184.41 1278.19,-177 1311.4,-149.81 1281.2,-115.61 1313.19,-87 1357.38,-47.47 1422,-30.51 1475.26,-23.41"/>
<polygon fill="black" stroke="black" points="1475.91,-26.86 1485.41,-22.16 1475.05,-19.91 1475.91,-26.86"/>
<text text-anchor="middle" x="1336.69" y="-101.3" font-family="Times,serif" font-size="14.00">previous</text>
</g>
<!-- http://purl.org/dj/python/lib/22216931 -->
<g id="node8" class="node">
<title>http://purl.org/dj/python/lib/22216931</title>
<ellipse fill="none" stroke="black" cx="1180.19" cy="-105" rx="88.28" ry="18"/>
<text text-anchor="middle" x="1180.19" y="-101.3" font-family="Times,serif" font-size="14.00">22216931 (os: Reuse)</text>
</g>
<!-- http://purl.org/dj/kaggle/depression&#45;on&#45;twitter#83689828&#45;&gt;http://purl.org/dj/python/lib/22216931 -->
<g id="edge10" class="edge">
<title>http://purl.org/dj/kaggle/depression&#45;on&#45;twitter#83689828&#45;&gt;http://purl.org/dj/python/lib/22216931</title>
<path fill="none" stroke="black" d="M1162.99,-200.05C1188.75,-194.59 1212.3,-187.05 1220.19,-177 1230.07,-164.41 1226.8,-155.57 1220.19,-141 1218.39,-137.03 1215.89,-133.33 1213.01,-129.94"/>
<polygon fill="black" stroke="black" points="1215.28,-127.26 1205.76,-122.61 1210.3,-132.18 1215.28,-127.26"/>
<text text-anchor="middle" x="1250.69" y="-155.3" font-family="Times,serif" font-size="14.00">previous</text>
</g>
<!-- http://purl.org/dj/python/lib/22216931&#45;&gt;http://purl.org/dj/kaggle/depression&#45;on&#45;twitter -->
<g id="edge11" class="edge">
<title>http://purl.org/dj/python/lib/22216931&#45;&gt;http://purl.org/dj/kaggle/depression&#45;on&#45;twitter</title>
<path fill="none" stroke="black" d="M1196.13,-87.07C1207.96,-75.67 1225.1,-61.41 1243.19,-54 1283.98,-37.29 1394.73,-27.99 1475.87,-23.25"/>
<polygon fill="black" stroke="black" points="1476.32,-26.73 1486.11,-22.66 1475.92,-19.74 1476.32,-26.73"/>
<text text-anchor="middle" x="1266.69" y="-57.8" font-family="Times,serif" font-size="14.00">previous</text>
</g>
<!-- http://purl.org/dj/kaggle/depression&#45;on&#45;twitter#243532402 -->
<g id="node9" class="node">
<title>http://purl.org/dj/kaggle/depression&#45;on&#45;twitter#243532402</title>
<ellipse fill="none" stroke="black" cx="1356.19" cy="-213" rx="137.58" ry="18"/>
<text text-anchor="middle" x="1356.19" y="-209.3" font-family="Times,serif" font-size="14.00">243532402 (data(0)$2: Preparation)</text>
</g>
<!-- http://purl.org/dj/kaggle/depression&#45;on&#45;twitter#45809891 -->
<g id="node10" class="node">
<title>http://purl.org/dj/kaggle/depression&#45;on&#45;twitter#45809891</title>
<ellipse fill="none" stroke="black" cx="1468.19" cy="-105" rx="99.38" ry="18"/>
<text text-anchor="middle" x="1468.19" y="-101.3" font-family="Times,serif" font-size="14.00">45809891 (10(0): Reuse)</text>
</g>
<!-- http://purl.org/dj/kaggle/depression&#45;on&#45;twitter#243532402&#45;&gt;http://purl.org/dj/kaggle/depression&#45;on&#45;twitter#45809891 -->
<g id="edge12" class="edge">
<title>http://purl.org/dj/kaggle/depression&#45;on&#45;twitter#243532402&#45;&gt;http://purl.org/dj/kaggle/depression&#45;on&#45;twitter#45809891</title>
<path fill="none" stroke="black" d="M1374.19,-194.97C1392.8,-177.35 1422.02,-149.7 1442.94,-129.89"/>
<polygon fill="black" stroke="black" points="1445.38,-132.4 1450.24,-122.99 1440.57,-127.32 1445.38,-132.4"/>
<text text-anchor="middle" x="1452.69" y="-155.3" font-family="Times,serif" font-size="14.00">previous</text>
</g>
<!-- http://purl.org/dj/kaggle/depression&#45;on&#45;twitter#45809891&#45;&gt;http://purl.org/dj/kaggle/depression&#45;on&#45;twitter -->
<g id="edge13" class="edge">
<title>http://purl.org/dj/kaggle/depression&#45;on&#45;twitter#45809891&#45;&gt;http://purl.org/dj/kaggle/depression&#45;on&#45;twitter</title>
<path fill="none" stroke="black" d="M1488.14,-87.21C1503.36,-74.4 1524.5,-56.61 1541.38,-42.4"/>
<polygon fill="black" stroke="black" points="1543.88,-44.88 1549.28,-35.76 1539.37,-39.52 1543.88,-44.88"/>
<text text-anchor="middle" x="1548.69" y="-57.8" font-family="Times,serif" font-size="14.00">previous</text>
</g>
<!-- http://purl.org/dj/kaggle/depression&#45;on&#45;twitter#512164918 -->
<g id="node11" class="node">
<title>http://purl.org/dj/kaggle/depression&#45;on&#45;twitter#512164918</title>
<ellipse fill="none" stroke="black" cx="1666.19" cy="-213" rx="154.07" ry="18"/>
<text text-anchor="middle" x="1666.19" y="-209.3" font-family="Times,serif" font-size="14.00">512164918 (filenames(0): Visualisation)</text>
</g>
<!-- http://purl.org/dj/kaggle/depression&#45;on&#45;twitter#512164918&#45;&gt;http://purl.org/dj/kaggle/depression&#45;on&#45;twitter -->
<g id="edge14" class="edge">
<title>http://purl.org/dj/kaggle/depression&#45;on&#45;twitter#512164918&#45;&gt;http://purl.org/dj/kaggle/depression&#45;on&#45;twitter</title>
<path fill="none" stroke="black" d="M1654.62,-194.72C1643.08,-177.11 1625.25,-148.8 1612.19,-123 1599.24,-97.42 1587,-66.99 1578.92,-45.68"/>
<polygon fill="black" stroke="black" points="1582.19,-44.43 1575.41,-36.29 1575.64,-46.88 1582.19,-44.43"/>
<text text-anchor="middle" x="1635.69" y="-101.3" font-family="Times,serif" font-size="14.00">previous</text>
</g>
<!-- http://purl.org/dj/kaggle/depression&#45;on&#45;twitter#820184443 -->
<g id="node12" class="node">
<title>http://purl.org/dj/kaggle/depression&#45;on&#45;twitter#820184443</title>
<ellipse fill="none" stroke="black" cx="1810.19" cy="-105" rx="141.88" ry="18"/>
<text text-anchor="middle" x="1810.19" y="-101.3" font-family="Times,serif" font-size="14.00">820184443 (/kaggle/input(0): Reuse)</text>
</g>
<!-- http://purl.org/dj/kaggle/depression&#45;on&#45;twitter#512164918&#45;&gt;http://purl.org/dj/kaggle/depression&#45;on&#45;twitter#820184443 -->
<g id="edge15" class="edge">
<title>http://purl.org/dj/kaggle/depression&#45;on&#45;twitter#512164918&#45;&gt;http://purl.org/dj/kaggle/depression&#45;on&#45;twitter#820184443</title>
<path fill="none" stroke="black" d="M1689.33,-194.97C1713.57,-177.12 1751.82,-148.97 1778.79,-129.12"/>
<polygon fill="black" stroke="black" points="1781.13,-131.74 1787.11,-122.99 1776.98,-126.1 1781.13,-131.74"/>
<text text-anchor="middle" x="1783.69" y="-155.3" font-family="Times,serif" font-size="14.00">previous</text>
</g>
<!-- http://purl.org/dj/kaggle/depression&#45;on&#45;twitter#820184443&#45;&gt;http://purl.org/dj/kaggle/depression&#45;on&#45;twitter -->
<g id="edge16" class="edge">
<title>http://purl.org/dj/kaggle/depression&#45;on&#45;twitter#820184443&#45;&gt;http://purl.org/dj/kaggle/depression&#45;on&#45;twitter</title>
<path fill="none" stroke="black" d="M1764.58,-87.91C1723.56,-73.45 1663.36,-52.21 1620.64,-37.15"/>
<polygon fill="black" stroke="black" points="1621.59,-33.77 1610.99,-33.74 1619.26,-40.37 1621.59,-33.77"/>
<text text-anchor="middle" x="1727.69" y="-57.8" font-family="Times,serif" font-size="14.00">previous</text>
</g>
<!-- http://purl.org/dj/kaggle/depression&#45;on&#45;twitter#355533666 -->
<g id="node13" class="node">
<title>http://purl.org/dj/kaggle/depression&#45;on&#45;twitter#355533666</title>
<ellipse fill="none" stroke="black" cx="1988.19" cy="-213" rx="149.47" ry="18"/>
<text text-anchor="middle" x="1988.19" y="-209.3" font-family="Times,serif" font-size="14.00">355533666 (dirname(0): Visualisation)</text>
</g>
<!-- http://purl.org/dj/kaggle/depression&#45;on&#45;twitter#355533666&#45;&gt;http://purl.org/dj/kaggle/depression&#45;on&#45;twitter -->
<g id="edge17" class="edge">
<title>http://purl.org/dj/kaggle/depression&#45;on&#45;twitter#355533666&#45;&gt;http://purl.org/dj/kaggle/depression&#45;on&#45;twitter</title>
<path fill="none" stroke="black" d="M1990.03,-194.97C1991.91,-167.86 1991.15,-115.09 1961.19,-87 1918.95,-47.4 1763.89,-30.5 1661.91,-23.56"/>
<polygon fill="black" stroke="black" points="1662.11,-20.06 1651.9,-22.89 1661.65,-27.05 1662.11,-20.06"/>
<text text-anchor="middle" x="2005.69" y="-101.3" font-family="Times,serif" font-size="14.00">previous</text>
</g>
<!-- http://purl.org/dj/kaggle/depression&#45;on&#45;twitter#355533666&#45;&gt;http://purl.org/dj/kaggle/depression&#45;on&#45;twitter#820184443 -->
<g id="edge18" class="edge">
<title>http://purl.org/dj/kaggle/depression&#45;on&#45;twitter#355533666&#45;&gt;http://purl.org/dj/kaggle/depression&#45;on&#45;twitter#820184443</title>
<path fill="none" stroke="black" d="M1958.63,-195.23C1948.62,-189.5 1937.39,-183.02 1927.19,-177 1899.91,-160.9 1869.32,-142.32 1846.26,-128.2"/>
<polygon fill="black" stroke="black" points="1847.85,-125.07 1837.5,-122.83 1844.2,-131.04 1847.85,-125.07"/>
<text text-anchor="middle" x="1950.69" y="-155.3" font-family="Times,serif" font-size="14.00">previous</text>
</g>
<!-- http://purl.org/dj/kaggle/depression&#45;on&#45;twitter#243466865 -->
<g id="node14" class="node">
<title>http://purl.org/dj/kaggle/depression&#45;on&#45;twitter#243466865</title>
<ellipse fill="none" stroke="black" cx="396.19" cy="-387" rx="137.58" ry="18"/>
<text text-anchor="middle" x="396.19" y="-383.3" font-family="Times,serif" font-size="14.00">243466865 (data(0)$1: Preparation)</text>
</g>
<!-- http://purl.org/dj/kaggle/depression&#45;on&#45;twitter#243466865&#45;&gt;http://purl.org/dj/kaggle/depression&#45;on&#45;twitter#243401328 -->
<g id="edge19" class="edge">
<title>http://purl.org/dj/kaggle/depression&#45;on&#45;twitter#243466865&#45;&gt;http://purl.org/dj/kaggle/depression&#45;on&#45;twitter#243401328</title>
<path fill="none" stroke="black" d="M396.19,-368.8C396.19,-357.16 396.19,-341.55 396.19,-328.24"/>
<polygon fill="black" stroke="black" points="399.69,-328.18 396.19,-318.18 392.69,-328.18 399.69,-328.18"/>
<text text-anchor="middle" x="419.69" y="-339.8" font-family="Times,serif" font-size="14.00">previous</text>
</g>
<!-- http://purl.org/dj/kaggle/depression&#45;on&#45;twitter#42008801 -->
<g id="node15" class="node">
<title>http://purl.org/dj/kaggle/depression&#45;on&#45;twitter#42008801</title>
<ellipse fill="none" stroke="black" cx="2276.19" cy="-213" rx="120.48" ry="18"/>
<text text-anchor="middle" x="2276.19" y="-209.3" font-family="Times,serif" font-size="14.00">42008801 (_(0): Visualisation)</text>
</g>
<!-- http://purl.org/dj/kaggle/depression&#45;on&#45;twitter#42008801&#45;&gt;http://purl.org/dj/kaggle/depression&#45;on&#45;twitter -->
<g id="edge20" class="edge">
<title>http://purl.org/dj/kaggle/depression&#45;on&#45;twitter#42008801&#45;&gt;http://purl.org/dj/kaggle/depression&#45;on&#45;twitter</title>
<path fill="none" stroke="black" d="M2205.1,-198.46C2185.41,-193.23 2164.44,-186.22 2146.19,-177 2088.88,-148.05 2090.12,-116.69 2033.19,-87 1987.56,-63.2 1972.69,-63.92 1922.19,-54 1835.07,-36.89 1734.13,-27.95 1662.56,-23.41"/>
<polygon fill="black" stroke="black" points="1662.42,-19.89 1652.22,-22.77 1661.99,-26.88 1662.42,-19.89"/>
<text text-anchor="middle" x="2102.69" y="-101.3" font-family="Times,serif" font-size="14.00">previous</text>
</g>
<!-- http://purl.org/dj/kaggle/depression&#45;on&#45;twitter#42008801&#45;&gt;http://purl.org/dj/kaggle/depression&#45;on&#45;twitter#820184443 -->
<g id="edge21" class="edge">
<title>http://purl.org/dj/kaggle/depression&#45;on&#45;twitter#42008801&#45;&gt;http://purl.org/dj/kaggle/depression&#45;on&#45;twitter#820184443</title>
<path fill="none" stroke="black" d="M2188.87,-200.53C2116.94,-190.99 2026.11,-178.71 2022.19,-177 1999.03,-166.9 2000.99,-151.89 1978.19,-141 1959.39,-132.02 1938.33,-125.34 1917.64,-120.36"/>
<polygon fill="black" stroke="black" points="1918.38,-116.94 1907.85,-118.13 1916.82,-123.77 1918.38,-116.94"/>
<text text-anchor="middle" x="2045.69" y="-155.3" font-family="Times,serif" font-size="14.00">previous</text>
</g>
<!-- http://purl.org/dj/python/lib/111084090 -->
<g id="node16" class="node">
<title>http://purl.org/dj/python/lib/111084090</title>
<ellipse fill="none" stroke="black" cx="2655.19" cy="-105" rx="109.68" ry="18"/>
<text text-anchor="middle" x="2655.19" y="-101.3" font-family="Times,serif" font-size="14.00">111084090 (numpy: Reuse)</text>
</g>
<!-- http://purl.org/dj/python/lib/111084090&#45;&gt;http://purl.org/dj/kaggle/depression&#45;on&#45;twitter -->
<g id="edge22" class="edge">
<title>http://purl.org/dj/python/lib/111084090&#45;&gt;http://purl.org/dj/kaggle/depression&#45;on&#45;twitter</title>
<path fill="none" stroke="black" d="M2581.37,-91.66C2509.15,-80.07 2395.92,-63.17 2297.19,-54 2070.87,-32.98 1803.73,-24.22 1664.48,-20.87"/>
<polygon fill="black" stroke="black" points="1664.35,-17.37 1654.27,-20.63 1664.18,-24.37 1664.35,-17.37"/>
<text text-anchor="middle" x="2448.69" y="-57.8" font-family="Times,serif" font-size="14.00">previous</text>
</g>
<!-- http://purl.org/dj/kaggle/depression&#45;on&#45;twitter#427361219 -->
<g id="node17" class="node">
<title>http://purl.org/dj/kaggle/depression&#45;on&#45;twitter#427361219</title>
<ellipse fill="none" stroke="black" cx="2376.19" cy="-105" rx="150.57" ry="18"/>
<text text-anchor="middle" x="2376.19" y="-101.3" font-family="Times,serif" font-size="14.00">427361219 (filename(0): Visualisation)</text>
</g>
<!-- http://purl.org/dj/kaggle/depression&#45;on&#45;twitter#427361219&#45;&gt;http://purl.org/dj/kaggle/depression&#45;on&#45;twitter -->
<g id="edge23" class="edge">
<title>http://purl.org/dj/kaggle/depression&#45;on&#45;twitter#427361219&#45;&gt;http://purl.org/dj/kaggle/depression&#45;on&#45;twitter</title>
<path fill="none" stroke="black" d="M2323.14,-88.01C2282.71,-76.53 2225.45,-61.76 2174.19,-54 1995.79,-27 1784.89,-20.47 1665.11,-19.1"/>
<polygon fill="black" stroke="black" points="1664.91,-15.59 1654.87,-18.99 1664.83,-22.59 1664.91,-15.59"/>
<text text-anchor="middle" x="2269.69" y="-57.8" font-family="Times,serif" font-size="14.00">previous</text>
</g>
<!-- http://purl.org/dj/kaggle/depression&#45;on&#45;twitter#82575712 -->
<g id="node18" class="node">
<title>http://purl.org/dj/kaggle/depression&#45;on&#45;twitter#82575712</title>
<ellipse fill="none" stroke="black" cx="2593.19" cy="-213" rx="124.28" ry="18"/>
<text text-anchor="middle" x="2593.19" y="-209.3" font-family="Times,serif" font-size="14.00">82575712 (np(0): Visualisation)</text>
</g>
<!-- http://purl.org/dj/kaggle/depression&#45;on&#45;twitter#82575712&#45;&gt;http://purl.org/dj/kaggle/depression&#45;on&#45;twitter -->
<g id="edge24" class="edge">
<title>http://purl.org/dj/kaggle/depression&#45;on&#45;twitter#82575712&#45;&gt;http://purl.org/dj/kaggle/depression&#45;on&#45;twitter</title>
<path fill="none" stroke="black" d="M2481.94,-204.95C2393.1,-195.58 2267.62,-173.77 2169.19,-123 2148.23,-112.19 2151.17,-97.78 2130.19,-87 2065.6,-53.83 2042.03,-64.51 1970.19,-54 1864.92,-38.6 1743.04,-29.14 1661.54,-24"/>
<polygon fill="black" stroke="black" points="1661.5,-20.49 1651.31,-23.36 1661.07,-27.48 1661.5,-20.49"/>
<text text-anchor="middle" x="2192.69" y="-101.3" font-family="Times,serif" font-size="14.00">previous</text>
</g>
<!-- http://purl.org/dj/kaggle/depression&#45;on&#45;twitter#82575712&#45;&gt;http://purl.org/dj/python/lib/111084090 -->
<g id="edge25" class="edge">
<title>http://purl.org/dj/kaggle/depression&#45;on&#45;twitter#82575712&#45;&gt;http://purl.org/dj/python/lib/111084090</title>
<path fill="none" stroke="black" d="M2603.15,-194.97C2613.14,-177.89 2628.64,-151.38 2640.13,-131.74"/>
<polygon fill="black" stroke="black" points="2643.23,-133.39 2645.25,-122.99 2637.18,-129.85 2643.23,-133.39"/>
<text text-anchor="middle" x="2656.69" y="-155.3" font-family="Times,serif" font-size="14.00">previous</text>
</g>
</g>
</svg>
