<?xml version="1.0" encoding="UTF-8" standalone="no"?>
<!DOCTYPE svg PUBLIC "-//W3C//DTD SVG 1.1//EN"
 "http://www.w3.org/Graphics/SVG/1.1/DTD/svg11.dtd">
<!-- Generated by graphviz version 2.47.1 (20210417.1919)
 -->
<!-- Pages: 1 -->
<svg width="2378pt" height="521pt"
 viewBox="0.00 0.00 2378.22 521.00" xmlns="http://www.w3.org/2000/svg" xmlns:xlink="http://www.w3.org/1999/xlink">
<g id="graph0" class="graph" transform="scale(1 1) rotate(0) translate(4 517)">
<polygon fill="white" stroke="transparent" points="-4,4 -4,-517 2374.22,-517 2374.22,4 -4,4"/>
<!-- http://purl.org/dj/kaggle/depression&#45;on&#45;twitter#512164918 -->
<g id="node1" class="node">
<title>http://purl.org/dj/kaggle/depression&#45;on&#45;twitter#512164918</title>
<ellipse fill="none" stroke="black" cx="157" cy="-300" rx="129.18" ry="18"/>
<text text-anchor="middle" x="157" y="-296.3" font-family="Times,serif" font-size="14.00">512164918 (filenames(0): Reuse)</text>
</g>
<!-- http://purl.org/dj/kaggle/depression&#45;on&#45;twitter#820184443 -->
<g id="node2" class="node">
<title>http://purl.org/dj/kaggle/depression&#45;on&#45;twitter#820184443</title>
<ellipse fill="none" stroke="black" cx="368" cy="-213" rx="141.88" ry="18"/>
<text text-anchor="middle" x="368" y="-209.3" font-family="Times,serif" font-size="14.00">820184443 (/kaggle/input(0): Reuse)</text>
</g>
<!-- http://purl.org/dj/kaggle/depression&#45;on&#45;twitter#512164918&#45;&gt;http://purl.org/dj/kaggle/depression&#45;on&#45;twitter#820184443 -->
<g id="edge1" class="edge">
<title>http://purl.org/dj/kaggle/depression&#45;on&#45;twitter#512164918&#45;&gt;http://purl.org/dj/kaggle/depression&#45;on&#45;twitter#820184443</title>
<path fill="none" stroke="black" d="M171.99,-281.69C182.42,-270.72 197.24,-257.11 213,-249 229.42,-240.54 247.86,-234.12 266.14,-229.24"/>
<polygon fill="black" stroke="black" points="267.12,-232.6 275.96,-226.75 265.41,-225.81 267.12,-232.6"/>
<text text-anchor="middle" x="246.5" y="-252.8" font-family="Times,serif" font-size="14.00">iteratorOf ()</text>
</g>
<!-- http://purl.org/dj/kaggle/depression&#45;on&#45;twitter -->
<g id="node3" class="node">
<title>http://purl.org/dj/kaggle/depression&#45;on&#45;twitter</title>
<ellipse fill="none" stroke="black" cx="796" cy="-18" rx="191.17" ry="18"/>
<text text-anchor="middle" x="796" y="-14.3" font-family="Times,serif" font-size="14.00">depression&#45;on&#45;twitter (depression&#45;on&#45;twitter.ipynb)</text>
</g>
<!-- http://purl.org/dj/kaggle/depression&#45;on&#45;twitter#512164918&#45;&gt;http://purl.org/dj/kaggle/depression&#45;on&#45;twitter -->
<g id="edge2" class="edge">
<title>http://purl.org/dj/kaggle/depression&#45;on&#45;twitter#512164918&#45;&gt;http://purl.org/dj/kaggle/depression&#45;on&#45;twitter</title>
<path fill="none" stroke="black" d="M151.74,-281.77C143.42,-250.96 130.8,-185.46 158,-141 185.18,-96.57 214.23,-107.76 262,-87 302.22,-69.52 312.11,-63.15 355,-54 434.7,-37 524.1,-28.08 601.46,-23.47"/>
<polygon fill="black" stroke="black" points="602.03,-26.94 611.81,-22.87 601.62,-19.95 602.03,-26.94"/>
<text text-anchor="middle" x="191" y="-155.3" font-family="Times,serif" font-size="14.00">appearsIn ()</text>
</g>
<!-- http://purl.org/dj/kaggle/depression&#45;on&#45;twitter#83689828 -->
<g id="node4" class="node">
<title>http://purl.org/dj/kaggle/depression&#45;on&#45;twitter#83689828</title>
<ellipse fill="none" stroke="black" cx="626" cy="-213" rx="98.58" ry="18"/>
<text text-anchor="middle" x="626" y="-209.3" font-family="Times,serif" font-size="14.00">83689828 (os(0): Reuse)</text>
</g>
<!-- http://purl.org/dj/kaggle/depression&#45;on&#45;twitter#512164918&#45;&gt;http://purl.org/dj/kaggle/depression&#45;on&#45;twitter#83689828 -->
<g id="edge3" class="edge">
<title>http://purl.org/dj/kaggle/depression&#45;on&#45;twitter#512164918&#45;&gt;http://purl.org/dj/kaggle/depression&#45;on&#45;twitter#83689828</title>
<path fill="none" stroke="black" d="M246.03,-286.89C288.53,-280.36 334.34,-272.02 354,-264 364.96,-259.53 364.93,-253.19 376,-249 435.91,-226.33 455.58,-240.03 519,-231 527.52,-229.79 536.42,-228.46 545.28,-227.11"/>
<polygon fill="black" stroke="black" points="545.91,-230.55 555.25,-225.57 544.84,-223.64 545.91,-230.55"/>
<text text-anchor="middle" x="409.5" y="-252.8" font-family="Times,serif" font-size="14.00">iteratorOf ()</text>
</g>
<!-- http://purl.org/dj/kaggle/depression&#45;on&#45;twitter#820184443&#45;&gt;http://purl.org/dj/kaggle/depression&#45;on&#45;twitter -->
<g id="edge4" class="edge">
<title>http://purl.org/dj/kaggle/depression&#45;on&#45;twitter#820184443&#45;&gt;http://purl.org/dj/kaggle/depression&#45;on&#45;twitter</title>
<path fill="none" stroke="black" d="M362.48,-194.66C355.21,-168.08 346.14,-117.17 372,-87 403.25,-50.54 510.43,-33.56 609.19,-25.68"/>
<polygon fill="black" stroke="black" points="609.63,-29.16 619.33,-24.9 609.09,-22.18 609.63,-29.16"/>
<text text-anchor="middle" x="405" y="-101.3" font-family="Times,serif" font-size="14.00">appearsIn ()</text>
</g>
<!-- http://purl.org/dj/kaggle/depression&#45;on&#45;twitter#83689828&#45;&gt;http://purl.org/dj/kaggle/depression&#45;on&#45;twitter -->
<g id="edge5" class="edge">
<title>http://purl.org/dj/kaggle/depression&#45;on&#45;twitter#83689828&#45;&gt;http://purl.org/dj/kaggle/depression&#45;on&#45;twitter</title>
<path fill="none" stroke="black" d="M636.16,-194.88C639.24,-189.3 642.47,-182.99 645,-177 661.29,-138.41 646.54,-119.48 673,-87 690.08,-66.04 715.41,-50.49 738.66,-39.59"/>
<polygon fill="black" stroke="black" points="740.09,-42.78 747.78,-35.49 737.22,-36.39 740.09,-42.78"/>
<text text-anchor="middle" x="706" y="-101.3" font-family="Times,serif" font-size="14.00">appearsIn ()</text>
</g>
<!-- http://purl.org/dj/python/lib/22216931 -->
<g id="node5" class="node">
<title>http://purl.org/dj/python/lib/22216931</title>
<ellipse fill="none" stroke="black" cx="535" cy="-105" rx="88.28" ry="18"/>
<text text-anchor="middle" x="535" y="-101.3" font-family="Times,serif" font-size="14.00">22216931 (os: Reuse)</text>
</g>
<!-- http://purl.org/dj/kaggle/depression&#45;on&#45;twitter#83689828&#45;&gt;http://purl.org/dj/python/lib/22216931 -->
<g id="edge6" class="edge">
<title>http://purl.org/dj/kaggle/depression&#45;on&#45;twitter#83689828&#45;&gt;http://purl.org/dj/python/lib/22216931</title>
<path fill="none" stroke="black" d="M581.07,-196.91C571.36,-191.88 561.94,-185.35 555,-177 544.82,-164.76 539.81,-147.66 537.35,-133.32"/>
<polygon fill="black" stroke="black" points="540.76,-132.43 535.92,-123.01 533.83,-133.39 540.76,-132.43"/>
<text text-anchor="middle" x="600" y="-155.3" font-family="Times,serif" font-size="14.00">assignedFrom ()</text>
</g>
<!-- http://purl.org/dj/python/lib/22216931&#45;&gt;http://purl.org/dj/kaggle/depression&#45;on&#45;twitter -->
<g id="edge12" class="edge">
<title>http://purl.org/dj/python/lib/22216931&#45;&gt;http://purl.org/dj/kaggle/depression&#45;on&#45;twitter</title>
<path fill="none" stroke="black" d="M541.19,-86.87C546.15,-75.69 554.24,-61.76 566,-54 580.75,-44.26 612.3,-37.09 647.43,-31.87"/>
<polygon fill="black" stroke="black" points="648.02,-35.32 657.43,-30.45 647.04,-28.39 648.02,-35.32"/>
<text text-anchor="middle" x="605.5" y="-57.8" font-family="Times,serif" font-size="14.00">importedBy ()</text>
</g>
<!-- http://purl.org/dj/kaggle/depression&#45;on&#45;twitter#427361219 -->
<g id="node6" class="node">
<title>http://purl.org/dj/kaggle/depression&#45;on&#45;twitter#427361219</title>
<ellipse fill="none" stroke="black" cx="157" cy="-408" rx="126.18" ry="18"/>
<text text-anchor="middle" x="157" y="-404.3" font-family="Times,serif" font-size="14.00">427361219 (filename(0): Reuse)</text>
</g>
<!-- http://purl.org/dj/kaggle/depression&#45;on&#45;twitter#427361219&#45;&gt;http://purl.org/dj/kaggle/depression&#45;on&#45;twitter#512164918 -->
<g id="edge7" class="edge">
<title>http://purl.org/dj/kaggle/depression&#45;on&#45;twitter#427361219&#45;&gt;http://purl.org/dj/kaggle/depression&#45;on&#45;twitter#512164918</title>
<path fill="none" stroke="black" d="M157,-389.97C157,-373.38 157,-347.88 157,-328.43"/>
<polygon fill="black" stroke="black" points="160.5,-328.34 157,-318.34 153.5,-328.34 160.5,-328.34"/>
<text text-anchor="middle" x="190.5" y="-350.3" font-family="Times,serif" font-size="14.00">iteratorOf ()</text>
</g>
<!-- http://purl.org/dj/kaggle/depression&#45;on&#45;twitter#427361219&#45;&gt;http://purl.org/dj/kaggle/depression&#45;on&#45;twitter -->
<g id="edge8" class="edge">
<title>http://purl.org/dj/kaggle/depression&#45;on&#45;twitter#427361219&#45;&gt;http://purl.org/dj/kaggle/depression&#45;on&#45;twitter</title>
<path fill="none" stroke="black" d="M96.3,-392.16C52.12,-377.31 0,-349.51 0,-301 0,-301 0,-301 0,-104 0,-44.06 361.51,-26.3 597.28,-21.1"/>
<polygon fill="black" stroke="black" points="597.44,-24.6 607.36,-20.88 597.29,-17.6 597.44,-24.6"/>
<text text-anchor="middle" x="33" y="-209.3" font-family="Times,serif" font-size="14.00">appearsIn ()</text>
</g>
<!-- http://purl.org/dj/python/lib/144966264 -->
<g id="node7" class="node">
<title>http://purl.org/dj/python/lib/144966264</title>
<ellipse fill="none" stroke="black" cx="1268" cy="-105" rx="109.38" ry="18"/>
<text text-anchor="middle" x="1268" y="-101.3" font-family="Times,serif" font-size="14.00">144966264 (pandas: Reuse)</text>
</g>
<!-- http://purl.org/dj/python/lib/144966264&#45;&gt;http://purl.org/dj/kaggle/depression&#45;on&#45;twitter -->
<g id="edge9" class="edge">
<title>http://purl.org/dj/python/lib/144966264&#45;&gt;http://purl.org/dj/kaggle/depression&#45;on&#45;twitter</title>
<path fill="none" stroke="black" d="M1235.45,-87.77C1211.14,-76.4 1176.77,-61.88 1145,-54 1090.89,-40.58 1030.84,-32.29 976.03,-27.16"/>
<polygon fill="black" stroke="black" points="976.14,-23.66 965.86,-26.24 975.51,-30.63 976.14,-23.66"/>
<text text-anchor="middle" x="1229.5" y="-57.8" font-family="Times,serif" font-size="14.00">importedBy ()</text>
</g>
<!-- http://purl.org/dj/kaggle/depression&#45;on&#45;twitter#80085334 -->
<g id="node8" class="node">
<title>http://purl.org/dj/kaggle/depression&#45;on&#45;twitter#80085334</title>
<ellipse fill="none" stroke="black" cx="1405" cy="-213" rx="99.38" ry="18"/>
<text text-anchor="middle" x="1405" y="-209.3" font-family="Times,serif" font-size="14.00">80085334 (pd(0): Reuse)</text>
</g>
<!-- http://purl.org/dj/kaggle/depression&#45;on&#45;twitter#80085334&#45;&gt;http://purl.org/dj/kaggle/depression&#45;on&#45;twitter -->
<g id="edge10" class="edge">
<title>http://purl.org/dj/kaggle/depression&#45;on&#45;twitter#80085334&#45;&gt;http://purl.org/dj/kaggle/depression&#45;on&#45;twitter</title>
<path fill="none" stroke="black" d="M1407.7,-194.68C1410.79,-168.12 1412.45,-117.23 1386,-87 1351.55,-47.62 1324.49,-63.3 1273,-54 1180.26,-37.25 1075.99,-28.47 988.64,-23.89"/>
<polygon fill="black" stroke="black" points="988.79,-20.39 978.62,-23.38 988.43,-27.38 988.79,-20.39"/>
<text text-anchor="middle" x="1436" y="-101.3" font-family="Times,serif" font-size="14.00">appearsIn ()</text>
</g>
<!-- http://purl.org/dj/kaggle/depression&#45;on&#45;twitter#80085334&#45;&gt;http://purl.org/dj/python/lib/144966264 -->
<g id="edge11" class="edge">
<title>http://purl.org/dj/kaggle/depression&#45;on&#45;twitter#80085334&#45;&gt;http://purl.org/dj/python/lib/144966264</title>
<path fill="none" stroke="black" d="M1340.41,-199.24C1326.23,-194.12 1312.14,-186.97 1301,-177 1288.08,-165.43 1279.84,-147.77 1274.83,-132.95"/>
<polygon fill="black" stroke="black" points="1278.13,-131.79 1271.85,-123.26 1271.44,-133.84 1278.13,-131.79"/>
<text text-anchor="middle" x="1346" y="-155.3" font-family="Times,serif" font-size="14.00">assignedFrom ()</text>
</g>
<!-- http://purl.org/dj/kaggle/depression&#45;on&#45;twitter#417399731 -->
<g id="node9" class="node">
<title>http://purl.org/dj/kaggle/depression&#45;on&#45;twitter#417399731</title>
<ellipse fill="none" stroke="black" cx="548" cy="-495" rx="147.57" ry="18"/>
<text text-anchor="middle" x="548" y="-491.3" font-family="Times,serif" font-size="14.00">417399731 (print[15/8]: Visualisation)</text>
</g>
<!-- http://purl.org/dj/kaggle/depression&#45;on&#45;twitter#417399731&#45;&gt;http://purl.org/dj/kaggle/depression&#45;on&#45;twitter#83689828 -->
<g id="edge13" class="edge">
<title>http://purl.org/dj/kaggle/depression&#45;on&#45;twitter#417399731&#45;&gt;http://purl.org/dj/kaggle/depression&#45;on&#45;twitter#83689828</title>
<path fill="none" stroke="black" d="M543.75,-476.87C534.24,-434.42 515.56,-322.46 562,-249 565.42,-243.59 569.98,-238.95 575.1,-234.99"/>
<polygon fill="black" stroke="black" points="577.19,-237.81 583.53,-229.32 573.28,-232 577.19,-237.81"/>
<text text-anchor="middle" x="553.5" y="-350.3" font-family="Times,serif" font-size="14.00">print ()</text>
</g>
<!-- http://purl.org/dj/kaggle/depression&#45;on&#45;twitter#417399731&#45;&gt;http://purl.org/dj/kaggle/depression&#45;on&#45;twitter#427361219 -->
<g id="edge14" class="edge">
<title>http://purl.org/dj/kaggle/depression&#45;on&#45;twitter#417399731&#45;&gt;http://purl.org/dj/kaggle/depression&#45;on&#45;twitter#427361219</title>
<path fill="none" stroke="black" d="M479,-479C410,-464 304.18,-440.99 232.86,-425.49"/>
<polygon fill="black" stroke="black" points="233.55,-422.06 223.03,-423.36 232.06,-428.9 233.55,-422.06"/>
<text text-anchor="middle" x="395.5" y="-447.8" font-family="Times,serif" font-size="14.00">print ()</text>
</g>
<!-- http://purl.org/dj/kaggle/depression&#45;on&#45;twitter#355533666 -->
<g id="node10" class="node">
<title>http://purl.org/dj/kaggle/depression&#45;on&#45;twitter#355533666</title>
<ellipse fill="none" stroke="black" cx="700" cy="-300" rx="124.28" ry="18"/>
<text text-anchor="middle" x="700" y="-296.3" font-family="Times,serif" font-size="14.00">355533666 (dirname(0): Reuse)</text>
</g>
<!-- http://purl.org/dj/kaggle/depression&#45;on&#45;twitter#417399731&#45;&gt;http://purl.org/dj/kaggle/depression&#45;on&#45;twitter#355533666 -->
<g id="edge15" class="edge">
<title>http://purl.org/dj/kaggle/depression&#45;on&#45;twitter#417399731&#45;&gt;http://purl.org/dj/kaggle/depression&#45;on&#45;twitter#355533666</title>
<path fill="none" stroke="black" d="M561.49,-476.87C588.42,-442.68 648.94,-365.83 680.31,-326"/>
<polygon fill="black" stroke="black" points="683.1,-328.11 686.54,-318.09 677.6,-323.78 683.1,-328.11"/>
<text text-anchor="middle" x="649.5" y="-404.3" font-family="Times,serif" font-size="14.00">print ()</text>
</g>
<!-- http://purl.org/dj/kaggle/depression&#45;on&#45;twitter#355533666&#45;&gt;http://purl.org/dj/kaggle/depression&#45;on&#45;twitter#820184443 -->
<g id="edge16" class="edge">
<title>http://purl.org/dj/kaggle/depression&#45;on&#45;twitter#355533666&#45;&gt;http://purl.org/dj/kaggle/depression&#45;on&#45;twitter#820184443</title>
<path fill="none" stroke="black" d="M650.24,-283.38C606.84,-269.8 549.12,-251.85 538,-249 511.21,-242.13 481.78,-235.68 455.05,-230.24"/>
<polygon fill="black" stroke="black" points="455.44,-226.75 444.95,-228.21 454.06,-233.61 455.44,-226.75"/>
<text text-anchor="middle" x="619.5" y="-252.8" font-family="Times,serif" font-size="14.00">iteratorOf ()</text>
</g>
<!-- http://purl.org/dj/kaggle/depression&#45;on&#45;twitter#355533666&#45;&gt;http://purl.org/dj/kaggle/depression&#45;on&#45;twitter -->
<g id="edge17" class="edge">
<title>http://purl.org/dj/kaggle/depression&#45;on&#45;twitter#355533666&#45;&gt;http://purl.org/dj/kaggle/depression&#45;on&#45;twitter</title>
<path fill="none" stroke="black" d="M723.68,-282.22C729.51,-277.01 735.17,-270.82 739,-264 778.2,-194.23 751.29,-164.3 772,-87 775.7,-73.21 780.86,-58.21 785.46,-45.81"/>
<polygon fill="black" stroke="black" points="788.87,-46.69 789.13,-36.1 782.32,-44.21 788.87,-46.69"/>
<text text-anchor="middle" x="797" y="-155.3" font-family="Times,serif" font-size="14.00">appearsIn ()</text>
</g>
<!-- http://purl.org/dj/kaggle/depression&#45;on&#45;twitter#355533666&#45;&gt;http://purl.org/dj/kaggle/depression&#45;on&#45;twitter#83689828 -->
<g id="edge18" class="edge">
<title>http://purl.org/dj/kaggle/depression&#45;on&#45;twitter#355533666&#45;&gt;http://purl.org/dj/kaggle/depression&#45;on&#45;twitter#83689828</title>
<path fill="none" stroke="black" d="M685.02,-281.8C674.22,-269.39 659.48,-252.46 647.43,-238.62"/>
<polygon fill="black" stroke="black" points="649.91,-236.13 640.7,-230.89 644.63,-240.73 649.91,-236.13"/>
<text text-anchor="middle" x="701.5" y="-252.8" font-family="Times,serif" font-size="14.00">iteratorOf ()</text>
</g>
<!-- http://purl.org/dj/python/lib/111084090 -->
<g id="node11" class="node">
<title>http://purl.org/dj/python/lib/111084090</title>
<ellipse fill="none" stroke="black" cx="891" cy="-105" rx="109.68" ry="18"/>
<text text-anchor="middle" x="891" y="-101.3" font-family="Times,serif" font-size="14.00">111084090 (numpy: Reuse)</text>
</g>
<!-- http://purl.org/dj/python/lib/111084090&#45;&gt;http://purl.org/dj/kaggle/depression&#45;on&#45;twitter -->
<g id="edge19" class="edge">
<title>http://purl.org/dj/python/lib/111084090&#45;&gt;http://purl.org/dj/kaggle/depression&#45;on&#45;twitter</title>
<path fill="none" stroke="black" d="M872.23,-87.21C858.14,-74.6 838.65,-57.16 822.9,-43.07"/>
<polygon fill="black" stroke="black" points="824.84,-40.11 815.06,-36.05 820.17,-45.33 824.84,-40.11"/>
<text text-anchor="middle" x="889.5" y="-57.8" font-family="Times,serif" font-size="14.00">importedBy ()</text>
</g>
<!-- http://purl.org/dj/kaggle/depression&#45;on&#45;twitter#82575712 -->
<g id="node12" class="node">
<title>http://purl.org/dj/kaggle/depression&#45;on&#45;twitter#82575712</title>
<ellipse fill="none" stroke="black" cx="964" cy="-213" rx="99.38" ry="18"/>
<text text-anchor="middle" x="964" y="-209.3" font-family="Times,serif" font-size="14.00">82575712 (np(0): Reuse)</text>
</g>
<!-- http://purl.org/dj/kaggle/depression&#45;on&#45;twitter#82575712&#45;&gt;http://purl.org/dj/kaggle/depression&#45;on&#45;twitter -->
<g id="edge20" class="edge">
<title>http://purl.org/dj/kaggle/depression&#45;on&#45;twitter#82575712&#45;&gt;http://purl.org/dj/kaggle/depression&#45;on&#45;twitter</title>
<path fill="none" stroke="black" d="M1003.54,-196.28C1011.32,-191.31 1018.46,-184.97 1023,-177 1043,-141.88 1036.07,-117.88 1010,-87 988.24,-61.22 956.73,-45.1 924.56,-35.05"/>
<polygon fill="black" stroke="black" points="925.14,-31.57 914.56,-32.12 923.17,-38.29 925.14,-31.57"/>
<text text-anchor="middle" x="1065" y="-101.3" font-family="Times,serif" font-size="14.00">appearsIn ()</text>
</g>
<!-- http://purl.org/dj/kaggle/depression&#45;on&#45;twitter#82575712&#45;&gt;http://purl.org/dj/python/lib/111084090 -->
<g id="edge21" class="edge">
<title>http://purl.org/dj/kaggle/depression&#45;on&#45;twitter#82575712&#45;&gt;http://purl.org/dj/python/lib/111084090</title>
<path fill="none" stroke="black" d="M947.87,-195.1C942.87,-189.52 937.49,-183.17 933,-177 922.66,-162.8 912.58,-145.9 904.89,-132.15"/>
<polygon fill="black" stroke="black" points="907.86,-130.29 899.97,-123.21 901.73,-133.66 907.86,-130.29"/>
<text text-anchor="middle" x="978" y="-155.3" font-family="Times,serif" font-size="14.00">assignedFrom ()</text>
</g>
<!-- http://purl.org/dj/kaggle/depression&#45;on&#45;twitter#42008801 -->
<g id="node13" class="node">
<title>http://purl.org/dj/kaggle/depression&#45;on&#45;twitter#42008801</title>
<ellipse fill="none" stroke="black" cx="399" cy="-300" rx="94.78" ry="18"/>
<text text-anchor="middle" x="399" y="-296.3" font-family="Times,serif" font-size="14.00">42008801 (_(0): Reuse)</text>
</g>
<!-- http://purl.org/dj/kaggle/depression&#45;on&#45;twitter#42008801&#45;&gt;http://purl.org/dj/kaggle/depression&#45;on&#45;twitter#820184443 -->
<g id="edge22" class="edge">
<title>http://purl.org/dj/kaggle/depression&#45;on&#45;twitter#42008801&#45;&gt;http://purl.org/dj/kaggle/depression&#45;on&#45;twitter#820184443</title>
<path fill="none" stroke="black" d="M322.63,-289.28C308.7,-283.98 295.81,-275.98 287,-264 277.92,-251.65 286.05,-241.69 300.12,-234"/>
<polygon fill="black" stroke="black" points="302.02,-236.97 309.54,-229.51 299.01,-230.65 302.02,-236.97"/>
<text text-anchor="middle" x="320.5" y="-252.8" font-family="Times,serif" font-size="14.00">iteratorOf ()</text>
</g>
<!-- http://purl.org/dj/kaggle/depression&#45;on&#45;twitter#42008801&#45;&gt;http://purl.org/dj/kaggle/depression&#45;on&#45;twitter -->
<g id="edge23" class="edge">
<title>http://purl.org/dj/kaggle/depression&#45;on&#45;twitter#42008801&#45;&gt;http://purl.org/dj/kaggle/depression&#45;on&#45;twitter</title>
<path fill="none" stroke="black" d="M329,-287.84C267.66,-274.43 191.92,-246.94 217,-195 260.88,-104.12 301.15,-91.11 395,-54 433.76,-38.68 523.45,-30.03 608.2,-25.17"/>
<polygon fill="black" stroke="black" points="608.45,-28.66 618.24,-24.61 608.06,-21.68 608.45,-28.66"/>
<text text-anchor="middle" x="282" y="-155.3" font-family="Times,serif" font-size="14.00">appearsIn ()</text>
</g>
<!-- http://purl.org/dj/kaggle/depression&#45;on&#45;twitter#42008801&#45;&gt;http://purl.org/dj/kaggle/depression&#45;on&#45;twitter#83689828 -->
<g id="edge24" class="edge">
<title>http://purl.org/dj/kaggle/depression&#45;on&#45;twitter#42008801&#45;&gt;http://purl.org/dj/kaggle/depression&#45;on&#45;twitter#83689828</title>
<path fill="none" stroke="black" d="M420.69,-282.35C438.6,-268.72 461.89,-251.31 467,-249 489.4,-238.85 514.94,-231.56 538.9,-226.35"/>
<polygon fill="black" stroke="black" points="539.63,-229.78 548.71,-224.32 538.2,-222.92 539.63,-229.78"/>
<text text-anchor="middle" x="500.5" y="-252.8" font-family="Times,serif" font-size="14.00">iteratorOf ()</text>
</g>
<!-- http://purl.org/dj/kaggle/depression&#45;on&#45;twitter#325321464 -->
<g id="node14" class="node">
<title>http://purl.org/dj/kaggle/depression&#45;on&#45;twitter#325321464</title>
<ellipse fill="none" stroke="black" cx="1538" cy="-159" rx="118.08" ry="18"/>
<text text-anchor="middle" x="1538" y="-155.3" font-family="Times,serif" font-size="14.00">325321464 (latin&#45;1(0): Reuse)</text>
</g>
<!-- http://purl.org/dj/kaggle/depression&#45;on&#45;twitter#325321464&#45;&gt;http://purl.org/dj/kaggle/depression&#45;on&#45;twitter -->
<g id="edge25" class="edge">
<title>http://purl.org/dj/kaggle/depression&#45;on&#45;twitter#325321464&#45;&gt;http://purl.org/dj/kaggle/depression&#45;on&#45;twitter</title>
<path fill="none" stroke="black" d="M1527.54,-141.03C1517.47,-125.63 1501.14,-102.97 1483,-87 1461.32,-67.91 1454.65,-62.37 1427,-54 1349.29,-30.48 1150.53,-22.45 996.66,-19.87"/>
<polygon fill="black" stroke="black" points="996.65,-16.37 986.6,-19.71 996.54,-23.37 996.65,-16.37"/>
<text text-anchor="middle" x="1547" y="-101.3" font-family="Times,serif" font-size="14.00">appearsIn ()</text>
</g>
<!-- http://purl.org/dj/kaggle/depression&#45;on&#45;twitter#45809891 -->
<g id="node15" class="node">
<title>http://purl.org/dj/kaggle/depression&#45;on&#45;twitter#45809891</title>
<ellipse fill="none" stroke="black" cx="1141" cy="-354" rx="99.38" ry="18"/>
<text text-anchor="middle" x="1141" y="-350.3" font-family="Times,serif" font-size="14.00">45809891 (10(0): Reuse)</text>
</g>
<!-- http://purl.org/dj/kaggle/depression&#45;on&#45;twitter#45809891&#45;&gt;http://purl.org/dj/kaggle/depression&#45;on&#45;twitter -->
<g id="edge26" class="edge">
<title>http://purl.org/dj/kaggle/depression&#45;on&#45;twitter#45809891&#45;&gt;http://purl.org/dj/kaggle/depression&#45;on&#45;twitter</title>
<path fill="none" stroke="black" d="M1138.11,-335.8C1135.15,-316.73 1131,-285.01 1131,-257.5 1131,-257.5 1131,-257.5 1131,-104 1131,-63.7 1038.77,-42.29 951.1,-31.04"/>
<polygon fill="black" stroke="black" points="951.34,-27.55 940.99,-29.79 950.48,-34.49 951.34,-27.55"/>
<text text-anchor="middle" x="1164" y="-209.3" font-family="Times,serif" font-size="14.00">appearsIn ()</text>
</g>
<!-- http://purl.org/dj/kaggle/depression&#45;on&#45;twitter#243401328 -->
<g id="node16" class="node">
<title>http://purl.org/dj/kaggle/depression&#45;on&#45;twitter#243401328</title>
<ellipse fill="none" stroke="black" cx="1500" cy="-300" rx="135.68" ry="18"/>
<text text-anchor="middle" x="1500" y="-296.3" font-family="Times,serif" font-size="14.00">243401328 (data(0)$0: Movement)</text>
</g>
<!-- http://purl.org/dj/kaggle/depression&#45;on&#45;twitter#243401328&#45;&gt;http://purl.org/dj/kaggle/depression&#45;on&#45;twitter#80085334 -->
<g id="edge27" class="edge">
<title>http://purl.org/dj/kaggle/depression&#45;on&#45;twitter#243401328&#45;&gt;http://purl.org/dj/kaggle/depression&#45;on&#45;twitter#80085334</title>
<path fill="none" stroke="black" d="M1474.9,-282.04C1467.31,-276.57 1459.11,-270.28 1452,-264 1443.11,-256.15 1434.03,-246.85 1426.25,-238.41"/>
<polygon fill="black" stroke="black" points="1428.82,-236.03 1419.51,-230.97 1423.63,-240.73 1428.82,-236.03"/>
<text text-anchor="middle" x="1482.5" y="-252.8" font-family="Times,serif" font-size="14.00">read_csv ()</text>
</g>
<!-- http://purl.org/dj/kaggle/depression&#45;on&#45;twitter#243401328&#45;&gt;http://purl.org/dj/kaggle/depression&#45;on&#45;twitter#325321464 -->
<g id="edge28" class="edge">
<title>http://purl.org/dj/kaggle/depression&#45;on&#45;twitter#243401328&#45;&gt;http://purl.org/dj/kaggle/depression&#45;on&#45;twitter#325321464</title>
<path fill="none" stroke="black" d="M1506.9,-281.69C1509,-276.1 1511.22,-269.83 1513,-264 1520.87,-238.17 1527.87,-208.12 1532.44,-186.99"/>
<polygon fill="black" stroke="black" points="1535.89,-187.61 1534.55,-177.1 1529.04,-186.15 1535.89,-187.61"/>
<text text-anchor="middle" x="1547.5" y="-252.8" font-family="Times,serif" font-size="14.00">read_csv ()</text>
</g>
<!-- http://purl.org/dj/kaggle/depression&#45;on&#45;twitter#2453018879 -->
<g id="node17" class="node">
<title>http://purl.org/dj/kaggle/depression&#45;on&#45;twitter#2453018879</title>
<ellipse fill="none" stroke="black" cx="2016" cy="-159" rx="354.44" ry="18"/>
<text text-anchor="middle" x="2016" y="-155.3" font-family="Times,serif" font-size="14.00">2453018879 (/kaggle/input/sentiment140/training.1600000.processed.noemoticon.csv(0): Reuse)</text>
</g>
<!-- http://purl.org/dj/kaggle/depression&#45;on&#45;twitter#243401328&#45;&gt;http://purl.org/dj/kaggle/depression&#45;on&#45;twitter#2453018879 -->
<g id="edge29" class="edge">
<title>http://purl.org/dj/kaggle/depression&#45;on&#45;twitter#243401328&#45;&gt;http://purl.org/dj/kaggle/depression&#45;on&#45;twitter#2453018879</title>
<path fill="none" stroke="black" d="M1557.19,-283.59C1651.75,-258.12 1840.5,-207.28 1944,-179.4"/>
<polygon fill="black" stroke="black" points="1945,-182.75 1953.74,-176.77 1943.18,-175.99 1945,-182.75"/>
<text text-anchor="middle" x="1711.5" y="-252.8" font-family="Times,serif" font-size="14.00">read_csv ()</text>
</g>
<!-- http://purl.org/dj/kaggle/depression&#45;on&#45;twitter#2453018879&#45;&gt;http://purl.org/dj/kaggle/depression&#45;on&#45;twitter -->
<g id="edge30" class="edge">
<title>http://purl.org/dj/kaggle/depression&#45;on&#45;twitter#2453018879&#45;&gt;http://purl.org/dj/kaggle/depression&#45;on&#45;twitter</title>
<path fill="none" stroke="black" d="M1943.22,-141.3C1836.99,-117.64 1632.95,-74.93 1457,-54 1301.3,-35.47 1123.8,-26.75 991.96,-22.65"/>
<polygon fill="black" stroke="black" points="991.86,-19.14 981.75,-22.34 991.64,-26.14 991.86,-19.14"/>
<text text-anchor="middle" x="1890" y="-101.3" font-family="Times,serif" font-size="14.00">appearsIn ()</text>
</g>
<!-- http://purl.org/dj/kaggle/depression&#45;on&#45;twitter#243532402 -->
<g id="node18" class="node">
<title>http://purl.org/dj/kaggle/depression&#45;on&#45;twitter#243532402</title>
<ellipse fill="none" stroke="black" cx="1218" cy="-495" rx="137.58" ry="18"/>
<text text-anchor="middle" x="1218" y="-491.3" font-family="Times,serif" font-size="14.00">243532402 (data(0)$2: Preparation)</text>
</g>
<!-- http://purl.org/dj/kaggle/depression&#45;on&#45;twitter#243532402&#45;&gt;http://purl.org/dj/kaggle/depression&#45;on&#45;twitter#45809891 -->
<g id="edge31" class="edge">
<title>http://purl.org/dj/kaggle/depression&#45;on&#45;twitter#243532402&#45;&gt;http://purl.org/dj/kaggle/depression&#45;on&#45;twitter#45809891</title>
<path fill="none" stroke="black" d="M1208.56,-476.96C1195.28,-452.99 1170.98,-409.12 1155.43,-381.05"/>
<polygon fill="black" stroke="black" points="1158.43,-379.24 1150.52,-372.18 1152.3,-382.63 1158.43,-379.24"/>
<text text-anchor="middle" x="1217.5" y="-447.8" font-family="Times,serif" font-size="14.00">head ()</text>
</g>
<!-- http://purl.org/dj/kaggle/depression&#45;on&#45;twitter#243466865 -->
<g id="node19" class="node">
<title>http://purl.org/dj/kaggle/depression&#45;on&#45;twitter#243466865</title>
<ellipse fill="none" stroke="black" cx="1381" cy="-408" rx="137.58" ry="18"/>
<text text-anchor="middle" x="1381" y="-404.3" font-family="Times,serif" font-size="14.00">243466865 (data(0)$1: Preparation)</text>
</g>
<!-- http://purl.org/dj/kaggle/depression&#45;on&#45;twitter#243532402&#45;&gt;http://purl.org/dj/kaggle/depression&#45;on&#45;twitter#243466865 -->
<g id="edge32" class="edge">
<title>http://purl.org/dj/kaggle/depression&#45;on&#45;twitter#243532402&#45;&gt;http://purl.org/dj/kaggle/depression&#45;on&#45;twitter#243466865</title>
<path fill="none" stroke="black" d="M1249.81,-477.41C1275.62,-463.95 1312.17,-444.89 1340.14,-430.31"/>
<polygon fill="black" stroke="black" points="1342.02,-433.28 1349.27,-425.55 1338.78,-427.07 1342.02,-433.28"/>
<text text-anchor="middle" x="1328.5" y="-447.8" font-family="Times,serif" font-size="14.00">head ()</text>
</g>
<!-- http://purl.org/dj/kaggle/depression&#45;on&#45;twitter#243466865&#45;&gt;http://purl.org/dj/kaggle/depression&#45;on&#45;twitter#243401328 -->
<g id="edge33" class="edge">
<title>http://purl.org/dj/kaggle/depression&#45;on&#45;twitter#243466865&#45;&gt;http://purl.org/dj/kaggle/depression&#45;on&#45;twitter#243401328</title>
<path fill="none" stroke="black" d="M1400.12,-389.97C1419.9,-372.35 1450.95,-344.7 1473.17,-324.89"/>
<polygon fill="black" stroke="black" points="1475.79,-327.25 1480.93,-317.99 1471.13,-322.03 1475.79,-327.25"/>
<text text-anchor="middle" x="1477.5" y="-350.3" font-family="Times,serif" font-size="14.00">head ()</text>
</g>
</g>
</svg>
