<?xml version="1.0" encoding="UTF-8" standalone="no"?>
<!DOCTYPE svg PUBLIC "-//W3C//DTD SVG 1.1//EN"
 "http://www.w3.org/Graphics/SVG/1.1/DTD/svg11.dtd">
<!-- Generated by graphviz version 2.44.1 (20200629.0846)
 -->
<!-- Pages: 1 -->
<svg width="2421pt" height="521pt"
 viewBox="0.00 0.00 2421.01 521.00" xmlns="http://www.w3.org/2000/svg" xmlns:xlink="http://www.w3.org/1999/xlink">
<g id="graph0" class="graph" transform="scale(1 1) rotate(0) translate(4 517)">
<polygon fill="white" stroke="transparent" points="-4,4 -4,-517 2417.01,-517 2417.01,4 -4,4"/>
<!-- http://purl.org/dj/kaggle/depression&#45;on&#45;twitter#243401328 -->
<g id="node1" class="node">
<title>http://purl.org/dj/kaggle/depression&#45;on&#45;twitter#243401328</title>
<ellipse fill="none" stroke="black" cx="823.22" cy="-300" rx="135.68" ry="18"/>
<text text-anchor="middle" x="823.22" y="-296.3" font-family="Times,serif" font-size="14.00">243401328 (data(0)$0: Movement)</text>
</g>
<!-- http://purl.org/dj/kaggle/depression&#45;on&#45;twitter#2453018879 -->
<g id="node2" class="node">
<title>http://purl.org/dj/kaggle/depression&#45;on&#45;twitter#2453018879</title>
<ellipse fill="none" stroke="black" cx="354.22" cy="-159" rx="354.44" ry="18"/>
<text text-anchor="middle" x="354.22" y="-155.3" font-family="Times,serif" font-size="14.00">2453018879 (/kaggle/input/sentiment140/training.1600000.processed.noemoticon.csv(0): Reuse)</text>
</g>
<!-- http://purl.org/dj/kaggle/depression&#45;on&#45;twitter#243401328&#45;&gt;http://purl.org/dj/kaggle/depression&#45;on&#45;twitter#2453018879 -->
<g id="edge1" class="edge">
<title>http://purl.org/dj/kaggle/depression&#45;on&#45;twitter#243401328&#45;&gt;http://purl.org/dj/kaggle/depression&#45;on&#45;twitter#2453018879</title>
<path fill="none" stroke="black" d="M770.33,-283.33C684.37,-257.85 514.54,-207.52 420.6,-179.67"/>
<polygon fill="black" stroke="black" points="421.5,-176.29 410.92,-176.8 419.51,-183 421.5,-176.29"/>
<text text-anchor="middle" x="750.72" y="-252.8" font-family="Times,serif" font-size="14.00">previousActivity</text>
</g>
<!-- http://purl.org/dj/kaggle/depression&#45;on&#45;twitter#80085334 -->
<g id="node3" class="node">
<title>http://purl.org/dj/kaggle/depression&#45;on&#45;twitter#80085334</title>
<ellipse fill="none" stroke="black" cx="818.22" cy="-213" rx="124.28" ry="18"/>
<text text-anchor="middle" x="818.22" y="-209.3" font-family="Times,serif" font-size="14.00">80085334 (pd(0): Visualisation)</text>
</g>
<!-- http://purl.org/dj/kaggle/depression&#45;on&#45;twitter#243401328&#45;&gt;http://purl.org/dj/kaggle/depression&#45;on&#45;twitter#80085334 -->
<g id="edge2" class="edge">
<title>http://purl.org/dj/kaggle/depression&#45;on&#45;twitter#243401328&#45;&gt;http://purl.org/dj/kaggle/depression&#45;on&#45;twitter#80085334</title>
<path fill="none" stroke="black" d="M822.21,-281.8C821.52,-270.16 820.6,-254.55 819.82,-241.24"/>
<polygon fill="black" stroke="black" points="823.31,-240.95 819.23,-231.18 816.32,-241.36 823.31,-240.95"/>
<text text-anchor="middle" x="845.72" y="-252.8" font-family="Times,serif" font-size="14.00">read_csv</text>
</g>
<!-- http://purl.org/dj/kaggle/depression&#45;on&#45;twitter#325321464 -->
<g id="node4" class="node">
<title>http://purl.org/dj/kaggle/depression&#45;on&#45;twitter#325321464</title>
<ellipse fill="none" stroke="black" cx="970.22" cy="-159" rx="118.08" ry="18"/>
<text text-anchor="middle" x="970.22" y="-155.3" font-family="Times,serif" font-size="14.00">325321464 (latin&#45;1(0): Reuse)</text>
</g>
<!-- http://purl.org/dj/kaggle/depression&#45;on&#45;twitter#243401328&#45;&gt;http://purl.org/dj/kaggle/depression&#45;on&#45;twitter#325321464 -->
<g id="edge3" class="edge">
<title>http://purl.org/dj/kaggle/depression&#45;on&#45;twitter#243401328&#45;&gt;http://purl.org/dj/kaggle/depression&#45;on&#45;twitter#325321464</title>
<path fill="none" stroke="black" d="M873.77,-283.27C900.41,-272.54 931.56,-255.71 951.22,-231 961.03,-218.67 965.8,-201.71 968.1,-187.45"/>
<polygon fill="black" stroke="black" points="971.62,-187.57 969.43,-177.21 964.67,-186.67 971.62,-187.57"/>
<text text-anchor="middle" x="955.72" y="-252.8" font-family="Times,serif" font-size="14.00">read_csv</text>
</g>
<!-- http://purl.org/dj/kaggle/depression&#45;on&#45;twitter -->
<g id="node5" class="node">
<title>http://purl.org/dj/kaggle/depression&#45;on&#45;twitter</title>
<ellipse fill="none" stroke="black" cx="1414.22" cy="-18" rx="85.59" ry="18"/>
<text text-anchor="middle" x="1414.22" y="-14.3" font-family="Times,serif" font-size="14.00">depression&#45;on&#45;twitter</text>
</g>
<!-- http://purl.org/dj/kaggle/depression&#45;on&#45;twitter#2453018879&#45;&gt;http://purl.org/dj/kaggle/depression&#45;on&#45;twitter -->
<g id="edge4" class="edge">
<title>http://purl.org/dj/kaggle/depression&#45;on&#45;twitter#2453018879&#45;&gt;http://purl.org/dj/kaggle/depression&#45;on&#45;twitter</title>
<path fill="none" stroke="black" d="M387.56,-140.95C420.65,-124.73 473.23,-100.8 521.22,-87 610.75,-61.25 635.57,-63.72 728.22,-54 938.3,-31.96 1186.1,-23.66 1318.83,-20.64"/>
<polygon fill="black" stroke="black" points="1319.05,-24.14 1328.97,-20.42 1318.89,-17.14 1319.05,-24.14"/>
<text text-anchor="middle" x="547.72" y="-101.3" font-family="Times,serif" font-size="14.00">appearsIn</text>
</g>
<!-- http://purl.org/dj/kaggle/depression&#45;on&#45;twitter#80085334&#45;&gt;http://purl.org/dj/kaggle/depression&#45;on&#45;twitter -->
<g id="edge5" class="edge">
<title>http://purl.org/dj/kaggle/depression&#45;on&#45;twitter#80085334&#45;&gt;http://purl.org/dj/kaggle/depression&#45;on&#45;twitter</title>
<path fill="none" stroke="black" d="M823.46,-194.89C828.73,-179.62 837.98,-157.22 851.22,-141 876.74,-109.73 888.25,-105.3 924.22,-87 967.82,-64.82 981.25,-63.6 1029.22,-54 1127,-34.42 1240.97,-25.78 1319.39,-21.98"/>
<polygon fill="black" stroke="black" points="1319.91,-25.46 1329.74,-21.49 1319.58,-18.46 1319.91,-25.46"/>
<text text-anchor="middle" x="950.72" y="-101.3" font-family="Times,serif" font-size="14.00">appearsIn</text>
</g>
<!-- http://purl.org/dj/python/lib/144966264 -->
<g id="node6" class="node">
<title>http://purl.org/dj/python/lib/144966264</title>
<ellipse fill="none" stroke="black" cx="692.22" cy="-105" rx="109.38" ry="18"/>
<text text-anchor="middle" x="692.22" y="-101.3" font-family="Times,serif" font-size="14.00">144966264 (pandas: Reuse)</text>
</g>
<!-- http://purl.org/dj/kaggle/depression&#45;on&#45;twitter#80085334&#45;&gt;http://purl.org/dj/python/lib/144966264 -->
<g id="edge6" class="edge">
<title>http://purl.org/dj/kaggle/depression&#45;on&#45;twitter#80085334&#45;&gt;http://purl.org/dj/python/lib/144966264</title>
<path fill="none" stroke="black" d="M764.54,-196.63C753.02,-191.64 741.53,-185.2 732.22,-177 728.34,-173.58 715.83,-150.89 705.82,-132.06"/>
<polygon fill="black" stroke="black" points="708.78,-130.17 701.02,-122.96 702.59,-133.44 708.78,-130.17"/>
<text text-anchor="middle" x="777.72" y="-155.3" font-family="Times,serif" font-size="14.00">previousActivity</text>
</g>
<!-- http://purl.org/dj/kaggle/depression&#45;on&#45;twitter#325321464&#45;&gt;http://purl.org/dj/kaggle/depression&#45;on&#45;twitter -->
<g id="edge7" class="edge">
<title>http://purl.org/dj/kaggle/depression&#45;on&#45;twitter#325321464&#45;&gt;http://purl.org/dj/kaggle/depression&#45;on&#45;twitter</title>
<path fill="none" stroke="black" d="M974.92,-140.81C980.11,-124.83 989.97,-101.38 1006.22,-87 1038.43,-58.48 1055.32,-63.76 1097.22,-54 1171.44,-36.71 1257.48,-27.89 1321.18,-23.44"/>
<polygon fill="black" stroke="black" points="1321.47,-26.93 1331.21,-22.76 1321,-19.94 1321.47,-26.93"/>
<text text-anchor="middle" x="1051.72" y="-101.3" font-family="Times,serif" font-size="14.00">previousActivity</text>
</g>
<!-- http://purl.org/dj/python/lib/144966264&#45;&gt;http://purl.org/dj/kaggle/depression&#45;on&#45;twitter -->
<g id="edge24" class="edge">
<title>http://purl.org/dj/python/lib/144966264&#45;&gt;http://purl.org/dj/kaggle/depression&#45;on&#45;twitter</title>
<path fill="none" stroke="black" d="M708.39,-87.01C720.59,-75.43 738.39,-60.97 757.22,-54 808.43,-35.05 1149.7,-24.88 1319.14,-20.95"/>
<polygon fill="black" stroke="black" points="1319.38,-24.44 1329.3,-20.72 1319.22,-17.45 1319.38,-24.44"/>
<text text-anchor="middle" x="790.22" y="-57.8" font-family="Times,serif" font-size="14.00">importedBy</text>
</g>
<!-- http://purl.org/dj/kaggle/depression&#45;on&#45;twitter#42008801 -->
<g id="node7" class="node">
<title>http://purl.org/dj/kaggle/depression&#45;on&#45;twitter#42008801</title>
<ellipse fill="none" stroke="black" cx="1101.22" cy="-300" rx="120.48" ry="18"/>
<text text-anchor="middle" x="1101.22" y="-296.3" font-family="Times,serif" font-size="14.00">42008801 (_(0): Visualisation)</text>
</g>
<!-- http://purl.org/dj/kaggle/depression&#45;on&#45;twitter#42008801&#45;&gt;http://purl.org/dj/kaggle/depression&#45;on&#45;twitter -->
<g id="edge8" class="edge">
<title>http://purl.org/dj/kaggle/depression&#45;on&#45;twitter#42008801&#45;&gt;http://purl.org/dj/kaggle/depression&#45;on&#45;twitter</title>
<path fill="none" stroke="black" d="M1098.03,-281.79C1091.78,-242.32 1082.38,-144.33 1130.22,-87 1155.47,-56.75 1254.76,-38.16 1328.87,-28.23"/>
<polygon fill="black" stroke="black" points="1329.68,-31.65 1339.15,-26.89 1328.78,-24.71 1329.68,-31.65"/>
<text text-anchor="middle" x="1128.72" y="-155.3" font-family="Times,serif" font-size="14.00">appearsIn</text>
</g>
<!-- http://purl.org/dj/kaggle/depression&#45;on&#45;twitter#820184443 -->
<g id="node8" class="node">
<title>http://purl.org/dj/kaggle/depression&#45;on&#45;twitter#820184443</title>
<ellipse fill="none" stroke="black" cx="1535.22" cy="-213" rx="141.88" ry="18"/>
<text text-anchor="middle" x="1535.22" y="-209.3" font-family="Times,serif" font-size="14.00">820184443 (/kaggle/input(0): Reuse)</text>
</g>
<!-- http://purl.org/dj/kaggle/depression&#45;on&#45;twitter#42008801&#45;&gt;http://purl.org/dj/kaggle/depression&#45;on&#45;twitter#820184443 -->
<g id="edge9" class="edge">
<title>http://purl.org/dj/kaggle/depression&#45;on&#45;twitter#42008801&#45;&gt;http://purl.org/dj/kaggle/depression&#45;on&#45;twitter#820184443</title>
<path fill="none" stroke="black" d="M1185.74,-287.15C1200.87,-285.25 1216.49,-283.45 1231.22,-282 1261.47,-279.03 1478.16,-279.65 1504.22,-264 1513.19,-258.61 1519.94,-249.53 1524.82,-240.58"/>
<polygon fill="black" stroke="black" points="1528.03,-241.98 1529.23,-231.45 1521.73,-238.93 1528.03,-241.98"/>
<text text-anchor="middle" x="1563.72" y="-252.8" font-family="Times,serif" font-size="14.00">previousActivity</text>
</g>
<!-- http://purl.org/dj/kaggle/depression&#45;on&#45;twitter#83689828 -->
<g id="node9" class="node">
<title>http://purl.org/dj/kaggle/depression&#45;on&#45;twitter#83689828</title>
<ellipse fill="none" stroke="black" cx="1252.22" cy="-213" rx="123.48" ry="18"/>
<text text-anchor="middle" x="1252.22" y="-209.3" font-family="Times,serif" font-size="14.00">83689828 (os(0): Visualisation)</text>
</g>
<!-- http://purl.org/dj/kaggle/depression&#45;on&#45;twitter#42008801&#45;&gt;http://purl.org/dj/kaggle/depression&#45;on&#45;twitter#83689828 -->
<g id="edge10" class="edge">
<title>http://purl.org/dj/kaggle/depression&#45;on&#45;twitter#42008801&#45;&gt;http://purl.org/dj/kaggle/depression&#45;on&#45;twitter#83689828</title>
<path fill="none" stroke="black" d="M1130.69,-282.41C1154.49,-269.01 1188.16,-250.06 1214.03,-235.5"/>
<polygon fill="black" stroke="black" points="1215.82,-238.5 1222.82,-230.55 1212.39,-232.4 1215.82,-238.5"/>
<text text-anchor="middle" x="1212.22" y="-252.8" font-family="Times,serif" font-size="14.00">iteratorOf</text>
</g>
<!-- http://purl.org/dj/kaggle/depression&#45;on&#45;twitter#820184443&#45;&gt;http://purl.org/dj/kaggle/depression&#45;on&#45;twitter -->
<g id="edge11" class="edge">
<title>http://purl.org/dj/kaggle/depression&#45;on&#45;twitter#820184443&#45;&gt;http://purl.org/dj/kaggle/depression&#45;on&#45;twitter</title>
<path fill="none" stroke="black" d="M1524.48,-194.87C1503.18,-160.89 1455.47,-84.79 1430.36,-44.75"/>
<polygon fill="black" stroke="black" points="1433.21,-42.7 1424.93,-36.09 1427.28,-46.42 1433.21,-42.7"/>
<text text-anchor="middle" x="1523.72" y="-101.3" font-family="Times,serif" font-size="14.00">previousActivity</text>
</g>
<!-- http://purl.org/dj/kaggle/depression&#45;on&#45;twitter#83689828&#45;&gt;http://purl.org/dj/kaggle/depression&#45;on&#45;twitter -->
<g id="edge12" class="edge">
<title>http://purl.org/dj/kaggle/depression&#45;on&#45;twitter#83689828&#45;&gt;http://purl.org/dj/kaggle/depression&#45;on&#45;twitter</title>
<path fill="none" stroke="black" d="M1297.37,-196.13C1307.11,-191.14 1316.72,-184.83 1324.22,-177 1354.37,-145.51 1341.32,-124.7 1363.22,-87 1371.95,-71.97 1383.45,-56.37 1393.31,-43.91"/>
<polygon fill="black" stroke="black" points="1396.28,-45.81 1399.83,-35.83 1390.83,-41.42 1396.28,-45.81"/>
<text text-anchor="middle" x="1408.72" y="-101.3" font-family="Times,serif" font-size="14.00">previousActivity</text>
</g>
<!-- http://purl.org/dj/python/lib/22216931 -->
<g id="node10" class="node">
<title>http://purl.org/dj/python/lib/22216931</title>
<ellipse fill="none" stroke="black" cx="1227.22" cy="-105" rx="88.28" ry="18"/>
<text text-anchor="middle" x="1227.22" y="-101.3" font-family="Times,serif" font-size="14.00">22216931 (os: Reuse)</text>
</g>
<!-- http://purl.org/dj/kaggle/depression&#45;on&#45;twitter#83689828&#45;&gt;http://purl.org/dj/python/lib/22216931 -->
<g id="edge13" class="edge">
<title>http://purl.org/dj/kaggle/depression&#45;on&#45;twitter#83689828&#45;&gt;http://purl.org/dj/python/lib/22216931</title>
<path fill="none" stroke="black" d="M1248.2,-194.97C1244.25,-178.2 1238.15,-152.34 1233.54,-132.81"/>
<polygon fill="black" stroke="black" points="1236.93,-131.92 1231.23,-122.99 1230.11,-133.52 1236.93,-131.92"/>
<text text-anchor="middle" x="1281.72" y="-155.3" font-family="Times,serif" font-size="14.00">assignedFrom</text>
</g>
<!-- http://purl.org/dj/python/lib/22216931&#45;&gt;http://purl.org/dj/kaggle/depression&#45;on&#45;twitter -->
<g id="edge18" class="edge">
<title>http://purl.org/dj/python/lib/22216931&#45;&gt;http://purl.org/dj/kaggle/depression&#45;on&#45;twitter</title>
<path fill="none" stroke="black" d="M1229.5,-86.75C1231.85,-75.8 1236.61,-62.2 1246.22,-54 1259.42,-42.73 1295.42,-34.47 1330.73,-28.81"/>
<polygon fill="black" stroke="black" points="1331.3,-32.26 1340.65,-27.28 1330.23,-25.34 1331.3,-32.26"/>
<text text-anchor="middle" x="1291.72" y="-57.8" font-family="Times,serif" font-size="14.00">previousActivity</text>
</g>
<!-- http://purl.org/dj/python/lib/111084090 -->
<g id="node11" class="node">
<title>http://purl.org/dj/python/lib/111084090</title>
<ellipse fill="none" stroke="black" cx="1697.22" cy="-105" rx="109.68" ry="18"/>
<text text-anchor="middle" x="1697.22" y="-101.3" font-family="Times,serif" font-size="14.00">111084090 (numpy: Reuse)</text>
</g>
<!-- http://purl.org/dj/python/lib/111084090&#45;&gt;http://purl.org/dj/kaggle/depression&#45;on&#45;twitter -->
<g id="edge14" class="edge">
<title>http://purl.org/dj/python/lib/111084090&#45;&gt;http://purl.org/dj/kaggle/depression&#45;on&#45;twitter</title>
<path fill="none" stroke="black" d="M1646.95,-88.9C1597.56,-74.07 1522.32,-51.47 1470.84,-36.01"/>
<polygon fill="black" stroke="black" points="1471.78,-32.64 1461.2,-33.11 1469.77,-39.34 1471.78,-32.64"/>
<text text-anchor="middle" x="1617.72" y="-57.8" font-family="Times,serif" font-size="14.00">previousActivity</text>
</g>
<!-- http://purl.org/dj/kaggle/depression&#45;on&#45;twitter#355533666 -->
<g id="node12" class="node">
<title>http://purl.org/dj/kaggle/depression&#45;on&#45;twitter#355533666</title>
<ellipse fill="none" stroke="black" cx="1680.22" cy="-300" rx="149.47" ry="18"/>
<text text-anchor="middle" x="1680.22" y="-296.3" font-family="Times,serif" font-size="14.00">355533666 (dirname(0): Visualisation)</text>
</g>
<!-- http://purl.org/dj/kaggle/depression&#45;on&#45;twitter#355533666&#45;&gt;http://purl.org/dj/kaggle/depression&#45;on&#45;twitter -->
<g id="edge15" class="edge">
<title>http://purl.org/dj/kaggle/depression&#45;on&#45;twitter#355533666&#45;&gt;http://purl.org/dj/kaggle/depression&#45;on&#45;twitter</title>
<path fill="none" stroke="black" d="M1786,-287.26C1854.22,-277.09 1933.56,-259.44 1952.22,-231 1963.47,-213.85 1945.05,-103.8 1928.22,-87 1871.2,-30.11 1642.71,-19.53 1510.35,-18.31"/>
<polygon fill="black" stroke="black" points="1510.24,-14.81 1500.21,-18.23 1510.18,-21.81 1510.24,-14.81"/>
<text text-anchor="middle" x="1979.72" y="-155.3" font-family="Times,serif" font-size="14.00">appearsIn</text>
</g>
<!-- http://purl.org/dj/kaggle/depression&#45;on&#45;twitter#355533666&#45;&gt;http://purl.org/dj/kaggle/depression&#45;on&#45;twitter#820184443 -->
<g id="edge16" class="edge">
<title>http://purl.org/dj/kaggle/depression&#45;on&#45;twitter#355533666&#45;&gt;http://purl.org/dj/kaggle/depression&#45;on&#45;twitter#820184443</title>
<path fill="none" stroke="black" d="M1663.28,-282.11C1652.05,-271.59 1636.61,-258.32 1621.22,-249 1612.13,-243.49 1602.02,-238.5 1592.01,-234.12"/>
<polygon fill="black" stroke="black" points="1593.07,-230.77 1582.49,-230.12 1590.35,-237.22 1593.07,-230.77"/>
<text text-anchor="middle" x="1668.22" y="-252.8" font-family="Times,serif" font-size="14.00">iteratorOf</text>
</g>
<!-- http://purl.org/dj/kaggle/depression&#45;on&#45;twitter#355533666&#45;&gt;http://purl.org/dj/kaggle/depression&#45;on&#45;twitter#83689828 -->
<g id="edge17" class="edge">
<title>http://purl.org/dj/kaggle/depression&#45;on&#45;twitter#355533666&#45;&gt;http://purl.org/dj/kaggle/depression&#45;on&#45;twitter#83689828</title>
<path fill="none" stroke="black" d="M1582.77,-286.29C1541.7,-280.38 1493.47,-272.73 1450.22,-264 1405.24,-254.92 1355.13,-242.24 1316.57,-231.92"/>
<polygon fill="black" stroke="black" points="1317.09,-228.44 1306.52,-229.22 1315.27,-235.2 1317.09,-228.44"/>
<text text-anchor="middle" x="1477.22" y="-252.8" font-family="Times,serif" font-size="14.00">iteratorOf</text>
</g>
<!-- http://purl.org/dj/kaggle/depression&#45;on&#45;twitter#427361219 -->
<g id="node13" class="node">
<title>http://purl.org/dj/kaggle/depression&#45;on&#45;twitter#427361219</title>
<ellipse fill="none" stroke="black" cx="2262.22" cy="-408" rx="150.57" ry="18"/>
<text text-anchor="middle" x="2262.22" y="-404.3" font-family="Times,serif" font-size="14.00">427361219 (filename(0): Visualisation)</text>
</g>
<!-- http://purl.org/dj/kaggle/depression&#45;on&#45;twitter#427361219&#45;&gt;http://purl.org/dj/kaggle/depression&#45;on&#45;twitter -->
<g id="edge19" class="edge">
<title>http://purl.org/dj/kaggle/depression&#45;on&#45;twitter#427361219&#45;&gt;http://purl.org/dj/kaggle/depression&#45;on&#45;twitter</title>
<path fill="none" stroke="black" d="M2277.82,-390.08C2294.39,-370.28 2318.22,-335.76 2318.22,-301 2318.22,-301 2318.22,-301 2318.22,-104 2318.22,-23.52 1742.96,-17.35 1510.23,-18.15"/>
<polygon fill="black" stroke="black" points="1510.07,-14.65 1500.08,-18.19 1510.09,-21.65 1510.07,-14.65"/>
<text text-anchor="middle" x="2363.72" y="-209.3" font-family="Times,serif" font-size="14.00">previousActivity</text>
</g>
<!-- http://purl.org/dj/kaggle/depression&#45;on&#45;twitter#512164918 -->
<g id="node14" class="node">
<title>http://purl.org/dj/kaggle/depression&#45;on&#45;twitter#512164918</title>
<ellipse fill="none" stroke="black" cx="2136.22" cy="-300" rx="154.07" ry="18"/>
<text text-anchor="middle" x="2136.22" y="-296.3" font-family="Times,serif" font-size="14.00">512164918 (filenames(0): Visualisation)</text>
</g>
<!-- http://purl.org/dj/kaggle/depression&#45;on&#45;twitter#427361219&#45;&gt;http://purl.org/dj/kaggle/depression&#45;on&#45;twitter#512164918 -->
<g id="edge20" class="edge">
<title>http://purl.org/dj/kaggle/depression&#45;on&#45;twitter#427361219&#45;&gt;http://purl.org/dj/kaggle/depression&#45;on&#45;twitter#512164918</title>
<path fill="none" stroke="black" d="M2241.97,-389.97C2220.94,-372.27 2187.87,-344.45 2164.31,-324.63"/>
<polygon fill="black" stroke="black" points="2166.32,-321.75 2156.41,-317.99 2161.81,-327.1 2166.32,-321.75"/>
<text text-anchor="middle" x="2244.22" y="-350.3" font-family="Times,serif" font-size="14.00">iteratorOf</text>
</g>
<!-- http://purl.org/dj/kaggle/depression&#45;on&#45;twitter#512164918&#45;&gt;http://purl.org/dj/kaggle/depression&#45;on&#45;twitter -->
<g id="edge21" class="edge">
<title>http://purl.org/dj/kaggle/depression&#45;on&#45;twitter#512164918&#45;&gt;http://purl.org/dj/kaggle/depression&#45;on&#45;twitter</title>
<path fill="none" stroke="black" d="M2136.02,-281.92C2134.43,-235.41 2122.83,-106.46 2044.22,-54 2000.99,-25.15 1675.64,-19.84 1510.2,-19.02"/>
<polygon fill="black" stroke="black" points="1510.04,-15.52 1500.03,-18.98 1510.01,-22.52 1510.04,-15.52"/>
<text text-anchor="middle" x="2165.72" y="-155.3" font-family="Times,serif" font-size="14.00">previousActivity</text>
</g>
<!-- http://purl.org/dj/kaggle/depression&#45;on&#45;twitter#512164918&#45;&gt;http://purl.org/dj/kaggle/depression&#45;on&#45;twitter#820184443 -->
<g id="edge22" class="edge">
<title>http://purl.org/dj/kaggle/depression&#45;on&#45;twitter#512164918&#45;&gt;http://purl.org/dj/kaggle/depression&#45;on&#45;twitter#820184443</title>
<path fill="none" stroke="black" d="M2067.27,-283.88C2015.05,-272.88 1941.4,-258.33 1876.22,-249 1792.25,-236.98 1770.59,-239.75 1686.22,-231 1673.36,-229.67 1659.89,-228.22 1646.51,-226.76"/>
<polygon fill="black" stroke="black" points="1646.64,-223.25 1636.32,-225.63 1645.87,-230.21 1646.64,-223.25"/>
<text text-anchor="middle" x="1989.22" y="-252.8" font-family="Times,serif" font-size="14.00">iteratorOf</text>
</g>
<!-- http://purl.org/dj/kaggle/depression&#45;on&#45;twitter#512164918&#45;&gt;http://purl.org/dj/kaggle/depression&#45;on&#45;twitter#83689828 -->
<g id="edge23" class="edge">
<title>http://purl.org/dj/kaggle/depression&#45;on&#45;twitter#512164918&#45;&gt;http://purl.org/dj/kaggle/depression&#45;on&#45;twitter#83689828</title>
<path fill="none" stroke="black" d="M2026.53,-287.36C1965.22,-280.74 1887.44,-272.17 1818.22,-264 1765.28,-257.75 1752.3,-253.86 1699.22,-249 1559.57,-236.22 1523.85,-243.96 1384.22,-231 1372.54,-229.92 1360.29,-228.59 1348.17,-227.17"/>
<polygon fill="black" stroke="black" points="1348.38,-223.67 1338.04,-225.95 1347.55,-230.62 1348.38,-223.67"/>
<text text-anchor="middle" x="1845.22" y="-252.8" font-family="Times,serif" font-size="14.00">iteratorOf</text>
</g>
<!-- http://purl.org/dj/kaggle/depression&#45;on&#45;twitter#45809891 -->
<g id="node15" class="node">
<title>http://purl.org/dj/kaggle/depression&#45;on&#45;twitter#45809891</title>
<ellipse fill="none" stroke="black" cx="1933.22" cy="-354" rx="99.38" ry="18"/>
<text text-anchor="middle" x="1933.22" y="-350.3" font-family="Times,serif" font-size="14.00">45809891 (10(0): Reuse)</text>
</g>
<!-- http://purl.org/dj/kaggle/depression&#45;on&#45;twitter#45809891&#45;&gt;http://purl.org/dj/kaggle/depression&#45;on&#45;twitter -->
<g id="edge25" class="edge">
<title>http://purl.org/dj/kaggle/depression&#45;on&#45;twitter#45809891&#45;&gt;http://purl.org/dj/kaggle/depression&#45;on&#45;twitter</title>
<path fill="none" stroke="black" d="M1943.63,-335.82C1961.49,-305.23 1997.31,-238.7 2010.22,-177 2013.49,-161.34 2016.79,-155.59 2010.22,-141 1995.35,-107.98 1978.24,-108.65 1949.22,-87 1926.97,-70.41 1922.6,-62.59 1896.22,-54 1826.84,-31.42 1629.24,-23.36 1509.68,-20.52"/>
<polygon fill="black" stroke="black" points="1509.5,-17.02 1499.43,-20.29 1509.34,-24.02 1509.5,-17.02"/>
<text text-anchor="middle" x="2050.72" y="-209.3" font-family="Times,serif" font-size="14.00">previousActivity</text>
</g>
<!-- http://purl.org/dj/kaggle/depression&#45;on&#45;twitter#243532402 -->
<g id="node16" class="node">
<title>http://purl.org/dj/kaggle/depression&#45;on&#45;twitter#243532402</title>
<ellipse fill="none" stroke="black" cx="1856.22" cy="-495" rx="137.58" ry="18"/>
<text text-anchor="middle" x="1856.22" y="-491.3" font-family="Times,serif" font-size="14.00">243532402 (data(0)$2: Preparation)</text>
</g>
<!-- http://purl.org/dj/kaggle/depression&#45;on&#45;twitter#243532402&#45;&gt;http://purl.org/dj/kaggle/depression&#45;on&#45;twitter#45809891 -->
<g id="edge26" class="edge">
<title>http://purl.org/dj/kaggle/depression&#45;on&#45;twitter#243532402&#45;&gt;http://purl.org/dj/kaggle/depression&#45;on&#45;twitter#45809891</title>
<path fill="none" stroke="black" d="M1865.66,-476.96C1878.94,-452.99 1903.24,-409.12 1918.79,-381.05"/>
<polygon fill="black" stroke="black" points="1921.92,-382.63 1923.7,-372.18 1915.79,-379.24 1921.92,-382.63"/>
<text text-anchor="middle" x="1896.22" y="-447.8" font-family="Times,serif" font-size="14.00">head</text>
</g>
<!-- http://purl.org/dj/kaggle/depression&#45;on&#45;twitter#243466865 -->
<g id="node17" class="node">
<title>http://purl.org/dj/kaggle/depression&#45;on&#45;twitter#243466865</title>
<ellipse fill="none" stroke="black" cx="1248.22" cy="-408" rx="137.58" ry="18"/>
<text text-anchor="middle" x="1248.22" y="-404.3" font-family="Times,serif" font-size="14.00">243466865 (data(0)$1: Preparation)</text>
</g>
<!-- http://purl.org/dj/kaggle/depression&#45;on&#45;twitter#243532402&#45;&gt;http://purl.org/dj/kaggle/depression&#45;on&#45;twitter#243466865 -->
<g id="edge27" class="edge">
<title>http://purl.org/dj/kaggle/depression&#45;on&#45;twitter#243532402&#45;&gt;http://purl.org/dj/kaggle/depression&#45;on&#45;twitter#243466865</title>
<path fill="none" stroke="black" d="M1765.85,-481.37C1654.15,-465.75 1464.65,-439.26 1348.55,-423.03"/>
<polygon fill="black" stroke="black" points="1348.97,-419.55 1338.59,-421.63 1348,-426.48 1348.97,-419.55"/>
<text text-anchor="middle" x="1601.22" y="-447.8" font-family="Times,serif" font-size="14.00">head</text>
</g>
<!-- http://purl.org/dj/kaggle/depression&#45;on&#45;twitter#243466865&#45;&gt;http://purl.org/dj/kaggle/depression&#45;on&#45;twitter#243401328 -->
<g id="edge28" class="edge">
<title>http://purl.org/dj/kaggle/depression&#45;on&#45;twitter#243466865&#45;&gt;http://purl.org/dj/kaggle/depression&#45;on&#45;twitter#243401328</title>
<path fill="none" stroke="black" d="M1187.33,-391.81C1109.69,-372.45 975.72,-339.04 893.73,-318.59"/>
<polygon fill="black" stroke="black" points="894.55,-315.18 884,-316.16 892.85,-321.98 894.55,-315.18"/>
<text text-anchor="middle" x="1111.22" y="-350.3" font-family="Times,serif" font-size="14.00">head</text>
</g>
<!-- http://purl.org/dj/kaggle/depression&#45;on&#45;twitter#249824024 -->
<g id="node18" class="node">
<title>http://purl.org/dj/kaggle/depression&#45;on&#45;twitter#249824024</title>
<ellipse fill="none" stroke="black" cx="2262.22" cy="-495" rx="136.48" ry="18"/>
<text text-anchor="middle" x="2262.22" y="-491.3" font-family="Times,serif" font-size="14.00">249824024 (print[2]: Visualisation)</text>
</g>
<!-- http://purl.org/dj/kaggle/depression&#45;on&#45;twitter#249824024&#45;&gt;http://purl.org/dj/kaggle/depression&#45;on&#45;twitter#427361219 -->
<g id="edge29" class="edge">
<title>http://purl.org/dj/kaggle/depression&#45;on&#45;twitter#249824024&#45;&gt;http://purl.org/dj/kaggle/depression&#45;on&#45;twitter#427361219</title>
<path fill="none" stroke="black" d="M2262.22,-476.8C2262.22,-465.16 2262.22,-449.55 2262.22,-436.24"/>
<polygon fill="black" stroke="black" points="2265.72,-436.18 2262.22,-426.18 2258.72,-436.18 2265.72,-436.18"/>
<text text-anchor="middle" x="2275.22" y="-447.8" font-family="Times,serif" font-size="14.00">print</text>
</g>
<!-- http://purl.org/dj/kaggle/depression&#45;on&#45;twitter#249692951 -->
<g id="node19" class="node">
<title>http://purl.org/dj/kaggle/depression&#45;on&#45;twitter#249692951</title>
<ellipse fill="none" stroke="black" cx="1680.22" cy="-408" rx="136.48" ry="18"/>
<text text-anchor="middle" x="1680.22" y="-404.3" font-family="Times,serif" font-size="14.00">249692951 (print[1]: Visualisation)</text>
</g>
<!-- http://purl.org/dj/kaggle/depression&#45;on&#45;twitter#249692951&#45;&gt;http://purl.org/dj/kaggle/depression&#45;on&#45;twitter#355533666 -->
<g id="edge30" class="edge">
<title>http://purl.org/dj/kaggle/depression&#45;on&#45;twitter#249692951&#45;&gt;http://purl.org/dj/kaggle/depression&#45;on&#45;twitter#355533666</title>
<path fill="none" stroke="black" d="M1680.22,-389.97C1680.22,-373.38 1680.22,-347.88 1680.22,-328.43"/>
<polygon fill="black" stroke="black" points="1683.72,-328.34 1680.22,-318.34 1676.72,-328.34 1683.72,-328.34"/>
<text text-anchor="middle" x="1693.22" y="-350.3" font-family="Times,serif" font-size="14.00">print</text>
</g>
<!-- http://purl.org/dj/kaggle/depression&#45;on&#45;twitter#82575712 -->
<g id="node20" class="node">
<title>http://purl.org/dj/kaggle/depression&#45;on&#45;twitter#82575712</title>
<ellipse fill="none" stroke="black" cx="1819.22" cy="-213" rx="124.28" ry="18"/>
<text text-anchor="middle" x="1819.22" y="-209.3" font-family="Times,serif" font-size="14.00">82575712 (np(0): Visualisation)</text>
</g>
<!-- http://purl.org/dj/kaggle/depression&#45;on&#45;twitter#82575712&#45;&gt;http://purl.org/dj/kaggle/depression&#45;on&#45;twitter -->
<g id="edge31" class="edge">
<title>http://purl.org/dj/kaggle/depression&#45;on&#45;twitter#82575712&#45;&gt;http://purl.org/dj/kaggle/depression&#45;on&#45;twitter</title>
<path fill="none" stroke="black" d="M1825.27,-194.98C1833.68,-167.89 1844.87,-115.14 1816.22,-87 1773.69,-45.25 1613.18,-29 1508.29,-22.77"/>
<polygon fill="black" stroke="black" points="1508.19,-19.26 1498.01,-22.18 1507.79,-26.25 1508.19,-19.26"/>
<text text-anchor="middle" x="1878.72" y="-101.3" font-family="Times,serif" font-size="14.00">previousActivity</text>
</g>
<!-- http://purl.org/dj/kaggle/depression&#45;on&#45;twitter#82575712&#45;&gt;http://purl.org/dj/python/lib/111084090 -->
<g id="edge32" class="edge">
<title>http://purl.org/dj/kaggle/depression&#45;on&#45;twitter#82575712&#45;&gt;http://purl.org/dj/python/lib/111084090</title>
<path fill="none" stroke="black" d="M1769.56,-196.48C1758.43,-191.46 1747.26,-185.05 1738.22,-177 1724.53,-164.81 1714.24,-146.92 1707.39,-132.14"/>
<polygon fill="black" stroke="black" points="1710.59,-130.74 1703.38,-122.97 1704.18,-133.54 1710.59,-130.74"/>
<text text-anchor="middle" x="1783.72" y="-155.3" font-family="Times,serif" font-size="14.00">previousActivity</text>
</g>
<!-- http://purl.org/dj/kaggle/depression&#45;on&#45;twitter#249561878 -->
<g id="node21" class="node">
<title>http://purl.org/dj/kaggle/depression&#45;on&#45;twitter#249561878</title>
<ellipse fill="none" stroke="black" cx="1376.22" cy="-300" rx="136.48" ry="18"/>
<text text-anchor="middle" x="1376.22" y="-296.3" font-family="Times,serif" font-size="14.00">249561878 (print[0]: Visualisation)</text>
</g>
<!-- http://purl.org/dj/kaggle/depression&#45;on&#45;twitter#249561878&#45;&gt;http://purl.org/dj/kaggle/depression&#45;on&#45;twitter#83689828 -->
<g id="edge33" class="edge">
<title>http://purl.org/dj/kaggle/depression&#45;on&#45;twitter#249561878&#45;&gt;http://purl.org/dj/kaggle/depression&#45;on&#45;twitter#83689828</title>
<path fill="none" stroke="black" d="M1351.72,-282.21C1332.61,-269.11 1305.9,-250.8 1284.96,-236.44"/>
<polygon fill="black" stroke="black" points="1286.89,-233.53 1276.67,-230.76 1282.94,-239.3 1286.89,-233.53"/>
<text text-anchor="middle" x="1334.22" y="-252.8" font-family="Times,serif" font-size="14.00">print</text>
</g>
</g>
</svg>
