<?xml version="1.0" encoding="UTF-8" standalone="no"?>
<!DOCTYPE svg PUBLIC "-//W3C//DTD SVG 1.1//EN"
 "http://www.w3.org/Graphics/SVG/1.1/DTD/svg11.dtd">
<!-- Generated by graphviz version 2.47.1 (20210417.1919)
 -->
<!-- Pages: 1 -->
<svg width="1381pt" height="521pt"
 viewBox="0.00 0.00 1380.59 521.00" xmlns="http://www.w3.org/2000/svg" xmlns:xlink="http://www.w3.org/1999/xlink">
<g id="graph0" class="graph" transform="scale(1 1) rotate(0) translate(4 517)">
<polygon fill="white" stroke="transparent" points="-4,4 -4,-517 1376.59,-517 1376.59,4 -4,4"/>
<!-- http://purl.org/dj/kaggle/digit&#45;recognition/activity/&#45;2402572727145894514 -->
<g id="node1" class="node">
<title>http://purl.org/dj/kaggle/digit&#45;recognition/activity/&#45;2402572727145894514</title>
<ellipse fill="none" stroke="black" cx="349.59" cy="-300" rx="145.67" ry="18"/>
<text text-anchor="middle" x="349.59" y="-296.3" font-family="Times,serif" font-size="14.00">&#45;2402572727145894514 (Preparation)</text>
</g>
<!-- http://purl.org/dj/kaggle/digit&#45;recognition/activity/5724141993097526555 -->
<g id="node2" class="node">
<title>http://purl.org/dj/kaggle/digit&#45;recognition/activity/5724141993097526555</title>
<ellipse fill="none" stroke="black" cx="593.59" cy="-213" rx="124.28" ry="18"/>
<text text-anchor="middle" x="593.59" y="-209.3" font-family="Times,serif" font-size="14.00">5724141993097526555 (Reuse)</text>
</g>
<!-- http://purl.org/dj/kaggle/digit&#45;recognition/activity/&#45;2402572727145894514&#45;&gt;http://purl.org/dj/kaggle/digit&#45;recognition/activity/5724141993097526555 -->
<g id="edge1" class="edge">
<title>http://purl.org/dj/kaggle/digit&#45;recognition/activity/&#45;2402572727145894514&#45;&gt;http://purl.org/dj/kaggle/digit&#45;recognition/activity/5724141993097526555</title>
<path fill="none" stroke="black" d="M386.24,-282.57C410.02,-272.23 441.82,-259 470.59,-249 488.45,-242.79 508.05,-236.84 526.25,-231.66"/>
<polygon fill="black" stroke="black" points="527.22,-235.02 535.9,-228.94 525.33,-228.28 527.22,-235.02"/>
<text text-anchor="middle" x="494.09" y="-252.8" font-family="Times,serif" font-size="14.00">previous</text>
</g>
<!-- http://purl.org/dj/kaggle/digit&#45;recognition/activity/5724141993097526555&#45;&gt;http://purl.org/dj/kaggle/digit&#45;recognition/activity/&#45;2402572727145894514 -->
<g id="edge2" class="edge">
<title>http://purl.org/dj/kaggle/digit&#45;recognition/activity/5724141993097526555&#45;&gt;http://purl.org/dj/kaggle/digit&#45;recognition/activity/&#45;2402572727145894514</title>
<path fill="none" stroke="black" d="M491.2,-223.22C446.84,-228.77 400.89,-237.12 382.59,-249 373.66,-254.8 366.59,-263.96 361.32,-272.87"/>
<polygon fill="black" stroke="black" points="358.12,-271.44 356.49,-281.91 364.29,-274.74 358.12,-271.44"/>
<text text-anchor="middle" x="406.09" y="-252.8" font-family="Times,serif" font-size="14.00">previous</text>
</g>
<!-- http://purl.org/dj/kaggle/digit&#45;recognition/activity/8374106787284840064 -->
<g id="node3" class="node">
<title>http://purl.org/dj/kaggle/digit&#45;recognition/activity/8374106787284840064</title>
<ellipse fill="none" stroke="black" cx="1048.59" cy="-18" rx="141.88" ry="18"/>
<text text-anchor="middle" x="1048.59" y="-14.3" font-family="Times,serif" font-size="14.00">8374106787284840064 (Movement)</text>
</g>
<!-- http://purl.org/dj/kaggle/digit&#45;recognition/activity/5724141993097526555&#45;&gt;http://purl.org/dj/kaggle/digit&#45;recognition/activity/8374106787284840064 -->
<g id="edge3" class="edge">
<title>http://purl.org/dj/kaggle/digit&#45;recognition/activity/5724141993097526555&#45;&gt;http://purl.org/dj/kaggle/digit&#45;recognition/activity/8374106787284840064</title>
<path fill="none" stroke="black" d="M621.02,-195.3C648.64,-178.14 692.11,-150.16 727.59,-123 746.84,-108.26 749,-101.3 768.59,-87 791.62,-70.19 796.79,-63.7 823.59,-54 854.75,-42.72 889.63,-35.07 922.45,-29.89"/>
<polygon fill="black" stroke="black" points="923.2,-33.32 932.56,-28.36 922.15,-26.4 923.2,-33.32"/>
<text text-anchor="middle" x="792.09" y="-101.3" font-family="Times,serif" font-size="14.00">previous</text>
</g>
<!-- http://purl.org/dj/kaggle/digit&#45;recognition/activity/6128665853675837465 -->
<g id="node4" class="node">
<title>http://purl.org/dj/kaggle/digit&#45;recognition/activity/6128665853675837465</title>
<ellipse fill="none" stroke="black" cx="239.59" cy="-105" rx="142.97" ry="18"/>
<text text-anchor="middle" x="239.59" y="-101.3" font-family="Times,serif" font-size="14.00">6128665853675837465 (Preparation)</text>
</g>
<!-- http://purl.org/dj/kaggle/digit&#45;recognition/activity/5724141993097526555&#45;&gt;http://purl.org/dj/kaggle/digit&#45;recognition/activity/6128665853675837465 -->
<g id="edge4" class="edge">
<title>http://purl.org/dj/kaggle/digit&#45;recognition/activity/5724141993097526555&#45;&gt;http://purl.org/dj/kaggle/digit&#45;recognition/activity/6128665853675837465</title>
<path fill="none" stroke="black" d="M542.11,-196.59C478.51,-177.54 370.35,-145.15 302.06,-124.71"/>
<polygon fill="black" stroke="black" points="302.87,-121.29 292.28,-121.78 300.86,-128 302.87,-121.29"/>
<text text-anchor="middle" x="493.09" y="-155.3" font-family="Times,serif" font-size="14.00">previous</text>
</g>
<!-- http://purl.org/dj/kaggle/digit&#45;recognition/activity/&#45;2990482543471004885 -->
<g id="node5" class="node">
<title>http://purl.org/dj/kaggle/digit&#45;recognition/activity/&#45;2990482543471004885</title>
<ellipse fill="none" stroke="black" cx="1048.59" cy="-105" rx="145.67" ry="18"/>
<text text-anchor="middle" x="1048.59" y="-101.3" font-family="Times,serif" font-size="14.00">&#45;2990482543471004885 (Preparation)</text>
</g>
<!-- http://purl.org/dj/kaggle/digit&#45;recognition/activity/5724141993097526555&#45;&gt;http://purl.org/dj/kaggle/digit&#45;recognition/activity/&#45;2990482543471004885 -->
<g id="edge5" class="edge">
<title>http://purl.org/dj/kaggle/digit&#45;recognition/activity/5724141993097526555&#45;&gt;http://purl.org/dj/kaggle/digit&#45;recognition/activity/&#45;2990482543471004885</title>
<path fill="none" stroke="black" d="M713.31,-208.24C790.86,-204.08 883.67,-195.34 918.59,-177 937.28,-167.18 932.16,-152.92 949.59,-141 958.63,-134.81 968.89,-129.6 979.28,-125.25"/>
<polygon fill="black" stroke="black" points="980.82,-128.41 988.84,-121.49 978.26,-121.9 980.82,-128.41"/>
<text text-anchor="middle" x="973.09" y="-155.3" font-family="Times,serif" font-size="14.00">previous</text>
</g>
<!-- http://purl.org/dj/kaggle/digit&#45;recognition -->
<g id="node6" class="node">
<title>http://purl.org/dj/kaggle/digit&#45;recognition</title>
<ellipse fill="none" stroke="black" cx="559.59" cy="-105" rx="159.47" ry="18"/>
<text text-anchor="middle" x="559.59" y="-101.3" font-family="Times,serif" font-size="14.00">digit&#45;recognition (digit&#45;recognition.ipynb)</text>
</g>
<!-- http://purl.org/dj/kaggle/digit&#45;recognition/activity/5724141993097526555&#45;&gt;http://purl.org/dj/kaggle/digit&#45;recognition -->
<g id="edge6" class="edge">
<title>http://purl.org/dj/kaggle/digit&#45;recognition/activity/5724141993097526555&#45;&gt;http://purl.org/dj/kaggle/digit&#45;recognition</title>
<path fill="none" stroke="black" d="M588.13,-194.97C582.76,-178.22 574.48,-152.41 568.22,-132.89"/>
<polygon fill="black" stroke="black" points="571.54,-131.79 565.15,-123.34 564.87,-133.93 571.54,-131.79"/>
<text text-anchor="middle" x="605.09" y="-155.3" font-family="Times,serif" font-size="14.00">previous</text>
</g>
<!-- http://purl.org/dj/kaggle/digit&#45;recognition/activity/8374106787284840064&#45;&gt;http://purl.org/dj/kaggle/digit&#45;recognition/activity/5724141993097526555 -->
<g id="edge7" class="edge">
<title>http://purl.org/dj/kaggle/digit&#45;recognition/activity/8374106787284840064&#45;&gt;http://purl.org/dj/kaggle/digit&#45;recognition/activity/5724141993097526555</title>
<path fill="none" stroke="black" d="M975.63,-33.54C935.2,-43.96 885.42,-60.87 846.59,-87 829.07,-98.79 832.62,-110.52 815.59,-123 766.45,-159.01 746.23,-154.56 689.59,-177 676.32,-182.26 661.9,-187.67 648.38,-192.62"/>
<polygon fill="black" stroke="black" points="646.92,-189.42 638.72,-196.13 649.31,-196 646.92,-189.42"/>
<text text-anchor="middle" x="870.09" y="-101.3" font-family="Times,serif" font-size="14.00">previous</text>
</g>
<!-- http://purl.org/dj/kaggle/digit&#45;recognition/activity/6128665853675837465&#45;&gt;http://purl.org/dj/kaggle/digit&#45;recognition/activity/5724141993097526555 -->
<g id="edge8" class="edge">
<title>http://purl.org/dj/kaggle/digit&#45;recognition/activity/6128665853675837465&#45;&gt;http://purl.org/dj/kaggle/digit&#45;recognition/activity/5724141993097526555</title>
<path fill="none" stroke="black" d="M251.91,-122.98C265.11,-139.77 287.71,-164.67 313.59,-177 341.35,-190.22 409.19,-198.89 471.14,-204.29"/>
<polygon fill="black" stroke="black" points="471.17,-207.81 481.43,-205.17 471.76,-200.83 471.17,-207.81"/>
<text text-anchor="middle" x="337.09" y="-155.3" font-family="Times,serif" font-size="14.00">previous</text>
</g>
<!-- http://purl.org/dj/kaggle/digit&#45;recognition/activity/901890140860472552 -->
<g id="node7" class="node">
<title>http://purl.org/dj/kaggle/digit&#45;recognition/activity/901890140860472552</title>
<ellipse fill="none" stroke="black" cx="119.59" cy="-18" rx="119.68" ry="18"/>
<text text-anchor="middle" x="119.59" y="-14.3" font-family="Times,serif" font-size="14.00">901890140860472552 (Reuse)</text>
</g>
<!-- http://purl.org/dj/kaggle/digit&#45;recognition/activity/6128665853675837465&#45;&gt;http://purl.org/dj/kaggle/digit&#45;recognition/activity/901890140860472552 -->
<g id="edge9" class="edge">
<title>http://purl.org/dj/kaggle/digit&#45;recognition/activity/6128665853675837465&#45;&gt;http://purl.org/dj/kaggle/digit&#45;recognition/activity/901890140860472552</title>
<path fill="none" stroke="black" d="M215.88,-87.21C197.47,-74.17 171.77,-55.96 151.54,-41.63"/>
<polygon fill="black" stroke="black" points="153.43,-38.68 143.25,-35.76 149.39,-44.39 153.43,-38.68"/>
<text text-anchor="middle" x="211.09" y="-57.8" font-family="Times,serif" font-size="14.00">previous</text>
</g>
<!-- http://purl.org/dj/kaggle/digit&#45;recognition/activity/&#45;2990482543471004885&#45;&gt;http://purl.org/dj/kaggle/digit&#45;recognition/activity/5724141993097526555 -->
<g id="edge10" class="edge">
<title>http://purl.org/dj/kaggle/digit&#45;recognition/activity/&#45;2990482543471004885&#45;&gt;http://purl.org/dj/kaggle/digit&#45;recognition/activity/5724141993097526555</title>
<path fill="none" stroke="black" d="M946.59,-117.96C913.03,-123.52 880.89,-131.13 867.59,-141 853.06,-151.78 863.41,-166.62 848.59,-177 827.27,-191.93 772.55,-200.52 719.24,-205.45"/>
<polygon fill="black" stroke="black" points="718.61,-201.99 708.96,-206.35 719.23,-208.96 718.61,-201.99"/>
<text text-anchor="middle" x="891.09" y="-155.3" font-family="Times,serif" font-size="14.00">previous</text>
</g>
<!-- http://purl.org/dj/kaggle/digit&#45;recognition/activity/&#45;2990482543471004885&#45;&gt;http://purl.org/dj/kaggle/digit&#45;recognition/activity/8374106787284840064 -->
<g id="edge11" class="edge">
<title>http://purl.org/dj/kaggle/digit&#45;recognition/activity/&#45;2990482543471004885&#45;&gt;http://purl.org/dj/kaggle/digit&#45;recognition/activity/8374106787284840064</title>
<path fill="none" stroke="black" d="M1048.59,-86.8C1048.59,-75.16 1048.59,-59.55 1048.59,-46.24"/>
<polygon fill="black" stroke="black" points="1052.09,-46.18 1048.59,-36.18 1045.09,-46.18 1052.09,-46.18"/>
<text text-anchor="middle" x="1072.09" y="-57.8" font-family="Times,serif" font-size="14.00">previous</text>
</g>
<!-- http://purl.org/dj/kaggle/digit&#45;recognition/activity/901890140860472552&#45;&gt;http://purl.org/dj/kaggle/digit&#45;recognition/activity/&#45;2402572727145894514 -->
<g id="edge19" class="edge">
<title>http://purl.org/dj/kaggle/digit&#45;recognition/activity/901890140860472552&#45;&gt;http://purl.org/dj/kaggle/digit&#45;recognition/activity/&#45;2402572727145894514</title>
<path fill="none" stroke="black" d="M106.58,-35.98C92.01,-57.24 72.31,-94.33 87.59,-123 130.61,-203.72 228.93,-254.01 292.13,-279.23"/>
<polygon fill="black" stroke="black" points="290.99,-282.54 301.58,-282.91 293.54,-276.01 290.99,-282.54"/>
<text text-anchor="middle" x="150.09" y="-155.3" font-family="Times,serif" font-size="14.00">previous</text>
</g>
<!-- http://purl.org/dj/kaggle/digit&#45;recognition/activity/4707914583017980774 -->
<g id="node8" class="node">
<title>http://purl.org/dj/kaggle/digit&#45;recognition/activity/4707914583017980774</title>
<ellipse fill="none" stroke="black" cx="1167.59" cy="-354" rx="124.28" ry="18"/>
<text text-anchor="middle" x="1167.59" y="-350.3" font-family="Times,serif" font-size="14.00">4707914583017980774 (Reuse)</text>
</g>
<!-- http://purl.org/dj/kaggle/digit&#45;recognition/activity/4707914583017980774&#45;&gt;http://purl.org/dj/kaggle/digit&#45;recognition/activity/8374106787284840064 -->
<g id="edge12" class="edge">
<title>http://purl.org/dj/kaggle/digit&#45;recognition/activity/4707914583017980774&#45;&gt;http://purl.org/dj/kaggle/digit&#45;recognition/activity/8374106787284840064</title>
<path fill="none" stroke="black" d="M1263.54,-342.53C1279.39,-337.18 1294.56,-329.36 1306.59,-318 1327.08,-298.65 1325.59,-285.68 1325.59,-257.5 1325.59,-257.5 1325.59,-257.5 1325.59,-104 1325.59,-67.41 1236.15,-44.96 1158.91,-32.39"/>
<polygon fill="black" stroke="black" points="1159.02,-28.86 1148.59,-30.76 1157.92,-35.78 1159.02,-28.86"/>
<text text-anchor="middle" x="1349.09" y="-209.3" font-family="Times,serif" font-size="14.00">previous</text>
</g>
<!-- http://purl.org/dj/kaggle/digit&#45;recognition/activity/7301218320684802936 -->
<g id="node9" class="node">
<title>http://purl.org/dj/kaggle/digit&#45;recognition/activity/7301218320684802936</title>
<ellipse fill="none" stroke="black" cx="834.59" cy="-300" rx="142.97" ry="18"/>
<text text-anchor="middle" x="834.59" y="-296.3" font-family="Times,serif" font-size="14.00">7301218320684802936 (Preparation)</text>
</g>
<!-- http://purl.org/dj/kaggle/digit&#45;recognition/activity/7301218320684802936&#45;&gt;http://purl.org/dj/kaggle/digit&#45;recognition/activity/5724141993097526555 -->
<g id="edge13" class="edge">
<title>http://purl.org/dj/kaggle/digit&#45;recognition/activity/7301218320684802936&#45;&gt;http://purl.org/dj/kaggle/digit&#45;recognition/activity/5724141993097526555</title>
<path fill="none" stroke="black" d="M788.98,-282.91C748.97,-268.8 690.72,-248.26 648.23,-233.27"/>
<polygon fill="black" stroke="black" points="649.2,-229.9 638.61,-229.88 646.87,-236.5 649.2,-229.9"/>
<text text-anchor="middle" x="751.09" y="-252.8" font-family="Times,serif" font-size="14.00">previous</text>
</g>
<!-- http://purl.org/dj/kaggle/digit&#45;recognition/activity/8131042182855268139 -->
<g id="node10" class="node">
<title>http://purl.org/dj/kaggle/digit&#45;recognition/activity/8131042182855268139</title>
<ellipse fill="none" stroke="black" cx="1006.59" cy="-213" rx="124.28" ry="18"/>
<text text-anchor="middle" x="1006.59" y="-209.3" font-family="Times,serif" font-size="14.00">8131042182855268139 (Reuse)</text>
</g>
<!-- http://purl.org/dj/kaggle/digit&#45;recognition/activity/7301218320684802936&#45;&gt;http://purl.org/dj/kaggle/digit&#45;recognition/activity/8131042182855268139 -->
<g id="edge14" class="edge">
<title>http://purl.org/dj/kaggle/digit&#45;recognition/activity/7301218320684802936&#45;&gt;http://purl.org/dj/kaggle/digit&#45;recognition/activity/8131042182855268139</title>
<path fill="none" stroke="black" d="M912.04,-284.78C928.79,-279.75 945.87,-273 960.59,-264 971.07,-257.59 980.63,-248.12 988.29,-239.15"/>
<polygon fill="black" stroke="black" points="991.2,-241.12 994.76,-231.14 985.75,-236.72 991.2,-241.12"/>
<text text-anchor="middle" x="1001.09" y="-252.8" font-family="Times,serif" font-size="14.00">previous</text>
</g>
<!-- http://purl.org/dj/kaggle/digit&#45;recognition/activity/8131042182855268139&#45;&gt;http://purl.org/dj/kaggle/digit&#45;recognition/activity/&#45;2990482543471004885 -->
<g id="edge15" class="edge">
<title>http://purl.org/dj/kaggle/digit&#45;recognition/activity/8131042182855268139&#45;&gt;http://purl.org/dj/kaggle/digit&#45;recognition/activity/&#45;2990482543471004885</title>
<path fill="none" stroke="black" d="M1002.65,-194.77C1000.13,-179.82 998.64,-157.97 1006.59,-141 1008.45,-137.04 1011,-133.36 1013.93,-130.01"/>
<polygon fill="black" stroke="black" points="1016.64,-132.26 1021.33,-122.76 1011.74,-127.26 1016.64,-132.26"/>
<text text-anchor="middle" x="1030.09" y="-155.3" font-family="Times,serif" font-size="14.00">previous</text>
</g>
<!-- http://purl.org/dj/kaggle/digit&#45;recognition/activity/&#45;5454856465627420473 -->
<g id="node11" class="node">
<title>http://purl.org/dj/kaggle/digit&#45;recognition/activity/&#45;5454856465627420473</title>
<ellipse fill="none" stroke="black" cx="1146.59" cy="-300" rx="151.37" ry="18"/>
<text text-anchor="middle" x="1146.59" y="-296.3" font-family="Times,serif" font-size="14.00">&#45;5454856465627420473 (Visualisation)</text>
</g>
<!-- http://purl.org/dj/kaggle/digit&#45;recognition/activity/&#45;5454856465627420473&#45;&gt;http://purl.org/dj/kaggle/digit&#45;recognition/activity/5724141993097526555 -->
<g id="edge16" class="edge">
<title>http://purl.org/dj/kaggle/digit&#45;recognition/activity/&#45;5454856465627420473&#45;&gt;http://purl.org/dj/kaggle/digit&#45;recognition/activity/5724141993097526555</title>
<path fill="none" stroke="black" d="M1054.83,-285.67C1010.87,-279.23 957.49,-271.33 909.59,-264 833.24,-252.32 746.59,-238.58 683.37,-228.46"/>
<polygon fill="black" stroke="black" points="683.85,-224.99 673.43,-226.87 682.75,-231.9 683.85,-224.99"/>
<text text-anchor="middle" x="933.09" y="-252.8" font-family="Times,serif" font-size="14.00">previous</text>
</g>
<!-- http://purl.org/dj/kaggle/digit&#45;recognition/activity/8299603421198017024 -->
<g id="node12" class="node">
<title>http://purl.org/dj/kaggle/digit&#45;recognition/activity/8299603421198017024</title>
<ellipse fill="none" stroke="black" cx="1186.59" cy="-159" rx="124.28" ry="18"/>
<text text-anchor="middle" x="1186.59" y="-155.3" font-family="Times,serif" font-size="14.00">8299603421198017024 (Reuse)</text>
</g>
<!-- http://purl.org/dj/kaggle/digit&#45;recognition/activity/&#45;5454856465627420473&#45;&gt;http://purl.org/dj/kaggle/digit&#45;recognition/activity/8299603421198017024 -->
<g id="edge17" class="edge">
<title>http://purl.org/dj/kaggle/digit&#45;recognition/activity/&#45;5454856465627420473&#45;&gt;http://purl.org/dj/kaggle/digit&#45;recognition/activity/8299603421198017024</title>
<path fill="none" stroke="black" d="M1151.49,-281.96C1158.3,-258.3 1170.69,-215.26 1178.78,-187.15"/>
<polygon fill="black" stroke="black" points="1182.24,-187.76 1181.64,-177.18 1175.52,-185.83 1182.24,-187.76"/>
<text text-anchor="middle" x="1184.09" y="-252.8" font-family="Times,serif" font-size="14.00">previous</text>
</g>
<!-- http://purl.org/dj/kaggle/digit&#45;recognition/activity/8299603421198017024&#45;&gt;http://purl.org/dj/kaggle/digit&#45;recognition/activity/8374106787284840064 -->
<g id="edge18" class="edge">
<title>http://purl.org/dj/kaggle/digit&#45;recognition/activity/8299603421198017024&#45;&gt;http://purl.org/dj/kaggle/digit&#45;recognition/activity/8374106787284840064</title>
<path fill="none" stroke="black" d="M1197.62,-140.95C1205.94,-125.72 1214.26,-103.34 1203.59,-87 1187.56,-62.46 1160.49,-46.72 1133.42,-36.65"/>
<polygon fill="black" stroke="black" points="1134.46,-33.31 1123.86,-33.32 1132.15,-39.92 1134.46,-33.31"/>
<text text-anchor="middle" x="1232.09" y="-101.3" font-family="Times,serif" font-size="14.00">previous</text>
</g>
<!-- http://purl.org/dj/kaggle/digit&#45;recognition/activity/&#45;6992168474892908068 -->
<g id="node13" class="node">
<title>http://purl.org/dj/kaggle/digit&#45;recognition/activity/&#45;6992168474892908068</title>
<ellipse fill="none" stroke="black" cx="834.59" cy="-408" rx="135.68" ry="18"/>
<text text-anchor="middle" x="834.59" y="-404.3" font-family="Times,serif" font-size="14.00">&#45;6992168474892908068 (Analysis)</text>
</g>
<!-- http://purl.org/dj/kaggle/digit&#45;recognition/activity/&#45;6992168474892908068&#45;&gt;http://purl.org/dj/kaggle/digit&#45;recognition/activity/5724141993097526555 -->
<g id="edge20" class="edge">
<title>http://purl.org/dj/kaggle/digit&#45;recognition/activity/&#45;6992168474892908068&#45;&gt;http://purl.org/dj/kaggle/digit&#45;recognition/activity/5724141993097526555</title>
<path fill="none" stroke="black" d="M770.76,-391.96C727.63,-378.86 672.1,-355.88 635.59,-318 615.08,-296.72 604.13,-264.13 598.61,-241.11"/>
<polygon fill="black" stroke="black" points="602.01,-240.29 596.44,-231.28 595.18,-241.8 602.01,-240.29"/>
<text text-anchor="middle" x="659.09" y="-296.3" font-family="Times,serif" font-size="14.00">previous</text>
</g>
<!-- http://purl.org/dj/kaggle/digit&#45;recognition/activity/&#45;6992168474892908068&#45;&gt;http://purl.org/dj/kaggle/digit&#45;recognition/activity/7301218320684802936 -->
<g id="edge21" class="edge">
<title>http://purl.org/dj/kaggle/digit&#45;recognition/activity/&#45;6992168474892908068&#45;&gt;http://purl.org/dj/kaggle/digit&#45;recognition/activity/7301218320684802936</title>
<path fill="none" stroke="black" d="M834.59,-389.97C834.59,-373.38 834.59,-347.88 834.59,-328.43"/>
<polygon fill="black" stroke="black" points="838.09,-328.34 834.59,-318.34 831.09,-328.34 838.09,-328.34"/>
<text text-anchor="middle" x="858.09" y="-350.3" font-family="Times,serif" font-size="14.00">previous</text>
</g>
<!-- http://purl.org/dj/kaggle/digit&#45;recognition/activity/&#45;5952870938602452264 -->
<g id="node14" class="node">
<title>http://purl.org/dj/kaggle/digit&#45;recognition/activity/&#45;5952870938602452264</title>
<ellipse fill="none" stroke="black" cx="531.59" cy="-495" rx="135.68" ry="18"/>
<text text-anchor="middle" x="531.59" y="-491.3" font-family="Times,serif" font-size="14.00">&#45;5952870938602452264 (Analysis)</text>
</g>
<!-- http://purl.org/dj/kaggle/digit&#45;recognition/activity/&#45;5952870938602452264&#45;&gt;http://purl.org/dj/kaggle/digit&#45;recognition/activity/5724141993097526555 -->
<g id="edge22" class="edge">
<title>http://purl.org/dj/kaggle/digit&#45;recognition/activity/&#45;5952870938602452264&#45;&gt;http://purl.org/dj/kaggle/digit&#45;recognition/activity/5724141993097526555</title>
<path fill="none" stroke="black" d="M460.73,-479.54C338.96,-451.58 110.77,-383.77 194.59,-282 228.23,-241.15 360.39,-224.83 463.5,-218.32"/>
<polygon fill="black" stroke="black" points="463.93,-221.8 473.7,-217.7 463.51,-214.81 463.93,-221.8"/>
<text text-anchor="middle" x="222.09" y="-350.3" font-family="Times,serif" font-size="14.00">previous</text>
</g>
<!-- http://purl.org/dj/kaggle/digit&#45;recognition/activity/&#45;5952870938602452264&#45;&gt;http://purl.org/dj/kaggle/digit&#45;recognition/activity/4707914583017980774 -->
<g id="edge23" class="edge">
<title>http://purl.org/dj/kaggle/digit&#45;recognition/activity/&#45;5952870938602452264&#45;&gt;http://purl.org/dj/kaggle/digit&#45;recognition/activity/4707914583017980774</title>
<path fill="none" stroke="black" d="M639.69,-484.04C731.24,-474.08 865.43,-455.86 979.59,-426 1029.32,-412.99 1084.08,-391.44 1121.61,-375.49"/>
<polygon fill="black" stroke="black" points="1123.43,-378.51 1131.24,-371.35 1120.67,-372.08 1123.43,-378.51"/>
<text text-anchor="middle" x="925.09" y="-447.8" font-family="Times,serif" font-size="14.00">previous</text>
</g>
<!-- http://purl.org/dj/kaggle/digit&#45;recognition/activity/4644146410324236940 -->
<g id="node15" class="node">
<title>http://purl.org/dj/kaggle/digit&#45;recognition/activity/4644146410324236940</title>
<ellipse fill="none" stroke="black" cx="531.59" cy="-408" rx="148.67" ry="18"/>
<text text-anchor="middle" x="531.59" y="-404.3" font-family="Times,serif" font-size="14.00">4644146410324236940 (Visualisation)</text>
</g>
<!-- http://purl.org/dj/kaggle/digit&#45;recognition/activity/&#45;5952870938602452264&#45;&gt;http://purl.org/dj/kaggle/digit&#45;recognition/activity/4644146410324236940 -->
<g id="edge24" class="edge">
<title>http://purl.org/dj/kaggle/digit&#45;recognition/activity/&#45;5952870938602452264&#45;&gt;http://purl.org/dj/kaggle/digit&#45;recognition/activity/4644146410324236940</title>
<path fill="none" stroke="black" d="M531.59,-476.8C531.59,-465.16 531.59,-449.55 531.59,-436.24"/>
<polygon fill="black" stroke="black" points="535.09,-436.18 531.59,-426.18 528.09,-436.18 535.09,-436.18"/>
<text text-anchor="middle" x="555.09" y="-447.8" font-family="Times,serif" font-size="14.00">previous</text>
</g>
<!-- http://purl.org/dj/kaggle/digit&#45;recognition/activity/4644146410324236940&#45;&gt;http://purl.org/dj/kaggle/digit&#45;recognition/activity/5724141993097526555 -->
<g id="edge25" class="edge">
<title>http://purl.org/dj/kaggle/digit&#45;recognition/activity/4644146410324236940&#45;&gt;http://purl.org/dj/kaggle/digit&#45;recognition/activity/5724141993097526555</title>
<path fill="none" stroke="black" d="M533.63,-389.6C536.87,-365.05 544.21,-319.12 557.59,-282 562.82,-267.48 570.67,-252.21 577.7,-239.83"/>
<polygon fill="black" stroke="black" points="580.84,-241.39 582.86,-230.99 574.8,-237.86 580.84,-241.39"/>
<text text-anchor="middle" x="581.09" y="-296.3" font-family="Times,serif" font-size="14.00">previous</text>
</g>
<!-- http://purl.org/dj/kaggle/digit&#45;recognition/activity/4644146410324236940&#45;&gt;http://purl.org/dj/kaggle/digit&#45;recognition/activity/6128665853675837465 -->
<g id="edge26" class="edge">
<title>http://purl.org/dj/kaggle/digit&#45;recognition/activity/4644146410324236940&#45;&gt;http://purl.org/dj/kaggle/digit&#45;recognition/activity/6128665853675837465</title>
<path fill="none" stroke="black" d="M416.33,-396.6C347.02,-385.72 259.88,-363.48 194.59,-318 120.63,-266.48 39.89,-211.86 95.59,-141 102.01,-132.83 118.72,-126.33 138.58,-121.26"/>
<polygon fill="black" stroke="black" points="139.64,-124.61 148.55,-118.89 138.02,-117.8 139.64,-124.61"/>
<text text-anchor="middle" x="145.09" y="-252.8" font-family="Times,serif" font-size="14.00">previous</text>
</g>
<!-- http://purl.org/dj/kaggle/digit&#45;recognition/activity/4644146410324236940&#45;&gt;http://purl.org/dj/kaggle/digit&#45;recognition/activity/7301218320684802936 -->
<g id="edge27" class="edge">
<title>http://purl.org/dj/kaggle/digit&#45;recognition/activity/4644146410324236940&#45;&gt;http://purl.org/dj/kaggle/digit&#45;recognition/activity/7301218320684802936</title>
<path fill="none" stroke="black" d="M577.94,-390.79C631.85,-371.93 720.81,-340.8 778.55,-320.6"/>
<polygon fill="black" stroke="black" points="779.96,-323.82 788.25,-317.21 777.65,-317.21 779.96,-323.82"/>
<text text-anchor="middle" x="751.09" y="-350.3" font-family="Times,serif" font-size="14.00">previous</text>
</g>
</g>
</svg>
