<?xml version="1.0" encoding="UTF-8" standalone="no"?>
<!DOCTYPE svg PUBLIC "-//W3C//DTD SVG 1.1//EN"
 "http://www.w3.org/Graphics/SVG/1.1/DTD/svg11.dtd">
<!-- Generated by graphviz version 2.47.1 (20210417.1919)
 -->
<!-- Pages: 1 -->
<svg width="2375pt" height="1001pt"
 viewBox="0.00 0.00 2375.00 1001.00" xmlns="http://www.w3.org/2000/svg" xmlns:xlink="http://www.w3.org/1999/xlink">
<g id="graph0" class="graph" transform="scale(1 1) rotate(0) translate(4 997)">
<polygon fill="white" stroke="transparent" points="-4,4 -4,-997 2371,-997 2371,4 -4,4"/>
<!-- http://purl.org/dj/kaggle/earthquake&#45;animation&#45;with&#45;plotly/activity/&#45;4894891398613633000 -->
<g id="node1" class="node">
<title>http://purl.org/dj/kaggle/earthquake&#45;animation&#45;with&#45;plotly/activity/&#45;4894891398613633000</title>
<ellipse fill="none" stroke="black" cx="170" cy="-975" rx="145.67" ry="18"/>
<text text-anchor="middle" x="170" y="-971.3" font-family="Times,serif" font-size="14.00">&#45;4894891398613633000 (Preparation)</text>
</g>
<!-- http://purl.org/dj/kaggle/earthquake&#45;animation&#45;with&#45;plotly/activity/2967609697866788771 -->
<g id="node2" class="node">
<title>http://purl.org/dj/kaggle/earthquake&#45;animation&#45;with&#45;plotly/activity/2967609697866788771</title>
<ellipse fill="none" stroke="black" cx="170" cy="-888" rx="141.88" ry="18"/>
<text text-anchor="middle" x="170" y="-884.3" font-family="Times,serif" font-size="14.00">2967609697866788771 (Movement)</text>
</g>
<!-- http://purl.org/dj/kaggle/earthquake&#45;animation&#45;with&#45;plotly/activity/&#45;4894891398613633000&#45;&gt;http://purl.org/dj/kaggle/earthquake&#45;animation&#45;with&#45;plotly/activity/2967609697866788771 -->
<g id="edge1" class="edge">
<title>http://purl.org/dj/kaggle/earthquake&#45;animation&#45;with&#45;plotly/activity/&#45;4894891398613633000&#45;&gt;http://purl.org/dj/kaggle/earthquake&#45;animation&#45;with&#45;plotly/activity/2967609697866788771</title>
<path fill="none" stroke="black" d="M170,-956.8C170,-945.16 170,-929.55 170,-916.24"/>
<polygon fill="black" stroke="black" points="173.5,-916.18 170,-906.18 166.5,-916.18 173.5,-916.18"/>
<text text-anchor="middle" x="193.5" y="-927.8" font-family="Times,serif" font-size="14.00">previous</text>
</g>
<!-- http://purl.org/dj/kaggle/earthquake&#45;animation&#45;with&#45;plotly/activity/4109087935190364881 -->
<g id="node3" class="node">
<title>http://purl.org/dj/kaggle/earthquake&#45;animation&#45;with&#45;plotly/activity/4109087935190364881</title>
<ellipse fill="none" stroke="black" cx="1376" cy="-801" rx="124.28" ry="18"/>
<text text-anchor="middle" x="1376" y="-797.3" font-family="Times,serif" font-size="14.00">4109087935190364881 (Reuse)</text>
</g>
<!-- http://purl.org/dj/kaggle/earthquake&#45;animation&#45;with&#45;plotly/activity/&#45;4894891398613633000&#45;&gt;http://purl.org/dj/kaggle/earthquake&#45;animation&#45;with&#45;plotly/activity/4109087935190364881 -->
<g id="edge2" class="edge">
<title>http://purl.org/dj/kaggle/earthquake&#45;animation&#45;with&#45;plotly/activity/&#45;4894891398613633000&#45;&gt;http://purl.org/dj/kaggle/earthquake&#45;animation&#45;with&#45;plotly/activity/4109087935190364881</title>
<path fill="none" stroke="black" d="M315.13,-973.46C710.52,-971.27 1780.85,-960.33 1833,-906 1844.08,-894.46 1843.45,-882.12 1833,-870 1791.9,-822.33 1629.47,-807.55 1509.9,-803.25"/>
<polygon fill="black" stroke="black" points="1509.67,-799.74 1499.55,-802.9 1509.43,-806.74 1509.67,-799.74"/>
<text text-anchor="middle" x="1864.5" y="-884.3" font-family="Times,serif" font-size="14.00">previous</text>
</g>
<!-- http://purl.org/dj/kaggle/earthquake&#45;animation&#45;with&#45;plotly/activity/5712092562808326866 -->
<g id="node4" class="node">
<title>http://purl.org/dj/kaggle/earthquake&#45;animation&#45;with&#45;plotly/activity/5712092562808326866</title>
<ellipse fill="none" stroke="black" cx="1065" cy="-453" rx="124.28" ry="18"/>
<text text-anchor="middle" x="1065" y="-449.3" font-family="Times,serif" font-size="14.00">5712092562808326866 (Reuse)</text>
</g>
<!-- http://purl.org/dj/kaggle/earthquake&#45;animation&#45;with&#45;plotly/activity/&#45;4894891398613633000&#45;&gt;http://purl.org/dj/kaggle/earthquake&#45;animation&#45;with&#45;plotly/activity/5712092562808326866 -->
<g id="edge3" class="edge">
<title>http://purl.org/dj/kaggle/earthquake&#45;animation&#45;with&#45;plotly/activity/&#45;4894891398613633000&#45;&gt;http://purl.org/dj/kaggle/earthquake&#45;animation&#45;with&#45;plotly/activity/5712092562808326866</title>
<path fill="none" stroke="black" d="M77.04,-961.05C37.35,-949.75 0,-928.6 0,-889 0,-889 0,-889 0,-539 0,-492.64 649.81,-466.84 934.27,-457.77"/>
<polygon fill="black" stroke="black" points="934.76,-461.26 944.64,-457.44 934.54,-454.26 934.76,-461.26"/>
<text text-anchor="middle" x="23.5" y="-710.3" font-family="Times,serif" font-size="14.00">previous</text>
</g>
<!-- http://purl.org/dj/kaggle/earthquake&#45;animation&#45;with&#45;plotly/activity/2967609697866788771&#45;&gt;http://purl.org/dj/kaggle/earthquake&#45;animation&#45;with&#45;plotly/activity/4109087935190364881 -->
<g id="edge4" class="edge">
<title>http://purl.org/dj/kaggle/earthquake&#45;animation&#45;with&#45;plotly/activity/2967609697866788771&#45;&gt;http://purl.org/dj/kaggle/earthquake&#45;animation&#45;with&#45;plotly/activity/4109087935190364881</title>
<path fill="none" stroke="black" d="M269.59,-875.19C286.41,-873.34 303.69,-871.54 320,-870 654.82,-838.34 1050.79,-817.19 1249.23,-807.7"/>
<polygon fill="black" stroke="black" points="1249.58,-811.19 1259.4,-807.22 1249.25,-804.2 1249.58,-811.19"/>
<text text-anchor="middle" x="749.5" y="-840.8" font-family="Times,serif" font-size="14.00">previous</text>
</g>
<!-- http://purl.org/dj/kaggle/earthquake&#45;animation&#45;with&#45;plotly/activity/8713605627316262415 -->
<g id="node5" class="node">
<title>http://purl.org/dj/kaggle/earthquake&#45;animation&#45;with&#45;plotly/activity/8713605627316262415</title>
<ellipse fill="none" stroke="black" cx="818" cy="-714" rx="142.97" ry="18"/>
<text text-anchor="middle" x="818" y="-710.3" font-family="Times,serif" font-size="14.00">8713605627316262415 (Preparation)</text>
</g>
<!-- http://purl.org/dj/kaggle/earthquake&#45;animation&#45;with&#45;plotly/activity/4109087935190364881&#45;&gt;http://purl.org/dj/kaggle/earthquake&#45;animation&#45;with&#45;plotly/activity/8713605627316262415 -->
<g id="edge5" class="edge">
<title>http://purl.org/dj/kaggle/earthquake&#45;animation&#45;with&#45;plotly/activity/4109087935190364881&#45;&gt;http://purl.org/dj/kaggle/earthquake&#45;animation&#45;with&#45;plotly/activity/8713605627316262415</title>
<path fill="none" stroke="black" d="M1259.18,-794.79C1165.4,-789.59 1041.77,-780.16 994,-765 981.28,-760.96 980.41,-754.9 968,-750 948.87,-742.44 927.7,-736.27 907.43,-731.33"/>
<polygon fill="black" stroke="black" points="908.11,-727.89 897.57,-729 906.5,-734.7 908.11,-727.89"/>
<text text-anchor="middle" x="1017.5" y="-753.8" font-family="Times,serif" font-size="14.00">previous</text>
</g>
<!-- http://purl.org/dj/kaggle/earthquake&#45;animation&#45;with&#45;plotly/activity/&#45;1429634897300252967 -->
<g id="node6" class="node">
<title>http://purl.org/dj/kaggle/earthquake&#45;animation&#45;with&#45;plotly/activity/&#45;1429634897300252967</title>
<ellipse fill="none" stroke="black" cx="1125" cy="-714" rx="145.67" ry="18"/>
<text text-anchor="middle" x="1125" y="-710.3" font-family="Times,serif" font-size="14.00">&#45;1429634897300252967 (Preparation)</text>
</g>
<!-- http://purl.org/dj/kaggle/earthquake&#45;animation&#45;with&#45;plotly/activity/4109087935190364881&#45;&gt;http://purl.org/dj/kaggle/earthquake&#45;animation&#45;with&#45;plotly/activity/&#45;1429634897300252967 -->
<g id="edge6" class="edge">
<title>http://purl.org/dj/kaggle/earthquake&#45;animation&#45;with&#45;plotly/activity/4109087935190364881&#45;&gt;http://purl.org/dj/kaggle/earthquake&#45;animation&#45;with&#45;plotly/activity/&#45;1429634897300252967</title>
<path fill="none" stroke="black" d="M1270.85,-791.38C1224.42,-785.93 1176.08,-777.5 1157,-765 1148.17,-759.22 1141.28,-750.06 1136.2,-741.15"/>
<polygon fill="black" stroke="black" points="1139.23,-739.4 1131.55,-732.11 1133.01,-742.6 1139.23,-739.4"/>
<text text-anchor="middle" x="1180.5" y="-753.8" font-family="Times,serif" font-size="14.00">previous</text>
</g>
<!-- http://purl.org/dj/kaggle/earthquake&#45;animation&#45;with&#45;plotly/activity/&#45;5811474209004942037 -->
<g id="node7" class="node">
<title>http://purl.org/dj/kaggle/earthquake&#45;animation&#45;with&#45;plotly/activity/&#45;5811474209004942037</title>
<ellipse fill="none" stroke="black" cx="1357" cy="-192" rx="145.67" ry="18"/>
<text text-anchor="middle" x="1357" y="-188.3" font-family="Times,serif" font-size="14.00">&#45;5811474209004942037 (Preparation)</text>
</g>
<!-- http://purl.org/dj/kaggle/earthquake&#45;animation&#45;with&#45;plotly/activity/4109087935190364881&#45;&gt;http://purl.org/dj/kaggle/earthquake&#45;animation&#45;with&#45;plotly/activity/&#45;5811474209004942037 -->
<g id="edge7" class="edge">
<title>http://purl.org/dj/kaggle/earthquake&#45;animation&#45;with&#45;plotly/activity/4109087935190364881&#45;&gt;http://purl.org/dj/kaggle/earthquake&#45;animation&#45;with&#45;plotly/activity/&#45;5811474209004942037</title>
<path fill="none" stroke="black" d="M1495.43,-795.99C1575,-791.7 1671.43,-782.91 1708,-765 1735.67,-751.45 1756,-745.8 1756,-715 1756,-715 1756,-715 1756,-278 1756,-225.19 1620.61,-205.06 1507.56,-197.46"/>
<polygon fill="black" stroke="black" points="1507.6,-193.96 1497.39,-196.81 1507.15,-200.94 1507.6,-193.96"/>
<text text-anchor="middle" x="1779.5" y="-492.8" font-family="Times,serif" font-size="14.00">previous</text>
</g>
<!-- http://purl.org/dj/kaggle/earthquake&#45;animation&#45;with&#45;plotly/activity/7263024917047768426 -->
<g id="node8" class="node">
<title>http://purl.org/dj/kaggle/earthquake&#45;animation&#45;with&#45;plotly/activity/7263024917047768426</title>
<ellipse fill="none" stroke="black" cx="1236" cy="-540" rx="142.97" ry="18"/>
<text text-anchor="middle" x="1236" y="-536.3" font-family="Times,serif" font-size="14.00">7263024917047768426 (Preparation)</text>
</g>
<!-- http://purl.org/dj/kaggle/earthquake&#45;animation&#45;with&#45;plotly/activity/4109087935190364881&#45;&gt;http://purl.org/dj/kaggle/earthquake&#45;animation&#45;with&#45;plotly/activity/7263024917047768426 -->
<g id="edge8" class="edge">
<title>http://purl.org/dj/kaggle/earthquake&#45;animation&#45;with&#45;plotly/activity/4109087935190364881&#45;&gt;http://purl.org/dj/kaggle/earthquake&#45;animation&#45;with&#45;plotly/activity/7263024917047768426</title>
<path fill="none" stroke="black" d="M1351.32,-783.26C1344.32,-777.88 1336.98,-771.6 1331,-765 1300.26,-731.12 1294.82,-719.7 1276,-678 1259.55,-641.55 1247.95,-596.61 1241.61,-568.37"/>
<polygon fill="black" stroke="black" points="1244.99,-567.45 1239.44,-558.42 1238.15,-568.94 1244.99,-567.45"/>
<text text-anchor="middle" x="1299.5" y="-666.8" font-family="Times,serif" font-size="14.00">previous</text>
</g>
<!-- http://purl.org/dj/kaggle/earthquake&#45;animation&#45;with&#45;plotly -->
<g id="node9" class="node">
<title>http://purl.org/dj/kaggle/earthquake&#45;animation&#45;with&#45;plotly</title>
<ellipse fill="none" stroke="black" cx="1652" cy="-18" rx="278.65" ry="18"/>
<text text-anchor="middle" x="1652" y="-14.3" font-family="Times,serif" font-size="14.00">earthquake&#45;animation&#45;with&#45;plotly (earthquake&#45;animation&#45;with&#45;plotly.ipynb)</text>
</g>
<!-- http://purl.org/dj/kaggle/earthquake&#45;animation&#45;with&#45;plotly/activity/4109087935190364881&#45;&gt;http://purl.org/dj/kaggle/earthquake&#45;animation&#45;with&#45;plotly -->
<g id="edge9" class="edge">
<title>http://purl.org/dj/kaggle/earthquake&#45;animation&#45;with&#45;plotly/activity/4109087935190364881&#45;&gt;http://purl.org/dj/kaggle/earthquake&#45;animation&#45;with&#45;plotly</title>
<path fill="none" stroke="black" d="M1482.77,-791.73C1575.16,-781.53 1694,-759.72 1694,-715 1694,-715 1694,-715 1694,-104 1694,-82.33 1682.9,-60.48 1672.11,-44.35"/>
<polygon fill="black" stroke="black" points="1674.85,-42.17 1666.22,-36.02 1669.13,-46.21 1674.85,-42.17"/>
<text text-anchor="middle" x="1717.5" y="-405.8" font-family="Times,serif" font-size="14.00">previous</text>
</g>
<!-- http://purl.org/dj/kaggle/earthquake&#45;animation&#45;with&#45;plotly/activity/&#45;5232762813201636248 -->
<g id="node10" class="node">
<title>http://purl.org/dj/kaggle/earthquake&#45;animation&#45;with&#45;plotly/activity/&#45;5232762813201636248</title>
<ellipse fill="none" stroke="black" cx="1295" cy="-366" rx="145.67" ry="18"/>
<text text-anchor="middle" x="1295" y="-362.3" font-family="Times,serif" font-size="14.00">&#45;5232762813201636248 (Preparation)</text>
</g>
<!-- http://purl.org/dj/kaggle/earthquake&#45;animation&#45;with&#45;plotly/activity/5712092562808326866&#45;&gt;http://purl.org/dj/kaggle/earthquake&#45;animation&#45;with&#45;plotly/activity/&#45;5232762813201636248 -->
<g id="edge10" class="edge">
<title>http://purl.org/dj/kaggle/earthquake&#45;animation&#45;with&#45;plotly/activity/5712092562808326866&#45;&gt;http://purl.org/dj/kaggle/earthquake&#45;animation&#45;with&#45;plotly/activity/&#45;5232762813201636248</title>
<path fill="none" stroke="black" d="M1107.99,-436.11C1145.79,-422.14 1200.95,-401.76 1241.57,-386.75"/>
<polygon fill="black" stroke="black" points="1242.88,-389.99 1251.05,-383.24 1240.45,-383.43 1242.88,-389.99"/>
<text text-anchor="middle" x="1217.5" y="-405.8" font-family="Times,serif" font-size="14.00">previous</text>
</g>
<!-- http://purl.org/dj/kaggle/earthquake&#45;animation&#45;with&#45;plotly/activity/8713605627316262415&#45;&gt;http://purl.org/dj/kaggle/earthquake&#45;animation&#45;with&#45;plotly/activity/4109087935190364881 -->
<g id="edge13" class="edge">
<title>http://purl.org/dj/kaggle/earthquake&#45;animation&#45;with&#45;plotly/activity/8713605627316262415&#45;&gt;http://purl.org/dj/kaggle/earthquake&#45;animation&#45;with&#45;plotly/activity/4109087935190364881</title>
<path fill="none" stroke="black" d="M914.29,-727.31C953.78,-733.09 999.8,-740.75 1041,-750 1064.05,-755.18 1068.86,-760.21 1092,-765 1147.18,-776.44 1209.22,-784.61 1261.21,-790.17"/>
<polygon fill="black" stroke="black" points="1261.16,-793.68 1271.47,-791.24 1261.89,-786.72 1261.16,-793.68"/>
<text text-anchor="middle" x="1115.5" y="-753.8" font-family="Times,serif" font-size="14.00">previous</text>
</g>
<!-- http://purl.org/dj/kaggle/earthquake&#45;animation&#45;with&#45;plotly/activity/8713605627316262415&#45;&gt;http://purl.org/dj/kaggle/earthquake&#45;animation&#45;with&#45;plotly/activity/5712092562808326866 -->
<g id="edge14" class="edge">
<title>http://purl.org/dj/kaggle/earthquake&#45;animation&#45;with&#45;plotly/activity/8713605627316262415&#45;&gt;http://purl.org/dj/kaggle/earthquake&#45;animation&#45;with&#45;plotly/activity/5712092562808326866</title>
<path fill="none" stroke="black" d="M864.11,-696.93C891.7,-685.62 926.11,-668.31 951,-645 1002.32,-596.94 1038.3,-520.63 1054.81,-480.56"/>
<polygon fill="black" stroke="black" points="1058.09,-481.78 1058.58,-471.2 1051.6,-479.16 1058.09,-481.78"/>
<text text-anchor="middle" x="1028.5" y="-579.8" font-family="Times,serif" font-size="14.00">previous</text>
</g>
<!-- http://purl.org/dj/kaggle/earthquake&#45;animation&#45;with&#45;plotly/activity/3406323763119939304 -->
<g id="node12" class="node">
<title>http://purl.org/dj/kaggle/earthquake&#45;animation&#45;with&#45;plotly/activity/3406323763119939304</title>
<ellipse fill="none" stroke="black" cx="818" cy="-627" rx="124.28" ry="18"/>
<text text-anchor="middle" x="818" y="-623.3" font-family="Times,serif" font-size="14.00">3406323763119939304 (Reuse)</text>
</g>
<!-- http://purl.org/dj/kaggle/earthquake&#45;animation&#45;with&#45;plotly/activity/8713605627316262415&#45;&gt;http://purl.org/dj/kaggle/earthquake&#45;animation&#45;with&#45;plotly/activity/3406323763119939304 -->
<g id="edge15" class="edge">
<title>http://purl.org/dj/kaggle/earthquake&#45;animation&#45;with&#45;plotly/activity/8713605627316262415&#45;&gt;http://purl.org/dj/kaggle/earthquake&#45;animation&#45;with&#45;plotly/activity/3406323763119939304</title>
<path fill="none" stroke="black" d="M818,-695.8C818,-684.16 818,-668.55 818,-655.24"/>
<polygon fill="black" stroke="black" points="821.5,-655.18 818,-645.18 814.5,-655.18 821.5,-655.18"/>
<text text-anchor="middle" x="841.5" y="-666.8" font-family="Times,serif" font-size="14.00">previous</text>
</g>
<!-- http://purl.org/dj/kaggle/earthquake&#45;animation&#45;with&#45;plotly/activity/&#45;1429634897300252967&#45;&gt;http://purl.org/dj/kaggle/earthquake&#45;animation&#45;with&#45;plotly/activity/4109087935190364881 -->
<g id="edge16" class="edge">
<title>http://purl.org/dj/kaggle/earthquake&#45;animation&#45;with&#45;plotly/activity/&#45;1429634897300252967&#45;&gt;http://purl.org/dj/kaggle/earthquake&#45;animation&#45;with&#45;plotly/activity/4109087935190364881</title>
<path fill="none" stroke="black" d="M1162.09,-731.43C1194.84,-745.94 1237.5,-764.83 1238,-765 1257.88,-771.86 1279.78,-778.03 1300.18,-783.21"/>
<polygon fill="black" stroke="black" points="1299.5,-786.64 1310.05,-785.67 1301.19,-779.85 1299.5,-786.64"/>
<text text-anchor="middle" x="1261.5" y="-753.8" font-family="Times,serif" font-size="14.00">previous</text>
</g>
<!-- http://purl.org/dj/kaggle/earthquake&#45;animation&#45;with&#45;plotly/activity/&#45;1429634897300252967&#45;&gt;http://purl.org/dj/kaggle/earthquake&#45;animation&#45;with&#45;plotly/activity/5712092562808326866 -->
<g id="edge17" class="edge">
<title>http://purl.org/dj/kaggle/earthquake&#45;animation&#45;with&#45;plotly/activity/&#45;1429634897300252967&#45;&gt;http://purl.org/dj/kaggle/earthquake&#45;animation&#45;with&#45;plotly/activity/5712092562808326866</title>
<path fill="none" stroke="black" d="M1120.01,-695.9C1111.81,-667.46 1095.28,-608.53 1084,-558 1078.21,-532.07 1072.89,-502.21 1069.37,-481.15"/>
<polygon fill="black" stroke="black" points="1072.77,-480.31 1067.69,-471.01 1065.87,-481.45 1072.77,-480.31"/>
<text text-anchor="middle" x="1115.5" y="-579.8" font-family="Times,serif" font-size="14.00">previous</text>
</g>
<!-- http://purl.org/dj/kaggle/earthquake&#45;animation&#45;with&#45;plotly/activity/&#45;1429634897300252967&#45;&gt;http://purl.org/dj/kaggle/earthquake&#45;animation&#45;with&#45;plotly/activity/3406323763119939304 -->
<g id="edge18" class="edge">
<title>http://purl.org/dj/kaggle/earthquake&#45;animation&#45;with&#45;plotly/activity/&#45;1429634897300252967&#45;&gt;http://purl.org/dj/kaggle/earthquake&#45;animation&#45;with&#45;plotly/activity/3406323763119939304</title>
<path fill="none" stroke="black" d="M1068.33,-697.31C1015.71,-682.74 937.41,-661.06 882.43,-645.84"/>
<polygon fill="black" stroke="black" points="883.36,-642.46 872.79,-643.17 881.49,-649.21 883.36,-642.46"/>
<text text-anchor="middle" x="1013.5" y="-666.8" font-family="Times,serif" font-size="14.00">previous</text>
</g>
<!-- http://purl.org/dj/kaggle/earthquake&#45;animation&#45;with&#45;plotly/activity/&#45;5811474209004942037&#45;&gt;http://purl.org/dj/kaggle/earthquake&#45;animation&#45;with&#45;plotly/activity/4109087935190364881 -->
<g id="edge20" class="edge">
<title>http://purl.org/dj/kaggle/earthquake&#45;animation&#45;with&#45;plotly/activity/&#45;5811474209004942037&#45;&gt;http://purl.org/dj/kaggle/earthquake&#45;animation&#45;with&#45;plotly/activity/4109087935190364881</title>
<path fill="none" stroke="black" d="M1406.45,-209.06C1436.45,-222.25 1469,-244.31 1469,-278 1469,-715 1469,-715 1469,-715 1469,-743.12 1445.54,-764.44 1422.19,-778.69"/>
<polygon fill="black" stroke="black" points="1420.22,-775.79 1413.29,-783.81 1423.7,-781.85 1420.22,-775.79"/>
<text text-anchor="middle" x="1492.5" y="-492.8" font-family="Times,serif" font-size="14.00">previous</text>
</g>
<!-- http://purl.org/dj/kaggle/earthquake&#45;animation&#45;with&#45;plotly/activity/5273995660266398143 -->
<g id="node13" class="node">
<title>http://purl.org/dj/kaggle/earthquake&#45;animation&#45;with&#45;plotly/activity/5273995660266398143</title>
<ellipse fill="none" stroke="black" cx="1227" cy="-105" rx="141.88" ry="18"/>
<text text-anchor="middle" x="1227" y="-101.3" font-family="Times,serif" font-size="14.00">5273995660266398143 (Movement)</text>
</g>
<!-- http://purl.org/dj/kaggle/earthquake&#45;animation&#45;with&#45;plotly/activity/&#45;5811474209004942037&#45;&gt;http://purl.org/dj/kaggle/earthquake&#45;animation&#45;with&#45;plotly/activity/5273995660266398143 -->
<g id="edge21" class="edge">
<title>http://purl.org/dj/kaggle/earthquake&#45;animation&#45;with&#45;plotly/activity/&#45;5811474209004942037&#45;&gt;http://purl.org/dj/kaggle/earthquake&#45;animation&#45;with&#45;plotly/activity/5273995660266398143</title>
<path fill="none" stroke="black" d="M1331.32,-174.21C1311.2,-161.05 1283.03,-142.63 1261.03,-128.25"/>
<polygon fill="black" stroke="black" points="1262.92,-125.3 1252.63,-122.76 1259.08,-131.16 1262.92,-125.3"/>
<text text-anchor="middle" x="1323.5" y="-144.8" font-family="Times,serif" font-size="14.00">previous</text>
</g>
<!-- http://purl.org/dj/kaggle/earthquake&#45;animation&#45;with&#45;plotly/activity/&#45;460270484231347107 -->
<g id="node14" class="node">
<title>http://purl.org/dj/kaggle/earthquake&#45;animation&#45;with&#45;plotly/activity/&#45;460270484231347107</title>
<ellipse fill="none" stroke="black" cx="1526" cy="-105" rx="139.98" ry="18"/>
<text text-anchor="middle" x="1526" y="-101.3" font-family="Times,serif" font-size="14.00">&#45;460270484231347107 (Movement)</text>
</g>
<!-- http://purl.org/dj/kaggle/earthquake&#45;animation&#45;with&#45;plotly/activity/&#45;5811474209004942037&#45;&gt;http://purl.org/dj/kaggle/earthquake&#45;animation&#45;with&#45;plotly/activity/&#45;460270484231347107 -->
<g id="edge22" class="edge">
<title>http://purl.org/dj/kaggle/earthquake&#45;animation&#45;with&#45;plotly/activity/&#45;5811474209004942037&#45;&gt;http://purl.org/dj/kaggle/earthquake&#45;animation&#45;with&#45;plotly/activity/&#45;460270484231347107</title>
<path fill="none" stroke="black" d="M1389.99,-174.41C1416.86,-160.89 1454.96,-141.73 1484.01,-127.12"/>
<polygon fill="black" stroke="black" points="1485.74,-130.17 1493.1,-122.55 1482.59,-123.92 1485.74,-130.17"/>
<text text-anchor="middle" x="1475.5" y="-144.8" font-family="Times,serif" font-size="14.00">previous</text>
</g>
<!-- http://purl.org/dj/kaggle/earthquake&#45;animation&#45;with&#45;plotly/activity/7263024917047768426&#45;&gt;http://purl.org/dj/kaggle/earthquake&#45;animation&#45;with&#45;plotly/activity/4109087935190364881 -->
<g id="edge27" class="edge">
<title>http://purl.org/dj/kaggle/earthquake&#45;animation&#45;with&#45;plotly/activity/7263024917047768426&#45;&gt;http://purl.org/dj/kaggle/earthquake&#45;animation&#45;with&#45;plotly/activity/4109087935190364881</title>
<path fill="none" stroke="black" d="M1250.45,-558.27C1269.05,-581.11 1301.53,-623.15 1323,-663 1342.72,-699.59 1358.81,-745.12 1367.9,-773.38"/>
<polygon fill="black" stroke="black" points="1364.58,-774.47 1370.93,-782.96 1371.25,-772.37 1364.58,-774.47"/>
<text text-anchor="middle" x="1353.5" y="-666.8" font-family="Times,serif" font-size="14.00">previous</text>
</g>
<!-- http://purl.org/dj/kaggle/earthquake&#45;animation&#45;with&#45;plotly/activity/7263024917047768426&#45;&gt;http://purl.org/dj/kaggle/earthquake&#45;animation&#45;with&#45;plotly/activity/5712092562808326866 -->
<g id="edge28" class="edge">
<title>http://purl.org/dj/kaggle/earthquake&#45;animation&#45;with&#45;plotly/activity/7263024917047768426&#45;&gt;http://purl.org/dj/kaggle/earthquake&#45;animation&#45;with&#45;plotly/activity/5712092562808326866</title>
<path fill="none" stroke="black" d="M1202.62,-522.41C1175.35,-508.85 1136.63,-489.6 1107.2,-474.98"/>
<polygon fill="black" stroke="black" points="1108.51,-471.72 1098,-470.4 1105.4,-477.99 1108.51,-471.72"/>
<text text-anchor="middle" x="1184.5" y="-492.8" font-family="Times,serif" font-size="14.00">previous</text>
</g>
<!-- http://purl.org/dj/kaggle/earthquake&#45;animation&#45;with&#45;plotly/activity/&#45;5232762813201636248&#45;&gt;http://purl.org/dj/kaggle/earthquake&#45;animation&#45;with&#45;plotly/activity/4109087935190364881 -->
<g id="edge30" class="edge">
<title>http://purl.org/dj/kaggle/earthquake&#45;animation&#45;with&#45;plotly/activity/&#45;5232762813201636248&#45;&gt;http://purl.org/dj/kaggle/earthquake&#45;animation&#45;with&#45;plotly/activity/4109087935190364881</title>
<path fill="none" stroke="black" d="M1344.45,-383.06C1374.45,-396.25 1407,-418.31 1407,-452 1407,-715 1407,-715 1407,-715 1407,-735.62 1398.85,-757.43 1390.91,-773.8"/>
<polygon fill="black" stroke="black" points="1387.77,-772.26 1386.32,-782.76 1394,-775.46 1387.77,-772.26"/>
<text text-anchor="middle" x="1430.5" y="-579.8" font-family="Times,serif" font-size="14.00">previous</text>
</g>
<!-- http://purl.org/dj/kaggle/earthquake&#45;animation&#45;with&#45;plotly/activity/896378548292354047 -->
<g id="node17" class="node">
<title>http://purl.org/dj/kaggle/earthquake&#45;animation&#45;with&#45;plotly/activity/896378548292354047</title>
<ellipse fill="none" stroke="black" cx="1308" cy="-279" rx="119.68" ry="18"/>
<text text-anchor="middle" x="1308" y="-275.3" font-family="Times,serif" font-size="14.00">896378548292354047 (Reuse)</text>
</g>
<!-- http://purl.org/dj/kaggle/earthquake&#45;animation&#45;with&#45;plotly/activity/&#45;5232762813201636248&#45;&gt;http://purl.org/dj/kaggle/earthquake&#45;animation&#45;with&#45;plotly/activity/896378548292354047 -->
<g id="edge31" class="edge">
<title>http://purl.org/dj/kaggle/earthquake&#45;animation&#45;with&#45;plotly/activity/&#45;5232762813201636248&#45;&gt;http://purl.org/dj/kaggle/earthquake&#45;animation&#45;with&#45;plotly/activity/896378548292354047</title>
<path fill="none" stroke="black" d="M1297.63,-347.8C1299.41,-336.16 1301.8,-320.55 1303.83,-307.24"/>
<polygon fill="black" stroke="black" points="1307.32,-307.59 1305.37,-297.18 1300.4,-306.53 1307.32,-307.59"/>
<text text-anchor="middle" x="1326.5" y="-318.8" font-family="Times,serif" font-size="14.00">previous</text>
</g>
<!-- http://purl.org/dj/kaggle/earthquake&#45;animation&#45;with&#45;plotly/activity/&#45;4735312170093778795 -->
<g id="node11" class="node">
<title>http://purl.org/dj/kaggle/earthquake&#45;animation&#45;with&#45;plotly/activity/&#45;4735312170093778795</title>
<ellipse fill="none" stroke="black" cx="872" cy="-801" rx="126.98" ry="18"/>
<text text-anchor="middle" x="872" y="-797.3" font-family="Times,serif" font-size="14.00">&#45;4735312170093778795 (Reuse)</text>
</g>
<!-- http://purl.org/dj/kaggle/earthquake&#45;animation&#45;with&#45;plotly/activity/&#45;4735312170093778795&#45;&gt;http://purl.org/dj/kaggle/earthquake&#45;animation&#45;with&#45;plotly/activity/8713605627316262415 -->
<g id="edge11" class="edge">
<title>http://purl.org/dj/kaggle/earthquake&#45;animation&#45;with&#45;plotly/activity/&#45;4735312170093778795&#45;&gt;http://purl.org/dj/kaggle/earthquake&#45;animation&#45;with&#45;plotly/activity/8713605627316262415</title>
<path fill="none" stroke="black" d="M857.35,-783.06C852.83,-777.48 847.99,-771.13 844,-765 839.14,-757.54 834.45,-749.06 830.43,-741.24"/>
<polygon fill="black" stroke="black" points="833.47,-739.51 825.88,-732.13 827.21,-742.64 833.47,-739.51"/>
<text text-anchor="middle" x="867.5" y="-753.8" font-family="Times,serif" font-size="14.00">previous</text>
</g>
<!-- http://purl.org/dj/kaggle/earthquake&#45;animation&#45;with&#45;plotly/activity/&#45;4735312170093778795&#45;&gt;http://purl.org/dj/kaggle/earthquake&#45;animation&#45;with&#45;plotly/activity/&#45;1429634897300252967 -->
<g id="edge12" class="edge">
<title>http://purl.org/dj/kaggle/earthquake&#45;animation&#45;with&#45;plotly/activity/&#45;4735312170093778795&#45;&gt;http://purl.org/dj/kaggle/earthquake&#45;animation&#45;with&#45;plotly/activity/&#45;1429634897300252967</title>
<path fill="none" stroke="black" d="M884.17,-782.89C893.07,-771.71 906.14,-757.79 921,-750 937.51,-741.35 974.13,-733.96 1011.86,-728.24"/>
<polygon fill="black" stroke="black" points="1012.6,-731.66 1021.99,-726.74 1011.58,-724.74 1012.6,-731.66"/>
<text text-anchor="middle" x="944.5" y="-753.8" font-family="Times,serif" font-size="14.00">previous</text>
</g>
<!-- http://purl.org/dj/kaggle/earthquake&#45;animation&#45;with&#45;plotly/activity/3406323763119939304&#45;&gt;http://purl.org/dj/kaggle/earthquake&#45;animation&#45;with&#45;plotly/activity/7263024917047768426 -->
<g id="edge19" class="edge">
<title>http://purl.org/dj/kaggle/earthquake&#45;animation&#45;with&#45;plotly/activity/3406323763119939304&#45;&gt;http://purl.org/dj/kaggle/earthquake&#45;animation&#45;with&#45;plotly/activity/7263024917047768426</title>
<path fill="none" stroke="black" d="M839.93,-609.11C855.94,-597.73 878.67,-583.48 901,-576 937.15,-563.89 1023.39,-555.04 1099.31,-549.27"/>
<polygon fill="black" stroke="black" points="1099.76,-552.74 1109.47,-548.51 1099.24,-545.76 1099.76,-552.74"/>
<text text-anchor="middle" x="924.5" y="-579.8" font-family="Times,serif" font-size="14.00">previous</text>
</g>
<!-- http://purl.org/dj/kaggle/earthquake&#45;animation&#45;with&#45;plotly/activity/5273995660266398143&#45;&gt;http://purl.org/dj/kaggle/earthquake&#45;animation&#45;with&#45;plotly/activity/4109087935190364881 -->
<g id="edge23" class="edge">
<title>http://purl.org/dj/kaggle/earthquake&#45;animation&#45;with&#45;plotly/activity/5273995660266398143&#45;&gt;http://purl.org/dj/kaggle/earthquake&#45;animation&#45;with&#45;plotly/activity/4109087935190364881</title>
<path fill="none" stroke="black" d="M1329.28,-117.48C1400.73,-125.76 1486.23,-136.28 1503,-141 1555.08,-155.68 1614,-136.89 1614,-191 1614,-715 1614,-715 1614,-715 1614,-752.87 1579.65,-749.71 1545,-765 1523.53,-774.47 1499.39,-781.43 1476.21,-786.52"/>
<polygon fill="black" stroke="black" points="1475.41,-783.11 1466.34,-788.58 1476.85,-789.96 1475.41,-783.11"/>
<text text-anchor="middle" x="1637.5" y="-449.3" font-family="Times,serif" font-size="14.00">previous</text>
</g>
<!-- http://purl.org/dj/kaggle/earthquake&#45;animation&#45;with&#45;plotly/activity/&#45;460270484231347107&#45;&gt;http://purl.org/dj/kaggle/earthquake&#45;animation&#45;with&#45;plotly/activity/4109087935190364881 -->
<g id="edge24" class="edge">
<title>http://purl.org/dj/kaggle/earthquake&#45;animation&#45;with&#45;plotly/activity/&#45;460270484231347107&#45;&gt;http://purl.org/dj/kaggle/earthquake&#45;animation&#45;with&#45;plotly/activity/4109087935190364881</title>
<path fill="none" stroke="black" d="M1527.61,-123.24C1529.07,-140.4 1531,-167.5 1531,-191 1531,-715 1531,-715 1531,-715 1531,-750.77 1498.88,-771.59 1463.88,-783.65"/>
<polygon fill="black" stroke="black" points="1462.41,-780.45 1453.95,-786.83 1464.55,-787.11 1462.41,-780.45"/>
<text text-anchor="middle" x="1554.5" y="-449.3" font-family="Times,serif" font-size="14.00">previous</text>
</g>
<!-- http://purl.org/dj/kaggle/earthquake&#45;animation&#45;with&#45;plotly/activity/&#45;460270484231347107&#45;&gt;http://purl.org/dj/kaggle/earthquake&#45;animation&#45;with&#45;plotly -->
<g id="edge25" class="edge">
<title>http://purl.org/dj/kaggle/earthquake&#45;animation&#45;with&#45;plotly/activity/&#45;460270484231347107&#45;&gt;http://purl.org/dj/kaggle/earthquake&#45;animation&#45;with&#45;plotly</title>
<path fill="none" stroke="black" d="M1550.89,-87.21C1570.18,-74.19 1597.1,-56.03 1618.32,-41.72"/>
<polygon fill="black" stroke="black" points="1620.39,-44.54 1626.73,-36.05 1616.48,-38.74 1620.39,-44.54"/>
<text text-anchor="middle" x="1620.5" y="-57.8" font-family="Times,serif" font-size="14.00">previous</text>
</g>
<!-- http://purl.org/dj/kaggle/earthquake&#45;animation&#45;with&#45;plotly/activity/&#45;752836885702838201 -->
<g id="node15" class="node">
<title>http://purl.org/dj/kaggle/earthquake&#45;animation&#45;with&#45;plotly/activity/&#45;752836885702838201</title>
<ellipse fill="none" stroke="black" cx="469" cy="-888" rx="139.98" ry="18"/>
<text text-anchor="middle" x="469" y="-884.3" font-family="Times,serif" font-size="14.00">&#45;752836885702838201 (Movement)</text>
</g>
<!-- http://purl.org/dj/kaggle/earthquake&#45;animation&#45;with&#45;plotly/activity/&#45;752836885702838201&#45;&gt;http://purl.org/dj/kaggle/earthquake&#45;animation&#45;with&#45;plotly/activity/4109087935190364881 -->
<g id="edge26" class="edge">
<title>http://purl.org/dj/kaggle/earthquake&#45;animation&#45;with&#45;plotly/activity/&#45;752836885702838201&#45;&gt;http://purl.org/dj/kaggle/earthquake&#45;animation&#45;with&#45;plotly/activity/4109087935190364881</title>
<path fill="none" stroke="black" d="M568.35,-875.33C584.92,-873.48 601.94,-871.64 618,-870 845.59,-846.81 1112.07,-823.88 1260.72,-811.47"/>
<polygon fill="black" stroke="black" points="1261.1,-814.95 1270.78,-810.63 1260.52,-807.98 1261.1,-814.95"/>
<text text-anchor="middle" x="974.5" y="-840.8" font-family="Times,serif" font-size="14.00">previous</text>
</g>
<!-- http://purl.org/dj/kaggle/earthquake&#45;animation&#45;with&#45;plotly/activity/&#45;8039989277742691151 -->
<g id="node16" class="node">
<title>http://purl.org/dj/kaggle/earthquake&#45;animation&#45;with&#45;plotly/activity/&#45;8039989277742691151</title>
<ellipse fill="none" stroke="black" cx="771" cy="-888" rx="144.07" ry="18"/>
<text text-anchor="middle" x="771" y="-884.3" font-family="Times,serif" font-size="14.00">&#45;8039989277742691151 (Movement)</text>
</g>
<!-- http://purl.org/dj/kaggle/earthquake&#45;animation&#45;with&#45;plotly/activity/&#45;8039989277742691151&#45;&gt;http://purl.org/dj/kaggle/earthquake&#45;animation&#45;with&#45;plotly/activity/4109087935190364881 -->
<g id="edge29" class="edge">
<title>http://purl.org/dj/kaggle/earthquake&#45;animation&#45;with&#45;plotly/activity/&#45;8039989277742691151&#45;&gt;http://purl.org/dj/kaggle/earthquake&#45;animation&#45;with&#45;plotly/activity/4109087935190364881</title>
<path fill="none" stroke="black" d="M862.89,-874.09C975.51,-858.27 1165.47,-831.58 1279.96,-815.49"/>
<polygon fill="black" stroke="black" points="1280.7,-818.92 1290.12,-814.07 1279.73,-811.99 1280.7,-818.92"/>
<text text-anchor="middle" x="1133.5" y="-840.8" font-family="Times,serif" font-size="14.00">previous</text>
</g>
<!-- http://purl.org/dj/kaggle/earthquake&#45;animation&#45;with&#45;plotly/activity/896378548292354047&#45;&gt;http://purl.org/dj/kaggle/earthquake&#45;animation&#45;with&#45;plotly/activity/&#45;5811474209004942037 -->
<g id="edge32" class="edge">
<title>http://purl.org/dj/kaggle/earthquake&#45;animation&#45;with&#45;plotly/activity/896378548292354047&#45;&gt;http://purl.org/dj/kaggle/earthquake&#45;animation&#45;with&#45;plotly/activity/&#45;5811474209004942037</title>
<path fill="none" stroke="black" d="M1317.92,-260.8C1324.82,-248.82 1334.16,-232.62 1341.98,-219.06"/>
<polygon fill="black" stroke="black" points="1345.14,-220.59 1347.1,-210.18 1339.07,-217.09 1345.14,-220.59"/>
<text text-anchor="middle" x="1359.5" y="-231.8" font-family="Times,serif" font-size="14.00">previous</text>
</g>
<!-- http://purl.org/dj/kaggle/earthquake&#45;animation&#45;with&#45;plotly/activity/7172194924768060631 -->
<g id="node18" class="node">
<title>http://purl.org/dj/kaggle/earthquake&#45;animation&#45;with&#45;plotly/activity/7172194924768060631</title>
<ellipse fill="none" stroke="black" cx="1075" cy="-888" rx="141.88" ry="18"/>
<text text-anchor="middle" x="1075" y="-884.3" font-family="Times,serif" font-size="14.00">7172194924768060631 (Movement)</text>
</g>
<!-- http://purl.org/dj/kaggle/earthquake&#45;animation&#45;with&#45;plotly/activity/7172194924768060631&#45;&gt;http://purl.org/dj/kaggle/earthquake&#45;animation&#45;with&#45;plotly/activity/4109087935190364881 -->
<g id="edge33" class="edge">
<title>http://purl.org/dj/kaggle/earthquake&#45;animation&#45;with&#45;plotly/activity/7172194924768060631&#45;&gt;http://purl.org/dj/kaggle/earthquake&#45;animation&#45;with&#45;plotly/activity/4109087935190364881</title>
<path fill="none" stroke="black" d="M1130.21,-871.41C1181.58,-856.9 1258.1,-835.29 1312.09,-820.05"/>
<polygon fill="black" stroke="black" points="1313.23,-823.36 1321.9,-817.28 1311.33,-816.63 1313.23,-823.36"/>
<text text-anchor="middle" x="1267.5" y="-840.8" font-family="Times,serif" font-size="14.00">previous</text>
</g>
<!-- http://purl.org/dj/kaggle/earthquake&#45;animation&#45;with&#45;plotly/activity/5148747585398627772 -->
<g id="node19" class="node">
<title>http://purl.org/dj/kaggle/earthquake&#45;animation&#45;with&#45;plotly/activity/5148747585398627772</title>
<ellipse fill="none" stroke="black" cx="2150" cy="-975" rx="148.67" ry="18"/>
<text text-anchor="middle" x="2150" y="-971.3" font-family="Times,serif" font-size="14.00">5148747585398627772 (Visualisation)</text>
</g>
<!-- http://purl.org/dj/kaggle/earthquake&#45;animation&#45;with&#45;plotly/activity/5148747585398627772&#45;&gt;http://purl.org/dj/kaggle/earthquake&#45;animation&#45;with&#45;plotly/activity/4109087935190364881 -->
<g id="edge34" class="edge">
<title>http://purl.org/dj/kaggle/earthquake&#45;animation&#45;with&#45;plotly/activity/5148747585398627772&#45;&gt;http://purl.org/dj/kaggle/earthquake&#45;animation&#45;with&#45;plotly/activity/4109087935190364881</title>
<path fill="none" stroke="black" d="M2085.27,-958.72C2045.19,-947.61 1993.61,-930.24 1952,-906 1912.01,-882.7 1916.68,-854.9 1874,-837 1810.68,-810.44 1634.94,-803.35 1510.22,-801.8"/>
<polygon fill="black" stroke="black" points="1510.24,-798.3 1500.2,-801.69 1510.16,-805.3 1510.24,-798.3"/>
<text text-anchor="middle" x="1975.5" y="-884.3" font-family="Times,serif" font-size="14.00">previous</text>
</g>
<!-- http://purl.org/dj/kaggle/earthquake&#45;animation&#45;with&#45;plotly/activity/5148747585398627772&#45;&gt;http://purl.org/dj/kaggle/earthquake&#45;animation&#45;with&#45;plotly/activity/&#45;460270484231347107 -->
<g id="edge35" class="edge">
<title>http://purl.org/dj/kaggle/earthquake&#45;animation&#45;with&#45;plotly/activity/5148747585398627772&#45;&gt;http://purl.org/dj/kaggle/earthquake&#45;animation&#45;with&#45;plotly/activity/&#45;460270484231347107</title>
<path fill="none" stroke="black" d="M2243.45,-960.91C2282.96,-949.57 2320,-928.43 2320,-889 2320,-889 2320,-889 2320,-191 2320,-126.88 1905.35,-111.04 1675.35,-107.19"/>
<polygon fill="black" stroke="black" points="1675.27,-103.69 1665.21,-107.03 1675.15,-110.69 1675.27,-103.69"/>
<text text-anchor="middle" x="2343.5" y="-536.3" font-family="Times,serif" font-size="14.00">previous</text>
</g>
<!-- http://purl.org/dj/kaggle/earthquake&#45;animation&#45;with&#45;plotly/activity/5247857433885150197 -->
<g id="node20" class="node">
<title>http://purl.org/dj/kaggle/earthquake&#45;animation&#45;with&#45;plotly/activity/5247857433885150197</title>
<ellipse fill="none" stroke="black" cx="2150" cy="-888" rx="141.88" ry="18"/>
<text text-anchor="middle" x="2150" y="-884.3" font-family="Times,serif" font-size="14.00">5247857433885150197 (Movement)</text>
</g>
<!-- http://purl.org/dj/kaggle/earthquake&#45;animation&#45;with&#45;plotly/activity/5148747585398627772&#45;&gt;http://purl.org/dj/kaggle/earthquake&#45;animation&#45;with&#45;plotly/activity/5247857433885150197 -->
<g id="edge36" class="edge">
<title>http://purl.org/dj/kaggle/earthquake&#45;animation&#45;with&#45;plotly/activity/5148747585398627772&#45;&gt;http://purl.org/dj/kaggle/earthquake&#45;animation&#45;with&#45;plotly/activity/5247857433885150197</title>
<path fill="none" stroke="black" d="M2150,-956.8C2150,-945.16 2150,-929.55 2150,-916.24"/>
<polygon fill="black" stroke="black" points="2153.5,-916.18 2150,-906.18 2146.5,-916.18 2153.5,-916.18"/>
<text text-anchor="middle" x="2173.5" y="-927.8" font-family="Times,serif" font-size="14.00">previous</text>
</g>
<!-- http://purl.org/dj/kaggle/earthquake&#45;animation&#45;with&#45;plotly/activity/5247857433885150197&#45;&gt;http://purl.org/dj/kaggle/earthquake&#45;animation&#45;with&#45;plotly/activity/4109087935190364881 -->
<g id="edge37" class="edge">
<title>http://purl.org/dj/kaggle/earthquake&#45;animation&#45;with&#45;plotly/activity/5247857433885150197&#45;&gt;http://purl.org/dj/kaggle/earthquake&#45;animation&#45;with&#45;plotly/activity/4109087935190364881</title>
<path fill="none" stroke="black" d="M2099.77,-871.13C2061.14,-859.63 2006.23,-844.78 1957,-837 1804.98,-812.96 1628.19,-805.14 1509.91,-802.74"/>
<polygon fill="black" stroke="black" points="1509.79,-799.24 1499.72,-802.55 1509.65,-806.24 1509.79,-799.24"/>
<text text-anchor="middle" x="2049.5" y="-840.8" font-family="Times,serif" font-size="14.00">previous</text>
</g>
<!-- http://purl.org/dj/kaggle/earthquake&#45;animation&#45;with&#45;plotly/activity/5243013197104666356 -->
<g id="node21" class="node">
<title>http://purl.org/dj/kaggle/earthquake&#45;animation&#45;with&#45;plotly/activity/5243013197104666356</title>
<ellipse fill="none" stroke="black" cx="1376" cy="-888" rx="141.88" ry="18"/>
<text text-anchor="middle" x="1376" y="-884.3" font-family="Times,serif" font-size="14.00">5243013197104666356 (Movement)</text>
</g>
<!-- http://purl.org/dj/kaggle/earthquake&#45;animation&#45;with&#45;plotly/activity/5243013197104666356&#45;&gt;http://purl.org/dj/kaggle/earthquake&#45;animation&#45;with&#45;plotly/activity/4109087935190364881 -->
<g id="edge38" class="edge">
<title>http://purl.org/dj/kaggle/earthquake&#45;animation&#45;with&#45;plotly/activity/5243013197104666356&#45;&gt;http://purl.org/dj/kaggle/earthquake&#45;animation&#45;with&#45;plotly/activity/4109087935190364881</title>
<path fill="none" stroke="black" d="M1376,-869.8C1376,-858.16 1376,-842.55 1376,-829.24"/>
<polygon fill="black" stroke="black" points="1379.5,-829.18 1376,-819.18 1372.5,-829.18 1379.5,-829.18"/>
<text text-anchor="middle" x="1399.5" y="-840.8" font-family="Times,serif" font-size="14.00">previous</text>
</g>
<!-- http://purl.org/dj/kaggle/earthquake&#45;animation&#45;with&#45;plotly/activity/&#45;3206483925722124003 -->
<g id="node22" class="node">
<title>http://purl.org/dj/kaggle/earthquake&#45;animation&#45;with&#45;plotly/activity/&#45;3206483925722124003</title>
<ellipse fill="none" stroke="black" cx="1680" cy="-888" rx="144.07" ry="18"/>
<text text-anchor="middle" x="1680" y="-884.3" font-family="Times,serif" font-size="14.00">&#45;3206483925722124003 (Movement)</text>
</g>
<!-- http://purl.org/dj/kaggle/earthquake&#45;animation&#45;with&#45;plotly/activity/&#45;3206483925722124003&#45;&gt;http://purl.org/dj/kaggle/earthquake&#45;animation&#45;with&#45;plotly/activity/4109087935190364881 -->
<g id="edge39" class="edge">
<title>http://purl.org/dj/kaggle/earthquake&#45;animation&#45;with&#45;plotly/activity/&#45;3206483925722124003&#45;&gt;http://purl.org/dj/kaggle/earthquake&#45;animation&#45;with&#45;plotly/activity/4109087935190364881</title>
<path fill="none" stroke="black" d="M1623.89,-871.31C1571.96,-856.79 1494.8,-835.22 1440.39,-820"/>
<polygon fill="black" stroke="black" points="1441.08,-816.56 1430.51,-817.24 1439.19,-823.3 1441.08,-816.56"/>
<text text-anchor="middle" x="1570.5" y="-840.8" font-family="Times,serif" font-size="14.00">previous</text>
</g>
</g>
</svg>
