<?xml version="1.0" encoding="UTF-8" standalone="no"?>
<!DOCTYPE svg PUBLIC "-//W3C//DTD SVG 1.1//EN"
 "http://www.w3.org/Graphics/SVG/1.1/DTD/svg11.dtd">
<!-- Generated by graphviz version 2.47.1 (20210417.1919)
 -->
<!-- Pages: 1 -->
<svg width="798pt" height="392pt"
 viewBox="0.00 0.00 797.88 392.00" xmlns="http://www.w3.org/2000/svg" xmlns:xlink="http://www.w3.org/1999/xlink">
<g id="graph0" class="graph" transform="scale(1 1) rotate(0) translate(4 388)">
<polygon fill="white" stroke="transparent" points="-4,4 -4,-388 793.88,-388 793.88,4 -4,4"/>
<!-- http://purl.org/dj/kaggle/eda&#45;nfl/activity/&#45;355452033425310337 -->
<g id="node1" class="node">
<title>http://purl.org/dj/kaggle/eda&#45;nfl/activity/&#45;355452033425310337</title>
<ellipse fill="none" stroke="black" cx="139.74" cy="-366" rx="139.98" ry="18"/>
<text text-anchor="middle" x="139.74" y="-362.3" font-family="Times,serif" font-size="14.00">&#45;355452033425310337 (Movement)</text>
</g>
<!-- http://purl.org/dj/kaggle/eda&#45;nfl/activity/7539769948850425116 -->
<g id="node2" class="node">
<title>http://purl.org/dj/kaggle/eda&#45;nfl/activity/7539769948850425116</title>
<ellipse fill="none" stroke="black" cx="399.74" cy="-279" rx="124.28" ry="18"/>
<text text-anchor="middle" x="399.74" y="-275.3" font-family="Times,serif" font-size="14.00">7539769948850425116 (Reuse)</text>
</g>
<!-- http://purl.org/dj/kaggle/eda&#45;nfl/activity/&#45;355452033425310337&#45;&gt;http://purl.org/dj/kaggle/eda&#45;nfl/activity/7539769948850425116 -->
<g id="edge1" class="edge">
<title>http://purl.org/dj/kaggle/eda&#45;nfl/activity/&#45;355452033425310337&#45;&gt;http://purl.org/dj/kaggle/eda&#45;nfl/activity/7539769948850425116</title>
<path fill="none" stroke="black" d="M188.34,-349.11C231.97,-334.85 296.08,-313.89 342.25,-298.79"/>
<polygon fill="black" stroke="black" points="343.4,-302.1 351.82,-295.67 341.22,-295.45 343.4,-302.1"/>
<text text-anchor="middle" x="309.24" y="-318.8" font-family="Times,serif" font-size="14.00">previous</text>
</g>
<!-- http://purl.org/dj/kaggle/eda&#45;nfl/activity/&#45;4182813916203766567 -->
<g id="node3" class="node">
<title>http://purl.org/dj/kaggle/eda&#45;nfl/activity/&#45;4182813916203766567</title>
<ellipse fill="none" stroke="black" cx="554.74" cy="-192" rx="151.37" ry="18"/>
<text text-anchor="middle" x="554.74" y="-188.3" font-family="Times,serif" font-size="14.00">&#45;4182813916203766567 (Visualisation)</text>
</g>
<!-- http://purl.org/dj/kaggle/eda&#45;nfl/activity/7539769948850425116&#45;&gt;http://purl.org/dj/kaggle/eda&#45;nfl/activity/&#45;4182813916203766567 -->
<g id="edge2" class="edge">
<title>http://purl.org/dj/kaggle/eda&#45;nfl/activity/7539769948850425116&#45;&gt;http://purl.org/dj/kaggle/eda&#45;nfl/activity/&#45;4182813916203766567</title>
<path fill="none" stroke="black" d="M423.43,-261.26C438.37,-251.04 458.26,-238.07 476.74,-228 485.92,-223 495.96,-218.09 505.69,-213.62"/>
<polygon fill="black" stroke="black" points="507.21,-216.77 514.88,-209.47 504.33,-210.39 507.21,-216.77"/>
<text text-anchor="middle" x="500.24" y="-231.8" font-family="Times,serif" font-size="14.00">previous</text>
</g>
<!-- http://purl.org/dj/kaggle/eda&#45;nfl -->
<g id="node4" class="node">
<title>http://purl.org/dj/kaggle/eda&#45;nfl</title>
<ellipse fill="none" stroke="black" cx="294.74" cy="-192" rx="90.18" ry="18"/>
<text text-anchor="middle" x="294.74" y="-188.3" font-family="Times,serif" font-size="14.00">eda&#45;nfl (eda&#45;nfl.ipynb)</text>
</g>
<!-- http://purl.org/dj/kaggle/eda&#45;nfl/activity/7539769948850425116&#45;&gt;http://purl.org/dj/kaggle/eda&#45;nfl -->
<g id="edge3" class="edge">
<title>http://purl.org/dj/kaggle/eda&#45;nfl/activity/7539769948850425116&#45;&gt;http://purl.org/dj/kaggle/eda&#45;nfl</title>
<path fill="none" stroke="black" d="M378.99,-261.21C363.17,-248.4 341.19,-230.61 323.65,-216.4"/>
<polygon fill="black" stroke="black" points="325.41,-213.33 315.44,-209.76 321.01,-218.77 325.41,-213.33"/>
<text text-anchor="middle" x="377.24" y="-231.8" font-family="Times,serif" font-size="14.00">previous</text>
</g>
<!-- http://purl.org/dj/kaggle/eda&#45;nfl/activity/&#45;4182813916203766567&#45;&gt;http://purl.org/dj/kaggle/eda&#45;nfl/activity/7539769948850425116 -->
<g id="edge4" class="edge">
<title>http://purl.org/dj/kaggle/eda&#45;nfl/activity/&#45;4182813916203766567&#45;&gt;http://purl.org/dj/kaggle/eda&#45;nfl/activity/7539769948850425116</title>
<path fill="none" stroke="black" d="M548,-210.15C542.89,-221.05 534.83,-234.64 523.74,-243 513.27,-250.88 501.1,-256.99 488.56,-261.72"/>
<polygon fill="black" stroke="black" points="487.21,-258.48 478.92,-265.08 489.51,-265.1 487.21,-258.48"/>
<text text-anchor="middle" x="560.24" y="-231.8" font-family="Times,serif" font-size="14.00">previous</text>
</g>
<!-- http://purl.org/dj/kaggle/eda&#45;nfl/activity/&#45;7071559000524548643 -->
<g id="node5" class="node">
<title>http://purl.org/dj/kaggle/eda&#45;nfl/activity/&#45;7071559000524548643</title>
<ellipse fill="none" stroke="black" cx="424.74" cy="-105" rx="126.98" ry="18"/>
<text text-anchor="middle" x="424.74" y="-101.3" font-family="Times,serif" font-size="14.00">&#45;7071559000524548643 (Reuse)</text>
</g>
<!-- http://purl.org/dj/kaggle/eda&#45;nfl/activity/&#45;4182813916203766567&#45;&gt;http://purl.org/dj/kaggle/eda&#45;nfl/activity/&#45;7071559000524548643 -->
<g id="edge5" class="edge">
<title>http://purl.org/dj/kaggle/eda&#45;nfl/activity/&#45;4182813916203766567&#45;&gt;http://purl.org/dj/kaggle/eda&#45;nfl/activity/&#45;7071559000524548643</title>
<path fill="none" stroke="black" d="M529.05,-174.21C508.93,-161.05 480.76,-142.63 458.77,-128.25"/>
<polygon fill="black" stroke="black" points="460.65,-125.3 450.37,-122.76 456.82,-131.16 460.65,-125.3"/>
<text text-anchor="middle" x="520.24" y="-144.8" font-family="Times,serif" font-size="14.00">previous</text>
</g>
<!-- http://purl.org/dj/kaggle/eda&#45;nfl/activity/&#45;8667783282186740892 -->
<g id="node6" class="node">
<title>http://purl.org/dj/kaggle/eda&#45;nfl/activity/&#45;8667783282186740892</title>
<ellipse fill="none" stroke="black" cx="155.74" cy="-18" rx="145.67" ry="18"/>
<text text-anchor="middle" x="155.74" y="-14.3" font-family="Times,serif" font-size="14.00">&#45;8667783282186740892 (Preparation)</text>
</g>
<!-- http://purl.org/dj/kaggle/eda&#45;nfl/activity/&#45;7071559000524548643&#45;&gt;http://purl.org/dj/kaggle/eda&#45;nfl/activity/&#45;8667783282186740892 -->
<g id="edge6" class="edge">
<title>http://purl.org/dj/kaggle/eda&#45;nfl/activity/&#45;7071559000524548643&#45;&gt;http://purl.org/dj/kaggle/eda&#45;nfl/activity/&#45;8667783282186740892</title>
<path fill="none" stroke="black" d="M375.4,-88.41C330.42,-74.2 263.85,-53.16 215.79,-37.98"/>
<polygon fill="black" stroke="black" points="216.72,-34.6 206.13,-34.92 214.61,-41.27 216.72,-34.6"/>
<text text-anchor="middle" x="330.24" y="-57.8" font-family="Times,serif" font-size="14.00">previous</text>
</g>
<!-- http://purl.org/dj/kaggle/eda&#45;nfl/activity/&#45;8667783282186740892&#45;&gt;http://purl.org/dj/kaggle/eda&#45;nfl/activity/&#45;355452033425310337 -->
<g id="edge7" class="edge">
<title>http://purl.org/dj/kaggle/eda&#45;nfl/activity/&#45;8667783282186740892&#45;&gt;http://purl.org/dj/kaggle/eda&#45;nfl/activity/&#45;355452033425310337</title>
<path fill="none" stroke="black" d="M150.59,-36.08C145.91,-53.12 139.74,-80.12 139.74,-104 139.74,-280 139.74,-280 139.74,-280 139.74,-299.25 139.74,-320.95 139.74,-337.6"/>
<polygon fill="black" stroke="black" points="136.24,-337.74 139.74,-347.74 143.24,-337.74 136.24,-337.74"/>
<text text-anchor="middle" x="163.24" y="-188.3" font-family="Times,serif" font-size="14.00">previous</text>
</g>
<!-- http://purl.org/dj/kaggle/eda&#45;nfl/activity/&#45;8374310856648545033 -->
<g id="node7" class="node">
<title>http://purl.org/dj/kaggle/eda&#45;nfl/activity/&#45;8374310856648545033</title>
<ellipse fill="none" stroke="black" cx="448.74" cy="-366" rx="151.37" ry="18"/>
<text text-anchor="middle" x="448.74" y="-362.3" font-family="Times,serif" font-size="14.00">&#45;8374310856648545033 (Visualisation)</text>
</g>
<!-- http://purl.org/dj/kaggle/eda&#45;nfl/activity/&#45;8374310856648545033&#45;&gt;http://purl.org/dj/kaggle/eda&#45;nfl/activity/7539769948850425116 -->
<g id="edge8" class="edge">
<title>http://purl.org/dj/kaggle/eda&#45;nfl/activity/&#45;8374310856648545033&#45;&gt;http://purl.org/dj/kaggle/eda&#45;nfl/activity/7539769948850425116</title>
<path fill="none" stroke="black" d="M438.82,-347.8C431.91,-335.82 422.58,-319.62 414.76,-306.06"/>
<polygon fill="black" stroke="black" points="417.67,-304.09 409.64,-297.18 411.6,-307.59 417.67,-304.09"/>
<text text-anchor="middle" x="451.24" y="-318.8" font-family="Times,serif" font-size="14.00">previous</text>
</g>
<!-- http://purl.org/dj/kaggle/eda&#45;nfl/activity/1220243813494018659 -->
<g id="node8" class="node">
<title>http://purl.org/dj/kaggle/eda&#45;nfl/activity/1220243813494018659</title>
<ellipse fill="none" stroke="black" cx="665.74" cy="-279" rx="124.28" ry="18"/>
<text text-anchor="middle" x="665.74" y="-275.3" font-family="Times,serif" font-size="14.00">1220243813494018659 (Reuse)</text>
</g>
<!-- http://purl.org/dj/kaggle/eda&#45;nfl/activity/1220243813494018659&#45;&gt;http://purl.org/dj/kaggle/eda&#45;nfl/activity/&#45;4182813916203766567 -->
<g id="edge9" class="edge">
<title>http://purl.org/dj/kaggle/eda&#45;nfl/activity/1220243813494018659&#45;&gt;http://purl.org/dj/kaggle/eda&#45;nfl/activity/&#45;4182813916203766567</title>
<path fill="none" stroke="black" d="M643.81,-261.21C627.04,-248.37 603.73,-230.52 585.16,-216.3"/>
<polygon fill="black" stroke="black" points="587.07,-213.35 577,-210.05 582.81,-218.91 587.07,-213.35"/>
<text text-anchor="middle" x="640.24" y="-231.8" font-family="Times,serif" font-size="14.00">previous</text>
</g>
</g>
</svg>
