<?xml version="1.0" encoding="UTF-8" standalone="no"?>
<!DOCTYPE svg PUBLIC "-//W3C//DTD SVG 1.1//EN"
 "http://www.w3.org/Graphics/SVG/1.1/DTD/svg11.dtd">
<!-- Generated by graphviz version 2.47.1 (20210417.1919)
 -->
<!-- Pages: 1 -->
<svg width="1012pt" height="674pt"
 viewBox="0.00 0.00 1012.00 674.00" xmlns="http://www.w3.org/2000/svg" xmlns:xlink="http://www.w3.org/1999/xlink">
<g id="graph0" class="graph" transform="scale(1 1) rotate(0) translate(4 670)">
<polygon fill="white" stroke="transparent" points="-4,4 -4,-670 1008,-670 1008,4 -4,4"/>
<!-- http://purl.org/dj/kaggle/eli5&#45;for&#45;mercari/activity/6035012398355777843 -->
<g id="node1" class="node">
<title>http://purl.org/dj/kaggle/eli5&#45;for&#45;mercari/activity/6035012398355777843</title>
<ellipse fill="none" stroke="black" cx="443" cy="-561" rx="142.97" ry="18"/>
<text text-anchor="middle" x="443" y="-557.3" font-family="Times,serif" font-size="14.00">6035012398355777843 (Preparation)</text>
</g>
<!-- http://purl.org/dj/kaggle/eli5&#45;for&#45;mercari/activity/1324095810467307943 -->
<g id="node2" class="node">
<title>http://purl.org/dj/kaggle/eli5&#45;for&#45;mercari/activity/1324095810467307943</title>
<ellipse fill="none" stroke="black" cx="609" cy="-387" rx="148.67" ry="18"/>
<text text-anchor="middle" x="609" y="-383.3" font-family="Times,serif" font-size="14.00">1324095810467307943 (Visualisation)</text>
</g>
<!-- http://purl.org/dj/kaggle/eli5&#45;for&#45;mercari/activity/6035012398355777843&#45;&gt;http://purl.org/dj/kaggle/eli5&#45;for&#45;mercari/activity/1324095810467307943 -->
<g id="edge1" class="edge">
<title>http://purl.org/dj/kaggle/eli5&#45;for&#45;mercari/activity/6035012398355777843&#45;&gt;http://purl.org/dj/kaggle/eli5&#45;for&#45;mercari/activity/1324095810467307943</title>
<path fill="none" stroke="black" d="M433.81,-542.86C423.35,-520.76 409.93,-482.09 428,-456 446.02,-429.98 475.32,-413.9 505.15,-403.97"/>
<polygon fill="black" stroke="black" points="506.33,-407.27 514.84,-400.96 504.25,-400.59 506.33,-407.27"/>
<text text-anchor="middle" x="451.5" y="-470.3" font-family="Times,serif" font-size="14.00">previous</text>
</g>
<!-- http://purl.org/dj/kaggle/eli5&#45;for&#45;mercari -->
<g id="node3" class="node">
<title>http://purl.org/dj/kaggle/eli5&#45;for&#45;mercari</title>
<ellipse fill="none" stroke="black" cx="474" cy="-18" rx="154.87" ry="18"/>
<text text-anchor="middle" x="474" y="-14.3" font-family="Times,serif" font-size="14.00">eli5&#45;for&#45;mercari (eli5&#45;for&#45;mercari.ipynb)</text>
</g>
<!-- http://purl.org/dj/kaggle/eli5&#45;for&#45;mercari/activity/6035012398355777843&#45;&gt;http://purl.org/dj/kaggle/eli5&#45;for&#45;mercari -->
<g id="edge2" class="edge">
<title>http://purl.org/dj/kaggle/eli5&#45;for&#45;mercari/activity/6035012398355777843&#45;&gt;http://purl.org/dj/kaggle/eli5&#45;for&#45;mercari</title>
<path fill="none" stroke="black" d="M300.39,-559.45C170.89,-554.97 0,-537.26 0,-475 0,-475 0,-475 0,-104 0,-69.1 201.69,-43.56 341.94,-30.02"/>
<polygon fill="black" stroke="black" points="342.31,-33.5 351.93,-29.07 341.65,-26.54 342.31,-33.5"/>
<text text-anchor="middle" x="23.5" y="-275.3" font-family="Times,serif" font-size="14.00">previous</text>
</g>
<!-- http://purl.org/dj/kaggle/eli5&#45;for&#45;mercari/activity/2323887723923486342 -->
<g id="node4" class="node">
<title>http://purl.org/dj/kaggle/eli5&#45;for&#45;mercari/activity/2323887723923486342</title>
<ellipse fill="none" stroke="black" cx="626" cy="-105" rx="124.28" ry="18"/>
<text text-anchor="middle" x="626" y="-101.3" font-family="Times,serif" font-size="14.00">2323887723923486342 (Reuse)</text>
</g>
<!-- http://purl.org/dj/kaggle/eli5&#45;for&#45;mercari/activity/6035012398355777843&#45;&gt;http://purl.org/dj/kaggle/eli5&#45;for&#45;mercari/activity/2323887723923486342 -->
<g id="edge3" class="edge">
<title>http://purl.org/dj/kaggle/eli5&#45;for&#45;mercari/activity/6035012398355777843&#45;&gt;http://purl.org/dj/kaggle/eli5&#45;for&#45;mercari/activity/2323887723923486342</title>
<path fill="none" stroke="black" d="M540.82,-547.87C621.85,-536.29 729.27,-516.93 765,-492 777,-483.63 853.63,-374.99 861,-351 893.51,-245.16 751.75,-162.72 673.99,-126.33"/>
<polygon fill="black" stroke="black" points="675.39,-123.13 664.84,-122.13 672.46,-129.49 675.39,-123.13"/>
<text text-anchor="middle" x="888.5" y="-329.3" font-family="Times,serif" font-size="14.00">previous</text>
</g>
<!-- http://purl.org/dj/kaggle/eli5&#45;for&#45;mercari/activity/&#45;6411552818387341817 -->
<g id="node5" class="node">
<title>http://purl.org/dj/kaggle/eli5&#45;for&#45;mercari/activity/&#45;6411552818387341817</title>
<ellipse fill="none" stroke="black" cx="291" cy="-387" rx="151.37" ry="18"/>
<text text-anchor="middle" x="291" y="-383.3" font-family="Times,serif" font-size="14.00">&#45;6411552818387341817 (Visualisation)</text>
</g>
<!-- http://purl.org/dj/kaggle/eli5&#45;for&#45;mercari/activity/6035012398355777843&#45;&gt;http://purl.org/dj/kaggle/eli5&#45;for&#45;mercari/activity/&#45;6411552818387341817 -->
<g id="edge4" class="edge">
<title>http://purl.org/dj/kaggle/eli5&#45;for&#45;mercari/activity/6035012398355777843&#45;&gt;http://purl.org/dj/kaggle/eli5&#45;for&#45;mercari/activity/&#45;6411552818387341817</title>
<path fill="none" stroke="black" d="M413.64,-543.11C393.95,-530.76 368.36,-512.61 350,-492 329.19,-468.64 312.44,-436.74 302.17,-414.46"/>
<polygon fill="black" stroke="black" points="305.33,-412.95 298.05,-405.25 298.94,-415.81 305.33,-412.95"/>
<text text-anchor="middle" x="373.5" y="-470.3" font-family="Times,serif" font-size="14.00">previous</text>
</g>
<!-- http://purl.org/dj/kaggle/eli5&#45;for&#45;mercari/activity/&#45;4375499749007176574 -->
<g id="node6" class="node">
<title>http://purl.org/dj/kaggle/eli5&#45;for&#45;mercari/activity/&#45;4375499749007176574</title>
<ellipse fill="none" stroke="black" cx="620" cy="-474" rx="135.68" ry="18"/>
<text text-anchor="middle" x="620" y="-470.3" font-family="Times,serif" font-size="14.00">&#45;4375499749007176574 (Analysis)</text>
</g>
<!-- http://purl.org/dj/kaggle/eli5&#45;for&#45;mercari/activity/6035012398355777843&#45;&gt;http://purl.org/dj/kaggle/eli5&#45;for&#45;mercari/activity/&#45;4375499749007176574 -->
<g id="edge5" class="edge">
<title>http://purl.org/dj/kaggle/eli5&#45;for&#45;mercari/activity/6035012398355777843&#45;&gt;http://purl.org/dj/kaggle/eli5&#45;for&#45;mercari/activity/&#45;4375499749007176574</title>
<path fill="none" stroke="black" d="M465.06,-543.09C479.54,-532.56 499.2,-519.3 518,-510 530.1,-504.01 543.48,-498.62 556.46,-493.97"/>
<polygon fill="black" stroke="black" points="557.98,-497.14 566.27,-490.55 555.68,-490.53 557.98,-497.14"/>
<text text-anchor="middle" x="541.5" y="-513.8" font-family="Times,serif" font-size="14.00">previous</text>
</g>
<!-- http://purl.org/dj/kaggle/eli5&#45;for&#45;mercari/activity/1324095810467307943&#45;&gt;http://purl.org/dj/kaggle/eli5&#45;for&#45;mercari -->
<g id="edge6" class="edge">
<title>http://purl.org/dj/kaggle/eli5&#45;for&#45;mercari/activity/1324095810467307943&#45;&gt;http://purl.org/dj/kaggle/eli5&#45;for&#45;mercari</title>
<path fill="none" stroke="black" d="M574.03,-369.34C566.27,-364.33 558.67,-358.21 553,-351 479.7,-257.9 472.71,-107.64 473.16,-46.35"/>
<polygon fill="black" stroke="black" points="476.66,-46.36 473.31,-36.31 469.66,-46.25 476.66,-46.36"/>
<text text-anchor="middle" x="514.5" y="-188.3" font-family="Times,serif" font-size="14.00">previous</text>
</g>
<!-- http://purl.org/dj/kaggle/eli5&#45;for&#45;mercari/activity/1324095810467307943&#45;&gt;http://purl.org/dj/kaggle/eli5&#45;for&#45;mercari/activity/2323887723923486342 -->
<g id="edge7" class="edge">
<title>http://purl.org/dj/kaggle/eli5&#45;for&#45;mercari/activity/1324095810467307943&#45;&gt;http://purl.org/dj/kaggle/eli5&#45;for&#45;mercari/activity/2323887723923486342</title>
<path fill="none" stroke="black" d="M576.94,-369.17C570.53,-364.22 564.65,-358.17 561,-351 553.75,-336.74 558.6,-330.82 561,-315 571.26,-247.44 599.19,-171.65 614.89,-132.55"/>
<polygon fill="black" stroke="black" points="618.17,-133.78 618.69,-123.2 611.68,-131.14 618.17,-133.78"/>
<text text-anchor="middle" x="603.5" y="-231.8" font-family="Times,serif" font-size="14.00">previous</text>
</g>
<!-- http://purl.org/dj/kaggle/eli5&#45;for&#45;mercari/activity/2323887723923486342&#45;&gt;http://purl.org/dj/kaggle/eli5&#45;for&#45;mercari -->
<g id="edge8" class="edge">
<title>http://purl.org/dj/kaggle/eli5&#45;for&#45;mercari/activity/2323887723923486342&#45;&gt;http://purl.org/dj/kaggle/eli5&#45;for&#45;mercari</title>
<path fill="none" stroke="black" d="M596.33,-87.41C572.45,-74.05 538.7,-55.18 512.7,-40.64"/>
<polygon fill="black" stroke="black" points="514.29,-37.52 503.85,-35.69 510.87,-43.63 514.29,-37.52"/>
<text text-anchor="middle" x="582.5" y="-57.8" font-family="Times,serif" font-size="14.00">previous</text>
</g>
<!-- http://purl.org/dj/kaggle/eli5&#45;for&#45;mercari/activity/&#45;6411552818387341817&#45;&gt;http://purl.org/dj/kaggle/eli5&#45;for&#45;mercari/activity/2323887723923486342 -->
<g id="edge9" class="edge">
<title>http://purl.org/dj/kaggle/eli5&#45;for&#45;mercari/activity/&#45;6411552818387341817&#45;&gt;http://purl.org/dj/kaggle/eli5&#45;for&#45;mercari/activity/2323887723923486342</title>
<path fill="none" stroke="black" d="M239.31,-369.93C204.78,-356.31 161.68,-333.13 139,-297 109.88,-250.63 96.02,-215.27 132,-174 156.28,-146.15 367.89,-125.2 506.16,-114.34"/>
<polygon fill="black" stroke="black" points="506.71,-117.81 516.4,-113.54 506.16,-110.83 506.71,-117.81"/>
<text text-anchor="middle" x="136.5" y="-231.8" font-family="Times,serif" font-size="14.00">previous</text>
</g>
<!-- http://purl.org/dj/kaggle/eli5&#45;for&#45;mercari/activity/8933646211263674350 -->
<g id="node7" class="node">
<title>http://purl.org/dj/kaggle/eli5&#45;for&#45;mercari/activity/8933646211263674350</title>
<ellipse fill="none" stroke="black" cx="291" cy="-279" rx="142.97" ry="18"/>
<text text-anchor="middle" x="291" y="-275.3" font-family="Times,serif" font-size="14.00">8933646211263674350 (Preparation)</text>
</g>
<!-- http://purl.org/dj/kaggle/eli5&#45;for&#45;mercari/activity/&#45;6411552818387341817&#45;&gt;http://purl.org/dj/kaggle/eli5&#45;for&#45;mercari/activity/8933646211263674350 -->
<g id="edge10" class="edge">
<title>http://purl.org/dj/kaggle/eli5&#45;for&#45;mercari/activity/&#45;6411552818387341817&#45;&gt;http://purl.org/dj/kaggle/eli5&#45;for&#45;mercari/activity/8933646211263674350</title>
<path fill="none" stroke="black" d="M291,-368.97C291,-352.38 291,-326.88 291,-307.43"/>
<polygon fill="black" stroke="black" points="294.5,-307.34 291,-297.34 287.5,-307.34 294.5,-307.34"/>
<text text-anchor="middle" x="314.5" y="-329.3" font-family="Times,serif" font-size="14.00">previous</text>
</g>
<!-- http://purl.org/dj/kaggle/eli5&#45;for&#45;mercari/activity/&#45;4375499749007176574&#45;&gt;http://purl.org/dj/kaggle/eli5&#45;for&#45;mercari/activity/6035012398355777843 -->
<g id="edge11" class="edge">
<title>http://purl.org/dj/kaggle/eli5&#45;for&#45;mercari/activity/&#45;4375499749007176574&#45;&gt;http://purl.org/dj/kaggle/eli5&#45;for&#45;mercari/activity/6035012398355777843</title>
<path fill="none" stroke="black" d="M605.18,-492.03C594.89,-502.88 580.33,-516.45 565,-525 552.41,-532.02 538.29,-537.73 524.25,-542.36"/>
<polygon fill="black" stroke="black" points="523.05,-539.06 514.55,-545.38 525.14,-545.74 523.05,-539.06"/>
<text text-anchor="middle" x="607.5" y="-513.8" font-family="Times,serif" font-size="14.00">previous</text>
</g>
<!-- http://purl.org/dj/kaggle/eli5&#45;for&#45;mercari/activity/&#45;4375499749007176574&#45;&gt;http://purl.org/dj/kaggle/eli5&#45;for&#45;mercari/activity/1324095810467307943 -->
<g id="edge12" class="edge">
<title>http://purl.org/dj/kaggle/eli5&#45;for&#45;mercari/activity/&#45;4375499749007176574&#45;&gt;http://purl.org/dj/kaggle/eli5&#45;for&#45;mercari/activity/1324095810467307943</title>
<path fill="none" stroke="black" d="M617.77,-455.8C616.27,-444.16 614.25,-428.55 612.52,-415.24"/>
<polygon fill="black" stroke="black" points="615.98,-414.64 611.22,-405.18 609.04,-415.54 615.98,-414.64"/>
<text text-anchor="middle" x="638.5" y="-426.8" font-family="Times,serif" font-size="14.00">previous</text>
</g>
<!-- http://purl.org/dj/kaggle/eli5&#45;for&#45;mercari/activity/&#45;4375499749007176574&#45;&gt;http://purl.org/dj/kaggle/eli5&#45;for&#45;mercari/activity/&#45;6411552818387341817 -->
<g id="edge13" class="edge">
<title>http://purl.org/dj/kaggle/eli5&#45;for&#45;mercari/activity/&#45;4375499749007176574&#45;&gt;http://purl.org/dj/kaggle/eli5&#45;for&#45;mercari/activity/&#45;6411552818387341817</title>
<path fill="none" stroke="black" d="M560.8,-457.71C504.75,-443.22 420.56,-421.47 361.16,-406.13"/>
<polygon fill="black" stroke="black" points="361.67,-402.64 351.11,-403.53 359.92,-409.42 361.67,-402.64"/>
<text text-anchor="middle" x="499.5" y="-426.8" font-family="Times,serif" font-size="14.00">previous</text>
</g>
<!-- http://purl.org/dj/kaggle/eli5&#45;for&#45;mercari/activity/6830849921289898708 -->
<g id="node8" class="node">
<title>http://purl.org/dj/kaggle/eli5&#45;for&#45;mercari/activity/6830849921289898708</title>
<ellipse fill="none" stroke="black" cx="711" cy="-333" rx="148.67" ry="18"/>
<text text-anchor="middle" x="711" y="-329.3" font-family="Times,serif" font-size="14.00">6830849921289898708 (Visualisation)</text>
</g>
<!-- http://purl.org/dj/kaggle/eli5&#45;for&#45;mercari/activity/&#45;4375499749007176574&#45;&gt;http://purl.org/dj/kaggle/eli5&#45;for&#45;mercari/activity/6830849921289898708 -->
<g id="edge14" class="edge">
<title>http://purl.org/dj/kaggle/eli5&#45;for&#45;mercari/activity/&#45;4375499749007176574&#45;&gt;http://purl.org/dj/kaggle/eli5&#45;for&#45;mercari/activity/6830849921289898708</title>
<path fill="none" stroke="black" d="M689.19,-458.5C718.42,-448.59 749.66,-432.13 767,-405 775.62,-391.52 774.76,-382.99 767,-369 764.46,-364.42 761.04,-360.35 757.14,-356.77"/>
<polygon fill="black" stroke="black" points="759.17,-353.91 749.15,-350.47 754.83,-359.41 759.17,-353.91"/>
<text text-anchor="middle" x="774.5" y="-426.8" font-family="Times,serif" font-size="14.00">previous</text>
</g>
<!-- http://purl.org/dj/kaggle/eli5&#45;for&#45;mercari/activity/&#45;4673493834691405694 -->
<g id="node9" class="node">
<title>http://purl.org/dj/kaggle/eli5&#45;for&#45;mercari/activity/&#45;4673493834691405694</title>
<ellipse fill="none" stroke="black" cx="292" cy="-192" rx="151.37" ry="18"/>
<text text-anchor="middle" x="292" y="-188.3" font-family="Times,serif" font-size="14.00">&#45;4673493834691405694 (Visualisation)</text>
</g>
<!-- http://purl.org/dj/kaggle/eli5&#45;for&#45;mercari/activity/8933646211263674350&#45;&gt;http://purl.org/dj/kaggle/eli5&#45;for&#45;mercari/activity/&#45;4673493834691405694 -->
<g id="edge15" class="edge">
<title>http://purl.org/dj/kaggle/eli5&#45;for&#45;mercari/activity/8933646211263674350&#45;&gt;http://purl.org/dj/kaggle/eli5&#45;for&#45;mercari/activity/&#45;4673493834691405694</title>
<path fill="none" stroke="black" d="M291.2,-260.8C291.34,-249.16 291.52,-233.55 291.68,-220.24"/>
<polygon fill="black" stroke="black" points="295.18,-220.22 291.8,-210.18 288.18,-220.13 295.18,-220.22"/>
<text text-anchor="middle" x="315.5" y="-231.8" font-family="Times,serif" font-size="14.00">previous</text>
</g>
<!-- http://purl.org/dj/kaggle/eli5&#45;for&#45;mercari/activity/6830849921289898708&#45;&gt;http://purl.org/dj/kaggle/eli5&#45;for&#45;mercari/activity/2323887723923486342 -->
<g id="edge18" class="edge">
<title>http://purl.org/dj/kaggle/eli5&#45;for&#45;mercari/activity/6830849921289898708&#45;&gt;http://purl.org/dj/kaggle/eli5&#45;for&#45;mercari/activity/2323887723923486342</title>
<path fill="none" stroke="black" d="M704.61,-315.01C689.94,-275.99 653.72,-179.71 636.04,-132.7"/>
<polygon fill="black" stroke="black" points="639.26,-131.31 632.46,-123.18 632.71,-133.78 639.26,-131.31"/>
<text text-anchor="middle" x="699.5" y="-231.8" font-family="Times,serif" font-size="14.00">previous</text>
</g>
<!-- http://purl.org/dj/kaggle/eli5&#45;for&#45;mercari/activity/&#45;4673493834691405694&#45;&gt;http://purl.org/dj/kaggle/eli5&#45;for&#45;mercari/activity/6035012398355777843 -->
<g id="edge16" class="edge">
<title>http://purl.org/dj/kaggle/eli5&#45;for&#45;mercari/activity/&#45;4673493834691405694&#45;&gt;http://purl.org/dj/kaggle/eli5&#45;for&#45;mercari/activity/6035012398355777843</title>
<path fill="none" stroke="black" d="M189.18,-205.22C154.58,-210.85 121.15,-218.44 107,-228 85.14,-242.77 75,-251.62 75,-278 75,-475 75,-475 75,-475 75,-523.35 197.11,-544.2 300.65,-553.19"/>
<polygon fill="black" stroke="black" points="300.67,-556.7 310.92,-554.05 301.25,-549.73 300.67,-556.7"/>
<text text-anchor="middle" x="98.5" y="-383.3" font-family="Times,serif" font-size="14.00">previous</text>
</g>
<!-- http://purl.org/dj/kaggle/eli5&#45;for&#45;mercari/activity/&#45;4673493834691405694&#45;&gt;http://purl.org/dj/kaggle/eli5&#45;for&#45;mercari/activity/2323887723923486342 -->
<g id="edge17" class="edge">
<title>http://purl.org/dj/kaggle/eli5&#45;for&#45;mercari/activity/&#45;4673493834691405694&#45;&gt;http://purl.org/dj/kaggle/eli5&#45;for&#45;mercari/activity/2323887723923486342</title>
<path fill="none" stroke="black" d="M352.87,-175.51C410.71,-160.79 497.55,-138.69 557.71,-123.38"/>
<polygon fill="black" stroke="black" points="558.68,-126.74 567.51,-120.89 556.95,-119.96 558.68,-126.74"/>
<text text-anchor="middle" x="502.5" y="-144.8" font-family="Times,serif" font-size="14.00">previous</text>
</g>
<!-- http://purl.org/dj/kaggle/eli5&#45;for&#45;mercari/activity/&#45;3717974012330685336 -->
<g id="node10" class="node">
<title>http://purl.org/dj/kaggle/eli5&#45;for&#45;mercari/activity/&#45;3717974012330685336</title>
<ellipse fill="none" stroke="black" cx="783" cy="-561" rx="145.67" ry="18"/>
<text text-anchor="middle" x="783" y="-557.3" font-family="Times,serif" font-size="14.00">&#45;3717974012330685336 (Preparation)</text>
</g>
<!-- http://purl.org/dj/kaggle/eli5&#45;for&#45;mercari/activity/&#45;3717974012330685336&#45;&gt;http://purl.org/dj/kaggle/eli5&#45;for&#45;mercari/activity/1324095810467307943 -->
<g id="edge19" class="edge">
<title>http://purl.org/dj/kaggle/eli5&#45;for&#45;mercari/activity/&#45;3717974012330685336&#45;&gt;http://purl.org/dj/kaggle/eli5&#45;for&#45;mercari/activity/1324095810467307943</title>
<path fill="none" stroke="black" d="M792.67,-543.02C807.38,-514.68 830.78,-457.47 802,-423 792.78,-411.95 768.6,-404.38 740.35,-399.2"/>
<polygon fill="black" stroke="black" points="740.65,-395.7 730.21,-397.47 739.47,-402.6 740.65,-395.7"/>
<text text-anchor="middle" x="838.5" y="-470.3" font-family="Times,serif" font-size="14.00">previous</text>
</g>
<!-- http://purl.org/dj/kaggle/eli5&#45;for&#45;mercari/activity/&#45;3717974012330685336&#45;&gt;http://purl.org/dj/kaggle/eli5&#45;for&#45;mercari/activity/&#45;4375499749007176574 -->
<g id="edge20" class="edge">
<title>http://purl.org/dj/kaggle/eli5&#45;for&#45;mercari/activity/&#45;3717974012330685336&#45;&gt;http://purl.org/dj/kaggle/eli5&#45;for&#45;mercari/activity/&#45;4375499749007176574</title>
<path fill="none" stroke="black" d="M751.19,-543.41C725.38,-529.95 688.83,-510.89 660.86,-496.31"/>
<polygon fill="black" stroke="black" points="662.22,-493.07 651.73,-491.55 658.98,-499.28 662.22,-493.07"/>
<text text-anchor="middle" x="734.5" y="-513.8" font-family="Times,serif" font-size="14.00">previous</text>
</g>
<!-- http://purl.org/dj/kaggle/eli5&#45;for&#45;mercari/activity/2930049520992743907 -->
<g id="node11" class="node">
<title>http://purl.org/dj/kaggle/eli5&#45;for&#45;mercari/activity/2930049520992743907</title>
<ellipse fill="none" stroke="black" cx="717" cy="-648" rx="148.67" ry="18"/>
<text text-anchor="middle" x="717" y="-644.3" font-family="Times,serif" font-size="14.00">2930049520992743907 (Visualisation)</text>
</g>
<!-- http://purl.org/dj/kaggle/eli5&#45;for&#45;mercari/activity/2930049520992743907&#45;&gt;http://purl.org/dj/kaggle/eli5&#45;for&#45;mercari/activity/6035012398355777843 -->
<g id="edge21" class="edge">
<title>http://purl.org/dj/kaggle/eli5&#45;for&#45;mercari/activity/2930049520992743907&#45;&gt;http://purl.org/dj/kaggle/eli5&#45;for&#45;mercari/activity/6035012398355777843</title>
<path fill="none" stroke="black" d="M665.46,-631.01C619.63,-616.79 552.56,-595.99 504.05,-580.94"/>
<polygon fill="black" stroke="black" points="504.89,-577.54 494.31,-577.92 502.82,-584.22 504.89,-577.54"/>
<text text-anchor="middle" x="619.5" y="-600.8" font-family="Times,serif" font-size="14.00">previous</text>
</g>
<!-- http://purl.org/dj/kaggle/eli5&#45;for&#45;mercari/activity/2930049520992743907&#45;&gt;http://purl.org/dj/kaggle/eli5&#45;for&#45;mercari/activity/2323887723923486342 -->
<g id="edge22" class="edge">
<title>http://purl.org/dj/kaggle/eli5&#45;for&#45;mercari/activity/2930049520992743907&#45;&gt;http://purl.org/dj/kaggle/eli5&#45;for&#45;mercari/activity/2323887723923486342</title>
<path fill="none" stroke="black" d="M802.29,-633.21C871.27,-619.57 957,-595.82 957,-562 957,-562 957,-562 957,-191 957,-146.02 840.87,-124.5 746.18,-114.43"/>
<polygon fill="black" stroke="black" points="746.52,-110.95 736.22,-113.41 745.81,-117.91 746.52,-110.95"/>
<text text-anchor="middle" x="980.5" y="-383.3" font-family="Times,serif" font-size="14.00">previous</text>
</g>
</g>
</svg>
