<?xml version="1.0" encoding="UTF-8" standalone="no"?>
<!DOCTYPE svg PUBLIC "-//W3C//DTD SVG 1.1//EN"
 "http://www.w3.org/Graphics/SVG/1.1/DTD/svg11.dtd">
<!-- Generated by graphviz version 2.44.1 (20200629.0846)
 -->
<!-- Pages: 1 -->
<svg width="7011pt" height="218pt"
 viewBox="0.00 0.00 7011.12 218.00" xmlns="http://www.w3.org/2000/svg" xmlns:xlink="http://www.w3.org/1999/xlink">
<g id="graph0" class="graph" transform="scale(1 1) rotate(0) translate(4 214)">
<polygon fill="white" stroke="transparent" points="-4,4 -4,-214 7007.12,-214 7007.12,4 -4,4"/>
<!-- http://purl.org/dj/python/lib/2987659922 -->
<g id="node1" class="node">
<title>http://purl.org/dj/python/lib/2987659922</title>
<ellipse fill="none" stroke="black" cx="258.68" cy="-105" rx="258.85" ry="18"/>
<text text-anchor="middle" x="258.68" y="-101.3" font-family="Times,serif" font-size="14.00">2987659922 (learntools.pandas.creating_reading_and_writing: Reuse)</text>
</g>
<!-- http://purl.org/dj/kaggle/exercise&#45;creating&#45;reading&#45;and&#45;writing -->
<g id="node2" class="node">
<title>http://purl.org/dj/kaggle/exercise&#45;creating&#45;reading&#45;and&#45;writing</title>
<ellipse fill="none" stroke="black" cx="3978.68" cy="-18" rx="143.77" ry="18"/>
<text text-anchor="middle" x="3978.68" y="-14.3" font-family="Times,serif" font-size="14.00">exercise&#45;creating&#45;reading&#45;and&#45;writing</text>
</g>
<!-- http://purl.org/dj/python/lib/2987659922&#45;&gt;http://purl.org/dj/kaggle/exercise&#45;creating&#45;reading&#45;and&#45;writing -->
<g id="edge1" class="edge">
<title>http://purl.org/dj/python/lib/2987659922&#45;&gt;http://purl.org/dj/kaggle/exercise&#45;creating&#45;reading&#45;and&#45;writing</title>
<path fill="none" stroke="black" d="M417.25,-90.77C567.59,-78.84 799.83,-61.97 1001.68,-54 1559.8,-31.96 3297.42,-22.19 3825.14,-19.68"/>
<polygon fill="black" stroke="black" points="3825.5,-23.18 3835.49,-19.63 3825.47,-16.18 3825.5,-23.18"/>
<text text-anchor="middle" x="1025.18" y="-57.8" font-family="Times,serif" font-size="14.00">previous</text>
</g>
<!-- http://purl.org/dj/kaggle/exercise&#45;creating&#45;reading&#45;and&#45;writing#249561878 -->
<g id="node3" class="node">
<title>http://purl.org/dj/kaggle/exercise&#45;creating&#45;reading&#45;and&#45;writing#249561878</title>
<ellipse fill="none" stroke="black" cx="692.68" cy="-192" rx="136.48" ry="18"/>
<text text-anchor="middle" x="692.68" y="-188.3" font-family="Times,serif" font-size="14.00">249561878 (print[0]: Visualisation)</text>
</g>
<!-- http://purl.org/dj/kaggle/exercise&#45;creating&#45;reading&#45;and&#45;writing#1084229178 -->
<g id="node4" class="node">
<title>http://purl.org/dj/kaggle/exercise&#45;creating&#45;reading&#45;and&#45;writing#1084229178</title>
<ellipse fill="none" stroke="black" cx="692.68" cy="-105" rx="157.07" ry="18"/>
<text text-anchor="middle" x="692.68" y="-101.3" font-family="Times,serif" font-size="14.00">1084229178 (Setup complete.(0): Reuse)</text>
</g>
<!-- http://purl.org/dj/kaggle/exercise&#45;creating&#45;reading&#45;and&#45;writing#249561878&#45;&gt;http://purl.org/dj/kaggle/exercise&#45;creating&#45;reading&#45;and&#45;writing#1084229178 -->
<g id="edge2" class="edge">
<title>http://purl.org/dj/kaggle/exercise&#45;creating&#45;reading&#45;and&#45;writing#249561878&#45;&gt;http://purl.org/dj/kaggle/exercise&#45;creating&#45;reading&#45;and&#45;writing#1084229178</title>
<path fill="none" stroke="black" d="M692.68,-173.8C692.68,-162.16 692.68,-146.55 692.68,-133.24"/>
<polygon fill="black" stroke="black" points="696.18,-133.18 692.68,-123.18 689.18,-133.18 696.18,-133.18"/>
<text text-anchor="middle" x="716.18" y="-144.8" font-family="Times,serif" font-size="14.00">previous</text>
</g>
<!-- http://purl.org/dj/kaggle/exercise&#45;creating&#45;reading&#45;and&#45;writing#1084229178&#45;&gt;http://purl.org/dj/kaggle/exercise&#45;creating&#45;reading&#45;and&#45;writing -->
<g id="edge3" class="edge">
<title>http://purl.org/dj/kaggle/exercise&#45;creating&#45;reading&#45;and&#45;writing#1084229178&#45;&gt;http://purl.org/dj/kaggle/exercise&#45;creating&#45;reading&#45;and&#45;writing</title>
<path fill="none" stroke="black" d="M802.21,-92.04C919.63,-79.83 1111.57,-61.62 1277.68,-54 1779.15,-30.98 3330.88,-21.98 3825.52,-19.66"/>
<polygon fill="black" stroke="black" points="3825.6,-23.16 3835.58,-19.61 3825.57,-16.16 3825.6,-23.16"/>
<text text-anchor="middle" x="1301.18" y="-57.8" font-family="Times,serif" font-size="14.00">previous</text>
</g>
<!-- http://purl.org/dj/kaggle/exercise&#45;creating&#45;reading&#45;and&#45;writing#67830055 -->
<g id="node5" class="node">
<title>http://purl.org/dj/kaggle/exercise&#45;creating&#45;reading&#45;and&#45;writing#67830055</title>
<ellipse fill="none" stroke="black" cx="967.68" cy="-105" rx="99.38" ry="18"/>
<text text-anchor="middle" x="967.68" y="-101.3" font-family="Times,serif" font-size="14.00">67830055 (q4(0): Reuse)</text>
</g>
<!-- http://purl.org/dj/kaggle/exercise&#45;creating&#45;reading&#45;and&#45;writing#67830055&#45;&gt;http://purl.org/dj/kaggle/exercise&#45;creating&#45;reading&#45;and&#45;writing -->
<g id="edge4" class="edge">
<title>http://purl.org/dj/kaggle/exercise&#45;creating&#45;reading&#45;and&#45;writing#67830055&#45;&gt;http://purl.org/dj/kaggle/exercise&#45;creating&#45;reading&#45;and&#45;writing</title>
<path fill="none" stroke="black" d="M1036.42,-91.92C1049.73,-89.97 1063.61,-88.19 1076.68,-87 1604.9,-38.7 1739.41,-66.76 2269.68,-54 2845.18,-40.15 3529.79,-27.19 3827.71,-21.73"/>
<polygon fill="black" stroke="black" points="3827.78,-25.23 3837.71,-21.54 3827.65,-18.23 3827.78,-25.23"/>
<text text-anchor="middle" x="2293.18" y="-57.8" font-family="Times,serif" font-size="14.00">previous</text>
</g>
<!-- http://purl.org/dj/kaggle/exercise&#45;creating&#45;reading&#45;and&#45;writing#1966217904 -->
<g id="node6" class="node">
<title>http://purl.org/dj/kaggle/exercise&#45;creating&#45;reading&#45;and&#45;writing#1966217904</title>
<ellipse fill="none" stroke="black" cx="1470.68" cy="-105" rx="385.33" ry="18"/>
<text text-anchor="middle" x="1470.68" y="-101.3" font-family="Times,serif" font-size="14.00">1966217904 ([&lt;_ast.Constant object at 0x12fc4ffd0&gt;, &lt;_ast.Constant object at 0x12fc4f6d0&gt;](0): Reuse)</text>
</g>
<!-- http://purl.org/dj/kaggle/exercise&#45;creating&#45;reading&#45;and&#45;writing#1966217904&#45;&gt;http://purl.org/dj/kaggle/exercise&#45;creating&#45;reading&#45;and&#45;writing -->
<g id="edge5" class="edge">
<title>http://purl.org/dj/kaggle/exercise&#45;creating&#45;reading&#45;and&#45;writing#1966217904&#45;&gt;http://purl.org/dj/kaggle/exercise&#45;creating&#45;reading&#45;and&#45;writing</title>
<path fill="none" stroke="black" d="M1740.63,-92.15C1782.17,-90.38 1824.57,-88.62 1864.68,-87 2256.19,-71.22 2354.06,-66.89 2745.68,-54 3136.63,-41.13 3597.4,-28.81 3829.33,-22.8"/>
<polygon fill="black" stroke="black" points="3829.61,-26.3 3839.52,-22.54 3829.43,-19.3 3829.61,-26.3"/>
<text text-anchor="middle" x="2769.18" y="-57.8" font-family="Times,serif" font-size="14.00">previous</text>
</g>
<!-- http://purl.org/dj/kaggle/exercise&#45;creating&#45;reading&#45;and&#45;writing#67305765 -->
<g id="node7" class="node">
<title>http://purl.org/dj/kaggle/exercise&#45;creating&#45;reading&#45;and&#45;writing#67305765</title>
<ellipse fill="none" stroke="black" cx="4998.68" cy="-105" rx="99.38" ry="18"/>
<text text-anchor="middle" x="4998.68" y="-101.3" font-family="Times,serif" font-size="14.00">67305765 (q2(0): Reuse)</text>
</g>
<!-- http://purl.org/dj/kaggle/exercise&#45;creating&#45;reading&#45;and&#45;writing#67305765&#45;&gt;http://purl.org/dj/kaggle/exercise&#45;creating&#45;reading&#45;and&#45;writing -->
<g id="edge6" class="edge">
<title>http://purl.org/dj/kaggle/exercise&#45;creating&#45;reading&#45;and&#45;writing#67305765&#45;&gt;http://purl.org/dj/kaggle/exercise&#45;creating&#45;reading&#45;and&#45;writing</title>
<path fill="none" stroke="black" d="M4928.43,-92.2C4915.56,-90.28 4902.23,-88.45 4889.68,-87 4617.9,-55.71 4298.78,-35.72 4119.5,-26"/>
<polygon fill="black" stroke="black" points="4119.66,-22.5 4109.48,-25.46 4119.28,-29.49 4119.66,-22.5"/>
<text text-anchor="middle" x="4740.18" y="-57.8" font-family="Times,serif" font-size="14.00">previous</text>
</g>
<!-- http://purl.org/dj/kaggle/exercise&#45;creating&#45;reading&#45;and&#45;writing#1805654611 -->
<g id="node8" class="node">
<title>http://purl.org/dj/kaggle/exercise&#45;creating&#45;reading&#45;and&#45;writing#1805654611</title>
<ellipse fill="none" stroke="black" cx="2260.68" cy="-105" rx="386.93" ry="18"/>
<text text-anchor="middle" x="2260.68" y="-101.3" font-family="Times,serif" font-size="14.00">1805654611 ([&lt;_ast.Constant object at 0x12fc4f8e0&gt;, &lt;_ast.Constant object at 0x12fc4f820&gt;](0): Reuse)</text>
</g>
<!-- http://purl.org/dj/kaggle/exercise&#45;creating&#45;reading&#45;and&#45;writing#1805654611&#45;&gt;http://purl.org/dj/kaggle/exercise&#45;creating&#45;reading&#45;and&#45;writing -->
<g id="edge7" class="edge">
<title>http://purl.org/dj/kaggle/exercise&#45;creating&#45;reading&#45;and&#45;writing#1805654611&#45;&gt;http://purl.org/dj/kaggle/exercise&#45;creating&#45;reading&#45;and&#45;writing</title>
<path fill="none" stroke="black" d="M2466.54,-89.75C2628.07,-78.91 2858.63,-64.16 3060.68,-54 3332.31,-40.34 3649.39,-29.35 3830.85,-23.53"/>
<polygon fill="black" stroke="black" points="3831.11,-27.02 3840.99,-23.21 3830.88,-20.03 3831.11,-27.02"/>
<text text-anchor="middle" x="3084.18" y="-57.8" font-family="Times,serif" font-size="14.00">previous</text>
</g>
<!-- http://purl.org/dj/kaggle/exercise&#45;creating&#45;reading&#45;and&#45;writing#445383666 -->
<g id="node9" class="node">
<title>http://purl.org/dj/kaggle/exercise&#45;creating&#45;reading&#45;and&#45;writing#445383666</title>
<ellipse fill="none" stroke="black" cx="2797.68" cy="-105" rx="131.88" ry="18"/>
<text text-anchor="middle" x="2797.68" y="-101.3" font-family="Times,serif" font-size="14.00">445383666 (max_rows(0): Reuse)</text>
</g>
<!-- http://purl.org/dj/kaggle/exercise&#45;creating&#45;reading&#45;and&#45;writing#445383666&#45;&gt;http://purl.org/dj/kaggle/exercise&#45;creating&#45;reading&#45;and&#45;writing -->
<g id="edge8" class="edge">
<title>http://purl.org/dj/kaggle/exercise&#45;creating&#45;reading&#45;and&#45;writing#445383666&#45;&gt;http://purl.org/dj/kaggle/exercise&#45;creating&#45;reading&#45;and&#45;writing</title>
<path fill="none" stroke="black" d="M2891.69,-92.34C2907.37,-90.48 2923.48,-88.64 2938.68,-87 3092.26,-70.42 3130.61,-65.23 3284.68,-54 3473.81,-40.22 3692.34,-30.17 3832.85,-24.46"/>
<polygon fill="black" stroke="black" points="3833.4,-27.94 3843.25,-24.04 3833.12,-20.94 3833.4,-27.94"/>
<text text-anchor="middle" x="3308.18" y="-57.8" font-family="Times,serif" font-size="14.00">previous</text>
</g>
<!-- http://purl.org/dj/kaggle/exercise&#45;creating&#45;reading&#45;and&#45;writing#80085334 -->
<g id="node10" class="node">
<title>http://purl.org/dj/kaggle/exercise&#45;creating&#45;reading&#45;and&#45;writing#80085334</title>
<ellipse fill="none" stroke="black" cx="3046.68" cy="-105" rx="99.38" ry="18"/>
<text text-anchor="middle" x="3046.68" y="-101.3" font-family="Times,serif" font-size="14.00">80085334 (pd(0): Reuse)</text>
</g>
<!-- http://purl.org/dj/kaggle/exercise&#45;creating&#45;reading&#45;and&#45;writing#80085334&#45;&gt;http://purl.org/dj/kaggle/exercise&#45;creating&#45;reading&#45;and&#45;writing -->
<g id="edge9" class="edge">
<title>http://purl.org/dj/kaggle/exercise&#45;creating&#45;reading&#45;and&#45;writing#80085334&#45;&gt;http://purl.org/dj/kaggle/exercise&#45;creating&#45;reading&#45;and&#45;writing</title>
<path fill="none" stroke="black" d="M3117.17,-92.24C3129.65,-90.35 3142.53,-88.52 3154.68,-87 3394.99,-56.98 3676.45,-36.99 3840.44,-26.85"/>
<polygon fill="black" stroke="black" points="3840.82,-30.34 3850.59,-26.23 3840.39,-23.35 3840.82,-30.34"/>
<text text-anchor="middle" x="3495.18" y="-57.8" font-family="Times,serif" font-size="14.00">previous</text>
</g>
<!-- http://purl.org/dj/kaggle/exercise&#45;creating&#45;reading&#45;and&#45;writing#476709819 -->
<g id="node11" class="node">
<title>http://purl.org/dj/kaggle/exercise&#45;creating&#45;reading&#45;and&#45;writing#476709819</title>
<ellipse fill="none" stroke="black" cx="3278.68" cy="-192" rx="150.57" ry="18"/>
<text text-anchor="middle" x="3278.68" y="-188.3" font-family="Times,serif" font-size="14.00">476709819 (animals(0)$0: Preparation)</text>
</g>
<!-- http://purl.org/dj/kaggle/exercise&#45;creating&#45;reading&#45;and&#45;writing#476709819&#45;&gt;http://purl.org/dj/kaggle/exercise&#45;creating&#45;reading&#45;and&#45;writing#1966217904 -->
<g id="edge10" class="edge">
<title>http://purl.org/dj/kaggle/exercise&#45;creating&#45;reading&#45;and&#45;writing#476709819&#45;&gt;http://purl.org/dj/kaggle/exercise&#45;creating&#45;reading&#45;and&#45;writing#1966217904</title>
<path fill="none" stroke="black" d="M3141.3,-184.54C2843.39,-170.54 2133.3,-137.15 1741.61,-118.74"/>
<polygon fill="black" stroke="black" points="1741.71,-115.24 1731.55,-118.26 1741.38,-122.23 1741.71,-115.24"/>
<text text-anchor="middle" x="2507.18" y="-144.8" font-family="Times,serif" font-size="14.00">previous</text>
</g>
<!-- http://purl.org/dj/kaggle/exercise&#45;creating&#45;reading&#45;and&#45;writing#476709819&#45;&gt;http://purl.org/dj/kaggle/exercise&#45;creating&#45;reading&#45;and&#45;writing#1805654611 -->
<g id="edge11" class="edge">
<title>http://purl.org/dj/kaggle/exercise&#45;creating&#45;reading&#45;and&#45;writing#476709819&#45;&gt;http://purl.org/dj/kaggle/exercise&#45;creating&#45;reading&#45;and&#45;writing#1805654611</title>
<path fill="none" stroke="black" d="M3159.16,-181.02C2984.46,-166.43 2657.66,-139.15 2450.04,-121.81"/>
<polygon fill="black" stroke="black" points="2450.19,-118.31 2439.93,-120.97 2449.61,-125.29 2450.19,-118.31"/>
<text text-anchor="middle" x="2854.18" y="-144.8" font-family="Times,serif" font-size="14.00">previous</text>
</g>
<!-- http://purl.org/dj/kaggle/exercise&#45;creating&#45;reading&#45;and&#45;writing#476709819&#45;&gt;http://purl.org/dj/kaggle/exercise&#45;creating&#45;reading&#45;and&#45;writing#445383666 -->
<g id="edge12" class="edge">
<title>http://purl.org/dj/kaggle/exercise&#45;creating&#45;reading&#45;and&#45;writing#476709819&#45;&gt;http://purl.org/dj/kaggle/exercise&#45;creating&#45;reading&#45;and&#45;writing#445383666</title>
<path fill="none" stroke="black" d="M3198.17,-176.77C3111.51,-161.46 2974.15,-137.18 2884.96,-121.42"/>
<polygon fill="black" stroke="black" points="2885.32,-117.93 2874.86,-119.64 2884.1,-124.83 2885.32,-117.93"/>
<text text-anchor="middle" x="3091.18" y="-144.8" font-family="Times,serif" font-size="14.00">previous</text>
</g>
<!-- http://purl.org/dj/kaggle/exercise&#45;creating&#45;reading&#45;and&#45;writing#476709819&#45;&gt;http://purl.org/dj/kaggle/exercise&#45;creating&#45;reading&#45;and&#45;writing#80085334 -->
<g id="edge13" class="edge">
<title>http://purl.org/dj/kaggle/exercise&#45;creating&#45;reading&#45;and&#45;writing#476709819&#45;&gt;http://purl.org/dj/kaggle/exercise&#45;creating&#45;reading&#45;and&#45;writing#80085334</title>
<path fill="none" stroke="black" d="M3234.22,-174.71C3195.36,-160.48 3138.94,-139.8 3098.14,-124.85"/>
<polygon fill="black" stroke="black" points="3099.23,-121.53 3088.64,-121.37 3096.83,-128.1 3099.23,-121.53"/>
<text text-anchor="middle" x="3200.18" y="-144.8" font-family="Times,serif" font-size="14.00">previous</text>
</g>
<!-- http://purl.org/dj/kaggle/exercise&#45;creating&#45;reading&#45;and&#45;writing#160825886 -->
<g id="node12" class="node">
<title>http://purl.org/dj/kaggle/exercise&#45;creating&#45;reading&#45;and&#45;writing#160825886</title>
<ellipse fill="none" stroke="black" cx="3278.68" cy="-105" rx="115.08" ry="18"/>
<text text-anchor="middle" x="3278.68" y="-101.3" font-family="Times,serif" font-size="14.00">160825886 (Cows(0): Reuse)</text>
</g>
<!-- http://purl.org/dj/kaggle/exercise&#45;creating&#45;reading&#45;and&#45;writing#476709819&#45;&gt;http://purl.org/dj/kaggle/exercise&#45;creating&#45;reading&#45;and&#45;writing#160825886 -->
<g id="edge14" class="edge">
<title>http://purl.org/dj/kaggle/exercise&#45;creating&#45;reading&#45;and&#45;writing#476709819&#45;&gt;http://purl.org/dj/kaggle/exercise&#45;creating&#45;reading&#45;and&#45;writing#160825886</title>
<path fill="none" stroke="black" d="M3278.68,-173.8C3278.68,-162.16 3278.68,-146.55 3278.68,-133.24"/>
<polygon fill="black" stroke="black" points="3282.18,-133.18 3278.68,-123.18 3275.18,-133.18 3282.18,-133.18"/>
<text text-anchor="middle" x="3302.18" y="-144.8" font-family="Times,serif" font-size="14.00">previous</text>
</g>
<!-- http://purl.org/dj/kaggle/exercise&#45;creating&#45;reading&#45;and&#45;writing#211812992 -->
<g id="node13" class="node">
<title>http://purl.org/dj/kaggle/exercise&#45;creating&#45;reading&#45;and&#45;writing#211812992</title>
<ellipse fill="none" stroke="black" cx="3527.68" cy="-105" rx="115.88" ry="18"/>
<text text-anchor="middle" x="3527.68" y="-101.3" font-family="Times,serif" font-size="14.00">211812992 (Goats(0): Reuse)</text>
</g>
<!-- http://purl.org/dj/kaggle/exercise&#45;creating&#45;reading&#45;and&#45;writing#476709819&#45;&gt;http://purl.org/dj/kaggle/exercise&#45;creating&#45;reading&#45;and&#45;writing#211812992 -->
<g id="edge15" class="edge">
<title>http://purl.org/dj/kaggle/exercise&#45;creating&#45;reading&#45;and&#45;writing#476709819&#45;&gt;http://purl.org/dj/kaggle/exercise&#45;creating&#45;reading&#45;and&#45;writing#211812992</title>
<path fill="none" stroke="black" d="M3326.1,-174.81C3367.81,-160.57 3428.56,-139.83 3472.46,-124.85"/>
<polygon fill="black" stroke="black" points="3473.78,-128.1 3482.11,-121.55 3471.52,-121.47 3473.78,-128.1"/>
<text text-anchor="middle" x="3442.18" y="-144.8" font-family="Times,serif" font-size="14.00">previous</text>
</g>
<!-- http://purl.org/dj/kaggle/exercise&#45;creating&#45;reading&#45;and&#45;writing#30998711 -->
<g id="node14" class="node">
<title>http://purl.org/dj/kaggle/exercise&#45;creating&#45;reading&#45;and&#45;writing#30998711</title>
<ellipse fill="none" stroke="black" cx="3756.68" cy="-105" rx="94.78" ry="18"/>
<text text-anchor="middle" x="3756.68" y="-101.3" font-family="Times,serif" font-size="14.00">30998711 (5(0): Reuse)</text>
</g>
<!-- http://purl.org/dj/kaggle/exercise&#45;creating&#45;reading&#45;and&#45;writing#476709819&#45;&gt;http://purl.org/dj/kaggle/exercise&#45;creating&#45;reading&#45;and&#45;writing#30998711 -->
<g id="edge16" class="edge">
<title>http://purl.org/dj/kaggle/exercise&#45;creating&#45;reading&#45;and&#45;writing#476709819&#45;&gt;http://purl.org/dj/kaggle/exercise&#45;creating&#45;reading&#45;and&#45;writing#30998711</title>
<path fill="none" stroke="black" d="M3358.95,-176.72C3448.44,-160.81 3592.12,-135.26 3680.09,-119.62"/>
<polygon fill="black" stroke="black" points="3680.77,-123.05 3690,-117.86 3679.54,-116.16 3680.77,-123.05"/>
<text text-anchor="middle" x="3570.18" y="-144.8" font-family="Times,serif" font-size="14.00">previous</text>
</g>
<!-- http://purl.org/dj/python/lib/144966264 -->
<g id="node15" class="node">
<title>http://purl.org/dj/python/lib/144966264</title>
<ellipse fill="none" stroke="black" cx="3978.68" cy="-105" rx="109.38" ry="18"/>
<text text-anchor="middle" x="3978.68" y="-101.3" font-family="Times,serif" font-size="14.00">144966264 (pandas: Reuse)</text>
</g>
<!-- http://purl.org/dj/kaggle/exercise&#45;creating&#45;reading&#45;and&#45;writing#476709819&#45;&gt;http://purl.org/dj/python/lib/144966264 -->
<g id="edge17" class="edge">
<title>http://purl.org/dj/kaggle/exercise&#45;creating&#45;reading&#45;and&#45;writing#476709819&#45;&gt;http://purl.org/dj/python/lib/144966264</title>
<path fill="none" stroke="black" d="M3387.61,-179.47C3449.28,-172.84 3527.82,-164.21 3597.68,-156 3714.68,-142.24 3743.93,-138.73 3860.68,-123 3870.12,-121.73 3879.97,-120.36 3889.8,-118.98"/>
<polygon fill="black" stroke="black" points="3890.59,-122.41 3900,-117.54 3889.61,-115.47 3890.59,-122.41"/>
<text text-anchor="middle" x="3744.18" y="-144.8" font-family="Times,serif" font-size="14.00">previous</text>
</g>
<!-- http://purl.org/dj/kaggle/exercise&#45;creating&#45;reading&#45;and&#45;writing#1643649568 -->
<g id="node16" class="node">
<title>http://purl.org/dj/kaggle/exercise&#45;creating&#45;reading&#45;and&#45;writing#1643649568</title>
<ellipse fill="none" stroke="black" cx="4493.68" cy="-105" rx="387.23" ry="18"/>
<text text-anchor="middle" x="4493.68" y="-101.3" font-family="Times,serif" font-size="14.00">1643649568 ([&lt;_ast.Constant object at 0x12fc4f160&gt;, &lt;_ast.Constant object at 0x12fc4f670&gt;](0): Reuse)</text>
</g>
<!-- http://purl.org/dj/kaggle/exercise&#45;creating&#45;reading&#45;and&#45;writing#476709819&#45;&gt;http://purl.org/dj/kaggle/exercise&#45;creating&#45;reading&#45;and&#45;writing#1643649568 -->
<g id="edge18" class="edge">
<title>http://purl.org/dj/kaggle/exercise&#45;creating&#45;reading&#45;and&#45;writing#476709819&#45;&gt;http://purl.org/dj/kaggle/exercise&#45;creating&#45;reading&#45;and&#45;writing#1643649568</title>
<path fill="none" stroke="black" d="M3404.98,-182.16C3611.93,-167.69 4025.53,-138.75 4279.12,-121.01"/>
<polygon fill="black" stroke="black" points="4279.46,-124.49 4289.19,-120.31 4278.97,-117.51 4279.46,-124.49"/>
<text text-anchor="middle" x="3983.18" y="-144.8" font-family="Times,serif" font-size="14.00">previous</text>
</g>
<!-- http://purl.org/dj/kaggle/exercise&#45;creating&#45;reading&#45;and&#45;writing#160825886&#45;&gt;http://purl.org/dj/kaggle/exercise&#45;creating&#45;reading&#45;and&#45;writing -->
<g id="edge19" class="edge">
<title>http://purl.org/dj/kaggle/exercise&#45;creating&#45;reading&#45;and&#45;writing#160825886&#45;&gt;http://purl.org/dj/kaggle/exercise&#45;creating&#45;reading&#45;and&#45;writing</title>
<path fill="none" stroke="black" d="M3361.36,-92.48C3375.15,-90.61 3389.32,-88.72 3402.68,-87 3563.16,-66.3 3749.12,-44.8 3865.34,-31.65"/>
<polygon fill="black" stroke="black" points="3865.78,-35.12 3875.32,-30.52 3864.99,-28.17 3865.78,-35.12"/>
<text text-anchor="middle" x="3695.18" y="-57.8" font-family="Times,serif" font-size="14.00">previous</text>
</g>
<!-- http://purl.org/dj/kaggle/exercise&#45;creating&#45;reading&#45;and&#45;writing#211812992&#45;&gt;http://purl.org/dj/kaggle/exercise&#45;creating&#45;reading&#45;and&#45;writing -->
<g id="edge20" class="edge">
<title>http://purl.org/dj/kaggle/exercise&#45;creating&#45;reading&#45;and&#45;writing#211812992&#45;&gt;http://purl.org/dj/kaggle/exercise&#45;creating&#45;reading&#45;and&#45;writing</title>
<path fill="none" stroke="black" d="M3598.15,-90.72C3677.74,-75.72 3807.28,-51.3 3892.74,-35.2"/>
<polygon fill="black" stroke="black" points="3893.5,-38.61 3902.68,-33.32 3892.21,-31.74 3893.5,-38.61"/>
<text text-anchor="middle" x="3804.18" y="-57.8" font-family="Times,serif" font-size="14.00">previous</text>
</g>
<!-- http://purl.org/dj/kaggle/exercise&#45;creating&#45;reading&#45;and&#45;writing#30998711&#45;&gt;http://purl.org/dj/kaggle/exercise&#45;creating&#45;reading&#45;and&#45;writing -->
<g id="edge21" class="edge">
<title>http://purl.org/dj/kaggle/exercise&#45;creating&#45;reading&#45;and&#45;writing#30998711&#45;&gt;http://purl.org/dj/kaggle/exercise&#45;creating&#45;reading&#45;and&#45;writing</title>
<path fill="none" stroke="black" d="M3796.88,-88.61C3833.24,-74.69 3887,-54.1 3926.63,-38.93"/>
<polygon fill="black" stroke="black" points="3928.04,-42.14 3936.13,-35.29 3925.54,-35.6 3928.04,-42.14"/>
<text text-anchor="middle" x="3905.18" y="-57.8" font-family="Times,serif" font-size="14.00">previous</text>
</g>
<!-- http://purl.org/dj/python/lib/144966264&#45;&gt;http://purl.org/dj/kaggle/exercise&#45;creating&#45;reading&#45;and&#45;writing -->
<g id="edge22" class="edge">
<title>http://purl.org/dj/python/lib/144966264&#45;&gt;http://purl.org/dj/kaggle/exercise&#45;creating&#45;reading&#45;and&#45;writing</title>
<path fill="none" stroke="black" d="M3978.68,-86.8C3978.68,-75.16 3978.68,-59.55 3978.68,-46.24"/>
<polygon fill="black" stroke="black" points="3982.18,-46.18 3978.68,-36.18 3975.18,-46.18 3982.18,-46.18"/>
<text text-anchor="middle" x="4002.18" y="-57.8" font-family="Times,serif" font-size="14.00">previous</text>
</g>
<!-- http://purl.org/dj/kaggle/exercise&#45;creating&#45;reading&#45;and&#45;writing#1643649568&#45;&gt;http://purl.org/dj/kaggle/exercise&#45;creating&#45;reading&#45;and&#45;writing -->
<g id="edge23" class="edge">
<title>http://purl.org/dj/kaggle/exercise&#45;creating&#45;reading&#45;and&#45;writing#1643649568&#45;&gt;http://purl.org/dj/kaggle/exercise&#45;creating&#45;reading&#45;and&#45;writing</title>
<path fill="none" stroke="black" d="M4394.07,-87.56C4300.93,-72.19 4162.88,-49.4 4071.87,-34.38"/>
<polygon fill="black" stroke="black" points="4072.27,-30.9 4061.84,-32.73 4071.13,-37.81 4072.27,-30.9"/>
<text text-anchor="middle" x="4291.18" y="-57.8" font-family="Times,serif" font-size="14.00">previous</text>
</g>
<!-- http://purl.org/dj/python/lib/830277147 -->
<g id="node17" class="node">
<title>http://purl.org/dj/python/lib/830277147</title>
<ellipse fill="none" stroke="black" cx="5253.68" cy="-105" rx="137.28" ry="18"/>
<text text-anchor="middle" x="5253.68" y="-101.3" font-family="Times,serif" font-size="14.00">830277147 (learntools.core: Reuse)</text>
</g>
<!-- http://purl.org/dj/python/lib/830277147&#45;&gt;http://purl.org/dj/kaggle/exercise&#45;creating&#45;reading&#45;and&#45;writing -->
<g id="edge24" class="edge">
<title>http://purl.org/dj/python/lib/830277147&#45;&gt;http://purl.org/dj/kaggle/exercise&#45;creating&#45;reading&#45;and&#45;writing</title>
<path fill="none" stroke="black" d="M5155.26,-92.37C5139.03,-90.52 5122.39,-88.67 5106.68,-87 4956.15,-70.97 4918.68,-64.69 4767.68,-54 4544.85,-38.22 4286.07,-28.35 4127.36,-23.26"/>
<polygon fill="black" stroke="black" points="4127.16,-19.75 4117.06,-22.93 4126.94,-26.75 4127.16,-19.75"/>
<text text-anchor="middle" x="4961.18" y="-57.8" font-family="Times,serif" font-size="14.00">previous</text>
</g>
<!-- http://purl.org/dj/kaggle/exercise&#45;creating&#45;reading&#45;and&#45;writing#355533670 -->
<g id="node18" class="node">
<title>http://purl.org/dj/kaggle/exercise&#45;creating&#45;reading&#45;and&#45;writing#355533670</title>
<ellipse fill="none" stroke="black" cx="5528.68" cy="-105" rx="120.48" ry="18"/>
<text text-anchor="middle" x="5528.68" y="-101.3" font-family="Times,serif" font-size="14.00">355533670 (globals(0): Reuse)</text>
</g>
<!-- http://purl.org/dj/kaggle/exercise&#45;creating&#45;reading&#45;and&#45;writing#355533670&#45;&gt;http://purl.org/dj/kaggle/exercise&#45;creating&#45;reading&#45;and&#45;writing -->
<g id="edge25" class="edge">
<title>http://purl.org/dj/kaggle/exercise&#45;creating&#45;reading&#45;and&#45;writing#355533670&#45;&gt;http://purl.org/dj/kaggle/exercise&#45;creating&#45;reading&#45;and&#45;writing</title>
<path fill="none" stroke="black" d="M5443.75,-92.18C5429.07,-90.32 5413.94,-88.51 5399.68,-87 5217.44,-67.69 5171.63,-64.51 4988.68,-54 4683.94,-36.49 4326.93,-26.62 4129.44,-22.09"/>
<polygon fill="black" stroke="black" points="4129.36,-18.58 4119.29,-21.85 4129.2,-25.58 4129.36,-18.58"/>
<text text-anchor="middle" x="5239.18" y="-57.8" font-family="Times,serif" font-size="14.00">previous</text>
</g>
<!-- http://purl.org/dj/kaggle/exercise&#45;creating&#45;reading&#45;and&#45;writing#68092200 -->
<g id="node19" class="node">
<title>http://purl.org/dj/kaggle/exercise&#45;creating&#45;reading&#45;and&#45;writing#68092200</title>
<ellipse fill="none" stroke="black" cx="5766.68" cy="-105" rx="99.38" ry="18"/>
<text text-anchor="middle" x="5766.68" y="-101.3" font-family="Times,serif" font-size="14.00">68092200 (q5(0): Reuse)</text>
</g>
<!-- http://purl.org/dj/kaggle/exercise&#45;creating&#45;reading&#45;and&#45;writing#68092200&#45;&gt;http://purl.org/dj/kaggle/exercise&#45;creating&#45;reading&#45;and&#45;writing -->
<g id="edge26" class="edge">
<title>http://purl.org/dj/kaggle/exercise&#45;creating&#45;reading&#45;and&#45;writing#68092200&#45;&gt;http://purl.org/dj/kaggle/exercise&#45;creating&#45;reading&#45;and&#45;writing</title>
<path fill="none" stroke="black" d="M5696.12,-92.25C5683.35,-90.34 5670.13,-88.5 5657.68,-87 5484.52,-66.22 5440.8,-63.71 5266.68,-54 4856.86,-31.16 4372.82,-23.08 4131.5,-20.34"/>
<polygon fill="black" stroke="black" points="4131.29,-16.83 4121.26,-20.22 4131.22,-23.83 4131.29,-16.83"/>
<text text-anchor="middle" x="5513.18" y="-57.8" font-family="Times,serif" font-size="14.00">previous</text>
</g>
<!-- http://purl.org/dj/kaggle/exercise&#45;creating&#45;reading&#45;and&#45;writing#283050742 -->
<g id="node20" class="node">
<title>http://purl.org/dj/kaggle/exercise&#45;creating&#45;reading&#45;and&#45;writing#283050742</title>
<ellipse fill="none" stroke="black" cx="6001.68" cy="-105" rx="117.78" ry="18"/>
<text text-anchor="middle" x="6001.68" y="-101.3" font-family="Times,serif" font-size="14.00">283050742 (binder(0): Reuse)</text>
</g>
<!-- http://purl.org/dj/kaggle/exercise&#45;creating&#45;reading&#45;and&#45;writing#283050742&#45;&gt;http://purl.org/dj/kaggle/exercise&#45;creating&#45;reading&#45;and&#45;writing -->
<g id="edge27" class="edge">
<title>http://purl.org/dj/kaggle/exercise&#45;creating&#45;reading&#45;and&#45;writing#283050742&#45;&gt;http://purl.org/dj/kaggle/exercise&#45;creating&#45;reading&#45;and&#45;writing</title>
<path fill="none" stroke="black" d="M5917.34,-92.41C5825.06,-80.31 5672.66,-61.99 5540.68,-54 5025.34,-22.81 4412.85,-18.65 4132.55,-18.57"/>
<polygon fill="black" stroke="black" points="4132.31,-15.07 4122.31,-18.57 4132.31,-22.07 4132.31,-15.07"/>
<text text-anchor="middle" x="5741.18" y="-57.8" font-family="Times,serif" font-size="14.00">previous</text>
</g>
<!-- http://purl.org/dj/kaggle/exercise&#45;creating&#45;reading&#45;and&#45;writing#154272254 -->
<g id="node21" class="node">
<title>http://purl.org/dj/kaggle/exercise&#45;creating&#45;reading&#45;and&#45;writing#154272254</title>
<ellipse fill="none" stroke="black" cx="6249.68" cy="-105" rx="112.38" ry="18"/>
<text text-anchor="middle" x="6249.68" y="-101.3" font-family="Times,serif" font-size="14.00">154272254 (____(0): Reuse)</text>
</g>
<!-- http://purl.org/dj/kaggle/exercise&#45;creating&#45;reading&#45;and&#45;writing#154272254&#45;&gt;http://purl.org/dj/kaggle/exercise&#45;creating&#45;reading&#45;and&#45;writing -->
<g id="edge28" class="edge">
<title>http://purl.org/dj/kaggle/exercise&#45;creating&#45;reading&#45;and&#45;writing#154272254&#45;&gt;http://purl.org/dj/kaggle/exercise&#45;creating&#45;reading&#45;and&#45;writing</title>
<path fill="none" stroke="black" d="M6170.02,-92.25C6156.25,-90.38 6142.06,-88.55 6128.68,-87 5969.08,-68.48 5929.1,-62.91 5768.68,-54 5163.97,-20.42 4442.8,-17.68 4132.78,-18.29"/>
<polygon fill="black" stroke="black" points="4132.37,-14.79 4122.37,-18.31 4132.38,-21.79 4132.37,-14.79"/>
<text text-anchor="middle" x="5990.18" y="-57.8" font-family="Times,serif" font-size="14.00">previous</text>
</g>
<!-- http://purl.org/dj/kaggle/exercise&#45;creating&#45;reading&#45;and&#45;writing#28115116 -->
<g id="node22" class="node">
<title>http://purl.org/dj/kaggle/exercise&#45;creating&#45;reading&#45;and&#45;writing#28115116</title>
<ellipse fill="none" stroke="black" cx="6474.68" cy="-105" rx="94.78" ry="18"/>
<text text-anchor="middle" x="6474.68" y="-101.3" font-family="Times,serif" font-size="14.00">28115116 (*(0): Reuse)</text>
</g>
<!-- http://purl.org/dj/kaggle/exercise&#45;creating&#45;reading&#45;and&#45;writing#28115116&#45;&gt;http://purl.org/dj/kaggle/exercise&#45;creating&#45;reading&#45;and&#45;writing -->
<g id="edge29" class="edge">
<title>http://purl.org/dj/kaggle/exercise&#45;creating&#45;reading&#45;and&#45;writing#28115116&#45;&gt;http://purl.org/dj/kaggle/exercise&#45;creating&#45;reading&#45;and&#45;writing</title>
<path fill="none" stroke="black" d="M6407.36,-92.3C6395.17,-90.38 6382.56,-88.53 6370.68,-87 6214.39,-66.94 6175.01,-62.69 6017.68,-54 5651.11,-33.75 4540.3,-23.34 4131.66,-20.12"/>
<polygon fill="black" stroke="black" points="4131.58,-16.62 4121.55,-20.04 4131.52,-23.62 4131.58,-16.62"/>
<text text-anchor="middle" x="6241.18" y="-57.8" font-family="Times,serif" font-size="14.00">previous</text>
</g>
<!-- http://purl.org/dj/kaggle/exercise&#45;creating&#45;reading&#45;and&#45;writing#67043620 -->
<g id="node23" class="node">
<title>http://purl.org/dj/kaggle/exercise&#45;creating&#45;reading&#45;and&#45;writing#67043620</title>
<ellipse fill="none" stroke="black" cx="6686.68" cy="-105" rx="99.38" ry="18"/>
<text text-anchor="middle" x="6686.68" y="-101.3" font-family="Times,serif" font-size="14.00">67043620 (q1(0): Reuse)</text>
</g>
<!-- http://purl.org/dj/kaggle/exercise&#45;creating&#45;reading&#45;and&#45;writing#67043620&#45;&gt;http://purl.org/dj/kaggle/exercise&#45;creating&#45;reading&#45;and&#45;writing -->
<g id="edge30" class="edge">
<title>http://purl.org/dj/kaggle/exercise&#45;creating&#45;reading&#45;and&#45;writing#67043620&#45;&gt;http://purl.org/dj/kaggle/exercise&#45;creating&#45;reading&#45;and&#45;writing</title>
<path fill="none" stroke="black" d="M6615.88,-92.34C6603.49,-90.44 6590.72,-88.59 6578.68,-87 6441.31,-68.89 6406.98,-62.4 6268.68,-54 5851.51,-28.66 4575.28,-21.34 4132.16,-19.53"/>
<polygon fill="black" stroke="black" points="4131.87,-16.03 4121.85,-19.48 4131.84,-23.03 4131.87,-16.03"/>
<text text-anchor="middle" x="6462.18" y="-57.8" font-family="Times,serif" font-size="14.00">previous</text>
</g>
<!-- http://purl.org/dj/kaggle/exercise&#45;creating&#45;reading&#45;and&#45;writing#67567910 -->
<g id="node24" class="node">
<title>http://purl.org/dj/kaggle/exercise&#45;creating&#45;reading&#45;and&#45;writing#67567910</title>
<ellipse fill="none" stroke="black" cx="6903.68" cy="-105" rx="99.38" ry="18"/>
<text text-anchor="middle" x="6903.68" y="-101.3" font-family="Times,serif" font-size="14.00">67567910 (q3(0): Reuse)</text>
</g>
<!-- http://purl.org/dj/kaggle/exercise&#45;creating&#45;reading&#45;and&#45;writing#67567910&#45;&gt;http://purl.org/dj/kaggle/exercise&#45;creating&#45;reading&#45;and&#45;writing -->
<g id="edge31" class="edge">
<title>http://purl.org/dj/kaggle/exercise&#45;creating&#45;reading&#45;and&#45;writing#67567910&#45;&gt;http://purl.org/dj/kaggle/exercise&#45;creating&#45;reading&#45;and&#45;writing</title>
<path fill="none" stroke="black" d="M6832.51,-92.41C6819.92,-90.5 6806.92,-88.62 6794.68,-87 6659.5,-69.16 6625.77,-62.29 6489.68,-54 6027.59,-25.84 4604.12,-20.32 4132.35,-19.25"/>
<polygon fill="black" stroke="black" points="4132.07,-15.75 4122.07,-19.23 4132.06,-22.75 4132.07,-15.75"/>
<text text-anchor="middle" x="6681.18" y="-57.8" font-family="Times,serif" font-size="14.00">previous</text>
</g>
</g>
</svg>
