<?xml version="1.0" encoding="UTF-8" standalone="no"?>
<!DOCTYPE svg PUBLIC "-//W3C//DTD SVG 1.1//EN"
 "http://www.w3.org/Graphics/SVG/1.1/DTD/svg11.dtd">
<!-- Generated by graphviz version 2.47.1 (20210417.1919)
 -->
<!-- Pages: 1 -->
<svg width="5317pt" height="695pt"
 viewBox="0.00 0.00 5317.34 695.00" xmlns="http://www.w3.org/2000/svg" xmlns:xlink="http://www.w3.org/1999/xlink">
<g id="graph0" class="graph" transform="scale(1 1) rotate(0) translate(4 691)">
<polygon fill="white" stroke="transparent" points="-4,4 -4,-691 5313.34,-691 5313.34,4 -4,4"/>
<!-- http://purl.org/dj/kaggle/exercise&#45;introduction/activity/&#45;3229075010698408481 -->
<g id="node1" class="node">
<title>http://purl.org/dj/kaggle/exercise&#45;introduction/activity/&#45;3229075010698408481</title>
<ellipse fill="none" stroke="black" cx="702.45" cy="-246" rx="144.07" ry="18"/>
<text text-anchor="middle" x="702.45" y="-242.3" font-family="Times,serif" font-size="14.00">&#45;3229075010698408481 (Movement)</text>
</g>
<!-- http://purl.org/dj/kaggle/exercise&#45;introduction/activity/7161165314976466901 -->
<g id="node2" class="node">
<title>http://purl.org/dj/kaggle/exercise&#45;introduction/activity/7161165314976466901</title>
<ellipse fill="none" stroke="black" cx="2179.45" cy="-105" rx="124.28" ry="18"/>
<text text-anchor="middle" x="2179.45" y="-101.3" font-family="Times,serif" font-size="14.00">7161165314976466901 (Reuse)</text>
</g>
<!-- http://purl.org/dj/kaggle/exercise&#45;introduction/activity/&#45;3229075010698408481&#45;&gt;http://purl.org/dj/kaggle/exercise&#45;introduction/activity/7161165314976466901 -->
<g id="edge1" class="edge">
<title>http://purl.org/dj/kaggle/exercise&#45;introduction/activity/&#45;3229075010698408481&#45;&gt;http://purl.org/dj/kaggle/exercise&#45;introduction/activity/7161165314976466901</title>
<path fill="none" stroke="black" d="M727.9,-228.23C766.83,-203.65 844.34,-158.83 917.45,-141 1024.57,-114.88 1742.95,-108.2 2045.52,-106.53"/>
<polygon fill="black" stroke="black" points="2045.68,-110.03 2055.66,-106.48 2045.64,-103.03 2045.68,-110.03"/>
<text text-anchor="middle" x="849.95" y="-188.3" font-family="Times,serif" font-size="14.00">previous</text>
</g>
<!-- http://purl.org/dj/kaggle/exercise&#45;introduction -->
<g id="node3" class="node">
<title>http://purl.org/dj/kaggle/exercise&#45;introduction</title>
<ellipse fill="none" stroke="black" cx="389.45" cy="-18" rx="190.37" ry="18"/>
<text text-anchor="middle" x="389.45" y="-14.3" font-family="Times,serif" font-size="14.00">exercise&#45;introduction (exercise&#45;introduction.ipynb)</text>
</g>
<!-- http://purl.org/dj/kaggle/exercise&#45;introduction/activity/7161165314976466901&#45;&gt;http://purl.org/dj/kaggle/exercise&#45;introduction -->
<g id="edge2" class="edge">
<title>http://purl.org/dj/kaggle/exercise&#45;introduction/activity/7161165314976466901&#45;&gt;http://purl.org/dj/kaggle/exercise&#45;introduction</title>
<path fill="none" stroke="black" d="M2063.38,-98.49C1757.81,-83.98 929.61,-44.65 565.37,-27.35"/>
<polygon fill="black" stroke="black" points="565.42,-23.85 555.26,-26.87 565.08,-30.84 565.42,-23.85"/>
<text text-anchor="middle" x="1415.95" y="-57.8" font-family="Times,serif" font-size="14.00">previous</text>
</g>
<!-- http://purl.org/dj/kaggle/exercise&#45;introduction/activity/3147914898867159220 -->
<g id="node4" class="node">
<title>http://purl.org/dj/kaggle/exercise&#45;introduction/activity/3147914898867159220</title>
<ellipse fill="none" stroke="black" cx="352.45" cy="-192" rx="148.67" ry="18"/>
<text text-anchor="middle" x="352.45" y="-188.3" font-family="Times,serif" font-size="14.00">3147914898867159220 (Visualisation)</text>
</g>
<!-- http://purl.org/dj/kaggle/exercise&#45;introduction/activity/3147914898867159220&#45;&gt;http://purl.org/dj/kaggle/exercise&#45;introduction/activity/7161165314976466901 -->
<g id="edge3" class="edge">
<title>http://purl.org/dj/kaggle/exercise&#45;introduction/activity/3147914898867159220&#45;&gt;http://purl.org/dj/kaggle/exercise&#45;introduction/activity/7161165314976466901</title>
<path fill="none" stroke="black" d="M382.39,-174.26C405.2,-162.47 437.81,-147.65 468.45,-141 620.45,-108.01 1668.61,-105.57 2045.14,-105.78"/>
<polygon fill="black" stroke="black" points="2045.26,-109.28 2055.27,-105.78 2045.27,-102.28 2045.26,-109.28"/>
<text text-anchor="middle" x="491.95" y="-144.8" font-family="Times,serif" font-size="14.00">previous</text>
</g>
<!-- http://purl.org/dj/kaggle/exercise&#45;introduction/activity/3147914898867159220&#45;&gt;http://purl.org/dj/kaggle/exercise&#45;introduction -->
<g id="edge4" class="edge">
<title>http://purl.org/dj/kaggle/exercise&#45;introduction/activity/3147914898867159220&#45;&gt;http://purl.org/dj/kaggle/exercise&#45;introduction</title>
<path fill="none" stroke="black" d="M356.14,-173.88C362.56,-144 375.88,-82.11 383.59,-46.27"/>
<polygon fill="black" stroke="black" points="387.1,-46.56 385.78,-36.05 380.26,-45.09 387.1,-46.56"/>
<text text-anchor="middle" x="398.95" y="-101.3" font-family="Times,serif" font-size="14.00">previous</text>
</g>
<!-- http://purl.org/dj/kaggle/exercise&#45;introduction/activity/&#45;2077346272470654847 -->
<g id="node5" class="node">
<title>http://purl.org/dj/kaggle/exercise&#45;introduction/activity/&#45;2077346272470654847</title>
<ellipse fill="none" stroke="black" cx="552.45" cy="-495" rx="135.68" ry="18"/>
<text text-anchor="middle" x="552.45" y="-491.3" font-family="Times,serif" font-size="14.00">&#45;2077346272470654847 (Analysis)</text>
</g>
<!-- http://purl.org/dj/kaggle/exercise&#45;introduction/activity/&#45;2077346272470654847&#45;&gt;http://purl.org/dj/kaggle/exercise&#45;introduction/activity/3147914898867159220 -->
<g id="edge5" class="edge">
<title>http://purl.org/dj/kaggle/exercise&#45;introduction/activity/&#45;2077346272470654847&#45;&gt;http://purl.org/dj/kaggle/exercise&#45;introduction/activity/3147914898867159220</title>
<path fill="none" stroke="black" d="M467.11,-480.96C447.12,-475.85 426.42,-468.77 408.45,-459 359.01,-432.12 338.71,-423.69 316.45,-372 294.33,-320.64 319.8,-255.06 337.76,-219.25"/>
<polygon fill="black" stroke="black" points="341.08,-220.46 342.59,-209.98 334.87,-217.23 341.08,-220.46"/>
<text text-anchor="middle" x="339.95" y="-350.3" font-family="Times,serif" font-size="14.00">previous</text>
</g>
<!-- http://purl.org/dj/kaggle/exercise&#45;introduction/activity/2295089648629425882 -->
<g id="node6" class="node">
<title>http://purl.org/dj/kaggle/exercise&#45;introduction/activity/2295089648629425882</title>
<ellipse fill="none" stroke="black" cx="1187.45" cy="-408" rx="148.67" ry="18"/>
<text text-anchor="middle" x="1187.45" y="-404.3" font-family="Times,serif" font-size="14.00">2295089648629425882 (Visualisation)</text>
</g>
<!-- http://purl.org/dj/kaggle/exercise&#45;introduction/activity/&#45;2077346272470654847&#45;&gt;http://purl.org/dj/kaggle/exercise&#45;introduction/activity/2295089648629425882 -->
<g id="edge6" class="edge">
<title>http://purl.org/dj/kaggle/exercise&#45;introduction/activity/&#45;2077346272470654847&#45;&gt;http://purl.org/dj/kaggle/exercise&#45;introduction/activity/2295089648629425882</title>
<path fill="none" stroke="black" d="M644.45,-481.69C760.46,-466.16 959.48,-439.52 1081.66,-423.16"/>
<polygon fill="black" stroke="black" points="1082.33,-426.6 1091.78,-421.81 1081.4,-419.66 1082.33,-426.6"/>
<text text-anchor="middle" x="931.95" y="-447.8" font-family="Times,serif" font-size="14.00">previous</text>
</g>
<!-- http://purl.org/dj/kaggle/exercise&#45;introduction/activity/&#45;508956336263176350 -->
<g id="node7" class="node">
<title>http://purl.org/dj/kaggle/exercise&#45;introduction/activity/&#45;508956336263176350</title>
<ellipse fill="none" stroke="black" cx="552.45" cy="-408" rx="147.57" ry="18"/>
<text text-anchor="middle" x="552.45" y="-404.3" font-family="Times,serif" font-size="14.00">&#45;508956336263176350 (Visualisation)</text>
</g>
<!-- http://purl.org/dj/kaggle/exercise&#45;introduction/activity/&#45;2077346272470654847&#45;&gt;http://purl.org/dj/kaggle/exercise&#45;introduction/activity/&#45;508956336263176350 -->
<g id="edge7" class="edge">
<title>http://purl.org/dj/kaggle/exercise&#45;introduction/activity/&#45;2077346272470654847&#45;&gt;http://purl.org/dj/kaggle/exercise&#45;introduction/activity/&#45;508956336263176350</title>
<path fill="none" stroke="black" d="M552.45,-476.8C552.45,-465.16 552.45,-449.55 552.45,-436.24"/>
<polygon fill="black" stroke="black" points="555.95,-436.18 552.45,-426.18 548.95,-436.18 555.95,-436.18"/>
<text text-anchor="middle" x="575.95" y="-447.8" font-family="Times,serif" font-size="14.00">previous</text>
</g>
<!-- http://purl.org/dj/kaggle/exercise&#45;introduction/activity/351822154970171404 -->
<g id="node8" class="node">
<title>http://purl.org/dj/kaggle/exercise&#45;introduction/activity/351822154970171404</title>
<ellipse fill="none" stroke="black" cx="161.45" cy="-246" rx="144.07" ry="18"/>
<text text-anchor="middle" x="161.45" y="-242.3" font-family="Times,serif" font-size="14.00">351822154970171404 (Visualisation)</text>
</g>
<!-- http://purl.org/dj/kaggle/exercise&#45;introduction/activity/&#45;2077346272470654847&#45;&gt;http://purl.org/dj/kaggle/exercise&#45;introduction/activity/351822154970171404 -->
<g id="edge8" class="edge">
<title>http://purl.org/dj/kaggle/exercise&#45;introduction/activity/&#45;2077346272470654847&#45;&gt;http://purl.org/dj/kaggle/exercise&#45;introduction/activity/351822154970171404</title>
<path fill="none" stroke="black" d="M427.84,-487.73C388.03,-482.74 344.46,-474.04 306.45,-459 226.71,-427.45 184.95,-323.66 169.1,-273.97"/>
<polygon fill="black" stroke="black" points="172.39,-272.77 166.11,-264.24 165.7,-274.82 172.39,-272.77"/>
<text text-anchor="middle" x="278.95" y="-404.3" font-family="Times,serif" font-size="14.00">previous</text>
</g>
<!-- http://purl.org/dj/kaggle/exercise&#45;introduction/activity/&#45;2906153171667239743 -->
<g id="node9" class="node">
<title>http://purl.org/dj/kaggle/exercise&#45;introduction/activity/&#45;2906153171667239743</title>
<ellipse fill="none" stroke="black" cx="523.45" cy="-354" rx="151.37" ry="18"/>
<text text-anchor="middle" x="523.45" y="-350.3" font-family="Times,serif" font-size="14.00">&#45;2906153171667239743 (Visualisation)</text>
</g>
<!-- http://purl.org/dj/kaggle/exercise&#45;introduction/activity/&#45;2077346272470654847&#45;&gt;http://purl.org/dj/kaggle/exercise&#45;introduction/activity/&#45;2906153171667239743 -->
<g id="edge9" class="edge">
<title>http://purl.org/dj/kaggle/exercise&#45;introduction/activity/&#45;2077346272470654847&#45;&gt;http://purl.org/dj/kaggle/exercise&#45;introduction/activity/&#45;2906153171667239743</title>
<path fill="none" stroke="black" d="M476.64,-480.05C446.05,-470.3 413.71,-453.81 395.45,-426 386.67,-412.63 385.74,-402.72 395.45,-390 400.86,-382.92 414.67,-376.92 431.33,-372"/>
<polygon fill="black" stroke="black" points="432.71,-375.25 441.42,-369.23 430.85,-368.5 432.71,-375.25"/>
<text text-anchor="middle" x="451.95" y="-447.8" font-family="Times,serif" font-size="14.00">previous</text>
</g>
<!-- http://purl.org/dj/kaggle/exercise&#45;introduction/activity/&#45;3301899307495624289 -->
<g id="node10" class="node">
<title>http://purl.org/dj/kaggle/exercise&#45;introduction/activity/&#45;3301899307495624289</title>
<ellipse fill="none" stroke="black" cx="869.45" cy="-408" rx="151.37" ry="18"/>
<text text-anchor="middle" x="869.45" y="-404.3" font-family="Times,serif" font-size="14.00">&#45;3301899307495624289 (Visualisation)</text>
</g>
<!-- http://purl.org/dj/kaggle/exercise&#45;introduction/activity/&#45;2077346272470654847&#45;&gt;http://purl.org/dj/kaggle/exercise&#45;introduction/activity/&#45;3301899307495624289 -->
<g id="edge10" class="edge">
<title>http://purl.org/dj/kaggle/exercise&#45;introduction/activity/&#45;2077346272470654847&#45;&gt;http://purl.org/dj/kaggle/exercise&#45;introduction/activity/&#45;3301899307495624289</title>
<path fill="none" stroke="black" d="M609.86,-478.61C663.75,-464.16 744.39,-442.53 801.47,-427.23"/>
<polygon fill="black" stroke="black" points="802.38,-430.61 811.13,-424.64 800.57,-423.85 802.38,-430.61"/>
<text text-anchor="middle" x="753.95" y="-447.8" font-family="Times,serif" font-size="14.00">previous</text>
</g>
<!-- http://purl.org/dj/kaggle/exercise&#45;introduction/activity/2295089648629425882&#45;&gt;http://purl.org/dj/kaggle/exercise&#45;introduction/activity/7161165314976466901 -->
<g id="edge11" class="edge">
<title>http://purl.org/dj/kaggle/exercise&#45;introduction/activity/2295089648629425882&#45;&gt;http://purl.org/dj/kaggle/exercise&#45;introduction/activity/7161165314976466901</title>
<path fill="none" stroke="black" d="M1169.32,-389.92C1120.44,-342.97 991.84,-212.83 1025.45,-174 1058.46,-135.87 1751.41,-115.69 2047.35,-108.78"/>
<polygon fill="black" stroke="black" points="2047.79,-112.27 2057.71,-108.54 2047.63,-105.28 2047.79,-112.27"/>
<text text-anchor="middle" x="1077.95" y="-242.3" font-family="Times,serif" font-size="14.00">previous</text>
</g>
<!-- http://purl.org/dj/kaggle/exercise&#45;introduction/activity/&#45;1340123583327569203 -->
<g id="node11" class="node">
<title>http://purl.org/dj/kaggle/exercise&#45;introduction/activity/&#45;1340123583327569203</title>
<ellipse fill="none" stroke="black" cx="869.45" cy="-300" rx="144.07" ry="18"/>
<text text-anchor="middle" x="869.45" y="-296.3" font-family="Times,serif" font-size="14.00">&#45;1340123583327569203 (Movement)</text>
</g>
<!-- http://purl.org/dj/kaggle/exercise&#45;introduction/activity/2295089648629425882&#45;&gt;http://purl.org/dj/kaggle/exercise&#45;introduction/activity/&#45;1340123583327569203 -->
<g id="edge12" class="edge">
<title>http://purl.org/dj/kaggle/exercise&#45;introduction/activity/2295089648629425882&#45;&gt;http://purl.org/dj/kaggle/exercise&#45;introduction/activity/&#45;1340123583327569203</title>
<path fill="none" stroke="black" d="M1074.33,-396.26C1043.23,-391.07 1009.95,-383.38 980.45,-372 972.1,-368.78 932.45,-342.95 902.91,-323.36"/>
<polygon fill="black" stroke="black" points="904.76,-320.39 894.5,-317.77 900.89,-326.22 904.76,-320.39"/>
<text text-anchor="middle" x="1003.95" y="-350.3" font-family="Times,serif" font-size="14.00">previous</text>
</g>
<!-- http://purl.org/dj/kaggle/exercise&#45;introduction/activity/&#45;508956336263176350&#45;&gt;http://purl.org/dj/kaggle/exercise&#45;introduction/activity/&#45;3229075010698408481 -->
<g id="edge13" class="edge">
<title>http://purl.org/dj/kaggle/exercise&#45;introduction/activity/&#45;508956336263176350&#45;&gt;http://purl.org/dj/kaggle/exercise&#45;introduction/activity/&#45;3229075010698408481</title>
<path fill="none" stroke="black" d="M642.95,-393.7C655.13,-388.57 666.49,-381.56 675.45,-372 700.12,-345.69 704.35,-302.44 704.15,-274.34"/>
<polygon fill="black" stroke="black" points="707.64,-273.93 703.88,-264.03 700.65,-274.12 707.64,-273.93"/>
<text text-anchor="middle" x="719.95" y="-350.3" font-family="Times,serif" font-size="14.00">previous</text>
</g>
<!-- http://purl.org/dj/kaggle/exercise&#45;introduction/activity/&#45;508956336263176350&#45;&gt;http://purl.org/dj/kaggle/exercise&#45;introduction/activity/&#45;1340123583327569203 -->
<g id="edge14" class="edge">
<title>http://purl.org/dj/kaggle/exercise&#45;introduction/activity/&#45;508956336263176350&#45;&gt;http://purl.org/dj/kaggle/exercise&#45;introduction/activity/&#45;1340123583327569203</title>
<path fill="none" stroke="black" d="M657.27,-395.31C687.29,-390.09 719.67,-382.63 748.45,-372 765.9,-365.56 805.58,-341.54 834.77,-323.2"/>
<polygon fill="black" stroke="black" points="836.87,-326.02 843.45,-317.72 833.13,-320.1 836.87,-326.02"/>
<text text-anchor="middle" x="837.95" y="-350.3" font-family="Times,serif" font-size="14.00">previous</text>
</g>
<!-- http://purl.org/dj/kaggle/exercise&#45;introduction/activity/351822154970171404&#45;&gt;http://purl.org/dj/kaggle/exercise&#45;introduction/activity/7161165314976466901 -->
<g id="edge15" class="edge">
<title>http://purl.org/dj/kaggle/exercise&#45;introduction/activity/351822154970171404&#45;&gt;http://purl.org/dj/kaggle/exercise&#45;introduction/activity/7161165314976466901</title>
<path fill="none" stroke="black" d="M150.92,-227.98C142.6,-212.13 134.37,-188.77 147.45,-174 227.9,-83.17 297.42,-149.55 418.45,-141 734.27,-118.69 1691.36,-109.57 2045.67,-106.9"/>
<polygon fill="black" stroke="black" points="2045.74,-110.4 2055.72,-106.83 2045.69,-103.4 2045.74,-110.4"/>
<text text-anchor="middle" x="170.95" y="-188.3" font-family="Times,serif" font-size="14.00">previous</text>
</g>
<!-- http://purl.org/dj/kaggle/exercise&#45;introduction/activity/&#45;2906153171667239743&#45;&gt;http://purl.org/dj/kaggle/exercise&#45;introduction/activity/7161165314976466901 -->
<g id="edge16" class="edge">
<title>http://purl.org/dj/kaggle/exercise&#45;introduction/activity/&#45;2906153171667239743&#45;&gt;http://purl.org/dj/kaggle/exercise&#45;introduction/activity/7161165314976466901</title>
<path fill="none" stroke="black" d="M513.21,-336.01C498.94,-309.89 477.48,-259.59 502.45,-228 606.42,-96.5 703.23,-162.69 869.45,-141 1093.52,-111.77 1758.62,-106.83 2045.39,-106.08"/>
<polygon fill="black" stroke="black" points="2045.44,-109.58 2055.43,-106.06 2045.42,-102.58 2045.44,-109.58"/>
<text text-anchor="middle" x="525.95" y="-242.3" font-family="Times,serif" font-size="14.00">previous</text>
</g>
<!-- http://purl.org/dj/kaggle/exercise&#45;introduction/activity/&#45;3301899307495624289&#45;&gt;http://purl.org/dj/kaggle/exercise&#45;introduction/activity/&#45;1340123583327569203 -->
<g id="edge17" class="edge">
<title>http://purl.org/dj/kaggle/exercise&#45;introduction/activity/&#45;3301899307495624289&#45;&gt;http://purl.org/dj/kaggle/exercise&#45;introduction/activity/&#45;1340123583327569203</title>
<path fill="none" stroke="black" d="M869.45,-389.97C869.45,-373.38 869.45,-347.88 869.45,-328.43"/>
<polygon fill="black" stroke="black" points="872.95,-328.34 869.45,-318.34 865.95,-328.34 872.95,-328.34"/>
<text text-anchor="middle" x="892.95" y="-350.3" font-family="Times,serif" font-size="14.00">previous</text>
</g>
<!-- http://purl.org/dj/kaggle/exercise&#45;introduction/activity/&#45;1340123583327569203&#45;&gt;http://purl.org/dj/kaggle/exercise&#45;introduction/activity/7161165314976466901 -->
<g id="edge18" class="edge">
<title>http://purl.org/dj/kaggle/exercise&#45;introduction/activity/&#45;1340123583327569203&#45;&gt;http://purl.org/dj/kaggle/exercise&#45;introduction/activity/7161165314976466901</title>
<path fill="none" stroke="black" d="M899.01,-282C905.84,-276.94 912.53,-270.88 917.45,-264 941.83,-229.93 920.77,-207.85 945.45,-174 960.49,-153.38 968.23,-149.05 992.45,-141 1089.95,-108.6 1755.22,-105.44 2045.01,-105.62"/>
<polygon fill="black" stroke="black" points="2045.16,-109.12 2055.16,-105.63 2045.16,-102.12 2045.16,-109.12"/>
<text text-anchor="middle" x="968.95" y="-188.3" font-family="Times,serif" font-size="14.00">previous</text>
</g>
<!-- http://purl.org/dj/kaggle/exercise&#45;introduction/activity/&#45;1340123583327569203&#45;&gt;http://purl.org/dj/kaggle/exercise&#45;introduction/activity/3147914898867159220 -->
<g id="edge19" class="edge">
<title>http://purl.org/dj/kaggle/exercise&#45;introduction/activity/&#45;1340123583327569203&#45;&gt;http://purl.org/dj/kaggle/exercise&#45;introduction/activity/3147914898867159220</title>
<path fill="none" stroke="black" d="M869.32,-281.95C868.18,-265.36 863.63,-240.83 847.45,-228 833.85,-217.21 640.98,-206.13 500.08,-199.4"/>
<polygon fill="black" stroke="black" points="500.18,-195.9 490.03,-198.92 499.85,-202.89 500.18,-195.9"/>
<text text-anchor="middle" x="890.95" y="-242.3" font-family="Times,serif" font-size="14.00">previous</text>
</g>
<!-- http://purl.org/dj/kaggle/exercise&#45;introduction/activity/&#45;5976127404627223823 -->
<g id="node12" class="node">
<title>http://purl.org/dj/kaggle/exercise&#45;introduction/activity/&#45;5976127404627223823</title>
<ellipse fill="none" stroke="black" cx="1185.45" cy="-192" rx="151.37" ry="18"/>
<text text-anchor="middle" x="1185.45" y="-188.3" font-family="Times,serif" font-size="14.00">&#45;5976127404627223823 (Visualisation)</text>
</g>
<!-- http://purl.org/dj/kaggle/exercise&#45;introduction/activity/&#45;1340123583327569203&#45;&gt;http://purl.org/dj/kaggle/exercise&#45;introduction/activity/&#45;5976127404627223823 -->
<g id="edge20" class="edge">
<title>http://purl.org/dj/kaggle/exercise&#45;introduction/activity/&#45;1340123583327569203&#45;&gt;http://purl.org/dj/kaggle/exercise&#45;introduction/activity/&#45;5976127404627223823</title>
<path fill="none" stroke="black" d="M914.1,-282.69C924.68,-277.64 935.48,-271.42 944.45,-264 959.66,-251.42 953.66,-238.37 970.45,-228 986.44,-218.13 1022.41,-210.64 1060.44,-205.18"/>
<polygon fill="black" stroke="black" points="1061.25,-208.61 1070.67,-203.77 1060.29,-201.67 1061.25,-208.61"/>
<text text-anchor="middle" x="993.95" y="-242.3" font-family="Times,serif" font-size="14.00">previous</text>
</g>
<!-- http://purl.org/dj/kaggle/exercise&#45;introduction/activity/&#45;5976127404627223823&#45;&gt;http://purl.org/dj/kaggle/exercise&#45;introduction/activity/7161165314976466901 -->
<g id="edge31" class="edge">
<title>http://purl.org/dj/kaggle/exercise&#45;introduction/activity/&#45;5976127404627223823&#45;&gt;http://purl.org/dj/kaggle/exercise&#45;introduction/activity/7161165314976466901</title>
<path fill="none" stroke="black" d="M1216.47,-174.19C1239.69,-162.53 1272.62,-147.91 1303.45,-141 1440.54,-110.29 1835.43,-105.67 2045.03,-105.48"/>
<polygon fill="black" stroke="black" points="2045.18,-108.98 2055.18,-105.48 2045.18,-101.98 2045.18,-108.98"/>
<text text-anchor="middle" x="1326.95" y="-144.8" font-family="Times,serif" font-size="14.00">previous</text>
</g>
<!-- http://purl.org/dj/kaggle/exercise&#45;introduction/activity/&#45;2097627556246446146 -->
<g id="node13" class="node">
<title>http://purl.org/dj/kaggle/exercise&#45;introduction/activity/&#45;2097627556246446146</title>
<ellipse fill="none" stroke="black" cx="1543.45" cy="-192" rx="151.37" ry="18"/>
<text text-anchor="middle" x="1543.45" y="-188.3" font-family="Times,serif" font-size="14.00">&#45;2097627556246446146 (Visualisation)</text>
</g>
<!-- http://purl.org/dj/kaggle/exercise&#45;introduction/activity/&#45;2097627556246446146&#45;&gt;http://purl.org/dj/kaggle/exercise&#45;introduction/activity/7161165314976466901 -->
<g id="edge21" class="edge">
<title>http://purl.org/dj/kaggle/exercise&#45;introduction/activity/&#45;2097627556246446146&#45;&gt;http://purl.org/dj/kaggle/exercise&#45;introduction/activity/7161165314976466901</title>
<path fill="none" stroke="black" d="M1640.05,-178.09C1759.44,-162.13 1961.51,-135.13 2081.52,-119.09"/>
<polygon fill="black" stroke="black" points="2082,-122.56 2091.44,-117.76 2081.07,-115.62 2082,-122.56"/>
<text text-anchor="middle" x="1923.95" y="-144.8" font-family="Times,serif" font-size="14.00">previous</text>
</g>
<!-- http://purl.org/dj/kaggle/exercise&#45;introduction/activity/&#45;1009325189399660962 -->
<g id="node14" class="node">
<title>http://purl.org/dj/kaggle/exercise&#45;introduction/activity/&#45;1009325189399660962</title>
<ellipse fill="none" stroke="black" cx="1235.45" cy="-495" rx="145.67" ry="18"/>
<text text-anchor="middle" x="1235.45" y="-491.3" font-family="Times,serif" font-size="14.00">&#45;1009325189399660962 (Preparation)</text>
</g>
<!-- http://purl.org/dj/kaggle/exercise&#45;introduction/activity/&#45;1009325189399660962&#45;&gt;http://purl.org/dj/kaggle/exercise&#45;introduction/activity/7161165314976466901 -->
<g id="edge22" class="edge">
<title>http://purl.org/dj/kaggle/exercise&#45;introduction/activity/&#45;1009325189399660962&#45;&gt;http://purl.org/dj/kaggle/exercise&#45;introduction/activity/7161165314976466901</title>
<path fill="none" stroke="black" d="M1296.55,-478.55C1329.89,-466.06 1364.45,-444.54 1364.45,-409 1364.45,-409 1364.45,-409 1364.45,-191 1364.45,-123.36 1814.21,-109.31 2045.5,-106.55"/>
<polygon fill="black" stroke="black" points="2045.71,-110.05 2055.67,-106.44 2045.63,-103.05 2045.71,-110.05"/>
<text text-anchor="middle" x="1387.95" y="-296.3" font-family="Times,serif" font-size="14.00">previous</text>
</g>
<!-- http://purl.org/dj/kaggle/exercise&#45;introduction/activity/&#45;1009325189399660962&#45;&gt;http://purl.org/dj/kaggle/exercise&#45;introduction/activity/2295089648629425882 -->
<g id="edge23" class="edge">
<title>http://purl.org/dj/kaggle/exercise&#45;introduction/activity/&#45;1009325189399660962&#45;&gt;http://purl.org/dj/kaggle/exercise&#45;introduction/activity/2295089648629425882</title>
<path fill="none" stroke="black" d="M1225.74,-476.8C1218.97,-464.82 1209.82,-448.62 1202.17,-435.06"/>
<polygon fill="black" stroke="black" points="1205.12,-433.16 1197.15,-426.18 1199.02,-436.6 1205.12,-433.16"/>
<text text-anchor="middle" x="1237.95" y="-447.8" font-family="Times,serif" font-size="14.00">previous</text>
</g>
<!-- http://purl.org/dj/kaggle/exercise&#45;introduction/activity/&#45;1009325189399660962&#45;&gt;http://purl.org/dj/kaggle/exercise&#45;introduction/activity/&#45;3301899307495624289 -->
<g id="edge24" class="edge">
<title>http://purl.org/dj/kaggle/exercise&#45;introduction/activity/&#45;1009325189399660962&#45;&gt;http://purl.org/dj/kaggle/exercise&#45;introduction/activity/&#45;3301899307495624289</title>
<path fill="none" stroke="black" d="M1170.02,-478.8C1106.95,-464.16 1011.56,-442 945.22,-426.6"/>
<polygon fill="black" stroke="black" points="945.78,-423.13 935.24,-424.28 944.19,-429.95 945.78,-423.13"/>
<text text-anchor="middle" x="1097.95" y="-447.8" font-family="Times,serif" font-size="14.00">previous</text>
</g>
<!-- http://purl.org/dj/kaggle/exercise&#45;introduction/activity/&#45;1828182115719001526 -->
<g id="node15" class="node">
<title>http://purl.org/dj/kaggle/exercise&#45;introduction/activity/&#45;1828182115719001526</title>
<ellipse fill="none" stroke="black" cx="1024.45" cy="-582" rx="145.67" ry="18"/>
<text text-anchor="middle" x="1024.45" y="-578.3" font-family="Times,serif" font-size="14.00">&#45;1828182115719001526 (Preparation)</text>
</g>
<!-- http://purl.org/dj/kaggle/exercise&#45;introduction/activity/&#45;1828182115719001526&#45;&gt;http://purl.org/dj/kaggle/exercise&#45;introduction/activity/7161165314976466901 -->
<g id="edge25" class="edge">
<title>http://purl.org/dj/kaggle/exercise&#45;introduction/activity/&#45;1828182115719001526&#45;&gt;http://purl.org/dj/kaggle/exercise&#45;introduction/activity/7161165314976466901</title>
<path fill="none" stroke="black" d="M1169.34,-579.98C1905.71,-574.57 5198.45,-547.5 5198.45,-496 5198.45,-496 5198.45,-496 5198.45,-191 5198.45,-78.67 4807.69,-145.6 4695.45,-141 4225.18,-121.71 2764,-110.1 2313.24,-106.9"/>
<polygon fill="black" stroke="black" points="2313.13,-103.4 2303.11,-106.83 2313.08,-110.4 2313.13,-103.4"/>
<text text-anchor="middle" x="5221.95" y="-350.3" font-family="Times,serif" font-size="14.00">previous</text>
</g>
<!-- http://purl.org/dj/kaggle/exercise&#45;introduction/activity/&#45;1828182115719001526&#45;&gt;http://purl.org/dj/kaggle/exercise&#45;introduction/activity/3147914898867159220 -->
<g id="edge26" class="edge">
<title>http://purl.org/dj/kaggle/exercise&#45;introduction/activity/&#45;1828182115719001526&#45;&gt;http://purl.org/dj/kaggle/exercise&#45;introduction/activity/3147914898867159220</title>
<path fill="none" stroke="black" d="M885.82,-576.49C606.51,-566.49 2.45,-539.8 2.45,-496 2.45,-496 2.45,-496 2.45,-299 2.45,-266.84 -7.36,-249.62 16.45,-228 46.54,-200.68 158.03,-214.23 198.45,-210 211.03,-208.68 224.18,-207.28 237.27,-205.86"/>
<polygon fill="black" stroke="black" points="237.7,-209.33 247.26,-204.77 236.94,-202.37 237.7,-209.33"/>
<text text-anchor="middle" x="25.95" y="-404.3" font-family="Times,serif" font-size="14.00">previous</text>
</g>
<!-- http://purl.org/dj/kaggle/exercise&#45;introduction/activity/&#45;1828182115719001526&#45;&gt;http://purl.org/dj/kaggle/exercise&#45;introduction/activity/&#45;2077346272470654847 -->
<g id="edge27" class="edge">
<title>http://purl.org/dj/kaggle/exercise&#45;introduction/activity/&#45;1828182115719001526&#45;&gt;http://purl.org/dj/kaggle/exercise&#45;introduction/activity/&#45;2077346272470654847</title>
<path fill="none" stroke="black" d="M925.21,-568.83C879.74,-562.78 825.22,-554.87 776.45,-546 725.17,-536.67 667.81,-523.82 623.97,-513.49"/>
<polygon fill="black" stroke="black" points="624.52,-510.02 613.98,-511.12 622.91,-516.83 624.52,-510.02"/>
<text text-anchor="middle" x="799.95" y="-534.8" font-family="Times,serif" font-size="14.00">previous</text>
</g>
<!-- http://purl.org/dj/kaggle/exercise&#45;introduction/activity/&#45;1828182115719001526&#45;&gt;http://purl.org/dj/kaggle/exercise&#45;introduction/activity/2295089648629425882 -->
<g id="edge28" class="edge">
<title>http://purl.org/dj/kaggle/exercise&#45;introduction/activity/&#45;1828182115719001526&#45;&gt;http://purl.org/dj/kaggle/exercise&#45;introduction/activity/2295089648629425882</title>
<path fill="none" stroke="black" d="M1020.35,-563.67C1014.64,-534.81 1008.13,-476.86 1038.45,-444 1045.87,-435.96 1063.95,-429.46 1085.05,-424.36"/>
<polygon fill="black" stroke="black" points="1085.96,-427.74 1094.94,-422.11 1084.41,-420.92 1085.96,-427.74"/>
<text text-anchor="middle" x="1044.95" y="-491.3" font-family="Times,serif" font-size="14.00">previous</text>
</g>
<!-- http://purl.org/dj/kaggle/exercise&#45;introduction/activity/&#45;1828182115719001526&#45;&gt;http://purl.org/dj/kaggle/exercise&#45;introduction/activity/&#45;508956336263176350 -->
<g id="edge29" class="edge">
<title>http://purl.org/dj/kaggle/exercise&#45;introduction/activity/&#45;1828182115719001526&#45;&gt;http://purl.org/dj/kaggle/exercise&#45;introduction/activity/&#45;508956336263176350</title>
<path fill="none" stroke="black" d="M1001.34,-564.13C959.67,-534.63 868.2,-473.96 781.45,-444 759.63,-436.46 711.3,-428.64 664.65,-422.31"/>
<polygon fill="black" stroke="black" points="665.1,-418.84 654.73,-420.99 664.17,-425.78 665.1,-418.84"/>
<text text-anchor="middle" x="944.95" y="-491.3" font-family="Times,serif" font-size="14.00">previous</text>
</g>
<!-- http://purl.org/dj/kaggle/exercise&#45;introduction/activity/&#45;1828182115719001526&#45;&gt;http://purl.org/dj/kaggle/exercise&#45;introduction/activity/&#45;5976127404627223823 -->
<g id="edge30" class="edge">
<title>http://purl.org/dj/kaggle/exercise&#45;introduction/activity/&#45;1828182115719001526&#45;&gt;http://purl.org/dj/kaggle/exercise&#45;introduction/activity/&#45;5976127404627223823</title>
<path fill="none" stroke="black" d="M1167.27,-578.36C1287.32,-572.13 1439.45,-553 1439.45,-496 1439.45,-496 1439.45,-496 1439.45,-299 1439.45,-242.54 1385.34,-215.61 1327.06,-202.99"/>
<polygon fill="black" stroke="black" points="1327.41,-199.49 1316.92,-200.94 1326.02,-206.35 1327.41,-199.49"/>
<text text-anchor="middle" x="1462.95" y="-404.3" font-family="Times,serif" font-size="14.00">previous</text>
</g>
<!-- http://purl.org/dj/kaggle/exercise&#45;introduction/activity/3702489602603670232 -->
<g id="node16" class="node">
<title>http://purl.org/dj/kaggle/exercise&#45;introduction/activity/3702489602603670232</title>
<ellipse fill="none" stroke="black" cx="1861.45" cy="-192" rx="148.67" ry="18"/>
<text text-anchor="middle" x="1861.45" y="-188.3" font-family="Times,serif" font-size="14.00">3702489602603670232 (Visualisation)</text>
</g>
<!-- http://purl.org/dj/kaggle/exercise&#45;introduction/activity/3702489602603670232&#45;&gt;http://purl.org/dj/kaggle/exercise&#45;introduction/activity/7161165314976466901 -->
<g id="edge32" class="edge">
<title>http://purl.org/dj/kaggle/exercise&#45;introduction/activity/3702489602603670232&#45;&gt;http://purl.org/dj/kaggle/exercise&#45;introduction/activity/7161165314976466901</title>
<path fill="none" stroke="black" d="M1919.78,-175.41C1974.41,-160.81 2055.99,-139 2113.09,-123.74"/>
<polygon fill="black" stroke="black" points="2114.34,-127.03 2123.1,-121.06 2112.53,-120.26 2114.34,-127.03"/>
<text text-anchor="middle" x="2063.95" y="-144.8" font-family="Times,serif" font-size="14.00">previous</text>
</g>
<!-- http://purl.org/dj/kaggle/exercise&#45;introduction/activity/&#45;7764692436231620587 -->
<g id="node17" class="node">
<title>http://purl.org/dj/kaggle/exercise&#45;introduction/activity/&#45;7764692436231620587</title>
<ellipse fill="none" stroke="black" cx="2179.45" cy="-192" rx="151.37" ry="18"/>
<text text-anchor="middle" x="2179.45" y="-188.3" font-family="Times,serif" font-size="14.00">&#45;7764692436231620587 (Visualisation)</text>
</g>
<!-- http://purl.org/dj/kaggle/exercise&#45;introduction/activity/&#45;7764692436231620587&#45;&gt;http://purl.org/dj/kaggle/exercise&#45;introduction/activity/7161165314976466901 -->
<g id="edge33" class="edge">
<title>http://purl.org/dj/kaggle/exercise&#45;introduction/activity/&#45;7764692436231620587&#45;&gt;http://purl.org/dj/kaggle/exercise&#45;introduction/activity/7161165314976466901</title>
<path fill="none" stroke="black" d="M2179.45,-173.8C2179.45,-162.16 2179.45,-146.55 2179.45,-133.24"/>
<polygon fill="black" stroke="black" points="2182.95,-133.18 2179.45,-123.18 2175.95,-133.18 2182.95,-133.18"/>
<text text-anchor="middle" x="2202.95" y="-144.8" font-family="Times,serif" font-size="14.00">previous</text>
</g>
<!-- http://purl.org/dj/kaggle/exercise&#45;introduction/activity/230552679630236014 -->
<g id="node18" class="node">
<title>http://purl.org/dj/kaggle/exercise&#45;introduction/activity/230552679630236014</title>
<ellipse fill="none" stroke="black" cx="2493.45" cy="-192" rx="144.07" ry="18"/>
<text text-anchor="middle" x="2493.45" y="-188.3" font-family="Times,serif" font-size="14.00">230552679630236014 (Visualisation)</text>
</g>
<!-- http://purl.org/dj/kaggle/exercise&#45;introduction/activity/230552679630236014&#45;&gt;http://purl.org/dj/kaggle/exercise&#45;introduction/activity/7161165314976466901 -->
<g id="edge34" class="edge">
<title>http://purl.org/dj/kaggle/exercise&#45;introduction/activity/230552679630236014&#45;&gt;http://purl.org/dj/kaggle/exercise&#45;introduction/activity/7161165314976466901</title>
<path fill="none" stroke="black" d="M2435.86,-175.41C2382,-160.83 2301.61,-139.07 2245.24,-123.81"/>
<polygon fill="black" stroke="black" points="2245.93,-120.37 2235.36,-121.13 2244.1,-127.13 2245.93,-120.37"/>
<text text-anchor="middle" x="2378.95" y="-144.8" font-family="Times,serif" font-size="14.00">previous</text>
</g>
<!-- http://purl.org/dj/kaggle/exercise&#45;introduction/activity/1442135612966194676 -->
<g id="node19" class="node">
<title>http://purl.org/dj/kaggle/exercise&#45;introduction/activity/1442135612966194676</title>
<ellipse fill="none" stroke="black" cx="2804.45" cy="-192" rx="148.67" ry="18"/>
<text text-anchor="middle" x="2804.45" y="-188.3" font-family="Times,serif" font-size="14.00">1442135612966194676 (Visualisation)</text>
</g>
<!-- http://purl.org/dj/kaggle/exercise&#45;introduction/activity/1442135612966194676&#45;&gt;http://purl.org/dj/kaggle/exercise&#45;introduction/activity/7161165314976466901 -->
<g id="edge35" class="edge">
<title>http://purl.org/dj/kaggle/exercise&#45;introduction/activity/1442135612966194676&#45;&gt;http://purl.org/dj/kaggle/exercise&#45;introduction/activity/7161165314976466901</title>
<path fill="none" stroke="black" d="M2709.53,-178.09C2592.56,-162.18 2394.87,-135.3 2276.8,-119.24"/>
<polygon fill="black" stroke="black" points="2277.06,-115.74 2266.68,-117.86 2276.12,-122.68 2277.06,-115.74"/>
<text text-anchor="middle" x="2552.95" y="-144.8" font-family="Times,serif" font-size="14.00">previous</text>
</g>
<!-- http://purl.org/dj/kaggle/exercise&#45;introduction/activity/3953549517985900103 -->
<g id="node20" class="node">
<title>http://purl.org/dj/kaggle/exercise&#45;introduction/activity/3953549517985900103</title>
<ellipse fill="none" stroke="black" cx="3120.45" cy="-192" rx="148.67" ry="18"/>
<text text-anchor="middle" x="3120.45" y="-188.3" font-family="Times,serif" font-size="14.00">3953549517985900103 (Visualisation)</text>
</g>
<!-- http://purl.org/dj/kaggle/exercise&#45;introduction/activity/3953549517985900103&#45;&gt;http://purl.org/dj/kaggle/exercise&#45;introduction/activity/7161165314976466901 -->
<g id="edge36" class="edge">
<title>http://purl.org/dj/kaggle/exercise&#45;introduction/activity/3953549517985900103&#45;&gt;http://purl.org/dj/kaggle/exercise&#45;introduction/activity/7161165314976466901</title>
<path fill="none" stroke="black" d="M3014.67,-179.31C2997.23,-177.48 2979.34,-175.64 2962.45,-174 2725.81,-151 2448.56,-127.8 2295.61,-115.34"/>
<polygon fill="black" stroke="black" points="2295.52,-111.82 2285.27,-114.5 2294.95,-118.8 2295.52,-111.82"/>
<text text-anchor="middle" x="2792.95" y="-144.8" font-family="Times,serif" font-size="14.00">previous</text>
</g>
<!-- http://purl.org/dj/kaggle/exercise&#45;introduction/activity/&#45;7453009072428133550 -->
<g id="node21" class="node">
<title>http://purl.org/dj/kaggle/exercise&#45;introduction/activity/&#45;7453009072428133550</title>
<ellipse fill="none" stroke="black" cx="3438.45" cy="-192" rx="151.37" ry="18"/>
<text text-anchor="middle" x="3438.45" y="-188.3" font-family="Times,serif" font-size="14.00">&#45;7453009072428133550 (Visualisation)</text>
</g>
<!-- http://purl.org/dj/kaggle/exercise&#45;introduction/activity/&#45;7453009072428133550&#45;&gt;http://purl.org/dj/kaggle/exercise&#45;introduction/activity/7161165314976466901 -->
<g id="edge37" class="edge">
<title>http://purl.org/dj/kaggle/exercise&#45;introduction/activity/&#45;7453009072428133550&#45;&gt;http://purl.org/dj/kaggle/exercise&#45;introduction/activity/7161165314976466901</title>
<path fill="none" stroke="black" d="M3331.78,-179.16C3313.98,-177.33 3295.7,-175.54 3278.45,-174 2927.13,-142.69 2511.34,-121.19 2306.51,-111.62"/>
<polygon fill="black" stroke="black" points="2306.47,-108.12 2296.31,-111.15 2306.14,-115.11 2306.47,-108.12"/>
<text text-anchor="middle" x="3061.95" y="-144.8" font-family="Times,serif" font-size="14.00">previous</text>
</g>
<!-- http://purl.org/dj/kaggle/exercise&#45;introduction/activity/5744496353682794418 -->
<g id="node22" class="node">
<title>http://purl.org/dj/kaggle/exercise&#45;introduction/activity/5744496353682794418</title>
<ellipse fill="none" stroke="black" cx="3756.45" cy="-192" rx="148.67" ry="18"/>
<text text-anchor="middle" x="3756.45" y="-188.3" font-family="Times,serif" font-size="14.00">5744496353682794418 (Visualisation)</text>
</g>
<!-- http://purl.org/dj/kaggle/exercise&#45;introduction/activity/5744496353682794418&#45;&gt;http://purl.org/dj/kaggle/exercise&#45;introduction/activity/7161165314976466901 -->
<g id="edge38" class="edge">
<title>http://purl.org/dj/kaggle/exercise&#45;introduction/activity/5744496353682794418&#45;&gt;http://purl.org/dj/kaggle/exercise&#45;introduction/activity/7161165314976466901</title>
<path fill="none" stroke="black" d="M3651.98,-179.13C3634.13,-177.28 3615.77,-175.49 3598.45,-174 3125.84,-133.27 2562.41,-115.36 2311.4,-108.97"/>
<polygon fill="black" stroke="black" points="2311.23,-105.46 2301.14,-108.71 2311.05,-112.46 2311.23,-105.46"/>
<text text-anchor="middle" x="3350.95" y="-144.8" font-family="Times,serif" font-size="14.00">previous</text>
</g>
<!-- http://purl.org/dj/kaggle/exercise&#45;introduction/activity/4970458746771766036 -->
<g id="node23" class="node">
<title>http://purl.org/dj/kaggle/exercise&#45;introduction/activity/4970458746771766036</title>
<ellipse fill="none" stroke="black" cx="4178.45" cy="-669" rx="148.67" ry="18"/>
<text text-anchor="middle" x="4178.45" y="-665.3" font-family="Times,serif" font-size="14.00">4970458746771766036 (Visualisation)</text>
</g>
<!-- http://purl.org/dj/kaggle/exercise&#45;introduction/activity/4970458746771766036&#45;&gt;http://purl.org/dj/kaggle/exercise&#45;introduction/activity/7161165314976466901 -->
<g id="edge39" class="edge">
<title>http://purl.org/dj/kaggle/exercise&#45;introduction/activity/4970458746771766036&#45;&gt;http://purl.org/dj/kaggle/exercise&#45;introduction/activity/7161165314976466901</title>
<path fill="none" stroke="black" d="M4321.58,-664.02C4615.64,-654.88 5260.45,-629.55 5260.45,-583 5260.45,-583 5260.45,-583 5260.45,-191 5260.45,-145.11 5487.5,-178.04 4949.45,-141 4427.93,-105.1 2794.71,-104.93 2313.9,-105.7"/>
<polygon fill="black" stroke="black" points="2313.79,-102.2 2303.79,-105.71 2313.8,-109.2 2313.79,-102.2"/>
<text text-anchor="middle" x="5283.95" y="-404.3" font-family="Times,serif" font-size="14.00">previous</text>
</g>
<!-- http://purl.org/dj/kaggle/exercise&#45;introduction/activity/4970458746771766036&#45;&gt;http://purl.org/dj/kaggle/exercise&#45;introduction/activity/&#45;1828182115719001526 -->
<g id="edge40" class="edge">
<title>http://purl.org/dj/kaggle/exercise&#45;introduction/activity/4970458746771766036&#45;&gt;http://purl.org/dj/kaggle/exercise&#45;introduction/activity/&#45;1828182115719001526</title>
<path fill="none" stroke="black" d="M4034.99,-664.13C3511.91,-650.04 1709.7,-601.47 1175.09,-587.06"/>
<polygon fill="black" stroke="black" points="1175.09,-583.56 1165,-586.79 1174.9,-590.56 1175.09,-583.56"/>
<text text-anchor="middle" x="2813.95" y="-621.8" font-family="Times,serif" font-size="14.00">previous</text>
</g>
<!-- http://purl.org/dj/kaggle/exercise&#45;introduction/activity/4330703132482933246 -->
<g id="node24" class="node">
<title>http://purl.org/dj/kaggle/exercise&#45;introduction/activity/4330703132482933246</title>
<ellipse fill="none" stroke="black" cx="4072.45" cy="-192" rx="148.67" ry="18"/>
<text text-anchor="middle" x="4072.45" y="-188.3" font-family="Times,serif" font-size="14.00">4330703132482933246 (Visualisation)</text>
</g>
<!-- http://purl.org/dj/kaggle/exercise&#45;introduction/activity/4330703132482933246&#45;&gt;http://purl.org/dj/kaggle/exercise&#45;introduction/activity/7161165314976466901 -->
<g id="edge41" class="edge">
<title>http://purl.org/dj/kaggle/exercise&#45;introduction/activity/4330703132482933246&#45;&gt;http://purl.org/dj/kaggle/exercise&#45;introduction/activity/7161165314976466901</title>
<path fill="none" stroke="black" d="M3968.41,-179.12C3950.43,-177.27 3931.91,-175.48 3914.45,-174 3318.7,-123.64 2604.66,-110.5 2313.2,-107.13"/>
<polygon fill="black" stroke="black" points="2313.05,-103.63 2303.02,-107.01 2312.98,-110.63 2313.05,-103.63"/>
<text text-anchor="middle" x="3654.95" y="-144.8" font-family="Times,serif" font-size="14.00">previous</text>
</g>
<!-- http://purl.org/dj/kaggle/exercise&#45;introduction/activity/&#45;6953499908553798406 -->
<g id="node25" class="node">
<title>http://purl.org/dj/kaggle/exercise&#45;introduction/activity/&#45;6953499908553798406</title>
<ellipse fill="none" stroke="black" cx="4390.45" cy="-192" rx="151.37" ry="18"/>
<text text-anchor="middle" x="4390.45" y="-188.3" font-family="Times,serif" font-size="14.00">&#45;6953499908553798406 (Visualisation)</text>
</g>
<!-- http://purl.org/dj/kaggle/exercise&#45;introduction/activity/&#45;6953499908553798406&#45;&gt;http://purl.org/dj/kaggle/exercise&#45;introduction/activity/7161165314976466901 -->
<g id="edge42" class="edge">
<title>http://purl.org/dj/kaggle/exercise&#45;introduction/activity/&#45;6953499908553798406&#45;&gt;http://purl.org/dj/kaggle/exercise&#45;introduction/activity/7161165314976466901</title>
<path fill="none" stroke="black" d="M4284.66,-179.07C4266.59,-177.23 4247.99,-175.46 4230.45,-174 3987.3,-153.77 3926.24,-151.18 3682.45,-141 3177.09,-119.91 2575.59,-110.69 2313.07,-107.46"/>
<polygon fill="black" stroke="black" points="2312.77,-103.96 2302.73,-107.33 2312.69,-110.96 2312.77,-103.96"/>
<text text-anchor="middle" x="4016.95" y="-144.8" font-family="Times,serif" font-size="14.00">previous</text>
</g>
<!-- http://purl.org/dj/kaggle/exercise&#45;introduction/activity/4022895329698112104 -->
<g id="node26" class="node">
<title>http://purl.org/dj/kaggle/exercise&#45;introduction/activity/4022895329698112104</title>
<ellipse fill="none" stroke="black" cx="4708.45" cy="-192" rx="148.67" ry="18"/>
<text text-anchor="middle" x="4708.45" y="-188.3" font-family="Times,serif" font-size="14.00">4022895329698112104 (Visualisation)</text>
</g>
<!-- http://purl.org/dj/kaggle/exercise&#45;introduction/activity/4022895329698112104&#45;&gt;http://purl.org/dj/kaggle/exercise&#45;introduction/activity/7161165314976466901 -->
<g id="edge43" class="edge">
<title>http://purl.org/dj/kaggle/exercise&#45;introduction/activity/4022895329698112104&#45;&gt;http://purl.org/dj/kaggle/exercise&#45;introduction/activity/7161165314976466901</title>
<path fill="none" stroke="black" d="M4603.98,-179.13C4586.13,-177.28 4567.77,-175.5 4550.45,-174 4325.92,-154.61 4269.62,-150.45 4044.45,-141 3396.21,-113.79 2620.33,-107.73 2313.63,-106.39"/>
<polygon fill="black" stroke="black" points="2313.38,-102.88 2303.36,-106.34 2313.35,-109.88 2313.38,-102.88"/>
<text text-anchor="middle" x="4345.95" y="-144.8" font-family="Times,serif" font-size="14.00">previous</text>
</g>
<!-- http://purl.org/dj/kaggle/exercise&#45;introduction/activity/&#45;428672774880213505 -->
<g id="node27" class="node">
<title>http://purl.org/dj/kaggle/exercise&#45;introduction/activity/&#45;428672774880213505</title>
<ellipse fill="none" stroke="black" cx="5022.45" cy="-192" rx="147.57" ry="18"/>
<text text-anchor="middle" x="5022.45" y="-188.3" font-family="Times,serif" font-size="14.00">&#45;428672774880213505 (Visualisation)</text>
</g>
<!-- http://purl.org/dj/kaggle/exercise&#45;introduction/activity/&#45;428672774880213505&#45;&gt;http://purl.org/dj/kaggle/exercise&#45;introduction/activity/7161165314976466901 -->
<g id="edge44" class="edge">
<title>http://purl.org/dj/kaggle/exercise&#45;introduction/activity/&#45;428672774880213505&#45;&gt;http://purl.org/dj/kaggle/exercise&#45;introduction/activity/7161165314976466901</title>
<path fill="none" stroke="black" d="M4918.88,-179.1C4901.39,-177.27 4883.41,-175.49 4866.45,-174 4647.69,-154.77 4592.87,-150.09 4373.45,-141 3593.68,-108.7 2656.88,-105.68 2313.75,-105.77"/>
<polygon fill="black" stroke="black" points="2313.53,-102.27 2303.53,-105.77 2313.53,-109.27 2313.53,-102.27"/>
<text text-anchor="middle" x="4667.95" y="-144.8" font-family="Times,serif" font-size="14.00">previous</text>
</g>
</g>
</svg>
