<?xml version="1.0" encoding="UTF-8" standalone="no"?>
<!DOCTYPE svg PUBLIC "-//W3C//DTD SVG 1.1//EN"
 "http://www.w3.org/Graphics/SVG/1.1/DTD/svg11.dtd">
<!-- Generated by graphviz version 2.47.1 (20210417.1919)
 -->
<!-- Pages: 1 -->
<svg width="2880pt" height="674pt"
 viewBox="0.00 0.00 2879.84 674.00" xmlns="http://www.w3.org/2000/svg" xmlns:xlink="http://www.w3.org/1999/xlink">
<g id="graph0" class="graph" transform="scale(1 1) rotate(0) translate(4 670)">
<polygon fill="white" stroke="transparent" points="-4,4 -4,-670 2875.84,-670 2875.84,4 -4,4"/>
<!-- http://purl.org/dj/kaggle/exploratory&#45;data&#45;analysis/activity/8751095047204468694 -->
<g id="node1" class="node">
<title>http://purl.org/dj/kaggle/exploratory&#45;data&#45;analysis/activity/8751095047204468694</title>
<ellipse fill="none" stroke="black" cx="345.84" cy="-561" rx="148.67" ry="18"/>
<text text-anchor="middle" x="345.84" y="-557.3" font-family="Times,serif" font-size="14.00">8751095047204468694 (Visualisation)</text>
</g>
<!-- http://purl.org/dj/kaggle/exploratory&#45;data&#45;analysis/activity/2139637628729675514 -->
<g id="node2" class="node">
<title>http://purl.org/dj/kaggle/exploratory&#45;data&#45;analysis/activity/2139637628729675514</title>
<ellipse fill="none" stroke="black" cx="1589.84" cy="-453" rx="141.88" ry="18"/>
<text text-anchor="middle" x="1589.84" y="-449.3" font-family="Times,serif" font-size="14.00">2139637628729675514 (Movement)</text>
</g>
<!-- http://purl.org/dj/kaggle/exploratory&#45;data&#45;analysis/activity/8751095047204468694&#45;&gt;http://purl.org/dj/kaggle/exploratory&#45;data&#45;analysis/activity/2139637628729675514 -->
<g id="edge1" class="edge">
<title>http://purl.org/dj/kaggle/exploratory&#45;data&#45;analysis/activity/8751095047204468694&#45;&gt;http://purl.org/dj/kaggle/exploratory&#45;data&#45;analysis/activity/2139637628729675514</title>
<path fill="none" stroke="black" d="M479.78,-553.1C575.75,-547.44 707.99,-538.21 823.84,-525 927.51,-513.18 952.12,-500.42 1055.84,-489 1188.02,-474.44 1339.32,-465.22 1447.05,-459.92"/>
<polygon fill="black" stroke="black" points="1447.52,-463.4 1457.33,-459.42 1447.17,-456.41 1447.52,-463.4"/>
<text text-anchor="middle" x="1079.34" y="-503.3" font-family="Times,serif" font-size="14.00">previous</text>
</g>
<!-- http://purl.org/dj/kaggle/exploratory&#45;data&#45;analysis/activity/8386333224238587420 -->
<g id="node3" class="node">
<title>http://purl.org/dj/kaggle/exploratory&#45;data&#45;analysis/activity/8386333224238587420</title>
<ellipse fill="none" stroke="black" cx="597.84" cy="-105" rx="141.88" ry="18"/>
<text text-anchor="middle" x="597.84" y="-101.3" font-family="Times,serif" font-size="14.00">8386333224238587420 (Movement)</text>
</g>
<!-- http://purl.org/dj/kaggle/exploratory&#45;data&#45;analysis/activity/8751095047204468694&#45;&gt;http://purl.org/dj/kaggle/exploratory&#45;data&#45;analysis/activity/8386333224238587420 -->
<g id="edge2" class="edge">
<title>http://purl.org/dj/kaggle/exploratory&#45;data&#45;analysis/activity/8751095047204468694&#45;&gt;http://purl.org/dj/kaggle/exploratory&#45;data&#45;analysis/activity/8386333224238587420</title>
<path fill="none" stroke="black" d="M336.99,-542.88C327.22,-522.33 312.84,-486.57 312.84,-454 312.84,-454 312.84,-454 312.84,-191 312.84,-157.63 338.65,-155.22 368.84,-141 396.66,-127.89 428.3,-119.49 458.98,-114.16"/>
<polygon fill="black" stroke="black" points="459.61,-117.6 468.91,-112.53 458.47,-110.69 459.61,-117.6"/>
<text text-anchor="middle" x="336.34" y="-318.8" font-family="Times,serif" font-size="14.00">previous</text>
</g>
<!-- http://purl.org/dj/kaggle/exploratory&#45;data&#45;analysis/activity/&#45;7623602301778260023 -->
<g id="node4" class="node">
<title>http://purl.org/dj/kaggle/exploratory&#45;data&#45;analysis/activity/&#45;7623602301778260023</title>
<ellipse fill="none" stroke="black" cx="1003.84" cy="-453" rx="144.07" ry="18"/>
<text text-anchor="middle" x="1003.84" y="-449.3" font-family="Times,serif" font-size="14.00">&#45;7623602301778260023 (Movement)</text>
</g>
<!-- http://purl.org/dj/kaggle/exploratory&#45;data&#45;analysis/activity/8751095047204468694&#45;&gt;http://purl.org/dj/kaggle/exploratory&#45;data&#45;analysis/activity/&#45;7623602301778260023 -->
<g id="edge3" class="edge">
<title>http://purl.org/dj/kaggle/exploratory&#45;data&#45;analysis/activity/8751095047204468694&#45;&gt;http://purl.org/dj/kaggle/exploratory&#45;data&#45;analysis/activity/&#45;7623602301778260023</title>
<path fill="none" stroke="black" d="M431.18,-546.25C554.34,-526.41 781.11,-489.88 909.23,-469.24"/>
<polygon fill="black" stroke="black" points="910.11,-472.64 919.42,-467.6 908.99,-465.73 910.11,-472.64"/>
<text text-anchor="middle" x="796.34" y="-503.3" font-family="Times,serif" font-size="14.00">previous</text>
</g>
<!-- http://purl.org/dj/kaggle/exploratory&#45;data&#45;analysis/activity/4853168652482053211 -->
<g id="node5" class="node">
<title>http://purl.org/dj/kaggle/exploratory&#45;data&#45;analysis/activity/4853168652482053211</title>
<ellipse fill="none" stroke="black" cx="1284.84" cy="-192" rx="124.28" ry="18"/>
<text text-anchor="middle" x="1284.84" y="-188.3" font-family="Times,serif" font-size="14.00">4853168652482053211 (Reuse)</text>
</g>
<!-- http://purl.org/dj/kaggle/exploratory&#45;data&#45;analysis/activity/2139637628729675514&#45;&gt;http://purl.org/dj/kaggle/exploratory&#45;data&#45;analysis/activity/4853168652482053211 -->
<g id="edge4" class="edge">
<title>http://purl.org/dj/kaggle/exploratory&#45;data&#45;analysis/activity/2139637628729675514&#45;&gt;http://purl.org/dj/kaggle/exploratory&#45;data&#45;analysis/activity/4853168652482053211</title>
<path fill="none" stroke="black" d="M1726.88,-448.34C1845.57,-442.24 2020.82,-426.16 2167.84,-384 2262.75,-356.78 2419.99,-333.39 2352.84,-261 2321.42,-227.13 1694.01,-204.84 1415.77,-196.58"/>
<polygon fill="black" stroke="black" points="1415.72,-193.08 1405.62,-196.28 1415.51,-200.08 1415.72,-193.08"/>
<text text-anchor="middle" x="2382.34" y="-318.8" font-family="Times,serif" font-size="14.00">previous</text>
</g>
<!-- http://purl.org/dj/kaggle/exploratory&#45;data&#45;analysis/activity/&#45;248641321743024726 -->
<g id="node6" class="node">
<title>http://purl.org/dj/kaggle/exploratory&#45;data&#45;analysis/activity/&#45;248641321743024726</title>
<ellipse fill="none" stroke="black" cx="2036.84" cy="-366" rx="122.38" ry="18"/>
<text text-anchor="middle" x="2036.84" y="-362.3" font-family="Times,serif" font-size="14.00">&#45;248641321743024726 (Reuse)</text>
</g>
<!-- http://purl.org/dj/kaggle/exploratory&#45;data&#45;analysis/activity/2139637628729675514&#45;&gt;http://purl.org/dj/kaggle/exploratory&#45;data&#45;analysis/activity/&#45;248641321743024726 -->
<g id="edge5" class="edge">
<title>http://purl.org/dj/kaggle/exploratory&#45;data&#45;analysis/activity/2139637628729675514&#45;&gt;http://purl.org/dj/kaggle/exploratory&#45;data&#45;analysis/activity/&#45;248641321743024726</title>
<path fill="none" stroke="black" d="M1664.91,-437.72C1745.32,-422.43 1872.51,-398.25 1955.32,-382.5"/>
<polygon fill="black" stroke="black" points="1956.02,-385.93 1965.19,-380.62 1954.71,-379.05 1956.02,-385.93"/>
<text text-anchor="middle" x="1864.34" y="-405.8" font-family="Times,serif" font-size="14.00">previous</text>
</g>
<!-- http://purl.org/dj/kaggle/exploratory&#45;data&#45;analysis/activity/8386333224238587420&#45;&gt;http://purl.org/dj/kaggle/exploratory&#45;data&#45;analysis/activity/4853168652482053211 -->
<g id="edge6" class="edge">
<title>http://purl.org/dj/kaggle/exploratory&#45;data&#45;analysis/activity/8386333224238587420&#45;&gt;http://purl.org/dj/kaggle/exploratory&#45;data&#45;analysis/activity/4853168652482053211</title>
<path fill="none" stroke="black" d="M685.61,-119.2C758.63,-129.93 865.36,-145.03 958.84,-156 1041.76,-165.73 1062.84,-164.93 1145.84,-174 1158.23,-175.35 1171.24,-176.85 1184.12,-178.37"/>
<polygon fill="black" stroke="black" points="1184.06,-181.89 1194.4,-179.6 1184.89,-174.94 1184.06,-181.89"/>
<text text-anchor="middle" x="982.34" y="-144.8" font-family="Times,serif" font-size="14.00">previous</text>
</g>
<!-- http://purl.org/dj/kaggle/exploratory&#45;data&#45;analysis -->
<g id="node7" class="node">
<title>http://purl.org/dj/kaggle/exploratory&#45;data&#45;analysis</title>
<ellipse fill="none" stroke="black" cx="947.84" cy="-18" rx="219.86" ry="18"/>
<text text-anchor="middle" x="947.84" y="-14.3" font-family="Times,serif" font-size="14.00">exploratory&#45;data&#45;analysis (exploratory&#45;data&#45;analysis.ipynb)</text>
</g>
<!-- http://purl.org/dj/kaggle/exploratory&#45;data&#45;analysis/activity/8386333224238587420&#45;&gt;http://purl.org/dj/kaggle/exploratory&#45;data&#45;analysis -->
<g id="edge7" class="edge">
<title>http://purl.org/dj/kaggle/exploratory&#45;data&#45;analysis/activity/8386333224238587420&#45;&gt;http://purl.org/dj/kaggle/exploratory&#45;data&#45;analysis</title>
<path fill="none" stroke="black" d="M660.41,-88.8C719.39,-74.48 807.91,-52.98 871.12,-37.63"/>
<polygon fill="black" stroke="black" points="872.15,-40.98 881.04,-35.22 870.5,-34.18 872.15,-40.98"/>
<text text-anchor="middle" x="817.34" y="-57.8" font-family="Times,serif" font-size="14.00">previous</text>
</g>
<!-- http://purl.org/dj/kaggle/exploratory&#45;data&#45;analysis/activity/&#45;7623602301778260023&#45;&gt;http://purl.org/dj/kaggle/exploratory&#45;data&#45;analysis/activity/4853168652482053211 -->
<g id="edge8" class="edge">
<title>http://purl.org/dj/kaggle/exploratory&#45;data&#45;analysis/activity/&#45;7623602301778260023&#45;&gt;http://purl.org/dj/kaggle/exploratory&#45;data&#45;analysis/activity/4853168652482053211</title>
<path fill="none" stroke="black" d="M1004.36,-434.84C1004.25,-413.06 1001.39,-375.1 984.84,-348 972.28,-327.44 963.94,-324.58 941.84,-315 896.79,-295.47 864.6,-334.44 832.84,-297 822.49,-284.8 822.4,-273.13 832.84,-261 838.61,-254.3 1055.73,-223.93 1186.91,-206.12"/>
<polygon fill="black" stroke="black" points="1187.54,-209.57 1196.98,-204.76 1186.6,-202.63 1187.54,-209.57"/>
<text text-anchor="middle" x="994.34" y="-318.8" font-family="Times,serif" font-size="14.00">previous</text>
</g>
<!-- http://purl.org/dj/kaggle/exploratory&#45;data&#45;analysis/activity/4853168652482053211&#45;&gt;http://purl.org/dj/kaggle/exploratory&#45;data&#45;analysis/activity/8386333224238587420 -->
<g id="edge9" class="edge">
<title>http://purl.org/dj/kaggle/exploratory&#45;data&#45;analysis/activity/4853168652482053211&#45;&gt;http://purl.org/dj/kaggle/exploratory&#45;data&#45;analysis/activity/8386333224238587420</title>
<path fill="none" stroke="black" d="M1193.03,-179.82C1148.44,-173.49 1100.16,-165.05 1079.84,-156 1070.01,-151.63 1070.86,-144.91 1060.84,-141 1045.6,-135.06 863.65,-122.59 732.46,-114.25"/>
<polygon fill="black" stroke="black" points="732.51,-110.75 722.31,-113.61 732.07,-117.73 732.51,-110.75"/>
<text text-anchor="middle" x="1103.34" y="-144.8" font-family="Times,serif" font-size="14.00">previous</text>
</g>
<!-- http://purl.org/dj/kaggle/exploratory&#45;data&#45;analysis/activity/4853168652482053211&#45;&gt;http://purl.org/dj/kaggle/exploratory&#45;data&#45;analysis -->
<g id="edge10" class="edge">
<title>http://purl.org/dj/kaggle/exploratory&#45;data&#45;analysis/activity/4853168652482053211&#45;&gt;http://purl.org/dj/kaggle/exploratory&#45;data&#45;analysis</title>
<path fill="none" stroke="black" d="M1282.49,-173.82C1280.53,-163.69 1277.02,-150.96 1270.84,-141 1251.92,-110.52 1242.44,-103.98 1210.84,-87 1164.78,-62.26 1109.29,-46.19 1061.17,-35.93"/>
<polygon fill="black" stroke="black" points="1061.84,-32.5 1051.34,-33.89 1060.42,-39.35 1061.84,-32.5"/>
<text text-anchor="middle" x="1282.34" y="-101.3" font-family="Times,serif" font-size="14.00">previous</text>
</g>
<!-- http://purl.org/dj/kaggle/exploratory&#45;data&#45;analysis/activity/6817376637591871323 -->
<g id="node8" class="node">
<title>http://purl.org/dj/kaggle/exploratory&#45;data&#45;analysis/activity/6817376637591871323</title>
<ellipse fill="none" stroke="black" cx="1059.84" cy="-105" rx="141.88" ry="18"/>
<text text-anchor="middle" x="1059.84" y="-101.3" font-family="Times,serif" font-size="14.00">6817376637591871323 (Movement)</text>
</g>
<!-- http://purl.org/dj/kaggle/exploratory&#45;data&#45;analysis/activity/4853168652482053211&#45;&gt;http://purl.org/dj/kaggle/exploratory&#45;data&#45;analysis/activity/6817376637591871323 -->
<g id="edge11" class="edge">
<title>http://purl.org/dj/kaggle/exploratory&#45;data&#45;analysis/activity/4853168652482053211&#45;&gt;http://purl.org/dj/kaggle/exploratory&#45;data&#45;analysis/activity/6817376637591871323</title>
<path fill="none" stroke="black" d="M1255.16,-174.42C1245.14,-168.71 1233.94,-162.18 1223.84,-156 1213.43,-149.63 1212.03,-145.87 1200.84,-141 1183.78,-133.58 1164.85,-127.52 1146.54,-122.67"/>
<polygon fill="black" stroke="black" points="1147.3,-119.25 1136.75,-120.17 1145.57,-126.03 1147.3,-119.25"/>
<text text-anchor="middle" x="1247.34" y="-144.8" font-family="Times,serif" font-size="14.00">previous</text>
</g>
<!-- http://purl.org/dj/kaggle/exploratory&#45;data&#45;analysis/activity/3026533252079336860 -->
<g id="node9" class="node">
<title>http://purl.org/dj/kaggle/exploratory&#45;data&#45;analysis/activity/3026533252079336860</title>
<ellipse fill="none" stroke="black" cx="2201.84" cy="-279" rx="141.88" ry="18"/>
<text text-anchor="middle" x="2201.84" y="-275.3" font-family="Times,serif" font-size="14.00">3026533252079336860 (Movement)</text>
</g>
<!-- http://purl.org/dj/kaggle/exploratory&#45;data&#45;analysis/activity/&#45;248641321743024726&#45;&gt;http://purl.org/dj/kaggle/exploratory&#45;data&#45;analysis/activity/3026533252079336860 -->
<g id="edge12" class="edge">
<title>http://purl.org/dj/kaggle/exploratory&#45;data&#45;analysis/activity/&#45;248641321743024726&#45;&gt;http://purl.org/dj/kaggle/exploratory&#45;data&#45;analysis/activity/3026533252079336860</title>
<path fill="none" stroke="black" d="M2068.65,-348.61C2094.85,-335.12 2132.17,-315.89 2160.65,-301.22"/>
<polygon fill="black" stroke="black" points="2162.27,-304.32 2169.56,-296.63 2159.07,-298.1 2162.27,-304.32"/>
<text text-anchor="middle" x="2153.34" y="-318.8" font-family="Times,serif" font-size="14.00">previous</text>
</g>
<!-- http://purl.org/dj/kaggle/exploratory&#45;data&#45;analysis/activity/6817376637591871323&#45;&gt;http://purl.org/dj/kaggle/exploratory&#45;data&#45;analysis/activity/4853168652482053211 -->
<g id="edge21" class="edge">
<title>http://purl.org/dj/kaggle/exploratory&#45;data&#45;analysis/activity/6817376637591871323&#45;&gt;http://purl.org/dj/kaggle/exploratory&#45;data&#45;analysis/activity/4853168652482053211</title>
<path fill="none" stroke="black" d="M1097.12,-122.56C1108.23,-127.97 1120.26,-134.32 1130.84,-141 1139.93,-146.74 1140.2,-151.21 1149.84,-156 1165.52,-163.79 1183.11,-169.97 1200.28,-174.83"/>
<polygon fill="black" stroke="black" points="1199.76,-178.31 1210.33,-177.54 1201.59,-171.56 1199.76,-178.31"/>
<text text-anchor="middle" x="1173.34" y="-144.8" font-family="Times,serif" font-size="14.00">previous</text>
</g>
<!-- http://purl.org/dj/kaggle/exploratory&#45;data&#45;analysis/activity/3026533252079336860&#45;&gt;http://purl.org/dj/kaggle/exploratory&#45;data&#45;analysis/activity/4853168652482053211 -->
<g id="edge23" class="edge">
<title>http://purl.org/dj/kaggle/exploratory&#45;data&#45;analysis/activity/3026533252079336860&#45;&gt;http://purl.org/dj/kaggle/exploratory&#45;data&#45;analysis/activity/4853168652482053211</title>
<path fill="none" stroke="black" d="M2100.74,-266.36C2084.07,-264.51 2066.98,-262.67 2050.84,-261 1820.73,-237.23 1551.21,-214.49 1401.03,-202.27"/>
<polygon fill="black" stroke="black" points="1401.12,-198.76 1390.87,-201.44 1400.56,-205.74 1401.12,-198.76"/>
<text text-anchor="middle" x="1886.34" y="-231.8" font-family="Times,serif" font-size="14.00">previous</text>
</g>
<!-- http://purl.org/dj/kaggle/exploratory&#45;data&#45;analysis/activity/&#45;79454275018134328 -->
<g id="node10" class="node">
<title>http://purl.org/dj/kaggle/exploratory&#45;data&#45;analysis/activity/&#45;79454275018134328</title>
<ellipse fill="none" stroke="black" cx="1295.84" cy="-648" rx="135.68" ry="18"/>
<text text-anchor="middle" x="1295.84" y="-644.3" font-family="Times,serif" font-size="14.00">&#45;79454275018134328 (Movement)</text>
</g>
<!-- http://purl.org/dj/kaggle/exploratory&#45;data&#45;analysis/activity/&#45;79454275018134328&#45;&gt;http://purl.org/dj/kaggle/exploratory&#45;data&#45;analysis/activity/4853168652482053211 -->
<g id="edge13" class="edge">
<title>http://purl.org/dj/kaggle/exploratory&#45;data&#45;analysis/activity/&#45;79454275018134328&#45;&gt;http://purl.org/dj/kaggle/exploratory&#45;data&#45;analysis/activity/4853168652482053211</title>
<path fill="none" stroke="black" d="M1431.53,-646.48C1805.73,-644.16 2824.84,-631.46 2824.84,-562 2824.84,-562 2824.84,-562 2824.84,-278 2824.84,-227.91 2772.47,-240 2723.84,-228 2599.57,-197.33 1752.55,-193.33 1419.21,-192.96"/>
<polygon fill="black" stroke="black" points="1419.02,-189.46 1409.01,-192.95 1419.01,-196.46 1419.02,-189.46"/>
<text text-anchor="middle" x="2848.34" y="-405.8" font-family="Times,serif" font-size="14.00">previous</text>
</g>
<!-- http://purl.org/dj/kaggle/exploratory&#45;data&#45;analysis/activity/2492956509895502684 -->
<g id="node11" class="node">
<title>http://purl.org/dj/kaggle/exploratory&#45;data&#45;analysis/activity/2492956509895502684</title>
<ellipse fill="none" stroke="black" cx="148.84" cy="-507" rx="148.67" ry="18"/>
<text text-anchor="middle" x="148.84" y="-503.3" font-family="Times,serif" font-size="14.00">2492956509895502684 (Visualisation)</text>
</g>
<!-- http://purl.org/dj/kaggle/exploratory&#45;data&#45;analysis/activity/&#45;79454275018134328&#45;&gt;http://purl.org/dj/kaggle/exploratory&#45;data&#45;analysis/activity/2492956509895502684 -->
<g id="edge14" class="edge">
<title>http://purl.org/dj/kaggle/exploratory&#45;data&#45;analysis/activity/&#45;79454275018134328&#45;&gt;http://purl.org/dj/kaggle/exploratory&#45;data&#45;analysis/activity/2492956509895502684</title>
<path fill="none" stroke="black" d="M1160.77,-645.94C883.26,-642.74 268.16,-629.91 187.84,-579 172.15,-569.06 162.27,-550.48 156.38,-534.82"/>
<polygon fill="black" stroke="black" points="159.6,-533.41 153.06,-525.07 152.97,-535.66 159.6,-533.41"/>
<text text-anchor="middle" x="367.34" y="-600.8" font-family="Times,serif" font-size="14.00">previous</text>
</g>
<!-- http://purl.org/dj/kaggle/exploratory&#45;data&#45;analysis/activity/&#45;8938942584106889508 -->
<g id="node12" class="node">
<title>http://purl.org/dj/kaggle/exploratory&#45;data&#45;analysis/activity/&#45;8938942584106889508</title>
<ellipse fill="none" stroke="black" cx="1295.84" cy="-561" rx="151.37" ry="18"/>
<text text-anchor="middle" x="1295.84" y="-557.3" font-family="Times,serif" font-size="14.00">&#45;8938942584106889508 (Visualisation)</text>
</g>
<!-- http://purl.org/dj/kaggle/exploratory&#45;data&#45;analysis/activity/&#45;79454275018134328&#45;&gt;http://purl.org/dj/kaggle/exploratory&#45;data&#45;analysis/activity/&#45;8938942584106889508 -->
<g id="edge15" class="edge">
<title>http://purl.org/dj/kaggle/exploratory&#45;data&#45;analysis/activity/&#45;79454275018134328&#45;&gt;http://purl.org/dj/kaggle/exploratory&#45;data&#45;analysis/activity/&#45;8938942584106889508</title>
<path fill="none" stroke="black" d="M1295.84,-629.8C1295.84,-618.16 1295.84,-602.55 1295.84,-589.24"/>
<polygon fill="black" stroke="black" points="1299.34,-589.18 1295.84,-579.18 1292.34,-589.18 1299.34,-589.18"/>
<text text-anchor="middle" x="1319.34" y="-600.8" font-family="Times,serif" font-size="14.00">previous</text>
</g>
<!-- http://purl.org/dj/kaggle/exploratory&#45;data&#45;analysis/activity/2492956509895502684&#45;&gt;http://purl.org/dj/kaggle/exploratory&#45;data&#45;analysis/activity/8386333224238587420 -->
<g id="edge16" class="edge">
<title>http://purl.org/dj/kaggle/exploratory&#45;data&#45;analysis/activity/2492956509895502684&#45;&gt;http://purl.org/dj/kaggle/exploratory&#45;data&#45;analysis/activity/8386333224238587420</title>
<path fill="none" stroke="black" d="M163.19,-488.94C177.02,-470.73 195.84,-440.44 195.84,-410.5 195.84,-410.5 195.84,-410.5 195.84,-191 195.84,-137.21 335.37,-117.29 450.03,-110.01"/>
<polygon fill="black" stroke="black" points="450.56,-113.49 460.33,-109.39 450.14,-106.5 450.56,-113.49"/>
<text text-anchor="middle" x="219.34" y="-318.8" font-family="Times,serif" font-size="14.00">previous</text>
</g>
<!-- http://purl.org/dj/kaggle/exploratory&#45;data&#45;analysis/activity/&#45;8938942584106889508&#45;&gt;http://purl.org/dj/kaggle/exploratory&#45;data&#45;analysis/activity/2139637628729675514 -->
<g id="edge17" class="edge">
<title>http://purl.org/dj/kaggle/exploratory&#45;data&#45;analysis/activity/&#45;8938942584106889508&#45;&gt;http://purl.org/dj/kaggle/exploratory&#45;data&#45;analysis/activity/2139637628729675514</title>
<path fill="none" stroke="black" d="M1340.81,-543.79C1393.01,-524.97 1479.08,-493.93 1535.11,-473.73"/>
<polygon fill="black" stroke="black" points="1536.65,-476.9 1544.87,-470.21 1534.28,-470.31 1536.65,-476.9"/>
<text text-anchor="middle" x="1510.34" y="-503.3" font-family="Times,serif" font-size="14.00">previous</text>
</g>
<!-- http://purl.org/dj/kaggle/exploratory&#45;data&#45;analysis/activity/&#45;8938942584106889508&#45;&gt;http://purl.org/dj/kaggle/exploratory&#45;data&#45;analysis/activity/8386333224238587420 -->
<g id="edge18" class="edge">
<title>http://purl.org/dj/kaggle/exploratory&#45;data&#45;analysis/activity/&#45;8938942584106889508&#45;&gt;http://purl.org/dj/kaggle/exploratory&#45;data&#45;analysis/activity/8386333224238587420</title>
<path fill="none" stroke="black" d="M1145.52,-558.6C1051.19,-555.36 927.45,-546.74 819.84,-525 610.2,-482.64 382.84,-537.37 382.84,-323.5 382.84,-323.5 382.84,-323.5 382.84,-191 382.84,-161.34 454.48,-137.6 515.05,-122.83"/>
<polygon fill="black" stroke="black" points="516.13,-126.17 525.05,-120.45 514.51,-119.36 516.13,-126.17"/>
<text text-anchor="middle" x="407.34" y="-318.8" font-family="Times,serif" font-size="14.00">previous</text>
</g>
<!-- http://purl.org/dj/kaggle/exploratory&#45;data&#45;analysis/activity/&#45;8938942584106889508&#45;&gt;http://purl.org/dj/kaggle/exploratory&#45;data&#45;analysis/activity/&#45;7623602301778260023 -->
<g id="edge19" class="edge">
<title>http://purl.org/dj/kaggle/exploratory&#45;data&#45;analysis/activity/&#45;8938942584106889508&#45;&gt;http://purl.org/dj/kaggle/exploratory&#45;data&#45;analysis/activity/&#45;7623602301778260023</title>
<path fill="none" stroke="black" d="M1251.17,-543.79C1199.33,-524.97 1113.84,-493.93 1058.19,-473.73"/>
<polygon fill="black" stroke="black" points="1059.09,-470.34 1048.5,-470.21 1056.7,-476.91 1059.09,-470.34"/>
<text text-anchor="middle" x="1217.34" y="-503.3" font-family="Times,serif" font-size="14.00">previous</text>
</g>
<!-- http://purl.org/dj/kaggle/exploratory&#45;data&#45;analysis/activity/&#45;8938942584106889508&#45;&gt;http://purl.org/dj/kaggle/exploratory&#45;data&#45;analysis/activity/4853168652482053211 -->
<g id="edge20" class="edge">
<title>http://purl.org/dj/kaggle/exploratory&#45;data&#45;analysis/activity/&#45;8938942584106889508&#45;&gt;http://purl.org/dj/kaggle/exploratory&#45;data&#45;analysis/activity/4853168652482053211</title>
<path fill="none" stroke="black" d="M1443.26,-556.84C1812.9,-547.96 2749.84,-519.02 2749.84,-454 2749.84,-454 2749.84,-454 2749.84,-321.5 2749.84,-199.09 2525.65,-230.74 2497.84,-228 2292,-207.71 1688.33,-197.96 1418.19,-194.51"/>
<polygon fill="black" stroke="black" points="1417.98,-191.01 1407.94,-194.38 1417.89,-198.01 1417.98,-191.01"/>
<text text-anchor="middle" x="2773.34" y="-362.3" font-family="Times,serif" font-size="14.00">previous</text>
</g>
<!-- http://purl.org/dj/kaggle/exploratory&#45;data&#45;analysis/activity/2198398027453303625 -->
<g id="node13" class="node">
<title>http://purl.org/dj/kaggle/exploratory&#45;data&#45;analysis/activity/2198398027453303625</title>
<ellipse fill="none" stroke="black" cx="1582.84" cy="-279" rx="142.97" ry="18"/>
<text text-anchor="middle" x="1582.84" y="-275.3" font-family="Times,serif" font-size="14.00">2198398027453303625 (Preparation)</text>
</g>
<!-- http://purl.org/dj/kaggle/exploratory&#45;data&#45;analysis/activity/2198398027453303625&#45;&gt;http://purl.org/dj/kaggle/exploratory&#45;data&#45;analysis/activity/4853168652482053211 -->
<g id="edge22" class="edge">
<title>http://purl.org/dj/kaggle/exploratory&#45;data&#45;analysis/activity/2198398027453303625&#45;&gt;http://purl.org/dj/kaggle/exploratory&#45;data&#45;analysis/activity/4853168652482053211</title>
<path fill="none" stroke="black" d="M1542.55,-261.66C1515.51,-251.09 1478.91,-237.58 1445.84,-228 1420.61,-220.69 1392.77,-214.12 1367.44,-208.71"/>
<polygon fill="black" stroke="black" points="1368,-205.25 1357.49,-206.61 1366.56,-212.1 1368,-205.25"/>
<text text-anchor="middle" x="1515.34" y="-231.8" font-family="Times,serif" font-size="14.00">previous</text>
</g>
<!-- http://purl.org/dj/kaggle/exploratory&#45;data&#45;analysis/activity/&#45;7784018294060091820 -->
<g id="node14" class="node">
<title>http://purl.org/dj/kaggle/exploratory&#45;data&#45;analysis/activity/&#45;7784018294060091820</title>
<ellipse fill="none" stroke="black" cx="561.84" cy="-366" rx="151.37" ry="18"/>
<text text-anchor="middle" x="561.84" y="-362.3" font-family="Times,serif" font-size="14.00">&#45;7784018294060091820 (Visualisation)</text>
</g>
<!-- http://purl.org/dj/kaggle/exploratory&#45;data&#45;analysis/activity/&#45;7784018294060091820&#45;&gt;http://purl.org/dj/kaggle/exploratory&#45;data&#45;analysis/activity/8386333224238587420 -->
<g id="edge24" class="edge">
<title>http://purl.org/dj/kaggle/exploratory&#45;data&#45;analysis/activity/&#45;7784018294060091820&#45;&gt;http://purl.org/dj/kaggle/exploratory&#45;data&#45;analysis/activity/8386333224238587420</title>
<path fill="none" stroke="black" d="M529.06,-348.32C486.93,-324.45 421.91,-277.88 445.84,-228 467.96,-181.87 516.97,-147.68 553.39,-127.41"/>
<polygon fill="black" stroke="black" points="555.22,-130.4 562.35,-122.56 551.89,-124.24 555.22,-130.4"/>
<text text-anchor="middle" x="469.34" y="-231.8" font-family="Times,serif" font-size="14.00">previous</text>
</g>
<!-- http://purl.org/dj/kaggle/exploratory&#45;data&#45;analysis/activity/&#45;7784018294060091820&#45;&gt;http://purl.org/dj/kaggle/exploratory&#45;data&#45;analysis/activity/4853168652482053211 -->
<g id="edge25" class="edge">
<title>http://purl.org/dj/kaggle/exploratory&#45;data&#45;analysis/activity/&#45;7784018294060091820&#45;&gt;http://purl.org/dj/kaggle/exploratory&#45;data&#45;analysis/activity/4853168652482053211</title>
<path fill="none" stroke="black" d="M590.79,-348.17C653.17,-311.94 795.12,-229.68 800.84,-228 874.48,-206.32 1069.36,-216.66 1145.84,-210 1159.09,-208.85 1173.03,-207.41 1186.75,-205.86"/>
<polygon fill="black" stroke="black" points="1187.16,-209.34 1196.7,-204.72 1186.36,-202.38 1187.16,-209.34"/>
<text text-anchor="middle" x="763.34" y="-275.3" font-family="Times,serif" font-size="14.00">previous</text>
</g>
<!-- http://purl.org/dj/kaggle/exploratory&#45;data&#45;analysis/activity/&#45;7784018294060091820&#45;&gt;http://purl.org/dj/kaggle/exploratory&#45;data&#45;analysis/activity/6817376637591871323 -->
<g id="edge26" class="edge">
<title>http://purl.org/dj/kaggle/exploratory&#45;data&#45;analysis/activity/&#45;7784018294060091820&#45;&gt;http://purl.org/dj/kaggle/exploratory&#45;data&#45;analysis/activity/6817376637591871323</title>
<path fill="none" stroke="black" d="M550.61,-348C534.07,-320.61 507.62,-265.98 531.84,-228 581.12,-150.71 630.46,-165.35 718.84,-141 781.07,-123.85 851.78,-114.95 912.61,-110.39"/>
<polygon fill="black" stroke="black" points="912.95,-113.87 922.67,-109.67 912.45,-106.89 912.95,-113.87"/>
<text text-anchor="middle" x="555.34" y="-231.8" font-family="Times,serif" font-size="14.00">previous</text>
</g>
<!-- http://purl.org/dj/kaggle/exploratory&#45;data&#45;analysis/activity/163092154359488298 -->
<g id="node15" class="node">
<title>http://purl.org/dj/kaggle/exploratory&#45;data&#45;analysis/activity/163092154359488298</title>
<ellipse fill="none" stroke="black" cx="1284.84" cy="-279" rx="137.28" ry="18"/>
<text text-anchor="middle" x="1284.84" y="-275.3" font-family="Times,serif" font-size="14.00">163092154359488298 (Movement)</text>
</g>
<!-- http://purl.org/dj/kaggle/exploratory&#45;data&#45;analysis/activity/&#45;7784018294060091820&#45;&gt;http://purl.org/dj/kaggle/exploratory&#45;data&#45;analysis/activity/163092154359488298 -->
<g id="edge27" class="edge">
<title>http://purl.org/dj/kaggle/exploratory&#45;data&#45;analysis/activity/&#45;7784018294060091820&#45;&gt;http://purl.org/dj/kaggle/exploratory&#45;data&#45;analysis/activity/163092154359488298</title>
<path fill="none" stroke="black" d="M628.99,-349.85C682.34,-338.42 758.99,-323.32 826.84,-315 964.7,-298.09 1000.46,-309.04 1138.84,-297 1151.8,-295.87 1165.4,-294.52 1178.85,-293.07"/>
<polygon fill="black" stroke="black" points="1179.54,-296.52 1189.11,-291.96 1178.78,-289.56 1179.54,-296.52"/>
<text text-anchor="middle" x="850.34" y="-318.8" font-family="Times,serif" font-size="14.00">previous</text>
</g>
<!-- http://purl.org/dj/kaggle/exploratory&#45;data&#45;analysis/activity/163092154359488298&#45;&gt;http://purl.org/dj/kaggle/exploratory&#45;data&#45;analysis/activity/4853168652482053211 -->
<g id="edge28" class="edge">
<title>http://purl.org/dj/kaggle/exploratory&#45;data&#45;analysis/activity/163092154359488298&#45;&gt;http://purl.org/dj/kaggle/exploratory&#45;data&#45;analysis/activity/4853168652482053211</title>
<path fill="none" stroke="black" d="M1284.84,-260.8C1284.84,-249.16 1284.84,-233.55 1284.84,-220.24"/>
<polygon fill="black" stroke="black" points="1288.34,-220.18 1284.84,-210.18 1281.34,-220.18 1288.34,-220.18"/>
<text text-anchor="middle" x="1308.34" y="-231.8" font-family="Times,serif" font-size="14.00">previous</text>
</g>
<!-- http://purl.org/dj/kaggle/exploratory&#45;data&#45;analysis/activity/4435381843895245218 -->
<g id="node16" class="node">
<title>http://purl.org/dj/kaggle/exploratory&#45;data&#45;analysis/activity/4435381843895245218</title>
<ellipse fill="none" stroke="black" cx="1288.84" cy="-366" rx="124.28" ry="18"/>
<text text-anchor="middle" x="1288.84" y="-362.3" font-family="Times,serif" font-size="14.00">4435381843895245218 (Reuse)</text>
</g>
<!-- http://purl.org/dj/kaggle/exploratory&#45;data&#45;analysis/activity/4435381843895245218&#45;&gt;http://purl.org/dj/kaggle/exploratory&#45;data&#45;analysis/activity/8386333224238587420 -->
<g id="edge29" class="edge">
<title>http://purl.org/dj/kaggle/exploratory&#45;data&#45;analysis/activity/4435381843895245218&#45;&gt;http://purl.org/dj/kaggle/exploratory&#45;data&#45;analysis/activity/8386333224238587420</title>
<path fill="none" stroke="black" d="M1175.29,-358.66C1014.4,-349.58 738.29,-333.55 727.84,-330 702.98,-321.55 695.54,-317.26 678.84,-297 637.48,-246.85 614.18,-172.5 604.03,-132.98"/>
<polygon fill="black" stroke="black" points="607.37,-131.9 601.57,-123.04 600.58,-133.58 607.37,-131.9"/>
<text text-anchor="middle" x="668.34" y="-231.8" font-family="Times,serif" font-size="14.00">previous</text>
</g>
<!-- http://purl.org/dj/kaggle/exploratory&#45;data&#45;analysis/activity/4435381843895245218&#45;&gt;http://purl.org/dj/kaggle/exploratory&#45;data&#45;analysis/activity/6817376637591871323 -->
<g id="edge30" class="edge">
<title>http://purl.org/dj/kaggle/exploratory&#45;data&#45;analysis/activity/4435381843895245218&#45;&gt;http://purl.org/dj/kaggle/exploratory&#45;data&#45;analysis/activity/6817376637591871323</title>
<path fill="none" stroke="black" d="M1374.68,-352.94C1391.29,-350.98 1408.58,-349.21 1424.84,-348 1760.01,-323.12 1845.26,-348.61 2180.84,-330 2257.45,-325.75 2276.29,-320.36 2352.84,-315 2371.71,-313.68 2679.82,-310.72 2692.84,-297 2703.85,-285.39 2703.16,-273.22 2692.84,-261 2636.1,-193.86 2585.06,-238.91 2497.84,-228 1926.61,-156.57 1779.74,-179.41 1206.84,-123 1194.63,-121.8 1181.87,-120.45 1169.17,-119.06"/>
<polygon fill="black" stroke="black" points="1169.35,-115.56 1159.02,-117.94 1168.58,-122.52 1169.35,-115.56"/>
<text text-anchor="middle" x="2696.34" y="-231.8" font-family="Times,serif" font-size="14.00">previous</text>
</g>
<!-- http://purl.org/dj/kaggle/exploratory&#45;data&#45;analysis/activity/4435381843895245218&#45;&gt;http://purl.org/dj/kaggle/exploratory&#45;data&#45;analysis/activity/3026533252079336860 -->
<g id="edge31" class="edge">
<title>http://purl.org/dj/kaggle/exploratory&#45;data&#45;analysis/activity/4435381843895245218&#45;&gt;http://purl.org/dj/kaggle/exploratory&#45;data&#45;analysis/activity/3026533252079336860</title>
<path fill="none" stroke="black" d="M1377.66,-353.34C1393.36,-351.44 1409.57,-349.58 1424.84,-348 1563.67,-333.67 1911.92,-310.48 2050.84,-297 2064.04,-295.72 2077.89,-294.29 2091.61,-292.81"/>
<polygon fill="black" stroke="black" points="2092.01,-296.29 2101.57,-291.73 2091.25,-289.33 2092.01,-296.29"/>
<text text-anchor="middle" x="1848.34" y="-318.8" font-family="Times,serif" font-size="14.00">previous</text>
</g>
<!-- http://purl.org/dj/kaggle/exploratory&#45;data&#45;analysis/activity/4435381843895245218&#45;&gt;http://purl.org/dj/kaggle/exploratory&#45;data&#45;analysis/activity/163092154359488298 -->
<g id="edge32" class="edge">
<title>http://purl.org/dj/kaggle/exploratory&#45;data&#45;analysis/activity/4435381843895245218&#45;&gt;http://purl.org/dj/kaggle/exploratory&#45;data&#45;analysis/activity/163092154359488298</title>
<path fill="none" stroke="black" d="M1288.03,-347.8C1287.48,-336.16 1286.74,-320.55 1286.12,-307.24"/>
<polygon fill="black" stroke="black" points="1289.61,-307 1285.65,-297.18 1282.62,-307.33 1289.61,-307"/>
<text text-anchor="middle" x="1311.34" y="-318.8" font-family="Times,serif" font-size="14.00">previous</text>
</g>
<!-- http://purl.org/dj/kaggle/exploratory&#45;data&#45;analysis/activity/&#45;510547214592918244 -->
<g id="node17" class="node">
<title>http://purl.org/dj/kaggle/exploratory&#45;data&#45;analysis/activity/&#45;510547214592918244</title>
<ellipse fill="none" stroke="black" cx="853.84" cy="-366" rx="122.38" ry="18"/>
<text text-anchor="middle" x="853.84" y="-362.3" font-family="Times,serif" font-size="14.00">&#45;510547214592918244 (Reuse)</text>
</g>
<!-- http://purl.org/dj/kaggle/exploratory&#45;data&#45;analysis/activity/&#45;510547214592918244&#45;&gt;http://purl.org/dj/kaggle/exploratory&#45;data&#45;analysis/activity/8386333224238587420 -->
<g id="edge33" class="edge">
<title>http://purl.org/dj/kaggle/exploratory&#45;data&#45;analysis/activity/&#45;510547214592918244&#45;&gt;http://purl.org/dj/kaggle/exploratory&#45;data&#45;analysis/activity/8386333224238587420</title>
<path fill="none" stroke="black" d="M764.02,-353.74C710.69,-346.44 651.44,-337.02 640.84,-330 602.7,-304.74 598.56,-286.94 585.84,-243 575.12,-205.99 582.68,-161.2 589.74,-133.14"/>
<polygon fill="black" stroke="black" points="593.18,-133.83 592.38,-123.26 586.42,-132.02 593.18,-133.83"/>
<text text-anchor="middle" x="609.34" y="-231.8" font-family="Times,serif" font-size="14.00">previous</text>
</g>
<!-- http://purl.org/dj/kaggle/exploratory&#45;data&#45;analysis/activity/&#45;510547214592918244&#45;&gt;http://purl.org/dj/kaggle/exploratory&#45;data&#45;analysis/activity/6817376637591871323 -->
<g id="edge34" class="edge">
<title>http://purl.org/dj/kaggle/exploratory&#45;data&#45;analysis/activity/&#45;510547214592918244&#45;&gt;http://purl.org/dj/kaggle/exploratory&#45;data&#45;analysis/activity/6817376637591871323</title>
<path fill="none" stroke="black" d="M836.54,-347.95C824.43,-336.94 807.33,-323.2 789.84,-315 755.66,-298.98 730.53,-326.38 706.84,-297 696.79,-284.54 700.18,-275.55 706.84,-261 740.81,-186.79 771.9,-175.55 845.84,-141 871.24,-129.13 899.97,-121.21 927.94,-115.93"/>
<polygon fill="black" stroke="black" points="928.57,-119.38 937.8,-114.18 927.34,-112.49 928.57,-119.38"/>
<text text-anchor="middle" x="748.34" y="-231.8" font-family="Times,serif" font-size="14.00">previous</text>
</g>
<!-- http://purl.org/dj/kaggle/exploratory&#45;data&#45;analysis/activity/&#45;510547214592918244&#45;&gt;http://purl.org/dj/kaggle/exploratory&#45;data&#45;analysis/activity/163092154359488298 -->
<g id="edge35" class="edge">
<title>http://purl.org/dj/kaggle/exploratory&#45;data&#45;analysis/activity/&#45;510547214592918244&#45;&gt;http://purl.org/dj/kaggle/exploratory&#45;data&#45;analysis/activity/163092154359488298</title>
<path fill="none" stroke="black" d="M862.87,-347.97C869.93,-336.52 880.89,-322.24 894.84,-315 943.09,-289.95 1084.71,-302.15 1138.84,-297 1151.59,-295.79 1164.96,-294.4 1178.2,-292.94"/>
<polygon fill="black" stroke="black" points="1178.75,-296.41 1188.3,-291.82 1177.98,-289.45 1178.75,-296.41"/>
<text text-anchor="middle" x="918.34" y="-318.8" font-family="Times,serif" font-size="14.00">previous</text>
</g>
<!-- http://purl.org/dj/kaggle/exploratory&#45;data&#45;analysis/activity/5802413338564175983 -->
<g id="node18" class="node">
<title>http://purl.org/dj/kaggle/exploratory&#45;data&#45;analysis/activity/5802413338564175983</title>
<ellipse fill="none" stroke="black" cx="1892.84" cy="-279" rx="148.67" ry="18"/>
<text text-anchor="middle" x="1892.84" y="-275.3" font-family="Times,serif" font-size="14.00">5802413338564175983 (Visualisation)</text>
</g>
<!-- http://purl.org/dj/kaggle/exploratory&#45;data&#45;analysis/activity/5802413338564175983&#45;&gt;http://purl.org/dj/kaggle/exploratory&#45;data&#45;analysis/activity/4853168652482053211 -->
<g id="edge36" class="edge">
<title>http://purl.org/dj/kaggle/exploratory&#45;data&#45;analysis/activity/5802413338564175983&#45;&gt;http://purl.org/dj/kaggle/exploratory&#45;data&#45;analysis/activity/4853168652482053211</title>
<path fill="none" stroke="black" d="M1801.48,-264.77C1730.87,-254.59 1630.68,-240.23 1542.84,-228 1489.96,-220.64 1430.97,-212.62 1382.75,-206.12"/>
<polygon fill="black" stroke="black" points="1383.01,-202.62 1372.63,-204.75 1382.07,-209.56 1383.01,-202.62"/>
<text text-anchor="middle" x="1672.34" y="-231.8" font-family="Times,serif" font-size="14.00">previous</text>
</g>
<!-- http://purl.org/dj/kaggle/exploratory&#45;data&#45;analysis/activity/9077274345675494062 -->
<g id="node19" class="node">
<title>http://purl.org/dj/kaggle/exploratory&#45;data&#45;analysis/activity/9077274345675494062</title>
<ellipse fill="none" stroke="black" cx="1012.84" cy="-192" rx="124.28" ry="18"/>
<text text-anchor="middle" x="1012.84" y="-188.3" font-family="Times,serif" font-size="14.00">9077274345675494062 (Reuse)</text>
</g>
<!-- http://purl.org/dj/kaggle/exploratory&#45;data&#45;analysis/activity/5802413338564175983&#45;&gt;http://purl.org/dj/kaggle/exploratory&#45;data&#45;analysis/activity/9077274345675494062 -->
<g id="edge37" class="edge">
<title>http://purl.org/dj/kaggle/exploratory&#45;data&#45;analysis/activity/5802413338564175983&#45;&gt;http://purl.org/dj/kaggle/exploratory&#45;data&#45;analysis/activity/9077274345675494062</title>
<path fill="none" stroke="black" d="M1789.22,-266.04C1771.11,-264.18 1752.44,-262.41 1734.84,-261 1584,-248.9 1544.44,-265.75 1394.84,-243 1368.09,-238.93 1362.49,-232.66 1335.84,-228 1254.9,-213.84 1233.51,-218.99 1151.84,-210 1139.44,-208.64 1126.43,-207.14 1113.56,-205.61"/>
<polygon fill="black" stroke="black" points="1113.62,-202.09 1103.27,-204.38 1112.79,-209.04 1113.62,-202.09"/>
<text text-anchor="middle" x="1418.34" y="-231.8" font-family="Times,serif" font-size="14.00">previous</text>
</g>
<!-- http://purl.org/dj/kaggle/exploratory&#45;data&#45;analysis/activity/9077274345675494062&#45;&gt;http://purl.org/dj/kaggle/exploratory&#45;data&#45;analysis/activity/8386333224238587420 -->
<g id="edge38" class="edge">
<title>http://purl.org/dj/kaggle/exploratory&#45;data&#45;analysis/activity/9077274345675494062&#45;&gt;http://purl.org/dj/kaggle/exploratory&#45;data&#45;analysis/activity/8386333224238587420</title>
<path fill="none" stroke="black" d="M922.7,-179.58C880.35,-173.61 829.3,-165.55 783.84,-156 742.26,-147.26 696.14,-134.88 660.22,-124.63"/>
<polygon fill="black" stroke="black" points="660.95,-121.2 650.38,-121.8 659.02,-127.92 660.95,-121.2"/>
<text text-anchor="middle" x="807.34" y="-144.8" font-family="Times,serif" font-size="14.00">previous</text>
</g>
<!-- http://purl.org/dj/kaggle/exploratory&#45;data&#45;analysis/activity/9077274345675494062&#45;&gt;http://purl.org/dj/kaggle/exploratory&#45;data&#45;analysis/activity/6817376637591871323 -->
<g id="edge39" class="edge">
<title>http://purl.org/dj/kaggle/exploratory&#45;data&#45;analysis/activity/9077274345675494062&#45;&gt;http://purl.org/dj/kaggle/exploratory&#45;data&#45;analysis/activity/6817376637591871323</title>
<path fill="none" stroke="black" d="M1009.61,-173.9C1008.55,-163.8 1008.72,-151.06 1013.84,-141 1015.94,-136.86 1018.78,-133.08 1022.03,-129.65"/>
<polygon fill="black" stroke="black" points="1024.61,-132.04 1029.66,-122.73 1019.9,-126.86 1024.61,-132.04"/>
<text text-anchor="middle" x="1037.34" y="-144.8" font-family="Times,serif" font-size="14.00">previous</text>
</g>
<!-- http://purl.org/dj/kaggle/exploratory&#45;data&#45;analysis/activity/&#45;1974401407992522408 -->
<g id="node20" class="node">
<title>http://purl.org/dj/kaggle/exploratory&#45;data&#45;analysis/activity/&#45;1974401407992522408</title>
<ellipse fill="none" stroke="black" cx="985.84" cy="-279" rx="144.07" ry="18"/>
<text text-anchor="middle" x="985.84" y="-275.3" font-family="Times,serif" font-size="14.00">&#45;1974401407992522408 (Movement)</text>
</g>
<!-- http://purl.org/dj/kaggle/exploratory&#45;data&#45;analysis/activity/&#45;1974401407992522408&#45;&gt;http://purl.org/dj/kaggle/exploratory&#45;data&#45;analysis/activity/4853168652482053211 -->
<g id="edge40" class="edge">
<title>http://purl.org/dj/kaggle/exploratory&#45;data&#45;analysis/activity/&#45;1974401407992522408&#45;&gt;http://purl.org/dj/kaggle/exploratory&#45;data&#45;analysis/activity/4853168652482053211</title>
<path fill="none" stroke="black" d="M1041.03,-262.31C1092.1,-247.79 1167.99,-226.22 1221.51,-211"/>
<polygon fill="black" stroke="black" points="1222.57,-214.34 1231.23,-208.24 1220.65,-207.61 1222.57,-214.34"/>
<text text-anchor="middle" x="1177.34" y="-231.8" font-family="Times,serif" font-size="14.00">previous</text>
</g>
<!-- http://purl.org/dj/kaggle/exploratory&#45;data&#45;analysis/activity/8864810367629489267 -->
<g id="node21" class="node">
<title>http://purl.org/dj/kaggle/exploratory&#45;data&#45;analysis/activity/8864810367629489267</title>
<ellipse fill="none" stroke="black" cx="1582.84" cy="-366" rx="148.67" ry="18"/>
<text text-anchor="middle" x="1582.84" y="-362.3" font-family="Times,serif" font-size="14.00">8864810367629489267 (Visualisation)</text>
</g>
<!-- http://purl.org/dj/kaggle/exploratory&#45;data&#45;analysis/activity/8864810367629489267&#45;&gt;http://purl.org/dj/kaggle/exploratory&#45;data&#45;analysis/activity/2198398027453303625 -->
<g id="edge41" class="edge">
<title>http://purl.org/dj/kaggle/exploratory&#45;data&#45;analysis/activity/8864810367629489267&#45;&gt;http://purl.org/dj/kaggle/exploratory&#45;data&#45;analysis/activity/2198398027453303625</title>
<path fill="none" stroke="black" d="M1582.84,-347.8C1582.84,-336.16 1582.84,-320.55 1582.84,-307.24"/>
<polygon fill="black" stroke="black" points="1586.34,-307.18 1582.84,-297.18 1579.34,-307.18 1586.34,-307.18"/>
<text text-anchor="middle" x="1606.34" y="-318.8" font-family="Times,serif" font-size="14.00">previous</text>
</g>
<!-- http://purl.org/dj/kaggle/exploratory&#45;data&#45;analysis/activity/7262263416039965772 -->
<g id="node22" class="node">
<title>http://purl.org/dj/kaggle/exploratory&#45;data&#45;analysis/activity/7262263416039965772</title>
<ellipse fill="none" stroke="black" cx="2541.84" cy="-279" rx="141.88" ry="18"/>
<text text-anchor="middle" x="2541.84" y="-275.3" font-family="Times,serif" font-size="14.00">7262263416039965772 (Movement)</text>
</g>
<!-- http://purl.org/dj/kaggle/exploratory&#45;data&#45;analysis/activity/7262263416039965772&#45;&gt;http://purl.org/dj/kaggle/exploratory&#45;data&#45;analysis/activity/4853168652482053211 -->
<g id="edge42" class="edge">
<title>http://purl.org/dj/kaggle/exploratory&#45;data&#45;analysis/activity/7262263416039965772&#45;&gt;http://purl.org/dj/kaggle/exploratory&#45;data&#45;analysis/activity/4853168652482053211</title>
<path fill="none" stroke="black" d="M2501.56,-261.66C2470.51,-249.92 2426.19,-234.97 2385.84,-228 2204.03,-196.61 1670.82,-192.65 1419.21,-192.61"/>
<polygon fill="black" stroke="black" points="1418.91,-189.11 1408.91,-192.61 1418.91,-196.11 1418.91,-189.11"/>
<text text-anchor="middle" x="2470.34" y="-231.8" font-family="Times,serif" font-size="14.00">previous</text>
</g>
</g>
</svg>
