<?xml version="1.0" encoding="UTF-8" standalone="no"?>
<!DOCTYPE svg PUBLIC "-//W3C//DTD SVG 1.1//EN"
 "http://www.w3.org/Graphics/SVG/1.1/DTD/svg11.dtd">
<!-- Generated by graphviz version 2.47.1 (20210417.1919)
 -->
<!-- Pages: 1 -->
<svg width="2486pt" height="740pt"
 viewBox="0.00 0.00 2485.59 740.00" xmlns="http://www.w3.org/2000/svg" xmlns:xlink="http://www.w3.org/1999/xlink">
<g id="graph0" class="graph" transform="scale(1 1) rotate(0) translate(4 736)">
<polygon fill="white" stroke="transparent" points="-4,4 -4,-736 2481.59,-736 2481.59,4 -4,4"/>
<!-- http://purl.org/dj/kaggle/extract&#45;image&#45;features&#45;from&#45;pretrained&#45;nn/activity/6910167189345810576 -->
<g id="node1" class="node">
<title>http://purl.org/dj/kaggle/extract&#45;image&#45;features&#45;from&#45;pretrained&#45;nn/activity/6910167189345810576</title>
<ellipse fill="none" stroke="black" cx="2081.59" cy="-627" rx="124.28" ry="18"/>
<text text-anchor="middle" x="2081.59" y="-623.3" font-family="Times,serif" font-size="14.00">6910167189345810576 (Reuse)</text>
</g>
<!-- http://purl.org/dj/kaggle/extract&#45;image&#45;features&#45;from&#45;pretrained&#45;nn/activity/97627338314991135 -->
<g id="node2" class="node">
<title>http://purl.org/dj/kaggle/extract&#45;image&#45;features&#45;from&#45;pretrained&#45;nn/activity/97627338314991135</title>
<ellipse fill="none" stroke="black" cx="2081.59" cy="-540" rx="124.28" ry="18"/>
<text text-anchor="middle" x="2081.59" y="-536.3" font-family="Times,serif" font-size="14.00">97627338314991135 (Analysis)</text>
</g>
<!-- http://purl.org/dj/kaggle/extract&#45;image&#45;features&#45;from&#45;pretrained&#45;nn/activity/6910167189345810576&#45;&gt;http://purl.org/dj/kaggle/extract&#45;image&#45;features&#45;from&#45;pretrained&#45;nn/activity/97627338314991135 -->
<g id="edge1" class="edge">
<title>http://purl.org/dj/kaggle/extract&#45;image&#45;features&#45;from&#45;pretrained&#45;nn/activity/6910167189345810576&#45;&gt;http://purl.org/dj/kaggle/extract&#45;image&#45;features&#45;from&#45;pretrained&#45;nn/activity/97627338314991135</title>
<path fill="none" stroke="black" d="M2081.59,-608.8C2081.59,-597.16 2081.59,-581.55 2081.59,-568.24"/>
<polygon fill="black" stroke="black" points="2085.09,-568.18 2081.59,-558.18 2078.09,-568.18 2085.09,-568.18"/>
<text text-anchor="middle" x="2105.09" y="-579.8" font-family="Times,serif" font-size="14.00">previous</text>
</g>
<!-- http://purl.org/dj/kaggle/extract&#45;image&#45;features&#45;from&#45;pretrained&#45;nn/activity/7198257012321173967 -->
<g id="node3" class="node">
<title>http://purl.org/dj/kaggle/extract&#45;image&#45;features&#45;from&#45;pretrained&#45;nn/activity/7198257012321173967</title>
<ellipse fill="none" stroke="black" cx="2147.59" cy="-192" rx="133.48" ry="18"/>
<text text-anchor="middle" x="2147.59" y="-188.3" font-family="Times,serif" font-size="14.00">7198257012321173967 (Analysis)</text>
</g>
<!-- http://purl.org/dj/kaggle/extract&#45;image&#45;features&#45;from&#45;pretrained&#45;nn/activity/6910167189345810576&#45;&gt;http://purl.org/dj/kaggle/extract&#45;image&#45;features&#45;from&#45;pretrained&#45;nn/activity/7198257012321173967 -->
<g id="edge2" class="edge">
<title>http://purl.org/dj/kaggle/extract&#45;image&#45;features&#45;from&#45;pretrained&#45;nn/activity/6910167189345810576&#45;&gt;http://purl.org/dj/kaggle/extract&#45;image&#45;features&#45;from&#45;pretrained&#45;nn/activity/7198257012321173967</title>
<path fill="none" stroke="black" d="M1983.37,-615.97C1965.42,-610.64 1947.88,-602.72 1933.59,-591 1876.73,-544.4 1865.83,-507.4 1878.59,-435 1889.27,-374.39 1938.39,-287.06 1965.59,-261 1991.86,-235.83 2028.29,-219.8 2061.67,-209.67"/>
<polygon fill="black" stroke="black" points="2062.82,-212.99 2071.45,-206.85 2060.87,-206.26 2062.82,-212.99"/>
<text text-anchor="middle" x="1911.09" y="-405.8" font-family="Times,serif" font-size="14.00">previous</text>
</g>
<!-- http://purl.org/dj/kaggle/extract&#45;image&#45;features&#45;from&#45;pretrained&#45;nn/activity/6522094522573946737 -->
<g id="node4" class="node">
<title>http://purl.org/dj/kaggle/extract&#45;image&#45;features&#45;from&#45;pretrained&#45;nn/activity/6522094522573946737</title>
<ellipse fill="none" stroke="black" cx="2011.59" cy="-453" rx="124.28" ry="18"/>
<text text-anchor="middle" x="2011.59" y="-449.3" font-family="Times,serif" font-size="14.00">6522094522573946737 (Reuse)</text>
</g>
<!-- http://purl.org/dj/kaggle/extract&#45;image&#45;features&#45;from&#45;pretrained&#45;nn/activity/97627338314991135&#45;&gt;http://purl.org/dj/kaggle/extract&#45;image&#45;features&#45;from&#45;pretrained&#45;nn/activity/6522094522573946737 -->
<g id="edge3" class="edge">
<title>http://purl.org/dj/kaggle/extract&#45;image&#45;features&#45;from&#45;pretrained&#45;nn/activity/97627338314991135&#45;&gt;http://purl.org/dj/kaggle/extract&#45;image&#45;features&#45;from&#45;pretrained&#45;nn/activity/6522094522573946737</title>
<path fill="none" stroke="black" d="M2033.51,-523.24C2025.22,-518.37 2017.66,-512.08 2012.59,-504 2008.35,-497.25 2007.02,-488.91 2007.06,-481"/>
<polygon fill="black" stroke="black" points="2010.56,-481.22 2007.77,-471 2003.57,-480.72 2010.56,-481.22"/>
<text text-anchor="middle" x="2036.09" y="-492.8" font-family="Times,serif" font-size="14.00">previous</text>
</g>
<!-- http://purl.org/dj/kaggle/extract&#45;image&#45;features&#45;from&#45;pretrained&#45;nn/activity/2544386738401066500 -->
<g id="node5" class="node">
<title>http://purl.org/dj/kaggle/extract&#45;image&#45;features&#45;from&#45;pretrained&#45;nn/activity/2544386738401066500</title>
<ellipse fill="none" stroke="black" cx="2271.59" cy="-105" rx="124.28" ry="18"/>
<text text-anchor="middle" x="2271.59" y="-101.3" font-family="Times,serif" font-size="14.00">2544386738401066500 (Reuse)</text>
</g>
<!-- http://purl.org/dj/kaggle/extract&#45;image&#45;features&#45;from&#45;pretrained&#45;nn/activity/97627338314991135&#45;&gt;http://purl.org/dj/kaggle/extract&#45;image&#45;features&#45;from&#45;pretrained&#45;nn/activity/2544386738401066500 -->
<g id="edge4" class="edge">
<title>http://purl.org/dj/kaggle/extract&#45;image&#45;features&#45;from&#45;pretrained&#45;nn/activity/97627338314991135&#45;&gt;http://purl.org/dj/kaggle/extract&#45;image&#45;features&#45;from&#45;pretrained&#45;nn/activity/2544386738401066500</title>
<path fill="none" stroke="black" d="M2106.14,-522.35C2151.08,-490.52 2246.45,-416.46 2295.59,-330 2319.2,-288.46 2336.5,-275.28 2329.59,-228 2323.75,-188.07 2323.48,-176.11 2303.59,-141 2301.59,-137.47 2299.18,-134.01 2296.58,-130.72"/>
<polygon fill="black" stroke="black" points="2299.07,-128.24 2289.89,-122.93 2293.76,-132.8 2299.07,-128.24"/>
<text text-anchor="middle" x="2327.09" y="-318.8" font-family="Times,serif" font-size="14.00">previous</text>
</g>
<!-- http://purl.org/dj/kaggle/extract&#45;image&#45;features&#45;from&#45;pretrained&#45;nn/activity/8920841676011354873 -->
<g id="node6" class="node">
<title>http://purl.org/dj/kaggle/extract&#45;image&#45;features&#45;from&#45;pretrained&#45;nn/activity/8920841676011354873</title>
<ellipse fill="none" stroke="black" cx="1590.59" cy="-279" rx="124.28" ry="18"/>
<text text-anchor="middle" x="1590.59" y="-275.3" font-family="Times,serif" font-size="14.00">8920841676011354873 (Reuse)</text>
</g>
<!-- http://purl.org/dj/kaggle/extract&#45;image&#45;features&#45;from&#45;pretrained&#45;nn/activity/97627338314991135&#45;&gt;http://purl.org/dj/kaggle/extract&#45;image&#45;features&#45;from&#45;pretrained&#45;nn/activity/8920841676011354873 -->
<g id="edge5" class="edge">
<title>http://purl.org/dj/kaggle/extract&#45;image&#45;features&#45;from&#45;pretrained&#45;nn/activity/97627338314991135&#45;&gt;http://purl.org/dj/kaggle/extract&#45;image&#45;features&#45;from&#45;pretrained&#45;nn/activity/8920841676011354873</title>
<path fill="none" stroke="black" d="M2009.33,-525.26C1933.11,-508.41 1811.66,-474.74 1720.59,-417 1673.46,-387.12 1631.53,-336.41 1608.72,-305.78"/>
<polygon fill="black" stroke="black" points="1611.27,-303.34 1602.54,-297.34 1605.63,-307.47 1611.27,-303.34"/>
<text text-anchor="middle" x="1744.09" y="-405.8" font-family="Times,serif" font-size="14.00">previous</text>
</g>
<!-- http://purl.org/dj/kaggle/extract&#45;image&#45;features&#45;from&#45;pretrained&#45;nn/activity/7198257012321173967&#45;&gt;http://purl.org/dj/kaggle/extract&#45;image&#45;features&#45;from&#45;pretrained&#45;nn/activity/6522094522573946737 -->
<g id="edge6" class="edge">
<title>http://purl.org/dj/kaggle/extract&#45;image&#45;features&#45;from&#45;pretrained&#45;nn/activity/7198257012321173967&#45;&gt;http://purl.org/dj/kaggle/extract&#45;image&#45;features&#45;from&#45;pretrained&#45;nn/activity/6522094522573946737</title>
<path fill="none" stroke="black" d="M2104.41,-209.19C2052.03,-231.45 1966.21,-277.02 1929.59,-348 1922.25,-362.22 1922.78,-369.52 1929.59,-384 1938.49,-402.96 1955.57,-418.45 1971.84,-429.83"/>
<polygon fill="black" stroke="black" points="1969.97,-432.79 1980.23,-435.41 1973.84,-426.96 1969.97,-432.79"/>
<text text-anchor="middle" x="1975.09" y="-318.8" font-family="Times,serif" font-size="14.00">previous</text>
</g>
<!-- http://purl.org/dj/kaggle/extract&#45;image&#45;features&#45;from&#45;pretrained&#45;nn/activity/7198257012321173967&#45;&gt;http://purl.org/dj/kaggle/extract&#45;image&#45;features&#45;from&#45;pretrained&#45;nn/activity/2544386738401066500 -->
<g id="edge7" class="edge">
<title>http://purl.org/dj/kaggle/extract&#45;image&#45;features&#45;from&#45;pretrained&#45;nn/activity/7198257012321173967&#45;&gt;http://purl.org/dj/kaggle/extract&#45;image&#45;features&#45;from&#45;pretrained&#45;nn/activity/2544386738401066500</title>
<path fill="none" stroke="black" d="M2172.09,-174.21C2191.19,-161.11 2217.91,-142.8 2238.85,-128.44"/>
<polygon fill="black" stroke="black" points="2240.87,-131.3 2247.14,-122.76 2236.91,-125.53 2240.87,-131.3"/>
<text text-anchor="middle" x="2240.09" y="-144.8" font-family="Times,serif" font-size="14.00">previous</text>
</g>
<!-- http://purl.org/dj/kaggle/extract&#45;image&#45;features&#45;from&#45;pretrained&#45;nn/activity/7198257012321173967&#45;&gt;http://purl.org/dj/kaggle/extract&#45;image&#45;features&#45;from&#45;pretrained&#45;nn/activity/8920841676011354873 -->
<g id="edge8" class="edge">
<title>http://purl.org/dj/kaggle/extract&#45;image&#45;features&#45;from&#45;pretrained&#45;nn/activity/7198257012321173967&#45;&gt;http://purl.org/dj/kaggle/extract&#45;image&#45;features&#45;from&#45;pretrained&#45;nn/activity/8920841676011354873</title>
<path fill="none" stroke="black" d="M2051.56,-204.5C2034.58,-206.42 2017.07,-208.33 2000.59,-210 1909.15,-219.28 1881.46,-198 1794.59,-228 1783.05,-231.98 1782.9,-238.42 1771.59,-243 1747.12,-252.9 1719.63,-260.05 1693.61,-265.2"/>
<polygon fill="black" stroke="black" points="1692.89,-261.78 1683.72,-267.08 1694.2,-268.65 1692.89,-261.78"/>
<text text-anchor="middle" x="1818.09" y="-231.8" font-family="Times,serif" font-size="14.00">previous</text>
</g>
<!-- http://purl.org/dj/kaggle/extract&#45;image&#45;features&#45;from&#45;pretrained&#45;nn/activity/6157054181403066650 -->
<g id="node7" class="node">
<title>http://purl.org/dj/kaggle/extract&#45;image&#45;features&#45;from&#45;pretrained&#45;nn/activity/6157054181403066650</title>
<ellipse fill="none" stroke="black" cx="1709.59" cy="-105" rx="148.67" ry="18"/>
<text text-anchor="middle" x="1709.59" y="-101.3" font-family="Times,serif" font-size="14.00">6157054181403066650 (Visualisation)</text>
</g>
<!-- http://purl.org/dj/kaggle/extract&#45;image&#45;features&#45;from&#45;pretrained&#45;nn/activity/7198257012321173967&#45;&gt;http://purl.org/dj/kaggle/extract&#45;image&#45;features&#45;from&#45;pretrained&#45;nn/activity/6157054181403066650 -->
<g id="edge9" class="edge">
<title>http://purl.org/dj/kaggle/extract&#45;image&#45;features&#45;from&#45;pretrained&#45;nn/activity/7198257012321173967&#45;&gt;http://purl.org/dj/kaggle/extract&#45;image&#45;features&#45;from&#45;pretrained&#45;nn/activity/6157054181403066650</title>
<path fill="none" stroke="black" d="M2117.75,-174.27C2096.16,-162.96 2065.92,-148.73 2037.59,-141 1980.65,-125.46 1916.39,-116.76 1859.94,-111.91"/>
<polygon fill="black" stroke="black" points="1860.12,-108.41 1849.86,-111.08 1859.54,-115.39 1860.12,-108.41"/>
<text text-anchor="middle" x="2101.09" y="-144.8" font-family="Times,serif" font-size="14.00">previous</text>
</g>
<!-- http://purl.org/dj/kaggle/extract&#45;image&#45;features&#45;from&#45;pretrained&#45;nn/activity/6522094522573946737&#45;&gt;http://purl.org/dj/kaggle/extract&#45;image&#45;features&#45;from&#45;pretrained&#45;nn/activity/97627338314991135 -->
<g id="edge10" class="edge">
<title>http://purl.org/dj/kaggle/extract&#45;image&#45;features&#45;from&#45;pretrained&#45;nn/activity/6522094522573946737&#45;&gt;http://purl.org/dj/kaggle/extract&#45;image&#45;features&#45;from&#45;pretrained&#45;nn/activity/97627338314991135</title>
<path fill="none" stroke="black" d="M2039.62,-470.66C2046.78,-475.87 2054.03,-482.09 2059.59,-489 2065.08,-495.83 2069.48,-504.24 2072.85,-512.21"/>
<polygon fill="black" stroke="black" points="2069.6,-513.5 2076.46,-521.57 2076.13,-510.98 2069.6,-513.5"/>
<text text-anchor="middle" x="2091.09" y="-492.8" font-family="Times,serif" font-size="14.00">previous</text>
</g>
<!-- http://purl.org/dj/kaggle/extract&#45;image&#45;features&#45;from&#45;pretrained&#45;nn/activity/6522094522573946737&#45;&gt;http://purl.org/dj/kaggle/extract&#45;image&#45;features&#45;from&#45;pretrained&#45;nn/activity/7198257012321173967 -->
<g id="edge11" class="edge">
<title>http://purl.org/dj/kaggle/extract&#45;image&#45;features&#45;from&#45;pretrained&#45;nn/activity/6522094522573946737&#45;&gt;http://purl.org/dj/kaggle/extract&#45;image&#45;features&#45;from&#45;pretrained&#45;nn/activity/7198257012321173967</title>
<path fill="none" stroke="black" d="M2087.31,-438.71C2144.42,-426.96 2215.85,-407.98 2233.59,-384 2273.42,-330.14 2211.39,-254.89 2173.48,-216.92"/>
<polygon fill="black" stroke="black" points="2175.84,-214.34 2166.25,-209.85 2170.94,-219.34 2175.84,-214.34"/>
<text text-anchor="middle" x="2268.09" y="-318.8" font-family="Times,serif" font-size="14.00">previous</text>
</g>
<!-- http://purl.org/dj/kaggle/extract&#45;image&#45;features&#45;from&#45;pretrained&#45;nn/activity/&#45;7225044919286039776 -->
<g id="node8" class="node">
<title>http://purl.org/dj/kaggle/extract&#45;image&#45;features&#45;from&#45;pretrained&#45;nn/activity/&#45;7225044919286039776</title>
<ellipse fill="none" stroke="black" cx="145.59" cy="-18" rx="145.67" ry="18"/>
<text text-anchor="middle" x="145.59" y="-14.3" font-family="Times,serif" font-size="14.00">&#45;7225044919286039776 (Preparation)</text>
</g>
<!-- http://purl.org/dj/kaggle/extract&#45;image&#45;features&#45;from&#45;pretrained&#45;nn/activity/6522094522573946737&#45;&gt;http://purl.org/dj/kaggle/extract&#45;image&#45;features&#45;from&#45;pretrained&#45;nn/activity/&#45;7225044919286039776 -->
<g id="edge12" class="edge">
<title>http://purl.org/dj/kaggle/extract&#45;image&#45;features&#45;from&#45;pretrained&#45;nn/activity/6522094522573946737&#45;&gt;http://purl.org/dj/kaggle/extract&#45;image&#45;features&#45;from&#45;pretrained&#45;nn/activity/&#45;7225044919286039776</title>
<path fill="none" stroke="black" d="M1961.66,-436.41C1919.16,-423.38 1861.33,-406.25 1837.59,-402 1640.93,-366.82 177.49,-393.93 46.59,-243 -6.61,-181.67 74.64,-87.2 119.36,-43.16"/>
<polygon fill="black" stroke="black" points="121.97,-45.5 126.72,-36.03 117.1,-40.47 121.97,-45.5"/>
<text text-anchor="middle" x="70.09" y="-231.8" font-family="Times,serif" font-size="14.00">previous</text>
</g>
<!-- http://purl.org/dj/kaggle/extract&#45;image&#45;features&#45;from&#45;pretrained&#45;nn/activity/&#45;5519289880310502068 -->
<g id="node9" class="node">
<title>http://purl.org/dj/kaggle/extract&#45;image&#45;features&#45;from&#45;pretrained&#45;nn/activity/&#45;5519289880310502068</title>
<ellipse fill="none" stroke="black" cx="536.59" cy="-18" rx="145.67" ry="18"/>
<text text-anchor="middle" x="536.59" y="-14.3" font-family="Times,serif" font-size="14.00">&#45;5519289880310502068 (Preparation)</text>
</g>
<!-- http://purl.org/dj/kaggle/extract&#45;image&#45;features&#45;from&#45;pretrained&#45;nn/activity/6522094522573946737&#45;&gt;http://purl.org/dj/kaggle/extract&#45;image&#45;features&#45;from&#45;pretrained&#45;nn/activity/&#45;5519289880310502068 -->
<g id="edge13" class="edge">
<title>http://purl.org/dj/kaggle/extract&#45;image&#45;features&#45;from&#45;pretrained&#45;nn/activity/6522094522573946737&#45;&gt;http://purl.org/dj/kaggle/extract&#45;image&#45;features&#45;from&#45;pretrained&#45;nn/activity/&#45;5519289880310502068</title>
<path fill="none" stroke="black" d="M1975.8,-435.71C1918.84,-409.93 1809.87,-361.29 1769.59,-348 1708.88,-327.97 1692.89,-323.88 1629.59,-315 1619.11,-313.53 114.89,-250.66 107.59,-243 -1.15,-129 279.56,-61.82 437.54,-34.04"/>
<polygon fill="black" stroke="black" points="438.51,-37.43 447.77,-32.27 437.32,-30.53 438.51,-37.43"/>
<text text-anchor="middle" x="131.09" y="-231.8" font-family="Times,serif" font-size="14.00">previous</text>
</g>
<!-- http://purl.org/dj/kaggle/extract&#45;image&#45;features&#45;from&#45;pretrained&#45;nn/activity/1719851766753895191 -->
<g id="node10" class="node">
<title>http://purl.org/dj/kaggle/extract&#45;image&#45;features&#45;from&#45;pretrained&#45;nn/activity/1719851766753895191</title>
<ellipse fill="none" stroke="black" cx="2081.59" cy="-366" rx="142.97" ry="18"/>
<text text-anchor="middle" x="2081.59" y="-362.3" font-family="Times,serif" font-size="14.00">1719851766753895191 (Preparation)</text>
</g>
<!-- http://purl.org/dj/kaggle/extract&#45;image&#45;features&#45;from&#45;pretrained&#45;nn/activity/6522094522573946737&#45;&gt;http://purl.org/dj/kaggle/extract&#45;image&#45;features&#45;from&#45;pretrained&#45;nn/activity/1719851766753895191 -->
<g id="edge14" class="edge">
<title>http://purl.org/dj/kaggle/extract&#45;image&#45;features&#45;from&#45;pretrained&#45;nn/activity/6522094522573946737&#45;&gt;http://purl.org/dj/kaggle/extract&#45;image&#45;features&#45;from&#45;pretrained&#45;nn/activity/1719851766753895191</title>
<path fill="none" stroke="black" d="M2039.62,-435.34C2046.78,-430.13 2054.03,-423.91 2059.59,-417 2065.08,-410.17 2069.48,-401.76 2072.85,-393.79"/>
<polygon fill="black" stroke="black" points="2076.13,-395.02 2076.46,-384.43 2069.6,-392.5 2076.13,-395.02"/>
<text text-anchor="middle" x="2091.09" y="-405.8" font-family="Times,serif" font-size="14.00">previous</text>
</g>
<!-- http://purl.org/dj/kaggle/extract&#45;image&#45;features&#45;from&#45;pretrained&#45;nn/activity/2544386738401066500&#45;&gt;http://purl.org/dj/kaggle/extract&#45;image&#45;features&#45;from&#45;pretrained&#45;nn/activity/&#45;7225044919286039776 -->
<g id="edge15" class="edge">
<title>http://purl.org/dj/kaggle/extract&#45;image&#45;features&#45;from&#45;pretrained&#45;nn/activity/2544386738401066500&#45;&gt;http://purl.org/dj/kaggle/extract&#45;image&#45;features&#45;from&#45;pretrained&#45;nn/activity/&#45;7225044919286039776</title>
<path fill="none" stroke="black" d="M2154.92,-98.69C2074.24,-95.12 1964.4,-90.45 1867.59,-87 1207.17,-63.49 1041.42,-72.3 381.59,-36 346.96,-34.1 309.51,-31.6 274.86,-29.11"/>
<polygon fill="black" stroke="black" points="274.92,-25.6 264.69,-28.37 274.41,-32.58 274.92,-25.6"/>
<text text-anchor="middle" x="1248.09" y="-57.8" font-family="Times,serif" font-size="14.00">previous</text>
</g>
<!-- http://purl.org/dj/kaggle/extract&#45;image&#45;features&#45;from&#45;pretrained&#45;nn/activity/2544386738401066500&#45;&gt;http://purl.org/dj/kaggle/extract&#45;image&#45;features&#45;from&#45;pretrained&#45;nn/activity/&#45;5519289880310502068 -->
<g id="edge16" class="edge">
<title>http://purl.org/dj/kaggle/extract&#45;image&#45;features&#45;from&#45;pretrained&#45;nn/activity/2544386738401066500&#45;&gt;http://purl.org/dj/kaggle/extract&#45;image&#45;features&#45;from&#45;pretrained&#45;nn/activity/&#45;5519289880310502068</title>
<path fill="none" stroke="black" d="M2156.07,-98.34C1849.39,-83.32 1015.31,-42.45 679.5,-26"/>
<polygon fill="black" stroke="black" points="679.38,-22.49 669.22,-25.5 679.04,-29.48 679.38,-22.49"/>
<text text-anchor="middle" x="1532.09" y="-57.8" font-family="Times,serif" font-size="14.00">previous</text>
</g>
<!-- http://purl.org/dj/kaggle/extract&#45;image&#45;features&#45;from&#45;pretrained&#45;nn/activity/2544386738401066500&#45;&gt;http://purl.org/dj/kaggle/extract&#45;image&#45;features&#45;from&#45;pretrained&#45;nn/activity/1719851766753895191 -->
<g id="edge17" class="edge">
<title>http://purl.org/dj/kaggle/extract&#45;image&#45;features&#45;from&#45;pretrained&#45;nn/activity/2544386738401066500&#45;&gt;http://purl.org/dj/kaggle/extract&#45;image&#45;features&#45;from&#45;pretrained&#45;nn/activity/1719851766753895191</title>
<path fill="none" stroke="black" d="M2280.7,-123.15C2290.74,-144.57 2303.73,-181.83 2289.59,-210 2256.68,-275.55 2181.46,-320.43 2131.08,-344.41"/>
<polygon fill="black" stroke="black" points="2129.57,-341.25 2121.98,-348.64 2132.52,-347.6 2129.57,-341.25"/>
<text text-anchor="middle" x="2302.09" y="-231.8" font-family="Times,serif" font-size="14.00">previous</text>
</g>
<!-- http://purl.org/dj/kaggle/extract&#45;image&#45;features&#45;from&#45;pretrained&#45;nn/activity/&#45;2521505516517092744 -->
<g id="node11" class="node">
<title>http://purl.org/dj/kaggle/extract&#45;image&#45;features&#45;from&#45;pretrained&#45;nn/activity/&#45;2521505516517092744</title>
<ellipse fill="none" stroke="black" cx="2201.59" cy="-18" rx="145.67" ry="18"/>
<text text-anchor="middle" x="2201.59" y="-14.3" font-family="Times,serif" font-size="14.00">&#45;2521505516517092744 (Preparation)</text>
</g>
<!-- http://purl.org/dj/kaggle/extract&#45;image&#45;features&#45;from&#45;pretrained&#45;nn/activity/2544386738401066500&#45;&gt;http://purl.org/dj/kaggle/extract&#45;image&#45;features&#45;from&#45;pretrained&#45;nn/activity/&#45;2521505516517092744 -->
<g id="edge18" class="edge">
<title>http://purl.org/dj/kaggle/extract&#45;image&#45;features&#45;from&#45;pretrained&#45;nn/activity/2544386738401066500&#45;&gt;http://purl.org/dj/kaggle/extract&#45;image&#45;features&#45;from&#45;pretrained&#45;nn/activity/&#45;2521505516517092744</title>
<path fill="none" stroke="black" d="M2223.51,-88.24C2215.22,-83.37 2207.66,-77.08 2202.59,-69 2198.35,-62.25 2197.02,-53.91 2197.06,-46"/>
<polygon fill="black" stroke="black" points="2200.56,-46.22 2197.77,-36 2193.57,-45.72 2200.56,-46.22"/>
<text text-anchor="middle" x="2226.09" y="-57.8" font-family="Times,serif" font-size="14.00">previous</text>
</g>
<!-- http://purl.org/dj/kaggle/extract&#45;image&#45;features&#45;from&#45;pretrained&#45;nn/activity/8920841676011354873&#45;&gt;http://purl.org/dj/kaggle/extract&#45;image&#45;features&#45;from&#45;pretrained&#45;nn/activity/7198257012321173967 -->
<g id="edge19" class="edge">
<title>http://purl.org/dj/kaggle/extract&#45;image&#45;features&#45;from&#45;pretrained&#45;nn/activity/8920841676011354873&#45;&gt;http://purl.org/dj/kaggle/extract&#45;image&#45;features&#45;from&#45;pretrained&#45;nn/activity/7198257012321173967</title>
<path fill="none" stroke="black" d="M1706.59,-272.5C1749.99,-267.7 1799.04,-258.93 1841.59,-243 1853.02,-238.72 1853.12,-232.19 1864.59,-228 1868.88,-226.43 1962.4,-215.02 2040.77,-205.65"/>
<polygon fill="black" stroke="black" points="2041.22,-209.12 2050.74,-204.46 2040.39,-202.17 2041.22,-209.12"/>
<text text-anchor="middle" x="1888.09" y="-231.8" font-family="Times,serif" font-size="14.00">previous</text>
</g>
<!-- http://purl.org/dj/kaggle/extract&#45;image&#45;features&#45;from&#45;pretrained&#45;nn/activity/8920841676011354873&#45;&gt;http://purl.org/dj/kaggle/extract&#45;image&#45;features&#45;from&#45;pretrained&#45;nn/activity/&#45;7225044919286039776 -->
<g id="edge20" class="edge">
<title>http://purl.org/dj/kaggle/extract&#45;image&#45;features&#45;from&#45;pretrained&#45;nn/activity/8920841676011354873&#45;&gt;http://purl.org/dj/kaggle/extract&#45;image&#45;features&#45;from&#45;pretrained&#45;nn/activity/&#45;7225044919286039776</title>
<path fill="none" stroke="black" d="M1468.77,-275.4C1126.81,-268.05 182.35,-247.36 175.59,-243 112.18,-202.1 127.11,-96.23 138.46,-46.09"/>
<polygon fill="black" stroke="black" points="141.89,-46.82 140.8,-36.28 135.08,-45.2 141.89,-46.82"/>
<text text-anchor="middle" x="153.09" y="-144.8" font-family="Times,serif" font-size="14.00">previous</text>
</g>
<!-- http://purl.org/dj/kaggle/extract&#45;image&#45;features&#45;from&#45;pretrained&#45;nn/activity/8920841676011354873&#45;&gt;http://purl.org/dj/kaggle/extract&#45;image&#45;features&#45;from&#45;pretrained&#45;nn/activity/&#45;5519289880310502068 -->
<g id="edge21" class="edge">
<title>http://purl.org/dj/kaggle/extract&#45;image&#45;features&#45;from&#45;pretrained&#45;nn/activity/8920841676011354873&#45;&gt;http://purl.org/dj/kaggle/extract&#45;image&#45;features&#45;from&#45;pretrained&#45;nn/activity/&#45;5519289880310502068</title>
<path fill="none" stroke="black" d="M1466.17,-278.28C1209.24,-277.64 638.56,-269.47 574.59,-210 562.65,-198.9 547.13,-96.13 540.2,-46.11"/>
<polygon fill="black" stroke="black" points="543.64,-45.44 538.82,-36 536.71,-46.39 543.64,-45.44"/>
<text text-anchor="middle" x="582.09" y="-144.8" font-family="Times,serif" font-size="14.00">previous</text>
</g>
<!-- http://purl.org/dj/kaggle/extract&#45;image&#45;features&#45;from&#45;pretrained&#45;nn/activity/&#45;7902052909351713148 -->
<g id="node12" class="node">
<title>http://purl.org/dj/kaggle/extract&#45;image&#45;features&#45;from&#45;pretrained&#45;nn/activity/&#45;7902052909351713148</title>
<ellipse fill="none" stroke="black" cx="727.59" cy="-192" rx="144.07" ry="18"/>
<text text-anchor="middle" x="727.59" y="-188.3" font-family="Times,serif" font-size="14.00">&#45;7902052909351713148 (Movement)</text>
</g>
<!-- http://purl.org/dj/kaggle/extract&#45;image&#45;features&#45;from&#45;pretrained&#45;nn/activity/8920841676011354873&#45;&gt;http://purl.org/dj/kaggle/extract&#45;image&#45;features&#45;from&#45;pretrained&#45;nn/activity/&#45;7902052909351713148 -->
<g id="edge22" class="edge">
<title>http://purl.org/dj/kaggle/extract&#45;image&#45;features&#45;from&#45;pretrained&#45;nn/activity/8920841676011354873&#45;&gt;http://purl.org/dj/kaggle/extract&#45;image&#45;features&#45;from&#45;pretrained&#45;nn/activity/&#45;7902052909351713148</title>
<path fill="none" stroke="black" d="M1469.65,-274.9C1303.86,-270.12 1014.69,-259.7 910.59,-243 867.78,-236.13 820.62,-223.11 784.89,-212.08"/>
<polygon fill="black" stroke="black" points="785.72,-208.67 775.13,-209.02 783.63,-215.35 785.72,-208.67"/>
<text text-anchor="middle" x="934.09" y="-231.8" font-family="Times,serif" font-size="14.00">previous</text>
</g>
<!-- http://purl.org/dj/kaggle/extract&#45;image&#45;features&#45;from&#45;pretrained&#45;nn/activity/1412346118954311888 -->
<g id="node13" class="node">
<title>http://purl.org/dj/kaggle/extract&#45;image&#45;features&#45;from&#45;pretrained&#45;nn/activity/1412346118954311888</title>
<ellipse fill="none" stroke="black" cx="346.59" cy="-192" rx="142.97" ry="18"/>
<text text-anchor="middle" x="346.59" y="-188.3" font-family="Times,serif" font-size="14.00">1412346118954311888 (Preparation)</text>
</g>
<!-- http://purl.org/dj/kaggle/extract&#45;image&#45;features&#45;from&#45;pretrained&#45;nn/activity/8920841676011354873&#45;&gt;http://purl.org/dj/kaggle/extract&#45;image&#45;features&#45;from&#45;pretrained&#45;nn/activity/1412346118954311888 -->
<g id="edge23" class="edge">
<title>http://purl.org/dj/kaggle/extract&#45;image&#45;features&#45;from&#45;pretrained&#45;nn/activity/8920841676011354873&#45;&gt;http://purl.org/dj/kaggle/extract&#45;image&#45;features&#45;from&#45;pretrained&#45;nn/activity/1412346118954311888</title>
<path fill="none" stroke="black" d="M1468.55,-275.52C1185.59,-269.61 505.12,-254.3 456.59,-243 431.25,-237.1 404.65,-225.18 383.95,-214.46"/>
<polygon fill="black" stroke="black" points="385.36,-211.25 374.89,-209.65 382.08,-217.43 385.36,-211.25"/>
<text text-anchor="middle" x="480.09" y="-231.8" font-family="Times,serif" font-size="14.00">previous</text>
</g>
<!-- http://purl.org/dj/kaggle/extract&#45;image&#45;features&#45;from&#45;pretrained&#45;nn/activity/5000599720614013706 -->
<g id="node14" class="node">
<title>http://purl.org/dj/kaggle/extract&#45;image&#45;features&#45;from&#45;pretrained&#45;nn/activity/5000599720614013706</title>
<ellipse fill="none" stroke="black" cx="1816.59" cy="-192" rx="141.88" ry="18"/>
<text text-anchor="middle" x="1816.59" y="-188.3" font-family="Times,serif" font-size="14.00">5000599720614013706 (Movement)</text>
</g>
<!-- http://purl.org/dj/kaggle/extract&#45;image&#45;features&#45;from&#45;pretrained&#45;nn/activity/8920841676011354873&#45;&gt;http://purl.org/dj/kaggle/extract&#45;image&#45;features&#45;from&#45;pretrained&#45;nn/activity/5000599720614013706 -->
<g id="edge24" class="edge">
<title>http://purl.org/dj/kaggle/extract&#45;image&#45;features&#45;from&#45;pretrained&#45;nn/activity/8920841676011354873&#45;&gt;http://purl.org/dj/kaggle/extract&#45;image&#45;features&#45;from&#45;pretrained&#45;nn/activity/5000599720614013706</title>
<path fill="none" stroke="black" d="M1599.53,-260.96C1606.29,-249.81 1616.61,-235.9 1629.59,-228 1647.25,-217.25 1667.45,-209.67 1687.89,-204.34"/>
<polygon fill="black" stroke="black" points="1688.73,-207.74 1697.62,-201.98 1687.07,-200.94 1688.73,-207.74"/>
<text text-anchor="middle" x="1653.09" y="-231.8" font-family="Times,serif" font-size="14.00">previous</text>
</g>
<!-- http://purl.org/dj/kaggle/extract&#45;image&#45;features&#45;from&#45;pretrained&#45;nn -->
<g id="node15" class="node">
<title>http://purl.org/dj/kaggle/extract&#45;image&#45;features&#45;from&#45;pretrained&#45;nn</title>
<ellipse fill="none" stroke="black" cx="1231.59" cy="-192" rx="341.74" ry="18"/>
<text text-anchor="middle" x="1231.59" y="-188.3" font-family="Times,serif" font-size="14.00">extract&#45;image&#45;features&#45;from&#45;pretrained&#45;nn (extract&#45;image&#45;features&#45;from&#45;pretrained&#45;nn.ipynb)</text>
</g>
<!-- http://purl.org/dj/kaggle/extract&#45;image&#45;features&#45;from&#45;pretrained&#45;nn/activity/8920841676011354873&#45;&gt;http://purl.org/dj/kaggle/extract&#45;image&#45;features&#45;from&#45;pretrained&#45;nn -->
<g id="edge25" class="edge">
<title>http://purl.org/dj/kaggle/extract&#45;image&#45;features&#45;from&#45;pretrained&#45;nn/activity/8920841676011354873&#45;&gt;http://purl.org/dj/kaggle/extract&#45;image&#45;features&#45;from&#45;pretrained&#45;nn</title>
<path fill="none" stroke="black" d="M1528.46,-263.29C1468.43,-249.08 1377.2,-227.48 1311.73,-211.98"/>
<polygon fill="black" stroke="black" points="1312.39,-208.54 1301.86,-209.64 1310.78,-215.35 1312.39,-208.54"/>
<text text-anchor="middle" x="1456.09" y="-231.8" font-family="Times,serif" font-size="14.00">previous</text>
</g>
<!-- http://purl.org/dj/kaggle/extract&#45;image&#45;features&#45;from&#45;pretrained&#45;nn/activity/6157054181403066650&#45;&gt;http://purl.org/dj/kaggle/extract&#45;image&#45;features&#45;from&#45;pretrained&#45;nn/activity/8920841676011354873 -->
<g id="edge30" class="edge">
<title>http://purl.org/dj/kaggle/extract&#45;image&#45;features&#45;from&#45;pretrained&#45;nn/activity/6157054181403066650&#45;&gt;http://purl.org/dj/kaggle/extract&#45;image&#45;features&#45;from&#45;pretrained&#45;nn/activity/8920841676011354873</title>
<path fill="none" stroke="black" d="M1677.39,-122.71C1657.66,-134.52 1633.42,-152.13 1618.59,-174 1602.98,-197.01 1596.06,-228.37 1593,-250.62"/>
<polygon fill="black" stroke="black" points="1589.5,-250.39 1591.78,-260.73 1596.45,-251.22 1589.5,-250.39"/>
<text text-anchor="middle" x="1642.09" y="-188.3" font-family="Times,serif" font-size="14.00">previous</text>
</g>
<!-- http://purl.org/dj/kaggle/extract&#45;image&#45;features&#45;from&#45;pretrained&#45;nn/activity/&#45;7225044919286039776&#45;&gt;http://purl.org/dj/kaggle/extract&#45;image&#45;features&#45;from&#45;pretrained&#45;nn/activity/8920841676011354873 -->
<g id="edge26" class="edge">
<title>http://purl.org/dj/kaggle/extract&#45;image&#45;features&#45;from&#45;pretrained&#45;nn/activity/&#45;7225044919286039776&#45;&gt;http://purl.org/dj/kaggle/extract&#45;image&#45;features&#45;from&#45;pretrained&#45;nn/activity/8920841676011354873</title>
<path fill="none" stroke="black" d="M151.01,-36.26C158.29,-59.79 171.38,-103.33 180.59,-141 188.02,-171.4 172.58,-187.75 194.59,-210 243.81,-259.77 279.09,-234.65 348.59,-243 456.17,-255.93 1160,-270.13 1457.83,-275.63"/>
<polygon fill="black" stroke="black" points="1458.19,-279.14 1468.25,-275.83 1458.32,-272.14 1458.19,-279.14"/>
<text text-anchor="middle" x="207.09" y="-144.8" font-family="Times,serif" font-size="14.00">previous</text>
</g>
<!-- http://purl.org/dj/kaggle/extract&#45;image&#45;features&#45;from&#45;pretrained&#45;nn/activity/&#45;5519289880310502068&#45;&gt;http://purl.org/dj/kaggle/extract&#45;image&#45;features&#45;from&#45;pretrained&#45;nn/activity/8920841676011354873 -->
<g id="edge27" class="edge">
<title>http://purl.org/dj/kaggle/extract&#45;image&#45;features&#45;from&#45;pretrained&#45;nn/activity/&#45;5519289880310502068&#45;&gt;http://purl.org/dj/kaggle/extract&#45;image&#45;features&#45;from&#45;pretrained&#45;nn/activity/8920841676011354873</title>
<path fill="none" stroke="black" d="M526.09,-35.99C511.18,-62.44 487.48,-114.7 504.59,-156 528.44,-213.59 554.76,-225.52 614.59,-243 693.15,-265.95 1208.36,-274.19 1456.91,-276.85"/>
<polygon fill="black" stroke="black" points="1457.05,-280.36 1467.09,-276.96 1457.12,-273.36 1457.05,-280.36"/>
<text text-anchor="middle" x="528.09" y="-144.8" font-family="Times,serif" font-size="14.00">previous</text>
</g>
<!-- http://purl.org/dj/kaggle/extract&#45;image&#45;features&#45;from&#45;pretrained&#45;nn/activity/1719851766753895191&#45;&gt;http://purl.org/dj/kaggle/extract&#45;image&#45;features&#45;from&#45;pretrained&#45;nn/activity/6522094522573946737 -->
<g id="edge28" class="edge">
<title>http://purl.org/dj/kaggle/extract&#45;image&#45;features&#45;from&#45;pretrained&#45;nn/activity/1719851766753895191&#45;&gt;http://purl.org/dj/kaggle/extract&#45;image&#45;features&#45;from&#45;pretrained&#45;nn/activity/6522094522573946737</title>
<path fill="none" stroke="black" d="M2029.54,-382.82C2021.22,-387.65 2013.68,-393.91 2008.59,-402 2004.33,-408.75 2003.52,-417.09 2004.22,-425.01"/>
<polygon fill="black" stroke="black" points="2000.79,-425.7 2005.85,-435.01 2007.69,-424.58 2000.79,-425.7"/>
<text text-anchor="middle" x="2032.09" y="-405.8" font-family="Times,serif" font-size="14.00">previous</text>
</g>
<!-- http://purl.org/dj/kaggle/extract&#45;image&#45;features&#45;from&#45;pretrained&#45;nn/activity/1719851766753895191&#45;&gt;http://purl.org/dj/kaggle/extract&#45;image&#45;features&#45;from&#45;pretrained&#45;nn/activity/8920841676011354873 -->
<g id="edge29" class="edge">
<title>http://purl.org/dj/kaggle/extract&#45;image&#45;features&#45;from&#45;pretrained&#45;nn/activity/1719851766753895191&#45;&gt;http://purl.org/dj/kaggle/extract&#45;image&#45;features&#45;from&#45;pretrained&#45;nn/activity/8920841676011354873</title>
<path fill="none" stroke="black" d="M2000.27,-351.19C1962.63,-344.78 1917.32,-337.04 1876.59,-330 1809.23,-318.36 1732.98,-305.02 1676.16,-295.05"/>
<polygon fill="black" stroke="black" points="1676.6,-291.58 1666.14,-293.29 1675.39,-298.47 1676.6,-291.58"/>
<text text-anchor="middle" x="1900.09" y="-318.8" font-family="Times,serif" font-size="14.00">previous</text>
</g>
<!-- http://purl.org/dj/kaggle/extract&#45;image&#45;features&#45;from&#45;pretrained&#45;nn/activity/&#45;2521505516517092744&#45;&gt;http://purl.org/dj/kaggle/extract&#45;image&#45;features&#45;from&#45;pretrained&#45;nn/activity/2544386738401066500 -->
<g id="edge31" class="edge">
<title>http://purl.org/dj/kaggle/extract&#45;image&#45;features&#45;from&#45;pretrained&#45;nn/activity/&#45;2521505516517092744&#45;&gt;http://purl.org/dj/kaggle/extract&#45;image&#45;features&#45;from&#45;pretrained&#45;nn/activity/2544386738401066500</title>
<path fill="none" stroke="black" d="M2229.87,-35.84C2236.95,-41.02 2244.09,-47.17 2249.59,-54 2255.08,-60.83 2259.48,-69.24 2262.85,-77.21"/>
<polygon fill="black" stroke="black" points="2259.6,-78.5 2266.46,-86.57 2266.13,-75.98 2259.6,-78.5"/>
<text text-anchor="middle" x="2281.09" y="-57.8" font-family="Times,serif" font-size="14.00">previous</text>
</g>
<!-- http://purl.org/dj/kaggle/extract&#45;image&#45;features&#45;from&#45;pretrained&#45;nn/activity/&#45;2521505516517092744&#45;&gt;http://purl.org/dj/kaggle/extract&#45;image&#45;features&#45;from&#45;pretrained&#45;nn/activity/8920841676011354873 -->
<g id="edge32" class="edge">
<title>http://purl.org/dj/kaggle/extract&#45;image&#45;features&#45;from&#45;pretrained&#45;nn/activity/&#45;2521505516517092744&#45;&gt;http://purl.org/dj/kaggle/extract&#45;image&#45;features&#45;from&#45;pretrained&#45;nn/activity/8920841676011354873</title>
<path fill="none" stroke="black" d="M2082.84,-28.45C2046.79,-33.67 2013.33,-41.7 2000.59,-54 1975.08,-78.6 1994.05,-186.43 1967.59,-210 1935.42,-238.65 1815.83,-215.58 1774.59,-228 1761.07,-232.07 1759.82,-238.08 1746.59,-243 1724.95,-251.05 1700.9,-257.57 1678.29,-262.69"/>
<polygon fill="black" stroke="black" points="1677.37,-259.31 1668.36,-264.88 1678.88,-266.15 1677.37,-259.31"/>
<text text-anchor="middle" x="2007.09" y="-144.8" font-family="Times,serif" font-size="14.00">previous</text>
</g>
<!-- http://purl.org/dj/kaggle/extract&#45;image&#45;features&#45;from&#45;pretrained&#45;nn/activity/&#45;7902052909351713148&#45;&gt;http://purl.org/dj/kaggle/extract&#45;image&#45;features&#45;from&#45;pretrained&#45;nn/activity/8920841676011354873 -->
<g id="edge33" class="edge">
<title>http://purl.org/dj/kaggle/extract&#45;image&#45;features&#45;from&#45;pretrained&#45;nn/activity/&#45;7902052909351713148&#45;&gt;http://purl.org/dj/kaggle/extract&#45;image&#45;features&#45;from&#45;pretrained&#45;nn/activity/8920841676011354873</title>
<path fill="none" stroke="black" d="M830.44,-204.64C847.2,-206.48 864.37,-208.32 880.59,-210 1091.62,-231.83 1338.21,-254.9 1478.23,-267.77"/>
<polygon fill="black" stroke="black" points="1478.26,-271.29 1488.54,-268.72 1478.9,-264.32 1478.26,-271.29"/>
<text text-anchor="middle" x="1235.09" y="-231.8" font-family="Times,serif" font-size="14.00">previous</text>
</g>
<!-- http://purl.org/dj/kaggle/extract&#45;image&#45;features&#45;from&#45;pretrained&#45;nn/activity/1412346118954311888&#45;&gt;http://purl.org/dj/kaggle/extract&#45;image&#45;features&#45;from&#45;pretrained&#45;nn/activity/8920841676011354873 -->
<g id="edge34" class="edge">
<title>http://purl.org/dj/kaggle/extract&#45;image&#45;features&#45;from&#45;pretrained&#45;nn/activity/1412346118954311888&#45;&gt;http://purl.org/dj/kaggle/extract&#45;image&#45;features&#45;from&#45;pretrained&#45;nn/activity/8920841676011354873</title>
<path fill="none" stroke="black" d="M347.24,-210.26C348.67,-221.5 352.53,-235.44 362.59,-243 373.43,-251.16 1143.78,-268.48 1458.67,-275.23"/>
<polygon fill="black" stroke="black" points="1458.69,-278.73 1468.77,-275.44 1458.84,-271.73 1458.69,-278.73"/>
<text text-anchor="middle" x="386.09" y="-231.8" font-family="Times,serif" font-size="14.00">previous</text>
</g>
<!-- http://purl.org/dj/kaggle/extract&#45;image&#45;features&#45;from&#45;pretrained&#45;nn/activity/5000599720614013706&#45;&gt;http://purl.org/dj/kaggle/extract&#45;image&#45;features&#45;from&#45;pretrained&#45;nn/activity/8920841676011354873 -->
<g id="edge35" class="edge">
<title>http://purl.org/dj/kaggle/extract&#45;image&#45;features&#45;from&#45;pretrained&#45;nn/activity/5000599720614013706&#45;&gt;http://purl.org/dj/kaggle/extract&#45;image&#45;features&#45;from&#45;pretrained&#45;nn/activity/8920841676011354873</title>
<path fill="none" stroke="black" d="M1753.73,-208.2C1735.84,-213.49 1716.61,-220.1 1699.59,-228 1688.52,-233.14 1687.4,-237.34 1676.59,-243 1666.2,-248.43 1654.78,-253.61 1643.75,-258.22"/>
<polygon fill="black" stroke="black" points="1642.12,-255.11 1634.19,-262.13 1644.77,-261.59 1642.12,-255.11"/>
<text text-anchor="middle" x="1723.09" y="-231.8" font-family="Times,serif" font-size="14.00">previous</text>
</g>
<!-- http://purl.org/dj/kaggle/extract&#45;image&#45;features&#45;from&#45;pretrained&#45;nn/activity/&#45;1819485398318380657 -->
<g id="node16" class="node">
<title>http://purl.org/dj/kaggle/extract&#45;image&#45;features&#45;from&#45;pretrained&#45;nn/activity/&#45;1819485398318380657</title>
<ellipse fill="none" stroke="black" cx="1959.59" cy="-714" rx="145.67" ry="18"/>
<text text-anchor="middle" x="1959.59" y="-710.3" font-family="Times,serif" font-size="14.00">&#45;1819485398318380657 (Preparation)</text>
</g>
<!-- http://purl.org/dj/kaggle/extract&#45;image&#45;features&#45;from&#45;pretrained&#45;nn/activity/&#45;1819485398318380657&#45;&gt;http://purl.org/dj/kaggle/extract&#45;image&#45;features&#45;from&#45;pretrained&#45;nn/activity/6910167189345810576 -->
<g id="edge36" class="edge">
<title>http://purl.org/dj/kaggle/extract&#45;image&#45;features&#45;from&#45;pretrained&#45;nn/activity/&#45;1819485398318380657&#45;&gt;http://purl.org/dj/kaggle/extract&#45;image&#45;features&#45;from&#45;pretrained&#45;nn/activity/6910167189345810576</title>
<path fill="none" stroke="black" d="M1983.69,-696.21C2002.41,-683.17 2028.54,-664.96 2049.1,-650.63"/>
<polygon fill="black" stroke="black" points="2051.33,-653.35 2057.53,-644.76 2047.33,-647.6 2051.33,-653.35"/>
<text text-anchor="middle" x="2051.09" y="-666.8" font-family="Times,serif" font-size="14.00">previous</text>
</g>
<!-- http://purl.org/dj/kaggle/extract&#45;image&#45;features&#45;from&#45;pretrained&#45;nn/activity/&#45;1819485398318380657&#45;&gt;http://purl.org/dj/kaggle/extract&#45;image&#45;features&#45;from&#45;pretrained&#45;nn/activity/6522094522573946737 -->
<g id="edge37" class="edge">
<title>http://purl.org/dj/kaggle/extract&#45;image&#45;features&#45;from&#45;pretrained&#45;nn/activity/&#45;1819485398318380657&#45;&gt;http://purl.org/dj/kaggle/extract&#45;image&#45;features&#45;from&#45;pretrained&#45;nn/activity/6522094522573946737</title>
<path fill="none" stroke="black" d="M1953.98,-695.91C1943.7,-661.56 1924.95,-582.3 1948.59,-522 1955.3,-504.88 1968.57,-489.49 1981.21,-477.7"/>
<polygon fill="black" stroke="black" points="1983.78,-480.1 1988.94,-470.84 1979.14,-474.87 1983.78,-480.1"/>
<text text-anchor="middle" x="1961.09" y="-579.8" font-family="Times,serif" font-size="14.00">previous</text>
</g>
<!-- http://purl.org/dj/kaggle/extract&#45;image&#45;features&#45;from&#45;pretrained&#45;nn/activity/&#45;1819485398318380657&#45;&gt;http://purl.org/dj/kaggle/extract&#45;image&#45;features&#45;from&#45;pretrained&#45;nn/activity/2544386738401066500 -->
<g id="edge38" class="edge">
<title>http://purl.org/dj/kaggle/extract&#45;image&#45;features&#45;from&#45;pretrained&#45;nn/activity/&#45;1819485398318380657&#45;&gt;http://purl.org/dj/kaggle/extract&#45;image&#45;features&#45;from&#45;pretrained&#45;nn/activity/2544386738401066500</title>
<path fill="none" stroke="black" d="M2069.96,-702.18C2146.79,-694.19 2236.68,-683.75 2243.59,-678 2280.09,-647.58 2261.21,-621.29 2275.59,-576 2312.26,-460.48 2362.2,-435.96 2354.59,-315 2349.64,-236.36 2371.41,-201.22 2320.59,-141 2316.92,-136.66 2312.6,-132.58 2308.07,-128.85"/>
<polygon fill="black" stroke="black" points="2309.86,-125.81 2299.79,-122.53 2305.62,-131.38 2309.86,-125.81"/>
<text text-anchor="middle" x="2371.09" y="-405.8" font-family="Times,serif" font-size="14.00">previous</text>
</g>
<!-- http://purl.org/dj/kaggle/extract&#45;image&#45;features&#45;from&#45;pretrained&#45;nn/activity/&#45;1819485398318380657&#45;&gt;http://purl.org/dj/kaggle/extract&#45;image&#45;features&#45;from&#45;pretrained&#45;nn/activity/8920841676011354873 -->
<g id="edge39" class="edge">
<title>http://purl.org/dj/kaggle/extract&#45;image&#45;features&#45;from&#45;pretrained&#45;nn/activity/&#45;1819485398318380657&#45;&gt;http://purl.org/dj/kaggle/extract&#45;image&#45;features&#45;from&#45;pretrained&#45;nn/activity/8920841676011354873</title>
<path fill="none" stroke="black" d="M1825.33,-706.97C1719.82,-698.42 1590.59,-677.8 1590.59,-628 1590.59,-628 1590.59,-628 1590.59,-365 1590.59,-345.75 1590.59,-324.05 1590.59,-307.4"/>
<polygon fill="black" stroke="black" points="1594.09,-307.26 1590.59,-297.26 1587.09,-307.26 1594.09,-307.26"/>
<text text-anchor="middle" x="1614.09" y="-492.8" font-family="Times,serif" font-size="14.00">previous</text>
</g>
<!-- http://purl.org/dj/kaggle/extract&#45;image&#45;features&#45;from&#45;pretrained&#45;nn/activity/8662317650618061321 -->
<g id="node17" class="node">
<title>http://purl.org/dj/kaggle/extract&#45;image&#45;features&#45;from&#45;pretrained&#45;nn/activity/8662317650618061321</title>
<ellipse fill="none" stroke="black" cx="2281.59" cy="-714" rx="142.97" ry="18"/>
<text text-anchor="middle" x="2281.59" y="-710.3" font-family="Times,serif" font-size="14.00">8662317650618061321 (Preparation)</text>
</g>
<!-- http://purl.org/dj/kaggle/extract&#45;image&#45;features&#45;from&#45;pretrained&#45;nn/activity/8662317650618061321&#45;&gt;http://purl.org/dj/kaggle/extract&#45;image&#45;features&#45;from&#45;pretrained&#45;nn/activity/6910167189345810576 -->
<g id="edge40" class="edge">
<title>http://purl.org/dj/kaggle/extract&#45;image&#45;features&#45;from&#45;pretrained&#45;nn/activity/8662317650618061321&#45;&gt;http://purl.org/dj/kaggle/extract&#45;image&#45;features&#45;from&#45;pretrained&#45;nn/activity/6910167189345810576</title>
<path fill="none" stroke="black" d="M2243.03,-696.61C2210.55,-682.81 2163.96,-663.01 2129.17,-648.22"/>
<polygon fill="black" stroke="black" points="2130.26,-644.88 2119.69,-644.19 2127.53,-651.33 2130.26,-644.88"/>
<text text-anchor="middle" x="2216.09" y="-666.8" font-family="Times,serif" font-size="14.00">previous</text>
</g>
<!-- http://purl.org/dj/kaggle/extract&#45;image&#45;features&#45;from&#45;pretrained&#45;nn/activity/8662317650618061321&#45;&gt;http://purl.org/dj/kaggle/extract&#45;image&#45;features&#45;from&#45;pretrained&#45;nn/activity/6522094522573946737 -->
<g id="edge41" class="edge">
<title>http://purl.org/dj/kaggle/extract&#45;image&#45;features&#45;from&#45;pretrained&#45;nn/activity/8662317650618061321&#45;&gt;http://purl.org/dj/kaggle/extract&#45;image&#45;features&#45;from&#45;pretrained&#45;nn/activity/6522094522573946737</title>
<path fill="none" stroke="black" d="M2280.69,-695.92C2277.8,-658.7 2265.62,-569.81 2214.59,-522 2185.39,-494.65 2144.86,-478.28 2107.69,-468.49"/>
<polygon fill="black" stroke="black" points="2108.37,-465.05 2097.82,-466.02 2106.67,-471.84 2108.37,-465.05"/>
<text text-anchor="middle" x="2281.09" y="-579.8" font-family="Times,serif" font-size="14.00">previous</text>
</g>
<!-- http://purl.org/dj/kaggle/extract&#45;image&#45;features&#45;from&#45;pretrained&#45;nn/activity/8662317650618061321&#45;&gt;http://purl.org/dj/kaggle/extract&#45;image&#45;features&#45;from&#45;pretrained&#45;nn/activity/2544386738401066500 -->
<g id="edge42" class="edge">
<title>http://purl.org/dj/kaggle/extract&#45;image&#45;features&#45;from&#45;pretrained&#45;nn/activity/8662317650618061321&#45;&gt;http://purl.org/dj/kaggle/extract&#45;image&#45;features&#45;from&#45;pretrained&#45;nn/activity/2544386738401066500</title>
<path fill="none" stroke="black" d="M2357.4,-698.67C2394.21,-686.87 2430.59,-665.67 2430.59,-628 2430.59,-628 2430.59,-628 2430.59,-191 2430.59,-154.51 2397.61,-133.63 2361.7,-121.7"/>
<polygon fill="black" stroke="black" points="2362.61,-118.32 2352.02,-118.72 2360.54,-125.01 2362.61,-118.32"/>
<text text-anchor="middle" x="2454.09" y="-405.8" font-family="Times,serif" font-size="14.00">previous</text>
</g>
<!-- http://purl.org/dj/kaggle/extract&#45;image&#45;features&#45;from&#45;pretrained&#45;nn/activity/8662317650618061321&#45;&gt;http://purl.org/dj/kaggle/extract&#45;image&#45;features&#45;from&#45;pretrained&#45;nn/activity/8920841676011354873 -->
<g id="edge43" class="edge">
<title>http://purl.org/dj/kaggle/extract&#45;image&#45;features&#45;from&#45;pretrained&#45;nn/activity/8662317650618061321&#45;&gt;http://purl.org/dj/kaggle/extract&#45;image&#45;features&#45;from&#45;pretrained&#45;nn/activity/8920841676011354873</title>
<path fill="none" stroke="black" d="M2182.71,-700.97C2017.34,-680.5 1702.59,-639.99 1702.59,-628 1702.59,-628 1702.59,-628 1702.59,-365 1702.59,-334.41 1675.74,-313.4 1648.34,-299.92"/>
<polygon fill="black" stroke="black" points="1649.61,-296.65 1639.06,-295.63 1646.67,-303 1649.61,-296.65"/>
<text text-anchor="middle" x="1726.09" y="-492.8" font-family="Times,serif" font-size="14.00">previous</text>
</g>
</g>
</svg>
