<?xml version="1.0" encoding="UTF-8" standalone="no"?>
<!DOCTYPE svg PUBLIC "-//W3C//DTD SVG 1.1//EN"
 "http://www.w3.org/Graphics/SVG/1.1/DTD/svg11.dtd">
<!-- Generated by graphviz version 2.47.1 (20210417.1919)
 -->
<!-- Pages: 1 -->
<svg width="1872pt" height="653pt"
 viewBox="0.00 0.00 1872.17 653.00" xmlns="http://www.w3.org/2000/svg" xmlns:xlink="http://www.w3.org/1999/xlink">
<g id="graph0" class="graph" transform="scale(1 1) rotate(0) translate(4 649)">
<polygon fill="white" stroke="transparent" points="-4,4 -4,-649 1868.17,-649 1868.17,4 -4,4"/>
<!-- http://purl.org/dj/kaggle/faceting&#45;with&#45;seaborn/activity/&#45;3382991258235098482 -->
<g id="node1" class="node">
<title>http://purl.org/dj/kaggle/faceting&#45;with&#45;seaborn/activity/&#45;3382991258235098482</title>
<ellipse fill="none" stroke="black" cx="842.59" cy="-366" rx="151.37" ry="18"/>
<text text-anchor="middle" x="842.59" y="-362.3" font-family="Times,serif" font-size="14.00">&#45;3382991258235098482 (Visualisation)</text>
</g>
<!-- http://purl.org/dj/kaggle/faceting&#45;with&#45;seaborn/activity/5340136226050512760 -->
<g id="node2" class="node">
<title>http://purl.org/dj/kaggle/faceting&#45;with&#45;seaborn/activity/5340136226050512760</title>
<ellipse fill="none" stroke="black" cx="668.59" cy="-105" rx="124.28" ry="18"/>
<text text-anchor="middle" x="668.59" y="-101.3" font-family="Times,serif" font-size="14.00">5340136226050512760 (Reuse)</text>
</g>
<!-- http://purl.org/dj/kaggle/faceting&#45;with&#45;seaborn/activity/&#45;3382991258235098482&#45;&gt;http://purl.org/dj/kaggle/faceting&#45;with&#45;seaborn/activity/5340136226050512760 -->
<g id="edge1" class="edge">
<title>http://purl.org/dj/kaggle/faceting&#45;with&#45;seaborn/activity/&#45;3382991258235098482&#45;&gt;http://purl.org/dj/kaggle/faceting&#45;with&#45;seaborn/activity/5340136226050512760</title>
<path fill="none" stroke="black" d="M790.83,-349.03C732.13,-327.81 639.31,-284.11 598.59,-210 582.6,-180.91 610.5,-149.57 635.67,-128.99"/>
<polygon fill="black" stroke="black" points="637.98,-131.63 643.69,-122.7 633.66,-126.12 637.98,-131.63"/>
<text text-anchor="middle" x="644.09" y="-231.8" font-family="Times,serif" font-size="14.00">previous</text>
</g>
<!-- http://purl.org/dj/kaggle/faceting&#45;with&#45;seaborn/activity/&#45;5798719352251666683 -->
<g id="node3" class="node">
<title>http://purl.org/dj/kaggle/faceting&#45;with&#45;seaborn/activity/&#45;5798719352251666683</title>
<ellipse fill="none" stroke="black" cx="435.59" cy="-279" rx="144.07" ry="18"/>
<text text-anchor="middle" x="435.59" y="-275.3" font-family="Times,serif" font-size="14.00">&#45;5798719352251666683 (Movement)</text>
</g>
<!-- http://purl.org/dj/kaggle/faceting&#45;with&#45;seaborn/activity/&#45;3382991258235098482&#45;&gt;http://purl.org/dj/kaggle/faceting&#45;with&#45;seaborn/activity/&#45;5798719352251666683 -->
<g id="edge2" class="edge">
<title>http://purl.org/dj/kaggle/faceting&#45;with&#45;seaborn/activity/&#45;3382991258235098482&#45;&gt;http://purl.org/dj/kaggle/faceting&#45;with&#45;seaborn/activity/&#45;5798719352251666683</title>
<path fill="none" stroke="black" d="M735.95,-353.17C654.95,-344.06 555.89,-332.6 546.59,-330 531.07,-325.67 528.27,-321.63 513.59,-315 503.33,-310.37 492.31,-305.41 481.88,-300.73"/>
<polygon fill="black" stroke="black" points="483.06,-297.42 472.5,-296.52 480.19,-303.81 483.06,-297.42"/>
<text text-anchor="middle" x="570.09" y="-318.8" font-family="Times,serif" font-size="14.00">previous</text>
</g>
<!-- http://purl.org/dj/kaggle/faceting&#45;with&#45;seaborn -->
<g id="node4" class="node">
<title>http://purl.org/dj/kaggle/faceting&#45;with&#45;seaborn</title>
<ellipse fill="none" stroke="black" cx="1152.59" cy="-18" rx="195.77" ry="18"/>
<text text-anchor="middle" x="1152.59" y="-14.3" font-family="Times,serif" font-size="14.00">faceting&#45;with&#45;seaborn (faceting&#45;with&#45;seaborn.ipynb)</text>
</g>
<!-- http://purl.org/dj/kaggle/faceting&#45;with&#45;seaborn/activity/5340136226050512760&#45;&gt;http://purl.org/dj/kaggle/faceting&#45;with&#45;seaborn -->
<g id="edge3" class="edge">
<title>http://purl.org/dj/kaggle/faceting&#45;with&#45;seaborn/activity/5340136226050512760&#45;&gt;http://purl.org/dj/kaggle/faceting&#45;with&#45;seaborn</title>
<path fill="none" stroke="black" d="M744.21,-90.72C828.27,-75.96 964.22,-52.08 1055.93,-35.97"/>
<polygon fill="black" stroke="black" points="1056.81,-39.37 1066.06,-34.2 1055.6,-32.48 1056.81,-39.37"/>
<text text-anchor="middle" x="962.09" y="-57.8" font-family="Times,serif" font-size="14.00">previous</text>
</g>
<!-- http://purl.org/dj/kaggle/faceting&#45;with&#45;seaborn/activity/&#45;5798719352251666683&#45;&gt;http://purl.org/dj/kaggle/faceting&#45;with&#45;seaborn/activity/5340136226050512760 -->
<g id="edge4" class="edge">
<title>http://purl.org/dj/kaggle/faceting&#45;with&#45;seaborn/activity/&#45;5798719352251666683&#45;&gt;http://purl.org/dj/kaggle/faceting&#45;with&#45;seaborn/activity/5340136226050512760</title>
<path fill="none" stroke="black" d="M445.98,-261C465.34,-231.01 510.04,-169.21 565.59,-141 577.85,-134.77 591.47,-129.26 604.69,-124.55"/>
<polygon fill="black" stroke="black" points="605.9,-127.83 614.21,-121.27 603.62,-121.22 605.9,-127.83"/>
<text text-anchor="middle" x="541.09" y="-188.3" font-family="Times,serif" font-size="14.00">previous</text>
</g>
<!-- http://purl.org/dj/kaggle/faceting&#45;with&#45;seaborn/activity/&#45;6008150111831862425 -->
<g id="node5" class="node">
<title>http://purl.org/dj/kaggle/faceting&#45;with&#45;seaborn/activity/&#45;6008150111831862425</title>
<ellipse fill="none" stroke="black" cx="1432.59" cy="-192" rx="151.37" ry="18"/>
<text text-anchor="middle" x="1432.59" y="-188.3" font-family="Times,serif" font-size="14.00">&#45;6008150111831862425 (Visualisation)</text>
</g>
<!-- http://purl.org/dj/kaggle/faceting&#45;with&#45;seaborn/activity/&#45;5798719352251666683&#45;&gt;http://purl.org/dj/kaggle/faceting&#45;with&#45;seaborn/activity/&#45;6008150111831862425 -->
<g id="edge5" class="edge">
<title>http://purl.org/dj/kaggle/faceting&#45;with&#45;seaborn/activity/&#45;5798719352251666683&#45;&gt;http://purl.org/dj/kaggle/faceting&#45;with&#45;seaborn/activity/&#45;6008150111831862425</title>
<path fill="none" stroke="black" d="M476.5,-261.65C489.23,-256.15 503.18,-249.7 515.59,-243 526.33,-237.2 526.93,-231.63 538.59,-228 612.45,-205 1157.35,-214.31 1234.59,-210 1258.66,-208.66 1284.34,-206.78 1308.96,-204.76"/>
<polygon fill="black" stroke="black" points="1309.39,-208.24 1319.07,-203.92 1308.81,-201.26 1309.39,-208.24"/>
<text text-anchor="middle" x="562.09" y="-231.8" font-family="Times,serif" font-size="14.00">previous</text>
</g>
<!-- http://purl.org/dj/kaggle/faceting&#45;with&#45;seaborn/activity/2720026872859028989 -->
<g id="node6" class="node">
<title>http://purl.org/dj/kaggle/faceting&#45;with&#45;seaborn/activity/2720026872859028989</title>
<ellipse fill="none" stroke="black" cx="319.59" cy="-192" rx="148.67" ry="18"/>
<text text-anchor="middle" x="319.59" y="-188.3" font-family="Times,serif" font-size="14.00">2720026872859028989 (Visualisation)</text>
</g>
<!-- http://purl.org/dj/kaggle/faceting&#45;with&#45;seaborn/activity/&#45;5798719352251666683&#45;&gt;http://purl.org/dj/kaggle/faceting&#45;with&#45;seaborn/activity/2720026872859028989 -->
<g id="edge6" class="edge">
<title>http://purl.org/dj/kaggle/faceting&#45;with&#45;seaborn/activity/&#45;5798719352251666683&#45;&gt;http://purl.org/dj/kaggle/faceting&#45;with&#45;seaborn/activity/2720026872859028989</title>
<path fill="none" stroke="black" d="M412.67,-261.21C395.07,-248.31 370.57,-230.36 351.12,-216.1"/>
<polygon fill="black" stroke="black" points="352.99,-213.14 342.85,-210.05 348.85,-218.78 352.99,-213.14"/>
<text text-anchor="middle" x="408.09" y="-231.8" font-family="Times,serif" font-size="14.00">previous</text>
</g>
<!-- http://purl.org/dj/kaggle/faceting&#45;with&#45;seaborn/activity/&#45;6008150111831862425&#45;&gt;http://purl.org/dj/kaggle/faceting&#45;with&#45;seaborn/activity/5340136226050512760 -->
<g id="edge9" class="edge">
<title>http://purl.org/dj/kaggle/faceting&#45;with&#45;seaborn/activity/&#45;6008150111831862425&#45;&gt;http://purl.org/dj/kaggle/faceting&#45;with&#45;seaborn/activity/5340136226050512760</title>
<path fill="none" stroke="black" d="M1388.81,-174.64C1355.95,-163.13 1309.58,-148.48 1267.59,-141 1180.87,-125.55 947.32,-115.24 798.78,-110.02"/>
<polygon fill="black" stroke="black" points="798.8,-106.52 788.68,-109.67 798.55,-113.51 798.8,-106.52"/>
<text text-anchor="middle" x="1350.09" y="-144.8" font-family="Times,serif" font-size="14.00">previous</text>
</g>
<!-- http://purl.org/dj/kaggle/faceting&#45;with&#45;seaborn/activity/&#45;6008150111831862425&#45;&gt;http://purl.org/dj/kaggle/faceting&#45;with&#45;seaborn -->
<g id="edge10" class="edge">
<title>http://purl.org/dj/kaggle/faceting&#45;with&#45;seaborn/activity/&#45;6008150111831862425&#45;&gt;http://purl.org/dj/kaggle/faceting&#45;with&#45;seaborn</title>
<path fill="none" stroke="black" d="M1415.67,-173.64C1405.24,-163.45 1391.27,-150.71 1377.59,-141 1319.45,-99.73 1245.81,-62.27 1198.93,-40.05"/>
<polygon fill="black" stroke="black" points="1200.17,-36.77 1189.64,-35.68 1197.2,-43.11 1200.17,-36.77"/>
<text text-anchor="middle" x="1372.09" y="-101.3" font-family="Times,serif" font-size="14.00">previous</text>
</g>
<!-- http://purl.org/dj/kaggle/faceting&#45;with&#45;seaborn/activity/2720026872859028989&#45;&gt;http://purl.org/dj/kaggle/faceting&#45;with&#45;seaborn/activity/5340136226050512760 -->
<g id="edge11" class="edge">
<title>http://purl.org/dj/kaggle/faceting&#45;with&#45;seaborn/activity/2720026872859028989&#45;&gt;http://purl.org/dj/kaggle/faceting&#45;with&#45;seaborn/activity/5340136226050512760</title>
<path fill="none" stroke="black" d="M354.39,-174.47C378.84,-163.47 412.59,-149.54 443.59,-141 481.37,-130.59 523.64,-123 561.24,-117.59"/>
<polygon fill="black" stroke="black" points="561.79,-121.05 571.21,-116.2 560.82,-114.12 561.79,-121.05"/>
<text text-anchor="middle" x="467.09" y="-144.8" font-family="Times,serif" font-size="14.00">previous</text>
</g>
<!-- http://purl.org/dj/kaggle/faceting&#45;with&#45;seaborn/activity/&#45;7496701945307457727 -->
<g id="node7" class="node">
<title>http://purl.org/dj/kaggle/faceting&#45;with&#45;seaborn/activity/&#45;7496701945307457727</title>
<ellipse fill="none" stroke="black" cx="521.59" cy="-366" rx="151.37" ry="18"/>
<text text-anchor="middle" x="521.59" y="-362.3" font-family="Times,serif" font-size="14.00">&#45;7496701945307457727 (Visualisation)</text>
</g>
<!-- http://purl.org/dj/kaggle/faceting&#45;with&#45;seaborn/activity/&#45;7496701945307457727&#45;&gt;http://purl.org/dj/kaggle/faceting&#45;with&#45;seaborn/activity/5340136226050512760 -->
<g id="edge7" class="edge">
<title>http://purl.org/dj/kaggle/faceting&#45;with&#45;seaborn/activity/&#45;7496701945307457727&#45;&gt;http://purl.org/dj/kaggle/faceting&#45;with&#45;seaborn/activity/5340136226050512760</title>
<path fill="none" stroke="black" d="M415.57,-353.13C371.27,-347.08 325.51,-339.08 305.59,-330 219.73,-290.86 99.64,-245.17 161.59,-174 186.61,-145.26 405.96,-124.49 547.83,-113.92"/>
<polygon fill="black" stroke="black" points="548.19,-117.41 557.91,-113.18 547.68,-110.43 548.19,-117.41"/>
<text text-anchor="middle" x="179.09" y="-231.8" font-family="Times,serif" font-size="14.00">previous</text>
</g>
<!-- http://purl.org/dj/kaggle/faceting&#45;with&#45;seaborn/activity/&#45;7496701945307457727&#45;&gt;http://purl.org/dj/kaggle/faceting&#45;with&#45;seaborn/activity/&#45;5798719352251666683 -->
<g id="edge8" class="edge">
<title>http://purl.org/dj/kaggle/faceting&#45;with&#45;seaborn/activity/&#45;7496701945307457727&#45;&gt;http://purl.org/dj/kaggle/faceting&#45;with&#45;seaborn/activity/&#45;5798719352251666683</title>
<path fill="none" stroke="black" d="M490.09,-348.35C481.88,-343.14 473.43,-336.92 466.59,-330 459.7,-323.03 453.62,-314.27 448.72,-306.03"/>
<polygon fill="black" stroke="black" points="451.64,-304.09 443.69,-297.08 445.53,-307.51 451.64,-304.09"/>
<text text-anchor="middle" x="490.09" y="-318.8" font-family="Times,serif" font-size="14.00">previous</text>
</g>
<!-- http://purl.org/dj/kaggle/faceting&#45;with&#45;seaborn/activity/&#45;52035999303909217 -->
<g id="node8" class="node">
<title>http://purl.org/dj/kaggle/faceting&#45;with&#45;seaborn/activity/&#45;52035999303909217</title>
<ellipse fill="none" stroke="black" cx="842.59" cy="-540" rx="142.97" ry="18"/>
<text text-anchor="middle" x="842.59" y="-536.3" font-family="Times,serif" font-size="14.00">&#45;52035999303909217 (Visualisation)</text>
</g>
<!-- http://purl.org/dj/kaggle/faceting&#45;with&#45;seaborn/activity/&#45;52035999303909217&#45;&gt;http://purl.org/dj/kaggle/faceting&#45;with&#45;seaborn/activity/5340136226050512760 -->
<g id="edge12" class="edge">
<title>http://purl.org/dj/kaggle/faceting&#45;with&#45;seaborn/activity/&#45;52035999303909217&#45;&gt;http://purl.org/dj/kaggle/faceting&#45;with&#45;seaborn/activity/5340136226050512760</title>
<path fill="none" stroke="black" d="M980.6,-535.17C1095.22,-528.11 1239.59,-508.41 1239.59,-454 1239.59,-454 1239.59,-454 1239.59,-278 1239.59,-231.72 1266.12,-207.87 1234.59,-174 1205.06,-142.28 950.98,-122.13 793.44,-112.57"/>
<polygon fill="black" stroke="black" points="793.4,-109.06 783.21,-111.96 792.98,-116.05 793.4,-109.06"/>
<text text-anchor="middle" x="1263.09" y="-318.8" font-family="Times,serif" font-size="14.00">previous</text>
</g>
<!-- http://purl.org/dj/kaggle/faceting&#45;with&#45;seaborn/activity/3319356800437340926 -->
<g id="node9" class="node">
<title>http://purl.org/dj/kaggle/faceting&#45;with&#45;seaborn/activity/3319356800437340926</title>
<ellipse fill="none" stroke="black" cx="209.59" cy="-366" rx="142.97" ry="18"/>
<text text-anchor="middle" x="209.59" y="-362.3" font-family="Times,serif" font-size="14.00">3319356800437340926 (Preparation)</text>
</g>
<!-- http://purl.org/dj/kaggle/faceting&#45;with&#45;seaborn/activity/&#45;52035999303909217&#45;&gt;http://purl.org/dj/kaggle/faceting&#45;with&#45;seaborn/activity/3319356800437340926 -->
<g id="edge13" class="edge">
<title>http://purl.org/dj/kaggle/faceting&#45;with&#45;seaborn/activity/&#45;52035999303909217&#45;&gt;http://purl.org/dj/kaggle/faceting&#45;with&#45;seaborn/activity/3319356800437340926</title>
<path fill="none" stroke="black" d="M785.3,-523.43C668.11,-491.59 401.55,-419.16 276.58,-385.2"/>
<polygon fill="black" stroke="black" points="277.32,-381.78 266.75,-382.53 275.48,-388.53 277.32,-381.78"/>
<text text-anchor="middle" x="613.09" y="-449.3" font-family="Times,serif" font-size="14.00">previous</text>
</g>
<!-- http://purl.org/dj/kaggle/faceting&#45;with&#45;seaborn/activity/&#45;1425692458230222553 -->
<g id="node10" class="node">
<title>http://purl.org/dj/kaggle/faceting&#45;with&#45;seaborn/activity/&#45;1425692458230222553</title>
<ellipse fill="none" stroke="black" cx="842.59" cy="-453" rx="145.67" ry="18"/>
<text text-anchor="middle" x="842.59" y="-449.3" font-family="Times,serif" font-size="14.00">&#45;1425692458230222553 (Preparation)</text>
</g>
<!-- http://purl.org/dj/kaggle/faceting&#45;with&#45;seaborn/activity/&#45;52035999303909217&#45;&gt;http://purl.org/dj/kaggle/faceting&#45;with&#45;seaborn/activity/&#45;1425692458230222553 -->
<g id="edge14" class="edge">
<title>http://purl.org/dj/kaggle/faceting&#45;with&#45;seaborn/activity/&#45;52035999303909217&#45;&gt;http://purl.org/dj/kaggle/faceting&#45;with&#45;seaborn/activity/&#45;1425692458230222553</title>
<path fill="none" stroke="black" d="M842.59,-521.8C842.59,-510.16 842.59,-494.55 842.59,-481.24"/>
<polygon fill="black" stroke="black" points="846.09,-481.18 842.59,-471.18 839.09,-481.18 846.09,-481.18"/>
<text text-anchor="middle" x="866.09" y="-492.8" font-family="Times,serif" font-size="14.00">previous</text>
</g>
<!-- http://purl.org/dj/kaggle/faceting&#45;with&#45;seaborn/activity/3319356800437340926&#45;&gt;http://purl.org/dj/kaggle/faceting&#45;with&#45;seaborn/activity/5340136226050512760 -->
<g id="edge15" class="edge">
<title>http://purl.org/dj/kaggle/faceting&#45;with&#45;seaborn/activity/3319356800437340926&#45;&gt;http://purl.org/dj/kaggle/faceting&#45;with&#45;seaborn/activity/5340136226050512760</title>
<path fill="none" stroke="black" d="M185.68,-347.99C158.38,-326.94 115.22,-288.28 97.59,-243 84.39,-209.11 113.57,-197.19 141.59,-174 165.33,-154.34 173.01,-149.68 202.59,-141 263.14,-123.23 422.16,-114.13 537.63,-109.73"/>
<polygon fill="black" stroke="black" points="538.1,-113.22 547.96,-109.34 537.84,-106.22 538.1,-113.22"/>
<text text-anchor="middle" x="121.09" y="-231.8" font-family="Times,serif" font-size="14.00">previous</text>
</g>
<!-- http://purl.org/dj/kaggle/faceting&#45;with&#45;seaborn/activity/3319356800437340926&#45;&gt;http://purl.org/dj/kaggle/faceting&#45;with&#45;seaborn/activity/&#45;5798719352251666683 -->
<g id="edge16" class="edge">
<title>http://purl.org/dj/kaggle/faceting&#45;with&#45;seaborn/activity/3319356800437340926&#45;&gt;http://purl.org/dj/kaggle/faceting&#45;with&#45;seaborn/activity/&#45;5798719352251666683</title>
<path fill="none" stroke="black" d="M252.63,-348.81C289.66,-334.88 343.22,-314.74 382.83,-299.84"/>
<polygon fill="black" stroke="black" points="384.19,-303.07 392.32,-296.27 381.73,-296.52 384.19,-303.07"/>
<text text-anchor="middle" x="360.09" y="-318.8" font-family="Times,serif" font-size="14.00">previous</text>
</g>
<!-- http://purl.org/dj/kaggle/faceting&#45;with&#45;seaborn/activity/&#45;1425692458230222553&#45;&gt;http://purl.org/dj/kaggle/faceting&#45;with&#45;seaborn/activity/&#45;3382991258235098482 -->
<g id="edge17" class="edge">
<title>http://purl.org/dj/kaggle/faceting&#45;with&#45;seaborn/activity/&#45;1425692458230222553&#45;&gt;http://purl.org/dj/kaggle/faceting&#45;with&#45;seaborn/activity/&#45;3382991258235098482</title>
<path fill="none" stroke="black" d="M842.59,-434.8C842.59,-423.16 842.59,-407.55 842.59,-394.24"/>
<polygon fill="black" stroke="black" points="846.09,-394.18 842.59,-384.18 839.09,-394.18 846.09,-394.18"/>
<text text-anchor="middle" x="866.09" y="-405.8" font-family="Times,serif" font-size="14.00">previous</text>
</g>
<!-- http://purl.org/dj/kaggle/faceting&#45;with&#45;seaborn/activity/&#45;1425692458230222553&#45;&gt;http://purl.org/dj/kaggle/faceting&#45;with&#45;seaborn/activity/&#45;6008150111831862425 -->
<g id="edge19" class="edge">
<title>http://purl.org/dj/kaggle/faceting&#45;with&#45;seaborn/activity/&#45;1425692458230222553&#45;&gt;http://purl.org/dj/kaggle/faceting&#45;with&#45;seaborn/activity/&#45;6008150111831862425</title>
<path fill="none" stroke="black" d="M884.19,-435.64C916.79,-422.5 963.07,-403.15 1002.59,-384 1132.53,-321.02 1152.9,-280.06 1287.59,-228 1306.08,-220.85 1326.48,-214.85 1346,-209.94"/>
<polygon fill="black" stroke="black" points="1346.91,-213.32 1355.8,-207.55 1345.25,-206.52 1346.91,-213.32"/>
<text text-anchor="middle" x="1145.09" y="-318.8" font-family="Times,serif" font-size="14.00">previous</text>
</g>
<!-- http://purl.org/dj/kaggle/faceting&#45;with&#45;seaborn/activity/&#45;1425692458230222553&#45;&gt;http://purl.org/dj/kaggle/faceting&#45;with&#45;seaborn/activity/&#45;7496701945307457727 -->
<g id="edge18" class="edge">
<title>http://purl.org/dj/kaggle/faceting&#45;with&#45;seaborn/activity/&#45;1425692458230222553&#45;&gt;http://purl.org/dj/kaggle/faceting&#45;with&#45;seaborn/activity/&#45;7496701945307457727</title>
<path fill="none" stroke="black" d="M784.08,-436.51C729.47,-422.05 647.94,-400.46 590.26,-385.19"/>
<polygon fill="black" stroke="black" points="591.06,-381.78 580.5,-382.6 589.27,-388.54 591.06,-381.78"/>
<text text-anchor="middle" x="725.09" y="-405.8" font-family="Times,serif" font-size="14.00">previous</text>
</g>
<!-- http://purl.org/dj/kaggle/faceting&#45;with&#45;seaborn/activity/4998616583145395489 -->
<g id="node11" class="node">
<title>http://purl.org/dj/kaggle/faceting&#45;with&#45;seaborn/activity/4998616583145395489</title>
<ellipse fill="none" stroke="black" cx="806.59" cy="-627" rx="142.97" ry="18"/>
<text text-anchor="middle" x="806.59" y="-623.3" font-family="Times,serif" font-size="14.00">4998616583145395489 (Preparation)</text>
</g>
<!-- http://purl.org/dj/kaggle/faceting&#45;with&#45;seaborn/activity/4998616583145395489&#45;&gt;http://purl.org/dj/kaggle/faceting&#45;with&#45;seaborn/activity/&#45;6008150111831862425 -->
<g id="edge20" class="edge">
<title>http://purl.org/dj/kaggle/faceting&#45;with&#45;seaborn/activity/4998616583145395489&#45;&gt;http://purl.org/dj/kaggle/faceting&#45;with&#45;seaborn/activity/&#45;6008150111831862425</title>
<path fill="none" stroke="black" d="M908.58,-614.34C960.86,-607.68 1018.66,-599.08 1043.59,-591 1123.2,-565.2 1140.82,-550.22 1210.59,-504 1321.91,-430.26 1395.42,-280.2 1421.76,-219.43"/>
<polygon fill="black" stroke="black" points="1425.02,-220.72 1425.72,-210.14 1418.58,-217.97 1425.02,-220.72"/>
<text text-anchor="middle" x="1338.09" y="-405.8" font-family="Times,serif" font-size="14.00">previous</text>
</g>
<!-- http://purl.org/dj/kaggle/faceting&#45;with&#45;seaborn/activity/4998616583145395489&#45;&gt;http://purl.org/dj/kaggle/faceting&#45;with&#45;seaborn/activity/&#45;52035999303909217 -->
<g id="edge21" class="edge">
<title>http://purl.org/dj/kaggle/faceting&#45;with&#45;seaborn/activity/4998616583145395489&#45;&gt;http://purl.org/dj/kaggle/faceting&#45;with&#45;seaborn/activity/&#45;52035999303909217</title>
<path fill="none" stroke="black" d="M813.87,-608.8C818.9,-596.93 825.68,-580.93 831.39,-567.45"/>
<polygon fill="black" stroke="black" points="834.64,-568.75 835.31,-558.18 828.19,-566.02 834.64,-568.75"/>
<text text-anchor="middle" x="850.09" y="-579.8" font-family="Times,serif" font-size="14.00">previous</text>
</g>
<!-- http://purl.org/dj/kaggle/faceting&#45;with&#45;seaborn/activity/6454128249882588815 -->
<g id="node12" class="node">
<title>http://purl.org/dj/kaggle/faceting&#45;with&#45;seaborn/activity/6454128249882588815</title>
<ellipse fill="none" stroke="black" cx="756.59" cy="-192" rx="148.67" ry="18"/>
<text text-anchor="middle" x="756.59" y="-188.3" font-family="Times,serif" font-size="14.00">6454128249882588815 (Visualisation)</text>
</g>
<!-- http://purl.org/dj/kaggle/faceting&#45;with&#45;seaborn/activity/6454128249882588815&#45;&gt;http://purl.org/dj/kaggle/faceting&#45;with&#45;seaborn/activity/5340136226050512760 -->
<g id="edge22" class="edge">
<title>http://purl.org/dj/kaggle/faceting&#45;with&#45;seaborn/activity/6454128249882588815&#45;&gt;http://purl.org/dj/kaggle/faceting&#45;with&#45;seaborn/activity/5340136226050512760</title>
<path fill="none" stroke="black" d="M738.78,-173.8C725.69,-161.16 707.74,-143.82 693.27,-129.85"/>
<polygon fill="black" stroke="black" points="695.69,-127.32 686.07,-122.89 690.83,-132.35 695.69,-127.32"/>
<text text-anchor="middle" x="742.09" y="-144.8" font-family="Times,serif" font-size="14.00">previous</text>
</g>
<!-- http://purl.org/dj/kaggle/faceting&#45;with&#45;seaborn/activity/6642780427699819829 -->
<g id="node13" class="node">
<title>http://purl.org/dj/kaggle/faceting&#45;with&#45;seaborn/activity/6642780427699819829</title>
<ellipse fill="none" stroke="black" cx="1110.59" cy="-627" rx="142.97" ry="18"/>
<text text-anchor="middle" x="1110.59" y="-623.3" font-family="Times,serif" font-size="14.00">6642780427699819829 (Preparation)</text>
</g>
<!-- http://purl.org/dj/kaggle/faceting&#45;with&#45;seaborn/activity/6642780427699819829&#45;&gt;http://purl.org/dj/kaggle/faceting&#45;with&#45;seaborn/activity/&#45;6008150111831862425 -->
<g id="edge23" class="edge">
<title>http://purl.org/dj/kaggle/faceting&#45;with&#45;seaborn/activity/6642780427699819829&#45;&gt;http://purl.org/dj/kaggle/faceting&#45;with&#45;seaborn/activity/&#45;6008150111831862425</title>
<path fill="none" stroke="black" d="M1218.62,-615.18C1252.75,-609.8 1284.89,-602.01 1297.59,-591 1411.63,-492.1 1429.51,-293.13 1432.18,-220.41"/>
<polygon fill="black" stroke="black" points="1435.68,-220.34 1432.48,-210.24 1428.69,-220.13 1435.68,-220.34"/>
<text text-anchor="middle" x="1428.09" y="-405.8" font-family="Times,serif" font-size="14.00">previous</text>
</g>
<!-- http://purl.org/dj/kaggle/faceting&#45;with&#45;seaborn/activity/6642780427699819829&#45;&gt;http://purl.org/dj/kaggle/faceting&#45;with&#45;seaborn/activity/&#45;52035999303909217 -->
<g id="edge24" class="edge">
<title>http://purl.org/dj/kaggle/faceting&#45;with&#45;seaborn/activity/6642780427699819829&#45;&gt;http://purl.org/dj/kaggle/faceting&#45;with&#45;seaborn/activity/&#45;52035999303909217</title>
<path fill="none" stroke="black" d="M1060.49,-610.11C1015.7,-595.91 949.99,-575.06 902.44,-559.98"/>
<polygon fill="black" stroke="black" points="903.48,-556.64 892.89,-556.95 901.36,-563.31 903.48,-556.64"/>
<text text-anchor="middle" x="1016.09" y="-579.8" font-family="Times,serif" font-size="14.00">previous</text>
</g>
<!-- http://purl.org/dj/kaggle/faceting&#45;with&#45;seaborn/activity/&#45;951390216314948606 -->
<g id="node14" class="node">
<title>http://purl.org/dj/kaggle/faceting&#45;with&#45;seaborn/activity/&#45;951390216314948606</title>
<ellipse fill="none" stroke="black" cx="1413.59" cy="-627" rx="141.88" ry="18"/>
<text text-anchor="middle" x="1413.59" y="-623.3" font-family="Times,serif" font-size="14.00">&#45;951390216314948606 (Preparation)</text>
</g>
<!-- http://purl.org/dj/kaggle/faceting&#45;with&#45;seaborn/activity/&#45;951390216314948606&#45;&gt;http://purl.org/dj/kaggle/faceting&#45;with&#45;seaborn/activity/&#45;6008150111831862425 -->
<g id="edge25" class="edge">
<title>http://purl.org/dj/kaggle/faceting&#45;with&#45;seaborn/activity/&#45;951390216314948606&#45;&gt;http://purl.org/dj/kaggle/faceting&#45;with&#45;seaborn/activity/&#45;6008150111831862425</title>
<path fill="none" stroke="black" d="M1437.79,-609.07C1456.62,-593.72 1479.59,-569.21 1479.59,-541 1479.59,-541 1479.59,-541 1479.59,-278 1479.59,-255.95 1467.32,-234.24 1455.32,-218.29"/>
<polygon fill="black" stroke="black" points="1457.73,-215.69 1448.76,-210.05 1452.25,-220.05 1457.73,-215.69"/>
<text text-anchor="middle" x="1503.09" y="-405.8" font-family="Times,serif" font-size="14.00">previous</text>
</g>
<!-- http://purl.org/dj/kaggle/faceting&#45;with&#45;seaborn/activity/&#45;951390216314948606&#45;&gt;http://purl.org/dj/kaggle/faceting&#45;with&#45;seaborn/activity/&#45;52035999303909217 -->
<g id="edge26" class="edge">
<title>http://purl.org/dj/kaggle/faceting&#45;with&#45;seaborn/activity/&#45;951390216314948606&#45;&gt;http://purl.org/dj/kaggle/faceting&#45;with&#45;seaborn/activity/&#45;52035999303909217</title>
<path fill="none" stroke="black" d="M1325.31,-612.86C1221.34,-597.38 1049.13,-571.75 940.96,-555.64"/>
<polygon fill="black" stroke="black" points="941.43,-552.18 931.02,-554.16 940.4,-559.1 941.43,-552.18"/>
<text text-anchor="middle" x="1185.09" y="-579.8" font-family="Times,serif" font-size="14.00">previous</text>
</g>
<!-- http://purl.org/dj/kaggle/faceting&#45;with&#45;seaborn/activity/&#45;8347899786877661734 -->
<g id="node15" class="node">
<title>http://purl.org/dj/kaggle/faceting&#45;with&#45;seaborn/activity/&#45;8347899786877661734</title>
<ellipse fill="none" stroke="black" cx="1074.59" cy="-192" rx="151.37" ry="18"/>
<text text-anchor="middle" x="1074.59" y="-188.3" font-family="Times,serif" font-size="14.00">&#45;8347899786877661734 (Visualisation)</text>
</g>
<!-- http://purl.org/dj/kaggle/faceting&#45;with&#45;seaborn/activity/&#45;8347899786877661734&#45;&gt;http://purl.org/dj/kaggle/faceting&#45;with&#45;seaborn/activity/5340136226050512760 -->
<g id="edge27" class="edge">
<title>http://purl.org/dj/kaggle/faceting&#45;with&#45;seaborn/activity/&#45;8347899786877661734&#45;&gt;http://purl.org/dj/kaggle/faceting&#45;with&#45;seaborn/activity/5340136226050512760</title>
<path fill="none" stroke="black" d="M1003.4,-176.1C931.51,-161.05 820.75,-137.86 746.53,-122.32"/>
<polygon fill="black" stroke="black" points="746.81,-118.8 736.31,-120.18 745.38,-125.65 746.81,-118.8"/>
<text text-anchor="middle" x="919.09" y="-144.8" font-family="Times,serif" font-size="14.00">previous</text>
</g>
<!-- http://purl.org/dj/kaggle/faceting&#45;with&#45;seaborn/activity/&#45;6450036503492541452 -->
<g id="node16" class="node">
<title>http://purl.org/dj/kaggle/faceting&#45;with&#45;seaborn/activity/&#45;6450036503492541452</title>
<ellipse fill="none" stroke="black" cx="499.59" cy="-627" rx="145.67" ry="18"/>
<text text-anchor="middle" x="499.59" y="-623.3" font-family="Times,serif" font-size="14.00">&#45;6450036503492541452 (Preparation)</text>
</g>
<!-- http://purl.org/dj/kaggle/faceting&#45;with&#45;seaborn/activity/&#45;6450036503492541452&#45;&gt;http://purl.org/dj/kaggle/faceting&#45;with&#45;seaborn/activity/&#45;52035999303909217 -->
<g id="edge28" class="edge">
<title>http://purl.org/dj/kaggle/faceting&#45;with&#45;seaborn/activity/&#45;6450036503492541452&#45;&gt;http://purl.org/dj/kaggle/faceting&#45;with&#45;seaborn/activity/&#45;52035999303909217</title>
<path fill="none" stroke="black" d="M561.7,-610.61C620.59,-596.01 709,-574.1 770.86,-558.77"/>
<polygon fill="black" stroke="black" points="772.07,-562.08 780.93,-556.28 770.39,-555.29 772.07,-562.08"/>
<text text-anchor="middle" x="716.09" y="-579.8" font-family="Times,serif" font-size="14.00">previous</text>
</g>
<!-- http://purl.org/dj/kaggle/faceting&#45;with&#45;seaborn/activity/&#45;3059798991568424165 -->
<g id="node17" class="node">
<title>http://purl.org/dj/kaggle/faceting&#45;with&#45;seaborn/activity/&#45;3059798991568424165</title>
<ellipse fill="none" stroke="black" cx="1718.59" cy="-627" rx="145.67" ry="18"/>
<text text-anchor="middle" x="1718.59" y="-623.3" font-family="Times,serif" font-size="14.00">&#45;3059798991568424165 (Preparation)</text>
</g>
<!-- http://purl.org/dj/kaggle/faceting&#45;with&#45;seaborn/activity/&#45;3059798991568424165&#45;&gt;http://purl.org/dj/kaggle/faceting&#45;with&#45;seaborn/activity/5340136226050512760 -->
<g id="edge29" class="edge">
<title>http://purl.org/dj/kaggle/faceting&#45;with&#45;seaborn/activity/&#45;3059798991568424165&#45;&gt;http://purl.org/dj/kaggle/faceting&#45;with&#45;seaborn/activity/5340136226050512760</title>
<path fill="none" stroke="black" d="M1672.59,-609.92C1643.59,-596.52 1611.59,-574.21 1611.59,-541 1611.59,-541 1611.59,-541 1611.59,-191 1611.59,-115.55 1910.54,-194.91 1377.59,-141 1177.17,-120.73 943.65,-112.07 801,-108.47"/>
<polygon fill="black" stroke="black" points="800.97,-104.97 790.88,-108.22 800.79,-111.96 800.97,-104.97"/>
<text text-anchor="middle" x="1635.09" y="-362.3" font-family="Times,serif" font-size="14.00">previous</text>
</g>
<!-- http://purl.org/dj/kaggle/faceting&#45;with&#45;seaborn/activity/&#45;3059798991568424165&#45;&gt;http://purl.org/dj/kaggle/faceting&#45;with&#45;seaborn/activity/&#45;6008150111831862425 -->
<g id="edge30" class="edge">
<title>http://purl.org/dj/kaggle/faceting&#45;with&#45;seaborn/activity/&#45;3059798991568424165&#45;&gt;http://purl.org/dj/kaggle/faceting&#45;with&#45;seaborn/activity/&#45;6008150111831862425</title>
<path fill="none" stroke="black" d="M1626.67,-613.03C1587.03,-601.73 1549.59,-580.58 1549.59,-541 1549.59,-541 1549.59,-541 1549.59,-278 1549.59,-247.32 1522.93,-226.57 1495.07,-213.25"/>
<polygon fill="black" stroke="black" points="1496.17,-209.9 1485.61,-209.01 1493.31,-216.29 1496.17,-209.9"/>
<text text-anchor="middle" x="1573.09" y="-405.8" font-family="Times,serif" font-size="14.00">previous</text>
</g>
<!-- http://purl.org/dj/kaggle/faceting&#45;with&#45;seaborn/activity/&#45;3059798991568424165&#45;&gt;http://purl.org/dj/kaggle/faceting&#45;with&#45;seaborn/activity/&#45;52035999303909217 -->
<g id="edge31" class="edge">
<title>http://purl.org/dj/kaggle/faceting&#45;with&#45;seaborn/activity/&#45;3059798991568424165&#45;&gt;http://purl.org/dj/kaggle/faceting&#45;with&#45;seaborn/activity/&#45;52035999303909217</title>
<path fill="none" stroke="black" d="M1615.06,-614.34C1598.2,-612.51 1580.91,-610.67 1564.59,-609 1354.36,-587.5 1109.43,-564.96 965.68,-551.99"/>
<polygon fill="black" stroke="black" points="965.78,-548.48 955.51,-551.07 965.15,-555.45 965.78,-548.48"/>
<text text-anchor="middle" x="1389.09" y="-579.8" font-family="Times,serif" font-size="14.00">previous</text>
</g>
<!-- http://purl.org/dj/kaggle/faceting&#45;with&#45;seaborn/activity/&#45;8084759983742385820 -->
<g id="node18" class="node">
<title>http://purl.org/dj/kaggle/faceting&#45;with&#45;seaborn/activity/&#45;8084759983742385820</title>
<ellipse fill="none" stroke="black" cx="145.59" cy="-627" rx="145.67" ry="18"/>
<text text-anchor="middle" x="145.59" y="-623.3" font-family="Times,serif" font-size="14.00">&#45;8084759983742385820 (Preparation)</text>
</g>
<!-- http://purl.org/dj/kaggle/faceting&#45;with&#45;seaborn/activity/&#45;8084759983742385820&#45;&gt;http://purl.org/dj/kaggle/faceting&#45;with&#45;seaborn/activity/5340136226050512760 -->
<g id="edge32" class="edge">
<title>http://purl.org/dj/kaggle/faceting&#45;with&#45;seaborn/activity/&#45;8084759983742385820&#45;&gt;http://purl.org/dj/kaggle/faceting&#45;with&#45;seaborn/activity/5340136226050512760</title>
<path fill="none" stroke="black" d="M73.17,-611.23C37.31,-599.24 1.59,-578.01 1.59,-541 1.59,-541 1.59,-541 1.59,-191 1.59,-137.5 343.59,-117.04 537.8,-109.73"/>
<polygon fill="black" stroke="black" points="537.93,-113.23 547.8,-109.36 537.68,-106.23 537.93,-113.23"/>
<text text-anchor="middle" x="25.09" y="-362.3" font-family="Times,serif" font-size="14.00">previous</text>
</g>
<!-- http://purl.org/dj/kaggle/faceting&#45;with&#45;seaborn/activity/&#45;8084759983742385820&#45;&gt;http://purl.org/dj/kaggle/faceting&#45;with&#45;seaborn/activity/&#45;52035999303909217 -->
<g id="edge33" class="edge">
<title>http://purl.org/dj/kaggle/faceting&#45;with&#45;seaborn/activity/&#45;8084759983742385820&#45;&gt;http://purl.org/dj/kaggle/faceting&#45;with&#45;seaborn/activity/&#45;52035999303909217</title>
<path fill="none" stroke="black" d="M245.45,-613.82C374.86,-598.04 599.71,-570.62 733.49,-554.3"/>
<polygon fill="black" stroke="black" points="734.25,-557.74 743.75,-553.05 733.4,-550.79 734.25,-557.74"/>
<text text-anchor="middle" x="560.09" y="-579.8" font-family="Times,serif" font-size="14.00">previous</text>
</g>
</g>
</svg>
