<?xml version="1.0" encoding="UTF-8" standalone="no"?>
<!DOCTYPE svg PUBLIC "-//W3C//DTD SVG 1.1//EN"
 "http://www.w3.org/Graphics/SVG/1.1/DTD/svg11.dtd">
<!-- Generated by graphviz version 2.47.1 (20210417.1919)
 -->
<!-- Pages: 1 -->
<svg width="1508pt" height="479pt"
 viewBox="0.00 0.00 1508.29 479.00" xmlns="http://www.w3.org/2000/svg" xmlns:xlink="http://www.w3.org/1999/xlink">
<g id="graph0" class="graph" transform="scale(1 1) rotate(0) translate(4 475)">
<polygon fill="white" stroke="transparent" points="-4,4 -4,-475 1504.29,-475 1504.29,4 -4,4"/>
<!-- http://purl.org/dj/kaggle/feature&#45;engineering/activity/&#45;5381978887273107406 -->
<g id="node1" class="node">
<title>http://purl.org/dj/kaggle/feature&#45;engineering/activity/&#45;5381978887273107406</title>
<ellipse fill="none" stroke="black" cx="560.29" cy="-279" rx="145.67" ry="18"/>
<text text-anchor="middle" x="560.29" y="-275.3" font-family="Times,serif" font-size="14.00">&#45;5381978887273107406 (Preparation)</text>
</g>
<!-- http://purl.org/dj/kaggle/feature&#45;engineering/activity/3808159236957069728 -->
<g id="node2" class="node">
<title>http://purl.org/dj/kaggle/feature&#45;engineering/activity/3808159236957069728</title>
<ellipse fill="none" stroke="black" cx="448.29" cy="-192" rx="141.88" ry="18"/>
<text text-anchor="middle" x="448.29" y="-188.3" font-family="Times,serif" font-size="14.00">3808159236957069728 (Movement)</text>
</g>
<!-- http://purl.org/dj/kaggle/feature&#45;engineering/activity/&#45;5381978887273107406&#45;&gt;http://purl.org/dj/kaggle/feature&#45;engineering/activity/3808159236957069728 -->
<g id="edge1" class="edge">
<title>http://purl.org/dj/kaggle/feature&#45;engineering/activity/&#45;5381978887273107406&#45;&gt;http://purl.org/dj/kaggle/feature&#45;engineering/activity/3808159236957069728</title>
<path fill="none" stroke="black" d="M538.16,-261.21C521.17,-248.31 497.51,-230.36 478.73,-216.1"/>
<polygon fill="black" stroke="black" points="480.83,-213.31 470.75,-210.05 476.6,-218.88 480.83,-213.31"/>
<text text-anchor="middle" x="534.79" y="-231.8" font-family="Times,serif" font-size="14.00">previous</text>
</g>
<!-- http://purl.org/dj/kaggle/feature&#45;engineering/activity/&#45;1264515187269111770 -->
<g id="node3" class="node">
<title>http://purl.org/dj/kaggle/feature&#45;engineering/activity/&#45;1264515187269111770</title>
<ellipse fill="none" stroke="black" cx="144.29" cy="-192" rx="144.07" ry="18"/>
<text text-anchor="middle" x="144.29" y="-188.3" font-family="Times,serif" font-size="14.00">&#45;1264515187269111770 (Movement)</text>
</g>
<!-- http://purl.org/dj/kaggle/feature&#45;engineering/activity/&#45;5381978887273107406&#45;&gt;http://purl.org/dj/kaggle/feature&#45;engineering/activity/&#45;1264515187269111770 -->
<g id="edge2" class="edge">
<title>http://purl.org/dj/kaggle/feature&#45;engineering/activity/&#45;5381978887273107406&#45;&gt;http://purl.org/dj/kaggle/feature&#45;engineering/activity/&#45;1264515187269111770</title>
<path fill="none" stroke="black" d="M488.3,-263.29C415.3,-248.38 302.5,-225.33 226.15,-209.73"/>
<polygon fill="black" stroke="black" points="226.59,-206.24 216.09,-207.67 225.19,-213.1 226.59,-206.24"/>
<text text-anchor="middle" x="400.79" y="-231.8" font-family="Times,serif" font-size="14.00">previous</text>
</g>
<!-- http://purl.org/dj/kaggle/feature&#45;engineering/activity/&#45;317875298003899126 -->
<g id="node4" class="node">
<title>http://purl.org/dj/kaggle/feature&#45;engineering/activity/&#45;317875298003899126</title>
<ellipse fill="none" stroke="black" cx="747.29" cy="-192" rx="139.98" ry="18"/>
<text text-anchor="middle" x="747.29" y="-188.3" font-family="Times,serif" font-size="14.00">&#45;317875298003899126 (Movement)</text>
</g>
<!-- http://purl.org/dj/kaggle/feature&#45;engineering/activity/&#45;5381978887273107406&#45;&gt;http://purl.org/dj/kaggle/feature&#45;engineering/activity/&#45;317875298003899126 -->
<g id="edge3" class="edge">
<title>http://purl.org/dj/kaggle/feature&#45;engineering/activity/&#45;5381978887273107406&#45;&gt;http://purl.org/dj/kaggle/feature&#45;engineering/activity/&#45;317875298003899126</title>
<path fill="none" stroke="black" d="M596.79,-261.41C626.87,-247.73 669.69,-228.27 701.97,-213.6"/>
<polygon fill="black" stroke="black" points="703.54,-216.73 711.2,-209.4 700.65,-210.36 703.54,-216.73"/>
<text text-anchor="middle" x="688.79" y="-231.8" font-family="Times,serif" font-size="14.00">previous</text>
</g>
<!-- http://purl.org/dj/kaggle/feature&#45;engineering/activity/&#45;5965892455643432638 -->
<g id="node5" class="node">
<title>http://purl.org/dj/kaggle/feature&#45;engineering/activity/&#45;5965892455643432638</title>
<ellipse fill="none" stroke="black" cx="923.29" cy="-105" rx="126.98" ry="18"/>
<text text-anchor="middle" x="923.29" y="-101.3" font-family="Times,serif" font-size="14.00">&#45;5965892455643432638 (Reuse)</text>
</g>
<!-- http://purl.org/dj/kaggle/feature&#45;engineering/activity/3808159236957069728&#45;&gt;http://purl.org/dj/kaggle/feature&#45;engineering/activity/&#45;5965892455643432638 -->
<g id="edge4" class="edge">
<title>http://purl.org/dj/kaggle/feature&#45;engineering/activity/3808159236957069728&#45;&gt;http://purl.org/dj/kaggle/feature&#45;engineering/activity/&#45;5965892455643432638</title>
<path fill="none" stroke="black" d="M526.72,-176.96C612.48,-161.62 749.45,-137.11 837.87,-121.28"/>
<polygon fill="black" stroke="black" points="838.65,-124.7 847.87,-119.49 837.41,-117.81 838.65,-124.7"/>
<text text-anchor="middle" x="737.79" y="-144.8" font-family="Times,serif" font-size="14.00">previous</text>
</g>
<!-- http://purl.org/dj/kaggle/feature&#45;engineering/activity/&#45;1264515187269111770&#45;&gt;http://purl.org/dj/kaggle/feature&#45;engineering/activity/&#45;5965892455643432638 -->
<g id="edge5" class="edge">
<title>http://purl.org/dj/kaggle/feature&#45;engineering/activity/&#45;1264515187269111770&#45;&gt;http://purl.org/dj/kaggle/feature&#45;engineering/activity/&#45;5965892455643432638</title>
<path fill="none" stroke="black" d="M247.98,-179.44C264.48,-177.62 281.35,-175.75 297.29,-174 479.08,-154.03 690.61,-131.12 815.38,-117.64"/>
<polygon fill="black" stroke="black" points="816.12,-121.08 825.69,-116.53 815.37,-114.12 816.12,-121.08"/>
<text text-anchor="middle" x="612.79" y="-144.8" font-family="Times,serif" font-size="14.00">previous</text>
</g>
<!-- http://purl.org/dj/kaggle/feature&#45;engineering -->
<g id="node6" class="node">
<title>http://purl.org/dj/kaggle/feature&#45;engineering</title>
<ellipse fill="none" stroke="black" cx="194.29" cy="-18" rx="178.97" ry="18"/>
<text text-anchor="middle" x="194.29" y="-14.3" font-family="Times,serif" font-size="14.00">feature&#45;engineering (feature&#45;engineering.ipynb)</text>
</g>
<!-- http://purl.org/dj/kaggle/feature&#45;engineering/activity/&#45;1264515187269111770&#45;&gt;http://purl.org/dj/kaggle/feature&#45;engineering -->
<g id="edge6" class="edge">
<title>http://purl.org/dj/kaggle/feature&#45;engineering/activity/&#45;1264515187269111770&#45;&gt;http://purl.org/dj/kaggle/feature&#45;engineering</title>
<path fill="none" stroke="black" d="M149.26,-173.88C157.99,-143.87 176.1,-81.58 186.49,-45.81"/>
<polygon fill="black" stroke="black" points="189.9,-46.63 189.33,-36.05 183.18,-44.68 189.9,-46.63"/>
<text text-anchor="middle" x="197.79" y="-101.3" font-family="Times,serif" font-size="14.00">previous</text>
</g>
<!-- http://purl.org/dj/kaggle/feature&#45;engineering/activity/&#45;317875298003899126&#45;&gt;http://purl.org/dj/kaggle/feature&#45;engineering/activity/&#45;5965892455643432638 -->
<g id="edge7" class="edge">
<title>http://purl.org/dj/kaggle/feature&#45;engineering/activity/&#45;317875298003899126&#45;&gt;http://purl.org/dj/kaggle/feature&#45;engineering/activity/&#45;5965892455643432638</title>
<path fill="none" stroke="black" d="M781.64,-174.41C809.83,-160.79 849.91,-141.44 880.24,-126.79"/>
<polygon fill="black" stroke="black" points="881.84,-129.9 889.32,-122.4 878.79,-123.6 881.84,-129.9"/>
<text text-anchor="middle" x="869.79" y="-144.8" font-family="Times,serif" font-size="14.00">previous</text>
</g>
<!-- http://purl.org/dj/kaggle/feature&#45;engineering/activity/&#45;5965892455643432638&#45;&gt;http://purl.org/dj/kaggle/feature&#45;engineering/activity/&#45;5381978887273107406 -->
<g id="edge8" class="edge">
<title>http://purl.org/dj/kaggle/feature&#45;engineering/activity/&#45;5965892455643432638&#45;&gt;http://purl.org/dj/kaggle/feature&#45;engineering/activity/&#45;5381978887273107406</title>
<path fill="none" stroke="black" d="M924.01,-123.11C923.99,-146.27 920.26,-187.3 896.29,-210 865.87,-238.81 767.3,-256.49 684.73,-266.58"/>
<polygon fill="black" stroke="black" points="684.26,-263.11 674.75,-267.77 685.09,-270.06 684.26,-263.11"/>
<text text-anchor="middle" x="939.79" y="-188.3" font-family="Times,serif" font-size="14.00">previous</text>
</g>
<!-- http://purl.org/dj/kaggle/feature&#45;engineering/activity/&#45;5965892455643432638&#45;&gt;http://purl.org/dj/kaggle/feature&#45;engineering -->
<g id="edge9" class="edge">
<title>http://purl.org/dj/kaggle/feature&#45;engineering/activity/&#45;5965892455643432638&#45;&gt;http://purl.org/dj/kaggle/feature&#45;engineering</title>
<path fill="none" stroke="black" d="M828.73,-92.97C697.71,-77.7 460.83,-50.08 316.52,-33.25"/>
<polygon fill="black" stroke="black" points="316.63,-29.74 306.29,-32.06 315.82,-36.69 316.63,-29.74"/>
<text text-anchor="middle" x="626.79" y="-57.8" font-family="Times,serif" font-size="14.00">previous</text>
</g>
<!-- http://purl.org/dj/kaggle/feature&#45;engineering/activity/&#45;8830061016225930118 -->
<g id="node7" class="node">
<title>http://purl.org/dj/kaggle/feature&#45;engineering/activity/&#45;8830061016225930118</title>
<ellipse fill="none" stroke="black" cx="1134.29" cy="-279" rx="144.07" ry="18"/>
<text text-anchor="middle" x="1134.29" y="-275.3" font-family="Times,serif" font-size="14.00">&#45;8830061016225930118 (Movement)</text>
</g>
<!-- http://purl.org/dj/kaggle/feature&#45;engineering/activity/&#45;8830061016225930118&#45;&gt;http://purl.org/dj/kaggle/feature&#45;engineering/activity/&#45;5965892455643432638 -->
<g id="edge10" class="edge">
<title>http://purl.org/dj/kaggle/feature&#45;engineering/activity/&#45;8830061016225930118&#45;&gt;http://purl.org/dj/kaggle/feature&#45;engineering/activity/&#45;5965892455643432638</title>
<path fill="none" stroke="black" d="M1098.52,-261.45C1073.82,-249.12 1040.95,-230.87 1015.29,-210 986.43,-186.53 958.94,-153.57 941.65,-131.09"/>
<polygon fill="black" stroke="black" points="944.37,-128.89 935.54,-123.03 938.79,-133.11 944.37,-128.89"/>
<text text-anchor="middle" x="1038.79" y="-188.3" font-family="Times,serif" font-size="14.00">previous</text>
</g>
<!-- http://purl.org/dj/kaggle/feature&#45;engineering/activity/3175982504796608244 -->
<g id="node8" class="node">
<title>http://purl.org/dj/kaggle/feature&#45;engineering/activity/3175982504796608244</title>
<ellipse fill="none" stroke="black" cx="1214.29" cy="-192" rx="142.97" ry="18"/>
<text text-anchor="middle" x="1214.29" y="-188.3" font-family="Times,serif" font-size="14.00">3175982504796608244 (Preparation)</text>
</g>
<!-- http://purl.org/dj/kaggle/feature&#45;engineering/activity/&#45;8830061016225930118&#45;&gt;http://purl.org/dj/kaggle/feature&#45;engineering/activity/3175982504796608244 -->
<g id="edge11" class="edge">
<title>http://purl.org/dj/kaggle/feature&#45;engineering/activity/&#45;8830061016225930118&#45;&gt;http://purl.org/dj/kaggle/feature&#45;engineering/activity/3175982504796608244</title>
<path fill="none" stroke="black" d="M1150.48,-260.8C1162.19,-248.36 1178.18,-231.36 1191.22,-217.5"/>
<polygon fill="black" stroke="black" points="1193.82,-219.86 1198.12,-210.18 1188.72,-215.06 1193.82,-219.86"/>
<text text-anchor="middle" x="1201.79" y="-231.8" font-family="Times,serif" font-size="14.00">previous</text>
</g>
<!-- http://purl.org/dj/kaggle/feature&#45;engineering/activity/3175982504796608244&#45;&gt;http://purl.org/dj/kaggle/feature&#45;engineering/activity/&#45;5965892455643432638 -->
<g id="edge12" class="edge">
<title>http://purl.org/dj/kaggle/feature&#45;engineering/activity/3175982504796608244&#45;&gt;http://purl.org/dj/kaggle/feature&#45;engineering/activity/&#45;5965892455643432638</title>
<path fill="none" stroke="black" d="M1160.57,-175.31C1111.2,-160.89 1038,-139.51 985.98,-124.31"/>
<polygon fill="black" stroke="black" points="986.78,-120.9 976.2,-121.45 984.81,-127.62 986.78,-120.9"/>
<text text-anchor="middle" x="1108.79" y="-144.8" font-family="Times,serif" font-size="14.00">previous</text>
</g>
<!-- http://purl.org/dj/kaggle/feature&#45;engineering/activity/4126094622295885506 -->
<g id="node9" class="node">
<title>http://purl.org/dj/kaggle/feature&#45;engineering/activity/4126094622295885506</title>
<ellipse fill="none" stroke="black" cx="1260.29" cy="-453" rx="141.88" ry="18"/>
<text text-anchor="middle" x="1260.29" y="-449.3" font-family="Times,serif" font-size="14.00">4126094622295885506 (Movement)</text>
</g>
<!-- http://purl.org/dj/kaggle/feature&#45;engineering/activity/4126094622295885506&#45;&gt;http://purl.org/dj/kaggle/feature&#45;engineering/activity/&#45;5965892455643432638 -->
<g id="edge13" class="edge">
<title>http://purl.org/dj/kaggle/feature&#45;engineering/activity/4126094622295885506&#45;&gt;http://purl.org/dj/kaggle/feature&#45;engineering/activity/&#45;5965892455643432638</title>
<path fill="none" stroke="black" d="M1318.4,-436.45C1351.04,-423.81 1385.29,-402.17 1385.29,-367 1385.29,-367 1385.29,-367 1385.29,-191 1385.29,-155.84 1175.68,-129.48 1038.83,-116.02"/>
<polygon fill="black" stroke="black" points="1038.99,-112.52 1028.7,-115.03 1038.31,-119.49 1038.99,-112.52"/>
<text text-anchor="middle" x="1408.79" y="-275.3" font-family="Times,serif" font-size="14.00">previous</text>
</g>
<!-- http://purl.org/dj/kaggle/feature&#45;engineering/activity/1121911044698201827 -->
<g id="node10" class="node">
<title>http://purl.org/dj/kaggle/feature&#45;engineering/activity/1121911044698201827</title>
<ellipse fill="none" stroke="black" cx="1134.29" cy="-366" rx="142.97" ry="18"/>
<text text-anchor="middle" x="1134.29" y="-362.3" font-family="Times,serif" font-size="14.00">1121911044698201827 (Preparation)</text>
</g>
<!-- http://purl.org/dj/kaggle/feature&#45;engineering/activity/4126094622295885506&#45;&gt;http://purl.org/dj/kaggle/feature&#45;engineering/activity/1121911044698201827 -->
<g id="edge14" class="edge">
<title>http://purl.org/dj/kaggle/feature&#45;engineering/activity/4126094622295885506&#45;&gt;http://purl.org/dj/kaggle/feature&#45;engineering/activity/1121911044698201827</title>
<path fill="none" stroke="black" d="M1235.39,-435.21C1215.98,-422.11 1188.83,-403.8 1167.55,-389.44"/>
<polygon fill="black" stroke="black" points="1169.38,-386.45 1159.13,-383.76 1165.46,-392.25 1169.38,-386.45"/>
<text text-anchor="middle" x="1227.79" y="-405.8" font-family="Times,serif" font-size="14.00">previous</text>
</g>
<!-- http://purl.org/dj/kaggle/feature&#45;engineering/activity/1121911044698201827&#45;&gt;http://purl.org/dj/kaggle/feature&#45;engineering/activity/&#45;1264515187269111770 -->
<g id="edge15" class="edge">
<title>http://purl.org/dj/kaggle/feature&#45;engineering/activity/1121911044698201827&#45;&gt;http://purl.org/dj/kaggle/feature&#45;engineering/activity/&#45;1264515187269111770</title>
<path fill="none" stroke="black" d="M1001.52,-359.2C812.52,-349.94 475.76,-329.5 358.29,-297 291.66,-278.57 220.7,-239.79 179.54,-215.15"/>
<polygon fill="black" stroke="black" points="181.09,-212 170.72,-209.81 177.47,-217.99 181.09,-212"/>
<text text-anchor="middle" x="381.79" y="-275.3" font-family="Times,serif" font-size="14.00">previous</text>
</g>
<!-- http://purl.org/dj/kaggle/feature&#45;engineering/activity/1121911044698201827&#45;&gt;http://purl.org/dj/kaggle/feature&#45;engineering/activity/&#45;317875298003899126 -->
<g id="edge16" class="edge">
<title>http://purl.org/dj/kaggle/feature&#45;engineering/activity/1121911044698201827&#45;&gt;http://purl.org/dj/kaggle/feature&#45;engineering/activity/&#45;317875298003899126</title>
<path fill="none" stroke="black" d="M1079.38,-349.25C1038.61,-336.87 982.06,-318.2 934.29,-297 879.51,-272.69 819.51,-237.72 782.62,-215.18"/>
<polygon fill="black" stroke="black" points="784.11,-211.98 773.76,-209.73 780.44,-217.95 784.11,-211.98"/>
<text text-anchor="middle" x="957.79" y="-275.3" font-family="Times,serif" font-size="14.00">previous</text>
</g>
<!-- http://purl.org/dj/kaggle/feature&#45;engineering/activity/1121911044698201827&#45;&gt;http://purl.org/dj/kaggle/feature&#45;engineering/activity/&#45;5965892455643432638 -->
<g id="edge17" class="edge">
<title>http://purl.org/dj/kaggle/feature&#45;engineering/activity/1121911044698201827&#45;&gt;http://purl.org/dj/kaggle/feature&#45;engineering/activity/&#45;5965892455643432638</title>
<path fill="none" stroke="black" d="M1244.84,-354.49C1320.87,-344.71 1412.28,-327.01 1436.29,-297 1468.49,-256.75 1457.55,-187.41 1399.29,-141 1373.07,-120.12 1189.88,-111.65 1058.59,-108.25"/>
<polygon fill="black" stroke="black" points="1058.53,-104.75 1048.44,-107.99 1058.35,-111.74 1058.53,-104.75"/>
<text text-anchor="middle" x="1476.79" y="-231.8" font-family="Times,serif" font-size="14.00">previous</text>
</g>
<!-- http://purl.org/dj/kaggle/feature&#45;engineering/activity/1121911044698201827&#45;&gt;http://purl.org/dj/kaggle/feature&#45;engineering/activity/&#45;8830061016225930118 -->
<g id="edge18" class="edge">
<title>http://purl.org/dj/kaggle/feature&#45;engineering/activity/1121911044698201827&#45;&gt;http://purl.org/dj/kaggle/feature&#45;engineering/activity/&#45;8830061016225930118</title>
<path fill="none" stroke="black" d="M1134.29,-347.8C1134.29,-336.16 1134.29,-320.55 1134.29,-307.24"/>
<polygon fill="black" stroke="black" points="1137.79,-307.18 1134.29,-297.18 1130.79,-307.18 1137.79,-307.18"/>
<text text-anchor="middle" x="1157.79" y="-318.8" font-family="Times,serif" font-size="14.00">previous</text>
</g>
</g>
</svg>
