<?xml version="1.0" encoding="UTF-8" standalone="no"?>
<!DOCTYPE svg PUBLIC "-//W3C//DTD SVG 1.1//EN"
 "http://www.w3.org/Graphics/SVG/1.1/DTD/svg11.dtd">
<!-- Generated by graphviz version 2.47.1 (20210417.1919)
 -->
<!-- Pages: 1 -->
<svg width="4115pt" height="521pt"
 viewBox="0.00 0.00 4115.42 521.00" xmlns="http://www.w3.org/2000/svg" xmlns:xlink="http://www.w3.org/1999/xlink">
<g id="graph0" class="graph" transform="scale(1 1) rotate(0) translate(4 517)">
<polygon fill="white" stroke="transparent" points="-4,4 -4,-517 4111.42,-517 4111.42,4 -4,4"/>
<!-- http://purl.org/dj/kaggle/finding&#45;boatids/activity/8119126885614177511 -->
<g id="node1" class="node">
<title>http://purl.org/dj/kaggle/finding&#45;boatids/activity/8119126885614177511</title>
<ellipse fill="none" stroke="black" cx="2958.84" cy="-408" rx="142.97" ry="18"/>
<text text-anchor="middle" x="2958.84" y="-404.3" font-family="Times,serif" font-size="14.00">8119126885614177511 (Preparation)</text>
</g>
<!-- http://purl.org/dj/kaggle/finding&#45;boatids/activity/&#45;238439063657573623 -->
<g id="node2" class="node">
<title>http://purl.org/dj/kaggle/finding&#45;boatids/activity/&#45;238439063657573623</title>
<ellipse fill="none" stroke="black" cx="2611.84" cy="-300" rx="147.57" ry="18"/>
<text text-anchor="middle" x="2611.84" y="-296.3" font-family="Times,serif" font-size="14.00">&#45;238439063657573623 (Visualisation)</text>
</g>
<!-- http://purl.org/dj/kaggle/finding&#45;boatids/activity/8119126885614177511&#45;&gt;http://purl.org/dj/kaggle/finding&#45;boatids/activity/&#45;238439063657573623 -->
<g id="edge1" class="edge">
<title>http://purl.org/dj/kaggle/finding&#45;boatids/activity/8119126885614177511&#45;&gt;http://purl.org/dj/kaggle/finding&#45;boatids/activity/&#45;238439063657573623</title>
<path fill="none" stroke="black" d="M2906.89,-391.13C2844.58,-372.1 2740.23,-340.22 2673.78,-319.92"/>
<polygon fill="black" stroke="black" points="2674.44,-316.47 2663.86,-316.89 2672.4,-323.16 2674.44,-316.47"/>
<text text-anchor="middle" x="2859.34" y="-350.3" font-family="Times,serif" font-size="14.00">previous</text>
</g>
<!-- http://purl.org/dj/kaggle/finding&#45;boatids/activity/&#45;2362960001945340057 -->
<g id="node3" class="node">
<title>http://purl.org/dj/kaggle/finding&#45;boatids/activity/&#45;2362960001945340057</title>
<ellipse fill="none" stroke="black" cx="2168.84" cy="-105" rx="126.98" ry="18"/>
<text text-anchor="middle" x="2168.84" y="-101.3" font-family="Times,serif" font-size="14.00">&#45;2362960001945340057 (Reuse)</text>
</g>
<!-- http://purl.org/dj/kaggle/finding&#45;boatids/activity/8119126885614177511&#45;&gt;http://purl.org/dj/kaggle/finding&#45;boatids/activity/&#45;2362960001945340057 -->
<g id="edge2" class="edge">
<title>http://purl.org/dj/kaggle/finding&#45;boatids/activity/8119126885614177511&#45;&gt;http://purl.org/dj/kaggle/finding&#45;boatids/activity/&#45;2362960001945340057</title>
<path fill="none" stroke="black" d="M2960.15,-389.72C2963.45,-341 2969.8,-204.16 2939.84,-174 2896.04,-129.92 2513.02,-114.04 2303.85,-108.62"/>
<polygon fill="black" stroke="black" points="2303.8,-105.12 2293.71,-108.36 2303.62,-112.11 2303.8,-105.12"/>
<text text-anchor="middle" x="2984.34" y="-242.3" font-family="Times,serif" font-size="14.00">previous</text>
</g>
<!-- http://purl.org/dj/kaggle/finding&#45;boatids/activity/3543405834108084288 -->
<g id="node4" class="node">
<title>http://purl.org/dj/kaggle/finding&#45;boatids/activity/3543405834108084288</title>
<ellipse fill="none" stroke="black" cx="3129.84" cy="-192" rx="142.97" ry="18"/>
<text text-anchor="middle" x="3129.84" y="-188.3" font-family="Times,serif" font-size="14.00">3543405834108084288 (Preparation)</text>
</g>
<!-- http://purl.org/dj/kaggle/finding&#45;boatids/activity/&#45;238439063657573623&#45;&gt;http://purl.org/dj/kaggle/finding&#45;boatids/activity/3543405834108084288 -->
<g id="edge3" class="edge">
<title>http://purl.org/dj/kaggle/finding&#45;boatids/activity/&#45;238439063657573623&#45;&gt;http://purl.org/dj/kaggle/finding&#45;boatids/activity/3543405834108084288</title>
<path fill="none" stroke="black" d="M2687.78,-284.54C2715.9,-278.75 2747.96,-271.64 2776.84,-264 2827.79,-250.51 2838.48,-239.84 2889.84,-228 2930.5,-218.62 2975.65,-211.26 3015.71,-205.76"/>
<polygon fill="black" stroke="black" points="3016.34,-209.21 3025.78,-204.4 3015.4,-202.27 3016.34,-209.21"/>
<text text-anchor="middle" x="2913.34" y="-242.3" font-family="Times,serif" font-size="14.00">previous</text>
</g>
<!-- http://purl.org/dj/kaggle/finding&#45;boatids/activity/&#45;1611740304501944647 -->
<g id="node5" class="node">
<title>http://purl.org/dj/kaggle/finding&#45;boatids/activity/&#45;1611740304501944647</title>
<ellipse fill="none" stroke="black" cx="2480.84" cy="-192" rx="145.67" ry="18"/>
<text text-anchor="middle" x="2480.84" y="-188.3" font-family="Times,serif" font-size="14.00">&#45;1611740304501944647 (Preparation)</text>
</g>
<!-- http://purl.org/dj/kaggle/finding&#45;boatids/activity/&#45;238439063657573623&#45;&gt;http://purl.org/dj/kaggle/finding&#45;boatids/activity/&#45;1611740304501944647 -->
<g id="edge4" class="edge">
<title>http://purl.org/dj/kaggle/finding&#45;boatids/activity/&#45;238439063657573623&#45;&gt;http://purl.org/dj/kaggle/finding&#45;boatids/activity/&#45;1611740304501944647</title>
<path fill="none" stroke="black" d="M2590.79,-281.97C2568.83,-264.2 2534.24,-236.21 2509.73,-216.38"/>
<polygon fill="black" stroke="black" points="2511.81,-213.56 2501.83,-209.99 2507.4,-219 2511.81,-213.56"/>
<text text-anchor="middle" x="2588.34" y="-242.3" font-family="Times,serif" font-size="14.00">previous</text>
</g>
<!-- http://purl.org/dj/kaggle/finding&#45;boatids/activity/2198125748744592231 -->
<g id="node6" class="node">
<title>http://purl.org/dj/kaggle/finding&#45;boatids/activity/2198125748744592231</title>
<ellipse fill="none" stroke="black" cx="569.84" cy="-192" rx="142.97" ry="18"/>
<text text-anchor="middle" x="569.84" y="-188.3" font-family="Times,serif" font-size="14.00">2198125748744592231 (Preparation)</text>
</g>
<!-- http://purl.org/dj/kaggle/finding&#45;boatids/activity/&#45;238439063657573623&#45;&gt;http://purl.org/dj/kaggle/finding&#45;boatids/activity/2198125748744592231 -->
<g id="edge5" class="edge">
<title>http://purl.org/dj/kaggle/finding&#45;boatids/activity/&#45;238439063657573623&#45;&gt;http://purl.org/dj/kaggle/finding&#45;boatids/activity/2198125748744592231</title>
<path fill="none" stroke="black" d="M2476.73,-292.65C2045.12,-272.37 727.31,-210.43 721.84,-210 708.1,-208.91 693.68,-207.56 679.43,-206.11"/>
<polygon fill="black" stroke="black" points="679.4,-202.59 669.09,-205.03 678.67,-209.55 679.4,-202.59"/>
<text text-anchor="middle" x="1862.34" y="-242.3" font-family="Times,serif" font-size="14.00">previous</text>
</g>
<!-- http://purl.org/dj/kaggle/finding&#45;boatids/activity/5643008619022462563 -->
<g id="node7" class="node">
<title>http://purl.org/dj/kaggle/finding&#45;boatids/activity/5643008619022462563</title>
<ellipse fill="none" stroke="black" cx="2787.84" cy="-192" rx="142.97" ry="18"/>
<text text-anchor="middle" x="2787.84" y="-188.3" font-family="Times,serif" font-size="14.00">5643008619022462563 (Preparation)</text>
</g>
<!-- http://purl.org/dj/kaggle/finding&#45;boatids/activity/&#45;238439063657573623&#45;&gt;http://purl.org/dj/kaggle/finding&#45;boatids/activity/5643008619022462563 -->
<g id="edge6" class="edge">
<title>http://purl.org/dj/kaggle/finding&#45;boatids/activity/&#45;238439063657573623&#45;&gt;http://purl.org/dj/kaggle/finding&#45;boatids/activity/5643008619022462563</title>
<path fill="none" stroke="black" d="M2639.72,-282.2C2669.85,-264.06 2717.97,-235.08 2751.15,-215.1"/>
<polygon fill="black" stroke="black" points="2753.32,-217.87 2760.08,-209.72 2749.71,-211.88 2753.32,-217.87"/>
<text text-anchor="middle" x="2749.34" y="-242.3" font-family="Times,serif" font-size="14.00">previous</text>
</g>
<!-- http://purl.org/dj/kaggle/finding&#45;boatids -->
<g id="node8" class="node">
<title>http://purl.org/dj/kaggle/finding&#45;boatids</title>
<ellipse fill="none" stroke="black" cx="290.84" cy="-18" rx="147.57" ry="18"/>
<text text-anchor="middle" x="290.84" y="-14.3" font-family="Times,serif" font-size="14.00">finding&#45;boatids (finding&#45;boatids.ipynb)</text>
</g>
<!-- http://purl.org/dj/kaggle/finding&#45;boatids/activity/&#45;2362960001945340057&#45;&gt;http://purl.org/dj/kaggle/finding&#45;boatids -->
<g id="edge7" class="edge">
<title>http://purl.org/dj/kaggle/finding&#45;boatids/activity/&#45;2362960001945340057&#45;&gt;http://purl.org/dj/kaggle/finding&#45;boatids</title>
<path fill="none" stroke="black" d="M2049.93,-98.62C1720.41,-83.7 796.1,-41.87 436.53,-25.59"/>
<polygon fill="black" stroke="black" points="436.47,-22.09 426.32,-25.13 436.15,-29.08 436.47,-22.09"/>
<text text-anchor="middle" x="1366.34" y="-57.8" font-family="Times,serif" font-size="14.00">previous</text>
</g>
<!-- http://purl.org/dj/kaggle/finding&#45;boatids/activity/3543405834108084288&#45;&gt;http://purl.org/dj/kaggle/finding&#45;boatids/activity/&#45;2362960001945340057 -->
<g id="edge8" class="edge">
<title>http://purl.org/dj/kaggle/finding&#45;boatids/activity/3543405834108084288&#45;&gt;http://purl.org/dj/kaggle/finding&#45;boatids/activity/&#45;2362960001945340057</title>
<path fill="none" stroke="black" d="M3088.94,-174.68C3057.69,-163.02 3013.25,-148.18 2972.84,-141 2848.61,-118.92 2499.49,-110.57 2304.63,-107.57"/>
<polygon fill="black" stroke="black" points="2304.66,-104.07 2294.61,-107.42 2304.56,-111.07 2304.66,-104.07"/>
<text text-anchor="middle" x="3053.34" y="-144.8" font-family="Times,serif" font-size="14.00">previous</text>
</g>
<!-- http://purl.org/dj/kaggle/finding&#45;boatids/activity/&#45;1611740304501944647&#45;&gt;http://purl.org/dj/kaggle/finding&#45;boatids/activity/&#45;2362960001945340057 -->
<g id="edge9" class="edge">
<title>http://purl.org/dj/kaggle/finding&#45;boatids/activity/&#45;1611740304501944647&#45;&gt;http://purl.org/dj/kaggle/finding&#45;boatids/activity/&#45;2362960001945340057</title>
<path fill="none" stroke="black" d="M2423.61,-175.41C2370.17,-160.85 2290.47,-139.14 2234.47,-123.88"/>
<polygon fill="black" stroke="black" points="2235.22,-120.46 2224.65,-121.21 2233.38,-127.21 2235.22,-120.46"/>
<text text-anchor="middle" x="2366.34" y="-144.8" font-family="Times,serif" font-size="14.00">previous</text>
</g>
<!-- http://purl.org/dj/kaggle/finding&#45;boatids/activity/2198125748744592231&#45;&gt;http://purl.org/dj/kaggle/finding&#45;boatids/activity/&#45;2362960001945340057 -->
<g id="edge10" class="edge">
<title>http://purl.org/dj/kaggle/finding&#45;boatids/activity/2198125748744592231&#45;&gt;http://purl.org/dj/kaggle/finding&#45;boatids/activity/&#45;2362960001945340057</title>
<path fill="none" stroke="black" d="M645.35,-176.64C711.01,-164.81 808.84,-148.77 894.84,-141 1112.24,-121.37 1751.34,-111.21 2032.94,-107.58"/>
<polygon fill="black" stroke="black" points="2033.27,-111.08 2043.22,-107.45 2033.18,-104.08 2033.27,-111.08"/>
<text text-anchor="middle" x="918.34" y="-144.8" font-family="Times,serif" font-size="14.00">previous</text>
</g>
<!-- http://purl.org/dj/kaggle/finding&#45;boatids/activity/2198125748744592231&#45;&gt;http://purl.org/dj/kaggle/finding&#45;boatids -->
<g id="edge11" class="edge">
<title>http://purl.org/dj/kaggle/finding&#45;boatids/activity/2198125748744592231&#45;&gt;http://purl.org/dj/kaggle/finding&#45;boatids</title>
<path fill="none" stroke="black" d="M542.58,-174.19C491.95,-142.98 383.41,-76.07 326.83,-41.19"/>
<polygon fill="black" stroke="black" points="328.56,-38.14 318.21,-35.87 324.88,-44.1 328.56,-38.14"/>
<text text-anchor="middle" x="482.34" y="-101.3" font-family="Times,serif" font-size="14.00">previous</text>
</g>
<!-- http://purl.org/dj/kaggle/finding&#45;boatids/activity/5643008619022462563&#45;&gt;http://purl.org/dj/kaggle/finding&#45;boatids/activity/&#45;2362960001945340057 -->
<g id="edge12" class="edge">
<title>http://purl.org/dj/kaggle/finding&#45;boatids/activity/5643008619022462563&#45;&gt;http://purl.org/dj/kaggle/finding&#45;boatids/activity/&#45;2362960001945340057</title>
<path fill="none" stroke="black" d="M2695.17,-178.27C2579.97,-162.46 2384.25,-135.58 2266.7,-119.44"/>
<polygon fill="black" stroke="black" points="2267.01,-115.95 2256.62,-118.05 2266.06,-122.88 2267.01,-115.95"/>
<text text-anchor="middle" x="2538.34" y="-144.8" font-family="Times,serif" font-size="14.00">previous</text>
</g>
<!-- http://purl.org/dj/kaggle/finding&#45;boatids/activity/794480161230458408 -->
<g id="node9" class="node">
<title>http://purl.org/dj/kaggle/finding&#45;boatids/activity/794480161230458408</title>
<ellipse fill="none" stroke="black" cx="1006.84" cy="-408" rx="138.38" ry="18"/>
<text text-anchor="middle" x="1006.84" y="-404.3" font-family="Times,serif" font-size="14.00">794480161230458408 (Preparation)</text>
</g>
<!-- http://purl.org/dj/kaggle/finding&#45;boatids/activity/794480161230458408&#45;&gt;http://purl.org/dj/kaggle/finding&#45;boatids/activity/&#45;238439063657573623 -->
<g id="edge13" class="edge">
<title>http://purl.org/dj/kaggle/finding&#45;boatids/activity/794480161230458408&#45;&gt;http://purl.org/dj/kaggle/finding&#45;boatids/activity/&#45;238439063657573623</title>
<path fill="none" stroke="black" d="M1127.14,-399.05C1419.64,-379.74 2166.61,-330.4 2475.24,-310.02"/>
<polygon fill="black" stroke="black" points="2475.83,-313.49 2485.58,-309.34 2475.37,-306.51 2475.83,-313.49"/>
<text text-anchor="middle" x="2070.34" y="-350.3" font-family="Times,serif" font-size="14.00">previous</text>
</g>
<!-- http://purl.org/dj/kaggle/finding&#45;boatids/activity/794480161230458408&#45;&gt;http://purl.org/dj/kaggle/finding&#45;boatids/activity/&#45;2362960001945340057 -->
<g id="edge14" class="edge">
<title>http://purl.org/dj/kaggle/finding&#45;boatids/activity/794480161230458408&#45;&gt;http://purl.org/dj/kaggle/finding&#45;boatids/activity/&#45;2362960001945340057</title>
<path fill="none" stroke="black" d="M1005.45,-389.75C1002.96,-345.67 1003.22,-228.57 1069.84,-174 1142.65,-114.36 1753.85,-106.24 2031.98,-105.66"/>
<polygon fill="black" stroke="black" points="2032.14,-109.16 2042.13,-105.65 2032.13,-102.16 2032.14,-109.16"/>
<text text-anchor="middle" x="1053.34" y="-242.3" font-family="Times,serif" font-size="14.00">previous</text>
</g>
<!-- http://purl.org/dj/kaggle/finding&#45;boatids/activity/&#45;3406809955280251807 -->
<g id="node10" class="node">
<title>http://purl.org/dj/kaggle/finding&#45;boatids/activity/&#45;3406809955280251807</title>
<ellipse fill="none" stroke="black" cx="685.84" cy="-300" rx="151.37" ry="18"/>
<text text-anchor="middle" x="685.84" y="-296.3" font-family="Times,serif" font-size="14.00">&#45;3406809955280251807 (Visualisation)</text>
</g>
<!-- http://purl.org/dj/kaggle/finding&#45;boatids/activity/794480161230458408&#45;&gt;http://purl.org/dj/kaggle/finding&#45;boatids/activity/&#45;3406809955280251807 -->
<g id="edge15" class="edge">
<title>http://purl.org/dj/kaggle/finding&#45;boatids/activity/794480161230458408&#45;&gt;http://purl.org/dj/kaggle/finding&#45;boatids/activity/&#45;3406809955280251807</title>
<path fill="none" stroke="black" d="M958.43,-391.02C901.08,-372.08 805.57,-340.54 744.18,-320.27"/>
<polygon fill="black" stroke="black" points="745.23,-316.93 734.64,-317.11 743.03,-323.57 745.23,-316.93"/>
<text text-anchor="middle" x="918.34" y="-350.3" font-family="Times,serif" font-size="14.00">previous</text>
</g>
<!-- http://purl.org/dj/kaggle/finding&#45;boatids/activity/7617666768526148699 -->
<g id="node11" class="node">
<title>http://purl.org/dj/kaggle/finding&#45;boatids/activity/7617666768526148699</title>
<ellipse fill="none" stroke="black" cx="148.84" cy="-246" rx="148.67" ry="18"/>
<text text-anchor="middle" x="148.84" y="-242.3" font-family="Times,serif" font-size="14.00">7617666768526148699 (Visualisation)</text>
</g>
<!-- http://purl.org/dj/kaggle/finding&#45;boatids/activity/794480161230458408&#45;&gt;http://purl.org/dj/kaggle/finding&#45;boatids/activity/7617666768526148699 -->
<g id="edge16" class="edge">
<title>http://purl.org/dj/kaggle/finding&#45;boatids/activity/794480161230458408&#45;&gt;http://purl.org/dj/kaggle/finding&#45;boatids/activity/7617666768526148699</title>
<path fill="none" stroke="black" d="M874.61,-402.66C753.14,-397.7 588.07,-388.1 561.84,-372 545.85,-362.19 555.06,-346.94 539.84,-336 494.67,-303.55 353.6,-276.94 253.91,-261.52"/>
<polygon fill="black" stroke="black" points="254.21,-258.02 243.79,-259.97 253.15,-264.94 254.21,-258.02"/>
<text text-anchor="middle" x="585.34" y="-350.3" font-family="Times,serif" font-size="14.00">previous</text>
</g>
<!-- http://purl.org/dj/kaggle/finding&#45;boatids/activity/&#45;3406809955280251807&#45;&gt;http://purl.org/dj/kaggle/finding&#45;boatids/activity/&#45;2362960001945340057 -->
<g id="edge17" class="edge">
<title>http://purl.org/dj/kaggle/finding&#45;boatids/activity/&#45;3406809955280251807&#45;&gt;http://purl.org/dj/kaggle/finding&#45;boatids/activity/&#45;2362960001945340057</title>
<path fill="none" stroke="black" d="M594.6,-285.6C511.57,-271.31 397.92,-245.8 370.84,-210 361.18,-197.24 359.99,-185.77 370.84,-174 426.9,-113.17 1621.5,-106.45 2031.86,-105.94"/>
<polygon fill="black" stroke="black" points="2032,-109.44 2042,-105.93 2032,-102.44 2032,-109.44"/>
<text text-anchor="middle" x="394.34" y="-188.3" font-family="Times,serif" font-size="14.00">previous</text>
</g>
<!-- http://purl.org/dj/kaggle/finding&#45;boatids/activity/&#45;3406809955280251807&#45;&gt;http://purl.org/dj/kaggle/finding&#45;boatids/activity/2198125748744592231 -->
<g id="edge18" class="edge">
<title>http://purl.org/dj/kaggle/finding&#45;boatids/activity/&#45;3406809955280251807&#45;&gt;http://purl.org/dj/kaggle/finding&#45;boatids/activity/2198125748744592231</title>
<path fill="none" stroke="black" d="M667.2,-281.97C647.92,-264.35 617.65,-236.7 595.99,-216.89"/>
<polygon fill="black" stroke="black" points="598.17,-214.15 588.43,-209.99 593.45,-219.32 598.17,-214.15"/>
<text text-anchor="middle" x="669.34" y="-242.3" font-family="Times,serif" font-size="14.00">previous</text>
</g>
<!-- http://purl.org/dj/kaggle/finding&#45;boatids/activity/&#45;4155220243366375743 -->
<g id="node12" class="node">
<title>http://purl.org/dj/kaggle/finding&#45;boatids/activity/&#45;4155220243366375743</title>
<ellipse fill="none" stroke="black" cx="876.84" cy="-192" rx="145.67" ry="18"/>
<text text-anchor="middle" x="876.84" y="-188.3" font-family="Times,serif" font-size="14.00">&#45;4155220243366375743 (Preparation)</text>
</g>
<!-- http://purl.org/dj/kaggle/finding&#45;boatids/activity/&#45;3406809955280251807&#45;&gt;http://purl.org/dj/kaggle/finding&#45;boatids/activity/&#45;4155220243366375743 -->
<g id="edge19" class="edge">
<title>http://purl.org/dj/kaggle/finding&#45;boatids/activity/&#45;3406809955280251807&#45;&gt;http://purl.org/dj/kaggle/finding&#45;boatids/activity/&#45;4155220243366375743</title>
<path fill="none" stroke="black" d="M716.1,-282.2C749.07,-263.91 801.91,-234.58 837.94,-214.59"/>
<polygon fill="black" stroke="black" points="839.67,-217.63 846.71,-209.72 836.27,-211.51 839.67,-217.63"/>
<text text-anchor="middle" x="833.34" y="-242.3" font-family="Times,serif" font-size="14.00">previous</text>
</g>
<!-- http://purl.org/dj/kaggle/finding&#45;boatids/activity/7617666768526148699&#45;&gt;http://purl.org/dj/kaggle/finding&#45;boatids/activity/&#45;2362960001945340057 -->
<g id="edge20" class="edge">
<title>http://purl.org/dj/kaggle/finding&#45;boatids/activity/7617666768526148699&#45;&gt;http://purl.org/dj/kaggle/finding&#45;boatids/activity/&#45;2362960001945340057</title>
<path fill="none" stroke="black" d="M166.27,-227.99C192.89,-203.31 246.44,-158.62 301.84,-141 383.87,-114.92 1615.1,-108.02 2032.01,-106.43"/>
<polygon fill="black" stroke="black" points="2032.32,-109.93 2042.31,-106.39 2032.3,-102.93 2032.32,-109.93"/>
<text text-anchor="middle" x="258.34" y="-188.3" font-family="Times,serif" font-size="14.00">previous</text>
</g>
<!-- http://purl.org/dj/kaggle/finding&#45;boatids/activity/7617666768526148699&#45;&gt;http://purl.org/dj/kaggle/finding&#45;boatids -->
<g id="edge21" class="edge">
<title>http://purl.org/dj/kaggle/finding&#45;boatids/activity/7617666768526148699&#45;&gt;http://purl.org/dj/kaggle/finding&#45;boatids</title>
<path fill="none" stroke="black" d="M157.12,-227.77C164.29,-213.2 175.15,-191.91 185.84,-174 213.88,-127 250.45,-74.77 272.21,-44.53"/>
<polygon fill="black" stroke="black" points="275.18,-46.39 278.2,-36.24 269.5,-42.3 275.18,-46.39"/>
<text text-anchor="middle" x="229.34" y="-144.8" font-family="Times,serif" font-size="14.00">previous</text>
</g>
<!-- http://purl.org/dj/kaggle/finding&#45;boatids/activity/&#45;4155220243366375743&#45;&gt;http://purl.org/dj/kaggle/finding&#45;boatids/activity/&#45;2362960001945340057 -->
<g id="edge41" class="edge">
<title>http://purl.org/dj/kaggle/finding&#45;boatids/activity/&#45;4155220243366375743&#45;&gt;http://purl.org/dj/kaggle/finding&#45;boatids/activity/&#45;2362960001945340057</title>
<path fill="none" stroke="black" d="M905.96,-174.34C928.17,-162.59 959.92,-147.79 989.84,-141 1089.01,-118.5 1744.16,-109.84 2032.75,-107.09"/>
<polygon fill="black" stroke="black" points="2032.89,-110.59 2042.86,-107 2032.82,-103.59 2032.89,-110.59"/>
<text text-anchor="middle" x="1013.34" y="-144.8" font-family="Times,serif" font-size="14.00">previous</text>
</g>
<!-- http://purl.org/dj/kaggle/finding&#45;boatids/activity/&#45;5101320831508761746 -->
<g id="node13" class="node">
<title>http://purl.org/dj/kaggle/finding&#45;boatids/activity/&#45;5101320831508761746</title>
<ellipse fill="none" stroke="black" cx="3303.84" cy="-408" rx="145.67" ry="18"/>
<text text-anchor="middle" x="3303.84" y="-404.3" font-family="Times,serif" font-size="14.00">&#45;5101320831508761746 (Preparation)</text>
</g>
<!-- http://purl.org/dj/kaggle/finding&#45;boatids/activity/&#45;5101320831508761746&#45;&gt;http://purl.org/dj/kaggle/finding&#45;boatids/activity/&#45;238439063657573623 -->
<g id="edge22" class="edge">
<title>http://purl.org/dj/kaggle/finding&#45;boatids/activity/&#45;5101320831508761746&#45;&gt;http://purl.org/dj/kaggle/finding&#45;boatids/activity/&#45;238439063657573623</title>
<path fill="none" stroke="black" d="M3207.24,-394.47C3162.59,-388.32 3108.91,-380.43 3060.84,-372 2983.05,-358.36 2964.73,-348.99 2886.84,-336 2834.87,-327.33 2777.07,-319.68 2727.92,-313.75"/>
<polygon fill="black" stroke="black" points="2728.24,-310.27 2717.89,-312.56 2727.41,-317.22 2728.24,-310.27"/>
<text text-anchor="middle" x="3084.34" y="-350.3" font-family="Times,serif" font-size="14.00">previous</text>
</g>
<!-- http://purl.org/dj/kaggle/finding&#45;boatids/activity/&#45;5101320831508761746&#45;&gt;http://purl.org/dj/kaggle/finding&#45;boatids/activity/&#45;2362960001945340057 -->
<g id="edge23" class="edge">
<title>http://purl.org/dj/kaggle/finding&#45;boatids/activity/&#45;5101320831508761746&#45;&gt;http://purl.org/dj/kaggle/finding&#45;boatids/activity/&#45;2362960001945340057</title>
<path fill="none" stroke="black" d="M3304.8,-389.81C3307.12,-341.34 3310.88,-205.11 3281.84,-174 3220.06,-107.83 3170.91,-150.09 3080.84,-141 2806.92,-113.37 2484.71,-107.12 2305.94,-105.96"/>
<polygon fill="black" stroke="black" points="2305.71,-102.46 2295.69,-105.9 2305.67,-109.46 2305.71,-102.46"/>
<text text-anchor="middle" x="3327.34" y="-242.3" font-family="Times,serif" font-size="14.00">previous</text>
</g>
<!-- http://purl.org/dj/kaggle/finding&#45;boatids/activity/&#45;6247388067107651563 -->
<g id="node14" class="node">
<title>http://purl.org/dj/kaggle/finding&#45;boatids/activity/&#45;6247388067107651563</title>
<ellipse fill="none" stroke="black" cx="3471.84" cy="-300" rx="151.37" ry="18"/>
<text text-anchor="middle" x="3471.84" y="-296.3" font-family="Times,serif" font-size="14.00">&#45;6247388067107651563 (Visualisation)</text>
</g>
<!-- http://purl.org/dj/kaggle/finding&#45;boatids/activity/&#45;5101320831508761746&#45;&gt;http://purl.org/dj/kaggle/finding&#45;boatids/activity/&#45;6247388067107651563 -->
<g id="edge24" class="edge">
<title>http://purl.org/dj/kaggle/finding&#45;boatids/activity/&#45;5101320831508761746&#45;&gt;http://purl.org/dj/kaggle/finding&#45;boatids/activity/&#45;6247388067107651563</title>
<path fill="none" stroke="black" d="M3330.46,-390.2C3359.13,-372.11 3404.88,-343.25 3436.53,-323.27"/>
<polygon fill="black" stroke="black" points="3438.47,-326.19 3445.06,-317.89 3434.74,-320.27 3438.47,-326.19"/>
<text text-anchor="middle" x="3435.34" y="-350.3" font-family="Times,serif" font-size="14.00">previous</text>
</g>
<!-- http://purl.org/dj/kaggle/finding&#45;boatids/activity/&#45;6247388067107651563&#45;&gt;http://purl.org/dj/kaggle/finding&#45;boatids/activity/&#45;2362960001945340057 -->
<g id="edge25" class="edge">
<title>http://purl.org/dj/kaggle/finding&#45;boatids/activity/&#45;6247388067107651563&#45;&gt;http://purl.org/dj/kaggle/finding&#45;boatids/activity/&#45;2362960001945340057</title>
<path fill="none" stroke="black" d="M3444.12,-282.11C3418.98,-265.84 3381.96,-239.42 3355.84,-210 3332.15,-183.33 3345.57,-159.11 3314.84,-141 3272.08,-115.8 2600.34,-108.62 2305.64,-106.68"/>
<polygon fill="black" stroke="black" points="2305.34,-103.18 2295.32,-106.61 2305.3,-110.18 2305.34,-103.18"/>
<text text-anchor="middle" x="3379.34" y="-188.3" font-family="Times,serif" font-size="14.00">previous</text>
</g>
<!-- http://purl.org/dj/kaggle/finding&#45;boatids/activity/&#45;6247388067107651563&#45;&gt;http://purl.org/dj/kaggle/finding&#45;boatids/activity/2198125748744592231 -->
<g id="edge26" class="edge">
<title>http://purl.org/dj/kaggle/finding&#45;boatids/activity/&#45;6247388067107651563&#45;&gt;http://purl.org/dj/kaggle/finding&#45;boatids/activity/2198125748744592231</title>
<path fill="none" stroke="black" d="M3375.77,-286.04C3329.76,-279.69 3273.9,-271.74 3223.84,-264 3128.52,-249.26 3105.92,-236.41 3009.84,-228 2503.31,-183.69 1229.39,-240.3 721.84,-210 707.3,-209.13 692.02,-207.86 676.97,-206.39"/>
<polygon fill="black" stroke="black" points="676.91,-202.86 666.61,-205.34 676.2,-209.83 676.91,-202.86"/>
<text text-anchor="middle" x="3247.34" y="-242.3" font-family="Times,serif" font-size="14.00">previous</text>
</g>
<!-- http://purl.org/dj/kaggle/finding&#45;boatids/activity/7114118188535416441 -->
<g id="node15" class="node">
<title>http://purl.org/dj/kaggle/finding&#45;boatids/activity/7114118188535416441</title>
<ellipse fill="none" stroke="black" cx="3554.84" cy="-192" rx="142.97" ry="18"/>
<text text-anchor="middle" x="3554.84" y="-188.3" font-family="Times,serif" font-size="14.00">7114118188535416441 (Preparation)</text>
</g>
<!-- http://purl.org/dj/kaggle/finding&#45;boatids/activity/&#45;6247388067107651563&#45;&gt;http://purl.org/dj/kaggle/finding&#45;boatids/activity/7114118188535416441 -->
<g id="edge27" class="edge">
<title>http://purl.org/dj/kaggle/finding&#45;boatids/activity/&#45;6247388067107651563&#45;&gt;http://purl.org/dj/kaggle/finding&#45;boatids/activity/7114118188535416441</title>
<path fill="none" stroke="black" d="M3485.17,-281.97C3498.72,-264.66 3519.87,-237.66 3535.31,-217.94"/>
<polygon fill="black" stroke="black" points="3538.13,-220.02 3541.53,-209.99 3532.61,-215.7 3538.13,-220.02"/>
<text text-anchor="middle" x="3548.34" y="-242.3" font-family="Times,serif" font-size="14.00">previous</text>
</g>
<!-- http://purl.org/dj/kaggle/finding&#45;boatids/activity/7114118188535416441&#45;&gt;http://purl.org/dj/kaggle/finding&#45;boatids/activity/&#45;2362960001945340057 -->
<g id="edge28" class="edge">
<title>http://purl.org/dj/kaggle/finding&#45;boatids/activity/7114118188535416441&#45;&gt;http://purl.org/dj/kaggle/finding&#45;boatids/activity/&#45;2362960001945340057</title>
<path fill="none" stroke="black" d="M3505.61,-175.06C3466.76,-163.28 3410.94,-148.1 3360.84,-141 3160.98,-112.67 2574.02,-107.19 2305.61,-106.19"/>
<polygon fill="black" stroke="black" points="2305.43,-102.69 2295.41,-106.15 2305.4,-109.69 2305.43,-102.69"/>
<text text-anchor="middle" x="3454.34" y="-144.8" font-family="Times,serif" font-size="14.00">previous</text>
</g>
<!-- http://purl.org/dj/kaggle/finding&#45;boatids/activity/&#45;8097187263254041531 -->
<g id="node16" class="node">
<title>http://purl.org/dj/kaggle/finding&#45;boatids/activity/&#45;8097187263254041531</title>
<ellipse fill="none" stroke="black" cx="3129.84" cy="-495" rx="151.37" ry="18"/>
<text text-anchor="middle" x="3129.84" y="-491.3" font-family="Times,serif" font-size="14.00">&#45;8097187263254041531 (Visualisation)</text>
</g>
<!-- http://purl.org/dj/kaggle/finding&#45;boatids/activity/&#45;8097187263254041531&#45;&gt;http://purl.org/dj/kaggle/finding&#45;boatids/activity/8119126885614177511 -->
<g id="edge29" class="edge">
<title>http://purl.org/dj/kaggle/finding&#45;boatids/activity/&#45;8097187263254041531&#45;&gt;http://purl.org/dj/kaggle/finding&#45;boatids/activity/8119126885614177511</title>
<path fill="none" stroke="black" d="M3096.46,-477.41C3069.27,-463.89 3030.71,-444.73 3001.32,-430.12"/>
<polygon fill="black" stroke="black" points="3002.64,-426.87 2992.13,-425.55 2999.53,-433.13 3002.64,-426.87"/>
<text text-anchor="middle" x="3077.34" y="-447.8" font-family="Times,serif" font-size="14.00">previous</text>
</g>
<!-- http://purl.org/dj/kaggle/finding&#45;boatids/activity/&#45;8097187263254041531&#45;&gt;http://purl.org/dj/kaggle/finding&#45;boatids/activity/&#45;2362960001945340057 -->
<g id="edge30" class="edge">
<title>http://purl.org/dj/kaggle/finding&#45;boatids/activity/&#45;8097187263254041531&#45;&gt;http://purl.org/dj/kaggle/finding&#45;boatids/activity/&#45;2362960001945340057</title>
<path fill="none" stroke="black" d="M3234.83,-481.97C3300.84,-472.07 3386.83,-454.84 3458.84,-426 3542.98,-392.3 3566.2,-380.51 3631.84,-318 3684.09,-268.24 3754.01,-228.6 3706.84,-174 3661.38,-121.39 2673.4,-109.38 2305.38,-106.73"/>
<polygon fill="black" stroke="black" points="2305.23,-103.22 2295.2,-106.65 2305.18,-110.22 2305.23,-103.22"/>
<text text-anchor="middle" x="3694.34" y="-296.3" font-family="Times,serif" font-size="14.00">previous</text>
</g>
<!-- http://purl.org/dj/kaggle/finding&#45;boatids/activity/&#45;8097187263254041531&#45;&gt;http://purl.org/dj/kaggle/finding&#45;boatids/activity/3543405834108084288 -->
<g id="edge31" class="edge">
<title>http://purl.org/dj/kaggle/finding&#45;boatids/activity/&#45;8097187263254041531&#45;&gt;http://purl.org/dj/kaggle/finding&#45;boatids/activity/3543405834108084288</title>
<path fill="none" stroke="black" d="M3129.84,-476.95C3129.84,-427.09 3129.84,-281.2 3129.84,-220.25"/>
<polygon fill="black" stroke="black" points="3133.34,-220.23 3129.84,-210.23 3126.34,-220.23 3133.34,-220.23"/>
<text text-anchor="middle" x="3153.34" y="-350.3" font-family="Times,serif" font-size="14.00">previous</text>
</g>
<!-- http://purl.org/dj/kaggle/finding&#45;boatids/activity/&#45;8097187263254041531&#45;&gt;http://purl.org/dj/kaggle/finding&#45;boatids/activity/2198125748744592231 -->
<g id="edge32" class="edge">
<title>http://purl.org/dj/kaggle/finding&#45;boatids/activity/&#45;8097187263254041531&#45;&gt;http://purl.org/dj/kaggle/finding&#45;boatids/activity/2198125748744592231</title>
<path fill="none" stroke="black" d="M2978.89,-492.99C2430.4,-488.58 570.71,-466.65 488.84,-372 448.21,-325.03 506.33,-254.34 543.3,-217.42"/>
<polygon fill="black" stroke="black" points="546.11,-219.57 550.82,-210.08 541.22,-214.56 546.11,-219.57"/>
<text text-anchor="middle" x="512.34" y="-350.3" font-family="Times,serif" font-size="14.00">previous</text>
</g>
<!-- http://purl.org/dj/kaggle/finding&#45;boatids/activity/766290512041822086 -->
<g id="node17" class="node">
<title>http://purl.org/dj/kaggle/finding&#45;boatids/activity/766290512041822086</title>
<ellipse fill="none" stroke="black" cx="3808.84" cy="-354" rx="138.38" ry="18"/>
<text text-anchor="middle" x="3808.84" y="-350.3" font-family="Times,serif" font-size="14.00">766290512041822086 (Preparation)</text>
</g>
<!-- http://purl.org/dj/kaggle/finding&#45;boatids/activity/&#45;8097187263254041531&#45;&gt;http://purl.org/dj/kaggle/finding&#45;boatids/activity/766290512041822086 -->
<g id="edge33" class="edge">
<title>http://purl.org/dj/kaggle/finding&#45;boatids/activity/&#45;8097187263254041531&#45;&gt;http://purl.org/dj/kaggle/finding&#45;boatids/activity/766290512041822086</title>
<path fill="none" stroke="black" d="M3281.19,-493.76C3415.61,-491.82 3601.09,-484.37 3669.84,-459 3715.96,-441.98 3759.74,-404.42 3785.44,-379.41"/>
<polygon fill="black" stroke="black" points="3788.18,-381.62 3792.82,-372.09 3783.25,-376.65 3788.18,-381.62"/>
<text text-anchor="middle" x="3723.34" y="-447.8" font-family="Times,serif" font-size="14.00">previous</text>
</g>
<!-- http://purl.org/dj/kaggle/finding&#45;boatids/activity/3573047409032032239 -->
<g id="node18" class="node">
<title>http://purl.org/dj/kaggle/finding&#45;boatids/activity/3573047409032032239</title>
<ellipse fill="none" stroke="black" cx="320.84" cy="-408" rx="142.97" ry="18"/>
<text text-anchor="middle" x="320.84" y="-404.3" font-family="Times,serif" font-size="14.00">3573047409032032239 (Preparation)</text>
</g>
<!-- http://purl.org/dj/kaggle/finding&#45;boatids/activity/&#45;8097187263254041531&#45;&gt;http://purl.org/dj/kaggle/finding&#45;boatids/activity/3573047409032032239 -->
<g id="edge34" class="edge">
<title>http://purl.org/dj/kaggle/finding&#45;boatids/activity/&#45;8097187263254041531&#45;&gt;http://purl.org/dj/kaggle/finding&#45;boatids/activity/3573047409032032239</title>
<path fill="none" stroke="black" d="M2978.74,-493.76C2428.26,-492.66 555.57,-486.87 430.84,-459 405.45,-453.33 378.85,-441.42 358.16,-430.65"/>
<polygon fill="black" stroke="black" points="359.57,-427.43 349.1,-425.8 356.27,-433.6 359.57,-427.43"/>
<text text-anchor="middle" x="454.34" y="-447.8" font-family="Times,serif" font-size="14.00">previous</text>
</g>
<!-- http://purl.org/dj/kaggle/finding&#45;boatids/activity/&#45;3771518801513174715 -->
<g id="node19" class="node">
<title>http://purl.org/dj/kaggle/finding&#45;boatids/activity/&#45;3771518801513174715</title>
<ellipse fill="none" stroke="black" cx="3961.84" cy="-246" rx="145.67" ry="18"/>
<text text-anchor="middle" x="3961.84" y="-242.3" font-family="Times,serif" font-size="14.00">&#45;3771518801513174715 (Preparation)</text>
</g>
<!-- http://purl.org/dj/kaggle/finding&#45;boatids/activity/&#45;8097187263254041531&#45;&gt;http://purl.org/dj/kaggle/finding&#45;boatids/activity/&#45;3771518801513174715 -->
<g id="edge35" class="edge">
<title>http://purl.org/dj/kaggle/finding&#45;boatids/activity/&#45;8097187263254041531&#45;&gt;http://purl.org/dj/kaggle/finding&#45;boatids/activity/&#45;3771518801513174715</title>
<path fill="none" stroke="black" d="M3279.09,-491.72C3433.75,-488.26 3664.68,-479.73 3750.84,-459 3843.9,-436.61 3891.2,-449.16 3947.84,-372 3968.6,-343.72 3968.81,-301.7 3966.1,-274.32"/>
<polygon fill="black" stroke="black" points="3969.56,-273.78 3964.9,-264.26 3962.6,-274.61 3969.56,-273.78"/>
<text text-anchor="middle" x="3955.34" y="-404.3" font-family="Times,serif" font-size="14.00">previous</text>
</g>
<!-- http://purl.org/dj/kaggle/finding&#45;boatids/activity/766290512041822086&#45;&gt;http://purl.org/dj/kaggle/finding&#45;boatids/activity/&#45;2362960001945340057 -->
<g id="edge36" class="edge">
<title>http://purl.org/dj/kaggle/finding&#45;boatids/activity/766290512041822086&#45;&gt;http://purl.org/dj/kaggle/finding&#45;boatids/activity/&#45;2362960001945340057</title>
<path fill="none" stroke="black" d="M3797,-335.77C3785.67,-318.42 3768.98,-290.51 3759.84,-264 3741.77,-211.64 3781.62,-177.35 3739.84,-141 3712.95,-117.61 2682.55,-109.08 2305.36,-106.74"/>
<polygon fill="black" stroke="black" points="2305.23,-103.24 2295.21,-106.68 2305.19,-110.24 2305.23,-103.24"/>
<text text-anchor="middle" x="3783.34" y="-242.3" font-family="Times,serif" font-size="14.00">previous</text>
</g>
<!-- http://purl.org/dj/kaggle/finding&#45;boatids/activity/3573047409032032239&#45;&gt;http://purl.org/dj/kaggle/finding&#45;boatids/activity/&#45;238439063657573623 -->
<g id="edge37" class="edge">
<title>http://purl.org/dj/kaggle/finding&#45;boatids/activity/3573047409032032239&#45;&gt;http://purl.org/dj/kaggle/finding&#45;boatids/activity/&#45;238439063657573623</title>
<path fill="none" stroke="black" d="M434.77,-397.12C488.99,-391.45 554.55,-383.21 612.84,-372 673.82,-360.28 686.34,-344.65 747.84,-336 914.16,-312.61 2036.15,-304.14 2454.77,-301.77"/>
<polygon fill="black" stroke="black" points="2454.85,-305.27 2464.83,-301.72 2454.81,-298.27 2454.85,-305.27"/>
<text text-anchor="middle" x="771.34" y="-350.3" font-family="Times,serif" font-size="14.00">previous</text>
</g>
<!-- http://purl.org/dj/kaggle/finding&#45;boatids/activity/3573047409032032239&#45;&gt;http://purl.org/dj/kaggle/finding&#45;boatids/activity/&#45;2362960001945340057 -->
<g id="edge38" class="edge">
<title>http://purl.org/dj/kaggle/finding&#45;boatids/activity/3573047409032032239&#45;&gt;http://purl.org/dj/kaggle/finding&#45;boatids/activity/&#45;2362960001945340057</title>
<path fill="none" stroke="black" d="M318.64,-389.95C314.24,-348.31 308.76,-240.01 359.84,-174 381.88,-145.52 398.69,-148.85 433.84,-141 587.66,-106.63 1649.39,-105.06 2031.88,-105.64"/>
<polygon fill="black" stroke="black" points="2031.89,-109.14 2041.9,-105.65 2031.9,-102.14 2031.89,-109.14"/>
<text text-anchor="middle" x="355.34" y="-242.3" font-family="Times,serif" font-size="14.00">previous</text>
</g>
<!-- http://purl.org/dj/kaggle/finding&#45;boatids/activity/3573047409032032239&#45;&gt;http://purl.org/dj/kaggle/finding&#45;boatids/activity/7617666768526148699 -->
<g id="edge39" class="edge">
<title>http://purl.org/dj/kaggle/finding&#45;boatids/activity/3573047409032032239&#45;&gt;http://purl.org/dj/kaggle/finding&#45;boatids/activity/7617666768526148699</title>
<path fill="none" stroke="black" d="M287.28,-390.32C277.99,-385.03 268.17,-378.78 259.84,-372 222.86,-341.93 187.64,-299 167.15,-272.08"/>
<polygon fill="black" stroke="black" points="169.83,-269.83 161.03,-263.94 164.24,-274.04 169.83,-269.83"/>
<text text-anchor="middle" x="283.34" y="-350.3" font-family="Times,serif" font-size="14.00">previous</text>
</g>
<!-- http://purl.org/dj/kaggle/finding&#45;boatids/activity/&#45;3771518801513174715&#45;&gt;http://purl.org/dj/kaggle/finding&#45;boatids/activity/&#45;2362960001945340057 -->
<g id="edge40" class="edge">
<title>http://purl.org/dj/kaggle/finding&#45;boatids/activity/&#45;3771518801513174715&#45;&gt;http://purl.org/dj/kaggle/finding&#45;boatids/activity/&#45;2362960001945340057</title>
<path fill="none" stroke="black" d="M3940.47,-228.19C3907.7,-203.54 3842.06,-158.64 3777.84,-141 3707.48,-121.67 2680.47,-110.58 2305,-107.16"/>
<polygon fill="black" stroke="black" points="2304.93,-103.65 2294.9,-107.06 2304.87,-110.65 2304.93,-103.65"/>
<text text-anchor="middle" x="3935.34" y="-188.3" font-family="Times,serif" font-size="14.00">previous</text>
</g>
<!-- http://purl.org/dj/kaggle/finding&#45;boatids/activity/&#45;1754684904361768283 -->
<g id="node20" class="node">
<title>http://purl.org/dj/kaggle/finding&#45;boatids/activity/&#45;1754684904361768283</title>
<ellipse fill="none" stroke="black" cx="1224.84" cy="-192" rx="145.67" ry="18"/>
<text text-anchor="middle" x="1224.84" y="-188.3" font-family="Times,serif" font-size="14.00">&#45;1754684904361768283 (Preparation)</text>
</g>
<!-- http://purl.org/dj/kaggle/finding&#45;boatids/activity/&#45;1754684904361768283&#45;&gt;http://purl.org/dj/kaggle/finding&#45;boatids/activity/&#45;2362960001945340057 -->
<g id="edge42" class="edge">
<title>http://purl.org/dj/kaggle/finding&#45;boatids/activity/&#45;1754684904361768283&#45;&gt;http://purl.org/dj/kaggle/finding&#45;boatids/activity/&#45;2362960001945340057</title>
<path fill="none" stroke="black" d="M1327.93,-179.27C1344.93,-177.44 1362.37,-175.62 1378.84,-174 1617.12,-150.6 1896.29,-127.6 2050.79,-115.27"/>
<polygon fill="black" stroke="black" points="2051.09,-118.76 2060.78,-114.47 2050.54,-111.78 2051.09,-118.76"/>
<text text-anchor="middle" x="1749.34" y="-144.8" font-family="Times,serif" font-size="14.00">previous</text>
</g>
<!-- http://purl.org/dj/kaggle/finding&#45;boatids/activity/1162587599077727381 -->
<g id="node21" class="node">
<title>http://purl.org/dj/kaggle/finding&#45;boatids/activity/1162587599077727381</title>
<ellipse fill="none" stroke="black" cx="1536.84" cy="-192" rx="148.67" ry="18"/>
<text text-anchor="middle" x="1536.84" y="-188.3" font-family="Times,serif" font-size="14.00">1162587599077727381 (Visualisation)</text>
</g>
<!-- http://purl.org/dj/kaggle/finding&#45;boatids/activity/1162587599077727381&#45;&gt;http://purl.org/dj/kaggle/finding&#45;boatids/activity/&#45;2362960001945340057 -->
<g id="edge43" class="edge">
<title>http://purl.org/dj/kaggle/finding&#45;boatids/activity/1162587599077727381&#45;&gt;http://purl.org/dj/kaggle/finding&#45;boatids/activity/&#45;2362960001945340057</title>
<path fill="none" stroke="black" d="M1632.48,-178.14C1750.59,-162.25 1950.48,-135.37 2070.03,-119.29"/>
<polygon fill="black" stroke="black" points="2070.83,-122.71 2080.28,-117.91 2069.9,-115.78 2070.83,-122.71"/>
<text text-anchor="middle" x="1913.34" y="-144.8" font-family="Times,serif" font-size="14.00">previous</text>
</g>
<!-- http://purl.org/dj/kaggle/finding&#45;boatids/activity/2415432056602921395 -->
<g id="node22" class="node">
<title>http://purl.org/dj/kaggle/finding&#45;boatids/activity/2415432056602921395</title>
<ellipse fill="none" stroke="black" cx="1852.84" cy="-192" rx="148.67" ry="18"/>
<text text-anchor="middle" x="1852.84" y="-188.3" font-family="Times,serif" font-size="14.00">2415432056602921395 (Visualisation)</text>
</g>
<!-- http://purl.org/dj/kaggle/finding&#45;boatids/activity/2415432056602921395&#45;&gt;http://purl.org/dj/kaggle/finding&#45;boatids/activity/&#45;2362960001945340057 -->
<g id="edge44" class="edge">
<title>http://purl.org/dj/kaggle/finding&#45;boatids/activity/2415432056602921395&#45;&gt;http://purl.org/dj/kaggle/finding&#45;boatids/activity/&#45;2362960001945340057</title>
<path fill="none" stroke="black" d="M1910.8,-175.41C1965,-160.83 2045.9,-139.07 2102.63,-123.81"/>
<polygon fill="black" stroke="black" points="2103.83,-127.11 2112.57,-121.13 2102.01,-120.35 2103.83,-127.11"/>
<text text-anchor="middle" x="2052.34" y="-144.8" font-family="Times,serif" font-size="14.00">previous</text>
</g>
<!-- http://purl.org/dj/kaggle/finding&#45;boatids/activity/8571049276065515510 -->
<g id="node23" class="node">
<title>http://purl.org/dj/kaggle/finding&#45;boatids/activity/8571049276065515510</title>
<ellipse fill="none" stroke="black" cx="2168.84" cy="-192" rx="148.67" ry="18"/>
<text text-anchor="middle" x="2168.84" y="-188.3" font-family="Times,serif" font-size="14.00">8571049276065515510 (Visualisation)</text>
</g>
<!-- http://purl.org/dj/kaggle/finding&#45;boatids/activity/8571049276065515510&#45;&gt;http://purl.org/dj/kaggle/finding&#45;boatids/activity/&#45;2362960001945340057 -->
<g id="edge45" class="edge">
<title>http://purl.org/dj/kaggle/finding&#45;boatids/activity/8571049276065515510&#45;&gt;http://purl.org/dj/kaggle/finding&#45;boatids/activity/&#45;2362960001945340057</title>
<path fill="none" stroke="black" d="M2168.84,-173.8C2168.84,-162.16 2168.84,-146.55 2168.84,-133.24"/>
<polygon fill="black" stroke="black" points="2172.34,-133.18 2168.84,-123.18 2165.34,-133.18 2172.34,-133.18"/>
<text text-anchor="middle" x="2192.34" y="-144.8" font-family="Times,serif" font-size="14.00">previous</text>
</g>
</g>
</svg>
