<?xml version="1.0" encoding="UTF-8" standalone="no"?>
<!DOCTYPE svg PUBLIC "-//W3C//DTD SVG 1.1//EN"
 "http://www.w3.org/Graphics/SVG/1.1/DTD/svg11.dtd">
<!-- Generated by graphviz version 2.47.1 (20210417.1919)
 -->
<!-- Pages: 1 -->
<svg width="1521pt" height="761pt"
 viewBox="0.00 0.00 1520.73 761.00" xmlns="http://www.w3.org/2000/svg" xmlns:xlink="http://www.w3.org/1999/xlink">
<g id="graph0" class="graph" transform="scale(1 1) rotate(0) translate(4 757)">
<polygon fill="white" stroke="transparent" points="-4,4 -4,-757 1516.73,-757 1516.73,4 -4,4"/>
<!-- http://purl.org/dj/kaggle/first&#45;look&#45;on&#45;the&#45;data/activity/2841720210509472052 -->
<g id="node1" class="node">
<title>http://purl.org/dj/kaggle/first&#45;look&#45;on&#45;the&#45;data/activity/2841720210509472052</title>
<ellipse fill="none" stroke="black" cx="830.73" cy="-192" rx="148.67" ry="18"/>
<text text-anchor="middle" x="830.73" y="-188.3" font-family="Times,serif" font-size="14.00">2841720210509472052 (Visualisation)</text>
</g>
<!-- http://purl.org/dj/kaggle/first&#45;look&#45;on&#45;the&#45;data/activity/&#45;3869026170704880226 -->
<g id="node2" class="node">
<title>http://purl.org/dj/kaggle/first&#45;look&#45;on&#45;the&#45;data/activity/&#45;3869026170704880226</title>
<ellipse fill="none" stroke="black" cx="830.73" cy="-105" rx="126.98" ry="18"/>
<text text-anchor="middle" x="830.73" y="-101.3" font-family="Times,serif" font-size="14.00">&#45;3869026170704880226 (Reuse)</text>
</g>
<!-- http://purl.org/dj/kaggle/first&#45;look&#45;on&#45;the&#45;data/activity/2841720210509472052&#45;&gt;http://purl.org/dj/kaggle/first&#45;look&#45;on&#45;the&#45;data/activity/&#45;3869026170704880226 -->
<g id="edge1" class="edge">
<title>http://purl.org/dj/kaggle/first&#45;look&#45;on&#45;the&#45;data/activity/2841720210509472052&#45;&gt;http://purl.org/dj/kaggle/first&#45;look&#45;on&#45;the&#45;data/activity/&#45;3869026170704880226</title>
<path fill="none" stroke="black" d="M830.73,-173.8C830.73,-162.16 830.73,-146.55 830.73,-133.24"/>
<polygon fill="black" stroke="black" points="834.23,-133.18 830.73,-123.18 827.23,-133.18 834.23,-133.18"/>
<text text-anchor="middle" x="854.23" y="-144.8" font-family="Times,serif" font-size="14.00">previous</text>
</g>
<!-- http://purl.org/dj/kaggle/first&#45;look&#45;on&#45;the&#45;data -->
<g id="node3" class="node">
<title>http://purl.org/dj/kaggle/first&#45;look&#45;on&#45;the&#45;data</title>
<ellipse fill="none" stroke="black" cx="191.73" cy="-18" rx="191.97" ry="18"/>
<text text-anchor="middle" x="191.73" y="-14.3" font-family="Times,serif" font-size="14.00">first&#45;look&#45;on&#45;the&#45;data (first&#45;look&#45;on&#45;the&#45;data.ipynb)</text>
</g>
<!-- http://purl.org/dj/kaggle/first&#45;look&#45;on&#45;the&#45;data/activity/&#45;3869026170704880226&#45;&gt;http://purl.org/dj/kaggle/first&#45;look&#45;on&#45;the&#45;data -->
<g id="edge2" class="edge">
<title>http://purl.org/dj/kaggle/first&#45;look&#45;on&#45;the&#45;data/activity/&#45;3869026170704880226&#45;&gt;http://purl.org/dj/kaggle/first&#45;look&#45;on&#45;the&#45;data</title>
<path fill="none" stroke="black" d="M741.55,-92.14C628.1,-77.05 431.97,-50.96 307.21,-34.36"/>
<polygon fill="black" stroke="black" points="307.61,-30.88 297.23,-33.03 306.68,-37.82 307.61,-30.88"/>
<text text-anchor="middle" x="573.23" y="-57.8" font-family="Times,serif" font-size="14.00">previous</text>
</g>
<!-- http://purl.org/dj/kaggle/first&#45;look&#45;on&#45;the&#45;data/activity/2860550789214515945 -->
<g id="node4" class="node">
<title>http://purl.org/dj/kaggle/first&#45;look&#45;on&#45;the&#45;data/activity/2860550789214515945</title>
<ellipse fill="none" stroke="black" cx="769.73" cy="-648" rx="142.97" ry="18"/>
<text text-anchor="middle" x="769.73" y="-644.3" font-family="Times,serif" font-size="14.00">2860550789214515945 (Preparation)</text>
</g>
<!-- http://purl.org/dj/kaggle/first&#45;look&#45;on&#45;the&#45;data/activity/2860550789214515945&#45;&gt;http://purl.org/dj/kaggle/first&#45;look&#45;on&#45;the&#45;data/activity/2841720210509472052 -->
<g id="edge3" class="edge">
<title>http://purl.org/dj/kaggle/first&#45;look&#45;on&#45;the&#45;data/activity/2860550789214515945&#45;&gt;http://purl.org/dj/kaggle/first&#45;look&#45;on&#45;the&#45;data/activity/2841720210509472052</title>
<path fill="none" stroke="black" d="M904.96,-642.15C1091.16,-633.63 1403.73,-611.91 1403.73,-562 1403.73,-562 1403.73,-562 1403.73,-278 1403.73,-266.43 1107.65,-227.57 941.15,-206.64"/>
<polygon fill="black" stroke="black" points="941.23,-203.12 930.87,-205.35 940.36,-210.06 941.23,-203.12"/>
<text text-anchor="middle" x="1427.23" y="-405.8" font-family="Times,serif" font-size="14.00">previous</text>
</g>
<!-- http://purl.org/dj/kaggle/first&#45;look&#45;on&#45;the&#45;data/activity/2860550789214515945&#45;&gt;http://purl.org/dj/kaggle/first&#45;look&#45;on&#45;the&#45;data/activity/&#45;3869026170704880226 -->
<g id="edge4" class="edge">
<title>http://purl.org/dj/kaggle/first&#45;look&#45;on&#45;the&#45;data/activity/2860550789214515945&#45;&gt;http://purl.org/dj/kaggle/first&#45;look&#45;on&#45;the&#45;data/activity/&#45;3869026170704880226</title>
<path fill="none" stroke="black" d="M908.91,-643.74C1112.02,-637.09 1465.73,-617.54 1465.73,-562 1465.73,-562 1465.73,-562 1465.73,-191 1465.73,-140.69 1148.58,-119.04 962.55,-110.66"/>
<polygon fill="black" stroke="black" points="962.56,-107.16 952.42,-110.21 962.25,-114.15 962.56,-107.16"/>
<text text-anchor="middle" x="1489.23" y="-362.3" font-family="Times,serif" font-size="14.00">previous</text>
</g>
<!-- http://purl.org/dj/kaggle/first&#45;look&#45;on&#45;the&#45;data/activity/&#45;9091114486986772694 -->
<g id="node5" class="node">
<title>http://purl.org/dj/kaggle/first&#45;look&#45;on&#45;the&#45;data/activity/&#45;9091114486986772694</title>
<ellipse fill="none" stroke="black" cx="512.73" cy="-192" rx="151.37" ry="18"/>
<text text-anchor="middle" x="512.73" y="-188.3" font-family="Times,serif" font-size="14.00">&#45;9091114486986772694 (Visualisation)</text>
</g>
<!-- http://purl.org/dj/kaggle/first&#45;look&#45;on&#45;the&#45;data/activity/2860550789214515945&#45;&gt;http://purl.org/dj/kaggle/first&#45;look&#45;on&#45;the&#45;data/activity/&#45;9091114486986772694 -->
<g id="edge5" class="edge">
<title>http://purl.org/dj/kaggle/first&#45;look&#45;on&#45;the&#45;data/activity/2860550789214515945&#45;&gt;http://purl.org/dj/kaggle/first&#45;look&#45;on&#45;the&#45;data/activity/&#45;9091114486986772694</title>
<path fill="none" stroke="black" d="M671.66,-634.81C630.82,-623.7 592.73,-602.48 592.73,-562 592.73,-562 592.73,-562 592.73,-278 592.73,-251.82 572.36,-230.41 552.17,-215.63"/>
<polygon fill="black" stroke="black" points="554.11,-212.72 543.89,-209.91 550.12,-218.47 554.11,-212.72"/>
<text text-anchor="middle" x="616.23" y="-405.8" font-family="Times,serif" font-size="14.00">previous</text>
</g>
<!-- http://purl.org/dj/kaggle/first&#45;look&#45;on&#45;the&#45;data/activity/&#45;7443233107504992464 -->
<g id="node6" class="node">
<title>http://purl.org/dj/kaggle/first&#45;look&#45;on&#45;the&#45;data/activity/&#45;7443233107504992464</title>
<ellipse fill="none" stroke="black" cx="409.73" cy="-366" rx="151.37" ry="18"/>
<text text-anchor="middle" x="409.73" y="-362.3" font-family="Times,serif" font-size="14.00">&#45;7443233107504992464 (Visualisation)</text>
</g>
<!-- http://purl.org/dj/kaggle/first&#45;look&#45;on&#45;the&#45;data/activity/2860550789214515945&#45;&gt;http://purl.org/dj/kaggle/first&#45;look&#45;on&#45;the&#45;data/activity/&#45;7443233107504992464 -->
<g id="edge6" class="edge">
<title>http://purl.org/dj/kaggle/first&#45;look&#45;on&#45;the&#45;data/activity/2860550789214515945&#45;&gt;http://purl.org/dj/kaggle/first&#45;look&#45;on&#45;the&#45;data/activity/&#45;7443233107504992464</title>
<path fill="none" stroke="black" d="M667.62,-635.38C630.57,-629.7 594.05,-621.91 578.73,-612 494.53,-557.54 440.87,-444.86 419.84,-393.52"/>
<polygon fill="black" stroke="black" points="423.03,-392.09 416.07,-384.11 416.54,-394.69 423.03,-392.09"/>
<text text-anchor="middle" x="515.23" y="-503.3" font-family="Times,serif" font-size="14.00">previous</text>
</g>
<!-- http://purl.org/dj/kaggle/first&#45;look&#45;on&#45;the&#45;data/activity/6502913538159469104 -->
<g id="node7" class="node">
<title>http://purl.org/dj/kaggle/first&#45;look&#45;on&#45;the&#45;data/activity/6502913538159469104</title>
<ellipse fill="none" stroke="black" cx="946.73" cy="-561" rx="148.67" ry="18"/>
<text text-anchor="middle" x="946.73" y="-557.3" font-family="Times,serif" font-size="14.00">6502913538159469104 (Visualisation)</text>
</g>
<!-- http://purl.org/dj/kaggle/first&#45;look&#45;on&#45;the&#45;data/activity/2860550789214515945&#45;&gt;http://purl.org/dj/kaggle/first&#45;look&#45;on&#45;the&#45;data/activity/6502913538159469104 -->
<g id="edge7" class="edge">
<title>http://purl.org/dj/kaggle/first&#45;look&#45;on&#45;the&#45;data/activity/2860550789214515945&#45;&gt;http://purl.org/dj/kaggle/first&#45;look&#45;on&#45;the&#45;data/activity/6502913538159469104</title>
<path fill="none" stroke="black" d="M804.28,-630.41C832.54,-616.84 872.68,-597.56 903.15,-582.93"/>
<polygon fill="black" stroke="black" points="904.77,-586.03 912.27,-578.55 901.74,-579.72 904.77,-586.03"/>
<text text-anchor="middle" x="893.23" y="-600.8" font-family="Times,serif" font-size="14.00">previous</text>
</g>
<!-- http://purl.org/dj/kaggle/first&#45;look&#45;on&#45;the&#45;data/activity/&#45;463867739345607370 -->
<g id="node8" class="node">
<title>http://purl.org/dj/kaggle/first&#45;look&#45;on&#45;the&#45;data/activity/&#45;463867739345607370</title>
<ellipse fill="none" stroke="black" cx="239.73" cy="-507" rx="147.57" ry="18"/>
<text text-anchor="middle" x="239.73" y="-503.3" font-family="Times,serif" font-size="14.00">&#45;463867739345607370 (Visualisation)</text>
</g>
<!-- http://purl.org/dj/kaggle/first&#45;look&#45;on&#45;the&#45;data/activity/2860550789214515945&#45;&gt;http://purl.org/dj/kaggle/first&#45;look&#45;on&#45;the&#45;data/activity/&#45;463867739345607370 -->
<g id="edge8" class="edge">
<title>http://purl.org/dj/kaggle/first&#45;look&#45;on&#45;the&#45;data/activity/2860550789214515945&#45;&gt;http://purl.org/dj/kaggle/first&#45;look&#45;on&#45;the&#45;data/activity/&#45;463867739345607370</title>
<path fill="none" stroke="black" d="M632.46,-642.89C537.84,-638.53 421.26,-629.7 375.73,-612 330.54,-594.43 287.72,-557.03 262.6,-532.2"/>
<polygon fill="black" stroke="black" points="264.92,-529.56 255.39,-524.93 259.95,-534.49 264.92,-529.56"/>
<text text-anchor="middle" x="399.23" y="-600.8" font-family="Times,serif" font-size="14.00">previous</text>
</g>
<!-- http://purl.org/dj/kaggle/first&#45;look&#45;on&#45;the&#45;data/activity/&#45;9091114486986772694&#45;&gt;http://purl.org/dj/kaggle/first&#45;look&#45;on&#45;the&#45;data/activity/&#45;3869026170704880226 -->
<g id="edge9" class="edge">
<title>http://purl.org/dj/kaggle/first&#45;look&#45;on&#45;the&#45;data/activity/&#45;9091114486986772694&#45;&gt;http://purl.org/dj/kaggle/first&#45;look&#45;on&#45;the&#45;data/activity/&#45;3869026170704880226</title>
<path fill="none" stroke="black" d="M571.43,-175.31C625.94,-160.74 707.04,-139.06 764,-123.84"/>
<polygon fill="black" stroke="black" points="765.23,-127.13 773.98,-121.17 763.42,-120.37 765.23,-127.13"/>
<text text-anchor="middle" x="715.23" y="-144.8" font-family="Times,serif" font-size="14.00">previous</text>
</g>
<!-- http://purl.org/dj/kaggle/first&#45;look&#45;on&#45;the&#45;data/activity/3846313153332907409 -->
<g id="node9" class="node">
<title>http://purl.org/dj/kaggle/first&#45;look&#45;on&#45;the&#45;data/activity/3846313153332907409</title>
<ellipse fill="none" stroke="black" cx="421.73" cy="-279" rx="142.97" ry="18"/>
<text text-anchor="middle" x="421.73" y="-275.3" font-family="Times,serif" font-size="14.00">3846313153332907409 (Preparation)</text>
</g>
<!-- http://purl.org/dj/kaggle/first&#45;look&#45;on&#45;the&#45;data/activity/&#45;9091114486986772694&#45;&gt;http://purl.org/dj/kaggle/first&#45;look&#45;on&#45;the&#45;data/activity/3846313153332907409 -->
<g id="edge10" class="edge">
<title>http://purl.org/dj/kaggle/first&#45;look&#45;on&#45;the&#45;data/activity/&#45;9091114486986772694&#45;&gt;http://purl.org/dj/kaggle/first&#45;look&#45;on&#45;the&#45;data/activity/3846313153332907409</title>
<path fill="none" stroke="black" d="M503.19,-210.05C496.87,-220.38 487.88,-233.37 477.73,-243 472.99,-247.51 467.57,-251.74 462.02,-255.61"/>
<polygon fill="black" stroke="black" points="459.7,-252.94 453.27,-261.36 463.55,-258.79 459.7,-252.94"/>
<text text-anchor="middle" x="514.23" y="-231.8" font-family="Times,serif" font-size="14.00">previous</text>
</g>
<!-- http://purl.org/dj/kaggle/first&#45;look&#45;on&#45;the&#45;data/activity/&#45;7443233107504992464&#45;&gt;http://purl.org/dj/kaggle/first&#45;look&#45;on&#45;the&#45;data/activity/&#45;3869026170704880226 -->
<g id="edge11" class="edge">
<title>http://purl.org/dj/kaggle/first&#45;look&#45;on&#45;the&#45;data/activity/&#45;7443233107504992464&#45;&gt;http://purl.org/dj/kaggle/first&#45;look&#45;on&#45;the&#45;data/activity/&#45;3869026170704880226</title>
<path fill="none" stroke="black" d="M343.75,-349.68C315.89,-339.59 286.15,-323.22 269.73,-297 240.18,-249.79 256.99,-215.86 293.73,-174 312.79,-152.29 322.16,-149.61 349.73,-141 412.01,-121.56 576.7,-112.82 696.04,-108.95"/>
<polygon fill="black" stroke="black" points="696.47,-112.44 706.36,-108.63 696.25,-105.45 696.47,-112.44"/>
<text text-anchor="middle" x="282.23" y="-231.8" font-family="Times,serif" font-size="14.00">previous</text>
</g>
<!-- http://purl.org/dj/kaggle/first&#45;look&#45;on&#45;the&#45;data/activity/&#45;7443233107504992464&#45;&gt;http://purl.org/dj/kaggle/first&#45;look&#45;on&#45;the&#45;data -->
<g id="edge12" class="edge">
<title>http://purl.org/dj/kaggle/first&#45;look&#45;on&#45;the&#45;data/activity/&#45;7443233107504992464&#45;&gt;http://purl.org/dj/kaggle/first&#45;look&#45;on&#45;the&#45;data</title>
<path fill="none" stroke="black" d="M326.9,-350.92C259.59,-337.05 175.73,-313.12 175.73,-280 175.73,-280 175.73,-280 175.73,-104 175.73,-84.41 179.89,-62.72 183.96,-46.15"/>
<polygon fill="black" stroke="black" points="187.45,-46.64 186.58,-36.08 180.68,-44.88 187.45,-46.64"/>
<text text-anchor="middle" x="199.23" y="-188.3" font-family="Times,serif" font-size="14.00">previous</text>
</g>
<!-- http://purl.org/dj/kaggle/first&#45;look&#45;on&#45;the&#45;data/activity/&#45;7443233107504992464&#45;&gt;http://purl.org/dj/kaggle/first&#45;look&#45;on&#45;the&#45;data/activity/3846313153332907409 -->
<g id="edge13" class="edge">
<title>http://purl.org/dj/kaggle/first&#45;look&#45;on&#45;the&#45;data/activity/&#45;7443233107504992464&#45;&gt;http://purl.org/dj/kaggle/first&#45;look&#45;on&#45;the&#45;data/activity/3846313153332907409</title>
<path fill="none" stroke="black" d="M421.21,-347.9C424.27,-342.42 427.17,-336.17 428.73,-330 430.58,-322.72 430.41,-314.72 429.36,-307.29"/>
<polygon fill="black" stroke="black" points="432.76,-306.45 427.42,-297.3 425.89,-307.79 432.76,-306.45"/>
<text text-anchor="middle" x="454.23" y="-318.8" font-family="Times,serif" font-size="14.00">previous</text>
</g>
<!-- http://purl.org/dj/kaggle/first&#45;look&#45;on&#45;the&#45;data/activity/6502913538159469104&#45;&gt;http://purl.org/dj/kaggle/first&#45;look&#45;on&#45;the&#45;data/activity/&#45;3869026170704880226 -->
<g id="edge14" class="edge">
<title>http://purl.org/dj/kaggle/first&#45;look&#45;on&#45;the&#45;data/activity/6502913538159469104&#45;&gt;http://purl.org/dj/kaggle/first&#45;look&#45;on&#45;the&#45;data/activity/&#45;3869026170704880226</title>
<path fill="none" stroke="black" d="M988.92,-543.62C1104.96,-495.92 1414.56,-349.3 1325.73,-174 1314.52,-151.88 1303.99,-149.63 1280.73,-141 1224.98,-120.32 1077.19,-111.86 966.07,-108.4"/>
<polygon fill="black" stroke="black" points="965.87,-104.89 955.77,-108.09 965.66,-111.89 965.87,-104.89"/>
<text text-anchor="middle" x="1341.23" y="-318.8" font-family="Times,serif" font-size="14.00">previous</text>
</g>
<!-- http://purl.org/dj/kaggle/first&#45;look&#45;on&#45;the&#45;data/activity/&#45;1529137416691544683 -->
<g id="node10" class="node">
<title>http://purl.org/dj/kaggle/first&#45;look&#45;on&#45;the&#45;data/activity/&#45;1529137416691544683</title>
<ellipse fill="none" stroke="black" cx="946.73" cy="-453" rx="145.67" ry="18"/>
<text text-anchor="middle" x="946.73" y="-449.3" font-family="Times,serif" font-size="14.00">&#45;1529137416691544683 (Preparation)</text>
</g>
<!-- http://purl.org/dj/kaggle/first&#45;look&#45;on&#45;the&#45;data/activity/6502913538159469104&#45;&gt;http://purl.org/dj/kaggle/first&#45;look&#45;on&#45;the&#45;data/activity/&#45;1529137416691544683 -->
<g id="edge15" class="edge">
<title>http://purl.org/dj/kaggle/first&#45;look&#45;on&#45;the&#45;data/activity/6502913538159469104&#45;&gt;http://purl.org/dj/kaggle/first&#45;look&#45;on&#45;the&#45;data/activity/&#45;1529137416691544683</title>
<path fill="none" stroke="black" d="M946.73,-542.97C946.73,-526.38 946.73,-500.88 946.73,-481.43"/>
<polygon fill="black" stroke="black" points="950.23,-481.34 946.73,-471.34 943.23,-481.34 950.23,-481.34"/>
<text text-anchor="middle" x="970.23" y="-503.3" font-family="Times,serif" font-size="14.00">previous</text>
</g>
<!-- http://purl.org/dj/kaggle/first&#45;look&#45;on&#45;the&#45;data/activity/&#45;463867739345607370&#45;&gt;http://purl.org/dj/kaggle/first&#45;look&#45;on&#45;the&#45;data/activity/3846313153332907409 -->
<g id="edge16" class="edge">
<title>http://purl.org/dj/kaggle/first&#45;look&#45;on&#45;the&#45;data/activity/&#45;463867739345607370&#45;&gt;http://purl.org/dj/kaggle/first&#45;look&#45;on&#45;the&#45;data/activity/3846313153332907409</title>
<path fill="none" stroke="black" d="M235.37,-488.83C228.49,-457.51 218.86,-390.46 249.73,-348 268.31,-322.46 298,-306.5 327.52,-296.54"/>
<polygon fill="black" stroke="black" points="328.61,-299.87 337.09,-293.51 326.5,-293.2 328.61,-299.87"/>
<text text-anchor="middle" x="254.23" y="-405.8" font-family="Times,serif" font-size="14.00">previous</text>
</g>
<!-- http://purl.org/dj/kaggle/first&#45;look&#45;on&#45;the&#45;data/activity/3846313153332907409&#45;&gt;http://purl.org/dj/kaggle/first&#45;look&#45;on&#45;the&#45;data/activity/2841720210509472052 -->
<g id="edge23" class="edge">
<title>http://purl.org/dj/kaggle/first&#45;look&#45;on&#45;the&#45;data/activity/3846313153332907409&#45;&gt;http://purl.org/dj/kaggle/first&#45;look&#45;on&#45;the&#45;data/activity/2841720210509472052</title>
<path fill="none" stroke="black" d="M492.51,-263.29C564.06,-248.42 674.5,-225.47 749.56,-209.87"/>
<polygon fill="black" stroke="black" points="750.37,-213.28 759.45,-207.81 748.95,-206.42 750.37,-213.28"/>
<text text-anchor="middle" x="674.23" y="-231.8" font-family="Times,serif" font-size="14.00">previous</text>
</g>
<!-- http://purl.org/dj/kaggle/first&#45;look&#45;on&#45;the&#45;data/activity/3846313153332907409&#45;&gt;http://purl.org/dj/kaggle/first&#45;look&#45;on&#45;the&#45;data/activity/&#45;3869026170704880226 -->
<g id="edge24" class="edge">
<title>http://purl.org/dj/kaggle/first&#45;look&#45;on&#45;the&#45;data/activity/3846313153332907409&#45;&gt;http://purl.org/dj/kaggle/first&#45;look&#45;on&#45;the&#45;data/activity/&#45;3869026170704880226</title>
<path fill="none" stroke="black" d="M379.4,-261.68C335.07,-242.26 275.74,-208.13 305.73,-174 331.81,-144.33 559.65,-123.84 706.49,-113.58"/>
<polygon fill="black" stroke="black" points="706.74,-117.08 716.48,-112.89 706.26,-110.09 706.74,-117.08"/>
<text text-anchor="middle" x="329.23" y="-188.3" font-family="Times,serif" font-size="14.00">previous</text>
</g>
<!-- http://purl.org/dj/kaggle/first&#45;look&#45;on&#45;the&#45;data/activity/3846313153332907409&#45;&gt;http://purl.org/dj/kaggle/first&#45;look&#45;on&#45;the&#45;data/activity/&#45;9091114486986772694 -->
<g id="edge25" class="edge">
<title>http://purl.org/dj/kaggle/first&#45;look&#45;on&#45;the&#45;data/activity/3846313153332907409&#45;&gt;http://purl.org/dj/kaggle/first&#45;look&#45;on&#45;the&#45;data/activity/&#45;9091114486986772694</title>
<path fill="none" stroke="black" d="M419.26,-260.66C418.72,-250.23 419.84,-237.22 426.73,-228 430.88,-222.45 436.07,-217.77 441.82,-213.84"/>
<polygon fill="black" stroke="black" points="443.81,-216.73 450.59,-208.59 440.22,-210.72 443.81,-216.73"/>
<text text-anchor="middle" x="450.23" y="-231.8" font-family="Times,serif" font-size="14.00">previous</text>
</g>
<!-- http://purl.org/dj/kaggle/first&#45;look&#45;on&#45;the&#45;data/activity/3846313153332907409&#45;&gt;http://purl.org/dj/kaggle/first&#45;look&#45;on&#45;the&#45;data/activity/&#45;7443233107504992464 -->
<g id="edge26" class="edge">
<title>http://purl.org/dj/kaggle/first&#45;look&#45;on&#45;the&#45;data/activity/3846313153332907409&#45;&gt;http://purl.org/dj/kaggle/first&#45;look&#45;on&#45;the&#45;data/activity/&#45;7443233107504992464</title>
<path fill="none" stroke="black" d="M392.75,-296.91C386.69,-301.91 381.13,-307.97 377.73,-315 373.66,-323.45 376.53,-332.22 381.92,-340.01"/>
<polygon fill="black" stroke="black" points="379.48,-342.54 388.55,-348.01 384.87,-338.08 379.48,-342.54"/>
<text text-anchor="middle" x="401.23" y="-318.8" font-family="Times,serif" font-size="14.00">previous</text>
</g>
<!-- http://purl.org/dj/kaggle/first&#45;look&#45;on&#45;the&#45;data/activity/&#45;1529137416691544683&#45;&gt;http://purl.org/dj/kaggle/first&#45;look&#45;on&#45;the&#45;data/activity/2841720210509472052 -->
<g id="edge17" class="edge">
<title>http://purl.org/dj/kaggle/first&#45;look&#45;on&#45;the&#45;data/activity/&#45;1529137416691544683&#45;&gt;http://purl.org/dj/kaggle/first&#45;look&#45;on&#45;the&#45;data/activity/2841720210509472052</title>
<path fill="none" stroke="black" d="M955.89,-434.84C967.63,-411.78 987.36,-369.14 994.73,-330 1002.6,-288.28 961.93,-229.07 960.73,-228 952.39,-220.52 942.6,-214.61 932.22,-209.96"/>
<polygon fill="black" stroke="black" points="933.54,-206.71 922.96,-206.17 930.89,-213.2 933.54,-206.71"/>
<text text-anchor="middle" x="1020.23" y="-318.8" font-family="Times,serif" font-size="14.00">previous</text>
</g>
<!-- http://purl.org/dj/kaggle/first&#45;look&#45;on&#45;the&#45;data/activity/&#45;1529137416691544683&#45;&gt;http://purl.org/dj/kaggle/first&#45;look&#45;on&#45;the&#45;data/activity/&#45;3869026170704880226 -->
<g id="edge18" class="edge">
<title>http://purl.org/dj/kaggle/first&#45;look&#45;on&#45;the&#45;data/activity/&#45;1529137416691544683&#45;&gt;http://purl.org/dj/kaggle/first&#45;look&#45;on&#45;the&#45;data/activity/&#45;3869026170704880226</title>
<path fill="none" stroke="black" d="M980.72,-435.46C1080.74,-385.75 1363.66,-237.29 1308.73,-174 1265.24,-123.88 1092.69,-109.75 967.37,-106.26"/>
<polygon fill="black" stroke="black" points="967.38,-102.76 957.29,-106 967.2,-109.75 967.38,-102.76"/>
<text text-anchor="middle" x="1290.23" y="-275.3" font-family="Times,serif" font-size="14.00">previous</text>
</g>
<!-- http://purl.org/dj/kaggle/first&#45;look&#45;on&#45;the&#45;data/activity/&#45;1529137416691544683&#45;&gt;http://purl.org/dj/kaggle/first&#45;look&#45;on&#45;the&#45;data/activity/&#45;9091114486986772694 -->
<g id="edge19" class="edge">
<title>http://purl.org/dj/kaggle/first&#45;look&#45;on&#45;the&#45;data/activity/&#45;1529137416691544683&#45;&gt;http://purl.org/dj/kaggle/first&#45;look&#45;on&#45;the&#45;data/activity/&#45;9091114486986772694</title>
<path fill="none" stroke="black" d="M947.94,-434.76C948.59,-412.56 946.59,-373.77 927.73,-348 862.16,-258.38 738.53,-220.55 643.2,-204.59"/>
<polygon fill="black" stroke="black" points="643.62,-201.11 633.19,-202.98 642.51,-208.02 643.62,-201.11"/>
<text text-anchor="middle" x="934.23" y="-318.8" font-family="Times,serif" font-size="14.00">previous</text>
</g>
<!-- http://purl.org/dj/kaggle/first&#45;look&#45;on&#45;the&#45;data/activity/&#45;1529137416691544683&#45;&gt;http://purl.org/dj/kaggle/first&#45;look&#45;on&#45;the&#45;data/activity/&#45;7443233107504992464 -->
<g id="edge20" class="edge">
<title>http://purl.org/dj/kaggle/first&#45;look&#45;on&#45;the&#45;data/activity/&#45;1529137416691544683&#45;&gt;http://purl.org/dj/kaggle/first&#45;look&#45;on&#45;the&#45;data/activity/&#45;7443233107504992464</title>
<path fill="none" stroke="black" d="M813.41,-445.76C710.39,-440.04 576.73,-430.42 523.73,-417 498,-410.49 470.72,-398.71 449.3,-388.23"/>
<polygon fill="black" stroke="black" points="450.71,-385.02 440.2,-383.68 447.58,-391.28 450.71,-385.02"/>
<text text-anchor="middle" x="547.23" y="-405.8" font-family="Times,serif" font-size="14.00">previous</text>
</g>
<!-- http://purl.org/dj/kaggle/first&#45;look&#45;on&#45;the&#45;data/activity/5147596650858503835 -->
<g id="node11" class="node">
<title>http://purl.org/dj/kaggle/first&#45;look&#45;on&#45;the&#45;data/activity/5147596650858503835</title>
<ellipse fill="none" stroke="black" cx="769.73" cy="-366" rx="148.67" ry="18"/>
<text text-anchor="middle" x="769.73" y="-362.3" font-family="Times,serif" font-size="14.00">5147596650858503835 (Visualisation)</text>
</g>
<!-- http://purl.org/dj/kaggle/first&#45;look&#45;on&#45;the&#45;data/activity/&#45;1529137416691544683&#45;&gt;http://purl.org/dj/kaggle/first&#45;look&#45;on&#45;the&#45;data/activity/5147596650858503835 -->
<g id="edge21" class="edge">
<title>http://purl.org/dj/kaggle/first&#45;look&#45;on&#45;the&#45;data/activity/&#45;1529137416691544683&#45;&gt;http://purl.org/dj/kaggle/first&#45;look&#45;on&#45;the&#45;data/activity/5147596650858503835</title>
<path fill="none" stroke="black" d="M912.19,-435.41C883.92,-421.84 843.79,-402.56 813.32,-387.93"/>
<polygon fill="black" stroke="black" points="814.72,-384.72 804.19,-383.55 811.69,-391.03 814.72,-384.72"/>
<text text-anchor="middle" x="893.23" y="-405.8" font-family="Times,serif" font-size="14.00">previous</text>
</g>
<!-- http://purl.org/dj/kaggle/first&#45;look&#45;on&#45;the&#45;data/activity/5147596650858503835&#45;&gt;http://purl.org/dj/kaggle/first&#45;look&#45;on&#45;the&#45;data/activity/3846313153332907409 -->
<g id="edge22" class="edge">
<title>http://purl.org/dj/kaggle/first&#45;look&#45;on&#45;the&#45;data/activity/5147596650858503835&#45;&gt;http://purl.org/dj/kaggle/first&#45;look&#45;on&#45;the&#45;data/activity/3846313153332907409</title>
<path fill="none" stroke="black" d="M706.71,-349.61C646.75,-334.96 556.62,-312.95 493.83,-297.61"/>
<polygon fill="black" stroke="black" points="494.54,-294.18 483.99,-295.21 492.88,-300.98 494.54,-294.18"/>
<text text-anchor="middle" x="640.23" y="-318.8" font-family="Times,serif" font-size="14.00">previous</text>
</g>
<!-- http://purl.org/dj/kaggle/first&#45;look&#45;on&#45;the&#45;data/activity/&#45;7413021225350739440 -->
<g id="node12" class="node">
<title>http://purl.org/dj/kaggle/first&#45;look&#45;on&#45;the&#45;data/activity/&#45;7413021225350739440</title>
<ellipse fill="none" stroke="black" cx="1148.73" cy="-192" rx="151.37" ry="18"/>
<text text-anchor="middle" x="1148.73" y="-188.3" font-family="Times,serif" font-size="14.00">&#45;7413021225350739440 (Visualisation)</text>
</g>
<!-- http://purl.org/dj/kaggle/first&#45;look&#45;on&#45;the&#45;data/activity/&#45;7413021225350739440&#45;&gt;http://purl.org/dj/kaggle/first&#45;look&#45;on&#45;the&#45;data/activity/&#45;3869026170704880226 -->
<g id="edge27" class="edge">
<title>http://purl.org/dj/kaggle/first&#45;look&#45;on&#45;the&#45;data/activity/&#45;7413021225350739440&#45;&gt;http://purl.org/dj/kaggle/first&#45;look&#45;on&#45;the&#45;data/activity/&#45;3869026170704880226</title>
<path fill="none" stroke="black" d="M1090.04,-175.31C1035.52,-160.74 954.42,-139.06 897.47,-123.84"/>
<polygon fill="black" stroke="black" points="898.05,-120.37 887.48,-121.17 896.24,-127.13 898.05,-120.37"/>
<text text-anchor="middle" x="1033.23" y="-144.8" font-family="Times,serif" font-size="14.00">previous</text>
</g>
<!-- http://purl.org/dj/kaggle/first&#45;look&#45;on&#45;the&#45;data/activity/2044886275084749758 -->
<g id="node13" class="node">
<title>http://purl.org/dj/kaggle/first&#45;look&#45;on&#45;the&#45;data/activity/2044886275084749758</title>
<ellipse fill="none" stroke="black" cx="769.73" cy="-735" rx="148.67" ry="18"/>
<text text-anchor="middle" x="769.73" y="-731.3" font-family="Times,serif" font-size="14.00">2044886275084749758 (Visualisation)</text>
</g>
<!-- http://purl.org/dj/kaggle/first&#45;look&#45;on&#45;the&#45;data/activity/2044886275084749758&#45;&gt;http://purl.org/dj/kaggle/first&#45;look&#45;on&#45;the&#45;data/activity/2860550789214515945 -->
<g id="edge28" class="edge">
<title>http://purl.org/dj/kaggle/first&#45;look&#45;on&#45;the&#45;data/activity/2044886275084749758&#45;&gt;http://purl.org/dj/kaggle/first&#45;look&#45;on&#45;the&#45;data/activity/2860550789214515945</title>
<path fill="none" stroke="black" d="M769.73,-716.8C769.73,-705.16 769.73,-689.55 769.73,-676.24"/>
<polygon fill="black" stroke="black" points="773.23,-676.18 769.73,-666.18 766.23,-676.18 773.23,-676.18"/>
<text text-anchor="middle" x="793.23" y="-687.8" font-family="Times,serif" font-size="14.00">previous</text>
</g>
</g>
</svg>
