<?xml version="1.0" encoding="UTF-8" standalone="no"?>
<!DOCTYPE svg PUBLIC "-//W3C//DTD SVG 1.1//EN"
 "http://www.w3.org/Graphics/SVG/1.1/DTD/svg11.dtd">
<!-- Generated by graphviz version 2.44.1 (20200629.0846)
 -->
<!-- Pages: 1 -->
<svg width="1388pt" height="848pt"
 viewBox="0.00 0.00 1387.64 848.00" xmlns="http://www.w3.org/2000/svg" xmlns:xlink="http://www.w3.org/1999/xlink">
<g id="graph0" class="graph" transform="scale(1 1) rotate(0) translate(4 844)">
<polygon fill="white" stroke="transparent" points="-4,4 -4,-844 1383.64,-844 1383.64,4 -4,4"/>
<!-- http://purl.org/dj/kaggle/getting&#45;started&#45;with&#45;sql&#45;and&#45;bigquery#873465176 -->
<g id="node1" class="node">
<title>http://purl.org/dj/kaggle/getting&#45;started&#45;with&#45;sql&#45;and&#45;bigquery#873465176</title>
<ellipse fill="none" stroke="black" cx="942.64" cy="-474" rx="142.17" ry="18"/>
<text text-anchor="middle" x="942.64" y="-470.3" font-family="Times,serif" font-size="14.00">873465176 (dataset_ref(0)$0: Reuse)</text>
</g>
<!-- http://purl.org/dj/kaggle/getting&#45;started&#45;with&#45;sql&#45;and&#45;bigquery#693372172 -->
<g id="node2" class="node">
<title>http://purl.org/dj/kaggle/getting&#45;started&#45;with&#45;sql&#45;and&#45;bigquery#693372172</title>
<ellipse fill="none" stroke="black" cx="1149.64" cy="-366" rx="141.07" ry="18"/>
<text text-anchor="middle" x="1149.64" y="-362.3" font-family="Times,serif" font-size="14.00">693372172 (hacker_news(0): Reuse)</text>
</g>
<!-- http://purl.org/dj/kaggle/getting&#45;started&#45;with&#45;sql&#45;and&#45;bigquery#873465176&#45;&gt;http://purl.org/dj/kaggle/getting&#45;started&#45;with&#45;sql&#45;and&#45;bigquery#693372172 -->
<g id="edge1" class="edge">
<title>http://purl.org/dj/kaggle/getting&#45;started&#45;with&#45;sql&#45;and&#45;bigquery#873465176&#45;&gt;http://purl.org/dj/kaggle/getting&#45;started&#45;with&#45;sql&#45;and&#45;bigquery#693372172</title>
<path fill="none" stroke="black" d="M974.98,-456.44C1010.88,-438.06 1068.91,-408.34 1108.13,-388.25"/>
<polygon fill="black" stroke="black" points="1109.88,-391.29 1117.18,-383.62 1106.68,-385.06 1109.88,-391.29"/>
<text text-anchor="middle" x="1095.64" y="-416.3" font-family="Times,serif" font-size="14.00">dataset</text>
</g>
<!-- http://purl.org/dj/kaggle/getting&#45;started&#45;with&#45;sql&#45;and&#45;bigquery#1825900637 -->
<g id="node3" class="node">
<title>http://purl.org/dj/kaggle/getting&#45;started&#45;with&#45;sql&#45;and&#45;bigquery#1825900637</title>
<ellipse fill="none" stroke="black" cx="817.64" cy="-366" rx="172.77" ry="18"/>
<text text-anchor="middle" x="817.64" y="-362.3" font-family="Times,serif" font-size="14.00">1825900637 (bigquery&#45;public&#45;data(0): Reuse)</text>
</g>
<!-- http://purl.org/dj/kaggle/getting&#45;started&#45;with&#45;sql&#45;and&#45;bigquery#873465176&#45;&gt;http://purl.org/dj/kaggle/getting&#45;started&#45;with&#45;sql&#45;and&#45;bigquery#1825900637 -->
<g id="edge2" class="edge">
<title>http://purl.org/dj/kaggle/getting&#45;started&#45;with&#45;sql&#45;and&#45;bigquery#873465176&#45;&gt;http://purl.org/dj/kaggle/getting&#45;started&#45;with&#45;sql&#45;and&#45;bigquery#1825900637</title>
<path fill="none" stroke="black" d="M931.88,-455.8C921.51,-440.26 904.62,-417.5 885.64,-402 879.56,-397.04 872.67,-392.5 865.67,-388.46"/>
<polygon fill="black" stroke="black" points="867.24,-385.33 856.78,-383.61 863.88,-391.48 867.24,-385.33"/>
<text text-anchor="middle" x="936.64" y="-416.3" font-family="Times,serif" font-size="14.00">dataset</text>
</g>
<!-- http://purl.org/dj/kaggle/getting&#45;started&#45;with&#45;sql&#45;and&#45;bigquery#395445077 -->
<g id="node4" class="node">
<title>http://purl.org/dj/kaggle/getting&#45;started&#45;with&#45;sql&#45;and&#45;bigquery#395445077</title>
<ellipse fill="none" stroke="black" cx="489.64" cy="-366" rx="123.48" ry="18"/>
<text text-anchor="middle" x="489.64" y="-362.3" font-family="Times,serif" font-size="14.00">395445077 (client(0)$0: Reuse)</text>
</g>
<!-- http://purl.org/dj/kaggle/getting&#45;started&#45;with&#45;sql&#45;and&#45;bigquery#873465176&#45;&gt;http://purl.org/dj/kaggle/getting&#45;started&#45;with&#45;sql&#45;and&#45;bigquery#395445077 -->
<g id="edge3" class="edge">
<title>http://purl.org/dj/kaggle/getting&#45;started&#45;with&#45;sql&#45;and&#45;bigquery#873465176&#45;&gt;http://purl.org/dj/kaggle/getting&#45;started&#45;with&#45;sql&#45;and&#45;bigquery#395445077</title>
<path fill="none" stroke="black" d="M890.88,-457.15C875.39,-451.75 858.56,-445.24 843.64,-438 816.68,-424.92 814.88,-412 786.64,-402 785.46,-401.58 678.02,-388.98 592.71,-379.01"/>
<polygon fill="black" stroke="black" points="593.03,-375.53 582.69,-377.84 592.22,-382.48 593.03,-375.53"/>
<text text-anchor="middle" x="862.64" y="-416.3" font-family="Times,serif" font-size="14.00">dataset</text>
</g>
<!-- http://purl.org/dj/kaggle/getting&#45;started&#45;with&#45;sql&#45;and&#45;bigquery -->
<g id="node5" class="node">
<title>http://purl.org/dj/kaggle/getting&#45;started&#45;with&#45;sql&#45;and&#45;bigquery</title>
<ellipse fill="none" stroke="black" cx="756.64" cy="-18" rx="142.97" ry="18"/>
<text text-anchor="middle" x="756.64" y="-14.3" font-family="Times,serif" font-size="14.00">getting&#45;started&#45;with&#45;sql&#45;and&#45;bigquery</text>
</g>
<!-- http://purl.org/dj/kaggle/getting&#45;started&#45;with&#45;sql&#45;and&#45;bigquery#693372172&#45;&gt;http://purl.org/dj/kaggle/getting&#45;started&#45;with&#45;sql&#45;and&#45;bigquery -->
<g id="edge4" class="edge">
<title>http://purl.org/dj/kaggle/getting&#45;started&#45;with&#45;sql&#45;and&#45;bigquery#693372172&#45;&gt;http://purl.org/dj/kaggle/getting&#45;started&#45;with&#45;sql&#45;and&#45;bigquery</title>
<path fill="none" stroke="black" d="M1084.51,-349.94C1049.99,-337.69 1014.64,-316.28 1014.64,-280 1014.64,-280 1014.64,-280 1014.64,-104 1014.64,-69.66 931.12,-46.88 859.13,-33.62"/>
<polygon fill="black" stroke="black" points="859.51,-30.13 849.05,-31.81 858.28,-37.02 859.51,-30.13"/>
<text text-anchor="middle" x="1060.14" y="-188.3" font-family="Times,serif" font-size="14.00">previousActivity</text>
</g>
<!-- http://purl.org/dj/kaggle/getting&#45;started&#45;with&#45;sql&#45;and&#45;bigquery#1825900637&#45;&gt;http://purl.org/dj/kaggle/getting&#45;started&#45;with&#45;sql&#45;and&#45;bigquery -->
<g id="edge5" class="edge">
<title>http://purl.org/dj/kaggle/getting&#45;started&#45;with&#45;sql&#45;and&#45;bigquery#1825900637&#45;&gt;http://purl.org/dj/kaggle/getting&#45;started&#45;with&#45;sql&#45;and&#45;bigquery</title>
<path fill="none" stroke="black" d="M808.8,-347.92C800.92,-331.11 790.64,-304.46 790.64,-280 790.64,-280 790.64,-280 790.64,-104 790.64,-83.14 781.7,-61.33 772.99,-45.02"/>
<polygon fill="black" stroke="black" points="775.92,-43.1 767.96,-36.11 769.83,-46.54 775.92,-43.1"/>
<text text-anchor="middle" x="817.14" y="-188.3" font-family="Times,serif" font-size="14.00">appearsIn</text>
</g>
<!-- http://purl.org/dj/kaggle/getting&#45;started&#45;with&#45;sql&#45;and&#45;bigquery#439485418 -->
<g id="node6" class="node">
<title>http://purl.org/dj/kaggle/getting&#45;started&#45;with&#45;sql&#45;and&#45;bigquery#439485418</title>
<ellipse fill="none" stroke="black" cx="457.64" cy="-279" rx="126.18" ry="18"/>
<text text-anchor="middle" x="457.64" y="-275.3" font-family="Times,serif" font-size="14.00">439485418 (bigquery(0): Reuse)</text>
</g>
<!-- http://purl.org/dj/kaggle/getting&#45;started&#45;with&#45;sql&#45;and&#45;bigquery#395445077&#45;&gt;http://purl.org/dj/kaggle/getting&#45;started&#45;with&#45;sql&#45;and&#45;bigquery#439485418 -->
<g id="edge6" class="edge">
<title>http://purl.org/dj/kaggle/getting&#45;started&#45;with&#45;sql&#45;and&#45;bigquery#395445077&#45;&gt;http://purl.org/dj/kaggle/getting&#45;started&#45;with&#45;sql&#45;and&#45;bigquery#439485418</title>
<path fill="none" stroke="black" d="M483.16,-347.8C478.74,-336.05 472.79,-320.24 467.74,-306.84"/>
<polygon fill="black" stroke="black" points="470.9,-305.3 464.1,-297.18 464.35,-307.77 470.9,-305.3"/>
<text text-anchor="middle" x="491.64" y="-318.8" font-family="Times,serif" font-size="14.00">Client</text>
</g>
<!-- http://purl.org/dj/kaggle/getting&#45;started&#45;with&#45;sql&#45;and&#45;bigquery#439485418&#45;&gt;http://purl.org/dj/kaggle/getting&#45;started&#45;with&#45;sql&#45;and&#45;bigquery -->
<g id="edge18" class="edge">
<title>http://purl.org/dj/kaggle/getting&#45;started&#45;with&#45;sql&#45;and&#45;bigquery#439485418&#45;&gt;http://purl.org/dj/kaggle/getting&#45;started&#45;with&#45;sql&#45;and&#45;bigquery</title>
<path fill="none" stroke="black" d="M477.26,-261.01C529,-216.19 669.29,-94.66 729.07,-42.88"/>
<polygon fill="black" stroke="black" points="731.68,-45.25 736.95,-36.06 727.1,-39.96 731.68,-45.25"/>
<text text-anchor="middle" x="640.14" y="-144.8" font-family="Times,serif" font-size="14.00">appearsIn</text>
</g>
<!-- http://purl.org/dj/python/lib/251003753 -->
<g id="node13" class="node">
<title>http://purl.org/dj/python/lib/251003753</title>
<ellipse fill="none" stroke="black" cx="145.64" cy="-192" rx="116.18" ry="18"/>
<text text-anchor="middle" x="145.64" y="-188.3" font-family="Times,serif" font-size="14.00">251003753 (bigquery: Reuse)</text>
</g>
<!-- http://purl.org/dj/kaggle/getting&#45;started&#45;with&#45;sql&#45;and&#45;bigquery#439485418&#45;&gt;http://purl.org/dj/python/lib/251003753 -->
<g id="edge19" class="edge">
<title>http://purl.org/dj/kaggle/getting&#45;started&#45;with&#45;sql&#45;and&#45;bigquery#439485418&#45;&gt;http://purl.org/dj/python/lib/251003753</title>
<path fill="none" stroke="black" d="M340.93,-272.05C278.98,-267.14 210.26,-258.39 183.64,-243 173.77,-237.3 165.62,-227.91 159.43,-218.8"/>
<polygon fill="black" stroke="black" points="162.38,-216.91 154.11,-210.28 156.44,-220.61 162.38,-216.91"/>
<text text-anchor="middle" x="222.14" y="-231.8" font-family="Times,serif" font-size="14.00">assignedFrom</text>
</g>
<!-- http://purl.org/dj/python/lib/520815811 -->
<g id="node7" class="node">
<title>http://purl.org/dj/python/lib/520815811</title>
<ellipse fill="none" stroke="black" cx="130.64" cy="-105" rx="130.78" ry="18"/>
<text text-anchor="middle" x="130.64" y="-101.3" font-family="Times,serif" font-size="14.00">520815811 (google.cloud: Reuse)</text>
</g>
<!-- http://purl.org/dj/python/lib/520815811&#45;&gt;http://purl.org/dj/kaggle/getting&#45;started&#45;with&#45;sql&#45;and&#45;bigquery -->
<g id="edge7" class="edge">
<title>http://purl.org/dj/python/lib/520815811&#45;&gt;http://purl.org/dj/kaggle/getting&#45;started&#45;with&#45;sql&#45;and&#45;bigquery</title>
<path fill="none" stroke="black" d="M150.96,-87.08C166.12,-75.52 187.87,-61.07 209.64,-54 280.33,-31.04 468.43,-23.07 604.33,-20.34"/>
<polygon fill="black" stroke="black" points="604.5,-23.84 614.43,-20.15 604.36,-16.84 604.5,-23.84"/>
<text text-anchor="middle" x="242.64" y="-57.8" font-family="Times,serif" font-size="14.00">importedBy</text>
</g>
<!-- http://purl.org/dj/kaggle/getting&#45;started&#45;with&#45;sql&#45;and&#45;bigquery#654967930 -->
<g id="node8" class="node">
<title>http://purl.org/dj/kaggle/getting&#45;started&#45;with&#45;sql&#45;and&#45;bigquery#654967930</title>
<ellipse fill="none" stroke="black" cx="637.64" cy="-561" rx="135.38" ry="18"/>
<text text-anchor="middle" x="637.64" y="-557.3" font-family="Times,serif" font-size="14.00">654967930 (table_ref(0)$0: Reuse)</text>
</g>
<!-- http://purl.org/dj/kaggle/getting&#45;started&#45;with&#45;sql&#45;and&#45;bigquery#654967930&#45;&gt;http://purl.org/dj/kaggle/getting&#45;started&#45;with&#45;sql&#45;and&#45;bigquery#873465176 -->
<g id="edge8" class="edge">
<title>http://purl.org/dj/kaggle/getting&#45;started&#45;with&#45;sql&#45;and&#45;bigquery#654967930&#45;&gt;http://purl.org/dj/kaggle/getting&#45;started&#45;with&#45;sql&#45;and&#45;bigquery#873465176</title>
<path fill="none" stroke="black" d="M716.53,-546.34C745.42,-540.66 778.24,-533.42 807.64,-525 836.72,-516.67 868.48,-505.04 893.89,-495.09"/>
<polygon fill="black" stroke="black" points="895.28,-498.31 903.29,-491.37 892.71,-491.8 895.28,-498.31"/>
<text text-anchor="middle" x="866.14" y="-513.8" font-family="Times,serif" font-size="14.00">table</text>
</g>
<!-- http://purl.org/dj/kaggle/getting&#45;started&#45;with&#45;sql&#45;and&#45;bigquery#173802037 -->
<g id="node9" class="node">
<title>http://purl.org/dj/kaggle/getting&#45;started&#45;with&#45;sql&#45;and&#45;bigquery#173802037</title>
<ellipse fill="none" stroke="black" cx="140.64" cy="-420" rx="107.48" ry="18"/>
<text text-anchor="middle" x="140.64" y="-416.3" font-family="Times,serif" font-size="14.00">173802037 (full(0): Reuse)</text>
</g>
<!-- http://purl.org/dj/kaggle/getting&#45;started&#45;with&#45;sql&#45;and&#45;bigquery#654967930&#45;&gt;http://purl.org/dj/kaggle/getting&#45;started&#45;with&#45;sql&#45;and&#45;bigquery#173802037 -->
<g id="edge9" class="edge">
<title>http://purl.org/dj/kaggle/getting&#45;started&#45;with&#45;sql&#45;and&#45;bigquery#654967930&#45;&gt;http://purl.org/dj/kaggle/getting&#45;started&#45;with&#45;sql&#45;and&#45;bigquery#173802037</title>
<path fill="none" stroke="black" d="M531.62,-549.8C434.6,-540.38 304.34,-527.48 292.64,-525 246.44,-515.23 229.75,-519.89 191.64,-492 175.61,-480.27 162.65,-461.98 153.8,-446.91"/>
<polygon fill="black" stroke="black" points="156.77,-445.04 148.83,-438.02 150.66,-448.46 156.77,-445.04"/>
<text text-anchor="middle" x="306.14" y="-513.8" font-family="Times,serif" font-size="14.00">table</text>
</g>
<!-- http://purl.org/dj/kaggle/getting&#45;started&#45;with&#45;sql&#45;and&#45;bigquery#173802037&#45;&gt;http://purl.org/dj/kaggle/getting&#45;started&#45;with&#45;sql&#45;and&#45;bigquery -->
<g id="edge10" class="edge">
<title>http://purl.org/dj/kaggle/getting&#45;started&#45;with&#45;sql&#45;and&#45;bigquery#173802037&#45;&gt;http://purl.org/dj/kaggle/getting&#45;started&#45;with&#45;sql&#45;and&#45;bigquery</title>
<path fill="none" stroke="black" d="M157.72,-402.02C188.84,-371.6 257.59,-306.71 322.64,-261 452.23,-169.94 495.22,-163.98 633.64,-87 661.62,-71.44 693.24,-53.96 717.41,-40.62"/>
<polygon fill="black" stroke="black" points="719.22,-43.62 726.29,-35.72 715.84,-37.49 719.22,-43.62"/>
<text text-anchor="middle" x="396.14" y="-231.8" font-family="Times,serif" font-size="14.00">appearsIn</text>
</g>
<!-- http://purl.org/dj/kaggle/getting&#45;started&#45;with&#45;sql&#45;and&#45;bigquery#249561878 -->
<g id="node10" class="node">
<title>http://purl.org/dj/kaggle/getting&#45;started&#45;with&#45;sql&#45;and&#45;bigquery#249561878</title>
<ellipse fill="none" stroke="black" cx="940.64" cy="-822" rx="136.48" ry="18"/>
<text text-anchor="middle" x="940.64" y="-818.3" font-family="Times,serif" font-size="14.00">249561878 (print[0]: Visualisation)</text>
</g>
<!-- http://purl.org/dj/kaggle/getting&#45;started&#45;with&#45;sql&#45;and&#45;bigquery#249561878&#45;&gt;http://purl.org/dj/kaggle/getting&#45;started&#45;with&#45;sql&#45;and&#45;bigquery#693372172 -->
<g id="edge11" class="edge">
<title>http://purl.org/dj/kaggle/getting&#45;started&#45;with&#45;sql&#45;and&#45;bigquery#249561878&#45;&gt;http://purl.org/dj/kaggle/getting&#45;started&#45;with&#45;sql&#45;and&#45;bigquery#693372172</title>
<path fill="none" stroke="black" d="M1040.14,-809.67C1120.62,-797.63 1220.64,-774.86 1220.64,-736 1220.64,-736 1220.64,-736 1220.64,-473 1220.64,-440.79 1197.73,-410.97 1177.94,-391.22"/>
<polygon fill="black" stroke="black" points="1180.2,-388.54 1170.56,-384.16 1175.36,-393.6 1180.2,-388.54"/>
<text text-anchor="middle" x="1266.14" y="-600.8" font-family="Times,serif" font-size="14.00">previousActivity</text>
</g>
<!-- http://purl.org/dj/kaggle/getting&#45;started&#45;with&#45;sql&#45;and&#45;bigquery#249561878&#45;&gt;http://purl.org/dj/kaggle/getting&#45;started&#45;with&#45;sql&#45;and&#45;bigquery#1825900637 -->
<g id="edge12" class="edge">
<title>http://purl.org/dj/kaggle/getting&#45;started&#45;with&#45;sql&#45;and&#45;bigquery#249561878&#45;&gt;http://purl.org/dj/kaggle/getting&#45;started&#45;with&#45;sql&#45;and&#45;bigquery#1825900637</title>
<path fill="none" stroke="black" d="M938.32,-803.89C936.23,-780.74 936.42,-739.73 959.64,-717 995.67,-681.73 1031.18,-729.08 1071.64,-699 1084.72,-689.27 1083.45,-681.75 1087.64,-666 1099.65,-620.89 1119.76,-494.69 1093.64,-456 1072.48,-424.67 981.16,-399.47 909.28,-383.99"/>
<polygon fill="black" stroke="black" points="909.78,-380.52 899.27,-381.87 908.33,-387.36 909.78,-380.52"/>
<text text-anchor="middle" x="1146.14" y="-600.8" font-family="Times,serif" font-size="14.00">previousActivity</text>
</g>
<!-- http://purl.org/dj/kaggle/getting&#45;started&#45;with&#45;sql&#45;and&#45;bigquery#249561878&#45;&gt;http://purl.org/dj/kaggle/getting&#45;started&#45;with&#45;sql&#45;and&#45;bigquery#439485418 -->
<g id="edge15" class="edge">
<title>http://purl.org/dj/kaggle/getting&#45;started&#45;with&#45;sql&#45;and&#45;bigquery#249561878&#45;&gt;http://purl.org/dj/kaggle/getting&#45;started&#45;with&#45;sql&#45;and&#45;bigquery#439485418</title>
<path fill="none" stroke="black" d="M804.23,-821.02C564.24,-819.24 91.64,-806.73 91.64,-736 91.64,-736 91.64,-736 91.64,-603.5 91.64,-576.32 82.94,-563.64 100.64,-543 118.21,-522.51 138.22,-542.65 158.64,-525 184.36,-502.77 165.58,-477.83 191.64,-456 214.62,-436.75 230.32,-452.35 256.64,-438 309.43,-409.23 310.23,-384.98 357.64,-348 378.45,-331.76 402.95,-315.07 422.48,-302.29"/>
<polygon fill="black" stroke="black" points="424.6,-305.09 431.08,-296.71 420.79,-299.22 424.6,-305.09"/>
<text text-anchor="middle" x="146.14" y="-557.3" font-family="Times,serif" font-size="14.00">previousActivity</text>
</g>
<!-- http://purl.org/dj/kaggle/getting&#45;started&#45;with&#45;sql&#45;and&#45;bigquery#249561878&#45;&gt;http://purl.org/dj/python/lib/520815811 -->
<g id="edge13" class="edge">
<title>http://purl.org/dj/kaggle/getting&#45;started&#45;with&#45;sql&#45;and&#45;bigquery#249561878&#45;&gt;http://purl.org/dj/python/lib/520815811</title>
<path fill="none" stroke="black" d="M804.91,-819.72C612.09,-817.1 268.72,-809.23 146.64,-786 79.67,-773.26 1.64,-804.17 1.64,-736 1.64,-736 1.64,-736 1.64,-191 1.64,-158.43 30.67,-137.63 61.18,-124.77"/>
<polygon fill="black" stroke="black" points="62.65,-127.95 70.67,-121.03 60.08,-121.44 62.65,-127.95"/>
<text text-anchor="middle" x="47.14" y="-470.3" font-family="Times,serif" font-size="14.00">previousActivity</text>
</g>
<!-- http://purl.org/dj/kaggle/getting&#45;started&#45;with&#45;sql&#45;and&#45;bigquery#223085194 -->
<g id="node11" class="node">
<title>http://purl.org/dj/kaggle/getting&#45;started&#45;with&#45;sql&#45;and&#45;bigquery#223085194</title>
<ellipse fill="none" stroke="black" cx="1080.64" cy="-735" rx="112.38" ry="18"/>
<text text-anchor="middle" x="1080.64" y="-731.3" font-family="Times,serif" font-size="14.00">223085194 (table(0): Reuse)</text>
</g>
<!-- http://purl.org/dj/kaggle/getting&#45;started&#45;with&#45;sql&#45;and&#45;bigquery#249561878&#45;&gt;http://purl.org/dj/kaggle/getting&#45;started&#45;with&#45;sql&#45;and&#45;bigquery#223085194 -->
<g id="edge14" class="edge">
<title>http://purl.org/dj/kaggle/getting&#45;started&#45;with&#45;sql&#45;and&#45;bigquery#249561878&#45;&gt;http://purl.org/dj/kaggle/getting&#45;started&#45;with&#45;sql&#45;and&#45;bigquery#223085194</title>
<path fill="none" stroke="black" d="M968.3,-804.21C990.2,-790.91 1020.97,-772.23 1044.77,-757.78"/>
<polygon fill="black" stroke="black" points="1046.78,-760.65 1053.51,-752.47 1043.15,-754.67 1046.78,-760.65"/>
<text text-anchor="middle" x="1064.14" y="-774.8" font-family="Times,serif" font-size="14.00">previousActivity</text>
</g>
<!-- http://purl.org/dj/kaggle/getting&#45;started&#45;with&#45;sql&#45;and&#45;bigquery#223085194&#45;&gt;http://purl.org/dj/kaggle/getting&#45;started&#45;with&#45;sql&#45;and&#45;bigquery -->
<g id="edge16" class="edge">
<title>http://purl.org/dj/kaggle/getting&#45;started&#45;with&#45;sql&#45;and&#45;bigquery#223085194&#45;&gt;http://purl.org/dj/kaggle/getting&#45;started&#45;with&#45;sql&#45;and&#45;bigquery</title>
<path fill="none" stroke="black" d="M1159.83,-722.11C1231.74,-709.01 1326.64,-684.92 1326.64,-649 1326.64,-649 1326.64,-649 1326.64,-104 1326.64,-60.64 1065.32,-37.03 896.56,-26.3"/>
<polygon fill="black" stroke="black" points="896.54,-22.79 886.34,-25.66 896.1,-29.78 896.54,-22.79"/>
<text text-anchor="middle" x="1353.14" y="-362.3" font-family="Times,serif" font-size="14.00">appearsIn</text>
</g>
<!-- http://purl.org/dj/kaggle/getting&#45;started&#45;with&#45;sql&#45;and&#45;bigquery#395510609 -->
<g id="node12" class="node">
<title>http://purl.org/dj/kaggle/getting&#45;started&#45;with&#45;sql&#45;and&#45;bigquery#395510609</title>
<ellipse fill="none" stroke="black" cx="954.64" cy="-648" rx="124.28" ry="18"/>
<text text-anchor="middle" x="954.64" y="-644.3" font-family="Times,serif" font-size="14.00">395510609 (tables(0)$0: Reuse)</text>
</g>
<!-- http://purl.org/dj/kaggle/getting&#45;started&#45;with&#45;sql&#45;and&#45;bigquery#223085194&#45;&gt;http://purl.org/dj/kaggle/getting&#45;started&#45;with&#45;sql&#45;and&#45;bigquery#395510609 -->
<g id="edge17" class="edge">
<title>http://purl.org/dj/kaggle/getting&#45;started&#45;with&#45;sql&#45;and&#45;bigquery#223085194&#45;&gt;http://purl.org/dj/kaggle/getting&#45;started&#45;with&#45;sql&#45;and&#45;bigquery#395510609</title>
<path fill="none" stroke="black" d="M1056.05,-717.41C1036.66,-704.33 1009.42,-685.96 988.06,-671.55"/>
<polygon fill="black" stroke="black" points="989.85,-668.53 979.6,-665.84 985.93,-674.33 989.85,-668.53"/>
<text text-anchor="middle" x="1051.64" y="-687.8" font-family="Times,serif" font-size="14.00">iteratorOf</text>
</g>
<!-- http://purl.org/dj/kaggle/getting&#45;started&#45;with&#45;sql&#45;and&#45;bigquery#395510609&#45;&gt;http://purl.org/dj/kaggle/getting&#45;started&#45;with&#45;sql&#45;and&#45;bigquery#395445077 -->
<g id="edge25" class="edge">
<title>http://purl.org/dj/kaggle/getting&#45;started&#45;with&#45;sql&#45;and&#45;bigquery#395510609&#45;&gt;http://purl.org/dj/kaggle/getting&#45;started&#45;with&#45;sql&#45;and&#45;bigquery#395445077</title>
<path fill="none" stroke="black" d="M908.55,-631.24C880.48,-619.95 845.21,-602.56 819.64,-579 798.95,-559.94 800.62,-549.4 786.64,-525 769.34,-494.81 776.16,-478.53 749.64,-456 702.66,-416.09 636.87,-393.79 583.22,-381.5"/>
<polygon fill="black" stroke="black" points="583.88,-378.06 573.36,-379.32 582.36,-384.89 583.88,-378.06"/>
<text text-anchor="middle" x="795.14" y="-513.8" font-family="Times,serif" font-size="14.00">list</text>
</g>
<!-- http://purl.org/dj/kaggle/getting&#45;started&#45;with&#45;sql&#45;and&#45;bigquery#476447676 -->
<g id="node17" class="node">
<title>http://purl.org/dj/kaggle/getting&#45;started&#45;with&#45;sql&#45;and&#45;bigquery#476447676</title>
<ellipse fill="none" stroke="black" cx="956.64" cy="-561" rx="128.08" ry="18"/>
<text text-anchor="middle" x="956.64" y="-557.3" font-family="Times,serif" font-size="14.00">476447676 (dataset(0)$0: Reuse)</text>
</g>
<!-- http://purl.org/dj/kaggle/getting&#45;started&#45;with&#45;sql&#45;and&#45;bigquery#395510609&#45;&gt;http://purl.org/dj/kaggle/getting&#45;started&#45;with&#45;sql&#45;and&#45;bigquery#476447676 -->
<g id="edge26" class="edge">
<title>http://purl.org/dj/kaggle/getting&#45;started&#45;with&#45;sql&#45;and&#45;bigquery#395510609&#45;&gt;http://purl.org/dj/kaggle/getting&#45;started&#45;with&#45;sql&#45;and&#45;bigquery#476447676</title>
<path fill="none" stroke="black" d="M955.04,-629.8C955.32,-618.16 955.68,-602.55 956,-589.24"/>
<polygon fill="black" stroke="black" points="959.5,-589.26 956.23,-579.18 952.5,-589.09 959.5,-589.26"/>
<text text-anchor="middle" x="964.14" y="-600.8" font-family="Times,serif" font-size="14.00">list</text>
</g>
<!-- http://purl.org/dj/python/lib/251003753&#45;&gt;http://purl.org/dj/python/lib/520815811 -->
<g id="edge20" class="edge">
<title>http://purl.org/dj/python/lib/251003753&#45;&gt;http://purl.org/dj/python/lib/520815811</title>
<path fill="none" stroke="black" d="M142.6,-173.8C140.55,-162.16 137.79,-146.55 135.44,-133.24"/>
<polygon fill="black" stroke="black" points="138.85,-132.41 133.67,-123.18 131.96,-133.63 138.85,-132.41"/>
<text text-anchor="middle" x="172.64" y="-144.8" font-family="Times,serif" font-size="14.00">importedBy</text>
</g>
<!-- http://purl.org/dj/kaggle/getting&#45;started&#45;with&#45;sql&#45;and&#45;bigquery#316146398 -->
<g id="node14" class="node">
<title>http://purl.org/dj/kaggle/getting&#45;started&#45;with&#45;sql&#45;and&#45;bigquery#316146398</title>
<ellipse fill="none" stroke="black" cx="523.64" cy="-648" rx="120.78" ry="18"/>
<text text-anchor="middle" x="523.64" y="-644.3" font-family="Times,serif" font-size="14.00">316146398 (table(0)$0: Reuse)</text>
</g>
<!-- http://purl.org/dj/kaggle/getting&#45;started&#45;with&#45;sql&#45;and&#45;bigquery#316146398&#45;&gt;http://purl.org/dj/kaggle/getting&#45;started&#45;with&#45;sql&#45;and&#45;bigquery#395445077 -->
<g id="edge21" class="edge">
<title>http://purl.org/dj/kaggle/getting&#45;started&#45;with&#45;sql&#45;and&#45;bigquery#316146398&#45;&gt;http://purl.org/dj/kaggle/getting&#45;started&#45;with&#45;sql&#45;and&#45;bigquery#395445077</title>
<path fill="none" stroke="black" d="M513.88,-630.04C506.76,-616.66 497.67,-597.27 493.64,-579 479.29,-513.97 483.22,-434.97 486.77,-394.23"/>
<polygon fill="black" stroke="black" points="490.27,-394.31 487.72,-384.03 483.3,-393.66 490.27,-394.31"/>
<text text-anchor="middle" x="509.64" y="-513.8" font-family="Times,serif" font-size="14.00">get_table</text>
</g>
<!-- http://purl.org/dj/kaggle/getting&#45;started&#45;with&#45;sql&#45;and&#45;bigquery#316146398&#45;&gt;http://purl.org/dj/kaggle/getting&#45;started&#45;with&#45;sql&#45;and&#45;bigquery#654967930 -->
<g id="edge22" class="edge">
<title>http://purl.org/dj/kaggle/getting&#45;started&#45;with&#45;sql&#45;and&#45;bigquery#316146398&#45;&gt;http://purl.org/dj/kaggle/getting&#45;started&#45;with&#45;sql&#45;and&#45;bigquery#654967930</title>
<path fill="none" stroke="black" d="M546.16,-630.21C563.57,-617.23 587.85,-599.12 607.03,-584.83"/>
<polygon fill="black" stroke="black" points="609.24,-587.54 615.16,-578.76 605.05,-581.93 609.24,-587.54"/>
<text text-anchor="middle" x="611.64" y="-600.8" font-family="Times,serif" font-size="14.00">get_table</text>
</g>
<!-- http://purl.org/dj/kaggle/getting&#45;started&#45;with&#45;sql&#45;and&#45;bigquery#395576151 -->
<g id="node15" class="node">
<title>http://purl.org/dj/kaggle/getting&#45;started&#45;with&#45;sql&#45;and&#45;bigquery#395576151</title>
<ellipse fill="none" stroke="black" cx="323.64" cy="-561" rx="123.48" ry="18"/>
<text text-anchor="middle" x="323.64" y="-557.3" font-family="Times,serif" font-size="14.00">395576151 (client(0)$2: Reuse)</text>
</g>
<!-- http://purl.org/dj/kaggle/getting&#45;started&#45;with&#45;sql&#45;and&#45;bigquery#395510614 -->
<g id="node16" class="node">
<title>http://purl.org/dj/kaggle/getting&#45;started&#45;with&#45;sql&#45;and&#45;bigquery#395510614</title>
<ellipse fill="none" stroke="black" cx="323.64" cy="-474" rx="123.48" ry="18"/>
<text text-anchor="middle" x="323.64" y="-470.3" font-family="Times,serif" font-size="14.00">395510614 (client(0)$1: Reuse)</text>
</g>
<!-- http://purl.org/dj/kaggle/getting&#45;started&#45;with&#45;sql&#45;and&#45;bigquery#395576151&#45;&gt;http://purl.org/dj/kaggle/getting&#45;started&#45;with&#45;sql&#45;and&#45;bigquery#395510614 -->
<g id="edge23" class="edge">
<title>http://purl.org/dj/kaggle/getting&#45;started&#45;with&#45;sql&#45;and&#45;bigquery#395576151&#45;&gt;http://purl.org/dj/kaggle/getting&#45;started&#45;with&#45;sql&#45;and&#45;bigquery#395510614</title>
<path fill="none" stroke="black" d="M323.64,-542.8C323.64,-531.16 323.64,-515.55 323.64,-502.24"/>
<polygon fill="black" stroke="black" points="327.14,-502.18 323.64,-492.18 320.14,-502.18 327.14,-502.18"/>
<text text-anchor="middle" x="360.14" y="-513.8" font-family="Times,serif" font-size="14.00">to_dataframe</text>
</g>
<!-- http://purl.org/dj/kaggle/getting&#45;started&#45;with&#45;sql&#45;and&#45;bigquery#395510614&#45;&gt;http://purl.org/dj/kaggle/getting&#45;started&#45;with&#45;sql&#45;and&#45;bigquery#395445077 -->
<g id="edge24" class="edge">
<title>http://purl.org/dj/kaggle/getting&#45;started&#45;with&#45;sql&#45;and&#45;bigquery#395510614&#45;&gt;http://purl.org/dj/kaggle/getting&#45;started&#45;with&#45;sql&#45;and&#45;bigquery#395445077</title>
<path fill="none" stroke="black" d="M335.2,-455.8C346.75,-439.81 365.9,-416.36 387.64,-402 397.65,-395.39 409.03,-389.89 420.48,-385.37"/>
<polygon fill="black" stroke="black" points="421.93,-388.57 430.08,-381.8 419.49,-382.01 421.93,-388.57"/>
<text text-anchor="middle" x="424.14" y="-416.3" font-family="Times,serif" font-size="14.00">to_dataframe</text>
</g>
<!-- http://purl.org/dj/kaggle/getting&#45;started&#45;with&#45;sql&#45;and&#45;bigquery#476447676&#45;&gt;http://purl.org/dj/kaggle/getting&#45;started&#45;with&#45;sql&#45;and&#45;bigquery#873465176 -->
<g id="edge27" class="edge">
<title>http://purl.org/dj/kaggle/getting&#45;started&#45;with&#45;sql&#45;and&#45;bigquery#476447676&#45;&gt;http://purl.org/dj/kaggle/getting&#45;started&#45;with&#45;sql&#45;and&#45;bigquery#873465176</title>
<path fill="none" stroke="black" d="M953.81,-542.8C951.89,-531.16 949.32,-515.55 947.12,-502.24"/>
<polygon fill="black" stroke="black" points="950.55,-501.47 945.47,-492.18 943.64,-502.61 950.55,-501.47"/>
<text text-anchor="middle" x="980.14" y="-513.8" font-family="Times,serif" font-size="14.00">get_dataset</text>
</g>
<!-- http://purl.org/dj/kaggle/getting&#45;started&#45;with&#45;sql&#45;and&#45;bigquery#476447676&#45;&gt;http://purl.org/dj/kaggle/getting&#45;started&#45;with&#45;sql&#45;and&#45;bigquery#395445077 -->
<g id="edge28" class="edge">
<title>http://purl.org/dj/kaggle/getting&#45;started&#45;with&#45;sql&#45;and&#45;bigquery#476447676&#45;&gt;http://purl.org/dj/kaggle/getting&#45;started&#45;with&#45;sql&#45;and&#45;bigquery#395445077</title>
<path fill="none" stroke="black" d="M860.2,-549.01C829.1,-543.74 794.87,-536.06 764.64,-525 670.01,-490.36 570.14,-424.5 520.88,-389.76"/>
<polygon fill="black" stroke="black" points="522.74,-386.79 512.56,-383.85 518.69,-392.5 522.74,-386.79"/>
<text text-anchor="middle" x="715.14" y="-470.3" font-family="Times,serif" font-size="14.00">get_dataset</text>
</g>
</g>
</svg>
