<?xml version="1.0" encoding="UTF-8" standalone="no"?>
<!DOCTYPE svg PUBLIC "-//W3C//DTD SVG 1.1//EN"
 "http://www.w3.org/Graphics/SVG/1.1/DTD/svg11.dtd">
<!-- Generated by graphviz version 2.47.1 (20210417.1919)
 -->
<!-- Pages: 1 -->
<svg width="2395pt" height="1427pt"
 viewBox="0.00 0.00 2394.91 1427.35" xmlns="http://www.w3.org/2000/svg" xmlns:xlink="http://www.w3.org/1999/xlink">
<g id="graph0" class="graph" transform="scale(1 1) rotate(0) translate(4 1423.35)">
<polygon fill="white" stroke="transparent" points="-4,4 -4,-1423.35 2390.91,-1423.35 2390.91,4 -4,4"/>
<!-- http://purl.org/dj/kaggle/group&#45;by&#45;having&#45;count#864093514 -->
<g id="node1" class="node">
<title>http://purl.org/dj/kaggle/group&#45;by&#45;having&#45;count#864093514</title>
<ellipse fill="none" stroke="black" cx="1408.94" cy="-1032.35" rx="144.07" ry="18"/>
<text text-anchor="middle" x="1408.94" y="-1028.65" font-family="Times,serif" font-size="14.00">864093514 (safe_config(0)$0: Reuse)</text>
</g>
<!-- http://purl.org/dj/kaggle/group&#45;by&#45;having&#45;count#439485418 -->
<g id="node2" class="node">
<title>http://purl.org/dj/kaggle/group&#45;by&#45;having&#45;count#439485418</title>
<ellipse fill="none" stroke="black" cx="1012.94" cy="-708.62" rx="126.18" ry="18"/>
<text text-anchor="middle" x="1012.94" y="-704.92" font-family="Times,serif" font-size="14.00">439485418 (bigquery(0): Reuse)</text>
</g>
<!-- http://purl.org/dj/kaggle/group&#45;by&#45;having&#45;count#864093514&#45;&gt;http://purl.org/dj/kaggle/group&#45;by&#45;having&#45;count#439485418 -->
<g id="edge1" class="edge">
<title>http://purl.org/dj/kaggle/group&#45;by&#45;having&#45;count#864093514&#45;&gt;http://purl.org/dj/kaggle/group&#45;by&#45;having&#45;count#439485418</title>
<path fill="none" stroke="black" d="M1372.44,-1014.91C1365.18,-1009.97 1358.42,-1003.83 1353.94,-996.35 1325.11,-948.22 1374.18,-784.7 1334.94,-744.62 1320.41,-729.78 1169.58,-728.91 1148.94,-726.62 1137.39,-725.34 1125.3,-723.93 1113.29,-722.48"/>
<polygon fill="black" stroke="black" points="1113.59,-719 1103.24,-721.27 1112.75,-725.94 1113.59,-719"/>
<text text-anchor="middle" x="1405.44" y="-866.78" font-family="Times,serif" font-size="14.00">QueryJobConfig ()</text>
</g>
<!-- http://purl.org/dj/kaggle/group&#45;by&#45;having&#45;count#45809891 -->
<g id="node3" class="node">
<title>http://purl.org/dj/kaggle/group&#45;by&#45;having&#45;count#45809891</title>
<ellipse fill="none" stroke="black" cx="1256.94" cy="-708.62" rx="99.38" ry="18"/>
<text text-anchor="middle" x="1256.94" y="-704.92" font-family="Times,serif" font-size="14.00">45809891 (10(0): Reuse)</text>
</g>
<!-- http://purl.org/dj/kaggle/group&#45;by&#45;having&#45;count#864093514&#45;&gt;http://purl.org/dj/kaggle/group&#45;by&#45;having&#45;count#45809891 -->
<g id="edge2" class="edge">
<title>http://purl.org/dj/kaggle/group&#45;by&#45;having&#45;count#864093514&#45;&gt;http://purl.org/dj/kaggle/group&#45;by&#45;having&#45;count#45809891</title>
<path fill="none" stroke="black" d="M1443.88,-1014.79C1450.73,-1009.86 1457,-1003.75 1460.94,-996.35 1487.22,-946.97 1496.99,-787.39 1460.94,-744.62 1447.54,-728.72 1404.56,-720.04 1361.48,-715.31"/>
<polygon fill="black" stroke="black" points="1361.74,-711.82 1351.43,-714.27 1361.02,-718.78 1361.74,-711.82"/>
<text text-anchor="middle" x="1536.44" y="-866.78" font-family="Times,serif" font-size="14.00">QueryJobConfig ()</text>
</g>
<!-- http://purl.org/dj/kaggle/group&#45;by&#45;having&#45;count -->
<g id="node4" class="node">
<title>http://purl.org/dj/kaggle/group&#45;by&#45;having&#45;count</title>
<ellipse fill="none" stroke="black" cx="1062.94" cy="-18" rx="204.16" ry="18"/>
<text text-anchor="middle" x="1062.94" y="-14.3" font-family="Times,serif" font-size="14.00">group&#45;by&#45;having&#45;count (group&#45;by&#45;having&#45;count.ipynb)</text>
</g>
<!-- http://purl.org/dj/kaggle/group&#45;by&#45;having&#45;count#439485418&#45;&gt;http://purl.org/dj/kaggle/group&#45;by&#45;having&#45;count -->
<g id="edge3" class="edge">
<title>http://purl.org/dj/kaggle/group&#45;by&#45;having&#45;count#439485418&#45;&gt;http://purl.org/dj/kaggle/group&#45;by&#45;having&#45;count</title>
<path fill="none" stroke="black" d="M1068.35,-692.34C1077.26,-687.46 1085.38,-681.04 1090.94,-672.62 1104.17,-652.59 1091.61,-642.62 1091.94,-618.62 1095.31,-374.36 1095.83,-313.28 1096.94,-69 1096.97,-62.33 1099.44,-60.18 1096.94,-54 1095.52,-50.5 1093.56,-47.15 1091.29,-44.02"/>
<polygon fill="black" stroke="black" points="1093.86,-41.63 1084.74,-36.24 1088.51,-46.14 1093.86,-41.63"/>
<text text-anchor="middle" x="1128.94" y="-435.05" font-family="Times,serif" font-size="14.00">appearsIn ()</text>
</g>
<!-- http://purl.org/dj/python/lib/251003753 -->
<g id="node5" class="node">
<title>http://purl.org/dj/python/lib/251003753</title>
<ellipse fill="none" stroke="black" cx="966.94" cy="-600.62" rx="116.18" ry="18"/>
<text text-anchor="middle" x="966.94" y="-596.92" font-family="Times,serif" font-size="14.00">251003753 (bigquery: Reuse)</text>
</g>
<!-- http://purl.org/dj/kaggle/group&#45;by&#45;having&#45;count#439485418&#45;&gt;http://purl.org/dj/python/lib/251003753 -->
<g id="edge4" class="edge">
<title>http://purl.org/dj/kaggle/group&#45;by&#45;having&#45;count#439485418&#45;&gt;http://purl.org/dj/python/lib/251003753</title>
<path fill="none" stroke="black" d="M1005.55,-690.59C998.2,-673.67 986.84,-647.48 978.34,-627.89"/>
<polygon fill="black" stroke="black" points="981.5,-626.39 974.31,-618.61 975.08,-629.17 981.5,-626.39"/>
<text text-anchor="middle" x="1041.94" y="-650.92" font-family="Times,serif" font-size="14.00">assignedFrom ()</text>
</g>
<!-- http://purl.org/dj/kaggle/group&#45;by&#45;having&#45;count#45809891&#45;&gt;http://purl.org/dj/kaggle/group&#45;by&#45;having&#45;count -->
<g id="edge5" class="edge">
<title>http://purl.org/dj/kaggle/group&#45;by&#45;having&#45;count#45809891&#45;&gt;http://purl.org/dj/kaggle/group&#45;by&#45;having&#45;count</title>
<path fill="none" stroke="black" d="M1247.77,-690.58C1234.1,-664.33 1208.61,-612.08 1195.94,-564.62 1136.61,-342.41 1237.61,-246.62 1111.94,-54 1109.22,-49.84 1105.83,-46.02 1102.1,-42.56"/>
<polygon fill="black" stroke="black" points="1104.04,-39.61 1094.09,-35.95 1099.58,-45.01 1104.04,-39.61"/>
<text text-anchor="middle" x="1228.94" y="-435.05" font-family="Times,serif" font-size="14.00">appearsIn ()</text>
</g>
<!-- http://purl.org/dj/python/lib/520815811 -->
<g id="node6" class="node">
<title>http://purl.org/dj/python/lib/520815811</title>
<ellipse fill="none" stroke="black" cx="951.94" cy="-190.94" rx="130.78" ry="18"/>
<text text-anchor="middle" x="951.94" y="-187.24" font-family="Times,serif" font-size="14.00">520815811 (google.cloud: Reuse)</text>
</g>
<!-- http://purl.org/dj/python/lib/251003753&#45;&gt;http://purl.org/dj/python/lib/520815811 -->
<g id="edge6" class="edge">
<title>http://purl.org/dj/python/lib/251003753&#45;&gt;http://purl.org/dj/python/lib/520815811</title>
<path fill="none" stroke="black" d="M966.3,-582.36C963.96,-518.81 955.82,-297.43 952.95,-219.41"/>
<polygon fill="black" stroke="black" points="956.43,-218.84 952.57,-208.98 949.44,-219.1 956.43,-218.84"/>
<text text-anchor="middle" x="1005.44" y="-435.05" font-family="Times,serif" font-size="14.00">importedBy ()</text>
</g>
<!-- http://purl.org/dj/python/lib/520815811&#45;&gt;http://purl.org/dj/kaggle/group&#45;by&#45;having&#45;count -->
<g id="edge38" class="edge">
<title>http://purl.org/dj/python/lib/520815811&#45;&gt;http://purl.org/dj/kaggle/group&#45;by&#45;having&#45;count</title>
<path fill="none" stroke="black" d="M957.45,-172.63C966.75,-145.33 987.55,-91.51 1017.94,-54 1021.2,-49.97 1025.02,-46.12 1029.02,-42.55"/>
<polygon fill="black" stroke="black" points="1031.39,-45.13 1036.85,-36.05 1026.92,-39.75 1031.39,-45.13"/>
<text text-anchor="middle" x="1057.44" y="-57.8" font-family="Times,serif" font-size="14.00">importedBy ()</text>
</g>
<!-- http://purl.org/dj/kaggle/group&#45;by&#45;having&#45;count#316146398 -->
<g id="node7" class="node">
<title>http://purl.org/dj/kaggle/group&#45;by&#45;having&#45;count#316146398</title>
<ellipse fill="none" stroke="black" cx="621.94" cy="-1314.35" rx="120.78" ry="18"/>
<text text-anchor="middle" x="621.94" y="-1310.65" font-family="Times,serif" font-size="14.00">316146398 (table(0)$0: Reuse)</text>
</g>
<!-- http://purl.org/dj/kaggle/group&#45;by&#45;having&#45;count#654967930 -->
<g id="node8" class="node">
<title>http://purl.org/dj/kaggle/group&#45;by&#45;having&#45;count#654967930</title>
<ellipse fill="none" stroke="black" cx="223.94" cy="-1227.35" rx="135.38" ry="18"/>
<text text-anchor="middle" x="223.94" y="-1223.65" font-family="Times,serif" font-size="14.00">654967930 (table_ref(0)$0: Reuse)</text>
</g>
<!-- http://purl.org/dj/kaggle/group&#45;by&#45;having&#45;count#316146398&#45;&gt;http://purl.org/dj/kaggle/group&#45;by&#45;having&#45;count#654967930 -->
<g id="edge7" class="edge">
<title>http://purl.org/dj/kaggle/group&#45;by&#45;having&#45;count#316146398&#45;&gt;http://purl.org/dj/kaggle/group&#45;by&#45;having&#45;count#654967930</title>
<path fill="none" stroke="black" d="M555.77,-1299.22C486.1,-1284.34 376.46,-1260.92 302.46,-1245.12"/>
<polygon fill="black" stroke="black" points="302.78,-1241.61 292.27,-1242.94 301.32,-1248.45 302.78,-1241.61"/>
<text text-anchor="middle" x="478.44" y="-1267.15" font-family="Times,serif" font-size="14.00">get_table ()</text>
</g>
<!-- http://purl.org/dj/kaggle/group&#45;by&#45;having&#45;count#395445077 -->
<g id="node9" class="node">
<title>http://purl.org/dj/kaggle/group&#45;by&#45;having&#45;count#395445077</title>
<ellipse fill="none" stroke="black" cx="651.94" cy="-1032.35" rx="123.48" ry="18"/>
<text text-anchor="middle" x="651.94" y="-1028.65" font-family="Times,serif" font-size="14.00">395445077 (client(0)$0: Reuse)</text>
</g>
<!-- http://purl.org/dj/kaggle/group&#45;by&#45;having&#45;count#316146398&#45;&gt;http://purl.org/dj/kaggle/group&#45;by&#45;having&#45;count#395445077 -->
<g id="edge8" class="edge">
<title>http://purl.org/dj/kaggle/group&#45;by&#45;having&#45;count#316146398&#45;&gt;http://purl.org/dj/kaggle/group&#45;by&#45;having&#45;count#395445077</title>
<path fill="none" stroke="black" d="M628.14,-1296.28C632.79,-1282.68 638.87,-1263.05 641.94,-1245.35 653.3,-1179.84 653.61,-1101.34 652.81,-1060.72"/>
<polygon fill="black" stroke="black" points="656.3,-1060.46 652.57,-1050.54 649.3,-1060.62 656.3,-1060.46"/>
<text text-anchor="middle" x="682.44" y="-1180.15" font-family="Times,serif" font-size="14.00">get_table ()</text>
</g>
<!-- http://purl.org/dj/kaggle/group&#45;by&#45;having&#45;count#873465176 -->
<g id="node10" class="node">
<title>http://purl.org/dj/kaggle/group&#45;by&#45;having&#45;count#873465176</title>
<ellipse fill="none" stroke="black" cx="380.94" cy="-1140.35" rx="142.17" ry="18"/>
<text text-anchor="middle" x="380.94" y="-1136.65" font-family="Times,serif" font-size="14.00">873465176 (dataset_ref(0)$0: Reuse)</text>
</g>
<!-- http://purl.org/dj/kaggle/group&#45;by&#45;having&#45;count#654967930&#45;&gt;http://purl.org/dj/kaggle/group&#45;by&#45;having&#45;count#873465176 -->
<g id="edge9" class="edge">
<title>http://purl.org/dj/kaggle/group&#45;by&#45;having&#45;count#654967930&#45;&gt;http://purl.org/dj/kaggle/group&#45;by&#45;having&#45;count#873465176</title>
<path fill="none" stroke="black" d="M254.58,-1209.76C279.25,-1196.4 314.11,-1177.53 340.97,-1162.99"/>
<polygon fill="black" stroke="black" points="342.98,-1165.88 350.1,-1158.04 339.64,-1159.73 342.98,-1165.88"/>
<text text-anchor="middle" x="331.94" y="-1180.15" font-family="Times,serif" font-size="14.00">table ()</text>
</g>
<!-- http://purl.org/dj/kaggle/group&#45;by&#45;having&#45;count#440861672 -->
<g id="node11" class="node">
<title>http://purl.org/dj/kaggle/group&#45;by&#45;having&#45;count#440861672</title>
<ellipse fill="none" stroke="black" cx="131.94" cy="-1086.35" rx="131.88" ry="18"/>
<text text-anchor="middle" x="131.94" y="-1082.65" font-family="Times,serif" font-size="14.00">440861672 (comments(0): Reuse)</text>
</g>
<!-- http://purl.org/dj/kaggle/group&#45;by&#45;having&#45;count#654967930&#45;&gt;http://purl.org/dj/kaggle/group&#45;by&#45;having&#45;count#440861672 -->
<g id="edge10" class="edge">
<title>http://purl.org/dj/kaggle/group&#45;by&#45;having&#45;count#654967930&#45;&gt;http://purl.org/dj/kaggle/group&#45;by&#45;having&#45;count#440861672</title>
<path fill="none" stroke="black" d="M212.66,-1209.31C196.72,-1185.23 167.51,-1141.09 148.94,-1113.03"/>
<polygon fill="black" stroke="black" points="151.75,-1110.94 143.31,-1104.53 145.91,-1114.8 151.75,-1110.94"/>
<text text-anchor="middle" x="220.94" y="-1180.15" font-family="Times,serif" font-size="14.00">table ()</text>
</g>
<!-- http://purl.org/dj/kaggle/group&#45;by&#45;having&#45;count#395445077&#45;&gt;http://purl.org/dj/kaggle/group&#45;by&#45;having&#45;count#439485418 -->
<g id="edge11" class="edge">
<title>http://purl.org/dj/kaggle/group&#45;by&#45;having&#45;count#395445077&#45;&gt;http://purl.org/dj/kaggle/group&#45;by&#45;having&#45;count#439485418</title>
<path fill="none" stroke="black" d="M555.58,-1020.98C525.71,-1015.64 498.17,-1007.77 488.94,-996.35 471.36,-974.59 469.83,-765.05 488.94,-744.62 514.94,-716.82 729.99,-710.4 876.38,-709.29"/>
<polygon fill="black" stroke="black" points="876.83,-712.79 886.8,-709.22 876.78,-705.79 876.83,-712.79"/>
<text text-anchor="middle" x="511.94" y="-866.78" font-family="Times,serif" font-size="14.00">Client ()</text>
</g>
<!-- http://purl.org/dj/kaggle/group&#45;by&#45;having&#45;count#873465176&#45;&gt;http://purl.org/dj/kaggle/group&#45;by&#45;having&#45;count#395445077 -->
<g id="edge12" class="edge">
<title>http://purl.org/dj/kaggle/group&#45;by&#45;having&#45;count#873465176&#45;&gt;http://purl.org/dj/kaggle/group&#45;by&#45;having&#45;count#395445077</title>
<path fill="none" stroke="black" d="M437.24,-1123.75C449.15,-1118.79 461.08,-1112.43 470.94,-1104.35 485.62,-1092.31 478.38,-1079.23 493.94,-1068.35 508.28,-1058.32 524.99,-1051.1 542.08,-1045.92"/>
<polygon fill="black" stroke="black" points="543.48,-1049.16 552.16,-1043.1 541.59,-1042.42 543.48,-1049.16"/>
<text text-anchor="middle" x="519.44" y="-1082.65" font-family="Times,serif" font-size="14.00">dataset ()</text>
</g>
<!-- http://purl.org/dj/kaggle/group&#45;by&#45;having&#45;count#1825900637 -->
<g id="node12" class="node">
<title>http://purl.org/dj/kaggle/group&#45;by&#45;having&#45;count#1825900637</title>
<ellipse fill="none" stroke="black" cx="271.94" cy="-870.48" rx="172.77" ry="18"/>
<text text-anchor="middle" x="271.94" y="-866.78" font-family="Times,serif" font-size="14.00">1825900637 (bigquery&#45;public&#45;data(0): Reuse)</text>
</g>
<!-- http://purl.org/dj/kaggle/group&#45;by&#45;having&#45;count#873465176&#45;&gt;http://purl.org/dj/kaggle/group&#45;by&#45;having&#45;count#1825900637 -->
<g id="edge13" class="edge">
<title>http://purl.org/dj/kaggle/group&#45;by&#45;having&#45;count#873465176&#45;&gt;http://purl.org/dj/kaggle/group&#45;by&#45;having&#45;count#1825900637</title>
<path fill="none" stroke="black" d="M373.95,-1122.19C355.42,-1076.64 304.89,-952.47 282.67,-897.86"/>
<polygon fill="black" stroke="black" points="285.88,-896.45 278.86,-888.51 279.39,-899.09 285.88,-896.45"/>
<text text-anchor="middle" x="392.44" y="-1082.65" font-family="Times,serif" font-size="14.00">dataset ()</text>
</g>
<!-- http://purl.org/dj/kaggle/group&#45;by&#45;having&#45;count#693372172 -->
<g id="node13" class="node">
<title>http://purl.org/dj/kaggle/group&#45;by&#45;having&#45;count#693372172</title>
<ellipse fill="none" stroke="black" cx="544.94" cy="-654.62" rx="141.07" ry="18"/>
<text text-anchor="middle" x="544.94" y="-650.92" font-family="Times,serif" font-size="14.00">693372172 (hacker_news(0): Reuse)</text>
</g>
<!-- http://purl.org/dj/kaggle/group&#45;by&#45;having&#45;count#873465176&#45;&gt;http://purl.org/dj/kaggle/group&#45;by&#45;having&#45;count#693372172 -->
<g id="edge14" class="edge">
<title>http://purl.org/dj/kaggle/group&#45;by&#45;having&#45;count#873465176&#45;&gt;http://purl.org/dj/kaggle/group&#45;by&#45;having&#45;count#693372172</title>
<path fill="none" stroke="black" d="M406.11,-1122.31C412.08,-1117.17 417.89,-1111.09 421.94,-1104.35 447.28,-1062.21 437.88,-1044.85 445.94,-996.35 464.4,-885.3 430.92,-848.65 473.94,-744.62 484.16,-719.91 503.4,-696.46 519.28,-679.84"/>
<polygon fill="black" stroke="black" points="521.78,-682.29 526.29,-672.71 516.79,-677.38 521.78,-682.29"/>
<text text-anchor="middle" x="469.44" y="-1028.65" font-family="Times,serif" font-size="14.00">dataset ()</text>
</g>
<!-- http://purl.org/dj/kaggle/group&#45;by&#45;having&#45;count#440861672&#45;&gt;http://purl.org/dj/kaggle/group&#45;by&#45;having&#45;count -->
<g id="edge15" class="edge">
<title>http://purl.org/dj/kaggle/group&#45;by&#45;having&#45;count#440861672&#45;&gt;http://purl.org/dj/kaggle/group&#45;by&#45;having&#45;count</title>
<path fill="none" stroke="black" d="M123.96,-1068.37C116.05,-1050.76 104.22,-1022.23 97.94,-996.35 84.76,-942.08 83.94,-927.33 83.94,-871.48 83.94,-871.48 83.94,-871.48 83.94,-189.94 83.94,-77.14 207.56,-118.28 315.94,-87 417.6,-57.66 691.22,-38.17 877.5,-27.84"/>
<polygon fill="black" stroke="black" points="877.9,-31.33 887.69,-27.28 877.52,-24.34 877.9,-31.33"/>
<text text-anchor="middle" x="116.94" y="-650.92" font-family="Times,serif" font-size="14.00">appearsIn ()</text>
</g>
<!-- http://purl.org/dj/kaggle/group&#45;by&#45;having&#45;count#1825900637&#45;&gt;http://purl.org/dj/kaggle/group&#45;by&#45;having&#45;count -->
<g id="edge26" class="edge">
<title>http://purl.org/dj/kaggle/group&#45;by&#45;having&#45;count#1825900637&#45;&gt;http://purl.org/dj/kaggle/group&#45;by&#45;having&#45;count</title>
<path fill="none" stroke="black" d="M279.88,-852.45C295.77,-816.76 329.94,-731.21 329.94,-655.62 329.94,-655.62 329.94,-655.62 329.94,-189.94 329.94,-79.24 651.03,-40.2 868.18,-26.45"/>
<polygon fill="black" stroke="black" points="868.68,-29.92 878.44,-25.81 868.25,-22.94 868.68,-29.92"/>
<text text-anchor="middle" x="362.94" y="-596.92" font-family="Times,serif" font-size="14.00">appearsIn ()</text>
</g>
<!-- http://purl.org/dj/kaggle/group&#45;by&#45;having&#45;count#693372172&#45;&gt;http://purl.org/dj/kaggle/group&#45;by&#45;having&#45;count -->
<g id="edge27" class="edge">
<title>http://purl.org/dj/kaggle/group&#45;by&#45;having&#45;count#693372172&#45;&gt;http://purl.org/dj/kaggle/group&#45;by&#45;having&#45;count</title>
<path fill="none" stroke="black" d="M544.83,-636.45C545.34,-555.47 559.12,-209.03 752.94,-54 771.45,-39.19 813.54,-30.42 860.92,-25.29"/>
<polygon fill="black" stroke="black" points="861.51,-28.75 871.1,-24.25 860.8,-21.78 861.51,-28.75"/>
<text text-anchor="middle" x="623.94" y="-435.05" font-family="Times,serif" font-size="14.00">appearsIn ()</text>
</g>
<!-- http://purl.org/dj/kaggle/group&#45;by&#45;having&#45;count#893191526 -->
<g id="node14" class="node">
<title>http://purl.org/dj/kaggle/group&#45;by&#45;having&#45;count#893191526</title>
<ellipse fill="none" stroke="black" cx="1035.94" cy="-1401.35" rx="168.97" ry="18"/>
<text text-anchor="middle" x="1035.94" y="-1397.65" font-family="Times,serif" font-size="14.00">893191526 (improved_df(0)$1: Preparation)</text>
</g>
<!-- http://purl.org/dj/kaggle/group&#45;by&#45;having&#45;count#893125989 -->
<g id="node15" class="node">
<title>http://purl.org/dj/kaggle/group&#45;by&#45;having&#45;count#893125989</title>
<ellipse fill="none" stroke="black" cx="1035.94" cy="-1314.35" rx="149.47" ry="18"/>
<text text-anchor="middle" x="1035.94" y="-1310.65" font-family="Times,serif" font-size="14.00">893125989 (improved_df(0)$0: Reuse)</text>
</g>
<!-- http://purl.org/dj/kaggle/group&#45;by&#45;having&#45;count#893191526&#45;&gt;http://purl.org/dj/kaggle/group&#45;by&#45;having&#45;count#893125989 -->
<g id="edge16" class="edge">
<title>http://purl.org/dj/kaggle/group&#45;by&#45;having&#45;count#893191526&#45;&gt;http://purl.org/dj/kaggle/group&#45;by&#45;having&#45;count#893125989</title>
<path fill="none" stroke="black" d="M1035.94,-1383.15C1035.94,-1371.51 1035.94,-1355.9 1035.94,-1342.59"/>
<polygon fill="black" stroke="black" points="1039.44,-1342.52 1035.94,-1332.52 1032.44,-1342.52 1039.44,-1342.52"/>
<text text-anchor="middle" x="1055.44" y="-1354.15" font-family="Times,serif" font-size="14.00">head ()</text>
</g>
<!-- http://purl.org/dj/kaggle/group&#45;by&#45;having&#45;count#687932583 -->
<g id="node16" class="node">
<title>http://purl.org/dj/kaggle/group&#45;by&#45;having&#45;count#687932583</title>
<ellipse fill="none" stroke="black" cx="1055.94" cy="-1227.35" rx="139.98" ry="18"/>
<text text-anchor="middle" x="1055.94" y="-1223.65" font-family="Times,serif" font-size="14.00">687932583 (query_job(0)$1: Reuse)</text>
</g>
<!-- http://purl.org/dj/kaggle/group&#45;by&#45;having&#45;count#893125989&#45;&gt;http://purl.org/dj/kaggle/group&#45;by&#45;having&#45;count#687932583 -->
<g id="edge17" class="edge">
<title>http://purl.org/dj/kaggle/group&#45;by&#45;having&#45;count#893125989&#45;&gt;http://purl.org/dj/kaggle/group&#45;by&#45;having&#45;count#687932583</title>
<path fill="none" stroke="black" d="M1039.99,-1296.15C1042.72,-1284.51 1046.4,-1268.9 1049.53,-1255.59"/>
<polygon fill="black" stroke="black" points="1053.01,-1256.06 1051.9,-1245.52 1046.2,-1254.46 1053.01,-1256.06"/>
<text text-anchor="middle" x="1090.44" y="-1267.15" font-family="Times,serif" font-size="14.00">to_dataframe ()</text>
</g>
<!-- http://purl.org/dj/kaggle/group&#45;by&#45;having&#45;count#864159051 -->
<g id="node17" class="node">
<title>http://purl.org/dj/kaggle/group&#45;by&#45;having&#45;count#864159051</title>
<ellipse fill="none" stroke="black" cx="1101.94" cy="-1032.35" rx="144.07" ry="18"/>
<text text-anchor="middle" x="1101.94" y="-1028.65" font-family="Times,serif" font-size="14.00">864159051 (safe_config(0)$1: Reuse)</text>
</g>
<!-- http://purl.org/dj/kaggle/group&#45;by&#45;having&#45;count#687932583&#45;&gt;http://purl.org/dj/kaggle/group&#45;by&#45;having&#45;count#864159051 -->
<g id="edge18" class="edge">
<title>http://purl.org/dj/kaggle/group&#45;by&#45;having&#45;count#687932583&#45;&gt;http://purl.org/dj/kaggle/group&#45;by&#45;having&#45;count#864159051</title>
<path fill="none" stroke="black" d="M1054.63,-1208.94C1053.05,-1178.94 1052.76,-1116.13 1072.94,-1068.35 1074.33,-1065.05 1076.14,-1061.82 1078.18,-1058.74"/>
<polygon fill="black" stroke="black" points="1081.15,-1060.62 1084.35,-1050.52 1075.55,-1056.41 1081.15,-1060.62"/>
<text text-anchor="middle" x="1080.94" y="-1136.65" font-family="Times,serif" font-size="14.00">query ()</text>
</g>
<!-- http://purl.org/dj/kaggle/group&#45;by&#45;having&#45;count#395510614 -->
<g id="node18" class="node">
<title>http://purl.org/dj/kaggle/group&#45;by&#45;having&#45;count#395510614</title>
<ellipse fill="none" stroke="black" cx="1243.94" cy="-1140.35" rx="123.48" ry="18"/>
<text text-anchor="middle" x="1243.94" y="-1136.65" font-family="Times,serif" font-size="14.00">395510614 (client(0)$1: Reuse)</text>
</g>
<!-- http://purl.org/dj/kaggle/group&#45;by&#45;having&#45;count#687932583&#45;&gt;http://purl.org/dj/kaggle/group&#45;by&#45;having&#45;count#395510614 -->
<g id="edge19" class="edge">
<title>http://purl.org/dj/kaggle/group&#45;by&#45;having&#45;count#687932583&#45;&gt;http://purl.org/dj/kaggle/group&#45;by&#45;having&#45;count#395510614</title>
<path fill="none" stroke="black" d="M1092.19,-1209.96C1122.49,-1196.26 1165.86,-1176.65 1198.48,-1161.9"/>
<polygon fill="black" stroke="black" points="1200.13,-1165 1207.8,-1157.69 1197.25,-1158.62 1200.13,-1165"/>
<text text-anchor="middle" x="1183.94" y="-1180.15" font-family="Times,serif" font-size="14.00">query ()</text>
</g>
<!-- http://purl.org/dj/kaggle/group&#45;by&#45;having&#45;count#1303381713 -->
<g id="node19" class="node">
<title>http://purl.org/dj/kaggle/group&#45;by&#45;having&#45;count#1303381713</title>
<ellipse fill="none" stroke="black" cx="855.94" cy="-1140.35" rx="167.07" ry="18"/>
<text text-anchor="middle" x="855.94" y="-1136.65" font-family="Times,serif" font-size="14.00">1303381713 (query_improved(0)$0: Reuse)</text>
</g>
<!-- http://purl.org/dj/kaggle/group&#45;by&#45;having&#45;count#687932583&#45;&gt;http://purl.org/dj/kaggle/group&#45;by&#45;having&#45;count#1303381713 -->
<g id="edge20" class="edge">
<title>http://purl.org/dj/kaggle/group&#45;by&#45;having&#45;count#687932583&#45;&gt;http://purl.org/dj/kaggle/group&#45;by&#45;having&#45;count#1303381713</title>
<path fill="none" stroke="black" d="M1017.38,-1209.96C985.21,-1196.29 939.2,-1176.74 904.52,-1162"/>
<polygon fill="black" stroke="black" points="905.64,-1158.67 895.06,-1157.98 902.9,-1165.11 905.64,-1158.67"/>
<text text-anchor="middle" x="989.94" y="-1180.15" font-family="Times,serif" font-size="14.00">query ()</text>
</g>
<!-- http://purl.org/dj/kaggle/group&#45;by&#45;having&#45;count#864159051&#45;&gt;http://purl.org/dj/kaggle/group&#45;by&#45;having&#45;count#439485418 -->
<g id="edge28" class="edge">
<title>http://purl.org/dj/kaggle/group&#45;by&#45;having&#45;count#864159051&#45;&gt;http://purl.org/dj/kaggle/group&#45;by&#45;having&#45;count#439485418</title>
<path fill="none" stroke="black" d="M1102.96,-1014.32C1105.91,-959.57 1112.49,-789.07 1082.94,-744.62 1079.43,-739.35 1074.89,-734.83 1069.79,-730.98"/>
<polygon fill="black" stroke="black" points="1071.68,-728.03 1061.41,-725.45 1067.83,-733.88 1071.68,-728.03"/>
<text text-anchor="middle" x="1157.44" y="-866.78" font-family="Times,serif" font-size="14.00">QueryJobConfig ()</text>
</g>
<!-- http://purl.org/dj/kaggle/group&#45;by&#45;having&#45;count#864159051&#45;&gt;http://purl.org/dj/kaggle/group&#45;by&#45;having&#45;count#45809891 -->
<g id="edge29" class="edge">
<title>http://purl.org/dj/kaggle/group&#45;by&#45;having&#45;count#864159051&#45;&gt;http://purl.org/dj/kaggle/group&#45;by&#45;having&#45;count#45809891</title>
<path fill="none" stroke="black" d="M1181.47,-1017.22C1192.03,-1012.2 1201.69,-1005.44 1208.94,-996.35 1243.95,-952.42 1212.38,-797.28 1231.94,-744.62 1233.11,-741.47 1234.64,-738.35 1236.37,-735.34"/>
<polygon fill="black" stroke="black" points="1239.45,-737.02 1241.99,-726.74 1233.59,-733.19 1239.45,-737.02"/>
<text text-anchor="middle" x="1283.44" y="-866.78" font-family="Times,serif" font-size="14.00">QueryJobConfig ()</text>
</g>
<!-- http://purl.org/dj/kaggle/group&#45;by&#45;having&#45;count#395510614&#45;&gt;http://purl.org/dj/kaggle/group&#45;by&#45;having&#45;count#395445077 -->
<g id="edge34" class="edge">
<title>http://purl.org/dj/kaggle/group&#45;by&#45;having&#45;count#395510614&#45;&gt;http://purl.org/dj/kaggle/group&#45;by&#45;having&#45;count#395445077</title>
<path fill="none" stroke="black" d="M1185.64,-1124.44C1122.67,-1108.76 1019.22,-1084.19 928.94,-1068.35 873.44,-1058.61 811.22,-1050.5 759.84,-1044.55"/>
<polygon fill="black" stroke="black" points="760.04,-1041.05 749.71,-1043.38 759.24,-1048 760.04,-1041.05"/>
<text text-anchor="middle" x="1143.44" y="-1082.65" font-family="Times,serif" font-size="14.00">to_dataframe ()</text>
</g>
<!-- http://purl.org/dj/kaggle/group&#45;by&#45;having&#45;count#1678062168 -->
<g id="node28" class="node">
<title>http://purl.org/dj/kaggle/group&#45;by&#45;having&#45;count#1678062168</title>
<ellipse fill="none" stroke="black" cx="812.94" cy="-870.48" rx="268.9" ry="125.73"/>
<text text-anchor="middle" x="812.94" y="-944.28" font-family="Times,serif" font-size="14.00">1678062168 (</text>
<text text-anchor="middle" x="812.94" y="-913.28" font-family="Times,serif" font-size="14.00"> &#160;&#160;&#160;&#160;&#160;&#160;&#160;&#160;&#160;&#160;&#160;&#160;&#160;&#160;&#160;&#160;SELECT parent, COUNT(1) AS NumPosts</text>
<text text-anchor="middle" x="812.94" y="-882.28" font-family="Times,serif" font-size="14.00"> &#160;&#160;&#160;&#160;&#160;&#160;&#160;&#160;&#160;&#160;&#160;&#160;&#160;&#160;&#160;&#160;FROM `bigquery&#45;public&#45;data.hacker_news.comments`</text>
<text text-anchor="middle" x="812.94" y="-851.28" font-family="Times,serif" font-size="14.00"> &#160;&#160;&#160;&#160;&#160;&#160;&#160;&#160;&#160;&#160;&#160;&#160;&#160;&#160;&#160;&#160;GROUP BY parent</text>
<text text-anchor="middle" x="812.94" y="-820.28" font-family="Times,serif" font-size="14.00"> &#160;&#160;&#160;&#160;&#160;&#160;&#160;&#160;&#160;&#160;&#160;&#160;&#160;&#160;&#160;&#160;HAVING COUNT(1) &gt; 10</text>
<text text-anchor="middle" x="812.94" y="-789.28" font-family="Times,serif" font-size="14.00"> &#160;&#160;&#160;&#160;&#160;&#160;&#160;&#160;&#160;&#160;&#160;&#160;&#160;&#160;&#160;&#160;(0): Reuse)</text>
</g>
<!-- http://purl.org/dj/kaggle/group&#45;by&#45;having&#45;count#1303381713&#45;&gt;http://purl.org/dj/kaggle/group&#45;by&#45;having&#45;count#1678062168 -->
<g id="edge37" class="edge">
<title>http://purl.org/dj/kaggle/group&#45;by&#45;having&#45;count#1303381713&#45;&gt;http://purl.org/dj/kaggle/group&#45;by&#45;having&#45;count#1678062168</title>
<path fill="none" stroke="black" d="M853.18,-1122.19C849.33,-1098.2 841.98,-1052.4 834.6,-1006.44"/>
<polygon fill="black" stroke="black" points="838.02,-1005.65 832.98,-996.33 831.11,-1006.75 838.02,-1005.65"/>
<text text-anchor="middle" x="895.94" y="-1082.65" font-family="Times,serif" font-size="14.00">assignedFrom ()</text>
</g>
<!-- http://purl.org/dj/kaggle/group&#45;by&#45;having&#45;count#1578764191 -->
<g id="node20" class="node">
<title>http://purl.org/dj/kaggle/group&#45;by&#45;having&#45;count#1578764191</title>
<ellipse fill="none" stroke="black" cx="1418.94" cy="-1401.35" rx="195.77" ry="18"/>
<text text-anchor="middle" x="1418.94" y="-1397.65" font-family="Times,serif" font-size="14.00">1578764191 (popular_comments(0)$1: Preparation)</text>
</g>
<!-- http://purl.org/dj/kaggle/group&#45;by&#45;having&#45;count#1578698654 -->
<g id="node21" class="node">
<title>http://purl.org/dj/kaggle/group&#45;by&#45;having&#45;count#1578698654</title>
<ellipse fill="none" stroke="black" cx="1418.94" cy="-1314.35" rx="176.57" ry="18"/>
<text text-anchor="middle" x="1418.94" y="-1310.65" font-family="Times,serif" font-size="14.00">1578698654 (popular_comments(0)$0: Reuse)</text>
</g>
<!-- http://purl.org/dj/kaggle/group&#45;by&#45;having&#45;count#1578764191&#45;&gt;http://purl.org/dj/kaggle/group&#45;by&#45;having&#45;count#1578698654 -->
<g id="edge21" class="edge">
<title>http://purl.org/dj/kaggle/group&#45;by&#45;having&#45;count#1578764191&#45;&gt;http://purl.org/dj/kaggle/group&#45;by&#45;having&#45;count#1578698654</title>
<path fill="none" stroke="black" d="M1418.94,-1383.15C1418.94,-1371.51 1418.94,-1355.9 1418.94,-1342.59"/>
<polygon fill="black" stroke="black" points="1422.44,-1342.52 1418.94,-1332.52 1415.44,-1342.52 1422.44,-1342.52"/>
<text text-anchor="middle" x="1438.44" y="-1354.15" font-family="Times,serif" font-size="14.00">head ()</text>
</g>
<!-- http://purl.org/dj/kaggle/group&#45;by&#45;having&#45;count#687867046 -->
<g id="node22" class="node">
<title>http://purl.org/dj/kaggle/group&#45;by&#45;having&#45;count#687867046</title>
<ellipse fill="none" stroke="black" cx="1407.94" cy="-1227.35" rx="139.98" ry="18"/>
<text text-anchor="middle" x="1407.94" y="-1223.65" font-family="Times,serif" font-size="14.00">687867046 (query_job(0)$0: Reuse)</text>
</g>
<!-- http://purl.org/dj/kaggle/group&#45;by&#45;having&#45;count#1578698654&#45;&gt;http://purl.org/dj/kaggle/group&#45;by&#45;having&#45;count#687867046 -->
<g id="edge22" class="edge">
<title>http://purl.org/dj/kaggle/group&#45;by&#45;having&#45;count#1578698654&#45;&gt;http://purl.org/dj/kaggle/group&#45;by&#45;having&#45;count#687867046</title>
<path fill="none" stroke="black" d="M1416.71,-1296.15C1415.21,-1284.51 1413.19,-1268.9 1411.46,-1255.59"/>
<polygon fill="black" stroke="black" points="1414.92,-1254.99 1410.16,-1245.52 1407.97,-1255.89 1414.92,-1254.99"/>
<text text-anchor="middle" x="1457.44" y="-1267.15" font-family="Times,serif" font-size="14.00">to_dataframe ()</text>
</g>
<!-- http://purl.org/dj/kaggle/group&#45;by&#45;having&#45;count#687867046&#45;&gt;http://purl.org/dj/kaggle/group&#45;by&#45;having&#45;count#864093514 -->
<g id="edge23" class="edge">
<title>http://purl.org/dj/kaggle/group&#45;by&#45;having&#45;count#687867046&#45;&gt;http://purl.org/dj/kaggle/group&#45;by&#45;having&#45;count#864093514</title>
<path fill="none" stroke="black" d="M1408.03,-1209.22C1408.2,-1175.67 1408.59,-1101.06 1408.8,-1060.64"/>
<polygon fill="black" stroke="black" points="1412.3,-1060.46 1408.85,-1050.44 1405.3,-1060.42 1412.3,-1060.46"/>
<text text-anchor="middle" x="1430.94" y="-1136.65" font-family="Times,serif" font-size="14.00">query ()</text>
</g>
<!-- http://purl.org/dj/kaggle/group&#45;by&#45;having&#45;count#687867046&#45;&gt;http://purl.org/dj/kaggle/group&#45;by&#45;having&#45;count#395510614 -->
<g id="edge25" class="edge">
<title>http://purl.org/dj/kaggle/group&#45;by&#45;having&#45;count#687867046&#45;&gt;http://purl.org/dj/kaggle/group&#45;by&#45;having&#45;count#395510614</title>
<path fill="none" stroke="black" d="M1375.93,-1209.76C1349.88,-1196.26 1312.95,-1177.12 1284.78,-1162.52"/>
<polygon fill="black" stroke="black" points="1286.08,-1159.25 1275.59,-1157.75 1282.86,-1165.46 1286.08,-1159.25"/>
<text text-anchor="middle" x="1357.94" y="-1180.15" font-family="Times,serif" font-size="14.00">query ()</text>
</g>
<!-- http://purl.org/dj/kaggle/group&#45;by&#45;having&#45;count#1172833902 -->
<g id="node23" class="node">
<title>http://purl.org/dj/kaggle/group&#45;by&#45;having&#45;count#1172833902</title>
<ellipse fill="none" stroke="black" cx="1627.94" cy="-1140.35" rx="159.47" ry="18"/>
<text text-anchor="middle" x="1627.94" y="-1136.65" font-family="Times,serif" font-size="14.00">1172833902 (query_popular(0)$0: Reuse)</text>
</g>
<!-- http://purl.org/dj/kaggle/group&#45;by&#45;having&#45;count#687867046&#45;&gt;http://purl.org/dj/kaggle/group&#45;by&#45;having&#45;count#1172833902 -->
<g id="edge24" class="edge">
<title>http://purl.org/dj/kaggle/group&#45;by&#45;having&#45;count#687867046&#45;&gt;http://purl.org/dj/kaggle/group&#45;by&#45;having&#45;count#1172833902</title>
<path fill="none" stroke="black" d="M1449.84,-1210.16C1485.69,-1196.31 1537.47,-1176.3 1575.96,-1161.43"/>
<polygon fill="black" stroke="black" points="1577.38,-1164.64 1585.45,-1157.77 1574.86,-1158.11 1577.38,-1164.64"/>
<text text-anchor="middle" x="1553.94" y="-1180.15" font-family="Times,serif" font-size="14.00">query ()</text>
</g>
<!-- http://purl.org/dj/kaggle/group&#45;by&#45;having&#45;count#890384083 -->
<g id="node24" class="node">
<title>http://purl.org/dj/kaggle/group&#45;by&#45;having&#45;count#890384083</title>
<ellipse fill="none" stroke="black" cx="1537.94" cy="-438.75" rx="266.66" ry="125.73"/>
<text text-anchor="middle" x="1537.94" y="-512.55" font-family="Times,serif" font-size="14.00">890384083 (</text>
<text text-anchor="middle" x="1537.94" y="-481.55" font-family="Times,serif" font-size="14.00"> &#160;&#160;&#160;&#160;&#160;&#160;&#160;&#160;&#160;&#160;&#160;&#160;&#160;&#160;&#160;SELECT parent, COUNT(id)</text>
<text text-anchor="middle" x="1537.94" y="-450.55" font-family="Times,serif" font-size="14.00"> &#160;&#160;&#160;&#160;&#160;&#160;&#160;&#160;&#160;&#160;&#160;&#160;&#160;&#160;&#160;FROM `bigquery&#45;public&#45;data.hacker_news.comments`</text>
<text text-anchor="middle" x="1537.94" y="-419.55" font-family="Times,serif" font-size="14.00"> &#160;&#160;&#160;&#160;&#160;&#160;&#160;&#160;&#160;&#160;&#160;&#160;&#160;&#160;&#160;GROUP BY parent</text>
<text text-anchor="middle" x="1537.94" y="-388.55" font-family="Times,serif" font-size="14.00"> &#160;&#160;&#160;&#160;&#160;&#160;&#160;&#160;&#160;&#160;&#160;&#160;&#160;&#160;&#160;HAVING COUNT(id) &gt; 10</text>
<text text-anchor="middle" x="1537.94" y="-357.55" font-family="Times,serif" font-size="14.00"> &#160;&#160;&#160;&#160;&#160;&#160;&#160;&#160;&#160;&#160;&#160;&#160;&#160;&#160;&#160;(0): Reuse)</text>
</g>
<!-- http://purl.org/dj/kaggle/group&#45;by&#45;having&#45;count#1172833902&#45;&gt;http://purl.org/dj/kaggle/group&#45;by&#45;having&#45;count#890384083 -->
<g id="edge30" class="edge">
<title>http://purl.org/dj/kaggle/group&#45;by&#45;having&#45;count#1172833902&#45;&gt;http://purl.org/dj/kaggle/group&#45;by&#45;having&#45;count#890384083</title>
<path fill="none" stroke="black" d="M1625.57,-1122.13C1622.91,-1101.19 1618.94,-1064.75 1618.94,-1033.35 1618.94,-1033.35 1618.94,-1033.35 1618.94,-653.62 1618.94,-626.04 1612.97,-597.68 1604.28,-570.99"/>
<polygon fill="black" stroke="black" points="1607.5,-569.58 1600.96,-561.24 1600.87,-571.83 1607.5,-569.58"/>
<text text-anchor="middle" x="1663.94" y="-866.78" font-family="Times,serif" font-size="14.00">assignedFrom ()</text>
</g>
<!-- http://purl.org/dj/kaggle/group&#45;by&#45;having&#45;count#890384083&#45;&gt;http://purl.org/dj/kaggle/group&#45;by&#45;having&#45;count -->
<g id="edge31" class="edge">
<title>http://purl.org/dj/kaggle/group&#45;by&#45;having&#45;count#890384083&#45;&gt;http://purl.org/dj/kaggle/group&#45;by&#45;having&#45;count</title>
<path fill="none" stroke="black" d="M1332.61,-358.28C1306.12,-340.76 1281.73,-319.8 1262.94,-294.89 1197.15,-207.66 1290.14,-132.29 1213.94,-54 1207.03,-46.9 1191.59,-40.98 1173.11,-36.16"/>
<polygon fill="black" stroke="black" points="1173.74,-32.72 1163.19,-33.74 1172.08,-39.52 1173.74,-32.72"/>
<text text-anchor="middle" x="1295.94" y="-187.24" font-family="Times,serif" font-size="14.00">appearsIn ()</text>
</g>
<!-- http://purl.org/dj/kaggle/group&#45;by&#45;having&#45;count#795411732 -->
<g id="node25" class="node">
<title>http://purl.org/dj/kaggle/group&#45;by&#45;having&#45;count#795411732</title>
<ellipse fill="none" stroke="black" cx="1827.94" cy="-600.62" rx="145.67" ry="18"/>
<text text-anchor="middle" x="1827.94" y="-596.92" font-family="Times,serif" font-size="14.00">795411732 (query_good(0)$0: Reuse)</text>
</g>
<!-- http://purl.org/dj/kaggle/group&#45;by&#45;having&#45;count#550381020 -->
<g id="node26" class="node">
<title>http://purl.org/dj/kaggle/group&#45;by&#45;having&#45;count#550381020</title>
<ellipse fill="none" stroke="black" cx="1595.94" cy="-190.94" rx="258.19" ry="103.89"/>
<text text-anchor="middle" x="1595.94" y="-249.24" font-family="Times,serif" font-size="14.00">550381020 (</text>
<text text-anchor="middle" x="1595.94" y="-218.24" font-family="Times,serif" font-size="14.00"> &#160;&#160;&#160;&#160;&#160;&#160;&#160;&#160;&#160;&#160;&#160;&#160;SELECT parent, COUNT(id)</text>
<text text-anchor="middle" x="1595.94" y="-187.24" font-family="Times,serif" font-size="14.00"> &#160;&#160;&#160;&#160;&#160;&#160;&#160;&#160;&#160;&#160;&#160;&#160;FROM `bigquery&#45;public&#45;data.hacker_news.comments`</text>
<text text-anchor="middle" x="1595.94" y="-156.24" font-family="Times,serif" font-size="14.00"> &#160;&#160;&#160;&#160;&#160;&#160;&#160;&#160;&#160;&#160;&#160;&#160;GROUP BY parent</text>
<text text-anchor="middle" x="1595.94" y="-125.24" font-family="Times,serif" font-size="14.00"> &#160;&#160;&#160;&#160;&#160;&#160;&#160;&#160;&#160;&#160;&#160;&#160;(0): Reuse)</text>
</g>
<!-- http://purl.org/dj/kaggle/group&#45;by&#45;having&#45;count#795411732&#45;&gt;http://purl.org/dj/kaggle/group&#45;by&#45;having&#45;count#550381020 -->
<g id="edge32" class="edge">
<title>http://purl.org/dj/kaggle/group&#45;by&#45;having&#45;count#795411732&#45;&gt;http://purl.org/dj/kaggle/group&#45;by&#45;having&#45;count#550381020</title>
<path fill="none" stroke="black" d="M1831.75,-582.42C1841.23,-535.12 1861.31,-400.74 1805.94,-312.89 1797.3,-299.18 1786.51,-286.86 1774.41,-275.83"/>
<polygon fill="black" stroke="black" points="1776.55,-273.05 1766.71,-269.12 1771.95,-278.33 1776.55,-273.05"/>
<text text-anchor="middle" x="1888.94" y="-435.05" font-family="Times,serif" font-size="14.00">assignedFrom ()</text>
</g>
<!-- http://purl.org/dj/kaggle/group&#45;by&#45;having&#45;count#550381020&#45;&gt;http://purl.org/dj/kaggle/group&#45;by&#45;having&#45;count -->
<g id="edge33" class="edge">
<title>http://purl.org/dj/kaggle/group&#45;by&#45;having&#45;count#550381020&#45;&gt;http://purl.org/dj/kaggle/group&#45;by&#45;having&#45;count</title>
<path fill="none" stroke="black" d="M1425.92,-112.61C1374.08,-91.26 1316.38,-69.68 1261.94,-54 1235.52,-46.39 1206.62,-40.16 1179.25,-35.18"/>
<polygon fill="black" stroke="black" points="1179.69,-31.71 1169.23,-33.4 1178.47,-38.6 1179.69,-31.71"/>
<text text-anchor="middle" x="1341.94" y="-57.8" font-family="Times,serif" font-size="14.00">appearsIn ()</text>
</g>
<!-- http://purl.org/dj/kaggle/group&#45;by&#45;having&#45;count#476447676 -->
<g id="node27" class="node">
<title>http://purl.org/dj/kaggle/group&#45;by&#45;having&#45;count#476447676</title>
<ellipse fill="none" stroke="black" cx="504.94" cy="-1227.35" rx="128.08" ry="18"/>
<text text-anchor="middle" x="504.94" y="-1223.65" font-family="Times,serif" font-size="14.00">476447676 (dataset(0)$0: Reuse)</text>
</g>
<!-- http://purl.org/dj/kaggle/group&#45;by&#45;having&#45;count#476447676&#45;&gt;http://purl.org/dj/kaggle/group&#45;by&#45;having&#45;count#395445077 -->
<g id="edge35" class="edge">
<title>http://purl.org/dj/kaggle/group&#45;by&#45;having&#45;count#476447676&#45;&gt;http://purl.org/dj/kaggle/group&#45;by&#45;having&#45;count#395445077</title>
<path fill="none" stroke="black" d="M516.77,-1209.34C520.69,-1203.65 525.04,-1197.25 528.94,-1191.35 549,-1161.01 551.02,-1151.37 572.94,-1122.35 590.21,-1099.47 611.97,-1075.25 628.27,-1057.86"/>
<polygon fill="black" stroke="black" points="631.02,-1060.05 635.35,-1050.38 625.93,-1055.24 631.02,-1060.05"/>
<text text-anchor="middle" x="609.94" y="-1136.65" font-family="Times,serif" font-size="14.00">get_dataset ()</text>
</g>
<!-- http://purl.org/dj/kaggle/group&#45;by&#45;having&#45;count#476447676&#45;&gt;http://purl.org/dj/kaggle/group&#45;by&#45;having&#45;count#873465176 -->
<g id="edge36" class="edge">
<title>http://purl.org/dj/kaggle/group&#45;by&#45;having&#45;count#476447676&#45;&gt;http://purl.org/dj/kaggle/group&#45;by&#45;having&#45;count#873465176</title>
<path fill="none" stroke="black" d="M480.44,-1209.56C461.33,-1196.46 434.62,-1178.14 413.68,-1163.79"/>
<polygon fill="black" stroke="black" points="415.61,-1160.87 405.39,-1158.11 411.66,-1166.65 415.61,-1160.87"/>
<text text-anchor="middle" x="487.94" y="-1180.15" font-family="Times,serif" font-size="14.00">get_dataset ()</text>
</g>
<!-- http://purl.org/dj/kaggle/group&#45;by&#45;having&#45;count#1678062168&#45;&gt;http://purl.org/dj/kaggle/group&#45;by&#45;having&#45;count -->
<g id="edge41" class="edge">
<title>http://purl.org/dj/kaggle/group&#45;by&#45;having&#45;count#1678062168&#45;&gt;http://purl.org/dj/kaggle/group&#45;by&#45;having&#45;count</title>
<path fill="none" stroke="black" d="M777.03,-745.48C771.15,-716.27 766.94,-685.05 766.94,-655.62 766.94,-655.62 766.94,-655.62 766.94,-189.94 766.94,-140.01 774.12,-119.61 811.94,-87 842.67,-60.5 882.76,-44.22 921.86,-34.26"/>
<polygon fill="black" stroke="black" points="922.87,-37.62 931.77,-31.86 921.22,-30.81 922.87,-37.62"/>
<text text-anchor="middle" x="799.94" y="-596.92" font-family="Times,serif" font-size="14.00">appearsIn ()</text>
</g>
<!-- http://purl.org/dj/kaggle/group&#45;by&#45;having&#45;count#678036626 -->
<g id="node29" class="node">
<title>http://purl.org/dj/kaggle/group&#45;by&#45;having&#45;count#678036626</title>
<ellipse fill="none" stroke="black" cx="2132.94" cy="-600.62" rx="141.07" ry="18"/>
<text text-anchor="middle" x="2132.94" y="-596.92" font-family="Times,serif" font-size="14.00">678036626 (query_bad(0)$0: Reuse)</text>
</g>
<!-- http://purl.org/dj/kaggle/group&#45;by&#45;having&#45;count#1086466107 -->
<g id="node30" class="node">
<title>http://purl.org/dj/kaggle/group&#45;by&#45;having&#45;count#1086466107</title>
<ellipse fill="none" stroke="black" cx="2130.94" cy="-190.94" rx="255.95" ry="103.89"/>
<text text-anchor="middle" x="2130.94" y="-249.24" font-family="Times,serif" font-size="14.00">1086466107 (</text>
<text text-anchor="middle" x="2130.94" y="-218.24" font-family="Times,serif" font-size="14.00"> &#160;&#160;&#160;&#160;&#160;&#160;&#160;&#160;&#160;&#160;&#160;SELECT author, parent, COUNT(id)</text>
<text text-anchor="middle" x="2130.94" y="-187.24" font-family="Times,serif" font-size="14.00"> &#160;&#160;&#160;&#160;&#160;&#160;&#160;&#160;&#160;&#160;&#160;FROM `bigquery&#45;public&#45;data.hacker_news.comments`</text>
<text text-anchor="middle" x="2130.94" y="-156.24" font-family="Times,serif" font-size="14.00"> &#160;&#160;&#160;&#160;&#160;&#160;&#160;&#160;&#160;&#160;&#160;GROUP BY parent</text>
<text text-anchor="middle" x="2130.94" y="-125.24" font-family="Times,serif" font-size="14.00"> &#160;&#160;&#160;&#160;&#160;&#160;&#160;&#160;&#160;&#160;&#160;(0): Reuse)</text>
</g>
<!-- http://purl.org/dj/kaggle/group&#45;by&#45;having&#45;count#678036626&#45;&gt;http://purl.org/dj/kaggle/group&#45;by&#45;having&#45;count#1086466107 -->
<g id="edge39" class="edge">
<title>http://purl.org/dj/kaggle/group&#45;by&#45;having&#45;count#678036626&#45;&gt;http://purl.org/dj/kaggle/group&#45;by&#45;having&#45;count#1086466107</title>
<path fill="none" stroke="black" d="M2132.85,-582.36C2132.62,-535.52 2131.97,-402.97 2131.49,-305.25"/>
<polygon fill="black" stroke="black" points="2134.99,-305 2131.44,-295.02 2127.99,-305.03 2134.99,-305"/>
<text text-anchor="middle" x="2177.94" y="-435.05" font-family="Times,serif" font-size="14.00">assignedFrom ()</text>
</g>
<!-- http://purl.org/dj/kaggle/group&#45;by&#45;having&#45;count#1086466107&#45;&gt;http://purl.org/dj/kaggle/group&#45;by&#45;having&#45;count -->
<g id="edge40" class="edge">
<title>http://purl.org/dj/kaggle/group&#45;by&#45;having&#45;count#1086466107&#45;&gt;http://purl.org/dj/kaggle/group&#45;by&#45;having&#45;count</title>
<path fill="none" stroke="black" d="M1956.19,-114.75C1925.57,-103.91 1893.66,-94.06 1862.94,-87 1667,-42 1437.91,-26.12 1275.22,-20.83"/>
<polygon fill="black" stroke="black" points="1275.19,-17.33 1265.09,-20.51 1274.97,-24.33 1275.19,-17.33"/>
<text text-anchor="middle" x="1789.94" y="-57.8" font-family="Times,serif" font-size="14.00">appearsIn ()</text>
</g>
</g>
</svg>
