<?xml version="1.0" encoding="UTF-8" standalone="no"?>
<!DOCTYPE svg PUBLIC "-//W3C//DTD SVG 1.1//EN"
 "http://www.w3.org/Graphics/SVG/1.1/DTD/svg11.dtd">
<!-- Generated by graphviz version 2.47.1 (20210417.1919)
 -->
<!-- Pages: 1 -->
<svg width="2414pt" height="674pt"
 viewBox="0.00 0.00 2413.67 674.00" xmlns="http://www.w3.org/2000/svg" xmlns:xlink="http://www.w3.org/1999/xlink">
<g id="graph0" class="graph" transform="scale(1 1) rotate(0) translate(4 670)">
<polygon fill="white" stroke="transparent" points="-4,4 -4,-670 2409.67,-670 2409.67,4 -4,4"/>
<!-- http://purl.org/dj/kaggle/human&#45;activity&#45;generation/activity/2526540418797862383 -->
<g id="node1" class="node">
<title>http://purl.org/dj/kaggle/human&#45;activity&#45;generation/activity/2526540418797862383</title>
<ellipse fill="none" stroke="black" cx="901.84" cy="-279" rx="141.88" ry="18"/>
<text text-anchor="middle" x="901.84" y="-275.3" font-family="Times,serif" font-size="14.00">2526540418797862383 (Movement)</text>
</g>
<!-- http://purl.org/dj/kaggle/human&#45;activity&#45;generation/activity/789824883786264545 -->
<g id="node2" class="node">
<title>http://purl.org/dj/kaggle/human&#45;activity&#45;generation/activity/789824883786264545</title>
<ellipse fill="none" stroke="black" cx="1353.84" cy="-192" rx="138.38" ry="18"/>
<text text-anchor="middle" x="1353.84" y="-188.3" font-family="Times,serif" font-size="14.00">789824883786264545 (Preparation)</text>
</g>
<!-- http://purl.org/dj/kaggle/human&#45;activity&#45;generation/activity/2526540418797862383&#45;&gt;http://purl.org/dj/kaggle/human&#45;activity&#45;generation/activity/789824883786264545 -->
<g id="edge1" class="edge">
<title>http://purl.org/dj/kaggle/human&#45;activity&#45;generation/activity/2526540418797862383&#45;&gt;http://purl.org/dj/kaggle/human&#45;activity&#45;generation/activity/789824883786264545</title>
<path fill="none" stroke="black" d="M959.51,-262.51C1000.86,-251.79 1058,-237.75 1108.84,-228 1153.47,-219.44 1203.04,-211.98 1245.86,-206.17"/>
<polygon fill="black" stroke="black" points="1246.57,-209.61 1256.02,-204.81 1245.64,-202.67 1246.57,-209.61"/>
<text text-anchor="middle" x="1132.34" y="-231.8" font-family="Times,serif" font-size="14.00">previous</text>
</g>
<!-- http://purl.org/dj/kaggle/human&#45;activity&#45;generation/activity/&#45;2198710999262171011 -->
<g id="node3" class="node">
<title>http://purl.org/dj/kaggle/human&#45;activity&#45;generation/activity/&#45;2198710999262171011</title>
<ellipse fill="none" stroke="black" cx="1012.84" cy="-105" rx="126.98" ry="18"/>
<text text-anchor="middle" x="1012.84" y="-101.3" font-family="Times,serif" font-size="14.00">&#45;2198710999262171011 (Reuse)</text>
</g>
<!-- http://purl.org/dj/kaggle/human&#45;activity&#45;generation/activity/2526540418797862383&#45;&gt;http://purl.org/dj/kaggle/human&#45;activity&#45;generation/activity/&#45;2198710999262171011 -->
<g id="edge2" class="edge">
<title>http://purl.org/dj/kaggle/human&#45;activity&#45;generation/activity/2526540418797862383&#45;&gt;http://purl.org/dj/kaggle/human&#45;activity&#45;generation/activity/&#45;2198710999262171011</title>
<path fill="none" stroke="black" d="M912.89,-260.88C932.42,-230.61 973.14,-167.51 996.12,-131.9"/>
<polygon fill="black" stroke="black" points="999.35,-133.35 1001.83,-123.05 993.47,-129.56 999.35,-133.35"/>
<text text-anchor="middle" x="992.34" y="-188.3" font-family="Times,serif" font-size="14.00">previous</text>
</g>
<!-- http://purl.org/dj/kaggle/human&#45;activity&#45;generation/activity/789824883786264545&#45;&gt;http://purl.org/dj/kaggle/human&#45;activity&#45;generation/activity/&#45;2198710999262171011 -->
<g id="edge3" class="edge">
<title>http://purl.org/dj/kaggle/human&#45;activity&#45;generation/activity/789824883786264545&#45;&gt;http://purl.org/dj/kaggle/human&#45;activity&#45;generation/activity/&#45;2198710999262171011</title>
<path fill="none" stroke="black" d="M1292.87,-175.8C1233.9,-161.1 1144.6,-138.84 1082.76,-123.43"/>
<polygon fill="black" stroke="black" points="1083.25,-119.94 1072.7,-120.92 1081.56,-126.74 1083.25,-119.94"/>
<text text-anchor="middle" x="1227.34" y="-144.8" font-family="Times,serif" font-size="14.00">previous</text>
</g>
<!-- http://purl.org/dj/kaggle/human&#45;activity&#45;generation -->
<g id="node4" class="node">
<title>http://purl.org/dj/kaggle/human&#45;activity&#45;generation</title>
<ellipse fill="none" stroke="black" cx="1762.84" cy="-18" rx="228.56" ry="18"/>
<text text-anchor="middle" x="1762.84" y="-14.3" font-family="Times,serif" font-size="14.00">human&#45;activity&#45;generation (human&#45;activity&#45;generation.ipynb)</text>
</g>
<!-- http://purl.org/dj/kaggle/human&#45;activity&#45;generation/activity/789824883786264545&#45;&gt;http://purl.org/dj/kaggle/human&#45;activity&#45;generation -->
<g id="edge4" class="edge">
<title>http://purl.org/dj/kaggle/human&#45;activity&#45;generation/activity/789824883786264545&#45;&gt;http://purl.org/dj/kaggle/human&#45;activity&#45;generation</title>
<path fill="none" stroke="black" d="M1392.68,-174.66C1467.41,-143.24 1631.06,-74.42 1713.42,-39.78"/>
<polygon fill="black" stroke="black" points="1715.19,-42.84 1723.05,-35.73 1712.47,-36.38 1715.19,-42.84"/>
<text text-anchor="middle" x="1622.34" y="-101.3" font-family="Times,serif" font-size="14.00">previous</text>
</g>
<!-- http://purl.org/dj/kaggle/human&#45;activity&#45;generation/activity/&#45;2198710999262171011&#45;&gt;http://purl.org/dj/kaggle/human&#45;activity&#45;generation -->
<g id="edge5" class="edge">
<title>http://purl.org/dj/kaggle/human&#45;activity&#45;generation/activity/&#45;2198710999262171011&#45;&gt;http://purl.org/dj/kaggle/human&#45;activity&#45;generation</title>
<path fill="none" stroke="black" d="M1108.59,-93.15C1240.42,-78.21 1478.47,-51.23 1628.19,-34.26"/>
<polygon fill="black" stroke="black" points="1628.82,-37.71 1638.37,-33.11 1628.04,-30.76 1628.82,-37.71"/>
<text text-anchor="middle" x="1456.34" y="-57.8" font-family="Times,serif" font-size="14.00">previous</text>
</g>
<!-- http://purl.org/dj/kaggle/human&#45;activity&#45;generation/activity/2561728152782522003 -->
<g id="node5" class="node">
<title>http://purl.org/dj/kaggle/human&#45;activity&#45;generation/activity/2561728152782522003</title>
<ellipse fill="none" stroke="black" cx="1799.84" cy="-279" rx="148.67" ry="18"/>
<text text-anchor="middle" x="1799.84" y="-275.3" font-family="Times,serif" font-size="14.00">2561728152782522003 (Visualisation)</text>
</g>
<!-- http://purl.org/dj/kaggle/human&#45;activity&#45;generation/activity/2561728152782522003&#45;&gt;http://purl.org/dj/kaggle/human&#45;activity&#45;generation/activity/789824883786264545 -->
<g id="edge6" class="edge">
<title>http://purl.org/dj/kaggle/human&#45;activity&#45;generation/activity/2561728152782522003&#45;&gt;http://purl.org/dj/kaggle/human&#45;activity&#45;generation/activity/789824883786264545</title>
<path fill="none" stroke="black" d="M1754.73,-261.83C1722.31,-250.79 1677.36,-236.65 1636.84,-228 1584.97,-216.93 1526.96,-208.99 1477.03,-203.51"/>
<polygon fill="black" stroke="black" points="1477.15,-200 1466.83,-202.41 1476.4,-206.96 1477.15,-200"/>
<text text-anchor="middle" x="1714.34" y="-231.8" font-family="Times,serif" font-size="14.00">previous</text>
</g>
<!-- http://purl.org/dj/kaggle/human&#45;activity&#45;generation/activity/2561728152782522003&#45;&gt;http://purl.org/dj/kaggle/human&#45;activity&#45;generation -->
<g id="edge7" class="edge">
<title>http://purl.org/dj/kaggle/human&#45;activity&#45;generation/activity/2561728152782522003&#45;&gt;http://purl.org/dj/kaggle/human&#45;activity&#45;generation</title>
<path fill="none" stroke="black" d="M1797.35,-260.6C1791.05,-216.46 1774.38,-99.83 1766.75,-46.42"/>
<polygon fill="black" stroke="black" points="1770.19,-45.72 1765.31,-36.32 1763.26,-46.71 1770.19,-45.72"/>
<text text-anchor="middle" x="1805.34" y="-144.8" font-family="Times,serif" font-size="14.00">previous</text>
</g>
<!-- http://purl.org/dj/kaggle/human&#45;activity&#45;generation/activity/7834150528861260752 -->
<g id="node6" class="node">
<title>http://purl.org/dj/kaggle/human&#45;activity&#45;generation/activity/7834150528861260752</title>
<ellipse fill="none" stroke="black" cx="148.84" cy="-453" rx="148.67" ry="18"/>
<text text-anchor="middle" x="148.84" y="-449.3" font-family="Times,serif" font-size="14.00">7834150528861260752 (Visualisation)</text>
</g>
<!-- http://purl.org/dj/kaggle/human&#45;activity&#45;generation/activity/7834150528861260752&#45;&gt;http://purl.org/dj/kaggle/human&#45;activity&#45;generation/activity/&#45;2198710999262171011 -->
<g id="edge8" class="edge">
<title>http://purl.org/dj/kaggle/human&#45;activity&#45;generation/activity/7834150528861260752&#45;&gt;http://purl.org/dj/kaggle/human&#45;activity&#45;generation/activity/&#45;2198710999262171011</title>
<path fill="none" stroke="black" d="M168.38,-434.85C184.19,-419 203.84,-393.89 203.84,-367 203.84,-367 203.84,-367 203.84,-191 203.84,-124.21 645.67,-109.71 876.29,-106.7"/>
<polygon fill="black" stroke="black" points="876.48,-110.2 886.43,-106.57 876.39,-103.2 876.48,-110.2"/>
<text text-anchor="middle" x="227.34" y="-275.3" font-family="Times,serif" font-size="14.00">previous</text>
</g>
<!-- http://purl.org/dj/kaggle/human&#45;activity&#45;generation/activity/8677938775287113138 -->
<g id="node7" class="node">
<title>http://purl.org/dj/kaggle/human&#45;activity&#45;generation/activity/8677938775287113138</title>
<ellipse fill="none" stroke="black" cx="825.84" cy="-366" rx="142.97" ry="18"/>
<text text-anchor="middle" x="825.84" y="-362.3" font-family="Times,serif" font-size="14.00">8677938775287113138 (Preparation)</text>
</g>
<!-- http://purl.org/dj/kaggle/human&#45;activity&#45;generation/activity/7834150528861260752&#45;&gt;http://purl.org/dj/kaggle/human&#45;activity&#45;generation/activity/8677938775287113138 -->
<g id="edge9" class="edge">
<title>http://purl.org/dj/kaggle/human&#45;activity&#45;generation/activity/7834150528861260752&#45;&gt;http://purl.org/dj/kaggle/human&#45;activity&#45;generation/activity/8677938775287113138</title>
<path fill="none" stroke="black" d="M254.18,-440.21C271.75,-438.37 289.8,-436.57 306.84,-435 359.21,-430.19 493.2,-434.4 542.84,-417 554,-413.08 553.79,-406.23 564.84,-402 579.02,-396.57 648.81,-387.34 712.65,-379.73"/>
<polygon fill="black" stroke="black" points="713.32,-383.17 722.84,-378.52 712.5,-376.22 713.32,-383.17"/>
<text text-anchor="middle" x="588.34" y="-405.8" font-family="Times,serif" font-size="14.00">previous</text>
</g>
<!-- http://purl.org/dj/kaggle/human&#45;activity&#45;generation/activity/8677938775287113138&#45;&gt;http://purl.org/dj/kaggle/human&#45;activity&#45;generation/activity/2526540418797862383 -->
<g id="edge10" class="edge">
<title>http://purl.org/dj/kaggle/human&#45;activity&#45;generation/activity/8677938775287113138&#45;&gt;http://purl.org/dj/kaggle/human&#45;activity&#45;generation/activity/2526540418797862383</title>
<path fill="none" stroke="black" d="M841.22,-347.8C852.24,-335.47 867.25,-318.68 879.58,-304.89"/>
<polygon fill="black" stroke="black" points="882.42,-306.96 886.48,-297.18 877.21,-302.3 882.42,-306.96"/>
<text text-anchor="middle" x="892.34" y="-318.8" font-family="Times,serif" font-size="14.00">previous</text>
</g>
<!-- http://purl.org/dj/kaggle/human&#45;activity&#45;generation/activity/8677938775287113138&#45;&gt;http://purl.org/dj/kaggle/human&#45;activity&#45;generation/activity/&#45;2198710999262171011 -->
<g id="edge11" class="edge">
<title>http://purl.org/dj/kaggle/human&#45;activity&#45;generation/activity/8677938775287113138&#45;&gt;http://purl.org/dj/kaggle/human&#45;activity&#45;generation/activity/&#45;2198710999262171011</title>
<path fill="none" stroke="black" d="M767.7,-349.4C759.04,-344.56 751.23,-338.25 745.84,-330 737.62,-317.44 728.42,-296.4 750.84,-261 796.19,-189.37 887.58,-146.65 949.51,-124.73"/>
<polygon fill="black" stroke="black" points="950.87,-127.96 959.18,-121.39 948.59,-121.35 950.87,-127.96"/>
<text text-anchor="middle" x="799.34" y="-231.8" font-family="Times,serif" font-size="14.00">previous</text>
</g>
<!-- http://purl.org/dj/kaggle/human&#45;activity&#45;generation/activity/7164747037431586177 -->
<g id="node8" class="node">
<title>http://purl.org/dj/kaggle/human&#45;activity&#45;generation/activity/7164747037431586177</title>
<ellipse fill="none" stroke="black" cx="1636.84" cy="-648" rx="148.67" ry="18"/>
<text text-anchor="middle" x="1636.84" y="-644.3" font-family="Times,serif" font-size="14.00">7164747037431586177 (Visualisation)</text>
</g>
<!-- http://purl.org/dj/kaggle/human&#45;activity&#45;generation/activity/7164747037431586177&#45;&gt;http://purl.org/dj/kaggle/human&#45;activity&#45;generation/activity/2526540418797862383 -->
<g id="edge12" class="edge">
<title>http://purl.org/dj/kaggle/human&#45;activity&#45;generation/activity/7164747037431586177&#45;&gt;http://purl.org/dj/kaggle/human&#45;activity&#45;generation/activity/2526540418797862383</title>
<path fill="none" stroke="black" d="M1541.85,-634.09C1460.81,-621.8 1351.6,-601.83 1313.84,-579 1242.79,-536.04 1257.53,-489.43 1194.84,-435 1138.95,-386.48 1118.27,-382.6 1052.84,-348 1019.7,-330.48 981.14,-313.16 951.29,-300.39"/>
<polygon fill="black" stroke="black" points="952.49,-297.1 941.92,-296.41 949.75,-303.54 952.49,-297.1"/>
<text text-anchor="middle" x="1251.34" y="-449.3" font-family="Times,serif" font-size="14.00">previous</text>
</g>
<!-- http://purl.org/dj/kaggle/human&#45;activity&#45;generation/activity/7164747037431586177&#45;&gt;http://purl.org/dj/kaggle/human&#45;activity&#45;generation/activity/789824883786264545 -->
<g id="edge13" class="edge">
<title>http://purl.org/dj/kaggle/human&#45;activity&#45;generation/activity/7164747037431586177&#45;&gt;http://purl.org/dj/kaggle/human&#45;activity&#45;generation/activity/789824883786264545</title>
<path fill="none" stroke="black" d="M1632.33,-629.88C1628.24,-612.81 1622.84,-585.78 1622.84,-562 1622.84,-562 1622.84,-562 1622.84,-278 1622.84,-242.2 1535.12,-219.57 1459.86,-206.74"/>
<polygon fill="black" stroke="black" points="1460.25,-203.26 1449.81,-205.07 1459.1,-210.16 1460.25,-203.26"/>
<text text-anchor="middle" x="1646.34" y="-405.8" font-family="Times,serif" font-size="14.00">previous</text>
</g>
<!-- http://purl.org/dj/kaggle/human&#45;activity&#45;generation/activity/7164747037431586177&#45;&gt;http://purl.org/dj/kaggle/human&#45;activity&#45;generation/activity/&#45;2198710999262171011 -->
<g id="edge14" class="edge">
<title>http://purl.org/dj/kaggle/human&#45;activity&#45;generation/activity/7164747037431586177&#45;&gt;http://purl.org/dj/kaggle/human&#45;activity&#45;generation/activity/&#45;2198710999262171011</title>
<path fill="none" stroke="black" d="M1764.41,-638.72C1860.88,-628.83 1976.84,-607.48 1976.84,-562 1976.84,-562 1976.84,-562 1976.84,-321.5 1976.84,-293.32 1978.89,-279.74 1957.84,-261 1919.23,-226.63 1551.84,-182.4 1500.84,-174 1367.83,-152.09 1213.65,-131.38 1114.77,-118.71"/>
<polygon fill="black" stroke="black" points="1115.15,-115.23 1104.78,-117.43 1114.26,-122.17 1115.15,-115.23"/>
<text text-anchor="middle" x="2000.34" y="-362.3" font-family="Times,serif" font-size="14.00">previous</text>
</g>
<!-- http://purl.org/dj/kaggle/human&#45;activity&#45;generation/activity/&#45;7892397709232465257 -->
<g id="node9" class="node">
<title>http://purl.org/dj/kaggle/human&#45;activity&#45;generation/activity/&#45;7892397709232465257</title>
<ellipse fill="none" stroke="black" cx="1458.84" cy="-561" rx="135.68" ry="18"/>
<text text-anchor="middle" x="1458.84" y="-557.3" font-family="Times,serif" font-size="14.00">&#45;7892397709232465257 (Analysis)</text>
</g>
<!-- http://purl.org/dj/kaggle/human&#45;activity&#45;generation/activity/7164747037431586177&#45;&gt;http://purl.org/dj/kaggle/human&#45;activity&#45;generation/activity/&#45;7892397709232465257 -->
<g id="edge15" class="edge">
<title>http://purl.org/dj/kaggle/human&#45;activity&#45;generation/activity/7164747037431586177&#45;&gt;http://purl.org/dj/kaggle/human&#45;activity&#45;generation/activity/&#45;7892397709232465257</title>
<path fill="none" stroke="black" d="M1600.92,-630.38C1588.52,-624.6 1574.55,-618.05 1561.84,-612 1542.03,-602.57 1520.16,-591.98 1501.69,-582.98"/>
<polygon fill="black" stroke="black" points="1503.16,-579.81 1492.64,-578.57 1500.09,-586.1 1503.16,-579.81"/>
<text text-anchor="middle" x="1585.34" y="-600.8" font-family="Times,serif" font-size="14.00">previous</text>
</g>
<!-- http://purl.org/dj/kaggle/human&#45;activity&#45;generation/activity/5131540698854259469 -->
<g id="node10" class="node">
<title>http://purl.org/dj/kaggle/human&#45;activity&#45;generation/activity/5131540698854259469</title>
<ellipse fill="none" stroke="black" cx="1020.84" cy="-561" rx="133.48" ry="18"/>
<text text-anchor="middle" x="1020.84" y="-557.3" font-family="Times,serif" font-size="14.00">5131540698854259469 (Analysis)</text>
</g>
<!-- http://purl.org/dj/kaggle/human&#45;activity&#45;generation/activity/7164747037431586177&#45;&gt;http://purl.org/dj/kaggle/human&#45;activity&#45;generation/activity/5131540698854259469 -->
<g id="edge16" class="edge">
<title>http://purl.org/dj/kaggle/human&#45;activity&#45;generation/activity/7164747037431586177&#45;&gt;http://purl.org/dj/kaggle/human&#45;activity&#45;generation/activity/5131540698854259469</title>
<path fill="none" stroke="black" d="M1533.22,-635.08C1515.11,-633.21 1496.44,-631.43 1478.84,-630 1406.96,-624.14 1223.36,-634.46 1154.84,-612 1143.24,-608.2 1142.87,-602.22 1131.84,-597 1118.48,-590.68 1103.7,-585.12 1089.39,-580.4"/>
<polygon fill="black" stroke="black" points="1090.18,-576.97 1079.59,-577.26 1088.05,-583.64 1090.18,-576.97"/>
<text text-anchor="middle" x="1178.34" y="-600.8" font-family="Times,serif" font-size="14.00">previous</text>
</g>
<!-- http://purl.org/dj/kaggle/human&#45;activity&#45;generation/activity/819736000727493566 -->
<g id="node11" class="node">
<title>http://purl.org/dj/kaggle/human&#45;activity&#45;generation/activity/819736000727493566</title>
<ellipse fill="none" stroke="black" cx="660.84" cy="-507" rx="128.88" ry="18"/>
<text text-anchor="middle" x="660.84" y="-503.3" font-family="Times,serif" font-size="14.00">819736000727493566 (Analysis)</text>
</g>
<!-- http://purl.org/dj/kaggle/human&#45;activity&#45;generation/activity/7164747037431586177&#45;&gt;http://purl.org/dj/kaggle/human&#45;activity&#45;generation/activity/819736000727493566 -->
<g id="edge17" class="edge">
<title>http://purl.org/dj/kaggle/human&#45;activity&#45;generation/activity/7164747037431586177&#45;&gt;http://purl.org/dj/kaggle/human&#45;activity&#45;generation/activity/819736000727493566</title>
<path fill="none" stroke="black" d="M1531.93,-635.18C1514.22,-633.34 1496.01,-631.54 1478.84,-630 1423.14,-625.01 1278.35,-635.99 1227.84,-612 1189.78,-593.92 1200.91,-561.04 1162.84,-543 1146.15,-535.1 932.56,-522.37 789.41,-514.63"/>
<polygon fill="black" stroke="black" points="789.41,-511.13 779.23,-514.08 789.03,-518.12 789.41,-511.13"/>
<text text-anchor="middle" x="1251.34" y="-600.8" font-family="Times,serif" font-size="14.00">previous</text>
</g>
<!-- http://purl.org/dj/kaggle/human&#45;activity&#45;generation/activity/&#45;7892397709232465257&#45;&gt;http://purl.org/dj/kaggle/human&#45;activity&#45;generation/activity/2561728152782522003 -->
<g id="edge18" class="edge">
<title>http://purl.org/dj/kaggle/human&#45;activity&#45;generation/activity/&#45;7892397709232465257&#45;&gt;http://purl.org/dj/kaggle/human&#45;activity&#45;generation/activity/2561728152782522003</title>
<path fill="none" stroke="black" d="M1488.57,-543.33C1531.57,-518.55 1612.66,-469.27 1673.84,-417 1714.98,-381.85 1756.21,-334.06 1779.81,-305.21"/>
<polygon fill="black" stroke="black" points="1782.69,-307.22 1786.27,-297.25 1777.25,-302.81 1782.69,-307.22"/>
<text text-anchor="middle" x="1712.34" y="-405.8" font-family="Times,serif" font-size="14.00">previous</text>
</g>
<!-- http://purl.org/dj/kaggle/human&#45;activity&#45;generation/activity/&#45;1928732516682046467 -->
<g id="node12" class="node">
<title>http://purl.org/dj/kaggle/human&#45;activity&#45;generation/activity/&#45;1928732516682046467</title>
<ellipse fill="none" stroke="black" cx="1034.84" cy="-453" rx="151.37" ry="18"/>
<text text-anchor="middle" x="1034.84" y="-449.3" font-family="Times,serif" font-size="14.00">&#45;1928732516682046467 (Visualisation)</text>
</g>
<!-- http://purl.org/dj/kaggle/human&#45;activity&#45;generation/activity/&#45;7892397709232465257&#45;&gt;http://purl.org/dj/kaggle/human&#45;activity&#45;generation/activity/&#45;1928732516682046467 -->
<g id="edge19" class="edge">
<title>http://purl.org/dj/kaggle/human&#45;activity&#45;generation/activity/&#45;7892397709232465257&#45;&gt;http://purl.org/dj/kaggle/human&#45;activity&#45;generation/activity/&#45;1928732516682046467</title>
<path fill="none" stroke="black" d="M1398.09,-544.81C1321.07,-525.56 1188.49,-492.41 1106.58,-471.94"/>
<polygon fill="black" stroke="black" points="1107.4,-468.53 1096.85,-469.5 1105.7,-475.32 1107.4,-468.53"/>
<text text-anchor="middle" x="1333.34" y="-503.3" font-family="Times,serif" font-size="14.00">previous</text>
</g>
<!-- http://purl.org/dj/kaggle/human&#45;activity&#45;generation/activity/5131540698854259469&#45;&gt;http://purl.org/dj/kaggle/human&#45;activity&#45;generation/activity/789824883786264545 -->
<g id="edge20" class="edge">
<title>http://purl.org/dj/kaggle/human&#45;activity&#45;generation/activity/5131540698854259469&#45;&gt;http://purl.org/dj/kaggle/human&#45;activity&#45;generation/activity/789824883786264545</title>
<path fill="none" stroke="black" d="M1078.06,-544.67C1116.68,-531.4 1165.73,-508.33 1194.84,-471 1262.99,-383.6 1176.53,-310.23 1250.84,-228 1256.73,-221.48 1263.87,-216.18 1271.63,-211.86"/>
<polygon fill="black" stroke="black" points="1273.21,-214.99 1280.61,-207.4 1270.09,-208.72 1273.21,-214.99"/>
<text text-anchor="middle" x="1247.34" y="-362.3" font-family="Times,serif" font-size="14.00">previous</text>
</g>
<!-- http://purl.org/dj/kaggle/human&#45;activity&#45;generation/activity/5131540698854259469&#45;&gt;http://purl.org/dj/kaggle/human&#45;activity&#45;generation/activity/8677938775287113138 -->
<g id="edge21" class="edge">
<title>http://purl.org/dj/kaggle/human&#45;activity&#45;generation/activity/5131540698854259469&#45;&gt;http://purl.org/dj/kaggle/human&#45;activity&#45;generation/activity/8677938775287113138</title>
<path fill="none" stroke="black" d="M946.65,-546C904.2,-533.82 854.28,-511.46 827.84,-471 812.99,-448.29 814.88,-416.43 818.98,-393.97"/>
<polygon fill="black" stroke="black" points="822.42,-394.58 821.03,-384.08 815.57,-393.16 822.42,-394.58"/>
<text text-anchor="middle" x="851.34" y="-449.3" font-family="Times,serif" font-size="14.00">previous</text>
</g>
<!-- http://purl.org/dj/kaggle/human&#45;activity&#45;generation/activity/5131540698854259469&#45;&gt;http://purl.org/dj/kaggle/human&#45;activity&#45;generation/activity/&#45;1928732516682046467 -->
<g id="edge22" class="edge">
<title>http://purl.org/dj/kaggle/human&#45;activity&#45;generation/activity/5131540698854259469&#45;&gt;http://purl.org/dj/kaggle/human&#45;activity&#45;generation/activity/&#45;1928732516682046467</title>
<path fill="none" stroke="black" d="M1023.09,-542.97C1025.28,-526.38 1028.64,-500.88 1031.21,-481.43"/>
<polygon fill="black" stroke="black" points="1034.71,-481.71 1032.55,-471.34 1027.77,-480.8 1034.71,-481.71"/>
<text text-anchor="middle" x="1054.34" y="-503.3" font-family="Times,serif" font-size="14.00">previous</text>
</g>
<!-- http://purl.org/dj/kaggle/human&#45;activity&#45;generation/activity/819736000727493566&#45;&gt;http://purl.org/dj/kaggle/human&#45;activity&#45;generation/activity/8677938775287113138 -->
<g id="edge23" class="edge">
<title>http://purl.org/dj/kaggle/human&#45;activity&#45;generation/activity/819736000727493566&#45;&gt;http://purl.org/dj/kaggle/human&#45;activity&#45;generation/activity/8677938775287113138</title>
<path fill="none" stroke="black" d="M682.45,-489.07C689.62,-483.39 697.62,-476.97 704.84,-471 737.44,-444.04 774.21,-412.23 798.57,-390.95"/>
<polygon fill="black" stroke="black" points="801.11,-393.38 806.33,-384.16 796.5,-388.11 801.11,-393.38"/>
<text text-anchor="middle" x="769.34" y="-449.3" font-family="Times,serif" font-size="14.00">previous</text>
</g>
<!-- http://purl.org/dj/kaggle/human&#45;activity&#45;generation/activity/9086826089294580284 -->
<g id="node13" class="node">
<title>http://purl.org/dj/kaggle/human&#45;activity&#45;generation/activity/9086826089294580284</title>
<ellipse fill="none" stroke="black" cx="521.84" cy="-366" rx="142.97" ry="18"/>
<text text-anchor="middle" x="521.84" y="-362.3" font-family="Times,serif" font-size="14.00">9086826089294580284 (Preparation)</text>
</g>
<!-- http://purl.org/dj/kaggle/human&#45;activity&#45;generation/activity/819736000727493566&#45;&gt;http://purl.org/dj/kaggle/human&#45;activity&#45;generation/activity/9086826089294580284 -->
<g id="edge24" class="edge">
<title>http://purl.org/dj/kaggle/human&#45;activity&#45;generation/activity/819736000727493566&#45;&gt;http://purl.org/dj/kaggle/human&#45;activity&#45;generation/activity/9086826089294580284</title>
<path fill="none" stroke="black" d="M657.76,-488.86C652.8,-466.06 640.95,-425.84 615.84,-402 609.41,-395.9 601.83,-390.85 593.81,-386.66"/>
<polygon fill="black" stroke="black" points="595.13,-383.41 584.6,-382.29 592.13,-389.74 595.13,-383.41"/>
<text text-anchor="middle" x="677.34" y="-449.3" font-family="Times,serif" font-size="14.00">previous</text>
</g>
<!-- http://purl.org/dj/kaggle/human&#45;activity&#45;generation/activity/&#45;1928732516682046467&#45;&gt;http://purl.org/dj/kaggle/human&#45;activity&#45;generation/activity/2526540418797862383 -->
<g id="edge25" class="edge">
<title>http://purl.org/dj/kaggle/human&#45;activity&#45;generation/activity/&#45;1928732516682046467&#45;&gt;http://purl.org/dj/kaggle/human&#45;activity&#45;generation/activity/2526540418797862383</title>
<path fill="none" stroke="black" d="M1027.57,-434.71C1018.02,-413.15 999.86,-375.73 977.84,-348 964.74,-331.5 947.4,-315.66 932.59,-303.41"/>
<polygon fill="black" stroke="black" points="934.64,-300.57 924.67,-297 930.24,-306.01 934.64,-300.57"/>
<text text-anchor="middle" x="1025.34" y="-362.3" font-family="Times,serif" font-size="14.00">previous</text>
</g>
<!-- http://purl.org/dj/kaggle/human&#45;activity&#45;generation/activity/&#45;1928732516682046467&#45;&gt;http://purl.org/dj/kaggle/human&#45;activity&#45;generation/activity/789824883786264545 -->
<g id="edge26" class="edge">
<title>http://purl.org/dj/kaggle/human&#45;activity&#45;generation/activity/&#45;1928732516682046467&#45;&gt;http://purl.org/dj/kaggle/human&#45;activity&#45;generation/activity/789824883786264545</title>
<path fill="none" stroke="black" d="M1069.24,-435.28C1077.85,-430.15 1086.67,-423.98 1093.84,-417 1164.95,-347.75 1132.4,-286.17 1212.84,-228 1224.18,-219.79 1237.24,-213.5 1250.74,-208.68"/>
<polygon fill="black" stroke="black" points="1252.22,-211.87 1260.62,-205.42 1250.03,-205.23 1252.22,-211.87"/>
<text text-anchor="middle" x="1175.34" y="-318.8" font-family="Times,serif" font-size="14.00">previous</text>
</g>
<!-- http://purl.org/dj/kaggle/human&#45;activity&#45;generation/activity/&#45;1928732516682046467&#45;&gt;http://purl.org/dj/kaggle/human&#45;activity&#45;generation/activity/&#45;2198710999262171011 -->
<g id="edge27" class="edge">
<title>http://purl.org/dj/kaggle/human&#45;activity&#45;generation/activity/&#45;1928732516682046467&#45;&gt;http://purl.org/dj/kaggle/human&#45;activity&#45;generation/activity/&#45;2198710999262171011</title>
<path fill="none" stroke="black" d="M1040.68,-434.92C1045.01,-421.31 1050.54,-401.68 1052.84,-384 1059.89,-329.79 1059.72,-315.23 1052.84,-261 1047.02,-215.18 1031.89,-163.52 1022,-132.92"/>
<polygon fill="black" stroke="black" points="1025.31,-131.79 1018.87,-123.38 1018.66,-133.98 1025.31,-131.79"/>
<text text-anchor="middle" x="1080.34" y="-275.3" font-family="Times,serif" font-size="14.00">previous</text>
</g>
<!-- http://purl.org/dj/kaggle/human&#45;activity&#45;generation/activity/&#45;1928732516682046467&#45;&gt;http://purl.org/dj/kaggle/human&#45;activity&#45;generation/activity/8677938775287113138 -->
<g id="edge28" class="edge">
<title>http://purl.org/dj/kaggle/human&#45;activity&#45;generation/activity/&#45;1928732516682046467&#45;&gt;http://purl.org/dj/kaggle/human&#45;activity&#45;generation/activity/8677938775287113138</title>
<path fill="none" stroke="black" d="M991.67,-435.74C976.5,-429.93 959.37,-423.28 943.84,-417 920.39,-407.52 894.49,-396.61 872.95,-387.39"/>
<polygon fill="black" stroke="black" points="874.27,-384.15 863.7,-383.43 871.51,-390.58 874.27,-384.15"/>
<text text-anchor="middle" x="967.34" y="-405.8" font-family="Times,serif" font-size="14.00">previous</text>
</g>
<!-- http://purl.org/dj/kaggle/human&#45;activity&#45;generation/activity/9086826089294580284&#45;&gt;http://purl.org/dj/kaggle/human&#45;activity&#45;generation/activity/2526540418797862383 -->
<g id="edge32" class="edge">
<title>http://purl.org/dj/kaggle/human&#45;activity&#45;generation/activity/9086826089294580284&#45;&gt;http://purl.org/dj/kaggle/human&#45;activity&#45;generation/activity/2526540418797862383</title>
<path fill="none" stroke="black" d="M588.9,-350C655,-335.21 755.9,-312.64 825.15,-297.15"/>
<polygon fill="black" stroke="black" points="826.13,-300.52 835.13,-294.92 824.6,-293.69 826.13,-300.52"/>
<text text-anchor="middle" x="758.34" y="-318.8" font-family="Times,serif" font-size="14.00">previous</text>
</g>
<!-- http://purl.org/dj/kaggle/human&#45;activity&#45;generation/activity/9086826089294580284&#45;&gt;http://purl.org/dj/kaggle/human&#45;activity&#45;generation/activity/&#45;2198710999262171011 -->
<g id="edge33" class="edge">
<title>http://purl.org/dj/kaggle/human&#45;activity&#45;generation/activity/9086826089294580284&#45;&gt;http://purl.org/dj/kaggle/human&#45;activity&#45;generation/activity/&#45;2198710999262171011</title>
<path fill="none" stroke="black" d="M542.16,-348.12C585.85,-312.42 692.87,-228.12 792.84,-174 827.02,-155.49 836.9,-153.11 873.84,-141 894.25,-134.31 916.7,-128.15 937.5,-122.93"/>
<polygon fill="black" stroke="black" points="938.37,-126.31 947.24,-120.51 936.69,-119.52 938.37,-126.31"/>
<text text-anchor="middle" x="727.34" y="-231.8" font-family="Times,serif" font-size="14.00">previous</text>
</g>
<!-- http://purl.org/dj/kaggle/human&#45;activity&#45;generation/activity/5398075200584437652 -->
<g id="node14" class="node">
<title>http://purl.org/dj/kaggle/human&#45;activity&#45;generation/activity/5398075200584437652</title>
<ellipse fill="none" stroke="black" cx="464.84" cy="-453" rx="148.67" ry="18"/>
<text text-anchor="middle" x="464.84" y="-449.3" font-family="Times,serif" font-size="14.00">5398075200584437652 (Visualisation)</text>
</g>
<!-- http://purl.org/dj/kaggle/human&#45;activity&#45;generation/activity/5398075200584437652&#45;&gt;http://purl.org/dj/kaggle/human&#45;activity&#45;generation/activity/&#45;2198710999262171011 -->
<g id="edge29" class="edge">
<title>http://purl.org/dj/kaggle/human&#45;activity&#45;generation/activity/5398075200584437652&#45;&gt;http://purl.org/dj/kaggle/human&#45;activity&#45;generation/activity/&#45;2198710999262171011</title>
<path fill="none" stroke="black" d="M414.17,-436.04C383.72,-422.95 350.84,-400.95 350.84,-367 350.84,-367 350.84,-367 350.84,-191 350.84,-138.21 686.31,-117.5 879.63,-109.96"/>
<polygon fill="black" stroke="black" points="880.01,-113.44 889.87,-109.56 879.74,-106.45 880.01,-113.44"/>
<text text-anchor="middle" x="374.34" y="-275.3" font-family="Times,serif" font-size="14.00">previous</text>
</g>
<!-- http://purl.org/dj/kaggle/human&#45;activity&#45;generation/activity/5398075200584437652&#45;&gt;http://purl.org/dj/kaggle/human&#45;activity&#45;generation/activity/8677938775287113138 -->
<g id="edge30" class="edge">
<title>http://purl.org/dj/kaggle/human&#45;activity&#45;generation/activity/5398075200584437652&#45;&gt;http://purl.org/dj/kaggle/human&#45;activity&#45;generation/activity/8677938775287113138</title>
<path fill="none" stroke="black" d="M530.64,-436.84C557.12,-430.71 587.94,-423.55 615.84,-417 661.34,-406.31 712.35,-394.17 752.7,-384.53"/>
<polygon fill="black" stroke="black" points="753.54,-387.92 762.45,-382.2 751.91,-381.12 753.54,-387.92"/>
<text text-anchor="middle" x="697.34" y="-405.8" font-family="Times,serif" font-size="14.00">previous</text>
</g>
<!-- http://purl.org/dj/kaggle/human&#45;activity&#45;generation/activity/5398075200584437652&#45;&gt;http://purl.org/dj/kaggle/human&#45;activity&#45;generation/activity/9086826089294580284 -->
<g id="edge31" class="edge">
<title>http://purl.org/dj/kaggle/human&#45;activity&#45;generation/activity/5398075200584437652&#45;&gt;http://purl.org/dj/kaggle/human&#45;activity&#45;generation/activity/9086826089294580284</title>
<path fill="none" stroke="black" d="M475.1,-434.65C480.98,-424.92 488.6,-412.64 495.84,-402 497.96,-398.87 500.25,-395.64 502.55,-392.45"/>
<polygon fill="black" stroke="black" points="505.48,-394.37 508.58,-384.24 499.84,-390.22 505.48,-394.37"/>
<text text-anchor="middle" x="519.34" y="-405.8" font-family="Times,serif" font-size="14.00">previous</text>
</g>
<!-- http://purl.org/dj/kaggle/human&#45;activity&#45;generation/activity/3369334018725223619 -->
<g id="node15" class="node">
<title>http://purl.org/dj/kaggle/human&#45;activity&#45;generation/activity/3369334018725223619</title>
<ellipse fill="none" stroke="black" cx="368.84" cy="-648" rx="148.67" ry="18"/>
<text text-anchor="middle" x="368.84" y="-644.3" font-family="Times,serif" font-size="14.00">3369334018725223619 (Visualisation)</text>
</g>
<!-- http://purl.org/dj/kaggle/human&#45;activity&#45;generation/activity/3369334018725223619&#45;&gt;http://purl.org/dj/kaggle/human&#45;activity&#45;generation/activity/789824883786264545 -->
<g id="edge34" class="edge">
<title>http://purl.org/dj/kaggle/human&#45;activity&#45;generation/activity/3369334018725223619&#45;&gt;http://purl.org/dj/kaggle/human&#45;activity&#45;generation/activity/789824883786264545</title>
<path fill="none" stroke="black" d="M472.02,-634.97C490.26,-633.11 509.09,-631.35 526.84,-630 703.39,-616.52 748.92,-632.17 924.84,-612 961.21,-607.83 969.63,-602.42 1005.84,-597 1075.3,-586.6 1099.05,-608.4 1162.84,-579 1194.82,-564.26 1264.4,-503.12 1278.84,-471 1317.11,-385.85 1246.46,-346.55 1283.84,-261 1291.55,-243.35 1306.21,-227.96 1320.14,-216.31"/>
<polygon fill="black" stroke="black" points="1322.55,-218.87 1328.19,-209.9 1318.19,-213.39 1322.55,-218.87"/>
<text text-anchor="middle" x="1314.34" y="-405.8" font-family="Times,serif" font-size="14.00">previous</text>
</g>
<!-- http://purl.org/dj/kaggle/human&#45;activity&#45;generation/activity/3369334018725223619&#45;&gt;http://purl.org/dj/kaggle/human&#45;activity&#45;generation/activity/5131540698854259469 -->
<g id="edge35" class="edge">
<title>http://purl.org/dj/kaggle/human&#45;activity&#45;generation/activity/3369334018725223619&#45;&gt;http://purl.org/dj/kaggle/human&#45;activity&#45;generation/activity/5131540698854259469</title>
<path fill="none" stroke="black" d="M466.1,-634.32C587.55,-618.49 794.39,-591.52 918.27,-575.37"/>
<polygon fill="black" stroke="black" points="919.06,-578.8 928.52,-574.03 918.15,-571.86 919.06,-578.8"/>
<text text-anchor="middle" x="758.34" y="-600.8" font-family="Times,serif" font-size="14.00">previous</text>
</g>
<!-- http://purl.org/dj/kaggle/human&#45;activity&#45;generation/activity/3369334018725223619&#45;&gt;http://purl.org/dj/kaggle/human&#45;activity&#45;generation/activity/819736000727493566 -->
<g id="edge36" class="edge">
<title>http://purl.org/dj/kaggle/human&#45;activity&#45;generation/activity/3369334018725223619&#45;&gt;http://purl.org/dj/kaggle/human&#45;activity&#45;generation/activity/819736000727493566</title>
<path fill="none" stroke="black" d="M403.77,-630.37C457.11,-604.98 558.8,-556.57 617.01,-528.86"/>
<polygon fill="black" stroke="black" points="618.79,-531.89 626.32,-524.43 615.78,-525.57 618.79,-531.89"/>
<text text-anchor="middle" x="495.34" y="-600.8" font-family="Times,serif" font-size="14.00">previous</text>
</g>
<!-- http://purl.org/dj/kaggle/human&#45;activity&#45;generation/activity/4881991105478364572 -->
<g id="node16" class="node">
<title>http://purl.org/dj/kaggle/human&#45;activity&#45;generation/activity/4881991105478364572</title>
<ellipse fill="none" stroke="black" cx="2256.84" cy="-648" rx="148.67" ry="18"/>
<text text-anchor="middle" x="2256.84" y="-644.3" font-family="Times,serif" font-size="14.00">4881991105478364572 (Visualisation)</text>
</g>
<!-- http://purl.org/dj/kaggle/human&#45;activity&#45;generation/activity/2453620089331631387 -->
<g id="node17" class="node">
<title>http://purl.org/dj/kaggle/human&#45;activity&#45;generation/activity/2453620089331631387</title>
<ellipse fill="none" stroke="black" cx="2256.84" cy="-561" rx="142.97" ry="18"/>
<text text-anchor="middle" x="2256.84" y="-557.3" font-family="Times,serif" font-size="14.00">2453620089331631387 (Preparation)</text>
</g>
<!-- http://purl.org/dj/kaggle/human&#45;activity&#45;generation/activity/4881991105478364572&#45;&gt;http://purl.org/dj/kaggle/human&#45;activity&#45;generation/activity/2453620089331631387 -->
<g id="edge37" class="edge">
<title>http://purl.org/dj/kaggle/human&#45;activity&#45;generation/activity/4881991105478364572&#45;&gt;http://purl.org/dj/kaggle/human&#45;activity&#45;generation/activity/2453620089331631387</title>
<path fill="none" stroke="black" d="M2256.84,-629.8C2256.84,-618.16 2256.84,-602.55 2256.84,-589.24"/>
<polygon fill="black" stroke="black" points="2260.34,-589.18 2256.84,-579.18 2253.34,-589.18 2260.34,-589.18"/>
<text text-anchor="middle" x="2280.34" y="-600.8" font-family="Times,serif" font-size="14.00">previous</text>
</g>
<!-- http://purl.org/dj/kaggle/human&#45;activity&#45;generation/activity/975197227054164546 -->
<g id="node18" class="node">
<title>http://purl.org/dj/kaggle/human&#45;activity&#45;generation/activity/975197227054164546</title>
<ellipse fill="none" stroke="black" cx="2256.84" cy="-453" rx="144.07" ry="18"/>
<text text-anchor="middle" x="2256.84" y="-449.3" font-family="Times,serif" font-size="14.00">975197227054164546 (Visualisation)</text>
</g>
<!-- http://purl.org/dj/kaggle/human&#45;activity&#45;generation/activity/2453620089331631387&#45;&gt;http://purl.org/dj/kaggle/human&#45;activity&#45;generation/activity/975197227054164546 -->
<g id="edge38" class="edge">
<title>http://purl.org/dj/kaggle/human&#45;activity&#45;generation/activity/2453620089331631387&#45;&gt;http://purl.org/dj/kaggle/human&#45;activity&#45;generation/activity/975197227054164546</title>
<path fill="none" stroke="black" d="M2256.84,-542.97C2256.84,-526.38 2256.84,-500.88 2256.84,-481.43"/>
<polygon fill="black" stroke="black" points="2260.34,-481.34 2256.84,-471.34 2253.34,-481.34 2260.34,-481.34"/>
<text text-anchor="middle" x="2280.34" y="-503.3" font-family="Times,serif" font-size="14.00">previous</text>
</g>
<!-- http://purl.org/dj/kaggle/human&#45;activity&#45;generation/activity/148825989241261993 -->
<g id="node19" class="node">
<title>http://purl.org/dj/kaggle/human&#45;activity&#45;generation/activity/148825989241261993</title>
<ellipse fill="none" stroke="black" cx="2256.84" cy="-366" rx="138.38" ry="18"/>
<text text-anchor="middle" x="2256.84" y="-362.3" font-family="Times,serif" font-size="14.00">148825989241261993 (Preparation)</text>
</g>
<!-- http://purl.org/dj/kaggle/human&#45;activity&#45;generation/activity/975197227054164546&#45;&gt;http://purl.org/dj/kaggle/human&#45;activity&#45;generation/activity/148825989241261993 -->
<g id="edge39" class="edge">
<title>http://purl.org/dj/kaggle/human&#45;activity&#45;generation/activity/975197227054164546&#45;&gt;http://purl.org/dj/kaggle/human&#45;activity&#45;generation/activity/148825989241261993</title>
<path fill="none" stroke="black" d="M2256.84,-434.8C2256.84,-423.16 2256.84,-407.55 2256.84,-394.24"/>
<polygon fill="black" stroke="black" points="2260.34,-394.18 2256.84,-384.18 2253.34,-394.18 2260.34,-394.18"/>
<text text-anchor="middle" x="2280.34" y="-405.8" font-family="Times,serif" font-size="14.00">previous</text>
</g>
<!-- http://purl.org/dj/kaggle/human&#45;activity&#45;generation/activity/148825989241261993&#45;&gt;http://purl.org/dj/kaggle/human&#45;activity&#45;generation/activity/&#45;2198710999262171011 -->
<g id="edge40" class="edge">
<title>http://purl.org/dj/kaggle/human&#45;activity&#45;generation/activity/148825989241261993&#45;&gt;http://purl.org/dj/kaggle/human&#45;activity&#45;generation/activity/&#45;2198710999262171011</title>
<path fill="none" stroke="black" d="M2278.4,-348.21C2303.24,-326.84 2337.96,-289.29 2315.84,-261 2179.58,-86.75 2051.77,-172.54 1832.84,-141 1766.89,-131.5 1359.62,-117.2 1144.96,-110.18"/>
<polygon fill="black" stroke="black" points="1144.99,-106.68 1134.88,-109.86 1144.77,-113.68 1144.99,-106.68"/>
<text text-anchor="middle" x="2323.34" y="-231.8" font-family="Times,serif" font-size="14.00">previous</text>
</g>
<!-- http://purl.org/dj/kaggle/human&#45;activity&#45;generation/activity/&#45;2371247189027976588 -->
<g id="node20" class="node">
<title>http://purl.org/dj/kaggle/human&#45;activity&#45;generation/activity/&#45;2371247189027976588</title>
<ellipse fill="none" stroke="black" cx="2155.84" cy="-279" rx="151.37" ry="18"/>
<text text-anchor="middle" x="2155.84" y="-275.3" font-family="Times,serif" font-size="14.00">&#45;2371247189027976588 (Visualisation)</text>
</g>
<!-- http://purl.org/dj/kaggle/human&#45;activity&#45;generation/activity/148825989241261993&#45;&gt;http://purl.org/dj/kaggle/human&#45;activity&#45;generation/activity/&#45;2371247189027976588 -->
<g id="edge41" class="edge">
<title>http://purl.org/dj/kaggle/human&#45;activity&#45;generation/activity/148825989241261993&#45;&gt;http://purl.org/dj/kaggle/human&#45;activity&#45;generation/activity/&#45;2371247189027976588</title>
<path fill="none" stroke="black" d="M2236.4,-347.8C2221.24,-335.04 2200.4,-317.5 2183.72,-303.46"/>
<polygon fill="black" stroke="black" points="2185.81,-300.65 2175.9,-296.89 2181.3,-306 2185.81,-300.65"/>
<text text-anchor="middle" x="2235.34" y="-318.8" font-family="Times,serif" font-size="14.00">previous</text>
</g>
<!-- http://purl.org/dj/kaggle/human&#45;activity&#45;generation/activity/&#45;2371247189027976588&#45;&gt;http://purl.org/dj/kaggle/human&#45;activity&#45;generation/activity/789824883786264545 -->
<g id="edge42" class="edge">
<title>http://purl.org/dj/kaggle/human&#45;activity&#45;generation/activity/&#45;2371247189027976588&#45;&gt;http://purl.org/dj/kaggle/human&#45;activity&#45;generation/activity/789824883786264545</title>
<path fill="none" stroke="black" d="M2057.64,-265.29C1973.82,-254.65 1850.01,-239.41 1741.84,-228 1653.65,-218.7 1554.02,-209.74 1477.8,-203.22"/>
<polygon fill="black" stroke="black" points="1477.94,-199.72 1467.68,-202.36 1477.34,-206.7 1477.94,-199.72"/>
<text text-anchor="middle" x="1890.34" y="-231.8" font-family="Times,serif" font-size="14.00">previous</text>
</g>
<!-- http://purl.org/dj/kaggle/human&#45;activity&#45;generation/activity/5877729504484548554 -->
<g id="node21" class="node">
<title>http://purl.org/dj/kaggle/human&#45;activity&#45;generation/activity/5877729504484548554</title>
<ellipse fill="none" stroke="black" cx="684.84" cy="-648" rx="148.67" ry="18"/>
<text text-anchor="middle" x="684.84" y="-644.3" font-family="Times,serif" font-size="14.00">5877729504484548554 (Visualisation)</text>
</g>
<!-- http://purl.org/dj/kaggle/human&#45;activity&#45;generation/activity/5877729504484548554&#45;&gt;http://purl.org/dj/kaggle/human&#45;activity&#45;generation/activity/5131540698854259469 -->
<g id="edge43" class="edge">
<title>http://purl.org/dj/kaggle/human&#45;activity&#45;generation/activity/5877729504484548554&#45;&gt;http://purl.org/dj/kaggle/human&#45;activity&#45;generation/activity/5131540698854259469</title>
<path fill="none" stroke="black" d="M746.07,-631.51C803.99,-616.86 890.81,-594.89 951.3,-579.59"/>
<polygon fill="black" stroke="black" points="952.31,-582.94 961.15,-577.1 950.6,-576.16 952.31,-582.94"/>
<text text-anchor="middle" x="897.34" y="-600.8" font-family="Times,serif" font-size="14.00">previous</text>
</g>
<!-- http://purl.org/dj/kaggle/human&#45;activity&#45;generation/activity/&#45;4556749532424733013 -->
<g id="node22" class="node">
<title>http://purl.org/dj/kaggle/human&#45;activity&#45;generation/activity/&#45;4556749532424733013</title>
<ellipse fill="none" stroke="black" cx="1443.84" cy="-279" rx="151.37" ry="18"/>
<text text-anchor="middle" x="1443.84" y="-275.3" font-family="Times,serif" font-size="14.00">&#45;4556749532424733013 (Visualisation)</text>
</g>
<!-- http://purl.org/dj/kaggle/human&#45;activity&#45;generation/activity/&#45;4556749532424733013&#45;&gt;http://purl.org/dj/kaggle/human&#45;activity&#45;generation/activity/789824883786264545 -->
<g id="edge44" class="edge">
<title>http://purl.org/dj/kaggle/human&#45;activity&#45;generation/activity/&#45;4556749532424733013&#45;&gt;http://purl.org/dj/kaggle/human&#45;activity&#45;generation/activity/789824883786264545</title>
<path fill="none" stroke="black" d="M1425.62,-260.8C1412.24,-248.16 1393.88,-230.82 1379.09,-216.85"/>
<polygon fill="black" stroke="black" points="1381.39,-214.21 1371.72,-209.89 1376.58,-219.3 1381.39,-214.21"/>
<text text-anchor="middle" x="1428.34" y="-231.8" font-family="Times,serif" font-size="14.00">previous</text>
</g>
<!-- http://purl.org/dj/kaggle/human&#45;activity&#45;generation/activity/3266010424467728444 -->
<g id="node23" class="node">
<title>http://purl.org/dj/kaggle/human&#45;activity&#45;generation/activity/3266010424467728444</title>
<ellipse fill="none" stroke="black" cx="1000.84" cy="-648" rx="148.67" ry="18"/>
<text text-anchor="middle" x="1000.84" y="-644.3" font-family="Times,serif" font-size="14.00">3266010424467728444 (Visualisation)</text>
</g>
<!-- http://purl.org/dj/kaggle/human&#45;activity&#45;generation/activity/3266010424467728444&#45;&gt;http://purl.org/dj/kaggle/human&#45;activity&#45;generation/activity/5131540698854259469 -->
<g id="edge45" class="edge">
<title>http://purl.org/dj/kaggle/human&#45;activity&#45;generation/activity/3266010424467728444&#45;&gt;http://purl.org/dj/kaggle/human&#45;activity&#45;generation/activity/5131540698854259469</title>
<path fill="none" stroke="black" d="M1004.88,-629.8C1007.62,-618.16 1011.3,-602.55 1014.43,-589.24"/>
<polygon fill="black" stroke="black" points="1017.91,-589.71 1016.8,-579.18 1011.1,-588.11 1017.91,-589.71"/>
<text text-anchor="middle" x="1036.34" y="-600.8" font-family="Times,serif" font-size="14.00">previous</text>
</g>
<!-- http://purl.org/dj/kaggle/human&#45;activity&#45;generation/activity/&#45;7814392099519970327 -->
<g id="node24" class="node">
<title>http://purl.org/dj/kaggle/human&#45;activity&#45;generation/activity/&#45;7814392099519970327</title>
<ellipse fill="none" stroke="black" cx="1318.84" cy="-648" rx="151.37" ry="18"/>
<text text-anchor="middle" x="1318.84" y="-644.3" font-family="Times,serif" font-size="14.00">&#45;7814392099519970327 (Visualisation)</text>
</g>
<!-- http://purl.org/dj/kaggle/human&#45;activity&#45;generation/activity/&#45;7814392099519970327&#45;&gt;http://purl.org/dj/kaggle/human&#45;activity&#45;generation/activity/5131540698854259469 -->
<g id="edge46" class="edge">
<title>http://purl.org/dj/kaggle/human&#45;activity&#45;generation/activity/&#45;7814392099519970327&#45;&gt;http://purl.org/dj/kaggle/human&#45;activity&#45;generation/activity/5131540698854259469</title>
<path fill="none" stroke="black" d="M1207.25,-635.76C1158.34,-629.72 1107.06,-621.55 1084.84,-612 1076.82,-608.56 1061.61,-596.76 1048.02,-585.5"/>
<polygon fill="black" stroke="black" points="1050.19,-582.74 1040.28,-578.99 1045.68,-588.1 1050.19,-582.74"/>
<text text-anchor="middle" x="1108.34" y="-600.8" font-family="Times,serif" font-size="14.00">previous</text>
</g>
</g>
</svg>
