<?xml version="1.0" encoding="UTF-8" standalone="no"?>
<!DOCTYPE svg PUBLIC "-//W3C//DTD SVG 1.1//EN"
 "http://www.w3.org/Graphics/SVG/1.1/DTD/svg11.dtd">
<!-- Generated by graphviz version 2.44.1 (20200629.0846)
 -->
<!-- Pages: 1 -->
<svg width="3891pt" height="695pt"
 viewBox="0.00 0.00 3891.42 695.00" xmlns="http://www.w3.org/2000/svg" xmlns:xlink="http://www.w3.org/1999/xlink">
<g id="graph0" class="graph" transform="scale(1 1) rotate(0) translate(4 691)">
<polygon fill="white" stroke="transparent" points="-4,4 -4,-691 3887.42,-691 3887.42,4 -4,4"/>
<!-- http://purl.org/dj/kaggle/ieee&#45;internal&#45;blend#345834320 -->
<g id="node1" class="node">
<title>http://purl.org/dj/kaggle/ieee&#45;internal&#45;blend#345834320</title>
<ellipse fill="none" stroke="black" cx="2114.42" cy="-300" rx="121.58" ry="18"/>
<text text-anchor="middle" x="2114.42" y="-296.3" font-family="Times,serif" font-size="14.00">345834320 (isFraud(0): Reuse)</text>
</g>
<!-- http://purl.org/dj/kaggle/ieee&#45;internal&#45;blend -->
<g id="node2" class="node">
<title>http://purl.org/dj/kaggle/ieee&#45;internal&#45;blend</title>
<ellipse fill="none" stroke="black" cx="2699.42" cy="-18" rx="77.19" ry="18"/>
<text text-anchor="middle" x="2699.42" y="-14.3" font-family="Times,serif" font-size="14.00">ieee&#45;internal&#45;blend</text>
</g>
<!-- http://purl.org/dj/kaggle/ieee&#45;internal&#45;blend#345834320&#45;&gt;http://purl.org/dj/kaggle/ieee&#45;internal&#45;blend -->
<g id="edge1" class="edge">
<title>http://purl.org/dj/kaggle/ieee&#45;internal&#45;blend#345834320&#45;&gt;http://purl.org/dj/kaggle/ieee&#45;internal&#45;blend</title>
<path fill="none" stroke="black" d="M2215.12,-289.85C2296.58,-277.3 2408.94,-247.54 2479.42,-177 2509.22,-147.17 2490.13,-124.49 2509.42,-87 2517.72,-70.87 2518.2,-63.86 2533.42,-54 2557.53,-38.38 2587.36,-29.58 2615.05,-24.68"/>
<polygon fill="black" stroke="black" points="2615.83,-28.09 2625.14,-23.04 2614.71,-21.19 2615.83,-28.09"/>
<text text-anchor="middle" x="2543.92" y="-155.3" font-family="Times,serif" font-size="14.00">previousActivity</text>
</g>
<!-- http://purl.org/dj/kaggle/ieee&#45;internal&#45;blend#300942001 -->
<g id="node3" class="node">
<title>http://purl.org/dj/kaggle/ieee&#45;internal&#45;blend#300942001</title>
<ellipse fill="none" stroke="black" cx="1679.42" cy="-387" rx="143.77" ry="18"/>
<text text-anchor="middle" x="1679.42" y="-383.3" font-family="Times,serif" font-size="14.00">300942001 (sub_1(0)$1: Preparation)</text>
</g>
<!-- http://purl.org/dj/kaggle/ieee&#45;internal&#45;blend#300942001&#45;&gt;http://purl.org/dj/kaggle/ieee&#45;internal&#45;blend#345834320 -->
<g id="edge2" class="edge">
<title>http://purl.org/dj/kaggle/ieee&#45;internal&#45;blend#300942001&#45;&gt;http://purl.org/dj/kaggle/ieee&#45;internal&#45;blend#345834320</title>
<path fill="none" stroke="black" d="M1751.31,-371.41C1801.25,-361.33 1869.35,-347.69 1929.42,-336 1962.86,-329.49 1999.73,-322.48 2031.7,-316.46"/>
<polygon fill="black" stroke="black" points="2032.72,-319.83 2041.9,-314.54 2031.43,-312.95 2032.72,-319.83"/>
<text text-anchor="middle" x="1941.42" y="-339.8" font-family="Times,serif" font-size="14.00">Add</text>
</g>
<!-- http://purl.org/dj/kaggle/ieee&#45;internal&#45;blend#301269681 -->
<g id="node4" class="node">
<title>http://purl.org/dj/kaggle/ieee&#45;internal&#45;blend#301269681</title>
<ellipse fill="none" stroke="black" cx="1226.42" cy="-300" rx="142.17" ry="18"/>
<text text-anchor="middle" x="1226.42" y="-296.3" font-family="Times,serif" font-size="14.00">301269681 (sub_2(0)$0: Movement)</text>
</g>
<!-- http://purl.org/dj/kaggle/ieee&#45;internal&#45;blend#300942001&#45;&gt;http://purl.org/dj/kaggle/ieee&#45;internal&#45;blend#301269681 -->
<g id="edge3" class="edge">
<title>http://purl.org/dj/kaggle/ieee&#45;internal&#45;blend#300942001&#45;&gt;http://purl.org/dj/kaggle/ieee&#45;internal&#45;blend#301269681</title>
<path fill="none" stroke="black" d="M1635.75,-369.73C1604.36,-358.64 1560.8,-344.49 1521.42,-336 1512.23,-334.02 1417.87,-322.95 1338.3,-313.78"/>
<polygon fill="black" stroke="black" points="1338.51,-310.28 1328.18,-312.61 1337.71,-317.23 1338.51,-310.28"/>
<text text-anchor="middle" x="1586.42" y="-339.8" font-family="Times,serif" font-size="14.00">Add</text>
</g>
<!-- http://purl.org/dj/kaggle/ieee&#45;internal&#45;blend#300876464 -->
<g id="node5" class="node">
<title>http://purl.org/dj/kaggle/ieee&#45;internal&#45;blend#300876464</title>
<ellipse fill="none" stroke="black" cx="1529.42" cy="-300" rx="142.17" ry="18"/>
<text text-anchor="middle" x="1529.42" y="-296.3" font-family="Times,serif" font-size="14.00">300876464 (sub_1(0)$0: Movement)</text>
</g>
<!-- http://purl.org/dj/kaggle/ieee&#45;internal&#45;blend#300942001&#45;&gt;http://purl.org/dj/kaggle/ieee&#45;internal&#45;blend#300876464 -->
<g id="edge4" class="edge">
<title>http://purl.org/dj/kaggle/ieee&#45;internal&#45;blend#300942001&#45;&gt;http://purl.org/dj/kaggle/ieee&#45;internal&#45;blend#300876464</title>
<path fill="none" stroke="black" d="M1660.18,-369.02C1647.73,-358.59 1630.82,-345.46 1614.42,-336 1605,-330.57 1594.57,-325.55 1584.34,-321.1"/>
<polygon fill="black" stroke="black" points="1585.61,-317.84 1575.04,-317.19 1582.9,-324.29 1585.61,-317.84"/>
<text text-anchor="middle" x="1649.42" y="-339.8" font-family="Times,serif" font-size="14.00">Add</text>
</g>
<!-- http://purl.org/dj/kaggle/ieee&#45;internal&#45;blend#80085334 -->
<g id="node6" class="node">
<title>http://purl.org/dj/kaggle/ieee&#45;internal&#45;blend#80085334</title>
<ellipse fill="none" stroke="black" cx="1177.42" cy="-213" rx="99.38" ry="18"/>
<text text-anchor="middle" x="1177.42" y="-209.3" font-family="Times,serif" font-size="14.00">80085334 (pd(0): Reuse)</text>
</g>
<!-- http://purl.org/dj/kaggle/ieee&#45;internal&#45;blend#301269681&#45;&gt;http://purl.org/dj/kaggle/ieee&#45;internal&#45;blend#80085334 -->
<g id="edge5" class="edge">
<title>http://purl.org/dj/kaggle/ieee&#45;internal&#45;blend#301269681&#45;&gt;http://purl.org/dj/kaggle/ieee&#45;internal&#45;blend#80085334</title>
<path fill="none" stroke="black" d="M1209.89,-282.11C1205.11,-276.63 1200.18,-270.33 1196.42,-264 1192.2,-256.89 1188.62,-248.69 1185.74,-241"/>
<polygon fill="black" stroke="black" points="1188.97,-239.62 1182.37,-231.33 1182.36,-241.93 1188.97,-239.62"/>
<text text-anchor="middle" x="1241.92" y="-252.8" font-family="Times,serif" font-size="14.00">previousActivity</text>
</g>
<!-- http://purl.org/dj/python/lib/144966264 -->
<g id="node7" class="node">
<title>http://purl.org/dj/python/lib/144966264</title>
<ellipse fill="none" stroke="black" cx="1380.42" cy="-105" rx="109.38" ry="18"/>
<text text-anchor="middle" x="1380.42" y="-101.3" font-family="Times,serif" font-size="14.00">144966264 (pandas: Reuse)</text>
</g>
<!-- http://purl.org/dj/kaggle/ieee&#45;internal&#45;blend#301269681&#45;&gt;http://purl.org/dj/python/lib/144966264 -->
<g id="edge6" class="edge">
<title>http://purl.org/dj/kaggle/ieee&#45;internal&#45;blend#301269681&#45;&gt;http://purl.org/dj/python/lib/144966264</title>
<path fill="none" stroke="black" d="M1264.23,-282.61C1272.69,-277.59 1281.04,-271.4 1287.42,-264 1308.92,-239.06 1298.47,-223.81 1314.42,-195 1327.15,-172 1345.09,-148.2 1359.06,-131"/>
<polygon fill="black" stroke="black" points="1361.89,-133.07 1365.55,-123.12 1356.49,-128.61 1361.89,-133.07"/>
<text text-anchor="middle" x="1359.92" y="-209.3" font-family="Times,serif" font-size="14.00">previousActivity</text>
</g>
<!-- http://purl.org/dj/kaggle/ieee&#45;internal&#45;blend#1165496120 -->
<g id="node8" class="node">
<title>http://purl.org/dj/kaggle/ieee&#45;internal&#45;blend#1165496120</title>
<ellipse fill="none" stroke="black" cx="909.42" cy="-159" rx="237.76" ry="18"/>
<text text-anchor="middle" x="909.42" y="-155.3" font-family="Times,serif" font-size="14.00">1165496120 (../input/ieee&#45;cv&#45;options/submission.csv(0): Reuse)</text>
</g>
<!-- http://purl.org/dj/kaggle/ieee&#45;internal&#45;blend#301269681&#45;&gt;http://purl.org/dj/kaggle/ieee&#45;internal&#45;blend#1165496120 -->
<g id="edge7" class="edge">
<title>http://purl.org/dj/kaggle/ieee&#45;internal&#45;blend#301269681&#45;&gt;http://purl.org/dj/kaggle/ieee&#45;internal&#45;blend#1165496120</title>
<path fill="none" stroke="black" d="M1126.58,-287.13C1051.5,-278.03 960.95,-266.6 957.42,-264 932.58,-245.74 920.22,-211.45 914.34,-187.24"/>
<polygon fill="black" stroke="black" points="917.7,-186.25 912.13,-177.24 910.87,-187.76 917.7,-186.25"/>
<text text-anchor="middle" x="1002.92" y="-252.8" font-family="Times,serif" font-size="14.00">previousActivity</text>
</g>
<!-- http://purl.org/dj/kaggle/ieee&#45;internal&#45;blend#300876464&#45;&gt;http://purl.org/dj/kaggle/ieee&#45;internal&#45;blend#80085334 -->
<g id="edge8" class="edge">
<title>http://purl.org/dj/kaggle/ieee&#45;internal&#45;blend#300876464&#45;&gt;http://purl.org/dj/kaggle/ieee&#45;internal&#45;blend#80085334</title>
<path fill="none" stroke="black" d="M1440.45,-285.83C1407.24,-280.16 1369.38,-272.8 1335.42,-264 1315.42,-258.82 1311.08,-255.37 1291.42,-249 1273.56,-243.21 1254.04,-237.13 1236.28,-231.7"/>
<polygon fill="black" stroke="black" points="1237.21,-228.32 1226.62,-228.75 1235.16,-235.01 1237.21,-228.32"/>
<text text-anchor="middle" x="1380.92" y="-252.8" font-family="Times,serif" font-size="14.00">previousActivity</text>
</g>
<!-- http://purl.org/dj/kaggle/ieee&#45;internal&#45;blend#300876464&#45;&gt;http://purl.org/dj/python/lib/144966264 -->
<g id="edge9" class="edge">
<title>http://purl.org/dj/kaggle/ieee&#45;internal&#45;blend#300876464&#45;&gt;http://purl.org/dj/python/lib/144966264</title>
<path fill="none" stroke="black" d="M1521.5,-281.74C1516.09,-271.33 1508.15,-258.33 1498.42,-249 1486.64,-237.71 1480.42,-239.38 1466.42,-231 1461.62,-228.13 1384.15,-181.88 1381.42,-177 1374.09,-163.88 1373.52,-147.15 1374.92,-133.23"/>
<polygon fill="black" stroke="black" points="1378.4,-133.62 1376.31,-123.24 1371.47,-132.66 1378.4,-133.62"/>
<text text-anchor="middle" x="1511.92" y="-209.3" font-family="Times,serif" font-size="14.00">previousActivity</text>
</g>
<!-- http://purl.org/dj/kaggle/ieee&#45;internal&#45;blend#1412829055 -->
<g id="node9" class="node">
<title>http://purl.org/dj/kaggle/ieee&#45;internal&#45;blend#1412829055</title>
<ellipse fill="none" stroke="black" cx="1653.42" cy="-159" rx="246.16" ry="18"/>
<text text-anchor="middle" x="1653.42" y="-155.3" font-family="Times,serif" font-size="14.00">1412829055 (../input/ieee&#45;simple&#45;lgbm/submission.csv(0): Reuse)</text>
</g>
<!-- http://purl.org/dj/kaggle/ieee&#45;internal&#45;blend#300876464&#45;&gt;http://purl.org/dj/kaggle/ieee&#45;internal&#45;blend#1412829055 -->
<g id="edge10" class="edge">
<title>http://purl.org/dj/kaggle/ieee&#45;internal&#45;blend#300876464&#45;&gt;http://purl.org/dj/kaggle/ieee&#45;internal&#45;blend#1412829055</title>
<path fill="none" stroke="black" d="M1535.4,-281.96C1543.96,-259.62 1561.57,-220.31 1587.42,-195 1592.34,-190.18 1598.06,-185.86 1604.03,-182.03"/>
<polygon fill="black" stroke="black" points="1606.08,-184.89 1612.9,-176.78 1602.51,-178.86 1606.08,-184.89"/>
<text text-anchor="middle" x="1574.92" y="-252.8" font-family="Times,serif" font-size="14.00">read_csv</text>
</g>
<!-- http://purl.org/dj/kaggle/ieee&#45;internal&#45;blend#80085334&#45;&gt;http://purl.org/dj/kaggle/ieee&#45;internal&#45;blend -->
<g id="edge14" class="edge">
<title>http://purl.org/dj/kaggle/ieee&#45;internal&#45;blend#80085334&#45;&gt;http://purl.org/dj/kaggle/ieee&#45;internal&#45;blend</title>
<path fill="none" stroke="black" d="M1169.76,-194.81C1159.11,-167.95 1144.02,-116.11 1171.42,-87 1221.05,-34.28 2295.48,-22.03 2612.26,-19.56"/>
<polygon fill="black" stroke="black" points="2612.34,-23.06 2622.31,-19.49 2612.29,-16.06 2612.34,-23.06"/>
<text text-anchor="middle" x="1216.92" y="-101.3" font-family="Times,serif" font-size="14.00">previousActivity</text>
</g>
<!-- http://purl.org/dj/kaggle/ieee&#45;internal&#45;blend#80085334&#45;&gt;http://purl.org/dj/python/lib/144966264 -->
<g id="edge15" class="edge">
<title>http://purl.org/dj/kaggle/ieee&#45;internal&#45;blend#80085334&#45;&gt;http://purl.org/dj/python/lib/144966264</title>
<path fill="none" stroke="black" d="M1187.68,-195.09C1200.27,-174.38 1220.13,-141.91 1221.42,-141 1233.39,-132.52 1261.78,-125.17 1291.31,-119.42"/>
<polygon fill="black" stroke="black" points="1292.17,-122.82 1301.35,-117.53 1290.87,-115.94 1292.17,-122.82"/>
<text text-anchor="middle" x="1259.92" y="-155.3" font-family="Times,serif" font-size="14.00">assignedFrom</text>
</g>
<!-- http://purl.org/dj/python/lib/144966264&#45;&gt;http://purl.org/dj/kaggle/ieee&#45;internal&#45;blend -->
<g id="edge17" class="edge">
<title>http://purl.org/dj/python/lib/144966264&#45;&gt;http://purl.org/dj/kaggle/ieee&#45;internal&#45;blend</title>
<path fill="none" stroke="black" d="M1467.21,-94.01C1568.43,-82.71 1740.84,-64.5 1889.42,-54 2152.34,-35.42 2464.01,-25.29 2612.44,-21.2"/>
<polygon fill="black" stroke="black" points="2612.94,-24.68 2622.84,-20.91 2612.75,-17.69 2612.94,-24.68"/>
<text text-anchor="middle" x="1934.92" y="-57.8" font-family="Times,serif" font-size="14.00">previousActivity</text>
</g>
<!-- http://purl.org/dj/kaggle/ieee&#45;internal&#45;blend#1165496120&#45;&gt;http://purl.org/dj/kaggle/ieee&#45;internal&#45;blend -->
<g id="edge33" class="edge">
<title>http://purl.org/dj/kaggle/ieee&#45;internal&#45;blend#1165496120&#45;&gt;http://purl.org/dj/kaggle/ieee&#45;internal&#45;blend</title>
<path fill="none" stroke="black" d="M936.74,-140.91C979.76,-115.23 1066.83,-68.19 1148.42,-54 1292.32,-28.98 2305.88,-21.23 2612.05,-19.45"/>
<polygon fill="black" stroke="black" points="2612.22,-22.95 2622.2,-19.39 2612.18,-15.95 2612.22,-22.95"/>
<text text-anchor="middle" x="1087.92" y="-101.3" font-family="Times,serif" font-size="14.00">previousActivity</text>
</g>
<!-- http://purl.org/dj/kaggle/ieee&#45;internal&#45;blend#1412829055&#45;&gt;http://purl.org/dj/kaggle/ieee&#45;internal&#45;blend -->
<g id="edge37" class="edge">
<title>http://purl.org/dj/kaggle/ieee&#45;internal&#45;blend#1412829055&#45;&gt;http://purl.org/dj/kaggle/ieee&#45;internal&#45;blend</title>
<path fill="none" stroke="black" d="M1758.17,-142.68C1902.58,-121.73 2171.03,-83.39 2400.42,-54 2475.15,-44.42 2560.53,-34.53 2620.87,-27.72"/>
<polygon fill="black" stroke="black" points="2621.54,-31.17 2631.09,-26.57 2620.76,-24.21 2621.54,-31.17"/>
<text text-anchor="middle" x="2196.92" y="-101.3" font-family="Times,serif" font-size="14.00">previousActivity</text>
</g>
<!-- http://purl.org/dj/kaggle/ieee&#45;internal&#45;blend#301662898 -->
<g id="node10" class="node">
<title>http://purl.org/dj/kaggle/ieee&#45;internal&#45;blend#301662898</title>
<ellipse fill="none" stroke="black" cx="1832.42" cy="-300" rx="142.17" ry="18"/>
<text text-anchor="middle" x="1832.42" y="-296.3" font-family="Times,serif" font-size="14.00">301662898 (sub_3(0)$0: Movement)</text>
</g>
<!-- http://purl.org/dj/kaggle/ieee&#45;internal&#45;blend#301662898&#45;&gt;http://purl.org/dj/kaggle/ieee&#45;internal&#45;blend#80085334 -->
<g id="edge11" class="edge">
<title>http://purl.org/dj/kaggle/ieee&#45;internal&#45;blend#301662898&#45;&gt;http://purl.org/dj/kaggle/ieee&#45;internal&#45;blend#80085334</title>
<path fill="none" stroke="black" d="M1731.07,-287.35C1714.16,-285.5 1696.8,-283.65 1680.42,-282 1591.18,-273.01 1567.62,-280.28 1479.42,-264 1455.35,-259.56 1450.4,-253.95 1426.42,-249 1366.71,-236.67 1350.79,-239.54 1290.42,-231 1280.77,-229.64 1270.66,-228.17 1260.63,-226.69"/>
<polygon fill="black" stroke="black" points="1261.04,-223.21 1250.64,-225.21 1260.02,-230.14 1261.04,-223.21"/>
<text text-anchor="middle" x="1503.92" y="-252.8" font-family="Times,serif" font-size="14.00">read_csv</text>
</g>
<!-- http://purl.org/dj/kaggle/ieee&#45;internal&#45;blend#301662898&#45;&gt;http://purl.org/dj/python/lib/144966264 -->
<g id="edge13" class="edge">
<title>http://purl.org/dj/kaggle/ieee&#45;internal&#45;blend#301662898&#45;&gt;http://purl.org/dj/python/lib/144966264</title>
<path fill="none" stroke="black" d="M1797.82,-282.47C1747.16,-259.04 1649.26,-216.59 1561.42,-195 1527.75,-186.72 1433.65,-198.47 1406.42,-177 1393.1,-166.5 1386.61,-148.52 1383.44,-133.28"/>
<polygon fill="black" stroke="black" points="1386.86,-132.56 1381.73,-123.29 1379.96,-133.74 1386.86,-132.56"/>
<text text-anchor="middle" x="1716.92" y="-209.3" font-family="Times,serif" font-size="14.00">previousActivity</text>
</g>
<!-- http://purl.org/dj/kaggle/ieee&#45;internal&#45;blend#819794977 -->
<g id="node11" class="node">
<title>http://purl.org/dj/kaggle/ieee&#45;internal&#45;blend#819794977</title>
<ellipse fill="none" stroke="black" cx="2191.42" cy="-159" rx="286.75" ry="18"/>
<text text-anchor="middle" x="2191.42" y="-155.3" font-family="Times,serif" font-size="14.00">819794977 (../input/ieee&#45;lgbm&#45;with&#45;groupkfold&#45;cv/submission.csv(0): Reuse)</text>
</g>
<!-- http://purl.org/dj/kaggle/ieee&#45;internal&#45;blend#301662898&#45;&gt;http://purl.org/dj/kaggle/ieee&#45;internal&#45;blend#819794977 -->
<g id="edge12" class="edge">
<title>http://purl.org/dj/kaggle/ieee&#45;internal&#45;blend#301662898&#45;&gt;http://purl.org/dj/kaggle/ieee&#45;internal&#45;blend#819794977</title>
<path fill="none" stroke="black" d="M1874.3,-282.78C1939.89,-257.39 2066.73,-208.28 2138.52,-180.48"/>
<polygon fill="black" stroke="black" points="2139.79,-183.75 2147.85,-176.87 2137.26,-177.22 2139.79,-183.75"/>
<text text-anchor="middle" x="2004.92" y="-252.8" font-family="Times,serif" font-size="14.00">previousActivity</text>
</g>
<!-- http://purl.org/dj/kaggle/ieee&#45;internal&#45;blend#819794977&#45;&gt;http://purl.org/dj/kaggle/ieee&#45;internal&#45;blend -->
<g id="edge16" class="edge">
<title>http://purl.org/dj/kaggle/ieee&#45;internal&#45;blend#819794977&#45;&gt;http://purl.org/dj/kaggle/ieee&#45;internal&#45;blend</title>
<path fill="none" stroke="black" d="M2230.13,-141.09C2264.24,-126.35 2315.37,-104.62 2360.42,-87 2400.49,-71.33 2409.67,-64.4 2451.42,-54 2506.18,-40.37 2569.14,-31.56 2617.93,-26.19"/>
<polygon fill="black" stroke="black" points="2618.55,-29.65 2628.12,-25.1 2617.8,-22.69 2618.55,-29.65"/>
<text text-anchor="middle" x="2405.92" y="-101.3" font-family="Times,serif" font-size="14.00">previousActivity</text>
</g>
<!-- http://purl.org/dj/python/lib/258474858 -->
<g id="node12" class="node">
<title>http://purl.org/dj/python/lib/258474858</title>
<ellipse fill="none" stroke="black" cx="2699.42" cy="-105" rx="116.98" ry="18"/>
<text text-anchor="middle" x="2699.42" y="-101.3" font-family="Times,serif" font-size="14.00">258474858 (warnings: Reuse)</text>
</g>
<!-- http://purl.org/dj/python/lib/258474858&#45;&gt;http://purl.org/dj/kaggle/ieee&#45;internal&#45;blend -->
<g id="edge18" class="edge">
<title>http://purl.org/dj/python/lib/258474858&#45;&gt;http://purl.org/dj/kaggle/ieee&#45;internal&#45;blend</title>
<path fill="none" stroke="black" d="M2699.42,-86.8C2699.42,-75.16 2699.42,-59.55 2699.42,-46.24"/>
<polygon fill="black" stroke="black" points="2702.92,-46.18 2699.42,-36.18 2695.92,-46.18 2702.92,-46.18"/>
<text text-anchor="middle" x="2732.42" y="-57.8" font-family="Times,serif" font-size="14.00">importedBy</text>
</g>
<!-- http://purl.org/dj/kaggle/ieee&#45;internal&#45;blend#301073075 -->
<g id="node13" class="node">
<title>http://purl.org/dj/kaggle/ieee&#45;internal&#45;blend#301073075</title>
<ellipse fill="none" stroke="black" cx="1978.42" cy="-582" rx="143.77" ry="18"/>
<text text-anchor="middle" x="1978.42" y="-578.3" font-family="Times,serif" font-size="14.00">301073075 (sub_1(0)$3: Preparation)</text>
</g>
<!-- http://purl.org/dj/kaggle/ieee&#45;internal&#45;blend#301073075&#45;&gt;http://purl.org/dj/kaggle/ieee&#45;internal&#45;blend#345834320 -->
<g id="edge19" class="edge">
<title>http://purl.org/dj/kaggle/ieee&#45;internal&#45;blend#301073075&#45;&gt;http://purl.org/dj/kaggle/ieee&#45;internal&#45;blend#345834320</title>
<path fill="none" stroke="black" d="M1986.72,-563.91C2009.67,-516.65 2074.1,-384.01 2101.66,-327.28"/>
<polygon fill="black" stroke="black" points="2104.83,-328.75 2106.05,-318.23 2098.54,-325.69 2104.83,-328.75"/>
<text text-anchor="middle" x="2066.42" y="-426.8" font-family="Times,serif" font-size="14.00">Add</text>
</g>
<!-- http://purl.org/dj/kaggle/ieee&#45;internal&#45;blend#302056115 -->
<g id="node14" class="node">
<title>http://purl.org/dj/kaggle/ieee&#45;internal&#45;blend#302056115</title>
<ellipse fill="none" stroke="black" cx="923.42" cy="-300" rx="142.17" ry="18"/>
<text text-anchor="middle" x="923.42" y="-296.3" font-family="Times,serif" font-size="14.00">302056115 (sub_4(0)$0: Movement)</text>
</g>
<!-- http://purl.org/dj/kaggle/ieee&#45;internal&#45;blend#301073075&#45;&gt;http://purl.org/dj/kaggle/ieee&#45;internal&#45;blend#302056115 -->
<g id="edge20" class="edge">
<title>http://purl.org/dj/kaggle/ieee&#45;internal&#45;blend#301073075&#45;&gt;http://purl.org/dj/kaggle/ieee&#45;internal&#45;blend#302056115</title>
<path fill="none" stroke="black" d="M1919.82,-565.45C1738.21,-517.25 1185.41,-370.53 991.51,-319.07"/>
<polygon fill="black" stroke="black" points="992.29,-315.66 981.73,-316.47 990.49,-322.42 992.29,-315.66"/>
<text text-anchor="middle" x="1451.42" y="-426.8" font-family="Times,serif" font-size="14.00">Add</text>
</g>
<!-- http://purl.org/dj/kaggle/ieee&#45;internal&#45;blend#301007538 -->
<g id="node15" class="node">
<title>http://purl.org/dj/kaggle/ieee&#45;internal&#45;blend#301007538</title>
<ellipse fill="none" stroke="black" cx="1859.42" cy="-474" rx="143.77" ry="18"/>
<text text-anchor="middle" x="1859.42" y="-470.3" font-family="Times,serif" font-size="14.00">301007538 (sub_1(0)$2: Preparation)</text>
</g>
<!-- http://purl.org/dj/kaggle/ieee&#45;internal&#45;blend#301073075&#45;&gt;http://purl.org/dj/kaggle/ieee&#45;internal&#45;blend#301007538 -->
<g id="edge21" class="edge">
<title>http://purl.org/dj/kaggle/ieee&#45;internal&#45;blend#301073075&#45;&gt;http://purl.org/dj/kaggle/ieee&#45;internal&#45;blend#301007538</title>
<path fill="none" stroke="black" d="M1959.3,-563.97C1939.52,-546.35 1908.47,-518.7 1886.25,-498.89"/>
<polygon fill="black" stroke="black" points="1888.29,-496.03 1878.49,-491.99 1883.63,-501.25 1888.29,-496.03"/>
<text text-anchor="middle" x="1949.42" y="-524.3" font-family="Times,serif" font-size="14.00">Add</text>
</g>
<!-- http://purl.org/dj/kaggle/ieee&#45;internal&#45;blend#302056115&#45;&gt;http://purl.org/dj/kaggle/ieee&#45;internal&#45;blend#80085334 -->
<g id="edge22" class="edge">
<title>http://purl.org/dj/kaggle/ieee&#45;internal&#45;blend#302056115&#45;&gt;http://purl.org/dj/kaggle/ieee&#45;internal&#45;blend#80085334</title>
<path fill="none" stroke="black" d="M985.53,-283.7C1006.89,-278.03 1030.85,-271.21 1052.42,-264 1079.11,-255.07 1108.35,-243.48 1131.83,-233.71"/>
<polygon fill="black" stroke="black" points="1133.32,-236.88 1141.19,-229.78 1130.61,-230.43 1133.32,-236.88"/>
<text text-anchor="middle" x="1115.92" y="-252.8" font-family="Times,serif" font-size="14.00">read_csv</text>
</g>
<!-- http://purl.org/dj/kaggle/ieee&#45;internal&#45;blend#302056115&#45;&gt;http://purl.org/dj/python/lib/144966264 -->
<g id="edge23" class="edge">
<title>http://purl.org/dj/kaggle/ieee&#45;internal&#45;blend#302056115&#45;&gt;http://purl.org/dj/python/lib/144966264</title>
<path fill="none" stroke="black" d="M926.66,-281.8C932.32,-257.32 946.57,-213.36 978.42,-195 1047.3,-155.28 1082.81,-207.07 1156.42,-177 1180.13,-167.32 1178.18,-151.77 1201.42,-141 1217.83,-133.39 1255.25,-125.61 1291.66,-119.31"/>
<polygon fill="black" stroke="black" points="1292.61,-122.7 1301.88,-117.58 1291.44,-115.8 1292.61,-122.7"/>
<text text-anchor="middle" x="1023.92" y="-209.3" font-family="Times,serif" font-size="14.00">previousActivity</text>
</g>
<!-- http://purl.org/dj/kaggle/ieee&#45;internal&#45;blend#1719998798 -->
<g id="node16" class="node">
<title>http://purl.org/dj/kaggle/ieee&#45;internal&#45;blend#1719998798</title>
<ellipse fill="none" stroke="black" cx="333.42" cy="-159" rx="333.34" ry="18"/>
<text text-anchor="middle" x="333.42" y="-155.3" font-family="Times,serif" font-size="14.00">1719998798 (../input/ieee&#45;catboost&#45;baseline&#45;with&#45;groupkfold&#45;cv/submission.csv(0): Reuse)</text>
</g>
<!-- http://purl.org/dj/kaggle/ieee&#45;internal&#45;blend#302056115&#45;&gt;http://purl.org/dj/kaggle/ieee&#45;internal&#45;blend#1719998798 -->
<g id="edge24" class="edge">
<title>http://purl.org/dj/kaggle/ieee&#45;internal&#45;blend#302056115&#45;&gt;http://purl.org/dj/kaggle/ieee&#45;internal&#45;blend#1719998798</title>
<path fill="none" stroke="black" d="M859.16,-283.86C750.8,-258.33 532.03,-206.79 413.73,-178.92"/>
<polygon fill="black" stroke="black" points="414.53,-175.51 404,-176.63 412.93,-182.33 414.53,-175.51"/>
<text text-anchor="middle" x="819.92" y="-252.8" font-family="Times,serif" font-size="14.00">previousActivity</text>
</g>
<!-- http://purl.org/dj/kaggle/ieee&#45;internal&#45;blend#301007538&#45;&gt;http://purl.org/dj/kaggle/ieee&#45;internal&#45;blend#345834320 -->
<g id="edge25" class="edge">
<title>http://purl.org/dj/kaggle/ieee&#45;internal&#45;blend#301007538&#45;&gt;http://purl.org/dj/kaggle/ieee&#45;internal&#45;blend#345834320</title>
<path fill="none" stroke="black" d="M1884.34,-456.19C1930.42,-425.11 2028.99,-358.62 2080.89,-323.62"/>
<polygon fill="black" stroke="black" points="2083.07,-326.37 2089.4,-317.87 2079.16,-320.56 2083.07,-326.37"/>
<text text-anchor="middle" x="2024.42" y="-383.3" font-family="Times,serif" font-size="14.00">Add</text>
</g>
<!-- http://purl.org/dj/kaggle/ieee&#45;internal&#45;blend#301007538&#45;&gt;http://purl.org/dj/kaggle/ieee&#45;internal&#45;blend#300942001 -->
<g id="edge26" class="edge">
<title>http://purl.org/dj/kaggle/ieee&#45;internal&#45;blend#301007538&#45;&gt;http://purl.org/dj/kaggle/ieee&#45;internal&#45;blend#300942001</title>
<path fill="none" stroke="black" d="M1824.29,-456.41C1795.54,-442.84 1754.73,-423.56 1723.74,-408.93"/>
<polygon fill="black" stroke="black" points="1725,-405.65 1714.46,-404.55 1722.01,-411.98 1725,-405.65"/>
<text text-anchor="middle" x="1792.42" y="-426.8" font-family="Times,serif" font-size="14.00">Add</text>
</g>
<!-- http://purl.org/dj/kaggle/ieee&#45;internal&#45;blend#301007538&#45;&gt;http://purl.org/dj/kaggle/ieee&#45;internal&#45;blend#301662898 -->
<g id="edge27" class="edge">
<title>http://purl.org/dj/kaggle/ieee&#45;internal&#45;blend#301007538&#45;&gt;http://purl.org/dj/kaggle/ieee&#45;internal&#45;blend#301662898</title>
<path fill="none" stroke="black" d="M1856.73,-455.88C1852.04,-426 1842.33,-364.11 1836.7,-328.27"/>
<polygon fill="black" stroke="black" points="1840.11,-327.39 1835.1,-318.05 1833.19,-328.47 1840.11,-327.39"/>
<text text-anchor="middle" x="1861.42" y="-383.3" font-family="Times,serif" font-size="14.00">Add</text>
</g>
<!-- http://purl.org/dj/kaggle/ieee&#45;internal&#45;blend#1719998798&#45;&gt;http://purl.org/dj/kaggle/ieee&#45;internal&#45;blend -->
<g id="edge28" class="edge">
<title>http://purl.org/dj/kaggle/ieee&#45;internal&#45;blend#1719998798&#45;&gt;http://purl.org/dj/kaggle/ieee&#45;internal&#45;blend</title>
<path fill="none" stroke="black" d="M426.57,-141.69C569.05,-117.54 849.9,-73.07 1090.42,-54 1389.95,-30.25 2321.86,-21.7 2612.17,-19.58"/>
<polygon fill="black" stroke="black" points="2612.25,-23.08 2622.22,-19.5 2612.2,-16.08 2612.25,-23.08"/>
<text text-anchor="middle" x="823.92" y="-101.3" font-family="Times,serif" font-size="14.00">previousActivity</text>
</g>
<!-- http://purl.org/dj/kaggle/ieee&#45;internal&#45;blend#132252129 -->
<g id="node17" class="node">
<title>http://purl.org/dj/kaggle/ieee&#45;internal&#45;blend#132252129</title>
<ellipse fill="none" stroke="black" cx="2943.42" cy="-213" rx="106.68" ry="18"/>
<text text-anchor="middle" x="2943.42" y="-209.3" font-family="Times,serif" font-size="14.00">132252129 (sys(0): Reuse)</text>
</g>
<!-- http://purl.org/dj/kaggle/ieee&#45;internal&#45;blend#132252129&#45;&gt;http://purl.org/dj/kaggle/ieee&#45;internal&#45;blend -->
<g id="edge29" class="edge">
<title>http://purl.org/dj/kaggle/ieee&#45;internal&#45;blend#132252129&#45;&gt;http://purl.org/dj/kaggle/ieee&#45;internal&#45;blend</title>
<path fill="none" stroke="black" d="M2928,-195.14C2898.67,-163.16 2836.74,-96.03 2825.42,-87 2802.84,-68.98 2794.8,-67.8 2769.42,-54 2760.1,-48.93 2749.96,-43.7 2740.36,-38.88"/>
<polygon fill="black" stroke="black" points="2741.88,-35.73 2731.37,-34.4 2738.76,-41.99 2741.88,-35.73"/>
<text text-anchor="middle" x="2887.92" y="-101.3" font-family="Times,serif" font-size="14.00">appearsIn</text>
</g>
<!-- http://purl.org/dj/python/lib/46203232 -->
<g id="node18" class="node">
<title>http://purl.org/dj/python/lib/46203232</title>
<ellipse fill="none" stroke="black" cx="3015.42" cy="-105" rx="91.78" ry="18"/>
<text text-anchor="middle" x="3015.42" y="-101.3" font-family="Times,serif" font-size="14.00">46203232 (sys: Reuse)</text>
</g>
<!-- http://purl.org/dj/kaggle/ieee&#45;internal&#45;blend#132252129&#45;&gt;http://purl.org/dj/python/lib/46203232 -->
<g id="edge30" class="edge">
<title>http://purl.org/dj/kaggle/ieee&#45;internal&#45;blend#132252129&#45;&gt;http://purl.org/dj/python/lib/46203232</title>
<path fill="none" stroke="black" d="M2937.14,-194.79C2932.7,-179.45 2929.17,-157.01 2939.42,-141 2943.46,-134.69 2948.96,-129.51 2955.16,-125.24"/>
<polygon fill="black" stroke="black" points="2957.18,-128.11 2963.98,-119.99 2953.6,-122.1 2957.18,-128.11"/>
<text text-anchor="middle" x="2977.92" y="-155.3" font-family="Times,serif" font-size="14.00">assignedFrom</text>
</g>
<!-- http://purl.org/dj/python/lib/46203232&#45;&gt;http://purl.org/dj/kaggle/ieee&#45;internal&#45;blend -->
<g id="edge31" class="edge">
<title>http://purl.org/dj/python/lib/46203232&#45;&gt;http://purl.org/dj/kaggle/ieee&#45;internal&#45;blend</title>
<path fill="none" stroke="black" d="M2974.39,-88.79C2944.68,-78.13 2903.42,-64.05 2866.42,-54 2834.57,-45.35 2798.82,-37.6 2768.59,-31.61"/>
<polygon fill="black" stroke="black" points="2769.05,-28.13 2758.56,-29.64 2767.7,-35 2769.05,-28.13"/>
<text text-anchor="middle" x="2961.92" y="-57.8" font-family="Times,serif" font-size="14.00">previousActivity</text>
</g>
<!-- http://purl.org/dj/kaggle/ieee&#45;internal&#45;blend#291308294 -->
<g id="node19" class="node">
<title>http://purl.org/dj/kaggle/ieee&#45;internal&#45;blend#291308294</title>
<ellipse fill="none" stroke="black" cx="3143.42" cy="-159" rx="117.78" ry="18"/>
<text text-anchor="middle" x="3143.42" y="-155.3" font-family="Times,serif" font-size="14.00">291308294 (ignore(0): Reuse)</text>
</g>
<!-- http://purl.org/dj/kaggle/ieee&#45;internal&#45;blend#291308294&#45;&gt;http://purl.org/dj/kaggle/ieee&#45;internal&#45;blend -->
<g id="edge32" class="edge">
<title>http://purl.org/dj/kaggle/ieee&#45;internal&#45;blend#291308294&#45;&gt;http://purl.org/dj/kaggle/ieee&#45;internal&#45;blend</title>
<path fill="none" stroke="black" d="M3141.19,-140.73C3138.23,-124.69 3131.49,-101.2 3116.42,-87 3069.95,-43.19 2893.76,-27.52 2785.83,-21.97"/>
<polygon fill="black" stroke="black" points="2785.76,-18.47 2775.6,-21.47 2785.41,-25.46 2785.76,-18.47"/>
<text text-anchor="middle" x="3163.92" y="-101.3" font-family="Times,serif" font-size="14.00">appearsIn</text>
</g>
<!-- http://purl.org/dj/python/lib/22216931 -->
<g id="node20" class="node">
<title>http://purl.org/dj/python/lib/22216931</title>
<ellipse fill="none" stroke="black" cx="3302.42" cy="-105" rx="88.28" ry="18"/>
<text text-anchor="middle" x="3302.42" y="-101.3" font-family="Times,serif" font-size="14.00">22216931 (os: Reuse)</text>
</g>
<!-- http://purl.org/dj/python/lib/22216931&#45;&gt;http://purl.org/dj/kaggle/ieee&#45;internal&#45;blend -->
<g id="edge34" class="edge">
<title>http://purl.org/dj/python/lib/22216931&#45;&gt;http://purl.org/dj/kaggle/ieee&#45;internal&#45;blend</title>
<path fill="none" stroke="black" d="M3265.9,-88.49C3237.01,-76.93 3195.36,-61.86 3157.42,-54 3030.41,-27.7 2879.9,-20.69 2787.03,-19.08"/>
<polygon fill="black" stroke="black" points="2786.89,-15.57 2776.84,-18.92 2786.78,-22.57 2786.89,-15.57"/>
<text text-anchor="middle" x="3255.92" y="-57.8" font-family="Times,serif" font-size="14.00">previousActivity</text>
</g>
<!-- http://purl.org/dj/kaggle/ieee&#45;internal&#45;blend#83689828 -->
<g id="node21" class="node">
<title>http://purl.org/dj/kaggle/ieee&#45;internal&#45;blend#83689828</title>
<ellipse fill="none" stroke="black" cx="3372.42" cy="-213" rx="98.58" ry="18"/>
<text text-anchor="middle" x="3372.42" y="-209.3" font-family="Times,serif" font-size="14.00">83689828 (os(0): Reuse)</text>
</g>
<!-- http://purl.org/dj/kaggle/ieee&#45;internal&#45;blend#83689828&#45;&gt;http://purl.org/dj/kaggle/ieee&#45;internal&#45;blend -->
<g id="edge35" class="edge">
<title>http://purl.org/dj/kaggle/ieee&#45;internal&#45;blend#83689828&#45;&gt;http://purl.org/dj/kaggle/ieee&#45;internal&#45;blend</title>
<path fill="none" stroke="black" d="M3397.99,-195.39C3403.81,-190.25 3409.22,-184.06 3412.42,-177 3429.12,-140.2 3426.51,-116.99 3399.42,-87 3369.74,-54.14 3348.84,-62.69 3305.42,-54 3208.67,-34.62 2929.22,-24.87 2786.12,-21.02"/>
<polygon fill="black" stroke="black" points="2786.14,-17.52 2776.05,-20.76 2785.96,-24.52 2786.14,-17.52"/>
<text text-anchor="middle" x="3465.92" y="-101.3" font-family="Times,serif" font-size="14.00">previousActivity</text>
</g>
<!-- http://purl.org/dj/kaggle/ieee&#45;internal&#45;blend#83689828&#45;&gt;http://purl.org/dj/python/lib/22216931 -->
<g id="edge36" class="edge">
<title>http://purl.org/dj/kaggle/ieee&#45;internal&#45;blend#83689828&#45;&gt;http://purl.org/dj/python/lib/22216931</title>
<path fill="none" stroke="black" d="M3351.79,-195.08C3346.02,-189.7 3340.07,-183.46 3335.42,-177 3325.64,-163.42 3317.64,-146.48 3311.96,-132.55"/>
<polygon fill="black" stroke="black" points="3315.14,-131.08 3308.25,-123.04 3308.62,-133.62 3315.14,-131.08"/>
<text text-anchor="middle" x="3373.92" y="-155.3" font-family="Times,serif" font-size="14.00">assignedFrom</text>
</g>
<!-- http://purl.org/dj/kaggle/ieee&#45;internal&#45;blend#586482751 -->
<g id="node22" class="node">
<title>http://purl.org/dj/kaggle/ieee&#45;internal&#45;blend#586482751</title>
<ellipse fill="none" stroke="black" cx="2982.42" cy="-300" rx="135.68" ry="18"/>
<text text-anchor="middle" x="2982.42" y="-296.3" font-family="Times,serif" font-size="14.00">586482751 (warnings(0)$0: Reuse)</text>
</g>
<!-- http://purl.org/dj/kaggle/ieee&#45;internal&#45;blend#586482751&#45;&gt;http://purl.org/dj/kaggle/ieee&#45;internal&#45;blend#291308294 -->
<g id="edge38" class="edge">
<title>http://purl.org/dj/kaggle/ieee&#45;internal&#45;blend#586482751&#45;&gt;http://purl.org/dj/kaggle/ieee&#45;internal&#45;blend#291308294</title>
<path fill="none" stroke="black" d="M3002.16,-281.96C3030.65,-257.36 3083.4,-211.82 3115.76,-183.88"/>
<polygon fill="black" stroke="black" points="3118.24,-186.37 3123.52,-177.18 3113.66,-181.07 3118.24,-186.37"/>
<text text-anchor="middle" x="3077.42" y="-252.8" font-family="Times,serif" font-size="14.00">filterwarnings</text>
</g>
<!-- http://purl.org/dj/kaggle/ieee&#45;internal&#45;blend#447153131 -->
<g id="node23" class="node">
<title>http://purl.org/dj/kaggle/ieee&#45;internal&#45;blend#447153131</title>
<ellipse fill="none" stroke="black" cx="2691.42" cy="-213" rx="127.28" ry="18"/>
<text text-anchor="middle" x="2691.42" y="-209.3" font-family="Times,serif" font-size="14.00">447153131 (warnings(0): Reuse)</text>
</g>
<!-- http://purl.org/dj/kaggle/ieee&#45;internal&#45;blend#586482751&#45;&gt;http://purl.org/dj/kaggle/ieee&#45;internal&#45;blend#447153131 -->
<g id="edge39" class="edge">
<title>http://purl.org/dj/kaggle/ieee&#45;internal&#45;blend#586482751&#45;&gt;http://purl.org/dj/kaggle/ieee&#45;internal&#45;blend#447153131</title>
<path fill="none" stroke="black" d="M2929.05,-283.41C2879.72,-269 2806.4,-247.58 2754.26,-232.36"/>
<polygon fill="black" stroke="black" points="2755.04,-228.94 2744.46,-229.49 2753.07,-235.65 2755.04,-228.94"/>
<text text-anchor="middle" x="2892.42" y="-252.8" font-family="Times,serif" font-size="14.00">filterwarnings</text>
</g>
<!-- http://purl.org/dj/kaggle/ieee&#45;internal&#45;blend#447153131&#45;&gt;http://purl.org/dj/kaggle/ieee&#45;internal&#45;blend -->
<g id="edge40" class="edge">
<title>http://purl.org/dj/kaggle/ieee&#45;internal&#45;blend#447153131&#45;&gt;http://purl.org/dj/kaggle/ieee&#45;internal&#45;blend</title>
<path fill="none" stroke="black" d="M2672.57,-194.89C2653.81,-178.74 2623.53,-154.97 2593.42,-141 2563.11,-126.94 2541.03,-149.31 2520.42,-123 2510.55,-110.4 2511.34,-100.17 2520.42,-87 2543.03,-54.22 2583.68,-37.23 2620.53,-28.43"/>
<polygon fill="black" stroke="black" points="2621.3,-31.84 2630.3,-26.26 2619.78,-25.01 2621.3,-31.84"/>
<text text-anchor="middle" x="2546.92" y="-101.3" font-family="Times,serif" font-size="14.00">appearsIn</text>
</g>
<!-- http://purl.org/dj/kaggle/ieee&#45;internal&#45;blend#447153131&#45;&gt;http://purl.org/dj/python/lib/258474858 -->
<g id="edge41" class="edge">
<title>http://purl.org/dj/kaggle/ieee&#45;internal&#45;blend#447153131&#45;&gt;http://purl.org/dj/python/lib/258474858</title>
<path fill="none" stroke="black" d="M2692.71,-194.97C2693.96,-178.38 2695.88,-152.88 2697.35,-133.43"/>
<polygon fill="black" stroke="black" points="2700.85,-133.58 2698.11,-123.34 2693.87,-133.05 2700.85,-133.58"/>
<text text-anchor="middle" x="2735.92" y="-155.3" font-family="Times,serif" font-size="14.00">assignedFrom</text>
</g>
<!-- http://purl.org/dj/kaggle/ieee&#45;internal&#45;blend#76874060 -->
<g id="node24" class="node">
<title>http://purl.org/dj/kaggle/ieee&#45;internal&#45;blend#76874060</title>
<ellipse fill="none" stroke="black" cx="3673.42" cy="-213" rx="98.58" ry="18"/>
<text text-anchor="middle" x="3673.42" y="-209.3" font-family="Times,serif" font-size="14.00">76874060 (gc(0): Reuse)</text>
</g>
<!-- http://purl.org/dj/kaggle/ieee&#45;internal&#45;blend#76874060&#45;&gt;http://purl.org/dj/kaggle/ieee&#45;internal&#45;blend -->
<g id="edge42" class="edge">
<title>http://purl.org/dj/kaggle/ieee&#45;internal&#45;blend#76874060&#45;&gt;http://purl.org/dj/kaggle/ieee&#45;internal&#45;blend</title>
<path fill="none" stroke="black" d="M3652.41,-195.18C3610.32,-161.49 3519.31,-88.82 3515.42,-87 3388.06,-27.51 2970.51,-19.35 2787.13,-18.72"/>
<polygon fill="black" stroke="black" points="2786.99,-15.22 2776.98,-18.69 2786.97,-22.22 2786.99,-15.22"/>
<text text-anchor="middle" x="3586.92" y="-101.3" font-family="Times,serif" font-size="14.00">appearsIn</text>
</g>
<!-- http://purl.org/dj/python/lib/20119755 -->
<g id="node25" class="node">
<title>http://purl.org/dj/python/lib/20119755</title>
<ellipse fill="none" stroke="black" cx="3713.42" cy="-105" rx="89.08" ry="18"/>
<text text-anchor="middle" x="3713.42" y="-101.3" font-family="Times,serif" font-size="14.00">20119755 (gc: Reuse)</text>
</g>
<!-- http://purl.org/dj/kaggle/ieee&#45;internal&#45;blend#76874060&#45;&gt;http://purl.org/dj/python/lib/20119755 -->
<g id="edge43" class="edge">
<title>http://purl.org/dj/kaggle/ieee&#45;internal&#45;blend#76874060&#45;&gt;http://purl.org/dj/python/lib/20119755</title>
<path fill="none" stroke="black" d="M3679.85,-194.97C3686.2,-178.12 3696.02,-152.1 3703.4,-132.54"/>
<polygon fill="black" stroke="black" points="3706.75,-133.58 3707.01,-122.99 3700.2,-131.11 3706.75,-133.58"/>
<text text-anchor="middle" x="3736.92" y="-155.3" font-family="Times,serif" font-size="14.00">assignedFrom</text>
</g>
<!-- http://purl.org/dj/python/lib/20119755&#45;&gt;http://purl.org/dj/kaggle/ieee&#45;internal&#45;blend -->
<g id="edge44" class="edge">
<title>http://purl.org/dj/python/lib/20119755&#45;&gt;http://purl.org/dj/kaggle/ieee&#45;internal&#45;blend</title>
<path fill="none" stroke="black" d="M3677.61,-88.47C3648.53,-76.66 3606.13,-61.25 3567.42,-54 3419.77,-26.35 2976.3,-20.54 2786.82,-19.32"/>
<polygon fill="black" stroke="black" points="2786.64,-15.82 2776.62,-19.26 2786.6,-22.82 2786.64,-15.82"/>
<text text-anchor="middle" x="3653.42" y="-57.8" font-family="Times,serif" font-size="14.00">importedBy</text>
</g>
<!-- http://purl.org/dj/kaggle/ieee&#45;internal&#45;blend#301138612 -->
<g id="node26" class="node">
<title>http://purl.org/dj/kaggle/ieee&#45;internal&#45;blend#301138612</title>
<ellipse fill="none" stroke="black" cx="1851.42" cy="-669" rx="124.58" ry="18"/>
<text text-anchor="middle" x="1851.42" y="-665.3" font-family="Times,serif" font-size="14.00">301138612 (sub_1(0)$4: Reuse)</text>
</g>
<!-- http://purl.org/dj/kaggle/ieee&#45;internal&#45;blend#301138612&#45;&gt;http://purl.org/dj/kaggle/ieee&#45;internal&#45;blend#300942001 -->
<g id="edge45" class="edge">
<title>http://purl.org/dj/kaggle/ieee&#45;internal&#45;blend#301138612&#45;&gt;http://purl.org/dj/kaggle/ieee&#45;internal&#45;blend#300942001</title>
<path fill="none" stroke="black" d="M1791.41,-653.17C1775.84,-648.01 1759.5,-641.36 1745.42,-633 1696.74,-604.12 1674.95,-597.92 1652.42,-546 1633.55,-502.51 1651.76,-446.92 1666.05,-414.61"/>
<polygon fill="black" stroke="black" points="1669.3,-415.91 1670.31,-405.36 1662.94,-412.98 1669.3,-415.91"/>
<text text-anchor="middle" x="1697.92" y="-524.3" font-family="Times,serif" font-size="14.00">previousActivity</text>
</g>
<!-- http://purl.org/dj/kaggle/ieee&#45;internal&#45;blend#301138612&#45;&gt;http://purl.org/dj/kaggle/ieee&#45;internal&#45;blend#301073075 -->
<g id="edge46" class="edge">
<title>http://purl.org/dj/kaggle/ieee&#45;internal&#45;blend#301138612&#45;&gt;http://purl.org/dj/kaggle/ieee&#45;internal&#45;blend#301073075</title>
<path fill="none" stroke="black" d="M1876.51,-651.21C1896.08,-638.11 1923.44,-619.8 1944.89,-605.44"/>
<polygon fill="black" stroke="black" points="1947.02,-608.23 1953.38,-599.76 1943.12,-602.41 1947.02,-608.23"/>
<text text-anchor="middle" x="1968.92" y="-621.8" font-family="Times,serif" font-size="14.00">previousActivity</text>
</g>
<!-- http://purl.org/dj/kaggle/ieee&#45;internal&#45;blend#301138612&#45;&gt;http://purl.org/dj/kaggle/ieee&#45;internal&#45;blend#301007538 -->
<g id="edge47" class="edge">
<title>http://purl.org/dj/kaggle/ieee&#45;internal&#45;blend#301138612&#45;&gt;http://purl.org/dj/kaggle/ieee&#45;internal&#45;blend#301007538</title>
<path fill="none" stroke="black" d="M1801.47,-652.42C1776.63,-641.86 1748.89,-625.15 1734.42,-600 1726.44,-586.13 1727.09,-578.22 1734.42,-564 1750.32,-533.15 1782.41,-510.65 1810.09,-495.99"/>
<polygon fill="black" stroke="black" points="1811.95,-498.97 1819.28,-491.32 1808.78,-492.73 1811.95,-498.97"/>
<text text-anchor="middle" x="1779.92" y="-578.3" font-family="Times,serif" font-size="14.00">previousActivity</text>
</g>
<!-- http://purl.org/dj/kaggle/ieee&#45;internal&#45;blend#1048512072 -->
<g id="node27" class="node">
<title>http://purl.org/dj/kaggle/ieee&#45;internal&#45;blend#1048512072</title>
<ellipse fill="none" stroke="black" cx="3062.42" cy="-528" rx="153.27" ry="18"/>
<text text-anchor="middle" x="3062.42" y="-524.3" font-family="Times,serif" font-size="14.00">1048512072 (submission.csv(0): Reuse)</text>
</g>
<!-- http://purl.org/dj/kaggle/ieee&#45;internal&#45;blend#301138612&#45;&gt;http://purl.org/dj/kaggle/ieee&#45;internal&#45;blend#1048512072 -->
<g id="edge48" class="edge">
<title>http://purl.org/dj/kaggle/ieee&#45;internal&#45;blend#301138612&#45;&gt;http://purl.org/dj/kaggle/ieee&#45;internal&#45;blend#1048512072</title>
<path fill="none" stroke="black" d="M1945.69,-657.18C2164.88,-632.02 2708.25,-569.65 2946.89,-542.26"/>
<polygon fill="black" stroke="black" points="2947.45,-545.72 2956.99,-541.1 2946.65,-538.76 2947.45,-545.72"/>
<text text-anchor="middle" x="2296.42" y="-621.8" font-family="Times,serif" font-size="14.00">to_csv</text>
</g>
<!-- http://purl.org/dj/kaggle/ieee&#45;internal&#45;blend#1048512072&#45;&gt;http://purl.org/dj/kaggle/ieee&#45;internal&#45;blend -->
<g id="edge49" class="edge">
<title>http://purl.org/dj/kaggle/ieee&#45;internal&#45;blend#1048512072&#45;&gt;http://purl.org/dj/kaggle/ieee&#45;internal&#45;blend</title>
<path fill="none" stroke="black" d="M3210.5,-523.25C3433.67,-515.6 3830.42,-493.31 3830.42,-431.5 3830.42,-431.5 3830.42,-431.5 3830.42,-104 3830.42,-58.56 3847.13,-77.81 3690.42,-54 3517.6,-27.74 2995.38,-21.12 2786.83,-19.5"/>
<polygon fill="black" stroke="black" points="2786.56,-16 2776.54,-19.42 2786.51,-23 2786.56,-16"/>
<text text-anchor="middle" x="3856.92" y="-296.3" font-family="Times,serif" font-size="14.00">appearsIn</text>
</g>
</g>
</svg>
