<?xml version="1.0" encoding="UTF-8" standalone="no"?>
<!DOCTYPE svg PUBLIC "-//W3C//DTD SVG 1.1//EN"
 "http://www.w3.org/Graphics/SVG/1.1/DTD/svg11.dtd">
<!-- Generated by graphviz version 2.47.1 (20210417.1919)
 -->
<!-- Pages: 1 -->
<svg width="3721pt" height="695pt"
 viewBox="0.00 0.00 3721.00 695.00" xmlns="http://www.w3.org/2000/svg" xmlns:xlink="http://www.w3.org/1999/xlink">
<g id="graph0" class="graph" transform="scale(1 1) rotate(0) translate(4 691)">
<polygon fill="white" stroke="transparent" points="-4,4 -4,-691 3717,-691 3717,4 -4,4"/>
<!-- http://purl.org/dj/kaggle/ieee&#45;internal&#45;blend#80085334 -->
<g id="node1" class="node">
<title>http://purl.org/dj/kaggle/ieee&#45;internal&#45;blend#80085334</title>
<ellipse fill="none" stroke="black" cx="1742" cy="-213" rx="99.38" ry="18"/>
<text text-anchor="middle" x="1742" y="-209.3" font-family="Times,serif" font-size="14.00">80085334 (pd(0): Reuse)</text>
</g>
<!-- http://purl.org/dj/python/lib/144966264 -->
<g id="node2" class="node">
<title>http://purl.org/dj/python/lib/144966264</title>
<ellipse fill="none" stroke="black" cx="2031" cy="-105" rx="109.38" ry="18"/>
<text text-anchor="middle" x="2031" y="-101.3" font-family="Times,serif" font-size="14.00">144966264 (pandas: Reuse)</text>
</g>
<!-- http://purl.org/dj/kaggle/ieee&#45;internal&#45;blend#80085334&#45;&gt;http://purl.org/dj/python/lib/144966264 -->
<g id="edge1" class="edge">
<title>http://purl.org/dj/kaggle/ieee&#45;internal&#45;blend#80085334&#45;&gt;http://purl.org/dj/python/lib/144966264</title>
<path fill="none" stroke="black" d="M1755.01,-194.92C1759.05,-189.33 1763.38,-183.01 1767,-177 1776.23,-161.67 1770.49,-151.46 1785,-141 1806.5,-125.51 1864.02,-116.83 1918.03,-111.99"/>
<polygon fill="black" stroke="black" points="1918.41,-115.47 1928.07,-111.13 1917.81,-108.49 1918.41,-115.47"/>
<text text-anchor="middle" x="1830" y="-155.3" font-family="Times,serif" font-size="14.00">assignedFrom ()</text>
</g>
<!-- http://purl.org/dj/kaggle/ieee&#45;internal&#45;blend -->
<g id="node3" class="node">
<title>http://purl.org/dj/kaggle/ieee&#45;internal&#45;blend</title>
<ellipse fill="none" stroke="black" cx="2469" cy="-18" rx="174.37" ry="18"/>
<text text-anchor="middle" x="2469" y="-14.3" font-family="Times,serif" font-size="14.00">ieee&#45;internal&#45;blend (ieee&#45;internal&#45;blend.ipynb)</text>
</g>
<!-- http://purl.org/dj/kaggle/ieee&#45;internal&#45;blend#80085334&#45;&gt;http://purl.org/dj/kaggle/ieee&#45;internal&#45;blend -->
<g id="edge2" class="edge">
<title>http://purl.org/dj/kaggle/ieee&#45;internal&#45;blend#80085334&#45;&gt;http://purl.org/dj/kaggle/ieee&#45;internal&#45;blend</title>
<path fill="none" stroke="black" d="M1745.78,-194.8C1749.8,-179.46 1757.37,-157.03 1770,-141 1795.87,-108.17 1808.17,-102.48 1847,-87 1927.47,-54.93 2149.12,-36.42 2304.78,-27.03"/>
<polygon fill="black" stroke="black" points="2305.17,-30.51 2314.94,-26.42 2304.75,-23.53 2305.17,-30.51"/>
<text text-anchor="middle" x="1880" y="-101.3" font-family="Times,serif" font-size="14.00">appearsIn ()</text>
</g>
<!-- http://purl.org/dj/python/lib/144966264&#45;&gt;http://purl.org/dj/kaggle/ieee&#45;internal&#45;blend -->
<g id="edge3" class="edge">
<title>http://purl.org/dj/python/lib/144966264&#45;&gt;http://purl.org/dj/kaggle/ieee&#45;internal&#45;blend</title>
<path fill="none" stroke="black" d="M2049.03,-87.01C2062.31,-75.58 2081.41,-61.32 2101,-54 2137.61,-40.32 2222.68,-31.74 2301.81,-26.5"/>
<polygon fill="black" stroke="black" points="2302.17,-29.98 2311.92,-25.84 2301.72,-22.99 2302.17,-29.98"/>
<text text-anchor="middle" x="2140.5" y="-57.8" font-family="Times,serif" font-size="14.00">importedBy ()</text>
</g>
<!-- http://purl.org/dj/kaggle/ieee&#45;internal&#45;blend#302056115 -->
<g id="node4" class="node">
<title>http://purl.org/dj/kaggle/ieee&#45;internal&#45;blend#302056115</title>
<ellipse fill="none" stroke="black" cx="958" cy="-300" rx="142.17" ry="18"/>
<text text-anchor="middle" x="958" y="-296.3" font-family="Times,serif" font-size="14.00">302056115 (sub_4(0)$0: Movement)</text>
</g>
<!-- http://purl.org/dj/kaggle/ieee&#45;internal&#45;blend#302056115&#45;&gt;http://purl.org/dj/kaggle/ieee&#45;internal&#45;blend#80085334 -->
<g id="edge4" class="edge">
<title>http://purl.org/dj/kaggle/ieee&#45;internal&#45;blend#302056115&#45;&gt;http://purl.org/dj/kaggle/ieee&#45;internal&#45;blend#80085334</title>
<path fill="none" stroke="black" d="M997.88,-282.68C1028.11,-271.11 1070.96,-256.37 1110,-249 1207.18,-230.66 1480.12,-220.81 1633.64,-216.57"/>
<polygon fill="black" stroke="black" points="1634.13,-220.06 1644.03,-216.29 1633.94,-213.06 1634.13,-220.06"/>
<text text-anchor="middle" x="1140.5" y="-252.8" font-family="Times,serif" font-size="14.00">read_csv ()</text>
</g>
<!-- http://purl.org/dj/kaggle/ieee&#45;internal&#45;blend#1719998798 -->
<g id="node5" class="node">
<title>http://purl.org/dj/kaggle/ieee&#45;internal&#45;blend#1719998798</title>
<ellipse fill="none" stroke="black" cx="348" cy="-159" rx="333.34" ry="18"/>
<text text-anchor="middle" x="348" y="-155.3" font-family="Times,serif" font-size="14.00">1719998798 (../input/ieee&#45;catboost&#45;baseline&#45;with&#45;groupkfold&#45;cv/submission.csv(0): Reuse)</text>
</g>
<!-- http://purl.org/dj/kaggle/ieee&#45;internal&#45;blend#302056115&#45;&gt;http://purl.org/dj/kaggle/ieee&#45;internal&#45;blend#1719998798 -->
<g id="edge5" class="edge">
<title>http://purl.org/dj/kaggle/ieee&#45;internal&#45;blend#302056115&#45;&gt;http://purl.org/dj/kaggle/ieee&#45;internal&#45;blend#1719998798</title>
<path fill="none" stroke="black" d="M892.14,-283.99C780.37,-258.52 553.78,-206.89 431.22,-178.96"/>
<polygon fill="black" stroke="black" points="431.66,-175.47 421.13,-176.66 430.1,-182.3 431.66,-175.47"/>
<text text-anchor="middle" x="834.5" y="-252.8" font-family="Times,serif" font-size="14.00">read_csv ()</text>
</g>
<!-- http://purl.org/dj/kaggle/ieee&#45;internal&#45;blend#1719998798&#45;&gt;http://purl.org/dj/kaggle/ieee&#45;internal&#45;blend -->
<g id="edge6" class="edge">
<title>http://purl.org/dj/kaggle/ieee&#45;internal&#45;blend#1719998798&#45;&gt;http://purl.org/dj/kaggle/ieee&#45;internal&#45;blend</title>
<path fill="none" stroke="black" d="M502.06,-143C657.45,-128.06 904.28,-104.83 1118,-87 1314.31,-70.62 1363.32,-65.12 1560,-54 1814.69,-39.59 2109.87,-29.43 2293.05,-23.9"/>
<polygon fill="black" stroke="black" points="2293.15,-27.39 2303.04,-23.59 2292.94,-20.4 2293.15,-27.39"/>
<text text-anchor="middle" x="1151" y="-101.3" font-family="Times,serif" font-size="14.00">appearsIn ()</text>
</g>
<!-- http://purl.org/dj/kaggle/ieee&#45;internal&#45;blend#1412829055 -->
<g id="node6" class="node">
<title>http://purl.org/dj/kaggle/ieee&#45;internal&#45;blend#1412829055</title>
<ellipse fill="none" stroke="black" cx="2130" cy="-159" rx="246.16" ry="18"/>
<text text-anchor="middle" x="2130" y="-155.3" font-family="Times,serif" font-size="14.00">1412829055 (../input/ieee&#45;simple&#45;lgbm/submission.csv(0): Reuse)</text>
</g>
<!-- http://purl.org/dj/kaggle/ieee&#45;internal&#45;blend#1412829055&#45;&gt;http://purl.org/dj/kaggle/ieee&#45;internal&#45;blend -->
<g id="edge7" class="edge">
<title>http://purl.org/dj/kaggle/ieee&#45;internal&#45;blend#1412829055&#45;&gt;http://purl.org/dj/kaggle/ieee&#45;internal&#45;blend</title>
<path fill="none" stroke="black" d="M2159.27,-141.1C2198.95,-118.73 2272.49,-79.21 2339,-54 2355.44,-47.77 2373.45,-42.17 2390.68,-37.38"/>
<polygon fill="black" stroke="black" points="2391.98,-40.66 2400.72,-34.66 2390.15,-33.9 2391.98,-40.66"/>
<text text-anchor="middle" x="2293" y="-101.3" font-family="Times,serif" font-size="14.00">appearsIn ()</text>
</g>
<!-- http://purl.org/dj/kaggle/ieee&#45;internal&#45;blend#83689828 -->
<g id="node7" class="node">
<title>http://purl.org/dj/kaggle/ieee&#45;internal&#45;blend#83689828</title>
<ellipse fill="none" stroke="black" cx="2560" cy="-213" rx="98.58" ry="18"/>
<text text-anchor="middle" x="2560" y="-209.3" font-family="Times,serif" font-size="14.00">83689828 (os(0): Reuse)</text>
</g>
<!-- http://purl.org/dj/kaggle/ieee&#45;internal&#45;blend#83689828&#45;&gt;http://purl.org/dj/kaggle/ieee&#45;internal&#45;blend -->
<g id="edge8" class="edge">
<title>http://purl.org/dj/kaggle/ieee&#45;internal&#45;blend#83689828&#45;&gt;http://purl.org/dj/kaggle/ieee&#45;internal&#45;blend</title>
<path fill="none" stroke="black" d="M2571.47,-194.9C2574.54,-189.42 2577.43,-183.17 2579,-177 2592.77,-122.75 2591.62,-93.53 2552,-54 2546.47,-48.49 2539.95,-43.79 2533.02,-39.81"/>
<polygon fill="black" stroke="black" points="2534.56,-36.66 2524.07,-35.13 2531.31,-42.86 2534.56,-36.66"/>
<text text-anchor="middle" x="2620" y="-101.3" font-family="Times,serif" font-size="14.00">appearsIn ()</text>
</g>
<!-- http://purl.org/dj/python/lib/22216931 -->
<g id="node8" class="node">
<title>http://purl.org/dj/python/lib/22216931</title>
<ellipse fill="none" stroke="black" cx="2469" cy="-105" rx="88.28" ry="18"/>
<text text-anchor="middle" x="2469" y="-101.3" font-family="Times,serif" font-size="14.00">22216931 (os: Reuse)</text>
</g>
<!-- http://purl.org/dj/kaggle/ieee&#45;internal&#45;blend#83689828&#45;&gt;http://purl.org/dj/python/lib/22216931 -->
<g id="edge9" class="edge">
<title>http://purl.org/dj/kaggle/ieee&#45;internal&#45;blend#83689828&#45;&gt;http://purl.org/dj/python/lib/22216931</title>
<path fill="none" stroke="black" d="M2515.07,-196.91C2505.36,-191.88 2495.94,-185.35 2489,-177 2478.82,-164.76 2473.81,-147.66 2471.35,-133.32"/>
<polygon fill="black" stroke="black" points="2474.76,-132.43 2469.92,-123.01 2467.83,-133.39 2474.76,-132.43"/>
<text text-anchor="middle" x="2534" y="-155.3" font-family="Times,serif" font-size="14.00">assignedFrom ()</text>
</g>
<!-- http://purl.org/dj/python/lib/22216931&#45;&gt;http://purl.org/dj/kaggle/ieee&#45;internal&#45;blend -->
<g id="edge10" class="edge">
<title>http://purl.org/dj/python/lib/22216931&#45;&gt;http://purl.org/dj/kaggle/ieee&#45;internal&#45;blend</title>
<path fill="none" stroke="black" d="M2469,-86.8C2469,-75.16 2469,-59.55 2469,-46.24"/>
<polygon fill="black" stroke="black" points="2472.5,-46.18 2469,-36.18 2465.5,-46.18 2472.5,-46.18"/>
<text text-anchor="middle" x="2508.5" y="-57.8" font-family="Times,serif" font-size="14.00">importedBy ()</text>
</g>
<!-- http://purl.org/dj/kaggle/ieee&#45;internal&#45;blend#301662898 -->
<g id="node9" class="node">
<title>http://purl.org/dj/kaggle/ieee&#45;internal&#45;blend#301662898</title>
<ellipse fill="none" stroke="black" cx="1261" cy="-300" rx="142.17" ry="18"/>
<text text-anchor="middle" x="1261" y="-296.3" font-family="Times,serif" font-size="14.00">301662898 (sub_3(0)$0: Movement)</text>
</g>
<!-- http://purl.org/dj/kaggle/ieee&#45;internal&#45;blend#301662898&#45;&gt;http://purl.org/dj/kaggle/ieee&#45;internal&#45;blend#80085334 -->
<g id="edge11" class="edge">
<title>http://purl.org/dj/kaggle/ieee&#45;internal&#45;blend#301662898&#45;&gt;http://purl.org/dj/kaggle/ieee&#45;internal&#45;blend#80085334</title>
<path fill="none" stroke="black" d="M1308.57,-282.91C1343.02,-271.83 1390.93,-257.61 1434,-249 1502.22,-235.37 1580.08,-226.58 1640.45,-221.22"/>
<polygon fill="black" stroke="black" points="1641.09,-224.67 1650.74,-220.32 1640.48,-217.7 1641.09,-224.67"/>
<text text-anchor="middle" x="1464.5" y="-252.8" font-family="Times,serif" font-size="14.00">read_csv ()</text>
</g>
<!-- http://purl.org/dj/kaggle/ieee&#45;internal&#45;blend#819794977 -->
<g id="node10" class="node">
<title>http://purl.org/dj/kaggle/ieee&#45;internal&#45;blend#819794977</title>
<ellipse fill="none" stroke="black" cx="973" cy="-159" rx="286.75" ry="18"/>
<text text-anchor="middle" x="973" y="-155.3" font-family="Times,serif" font-size="14.00">819794977 (../input/ieee&#45;lgbm&#45;with&#45;groupkfold&#45;cv/submission.csv(0): Reuse)</text>
</g>
<!-- http://purl.org/dj/kaggle/ieee&#45;internal&#45;blend#301662898&#45;&gt;http://purl.org/dj/kaggle/ieee&#45;internal&#45;blend#819794977 -->
<g id="edge12" class="edge">
<title>http://purl.org/dj/kaggle/ieee&#45;internal&#45;blend#301662898&#45;&gt;http://purl.org/dj/kaggle/ieee&#45;internal&#45;blend#819794977</title>
<path fill="none" stroke="black" d="M1232.15,-282.15C1214.66,-272.15 1191.77,-259.41 1171,-249 1121.25,-224.06 1063.02,-198.28 1022.64,-180.93"/>
<polygon fill="black" stroke="black" points="1023.86,-177.64 1013.29,-176.92 1021.1,-184.07 1023.86,-177.64"/>
<text text-anchor="middle" x="1228.5" y="-252.8" font-family="Times,serif" font-size="14.00">read_csv ()</text>
</g>
<!-- http://purl.org/dj/kaggle/ieee&#45;internal&#45;blend#819794977&#45;&gt;http://purl.org/dj/kaggle/ieee&#45;internal&#45;blend -->
<g id="edge13" class="edge">
<title>http://purl.org/dj/kaggle/ieee&#45;internal&#45;blend#819794977&#45;&gt;http://purl.org/dj/kaggle/ieee&#45;internal&#45;blend</title>
<path fill="none" stroke="black" d="M1063.76,-141.88C1199.5,-118.45 1463.66,-75.45 1690,-54 1894.41,-34.63 2130.05,-25.93 2288.16,-22.05"/>
<polygon fill="black" stroke="black" points="2288.55,-25.54 2298.46,-21.8 2288.38,-18.54 2288.55,-25.54"/>
<text text-anchor="middle" x="1441" y="-101.3" font-family="Times,serif" font-size="14.00">appearsIn ()</text>
</g>
<!-- http://purl.org/dj/kaggle/ieee&#45;internal&#45;blend#447153131 -->
<g id="node11" class="node">
<title>http://purl.org/dj/kaggle/ieee&#45;internal&#45;blend#447153131</title>
<ellipse fill="none" stroke="black" cx="2925" cy="-213" rx="127.28" ry="18"/>
<text text-anchor="middle" x="2925" y="-209.3" font-family="Times,serif" font-size="14.00">447153131 (warnings(0): Reuse)</text>
</g>
<!-- http://purl.org/dj/kaggle/ieee&#45;internal&#45;blend#447153131&#45;&gt;http://purl.org/dj/kaggle/ieee&#45;internal&#45;blend -->
<g id="edge14" class="edge">
<title>http://purl.org/dj/kaggle/ieee&#45;internal&#45;blend#447153131&#45;&gt;http://purl.org/dj/kaggle/ieee&#45;internal&#45;blend</title>
<path fill="none" stroke="black" d="M2930.77,-194.89C2938.74,-167.66 2949.08,-114.72 2920,-87 2880.4,-49.25 2752.14,-32.44 2642.48,-24.96"/>
<polygon fill="black" stroke="black" points="2642.47,-21.46 2632.27,-24.29 2642.01,-28.44 2642.47,-21.46"/>
<text text-anchor="middle" x="2971" y="-101.3" font-family="Times,serif" font-size="14.00">appearsIn ()</text>
</g>
<!-- http://purl.org/dj/python/lib/258474858 -->
<g id="node12" class="node">
<title>http://purl.org/dj/python/lib/258474858</title>
<ellipse fill="none" stroke="black" cx="2794" cy="-105" rx="116.98" ry="18"/>
<text text-anchor="middle" x="2794" y="-101.3" font-family="Times,serif" font-size="14.00">258474858 (warnings: Reuse)</text>
</g>
<!-- http://purl.org/dj/kaggle/ieee&#45;internal&#45;blend#447153131&#45;&gt;http://purl.org/dj/python/lib/258474858 -->
<g id="edge15" class="edge">
<title>http://purl.org/dj/kaggle/ieee&#45;internal&#45;blend#447153131&#45;&gt;http://purl.org/dj/python/lib/258474858</title>
<path fill="none" stroke="black" d="M2875.62,-196.23C2864.19,-191.19 2852.59,-184.84 2843,-177 2828.06,-164.8 2815.75,-146.9 2807.21,-132.13"/>
<polygon fill="black" stroke="black" points="2810.05,-130.03 2802.15,-122.97 2803.92,-133.41 2810.05,-130.03"/>
<text text-anchor="middle" x="2888" y="-155.3" font-family="Times,serif" font-size="14.00">assignedFrom ()</text>
</g>
<!-- http://purl.org/dj/python/lib/258474858&#45;&gt;http://purl.org/dj/kaggle/ieee&#45;internal&#45;blend -->
<g id="edge16" class="edge">
<title>http://purl.org/dj/python/lib/258474858&#45;&gt;http://purl.org/dj/kaggle/ieee&#45;internal&#45;blend</title>
<path fill="none" stroke="black" d="M2738.82,-89.05C2701.61,-79.01 2651.39,-65.56 2607,-54 2585.94,-48.51 2563.04,-42.66 2542.06,-37.34"/>
<polygon fill="black" stroke="black" points="2542.8,-33.92 2532.25,-34.86 2541.08,-40.71 2542.8,-33.92"/>
<text text-anchor="middle" x="2703.5" y="-57.8" font-family="Times,serif" font-size="14.00">importedBy ()</text>
</g>
<!-- http://purl.org/dj/kaggle/ieee&#45;internal&#45;blend#301138612 -->
<g id="node13" class="node">
<title>http://purl.org/dj/kaggle/ieee&#45;internal&#45;blend#301138612</title>
<ellipse fill="none" stroke="black" cx="1065" cy="-669" rx="124.58" ry="18"/>
<text text-anchor="middle" x="1065" y="-665.3" font-family="Times,serif" font-size="14.00">301138612 (sub_1(0)$4: Reuse)</text>
</g>
<!-- http://purl.org/dj/kaggle/ieee&#45;internal&#45;blend#1048512072 -->
<g id="node14" class="node">
<title>http://purl.org/dj/kaggle/ieee&#45;internal&#45;blend#1048512072</title>
<ellipse fill="none" stroke="black" cx="906" cy="-528" rx="153.27" ry="18"/>
<text text-anchor="middle" x="906" y="-524.3" font-family="Times,serif" font-size="14.00">1048512072 (submission.csv(0): Reuse)</text>
</g>
<!-- http://purl.org/dj/kaggle/ieee&#45;internal&#45;blend#301138612&#45;&gt;http://purl.org/dj/kaggle/ieee&#45;internal&#45;blend#1048512072 -->
<g id="edge17" class="edge">
<title>http://purl.org/dj/kaggle/ieee&#45;internal&#45;blend#301138612&#45;&gt;http://purl.org/dj/kaggle/ieee&#45;internal&#45;blend#1048512072</title>
<path fill="none" stroke="black" d="M1045.5,-650.96C1017.37,-626.36 965.27,-580.82 933.32,-552.88"/>
<polygon fill="black" stroke="black" points="935.49,-550.13 925.66,-546.18 930.88,-555.4 935.49,-550.13"/>
<text text-anchor="middle" x="1049.5" y="-621.8" font-family="Times,serif" font-size="14.00">to_csv ()</text>
</g>
<!-- http://purl.org/dj/kaggle/ieee&#45;internal&#45;blend#301073075 -->
<g id="node15" class="node">
<title>http://purl.org/dj/kaggle/ieee&#45;internal&#45;blend#301073075</title>
<ellipse fill="none" stroke="black" cx="1263" cy="-582" rx="143.77" ry="18"/>
<text text-anchor="middle" x="1263" y="-578.3" font-family="Times,serif" font-size="14.00">301073075 (sub_1(0)$3: Preparation)</text>
</g>
<!-- http://purl.org/dj/kaggle/ieee&#45;internal&#45;blend#301138612&#45;&gt;http://purl.org/dj/kaggle/ieee&#45;internal&#45;blend#301073075 -->
<g id="edge18" class="edge">
<title>http://purl.org/dj/kaggle/ieee&#45;internal&#45;blend#301138612&#45;&gt;http://purl.org/dj/kaggle/ieee&#45;internal&#45;blend#301073075</title>
<path fill="none" stroke="black" d="M1102.71,-651.81C1134.71,-638.08 1180.79,-618.29 1215.34,-603.46"/>
<polygon fill="black" stroke="black" points="1216.95,-606.58 1224.76,-599.42 1214.19,-600.15 1216.95,-606.58"/>
<text text-anchor="middle" x="1200.5" y="-621.8" font-family="Times,serif" font-size="14.00">to_csv ()</text>
</g>
<!-- http://purl.org/dj/kaggle/ieee&#45;internal&#45;blend#1048512072&#45;&gt;http://purl.org/dj/kaggle/ieee&#45;internal&#45;blend -->
<g id="edge19" class="edge">
<title>http://purl.org/dj/kaggle/ieee&#45;internal&#45;blend#1048512072&#45;&gt;http://purl.org/dj/kaggle/ieee&#45;internal&#45;blend</title>
<path fill="none" stroke="black" d="M753.33,-526.17C495.13,-522.71 0,-506.33 0,-431.5 0,-431.5 0,-431.5 0,-104 0,-46.82 1714.29,-25.91 2285.96,-20.53"/>
<polygon fill="black" stroke="black" points="2286.4,-24.03 2296.37,-20.43 2286.33,-17.03 2286.4,-24.03"/>
<text text-anchor="middle" x="33" y="-296.3" font-family="Times,serif" font-size="14.00">appearsIn ()</text>
</g>
<!-- http://purl.org/dj/kaggle/ieee&#45;internal&#45;blend#301073075&#45;&gt;http://purl.org/dj/kaggle/ieee&#45;internal&#45;blend#302056115 -->
<g id="edge20" class="edge">
<title>http://purl.org/dj/kaggle/ieee&#45;internal&#45;blend#301073075&#45;&gt;http://purl.org/dj/kaggle/ieee&#45;internal&#45;blend#302056115</title>
<path fill="none" stroke="black" d="M1244.38,-563.91C1192.15,-515.95 1044.13,-380.07 983.94,-324.81"/>
<polygon fill="black" stroke="black" points="986.11,-322.05 976.38,-317.87 981.38,-327.21 986.11,-322.05"/>
<text text-anchor="middle" x="1125.5" y="-426.8" font-family="Times,serif" font-size="14.00">Add ()</text>
</g>
<!-- http://purl.org/dj/kaggle/ieee&#45;internal&#45;blend#301007538 -->
<g id="node16" class="node">
<title>http://purl.org/dj/kaggle/ieee&#45;internal&#45;blend#301007538</title>
<ellipse fill="none" stroke="black" cx="1503" cy="-474" rx="143.77" ry="18"/>
<text text-anchor="middle" x="1503" y="-470.3" font-family="Times,serif" font-size="14.00">301007538 (sub_1(0)$2: Preparation)</text>
</g>
<!-- http://purl.org/dj/kaggle/ieee&#45;internal&#45;blend#301073075&#45;&gt;http://purl.org/dj/kaggle/ieee&#45;internal&#45;blend#301007538 -->
<g id="edge21" class="edge">
<title>http://purl.org/dj/kaggle/ieee&#45;internal&#45;blend#301073075&#45;&gt;http://purl.org/dj/kaggle/ieee&#45;internal&#45;blend#301007538</title>
<path fill="none" stroke="black" d="M1300.24,-564.55C1342.28,-545.99 1410.74,-515.75 1456.31,-495.62"/>
<polygon fill="black" stroke="black" points="1457.94,-498.73 1465.68,-491.48 1455.11,-492.32 1457.94,-498.73"/>
<text text-anchor="middle" x="1437.5" y="-524.3" font-family="Times,serif" font-size="14.00">Add ()</text>
</g>
<!-- http://purl.org/dj/kaggle/ieee&#45;internal&#45;blend#345834320 -->
<g id="node17" class="node">
<title>http://purl.org/dj/kaggle/ieee&#45;internal&#45;blend#345834320</title>
<ellipse fill="none" stroke="black" cx="2149" cy="-300" rx="121.58" ry="18"/>
<text text-anchor="middle" x="2149" y="-296.3" font-family="Times,serif" font-size="14.00">345834320 (isFraud(0): Reuse)</text>
</g>
<!-- http://purl.org/dj/kaggle/ieee&#45;internal&#45;blend#301073075&#45;&gt;http://purl.org/dj/kaggle/ieee&#45;internal&#45;blend#345834320 -->
<g id="edge22" class="edge">
<title>http://purl.org/dj/kaggle/ieee&#45;internal&#45;blend#301073075&#45;&gt;http://purl.org/dj/kaggle/ieee&#45;internal&#45;blend#345834320</title>
<path fill="none" stroke="black" d="M1352.75,-567.88C1489.99,-545.82 1758.46,-494.64 1971,-405 2024.66,-382.37 2082.01,-346.49 2116.69,-323.35"/>
<polygon fill="black" stroke="black" points="2118.66,-326.24 2125,-317.76 2114.75,-320.44 2118.66,-326.24"/>
<text text-anchor="middle" x="1940.5" y="-426.8" font-family="Times,serif" font-size="14.00">Add ()</text>
</g>
<!-- http://purl.org/dj/kaggle/ieee&#45;internal&#45;blend#301007538&#45;&gt;http://purl.org/dj/kaggle/ieee&#45;internal&#45;blend#301662898 -->
<g id="edge24" class="edge">
<title>http://purl.org/dj/kaggle/ieee&#45;internal&#45;blend#301007538&#45;&gt;http://purl.org/dj/kaggle/ieee&#45;internal&#45;blend#301662898</title>
<path fill="none" stroke="black" d="M1479.36,-456.19C1435.71,-425.17 1342.46,-358.9 1293.13,-323.84"/>
<polygon fill="black" stroke="black" points="1294.92,-320.81 1284.74,-317.87 1290.86,-326.52 1294.92,-320.81"/>
<text text-anchor="middle" x="1425.5" y="-383.3" font-family="Times,serif" font-size="14.00">Add ()</text>
</g>
<!-- http://purl.org/dj/kaggle/ieee&#45;internal&#45;blend#301007538&#45;&gt;http://purl.org/dj/kaggle/ieee&#45;internal&#45;blend#345834320 -->
<g id="edge25" class="edge">
<title>http://purl.org/dj/kaggle/ieee&#45;internal&#45;blend#301007538&#45;&gt;http://purl.org/dj/kaggle/ieee&#45;internal&#45;blend#345834320</title>
<path fill="none" stroke="black" d="M1573.47,-458.29C1634.05,-445.32 1723.64,-425.36 1801,-405 1903.73,-377.96 2021.96,-341.47 2090.79,-319.68"/>
<polygon fill="black" stroke="black" points="2092.11,-322.93 2100.59,-316.57 2090,-316.26 2092.11,-322.93"/>
<text text-anchor="middle" x="1948.5" y="-383.3" font-family="Times,serif" font-size="14.00">Add ()</text>
</g>
<!-- http://purl.org/dj/kaggle/ieee&#45;internal&#45;blend#300942001 -->
<g id="node19" class="node">
<title>http://purl.org/dj/kaggle/ieee&#45;internal&#45;blend#300942001</title>
<ellipse fill="none" stroke="black" cx="1648" cy="-387" rx="143.77" ry="18"/>
<text text-anchor="middle" x="1648" y="-383.3" font-family="Times,serif" font-size="14.00">300942001 (sub_1(0)$1: Preparation)</text>
</g>
<!-- http://purl.org/dj/kaggle/ieee&#45;internal&#45;blend#301007538&#45;&gt;http://purl.org/dj/kaggle/ieee&#45;internal&#45;blend#300942001 -->
<g id="edge26" class="edge">
<title>http://purl.org/dj/kaggle/ieee&#45;internal&#45;blend#301007538&#45;&gt;http://purl.org/dj/kaggle/ieee&#45;internal&#45;blend#300942001</title>
<path fill="none" stroke="black" d="M1531.65,-456.21C1554.29,-442.93 1586.07,-424.31 1610.69,-409.87"/>
<polygon fill="black" stroke="black" points="1612.56,-412.84 1619.41,-404.76 1609.02,-406.8 1612.56,-412.84"/>
<text text-anchor="middle" x="1603.5" y="-426.8" font-family="Times,serif" font-size="14.00">Add ()</text>
</g>
<!-- http://purl.org/dj/kaggle/ieee&#45;internal&#45;blend#345834320&#45;&gt;http://purl.org/dj/kaggle/ieee&#45;internal&#45;blend -->
<g id="edge27" class="edge">
<title>http://purl.org/dj/kaggle/ieee&#45;internal&#45;blend#345834320&#45;&gt;http://purl.org/dj/kaggle/ieee&#45;internal&#45;blend</title>
<path fill="none" stroke="black" d="M2211.82,-284.58C2266.18,-268.41 2341.47,-236.31 2377,-177 2397.59,-142.63 2353.51,-122.54 2372,-87 2382.41,-67 2401.69,-51.65 2420.34,-40.65"/>
<polygon fill="black" stroke="black" points="2422.09,-43.68 2429.11,-35.75 2418.68,-37.57 2422.09,-43.68"/>
<text text-anchor="middle" x="2416" y="-155.3" font-family="Times,serif" font-size="14.00">appearsIn ()</text>
</g>
<!-- http://purl.org/dj/kaggle/ieee&#45;internal&#45;blend#291308294 -->
<g id="node18" class="node">
<title>http://purl.org/dj/kaggle/ieee&#45;internal&#45;blend#291308294</title>
<ellipse fill="none" stroke="black" cx="3080" cy="-159" rx="117.78" ry="18"/>
<text text-anchor="middle" x="3080" y="-155.3" font-family="Times,serif" font-size="14.00">291308294 (ignore(0): Reuse)</text>
</g>
<!-- http://purl.org/dj/kaggle/ieee&#45;internal&#45;blend#291308294&#45;&gt;http://purl.org/dj/kaggle/ieee&#45;internal&#45;blend -->
<g id="edge23" class="edge">
<title>http://purl.org/dj/kaggle/ieee&#45;internal&#45;blend#291308294&#45;&gt;http://purl.org/dj/kaggle/ieee&#45;internal&#45;blend</title>
<path fill="none" stroke="black" d="M3067.87,-140.67C3048.71,-115.15 3008.68,-68.84 2961,-54 2904.1,-36.29 2763.62,-27.49 2647.27,-23.15"/>
<polygon fill="black" stroke="black" points="2647.29,-19.65 2637.17,-22.78 2647.03,-26.64 2647.29,-19.65"/>
<text text-anchor="middle" x="3086" y="-101.3" font-family="Times,serif" font-size="14.00">appearsIn ()</text>
</g>
<!-- http://purl.org/dj/kaggle/ieee&#45;internal&#45;blend#300942001&#45;&gt;http://purl.org/dj/kaggle/ieee&#45;internal&#45;blend#345834320 -->
<g id="edge37" class="edge">
<title>http://purl.org/dj/kaggle/ieee&#45;internal&#45;blend#300942001&#45;&gt;http://purl.org/dj/kaggle/ieee&#45;internal&#45;blend#345834320</title>
<path fill="none" stroke="black" d="M1715.39,-371.09C1764.7,-360.47 1833.31,-346.32 1894,-336 1923.57,-330.97 1992.24,-321.59 2050.88,-313.81"/>
<polygon fill="black" stroke="black" points="2051.49,-317.26 2060.94,-312.48 2050.57,-310.32 2051.49,-317.26"/>
<text text-anchor="middle" x="1912.5" y="-339.8" font-family="Times,serif" font-size="14.00">Add ()</text>
</g>
<!-- http://purl.org/dj/kaggle/ieee&#45;internal&#45;blend#300876464 -->
<g id="node22" class="node">
<title>http://purl.org/dj/kaggle/ieee&#45;internal&#45;blend#300876464</title>
<ellipse fill="none" stroke="black" cx="1867" cy="-300" rx="142.17" ry="18"/>
<text text-anchor="middle" x="1867" y="-296.3" font-family="Times,serif" font-size="14.00">300876464 (sub_1(0)$0: Movement)</text>
</g>
<!-- http://purl.org/dj/kaggle/ieee&#45;internal&#45;blend#300942001&#45;&gt;http://purl.org/dj/kaggle/ieee&#45;internal&#45;blend#300876464 -->
<g id="edge38" class="edge">
<title>http://purl.org/dj/kaggle/ieee&#45;internal&#45;blend#300942001&#45;&gt;http://purl.org/dj/kaggle/ieee&#45;internal&#45;blend#300876464</title>
<path fill="none" stroke="black" d="M1689.97,-369.71C1725.8,-355.8 1777.48,-335.75 1815.75,-320.89"/>
<polygon fill="black" stroke="black" points="1817.12,-324.11 1825.18,-317.23 1814.59,-317.59 1817.12,-324.11"/>
<text text-anchor="middle" x="1789.5" y="-339.8" font-family="Times,serif" font-size="14.00">Add ()</text>
</g>
<!-- http://purl.org/dj/kaggle/ieee&#45;internal&#45;blend#301269681 -->
<g id="node24" class="node">
<title>http://purl.org/dj/kaggle/ieee&#45;internal&#45;blend#301269681</title>
<ellipse fill="none" stroke="black" cx="1564" cy="-300" rx="142.17" ry="18"/>
<text text-anchor="middle" x="1564" y="-296.3" font-family="Times,serif" font-size="14.00">301269681 (sub_2(0)$0: Movement)</text>
</g>
<!-- http://purl.org/dj/kaggle/ieee&#45;internal&#45;blend#300942001&#45;&gt;http://purl.org/dj/kaggle/ieee&#45;internal&#45;blend#301269681 -->
<g id="edge39" class="edge">
<title>http://purl.org/dj/kaggle/ieee&#45;internal&#45;blend#300942001&#45;&gt;http://purl.org/dj/kaggle/ieee&#45;internal&#45;blend#301269681</title>
<path fill="none" stroke="black" d="M1631,-368.8C1618.62,-356.27 1601.69,-339.14 1587.95,-325.23"/>
<polygon fill="black" stroke="black" points="1590.21,-322.54 1580.69,-317.89 1585.23,-327.46 1590.21,-322.54"/>
<text text-anchor="middle" x="1630.5" y="-339.8" font-family="Times,serif" font-size="14.00">Add ()</text>
</g>
<!-- http://purl.org/dj/python/lib/46203232 -->
<g id="node20" class="node">
<title>http://purl.org/dj/python/lib/46203232</title>
<ellipse fill="none" stroke="black" cx="3225" cy="-105" rx="91.78" ry="18"/>
<text text-anchor="middle" x="3225" y="-101.3" font-family="Times,serif" font-size="14.00">46203232 (sys: Reuse)</text>
</g>
<!-- http://purl.org/dj/python/lib/46203232&#45;&gt;http://purl.org/dj/kaggle/ieee&#45;internal&#45;blend -->
<g id="edge28" class="edge">
<title>http://purl.org/dj/python/lib/46203232&#45;&gt;http://purl.org/dj/kaggle/ieee&#45;internal&#45;blend</title>
<path fill="none" stroke="black" d="M3185.06,-88.72C3152.67,-77.05 3105.58,-61.71 3063,-54 2985.38,-39.95 2789,-30.21 2643.16,-24.63"/>
<polygon fill="black" stroke="black" points="2642.87,-21.12 2632.75,-24.24 2642.61,-28.11 2642.87,-21.12"/>
<text text-anchor="middle" x="3161.5" y="-57.8" font-family="Times,serif" font-size="14.00">importedBy ()</text>
</g>
<!-- http://purl.org/dj/python/lib/20119755 -->
<g id="node21" class="node">
<title>http://purl.org/dj/python/lib/20119755</title>
<ellipse fill="none" stroke="black" cx="3526" cy="-105" rx="89.08" ry="18"/>
<text text-anchor="middle" x="3526" y="-101.3" font-family="Times,serif" font-size="14.00">20119755 (gc: Reuse)</text>
</g>
<!-- http://purl.org/dj/python/lib/20119755&#45;&gt;http://purl.org/dj/kaggle/ieee&#45;internal&#45;blend -->
<g id="edge29" class="edge">
<title>http://purl.org/dj/python/lib/20119755&#45;&gt;http://purl.org/dj/kaggle/ieee&#45;internal&#45;blend</title>
<path fill="none" stroke="black" d="M3487.51,-88.72C3455.75,-76.89 3409.2,-61.32 3367,-54 3234.62,-31.03 2873.92,-23.12 2652.02,-20.41"/>
<polygon fill="black" stroke="black" points="2651.93,-16.91 2641.89,-20.29 2651.85,-23.91 2651.93,-16.91"/>
<text text-anchor="middle" x="3463.5" y="-57.8" font-family="Times,serif" font-size="14.00">importedBy ()</text>
</g>
<!-- http://purl.org/dj/kaggle/ieee&#45;internal&#45;blend#300876464&#45;&gt;http://purl.org/dj/kaggle/ieee&#45;internal&#45;blend#80085334 -->
<g id="edge30" class="edge">
<title>http://purl.org/dj/kaggle/ieee&#45;internal&#45;blend#300876464&#45;&gt;http://purl.org/dj/kaggle/ieee&#45;internal&#45;blend#80085334</title>
<path fill="none" stroke="black" d="M1842.3,-282.21C1822.92,-269.02 1795.76,-250.56 1774.59,-236.16"/>
<polygon fill="black" stroke="black" points="1776.46,-233.2 1766.22,-230.47 1772.52,-238.99 1776.46,-233.2"/>
<text text-anchor="middle" x="1842.5" y="-252.8" font-family="Times,serif" font-size="14.00">read_csv ()</text>
</g>
<!-- http://purl.org/dj/kaggle/ieee&#45;internal&#45;blend#300876464&#45;&gt;http://purl.org/dj/kaggle/ieee&#45;internal&#45;blend#1412829055 -->
<g id="edge31" class="edge">
<title>http://purl.org/dj/kaggle/ieee&#45;internal&#45;blend#300876464&#45;&gt;http://purl.org/dj/kaggle/ieee&#45;internal&#45;blend#1412829055</title>
<path fill="none" stroke="black" d="M1898.46,-282.37C1946.05,-257.22 2036.36,-209.49 2089.03,-181.65"/>
<polygon fill="black" stroke="black" points="2090.89,-184.63 2098.09,-176.86 2087.61,-178.44 2090.89,-184.63"/>
<text text-anchor="middle" x="1990.5" y="-252.8" font-family="Times,serif" font-size="14.00">read_csv ()</text>
</g>
<!-- http://purl.org/dj/kaggle/ieee&#45;internal&#45;blend#132252129 -->
<g id="node23" class="node">
<title>http://purl.org/dj/kaggle/ieee&#45;internal&#45;blend#132252129</title>
<ellipse fill="none" stroke="black" cx="3319" cy="-213" rx="106.68" ry="18"/>
<text text-anchor="middle" x="3319" y="-209.3" font-family="Times,serif" font-size="14.00">132252129 (sys(0): Reuse)</text>
</g>
<!-- http://purl.org/dj/kaggle/ieee&#45;internal&#45;blend#132252129&#45;&gt;http://purl.org/dj/kaggle/ieee&#45;internal&#45;blend -->
<g id="edge32" class="edge">
<title>http://purl.org/dj/kaggle/ieee&#45;internal&#45;blend#132252129&#45;&gt;http://purl.org/dj/kaggle/ieee&#45;internal&#45;blend</title>
<path fill="none" stroke="black" d="M3331.07,-194.97C3334.3,-189.49 3337.35,-183.22 3339,-177 3349.37,-137.94 3354.15,-116 3326,-87 3287.18,-47 3260.06,-62.71 3205,-54 3101.76,-37.67 2830.44,-27.93 2647.67,-23.01"/>
<polygon fill="black" stroke="black" points="2647.5,-19.51 2637.41,-22.74 2647.31,-26.51 2647.5,-19.51"/>
<text text-anchor="middle" x="3379" y="-101.3" font-family="Times,serif" font-size="14.00">appearsIn ()</text>
</g>
<!-- http://purl.org/dj/kaggle/ieee&#45;internal&#45;blend#132252129&#45;&gt;http://purl.org/dj/python/lib/46203232 -->
<g id="edge33" class="edge">
<title>http://purl.org/dj/kaggle/ieee&#45;internal&#45;blend#132252129&#45;&gt;http://purl.org/dj/python/lib/46203232</title>
<path fill="none" stroke="black" d="M3274.99,-196.55C3265.41,-191.53 3256.05,-185.09 3249,-177 3238.27,-164.68 3232.29,-147.37 3228.99,-132.93"/>
<polygon fill="black" stroke="black" points="3232.4,-132.16 3227.02,-123.03 3225.54,-133.52 3232.4,-132.16"/>
<text text-anchor="middle" x="3294" y="-155.3" font-family="Times,serif" font-size="14.00">assignedFrom ()</text>
</g>
<!-- http://purl.org/dj/kaggle/ieee&#45;internal&#45;blend#301269681&#45;&gt;http://purl.org/dj/kaggle/ieee&#45;internal&#45;blend#80085334 -->
<g id="edge34" class="edge">
<title>http://purl.org/dj/kaggle/ieee&#45;internal&#45;blend#301269681&#45;&gt;http://purl.org/dj/kaggle/ieee&#45;internal&#45;blend#80085334</title>
<path fill="none" stroke="black" d="M1598.74,-282.41C1627.53,-268.66 1668.57,-249.06 1699.35,-234.37"/>
<polygon fill="black" stroke="black" points="1701.03,-237.44 1708.55,-229.97 1698.02,-231.12 1701.03,-237.44"/>
<text text-anchor="middle" x="1694.5" y="-252.8" font-family="Times,serif" font-size="14.00">read_csv ()</text>
</g>
<!-- http://purl.org/dj/kaggle/ieee&#45;internal&#45;blend#1165496120 -->
<g id="node25" class="node">
<title>http://purl.org/dj/kaggle/ieee&#45;internal&#45;blend#1165496120</title>
<ellipse fill="none" stroke="black" cx="1503" cy="-159" rx="237.76" ry="18"/>
<text text-anchor="middle" x="1503" y="-155.3" font-family="Times,serif" font-size="14.00">1165496120 (../input/ieee&#45;cv&#45;options/submission.csv(0): Reuse)</text>
</g>
<!-- http://purl.org/dj/kaggle/ieee&#45;internal&#45;blend#301269681&#45;&gt;http://purl.org/dj/kaggle/ieee&#45;internal&#45;blend#1165496120 -->
<g id="edge35" class="edge">
<title>http://purl.org/dj/kaggle/ieee&#45;internal&#45;blend#301269681&#45;&gt;http://purl.org/dj/kaggle/ieee&#45;internal&#45;blend#1165496120</title>
<path fill="none" stroke="black" d="M1556.52,-281.96C1546.05,-258.09 1526.92,-214.5 1514.59,-186.41"/>
<polygon fill="black" stroke="black" points="1517.76,-184.93 1510.54,-177.18 1511.35,-187.75 1517.76,-184.93"/>
<text text-anchor="middle" x="1579.5" y="-252.8" font-family="Times,serif" font-size="14.00">read_csv ()</text>
</g>
<!-- http://purl.org/dj/kaggle/ieee&#45;internal&#45;blend#1165496120&#45;&gt;http://purl.org/dj/kaggle/ieee&#45;internal&#45;blend -->
<g id="edge36" class="edge">
<title>http://purl.org/dj/kaggle/ieee&#45;internal&#45;blend#1165496120&#45;&gt;http://purl.org/dj/kaggle/ieee&#45;internal&#45;blend</title>
<path fill="none" stroke="black" d="M1532.35,-141.04C1576.27,-116.65 1662.46,-72.56 1742,-54 1841.41,-30.8 2104.92,-22.94 2285.8,-20.3"/>
<polygon fill="black" stroke="black" points="2286.02,-23.8 2295.97,-20.16 2285.92,-16.8 2286.02,-23.8"/>
<text text-anchor="middle" x="1674" y="-101.3" font-family="Times,serif" font-size="14.00">appearsIn ()</text>
</g>
<!-- http://purl.org/dj/kaggle/ieee&#45;internal&#45;blend#586482751 -->
<g id="node26" class="node">
<title>http://purl.org/dj/kaggle/ieee&#45;internal&#45;blend#586482751</title>
<ellipse fill="none" stroke="black" cx="3014" cy="-300" rx="135.68" ry="18"/>
<text text-anchor="middle" x="3014" y="-296.3" font-family="Times,serif" font-size="14.00">586482751 (warnings(0)$0: Reuse)</text>
</g>
<!-- http://purl.org/dj/kaggle/ieee&#45;internal&#45;blend#586482751&#45;&gt;http://purl.org/dj/kaggle/ieee&#45;internal&#45;blend#447153131 -->
<g id="edge40" class="edge">
<title>http://purl.org/dj/kaggle/ieee&#45;internal&#45;blend#586482751&#45;&gt;http://purl.org/dj/kaggle/ieee&#45;internal&#45;blend#447153131</title>
<path fill="none" stroke="black" d="M2991.47,-282.24C2984.39,-276.68 2976.68,-270.29 2970,-264 2961.75,-256.24 2953.29,-247.18 2945.97,-238.92"/>
<polygon fill="black" stroke="black" points="2948.55,-236.55 2939.33,-231.32 2943.27,-241.15 2948.55,-236.55"/>
<text text-anchor="middle" x="3014" y="-252.8" font-family="Times,serif" font-size="14.00">filterwarnings ()</text>
</g>
<!-- http://purl.org/dj/kaggle/ieee&#45;internal&#45;blend#586482751&#45;&gt;http://purl.org/dj/kaggle/ieee&#45;internal&#45;blend#291308294 -->
<g id="edge41" class="edge">
<title>http://purl.org/dj/kaggle/ieee&#45;internal&#45;blend#586482751&#45;&gt;http://purl.org/dj/kaggle/ieee&#45;internal&#45;blend#291308294</title>
<path fill="none" stroke="black" d="M3041.06,-282.28C3047.47,-277.14 3053.69,-270.97 3058,-264 3072.43,-240.66 3077.52,-209.35 3079.25,-187.21"/>
<polygon fill="black" stroke="black" points="3082.75,-187.34 3079.86,-177.14 3075.76,-186.91 3082.75,-187.34"/>
<text text-anchor="middle" x="3110" y="-252.8" font-family="Times,serif" font-size="14.00">filterwarnings ()</text>
</g>
<!-- http://purl.org/dj/kaggle/ieee&#45;internal&#45;blend#76874060 -->
<g id="node27" class="node">
<title>http://purl.org/dj/kaggle/ieee&#45;internal&#45;blend#76874060</title>
<ellipse fill="none" stroke="black" cx="3569" cy="-213" rx="98.58" ry="18"/>
<text text-anchor="middle" x="3569" y="-209.3" font-family="Times,serif" font-size="14.00">76874060 (gc(0): Reuse)</text>
</g>
<!-- http://purl.org/dj/kaggle/ieee&#45;internal&#45;blend#76874060&#45;&gt;http://purl.org/dj/kaggle/ieee&#45;internal&#45;blend -->
<g id="edge42" class="edge">
<title>http://purl.org/dj/kaggle/ieee&#45;internal&#45;blend#76874060&#45;&gt;http://purl.org/dj/kaggle/ieee&#45;internal&#45;blend</title>
<path fill="none" stroke="black" d="M3615.13,-197C3623.83,-192.03 3631.81,-185.5 3637,-177 3658.05,-142.5 3652.02,-116.12 3624,-87 3586.54,-48.06 3560.39,-62.3 3507,-54 3347.88,-29.25 2905.5,-22 2652.59,-19.88"/>
<polygon fill="black" stroke="black" points="2652.58,-16.38 2642.56,-19.79 2652.53,-23.38 2652.58,-16.38"/>
<text text-anchor="middle" x="3680" y="-101.3" font-family="Times,serif" font-size="14.00">appearsIn ()</text>
</g>
<!-- http://purl.org/dj/kaggle/ieee&#45;internal&#45;blend#76874060&#45;&gt;http://purl.org/dj/python/lib/20119755 -->
<g id="edge43" class="edge">
<title>http://purl.org/dj/kaggle/ieee&#45;internal&#45;blend#76874060&#45;&gt;http://purl.org/dj/python/lib/20119755</title>
<path fill="none" stroke="black" d="M3557.06,-195.08C3553.48,-189.5 3549.78,-183.15 3547,-177 3540.69,-163.04 3535.71,-146.7 3532.18,-133.21"/>
<polygon fill="black" stroke="black" points="3535.48,-131.97 3529.67,-123.11 3528.69,-133.66 3535.48,-131.97"/>
<text text-anchor="middle" x="3592" y="-155.3" font-family="Times,serif" font-size="14.00">assignedFrom ()</text>
</g>
</g>
</svg>
