<?xml version="1.0" encoding="UTF-8" standalone="no"?>
<!DOCTYPE svg PUBLIC "-//W3C//DTD SVG 1.1//EN"
 "http://www.w3.org/Graphics/SVG/1.1/DTD/svg11.dtd">
<!-- Generated by graphviz version 2.44.1 (20200629.0846)
 -->
<!-- Pages: 1 -->
<svg width="5165pt" height="392pt"
 viewBox="0.00 0.00 5165.27 392.00" xmlns="http://www.w3.org/2000/svg" xmlns:xlink="http://www.w3.org/1999/xlink">
<g id="graph0" class="graph" transform="scale(1 1) rotate(0) translate(4 388)">
<polygon fill="white" stroke="transparent" points="-4,4 -4,-388 5161.27,-388 5161.27,4 -4,4"/>
<!-- http://purl.org/dj/kaggle/ieee&#45;internal&#45;blend#301269681 -->
<g id="node1" class="node">
<title>http://purl.org/dj/kaggle/ieee&#45;internal&#45;blend#301269681</title>
<ellipse fill="none" stroke="black" cx="810.88" cy="-192" rx="142.17" ry="18"/>
<text text-anchor="middle" x="810.88" y="-188.3" font-family="Times,serif" font-size="14.00">301269681 (sub_2(0)$0: Movement)</text>
</g>
<!-- http://purl.org/dj/python/lib/144966264 -->
<g id="node2" class="node">
<title>http://purl.org/dj/python/lib/144966264</title>
<ellipse fill="none" stroke="black" cx="1113.88" cy="-105" rx="109.38" ry="18"/>
<text text-anchor="middle" x="1113.88" y="-101.3" font-family="Times,serif" font-size="14.00">144966264 (pandas: Reuse)</text>
</g>
<!-- http://purl.org/dj/kaggle/ieee&#45;internal&#45;blend#301269681&#45;&gt;http://purl.org/dj/python/lib/144966264 -->
<g id="edge1" class="edge">
<title>http://purl.org/dj/kaggle/ieee&#45;internal&#45;blend#301269681&#45;&gt;http://purl.org/dj/python/lib/144966264</title>
<path fill="none" stroke="black" d="M852.38,-174.7C880.23,-164.16 917.9,-150.65 951.88,-141 978.51,-133.44 1008,-126.61 1034.45,-121.04"/>
<polygon fill="black" stroke="black" points="1035.34,-124.43 1044.42,-118.97 1033.92,-117.58 1035.34,-124.43"/>
<text text-anchor="middle" x="975.38" y="-144.8" font-family="Times,serif" font-size="14.00">previous</text>
</g>
<!-- http://purl.org/dj/kaggle/ieee&#45;internal&#45;blend#80085334 -->
<g id="node3" class="node">
<title>http://purl.org/dj/kaggle/ieee&#45;internal&#45;blend#80085334</title>
<ellipse fill="none" stroke="black" cx="1340.88" cy="-105" rx="99.38" ry="18"/>
<text text-anchor="middle" x="1340.88" y="-101.3" font-family="Times,serif" font-size="14.00">80085334 (pd(0): Reuse)</text>
</g>
<!-- http://purl.org/dj/kaggle/ieee&#45;internal&#45;blend#301269681&#45;&gt;http://purl.org/dj/kaggle/ieee&#45;internal&#45;blend#80085334 -->
<g id="edge2" class="edge">
<title>http://purl.org/dj/kaggle/ieee&#45;internal&#45;blend#301269681&#45;&gt;http://purl.org/dj/kaggle/ieee&#45;internal&#45;blend#80085334</title>
<path fill="none" stroke="black" d="M890.62,-176.99C924.13,-170.89 963.46,-163.44 998.88,-156 1027.47,-149.99 1034.08,-145.89 1062.88,-141 1137.35,-128.36 1156.98,-132.82 1231.88,-123 1240.87,-121.82 1250.27,-120.5 1259.62,-119.12"/>
<polygon fill="black" stroke="black" points="1260.34,-122.55 1269.71,-117.61 1259.3,-115.63 1260.34,-122.55"/>
<text text-anchor="middle" x="1086.38" y="-144.8" font-family="Times,serif" font-size="14.00">previous</text>
</g>
<!-- http://purl.org/dj/kaggle/ieee&#45;internal&#45;blend#1165496120 -->
<g id="node4" class="node">
<title>http://purl.org/dj/kaggle/ieee&#45;internal&#45;blend#1165496120</title>
<ellipse fill="none" stroke="black" cx="237.88" cy="-105" rx="237.76" ry="18"/>
<text text-anchor="middle" x="237.88" y="-101.3" font-family="Times,serif" font-size="14.00">1165496120 (../input/ieee&#45;cv&#45;options/submission.csv(0): Reuse)</text>
</g>
<!-- http://purl.org/dj/kaggle/ieee&#45;internal&#45;blend#301269681&#45;&gt;http://purl.org/dj/kaggle/ieee&#45;internal&#45;blend#1165496120 -->
<g id="edge3" class="edge">
<title>http://purl.org/dj/kaggle/ieee&#45;internal&#45;blend#301269681&#45;&gt;http://purl.org/dj/kaggle/ieee&#45;internal&#45;blend#1165496120</title>
<path fill="none" stroke="black" d="M722.29,-177.86C622.37,-163.04 459.65,-138.9 350.72,-122.74"/>
<polygon fill="black" stroke="black" points="351.08,-119.25 340.68,-121.25 350.05,-126.18 351.08,-119.25"/>
<text text-anchor="middle" x="582.38" y="-144.8" font-family="Times,serif" font-size="14.00">previous</text>
</g>
<!-- http://purl.org/dj/kaggle/ieee&#45;internal&#45;blend -->
<g id="node5" class="node">
<title>http://purl.org/dj/kaggle/ieee&#45;internal&#45;blend</title>
<ellipse fill="none" stroke="black" cx="3175.88" cy="-18" rx="77.19" ry="18"/>
<text text-anchor="middle" x="3175.88" y="-14.3" font-family="Times,serif" font-size="14.00">ieee&#45;internal&#45;blend</text>
</g>
<!-- http://purl.org/dj/python/lib/144966264&#45;&gt;http://purl.org/dj/kaggle/ieee&#45;internal&#45;blend -->
<g id="edge4" class="edge">
<title>http://purl.org/dj/python/lib/144966264&#45;&gt;http://purl.org/dj/kaggle/ieee&#45;internal&#45;blend</title>
<path fill="none" stroke="black" d="M1191.25,-92.27C1205.09,-90.36 1219.4,-88.52 1232.88,-87 1409.7,-67.08 1454.19,-63.35 1631.88,-54 2185.6,-24.85 2852.27,-19.96 3088.07,-19.15"/>
<polygon fill="black" stroke="black" points="3088.31,-22.65 3098.3,-19.12 3088.29,-15.65 3088.31,-22.65"/>
<text text-anchor="middle" x="1655.38" y="-57.8" font-family="Times,serif" font-size="14.00">previous</text>
</g>
<!-- http://purl.org/dj/kaggle/ieee&#45;internal&#45;blend#80085334&#45;&gt;http://purl.org/dj/kaggle/ieee&#45;internal&#45;blend -->
<g id="edge5" class="edge">
<title>http://purl.org/dj/kaggle/ieee&#45;internal&#45;blend#80085334&#45;&gt;http://purl.org/dj/kaggle/ieee&#45;internal&#45;blend</title>
<path fill="none" stroke="black" d="M1410.83,-92.17C1423.78,-90.24 1437.22,-88.41 1449.88,-87 1558.12,-74.93 1830.09,-59.21 1938.88,-54 2369.97,-33.36 2886.19,-23.56 3088.49,-20.3"/>
<polygon fill="black" stroke="black" points="3088.82,-23.79 3098.76,-20.13 3088.71,-16.8 3088.82,-23.79"/>
<text text-anchor="middle" x="1962.38" y="-57.8" font-family="Times,serif" font-size="14.00">previous</text>
</g>
<!-- http://purl.org/dj/kaggle/ieee&#45;internal&#45;blend#1165496120&#45;&gt;http://purl.org/dj/kaggle/ieee&#45;internal&#45;blend -->
<g id="edge6" class="edge">
<title>http://purl.org/dj/kaggle/ieee&#45;internal&#45;blend#1165496120&#45;&gt;http://purl.org/dj/kaggle/ieee&#45;internal&#45;blend</title>
<path fill="none" stroke="black" d="M402.72,-91.99C573.14,-80.11 846.97,-62.5 1083.88,-54 1860.65,-26.12 2800.48,-20.39 3088.08,-19.27"/>
<polygon fill="black" stroke="black" points="3088.45,-22.76 3098.44,-19.23 3088.43,-15.76 3088.45,-22.76"/>
<text text-anchor="middle" x="1107.38" y="-57.8" font-family="Times,serif" font-size="14.00">previous</text>
</g>
<!-- http://purl.org/dj/kaggle/ieee&#45;internal&#45;blend#345834320 -->
<g id="node6" class="node">
<title>http://purl.org/dj/kaggle/ieee&#45;internal&#45;blend#345834320</title>
<ellipse fill="none" stroke="black" cx="1698.88" cy="-192" rx="121.58" ry="18"/>
<text text-anchor="middle" x="1698.88" y="-188.3" font-family="Times,serif" font-size="14.00">345834320 (isFraud(0): Reuse)</text>
</g>
<!-- http://purl.org/dj/kaggle/ieee&#45;internal&#45;blend#345834320&#45;&gt;http://purl.org/dj/kaggle/ieee&#45;internal&#45;blend -->
<g id="edge7" class="edge">
<title>http://purl.org/dj/kaggle/ieee&#45;internal&#45;blend#345834320&#45;&gt;http://purl.org/dj/kaggle/ieee&#45;internal&#45;blend</title>
<path fill="none" stroke="black" d="M1783.78,-179.11C1905.93,-161.8 2118.41,-130.86 2133.88,-123 2154.05,-112.75 2149.29,-96.39 2169.88,-87 2360.42,-0.13 2430.95,-68.16 2639.88,-54 2799.7,-43.17 2986.38,-31.12 3091.91,-24.36"/>
<polygon fill="black" stroke="black" points="3092.42,-27.83 3102.18,-23.7 3091.97,-20.84 3092.42,-27.83"/>
<text text-anchor="middle" x="2193.38" y="-101.3" font-family="Times,serif" font-size="14.00">previous</text>
</g>
<!-- http://purl.org/dj/kaggle/ieee&#45;internal&#45;blend#300942001 -->
<g id="node7" class="node">
<title>http://purl.org/dj/kaggle/ieee&#45;internal&#45;blend#300942001</title>
<ellipse fill="none" stroke="black" cx="1113.88" cy="-279" rx="143.77" ry="18"/>
<text text-anchor="middle" x="1113.88" y="-275.3" font-family="Times,serif" font-size="14.00">300942001 (sub_1(0)$1: Preparation)</text>
</g>
<!-- http://purl.org/dj/kaggle/ieee&#45;internal&#45;blend#300942001&#45;&gt;http://purl.org/dj/kaggle/ieee&#45;internal&#45;blend#301269681 -->
<g id="edge8" class="edge">
<title>http://purl.org/dj/kaggle/ieee&#45;internal&#45;blend#300942001&#45;&gt;http://purl.org/dj/kaggle/ieee&#45;internal&#45;blend#301269681</title>
<path fill="none" stroke="black" d="M1057.95,-262.31C1006.6,-247.91 930.49,-226.55 876.33,-211.36"/>
<polygon fill="black" stroke="black" points="877.05,-207.93 866.48,-208.6 875.16,-214.67 877.05,-207.93"/>
<text text-anchor="middle" x="1004.38" y="-231.8" font-family="Times,serif" font-size="14.00">previous</text>
</g>
<!-- http://purl.org/dj/kaggle/ieee&#45;internal&#45;blend#300942001&#45;&gt;http://purl.org/dj/kaggle/ieee&#45;internal&#45;blend#345834320 -->
<g id="edge9" class="edge">
<title>http://purl.org/dj/kaggle/ieee&#45;internal&#45;blend#300942001&#45;&gt;http://purl.org/dj/kaggle/ieee&#45;internal&#45;blend#345834320</title>
<path fill="none" stroke="black" d="M1179.87,-262.97C1230.73,-251.87 1302.95,-237.15 1366.88,-228 1455.66,-215.29 1478.72,-219.77 1567.88,-210 1579.08,-208.77 1590.8,-207.39 1602.43,-205.96"/>
<polygon fill="black" stroke="black" points="1603.13,-209.4 1612.62,-204.69 1602.26,-202.45 1603.13,-209.4"/>
<text text-anchor="middle" x="1390.38" y="-231.8" font-family="Times,serif" font-size="14.00">previous</text>
</g>
<!-- http://purl.org/dj/kaggle/ieee&#45;internal&#45;blend#300876464 -->
<g id="node8" class="node">
<title>http://purl.org/dj/kaggle/ieee&#45;internal&#45;blend#300876464</title>
<ellipse fill="none" stroke="black" cx="1113.88" cy="-192" rx="142.17" ry="18"/>
<text text-anchor="middle" x="1113.88" y="-188.3" font-family="Times,serif" font-size="14.00">300876464 (sub_1(0)$0: Movement)</text>
</g>
<!-- http://purl.org/dj/kaggle/ieee&#45;internal&#45;blend#300942001&#45;&gt;http://purl.org/dj/kaggle/ieee&#45;internal&#45;blend#300876464 -->
<g id="edge10" class="edge">
<title>http://purl.org/dj/kaggle/ieee&#45;internal&#45;blend#300942001&#45;&gt;http://purl.org/dj/kaggle/ieee&#45;internal&#45;blend#300876464</title>
<path fill="none" stroke="black" d="M1113.88,-260.8C1113.88,-249.16 1113.88,-233.55 1113.88,-220.24"/>
<polygon fill="black" stroke="black" points="1117.38,-220.18 1113.88,-210.18 1110.38,-220.18 1117.38,-220.18"/>
<text text-anchor="middle" x="1137.38" y="-231.8" font-family="Times,serif" font-size="14.00">previous</text>
</g>
<!-- http://purl.org/dj/kaggle/ieee&#45;internal&#45;blend#300876464&#45;&gt;http://purl.org/dj/python/lib/144966264 -->
<g id="edge11" class="edge">
<title>http://purl.org/dj/kaggle/ieee&#45;internal&#45;blend#300876464&#45;&gt;http://purl.org/dj/python/lib/144966264</title>
<path fill="none" stroke="black" d="M1113.88,-173.8C1113.88,-162.16 1113.88,-146.55 1113.88,-133.24"/>
<polygon fill="black" stroke="black" points="1117.38,-133.18 1113.88,-123.18 1110.38,-133.18 1117.38,-133.18"/>
<text text-anchor="middle" x="1137.38" y="-144.8" font-family="Times,serif" font-size="14.00">previous</text>
</g>
<!-- http://purl.org/dj/kaggle/ieee&#45;internal&#45;blend#300876464&#45;&gt;http://purl.org/dj/kaggle/ieee&#45;internal&#45;blend#80085334 -->
<g id="edge12" class="edge">
<title>http://purl.org/dj/kaggle/ieee&#45;internal&#45;blend#300876464&#45;&gt;http://purl.org/dj/kaggle/ieee&#45;internal&#45;blend#80085334</title>
<path fill="none" stroke="black" d="M1143.06,-174.3C1162.41,-163.73 1188.62,-150.33 1212.88,-141 1231.73,-133.75 1252.69,-127.36 1272.09,-122.09"/>
<polygon fill="black" stroke="black" points="1273.01,-125.46 1281.78,-119.51 1271.21,-118.7 1273.01,-125.46"/>
<text text-anchor="middle" x="1236.38" y="-144.8" font-family="Times,serif" font-size="14.00">previous</text>
</g>
<!-- http://purl.org/dj/kaggle/ieee&#45;internal&#45;blend#1412829055 -->
<g id="node9" class="node">
<title>http://purl.org/dj/kaggle/ieee&#45;internal&#45;blend#1412829055</title>
<ellipse fill="none" stroke="black" cx="739.88" cy="-105" rx="246.16" ry="18"/>
<text text-anchor="middle" x="739.88" y="-101.3" font-family="Times,serif" font-size="14.00">1412829055 (../input/ieee&#45;simple&#45;lgbm/submission.csv(0): Reuse)</text>
</g>
<!-- http://purl.org/dj/kaggle/ieee&#45;internal&#45;blend#300876464&#45;&gt;http://purl.org/dj/kaggle/ieee&#45;internal&#45;blend#1412829055 -->
<g id="edge13" class="edge">
<title>http://purl.org/dj/kaggle/ieee&#45;internal&#45;blend#300876464&#45;&gt;http://purl.org/dj/kaggle/ieee&#45;internal&#45;blend#1412829055</title>
<path fill="none" stroke="black" d="M1014.74,-179C948.02,-170.7 869.47,-160.38 853.88,-156 828.87,-148.98 802.21,-137.53 780.96,-127.35"/>
<polygon fill="black" stroke="black" points="782.43,-124.18 771.91,-122.94 779.36,-130.47 782.43,-124.18"/>
<text text-anchor="middle" x="877.38" y="-144.8" font-family="Times,serif" font-size="14.00">previous</text>
</g>
<!-- http://purl.org/dj/kaggle/ieee&#45;internal&#45;blend#1412829055&#45;&gt;http://purl.org/dj/kaggle/ieee&#45;internal&#45;blend -->
<g id="edge14" class="edge">
<title>http://purl.org/dj/kaggle/ieee&#45;internal&#45;blend#1412829055&#45;&gt;http://purl.org/dj/kaggle/ieee&#45;internal&#45;blend</title>
<path fill="none" stroke="black" d="M879.55,-90.17C1004.1,-78.42 1191.45,-62.21 1354.88,-54 2020.63,-20.57 2824.76,-18.46 3087.91,-18.76"/>
<polygon fill="black" stroke="black" points="3088.16,-22.26 3098.17,-18.77 3088.17,-15.26 3088.16,-22.26"/>
<text text-anchor="middle" x="1378.38" y="-57.8" font-family="Times,serif" font-size="14.00">previous</text>
</g>
<!-- http://purl.org/dj/kaggle/ieee&#45;internal&#45;blend#301662898 -->
<g id="node10" class="node">
<title>http://purl.org/dj/kaggle/ieee&#45;internal&#45;blend#301662898</title>
<ellipse fill="none" stroke="black" cx="1980.88" cy="-192" rx="142.17" ry="18"/>
<text text-anchor="middle" x="1980.88" y="-188.3" font-family="Times,serif" font-size="14.00">301662898 (sub_3(0)$0: Movement)</text>
</g>
<!-- http://purl.org/dj/kaggle/ieee&#45;internal&#45;blend#301662898&#45;&gt;http://purl.org/dj/python/lib/144966264 -->
<g id="edge15" class="edge">
<title>http://purl.org/dj/kaggle/ieee&#45;internal&#45;blend#301662898&#45;&gt;http://purl.org/dj/python/lib/144966264</title>
<path fill="none" stroke="black" d="M1881.87,-178.99C1864.56,-177.14 1846.71,-175.38 1829.88,-174 1676.85,-161.41 1636.93,-177.34 1484.88,-156 1455.52,-151.88 1449.14,-145.76 1419.88,-141 1337.47,-127.58 1315.78,-132.91 1232.88,-123 1222.83,-121.8 1212.32,-120.44 1201.88,-119.03"/>
<polygon fill="black" stroke="black" points="1202.29,-115.56 1191.91,-117.67 1201.34,-122.49 1202.29,-115.56"/>
<text text-anchor="middle" x="1508.38" y="-144.8" font-family="Times,serif" font-size="14.00">previous</text>
</g>
<!-- http://purl.org/dj/kaggle/ieee&#45;internal&#45;blend#301662898&#45;&gt;http://purl.org/dj/kaggle/ieee&#45;internal&#45;blend#80085334 -->
<g id="edge16" class="edge">
<title>http://purl.org/dj/kaggle/ieee&#45;internal&#45;blend#301662898&#45;&gt;http://purl.org/dj/kaggle/ieee&#45;internal&#45;blend#80085334</title>
<path fill="none" stroke="black" d="M1879.79,-179.32C1863.12,-177.48 1846.02,-175.64 1829.88,-174 1741.97,-165.06 1719.49,-167.49 1631.88,-156 1558.13,-146.33 1474.49,-131.56 1415.87,-120.57"/>
<polygon fill="black" stroke="black" points="1416.43,-117.12 1405.95,-118.71 1415.13,-124 1416.43,-117.12"/>
<text text-anchor="middle" x="1655.38" y="-144.8" font-family="Times,serif" font-size="14.00">previous</text>
</g>
<!-- http://purl.org/dj/kaggle/ieee&#45;internal&#45;blend#819794977 -->
<g id="node11" class="node">
<title>http://purl.org/dj/kaggle/ieee&#45;internal&#45;blend#819794977</title>
<ellipse fill="none" stroke="black" cx="2764.88" cy="-105" rx="286.75" ry="18"/>
<text text-anchor="middle" x="2764.88" y="-101.3" font-family="Times,serif" font-size="14.00">819794977 (../input/ieee&#45;lgbm&#45;with&#45;groupkfold&#45;cv/submission.csv(0): Reuse)</text>
</g>
<!-- http://purl.org/dj/kaggle/ieee&#45;internal&#45;blend#301662898&#45;&gt;http://purl.org/dj/kaggle/ieee&#45;internal&#45;blend#819794977 -->
<g id="edge17" class="edge">
<title>http://purl.org/dj/kaggle/ieee&#45;internal&#45;blend#301662898&#45;&gt;http://purl.org/dj/kaggle/ieee&#45;internal&#45;blend#819794977</title>
<path fill="none" stroke="black" d="M2084.99,-179.71C2221.73,-164.89 2462.64,-138.77 2617.92,-121.93"/>
<polygon fill="black" stroke="black" points="2618.45,-125.4 2628.02,-120.84 2617.7,-118.44 2618.45,-125.4"/>
<text text-anchor="middle" x="2443.38" y="-144.8" font-family="Times,serif" font-size="14.00">previous</text>
</g>
<!-- http://purl.org/dj/kaggle/ieee&#45;internal&#45;blend#819794977&#45;&gt;http://purl.org/dj/kaggle/ieee&#45;internal&#45;blend -->
<g id="edge18" class="edge">
<title>http://purl.org/dj/kaggle/ieee&#45;internal&#45;blend#819794977&#45;&gt;http://purl.org/dj/kaggle/ieee&#45;internal&#45;blend</title>
<path fill="none" stroke="black" d="M2844.12,-87.61C2921.43,-71.62 3037.66,-47.59 3110.03,-32.62"/>
<polygon fill="black" stroke="black" points="3110.86,-36.02 3119.94,-30.57 3109.44,-29.17 3110.86,-36.02"/>
<text text-anchor="middle" x="3019.38" y="-57.8" font-family="Times,serif" font-size="14.00">previous</text>
</g>
<!-- http://purl.org/dj/python/lib/258474858 -->
<g id="node12" class="node">
<title>http://purl.org/dj/python/lib/258474858</title>
<ellipse fill="none" stroke="black" cx="2342.88" cy="-105" rx="116.98" ry="18"/>
<text text-anchor="middle" x="2342.88" y="-101.3" font-family="Times,serif" font-size="14.00">258474858 (warnings: Reuse)</text>
</g>
<!-- http://purl.org/dj/python/lib/258474858&#45;&gt;http://purl.org/dj/kaggle/ieee&#45;internal&#45;blend -->
<g id="edge19" class="edge">
<title>http://purl.org/dj/python/lib/258474858&#45;&gt;http://purl.org/dj/kaggle/ieee&#45;internal&#45;blend</title>
<path fill="none" stroke="black" d="M2426.19,-92.3C2440.42,-90.44 2455.06,-88.6 2468.88,-87 2695.11,-60.87 2962.89,-37.05 3094.53,-25.81"/>
<polygon fill="black" stroke="black" points="3094.87,-29.29 3104.53,-24.95 3094.27,-22.32 3094.87,-29.29"/>
<text text-anchor="middle" x="2803.38" y="-57.8" font-family="Times,serif" font-size="14.00">previous</text>
</g>
<!-- http://purl.org/dj/kaggle/ieee&#45;internal&#45;blend#301073075 -->
<g id="node13" class="node">
<title>http://purl.org/dj/kaggle/ieee&#45;internal&#45;blend#301073075</title>
<ellipse fill="none" stroke="black" cx="1418.88" cy="-279" rx="143.77" ry="18"/>
<text text-anchor="middle" x="1418.88" y="-275.3" font-family="Times,serif" font-size="14.00">301073075 (sub_1(0)$3: Preparation)</text>
</g>
<!-- http://purl.org/dj/kaggle/ieee&#45;internal&#45;blend#301073075&#45;&gt;http://purl.org/dj/kaggle/ieee&#45;internal&#45;blend#345834320 -->
<g id="edge20" class="edge">
<title>http://purl.org/dj/kaggle/ieee&#45;internal&#45;blend#301073075&#45;&gt;http://purl.org/dj/kaggle/ieee&#45;internal&#45;blend#345834320</title>
<path fill="none" stroke="black" d="M1470.89,-262.21C1518.33,-247.81 1588.45,-226.52 1638.39,-211.36"/>
<polygon fill="black" stroke="black" points="1639.54,-214.67 1648.09,-208.42 1637.51,-207.97 1639.54,-214.67"/>
<text text-anchor="middle" x="1599.38" y="-231.8" font-family="Times,serif" font-size="14.00">previous</text>
</g>
<!-- http://purl.org/dj/kaggle/ieee&#45;internal&#45;blend#302056115 -->
<g id="node14" class="node">
<title>http://purl.org/dj/kaggle/ieee&#45;internal&#45;blend#302056115</title>
<ellipse fill="none" stroke="black" cx="1416.88" cy="-192" rx="142.17" ry="18"/>
<text text-anchor="middle" x="1416.88" y="-188.3" font-family="Times,serif" font-size="14.00">302056115 (sub_4(0)$0: Movement)</text>
</g>
<!-- http://purl.org/dj/kaggle/ieee&#45;internal&#45;blend#301073075&#45;&gt;http://purl.org/dj/kaggle/ieee&#45;internal&#45;blend#302056115 -->
<g id="edge21" class="edge">
<title>http://purl.org/dj/kaggle/ieee&#45;internal&#45;blend#301073075&#45;&gt;http://purl.org/dj/kaggle/ieee&#45;internal&#45;blend#302056115</title>
<path fill="none" stroke="black" d="M1418.47,-260.8C1418.2,-249.16 1417.83,-233.55 1417.52,-220.24"/>
<polygon fill="black" stroke="black" points="1421.02,-220.09 1417.28,-210.18 1414.02,-220.26 1421.02,-220.09"/>
<text text-anchor="middle" x="1442.38" y="-231.8" font-family="Times,serif" font-size="14.00">previous</text>
</g>
<!-- http://purl.org/dj/kaggle/ieee&#45;internal&#45;blend#302056115&#45;&gt;http://purl.org/dj/python/lib/144966264 -->
<g id="edge22" class="edge">
<title>http://purl.org/dj/kaggle/ieee&#45;internal&#45;blend#302056115&#45;&gt;http://purl.org/dj/python/lib/144966264</title>
<path fill="none" stroke="black" d="M1369.74,-175C1338.71,-164.71 1297.08,-151.37 1259.88,-141 1235.93,-134.33 1209.56,-127.77 1185.9,-122.16"/>
<polygon fill="black" stroke="black" points="1186.48,-118.7 1175.94,-119.82 1184.88,-125.52 1186.48,-118.7"/>
<text text-anchor="middle" x="1331.38" y="-144.8" font-family="Times,serif" font-size="14.00">previous</text>
</g>
<!-- http://purl.org/dj/kaggle/ieee&#45;internal&#45;blend#302056115&#45;&gt;http://purl.org/dj/kaggle/ieee&#45;internal&#45;blend#80085334 -->
<g id="edge23" class="edge">
<title>http://purl.org/dj/kaggle/ieee&#45;internal&#45;blend#302056115&#45;&gt;http://purl.org/dj/kaggle/ieee&#45;internal&#45;blend#80085334</title>
<path fill="none" stroke="black" d="M1392.79,-174.16C1385.95,-168.78 1378.76,-162.52 1372.88,-156 1366.36,-148.77 1360.29,-140.07 1355.23,-131.97"/>
<polygon fill="black" stroke="black" points="1358.12,-129.97 1349.98,-123.18 1352.11,-133.56 1358.12,-129.97"/>
<text text-anchor="middle" x="1396.38" y="-144.8" font-family="Times,serif" font-size="14.00">previous</text>
</g>
<!-- http://purl.org/dj/kaggle/ieee&#45;internal&#45;blend#1719998798 -->
<g id="node15" class="node">
<title>http://purl.org/dj/kaggle/ieee&#45;internal&#45;blend#1719998798</title>
<ellipse fill="none" stroke="black" cx="1791.88" cy="-105" rx="333.34" ry="18"/>
<text text-anchor="middle" x="1791.88" y="-101.3" font-family="Times,serif" font-size="14.00">1719998798 (../input/ieee&#45;catboost&#45;baseline&#45;with&#45;groupkfold&#45;cv/submission.csv(0): Reuse)</text>
</g>
<!-- http://purl.org/dj/kaggle/ieee&#45;internal&#45;blend#302056115&#45;&gt;http://purl.org/dj/kaggle/ieee&#45;internal&#45;blend#1719998798 -->
<g id="edge24" class="edge">
<title>http://purl.org/dj/kaggle/ieee&#45;internal&#45;blend#302056115&#45;&gt;http://purl.org/dj/kaggle/ieee&#45;internal&#45;blend#1719998798</title>
<path fill="none" stroke="black" d="M1517.61,-179.21C1586.04,-170.95 1666.91,-160.6 1682.88,-156 1706.82,-149.1 1732.2,-137.73 1752.44,-127.57"/>
<polygon fill="black" stroke="black" points="1754.04,-130.68 1761.35,-123.01 1750.85,-124.45 1754.04,-130.68"/>
<text text-anchor="middle" x="1747.38" y="-144.8" font-family="Times,serif" font-size="14.00">previous</text>
</g>
<!-- http://purl.org/dj/kaggle/ieee&#45;internal&#45;blend#1719998798&#45;&gt;http://purl.org/dj/kaggle/ieee&#45;internal&#45;blend -->
<g id="edge25" class="edge">
<title>http://purl.org/dj/kaggle/ieee&#45;internal&#45;blend#1719998798&#45;&gt;http://purl.org/dj/kaggle/ieee&#45;internal&#45;blend</title>
<path fill="none" stroke="black" d="M1874.84,-87.57C1936.62,-76.05 2023.18,-61.44 2099.88,-54 2290.9,-35.47 2867.89,-24.14 3088.67,-20.39"/>
<polygon fill="black" stroke="black" points="3088.97,-23.89 3098.91,-20.22 3088.85,-16.89 3088.97,-23.89"/>
<text text-anchor="middle" x="2123.38" y="-57.8" font-family="Times,serif" font-size="14.00">previous</text>
</g>
<!-- http://purl.org/dj/kaggle/ieee&#45;internal&#45;blend#132252129 -->
<g id="node16" class="node">
<title>http://purl.org/dj/kaggle/ieee&#45;internal&#45;blend#132252129</title>
<ellipse fill="none" stroke="black" cx="3175.88" cy="-105" rx="106.68" ry="18"/>
<text text-anchor="middle" x="3175.88" y="-101.3" font-family="Times,serif" font-size="14.00">132252129 (sys(0): Reuse)</text>
</g>
<!-- http://purl.org/dj/kaggle/ieee&#45;internal&#45;blend#132252129&#45;&gt;http://purl.org/dj/kaggle/ieee&#45;internal&#45;blend -->
<g id="edge26" class="edge">
<title>http://purl.org/dj/kaggle/ieee&#45;internal&#45;blend#132252129&#45;&gt;http://purl.org/dj/kaggle/ieee&#45;internal&#45;blend</title>
<path fill="none" stroke="black" d="M3175.88,-86.8C3175.88,-75.16 3175.88,-59.55 3175.88,-46.24"/>
<polygon fill="black" stroke="black" points="3179.38,-46.18 3175.88,-36.18 3172.38,-46.18 3179.38,-46.18"/>
<text text-anchor="middle" x="3199.38" y="-57.8" font-family="Times,serif" font-size="14.00">previous</text>
</g>
<!-- http://purl.org/dj/kaggle/ieee&#45;internal&#45;blend#447153131 -->
<g id="node17" class="node">
<title>http://purl.org/dj/kaggle/ieee&#45;internal&#45;blend#447153131</title>
<ellipse fill="none" stroke="black" cx="3427.88" cy="-105" rx="127.28" ry="18"/>
<text text-anchor="middle" x="3427.88" y="-101.3" font-family="Times,serif" font-size="14.00">447153131 (warnings(0): Reuse)</text>
</g>
<!-- http://purl.org/dj/kaggle/ieee&#45;internal&#45;blend#447153131&#45;&gt;http://purl.org/dj/kaggle/ieee&#45;internal&#45;blend -->
<g id="edge27" class="edge">
<title>http://purl.org/dj/kaggle/ieee&#45;internal&#45;blend#447153131&#45;&gt;http://purl.org/dj/kaggle/ieee&#45;internal&#45;blend</title>
<path fill="none" stroke="black" d="M3381.07,-88.21C3337.44,-73.5 3272.51,-51.59 3227.42,-36.39"/>
<polygon fill="black" stroke="black" points="3228.43,-33.03 3217.83,-33.15 3226.19,-39.66 3228.43,-33.03"/>
<text text-anchor="middle" x="3341.38" y="-57.8" font-family="Times,serif" font-size="14.00">previous</text>
</g>
<!-- http://purl.org/dj/kaggle/ieee&#45;internal&#45;blend#291308294 -->
<g id="node18" class="node">
<title>http://purl.org/dj/kaggle/ieee&#45;internal&#45;blend#291308294</title>
<ellipse fill="none" stroke="black" cx="3690.88" cy="-105" rx="117.78" ry="18"/>
<text text-anchor="middle" x="3690.88" y="-101.3" font-family="Times,serif" font-size="14.00">291308294 (ignore(0): Reuse)</text>
</g>
<!-- http://purl.org/dj/kaggle/ieee&#45;internal&#45;blend#291308294&#45;&gt;http://purl.org/dj/kaggle/ieee&#45;internal&#45;blend -->
<g id="edge28" class="edge">
<title>http://purl.org/dj/kaggle/ieee&#45;internal&#45;blend#291308294&#45;&gt;http://purl.org/dj/kaggle/ieee&#45;internal&#45;blend</title>
<path fill="none" stroke="black" d="M3614.06,-91.32C3514.8,-74.94 3343.35,-46.64 3246.97,-30.73"/>
<polygon fill="black" stroke="black" points="3247.46,-27.27 3237.03,-29.09 3246.32,-34.17 3247.46,-27.27"/>
<text text-anchor="middle" x="3488.38" y="-57.8" font-family="Times,serif" font-size="14.00">previous</text>
</g>
<!-- http://purl.org/dj/python/lib/20119755 -->
<g id="node19" class="node">
<title>http://purl.org/dj/python/lib/20119755</title>
<ellipse fill="none" stroke="black" cx="3915.88" cy="-105" rx="89.08" ry="18"/>
<text text-anchor="middle" x="3915.88" y="-101.3" font-family="Times,serif" font-size="14.00">20119755 (gc: Reuse)</text>
</g>
<!-- http://purl.org/dj/python/lib/20119755&#45;&gt;http://purl.org/dj/kaggle/ieee&#45;internal&#45;blend -->
<g id="edge29" class="edge">
<title>http://purl.org/dj/python/lib/20119755&#45;&gt;http://purl.org/dj/kaggle/ieee&#45;internal&#45;blend</title>
<path fill="none" stroke="black" d="M3852.18,-92.35C3840.78,-90.44 3828.99,-88.57 3817.88,-87 3617.1,-58.64 3379.47,-36.41 3257.35,-25.8"/>
<polygon fill="black" stroke="black" points="3257.59,-22.31 3247.33,-24.93 3256.99,-29.28 3257.59,-22.31"/>
<text text-anchor="middle" x="3701.38" y="-57.8" font-family="Times,serif" font-size="14.00">previous</text>
</g>
<!-- http://purl.org/dj/kaggle/ieee&#45;internal&#45;blend#301138612 -->
<g id="node20" class="node">
<title>http://purl.org/dj/kaggle/ieee&#45;internal&#45;blend#301138612</title>
<ellipse fill="none" stroke="black" cx="1418.88" cy="-366" rx="124.58" ry="18"/>
<text text-anchor="middle" x="1418.88" y="-362.3" font-family="Times,serif" font-size="14.00">301138612 (sub_1(0)$4: Reuse)</text>
</g>
<!-- http://purl.org/dj/kaggle/ieee&#45;internal&#45;blend#301138612&#45;&gt;http://purl.org/dj/kaggle/ieee&#45;internal&#45;blend#300942001 -->
<g id="edge30" class="edge">
<title>http://purl.org/dj/kaggle/ieee&#45;internal&#45;blend#301138612&#45;&gt;http://purl.org/dj/kaggle/ieee&#45;internal&#45;blend#300942001</title>
<path fill="none" stroke="black" d="M1364.35,-349.8C1312.63,-335.39 1234.82,-313.71 1179.68,-298.34"/>
<polygon fill="black" stroke="black" points="1180.57,-294.95 1170,-295.64 1178.69,-301.7 1180.57,-294.95"/>
<text text-anchor="middle" x="1308.38" y="-318.8" font-family="Times,serif" font-size="14.00">previous</text>
</g>
<!-- http://purl.org/dj/kaggle/ieee&#45;internal&#45;blend#301138612&#45;&gt;http://purl.org/dj/kaggle/ieee&#45;internal&#45;blend#301073075 -->
<g id="edge31" class="edge">
<title>http://purl.org/dj/kaggle/ieee&#45;internal&#45;blend#301138612&#45;&gt;http://purl.org/dj/kaggle/ieee&#45;internal&#45;blend#301073075</title>
<path fill="none" stroke="black" d="M1418.88,-347.8C1418.88,-336.16 1418.88,-320.55 1418.88,-307.24"/>
<polygon fill="black" stroke="black" points="1422.38,-307.18 1418.88,-297.18 1415.38,-307.18 1422.38,-307.18"/>
<text text-anchor="middle" x="1442.38" y="-318.8" font-family="Times,serif" font-size="14.00">previous</text>
</g>
<!-- http://purl.org/dj/kaggle/ieee&#45;internal&#45;blend#301007538 -->
<g id="node21" class="node">
<title>http://purl.org/dj/kaggle/ieee&#45;internal&#45;blend#301007538</title>
<ellipse fill="none" stroke="black" cx="1723.88" cy="-279" rx="143.77" ry="18"/>
<text text-anchor="middle" x="1723.88" y="-275.3" font-family="Times,serif" font-size="14.00">301007538 (sub_1(0)$2: Preparation)</text>
</g>
<!-- http://purl.org/dj/kaggle/ieee&#45;internal&#45;blend#301138612&#45;&gt;http://purl.org/dj/kaggle/ieee&#45;internal&#45;blend#301007538 -->
<g id="edge32" class="edge">
<title>http://purl.org/dj/kaggle/ieee&#45;internal&#45;blend#301138612&#45;&gt;http://purl.org/dj/kaggle/ieee&#45;internal&#45;blend#301007538</title>
<path fill="none" stroke="black" d="M1473.41,-349.8C1525.13,-335.39 1602.93,-313.71 1658.08,-298.34"/>
<polygon fill="black" stroke="black" points="1659.07,-301.7 1667.76,-295.64 1657.19,-294.95 1659.07,-301.7"/>
<text text-anchor="middle" x="1613.38" y="-318.8" font-family="Times,serif" font-size="14.00">previous</text>
</g>
<!-- http://purl.org/dj/kaggle/ieee&#45;internal&#45;blend#301007538&#45;&gt;http://purl.org/dj/kaggle/ieee&#45;internal&#45;blend#345834320 -->
<g id="edge33" class="edge">
<title>http://purl.org/dj/kaggle/ieee&#45;internal&#45;blend#301007538&#45;&gt;http://purl.org/dj/kaggle/ieee&#45;internal&#45;blend#345834320</title>
<path fill="none" stroke="black" d="M1718.82,-260.8C1715.36,-249.05 1710.71,-233.24 1706.77,-219.84"/>
<polygon fill="black" stroke="black" points="1710.11,-218.78 1703.93,-210.18 1703.39,-220.76 1710.11,-218.78"/>
<text text-anchor="middle" x="1736.38" y="-231.8" font-family="Times,serif" font-size="14.00">previous</text>
</g>
<!-- http://purl.org/dj/kaggle/ieee&#45;internal&#45;blend#301007538&#45;&gt;http://purl.org/dj/kaggle/ieee&#45;internal&#45;blend#301662898 -->
<g id="edge34" class="edge">
<title>http://purl.org/dj/kaggle/ieee&#45;internal&#45;blend#301007538&#45;&gt;http://purl.org/dj/kaggle/ieee&#45;internal&#45;blend#301662898</title>
<path fill="none" stroke="black" d="M1772.22,-262.01C1814.89,-247.9 1877.2,-227.29 1922.61,-212.27"/>
<polygon fill="black" stroke="black" points="1923.92,-215.52 1932.32,-209.06 1921.73,-208.88 1923.92,-215.52"/>
<text text-anchor="middle" x="1891.38" y="-231.8" font-family="Times,serif" font-size="14.00">previous</text>
</g>
<!-- http://purl.org/dj/kaggle/ieee&#45;internal&#45;blend#76874060 -->
<g id="node22" class="node">
<title>http://purl.org/dj/kaggle/ieee&#45;internal&#45;blend#76874060</title>
<ellipse fill="none" stroke="black" cx="4121.88" cy="-105" rx="98.58" ry="18"/>
<text text-anchor="middle" x="4121.88" y="-101.3" font-family="Times,serif" font-size="14.00">76874060 (gc(0): Reuse)</text>
</g>
<!-- http://purl.org/dj/kaggle/ieee&#45;internal&#45;blend#76874060&#45;&gt;http://purl.org/dj/kaggle/ieee&#45;internal&#45;blend -->
<g id="edge35" class="edge">
<title>http://purl.org/dj/kaggle/ieee&#45;internal&#45;blend#76874060&#45;&gt;http://purl.org/dj/kaggle/ieee&#45;internal&#45;blend</title>
<path fill="none" stroke="black" d="M4051.06,-92.43C4038.68,-90.53 4025.91,-88.64 4013.88,-87 3887.54,-69.75 3855.88,-65.36 3728.88,-54 3563.66,-39.22 3370.11,-28.47 3261.36,-23.03"/>
<polygon fill="black" stroke="black" points="3261.27,-19.52 3251.11,-22.52 3260.92,-26.51 3261.27,-19.52"/>
<text text-anchor="middle" x="3900.38" y="-57.8" font-family="Times,serif" font-size="14.00">previous</text>
</g>
<!-- http://purl.org/dj/kaggle/ieee&#45;internal&#45;blend#83689828 -->
<g id="node23" class="node">
<title>http://purl.org/dj/kaggle/ieee&#45;internal&#45;blend#83689828</title>
<ellipse fill="none" stroke="black" cx="4337.88" cy="-105" rx="98.58" ry="18"/>
<text text-anchor="middle" x="4337.88" y="-101.3" font-family="Times,serif" font-size="14.00">83689828 (os(0): Reuse)</text>
</g>
<!-- http://purl.org/dj/kaggle/ieee&#45;internal&#45;blend#83689828&#45;&gt;http://purl.org/dj/kaggle/ieee&#45;internal&#45;blend -->
<g id="edge36" class="edge">
<title>http://purl.org/dj/kaggle/ieee&#45;internal&#45;blend#83689828&#45;&gt;http://purl.org/dj/kaggle/ieee&#45;internal&#45;blend</title>
<path fill="none" stroke="black" d="M4267.07,-92.36C4254.69,-90.47 4241.92,-88.6 4229.88,-87 4096.04,-69.16 4062.49,-64.48 3927.88,-54 3687.3,-35.28 3402.59,-25.35 3262.54,-21.28"/>
<polygon fill="black" stroke="black" points="3262.4,-17.77 3252.3,-20.98 3262.19,-24.77 3262.4,-17.77"/>
<text text-anchor="middle" x="4112.38" y="-57.8" font-family="Times,serif" font-size="14.00">previous</text>
</g>
<!-- http://purl.org/dj/kaggle/ieee&#45;internal&#45;blend#1048512072 -->
<g id="node24" class="node">
<title>http://purl.org/dj/kaggle/ieee&#45;internal&#45;blend#1048512072</title>
<ellipse fill="none" stroke="black" cx="4607.88" cy="-105" rx="153.27" ry="18"/>
<text text-anchor="middle" x="4607.88" y="-101.3" font-family="Times,serif" font-size="14.00">1048512072 (submission.csv(0): Reuse)</text>
</g>
<!-- http://purl.org/dj/kaggle/ieee&#45;internal&#45;blend#1048512072&#45;&gt;http://purl.org/dj/kaggle/ieee&#45;internal&#45;blend -->
<g id="edge37" class="edge">
<title>http://purl.org/dj/kaggle/ieee&#45;internal&#45;blend#1048512072&#45;&gt;http://purl.org/dj/kaggle/ieee&#45;internal&#45;blend</title>
<path fill="none" stroke="black" d="M4508.09,-91.29C4413.47,-79.72 4267.23,-63.1 4139.88,-54 3816.98,-30.92 3432.09,-22.74 3262.92,-20.12"/>
<polygon fill="black" stroke="black" points="3262.88,-16.62 3252.83,-19.96 3262.77,-23.61 3262.88,-16.62"/>
<text text-anchor="middle" x="4330.38" y="-57.8" font-family="Times,serif" font-size="14.00">previous</text>
</g>
<!-- http://purl.org/dj/python/lib/46203232 -->
<g id="node25" class="node">
<title>http://purl.org/dj/python/lib/46203232</title>
<ellipse fill="none" stroke="black" cx="4870.88" cy="-105" rx="91.78" ry="18"/>
<text text-anchor="middle" x="4870.88" y="-101.3" font-family="Times,serif" font-size="14.00">46203232 (sys: Reuse)</text>
</g>
<!-- http://purl.org/dj/python/lib/46203232&#45;&gt;http://purl.org/dj/kaggle/ieee&#45;internal&#45;blend -->
<g id="edge38" class="edge">
<title>http://purl.org/dj/python/lib/46203232&#45;&gt;http://purl.org/dj/kaggle/ieee&#45;internal&#45;blend</title>
<path fill="none" stroke="black" d="M4806.07,-92.24C4794.07,-90.3 4781.61,-88.45 4769.88,-87 4587.58,-64.4 4541.3,-64.06 4357.88,-54 3948.81,-31.58 3459.26,-22.84 3263.27,-20.08"/>
<polygon fill="black" stroke="black" points="3263.08,-16.58 3253.03,-19.94 3262.98,-23.58 3263.08,-16.58"/>
<text text-anchor="middle" x="4622.38" y="-57.8" font-family="Times,serif" font-size="14.00">previous</text>
</g>
<!-- http://purl.org/dj/python/lib/22216931 -->
<g id="node26" class="node">
<title>http://purl.org/dj/python/lib/22216931</title>
<ellipse fill="none" stroke="black" cx="5068.88" cy="-105" rx="88.28" ry="18"/>
<text text-anchor="middle" x="5068.88" y="-101.3" font-family="Times,serif" font-size="14.00">22216931 (os: Reuse)</text>
</g>
<!-- http://purl.org/dj/python/lib/22216931&#45;&gt;http://purl.org/dj/kaggle/ieee&#45;internal&#45;blend -->
<g id="edge39" class="edge">
<title>http://purl.org/dj/python/lib/22216931&#45;&gt;http://purl.org/dj/kaggle/ieee&#45;internal&#45;blend</title>
<path fill="none" stroke="black" d="M5006.11,-92.32C4994.74,-90.4 4982.97,-88.54 4971.88,-87 4829.38,-67.24 4793.45,-63.05 4649.88,-54 4124.66,-20.9 3492.38,-18.39 3263.74,-18.69"/>
<polygon fill="black" stroke="black" points="3263.48,-15.19 3253.48,-18.7 3263.49,-22.19 3263.48,-15.19"/>
<text text-anchor="middle" x="4855.38" y="-57.8" font-family="Times,serif" font-size="14.00">previous</text>
</g>
</g>
</svg>
