<?xml version="1.0" encoding="UTF-8" standalone="no"?>
<!DOCTYPE svg PUBLIC "-//W3C//DTD SVG 1.1//EN"
 "http://www.w3.org/Graphics/SVG/1.1/DTD/svg11.dtd">
<!-- Generated by graphviz version 2.47.1 (20210417.1919)
 -->
<!-- Pages: 1 -->
<svg width="6124pt" height="500pt"
 viewBox="0.00 0.00 6123.57 500.00" xmlns="http://www.w3.org/2000/svg" xmlns:xlink="http://www.w3.org/1999/xlink">
<g id="graph0" class="graph" transform="scale(1 1) rotate(0) translate(4 496)">
<polygon fill="white" stroke="transparent" points="-4,4 -4,-496 6119.57,-496 6119.57,4 -4,4"/>
<!-- http://purl.org/dj/kaggle/ieee&#45;simple&#45;lgbm/activity/4101384986457771765 -->
<g id="node1" class="node">
<title>http://purl.org/dj/kaggle/ieee&#45;simple&#45;lgbm/activity/4101384986457771765</title>
<ellipse fill="none" stroke="black" cx="3727.13" cy="-387" rx="148.67" ry="18"/>
<text text-anchor="middle" x="3727.13" y="-383.3" font-family="Times,serif" font-size="14.00">4101384986457771765 (Visualisation)</text>
</g>
<!-- http://purl.org/dj/kaggle/ieee&#45;simple&#45;lgbm/activity/1715712265605178551 -->
<g id="node2" class="node">
<title>http://purl.org/dj/kaggle/ieee&#45;simple&#45;lgbm/activity/1715712265605178551</title>
<ellipse fill="none" stroke="black" cx="3228.13" cy="-105" rx="124.28" ry="18"/>
<text text-anchor="middle" x="3228.13" y="-101.3" font-family="Times,serif" font-size="14.00">1715712265605178551 (Reuse)</text>
</g>
<!-- http://purl.org/dj/kaggle/ieee&#45;simple&#45;lgbm/activity/4101384986457771765&#45;&gt;http://purl.org/dj/kaggle/ieee&#45;simple&#45;lgbm/activity/1715712265605178551 -->
<g id="edge1" class="edge">
<title>http://purl.org/dj/kaggle/ieee&#45;simple&#45;lgbm/activity/4101384986457771765&#45;&gt;http://purl.org/dj/kaggle/ieee&#45;simple&#45;lgbm/activity/1715712265605178551</title>
<path fill="none" stroke="black" d="M3724.53,-368.95C3722.04,-345.48 3721.67,-303.66 3746.13,-282 3821.79,-215 4553.18,-232.92 4654.13,-228 4680.45,-226.72 5109.85,-228.98 5128.13,-210 5139.23,-198.47 5139.05,-185.69 5128.13,-174 5067.97,-109.61 3785.72,-105.33 3362.41,-105.68"/>
<polygon fill="black" stroke="black" points="3362.26,-102.18 3352.26,-105.69 3362.27,-109.18 3362.26,-102.18"/>
<text text-anchor="middle" x="4677.63" y="-242.3" font-family="Times,serif" font-size="14.00">previous</text>
</g>
<!-- http://purl.org/dj/kaggle/ieee&#45;simple&#45;lgbm/activity/&#45;3843024783998952531 -->
<g id="node3" class="node">
<title>http://purl.org/dj/kaggle/ieee&#45;simple&#45;lgbm/activity/&#45;3843024783998952531</title>
<ellipse fill="none" stroke="black" cx="3518.13" cy="-246" rx="144.07" ry="18"/>
<text text-anchor="middle" x="3518.13" y="-242.3" font-family="Times,serif" font-size="14.00">&#45;3843024783998952531 (Movement)</text>
</g>
<!-- http://purl.org/dj/kaggle/ieee&#45;simple&#45;lgbm/activity/4101384986457771765&#45;&gt;http://purl.org/dj/kaggle/ieee&#45;simple&#45;lgbm/activity/&#45;3843024783998952531 -->
<g id="edge2" class="edge">
<title>http://purl.org/dj/kaggle/ieee&#45;simple&#45;lgbm/activity/4101384986457771765&#45;&gt;http://purl.org/dj/kaggle/ieee&#45;simple&#45;lgbm/activity/&#45;3843024783998952531</title>
<path fill="none" stroke="black" d="M3618.38,-374.6C3601.4,-369.29 3584.94,-361.72 3571.13,-351 3546.45,-331.84 3532.27,-298.03 3524.9,-274.17"/>
<polygon fill="black" stroke="black" points="3528.19,-272.96 3522.06,-264.32 3521.46,-274.89 3528.19,-272.96"/>
<text text-anchor="middle" x="3594.63" y="-339.8" font-family="Times,serif" font-size="14.00">previous</text>
</g>
<!-- http://purl.org/dj/kaggle/ieee&#45;simple&#45;lgbm/activity/2765212202568811978 -->
<g id="node4" class="node">
<title>http://purl.org/dj/kaggle/ieee&#45;simple&#45;lgbm/activity/2765212202568811978</title>
<ellipse fill="none" stroke="black" cx="3321.13" cy="-300" rx="141.88" ry="18"/>
<text text-anchor="middle" x="3321.13" y="-296.3" font-family="Times,serif" font-size="14.00">2765212202568811978 (Movement)</text>
</g>
<!-- http://purl.org/dj/kaggle/ieee&#45;simple&#45;lgbm/activity/4101384986457771765&#45;&gt;http://purl.org/dj/kaggle/ieee&#45;simple&#45;lgbm/activity/2765212202568811978 -->
<g id="edge3" class="edge">
<title>http://purl.org/dj/kaggle/ieee&#45;simple&#45;lgbm/activity/4101384986457771765&#45;&gt;http://purl.org/dj/kaggle/ieee&#45;simple&#45;lgbm/activity/2765212202568811978</title>
<path fill="none" stroke="black" d="M3584.44,-381.75C3529.88,-377.12 3467.68,-368.14 3413.13,-351 3392.64,-344.56 3371.47,-333.42 3354.61,-323.29"/>
<polygon fill="black" stroke="black" points="3356.07,-320.07 3345.72,-317.8 3352.39,-326.03 3356.07,-320.07"/>
<text text-anchor="middle" x="3436.63" y="-339.8" font-family="Times,serif" font-size="14.00">previous</text>
</g>
<!-- http://purl.org/dj/kaggle/ieee&#45;simple&#45;lgbm/activity/&#45;5825374609825444275 -->
<g id="node5" class="node">
<title>http://purl.org/dj/kaggle/ieee&#45;simple&#45;lgbm/activity/&#45;5825374609825444275</title>
<ellipse fill="none" stroke="black" cx="3899.13" cy="-300" rx="144.07" ry="18"/>
<text text-anchor="middle" x="3899.13" y="-296.3" font-family="Times,serif" font-size="14.00">&#45;5825374609825444275 (Movement)</text>
</g>
<!-- http://purl.org/dj/kaggle/ieee&#45;simple&#45;lgbm/activity/4101384986457771765&#45;&gt;http://purl.org/dj/kaggle/ieee&#45;simple&#45;lgbm/activity/&#45;5825374609825444275 -->
<g id="edge4" class="edge">
<title>http://purl.org/dj/kaggle/ieee&#45;simple&#45;lgbm/activity/4101384986457771765&#45;&gt;http://purl.org/dj/kaggle/ieee&#45;simple&#45;lgbm/activity/&#45;5825374609825444275</title>
<path fill="none" stroke="black" d="M3760.7,-369.41C3788.05,-355.89 3826.83,-336.73 3856.39,-322.12"/>
<polygon fill="black" stroke="black" points="3858.23,-325.12 3865.64,-317.55 3855.13,-318.84 3858.23,-325.12"/>
<text text-anchor="middle" x="3847.63" y="-339.8" font-family="Times,serif" font-size="14.00">previous</text>
</g>
<!-- http://purl.org/dj/kaggle/ieee&#45;simple&#45;lgbm/activity/6395992792195977596 -->
<g id="node6" class="node">
<title>http://purl.org/dj/kaggle/ieee&#45;simple&#45;lgbm/activity/6395992792195977596</title>
<ellipse fill="none" stroke="black" cx="5317.13" cy="-192" rx="141.88" ry="18"/>
<text text-anchor="middle" x="5317.13" y="-188.3" font-family="Times,serif" font-size="14.00">6395992792195977596 (Movement)</text>
</g>
<!-- http://purl.org/dj/kaggle/ieee&#45;simple&#45;lgbm/activity/4101384986457771765&#45;&gt;http://purl.org/dj/kaggle/ieee&#45;simple&#45;lgbm/activity/6395992792195977596 -->
<g id="edge5" class="edge">
<title>http://purl.org/dj/kaggle/ieee&#45;simple&#45;lgbm/activity/4101384986457771765&#45;&gt;http://purl.org/dj/kaggle/ieee&#45;simple&#45;lgbm/activity/6395992792195977596</title>
<path fill="none" stroke="black" d="M3819.57,-372.86C3893.53,-362.48 3999.92,-347.81 4093.13,-336 4501.59,-284.24 4987.64,-229.49 5203.79,-205.49"/>
<polygon fill="black" stroke="black" points="5204.33,-208.96 5213.88,-204.38 5203.56,-202 5204.33,-208.96"/>
<text text-anchor="middle" x="4545.63" y="-296.3" font-family="Times,serif" font-size="14.00">previous</text>
</g>
<!-- http://purl.org/dj/kaggle/ieee&#45;simple&#45;lgbm -->
<g id="node7" class="node">
<title>http://purl.org/dj/kaggle/ieee&#45;simple&#45;lgbm</title>
<ellipse fill="none" stroke="black" cx="3228.13" cy="-18" rx="166.27" ry="18"/>
<text text-anchor="middle" x="3228.13" y="-14.3" font-family="Times,serif" font-size="14.00">ieee&#45;simple&#45;lgbm (ieee&#45;simple&#45;lgbm.ipynb)</text>
</g>
<!-- http://purl.org/dj/kaggle/ieee&#45;simple&#45;lgbm/activity/1715712265605178551&#45;&gt;http://purl.org/dj/kaggle/ieee&#45;simple&#45;lgbm -->
<g id="edge6" class="edge">
<title>http://purl.org/dj/kaggle/ieee&#45;simple&#45;lgbm/activity/1715712265605178551&#45;&gt;http://purl.org/dj/kaggle/ieee&#45;simple&#45;lgbm</title>
<path fill="none" stroke="black" d="M3228.13,-86.8C3228.13,-75.16 3228.13,-59.55 3228.13,-46.24"/>
<polygon fill="black" stroke="black" points="3231.63,-46.18 3228.13,-36.18 3224.63,-46.18 3231.63,-46.18"/>
<text text-anchor="middle" x="3251.63" y="-57.8" font-family="Times,serif" font-size="14.00">previous</text>
</g>
<!-- http://purl.org/dj/kaggle/ieee&#45;simple&#45;lgbm/activity/&#45;3843024783998952531&#45;&gt;http://purl.org/dj/kaggle/ieee&#45;simple&#45;lgbm/activity/1715712265605178551 -->
<g id="edge7" class="edge">
<title>http://purl.org/dj/kaggle/ieee&#45;simple&#45;lgbm/activity/&#45;3843024783998952531&#45;&gt;http://purl.org/dj/kaggle/ieee&#45;simple&#45;lgbm/activity/1715712265605178551</title>
<path fill="none" stroke="black" d="M3458.01,-229.57C3442.84,-224.45 3426.95,-217.97 3413.13,-210 3373.03,-186.88 3375.29,-164.01 3335.13,-141 3323.57,-134.38 3310.59,-128.81 3297.76,-124.19"/>
<polygon fill="black" stroke="black" points="3298.59,-120.78 3288,-120.84 3296.32,-127.4 3298.59,-120.78"/>
<text text-anchor="middle" x="3436.63" y="-188.3" font-family="Times,serif" font-size="14.00">previous</text>
</g>
<!-- http://purl.org/dj/kaggle/ieee&#45;simple&#45;lgbm/activity/2765212202568811978&#45;&gt;http://purl.org/dj/kaggle/ieee&#45;simple&#45;lgbm/activity/1715712265605178551 -->
<g id="edge8" class="edge">
<title>http://purl.org/dj/kaggle/ieee&#45;simple&#45;lgbm/activity/2765212202568811978&#45;&gt;http://purl.org/dj/kaggle/ieee&#45;simple&#45;lgbm/activity/1715712265605178551</title>
<path fill="none" stroke="black" d="M3320.39,-281.81C3318.68,-256.72 3312.99,-209.23 3294.13,-174 3285.04,-157.03 3270.47,-141.36 3257.33,-129.35"/>
<polygon fill="black" stroke="black" points="3259.62,-126.71 3249.8,-122.73 3254.99,-131.96 3259.62,-126.71"/>
<text text-anchor="middle" x="3332.63" y="-188.3" font-family="Times,serif" font-size="14.00">previous</text>
</g>
<!-- http://purl.org/dj/kaggle/ieee&#45;simple&#45;lgbm/activity/&#45;6131312415684222517 -->
<g id="node8" class="node">
<title>http://purl.org/dj/kaggle/ieee&#45;simple&#45;lgbm/activity/&#45;6131312415684222517</title>
<ellipse fill="none" stroke="black" cx="532.13" cy="-192" rx="151.37" ry="18"/>
<text text-anchor="middle" x="532.13" y="-188.3" font-family="Times,serif" font-size="14.00">&#45;6131312415684222517 (Visualisation)</text>
</g>
<!-- http://purl.org/dj/kaggle/ieee&#45;simple&#45;lgbm/activity/2765212202568811978&#45;&gt;http://purl.org/dj/kaggle/ieee&#45;simple&#45;lgbm/activity/&#45;6131312415684222517 -->
<g id="edge9" class="edge">
<title>http://purl.org/dj/kaggle/ieee&#45;simple&#45;lgbm/activity/2765212202568811978&#45;&gt;http://purl.org/dj/kaggle/ieee&#45;simple&#45;lgbm/activity/&#45;6131312415684222517</title>
<path fill="none" stroke="black" d="M3180.12,-298.05C2786.73,-294.56 1643.87,-278.79 697.13,-210 681.31,-208.85 664.66,-207.41 648.28,-205.85"/>
<polygon fill="black" stroke="black" points="648.4,-202.35 638.11,-204.87 647.73,-209.32 648.4,-202.35"/>
<text text-anchor="middle" x="1729.63" y="-242.3" font-family="Times,serif" font-size="14.00">previous</text>
</g>
<!-- http://purl.org/dj/kaggle/ieee&#45;simple&#45;lgbm/activity/7584118963778852838 -->
<g id="node9" class="node">
<title>http://purl.org/dj/kaggle/ieee&#45;simple&#45;lgbm/activity/7584118963778852838</title>
<ellipse fill="none" stroke="black" cx="933.13" cy="-192" rx="148.67" ry="18"/>
<text text-anchor="middle" x="933.13" y="-188.3" font-family="Times,serif" font-size="14.00">7584118963778852838 (Visualisation)</text>
</g>
<!-- http://purl.org/dj/kaggle/ieee&#45;simple&#45;lgbm/activity/2765212202568811978&#45;&gt;http://purl.org/dj/kaggle/ieee&#45;simple&#45;lgbm/activity/7584118963778852838 -->
<g id="edge10" class="edge">
<title>http://purl.org/dj/kaggle/ieee&#45;simple&#45;lgbm/activity/2765212202568811978&#45;&gt;http://purl.org/dj/kaggle/ieee&#45;simple&#45;lgbm/activity/7584118963778852838</title>
<path fill="none" stroke="black" d="M3198.87,-290.88C2968.55,-275.91 2454.53,-244.02 2021.13,-228 1608,-212.73 1503.71,-236.14 1091.13,-210 1076.11,-209.05 1060.32,-207.73 1044.76,-206.25"/>
<polygon fill="black" stroke="black" points="1044.88,-202.74 1034.58,-205.25 1044.2,-209.71 1044.88,-202.74"/>
<text text-anchor="middle" x="2752.63" y="-242.3" font-family="Times,serif" font-size="14.00">previous</text>
</g>
<!-- http://purl.org/dj/kaggle/ieee&#45;simple&#45;lgbm/activity/&#45;5825374609825444275&#45;&gt;http://purl.org/dj/kaggle/ieee&#45;simple&#45;lgbm/activity/1715712265605178551 -->
<g id="edge11" class="edge">
<title>http://purl.org/dj/kaggle/ieee&#45;simple&#45;lgbm/activity/&#45;5825374609825444275&#45;&gt;http://purl.org/dj/kaggle/ieee&#45;simple&#45;lgbm/activity/1715712265605178551</title>
<path fill="none" stroke="black" d="M3879.06,-281.97C3858.44,-264.32 3825.56,-235.75 3798.13,-210 3781.63,-194.51 3782.38,-184.1 3762.13,-174 3692.58,-139.3 3487.96,-120.99 3353.17,-112.41"/>
<polygon fill="black" stroke="black" points="3353.38,-108.92 3343.18,-111.79 3352.94,-115.91 3353.38,-108.92"/>
<text text-anchor="middle" x="3821.63" y="-188.3" font-family="Times,serif" font-size="14.00">previous</text>
</g>
<!-- http://purl.org/dj/kaggle/ieee&#45;simple&#45;lgbm/activity/&#45;6785485377719343344 -->
<g id="node10" class="node">
<title>http://purl.org/dj/kaggle/ieee&#45;simple&#45;lgbm/activity/&#45;6785485377719343344</title>
<ellipse fill="none" stroke="black" cx="5666.13" cy="-192" rx="151.37" ry="18"/>
<text text-anchor="middle" x="5666.13" y="-188.3" font-family="Times,serif" font-size="14.00">&#45;6785485377719343344 (Visualisation)</text>
</g>
<!-- http://purl.org/dj/kaggle/ieee&#45;simple&#45;lgbm/activity/&#45;5825374609825444275&#45;&gt;http://purl.org/dj/kaggle/ieee&#45;simple&#45;lgbm/activity/&#45;6785485377719343344 -->
<g id="edge12" class="edge">
<title>http://purl.org/dj/kaggle/ieee&#45;simple&#45;lgbm/activity/&#45;5825374609825444275&#45;&gt;http://purl.org/dj/kaggle/ieee&#45;simple&#45;lgbm/activity/&#45;6785485377719343344</title>
<path fill="none" stroke="black" d="M3998.46,-286.86C4017.89,-284.89 4038.13,-283.14 4057.13,-282 4139.27,-277.09 5458.6,-285.1 5538.13,-264 5557.13,-258.96 5599.92,-234.08 5630.8,-215.18"/>
<polygon fill="black" stroke="black" points="5632.89,-218 5639.57,-209.78 5629.22,-212.04 5632.89,-218"/>
<text text-anchor="middle" x="5629.63" y="-242.3" font-family="Times,serif" font-size="14.00">previous</text>
</g>
<!-- http://purl.org/dj/kaggle/ieee&#45;simple&#45;lgbm/activity/6395992792195977596&#45;&gt;http://purl.org/dj/kaggle/ieee&#45;simple&#45;lgbm/activity/1715712265605178551 -->
<g id="edge13" class="edge">
<title>http://purl.org/dj/kaggle/ieee&#45;simple&#45;lgbm/activity/6395992792195977596&#45;&gt;http://purl.org/dj/kaggle/ieee&#45;simple&#45;lgbm/activity/1715712265605178551</title>
<path fill="none" stroke="black" d="M5277.2,-174.63C5246.15,-162.78 5201.67,-147.72 5161.13,-141 4985.34,-111.88 3771.19,-106.99 3362.24,-106.17"/>
<polygon fill="black" stroke="black" points="3362.15,-102.67 3352.14,-106.15 3362.13,-109.67 3362.15,-102.67"/>
<text text-anchor="middle" x="5245.63" y="-144.8" font-family="Times,serif" font-size="14.00">previous</text>
</g>
<!-- http://purl.org/dj/kaggle/ieee&#45;simple&#45;lgbm/activity/6395992792195977596&#45;&gt;http://purl.org/dj/kaggle/ieee&#45;simple&#45;lgbm -->
<g id="edge14" class="edge">
<title>http://purl.org/dj/kaggle/ieee&#45;simple&#45;lgbm/activity/6395992792195977596&#45;&gt;http://purl.org/dj/kaggle/ieee&#45;simple&#45;lgbm</title>
<path fill="none" stroke="black" d="M5433.57,-181.68C5494.66,-175.58 5558.78,-166.75 5568.13,-156 5572.51,-150.97 5572.72,-145.84 5568.13,-141 5493.75,-62.64 3931.18,-30.32 3401.75,-21.59"/>
<polygon fill="black" stroke="black" points="3401.79,-18.09 3391.73,-21.42 3401.67,-25.09 3401.79,-18.09"/>
<text text-anchor="middle" x="5545.63" y="-101.3" font-family="Times,serif" font-size="14.00">previous</text>
</g>
<!-- http://purl.org/dj/kaggle/ieee&#45;simple&#45;lgbm/activity/&#45;6131312415684222517&#45;&gt;http://purl.org/dj/kaggle/ieee&#45;simple&#45;lgbm/activity/1715712265605178551 -->
<g id="edge27" class="edge">
<title>http://purl.org/dj/kaggle/ieee&#45;simple&#45;lgbm/activity/&#45;6131312415684222517&#45;&gt;http://purl.org/dj/kaggle/ieee&#45;simple&#45;lgbm/activity/1715712265605178551</title>
<path fill="none" stroke="black" d="M564.55,-174.32C589.42,-162.48 625,-147.57 658.13,-141 778.25,-117.19 2582.61,-108.48 3093.98,-106.48"/>
<polygon fill="black" stroke="black" points="3094.36,-109.98 3104.35,-106.44 3094.34,-102.98 3094.36,-109.98"/>
<text text-anchor="middle" x="681.63" y="-144.8" font-family="Times,serif" font-size="14.00">previous</text>
</g>
<!-- http://purl.org/dj/kaggle/ieee&#45;simple&#45;lgbm/activity/&#45;6131312415684222517&#45;&gt;http://purl.org/dj/kaggle/ieee&#45;simple&#45;lgbm -->
<g id="edge28" class="edge">
<title>http://purl.org/dj/kaggle/ieee&#45;simple&#45;lgbm/activity/&#45;6131312415684222517&#45;&gt;http://purl.org/dj/kaggle/ieee&#45;simple&#45;lgbm</title>
<path fill="none" stroke="black" d="M447.52,-176.95C421.83,-169.21 404.15,-157.69 420.13,-141 511.35,-45.73 2452.1,-24.36 3052.63,-20.02"/>
<polygon fill="black" stroke="black" points="3052.7,-23.52 3062.67,-19.95 3052.65,-16.52 3052.7,-23.52"/>
<text text-anchor="middle" x="746.63" y="-101.3" font-family="Times,serif" font-size="14.00">previous</text>
</g>
<!-- http://purl.org/dj/kaggle/ieee&#45;simple&#45;lgbm/activity/7584118963778852838&#45;&gt;http://purl.org/dj/kaggle/ieee&#45;simple&#45;lgbm/activity/1715712265605178551 -->
<g id="edge34" class="edge">
<title>http://purl.org/dj/kaggle/ieee&#45;simple&#45;lgbm/activity/7584118963778852838&#45;&gt;http://purl.org/dj/kaggle/ieee&#45;simple&#45;lgbm/activity/1715712265605178551</title>
<path fill="none" stroke="black" d="M1037.61,-179.15C1055.45,-177.3 1073.81,-175.51 1091.13,-174 1310.79,-154.87 1365.85,-150.69 1586.13,-141 2146.08,-116.38 2814.23,-108.93 3094.27,-106.8"/>
<polygon fill="black" stroke="black" points="3094.5,-110.3 3104.48,-106.73 3094.45,-103.3 3094.5,-110.3"/>
<text text-anchor="middle" x="1609.63" y="-144.8" font-family="Times,serif" font-size="14.00">previous</text>
</g>
<!-- http://purl.org/dj/kaggle/ieee&#45;simple&#45;lgbm/activity/&#45;6785485377719343344&#45;&gt;http://purl.org/dj/kaggle/ieee&#45;simple&#45;lgbm/activity/1715712265605178551 -->
<g id="edge16" class="edge">
<title>http://purl.org/dj/kaggle/ieee&#45;simple&#45;lgbm/activity/&#45;6785485377719343344&#45;&gt;http://purl.org/dj/kaggle/ieee&#45;simple&#45;lgbm/activity/1715712265605178551</title>
<path fill="none" stroke="black" d="M5623.36,-174.73C5589.85,-162.85 5541.74,-147.7 5498.13,-141 5287.9,-108.72 3818.33,-105.99 3362.59,-105.93"/>
<polygon fill="black" stroke="black" points="3362.34,-102.43 3352.34,-105.93 3362.34,-109.43 3362.34,-102.43"/>
<text text-anchor="middle" x="5586.63" y="-144.8" font-family="Times,serif" font-size="14.00">previous</text>
</g>
<!-- http://purl.org/dj/kaggle/ieee&#45;simple&#45;lgbm/activity/8512282308537100507 -->
<g id="node11" class="node">
<title>http://purl.org/dj/kaggle/ieee&#45;simple&#45;lgbm/activity/8512282308537100507</title>
<ellipse fill="none" stroke="black" cx="5962.13" cy="-300" rx="133.48" ry="18"/>
<text text-anchor="middle" x="5962.13" y="-296.3" font-family="Times,serif" font-size="14.00">8512282308537100507 (Analysis)</text>
</g>
<!-- http://purl.org/dj/kaggle/ieee&#45;simple&#45;lgbm/activity/8512282308537100507&#45;&gt;http://purl.org/dj/kaggle/ieee&#45;simple&#45;lgbm/activity/&#45;6785485377719343344 -->
<g id="edge15" class="edge">
<title>http://purl.org/dj/kaggle/ieee&#45;simple&#45;lgbm/activity/8512282308537100507&#45;&gt;http://purl.org/dj/kaggle/ieee&#45;simple&#45;lgbm/activity/&#45;6785485377719343344</title>
<path fill="none" stroke="black" d="M5917.49,-283.02C5864.97,-264.21 5777.77,-232.98 5721.13,-212.69"/>
<polygon fill="black" stroke="black" points="5722.21,-209.36 5711.61,-209.29 5719.85,-215.96 5722.21,-209.36"/>
<text text-anchor="middle" x="5880.63" y="-242.3" font-family="Times,serif" font-size="14.00">previous</text>
</g>
<!-- http://purl.org/dj/kaggle/ieee&#45;simple&#45;lgbm/activity/5726202887682969442 -->
<g id="node12" class="node">
<title>http://purl.org/dj/kaggle/ieee&#45;simple&#45;lgbm/activity/5726202887682969442</title>
<ellipse fill="none" stroke="black" cx="1249.13" cy="-192" rx="148.67" ry="18"/>
<text text-anchor="middle" x="1249.13" y="-188.3" font-family="Times,serif" font-size="14.00">5726202887682969442 (Visualisation)</text>
</g>
<!-- http://purl.org/dj/kaggle/ieee&#45;simple&#45;lgbm/activity/5726202887682969442&#45;&gt;http://purl.org/dj/kaggle/ieee&#45;simple&#45;lgbm/activity/1715712265605178551 -->
<g id="edge17" class="edge">
<title>http://purl.org/dj/kaggle/ieee&#45;simple&#45;lgbm/activity/5726202887682969442&#45;&gt;http://purl.org/dj/kaggle/ieee&#45;simple&#45;lgbm/activity/1715712265605178551</title>
<path fill="none" stroke="black" d="M1353.6,-179.12C1371.45,-177.28 1389.81,-175.49 1407.13,-174 1633.87,-154.49 1690.78,-151.37 1918.13,-141 2348.32,-121.37 2858.51,-111.63 3095.23,-107.89"/>
<polygon fill="black" stroke="black" points="3095.32,-111.39 3105.26,-107.74 3095.21,-104.39 3095.32,-111.39"/>
<text text-anchor="middle" x="1941.63" y="-144.8" font-family="Times,serif" font-size="14.00">previous</text>
</g>
<!-- http://purl.org/dj/kaggle/ieee&#45;simple&#45;lgbm/activity/2241849235263353633 -->
<g id="node13" class="node">
<title>http://purl.org/dj/kaggle/ieee&#45;simple&#45;lgbm/activity/2241849235263353633</title>
<ellipse fill="none" stroke="black" cx="1565.13" cy="-192" rx="148.67" ry="18"/>
<text text-anchor="middle" x="1565.13" y="-188.3" font-family="Times,serif" font-size="14.00">2241849235263353633 (Visualisation)</text>
</g>
<!-- http://purl.org/dj/kaggle/ieee&#45;simple&#45;lgbm/activity/2241849235263353633&#45;&gt;http://purl.org/dj/kaggle/ieee&#45;simple&#45;lgbm/activity/1715712265605178551 -->
<g id="edge18" class="edge">
<title>http://purl.org/dj/kaggle/ieee&#45;simple&#45;lgbm/activity/2241849235263353633&#45;&gt;http://purl.org/dj/kaggle/ieee&#45;simple&#45;lgbm/activity/1715712265605178551</title>
<path fill="none" stroke="black" d="M1670.04,-179.15C1687.75,-177.31 1705.95,-175.52 1723.13,-174 2228.64,-129.22 2832.44,-113.26 3095.13,-108.15"/>
<polygon fill="black" stroke="black" points="3095.55,-111.65 3105.48,-107.95 3095.41,-104.65 3095.55,-111.65"/>
<text text-anchor="middle" x="2201.63" y="-144.8" font-family="Times,serif" font-size="14.00">previous</text>
</g>
<!-- http://purl.org/dj/kaggle/ieee&#45;simple&#45;lgbm/activity/776455391739647426 -->
<g id="node14" class="node">
<title>http://purl.org/dj/kaggle/ieee&#45;simple&#45;lgbm/activity/776455391739647426</title>
<ellipse fill="none" stroke="black" cx="1869.13" cy="-192" rx="137.28" ry="18"/>
<text text-anchor="middle" x="1869.13" y="-188.3" font-family="Times,serif" font-size="14.00">776455391739647426 (Movement)</text>
</g>
<!-- http://purl.org/dj/kaggle/ieee&#45;simple&#45;lgbm/activity/776455391739647426&#45;&gt;http://purl.org/dj/kaggle/ieee&#45;simple&#45;lgbm/activity/1715712265605178551 -->
<g id="edge19" class="edge">
<title>http://purl.org/dj/kaggle/ieee&#45;simple&#45;lgbm/activity/776455391739647426&#45;&gt;http://purl.org/dj/kaggle/ieee&#45;simple&#45;lgbm/activity/1715712265605178551</title>
<path fill="none" stroke="black" d="M1965.53,-179.18C1982.38,-177.31 1999.75,-175.5 2016.13,-174 2409.37,-138.04 2876.24,-118.29 3098.3,-110.29"/>
<polygon fill="black" stroke="black" points="3098.5,-113.78 3108.36,-109.93 3098.25,-106.79 3098.5,-113.78"/>
<text text-anchor="middle" x="2472.63" y="-144.8" font-family="Times,serif" font-size="14.00">previous</text>
</g>
<!-- http://purl.org/dj/kaggle/ieee&#45;simple&#45;lgbm/activity/&#45;4040157648713749275 -->
<g id="node15" class="node">
<title>http://purl.org/dj/kaggle/ieee&#45;simple&#45;lgbm/activity/&#45;4040157648713749275</title>
<ellipse fill="none" stroke="black" cx="2176.13" cy="-192" rx="151.37" ry="18"/>
<text text-anchor="middle" x="2176.13" y="-188.3" font-family="Times,serif" font-size="14.00">&#45;4040157648713749275 (Visualisation)</text>
</g>
<!-- http://purl.org/dj/kaggle/ieee&#45;simple&#45;lgbm/activity/&#45;4040157648713749275&#45;&gt;http://purl.org/dj/kaggle/ieee&#45;simple&#45;lgbm/activity/1715712265605178551 -->
<g id="edge20" class="edge">
<title>http://purl.org/dj/kaggle/ieee&#45;simple&#45;lgbm/activity/&#45;4040157648713749275&#45;&gt;http://purl.org/dj/kaggle/ieee&#45;simple&#45;lgbm/activity/1715712265605178551</title>
<path fill="none" stroke="black" d="M2283.47,-179.23C2301.38,-177.39 2319.77,-175.58 2337.13,-174 2612.63,-148.91 2936.65,-125.78 3107.91,-114.05"/>
<polygon fill="black" stroke="black" points="3108.22,-117.54 3117.96,-113.37 3107.74,-110.56 3108.22,-117.54"/>
<text text-anchor="middle" x="2751.63" y="-144.8" font-family="Times,serif" font-size="14.00">previous</text>
</g>
<!-- http://purl.org/dj/kaggle/ieee&#45;simple&#45;lgbm/activity/&#45;6788318469025813323 -->
<g id="node16" class="node">
<title>http://purl.org/dj/kaggle/ieee&#45;simple&#45;lgbm/activity/&#45;6788318469025813323</title>
<ellipse fill="none" stroke="black" cx="2497.13" cy="-192" rx="151.37" ry="18"/>
<text text-anchor="middle" x="2497.13" y="-188.3" font-family="Times,serif" font-size="14.00">&#45;6788318469025813323 (Visualisation)</text>
</g>
<!-- http://purl.org/dj/kaggle/ieee&#45;simple&#45;lgbm/activity/&#45;6788318469025813323&#45;&gt;http://purl.org/dj/kaggle/ieee&#45;simple&#45;lgbm/activity/1715712265605178551 -->
<g id="edge21" class="edge">
<title>http://purl.org/dj/kaggle/ieee&#45;simple&#45;lgbm/activity/&#45;6788318469025813323&#45;&gt;http://purl.org/dj/kaggle/ieee&#45;simple&#45;lgbm/activity/1715712265605178551</title>
<path fill="none" stroke="black" d="M2601.47,-178.87C2740.6,-162.69 2985.39,-134.23 3124.26,-118.08"/>
<polygon fill="black" stroke="black" points="3124.96,-121.52 3134.49,-116.89 3124.15,-114.57 3124.96,-121.52"/>
<text text-anchor="middle" x="2930.63" y="-144.8" font-family="Times,serif" font-size="14.00">previous</text>
</g>
<!-- http://purl.org/dj/kaggle/ieee&#45;simple&#45;lgbm/activity/&#45;5264697534645744148 -->
<g id="node17" class="node">
<title>http://purl.org/dj/kaggle/ieee&#45;simple&#45;lgbm/activity/&#45;5264697534645744148</title>
<ellipse fill="none" stroke="black" cx="2818.13" cy="-192" rx="151.37" ry="18"/>
<text text-anchor="middle" x="2818.13" y="-188.3" font-family="Times,serif" font-size="14.00">&#45;5264697534645744148 (Visualisation)</text>
</g>
<!-- http://purl.org/dj/kaggle/ieee&#45;simple&#45;lgbm/activity/&#45;5264697534645744148&#45;&gt;http://purl.org/dj/kaggle/ieee&#45;simple&#45;lgbm/activity/1715712265605178551 -->
<g id="edge22" class="edge">
<title>http://purl.org/dj/kaggle/ieee&#45;simple&#45;lgbm/activity/&#45;5264697534645744148&#45;&gt;http://purl.org/dj/kaggle/ieee&#45;simple&#45;lgbm/activity/1715712265605178551</title>
<path fill="none" stroke="black" d="M2890.01,-176.1C2962.88,-160.99 3075.26,-137.69 3150.21,-122.15"/>
<polygon fill="black" stroke="black" points="3151,-125.57 3160.08,-120.11 3149.57,-118.71 3151,-125.57"/>
<text text-anchor="middle" x="3071.63" y="-144.8" font-family="Times,serif" font-size="14.00">previous</text>
</g>
<!-- http://purl.org/dj/kaggle/ieee&#45;simple&#45;lgbm/activity/97632193788838475 -->
<g id="node18" class="node">
<title>http://purl.org/dj/kaggle/ieee&#45;simple&#45;lgbm/activity/97632193788838475</title>
<ellipse fill="none" stroke="black" cx="532.13" cy="-300" rx="132.68" ry="18"/>
<text text-anchor="middle" x="532.13" y="-296.3" font-family="Times,serif" font-size="14.00">97632193788838475 (Movement)</text>
</g>
<!-- http://purl.org/dj/kaggle/ieee&#45;simple&#45;lgbm/activity/97632193788838475&#45;&gt;http://purl.org/dj/kaggle/ieee&#45;simple&#45;lgbm/activity/1715712265605178551 -->
<g id="edge23" class="edge">
<title>http://purl.org/dj/kaggle/ieee&#45;simple&#45;lgbm/activity/97632193788838475&#45;&gt;http://purl.org/dj/kaggle/ieee&#45;simple&#45;lgbm/activity/1715712265605178551</title>
<path fill="none" stroke="black" d="M568.18,-282.54C601.79,-266.39 652.55,-239.87 692.13,-210 710.19,-196.37 707.48,-183.25 728.13,-174 964.59,-68.12 1051.23,-150.7 1310.13,-141 1979.91,-115.91 2781.97,-108.64 3094.38,-106.67"/>
<polygon fill="black" stroke="black" points="3094.41,-110.17 3104.39,-106.61 3094.37,-103.18 3094.41,-110.17"/>
<text text-anchor="middle" x="751.63" y="-188.3" font-family="Times,serif" font-size="14.00">previous</text>
</g>
<!-- http://purl.org/dj/kaggle/ieee&#45;simple&#45;lgbm/activity/97632193788838475&#45;&gt;http://purl.org/dj/kaggle/ieee&#45;simple&#45;lgbm/activity/&#45;6131312415684222517 -->
<g id="edge25" class="edge">
<title>http://purl.org/dj/kaggle/ieee&#45;simple&#45;lgbm/activity/97632193788838475&#45;&gt;http://purl.org/dj/kaggle/ieee&#45;simple&#45;lgbm/activity/&#45;6131312415684222517</title>
<path fill="none" stroke="black" d="M532.13,-281.97C532.13,-265.38 532.13,-239.88 532.13,-220.43"/>
<polygon fill="black" stroke="black" points="535.63,-220.34 532.13,-210.34 528.63,-220.34 535.63,-220.34"/>
<text text-anchor="middle" x="555.63" y="-242.3" font-family="Times,serif" font-size="14.00">previous</text>
</g>
<!-- http://purl.org/dj/kaggle/ieee&#45;simple&#45;lgbm/activity/&#45;1384036801339910826 -->
<g id="node19" class="node">
<title>http://purl.org/dj/kaggle/ieee&#45;simple&#45;lgbm/activity/&#45;1384036801339910826</title>
<ellipse fill="none" stroke="black" cx="211.13" cy="-192" rx="151.37" ry="18"/>
<text text-anchor="middle" x="211.13" y="-188.3" font-family="Times,serif" font-size="14.00">&#45;1384036801339910826 (Visualisation)</text>
</g>
<!-- http://purl.org/dj/kaggle/ieee&#45;simple&#45;lgbm/activity/97632193788838475&#45;&gt;http://purl.org/dj/kaggle/ieee&#45;simple&#45;lgbm/activity/&#45;1384036801339910826 -->
<g id="edge24" class="edge">
<title>http://purl.org/dj/kaggle/ieee&#45;simple&#45;lgbm/activity/97632193788838475&#45;&gt;http://purl.org/dj/kaggle/ieee&#45;simple&#45;lgbm/activity/&#45;1384036801339910826</title>
<path fill="none" stroke="black" d="M484.07,-283.13C426.71,-264.19 330.85,-232.53 269.34,-212.22"/>
<polygon fill="black" stroke="black" points="270.37,-208.88 259.78,-209.06 268.18,-215.52 270.37,-208.88"/>
<text text-anchor="middle" x="443.63" y="-242.3" font-family="Times,serif" font-size="14.00">previous</text>
</g>
<!-- http://purl.org/dj/kaggle/ieee&#45;simple&#45;lgbm/activity/&#45;1384036801339910826&#45;&gt;http://purl.org/dj/kaggle/ieee&#45;simple&#45;lgbm/activity/1715712265605178551 -->
<g id="edge26" class="edge">
<title>http://purl.org/dj/kaggle/ieee&#45;simple&#45;lgbm/activity/&#45;1384036801339910826&#45;&gt;http://purl.org/dj/kaggle/ieee&#45;simple&#45;lgbm/activity/1715712265605178551</title>
<path fill="none" stroke="black" d="M290.39,-176.58C360.51,-164.55 465.74,-148.23 558.13,-141 811.37,-121.18 2588.15,-109.64 3094.03,-106.73"/>
<polygon fill="black" stroke="black" points="3094.31,-110.23 3104.29,-106.67 3094.27,-103.23 3094.31,-110.23"/>
<text text-anchor="middle" x="581.63" y="-144.8" font-family="Times,serif" font-size="14.00">previous</text>
</g>
<!-- http://purl.org/dj/kaggle/ieee&#45;simple&#45;lgbm/activity/6981783021873059524 -->
<g id="node20" class="node">
<title>http://purl.org/dj/kaggle/ieee&#45;simple&#45;lgbm/activity/6981783021873059524</title>
<ellipse fill="none" stroke="black" cx="3136.13" cy="-192" rx="148.67" ry="18"/>
<text text-anchor="middle" x="3136.13" y="-188.3" font-family="Times,serif" font-size="14.00">6981783021873059524 (Visualisation)</text>
</g>
<!-- http://purl.org/dj/kaggle/ieee&#45;simple&#45;lgbm/activity/6981783021873059524&#45;&gt;http://purl.org/dj/kaggle/ieee&#45;simple&#45;lgbm/activity/1715712265605178551 -->
<g id="edge29" class="edge">
<title>http://purl.org/dj/kaggle/ieee&#45;simple&#45;lgbm/activity/6981783021873059524&#45;&gt;http://purl.org/dj/kaggle/ieee&#45;simple&#45;lgbm/activity/1715712265605178551</title>
<path fill="none" stroke="black" d="M3154.75,-173.8C3168.43,-161.16 3187.19,-143.82 3202.32,-129.85"/>
<polygon fill="black" stroke="black" points="3204.88,-132.24 3209.85,-122.89 3200.13,-127.1 3204.88,-132.24"/>
<text text-anchor="middle" x="3211.63" y="-144.8" font-family="Times,serif" font-size="14.00">previous</text>
</g>
<!-- http://purl.org/dj/kaggle/ieee&#45;simple&#45;lgbm/activity/3239783043831155190 -->
<g id="node21" class="node">
<title>http://purl.org/dj/kaggle/ieee&#45;simple&#45;lgbm/activity/3239783043831155190</title>
<ellipse fill="none" stroke="black" cx="5964.13" cy="-387" rx="142.97" ry="18"/>
<text text-anchor="middle" x="5964.13" y="-383.3" font-family="Times,serif" font-size="14.00">3239783043831155190 (Preparation)</text>
</g>
<!-- http://purl.org/dj/kaggle/ieee&#45;simple&#45;lgbm/activity/3239783043831155190&#45;&gt;http://purl.org/dj/kaggle/ieee&#45;simple&#45;lgbm/activity/8512282308537100507 -->
<g id="edge30" class="edge">
<title>http://purl.org/dj/kaggle/ieee&#45;simple&#45;lgbm/activity/3239783043831155190&#45;&gt;http://purl.org/dj/kaggle/ieee&#45;simple&#45;lgbm/activity/8512282308537100507</title>
<path fill="none" stroke="black" d="M5963.72,-368.8C5963.45,-357.16 5963.08,-341.55 5962.77,-328.24"/>
<polygon fill="black" stroke="black" points="5966.27,-328.09 5962.53,-318.18 5959.27,-328.26 5966.27,-328.09"/>
<text text-anchor="middle" x="5986.63" y="-339.8" font-family="Times,serif" font-size="14.00">previous</text>
</g>
<!-- http://purl.org/dj/kaggle/ieee&#45;simple&#45;lgbm/activity/4503190675698285677 -->
<g id="node22" class="node">
<title>http://purl.org/dj/kaggle/ieee&#45;simple&#45;lgbm/activity/4503190675698285677</title>
<ellipse fill="none" stroke="black" cx="3321.13" cy="-387" rx="148.67" ry="18"/>
<text text-anchor="middle" x="3321.13" y="-383.3" font-family="Times,serif" font-size="14.00">4503190675698285677 (Visualisation)</text>
</g>
<!-- http://purl.org/dj/kaggle/ieee&#45;simple&#45;lgbm/activity/4503190675698285677&#45;&gt;http://purl.org/dj/kaggle/ieee&#45;simple&#45;lgbm/activity/1715712265605178551 -->
<g id="edge31" class="edge">
<title>http://purl.org/dj/kaggle/ieee&#45;simple&#45;lgbm/activity/4503190675698285677&#45;&gt;http://purl.org/dj/kaggle/ieee&#45;simple&#45;lgbm/activity/1715712265605178551</title>
<path fill="none" stroke="black" d="M3172.85,-385.03C2615.67,-381.07 665.06,-364.01 390.13,-318 234.17,-291.9 144.44,-337.66 51.13,-210 -23.13,-108.4 -90.12,-166.96 420.13,-141 950.12,-114.04 2609.32,-107.62 3093.95,-106.31"/>
<polygon fill="black" stroke="black" points="3094.15,-109.8 3104.14,-106.28 3094.13,-102.8 3094.15,-109.8"/>
<text text-anchor="middle" x="124.63" y="-242.3" font-family="Times,serif" font-size="14.00">previous</text>
</g>
<!-- http://purl.org/dj/kaggle/ieee&#45;simple&#45;lgbm/activity/4503190675698285677&#45;&gt;http://purl.org/dj/kaggle/ieee&#45;simple&#45;lgbm/activity/2765212202568811978 -->
<g id="edge32" class="edge">
<title>http://purl.org/dj/kaggle/ieee&#45;simple&#45;lgbm/activity/4503190675698285677&#45;&gt;http://purl.org/dj/kaggle/ieee&#45;simple&#45;lgbm/activity/2765212202568811978</title>
<path fill="none" stroke="black" d="M3321.13,-368.8C3321.13,-357.16 3321.13,-341.55 3321.13,-328.24"/>
<polygon fill="black" stroke="black" points="3324.63,-328.18 3321.13,-318.18 3317.63,-328.18 3324.63,-328.18"/>
<text text-anchor="middle" x="3344.63" y="-339.8" font-family="Times,serif" font-size="14.00">previous</text>
</g>
<!-- http://purl.org/dj/kaggle/ieee&#45;simple&#45;lgbm/activity/4503190675698285677&#45;&gt;http://purl.org/dj/kaggle/ieee&#45;simple&#45;lgbm/activity/&#45;5825374609825444275 -->
<g id="edge33" class="edge">
<title>http://purl.org/dj/kaggle/ieee&#45;simple&#45;lgbm/activity/4503190675698285677&#45;&gt;http://purl.org/dj/kaggle/ieee&#45;simple&#45;lgbm/activity/&#45;5825374609825444275</title>
<path fill="none" stroke="black" d="M3394.76,-371.24C3416.2,-365.94 3439.42,-359.2 3460.13,-351 3472.89,-345.95 3474,-340 3487.13,-336 3535.59,-321.23 3655.86,-312.1 3754.03,-306.89"/>
<polygon fill="black" stroke="black" points="3754.26,-310.38 3764.06,-306.37 3753.89,-303.39 3754.26,-310.38"/>
<text text-anchor="middle" x="3510.63" y="-339.8" font-family="Times,serif" font-size="14.00">previous</text>
</g>
<!-- http://purl.org/dj/kaggle/ieee&#45;simple&#45;lgbm/activity/&#45;1058993363827849112 -->
<g id="node23" class="node">
<title>http://purl.org/dj/kaggle/ieee&#45;simple&#45;lgbm/activity/&#45;1058993363827849112</title>
<ellipse fill="none" stroke="black" cx="4112.13" cy="-387" rx="151.37" ry="18"/>
<text text-anchor="middle" x="4112.13" y="-383.3" font-family="Times,serif" font-size="14.00">&#45;1058993363827849112 (Visualisation)</text>
</g>
<!-- http://purl.org/dj/kaggle/ieee&#45;simple&#45;lgbm/activity/&#45;1058993363827849112&#45;&gt;http://purl.org/dj/kaggle/ieee&#45;simple&#45;lgbm/activity/1715712265605178551 -->
<g id="edge35" class="edge">
<title>http://purl.org/dj/kaggle/ieee&#45;simple&#45;lgbm/activity/&#45;1058993363827849112&#45;&gt;http://purl.org/dj/kaggle/ieee&#45;simple&#45;lgbm/activity/1715712265605178551</title>
<path fill="none" stroke="black" d="M4263.48,-386.36C4649.01,-384.57 5626.77,-361.75 5468.13,-174 5411.4,-106.86 5360.65,-149.11 5273.13,-141 4900.65,-106.49 3756.07,-105.08 3362.61,-105.66"/>
<polygon fill="black" stroke="black" points="3362.32,-102.16 3352.32,-105.67 3362.33,-109.16 3362.32,-102.16"/>
<text text-anchor="middle" x="5503.63" y="-242.3" font-family="Times,serif" font-size="14.00">previous</text>
</g>
<!-- http://purl.org/dj/kaggle/ieee&#45;simple&#45;lgbm/activity/&#45;1058993363827849112&#45;&gt;http://purl.org/dj/kaggle/ieee&#45;simple&#45;lgbm/activity/2765212202568811978 -->
<g id="edge36" class="edge">
<title>http://purl.org/dj/kaggle/ieee&#45;simple&#45;lgbm/activity/&#45;1058993363827849112&#45;&gt;http://purl.org/dj/kaggle/ieee&#45;simple&#45;lgbm/activity/2765212202568811978</title>
<path fill="none" stroke="black" d="M3996.56,-375.31C3925.92,-368.65 3833.77,-359.7 3752.13,-351 3642.43,-339.31 3517.19,-324.63 3430.09,-314.21"/>
<polygon fill="black" stroke="black" points="3430.27,-310.7 3419.93,-312.99 3429.44,-317.65 3430.27,-310.7"/>
<text text-anchor="middle" x="3775.63" y="-339.8" font-family="Times,serif" font-size="14.00">previous</text>
</g>
<!-- http://purl.org/dj/kaggle/ieee&#45;simple&#45;lgbm/activity/&#45;1058993363827849112&#45;&gt;http://purl.org/dj/kaggle/ieee&#45;simple&#45;lgbm/activity/&#45;5825374609825444275 -->
<g id="edge37" class="edge">
<title>http://purl.org/dj/kaggle/ieee&#45;simple&#45;lgbm/activity/&#45;1058993363827849112&#45;&gt;http://purl.org/dj/kaggle/ieee&#45;simple&#45;lgbm/activity/&#45;5825374609825444275</title>
<path fill="none" stroke="black" d="M4071.06,-369.61C4036.44,-355.79 3986.75,-335.97 3949.69,-321.18"/>
<polygon fill="black" stroke="black" points="3950.66,-317.79 3940.07,-317.34 3948.06,-324.3 3950.66,-317.79"/>
<text text-anchor="middle" x="4041.63" y="-339.8" font-family="Times,serif" font-size="14.00">previous</text>
</g>
<!-- http://purl.org/dj/kaggle/ieee&#45;simple&#45;lgbm/activity/4182047981283982881 -->
<g id="node24" class="node">
<title>http://purl.org/dj/kaggle/ieee&#45;simple&#45;lgbm/activity/4182047981283982881</title>
<ellipse fill="none" stroke="black" cx="3611.13" cy="-192" rx="141.88" ry="18"/>
<text text-anchor="middle" x="3611.13" y="-188.3" font-family="Times,serif" font-size="14.00">4182047981283982881 (Movement)</text>
</g>
<!-- http://purl.org/dj/kaggle/ieee&#45;simple&#45;lgbm/activity/4182047981283982881&#45;&gt;http://purl.org/dj/kaggle/ieee&#45;simple&#45;lgbm/activity/1715712265605178551 -->
<g id="edge38" class="edge">
<title>http://purl.org/dj/kaggle/ieee&#45;simple&#45;lgbm/activity/4182047981283982881&#45;&gt;http://purl.org/dj/kaggle/ieee&#45;simple&#45;lgbm/activity/1715712265605178551</title>
<path fill="none" stroke="black" d="M3555.22,-175.39C3516.83,-164.95 3464.6,-151.29 3418.13,-141 3384.89,-133.64 3348.14,-126.62 3315.89,-120.82"/>
<polygon fill="black" stroke="black" points="3316.49,-117.37 3306.03,-119.06 3315.26,-124.26 3316.49,-117.37"/>
<text text-anchor="middle" x="3500.63" y="-144.8" font-family="Times,serif" font-size="14.00">previous</text>
</g>
<!-- http://purl.org/dj/kaggle/ieee&#45;simple&#45;lgbm/activity/&#45;4317748577440993067 -->
<g id="node25" class="node">
<title>http://purl.org/dj/kaggle/ieee&#45;simple&#45;lgbm/activity/&#45;4317748577440993067</title>
<ellipse fill="none" stroke="black" cx="4005.13" cy="-192" rx="151.37" ry="18"/>
<text text-anchor="middle" x="4005.13" y="-188.3" font-family="Times,serif" font-size="14.00">&#45;4317748577440993067 (Visualisation)</text>
</g>
<!-- http://purl.org/dj/kaggle/ieee&#45;simple&#45;lgbm/activity/&#45;4317748577440993067&#45;&gt;http://purl.org/dj/kaggle/ieee&#45;simple&#45;lgbm/activity/1715712265605178551 -->
<g id="edge39" class="edge">
<title>http://purl.org/dj/kaggle/ieee&#45;simple&#45;lgbm/activity/&#45;4317748577440993067&#45;&gt;http://purl.org/dj/kaggle/ieee&#45;simple&#45;lgbm/activity/1715712265605178551</title>
<path fill="none" stroke="black" d="M3952.08,-175.06C3911.64,-163.6 3854.38,-148.84 3803.13,-141 3653.03,-118.05 3478.73,-110.01 3361.72,-107.27"/>
<polygon fill="black" stroke="black" points="3361.71,-103.77 3351.64,-107.04 3361.56,-110.77 3361.71,-103.77"/>
<text text-anchor="middle" x="3899.63" y="-144.8" font-family="Times,serif" font-size="14.00">previous</text>
</g>
<!-- http://purl.org/dj/kaggle/ieee&#45;simple&#45;lgbm/activity/&#45;6049000126255761312 -->
<g id="node26" class="node">
<title>http://purl.org/dj/kaggle/ieee&#45;simple&#45;lgbm/activity/&#45;6049000126255761312</title>
<ellipse fill="none" stroke="black" cx="4326.13" cy="-192" rx="151.37" ry="18"/>
<text text-anchor="middle" x="4326.13" y="-188.3" font-family="Times,serif" font-size="14.00">&#45;6049000126255761312 (Visualisation)</text>
</g>
<!-- http://purl.org/dj/kaggle/ieee&#45;simple&#45;lgbm/activity/&#45;6049000126255761312&#45;&gt;http://purl.org/dj/kaggle/ieee&#45;simple&#45;lgbm/activity/1715712265605178551 -->
<g id="edge40" class="edge">
<title>http://purl.org/dj/kaggle/ieee&#45;simple&#45;lgbm/activity/&#45;6049000126255761312&#45;&gt;http://purl.org/dj/kaggle/ieee&#45;simple&#45;lgbm/activity/1715712265605178551</title>
<path fill="none" stroke="black" d="M4234.82,-177.59C4154.08,-166.2 4033.01,-150.27 3927.13,-141 3729.63,-123.7 3499.93,-114.24 3359.31,-109.65"/>
<polygon fill="black" stroke="black" points="3359.03,-106.14 3348.92,-109.31 3358.8,-113.13 3359.03,-106.14"/>
<text text-anchor="middle" x="4081.63" y="-144.8" font-family="Times,serif" font-size="14.00">previous</text>
</g>
<!-- http://purl.org/dj/kaggle/ieee&#45;simple&#45;lgbm/activity/&#45;4482944540886401133 -->
<g id="node27" class="node">
<title>http://purl.org/dj/kaggle/ieee&#45;simple&#45;lgbm/activity/&#45;4482944540886401133</title>
<ellipse fill="none" stroke="black" cx="4647.13" cy="-192" rx="151.37" ry="18"/>
<text text-anchor="middle" x="4647.13" y="-188.3" font-family="Times,serif" font-size="14.00">&#45;4482944540886401133 (Visualisation)</text>
</g>
<!-- http://purl.org/dj/kaggle/ieee&#45;simple&#45;lgbm/activity/&#45;4482944540886401133&#45;&gt;http://purl.org/dj/kaggle/ieee&#45;simple&#45;lgbm/activity/1715712265605178551 -->
<g id="edge41" class="edge">
<title>http://purl.org/dj/kaggle/ieee&#45;simple&#45;lgbm/activity/&#45;4482944540886401133&#45;&gt;http://purl.org/dj/kaggle/ieee&#45;simple&#45;lgbm/activity/1715712265605178551</title>
<path fill="none" stroke="black" d="M4539.33,-179.35C4521.56,-177.51 4503.33,-175.66 4486.13,-174 4318.71,-157.84 4276.99,-151.67 4109.13,-141 3843.27,-124.09 3531.73,-114 3359.48,-109.27"/>
<polygon fill="black" stroke="black" points="3359.45,-105.76 3349.35,-108.99 3359.25,-112.76 3359.45,-105.76"/>
<text text-anchor="middle" x="4320.63" y="-144.8" font-family="Times,serif" font-size="14.00">previous</text>
</g>
<!-- http://purl.org/dj/kaggle/ieee&#45;simple&#45;lgbm/activity/669547415013241959 -->
<g id="node28" class="node">
<title>http://purl.org/dj/kaggle/ieee&#45;simple&#45;lgbm/activity/669547415013241959</title>
<ellipse fill="none" stroke="black" cx="5659.13" cy="-387" rx="144.07" ry="18"/>
<text text-anchor="middle" x="5659.13" y="-383.3" font-family="Times,serif" font-size="14.00">669547415013241959 (Visualisation)</text>
</g>
<!-- http://purl.org/dj/kaggle/ieee&#45;simple&#45;lgbm/activity/&#45;8990318312933165813 -->
<g id="node29" class="node">
<title>http://purl.org/dj/kaggle/ieee&#45;simple&#45;lgbm/activity/&#45;8990318312933165813</title>
<ellipse fill="none" stroke="black" cx="5663.13" cy="-300" rx="145.67" ry="18"/>
<text text-anchor="middle" x="5663.13" y="-296.3" font-family="Times,serif" font-size="14.00">&#45;8990318312933165813 (Preparation)</text>
</g>
<!-- http://purl.org/dj/kaggle/ieee&#45;simple&#45;lgbm/activity/669547415013241959&#45;&gt;http://purl.org/dj/kaggle/ieee&#45;simple&#45;lgbm/activity/&#45;8990318312933165813 -->
<g id="edge42" class="edge">
<title>http://purl.org/dj/kaggle/ieee&#45;simple&#45;lgbm/activity/669547415013241959&#45;&gt;http://purl.org/dj/kaggle/ieee&#45;simple&#45;lgbm/activity/&#45;8990318312933165813</title>
<path fill="none" stroke="black" d="M5659.94,-368.8C5660.49,-357.16 5661.22,-341.55 5661.85,-328.24"/>
<polygon fill="black" stroke="black" points="5665.35,-328.33 5662.32,-318.18 5658.35,-328 5665.35,-328.33"/>
<text text-anchor="middle" x="5684.63" y="-339.8" font-family="Times,serif" font-size="14.00">previous</text>
</g>
<!-- http://purl.org/dj/kaggle/ieee&#45;simple&#45;lgbm/activity/&#45;8990318312933165813&#45;&gt;http://purl.org/dj/kaggle/ieee&#45;simple&#45;lgbm/activity/&#45;6785485377719343344 -->
<g id="edge43" class="edge">
<title>http://purl.org/dj/kaggle/ieee&#45;simple&#45;lgbm/activity/&#45;8990318312933165813&#45;&gt;http://purl.org/dj/kaggle/ieee&#45;simple&#45;lgbm/activity/&#45;6785485377719343344</title>
<path fill="none" stroke="black" d="M5663.61,-281.97C5664.08,-265.38 5664.8,-239.88 5665.35,-220.43"/>
<polygon fill="black" stroke="black" points="5668.85,-220.44 5665.64,-210.34 5661.86,-220.24 5668.85,-220.44"/>
<text text-anchor="middle" x="5687.63" y="-242.3" font-family="Times,serif" font-size="14.00">previous</text>
</g>
<!-- http://purl.org/dj/kaggle/ieee&#45;simple&#45;lgbm/activity/&#45;8499910946673147295 -->
<g id="node30" class="node">
<title>http://purl.org/dj/kaggle/ieee&#45;simple&#45;lgbm/activity/&#45;8499910946673147295</title>
<ellipse fill="none" stroke="black" cx="4968.13" cy="-192" rx="151.37" ry="18"/>
<text text-anchor="middle" x="4968.13" y="-188.3" font-family="Times,serif" font-size="14.00">&#45;8499910946673147295 (Visualisation)</text>
</g>
<!-- http://purl.org/dj/kaggle/ieee&#45;simple&#45;lgbm/activity/&#45;8499910946673147295&#45;&gt;http://purl.org/dj/kaggle/ieee&#45;simple&#45;lgbm/activity/1715712265605178551 -->
<g id="edge44" class="edge">
<title>http://purl.org/dj/kaggle/ieee&#45;simple&#45;lgbm/activity/&#45;8499910946673147295&#45;&gt;http://purl.org/dj/kaggle/ieee&#45;simple&#45;lgbm/activity/1715712265605178551</title>
<path fill="none" stroke="black" d="M4861.22,-179.21C4843.18,-177.36 4824.63,-175.55 4807.13,-174 4603.4,-155.93 4552.38,-151.53 4348.13,-141 3991.39,-122.61 3570.21,-112.59 3360.55,-108.4"/>
<polygon fill="black" stroke="black" points="3360.49,-104.9 3350.42,-108.2 3360.35,-111.9 3360.49,-104.9"/>
<text text-anchor="middle" x="4616.63" y="-144.8" font-family="Times,serif" font-size="14.00">previous</text>
</g>
<!-- http://purl.org/dj/kaggle/ieee&#45;simple&#45;lgbm/activity/&#45;8667945785219071127 -->
<g id="node31" class="node">
<title>http://purl.org/dj/kaggle/ieee&#45;simple&#45;lgbm/activity/&#45;8667945785219071127</title>
<ellipse fill="none" stroke="black" cx="5964.13" cy="-474" rx="151.37" ry="18"/>
<text text-anchor="middle" x="5964.13" y="-470.3" font-family="Times,serif" font-size="14.00">&#45;8667945785219071127 (Visualisation)</text>
</g>
<!-- http://purl.org/dj/kaggle/ieee&#45;simple&#45;lgbm/activity/&#45;8667945785219071127&#45;&gt;http://purl.org/dj/kaggle/ieee&#45;simple&#45;lgbm/activity/3239783043831155190 -->
<g id="edge45" class="edge">
<title>http://purl.org/dj/kaggle/ieee&#45;simple&#45;lgbm/activity/&#45;8667945785219071127&#45;&gt;http://purl.org/dj/kaggle/ieee&#45;simple&#45;lgbm/activity/3239783043831155190</title>
<path fill="none" stroke="black" d="M5964.13,-455.8C5964.13,-444.16 5964.13,-428.55 5964.13,-415.24"/>
<polygon fill="black" stroke="black" points="5967.63,-415.18 5964.13,-405.18 5960.63,-415.18 5967.63,-415.18"/>
<text text-anchor="middle" x="5987.63" y="-426.8" font-family="Times,serif" font-size="14.00">previous</text>
</g>
</g>
</svg>
