<?xml version="1.0" encoding="UTF-8" standalone="no"?>
<!DOCTYPE svg PUBLIC "-//W3C//DTD SVG 1.1//EN"
 "http://www.w3.org/Graphics/SVG/1.1/DTD/svg11.dtd">
<!-- Generated by graphviz version 2.44.1 (20200629.0846)
 -->
<!-- Pages: 1 -->
<svg width="1781pt" height="650pt"
 viewBox="0.00 0.00 1781.33 650.00" xmlns="http://www.w3.org/2000/svg" xmlns:xlink="http://www.w3.org/1999/xlink">
<g id="graph0" class="graph" transform="scale(1 1) rotate(0) translate(4 646)">
<polygon fill="white" stroke="transparent" points="-4,4 -4,-646 1777.33,-646 1777.33,4 -4,4"/>
<!-- http://purl.org/dj/kaggle/indexing&#45;selecting&#45;assigning#80085334 -->
<g id="node1" class="node">
<title>http://purl.org/dj/kaggle/indexing&#45;selecting&#45;assigning#80085334</title>
<ellipse fill="none" stroke="black" cx="848.39" cy="-213" rx="99.38" ry="18"/>
<text text-anchor="middle" x="848.39" y="-209.3" font-family="Times,serif" font-size="14.00">80085334 (pd(0): Reuse)</text>
</g>
<!-- http://purl.org/dj/python/lib/144966264 -->
<g id="node2" class="node">
<title>http://purl.org/dj/python/lib/144966264</title>
<ellipse fill="none" stroke="black" cx="844.39" cy="-105" rx="109.38" ry="18"/>
<text text-anchor="middle" x="844.39" y="-101.3" font-family="Times,serif" font-size="14.00">144966264 (pandas: Reuse)</text>
</g>
<!-- http://purl.org/dj/kaggle/indexing&#45;selecting&#45;assigning#80085334&#45;&gt;http://purl.org/dj/python/lib/144966264 -->
<g id="edge1" class="edge">
<title>http://purl.org/dj/kaggle/indexing&#45;selecting&#45;assigning#80085334&#45;&gt;http://purl.org/dj/python/lib/144966264</title>
<path fill="none" stroke="black" d="M847.75,-194.97C847.12,-178.38 846.16,-152.88 845.42,-133.43"/>
<polygon fill="black" stroke="black" points="848.92,-133.2 845.04,-123.34 841.92,-133.47 848.92,-133.2"/>
<text text-anchor="middle" x="885.89" y="-155.3" font-family="Times,serif" font-size="14.00">assignedFrom</text>
</g>
<!-- http://purl.org/dj/kaggle/indexing&#45;selecting&#45;assigning -->
<g id="node3" class="node">
<title>http://purl.org/dj/kaggle/indexing&#45;selecting&#45;assigning</title>
<ellipse fill="none" stroke="black" cx="1033.39" cy="-18" rx="111.58" ry="18"/>
<text text-anchor="middle" x="1033.39" y="-14.3" font-family="Times,serif" font-size="14.00">indexing&#45;selecting&#45;assigning</text>
</g>
<!-- http://purl.org/dj/kaggle/indexing&#45;selecting&#45;assigning#80085334&#45;&gt;http://purl.org/dj/kaggle/indexing&#45;selecting&#45;assigning -->
<g id="edge2" class="edge">
<title>http://purl.org/dj/kaggle/indexing&#45;selecting&#45;assigning#80085334&#45;&gt;http://purl.org/dj/kaggle/indexing&#45;selecting&#45;assigning</title>
<path fill="none" stroke="black" d="M894.99,-196.92C906.67,-191.77 918.64,-185.19 928.39,-177 931.38,-174.49 987.72,-88.75 1016.61,-44.65"/>
<polygon fill="black" stroke="black" points="1019.61,-46.45 1022.16,-36.17 1013.76,-42.62 1019.61,-46.45"/>
<text text-anchor="middle" x="1014.89" y="-101.3" font-family="Times,serif" font-size="14.00">appearsIn</text>
</g>
<!-- http://purl.org/dj/python/lib/144966264&#45;&gt;http://purl.org/dj/kaggle/indexing&#45;selecting&#45;assigning -->
<g id="edge3" class="edge">
<title>http://purl.org/dj/python/lib/144966264&#45;&gt;http://purl.org/dj/kaggle/indexing&#45;selecting&#45;assigning</title>
<path fill="none" stroke="black" d="M862.44,-87.07C874.82,-76.26 892.09,-62.69 909.39,-54 924.37,-46.48 941.21,-40.36 957.53,-35.47"/>
<polygon fill="black" stroke="black" points="958.96,-38.7 967.6,-32.58 957.03,-31.97 958.96,-38.7"/>
<text text-anchor="middle" x="942.39" y="-57.8" font-family="Times,serif" font-size="14.00">importedBy</text>
</g>
<!-- http://purl.org/dj/kaggle/indexing&#45;selecting&#45;assigning#496894939 -->
<g id="node4" class="node">
<title>http://purl.org/dj/kaggle/indexing&#45;selecting&#45;assigning#496894939</title>
<ellipse fill="none" stroke="black" cx="640.39" cy="-321" rx="148.67" ry="18"/>
<text text-anchor="middle" x="640.39" y="-317.3" font-family="Times,serif" font-size="14.00">496894939 (reviews(0)$0: Movement)</text>
</g>
<!-- http://purl.org/dj/kaggle/indexing&#45;selecting&#45;assigning#496894939&#45;&gt;http://purl.org/dj/kaggle/indexing&#45;selecting&#45;assigning#80085334 -->
<g id="edge4" class="edge">
<title>http://purl.org/dj/kaggle/indexing&#45;selecting&#45;assigning#496894939&#45;&gt;http://purl.org/dj/kaggle/indexing&#45;selecting&#45;assigning#80085334</title>
<path fill="none" stroke="black" d="M665.71,-303.24C689.35,-287.99 725.91,-265.43 759.39,-249 770.91,-243.34 783.6,-237.91 795.69,-233.08"/>
<polygon fill="black" stroke="black" points="797.19,-236.25 805.22,-229.35 794.63,-229.73 797.19,-236.25"/>
<text text-anchor="middle" x="804.89" y="-263.3" font-family="Times,serif" font-size="14.00">previousActivity</text>
</g>
<!-- http://purl.org/dj/kaggle/indexing&#45;selecting&#45;assigning#496894939&#45;&gt;http://purl.org/dj/python/lib/144966264 -->
<g id="edge5" class="edge">
<title>http://purl.org/dj/kaggle/indexing&#45;selecting&#45;assigning#496894939&#45;&gt;http://purl.org/dj/python/lib/144966264</title>
<path fill="none" stroke="black" d="M636.55,-302.86C631.78,-276.98 626.79,-227.52 649.39,-195 676.12,-156.52 723.73,-134.36 765.21,-121.78"/>
<polygon fill="black" stroke="black" points="766.42,-125.08 775.05,-118.94 764.48,-118.35 766.42,-125.08"/>
<text text-anchor="middle" x="694.89" y="-209.3" font-family="Times,serif" font-size="14.00">previousActivity</text>
</g>
<!-- http://purl.org/dj/kaggle/indexing&#45;selecting&#45;assigning#3018526890 -->
<g id="node5" class="node">
<title>http://purl.org/dj/kaggle/indexing&#45;selecting&#45;assigning#3018526890</title>
<ellipse fill="none" stroke="black" cx="443.39" cy="-105" rx="273.75" ry="18"/>
<text text-anchor="middle" x="443.39" y="-101.3" font-family="Times,serif" font-size="14.00">3018526890 (../input/wine&#45;reviews/winemag&#45;data&#45;130k&#45;v2.csv(0): Reuse)</text>
</g>
<!-- http://purl.org/dj/kaggle/indexing&#45;selecting&#45;assigning#496894939&#45;&gt;http://purl.org/dj/kaggle/indexing&#45;selecting&#45;assigning#3018526890 -->
<g id="edge6" class="edge">
<title>http://purl.org/dj/kaggle/indexing&#45;selecting&#45;assigning#496894939&#45;&gt;http://purl.org/dj/kaggle/indexing&#45;selecting&#45;assigning#3018526890</title>
<path fill="none" stroke="black" d="M624.6,-302.85C589.8,-265.05 506.4,-174.45 466.04,-130.6"/>
<polygon fill="black" stroke="black" points="468.6,-128.22 459.25,-123.23 463.45,-132.96 468.6,-128.22"/>
<text text-anchor="middle" x="582.89" y="-209.3" font-family="Times,serif" font-size="14.00">read_csv</text>
</g>
<!-- http://purl.org/dj/kaggle/indexing&#45;selecting&#45;assigning#29687986 -->
<g id="node6" class="node">
<title>http://purl.org/dj/kaggle/indexing&#45;selecting&#45;assigning#29687986</title>
<ellipse fill="none" stroke="black" cx="1060.39" cy="-213" rx="94.78" ry="18"/>
<text text-anchor="middle" x="1060.39" y="-209.3" font-family="Times,serif" font-size="14.00">29687986 (0(0): Reuse)</text>
</g>
<!-- http://purl.org/dj/kaggle/indexing&#45;selecting&#45;assigning#496894939&#45;&gt;http://purl.org/dj/kaggle/indexing&#45;selecting&#45;assigning#29687986 -->
<g id="edge7" class="edge">
<title>http://purl.org/dj/kaggle/indexing&#45;selecting&#45;assigning#496894939&#45;&gt;http://purl.org/dj/kaggle/indexing&#45;selecting&#45;assigning#29687986</title>
<path fill="none" stroke="black" d="M736.98,-307.26C772.86,-301.65 813.74,-294.21 850.39,-285 898.64,-272.87 909.26,-264.93 956.39,-249 972.53,-243.54 990.09,-237.63 1006.1,-232.24"/>
<polygon fill="black" stroke="black" points="1007.48,-235.47 1015.84,-228.96 1005.25,-228.83 1007.48,-235.47"/>
<text text-anchor="middle" x="1001.89" y="-263.3" font-family="Times,serif" font-size="14.00">previousActivity</text>
</g>
<!-- http://purl.org/dj/kaggle/indexing&#45;selecting&#45;assigning#3018526890&#45;&gt;http://purl.org/dj/kaggle/indexing&#45;selecting&#45;assigning -->
<g id="edge8" class="edge">
<title>http://purl.org/dj/kaggle/indexing&#45;selecting&#45;assigning#3018526890&#45;&gt;http://purl.org/dj/kaggle/indexing&#45;selecting&#45;assigning</title>
<path fill="none" stroke="black" d="M551.6,-88.41C663.92,-72.23 837.59,-47.21 942.87,-32.04"/>
<polygon fill="black" stroke="black" points="943.45,-35.49 952.84,-30.6 942.45,-28.57 943.45,-35.49"/>
<text text-anchor="middle" x="819.89" y="-57.8" font-family="Times,serif" font-size="14.00">previousActivity</text>
</g>
<!-- http://purl.org/dj/kaggle/indexing&#45;selecting&#45;assigning#29687986&#45;&gt;http://purl.org/dj/kaggle/indexing&#45;selecting&#45;assigning -->
<g id="edge9" class="edge">
<title>http://purl.org/dj/kaggle/indexing&#45;selecting&#45;assigning#29687986&#45;&gt;http://purl.org/dj/kaggle/indexing&#45;selecting&#45;assigning</title>
<path fill="none" stroke="black" d="M1058.9,-194.96C1056.7,-170.85 1052.21,-125.43 1046.39,-87 1044.36,-73.58 1041.59,-58.77 1039.13,-46.4"/>
<polygon fill="black" stroke="black" points="1042.49,-45.37 1037.07,-36.26 1035.63,-46.76 1042.49,-45.37"/>
<text text-anchor="middle" x="1096.89" y="-101.3" font-family="Times,serif" font-size="14.00">previousActivity</text>
</g>
<!-- http://purl.org/dj/kaggle/indexing&#45;selecting&#45;assigning#30998711 -->
<g id="node7" class="node">
<title>http://purl.org/dj/kaggle/indexing&#45;selecting&#45;assigning#30998711</title>
<ellipse fill="none" stroke="black" cx="1436.39" cy="-159" rx="94.78" ry="18"/>
<text text-anchor="middle" x="1436.39" y="-155.3" font-family="Times,serif" font-size="14.00">30998711 (5(0): Reuse)</text>
</g>
<!-- http://purl.org/dj/kaggle/indexing&#45;selecting&#45;assigning#30998711&#45;&gt;http://purl.org/dj/kaggle/indexing&#45;selecting&#45;assigning -->
<g id="edge10" class="edge">
<title>http://purl.org/dj/kaggle/indexing&#45;selecting&#45;assigning#30998711&#45;&gt;http://purl.org/dj/kaggle/indexing&#45;selecting&#45;assigning</title>
<path fill="none" stroke="black" d="M1397.8,-142.55C1360.7,-127.83 1302.95,-105.26 1252.39,-87 1209.16,-71.39 1198.25,-67.72 1154.39,-54 1135.55,-48.11 1114.95,-42.02 1096.18,-36.6"/>
<polygon fill="black" stroke="black" points="1097.12,-33.23 1086.55,-33.84 1095.19,-39.96 1097.12,-33.23"/>
<text text-anchor="middle" x="1371.89" y="-101.3" font-family="Times,serif" font-size="14.00">appearsIn</text>
</g>
<!-- http://purl.org/dj/kaggle/indexing&#45;selecting&#45;assigning#496960476 -->
<g id="node8" class="node">
<title>http://purl.org/dj/kaggle/indexing&#45;selecting&#45;assigning#496960476</title>
<ellipse fill="none" stroke="black" cx="550.39" cy="-429" rx="131.08" ry="18"/>
<text text-anchor="middle" x="550.39" y="-425.3" font-family="Times,serif" font-size="14.00">496960476 (reviews(0)$1: Reuse)</text>
</g>
<!-- http://purl.org/dj/kaggle/indexing&#45;selecting&#45;assigning#496960476&#45;&gt;http://purl.org/dj/kaggle/indexing&#45;selecting&#45;assigning#496894939 -->
<g id="edge11" class="edge">
<title>http://purl.org/dj/kaggle/indexing&#45;selecting&#45;assigning#496960476&#45;&gt;http://purl.org/dj/kaggle/indexing&#45;selecting&#45;assigning#496894939</title>
<path fill="none" stroke="black" d="M564.85,-410.97C579.61,-393.58 602.67,-366.42 619.43,-346.68"/>
<polygon fill="black" stroke="black" points="622.16,-348.88 625.96,-338.99 616.82,-344.35 622.16,-348.88"/>
<text text-anchor="middle" x="635.39" y="-371.3" font-family="Times,serif" font-size="14.00">set_index</text>
</g>
<!-- http://purl.org/dj/kaggle/indexing&#45;selecting&#45;assigning#233833124 -->
<g id="node9" class="node">
<title>http://purl.org/dj/kaggle/indexing&#45;selecting&#45;assigning#233833124</title>
<ellipse fill="none" stroke="black" cx="285.39" cy="-159" rx="108.58" ry="18"/>
<text text-anchor="middle" x="285.39" y="-155.3" font-family="Times,serif" font-size="14.00">233833124 (title(0): Reuse)</text>
</g>
<!-- http://purl.org/dj/kaggle/indexing&#45;selecting&#45;assigning#496960476&#45;&gt;http://purl.org/dj/kaggle/indexing&#45;selecting&#45;assigning#233833124 -->
<g id="edge12" class="edge">
<title>http://purl.org/dj/kaggle/indexing&#45;selecting&#45;assigning#496960476&#45;&gt;http://purl.org/dj/kaggle/indexing&#45;selecting&#45;assigning#233833124</title>
<path fill="none" stroke="black" d="M524.11,-411.32C498.75,-394.61 459.98,-367.35 430.39,-339 378.74,-289.52 328.49,-221.81 302.89,-185.49"/>
<polygon fill="black" stroke="black" points="305.53,-183.16 296.93,-176.97 299.79,-187.17 305.53,-183.16"/>
<text text-anchor="middle" x="456.39" y="-317.3" font-family="Times,serif" font-size="14.00">set_index</text>
</g>
<!-- http://purl.org/dj/kaggle/indexing&#45;selecting&#45;assigning#233833124&#45;&gt;http://purl.org/dj/kaggle/indexing&#45;selecting&#45;assigning -->
<g id="edge13" class="edge">
<title>http://purl.org/dj/kaggle/indexing&#45;selecting&#45;assigning#233833124&#45;&gt;http://purl.org/dj/kaggle/indexing&#45;selecting&#45;assigning</title>
<path fill="none" stroke="black" d="M195.43,-148.91C139.99,-142.37 77.88,-132.98 69.39,-123 59.02,-110.82 58.48,-98.7 69.39,-87 125.66,-26.62 664.97,-18.89 911.5,-18.54"/>
<polygon fill="black" stroke="black" points="911.59,-22.04 921.58,-18.53 911.58,-15.04 911.59,-22.04"/>
<text text-anchor="middle" x="114.89" y="-101.3" font-family="Times,serif" font-size="14.00">previousActivity</text>
</g>
<!-- http://purl.org/dj/kaggle/indexing&#45;selecting&#45;assigning#29950131 -->
<g id="node10" class="node">
<title>http://purl.org/dj/kaggle/indexing&#45;selecting&#45;assigning#29950131</title>
<ellipse fill="none" stroke="black" cx="1422.39" cy="-483" rx="94.78" ry="18"/>
<text text-anchor="middle" x="1422.39" y="-479.3" font-family="Times,serif" font-size="14.00">29950131 (1(0): Reuse)</text>
</g>
<!-- http://purl.org/dj/kaggle/indexing&#45;selecting&#45;assigning#29950131&#45;&gt;http://purl.org/dj/kaggle/indexing&#45;selecting&#45;assigning -->
<g id="edge14" class="edge">
<title>http://purl.org/dj/kaggle/indexing&#45;selecting&#45;assigning#29950131&#45;&gt;http://purl.org/dj/kaggle/indexing&#45;selecting&#45;assigning</title>
<path fill="none" stroke="black" d="M1463.68,-466.65C1499.75,-450.26 1546.39,-420.46 1546.39,-376 1546.39,-376 1546.39,-376 1546.39,-104 1546.39,-63.63 1295.89,-38.17 1144.98,-26.5"/>
<polygon fill="black" stroke="black" points="1144.98,-22.99 1134.74,-25.72 1144.45,-29.97 1144.98,-22.99"/>
<text text-anchor="middle" x="1591.89" y="-263.3" font-family="Times,serif" font-size="14.00">previousActivity</text>
</g>
<!-- http://purl.org/dj/kaggle/indexing&#45;selecting&#45;assigning#445383666 -->
<g id="node11" class="node">
<title>http://purl.org/dj/kaggle/indexing&#45;selecting&#45;assigning#445383666</title>
<ellipse fill="none" stroke="black" cx="1204.39" cy="-159" rx="131.88" ry="18"/>
<text text-anchor="middle" x="1204.39" y="-155.3" font-family="Times,serif" font-size="14.00">445383666 (max_rows(0): Reuse)</text>
</g>
<!-- http://purl.org/dj/kaggle/indexing&#45;selecting&#45;assigning#445383666&#45;&gt;http://purl.org/dj/kaggle/indexing&#45;selecting&#45;assigning -->
<g id="edge15" class="edge">
<title>http://purl.org/dj/kaggle/indexing&#45;selecting&#45;assigning#445383666&#45;&gt;http://purl.org/dj/kaggle/indexing&#45;selecting&#45;assigning</title>
<path fill="none" stroke="black" d="M1200.55,-140.89C1196.25,-125.19 1187.92,-102.13 1173.39,-87 1151.79,-64.51 1121.22,-48.48 1094.15,-37.65"/>
<polygon fill="black" stroke="black" points="1095.33,-34.36 1084.74,-34.04 1092.82,-40.89 1095.33,-34.36"/>
<text text-anchor="middle" x="1221.89" y="-101.3" font-family="Times,serif" font-size="14.00">appearsIn</text>
</g>
<!-- http://purl.org/dj/kaggle/indexing&#45;selecting&#45;assigning#448725999 -->
<g id="node12" class="node">
<title>http://purl.org/dj/kaggle/indexing&#45;selecting&#45;assigning#448725999</title>
<ellipse fill="none" stroke="black" cx="127.39" cy="-267" rx="127.28" ry="18"/>
<text text-anchor="middle" x="127.39" y="-263.3" font-family="Times,serif" font-size="14.00">448725999 (everyone(0): Reuse)</text>
</g>
<!-- http://purl.org/dj/kaggle/indexing&#45;selecting&#45;assigning#448725999&#45;&gt;http://purl.org/dj/kaggle/indexing&#45;selecting&#45;assigning -->
<g id="edge16" class="edge">
<title>http://purl.org/dj/kaggle/indexing&#45;selecting&#45;assigning#448725999&#45;&gt;http://purl.org/dj/kaggle/indexing&#45;selecting&#45;assigning</title>
<path fill="none" stroke="black" d="M115.15,-249.05C97.56,-223.34 66.38,-172.25 58.39,-123 55.83,-107.21 51.31,-101.35 58.39,-87 69.04,-65.39 78.73,-62.17 101.39,-54 175.54,-27.26 676.15,-20.95 911.53,-19.46"/>
<polygon fill="black" stroke="black" points="911.87,-22.96 921.85,-19.4 911.83,-15.96 911.87,-22.96"/>
<text text-anchor="middle" x="119.89" y="-155.3" font-family="Times,serif" font-size="14.00">previousActivity</text>
</g>
<!-- http://purl.org/dj/kaggle/indexing&#45;selecting&#45;assigning#497091550 -->
<g id="node13" class="node">
<title>http://purl.org/dj/kaggle/indexing&#45;selecting&#45;assigning#497091550</title>
<ellipse fill="none" stroke="black" cx="1080.39" cy="-624" rx="131.08" ry="18"/>
<text text-anchor="middle" x="1080.39" y="-620.3" font-family="Times,serif" font-size="14.00">497091550 (reviews(0)$3: Reuse)</text>
</g>
<!-- http://purl.org/dj/kaggle/indexing&#45;selecting&#45;assigning#497091550&#45;&gt;http://purl.org/dj/kaggle/indexing&#45;selecting&#45;assigning#29687986 -->
<g id="edge17" class="edge">
<title>http://purl.org/dj/kaggle/indexing&#45;selecting&#45;assigning#497091550&#45;&gt;http://purl.org/dj/kaggle/indexing&#45;selecting&#45;assigning#29687986</title>
<path fill="none" stroke="black" d="M1074.27,-605.99C1068.72,-589.01 1061.39,-562.04 1061.39,-538 1061.39,-538 1061.39,-538 1061.39,-320 1061.39,-293.24 1061.07,-262.67 1060.79,-241.26"/>
<polygon fill="black" stroke="black" points="1064.29,-241.21 1060.65,-231.26 1057.29,-241.3 1064.29,-241.21"/>
<text text-anchor="middle" x="1076.89" y="-425.3" font-family="Times,serif" font-size="14.00">range</text>
</g>
<!-- http://purl.org/dj/kaggle/indexing&#45;selecting&#45;assigning#497091550&#45;&gt;http://purl.org/dj/kaggle/indexing&#45;selecting&#45;assigning#29950131 -->
<g id="edge18" class="edge">
<title>http://purl.org/dj/kaggle/indexing&#45;selecting&#45;assigning#497091550&#45;&gt;http://purl.org/dj/kaggle/indexing&#45;selecting&#45;assigning#29950131</title>
<path fill="none" stroke="black" d="M1120.29,-606.78C1183.52,-581.08 1306.52,-531.09 1374.44,-503.49"/>
<polygon fill="black" stroke="black" points="1376.1,-506.59 1384.05,-499.58 1373.47,-500.1 1376.1,-506.59"/>
<text text-anchor="middle" x="1216.89" y="-576.8" font-family="Times,serif" font-size="14.00">range</text>
</g>
<!-- http://purl.org/dj/kaggle/indexing&#45;selecting&#45;assigning#497091550&#45;&gt;http://purl.org/dj/kaggle/indexing&#45;selecting&#45;assigning#497091550 -->
<g id="edge19" class="edge">
<title>http://purl.org/dj/kaggle/indexing&#45;selecting&#45;assigning#497091550&#45;&gt;http://purl.org/dj/kaggle/indexing&#45;selecting&#45;assigning#497091550</title>
<path fill="none" stroke="black" d="M1201.35,-631.05C1218.31,-629.9 1229.68,-627.55 1229.68,-624 1229.68,-621.23 1222.74,-619.19 1211.62,-617.88"/>
<polygon fill="black" stroke="black" points="1211.62,-614.37 1201.35,-616.95 1210.99,-621.34 1211.62,-614.37"/>
<text text-anchor="middle" x="1245.18" y="-620.3" font-family="Times,serif" font-size="14.00">range</text>
</g>
<!-- http://purl.org/dj/kaggle/indexing&#45;selecting&#45;assigning#121635265 -->
<g id="node14" class="node">
<title>http://purl.org/dj/kaggle/indexing&#45;selecting&#45;assigning#121635265</title>
<ellipse fill="none" stroke="black" cx="1667.39" cy="-375" rx="105.88" ry="18"/>
<text text-anchor="middle" x="1667.39" y="-371.3" font-family="Times,serif" font-size="14.00">121635265 (len(0): Reuse)</text>
</g>
<!-- http://purl.org/dj/kaggle/indexing&#45;selecting&#45;assigning#497091550&#45;&gt;http://purl.org/dj/kaggle/indexing&#45;selecting&#45;assigning#121635265 -->
<g id="edge20" class="edge">
<title>http://purl.org/dj/kaggle/indexing&#45;selecting&#45;assigning#497091550&#45;&gt;http://purl.org/dj/kaggle/indexing&#45;selecting&#45;assigning#121635265</title>
<path fill="none" stroke="black" d="M1172.42,-611.06C1266.19,-595.95 1413.49,-563.91 1526.39,-501 1574.45,-474.22 1620.22,-428.67 1645.96,-400.58"/>
<polygon fill="black" stroke="black" points="1648.57,-402.91 1652.68,-393.15 1643.38,-398.22 1648.57,-402.91"/>
<text text-anchor="middle" x="1505.89" y="-533.3" font-family="Times,serif" font-size="14.00">range</text>
</g>
<!-- http://purl.org/dj/kaggle/indexing&#45;selecting&#45;assigning#497026013 -->
<g id="node15" class="node">
<title>http://purl.org/dj/kaggle/indexing&#45;selecting&#45;assigning#497026013</title>
<ellipse fill="none" stroke="black" cx="550.39" cy="-537" rx="131.08" ry="18"/>
<text text-anchor="middle" x="550.39" y="-533.3" font-family="Times,serif" font-size="14.00">497026013 (reviews(0)$2: Reuse)</text>
</g>
<!-- http://purl.org/dj/kaggle/indexing&#45;selecting&#45;assigning#497091550&#45;&gt;http://purl.org/dj/kaggle/indexing&#45;selecting&#45;assigning#497026013 -->
<g id="edge21" class="edge">
<title>http://purl.org/dj/kaggle/indexing&#45;selecting&#45;assigning#497091550&#45;&gt;http://purl.org/dj/kaggle/indexing&#45;selecting&#45;assigning#497026013</title>
<path fill="none" stroke="black" d="M998.45,-609.86C902.23,-594.43 743.06,-568.9 642.61,-552.79"/>
<polygon fill="black" stroke="black" points="642.9,-549.29 632.47,-551.16 641.79,-556.2 642.9,-549.29"/>
<text text-anchor="middle" x="862.89" y="-576.8" font-family="Times,serif" font-size="14.00">range</text>
</g>
<!-- http://purl.org/dj/kaggle/indexing&#45;selecting&#45;assigning#121635265&#45;&gt;http://purl.org/dj/kaggle/indexing&#45;selecting&#45;assigning -->
<g id="edge22" class="edge">
<title>http://purl.org/dj/kaggle/indexing&#45;selecting&#45;assigning#121635265&#45;&gt;http://purl.org/dj/kaggle/indexing&#45;selecting&#45;assigning</title>
<path fill="none" stroke="black" d="M1665.55,-356.76C1663.48,-335.81 1660.39,-299.35 1660.39,-268 1660.39,-268 1660.39,-268 1660.39,-104 1660.39,-54.31 1608.34,-67.01 1560.39,-54 1486.54,-33.96 1284.98,-25.17 1153.63,-21.49"/>
<polygon fill="black" stroke="black" points="1153.6,-17.98 1143.51,-21.21 1153.41,-24.98 1153.6,-17.98"/>
<text text-anchor="middle" x="1705.89" y="-209.3" font-family="Times,serif" font-size="14.00">previousActivity</text>
</g>
<!-- http://purl.org/dj/kaggle/indexing&#45;selecting&#45;assigning#497026013&#45;&gt;http://purl.org/dj/kaggle/indexing&#45;selecting&#45;assigning#496960476 -->
<g id="edge23" class="edge">
<title>http://purl.org/dj/kaggle/indexing&#45;selecting&#45;assigning#497026013&#45;&gt;http://purl.org/dj/kaggle/indexing&#45;selecting&#45;assigning#496960476</title>
<path fill="none" stroke="black" d="M550.39,-518.97C550.39,-502.38 550.39,-476.88 550.39,-457.43"/>
<polygon fill="black" stroke="black" points="553.89,-457.34 550.39,-447.34 546.89,-457.34 553.89,-457.34"/>
<text text-anchor="middle" x="588.89" y="-479.3" font-family="Times,serif" font-size="14.00">assignedFrom</text>
</g>
<!-- http://purl.org/dj/kaggle/indexing&#45;selecting&#45;assigning#497026013&#45;&gt;http://purl.org/dj/kaggle/indexing&#45;selecting&#45;assigning#448725999 -->
<g id="edge24" class="edge">
<title>http://purl.org/dj/kaggle/indexing&#45;selecting&#45;assigning#497026013&#45;&gt;http://purl.org/dj/kaggle/indexing&#45;selecting&#45;assigning#448725999</title>
<path fill="none" stroke="black" d="M499.47,-520.39C454.02,-505.26 386.6,-479.79 333.39,-447 259.77,-401.63 186.41,-329.97 150.37,-292.56"/>
<polygon fill="black" stroke="black" points="152.69,-289.93 143.25,-285.12 147.63,-294.77 152.69,-289.93"/>
<text text-anchor="middle" x="371.89" y="-425.3" font-family="Times,serif" font-size="14.00">assignedFrom</text>
</g>
<!-- http://purl.org/dj/kaggle/indexing&#45;selecting&#45;assigning#132776362 -->
<g id="node16" class="node">
<title>http://purl.org/dj/kaggle/indexing&#45;selecting&#45;assigning#132776362</title>
<ellipse fill="none" stroke="black" cx="1204.39" cy="-321" rx="112.38" ry="18"/>
<text text-anchor="middle" x="1204.39" y="-317.3" font-family="Times,serif" font-size="14.00">132776362 (pd(0)$0: Reuse)</text>
</g>
<!-- http://purl.org/dj/kaggle/indexing&#45;selecting&#45;assigning#132776362&#45;&gt;http://purl.org/dj/kaggle/indexing&#45;selecting&#45;assigning#80085334 -->
<g id="edge25" class="edge">
<title>http://purl.org/dj/kaggle/indexing&#45;selecting&#45;assigning#132776362&#45;&gt;http://purl.org/dj/kaggle/indexing&#45;selecting&#45;assigning#80085334</title>
<path fill="none" stroke="black" d="M1154.02,-304.83C1106.05,-290.4 1031.83,-268.13 967.39,-249 948.05,-243.26 926.93,-237.03 907.92,-231.45"/>
<polygon fill="black" stroke="black" points="908.78,-228.05 898.2,-228.59 906.81,-234.77 908.78,-228.05"/>
<text text-anchor="middle" x="1112.89" y="-263.3" font-family="Times,serif" font-size="14.00">set_option</text>
</g>
<!-- http://purl.org/dj/kaggle/indexing&#45;selecting&#45;assigning#132776362&#45;&gt;http://purl.org/dj/kaggle/indexing&#45;selecting&#45;assigning#30998711 -->
<g id="edge26" class="edge">
<title>http://purl.org/dj/kaggle/indexing&#45;selecting&#45;assigning#132776362&#45;&gt;http://purl.org/dj/kaggle/indexing&#45;selecting&#45;assigning#30998711</title>
<path fill="none" stroke="black" d="M1234.57,-303.56C1244.52,-297.9 1255.56,-291.38 1265.39,-285 1316.85,-251.58 1373.87,-208.62 1407.34,-182.75"/>
<polygon fill="black" stroke="black" points="1409.57,-185.46 1415.33,-176.56 1405.28,-179.93 1409.57,-185.46"/>
<text text-anchor="middle" x="1345.89" y="-263.3" font-family="Times,serif" font-size="14.00">set_option</text>
</g>
<!-- http://purl.org/dj/kaggle/indexing&#45;selecting&#45;assigning#132776362&#45;&gt;http://purl.org/dj/kaggle/indexing&#45;selecting&#45;assigning#445383666 -->
<g id="edge27" class="edge">
<title>http://purl.org/dj/kaggle/indexing&#45;selecting&#45;assigning#132776362&#45;&gt;http://purl.org/dj/kaggle/indexing&#45;selecting&#45;assigning#445383666</title>
<path fill="none" stroke="black" d="M1204.39,-302.88C1204.39,-275.35 1204.39,-221.01 1204.39,-187.85"/>
<polygon fill="black" stroke="black" points="1207.89,-187.48 1204.39,-177.48 1200.89,-187.48 1207.89,-187.48"/>
<text text-anchor="middle" x="1232.89" y="-263.3" font-family="Times,serif" font-size="14.00">set_option</text>
</g>
</g>
</svg>
