<?xml version="1.0" encoding="UTF-8" standalone="no"?>
<!DOCTYPE svg PUBLIC "-//W3C//DTD SVG 1.1//EN"
 "http://www.w3.org/Graphics/SVG/1.1/DTD/svg11.dtd">
<!-- Generated by graphviz version 2.47.1 (20210417.1919)
 -->
<!-- Pages: 1 -->
<svg width="1530pt" height="650pt"
 viewBox="0.00 0.00 1529.85 650.00" xmlns="http://www.w3.org/2000/svg" xmlns:xlink="http://www.w3.org/1999/xlink">
<g id="graph0" class="graph" transform="scale(1 1) rotate(0) translate(4 646)">
<polygon fill="white" stroke="transparent" points="-4,4 -4,-646 1525.85,-646 1525.85,4 -4,4"/>
<!-- http://purl.org/dj/kaggle/indexing&#45;selecting&#45;assigning#497091550 -->
<g id="node1" class="node">
<title>http://purl.org/dj/kaggle/indexing&#45;selecting&#45;assigning#497091550</title>
<ellipse fill="none" stroke="black" cx="727.92" cy="-624" rx="131.08" ry="18"/>
<text text-anchor="middle" x="727.92" y="-620.3" font-family="Times,serif" font-size="14.00">497091550 (reviews(0)$3: Reuse)</text>
</g>
<!-- http://purl.org/dj/kaggle/indexing&#45;selecting&#45;assigning#497091550&#45;&gt;http://purl.org/dj/kaggle/indexing&#45;selecting&#45;assigning#497091550 -->
<g id="edge1" class="edge">
<title>http://purl.org/dj/kaggle/indexing&#45;selecting&#45;assigning#497091550&#45;&gt;http://purl.org/dj/kaggle/indexing&#45;selecting&#45;assigning#497091550</title>
<path fill="none" stroke="black" d="M848.87,-631.05C865.84,-629.9 877.2,-627.55 877.2,-624 877.2,-621.23 870.27,-619.19 859.14,-617.88"/>
<polygon fill="black" stroke="black" points="859.15,-614.37 848.87,-616.95 858.52,-621.34 859.15,-614.37"/>
<text text-anchor="middle" x="898.7" y="-620.3" font-family="Times,serif" font-size="14.00">range ()</text>
</g>
<!-- http://purl.org/dj/kaggle/indexing&#45;selecting&#45;assigning#29687986 -->
<g id="node2" class="node">
<title>http://purl.org/dj/kaggle/indexing&#45;selecting&#45;assigning#29687986</title>
<ellipse fill="none" stroke="black" cx="107.92" cy="-213" rx="94.78" ry="18"/>
<text text-anchor="middle" x="107.92" y="-209.3" font-family="Times,serif" font-size="14.00">29687986 (0(0): Reuse)</text>
</g>
<!-- http://purl.org/dj/kaggle/indexing&#45;selecting&#45;assigning#497091550&#45;&gt;http://purl.org/dj/kaggle/indexing&#45;selecting&#45;assigning#29687986 -->
<g id="edge2" class="edge">
<title>http://purl.org/dj/kaggle/indexing&#45;selecting&#45;assigning#497091550&#45;&gt;http://purl.org/dj/kaggle/indexing&#45;selecting&#45;assigning#29687986</title>
<path fill="none" stroke="black" d="M602.03,-618.82C414.84,-610.9 84.92,-589.62 84.92,-538 84.92,-538 84.92,-538 84.92,-320 84.92,-292.49 92.41,-261.86 98.84,-240.62"/>
<polygon fill="black" stroke="black" points="102.2,-241.6 101.87,-231.01 95.52,-239.49 102.2,-241.6"/>
<text text-anchor="middle" x="106.42" y="-425.3" font-family="Times,serif" font-size="14.00">range ()</text>
</g>
<!-- http://purl.org/dj/kaggle/indexing&#45;selecting&#45;assigning#497026013 -->
<g id="node3" class="node">
<title>http://purl.org/dj/kaggle/indexing&#45;selecting&#45;assigning#497026013</title>
<ellipse fill="none" stroke="black" cx="512.92" cy="-537" rx="131.08" ry="18"/>
<text text-anchor="middle" x="512.92" y="-533.3" font-family="Times,serif" font-size="14.00">497026013 (reviews(0)$2: Reuse)</text>
</g>
<!-- http://purl.org/dj/kaggle/indexing&#45;selecting&#45;assigning#497091550&#45;&gt;http://purl.org/dj/kaggle/indexing&#45;selecting&#45;assigning#497026013 -->
<g id="edge3" class="edge">
<title>http://purl.org/dj/kaggle/indexing&#45;selecting&#45;assigning#497091550&#45;&gt;http://purl.org/dj/kaggle/indexing&#45;selecting&#45;assigning#497026013</title>
<path fill="none" stroke="black" d="M686.97,-606.81C651.85,-592.93 601.11,-572.87 563.47,-557.99"/>
<polygon fill="black" stroke="black" points="564.3,-554.55 553.71,-554.13 561.72,-561.06 564.3,-554.55"/>
<text text-anchor="middle" x="654.42" y="-576.8" font-family="Times,serif" font-size="14.00">range ()</text>
</g>
<!-- http://purl.org/dj/kaggle/indexing&#45;selecting&#45;assigning#29950131 -->
<g id="node4" class="node">
<title>http://purl.org/dj/kaggle/indexing&#45;selecting&#45;assigning#29950131</title>
<ellipse fill="none" stroke="black" cx="765.92" cy="-483" rx="94.78" ry="18"/>
<text text-anchor="middle" x="765.92" y="-479.3" font-family="Times,serif" font-size="14.00">29950131 (1(0): Reuse)</text>
</g>
<!-- http://purl.org/dj/kaggle/indexing&#45;selecting&#45;assigning#497091550&#45;&gt;http://purl.org/dj/kaggle/indexing&#45;selecting&#45;assigning#29950131 -->
<g id="edge4" class="edge">
<title>http://purl.org/dj/kaggle/indexing&#45;selecting&#45;assigning#497091550&#45;&gt;http://purl.org/dj/kaggle/indexing&#45;selecting&#45;assigning#29950131</title>
<path fill="none" stroke="black" d="M732.57,-605.96C739.04,-582.3 750.81,-539.26 758.49,-511.15"/>
<polygon fill="black" stroke="black" points="761.96,-511.75 761.22,-501.18 755.2,-509.91 761.96,-511.75"/>
<text text-anchor="middle" x="762.42" y="-576.8" font-family="Times,serif" font-size="14.00">range ()</text>
</g>
<!-- http://purl.org/dj/kaggle/indexing&#45;selecting&#45;assigning#121635265 -->
<g id="node5" class="node">
<title>http://purl.org/dj/kaggle/indexing&#45;selecting&#45;assigning#121635265</title>
<ellipse fill="none" stroke="black" cx="1056.92" cy="-375" rx="105.88" ry="18"/>
<text text-anchor="middle" x="1056.92" y="-371.3" font-family="Times,serif" font-size="14.00">121635265 (len(0): Reuse)</text>
</g>
<!-- http://purl.org/dj/kaggle/indexing&#45;selecting&#45;assigning#497091550&#45;&gt;http://purl.org/dj/kaggle/indexing&#45;selecting&#45;assigning#121635265 -->
<g id="edge5" class="edge">
<title>http://purl.org/dj/kaggle/indexing&#45;selecting&#45;assigning#497091550&#45;&gt;http://purl.org/dj/kaggle/indexing&#45;selecting&#45;assigning#121635265</title>
<path fill="none" stroke="black" d="M758.33,-606.36C767.97,-600.79 778.55,-594.38 787.92,-588 880.38,-525.05 982.21,-440.14 1029.71,-399.53"/>
<polygon fill="black" stroke="black" points="1032.08,-402.11 1037.39,-392.95 1027.52,-396.8 1032.08,-402.11"/>
<text text-anchor="middle" x="902.42" y="-533.3" font-family="Times,serif" font-size="14.00">range ()</text>
</g>
<!-- http://purl.org/dj/kaggle/indexing&#45;selecting&#45;assigning -->
<g id="node6" class="node">
<title>http://purl.org/dj/kaggle/indexing&#45;selecting&#45;assigning</title>
<ellipse fill="none" stroke="black" cx="819.92" cy="-18" rx="243.16" ry="18"/>
<text text-anchor="middle" x="819.92" y="-14.3" font-family="Times,serif" font-size="14.00">indexing&#45;selecting&#45;assigning (indexing&#45;selecting&#45;assigning.ipynb)</text>
</g>
<!-- http://purl.org/dj/kaggle/indexing&#45;selecting&#45;assigning#29687986&#45;&gt;http://purl.org/dj/kaggle/indexing&#45;selecting&#45;assigning -->
<g id="edge6" class="edge">
<title>http://purl.org/dj/kaggle/indexing&#45;selecting&#45;assigning#29687986&#45;&gt;http://purl.org/dj/kaggle/indexing&#45;selecting&#45;assigning</title>
<path fill="none" stroke="black" d="M90.79,-195.27C86.38,-189.9 82.23,-183.61 79.92,-177 74.62,-161.9 70.19,-153.7 79.92,-141 139.78,-62.82 387.21,-34.44 579.67,-24.3"/>
<polygon fill="black" stroke="black" points="579.85,-27.79 589.66,-23.78 579.49,-20.8 579.85,-27.79"/>
<text text-anchor="middle" x="194.92" y="-101.3" font-family="Times,serif" font-size="14.00">appearsIn ()</text>
</g>
<!-- http://purl.org/dj/kaggle/indexing&#45;selecting&#45;assigning#496960476 -->
<g id="node7" class="node">
<title>http://purl.org/dj/kaggle/indexing&#45;selecting&#45;assigning#496960476</title>
<ellipse fill="none" stroke="black" cx="512.92" cy="-429" rx="131.08" ry="18"/>
<text text-anchor="middle" x="512.92" y="-425.3" font-family="Times,serif" font-size="14.00">496960476 (reviews(0)$1: Reuse)</text>
</g>
<!-- http://purl.org/dj/kaggle/indexing&#45;selecting&#45;assigning#497026013&#45;&gt;http://purl.org/dj/kaggle/indexing&#45;selecting&#45;assigning#496960476 -->
<g id="edge7" class="edge">
<title>http://purl.org/dj/kaggle/indexing&#45;selecting&#45;assigning#497026013&#45;&gt;http://purl.org/dj/kaggle/indexing&#45;selecting&#45;assigning#496960476</title>
<path fill="none" stroke="black" d="M512.92,-518.97C512.92,-502.38 512.92,-476.88 512.92,-457.43"/>
<polygon fill="black" stroke="black" points="516.42,-457.34 512.92,-447.34 509.42,-457.34 516.42,-457.34"/>
<text text-anchor="middle" x="557.92" y="-479.3" font-family="Times,serif" font-size="14.00">assignedFrom ()</text>
</g>
<!-- http://purl.org/dj/kaggle/indexing&#45;selecting&#45;assigning#448725999 -->
<g id="node8" class="node">
<title>http://purl.org/dj/kaggle/indexing&#45;selecting&#45;assigning#448725999</title>
<ellipse fill="none" stroke="black" cx="226.92" cy="-267" rx="127.28" ry="18"/>
<text text-anchor="middle" x="226.92" y="-263.3" font-family="Times,serif" font-size="14.00">448725999 (everyone(0): Reuse)</text>
</g>
<!-- http://purl.org/dj/kaggle/indexing&#45;selecting&#45;assigning#497026013&#45;&gt;http://purl.org/dj/kaggle/indexing&#45;selecting&#45;assigning#448725999 -->
<g id="edge8" class="edge">
<title>http://purl.org/dj/kaggle/indexing&#45;selecting&#45;assigning#497026013&#45;&gt;http://purl.org/dj/kaggle/indexing&#45;selecting&#45;assigning#448725999</title>
<path fill="none" stroke="black" d="M431.32,-522.83C382.16,-510.89 321.76,-488.49 282.92,-447 243.05,-404.41 231.56,-333.77 228.25,-295.19"/>
<polygon fill="black" stroke="black" points="231.74,-294.93 227.51,-285.21 224.76,-295.44 231.74,-294.93"/>
<text text-anchor="middle" x="327.92" y="-425.3" font-family="Times,serif" font-size="14.00">assignedFrom ()</text>
</g>
<!-- http://purl.org/dj/kaggle/indexing&#45;selecting&#45;assigning#29950131&#45;&gt;http://purl.org/dj/kaggle/indexing&#45;selecting&#45;assigning -->
<g id="edge9" class="edge">
<title>http://purl.org/dj/kaggle/indexing&#45;selecting&#45;assigning#29950131&#45;&gt;http://purl.org/dj/kaggle/indexing&#45;selecting&#45;assigning</title>
<path fill="none" stroke="black" d="M797.01,-465.87C826.36,-448.16 865.92,-416.73 865.92,-376 865.92,-376 865.92,-376 865.92,-212 865.92,-179.84 874.38,-164.01 851.92,-141 826.15,-114.61 793.99,-151.77 770.92,-123 751.59,-98.91 773.53,-65.94 793.92,-43.63"/>
<polygon fill="black" stroke="black" points="796.62,-45.87 800.99,-36.21 791.55,-41.03 796.62,-45.87"/>
<text text-anchor="middle" x="898.92" y="-263.3" font-family="Times,serif" font-size="14.00">appearsIn ()</text>
</g>
<!-- http://purl.org/dj/kaggle/indexing&#45;selecting&#45;assigning#121635265&#45;&gt;http://purl.org/dj/kaggle/indexing&#45;selecting&#45;assigning -->
<g id="edge10" class="edge">
<title>http://purl.org/dj/kaggle/indexing&#45;selecting&#45;assigning#121635265&#45;&gt;http://purl.org/dj/kaggle/indexing&#45;selecting&#45;assigning</title>
<path fill="none" stroke="black" d="M1077.45,-357.19C1098.42,-338.02 1127.92,-304.55 1127.92,-268 1127.92,-268 1127.92,-268 1127.92,-104 1127.92,-67.89 1048.27,-46.53 969.98,-34.25"/>
<polygon fill="black" stroke="black" points="970.36,-30.77 959.95,-32.72 969.31,-37.69 970.36,-30.77"/>
<text text-anchor="middle" x="1160.92" y="-209.3" font-family="Times,serif" font-size="14.00">appearsIn ()</text>
</g>
<!-- http://purl.org/dj/kaggle/indexing&#45;selecting&#45;assigning#496894939 -->
<g id="node10" class="node">
<title>http://purl.org/dj/kaggle/indexing&#45;selecting&#45;assigning#496894939</title>
<ellipse fill="none" stroke="black" cx="600.92" cy="-321" rx="148.67" ry="18"/>
<text text-anchor="middle" x="600.92" y="-317.3" font-family="Times,serif" font-size="14.00">496894939 (reviews(0)$0: Movement)</text>
</g>
<!-- http://purl.org/dj/kaggle/indexing&#45;selecting&#45;assigning#496960476&#45;&gt;http://purl.org/dj/kaggle/indexing&#45;selecting&#45;assigning#496894939 -->
<g id="edge18" class="edge">
<title>http://purl.org/dj/kaggle/indexing&#45;selecting&#45;assigning#496960476&#45;&gt;http://purl.org/dj/kaggle/indexing&#45;selecting&#45;assigning#496894939</title>
<path fill="none" stroke="black" d="M527.05,-410.97C541.42,-393.66 563.84,-366.66 580.21,-346.94"/>
<polygon fill="black" stroke="black" points="583.12,-348.92 586.81,-338.99 577.73,-344.45 583.12,-348.92"/>
<text text-anchor="middle" x="602.42" y="-371.3" font-family="Times,serif" font-size="14.00">set_index ()</text>
</g>
<!-- http://purl.org/dj/kaggle/indexing&#45;selecting&#45;assigning#233833124 -->
<g id="node13" class="node">
<title>http://purl.org/dj/kaggle/indexing&#45;selecting&#45;assigning#233833124</title>
<ellipse fill="none" stroke="black" cx="189.92" cy="-159" rx="108.58" ry="18"/>
<text text-anchor="middle" x="189.92" y="-155.3" font-family="Times,serif" font-size="14.00">233833124 (title(0): Reuse)</text>
</g>
<!-- http://purl.org/dj/kaggle/indexing&#45;selecting&#45;assigning#496960476&#45;&gt;http://purl.org/dj/kaggle/indexing&#45;selecting&#45;assigning#233833124 -->
<g id="edge19" class="edge">
<title>http://purl.org/dj/kaggle/indexing&#45;selecting&#45;assigning#496960476&#45;&gt;http://purl.org/dj/kaggle/indexing&#45;selecting&#45;assigning#233833124</title>
<path fill="none" stroke="black" d="M473.67,-411.76C443.1,-397.13 401.94,-372.72 377.92,-339 353.96,-305.38 380.33,-281.53 354.92,-249 328.54,-215.24 285.67,-192.67 250.24,-178.7"/>
<polygon fill="black" stroke="black" points="251.05,-175.27 240.46,-174.99 248.57,-181.81 251.05,-175.27"/>
<text text-anchor="middle" x="410.42" y="-317.3" font-family="Times,serif" font-size="14.00">set_index ()</text>
</g>
<!-- http://purl.org/dj/kaggle/indexing&#45;selecting&#45;assigning#448725999&#45;&gt;http://purl.org/dj/kaggle/indexing&#45;selecting&#45;assigning -->
<g id="edge20" class="edge">
<title>http://purl.org/dj/kaggle/indexing&#45;selecting&#45;assigning#448725999&#45;&gt;http://purl.org/dj/kaggle/indexing&#45;selecting&#45;assigning</title>
<path fill="none" stroke="black" d="M106.94,-260.94C61.85,-256.3 18.05,-247.53 3.92,-231 -1.38,-224.81 -1.4,-151.74 4.92,-141 29.14,-99.8 53.63,-104.97 97.92,-87 153.95,-64.26 170.14,-63.16 229.92,-54 342.79,-36.7 469.02,-27.82 575.67,-23.32"/>
<polygon fill="black" stroke="black" points="576.08,-26.81 585.92,-22.9 575.79,-19.81 576.08,-26.81"/>
<text text-anchor="middle" x="37.92" y="-155.3" font-family="Times,serif" font-size="14.00">appearsIn ()</text>
</g>
<!-- http://purl.org/dj/python/lib/144966264 -->
<g id="node9" class="node">
<title>http://purl.org/dj/python/lib/144966264</title>
<ellipse fill="none" stroke="black" cx="888.92" cy="-105" rx="109.38" ry="18"/>
<text text-anchor="middle" x="888.92" y="-101.3" font-family="Times,serif" font-size="14.00">144966264 (pandas: Reuse)</text>
</g>
<!-- http://purl.org/dj/python/lib/144966264&#45;&gt;http://purl.org/dj/kaggle/indexing&#45;selecting&#45;assigning -->
<g id="edge11" class="edge">
<title>http://purl.org/dj/python/lib/144966264&#45;&gt;http://purl.org/dj/kaggle/indexing&#45;selecting&#45;assigning</title>
<path fill="none" stroke="black" d="M874.95,-86.8C865.04,-74.59 851.57,-57.99 840.43,-44.28"/>
<polygon fill="black" stroke="black" points="842.88,-41.73 833.86,-36.18 837.44,-46.15 842.88,-41.73"/>
<text text-anchor="middle" x="897.42" y="-57.8" font-family="Times,serif" font-size="14.00">importedBy ()</text>
</g>
<!-- http://purl.org/dj/kaggle/indexing&#45;selecting&#45;assigning#496894939&#45;&gt;http://purl.org/dj/kaggle/indexing&#45;selecting&#45;assigning#29687986 -->
<g id="edge12" class="edge">
<title>http://purl.org/dj/kaggle/indexing&#45;selecting&#45;assigning#496894939&#45;&gt;http://purl.org/dj/kaggle/indexing&#45;selecting&#45;assigning#29687986</title>
<path fill="none" stroke="black" d="M554.5,-303.84C506.93,-287.83 430.55,-263.64 362.92,-249 309.5,-237.44 248.92,-228.94 200.22,-223.21"/>
<polygon fill="black" stroke="black" points="200.35,-219.7 190.01,-222.03 199.54,-226.65 200.35,-219.7"/>
<text text-anchor="middle" x="524.42" y="-263.3" font-family="Times,serif" font-size="14.00">read_csv ()</text>
</g>
<!-- http://purl.org/dj/kaggle/indexing&#45;selecting&#45;assigning#3018526890 -->
<g id="node11" class="node">
<title>http://purl.org/dj/kaggle/indexing&#45;selecting&#45;assigning#3018526890</title>
<ellipse fill="none" stroke="black" cx="576.92" cy="-159" rx="273.75" ry="18"/>
<text text-anchor="middle" x="576.92" y="-155.3" font-family="Times,serif" font-size="14.00">3018526890 (../input/wine&#45;reviews/winemag&#45;data&#45;130k&#45;v2.csv(0): Reuse)</text>
</g>
<!-- http://purl.org/dj/kaggle/indexing&#45;selecting&#45;assigning#496894939&#45;&gt;http://purl.org/dj/kaggle/indexing&#45;selecting&#45;assigning#3018526890 -->
<g id="edge13" class="edge">
<title>http://purl.org/dj/kaggle/indexing&#45;selecting&#45;assigning#496894939&#45;&gt;http://purl.org/dj/kaggle/indexing&#45;selecting&#45;assigning#3018526890</title>
<path fill="none" stroke="black" d="M598.35,-302.88C594.18,-275.09 585.91,-219.96 580.95,-186.9"/>
<polygon fill="black" stroke="black" points="584.41,-186.37 579.47,-177 577.49,-187.41 584.41,-186.37"/>
<text text-anchor="middle" x="625.42" y="-263.3" font-family="Times,serif" font-size="14.00">read_csv ()</text>
</g>
<!-- http://purl.org/dj/kaggle/indexing&#45;selecting&#45;assigning#80085334 -->
<g id="node12" class="node">
<title>http://purl.org/dj/kaggle/indexing&#45;selecting&#45;assigning#80085334</title>
<ellipse fill="none" stroke="black" cx="992.92" cy="-213" rx="99.38" ry="18"/>
<text text-anchor="middle" x="992.92" y="-209.3" font-family="Times,serif" font-size="14.00">80085334 (pd(0): Reuse)</text>
</g>
<!-- http://purl.org/dj/kaggle/indexing&#45;selecting&#45;assigning#496894939&#45;&gt;http://purl.org/dj/kaggle/indexing&#45;selecting&#45;assigning#80085334 -->
<g id="edge14" class="edge">
<title>http://purl.org/dj/kaggle/indexing&#45;selecting&#45;assigning#496894939&#45;&gt;http://purl.org/dj/kaggle/indexing&#45;selecting&#45;assigning#80085334</title>
<path fill="none" stroke="black" d="M636.77,-303.46C672.94,-287.38 730.76,-263.35 782.92,-249 821.27,-238.44 864.5,-230.58 901.71,-225.01"/>
<polygon fill="black" stroke="black" points="902.66,-228.4 912.04,-223.49 901.64,-221.48 902.66,-228.4"/>
<text text-anchor="middle" x="813.42" y="-263.3" font-family="Times,serif" font-size="14.00">read_csv ()</text>
</g>
<!-- http://purl.org/dj/kaggle/indexing&#45;selecting&#45;assigning#3018526890&#45;&gt;http://purl.org/dj/kaggle/indexing&#45;selecting&#45;assigning -->
<g id="edge15" class="edge">
<title>http://purl.org/dj/kaggle/indexing&#45;selecting&#45;assigning#3018526890&#45;&gt;http://purl.org/dj/kaggle/indexing&#45;selecting&#45;assigning</title>
<path fill="none" stroke="black" d="M597.66,-140.8C616.41,-125.67 645.1,-103.54 671.92,-87 699.83,-69.78 708.15,-67.78 737.92,-54 748.24,-49.22 759.39,-44.3 770.04,-39.72"/>
<polygon fill="black" stroke="black" points="771.42,-42.94 779.25,-35.79 768.67,-36.5 771.42,-42.94"/>
<text text-anchor="middle" x="704.92" y="-101.3" font-family="Times,serif" font-size="14.00">appearsIn ()</text>
</g>
<!-- http://purl.org/dj/kaggle/indexing&#45;selecting&#45;assigning#80085334&#45;&gt;http://purl.org/dj/kaggle/indexing&#45;selecting&#45;assigning -->
<g id="edge16" class="edge">
<title>http://purl.org/dj/kaggle/indexing&#45;selecting&#45;assigning#80085334&#45;&gt;http://purl.org/dj/kaggle/indexing&#45;selecting&#45;assigning</title>
<path fill="none" stroke="black" d="M1009.44,-195.18C1013.69,-189.8 1017.69,-183.54 1019.92,-177 1032.96,-138.75 1032.07,-118.64 1006.92,-87 987.99,-63.19 959.96,-47.72 931.33,-37.66"/>
<polygon fill="black" stroke="black" points="932.2,-34.26 921.61,-34.45 930.01,-40.91 932.2,-34.26"/>
<text text-anchor="middle" x="1058.92" y="-101.3" font-family="Times,serif" font-size="14.00">appearsIn ()</text>
</g>
<!-- http://purl.org/dj/kaggle/indexing&#45;selecting&#45;assigning#80085334&#45;&gt;http://purl.org/dj/python/lib/144966264 -->
<g id="edge17" class="edge">
<title>http://purl.org/dj/kaggle/indexing&#45;selecting&#45;assigning#80085334&#45;&gt;http://purl.org/dj/python/lib/144966264</title>
<path fill="none" stroke="black" d="M956.62,-196.18C947.21,-190.97 937.59,-184.55 929.92,-177 917.14,-164.43 907.01,-147.04 900.01,-132.62"/>
<polygon fill="black" stroke="black" points="903.04,-130.83 895.68,-123.21 896.68,-133.76 903.04,-130.83"/>
<text text-anchor="middle" x="974.92" y="-155.3" font-family="Times,serif" font-size="14.00">assignedFrom ()</text>
</g>
<!-- http://purl.org/dj/kaggle/indexing&#45;selecting&#45;assigning#233833124&#45;&gt;http://purl.org/dj/kaggle/indexing&#45;selecting&#45;assigning -->
<g id="edge21" class="edge">
<title>http://purl.org/dj/kaggle/indexing&#45;selecting&#45;assigning#233833124&#45;&gt;http://purl.org/dj/kaggle/indexing&#45;selecting&#45;assigning</title>
<path fill="none" stroke="black" d="M252.34,-144.23C366.39,-119.06 608.49,-65.65 736.52,-37.4"/>
<polygon fill="black" stroke="black" points="737.28,-40.82 746.29,-35.24 735.77,-33.98 737.28,-40.82"/>
<text text-anchor="middle" x="537.92" y="-101.3" font-family="Times,serif" font-size="14.00">appearsIn ()</text>
</g>
<!-- http://purl.org/dj/kaggle/indexing&#45;selecting&#45;assigning#132776362 -->
<g id="node14" class="node">
<title>http://purl.org/dj/kaggle/indexing&#45;selecting&#45;assigning#132776362</title>
<ellipse fill="none" stroke="black" cx="1267.92" cy="-321" rx="112.38" ry="18"/>
<text text-anchor="middle" x="1267.92" y="-317.3" font-family="Times,serif" font-size="14.00">132776362 (pd(0)$0: Reuse)</text>
</g>
<!-- http://purl.org/dj/kaggle/indexing&#45;selecting&#45;assigning#132776362&#45;&gt;http://purl.org/dj/kaggle/indexing&#45;selecting&#45;assigning#80085334 -->
<g id="edge22" class="edge">
<title>http://purl.org/dj/kaggle/indexing&#45;selecting&#45;assigning#132776362&#45;&gt;http://purl.org/dj/kaggle/indexing&#45;selecting&#45;assigning#80085334</title>
<path fill="none" stroke="black" d="M1223.37,-304.28C1206.85,-298.36 1187.99,-291.48 1170.92,-285 1126.71,-268.21 1076.72,-248.18 1040.99,-233.68"/>
<polygon fill="black" stroke="black" points="1041.89,-230.27 1031.31,-229.74 1039.26,-236.75 1041.89,-230.27"/>
<text text-anchor="middle" x="1205.92" y="-263.3" font-family="Times,serif" font-size="14.00">set_option ()</text>
</g>
<!-- http://purl.org/dj/kaggle/indexing&#45;selecting&#45;assigning#445383666 -->
<g id="node15" class="node">
<title>http://purl.org/dj/kaggle/indexing&#45;selecting&#45;assigning#445383666</title>
<ellipse fill="none" stroke="black" cx="1389.92" cy="-105" rx="131.88" ry="18"/>
<text text-anchor="middle" x="1389.92" y="-101.3" font-family="Times,serif" font-size="14.00">445383666 (max_rows(0): Reuse)</text>
</g>
<!-- http://purl.org/dj/kaggle/indexing&#45;selecting&#45;assigning#132776362&#45;&gt;http://purl.org/dj/kaggle/indexing&#45;selecting&#45;assigning#445383666 -->
<g id="edge23" class="edge">
<title>http://purl.org/dj/kaggle/indexing&#45;selecting&#45;assigning#132776362&#45;&gt;http://purl.org/dj/kaggle/indexing&#45;selecting&#45;assigning#445383666</title>
<path fill="none" stroke="black" d="M1310.55,-304.18C1319.59,-299.19 1328.37,-292.87 1334.92,-285 1371.9,-240.52 1384.05,-171.4 1388.01,-133.38"/>
<polygon fill="black" stroke="black" points="1391.53,-133.36 1388.96,-123.08 1384.56,-132.71 1391.53,-133.36"/>
<text text-anchor="middle" x="1410.92" y="-209.3" font-family="Times,serif" font-size="14.00">set_option ()</text>
</g>
<!-- http://purl.org/dj/kaggle/indexing&#45;selecting&#45;assigning#30998711 -->
<g id="node16" class="node">
<title>http://purl.org/dj/kaggle/indexing&#45;selecting&#45;assigning#30998711</title>
<ellipse fill="none" stroke="black" cx="1239.92" cy="-159" rx="94.78" ry="18"/>
<text text-anchor="middle" x="1239.92" y="-155.3" font-family="Times,serif" font-size="14.00">30998711 (5(0): Reuse)</text>
</g>
<!-- http://purl.org/dj/kaggle/indexing&#45;selecting&#45;assigning#132776362&#45;&gt;http://purl.org/dj/kaggle/indexing&#45;selecting&#45;assigning#30998711 -->
<g id="edge24" class="edge">
<title>http://purl.org/dj/kaggle/indexing&#45;selecting&#45;assigning#132776362&#45;&gt;http://purl.org/dj/kaggle/indexing&#45;selecting&#45;assigning#30998711</title>
<path fill="none" stroke="black" d="M1264.92,-302.88C1260.06,-275.09 1250.41,-219.96 1244.62,-186.9"/>
<polygon fill="black" stroke="black" points="1248.06,-186.25 1242.89,-177 1241.17,-187.45 1248.06,-186.25"/>
<text text-anchor="middle" x="1295.92" y="-263.3" font-family="Times,serif" font-size="14.00">set_option ()</text>
</g>
<!-- http://purl.org/dj/kaggle/indexing&#45;selecting&#45;assigning#445383666&#45;&gt;http://purl.org/dj/kaggle/indexing&#45;selecting&#45;assigning -->
<g id="edge25" class="edge">
<title>http://purl.org/dj/kaggle/indexing&#45;selecting&#45;assigning#445383666&#45;&gt;http://purl.org/dj/kaggle/indexing&#45;selecting&#45;assigning</title>
<path fill="none" stroke="black" d="M1336.36,-88.45C1295.91,-77.26 1238.84,-62.68 1187.92,-54 1129.16,-43.99 1064.59,-36.64 1006.18,-31.33"/>
<polygon fill="black" stroke="black" points="1006.37,-27.83 996.1,-30.43 1005.75,-34.81 1006.37,-27.83"/>
<text text-anchor="middle" x="1287.92" y="-57.8" font-family="Times,serif" font-size="14.00">appearsIn ()</text>
</g>
<!-- http://purl.org/dj/kaggle/indexing&#45;selecting&#45;assigning#30998711&#45;&gt;http://purl.org/dj/kaggle/indexing&#45;selecting&#45;assigning -->
<g id="edge26" class="edge">
<title>http://purl.org/dj/kaggle/indexing&#45;selecting&#45;assigning#30998711&#45;&gt;http://purl.org/dj/kaggle/indexing&#45;selecting&#45;assigning</title>
<path fill="none" stroke="black" d="M1207.76,-141.97C1199.07,-136.69 1190.09,-130.28 1182.92,-123 1157.88,-97.59 1171.92,-73.29 1141.92,-54 1122.69,-41.64 1083.21,-33.6 1038.28,-28.38"/>
<polygon fill="black" stroke="black" points="1038.63,-24.9 1028.3,-27.28 1037.86,-31.86 1038.63,-24.9"/>
<text text-anchor="middle" x="1215.92" y="-101.3" font-family="Times,serif" font-size="14.00">appearsIn ()</text>
</g>
</g>
</svg>
