<?xml version="1.0" encoding="UTF-8" standalone="no"?>
<!DOCTYPE svg PUBLIC "-//W3C//DTD SVG 1.1//EN"
 "http://www.w3.org/Graphics/SVG/1.1/DTD/svg11.dtd">
<!-- Generated by graphviz version 2.47.1 (20210417.1919)
 -->
<!-- Pages: 1 -->
<svg width="562pt" height="479pt"
 viewBox="0.00 0.00 562.44 479.00" xmlns="http://www.w3.org/2000/svg" xmlns:xlink="http://www.w3.org/1999/xlink">
<g id="graph0" class="graph" transform="scale(1 1) rotate(0) translate(4 475)">
<polygon fill="white" stroke="transparent" points="-4,4 -4,-475 558.44,-475 558.44,4 -4,4"/>
<!-- http://purl.org/dj/kaggle/keras&#45;sequential&#45;on&#45;ships/activity/9044372255715653140 -->
<g id="node1" class="node">
<title>http://purl.org/dj/kaggle/keras&#45;sequential&#45;on&#45;ships/activity/9044372255715653140</title>
<ellipse fill="none" stroke="black" cx="242.44" cy="-279" rx="142.97" ry="18"/>
<text text-anchor="middle" x="242.44" y="-275.3" font-family="Times,serif" font-size="14.00">9044372255715653140 (Preparation)</text>
</g>
<!-- http://purl.org/dj/kaggle/keras&#45;sequential&#45;on&#45;ships/activity/3055170771198726412 -->
<g id="node2" class="node">
<title>http://purl.org/dj/kaggle/keras&#45;sequential&#45;on&#45;ships/activity/3055170771198726412</title>
<ellipse fill="none" stroke="black" cx="330.44" cy="-192" rx="148.67" ry="18"/>
<text text-anchor="middle" x="330.44" y="-188.3" font-family="Times,serif" font-size="14.00">3055170771198726412 (Visualisation)</text>
</g>
<!-- http://purl.org/dj/kaggle/keras&#45;sequential&#45;on&#45;ships/activity/9044372255715653140&#45;&gt;http://purl.org/dj/kaggle/keras&#45;sequential&#45;on&#45;ships/activity/3055170771198726412 -->
<g id="edge1" class="edge">
<title>http://purl.org/dj/kaggle/keras&#45;sequential&#45;on&#45;ships/activity/9044372255715653140&#45;&gt;http://purl.org/dj/kaggle/keras&#45;sequential&#45;on&#45;ships/activity/3055170771198726412</title>
<path fill="none" stroke="black" d="M273.52,-261.41C281.82,-256.16 290.42,-249.9 297.44,-243 304.62,-235.93 311.1,-227.05 316.37,-218.73"/>
<polygon fill="black" stroke="black" points="319.44,-220.43 321.6,-210.05 313.44,-216.82 319.44,-220.43"/>
<text text-anchor="middle" x="331.94" y="-231.8" font-family="Times,serif" font-size="14.00">previous</text>
</g>
<!-- http://purl.org/dj/kaggle/keras&#45;sequential&#45;on&#45;ships/activity/&#45;6182689504200193585 -->
<g id="node3" class="node">
<title>http://purl.org/dj/kaggle/keras&#45;sequential&#45;on&#45;ships/activity/&#45;6182689504200193585</title>
<ellipse fill="none" stroke="black" cx="167.44" cy="-105" rx="126.98" ry="18"/>
<text text-anchor="middle" x="167.44" y="-101.3" font-family="Times,serif" font-size="14.00">&#45;6182689504200193585 (Reuse)</text>
</g>
<!-- http://purl.org/dj/kaggle/keras&#45;sequential&#45;on&#45;ships/activity/9044372255715653140&#45;&gt;http://purl.org/dj/kaggle/keras&#45;sequential&#45;on&#45;ships/activity/&#45;6182689504200193585 -->
<g id="edge2" class="edge">
<title>http://purl.org/dj/kaggle/keras&#45;sequential&#45;on&#45;ships/activity/9044372255715653140&#45;&gt;http://purl.org/dj/kaggle/keras&#45;sequential&#45;on&#45;ships/activity/&#45;6182689504200193585</title>
<path fill="none" stroke="black" d="M191.88,-262.16C167.2,-251.59 139.79,-234.95 125.44,-210 110.69,-184.37 128.21,-152.56 144.91,-130.91"/>
<polygon fill="black" stroke="black" points="147.86,-132.84 151.44,-122.87 142.42,-128.43 147.86,-132.84"/>
<text text-anchor="middle" x="148.94" y="-188.3" font-family="Times,serif" font-size="14.00">previous</text>
</g>
<!-- http://purl.org/dj/kaggle/keras&#45;sequential&#45;on&#45;ships/activity/3055170771198726412&#45;&gt;http://purl.org/dj/kaggle/keras&#45;sequential&#45;on&#45;ships/activity/9044372255715653140 -->
<g id="edge3" class="edge">
<title>http://purl.org/dj/kaggle/keras&#45;sequential&#45;on&#45;ships/activity/3055170771198726412&#45;&gt;http://purl.org/dj/kaggle/keras&#45;sequential&#45;on&#45;ships/activity/9044372255715653140</title>
<path fill="none" stroke="black" d="M270.01,-208.5C260.85,-213.34 252.47,-219.69 246.44,-228 241.74,-234.47 239.9,-242.73 239.47,-250.66"/>
<polygon fill="black" stroke="black" points="235.97,-250.76 239.59,-260.72 242.97,-250.68 235.97,-250.76"/>
<text text-anchor="middle" x="269.94" y="-231.8" font-family="Times,serif" font-size="14.00">previous</text>
</g>
<!-- http://purl.org/dj/kaggle/keras&#45;sequential&#45;on&#45;ships/activity/3055170771198726412&#45;&gt;http://purl.org/dj/kaggle/keras&#45;sequential&#45;on&#45;ships/activity/&#45;6182689504200193585 -->
<g id="edge4" class="edge">
<title>http://purl.org/dj/kaggle/keras&#45;sequential&#45;on&#45;ships/activity/3055170771198726412&#45;&gt;http://purl.org/dj/kaggle/keras&#45;sequential&#45;on&#45;ships/activity/&#45;6182689504200193585</title>
<path fill="none" stroke="black" d="M298.62,-174.41C272.82,-160.95 236.27,-141.89 208.3,-127.31"/>
<polygon fill="black" stroke="black" points="209.66,-124.07 199.17,-122.55 206.42,-130.28 209.66,-124.07"/>
<text text-anchor="middle" x="281.94" y="-144.8" font-family="Times,serif" font-size="14.00">previous</text>
</g>
<!-- http://purl.org/dj/kaggle/keras&#45;sequential&#45;on&#45;ships -->
<g id="node4" class="node">
<title>http://purl.org/dj/kaggle/keras&#45;sequential&#45;on&#45;ships</title>
<ellipse fill="none" stroke="black" cx="249.44" cy="-18" rx="220.96" ry="18"/>
<text text-anchor="middle" x="249.44" y="-14.3" font-family="Times,serif" font-size="14.00">keras&#45;sequential&#45;on&#45;ships (keras&#45;sequential&#45;on&#45;ships.ipynb)</text>
</g>
<!-- http://purl.org/dj/kaggle/keras&#45;sequential&#45;on&#45;ships/activity/3055170771198726412&#45;&gt;http://purl.org/dj/kaggle/keras&#45;sequential&#45;on&#45;ships -->
<g id="edge5" class="edge">
<title>http://purl.org/dj/kaggle/keras&#45;sequential&#45;on&#45;ships/activity/3055170771198726412&#45;&gt;http://purl.org/dj/kaggle/keras&#45;sequential&#45;on&#45;ships</title>
<path fill="none" stroke="black" d="M328.19,-173.66C324.94,-152.36 317.67,-115.55 303.44,-87 295.6,-71.29 283.72,-55.79 273.09,-43.57"/>
<polygon fill="black" stroke="black" points="275.62,-41.16 266.34,-36.05 270.41,-45.83 275.62,-41.16"/>
<text text-anchor="middle" x="339.94" y="-101.3" font-family="Times,serif" font-size="14.00">previous</text>
</g>
<!-- http://purl.org/dj/kaggle/keras&#45;sequential&#45;on&#45;ships/activity/&#45;6182689504200193585&#45;&gt;http://purl.org/dj/kaggle/keras&#45;sequential&#45;on&#45;ships -->
<g id="edge6" class="edge">
<title>http://purl.org/dj/kaggle/keras&#45;sequential&#45;on&#45;ships/activity/&#45;6182689504200193585&#45;&gt;http://purl.org/dj/kaggle/keras&#45;sequential&#45;on&#45;ships</title>
<path fill="none" stroke="black" d="M184.03,-86.8C196.03,-74.36 212.43,-57.36 225.8,-43.5"/>
<polygon fill="black" stroke="black" points="228.44,-45.8 232.87,-36.18 223.41,-40.94 228.44,-45.8"/>
<text text-anchor="middle" x="235.94" y="-57.8" font-family="Times,serif" font-size="14.00">previous</text>
</g>
<!-- http://purl.org/dj/kaggle/keras&#45;sequential&#45;on&#45;ships/activity/&#45;4463377170347003011 -->
<g id="node5" class="node">
<title>http://purl.org/dj/kaggle/keras&#45;sequential&#45;on&#45;ships/activity/&#45;4463377170347003011</title>
<ellipse fill="none" stroke="black" cx="151.44" cy="-366" rx="151.37" ry="18"/>
<text text-anchor="middle" x="151.44" y="-362.3" font-family="Times,serif" font-size="14.00">&#45;4463377170347003011 (Visualisation)</text>
</g>
<!-- http://purl.org/dj/kaggle/keras&#45;sequential&#45;on&#45;ships/activity/&#45;4463377170347003011&#45;&gt;http://purl.org/dj/kaggle/keras&#45;sequential&#45;on&#45;ships/activity/9044372255715653140 -->
<g id="edge7" class="edge">
<title>http://purl.org/dj/kaggle/keras&#45;sequential&#45;on&#45;ships/activity/&#45;4463377170347003011&#45;&gt;http://purl.org/dj/kaggle/keras&#45;sequential&#45;on&#45;ships/activity/9044372255715653140</title>
<path fill="none" stroke="black" d="M169.85,-347.8C183.38,-335.16 201.94,-317.82 216.91,-303.85"/>
<polygon fill="black" stroke="black" points="219.44,-306.27 224.36,-296.89 214.66,-301.15 219.44,-306.27"/>
<text text-anchor="middle" x="224.94" y="-318.8" font-family="Times,serif" font-size="14.00">previous</text>
</g>
<!-- http://purl.org/dj/kaggle/keras&#45;sequential&#45;on&#45;ships/activity/&#45;4463377170347003011&#45;&gt;http://purl.org/dj/kaggle/keras&#45;sequential&#45;on&#45;ships/activity/&#45;6182689504200193585 -->
<g id="edge8" class="edge">
<title>http://purl.org/dj/kaggle/keras&#45;sequential&#45;on&#45;ships/activity/&#45;4463377170347003011&#45;&gt;http://purl.org/dj/kaggle/keras&#45;sequential&#45;on&#45;ships/activity/&#45;6182689504200193585</title>
<path fill="none" stroke="black" d="M129.61,-347.96C115.55,-335.54 98.45,-317.37 90.44,-297 79.21,-268.46 83.31,-258.05 89.44,-228 97.83,-186.83 101.57,-174.87 126.44,-141 129.33,-137.06 132.75,-133.27 136.36,-129.73"/>
<polygon fill="black" stroke="black" points="138.88,-132.17 143.94,-122.86 134.18,-126.98 138.88,-132.17"/>
<text text-anchor="middle" x="112.94" y="-231.8" font-family="Times,serif" font-size="14.00">previous</text>
</g>
<!-- http://purl.org/dj/kaggle/keras&#45;sequential&#45;on&#45;ships/activity/3370629709892010804 -->
<g id="node6" class="node">
<title>http://purl.org/dj/kaggle/keras&#45;sequential&#45;on&#45;ships/activity/3370629709892010804</title>
<ellipse fill="none" stroke="black" cx="375.44" cy="-453" rx="133.48" ry="18"/>
<text text-anchor="middle" x="375.44" y="-449.3" font-family="Times,serif" font-size="14.00">3370629709892010804 (Analysis)</text>
</g>
<!-- http://purl.org/dj/kaggle/keras&#45;sequential&#45;on&#45;ships/activity/3370629709892010804&#45;&gt;http://purl.org/dj/kaggle/keras&#45;sequential&#45;on&#45;ships/activity/9044372255715653140 -->
<g id="edge9" class="edge">
<title>http://purl.org/dj/kaggle/keras&#45;sequential&#45;on&#45;ships/activity/3370629709892010804&#45;&gt;http://purl.org/dj/kaggle/keras&#45;sequential&#45;on&#45;ships/activity/9044372255715653140</title>
<path fill="none" stroke="black" d="M366.62,-434.97C355.23,-413.67 334.14,-376.53 311.44,-348 298.92,-332.27 283.04,-316.4 269.68,-303.96"/>
<polygon fill="black" stroke="black" points="271.88,-301.23 262.15,-297.05 267.15,-306.39 271.88,-301.23"/>
<text text-anchor="middle" x="358.94" y="-362.3" font-family="Times,serif" font-size="14.00">previous</text>
</g>
<!-- http://purl.org/dj/kaggle/keras&#45;sequential&#45;on&#45;ships/activity/3370629709892010804&#45;&gt;http://purl.org/dj/kaggle/keras&#45;sequential&#45;on&#45;ships/activity/3055170771198726412 -->
<g id="edge10" class="edge">
<title>http://purl.org/dj/kaggle/keras&#45;sequential&#45;on&#45;ships/activity/3370629709892010804&#45;&gt;http://purl.org/dj/kaggle/keras&#45;sequential&#45;on&#45;ships/activity/3055170771198726412</title>
<path fill="none" stroke="black" d="M382.24,-434.92C394.83,-400.61 418.39,-321.4 394.44,-261 387.66,-243.9 374.32,-228.6 361.56,-216.87"/>
<polygon fill="black" stroke="black" points="363.59,-213.99 353.76,-210.04 358.98,-219.26 363.59,-213.99"/>
<text text-anchor="middle" x="427.94" y="-318.8" font-family="Times,serif" font-size="14.00">previous</text>
</g>
<!-- http://purl.org/dj/kaggle/keras&#45;sequential&#45;on&#45;ships/activity/3370629709892010804&#45;&gt;http://purl.org/dj/kaggle/keras&#45;sequential&#45;on&#45;ships/activity/&#45;6182689504200193585 -->
<g id="edge11" class="edge">
<title>http://purl.org/dj/kaggle/keras&#45;sequential&#45;on&#45;ships/activity/3370629709892010804&#45;&gt;http://purl.org/dj/kaggle/keras&#45;sequential&#45;on&#45;ships/activity/&#45;6182689504200193585</title>
<path fill="none" stroke="black" d="M437.96,-436.96C472.08,-424.62 507.44,-403.12 507.44,-367 507.44,-367 507.44,-367 507.44,-191 507.44,-165.5 361.59,-136.94 260.94,-120.27"/>
<polygon fill="black" stroke="black" points="261.48,-116.81 251.05,-118.64 260.35,-123.72 261.48,-116.81"/>
<text text-anchor="middle" x="530.94" y="-275.3" font-family="Times,serif" font-size="14.00">previous</text>
</g>
<!-- http://purl.org/dj/kaggle/keras&#45;sequential&#45;on&#45;ships/activity/3370629709892010804&#45;&gt;http://purl.org/dj/kaggle/keras&#45;sequential&#45;on&#45;ships/activity/&#45;4463377170347003011 -->
<g id="edge12" class="edge">
<title>http://purl.org/dj/kaggle/keras&#45;sequential&#45;on&#45;ships/activity/3370629709892010804&#45;&gt;http://purl.org/dj/kaggle/keras&#45;sequential&#45;on&#45;ships/activity/&#45;4463377170347003011</title>
<path fill="none" stroke="black" d="M329.45,-435.95C312.99,-430.11 294.34,-423.37 277.44,-417 252.29,-407.52 224.51,-396.55 201.44,-387.31"/>
<polygon fill="black" stroke="black" points="202.45,-383.94 191.87,-383.46 199.84,-390.44 202.45,-383.94"/>
<text text-anchor="middle" x="300.94" y="-405.8" font-family="Times,serif" font-size="14.00">previous</text>
</g>
</g>
</svg>
