<?xml version="1.0" encoding="UTF-8" standalone="no"?>
<!DOCTYPE svg PUBLIC "-//W3C//DTD SVG 1.1//EN"
 "http://www.w3.org/Graphics/SVG/1.1/DTD/svg11.dtd">
<!-- Generated by graphviz version 2.47.1 (20210417.1919)
 -->
<!-- Pages: 1 -->
<svg width="2206pt" height="695pt"
 viewBox="0.00 0.00 2205.79 695.00" xmlns="http://www.w3.org/2000/svg" xmlns:xlink="http://www.w3.org/1999/xlink">
<g id="graph0" class="graph" transform="scale(1 1) rotate(0) translate(4 691)">
<polygon fill="white" stroke="transparent" points="-4,4 -4,-691 2201.79,-691 2201.79,4 -4,4"/>
<!-- http://purl.org/dj/kaggle/line&#45;charts#127074770 -->
<g id="node1" class="node">
<title>http://purl.org/dj/kaggle/line&#45;charts#127074770</title>
<ellipse fill="none" stroke="black" cx="574.79" cy="-213" rx="129.18" ry="18"/>
<text text-anchor="middle" x="574.79" y="-209.3" font-family="Times,serif" font-size="14.00">127074770 (plt(0): Visualisation)</text>
</g>
<!-- http://purl.org/dj/python/lib/1065617167 -->
<g id="node2" class="node">
<title>http://purl.org/dj/python/lib/1065617167</title>
<ellipse fill="none" stroke="black" cx="574.79" cy="-105" rx="150.57" ry="18"/>
<text text-anchor="middle" x="574.79" y="-101.3" font-family="Times,serif" font-size="14.00">1065617167 (matplotlib.pyplot: Reuse)</text>
</g>
<!-- http://purl.org/dj/kaggle/line&#45;charts#127074770&#45;&gt;http://purl.org/dj/python/lib/1065617167 -->
<g id="edge1" class="edge">
<title>http://purl.org/dj/kaggle/line&#45;charts#127074770&#45;&gt;http://purl.org/dj/python/lib/1065617167</title>
<path fill="none" stroke="black" d="M574.79,-194.97C574.79,-178.38 574.79,-152.88 574.79,-133.43"/>
<polygon fill="black" stroke="black" points="578.29,-133.34 574.79,-123.34 571.29,-133.34 578.29,-133.34"/>
<text text-anchor="middle" x="619.79" y="-155.3" font-family="Times,serif" font-size="14.00">assignedFrom ()</text>
</g>
<!-- http://purl.org/dj/kaggle/line&#45;charts -->
<g id="node3" class="node">
<title>http://purl.org/dj/kaggle/line&#45;charts</title>
<ellipse fill="none" stroke="black" cx="1237.79" cy="-18" rx="115.88" ry="18"/>
<text text-anchor="middle" x="1237.79" y="-14.3" font-family="Times,serif" font-size="14.00">line&#45;charts (line&#45;charts.ipynb)</text>
</g>
<!-- http://purl.org/dj/kaggle/line&#45;charts#127074770&#45;&gt;http://purl.org/dj/kaggle/line&#45;charts -->
<g id="edge2" class="edge">
<title>http://purl.org/dj/kaggle/line&#45;charts#127074770&#45;&gt;http://purl.org/dj/kaggle/line&#45;charts</title>
<path fill="none" stroke="black" d="M625.93,-196.42C640.24,-191.15 655.5,-184.63 668.79,-177 750.61,-130.03 751.01,-79.7 841.79,-54 892.06,-39.77 1021.36,-30.13 1118.64,-24.63"/>
<polygon fill="black" stroke="black" points="1119.05,-28.11 1128.84,-24.06 1118.66,-21.12 1119.05,-28.11"/>
<text text-anchor="middle" x="806.79" y="-101.3" font-family="Times,serif" font-size="14.00">appearsIn ()</text>
</g>
<!-- http://purl.org/dj/python/lib/1065617167&#45;&gt;http://purl.org/dj/kaggle/line&#45;charts -->
<g id="edge3" class="edge">
<title>http://purl.org/dj/python/lib/1065617167&#45;&gt;http://purl.org/dj/kaggle/line&#45;charts</title>
<path fill="none" stroke="black" d="M599.47,-87.08C617.74,-75.53 643.7,-61.08 668.79,-54 749.19,-31.3 971,-23.32 1112.75,-20.52"/>
<polygon fill="black" stroke="black" points="1112.88,-24.01 1122.81,-20.32 1112.75,-17.02 1112.88,-24.01"/>
<text text-anchor="middle" x="708.29" y="-57.8" font-family="Times,serif" font-size="14.00">importedBy ()</text>
</g>
<!-- http://purl.org/dj/kaggle/line&#45;charts#198246956 -->
<g id="node4" class="node">
<title>http://purl.org/dj/kaggle/line&#45;charts#198246956</title>
<ellipse fill="none" stroke="black" cx="990.79" cy="-495" rx="139.98" ry="18"/>
<text text-anchor="middle" x="990.79" y="-491.3" font-family="Times,serif" font-size="14.00">198246956 (sns(0)$2: Visualisation)</text>
</g>
<!-- http://purl.org/dj/kaggle/line&#45;charts#198181419 -->
<g id="node5" class="node">
<title>http://purl.org/dj/kaggle/line&#45;charts#198181419</title>
<ellipse fill="none" stroke="black" cx="996.79" cy="-408" rx="139.98" ry="18"/>
<text text-anchor="middle" x="996.79" y="-404.3" font-family="Times,serif" font-size="14.00">198181419 (sns(0)$1: Visualisation)</text>
</g>
<!-- http://purl.org/dj/kaggle/line&#45;charts#198246956&#45;&gt;http://purl.org/dj/kaggle/line&#45;charts#198181419 -->
<g id="edge4" class="edge">
<title>http://purl.org/dj/kaggle/line&#45;charts#198246956&#45;&gt;http://purl.org/dj/kaggle/line&#45;charts#198181419</title>
<path fill="none" stroke="black" d="M992,-476.8C992.82,-465.16 993.93,-449.55 994.87,-436.24"/>
<polygon fill="black" stroke="black" points="998.36,-436.4 995.58,-426.18 991.38,-435.9 998.36,-436.4"/>
<text text-anchor="middle" x="1022.29" y="-447.8" font-family="Times,serif" font-size="14.00">lineplot ()</text>
</g>
<!-- http://purl.org/dj/kaggle/line&#45;charts#198115882 -->
<g id="node6" class="node">
<title>http://purl.org/dj/kaggle/line&#45;charts#198115882</title>
<ellipse fill="none" stroke="black" cx="1031.79" cy="-321" rx="139.98" ry="18"/>
<text text-anchor="middle" x="1031.79" y="-317.3" font-family="Times,serif" font-size="14.00">198115882 (sns(0)$0: Visualisation)</text>
</g>
<!-- http://purl.org/dj/kaggle/line&#45;charts#198181419&#45;&gt;http://purl.org/dj/kaggle/line&#45;charts#198115882 -->
<g id="edge5" class="edge">
<title>http://purl.org/dj/kaggle/line&#45;charts#198181419&#45;&gt;http://purl.org/dj/kaggle/line&#45;charts#198115882</title>
<path fill="none" stroke="black" d="M1003.87,-389.8C1008.76,-377.93 1015.35,-361.93 1020.9,-348.45"/>
<polygon fill="black" stroke="black" points="1024.14,-349.75 1024.72,-339.18 1017.67,-347.09 1024.14,-349.75"/>
<text text-anchor="middle" x="1044.29" y="-360.8" font-family="Times,serif" font-size="14.00">lineplot ()</text>
</g>
<!-- http://purl.org/dj/kaggle/line&#45;charts#128647638 -->
<g id="node7" class="node">
<title>http://purl.org/dj/kaggle/line&#45;charts#128647638</title>
<ellipse fill="none" stroke="black" cx="1027.79" cy="-213" rx="131.08" ry="18"/>
<text text-anchor="middle" x="1027.79" y="-209.3" font-family="Times,serif" font-size="14.00">128647638 (sns(0): Visualisation)</text>
</g>
<!-- http://purl.org/dj/kaggle/line&#45;charts#198115882&#45;&gt;http://purl.org/dj/kaggle/line&#45;charts#128647638 -->
<g id="edge6" class="edge">
<title>http://purl.org/dj/kaggle/line&#45;charts#198115882&#45;&gt;http://purl.org/dj/kaggle/line&#45;charts#128647638</title>
<path fill="none" stroke="black" d="M1027.02,-302.69C1025.7,-297.09 1024.44,-290.82 1023.79,-285 1022.18,-270.72 1022.86,-254.75 1024.08,-241.57"/>
<polygon fill="black" stroke="black" points="1027.6,-241.58 1025.19,-231.26 1020.64,-240.83 1027.6,-241.58"/>
<text text-anchor="middle" x="1051.29" y="-263.3" font-family="Times,serif" font-size="14.00">lineplot ()</text>
</g>
<!-- http://purl.org/dj/kaggle/line&#45;charts#128647638&#45;&gt;http://purl.org/dj/kaggle/line&#45;charts -->
<g id="edge13" class="edge">
<title>http://purl.org/dj/kaggle/line&#45;charts#128647638&#45;&gt;http://purl.org/dj/kaggle/line&#45;charts</title>
<path fill="none" stroke="black" d="M1080.22,-196.36C1091.18,-191.41 1102.05,-185.05 1110.79,-177 1143.98,-146.43 1129.63,-122.26 1157.79,-87 1171.32,-70.05 1189.55,-54.17 1205.19,-42.03"/>
<polygon fill="black" stroke="black" points="1207.71,-44.51 1213.57,-35.68 1203.48,-38.93 1207.71,-44.51"/>
<text text-anchor="middle" x="1190.79" y="-101.3" font-family="Times,serif" font-size="14.00">appearsIn ()</text>
</g>
<!-- http://purl.org/dj/python/lib/194380523 -->
<g id="node14" class="node">
<title>http://purl.org/dj/python/lib/194380523</title>
<ellipse fill="none" stroke="black" cx="995.79" cy="-105" rx="112.38" ry="18"/>
<text text-anchor="middle" x="995.79" y="-101.3" font-family="Times,serif" font-size="14.00">194380523 (seaborn: Reuse)</text>
</g>
<!-- http://purl.org/dj/kaggle/line&#45;charts#128647638&#45;&gt;http://purl.org/dj/python/lib/194380523 -->
<g id="edge14" class="edge">
<title>http://purl.org/dj/kaggle/line&#45;charts#128647638&#45;&gt;http://purl.org/dj/python/lib/194380523</title>
<path fill="none" stroke="black" d="M1022.65,-194.97C1017.58,-178.2 1009.78,-152.34 1003.88,-132.81"/>
<polygon fill="black" stroke="black" points="1007.16,-131.55 1000.92,-122.99 1000.46,-133.57 1007.16,-131.55"/>
<text text-anchor="middle" x="1061.79" y="-155.3" font-family="Times,serif" font-size="14.00">assignedFrom ()</text>
</g>
<!-- http://purl.org/dj/kaggle/line&#45;charts#80085334 -->
<g id="node8" class="node">
<title>http://purl.org/dj/kaggle/line&#45;charts#80085334</title>
<ellipse fill="none" stroke="black" cx="2032.79" cy="-213" rx="124.28" ry="18"/>
<text text-anchor="middle" x="2032.79" y="-209.3" font-family="Times,serif" font-size="14.00">80085334 (pd(0): Visualisation)</text>
</g>
<!-- http://purl.org/dj/kaggle/line&#45;charts#80085334&#45;&gt;http://purl.org/dj/kaggle/line&#45;charts -->
<g id="edge7" class="edge">
<title>http://purl.org/dj/kaggle/line&#45;charts#80085334&#45;&gt;http://purl.org/dj/kaggle/line&#45;charts</title>
<path fill="none" stroke="black" d="M2034.82,-194.75C2036.98,-167.34 2036.61,-114.15 2005.79,-87 1958.56,-45.39 1566.21,-28.22 1361.33,-22.03"/>
<polygon fill="black" stroke="black" points="1361.21,-18.53 1351.11,-21.73 1361,-25.53 1361.21,-18.53"/>
<text text-anchor="middle" x="2059.79" y="-101.3" font-family="Times,serif" font-size="14.00">appearsIn ()</text>
</g>
<!-- http://purl.org/dj/python/lib/144966264 -->
<g id="node9" class="node">
<title>http://purl.org/dj/python/lib/144966264</title>
<ellipse fill="none" stroke="black" cx="1887.79" cy="-105" rx="109.38" ry="18"/>
<text text-anchor="middle" x="1887.79" y="-101.3" font-family="Times,serif" font-size="14.00">144966264 (pandas: Reuse)</text>
</g>
<!-- http://purl.org/dj/kaggle/line&#45;charts#80085334&#45;&gt;http://purl.org/dj/python/lib/144966264 -->
<g id="edge8" class="edge">
<title>http://purl.org/dj/kaggle/line&#45;charts#80085334&#45;&gt;http://purl.org/dj/python/lib/144966264</title>
<path fill="none" stroke="black" d="M1966.65,-197.72C1953.17,-192.71 1939.77,-185.99 1928.79,-177 1914.51,-165.32 1904.18,-147.26 1897.46,-132.29"/>
<polygon fill="black" stroke="black" points="1900.66,-130.85 1893.56,-122.99 1894.2,-133.56 1900.66,-130.85"/>
<text text-anchor="middle" x="1973.79" y="-155.3" font-family="Times,serif" font-size="14.00">assignedFrom ()</text>
</g>
<!-- http://purl.org/dj/python/lib/144966264&#45;&gt;http://purl.org/dj/kaggle/line&#45;charts -->
<g id="edge9" class="edge">
<title>http://purl.org/dj/python/lib/144966264&#45;&gt;http://purl.org/dj/kaggle/line&#45;charts</title>
<path fill="none" stroke="black" d="M1809.1,-92.51C1795.98,-90.64 1782.5,-88.74 1769.79,-87 1618.53,-66.28 1442.8,-44.21 1335.99,-31.01"/>
<polygon fill="black" stroke="black" points="1336.22,-27.52 1325.87,-29.77 1335.36,-34.46 1336.22,-27.52"/>
<text text-anchor="middle" x="1663.29" y="-57.8" font-family="Times,serif" font-size="14.00">importedBy ()</text>
</g>
<!-- http://purl.org/dj/kaggle/line&#45;charts#336003904 -->
<g id="node10" class="node">
<title>http://purl.org/dj/kaggle/line&#45;charts#336003904</title>
<ellipse fill="none" stroke="black" cx="1412.79" cy="-669" rx="141.88" ry="18"/>
<text text-anchor="middle" x="1412.79" y="-665.3" font-family="Times,serif" font-size="14.00">336003904 (list[48/0]: Visualisation)</text>
</g>
<!-- http://purl.org/dj/kaggle/line&#45;charts#1024329183 -->
<g id="node11" class="node">
<title>http://purl.org/dj/kaggle/line&#45;charts#1024329183</title>
<ellipse fill="none" stroke="black" cx="1412.79" cy="-582" rx="176.57" ry="18"/>
<text text-anchor="middle" x="1412.79" y="-578.3" font-family="Times,serif" font-size="14.00">1024329183 (spotify_data(0)$2: Visualisation)</text>
</g>
<!-- http://purl.org/dj/kaggle/line&#45;charts#336003904&#45;&gt;http://purl.org/dj/kaggle/line&#45;charts#1024329183 -->
<g id="edge10" class="edge">
<title>http://purl.org/dj/kaggle/line&#45;charts#336003904&#45;&gt;http://purl.org/dj/kaggle/line&#45;charts#1024329183</title>
<path fill="none" stroke="black" d="M1412.79,-650.8C1412.79,-639.16 1412.79,-623.55 1412.79,-610.24"/>
<polygon fill="black" stroke="black" points="1416.29,-610.18 1412.79,-600.18 1409.29,-610.18 1416.29,-610.18"/>
<text text-anchor="middle" x="1427.79" y="-621.8" font-family="Times,serif" font-size="14.00">list ()</text>
</g>
<!-- http://purl.org/dj/kaggle/line&#45;charts#1024263646 -->
<g id="node12" class="node">
<title>http://purl.org/dj/kaggle/line&#45;charts#1024263646</title>
<ellipse fill="none" stroke="black" cx="1412.79" cy="-495" rx="170.87" ry="18"/>
<text text-anchor="middle" x="1412.79" y="-491.3" font-family="Times,serif" font-size="14.00">1024263646 (spotify_data(0)$1: Preparation)</text>
</g>
<!-- http://purl.org/dj/kaggle/line&#45;charts#1024329183&#45;&gt;http://purl.org/dj/kaggle/line&#45;charts#1024263646 -->
<g id="edge11" class="edge">
<title>http://purl.org/dj/kaggle/line&#45;charts#1024329183&#45;&gt;http://purl.org/dj/kaggle/line&#45;charts#1024263646</title>
<path fill="none" stroke="black" d="M1412.79,-563.8C1412.79,-552.16 1412.79,-536.55 1412.79,-523.24"/>
<polygon fill="black" stroke="black" points="1416.29,-523.18 1412.79,-513.18 1409.29,-523.18 1416.29,-523.18"/>
<text text-anchor="middle" x="1428.29" y="-534.8" font-family="Times,serif" font-size="14.00">tail ()</text>
</g>
<!-- http://purl.org/dj/kaggle/line&#45;charts#1024198109 -->
<g id="node13" class="node">
<title>http://purl.org/dj/kaggle/line&#45;charts#1024198109</title>
<ellipse fill="none" stroke="black" cx="1412.79" cy="-408" rx="168.97" ry="18"/>
<text text-anchor="middle" x="1412.79" y="-404.3" font-family="Times,serif" font-size="14.00">1024198109 (spotify_data(0)$0: Movement)</text>
</g>
<!-- http://purl.org/dj/kaggle/line&#45;charts#1024263646&#45;&gt;http://purl.org/dj/kaggle/line&#45;charts#1024198109 -->
<g id="edge12" class="edge">
<title>http://purl.org/dj/kaggle/line&#45;charts#1024263646&#45;&gt;http://purl.org/dj/kaggle/line&#45;charts#1024198109</title>
<path fill="none" stroke="black" d="M1412.79,-476.8C1412.79,-465.16 1412.79,-449.55 1412.79,-436.24"/>
<polygon fill="black" stroke="black" points="1416.29,-436.18 1412.79,-426.18 1409.29,-436.18 1416.29,-436.18"/>
<text text-anchor="middle" x="1432.29" y="-447.8" font-family="Times,serif" font-size="14.00">head ()</text>
</g>
<!-- http://purl.org/dj/kaggle/line&#45;charts#165478946 -->
<g id="node15" class="node">
<title>http://purl.org/dj/kaggle/line&#45;charts#165478946</title>
<ellipse fill="none" stroke="black" cx="1199.79" cy="-267" rx="111.58" ry="18"/>
<text text-anchor="middle" x="1199.79" y="-263.3" font-family="Times,serif" font-size="14.00">165478946 (True(0): Reuse)</text>
</g>
<!-- http://purl.org/dj/kaggle/line&#45;charts#1024198109&#45;&gt;http://purl.org/dj/kaggle/line&#45;charts#165478946 -->
<g id="edge16" class="edge">
<title>http://purl.org/dj/kaggle/line&#45;charts#1024198109&#45;&gt;http://purl.org/dj/kaggle/line&#45;charts#165478946</title>
<path fill="none" stroke="black" d="M1317.26,-393.13C1281.9,-383.44 1244.26,-366.97 1218.79,-339 1208,-327.16 1203.23,-309.86 1201.16,-295.3"/>
<polygon fill="black" stroke="black" points="1204.63,-294.87 1200.09,-285.3 1197.67,-295.62 1204.63,-294.87"/>
<text text-anchor="middle" x="1290.29" y="-360.8" font-family="Times,serif" font-size="14.00">read_csv ()</text>
</g>
<!-- http://purl.org/dj/kaggle/line&#45;charts#132776362 -->
<g id="node16" class="node">
<title>http://purl.org/dj/kaggle/line&#45;charts#132776362</title>
<ellipse fill="none" stroke="black" cx="1991.79" cy="-321" rx="137.58" ry="18"/>
<text text-anchor="middle" x="1991.79" y="-317.3" font-family="Times,serif" font-size="14.00">132776362 (pd(0)$0: Visualisation)</text>
</g>
<!-- http://purl.org/dj/kaggle/line&#45;charts#1024198109&#45;&gt;http://purl.org/dj/kaggle/line&#45;charts#132776362 -->
<g id="edge17" class="edge">
<title>http://purl.org/dj/kaggle/line&#45;charts#1024198109&#45;&gt;http://purl.org/dj/kaggle/line&#45;charts#132776362</title>
<path fill="none" stroke="black" d="M1507.75,-393.06C1614.3,-377.42 1786.3,-352.17 1894,-336.36"/>
<polygon fill="black" stroke="black" points="1894.51,-339.82 1903.89,-334.9 1893.49,-332.89 1894.51,-339.82"/>
<text text-anchor="middle" x="1768.29" y="-360.8" font-family="Times,serif" font-size="14.00">read_csv ()</text>
</g>
<!-- http://purl.org/dj/kaggle/line&#45;charts#1577715600 -->
<g id="node17" class="node">
<title>http://purl.org/dj/kaggle/line&#45;charts#1577715600</title>
<ellipse fill="none" stroke="black" cx="1632.79" cy="-321" rx="163.27" ry="18"/>
<text text-anchor="middle" x="1632.79" y="-317.3" font-family="Times,serif" font-size="14.00">1577715600 (spotify_filepath(0)$0: Reuse)</text>
</g>
<!-- http://purl.org/dj/kaggle/line&#45;charts#1024198109&#45;&gt;http://purl.org/dj/kaggle/line&#45;charts#1577715600 -->
<g id="edge18" class="edge">
<title>http://purl.org/dj/kaggle/line&#45;charts#1024198109&#45;&gt;http://purl.org/dj/kaggle/line&#45;charts#1577715600</title>
<path fill="none" stroke="black" d="M1455.47,-390.51C1491.29,-376.67 1542.6,-356.85 1580.81,-342.08"/>
<polygon fill="black" stroke="black" points="1582.16,-345.31 1590.23,-338.44 1579.64,-338.78 1582.16,-345.31"/>
<text text-anchor="middle" x="1567.29" y="-360.8" font-family="Times,serif" font-size="14.00">read_csv ()</text>
</g>
<!-- http://purl.org/dj/kaggle/line&#45;charts#151126528 -->
<g id="node18" class="node">
<title>http://purl.org/dj/kaggle/line&#45;charts#151126528</title>
<ellipse fill="none" stroke="black" cx="1339.79" cy="-321" rx="111.58" ry="18"/>
<text text-anchor="middle" x="1339.79" y="-317.3" font-family="Times,serif" font-size="14.00">151126528 (Date(0): Reuse)</text>
</g>
<!-- http://purl.org/dj/kaggle/line&#45;charts#1024198109&#45;&gt;http://purl.org/dj/kaggle/line&#45;charts#151126528 -->
<g id="edge19" class="edge">
<title>http://purl.org/dj/kaggle/line&#45;charts#1024198109&#45;&gt;http://purl.org/dj/kaggle/line&#45;charts#151126528</title>
<path fill="none" stroke="black" d="M1398.02,-389.8C1387.36,-377.39 1372.82,-360.46 1360.93,-346.62"/>
<polygon fill="black" stroke="black" points="1363.46,-344.19 1354.29,-338.89 1358.15,-348.75 1363.46,-344.19"/>
<text text-anchor="middle" x="1411.29" y="-360.8" font-family="Times,serif" font-size="14.00">read_csv ()</text>
</g>
<!-- http://purl.org/dj/python/lib/194380523&#45;&gt;http://purl.org/dj/kaggle/line&#45;charts -->
<g id="edge15" class="edge">
<title>http://purl.org/dj/python/lib/194380523&#45;&gt;http://purl.org/dj/kaggle/line&#45;charts</title>
<path fill="none" stroke="black" d="M1009.91,-86.98C1020.11,-75.84 1034.84,-61.93 1050.79,-54 1074.52,-42.2 1101.75,-34.36 1127.95,-29.15"/>
<polygon fill="black" stroke="black" points="1128.75,-32.56 1137.93,-27.28 1127.46,-25.68 1128.75,-32.56"/>
<text text-anchor="middle" x="1090.29" y="-57.8" font-family="Times,serif" font-size="14.00">importedBy ()</text>
</g>
<!-- http://purl.org/dj/kaggle/line&#45;charts#165478946&#45;&gt;http://purl.org/dj/kaggle/line&#45;charts -->
<g id="edge20" class="edge">
<title>http://purl.org/dj/kaggle/line&#45;charts#165478946&#45;&gt;http://purl.org/dj/kaggle/line&#45;charts</title>
<path fill="none" stroke="black" d="M1202.85,-248.86C1207.6,-222.05 1216.9,-168.55 1223.79,-123 1227.71,-97.08 1231.64,-67.43 1234.34,-46.44"/>
<polygon fill="black" stroke="black" points="1237.84,-46.68 1235.63,-36.32 1230.89,-45.8 1237.84,-46.68"/>
<text text-anchor="middle" x="1253.79" y="-155.3" font-family="Times,serif" font-size="14.00">appearsIn ()</text>
</g>
<!-- http://purl.org/dj/kaggle/line&#45;charts#132776362&#45;&gt;http://purl.org/dj/kaggle/line&#45;charts#80085334 -->
<g id="edge21" class="edge">
<title>http://purl.org/dj/kaggle/line&#45;charts#132776362&#45;&gt;http://purl.org/dj/kaggle/line&#45;charts#80085334</title>
<path fill="none" stroke="black" d="M1998.38,-302.97C2004.89,-286.12 2014.96,-260.1 2022.52,-240.54"/>
<polygon fill="black" stroke="black" points="2025.87,-241.58 2026.22,-230.99 2019.34,-239.05 2025.87,-241.58"/>
<text text-anchor="middle" x="2107.79" y="-263.3" font-family="Times,serif" font-size="14.00">register_matplotlib_converters ()</text>
</g>
<!-- http://purl.org/dj/kaggle/line&#45;charts#1616513012 -->
<g id="node19" class="node">
<title>http://purl.org/dj/kaggle/line&#45;charts#1616513012</title>
<ellipse fill="none" stroke="black" cx="1562.79" cy="-159" rx="165.17" ry="18"/>
<text text-anchor="middle" x="1562.79" y="-155.3" font-family="Times,serif" font-size="14.00">1616513012 (../input/spotify.csv(0): Reuse)</text>
</g>
<!-- http://purl.org/dj/kaggle/line&#45;charts#1577715600&#45;&gt;http://purl.org/dj/kaggle/line&#45;charts#1616513012 -->
<g id="edge22" class="edge">
<title>http://purl.org/dj/kaggle/line&#45;charts#1577715600&#45;&gt;http://purl.org/dj/kaggle/line&#45;charts#1616513012</title>
<path fill="none" stroke="black" d="M1622.51,-302.71C1612.3,-285.08 1596.66,-256.76 1585.79,-231 1579.76,-216.73 1574.35,-200.31 1570.29,-186.85"/>
<polygon fill="black" stroke="black" points="1573.64,-185.84 1567.46,-177.23 1566.92,-187.81 1573.64,-185.84"/>
<text text-anchor="middle" x="1657.79" y="-263.3" font-family="Times,serif" font-size="14.00">assignedFrom ()</text>
</g>
<!-- http://purl.org/dj/kaggle/line&#45;charts#151126528&#45;&gt;http://purl.org/dj/kaggle/line&#45;charts -->
<g id="edge23" class="edge">
<title>http://purl.org/dj/kaggle/line&#45;charts#151126528&#45;&gt;http://purl.org/dj/kaggle/line&#45;charts</title>
<path fill="none" stroke="black" d="M1335.98,-302.97C1328.62,-270.86 1311.33,-199.35 1290.79,-141 1278.93,-107.31 1262.05,-69.79 1250.55,-45.37"/>
<polygon fill="black" stroke="black" points="1253.58,-43.59 1246.13,-36.06 1247.26,-46.6 1253.58,-43.59"/>
<text text-anchor="middle" x="1335.79" y="-155.3" font-family="Times,serif" font-size="14.00">appearsIn ()</text>
</g>
<!-- http://purl.org/dj/kaggle/line&#45;charts#1616513012&#45;&gt;http://purl.org/dj/kaggle/line&#45;charts -->
<g id="edge24" class="edge">
<title>http://purl.org/dj/kaggle/line&#45;charts#1616513012&#45;&gt;http://purl.org/dj/kaggle/line&#45;charts</title>
<path fill="none" stroke="black" d="M1457.65,-145.1C1425.36,-139.56 1394.88,-132.2 1381.79,-123 1352.61,-102.48 1368.5,-76.46 1340.79,-54 1332.11,-46.96 1321.94,-41.31 1311.43,-36.78"/>
<polygon fill="black" stroke="black" points="1312.72,-33.52 1302.14,-33.07 1310.13,-40.03 1312.72,-33.52"/>
<text text-anchor="middle" x="1414.79" y="-101.3" font-family="Times,serif" font-size="14.00">appearsIn ()</text>
</g>
<!-- http://purl.org/dj/kaggle/line&#45;charts#956106220 -->
<g id="node20" class="node">
<title>http://purl.org/dj/kaggle/line&#45;charts#956106220</title>
<ellipse fill="none" stroke="black" cx="1608.79" cy="-105" rx="152.17" ry="18"/>
<text text-anchor="middle" x="1608.79" y="-101.3" font-family="Times,serif" font-size="14.00">956106220 (Setup Complete(0): Reuse)</text>
</g>
<!-- http://purl.org/dj/kaggle/line&#45;charts#956106220&#45;&gt;http://purl.org/dj/kaggle/line&#45;charts -->
<g id="edge25" class="edge">
<title>http://purl.org/dj/kaggle/line&#45;charts#956106220&#45;&gt;http://purl.org/dj/kaggle/line&#45;charts</title>
<path fill="none" stroke="black" d="M1542.03,-88.71C1476.65,-73.73 1377.31,-50.97 1310.09,-35.56"/>
<polygon fill="black" stroke="black" points="1310.52,-32.07 1300,-33.25 1308.96,-38.9 1310.52,-32.07"/>
<text text-anchor="middle" x="1478.79" y="-57.8" font-family="Times,serif" font-size="14.00">appearsIn ()</text>
</g>
<!-- http://purl.org/dj/kaggle/line&#45;charts#198312493 -->
<g id="node21" class="node">
<title>http://purl.org/dj/kaggle/line&#45;charts#198312493</title>
<ellipse fill="none" stroke="black" cx="990.79" cy="-582" rx="139.98" ry="18"/>
<text text-anchor="middle" x="990.79" y="-578.3" font-family="Times,serif" font-size="14.00">198312493 (sns(0)$3: Visualisation)</text>
</g>
<!-- http://purl.org/dj/kaggle/line&#45;charts#198312493&#45;&gt;http://purl.org/dj/kaggle/line&#45;charts#198246956 -->
<g id="edge26" class="edge">
<title>http://purl.org/dj/kaggle/line&#45;charts#198312493&#45;&gt;http://purl.org/dj/kaggle/line&#45;charts#198246956</title>
<path fill="none" stroke="black" d="M990.79,-563.8C990.79,-552.16 990.79,-536.55 990.79,-523.24"/>
<polygon fill="black" stroke="black" points="994.29,-523.18 990.79,-513.18 987.29,-523.18 994.29,-523.18"/>
<text text-anchor="middle" x="1018.29" y="-534.8" font-family="Times,serif" font-size="14.00">lineplot ()</text>
</g>
<!-- http://purl.org/dj/kaggle/line&#45;charts#416089002 -->
<g id="node22" class="node">
<title>http://purl.org/dj/kaggle/line&#45;charts#416089002</title>
<ellipse fill="none" stroke="black" cx="1742.79" cy="-213" rx="147.57" ry="18"/>
<text text-anchor="middle" x="1742.79" y="-209.3" font-family="Times,serif" font-size="14.00">416089002 (print[14/0]: Visualisation)</text>
</g>
<!-- http://purl.org/dj/kaggle/line&#45;charts#416089002&#45;&gt;http://purl.org/dj/kaggle/line&#45;charts#956106220 -->
<g id="edge27" class="edge">
<title>http://purl.org/dj/kaggle/line&#45;charts#416089002&#45;&gt;http://purl.org/dj/kaggle/line&#45;charts#956106220</title>
<path fill="none" stroke="black" d="M1744.1,-194.89C1744.35,-178.96 1742.1,-155.56 1728.79,-141 1722.5,-134.12 1714.94,-128.56 1706.71,-124.08"/>
<polygon fill="black" stroke="black" points="1708.08,-120.85 1697.55,-119.63 1705.01,-127.15 1708.08,-120.85"/>
<text text-anchor="middle" x="1763.29" y="-155.3" font-family="Times,serif" font-size="14.00">print ()</text>
</g>
<!-- http://purl.org/dj/kaggle/line&#45;charts#196084263 -->
<g id="node23" class="node">
<title>http://purl.org/dj/kaggle/line&#45;charts#196084263</title>
<ellipse fill="none" stroke="black" cx="500.79" cy="-408" rx="131.88" ry="18"/>
<text text-anchor="middle" x="500.79" y="-404.3" font-family="Times,serif" font-size="14.00">196084263 (plt(0)$1: Preparation)</text>
</g>
<!-- http://purl.org/dj/kaggle/line&#45;charts#196018726 -->
<g id="node24" class="node">
<title>http://purl.org/dj/kaggle/line&#45;charts#196018726</title>
<ellipse fill="none" stroke="black" cx="137.79" cy="-321" rx="137.58" ry="18"/>
<text text-anchor="middle" x="137.79" y="-317.3" font-family="Times,serif" font-size="14.00">196018726 (plt(0)$0: Visualisation)</text>
</g>
<!-- http://purl.org/dj/kaggle/line&#45;charts#196084263&#45;&gt;http://purl.org/dj/kaggle/line&#45;charts#196018726 -->
<g id="edge28" class="edge">
<title>http://purl.org/dj/kaggle/line&#45;charts#196084263&#45;&gt;http://purl.org/dj/kaggle/line&#45;charts#196018726</title>
<path fill="none" stroke="black" d="M437.56,-392.19C374.67,-377.47 278.22,-354.88 211.8,-339.33"/>
<polygon fill="black" stroke="black" points="212.35,-335.87 201.82,-336.99 210.76,-342.68 212.35,-335.87"/>
<text text-anchor="middle" x="358.79" y="-360.8" font-family="Times,serif" font-size="14.00">title ()</text>
</g>
<!-- http://purl.org/dj/kaggle/line&#45;charts#4094759136 -->
<g id="node25" class="node">
<title>http://purl.org/dj/kaggle/line&#45;charts#4094759136</title>
<ellipse fill="none" stroke="black" cx="583.79" cy="-321" rx="289.75" ry="18"/>
<text text-anchor="middle" x="583.79" y="-317.3" font-family="Times,serif" font-size="14.00">4094759136 (Daily Global Streams of Popular Songs in 2017&#45;2018(0): Reuse)</text>
</g>
<!-- http://purl.org/dj/kaggle/line&#45;charts#196084263&#45;&gt;http://purl.org/dj/kaggle/line&#45;charts#4094759136 -->
<g id="edge29" class="edge">
<title>http://purl.org/dj/kaggle/line&#45;charts#196084263&#45;&gt;http://purl.org/dj/kaggle/line&#45;charts#4094759136</title>
<path fill="none" stroke="black" d="M517.58,-389.8C529.73,-377.36 546.33,-360.36 559.86,-346.5"/>
<polygon fill="black" stroke="black" points="562.53,-348.78 567.02,-339.18 557.53,-343.88 562.53,-348.78"/>
<text text-anchor="middle" x="564.79" y="-360.8" font-family="Times,serif" font-size="14.00">title ()</text>
</g>
<!-- http://purl.org/dj/kaggle/line&#45;charts#196018726&#45;&gt;http://purl.org/dj/kaggle/line&#45;charts#127074770 -->
<g id="edge30" class="edge">
<title>http://purl.org/dj/kaggle/line&#45;charts#196018726&#45;&gt;http://purl.org/dj/kaggle/line&#45;charts#127074770</title>
<path fill="none" stroke="black" d="M199.94,-304.93C280.06,-285.49 419.1,-251.76 503.45,-231.3"/>
<polygon fill="black" stroke="black" points="504.31,-234.7 513.21,-228.94 502.66,-227.89 504.31,-234.7"/>
<text text-anchor="middle" x="444.29" y="-263.3" font-family="Times,serif" font-size="14.00">figure ()</text>
</g>
<!-- http://purl.org/dj/kaggle/line&#45;charts#4094759136&#45;&gt;http://purl.org/dj/kaggle/line&#45;charts -->
<g id="edge31" class="edge">
<title>http://purl.org/dj/kaggle/line&#45;charts#4094759136&#45;&gt;http://purl.org/dj/kaggle/line&#45;charts</title>
<path fill="none" stroke="black" d="M609.99,-302.96C636.41,-285.54 678.14,-257.36 712.79,-231 772.29,-185.72 787.74,-174.67 841.79,-123 857.48,-108 855.97,-97.82 874.79,-87 947.11,-45.4 1039.7,-28.52 1113.27,-21.98"/>
<polygon fill="black" stroke="black" points="1113.85,-25.44 1123.52,-21.12 1113.26,-18.47 1113.85,-25.44"/>
<text text-anchor="middle" x="855.79" y="-155.3" font-family="Times,serif" font-size="14.00">appearsIn ()</text>
</g>
<!-- http://purl.org/dj/kaggle/line&#45;charts#196215337 -->
<g id="node26" class="node">
<title>http://purl.org/dj/kaggle/line&#45;charts#196215337</title>
<ellipse fill="none" stroke="black" cx="666.79" cy="-582" rx="131.88" ry="18"/>
<text text-anchor="middle" x="666.79" y="-578.3" font-family="Times,serif" font-size="14.00">196215337 (plt(0)$3: Preparation)</text>
</g>
<!-- http://purl.org/dj/kaggle/line&#45;charts#196215337&#45;&gt;http://purl.org/dj/kaggle/line&#45;charts#4094759136 -->
<g id="edge32" class="edge">
<title>http://purl.org/dj/kaggle/line&#45;charts#196215337&#45;&gt;http://purl.org/dj/kaggle/line&#45;charts#4094759136</title>
<path fill="none" stroke="black" d="M667.72,-563.79C668.91,-529.22 668.27,-449.59 641.79,-390 634.55,-373.72 622.13,-358.36 610.64,-346.37"/>
<polygon fill="black" stroke="black" points="612.83,-343.61 603.29,-339 607.88,-348.55 612.83,-343.61"/>
<text text-anchor="middle" x="678.79" y="-447.8" font-family="Times,serif" font-size="14.00">title ()</text>
</g>
<!-- http://purl.org/dj/kaggle/line&#45;charts#196149800 -->
<g id="node27" class="node">
<title>http://purl.org/dj/kaggle/line&#45;charts#196149800</title>
<ellipse fill="none" stroke="black" cx="500.79" cy="-495" rx="137.58" ry="18"/>
<text text-anchor="middle" x="500.79" y="-491.3" font-family="Times,serif" font-size="14.00">196149800 (plt(0)$2: Visualisation)</text>
</g>
<!-- http://purl.org/dj/kaggle/line&#45;charts#196215337&#45;&gt;http://purl.org/dj/kaggle/line&#45;charts#196149800 -->
<g id="edge33" class="edge">
<title>http://purl.org/dj/kaggle/line&#45;charts#196215337&#45;&gt;http://purl.org/dj/kaggle/line&#45;charts#196149800</title>
<path fill="none" stroke="black" d="M634.39,-564.41C607.99,-550.89 570.56,-531.73 542.03,-517.12"/>
<polygon fill="black" stroke="black" points="543.6,-513.99 533.11,-512.55 540.41,-520.22 543.6,-513.99"/>
<text text-anchor="middle" x="610.79" y="-534.8" font-family="Times,serif" font-size="14.00">title ()</text>
</g>
<!-- http://purl.org/dj/kaggle/line&#45;charts#196149800&#45;&gt;http://purl.org/dj/kaggle/line&#45;charts#196084263 -->
<g id="edge34" class="edge">
<title>http://purl.org/dj/kaggle/line&#45;charts#196149800&#45;&gt;http://purl.org/dj/kaggle/line&#45;charts#196084263</title>
<path fill="none" stroke="black" d="M500.79,-476.8C500.79,-465.16 500.79,-449.55 500.79,-436.24"/>
<polygon fill="black" stroke="black" points="504.29,-436.18 500.79,-426.18 497.29,-436.18 504.29,-436.18"/>
<text text-anchor="middle" x="523.29" y="-447.8" font-family="Times,serif" font-size="14.00">figure ()</text>
</g>
<!-- http://purl.org/dj/kaggle/line&#45;charts#196280874 -->
<g id="node28" class="node">
<title>http://purl.org/dj/kaggle/line&#45;charts#196280874</title>
<ellipse fill="none" stroke="black" cx="1014.79" cy="-669" rx="137.58" ry="18"/>
<text text-anchor="middle" x="1014.79" y="-665.3" font-family="Times,serif" font-size="14.00">196280874 (plt(0)$4: Visualisation)</text>
</g>
<!-- http://purl.org/dj/kaggle/line&#45;charts#196280874&#45;&gt;http://purl.org/dj/kaggle/line&#45;charts#151126528 -->
<g id="edge35" class="edge">
<title>http://purl.org/dj/kaggle/line&#45;charts#196280874&#45;&gt;http://purl.org/dj/kaggle/line&#45;charts#151126528</title>
<path fill="none" stroke="black" d="M1092.57,-653.98C1129.97,-642.28 1166.79,-621.1 1166.79,-583 1166.79,-583 1166.79,-583 1166.79,-407 1166.79,-367.51 1203.56,-346.36 1243.19,-335.04"/>
<polygon fill="black" stroke="black" points="1244.26,-338.38 1253.03,-332.44 1242.47,-331.61 1244.26,-338.38"/>
<text text-anchor="middle" x="1189.79" y="-491.3" font-family="Times,serif" font-size="14.00">xlabel ()</text>
</g>
<!-- http://purl.org/dj/kaggle/line&#45;charts#196280874&#45;&gt;http://purl.org/dj/kaggle/line&#45;charts#196215337 -->
<g id="edge36" class="edge">
<title>http://purl.org/dj/kaggle/line&#45;charts#196280874&#45;&gt;http://purl.org/dj/kaggle/line&#45;charts#196215337</title>
<path fill="none" stroke="black" d="M952.97,-652.9C892.72,-638.18 801.18,-615.83 737.93,-600.38"/>
<polygon fill="black" stroke="black" points="738.57,-596.93 728.03,-597.96 736.91,-603.73 738.57,-596.93"/>
<text text-anchor="middle" x="884.79" y="-621.8" font-family="Times,serif" font-size="14.00">xlabel ()</text>
</g>
</g>
</svg>
