<?xml version="1.0" encoding="UTF-8" standalone="no"?>
<!DOCTYPE svg PUBLIC "-//W3C//DTD SVG 1.1//EN"
 "http://www.w3.org/Graphics/SVG/1.1/DTD/svg11.dtd">
<!-- Generated by graphviz version 2.44.1 (20200629.0846)
 -->
<!-- Pages: 1 -->
<svg width="1887pt" height="587pt"
 viewBox="0.00 0.00 1886.63 587.00" xmlns="http://www.w3.org/2000/svg" xmlns:xlink="http://www.w3.org/1999/xlink">
<g id="graph0" class="graph" transform="scale(1 1) rotate(0) translate(4 583)">
<polygon fill="white" stroke="transparent" points="-4,4 -4,-583 1882.63,-583 1882.63,4 -4,4"/>
<!-- http://purl.org/dj/kaggle/line&#45;charts#1024263646 -->
<g id="node1" class="node">
<title>http://purl.org/dj/kaggle/line&#45;charts#1024263646</title>
<ellipse fill="none" stroke="black" cx="272.54" cy="-387" rx="170.87" ry="18"/>
<text text-anchor="middle" x="272.54" y="-383.3" font-family="Times,serif" font-size="14.00">1024263646 (spotify_data(0)$1: Preparation)</text>
</g>
<!-- http://purl.org/dj/kaggle/line&#45;charts#1024198109 -->
<g id="node2" class="node">
<title>http://purl.org/dj/kaggle/line&#45;charts#1024198109</title>
<ellipse fill="none" stroke="black" cx="272.54" cy="-300" rx="168.97" ry="18"/>
<text text-anchor="middle" x="272.54" y="-296.3" font-family="Times,serif" font-size="14.00">1024198109 (spotify_data(0)$0: Movement)</text>
</g>
<!-- http://purl.org/dj/kaggle/line&#45;charts#1024263646&#45;&gt;http://purl.org/dj/kaggle/line&#45;charts#1024198109 -->
<g id="edge1" class="edge">
<title>http://purl.org/dj/kaggle/line&#45;charts#1024263646&#45;&gt;http://purl.org/dj/kaggle/line&#45;charts#1024198109</title>
<path fill="none" stroke="black" d="M272.54,-368.8C272.54,-357.16 272.54,-341.55 272.54,-328.24"/>
<polygon fill="black" stroke="black" points="276.04,-328.18 272.54,-318.18 269.04,-328.18 276.04,-328.18"/>
<text text-anchor="middle" x="296.04" y="-339.8" font-family="Times,serif" font-size="14.00">previous</text>
</g>
<!-- http://purl.org/dj/kaggle/line&#45;charts#1616513012 -->
<g id="node3" class="node">
<title>http://purl.org/dj/kaggle/line&#45;charts#1616513012</title>
<ellipse fill="none" stroke="black" cx="554.54" cy="-159" rx="165.17" ry="18"/>
<text text-anchor="middle" x="554.54" y="-155.3" font-family="Times,serif" font-size="14.00">1616513012 (../input/spotify.csv(0): Reuse)</text>
</g>
<!-- http://purl.org/dj/kaggle/line&#45;charts#1024198109&#45;&gt;http://purl.org/dj/kaggle/line&#45;charts#1616513012 -->
<g id="edge2" class="edge">
<title>http://purl.org/dj/kaggle/line&#45;charts#1024198109&#45;&gt;http://purl.org/dj/kaggle/line&#45;charts#1616513012</title>
<path fill="none" stroke="black" d="M302.65,-282.11C341.09,-260.8 409.92,-223.48 470.54,-195 481.05,-190.06 492.44,-185.08 503.35,-180.48"/>
<polygon fill="black" stroke="black" points="504.9,-183.63 512.78,-176.54 502.2,-177.17 504.9,-183.63"/>
<text text-anchor="middle" x="386.04" y="-252.8" font-family="Times,serif" font-size="14.00">previous</text>
</g>
<!-- http://purl.org/dj/kaggle/line&#45;charts#151126528 -->
<g id="node4" class="node">
<title>http://purl.org/dj/kaggle/line&#45;charts#151126528</title>
<ellipse fill="none" stroke="black" cx="591.54" cy="-213" rx="111.58" ry="18"/>
<text text-anchor="middle" x="591.54" y="-209.3" font-family="Times,serif" font-size="14.00">151126528 (Date(0): Reuse)</text>
</g>
<!-- http://purl.org/dj/kaggle/line&#45;charts#1024198109&#45;&gt;http://purl.org/dj/kaggle/line&#45;charts#151126528 -->
<g id="edge3" class="edge">
<title>http://purl.org/dj/kaggle/line&#45;charts#1024198109&#45;&gt;http://purl.org/dj/kaggle/line&#45;charts#151126528</title>
<path fill="none" stroke="black" d="M342.1,-283.5C367.21,-277.68 395.72,-270.82 421.54,-264 458.6,-254.2 499.86,-242.1 532.45,-232.25"/>
<polygon fill="black" stroke="black" points="533.72,-235.53 542.27,-229.27 531.69,-228.83 533.72,-235.53"/>
<text text-anchor="middle" x="497.04" y="-252.8" font-family="Times,serif" font-size="14.00">previous</text>
</g>
<!-- http://purl.org/dj/kaggle/line&#45;charts#80085334 -->
<g id="node5" class="node">
<title>http://purl.org/dj/kaggle/line&#45;charts#80085334</title>
<ellipse fill="none" stroke="black" cx="108.54" cy="-213" rx="108.58" ry="18"/>
<text text-anchor="middle" x="108.54" y="-209.3" font-family="Times,serif" font-size="14.00">80085334 (pd(0): Analysis)</text>
</g>
<!-- http://purl.org/dj/kaggle/line&#45;charts#1024198109&#45;&gt;http://purl.org/dj/kaggle/line&#45;charts#80085334 -->
<g id="edge4" class="edge">
<title>http://purl.org/dj/kaggle/line&#45;charts#1024198109&#45;&gt;http://purl.org/dj/kaggle/line&#45;charts#80085334</title>
<path fill="none" stroke="black" d="M239.15,-282.19C227.83,-276.45 215.12,-269.98 203.54,-264 185.38,-254.61 165.34,-244.09 148.37,-235.13"/>
<polygon fill="black" stroke="black" points="149.76,-231.91 139.28,-230.33 146.49,-238.1 149.76,-231.91"/>
<text text-anchor="middle" x="227.04" y="-252.8" font-family="Times,serif" font-size="14.00">previous</text>
</g>
<!-- http://purl.org/dj/kaggle/line&#45;charts#165478946 -->
<g id="node6" class="node">
<title>http://purl.org/dj/kaggle/line&#45;charts#165478946</title>
<ellipse fill="none" stroke="black" cx="272.54" cy="-159" rx="111.58" ry="18"/>
<text text-anchor="middle" x="272.54" y="-155.3" font-family="Times,serif" font-size="14.00">165478946 (True(0): Reuse)</text>
</g>
<!-- http://purl.org/dj/kaggle/line&#45;charts#1024198109&#45;&gt;http://purl.org/dj/kaggle/line&#45;charts#165478946 -->
<g id="edge5" class="edge">
<title>http://purl.org/dj/kaggle/line&#45;charts#1024198109&#45;&gt;http://purl.org/dj/kaggle/line&#45;charts#165478946</title>
<path fill="none" stroke="black" d="M272.54,-281.96C272.54,-258.4 272.54,-215.64 272.54,-187.53"/>
<polygon fill="black" stroke="black" points="276.04,-187.18 272.54,-177.18 269.04,-187.18 276.04,-187.18"/>
<text text-anchor="middle" x="296.04" y="-252.8" font-family="Times,serif" font-size="14.00">previous</text>
</g>
<!-- http://purl.org/dj/kaggle/line&#45;charts -->
<g id="node7" class="node">
<title>http://purl.org/dj/kaggle/line&#45;charts</title>
<ellipse fill="none" stroke="black" cx="817.54" cy="-18" rx="48.19" ry="18"/>
<text text-anchor="middle" x="817.54" y="-14.3" font-family="Times,serif" font-size="14.00">line&#45;charts</text>
</g>
<!-- http://purl.org/dj/kaggle/line&#45;charts#1616513012&#45;&gt;http://purl.org/dj/kaggle/line&#45;charts -->
<g id="edge6" class="edge">
<title>http://purl.org/dj/kaggle/line&#45;charts#1616513012&#45;&gt;http://purl.org/dj/kaggle/line&#45;charts</title>
<path fill="none" stroke="black" d="M577.73,-141.02C608.95,-118.75 666.78,-79.53 720.54,-54 736.75,-46.3 755.13,-39.27 771.5,-33.56"/>
<polygon fill="black" stroke="black" points="773.06,-36.73 781.39,-30.18 770.8,-30.1 773.06,-36.73"/>
<text text-anchor="middle" x="680.04" y="-101.3" font-family="Times,serif" font-size="14.00">previous</text>
</g>
<!-- http://purl.org/dj/kaggle/line&#45;charts#151126528&#45;&gt;http://purl.org/dj/kaggle/line&#45;charts -->
<g id="edge7" class="edge">
<title>http://purl.org/dj/kaggle/line&#45;charts#151126528&#45;&gt;http://purl.org/dj/kaggle/line&#45;charts</title>
<path fill="none" stroke="black" d="M673.06,-200.62C690,-195.44 706.84,-187.92 720.54,-177 755.99,-148.75 744.57,-125.48 768.54,-87 777.73,-72.25 789.01,-56.46 798.43,-43.81"/>
<polygon fill="black" stroke="black" points="801.39,-45.71 804.61,-35.61 795.8,-41.49 801.39,-45.71"/>
<text text-anchor="middle" x="792.04" y="-101.3" font-family="Times,serif" font-size="14.00">previous</text>
</g>
<!-- http://purl.org/dj/kaggle/line&#45;charts#80085334&#45;&gt;http://purl.org/dj/kaggle/line&#45;charts -->
<g id="edge8" class="edge">
<title>http://purl.org/dj/kaggle/line&#45;charts#80085334&#45;&gt;http://purl.org/dj/kaggle/line&#45;charts</title>
<path fill="none" stroke="black" d="M98.47,-195.07C90.99,-180.12 83.52,-158.1 92.54,-141 112.39,-103.39 131.85,-102.28 171.54,-87 278.34,-45.88 621.85,-27.22 759.6,-21.25"/>
<polygon fill="black" stroke="black" points="760.1,-24.73 769.94,-20.81 759.8,-17.74 760.1,-24.73"/>
<text text-anchor="middle" x="195.04" y="-101.3" font-family="Times,serif" font-size="14.00">previous</text>
</g>
<!-- http://purl.org/dj/python/lib/144966264 -->
<g id="node8" class="node">
<title>http://purl.org/dj/python/lib/144966264</title>
<ellipse fill="none" stroke="black" cx="336.54" cy="-105" rx="109.38" ry="18"/>
<text text-anchor="middle" x="336.54" y="-101.3" font-family="Times,serif" font-size="14.00">144966264 (pandas: Reuse)</text>
</g>
<!-- http://purl.org/dj/kaggle/line&#45;charts#80085334&#45;&gt;http://purl.org/dj/python/lib/144966264 -->
<g id="edge9" class="edge">
<title>http://purl.org/dj/kaggle/line&#45;charts#80085334&#45;&gt;http://purl.org/dj/python/lib/144966264</title>
<path fill="none" stroke="black" d="M101.54,-194.95C96.27,-179.07 91.9,-155.69 104.54,-141 120.11,-122.91 170.03,-114.05 219.6,-109.76"/>
<polygon fill="black" stroke="black" points="220.14,-113.22 229.82,-108.93 219.57,-106.25 220.14,-113.22"/>
<text text-anchor="middle" x="128.04" y="-155.3" font-family="Times,serif" font-size="14.00">previous</text>
</g>
<!-- http://purl.org/dj/kaggle/line&#45;charts#165478946&#45;&gt;http://purl.org/dj/kaggle/line&#45;charts -->
<g id="edge10" class="edge">
<title>http://purl.org/dj/kaggle/line&#45;charts#165478946&#45;&gt;http://purl.org/dj/kaggle/line&#45;charts</title>
<path fill="none" stroke="black" d="M349.75,-145.89C382.35,-140.07 420.56,-132.32 454.54,-123 500.09,-110.5 509.4,-100.93 554.54,-87 627.99,-64.34 714.53,-42.97 767.71,-30.43"/>
<polygon fill="black" stroke="black" points="768.63,-33.81 777.56,-28.12 767.03,-26.99 768.63,-33.81"/>
<text text-anchor="middle" x="578.04" y="-101.3" font-family="Times,serif" font-size="14.00">previous</text>
</g>
<!-- http://purl.org/dj/python/lib/144966264&#45;&gt;http://purl.org/dj/kaggle/line&#45;charts -->
<g id="edge18" class="edge">
<title>http://purl.org/dj/python/lib/144966264&#45;&gt;http://purl.org/dj/kaggle/line&#45;charts</title>
<path fill="none" stroke="black" d="M370.21,-87.78C395.33,-76.41 430.83,-61.89 463.54,-54 565.82,-29.32 688.75,-21.99 759.55,-19.84"/>
<polygon fill="black" stroke="black" points="759.71,-23.34 769.61,-19.56 759.51,-16.34 759.71,-23.34"/>
<text text-anchor="middle" x="487.04" y="-57.8" font-family="Times,serif" font-size="14.00">previous</text>
</g>
<!-- http://purl.org/dj/kaggle/line&#45;charts#196280874 -->
<g id="node9" class="node">
<title>http://purl.org/dj/kaggle/line&#45;charts#196280874</title>
<ellipse fill="none" stroke="black" cx="591.54" cy="-300" rx="131.88" ry="18"/>
<text text-anchor="middle" x="591.54" y="-296.3" font-family="Times,serif" font-size="14.00">196280874 (plt(0)$4: Preparation)</text>
</g>
<!-- http://purl.org/dj/kaggle/line&#45;charts#196280874&#45;&gt;http://purl.org/dj/kaggle/line&#45;charts#151126528 -->
<g id="edge11" class="edge">
<title>http://purl.org/dj/kaggle/line&#45;charts#196280874&#45;&gt;http://purl.org/dj/kaggle/line&#45;charts#151126528</title>
<path fill="none" stroke="black" d="M591.54,-281.8C591.54,-270.16 591.54,-254.55 591.54,-241.24"/>
<polygon fill="black" stroke="black" points="595.04,-241.18 591.54,-231.18 588.04,-241.18 595.04,-241.18"/>
<text text-anchor="middle" x="615.04" y="-252.8" font-family="Times,serif" font-size="14.00">previous</text>
</g>
<!-- http://purl.org/dj/kaggle/line&#45;charts#196084263 -->
<g id="node10" class="node">
<title>http://purl.org/dj/kaggle/line&#45;charts#196084263</title>
<ellipse fill="none" stroke="black" cx="1159.54" cy="-387" rx="131.88" ry="18"/>
<text text-anchor="middle" x="1159.54" y="-383.3" font-family="Times,serif" font-size="14.00">196084263 (plt(0)$1: Preparation)</text>
</g>
<!-- http://purl.org/dj/kaggle/line&#45;charts#196018726 -->
<g id="node11" class="node">
<title>http://purl.org/dj/kaggle/line&#45;charts#196018726</title>
<ellipse fill="none" stroke="black" cx="879.54" cy="-300" rx="137.58" ry="18"/>
<text text-anchor="middle" x="879.54" y="-296.3" font-family="Times,serif" font-size="14.00">196018726 (plt(0)$0: Visualisation)</text>
</g>
<!-- http://purl.org/dj/kaggle/line&#45;charts#196084263&#45;&gt;http://purl.org/dj/kaggle/line&#45;charts#196018726 -->
<g id="edge12" class="edge">
<title>http://purl.org/dj/kaggle/line&#45;charts#196084263&#45;&gt;http://purl.org/dj/kaggle/line&#45;charts#196018726</title>
<path fill="none" stroke="black" d="M1108.18,-370.41C1061.12,-356.12 991.34,-334.94 941.26,-319.74"/>
<polygon fill="black" stroke="black" points="942.1,-316.34 931.52,-316.78 940.07,-323.03 942.1,-316.34"/>
<text text-anchor="middle" x="1060.04" y="-339.8" font-family="Times,serif" font-size="14.00">previous</text>
</g>
<!-- http://purl.org/dj/kaggle/line&#45;charts#4094759136 -->
<g id="node12" class="node">
<title>http://purl.org/dj/kaggle/line&#45;charts#4094759136</title>
<ellipse fill="none" stroke="black" cx="1325.54" cy="-300" rx="289.75" ry="18"/>
<text text-anchor="middle" x="1325.54" y="-296.3" font-family="Times,serif" font-size="14.00">4094759136 (Daily Global Streams of Popular Songs in 2017&#45;2018(0): Reuse)</text>
</g>
<!-- http://purl.org/dj/kaggle/line&#45;charts#196084263&#45;&gt;http://purl.org/dj/kaggle/line&#45;charts#4094759136 -->
<g id="edge13" class="edge">
<title>http://purl.org/dj/kaggle/line&#45;charts#196084263&#45;&gt;http://purl.org/dj/kaggle/line&#45;charts#4094759136</title>
<path fill="none" stroke="black" d="M1191.94,-369.41C1218.08,-356.03 1255.04,-337.1 1283.47,-322.54"/>
<polygon fill="black" stroke="black" points="1285.06,-325.66 1292.37,-317.99 1281.87,-319.43 1285.06,-325.66"/>
<text text-anchor="middle" x="1275.04" y="-339.8" font-family="Times,serif" font-size="14.00">previous</text>
</g>
<!-- http://purl.org/dj/kaggle/line&#45;charts#127074770 -->
<g id="node13" class="node">
<title>http://purl.org/dj/kaggle/line&#45;charts#127074770</title>
<ellipse fill="none" stroke="black" cx="879.54" cy="-213" rx="113.18" ry="18"/>
<text text-anchor="middle" x="879.54" y="-209.3" font-family="Times,serif" font-size="14.00">127074770 (plt(0): Analysis)</text>
</g>
<!-- http://purl.org/dj/kaggle/line&#45;charts#196018726&#45;&gt;http://purl.org/dj/kaggle/line&#45;charts#127074770 -->
<g id="edge14" class="edge">
<title>http://purl.org/dj/kaggle/line&#45;charts#196018726&#45;&gt;http://purl.org/dj/kaggle/line&#45;charts#127074770</title>
<path fill="none" stroke="black" d="M879.54,-281.8C879.54,-270.16 879.54,-254.55 879.54,-241.24"/>
<polygon fill="black" stroke="black" points="883.04,-241.18 879.54,-231.18 876.04,-241.18 883.04,-241.18"/>
<text text-anchor="middle" x="903.04" y="-252.8" font-family="Times,serif" font-size="14.00">previous</text>
</g>
<!-- http://purl.org/dj/kaggle/line&#45;charts#4094759136&#45;&gt;http://purl.org/dj/kaggle/line&#45;charts -->
<g id="edge15" class="edge">
<title>http://purl.org/dj/kaggle/line&#45;charts#4094759136&#45;&gt;http://purl.org/dj/kaggle/line&#45;charts</title>
<path fill="none" stroke="black" d="M1303.01,-281.97C1287.47,-269.29 1267.22,-250.81 1253.54,-231 1214.14,-173.95 1247.56,-130.46 1193.54,-87 1145.28,-48.17 967.34,-29.81 874.6,-22.71"/>
<polygon fill="black" stroke="black" points="874.78,-19.22 864.54,-21.96 874.25,-26.2 874.78,-19.22"/>
<text text-anchor="middle" x="1255.04" y="-155.3" font-family="Times,serif" font-size="14.00">previous</text>
</g>
<!-- http://purl.org/dj/kaggle/line&#45;charts#127074770&#45;&gt;http://purl.org/dj/kaggle/line&#45;charts -->
<g id="edge16" class="edge">
<title>http://purl.org/dj/kaggle/line&#45;charts#127074770&#45;&gt;http://purl.org/dj/kaggle/line&#45;charts</title>
<path fill="none" stroke="black" d="M866.26,-195.07C853.63,-177.96 835.31,-150.22 826.54,-123 818.41,-97.77 816.63,-67.41 816.6,-46.03"/>
<polygon fill="black" stroke="black" points="820.1,-46.07 816.71,-36.03 813.1,-45.99 820.1,-46.07"/>
<text text-anchor="middle" x="850.04" y="-101.3" font-family="Times,serif" font-size="14.00">previous</text>
</g>
<!-- http://purl.org/dj/python/lib/1065617167 -->
<g id="node14" class="node">
<title>http://purl.org/dj/python/lib/1065617167</title>
<ellipse fill="none" stroke="black" cx="1033.54" cy="-105" rx="150.57" ry="18"/>
<text text-anchor="middle" x="1033.54" y="-101.3" font-family="Times,serif" font-size="14.00">1065617167 (matplotlib.pyplot: Reuse)</text>
</g>
<!-- http://purl.org/dj/kaggle/line&#45;charts#127074770&#45;&gt;http://purl.org/dj/python/lib/1065617167 -->
<g id="edge17" class="edge">
<title>http://purl.org/dj/kaggle/line&#45;charts#127074770&#45;&gt;http://purl.org/dj/python/lib/1065617167</title>
<path fill="none" stroke="black" d="M903.94,-195.2C930,-177.27 971.45,-148.74 1000.43,-128.79"/>
<polygon fill="black" stroke="black" points="1002.75,-131.45 1009,-122.89 998.78,-125.68 1002.75,-131.45"/>
<text text-anchor="middle" x="1003.04" y="-155.3" font-family="Times,serif" font-size="14.00">previous</text>
</g>
<!-- http://purl.org/dj/python/lib/1065617167&#45;&gt;http://purl.org/dj/kaggle/line&#45;charts -->
<g id="edge26" class="edge">
<title>http://purl.org/dj/python/lib/1065617167&#45;&gt;http://purl.org/dj/kaggle/line&#45;charts</title>
<path fill="none" stroke="black" d="M991.89,-87.61C953.74,-72.6 897.56,-50.49 859.36,-35.46"/>
<polygon fill="black" stroke="black" points="860.16,-32.01 849.57,-31.6 857.6,-38.52 860.16,-32.01"/>
<text text-anchor="middle" x="962.04" y="-57.8" font-family="Times,serif" font-size="14.00">previous</text>
</g>
<!-- http://purl.org/dj/kaggle/line&#45;charts#196215337 -->
<g id="node15" class="node">
<title>http://purl.org/dj/kaggle/line&#45;charts#196215337</title>
<ellipse fill="none" stroke="black" cx="1242.54" cy="-561" rx="131.88" ry="18"/>
<text text-anchor="middle" x="1242.54" y="-557.3" font-family="Times,serif" font-size="14.00">196215337 (plt(0)$3: Preparation)</text>
</g>
<!-- http://purl.org/dj/kaggle/line&#45;charts#196215337&#45;&gt;http://purl.org/dj/kaggle/line&#45;charts#4094759136 -->
<g id="edge19" class="edge">
<title>http://purl.org/dj/kaggle/line&#45;charts#196215337&#45;&gt;http://purl.org/dj/kaggle/line&#45;charts#4094759136</title>
<path fill="none" stroke="black" d="M1264.58,-543.22C1279.14,-530.79 1297.21,-512.51 1306.54,-492 1331.1,-438.03 1330.7,-366.81 1328.17,-328.4"/>
<polygon fill="black" stroke="black" points="1331.63,-327.73 1327.38,-318.03 1324.65,-328.26 1331.63,-327.73"/>
<text text-anchor="middle" x="1348.04" y="-426.8" font-family="Times,serif" font-size="14.00">previous</text>
</g>
<!-- http://purl.org/dj/kaggle/line&#45;charts#196149800 -->
<g id="node16" class="node">
<title>http://purl.org/dj/kaggle/line&#45;charts#196149800</title>
<ellipse fill="none" stroke="black" cx="1159.54" cy="-474" rx="137.58" ry="18"/>
<text text-anchor="middle" x="1159.54" y="-470.3" font-family="Times,serif" font-size="14.00">196149800 (plt(0)$2: Visualisation)</text>
</g>
<!-- http://purl.org/dj/kaggle/line&#45;charts#196215337&#45;&gt;http://purl.org/dj/kaggle/line&#45;charts#196149800 -->
<g id="edge20" class="edge">
<title>http://purl.org/dj/kaggle/line&#45;charts#196215337&#45;&gt;http://purl.org/dj/kaggle/line&#45;charts#196149800</title>
<path fill="none" stroke="black" d="M1225.74,-542.8C1213.51,-530.27 1196.78,-513.14 1183.2,-499.23"/>
<polygon fill="black" stroke="black" points="1185.52,-496.59 1176.03,-491.89 1180.51,-501.49 1185.52,-496.59"/>
<text text-anchor="middle" x="1230.04" y="-513.8" font-family="Times,serif" font-size="14.00">previous</text>
</g>
<!-- http://purl.org/dj/kaggle/line&#45;charts#196149800&#45;&gt;http://purl.org/dj/kaggle/line&#45;charts#196084263 -->
<g id="edge21" class="edge">
<title>http://purl.org/dj/kaggle/line&#45;charts#196149800&#45;&gt;http://purl.org/dj/kaggle/line&#45;charts#196084263</title>
<path fill="none" stroke="black" d="M1159.54,-455.8C1159.54,-444.16 1159.54,-428.55 1159.54,-415.24"/>
<polygon fill="black" stroke="black" points="1163.04,-415.18 1159.54,-405.18 1156.04,-415.18 1163.04,-415.18"/>
<text text-anchor="middle" x="1183.04" y="-426.8" font-family="Times,serif" font-size="14.00">previous</text>
</g>
<!-- http://purl.org/dj/kaggle/line&#45;charts#1024329183 -->
<g id="node17" class="node">
<title>http://purl.org/dj/kaggle/line&#45;charts#1024329183</title>
<ellipse fill="none" stroke="black" cx="272.54" cy="-474" rx="160.57" ry="18"/>
<text text-anchor="middle" x="272.54" y="-470.3" font-family="Times,serif" font-size="14.00">1024329183 (spotify_data(0)$2: Analysis)</text>
</g>
<!-- http://purl.org/dj/kaggle/line&#45;charts#1024329183&#45;&gt;http://purl.org/dj/kaggle/line&#45;charts#1024263646 -->
<g id="edge22" class="edge">
<title>http://purl.org/dj/kaggle/line&#45;charts#1024329183&#45;&gt;http://purl.org/dj/kaggle/line&#45;charts#1024263646</title>
<path fill="none" stroke="black" d="M272.54,-455.8C272.54,-444.16 272.54,-428.55 272.54,-415.24"/>
<polygon fill="black" stroke="black" points="276.04,-415.18 272.54,-405.18 269.04,-415.18 276.04,-415.18"/>
<text text-anchor="middle" x="296.04" y="-426.8" font-family="Times,serif" font-size="14.00">previous</text>
</g>
<!-- http://purl.org/dj/python/lib/194380523 -->
<g id="node18" class="node">
<title>http://purl.org/dj/python/lib/194380523</title>
<ellipse fill="none" stroke="black" cx="1443.54" cy="-105" rx="112.38" ry="18"/>
<text text-anchor="middle" x="1443.54" y="-101.3" font-family="Times,serif" font-size="14.00">194380523 (seaborn: Reuse)</text>
</g>
<!-- http://purl.org/dj/python/lib/194380523&#45;&gt;http://purl.org/dj/kaggle/line&#45;charts -->
<g id="edge23" class="edge">
<title>http://purl.org/dj/python/lib/194380523&#45;&gt;http://purl.org/dj/kaggle/line&#45;charts</title>
<path fill="none" stroke="black" d="M1401.29,-88.2C1368.76,-76.74 1322.42,-61.91 1280.54,-54 1136.72,-26.86 964.01,-20.61 875.74,-19.27"/>
<polygon fill="black" stroke="black" points="875.7,-15.77 865.65,-19.13 875.61,-22.77 875.7,-15.77"/>
<text text-anchor="middle" x="1363.04" y="-57.8" font-family="Times,serif" font-size="14.00">previous</text>
</g>
<!-- http://purl.org/dj/kaggle/line&#45;charts#128647638 -->
<g id="node19" class="node">
<title>http://purl.org/dj/kaggle/line&#45;charts#128647638</title>
<ellipse fill="none" stroke="black" cx="1377.54" cy="-213" rx="115.08" ry="18"/>
<text text-anchor="middle" x="1377.54" y="-209.3" font-family="Times,serif" font-size="14.00">128647638 (sns(0): Analysis)</text>
</g>
<!-- http://purl.org/dj/kaggle/line&#45;charts#128647638&#45;&gt;http://purl.org/dj/kaggle/line&#45;charts -->
<g id="edge24" class="edge">
<title>http://purl.org/dj/kaggle/line&#45;charts#128647638&#45;&gt;http://purl.org/dj/kaggle/line&#45;charts</title>
<path fill="none" stroke="black" d="M1355.5,-195.28C1333.89,-178.33 1300.61,-150.71 1275.54,-123 1250.31,-95.11 1259.19,-72.67 1226.54,-54 1196.79,-36.99 980.86,-25.78 875.31,-21.26"/>
<polygon fill="black" stroke="black" points="875.28,-17.76 865.14,-20.83 874.99,-24.75 875.28,-17.76"/>
<text text-anchor="middle" x="1299.04" y="-101.3" font-family="Times,serif" font-size="14.00">previous</text>
</g>
<!-- http://purl.org/dj/kaggle/line&#45;charts#128647638&#45;&gt;http://purl.org/dj/python/lib/194380523 -->
<g id="edge25" class="edge">
<title>http://purl.org/dj/kaggle/line&#45;charts#128647638&#45;&gt;http://purl.org/dj/python/lib/194380523</title>
<path fill="none" stroke="black" d="M1388.14,-194.97C1398.78,-177.89 1415.28,-151.38 1427.51,-131.74"/>
<polygon fill="black" stroke="black" points="1430.65,-133.33 1432.96,-122.99 1424.71,-129.63 1430.65,-133.33"/>
<text text-anchor="middle" x="1443.04" y="-155.3" font-family="Times,serif" font-size="14.00">previous</text>
</g>
<!-- http://purl.org/dj/kaggle/line&#45;charts#249561878 -->
<g id="node20" class="node">
<title>http://purl.org/dj/kaggle/line&#45;charts#249561878</title>
<ellipse fill="none" stroke="black" cx="1726.54" cy="-213" rx="136.48" ry="18"/>
<text text-anchor="middle" x="1726.54" y="-209.3" font-family="Times,serif" font-size="14.00">249561878 (print[0]: Visualisation)</text>
</g>
<!-- http://purl.org/dj/kaggle/line&#45;charts#956106220 -->
<g id="node21" class="node">
<title>http://purl.org/dj/kaggle/line&#45;charts#956106220</title>
<ellipse fill="none" stroke="black" cx="1726.54" cy="-105" rx="152.17" ry="18"/>
<text text-anchor="middle" x="1726.54" y="-101.3" font-family="Times,serif" font-size="14.00">956106220 (Setup Complete(0): Reuse)</text>
</g>
<!-- http://purl.org/dj/kaggle/line&#45;charts#249561878&#45;&gt;http://purl.org/dj/kaggle/line&#45;charts#956106220 -->
<g id="edge27" class="edge">
<title>http://purl.org/dj/kaggle/line&#45;charts#249561878&#45;&gt;http://purl.org/dj/kaggle/line&#45;charts#956106220</title>
<path fill="none" stroke="black" d="M1726.54,-194.97C1726.54,-178.38 1726.54,-152.88 1726.54,-133.43"/>
<polygon fill="black" stroke="black" points="1730.04,-133.34 1726.54,-123.34 1723.04,-133.34 1730.04,-133.34"/>
<text text-anchor="middle" x="1750.04" y="-155.3" font-family="Times,serif" font-size="14.00">previous</text>
</g>
<!-- http://purl.org/dj/kaggle/line&#45;charts#956106220&#45;&gt;http://purl.org/dj/kaggle/line&#45;charts -->
<g id="edge28" class="edge">
<title>http://purl.org/dj/kaggle/line&#45;charts#956106220&#45;&gt;http://purl.org/dj/kaggle/line&#45;charts</title>
<path fill="none" stroke="black" d="M1644.63,-89.78C1576.75,-78.49 1477.64,-63.12 1390.54,-54 1202.71,-34.33 979,-24.6 875.44,-20.88"/>
<polygon fill="black" stroke="black" points="875.31,-17.37 865.2,-20.51 875.07,-24.36 875.31,-17.37"/>
<text text-anchor="middle" x="1525.04" y="-57.8" font-family="Times,serif" font-size="14.00">previous</text>
</g>
</g>
</svg>
