<?xml version="1.0" encoding="UTF-8" standalone="no"?>
<!DOCTYPE svg PUBLIC "-//W3C//DTD SVG 1.1//EN"
 "http://www.w3.org/Graphics/SVG/1.1/DTD/svg11.dtd">
<!-- Generated by graphviz version 2.44.1 (20200629.0846)
 -->
<!-- Pages: 1 -->
<svg width="2478pt" height="674pt"
 viewBox="0.00 0.00 2477.96 674.00" xmlns="http://www.w3.org/2000/svg" xmlns:xlink="http://www.w3.org/1999/xlink">
<g id="graph0" class="graph" transform="scale(1 1) rotate(0) translate(4 670)">
<polygon fill="white" stroke="transparent" points="-4,4 -4,-670 2473.96,-670 2473.96,4 -4,4"/>
<!-- http://purl.org/dj/kaggle/line&#45;charts#196280874 -->
<g id="node1" class="node">
<title>http://purl.org/dj/kaggle/line&#45;charts#196280874</title>
<ellipse fill="none" stroke="black" cx="873.87" cy="-648" rx="131.88" ry="18"/>
<text text-anchor="middle" x="873.87" y="-644.3" font-family="Times,serif" font-size="14.00">196280874 (plt(0)$4: Preparation)</text>
</g>
<!-- http://purl.org/dj/kaggle/line&#45;charts#151126528 -->
<g id="node2" class="node">
<title>http://purl.org/dj/kaggle/line&#45;charts#151126528</title>
<ellipse fill="none" stroke="black" cx="1003.87" cy="-300" rx="111.58" ry="18"/>
<text text-anchor="middle" x="1003.87" y="-296.3" font-family="Times,serif" font-size="14.00">151126528 (Date(0): Reuse)</text>
</g>
<!-- http://purl.org/dj/kaggle/line&#45;charts#196280874&#45;&gt;http://purl.org/dj/kaggle/line&#45;charts#151126528 -->
<g id="edge1" class="edge">
<title>http://purl.org/dj/kaggle/line&#45;charts#196280874&#45;&gt;http://purl.org/dj/kaggle/line&#45;charts#151126528</title>
<path fill="none" stroke="black" d="M923.88,-631.33C954.51,-618.27 987.87,-596.19 987.87,-562 987.87,-562 987.87,-562 987.87,-386 987.87,-366.41 992.03,-344.72 996.1,-328.15"/>
<polygon fill="black" stroke="black" points="999.59,-328.64 998.72,-318.08 992.82,-326.88 999.59,-328.64"/>
<text text-anchor="middle" x="1004.87" y="-470.3" font-family="Times,serif" font-size="14.00">xlabel</text>
</g>
<!-- http://purl.org/dj/kaggle/line&#45;charts#196215337 -->
<g id="node3" class="node">
<title>http://purl.org/dj/kaggle/line&#45;charts#196215337</title>
<ellipse fill="none" stroke="black" cx="560.87" cy="-561" rx="131.88" ry="18"/>
<text text-anchor="middle" x="560.87" y="-557.3" font-family="Times,serif" font-size="14.00">196215337 (plt(0)$3: Preparation)</text>
</g>
<!-- http://purl.org/dj/kaggle/line&#45;charts#196280874&#45;&gt;http://purl.org/dj/kaggle/line&#45;charts#196215337 -->
<g id="edge2" class="edge">
<title>http://purl.org/dj/kaggle/line&#45;charts#196280874&#45;&gt;http://purl.org/dj/kaggle/line&#45;charts#196215337</title>
<path fill="none" stroke="black" d="M817.55,-631.71C764.09,-617.19 683.72,-595.36 627.18,-580.01"/>
<polygon fill="black" stroke="black" points="627.84,-576.56 617.27,-577.31 626,-583.31 627.84,-576.56"/>
<text text-anchor="middle" x="753.87" y="-600.8" font-family="Times,serif" font-size="14.00">xlabel</text>
</g>
<!-- http://purl.org/dj/kaggle/line&#45;charts -->
<g id="node4" class="node">
<title>http://purl.org/dj/kaggle/line&#45;charts</title>
<ellipse fill="none" stroke="black" cx="1424.87" cy="-18" rx="48.19" ry="18"/>
<text text-anchor="middle" x="1424.87" y="-14.3" font-family="Times,serif" font-size="14.00">line&#45;charts</text>
</g>
<!-- http://purl.org/dj/kaggle/line&#45;charts#151126528&#45;&gt;http://purl.org/dj/kaggle/line&#45;charts -->
<g id="edge3" class="edge">
<title>http://purl.org/dj/kaggle/line&#45;charts#151126528&#45;&gt;http://purl.org/dj/kaggle/line&#45;charts</title>
<path fill="none" stroke="black" d="M1014.48,-281.92C1043.09,-236.35 1122.35,-113.56 1161.87,-87 1224.34,-45.03 1311.11,-28.96 1367.62,-22.81"/>
<polygon fill="black" stroke="black" points="1368.22,-26.27 1377.81,-21.77 1367.51,-19.3 1368.22,-26.27"/>
<text text-anchor="middle" x="1157.37" y="-144.8" font-family="Times,serif" font-size="14.00">previousActivity</text>
</g>
<!-- http://purl.org/dj/kaggle/line&#45;charts#196149800 -->
<g id="node5" class="node">
<title>http://purl.org/dj/kaggle/line&#45;charts#196149800</title>
<ellipse fill="none" stroke="black" cx="560.87" cy="-474" rx="137.58" ry="18"/>
<text text-anchor="middle" x="560.87" y="-470.3" font-family="Times,serif" font-size="14.00">196149800 (plt(0)$2: Visualisation)</text>
</g>
<!-- http://purl.org/dj/kaggle/line&#45;charts#196215337&#45;&gt;http://purl.org/dj/kaggle/line&#45;charts#196149800 -->
<g id="edge4" class="edge">
<title>http://purl.org/dj/kaggle/line&#45;charts#196215337&#45;&gt;http://purl.org/dj/kaggle/line&#45;charts#196149800</title>
<path fill="none" stroke="black" d="M560.87,-542.8C560.87,-531.16 560.87,-515.55 560.87,-502.24"/>
<polygon fill="black" stroke="black" points="564.37,-502.18 560.87,-492.18 557.37,-502.18 564.37,-502.18"/>
<text text-anchor="middle" x="571.87" y="-513.8" font-family="Times,serif" font-size="14.00">title</text>
</g>
<!-- http://purl.org/dj/kaggle/line&#45;charts#4094759136 -->
<g id="node6" class="node">
<title>http://purl.org/dj/kaggle/line&#45;charts#4094759136</title>
<ellipse fill="none" stroke="black" cx="289.87" cy="-300" rx="289.75" ry="18"/>
<text text-anchor="middle" x="289.87" y="-296.3" font-family="Times,serif" font-size="14.00">4094759136 (Daily Global Streams of Popular Songs in 2017&#45;2018(0): Reuse)</text>
</g>
<!-- http://purl.org/dj/kaggle/line&#45;charts#196215337&#45;&gt;http://purl.org/dj/kaggle/line&#45;charts#4094759136 -->
<g id="edge5" class="edge">
<title>http://purl.org/dj/kaggle/line&#45;charts#196215337&#45;&gt;http://purl.org/dj/kaggle/line&#45;charts#4094759136</title>
<path fill="none" stroke="black" d="M509.52,-544.32C479.26,-533.23 441.6,-516.03 413.87,-492 359.23,-444.64 319.37,-367.44 301.06,-327.23"/>
<polygon fill="black" stroke="black" points="304.25,-325.78 296.98,-318.07 297.85,-328.63 304.25,-325.78"/>
<text text-anchor="middle" x="375.87" y="-426.8" font-family="Times,serif" font-size="14.00">title</text>
</g>
<!-- http://purl.org/dj/kaggle/line&#45;charts#196084263 -->
<g id="node20" class="node">
<title>http://purl.org/dj/kaggle/line&#45;charts#196084263</title>
<ellipse fill="none" stroke="black" cx="560.87" cy="-387" rx="131.88" ry="18"/>
<text text-anchor="middle" x="560.87" y="-383.3" font-family="Times,serif" font-size="14.00">196084263 (plt(0)$1: Preparation)</text>
</g>
<!-- http://purl.org/dj/kaggle/line&#45;charts#196149800&#45;&gt;http://purl.org/dj/kaggle/line&#45;charts#196084263 -->
<g id="edge26" class="edge">
<title>http://purl.org/dj/kaggle/line&#45;charts#196149800&#45;&gt;http://purl.org/dj/kaggle/line&#45;charts#196084263</title>
<path fill="none" stroke="black" d="M560.87,-455.8C560.87,-444.16 560.87,-428.55 560.87,-415.24"/>
<polygon fill="black" stroke="black" points="564.37,-415.18 560.87,-405.18 557.37,-415.18 564.37,-415.18"/>
<text text-anchor="middle" x="606.37" y="-426.8" font-family="Times,serif" font-size="14.00">previousActivity</text>
</g>
<!-- http://purl.org/dj/kaggle/line&#45;charts#4094759136&#45;&gt;http://purl.org/dj/kaggle/line&#45;charts -->
<g id="edge30" class="edge">
<title>http://purl.org/dj/kaggle/line&#45;charts#4094759136&#45;&gt;http://purl.org/dj/kaggle/line&#45;charts</title>
<path fill="none" stroke="black" d="M312.96,-282.04C378.14,-235.25 570.77,-104.47 753.87,-54 868.39,-22.44 1225.35,-18.94 1366.55,-18.83"/>
<polygon fill="black" stroke="black" points="1366.73,-22.33 1376.73,-18.83 1366.73,-15.33 1366.73,-22.33"/>
<text text-anchor="middle" x="567.37" y="-144.8" font-family="Times,serif" font-size="14.00">appearsIn</text>
</g>
<!-- http://purl.org/dj/kaggle/line&#45;charts#1616513012 -->
<g id="node7" class="node">
<title>http://purl.org/dj/kaggle/line&#45;charts#1616513012</title>
<ellipse fill="none" stroke="black" cx="1571.87" cy="-192" rx="165.17" ry="18"/>
<text text-anchor="middle" x="1571.87" y="-188.3" font-family="Times,serif" font-size="14.00">1616513012 (../input/spotify.csv(0): Reuse)</text>
</g>
<!-- http://purl.org/dj/kaggle/line&#45;charts#1616513012&#45;&gt;http://purl.org/dj/kaggle/line&#45;charts -->
<g id="edge6" class="edge">
<title>http://purl.org/dj/kaggle/line&#45;charts#1616513012&#45;&gt;http://purl.org/dj/kaggle/line&#45;charts</title>
<path fill="none" stroke="black" d="M1563.87,-173.97C1553.21,-152.34 1532.89,-114.52 1508.87,-87 1493.33,-69.18 1472.73,-52.43 1455.82,-40.01"/>
<polygon fill="black" stroke="black" points="1457.52,-36.92 1447.36,-33.92 1453.44,-42.6 1457.52,-36.92"/>
<text text-anchor="middle" x="1562.37" y="-101.3" font-family="Times,serif" font-size="14.00">appearsIn</text>
</g>
<!-- http://purl.org/dj/kaggle/line&#45;charts#1024198109 -->
<g id="node8" class="node">
<title>http://purl.org/dj/kaggle/line&#45;charts#1024198109</title>
<ellipse fill="none" stroke="black" cx="1476.87" cy="-387" rx="168.97" ry="18"/>
<text text-anchor="middle" x="1476.87" y="-383.3" font-family="Times,serif" font-size="14.00">1024198109 (spotify_data(0)$0: Movement)</text>
</g>
<!-- http://purl.org/dj/kaggle/line&#45;charts#1024198109&#45;&gt;http://purl.org/dj/kaggle/line&#45;charts#151126528 -->
<g id="edge7" class="edge">
<title>http://purl.org/dj/kaggle/line&#45;charts#1024198109&#45;&gt;http://purl.org/dj/kaggle/line&#45;charts#151126528</title>
<path fill="none" stroke="black" d="M1368.39,-373.18C1323.25,-367.29 1270.39,-359.68 1222.87,-351 1171.62,-341.64 1114.22,-328.43 1071.05,-317.94"/>
<polygon fill="black" stroke="black" points="1071.77,-314.51 1061.23,-315.54 1070.11,-321.31 1071.77,-314.51"/>
<text text-anchor="middle" x="1268.37" y="-339.8" font-family="Times,serif" font-size="14.00">previousActivity</text>
</g>
<!-- http://purl.org/dj/kaggle/line&#45;charts#1024198109&#45;&gt;http://purl.org/dj/kaggle/line&#45;charts#1616513012 -->
<g id="edge8" class="edge">
<title>http://purl.org/dj/kaggle/line&#45;charts#1024198109&#45;&gt;http://purl.org/dj/kaggle/line&#45;charts#1616513012</title>
<path fill="none" stroke="black" d="M1485.3,-368.87C1501.96,-335.04 1539.17,-259.43 1558.95,-219.26"/>
<polygon fill="black" stroke="black" points="1562.19,-220.61 1563.46,-210.09 1555.91,-217.52 1562.19,-220.61"/>
<text text-anchor="middle" x="1573.37" y="-296.3" font-family="Times,serif" font-size="14.00">previousActivity</text>
</g>
<!-- http://purl.org/dj/kaggle/line&#45;charts#165478946 -->
<g id="node9" class="node">
<title>http://purl.org/dj/kaggle/line&#45;charts#165478946</title>
<ellipse fill="none" stroke="black" cx="1958.87" cy="-246" rx="111.58" ry="18"/>
<text text-anchor="middle" x="1958.87" y="-242.3" font-family="Times,serif" font-size="14.00">165478946 (True(0): Reuse)</text>
</g>
<!-- http://purl.org/dj/kaggle/line&#45;charts#1024198109&#45;&gt;http://purl.org/dj/kaggle/line&#45;charts#165478946 -->
<g id="edge9" class="edge">
<title>http://purl.org/dj/kaggle/line&#45;charts#1024198109&#45;&gt;http://purl.org/dj/kaggle/line&#45;charts#165478946</title>
<path fill="none" stroke="black" d="M1615.67,-376.68C1757.34,-365.73 1959.83,-345.49 1983.87,-318 1994.99,-305.29 1988.52,-287.33 1979.38,-272.65"/>
<polygon fill="black" stroke="black" points="1982.01,-270.3 1973.48,-264.01 1976.23,-274.25 1982.01,-270.3"/>
<text text-anchor="middle" x="1983.37" y="-339.8" font-family="Times,serif" font-size="14.00">previousActivity</text>
</g>
<!-- http://purl.org/dj/kaggle/line&#45;charts#1577715600 -->
<g id="node10" class="node">
<title>http://purl.org/dj/kaggle/line&#45;charts#1577715600</title>
<ellipse fill="none" stroke="black" cx="1811.87" cy="-300" rx="163.27" ry="18"/>
<text text-anchor="middle" x="1811.87" y="-296.3" font-family="Times,serif" font-size="14.00">1577715600 (spotify_filepath(0)$0: Reuse)</text>
</g>
<!-- http://purl.org/dj/kaggle/line&#45;charts#1024198109&#45;&gt;http://purl.org/dj/kaggle/line&#45;charts#1577715600 -->
<g id="edge10" class="edge">
<title>http://purl.org/dj/kaggle/line&#45;charts#1024198109&#45;&gt;http://purl.org/dj/kaggle/line&#45;charts#1577715600</title>
<path fill="none" stroke="black" d="M1539.1,-370.21C1596.1,-355.75 1680.45,-334.35 1740.23,-319.18"/>
<polygon fill="black" stroke="black" points="1741.15,-322.56 1749.98,-316.7 1739.43,-315.77 1741.15,-322.56"/>
<text text-anchor="middle" x="1689.37" y="-339.8" font-family="Times,serif" font-size="14.00">read_csv</text>
</g>
<!-- http://purl.org/dj/kaggle/line&#45;charts#80085334 -->
<g id="node11" class="node">
<title>http://purl.org/dj/kaggle/line&#45;charts#80085334</title>
<ellipse fill="none" stroke="black" cx="1279.87" cy="-192" rx="108.58" ry="18"/>
<text text-anchor="middle" x="1279.87" y="-188.3" font-family="Times,serif" font-size="14.00">80085334 (pd(0): Analysis)</text>
</g>
<!-- http://purl.org/dj/kaggle/line&#45;charts#1024198109&#45;&gt;http://purl.org/dj/kaggle/line&#45;charts#80085334 -->
<g id="edge11" class="edge">
<title>http://purl.org/dj/kaggle/line&#45;charts#1024198109&#45;&gt;http://purl.org/dj/kaggle/line&#45;charts#80085334</title>
<path fill="none" stroke="black" d="M1457.11,-368.93C1443.69,-356.23 1426.66,-337.75 1416.87,-318 1398.76,-281.45 1426.41,-258.09 1398.87,-228 1391.06,-219.46 1381.28,-212.96 1370.71,-208.03"/>
<polygon fill="black" stroke="black" points="1371.81,-204.7 1361.24,-204.08 1369.12,-211.16 1371.81,-204.7"/>
<text text-anchor="middle" x="1462.37" y="-296.3" font-family="Times,serif" font-size="14.00">previousActivity</text>
</g>
<!-- http://purl.org/dj/kaggle/line&#45;charts#132776362 -->
<g id="node12" class="node">
<title>http://purl.org/dj/kaggle/line&#45;charts#132776362</title>
<ellipse fill="none" stroke="black" cx="1254.87" cy="-300" rx="121.58" ry="18"/>
<text text-anchor="middle" x="1254.87" y="-296.3" font-family="Times,serif" font-size="14.00">132776362 (pd(0)$0: Analysis)</text>
</g>
<!-- http://purl.org/dj/kaggle/line&#45;charts#1024198109&#45;&gt;http://purl.org/dj/kaggle/line&#45;charts#132776362 -->
<g id="edge12" class="edge">
<title>http://purl.org/dj/kaggle/line&#45;charts#1024198109&#45;&gt;http://purl.org/dj/kaggle/line&#45;charts#132776362</title>
<path fill="none" stroke="black" d="M1409.74,-370.4C1390.16,-365.07 1368.91,-358.53 1349.87,-351 1330.13,-343.19 1309.15,-332.43 1291.94,-322.89"/>
<polygon fill="black" stroke="black" points="1293.23,-319.6 1282.8,-317.75 1289.8,-325.7 1293.23,-319.6"/>
<text text-anchor="middle" x="1374.37" y="-339.8" font-family="Times,serif" font-size="14.00">read_csv</text>
</g>
<!-- http://purl.org/dj/kaggle/line&#45;charts#165478946&#45;&gt;http://purl.org/dj/kaggle/line&#45;charts -->
<g id="edge13" class="edge">
<title>http://purl.org/dj/kaggle/line&#45;charts#165478946&#45;&gt;http://purl.org/dj/kaggle/line&#45;charts</title>
<path fill="none" stroke="black" d="M1922.37,-228.91C1856.66,-200.03 1714.03,-137.66 1592.87,-87 1549.81,-68.99 1500.24,-49.02 1466.16,-35.41"/>
<polygon fill="black" stroke="black" points="1467.13,-32.02 1456.55,-31.57 1464.54,-38.53 1467.13,-32.02"/>
<text text-anchor="middle" x="1799.37" y="-144.8" font-family="Times,serif" font-size="14.00">previousActivity</text>
</g>
<!-- http://purl.org/dj/kaggle/line&#45;charts#1577715600&#45;&gt;http://purl.org/dj/kaggle/line&#45;charts#1616513012 -->
<g id="edge14" class="edge">
<title>http://purl.org/dj/kaggle/line&#45;charts#1577715600&#45;&gt;http://purl.org/dj/kaggle/line&#45;charts#1616513012</title>
<path fill="none" stroke="black" d="M1774.37,-282.44C1732.4,-263.9 1664.34,-233.84 1618.85,-213.75"/>
<polygon fill="black" stroke="black" points="1620.07,-210.46 1609.51,-209.62 1617.24,-216.86 1620.07,-210.46"/>
<text text-anchor="middle" x="1766.37" y="-242.3" font-family="Times,serif" font-size="14.00">assignedFrom</text>
</g>
<!-- http://purl.org/dj/kaggle/line&#45;charts#80085334&#45;&gt;http://purl.org/dj/kaggle/line&#45;charts -->
<g id="edge15" class="edge">
<title>http://purl.org/dj/kaggle/line&#45;charts#80085334&#45;&gt;http://purl.org/dj/kaggle/line&#45;charts</title>
<path fill="none" stroke="black" d="M1328.24,-175.87C1353.52,-165.3 1382.35,-148.43 1397.87,-123 1412.33,-99.33 1419.1,-68.08 1422.24,-46.03"/>
<polygon fill="black" stroke="black" points="1425.72,-46.38 1423.5,-36.02 1418.78,-45.5 1425.72,-46.38"/>
<text text-anchor="middle" x="1459.37" y="-101.3" font-family="Times,serif" font-size="14.00">previousActivity</text>
</g>
<!-- http://purl.org/dj/python/lib/144966264 -->
<g id="node13" class="node">
<title>http://purl.org/dj/python/lib/144966264</title>
<ellipse fill="none" stroke="black" cx="1279.87" cy="-105" rx="109.38" ry="18"/>
<text text-anchor="middle" x="1279.87" y="-101.3" font-family="Times,serif" font-size="14.00">144966264 (pandas: Reuse)</text>
</g>
<!-- http://purl.org/dj/kaggle/line&#45;charts#80085334&#45;&gt;http://purl.org/dj/python/lib/144966264 -->
<g id="edge16" class="edge">
<title>http://purl.org/dj/kaggle/line&#45;charts#80085334&#45;&gt;http://purl.org/dj/python/lib/144966264</title>
<path fill="none" stroke="black" d="M1279.87,-173.8C1279.87,-162.16 1279.87,-146.55 1279.87,-133.24"/>
<polygon fill="black" stroke="black" points="1283.37,-133.18 1279.87,-123.18 1276.37,-133.18 1283.37,-133.18"/>
<text text-anchor="middle" x="1318.37" y="-144.8" font-family="Times,serif" font-size="14.00">assignedFrom</text>
</g>
<!-- http://purl.org/dj/kaggle/line&#45;charts#132776362&#45;&gt;http://purl.org/dj/kaggle/line&#45;charts#80085334 -->
<g id="edge17" class="edge">
<title>http://purl.org/dj/kaggle/line&#45;charts#132776362&#45;&gt;http://purl.org/dj/kaggle/line&#45;charts#80085334</title>
<path fill="none" stroke="black" d="M1240.77,-281.84C1237.15,-276.46 1233.75,-270.27 1231.87,-264 1227.29,-248.67 1224.62,-242.26 1231.87,-228 1234.09,-223.63 1237.14,-219.68 1240.64,-216.14"/>
<polygon fill="black" stroke="black" points="1243.07,-218.66 1248.31,-209.45 1238.47,-213.39 1243.07,-218.66"/>
<text text-anchor="middle" x="1315.37" y="-242.3" font-family="Times,serif" font-size="14.00">register_matplotlib_converters</text>
</g>
<!-- http://purl.org/dj/python/lib/144966264&#45;&gt;http://purl.org/dj/kaggle/line&#45;charts -->
<g id="edge24" class="edge">
<title>http://purl.org/dj/python/lib/144966264&#45;&gt;http://purl.org/dj/kaggle/line&#45;charts</title>
<path fill="none" stroke="black" d="M1299.18,-87.14C1311.67,-76.76 1328.58,-63.64 1344.87,-54 1356.73,-46.99 1370.24,-40.55 1382.75,-35.15"/>
<polygon fill="black" stroke="black" points="1384.2,-38.34 1392.07,-31.24 1381.49,-31.88 1384.2,-38.34"/>
<text text-anchor="middle" x="1377.87" y="-57.8" font-family="Times,serif" font-size="14.00">importedBy</text>
</g>
<!-- http://purl.org/dj/kaggle/line&#45;charts#127074770 -->
<g id="node14" class="node">
<title>http://purl.org/dj/kaggle/line&#45;charts#127074770</title>
<ellipse fill="none" stroke="black" cx="735.87" cy="-192" rx="113.18" ry="18"/>
<text text-anchor="middle" x="735.87" y="-188.3" font-family="Times,serif" font-size="14.00">127074770 (plt(0): Analysis)</text>
</g>
<!-- http://purl.org/dj/kaggle/line&#45;charts#127074770&#45;&gt;http://purl.org/dj/kaggle/line&#45;charts -->
<g id="edge18" class="edge">
<title>http://purl.org/dj/kaggle/line&#45;charts#127074770&#45;&gt;http://purl.org/dj/kaggle/line&#45;charts</title>
<path fill="none" stroke="black" d="M724.19,-173.99C710.19,-151.32 691.19,-111.27 712.87,-87 756.17,-38.56 1204.51,-23.87 1366.71,-20.13"/>
<polygon fill="black" stroke="black" points="1367.06,-23.62 1376.98,-19.9 1366.9,-16.62 1367.06,-23.62"/>
<text text-anchor="middle" x="758.37" y="-101.3" font-family="Times,serif" font-size="14.00">previousActivity</text>
</g>
<!-- http://purl.org/dj/python/lib/1065617167 -->
<g id="node15" class="node">
<title>http://purl.org/dj/python/lib/1065617167</title>
<ellipse fill="none" stroke="black" cx="963.87" cy="-105" rx="150.57" ry="18"/>
<text text-anchor="middle" x="963.87" y="-101.3" font-family="Times,serif" font-size="14.00">1065617167 (matplotlib.pyplot: Reuse)</text>
</g>
<!-- http://purl.org/dj/kaggle/line&#45;charts#127074770&#45;&gt;http://purl.org/dj/python/lib/1065617167 -->
<g id="edge19" class="edge">
<title>http://purl.org/dj/kaggle/line&#45;charts#127074770&#45;&gt;http://purl.org/dj/python/lib/1065617167</title>
<path fill="none" stroke="black" d="M778.22,-175.21C815.66,-161.25 870.43,-140.84 910.79,-125.79"/>
<polygon fill="black" stroke="black" points="912.05,-129.06 920.2,-122.28 909.61,-122.5 912.05,-129.06"/>
<text text-anchor="middle" x="909.37" y="-144.8" font-family="Times,serif" font-size="14.00">previousActivity</text>
</g>
<!-- http://purl.org/dj/python/lib/1065617167&#45;&gt;http://purl.org/dj/kaggle/line&#45;charts -->
<g id="edge20" class="edge">
<title>http://purl.org/dj/python/lib/1065617167&#45;&gt;http://purl.org/dj/kaggle/line&#45;charts</title>
<path fill="none" stroke="black" d="M983.09,-86.99C997.21,-75.55 1017.43,-61.28 1037.87,-54 1096.91,-32.97 1274.08,-24.03 1366.83,-20.71"/>
<polygon fill="black" stroke="black" points="1367.02,-24.2 1376.89,-20.36 1366.78,-17.21 1367.02,-24.2"/>
<text text-anchor="middle" x="1083.37" y="-57.8" font-family="Times,serif" font-size="14.00">previousActivity</text>
</g>
<!-- http://purl.org/dj/kaggle/line&#45;charts#189661861 -->
<g id="node16" class="node">
<title>http://purl.org/dj/kaggle/line&#45;charts#189661861</title>
<ellipse fill="none" stroke="black" cx="1476.87" cy="-648" rx="114.28" ry="18"/>
<text text-anchor="middle" x="1476.87" y="-644.3" font-family="Times,serif" font-size="14.00">189661861 (list[0]: Analysis)</text>
</g>
<!-- http://purl.org/dj/kaggle/line&#45;charts#1024329183 -->
<g id="node17" class="node">
<title>http://purl.org/dj/kaggle/line&#45;charts#1024329183</title>
<ellipse fill="none" stroke="black" cx="1476.87" cy="-561" rx="160.57" ry="18"/>
<text text-anchor="middle" x="1476.87" y="-557.3" font-family="Times,serif" font-size="14.00">1024329183 (spotify_data(0)$2: Analysis)</text>
</g>
<!-- http://purl.org/dj/kaggle/line&#45;charts#189661861&#45;&gt;http://purl.org/dj/kaggle/line&#45;charts#1024329183 -->
<g id="edge21" class="edge">
<title>http://purl.org/dj/kaggle/line&#45;charts#189661861&#45;&gt;http://purl.org/dj/kaggle/line&#45;charts#1024329183</title>
<path fill="none" stroke="black" d="M1476.87,-629.8C1476.87,-618.16 1476.87,-602.55 1476.87,-589.24"/>
<polygon fill="black" stroke="black" points="1480.37,-589.18 1476.87,-579.18 1473.37,-589.18 1480.37,-589.18"/>
<text text-anchor="middle" x="1485.37" y="-600.8" font-family="Times,serif" font-size="14.00">list</text>
</g>
<!-- http://purl.org/dj/kaggle/line&#45;charts#1024263646 -->
<g id="node18" class="node">
<title>http://purl.org/dj/kaggle/line&#45;charts#1024263646</title>
<ellipse fill="none" stroke="black" cx="1476.87" cy="-474" rx="170.87" ry="18"/>
<text text-anchor="middle" x="1476.87" y="-470.3" font-family="Times,serif" font-size="14.00">1024263646 (spotify_data(0)$1: Preparation)</text>
</g>
<!-- http://purl.org/dj/kaggle/line&#45;charts#1024329183&#45;&gt;http://purl.org/dj/kaggle/line&#45;charts#1024263646 -->
<g id="edge22" class="edge">
<title>http://purl.org/dj/kaggle/line&#45;charts#1024329183&#45;&gt;http://purl.org/dj/kaggle/line&#45;charts#1024263646</title>
<path fill="none" stroke="black" d="M1476.87,-542.8C1476.87,-531.16 1476.87,-515.55 1476.87,-502.24"/>
<polygon fill="black" stroke="black" points="1480.37,-502.18 1476.87,-492.18 1473.37,-502.18 1480.37,-502.18"/>
<text text-anchor="middle" x="1485.87" y="-513.8" font-family="Times,serif" font-size="14.00">tail</text>
</g>
<!-- http://purl.org/dj/kaggle/line&#45;charts#1024263646&#45;&gt;http://purl.org/dj/kaggle/line&#45;charts#1024198109 -->
<g id="edge23" class="edge">
<title>http://purl.org/dj/kaggle/line&#45;charts#1024263646&#45;&gt;http://purl.org/dj/kaggle/line&#45;charts#1024198109</title>
<path fill="none" stroke="black" d="M1476.87,-455.8C1476.87,-444.16 1476.87,-428.55 1476.87,-415.24"/>
<polygon fill="black" stroke="black" points="1480.37,-415.18 1476.87,-405.18 1473.37,-415.18 1480.37,-415.18"/>
<text text-anchor="middle" x="1522.37" y="-426.8" font-family="Times,serif" font-size="14.00">previousActivity</text>
</g>
<!-- http://purl.org/dj/python/lib/194380523 -->
<g id="node19" class="node">
<title>http://purl.org/dj/python/lib/194380523</title>
<ellipse fill="none" stroke="black" cx="1904.87" cy="-105" rx="112.38" ry="18"/>
<text text-anchor="middle" x="1904.87" y="-101.3" font-family="Times,serif" font-size="14.00">194380523 (seaborn: Reuse)</text>
</g>
<!-- http://purl.org/dj/python/lib/194380523&#45;&gt;http://purl.org/dj/kaggle/line&#45;charts -->
<g id="edge25" class="edge">
<title>http://purl.org/dj/python/lib/194380523&#45;&gt;http://purl.org/dj/kaggle/line&#45;charts</title>
<path fill="none" stroke="black" d="M1871.49,-87.78C1846.57,-76.41 1811.35,-61.88 1778.87,-54 1676.63,-29.18 1553.68,-21.89 1482.88,-19.8"/>
<polygon fill="black" stroke="black" points="1482.91,-16.3 1472.82,-19.52 1482.72,-23.29 1482.91,-16.3"/>
<text text-anchor="middle" x="1858.87" y="-57.8" font-family="Times,serif" font-size="14.00">importedBy</text>
</g>
<!-- http://purl.org/dj/kaggle/line&#45;charts#196084263&#45;&gt;http://purl.org/dj/kaggle/line&#45;charts#4094759136 -->
<g id="edge28" class="edge">
<title>http://purl.org/dj/kaggle/line&#45;charts#196084263&#45;&gt;http://purl.org/dj/kaggle/line&#45;charts#4094759136</title>
<path fill="none" stroke="black" d="M510.85,-370.31C466.36,-356.35 401.07,-335.88 352.99,-320.8"/>
<polygon fill="black" stroke="black" points="353.9,-317.41 343.31,-317.76 351.81,-324.09 353.9,-317.41"/>
<text text-anchor="middle" x="487.37" y="-339.8" font-family="Times,serif" font-size="14.00">previousActivity</text>
</g>
<!-- http://purl.org/dj/kaggle/line&#45;charts#196018726 -->
<g id="node21" class="node">
<title>http://purl.org/dj/kaggle/line&#45;charts#196018726</title>
<ellipse fill="none" stroke="black" cx="735.87" cy="-300" rx="137.58" ry="18"/>
<text text-anchor="middle" x="735.87" y="-296.3" font-family="Times,serif" font-size="14.00">196018726 (plt(0)$0: Visualisation)</text>
</g>
<!-- http://purl.org/dj/kaggle/line&#45;charts#196084263&#45;&gt;http://purl.org/dj/kaggle/line&#45;charts#196018726 -->
<g id="edge27" class="edge">
<title>http://purl.org/dj/kaggle/line&#45;charts#196084263&#45;&gt;http://purl.org/dj/kaggle/line&#45;charts#196018726</title>
<path fill="none" stroke="black" d="M595.03,-369.41C622.98,-355.84 662.66,-336.56 692.78,-321.93"/>
<polygon fill="black" stroke="black" points="694.34,-325.07 701.8,-317.55 691.28,-318.77 694.34,-325.07"/>
<text text-anchor="middle" x="704.37" y="-339.8" font-family="Times,serif" font-size="14.00">previousActivity</text>
</g>
<!-- http://purl.org/dj/kaggle/line&#45;charts#196018726&#45;&gt;http://purl.org/dj/kaggle/line&#45;charts#127074770 -->
<g id="edge29" class="edge">
<title>http://purl.org/dj/kaggle/line&#45;charts#196018726&#45;&gt;http://purl.org/dj/kaggle/line&#45;charts#127074770</title>
<path fill="none" stroke="black" d="M735.87,-281.97C735.87,-265.38 735.87,-239.88 735.87,-220.43"/>
<polygon fill="black" stroke="black" points="739.37,-220.34 735.87,-210.34 732.37,-220.34 739.37,-220.34"/>
<text text-anchor="middle" x="751.87" y="-242.3" font-family="Times,serif" font-size="14.00">figure</text>
</g>
<!-- http://purl.org/dj/kaggle/line&#45;charts#128647638 -->
<g id="node22" class="node">
<title>http://purl.org/dj/kaggle/line&#45;charts#128647638</title>
<ellipse fill="none" stroke="black" cx="2049.87" cy="-192" rx="115.08" ry="18"/>
<text text-anchor="middle" x="2049.87" y="-188.3" font-family="Times,serif" font-size="14.00">128647638 (sns(0): Analysis)</text>
</g>
<!-- http://purl.org/dj/kaggle/line&#45;charts#128647638&#45;&gt;http://purl.org/dj/kaggle/line&#45;charts -->
<g id="edge31" class="edge">
<title>http://purl.org/dj/kaggle/line&#45;charts#128647638&#45;&gt;http://purl.org/dj/kaggle/line&#45;charts</title>
<path fill="none" stroke="black" d="M2051.02,-173.68C2051.54,-150.66 2048.79,-110.2 2025.87,-87 1988.08,-48.74 1625.86,-28.17 1482.69,-21.47"/>
<polygon fill="black" stroke="black" points="1482.51,-17.96 1472.36,-21 1482.19,-24.96 1482.51,-17.96"/>
<text text-anchor="middle" x="2091.37" y="-101.3" font-family="Times,serif" font-size="14.00">previousActivity</text>
</g>
<!-- http://purl.org/dj/kaggle/line&#45;charts#128647638&#45;&gt;http://purl.org/dj/python/lib/194380523 -->
<g id="edge32" class="edge">
<title>http://purl.org/dj/kaggle/line&#45;charts#128647638&#45;&gt;http://purl.org/dj/python/lib/194380523</title>
<path fill="none" stroke="black" d="M1990.45,-176.5C1975.8,-171.38 1960.66,-164.66 1947.87,-156 1938.25,-149.48 1929.49,-140.26 1922.43,-131.52"/>
<polygon fill="black" stroke="black" points="1925.07,-129.2 1916.21,-123.38 1919.5,-133.45 1925.07,-129.2"/>
<text text-anchor="middle" x="1993.37" y="-144.8" font-family="Times,serif" font-size="14.00">previousActivity</text>
</g>
<!-- http://purl.org/dj/kaggle/line&#45;charts#956106220 -->
<g id="node23" class="node">
<title>http://purl.org/dj/kaggle/line&#45;charts#956106220</title>
<ellipse fill="none" stroke="black" cx="2317.87" cy="-105" rx="152.17" ry="18"/>
<text text-anchor="middle" x="2317.87" y="-101.3" font-family="Times,serif" font-size="14.00">956106220 (Setup Complete(0): Reuse)</text>
</g>
<!-- http://purl.org/dj/kaggle/line&#45;charts#956106220&#45;&gt;http://purl.org/dj/kaggle/line&#45;charts -->
<g id="edge33" class="edge">
<title>http://purl.org/dj/kaggle/line&#45;charts#956106220&#45;&gt;http://purl.org/dj/kaggle/line&#45;charts</title>
<path fill="none" stroke="black" d="M2253.8,-88.62C2203.33,-77.14 2131.01,-62.1 2066.87,-54 1852.89,-26.99 1596.2,-20.82 1483.16,-19.41"/>
<polygon fill="black" stroke="black" points="1483.04,-15.91 1473,-19.29 1482.96,-22.91 1483.04,-15.91"/>
<text text-anchor="middle" x="2203.37" y="-57.8" font-family="Times,serif" font-size="14.00">previousActivity</text>
</g>
<!-- http://purl.org/dj/kaggle/line&#45;charts#198115882 -->
<g id="node24" class="node">
<title>http://purl.org/dj/kaggle/line&#45;charts#198115882</title>
<ellipse fill="none" stroke="black" cx="2154.87" cy="-300" rx="124.28" ry="18"/>
<text text-anchor="middle" x="2154.87" y="-296.3" font-family="Times,serif" font-size="14.00">198115882 (sns(0)$0: Analysis)</text>
</g>
<!-- http://purl.org/dj/kaggle/line&#45;charts#198115882&#45;&gt;http://purl.org/dj/kaggle/line&#45;charts#128647638 -->
<g id="edge34" class="edge">
<title>http://purl.org/dj/kaggle/line&#45;charts#198115882&#45;&gt;http://purl.org/dj/kaggle/line&#45;charts#128647638</title>
<path fill="none" stroke="black" d="M2138,-281.97C2120.63,-264.43 2093.4,-236.94 2073.8,-217.16"/>
<polygon fill="black" stroke="black" points="2076.23,-214.63 2066.7,-209.99 2071.25,-219.56 2076.23,-214.63"/>
<text text-anchor="middle" x="2139.87" y="-242.3" font-family="Times,serif" font-size="14.00">lineplot</text>
</g>
<!-- http://purl.org/dj/kaggle/line&#45;charts#249561878 -->
<g id="node25" class="node">
<title>http://purl.org/dj/kaggle/line&#45;charts#249561878</title>
<ellipse fill="none" stroke="black" cx="2319.87" cy="-192" rx="136.48" ry="18"/>
<text text-anchor="middle" x="2319.87" y="-188.3" font-family="Times,serif" font-size="14.00">249561878 (print[0]: Visualisation)</text>
</g>
<!-- http://purl.org/dj/kaggle/line&#45;charts#249561878&#45;&gt;http://purl.org/dj/kaggle/line&#45;charts#956106220 -->
<g id="edge35" class="edge">
<title>http://purl.org/dj/kaggle/line&#45;charts#249561878&#45;&gt;http://purl.org/dj/kaggle/line&#45;charts#956106220</title>
<path fill="none" stroke="black" d="M2319.47,-173.8C2319.2,-162.16 2318.83,-146.55 2318.52,-133.24"/>
<polygon fill="black" stroke="black" points="2322.01,-133.09 2318.28,-123.18 2315.01,-133.26 2322.01,-133.09"/>
<text text-anchor="middle" x="2331.87" y="-144.8" font-family="Times,serif" font-size="14.00">print</text>
</g>
<!-- http://purl.org/dj/kaggle/line&#45;charts#198181419 -->
<g id="node26" class="node">
<title>http://purl.org/dj/kaggle/line&#45;charts#198181419</title>
<ellipse fill="none" stroke="black" cx="2154.87" cy="-387" rx="124.28" ry="18"/>
<text text-anchor="middle" x="2154.87" y="-383.3" font-family="Times,serif" font-size="14.00">198181419 (sns(0)$1: Analysis)</text>
</g>
<!-- http://purl.org/dj/kaggle/line&#45;charts#198181419&#45;&gt;http://purl.org/dj/kaggle/line&#45;charts#198115882 -->
<g id="edge36" class="edge">
<title>http://purl.org/dj/kaggle/line&#45;charts#198181419&#45;&gt;http://purl.org/dj/kaggle/line&#45;charts#198115882</title>
<path fill="none" stroke="black" d="M2154.87,-368.8C2154.87,-357.16 2154.87,-341.55 2154.87,-328.24"/>
<polygon fill="black" stroke="black" points="2158.37,-328.18 2154.87,-318.18 2151.37,-328.18 2158.37,-328.18"/>
<text text-anchor="middle" x="2175.87" y="-339.8" font-family="Times,serif" font-size="14.00">lineplot</text>
</g>
<!-- http://purl.org/dj/kaggle/line&#45;charts#198246956 -->
<g id="node27" class="node">
<title>http://purl.org/dj/kaggle/line&#45;charts#198246956</title>
<ellipse fill="none" stroke="black" cx="2154.87" cy="-474" rx="124.28" ry="18"/>
<text text-anchor="middle" x="2154.87" y="-470.3" font-family="Times,serif" font-size="14.00">198246956 (sns(0)$2: Analysis)</text>
</g>
<!-- http://purl.org/dj/kaggle/line&#45;charts#198246956&#45;&gt;http://purl.org/dj/kaggle/line&#45;charts#198181419 -->
<g id="edge37" class="edge">
<title>http://purl.org/dj/kaggle/line&#45;charts#198246956&#45;&gt;http://purl.org/dj/kaggle/line&#45;charts#198181419</title>
<path fill="none" stroke="black" d="M2154.87,-455.8C2154.87,-444.16 2154.87,-428.55 2154.87,-415.24"/>
<polygon fill="black" stroke="black" points="2158.37,-415.18 2154.87,-405.18 2151.37,-415.18 2158.37,-415.18"/>
<text text-anchor="middle" x="2175.87" y="-426.8" font-family="Times,serif" font-size="14.00">lineplot</text>
</g>
<!-- http://purl.org/dj/kaggle/line&#45;charts#198312493 -->
<g id="node28" class="node">
<title>http://purl.org/dj/kaggle/line&#45;charts#198312493</title>
<ellipse fill="none" stroke="black" cx="2154.87" cy="-561" rx="124.28" ry="18"/>
<text text-anchor="middle" x="2154.87" y="-557.3" font-family="Times,serif" font-size="14.00">198312493 (sns(0)$3: Analysis)</text>
</g>
<!-- http://purl.org/dj/kaggle/line&#45;charts#198312493&#45;&gt;http://purl.org/dj/kaggle/line&#45;charts#198246956 -->
<g id="edge38" class="edge">
<title>http://purl.org/dj/kaggle/line&#45;charts#198312493&#45;&gt;http://purl.org/dj/kaggle/line&#45;charts#198246956</title>
<path fill="none" stroke="black" d="M2154.87,-542.8C2154.87,-531.16 2154.87,-515.55 2154.87,-502.24"/>
<polygon fill="black" stroke="black" points="2158.37,-502.18 2154.87,-492.18 2151.37,-502.18 2158.37,-502.18"/>
<text text-anchor="middle" x="2175.87" y="-513.8" font-family="Times,serif" font-size="14.00">lineplot</text>
</g>
</g>
</svg>
