<?xml version="1.0" encoding="UTF-8" standalone="no"?>
<!DOCTYPE svg PUBLIC "-//W3C//DTD SVG 1.1//EN"
 "http://www.w3.org/Graphics/SVG/1.1/DTD/svg11.dtd">
<!-- Generated by graphviz version 2.44.1 (20200629.0846)
 -->
<!-- Pages: 1 -->
<svg width="13350pt" height="305pt"
 viewBox="0.00 0.00 13350.39 305.00" xmlns="http://www.w3.org/2000/svg" xmlns:xlink="http://www.w3.org/1999/xlink">
<g id="graph0" class="graph" transform="scale(1 1) rotate(0) translate(4 301)">
<polygon fill="white" stroke="transparent" points="-4,4 -4,-301 13346.39,-301 13346.39,4 -4,4"/>
<!-- http://purl.org/dj/kaggle/lists&#45;daily#889587062 -->
<g id="node1" class="node">
<title>http://purl.org/dj/kaggle/lists&#45;daily#889587062</title>
<ellipse fill="none" stroke="black" cx="173.53" cy="-192" rx="173.57" ry="18"/>
<text text-anchor="middle" x="173.53" y="-188.3" font-family="Times,serif" font-size="14.00">889587062 (denominator(0)$0: Visualisation)</text>
</g>
<!-- http://purl.org/dj/kaggle/lists&#45;daily#113181048 -->
<g id="node2" class="node">
<title>http://purl.org/dj/kaggle/lists&#45;daily#113181048</title>
<ellipse fill="none" stroke="black" cx="351.53" cy="-105" rx="115.08" ry="18"/>
<text text-anchor="middle" x="351.53" y="-101.3" font-family="Times,serif" font-size="14.00">113181048 (0.125(0): Reuse)</text>
</g>
<!-- http://purl.org/dj/kaggle/lists&#45;daily#889587062&#45;&gt;http://purl.org/dj/kaggle/lists&#45;daily#113181048 -->
<g id="edge1" class="edge">
<title>http://purl.org/dj/kaggle/lists&#45;daily#889587062&#45;&gt;http://purl.org/dj/kaggle/lists&#45;daily#113181048</title>
<path fill="none" stroke="black" d="M208.7,-174.21C237.26,-160.57 277.66,-141.28 308.21,-126.69"/>
<polygon fill="black" stroke="black" points="309.83,-129.79 317.35,-122.33 306.82,-123.48 309.83,-129.79"/>
<text text-anchor="middle" x="297.03" y="-144.8" font-family="Times,serif" font-size="14.00">previous</text>
</g>
<!-- http://purl.org/dj/kaggle/lists&#45;daily -->
<g id="node3" class="node">
<title>http://purl.org/dj/kaggle/lists&#45;daily</title>
<ellipse fill="none" stroke="black" cx="7419.53" cy="-18" rx="45.49" ry="18"/>
<text text-anchor="middle" x="7419.53" y="-14.3" font-family="Times,serif" font-size="14.00">lists&#45;daily</text>
</g>
<!-- http://purl.org/dj/kaggle/lists&#45;daily#113181048&#45;&gt;http://purl.org/dj/kaggle/lists&#45;daily -->
<g id="edge2" class="edge">
<title>http://purl.org/dj/kaggle/lists&#45;daily#113181048&#45;&gt;http://purl.org/dj/kaggle/lists&#45;daily</title>
<path fill="none" stroke="black" d="M430.1,-91.84C445.15,-89.91 460.8,-88.16 475.53,-87 1160.23,-32.93 1333.78,-63.56 2020.53,-54 4228.04,-23.27 6943.63,-19.46 7363.83,-19.05"/>
<polygon fill="black" stroke="black" points="7363.9,-22.55 7373.9,-19.04 7363.89,-15.55 7363.9,-22.55"/>
<text text-anchor="middle" x="2044.03" y="-57.8" font-family="Times,serif" font-size="14.00">previous</text>
</g>
<!-- http://purl.org/dj/kaggle/lists&#45;daily#1744904665 -->
<g id="node4" class="node">
<title>http://purl.org/dj/kaggle/lists&#45;daily#1744904665</title>
<ellipse fill="none" stroke="black" cx="966.53" cy="-105" rx="482.01" ry="18"/>
<text text-anchor="middle" x="966.53" y="-101.3" font-family="Times,serif" font-size="14.00">1744904665 ([&lt;_ast.List object at 0x12f8ab280&gt;, &lt;_ast.List object at 0x12f8ab880&gt;, &lt;_ast.List object at 0x12f8ab0d0&gt;](0): Reuse)</text>
</g>
<!-- http://purl.org/dj/kaggle/lists&#45;daily#1744904665&#45;&gt;http://purl.org/dj/kaggle/lists&#45;daily -->
<g id="edge3" class="edge">
<title>http://purl.org/dj/kaggle/lists&#45;daily#1744904665&#45;&gt;http://purl.org/dj/kaggle/lists&#45;daily</title>
<path fill="none" stroke="black" d="M1299.62,-91.97C1646.26,-80 2204.86,-62.26 2687.53,-54 4610.63,-21.09 6973.88,-19.1 7363.87,-19"/>
<polygon fill="black" stroke="black" points="7364.04,-22.5 7374.04,-19 7364.04,-15.5 7364.04,-22.5"/>
<text text-anchor="middle" x="2711.03" y="-57.8" font-family="Times,serif" font-size="14.00">previous</text>
</g>
<!-- http://purl.org/dj/kaggle/lists&#45;daily#249561878 -->
<g id="node5" class="node">
<title>http://purl.org/dj/kaggle/lists&#45;daily#249561878</title>
<ellipse fill="none" stroke="black" cx="6388.53" cy="-279" rx="136.48" ry="18"/>
<text text-anchor="middle" x="6388.53" y="-275.3" font-family="Times,serif" font-size="14.00">249561878 (print[0]: Visualisation)</text>
</g>
<!-- http://purl.org/dj/kaggle/lists&#45;daily#1175414053 -->
<g id="node6" class="node">
<title>http://purl.org/dj/kaggle/lists&#45;daily#1175414053</title>
<ellipse fill="none" stroke="black" cx="5453.53" cy="-105" rx="1255.08" ry="18"/>
<text text-anchor="middle" x="5453.53" y="-101.3" font-family="Times,serif" font-size="14.00">1175414053 ([&lt;_ast.Constant object at 0x12f989fa0&gt;, &lt;_ast.Constant object at 0x12f989e50&gt;, &lt;_ast.Constant object at 0x12f989f10&gt;, &lt;_ast.Constant object at 0x12f9899a0&gt;, &lt;_ast.Constant object at 0x12f989eb0&gt;, &lt;_ast.Constant object at 0x12f989fd0&gt;, &lt;_ast.Constant object at 0x12f9898e0&gt;, &lt;_ast.Constant object at 0x12f989e20&gt;](0): Reuse)</text>
</g>
<!-- http://purl.org/dj/kaggle/lists&#45;daily#249561878&#45;&gt;http://purl.org/dj/kaggle/lists&#45;daily#1175414053 -->
<g id="edge4" class="edge">
<title>http://purl.org/dj/kaggle/lists&#45;daily#249561878&#45;&gt;http://purl.org/dj/kaggle/lists&#45;daily#1175414053</title>
<path fill="none" stroke="black" d="M6312.42,-264C6145.04,-233.21 5744.91,-159.6 5555.83,-124.82"/>
<polygon fill="black" stroke="black" points="5556.36,-121.36 5545.89,-122.99 5555.09,-128.24 5556.36,-121.36"/>
<text text-anchor="middle" x="6037.03" y="-188.3" font-family="Times,serif" font-size="14.00">previous</text>
</g>
<!-- http://purl.org/dj/kaggle/lists&#45;daily#562824294 -->
<g id="node7" class="node">
<title>http://purl.org/dj/kaggle/lists&#45;daily#562824294</title>
<ellipse fill="none" stroke="black" cx="2681.53" cy="-105" rx="137.28" ry="18"/>
<text text-anchor="middle" x="2681.53" y="-101.3" font-family="Times,serif" font-size="14.00">562824294 (Malacandra(0): Reuse)</text>
</g>
<!-- http://purl.org/dj/kaggle/lists&#45;daily#249561878&#45;&gt;http://purl.org/dj/kaggle/lists&#45;daily#562824294 -->
<g id="edge5" class="edge">
<title>http://purl.org/dj/kaggle/lists&#45;daily#249561878&#45;&gt;http://purl.org/dj/kaggle/lists&#45;daily#562824294</title>
<path fill="none" stroke="black" d="M6252.35,-277.58C5601.02,-275.33 2832.18,-262.67 2760.53,-210 2734.49,-190.85 2757.53,-166.4 2737.53,-141 2733.85,-136.33 2729.37,-132.11 2724.55,-128.35"/>
<polygon fill="black" stroke="black" points="2726.4,-125.38 2716.21,-122.48 2722.37,-131.1 2726.4,-125.38"/>
<text text-anchor="middle" x="2784.03" y="-188.3" font-family="Times,serif" font-size="14.00">previous</text>
</g>
<!-- http://purl.org/dj/kaggle/lists&#45;daily#29687986 -->
<g id="node8" class="node">
<title>http://purl.org/dj/kaggle/lists&#45;daily#29687986</title>
<ellipse fill="none" stroke="black" cx="7431.53" cy="-192" rx="94.78" ry="18"/>
<text text-anchor="middle" x="7431.53" y="-188.3" font-family="Times,serif" font-size="14.00">29687986 (0(0): Reuse)</text>
</g>
<!-- http://purl.org/dj/kaggle/lists&#45;daily#249561878&#45;&gt;http://purl.org/dj/kaggle/lists&#45;daily#29687986 -->
<g id="edge6" class="edge">
<title>http://purl.org/dj/kaggle/lists&#45;daily#249561878&#45;&gt;http://purl.org/dj/kaggle/lists&#45;daily#29687986</title>
<path fill="none" stroke="black" d="M6523.15,-275.83C6668.96,-272.48 6908.26,-264.03 7113.53,-243 7197.31,-234.42 7292.64,-218.61 7356.9,-207.07"/>
<polygon fill="black" stroke="black" points="7357.72,-210.47 7366.94,-205.25 7356.47,-203.59 7357.72,-210.47"/>
<text text-anchor="middle" x="7251.03" y="-231.8" font-family="Times,serif" font-size="14.00">previous</text>
</g>
<!-- http://purl.org/dj/kaggle/lists&#45;daily#1938499335 -->
<g id="node9" class="node">
<title>http://purl.org/dj/kaggle/lists&#45;daily#1938499335</title>
<ellipse fill="none" stroke="black" cx="1996.53" cy="-105" rx="529.91" ry="18"/>
<text text-anchor="middle" x="1996.53" y="-101.3" font-family="Times,serif" font-size="14.00">1938499335 ([&lt;_ast.Constant object at 0x12fc3f700&gt;, &lt;_ast.Constant object at 0x12fc3f130&gt;, &lt;_ast.Constant object at 0x12fc3fca0&gt;](0): Reuse)</text>
</g>
<!-- http://purl.org/dj/kaggle/lists&#45;daily#249561878&#45;&gt;http://purl.org/dj/kaggle/lists&#45;daily#1938499335 -->
<g id="edge7" class="edge">
<title>http://purl.org/dj/kaggle/lists&#45;daily#249561878&#45;&gt;http://purl.org/dj/kaggle/lists&#45;daily#1938499335</title>
<path fill="none" stroke="black" d="M6252.28,-277.76C5649.69,-276.57 3239.05,-270.11 2901.53,-243 2603.65,-219.08 2255.03,-156.37 2090.98,-124.77"/>
<polygon fill="black" stroke="black" points="2091.4,-121.29 2080.92,-122.83 2090.07,-128.16 2091.4,-121.29"/>
<text text-anchor="middle" x="2619.03" y="-188.3" font-family="Times,serif" font-size="14.00">previous</text>
</g>
<!-- http://purl.org/dj/kaggle/lists&#45;daily#80937273 -->
<g id="node10" class="node">
<title>http://purl.org/dj/kaggle/lists&#45;daily#80937273</title>
<ellipse fill="none" stroke="black" cx="7113.53" cy="-192" rx="122.38" ry="18"/>
<text text-anchor="middle" x="7113.53" y="-188.3" font-family="Times,serif" font-size="14.00">80937273 (c(0)$0: Preparation)</text>
</g>
<!-- http://purl.org/dj/kaggle/lists&#45;daily#249561878&#45;&gt;http://purl.org/dj/kaggle/lists&#45;daily#80937273 -->
<g id="edge8" class="edge">
<title>http://purl.org/dj/kaggle/lists&#45;daily#249561878&#45;&gt;http://purl.org/dj/kaggle/lists&#45;daily#80937273</title>
<path fill="none" stroke="black" d="M6524.98,-278.35C6685.14,-277.41 6940.44,-271.27 7031.53,-243 7050.44,-237.13 7069.44,-225.96 7084.39,-215.66"/>
<polygon fill="black" stroke="black" points="7086.58,-218.39 7092.69,-209.74 7082.51,-212.69 7086.58,-218.39"/>
<text text-anchor="middle" x="7086.03" y="-231.8" font-family="Times,serif" font-size="14.00">previous</text>
</g>
<!-- http://purl.org/dj/kaggle/lists&#45;daily#46334181 -->
<g id="node11" class="node">
<title>http://purl.org/dj/kaggle/lists&#45;daily#46334181</title>
<ellipse fill="none" stroke="black" cx="7284.53" cy="-105" rx="99.38" ry="18"/>
<text text-anchor="middle" x="7284.53" y="-101.3" font-family="Times,serif" font-size="14.00">46334181 (12(0): Reuse)</text>
</g>
<!-- http://purl.org/dj/kaggle/lists&#45;daily#249561878&#45;&gt;http://purl.org/dj/kaggle/lists&#45;daily#46334181 -->
<g id="edge9" class="edge">
<title>http://purl.org/dj/kaggle/lists&#45;daily#249561878&#45;&gt;http://purl.org/dj/kaggle/lists&#45;daily#46334181</title>
<path fill="none" stroke="black" d="M6510.36,-270.79C6639.31,-261.58 6833.19,-242.78 6899.53,-210 6919.82,-199.98 6915.56,-184.63 6935.53,-174 6958.89,-161.57 7107.47,-135.3 7203.09,-119.29"/>
<polygon fill="black" stroke="black" points="7203.75,-122.73 7213.03,-117.63 7202.59,-115.83 7203.75,-122.73"/>
<text text-anchor="middle" x="6959.03" y="-188.3" font-family="Times,serif" font-size="14.00">previous</text>
</g>
<!-- http://purl.org/dj/kaggle/lists&#45;daily#1175414053&#45;&gt;http://purl.org/dj/kaggle/lists&#45;daily -->
<g id="edge10" class="edge">
<title>http://purl.org/dj/kaggle/lists&#45;daily#1175414053&#45;&gt;http://purl.org/dj/kaggle/lists&#45;daily</title>
<path fill="none" stroke="black" d="M5827.95,-87.81C6319.27,-66.57 7144.99,-30.87 7364.55,-21.38"/>
<polygon fill="black" stroke="black" points="7364.7,-24.87 7374.54,-20.95 7364.4,-17.88 7364.7,-24.87"/>
<text text-anchor="middle" x="6577.03" y="-57.8" font-family="Times,serif" font-size="14.00">previous</text>
</g>
<!-- http://purl.org/dj/kaggle/lists&#45;daily#562824294&#45;&gt;http://purl.org/dj/kaggle/lists&#45;daily -->
<g id="edge11" class="edge">
<title>http://purl.org/dj/kaggle/lists&#45;daily#562824294&#45;&gt;http://purl.org/dj/kaggle/lists&#45;daily</title>
<path fill="none" stroke="black" d="M2774.48,-91.76C2792.07,-89.84 2810.35,-88.13 2827.53,-87 3770.85,-25.16 6906.66,-19.54 7363.76,-19.05"/>
<polygon fill="black" stroke="black" points="7364.06,-22.55 7374.05,-19.04 7364.05,-15.55 7364.06,-22.55"/>
<text text-anchor="middle" x="3719.03" y="-57.8" font-family="Times,serif" font-size="14.00">previous</text>
</g>
<!-- http://purl.org/dj/kaggle/lists&#45;daily#29687986&#45;&gt;http://purl.org/dj/kaggle/lists&#45;daily -->
<g id="edge12" class="edge">
<title>http://purl.org/dj/kaggle/lists&#45;daily#29687986&#45;&gt;http://purl.org/dj/kaggle/lists&#45;daily</title>
<path fill="none" stroke="black" d="M7430.34,-173.88C7428.26,-144 7423.94,-82.11 7421.44,-46.27"/>
<polygon fill="black" stroke="black" points="7424.91,-45.78 7420.72,-36.05 7417.93,-46.27 7424.91,-45.78"/>
<text text-anchor="middle" x="7450.03" y="-101.3" font-family="Times,serif" font-size="14.00">previous</text>
</g>
<!-- http://purl.org/dj/kaggle/lists&#45;daily#1938499335&#45;&gt;http://purl.org/dj/kaggle/lists&#45;daily -->
<g id="edge13" class="edge">
<title>http://purl.org/dj/kaggle/lists&#45;daily#1938499335&#45;&gt;http://purl.org/dj/kaggle/lists&#45;daily</title>
<path fill="none" stroke="black" d="M2268.55,-89.54C2502.75,-77.74 2849.8,-61.79 3152.53,-54 4027.87,-31.49 6925.02,-20.71 7363.68,-19.19"/>
<polygon fill="black" stroke="black" points="7363.89,-22.69 7373.88,-19.15 7363.87,-15.69 7363.89,-22.69"/>
<text text-anchor="middle" x="3176.03" y="-57.8" font-family="Times,serif" font-size="14.00">previous</text>
</g>
<!-- http://purl.org/dj/kaggle/lists&#45;daily#80937273&#45;&gt;http://purl.org/dj/kaggle/lists&#45;daily#46334181 -->
<g id="edge14" class="edge">
<title>http://purl.org/dj/kaggle/lists&#45;daily#80937273&#45;&gt;http://purl.org/dj/kaggle/lists&#45;daily#46334181</title>
<path fill="none" stroke="black" d="M7144.85,-174.51C7163.78,-164.63 7188.45,-151.91 7210.53,-141 7220.39,-136.13 7231.04,-131.01 7241.11,-126.24"/>
<polygon fill="black" stroke="black" points="7242.61,-129.4 7250.15,-121.96 7239.62,-123.07 7242.61,-129.4"/>
<text text-anchor="middle" x="7234.03" y="-144.8" font-family="Times,serif" font-size="14.00">previous</text>
</g>
<!-- http://purl.org/dj/kaggle/lists&#45;daily#61669663 -->
<g id="node12" class="node">
<title>http://purl.org/dj/kaggle/lists&#45;daily#61669663</title>
<ellipse fill="none" stroke="black" cx="7069.53" cy="-105" rx="97.48" ry="18"/>
<text text-anchor="middle" x="7069.53" y="-101.3" font-family="Times,serif" font-size="14.00">61669663 (3j(0): Reuse)</text>
</g>
<!-- http://purl.org/dj/kaggle/lists&#45;daily#80937273&#45;&gt;http://purl.org/dj/kaggle/lists&#45;daily#61669663 -->
<g id="edge15" class="edge">
<title>http://purl.org/dj/kaggle/lists&#45;daily#80937273&#45;&gt;http://purl.org/dj/kaggle/lists&#45;daily#61669663</title>
<path fill="none" stroke="black" d="M7102.69,-173.77C7099.3,-168.17 7095.64,-161.89 7092.53,-156 7088.58,-148.51 7084.61,-140.22 7081.11,-132.58"/>
<polygon fill="black" stroke="black" points="7084.25,-131.03 7076.96,-123.35 7077.87,-133.91 7084.25,-131.03"/>
<text text-anchor="middle" x="7116.03" y="-144.8" font-family="Times,serif" font-size="14.00">previous</text>
</g>
<!-- http://purl.org/dj/kaggle/lists&#45;daily#46334181&#45;&gt;http://purl.org/dj/kaggle/lists&#45;daily -->
<g id="edge16" class="edge">
<title>http://purl.org/dj/kaggle/lists&#45;daily#46334181&#45;&gt;http://purl.org/dj/kaggle/lists&#45;daily</title>
<path fill="none" stroke="black" d="M7308.24,-87.34C7322.62,-77.39 7341.43,-64.67 7358.53,-54 7367.07,-48.68 7376.43,-43.16 7385.2,-38.12"/>
<polygon fill="black" stroke="black" points="7387.11,-41.06 7394.06,-33.06 7383.64,-34.97 7387.11,-41.06"/>
<text text-anchor="middle" x="7382.03" y="-57.8" font-family="Times,serif" font-size="14.00">previous</text>
</g>
<!-- http://purl.org/dj/kaggle/lists&#45;daily#61669663&#45;&gt;http://purl.org/dj/kaggle/lists&#45;daily -->
<g id="edge43" class="edge">
<title>http://purl.org/dj/kaggle/lists&#45;daily#61669663&#45;&gt;http://purl.org/dj/kaggle/lists&#45;daily</title>
<path fill="none" stroke="black" d="M7126.16,-90.25C7194.47,-73.66 7308.1,-46.06 7372.05,-30.53"/>
<polygon fill="black" stroke="black" points="7372.98,-33.91 7381.87,-28.15 7371.32,-27.11 7372.98,-33.91"/>
<text text-anchor="middle" x="7288.03" y="-57.8" font-family="Times,serif" font-size="14.00">previous</text>
</g>
<!-- http://purl.org/dj/kaggle/lists&#45;daily#87687499 -->
<g id="node13" class="node">
<title>http://purl.org/dj/kaggle/lists&#45;daily#87687499</title>
<ellipse fill="none" stroke="black" cx="7787.53" cy="-192" rx="126.98" ry="18"/>
<text text-anchor="middle" x="7787.53" y="-188.3" font-family="Times,serif" font-size="14.00">87687499 (t(0)$1: Visualisation)</text>
</g>
<!-- http://purl.org/dj/kaggle/lists&#45;daily#29950131 -->
<g id="node14" class="node">
<title>http://purl.org/dj/kaggle/lists&#45;daily#29950131</title>
<ellipse fill="none" stroke="black" cx="7579.53" cy="-105" rx="94.78" ry="18"/>
<text text-anchor="middle" x="7579.53" y="-101.3" font-family="Times,serif" font-size="14.00">29950131 (1(0): Reuse)</text>
</g>
<!-- http://purl.org/dj/kaggle/lists&#45;daily#87687499&#45;&gt;http://purl.org/dj/kaggle/lists&#45;daily#29950131 -->
<g id="edge17" class="edge">
<title>http://purl.org/dj/kaggle/lists&#45;daily#87687499&#45;&gt;http://purl.org/dj/kaggle/lists&#45;daily#29950131</title>
<path fill="none" stroke="black" d="M7747.92,-174.81C7713.51,-160.75 7663.6,-140.36 7627.05,-125.42"/>
<polygon fill="black" stroke="black" points="7628.18,-122.1 7617.6,-121.55 7625.53,-128.58 7628.18,-122.1"/>
<text text-anchor="middle" x="7719.03" y="-144.8" font-family="Times,serif" font-size="14.00">previous</text>
</g>
<!-- http://purl.org/dj/kaggle/lists&#45;daily#30474421 -->
<g id="node15" class="node">
<title>http://purl.org/dj/kaggle/lists&#45;daily#30474421</title>
<ellipse fill="none" stroke="black" cx="7787.53" cy="-105" rx="94.78" ry="18"/>
<text text-anchor="middle" x="7787.53" y="-101.3" font-family="Times,serif" font-size="14.00">30474421 (3(0): Reuse)</text>
</g>
<!-- http://purl.org/dj/kaggle/lists&#45;daily#87687499&#45;&gt;http://purl.org/dj/kaggle/lists&#45;daily#30474421 -->
<g id="edge18" class="edge">
<title>http://purl.org/dj/kaggle/lists&#45;daily#87687499&#45;&gt;http://purl.org/dj/kaggle/lists&#45;daily#30474421</title>
<path fill="none" stroke="black" d="M7787.53,-173.8C7787.53,-162.16 7787.53,-146.55 7787.53,-133.24"/>
<polygon fill="black" stroke="black" points="7791.03,-133.18 7787.53,-123.18 7784.03,-133.18 7791.03,-133.18"/>
<text text-anchor="middle" x="7811.03" y="-144.8" font-family="Times,serif" font-size="14.00">previous</text>
</g>
<!-- http://purl.org/dj/kaggle/lists&#45;daily#30212276 -->
<g id="node16" class="node">
<title>http://purl.org/dj/kaggle/lists&#45;daily#30212276</title>
<ellipse fill="none" stroke="black" cx="7995.53" cy="-105" rx="94.78" ry="18"/>
<text text-anchor="middle" x="7995.53" y="-101.3" font-family="Times,serif" font-size="14.00">30212276 (2(0): Reuse)</text>
</g>
<!-- http://purl.org/dj/kaggle/lists&#45;daily#87687499&#45;&gt;http://purl.org/dj/kaggle/lists&#45;daily#30212276 -->
<g id="edge19" class="edge">
<title>http://purl.org/dj/kaggle/lists&#45;daily#87687499&#45;&gt;http://purl.org/dj/kaggle/lists&#45;daily#30212276</title>
<path fill="none" stroke="black" d="M7827.15,-174.81C7861.56,-160.75 7911.46,-140.36 7948.02,-125.42"/>
<polygon fill="black" stroke="black" points="7949.54,-128.58 7957.47,-121.55 7946.89,-122.1 7949.54,-128.58"/>
<text text-anchor="middle" x="7927.03" y="-144.8" font-family="Times,serif" font-size="14.00">previous</text>
</g>
<!-- http://purl.org/dj/kaggle/lists&#45;daily#29950131&#45;&gt;http://purl.org/dj/kaggle/lists&#45;daily -->
<g id="edge20" class="edge">
<title>http://purl.org/dj/kaggle/lists&#45;daily#29950131&#45;&gt;http://purl.org/dj/kaggle/lists&#45;daily</title>
<path fill="none" stroke="black" d="M7549.06,-87.81C7522.18,-73.53 7483,-52.72 7454.78,-37.72"/>
<polygon fill="black" stroke="black" points="7456.13,-34.48 7445.66,-32.88 7452.85,-40.66 7456.13,-34.48"/>
<text text-anchor="middle" x="7532.03" y="-57.8" font-family="Times,serif" font-size="14.00">previous</text>
</g>
<!-- http://purl.org/dj/kaggle/lists&#45;daily#30474421&#45;&gt;http://purl.org/dj/kaggle/lists&#45;daily -->
<g id="edge21" class="edge">
<title>http://purl.org/dj/kaggle/lists&#45;daily#30474421&#45;&gt;http://purl.org/dj/kaggle/lists&#45;daily</title>
<path fill="none" stroke="black" d="M7729.63,-90.63C7657.34,-73.93 7535,-45.67 7467.63,-30.11"/>
<polygon fill="black" stroke="black" points="7468.23,-26.66 7457.7,-27.81 7466.65,-33.48 7468.23,-26.66"/>
<text text-anchor="middle" x="7649.03" y="-57.8" font-family="Times,serif" font-size="14.00">previous</text>
</g>
<!-- http://purl.org/dj/kaggle/lists&#45;daily#30212276&#45;&gt;http://purl.org/dj/kaggle/lists&#45;daily -->
<g id="edge22" class="edge">
<title>http://purl.org/dj/kaggle/lists&#45;daily#30212276&#45;&gt;http://purl.org/dj/kaggle/lists&#45;daily</title>
<path fill="none" stroke="black" d="M7926.46,-92.61C7914.81,-90.72 7902.83,-88.79 7891.53,-87 7796.05,-71.87 7772.21,-67.86 7676.53,-54 7605.93,-43.77 7524.28,-32.8 7472.3,-25.92"/>
<polygon fill="black" stroke="black" points="7472.68,-22.44 7462.31,-24.6 7471.77,-29.38 7472.68,-22.44"/>
<text text-anchor="middle" x="7800.03" y="-57.8" font-family="Times,serif" font-size="14.00">previous</text>
</g>
<!-- http://purl.org/dj/kaggle/lists&#45;daily#135070248 -->
<g id="node17" class="node">
<title>http://purl.org/dj/kaggle/lists&#45;daily#135070248</title>
<ellipse fill="none" stroke="black" cx="3248.53" cy="-192" rx="130.78" ry="18"/>
<text text-anchor="middle" x="3248.53" y="-188.3" font-family="Times,serif" font-size="14.00">135070248 (len[0]: Visualisation)</text>
</g>
<!-- http://purl.org/dj/kaggle/lists&#45;daily#135070248&#45;&gt;http://purl.org/dj/kaggle/lists&#45;daily#1175414053 -->
<g id="edge23" class="edge">
<title>http://purl.org/dj/kaggle/lists&#45;daily#135070248&#45;&gt;http://purl.org/dj/kaggle/lists&#45;daily#1175414053</title>
<path fill="none" stroke="black" d="M3338.15,-178.88C3354.55,-176.99 3371.54,-175.25 3387.53,-174 3768.24,-144.14 4189.41,-127.35 4551.63,-117.93"/>
<polygon fill="black" stroke="black" points="4551.89,-121.42 4561.79,-117.67 4551.7,-114.43 4551.89,-121.42"/>
<text text-anchor="middle" x="3920.03" y="-144.8" font-family="Times,serif" font-size="14.00">previous</text>
</g>
<!-- http://purl.org/dj/kaggle/lists&#45;daily#135070248&#45;&gt;http://purl.org/dj/kaggle/lists&#45;daily#562824294 -->
<g id="edge24" class="edge">
<title>http://purl.org/dj/kaggle/lists&#45;daily#135070248&#45;&gt;http://purl.org/dj/kaggle/lists&#45;daily#562824294</title>
<path fill="none" stroke="black" d="M3242.15,-173.94C3236.88,-162.47 3228.19,-148.2 3215.53,-141 3178.02,-119.67 2870.55,-126.5 2827.53,-123 2814.23,-121.92 2800.27,-120.57 2786.47,-119.11"/>
<polygon fill="black" stroke="black" points="2786.79,-115.62 2776.47,-118.02 2786.03,-122.58 2786.79,-115.62"/>
<text text-anchor="middle" x="3254.03" y="-144.8" font-family="Times,serif" font-size="14.00">previous</text>
</g>
<!-- http://purl.org/dj/kaggle/lists&#45;daily#135070248&#45;&gt;http://purl.org/dj/kaggle/lists&#45;daily#1938499335 -->
<g id="edge25" class="edge">
<title>http://purl.org/dj/kaggle/lists&#45;daily#135070248&#45;&gt;http://purl.org/dj/kaggle/lists&#45;daily#1938499335</title>
<path fill="none" stroke="black" d="M3163.83,-178.29C3074.47,-165.05 2939.53,-145.61 2887.53,-141 2834.88,-136.33 2584.77,-126.68 2362.9,-118.69"/>
<polygon fill="black" stroke="black" points="2362.81,-115.19 2352.69,-118.33 2362.55,-122.18 2362.81,-115.19"/>
<text text-anchor="middle" x="3024.03" y="-144.8" font-family="Times,serif" font-size="14.00">previous</text>
</g>
<!-- http://purl.org/dj/kaggle/lists&#45;daily#2372285397 -->
<g id="node18" class="node">
<title>http://purl.org/dj/kaggle/lists&#45;daily#2372285397</title>
<ellipse fill="none" stroke="black" cx="3508.53" cy="-105" rx="672.08" ry="18"/>
<text text-anchor="middle" x="3508.53" y="-101.3" font-family="Times,serif" font-size="14.00">2372285397 ([&lt;_ast.Constant object at 0x12fc3f4c0&gt;, &lt;_ast.Constant object at 0x12fc3f340&gt;, &lt;_ast.Constant object at 0x12fc3f6a0&gt;, &lt;_ast.Constant object at 0x12fc3fa90&gt;](0): Reuse)</text>
</g>
<!-- http://purl.org/dj/kaggle/lists&#45;daily#135070248&#45;&gt;http://purl.org/dj/kaggle/lists&#45;daily#2372285397 -->
<g id="edge26" class="edge">
<title>http://purl.org/dj/kaggle/lists&#45;daily#135070248&#45;&gt;http://purl.org/dj/kaggle/lists&#45;daily#2372285397</title>
<path fill="none" stroke="black" d="M3342.41,-179.45C3385.11,-173.23 3430.33,-164.99 3449.53,-156 3456.94,-152.54 3470.64,-141.06 3482.98,-129.98"/>
<polygon fill="black" stroke="black" points="3485.38,-132.52 3490.42,-123.2 3480.67,-127.35 3485.38,-132.52"/>
<text text-anchor="middle" x="3492.03" y="-144.8" font-family="Times,serif" font-size="14.00">previous</text>
</g>
<!-- http://purl.org/dj/kaggle/lists&#45;daily#2372285397&#45;&gt;http://purl.org/dj/kaggle/lists&#45;daily -->
<g id="edge27" class="edge">
<title>http://purl.org/dj/kaggle/lists&#45;daily#2372285397&#45;&gt;http://purl.org/dj/kaggle/lists&#45;daily</title>
<path fill="none" stroke="black" d="M3976.52,-92.08C4047.88,-90.33 4120.66,-88.58 4189.53,-87 5475.84,-57.4 7050.41,-26.25 7363.8,-20.09"/>
<polygon fill="black" stroke="black" points="7364.06,-23.59 7373.99,-19.89 7363.93,-16.59 7364.06,-23.59"/>
<text text-anchor="middle" x="5717.03" y="-57.8" font-family="Times,serif" font-size="14.00">previous</text>
</g>
<!-- http://purl.org/dj/kaggle/lists&#45;daily#314114938 -->
<g id="node19" class="node">
<title>http://purl.org/dj/kaggle/lists&#45;daily#314114938</title>
<ellipse fill="none" stroke="black" cx="2958.53" cy="-192" rx="141.88" ry="18"/>
<text text-anchor="middle" x="2958.53" y="-188.3" font-family="Times,serif" font-size="14.00">314114938 (sorted[0]: Visualisation)</text>
</g>
<!-- http://purl.org/dj/kaggle/lists&#45;daily#314114938&#45;&gt;http://purl.org/dj/kaggle/lists&#45;daily#1175414053 -->
<g id="edge28" class="edge">
<title>http://purl.org/dj/kaggle/lists&#45;daily#314114938&#45;&gt;http://purl.org/dj/kaggle/lists&#45;daily#1175414053</title>
<path fill="none" stroke="black" d="M3057.71,-179.11C3074.66,-177.27 3092.09,-175.48 3108.53,-174 3167.98,-168.64 3320.12,-175.5 3376.53,-156 3387.72,-152.13 3387.26,-144.58 3398.53,-141 3413.39,-136.28 4024.57,-126.28 4576.5,-118.17"/>
<polygon fill="black" stroke="black" points="4576.72,-121.67 4586.67,-118.03 4576.62,-114.67 4576.72,-121.67"/>
<text text-anchor="middle" x="3422.03" y="-144.8" font-family="Times,serif" font-size="14.00">previous</text>
</g>
<!-- http://purl.org/dj/kaggle/lists&#45;daily#314114938&#45;&gt;http://purl.org/dj/kaggle/lists&#45;daily#562824294 -->
<g id="edge29" class="edge">
<title>http://purl.org/dj/kaggle/lists&#45;daily#314114938&#45;&gt;http://purl.org/dj/kaggle/lists&#45;daily#562824294</title>
<path fill="none" stroke="black" d="M2907.08,-175.21C2860.44,-160.9 2791.64,-139.79 2742.31,-124.65"/>
<polygon fill="black" stroke="black" points="2743.3,-121.29 2732.71,-121.7 2741.24,-127.98 2743.3,-121.29"/>
<text text-anchor="middle" x="2860.03" y="-144.8" font-family="Times,serif" font-size="14.00">previous</text>
</g>
<!-- http://purl.org/dj/kaggle/lists&#45;daily#314114938&#45;&gt;http://purl.org/dj/kaggle/lists&#45;daily#1938499335 -->
<g id="edge30" class="edge">
<title>http://purl.org/dj/kaggle/lists&#45;daily#314114938&#45;&gt;http://purl.org/dj/kaggle/lists&#45;daily#1938499335</title>
<path fill="none" stroke="black" d="M2876.41,-177.29C2838.4,-170.9 2792.65,-163.15 2751.53,-156 2714.17,-149.51 2705.21,-145.33 2667.53,-141 2576.83,-130.58 2478.86,-123.25 2386.55,-118.11"/>
<polygon fill="black" stroke="black" points="2386.66,-114.61 2376.48,-117.56 2386.27,-121.6 2386.66,-114.61"/>
<text text-anchor="middle" x="2775.03" y="-144.8" font-family="Times,serif" font-size="14.00">previous</text>
</g>
<!-- http://purl.org/dj/kaggle/lists&#45;daily#314114938&#45;&gt;http://purl.org/dj/kaggle/lists&#45;daily#2372285397 -->
<g id="edge31" class="edge">
<title>http://purl.org/dj/kaggle/lists&#45;daily#314114938&#45;&gt;http://purl.org/dj/kaggle/lists&#45;daily#2372285397</title>
<path fill="none" stroke="black" d="M3044.98,-177.71C3073.8,-172.25 3105.87,-165.05 3134.53,-156 3150.28,-151.03 3152.57,-145.23 3168.53,-141 3196.11,-133.69 3225.31,-127.9 3254.56,-123.3"/>
<polygon fill="black" stroke="black" points="3255.12,-126.76 3264.48,-121.79 3254.07,-119.84 3255.12,-126.76"/>
<text text-anchor="middle" x="3192.03" y="-144.8" font-family="Times,serif" font-size="14.00">previous</text>
</g>
<!-- http://purl.org/dj/kaggle/lists&#45;daily#64815379 -->
<g id="node20" class="node">
<title>http://purl.org/dj/kaggle/lists&#45;daily#64815379</title>
<ellipse fill="none" stroke="black" cx="8212.53" cy="-105" rx="103.98" ry="18"/>
<text text-anchor="middle" x="8212.53" y="-101.3" font-family="Times,serif" font-size="14.00">64815379 (100(0): Reuse)</text>
</g>
<!-- http://purl.org/dj/kaggle/lists&#45;daily#64815379&#45;&gt;http://purl.org/dj/kaggle/lists&#45;daily -->
<g id="edge32" class="edge">
<title>http://purl.org/dj/kaggle/lists&#45;daily#64815379&#45;&gt;http://purl.org/dj/kaggle/lists&#45;daily</title>
<path fill="none" stroke="black" d="M8137.81,-92.45C8125.05,-90.57 8111.92,-88.68 8099.53,-87 7978.87,-70.61 7948.66,-66.54 7827.53,-54 7701.15,-40.92 7552.37,-29.04 7474.07,-23.07"/>
<polygon fill="black" stroke="black" points="7474.19,-19.56 7463.96,-22.3 7473.66,-26.54 7474.19,-19.56"/>
<text text-anchor="middle" x="7982.03" y="-57.8" font-family="Times,serif" font-size="14.00">previous</text>
</g>
<!-- http://purl.org/dj/kaggle/lists&#45;daily#690160819 -->
<g id="node21" class="node">
<title>http://purl.org/dj/kaggle/lists&#45;daily#690160819</title>
<ellipse fill="none" stroke="black" cx="530.53" cy="-192" rx="165.17" ry="18"/>
<text text-anchor="middle" x="530.53" y="-188.3" font-family="Times,serif" font-size="14.00">690160819 (numerator(0)$0: Visualisation)</text>
</g>
<!-- http://purl.org/dj/kaggle/lists&#45;daily#690160819&#45;&gt;http://purl.org/dj/kaggle/lists&#45;daily#113181048 -->
<g id="edge33" class="edge">
<title>http://purl.org/dj/kaggle/lists&#45;daily#690160819&#45;&gt;http://purl.org/dj/kaggle/lists&#45;daily#113181048</title>
<path fill="none" stroke="black" d="M495.17,-174.21C466.45,-160.57 425.83,-141.28 395.11,-126.69"/>
<polygon fill="black" stroke="black" points="396.45,-123.45 385.91,-122.33 393.45,-129.78 396.45,-123.45"/>
<text text-anchor="middle" x="476.03" y="-144.8" font-family="Times,serif" font-size="14.00">previous</text>
</g>
<!-- http://purl.org/dj/kaggle/lists&#45;daily#221971094 -->
<g id="node22" class="node">
<title>http://purl.org/dj/kaggle/lists&#45;daily#221971094</title>
<ellipse fill="none" stroke="black" cx="6840.53" cy="-105" rx="113.98" ry="18"/>
<text text-anchor="middle" x="6840.53" y="-101.3" font-family="Times,serif" font-size="14.00">221971094 (Pluto(0): Reuse)</text>
</g>
<!-- http://purl.org/dj/kaggle/lists&#45;daily#221971094&#45;&gt;http://purl.org/dj/kaggle/lists&#45;daily -->
<g id="edge34" class="edge">
<title>http://purl.org/dj/kaggle/lists&#45;daily#221971094&#45;&gt;http://purl.org/dj/kaggle/lists&#45;daily</title>
<path fill="none" stroke="black" d="M6919.33,-91.94C6986.58,-81.69 7085.88,-66.67 7172.53,-54 7239.69,-44.19 7317.18,-33.27 7367.19,-26.28"/>
<polygon fill="black" stroke="black" points="7367.7,-29.74 7377.12,-24.9 7366.74,-22.81 7367.7,-29.74"/>
<text text-anchor="middle" x="7196.03" y="-57.8" font-family="Times,serif" font-size="14.00">previous</text>
</g>
<!-- http://purl.org/dj/kaggle/lists&#45;daily#488571859 -->
<g id="node23" class="node">
<title>http://purl.org/dj/kaggle/lists&#45;daily#488571859</title>
<ellipse fill="none" stroke="black" cx="8479.53" cy="-192" rx="153.27" ry="18"/>
<text text-anchor="middle" x="8479.53" y="-188.3" font-family="Times,serif" font-size="14.00">488571859 (planets(0)$6: Visualisation)</text>
</g>
<!-- http://purl.org/dj/kaggle/lists&#45;daily#208142966 -->
<g id="node24" class="node">
<title>http://purl.org/dj/kaggle/lists&#45;daily#208142966</title>
<ellipse fill="none" stroke="black" cx="8448.53" cy="-105" rx="114.28" ry="18"/>
<text text-anchor="middle" x="8448.53" y="-101.3" font-family="Times,serif" font-size="14.00">208142966 (Earth(0): Reuse)</text>
</g>
<!-- http://purl.org/dj/kaggle/lists&#45;daily#488571859&#45;&gt;http://purl.org/dj/kaggle/lists&#45;daily#208142966 -->
<g id="edge35" class="edge">
<title>http://purl.org/dj/kaggle/lists&#45;daily#488571859&#45;&gt;http://purl.org/dj/kaggle/lists&#45;daily#208142966</title>
<path fill="none" stroke="black" d="M8473.26,-173.8C8468.98,-162.05 8463.21,-146.24 8458.32,-132.84"/>
<polygon fill="black" stroke="black" points="8461.51,-131.37 8454.8,-123.18 8454.94,-133.77 8461.51,-131.37"/>
<text text-anchor="middle" x="8489.03" y="-144.8" font-family="Times,serif" font-size="14.00">previous</text>
</g>
<!-- http://purl.org/dj/kaggle/lists&#45;daily#208142966&#45;&gt;http://purl.org/dj/kaggle/lists&#45;daily -->
<g id="edge36" class="edge">
<title>http://purl.org/dj/kaggle/lists&#45;daily#208142966&#45;&gt;http://purl.org/dj/kaggle/lists&#45;daily</title>
<path fill="none" stroke="black" d="M8366.87,-92.33C8353.09,-90.47 8338.91,-88.62 8325.53,-87 8185.35,-70 8150.27,-65.52 8009.53,-54 7813.07,-37.92 7579.23,-26.27 7474.74,-21.45"/>
<polygon fill="black" stroke="black" points="7474.88,-17.95 7464.73,-20.99 7474.56,-24.94 7474.88,-17.95"/>
<text text-anchor="middle" x="8191.03" y="-57.8" font-family="Times,serif" font-size="14.00">previous</text>
</g>
<!-- http://purl.org/dj/kaggle/lists&#45;daily#488440785 -->
<g id="node25" class="node">
<title>http://purl.org/dj/kaggle/lists&#45;daily#488440785</title>
<ellipse fill="none" stroke="black" cx="3544.53" cy="-192" rx="147.57" ry="18"/>
<text text-anchor="middle" x="3544.53" y="-188.3" font-family="Times,serif" font-size="14.00">488440785 (planets(0)$4: Preparation)</text>
</g>
<!-- http://purl.org/dj/kaggle/lists&#45;daily#488440785&#45;&gt;http://purl.org/dj/kaggle/lists&#45;daily#1175414053 -->
<g id="edge37" class="edge">
<title>http://purl.org/dj/kaggle/lists&#45;daily#488440785&#45;&gt;http://purl.org/dj/kaggle/lists&#45;daily#1175414053</title>
<path fill="none" stroke="black" d="M3680.68,-184.94C3968.93,-172.1 4649.52,-141.8 5078.62,-122.69"/>
<polygon fill="black" stroke="black" points="5078.88,-126.19 5088.71,-122.24 5078.57,-119.19 5078.88,-126.19"/>
<text text-anchor="middle" x="4636.03" y="-144.8" font-family="Times,serif" font-size="14.00">previous</text>
</g>
<!-- http://purl.org/dj/kaggle/lists&#45;daily#488440785&#45;&gt;http://purl.org/dj/kaggle/lists&#45;daily#562824294 -->
<g id="edge38" class="edge">
<title>http://purl.org/dj/kaggle/lists&#45;daily#488440785&#45;&gt;http://purl.org/dj/kaggle/lists&#45;daily#562824294</title>
<path fill="none" stroke="black" d="M3448.44,-178.33C3411.09,-172.63 3368.09,-165.11 3329.53,-156 3307.78,-150.86 3303.56,-144.81 3281.53,-141 3082.55,-106.59 3028.86,-138.69 2827.53,-123 2814.13,-121.96 2800.05,-120.62 2786.15,-119.16"/>
<polygon fill="black" stroke="black" points="2786.39,-115.66 2776.07,-118.07 2785.64,-122.62 2786.39,-115.66"/>
<text text-anchor="middle" x="3353.03" y="-144.8" font-family="Times,serif" font-size="14.00">previous</text>
</g>
<!-- http://purl.org/dj/kaggle/lists&#45;daily#488440785&#45;&gt;http://purl.org/dj/kaggle/lists&#45;daily#1938499335 -->
<g id="edge39" class="edge">
<title>http://purl.org/dj/kaggle/lists&#45;daily#488440785&#45;&gt;http://purl.org/dj/kaggle/lists&#45;daily#1938499335</title>
<path fill="none" stroke="black" d="M3441.81,-179.07C3424.06,-177.22 3405.77,-175.45 3388.53,-174 3253.22,-162.64 3215.15,-189.42 3083.53,-156 3068.31,-152.13 3066.81,-144.67 3051.53,-141 3047.31,-139.99 2677.86,-127.89 2377.38,-118.2"/>
<polygon fill="black" stroke="black" points="2377.28,-114.69 2367.17,-117.87 2377.05,-121.69 2377.28,-114.69"/>
<text text-anchor="middle" x="3107.03" y="-144.8" font-family="Times,serif" font-size="14.00">previous</text>
</g>
<!-- http://purl.org/dj/kaggle/lists&#45;daily#488440785&#45;&gt;http://purl.org/dj/kaggle/lists&#45;daily#2372285397 -->
<g id="edge40" class="edge">
<title>http://purl.org/dj/kaggle/lists&#45;daily#488440785&#45;&gt;http://purl.org/dj/kaggle/lists&#45;daily#2372285397</title>
<path fill="none" stroke="black" d="M3537.25,-173.8C3532.22,-161.93 3525.45,-145.93 3519.74,-132.45"/>
<polygon fill="black" stroke="black" points="3522.93,-131.02 3515.81,-123.18 3516.49,-133.75 3522.93,-131.02"/>
<text text-anchor="middle" x="3552.03" y="-144.8" font-family="Times,serif" font-size="14.00">previous</text>
</g>
<!-- http://purl.org/dj/kaggle/lists&#45;daily#488440785&#45;&gt;http://purl.org/dj/kaggle/lists&#45;daily#221971094 -->
<g id="edge41" class="edge">
<title>http://purl.org/dj/kaggle/lists&#45;daily#488440785&#45;&gt;http://purl.org/dj/kaggle/lists&#45;daily#221971094</title>
<path fill="none" stroke="black" d="M3691.61,-190.11C4233.48,-186.5 6117.98,-170.7 6717.53,-123 6728.84,-122.1 6740.69,-120.85 6752.38,-119.44"/>
<polygon fill="black" stroke="black" points="6753.11,-122.87 6762.6,-118.16 6752.24,-115.93 6753.11,-122.87"/>
<text text-anchor="middle" x="6418.03" y="-144.8" font-family="Times,serif" font-size="14.00">previous</text>
</g>
<!-- http://purl.org/dj/kaggle/lists&#45;daily#488506322 -->
<g id="node26" class="node">
<title>http://purl.org/dj/kaggle/lists&#45;daily#488506322</title>
<ellipse fill="none" stroke="black" cx="2594.53" cy="-279" rx="153.27" ry="18"/>
<text text-anchor="middle" x="2594.53" y="-275.3" font-family="Times,serif" font-size="14.00">488506322 (planets(0)$5: Visualisation)</text>
</g>
<!-- http://purl.org/dj/kaggle/lists&#45;daily#488506322&#45;&gt;http://purl.org/dj/kaggle/lists&#45;daily#488440785 -->
<g id="edge42" class="edge">
<title>http://purl.org/dj/kaggle/lists&#45;daily#488506322&#45;&gt;http://purl.org/dj/kaggle/lists&#45;daily#488440785</title>
<path fill="none" stroke="black" d="M2718.05,-268.31C2874.28,-255.85 3151.52,-233.06 3388.53,-210 3401.95,-208.69 3416.01,-207.26 3429.97,-205.79"/>
<polygon fill="black" stroke="black" points="3430.52,-209.25 3440.1,-204.72 3429.78,-202.29 3430.52,-209.25"/>
<text text-anchor="middle" x="3216.03" y="-231.8" font-family="Times,serif" font-size="14.00">previous</text>
</g>
<!-- http://purl.org/dj/kaggle/lists&#45;daily#136774191 -->
<g id="node27" class="node">
<title>http://purl.org/dj/kaggle/lists&#45;daily#136774191</title>
<ellipse fill="none" stroke="black" cx="9251.53" cy="-192" rx="135.68" ry="18"/>
<text text-anchor="middle" x="9251.53" y="-188.3" font-family="Times,serif" font-size="14.00">136774191 (max[0]: Visualisation)</text>
</g>
<!-- http://purl.org/dj/kaggle/lists&#45;daily#3096720491 -->
<g id="node28" class="node">
<title>http://purl.org/dj/kaggle/lists&#45;daily#3096720491</title>
<ellipse fill="none" stroke="black" cx="9251.53" cy="-105" rx="670.98" ry="18"/>
<text text-anchor="middle" x="9251.53" y="-101.3" font-family="Times,serif" font-size="14.00">3096720491 ([&lt;_ast.Constant object at 0x12fc3f9a0&gt;, &lt;_ast.Constant object at 0x12fc3ffd0&gt;, &lt;_ast.Constant object at 0x12fc3fcd0&gt;, &lt;_ast.Constant object at 0x12fc3f7c0&gt;](0): Reuse)</text>
</g>
<!-- http://purl.org/dj/kaggle/lists&#45;daily#136774191&#45;&gt;http://purl.org/dj/kaggle/lists&#45;daily#3096720491 -->
<g id="edge44" class="edge">
<title>http://purl.org/dj/kaggle/lists&#45;daily#136774191&#45;&gt;http://purl.org/dj/kaggle/lists&#45;daily#3096720491</title>
<path fill="none" stroke="black" d="M9251.53,-173.8C9251.53,-162.16 9251.53,-146.55 9251.53,-133.24"/>
<polygon fill="black" stroke="black" points="9255.03,-133.18 9251.53,-123.18 9248.03,-133.18 9255.03,-133.18"/>
<text text-anchor="middle" x="9275.03" y="-144.8" font-family="Times,serif" font-size="14.00">previous</text>
</g>
<!-- http://purl.org/dj/kaggle/lists&#45;daily#3096720491&#45;&gt;http://purl.org/dj/kaggle/lists&#45;daily -->
<g id="edge45" class="edge">
<title>http://purl.org/dj/kaggle/lists&#45;daily#3096720491&#45;&gt;http://purl.org/dj/kaggle/lists&#45;daily</title>
<path fill="none" stroke="black" d="M8947.86,-88.93C8742.06,-78.81 8463.92,-65.31 8218.53,-54 7938.99,-41.11 7604.38,-26.82 7474.67,-21.33"/>
<polygon fill="black" stroke="black" points="7474.73,-17.83 7464.59,-20.9 7474.43,-24.82 7474.73,-17.83"/>
<text text-anchor="middle" x="8554.03" y="-57.8" font-family="Times,serif" font-size="14.00">previous</text>
</g>
<!-- http://purl.org/dj/kaggle/lists&#45;daily#182911634 -->
<g id="node29" class="node">
<title>http://purl.org/dj/kaggle/lists&#45;daily#182911634</title>
<ellipse fill="none" stroke="black" cx="7092.53" cy="-279" rx="135.38" ry="18"/>
<text text-anchor="middle" x="7092.53" y="-275.3" font-family="Times,serif" font-size="14.00">182911634 (help[0]: Visualisation)</text>
</g>
<!-- http://purl.org/dj/kaggle/lists&#45;daily#182911634&#45;&gt;http://purl.org/dj/kaggle/lists&#45;daily#46334181 -->
<g id="edge46" class="edge">
<title>http://purl.org/dj/kaggle/lists&#45;daily#182911634&#45;&gt;http://purl.org/dj/kaggle/lists&#45;daily#46334181</title>
<path fill="none" stroke="black" d="M7153.18,-262.91C7184.03,-252.51 7220.07,-235.81 7244.53,-210 7264.73,-188.69 7275.04,-156.1 7280.09,-133.09"/>
<polygon fill="black" stroke="black" points="7283.52,-133.76 7282.05,-123.27 7276.66,-132.39 7283.52,-133.76"/>
<text text-anchor="middle" x="7290.03" y="-188.3" font-family="Times,serif" font-size="14.00">previous</text>
</g>
<!-- http://purl.org/dj/kaggle/lists&#45;daily#182911634&#45;&gt;http://purl.org/dj/kaggle/lists&#45;daily#488440785 -->
<g id="edge47" class="edge">
<title>http://purl.org/dj/kaggle/lists&#45;daily#182911634&#45;&gt;http://purl.org/dj/kaggle/lists&#45;daily#488440785</title>
<path fill="none" stroke="black" d="M6962.93,-273.78C6849.64,-270.15 6680.7,-264.91 6533.53,-261 5448.23,-232.15 4141.04,-205.05 3699.08,-196.1"/>
<polygon fill="black" stroke="black" points="3698.87,-192.59 3688.8,-195.89 3698.73,-199.59 3698.87,-192.59"/>
<text text-anchor="middle" x="5819.03" y="-231.8" font-family="Times,serif" font-size="14.00">previous</text>
</g>
<!-- http://purl.org/dj/kaggle/lists&#45;daily#249692951 -->
<g id="node30" class="node">
<title>http://purl.org/dj/kaggle/lists&#45;daily#249692951</title>
<ellipse fill="none" stroke="black" cx="7431.53" cy="-279" rx="136.48" ry="18"/>
<text text-anchor="middle" x="7431.53" y="-275.3" font-family="Times,serif" font-size="14.00">249692951 (print[1]: Visualisation)</text>
</g>
<!-- http://purl.org/dj/kaggle/lists&#45;daily#249692951&#45;&gt;http://purl.org/dj/kaggle/lists&#45;daily#29687986 -->
<g id="edge48" class="edge">
<title>http://purl.org/dj/kaggle/lists&#45;daily#249692951&#45;&gt;http://purl.org/dj/kaggle/lists&#45;daily#29687986</title>
<path fill="none" stroke="black" d="M7431.53,-260.8C7431.53,-249.16 7431.53,-233.55 7431.53,-220.24"/>
<polygon fill="black" stroke="black" points="7435.03,-220.18 7431.53,-210.18 7428.03,-220.18 7435.03,-220.18"/>
<text text-anchor="middle" x="7455.03" y="-231.8" font-family="Times,serif" font-size="14.00">previous</text>
</g>
<!-- http://purl.org/dj/kaggle/lists&#45;daily#488637396 -->
<g id="node31" class="node">
<title>http://purl.org/dj/kaggle/lists&#45;daily#488637396</title>
<ellipse fill="none" stroke="black" cx="6737.53" cy="-192" rx="153.27" ry="18"/>
<text text-anchor="middle" x="6737.53" y="-188.3" font-family="Times,serif" font-size="14.00">488637396 (planets(0)$7: Visualisation)</text>
</g>
<!-- http://purl.org/dj/kaggle/lists&#45;daily#488637396&#45;&gt;http://purl.org/dj/kaggle/lists&#45;daily#221971094 -->
<g id="edge49" class="edge">
<title>http://purl.org/dj/kaggle/lists&#45;daily#488637396&#45;&gt;http://purl.org/dj/kaggle/lists&#45;daily#221971094</title>
<path fill="none" stroke="black" d="M6758.38,-173.8C6773.84,-161.04 6795.09,-143.5 6812.1,-129.46"/>
<polygon fill="black" stroke="black" points="6814.59,-131.95 6820.07,-122.89 6810.13,-126.55 6814.59,-131.95"/>
<text text-anchor="middle" x="6818.03" y="-144.8" font-family="Times,serif" font-size="14.00">previous</text>
</g>
<!-- http://purl.org/dj/kaggle/lists&#45;daily#1336554269 -->
<g id="node32" class="node">
<title>http://purl.org/dj/kaggle/lists&#45;daily#1336554269</title>
<ellipse fill="none" stroke="black" cx="10616.53" cy="-105" rx="676.68" ry="18"/>
<text text-anchor="middle" x="10616.53" y="-101.3" font-family="Times,serif" font-size="14.00">1336554269 ([&lt;_ast.Constant object at 0x12f989c10&gt;, &lt;_ast.Constant object at 0x12f989f40&gt;, &lt;_ast.Constant object at 0x12f989af0&gt;, &lt;_ast.Constant object at 0x12f989ee0&gt;](0): Reuse)</text>
</g>
<!-- http://purl.org/dj/kaggle/lists&#45;daily#1336554269&#45;&gt;http://purl.org/dj/kaggle/lists&#45;daily -->
<g id="edge50" class="edge">
<title>http://purl.org/dj/kaggle/lists&#45;daily#1336554269&#45;&gt;http://purl.org/dj/kaggle/lists&#45;daily</title>
<path fill="none" stroke="black" d="M10156.78,-91.78C9363.19,-70.68 7790.76,-28.87 7475.37,-20.48"/>
<polygon fill="black" stroke="black" points="7475.21,-16.98 7465.12,-20.21 7475.02,-23.98 7475.21,-16.98"/>
<text text-anchor="middle" x="9232.03" y="-57.8" font-family="Times,serif" font-size="14.00">previous</text>
</g>
<!-- http://purl.org/dj/kaggle/lists&#45;daily#87753036 -->
<g id="node33" class="node">
<title>http://purl.org/dj/kaggle/lists&#45;daily#87753036</title>
<ellipse fill="none" stroke="black" cx="8181.53" cy="-192" rx="126.98" ry="18"/>
<text text-anchor="middle" x="8181.53" y="-188.3" font-family="Times,serif" font-size="14.00">87753036 (t(0)$2: Visualisation)</text>
</g>
<!-- http://purl.org/dj/kaggle/lists&#45;daily#87753036&#45;&gt;http://purl.org/dj/kaggle/lists&#45;daily#64815379 -->
<g id="edge51" class="edge">
<title>http://purl.org/dj/kaggle/lists&#45;daily#87753036&#45;&gt;http://purl.org/dj/kaggle/lists&#45;daily#64815379</title>
<path fill="none" stroke="black" d="M8187.81,-173.8C8192.09,-162.05 8197.86,-146.24 8202.75,-132.84"/>
<polygon fill="black" stroke="black" points="8206.13,-133.77 8206.27,-123.18 8199.56,-131.37 8206.13,-133.77"/>
<text text-anchor="middle" x="8222.03" y="-144.8" font-family="Times,serif" font-size="14.00">previous</text>
</g>
<!-- http://purl.org/dj/kaggle/lists&#45;daily#1393172842 -->
<g id="node34" class="node">
<title>http://purl.org/dj/kaggle/lists&#45;daily#1393172842</title>
<ellipse fill="none" stroke="black" cx="11793.53" cy="-105" rx="482.81" ry="18"/>
<text text-anchor="middle" x="11793.53" y="-101.3" font-family="Times,serif" font-size="14.00">1393172842 ([&lt;_ast.List object at 0x10676c0a0&gt;, &lt;_ast.List object at 0x12f8ab130&gt;, &lt;_ast.List object at 0x12f8ab250&gt;](0): Reuse)</text>
</g>
<!-- http://purl.org/dj/kaggle/lists&#45;daily#1393172842&#45;&gt;http://purl.org/dj/kaggle/lists&#45;daily -->
<g id="edge52" class="edge">
<title>http://purl.org/dj/kaggle/lists&#45;daily#1393172842&#45;&gt;http://purl.org/dj/kaggle/lists&#45;daily</title>
<path fill="none" stroke="black" d="M11464.41,-91.83C11410.33,-90.05 11354.87,-88.36 11302.53,-87 9739.9,-46.27 7822.87,-23.54 7474.99,-19.61"/>
<polygon fill="black" stroke="black" points="7474.96,-16.11 7464.92,-19.5 7474.88,-23.11 7474.96,-16.11"/>
<text text-anchor="middle" x="10475.03" y="-57.8" font-family="Times,serif" font-size="14.00">previous</text>
</g>
<!-- http://purl.org/dj/kaggle/lists&#45;daily#3403425023 -->
<g id="node35" class="node">
<title>http://purl.org/dj/kaggle/lists&#45;daily#3403425023</title>
<ellipse fill="none" stroke="black" cx="12818.53" cy="-105" rx="523.71" ry="18"/>
<text text-anchor="middle" x="12818.53" y="-101.3" font-family="Times,serif" font-size="14.00">3403425023 ([&lt;_ast.Constant object at 0x12f85ea90&gt;, &lt;_ast.Constant object at 0x12f85ea60&gt;, &lt;_ast.Name object at 0x12f85ee80&gt;](0): Reuse)</text>
</g>
<!-- http://purl.org/dj/kaggle/lists&#45;daily#3403425023&#45;&gt;http://purl.org/dj/kaggle/lists&#45;daily -->
<g id="edge53" class="edge">
<title>http://purl.org/dj/kaggle/lists&#45;daily#3403425023&#45;&gt;http://purl.org/dj/kaggle/lists&#45;daily</title>
<path fill="none" stroke="black" d="M12459.45,-91.89C12401.32,-90.12 12341.76,-88.42 12285.53,-87 10305.6,-37.1 7871.5,-21.57 7475.22,-19.3"/>
<polygon fill="black" stroke="black" points="7475.18,-15.8 7465.16,-19.25 7475.14,-22.8 7475.18,-15.8"/>
<text text-anchor="middle" x="11377.03" y="-57.8" font-family="Times,serif" font-size="14.00">previous</text>
</g>
</g>
</svg>
