<?xml version="1.0" encoding="UTF-8" standalone="no"?>
<!DOCTYPE svg PUBLIC "-//W3C//DTD SVG 1.1//EN"
 "http://www.w3.org/Graphics/SVG/1.1/DTD/svg11.dtd">
<!-- Generated by graphviz version 2.44.1 (20200629.0846)
 -->
<!-- Pages: 1 -->
<svg width="12745pt" height="413pt"
 viewBox="0.00 0.00 12745.40 413.00" xmlns="http://www.w3.org/2000/svg" xmlns:xlink="http://www.w3.org/1999/xlink">
<g id="graph0" class="graph" transform="scale(1 1) rotate(0) translate(4 409)">
<polygon fill="white" stroke="transparent" points="-4,4 -4,-409 12741.4,-409 12741.4,4 -4,4"/>
<!-- http://purl.org/dj/kaggle/lists#182911634 -->
<g id="node1" class="node">
<title>http://purl.org/dj/kaggle/lists#182911634</title>
<ellipse fill="none" stroke="black" cx="2402.44" cy="-387" rx="135.38" ry="18"/>
<text text-anchor="middle" x="2402.44" y="-383.3" font-family="Times,serif" font-size="14.00">182911634 (help[0]: Visualisation)</text>
</g>
<!-- http://purl.org/dj/kaggle/lists#208142966 -->
<g id="node2" class="node">
<title>http://purl.org/dj/kaggle/lists#208142966</title>
<ellipse fill="none" stroke="black" cx="326.44" cy="-246" rx="114.28" ry="18"/>
<text text-anchor="middle" x="326.44" y="-242.3" font-family="Times,serif" font-size="14.00">208142966 (Earth(0): Reuse)</text>
</g>
<!-- http://purl.org/dj/kaggle/lists#182911634&#45;&gt;http://purl.org/dj/kaggle/lists#208142966 -->
<g id="edge1" class="edge">
<title>http://purl.org/dj/kaggle/lists#182911634&#45;&gt;http://purl.org/dj/kaggle/lists#208142966</title>
<path fill="none" stroke="black" d="M2274.15,-381.24C2124.94,-375.41 1871.23,-364.62 1653.44,-351 1199.43,-322.61 659.02,-276.39 433.52,-256.54"/>
<polygon fill="black" stroke="black" points="433.62,-253.04 423.35,-255.65 433.01,-260.01 433.62,-253.04"/>
<text text-anchor="middle" x="1676.94" y="-339.8" font-family="Times,serif" font-size="14.00">previous</text>
</g>
<!-- http://purl.org/dj/kaggle/lists#488440785 -->
<g id="node3" class="node">
<title>http://purl.org/dj/kaggle/lists#488440785</title>
<ellipse fill="none" stroke="black" cx="2596.44" cy="-192" rx="147.57" ry="18"/>
<text text-anchor="middle" x="2596.44" y="-188.3" font-family="Times,serif" font-size="14.00">488440785 (planets(0)$4: Preparation)</text>
</g>
<!-- http://purl.org/dj/kaggle/lists#182911634&#45;&gt;http://purl.org/dj/kaggle/lists#488440785 -->
<g id="edge2" class="edge">
<title>http://purl.org/dj/kaggle/lists#182911634&#45;&gt;http://purl.org/dj/kaggle/lists#488440785</title>
<path fill="none" stroke="black" d="M2399.11,-368.81C2395.81,-346.67 2393.52,-307.95 2411.44,-282 2436.18,-246.18 2479.43,-224.28 2517.89,-211.17"/>
<polygon fill="black" stroke="black" points="2519.13,-214.45 2527.56,-208.02 2516.96,-207.79 2519.13,-214.45"/>
<text text-anchor="middle" x="2434.94" y="-296.3" font-family="Times,serif" font-size="14.00">previous</text>
</g>
<!-- http://purl.org/dj/kaggle/lists#221971094 -->
<g id="node4" class="node">
<title>http://purl.org/dj/kaggle/lists#221971094</title>
<ellipse fill="none" stroke="black" cx="140.44" cy="-105" rx="113.98" ry="18"/>
<text text-anchor="middle" x="140.44" y="-101.3" font-family="Times,serif" font-size="14.00">221971094 (Pluto(0): Reuse)</text>
</g>
<!-- http://purl.org/dj/kaggle/lists#182911634&#45;&gt;http://purl.org/dj/kaggle/lists#221971094 -->
<g id="edge3" class="edge">
<title>http://purl.org/dj/kaggle/lists#182911634&#45;&gt;http://purl.org/dj/kaggle/lists#221971094</title>
<path fill="none" stroke="black" d="M2304.84,-374.53C2001.84,-338.8 1050.43,-225.76 263.44,-123 253.4,-121.69 242.9,-120.29 232.45,-118.87"/>
<polygon fill="black" stroke="black" points="232.84,-115.39 222.46,-117.51 231.9,-122.33 232.84,-115.39"/>
<text text-anchor="middle" x="1407.94" y="-242.3" font-family="Times,serif" font-size="14.00">previous</text>
</g>
<!-- http://purl.org/dj/kaggle/lists#488506322 -->
<g id="node5" class="node">
<title>http://purl.org/dj/kaggle/lists#488506322</title>
<ellipse fill="none" stroke="black" cx="2596.44" cy="-300" rx="128.88" ry="18"/>
<text text-anchor="middle" x="2596.44" y="-296.3" font-family="Times,serif" font-size="14.00">488506322 (planets(0)$5: Reuse)</text>
</g>
<!-- http://purl.org/dj/kaggle/lists#182911634&#45;&gt;http://purl.org/dj/kaggle/lists#488506322 -->
<g id="edge4" class="edge">
<title>http://purl.org/dj/kaggle/lists#182911634&#45;&gt;http://purl.org/dj/kaggle/lists#488506322</title>
<path fill="none" stroke="black" d="M2439.85,-369.61C2471.25,-355.85 2516.25,-336.13 2549.96,-321.36"/>
<polygon fill="black" stroke="black" points="2551.4,-324.56 2559.15,-317.34 2548.59,-318.15 2551.4,-324.56"/>
<text text-anchor="middle" x="2534.94" y="-339.8" font-family="Times,serif" font-size="14.00">previous</text>
</g>
<!-- http://purl.org/dj/kaggle/lists#46334181 -->
<g id="node6" class="node">
<title>http://purl.org/dj/kaggle/lists#46334181</title>
<ellipse fill="none" stroke="black" cx="5639.44" cy="-105" rx="99.38" ry="18"/>
<text text-anchor="middle" x="5639.44" y="-101.3" font-family="Times,serif" font-size="14.00">46334181 (12(0): Reuse)</text>
</g>
<!-- http://purl.org/dj/kaggle/lists#182911634&#45;&gt;http://purl.org/dj/kaggle/lists#46334181 -->
<g id="edge5" class="edge">
<title>http://purl.org/dj/kaggle/lists#182911634&#45;&gt;http://purl.org/dj/kaggle/lists#46334181</title>
<path fill="none" stroke="black" d="M2537.34,-385.3C3094.25,-382.09 5198.92,-366.81 5492.44,-318 5570.65,-305 5613.3,-326.21 5662.44,-264 5696.4,-221.01 5689.87,-192.22 5670.44,-141 5669.1,-137.45 5667.21,-134.03 5665.02,-130.81"/>
<polygon fill="black" stroke="black" points="5667.64,-128.49 5658.7,-122.81 5662.15,-132.82 5667.64,-128.49"/>
<text text-anchor="middle" x="5706.94" y="-242.3" font-family="Times,serif" font-size="14.00">previous</text>
</g>
<!-- http://purl.org/dj/kaggle/lists -->
<g id="node7" class="node">
<title>http://purl.org/dj/kaggle/lists</title>
<ellipse fill="none" stroke="black" cx="6070.44" cy="-18" rx="27" ry="18"/>
<text text-anchor="middle" x="6070.44" y="-14.3" font-family="Times,serif" font-size="14.00">lists</text>
</g>
<!-- http://purl.org/dj/kaggle/lists#208142966&#45;&gt;http://purl.org/dj/kaggle/lists -->
<g id="edge6" class="edge">
<title>http://purl.org/dj/kaggle/lists#208142966&#45;&gt;http://purl.org/dj/kaggle/lists</title>
<path fill="none" stroke="black" d="M245.57,-233.15C130.74,-213.2 -57.73,-167.04 17.44,-87 97.62,-1.63 426.39,-58.04 543.44,-54 1704.02,-13.95 5610.63,-18.35 6033.28,-18.94"/>
<polygon fill="black" stroke="black" points="6033.42,-22.44 6043.43,-18.96 6033.43,-15.44 6033.42,-22.44"/>
<text text-anchor="middle" x="40.94" y="-144.8" font-family="Times,serif" font-size="14.00">previous</text>
</g>
<!-- http://purl.org/dj/kaggle/lists#488440785&#45;&gt;http://purl.org/dj/kaggle/lists#221971094 -->
<g id="edge7" class="edge">
<title>http://purl.org/dj/kaggle/lists#488440785&#45;&gt;http://purl.org/dj/kaggle/lists#221971094</title>
<path fill="none" stroke="black" d="M2461.48,-184.68C2327.48,-178.21 2116.21,-167.51 1933.44,-156 1842.27,-150.26 1819.71,-144.9 1728.44,-141 1403.16,-127.11 588.11,-147.34 263.44,-123 251.94,-122.14 239.87,-120.89 227.97,-119.46"/>
<polygon fill="black" stroke="black" points="228.4,-115.99 218.04,-118.22 227.53,-122.94 228.4,-115.99"/>
<text text-anchor="middle" x="1956.94" y="-144.8" font-family="Times,serif" font-size="14.00">previous</text>
</g>
<!-- http://purl.org/dj/kaggle/lists#3870831856 -->
<g id="node8" class="node">
<title>http://purl.org/dj/kaggle/lists#3870831856</title>
<ellipse fill="none" stroke="black" cx="948.44" cy="-105" rx="675.88" ry="18"/>
<text text-anchor="middle" x="948.44" y="-101.3" font-family="Times,serif" font-size="14.00">3870831856 ([&lt;_ast.Constant object at 0x12fadecd0&gt;, &lt;_ast.Constant object at 0x12fade4c0&gt;, &lt;_ast.Constant object at 0x12fadec70&gt;, &lt;_ast.Constant object at 0x12faded60&gt;](0): Reuse)</text>
</g>
<!-- http://purl.org/dj/kaggle/lists#488440785&#45;&gt;http://purl.org/dj/kaggle/lists#3870831856 -->
<g id="edge8" class="edge">
<title>http://purl.org/dj/kaggle/lists#488440785&#45;&gt;http://purl.org/dj/kaggle/lists#3870831856</title>
<path fill="none" stroke="black" d="M2484.6,-180.25C2361.98,-168.84 2159.38,-151.1 1984.44,-141 1807.96,-130.82 1614.37,-123.29 1442.8,-117.89"/>
<polygon fill="black" stroke="black" points="1442.68,-114.38 1432.57,-117.57 1442.46,-121.38 1442.68,-114.38"/>
<text text-anchor="middle" x="2210.94" y="-144.8" font-family="Times,serif" font-size="14.00">previous</text>
</g>
<!-- http://purl.org/dj/kaggle/lists#2676107210 -->
<g id="node9" class="node">
<title>http://purl.org/dj/kaggle/lists#2676107210</title>
<ellipse fill="none" stroke="black" cx="4989.44" cy="-105" rx="532.11" ry="18"/>
<text text-anchor="middle" x="4989.44" y="-101.3" font-family="Times,serif" font-size="14.00">2676107210 ([&lt;_ast.Constant object at 0x12fade7c0&gt;, &lt;_ast.Constant object at 0x12fade160&gt;, &lt;_ast.Constant object at 0x12fadeeb0&gt;](0): Reuse)</text>
</g>
<!-- http://purl.org/dj/kaggle/lists#488440785&#45;&gt;http://purl.org/dj/kaggle/lists#2676107210 -->
<g id="edge9" class="edge">
<title>http://purl.org/dj/kaggle/lists#488440785&#45;&gt;http://purl.org/dj/kaggle/lists#2676107210</title>
<path fill="none" stroke="black" d="M2736.29,-186.16C2845.3,-182.49 3000.48,-177.5 3136.44,-174 3537.28,-163.69 3637.8,-172.06 4038.44,-156 4149.22,-151.56 4176.74,-147.09 4287.44,-141 4417.51,-133.84 4561.17,-126.57 4684.46,-120.52"/>
<polygon fill="black" stroke="black" points="4685,-124 4694.81,-120.01 4684.65,-117 4685,-124"/>
<text text-anchor="middle" x="4310.94" y="-144.8" font-family="Times,serif" font-size="14.00">previous</text>
</g>
<!-- http://purl.org/dj/kaggle/lists#646341838 -->
<g id="node10" class="node">
<title>http://purl.org/dj/kaggle/lists#646341838</title>
<ellipse fill="none" stroke="black" cx="2894.44" cy="-105" rx="1252.38" ry="18"/>
<text text-anchor="middle" x="2894.44" y="-101.3" font-family="Times,serif" font-size="14.00">646341838 ([&lt;_ast.Constant object at 0x12f989e50&gt;, &lt;_ast.Constant object at 0x12f989f10&gt;, &lt;_ast.Constant object at 0x12f989ac0&gt;, &lt;_ast.Constant object at 0x12f9899d0&gt;, &lt;_ast.Constant object at 0x12f989fa0&gt;, &lt;_ast.Constant object at 0x12f9898e0&gt;, &lt;_ast.Constant object at 0x12f9899a0&gt;, &lt;_ast.Constant object at 0x12f989970&gt;](0): Reuse)</text>
</g>
<!-- http://purl.org/dj/kaggle/lists#488440785&#45;&gt;http://purl.org/dj/kaggle/lists#646341838 -->
<g id="edge10" class="edge">
<title>http://purl.org/dj/kaggle/lists#488440785&#45;&gt;http://purl.org/dj/kaggle/lists#646341838</title>
<path fill="none" stroke="black" d="M2651.8,-175.21C2700.76,-161.25 2772.41,-140.81 2825.17,-125.76"/>
<polygon fill="black" stroke="black" points="2826.13,-129.13 2834.79,-123.02 2824.21,-122.39 2826.13,-129.13"/>
<text text-anchor="middle" x="2786.94" y="-144.8" font-family="Times,serif" font-size="14.00">previous</text>
</g>
<!-- http://purl.org/dj/kaggle/lists#562824294 -->
<g id="node11" class="node">
<title>http://purl.org/dj/kaggle/lists#562824294</title>
<ellipse fill="none" stroke="black" cx="4302.44" cy="-105" rx="137.28" ry="18"/>
<text text-anchor="middle" x="4302.44" y="-101.3" font-family="Times,serif" font-size="14.00">562824294 (Malacandra(0): Reuse)</text>
</g>
<!-- http://purl.org/dj/kaggle/lists#488440785&#45;&gt;http://purl.org/dj/kaggle/lists#562824294 -->
<g id="edge11" class="edge">
<title>http://purl.org/dj/kaggle/lists#488440785&#45;&gt;http://purl.org/dj/kaggle/lists#562824294</title>
<path fill="none" stroke="black" d="M2738.61,-187.08C2923.02,-181.53 3234.58,-170.42 3348.44,-156 3380.87,-151.89 3387.97,-144.75 3420.44,-141 3745.05,-103.52 3829.47,-145.79 4155.44,-123 4169.39,-122.02 4184.06,-120.7 4198.5,-119.21"/>
<polygon fill="black" stroke="black" points="4198.88,-122.69 4208.46,-118.15 4198.14,-115.73 4198.88,-122.69"/>
<text text-anchor="middle" x="3443.94" y="-144.8" font-family="Times,serif" font-size="14.00">previous</text>
</g>
<!-- http://purl.org/dj/kaggle/lists#221971094&#45;&gt;http://purl.org/dj/kaggle/lists -->
<g id="edge12" class="edge">
<title>http://purl.org/dj/kaggle/lists#221971094&#45;&gt;http://purl.org/dj/kaggle/lists</title>
<path fill="none" stroke="black" d="M218.04,-91.8C233.07,-89.86 248.72,-88.12 263.44,-87 1279.28,-9.78 1536.75,-66.41 2555.44,-54 3990.9,-36.52 5756.18,-21.61 6033.14,-19.31"/>
<polygon fill="black" stroke="black" points="6033.47,-22.81 6043.44,-19.22 6033.41,-15.81 6033.47,-22.81"/>
<text text-anchor="middle" x="2578.94" y="-57.8" font-family="Times,serif" font-size="14.00">previous</text>
</g>
<!-- http://purl.org/dj/kaggle/lists#488506322&#45;&gt;http://purl.org/dj/kaggle/lists#488440785 -->
<g id="edge13" class="edge">
<title>http://purl.org/dj/kaggle/lists#488506322&#45;&gt;http://purl.org/dj/kaggle/lists#488440785</title>
<path fill="none" stroke="black" d="M2596.44,-281.97C2596.44,-265.38 2596.44,-239.88 2596.44,-220.43"/>
<polygon fill="black" stroke="black" points="2599.94,-220.34 2596.44,-210.34 2592.94,-220.34 2599.94,-220.34"/>
<text text-anchor="middle" x="2619.94" y="-242.3" font-family="Times,serif" font-size="14.00">previous</text>
</g>
<!-- http://purl.org/dj/kaggle/lists#46334181&#45;&gt;http://purl.org/dj/kaggle/lists -->
<g id="edge14" class="edge">
<title>http://purl.org/dj/kaggle/lists#46334181&#45;&gt;http://purl.org/dj/kaggle/lists</title>
<path fill="none" stroke="black" d="M5693.85,-89.92C5736.31,-79.22 5796.89,-64.59 5850.44,-54 5914.76,-41.28 5990.37,-30.06 6034.11,-23.93"/>
<polygon fill="black" stroke="black" points="6034.83,-27.36 6044.25,-22.52 6033.87,-20.43 6034.83,-27.36"/>
<text text-anchor="middle" x="5873.94" y="-57.8" font-family="Times,serif" font-size="14.00">previous</text>
</g>
<!-- http://purl.org/dj/kaggle/lists#3870831856&#45;&gt;http://purl.org/dj/kaggle/lists -->
<g id="edge27" class="edge">
<title>http://purl.org/dj/kaggle/lists#3870831856&#45;&gt;http://purl.org/dj/kaggle/lists</title>
<path fill="none" stroke="black" d="M1412.24,-91.89C1486.23,-90.13 1561.93,-88.44 1633.44,-87 3462.28,-50.29 5715.48,-23.18 6032.68,-19.44"/>
<polygon fill="black" stroke="black" points="6033.18,-22.94 6043.14,-19.32 6033.1,-15.94 6033.18,-22.94"/>
<text text-anchor="middle" x="3484.94" y="-57.8" font-family="Times,serif" font-size="14.00">previous</text>
</g>
<!-- http://purl.org/dj/kaggle/lists#2676107210&#45;&gt;http://purl.org/dj/kaggle/lists -->
<g id="edge28" class="edge">
<title>http://purl.org/dj/kaggle/lists#2676107210&#45;&gt;http://purl.org/dj/kaggle/lists</title>
<path fill="none" stroke="black" d="M5188.98,-88.31C5453.62,-67.5 5902.59,-32.2 6033.56,-21.9"/>
<polygon fill="black" stroke="black" points="6034.15,-25.36 6043.84,-21.09 6033.6,-18.39 6034.15,-25.36"/>
<text text-anchor="middle" x="5618.94" y="-57.8" font-family="Times,serif" font-size="14.00">previous</text>
</g>
<!-- http://purl.org/dj/kaggle/lists#646341838&#45;&gt;http://purl.org/dj/kaggle/lists -->
<g id="edge29" class="edge">
<title>http://purl.org/dj/kaggle/lists#646341838&#45;&gt;http://purl.org/dj/kaggle/lists</title>
<path fill="none" stroke="black" d="M3420.49,-88.65C3772.09,-78.51 4244.98,-65.09 4662.44,-54 5206.64,-39.54 5869.19,-23.76 6032.66,-19.89"/>
<polygon fill="black" stroke="black" points="6033.21,-23.38 6043.13,-19.64 6033.05,-16.38 6033.21,-23.38"/>
<text text-anchor="middle" x="4685.94" y="-57.8" font-family="Times,serif" font-size="14.00">previous</text>
</g>
<!-- http://purl.org/dj/kaggle/lists#562824294&#45;&gt;http://purl.org/dj/kaggle/lists -->
<g id="edge30" class="edge">
<title>http://purl.org/dj/kaggle/lists#562824294&#45;&gt;http://purl.org/dj/kaggle/lists</title>
<path fill="none" stroke="black" d="M4396.98,-91.96C4414.09,-90.07 4431.78,-88.32 4448.44,-87 5081.39,-36.95 5856.38,-22.33 6033.31,-19.54"/>
<polygon fill="black" stroke="black" points="6033.45,-23.04 6043.39,-19.38 6033.34,-16.04 6033.45,-23.04"/>
<text text-anchor="middle" x="4961.94" y="-57.8" font-family="Times,serif" font-size="14.00">previous</text>
</g>
<!-- http://purl.org/dj/kaggle/lists#87753036 -->
<g id="node12" class="node">
<title>http://purl.org/dj/kaggle/lists#87753036</title>
<ellipse fill="none" stroke="black" cx="6507.44" cy="-192" rx="126.98" ry="18"/>
<text text-anchor="middle" x="6507.44" y="-188.3" font-family="Times,serif" font-size="14.00">87753036 (t(0)$2: Visualisation)</text>
</g>
<!-- http://purl.org/dj/kaggle/lists#30212276 -->
<g id="node13" class="node">
<title>http://purl.org/dj/kaggle/lists#30212276</title>
<ellipse fill="none" stroke="black" cx="6230.44" cy="-105" rx="94.78" ry="18"/>
<text text-anchor="middle" x="6230.44" y="-101.3" font-family="Times,serif" font-size="14.00">30212276 (2(0): Reuse)</text>
</g>
<!-- http://purl.org/dj/kaggle/lists#87753036&#45;&gt;http://purl.org/dj/kaggle/lists#30212276 -->
<g id="edge15" class="edge">
<title>http://purl.org/dj/kaggle/lists#87753036&#45;&gt;http://purl.org/dj/kaggle/lists#30212276</title>
<path fill="none" stroke="black" d="M6456.64,-175.41C6408.9,-160.76 6337.56,-138.87 6287.8,-123.6"/>
<polygon fill="black" stroke="black" points="6288.74,-120.23 6278.15,-120.64 6286.68,-126.92 6288.74,-120.23"/>
<text text-anchor="middle" x="6409.94" y="-144.8" font-family="Times,serif" font-size="14.00">previous</text>
</g>
<!-- http://purl.org/dj/kaggle/lists#30474421 -->
<g id="node14" class="node">
<title>http://purl.org/dj/kaggle/lists#30474421</title>
<ellipse fill="none" stroke="black" cx="6438.44" cy="-105" rx="94.78" ry="18"/>
<text text-anchor="middle" x="6438.44" y="-101.3" font-family="Times,serif" font-size="14.00">30474421 (3(0): Reuse)</text>
</g>
<!-- http://purl.org/dj/kaggle/lists#87753036&#45;&gt;http://purl.org/dj/kaggle/lists#30474421 -->
<g id="edge16" class="edge">
<title>http://purl.org/dj/kaggle/lists#87753036&#45;&gt;http://purl.org/dj/kaggle/lists#30474421</title>
<path fill="none" stroke="black" d="M6493.48,-173.8C6483.5,-161.51 6469.92,-144.77 6458.74,-131.01"/>
<polygon fill="black" stroke="black" points="6461.17,-128.44 6452.15,-122.89 6455.74,-132.86 6461.17,-128.44"/>
<text text-anchor="middle" x="6500.94" y="-144.8" font-family="Times,serif" font-size="14.00">previous</text>
</g>
<!-- http://purl.org/dj/kaggle/lists#29950131 -->
<g id="node15" class="node">
<title>http://purl.org/dj/kaggle/lists#29950131</title>
<ellipse fill="none" stroke="black" cx="6646.44" cy="-105" rx="94.78" ry="18"/>
<text text-anchor="middle" x="6646.44" y="-101.3" font-family="Times,serif" font-size="14.00">29950131 (1(0): Reuse)</text>
</g>
<!-- http://purl.org/dj/kaggle/lists#87753036&#45;&gt;http://purl.org/dj/kaggle/lists#29950131 -->
<g id="edge17" class="edge">
<title>http://purl.org/dj/kaggle/lists#87753036&#45;&gt;http://purl.org/dj/kaggle/lists#29950131</title>
<path fill="none" stroke="black" d="M6534.57,-174.41C6556.29,-161.13 6586.93,-142.39 6610.66,-127.88"/>
<polygon fill="black" stroke="black" points="6612.68,-130.75 6619.38,-122.55 6609.02,-124.78 6612.68,-130.75"/>
<text text-anchor="middle" x="6608.94" y="-144.8" font-family="Times,serif" font-size="14.00">previous</text>
</g>
<!-- http://purl.org/dj/kaggle/lists#64815379 -->
<g id="node16" class="node">
<title>http://purl.org/dj/kaggle/lists#64815379</title>
<ellipse fill="none" stroke="black" cx="6863.44" cy="-105" rx="103.98" ry="18"/>
<text text-anchor="middle" x="6863.44" y="-101.3" font-family="Times,serif" font-size="14.00">64815379 (100(0): Reuse)</text>
</g>
<!-- http://purl.org/dj/kaggle/lists#87753036&#45;&gt;http://purl.org/dj/kaggle/lists#64815379 -->
<g id="edge18" class="edge">
<title>http://purl.org/dj/kaggle/lists#87753036&#45;&gt;http://purl.org/dj/kaggle/lists#64815379</title>
<path fill="none" stroke="black" d="M6569.45,-176.19C6632.55,-161.13 6730.09,-137.84 6795.31,-122.27"/>
<polygon fill="black" stroke="black" points="6796.18,-125.66 6805.09,-119.93 6794.55,-118.85 6796.18,-125.66"/>
<text text-anchor="middle" x="6730.94" y="-144.8" font-family="Times,serif" font-size="14.00">previous</text>
</g>
<!-- http://purl.org/dj/kaggle/lists#30212276&#45;&gt;http://purl.org/dj/kaggle/lists -->
<g id="edge19" class="edge">
<title>http://purl.org/dj/kaggle/lists#30212276&#45;&gt;http://purl.org/dj/kaggle/lists</title>
<path fill="none" stroke="black" d="M6199.97,-87.81C6171.3,-72.58 6128.63,-49.91 6100.19,-34.8"/>
<polygon fill="black" stroke="black" points="6101.61,-31.59 6091.14,-29.99 6098.32,-37.78 6101.61,-31.59"/>
<text text-anchor="middle" x="6183.94" y="-57.8" font-family="Times,serif" font-size="14.00">previous</text>
</g>
<!-- http://purl.org/dj/kaggle/lists#30474421&#45;&gt;http://purl.org/dj/kaggle/lists -->
<g id="edge20" class="edge">
<title>http://purl.org/dj/kaggle/lists#30474421&#45;&gt;http://purl.org/dj/kaggle/lists</title>
<path fill="none" stroke="black" d="M6380.54,-90.63C6303.27,-72.78 6168.84,-41.73 6105.44,-27.08"/>
<polygon fill="black" stroke="black" points="6106.06,-23.64 6095.53,-24.79 6104.49,-30.46 6106.06,-23.64"/>
<text text-anchor="middle" x="6300.94" y="-57.8" font-family="Times,serif" font-size="14.00">previous</text>
</g>
<!-- http://purl.org/dj/kaggle/lists#29950131&#45;&gt;http://purl.org/dj/kaggle/lists -->
<g id="edge21" class="edge">
<title>http://purl.org/dj/kaggle/lists#29950131&#45;&gt;http://purl.org/dj/kaggle/lists</title>
<path fill="none" stroke="black" d="M6577.37,-92.62C6565.71,-90.72 6553.74,-88.79 6542.44,-87 6447.4,-71.9 6423.68,-67.8 6328.44,-54 6249.51,-42.56 6156.82,-30.26 6106.83,-23.72"/>
<polygon fill="black" stroke="black" points="6107.2,-20.24 6096.84,-22.42 6106.3,-27.18 6107.2,-20.24"/>
<text text-anchor="middle" x="6451.94" y="-57.8" font-family="Times,serif" font-size="14.00">previous</text>
</g>
<!-- http://purl.org/dj/kaggle/lists#64815379&#45;&gt;http://purl.org/dj/kaggle/lists -->
<g id="edge22" class="edge">
<title>http://purl.org/dj/kaggle/lists#64815379&#45;&gt;http://purl.org/dj/kaggle/lists</title>
<path fill="none" stroke="black" d="M6788.72,-92.46C6775.96,-90.57 6762.83,-88.69 6750.44,-87 6630.22,-70.64 6600.13,-66.51 6479.44,-54 6342.57,-39.81 6179.49,-27.12 6107.61,-21.73"/>
<polygon fill="black" stroke="black" points="6107.51,-18.22 6097.27,-20.96 6106.98,-25.2 6107.51,-18.22"/>
<text text-anchor="middle" x="6634.94" y="-57.8" font-family="Times,serif" font-size="14.00">previous</text>
</g>
<!-- http://purl.org/dj/kaggle/lists#135070248 -->
<g id="node17" class="node">
<title>http://purl.org/dj/kaggle/lists#135070248</title>
<ellipse fill="none" stroke="black" cx="3543.44" cy="-192" rx="130.78" ry="18"/>
<text text-anchor="middle" x="3543.44" y="-188.3" font-family="Times,serif" font-size="14.00">135070248 (len[0]: Visualisation)</text>
</g>
<!-- http://purl.org/dj/kaggle/lists#135070248&#45;&gt;http://purl.org/dj/kaggle/lists#3870831856 -->
<g id="edge23" class="edge">
<title>http://purl.org/dj/kaggle/lists#135070248&#45;&gt;http://purl.org/dj/kaggle/lists#3870831856</title>
<path fill="none" stroke="black" d="M3435.47,-181.79C3293.25,-170.07 3035.3,-150.25 2814.44,-141 2289.95,-119.03 2158.29,-133.51 1633.44,-123 1565.28,-121.63 1493.32,-120.03 1422.66,-118.36"/>
<polygon fill="black" stroke="black" points="1422.32,-114.85 1412.24,-118.11 1422.16,-121.85 1422.32,-114.85"/>
<text text-anchor="middle" x="3098.94" y="-144.8" font-family="Times,serif" font-size="14.00">previous</text>
</g>
<!-- http://purl.org/dj/kaggle/lists#135070248&#45;&gt;http://purl.org/dj/kaggle/lists#2676107210 -->
<g id="edge24" class="edge">
<title>http://purl.org/dj/kaggle/lists#135070248&#45;&gt;http://purl.org/dj/kaggle/lists#2676107210</title>
<path fill="none" stroke="black" d="M3668.47,-186.76C3825.12,-181.15 4101.77,-170.29 4338.44,-156 4491.45,-146.76 4664.46,-133.33 4793.64,-122.71"/>
<polygon fill="black" stroke="black" points="4793.97,-126.2 4803.65,-121.89 4793.4,-119.22 4793.97,-126.2"/>
<text text-anchor="middle" x="4576.94" y="-144.8" font-family="Times,serif" font-size="14.00">previous</text>
</g>
<!-- http://purl.org/dj/kaggle/lists#135070248&#45;&gt;http://purl.org/dj/kaggle/lists#646341838 -->
<g id="edge25" class="edge">
<title>http://purl.org/dj/kaggle/lists#135070248&#45;&gt;http://purl.org/dj/kaggle/lists#646341838</title>
<path fill="none" stroke="black" d="M3525.18,-174.05C3511.5,-162.48 3491.72,-148.03 3471.44,-141 3449.85,-133.51 3417.66,-127.58 3379.35,-122.89"/>
<polygon fill="black" stroke="black" points="3379.28,-119.35 3368.93,-121.66 3378.46,-126.31 3379.28,-119.35"/>
<text text-anchor="middle" x="3522.94" y="-144.8" font-family="Times,serif" font-size="14.00">previous</text>
</g>
<!-- http://purl.org/dj/kaggle/lists#135070248&#45;&gt;http://purl.org/dj/kaggle/lists#562824294 -->
<g id="edge26" class="edge">
<title>http://purl.org/dj/kaggle/lists#135070248&#45;&gt;http://purl.org/dj/kaggle/lists#562824294</title>
<path fill="none" stroke="black" d="M3642.04,-180.18C3763,-166.88 3974.33,-143.53 4155.44,-123 4167.73,-121.61 4180.59,-120.14 4193.38,-118.67"/>
<polygon fill="black" stroke="black" points="4194.08,-122.11 4203.61,-117.49 4193.28,-115.16 4194.08,-122.11"/>
<text text-anchor="middle" x="4010.94" y="-144.8" font-family="Times,serif" font-size="14.00">previous</text>
</g>
<!-- http://purl.org/dj/kaggle/lists#3299816652 -->
<g id="node18" class="node">
<title>http://purl.org/dj/kaggle/lists#3299816652</title>
<ellipse fill="none" stroke="black" cx="7661.44" cy="-105" rx="675.88" ry="18"/>
<text text-anchor="middle" x="7661.44" y="-101.3" font-family="Times,serif" font-size="14.00">3299816652 ([&lt;_ast.Constant object at 0x12fadee50&gt;, &lt;_ast.Constant object at 0x12fade760&gt;, &lt;_ast.Constant object at 0x12fade9d0&gt;, &lt;_ast.Constant object at 0x12fadedf0&gt;](0): Reuse)</text>
</g>
<!-- http://purl.org/dj/kaggle/lists#3299816652&#45;&gt;http://purl.org/dj/kaggle/lists -->
<g id="edge31" class="edge">
<title>http://purl.org/dj/kaggle/lists#3299816652&#45;&gt;http://purl.org/dj/kaggle/lists</title>
<path fill="none" stroke="black" d="M7374.71,-88.68C6973.47,-67.24 6274.71,-29.91 6107.26,-20.97"/>
<polygon fill="black" stroke="black" points="6107.4,-17.47 6097.23,-20.43 6107.03,-24.46 6107.4,-17.47"/>
<text text-anchor="middle" x="6984.94" y="-57.8" font-family="Times,serif" font-size="14.00">previous</text>
</g>
<!-- http://purl.org/dj/kaggle/lists#61669663 -->
<g id="node19" class="node">
<title>http://purl.org/dj/kaggle/lists#61669663</title>
<ellipse fill="none" stroke="black" cx="5854.44" cy="-105" rx="97.48" ry="18"/>
<text text-anchor="middle" x="5854.44" y="-101.3" font-family="Times,serif" font-size="14.00">61669663 (3j(0): Reuse)</text>
</g>
<!-- http://purl.org/dj/kaggle/lists#61669663&#45;&gt;http://purl.org/dj/kaggle/lists -->
<g id="edge32" class="edge">
<title>http://purl.org/dj/kaggle/lists#61669663&#45;&gt;http://purl.org/dj/kaggle/lists</title>
<path fill="none" stroke="black" d="M5874.33,-87.18C5888.15,-76.27 5907.43,-62.55 5926.44,-54 5961.28,-38.33 6004.16,-29.06 6034.02,-24.04"/>
<polygon fill="black" stroke="black" points="6034.69,-27.48 6044.01,-22.44 6033.58,-20.57 6034.69,-27.48"/>
<text text-anchor="middle" x="5949.94" y="-57.8" font-family="Times,serif" font-size="14.00">previous</text>
</g>
<!-- http://purl.org/dj/kaggle/lists#113181048 -->
<g id="node20" class="node">
<title>http://purl.org/dj/kaggle/lists#113181048</title>
<ellipse fill="none" stroke="black" cx="6060.44" cy="-192" rx="115.08" ry="18"/>
<text text-anchor="middle" x="6060.44" y="-188.3" font-family="Times,serif" font-size="14.00">113181048 (0.125(0): Reuse)</text>
</g>
<!-- http://purl.org/dj/kaggle/lists#113181048&#45;&gt;http://purl.org/dj/kaggle/lists -->
<g id="edge33" class="edge">
<title>http://purl.org/dj/kaggle/lists#113181048&#45;&gt;http://purl.org/dj/kaggle/lists</title>
<path fill="none" stroke="black" d="M6061.44,-173.88C6063.18,-144 6066.77,-82.11 6068.86,-46.27"/>
<polygon fill="black" stroke="black" points="6072.37,-46.24 6069.45,-36.05 6065.38,-45.83 6072.37,-46.24"/>
<text text-anchor="middle" x="6089.94" y="-101.3" font-family="Times,serif" font-size="14.00">previous</text>
</g>
<!-- http://purl.org/dj/kaggle/lists#823407267 -->
<g id="node21" class="node">
<title>http://purl.org/dj/kaggle/lists#823407267</title>
<ellipse fill="none" stroke="black" cx="9031.44" cy="-105" rx="675.88" ry="18"/>
<text text-anchor="middle" x="9031.44" y="-101.3" font-family="Times,serif" font-size="14.00">823407267 ([&lt;_ast.Constant object at 0x106750af0&gt;, &lt;_ast.Constant object at 0x106750a90&gt;, &lt;_ast.Constant object at 0x12f989df0&gt;, &lt;_ast.Constant object at 0x12f989c70&gt;](0): Reuse)</text>
</g>
<!-- http://purl.org/dj/kaggle/lists#823407267&#45;&gt;http://purl.org/dj/kaggle/lists -->
<g id="edge34" class="edge">
<title>http://purl.org/dj/kaggle/lists#823407267&#45;&gt;http://purl.org/dj/kaggle/lists</title>
<path fill="none" stroke="black" d="M8590.55,-91.34C7837.47,-69.73 6359.85,-27.31 6107.51,-20.06"/>
<polygon fill="black" stroke="black" points="6107.5,-16.56 6097.4,-19.77 6107.3,-23.56 6107.5,-16.56"/>
<text text-anchor="middle" x="7751.94" y="-57.8" font-family="Times,serif" font-size="14.00">previous</text>
</g>
<!-- http://purl.org/dj/kaggle/lists#249692951 -->
<g id="node22" class="node">
<title>http://purl.org/dj/kaggle/lists#249692951</title>
<ellipse fill="none" stroke="black" cx="5867.44" cy="-300" rx="136.48" ry="18"/>
<text text-anchor="middle" x="5867.44" y="-296.3" font-family="Times,serif" font-size="14.00">249692951 (print[1]: Visualisation)</text>
</g>
<!-- http://purl.org/dj/kaggle/lists#249692951&#45;&gt;http://purl.org/dj/kaggle/lists#113181048 -->
<g id="edge35" class="edge">
<title>http://purl.org/dj/kaggle/lists#249692951&#45;&gt;http://purl.org/dj/kaggle/lists#113181048</title>
<path fill="none" stroke="black" d="M5897.6,-282.44C5931.03,-264.08 5985.03,-234.42 6021.6,-214.33"/>
<polygon fill="black" stroke="black" points="6023.42,-217.33 6030.5,-209.45 6020.05,-211.19 6023.42,-217.33"/>
<text text-anchor="middle" x="6016.94" y="-242.3" font-family="Times,serif" font-size="14.00">previous</text>
</g>
<!-- http://purl.org/dj/kaggle/lists#29687986 -->
<g id="node23" class="node">
<title>http://purl.org/dj/kaggle/lists#29687986</title>
<ellipse fill="none" stroke="black" cx="5832.44" cy="-192" rx="94.78" ry="18"/>
<text text-anchor="middle" x="5832.44" y="-188.3" font-family="Times,serif" font-size="14.00">29687986 (0(0): Reuse)</text>
</g>
<!-- http://purl.org/dj/kaggle/lists#249692951&#45;&gt;http://purl.org/dj/kaggle/lists#29687986 -->
<g id="edge36" class="edge">
<title>http://purl.org/dj/kaggle/lists#249692951&#45;&gt;http://purl.org/dj/kaggle/lists#29687986</title>
<path fill="none" stroke="black" d="M5861.82,-281.97C5856.26,-265.12 5847.67,-239.1 5841.21,-219.54"/>
<polygon fill="black" stroke="black" points="5844.51,-218.39 5838.05,-209.99 5837.86,-220.58 5844.51,-218.39"/>
<text text-anchor="middle" x="5878.94" y="-242.3" font-family="Times,serif" font-size="14.00">previous</text>
</g>
<!-- http://purl.org/dj/kaggle/lists#29687986&#45;&gt;http://purl.org/dj/kaggle/lists -->
<g id="edge37" class="edge">
<title>http://purl.org/dj/kaggle/lists#29687986&#45;&gt;http://purl.org/dj/kaggle/lists</title>
<path fill="none" stroke="black" d="M5868.16,-175.22C5894.7,-162.75 5931.22,-143.99 5960.44,-123 5994.81,-98.31 6029.46,-63.54 6050.45,-41.13"/>
<polygon fill="black" stroke="black" points="6053.05,-43.47 6057.27,-33.76 6047.91,-38.72 6053.05,-43.47"/>
<text text-anchor="middle" x="6026.94" y="-101.3" font-family="Times,serif" font-size="14.00">previous</text>
</g>
<!-- http://purl.org/dj/kaggle/lists#3610125585 -->
<g id="node24" class="node">
<title>http://purl.org/dj/kaggle/lists#3610125585</title>
<ellipse fill="none" stroke="black" cx="10250.44" cy="-105" rx="525.31" ry="18"/>
<text text-anchor="middle" x="10250.44" y="-101.3" font-family="Times,serif" font-size="14.00">3610125585 ([&lt;_ast.Constant object at 0x12f8ab8b0&gt;, &lt;_ast.Constant object at 0x12f8ab430&gt;, &lt;_ast.Name object at 0x12f8ab040&gt;](0): Reuse)</text>
</g>
<!-- http://purl.org/dj/kaggle/lists#3610125585&#45;&gt;http://purl.org/dj/kaggle/lists -->
<g id="edge38" class="edge">
<title>http://purl.org/dj/kaggle/lists#3610125585&#45;&gt;http://purl.org/dj/kaggle/lists</title>
<path fill="none" stroke="black" d="M9890.33,-91.89C9832.2,-90.12 9772.66,-88.42 9716.44,-87 8225.37,-49.36 6390.8,-23.41 6107.82,-19.51"/>
<polygon fill="black" stroke="black" points="6107.73,-16.01 6097.68,-19.37 6107.63,-23.01 6107.73,-16.01"/>
<text text-anchor="middle" x="8941.94" y="-57.8" font-family="Times,serif" font-size="14.00">previous</text>
</g>
<!-- http://purl.org/dj/kaggle/lists#249561878 -->
<g id="node25" class="node">
<title>http://purl.org/dj/kaggle/lists#249561878</title>
<ellipse fill="none" stroke="black" cx="5347.44" cy="-300" rx="136.48" ry="18"/>
<text text-anchor="middle" x="5347.44" y="-296.3" font-family="Times,serif" font-size="14.00">249561878 (print[0]: Visualisation)</text>
</g>
<!-- http://purl.org/dj/kaggle/lists#249561878&#45;&gt;http://purl.org/dj/kaggle/lists#46334181 -->
<g id="edge39" class="edge">
<title>http://purl.org/dj/kaggle/lists#249561878&#45;&gt;http://purl.org/dj/kaggle/lists#46334181</title>
<path fill="none" stroke="black" d="M5342.94,-281.71C5337.16,-255.19 5330.69,-204.37 5356.44,-174 5369.82,-158.22 5481.87,-134.81 5560.89,-119.98"/>
<polygon fill="black" stroke="black" points="5561.65,-123.4 5570.84,-118.13 5560.37,-116.52 5561.65,-123.4"/>
<text text-anchor="middle" x="5379.94" y="-188.3" font-family="Times,serif" font-size="14.00">previous</text>
</g>
<!-- http://purl.org/dj/kaggle/lists#249561878&#45;&gt;http://purl.org/dj/kaggle/lists#2676107210 -->
<g id="edge40" class="edge">
<title>http://purl.org/dj/kaggle/lists#249561878&#45;&gt;http://purl.org/dj/kaggle/lists#2676107210</title>
<path fill="none" stroke="black" d="M5316.61,-282.38C5251.96,-247.52 5102.22,-166.8 5029.93,-127.83"/>
<polygon fill="black" stroke="black" points="5031.56,-124.73 5021.1,-123.06 5028.24,-130.89 5031.56,-124.73"/>
<text text-anchor="middle" x="5203.94" y="-188.3" font-family="Times,serif" font-size="14.00">previous</text>
</g>
<!-- http://purl.org/dj/kaggle/lists#249561878&#45;&gt;http://purl.org/dj/kaggle/lists#646341838 -->
<g id="edge41" class="edge">
<title>http://purl.org/dj/kaggle/lists#249561878&#45;&gt;http://purl.org/dj/kaggle/lists#646341838</title>
<path fill="none" stroke="black" d="M5213.95,-296.11C4828.26,-287.28 3716.97,-258.25 3356.44,-210 3215.46,-191.13 3054.02,-150.26 2964.17,-125.75"/>
<polygon fill="black" stroke="black" points="2964.94,-122.33 2954.37,-123.07 2963.09,-129.09 2964.94,-122.33"/>
<text text-anchor="middle" x="3379.94" y="-188.3" font-family="Times,serif" font-size="14.00">previous</text>
</g>
<!-- http://purl.org/dj/kaggle/lists#249561878&#45;&gt;http://purl.org/dj/kaggle/lists#562824294 -->
<g id="edge42" class="edge">
<title>http://purl.org/dj/kaggle/lists#249561878&#45;&gt;http://purl.org/dj/kaggle/lists#562824294</title>
<path fill="none" stroke="black" d="M5272.81,-284.92C5125.04,-257.09 4784.77,-193.21 4498.44,-141 4463.31,-134.59 4424.61,-127.66 4390.95,-121.66"/>
<polygon fill="black" stroke="black" points="4391.13,-118.14 4380.67,-119.84 4389.91,-125.03 4391.13,-118.14"/>
<text text-anchor="middle" x="4884.94" y="-188.3" font-family="Times,serif" font-size="14.00">previous</text>
</g>
<!-- http://purl.org/dj/kaggle/lists#249561878&#45;&gt;http://purl.org/dj/kaggle/lists#113181048 -->
<g id="edge43" class="edge">
<title>http://purl.org/dj/kaggle/lists#249561878&#45;&gt;http://purl.org/dj/kaggle/lists#113181048</title>
<path fill="none" stroke="black" d="M5475.79,-293.69C5569.77,-288.62 5688.72,-279.43 5735.44,-264 5764.61,-254.37 5765.45,-238.16 5794.44,-228 5854.48,-206.97 5873.37,-218.32 5936.44,-210 5946.48,-208.68 5956.98,-207.27 5967.43,-205.86"/>
<polygon fill="black" stroke="black" points="5967.98,-209.31 5977.42,-204.5 5967.04,-202.38 5967.98,-209.31"/>
<text text-anchor="middle" x="5817.94" y="-242.3" font-family="Times,serif" font-size="14.00">previous</text>
</g>
<!-- http://purl.org/dj/kaggle/lists#249561878&#45;&gt;http://purl.org/dj/kaggle/lists#29687986 -->
<g id="edge44" class="edge">
<title>http://purl.org/dj/kaggle/lists#249561878&#45;&gt;http://purl.org/dj/kaggle/lists#29687986</title>
<path fill="none" stroke="black" d="M5428.2,-285.48C5457.51,-279.84 5490.71,-272.58 5520.44,-264 5563.83,-251.48 5571.82,-239.65 5615.44,-228 5656.73,-216.97 5703.43,-208.89 5742.9,-203.29"/>
<polygon fill="black" stroke="black" points="5743.61,-206.73 5753.04,-201.89 5742.65,-199.79 5743.61,-206.73"/>
<text text-anchor="middle" x="5638.94" y="-242.3" font-family="Times,serif" font-size="14.00">previous</text>
</g>
<!-- http://purl.org/dj/kaggle/lists#80937273 -->
<g id="node26" class="node">
<title>http://purl.org/dj/kaggle/lists#80937273</title>
<ellipse fill="none" stroke="black" cx="5534.44" cy="-192" rx="122.38" ry="18"/>
<text text-anchor="middle" x="5534.44" y="-188.3" font-family="Times,serif" font-size="14.00">80937273 (c(0)$0: Preparation)</text>
</g>
<!-- http://purl.org/dj/kaggle/lists#249561878&#45;&gt;http://purl.org/dj/kaggle/lists#80937273 -->
<g id="edge45" class="edge">
<title>http://purl.org/dj/kaggle/lists#249561878&#45;&gt;http://purl.org/dj/kaggle/lists#80937273</title>
<path fill="none" stroke="black" d="M5377.07,-282.2C5409.31,-263.93 5460.95,-234.66 5496.22,-214.67"/>
<polygon fill="black" stroke="black" points="5498.29,-217.52 5505.26,-209.54 5494.83,-211.43 5498.29,-217.52"/>
<text text-anchor="middle" x="5492.94" y="-242.3" font-family="Times,serif" font-size="14.00">previous</text>
</g>
<!-- http://purl.org/dj/kaggle/lists#80937273&#45;&gt;http://purl.org/dj/kaggle/lists#46334181 -->
<g id="edge46" class="edge">
<title>http://purl.org/dj/kaggle/lists#80937273&#45;&gt;http://purl.org/dj/kaggle/lists#46334181</title>
<path fill="none" stroke="black" d="M5535.41,-173.84C5536.86,-163.21 5540.31,-149.93 5548.44,-141 5554.72,-134.1 5562.51,-128.56 5570.86,-124.09"/>
<polygon fill="black" stroke="black" points="5572.6,-127.14 5580.11,-119.67 5569.58,-120.83 5572.6,-127.14"/>
<text text-anchor="middle" x="5571.94" y="-144.8" font-family="Times,serif" font-size="14.00">previous</text>
</g>
<!-- http://purl.org/dj/kaggle/lists#80937273&#45;&gt;http://purl.org/dj/kaggle/lists#61669663 -->
<g id="edge47" class="edge">
<title>http://purl.org/dj/kaggle/lists#80937273&#45;&gt;http://purl.org/dj/kaggle/lists#61669663</title>
<path fill="none" stroke="black" d="M5590.92,-176C5647.06,-161.09 5733,-138.26 5791.35,-122.76"/>
<polygon fill="black" stroke="black" points="5792.43,-126.09 5801.19,-120.14 5790.63,-119.33 5792.43,-126.09"/>
<text text-anchor="middle" x="5737.94" y="-144.8" font-family="Times,serif" font-size="14.00">previous</text>
</g>
<!-- http://purl.org/dj/kaggle/lists#1404313910 -->
<g id="node27" class="node">
<title>http://purl.org/dj/kaggle/lists#1404313910</title>
<ellipse fill="none" stroke="black" cx="11275.44" cy="-105" rx="482.01" ry="18"/>
<text text-anchor="middle" x="11275.44" y="-101.3" font-family="Times,serif" font-size="14.00">1404313910 ([&lt;_ast.List object at 0x12f989e80&gt;, &lt;_ast.List object at 0x12f989e20&gt;, &lt;_ast.List object at 0x12f841e20&gt;](0): Reuse)</text>
</g>
<!-- http://purl.org/dj/kaggle/lists#1404313910&#45;&gt;http://purl.org/dj/kaggle/lists -->
<g id="edge48" class="edge">
<title>http://purl.org/dj/kaggle/lists#1404313910&#45;&gt;http://purl.org/dj/kaggle/lists</title>
<path fill="none" stroke="black" d="M10945.99,-91.85C10892.01,-90.07 10836.67,-88.38 10784.44,-87 8836.74,-35.58 6435.27,-20.99 6108.01,-19.2"/>
<polygon fill="black" stroke="black" points="6107.68,-15.7 6097.66,-19.14 6107.65,-22.7 6107.68,-15.7"/>
<text text-anchor="middle" x="10036.94" y="-57.8" font-family="Times,serif" font-size="14.00">previous</text>
</g>
<!-- http://purl.org/dj/kaggle/lists#1817911802 -->
<g id="node28" class="node">
<title>http://purl.org/dj/kaggle/lists#1817911802</title>
<ellipse fill="none" stroke="black" cx="12256.44" cy="-105" rx="480.91" ry="18"/>
<text text-anchor="middle" x="12256.44" y="-101.3" font-family="Times,serif" font-size="14.00">1817911802 ([&lt;_ast.List object at 0x12f8ab310&gt;, &lt;_ast.List object at 0x12f8ab1c0&gt;, &lt;_ast.List object at 0x12f8aba60&gt;](0): Reuse)</text>
</g>
<!-- http://purl.org/dj/kaggle/lists#1817911802&#45;&gt;http://purl.org/dj/kaggle/lists -->
<g id="edge49" class="edge">
<title>http://purl.org/dj/kaggle/lists#1817911802&#45;&gt;http://purl.org/dj/kaggle/lists</title>
<path fill="none" stroke="black" d="M11927,-91.88C11873.34,-90.1 11818.35,-88.4 11766.44,-87 11010.13,-66.55 10820.96,-64.65 10064.44,-54 8424.97,-30.92 6406.72,-20.62 6108.07,-19.18"/>
<polygon fill="black" stroke="black" points="6107.81,-15.68 6097.79,-19.13 6107.77,-22.68 6107.81,-15.68"/>
<text text-anchor="middle" x="11024.94" y="-57.8" font-family="Times,serif" font-size="14.00">previous</text>
</g>
</g>
</svg>
