<?xml version="1.0" encoding="UTF-8" standalone="no"?>
<!DOCTYPE svg PUBLIC "-//W3C//DTD SVG 1.1//EN"
 "http://www.w3.org/Graphics/SVG/1.1/DTD/svg11.dtd">
<!-- Generated by graphviz version 2.47.1 (20210417.1919)
 -->
<!-- Pages: 1 -->
<svg width="1717pt" height="869pt"
 viewBox="0.00 0.00 1716.84 869.00" xmlns="http://www.w3.org/2000/svg" xmlns:xlink="http://www.w3.org/1999/xlink">
<g id="graph0" class="graph" transform="scale(1 1) rotate(0) translate(4 865)">
<polygon fill="white" stroke="transparent" points="-4,4 -4,-865 1712.84,-865 1712.84,4 -4,4"/>
<!-- http://purl.org/dj/kaggle/logistic&#45;regression&#45;implementation/activity/&#45;7020277644282617283 -->
<g id="node1" class="node">
<title>http://purl.org/dj/kaggle/logistic&#45;regression&#45;implementation/activity/&#45;7020277644282617283</title>
<ellipse fill="none" stroke="black" cx="1379" cy="-453" rx="145.67" ry="18"/>
<text text-anchor="middle" x="1379" y="-449.3" font-family="Times,serif" font-size="14.00">&#45;7020277644282617283 (Preparation)</text>
</g>
<!-- http://purl.org/dj/kaggle/logistic&#45;regression&#45;implementation/activity/2202249275847071630 -->
<g id="node2" class="node">
<title>http://purl.org/dj/kaggle/logistic&#45;regression&#45;implementation/activity/2202249275847071630</title>
<ellipse fill="none" stroke="black" cx="465" cy="-366" rx="124.28" ry="18"/>
<text text-anchor="middle" x="465" y="-362.3" font-family="Times,serif" font-size="14.00">2202249275847071630 (Reuse)</text>
</g>
<!-- http://purl.org/dj/kaggle/logistic&#45;regression&#45;implementation/activity/&#45;7020277644282617283&#45;&gt;http://purl.org/dj/kaggle/logistic&#45;regression&#45;implementation/activity/2202249275847071630 -->
<g id="edge1" class="edge">
<title>http://purl.org/dj/kaggle/logistic&#45;regression&#45;implementation/activity/&#45;7020277644282617283&#45;&gt;http://purl.org/dj/kaggle/logistic&#45;regression&#45;implementation/activity/2202249275847071630</title>
<path fill="none" stroke="black" d="M1275.23,-440.33C1258.12,-438.49 1240.57,-436.65 1224,-435 995.74,-412.26 728.49,-389.13 579.79,-376.57"/>
<polygon fill="black" stroke="black" points="579.99,-373.07 569.73,-375.72 579.4,-380.05 579.99,-373.07"/>
<text text-anchor="middle" x="1059.5" y="-405.8" font-family="Times,serif" font-size="14.00">previous</text>
</g>
<!-- http://purl.org/dj/kaggle/logistic&#45;regression&#45;implementation -->
<g id="node3" class="node">
<title>http://purl.org/dj/kaggle/logistic&#45;regression&#45;implementation</title>
<ellipse fill="none" stroke="black" cx="290" cy="-18" rx="289.45" ry="18"/>
<text text-anchor="middle" x="290" y="-14.3" font-family="Times,serif" font-size="14.00">logistic&#45;regression&#45;implementation (logistic&#45;regression&#45;implementation.ipynb)</text>
</g>
<!-- http://purl.org/dj/kaggle/logistic&#45;regression&#45;implementation/activity/2202249275847071630&#45;&gt;http://purl.org/dj/kaggle/logistic&#45;regression&#45;implementation -->
<g id="edge2" class="edge">
<title>http://purl.org/dj/kaggle/logistic&#45;regression&#45;implementation/activity/2202249275847071630&#45;&gt;http://purl.org/dj/kaggle/logistic&#45;regression&#45;implementation</title>
<path fill="none" stroke="black" d="M362.23,-355.78C317.02,-345.48 274,-324.1 274,-280 274,-280 274,-280 274,-104 274,-84.41 278.15,-62.72 282.23,-46.15"/>
<polygon fill="black" stroke="black" points="285.72,-46.64 284.85,-36.08 278.94,-44.88 285.72,-46.64"/>
<text text-anchor="middle" x="297.5" y="-188.3" font-family="Times,serif" font-size="14.00">previous</text>
</g>
<!-- http://purl.org/dj/kaggle/logistic&#45;regression&#45;implementation/activity/&#45;606204539183987606 -->
<g id="node4" class="node">
<title>http://purl.org/dj/kaggle/logistic&#45;regression&#45;implementation/activity/&#45;606204539183987606</title>
<ellipse fill="none" stroke="black" cx="656" cy="-279" rx="141.88" ry="18"/>
<text text-anchor="middle" x="656" y="-275.3" font-family="Times,serif" font-size="14.00">&#45;606204539183987606 (Preparation)</text>
</g>
<!-- http://purl.org/dj/kaggle/logistic&#45;regression&#45;implementation/activity/2202249275847071630&#45;&gt;http://purl.org/dj/kaggle/logistic&#45;regression&#45;implementation/activity/&#45;606204539183987606 -->
<g id="edge3" class="edge">
<title>http://purl.org/dj/kaggle/logistic&#45;regression&#45;implementation/activity/2202249275847071630&#45;&gt;http://purl.org/dj/kaggle/logistic&#45;regression&#45;implementation/activity/&#45;606204539183987606</title>
<path fill="none" stroke="black" d="M494.36,-348.47C513.13,-338.21 538.14,-325.11 561,-315 573.17,-309.62 586.45,-304.36 599.12,-299.62"/>
<polygon fill="black" stroke="black" points="600.48,-302.84 608.66,-296.1 598.06,-296.27 600.48,-302.84"/>
<text text-anchor="middle" x="584.5" y="-318.8" font-family="Times,serif" font-size="14.00">previous</text>
</g>
<!-- http://purl.org/dj/kaggle/logistic&#45;regression&#45;implementation/activity/&#45;606204539183987606&#45;&gt;http://purl.org/dj/kaggle/logistic&#45;regression&#45;implementation/activity/2202249275847071630 -->
<g id="edge4" class="edge">
<title>http://purl.org/dj/kaggle/logistic&#45;regression&#45;implementation/activity/&#45;606204539183987606&#45;&gt;http://purl.org/dj/kaggle/logistic&#45;regression&#45;implementation/activity/2202249275847071630</title>
<path fill="none" stroke="black" d="M643.59,-297.27C634.84,-308.23 622.18,-321.83 608,-330 593.1,-338.59 576.15,-345.08 559.26,-349.99"/>
<polygon fill="black" stroke="black" points="558.07,-346.68 549.34,-352.69 559.91,-353.44 558.07,-346.68"/>
<text text-anchor="middle" x="651.5" y="-318.8" font-family="Times,serif" font-size="14.00">previous</text>
</g>
<!-- http://purl.org/dj/kaggle/logistic&#45;regression&#45;implementation/activity/&#45;316049885017593643 -->
<g id="node5" class="node">
<title>http://purl.org/dj/kaggle/logistic&#45;regression&#45;implementation/activity/&#45;316049885017593643</title>
<ellipse fill="none" stroke="black" cx="555" cy="-192" rx="139.98" ry="18"/>
<text text-anchor="middle" x="555" y="-188.3" font-family="Times,serif" font-size="14.00">&#45;316049885017593643 (Movement)</text>
</g>
<!-- http://purl.org/dj/kaggle/logistic&#45;regression&#45;implementation/activity/&#45;606204539183987606&#45;&gt;http://purl.org/dj/kaggle/logistic&#45;regression&#45;implementation/activity/&#45;316049885017593643 -->
<g id="edge5" class="edge">
<title>http://purl.org/dj/kaggle/logistic&#45;regression&#45;implementation/activity/&#45;606204539183987606&#45;&gt;http://purl.org/dj/kaggle/logistic&#45;regression&#45;implementation/activity/&#45;316049885017593643</title>
<path fill="none" stroke="black" d="M635.56,-260.8C620.4,-248.04 599.56,-230.5 582.88,-216.46"/>
<polygon fill="black" stroke="black" points="584.97,-213.65 575.06,-209.89 580.46,-219 584.97,-213.65"/>
<text text-anchor="middle" x="635.5" y="-231.8" font-family="Times,serif" font-size="14.00">previous</text>
</g>
<!-- http://purl.org/dj/kaggle/logistic&#45;regression&#45;implementation/activity/&#45;316049885017593643&#45;&gt;http://purl.org/dj/kaggle/logistic&#45;regression&#45;implementation/activity/2202249275847071630 -->
<g id="edge31" class="edge">
<title>http://purl.org/dj/kaggle/logistic&#45;regression&#45;implementation/activity/&#45;316049885017593643&#45;&gt;http://purl.org/dj/kaggle/logistic&#45;regression&#45;implementation/activity/2202249275847071630</title>
<path fill="none" stroke="black" d="M515.61,-209.48C494.4,-220.65 470.15,-237.65 458,-261 445.6,-284.84 449.94,-316.01 455.77,-337.99"/>
<polygon fill="black" stroke="black" points="452.44,-339.05 458.59,-347.68 459.16,-337.1 452.44,-339.05"/>
<text text-anchor="middle" x="481.5" y="-275.3" font-family="Times,serif" font-size="14.00">previous</text>
</g>
<!-- http://purl.org/dj/kaggle/logistic&#45;regression&#45;implementation/activity/&#45;1228967289733457155 -->
<g id="node7" class="node">
<title>http://purl.org/dj/kaggle/logistic&#45;regression&#45;implementation/activity/&#45;1228967289733457155</title>
<ellipse fill="none" stroke="black" cx="448" cy="-105" rx="145.67" ry="18"/>
<text text-anchor="middle" x="448" y="-101.3" font-family="Times,serif" font-size="14.00">&#45;1228967289733457155 (Preparation)</text>
</g>
<!-- http://purl.org/dj/kaggle/logistic&#45;regression&#45;implementation/activity/&#45;316049885017593643&#45;&gt;http://purl.org/dj/kaggle/logistic&#45;regression&#45;implementation/activity/&#45;1228967289733457155 -->
<g id="edge32" class="edge">
<title>http://purl.org/dj/kaggle/logistic&#45;regression&#45;implementation/activity/&#45;316049885017593643&#45;&gt;http://purl.org/dj/kaggle/logistic&#45;regression&#45;implementation/activity/&#45;1228967289733457155</title>
<path fill="none" stroke="black" d="M533.86,-174.21C517.7,-161.37 495.23,-143.52 477.33,-129.3"/>
<polygon fill="black" stroke="black" points="479.47,-126.53 469.46,-123.05 475.12,-132.01 479.47,-126.53"/>
<text text-anchor="middle" x="531.5" y="-144.8" font-family="Times,serif" font-size="14.00">previous</text>
</g>
<!-- http://purl.org/dj/kaggle/logistic&#45;regression&#45;implementation/activity/&#45;895659670910509767 -->
<g id="node6" class="node">
<title>http://purl.org/dj/kaggle/logistic&#45;regression&#45;implementation/activity/&#45;895659670910509767</title>
<ellipse fill="none" stroke="black" cx="1261" cy="-540" rx="122.38" ry="18"/>
<text text-anchor="middle" x="1261" y="-536.3" font-family="Times,serif" font-size="14.00">&#45;895659670910509767 (Reuse)</text>
</g>
<!-- http://purl.org/dj/kaggle/logistic&#45;regression&#45;implementation/activity/&#45;895659670910509767&#45;&gt;http://purl.org/dj/kaggle/logistic&#45;regression&#45;implementation/activity/&#45;7020277644282617283 -->
<g id="edge6" class="edge">
<title>http://purl.org/dj/kaggle/logistic&#45;regression&#45;implementation/activity/&#45;895659670910509767&#45;&gt;http://purl.org/dj/kaggle/logistic&#45;regression&#45;implementation/activity/&#45;7020277644282617283</title>
<path fill="none" stroke="black" d="M1284.31,-522.21C1302.3,-509.25 1327.37,-491.19 1347.19,-476.91"/>
<polygon fill="black" stroke="black" points="1349.26,-479.73 1355.33,-471.05 1345.17,-474.05 1349.26,-479.73"/>
<text text-anchor="middle" x="1350.5" y="-492.8" font-family="Times,serif" font-size="14.00">previous</text>
</g>
<!-- http://purl.org/dj/kaggle/logistic&#45;regression&#45;implementation/activity/&#45;1228967289733457155&#45;&gt;http://purl.org/dj/kaggle/logistic&#45;regression&#45;implementation/activity/2202249275847071630 -->
<g id="edge7" class="edge">
<title>http://purl.org/dj/kaggle/logistic&#45;regression&#45;implementation/activity/&#45;1228967289733457155&#45;&gt;http://purl.org/dj/kaggle/logistic&#45;regression&#45;implementation/activity/2202249275847071630</title>
<path fill="none" stroke="black" d="M433.63,-123.17C423.72,-136.2 411.38,-155.05 406,-174 401.63,-189.39 403.32,-194.23 406,-210 414.05,-257.39 436.69,-308.88 451.47,-338.98"/>
<polygon fill="black" stroke="black" points="448.36,-340.58 455.96,-347.96 454.62,-337.45 448.36,-340.58"/>
<text text-anchor="middle" x="437.5" y="-231.8" font-family="Times,serif" font-size="14.00">previous</text>
</g>
<!-- http://purl.org/dj/kaggle/logistic&#45;regression&#45;implementation/activity/&#45;1228967289733457155&#45;&gt;http://purl.org/dj/kaggle/logistic&#45;regression&#45;implementation -->
<g id="edge8" class="edge">
<title>http://purl.org/dj/kaggle/logistic&#45;regression&#45;implementation/activity/&#45;1228967289733457155&#45;&gt;http://purl.org/dj/kaggle/logistic&#45;regression&#45;implementation</title>
<path fill="none" stroke="black" d="M416.78,-87.21C392.09,-73.92 357.41,-55.26 330.56,-40.82"/>
<polygon fill="black" stroke="black" points="331.89,-37.56 321.42,-35.9 328.57,-43.72 331.89,-37.56"/>
<text text-anchor="middle" x="402.5" y="-57.8" font-family="Times,serif" font-size="14.00">previous</text>
</g>
<!-- http://purl.org/dj/kaggle/logistic&#45;regression&#45;implementation/activity/&#45;6420389718454575887 -->
<g id="node8" class="node">
<title>http://purl.org/dj/kaggle/logistic&#45;regression&#45;implementation/activity/&#45;6420389718454575887</title>
<ellipse fill="none" stroke="black" cx="407" cy="-843" rx="151.37" ry="18"/>
<text text-anchor="middle" x="407" y="-839.3" font-family="Times,serif" font-size="14.00">&#45;6420389718454575887 (Visualisation)</text>
</g>
<!-- http://purl.org/dj/kaggle/logistic&#45;regression&#45;implementation/activity/&#45;6420389718454575887&#45;&gt;http://purl.org/dj/kaggle/logistic&#45;regression&#45;implementation/activity/2202249275847071630 -->
<g id="edge9" class="edge">
<title>http://purl.org/dj/kaggle/logistic&#45;regression&#45;implementation/activity/&#45;6420389718454575887&#45;&gt;http://purl.org/dj/kaggle/logistic&#45;regression&#45;implementation/activity/2202249275847071630</title>
<path fill="none" stroke="black" d="M280.54,-832.99C186.71,-822.7 75,-801.18 75,-757 75,-757 75,-757 75,-452 75,-397.77 220.8,-378.08 334.11,-370.96"/>
<polygon fill="black" stroke="black" points="334.5,-374.44 344.27,-370.35 334.08,-367.46 334.5,-374.44"/>
<text text-anchor="middle" x="98.5" y="-590.3" font-family="Times,serif" font-size="14.00">previous</text>
</g>
<!-- http://purl.org/dj/kaggle/logistic&#45;regression&#45;implementation/activity/&#45;6420389718454575887&#45;&gt;http://purl.org/dj/kaggle/logistic&#45;regression&#45;implementation/activity/&#45;1228967289733457155 -->
<g id="edge10" class="edge">
<title>http://purl.org/dj/kaggle/logistic&#45;regression&#45;implementation/activity/&#45;6420389718454575887&#45;&gt;http://purl.org/dj/kaggle/logistic&#45;regression&#45;implementation/activity/&#45;1228967289733457155</title>
<path fill="none" stroke="black" d="M260.35,-838.49C143.72,-831.57 0,-811.91 0,-757 0,-757 0,-757 0,-191 0,-129.85 163.12,-111.55 292.51,-106.65"/>
<polygon fill="black" stroke="black" points="292.68,-110.15 302.55,-106.3 292.43,-103.15 292.68,-110.15"/>
<text text-anchor="middle" x="23.5" y="-449.3" font-family="Times,serif" font-size="14.00">previous</text>
</g>
<!-- http://purl.org/dj/kaggle/logistic&#45;regression&#45;implementation/activity/2101964939034861928 -->
<g id="node9" class="node">
<title>http://purl.org/dj/kaggle/logistic&#45;regression&#45;implementation/activity/2101964939034861928</title>
<ellipse fill="none" stroke="black" cx="1189" cy="-756" rx="124.28" ry="18"/>
<text text-anchor="middle" x="1189" y="-752.3" font-family="Times,serif" font-size="14.00">2101964939034861928 (Reuse)</text>
</g>
<!-- http://purl.org/dj/kaggle/logistic&#45;regression&#45;implementation/activity/&#45;6420389718454575887&#45;&gt;http://purl.org/dj/kaggle/logistic&#45;regression&#45;implementation/activity/2101964939034861928 -->
<g id="edge11" class="edge">
<title>http://purl.org/dj/kaggle/logistic&#45;regression&#45;implementation/activity/&#45;6420389718454575887&#45;&gt;http://purl.org/dj/kaggle/logistic&#45;regression&#45;implementation/activity/2101964939034861928</title>
<path fill="none" stroke="black" d="M558.65,-842.5C682.07,-840.69 860.36,-833.05 1014,-807 1054.97,-800.05 1100.03,-787.05 1134.17,-776.04"/>
<polygon fill="black" stroke="black" points="1135.53,-779.28 1143.94,-772.85 1133.35,-772.63 1135.53,-779.28"/>
<text text-anchor="middle" x="1100.5" y="-795.8" font-family="Times,serif" font-size="14.00">previous</text>
</g>
<!-- http://purl.org/dj/kaggle/logistic&#45;regression&#45;implementation/activity/&#45;5442981714418956551 -->
<g id="node10" class="node">
<title>http://purl.org/dj/kaggle/logistic&#45;regression&#45;implementation/activity/&#45;5442981714418956551</title>
<ellipse fill="none" stroke="black" cx="583" cy="-756" rx="126.98" ry="18"/>
<text text-anchor="middle" x="583" y="-752.3" font-family="Times,serif" font-size="14.00">&#45;5442981714418956551 (Reuse)</text>
</g>
<!-- http://purl.org/dj/kaggle/logistic&#45;regression&#45;implementation/activity/&#45;6420389718454575887&#45;&gt;http://purl.org/dj/kaggle/logistic&#45;regression&#45;implementation/activity/&#45;5442981714418956551 -->
<g id="edge12" class="edge">
<title>http://purl.org/dj/kaggle/logistic&#45;regression&#45;implementation/activity/&#45;6420389718454575887&#45;&gt;http://purl.org/dj/kaggle/logistic&#45;regression&#45;implementation/activity/&#45;5442981714418956551</title>
<path fill="none" stroke="black" d="M441.35,-825.41C469.55,-811.79 509.62,-792.44 539.96,-777.79"/>
<polygon fill="black" stroke="black" points="541.55,-780.9 549.03,-773.4 538.51,-774.6 541.55,-780.9"/>
<text text-anchor="middle" x="529.5" y="-795.8" font-family="Times,serif" font-size="14.00">previous</text>
</g>
<!-- http://purl.org/dj/kaggle/logistic&#45;regression&#45;implementation/activity/666141621068611900 -->
<g id="node11" class="node">
<title>http://purl.org/dj/kaggle/logistic&#45;regression&#45;implementation/activity/666141621068611900</title>
<ellipse fill="none" stroke="black" cx="1189" cy="-648" rx="138.38" ry="18"/>
<text text-anchor="middle" x="1189" y="-644.3" font-family="Times,serif" font-size="14.00">666141621068611900 (Preparation)</text>
</g>
<!-- http://purl.org/dj/kaggle/logistic&#45;regression&#45;implementation/activity/&#45;6420389718454575887&#45;&gt;http://purl.org/dj/kaggle/logistic&#45;regression&#45;implementation/activity/666141621068611900 -->
<g id="edge13" class="edge">
<title>http://purl.org/dj/kaggle/logistic&#45;regression&#45;implementation/activity/&#45;6420389718454575887&#45;&gt;http://purl.org/dj/kaggle/logistic&#45;regression&#45;implementation/activity/666141621068611900</title>
<path fill="none" stroke="black" d="M545.82,-835.73C688.61,-827.45 900.11,-809.55 973,-774 993.34,-764.08 990.61,-751.19 1009,-738 1049.04,-709.27 1099.75,-685.13 1137.13,-669.27"/>
<polygon fill="black" stroke="black" points="1138.94,-672.31 1146.82,-665.22 1136.24,-665.85 1138.94,-672.31"/>
<text text-anchor="middle" x="1032.5" y="-752.3" font-family="Times,serif" font-size="14.00">previous</text>
</g>
<!-- http://purl.org/dj/kaggle/logistic&#45;regression&#45;implementation/activity/&#45;35619013978602678 -->
<g id="node12" class="node">
<title>http://purl.org/dj/kaggle/logistic&#45;regression&#45;implementation/activity/&#45;35619013978602678</title>
<ellipse fill="none" stroke="black" cx="846" cy="-756" rx="118.08" ry="18"/>
<text text-anchor="middle" x="846" y="-752.3" font-family="Times,serif" font-size="14.00">&#45;35619013978602678 (Reuse)</text>
</g>
<!-- http://purl.org/dj/kaggle/logistic&#45;regression&#45;implementation/activity/&#45;6420389718454575887&#45;&gt;http://purl.org/dj/kaggle/logistic&#45;regression&#45;implementation/activity/&#45;35619013978602678 -->
<g id="edge14" class="edge">
<title>http://purl.org/dj/kaggle/logistic&#45;regression&#45;implementation/activity/&#45;6420389718454575887&#45;&gt;http://purl.org/dj/kaggle/logistic&#45;regression&#45;implementation/activity/&#45;35619013978602678</title>
<path fill="none" stroke="black" d="M482.47,-827.39C561.46,-812.09 685.01,-788.17 765.74,-772.54"/>
<polygon fill="black" stroke="black" points="766.71,-775.92 775.86,-770.58 765.38,-769.04 766.71,-775.92"/>
<text text-anchor="middle" x="676.5" y="-795.8" font-family="Times,serif" font-size="14.00">previous</text>
</g>
<!-- http://purl.org/dj/kaggle/logistic&#45;regression&#45;implementation/activity/4326782454534848755 -->
<g id="node13" class="node">
<title>http://purl.org/dj/kaggle/logistic&#45;regression&#45;implementation/activity/4326782454534848755</title>
<ellipse fill="none" stroke="black" cx="233" cy="-702" rx="142.97" ry="18"/>
<text text-anchor="middle" x="233" y="-698.3" font-family="Times,serif" font-size="14.00">4326782454534848755 (Preparation)</text>
</g>
<!-- http://purl.org/dj/kaggle/logistic&#45;regression&#45;implementation/activity/&#45;6420389718454575887&#45;&gt;http://purl.org/dj/kaggle/logistic&#45;regression&#45;implementation/activity/4326782454534848755 -->
<g id="edge15" class="edge">
<title>http://purl.org/dj/kaggle/logistic&#45;regression&#45;implementation/activity/&#45;6420389718454575887&#45;&gt;http://purl.org/dj/kaggle/logistic&#45;regression&#45;implementation/activity/4326782454534848755</title>
<path fill="none" stroke="black" d="M362.99,-825.58C351.75,-820.44 340.01,-814.2 330,-807 298.76,-784.53 269.6,-750.87 251.57,-727.98"/>
<polygon fill="black" stroke="black" points="254.34,-725.84 245.45,-720.07 248.81,-730.12 254.34,-725.84"/>
<text text-anchor="middle" x="353.5" y="-795.8" font-family="Times,serif" font-size="14.00">previous</text>
</g>
<!-- http://purl.org/dj/kaggle/logistic&#45;regression&#45;implementation/activity/2440962238481116545 -->
<g id="node14" class="node">
<title>http://purl.org/dj/kaggle/logistic&#45;regression&#45;implementation/activity/2440962238481116545</title>
<ellipse fill="none" stroke="black" cx="343" cy="-594" rx="142.97" ry="18"/>
<text text-anchor="middle" x="343" y="-590.3" font-family="Times,serif" font-size="14.00">2440962238481116545 (Preparation)</text>
</g>
<!-- http://purl.org/dj/kaggle/logistic&#45;regression&#45;implementation/activity/&#45;6420389718454575887&#45;&gt;http://purl.org/dj/kaggle/logistic&#45;regression&#45;implementation/activity/2440962238481116545 -->
<g id="edge16" class="edge">
<title>http://purl.org/dj/kaggle/logistic&#45;regression&#45;implementation/activity/&#45;6420389718454575887&#45;&gt;http://purl.org/dj/kaggle/logistic&#45;regression&#45;implementation/activity/2440962238481116545</title>
<path fill="none" stroke="black" d="M404.74,-824.7C400.68,-795.38 391.24,-734.23 377,-684 370.93,-662.58 361.84,-639.09 354.59,-621.62"/>
<polygon fill="black" stroke="black" points="357.68,-619.94 350.57,-612.09 351.23,-622.66 357.68,-619.94"/>
<text text-anchor="middle" x="420.5" y="-752.3" font-family="Times,serif" font-size="14.00">previous</text>
</g>
<!-- http://purl.org/dj/kaggle/logistic&#45;regression&#45;implementation/activity/2101964939034861928&#45;&gt;http://purl.org/dj/kaggle/logistic&#45;regression&#45;implementation/activity/666141621068611900 -->
<g id="edge17" class="edge">
<title>http://purl.org/dj/kaggle/logistic&#45;regression&#45;implementation/activity/2101964939034861928&#45;&gt;http://purl.org/dj/kaggle/logistic&#45;regression&#45;implementation/activity/666141621068611900</title>
<path fill="none" stroke="black" d="M1189,-737.97C1189,-721.38 1189,-695.88 1189,-676.43"/>
<polygon fill="black" stroke="black" points="1192.5,-676.34 1189,-666.34 1185.5,-676.34 1192.5,-676.34"/>
<text text-anchor="middle" x="1212.5" y="-698.3" font-family="Times,serif" font-size="14.00">previous</text>
</g>
<!-- http://purl.org/dj/kaggle/logistic&#45;regression&#45;implementation/activity/&#45;5442981714418956551&#45;&gt;http://purl.org/dj/kaggle/logistic&#45;regression&#45;implementation/activity/666141621068611900 -->
<g id="edge18" class="edge">
<title>http://purl.org/dj/kaggle/logistic&#45;regression&#45;implementation/activity/&#45;5442981714418956551&#45;&gt;http://purl.org/dj/kaggle/logistic&#45;regression&#45;implementation/activity/666141621068611900</title>
<path fill="none" stroke="black" d="M629.21,-739.11C678.75,-722.72 760.02,-697.68 832,-684 904.6,-670.21 986.59,-661.68 1053.68,-656.5"/>
<polygon fill="black" stroke="black" points="1054.18,-659.98 1063.89,-655.73 1053.65,-652.99 1054.18,-659.98"/>
<text text-anchor="middle" x="855.5" y="-698.3" font-family="Times,serif" font-size="14.00">previous</text>
</g>
<!-- http://purl.org/dj/kaggle/logistic&#45;regression&#45;implementation/activity/666141621068611900&#45;&gt;http://purl.org/dj/kaggle/logistic&#45;regression&#45;implementation/activity/2202249275847071630 -->
<g id="edge19" class="edge">
<title>http://purl.org/dj/kaggle/logistic&#45;regression&#45;implementation/activity/666141621068611900&#45;&gt;http://purl.org/dj/kaggle/logistic&#45;regression&#45;implementation/activity/2202249275847071630</title>
<path fill="none" stroke="black" d="M1260.13,-632.42C1385.87,-603.7 1625.86,-533.89 1534,-435 1502.52,-401.11 874.16,-378.82 595.8,-370.57"/>
<polygon fill="black" stroke="black" points="595.74,-367.07 585.64,-370.27 595.53,-374.07 595.74,-367.07"/>
<text text-anchor="middle" x="1576.5" y="-492.8" font-family="Times,serif" font-size="14.00">previous</text>
</g>
<!-- http://purl.org/dj/kaggle/logistic&#45;regression&#45;implementation/activity/666141621068611900&#45;&gt;http://purl.org/dj/kaggle/logistic&#45;regression&#45;implementation/activity/&#45;895659670910509767 -->
<g id="edge20" class="edge">
<title>http://purl.org/dj/kaggle/logistic&#45;regression&#45;implementation/activity/666141621068611900&#45;&gt;http://purl.org/dj/kaggle/logistic&#45;regression&#45;implementation/activity/&#45;895659670910509767</title>
<path fill="none" stroke="black" d="M1200.57,-629.97C1212.22,-612.82 1230.34,-586.14 1243.7,-566.47"/>
<polygon fill="black" stroke="black" points="1246.74,-568.23 1249.46,-557.99 1240.95,-564.29 1246.74,-568.23"/>
<text text-anchor="middle" x="1258.5" y="-590.3" font-family="Times,serif" font-size="14.00">previous</text>
</g>
<!-- http://purl.org/dj/kaggle/logistic&#45;regression&#45;implementation/activity/&#45;35619013978602678&#45;&gt;http://purl.org/dj/kaggle/logistic&#45;regression&#45;implementation/activity/666141621068611900 -->
<g id="edge21" class="edge">
<title>http://purl.org/dj/kaggle/logistic&#45;regression&#45;implementation/activity/&#45;35619013978602678&#45;&gt;http://purl.org/dj/kaggle/logistic&#45;regression&#45;implementation/activity/666141621068611900</title>
<path fill="none" stroke="black" d="M862.45,-738.13C879.82,-721.44 908.82,-696.6 939,-684 973.29,-669.68 1012.28,-661.01 1049.11,-655.81"/>
<polygon fill="black" stroke="black" points="1049.98,-659.23 1059.43,-654.44 1049.06,-652.29 1049.98,-659.23"/>
<text text-anchor="middle" x="962.5" y="-698.3" font-family="Times,serif" font-size="14.00">previous</text>
</g>
<!-- http://purl.org/dj/kaggle/logistic&#45;regression&#45;implementation/activity/4326782454534848755&#45;&gt;http://purl.org/dj/kaggle/logistic&#45;regression&#45;implementation/activity/2202249275847071630 -->
<g id="edge22" class="edge">
<title>http://purl.org/dj/kaggle/logistic&#45;regression&#45;implementation/activity/4326782454534848755&#45;&gt;http://purl.org/dj/kaggle/logistic&#45;regression&#45;implementation/activity/2202249275847071630</title>
<path fill="none" stroke="black" d="M216.23,-683.9C192.91,-658.79 151.77,-609.33 136,-558 118.91,-502.36 140.22,-476.54 181,-435 202.59,-413 212.8,-411.87 242,-402 276.62,-390.31 315.6,-382.49 351.17,-377.27"/>
<polygon fill="black" stroke="black" points="351.7,-380.73 361.11,-375.87 350.72,-373.8 351.7,-380.73"/>
<text text-anchor="middle" x="159.5" y="-536.3" font-family="Times,serif" font-size="14.00">previous</text>
</g>
<!-- http://purl.org/dj/kaggle/logistic&#45;regression&#45;implementation/activity/2440962238481116545&#45;&gt;http://purl.org/dj/kaggle/logistic&#45;regression&#45;implementation/activity/2202249275847071630 -->
<g id="edge23" class="edge">
<title>http://purl.org/dj/kaggle/logistic&#45;regression&#45;implementation/activity/2440962238481116545&#45;&gt;http://purl.org/dj/kaggle/logistic&#45;regression&#45;implementation/activity/2202249275847071630</title>
<path fill="none" stroke="black" d="M274.73,-578.11C258.76,-573.06 242.27,-566.47 228,-558 213.27,-549.25 179.63,-519.79 173,-504 170.42,-497.85 170.14,-495.02 173,-489 204.89,-421.97 284.45,-391.71 352.48,-378.08"/>
<polygon fill="black" stroke="black" points="353.26,-381.5 362.43,-376.19 351.95,-374.62 353.26,-381.5"/>
<text text-anchor="middle" x="196.5" y="-492.8" font-family="Times,serif" font-size="14.00">previous</text>
</g>
<!-- http://purl.org/dj/kaggle/logistic&#45;regression&#45;implementation/activity/7650428144020358597 -->
<g id="node15" class="node">
<title>http://purl.org/dj/kaggle/logistic&#45;regression&#45;implementation/activity/7650428144020358597</title>
<ellipse fill="none" stroke="black" cx="1460" cy="-756" rx="124.28" ry="18"/>
<text text-anchor="middle" x="1460" y="-752.3" font-family="Times,serif" font-size="14.00">7650428144020358597 (Reuse)</text>
</g>
<!-- http://purl.org/dj/kaggle/logistic&#45;regression&#45;implementation/activity/7650428144020358597&#45;&gt;http://purl.org/dj/kaggle/logistic&#45;regression&#45;implementation/activity/666141621068611900 -->
<g id="edge24" class="edge">
<title>http://purl.org/dj/kaggle/logistic&#45;regression&#45;implementation/activity/7650428144020358597&#45;&gt;http://purl.org/dj/kaggle/logistic&#45;regression&#45;implementation/activity/666141621068611900</title>
<path fill="none" stroke="black" d="M1418.84,-738.9C1370.89,-720.15 1291.65,-689.15 1239.88,-668.9"/>
<polygon fill="black" stroke="black" points="1241.13,-665.63 1230.55,-665.25 1238.58,-672.15 1241.13,-665.63"/>
<text text-anchor="middle" x="1387.5" y="-698.3" font-family="Times,serif" font-size="14.00">previous</text>
</g>
<!-- http://purl.org/dj/kaggle/logistic&#45;regression&#45;implementation/activity/&#45;5174720208090684780 -->
<g id="node16" class="node">
<title>http://purl.org/dj/kaggle/logistic&#45;regression&#45;implementation/activity/&#45;5174720208090684780</title>
<ellipse fill="none" stroke="black" cx="388" cy="-540" rx="151.37" ry="18"/>
<text text-anchor="middle" x="388" y="-536.3" font-family="Times,serif" font-size="14.00">&#45;5174720208090684780 (Visualisation)</text>
</g>
<!-- http://purl.org/dj/kaggle/logistic&#45;regression&#45;implementation/activity/&#45;5174720208090684780&#45;&gt;http://purl.org/dj/kaggle/logistic&#45;regression&#45;implementation/activity/2202249275847071630 -->
<g id="edge25" class="edge">
<title>http://purl.org/dj/kaggle/logistic&#45;regression&#45;implementation/activity/&#45;5174720208090684780&#45;&gt;http://purl.org/dj/kaggle/logistic&#45;regression&#45;implementation/activity/2202249275847071630</title>
<path fill="none" stroke="black" d="M342.12,-522.68C297.69,-504.26 240.6,-471.97 267,-435 287.76,-405.92 321.77,-389.15 355.79,-379.52"/>
<polygon fill="black" stroke="black" points="357.07,-382.8 365.85,-376.87 355.29,-376.03 357.07,-382.8"/>
<text text-anchor="middle" x="290.5" y="-449.3" font-family="Times,serif" font-size="14.00">previous</text>
</g>
<!-- http://purl.org/dj/kaggle/logistic&#45;regression&#45;implementation/activity/&#45;5174720208090684780&#45;&gt;http://purl.org/dj/kaggle/logistic&#45;regression&#45;implementation/activity/&#45;1228967289733457155 -->
<g id="edge26" class="edge">
<title>http://purl.org/dj/kaggle/logistic&#45;regression&#45;implementation/activity/&#45;5174720208090684780&#45;&gt;http://purl.org/dj/kaggle/logistic&#45;regression&#45;implementation/activity/&#45;1228967289733457155</title>
<path fill="none" stroke="black" d="M317.54,-524.06C303.63,-519.11 289.72,-512.58 278,-504 236.96,-473.95 212,-461.37 212,-410.5 212,-410.5 212,-410.5 212,-191 212,-159.16 289.02,-135.96 355.06,-121.92"/>
<polygon fill="black" stroke="black" points="356.05,-125.28 365.13,-119.83 354.62,-118.43 356.05,-125.28"/>
<text text-anchor="middle" x="235.5" y="-318.8" font-family="Times,serif" font-size="14.00">previous</text>
</g>
<!-- http://purl.org/dj/kaggle/logistic&#45;regression&#45;implementation/activity/2307615929816119913 -->
<g id="node17" class="node">
<title>http://purl.org/dj/kaggle/logistic&#45;regression&#45;implementation/activity/2307615929816119913</title>
<ellipse fill="none" stroke="black" cx="1072" cy="-453" rx="142.97" ry="18"/>
<text text-anchor="middle" x="1072" y="-449.3" font-family="Times,serif" font-size="14.00">2307615929816119913 (Preparation)</text>
</g>
<!-- http://purl.org/dj/kaggle/logistic&#45;regression&#45;implementation/activity/&#45;5174720208090684780&#45;&gt;http://purl.org/dj/kaggle/logistic&#45;regression&#45;implementation/activity/2307615929816119913 -->
<g id="edge27" class="edge">
<title>http://purl.org/dj/kaggle/logistic&#45;regression&#45;implementation/activity/&#45;5174720208090684780&#45;&gt;http://purl.org/dj/kaggle/logistic&#45;regression&#45;implementation/activity/2307615929816119913</title>
<path fill="none" stroke="black" d="M488.56,-526.5C615.68,-510.71 833.64,-483.62 964.13,-467.4"/>
<polygon fill="black" stroke="black" points="964.66,-470.87 974.15,-466.16 963.79,-463.92 964.66,-470.87"/>
<text text-anchor="middle" x="793.5" y="-492.8" font-family="Times,serif" font-size="14.00">previous</text>
</g>
<!-- http://purl.org/dj/kaggle/logistic&#45;regression&#45;implementation/activity/2307615929816119913&#45;&gt;http://purl.org/dj/kaggle/logistic&#45;regression&#45;implementation/activity/2202249275847071630 -->
<g id="edge28" class="edge">
<title>http://purl.org/dj/kaggle/logistic&#45;regression&#45;implementation/activity/2307615929816119913&#45;&gt;http://purl.org/dj/kaggle/logistic&#45;regression&#45;implementation/activity/2202249275847071630</title>
<path fill="none" stroke="black" d="M980.14,-439.14C867.06,-423.3 675.92,-396.54 560.98,-380.44"/>
<polygon fill="black" stroke="black" points="561.17,-376.93 550.78,-379.01 560.2,-383.87 561.17,-376.93"/>
<text text-anchor="middle" x="827.5" y="-405.8" font-family="Times,serif" font-size="14.00">previous</text>
</g>
<!-- http://purl.org/dj/kaggle/logistic&#45;regression&#45;implementation/activity/&#45;403999467601490458 -->
<g id="node18" class="node">
<title>http://purl.org/dj/kaggle/logistic&#45;regression&#45;implementation/activity/&#45;403999467601490458</title>
<ellipse fill="none" stroke="black" cx="465" cy="-453" rx="141.88" ry="18"/>
<text text-anchor="middle" x="465" y="-449.3" font-family="Times,serif" font-size="14.00">&#45;403999467601490458 (Preparation)</text>
</g>
<!-- http://purl.org/dj/kaggle/logistic&#45;regression&#45;implementation/activity/&#45;403999467601490458&#45;&gt;http://purl.org/dj/kaggle/logistic&#45;regression&#45;implementation/activity/2202249275847071630 -->
<g id="edge29" class="edge">
<title>http://purl.org/dj/kaggle/logistic&#45;regression&#45;implementation/activity/&#45;403999467601490458&#45;&gt;http://purl.org/dj/kaggle/logistic&#45;regression&#45;implementation/activity/2202249275847071630</title>
<path fill="none" stroke="black" d="M465,-434.8C465,-423.16 465,-407.55 465,-394.24"/>
<polygon fill="black" stroke="black" points="468.5,-394.18 465,-384.18 461.5,-394.18 468.5,-394.18"/>
<text text-anchor="middle" x="488.5" y="-405.8" font-family="Times,serif" font-size="14.00">previous</text>
</g>
<!-- http://purl.org/dj/kaggle/logistic&#45;regression&#45;implementation/activity/3823902014145348552 -->
<g id="node19" class="node">
<title>http://purl.org/dj/kaggle/logistic&#45;regression&#45;implementation/activity/3823902014145348552</title>
<ellipse fill="none" stroke="black" cx="768" cy="-453" rx="142.97" ry="18"/>
<text text-anchor="middle" x="768" y="-449.3" font-family="Times,serif" font-size="14.00">3823902014145348552 (Preparation)</text>
</g>
<!-- http://purl.org/dj/kaggle/logistic&#45;regression&#45;implementation/activity/3823902014145348552&#45;&gt;http://purl.org/dj/kaggle/logistic&#45;regression&#45;implementation/activity/2202249275847071630 -->
<g id="edge30" class="edge">
<title>http://purl.org/dj/kaggle/logistic&#45;regression&#45;implementation/activity/3823902014145348552&#45;&gt;http://purl.org/dj/kaggle/logistic&#45;regression&#45;implementation/activity/2202249275847071630</title>
<path fill="none" stroke="black" d="M712.43,-436.41C660.64,-421.88 583.44,-400.23 529.08,-384.98"/>
<polygon fill="black" stroke="black" points="529.78,-381.54 519.2,-382.21 527.89,-388.28 529.78,-381.54"/>
<text text-anchor="middle" x="658.5" y="-405.8" font-family="Times,serif" font-size="14.00">previous</text>
</g>
<!-- http://purl.org/dj/kaggle/logistic&#45;regression&#45;implementation/activity/3038996519022830847 -->
<g id="node20" class="node">
<title>http://purl.org/dj/kaggle/logistic&#45;regression&#45;implementation/activity/3038996519022830847</title>
<ellipse fill="none" stroke="black" cx="1560" cy="-843" rx="148.67" ry="18"/>
<text text-anchor="middle" x="1560" y="-839.3" font-family="Times,serif" font-size="14.00">3038996519022830847 (Visualisation)</text>
</g>
<!-- http://purl.org/dj/kaggle/logistic&#45;regression&#45;implementation/activity/3038996519022830847&#45;&gt;http://purl.org/dj/kaggle/logistic&#45;regression&#45;implementation/activity/2202249275847071630 -->
<g id="edge33" class="edge">
<title>http://purl.org/dj/kaggle/logistic&#45;regression&#45;implementation/activity/3038996519022830847&#45;&gt;http://purl.org/dj/kaggle/logistic&#45;regression&#45;implementation/activity/2202249275847071630</title>
<path fill="none" stroke="black" d="M1579.55,-824.85C1595.35,-809 1615,-783.89 1615,-757 1615,-757 1615,-757 1615,-452 1615,-433.37 1559.52,-421.76 1393,-402 1243.18,-384.22 816.43,-373.73 597.74,-369.37"/>
<polygon fill="black" stroke="black" points="597.55,-365.87 587.49,-369.17 597.42,-372.87 597.55,-365.87"/>
<text text-anchor="middle" x="1638.5" y="-590.3" font-family="Times,serif" font-size="14.00">previous</text>
</g>
<!-- http://purl.org/dj/kaggle/logistic&#45;regression&#45;implementation/activity/3038996519022830847&#45;&gt;http://purl.org/dj/kaggle/logistic&#45;regression&#45;implementation/activity/7650428144020358597 -->
<g id="edge34" class="edge">
<title>http://purl.org/dj/kaggle/logistic&#45;regression&#45;implementation/activity/3038996519022830847&#45;&gt;http://purl.org/dj/kaggle/logistic&#45;regression&#45;implementation/activity/7650428144020358597</title>
<path fill="none" stroke="black" d="M1539.76,-824.8C1524.76,-812.04 1504.12,-794.5 1487.6,-780.46"/>
<polygon fill="black" stroke="black" points="1489.75,-777.7 1479.87,-773.89 1485.22,-783.03 1489.75,-777.7"/>
<text text-anchor="middle" x="1538.5" y="-795.8" font-family="Times,serif" font-size="14.00">previous</text>
</g>
</g>
</svg>
