<?xml version="1.0" encoding="UTF-8" standalone="no"?>
<!DOCTYPE svg PUBLIC "-//W3C//DTD SVG 1.1//EN"
 "http://www.w3.org/Graphics/SVG/1.1/DTD/svg11.dtd">
<!-- Generated by graphviz version 2.44.1 (20200629.0846)
 -->
<!-- Pages: 1 -->
<svg width="7949pt" height="218pt"
 viewBox="0.00 0.00 7949.38 218.00" xmlns="http://www.w3.org/2000/svg" xmlns:xlink="http://www.w3.org/1999/xlink">
<g id="graph0" class="graph" transform="scale(1 1) rotate(0) translate(4 214)">
<polygon fill="white" stroke="transparent" points="-4,4 -4,-214 7945.38,-214 7945.38,4 -4,4"/>
<!-- http://purl.org/dj/kaggle/loops&#45;and&#45;list&#45;comprehensions#499647452 -->
<g id="node1" class="node">
<title>http://purl.org/dj/kaggle/loops&#45;and&#45;list&#45;comprehensions#499647452</title>
<ellipse fill="none" stroke="black" cx="521.44" cy="-192" rx="149.47" ry="18"/>
<text text-anchor="middle" x="521.44" y="-188.3" font-family="Times,serif" font-size="14.00">499647452 (squares(0)$2: Preparation)</text>
</g>
<!-- http://purl.org/dj/kaggle/loops&#45;and&#45;list&#45;comprehensions#71369018 -->
<g id="node2" class="node">
<title>http://purl.org/dj/kaggle/loops&#45;and&#45;list&#45;comprehensions#71369018</title>
<ellipse fill="none" stroke="black" cx="521.44" cy="-105" rx="96.68" ry="18"/>
<text text-anchor="middle" x="521.44" y="-101.3" font-family="Times,serif" font-size="14.00">71369018 ([](0): Reuse)</text>
</g>
<!-- http://purl.org/dj/kaggle/loops&#45;and&#45;list&#45;comprehensions#499647452&#45;&gt;http://purl.org/dj/kaggle/loops&#45;and&#45;list&#45;comprehensions#71369018 -->
<g id="edge1" class="edge">
<title>http://purl.org/dj/kaggle/loops&#45;and&#45;list&#45;comprehensions#499647452&#45;&gt;http://purl.org/dj/kaggle/loops&#45;and&#45;list&#45;comprehensions#71369018</title>
<path fill="none" stroke="black" d="M521.44,-173.8C521.44,-162.16 521.44,-146.55 521.44,-133.24"/>
<polygon fill="black" stroke="black" points="524.94,-133.18 521.44,-123.18 517.94,-133.18 524.94,-133.18"/>
<text text-anchor="middle" x="544.94" y="-144.8" font-family="Times,serif" font-size="14.00">previous</text>
</g>
<!-- http://purl.org/dj/kaggle/loops&#45;and&#45;list&#45;comprehensions#30212276 -->
<g id="node3" class="node">
<title>http://purl.org/dj/kaggle/loops&#45;and&#45;list&#45;comprehensions#30212276</title>
<ellipse fill="none" stroke="black" cx="731.44" cy="-105" rx="94.78" ry="18"/>
<text text-anchor="middle" x="731.44" y="-101.3" font-family="Times,serif" font-size="14.00">30212276 (2(0): Reuse)</text>
</g>
<!-- http://purl.org/dj/kaggle/loops&#45;and&#45;list&#45;comprehensions#499647452&#45;&gt;http://purl.org/dj/kaggle/loops&#45;and&#45;list&#45;comprehensions#30212276 -->
<g id="edge2" class="edge">
<title>http://purl.org/dj/kaggle/loops&#45;and&#45;list&#45;comprehensions#499647452&#45;&gt;http://purl.org/dj/kaggle/loops&#45;and&#45;list&#45;comprehensions#30212276</title>
<path fill="none" stroke="black" d="M561.93,-174.61C596.72,-160.53 646.94,-140.2 683.69,-125.33"/>
<polygon fill="black" stroke="black" points="685.24,-128.48 693.2,-121.48 682.62,-121.99 685.24,-128.48"/>
<text text-anchor="middle" x="662.94" y="-144.8" font-family="Times,serif" font-size="14.00">previous</text>
</g>
<!-- http://purl.org/dj/kaggle/loops&#45;and&#45;list&#45;comprehensions#225116815 -->
<g id="node4" class="node">
<title>http://purl.org/dj/kaggle/loops&#45;and&#45;list&#45;comprehensions#225116815</title>
<ellipse fill="none" stroke="black" cx="1200.44" cy="-105" rx="114.28" ry="18"/>
<text text-anchor="middle" x="1200.44" y="-101.3" font-family="Times,serif" font-size="14.00">225116815 (range(0): Reuse)</text>
</g>
<!-- http://purl.org/dj/kaggle/loops&#45;and&#45;list&#45;comprehensions#499647452&#45;&gt;http://purl.org/dj/kaggle/loops&#45;and&#45;list&#45;comprehensions#225116815 -->
<g id="edge3" class="edge">
<title>http://purl.org/dj/kaggle/loops&#45;and&#45;list&#45;comprehensions#499647452&#45;&gt;http://purl.org/dj/kaggle/loops&#45;and&#45;list&#45;comprehensions#225116815</title>
<path fill="none" stroke="black" d="M659.85,-185.16C749.13,-180.18 867.56,-171.31 971.44,-156 1026.58,-147.88 1088.26,-134.13 1133.7,-123.11"/>
<polygon fill="black" stroke="black" points="1134.55,-126.51 1143.43,-120.73 1132.89,-119.71 1134.55,-126.51"/>
<text text-anchor="middle" x="1077.94" y="-144.8" font-family="Times,serif" font-size="14.00">previous</text>
</g>
<!-- http://purl.org/dj/kaggle/loops&#45;and&#45;list&#45;comprehensions#45809891 -->
<g id="node5" class="node">
<title>http://purl.org/dj/kaggle/loops&#45;and&#45;list&#45;comprehensions#45809891</title>
<ellipse fill="none" stroke="black" cx="99.44" cy="-105" rx="99.38" ry="18"/>
<text text-anchor="middle" x="99.44" y="-101.3" font-family="Times,serif" font-size="14.00">45809891 (10(0): Reuse)</text>
</g>
<!-- http://purl.org/dj/kaggle/loops&#45;and&#45;list&#45;comprehensions#499647452&#45;&gt;http://purl.org/dj/kaggle/loops&#45;and&#45;list&#45;comprehensions#45809891 -->
<g id="edge4" class="edge">
<title>http://purl.org/dj/kaggle/loops&#45;and&#45;list&#45;comprehensions#499647452&#45;&gt;http://purl.org/dj/kaggle/loops&#45;and&#45;list&#45;comprehensions#45809891</title>
<path fill="none" stroke="black" d="M448.42,-176.29C371.43,-160.78 250.81,-136.49 173.45,-120.91"/>
<polygon fill="black" stroke="black" points="173.79,-117.41 163.3,-118.86 172.41,-124.27 173.79,-117.41"/>
<text text-anchor="middle" x="359.94" y="-144.8" font-family="Times,serif" font-size="14.00">previous</text>
</g>
<!-- http://purl.org/dj/kaggle/loops&#45;and&#45;list&#45;comprehensions#45940976 -->
<g id="node6" class="node">
<title>http://purl.org/dj/kaggle/loops&#45;and&#45;list&#45;comprehensions#45940976</title>
<ellipse fill="none" stroke="black" cx="311.44" cy="-105" rx="94.78" ry="18"/>
<text text-anchor="middle" x="311.44" y="-101.3" font-family="Times,serif" font-size="14.00">45940976 (n(0): Reuse)</text>
</g>
<!-- http://purl.org/dj/kaggle/loops&#45;and&#45;list&#45;comprehensions#499647452&#45;&gt;http://purl.org/dj/kaggle/loops&#45;and&#45;list&#45;comprehensions#45940976 -->
<g id="edge5" class="edge">
<title>http://purl.org/dj/kaggle/loops&#45;and&#45;list&#45;comprehensions#499647452&#45;&gt;http://purl.org/dj/kaggle/loops&#45;and&#45;list&#45;comprehensions#45940976</title>
<path fill="none" stroke="black" d="M480.95,-174.61C446.16,-160.53 395.94,-140.2 359.19,-125.33"/>
<polygon fill="black" stroke="black" points="360.27,-121.99 349.68,-121.48 357.64,-128.48 360.27,-121.99"/>
<text text-anchor="middle" x="452.94" y="-144.8" font-family="Times,serif" font-size="14.00">previous</text>
</g>
<!-- http://purl.org/dj/kaggle/loops&#45;and&#45;list&#45;comprehensions -->
<g id="node7" class="node">
<title>http://purl.org/dj/kaggle/loops&#45;and&#45;list&#45;comprehensions</title>
<ellipse fill="none" stroke="black" cx="2249.44" cy="-18" rx="119.68" ry="18"/>
<text text-anchor="middle" x="2249.44" y="-14.3" font-family="Times,serif" font-size="14.00">loops&#45;and&#45;list&#45;comprehensions</text>
</g>
<!-- http://purl.org/dj/kaggle/loops&#45;and&#45;list&#45;comprehensions#71369018&#45;&gt;http://purl.org/dj/kaggle/loops&#45;and&#45;list&#45;comprehensions -->
<g id="edge6" class="edge">
<title>http://purl.org/dj/kaggle/loops&#45;and&#45;list&#45;comprehensions#71369018&#45;&gt;http://purl.org/dj/kaggle/loops&#45;and&#45;list&#45;comprehensions</title>
<path fill="none" stroke="black" d="M588.86,-92.03C601.64,-90.09 614.93,-88.29 627.44,-87 705,-78.98 1250.54,-57.31 1328.44,-54 1613.07,-41.89 1947.28,-29.7 2124.42,-23.39"/>
<polygon fill="black" stroke="black" points="2124.69,-26.88 2134.56,-23.03 2124.44,-19.89 2124.69,-26.88"/>
<text text-anchor="middle" x="1351.94" y="-57.8" font-family="Times,serif" font-size="14.00">previous</text>
</g>
<!-- http://purl.org/dj/kaggle/loops&#45;and&#45;list&#45;comprehensions#30212276&#45;&gt;http://purl.org/dj/kaggle/loops&#45;and&#45;list&#45;comprehensions -->
<g id="edge7" class="edge">
<title>http://purl.org/dj/kaggle/loops&#45;and&#45;list&#45;comprehensions#30212276&#45;&gt;http://purl.org/dj/kaggle/loops&#45;and&#45;list&#45;comprehensions</title>
<path fill="none" stroke="black" d="M797.01,-91.96C809.72,-90.01 822.97,-88.22 835.44,-87 1076.2,-63.44 1137.88,-82.05 1379.44,-69 1468.45,-64.19 1490.48,-59.66 1579.44,-54 1770.34,-41.86 1992.03,-30.89 2126.45,-24.59"/>
<polygon fill="black" stroke="black" points="2126.95,-28.07 2136.78,-24.1 2126.62,-21.08 2126.95,-28.07"/>
<text text-anchor="middle" x="1602.94" y="-57.8" font-family="Times,serif" font-size="14.00">previous</text>
</g>
<!-- http://purl.org/dj/kaggle/loops&#45;and&#45;list&#45;comprehensions#225116815&#45;&gt;http://purl.org/dj/kaggle/loops&#45;and&#45;list&#45;comprehensions -->
<g id="edge8" class="edge">
<title>http://purl.org/dj/kaggle/loops&#45;and&#45;list&#45;comprehensions#225116815&#45;&gt;http://purl.org/dj/kaggle/loops&#45;and&#45;list&#45;comprehensions</title>
<path fill="none" stroke="black" d="M1279.38,-91.91C1294,-90.01 1309.16,-88.26 1323.44,-87 1530.79,-68.73 1585.16,-96.88 1791.44,-69 1820.39,-65.09 1826.6,-58.64 1855.44,-54 1946.12,-39.42 2049.59,-30.52 2127.74,-25.35"/>
<polygon fill="black" stroke="black" points="2128.36,-28.82 2138.11,-24.67 2127.9,-21.83 2128.36,-28.82"/>
<text text-anchor="middle" x="1878.94" y="-57.8" font-family="Times,serif" font-size="14.00">previous</text>
</g>
<!-- http://purl.org/dj/kaggle/loops&#45;and&#45;list&#45;comprehensions#45809891&#45;&gt;http://purl.org/dj/kaggle/loops&#45;and&#45;list&#45;comprehensions -->
<g id="edge9" class="edge">
<title>http://purl.org/dj/kaggle/loops&#45;and&#45;list&#45;comprehensions#45809891&#45;&gt;http://purl.org/dj/kaggle/loops&#45;and&#45;list&#45;comprehensions</title>
<path fill="none" stroke="black" d="M169.94,-92.25C182.41,-90.36 195.29,-88.52 207.44,-87 363.35,-67.44 402.57,-62.97 559.44,-54 1140.61,-20.78 1835.8,-18.03 2119.39,-18.47"/>
<polygon fill="black" stroke="black" points="2119.71,-21.97 2129.71,-18.49 2119.72,-14.97 2119.71,-21.97"/>
<text text-anchor="middle" x="582.94" y="-57.8" font-family="Times,serif" font-size="14.00">previous</text>
</g>
<!-- http://purl.org/dj/kaggle/loops&#45;and&#45;list&#45;comprehensions#45940976&#45;&gt;http://purl.org/dj/kaggle/loops&#45;and&#45;list&#45;comprehensions -->
<g id="edge10" class="edge">
<title>http://purl.org/dj/kaggle/loops&#45;and&#45;list&#45;comprehensions#45940976&#45;&gt;http://purl.org/dj/kaggle/loops&#45;and&#45;list&#45;comprehensions</title>
<path fill="none" stroke="black" d="M377.88,-92.15C390.33,-90.21 403.26,-88.38 415.44,-87 642.01,-61.24 699.65,-64.35 927.44,-54 1364.96,-34.12 1884.49,-24.43 2120.87,-20.79"/>
<polygon fill="black" stroke="black" points="2120.94,-24.29 2130.88,-20.63 2120.83,-17.29 2120.94,-24.29"/>
<text text-anchor="middle" x="950.94" y="-57.8" font-family="Times,serif" font-size="14.00">previous</text>
</g>
<!-- http://purl.org/dj/kaggle/loops&#45;and&#45;list&#45;comprehensions#249692951 -->
<g id="node8" class="node">
<title>http://purl.org/dj/kaggle/loops&#45;and&#45;list&#45;comprehensions#249692951</title>
<ellipse fill="none" stroke="black" cx="1839.44" cy="-192" rx="136.48" ry="18"/>
<text text-anchor="middle" x="1839.44" y="-188.3" font-family="Times,serif" font-size="14.00">249692951 (print[1]: Visualisation)</text>
</g>
<!-- http://purl.org/dj/kaggle/loops&#45;and&#45;list&#45;comprehensions#249692951&#45;&gt;http://purl.org/dj/kaggle/loops&#45;and&#45;list&#45;comprehensions#225116815 -->
<g id="edge11" class="edge">
<title>http://purl.org/dj/kaggle/loops&#45;and&#45;list&#45;comprehensions#249692951&#45;&gt;http://purl.org/dj/kaggle/loops&#45;and&#45;list&#45;comprehensions#225116815</title>
<path fill="none" stroke="black" d="M1737.28,-180.02C1701.16,-174.66 1660.55,-166.93 1624.44,-156 1609.02,-151.33 1607.06,-144.94 1591.44,-141 1475.68,-111.83 1442.2,-135.18 1323.44,-123 1312.77,-121.91 1301.6,-120.59 1290.53,-119.19"/>
<polygon fill="black" stroke="black" points="1290.77,-115.69 1280.4,-117.88 1289.87,-122.64 1290.77,-115.69"/>
<text text-anchor="middle" x="1647.94" y="-144.8" font-family="Times,serif" font-size="14.00">previous</text>
</g>
<!-- http://purl.org/dj/kaggle/loops&#45;and&#45;list&#45;comprehensions#17039490 -->
<g id="node9" class="node">
<title>http://purl.org/dj/kaggle/loops&#45;and&#45;list&#45;comprehensions#17039490</title>
<ellipse fill="none" stroke="black" cx="1839.44" cy="-105" rx="90.98" ry="18"/>
<text text-anchor="middle" x="1839.44" y="-101.3" font-family="Times,serif" font-size="14.00">17039490 ((0): Reuse)</text>
</g>
<!-- http://purl.org/dj/kaggle/loops&#45;and&#45;list&#45;comprehensions#249692951&#45;&gt;http://purl.org/dj/kaggle/loops&#45;and&#45;list&#45;comprehensions#17039490 -->
<g id="edge12" class="edge">
<title>http://purl.org/dj/kaggle/loops&#45;and&#45;list&#45;comprehensions#249692951&#45;&gt;http://purl.org/dj/kaggle/loops&#45;and&#45;list&#45;comprehensions#17039490</title>
<path fill="none" stroke="black" d="M1839.44,-173.8C1839.44,-162.16 1839.44,-146.55 1839.44,-133.24"/>
<polygon fill="black" stroke="black" points="1842.94,-133.18 1839.44,-123.18 1835.94,-133.18 1842.94,-133.18"/>
<text text-anchor="middle" x="1862.94" y="-144.8" font-family="Times,serif" font-size="14.00">previous</text>
</g>
<!-- http://purl.org/dj/kaggle/loops&#45;and&#45;list&#45;comprehensions#30998711 -->
<g id="node10" class="node">
<title>http://purl.org/dj/kaggle/loops&#45;and&#45;list&#45;comprehensions#30998711</title>
<ellipse fill="none" stroke="black" cx="1635.44" cy="-105" rx="94.78" ry="18"/>
<text text-anchor="middle" x="1635.44" y="-101.3" font-family="Times,serif" font-size="14.00">30998711 (5(0): Reuse)</text>
</g>
<!-- http://purl.org/dj/kaggle/loops&#45;and&#45;list&#45;comprehensions#249692951&#45;&gt;http://purl.org/dj/kaggle/loops&#45;and&#45;list&#45;comprehensions#30998711 -->
<g id="edge13" class="edge">
<title>http://purl.org/dj/kaggle/loops&#45;and&#45;list&#45;comprehensions#249692951&#45;&gt;http://purl.org/dj/kaggle/loops&#45;and&#45;list&#45;comprehensions#30998711</title>
<path fill="none" stroke="black" d="M1757.42,-177.55C1736.86,-172.41 1715.3,-165.42 1696.44,-156 1683.17,-149.37 1670.2,-139.39 1659.66,-130.09"/>
<polygon fill="black" stroke="black" points="1661.84,-127.34 1652.1,-123.17 1657.12,-132.51 1661.84,-127.34"/>
<text text-anchor="middle" x="1719.94" y="-144.8" font-family="Times,serif" font-size="14.00">previous</text>
</g>
<!-- http://purl.org/dj/kaggle/loops&#45;and&#45;list&#45;comprehensions#25493666 -->
<g id="node11" class="node">
<title>http://purl.org/dj/kaggle/loops&#45;and&#45;list&#45;comprehensions#25493666</title>
<ellipse fill="none" stroke="black" cx="2249.44" cy="-105" rx="92.88" ry="18"/>
<text text-anchor="middle" x="2249.44" y="-101.3" font-family="Times,serif" font-size="14.00">25493666 ( (0): Reuse)</text>
</g>
<!-- http://purl.org/dj/kaggle/loops&#45;and&#45;list&#45;comprehensions#249692951&#45;&gt;http://purl.org/dj/kaggle/loops&#45;and&#45;list&#45;comprehensions#25493666 -->
<g id="edge14" class="edge">
<title>http://purl.org/dj/kaggle/loops&#45;and&#45;list&#45;comprehensions#249692951&#45;&gt;http://purl.org/dj/kaggle/loops&#45;and&#45;list&#45;comprehensions#25493666</title>
<path fill="none" stroke="black" d="M1909.46,-176.48C1984.53,-160.92 2103.09,-136.34 2178.52,-120.7"/>
<polygon fill="black" stroke="black" points="2179.33,-124.11 2188.41,-118.65 2177.91,-117.26 2179.33,-124.11"/>
<text text-anchor="middle" x="2092.94" y="-144.8" font-family="Times,serif" font-size="14.00">previous</text>
</g>
<!-- http://purl.org/dj/kaggle/loops&#45;and&#45;list&#45;comprehensions#44630251 -->
<g id="node12" class="node">
<title>http://purl.org/dj/kaggle/loops&#45;and&#45;list&#45;comprehensions#44630251</title>
<ellipse fill="none" stroke="black" cx="2453.44" cy="-105" rx="92.88" ry="18"/>
<text text-anchor="middle" x="2453.44" y="-101.3" font-family="Times,serif" font-size="14.00">44630251 (i(0): Reuse)</text>
</g>
<!-- http://purl.org/dj/kaggle/loops&#45;and&#45;list&#45;comprehensions#249692951&#45;&gt;http://purl.org/dj/kaggle/loops&#45;and&#45;list&#45;comprehensions#44630251 -->
<g id="edge15" class="edge">
<title>http://purl.org/dj/kaggle/loops&#45;and&#45;list&#45;comprehensions#249692951&#45;&gt;http://purl.org/dj/kaggle/loops&#45;and&#45;list&#45;comprehensions#44630251</title>
<path fill="none" stroke="black" d="M1936.71,-179.32C1990.83,-172.71 2059.41,-164.16 2120.44,-156 2223.24,-142.26 2248.95,-138.86 2351.44,-123 2359.39,-121.77 2367.68,-120.45 2375.94,-119.11"/>
<polygon fill="black" stroke="black" points="2376.69,-122.54 2385.99,-117.47 2375.56,-115.63 2376.69,-122.54"/>
<text text-anchor="middle" x="2251.94" y="-144.8" font-family="Times,serif" font-size="14.00">previous</text>
</g>
<!-- http://purl.org/dj/kaggle/loops&#45;and&#45;list&#45;comprehensions#17039490&#45;&gt;http://purl.org/dj/kaggle/loops&#45;and&#45;list&#45;comprehensions -->
<g id="edge16" class="edge">
<title>http://purl.org/dj/kaggle/loops&#45;and&#45;list&#45;comprehensions#17039490&#45;&gt;http://purl.org/dj/kaggle/loops&#45;and&#45;list&#45;comprehensions</title>
<path fill="none" stroke="black" d="M1905,-92.45C1916.47,-90.55 1928.29,-88.66 1939.44,-87 2001.93,-77.7 2020.75,-89.69 2080.44,-69 2092.68,-64.76 2093.45,-58.92 2105.44,-54 2124.67,-46.11 2146.1,-39.71 2166.43,-34.65"/>
<polygon fill="black" stroke="black" points="2167.4,-38.02 2176.31,-32.28 2165.77,-31.21 2167.4,-38.02"/>
<text text-anchor="middle" x="2128.94" y="-57.8" font-family="Times,serif" font-size="14.00">previous</text>
</g>
<!-- http://purl.org/dj/kaggle/loops&#45;and&#45;list&#45;comprehensions#30998711&#45;&gt;http://purl.org/dj/kaggle/loops&#45;and&#45;list&#45;comprehensions -->
<g id="edge17" class="edge">
<title>http://purl.org/dj/kaggle/loops&#45;and&#45;list&#45;comprehensions#30998711&#45;&gt;http://purl.org/dj/kaggle/loops&#45;and&#45;list&#45;comprehensions</title>
<path fill="none" stroke="black" d="M1702.17,-92.15C1714.53,-90.22 1727.36,-88.4 1739.44,-87 1854.5,-73.64 1887.69,-99.49 1999.44,-69 2013.82,-65.08 2015.25,-58.56 2029.44,-54 2064.87,-42.62 2104.74,-34.86 2140.71,-29.59"/>
<polygon fill="black" stroke="black" points="2141.33,-33.04 2150.74,-28.17 2140.35,-26.11 2141.33,-33.04"/>
<text text-anchor="middle" x="2052.94" y="-57.8" font-family="Times,serif" font-size="14.00">previous</text>
</g>
<!-- http://purl.org/dj/kaggle/loops&#45;and&#45;list&#45;comprehensions#25493666&#45;&gt;http://purl.org/dj/kaggle/loops&#45;and&#45;list&#45;comprehensions -->
<g id="edge18" class="edge">
<title>http://purl.org/dj/kaggle/loops&#45;and&#45;list&#45;comprehensions#25493666&#45;&gt;http://purl.org/dj/kaggle/loops&#45;and&#45;list&#45;comprehensions</title>
<path fill="none" stroke="black" d="M2249.44,-86.8C2249.44,-75.16 2249.44,-59.55 2249.44,-46.24"/>
<polygon fill="black" stroke="black" points="2252.94,-46.18 2249.44,-36.18 2245.94,-46.18 2252.94,-46.18"/>
<text text-anchor="middle" x="2272.94" y="-57.8" font-family="Times,serif" font-size="14.00">previous</text>
</g>
<!-- http://purl.org/dj/kaggle/loops&#45;and&#45;list&#45;comprehensions#44630251&#45;&gt;http://purl.org/dj/kaggle/loops&#45;and&#45;list&#45;comprehensions -->
<g id="edge19" class="edge">
<title>http://purl.org/dj/kaggle/loops&#45;and&#45;list&#45;comprehensions#44630251&#45;&gt;http://purl.org/dj/kaggle/loops&#45;and&#45;list&#45;comprehensions</title>
<path fill="none" stroke="black" d="M2416.02,-88.41C2382.66,-74.51 2333.63,-54.08 2297.39,-38.98"/>
<polygon fill="black" stroke="black" points="2298.58,-35.68 2288.01,-35.07 2295.89,-42.15 2298.58,-35.68"/>
<text text-anchor="middle" x="2387.94" y="-57.8" font-family="Times,serif" font-size="14.00">previous</text>
</g>
<!-- http://purl.org/dj/kaggle/loops&#45;and&#45;list&#45;comprehensions#291373830 -->
<g id="node13" class="node">
<title>http://purl.org/dj/kaggle/loops&#45;and&#45;list&#45;comprehensions#291373830</title>
<ellipse fill="none" stroke="black" cx="4643.44" cy="-105" rx="116.18" ry="18"/>
<text text-anchor="middle" x="4643.44" y="-101.3" font-family="Times,serif" font-size="14.00">291373830 (planet(0): Reuse)</text>
</g>
<!-- http://purl.org/dj/kaggle/loops&#45;and&#45;list&#45;comprehensions#291373830&#45;&gt;http://purl.org/dj/kaggle/loops&#45;and&#45;list&#45;comprehensions -->
<g id="edge20" class="edge">
<title>http://purl.org/dj/kaggle/loops&#45;and&#45;list&#45;comprehensions#291373830&#45;&gt;http://purl.org/dj/kaggle/loops&#45;and&#45;list&#45;comprehensions</title>
<path fill="none" stroke="black" d="M4562.21,-92.11C4547.34,-90.2 4531.94,-88.39 4517.44,-87 4263.52,-62.59 4199.33,-63.97 3944.44,-54 3360.32,-31.16 2662.34,-22.69 2378.74,-20.04"/>
<polygon fill="black" stroke="black" points="2378.45,-16.54 2368.42,-19.95 2378.39,-23.54 2378.45,-16.54"/>
<text text-anchor="middle" x="4322.94" y="-57.8" font-family="Times,serif" font-size="14.00">previous</text>
</g>
<!-- http://purl.org/dj/kaggle/loops&#45;and&#45;list&#45;comprehensions#29687986 -->
<g id="node14" class="node">
<title>http://purl.org/dj/kaggle/loops&#45;and&#45;list&#45;comprehensions#29687986</title>
<ellipse fill="none" stroke="black" cx="2659.44" cy="-105" rx="94.78" ry="18"/>
<text text-anchor="middle" x="2659.44" y="-101.3" font-family="Times,serif" font-size="14.00">29687986 (0(0): Reuse)</text>
</g>
<!-- http://purl.org/dj/kaggle/loops&#45;and&#45;list&#45;comprehensions#29687986&#45;&gt;http://purl.org/dj/kaggle/loops&#45;and&#45;list&#45;comprehensions -->
<g id="edge21" class="edge">
<title>http://purl.org/dj/kaggle/loops&#45;and&#45;list&#45;comprehensions#29687986&#45;&gt;http://purl.org/dj/kaggle/loops&#45;and&#45;list&#45;comprehensions</title>
<path fill="none" stroke="black" d="M2597.62,-91.18C2525.1,-76.15 2404.86,-51.22 2326.38,-34.95"/>
<polygon fill="black" stroke="black" points="2327.05,-31.52 2316.55,-32.91 2325.63,-38.37 2327.05,-31.52"/>
<text text-anchor="middle" x="2502.94" y="-57.8" font-family="Times,serif" font-size="14.00">previous</text>
</g>
<!-- http://purl.org/dj/kaggle/loops&#45;and&#45;list&#45;comprehensions#249561878 -->
<g id="node15" class="node">
<title>http://purl.org/dj/kaggle/loops&#45;and&#45;list&#45;comprehensions#249561878</title>
<ellipse fill="none" stroke="black" cx="4152.44" cy="-192" rx="136.48" ry="18"/>
<text text-anchor="middle" x="4152.44" y="-188.3" font-family="Times,serif" font-size="14.00">249561878 (print[0]: Visualisation)</text>
</g>
<!-- http://purl.org/dj/kaggle/loops&#45;and&#45;list&#45;comprehensions#249561878&#45;&gt;http://purl.org/dj/kaggle/loops&#45;and&#45;list&#45;comprehensions#291373830 -->
<g id="edge22" class="edge">
<title>http://purl.org/dj/kaggle/loops&#45;and&#45;list&#45;comprehensions#249561878&#45;&gt;http://purl.org/dj/kaggle/loops&#45;and&#45;list&#45;comprehensions#291373830</title>
<path fill="none" stroke="black" d="M4231.6,-177.3C4321.28,-161.77 4466.86,-136.57 4558.76,-120.66"/>
<polygon fill="black" stroke="black" points="4559.6,-124.07 4568.86,-118.91 4558.41,-117.17 4559.6,-124.07"/>
<text text-anchor="middle" x="4450.94" y="-144.8" font-family="Times,serif" font-size="14.00">previous</text>
</g>
<!-- http://purl.org/dj/kaggle/loops&#45;and&#45;list&#45;comprehensions#249561878&#45;&gt;http://purl.org/dj/kaggle/loops&#45;and&#45;list&#45;comprehensions#29687986 -->
<g id="edge23" class="edge">
<title>http://purl.org/dj/kaggle/loops&#45;and&#45;list&#45;comprehensions#249561878&#45;&gt;http://purl.org/dj/kaggle/loops&#45;and&#45;list&#45;comprehensions#29687986</title>
<path fill="none" stroke="black" d="M4016.99,-189.45C3768.07,-185.47 3221.42,-171.48 2763.44,-123 2754.42,-122.05 2745,-120.82 2735.66,-119.47"/>
<polygon fill="black" stroke="black" points="2736,-115.98 2725.59,-117.96 2734.96,-122.91 2736,-115.98"/>
<text text-anchor="middle" x="3167.94" y="-144.8" font-family="Times,serif" font-size="14.00">previous</text>
</g>
<!-- http://purl.org/dj/kaggle/loops&#45;and&#45;list&#45;comprehensions#2001626321 -->
<g id="node16" class="node">
<title>http://purl.org/dj/kaggle/loops&#45;and&#45;list&#45;comprehensions#2001626321</title>
<ellipse fill="none" stroke="black" cx="6038.44" cy="-105" rx="1260.78" ry="18"/>
<text text-anchor="middle" x="6038.44" y="-101.3" font-family="Times,serif" font-size="14.00">2001626321 ([&lt;_ast.Constant object at 0x1066054f0&gt;, &lt;_ast.Constant object at 0x106605910&gt;, &lt;_ast.Constant object at 0x12f841e20&gt;, &lt;_ast.Constant object at 0x12f841d90&gt;, &lt;_ast.Constant object at 0x12f8ab1c0&gt;, &lt;_ast.Constant object at 0x12f8ab0a0&gt;, &lt;_ast.Constant object at 0x12f8ab3d0&gt;, &lt;_ast.Constant object at 0x12f8ab250&gt;](0): Reuse)</text>
</g>
<!-- http://purl.org/dj/kaggle/loops&#45;and&#45;list&#45;comprehensions#249561878&#45;&gt;http://purl.org/dj/kaggle/loops&#45;and&#45;list&#45;comprehensions#2001626321 -->
<g id="edge24" class="edge">
<title>http://purl.org/dj/kaggle/loops&#45;and&#45;list&#45;comprehensions#249561878&#45;&gt;http://purl.org/dj/kaggle/loops&#45;and&#45;list&#45;comprehensions#2001626321</title>
<path fill="none" stroke="black" d="M4279.12,-185.29C4559.16,-172.67 5239.91,-141.99 5667.79,-122.7"/>
<polygon fill="black" stroke="black" points="5668.02,-126.2 5677.85,-122.25 5667.71,-119.21 5668.02,-126.2"/>
<text text-anchor="middle" x="5231.94" y="-144.8" font-family="Times,serif" font-size="14.00">previous</text>
</g>
<!-- http://purl.org/dj/kaggle/loops&#45;and&#45;list&#45;comprehensions#1131031561 -->
<g id="node17" class="node">
<title>http://purl.org/dj/kaggle/loops&#45;and&#45;list&#45;comprehensions#1131031561</title>
<ellipse fill="none" stroke="black" cx="3317.44" cy="-105" rx="545.1" ry="18"/>
<text text-anchor="middle" x="3317.44" y="-101.3" font-family="Times,serif" font-size="14.00">1131031561 (steganograpHy is the practicE of conceaLing a file, message, image, or video within another fiLe, message, image, Or video.(0): Reuse)</text>
</g>
<!-- http://purl.org/dj/kaggle/loops&#45;and&#45;list&#45;comprehensions#249561878&#45;&gt;http://purl.org/dj/kaggle/loops&#45;and&#45;list&#45;comprehensions#1131031561 -->
<g id="edge25" class="edge">
<title>http://purl.org/dj/kaggle/loops&#45;and&#45;list&#45;comprehensions#249561878&#45;&gt;http://purl.org/dj/kaggle/loops&#45;and&#45;list&#45;comprehensions#1131031561</title>
<path fill="none" stroke="black" d="M4047.96,-180.36C3907.3,-166.05 3655.33,-140.4 3487.25,-123.29"/>
<polygon fill="black" stroke="black" points="3487.36,-119.78 3477.06,-122.25 3486.65,-126.74 3487.36,-119.78"/>
<text text-anchor="middle" x="3808.94" y="-144.8" font-family="Times,serif" font-size="14.00">previous</text>
</g>
<!-- http://purl.org/dj/kaggle/loops&#45;and&#45;list&#45;comprehensions#165282336 -->
<g id="node18" class="node">
<title>http://purl.org/dj/kaggle/loops&#45;and&#45;list&#45;comprehensions#165282336</title>
<ellipse fill="none" stroke="black" cx="3991.44" cy="-105" rx="110.48" ry="18"/>
<text text-anchor="middle" x="3991.44" y="-101.3" font-family="Times,serif" font-size="14.00">165282336 (char(0): Reuse)</text>
</g>
<!-- http://purl.org/dj/kaggle/loops&#45;and&#45;list&#45;comprehensions#249561878&#45;&gt;http://purl.org/dj/kaggle/loops&#45;and&#45;list&#45;comprehensions#165282336 -->
<g id="edge26" class="edge">
<title>http://purl.org/dj/kaggle/loops&#45;and&#45;list&#45;comprehensions#249561878&#45;&gt;http://purl.org/dj/kaggle/loops&#45;and&#45;list&#45;comprehensions#165282336</title>
<path fill="none" stroke="black" d="M4121.02,-174.41C4095.45,-160.91 4059.2,-141.77 4031.54,-127.17"/>
<polygon fill="black" stroke="black" points="4032.99,-123.98 4022.51,-122.4 4029.72,-130.17 4032.99,-123.98"/>
<text text-anchor="middle" x="4105.94" y="-144.8" font-family="Times,serif" font-size="14.00">previous</text>
</g>
<!-- http://purl.org/dj/kaggle/loops&#45;and&#45;list&#45;comprehensions#2520910184 -->
<g id="node19" class="node">
<title>http://purl.org/dj/kaggle/loops&#45;and&#45;list&#45;comprehensions#2520910184</title>
<ellipse fill="none" stroke="black" cx="4314.44" cy="-105" rx="194.17" ry="18"/>
<text text-anchor="middle" x="4314.44" y="-101.3" font-family="Times,serif" font-size="14.00">2520910184 (Doing important work. i =(0): Reuse)</text>
</g>
<!-- http://purl.org/dj/kaggle/loops&#45;and&#45;list&#45;comprehensions#249561878&#45;&gt;http://purl.org/dj/kaggle/loops&#45;and&#45;list&#45;comprehensions#2520910184 -->
<g id="edge27" class="edge">
<title>http://purl.org/dj/kaggle/loops&#45;and&#45;list&#45;comprehensions#249561878&#45;&gt;http://purl.org/dj/kaggle/loops&#45;and&#45;list&#45;comprehensions#2520910184</title>
<path fill="none" stroke="black" d="M4184.06,-174.41C4209.54,-161.04 4245.56,-142.14 4273.29,-127.59"/>
<polygon fill="black" stroke="black" points="4275.12,-130.58 4282.35,-122.84 4271.87,-124.39 4275.12,-130.58"/>
<text text-anchor="middle" x="4266.94" y="-144.8" font-family="Times,serif" font-size="14.00">previous</text>
</g>
<!-- http://purl.org/dj/kaggle/loops&#45;and&#45;list&#45;comprehensions#2001626321&#45;&gt;http://purl.org/dj/kaggle/loops&#45;and&#45;list&#45;comprehensions -->
<g id="edge28" class="edge">
<title>http://purl.org/dj/kaggle/loops&#45;and&#45;list&#45;comprehensions#2001626321&#45;&gt;http://purl.org/dj/kaggle/loops&#45;and&#45;list&#45;comprehensions</title>
<path fill="none" stroke="black" d="M5564.18,-88.31C5225.9,-77.52 4760.24,-63.48 4350.44,-54 3603.46,-36.72 2706.89,-24.68 2378.24,-20.57"/>
<polygon fill="black" stroke="black" points="2378.25,-17.07 2368.21,-20.44 2378.16,-24.06 2378.25,-17.07"/>
<text text-anchor="middle" x="4931.94" y="-57.8" font-family="Times,serif" font-size="14.00">previous</text>
</g>
<!-- http://purl.org/dj/kaggle/loops&#45;and&#45;list&#45;comprehensions#1131031561&#45;&gt;http://purl.org/dj/kaggle/loops&#45;and&#45;list&#45;comprehensions -->
<g id="edge29" class="edge">
<title>http://purl.org/dj/kaggle/loops&#45;and&#45;list&#45;comprehensions#1131031561&#45;&gt;http://purl.org/dj/kaggle/loops&#45;and&#45;list&#45;comprehensions</title>
<path fill="none" stroke="black" d="M3119.06,-88.21C2896.3,-70.48 2542.51,-42.33 2362.57,-28"/>
<polygon fill="black" stroke="black" points="2362.8,-24.51 2352.55,-27.21 2362.25,-31.49 2362.8,-24.51"/>
<text text-anchor="middle" x="2870.94" y="-57.8" font-family="Times,serif" font-size="14.00">previous</text>
</g>
<!-- http://purl.org/dj/kaggle/loops&#45;and&#45;list&#45;comprehensions#165282336&#45;&gt;http://purl.org/dj/kaggle/loops&#45;and&#45;list&#45;comprehensions -->
<g id="edge30" class="edge">
<title>http://purl.org/dj/kaggle/loops&#45;and&#45;list&#45;comprehensions#165282336&#45;&gt;http://purl.org/dj/kaggle/loops&#45;and&#45;list&#45;comprehensions</title>
<path fill="none" stroke="black" d="M3914.75,-91.99C3900.39,-90.06 3885.48,-88.29 3871.44,-87 3317.47,-36.27 2653.55,-23.35 2378.52,-20.08"/>
<polygon fill="black" stroke="black" points="2378.54,-16.58 2368.5,-19.97 2378.46,-23.58 2378.54,-16.58"/>
<text text-anchor="middle" x="3630.94" y="-57.8" font-family="Times,serif" font-size="14.00">previous</text>
</g>
<!-- http://purl.org/dj/kaggle/loops&#45;and&#45;list&#45;comprehensions#2520910184&#45;&gt;http://purl.org/dj/kaggle/loops&#45;and&#45;list&#45;comprehensions -->
<g id="edge31" class="edge">
<title>http://purl.org/dj/kaggle/loops&#45;and&#45;list&#45;comprehensions#2520910184&#45;&gt;http://purl.org/dj/kaggle/loops&#45;and&#45;list&#45;comprehensions</title>
<path fill="none" stroke="black" d="M4182.02,-91.78C4049.62,-80.06 3840.12,-62.88 3658.44,-54 3187.47,-30.97 2627.16,-22.78 2378.88,-20.14"/>
<polygon fill="black" stroke="black" points="2378.77,-16.64 2368.74,-20.03 2378.7,-23.64 2378.77,-16.64"/>
<text text-anchor="middle" x="3916.94" y="-57.8" font-family="Times,serif" font-size="14.00">previous</text>
</g>
<!-- http://purl.org/dj/kaggle/loops&#45;and&#45;list&#45;comprehensions#496829400 -->
<g id="node20" class="node">
<title>http://purl.org/dj/kaggle/loops&#45;and&#45;list&#45;comprehensions#496829400</title>
<ellipse fill="none" stroke="black" cx="1427.44" cy="-192" rx="149.47" ry="18"/>
<text text-anchor="middle" x="1427.44" y="-188.3" font-family="Times,serif" font-size="14.00">496829400 (product(0)$1: Preparation)</text>
</g>
<!-- http://purl.org/dj/kaggle/loops&#45;and&#45;list&#45;comprehensions#496829400&#45;&gt;http://purl.org/dj/kaggle/loops&#45;and&#45;list&#45;comprehensions#30212276 -->
<g id="edge32" class="edge">
<title>http://purl.org/dj/kaggle/loops&#45;and&#45;list&#45;comprehensions#496829400&#45;&gt;http://purl.org/dj/kaggle/loops&#45;and&#45;list&#45;comprehensions#30212276</title>
<path fill="none" stroke="black" d="M1280.98,-188.23C1179.26,-184.52 1040.9,-175.91 920.44,-156 874.95,-148.48 824.51,-134.86 787.19,-123.73"/>
<polygon fill="black" stroke="black" points="788.1,-120.35 777.51,-120.82 786.07,-127.05 788.1,-120.35"/>
<text text-anchor="middle" x="943.94" y="-144.8" font-family="Times,serif" font-size="14.00">previous</text>
</g>
<!-- http://purl.org/dj/kaggle/loops&#45;and&#45;list&#45;comprehensions#496829400&#45;&gt;http://purl.org/dj/kaggle/loops&#45;and&#45;list&#45;comprehensions#30998711 -->
<g id="edge33" class="edge">
<title>http://purl.org/dj/kaggle/loops&#45;and&#45;list&#45;comprehensions#496829400&#45;&gt;http://purl.org/dj/kaggle/loops&#45;and&#45;list&#45;comprehensions#30998711</title>
<path fill="none" stroke="black" d="M1464.97,-174.55C1487.85,-164.62 1517.73,-151.84 1544.44,-141 1557.57,-135.67 1571.84,-130.09 1585.1,-124.98"/>
<polygon fill="black" stroke="black" points="1586.46,-128.21 1594.55,-121.36 1583.96,-121.67 1586.46,-128.21"/>
<text text-anchor="middle" x="1567.94" y="-144.8" font-family="Times,serif" font-size="14.00">previous</text>
</g>
<!-- http://purl.org/dj/kaggle/loops&#45;and&#45;list&#45;comprehensions#30474421 -->
<g id="node21" class="node">
<title>http://purl.org/dj/kaggle/loops&#45;and&#45;list&#45;comprehensions#30474421</title>
<ellipse fill="none" stroke="black" cx="1427.44" cy="-105" rx="94.78" ry="18"/>
<text text-anchor="middle" x="1427.44" y="-101.3" font-family="Times,serif" font-size="14.00">30474421 (3(0): Reuse)</text>
</g>
<!-- http://purl.org/dj/kaggle/loops&#45;and&#45;list&#45;comprehensions#496829400&#45;&gt;http://purl.org/dj/kaggle/loops&#45;and&#45;list&#45;comprehensions#30474421 -->
<g id="edge34" class="edge">
<title>http://purl.org/dj/kaggle/loops&#45;and&#45;list&#45;comprehensions#496829400&#45;&gt;http://purl.org/dj/kaggle/loops&#45;and&#45;list&#45;comprehensions#30474421</title>
<path fill="none" stroke="black" d="M1427.44,-173.8C1427.44,-162.16 1427.44,-146.55 1427.44,-133.24"/>
<polygon fill="black" stroke="black" points="1430.94,-133.18 1427.44,-123.18 1423.94,-133.18 1430.94,-133.18"/>
<text text-anchor="middle" x="1450.94" y="-144.8" font-family="Times,serif" font-size="14.00">previous</text>
</g>
<!-- http://purl.org/dj/kaggle/loops&#45;and&#45;list&#45;comprehensions#29950131 -->
<g id="node22" class="node">
<title>http://purl.org/dj/kaggle/loops&#45;and&#45;list&#45;comprehensions#29950131</title>
<ellipse fill="none" stroke="black" cx="2043.44" cy="-105" rx="94.78" ry="18"/>
<text text-anchor="middle" x="2043.44" y="-101.3" font-family="Times,serif" font-size="14.00">29950131 (1(0): Reuse)</text>
</g>
<!-- http://purl.org/dj/kaggle/loops&#45;and&#45;list&#45;comprehensions#496829400&#45;&gt;http://purl.org/dj/kaggle/loops&#45;and&#45;list&#45;comprehensions#29950131 -->
<g id="edge35" class="edge">
<title>http://purl.org/dj/kaggle/loops&#45;and&#45;list&#45;comprehensions#496829400&#45;&gt;http://purl.org/dj/kaggle/loops&#45;and&#45;list&#45;comprehensions#29950131</title>
<path fill="none" stroke="black" d="M1556.83,-182.88C1614.42,-177.68 1682.79,-169.31 1743.44,-156 1764.03,-151.48 1767.87,-145.6 1788.44,-141 1854.4,-126.24 1872.52,-132.45 1939.44,-123 1947.77,-121.82 1956.47,-120.52 1965.13,-119.17"/>
<polygon fill="black" stroke="black" points="1965.92,-122.59 1975.26,-117.58 1964.83,-115.68 1965.92,-122.59"/>
<text text-anchor="middle" x="1811.94" y="-144.8" font-family="Times,serif" font-size="14.00">previous</text>
</g>
<!-- http://purl.org/dj/kaggle/loops&#45;and&#45;list&#45;comprehensions#179110468 -->
<g id="node23" class="node">
<title>http://purl.org/dj/kaggle/loops&#45;and&#45;list&#45;comprehensions#179110468</title>
<ellipse fill="none" stroke="black" cx="956.44" cy="-105" rx="111.58" ry="18"/>
<text text-anchor="middle" x="956.44" y="-101.3" font-family="Times,serif" font-size="14.00">179110468 (mult(0): Reuse)</text>
</g>
<!-- http://purl.org/dj/kaggle/loops&#45;and&#45;list&#45;comprehensions#496829400&#45;&gt;http://purl.org/dj/kaggle/loops&#45;and&#45;list&#45;comprehensions#179110468 -->
<g id="edge36" class="edge">
<title>http://purl.org/dj/kaggle/loops&#45;and&#45;list&#45;comprehensions#496829400&#45;&gt;http://purl.org/dj/kaggle/loops&#45;and&#45;list&#45;comprehensions#179110468</title>
<path fill="none" stroke="black" d="M1348.34,-176.72C1262.18,-161.18 1125.04,-136.43 1037.95,-120.71"/>
<polygon fill="black" stroke="black" points="1038.57,-117.26 1028.11,-118.93 1037.33,-124.15 1038.57,-117.26"/>
<text text-anchor="middle" x="1243.94" y="-144.8" font-family="Times,serif" font-size="14.00">previous</text>
</g>
<!-- http://purl.org/dj/kaggle/loops&#45;and&#45;list&#45;comprehensions#30474421&#45;&gt;http://purl.org/dj/kaggle/loops&#45;and&#45;list&#45;comprehensions -->
<g id="edge37" class="edge">
<title>http://purl.org/dj/kaggle/loops&#45;and&#45;list&#45;comprehensions#30474421&#45;&gt;http://purl.org/dj/kaggle/loops&#45;and&#45;list&#45;comprehensions</title>
<path fill="none" stroke="black" d="M1493.59,-92.03C1506.12,-90.09 1519.16,-88.29 1531.44,-87 1697.38,-69.51 1742.76,-101.41 1906.44,-69 1925.89,-65.15 1929.14,-58.51 1948.44,-54 2007.64,-40.18 2074.73,-31.7 2130.52,-26.56"/>
<polygon fill="black" stroke="black" points="2131.15,-30.02 2140.8,-25.64 2130.53,-23.05 2131.15,-30.02"/>
<text text-anchor="middle" x="1971.94" y="-57.8" font-family="Times,serif" font-size="14.00">previous</text>
</g>
<!-- http://purl.org/dj/kaggle/loops&#45;and&#45;list&#45;comprehensions#29950131&#45;&gt;http://purl.org/dj/kaggle/loops&#45;and&#45;list&#45;comprehensions -->
<g id="edge38" class="edge">
<title>http://purl.org/dj/kaggle/loops&#45;and&#45;list&#45;comprehensions#29950131&#45;&gt;http://purl.org/dj/kaggle/loops&#45;and&#45;list&#45;comprehensions</title>
<path fill="none" stroke="black" d="M2096.23,-89.95C2115.47,-84.23 2137.22,-77.06 2156.44,-69 2175.7,-60.93 2196.23,-50.14 2213.09,-40.65"/>
<polygon fill="black" stroke="black" points="2215.1,-43.54 2222.05,-35.54 2211.63,-37.46 2215.1,-43.54"/>
<text text-anchor="middle" x="2211.94" y="-57.8" font-family="Times,serif" font-size="14.00">previous</text>
</g>
<!-- http://purl.org/dj/kaggle/loops&#45;and&#45;list&#45;comprehensions#179110468&#45;&gt;http://purl.org/dj/kaggle/loops&#45;and&#45;list&#45;comprehensions -->
<g id="edge39" class="edge">
<title>http://purl.org/dj/kaggle/loops&#45;and&#45;list&#45;comprehensions#179110468&#45;&gt;http://purl.org/dj/kaggle/loops&#45;and&#45;list&#45;comprehensions</title>
<path fill="none" stroke="black" d="M1033.44,-91.92C1048.02,-89.99 1063.18,-88.23 1077.44,-87 1322.44,-65.86 1385.4,-89.64 1630.44,-69 1679.61,-64.86 1691.36,-59.03 1740.44,-54 1872.51,-40.47 2024.41,-30.79 2127.65,-25.08"/>
<polygon fill="black" stroke="black" points="2128.01,-28.57 2137.8,-24.52 2127.62,-21.58 2128.01,-28.57"/>
<text text-anchor="middle" x="1763.94" y="-57.8" font-family="Times,serif" font-size="14.00">previous</text>
</g>
<!-- http://purl.org/dj/kaggle/loops&#45;and&#45;list&#45;comprehensions#25755811 -->
<g id="node24" class="node">
<title>http://purl.org/dj/kaggle/loops&#45;and&#45;list&#45;comprehensions#25755811</title>
<ellipse fill="none" stroke="black" cx="7410.44" cy="-105" rx="93.68" ry="18"/>
<text text-anchor="middle" x="7410.44" y="-101.3" font-family="Times,serif" font-size="14.00">25755811 (!(0): Reuse)</text>
</g>
<!-- http://purl.org/dj/kaggle/loops&#45;and&#45;list&#45;comprehensions#25755811&#45;&gt;http://purl.org/dj/kaggle/loops&#45;and&#45;list&#45;comprehensions -->
<g id="edge40" class="edge">
<title>http://purl.org/dj/kaggle/loops&#45;and&#45;list&#45;comprehensions#25755811&#45;&gt;http://purl.org/dj/kaggle/loops&#45;and&#45;list&#45;comprehensions</title>
<path fill="none" stroke="black" d="M7346.43,-91.81C7333.88,-89.85 7320.78,-88.11 7308.44,-87 6805.22,-41.79 3120,-22.92 2379.01,-19.56"/>
<polygon fill="black" stroke="black" points="2378.86,-16.06 2368.84,-19.51 2378.83,-23.06 2378.86,-16.06"/>
<text text-anchor="middle" x="6887.94" y="-57.8" font-family="Times,serif" font-size="14.00">previous</text>
</g>
<!-- http://purl.org/dj/kaggle/loops&#45;and&#45;list&#45;comprehensions#83362112 -->
<g id="node25" class="node">
<title>http://purl.org/dj/kaggle/loops&#45;and&#45;list&#45;comprehensions#83362112</title>
<ellipse fill="none" stroke="black" cx="2525.44" cy="-192" rx="120.78" ry="18"/>
<text text-anchor="middle" x="2525.44" y="-188.3" font-family="Times,serif" font-size="14.00">83362112 (i(0)$1: Preparation)</text>
</g>
<!-- http://purl.org/dj/kaggle/loops&#45;and&#45;list&#45;comprehensions#83362112&#45;&gt;http://purl.org/dj/kaggle/loops&#45;and&#45;list&#45;comprehensions#29687986 -->
<g id="edge41" class="edge">
<title>http://purl.org/dj/kaggle/loops&#45;and&#45;list&#45;comprehensions#83362112&#45;&gt;http://purl.org/dj/kaggle/loops&#45;and&#45;list&#45;comprehensions#29687986</title>
<path fill="none" stroke="black" d="M2551.6,-174.41C2572.44,-161.19 2601.81,-142.56 2624.64,-128.07"/>
<polygon fill="black" stroke="black" points="2626.78,-130.86 2633.35,-122.55 2623.03,-124.95 2626.78,-130.86"/>
<text text-anchor="middle" x="2624.94" y="-144.8" font-family="Times,serif" font-size="14.00">previous</text>
</g>
<!-- http://purl.org/dj/kaggle/loops&#45;and&#45;list&#45;comprehensions#83362112&#45;&gt;http://purl.org/dj/kaggle/loops&#45;and&#45;list&#45;comprehensions#29950131 -->
<g id="edge42" class="edge">
<title>http://purl.org/dj/kaggle/loops&#45;and&#45;list&#45;comprehensions#83362112&#45;&gt;http://purl.org/dj/kaggle/loops&#45;and&#45;list&#45;comprehensions#29950131</title>
<path fill="none" stroke="black" d="M2480.13,-175.29C2445.56,-163.94 2396.54,-149.23 2352.44,-141 2262.53,-124.22 2238.19,-134.39 2147.44,-123 2138.8,-121.92 2129.78,-120.65 2120.82,-119.3"/>
<polygon fill="black" stroke="black" points="2121.16,-115.81 2110.75,-117.75 2120.1,-122.73 2121.16,-115.81"/>
<text text-anchor="middle" x="2438.94" y="-144.8" font-family="Times,serif" font-size="14.00">previous</text>
</g>
<!-- http://purl.org/dj/kaggle/loops&#45;and&#45;list&#45;comprehensions#31260856 -->
<g id="node26" class="node">
<title>http://purl.org/dj/kaggle/loops&#45;and&#45;list&#45;comprehensions#31260856</title>
<ellipse fill="none" stroke="black" cx="7616.44" cy="-105" rx="94.78" ry="18"/>
<text text-anchor="middle" x="7616.44" y="-101.3" font-family="Times,serif" font-size="14.00">31260856 (6(0): Reuse)</text>
</g>
<!-- http://purl.org/dj/kaggle/loops&#45;and&#45;list&#45;comprehensions#31260856&#45;&gt;http://purl.org/dj/kaggle/loops&#45;and&#45;list&#45;comprehensions -->
<g id="edge43" class="edge">
<title>http://purl.org/dj/kaggle/loops&#45;and&#45;list&#45;comprehensions#31260856&#45;&gt;http://purl.org/dj/kaggle/loops&#45;and&#45;list&#45;comprehensions</title>
<path fill="none" stroke="black" d="M7550.37,-92.01C7538.13,-90.09 7525.42,-88.32 7513.44,-87 7248.85,-57.95 7181.49,-62.33 6915.44,-54 5996.09,-25.2 3036.25,-19.95 2379.38,-19.14"/>
<polygon fill="black" stroke="black" points="2378.94,-15.64 2368.94,-19.12 2378.93,-22.64 2378.94,-15.64"/>
<text text-anchor="middle" x="7340.94" y="-57.8" font-family="Times,serif" font-size="14.00">previous</text>
</g>
<!-- http://purl.org/dj/kaggle/loops&#45;and&#45;list&#45;comprehensions#121635265 -->
<g id="node27" class="node">
<title>http://purl.org/dj/kaggle/loops&#45;and&#45;list&#45;comprehensions#121635265</title>
<ellipse fill="none" stroke="black" cx="7835.44" cy="-105" rx="105.88" ry="18"/>
<text text-anchor="middle" x="7835.44" y="-101.3" font-family="Times,serif" font-size="14.00">121635265 (len(0): Reuse)</text>
</g>
<!-- http://purl.org/dj/kaggle/loops&#45;and&#45;list&#45;comprehensions#121635265&#45;&gt;http://purl.org/dj/kaggle/loops&#45;and&#45;list&#45;comprehensions -->
<g id="edge44" class="edge">
<title>http://purl.org/dj/kaggle/loops&#45;and&#45;list&#45;comprehensions#121635265&#45;&gt;http://purl.org/dj/kaggle/loops&#45;and&#45;list&#45;comprehensions</title>
<path fill="none" stroke="black" d="M7760.05,-92.27C7746.86,-90.38 7733.26,-88.55 7720.44,-87 7564.44,-68.17 7525.37,-61.88 7368.44,-54 6857.6,-28.36 3126.01,-20.53 2379.29,-19.21"/>
<polygon fill="black" stroke="black" points="2379.05,-15.71 2369.05,-19.2 2379.04,-22.71 2379.05,-15.71"/>
<text text-anchor="middle" x="7590.94" y="-57.8" font-family="Times,serif" font-size="14.00">previous</text>
</g>
</g>
</svg>
