<?xml version="1.0" encoding="UTF-8" standalone="no"?>
<!DOCTYPE svg PUBLIC "-//W3C//DTD SVG 1.1//EN"
 "http://www.w3.org/Graphics/SVG/1.1/DTD/svg11.dtd">
<!-- Generated by graphviz version 2.44.1 (20200629.0846)
 -->
<!-- Pages: 1 -->
<svg width="7950pt" height="218pt"
 viewBox="0.00 0.00 7950.19 218.00" xmlns="http://www.w3.org/2000/svg" xmlns:xlink="http://www.w3.org/1999/xlink">
<g id="graph0" class="graph" transform="scale(1 1) rotate(0) translate(4 214)">
<polygon fill="white" stroke="transparent" points="-4,4 -4,-214 7946.19,-214 7946.19,4 -4,4"/>
<!-- http://purl.org/dj/kaggle/loops&#45;and&#45;list&#45;comprehensions&#45;daily#249561878 -->
<g id="node1" class="node">
<title>http://purl.org/dj/kaggle/loops&#45;and&#45;list&#45;comprehensions&#45;daily#249561878</title>
<ellipse fill="none" stroke="black" cx="2839.3" cy="-192" rx="136.48" ry="18"/>
<text text-anchor="middle" x="2839.3" y="-188.3" font-family="Times,serif" font-size="14.00">249561878 (print[0]: Visualisation)</text>
</g>
<!-- http://purl.org/dj/kaggle/loops&#45;and&#45;list&#45;comprehensions&#45;daily#650732481 -->
<g id="node2" class="node">
<title>http://purl.org/dj/kaggle/loops&#45;and&#45;list&#45;comprehensions&#45;daily#650732481</title>
<ellipse fill="none" stroke="black" cx="3015.3" cy="-105" rx="1260.78" ry="18"/>
<text text-anchor="middle" x="3015.3" y="-101.3" font-family="Times,serif" font-size="14.00">650732481 ([&lt;_ast.Constant object at 0x1066e37c0&gt;, &lt;_ast.Constant object at 0x1066e3850&gt;, &lt;_ast.Constant object at 0x106750a60&gt;, &lt;_ast.Constant object at 0x106750a30&gt;, &lt;_ast.Constant object at 0x106750a90&gt;, &lt;_ast.Constant object at 0x106750af0&gt;, &lt;_ast.Constant object at 0x12f8ab790&gt;, &lt;_ast.Constant object at 0x12f8ab190&gt;](0): Reuse)</text>
</g>
<!-- http://purl.org/dj/kaggle/loops&#45;and&#45;list&#45;comprehensions&#45;daily#249561878&#45;&gt;http://purl.org/dj/kaggle/loops&#45;and&#45;list&#45;comprehensions&#45;daily#650732481 -->
<g id="edge1" class="edge">
<title>http://purl.org/dj/kaggle/loops&#45;and&#45;list&#45;comprehensions&#45;daily#249561878&#45;&gt;http://purl.org/dj/kaggle/loops&#45;and&#45;list&#45;comprehensions&#45;daily#650732481</title>
<path fill="none" stroke="black" d="M2873.65,-174.41C2901.4,-161.01 2940.64,-142.06 2970.79,-127.5"/>
<polygon fill="black" stroke="black" points="2972.35,-130.63 2979.83,-123.13 2969.3,-124.33 2972.35,-130.63"/>
<text text-anchor="middle" x="2961.8" y="-144.8" font-family="Times,serif" font-size="14.00">previous</text>
</g>
<!-- http://purl.org/dj/kaggle/loops&#45;and&#45;list&#45;comprehensions&#45;daily#29687986 -->
<g id="node3" class="node">
<title>http://purl.org/dj/kaggle/loops&#45;and&#45;list&#45;comprehensions&#45;daily#29687986</title>
<ellipse fill="none" stroke="black" cx="4639.3" cy="-105" rx="94.78" ry="18"/>
<text text-anchor="middle" x="4639.3" y="-101.3" font-family="Times,serif" font-size="14.00">29687986 (0(0): Reuse)</text>
</g>
<!-- http://purl.org/dj/kaggle/loops&#45;and&#45;list&#45;comprehensions&#45;daily#249561878&#45;&gt;http://purl.org/dj/kaggle/loops&#45;and&#45;list&#45;comprehensions&#45;daily#29687986 -->
<g id="edge2" class="edge">
<title>http://purl.org/dj/kaggle/loops&#45;and&#45;list&#45;comprehensions&#45;daily#249561878&#45;&gt;http://purl.org/dj/kaggle/loops&#45;and&#45;list&#45;comprehensions&#45;daily#29687986</title>
<path fill="none" stroke="black" d="M2974.68,-189.37C3205.68,-186.12 3690.76,-177.21 4100.3,-156 4293.93,-145.97 4342.78,-145.99 4535.3,-123 4544.01,-121.96 4553.11,-120.71 4562.14,-119.37"/>
<polygon fill="black" stroke="black" points="4562.93,-122.79 4572.29,-117.83 4561.88,-115.87 4562.93,-122.79"/>
<text text-anchor="middle" x="4385.8" y="-144.8" font-family="Times,serif" font-size="14.00">previous</text>
</g>
<!-- http://purl.org/dj/kaggle/loops&#45;and&#45;list&#45;comprehensions&#45;daily#291373830 -->
<g id="node4" class="node">
<title>http://purl.org/dj/kaggle/loops&#45;and&#45;list&#45;comprehensions&#45;daily#291373830</title>
<ellipse fill="none" stroke="black" cx="4410.3" cy="-105" rx="116.18" ry="18"/>
<text text-anchor="middle" x="4410.3" y="-101.3" font-family="Times,serif" font-size="14.00">291373830 (planet(0): Reuse)</text>
</g>
<!-- http://purl.org/dj/kaggle/loops&#45;and&#45;list&#45;comprehensions&#45;daily#249561878&#45;&gt;http://purl.org/dj/kaggle/loops&#45;and&#45;list&#45;comprehensions&#45;daily#291373830 -->
<g id="edge3" class="edge">
<title>http://purl.org/dj/kaggle/loops&#45;and&#45;list&#45;comprehensions&#45;daily#249561878&#45;&gt;http://purl.org/dj/kaggle/loops&#45;and&#45;list&#45;comprehensions&#45;daily#291373830</title>
<path fill="none" stroke="black" d="M2973.64,-188.64C3229.42,-183.26 3803.83,-166.97 4285.3,-123 4296.44,-121.98 4308.1,-120.7 4319.64,-119.29"/>
<polygon fill="black" stroke="black" points="4320.24,-122.74 4329.73,-118.02 4319.37,-115.79 4320.24,-122.74"/>
<text text-anchor="middle" x="4072.8" y="-144.8" font-family="Times,serif" font-size="14.00">previous</text>
</g>
<!-- http://purl.org/dj/kaggle/loops&#45;and&#45;list&#45;comprehensions&#45;daily#1131031561 -->
<g id="node5" class="node">
<title>http://purl.org/dj/kaggle/loops&#45;and&#45;list&#45;comprehensions&#45;daily#1131031561</title>
<ellipse fill="none" stroke="black" cx="545.3" cy="-105" rx="545.1" ry="18"/>
<text text-anchor="middle" x="545.3" y="-101.3" font-family="Times,serif" font-size="14.00">1131031561 (steganograpHy is the practicE of conceaLing a file, message, image, or video within another fiLe, message, image, Or video.(0): Reuse)</text>
</g>
<!-- http://purl.org/dj/kaggle/loops&#45;and&#45;list&#45;comprehensions&#45;daily#249561878&#45;&gt;http://purl.org/dj/kaggle/loops&#45;and&#45;list&#45;comprehensions&#45;daily#1131031561 -->
<g id="edge4" class="edge">
<title>http://purl.org/dj/kaggle/loops&#45;and&#45;list&#45;comprehensions&#45;daily#249561878&#45;&gt;http://purl.org/dj/kaggle/loops&#45;and&#45;list&#45;comprehensions&#45;daily#1131031561</title>
<path fill="none" stroke="black" d="M2706.44,-187.75C2487.24,-182.23 2036.09,-170.24 1654.3,-156 1380.09,-145.77 1067.87,-131.45 844.73,-120.76"/>
<polygon fill="black" stroke="black" points="844.66,-117.25 834.51,-120.27 844.33,-124.25 844.66,-117.25"/>
<text text-anchor="middle" x="1677.8" y="-144.8" font-family="Times,serif" font-size="14.00">previous</text>
</g>
<!-- http://purl.org/dj/kaggle/loops&#45;and&#45;list&#45;comprehensions&#45;daily#2520910184 -->
<g id="node6" class="node">
<title>http://purl.org/dj/kaggle/loops&#45;and&#45;list&#45;comprehensions&#45;daily#2520910184</title>
<ellipse fill="none" stroke="black" cx="1303.3" cy="-105" rx="194.17" ry="18"/>
<text text-anchor="middle" x="1303.3" y="-101.3" font-family="Times,serif" font-size="14.00">2520910184 (Doing important work. i =(0): Reuse)</text>
</g>
<!-- http://purl.org/dj/kaggle/loops&#45;and&#45;list&#45;comprehensions&#45;daily#249561878&#45;&gt;http://purl.org/dj/kaggle/loops&#45;and&#45;list&#45;comprehensions&#45;daily#2520910184 -->
<g id="edge5" class="edge">
<title>http://purl.org/dj/kaggle/loops&#45;and&#45;list&#45;comprehensions&#45;daily#249561878&#45;&gt;http://purl.org/dj/kaggle/loops&#45;and&#45;list&#45;comprehensions&#45;daily#2520910184</title>
<path fill="none" stroke="black" d="M2706.29,-187.94C2524.73,-183.33 2189.18,-173.25 1903.3,-156 1745.24,-146.46 1564.14,-130.7 1442.62,-119.43"/>
<polygon fill="black" stroke="black" points="1442.79,-115.93 1432.51,-118.49 1442.14,-122.9 1442.79,-115.93"/>
<text text-anchor="middle" x="1926.8" y="-144.8" font-family="Times,serif" font-size="14.00">previous</text>
</g>
<!-- http://purl.org/dj/kaggle/loops&#45;and&#45;list&#45;comprehensions&#45;daily#165282336 -->
<g id="node7" class="node">
<title>http://purl.org/dj/kaggle/loops&#45;and&#45;list&#45;comprehensions&#45;daily#165282336</title>
<ellipse fill="none" stroke="black" cx="1626.3" cy="-105" rx="110.48" ry="18"/>
<text text-anchor="middle" x="1626.3" y="-101.3" font-family="Times,serif" font-size="14.00">165282336 (char(0): Reuse)</text>
</g>
<!-- http://purl.org/dj/kaggle/loops&#45;and&#45;list&#45;comprehensions&#45;daily#249561878&#45;&gt;http://purl.org/dj/kaggle/loops&#45;and&#45;list&#45;comprehensions&#45;daily#165282336 -->
<g id="edge6" class="edge">
<title>http://purl.org/dj/kaggle/loops&#45;and&#45;list&#45;comprehensions&#45;daily#249561878&#45;&gt;http://purl.org/dj/kaggle/loops&#45;and&#45;list&#45;comprehensions&#45;daily#165282336</title>
<path fill="none" stroke="black" d="M2709.77,-186.3C2504.72,-178.1 2092.92,-158.58 1745.3,-123 1735,-121.95 1724.21,-120.66 1713.53,-119.27"/>
<polygon fill="black" stroke="black" points="1713.7,-115.77 1703.33,-117.92 1712.78,-122.71 1713.7,-115.77"/>
<text text-anchor="middle" x="2159.8" y="-144.8" font-family="Times,serif" font-size="14.00">previous</text>
</g>
<!-- http://purl.org/dj/kaggle/loops&#45;and&#45;list&#45;comprehensions&#45;daily -->
<g id="node8" class="node">
<title>http://purl.org/dj/kaggle/loops&#45;and&#45;list&#45;comprehensions&#45;daily</title>
<ellipse fill="none" stroke="black" cx="5717.3" cy="-18" rx="139.98" ry="18"/>
<text text-anchor="middle" x="5717.3" y="-14.3" font-family="Times,serif" font-size="14.00">loops&#45;and&#45;list&#45;comprehensions&#45;daily</text>
</g>
<!-- http://purl.org/dj/kaggle/loops&#45;and&#45;list&#45;comprehensions&#45;daily#650732481&#45;&gt;http://purl.org/dj/kaggle/loops&#45;and&#45;list&#45;comprehensions&#45;daily -->
<g id="edge7" class="edge">
<title>http://purl.org/dj/kaggle/loops&#45;and&#45;list&#45;comprehensions&#45;daily#650732481&#45;&gt;http://purl.org/dj/kaggle/loops&#45;and&#45;list&#45;comprehensions&#45;daily</title>
<path fill="none" stroke="black" d="M3510.1,-88.43C4139.72,-68.63 5191.35,-35.55 5573.2,-23.53"/>
<polygon fill="black" stroke="black" points="5573.59,-27.02 5583.47,-23.21 5573.37,-20.03 5573.59,-27.02"/>
<text text-anchor="middle" x="4551.8" y="-57.8" font-family="Times,serif" font-size="14.00">previous</text>
</g>
<!-- http://purl.org/dj/kaggle/loops&#45;and&#45;list&#45;comprehensions&#45;daily#29687986&#45;&gt;http://purl.org/dj/kaggle/loops&#45;and&#45;list&#45;comprehensions&#45;daily -->
<g id="edge8" class="edge">
<title>http://purl.org/dj/kaggle/loops&#45;and&#45;list&#45;comprehensions&#45;daily#29687986&#45;&gt;http://purl.org/dj/kaggle/loops&#45;and&#45;list&#45;comprehensions&#45;daily</title>
<path fill="none" stroke="black" d="M4705.45,-92.09C4717.99,-90.15 4731.02,-88.33 4743.3,-87 4889.33,-71.13 4926.82,-79.9 5073.3,-69 5144.09,-63.73 5161.57,-59.89 5232.3,-54 5351.95,-44.04 5488.34,-34.34 5585.95,-27.69"/>
<polygon fill="black" stroke="black" points="5586.42,-31.17 5596.16,-27 5585.95,-24.19 5586.42,-31.17"/>
<text text-anchor="middle" x="5255.8" y="-57.8" font-family="Times,serif" font-size="14.00">previous</text>
</g>
<!-- http://purl.org/dj/kaggle/loops&#45;and&#45;list&#45;comprehensions&#45;daily#291373830&#45;&gt;http://purl.org/dj/kaggle/loops&#45;and&#45;list&#45;comprehensions&#45;daily -->
<g id="edge9" class="edge">
<title>http://purl.org/dj/kaggle/loops&#45;and&#45;list&#45;comprehensions&#45;daily#291373830&#45;&gt;http://purl.org/dj/kaggle/loops&#45;and&#45;list&#45;comprehensions&#45;daily</title>
<path fill="none" stroke="black" d="M4491.9,-92.09C4506.34,-90.22 4521.25,-88.43 4535.3,-87 4908.14,-49.06 5349.45,-30.67 5572.59,-23.23"/>
<polygon fill="black" stroke="black" points="5572.84,-26.72 5582.72,-22.89 5572.61,-19.72 5572.84,-26.72"/>
<text text-anchor="middle" x="4948.8" y="-57.8" font-family="Times,serif" font-size="14.00">previous</text>
</g>
<!-- http://purl.org/dj/kaggle/loops&#45;and&#45;list&#45;comprehensions&#45;daily#1131031561&#45;&gt;http://purl.org/dj/kaggle/loops&#45;and&#45;list&#45;comprehensions&#45;daily -->
<g id="edge10" class="edge">
<title>http://purl.org/dj/kaggle/loops&#45;and&#45;list&#45;comprehensions&#45;daily#1131031561&#45;&gt;http://purl.org/dj/kaggle/loops&#45;and&#45;list&#45;comprehensions&#45;daily</title>
<path fill="none" stroke="black" d="M850.06,-90.06C1119.38,-78.34 1522.86,-62.21 1874.3,-54 3312.22,-20.41 5053.48,-18.57 5567.61,-18.83"/>
<polygon fill="black" stroke="black" points="5567.68,-22.33 5577.69,-18.84 5567.69,-15.33 5567.68,-22.33"/>
<text text-anchor="middle" x="1897.8" y="-57.8" font-family="Times,serif" font-size="14.00">previous</text>
</g>
<!-- http://purl.org/dj/kaggle/loops&#45;and&#45;list&#45;comprehensions&#45;daily#2520910184&#45;&gt;http://purl.org/dj/kaggle/loops&#45;and&#45;list&#45;comprehensions&#45;daily -->
<g id="edge11" class="edge">
<title>http://purl.org/dj/kaggle/loops&#45;and&#45;list&#45;comprehensions&#45;daily#2520910184&#45;&gt;http://purl.org/dj/kaggle/loops&#45;and&#45;list&#45;comprehensions&#45;daily</title>
<path fill="none" stroke="black" d="M1436,-91.81C1459.73,-89.95 1484.23,-88.24 1507.3,-87 2106.17,-54.75 2256.67,-65 2856.3,-54 3894.26,-34.96 5144.24,-23.68 5568.31,-20.18"/>
<polygon fill="black" stroke="black" points="5568.51,-23.68 5578.48,-20.1 5568.45,-16.68 5568.51,-23.68"/>
<text text-anchor="middle" x="2879.8" y="-57.8" font-family="Times,serif" font-size="14.00">previous</text>
</g>
<!-- http://purl.org/dj/kaggle/loops&#45;and&#45;list&#45;comprehensions&#45;daily#165282336&#45;&gt;http://purl.org/dj/kaggle/loops&#45;and&#45;list&#45;comprehensions&#45;daily -->
<g id="edge12" class="edge">
<title>http://purl.org/dj/kaggle/loops&#45;and&#45;list&#45;comprehensions&#45;daily#165282336&#45;&gt;http://purl.org/dj/kaggle/loops&#45;and&#45;list&#45;comprehensions&#45;daily</title>
<path fill="none" stroke="black" d="M1701.68,-91.77C1716.13,-89.84 1731.15,-88.12 1745.3,-87 2002.76,-66.7 2649.08,-73.3 2907.3,-69 3926.27,-52.04 5153.04,-29.47 5570.24,-21.74"/>
<polygon fill="black" stroke="black" points="5570.31,-25.24 5580.24,-21.55 5570.18,-18.24 5570.31,-25.24"/>
<text text-anchor="middle" x="3780.8" y="-57.8" font-family="Times,serif" font-size="14.00">previous</text>
</g>
<!-- http://purl.org/dj/kaggle/loops&#45;and&#45;list&#45;comprehensions&#45;daily#499647452 -->
<g id="node9" class="node">
<title>http://purl.org/dj/kaggle/loops&#45;and&#45;list&#45;comprehensions&#45;daily#499647452</title>
<ellipse fill="none" stroke="black" cx="6139.3" cy="-192" rx="149.47" ry="18"/>
<text text-anchor="middle" x="6139.3" y="-188.3" font-family="Times,serif" font-size="14.00">499647452 (squares(0)$2: Preparation)</text>
</g>
<!-- http://purl.org/dj/kaggle/loops&#45;and&#45;list&#45;comprehensions&#45;daily#71369018 -->
<g id="node10" class="node">
<title>http://purl.org/dj/kaggle/loops&#45;and&#45;list&#45;comprehensions&#45;daily#71369018</title>
<ellipse fill="none" stroke="black" cx="6139.3" cy="-105" rx="96.68" ry="18"/>
<text text-anchor="middle" x="6139.3" y="-101.3" font-family="Times,serif" font-size="14.00">71369018 ([](0): Reuse)</text>
</g>
<!-- http://purl.org/dj/kaggle/loops&#45;and&#45;list&#45;comprehensions&#45;daily#499647452&#45;&gt;http://purl.org/dj/kaggle/loops&#45;and&#45;list&#45;comprehensions&#45;daily#71369018 -->
<g id="edge13" class="edge">
<title>http://purl.org/dj/kaggle/loops&#45;and&#45;list&#45;comprehensions&#45;daily#499647452&#45;&gt;http://purl.org/dj/kaggle/loops&#45;and&#45;list&#45;comprehensions&#45;daily#71369018</title>
<path fill="none" stroke="black" d="M6139.3,-173.8C6139.3,-162.16 6139.3,-146.55 6139.3,-133.24"/>
<polygon fill="black" stroke="black" points="6142.8,-133.18 6139.3,-123.18 6135.8,-133.18 6142.8,-133.18"/>
<text text-anchor="middle" x="6162.8" y="-144.8" font-family="Times,serif" font-size="14.00">previous</text>
</g>
<!-- http://purl.org/dj/kaggle/loops&#45;and&#45;list&#45;comprehensions&#45;daily#45940976 -->
<g id="node11" class="node">
<title>http://purl.org/dj/kaggle/loops&#45;and&#45;list&#45;comprehensions&#45;daily#45940976</title>
<ellipse fill="none" stroke="black" cx="6349.3" cy="-105" rx="94.78" ry="18"/>
<text text-anchor="middle" x="6349.3" y="-101.3" font-family="Times,serif" font-size="14.00">45940976 (n(0): Reuse)</text>
</g>
<!-- http://purl.org/dj/kaggle/loops&#45;and&#45;list&#45;comprehensions&#45;daily#499647452&#45;&gt;http://purl.org/dj/kaggle/loops&#45;and&#45;list&#45;comprehensions&#45;daily#45940976 -->
<g id="edge14" class="edge">
<title>http://purl.org/dj/kaggle/loops&#45;and&#45;list&#45;comprehensions&#45;daily#499647452&#45;&gt;http://purl.org/dj/kaggle/loops&#45;and&#45;list&#45;comprehensions&#45;daily#45940976</title>
<path fill="none" stroke="black" d="M6217.5,-176.64C6237.81,-171.48 6259.3,-164.72 6278.3,-156 6293.55,-149 6308.97,-138.64 6321.52,-129.16"/>
<polygon fill="black" stroke="black" points="6323.96,-131.69 6329.71,-122.78 6319.67,-126.16 6323.96,-131.69"/>
<text text-anchor="middle" x="6326.8" y="-144.8" font-family="Times,serif" font-size="14.00">previous</text>
</g>
<!-- http://purl.org/dj/kaggle/loops&#45;and&#45;list&#45;comprehensions&#45;daily#225116815 -->
<g id="node12" class="node">
<title>http://purl.org/dj/kaggle/loops&#45;and&#45;list&#45;comprehensions&#45;daily#225116815</title>
<ellipse fill="none" stroke="black" cx="6576.3" cy="-105" rx="114.28" ry="18"/>
<text text-anchor="middle" x="6576.3" y="-101.3" font-family="Times,serif" font-size="14.00">225116815 (range(0): Reuse)</text>
</g>
<!-- http://purl.org/dj/kaggle/loops&#45;and&#45;list&#45;comprehensions&#45;daily#499647452&#45;&gt;http://purl.org/dj/kaggle/loops&#45;and&#45;list&#45;comprehensions&#45;daily#225116815 -->
<g id="edge15" class="edge">
<title>http://purl.org/dj/kaggle/loops&#45;and&#45;list&#45;comprehensions&#45;daily#499647452&#45;&gt;http://purl.org/dj/kaggle/loops&#45;and&#45;list&#45;comprehensions&#45;daily#225116815</title>
<path fill="none" stroke="black" d="M6229.22,-177.6C6267.82,-171.53 6313.37,-163.93 6354.3,-156 6405.58,-146.06 6463.1,-133.05 6506.74,-122.8"/>
<polygon fill="black" stroke="black" points="6507.75,-126.16 6516.67,-120.45 6506.14,-119.34 6507.75,-126.16"/>
<text text-anchor="middle" x="6445.8" y="-144.8" font-family="Times,serif" font-size="14.00">previous</text>
</g>
<!-- http://purl.org/dj/kaggle/loops&#45;and&#45;list&#45;comprehensions&#45;daily#45809891 -->
<g id="node13" class="node">
<title>http://purl.org/dj/kaggle/loops&#45;and&#45;list&#45;comprehensions&#45;daily#45809891</title>
<ellipse fill="none" stroke="black" cx="5717.3" cy="-105" rx="99.38" ry="18"/>
<text text-anchor="middle" x="5717.3" y="-101.3" font-family="Times,serif" font-size="14.00">45809891 (10(0): Reuse)</text>
</g>
<!-- http://purl.org/dj/kaggle/loops&#45;and&#45;list&#45;comprehensions&#45;daily#499647452&#45;&gt;http://purl.org/dj/kaggle/loops&#45;and&#45;list&#45;comprehensions&#45;daily#45809891 -->
<g id="edge16" class="edge">
<title>http://purl.org/dj/kaggle/loops&#45;and&#45;list&#45;comprehensions&#45;daily#499647452&#45;&gt;http://purl.org/dj/kaggle/loops&#45;and&#45;list&#45;comprehensions&#45;daily#45809891</title>
<path fill="none" stroke="black" d="M6066.28,-176.29C5989.29,-160.78 5868.67,-136.49 5791.31,-120.91"/>
<polygon fill="black" stroke="black" points="5791.65,-117.41 5781.16,-118.86 5790.27,-124.27 5791.65,-117.41"/>
<text text-anchor="middle" x="5977.8" y="-144.8" font-family="Times,serif" font-size="14.00">previous</text>
</g>
<!-- http://purl.org/dj/kaggle/loops&#45;and&#45;list&#45;comprehensions&#45;daily#30212276 -->
<g id="node14" class="node">
<title>http://purl.org/dj/kaggle/loops&#45;and&#45;list&#45;comprehensions&#45;daily#30212276</title>
<ellipse fill="none" stroke="black" cx="5505.3" cy="-105" rx="94.78" ry="18"/>
<text text-anchor="middle" x="5505.3" y="-101.3" font-family="Times,serif" font-size="14.00">30212276 (2(0): Reuse)</text>
</g>
<!-- http://purl.org/dj/kaggle/loops&#45;and&#45;list&#45;comprehensions&#45;daily#499647452&#45;&gt;http://purl.org/dj/kaggle/loops&#45;and&#45;list&#45;comprehensions&#45;daily#30212276 -->
<g id="edge17" class="edge">
<title>http://purl.org/dj/kaggle/loops&#45;and&#45;list&#45;comprehensions&#45;daily#499647452&#45;&gt;http://purl.org/dj/kaggle/loops&#45;and&#45;list&#45;comprehensions&#45;daily#30212276</title>
<path fill="none" stroke="black" d="M5994.78,-187.38C5864.14,-183.02 5681.96,-173.91 5612.3,-156 5587.68,-149.67 5561.8,-137.74 5541.66,-127.12"/>
<polygon fill="black" stroke="black" points="5543.3,-124.03 5532.84,-122.36 5539.98,-130.19 5543.3,-124.03"/>
<text text-anchor="middle" x="5635.8" y="-144.8" font-family="Times,serif" font-size="14.00">previous</text>
</g>
<!-- http://purl.org/dj/kaggle/loops&#45;and&#45;list&#45;comprehensions&#45;daily#71369018&#45;&gt;http://purl.org/dj/kaggle/loops&#45;and&#45;list&#45;comprehensions&#45;daily -->
<g id="edge18" class="edge">
<title>http://purl.org/dj/kaggle/loops&#45;and&#45;list&#45;comprehensions&#45;daily#71369018&#45;&gt;http://purl.org/dj/kaggle/loops&#45;and&#45;list&#45;comprehensions&#45;daily</title>
<path fill="none" stroke="black" d="M6076.12,-91.27C6002.37,-76.42 5880.18,-51.81 5799.2,-35.5"/>
<polygon fill="black" stroke="black" points="5799.54,-31.99 5789.05,-33.45 5798.16,-38.86 5799.54,-31.99"/>
<text text-anchor="middle" x="5977.8" y="-57.8" font-family="Times,serif" font-size="14.00">previous</text>
</g>
<!-- http://purl.org/dj/kaggle/loops&#45;and&#45;list&#45;comprehensions&#45;daily#45940976&#45;&gt;http://purl.org/dj/kaggle/loops&#45;and&#45;list&#45;comprehensions&#45;daily -->
<g id="edge19" class="edge">
<title>http://purl.org/dj/kaggle/loops&#45;and&#45;list&#45;comprehensions&#45;daily#45940976&#45;&gt;http://purl.org/dj/kaggle/loops&#45;and&#45;list&#45;comprehensions&#45;daily</title>
<path fill="none" stroke="black" d="M6280.53,-92.51C6268.79,-90.62 6256.7,-88.71 6245.3,-87 6101.2,-65.32 5934.33,-44.55 5827.39,-31.8"/>
<polygon fill="black" stroke="black" points="5827.57,-28.29 5817.23,-30.59 5826.74,-35.24 5827.57,-28.29"/>
<text text-anchor="middle" x="6138.8" y="-57.8" font-family="Times,serif" font-size="14.00">previous</text>
</g>
<!-- http://purl.org/dj/kaggle/loops&#45;and&#45;list&#45;comprehensions&#45;daily#225116815&#45;&gt;http://purl.org/dj/kaggle/loops&#45;and&#45;list&#45;comprehensions&#45;daily -->
<g id="edge20" class="edge">
<title>http://purl.org/dj/kaggle/loops&#45;and&#45;list&#45;comprehensions&#45;daily#225116815&#45;&gt;http://purl.org/dj/kaggle/loops&#45;and&#45;list&#45;comprehensions&#45;daily</title>
<path fill="none" stroke="black" d="M6494.29,-92.4C6480.61,-90.54 6466.56,-88.68 6453.3,-87 6325.92,-70.88 6294.1,-66.32 6166.3,-54 6059.33,-43.68 5937.79,-34.36 5848.16,-27.93"/>
<polygon fill="black" stroke="black" points="5848.17,-24.42 5837.94,-27.2 5847.67,-31.4 5848.17,-24.42"/>
<text text-anchor="middle" x="6328.8" y="-57.8" font-family="Times,serif" font-size="14.00">previous</text>
</g>
<!-- http://purl.org/dj/kaggle/loops&#45;and&#45;list&#45;comprehensions&#45;daily#45809891&#45;&gt;http://purl.org/dj/kaggle/loops&#45;and&#45;list&#45;comprehensions&#45;daily -->
<g id="edge21" class="edge">
<title>http://purl.org/dj/kaggle/loops&#45;and&#45;list&#45;comprehensions&#45;daily#45809891&#45;&gt;http://purl.org/dj/kaggle/loops&#45;and&#45;list&#45;comprehensions&#45;daily</title>
<path fill="none" stroke="black" d="M5717.3,-86.8C5717.3,-75.16 5717.3,-59.55 5717.3,-46.24"/>
<polygon fill="black" stroke="black" points="5720.8,-46.18 5717.3,-36.18 5713.8,-46.18 5720.8,-46.18"/>
<text text-anchor="middle" x="5740.8" y="-57.8" font-family="Times,serif" font-size="14.00">previous</text>
</g>
<!-- http://purl.org/dj/kaggle/loops&#45;and&#45;list&#45;comprehensions&#45;daily#30212276&#45;&gt;http://purl.org/dj/kaggle/loops&#45;and&#45;list&#45;comprehensions&#45;daily -->
<g id="edge22" class="edge">
<title>http://purl.org/dj/kaggle/loops&#45;and&#45;list&#45;comprehensions&#45;daily#30212276&#45;&gt;http://purl.org/dj/kaggle/loops&#45;and&#45;list&#45;comprehensions&#45;daily</title>
<path fill="none" stroke="black" d="M5555.68,-89.68C5574.6,-83.86 5596.15,-76.69 5615.3,-69 5636.12,-60.64 5658.59,-49.83 5677.12,-40.41"/>
<polygon fill="black" stroke="black" points="5678.85,-43.45 5686.14,-35.77 5675.65,-37.22 5678.85,-43.45"/>
<text text-anchor="middle" x="5670.8" y="-57.8" font-family="Times,serif" font-size="14.00">previous</text>
</g>
<!-- http://purl.org/dj/kaggle/loops&#45;and&#45;list&#45;comprehensions&#45;daily#496829400 -->
<g id="node15" class="node">
<title>http://purl.org/dj/kaggle/loops&#45;and&#45;list&#45;comprehensions&#45;daily#496829400</title>
<ellipse fill="none" stroke="black" cx="5297.3" cy="-192" rx="149.47" ry="18"/>
<text text-anchor="middle" x="5297.3" y="-188.3" font-family="Times,serif" font-size="14.00">496829400 (product(0)$1: Preparation)</text>
</g>
<!-- http://purl.org/dj/kaggle/loops&#45;and&#45;list&#45;comprehensions&#45;daily#496829400&#45;&gt;http://purl.org/dj/kaggle/loops&#45;and&#45;list&#45;comprehensions&#45;daily#30212276 -->
<g id="edge23" class="edge">
<title>http://purl.org/dj/kaggle/loops&#45;and&#45;list&#45;comprehensions&#45;daily#496829400&#45;&gt;http://purl.org/dj/kaggle/loops&#45;and&#45;list&#45;comprehensions&#45;daily#30212276</title>
<path fill="none" stroke="black" d="M5337.41,-174.61C5371.76,-160.57 5421.3,-140.33 5457.66,-125.47"/>
<polygon fill="black" stroke="black" points="5459.14,-128.64 5467.08,-121.62 5456.49,-122.16 5459.14,-128.64"/>
<text text-anchor="middle" x="5437.8" y="-144.8" font-family="Times,serif" font-size="14.00">previous</text>
</g>
<!-- http://purl.org/dj/kaggle/loops&#45;and&#45;list&#45;comprehensions&#45;daily#30474421 -->
<g id="node16" class="node">
<title>http://purl.org/dj/kaggle/loops&#45;and&#45;list&#45;comprehensions&#45;daily#30474421</title>
<ellipse fill="none" stroke="black" cx="5297.3" cy="-105" rx="94.78" ry="18"/>
<text text-anchor="middle" x="5297.3" y="-101.3" font-family="Times,serif" font-size="14.00">30474421 (3(0): Reuse)</text>
</g>
<!-- http://purl.org/dj/kaggle/loops&#45;and&#45;list&#45;comprehensions&#45;daily#496829400&#45;&gt;http://purl.org/dj/kaggle/loops&#45;and&#45;list&#45;comprehensions&#45;daily#30474421 -->
<g id="edge24" class="edge">
<title>http://purl.org/dj/kaggle/loops&#45;and&#45;list&#45;comprehensions&#45;daily#496829400&#45;&gt;http://purl.org/dj/kaggle/loops&#45;and&#45;list&#45;comprehensions&#45;daily#30474421</title>
<path fill="none" stroke="black" d="M5297.3,-173.8C5297.3,-162.16 5297.3,-146.55 5297.3,-133.24"/>
<polygon fill="black" stroke="black" points="5300.8,-133.18 5297.3,-123.18 5293.8,-133.18 5300.8,-133.18"/>
<text text-anchor="middle" x="5320.8" y="-144.8" font-family="Times,serif" font-size="14.00">previous</text>
</g>
<!-- http://purl.org/dj/kaggle/loops&#45;and&#45;list&#45;comprehensions&#45;daily#179110468 -->
<g id="node17" class="node">
<title>http://purl.org/dj/kaggle/loops&#45;and&#45;list&#45;comprehensions&#45;daily#179110468</title>
<ellipse fill="none" stroke="black" cx="5072.3" cy="-105" rx="111.58" ry="18"/>
<text text-anchor="middle" x="5072.3" y="-101.3" font-family="Times,serif" font-size="14.00">179110468 (mult(0): Reuse)</text>
</g>
<!-- http://purl.org/dj/kaggle/loops&#45;and&#45;list&#45;comprehensions&#45;daily#496829400&#45;&gt;http://purl.org/dj/kaggle/loops&#45;and&#45;list&#45;comprehensions&#45;daily#179110468 -->
<g id="edge25" class="edge">
<title>http://purl.org/dj/kaggle/loops&#45;and&#45;list&#45;comprehensions&#45;daily#496829400&#45;&gt;http://purl.org/dj/kaggle/loops&#45;and&#45;list&#45;comprehensions&#45;daily#179110468</title>
<path fill="none" stroke="black" d="M5254.19,-174.71C5217.01,-160.67 5163.26,-140.36 5123.83,-125.47"/>
<polygon fill="black" stroke="black" points="5124.72,-122.06 5114.13,-121.8 5122.25,-128.61 5124.72,-122.06"/>
<text text-anchor="middle" x="5221.8" y="-144.8" font-family="Times,serif" font-size="14.00">previous</text>
</g>
<!-- http://purl.org/dj/kaggle/loops&#45;and&#45;list&#45;comprehensions&#45;daily#30998711 -->
<g id="node18" class="node">
<title>http://purl.org/dj/kaggle/loops&#45;and&#45;list&#45;comprehensions&#45;daily#30998711</title>
<ellipse fill="none" stroke="black" cx="5929.3" cy="-105" rx="94.78" ry="18"/>
<text text-anchor="middle" x="5929.3" y="-101.3" font-family="Times,serif" font-size="14.00">30998711 (5(0): Reuse)</text>
</g>
<!-- http://purl.org/dj/kaggle/loops&#45;and&#45;list&#45;comprehensions&#45;daily#496829400&#45;&gt;http://purl.org/dj/kaggle/loops&#45;and&#45;list&#45;comprehensions&#45;daily#30998711 -->
<g id="edge26" class="edge">
<title>http://purl.org/dj/kaggle/loops&#45;and&#45;list&#45;comprehensions&#45;daily#496829400&#45;&gt;http://purl.org/dj/kaggle/loops&#45;and&#45;list&#45;comprehensions&#45;daily#30998711</title>
<path fill="none" stroke="black" d="M5421.3,-181.95C5492.33,-176.06 5583.04,-167.36 5663.3,-156 5730.07,-146.55 5805.56,-131.99 5859.02,-121.01"/>
<polygon fill="black" stroke="black" points="5859.99,-124.38 5869.08,-118.93 5858.58,-117.53 5859.99,-124.38"/>
<text text-anchor="middle" x="5775.8" y="-144.8" font-family="Times,serif" font-size="14.00">previous</text>
</g>
<!-- http://purl.org/dj/kaggle/loops&#45;and&#45;list&#45;comprehensions&#45;daily#29950131 -->
<g id="node19" class="node">
<title>http://purl.org/dj/kaggle/loops&#45;and&#45;list&#45;comprehensions&#45;daily#29950131</title>
<ellipse fill="none" stroke="black" cx="4847.3" cy="-105" rx="94.78" ry="18"/>
<text text-anchor="middle" x="4847.3" y="-101.3" font-family="Times,serif" font-size="14.00">29950131 (1(0): Reuse)</text>
</g>
<!-- http://purl.org/dj/kaggle/loops&#45;and&#45;list&#45;comprehensions&#45;daily#496829400&#45;&gt;http://purl.org/dj/kaggle/loops&#45;and&#45;list&#45;comprehensions&#45;daily#29950131 -->
<g id="edge27" class="edge">
<title>http://purl.org/dj/kaggle/loops&#45;and&#45;list&#45;comprehensions&#45;daily#496829400&#45;&gt;http://purl.org/dj/kaggle/loops&#45;and&#45;list&#45;comprehensions&#45;daily#29950131</title>
<path fill="none" stroke="black" d="M5220.71,-176.53C5137.26,-160.77 5004.64,-135.72 4921.95,-120.1"/>
<polygon fill="black" stroke="black" points="4922.35,-116.61 4911.88,-118.2 4921.05,-123.49 4922.35,-116.61"/>
<text text-anchor="middle" x="5122.8" y="-144.8" font-family="Times,serif" font-size="14.00">previous</text>
</g>
<!-- http://purl.org/dj/kaggle/loops&#45;and&#45;list&#45;comprehensions&#45;daily#30474421&#45;&gt;http://purl.org/dj/kaggle/loops&#45;and&#45;list&#45;comprehensions&#45;daily -->
<g id="edge28" class="edge">
<title>http://purl.org/dj/kaggle/loops&#45;and&#45;list&#45;comprehensions&#45;daily#30474421&#45;&gt;http://purl.org/dj/kaggle/loops&#45;and&#45;list&#45;comprehensions&#45;daily</title>
<path fill="none" stroke="black" d="M5366.08,-92.55C5377.82,-90.65 5389.91,-88.74 5401.3,-87 5457.66,-78.4 5473.33,-84.08 5528.3,-69 5545.02,-64.41 5547.79,-59.29 5564.3,-54 5586.34,-46.94 5610.6,-40.72 5633.17,-35.55"/>
<polygon fill="black" stroke="black" points="5634.09,-38.93 5643.07,-33.32 5632.55,-32.1 5634.09,-38.93"/>
<text text-anchor="middle" x="5587.8" y="-57.8" font-family="Times,serif" font-size="14.00">previous</text>
</g>
<!-- http://purl.org/dj/kaggle/loops&#45;and&#45;list&#45;comprehensions&#45;daily#179110468&#45;&gt;http://purl.org/dj/kaggle/loops&#45;and&#45;list&#45;comprehensions&#45;daily -->
<g id="edge29" class="edge">
<title>http://purl.org/dj/kaggle/loops&#45;and&#45;list&#45;comprehensions&#45;daily#179110468&#45;&gt;http://purl.org/dj/kaggle/loops&#45;and&#45;list&#45;comprehensions&#45;daily</title>
<path fill="none" stroke="black" d="M5151.3,-92.19C5165.27,-90.3 5179.7,-88.49 5193.3,-87 5295.23,-75.86 5322.32,-86.8 5423.3,-69 5447.83,-64.67 5452.93,-59.14 5477.3,-54 5519.55,-45.09 5566.46,-37.7 5607.52,-32.05"/>
<polygon fill="black" stroke="black" points="5608.11,-35.5 5617.55,-30.68 5607.17,-28.56 5608.11,-35.5"/>
<text text-anchor="middle" x="5500.8" y="-57.8" font-family="Times,serif" font-size="14.00">previous</text>
</g>
<!-- http://purl.org/dj/kaggle/loops&#45;and&#45;list&#45;comprehensions&#45;daily#30998711&#45;&gt;http://purl.org/dj/kaggle/loops&#45;and&#45;list&#45;comprehensions&#45;daily -->
<g id="edge30" class="edge">
<title>http://purl.org/dj/kaggle/loops&#45;and&#45;list&#45;comprehensions&#45;daily#30998711&#45;&gt;http://purl.org/dj/kaggle/loops&#45;and&#45;list&#45;comprehensions&#45;daily</title>
<path fill="none" stroke="black" d="M5890.42,-88.41C5855.96,-74.6 5805.43,-54.34 5767.85,-39.27"/>
<polygon fill="black" stroke="black" points="5768.69,-35.83 5758.11,-35.36 5766.09,-42.33 5768.69,-35.83"/>
<text text-anchor="middle" x="5859.8" y="-57.8" font-family="Times,serif" font-size="14.00">previous</text>
</g>
<!-- http://purl.org/dj/kaggle/loops&#45;and&#45;list&#45;comprehensions&#45;daily#29950131&#45;&gt;http://purl.org/dj/kaggle/loops&#45;and&#45;list&#45;comprehensions&#45;daily -->
<g id="edge31" class="edge">
<title>http://purl.org/dj/kaggle/loops&#45;and&#45;list&#45;comprehensions&#45;daily#29950131&#45;&gt;http://purl.org/dj/kaggle/loops&#45;and&#45;list&#45;comprehensions&#45;daily</title>
<path fill="none" stroke="black" d="M4913.45,-92.09C4925.99,-90.14 4939.02,-88.33 4951.3,-87 5098.21,-71.06 5136.43,-85.31 5283.3,-69 5323.17,-64.57 5332.55,-59.36 5372.3,-54 5445.65,-44.11 5528.12,-35.65 5594.02,-29.52"/>
<polygon fill="black" stroke="black" points="5594.4,-33 5604.04,-28.6 5593.76,-26.03 5594.4,-33"/>
<text text-anchor="middle" x="5395.8" y="-57.8" font-family="Times,serif" font-size="14.00">previous</text>
</g>
<!-- http://purl.org/dj/kaggle/loops&#45;and&#45;list&#45;comprehensions&#45;daily#44630251 -->
<g id="node20" class="node">
<title>http://purl.org/dj/kaggle/loops&#45;and&#45;list&#45;comprehensions&#45;daily#44630251</title>
<ellipse fill="none" stroke="black" cx="7205.3" cy="-105" rx="92.88" ry="18"/>
<text text-anchor="middle" x="7205.3" y="-101.3" font-family="Times,serif" font-size="14.00">44630251 (i(0): Reuse)</text>
</g>
<!-- http://purl.org/dj/kaggle/loops&#45;and&#45;list&#45;comprehensions&#45;daily#44630251&#45;&gt;http://purl.org/dj/kaggle/loops&#45;and&#45;list&#45;comprehensions&#45;daily -->
<g id="edge32" class="edge">
<title>http://purl.org/dj/kaggle/loops&#45;and&#45;list&#45;comprehensions&#45;daily#44630251&#45;&gt;http://purl.org/dj/kaggle/loops&#45;and&#45;list&#45;comprehensions&#45;daily</title>
<path fill="none" stroke="black" d="M7138.72,-92.37C7126.94,-90.46 7114.77,-88.59 7103.3,-87 6971.75,-68.74 6938.78,-63.47 6806.3,-54 6470.99,-30.02 6076.43,-22.47 5866.46,-20.09"/>
<polygon fill="black" stroke="black" points="5866.33,-16.59 5856.3,-19.98 5866.26,-23.59 5866.33,-16.59"/>
<text text-anchor="middle" x="6992.8" y="-57.8" font-family="Times,serif" font-size="14.00">previous</text>
</g>
<!-- http://purl.org/dj/kaggle/loops&#45;and&#45;list&#45;comprehensions&#45;daily#249692951 -->
<g id="node21" class="node">
<title>http://purl.org/dj/kaggle/loops&#45;and&#45;list&#45;comprehensions&#45;daily#249692951</title>
<ellipse fill="none" stroke="black" cx="6799.3" cy="-192" rx="136.48" ry="18"/>
<text text-anchor="middle" x="6799.3" y="-188.3" font-family="Times,serif" font-size="14.00">249692951 (print[1]: Visualisation)</text>
</g>
<!-- http://purl.org/dj/kaggle/loops&#45;and&#45;list&#45;comprehensions&#45;daily#249692951&#45;&gt;http://purl.org/dj/kaggle/loops&#45;and&#45;list&#45;comprehensions&#45;daily#225116815 -->
<g id="edge33" class="edge">
<title>http://purl.org/dj/kaggle/loops&#45;and&#45;list&#45;comprehensions&#45;daily#249692951&#45;&gt;http://purl.org/dj/kaggle/loops&#45;and&#45;list&#45;comprehensions&#45;daily#225116815</title>
<path fill="none" stroke="black" d="M6756.83,-174.81C6720.02,-160.78 6666.65,-140.44 6627.49,-125.51"/>
<polygon fill="black" stroke="black" points="6628.45,-122.13 6617.86,-121.84 6625.96,-128.67 6628.45,-122.13"/>
<text text-anchor="middle" x="6723.8" y="-144.8" font-family="Times,serif" font-size="14.00">previous</text>
</g>
<!-- http://purl.org/dj/kaggle/loops&#45;and&#45;list&#45;comprehensions&#45;daily#249692951&#45;&gt;http://purl.org/dj/kaggle/loops&#45;and&#45;list&#45;comprehensions&#45;daily#30998711 -->
<g id="edge34" class="edge">
<title>http://purl.org/dj/kaggle/loops&#45;and&#45;list&#45;comprehensions&#45;daily#249692951&#45;&gt;http://purl.org/dj/kaggle/loops&#45;and&#45;list&#45;comprehensions&#45;daily#30998711</title>
<path fill="none" stroke="black" d="M6666.46,-187.83C6524.11,-183.55 6307.77,-174.26 6227.3,-156 6210,-152.07 6207.5,-145.38 6190.3,-141 6122.24,-123.65 6102.87,-132.67 6033.3,-123 6024.81,-121.82 6015.94,-120.5 6007.12,-119.14"/>
<polygon fill="black" stroke="black" points="6007.62,-115.67 5997.2,-117.58 6006.54,-122.59 6007.62,-115.67"/>
<text text-anchor="middle" x="6250.8" y="-144.8" font-family="Times,serif" font-size="14.00">previous</text>
</g>
<!-- http://purl.org/dj/kaggle/loops&#45;and&#45;list&#45;comprehensions&#45;daily#249692951&#45;&gt;http://purl.org/dj/kaggle/loops&#45;and&#45;list&#45;comprehensions&#45;daily#44630251 -->
<g id="edge35" class="edge">
<title>http://purl.org/dj/kaggle/loops&#45;and&#45;list&#45;comprehensions&#45;daily#249692951&#45;&gt;http://purl.org/dj/kaggle/loops&#45;and&#45;list&#45;comprehensions&#45;daily#44630251</title>
<path fill="none" stroke="black" d="M6868.63,-176.48C6942.87,-160.94 7060.04,-136.41 7134.75,-120.77"/>
<polygon fill="black" stroke="black" points="7135.47,-124.2 7144.54,-118.72 7134.04,-117.34 7135.47,-124.2"/>
<text text-anchor="middle" x="7049.8" y="-144.8" font-family="Times,serif" font-size="14.00">previous</text>
</g>
<!-- http://purl.org/dj/kaggle/loops&#45;and&#45;list&#45;comprehensions&#45;daily#17039490 -->
<g id="node22" class="node">
<title>http://purl.org/dj/kaggle/loops&#45;and&#45;list&#45;comprehensions&#45;daily#17039490</title>
<ellipse fill="none" stroke="black" cx="6799.3" cy="-105" rx="90.98" ry="18"/>
<text text-anchor="middle" x="6799.3" y="-101.3" font-family="Times,serif" font-size="14.00">17039490 ((0): Reuse)</text>
</g>
<!-- http://purl.org/dj/kaggle/loops&#45;and&#45;list&#45;comprehensions&#45;daily#249692951&#45;&gt;http://purl.org/dj/kaggle/loops&#45;and&#45;list&#45;comprehensions&#45;daily#17039490 -->
<g id="edge36" class="edge">
<title>http://purl.org/dj/kaggle/loops&#45;and&#45;list&#45;comprehensions&#45;daily#249692951&#45;&gt;http://purl.org/dj/kaggle/loops&#45;and&#45;list&#45;comprehensions&#45;daily#17039490</title>
<path fill="none" stroke="black" d="M6799.3,-173.8C6799.3,-162.16 6799.3,-146.55 6799.3,-133.24"/>
<polygon fill="black" stroke="black" points="6802.8,-133.18 6799.3,-123.18 6795.8,-133.18 6802.8,-133.18"/>
<text text-anchor="middle" x="6822.8" y="-144.8" font-family="Times,serif" font-size="14.00">previous</text>
</g>
<!-- http://purl.org/dj/kaggle/loops&#45;and&#45;list&#45;comprehensions&#45;daily#25493666 -->
<g id="node23" class="node">
<title>http://purl.org/dj/kaggle/loops&#45;and&#45;list&#45;comprehensions&#45;daily#25493666</title>
<ellipse fill="none" stroke="black" cx="7001.3" cy="-105" rx="92.88" ry="18"/>
<text text-anchor="middle" x="7001.3" y="-101.3" font-family="Times,serif" font-size="14.00">25493666 ( (0): Reuse)</text>
</g>
<!-- http://purl.org/dj/kaggle/loops&#45;and&#45;list&#45;comprehensions&#45;daily#249692951&#45;&gt;http://purl.org/dj/kaggle/loops&#45;and&#45;list&#45;comprehensions&#45;daily#25493666 -->
<g id="edge37" class="edge">
<title>http://purl.org/dj/kaggle/loops&#45;and&#45;list&#45;comprehensions&#45;daily#249692951&#45;&gt;http://purl.org/dj/kaggle/loops&#45;and&#45;list&#45;comprehensions&#45;daily#25493666</title>
<path fill="none" stroke="black" d="M6838.25,-174.61C6871.47,-160.63 6919.31,-140.5 6954.58,-125.66"/>
<polygon fill="black" stroke="black" points="6956.32,-128.73 6964.18,-121.62 6953.6,-122.27 6956.32,-128.73"/>
<text text-anchor="middle" x="6935.8" y="-144.8" font-family="Times,serif" font-size="14.00">previous</text>
</g>
<!-- http://purl.org/dj/kaggle/loops&#45;and&#45;list&#45;comprehensions&#45;daily#17039490&#45;&gt;http://purl.org/dj/kaggle/loops&#45;and&#45;list&#45;comprehensions&#45;daily -->
<g id="edge38" class="edge">
<title>http://purl.org/dj/kaggle/loops&#45;and&#45;list&#45;comprehensions&#45;daily#17039490&#45;&gt;http://purl.org/dj/kaggle/loops&#45;and&#45;list&#45;comprehensions&#45;daily</title>
<path fill="none" stroke="black" d="M6734.59,-92.29C6722.87,-90.37 6710.74,-88.52 6699.3,-87 6403.48,-47.68 6054.31,-30.36 5862.22,-23.32"/>
<polygon fill="black" stroke="black" points="5862.18,-19.82 5852.06,-22.96 5861.93,-26.82 5862.18,-19.82"/>
<text text-anchor="middle" x="6562.8" y="-57.8" font-family="Times,serif" font-size="14.00">previous</text>
</g>
<!-- http://purl.org/dj/kaggle/loops&#45;and&#45;list&#45;comprehensions&#45;daily#25493666&#45;&gt;http://purl.org/dj/kaggle/loops&#45;and&#45;list&#45;comprehensions&#45;daily -->
<g id="edge39" class="edge">
<title>http://purl.org/dj/kaggle/loops&#45;and&#45;list&#45;comprehensions&#45;daily#25493666&#45;&gt;http://purl.org/dj/kaggle/loops&#45;and&#45;list&#45;comprehensions&#45;daily</title>
<path fill="none" stroke="black" d="M6935,-92.37C6923.13,-90.45 6910.86,-88.58 6899.3,-87 6762.46,-68.31 6728.05,-64.11 6590.3,-54 6335.56,-35.31 6038.21,-26.06 5864.53,-21.93"/>
<polygon fill="black" stroke="black" points="5864.38,-18.42 5854.3,-21.68 5864.22,-25.42 5864.38,-18.42"/>
<text text-anchor="middle" x="6778.8" y="-57.8" font-family="Times,serif" font-size="14.00">previous</text>
</g>
<!-- http://purl.org/dj/kaggle/loops&#45;and&#45;list&#45;comprehensions&#45;daily#83362112 -->
<g id="node24" class="node">
<title>http://purl.org/dj/kaggle/loops&#45;and&#45;list&#45;comprehensions&#45;daily#83362112</title>
<ellipse fill="none" stroke="black" cx="4748.3" cy="-192" rx="120.78" ry="18"/>
<text text-anchor="middle" x="4748.3" y="-188.3" font-family="Times,serif" font-size="14.00">83362112 (i(0)$1: Preparation)</text>
</g>
<!-- http://purl.org/dj/kaggle/loops&#45;and&#45;list&#45;comprehensions&#45;daily#83362112&#45;&gt;http://purl.org/dj/kaggle/loops&#45;and&#45;list&#45;comprehensions&#45;daily#29687986 -->
<g id="edge40" class="edge">
<title>http://purl.org/dj/kaggle/loops&#45;and&#45;list&#45;comprehensions&#45;daily#83362112&#45;&gt;http://purl.org/dj/kaggle/loops&#45;and&#45;list&#45;comprehensions&#45;daily#29687986</title>
<path fill="none" stroke="black" d="M4726.77,-174.21C4710.2,-161.28 4687.11,-143.28 4668.82,-129.02"/>
<polygon fill="black" stroke="black" points="4670.83,-126.15 4660.79,-122.76 4666.53,-131.67 4670.83,-126.15"/>
<text text-anchor="middle" x="4724.8" y="-144.8" font-family="Times,serif" font-size="14.00">previous</text>
</g>
<!-- http://purl.org/dj/kaggle/loops&#45;and&#45;list&#45;comprehensions&#45;daily#83362112&#45;&gt;http://purl.org/dj/kaggle/loops&#45;and&#45;list&#45;comprehensions&#45;daily#29950131 -->
<g id="edge41" class="edge">
<title>http://purl.org/dj/kaggle/loops&#45;and&#45;list&#45;comprehensions&#45;daily#83362112&#45;&gt;http://purl.org/dj/kaggle/loops&#45;and&#45;list&#45;comprehensions&#45;daily#29950131</title>
<path fill="none" stroke="black" d="M4767.86,-174.21C4782.78,-161.4 4803.5,-143.61 4820.04,-129.4"/>
<polygon fill="black" stroke="black" points="4822.48,-131.93 4827.78,-122.76 4817.92,-126.62 4822.48,-131.93"/>
<text text-anchor="middle" x="4827.8" y="-144.8" font-family="Times,serif" font-size="14.00">previous</text>
</g>
<!-- http://purl.org/dj/kaggle/loops&#45;and&#45;list&#45;comprehensions&#45;daily#25755811 -->
<g id="node25" class="node">
<title>http://purl.org/dj/kaggle/loops&#45;and&#45;list&#45;comprehensions&#45;daily#25755811</title>
<ellipse fill="none" stroke="black" cx="7410.3" cy="-105" rx="93.68" ry="18"/>
<text text-anchor="middle" x="7410.3" y="-101.3" font-family="Times,serif" font-size="14.00">25755811 (!(0): Reuse)</text>
</g>
<!-- http://purl.org/dj/kaggle/loops&#45;and&#45;list&#45;comprehensions&#45;daily#25755811&#45;&gt;http://purl.org/dj/kaggle/loops&#45;and&#45;list&#45;comprehensions&#45;daily -->
<g id="edge42" class="edge">
<title>http://purl.org/dj/kaggle/loops&#45;and&#45;list&#45;comprehensions&#45;daily#25755811&#45;&gt;http://purl.org/dj/kaggle/loops&#45;and&#45;list&#45;comprehensions&#45;daily</title>
<path fill="none" stroke="black" d="M7343.06,-92.41C7331.16,-90.5 7318.88,-88.62 7307.3,-87 7180.14,-69.21 7148.38,-63.07 7020.3,-54 6603.6,-24.5 6110.34,-19.35 5867.6,-18.77"/>
<polygon fill="black" stroke="black" points="5867.3,-15.27 5857.3,-18.74 5867.29,-22.27 5867.3,-15.27"/>
<text text-anchor="middle" x="7196.8" y="-57.8" font-family="Times,serif" font-size="14.00">previous</text>
</g>
<!-- http://purl.org/dj/kaggle/loops&#45;and&#45;list&#45;comprehensions&#45;daily#121635265 -->
<g id="node26" class="node">
<title>http://purl.org/dj/kaggle/loops&#45;and&#45;list&#45;comprehensions&#45;daily#121635265</title>
<ellipse fill="none" stroke="black" cx="7628.3" cy="-105" rx="105.88" ry="18"/>
<text text-anchor="middle" x="7628.3" y="-101.3" font-family="Times,serif" font-size="14.00">121635265 (len(0): Reuse)</text>
</g>
<!-- http://purl.org/dj/kaggle/loops&#45;and&#45;list&#45;comprehensions&#45;daily#121635265&#45;&gt;http://purl.org/dj/kaggle/loops&#45;and&#45;list&#45;comprehensions&#45;daily -->
<g id="edge43" class="edge">
<title>http://purl.org/dj/kaggle/loops&#45;and&#45;list&#45;comprehensions&#45;daily#121635265&#45;&gt;http://purl.org/dj/kaggle/loops&#45;and&#45;list&#45;comprehensions&#45;daily</title>
<path fill="none" stroke="black" d="M7553.33,-92.23C7472.4,-80.11 7339.58,-61.9 7224.3,-54 6963.6,-36.12 6192.54,-24.84 5866.05,-20.74"/>
<polygon fill="black" stroke="black" points="5865.61,-17.23 5855.57,-20.61 5865.52,-24.23 5865.61,-17.23"/>
<text text-anchor="middle" x="7402.8" y="-57.8" font-family="Times,serif" font-size="14.00">previous</text>
</g>
<!-- http://purl.org/dj/kaggle/loops&#45;and&#45;list&#45;comprehensions&#45;daily#31260856 -->
<g id="node27" class="node">
<title>http://purl.org/dj/kaggle/loops&#45;and&#45;list&#45;comprehensions&#45;daily#31260856</title>
<ellipse fill="none" stroke="black" cx="7847.3" cy="-105" rx="94.78" ry="18"/>
<text text-anchor="middle" x="7847.3" y="-101.3" font-family="Times,serif" font-size="14.00">31260856 (6(0): Reuse)</text>
</g>
<!-- http://purl.org/dj/kaggle/loops&#45;and&#45;list&#45;comprehensions&#45;daily#31260856&#45;&gt;http://purl.org/dj/kaggle/loops&#45;and&#45;list&#45;comprehensions&#45;daily -->
<g id="edge44" class="edge">
<title>http://purl.org/dj/kaggle/loops&#45;and&#45;list&#45;comprehensions&#45;daily#31260856&#45;&gt;http://purl.org/dj/kaggle/loops&#45;and&#45;list&#45;comprehensions&#45;daily</title>
<path fill="none" stroke="black" d="M7779.41,-92.33C7767.4,-90.43 7755,-88.57 7743.3,-87 7604.66,-68.38 7569.91,-62.77 7430.3,-54 7128.35,-35.03 6224.68,-24.11 5866.2,-20.42"/>
<polygon fill="black" stroke="black" points="5866.05,-16.92 5856.01,-20.32 5865.97,-23.92 5866.05,-16.92"/>
<text text-anchor="middle" x="7625.8" y="-57.8" font-family="Times,serif" font-size="14.00">previous</text>
</g>
</g>
</svg>
