<?xml version="1.0" encoding="UTF-8" standalone="no"?>
<!DOCTYPE svg PUBLIC "-//W3C//DTD SVG 1.1//EN"
 "http://www.w3.org/Graphics/SVG/1.1/DTD/svg11.dtd">
<!-- Generated by graphviz version 2.47.1 (20210417.1919)
 -->
<!-- Pages: 1 -->
<svg width="2485pt" height="845pt"
 viewBox="0.00 0.00 2484.81 845.00" xmlns="http://www.w3.org/2000/svg" xmlns:xlink="http://www.w3.org/1999/xlink">
<g id="graph0" class="graph" transform="scale(1 1) rotate(0) translate(4 841)">
<polygon fill="white" stroke="transparent" points="-4,4 -4,-841 2480.81,-841 2480.81,4 -4,4"/>
<!-- http://purl.org/dj/kaggle/lstm&#45;sentiment&#45;analysis&#45;keras/activity/&#45;7171885292230713874 -->
<g id="node1" class="node">
<title>http://purl.org/dj/kaggle/lstm&#45;sentiment&#45;analysis&#45;keras/activity/&#45;7171885292230713874</title>
<ellipse fill="none" stroke="black" cx="392.83" cy="-819" rx="151.37" ry="18"/>
<text text-anchor="middle" x="392.83" y="-815.3" font-family="Times,serif" font-size="14.00">&#45;7171885292230713874 (Visualisation)</text>
</g>
<!-- http://purl.org/dj/kaggle/lstm&#45;sentiment&#45;analysis&#45;keras/activity/8107911964588510704 -->
<g id="node2" class="node">
<title>http://purl.org/dj/kaggle/lstm&#45;sentiment&#45;analysis&#45;keras/activity/8107911964588510704</title>
<ellipse fill="none" stroke="black" cx="428.83" cy="-732" rx="142.97" ry="18"/>
<text text-anchor="middle" x="428.83" y="-728.3" font-family="Times,serif" font-size="14.00">8107911964588510704 (Preparation)</text>
</g>
<!-- http://purl.org/dj/kaggle/lstm&#45;sentiment&#45;analysis&#45;keras/activity/&#45;7171885292230713874&#45;&gt;http://purl.org/dj/kaggle/lstm&#45;sentiment&#45;analysis&#45;keras/activity/8107911964588510704 -->
<g id="edge1" class="edge">
<title>http://purl.org/dj/kaggle/lstm&#45;sentiment&#45;analysis&#45;keras/activity/&#45;7171885292230713874&#45;&gt;http://purl.org/dj/kaggle/lstm&#45;sentiment&#45;analysis&#45;keras/activity/8107911964588510704</title>
<path fill="none" stroke="black" d="M400.11,-800.8C405.14,-788.93 411.92,-772.93 417.63,-759.45"/>
<polygon fill="black" stroke="black" points="420.88,-760.75 421.55,-750.18 414.43,-758.02 420.88,-760.75"/>
<text text-anchor="middle" x="437.33" y="-771.8" font-family="Times,serif" font-size="14.00">previous</text>
</g>
<!-- http://purl.org/dj/kaggle/lstm&#45;sentiment&#45;analysis&#45;keras/activity/&#45;7048824007510742484 -->
<g id="node3" class="node">
<title>http://purl.org/dj/kaggle/lstm&#45;sentiment&#45;analysis&#45;keras/activity/&#45;7048824007510742484</title>
<ellipse fill="none" stroke="black" cx="589.83" cy="-624" rx="151.37" ry="18"/>
<text text-anchor="middle" x="589.83" y="-620.3" font-family="Times,serif" font-size="14.00">&#45;7048824007510742484 (Visualisation)</text>
</g>
<!-- http://purl.org/dj/kaggle/lstm&#45;sentiment&#45;analysis&#45;keras/activity/8107911964588510704&#45;&gt;http://purl.org/dj/kaggle/lstm&#45;sentiment&#45;analysis&#45;keras/activity/&#45;7048824007510742484 -->
<g id="edge2" class="edge">
<title>http://purl.org/dj/kaggle/lstm&#45;sentiment&#45;analysis&#45;keras/activity/8107911964588510704&#45;&gt;http://purl.org/dj/kaggle/lstm&#45;sentiment&#45;analysis&#45;keras/activity/&#45;7048824007510742484</title>
<path fill="none" stroke="black" d="M441.69,-714.01C454.44,-698.17 475.28,-674.83 497.83,-660 506.79,-654.11 516.89,-649 527.03,-644.64"/>
<polygon fill="black" stroke="black" points="528.39,-647.87 536.33,-640.86 525.74,-641.39 528.39,-647.87"/>
<text text-anchor="middle" x="521.33" y="-674.3" font-family="Times,serif" font-size="14.00">previous</text>
</g>
<!-- http://purl.org/dj/kaggle/lstm&#45;sentiment&#45;analysis&#45;keras/activity/3465372980514593489 -->
<g id="node4" class="node">
<title>http://purl.org/dj/kaggle/lstm&#45;sentiment&#45;analysis&#45;keras/activity/3465372980514593489</title>
<ellipse fill="none" stroke="black" cx="996.83" cy="-105" rx="124.28" ry="18"/>
<text text-anchor="middle" x="996.83" y="-101.3" font-family="Times,serif" font-size="14.00">3465372980514593489 (Reuse)</text>
</g>
<!-- http://purl.org/dj/kaggle/lstm&#45;sentiment&#45;analysis&#45;keras/activity/8107911964588510704&#45;&gt;http://purl.org/dj/kaggle/lstm&#45;sentiment&#45;analysis&#45;keras/activity/3465372980514593489 -->
<g id="edge3" class="edge">
<title>http://purl.org/dj/kaggle/lstm&#45;sentiment&#45;analysis&#45;keras/activity/8107911964588510704&#45;&gt;http://purl.org/dj/kaggle/lstm&#45;sentiment&#45;analysis&#45;keras/activity/3465372980514593489</title>
<path fill="none" stroke="black" d="M524.08,-718.53C556.43,-713.1 592.55,-705.71 624.83,-696 682.78,-678.56 708.26,-685.98 749.83,-642 779.09,-611.04 763.33,-589.88 782.83,-552 827.18,-465.85 862.42,-458.63 905.83,-372 947.49,-288.86 977.54,-182.14 990.19,-132.99"/>
<polygon fill="black" stroke="black" points="993.62,-133.68 992.69,-123.13 986.84,-131.96 993.62,-133.68"/>
<text text-anchor="middle" x="919.33" y="-404.3" font-family="Times,serif" font-size="14.00">previous</text>
</g>
<!-- http://purl.org/dj/kaggle/lstm&#45;sentiment&#45;analysis&#45;keras/activity/&#45;1625426780739456122 -->
<g id="node5" class="node">
<title>http://purl.org/dj/kaggle/lstm&#45;sentiment&#45;analysis&#45;keras/activity/&#45;1625426780739456122</title>
<ellipse fill="none" stroke="black" cx="213.83" cy="-192" rx="151.37" ry="18"/>
<text text-anchor="middle" x="213.83" y="-188.3" font-family="Times,serif" font-size="14.00">&#45;1625426780739456122 (Visualisation)</text>
</g>
<!-- http://purl.org/dj/kaggle/lstm&#45;sentiment&#45;analysis&#45;keras/activity/8107911964588510704&#45;&gt;http://purl.org/dj/kaggle/lstm&#45;sentiment&#45;analysis&#45;keras/activity/&#45;1625426780739456122 -->
<g id="edge4" class="edge">
<title>http://purl.org/dj/kaggle/lstm&#45;sentiment&#45;analysis&#45;keras/activity/8107911964588510704&#45;&gt;http://purl.org/dj/kaggle/lstm&#45;sentiment&#45;analysis&#45;keras/activity/&#45;1625426780739456122</title>
<path fill="none" stroke="black" d="M322.32,-719.95C217.75,-706.06 73.83,-677.42 73.83,-625 73.83,-625 73.83,-625 73.83,-299 73.83,-256.84 114.68,-229.3 152.24,-212.89"/>
<polygon fill="black" stroke="black" points="153.81,-216.02 161.7,-208.95 151.12,-209.56 153.81,-216.02"/>
<text text-anchor="middle" x="97.33" y="-458.3" font-family="Times,serif" font-size="14.00">previous</text>
</g>
<!-- http://purl.org/dj/kaggle/lstm&#45;sentiment&#45;analysis&#45;keras/activity/3242207091818283446 -->
<g id="node6" class="node">
<title>http://purl.org/dj/kaggle/lstm&#45;sentiment&#45;analysis&#45;keras/activity/3242207091818283446</title>
<ellipse fill="none" stroke="black" cx="360.83" cy="-408" rx="148.67" ry="18"/>
<text text-anchor="middle" x="360.83" y="-404.3" font-family="Times,serif" font-size="14.00">3242207091818283446 (Visualisation)</text>
</g>
<!-- http://purl.org/dj/kaggle/lstm&#45;sentiment&#45;analysis&#45;keras/activity/8107911964588510704&#45;&gt;http://purl.org/dj/kaggle/lstm&#45;sentiment&#45;analysis&#45;keras/activity/3242207091818283446 -->
<g id="edge5" class="edge">
<title>http://purl.org/dj/kaggle/lstm&#45;sentiment&#45;analysis&#45;keras/activity/8107911964588510704&#45;&gt;http://purl.org/dj/kaggle/lstm&#45;sentiment&#45;analysis&#45;keras/activity/3242207091818283446</title>
<path fill="none" stroke="black" d="M397.27,-714.4C390.02,-709.33 382.95,-703.17 377.83,-696 348.88,-655.46 354.56,-637.36 347.83,-588 340.52,-534.42 349.1,-471.22 355.38,-436.07"/>
<polygon fill="black" stroke="black" points="358.84,-436.58 357.23,-426.1 351.96,-435.29 358.84,-436.58"/>
<text text-anchor="middle" x="371.33" y="-566.3" font-family="Times,serif" font-size="14.00">previous</text>
</g>
<!-- http://purl.org/dj/kaggle/lstm&#45;sentiment&#45;analysis&#45;keras/activity/&#45;7048824007510742484&#45;&gt;http://purl.org/dj/kaggle/lstm&#45;sentiment&#45;analysis&#45;keras/activity/8107911964588510704 -->
<g id="edge6" class="edge">
<title>http://purl.org/dj/kaggle/lstm&#45;sentiment&#45;analysis&#45;keras/activity/&#45;7048824007510742484&#45;&gt;http://purl.org/dj/kaggle/lstm&#45;sentiment&#45;analysis&#45;keras/activity/8107911964588510704</title>
<path fill="none" stroke="black" d="M583.17,-642.12C576.03,-658.28 563.19,-682.06 544.83,-696 535.69,-702.94 525.19,-708.51 514.31,-712.98"/>
<polygon fill="black" stroke="black" points="512.79,-709.81 504.68,-716.63 515.27,-716.36 512.79,-709.81"/>
<text text-anchor="middle" x="597.33" y="-674.3" font-family="Times,serif" font-size="14.00">previous</text>
</g>
<!-- http://purl.org/dj/kaggle/lstm&#45;sentiment&#45;analysis&#45;keras/activity/&#45;7048824007510742484&#45;&gt;http://purl.org/dj/kaggle/lstm&#45;sentiment&#45;analysis&#45;keras/activity/3465372980514593489 -->
<g id="edge7" class="edge">
<title>http://purl.org/dj/kaggle/lstm&#45;sentiment&#45;analysis&#45;keras/activity/&#45;7048824007510742484&#45;&gt;http://purl.org/dj/kaggle/lstm&#45;sentiment&#45;analysis&#45;keras/activity/3465372980514593489</title>
<path fill="none" stroke="black" d="M615.18,-606.23C622.99,-600.71 631.47,-594.35 638.83,-588 664.05,-566.22 669.13,-559.29 690.83,-534 789.12,-419.45 827.7,-398.18 896.83,-264 923.03,-213.14 898.93,-185.55 934.83,-141 938.85,-136.01 943.78,-131.61 949.1,-127.75"/>
<polygon fill="black" stroke="black" points="951.22,-130.55 957.68,-122.15 947.4,-124.69 951.22,-130.55"/>
<text text-anchor="middle" x="878.33" y="-350.3" font-family="Times,serif" font-size="14.00">previous</text>
</g>
<!-- http://purl.org/dj/kaggle/lstm&#45;sentiment&#45;analysis&#45;keras/activity/8234971119724991916 -->
<g id="node7" class="node">
<title>http://purl.org/dj/kaggle/lstm&#45;sentiment&#45;analysis&#45;keras/activity/8234971119724991916</title>
<ellipse fill="none" stroke="black" cx="548.83" cy="-516" rx="133.48" ry="18"/>
<text text-anchor="middle" x="548.83" y="-512.3" font-family="Times,serif" font-size="14.00">8234971119724991916 (Analysis)</text>
</g>
<!-- http://purl.org/dj/kaggle/lstm&#45;sentiment&#45;analysis&#45;keras/activity/&#45;7048824007510742484&#45;&gt;http://purl.org/dj/kaggle/lstm&#45;sentiment&#45;analysis&#45;keras/activity/8234971119724991916 -->
<g id="edge8" class="edge">
<title>http://purl.org/dj/kaggle/lstm&#45;sentiment&#45;analysis&#45;keras/activity/&#45;7048824007510742484&#45;&gt;http://purl.org/dj/kaggle/lstm&#45;sentiment&#45;analysis&#45;keras/activity/8234971119724991916</title>
<path fill="none" stroke="black" d="M589.41,-605.92C588.49,-591.07 585.74,-569.27 577.83,-552 576.26,-548.57 574.26,-545.2 572.05,-541.99"/>
<polygon fill="black" stroke="black" points="574.73,-539.72 565.86,-533.92 569.17,-543.98 574.73,-539.72"/>
<text text-anchor="middle" x="611.33" y="-566.3" font-family="Times,serif" font-size="14.00">previous</text>
</g>
<!-- http://purl.org/dj/kaggle/lstm&#45;sentiment&#45;analysis&#45;keras -->
<g id="node8" class="node">
<title>http://purl.org/dj/kaggle/lstm&#45;sentiment&#45;analysis&#45;keras</title>
<ellipse fill="none" stroke="black" cx="252.83" cy="-18" rx="252.66" ry="18"/>
<text text-anchor="middle" x="252.83" y="-14.3" font-family="Times,serif" font-size="14.00">lstm&#45;sentiment&#45;analysis&#45;keras (lstm&#45;sentiment&#45;analysis&#45;keras.ipynb)</text>
</g>
<!-- http://purl.org/dj/kaggle/lstm&#45;sentiment&#45;analysis&#45;keras/activity/3465372980514593489&#45;&gt;http://purl.org/dj/kaggle/lstm&#45;sentiment&#45;analysis&#45;keras -->
<g id="edge9" class="edge">
<title>http://purl.org/dj/kaggle/lstm&#45;sentiment&#45;analysis&#45;keras/activity/3465372980514593489&#45;&gt;http://purl.org/dj/kaggle/lstm&#45;sentiment&#45;analysis&#45;keras</title>
<path fill="none" stroke="black" d="M902.6,-93.23C773.21,-78.45 539.67,-51.77 390.64,-34.74"/>
<polygon fill="black" stroke="black" points="390.84,-31.24 380.5,-33.59 390.04,-38.2 390.84,-31.24"/>
<text text-anchor="middle" x="692.33" y="-57.8" font-family="Times,serif" font-size="14.00">previous</text>
</g>
<!-- http://purl.org/dj/kaggle/lstm&#45;sentiment&#45;analysis&#45;keras/activity/&#45;1625426780739456122&#45;&gt;http://purl.org/dj/kaggle/lstm&#45;sentiment&#45;analysis&#45;keras/activity/3465372980514593489 -->
<g id="edge10" class="edge">
<title>http://purl.org/dj/kaggle/lstm&#45;sentiment&#45;analysis&#45;keras/activity/&#45;1625426780739456122&#45;&gt;http://purl.org/dj/kaggle/lstm&#45;sentiment&#45;analysis&#45;keras/activity/3465372980514593489</title>
<path fill="none" stroke="black" d="M247.11,-174.34C271.98,-162.75 307.18,-148.15 339.83,-141 436.14,-119.92 701.33,-111.35 863.83,-108.01"/>
<polygon fill="black" stroke="black" points="863.97,-111.51 873.9,-107.81 863.83,-104.51 863.97,-111.51"/>
<text text-anchor="middle" x="363.33" y="-144.8" font-family="Times,serif" font-size="14.00">previous</text>
</g>
<!-- http://purl.org/dj/kaggle/lstm&#45;sentiment&#45;analysis&#45;keras/activity/&#45;1625426780739456122&#45;&gt;http://purl.org/dj/kaggle/lstm&#45;sentiment&#45;analysis&#45;keras -->
<g id="edge11" class="edge">
<title>http://purl.org/dj/kaggle/lstm&#45;sentiment&#45;analysis&#45;keras/activity/&#45;1625426780739456122&#45;&gt;http://purl.org/dj/kaggle/lstm&#45;sentiment&#45;analysis&#45;keras</title>
<path fill="none" stroke="black" d="M217.71,-173.88C224.51,-143.87 238.64,-81.58 246.75,-45.81"/>
<polygon fill="black" stroke="black" points="250.16,-46.58 248.96,-36.05 243.34,-45.03 250.16,-46.58"/>
<text text-anchor="middle" x="261.33" y="-101.3" font-family="Times,serif" font-size="14.00">previous</text>
</g>
<!-- http://purl.org/dj/kaggle/lstm&#45;sentiment&#45;analysis&#45;keras/activity/3242207091818283446&#45;&gt;http://purl.org/dj/kaggle/lstm&#45;sentiment&#45;analysis&#45;keras/activity/3465372980514593489 -->
<g id="edge12" class="edge">
<title>http://purl.org/dj/kaggle/lstm&#45;sentiment&#45;analysis&#45;keras/activity/3242207091818283446&#45;&gt;http://purl.org/dj/kaggle/lstm&#45;sentiment&#45;analysis&#45;keras/activity/3465372980514593489</title>
<path fill="none" stroke="black" d="M376.38,-389.86C392.85,-371.86 417.96,-344.95 428.83,-336 440.25,-326.59 448.05,-329.91 456.83,-318 481.46,-284.58 457.77,-261.83 481.83,-228 506.26,-193.64 521.28,-191.07 559.83,-174 656.15,-131.34 774.76,-114.87 864.1,-108.78"/>
<polygon fill="black" stroke="black" points="864.54,-112.26 874.29,-108.12 864.09,-105.27 864.54,-112.26"/>
<text text-anchor="middle" x="505.33" y="-242.3" font-family="Times,serif" font-size="14.00">previous</text>
</g>
<!-- http://purl.org/dj/kaggle/lstm&#45;sentiment&#45;analysis&#45;keras/activity/6688487687783929484 -->
<g id="node9" class="node">
<title>http://purl.org/dj/kaggle/lstm&#45;sentiment&#45;analysis&#45;keras/activity/6688487687783929484</title>
<ellipse fill="none" stroke="black" cx="305.83" cy="-300" rx="141.88" ry="18"/>
<text text-anchor="middle" x="305.83" y="-296.3" font-family="Times,serif" font-size="14.00">6688487687783929484 (Movement)</text>
</g>
<!-- http://purl.org/dj/kaggle/lstm&#45;sentiment&#45;analysis&#45;keras/activity/3242207091818283446&#45;&gt;http://purl.org/dj/kaggle/lstm&#45;sentiment&#45;analysis&#45;keras/activity/6688487687783929484 -->
<g id="edge13" class="edge">
<title>http://purl.org/dj/kaggle/lstm&#45;sentiment&#45;analysis&#45;keras/activity/3242207091818283446&#45;&gt;http://purl.org/dj/kaggle/lstm&#45;sentiment&#45;analysis&#45;keras/activity/6688487687783929484</title>
<path fill="none" stroke="black" d="M351.99,-389.97C343.17,-372.97 329.5,-346.62 319.32,-327.01"/>
<polygon fill="black" stroke="black" points="322.35,-325.25 314.64,-317.99 316.14,-328.48 322.35,-325.25"/>
<text text-anchor="middle" x="365.33" y="-350.3" font-family="Times,serif" font-size="14.00">previous</text>
</g>
<!-- http://purl.org/dj/kaggle/lstm&#45;sentiment&#45;analysis&#45;keras/activity/8234971119724991916&#45;&gt;http://purl.org/dj/kaggle/lstm&#45;sentiment&#45;analysis&#45;keras/activity/8107911964588510704 -->
<g id="edge14" class="edge">
<title>http://purl.org/dj/kaggle/lstm&#45;sentiment&#45;analysis&#45;keras/activity/8234971119724991916&#45;&gt;http://purl.org/dj/kaggle/lstm&#45;sentiment&#45;analysis&#45;keras/activity/8107911964588510704</title>
<path fill="none" stroke="black" d="M488.65,-532.18C451.09,-545.11 405.67,-567.84 382.83,-606 363.54,-638.23 387.24,-679.88 407.15,-706.02"/>
<polygon fill="black" stroke="black" points="404.47,-708.27 413.42,-713.93 409.95,-703.92 404.47,-708.27"/>
<text text-anchor="middle" x="406.33" y="-620.3" font-family="Times,serif" font-size="14.00">previous</text>
</g>
<!-- http://purl.org/dj/kaggle/lstm&#45;sentiment&#45;analysis&#45;keras/activity/8234971119724991916&#45;&gt;http://purl.org/dj/kaggle/lstm&#45;sentiment&#45;analysis&#45;keras/activity/&#45;7048824007510742484 -->
<g id="edge15" class="edge">
<title>http://purl.org/dj/kaggle/lstm&#45;sentiment&#45;analysis&#45;keras/activity/8234971119724991916&#45;&gt;http://purl.org/dj/kaggle/lstm&#45;sentiment&#45;analysis&#45;keras/activity/&#45;7048824007510742484</title>
<path fill="none" stroke="black" d="M536.15,-533.97C526.63,-548.95 516.81,-570.98 526.83,-588 529.64,-592.79 533.38,-596.96 537.62,-600.6"/>
<polygon fill="black" stroke="black" points="535.61,-603.46 545.74,-606.58 539.76,-597.83 535.61,-603.46"/>
<text text-anchor="middle" x="550.33" y="-566.3" font-family="Times,serif" font-size="14.00">previous</text>
</g>
<!-- http://purl.org/dj/kaggle/lstm&#45;sentiment&#45;analysis&#45;keras/activity/8234971119724991916&#45;&gt;http://purl.org/dj/kaggle/lstm&#45;sentiment&#45;analysis&#45;keras/activity/&#45;1625426780739456122 -->
<g id="edge16" class="edge">
<title>http://purl.org/dj/kaggle/lstm&#45;sentiment&#45;analysis&#45;keras/activity/8234971119724991916&#45;&gt;http://purl.org/dj/kaggle/lstm&#45;sentiment&#45;analysis&#45;keras/activity/&#45;1625426780739456122</title>
<path fill="none" stroke="black" d="M424.62,-509.39C352.65,-500.22 264.39,-478.08 202.83,-426 151.32,-382.43 135.36,-346.59 154.83,-282 161.98,-258.27 177.75,-235.05 191.19,-218.28"/>
<polygon fill="black" stroke="black" points="194.26,-220.07 197.95,-210.13 188.87,-215.6 194.26,-220.07"/>
<text text-anchor="middle" x="180.33" y="-350.3" font-family="Times,serif" font-size="14.00">previous</text>
</g>
<!-- http://purl.org/dj/kaggle/lstm&#45;sentiment&#45;analysis&#45;keras/activity/8234971119724991916&#45;&gt;http://purl.org/dj/kaggle/lstm&#45;sentiment&#45;analysis&#45;keras/activity/3242207091818283446 -->
<g id="edge17" class="edge">
<title>http://purl.org/dj/kaggle/lstm&#45;sentiment&#45;analysis&#45;keras/activity/8234971119724991916&#45;&gt;http://purl.org/dj/kaggle/lstm&#45;sentiment&#45;analysis&#45;keras/activity/3242207091818283446</title>
<path fill="none" stroke="black" d="M519.45,-498.44C487.22,-480.26 435.34,-451.01 399.74,-430.94"/>
<polygon fill="black" stroke="black" points="401.05,-427.66 390.62,-425.8 397.61,-433.76 401.05,-427.66"/>
<text text-anchor="middle" x="506.33" y="-458.3" font-family="Times,serif" font-size="14.00">previous</text>
</g>
<!-- http://purl.org/dj/kaggle/lstm&#45;sentiment&#45;analysis&#45;keras/activity/&#45;1795020968265471111 -->
<g id="node10" class="node">
<title>http://purl.org/dj/kaggle/lstm&#45;sentiment&#45;analysis&#45;keras/activity/&#45;1795020968265471111</title>
<ellipse fill="none" stroke="black" cx="580.83" cy="-354" rx="151.37" ry="18"/>
<text text-anchor="middle" x="580.83" y="-350.3" font-family="Times,serif" font-size="14.00">&#45;1795020968265471111 (Visualisation)</text>
</g>
<!-- http://purl.org/dj/kaggle/lstm&#45;sentiment&#45;analysis&#45;keras/activity/8234971119724991916&#45;&gt;http://purl.org/dj/kaggle/lstm&#45;sentiment&#45;analysis&#45;keras/activity/&#45;1795020968265471111 -->
<g id="edge18" class="edge">
<title>http://purl.org/dj/kaggle/lstm&#45;sentiment&#45;analysis&#45;keras/activity/8234971119724991916&#45;&gt;http://purl.org/dj/kaggle/lstm&#45;sentiment&#45;analysis&#45;keras/activity/&#45;1795020968265471111</title>
<path fill="none" stroke="black" d="M552.25,-497.88C557.81,-470.09 568.84,-414.96 575.45,-381.9"/>
<polygon fill="black" stroke="black" points="578.9,-382.49 577.43,-372 572.03,-381.12 578.9,-382.49"/>
<text text-anchor="middle" x="586.33" y="-458.3" font-family="Times,serif" font-size="14.00">previous</text>
</g>
<!-- http://purl.org/dj/kaggle/lstm&#45;sentiment&#45;analysis&#45;keras/activity/3875637267781599032 -->
<g id="node11" class="node">
<title>http://purl.org/dj/kaggle/lstm&#45;sentiment&#45;analysis&#45;keras/activity/3875637267781599032</title>
<ellipse fill="none" stroke="black" cx="746.83" cy="-246" rx="148.67" ry="18"/>
<text text-anchor="middle" x="746.83" y="-242.3" font-family="Times,serif" font-size="14.00">3875637267781599032 (Visualisation)</text>
</g>
<!-- http://purl.org/dj/kaggle/lstm&#45;sentiment&#45;analysis&#45;keras/activity/8234971119724991916&#45;&gt;http://purl.org/dj/kaggle/lstm&#45;sentiment&#45;analysis&#45;keras/activity/3875637267781599032 -->
<g id="edge19" class="edge">
<title>http://purl.org/dj/kaggle/lstm&#45;sentiment&#45;analysis&#45;keras/activity/8234971119724991916&#45;&gt;http://purl.org/dj/kaggle/lstm&#45;sentiment&#45;analysis&#45;keras/activity/3875637267781599032</title>
<path fill="none" stroke="black" d="M585.8,-498.55C629.81,-476.71 701.33,-433.6 732.83,-372 748.56,-341.24 750.19,-300.76 749.15,-274.32"/>
<polygon fill="black" stroke="black" points="752.64,-274.05 748.59,-264.26 745.65,-274.43 752.64,-274.05"/>
<text text-anchor="middle" x="744.33" y="-404.3" font-family="Times,serif" font-size="14.00">previous</text>
</g>
<!-- http://purl.org/dj/kaggle/lstm&#45;sentiment&#45;analysis&#45;keras/activity/6688487687783929484&#45;&gt;http://purl.org/dj/kaggle/lstm&#45;sentiment&#45;analysis&#45;keras/activity/3465372980514593489 -->
<g id="edge32" class="edge">
<title>http://purl.org/dj/kaggle/lstm&#45;sentiment&#45;analysis&#45;keras/activity/6688487687783929484&#45;&gt;http://purl.org/dj/kaggle/lstm&#45;sentiment&#45;analysis&#45;keras/activity/3465372980514593489</title>
<path fill="none" stroke="black" d="M318.76,-281.66C338.07,-256.39 376.31,-208.67 414.83,-174 433.8,-156.92 437.75,-149.48 461.83,-141 533,-115.92 728.65,-108.57 862.54,-106.55"/>
<polygon fill="black" stroke="black" points="862.92,-110.05 872.87,-106.4 862.83,-103.05 862.92,-110.05"/>
<text text-anchor="middle" x="438.33" y="-188.3" font-family="Times,serif" font-size="14.00">previous</text>
</g>
<!-- http://purl.org/dj/kaggle/lstm&#45;sentiment&#45;analysis&#45;keras/activity/6688487687783929484&#45;&gt;http://purl.org/dj/kaggle/lstm&#45;sentiment&#45;analysis&#45;keras/activity/&#45;1625426780739456122 -->
<g id="edge33" class="edge">
<title>http://purl.org/dj/kaggle/lstm&#45;sentiment&#45;analysis&#45;keras/activity/6688487687783929484&#45;&gt;http://purl.org/dj/kaggle/lstm&#45;sentiment&#45;analysis&#45;keras/activity/&#45;1625426780739456122</title>
<path fill="none" stroke="black" d="M291.05,-281.97C275.96,-264.58 252.38,-237.42 235.25,-217.68"/>
<polygon fill="black" stroke="black" points="237.77,-215.25 228.57,-209.99 232.48,-219.83 237.77,-215.25"/>
<text text-anchor="middle" x="297.33" y="-242.3" font-family="Times,serif" font-size="14.00">previous</text>
</g>
<!-- http://purl.org/dj/kaggle/lstm&#45;sentiment&#45;analysis&#45;keras/activity/&#45;1795020968265471111&#45;&gt;http://purl.org/dj/kaggle/lstm&#45;sentiment&#45;analysis&#45;keras/activity/3465372980514593489 -->
<g id="edge20" class="edge">
<title>http://purl.org/dj/kaggle/lstm&#45;sentiment&#45;analysis&#45;keras/activity/&#45;1795020968265471111&#45;&gt;http://purl.org/dj/kaggle/lstm&#45;sentiment&#45;analysis&#45;keras/activity/3465372980514593489</title>
<path fill="none" stroke="black" d="M566.62,-335.93C546.98,-310.16 516.64,-260.83 541.83,-228 584.65,-172.18 775.4,-136.29 895.92,-118.75"/>
<polygon fill="black" stroke="black" points="896.51,-122.2 905.91,-117.31 895.52,-115.27 896.51,-122.2"/>
<text text-anchor="middle" x="565.33" y="-242.3" font-family="Times,serif" font-size="14.00">previous</text>
</g>
<!-- http://purl.org/dj/kaggle/lstm&#45;sentiment&#45;analysis&#45;keras/activity/3875637267781599032&#45;&gt;http://purl.org/dj/kaggle/lstm&#45;sentiment&#45;analysis&#45;keras/activity/3465372980514593489 -->
<g id="edge21" class="edge">
<title>http://purl.org/dj/kaggle/lstm&#45;sentiment&#45;analysis&#45;keras/activity/3875637267781599032&#45;&gt;http://purl.org/dj/kaggle/lstm&#45;sentiment&#45;analysis&#45;keras/activity/3465372980514593489</title>
<path fill="none" stroke="black" d="M767.54,-227.92C795.47,-205.54 847.42,-166.19 896.83,-141 908.71,-134.94 921.89,-129.51 934.67,-124.83"/>
<polygon fill="black" stroke="black" points="936.08,-128.04 944.34,-121.4 933.74,-121.44 936.08,-128.04"/>
<text text-anchor="middle" x="861.33" y="-188.3" font-family="Times,serif" font-size="14.00">previous</text>
</g>
<!-- http://purl.org/dj/kaggle/lstm&#45;sentiment&#45;analysis&#45;keras/activity/&#45;4481979840516264575 -->
<g id="node12" class="node">
<title>http://purl.org/dj/kaggle/lstm&#45;sentiment&#45;analysis&#45;keras/activity/&#45;4481979840516264575</title>
<ellipse fill="none" stroke="black" cx="1348.83" cy="-819" rx="151.37" ry="18"/>
<text text-anchor="middle" x="1348.83" y="-815.3" font-family="Times,serif" font-size="14.00">&#45;4481979840516264575 (Visualisation)</text>
</g>
<!-- http://purl.org/dj/kaggle/lstm&#45;sentiment&#45;analysis&#45;keras/activity/&#45;4481979840516264575&#45;&gt;http://purl.org/dj/kaggle/lstm&#45;sentiment&#45;analysis&#45;keras/activity/3465372980514593489 -->
<g id="edge22" class="edge">
<title>http://purl.org/dj/kaggle/lstm&#45;sentiment&#45;analysis&#45;keras/activity/&#45;4481979840516264575&#45;&gt;http://purl.org/dj/kaggle/lstm&#45;sentiment&#45;analysis&#45;keras/activity/3465372980514593489</title>
<path fill="none" stroke="black" d="M1499.28,-816.7C1728.49,-812.69 2138.83,-796.63 2138.83,-733 2138.83,-733 2138.83,-733 2138.83,-191 2138.83,-153.66 2318.61,-182.2 1654.83,-141 1469.83,-129.52 1255.42,-118.55 1122.94,-112.04"/>
<polygon fill="black" stroke="black" points="1122.91,-108.54 1112.75,-111.54 1122.57,-115.53 1122.91,-108.54"/>
<text text-anchor="middle" x="2162.33" y="-458.3" font-family="Times,serif" font-size="14.00">previous</text>
</g>
<!-- http://purl.org/dj/kaggle/lstm&#45;sentiment&#45;analysis&#45;keras/activity/6623573774788961178 -->
<g id="node13" class="node">
<title>http://purl.org/dj/kaggle/lstm&#45;sentiment&#45;analysis&#45;keras/activity/6623573774788961178</title>
<ellipse fill="none" stroke="black" cx="2333.83" cy="-462" rx="142.97" ry="18"/>
<text text-anchor="middle" x="2333.83" y="-458.3" font-family="Times,serif" font-size="14.00">6623573774788961178 (Preparation)</text>
</g>
<!-- http://purl.org/dj/kaggle/lstm&#45;sentiment&#45;analysis&#45;keras/activity/&#45;4481979840516264575&#45;&gt;http://purl.org/dj/kaggle/lstm&#45;sentiment&#45;analysis&#45;keras/activity/6623573774788961178 -->
<g id="edge23" class="edge">
<title>http://purl.org/dj/kaggle/lstm&#45;sentiment&#45;analysis&#45;keras/activity/&#45;4481979840516264575&#45;&gt;http://purl.org/dj/kaggle/lstm&#45;sentiment&#45;analysis&#45;keras/activity/6623573774788961178</title>
<path fill="none" stroke="black" d="M1500.4,-818.78C1698.35,-818.53 2033.69,-813.38 2152.83,-783 2201.75,-770.53 2254.83,-783.49 2254.83,-733 2254.83,-733 2254.83,-733 2254.83,-569 2254.83,-535.68 2280.23,-506.06 2302.23,-486.66"/>
<polygon fill="black" stroke="black" points="2304.75,-489.12 2310.12,-479.99 2300.23,-483.77 2304.75,-489.12"/>
<text text-anchor="middle" x="2278.33" y="-674.3" font-family="Times,serif" font-size="14.00">previous</text>
</g>
<!-- http://purl.org/dj/kaggle/lstm&#45;sentiment&#45;analysis&#45;keras/activity/4211399209761853673 -->
<g id="node14" class="node">
<title>http://purl.org/dj/kaggle/lstm&#45;sentiment&#45;analysis&#45;keras/activity/4211399209761853673</title>
<ellipse fill="none" stroke="black" cx="996.83" cy="-570" rx="142.97" ry="18"/>
<text text-anchor="middle" x="996.83" y="-566.3" font-family="Times,serif" font-size="14.00">4211399209761853673 (Preparation)</text>
</g>
<!-- http://purl.org/dj/kaggle/lstm&#45;sentiment&#45;analysis&#45;keras/activity/&#45;4481979840516264575&#45;&gt;http://purl.org/dj/kaggle/lstm&#45;sentiment&#45;analysis&#45;keras/activity/4211399209761853673 -->
<g id="edge24" class="edge">
<title>http://purl.org/dj/kaggle/lstm&#45;sentiment&#45;analysis&#45;keras/activity/&#45;4481979840516264575&#45;&gt;http://purl.org/dj/kaggle/lstm&#45;sentiment&#45;analysis&#45;keras/activity/4211399209761853673</title>
<path fill="none" stroke="black" d="M1217.26,-809.96C1144.3,-801.6 1053.5,-784.59 978.83,-750 910.05,-718.14 879.29,-710.5 846.83,-642 839.98,-627.54 836.88,-618.53 846.83,-606 853.6,-597.46 871.27,-590.81 892.21,-585.72"/>
<polygon fill="black" stroke="black" points="893.06,-589.11 902.03,-583.48 891.51,-582.29 893.06,-589.11"/>
<text text-anchor="middle" x="1002.33" y="-728.3" font-family="Times,serif" font-size="14.00">previous</text>
</g>
<!-- http://purl.org/dj/kaggle/lstm&#45;sentiment&#45;analysis&#45;keras/activity/8451753066959645685 -->
<g id="node15" class="node">
<title>http://purl.org/dj/kaggle/lstm&#45;sentiment&#45;analysis&#45;keras/activity/8451753066959645685</title>
<ellipse fill="none" stroke="black" cx="1177.83" cy="-732" rx="142.97" ry="18"/>
<text text-anchor="middle" x="1177.83" y="-728.3" font-family="Times,serif" font-size="14.00">8451753066959645685 (Preparation)</text>
</g>
<!-- http://purl.org/dj/kaggle/lstm&#45;sentiment&#45;analysis&#45;keras/activity/&#45;4481979840516264575&#45;&gt;http://purl.org/dj/kaggle/lstm&#45;sentiment&#45;analysis&#45;keras/activity/8451753066959645685 -->
<g id="edge25" class="edge">
<title>http://purl.org/dj/kaggle/lstm&#45;sentiment&#45;analysis&#45;keras/activity/&#45;4481979840516264575&#45;&gt;http://purl.org/dj/kaggle/lstm&#45;sentiment&#45;analysis&#45;keras/activity/8451753066959645685</title>
<path fill="none" stroke="black" d="M1315.45,-801.41C1288.26,-787.89 1249.7,-768.73 1220.31,-754.12"/>
<polygon fill="black" stroke="black" points="1221.63,-750.87 1211.12,-749.55 1218.52,-757.13 1221.63,-750.87"/>
<text text-anchor="middle" x="1296.33" y="-771.8" font-family="Times,serif" font-size="14.00">previous</text>
</g>
<!-- http://purl.org/dj/kaggle/lstm&#45;sentiment&#45;analysis&#45;keras/activity/&#45;6945989209663045310 -->
<g id="node16" class="node">
<title>http://purl.org/dj/kaggle/lstm&#45;sentiment&#45;analysis&#45;keras/activity/&#45;6945989209663045310</title>
<ellipse fill="none" stroke="black" cx="1343.83" cy="-678" rx="145.67" ry="18"/>
<text text-anchor="middle" x="1343.83" y="-674.3" font-family="Times,serif" font-size="14.00">&#45;6945989209663045310 (Preparation)</text>
</g>
<!-- http://purl.org/dj/kaggle/lstm&#45;sentiment&#45;analysis&#45;keras/activity/&#45;4481979840516264575&#45;&gt;http://purl.org/dj/kaggle/lstm&#45;sentiment&#45;analysis&#45;keras/activity/&#45;6945989209663045310 -->
<g id="edge26" class="edge">
<title>http://purl.org/dj/kaggle/lstm&#45;sentiment&#45;analysis&#45;keras/activity/&#45;4481979840516264575&#45;&gt;http://purl.org/dj/kaggle/lstm&#45;sentiment&#45;analysis&#45;keras/activity/&#45;6945989209663045310</title>
<path fill="none" stroke="black" d="M1348.21,-800.96C1347.37,-777.4 1345.83,-734.64 1344.82,-706.53"/>
<polygon fill="black" stroke="black" points="1348.3,-706.05 1344.45,-696.18 1341.31,-706.3 1348.3,-706.05"/>
<text text-anchor="middle" x="1370.33" y="-771.8" font-family="Times,serif" font-size="14.00">previous</text>
</g>
<!-- http://purl.org/dj/kaggle/lstm&#45;sentiment&#45;analysis&#45;keras/activity/6623573774788961178&#45;&gt;http://purl.org/dj/kaggle/lstm&#45;sentiment&#45;analysis&#45;keras/activity/3465372980514593489 -->
<g id="edge27" class="edge">
<title>http://purl.org/dj/kaggle/lstm&#45;sentiment&#45;analysis&#45;keras/activity/6623573774788961178&#45;&gt;http://purl.org/dj/kaggle/lstm&#45;sentiment&#45;analysis&#45;keras/activity/3465372980514593489</title>
<path fill="none" stroke="black" d="M2311.73,-444.09C2289.61,-425.08 2258.83,-391.97 2258.83,-355 2258.83,-355 2258.83,-355 2258.83,-191 2258.83,-138.91 2203.48,-153.15 2152.83,-141 2055.92,-117.74 1413.98,-109.51 1130.73,-106.98"/>
<polygon fill="black" stroke="black" points="1130.42,-103.48 1120.39,-106.89 1130.36,-110.48 1130.42,-103.48"/>
<text text-anchor="middle" x="2282.33" y="-296.3" font-family="Times,serif" font-size="14.00">previous</text>
</g>
<!-- http://purl.org/dj/kaggle/lstm&#45;sentiment&#45;analysis&#45;keras/activity/4211399209761853673&#45;&gt;http://purl.org/dj/kaggle/lstm&#45;sentiment&#45;analysis&#45;keras/activity/3465372980514593489 -->
<g id="edge28" class="edge">
<title>http://purl.org/dj/kaggle/lstm&#45;sentiment&#45;analysis&#45;keras/activity/4211399209761853673&#45;&gt;http://purl.org/dj/kaggle/lstm&#45;sentiment&#45;analysis&#45;keras/activity/3465372980514593489</title>
<path fill="none" stroke="black" d="M996.83,-551.74C996.83,-530.76 996.83,-494.28 996.83,-463 996.83,-463 996.83,-463 996.83,-191 996.83,-171.75 996.83,-150.05 996.83,-133.4"/>
<polygon fill="black" stroke="black" points="1000.33,-133.26 996.83,-123.26 993.33,-133.26 1000.33,-133.26"/>
<text text-anchor="middle" x="1020.33" y="-350.3" font-family="Times,serif" font-size="14.00">previous</text>
</g>
<!-- http://purl.org/dj/kaggle/lstm&#45;sentiment&#45;analysis&#45;keras/activity/8451753066959645685&#45;&gt;http://purl.org/dj/kaggle/lstm&#45;sentiment&#45;analysis&#45;keras/activity/3465372980514593489 -->
<g id="edge29" class="edge">
<title>http://purl.org/dj/kaggle/lstm&#45;sentiment&#45;analysis&#45;keras/activity/8451753066959645685&#45;&gt;http://purl.org/dj/kaggle/lstm&#45;sentiment&#45;analysis&#45;keras/activity/3465372980514593489</title>
<path fill="none" stroke="black" d="M1176.86,-713.91C1174.93,-681.98 1170.07,-611.18 1161.83,-552 1135.31,-361.57 1132.02,-301.94 1026.83,-141 1024.62,-137.63 1022.13,-134.23 1019.54,-130.95"/>
<polygon fill="black" stroke="black" points="1022.11,-128.56 1013.03,-123.1 1016.72,-133.03 1022.11,-128.56"/>
<text text-anchor="middle" x="1166.33" y="-404.3" font-family="Times,serif" font-size="14.00">previous</text>
</g>
<!-- http://purl.org/dj/kaggle/lstm&#45;sentiment&#45;analysis&#45;keras/activity/&#45;928929052802754676 -->
<g id="node17" class="node">
<title>http://purl.org/dj/kaggle/lstm&#45;sentiment&#45;analysis&#45;keras/activity/&#45;928929052802754676</title>
<ellipse fill="none" stroke="black" cx="1003.83" cy="-624" rx="147.57" ry="18"/>
<text text-anchor="middle" x="1003.83" y="-620.3" font-family="Times,serif" font-size="14.00">&#45;928929052802754676 (Visualisation)</text>
</g>
<!-- http://purl.org/dj/kaggle/lstm&#45;sentiment&#45;analysis&#45;keras/activity/8451753066959645685&#45;&gt;http://purl.org/dj/kaggle/lstm&#45;sentiment&#45;analysis&#45;keras/activity/&#45;928929052802754676 -->
<g id="edge30" class="edge">
<title>http://purl.org/dj/kaggle/lstm&#45;sentiment&#45;analysis&#45;keras/activity/8451753066959645685&#45;&gt;http://purl.org/dj/kaggle/lstm&#45;sentiment&#45;analysis&#45;keras/activity/&#45;928929052802754676</title>
<path fill="none" stroke="black" d="M1149.26,-714.19C1139.58,-708.46 1128.71,-701.98 1118.83,-696 1092.07,-679.8 1062,-661.22 1039.31,-647.13"/>
<polygon fill="black" stroke="black" points="1041.04,-644.08 1030.7,-641.78 1037.34,-650.03 1041.04,-644.08"/>
<text text-anchor="middle" x="1142.33" y="-674.3" font-family="Times,serif" font-size="14.00">previous</text>
</g>
<!-- http://purl.org/dj/kaggle/lstm&#45;sentiment&#45;analysis&#45;keras/activity/&#45;6945989209663045310&#45;&gt;http://purl.org/dj/kaggle/lstm&#45;sentiment&#45;analysis&#45;keras/activity/3465372980514593489 -->
<g id="edge31" class="edge">
<title>http://purl.org/dj/kaggle/lstm&#45;sentiment&#45;analysis&#45;keras/activity/&#45;6945989209663045310&#45;&gt;http://purl.org/dj/kaggle/lstm&#45;sentiment&#45;analysis&#45;keras/activity/3465372980514593489</title>
<path fill="none" stroke="black" d="M1337.88,-659.96C1307.31,-572.74 1167.62,-178.91 1124.83,-141 1115.51,-132.74 1104.42,-126.41 1092.72,-121.56"/>
<polygon fill="black" stroke="black" points="1093.82,-118.24 1083.23,-117.98 1091.35,-124.79 1093.82,-118.24"/>
<text text-anchor="middle" x="1275.33" y="-404.3" font-family="Times,serif" font-size="14.00">previous</text>
</g>
<!-- http://purl.org/dj/kaggle/lstm&#45;sentiment&#45;analysis&#45;keras/activity/&#45;928929052802754676&#45;&gt;http://purl.org/dj/kaggle/lstm&#45;sentiment&#45;analysis&#45;keras/activity/3465372980514593489 -->
<g id="edge36" class="edge">
<title>http://purl.org/dj/kaggle/lstm&#45;sentiment&#45;analysis&#45;keras/activity/&#45;928929052802754676&#45;&gt;http://purl.org/dj/kaggle/lstm&#45;sentiment&#45;analysis&#45;keras/activity/3465372980514593489</title>
<path fill="none" stroke="black" d="M1091.21,-609.47C1113.83,-604.1 1133.83,-597.02 1140.83,-588 1172.87,-546.74 1149.88,-608.37 1073.83,-372 1041.23,-270.7 1044.64,-241.9 1010.83,-141 1009.91,-138.27 1008.9,-135.44 1007.84,-132.62"/>
<polygon fill="black" stroke="black" points="1011.1,-131.34 1004.2,-123.3 1004.58,-133.89 1011.1,-131.34"/>
<text text-anchor="middle" x="1097.33" y="-350.3" font-family="Times,serif" font-size="14.00">previous</text>
</g>
<!-- http://purl.org/dj/kaggle/lstm&#45;sentiment&#45;analysis&#45;keras/activity/&#45;928929052802754676&#45;&gt;http://purl.org/dj/kaggle/lstm&#45;sentiment&#45;analysis&#45;keras/activity/8234971119724991916 -->
<g id="edge37" class="edge">
<title>http://purl.org/dj/kaggle/lstm&#45;sentiment&#45;analysis&#45;keras/activity/&#45;928929052802754676&#45;&gt;http://purl.org/dj/kaggle/lstm&#45;sentiment&#45;analysis&#45;keras/activity/8234971119724991916</title>
<path fill="none" stroke="black" d="M913.16,-609.79C877.09,-603.97 835.33,-596.51 797.83,-588 732.07,-573.09 657.88,-551.27 607.72,-535.77"/>
<polygon fill="black" stroke="black" points="608.61,-532.38 598.02,-532.75 606.53,-539.06 608.61,-532.38"/>
<text text-anchor="middle" x="821.33" y="-566.3" font-family="Times,serif" font-size="14.00">previous</text>
</g>
<!-- http://purl.org/dj/kaggle/lstm&#45;sentiment&#45;analysis&#45;keras/activity/1408012211235534171 -->
<g id="node18" class="node">
<title>http://purl.org/dj/kaggle/lstm&#45;sentiment&#45;analysis&#45;keras/activity/1408012211235534171</title>
<ellipse fill="none" stroke="black" cx="1325.83" cy="-192" rx="148.67" ry="18"/>
<text text-anchor="middle" x="1325.83" y="-188.3" font-family="Times,serif" font-size="14.00">1408012211235534171 (Visualisation)</text>
</g>
<!-- http://purl.org/dj/kaggle/lstm&#45;sentiment&#45;analysis&#45;keras/activity/1408012211235534171&#45;&gt;http://purl.org/dj/kaggle/lstm&#45;sentiment&#45;analysis&#45;keras/activity/3465372980514593489 -->
<g id="edge34" class="edge">
<title>http://purl.org/dj/kaggle/lstm&#45;sentiment&#45;analysis&#45;keras/activity/1408012211235534171&#45;&gt;http://purl.org/dj/kaggle/lstm&#45;sentiment&#45;analysis&#45;keras/activity/3465372980514593489</title>
<path fill="none" stroke="black" d="M1277.29,-174.86C1245.05,-164.45 1201.66,-151.03 1162.83,-141 1135.77,-134.01 1105.97,-127.4 1079.17,-121.84"/>
<polygon fill="black" stroke="black" points="1079.56,-118.34 1069.06,-119.76 1078.15,-125.2 1079.56,-118.34"/>
<text text-anchor="middle" x="1235.33" y="-144.8" font-family="Times,serif" font-size="14.00">previous</text>
</g>
<!-- http://purl.org/dj/kaggle/lstm&#45;sentiment&#45;analysis&#45;keras/activity/&#45;1905901093200720542 -->
<g id="node19" class="node">
<title>http://purl.org/dj/kaggle/lstm&#45;sentiment&#45;analysis&#45;keras/activity/&#45;1905901093200720542</title>
<ellipse fill="none" stroke="black" cx="1643.83" cy="-192" rx="151.37" ry="18"/>
<text text-anchor="middle" x="1643.83" y="-188.3" font-family="Times,serif" font-size="14.00">&#45;1905901093200720542 (Visualisation)</text>
</g>
<!-- http://purl.org/dj/kaggle/lstm&#45;sentiment&#45;analysis&#45;keras/activity/&#45;1905901093200720542&#45;&gt;http://purl.org/dj/kaggle/lstm&#45;sentiment&#45;analysis&#45;keras/activity/3465372980514593489 -->
<g id="edge35" class="edge">
<title>http://purl.org/dj/kaggle/lstm&#45;sentiment&#45;analysis&#45;keras/activity/&#45;1905901093200720542&#45;&gt;http://purl.org/dj/kaggle/lstm&#45;sentiment&#45;analysis&#45;keras/activity/3465372980514593489</title>
<path fill="none" stroke="black" d="M1546.26,-178.18C1424.63,-162.2 1217.87,-135.04 1095.65,-118.98"/>
<polygon fill="black" stroke="black" points="1095.92,-115.49 1085.55,-117.66 1095,-122.43 1095.92,-115.49"/>
<text text-anchor="middle" x="1382.33" y="-144.8" font-family="Times,serif" font-size="14.00">previous</text>
</g>
<!-- http://purl.org/dj/kaggle/lstm&#45;sentiment&#45;analysis&#45;keras/activity/6141789200175400473 -->
<g id="node20" class="node">
<title>http://purl.org/dj/kaggle/lstm&#45;sentiment&#45;analysis&#45;keras/activity/6141789200175400473</title>
<ellipse fill="none" stroke="black" cx="1961.83" cy="-192" rx="148.67" ry="18"/>
<text text-anchor="middle" x="1961.83" y="-188.3" font-family="Times,serif" font-size="14.00">6141789200175400473 (Visualisation)</text>
</g>
<!-- http://purl.org/dj/kaggle/lstm&#45;sentiment&#45;analysis&#45;keras/activity/6141789200175400473&#45;&gt;http://purl.org/dj/kaggle/lstm&#45;sentiment&#45;analysis&#45;keras/activity/3465372980514593489 -->
<g id="edge38" class="edge">
<title>http://purl.org/dj/kaggle/lstm&#45;sentiment&#45;analysis&#45;keras/activity/6141789200175400473&#45;&gt;http://purl.org/dj/kaggle/lstm&#45;sentiment&#45;analysis&#45;keras/activity/3465372980514593489</title>
<path fill="none" stroke="black" d="M1856.05,-179.28C1838.61,-177.44 1820.72,-175.62 1803.83,-174 1558.51,-150.47 1270.82,-127.28 1113.77,-115"/>
<polygon fill="black" stroke="black" points="1113.86,-111.5 1103.62,-114.21 1113.31,-118.48 1113.86,-111.5"/>
<text text-anchor="middle" x="1627.33" y="-144.8" font-family="Times,serif" font-size="14.00">previous</text>
</g>
<!-- http://purl.org/dj/kaggle/lstm&#45;sentiment&#45;analysis&#45;keras/activity/8128517327054074114 -->
<g id="node21" class="node">
<title>http://purl.org/dj/kaggle/lstm&#45;sentiment&#45;analysis&#45;keras/activity/8128517327054074114</title>
<ellipse fill="none" stroke="black" cx="710.83" cy="-819" rx="148.67" ry="18"/>
<text text-anchor="middle" x="710.83" y="-815.3" font-family="Times,serif" font-size="14.00">8128517327054074114 (Visualisation)</text>
</g>
<!-- http://purl.org/dj/kaggle/lstm&#45;sentiment&#45;analysis&#45;keras/activity/8128517327054074114&#45;&gt;http://purl.org/dj/kaggle/lstm&#45;sentiment&#45;analysis&#45;keras/activity/8107911964588510704 -->
<g id="edge39" class="edge">
<title>http://purl.org/dj/kaggle/lstm&#45;sentiment&#45;analysis&#45;keras/activity/8128517327054074114&#45;&gt;http://purl.org/dj/kaggle/lstm&#45;sentiment&#45;analysis&#45;keras/activity/8107911964588510704</title>
<path fill="none" stroke="black" d="M658.12,-802.11C610.74,-787.83 541.11,-766.84 491.02,-751.75"/>
<polygon fill="black" stroke="black" points="491.86,-748.35 481.28,-748.81 489.84,-755.05 491.86,-748.35"/>
<text text-anchor="middle" x="610.33" y="-771.8" font-family="Times,serif" font-size="14.00">previous</text>
</g>
</g>
</svg>
