<?xml version="1.0" encoding="UTF-8" standalone="no"?>
<!DOCTYPE svg PUBLIC "-//W3C//DTD SVG 1.1//EN"
 "http://www.w3.org/Graphics/SVG/1.1/DTD/svg11.dtd">
<!-- Generated by graphviz version 2.47.1 (20210417.1919)
 -->
<!-- Pages: 1 -->
<svg width="1613pt" height="914pt"
 viewBox="0.00 0.00 1612.98 914.00" xmlns="http://www.w3.org/2000/svg" xmlns:xlink="http://www.w3.org/1999/xlink">
<g id="graph0" class="graph" transform="scale(1 1) rotate(0) translate(4 910)">
<polygon fill="white" stroke="transparent" points="-4,4 -4,-910 1608.98,-910 1608.98,4 -4,4"/>
<!-- http://purl.org/dj/kaggle/magic&#45;features&#45;0&#45;03&#45;gain/activity/&#45;2435225547249479629 -->
<g id="node1" class="node">
<title>http://purl.org/dj/kaggle/magic&#45;features&#45;0&#45;03&#45;gain/activity/&#45;2435225547249479629</title>
<ellipse fill="none" stroke="black" cx="1246.98" cy="-888" rx="144.07" ry="18"/>
<text text-anchor="middle" x="1246.98" y="-884.3" font-family="Times,serif" font-size="14.00">&#45;2435225547249479629 (Movement)</text>
</g>
<!-- http://purl.org/dj/kaggle/magic&#45;features&#45;0&#45;03&#45;gain/activity/&#45;3806623298725757915 -->
<g id="node2" class="node">
<title>http://purl.org/dj/kaggle/magic&#45;features&#45;0&#45;03&#45;gain/activity/&#45;3806623298725757915</title>
<ellipse fill="none" stroke="black" cx="1246.98" cy="-801" rx="135.68" ry="18"/>
<text text-anchor="middle" x="1246.98" y="-797.3" font-family="Times,serif" font-size="14.00">&#45;3806623298725757915 (Analysis)</text>
</g>
<!-- http://purl.org/dj/kaggle/magic&#45;features&#45;0&#45;03&#45;gain/activity/&#45;2435225547249479629&#45;&gt;http://purl.org/dj/kaggle/magic&#45;features&#45;0&#45;03&#45;gain/activity/&#45;3806623298725757915 -->
<g id="edge1" class="edge">
<title>http://purl.org/dj/kaggle/magic&#45;features&#45;0&#45;03&#45;gain/activity/&#45;2435225547249479629&#45;&gt;http://purl.org/dj/kaggle/magic&#45;features&#45;0&#45;03&#45;gain/activity/&#45;3806623298725757915</title>
<path fill="none" stroke="black" d="M1246.98,-869.8C1246.98,-858.16 1246.98,-842.55 1246.98,-829.24"/>
<polygon fill="black" stroke="black" points="1250.48,-829.18 1246.98,-819.18 1243.48,-829.18 1250.48,-829.18"/>
<text text-anchor="middle" x="1270.48" y="-840.8" font-family="Times,serif" font-size="14.00">previous</text>
</g>
<!-- http://purl.org/dj/kaggle/magic&#45;features&#45;0&#45;03&#45;gain/activity/&#45;5399439474481362587 -->
<g id="node3" class="node">
<title>http://purl.org/dj/kaggle/magic&#45;features&#45;0&#45;03&#45;gain/activity/&#45;5399439474481362587</title>
<ellipse fill="none" stroke="black" cx="389.98" cy="-192" rx="144.07" ry="18"/>
<text text-anchor="middle" x="389.98" y="-188.3" font-family="Times,serif" font-size="14.00">&#45;5399439474481362587 (Movement)</text>
</g>
<!-- http://purl.org/dj/kaggle/magic&#45;features&#45;0&#45;03&#45;gain/activity/&#45;3806623298725757915&#45;&gt;http://purl.org/dj/kaggle/magic&#45;features&#45;0&#45;03&#45;gain/activity/&#45;5399439474481362587 -->
<g id="edge2" class="edge">
<title>http://purl.org/dj/kaggle/magic&#45;features&#45;0&#45;03&#45;gain/activity/&#45;3806623298725757915&#45;&gt;http://purl.org/dj/kaggle/magic&#45;features&#45;0&#45;03&#45;gain/activity/&#45;5399439474481362587</title>
<path fill="none" stroke="black" d="M1114.99,-796.63C1009.32,-792.61 857.56,-783.88 725.98,-765 658.84,-755.37 633.54,-769.44 576.98,-732 485.4,-671.37 498.98,-607.34 498.98,-497.5 498.98,-497.5 498.98,-497.5 498.98,-278 498.98,-248.16 473.27,-227.26 446.82,-213.65"/>
<polygon fill="black" stroke="black" points="448,-210.33 437.47,-209.13 444.96,-216.63 448,-210.33"/>
<text text-anchor="middle" x="522.48" y="-492.8" font-family="Times,serif" font-size="14.00">previous</text>
</g>
<!-- http://purl.org/dj/kaggle/magic&#45;features&#45;0&#45;03&#45;gain/activity/&#45;1315606259901353413 -->
<g id="node4" class="node">
<title>http://purl.org/dj/kaggle/magic&#45;features&#45;0&#45;03&#45;gain/activity/&#45;1315606259901353413</title>
<ellipse fill="none" stroke="black" cx="887.98" cy="-105" rx="126.98" ry="18"/>
<text text-anchor="middle" x="887.98" y="-101.3" font-family="Times,serif" font-size="14.00">&#45;1315606259901353413 (Reuse)</text>
</g>
<!-- http://purl.org/dj/kaggle/magic&#45;features&#45;0&#45;03&#45;gain/activity/&#45;3806623298725757915&#45;&gt;http://purl.org/dj/kaggle/magic&#45;features&#45;0&#45;03&#45;gain/activity/&#45;1315606259901353413 -->
<g id="edge3" class="edge">
<title>http://purl.org/dj/kaggle/magic&#45;features&#45;0&#45;03&#45;gain/activity/&#45;3806623298725757915&#45;&gt;http://purl.org/dj/kaggle/magic&#45;features&#45;0&#45;03&#45;gain/activity/&#45;1315606259901353413</title>
<path fill="none" stroke="black" d="M1357.94,-790.53C1447.26,-779.75 1557.98,-757.75 1557.98,-715 1557.98,-715 1557.98,-715 1557.98,-191 1557.98,-185.62 1488.2,-152.97 1435.98,-141 1360.06,-123.6 1157.78,-114.15 1021.39,-109.59"/>
<polygon fill="black" stroke="black" points="1021.38,-106.09 1011.27,-109.26 1021.15,-113.09 1021.38,-106.09"/>
<text text-anchor="middle" x="1581.48" y="-449.3" font-family="Times,serif" font-size="14.00">previous</text>
</g>
<!-- http://purl.org/dj/kaggle/magic&#45;features&#45;0&#45;03&#45;gain/activity/&#45;4943769408692020209 -->
<g id="node5" class="node">
<title>http://purl.org/dj/kaggle/magic&#45;features&#45;0&#45;03&#45;gain/activity/&#45;4943769408692020209</title>
<ellipse fill="none" stroke="black" cx="729.98" cy="-714" rx="144.07" ry="18"/>
<text text-anchor="middle" x="729.98" y="-710.3" font-family="Times,serif" font-size="14.00">&#45;4943769408692020209 (Movement)</text>
</g>
<!-- http://purl.org/dj/kaggle/magic&#45;features&#45;0&#45;03&#45;gain/activity/&#45;3806623298725757915&#45;&gt;http://purl.org/dj/kaggle/magic&#45;features&#45;0&#45;03&#45;gain/activity/&#45;4943769408692020209 -->
<g id="edge4" class="edge">
<title>http://purl.org/dj/kaggle/magic&#45;features&#45;0&#45;03&#45;gain/activity/&#45;3806623298725757915&#45;&gt;http://purl.org/dj/kaggle/magic&#45;features&#45;0&#45;03&#45;gain/activity/&#45;4943769408692020209</title>
<path fill="none" stroke="black" d="M1165.35,-786.58C1072.46,-771.31 921.03,-746.41 823.48,-730.37"/>
<polygon fill="black" stroke="black" points="823.76,-726.87 813.33,-728.7 822.63,-733.78 823.76,-726.87"/>
<text text-anchor="middle" x="1043.48" y="-753.8" font-family="Times,serif" font-size="14.00">previous</text>
</g>
<!-- http://purl.org/dj/kaggle/magic&#45;features&#45;0&#45;03&#45;gain/activity/&#45;4068504925332189824 -->
<g id="node6" class="node">
<title>http://purl.org/dj/kaggle/magic&#45;features&#45;0&#45;03&#45;gain/activity/&#45;4068504925332189824</title>
<ellipse fill="none" stroke="black" cx="1003.98" cy="-192" rx="144.07" ry="18"/>
<text text-anchor="middle" x="1003.98" y="-188.3" font-family="Times,serif" font-size="14.00">&#45;4068504925332189824 (Movement)</text>
</g>
<!-- http://purl.org/dj/kaggle/magic&#45;features&#45;0&#45;03&#45;gain/activity/&#45;3806623298725757915&#45;&gt;http://purl.org/dj/kaggle/magic&#45;features&#45;0&#45;03&#45;gain/activity/&#45;4068504925332189824 -->
<g id="edge5" class="edge">
<title>http://purl.org/dj/kaggle/magic&#45;features&#45;0&#45;03&#45;gain/activity/&#45;3806623298725757915&#45;&gt;http://purl.org/dj/kaggle/magic&#45;features&#45;0&#45;03&#45;gain/activity/&#45;4068504925332189824</title>
<path fill="none" stroke="black" d="M1333.37,-787.03C1404.94,-773.76 1494.98,-750.1 1494.98,-715 1494.98,-715 1494.98,-715 1494.98,-278 1494.98,-258.75 1257.66,-225.18 1113,-206.51"/>
<polygon fill="black" stroke="black" points="1113.12,-203 1102.75,-205.19 1112.22,-209.94 1113.12,-203"/>
<text text-anchor="middle" x="1518.48" y="-492.8" font-family="Times,serif" font-size="14.00">previous</text>
</g>
<!-- http://purl.org/dj/kaggle/magic&#45;features&#45;0&#45;03&#45;gain/activity/&#45;5399439474481362587&#45;&gt;http://purl.org/dj/kaggle/magic&#45;features&#45;0&#45;03&#45;gain/activity/&#45;1315606259901353413 -->
<g id="edge6" class="edge">
<title>http://purl.org/dj/kaggle/magic&#45;features&#45;0&#45;03&#45;gain/activity/&#45;5399439474481362587&#45;&gt;http://purl.org/dj/kaggle/magic&#45;features&#45;0&#45;03&#45;gain/activity/&#45;1315606259901353413</title>
<path fill="none" stroke="black" d="M471.38,-177.11C561.85,-161.67 707.41,-136.82 800.33,-120.96"/>
<polygon fill="black" stroke="black" points="801,-124.4 810.27,-119.26 799.82,-117.5 801,-124.4"/>
<text text-anchor="middle" x="692.48" y="-144.8" font-family="Times,serif" font-size="14.00">previous</text>
</g>
<!-- http://purl.org/dj/kaggle/magic&#45;features&#45;0&#45;03&#45;gain -->
<g id="node7" class="node">
<title>http://purl.org/dj/kaggle/magic&#45;features&#45;0&#45;03&#45;gain</title>
<ellipse fill="none" stroke="black" cx="220.98" cy="-18" rx="220.96" ry="18"/>
<text text-anchor="middle" x="220.98" y="-14.3" font-family="Times,serif" font-size="14.00">magic&#45;features&#45;0&#45;03&#45;gain (magic&#45;features&#45;0&#45;03&#45;gain.ipynb)</text>
</g>
<!-- http://purl.org/dj/kaggle/magic&#45;features&#45;0&#45;03&#45;gain/activity/&#45;5399439474481362587&#45;&gt;http://purl.org/dj/kaggle/magic&#45;features&#45;0&#45;03&#45;gain -->
<g id="edge7" class="edge">
<title>http://purl.org/dj/kaggle/magic&#45;features&#45;0&#45;03&#45;gain/activity/&#45;5399439474481362587&#45;&gt;http://purl.org/dj/kaggle/magic&#45;features&#45;0&#45;03&#45;gain</title>
<path fill="none" stroke="black" d="M373.16,-173.88C343.04,-143.23 279.83,-78.89 245.1,-43.55"/>
<polygon fill="black" stroke="black" points="247.24,-40.73 237.73,-36.05 242.25,-45.64 247.24,-40.73"/>
<text text-anchor="middle" x="346.48" y="-101.3" font-family="Times,serif" font-size="14.00">previous</text>
</g>
<!-- http://purl.org/dj/kaggle/magic&#45;features&#45;0&#45;03&#45;gain/activity/&#45;1315606259901353413&#45;&gt;http://purl.org/dj/kaggle/magic&#45;features&#45;0&#45;03&#45;gain -->
<g id="edge8" class="edge">
<title>http://purl.org/dj/kaggle/magic&#45;features&#45;0&#45;03&#45;gain/activity/&#45;1315606259901353413&#45;&gt;http://purl.org/dj/kaggle/magic&#45;features&#45;0&#45;03&#45;gain</title>
<path fill="none" stroke="black" d="M796.98,-92.4C679.81,-77.47 475.7,-51.46 344.56,-34.75"/>
<polygon fill="black" stroke="black" points="344.82,-31.25 334.46,-33.46 343.94,-38.2 344.82,-31.25"/>
<text text-anchor="middle" x="618.48" y="-57.8" font-family="Times,serif" font-size="14.00">previous</text>
</g>
<!-- http://purl.org/dj/kaggle/magic&#45;features&#45;0&#45;03&#45;gain/activity/&#45;4943769408692020209&#45;&gt;http://purl.org/dj/kaggle/magic&#45;features&#45;0&#45;03&#45;gain/activity/&#45;1315606259901353413 -->
<g id="edge9" class="edge">
<title>http://purl.org/dj/kaggle/magic&#45;features&#45;0&#45;03&#45;gain/activity/&#45;4943769408692020209&#45;&gt;http://purl.org/dj/kaggle/magic&#45;features&#45;0&#45;03&#45;gain/activity/&#45;1315606259901353413</title>
<path fill="none" stroke="black" d="M718.14,-695.8C709.09,-682.29 696.56,-662.84 686.98,-645 651.03,-578.05 664.74,-548.11 616.98,-489 479.1,-318.37 90.14,-336.98 236.98,-174 271.02,-136.22 575.7,-118.03 755.93,-110.5"/>
<polygon fill="black" stroke="black" points="756.17,-114 766.02,-110.09 755.88,-107 756.17,-114"/>
<text text-anchor="middle" x="553.48" y="-405.8" font-family="Times,serif" font-size="14.00">previous</text>
</g>
<!-- http://purl.org/dj/kaggle/magic&#45;features&#45;0&#45;03&#45;gain/activity/&#45;6874597471913431166 -->
<g id="node8" class="node">
<title>http://purl.org/dj/kaggle/magic&#45;features&#45;0&#45;03&#45;gain/activity/&#45;6874597471913431166</title>
<ellipse fill="none" stroke="black" cx="907.98" cy="-627" rx="145.67" ry="18"/>
<text text-anchor="middle" x="907.98" y="-623.3" font-family="Times,serif" font-size="14.00">&#45;6874597471913431166 (Preparation)</text>
</g>
<!-- http://purl.org/dj/kaggle/magic&#45;features&#45;0&#45;03&#45;gain/activity/&#45;4943769408692020209&#45;&gt;http://purl.org/dj/kaggle/magic&#45;features&#45;0&#45;03&#45;gain/activity/&#45;6874597471913431166 -->
<g id="edge10" class="edge">
<title>http://purl.org/dj/kaggle/magic&#45;features&#45;0&#45;03&#45;gain/activity/&#45;4943769408692020209&#45;&gt;http://purl.org/dj/kaggle/magic&#45;features&#45;0&#45;03&#45;gain/activity/&#45;6874597471913431166</title>
<path fill="none" stroke="black" d="M764.72,-696.41C793.15,-682.84 833.51,-663.56 864.15,-648.93"/>
<polygon fill="black" stroke="black" points="865.81,-652.02 873.33,-644.55 862.79,-645.7 865.81,-652.02"/>
<text text-anchor="middle" x="853.48" y="-666.8" font-family="Times,serif" font-size="14.00">previous</text>
</g>
<!-- http://purl.org/dj/kaggle/magic&#45;features&#45;0&#45;03&#45;gain/activity/&#45;5071473476408552322 -->
<g id="node9" class="node">
<title>http://purl.org/dj/kaggle/magic&#45;features&#45;0&#45;03&#45;gain/activity/&#45;5071473476408552322</title>
<ellipse fill="none" stroke="black" cx="841.98" cy="-453" rx="145.67" ry="18"/>
<text text-anchor="middle" x="841.98" y="-449.3" font-family="Times,serif" font-size="14.00">&#45;5071473476408552322 (Preparation)</text>
</g>
<!-- http://purl.org/dj/kaggle/magic&#45;features&#45;0&#45;03&#45;gain/activity/&#45;4943769408692020209&#45;&gt;http://purl.org/dj/kaggle/magic&#45;features&#45;0&#45;03&#45;gain/activity/&#45;5071473476408552322 -->
<g id="edge11" class="edge">
<title>http://purl.org/dj/kaggle/magic&#45;features&#45;0&#45;03&#45;gain/activity/&#45;4943769408692020209&#45;&gt;http://purl.org/dj/kaggle/magic&#45;features&#45;0&#45;03&#45;gain/activity/&#45;5071473476408552322</title>
<path fill="none" stroke="black" d="M728.38,-695.84C725.91,-660.69 724.47,-579.02 756.98,-522 767.66,-503.27 785.71,-487.72 802.43,-476.25"/>
<polygon fill="black" stroke="black" points="804.57,-479.03 811.01,-470.62 800.73,-473.18 804.57,-479.03"/>
<text text-anchor="middle" x="760.48" y="-579.8" font-family="Times,serif" font-size="14.00">previous</text>
</g>
<!-- http://purl.org/dj/kaggle/magic&#45;features&#45;0&#45;03&#45;gain/activity/&#45;4068504925332189824&#45;&gt;http://purl.org/dj/kaggle/magic&#45;features&#45;0&#45;03&#45;gain/activity/&#45;1315606259901353413 -->
<g id="edge12" class="edge">
<title>http://purl.org/dj/kaggle/magic&#45;features&#45;0&#45;03&#45;gain/activity/&#45;4068504925332189824&#45;&gt;http://purl.org/dj/kaggle/magic&#45;features&#45;0&#45;03&#45;gain/activity/&#45;1315606259901353413</title>
<path fill="none" stroke="black" d="M981.06,-174.21C963.35,-161.23 938.64,-143.12 919.13,-128.83"/>
<polygon fill="black" stroke="black" points="920.99,-125.85 910.85,-122.76 916.85,-131.49 920.99,-125.85"/>
<text text-anchor="middle" x="976.48" y="-144.8" font-family="Times,serif" font-size="14.00">previous</text>
</g>
<!-- http://purl.org/dj/kaggle/magic&#45;features&#45;0&#45;03&#45;gain/activity/&#45;6874597471913431166&#45;&gt;http://purl.org/dj/kaggle/magic&#45;features&#45;0&#45;03&#45;gain/activity/&#45;1315606259901353413 -->
<g id="edge18" class="edge">
<title>http://purl.org/dj/kaggle/magic&#45;features&#45;0&#45;03&#45;gain/activity/&#45;6874597471913431166&#45;&gt;http://purl.org/dj/kaggle/magic&#45;features&#45;0&#45;03&#45;gain/activity/&#45;1315606259901353413</title>
<path fill="none" stroke="black" d="M1031.92,-617.49C1183.45,-605.38 1419.98,-580.2 1419.98,-541 1419.98,-541 1419.98,-541 1419.98,-408.5 1419.98,-313.22 1479.63,-302.86 1500.98,-210 1504.57,-194.41 1511.35,-186.19 1500.98,-174 1470.29,-137.91 1189.07,-119.22 1018.38,-111.12"/>
<polygon fill="black" stroke="black" points="1018.47,-107.62 1008.32,-110.65 1018.14,-114.62 1018.47,-107.62"/>
<text text-anchor="middle" x="1453.48" y="-362.3" font-family="Times,serif" font-size="14.00">previous</text>
</g>
<!-- http://purl.org/dj/kaggle/magic&#45;features&#45;0&#45;03&#45;gain/activity/8977593318272118805 -->
<g id="node12" class="node">
<title>http://purl.org/dj/kaggle/magic&#45;features&#45;0&#45;03&#45;gain/activity/8977593318272118805</title>
<ellipse fill="none" stroke="black" cx="907.98" cy="-540" rx="141.88" ry="18"/>
<text text-anchor="middle" x="907.98" y="-536.3" font-family="Times,serif" font-size="14.00">8977593318272118805 (Movement)</text>
</g>
<!-- http://purl.org/dj/kaggle/magic&#45;features&#45;0&#45;03&#45;gain/activity/&#45;6874597471913431166&#45;&gt;http://purl.org/dj/kaggle/magic&#45;features&#45;0&#45;03&#45;gain/activity/8977593318272118805 -->
<g id="edge19" class="edge">
<title>http://purl.org/dj/kaggle/magic&#45;features&#45;0&#45;03&#45;gain/activity/&#45;6874597471913431166&#45;&gt;http://purl.org/dj/kaggle/magic&#45;features&#45;0&#45;03&#45;gain/activity/8977593318272118805</title>
<path fill="none" stroke="black" d="M907.98,-608.8C907.98,-597.16 907.98,-581.55 907.98,-568.24"/>
<polygon fill="black" stroke="black" points="911.48,-568.18 907.98,-558.18 904.48,-568.18 911.48,-568.18"/>
<text text-anchor="middle" x="931.48" y="-579.8" font-family="Times,serif" font-size="14.00">previous</text>
</g>
<!-- http://purl.org/dj/kaggle/magic&#45;features&#45;0&#45;03&#45;gain/activity/&#45;5071473476408552322&#45;&gt;http://purl.org/dj/kaggle/magic&#45;features&#45;0&#45;03&#45;gain/activity/&#45;5399439474481362587 -->
<g id="edge20" class="edge">
<title>http://purl.org/dj/kaggle/magic&#45;features&#45;0&#45;03&#45;gain/activity/&#45;5071473476408552322&#45;&gt;http://purl.org/dj/kaggle/magic&#45;features&#45;0&#45;03&#45;gain/activity/&#45;5399439474481362587</title>
<path fill="none" stroke="black" d="M799.21,-435.72C735.39,-410.53 612.6,-358.52 517.98,-297 480.51,-272.64 441.14,-239.31 416.12,-217.02"/>
<polygon fill="black" stroke="black" points="418.3,-214.27 408.52,-210.19 413.62,-219.48 418.3,-214.27"/>
<text text-anchor="middle" x="593.48" y="-318.8" font-family="Times,serif" font-size="14.00">previous</text>
</g>
<!-- http://purl.org/dj/kaggle/magic&#45;features&#45;0&#45;03&#45;gain/activity/&#45;5071473476408552322&#45;&gt;http://purl.org/dj/kaggle/magic&#45;features&#45;0&#45;03&#45;gain/activity/&#45;1315606259901353413 -->
<g id="edge21" class="edge">
<title>http://purl.org/dj/kaggle/magic&#45;features&#45;0&#45;03&#45;gain/activity/&#45;5071473476408552322&#45;&gt;http://purl.org/dj/kaggle/magic&#45;features&#45;0&#45;03&#45;gain/activity/&#45;1315606259901353413</title>
<path fill="none" stroke="black" d="M965.88,-443.48C1060.93,-433.42 1175.98,-411.95 1175.98,-367 1175.98,-367 1175.98,-367 1175.98,-191 1175.98,-152.19 1078.57,-129.77 997.05,-117.81"/>
<polygon fill="black" stroke="black" points="997.08,-114.28 986.69,-116.33 996.1,-121.21 997.08,-114.28"/>
<text text-anchor="middle" x="1199.48" y="-275.3" font-family="Times,serif" font-size="14.00">previous</text>
</g>
<!-- http://purl.org/dj/kaggle/magic&#45;features&#45;0&#45;03&#45;gain/activity/&#45;5071473476408552322&#45;&gt;http://purl.org/dj/kaggle/magic&#45;features&#45;0&#45;03&#45;gain/activity/&#45;4068504925332189824 -->
<g id="edge22" class="edge">
<title>http://purl.org/dj/kaggle/magic&#45;features&#45;0&#45;03&#45;gain/activity/&#45;5071473476408552322&#45;&gt;http://purl.org/dj/kaggle/magic&#45;features&#45;0&#45;03&#45;gain/activity/&#45;4068504925332189824</title>
<path fill="none" stroke="black" d="M914.91,-437.3C944.74,-427.39 976.52,-410.99 994.98,-384 1028.87,-334.45 1019.37,-259.59 1010.87,-219.91"/>
<polygon fill="black" stroke="black" points="1014.28,-219.13 1008.65,-210.16 1007.46,-220.69 1014.28,-219.13"/>
<text text-anchor="middle" x="1041.48" y="-318.8" font-family="Times,serif" font-size="14.00">previous</text>
</g>
<!-- http://purl.org/dj/kaggle/magic&#45;features&#45;0&#45;03&#45;gain/activity/&#45;5071473476408552322&#45;&gt;http://purl.org/dj/kaggle/magic&#45;features&#45;0&#45;03&#45;gain/activity/8977593318272118805 -->
<g id="edge23" class="edge">
<title>http://purl.org/dj/kaggle/magic&#45;features&#45;0&#45;03&#45;gain/activity/&#45;5071473476408552322&#45;&gt;http://purl.org/dj/kaggle/magic&#45;features&#45;0&#45;03&#45;gain/activity/8977593318272118805</title>
<path fill="none" stroke="black" d="M868.31,-470.87C875.03,-476.08 881.8,-482.24 886.98,-489 892.21,-495.83 896.39,-504.16 899.59,-512.04"/>
<polygon fill="black" stroke="black" points="896.39,-513.48 903.14,-521.65 902.96,-511.05 896.39,-513.48"/>
<text text-anchor="middle" x="919.48" y="-492.8" font-family="Times,serif" font-size="14.00">previous</text>
</g>
<!-- http://purl.org/dj/kaggle/magic&#45;features&#45;0&#45;03&#45;gain/activity/&#45;6242611168819942078 -->
<g id="node13" class="node">
<title>http://purl.org/dj/kaggle/magic&#45;features&#45;0&#45;03&#45;gain/activity/&#45;6242611168819942078</title>
<ellipse fill="none" stroke="black" cx="841.98" cy="-366" rx="144.07" ry="18"/>
<text text-anchor="middle" x="841.98" y="-362.3" font-family="Times,serif" font-size="14.00">&#45;6242611168819942078 (Movement)</text>
</g>
<!-- http://purl.org/dj/kaggle/magic&#45;features&#45;0&#45;03&#45;gain/activity/&#45;5071473476408552322&#45;&gt;http://purl.org/dj/kaggle/magic&#45;features&#45;0&#45;03&#45;gain/activity/&#45;6242611168819942078 -->
<g id="edge24" class="edge">
<title>http://purl.org/dj/kaggle/magic&#45;features&#45;0&#45;03&#45;gain/activity/&#45;5071473476408552322&#45;&gt;http://purl.org/dj/kaggle/magic&#45;features&#45;0&#45;03&#45;gain/activity/&#45;6242611168819942078</title>
<path fill="none" stroke="black" d="M841.98,-434.8C841.98,-423.16 841.98,-407.55 841.98,-394.24"/>
<polygon fill="black" stroke="black" points="845.48,-394.18 841.98,-384.18 838.48,-394.18 845.48,-394.18"/>
<text text-anchor="middle" x="865.48" y="-405.8" font-family="Times,serif" font-size="14.00">previous</text>
</g>
<!-- http://purl.org/dj/kaggle/magic&#45;features&#45;0&#45;03&#45;gain/activity/9001325886719155773 -->
<g id="node10" class="node">
<title>http://purl.org/dj/kaggle/magic&#45;features&#45;0&#45;03&#45;gain/activity/9001325886719155773</title>
<ellipse fill="none" stroke="black" cx="669.98" cy="-279" rx="142.97" ry="18"/>
<text text-anchor="middle" x="669.98" y="-275.3" font-family="Times,serif" font-size="14.00">9001325886719155773 (Preparation)</text>
</g>
<!-- http://purl.org/dj/kaggle/magic&#45;features&#45;0&#45;03&#45;gain/activity/9001325886719155773&#45;&gt;http://purl.org/dj/kaggle/magic&#45;features&#45;0&#45;03&#45;gain/activity/&#45;5399439474481362587 -->
<g id="edge13" class="edge">
<title>http://purl.org/dj/kaggle/magic&#45;features&#45;0&#45;03&#45;gain/activity/9001325886719155773&#45;&gt;http://purl.org/dj/kaggle/magic&#45;features&#45;0&#45;03&#45;gain/activity/&#45;5399439474481362587</title>
<path fill="none" stroke="black" d="M621.31,-262.07C590.36,-252.05 549.41,-238.98 512.98,-228 494.6,-222.46 474.61,-216.67 456.18,-211.43"/>
<polygon fill="black" stroke="black" points="457,-208.02 446.42,-208.66 455.09,-214.76 457,-208.02"/>
<text text-anchor="middle" x="584.48" y="-231.8" font-family="Times,serif" font-size="14.00">previous</text>
</g>
<!-- http://purl.org/dj/kaggle/magic&#45;features&#45;0&#45;03&#45;gain/activity/9001325886719155773&#45;&gt;http://purl.org/dj/kaggle/magic&#45;features&#45;0&#45;03&#45;gain/activity/&#45;4943769408692020209 -->
<g id="edge14" class="edge">
<title>http://purl.org/dj/kaggle/magic&#45;features&#45;0&#45;03&#45;gain/activity/9001325886719155773&#45;&gt;http://purl.org/dj/kaggle/magic&#45;features&#45;0&#45;03&#45;gain/activity/&#45;4943769408692020209</title>
<path fill="none" stroke="black" d="M651.74,-297.09C639.58,-309.8 624.65,-328.29 617.98,-348 612.85,-363.16 615.37,-368.21 617.98,-384 628.08,-445.01 693.81,-619.24 719.61,-686.27"/>
<polygon fill="black" stroke="black" points="716.39,-687.65 723.26,-695.72 722.92,-685.13 716.39,-687.65"/>
<text text-anchor="middle" x="676.48" y="-492.8" font-family="Times,serif" font-size="14.00">previous</text>
</g>
<!-- http://purl.org/dj/kaggle/magic&#45;features&#45;0&#45;03&#45;gain/activity/9001325886719155773&#45;&gt;http://purl.org/dj/kaggle/magic&#45;features&#45;0&#45;03&#45;gain/activity/&#45;4068504925332189824 -->
<g id="edge15" class="edge">
<title>http://purl.org/dj/kaggle/magic&#45;features&#45;0&#45;03&#45;gain/activity/9001325886719155773&#45;&gt;http://purl.org/dj/kaggle/magic&#45;features&#45;0&#45;03&#45;gain/activity/&#45;4068504925332189824</title>
<path fill="none" stroke="black" d="M700.87,-261.21C722.45,-250.18 752.25,-236.3 779.98,-228 813.61,-217.93 851,-210.63 885.45,-205.39"/>
<polygon fill="black" stroke="black" points="886.17,-208.82 895.56,-203.9 885.15,-201.9 886.17,-208.82"/>
<text text-anchor="middle" x="803.48" y="-231.8" font-family="Times,serif" font-size="14.00">previous</text>
</g>
<!-- http://purl.org/dj/kaggle/magic&#45;features&#45;0&#45;03&#45;gain/activity/&#45;8776548384690405758 -->
<g id="node11" class="node">
<title>http://purl.org/dj/kaggle/magic&#45;features&#45;0&#45;03&#45;gain/activity/&#45;8776548384690405758</title>
<ellipse fill="none" stroke="black" cx="696.98" cy="-192" rx="144.07" ry="18"/>
<text text-anchor="middle" x="696.98" y="-188.3" font-family="Times,serif" font-size="14.00">&#45;8776548384690405758 (Movement)</text>
</g>
<!-- http://purl.org/dj/kaggle/magic&#45;features&#45;0&#45;03&#45;gain/activity/9001325886719155773&#45;&gt;http://purl.org/dj/kaggle/magic&#45;features&#45;0&#45;03&#45;gain/activity/&#45;8776548384690405758 -->
<g id="edge16" class="edge">
<title>http://purl.org/dj/kaggle/magic&#45;features&#45;0&#45;03&#45;gain/activity/9001325886719155773&#45;&gt;http://purl.org/dj/kaggle/magic&#45;features&#45;0&#45;03&#45;gain/activity/&#45;8776548384690405758</title>
<path fill="none" stroke="black" d="M675.44,-260.8C679.18,-249.05 684.2,-233.24 688.45,-219.84"/>
<polygon fill="black" stroke="black" points="691.83,-220.77 691.52,-210.18 685.16,-218.65 691.83,-220.77"/>
<text text-anchor="middle" x="709.48" y="-231.8" font-family="Times,serif" font-size="14.00">previous</text>
</g>
<!-- http://purl.org/dj/kaggle/magic&#45;features&#45;0&#45;03&#45;gain/activity/&#45;8776548384690405758&#45;&gt;http://purl.org/dj/kaggle/magic&#45;features&#45;0&#45;03&#45;gain/activity/&#45;1315606259901353413 -->
<g id="edge17" class="edge">
<title>http://purl.org/dj/kaggle/magic&#45;features&#45;0&#45;03&#45;gain/activity/&#45;8776548384690405758&#45;&gt;http://purl.org/dj/kaggle/magic&#45;features&#45;0&#45;03&#45;gain/activity/&#45;1315606259901353413</title>
<path fill="none" stroke="black" d="M734.26,-174.41C765.09,-160.69 809.01,-141.15 842.01,-126.46"/>
<polygon fill="black" stroke="black" points="843.73,-129.52 851.44,-122.26 840.88,-123.13 843.73,-129.52"/>
<text text-anchor="middle" x="827.48" y="-144.8" font-family="Times,serif" font-size="14.00">previous</text>
</g>
<!-- http://purl.org/dj/kaggle/magic&#45;features&#45;0&#45;03&#45;gain/activity/8977593318272118805&#45;&gt;http://purl.org/dj/kaggle/magic&#45;features&#45;0&#45;03&#45;gain/activity/&#45;5071473476408552322 -->
<g id="edge25" class="edge">
<title>http://purl.org/dj/kaggle/magic&#45;features&#45;0&#45;03&#45;gain/activity/8977593318272118805&#45;&gt;http://purl.org/dj/kaggle/magic&#45;features&#45;0&#45;03&#45;gain/activity/&#45;5071473476408552322</title>
<path fill="none" stroke="black" d="M856.63,-523.06C848.42,-518.24 840.99,-512.01 835.98,-504 831.79,-497.3 831.3,-489.1 832.43,-481.29"/>
<polygon fill="black" stroke="black" points="835.87,-481.94 834.67,-471.41 829.05,-480.39 835.87,-481.94"/>
<text text-anchor="middle" x="859.48" y="-492.8" font-family="Times,serif" font-size="14.00">previous</text>
</g>
<!-- http://purl.org/dj/kaggle/magic&#45;features&#45;0&#45;03&#45;gain/activity/&#45;6242611168819942078&#45;&gt;http://purl.org/dj/kaggle/magic&#45;features&#45;0&#45;03&#45;gain/activity/9001325886719155773 -->
<g id="edge32" class="edge">
<title>http://purl.org/dj/kaggle/magic&#45;features&#45;0&#45;03&#45;gain/activity/&#45;6242611168819942078&#45;&gt;http://purl.org/dj/kaggle/magic&#45;features&#45;0&#45;03&#45;gain/activity/9001325886719155773</title>
<path fill="none" stroke="black" d="M808.41,-348.41C781.06,-334.89 742.28,-315.73 712.72,-301.12"/>
<polygon fill="black" stroke="black" points="713.98,-297.84 703.47,-296.55 710.88,-304.12 713.98,-297.84"/>
<text text-anchor="middle" x="790.48" y="-318.8" font-family="Times,serif" font-size="14.00">previous</text>
</g>
<!-- http://purl.org/dj/kaggle/magic&#45;features&#45;0&#45;03&#45;gain/activity/7539308445559763176 -->
<g id="node14" class="node">
<title>http://purl.org/dj/kaggle/magic&#45;features&#45;0&#45;03&#45;gain/activity/7539308445559763176</title>
<ellipse fill="none" stroke="black" cx="422.98" cy="-801" rx="142.97" ry="18"/>
<text text-anchor="middle" x="422.98" y="-797.3" font-family="Times,serif" font-size="14.00">7539308445559763176 (Preparation)</text>
</g>
<!-- http://purl.org/dj/kaggle/magic&#45;features&#45;0&#45;03&#45;gain/activity/7539308445559763176&#45;&gt;http://purl.org/dj/kaggle/magic&#45;features&#45;0&#45;03&#45;gain/activity/&#45;5399439474481362587 -->
<g id="edge26" class="edge">
<title>http://purl.org/dj/kaggle/magic&#45;features&#45;0&#45;03&#45;gain/activity/7539308445559763176&#45;&gt;http://purl.org/dj/kaggle/magic&#45;features&#45;0&#45;03&#45;gain/activity/&#45;5399439474481362587</title>
<path fill="none" stroke="black" d="M381.15,-783.69C353.75,-769.97 322.98,-747.36 322.98,-715 322.98,-715 322.98,-715 322.98,-278 322.98,-253.4 340.51,-231.72 357.64,-216.42"/>
<polygon fill="black" stroke="black" points="360.03,-218.98 365.41,-209.85 355.52,-213.63 360.03,-218.98"/>
<text text-anchor="middle" x="346.48" y="-492.8" font-family="Times,serif" font-size="14.00">previous</text>
</g>
<!-- http://purl.org/dj/kaggle/magic&#45;features&#45;0&#45;03&#45;gain/activity/7539308445559763176&#45;&gt;http://purl.org/dj/kaggle/magic&#45;features&#45;0&#45;03&#45;gain/activity/&#45;1315606259901353413 -->
<g id="edge27" class="edge">
<title>http://purl.org/dj/kaggle/magic&#45;features&#45;0&#45;03&#45;gain/activity/7539308445559763176&#45;&gt;http://purl.org/dj/kaggle/magic&#45;features&#45;0&#45;03&#45;gain/activity/&#45;1315606259901353413</title>
<path fill="none" stroke="black" d="M337.31,-786.53C267.35,-773.03 179.98,-749.3 179.98,-715 179.98,-715 179.98,-715 179.98,-191 179.98,-178.7 227.56,-153.48 274.98,-141 361.71,-118.18 599.24,-110.23 751.88,-107.47"/>
<polygon fill="black" stroke="black" points="752.32,-110.97 762.26,-107.29 752.2,-103.97 752.32,-110.97"/>
<text text-anchor="middle" x="203.48" y="-449.3" font-family="Times,serif" font-size="14.00">previous</text>
</g>
<!-- http://purl.org/dj/kaggle/magic&#45;features&#45;0&#45;03&#45;gain/activity/7539308445559763176&#45;&gt;http://purl.org/dj/kaggle/magic&#45;features&#45;0&#45;03&#45;gain/activity/&#45;4943769408692020209 -->
<g id="edge28" class="edge">
<title>http://purl.org/dj/kaggle/magic&#45;features&#45;0&#45;03&#45;gain/activity/7539308445559763176&#45;&gt;http://purl.org/dj/kaggle/magic&#45;features&#45;0&#45;03&#45;gain/activity/&#45;4943769408692020209</title>
<path fill="none" stroke="black" d="M479.29,-784.41C531.38,-769.99 608.84,-748.54 663.85,-733.31"/>
<polygon fill="black" stroke="black" points="664.81,-736.68 673.51,-730.64 662.94,-729.93 664.81,-736.68"/>
<text text-anchor="middle" x="618.48" y="-753.8" font-family="Times,serif" font-size="14.00">previous</text>
</g>
<!-- http://purl.org/dj/kaggle/magic&#45;features&#45;0&#45;03&#45;gain/activity/7539308445559763176&#45;&gt;http://purl.org/dj/kaggle/magic&#45;features&#45;0&#45;03&#45;gain/activity/&#45;4068504925332189824 -->
<g id="edge29" class="edge">
<title>http://purl.org/dj/kaggle/magic&#45;features&#45;0&#45;03&#45;gain/activity/7539308445559763176&#45;&gt;http://purl.org/dj/kaggle/magic&#45;features&#45;0&#45;03&#45;gain/activity/&#45;4068504925332189824</title>
<path fill="none" stroke="black" d="M433.45,-782.95C450.81,-754.57 486.45,-695.73 514.98,-645 589.97,-511.66 560.95,-431.74 688.98,-348 730.81,-320.64 753.5,-348.36 799.98,-330 869.89,-302.4 940.19,-247.9 977.24,-216.6"/>
<polygon fill="black" stroke="black" points="979.73,-219.08 985.06,-209.92 975.18,-213.76 979.73,-219.08"/>
<text text-anchor="middle" x="601.48" y="-492.8" font-family="Times,serif" font-size="14.00">previous</text>
</g>
<!-- http://purl.org/dj/kaggle/magic&#45;features&#45;0&#45;03&#45;gain/activity/7539308445559763176&#45;&gt;http://purl.org/dj/kaggle/magic&#45;features&#45;0&#45;03&#45;gain/activity/&#45;8776548384690405758 -->
<g id="edge30" class="edge">
<title>http://purl.org/dj/kaggle/magic&#45;features&#45;0&#45;03&#45;gain/activity/7539308445559763176&#45;&gt;http://purl.org/dj/kaggle/magic&#45;features&#45;0&#45;03&#45;gain/activity/&#45;8776548384690405758</title>
<path fill="none" stroke="black" d="M422.98,-782.74C422.98,-765.57 422.98,-738.46 422.98,-715 422.98,-715 422.98,-715 422.98,-321.5 422.98,-250.87 498.53,-218.99 570.29,-204.63"/>
<polygon fill="black" stroke="black" points="571.21,-208.02 580.38,-202.72 569.91,-201.14 571.21,-208.02"/>
<text text-anchor="middle" x="446.48" y="-492.8" font-family="Times,serif" font-size="14.00">previous</text>
</g>
<!-- http://purl.org/dj/kaggle/magic&#45;features&#45;0&#45;03&#45;gain/activity/&#45;8204772604980362099 -->
<g id="node15" class="node">
<title>http://purl.org/dj/kaggle/magic&#45;features&#45;0&#45;03&#45;gain/activity/&#45;8204772604980362099</title>
<ellipse fill="none" stroke="black" cx="1347.98" cy="-192" rx="144.07" ry="18"/>
<text text-anchor="middle" x="1347.98" y="-188.3" font-family="Times,serif" font-size="14.00">&#45;8204772604980362099 (Movement)</text>
</g>
<!-- http://purl.org/dj/kaggle/magic&#45;features&#45;0&#45;03&#45;gain/activity/&#45;8204772604980362099&#45;&gt;http://purl.org/dj/kaggle/magic&#45;features&#45;0&#45;03&#45;gain/activity/&#45;1315606259901353413 -->
<g id="edge31" class="edge">
<title>http://purl.org/dj/kaggle/magic&#45;features&#45;0&#45;03&#45;gain/activity/&#45;8204772604980362099&#45;&gt;http://purl.org/dj/kaggle/magic&#45;features&#45;0&#45;03&#45;gain/activity/&#45;1315606259901353413</title>
<path fill="none" stroke="black" d="M1304.65,-174.82C1273.24,-163.7 1229.51,-149.46 1189.98,-141 1131.07,-128.39 1064.65,-120.06 1009.13,-114.71"/>
<polygon fill="black" stroke="black" points="1009.18,-111.2 998.9,-113.75 1008.53,-118.17 1009.18,-111.2"/>
<text text-anchor="middle" x="1270.48" y="-144.8" font-family="Times,serif" font-size="14.00">previous</text>
</g>
<!-- http://purl.org/dj/kaggle/magic&#45;features&#45;0&#45;03&#45;gain/activity/7852054087194994103 -->
<g id="node16" class="node">
<title>http://purl.org/dj/kaggle/magic&#45;features&#45;0&#45;03&#45;gain/activity/7852054087194994103</title>
<ellipse fill="none" stroke="black" cx="729.98" cy="-801" rx="142.97" ry="18"/>
<text text-anchor="middle" x="729.98" y="-797.3" font-family="Times,serif" font-size="14.00">7852054087194994103 (Preparation)</text>
</g>
<!-- http://purl.org/dj/kaggle/magic&#45;features&#45;0&#45;03&#45;gain/activity/7852054087194994103&#45;&gt;http://purl.org/dj/kaggle/magic&#45;features&#45;0&#45;03&#45;gain/activity/&#45;4943769408692020209 -->
<g id="edge33" class="edge">
<title>http://purl.org/dj/kaggle/magic&#45;features&#45;0&#45;03&#45;gain/activity/7852054087194994103&#45;&gt;http://purl.org/dj/kaggle/magic&#45;features&#45;0&#45;03&#45;gain/activity/&#45;4943769408692020209</title>
<path fill="none" stroke="black" d="M729.98,-782.8C729.98,-771.16 729.98,-755.55 729.98,-742.24"/>
<polygon fill="black" stroke="black" points="733.48,-742.18 729.98,-732.18 726.48,-742.18 733.48,-742.18"/>
<text text-anchor="middle" x="753.48" y="-753.8" font-family="Times,serif" font-size="14.00">previous</text>
</g>
</g>
</svg>
