<?xml version="1.0" encoding="UTF-8" standalone="no"?>
<!DOCTYPE svg PUBLIC "-//W3C//DTD SVG 1.1//EN"
 "http://www.w3.org/Graphics/SVG/1.1/DTD/svg11.dtd">
<!-- Generated by graphviz version 2.47.1 (20210417.1919)
 -->
<!-- Pages: 1 -->
<svg width="1637pt" height="392pt"
 viewBox="0.00 0.00 1637.37 392.00" xmlns="http://www.w3.org/2000/svg" xmlns:xlink="http://www.w3.org/1999/xlink">
<g id="graph0" class="graph" transform="scale(1 1) rotate(0) translate(4 388)">
<polygon fill="white" stroke="transparent" points="-4,4 -4,-388 1633.37,-388 1633.37,4 -4,4"/>
<!-- http://purl.org/dj/kaggle/match&#45;outcome&#45;prediction&#45;in&#45;football/activity/7268621196068954772 -->
<g id="node1" class="node">
<title>http://purl.org/dj/kaggle/match&#45;outcome&#45;prediction&#45;in&#45;football/activity/7268621196068954772</title>
<ellipse fill="none" stroke="black" cx="309.37" cy="-279" rx="148.67" ry="18"/>
<text text-anchor="middle" x="309.37" y="-275.3" font-family="Times,serif" font-size="14.00">7268621196068954772 (Visualisation)</text>
</g>
<!-- http://purl.org/dj/kaggle/match&#45;outcome&#45;prediction&#45;in&#45;football -->
<g id="node2" class="node">
<title>http://purl.org/dj/kaggle/match&#45;outcome&#45;prediction&#45;in&#45;football</title>
<ellipse fill="none" stroke="black" cx="309.37" cy="-105" rx="309.25" ry="18"/>
<text text-anchor="middle" x="309.37" y="-101.3" font-family="Times,serif" font-size="14.00">match&#45;outcome&#45;prediction&#45;in&#45;football (match&#45;outcome&#45;prediction&#45;in&#45;football.ipynb)</text>
</g>
<!-- http://purl.org/dj/kaggle/match&#45;outcome&#45;prediction&#45;in&#45;football/activity/7268621196068954772&#45;&gt;http://purl.org/dj/kaggle/match&#45;outcome&#45;prediction&#45;in&#45;football -->
<g id="edge1" class="edge">
<title>http://purl.org/dj/kaggle/match&#45;outcome&#45;prediction&#45;in&#45;football/activity/7268621196068954772&#45;&gt;http://purl.org/dj/kaggle/match&#45;outcome&#45;prediction&#45;in&#45;football</title>
<path fill="none" stroke="black" d="M309.37,-260.88C309.37,-231 309.37,-169.11 309.37,-133.27"/>
<polygon fill="black" stroke="black" points="312.87,-133.05 309.37,-123.05 305.87,-133.05 312.87,-133.05"/>
<text text-anchor="middle" x="332.87" y="-188.3" font-family="Times,serif" font-size="14.00">previous</text>
</g>
<!-- http://purl.org/dj/kaggle/match&#45;outcome&#45;prediction&#45;in&#45;football/activity/&#45;360078291504256825 -->
<g id="node3" class="node">
<title>http://purl.org/dj/kaggle/match&#45;outcome&#45;prediction&#45;in&#45;football/activity/&#45;360078291504256825</title>
<ellipse fill="none" stroke="black" cx="790.37" cy="-192" rx="122.38" ry="18"/>
<text text-anchor="middle" x="790.37" y="-188.3" font-family="Times,serif" font-size="14.00">&#45;360078291504256825 (Reuse)</text>
</g>
<!-- http://purl.org/dj/kaggle/match&#45;outcome&#45;prediction&#45;in&#45;football/activity/7268621196068954772&#45;&gt;http://purl.org/dj/kaggle/match&#45;outcome&#45;prediction&#45;in&#45;football/activity/&#45;360078291504256825 -->
<g id="edge2" class="edge">
<title>http://purl.org/dj/kaggle/match&#45;outcome&#45;prediction&#45;in&#45;football/activity/7268621196068954772&#45;&gt;http://purl.org/dj/kaggle/match&#45;outcome&#45;prediction&#45;in&#45;football/activity/&#45;360078291504256825</title>
<path fill="none" stroke="black" d="M431.21,-268.61C465.36,-263.44 501.98,-255.42 534.37,-243 545.77,-238.63 545.97,-232.34 557.37,-228 592.67,-214.57 632.81,-206.28 669.71,-201.16"/>
<polygon fill="black" stroke="black" points="670.57,-204.58 680.03,-199.8 669.65,-197.64 670.57,-204.58"/>
<text text-anchor="middle" x="580.87" y="-231.8" font-family="Times,serif" font-size="14.00">previous</text>
</g>
<!-- http://purl.org/dj/kaggle/match&#45;outcome&#45;prediction&#45;in&#45;football/activity/&#45;360078291504256825&#45;&gt;http://purl.org/dj/kaggle/match&#45;outcome&#45;prediction&#45;in&#45;football -->
<g id="edge3" class="edge">
<title>http://purl.org/dj/kaggle/match&#45;outcome&#45;prediction&#45;in&#45;football/activity/&#45;360078291504256825&#45;&gt;http://purl.org/dj/kaggle/match&#45;outcome&#45;prediction&#45;in&#45;football</title>
<path fill="none" stroke="black" d="M715.48,-177.77C633.78,-163.33 502.52,-140.13 411.44,-124.04"/>
<polygon fill="black" stroke="black" points="411.82,-120.55 401.37,-122.26 410.61,-127.44 411.82,-120.55"/>
<text text-anchor="middle" x="602.87" y="-144.8" font-family="Times,serif" font-size="14.00">previous</text>
</g>
<!-- http://purl.org/dj/kaggle/match&#45;outcome&#45;prediction&#45;in&#45;football/activity/3546760053922564462 -->
<g id="node4" class="node">
<title>http://purl.org/dj/kaggle/match&#45;outcome&#45;prediction&#45;in&#45;football/activity/3546760053922564462</title>
<ellipse fill="none" stroke="black" cx="862.37" cy="-105" rx="142.97" ry="18"/>
<text text-anchor="middle" x="862.37" y="-101.3" font-family="Times,serif" font-size="14.00">3546760053922564462 (Preparation)</text>
</g>
<!-- http://purl.org/dj/kaggle/match&#45;outcome&#45;prediction&#45;in&#45;football/activity/&#45;360078291504256825&#45;&gt;http://purl.org/dj/kaggle/match&#45;outcome&#45;prediction&#45;in&#45;football/activity/3546760053922564462 -->
<g id="edge4" class="edge">
<title>http://purl.org/dj/kaggle/match&#45;outcome&#45;prediction&#45;in&#45;football/activity/&#45;360078291504256825&#45;&gt;http://purl.org/dj/kaggle/match&#45;outcome&#45;prediction&#45;in&#45;football/activity/3546760053922564462</title>
<path fill="none" stroke="black" d="M784.1,-173.98C781.43,-163.67 780.17,-150.68 786.37,-141 789.82,-135.62 794.32,-131.06 799.42,-127.19"/>
<polygon fill="black" stroke="black" points="801.4,-130.07 807.85,-121.66 797.57,-124.22 801.4,-130.07"/>
<text text-anchor="middle" x="809.87" y="-144.8" font-family="Times,serif" font-size="14.00">previous</text>
</g>
<!-- http://purl.org/dj/kaggle/match&#45;outcome&#45;prediction&#45;in&#45;football/activity/&#45;862346085946049844 -->
<g id="node5" class="node">
<title>http://purl.org/dj/kaggle/match&#45;outcome&#45;prediction&#45;in&#45;football/activity/&#45;862346085946049844</title>
<ellipse fill="none" stroke="black" cx="1469.37" cy="-105" rx="141.88" ry="18"/>
<text text-anchor="middle" x="1469.37" y="-101.3" font-family="Times,serif" font-size="14.00">&#45;862346085946049844 (Preparation)</text>
</g>
<!-- http://purl.org/dj/kaggle/match&#45;outcome&#45;prediction&#45;in&#45;football/activity/&#45;360078291504256825&#45;&gt;http://purl.org/dj/kaggle/match&#45;outcome&#45;prediction&#45;in&#45;football/activity/&#45;862346085946049844 -->
<g id="edge5" class="edge">
<title>http://purl.org/dj/kaggle/match&#45;outcome&#45;prediction&#45;in&#45;football/activity/&#45;360078291504256825&#45;&gt;http://purl.org/dj/kaggle/match&#45;outcome&#45;prediction&#45;in&#45;football/activity/&#45;862346085946049844</title>
<path fill="none" stroke="black" d="M877.15,-179.26C892.85,-177.34 909.09,-175.5 924.37,-174 1039.21,-162.73 1069.8,-176.4 1183.37,-156 1206.63,-151.82 1211.3,-146.09 1234.37,-141 1274.85,-132.08 1319.76,-124.77 1359.38,-119.18"/>
<polygon fill="black" stroke="black" points="1359.91,-122.64 1369.33,-117.79 1358.95,-115.71 1359.91,-122.64"/>
<text text-anchor="middle" x="1257.87" y="-144.8" font-family="Times,serif" font-size="14.00">previous</text>
</g>
<!-- http://purl.org/dj/kaggle/match&#45;outcome&#45;prediction&#45;in&#45;football/activity/4497899757864173148 -->
<g id="node6" class="node">
<title>http://purl.org/dj/kaggle/match&#45;outcome&#45;prediction&#45;in&#45;football/activity/4497899757864173148</title>
<ellipse fill="none" stroke="black" cx="1166.37" cy="-105" rx="142.97" ry="18"/>
<text text-anchor="middle" x="1166.37" y="-101.3" font-family="Times,serif" font-size="14.00">4497899757864173148 (Preparation)</text>
</g>
<!-- http://purl.org/dj/kaggle/match&#45;outcome&#45;prediction&#45;in&#45;football/activity/&#45;360078291504256825&#45;&gt;http://purl.org/dj/kaggle/match&#45;outcome&#45;prediction&#45;in&#45;football/activity/4497899757864173148 -->
<g id="edge6" class="edge">
<title>http://purl.org/dj/kaggle/match&#45;outcome&#45;prediction&#45;in&#45;football/activity/&#45;360078291504256825&#45;&gt;http://purl.org/dj/kaggle/match&#45;outcome&#45;prediction&#45;in&#45;football/activity/4497899757864173148</title>
<path fill="none" stroke="black" d="M888.49,-181.11C916.75,-175.93 947.04,-168.03 973.37,-156 983.16,-151.53 982.61,-145.52 992.37,-141 1012.14,-131.85 1034.25,-125.09 1055.91,-120.09"/>
<polygon fill="black" stroke="black" points="1056.8,-123.48 1065.82,-117.92 1055.3,-116.64 1056.8,-123.48"/>
<text text-anchor="middle" x="1015.87" y="-144.8" font-family="Times,serif" font-size="14.00">previous</text>
</g>
<!-- http://purl.org/dj/kaggle/match&#45;outcome&#45;prediction&#45;in&#45;football/activity/3546760053922564462&#45;&gt;http://purl.org/dj/kaggle/match&#45;outcome&#45;prediction&#45;in&#45;football/activity/7268621196068954772 -->
<g id="edge7" class="edge">
<title>http://purl.org/dj/kaggle/match&#45;outcome&#45;prediction&#45;in&#45;football/activity/3546760053922564462&#45;&gt;http://purl.org/dj/kaggle/match&#45;outcome&#45;prediction&#45;in&#45;football/activity/7268621196068954772</title>
<path fill="none" stroke="black" d="M762.92,-117.98C746.7,-119.77 730.08,-121.51 714.37,-123 660.69,-128.08 523.15,-122.85 472.37,-141 411.08,-162.9 356.99,-219.49 329.19,-252.68"/>
<polygon fill="black" stroke="black" points="326.34,-250.63 322.7,-260.58 331.75,-255.08 326.34,-250.63"/>
<text text-anchor="middle" x="434.87" y="-188.3" font-family="Times,serif" font-size="14.00">previous</text>
</g>
<!-- http://purl.org/dj/kaggle/match&#45;outcome&#45;prediction&#45;in&#45;football/activity/3546760053922564462&#45;&gt;http://purl.org/dj/kaggle/match&#45;outcome&#45;prediction&#45;in&#45;football/activity/&#45;360078291504256825 -->
<g id="edge8" class="edge">
<title>http://purl.org/dj/kaggle/match&#45;outcome&#45;prediction&#45;in&#45;football/activity/3546760053922564462&#45;&gt;http://purl.org/dj/kaggle/match&#45;outcome&#45;prediction&#45;in&#45;football/activity/&#45;360078291504256825</title>
<path fill="none" stroke="black" d="M854.37,-123.2C849.19,-133.34 841.84,-146.08 833.37,-156 829.95,-160.02 826.01,-163.92 821.95,-167.57"/>
<polygon fill="black" stroke="black" points="819.43,-165.11 814.07,-174.25 823.96,-170.45 819.43,-165.11"/>
<text text-anchor="middle" x="866.87" y="-144.8" font-family="Times,serif" font-size="14.00">previous</text>
</g>
<!-- http://purl.org/dj/kaggle/match&#45;outcome&#45;prediction&#45;in&#45;football/activity/5917302188077026907 -->
<g id="node7" class="node">
<title>http://purl.org/dj/kaggle/match&#45;outcome&#45;prediction&#45;in&#45;football/activity/5917302188077026907</title>
<ellipse fill="none" stroke="black" cx="862.37" cy="-18" rx="148.67" ry="18"/>
<text text-anchor="middle" x="862.37" y="-14.3" font-family="Times,serif" font-size="14.00">5917302188077026907 (Visualisation)</text>
</g>
<!-- http://purl.org/dj/kaggle/match&#45;outcome&#45;prediction&#45;in&#45;football/activity/3546760053922564462&#45;&gt;http://purl.org/dj/kaggle/match&#45;outcome&#45;prediction&#45;in&#45;football/activity/5917302188077026907 -->
<g id="edge9" class="edge">
<title>http://purl.org/dj/kaggle/match&#45;outcome&#45;prediction&#45;in&#45;football/activity/3546760053922564462&#45;&gt;http://purl.org/dj/kaggle/match&#45;outcome&#45;prediction&#45;in&#45;football/activity/5917302188077026907</title>
<path fill="none" stroke="black" d="M862.37,-86.8C862.37,-75.16 862.37,-59.55 862.37,-46.24"/>
<polygon fill="black" stroke="black" points="865.87,-46.18 862.37,-36.18 858.87,-46.18 865.87,-46.18"/>
<text text-anchor="middle" x="885.87" y="-57.8" font-family="Times,serif" font-size="14.00">previous</text>
</g>
<!-- http://purl.org/dj/kaggle/match&#45;outcome&#45;prediction&#45;in&#45;football/activity/&#45;862346085946049844&#45;&gt;http://purl.org/dj/kaggle/match&#45;outcome&#45;prediction&#45;in&#45;football/activity/5917302188077026907 -->
<g id="edge10" class="edge">
<title>http://purl.org/dj/kaggle/match&#45;outcome&#45;prediction&#45;in&#45;football/activity/&#45;862346085946049844&#45;&gt;http://purl.org/dj/kaggle/match&#45;outcome&#45;prediction&#45;in&#45;football/activity/5917302188077026907</title>
<path fill="none" stroke="black" d="M1377.84,-91.18C1267.14,-75.68 1081.28,-49.65 965.58,-33.45"/>
<polygon fill="black" stroke="black" points="966.04,-29.98 955.65,-32.06 965.07,-36.91 966.04,-29.98"/>
<text text-anchor="middle" x="1224.87" y="-57.8" font-family="Times,serif" font-size="14.00">previous</text>
</g>
<!-- http://purl.org/dj/kaggle/match&#45;outcome&#45;prediction&#45;in&#45;football/activity/4497899757864173148&#45;&gt;http://purl.org/dj/kaggle/match&#45;outcome&#45;prediction&#45;in&#45;football/activity/&#45;360078291504256825 -->
<g id="edge11" class="edge">
<title>http://purl.org/dj/kaggle/match&#45;outcome&#45;prediction&#45;in&#45;football/activity/4497899757864173148&#45;&gt;http://purl.org/dj/kaggle/match&#45;outcome&#45;prediction&#45;in&#45;football/activity/&#45;360078291504256825</title>
<path fill="none" stroke="black" d="M1061.97,-117.33C1007.97,-123.91 948.09,-132.56 922.37,-141 908.96,-145.4 907.33,-150.4 894.37,-156 880.73,-161.9 865.75,-167.45 851.51,-172.32"/>
<polygon fill="black" stroke="black" points="850.16,-169.08 841.8,-175.58 852.39,-175.72 850.16,-169.08"/>
<text text-anchor="middle" x="945.87" y="-144.8" font-family="Times,serif" font-size="14.00">previous</text>
</g>
<!-- http://purl.org/dj/kaggle/match&#45;outcome&#45;prediction&#45;in&#45;football/activity/5917302188077026907&#45;&gt;http://purl.org/dj/kaggle/match&#45;outcome&#45;prediction&#45;in&#45;football/activity/&#45;360078291504256825 -->
<g id="edge12" class="edge">
<title>http://purl.org/dj/kaggle/match&#45;outcome&#45;prediction&#45;in&#45;football/activity/5917302188077026907&#45;&gt;http://purl.org/dj/kaggle/match&#45;outcome&#45;prediction&#45;in&#45;football/activity/&#45;360078291504256825</title>
<path fill="none" stroke="black" d="M755.45,-30.61C720.32,-40.09 684.82,-57 663.37,-87 637.92,-122.6 688.71,-152.92 733.43,-171.47"/>
<polygon fill="black" stroke="black" points="732.26,-174.78 742.85,-175.25 734.87,-168.28 732.26,-174.78"/>
<text text-anchor="middle" x="686.87" y="-101.3" font-family="Times,serif" font-size="14.00">previous</text>
</g>
<!-- http://purl.org/dj/kaggle/match&#45;outcome&#45;prediction&#45;in&#45;football/activity/&#45;352175774452784949 -->
<g id="node8" class="node">
<title>http://purl.org/dj/kaggle/match&#45;outcome&#45;prediction&#45;in&#45;football/activity/&#45;352175774452784949</title>
<ellipse fill="none" stroke="black" cx="1369.37" cy="-366" rx="147.57" ry="18"/>
<text text-anchor="middle" x="1369.37" y="-362.3" font-family="Times,serif" font-size="14.00">&#45;352175774452784949 (Visualisation)</text>
</g>
<!-- http://purl.org/dj/kaggle/match&#45;outcome&#45;prediction&#45;in&#45;football/activity/&#45;352175774452784949&#45;&gt;http://purl.org/dj/kaggle/match&#45;outcome&#45;prediction&#45;in&#45;football/activity/&#45;360078291504256825 -->
<g id="edge13" class="edge">
<title>http://purl.org/dj/kaggle/match&#45;outcome&#45;prediction&#45;in&#45;football/activity/&#45;352175774452784949&#45;&gt;http://purl.org/dj/kaggle/match&#45;outcome&#45;prediction&#45;in&#45;football/activity/&#45;360078291504256825</title>
<path fill="none" stroke="black" d="M1223.15,-363.52C997.74,-359.69 586.51,-346 541.37,-297 530.53,-285.23 531.66,-273.72 541.37,-261 542.09,-260.06 651.19,-230.51 724.72,-210.67"/>
<polygon fill="black" stroke="black" points="725.65,-214.05 734.4,-208.07 723.83,-207.29 725.65,-214.05"/>
<text text-anchor="middle" x="564.87" y="-275.3" font-family="Times,serif" font-size="14.00">previous</text>
</g>
<!-- http://purl.org/dj/kaggle/match&#45;outcome&#45;prediction&#45;in&#45;football/activity/&#45;352175774452784949&#45;&gt;http://purl.org/dj/kaggle/match&#45;outcome&#45;prediction&#45;in&#45;football/activity/3546760053922564462 -->
<g id="edge14" class="edge">
<title>http://purl.org/dj/kaggle/match&#45;outcome&#45;prediction&#45;in&#45;football/activity/&#45;352175774452784949&#45;&gt;http://purl.org/dj/kaggle/match&#45;outcome&#45;prediction&#45;in&#45;football/activity/3546760053922564462</title>
<path fill="none" stroke="black" d="M1223.75,-363.06C1011.44,-359.55 635.63,-350.51 576.37,-330 522.89,-311.49 503.21,-296.01 483.37,-243 469.45,-205.81 478.46,-170.26 517.37,-141 552.51,-114.58 670.64,-127.51 714.37,-123 726.55,-121.74 739.29,-120.37 751.96,-118.97"/>
<polygon fill="black" stroke="black" points="752.55,-122.42 762.1,-117.84 751.77,-115.47 752.55,-122.42"/>
<text text-anchor="middle" x="506.87" y="-231.8" font-family="Times,serif" font-size="14.00">previous</text>
</g>
<!-- http://purl.org/dj/kaggle/match&#45;outcome&#45;prediction&#45;in&#45;football/activity/&#45;352175774452784949&#45;&gt;http://purl.org/dj/kaggle/match&#45;outcome&#45;prediction&#45;in&#45;football/activity/&#45;862346085946049844 -->
<g id="edge15" class="edge">
<title>http://purl.org/dj/kaggle/match&#45;outcome&#45;prediction&#45;in&#45;football/activity/&#45;352175774452784949&#45;&gt;http://purl.org/dj/kaggle/match&#45;outcome&#45;prediction&#45;in&#45;football/activity/&#45;862346085946049844</title>
<path fill="none" stroke="black" d="M1473.17,-353.18C1505.19,-347.72 1535.23,-340.15 1547.37,-330 1579.23,-303.38 1573.68,-283.8 1581.37,-243 1590.56,-194.23 1543.55,-152.45 1507.61,-128.27"/>
<polygon fill="black" stroke="black" points="1509.51,-125.33 1499.22,-122.8 1505.68,-131.19 1509.51,-125.33"/>
<text text-anchor="middle" x="1605.87" y="-231.8" font-family="Times,serif" font-size="14.00">previous</text>
</g>
<!-- http://purl.org/dj/kaggle/match&#45;outcome&#45;prediction&#45;in&#45;football/activity/&#45;352175774452784949&#45;&gt;http://purl.org/dj/kaggle/match&#45;outcome&#45;prediction&#45;in&#45;football/activity/4497899757864173148 -->
<g id="edge16" class="edge">
<title>http://purl.org/dj/kaggle/match&#45;outcome&#45;prediction&#45;in&#45;football/activity/&#45;352175774452784949&#45;&gt;http://purl.org/dj/kaggle/match&#45;outcome&#45;prediction&#45;in&#45;football/activity/4497899757864173148</title>
<path fill="none" stroke="black" d="M1438.4,-350.01C1467.03,-340.02 1497.45,-323.63 1514.37,-297 1533.86,-266.34 1502.96,-186.61 1490.37,-174 1474.22,-157.83 1353.09,-135.51 1263.65,-120.92"/>
<polygon fill="black" stroke="black" points="1264.17,-117.45 1253.74,-119.31 1263.05,-124.36 1264.17,-117.45"/>
<text text-anchor="middle" x="1540.87" y="-231.8" font-family="Times,serif" font-size="14.00">previous</text>
</g>
<!-- http://purl.org/dj/kaggle/match&#45;outcome&#45;prediction&#45;in&#45;football/activity/&#45;4772750382443479948 -->
<g id="node9" class="node">
<title>http://purl.org/dj/kaggle/match&#45;outcome&#45;prediction&#45;in&#45;football/activity/&#45;4772750382443479948</title>
<ellipse fill="none" stroke="black" cx="1369.37" cy="-279" rx="135.68" ry="18"/>
<text text-anchor="middle" x="1369.37" y="-275.3" font-family="Times,serif" font-size="14.00">&#45;4772750382443479948 (Analysis)</text>
</g>
<!-- http://purl.org/dj/kaggle/match&#45;outcome&#45;prediction&#45;in&#45;football/activity/&#45;352175774452784949&#45;&gt;http://purl.org/dj/kaggle/match&#45;outcome&#45;prediction&#45;in&#45;football/activity/&#45;4772750382443479948 -->
<g id="edge17" class="edge">
<title>http://purl.org/dj/kaggle/match&#45;outcome&#45;prediction&#45;in&#45;football/activity/&#45;352175774452784949&#45;&gt;http://purl.org/dj/kaggle/match&#45;outcome&#45;prediction&#45;in&#45;football/activity/&#45;4772750382443479948</title>
<path fill="none" stroke="black" d="M1369.37,-347.8C1369.37,-336.16 1369.37,-320.55 1369.37,-307.24"/>
<polygon fill="black" stroke="black" points="1372.87,-307.18 1369.37,-297.18 1365.87,-307.18 1372.87,-307.18"/>
<text text-anchor="middle" x="1392.87" y="-318.8" font-family="Times,serif" font-size="14.00">previous</text>
</g>
<!-- http://purl.org/dj/kaggle/match&#45;outcome&#45;prediction&#45;in&#45;football/activity/&#45;4772750382443479948&#45;&gt;http://purl.org/dj/kaggle/match&#45;outcome&#45;prediction&#45;in&#45;football/activity/&#45;360078291504256825 -->
<g id="edge18" class="edge">
<title>http://purl.org/dj/kaggle/match&#45;outcome&#45;prediction&#45;in&#45;football/activity/&#45;4772750382443479948&#45;&gt;http://purl.org/dj/kaggle/match&#45;outcome&#45;prediction&#45;in&#45;football/activity/&#45;360078291504256825</title>
<path fill="none" stroke="black" d="M1279.43,-265.51C1242.88,-259.73 1200.39,-252.11 1162.37,-243 1140.64,-237.79 1136.28,-232.41 1114.37,-228 1031.22,-211.26 1008.68,-219.34 924.37,-210 912.72,-208.71 900.51,-207.27 888.4,-205.8"/>
<polygon fill="black" stroke="black" points="888.61,-202.3 878.26,-204.56 887.76,-209.25 888.61,-202.3"/>
<text text-anchor="middle" x="1185.87" y="-231.8" font-family="Times,serif" font-size="14.00">previous</text>
</g>
<!-- http://purl.org/dj/kaggle/match&#45;outcome&#45;prediction&#45;in&#45;football/activity/&#45;4772750382443479948&#45;&gt;http://purl.org/dj/kaggle/match&#45;outcome&#45;prediction&#45;in&#45;football/activity/3546760053922564462 -->
<g id="edge19" class="edge">
<title>http://purl.org/dj/kaggle/match&#45;outcome&#45;prediction&#45;in&#45;football/activity/&#45;4772750382443479948&#45;&gt;http://purl.org/dj/kaggle/match&#45;outcome&#45;prediction&#45;in&#45;football/activity/3546760053922564462</title>
<path fill="none" stroke="black" d="M1345.02,-261.25C1312.28,-239.23 1251.78,-200.28 1196.37,-174 1191.47,-171.67 1109.64,-142.31 1104.37,-141 1064.4,-131.05 1019.97,-123.61 980.19,-118.22"/>
<polygon fill="black" stroke="black" points="980.56,-114.73 970.19,-116.89 979.64,-121.67 980.56,-114.73"/>
<text text-anchor="middle" x="1284.87" y="-188.3" font-family="Times,serif" font-size="14.00">previous</text>
</g>
<!-- http://purl.org/dj/kaggle/match&#45;outcome&#45;prediction&#45;in&#45;football/activity/&#45;4772750382443479948&#45;&gt;http://purl.org/dj/kaggle/match&#45;outcome&#45;prediction&#45;in&#45;football/activity/&#45;862346085946049844 -->
<g id="edge20" class="edge">
<title>http://purl.org/dj/kaggle/match&#45;outcome&#45;prediction&#45;in&#45;football/activity/&#45;4772750382443479948&#45;&gt;http://purl.org/dj/kaggle/match&#45;outcome&#45;prediction&#45;in&#45;football/activity/&#45;862346085946049844</title>
<path fill="none" stroke="black" d="M1383.6,-261.07C1394.44,-247.71 1409.34,-228.33 1420.37,-210 1435.57,-184.76 1449.53,-154.04 1458.63,-132.56"/>
<polygon fill="black" stroke="black" points="1461.96,-133.69 1462.58,-123.11 1455.5,-130.99 1461.96,-133.69"/>
<text text-anchor="middle" x="1462.87" y="-188.3" font-family="Times,serif" font-size="14.00">previous</text>
</g>
<!-- http://purl.org/dj/kaggle/match&#45;outcome&#45;prediction&#45;in&#45;football/activity/&#45;4772750382443479948&#45;&gt;http://purl.org/dj/kaggle/match&#45;outcome&#45;prediction&#45;in&#45;football/activity/4497899757864173148 -->
<g id="edge21" class="edge">
<title>http://purl.org/dj/kaggle/match&#45;outcome&#45;prediction&#45;in&#45;football/activity/&#45;4772750382443479948&#45;&gt;http://purl.org/dj/kaggle/match&#45;outcome&#45;prediction&#45;in&#45;football/activity/4497899757864173148</title>
<path fill="none" stroke="black" d="M1368.76,-260.9C1367.34,-226.12 1363.35,-149.66 1355.37,-141 1345.42,-130.2 1319.95,-122.69 1290.82,-117.48"/>
<polygon fill="black" stroke="black" points="1291.26,-114 1280.82,-115.8 1290.1,-120.91 1291.26,-114"/>
<text text-anchor="middle" x="1388.87" y="-188.3" font-family="Times,serif" font-size="14.00">previous</text>
</g>
<!-- http://purl.org/dj/kaggle/match&#45;outcome&#45;prediction&#45;in&#45;football/activity/4037438904831679736 -->
<g id="node10" class="node">
<title>http://purl.org/dj/kaggle/match&#45;outcome&#45;prediction&#45;in&#45;football/activity/4037438904831679736</title>
<ellipse fill="none" stroke="black" cx="1066.37" cy="-279" rx="148.67" ry="18"/>
<text text-anchor="middle" x="1066.37" y="-275.3" font-family="Times,serif" font-size="14.00">4037438904831679736 (Visualisation)</text>
</g>
<!-- http://purl.org/dj/kaggle/match&#45;outcome&#45;prediction&#45;in&#45;football/activity/4037438904831679736&#45;&gt;http://purl.org/dj/kaggle/match&#45;outcome&#45;prediction&#45;in&#45;football/activity/&#45;360078291504256825 -->
<g id="edge22" class="edge">
<title>http://purl.org/dj/kaggle/match&#45;outcome&#45;prediction&#45;in&#45;football/activity/4037438904831679736&#45;&gt;http://purl.org/dj/kaggle/match&#45;outcome&#45;prediction&#45;in&#45;football/activity/&#45;360078291504256825</title>
<path fill="none" stroke="black" d="M988.07,-263.61C962.41,-258.11 933.93,-251.17 908.37,-243 883.08,-234.92 855.73,-223.5 833.73,-213.62"/>
<polygon fill="black" stroke="black" points="834.89,-210.31 824.34,-209.35 831.99,-216.68 834.89,-210.31"/>
<text text-anchor="middle" x="931.87" y="-231.8" font-family="Times,serif" font-size="14.00">previous</text>
</g>
<!-- http://purl.org/dj/kaggle/match&#45;outcome&#45;prediction&#45;in&#45;football/activity/&#45;1248825094721549398 -->
<g id="node11" class="node">
<title>http://purl.org/dj/kaggle/match&#45;outcome&#45;prediction&#45;in&#45;football/activity/&#45;1248825094721549398</title>
<ellipse fill="none" stroke="black" cx="1060.37" cy="-192" rx="126.98" ry="18"/>
<text text-anchor="middle" x="1060.37" y="-188.3" font-family="Times,serif" font-size="14.00">&#45;1248825094721549398 (Reuse)</text>
</g>
<!-- http://purl.org/dj/kaggle/match&#45;outcome&#45;prediction&#45;in&#45;football/activity/4037438904831679736&#45;&gt;http://purl.org/dj/kaggle/match&#45;outcome&#45;prediction&#45;in&#45;football/activity/&#45;1248825094721549398 -->
<g id="edge23" class="edge">
<title>http://purl.org/dj/kaggle/match&#45;outcome&#45;prediction&#45;in&#45;football/activity/4037438904831679736&#45;&gt;http://purl.org/dj/kaggle/match&#45;outcome&#45;prediction&#45;in&#45;football/activity/&#45;1248825094721549398</title>
<path fill="none" stroke="black" d="M1065.16,-260.8C1064.34,-249.16 1063.23,-233.55 1062.3,-220.24"/>
<polygon fill="black" stroke="black" points="1065.78,-219.9 1061.58,-210.18 1058.8,-220.4 1065.78,-219.9"/>
<text text-anchor="middle" x="1086.87" y="-231.8" font-family="Times,serif" font-size="14.00">previous</text>
</g>
<!-- http://purl.org/dj/kaggle/match&#45;outcome&#45;prediction&#45;in&#45;football/activity/&#45;1248825094721549398&#45;&gt;http://purl.org/dj/kaggle/match&#45;outcome&#45;prediction&#45;in&#45;football/activity/3546760053922564462 -->
<g id="edge24" class="edge">
<title>http://purl.org/dj/kaggle/match&#45;outcome&#45;prediction&#45;in&#45;football/activity/&#45;1248825094721549398&#45;&gt;http://purl.org/dj/kaggle/match&#45;outcome&#45;prediction&#45;in&#45;football/activity/3546760053922564462</title>
<path fill="none" stroke="black" d="M1058.86,-173.74C1056.98,-162.79 1052.77,-149.19 1043.37,-141 1032.43,-131.46 1006.5,-124.28 977.59,-119"/>
<polygon fill="black" stroke="black" points="978.14,-115.54 967.68,-117.27 976.94,-122.43 978.14,-115.54"/>
<text text-anchor="middle" x="1076.87" y="-144.8" font-family="Times,serif" font-size="14.00">previous</text>
</g>
<!-- http://purl.org/dj/kaggle/match&#45;outcome&#45;prediction&#45;in&#45;football/activity/&#45;1248825094721549398&#45;&gt;http://purl.org/dj/kaggle/match&#45;outcome&#45;prediction&#45;in&#45;football/activity/&#45;862346085946049844 -->
<g id="edge25" class="edge">
<title>http://purl.org/dj/kaggle/match&#45;outcome&#45;prediction&#45;in&#45;football/activity/&#45;1248825094721549398&#45;&gt;http://purl.org/dj/kaggle/match&#45;outcome&#45;prediction&#45;in&#45;football/activity/&#45;862346085946049844</title>
<path fill="none" stroke="black" d="M1150.57,-179.3C1191.85,-173.35 1241.29,-165.39 1285.37,-156 1326.51,-147.24 1372.14,-134.86 1407.66,-124.61"/>
<polygon fill="black" stroke="black" points="1408.78,-127.93 1417.4,-121.78 1406.82,-121.21 1408.78,-127.93"/>
<text text-anchor="middle" x="1369.87" y="-144.8" font-family="Times,serif" font-size="14.00">previous</text>
</g>
<!-- http://purl.org/dj/kaggle/match&#45;outcome&#45;prediction&#45;in&#45;football/activity/&#45;1248825094721549398&#45;&gt;http://purl.org/dj/kaggle/match&#45;outcome&#45;prediction&#45;in&#45;football/activity/4497899757864173148 -->
<g id="edge26" class="edge">
<title>http://purl.org/dj/kaggle/match&#45;outcome&#45;prediction&#45;in&#45;football/activity/&#45;1248825094721549398&#45;&gt;http://purl.org/dj/kaggle/match&#45;outcome&#45;prediction&#45;in&#45;football/activity/4497899757864173148</title>
<path fill="none" stroke="black" d="M1089.71,-174.4C1098.56,-168.93 1108.12,-162.57 1116.37,-156 1125.93,-148.39 1135.62,-139.14 1143.89,-130.68"/>
<polygon fill="black" stroke="black" points="1146.66,-132.84 1151.03,-123.19 1141.6,-128.01 1146.66,-132.84"/>
<text text-anchor="middle" x="1155.87" y="-144.8" font-family="Times,serif" font-size="14.00">previous</text>
</g>
<!-- http://purl.org/dj/kaggle/match&#45;outcome&#45;prediction&#45;in&#45;football/activity/&#45;1103995524983821913 -->
<g id="node12" class="node">
<title>http://purl.org/dj/kaggle/match&#45;outcome&#45;prediction&#45;in&#45;football/activity/&#45;1103995524983821913</title>
<ellipse fill="none" stroke="black" cx="748.37" cy="-279" rx="151.37" ry="18"/>
<text text-anchor="middle" x="748.37" y="-275.3" font-family="Times,serif" font-size="14.00">&#45;1103995524983821913 (Visualisation)</text>
</g>
<!-- http://purl.org/dj/kaggle/match&#45;outcome&#45;prediction&#45;in&#45;football/activity/&#45;1103995524983821913&#45;&gt;http://purl.org/dj/kaggle/match&#45;outcome&#45;prediction&#45;in&#45;football/activity/&#45;360078291504256825 -->
<g id="edge27" class="edge">
<title>http://purl.org/dj/kaggle/match&#45;outcome&#45;prediction&#45;in&#45;football/activity/&#45;1103995524983821913&#45;&gt;http://purl.org/dj/kaggle/match&#45;outcome&#45;prediction&#45;in&#45;football/activity/&#45;360078291504256825</title>
<path fill="none" stroke="black" d="M756.87,-260.8C762.74,-248.93 770.64,-232.93 777.3,-219.45"/>
<polygon fill="black" stroke="black" points="780.59,-220.69 781.89,-210.18 774.32,-217.59 780.59,-220.69"/>
<text text-anchor="middle" x="794.87" y="-231.8" font-family="Times,serif" font-size="14.00">previous</text>
</g>
<!-- http://purl.org/dj/kaggle/match&#45;outcome&#45;prediction&#45;in&#45;football/activity/&#45;1103995524983821913&#45;&gt;http://purl.org/dj/kaggle/match&#45;outcome&#45;prediction&#45;in&#45;football/activity/&#45;1248825094721549398 -->
<g id="edge28" class="edge">
<title>http://purl.org/dj/kaggle/match&#45;outcome&#45;prediction&#45;in&#45;football/activity/&#45;1103995524983821913&#45;&gt;http://purl.org/dj/kaggle/match&#45;outcome&#45;prediction&#45;in&#45;football/activity/&#45;1248825094721549398</title>
<path fill="none" stroke="black" d="M853.42,-266C886.51,-260.7 922.88,-253.26 955.37,-243 978.31,-235.75 1002.64,-224.42 1022.09,-214.38"/>
<polygon fill="black" stroke="black" points="1023.72,-217.48 1030.95,-209.73 1020.47,-211.28 1023.72,-217.48"/>
<text text-anchor="middle" x="1013.87" y="-231.8" font-family="Times,serif" font-size="14.00">previous</text>
</g>
</g>
</svg>
