<?xml version="1.0" encoding="UTF-8" standalone="no"?>
<!DOCTYPE svg PUBLIC "-//W3C//DTD SVG 1.1//EN"
 "http://www.w3.org/Graphics/SVG/1.1/DTD/svg11.dtd">
<!-- Generated by graphviz version 2.44.1 (20200629.0846)
 -->
<!-- Pages: 1 -->
<svg width="3831pt" height="521pt"
 viewBox="0.00 0.00 3831.12 521.00" xmlns="http://www.w3.org/2000/svg" xmlns:xlink="http://www.w3.org/1999/xlink">
<g id="graph0" class="graph" transform="scale(1 1) rotate(0) translate(4 517)">
<polygon fill="white" stroke="transparent" points="-4,4 -4,-517 3827.12,-517 3827.12,4 -4,4"/>
<!-- http://purl.org/dj/kaggle/mesonet&#45;result#427361219 -->
<g id="node1" class="node">
<title>http://purl.org/dj/kaggle/mesonet&#45;result#427361219</title>
<ellipse fill="none" stroke="black" cx="863.73" cy="-267" rx="126.18" ry="18"/>
<text text-anchor="middle" x="863.73" y="-263.3" font-family="Times,serif" font-size="14.00">427361219 (filename(0): Reuse)</text>
</g>
<!-- http://purl.org/dj/kaggle/mesonet&#45;result -->
<g id="node2" class="node">
<title>http://purl.org/dj/kaggle/mesonet&#45;result</title>
<ellipse fill="none" stroke="black" cx="2178.73" cy="-18" rx="63.09" ry="18"/>
<text text-anchor="middle" x="2178.73" y="-14.3" font-family="Times,serif" font-size="14.00">mesonet&#45;result</text>
</g>
<!-- http://purl.org/dj/kaggle/mesonet&#45;result#427361219&#45;&gt;http://purl.org/dj/kaggle/mesonet&#45;result -->
<g id="edge1" class="edge">
<title>http://purl.org/dj/kaggle/mesonet&#45;result#427361219&#45;&gt;http://purl.org/dj/kaggle/mesonet&#45;result</title>
<path fill="none" stroke="black" d="M747.71,-259.87C491.38,-244.24 -92.48,-196.2 12.73,-87 49.85,-48.47 1732.4,-24.71 2105.83,-19.9"/>
<polygon fill="black" stroke="black" points="2106.02,-23.4 2115.97,-19.77 2105.93,-16.4 2106.02,-23.4"/>
<text text-anchor="middle" x="117.23" y="-155.3" font-family="Times,serif" font-size="14.00">previous</text>
</g>
<!-- http://purl.org/dj/kaggle/mesonet&#45;result#80085334 -->
<g id="node3" class="node">
<title>http://purl.org/dj/kaggle/mesonet&#45;result#80085334</title>
<ellipse fill="none" stroke="black" cx="1593.73" cy="-105" rx="99.38" ry="18"/>
<text text-anchor="middle" x="1593.73" y="-101.3" font-family="Times,serif" font-size="14.00">80085334 (pd(0): Reuse)</text>
</g>
<!-- http://purl.org/dj/kaggle/mesonet&#45;result#80085334&#45;&gt;http://purl.org/dj/kaggle/mesonet&#45;result -->
<g id="edge2" class="edge">
<title>http://purl.org/dj/kaggle/mesonet&#45;result#80085334&#45;&gt;http://purl.org/dj/kaggle/mesonet&#45;result</title>
<path fill="none" stroke="black" d="M1666.13,-92.61C1678.34,-90.72 1690.89,-88.79 1702.73,-87 1802.66,-71.88 1827.68,-68.31 1927.73,-54 1990.48,-45.02 2062.1,-35.06 2112.73,-28.07"/>
<polygon fill="black" stroke="black" points="2113.46,-31.51 2122.89,-26.67 2112.5,-24.57 2113.46,-31.51"/>
<text text-anchor="middle" x="1951.23" y="-57.8" font-family="Times,serif" font-size="14.00">previous</text>
</g>
<!-- http://purl.org/dj/python/lib/22216931 -->
<g id="node4" class="node">
<title>http://purl.org/dj/python/lib/22216931</title>
<ellipse fill="none" stroke="black" cx="906.73" cy="-105" rx="88.28" ry="18"/>
<text text-anchor="middle" x="906.73" y="-101.3" font-family="Times,serif" font-size="14.00">22216931 (os: Reuse)</text>
</g>
<!-- http://purl.org/dj/python/lib/22216931&#45;&gt;http://purl.org/dj/kaggle/mesonet&#45;result -->
<g id="edge3" class="edge">
<title>http://purl.org/dj/python/lib/22216931&#45;&gt;http://purl.org/dj/kaggle/mesonet&#45;result</title>
<path fill="none" stroke="black" d="M968.41,-92.1C980.1,-90.15 992.27,-88.34 1003.73,-87 1419.05,-38.55 1921.16,-24.11 2105.95,-20.26"/>
<polygon fill="black" stroke="black" points="2106.16,-23.76 2116.09,-20.06 2106.02,-16.76 2106.16,-23.76"/>
<text text-anchor="middle" x="1382.23" y="-57.8" font-family="Times,serif" font-size="14.00">previous</text>
</g>
<!-- http://purl.org/dj/kaggle/mesonet&#45;result#800326946 -->
<g id="node5" class="node">
<title>http://purl.org/dj/kaggle/mesonet&#45;result#800326946</title>
<ellipse fill="none" stroke="black" cx="1593.73" cy="-213" rx="161.37" ry="18"/>
<text text-anchor="middle" x="1593.73" y="-209.3" font-family="Times,serif" font-size="14.00">800326946 (submission(0)$0: Movement)</text>
</g>
<!-- http://purl.org/dj/kaggle/mesonet&#45;result#800326946&#45;&gt;http://purl.org/dj/kaggle/mesonet&#45;result#80085334 -->
<g id="edge4" class="edge">
<title>http://purl.org/dj/kaggle/mesonet&#45;result#800326946&#45;&gt;http://purl.org/dj/kaggle/mesonet&#45;result#80085334</title>
<path fill="none" stroke="black" d="M1593.73,-194.97C1593.73,-178.38 1593.73,-152.88 1593.73,-133.43"/>
<polygon fill="black" stroke="black" points="1597.23,-133.34 1593.73,-123.34 1590.23,-133.34 1597.23,-133.34"/>
<text text-anchor="middle" x="1617.23" y="-155.3" font-family="Times,serif" font-size="14.00">previous</text>
</g>
<!-- http://purl.org/dj/python/lib/144966264 -->
<g id="node6" class="node">
<title>http://purl.org/dj/python/lib/144966264</title>
<ellipse fill="none" stroke="black" cx="1820.73" cy="-105" rx="109.38" ry="18"/>
<text text-anchor="middle" x="1820.73" y="-101.3" font-family="Times,serif" font-size="14.00">144966264 (pandas: Reuse)</text>
</g>
<!-- http://purl.org/dj/kaggle/mesonet&#45;result#800326946&#45;&gt;http://purl.org/dj/python/lib/144966264 -->
<g id="edge5" class="edge">
<title>http://purl.org/dj/kaggle/mesonet&#45;result#800326946&#45;&gt;http://purl.org/dj/python/lib/144966264</title>
<path fill="none" stroke="black" d="M1620.84,-195.18C1628.84,-189.76 1637.4,-183.46 1644.73,-177 1660.78,-162.84 1658.38,-152.03 1676.73,-141 1692.45,-131.55 1710.58,-124.65 1728.57,-119.61"/>
<polygon fill="black" stroke="black" points="1729.74,-122.92 1738.53,-117 1727.96,-116.15 1729.74,-122.92"/>
<text text-anchor="middle" x="1700.23" y="-155.3" font-family="Times,serif" font-size="14.00">previous</text>
</g>
<!-- http://purl.org/dj/kaggle/mesonet&#45;result#1776949833 -->
<g id="node7" class="node">
<title>http://purl.org/dj/kaggle/mesonet&#45;result#1776949833</title>
<ellipse fill="none" stroke="black" cx="410.73" cy="-105" rx="389.13" ry="18"/>
<text text-anchor="middle" x="410.73" y="-101.3" font-family="Times,serif" font-size="14.00">1776949833 ([&lt;_ast.Constant object at 0x12f8aba60&gt;, &lt;_ast.Constant object at 0x12f8ab190&gt;](0): Reuse)</text>
</g>
<!-- http://purl.org/dj/kaggle/mesonet&#45;result#800326946&#45;&gt;http://purl.org/dj/kaggle/mesonet&#45;result#1776949833 -->
<g id="edge6" class="edge">
<title>http://purl.org/dj/kaggle/mesonet&#45;result#800326946&#45;&gt;http://purl.org/dj/kaggle/mesonet&#45;result#1776949833</title>
<path fill="none" stroke="black" d="M1472.41,-201.13C1263.4,-182.4 834.43,-143.96 590.59,-122.12"/>
<polygon fill="black" stroke="black" points="590.83,-118.62 580.55,-121.22 590.2,-125.6 590.83,-118.62"/>
<text text-anchor="middle" x="1201.23" y="-155.3" font-family="Times,serif" font-size="14.00">previous</text>
</g>
<!-- http://purl.org/dj/kaggle/mesonet&#45;result#848498283 -->
<g id="node8" class="node">
<title>http://purl.org/dj/kaggle/mesonet&#45;result#848498283</title>
<ellipse fill="none" stroke="black" cx="1244.73" cy="-105" rx="232.06" ry="18"/>
<text text-anchor="middle" x="1244.73" y="-101.3" font-family="Times,serif" font-size="14.00">848498283 (/kaggle/input/submit&#45;dfdc/submit2.csv(0): Reuse)</text>
</g>
<!-- http://purl.org/dj/kaggle/mesonet&#45;result#800326946&#45;&gt;http://purl.org/dj/kaggle/mesonet&#45;result#848498283 -->
<g id="edge7" class="edge">
<title>http://purl.org/dj/kaggle/mesonet&#45;result#800326946&#45;&gt;http://purl.org/dj/kaggle/mesonet&#45;result#848498283</title>
<path fill="none" stroke="black" d="M1540.72,-195.9C1478.6,-177.03 1375.7,-145.78 1309.06,-125.54"/>
<polygon fill="black" stroke="black" points="1309.68,-122.07 1299.1,-122.51 1307.65,-128.77 1309.68,-122.07"/>
<text text-anchor="middle" x="1495.23" y="-155.3" font-family="Times,serif" font-size="14.00">previous</text>
</g>
<!-- http://purl.org/dj/python/lib/144966264&#45;&gt;http://purl.org/dj/kaggle/mesonet&#45;result -->
<g id="edge8" class="edge">
<title>http://purl.org/dj/python/lib/144966264&#45;&gt;http://purl.org/dj/kaggle/mesonet&#45;result</title>
<path fill="none" stroke="black" d="M1880.25,-89.87C1947.48,-73.91 2056.1,-48.12 2122.11,-32.44"/>
<polygon fill="black" stroke="black" points="2123.01,-35.83 2131.93,-30.11 2121.39,-29.02 2123.01,-35.83"/>
<text text-anchor="middle" x="2045.23" y="-57.8" font-family="Times,serif" font-size="14.00">previous</text>
</g>
<!-- http://purl.org/dj/kaggle/mesonet&#45;result#1776949833&#45;&gt;http://purl.org/dj/kaggle/mesonet&#45;result -->
<g id="edge9" class="edge">
<title>http://purl.org/dj/kaggle/mesonet&#45;result#1776949833&#45;&gt;http://purl.org/dj/kaggle/mesonet&#45;result</title>
<path fill="none" stroke="black" d="M600.73,-89.27C748.85,-78.22 959.77,-63.43 1144.73,-54 1505.32,-35.62 1937.17,-24.52 2106.03,-20.61"/>
<polygon fill="black" stroke="black" points="2106.13,-24.11 2116.05,-20.38 2105.97,-17.11 2106.13,-24.11"/>
<text text-anchor="middle" x="1168.23" y="-57.8" font-family="Times,serif" font-size="14.00">previous</text>
</g>
<!-- http://purl.org/dj/kaggle/mesonet&#45;result#848498283&#45;&gt;http://purl.org/dj/kaggle/mesonet&#45;result -->
<g id="edge10" class="edge">
<title>http://purl.org/dj/kaggle/mesonet&#45;result#848498283&#45;&gt;http://purl.org/dj/kaggle/mesonet&#45;result</title>
<path fill="none" stroke="black" d="M1384.18,-90.59C1491.26,-80.36 1642.82,-66.03 1775.73,-54 1892.77,-43.41 2029,-31.71 2109.32,-24.87"/>
<polygon fill="black" stroke="black" points="2109.64,-28.36 2119.31,-24.02 2109.05,-21.38 2109.64,-28.36"/>
<text text-anchor="middle" x="1799.23" y="-57.8" font-family="Times,serif" font-size="14.00">previous</text>
</g>
<!-- http://purl.org/dj/kaggle/mesonet&#45;result#82575712 -->
<g id="node9" class="node">
<title>http://purl.org/dj/kaggle/mesonet&#45;result#82575712</title>
<ellipse fill="none" stroke="black" cx="2047.73" cy="-105" rx="99.38" ry="18"/>
<text text-anchor="middle" x="2047.73" y="-101.3" font-family="Times,serif" font-size="14.00">82575712 (np(0): Reuse)</text>
</g>
<!-- http://purl.org/dj/kaggle/mesonet&#45;result#82575712&#45;&gt;http://purl.org/dj/kaggle/mesonet&#45;result -->
<g id="edge11" class="edge">
<title>http://purl.org/dj/kaggle/mesonet&#45;result#82575712&#45;&gt;http://purl.org/dj/kaggle/mesonet&#45;result</title>
<path fill="none" stroke="black" d="M2073.3,-87.41C2094.07,-73.93 2123.51,-54.83 2146,-40.24"/>
<polygon fill="black" stroke="black" points="2148.07,-43.07 2154.55,-34.69 2144.26,-37.19 2148.07,-43.07"/>
<text text-anchor="middle" x="2145.23" y="-57.8" font-family="Times,serif" font-size="14.00">previous</text>
</g>
<!-- http://purl.org/dj/kaggle/mesonet&#45;result#1296762571 -->
<g id="node10" class="node">
<title>http://purl.org/dj/kaggle/mesonet&#45;result#1296762571</title>
<ellipse fill="none" stroke="black" cx="2030.73" cy="-213" rx="180.07" ry="18"/>
<text text-anchor="middle" x="2030.73" y="-209.3" font-family="Times,serif" font-size="14.00">1296762571 (submission_ori(0)$0: Movement)</text>
</g>
<!-- http://purl.org/dj/kaggle/mesonet&#45;result#1296762571&#45;&gt;http://purl.org/dj/kaggle/mesonet&#45;result#80085334 -->
<g id="edge12" class="edge">
<title>http://purl.org/dj/kaggle/mesonet&#45;result#1296762571&#45;&gt;http://purl.org/dj/kaggle/mesonet&#45;result#80085334</title>
<path fill="none" stroke="black" d="M1941.38,-197.28C1910.31,-191.63 1875.34,-184.68 1843.73,-177 1789.62,-163.86 1777.28,-156.24 1723.73,-141 1702.19,-134.87 1678.56,-128.43 1657.42,-122.76"/>
<polygon fill="black" stroke="black" points="1658.15,-119.33 1647.59,-120.13 1656.34,-126.09 1658.15,-119.33"/>
<text text-anchor="middle" x="1867.23" y="-155.3" font-family="Times,serif" font-size="14.00">previous</text>
</g>
<!-- http://purl.org/dj/kaggle/mesonet&#45;result#1296762571&#45;&gt;http://purl.org/dj/python/lib/144966264 -->
<g id="edge13" class="edge">
<title>http://purl.org/dj/kaggle/mesonet&#45;result#1296762571&#45;&gt;http://purl.org/dj/python/lib/144966264</title>
<path fill="none" stroke="black" d="M1997.45,-195.2C1960.84,-176.72 1901.93,-146.98 1862.3,-126.98"/>
<polygon fill="black" stroke="black" points="1863.66,-123.75 1853.16,-122.37 1860.51,-130 1863.66,-123.75"/>
<text text-anchor="middle" x="1981.23" y="-155.3" font-family="Times,serif" font-size="14.00">previous</text>
</g>
<!-- http://purl.org/dj/kaggle/mesonet&#45;result#1725503857 -->
<g id="node11" class="node">
<title>http://purl.org/dj/kaggle/mesonet&#45;result#1725503857</title>
<ellipse fill="none" stroke="black" cx="2502.73" cy="-105" rx="337.94" ry="18"/>
<text text-anchor="middle" x="2502.73" y="-101.3" font-family="Times,serif" font-size="14.00">1725503857 (/kaggle/input/deepfake&#45;detection&#45;challenge/sample_submission.csv(0): Reuse)</text>
</g>
<!-- http://purl.org/dj/kaggle/mesonet&#45;result#1296762571&#45;&gt;http://purl.org/dj/kaggle/mesonet&#45;result#1725503857 -->
<g id="edge14" class="edge">
<title>http://purl.org/dj/kaggle/mesonet&#45;result#1296762571&#45;&gt;http://purl.org/dj/kaggle/mesonet&#45;result#1725503857</title>
<path fill="none" stroke="black" d="M2100.37,-196.36C2185.15,-177.32 2328.21,-145.19 2418.93,-124.82"/>
<polygon fill="black" stroke="black" points="2419.92,-128.19 2428.91,-122.58 2418.38,-121.36 2419.92,-128.19"/>
<text text-anchor="middle" x="2360.23" y="-155.3" font-family="Times,serif" font-size="14.00">previous</text>
</g>
<!-- http://purl.org/dj/kaggle/mesonet&#45;result#1725503857&#45;&gt;http://purl.org/dj/kaggle/mesonet&#45;result -->
<g id="edge15" class="edge">
<title>http://purl.org/dj/kaggle/mesonet&#45;result#1725503857&#45;&gt;http://purl.org/dj/kaggle/mesonet&#45;result</title>
<path fill="none" stroke="black" d="M2439.1,-87.31C2379.12,-71.57 2290.19,-48.24 2233.35,-33.33"/>
<polygon fill="black" stroke="black" points="2234.03,-29.89 2223.47,-30.74 2232.25,-36.66 2234.03,-29.89"/>
<text text-anchor="middle" x="2384.23" y="-57.8" font-family="Times,serif" font-size="14.00">previous</text>
</g>
<!-- http://purl.org/dj/kaggle/mesonet&#45;result#29950131 -->
<g id="node12" class="node">
<title>http://purl.org/dj/kaggle/mesonet&#45;result#29950131</title>
<ellipse fill="none" stroke="black" cx="2555.73" cy="-159" rx="94.78" ry="18"/>
<text text-anchor="middle" x="2555.73" y="-155.3" font-family="Times,serif" font-size="14.00">29950131 (1(0): Reuse)</text>
</g>
<!-- http://purl.org/dj/kaggle/mesonet&#45;result#29950131&#45;&gt;http://purl.org/dj/kaggle/mesonet&#45;result -->
<g id="edge16" class="edge">
<title>http://purl.org/dj/kaggle/mesonet&#45;result#29950131&#45;&gt;http://purl.org/dj/kaggle/mesonet&#45;result</title>
<path fill="none" stroke="black" d="M2645.68,-153.24C2727.07,-147.99 2836.23,-138.21 2849.73,-123 2860.35,-111.04 2860.46,-98.87 2849.73,-87 2810.15,-43.21 2416.58,-26.21 2251.26,-20.97"/>
<polygon fill="black" stroke="black" points="2251.29,-17.47 2241.18,-20.66 2251.07,-24.47 2251.29,-17.47"/>
<text text-anchor="middle" x="2882.23" y="-101.3" font-family="Times,serif" font-size="14.00">previous</text>
</g>
<!-- http://purl.org/dj/kaggle/mesonet&#45;result#1296828108 -->
<g id="node13" class="node">
<title>http://purl.org/dj/kaggle/mesonet&#45;result#1296828108</title>
<ellipse fill="none" stroke="black" cx="2205.73" cy="-408" rx="181.17" ry="18"/>
<text text-anchor="middle" x="2205.73" y="-404.3" font-family="Times,serif" font-size="14.00">1296828108 (submission_ori(0)$1: Preparation)</text>
</g>
<!-- http://purl.org/dj/kaggle/mesonet&#45;result#1296828108&#45;&gt;http://purl.org/dj/kaggle/mesonet&#45;result#427361219 -->
<g id="edge17" class="edge">
<title>http://purl.org/dj/kaggle/mesonet&#45;result#1296828108&#45;&gt;http://purl.org/dj/kaggle/mesonet&#45;result#427361219</title>
<path fill="none" stroke="black" d="M2085.16,-394.51C1826.23,-367.69 1220.45,-304.95 972.48,-279.26"/>
<polygon fill="black" stroke="black" points="972.68,-275.77 962.37,-278.22 971.96,-282.73 972.68,-275.77"/>
<text text-anchor="middle" x="1890.23" y="-360.8" font-family="Times,serif" font-size="14.00">previous</text>
</g>
<!-- http://purl.org/dj/kaggle/mesonet&#45;result#1296828108&#45;&gt;http://purl.org/dj/kaggle/mesonet&#45;result#1296762571 -->
<g id="edge18" class="edge">
<title>http://purl.org/dj/kaggle/mesonet&#45;result#1296828108&#45;&gt;http://purl.org/dj/kaggle/mesonet&#45;result#1296762571</title>
<path fill="none" stroke="black" d="M2190.2,-389.87C2159.07,-355.54 2088.93,-278.18 2052.94,-238.5"/>
<polygon fill="black" stroke="black" points="2055.53,-236.15 2046.22,-231.09 2050.35,-240.85 2055.53,-236.15"/>
<text text-anchor="middle" x="2165.23" y="-317.3" font-family="Times,serif" font-size="14.00">previous</text>
</g>
<!-- http://purl.org/dj/kaggle/mesonet&#45;result#1296828108&#45;&gt;http://purl.org/dj/kaggle/mesonet&#45;result#29950131 -->
<g id="edge19" class="edge">
<title>http://purl.org/dj/kaggle/mesonet&#45;result#1296828108&#45;&gt;http://purl.org/dj/kaggle/mesonet&#45;result#29950131</title>
<path fill="none" stroke="black" d="M2229.79,-390.02C2291.25,-346.65 2454.1,-231.72 2523.58,-182.69"/>
<polygon fill="black" stroke="black" points="2525.81,-185.4 2531.97,-176.77 2521.78,-179.68 2525.81,-185.4"/>
<text text-anchor="middle" x="2376.23" y="-317.3" font-family="Times,serif" font-size="14.00">previous</text>
</g>
<!-- http://purl.org/dj/kaggle/mesonet&#45;result#218432130 -->
<g id="node14" class="node">
<title>http://purl.org/dj/kaggle/mesonet&#45;result#218432130</title>
<ellipse fill="none" stroke="black" cx="2767.73" cy="-267" rx="112.38" ry="18"/>
<text text-anchor="middle" x="2767.73" y="-263.3" font-family="Times,serif" font-size="14.00">218432130 (label(0): Reuse)</text>
</g>
<!-- http://purl.org/dj/kaggle/mesonet&#45;result#1296828108&#45;&gt;http://purl.org/dj/kaggle/mesonet&#45;result#218432130 -->
<g id="edge20" class="edge">
<title>http://purl.org/dj/kaggle/mesonet&#45;result#1296828108&#45;&gt;http://purl.org/dj/kaggle/mesonet&#45;result#218432130</title>
<path fill="none" stroke="black" d="M2269.92,-391.12C2376.75,-364.7 2590.06,-311.94 2699.5,-284.87"/>
<polygon fill="black" stroke="black" points="2700.58,-288.21 2709.44,-282.42 2698.89,-281.42 2700.58,-288.21"/>
<text text-anchor="middle" x="2427.23" y="-360.8" font-family="Times,serif" font-size="14.00">previous</text>
</g>
<!-- http://purl.org/dj/kaggle/mesonet&#45;result#226230936 -->
<g id="node15" class="node">
<title>http://purl.org/dj/kaggle/mesonet&#45;result#226230936</title>
<ellipse fill="none" stroke="black" cx="3113.73" cy="-159" rx="110.48" ry="18"/>
<text text-anchor="middle" x="3113.73" y="-155.3" font-family="Times,serif" font-size="14.00">226230936 (float(0): Reuse)</text>
</g>
<!-- http://purl.org/dj/kaggle/mesonet&#45;result#1296828108&#45;&gt;http://purl.org/dj/kaggle/mesonet&#45;result#226230936 -->
<g id="edge21" class="edge">
<title>http://purl.org/dj/kaggle/mesonet&#45;result#1296828108&#45;&gt;http://purl.org/dj/kaggle/mesonet&#45;result#226230936</title>
<path fill="none" stroke="black" d="M2345.53,-396.47C2486.27,-382.56 2707.85,-351.53 2888.73,-285 2961.36,-258.28 3038.69,-210.51 3081.13,-182.39"/>
<polygon fill="black" stroke="black" points="3083.27,-185.17 3089.64,-176.71 3079.38,-179.35 3083.27,-185.17"/>
<text text-anchor="middle" x="2856.23" y="-317.3" font-family="Times,serif" font-size="14.00">previous</text>
</g>
<!-- http://purl.org/dj/kaggle/mesonet&#45;result#800392483 -->
<g id="node16" class="node">
<title>http://purl.org/dj/kaggle/mesonet&#45;result#800392483</title>
<ellipse fill="none" stroke="black" cx="1882.73" cy="-321" rx="143.77" ry="18"/>
<text text-anchor="middle" x="1882.73" y="-317.3" font-family="Times,serif" font-size="14.00">800392483 (submission(0)$1: Reuse)</text>
</g>
<!-- http://purl.org/dj/kaggle/mesonet&#45;result#1296828108&#45;&gt;http://purl.org/dj/kaggle/mesonet&#45;result#800392483 -->
<g id="edge22" class="edge">
<title>http://purl.org/dj/kaggle/mesonet&#45;result#1296828108&#45;&gt;http://purl.org/dj/kaggle/mesonet&#45;result#800392483</title>
<path fill="none" stroke="black" d="M2126.05,-391.73C2098.85,-386.09 2068.34,-379.28 2040.73,-372 2006.74,-363.04 1969.2,-351.24 1939.24,-341.36"/>
<polygon fill="black" stroke="black" points="1939.99,-337.91 1929.39,-338.08 1937.78,-344.56 1939.99,-337.91"/>
<text text-anchor="middle" x="2064.23" y="-360.8" font-family="Times,serif" font-size="14.00">previous</text>
</g>
<!-- http://purl.org/dj/kaggle/mesonet&#45;result#218432130&#45;&gt;http://purl.org/dj/kaggle/mesonet&#45;result -->
<g id="edge23" class="edge">
<title>http://purl.org/dj/kaggle/mesonet&#45;result#218432130&#45;&gt;http://purl.org/dj/kaggle/mesonet&#45;result</title>
<path fill="none" stroke="black" d="M2798.18,-249.61C2852.49,-218.27 2956.2,-147.59 2909.73,-87 2870.13,-35.38 2428.77,-22.85 2251.64,-19.89"/>
<polygon fill="black" stroke="black" points="2251.68,-16.39 2241.63,-19.72 2251.57,-23.39 2251.68,-16.39"/>
<text text-anchor="middle" x="2941.23" y="-155.3" font-family="Times,serif" font-size="14.00">previous</text>
</g>
<!-- http://purl.org/dj/kaggle/mesonet&#45;result#226230936&#45;&gt;http://purl.org/dj/kaggle/mesonet&#45;result -->
<g id="edge24" class="edge">
<title>http://purl.org/dj/kaggle/mesonet&#45;result#226230936&#45;&gt;http://purl.org/dj/kaggle/mesonet&#45;result</title>
<path fill="none" stroke="black" d="M3047.45,-144.49C3033.02,-139.41 3018.55,-132.47 3006.73,-123 2978.89,-100.7 2996.33,-72.33 2965.73,-54 2905.52,-17.95 2435.99,-17.21 2252.17,-18.33"/>
<polygon fill="black" stroke="black" points="2252.03,-14.83 2242.05,-18.4 2252.08,-21.83 2252.03,-14.83"/>
<text text-anchor="middle" x="3030.23" y="-101.3" font-family="Times,serif" font-size="14.00">previous</text>
</g>
<!-- http://purl.org/dj/kaggle/mesonet&#45;result#800392483&#45;&gt;http://purl.org/dj/kaggle/mesonet&#45;result#800326946 -->
<g id="edge25" class="edge">
<title>http://purl.org/dj/kaggle/mesonet&#45;result#800392483&#45;&gt;http://purl.org/dj/kaggle/mesonet&#45;result#800326946</title>
<path fill="none" stroke="black" d="M1838.52,-303.79C1787.36,-285.02 1703.09,-254.11 1648,-233.91"/>
<polygon fill="black" stroke="black" points="1649,-230.54 1638.41,-230.39 1646.59,-237.12 1649,-230.54"/>
<text text-anchor="middle" x="1805.23" y="-263.3" font-family="Times,serif" font-size="14.00">previous</text>
</g>
<!-- http://purl.org/dj/kaggle/mesonet&#45;result#83689828 -->
<g id="node17" class="node">
<title>http://purl.org/dj/kaggle/mesonet&#45;result#83689828</title>
<ellipse fill="none" stroke="black" cx="3161.73" cy="-105" rx="98.58" ry="18"/>
<text text-anchor="middle" x="3161.73" y="-101.3" font-family="Times,serif" font-size="14.00">83689828 (os(0): Reuse)</text>
</g>
<!-- http://purl.org/dj/kaggle/mesonet&#45;result#83689828&#45;&gt;http://purl.org/dj/kaggle/mesonet&#45;result -->
<g id="edge26" class="edge">
<title>http://purl.org/dj/kaggle/mesonet&#45;result#83689828&#45;&gt;http://purl.org/dj/kaggle/mesonet&#45;result</title>
<path fill="none" stroke="black" d="M3124.28,-88.25C3094.39,-76.49 3051.15,-61.25 3011.73,-54 2867.09,-27.4 2427.24,-20.98 2251.95,-19.46"/>
<polygon fill="black" stroke="black" points="2251.83,-15.96 2241.8,-19.37 2251.77,-22.96 2251.83,-15.96"/>
<text text-anchor="middle" x="3089.23" y="-57.8" font-family="Times,serif" font-size="14.00">previous</text>
</g>
<!-- http://purl.org/dj/python/lib/111084090 -->
<g id="node18" class="node">
<title>http://purl.org/dj/python/lib/111084090</title>
<ellipse fill="none" stroke="black" cx="3388.73" cy="-105" rx="109.68" ry="18"/>
<text text-anchor="middle" x="3388.73" y="-101.3" font-family="Times,serif" font-size="14.00">111084090 (numpy: Reuse)</text>
</g>
<!-- http://purl.org/dj/python/lib/111084090&#45;&gt;http://purl.org/dj/kaggle/mesonet&#45;result -->
<g id="edge27" class="edge">
<title>http://purl.org/dj/python/lib/111084090&#45;&gt;http://purl.org/dj/kaggle/mesonet&#45;result</title>
<path fill="none" stroke="black" d="M3327.26,-90.07C3272.37,-78.27 3189.63,-62.02 3116.73,-54 2949.52,-35.61 2441.96,-24.12 2251.75,-20.36"/>
<polygon fill="black" stroke="black" points="2251.65,-16.86 2241.58,-20.16 2251.51,-23.86 2251.65,-16.86"/>
<text text-anchor="middle" x="3237.23" y="-57.8" font-family="Times,serif" font-size="14.00">previous</text>
</g>
<!-- http://purl.org/dj/kaggle/mesonet&#45;result#1048512072 -->
<g id="node19" class="node">
<title>http://purl.org/dj/kaggle/mesonet&#45;result#1048512072</title>
<ellipse fill="none" stroke="black" cx="3669.73" cy="-105" rx="153.27" ry="18"/>
<text text-anchor="middle" x="3669.73" y="-101.3" font-family="Times,serif" font-size="14.00">1048512072 (submission.csv(0): Reuse)</text>
</g>
<!-- http://purl.org/dj/kaggle/mesonet&#45;result#1048512072&#45;&gt;http://purl.org/dj/kaggle/mesonet&#45;result -->
<g id="edge28" class="edge">
<title>http://purl.org/dj/kaggle/mesonet&#45;result#1048512072&#45;&gt;http://purl.org/dj/kaggle/mesonet&#45;result</title>
<path fill="none" stroke="black" d="M3579.09,-90.42C3497.16,-78.72 3373.15,-62.42 3264.73,-54 2884.41,-24.46 2427.29,-19.75 2252.02,-19.07"/>
<polygon fill="black" stroke="black" points="2251.89,-15.57 2241.88,-19.04 2251.87,-22.57 2251.89,-15.57"/>
<text text-anchor="middle" x="3433.23" y="-57.8" font-family="Times,serif" font-size="14.00">previous</text>
</g>
<!-- http://purl.org/dj/kaggle/mesonet&#45;result#1296893645 -->
<g id="node20" class="node">
<title>http://purl.org/dj/kaggle/mesonet&#45;result#1296893645</title>
<ellipse fill="none" stroke="black" cx="2205.73" cy="-495" rx="162.47" ry="18"/>
<text text-anchor="middle" x="2205.73" y="-491.3" font-family="Times,serif" font-size="14.00">1296893645 (submission_ori(0)$2: Reuse)</text>
</g>
<!-- http://purl.org/dj/kaggle/mesonet&#45;result#1296893645&#45;&gt;http://purl.org/dj/kaggle/mesonet&#45;result#1296828108 -->
<g id="edge29" class="edge">
<title>http://purl.org/dj/kaggle/mesonet&#45;result#1296893645&#45;&gt;http://purl.org/dj/kaggle/mesonet&#45;result#1296828108</title>
<path fill="none" stroke="black" d="M2205.73,-476.8C2205.73,-465.16 2205.73,-449.55 2205.73,-436.24"/>
<polygon fill="black" stroke="black" points="2209.23,-436.18 2205.73,-426.18 2202.23,-436.18 2209.23,-436.18"/>
<text text-anchor="middle" x="2229.23" y="-447.8" font-family="Times,serif" font-size="14.00">previous</text>
</g>
</g>
</svg>
