<?xml version="1.0" encoding="UTF-8" standalone="no"?>
<!DOCTYPE svg PUBLIC "-//W3C//DTD SVG 1.1//EN"
 "http://www.w3.org/Graphics/SVG/1.1/DTD/svg11.dtd">
<!-- Generated by graphviz version 2.47.1 (20210417.1919)
 -->
<!-- Pages: 1 -->
<svg width="3152pt" height="650pt"
 viewBox="0.00 0.00 3151.81 650.00" xmlns="http://www.w3.org/2000/svg" xmlns:xlink="http://www.w3.org/1999/xlink">
<g id="graph0" class="graph" transform="scale(1 1) rotate(0) translate(4 646)">
<polygon fill="white" stroke="transparent" points="-4,4 -4,-646 3147.81,-646 3147.81,4 -4,4"/>
<!-- http://purl.org/dj/kaggle/mesonet&#45;result#1725503857 -->
<g id="node1" class="node">
<title>http://purl.org/dj/kaggle/mesonet&#45;result#1725503857</title>
<ellipse fill="none" stroke="black" cx="337.97" cy="-159" rx="337.94" ry="18"/>
<text text-anchor="middle" x="337.97" y="-155.3" font-family="Times,serif" font-size="14.00">1725503857 (/kaggle/input/deepfake&#45;detection&#45;challenge/sample_submission.csv(0): Reuse)</text>
</g>
<!-- http://purl.org/dj/kaggle/mesonet&#45;result -->
<g id="node2" class="node">
<title>http://purl.org/dj/kaggle/mesonet&#45;result</title>
<ellipse fill="none" stroke="black" cx="2257.97" cy="-18" rx="145.67" ry="18"/>
<text text-anchor="middle" x="2257.97" y="-14.3" font-family="Times,serif" font-size="14.00">mesonet&#45;result (mesonet&#45;result.ipynb)</text>
</g>
<!-- http://purl.org/dj/kaggle/mesonet&#45;result#1725503857&#45;&gt;http://purl.org/dj/kaggle/mesonet&#45;result -->
<g id="edge1" class="edge">
<title>http://purl.org/dj/kaggle/mesonet&#45;result#1725503857&#45;&gt;http://purl.org/dj/kaggle/mesonet&#45;result</title>
<path fill="none" stroke="black" d="M364.39,-141.02C391.18,-124.6 434.37,-100.32 474.97,-87 564.74,-57.55 590.87,-62.4 684.97,-54 956.68,-29.74 1761.91,-22.03 2102.77,-19.81"/>
<polygon fill="black" stroke="black" points="2102.99,-23.31 2112.97,-19.75 2102.94,-16.31 2102.99,-23.31"/>
<text text-anchor="middle" x="507.97" y="-101.3" font-family="Times,serif" font-size="14.00">appearsIn ()</text>
</g>
<!-- http://purl.org/dj/kaggle/mesonet&#45;result#800392483 -->
<g id="node3" class="node">
<title>http://purl.org/dj/kaggle/mesonet&#45;result#800392483</title>
<ellipse fill="none" stroke="black" cx="2065.97" cy="-429" rx="143.77" ry="18"/>
<text text-anchor="middle" x="2065.97" y="-425.3" font-family="Times,serif" font-size="14.00">800392483 (submission(0)$1: Reuse)</text>
</g>
<!-- http://purl.org/dj/kaggle/mesonet&#45;result#427361219 -->
<g id="node4" class="node">
<title>http://purl.org/dj/kaggle/mesonet&#45;result#427361219</title>
<ellipse fill="none" stroke="black" cx="2156.97" cy="-267" rx="126.18" ry="18"/>
<text text-anchor="middle" x="2156.97" y="-263.3" font-family="Times,serif" font-size="14.00">427361219 (filename(0): Reuse)</text>
</g>
<!-- http://purl.org/dj/kaggle/mesonet&#45;result#800392483&#45;&gt;http://purl.org/dj/kaggle/mesonet&#45;result#427361219 -->
<g id="edge2" class="edge">
<title>http://purl.org/dj/kaggle/mesonet&#45;result#800392483&#45;&gt;http://purl.org/dj/kaggle/mesonet&#45;result#427361219</title>
<path fill="none" stroke="black" d="M2060.83,-410.89C2057.32,-396.02 2054.51,-374.22 2061.97,-357 2073.95,-329.36 2099.21,-306.37 2120.68,-290.69"/>
<polygon fill="black" stroke="black" points="2122.83,-293.45 2128.98,-284.83 2118.79,-287.73 2122.83,-293.45"/>
<text text-anchor="middle" x="2099.47" y="-371.3" font-family="Times,serif" font-size="14.00">sort_values ()</text>
</g>
<!-- http://purl.org/dj/kaggle/mesonet&#45;result#800326946 -->
<g id="node5" class="node">
<title>http://purl.org/dj/kaggle/mesonet&#45;result#800326946</title>
<ellipse fill="none" stroke="black" cx="1560.97" cy="-321" rx="161.37" ry="18"/>
<text text-anchor="middle" x="1560.97" y="-317.3" font-family="Times,serif" font-size="14.00">800326946 (submission(0)$0: Movement)</text>
</g>
<!-- http://purl.org/dj/kaggle/mesonet&#45;result#800392483&#45;&gt;http://purl.org/dj/kaggle/mesonet&#45;result#800326946 -->
<g id="edge3" class="edge">
<title>http://purl.org/dj/kaggle/mesonet&#45;result#800392483&#45;&gt;http://purl.org/dj/kaggle/mesonet&#45;result#800326946</title>
<path fill="none" stroke="black" d="M1995.75,-413.26C1903.26,-393.85 1740.9,-359.77 1642.9,-339.2"/>
<polygon fill="black" stroke="black" points="1643.54,-335.76 1633.04,-337.13 1642.11,-342.61 1643.54,-335.76"/>
<text text-anchor="middle" x="1926.47" y="-371.3" font-family="Times,serif" font-size="14.00">sort_values ()</text>
</g>
<!-- http://purl.org/dj/kaggle/mesonet&#45;result#427361219&#45;&gt;http://purl.org/dj/kaggle/mesonet&#45;result -->
<g id="edge4" class="edge">
<title>http://purl.org/dj/kaggle/mesonet&#45;result#427361219&#45;&gt;http://purl.org/dj/kaggle/mesonet&#45;result</title>
<path fill="none" stroke="black" d="M2164.65,-249.02C2172.66,-231.18 2185.49,-202.24 2195.97,-177 2215.03,-131.08 2235.9,-77.05 2247.91,-45.55"/>
<polygon fill="black" stroke="black" points="2251.2,-46.75 2251.49,-36.16 2244.66,-44.26 2251.2,-46.75"/>
<text text-anchor="middle" x="2243.97" y="-155.3" font-family="Times,serif" font-size="14.00">appearsIn ()</text>
</g>
<!-- http://purl.org/dj/kaggle/mesonet&#45;result#80085334 -->
<g id="node6" class="node">
<title>http://purl.org/dj/kaggle/mesonet&#45;result#80085334</title>
<ellipse fill="none" stroke="black" cx="709.97" cy="-213" rx="99.38" ry="18"/>
<text text-anchor="middle" x="709.97" y="-209.3" font-family="Times,serif" font-size="14.00">80085334 (pd(0): Reuse)</text>
</g>
<!-- http://purl.org/dj/kaggle/mesonet&#45;result#800326946&#45;&gt;http://purl.org/dj/kaggle/mesonet&#45;result#80085334 -->
<g id="edge5" class="edge">
<title>http://purl.org/dj/kaggle/mesonet&#45;result#800326946&#45;&gt;http://purl.org/dj/kaggle/mesonet&#45;result#80085334</title>
<path fill="none" stroke="black" d="M1479.51,-305.4C1389.55,-289.69 1240.31,-264.83 1110.97,-249 1009.36,-236.57 892.74,-226.9 811.55,-220.91"/>
<polygon fill="black" stroke="black" points="811.56,-217.4 801.34,-220.16 811.05,-224.38 811.56,-217.4"/>
<text text-anchor="middle" x="1387.47" y="-263.3" font-family="Times,serif" font-size="14.00">read_csv ()</text>
</g>
<!-- http://purl.org/dj/kaggle/mesonet&#45;result#122100777 -->
<g id="node7" class="node">
<title>http://purl.org/dj/kaggle/mesonet&#45;result#122100777</title>
<ellipse fill="none" stroke="black" cx="1316.97" cy="-159" rx="408.63" ry="18"/>
<text text-anchor="middle" x="1316.97" y="-155.3" font-family="Times,serif" font-size="14.00">122100777 ([&lt;_ast.Constant object at 0x7fd4c048e880&gt;, &lt;_ast.Constant object at 0x7fd4c048efa0&gt;](0): Reuse)</text>
</g>
<!-- http://purl.org/dj/kaggle/mesonet&#45;result#800326946&#45;&gt;http://purl.org/dj/kaggle/mesonet&#45;result#122100777 -->
<g id="edge6" class="edge">
<title>http://purl.org/dj/kaggle/mesonet&#45;result#800326946&#45;&gt;http://purl.org/dj/kaggle/mesonet&#45;result#122100777</title>
<path fill="none" stroke="black" d="M1535.32,-303.18C1491.23,-274.27 1401.04,-215.12 1351.48,-182.63"/>
<polygon fill="black" stroke="black" points="1353.29,-179.63 1343.01,-177.08 1349.46,-185.49 1353.29,-179.63"/>
<text text-anchor="middle" x="1534.47" y="-263.3" font-family="Times,serif" font-size="14.00">read_csv ()</text>
</g>
<!-- http://purl.org/dj/kaggle/mesonet&#45;result#848498283 -->
<g id="node8" class="node">
<title>http://purl.org/dj/kaggle/mesonet&#45;result#848498283</title>
<ellipse fill="none" stroke="black" cx="1962.97" cy="-159" rx="232.06" ry="18"/>
<text text-anchor="middle" x="1962.97" y="-155.3" font-family="Times,serif" font-size="14.00">848498283 (/kaggle/input/submit&#45;dfdc/submit2.csv(0): Reuse)</text>
</g>
<!-- http://purl.org/dj/kaggle/mesonet&#45;result#800326946&#45;&gt;http://purl.org/dj/kaggle/mesonet&#45;result#848498283 -->
<g id="edge7" class="edge">
<title>http://purl.org/dj/kaggle/mesonet&#45;result#800326946&#45;&gt;http://purl.org/dj/kaggle/mesonet&#45;result#848498283</title>
<path fill="none" stroke="black" d="M1602.48,-303.48C1676.4,-274.06 1830.67,-212.66 1911.32,-180.56"/>
<polygon fill="black" stroke="black" points="1912.79,-183.74 1920.78,-176.79 1910.2,-177.24 1912.79,-183.74"/>
<text text-anchor="middle" x="1767.47" y="-263.3" font-family="Times,serif" font-size="14.00">read_csv ()</text>
</g>
<!-- http://purl.org/dj/kaggle/mesonet&#45;result#80085334&#45;&gt;http://purl.org/dj/kaggle/mesonet&#45;result -->
<g id="edge8" class="edge">
<title>http://purl.org/dj/kaggle/mesonet&#45;result#80085334&#45;&gt;http://purl.org/dj/kaggle/mesonet&#45;result</title>
<path fill="none" stroke="black" d="M759.39,-197.22C769.93,-192.19 780.2,-185.59 787.97,-177 816.26,-145.73 790.34,-118.85 817.97,-87 839.46,-62.22 852.15,-61.94 883.97,-54 999.29,-25.22 1767.43,-20.04 2102.34,-19.15"/>
<polygon fill="black" stroke="black" points="2102.61,-22.65 2112.6,-19.13 2102.6,-15.65 2102.61,-22.65"/>
<text text-anchor="middle" x="850.97" y="-101.3" font-family="Times,serif" font-size="14.00">appearsIn ()</text>
</g>
<!-- http://purl.org/dj/python/lib/144966264 -->
<g id="node9" class="node">
<title>http://purl.org/dj/python/lib/144966264</title>
<ellipse fill="none" stroke="black" cx="658.97" cy="-105" rx="109.38" ry="18"/>
<text text-anchor="middle" x="658.97" y="-101.3" font-family="Times,serif" font-size="14.00">144966264 (pandas: Reuse)</text>
</g>
<!-- http://purl.org/dj/kaggle/mesonet&#45;result#80085334&#45;&gt;http://purl.org/dj/python/lib/144966264 -->
<g id="edge9" class="edge">
<title>http://purl.org/dj/kaggle/mesonet&#45;result#80085334&#45;&gt;http://purl.org/dj/python/lib/144966264</title>
<path fill="none" stroke="black" d="M702.29,-194.98C695.72,-180.54 685.93,-159.31 676.97,-141 675.53,-138.05 673.99,-134.98 672.45,-131.94"/>
<polygon fill="black" stroke="black" points="675.56,-130.33 667.9,-123.02 669.33,-133.52 675.56,-130.33"/>
<text text-anchor="middle" x="738.97" y="-155.3" font-family="Times,serif" font-size="14.00">assignedFrom ()</text>
</g>
<!-- http://purl.org/dj/kaggle/mesonet&#45;result#122100777&#45;&gt;http://purl.org/dj/kaggle/mesonet&#45;result -->
<g id="edge21" class="edge">
<title>http://purl.org/dj/kaggle/mesonet&#45;result#122100777&#45;&gt;http://purl.org/dj/kaggle/mesonet&#45;result</title>
<path fill="none" stroke="black" d="M1427.68,-141.65C1612.48,-114.35 1980.94,-59.92 2158.19,-33.74"/>
<polygon fill="black" stroke="black" points="2158.91,-37.17 2168.29,-32.25 2157.89,-30.25 2158.91,-37.17"/>
<text text-anchor="middle" x="1820.97" y="-101.3" font-family="Times,serif" font-size="14.00">appearsIn ()</text>
</g>
<!-- http://purl.org/dj/kaggle/mesonet&#45;result#848498283&#45;&gt;http://purl.org/dj/kaggle/mesonet&#45;result -->
<g id="edge22" class="edge">
<title>http://purl.org/dj/kaggle/mesonet&#45;result#848498283&#45;&gt;http://purl.org/dj/kaggle/mesonet&#45;result</title>
<path fill="none" stroke="black" d="M1998.85,-141.09C2052.81,-115.67 2154.78,-67.62 2213.42,-39.99"/>
<polygon fill="black" stroke="black" points="2215.25,-43 2222.8,-35.57 2212.26,-36.67 2215.25,-43"/>
<text text-anchor="middle" x="2143.97" y="-101.3" font-family="Times,serif" font-size="14.00">appearsIn ()</text>
</g>
<!-- http://purl.org/dj/python/lib/144966264&#45;&gt;http://purl.org/dj/kaggle/mesonet&#45;result -->
<g id="edge10" class="edge">
<title>http://purl.org/dj/python/lib/144966264&#45;&gt;http://purl.org/dj/kaggle/mesonet&#45;result</title>
<path fill="none" stroke="black" d="M671.35,-86.65C680.75,-75.06 694.78,-60.73 710.97,-54 774.34,-27.64 1722.61,-21.06 2102.41,-19.48"/>
<polygon fill="black" stroke="black" points="2102.66,-22.98 2112.65,-19.44 2102.63,-15.98 2102.66,-22.98"/>
<text text-anchor="middle" x="750.47" y="-57.8" font-family="Times,serif" font-size="14.00">importedBy ()</text>
</g>
<!-- http://purl.org/dj/kaggle/mesonet&#45;result#1296828108 -->
<g id="node10" class="node">
<title>http://purl.org/dj/kaggle/mesonet&#45;result#1296828108</title>
<ellipse fill="none" stroke="black" cx="2208.97" cy="-537" rx="181.17" ry="18"/>
<text text-anchor="middle" x="2208.97" y="-533.3" font-family="Times,serif" font-size="14.00">1296828108 (submission_ori(0)$1: Preparation)</text>
</g>
<!-- http://purl.org/dj/kaggle/mesonet&#45;result#1296828108&#45;&gt;http://purl.org/dj/kaggle/mesonet&#45;result#800392483 -->
<g id="edge11" class="edge">
<title>http://purl.org/dj/kaggle/mesonet&#45;result#1296828108&#45;&gt;http://purl.org/dj/kaggle/mesonet&#45;result#800392483</title>
<path fill="none" stroke="black" d="M2185.99,-518.97C2161.92,-501.12 2123.93,-472.97 2097.16,-453.12"/>
<polygon fill="black" stroke="black" points="2099.01,-450.13 2088.89,-446.99 2094.84,-455.76 2099.01,-450.13"/>
<text text-anchor="middle" x="2175.97" y="-479.3" font-family="Times,serif" font-size="14.00">Sub ()</text>
</g>
<!-- http://purl.org/dj/kaggle/mesonet&#45;result#218432130 -->
<g id="node11" class="node">
<title>http://purl.org/dj/kaggle/mesonet&#45;result#218432130</title>
<ellipse fill="none" stroke="black" cx="2257.97" cy="-375" rx="112.38" ry="18"/>
<text text-anchor="middle" x="2257.97" y="-371.3" font-family="Times,serif" font-size="14.00">218432130 (label(0): Reuse)</text>
</g>
<!-- http://purl.org/dj/kaggle/mesonet&#45;result#1296828108&#45;&gt;http://purl.org/dj/kaggle/mesonet&#45;result#218432130 -->
<g id="edge12" class="edge">
<title>http://purl.org/dj/kaggle/mesonet&#45;result#1296828108&#45;&gt;http://purl.org/dj/kaggle/mesonet&#45;result#218432130</title>
<path fill="none" stroke="black" d="M2214.21,-518.88C2222.72,-491.09 2239.61,-435.96 2249.73,-402.9"/>
<polygon fill="black" stroke="black" points="2253.18,-403.59 2252.76,-393 2246.49,-401.54 2253.18,-403.59"/>
<text text-anchor="middle" x="2247.97" y="-479.3" font-family="Times,serif" font-size="14.00">Sub ()</text>
</g>
<!-- http://purl.org/dj/kaggle/mesonet&#45;result#29950131 -->
<g id="node12" class="node">
<title>http://purl.org/dj/kaggle/mesonet&#45;result#29950131</title>
<ellipse fill="none" stroke="black" cx="2408.97" cy="-159" rx="94.78" ry="18"/>
<text text-anchor="middle" x="2408.97" y="-155.3" font-family="Times,serif" font-size="14.00">29950131 (1(0): Reuse)</text>
</g>
<!-- http://purl.org/dj/kaggle/mesonet&#45;result#1296828108&#45;&gt;http://purl.org/dj/kaggle/mesonet&#45;result#29950131 -->
<g id="edge13" class="edge">
<title>http://purl.org/dj/kaggle/mesonet&#45;result#1296828108&#45;&gt;http://purl.org/dj/kaggle/mesonet&#45;result#29950131</title>
<path fill="none" stroke="black" d="M2292.36,-521.01C2341.04,-506.92 2392.97,-480.14 2392.97,-430 2392.97,-430 2392.97,-430 2392.97,-266 2392.97,-238.93 2398.13,-208.41 2402.59,-187.09"/>
<polygon fill="black" stroke="black" points="2406.05,-187.65 2404.77,-177.14 2399.21,-186.16 2406.05,-187.65"/>
<text text-anchor="middle" x="2409.97" y="-371.3" font-family="Times,serif" font-size="14.00">Sub ()</text>
</g>
<!-- http://purl.org/dj/kaggle/mesonet&#45;result#1296762571 -->
<g id="node13" class="node">
<title>http://purl.org/dj/kaggle/mesonet&#45;result#1296762571</title>
<ellipse fill="none" stroke="black" cx="709.97" cy="-321" rx="180.07" ry="18"/>
<text text-anchor="middle" x="709.97" y="-317.3" font-family="Times,serif" font-size="14.00">1296762571 (submission_ori(0)$0: Movement)</text>
</g>
<!-- http://purl.org/dj/kaggle/mesonet&#45;result#1296828108&#45;&gt;http://purl.org/dj/kaggle/mesonet&#45;result#1296762571 -->
<g id="edge14" class="edge">
<title>http://purl.org/dj/kaggle/mesonet&#45;result#1296828108&#45;&gt;http://purl.org/dj/kaggle/mesonet&#45;result#1296762571</title>
<path fill="none" stroke="black" d="M2027.77,-536.04C1713.1,-535.34 1089.89,-530.21 993.97,-501 888.56,-468.9 783.95,-386.58 736.45,-345.73"/>
<polygon fill="black" stroke="black" points="738.63,-342.99 728.79,-339.07 734.04,-348.28 738.63,-342.99"/>
<text text-anchor="middle" x="891.97" y="-425.3" font-family="Times,serif" font-size="14.00">Sub ()</text>
</g>
<!-- http://purl.org/dj/kaggle/mesonet&#45;result#226230936 -->
<g id="node14" class="node">
<title>http://purl.org/dj/kaggle/mesonet&#45;result#226230936</title>
<ellipse fill="none" stroke="black" cx="991.97" cy="-267" rx="110.48" ry="18"/>
<text text-anchor="middle" x="991.97" y="-263.3" font-family="Times,serif" font-size="14.00">226230936 (float(0): Reuse)</text>
</g>
<!-- http://purl.org/dj/kaggle/mesonet&#45;result#1296828108&#45;&gt;http://purl.org/dj/kaggle/mesonet&#45;result#226230936 -->
<g id="edge15" class="edge">
<title>http://purl.org/dj/kaggle/mesonet&#45;result#1296828108&#45;&gt;http://purl.org/dj/kaggle/mesonet&#45;result#226230936</title>
<path fill="none" stroke="black" d="M2137.83,-520.33C1923.01,-473.03 1282.33,-331.94 1065.01,-284.09"/>
<polygon fill="black" stroke="black" points="1065.51,-280.61 1054.99,-281.88 1064,-287.45 1065.51,-280.61"/>
<text text-anchor="middle" x="1813.97" y="-425.3" font-family="Times,serif" font-size="14.00">Sub ()</text>
</g>
<!-- http://purl.org/dj/kaggle/mesonet&#45;result#218432130&#45;&gt;http://purl.org/dj/kaggle/mesonet&#45;result -->
<g id="edge16" class="edge">
<title>http://purl.org/dj/kaggle/mesonet&#45;result#218432130&#45;&gt;http://purl.org/dj/kaggle/mesonet&#45;result</title>
<path fill="none" stroke="black" d="M2269.17,-356.79C2281.31,-336.44 2298.97,-301.15 2298.97,-268 2298.97,-268 2298.97,-268 2298.97,-104 2298.97,-82.43 2288.13,-60.57 2277.6,-44.42"/>
<polygon fill="black" stroke="black" points="2280.41,-42.33 2271.85,-36.08 2274.64,-46.3 2280.41,-42.33"/>
<text text-anchor="middle" x="2331.97" y="-209.3" font-family="Times,serif" font-size="14.00">appearsIn ()</text>
</g>
<!-- http://purl.org/dj/kaggle/mesonet&#45;result#29950131&#45;&gt;http://purl.org/dj/kaggle/mesonet&#45;result -->
<g id="edge17" class="edge">
<title>http://purl.org/dj/kaggle/mesonet&#45;result#29950131&#45;&gt;http://purl.org/dj/kaggle/mesonet&#45;result</title>
<path fill="none" stroke="black" d="M2395.53,-140.89C2377.96,-119.17 2345.59,-81.26 2312.97,-54 2307.66,-49.56 2301.75,-45.25 2295.83,-41.25"/>
<polygon fill="black" stroke="black" points="2297.5,-38.17 2287.21,-35.65 2293.68,-44.03 2297.5,-38.17"/>
<text text-anchor="middle" x="2413.97" y="-101.3" font-family="Times,serif" font-size="14.00">appearsIn ()</text>
</g>
<!-- http://purl.org/dj/kaggle/mesonet&#45;result#1296762571&#45;&gt;http://purl.org/dj/kaggle/mesonet&#45;result#1725503857 -->
<g id="edge18" class="edge">
<title>http://purl.org/dj/kaggle/mesonet&#45;result#1296762571&#45;&gt;http://purl.org/dj/kaggle/mesonet&#45;result#1725503857</title>
<path fill="none" stroke="black" d="M671.21,-303.33C602.95,-273.97 461.46,-213.11 386.7,-180.96"/>
<polygon fill="black" stroke="black" points="388.05,-177.73 377.48,-176.99 385.28,-184.16 388.05,-177.73"/>
<text text-anchor="middle" x="653.47" y="-263.3" font-family="Times,serif" font-size="14.00">read_csv ()</text>
</g>
<!-- http://purl.org/dj/kaggle/mesonet&#45;result#1296762571&#45;&gt;http://purl.org/dj/kaggle/mesonet&#45;result#80085334 -->
<g id="edge19" class="edge">
<title>http://purl.org/dj/kaggle/mesonet&#45;result#1296762571&#45;&gt;http://purl.org/dj/kaggle/mesonet&#45;result#80085334</title>
<path fill="none" stroke="black" d="M709.97,-302.97C709.97,-286.38 709.97,-260.88 709.97,-241.43"/>
<polygon fill="black" stroke="black" points="713.47,-241.34 709.97,-231.34 706.47,-241.34 713.47,-241.34"/>
<text text-anchor="middle" x="740.47" y="-263.3" font-family="Times,serif" font-size="14.00">read_csv ()</text>
</g>
<!-- http://purl.org/dj/kaggle/mesonet&#45;result#226230936&#45;&gt;http://purl.org/dj/kaggle/mesonet&#45;result -->
<g id="edge20" class="edge">
<title>http://purl.org/dj/kaggle/mesonet&#45;result#226230936&#45;&gt;http://purl.org/dj/kaggle/mesonet&#45;result</title>
<path fill="none" stroke="black" d="M943.88,-250.72C883.04,-229.01 790.94,-186.78 832.97,-141 875.98,-94.15 1763.08,-44.14 2115.47,-26.04"/>
<polygon fill="black" stroke="black" points="2115.68,-29.54 2125.49,-25.53 2115.32,-22.54 2115.68,-29.54"/>
<text text-anchor="middle" x="865.97" y="-155.3" font-family="Times,serif" font-size="14.00">appearsIn ()</text>
</g>
<!-- http://purl.org/dj/kaggle/mesonet&#45;result#1296893645 -->
<g id="node15" class="node">
<title>http://purl.org/dj/kaggle/mesonet&#45;result#1296893645</title>
<ellipse fill="none" stroke="black" cx="2408.97" cy="-624" rx="162.47" ry="18"/>
<text text-anchor="middle" x="2408.97" y="-620.3" font-family="Times,serif" font-size="14.00">1296893645 (submission_ori(0)$2: Reuse)</text>
</g>
<!-- http://purl.org/dj/kaggle/mesonet&#45;result#1296893645&#45;&gt;http://purl.org/dj/kaggle/mesonet&#45;result#1296828108 -->
<g id="edge23" class="edge">
<title>http://purl.org/dj/kaggle/mesonet&#45;result#1296893645&#45;&gt;http://purl.org/dj/kaggle/mesonet&#45;result#1296828108</title>
<path fill="none" stroke="black" d="M2369.93,-606.41C2337.83,-592.76 2292.16,-573.35 2257.66,-558.69"/>
<polygon fill="black" stroke="black" points="2258.82,-555.38 2248.25,-554.69 2256.08,-561.83 2258.82,-555.38"/>
<text text-anchor="middle" x="2345.47" y="-576.8" font-family="Times,serif" font-size="14.00">to_csv ()</text>
</g>
<!-- http://purl.org/dj/kaggle/mesonet&#45;result#1048512072 -->
<g id="node16" class="node">
<title>http://purl.org/dj/kaggle/mesonet&#45;result#1048512072</title>
<ellipse fill="none" stroke="black" cx="2560.97" cy="-483" rx="153.27" ry="18"/>
<text text-anchor="middle" x="2560.97" y="-479.3" font-family="Times,serif" font-size="14.00">1048512072 (submission.csv(0): Reuse)</text>
</g>
<!-- http://purl.org/dj/kaggle/mesonet&#45;result#1296893645&#45;&gt;http://purl.org/dj/kaggle/mesonet&#45;result#1048512072 -->
<g id="edge24" class="edge">
<title>http://purl.org/dj/kaggle/mesonet&#45;result#1296893645&#45;&gt;http://purl.org/dj/kaggle/mesonet&#45;result#1048512072</title>
<path fill="none" stroke="black" d="M2427.61,-605.96C2454.39,-581.47 2503.89,-536.2 2534.46,-508.24"/>
<polygon fill="black" stroke="black" points="2537.16,-510.51 2542.18,-501.18 2532.44,-505.35 2537.16,-510.51"/>
<text text-anchor="middle" x="2487.47" y="-576.8" font-family="Times,serif" font-size="14.00">to_csv ()</text>
</g>
<!-- http://purl.org/dj/kaggle/mesonet&#45;result#1048512072&#45;&gt;http://purl.org/dj/kaggle/mesonet&#45;result -->
<g id="edge25" class="edge">
<title>http://purl.org/dj/kaggle/mesonet&#45;result#1048512072&#45;&gt;http://purl.org/dj/kaggle/mesonet&#45;result</title>
<path fill="none" stroke="black" d="M2549.49,-464.82C2537.06,-444.51 2518.97,-409.26 2518.97,-376 2518.97,-376 2518.97,-376 2518.97,-212 2518.97,-148.76 2504.48,-120.71 2450.97,-87 2414.96,-64.32 2370.39,-47.97 2333.15,-37"/>
<polygon fill="black" stroke="black" points="2333.94,-33.59 2323.36,-34.19 2332,-40.31 2333.94,-33.59"/>
<text text-anchor="middle" x="2551.97" y="-263.3" font-family="Times,serif" font-size="14.00">appearsIn ()</text>
</g>
<!-- http://purl.org/dj/kaggle/mesonet&#45;result#83689828 -->
<g id="node17" class="node">
<title>http://purl.org/dj/kaggle/mesonet&#45;result#83689828</title>
<ellipse fill="none" stroke="black" cx="2680.97" cy="-213" rx="98.58" ry="18"/>
<text text-anchor="middle" x="2680.97" y="-209.3" font-family="Times,serif" font-size="14.00">83689828 (os(0): Reuse)</text>
</g>
<!-- http://purl.org/dj/kaggle/mesonet&#45;result#83689828&#45;&gt;http://purl.org/dj/kaggle/mesonet&#45;result -->
<g id="edge26" class="edge">
<title>http://purl.org/dj/kaggle/mesonet&#45;result#83689828&#45;&gt;http://purl.org/dj/kaggle/mesonet&#45;result</title>
<path fill="none" stroke="black" d="M2650.54,-195.86C2622.71,-180.02 2581.65,-153.8 2552.97,-123 2528.66,-96.89 2541.69,-73.72 2511.97,-54 2492.23,-40.91 2445.01,-32.65 2396.57,-27.47"/>
<polygon fill="black" stroke="black" points="2396.85,-23.98 2386.55,-26.45 2396.14,-30.95 2396.85,-23.98"/>
<text text-anchor="middle" x="2585.97" y="-101.3" font-family="Times,serif" font-size="14.00">appearsIn ()</text>
</g>
<!-- http://purl.org/dj/python/lib/22216931 -->
<g id="node18" class="node">
<title>http://purl.org/dj/python/lib/22216931</title>
<ellipse fill="none" stroke="black" cx="2715.97" cy="-105" rx="88.28" ry="18"/>
<text text-anchor="middle" x="2715.97" y="-101.3" font-family="Times,serif" font-size="14.00">22216931 (os: Reuse)</text>
</g>
<!-- http://purl.org/dj/kaggle/mesonet&#45;result#83689828&#45;&gt;http://purl.org/dj/python/lib/22216931 -->
<g id="edge27" class="edge">
<title>http://purl.org/dj/kaggle/mesonet&#45;result#83689828&#45;&gt;http://purl.org/dj/python/lib/22216931</title>
<path fill="none" stroke="black" d="M2686.59,-194.97C2692.16,-178.12 2700.75,-152.1 2707.21,-132.54"/>
<polygon fill="black" stroke="black" points="2710.55,-133.58 2710.36,-122.99 2703.9,-131.39 2710.55,-133.58"/>
<text text-anchor="middle" x="2748.97" y="-155.3" font-family="Times,serif" font-size="14.00">assignedFrom ()</text>
</g>
<!-- http://purl.org/dj/python/lib/22216931&#45;&gt;http://purl.org/dj/kaggle/mesonet&#45;result -->
<g id="edge28" class="edge">
<title>http://purl.org/dj/python/lib/22216931&#45;&gt;http://purl.org/dj/kaggle/mesonet&#45;result</title>
<path fill="none" stroke="black" d="M2675.62,-88.89C2644.03,-77.63 2598.76,-62.75 2557.97,-54 2503.42,-42.3 2442.4,-34.28 2389.7,-28.9"/>
<polygon fill="black" stroke="black" points="2389.92,-25.4 2379.62,-27.89 2389.22,-32.37 2389.92,-25.4"/>
<text text-anchor="middle" x="2655.47" y="-57.8" font-family="Times,serif" font-size="14.00">importedBy ()</text>
</g>
<!-- http://purl.org/dj/kaggle/mesonet&#45;result#82575712 -->
<g id="node19" class="node">
<title>http://purl.org/dj/kaggle/mesonet&#45;result#82575712</title>
<ellipse fill="none" stroke="black" cx="2964.97" cy="-213" rx="99.38" ry="18"/>
<text text-anchor="middle" x="2964.97" y="-209.3" font-family="Times,serif" font-size="14.00">82575712 (np(0): Reuse)</text>
</g>
<!-- http://purl.org/dj/kaggle/mesonet&#45;result#82575712&#45;&gt;http://purl.org/dj/kaggle/mesonet&#45;result -->
<g id="edge29" class="edge">
<title>http://purl.org/dj/kaggle/mesonet&#45;result#82575712&#45;&gt;http://purl.org/dj/kaggle/mesonet&#45;result</title>
<path fill="none" stroke="black" d="M2941.6,-195.46C2917.66,-178.2 2879.7,-149.94 2848.97,-123 2831.96,-108.08 2832.45,-98.51 2812.97,-87 2746.35,-47.64 2547.46,-30.93 2406.89,-23.93"/>
<polygon fill="black" stroke="black" points="2407.03,-20.43 2396.87,-23.44 2406.69,-27.42 2407.03,-20.43"/>
<text text-anchor="middle" x="2881.97" y="-101.3" font-family="Times,serif" font-size="14.00">appearsIn ()</text>
</g>
<!-- http://purl.org/dj/python/lib/111084090 -->
<g id="node20" class="node">
<title>http://purl.org/dj/python/lib/111084090</title>
<ellipse fill="none" stroke="black" cx="3033.97" cy="-105" rx="109.68" ry="18"/>
<text text-anchor="middle" x="3033.97" y="-101.3" font-family="Times,serif" font-size="14.00">111084090 (numpy: Reuse)</text>
</g>
<!-- http://purl.org/dj/kaggle/mesonet&#45;result#82575712&#45;&gt;http://purl.org/dj/python/lib/111084090 -->
<g id="edge30" class="edge">
<title>http://purl.org/dj/kaggle/mesonet&#45;result#82575712&#45;&gt;http://purl.org/dj/python/lib/111084090</title>
<path fill="none" stroke="black" d="M2976.06,-194.97C2987.22,-177.82 3004.58,-151.14 3017.39,-131.47"/>
<polygon fill="black" stroke="black" points="3020.39,-133.28 3022.91,-122.99 3014.52,-129.46 3020.39,-133.28"/>
<text text-anchor="middle" x="3053.97" y="-155.3" font-family="Times,serif" font-size="14.00">assignedFrom ()</text>
</g>
<!-- http://purl.org/dj/python/lib/111084090&#45;&gt;http://purl.org/dj/kaggle/mesonet&#45;result -->
<g id="edge31" class="edge">
<title>http://purl.org/dj/python/lib/111084090&#45;&gt;http://purl.org/dj/kaggle/mesonet&#45;result</title>
<path fill="none" stroke="black" d="M2988.7,-88.54C2952.66,-76.94 2900.68,-61.77 2853.97,-54 2705.79,-29.36 2534.37,-21.4 2413.52,-19.13"/>
<polygon fill="black" stroke="black" points="2413.51,-15.63 2403.45,-18.95 2413.38,-22.63 2413.51,-15.63"/>
<text text-anchor="middle" x="2958.47" y="-57.8" font-family="Times,serif" font-size="14.00">importedBy ()</text>
</g>
</g>
</svg>
