<?xml version="1.0" encoding="UTF-8" standalone="no"?>
<!DOCTYPE svg PUBLIC "-//W3C//DTD SVG 1.1//EN"
 "http://www.w3.org/Graphics/SVG/1.1/DTD/svg11.dtd">
<!-- Generated by graphviz version 2.44.1 (20200629.0846)
 -->
<!-- Pages: 1 -->
<svg width="3212pt" height="650pt"
 viewBox="0.00 0.00 3211.78 650.00" xmlns="http://www.w3.org/2000/svg" xmlns:xlink="http://www.w3.org/1999/xlink">
<g id="graph0" class="graph" transform="scale(1 1) rotate(0) translate(4 646)">
<polygon fill="white" stroke="transparent" points="-4,4 -4,-646 3207.78,-646 3207.78,4 -4,4"/>
<!-- http://purl.org/dj/python/lib/22216931 -->
<g id="node1" class="node">
<title>http://purl.org/dj/python/lib/22216931</title>
<ellipse fill="none" stroke="black" cx="88.39" cy="-105" rx="88.28" ry="18"/>
<text text-anchor="middle" x="88.39" y="-101.3" font-family="Times,serif" font-size="14.00">22216931 (os: Reuse)</text>
</g>
<!-- http://purl.org/dj/kaggle/mesonet&#45;result -->
<g id="node2" class="node">
<title>http://purl.org/dj/kaggle/mesonet&#45;result</title>
<ellipse fill="none" stroke="black" cx="2015.39" cy="-18" rx="63.09" ry="18"/>
<text text-anchor="middle" x="2015.39" y="-14.3" font-family="Times,serif" font-size="14.00">mesonet&#45;result</text>
</g>
<!-- http://purl.org/dj/python/lib/22216931&#45;&gt;http://purl.org/dj/kaggle/mesonet&#45;result -->
<g id="edge1" class="edge">
<title>http://purl.org/dj/python/lib/22216931&#45;&gt;http://purl.org/dj/kaggle/mesonet&#45;result</title>
<path fill="none" stroke="black" d="M90.1,-86.62C92.21,-75.33 96.91,-61.37 107.39,-54 145.58,-27.14 1596.55,-20.44 1942.09,-19.23"/>
<polygon fill="black" stroke="black" points="1942.24,-22.73 1952.23,-19.19 1942.21,-15.73 1942.24,-22.73"/>
<text text-anchor="middle" x="152.89" y="-57.8" font-family="Times,serif" font-size="14.00">previousActivity</text>
</g>
<!-- http://purl.org/dj/kaggle/mesonet&#45;result#1296762571 -->
<g id="node3" class="node">
<title>http://purl.org/dj/kaggle/mesonet&#45;result#1296762571</title>
<ellipse fill="none" stroke="black" cx="2034.39" cy="-321" rx="180.07" ry="18"/>
<text text-anchor="middle" x="2034.39" y="-317.3" font-family="Times,serif" font-size="14.00">1296762571 (submission_ori(0)$0: Movement)</text>
</g>
<!-- http://purl.org/dj/kaggle/mesonet&#45;result#80085334 -->
<g id="node4" class="node">
<title>http://purl.org/dj/kaggle/mesonet&#45;result#80085334</title>
<ellipse fill="none" stroke="black" cx="1922.39" cy="-213" rx="99.38" ry="18"/>
<text text-anchor="middle" x="1922.39" y="-209.3" font-family="Times,serif" font-size="14.00">80085334 (pd(0): Reuse)</text>
</g>
<!-- http://purl.org/dj/kaggle/mesonet&#45;result#1296762571&#45;&gt;http://purl.org/dj/kaggle/mesonet&#45;result#80085334 -->
<g id="edge2" class="edge">
<title>http://purl.org/dj/kaggle/mesonet&#45;result#1296762571&#45;&gt;http://purl.org/dj/kaggle/mesonet&#45;result#80085334</title>
<path fill="none" stroke="black" d="M2016.4,-302.97C1997.78,-285.35 1968.56,-257.7 1947.64,-237.89"/>
<polygon fill="black" stroke="black" points="1950.01,-235.32 1940.34,-230.99 1945.2,-240.4 1950.01,-235.32"/>
<text text-anchor="middle" x="2018.89" y="-263.3" font-family="Times,serif" font-size="14.00">read_csv</text>
</g>
<!-- http://purl.org/dj/python/lib/144966264 -->
<g id="node5" class="node">
<title>http://purl.org/dj/python/lib/144966264</title>
<ellipse fill="none" stroke="black" cx="1694.39" cy="-105" rx="109.38" ry="18"/>
<text text-anchor="middle" x="1694.39" y="-101.3" font-family="Times,serif" font-size="14.00">144966264 (pandas: Reuse)</text>
</g>
<!-- http://purl.org/dj/kaggle/mesonet&#45;result#1296762571&#45;&gt;http://purl.org/dj/python/lib/144966264 -->
<g id="edge3" class="edge">
<title>http://purl.org/dj/kaggle/mesonet&#45;result#1296762571&#45;&gt;http://purl.org/dj/python/lib/144966264</title>
<path fill="none" stroke="black" d="M1889.83,-310.25C1830.8,-299.02 1766.44,-276.29 1723.39,-231 1710.22,-217.15 1701.68,-165.7 1697.48,-133.28"/>
<polygon fill="black" stroke="black" points="1700.92,-132.6 1696.22,-123.1 1693.97,-133.45 1700.92,-132.6"/>
<text text-anchor="middle" x="1768.89" y="-209.3" font-family="Times,serif" font-size="14.00">previousActivity</text>
</g>
<!-- http://purl.org/dj/kaggle/mesonet&#45;result#1725503857 -->
<g id="node6" class="node">
<title>http://purl.org/dj/kaggle/mesonet&#45;result#1725503857</title>
<ellipse fill="none" stroke="black" cx="2192.39" cy="-159" rx="337.94" ry="18"/>
<text text-anchor="middle" x="2192.39" y="-155.3" font-family="Times,serif" font-size="14.00">1725503857 (/kaggle/input/deepfake&#45;detection&#45;challenge/sample_submission.csv(0): Reuse)</text>
</g>
<!-- http://purl.org/dj/kaggle/mesonet&#45;result#1296762571&#45;&gt;http://purl.org/dj/kaggle/mesonet&#45;result#1725503857 -->
<g id="edge4" class="edge">
<title>http://purl.org/dj/kaggle/mesonet&#45;result#1296762571&#45;&gt;http://purl.org/dj/kaggle/mesonet&#45;result#1725503857</title>
<path fill="none" stroke="black" d="M2051.3,-302.88C2079.45,-274.37 2136.03,-217.08 2168.33,-184.37"/>
<polygon fill="black" stroke="black" points="2171.07,-186.57 2175.6,-177 2166.09,-181.66 2171.07,-186.57"/>
<text text-anchor="middle" x="2147.89" y="-263.3" font-family="Times,serif" font-size="14.00">previousActivity</text>
</g>
<!-- http://purl.org/dj/kaggle/mesonet&#45;result#80085334&#45;&gt;http://purl.org/dj/kaggle/mesonet&#45;result -->
<g id="edge5" class="edge">
<title>http://purl.org/dj/kaggle/mesonet&#45;result#80085334&#45;&gt;http://purl.org/dj/kaggle/mesonet&#45;result</title>
<path fill="none" stroke="black" d="M1875.24,-196.93C1866.55,-191.97 1858.59,-185.47 1853.39,-177 1845.02,-163.37 1846.25,-155.32 1853.39,-141 1877.98,-91.71 1933.02,-57.1 1972.11,-37.63"/>
<polygon fill="black" stroke="black" points="1973.7,-40.75 1981.18,-33.24 1970.65,-34.45 1973.7,-40.75"/>
<text text-anchor="middle" x="1939.89" y="-101.3" font-family="Times,serif" font-size="14.00">previousActivity</text>
</g>
<!-- http://purl.org/dj/kaggle/mesonet&#45;result#80085334&#45;&gt;http://purl.org/dj/python/lib/144966264 -->
<g id="edge6" class="edge">
<title>http://purl.org/dj/kaggle/mesonet&#45;result#80085334&#45;&gt;http://purl.org/dj/python/lib/144966264</title>
<path fill="none" stroke="black" d="M1851.16,-200.37C1807.04,-192.71 1757.16,-183.01 1748.39,-177 1732.73,-166.27 1736.83,-156.15 1725.39,-141 1722.81,-137.57 1719.97,-134.07 1717.09,-130.67"/>
<polygon fill="black" stroke="black" points="1719.61,-128.23 1710.4,-122.99 1714.33,-132.83 1719.61,-128.23"/>
<text text-anchor="middle" x="1786.89" y="-155.3" font-family="Times,serif" font-size="14.00">assignedFrom</text>
</g>
<!-- http://purl.org/dj/python/lib/144966264&#45;&gt;http://purl.org/dj/kaggle/mesonet&#45;result -->
<g id="edge7" class="edge">
<title>http://purl.org/dj/python/lib/144966264&#45;&gt;http://purl.org/dj/kaggle/mesonet&#45;result</title>
<path fill="none" stroke="black" d="M1703.52,-86.7C1710.43,-75.43 1721,-61.49 1734.39,-54 1769.05,-34.61 1871.87,-25.76 1943.03,-21.86"/>
<polygon fill="black" stroke="black" points="1943.48,-25.34 1953.28,-21.32 1943.11,-18.35 1943.48,-25.34"/>
<text text-anchor="middle" x="1779.89" y="-57.8" font-family="Times,serif" font-size="14.00">previousActivity</text>
</g>
<!-- http://purl.org/dj/kaggle/mesonet&#45;result#1725503857&#45;&gt;http://purl.org/dj/kaggle/mesonet&#45;result -->
<g id="edge8" class="edge">
<title>http://purl.org/dj/kaggle/mesonet&#45;result#1725503857&#45;&gt;http://purl.org/dj/kaggle/mesonet&#45;result</title>
<path fill="none" stroke="black" d="M2170.69,-140.96C2138.81,-115.92 2079.29,-69.18 2043.92,-41.4"/>
<polygon fill="black" stroke="black" points="2045.93,-38.53 2035.9,-35.11 2041.6,-44.04 2045.93,-38.53"/>
<text text-anchor="middle" x="2192.89" y="-101.3" font-family="Times,serif" font-size="14.00">previousActivity</text>
</g>
<!-- http://purl.org/dj/kaggle/mesonet&#45;result#226230936 -->
<g id="node7" class="node">
<title>http://purl.org/dj/kaggle/mesonet&#45;result#226230936</title>
<ellipse fill="none" stroke="black" cx="2951.39" cy="-159" rx="110.48" ry="18"/>
<text text-anchor="middle" x="2951.39" y="-155.3" font-family="Times,serif" font-size="14.00">226230936 (float(0): Reuse)</text>
</g>
<!-- http://purl.org/dj/kaggle/mesonet&#45;result#226230936&#45;&gt;http://purl.org/dj/kaggle/mesonet&#45;result -->
<g id="edge9" class="edge">
<title>http://purl.org/dj/kaggle/mesonet&#45;result#226230936&#45;&gt;http://purl.org/dj/kaggle/mesonet&#45;result</title>
<path fill="none" stroke="black" d="M2948.11,-140.98C2944.24,-125.12 2936.34,-101.76 2921.39,-87 2893.73,-59.69 2878.37,-62.28 2840.39,-54 2698.25,-23.01 2262.95,-19.16 2088.66,-18.89"/>
<polygon fill="black" stroke="black" points="2088.57,-15.39 2078.56,-18.88 2088.56,-22.39 2088.57,-15.39"/>
<text text-anchor="middle" x="2987.89" y="-101.3" font-family="Times,serif" font-size="14.00">previousActivity</text>
</g>
<!-- http://purl.org/dj/kaggle/mesonet&#45;result#427361219 -->
<g id="node8" class="node">
<title>http://purl.org/dj/kaggle/mesonet&#45;result#427361219</title>
<ellipse fill="none" stroke="black" cx="1282.39" cy="-321" rx="126.18" ry="18"/>
<text text-anchor="middle" x="1282.39" y="-317.3" font-family="Times,serif" font-size="14.00">427361219 (filename(0): Reuse)</text>
</g>
<!-- http://purl.org/dj/kaggle/mesonet&#45;result#427361219&#45;&gt;http://purl.org/dj/kaggle/mesonet&#45;result -->
<g id="edge10" class="edge">
<title>http://purl.org/dj/kaggle/mesonet&#45;result#427361219&#45;&gt;http://purl.org/dj/kaggle/mesonet&#45;result</title>
<path fill="none" stroke="black" d="M1160.59,-316.32C878.26,-305.64 211.63,-266.86 327.39,-141 438.02,-20.72 1631.19,-17.36 1941.81,-18.54"/>
<polygon fill="black" stroke="black" points="1942.04,-22.04 1952.05,-18.58 1942.07,-15.04 1942.04,-22.04"/>
<text text-anchor="middle" x="372.89" y="-155.3" font-family="Times,serif" font-size="14.00">previousActivity</text>
</g>
<!-- http://purl.org/dj/kaggle/mesonet&#45;result#1296828108 -->
<g id="node9" class="node">
<title>http://purl.org/dj/kaggle/mesonet&#45;result#1296828108</title>
<ellipse fill="none" stroke="black" cx="2459.39" cy="-537" rx="181.17" ry="18"/>
<text text-anchor="middle" x="2459.39" y="-533.3" font-family="Times,serif" font-size="14.00">1296828108 (submission_ori(0)$1: Preparation)</text>
</g>
<!-- http://purl.org/dj/kaggle/mesonet&#45;result#1296828108&#45;&gt;http://purl.org/dj/kaggle/mesonet&#45;result#1296762571 -->
<g id="edge11" class="edge">
<title>http://purl.org/dj/kaggle/mesonet&#45;result#1296828108&#45;&gt;http://purl.org/dj/kaggle/mesonet&#45;result#1296762571</title>
<path fill="none" stroke="black" d="M2426.04,-519.21C2349.47,-480.65 2161.15,-385.83 2076.64,-343.27"/>
<polygon fill="black" stroke="black" points="2078.09,-340.09 2067.59,-338.71 2074.94,-346.34 2078.09,-340.09"/>
<text text-anchor="middle" x="2292.39" y="-425.3" font-family="Times,serif" font-size="14.00">Sub</text>
</g>
<!-- http://purl.org/dj/kaggle/mesonet&#45;result#1296828108&#45;&gt;http://purl.org/dj/kaggle/mesonet&#45;result#226230936 -->
<g id="edge12" class="edge">
<title>http://purl.org/dj/kaggle/mesonet&#45;result#1296828108&#45;&gt;http://purl.org/dj/kaggle/mesonet&#45;result#226230936</title>
<path fill="none" stroke="black" d="M2597.48,-525.27C2712.43,-512.41 2857.39,-485.24 2857.39,-430 2857.39,-430 2857.39,-430 2857.39,-266 2857.39,-230.16 2887.85,-200.77 2914.09,-182.11"/>
<polygon fill="black" stroke="black" points="2916.13,-184.95 2922.42,-176.43 2912.19,-179.17 2916.13,-184.95"/>
<text text-anchor="middle" x="2868.39" y="-371.3" font-family="Times,serif" font-size="14.00">Sub</text>
</g>
<!-- http://purl.org/dj/kaggle/mesonet&#45;result#1296828108&#45;&gt;http://purl.org/dj/kaggle/mesonet&#45;result#427361219 -->
<g id="edge13" class="edge">
<title>http://purl.org/dj/kaggle/mesonet&#45;result#1296828108&#45;&gt;http://purl.org/dj/kaggle/mesonet&#45;result#427361219</title>
<path fill="none" stroke="black" d="M2393.78,-520.16C2228.67,-480.5 1798.81,-378.58 1653.39,-357 1549.34,-341.56 1522.05,-349.57 1417.39,-339 1405.73,-337.82 1393.52,-336.46 1381.41,-335.04"/>
<polygon fill="black" stroke="black" points="1381.62,-331.54 1371.28,-333.82 1380.79,-338.49 1381.62,-331.54"/>
<text text-anchor="middle" x="2120.89" y="-425.3" font-family="Times,serif" font-size="14.00">previousActivity</text>
</g>
<!-- http://purl.org/dj/kaggle/mesonet&#45;result#29950131 -->
<g id="node10" class="node">
<title>http://purl.org/dj/kaggle/mesonet&#45;result#29950131</title>
<ellipse fill="none" stroke="black" cx="2459.39" cy="-375" rx="94.78" ry="18"/>
<text text-anchor="middle" x="2459.39" y="-371.3" font-family="Times,serif" font-size="14.00">29950131 (1(0): Reuse)</text>
</g>
<!-- http://purl.org/dj/kaggle/mesonet&#45;result#1296828108&#45;&gt;http://purl.org/dj/kaggle/mesonet&#45;result#29950131 -->
<g id="edge14" class="edge">
<title>http://purl.org/dj/kaggle/mesonet&#45;result#1296828108&#45;&gt;http://purl.org/dj/kaggle/mesonet&#45;result#29950131</title>
<path fill="none" stroke="black" d="M2459.39,-518.88C2459.39,-491.35 2459.39,-437.01 2459.39,-403.85"/>
<polygon fill="black" stroke="black" points="2462.89,-403.48 2459.39,-393.48 2455.89,-403.48 2462.89,-403.48"/>
<text text-anchor="middle" x="2504.89" y="-479.3" font-family="Times,serif" font-size="14.00">previousActivity</text>
</g>
<!-- http://purl.org/dj/kaggle/mesonet&#45;result#800392483 -->
<g id="node11" class="node">
<title>http://purl.org/dj/kaggle/mesonet&#45;result#800392483</title>
<ellipse fill="none" stroke="black" cx="1587.39" cy="-429" rx="143.77" ry="18"/>
<text text-anchor="middle" x="1587.39" y="-425.3" font-family="Times,serif" font-size="14.00">800392483 (submission(0)$1: Reuse)</text>
</g>
<!-- http://purl.org/dj/kaggle/mesonet&#45;result#1296828108&#45;&gt;http://purl.org/dj/kaggle/mesonet&#45;result#800392483 -->
<g id="edge15" class="edge">
<title>http://purl.org/dj/kaggle/mesonet&#45;result#1296828108&#45;&gt;http://purl.org/dj/kaggle/mesonet&#45;result#800392483</title>
<path fill="none" stroke="black" d="M2280.05,-534.27C2161.94,-530.96 2004.22,-522.41 1866.39,-501 1789.75,-489.1 1703.5,-465.54 1647.46,-448.82"/>
<polygon fill="black" stroke="black" points="1648.29,-445.42 1637.7,-445.89 1646.27,-452.12 1648.29,-445.42"/>
<text text-anchor="middle" x="1877.39" y="-479.3" font-family="Times,serif" font-size="14.00">Sub</text>
</g>
<!-- http://purl.org/dj/kaggle/mesonet&#45;result#218432130 -->
<g id="node12" class="node">
<title>http://purl.org/dj/kaggle/mesonet&#45;result#218432130</title>
<ellipse fill="none" stroke="black" cx="2586.39" cy="-267" rx="112.38" ry="18"/>
<text text-anchor="middle" x="2586.39" y="-263.3" font-family="Times,serif" font-size="14.00">218432130 (label(0): Reuse)</text>
</g>
<!-- http://purl.org/dj/kaggle/mesonet&#45;result#1296828108&#45;&gt;http://purl.org/dj/kaggle/mesonet&#45;result#218432130 -->
<g id="edge16" class="edge">
<title>http://purl.org/dj/kaggle/mesonet&#45;result#1296828108&#45;&gt;http://purl.org/dj/kaggle/mesonet&#45;result#218432130</title>
<path fill="none" stroke="black" d="M2529.56,-520.32C2539.06,-515.51 2547.78,-509.22 2554.39,-501 2602.69,-440.92 2597.16,-342.73 2590.92,-295.32"/>
<polygon fill="black" stroke="black" points="2594.35,-294.61 2589.48,-285.21 2587.42,-295.6 2594.35,-294.61"/>
<text text-anchor="middle" x="2635.89" y="-425.3" font-family="Times,serif" font-size="14.00">previousActivity</text>
</g>
<!-- http://purl.org/dj/kaggle/mesonet&#45;result#29950131&#45;&gt;http://purl.org/dj/kaggle/mesonet&#45;result -->
<g id="edge17" class="edge">
<title>http://purl.org/dj/kaggle/mesonet&#45;result#29950131&#45;&gt;http://purl.org/dj/kaggle/mesonet&#45;result</title>
<path fill="none" stroke="black" d="M2455.73,-356.99C2449.32,-322.35 2440.14,-242.84 2478.39,-195 2493.93,-175.57 2516.9,-197.22 2531.39,-177 2540.71,-163.99 2541.32,-153.55 2531.39,-141 2476.48,-71.59 2212.93,-37.62 2085.15,-25.01"/>
<polygon fill="black" stroke="black" points="2085.37,-21.51 2075.08,-24.03 2084.69,-28.48 2085.37,-21.51"/>
<text text-anchor="middle" x="2523.89" y="-209.3" font-family="Times,serif" font-size="14.00">previousActivity</text>
</g>
<!-- http://purl.org/dj/kaggle/mesonet&#45;result#800392483&#45;&gt;http://purl.org/dj/kaggle/mesonet&#45;result#427361219 -->
<g id="edge18" class="edge">
<title>http://purl.org/dj/kaggle/mesonet&#45;result#800392483&#45;&gt;http://purl.org/dj/kaggle/mesonet&#45;result#427361219</title>
<path fill="none" stroke="black" d="M1541.07,-411.9C1486.56,-392.96 1396.13,-361.53 1337.92,-341.3"/>
<polygon fill="black" stroke="black" points="1338.75,-337.88 1328.15,-337.9 1336.45,-344.49 1338.75,-337.88"/>
<text text-anchor="middle" x="1510.39" y="-371.3" font-family="Times,serif" font-size="14.00">sort_values</text>
</g>
<!-- http://purl.org/dj/kaggle/mesonet&#45;result#800326946 -->
<g id="node13" class="node">
<title>http://purl.org/dj/kaggle/mesonet&#45;result#800326946</title>
<ellipse fill="none" stroke="black" cx="1587.39" cy="-321" rx="161.37" ry="18"/>
<text text-anchor="middle" x="1587.39" y="-317.3" font-family="Times,serif" font-size="14.00">800326946 (submission(0)$0: Movement)</text>
</g>
<!-- http://purl.org/dj/kaggle/mesonet&#45;result#800392483&#45;&gt;http://purl.org/dj/kaggle/mesonet&#45;result#800326946 -->
<g id="edge19" class="edge">
<title>http://purl.org/dj/kaggle/mesonet&#45;result#800392483&#45;&gt;http://purl.org/dj/kaggle/mesonet&#45;result#800326946</title>
<path fill="none" stroke="black" d="M1587.39,-410.97C1587.39,-394.38 1587.39,-368.88 1587.39,-349.43"/>
<polygon fill="black" stroke="black" points="1590.89,-349.34 1587.39,-339.34 1583.89,-349.34 1590.89,-349.34"/>
<text text-anchor="middle" x="1618.39" y="-371.3" font-family="Times,serif" font-size="14.00">sort_values</text>
</g>
<!-- http://purl.org/dj/kaggle/mesonet&#45;result#218432130&#45;&gt;http://purl.org/dj/kaggle/mesonet&#45;result -->
<g id="edge20" class="edge">
<title>http://purl.org/dj/kaggle/mesonet&#45;result#218432130&#45;&gt;http://purl.org/dj/kaggle/mesonet&#45;result</title>
<path fill="none" stroke="black" d="M2583.58,-248.88C2575.6,-202.64 2551.24,-77.17 2518.39,-54 2484.18,-29.87 2220.17,-22.26 2088.94,-19.95"/>
<polygon fill="black" stroke="black" points="2088.64,-16.45 2078.58,-19.78 2088.52,-23.45 2088.64,-16.45"/>
<text text-anchor="middle" x="2613.89" y="-155.3" font-family="Times,serif" font-size="14.00">previousActivity</text>
</g>
<!-- http://purl.org/dj/kaggle/mesonet&#45;result#800326946&#45;&gt;http://purl.org/dj/kaggle/mesonet&#45;result#80085334 -->
<g id="edge22" class="edge">
<title>http://purl.org/dj/kaggle/mesonet&#45;result#800326946&#45;&gt;http://purl.org/dj/kaggle/mesonet&#45;result#80085334</title>
<path fill="none" stroke="black" d="M1638.27,-303.9C1699.43,-284.55 1801.76,-252.17 1865.49,-232.01"/>
<polygon fill="black" stroke="black" points="1866.89,-235.23 1875.37,-228.88 1864.78,-228.56 1866.89,-235.23"/>
<text text-anchor="middle" x="1828.89" y="-263.3" font-family="Times,serif" font-size="14.00">read_csv</text>
</g>
<!-- http://purl.org/dj/kaggle/mesonet&#45;result#800326946&#45;&gt;http://purl.org/dj/python/lib/144966264 -->
<g id="edge23" class="edge">
<title>http://purl.org/dj/kaggle/mesonet&#45;result#800326946&#45;&gt;http://purl.org/dj/python/lib/144966264</title>
<path fill="none" stroke="black" d="M1583.72,-302.62C1579.18,-275.98 1574.99,-224.99 1601.39,-195 1623.76,-169.59 1651.19,-200.66 1675.39,-177 1686.99,-165.66 1691.76,-148.07 1693.62,-133.24"/>
<polygon fill="black" stroke="black" points="1697.12,-133.32 1694.51,-123.05 1690.15,-132.71 1697.12,-133.32"/>
<text text-anchor="middle" x="1646.89" y="-209.3" font-family="Times,serif" font-size="14.00">previousActivity</text>
</g>
<!-- http://purl.org/dj/kaggle/mesonet&#45;result#848498283 -->
<g id="node15" class="node">
<title>http://purl.org/dj/kaggle/mesonet&#45;result#848498283</title>
<ellipse fill="none" stroke="black" cx="659.39" cy="-159" rx="232.06" ry="18"/>
<text text-anchor="middle" x="659.39" y="-155.3" font-family="Times,serif" font-size="14.00">848498283 (/kaggle/input/submit&#45;dfdc/submit2.csv(0): Reuse)</text>
</g>
<!-- http://purl.org/dj/kaggle/mesonet&#45;result#800326946&#45;&gt;http://purl.org/dj/kaggle/mesonet&#45;result#848498283 -->
<g id="edge24" class="edge">
<title>http://purl.org/dj/kaggle/mesonet&#45;result#800326946&#45;&gt;http://purl.org/dj/kaggle/mesonet&#45;result#848498283</title>
<path fill="none" stroke="black" d="M1481.46,-307.36C1432.89,-301.22 1374.63,-293.37 1322.39,-285 1115.19,-251.81 873.31,-203.86 746.75,-178.06"/>
<polygon fill="black" stroke="black" points="747.22,-174.58 736.72,-176.01 745.82,-181.44 747.22,-174.58"/>
<text text-anchor="middle" x="1367.89" y="-263.3" font-family="Times,serif" font-size="14.00">previousActivity</text>
</g>
<!-- http://purl.org/dj/kaggle/mesonet&#45;result#1776949833 -->
<g id="node16" class="node">
<title>http://purl.org/dj/kaggle/mesonet&#45;result#1776949833</title>
<ellipse fill="none" stroke="black" cx="1285.39" cy="-159" rx="389.13" ry="18"/>
<text text-anchor="middle" x="1285.39" y="-155.3" font-family="Times,serif" font-size="14.00">1776949833 ([&lt;_ast.Constant object at 0x12f8aba60&gt;, &lt;_ast.Constant object at 0x12f8ab190&gt;](0): Reuse)</text>
</g>
<!-- http://purl.org/dj/kaggle/mesonet&#45;result#800326946&#45;&gt;http://purl.org/dj/kaggle/mesonet&#45;result#1776949833 -->
<g id="edge25" class="edge">
<title>http://purl.org/dj/kaggle/mesonet&#45;result#800326946&#45;&gt;http://purl.org/dj/kaggle/mesonet&#45;result#1776949833</title>
<path fill="none" stroke="black" d="M1531.36,-304.12C1515.24,-298.81 1497.84,-292.34 1482.39,-285 1420.58,-255.63 1354.55,-210.58 1316.79,-183.34"/>
<polygon fill="black" stroke="black" points="1318.42,-180.2 1308.27,-177.15 1314.31,-185.86 1318.42,-180.2"/>
<text text-anchor="middle" x="1527.89" y="-263.3" font-family="Times,serif" font-size="14.00">previousActivity</text>
</g>
<!-- http://purl.org/dj/python/lib/111084090 -->
<g id="node14" class="node">
<title>http://purl.org/dj/python/lib/111084090</title>
<ellipse fill="none" stroke="black" cx="2680.39" cy="-105" rx="109.68" ry="18"/>
<text text-anchor="middle" x="2680.39" y="-101.3" font-family="Times,serif" font-size="14.00">111084090 (numpy: Reuse)</text>
</g>
<!-- http://purl.org/dj/python/lib/111084090&#45;&gt;http://purl.org/dj/kaggle/mesonet&#45;result -->
<g id="edge21" class="edge">
<title>http://purl.org/dj/python/lib/111084090&#45;&gt;http://purl.org/dj/kaggle/mesonet&#45;result</title>
<path fill="none" stroke="black" d="M2648.16,-87.68C2623.66,-76.11 2588.76,-61.37 2556.39,-54 2469.47,-34.2 2214.98,-24.54 2088.49,-20.85"/>
<polygon fill="black" stroke="black" points="2088.23,-17.34 2078.13,-20.56 2088.03,-24.34 2088.23,-17.34"/>
<text text-anchor="middle" x="2634.39" y="-57.8" font-family="Times,serif" font-size="14.00">importedBy</text>
</g>
<!-- http://purl.org/dj/kaggle/mesonet&#45;result#848498283&#45;&gt;http://purl.org/dj/kaggle/mesonet&#45;result -->
<g id="edge26" class="edge">
<title>http://purl.org/dj/kaggle/mesonet&#45;result#848498283&#45;&gt;http://purl.org/dj/kaggle/mesonet&#45;result</title>
<path fill="none" stroke="black" d="M781.27,-143.68C962.55,-122.61 1314.04,-82.66 1613.39,-54 1729.92,-42.84 1865.61,-31.34 1945.79,-24.69"/>
<polygon fill="black" stroke="black" points="1946.09,-28.18 1955.77,-23.87 1945.51,-21.21 1946.09,-28.18"/>
<text text-anchor="middle" x="1320.89" y="-101.3" font-family="Times,serif" font-size="14.00">previousActivity</text>
</g>
<!-- http://purl.org/dj/kaggle/mesonet&#45;result#1776949833&#45;&gt;http://purl.org/dj/kaggle/mesonet&#45;result -->
<g id="edge27" class="edge">
<title>http://purl.org/dj/kaggle/mesonet&#45;result#1776949833&#45;&gt;http://purl.org/dj/kaggle/mesonet&#45;result</title>
<path fill="none" stroke="black" d="M1336,-141.02C1383.86,-125.42 1457.92,-102.43 1523.39,-87 1671.38,-52.13 1848.92,-33.04 1945.09,-24.53"/>
<polygon fill="black" stroke="black" points="1945.62,-28 1955.27,-23.64 1945.01,-21.02 1945.62,-28"/>
<text text-anchor="middle" x="1549.89" y="-101.3" font-family="Times,serif" font-size="14.00">appearsIn</text>
</g>
<!-- http://purl.org/dj/kaggle/mesonet&#45;result#1296893645 -->
<g id="node17" class="node">
<title>http://purl.org/dj/kaggle/mesonet&#45;result#1296893645</title>
<ellipse fill="none" stroke="black" cx="2610.39" cy="-624" rx="162.47" ry="18"/>
<text text-anchor="middle" x="2610.39" y="-620.3" font-family="Times,serif" font-size="14.00">1296893645 (submission_ori(0)$2: Reuse)</text>
</g>
<!-- http://purl.org/dj/kaggle/mesonet&#45;result#1296893645&#45;&gt;http://purl.org/dj/kaggle/mesonet&#45;result#1296828108 -->
<g id="edge28" class="edge">
<title>http://purl.org/dj/kaggle/mesonet&#45;result#1296893645&#45;&gt;http://purl.org/dj/kaggle/mesonet&#45;result#1296828108</title>
<path fill="none" stroke="black" d="M2580.56,-606.21C2556.88,-592.88 2523.6,-574.14 2497.91,-559.68"/>
<polygon fill="black" stroke="black" points="2499.59,-556.61 2489.16,-554.76 2496.16,-562.71 2499.59,-556.61"/>
<text text-anchor="middle" x="2588.89" y="-576.8" font-family="Times,serif" font-size="14.00">previousActivity</text>
</g>
<!-- http://purl.org/dj/kaggle/mesonet&#45;result#1048512072 -->
<g id="node18" class="node">
<title>http://purl.org/dj/kaggle/mesonet&#45;result#1048512072</title>
<ellipse fill="none" stroke="black" cx="3050.39" cy="-483" rx="153.27" ry="18"/>
<text text-anchor="middle" x="3050.39" y="-479.3" font-family="Times,serif" font-size="14.00">1048512072 (submission.csv(0): Reuse)</text>
</g>
<!-- http://purl.org/dj/kaggle/mesonet&#45;result#1296893645&#45;&gt;http://purl.org/dj/kaggle/mesonet&#45;result#1048512072 -->
<g id="edge29" class="edge">
<title>http://purl.org/dj/kaggle/mesonet&#45;result#1296893645&#45;&gt;http://purl.org/dj/kaggle/mesonet&#45;result#1048512072</title>
<path fill="none" stroke="black" d="M2661.73,-606.78C2743.47,-580.96 2902.87,-530.61 2989.98,-503.08"/>
<polygon fill="black" stroke="black" points="2991.24,-506.36 2999.72,-500.01 2989.13,-499.68 2991.24,-506.36"/>
<text text-anchor="middle" x="2782.39" y="-576.8" font-family="Times,serif" font-size="14.00">to_csv</text>
</g>
<!-- http://purl.org/dj/kaggle/mesonet&#45;result#1048512072&#45;&gt;http://purl.org/dj/kaggle/mesonet&#45;result -->
<g id="edge30" class="edge">
<title>http://purl.org/dj/kaggle/mesonet&#45;result#1048512072&#45;&gt;http://purl.org/dj/kaggle/mesonet&#45;result</title>
<path fill="none" stroke="black" d="M3057.36,-464.69C3065.06,-443.96 3076.39,-408.02 3076.39,-376 3076.39,-376 3076.39,-376 3076.39,-104 3076.39,-73.11 3091.43,-80.28 2882.39,-54 2729.63,-34.8 2268.07,-23.95 2088.23,-20.35"/>
<polygon fill="black" stroke="black" points="2088.14,-16.85 2078.08,-20.15 2088.01,-23.85 2088.14,-16.85"/>
<text text-anchor="middle" x="3121.89" y="-263.3" font-family="Times,serif" font-size="14.00">previousActivity</text>
</g>
<!-- http://purl.org/dj/kaggle/mesonet&#45;result#82575712 -->
<g id="node19" class="node">
<title>http://purl.org/dj/kaggle/mesonet&#45;result#82575712</title>
<ellipse fill="none" stroke="black" cx="2722.39" cy="-213" rx="99.38" ry="18"/>
<text text-anchor="middle" x="2722.39" y="-209.3" font-family="Times,serif" font-size="14.00">82575712 (np(0): Reuse)</text>
</g>
<!-- http://purl.org/dj/kaggle/mesonet&#45;result#82575712&#45;&gt;http://purl.org/dj/kaggle/mesonet&#45;result -->
<g id="edge31" class="edge">
<title>http://purl.org/dj/kaggle/mesonet&#45;result#82575712&#45;&gt;http://purl.org/dj/kaggle/mesonet&#45;result</title>
<path fill="none" stroke="black" d="M2764.96,-196.52C2773.84,-191.52 2782.33,-185.1 2788.39,-177 2812.52,-144.73 2824.08,-118.85 2799.39,-87 2756.3,-31.39 2274.99,-21.25 2088.55,-19.4"/>
<polygon fill="black" stroke="black" points="2088.33,-15.9 2078.3,-19.31 2088.27,-22.9 2088.33,-15.9"/>
<text text-anchor="middle" x="2857.89" y="-101.3" font-family="Times,serif" font-size="14.00">previousActivity</text>
</g>
<!-- http://purl.org/dj/kaggle/mesonet&#45;result#82575712&#45;&gt;http://purl.org/dj/python/lib/111084090 -->
<g id="edge32" class="edge">
<title>http://purl.org/dj/kaggle/mesonet&#45;result#82575712&#45;&gt;http://purl.org/dj/python/lib/111084090</title>
<path fill="none" stroke="black" d="M2715.64,-194.97C2708.97,-178.12 2698.66,-152.1 2690.91,-132.54"/>
<polygon fill="black" stroke="black" points="2694.06,-131 2687.12,-122.99 2687.55,-133.57 2694.06,-131"/>
<text text-anchor="middle" x="2745.89" y="-155.3" font-family="Times,serif" font-size="14.00">assignedFrom</text>
</g>
<!-- http://purl.org/dj/kaggle/mesonet&#45;result#83689828 -->
<g id="node20" class="node">
<title>http://purl.org/dj/kaggle/mesonet&#45;result#83689828</title>
<ellipse fill="none" stroke="black" cx="162.39" cy="-213" rx="98.58" ry="18"/>
<text text-anchor="middle" x="162.39" y="-209.3" font-family="Times,serif" font-size="14.00">83689828 (os(0): Reuse)</text>
</g>
<!-- http://purl.org/dj/kaggle/mesonet&#45;result#83689828&#45;&gt;http://purl.org/dj/python/lib/22216931 -->
<g id="edge33" class="edge">
<title>http://purl.org/dj/kaggle/mesonet&#45;result#83689828&#45;&gt;http://purl.org/dj/python/lib/22216931</title>
<path fill="none" stroke="black" d="M139.46,-195.4C133.07,-190.02 126.49,-183.71 121.39,-177 111.27,-163.67 103.25,-146.74 97.65,-132.76"/>
<polygon fill="black" stroke="black" points="100.84,-131.29 94.01,-123.19 94.3,-133.78 100.84,-131.29"/>
<text text-anchor="middle" x="159.89" y="-155.3" font-family="Times,serif" font-size="14.00">assignedFrom</text>
</g>
<!-- http://purl.org/dj/kaggle/mesonet&#45;result#83689828&#45;&gt;http://purl.org/dj/kaggle/mesonet&#45;result -->
<g id="edge34" class="edge">
<title>http://purl.org/dj/kaggle/mesonet&#45;result#83689828&#45;&gt;http://purl.org/dj/kaggle/mesonet&#45;result</title>
<path fill="none" stroke="black" d="M183,-195.37C188.62,-190 194.29,-183.69 198.39,-177 220.31,-141.3 197.46,-117.3 226.39,-87 256.1,-55.88 275.1,-61.88 317.39,-54 478.25,-24.02 1636.82,-19.72 1941.92,-19.1"/>
<polygon fill="black" stroke="black" points="1941.99,-22.6 1951.98,-19.08 1941.98,-15.6 1941.99,-22.6"/>
<text text-anchor="middle" x="271.89" y="-101.3" font-family="Times,serif" font-size="14.00">previousActivity</text>
</g>
</g>
</svg>
