<?xml version="1.0" encoding="UTF-8" standalone="no"?>
<!DOCTYPE svg PUBLIC "-//W3C//DTD SVG 1.1//EN"
 "http://www.w3.org/Graphics/SVG/1.1/DTD/svg11.dtd">
<!-- Generated by graphviz version 2.47.1 (20210417.1919)
 -->
<!-- Pages: 1 -->
<svg width="1684pt" height="608pt"
 viewBox="0.00 0.00 1683.84 608.00" xmlns="http://www.w3.org/2000/svg" xmlns:xlink="http://www.w3.org/1999/xlink">
<g id="graph0" class="graph" transform="scale(1 1) rotate(0) translate(4 604)">
<polygon fill="white" stroke="transparent" points="-4,4 -4,-604 1679.84,-604 1679.84,4 -4,4"/>
<!-- http://purl.org/dj/kaggle/nb&#45;svm&#45;strong&#45;linear&#45;baseline/activity/8459774883158837523 -->
<g id="node1" class="node">
<title>http://purl.org/dj/kaggle/nb&#45;svm&#45;strong&#45;linear&#45;baseline/activity/8459774883158837523</title>
<ellipse fill="none" stroke="black" cx="652" cy="-582" rx="142.97" ry="18"/>
<text text-anchor="middle" x="652" y="-578.3" font-family="Times,serif" font-size="14.00">8459774883158837523 (Preparation)</text>
</g>
<!-- http://purl.org/dj/kaggle/nb&#45;svm&#45;strong&#45;linear&#45;baseline/activity/4854454211407642051 -->
<g id="node2" class="node">
<title>http://purl.org/dj/kaggle/nb&#45;svm&#45;strong&#45;linear&#45;baseline/activity/4854454211407642051</title>
<ellipse fill="none" stroke="black" cx="1243" cy="-192" rx="148.67" ry="18"/>
<text text-anchor="middle" x="1243" y="-188.3" font-family="Times,serif" font-size="14.00">4854454211407642051 (Visualisation)</text>
</g>
<!-- http://purl.org/dj/kaggle/nb&#45;svm&#45;strong&#45;linear&#45;baseline/activity/8459774883158837523&#45;&gt;http://purl.org/dj/kaggle/nb&#45;svm&#45;strong&#45;linear&#45;baseline/activity/4854454211407642051 -->
<g id="edge1" class="edge">
<title>http://purl.org/dj/kaggle/nb&#45;svm&#45;strong&#45;linear&#45;baseline/activity/8459774883158837523&#45;&gt;http://purl.org/dj/kaggle/nb&#45;svm&#45;strong&#45;linear&#45;baseline/activity/4854454211407642051</title>
<path fill="none" stroke="black" d="M787.39,-576.18C911.55,-570.92 1085.98,-561.16 1153,-546 1212.17,-532.62 1280,-556.66 1280,-496 1280,-496 1280,-496 1280,-278 1280,-256.88 1270.28,-235.07 1260.8,-218.84"/>
<polygon fill="black" stroke="black" points="1263.55,-216.64 1255.32,-209.97 1257.6,-220.31 1263.55,-216.64"/>
<text text-anchor="middle" x="1303.5" y="-383.3" font-family="Times,serif" font-size="14.00">previous</text>
</g>
<!-- http://purl.org/dj/kaggle/nb&#45;svm&#45;strong&#45;linear&#45;baseline/activity/7374930784906433764 -->
<g id="node3" class="node">
<title>http://purl.org/dj/kaggle/nb&#45;svm&#45;strong&#45;linear&#45;baseline/activity/7374930784906433764</title>
<ellipse fill="none" stroke="black" cx="684" cy="-105" rx="124.28" ry="18"/>
<text text-anchor="middle" x="684" y="-101.3" font-family="Times,serif" font-size="14.00">7374930784906433764 (Reuse)</text>
</g>
<!-- http://purl.org/dj/kaggle/nb&#45;svm&#45;strong&#45;linear&#45;baseline/activity/8459774883158837523&#45;&gt;http://purl.org/dj/kaggle/nb&#45;svm&#45;strong&#45;linear&#45;baseline/activity/7374930784906433764 -->
<g id="edge2" class="edge">
<title>http://purl.org/dj/kaggle/nb&#45;svm&#45;strong&#45;linear&#45;baseline/activity/8459774883158837523&#45;&gt;http://purl.org/dj/kaggle/nb&#45;svm&#45;strong&#45;linear&#45;baseline/activity/7374930784906433764</title>
<path fill="none" stroke="black" d="M515.32,-576.62C324.13,-568.64 0,-547.51 0,-496 0,-496 0,-496 0,-191 0,-135.9 354.02,-116.09 552.68,-109.31"/>
<polygon fill="black" stroke="black" points="553.02,-112.8 562.9,-108.97 552.78,-105.8 553.02,-112.8"/>
<text text-anchor="middle" x="23.5" y="-329.3" font-family="Times,serif" font-size="14.00">previous</text>
</g>
<!-- http://purl.org/dj/kaggle/nb&#45;svm&#45;strong&#45;linear&#45;baseline/activity/8625517105032459862 -->
<g id="node4" class="node">
<title>http://purl.org/dj/kaggle/nb&#45;svm&#45;strong&#45;linear&#45;baseline/activity/8625517105032459862</title>
<ellipse fill="none" stroke="black" cx="1527" cy="-441" rx="148.67" ry="18"/>
<text text-anchor="middle" x="1527" y="-437.3" font-family="Times,serif" font-size="14.00">8625517105032459862 (Visualisation)</text>
</g>
<!-- http://purl.org/dj/kaggle/nb&#45;svm&#45;strong&#45;linear&#45;baseline/activity/8459774883158837523&#45;&gt;http://purl.org/dj/kaggle/nb&#45;svm&#45;strong&#45;linear&#45;baseline/activity/8625517105032459862 -->
<g id="edge3" class="edge">
<title>http://purl.org/dj/kaggle/nb&#45;svm&#45;strong&#45;linear&#45;baseline/activity/8459774883158837523&#45;&gt;http://purl.org/dj/kaggle/nb&#45;svm&#45;strong&#45;linear&#45;baseline/activity/8625517105032459862</title>
<path fill="none" stroke="black" d="M792.37,-578.38C987.62,-574.1 1323.38,-564.2 1377,-546 1426.16,-529.31 1473.83,-491.39 1501.79,-466.25"/>
<polygon fill="black" stroke="black" points="1504.46,-468.54 1509.47,-459.21 1499.73,-463.38 1504.46,-468.54"/>
<text text-anchor="middle" x="1433.5" y="-534.8" font-family="Times,serif" font-size="14.00">previous</text>
</g>
<!-- http://purl.org/dj/kaggle/nb&#45;svm&#45;strong&#45;linear&#45;baseline/activity/6342808256331516628 -->
<g id="node5" class="node">
<title>http://purl.org/dj/kaggle/nb&#45;svm&#45;strong&#45;linear&#45;baseline/activity/6342808256331516628</title>
<ellipse fill="none" stroke="black" cx="201" cy="-333" rx="148.67" ry="18"/>
<text text-anchor="middle" x="201" y="-329.3" font-family="Times,serif" font-size="14.00">6342808256331516628 (Visualisation)</text>
</g>
<!-- http://purl.org/dj/kaggle/nb&#45;svm&#45;strong&#45;linear&#45;baseline/activity/8459774883158837523&#45;&gt;http://purl.org/dj/kaggle/nb&#45;svm&#45;strong&#45;linear&#45;baseline/activity/6342808256331516628 -->
<g id="edge4" class="edge">
<title>http://purl.org/dj/kaggle/nb&#45;svm&#45;strong&#45;linear&#45;baseline/activity/8459774883158837523&#45;&gt;http://purl.org/dj/kaggle/nb&#45;svm&#45;strong&#45;linear&#45;baseline/activity/6342808256331516628</title>
<path fill="none" stroke="black" d="M526.98,-573.23C381.2,-562.86 156.77,-542.35 131,-513 90.82,-467.23 143.51,-395.74 177.08,-358.47"/>
<polygon fill="black" stroke="black" points="179.7,-360.78 183.91,-351.05 174.56,-356.03 179.7,-360.78"/>
<text text-anchor="middle" x="154.5" y="-491.3" font-family="Times,serif" font-size="14.00">previous</text>
</g>
<!-- http://purl.org/dj/kaggle/nb&#45;svm&#45;strong&#45;linear&#45;baseline/activity/8057022784486903481 -->
<g id="node6" class="node">
<title>http://purl.org/dj/kaggle/nb&#45;svm&#45;strong&#45;linear&#45;baseline/activity/8057022784486903481</title>
<ellipse fill="none" stroke="black" cx="652" cy="-495" rx="148.67" ry="18"/>
<text text-anchor="middle" x="652" y="-491.3" font-family="Times,serif" font-size="14.00">8057022784486903481 (Visualisation)</text>
</g>
<!-- http://purl.org/dj/kaggle/nb&#45;svm&#45;strong&#45;linear&#45;baseline/activity/8459774883158837523&#45;&gt;http://purl.org/dj/kaggle/nb&#45;svm&#45;strong&#45;linear&#45;baseline/activity/8057022784486903481 -->
<g id="edge5" class="edge">
<title>http://purl.org/dj/kaggle/nb&#45;svm&#45;strong&#45;linear&#45;baseline/activity/8459774883158837523&#45;&gt;http://purl.org/dj/kaggle/nb&#45;svm&#45;strong&#45;linear&#45;baseline/activity/8057022784486903481</title>
<path fill="none" stroke="black" d="M629.85,-564C620.68,-554.78 613.18,-542.87 618,-531 619.5,-527.31 621.59,-523.79 624.02,-520.51"/>
<polygon fill="black" stroke="black" points="626.71,-522.74 630.56,-512.87 621.39,-518.19 626.71,-522.74"/>
<text text-anchor="middle" x="641.5" y="-534.8" font-family="Times,serif" font-size="14.00">previous</text>
</g>
<!-- http://purl.org/dj/kaggle/nb&#45;svm&#45;strong&#45;linear&#45;baseline/activity/3241204205226814210 -->
<g id="node7" class="node">
<title>http://purl.org/dj/kaggle/nb&#45;svm&#45;strong&#45;linear&#45;baseline/activity/3241204205226814210</title>
<ellipse fill="none" stroke="black" cx="336" cy="-495" rx="148.67" ry="18"/>
<text text-anchor="middle" x="336" y="-491.3" font-family="Times,serif" font-size="14.00">3241204205226814210 (Visualisation)</text>
</g>
<!-- http://purl.org/dj/kaggle/nb&#45;svm&#45;strong&#45;linear&#45;baseline/activity/8459774883158837523&#45;&gt;http://purl.org/dj/kaggle/nb&#45;svm&#45;strong&#45;linear&#45;baseline/activity/3241204205226814210 -->
<g id="edge6" class="edge">
<title>http://purl.org/dj/kaggle/nb&#45;svm&#45;strong&#45;linear&#45;baseline/activity/8459774883158837523&#45;&gt;http://purl.org/dj/kaggle/nb&#45;svm&#45;strong&#45;linear&#45;baseline/activity/3241204205226814210</title>
<path fill="none" stroke="black" d="M542.86,-570.29C507.56,-565.03 468.62,-557.3 434,-546 412.66,-539.04 390.26,-527.93 372.27,-517.95"/>
<polygon fill="black" stroke="black" points="373.72,-514.75 363.3,-512.86 370.27,-520.84 373.72,-514.75"/>
<text text-anchor="middle" x="457.5" y="-534.8" font-family="Times,serif" font-size="14.00">previous</text>
</g>
<!-- http://purl.org/dj/kaggle/nb&#45;svm&#45;strong&#45;linear&#45;baseline/activity/&#45;8546968110620193097 -->
<g id="node8" class="node">
<title>http://purl.org/dj/kaggle/nb&#45;svm&#45;strong&#45;linear&#45;baseline/activity/&#45;8546968110620193097</title>
<ellipse fill="none" stroke="black" cx="1042" cy="-441" rx="151.37" ry="18"/>
<text text-anchor="middle" x="1042" y="-437.3" font-family="Times,serif" font-size="14.00">&#45;8546968110620193097 (Visualisation)</text>
</g>
<!-- http://purl.org/dj/kaggle/nb&#45;svm&#45;strong&#45;linear&#45;baseline/activity/8459774883158837523&#45;&gt;http://purl.org/dj/kaggle/nb&#45;svm&#45;strong&#45;linear&#45;baseline/activity/&#45;8546968110620193097 -->
<g id="edge7" class="edge">
<title>http://purl.org/dj/kaggle/nb&#45;svm&#45;strong&#45;linear&#45;baseline/activity/8459774883158837523&#45;&gt;http://purl.org/dj/kaggle/nb&#45;svm&#45;strong&#45;linear&#45;baseline/activity/&#45;8546968110620193097</title>
<path fill="none" stroke="black" d="M794.52,-580.36C918.14,-576.41 1083.7,-561.8 1126,-513 1136.48,-500.91 1134.88,-490.31 1126,-477 1122.38,-471.57 1117.73,-466.97 1112.49,-463.09"/>
<polygon fill="black" stroke="black" points="1114.14,-459.99 1103.83,-457.56 1110.37,-465.89 1114.14,-459.99"/>
<text text-anchor="middle" x="1125.5" y="-534.8" font-family="Times,serif" font-size="14.00">previous</text>
</g>
<!-- http://purl.org/dj/kaggle/nb&#45;svm&#45;strong&#45;linear&#45;baseline/activity/4854454211407642051&#45;&gt;http://purl.org/dj/kaggle/nb&#45;svm&#45;strong&#45;linear&#45;baseline/activity/8459774883158837523 -->
<g id="edge8" class="edge">
<title>http://purl.org/dj/kaggle/nb&#45;svm&#45;strong&#45;linear&#45;baseline/activity/4854454211407642051&#45;&gt;http://purl.org/dj/kaggle/nb&#45;svm&#45;strong&#45;linear&#45;baseline/activity/8459774883158837523</title>
<path fill="none" stroke="black" d="M1297.73,-208.78C1329.38,-221.62 1363,-243.41 1363,-278 1363,-496 1363,-496 1363,-496 1363,-552.03 1010.33,-571.3 801.75,-577.8"/>
<polygon fill="black" stroke="black" points="801.51,-574.3 791.62,-578.11 801.72,-581.3 801.51,-574.3"/>
<text text-anchor="middle" x="1386.5" y="-383.3" font-family="Times,serif" font-size="14.00">previous</text>
</g>
<!-- http://purl.org/dj/kaggle/nb&#45;svm&#45;strong&#45;linear&#45;baseline/activity/4854454211407642051&#45;&gt;http://purl.org/dj/kaggle/nb&#45;svm&#45;strong&#45;linear&#45;baseline/activity/7374930784906433764 -->
<g id="edge9" class="edge">
<title>http://purl.org/dj/kaggle/nb&#45;svm&#45;strong&#45;linear&#45;baseline/activity/4854454211407642051&#45;&gt;http://purl.org/dj/kaggle/nb&#45;svm&#45;strong&#45;linear&#45;baseline/activity/7374930784906433764</title>
<path fill="none" stroke="black" d="M1190.94,-175.03C1152.59,-163.86 1099,-149.48 1051,-141 970.95,-126.85 880,-118.13 808.67,-112.93"/>
<polygon fill="black" stroke="black" points="808.51,-109.41 798.29,-112.19 808.01,-116.39 808.51,-109.41"/>
<text text-anchor="middle" x="1144.5" y="-144.8" font-family="Times,serif" font-size="14.00">previous</text>
</g>
<!-- http://purl.org/dj/kaggle/nb&#45;svm&#45;strong&#45;linear&#45;baseline -->
<g id="node9" class="node">
<title>http://purl.org/dj/kaggle/nb&#45;svm&#45;strong&#45;linear&#45;baseline</title>
<ellipse fill="none" stroke="black" cx="1175" cy="-18" rx="254.25" ry="18"/>
<text text-anchor="middle" x="1175" y="-14.3" font-family="Times,serif" font-size="14.00">nb&#45;svm&#45;strong&#45;linear&#45;baseline (nb&#45;svm&#45;strong&#45;linear&#45;baseline.ipynb)</text>
</g>
<!-- http://purl.org/dj/kaggle/nb&#45;svm&#45;strong&#45;linear&#45;baseline/activity/4854454211407642051&#45;&gt;http://purl.org/dj/kaggle/nb&#45;svm&#45;strong&#45;linear&#45;baseline -->
<g id="edge10" class="edge">
<title>http://purl.org/dj/kaggle/nb&#45;svm&#45;strong&#45;linear&#45;baseline/activity/4854454211407642051&#45;&gt;http://purl.org/dj/kaggle/nb&#45;svm&#45;strong&#45;linear&#45;baseline</title>
<path fill="none" stroke="black" d="M1236.23,-173.88C1224.32,-143.74 1199.53,-81.04 1185.42,-45.35"/>
<polygon fill="black" stroke="black" points="1188.67,-44.06 1181.74,-36.05 1182.16,-46.64 1188.67,-44.06"/>
<text text-anchor="middle" x="1239.5" y="-101.3" font-family="Times,serif" font-size="14.00">previous</text>
</g>
<!-- http://purl.org/dj/kaggle/nb&#45;svm&#45;strong&#45;linear&#45;baseline/activity/7374930784906433764&#45;&gt;http://purl.org/dj/kaggle/nb&#45;svm&#45;strong&#45;linear&#45;baseline -->
<g id="edge11" class="edge">
<title>http://purl.org/dj/kaggle/nb&#45;svm&#45;strong&#45;linear&#45;baseline/activity/7374930784906433764&#45;&gt;http://purl.org/dj/kaggle/nb&#45;svm&#45;strong&#45;linear&#45;baseline</title>
<path fill="none" stroke="black" d="M760.45,-90.77C844.71,-76.18 980.62,-52.65 1073.69,-36.54"/>
<polygon fill="black" stroke="black" points="1074.44,-39.96 1083.69,-34.81 1073.24,-33.06 1074.44,-39.96"/>
<text text-anchor="middle" x="982.5" y="-57.8" font-family="Times,serif" font-size="14.00">previous</text>
</g>
<!-- http://purl.org/dj/kaggle/nb&#45;svm&#45;strong&#45;linear&#45;baseline/activity/8625517105032459862&#45;&gt;http://purl.org/dj/kaggle/nb&#45;svm&#45;strong&#45;linear&#45;baseline/activity/7374930784906433764 -->
<g id="edge12" class="edge">
<title>http://purl.org/dj/kaggle/nb&#45;svm&#45;strong&#45;linear&#45;baseline/activity/8625517105032459862&#45;&gt;http://purl.org/dj/kaggle/nb&#45;svm&#45;strong&#45;linear&#45;baseline/activity/7374930784906433764</title>
<path fill="none" stroke="black" d="M1499.33,-423.02C1473.2,-404.64 1438,-372.69 1438,-334 1438,-334 1438,-334 1438,-191 1438,-129.28 1033.95,-112.37 817.41,-107.74"/>
<polygon fill="black" stroke="black" points="817.31,-104.24 807.24,-107.53 817.17,-111.24 817.31,-104.24"/>
<text text-anchor="middle" x="1461.5" y="-275.3" font-family="Times,serif" font-size="14.00">previous</text>
</g>
<!-- http://purl.org/dj/kaggle/nb&#45;svm&#45;strong&#45;linear&#45;baseline/activity/6342808256331516628&#45;&gt;http://purl.org/dj/kaggle/nb&#45;svm&#45;strong&#45;linear&#45;baseline/activity/7374930784906433764 -->
<g id="edge13" class="edge">
<title>http://purl.org/dj/kaggle/nb&#45;svm&#45;strong&#45;linear&#45;baseline/activity/6342808256331516628&#45;&gt;http://purl.org/dj/kaggle/nb&#45;svm&#45;strong&#45;linear&#45;baseline/activity/7374930784906433764</title>
<path fill="none" stroke="black" d="M208.52,-315.02C226.66,-276.36 276.83,-181.99 351,-141 385.08,-122.16 474.71,-113.46 552.4,-109.44"/>
<polygon fill="black" stroke="black" points="552.97,-112.91 562.78,-108.92 552.62,-105.92 552.97,-112.91"/>
<text text-anchor="middle" x="283.5" y="-231.8" font-family="Times,serif" font-size="14.00">previous</text>
</g>
<!-- http://purl.org/dj/kaggle/nb&#45;svm&#45;strong&#45;linear&#45;baseline/activity/8057022784486903481&#45;&gt;http://purl.org/dj/kaggle/nb&#45;svm&#45;strong&#45;linear&#45;baseline/activity/8459774883158837523 -->
<g id="edge14" class="edge">
<title>http://purl.org/dj/kaggle/nb&#45;svm&#45;strong&#45;linear&#45;baseline/activity/8057022784486903481&#45;&gt;http://purl.org/dj/kaggle/nb&#45;svm&#45;strong&#45;linear&#45;baseline/activity/8459774883158837523</title>
<path fill="none" stroke="black" d="M659.73,-513.1C661.88,-518.69 663.92,-525 665,-531 666.37,-538.65 665.33,-546.84 663.35,-554.34"/>
<polygon fill="black" stroke="black" points="659.96,-553.43 660.2,-564.02 666.62,-555.59 659.96,-553.43"/>
<text text-anchor="middle" x="689.5" y="-534.8" font-family="Times,serif" font-size="14.00">previous</text>
</g>
<!-- http://purl.org/dj/kaggle/nb&#45;svm&#45;strong&#45;linear&#45;baseline/activity/8057022784486903481&#45;&gt;http://purl.org/dj/kaggle/nb&#45;svm&#45;strong&#45;linear&#45;baseline/activity/7374930784906433764 -->
<g id="edge15" class="edge">
<title>http://purl.org/dj/kaggle/nb&#45;svm&#45;strong&#45;linear&#45;baseline/activity/8057022784486903481&#45;&gt;http://purl.org/dj/kaggle/nb&#45;svm&#45;strong&#45;linear&#45;baseline/activity/7374930784906433764</title>
<path fill="none" stroke="black" d="M556.87,-481.09C503.68,-467.92 448,-441.38 448,-388 448,-388 448,-388 448,-191 448,-158.48 528.31,-134.98 595.23,-121.04"/>
<polygon fill="black" stroke="black" points="596.31,-124.39 605.42,-118.97 594.92,-117.53 596.31,-124.39"/>
<text text-anchor="middle" x="471.5" y="-275.3" font-family="Times,serif" font-size="14.00">previous</text>
</g>
<!-- http://purl.org/dj/kaggle/nb&#45;svm&#45;strong&#45;linear&#45;baseline/activity/&#45;5065981713943131626 -->
<g id="node10" class="node">
<title>http://purl.org/dj/kaggle/nb&#45;svm&#45;strong&#45;linear&#45;baseline/activity/&#45;5065981713943131626</title>
<ellipse fill="none" stroke="black" cx="846" cy="-279" rx="144.07" ry="18"/>
<text text-anchor="middle" x="846" y="-275.3" font-family="Times,serif" font-size="14.00">&#45;5065981713943131626 (Movement)</text>
</g>
<!-- http://purl.org/dj/kaggle/nb&#45;svm&#45;strong&#45;linear&#45;baseline/activity/8057022784486903481&#45;&gt;http://purl.org/dj/kaggle/nb&#45;svm&#45;strong&#45;linear&#45;baseline/activity/&#45;5065981713943131626 -->
<g id="edge16" class="edge">
<title>http://purl.org/dj/kaggle/nb&#45;svm&#45;strong&#45;linear&#45;baseline/activity/8057022784486903481&#45;&gt;http://purl.org/dj/kaggle/nb&#45;svm&#45;strong&#45;linear&#45;baseline/activity/&#45;5065981713943131626</title>
<path fill="none" stroke="black" d="M752.22,-481.66C766.15,-476.41 779.32,-469.11 790,-459 791.43,-457.65 822.61,-356.33 837.81,-306.75"/>
<polygon fill="black" stroke="black" points="841.22,-307.59 840.8,-297 834.52,-305.54 841.22,-307.59"/>
<text text-anchor="middle" x="841.5" y="-383.3" font-family="Times,serif" font-size="14.00">previous</text>
</g>
<!-- http://purl.org/dj/kaggle/nb&#45;svm&#45;strong&#45;linear&#45;baseline/activity/&#45;8443393232672672887 -->
<g id="node11" class="node">
<title>http://purl.org/dj/kaggle/nb&#45;svm&#45;strong&#45;linear&#45;baseline/activity/&#45;8443393232672672887</title>
<ellipse fill="none" stroke="black" cx="622" cy="-387" rx="145.67" ry="18"/>
<text text-anchor="middle" x="622" y="-383.3" font-family="Times,serif" font-size="14.00">&#45;8443393232672672887 (Preparation)</text>
</g>
<!-- http://purl.org/dj/kaggle/nb&#45;svm&#45;strong&#45;linear&#45;baseline/activity/8057022784486903481&#45;&gt;http://purl.org/dj/kaggle/nb&#45;svm&#45;strong&#45;linear&#45;baseline/activity/&#45;8443393232672672887 -->
<g id="edge17" class="edge">
<title>http://purl.org/dj/kaggle/nb&#45;svm&#45;strong&#45;linear&#45;baseline/activity/8057022784486903481&#45;&gt;http://purl.org/dj/kaggle/nb&#45;svm&#45;strong&#45;linear&#45;baseline/activity/&#45;8443393232672672887</title>
<path fill="none" stroke="black" d="M647.18,-476.97C642.46,-460.3 635.2,-434.65 629.69,-415.16"/>
<polygon fill="black" stroke="black" points="633,-414.01 626.91,-405.34 626.26,-415.92 633,-414.01"/>
<text text-anchor="middle" x="665.5" y="-437.3" font-family="Times,serif" font-size="14.00">previous</text>
</g>
<!-- http://purl.org/dj/kaggle/nb&#45;svm&#45;strong&#45;linear&#45;baseline/activity/3241204205226814210&#45;&gt;http://purl.org/dj/kaggle/nb&#45;svm&#45;strong&#45;linear&#45;baseline/activity/8459774883158837523 -->
<g id="edge18" class="edge">
<title>http://purl.org/dj/kaggle/nb&#45;svm&#45;strong&#45;linear&#45;baseline/activity/3241204205226814210&#45;&gt;http://purl.org/dj/kaggle/nb&#45;svm&#45;strong&#45;linear&#45;baseline/activity/8459774883158837523</title>
<path fill="none" stroke="black" d="M401.85,-511.2C426.72,-517.12 455.23,-524.13 481,-531 517.43,-540.72 557.93,-552.52 590.37,-562.21"/>
<polygon fill="black" stroke="black" points="589.59,-565.63 600.17,-565.15 591.6,-558.92 589.59,-565.63"/>
<text text-anchor="middle" x="556.5" y="-534.8" font-family="Times,serif" font-size="14.00">previous</text>
</g>
<!-- http://purl.org/dj/kaggle/nb&#45;svm&#45;strong&#45;linear&#45;baseline/activity/3241204205226814210&#45;&gt;http://purl.org/dj/kaggle/nb&#45;svm&#45;strong&#45;linear&#45;baseline/activity/7374930784906433764 -->
<g id="edge19" class="edge">
<title>http://purl.org/dj/kaggle/nb&#45;svm&#45;strong&#45;linear&#45;baseline/activity/3241204205226814210&#45;&gt;http://purl.org/dj/kaggle/nb&#45;svm&#45;strong&#45;linear&#45;baseline/activity/7374930784906433764</title>
<path fill="none" stroke="black" d="M343.77,-476.77C352.36,-456.11 365,-420.24 365,-388 365,-388 365,-388 365,-191 365,-147.77 475.76,-125.98 566.75,-115.36"/>
<polygon fill="black" stroke="black" points="567.35,-118.82 576.89,-114.22 566.56,-111.86 567.35,-118.82"/>
<text text-anchor="middle" x="388.5" y="-275.3" font-family="Times,serif" font-size="14.00">previous</text>
</g>
<!-- http://purl.org/dj/kaggle/nb&#45;svm&#45;strong&#45;linear&#45;baseline/activity/&#45;8546968110620193097&#45;&gt;http://purl.org/dj/kaggle/nb&#45;svm&#45;strong&#45;linear&#45;baseline/activity/&#45;5065981713943131626 -->
<g id="edge20" class="edge">
<title>http://purl.org/dj/kaggle/nb&#45;svm&#45;strong&#45;linear&#45;baseline/activity/&#45;8546968110620193097&#45;&gt;http://purl.org/dj/kaggle/nb&#45;svm&#45;strong&#45;linear&#45;baseline/activity/&#45;5065981713943131626</title>
<path fill="none" stroke="black" d="M937.11,-427.85C922.14,-422.58 907.83,-415.23 896,-405 867.15,-380.06 854.76,-336.14 849.58,-307.56"/>
<polygon fill="black" stroke="black" points="852.99,-306.73 847.92,-297.43 846.08,-307.86 852.99,-306.73"/>
<text text-anchor="middle" x="919.5" y="-383.3" font-family="Times,serif" font-size="14.00">previous</text>
</g>
<!-- http://purl.org/dj/kaggle/nb&#45;svm&#45;strong&#45;linear&#45;baseline/activity/&#45;5065981713943131626&#45;&gt;http://purl.org/dj/kaggle/nb&#45;svm&#45;strong&#45;linear&#45;baseline/activity/4854454211407642051 -->
<g id="edge24" class="edge">
<title>http://purl.org/dj/kaggle/nb&#45;svm&#45;strong&#45;linear&#45;baseline/activity/&#45;5065981713943131626&#45;&gt;http://purl.org/dj/kaggle/nb&#45;svm&#45;strong&#45;linear&#45;baseline/activity/4854454211407642051</title>
<path fill="none" stroke="black" d="M951.54,-266.66C994.21,-261.06 1043.75,-253.26 1088,-243 1097.86,-240.71 1145.19,-225.34 1184.98,-212.24"/>
<polygon fill="black" stroke="black" points="1186.24,-215.51 1194.64,-209.05 1184.05,-208.86 1186.24,-215.51"/>
<text text-anchor="middle" x="1157.5" y="-231.8" font-family="Times,serif" font-size="14.00">previous</text>
</g>
<!-- http://purl.org/dj/kaggle/nb&#45;svm&#45;strong&#45;linear&#45;baseline/activity/&#45;5065981713943131626&#45;&gt;http://purl.org/dj/kaggle/nb&#45;svm&#45;strong&#45;linear&#45;baseline/activity/7374930784906433764 -->
<g id="edge25" class="edge">
<title>http://purl.org/dj/kaggle/nb&#45;svm&#45;strong&#45;linear&#45;baseline/activity/&#45;5065981713943131626&#45;&gt;http://purl.org/dj/kaggle/nb&#45;svm&#45;strong&#45;linear&#45;baseline/activity/7374930784906433764</title>
<path fill="none" stroke="black" d="M829.87,-260.88C801.01,-230.23 740.41,-165.89 707.12,-130.55"/>
<polygon fill="black" stroke="black" points="709.46,-127.93 700.06,-123.05 704.37,-132.73 709.46,-127.93"/>
<text text-anchor="middle" x="805.5" y="-188.3" font-family="Times,serif" font-size="14.00">previous</text>
</g>
<!-- http://purl.org/dj/kaggle/nb&#45;svm&#45;strong&#45;linear&#45;baseline/activity/&#45;8443393232672672887&#45;&gt;http://purl.org/dj/kaggle/nb&#45;svm&#45;strong&#45;linear&#45;baseline/activity/7374930784906433764 -->
<g id="edge26" class="edge">
<title>http://purl.org/dj/kaggle/nb&#45;svm&#45;strong&#45;linear&#45;baseline/activity/&#45;8443393232672672887&#45;&gt;http://purl.org/dj/kaggle/nb&#45;svm&#45;strong&#45;linear&#45;baseline/activity/7374930784906433764</title>
<path fill="none" stroke="black" d="M625.79,-368.91C636.18,-321.95 665.26,-190.65 677.95,-133.34"/>
<polygon fill="black" stroke="black" points="681.44,-133.75 680.19,-123.23 674.61,-132.23 681.44,-133.75"/>
<text text-anchor="middle" x="680.5" y="-231.8" font-family="Times,serif" font-size="14.00">previous</text>
</g>
<!-- http://purl.org/dj/kaggle/nb&#45;svm&#45;strong&#45;linear&#45;baseline/activity/&#45;8443393232672672887&#45;&gt;http://purl.org/dj/kaggle/nb&#45;svm&#45;strong&#45;linear&#45;baseline/activity/&#45;5065981713943131626 -->
<g id="edge27" class="edge">
<title>http://purl.org/dj/kaggle/nb&#45;svm&#45;strong&#45;linear&#45;baseline/activity/&#45;8443393232672672887&#45;&gt;http://purl.org/dj/kaggle/nb&#45;svm&#45;strong&#45;linear&#45;baseline/activity/&#45;5065981713943131626</title>
<path fill="none" stroke="black" d="M647.15,-369.2C671.08,-353.72 708.45,-330.81 743,-315 755.71,-309.18 769.69,-303.8 783.13,-299.09"/>
<polygon fill="black" stroke="black" points="784.47,-302.34 792.8,-295.79 782.2,-295.71 784.47,-302.34"/>
<text text-anchor="middle" x="766.5" y="-329.3" font-family="Times,serif" font-size="14.00">previous</text>
</g>
<!-- http://purl.org/dj/kaggle/nb&#45;svm&#45;strong&#45;linear&#45;baseline/activity/&#45;2077984196904660461 -->
<g id="node12" class="node">
<title>http://purl.org/dj/kaggle/nb&#45;svm&#45;strong&#45;linear&#45;baseline/activity/&#45;2077984196904660461</title>
<ellipse fill="none" stroke="black" cx="1098" cy="-387" rx="145.67" ry="18"/>
<text text-anchor="middle" x="1098" y="-383.3" font-family="Times,serif" font-size="14.00">&#45;2077984196904660461 (Preparation)</text>
</g>
<!-- http://purl.org/dj/kaggle/nb&#45;svm&#45;strong&#45;linear&#45;baseline/activity/&#45;2077984196904660461&#45;&gt;http://purl.org/dj/kaggle/nb&#45;svm&#45;strong&#45;linear&#45;baseline/activity/4854454211407642051 -->
<g id="edge21" class="edge">
<title>http://purl.org/dj/kaggle/nb&#45;svm&#45;strong&#45;linear&#45;baseline/activity/&#45;2077984196904660461&#45;&gt;http://purl.org/dj/kaggle/nb&#45;svm&#45;strong&#45;linear&#45;baseline/activity/4854454211407642051</title>
<path fill="none" stroke="black" d="M1110.87,-368.87C1136.5,-334.75 1194.05,-258.15 1224.03,-218.25"/>
<polygon fill="black" stroke="black" points="1226.95,-220.19 1230.16,-210.09 1221.36,-215.98 1226.95,-220.19"/>
<text text-anchor="middle" x="1213.5" y="-275.3" font-family="Times,serif" font-size="14.00">previous</text>
</g>
<!-- http://purl.org/dj/kaggle/nb&#45;svm&#45;strong&#45;linear&#45;baseline/activity/&#45;2077984196904660461&#45;&gt;http://purl.org/dj/kaggle/nb&#45;svm&#45;strong&#45;linear&#45;baseline/activity/7374930784906433764 -->
<g id="edge22" class="edge">
<title>http://purl.org/dj/kaggle/nb&#45;svm&#45;strong&#45;linear&#45;baseline/activity/&#45;2077984196904660461&#45;&gt;http://purl.org/dj/kaggle/nb&#45;svm&#45;strong&#45;linear&#45;baseline/activity/7374930784906433764</title>
<path fill="none" stroke="black" d="M1087.69,-368.76C1071.47,-342.76 1037.8,-293.14 999,-261 919.93,-195.5 808.52,-149.08 741.57,-125"/>
<polygon fill="black" stroke="black" points="742.62,-121.66 732.02,-121.61 740.27,-128.25 742.62,-121.66"/>
<text text-anchor="middle" x="997.5" y="-231.8" font-family="Times,serif" font-size="14.00">previous</text>
</g>
<!-- http://purl.org/dj/kaggle/nb&#45;svm&#45;strong&#45;linear&#45;baseline/activity/&#45;2077984196904660461&#45;&gt;http://purl.org/dj/kaggle/nb&#45;svm&#45;strong&#45;linear&#45;baseline/activity/&#45;5065981713943131626 -->
<g id="edge23" class="edge">
<title>http://purl.org/dj/kaggle/nb&#45;svm&#45;strong&#45;linear&#45;baseline/activity/&#45;2077984196904660461&#45;&gt;http://purl.org/dj/kaggle/nb&#45;svm&#45;strong&#45;linear&#45;baseline/activity/&#45;5065981713943131626</title>
<path fill="none" stroke="black" d="M1034.72,-370.7C1015.55,-365.31 994.65,-358.66 976,-351 942.59,-337.28 906.71,-317.25 881.13,-301.95"/>
<polygon fill="black" stroke="black" points="882.9,-298.94 872.53,-296.76 879.28,-304.93 882.9,-298.94"/>
<text text-anchor="middle" x="999.5" y="-329.3" font-family="Times,serif" font-size="14.00">previous</text>
</g>
<!-- http://purl.org/dj/kaggle/nb&#45;svm&#45;strong&#45;linear&#45;baseline/activity/1285933338326598339 -->
<g id="node13" class="node">
<title>http://purl.org/dj/kaggle/nb&#45;svm&#45;strong&#45;linear&#45;baseline/activity/1285933338326598339</title>
<ellipse fill="none" stroke="black" cx="968" cy="-495" rx="148.67" ry="18"/>
<text text-anchor="middle" x="968" y="-491.3" font-family="Times,serif" font-size="14.00">1285933338326598339 (Visualisation)</text>
</g>
<!-- http://purl.org/dj/kaggle/nb&#45;svm&#45;strong&#45;linear&#45;baseline/activity/1285933338326598339&#45;&gt;http://purl.org/dj/kaggle/nb&#45;svm&#45;strong&#45;linear&#45;baseline/activity/&#45;8443393232672672887 -->
<g id="edge28" class="edge">
<title>http://purl.org/dj/kaggle/nb&#45;svm&#45;strong&#45;linear&#45;baseline/activity/1285933338326598339&#45;&gt;http://purl.org/dj/kaggle/nb&#45;svm&#45;strong&#45;linear&#45;baseline/activity/&#45;8443393232672672887</title>
<path fill="none" stroke="black" d="M906.19,-478.62C883.69,-472.79 858.11,-465.89 835,-459 781.11,-442.95 720.31,-422.44 677.51,-407.6"/>
<polygon fill="black" stroke="black" points="678.44,-404.21 667.85,-404.23 676.14,-410.83 678.44,-404.21"/>
<text text-anchor="middle" x="858.5" y="-437.3" font-family="Times,serif" font-size="14.00">previous</text>
</g>
</g>
</svg>
