<?xml version="1.0" encoding="UTF-8" standalone="no"?>
<!DOCTYPE svg PUBLIC "-//W3C//DTD SVG 1.1//EN"
 "http://www.w3.org/Graphics/SVG/1.1/DTD/svg11.dtd">
<!-- Generated by graphviz version 2.47.1 (20210417.1919)
 -->
<!-- Pages: 1 -->
<svg width="3617pt" height="827pt"
 viewBox="0.00 0.00 3617.27 827.00" xmlns="http://www.w3.org/2000/svg" xmlns:xlink="http://www.w3.org/1999/xlink">
<g id="graph0" class="graph" transform="scale(1 1) rotate(0) translate(4 823)">
<polygon fill="white" stroke="transparent" points="-4,4 -4,-823 3613.27,-823 3613.27,4 -4,4"/>
<!-- http://purl.org/dj/kaggle/nfl&#45;analytics/activity/7816290267117503182 -->
<g id="node1" class="node">
<title>http://purl.org/dj/kaggle/nfl&#45;analytics/activity/7816290267117503182</title>
<ellipse fill="none" stroke="black" cx="640.44" cy="-627" rx="148.67" ry="18"/>
<text text-anchor="middle" x="640.44" y="-623.3" font-family="Times,serif" font-size="14.00">7816290267117503182 (Visualisation)</text>
</g>
<!-- http://purl.org/dj/kaggle/nfl&#45;analytics/activity/446724463507038564 -->
<g id="node2" class="node">
<title>http://purl.org/dj/kaggle/nfl&#45;analytics/activity/446724463507038564</title>
<ellipse fill="none" stroke="black" cx="629.44" cy="-366" rx="138.38" ry="18"/>
<text text-anchor="middle" x="629.44" y="-362.3" font-family="Times,serif" font-size="14.00">446724463507038564 (Preparation)</text>
</g>
<!-- http://purl.org/dj/kaggle/nfl&#45;analytics/activity/7816290267117503182&#45;&gt;http://purl.org/dj/kaggle/nfl&#45;analytics/activity/446724463507038564 -->
<g id="edge1" class="edge">
<title>http://purl.org/dj/kaggle/nfl&#45;analytics/activity/7816290267117503182&#45;&gt;http://purl.org/dj/kaggle/nfl&#45;analytics/activity/446724463507038564</title>
<path fill="none" stroke="black" d="M639.7,-608.6C637.82,-564.46 632.87,-447.83 630.6,-394.42"/>
<polygon fill="black" stroke="black" points="634.09,-394.16 630.17,-384.32 627.1,-394.46 634.09,-394.16"/>
<text text-anchor="middle" x="658.94" y="-492.8" font-family="Times,serif" font-size="14.00">previous</text>
</g>
<!-- http://purl.org/dj/kaggle/nfl&#45;analytics/activity/&#45;8098249252185662729 -->
<g id="node3" class="node">
<title>http://purl.org/dj/kaggle/nfl&#45;analytics/activity/&#45;8098249252185662729</title>
<ellipse fill="none" stroke="black" cx="466.44" cy="-540" rx="145.67" ry="18"/>
<text text-anchor="middle" x="466.44" y="-536.3" font-family="Times,serif" font-size="14.00">&#45;8098249252185662729 (Preparation)</text>
</g>
<!-- http://purl.org/dj/kaggle/nfl&#45;analytics/activity/7816290267117503182&#45;&gt;http://purl.org/dj/kaggle/nfl&#45;analytics/activity/&#45;8098249252185662729 -->
<g id="edge2" class="edge">
<title>http://purl.org/dj/kaggle/nfl&#45;analytics/activity/7816290267117503182&#45;&gt;http://purl.org/dj/kaggle/nfl&#45;analytics/activity/&#45;8098249252185662729</title>
<path fill="none" stroke="black" d="M545.14,-613.14C528.58,-608.02 512.27,-600.91 498.44,-591 489.98,-584.94 483.22,-575.89 478.13,-567.14"/>
<polygon fill="black" stroke="black" points="481.2,-565.47 473.43,-558.28 475.02,-568.75 481.2,-565.47"/>
<text text-anchor="middle" x="521.94" y="-579.8" font-family="Times,serif" font-size="14.00">previous</text>
</g>
<!-- http://purl.org/dj/kaggle/nfl&#45;analytics/activity/&#45;3335142457869034757 -->
<g id="node4" class="node">
<title>http://purl.org/dj/kaggle/nfl&#45;analytics/activity/&#45;3335142457869034757</title>
<ellipse fill="none" stroke="black" cx="1466.44" cy="-105" rx="126.98" ry="18"/>
<text text-anchor="middle" x="1466.44" y="-101.3" font-family="Times,serif" font-size="14.00">&#45;3335142457869034757 (Reuse)</text>
</g>
<!-- http://purl.org/dj/kaggle/nfl&#45;analytics/activity/446724463507038564&#45;&gt;http://purl.org/dj/kaggle/nfl&#45;analytics/activity/&#45;3335142457869034757 -->
<g id="edge3" class="edge">
<title>http://purl.org/dj/kaggle/nfl&#45;analytics/activity/446724463507038564&#45;&gt;http://purl.org/dj/kaggle/nfl&#45;analytics/activity/&#45;3335142457869034757</title>
<path fill="none" stroke="black" d="M628.82,-347.81C628.48,-309.97 633.44,-219.26 685.44,-174 733.07,-132.54 1122.09,-115.46 1332.49,-109.19"/>
<polygon fill="black" stroke="black" points="1332.79,-112.69 1342.68,-108.89 1332.58,-105.69 1332.79,-112.69"/>
<text text-anchor="middle" x="671.94" y="-231.8" font-family="Times,serif" font-size="14.00">previous</text>
</g>
<!-- http://purl.org/dj/kaggle/nfl&#45;analytics/activity/&#45;6130076714448481109 -->
<g id="node5" class="node">
<title>http://purl.org/dj/kaggle/nfl&#45;analytics/activity/&#45;6130076714448481109</title>
<ellipse fill="none" stroke="black" cx="840.44" cy="-279" rx="126.98" ry="18"/>
<text text-anchor="middle" x="840.44" y="-275.3" font-family="Times,serif" font-size="14.00">&#45;6130076714448481109 (Reuse)</text>
</g>
<!-- http://purl.org/dj/kaggle/nfl&#45;analytics/activity/446724463507038564&#45;&gt;http://purl.org/dj/kaggle/nfl&#45;analytics/activity/&#45;6130076714448481109 -->
<g id="edge4" class="edge">
<title>http://purl.org/dj/kaggle/nfl&#45;analytics/activity/446724463507038564&#45;&gt;http://purl.org/dj/kaggle/nfl&#45;analytics/activity/&#45;6130076714448481109</title>
<path fill="none" stroke="black" d="M670.12,-348.61C704.53,-334.75 753.95,-314.84 790.71,-300.03"/>
<polygon fill="black" stroke="black" points="792.27,-303.18 800.24,-296.19 789.65,-296.68 792.27,-303.18"/>
<text text-anchor="middle" x="771.94" y="-318.8" font-family="Times,serif" font-size="14.00">previous</text>
</g>
<!-- http://purl.org/dj/kaggle/nfl&#45;analytics/activity/&#45;8098249252185662729&#45;&gt;http://purl.org/dj/kaggle/nfl&#45;analytics/activity/&#45;3335142457869034757 -->
<g id="edge5" class="edge">
<title>http://purl.org/dj/kaggle/nfl&#45;analytics/activity/&#45;8098249252185662729&#45;&gt;http://purl.org/dj/kaggle/nfl&#45;analytics/activity/&#45;3335142457869034757</title>
<path fill="none" stroke="black" d="M378.41,-525.61C365.8,-520.51 353.91,-513.53 344.44,-504 328.17,-487.63 330.44,-477.08 330.44,-454 330.44,-454 330.44,-454 330.44,-191 330.44,-141.26 1032.24,-117.2 1332.62,-109.18"/>
<polygon fill="black" stroke="black" points="1332.8,-112.67 1342.7,-108.91 1332.61,-105.68 1332.8,-112.67"/>
<text text-anchor="middle" x="353.94" y="-318.8" font-family="Times,serif" font-size="14.00">previous</text>
</g>
<!-- http://purl.org/dj/kaggle/nfl&#45;analytics/activity/&#45;4593134982911746239 -->
<g id="node6" class="node">
<title>http://purl.org/dj/kaggle/nfl&#45;analytics/activity/&#45;4593134982911746239</title>
<ellipse fill="none" stroke="black" cx="485.44" cy="-453" rx="126.98" ry="18"/>
<text text-anchor="middle" x="485.44" y="-449.3" font-family="Times,serif" font-size="14.00">&#45;4593134982911746239 (Reuse)</text>
</g>
<!-- http://purl.org/dj/kaggle/nfl&#45;analytics/activity/&#45;8098249252185662729&#45;&gt;http://purl.org/dj/kaggle/nfl&#45;analytics/activity/&#45;4593134982911746239 -->
<g id="edge6" class="edge">
<title>http://purl.org/dj/kaggle/nfl&#45;analytics/activity/&#45;8098249252185662729&#45;&gt;http://purl.org/dj/kaggle/nfl&#45;analytics/activity/&#45;4593134982911746239</title>
<path fill="none" stroke="black" d="M470.28,-521.8C472.88,-510.16 476.37,-494.55 479.35,-481.24"/>
<polygon fill="black" stroke="black" points="482.83,-481.7 481.6,-471.18 476,-480.17 482.83,-481.7"/>
<text text-anchor="middle" x="500.94" y="-492.8" font-family="Times,serif" font-size="14.00">previous</text>
</g>
<!-- http://purl.org/dj/kaggle/nfl&#45;analytics -->
<g id="node7" class="node">
<title>http://purl.org/dj/kaggle/nfl&#45;analytics</title>
<ellipse fill="none" stroke="black" cx="1466.44" cy="-18" rx="128.08" ry="18"/>
<text text-anchor="middle" x="1466.44" y="-14.3" font-family="Times,serif" font-size="14.00">nfl&#45;analytics (nfl&#45;analytics.ipynb)</text>
</g>
<!-- http://purl.org/dj/kaggle/nfl&#45;analytics/activity/&#45;3335142457869034757&#45;&gt;http://purl.org/dj/kaggle/nfl&#45;analytics -->
<g id="edge7" class="edge">
<title>http://purl.org/dj/kaggle/nfl&#45;analytics/activity/&#45;3335142457869034757&#45;&gt;http://purl.org/dj/kaggle/nfl&#45;analytics</title>
<path fill="none" stroke="black" d="M1466.44,-86.8C1466.44,-75.16 1466.44,-59.55 1466.44,-46.24"/>
<polygon fill="black" stroke="black" points="1469.94,-46.18 1466.44,-36.18 1462.94,-46.18 1469.94,-46.18"/>
<text text-anchor="middle" x="1489.94" y="-57.8" font-family="Times,serif" font-size="14.00">previous</text>
</g>
<!-- http://purl.org/dj/kaggle/nfl&#45;analytics/activity/&#45;7002209129394351884 -->
<g id="node8" class="node">
<title>http://purl.org/dj/kaggle/nfl&#45;analytics/activity/&#45;7002209129394351884</title>
<ellipse fill="none" stroke="black" cx="840.44" cy="-192" rx="145.67" ry="18"/>
<text text-anchor="middle" x="840.44" y="-188.3" font-family="Times,serif" font-size="14.00">&#45;7002209129394351884 (Preparation)</text>
</g>
<!-- http://purl.org/dj/kaggle/nfl&#45;analytics/activity/&#45;6130076714448481109&#45;&gt;http://purl.org/dj/kaggle/nfl&#45;analytics/activity/&#45;7002209129394351884 -->
<g id="edge8" class="edge">
<title>http://purl.org/dj/kaggle/nfl&#45;analytics/activity/&#45;6130076714448481109&#45;&gt;http://purl.org/dj/kaggle/nfl&#45;analytics/activity/&#45;7002209129394351884</title>
<path fill="none" stroke="black" d="M840.44,-260.8C840.44,-249.16 840.44,-233.55 840.44,-220.24"/>
<polygon fill="black" stroke="black" points="843.94,-220.18 840.44,-210.18 836.94,-220.18 843.94,-220.18"/>
<text text-anchor="middle" x="863.94" y="-231.8" font-family="Times,serif" font-size="14.00">previous</text>
</g>
<!-- http://purl.org/dj/kaggle/nfl&#45;analytics/activity/&#45;4593134982911746239&#45;&gt;http://purl.org/dj/kaggle/nfl&#45;analytics/activity/446724463507038564 -->
<g id="edge9" class="edge">
<title>http://purl.org/dj/kaggle/nfl&#45;analytics/activity/&#45;4593134982911746239&#45;&gt;http://purl.org/dj/kaggle/nfl&#45;analytics/activity/446724463507038564</title>
<path fill="none" stroke="black" d="M513.54,-435.41C536,-422.16 567.66,-403.47 592.21,-388.97"/>
<polygon fill="black" stroke="black" points="594.08,-391.94 600.91,-383.84 590.52,-385.91 594.08,-391.94"/>
<text text-anchor="middle" x="589.94" y="-405.8" font-family="Times,serif" font-size="14.00">previous</text>
</g>
<!-- http://purl.org/dj/kaggle/nfl&#45;analytics/activity/&#45;7002209129394351884&#45;&gt;http://purl.org/dj/kaggle/nfl&#45;analytics/activity/&#45;3335142457869034757 -->
<g id="edge10" class="edge">
<title>http://purl.org/dj/kaggle/nfl&#45;analytics/activity/&#45;7002209129394351884&#45;&gt;http://purl.org/dj/kaggle/nfl&#45;analytics/activity/&#45;3335142457869034757</title>
<path fill="none" stroke="black" d="M870.58,-174.19C892.77,-162.69 924.07,-148.26 953.44,-141 1022.73,-123.87 1205.64,-114.48 1333.17,-109.85"/>
<polygon fill="black" stroke="black" points="1333.54,-113.34 1343.41,-109.48 1333.29,-106.34 1333.54,-113.34"/>
<text text-anchor="middle" x="976.94" y="-144.8" font-family="Times,serif" font-size="14.00">previous</text>
</g>
<!-- http://purl.org/dj/kaggle/nfl&#45;analytics/activity/2079431911748844213 -->
<g id="node9" class="node">
<title>http://purl.org/dj/kaggle/nfl&#45;analytics/activity/2079431911748844213</title>
<ellipse fill="none" stroke="black" cx="866.44" cy="-453" rx="148.67" ry="18"/>
<text text-anchor="middle" x="866.44" y="-449.3" font-family="Times,serif" font-size="14.00">2079431911748844213 (Visualisation)</text>
</g>
<!-- http://purl.org/dj/kaggle/nfl&#45;analytics/activity/2079431911748844213&#45;&gt;http://purl.org/dj/kaggle/nfl&#45;analytics/activity/446724463507038564 -->
<g id="edge11" class="edge">
<title>http://purl.org/dj/kaggle/nfl&#45;analytics/activity/2079431911748844213&#45;&gt;http://purl.org/dj/kaggle/nfl&#45;analytics/activity/446724463507038564</title>
<path fill="none" stroke="black" d="M821.3,-435.81C782.18,-421.78 725.46,-401.44 683.84,-386.51"/>
<polygon fill="black" stroke="black" points="685,-383.21 674.4,-383.13 682.64,-389.8 685,-383.21"/>
<text text-anchor="middle" x="785.94" y="-405.8" font-family="Times,serif" font-size="14.00">previous</text>
</g>
<!-- http://purl.org/dj/kaggle/nfl&#45;analytics/activity/&#45;2879980397514527884 -->
<g id="node10" class="node">
<title>http://purl.org/dj/kaggle/nfl&#45;analytics/activity/&#45;2879980397514527884</title>
<ellipse fill="none" stroke="black" cx="931.44" cy="-366" rx="145.67" ry="18"/>
<text text-anchor="middle" x="931.44" y="-362.3" font-family="Times,serif" font-size="14.00">&#45;2879980397514527884 (Preparation)</text>
</g>
<!-- http://purl.org/dj/kaggle/nfl&#45;analytics/activity/2079431911748844213&#45;&gt;http://purl.org/dj/kaggle/nfl&#45;analytics/activity/&#45;2879980397514527884 -->
<g id="edge12" class="edge">
<title>http://purl.org/dj/kaggle/nfl&#45;analytics/activity/2079431911748844213&#45;&gt;http://purl.org/dj/kaggle/nfl&#45;analytics/activity/&#45;2879980397514527884</title>
<path fill="none" stroke="black" d="M879.59,-434.8C888.93,-422.59 901.62,-405.99 912.11,-392.28"/>
<polygon fill="black" stroke="black" points="915.01,-394.25 918.3,-384.18 909.45,-389.99 915.01,-394.25"/>
<text text-anchor="middle" x="926.94" y="-405.8" font-family="Times,serif" font-size="14.00">previous</text>
</g>
<!-- http://purl.org/dj/kaggle/nfl&#45;analytics/activity/&#45;2879980397514527884&#45;&gt;http://purl.org/dj/kaggle/nfl&#45;analytics/activity/&#45;3335142457869034757 -->
<g id="edge13" class="edge">
<title>http://purl.org/dj/kaggle/nfl&#45;analytics/activity/&#45;2879980397514527884&#45;&gt;http://purl.org/dj/kaggle/nfl&#45;analytics/activity/&#45;3335142457869034757</title>
<path fill="none" stroke="black" d="M944.12,-347.99C953.76,-334.59 966.93,-315.19 976.44,-297 1010.98,-230.87 978.46,-185.38 1038.44,-141 1061.89,-123.64 1216.74,-114.43 1333.49,-109.88"/>
<polygon fill="black" stroke="black" points="1333.74,-113.38 1343.6,-109.5 1333.47,-106.38 1333.74,-113.38"/>
<text text-anchor="middle" x="1019.94" y="-231.8" font-family="Times,serif" font-size="14.00">previous</text>
</g>
<!-- http://purl.org/dj/kaggle/nfl&#45;analytics/activity/&#45;2879980397514527884&#45;&gt;http://purl.org/dj/kaggle/nfl&#45;analytics/activity/&#45;6130076714448481109 -->
<g id="edge14" class="edge">
<title>http://purl.org/dj/kaggle/nfl&#45;analytics/activity/&#45;2879980397514527884&#45;&gt;http://purl.org/dj/kaggle/nfl&#45;analytics/activity/&#45;6130076714448481109</title>
<path fill="none" stroke="black" d="M913.02,-347.8C899.49,-335.16 880.93,-317.82 865.97,-303.85"/>
<polygon fill="black" stroke="black" points="868.21,-301.15 858.51,-296.89 863.43,-306.27 868.21,-301.15"/>
<text text-anchor="middle" x="914.94" y="-318.8" font-family="Times,serif" font-size="14.00">previous</text>
</g>
<!-- http://purl.org/dj/kaggle/nfl&#45;analytics/activity/5268415524606762434 -->
<g id="node11" class="node">
<title>http://purl.org/dj/kaggle/nfl&#45;analytics/activity/5268415524606762434</title>
<ellipse fill="none" stroke="black" cx="1229.44" cy="-279" rx="124.28" ry="18"/>
<text text-anchor="middle" x="1229.44" y="-275.3" font-family="Times,serif" font-size="14.00">5268415524606762434 (Reuse)</text>
</g>
<!-- http://purl.org/dj/kaggle/nfl&#45;analytics/activity/7222546769187300816 -->
<g id="node12" class="node">
<title>http://purl.org/dj/kaggle/nfl&#45;analytics/activity/7222546769187300816</title>
<ellipse fill="none" stroke="black" cx="1229.44" cy="-192" rx="148.67" ry="18"/>
<text text-anchor="middle" x="1229.44" y="-188.3" font-family="Times,serif" font-size="14.00">7222546769187300816 (Visualisation)</text>
</g>
<!-- http://purl.org/dj/kaggle/nfl&#45;analytics/activity/5268415524606762434&#45;&gt;http://purl.org/dj/kaggle/nfl&#45;analytics/activity/7222546769187300816 -->
<g id="edge15" class="edge">
<title>http://purl.org/dj/kaggle/nfl&#45;analytics/activity/5268415524606762434&#45;&gt;http://purl.org/dj/kaggle/nfl&#45;analytics/activity/7222546769187300816</title>
<path fill="none" stroke="black" d="M1229.44,-260.8C1229.44,-249.16 1229.44,-233.55 1229.44,-220.24"/>
<polygon fill="black" stroke="black" points="1232.94,-220.18 1229.44,-210.18 1225.94,-220.18 1232.94,-220.18"/>
<text text-anchor="middle" x="1252.94" y="-231.8" font-family="Times,serif" font-size="14.00">previous</text>
</g>
<!-- http://purl.org/dj/kaggle/nfl&#45;analytics/activity/7222546769187300816&#45;&gt;http://purl.org/dj/kaggle/nfl&#45;analytics/activity/&#45;3335142457869034757 -->
<g id="edge16" class="edge">
<title>http://purl.org/dj/kaggle/nfl&#45;analytics/activity/7222546769187300816&#45;&gt;http://purl.org/dj/kaggle/nfl&#45;analytics/activity/&#45;3335142457869034757</title>
<path fill="none" stroke="black" d="M1274.57,-174.81C1313.82,-160.74 1370.77,-140.31 1412.43,-125.37"/>
<polygon fill="black" stroke="black" points="1413.64,-128.65 1421.87,-121.98 1411.28,-122.07 1413.64,-128.65"/>
<text text-anchor="middle" x="1385.94" y="-144.8" font-family="Times,serif" font-size="14.00">previous</text>
</g>
<!-- http://purl.org/dj/kaggle/nfl&#45;analytics/activity/3606447369785499123 -->
<g id="node13" class="node">
<title>http://purl.org/dj/kaggle/nfl&#45;analytics/activity/3606447369785499123</title>
<ellipse fill="none" stroke="black" cx="1545.44" cy="-192" rx="148.67" ry="18"/>
<text text-anchor="middle" x="1545.44" y="-188.3" font-family="Times,serif" font-size="14.00">3606447369785499123 (Visualisation)</text>
</g>
<!-- http://purl.org/dj/kaggle/nfl&#45;analytics/activity/3606447369785499123&#45;&gt;http://purl.org/dj/kaggle/nfl&#45;analytics/activity/&#45;3335142457869034757 -->
<g id="edge17" class="edge">
<title>http://purl.org/dj/kaggle/nfl&#45;analytics/activity/3606447369785499123&#45;&gt;http://purl.org/dj/kaggle/nfl&#45;analytics/activity/&#45;3335142457869034757</title>
<path fill="none" stroke="black" d="M1529.45,-173.8C1517.81,-161.27 1501.88,-144.14 1488.96,-130.23"/>
<polygon fill="black" stroke="black" points="1491.5,-127.83 1482.13,-122.89 1486.37,-132.59 1491.5,-127.83"/>
<text text-anchor="middle" x="1534.94" y="-144.8" font-family="Times,serif" font-size="14.00">previous</text>
</g>
<!-- http://purl.org/dj/kaggle/nfl&#45;analytics/activity/6378970746291041245 -->
<g id="node14" class="node">
<title>http://purl.org/dj/kaggle/nfl&#45;analytics/activity/6378970746291041245</title>
<ellipse fill="none" stroke="black" cx="1861.44" cy="-192" rx="148.67" ry="18"/>
<text text-anchor="middle" x="1861.44" y="-188.3" font-family="Times,serif" font-size="14.00">6378970746291041245 (Visualisation)</text>
</g>
<!-- http://purl.org/dj/kaggle/nfl&#45;analytics/activity/6378970746291041245&#45;&gt;http://purl.org/dj/kaggle/nfl&#45;analytics/activity/&#45;3335142457869034757 -->
<g id="edge18" class="edge">
<title>http://purl.org/dj/kaggle/nfl&#45;analytics/activity/6378970746291041245&#45;&gt;http://purl.org/dj/kaggle/nfl&#45;analytics/activity/&#45;3335142457869034757</title>
<path fill="none" stroke="black" d="M1791.73,-176C1722.03,-161 1615.12,-137.99 1543.07,-122.49"/>
<polygon fill="black" stroke="black" points="1543.66,-119.04 1533.15,-120.36 1542.19,-125.88 1543.66,-119.04"/>
<text text-anchor="middle" x="1711.94" y="-144.8" font-family="Times,serif" font-size="14.00">previous</text>
</g>
<!-- http://purl.org/dj/kaggle/nfl&#45;analytics/activity/5992072710902794683 -->
<g id="node15" class="node">
<title>http://purl.org/dj/kaggle/nfl&#45;analytics/activity/5992072710902794683</title>
<ellipse fill="none" stroke="black" cx="349.44" cy="-714" rx="148.67" ry="18"/>
<text text-anchor="middle" x="349.44" y="-710.3" font-family="Times,serif" font-size="14.00">5992072710902794683 (Visualisation)</text>
</g>
<!-- http://purl.org/dj/kaggle/nfl&#45;analytics/activity/3552844270682830616 -->
<g id="node16" class="node">
<title>http://purl.org/dj/kaggle/nfl&#45;analytics/activity/3552844270682830616</title>
<ellipse fill="none" stroke="black" cx="349.44" cy="-627" rx="124.28" ry="18"/>
<text text-anchor="middle" x="349.44" y="-623.3" font-family="Times,serif" font-size="14.00">3552844270682830616 (Reuse)</text>
</g>
<!-- http://purl.org/dj/kaggle/nfl&#45;analytics/activity/5992072710902794683&#45;&gt;http://purl.org/dj/kaggle/nfl&#45;analytics/activity/3552844270682830616 -->
<g id="edge19" class="edge">
<title>http://purl.org/dj/kaggle/nfl&#45;analytics/activity/5992072710902794683&#45;&gt;http://purl.org/dj/kaggle/nfl&#45;analytics/activity/3552844270682830616</title>
<path fill="none" stroke="black" d="M349.44,-695.8C349.44,-684.16 349.44,-668.55 349.44,-655.24"/>
<polygon fill="black" stroke="black" points="352.94,-655.18 349.44,-645.18 345.94,-655.18 352.94,-655.18"/>
<text text-anchor="middle" x="372.94" y="-666.8" font-family="Times,serif" font-size="14.00">previous</text>
</g>
<!-- http://purl.org/dj/kaggle/nfl&#45;analytics/activity/3552844270682830616&#45;&gt;http://purl.org/dj/kaggle/nfl&#45;analytics/activity/&#45;8098249252185662729 -->
<g id="edge20" class="edge">
<title>http://purl.org/dj/kaggle/nfl&#45;analytics/activity/3552844270682830616&#45;&gt;http://purl.org/dj/kaggle/nfl&#45;analytics/activity/&#45;8098249252185662729</title>
<path fill="none" stroke="black" d="M367.3,-609.15C378.44,-599.02 393.3,-586.17 407.44,-576 413.62,-571.55 420.39,-567.15 427.08,-563.03"/>
<polygon fill="black" stroke="black" points="429.3,-565.78 436.08,-557.63 425.7,-559.78 429.3,-565.78"/>
<text text-anchor="middle" x="430.94" y="-579.8" font-family="Times,serif" font-size="14.00">previous</text>
</g>
<!-- http://purl.org/dj/kaggle/nfl&#45;analytics/activity/&#45;7385682572776629630 -->
<g id="node17" class="node">
<title>http://purl.org/dj/kaggle/nfl&#45;analytics/activity/&#45;7385682572776629630</title>
<ellipse fill="none" stroke="black" cx="2179.44" cy="-192" rx="151.37" ry="18"/>
<text text-anchor="middle" x="2179.44" y="-188.3" font-family="Times,serif" font-size="14.00">&#45;7385682572776629630 (Visualisation)</text>
</g>
<!-- http://purl.org/dj/kaggle/nfl&#45;analytics/activity/&#45;7385682572776629630&#45;&gt;http://purl.org/dj/kaggle/nfl&#45;analytics/activity/&#45;3335142457869034757 -->
<g id="edge21" class="edge">
<title>http://purl.org/dj/kaggle/nfl&#45;analytics/activity/&#45;7385682572776629630&#45;&gt;http://purl.org/dj/kaggle/nfl&#45;analytics/activity/&#45;3335142457869034757</title>
<path fill="none" stroke="black" d="M2076.52,-178.73C1941.45,-162.63 1705.7,-134.52 1570.21,-118.37"/>
<polygon fill="black" stroke="black" points="1570.57,-114.89 1560.23,-117.18 1569.74,-121.84 1570.57,-114.89"/>
<text text-anchor="middle" x="1889.94" y="-144.8" font-family="Times,serif" font-size="14.00">previous</text>
</g>
<!-- http://purl.org/dj/kaggle/nfl&#45;analytics/activity/&#45;5739365686775954221 -->
<g id="node18" class="node">
<title>http://purl.org/dj/kaggle/nfl&#45;analytics/activity/&#45;5739365686775954221</title>
<ellipse fill="none" stroke="black" cx="2500.44" cy="-192" rx="151.37" ry="18"/>
<text text-anchor="middle" x="2500.44" y="-188.3" font-family="Times,serif" font-size="14.00">&#45;5739365686775954221 (Visualisation)</text>
</g>
<!-- http://purl.org/dj/kaggle/nfl&#45;analytics/activity/&#45;5739365686775954221&#45;&gt;http://purl.org/dj/kaggle/nfl&#45;analytics/activity/&#45;3335142457869034757 -->
<g id="edge22" class="edge">
<title>http://purl.org/dj/kaggle/nfl&#45;analytics/activity/&#45;5739365686775954221&#45;&gt;http://purl.org/dj/kaggle/nfl&#45;analytics/activity/&#45;3335142457869034757</title>
<path fill="none" stroke="black" d="M2393.09,-179.26C2375.18,-177.41 2356.79,-175.59 2339.44,-174 2071.47,-149.38 1756.7,-126.3 1587.96,-114.4"/>
<polygon fill="black" stroke="black" points="1588.02,-110.89 1577.8,-113.68 1587.53,-117.87 1588.02,-110.89"/>
<text text-anchor="middle" x="2147.94" y="-144.8" font-family="Times,serif" font-size="14.00">previous</text>
</g>
<!-- http://purl.org/dj/kaggle/nfl&#45;analytics/activity/7936263644736490806 -->
<g id="node19" class="node">
<title>http://purl.org/dj/kaggle/nfl&#45;analytics/activity/7936263644736490806</title>
<ellipse fill="none" stroke="black" cx="1049.44" cy="-801" rx="124.28" ry="18"/>
<text text-anchor="middle" x="1049.44" y="-797.3" font-family="Times,serif" font-size="14.00">7936263644736490806 (Reuse)</text>
</g>
<!-- http://purl.org/dj/kaggle/nfl&#45;analytics/activity/8668751553421341972 -->
<g id="node20" class="node">
<title>http://purl.org/dj/kaggle/nfl&#45;analytics/activity/8668751553421341972</title>
<ellipse fill="none" stroke="black" cx="1049.44" cy="-714" rx="142.97" ry="18"/>
<text text-anchor="middle" x="1049.44" y="-710.3" font-family="Times,serif" font-size="14.00">8668751553421341972 (Preparation)</text>
</g>
<!-- http://purl.org/dj/kaggle/nfl&#45;analytics/activity/7936263644736490806&#45;&gt;http://purl.org/dj/kaggle/nfl&#45;analytics/activity/8668751553421341972 -->
<g id="edge23" class="edge">
<title>http://purl.org/dj/kaggle/nfl&#45;analytics/activity/7936263644736490806&#45;&gt;http://purl.org/dj/kaggle/nfl&#45;analytics/activity/8668751553421341972</title>
<path fill="none" stroke="black" d="M1049.44,-782.8C1049.44,-771.16 1049.44,-755.55 1049.44,-742.24"/>
<polygon fill="black" stroke="black" points="1052.94,-742.18 1049.44,-732.18 1045.94,-742.18 1052.94,-742.18"/>
<text text-anchor="middle" x="1072.94" y="-753.8" font-family="Times,serif" font-size="14.00">previous</text>
</g>
<!-- http://purl.org/dj/kaggle/nfl&#45;analytics/activity/8668751553421341972&#45;&gt;http://purl.org/dj/kaggle/nfl&#45;analytics/activity/&#45;3335142457869034757 -->
<g id="edge24" class="edge">
<title>http://purl.org/dj/kaggle/nfl&#45;analytics/activity/8668751553421341972&#45;&gt;http://purl.org/dj/kaggle/nfl&#45;analytics/activity/&#45;3335142457869034757</title>
<path fill="none" stroke="black" d="M1069.34,-695.92C1085.43,-680.12 1105.44,-655.04 1105.44,-628 1105.44,-628 1105.44,-628 1105.44,-408.5 1105.44,-303.19 1003.58,-254.54 1071.44,-174 1104.88,-134.31 1233.44,-117.79 1334.93,-110.91"/>
<polygon fill="black" stroke="black" points="1335.23,-114.4 1344.98,-110.25 1334.77,-107.41 1335.23,-114.4"/>
<text text-anchor="middle" x="1128.94" y="-405.8" font-family="Times,serif" font-size="14.00">previous</text>
</g>
<!-- http://purl.org/dj/kaggle/nfl&#45;analytics/activity/7472843767537829024 -->
<g id="node21" class="node">
<title>http://purl.org/dj/kaggle/nfl&#45;analytics/activity/7472843767537829024</title>
<ellipse fill="none" stroke="black" cx="942.44" cy="-627" rx="124.28" ry="18"/>
<text text-anchor="middle" x="942.44" y="-623.3" font-family="Times,serif" font-size="14.00">7472843767537829024 (Reuse)</text>
</g>
<!-- http://purl.org/dj/kaggle/nfl&#45;analytics/activity/8668751553421341972&#45;&gt;http://purl.org/dj/kaggle/nfl&#45;analytics/activity/7472843767537829024 -->
<g id="edge25" class="edge">
<title>http://purl.org/dj/kaggle/nfl&#45;analytics/activity/8668751553421341972&#45;&gt;http://purl.org/dj/kaggle/nfl&#45;analytics/activity/7472843767537829024</title>
<path fill="none" stroke="black" d="M1028.04,-696C1011.86,-683.15 989.45,-665.35 971.63,-651.19"/>
<polygon fill="black" stroke="black" points="973.8,-648.45 963.8,-644.97 969.45,-653.93 973.8,-648.45"/>
<text text-anchor="middle" x="1025.94" y="-666.8" font-family="Times,serif" font-size="14.00">previous</text>
</g>
<!-- http://purl.org/dj/kaggle/nfl&#45;analytics/activity/7472843767537829024&#45;&gt;http://purl.org/dj/kaggle/nfl&#45;analytics/activity/446724463507038564 -->
<g id="edge26" class="edge">
<title>http://purl.org/dj/kaggle/nfl&#45;analytics/activity/7472843767537829024&#45;&gt;http://purl.org/dj/kaggle/nfl&#45;analytics/activity/446724463507038564</title>
<path fill="none" stroke="black" d="M910.52,-609.42C863.12,-583.83 772.78,-531.32 708.44,-471 683.28,-447.42 660.14,-415.16 645.49,-392.85"/>
<polygon fill="black" stroke="black" points="648.3,-390.75 639.94,-384.25 642.42,-394.55 648.3,-390.75"/>
<text text-anchor="middle" x="769.94" y="-492.8" font-family="Times,serif" font-size="14.00">previous</text>
</g>
<!-- http://purl.org/dj/kaggle/nfl&#45;analytics/activity/7472843767537829024&#45;&gt;http://purl.org/dj/kaggle/nfl&#45;analytics/activity/&#45;8098249252185662729 -->
<g id="edge27" class="edge">
<title>http://purl.org/dj/kaggle/nfl&#45;analytics/activity/7472843767537829024&#45;&gt;http://purl.org/dj/kaggle/nfl&#45;analytics/activity/&#45;8098249252185662729</title>
<path fill="none" stroke="black" d="M849.59,-614.99C764.71,-604.91 651.94,-591.49 649.44,-591 607.92,-582.9 562.01,-570.34 526.55,-559.84"/>
<polygon fill="black" stroke="black" points="527.42,-556.45 516.84,-556.93 525.42,-563.15 527.42,-556.45"/>
<text text-anchor="middle" x="672.94" y="-579.8" font-family="Times,serif" font-size="14.00">previous</text>
</g>
<!-- http://purl.org/dj/kaggle/nfl&#45;analytics/activity/7472843767537829024&#45;&gt;http://purl.org/dj/kaggle/nfl&#45;analytics/activity/&#45;2879980397514527884 -->
<g id="edge28" class="edge">
<title>http://purl.org/dj/kaggle/nfl&#45;analytics/activity/7472843767537829024&#45;&gt;http://purl.org/dj/kaggle/nfl&#45;analytics/activity/&#45;2879980397514527884</title>
<path fill="none" stroke="black" d="M959.86,-609.06C992.37,-575.32 1056.21,-497.59 1024.44,-435 1014.4,-415.23 995.62,-399.83 977.54,-388.72"/>
<polygon fill="black" stroke="black" points="979.17,-385.62 968.77,-383.61 975.65,-391.67 979.17,-385.62"/>
<text text-anchor="middle" x="1054.94" y="-492.8" font-family="Times,serif" font-size="14.00">previous</text>
</g>
<!-- http://purl.org/dj/kaggle/nfl&#45;analytics/activity/&#45;2063580237574038219 -->
<g id="node22" class="node">
<title>http://purl.org/dj/kaggle/nfl&#45;analytics/activity/&#45;2063580237574038219</title>
<ellipse fill="none" stroke="black" cx="151.44" cy="-540" rx="151.37" ry="18"/>
<text text-anchor="middle" x="151.44" y="-536.3" font-family="Times,serif" font-size="14.00">&#45;2063580237574038219 (Visualisation)</text>
</g>
<!-- http://purl.org/dj/kaggle/nfl&#45;analytics/activity/&#45;2063580237574038219&#45;&gt;http://purl.org/dj/kaggle/nfl&#45;analytics/activity/&#45;3335142457869034757 -->
<g id="edge29" class="edge">
<title>http://purl.org/dj/kaggle/nfl&#45;analytics/activity/&#45;2063580237574038219&#45;&gt;http://purl.org/dj/kaggle/nfl&#45;analytics/activity/&#45;3335142457869034757</title>
<path fill="none" stroke="black" d="M170.98,-521.85C186.79,-506 206.44,-480.89 206.44,-454 206.44,-454 206.44,-454 206.44,-191 206.44,-72.89 350.07,-154.22 467.44,-141 630.57,-122.63 1098.18,-112.3 1331.15,-108.15"/>
<polygon fill="black" stroke="black" points="1331.45,-111.65 1341.38,-107.97 1331.32,-104.65 1331.45,-111.65"/>
<text text-anchor="middle" x="229.94" y="-318.8" font-family="Times,serif" font-size="14.00">previous</text>
</g>
<!-- http://purl.org/dj/kaggle/nfl&#45;analytics/activity/&#45;2063580237574038219&#45;&gt;http://purl.org/dj/kaggle/nfl&#45;analytics/activity/&#45;4593134982911746239 -->
<g id="edge30" class="edge">
<title>http://purl.org/dj/kaggle/nfl&#45;analytics/activity/&#45;2063580237574038219&#45;&gt;http://purl.org/dj/kaggle/nfl&#45;analytics/activity/&#45;4593134982911746239</title>
<path fill="none" stroke="black" d="M212.31,-523.51C270.06,-508.81 356.72,-486.76 416.87,-471.45"/>
<polygon fill="black" stroke="black" points="417.84,-474.82 426.66,-468.96 416.11,-468.03 417.84,-474.82"/>
<text text-anchor="middle" x="361.94" y="-492.8" font-family="Times,serif" font-size="14.00">previous</text>
</g>
<!-- http://purl.org/dj/kaggle/nfl&#45;analytics/activity/&#45;9065533045027629141 -->
<g id="node23" class="node">
<title>http://purl.org/dj/kaggle/nfl&#45;analytics/activity/&#45;9065533045027629141</title>
<ellipse fill="none" stroke="black" cx="2821.44" cy="-192" rx="151.37" ry="18"/>
<text text-anchor="middle" x="2821.44" y="-188.3" font-family="Times,serif" font-size="14.00">&#45;9065533045027629141 (Visualisation)</text>
</g>
<!-- http://purl.org/dj/kaggle/nfl&#45;analytics/activity/&#45;9065533045027629141&#45;&gt;http://purl.org/dj/kaggle/nfl&#45;analytics/activity/&#45;3335142457869034757 -->
<g id="edge31" class="edge">
<title>http://purl.org/dj/kaggle/nfl&#45;analytics/activity/&#45;9065533045027629141&#45;&gt;http://purl.org/dj/kaggle/nfl&#45;analytics/activity/&#45;3335142457869034757</title>
<path fill="none" stroke="black" d="M2714.97,-179.19C2696.79,-177.34 2678.08,-175.53 2660.44,-174 2274.83,-140.54 1817.69,-119.75 1597.66,-110.92"/>
<polygon fill="black" stroke="black" points="1597.49,-107.41 1587.36,-110.51 1597.21,-114.41 1597.49,-107.41"/>
<text text-anchor="middle" x="2422.94" y="-144.8" font-family="Times,serif" font-size="14.00">previous</text>
</g>
<!-- http://purl.org/dj/kaggle/nfl&#45;analytics/activity/&#45;3593021579564941508 -->
<g id="node24" class="node">
<title>http://purl.org/dj/kaggle/nfl&#45;analytics/activity/&#45;3593021579564941508</title>
<ellipse fill="none" stroke="black" cx="3142.44" cy="-192" rx="151.37" ry="18"/>
<text text-anchor="middle" x="3142.44" y="-188.3" font-family="Times,serif" font-size="14.00">&#45;3593021579564941508 (Visualisation)</text>
</g>
<!-- http://purl.org/dj/kaggle/nfl&#45;analytics/activity/&#45;3593021579564941508&#45;&gt;http://purl.org/dj/kaggle/nfl&#45;analytics/activity/&#45;3335142457869034757 -->
<g id="edge32" class="edge">
<title>http://purl.org/dj/kaggle/nfl&#45;analytics/activity/&#45;3593021579564941508&#45;&gt;http://purl.org/dj/kaggle/nfl&#45;analytics/activity/&#45;3335142457869034757</title>
<path fill="none" stroke="black" d="M3035.98,-179.1C3017.79,-177.26 2999.08,-175.48 2981.44,-174 2473.08,-131.38 1866.37,-114.32 1601.41,-108.55"/>
<polygon fill="black" stroke="black" points="1601.43,-105.05 1591.35,-108.33 1601.28,-112.05 1601.43,-105.05"/>
<text text-anchor="middle" x="2757.94" y="-144.8" font-family="Times,serif" font-size="14.00">previous</text>
</g>
<!-- http://purl.org/dj/kaggle/nfl&#45;analytics/activity/6729385953225717660 -->
<g id="node25" class="node">
<title>http://purl.org/dj/kaggle/nfl&#45;analytics/activity/6729385953225717660</title>
<ellipse fill="none" stroke="black" cx="3460.44" cy="-192" rx="148.67" ry="18"/>
<text text-anchor="middle" x="3460.44" y="-188.3" font-family="Times,serif" font-size="14.00">6729385953225717660 (Visualisation)</text>
</g>
<!-- http://purl.org/dj/kaggle/nfl&#45;analytics/activity/6729385953225717660&#45;&gt;http://purl.org/dj/kaggle/nfl&#45;analytics/activity/&#45;3335142457869034757 -->
<g id="edge33" class="edge">
<title>http://purl.org/dj/kaggle/nfl&#45;analytics/activity/6729385953225717660&#45;&gt;http://purl.org/dj/kaggle/nfl&#45;analytics/activity/&#45;3335142457869034757</title>
<path fill="none" stroke="black" d="M3355.96,-179.11C3338.12,-177.27 3319.75,-175.48 3302.44,-174 3073.03,-154.35 3015.45,-151.39 2785.44,-141 2353.41,-121.49 1841.26,-111.72 1602.11,-107.94"/>
<polygon fill="black" stroke="black" points="1602.03,-104.43 1591.98,-107.78 1601.92,-111.43 1602.03,-104.43"/>
<text text-anchor="middle" x="3092.94" y="-144.8" font-family="Times,serif" font-size="14.00">previous</text>
</g>
</g>
</svg>
