<?xml version="1.0" encoding="UTF-8" standalone="no"?>
<!DOCTYPE svg PUBLIC "-//W3C//DTD SVG 1.1//EN"
 "http://www.w3.org/Graphics/SVG/1.1/DTD/svg11.dtd">
<!-- Generated by graphviz version 2.47.1 (20210417.1919)
 -->
<!-- Pages: 1 -->
<svg width="2140pt" height="479pt"
 viewBox="0.00 0.00 2139.99 479.00" xmlns="http://www.w3.org/2000/svg" xmlns:xlink="http://www.w3.org/1999/xlink">
<g id="graph0" class="graph" transform="scale(1 1) rotate(0) translate(4 475)">
<polygon fill="white" stroke="transparent" points="-4,4 -4,-475 2135.99,-475 2135.99,4 -4,4"/>
<!-- http://purl.org/dj/kaggle/outlier&#45;tutorial/activity/4480681905938685945 -->
<g id="node1" class="node">
<title>http://purl.org/dj/kaggle/outlier&#45;tutorial/activity/4480681905938685945</title>
<ellipse fill="none" stroke="black" cx="1905.99" cy="-192" rx="142.97" ry="18"/>
<text text-anchor="middle" x="1905.99" y="-188.3" font-family="Times,serif" font-size="14.00">4480681905938685945 (Preparation)</text>
</g>
<!-- http://purl.org/dj/kaggle/outlier&#45;tutorial/activity/&#45;6727338428985376477 -->
<g id="node2" class="node">
<title>http://purl.org/dj/kaggle/outlier&#45;tutorial/activity/&#45;6727338428985376477</title>
<ellipse fill="none" stroke="black" cx="1022.99" cy="-105" rx="126.98" ry="18"/>
<text text-anchor="middle" x="1022.99" y="-101.3" font-family="Times,serif" font-size="14.00">&#45;6727338428985376477 (Reuse)</text>
</g>
<!-- http://purl.org/dj/kaggle/outlier&#45;tutorial/activity/4480681905938685945&#45;&gt;http://purl.org/dj/kaggle/outlier&#45;tutorial/activity/&#45;6727338428985376477 -->
<g id="edge1" class="edge">
<title>http://purl.org/dj/kaggle/outlier&#45;tutorial/activity/4480681905938685945&#45;&gt;http://purl.org/dj/kaggle/outlier&#45;tutorial/activity/&#45;6727338428985376477</title>
<path fill="none" stroke="black" d="M1865.09,-174.74C1833.83,-163.11 1789.39,-148.28 1748.99,-141 1639.51,-121.27 1336.42,-112.12 1158.37,-108.33"/>
<polygon fill="black" stroke="black" points="1158.21,-104.82 1148.14,-108.11 1158.07,-111.82 1158.21,-104.82"/>
<text text-anchor="middle" x="1829.49" y="-144.8" font-family="Times,serif" font-size="14.00">previous</text>
</g>
<!-- http://purl.org/dj/kaggle/outlier&#45;tutorial -->
<g id="node3" class="node">
<title>http://purl.org/dj/kaggle/outlier&#45;tutorial</title>
<ellipse fill="none" stroke="black" cx="1542.99" cy="-18" rx="143.77" ry="18"/>
<text text-anchor="middle" x="1542.99" y="-14.3" font-family="Times,serif" font-size="14.00">outlier&#45;tutorial (outlier&#45;tutorial.ipynb)</text>
</g>
<!-- http://purl.org/dj/kaggle/outlier&#45;tutorial/activity/&#45;6727338428985376477&#45;&gt;http://purl.org/dj/kaggle/outlier&#45;tutorial -->
<g id="edge2" class="edge">
<title>http://purl.org/dj/kaggle/outlier&#45;tutorial/activity/&#45;6727338428985376477&#45;&gt;http://purl.org/dj/kaggle/outlier&#45;tutorial</title>
<path fill="none" stroke="black" d="M1102.82,-90.95C1196.13,-75.7 1350.35,-50.49 1449.26,-34.32"/>
<polygon fill="black" stroke="black" points="1449.94,-37.76 1459.25,-32.69 1448.81,-30.85 1449.94,-37.76"/>
<text text-anchor="middle" x="1337.49" y="-57.8" font-family="Times,serif" font-size="14.00">previous</text>
</g>
<!-- http://purl.org/dj/kaggle/outlier&#45;tutorial/activity/&#45;1312396142540362155 -->
<g id="node4" class="node">
<title>http://purl.org/dj/kaggle/outlier&#45;tutorial/activity/&#45;1312396142540362155</title>
<ellipse fill="none" stroke="black" cx="1560.99" cy="-192" rx="145.67" ry="18"/>
<text text-anchor="middle" x="1560.99" y="-188.3" font-family="Times,serif" font-size="14.00">&#45;1312396142540362155 (Preparation)</text>
</g>
<!-- http://purl.org/dj/kaggle/outlier&#45;tutorial/activity/&#45;1312396142540362155&#45;&gt;http://purl.org/dj/kaggle/outlier&#45;tutorial/activity/&#45;6727338428985376477 -->
<g id="edge3" class="edge">
<title>http://purl.org/dj/kaggle/outlier&#45;tutorial/activity/&#45;1312396142540362155&#45;&gt;http://purl.org/dj/kaggle/outlier&#45;tutorial/activity/&#45;6727338428985376477</title>
<path fill="none" stroke="black" d="M1475.15,-177.44C1376.63,-161.87 1215.69,-136.44 1114.75,-120.5"/>
<polygon fill="black" stroke="black" points="1114.99,-116.99 1104.57,-118.89 1113.9,-123.91 1114.99,-116.99"/>
<text text-anchor="middle" x="1347.49" y="-144.8" font-family="Times,serif" font-size="14.00">previous</text>
</g>
<!-- http://purl.org/dj/kaggle/outlier&#45;tutorial/activity/&#45;5168273418627548413 -->
<g id="node5" class="node">
<title>http://purl.org/dj/kaggle/outlier&#45;tutorial/activity/&#45;5168273418627548413</title>
<ellipse fill="none" stroke="black" cx="184.99" cy="-192" rx="145.67" ry="18"/>
<text text-anchor="middle" x="184.99" y="-188.3" font-family="Times,serif" font-size="14.00">&#45;5168273418627548413 (Preparation)</text>
</g>
<!-- http://purl.org/dj/kaggle/outlier&#45;tutorial/activity/&#45;5168273418627548413&#45;&gt;http://purl.org/dj/kaggle/outlier&#45;tutorial/activity/&#45;6727338428985376477 -->
<g id="edge4" class="edge">
<title>http://purl.org/dj/kaggle/outlier&#45;tutorial/activity/&#45;5168273418627548413&#45;&gt;http://purl.org/dj/kaggle/outlier&#45;tutorial/activity/&#45;6727338428985376477</title>
<path fill="none" stroke="black" d="M288.94,-179.37C305.67,-177.54 322.81,-175.7 338.99,-174 540.61,-152.85 775.83,-129.83 911.29,-116.73"/>
<polygon fill="black" stroke="black" points="911.65,-120.21 921.27,-115.77 910.98,-113.24 911.65,-120.21"/>
<text text-anchor="middle" x="681.49" y="-144.8" font-family="Times,serif" font-size="14.00">previous</text>
</g>
<!-- http://purl.org/dj/kaggle/outlier&#45;tutorial/activity/&#45;5344741622223721643 -->
<g id="node6" class="node">
<title>http://purl.org/dj/kaggle/outlier&#45;tutorial/activity/&#45;5344741622223721643</title>
<ellipse fill="none" stroke="black" cx="493.99" cy="-192" rx="145.67" ry="18"/>
<text text-anchor="middle" x="493.99" y="-188.3" font-family="Times,serif" font-size="14.00">&#45;5344741622223721643 (Preparation)</text>
</g>
<!-- http://purl.org/dj/kaggle/outlier&#45;tutorial/activity/&#45;5344741622223721643&#45;&gt;http://purl.org/dj/kaggle/outlier&#45;tutorial/activity/&#45;6727338428985376477 -->
<g id="edge5" class="edge">
<title>http://purl.org/dj/kaggle/outlier&#45;tutorial/activity/&#45;5344741622223721643&#45;&gt;http://purl.org/dj/kaggle/outlier&#45;tutorial/activity/&#45;6727338428985376477</title>
<path fill="none" stroke="black" d="M578.99,-177.34C675.84,-161.78 833.49,-136.45 932.55,-120.53"/>
<polygon fill="black" stroke="black" points="933.23,-123.97 942.55,-118.93 932.12,-117.06 933.23,-123.97"/>
<text text-anchor="middle" x="814.49" y="-144.8" font-family="Times,serif" font-size="14.00">previous</text>
</g>
<!-- http://purl.org/dj/kaggle/outlier&#45;tutorial/activity/808795068165757985 -->
<g id="node7" class="node">
<title>http://purl.org/dj/kaggle/outlier&#45;tutorial/activity/808795068165757985</title>
<ellipse fill="none" stroke="black" cx="795.99" cy="-192" rx="138.38" ry="18"/>
<text text-anchor="middle" x="795.99" y="-188.3" font-family="Times,serif" font-size="14.00">808795068165757985 (Preparation)</text>
</g>
<!-- http://purl.org/dj/kaggle/outlier&#45;tutorial/activity/808795068165757985&#45;&gt;http://purl.org/dj/kaggle/outlier&#45;tutorial/activity/&#45;6727338428985376477 -->
<g id="edge6" class="edge">
<title>http://purl.org/dj/kaggle/outlier&#45;tutorial/activity/808795068165757985&#45;&gt;http://purl.org/dj/kaggle/outlier&#45;tutorial/activity/&#45;6727338428985376477</title>
<path fill="none" stroke="black" d="M827.57,-174.28C848.11,-163.83 875.69,-150.58 900.99,-141 917.7,-134.67 936.07,-128.84 953.36,-123.83"/>
<polygon fill="black" stroke="black" points="954.74,-127.08 963.4,-120.98 952.82,-120.34 954.74,-127.08"/>
<text text-anchor="middle" x="924.49" y="-144.8" font-family="Times,serif" font-size="14.00">previous</text>
</g>
<!-- http://purl.org/dj/kaggle/outlier&#45;tutorial/activity/&#45;1526966925384647737 -->
<g id="node8" class="node">
<title>http://purl.org/dj/kaggle/outlier&#45;tutorial/activity/&#45;1526966925384647737</title>
<ellipse fill="none" stroke="black" cx="1236.99" cy="-366" rx="145.67" ry="18"/>
<text text-anchor="middle" x="1236.99" y="-362.3" font-family="Times,serif" font-size="14.00">&#45;1526966925384647737 (Preparation)</text>
</g>
<!-- http://purl.org/dj/kaggle/outlier&#45;tutorial/activity/&#45;1526966925384647737&#45;&gt;http://purl.org/dj/kaggle/outlier&#45;tutorial/activity/&#45;6727338428985376477 -->
<g id="edge7" class="edge">
<title>http://purl.org/dj/kaggle/outlier&#45;tutorial/activity/&#45;1526966925384647737&#45;&gt;http://purl.org/dj/kaggle/outlier&#45;tutorial/activity/&#45;6727338428985376477</title>
<path fill="none" stroke="black" d="M1192.44,-348.75C1147.15,-330.01 1078.12,-294.96 1037.99,-243 1013.77,-211.63 1014.62,-163.49 1018.23,-133.42"/>
<polygon fill="black" stroke="black" points="1021.74,-133.61 1019.64,-123.23 1014.8,-132.65 1021.74,-133.61"/>
<text text-anchor="middle" x="1061.49" y="-231.8" font-family="Times,serif" font-size="14.00">previous</text>
</g>
<!-- http://purl.org/dj/kaggle/outlier&#45;tutorial/activity/2440827769809554906 -->
<g id="node9" class="node">
<title>http://purl.org/dj/kaggle/outlier&#45;tutorial/activity/2440827769809554906</title>
<ellipse fill="none" stroke="black" cx="1366.99" cy="-279" rx="148.67" ry="18"/>
<text text-anchor="middle" x="1366.99" y="-275.3" font-family="Times,serif" font-size="14.00">2440827769809554906 (Visualisation)</text>
</g>
<!-- http://purl.org/dj/kaggle/outlier&#45;tutorial/activity/&#45;1526966925384647737&#45;&gt;http://purl.org/dj/kaggle/outlier&#45;tutorial/activity/2440827769809554906 -->
<g id="edge8" class="edge">
<title>http://purl.org/dj/kaggle/outlier&#45;tutorial/activity/&#45;1526966925384647737&#45;&gt;http://purl.org/dj/kaggle/outlier&#45;tutorial/activity/2440827769809554906</title>
<path fill="none" stroke="black" d="M1262.68,-348.21C1282.8,-335.05 1310.97,-316.63 1332.96,-302.25"/>
<polygon fill="black" stroke="black" points="1334.91,-305.16 1341.36,-296.76 1331.08,-299.3 1334.91,-305.16"/>
<text text-anchor="middle" x="1332.49" y="-318.8" font-family="Times,serif" font-size="14.00">previous</text>
</g>
<!-- http://purl.org/dj/kaggle/outlier&#45;tutorial/activity/2440827769809554906&#45;&gt;http://purl.org/dj/kaggle/outlier&#45;tutorial/activity/&#45;6727338428985376477 -->
<g id="edge9" class="edge">
<title>http://purl.org/dj/kaggle/outlier&#45;tutorial/activity/2440827769809554906&#45;&gt;http://purl.org/dj/kaggle/outlier&#45;tutorial/activity/&#45;6727338428985376477</title>
<path fill="none" stroke="black" d="M1260.59,-266.35C1182.41,-255.72 1084.84,-237.44 1054.99,-210 1033.65,-190.37 1026.4,-156.9 1024.01,-133.23"/>
<polygon fill="black" stroke="black" points="1027.49,-132.83 1023.22,-123.13 1020.51,-133.38 1027.49,-132.83"/>
<text text-anchor="middle" x="1078.49" y="-188.3" font-family="Times,serif" font-size="14.00">previous</text>
</g>
<!-- http://purl.org/dj/kaggle/outlier&#45;tutorial/activity/2440827769809554906&#45;&gt;http://purl.org/dj/kaggle/outlier&#45;tutorial/activity/&#45;1312396142540362155 -->
<g id="edge10" class="edge">
<title>http://purl.org/dj/kaggle/outlier&#45;tutorial/activity/2440827769809554906&#45;&gt;http://purl.org/dj/kaggle/outlier&#45;tutorial/activity/&#45;1312396142540362155</title>
<path fill="none" stroke="black" d="M1404.86,-261.41C1436.07,-247.73 1480.49,-228.27 1513.98,-213.6"/>
<polygon fill="black" stroke="black" points="1515.8,-216.62 1523.55,-209.4 1512.99,-210.21 1515.8,-216.62"/>
<text text-anchor="middle" x="1498.49" y="-231.8" font-family="Times,serif" font-size="14.00">previous</text>
</g>
<!-- http://purl.org/dj/kaggle/outlier&#45;tutorial/activity/&#45;6820821135629799697 -->
<g id="node10" class="node">
<title>http://purl.org/dj/kaggle/outlier&#45;tutorial/activity/&#45;6820821135629799697</title>
<ellipse fill="none" stroke="black" cx="1545.99" cy="-366" rx="145.67" ry="18"/>
<text text-anchor="middle" x="1545.99" y="-362.3" font-family="Times,serif" font-size="14.00">&#45;6820821135629799697 (Preparation)</text>
</g>
<!-- http://purl.org/dj/kaggle/outlier&#45;tutorial/activity/2440827769809554906&#45;&gt;http://purl.org/dj/kaggle/outlier&#45;tutorial/activity/&#45;6820821135629799697 -->
<g id="edge11" class="edge">
<title>http://purl.org/dj/kaggle/outlier&#45;tutorial/activity/2440827769809554906&#45;&gt;http://purl.org/dj/kaggle/outlier&#45;tutorial/activity/&#45;6820821135629799697</title>
<path fill="none" stroke="black" d="M1394.52,-296.79C1411.84,-307.03 1434.84,-320.01 1455.99,-330 1467.13,-335.26 1479.28,-340.38 1490.95,-345.01"/>
<polygon fill="black" stroke="black" points="1490.02,-348.41 1500.6,-348.78 1492.56,-341.88 1490.02,-348.41"/>
<text text-anchor="middle" x="1479.49" y="-318.8" font-family="Times,serif" font-size="14.00">previous</text>
</g>
<!-- http://purl.org/dj/kaggle/outlier&#45;tutorial/activity/&#45;6820821135629799697&#45;&gt;http://purl.org/dj/kaggle/outlier&#45;tutorial/activity/&#45;6727338428985376477 -->
<g id="edge12" class="edge">
<title>http://purl.org/dj/kaggle/outlier&#45;tutorial/activity/&#45;6820821135629799697&#45;&gt;http://purl.org/dj/kaggle/outlier&#45;tutorial/activity/&#45;6727338428985376477</title>
<path fill="none" stroke="black" d="M1580.75,-348.3C1645.73,-314.99 1773.99,-237.96 1715.99,-174 1679.2,-133.42 1347.1,-116.21 1156.31,-109.63"/>
<polygon fill="black" stroke="black" points="1156.32,-106.13 1146.21,-109.28 1156.08,-113.12 1156.32,-106.13"/>
<text text-anchor="middle" x="1749.49" y="-231.8" font-family="Times,serif" font-size="14.00">previous</text>
</g>
<!-- http://purl.org/dj/kaggle/outlier&#45;tutorial/activity/&#45;6820821135629799697&#45;&gt;http://purl.org/dj/kaggle/outlier&#45;tutorial -->
<g id="edge13" class="edge">
<title>http://purl.org/dj/kaggle/outlier&#45;tutorial/activity/&#45;6820821135629799697&#45;&gt;http://purl.org/dj/kaggle/outlier&#45;tutorial</title>
<path fill="none" stroke="black" d="M1673.73,-357.3C1833.12,-345.95 2084.99,-321.45 2084.99,-280 2084.99,-280 2084.99,-280 2084.99,-104 2084.99,-63.08 1840.75,-38.79 1680.18,-27.25"/>
<polygon fill="black" stroke="black" points="1679.95,-23.73 1669.73,-26.51 1679.45,-30.71 1679.95,-23.73"/>
<text text-anchor="middle" x="2108.49" y="-188.3" font-family="Times,serif" font-size="14.00">previous</text>
</g>
<!-- http://purl.org/dj/kaggle/outlier&#45;tutorial/activity/&#45;6820821135629799697&#45;&gt;http://purl.org/dj/kaggle/outlier&#45;tutorial/activity/2440827769809554906 -->
<g id="edge14" class="edge">
<title>http://purl.org/dj/kaggle/outlier&#45;tutorial/activity/&#45;6820821135629799697&#45;&gt;http://purl.org/dj/kaggle/outlier&#45;tutorial/activity/2440827769809554906</title>
<path fill="none" stroke="black" d="M1535.22,-347.76C1527.53,-336.82 1516.22,-323.22 1502.99,-315 1490.8,-307.42 1477.01,-301.47 1463.02,-296.81"/>
<polygon fill="black" stroke="black" points="1463.9,-293.42 1453.31,-293.78 1461.82,-300.1 1463.9,-293.42"/>
<text text-anchor="middle" x="1543.49" y="-318.8" font-family="Times,serif" font-size="14.00">previous</text>
</g>
<!-- http://purl.org/dj/kaggle/outlier&#45;tutorial/activity/7223004808510611581 -->
<g id="node11" class="node">
<title>http://purl.org/dj/kaggle/outlier&#45;tutorial/activity/7223004808510611581</title>
<ellipse fill="none" stroke="black" cx="1253.99" cy="-192" rx="142.97" ry="18"/>
<text text-anchor="middle" x="1253.99" y="-188.3" font-family="Times,serif" font-size="14.00">7223004808510611581 (Preparation)</text>
</g>
<!-- http://purl.org/dj/kaggle/outlier&#45;tutorial/activity/7223004808510611581&#45;&gt;http://purl.org/dj/kaggle/outlier&#45;tutorial/activity/&#45;6727338428985376477 -->
<g id="edge15" class="edge">
<title>http://purl.org/dj/kaggle/outlier&#45;tutorial/activity/7223004808510611581&#45;&gt;http://purl.org/dj/kaggle/outlier&#45;tutorial/activity/&#45;6727338428985376477</title>
<path fill="none" stroke="black" d="M1210,-174.81C1171.83,-160.77 1116.47,-140.4 1075.89,-125.46"/>
<polygon fill="black" stroke="black" points="1077.03,-122.15 1066.43,-121.98 1074.61,-128.72 1077.03,-122.15"/>
<text text-anchor="middle" x="1175.49" y="-144.8" font-family="Times,serif" font-size="14.00">previous</text>
</g>
<!-- http://purl.org/dj/kaggle/outlier&#45;tutorial/activity/2659271804363565194 -->
<g id="node12" class="node">
<title>http://purl.org/dj/kaggle/outlier&#45;tutorial/activity/2659271804363565194</title>
<ellipse fill="none" stroke="black" cx="929.99" cy="-366" rx="142.97" ry="18"/>
<text text-anchor="middle" x="929.99" y="-362.3" font-family="Times,serif" font-size="14.00">2659271804363565194 (Preparation)</text>
</g>
<!-- http://purl.org/dj/kaggle/outlier&#45;tutorial/activity/2659271804363565194&#45;&gt;http://purl.org/dj/kaggle/outlier&#45;tutorial/activity/&#45;6727338428985376477 -->
<g id="edge16" class="edge">
<title>http://purl.org/dj/kaggle/outlier&#45;tutorial/activity/2659271804363565194&#45;&gt;http://purl.org/dj/kaggle/outlier&#45;tutorial/activity/&#45;6727338428985376477</title>
<path fill="none" stroke="black" d="M927.01,-347.65C923.15,-321.17 918.3,-269.39 930.99,-228 933.81,-218.81 937.78,-218.08 942.99,-210 962.57,-179.63 963.13,-168.98 985.99,-141 989.05,-137.26 992.49,-133.52 996,-129.96"/>
<polygon fill="black" stroke="black" points="998.5,-132.41 1003.23,-122.93 993.62,-127.39 998.5,-132.41"/>
<text text-anchor="middle" x="954.49" y="-231.8" font-family="Times,serif" font-size="14.00">previous</text>
</g>
<!-- http://purl.org/dj/kaggle/outlier&#45;tutorial/activity/2659271804363565194&#45;&gt;http://purl.org/dj/kaggle/outlier&#45;tutorial/activity/2440827769809554906 -->
<g id="edge17" class="edge">
<title>http://purl.org/dj/kaggle/outlier&#45;tutorial/activity/2659271804363565194&#45;&gt;http://purl.org/dj/kaggle/outlier&#45;tutorial/activity/2440827769809554906</title>
<path fill="none" stroke="black" d="M1004.13,-350.58C1081.07,-335.61 1201.25,-312.24 1282,-296.53"/>
<polygon fill="black" stroke="black" points="1282.99,-299.91 1292.13,-294.56 1281.65,-293.03 1282.99,-299.91"/>
<text text-anchor="middle" x="1197.49" y="-318.8" font-family="Times,serif" font-size="14.00">previous</text>
</g>
<!-- http://purl.org/dj/kaggle/outlier&#45;tutorial/activity/2576276456999267723 -->
<g id="node13" class="node">
<title>http://purl.org/dj/kaggle/outlier&#45;tutorial/activity/2576276456999267723</title>
<ellipse fill="none" stroke="black" cx="840.99" cy="-453" rx="148.67" ry="18"/>
<text text-anchor="middle" x="840.99" y="-449.3" font-family="Times,serif" font-size="14.00">2576276456999267723 (Visualisation)</text>
</g>
<!-- http://purl.org/dj/kaggle/outlier&#45;tutorial/activity/2576276456999267723&#45;&gt;http://purl.org/dj/kaggle/outlier&#45;tutorial/activity/&#45;6820821135629799697 -->
<g id="edge18" class="edge">
<title>http://purl.org/dj/kaggle/outlier&#45;tutorial/activity/2576276456999267723&#45;&gt;http://purl.org/dj/kaggle/outlier&#45;tutorial/activity/&#45;6820821135629799697</title>
<path fill="none" stroke="black" d="M942.38,-439.78C1073.41,-423.98 1300.74,-396.57 1435.89,-380.28"/>
<polygon fill="black" stroke="black" points="1436.35,-383.74 1445.86,-379.07 1435.51,-376.8 1436.35,-383.74"/>
<text text-anchor="middle" x="1258.49" y="-405.8" font-family="Times,serif" font-size="14.00">previous</text>
</g>
<!-- http://purl.org/dj/kaggle/outlier&#45;tutorial/activity/&#45;2582573370550611685 -->
<g id="node14" class="node">
<title>http://purl.org/dj/kaggle/outlier&#45;tutorial/activity/&#45;2582573370550611685</title>
<ellipse fill="none" stroke="black" cx="622.99" cy="-366" rx="145.67" ry="18"/>
<text text-anchor="middle" x="622.99" y="-362.3" font-family="Times,serif" font-size="14.00">&#45;2582573370550611685 (Preparation)</text>
</g>
<!-- http://purl.org/dj/kaggle/outlier&#45;tutorial/activity/2576276456999267723&#45;&gt;http://purl.org/dj/kaggle/outlier&#45;tutorial/activity/&#45;2582573370550611685 -->
<g id="edge19" class="edge">
<title>http://purl.org/dj/kaggle/outlier&#45;tutorial/activity/2576276456999267723&#45;&gt;http://purl.org/dj/kaggle/outlier&#45;tutorial/activity/&#45;2582573370550611685</title>
<path fill="none" stroke="black" d="M799.22,-435.71C763.66,-421.85 712.44,-401.88 674.37,-387.03"/>
<polygon fill="black" stroke="black" points="675.59,-383.75 665,-383.38 673.04,-390.27 675.59,-383.75"/>
<text text-anchor="middle" x="769.49" y="-405.8" font-family="Times,serif" font-size="14.00">previous</text>
</g>
<!-- http://purl.org/dj/kaggle/outlier&#45;tutorial/activity/&#45;2582573370550611685&#45;&gt;http://purl.org/dj/kaggle/outlier&#45;tutorial/activity/&#45;6727338428985376477 -->
<g id="edge20" class="edge">
<title>http://purl.org/dj/kaggle/outlier&#45;tutorial/activity/&#45;2582573370550611685&#45;&gt;http://purl.org/dj/kaggle/outlier&#45;tutorial/activity/&#45;6727338428985376477</title>
<path fill="none" stroke="black" d="M479.5,-362.8C263.42,-354.82 -106.48,-320.14 29.99,-174 87.13,-112.82 626.77,-105.3 885.68,-105.26"/>
<polygon fill="black" stroke="black" points="885.91,-108.76 895.91,-105.26 885.91,-101.76 885.91,-108.76"/>
<text text-anchor="middle" x="25.49" y="-231.8" font-family="Times,serif" font-size="14.00">previous</text>
</g>
<!-- http://purl.org/dj/kaggle/outlier&#45;tutorial/activity/6742466538213805551 -->
<g id="node15" class="node">
<title>http://purl.org/dj/kaggle/outlier&#45;tutorial/activity/6742466538213805551</title>
<ellipse fill="none" stroke="black" cx="1526.99" cy="-453" rx="148.67" ry="18"/>
<text text-anchor="middle" x="1526.99" y="-449.3" font-family="Times,serif" font-size="14.00">6742466538213805551 (Visualisation)</text>
</g>
<!-- http://purl.org/dj/kaggle/outlier&#45;tutorial/activity/6742466538213805551&#45;&gt;http://purl.org/dj/kaggle/outlier&#45;tutorial/activity/&#45;6820821135629799697 -->
<g id="edge21" class="edge">
<title>http://purl.org/dj/kaggle/outlier&#45;tutorial/activity/6742466538213805551&#45;&gt;http://purl.org/dj/kaggle/outlier&#45;tutorial/activity/&#45;6820821135629799697</title>
<path fill="none" stroke="black" d="M1530.84,-434.8C1533.44,-423.16 1536.93,-407.55 1539.91,-394.24"/>
<polygon fill="black" stroke="black" points="1543.39,-394.7 1542.16,-384.18 1536.56,-393.17 1543.39,-394.7"/>
<text text-anchor="middle" x="1560.49" y="-405.8" font-family="Times,serif" font-size="14.00">previous</text>
</g>
<!-- http://purl.org/dj/kaggle/outlier&#45;tutorial/activity/6742466538213805551&#45;&gt;http://purl.org/dj/kaggle/outlier&#45;tutorial/activity/&#45;2582573370550611685 -->
<g id="edge22" class="edge">
<title>http://purl.org/dj/kaggle/outlier&#45;tutorial/activity/6742466538213805551&#45;&gt;http://purl.org/dj/kaggle/outlier&#45;tutorial/activity/&#45;2582573370550611685</title>
<path fill="none" stroke="black" d="M1503.91,-435.07C1486.49,-423.35 1461.48,-408.7 1436.99,-402 1366.34,-382.66 851.07,-389 777.99,-384 763.51,-383.01 748.29,-381.69 733.29,-380.22"/>
<polygon fill="black" stroke="black" points="733.24,-376.7 722.94,-379.18 732.54,-383.66 733.24,-376.7"/>
<text text-anchor="middle" x="1496.49" y="-405.8" font-family="Times,serif" font-size="14.00">previous</text>
</g>
<!-- http://purl.org/dj/kaggle/outlier&#45;tutorial/activity/5591308926984205512 -->
<g id="node16" class="node">
<title>http://purl.org/dj/kaggle/outlier&#45;tutorial/activity/5591308926984205512</title>
<ellipse fill="none" stroke="black" cx="1192.99" cy="-453" rx="148.67" ry="18"/>
<text text-anchor="middle" x="1192.99" y="-449.3" font-family="Times,serif" font-size="14.00">5591308926984205512 (Visualisation)</text>
</g>
<!-- http://purl.org/dj/kaggle/outlier&#45;tutorial/activity/5591308926984205512&#45;&gt;http://purl.org/dj/kaggle/outlier&#45;tutorial/activity/&#45;6820821135629799697 -->
<g id="edge23" class="edge">
<title>http://purl.org/dj/kaggle/outlier&#45;tutorial/activity/5591308926984205512&#45;&gt;http://purl.org/dj/kaggle/outlier&#45;tutorial/activity/&#45;6820821135629799697</title>
<path fill="none" stroke="black" d="M1253.56,-436.54C1306.38,-423.07 1376.61,-405.2 1389.99,-402 1415.14,-395.99 1442.65,-389.72 1467.47,-384.17"/>
<polygon fill="black" stroke="black" points="1468.56,-387.51 1477.56,-381.92 1467.03,-380.68 1468.56,-387.51"/>
<text text-anchor="middle" x="1413.49" y="-405.8" font-family="Times,serif" font-size="14.00">previous</text>
</g>
<!-- http://purl.org/dj/kaggle/outlier&#45;tutorial/activity/5591308926984205512&#45;&gt;http://purl.org/dj/kaggle/outlier&#45;tutorial/activity/&#45;2582573370550611685 -->
<g id="edge24" class="edge">
<title>http://purl.org/dj/kaggle/outlier&#45;tutorial/activity/5591308926984205512&#45;&gt;http://purl.org/dj/kaggle/outlier&#45;tutorial/activity/&#45;2582573370550611685</title>
<path fill="none" stroke="black" d="M1103.3,-438.63C999.74,-423.18 829.87,-397.85 722.37,-381.82"/>
<polygon fill="black" stroke="black" points="722.57,-378.31 712.16,-380.3 721.54,-385.23 722.57,-378.31"/>
<text text-anchor="middle" x="965.49" y="-405.8" font-family="Times,serif" font-size="14.00">previous</text>
</g>
</g>
</svg>
