<?xml version="1.0" encoding="UTF-8" standalone="no"?>
<!DOCTYPE svg PUBLIC "-//W3C//DTD SVG 1.1//EN"
 "http://www.w3.org/Graphics/SVG/1.1/DTD/svg11.dtd">
<!-- Generated by graphviz version 2.47.1 (20210417.1919)
 -->
<!-- Pages: 1 -->
<svg width="3891pt" height="629pt"
 viewBox="0.00 0.00 3890.89 629.00" xmlns="http://www.w3.org/2000/svg" xmlns:xlink="http://www.w3.org/1999/xlink">
<g id="graph0" class="graph" transform="scale(1 1) rotate(0) translate(4 625)">
<polygon fill="white" stroke="transparent" points="-4,4 -4,-625 3886.89,-625 3886.89,4 -4,4"/>
<!-- http://purl.org/dj/kaggle/pandas&#45;pd&#45;to&#45;numeric#361235310 -->
<g id="node1" class="node">
<title>http://purl.org/dj/kaggle/pandas&#45;pd&#45;to&#45;numeric#361235310</title>
<ellipse fill="none" stroke="black" cx="1431" cy="-159" rx="125.38" ry="18"/>
<text text-anchor="middle" x="1431" y="-155.3" font-family="Times,serif" font-size="14.00">361235310 (example(0): Reuse)</text>
</g>
<!-- http://purl.org/dj/kaggle/pandas&#45;pd&#45;to&#45;numeric -->
<g id="node2" class="node">
<title>http://purl.org/dj/kaggle/pandas&#45;pd&#45;to&#45;numeric</title>
<ellipse fill="none" stroke="black" cx="1825" cy="-18" rx="197.66" ry="18"/>
<text text-anchor="middle" x="1825" y="-14.3" font-family="Times,serif" font-size="14.00">pandas&#45;pd&#45;to&#45;numeric (pandas&#45;pd&#45;to&#45;numeric.ipynb)</text>
</g>
<!-- http://purl.org/dj/kaggle/pandas&#45;pd&#45;to&#45;numeric#361235310&#45;&gt;http://purl.org/dj/kaggle/pandas&#45;pd&#45;to&#45;numeric -->
<g id="edge1" class="edge">
<title>http://purl.org/dj/kaggle/pandas&#45;pd&#45;to&#45;numeric#361235310&#45;&gt;http://purl.org/dj/kaggle/pandas&#45;pd&#45;to&#45;numeric</title>
<path fill="none" stroke="black" d="M1444.46,-140.9C1457.27,-125.42 1477.71,-102.7 1499,-87 1525.4,-67.54 1533.66,-63.65 1565,-54 1597.88,-43.87 1634,-36.68 1668.58,-31.56"/>
<polygon fill="black" stroke="black" points="1669.36,-34.98 1678.77,-30.11 1668.37,-28.05 1669.36,-34.98"/>
<text text-anchor="middle" x="1532" y="-101.3" font-family="Times,serif" font-size="14.00">appearsIn ()</text>
</g>
<!-- http://purl.org/dj/kaggle/pandas&#45;pd&#45;to&#45;numeric#3206818118 -->
<g id="node3" class="node">
<title>http://purl.org/dj/kaggle/pandas&#45;pd&#45;to&#45;numeric#3206818118</title>
<ellipse fill="none" stroke="black" cx="589" cy="-159" rx="573.8" ry="18"/>
<text text-anchor="middle" x="589" y="-155.3" font-family="Times,serif" font-size="14.00">3206818118 ([&lt;_ast.Constant object at 0x7fd4c048ed90&gt;, &lt;_ast.Constant object at 0x7fd4c048e8b0&gt;, &lt;_ast.UnaryOp object at 0x7fd4c048ee20&gt;](0): Reuse)</text>
</g>
<!-- http://purl.org/dj/kaggle/pandas&#45;pd&#45;to&#45;numeric#3206818118&#45;&gt;http://purl.org/dj/kaggle/pandas&#45;pd&#45;to&#45;numeric -->
<g id="edge2" class="edge">
<title>http://purl.org/dj/kaggle/pandas&#45;pd&#45;to&#45;numeric#3206818118&#45;&gt;http://purl.org/dj/kaggle/pandas&#45;pd&#45;to&#45;numeric</title>
<path fill="none" stroke="black" d="M673.3,-141.13C748.8,-126.22 862.62,-104.22 962,-87 1055.52,-70.79 1078.6,-63.89 1173,-54 1325.46,-38.03 1498.77,-29.16 1628.37,-24.35"/>
<polygon fill="black" stroke="black" points="1628.55,-27.85 1638.41,-23.99 1628.29,-20.86 1628.55,-27.85"/>
<text text-anchor="middle" x="995" y="-101.3" font-family="Times,serif" font-size="14.00">appearsIn ()</text>
</g>
<!-- http://purl.org/dj/kaggle/pandas&#45;pd&#45;to&#45;numeric#87359819 -->
<g id="node4" class="node">
<title>http://purl.org/dj/kaggle/pandas&#45;pd&#45;to&#45;numeric#87359819</title>
<ellipse fill="none" stroke="black" cx="822" cy="-603" rx="128.08" ry="18"/>
<text text-anchor="middle" x="822" y="-599.3" font-family="Times,serif" font-size="14.00">87359819 (s(0)$2: Visualisation)</text>
</g>
<!-- http://purl.org/dj/kaggle/pandas&#45;pd&#45;to&#45;numeric#87359819&#45;&gt;http://purl.org/dj/kaggle/pandas&#45;pd&#45;to&#45;numeric#87359819 -->
<g id="edge3" class="edge">
<title>http://purl.org/dj/kaggle/pandas&#45;pd&#45;to&#45;numeric#87359819&#45;&gt;http://purl.org/dj/kaggle/pandas&#45;pd&#45;to&#45;numeric#87359819</title>
<path fill="none" stroke="black" d="M939.75,-610.09C956.66,-608.95 968.04,-606.59 968.04,-603 968.04,-600.2 961.1,-598.14 949.99,-596.83"/>
<polygon fill="black" stroke="black" points="950.02,-593.32 939.75,-595.91 949.39,-600.3 950.02,-593.32"/>
<text text-anchor="middle" x="1006.04" y="-599.3" font-family="Times,serif" font-size="14.00">to_numeric ()</text>
</g>
<!-- http://purl.org/dj/kaggle/pandas&#45;pd&#45;to&#45;numeric#132841899 -->
<g id="node5" class="node">
<title>http://purl.org/dj/kaggle/pandas&#45;pd&#45;to&#45;numeric#132841899</title>
<ellipse fill="none" stroke="black" cx="1200" cy="-516" rx="137.58" ry="18"/>
<text text-anchor="middle" x="1200" y="-512.3" font-family="Times,serif" font-size="14.00">132841899 (pd(0)$1: Visualisation)</text>
</g>
<!-- http://purl.org/dj/kaggle/pandas&#45;pd&#45;to&#45;numeric#87359819&#45;&gt;http://purl.org/dj/kaggle/pandas&#45;pd&#45;to&#45;numeric#132841899 -->
<g id="edge4" class="edge">
<title>http://purl.org/dj/kaggle/pandas&#45;pd&#45;to&#45;numeric#87359819&#45;&gt;http://purl.org/dj/kaggle/pandas&#45;pd&#45;to&#45;numeric#132841899</title>
<path fill="none" stroke="black" d="M886.98,-587.39C952.77,-572.59 1054.45,-549.73 1123.95,-534.1"/>
<polygon fill="black" stroke="black" points="1124.98,-537.46 1133.97,-531.85 1123.44,-530.63 1124.98,-537.46"/>
<text text-anchor="middle" x="1072" y="-555.8" font-family="Times,serif" font-size="14.00">to_numeric ()</text>
</g>
<!-- http://purl.org/dj/kaggle/pandas&#45;pd&#45;to&#45;numeric#284099315 -->
<g id="node6" class="node">
<title>http://purl.org/dj/kaggle/pandas&#45;pd&#45;to&#45;numeric#284099315</title>
<ellipse fill="none" stroke="black" cx="500" cy="-462" rx="118.08" ry="18"/>
<text text-anchor="middle" x="500" y="-458.3" font-family="Times,serif" font-size="14.00">284099315 (coerce(0): Reuse)</text>
</g>
<!-- http://purl.org/dj/kaggle/pandas&#45;pd&#45;to&#45;numeric#87359819&#45;&gt;http://purl.org/dj/kaggle/pandas&#45;pd&#45;to&#45;numeric#284099315 -->
<g id="edge5" class="edge">
<title>http://purl.org/dj/kaggle/pandas&#45;pd&#45;to&#45;numeric#87359819&#45;&gt;http://purl.org/dj/kaggle/pandas&#45;pd&#45;to&#45;numeric#284099315</title>
<path fill="none" stroke="black" d="M784.43,-585.78C725.42,-560.31 611.1,-510.96 546.82,-483.21"/>
<polygon fill="black" stroke="black" points="547.9,-479.86 537.33,-479.11 545.12,-486.29 547.9,-479.86"/>
<text text-anchor="middle" x="779" y="-555.8" font-family="Times,serif" font-size="14.00">to_numeric ()</text>
</g>
<!-- http://purl.org/dj/kaggle/pandas&#45;pd&#45;to&#45;numeric#87228745 -->
<g id="node7" class="node">
<title>http://purl.org/dj/kaggle/pandas&#45;pd&#45;to&#45;numeric#87228745</title>
<ellipse fill="none" stroke="black" cx="1169" cy="-300" rx="128.08" ry="18"/>
<text text-anchor="middle" x="1169" y="-296.3" font-family="Times,serif" font-size="14.00">87228745 (s(0)$0: Visualisation)</text>
</g>
<!-- http://purl.org/dj/kaggle/pandas&#45;pd&#45;to&#45;numeric#132841899&#45;&gt;http://purl.org/dj/kaggle/pandas&#45;pd&#45;to&#45;numeric#87228745 -->
<g id="edge6" class="edge">
<title>http://purl.org/dj/kaggle/pandas&#45;pd&#45;to&#45;numeric#132841899&#45;&gt;http://purl.org/dj/kaggle/pandas&#45;pd&#45;to&#45;numeric#87228745</title>
<path fill="none" stroke="black" d="M1184.39,-497.82C1170.19,-480.94 1150.25,-453.76 1142,-426 1132.06,-392.56 1144.5,-353.07 1155.59,-327.56"/>
<polygon fill="black" stroke="black" points="1158.9,-328.74 1159.87,-318.19 1152.53,-325.83 1158.9,-328.74"/>
<text text-anchor="middle" x="1180" y="-404.3" font-family="Times,serif" font-size="14.00">to_numeric ()</text>
</g>
<!-- http://purl.org/dj/kaggle/pandas&#45;pd&#45;to&#45;numeric#132776362 -->
<g id="node8" class="node">
<title>http://purl.org/dj/kaggle/pandas&#45;pd&#45;to&#45;numeric#132776362</title>
<ellipse fill="none" stroke="black" cx="1365" cy="-408" rx="137.58" ry="18"/>
<text text-anchor="middle" x="1365" y="-404.3" font-family="Times,serif" font-size="14.00">132776362 (pd(0)$0: Visualisation)</text>
</g>
<!-- http://purl.org/dj/kaggle/pandas&#45;pd&#45;to&#45;numeric#132841899&#45;&gt;http://purl.org/dj/kaggle/pandas&#45;pd&#45;to&#45;numeric#132776362 -->
<g id="edge7" class="edge">
<title>http://purl.org/dj/kaggle/pandas&#45;pd&#45;to&#45;numeric#132841899&#45;&gt;http://purl.org/dj/kaggle/pandas&#45;pd&#45;to&#45;numeric#132776362</title>
<path fill="none" stroke="black" d="M1226.14,-498.2C1254.26,-480.14 1299.12,-451.32 1330.2,-431.35"/>
<polygon fill="black" stroke="black" points="1332.46,-434.07 1338.98,-425.72 1328.67,-428.18 1332.46,-434.07"/>
<text text-anchor="middle" x="1345" y="-458.3" font-family="Times,serif" font-size="14.00">to_numeric ()</text>
</g>
<!-- http://purl.org/dj/kaggle/pandas&#45;pd&#45;to&#45;numeric#284099315&#45;&gt;http://purl.org/dj/kaggle/pandas&#45;pd&#45;to&#45;numeric -->
<g id="edge8" class="edge">
<title>http://purl.org/dj/kaggle/pandas&#45;pd&#45;to&#45;numeric#284099315&#45;&gt;http://purl.org/dj/kaggle/pandas&#45;pd&#45;to&#45;numeric</title>
<path fill="none" stroke="black" d="M383.09,-459.26C235.32,-453.82 0,-432.92 0,-355 0,-355 0,-355 0,-104 0,-23.84 1138.34,-17.28 1616.95,-18.06"/>
<polygon fill="black" stroke="black" points="1617.08,-21.56 1627.09,-18.08 1617.1,-14.56 1617.08,-21.56"/>
<text text-anchor="middle" x="33" y="-252.8" font-family="Times,serif" font-size="14.00">appearsIn ()</text>
</g>
<!-- http://purl.org/dj/kaggle/pandas&#45;pd&#45;to&#45;numeric#87228745&#45;&gt;http://purl.org/dj/kaggle/pandas&#45;pd&#45;to&#45;numeric#361235310 -->
<g id="edge16" class="edge">
<title>http://purl.org/dj/kaggle/pandas&#45;pd&#45;to&#45;numeric#87228745&#45;&gt;http://purl.org/dj/kaggle/pandas&#45;pd&#45;to&#45;numeric#361235310</title>
<path fill="none" stroke="black" d="M1201.94,-282.51C1228.94,-268.91 1268.1,-248.99 1302,-231 1332.57,-214.78 1366.88,-195.86 1392.43,-181.63"/>
<polygon fill="black" stroke="black" points="1394.39,-184.54 1401.42,-176.61 1390.98,-178.43 1394.39,-184.54"/>
<text text-anchor="middle" x="1289" y="-252.8" font-family="Times,serif" font-size="14.00">Series ()</text>
</g>
<!-- http://purl.org/dj/kaggle/pandas&#45;pd&#45;to&#45;numeric#87228745&#45;&gt;http://purl.org/dj/kaggle/pandas&#45;pd&#45;to&#45;numeric#3206818118 -->
<g id="edge17" class="edge">
<title>http://purl.org/dj/kaggle/pandas&#45;pd&#45;to&#45;numeric#87228745&#45;&gt;http://purl.org/dj/kaggle/pandas&#45;pd&#45;to&#45;numeric#3206818118</title>
<path fill="none" stroke="black" d="M1107.2,-284.19C1001.7,-258.9 786.88,-207.42 669.68,-179.34"/>
<polygon fill="black" stroke="black" points="670.23,-175.87 659.69,-176.94 668.6,-182.68 670.23,-175.87"/>
<text text-anchor="middle" x="1046" y="-252.8" font-family="Times,serif" font-size="14.00">Series ()</text>
</g>
<!-- http://purl.org/dj/kaggle/pandas&#45;pd&#45;to&#45;numeric#80085334 -->
<g id="node13" class="node">
<title>http://purl.org/dj/kaggle/pandas&#45;pd&#45;to&#45;numeric#80085334</title>
<ellipse fill="none" stroke="black" cx="1169" cy="-213" rx="124.28" ry="18"/>
<text text-anchor="middle" x="1169" y="-209.3" font-family="Times,serif" font-size="14.00">80085334 (pd(0): Visualisation)</text>
</g>
<!-- http://purl.org/dj/kaggle/pandas&#45;pd&#45;to&#45;numeric#87228745&#45;&gt;http://purl.org/dj/kaggle/pandas&#45;pd&#45;to&#45;numeric#80085334 -->
<g id="edge18" class="edge">
<title>http://purl.org/dj/kaggle/pandas&#45;pd&#45;to&#45;numeric#87228745&#45;&gt;http://purl.org/dj/kaggle/pandas&#45;pd&#45;to&#45;numeric#80085334</title>
<path fill="none" stroke="black" d="M1169,-281.8C1169,-270.16 1169,-254.55 1169,-241.24"/>
<polygon fill="black" stroke="black" points="1172.5,-241.18 1169,-231.18 1165.5,-241.18 1172.5,-241.18"/>
<text text-anchor="middle" x="1192" y="-252.8" font-family="Times,serif" font-size="14.00">Series ()</text>
</g>
<!-- http://purl.org/dj/kaggle/pandas&#45;pd&#45;to&#45;numeric#132776362&#45;&gt;http://purl.org/dj/kaggle/pandas&#45;pd&#45;to&#45;numeric#87228745 -->
<g id="edge19" class="edge">
<title>http://purl.org/dj/kaggle/pandas&#45;pd&#45;to&#45;numeric#132776362&#45;&gt;http://purl.org/dj/kaggle/pandas&#45;pd&#45;to&#45;numeric#87228745</title>
<path fill="none" stroke="black" d="M1317.89,-390.91C1303.81,-385.51 1288.53,-379.05 1275,-372 1248.36,-358.11 1220.2,-339.01 1199.6,-324.12"/>
<polygon fill="black" stroke="black" points="1201.4,-321.1 1191.26,-318.02 1197.27,-326.75 1201.4,-321.1"/>
<text text-anchor="middle" x="1313" y="-350.3" font-family="Times,serif" font-size="14.00">to_numeric ()</text>
</g>
<!-- http://purl.org/dj/kaggle/pandas&#45;pd&#45;to&#45;numeric#132776362&#45;&gt;http://purl.org/dj/kaggle/pandas&#45;pd&#45;to&#45;numeric#80085334 -->
<g id="edge20" class="edge">
<title>http://purl.org/dj/kaggle/pandas&#45;pd&#45;to&#45;numeric#132776362&#45;&gt;http://purl.org/dj/kaggle/pandas&#45;pd&#45;to&#45;numeric#80085334</title>
<path fill="none" stroke="black" d="M1365.19,-389.83C1364.55,-356.98 1358.11,-285.27 1316,-249 1304.94,-239.47 1291.74,-232.43 1277.85,-227.25"/>
<polygon fill="black" stroke="black" points="1278.74,-223.85 1268.15,-223.95 1276.49,-230.48 1278.74,-223.85"/>
<text text-anchor="middle" x="1393" y="-296.3" font-family="Times,serif" font-size="14.00">to_numeric ()</text>
</g>
<!-- http://purl.org/dj/kaggle/pandas&#45;pd&#45;to&#45;numeric#42008801 -->
<g id="node9" class="node">
<title>http://purl.org/dj/kaggle/pandas&#45;pd&#45;to&#45;numeric#42008801</title>
<ellipse fill="none" stroke="black" cx="1579" cy="-300" rx="120.48" ry="18"/>
<text text-anchor="middle" x="1579" y="-296.3" font-family="Times,serif" font-size="14.00">42008801 (_(0): Visualisation)</text>
</g>
<!-- http://purl.org/dj/kaggle/pandas&#45;pd&#45;to&#45;numeric#42008801&#45;&gt;http://purl.org/dj/kaggle/pandas&#45;pd&#45;to&#45;numeric -->
<g id="edge9" class="edge">
<title>http://purl.org/dj/kaggle/pandas&#45;pd&#45;to&#45;numeric#42008801&#45;&gt;http://purl.org/dj/kaggle/pandas&#45;pd&#45;to&#45;numeric</title>
<path fill="none" stroke="black" d="M1577.63,-281.59C1576.07,-250.49 1576.92,-184.55 1607,-141 1642.77,-89.2 1708.06,-56.92 1757.89,-38.68"/>
<polygon fill="black" stroke="black" points="1759.07,-41.97 1767.32,-35.32 1756.73,-35.38 1759.07,-41.97"/>
<text text-anchor="middle" x="1640" y="-155.3" font-family="Times,serif" font-size="14.00">appearsIn ()</text>
</g>
<!-- http://purl.org/dj/kaggle/pandas&#45;pd&#45;to&#45;numeric#820184443 -->
<g id="node10" class="node">
<title>http://purl.org/dj/kaggle/pandas&#45;pd&#45;to&#45;numeric#820184443</title>
<ellipse fill="none" stroke="black" cx="1838" cy="-213" rx="141.88" ry="18"/>
<text text-anchor="middle" x="1838" y="-209.3" font-family="Times,serif" font-size="14.00">820184443 (/kaggle/input(0): Reuse)</text>
</g>
<!-- http://purl.org/dj/kaggle/pandas&#45;pd&#45;to&#45;numeric#42008801&#45;&gt;http://purl.org/dj/kaggle/pandas&#45;pd&#45;to&#45;numeric#820184443 -->
<g id="edge10" class="edge">
<title>http://purl.org/dj/kaggle/pandas&#45;pd&#45;to&#45;numeric#42008801&#45;&gt;http://purl.org/dj/kaggle/pandas&#45;pd&#45;to&#45;numeric#820184443</title>
<path fill="none" stroke="black" d="M1618.2,-282.89C1644.04,-272.55 1678.76,-259.21 1710,-249 1728.46,-242.97 1748.65,-237.11 1767.41,-231.97"/>
<polygon fill="black" stroke="black" points="1768.35,-235.35 1777.08,-229.35 1766.52,-228.59 1768.35,-235.35"/>
<text text-anchor="middle" x="1743.5" y="-252.8" font-family="Times,serif" font-size="14.00">iteratorOf ()</text>
</g>
<!-- http://purl.org/dj/kaggle/pandas&#45;pd&#45;to&#45;numeric#83689828 -->
<g id="node11" class="node">
<title>http://purl.org/dj/kaggle/pandas&#45;pd&#45;to&#45;numeric#83689828</title>
<ellipse fill="none" stroke="black" cx="2121" cy="-213" rx="123.48" ry="18"/>
<text text-anchor="middle" x="2121" y="-209.3" font-family="Times,serif" font-size="14.00">83689828 (os(0): Visualisation)</text>
</g>
<!-- http://purl.org/dj/kaggle/pandas&#45;pd&#45;to&#45;numeric#42008801&#45;&gt;http://purl.org/dj/kaggle/pandas&#45;pd&#45;to&#45;numeric#83689828 -->
<g id="edge11" class="edge">
<title>http://purl.org/dj/kaggle/pandas&#45;pd&#45;to&#45;numeric#42008801&#45;&gt;http://purl.org/dj/kaggle/pandas&#45;pd&#45;to&#45;numeric#83689828</title>
<path fill="none" stroke="black" d="M1666.06,-287.58C1680.4,-285.71 1695.12,-283.79 1709,-282 1771.65,-273.9 1791.75,-288.46 1850,-264 1859.92,-259.83 1859.1,-253.22 1869,-249 1872.7,-247.42 1953.69,-236.32 2022.87,-227.04"/>
<polygon fill="black" stroke="black" points="2023.54,-230.48 2032.98,-225.68 2022.61,-223.54 2023.54,-230.48"/>
<text text-anchor="middle" x="1902.5" y="-252.8" font-family="Times,serif" font-size="14.00">iteratorOf ()</text>
</g>
<!-- http://purl.org/dj/kaggle/pandas&#45;pd&#45;to&#45;numeric#820184443&#45;&gt;http://purl.org/dj/kaggle/pandas&#45;pd&#45;to&#45;numeric -->
<g id="edge12" class="edge">
<title>http://purl.org/dj/kaggle/pandas&#45;pd&#45;to&#45;numeric#820184443&#45;&gt;http://purl.org/dj/kaggle/pandas&#45;pd&#45;to&#45;numeric</title>
<path fill="none" stroke="black" d="M1836.85,-194.87C1834.59,-161.32 1829.56,-86.71 1826.84,-46.29"/>
<polygon fill="black" stroke="black" points="1830.32,-45.83 1826.15,-36.09 1823.33,-46.3 1830.32,-45.83"/>
<text text-anchor="middle" x="1865" y="-101.3" font-family="Times,serif" font-size="14.00">appearsIn ()</text>
</g>
<!-- http://purl.org/dj/kaggle/pandas&#45;pd&#45;to&#45;numeric#83689828&#45;&gt;http://purl.org/dj/kaggle/pandas&#45;pd&#45;to&#45;numeric -->
<g id="edge13" class="edge">
<title>http://purl.org/dj/kaggle/pandas&#45;pd&#45;to&#45;numeric#83689828&#45;&gt;http://purl.org/dj/kaggle/pandas&#45;pd&#45;to&#45;numeric</title>
<path fill="none" stroke="black" d="M2122.25,-194.72C2123.18,-168.2 2120.97,-117.38 2094,-87 2073.13,-63.49 2003.62,-46.28 1940.49,-35.05"/>
<polygon fill="black" stroke="black" points="1940.87,-31.57 1930.42,-33.3 1939.67,-38.46 1940.87,-31.57"/>
<text text-anchor="middle" x="2147" y="-101.3" font-family="Times,serif" font-size="14.00">appearsIn ()</text>
</g>
<!-- http://purl.org/dj/python/lib/22216931 -->
<g id="node12" class="node">
<title>http://purl.org/dj/python/lib/22216931</title>
<ellipse fill="none" stroke="black" cx="1997" cy="-105" rx="88.28" ry="18"/>
<text text-anchor="middle" x="1997" y="-101.3" font-family="Times,serif" font-size="14.00">22216931 (os: Reuse)</text>
</g>
<!-- http://purl.org/dj/kaggle/pandas&#45;pd&#45;to&#45;numeric#83689828&#45;&gt;http://purl.org/dj/python/lib/22216931 -->
<g id="edge14" class="edge">
<title>http://purl.org/dj/kaggle/pandas&#45;pd&#45;to&#45;numeric#83689828&#45;&gt;http://purl.org/dj/python/lib/22216931</title>
<path fill="none" stroke="black" d="M2049.56,-198.28C2037.45,-193.26 2025.93,-186.39 2017,-177 2005.85,-165.28 2000.83,-147.83 1998.61,-133.17"/>
<polygon fill="black" stroke="black" points="2002.07,-132.63 1997.44,-123.11 1995.12,-133.44 2002.07,-132.63"/>
<text text-anchor="middle" x="2062" y="-155.3" font-family="Times,serif" font-size="14.00">assignedFrom ()</text>
</g>
<!-- http://purl.org/dj/python/lib/22216931&#45;&gt;http://purl.org/dj/kaggle/pandas&#45;pd&#45;to&#45;numeric -->
<g id="edge15" class="edge">
<title>http://purl.org/dj/python/lib/22216931&#45;&gt;http://purl.org/dj/kaggle/pandas&#45;pd&#45;to&#45;numeric</title>
<path fill="none" stroke="black" d="M1965.05,-88.21C1937.76,-74.72 1898.25,-55.2 1868.15,-40.32"/>
<polygon fill="black" stroke="black" points="1869.65,-37.16 1859.13,-35.87 1866.55,-43.44 1869.65,-37.16"/>
<text text-anchor="middle" x="1961.5" y="-57.8" font-family="Times,serif" font-size="14.00">importedBy ()</text>
</g>
<!-- http://purl.org/dj/kaggle/pandas&#45;pd&#45;to&#45;numeric#80085334&#45;&gt;http://purl.org/dj/kaggle/pandas&#45;pd&#45;to&#45;numeric -->
<g id="edge21" class="edge">
<title>http://purl.org/dj/kaggle/pandas&#45;pd&#45;to&#45;numeric#80085334&#45;&gt;http://purl.org/dj/kaggle/pandas&#45;pd&#45;to&#45;numeric</title>
<path fill="none" stroke="black" d="M1221.36,-196.6C1235.68,-191.37 1250.86,-184.82 1264,-177 1284.84,-164.6 1285.52,-155.44 1305,-141 1341.56,-113.89 1350.1,-104.77 1392,-87 1470.27,-53.81 1562.69,-36.63 1642,-27.82"/>
<polygon fill="black" stroke="black" points="1642.54,-31.28 1652.1,-26.73 1641.79,-24.32 1642.54,-31.28"/>
<text text-anchor="middle" x="1425" y="-101.3" font-family="Times,serif" font-size="14.00">appearsIn ()</text>
</g>
<!-- http://purl.org/dj/python/lib/144966264 -->
<g id="node14" class="node">
<title>http://purl.org/dj/python/lib/144966264</title>
<ellipse fill="none" stroke="black" cx="1146" cy="-105" rx="109.38" ry="18"/>
<text text-anchor="middle" x="1146" y="-101.3" font-family="Times,serif" font-size="14.00">144966264 (pandas: Reuse)</text>
</g>
<!-- http://purl.org/dj/kaggle/pandas&#45;pd&#45;to&#45;numeric#80085334&#45;&gt;http://purl.org/dj/python/lib/144966264 -->
<g id="edge22" class="edge">
<title>http://purl.org/dj/kaggle/pandas&#45;pd&#45;to&#45;numeric#80085334&#45;&gt;http://purl.org/dj/python/lib/144966264</title>
<path fill="none" stroke="black" d="M1169.71,-194.74C1169.85,-180.16 1168.99,-158.85 1164,-141 1163.21,-138.16 1162.17,-135.29 1160.99,-132.47"/>
<polygon fill="black" stroke="black" points="1164.06,-130.77 1156.61,-123.23 1157.74,-133.77 1164.06,-130.77"/>
<text text-anchor="middle" x="1215" y="-155.3" font-family="Times,serif" font-size="14.00">assignedFrom ()</text>
</g>
<!-- http://purl.org/dj/python/lib/144966264&#45;&gt;http://purl.org/dj/kaggle/pandas&#45;pd&#45;to&#45;numeric -->
<g id="edge23" class="edge">
<title>http://purl.org/dj/python/lib/144966264&#45;&gt;http://purl.org/dj/kaggle/pandas&#45;pd&#45;to&#45;numeric</title>
<path fill="none" stroke="black" d="M1158.45,-86.82C1167.88,-75.3 1181.92,-61 1198,-54 1236.56,-37.21 1456.42,-27.94 1625.02,-23.23"/>
<polygon fill="black" stroke="black" points="1625.13,-26.73 1635.03,-22.95 1624.94,-19.73 1625.13,-26.73"/>
<text text-anchor="middle" x="1237.5" y="-57.8" font-family="Times,serif" font-size="14.00">importedBy ()</text>
</g>
<!-- http://purl.org/dj/kaggle/pandas&#45;pd&#45;to&#45;numeric#355533666 -->
<g id="node15" class="node">
<title>http://purl.org/dj/kaggle/pandas&#45;pd&#45;to&#45;numeric#355533666</title>
<ellipse fill="none" stroke="black" cx="1867" cy="-300" rx="149.47" ry="18"/>
<text text-anchor="middle" x="1867" y="-296.3" font-family="Times,serif" font-size="14.00">355533666 (dirname(0): Visualisation)</text>
</g>
<!-- http://purl.org/dj/kaggle/pandas&#45;pd&#45;to&#45;numeric#355533666&#45;&gt;http://purl.org/dj/kaggle/pandas&#45;pd&#45;to&#45;numeric -->
<g id="edge24" class="edge">
<title>http://purl.org/dj/kaggle/pandas&#45;pd&#45;to&#45;numeric#355533666&#45;&gt;http://purl.org/dj/kaggle/pandas&#45;pd&#45;to&#45;numeric</title>
<path fill="none" stroke="black" d="M1773.35,-285.91C1740.49,-276.32 1706.85,-259.72 1687,-231 1640.19,-163.27 1735.94,-81.05 1790.56,-41.88"/>
<polygon fill="black" stroke="black" points="1792.79,-44.6 1798.95,-35.97 1788.76,-38.87 1792.79,-44.6"/>
<text text-anchor="middle" x="1723" y="-155.3" font-family="Times,serif" font-size="14.00">appearsIn ()</text>
</g>
<!-- http://purl.org/dj/kaggle/pandas&#45;pd&#45;to&#45;numeric#355533666&#45;&gt;http://purl.org/dj/kaggle/pandas&#45;pd&#45;to&#45;numeric#820184443 -->
<g id="edge25" class="edge">
<title>http://purl.org/dj/kaggle/pandas&#45;pd&#45;to&#45;numeric#355533666&#45;&gt;http://purl.org/dj/kaggle/pandas&#45;pd&#45;to&#45;numeric#820184443</title>
<path fill="none" stroke="black" d="M1805.17,-283.44C1796.41,-278.61 1788.52,-272.28 1783,-264 1776.16,-253.73 1782.1,-244.16 1792.23,-236.19"/>
<polygon fill="black" stroke="black" points="1794.38,-238.97 1800.65,-230.43 1790.42,-233.19 1794.38,-238.97"/>
<text text-anchor="middle" x="1816.5" y="-252.8" font-family="Times,serif" font-size="14.00">iteratorOf ()</text>
</g>
<!-- http://purl.org/dj/kaggle/pandas&#45;pd&#45;to&#45;numeric#355533666&#45;&gt;http://purl.org/dj/kaggle/pandas&#45;pd&#45;to&#45;numeric#83689828 -->
<g id="edge26" class="edge">
<title>http://purl.org/dj/kaggle/pandas&#45;pd&#45;to&#45;numeric#355533666&#45;&gt;http://purl.org/dj/kaggle/pandas&#45;pd&#45;to&#45;numeric#83689828</title>
<path fill="none" stroke="black" d="M1903.87,-282.47C1915.58,-276.92 1928.49,-270.48 1940,-264 1950.64,-258.02 1951.75,-253.73 1963,-249 1983.55,-240.36 2006.54,-233.71 2028.48,-228.66"/>
<polygon fill="black" stroke="black" points="2029.47,-232.02 2038.48,-226.44 2027.96,-225.19 2029.47,-232.02"/>
<text text-anchor="middle" x="1996.5" y="-252.8" font-family="Times,serif" font-size="14.00">iteratorOf ()</text>
</g>
<!-- http://purl.org/dj/kaggle/pandas&#45;pd&#45;to&#45;numeric#417399731 -->
<g id="node16" class="node">
<title>http://purl.org/dj/kaggle/pandas&#45;pd&#45;to&#45;numeric#417399731</title>
<ellipse fill="none" stroke="black" cx="2044" cy="-516" rx="147.57" ry="18"/>
<text text-anchor="middle" x="2044" y="-512.3" font-family="Times,serif" font-size="14.00">417399731 (print[15/8]: Visualisation)</text>
</g>
<!-- http://purl.org/dj/kaggle/pandas&#45;pd&#45;to&#45;numeric#417399731&#45;&gt;http://purl.org/dj/kaggle/pandas&#45;pd&#45;to&#45;numeric#83689828 -->
<g id="edge27" class="edge">
<title>http://purl.org/dj/kaggle/pandas&#45;pd&#45;to&#45;numeric#417399731&#45;&gt;http://purl.org/dj/kaggle/pandas&#45;pd&#45;to&#45;numeric#83689828</title>
<path fill="none" stroke="black" d="M2039.62,-497.77C2029.23,-452.81 2007.55,-329.81 2058,-249 2061.14,-243.97 2065.28,-239.6 2069.94,-235.82"/>
<polygon fill="black" stroke="black" points="2072.03,-238.63 2078.18,-230.01 2067.99,-232.91 2072.03,-238.63"/>
<text text-anchor="middle" x="2048.5" y="-350.3" font-family="Times,serif" font-size="14.00">print ()</text>
</g>
<!-- http://purl.org/dj/kaggle/pandas&#45;pd&#45;to&#45;numeric#417399731&#45;&gt;http://purl.org/dj/kaggle/pandas&#45;pd&#45;to&#45;numeric#355533666 -->
<g id="edge28" class="edge">
<title>http://purl.org/dj/kaggle/pandas&#45;pd&#45;to&#45;numeric#417399731&#45;&gt;http://purl.org/dj/kaggle/pandas&#45;pd&#45;to&#45;numeric#355533666</title>
<path fill="none" stroke="black" d="M2029.81,-497.85C1998.6,-460.11 1923.87,-369.76 1887.53,-325.82"/>
<polygon fill="black" stroke="black" points="1890.08,-323.41 1881.01,-317.94 1884.68,-327.87 1890.08,-323.41"/>
<text text-anchor="middle" x="1990.5" y="-404.3" font-family="Times,serif" font-size="14.00">print ()</text>
</g>
<!-- http://purl.org/dj/kaggle/pandas&#45;pd&#45;to&#45;numeric#427361219 -->
<g id="node17" class="node">
<title>http://purl.org/dj/kaggle/pandas&#45;pd&#45;to&#45;numeric#427361219</title>
<ellipse fill="none" stroke="black" cx="2226" cy="-408" rx="150.57" ry="18"/>
<text text-anchor="middle" x="2226" y="-404.3" font-family="Times,serif" font-size="14.00">427361219 (filename(0): Visualisation)</text>
</g>
<!-- http://purl.org/dj/kaggle/pandas&#45;pd&#45;to&#45;numeric#417399731&#45;&gt;http://purl.org/dj/kaggle/pandas&#45;pd&#45;to&#45;numeric#427361219 -->
<g id="edge29" class="edge">
<title>http://purl.org/dj/kaggle/pandas&#45;pd&#45;to&#45;numeric#417399731&#45;&gt;http://purl.org/dj/kaggle/pandas&#45;pd&#45;to&#45;numeric#427361219</title>
<path fill="none" stroke="black" d="M2072.84,-498.2C2104.12,-479.98 2154.18,-450.83 2188.5,-430.84"/>
<polygon fill="black" stroke="black" points="2190.42,-433.77 2197.3,-425.72 2186.89,-427.73 2190.42,-433.77"/>
<text text-anchor="middle" x="2181.5" y="-458.3" font-family="Times,serif" font-size="14.00">print ()</text>
</g>
<!-- http://purl.org/dj/kaggle/pandas&#45;pd&#45;to&#45;numeric#427361219&#45;&gt;http://purl.org/dj/kaggle/pandas&#45;pd&#45;to&#45;numeric -->
<g id="edge30" class="edge">
<title>http://purl.org/dj/kaggle/pandas&#45;pd&#45;to&#45;numeric#427361219&#45;&gt;http://purl.org/dj/kaggle/pandas&#45;pd&#45;to&#45;numeric</title>
<path fill="none" stroke="black" d="M2305.3,-392.66C2354.34,-378.71 2408,-351.83 2408,-301 2408,-301 2408,-301 2408,-104 2408,-62.57 2174.47,-39.53 2003.02,-28.2"/>
<polygon fill="black" stroke="black" points="2003.05,-24.7 1992.85,-27.54 2002.6,-31.68 2003.05,-24.7"/>
<text text-anchor="middle" x="2441" y="-209.3" font-family="Times,serif" font-size="14.00">appearsIn ()</text>
</g>
<!-- http://purl.org/dj/kaggle/pandas&#45;pd&#45;to&#45;numeric#512164918 -->
<g id="node18" class="node">
<title>http://purl.org/dj/kaggle/pandas&#45;pd&#45;to&#45;numeric#512164918</title>
<ellipse fill="none" stroke="black" cx="2226" cy="-300" rx="154.07" ry="18"/>
<text text-anchor="middle" x="2226" y="-296.3" font-family="Times,serif" font-size="14.00">512164918 (filenames(0): Visualisation)</text>
</g>
<!-- http://purl.org/dj/kaggle/pandas&#45;pd&#45;to&#45;numeric#427361219&#45;&gt;http://purl.org/dj/kaggle/pandas&#45;pd&#45;to&#45;numeric#512164918 -->
<g id="edge31" class="edge">
<title>http://purl.org/dj/kaggle/pandas&#45;pd&#45;to&#45;numeric#427361219&#45;&gt;http://purl.org/dj/kaggle/pandas&#45;pd&#45;to&#45;numeric#512164918</title>
<path fill="none" stroke="black" d="M2226,-389.97C2226,-373.38 2226,-347.88 2226,-328.43"/>
<polygon fill="black" stroke="black" points="2229.5,-328.34 2226,-318.34 2222.5,-328.34 2229.5,-328.34"/>
<text text-anchor="middle" x="2259.5" y="-350.3" font-family="Times,serif" font-size="14.00">iteratorOf ()</text>
</g>
<!-- http://purl.org/dj/kaggle/pandas&#45;pd&#45;to&#45;numeric#512164918&#45;&gt;http://purl.org/dj/kaggle/pandas&#45;pd&#45;to&#45;numeric -->
<g id="edge32" class="edge">
<title>http://purl.org/dj/kaggle/pandas&#45;pd&#45;to&#45;numeric#512164918&#45;&gt;http://purl.org/dj/kaggle/pandas&#45;pd&#45;to&#45;numeric</title>
<path fill="none" stroke="black" d="M2241.07,-281.93C2245,-276.54 2248.76,-270.33 2251,-264 2261.24,-235.08 2261.6,-224.45 2253,-195 2237.03,-140.33 2229.99,-120.61 2184,-87 2149.09,-61.48 2049.52,-43.85 1964.08,-32.95"/>
<polygon fill="black" stroke="black" points="1964.36,-29.46 1954,-31.69 1963.49,-36.41 1964.36,-29.46"/>
<text text-anchor="middle" x="2281" y="-155.3" font-family="Times,serif" font-size="14.00">appearsIn ()</text>
</g>
<!-- http://purl.org/dj/kaggle/pandas&#45;pd&#45;to&#45;numeric#512164918&#45;&gt;http://purl.org/dj/kaggle/pandas&#45;pd&#45;to&#45;numeric#820184443 -->
<g id="edge33" class="edge">
<title>http://purl.org/dj/kaggle/pandas&#45;pd&#45;to&#45;numeric#512164918&#45;&gt;http://purl.org/dj/kaggle/pandas&#45;pd&#45;to&#45;numeric#820184443</title>
<path fill="none" stroke="black" d="M2167.49,-283.23C2120.82,-270.75 2059.23,-254.53 2034,-249 2000.95,-241.76 1964.53,-234.94 1932.13,-229.27"/>
<polygon fill="black" stroke="black" points="1932.67,-225.82 1922.22,-227.56 1931.47,-232.71 1932.67,-225.82"/>
<text text-anchor="middle" x="2128.5" y="-252.8" font-family="Times,serif" font-size="14.00">iteratorOf ()</text>
</g>
<!-- http://purl.org/dj/kaggle/pandas&#45;pd&#45;to&#45;numeric#512164918&#45;&gt;http://purl.org/dj/kaggle/pandas&#45;pd&#45;to&#45;numeric#83689828 -->
<g id="edge34" class="edge">
<title>http://purl.org/dj/kaggle/pandas&#45;pd&#45;to&#45;numeric#512164918&#45;&gt;http://purl.org/dj/kaggle/pandas&#45;pd&#45;to&#45;numeric#83689828</title>
<path fill="none" stroke="black" d="M2205,-282C2189.27,-269.26 2167.53,-251.67 2150.12,-237.57"/>
<polygon fill="black" stroke="black" points="2151.93,-234.54 2141.96,-230.97 2147.53,-239.98 2151.93,-234.54"/>
<text text-anchor="middle" x="2213.5" y="-252.8" font-family="Times,serif" font-size="14.00">iteratorOf ()</text>
</g>
<!-- http://purl.org/dj/kaggle/pandas&#45;pd&#45;to&#45;numeric#980104476 -->
<g id="node19" class="node">
<title>http://purl.org/dj/kaggle/pandas&#45;pd&#45;to&#45;numeric#980104476</title>
<ellipse fill="none" stroke="black" cx="3153" cy="-354" rx="729.77" ry="18"/>
<text text-anchor="middle" x="3153" y="-350.3" font-family="Times,serif" font-size="14.00">980104476 ([&lt;_ast.Constant object at 0x7fd500999040&gt;, &lt;_ast.Constant object at 0x7fd500999940&gt;, &lt;_ast.Constant object at 0x7fd500999f10&gt;, &lt;_ast.UnaryOp object at 0x7fd500999b80&gt;](0): Reuse)</text>
</g>
<!-- http://purl.org/dj/kaggle/pandas&#45;pd&#45;to&#45;numeric#980104476&#45;&gt;http://purl.org/dj/kaggle/pandas&#45;pd&#45;to&#45;numeric -->
<g id="edge35" class="edge">
<title>http://purl.org/dj/kaggle/pandas&#45;pd&#45;to&#45;numeric#980104476&#45;&gt;http://purl.org/dj/kaggle/pandas&#45;pd&#45;to&#45;numeric</title>
<path fill="none" stroke="black" d="M2888.22,-337.23C2710.98,-322.96 2510,-297.88 2510,-257.5 2510,-257.5 2510,-257.5 2510,-104 2510,-59.02 2465.14,-66.76 2422,-54 2350.96,-32.99 2173.62,-24.52 2030.56,-21.15"/>
<polygon fill="black" stroke="black" points="2030.4,-17.65 2020.32,-20.92 2030.24,-24.64 2030.4,-17.65"/>
<text text-anchor="middle" x="2543" y="-209.3" font-family="Times,serif" font-size="14.00">appearsIn ()</text>
</g>
<!-- http://purl.org/dj/kaggle/pandas&#45;pd&#45;to&#45;numeric#87294282 -->
<g id="node20" class="node">
<title>http://purl.org/dj/kaggle/pandas&#45;pd&#45;to&#45;numeric#87294282</title>
<ellipse fill="none" stroke="black" cx="2153" cy="-603" rx="128.08" ry="18"/>
<text text-anchor="middle" x="2153" y="-599.3" font-family="Times,serif" font-size="14.00">87294282 (s(0)$1: Visualisation)</text>
</g>
<!-- http://purl.org/dj/kaggle/pandas&#45;pd&#45;to&#45;numeric#87294282&#45;&gt;http://purl.org/dj/kaggle/pandas&#45;pd&#45;to&#45;numeric#132841899 -->
<g id="edge36" class="edge">
<title>http://purl.org/dj/kaggle/pandas&#45;pd&#45;to&#45;numeric#87294282&#45;&gt;http://purl.org/dj/kaggle/pandas&#45;pd&#45;to&#45;numeric#132841899</title>
<path fill="none" stroke="black" d="M2047.83,-592.62C1869.46,-576.71 1508.72,-544.53 1320.47,-527.75"/>
<polygon fill="black" stroke="black" points="1320.53,-524.24 1310.26,-526.83 1319.91,-531.21 1320.53,-524.24"/>
<text text-anchor="middle" x="1757" y="-555.8" font-family="Times,serif" font-size="14.00">Series ()</text>
</g>
<!-- http://purl.org/dj/kaggle/pandas&#45;pd&#45;to&#45;numeric#87294282&#45;&gt;http://purl.org/dj/kaggle/pandas&#45;pd&#45;to&#45;numeric#980104476 -->
<g id="edge37" class="edge">
<title>http://purl.org/dj/kaggle/pandas&#45;pd&#45;to&#45;numeric#87294282&#45;&gt;http://purl.org/dj/kaggle/pandas&#45;pd&#45;to&#45;numeric#980104476</title>
<path fill="none" stroke="black" d="M2213.3,-587.11C2385.86,-544.48 2881.57,-422.04 3074.68,-374.35"/>
<polygon fill="black" stroke="black" points="3075.6,-377.72 3084.47,-371.93 3073.92,-370.93 3075.6,-377.72"/>
<text text-anchor="middle" x="2594" y="-512.3" font-family="Times,serif" font-size="14.00">Series ()</text>
</g>
<!-- http://purl.org/dj/kaggle/pandas&#45;pd&#45;to&#45;numeric#82575712 -->
<g id="node21" class="node">
<title>http://purl.org/dj/kaggle/pandas&#45;pd&#45;to&#45;numeric#82575712</title>
<ellipse fill="none" stroke="black" cx="2756" cy="-213" rx="124.28" ry="18"/>
<text text-anchor="middle" x="2756" y="-209.3" font-family="Times,serif" font-size="14.00">82575712 (np(0): Visualisation)</text>
</g>
<!-- http://purl.org/dj/kaggle/pandas&#45;pd&#45;to&#45;numeric#82575712&#45;&gt;http://purl.org/dj/kaggle/pandas&#45;pd&#45;to&#45;numeric -->
<g id="edge38" class="edge">
<title>http://purl.org/dj/kaggle/pandas&#45;pd&#45;to&#45;numeric#82575712&#45;&gt;http://purl.org/dj/kaggle/pandas&#45;pd&#45;to&#45;numeric</title>
<path fill="none" stroke="black" d="M2770.71,-194.93C2774.49,-189.54 2778.04,-183.33 2780,-177 2791.96,-138.4 2794.95,-116.19 2767,-87 2730.22,-48.6 2704.49,-62.52 2652,-54 2536.51,-35.26 2233.35,-26.2 2027.99,-22.09"/>
<polygon fill="black" stroke="black" points="2028.04,-18.59 2017.98,-21.89 2027.91,-25.59 2028.04,-18.59"/>
<text text-anchor="middle" x="2820" y="-101.3" font-family="Times,serif" font-size="14.00">appearsIn ()</text>
</g>
<!-- http://purl.org/dj/python/lib/111084090 -->
<g id="node22" class="node">
<title>http://purl.org/dj/python/lib/111084090</title>
<ellipse fill="none" stroke="black" cx="2648" cy="-105" rx="109.68" ry="18"/>
<text text-anchor="middle" x="2648" y="-101.3" font-family="Times,serif" font-size="14.00">111084090 (numpy: Reuse)</text>
</g>
<!-- http://purl.org/dj/kaggle/pandas&#45;pd&#45;to&#45;numeric#82575712&#45;&gt;http://purl.org/dj/python/lib/111084090 -->
<g id="edge39" class="edge">
<title>http://purl.org/dj/kaggle/pandas&#45;pd&#45;to&#45;numeric#82575712&#45;&gt;http://purl.org/dj/python/lib/111084090</title>
<path fill="none" stroke="black" d="M2716.98,-195.83C2707.46,-190.72 2697.79,-184.43 2690,-177 2676.87,-164.47 2666.44,-146.94 2659.27,-132.44"/>
<polygon fill="black" stroke="black" points="2662.24,-130.54 2654.82,-122.98 2655.91,-133.52 2662.24,-130.54"/>
<text text-anchor="middle" x="2735" y="-155.3" font-family="Times,serif" font-size="14.00">assignedFrom ()</text>
</g>
<!-- http://purl.org/dj/python/lib/111084090&#45;&gt;http://purl.org/dj/kaggle/pandas&#45;pd&#45;to&#45;numeric -->
<g id="edge40" class="edge">
<title>http://purl.org/dj/python/lib/111084090&#45;&gt;http://purl.org/dj/kaggle/pandas&#45;pd&#45;to&#45;numeric</title>
<path fill="none" stroke="black" d="M2616.05,-87.67C2591.55,-76 2556.53,-61.16 2524,-54 2433.18,-34.01 2201.04,-25.41 2029.07,-21.73"/>
<polygon fill="black" stroke="black" points="2028.94,-18.23 2018.86,-21.51 2028.79,-25.22 2028.94,-18.23"/>
<text text-anchor="middle" x="2608.5" y="-57.8" font-family="Times,serif" font-size="14.00">importedBy ()</text>
</g>
</g>
</svg>
