<?xml version="1.0" encoding="UTF-8" standalone="no"?>
<!DOCTYPE svg PUBLIC "-//W3C//DTD SVG 1.1//EN"
 "http://www.w3.org/Graphics/SVG/1.1/DTD/svg11.dtd">
<!-- Generated by graphviz version 2.44.1 (20200629.0846)
 -->
<!-- Pages: 1 -->
<svg width="4267pt" height="629pt"
 viewBox="0.00 0.00 4266.98 629.00" xmlns="http://www.w3.org/2000/svg" xmlns:xlink="http://www.w3.org/1999/xlink">
<g id="graph0" class="graph" transform="scale(1 1) rotate(0) translate(4 625)">
<polygon fill="white" stroke="transparent" points="-4,4 -4,-625 4262.98,-625 4262.98,4 -4,4"/>
<!-- http://purl.org/dj/kaggle/pandas&#45;pd&#45;to&#45;numeric#1476011668 -->
<g id="node1" class="node">
<title>http://purl.org/dj/kaggle/pandas&#45;pd&#45;to&#45;numeric#1476011668</title>
<ellipse fill="none" stroke="black" cx="3364.99" cy="-159" rx="535.6" ry="18"/>
<text text-anchor="middle" x="3364.99" y="-155.3" font-family="Times,serif" font-size="14.00">1476011668 ([&lt;_ast.Constant object at 0x12f8ab8b0&gt;, &lt;_ast.Constant object at 0x12f8ab790&gt;, &lt;_ast.UnaryOp object at 0x12f8ab0a0&gt;](0): Reuse)</text>
</g>
<!-- http://purl.org/dj/kaggle/pandas&#45;pd&#45;to&#45;numeric -->
<g id="node2" class="node">
<title>http://purl.org/dj/kaggle/pandas&#45;pd&#45;to&#45;numeric</title>
<ellipse fill="none" stroke="black" cx="2327.99" cy="-18" rx="89.08" ry="18"/>
<text text-anchor="middle" x="2327.99" y="-14.3" font-family="Times,serif" font-size="14.00">pandas&#45;pd&#45;to&#45;numeric</text>
</g>
<!-- http://purl.org/dj/kaggle/pandas&#45;pd&#45;to&#45;numeric#1476011668&#45;&gt;http://purl.org/dj/kaggle/pandas&#45;pd&#45;to&#45;numeric -->
<g id="edge1" class="edge">
<title>http://purl.org/dj/kaggle/pandas&#45;pd&#45;to&#45;numeric#1476011668&#45;&gt;http://purl.org/dj/kaggle/pandas&#45;pd&#45;to&#45;numeric</title>
<path fill="none" stroke="black" d="M3259.46,-141.35C3120.43,-119.71 2868.23,-81.44 2651.99,-54 2572.47,-43.91 2481.74,-34.27 2416.56,-27.67"/>
<polygon fill="black" stroke="black" points="2416.62,-24.16 2406.32,-26.64 2415.92,-31.12 2416.62,-24.16"/>
<text text-anchor="middle" x="3165.49" y="-101.3" font-family="Times,serif" font-size="14.00">appearsIn</text>
</g>
<!-- http://purl.org/dj/kaggle/pandas&#45;pd&#45;to&#45;numeric#42008801 -->
<g id="node3" class="node">
<title>http://purl.org/dj/kaggle/pandas&#45;pd&#45;to&#45;numeric#42008801</title>
<ellipse fill="none" stroke="black" cx="1620.99" cy="-300" rx="94.78" ry="18"/>
<text text-anchor="middle" x="1620.99" y="-296.3" font-family="Times,serif" font-size="14.00">42008801 (_(0): Reuse)</text>
</g>
<!-- http://purl.org/dj/kaggle/pandas&#45;pd&#45;to&#45;numeric#42008801&#45;&gt;http://purl.org/dj/kaggle/pandas&#45;pd&#45;to&#45;numeric -->
<g id="edge2" class="edge">
<title>http://purl.org/dj/kaggle/pandas&#45;pd&#45;to&#45;numeric#42008801&#45;&gt;http://purl.org/dj/kaggle/pandas&#45;pd&#45;to&#45;numeric</title>
<path fill="none" stroke="black" d="M1595.22,-282.53C1567.1,-262.4 1528.52,-227.05 1547.99,-195 1618.9,-78.29 1689.35,-90.34 1820.99,-54 1895.29,-33.49 2104.32,-24.67 2229.57,-21.14"/>
<polygon fill="black" stroke="black" points="2230.03,-24.63 2239.93,-20.86 2229.84,-17.63 2230.03,-24.63"/>
<text text-anchor="middle" x="1614.49" y="-155.3" font-family="Times,serif" font-size="14.00">appearsIn</text>
</g>
<!-- http://purl.org/dj/kaggle/pandas&#45;pd&#45;to&#45;numeric#820184443 -->
<g id="node4" class="node">
<title>http://purl.org/dj/kaggle/pandas&#45;pd&#45;to&#45;numeric#820184443</title>
<ellipse fill="none" stroke="black" cx="1698.99" cy="-213" rx="141.88" ry="18"/>
<text text-anchor="middle" x="1698.99" y="-209.3" font-family="Times,serif" font-size="14.00">820184443 (/kaggle/input(0): Reuse)</text>
</g>
<!-- http://purl.org/dj/kaggle/pandas&#45;pd&#45;to&#45;numeric#42008801&#45;&gt;http://purl.org/dj/kaggle/pandas&#45;pd&#45;to&#45;numeric#820184443 -->
<g id="edge3" class="edge">
<title>http://purl.org/dj/kaggle/pandas&#45;pd&#45;to&#45;numeric#42008801&#45;&gt;http://purl.org/dj/kaggle/pandas&#45;pd&#45;to&#45;numeric#820184443</title>
<path fill="none" stroke="black" d="M1636.4,-282.21C1647.86,-269.72 1663.68,-252.48 1676.55,-238.46"/>
<polygon fill="black" stroke="black" points="1679.16,-240.78 1683.34,-231.05 1674,-236.05 1679.16,-240.78"/>
<text text-anchor="middle" x="1691.99" y="-252.8" font-family="Times,serif" font-size="14.00">iteratorOf</text>
</g>
<!-- http://purl.org/dj/kaggle/pandas&#45;pd&#45;to&#45;numeric#83689828 -->
<g id="node5" class="node">
<title>http://purl.org/dj/kaggle/pandas&#45;pd&#45;to&#45;numeric#83689828</title>
<ellipse fill="none" stroke="black" cx="2080.99" cy="-213" rx="116.18" ry="18"/>
<text text-anchor="middle" x="2080.99" y="-209.3" font-family="Times,serif" font-size="14.00">83689828 (os(0): Movement)</text>
</g>
<!-- http://purl.org/dj/kaggle/pandas&#45;pd&#45;to&#45;numeric#42008801&#45;&gt;http://purl.org/dj/kaggle/pandas&#45;pd&#45;to&#45;numeric#83689828 -->
<g id="edge4" class="edge">
<title>http://purl.org/dj/kaggle/pandas&#45;pd&#45;to&#45;numeric#42008801&#45;&gt;http://purl.org/dj/kaggle/pandas&#45;pd&#45;to&#45;numeric#83689828</title>
<path fill="none" stroke="black" d="M1690.05,-287.56C1701.71,-285.67 1713.69,-283.76 1724.99,-282 1779.15,-273.58 1793.43,-275.62 1846.99,-264 1870.5,-258.9 1875.6,-254.61 1898.99,-249 1930.33,-241.48 1965.02,-234.49 1995.62,-228.76"/>
<polygon fill="black" stroke="black" points="1996.64,-232.13 2005.84,-226.87 1995.37,-225.25 1996.64,-232.13"/>
<text text-anchor="middle" x="1944.49" y="-252.8" font-family="Times,serif" font-size="14.00">previousActivity</text>
</g>
<!-- http://purl.org/dj/kaggle/pandas&#45;pd&#45;to&#45;numeric#820184443&#45;&gt;http://purl.org/dj/kaggle/pandas&#45;pd&#45;to&#45;numeric -->
<g id="edge5" class="edge">
<title>http://purl.org/dj/kaggle/pandas&#45;pd&#45;to&#45;numeric#820184443&#45;&gt;http://purl.org/dj/kaggle/pandas&#45;pd&#45;to&#45;numeric</title>
<path fill="none" stroke="black" d="M1708.21,-194.99C1728.79,-159.24 1782.43,-77.67 1854.99,-54 1922.12,-32.1 2111.59,-23.83 2229.35,-20.76"/>
<polygon fill="black" stroke="black" points="2229.55,-24.26 2239.46,-20.51 2229.38,-17.26 2229.55,-24.26"/>
<text text-anchor="middle" x="1821.49" y="-101.3" font-family="Times,serif" font-size="14.00">appearsIn</text>
</g>
<!-- http://purl.org/dj/kaggle/pandas&#45;pd&#45;to&#45;numeric#83689828&#45;&gt;http://purl.org/dj/kaggle/pandas&#45;pd&#45;to&#45;numeric -->
<g id="edge6" class="edge">
<title>http://purl.org/dj/kaggle/pandas&#45;pd&#45;to&#45;numeric#83689828&#45;&gt;http://purl.org/dj/kaggle/pandas&#45;pd&#45;to&#45;numeric</title>
<path fill="none" stroke="black" d="M2052.61,-195.52C2014.48,-171.32 1954.86,-124.93 1985.99,-87 2016.81,-49.45 2143.39,-32.26 2233.56,-24.65"/>
<polygon fill="black" stroke="black" points="2233.86,-28.14 2243.54,-23.84 2233.29,-21.16 2233.86,-28.14"/>
<text text-anchor="middle" x="2031.49" y="-101.3" font-family="Times,serif" font-size="14.00">previousActivity</text>
</g>
<!-- http://purl.org/dj/python/lib/22216931 -->
<g id="node6" class="node">
<title>http://purl.org/dj/python/lib/22216931</title>
<ellipse fill="none" stroke="black" cx="2173.99" cy="-105" rx="88.28" ry="18"/>
<text text-anchor="middle" x="2173.99" y="-101.3" font-family="Times,serif" font-size="14.00">22216931 (os: Reuse)</text>
</g>
<!-- http://purl.org/dj/kaggle/pandas&#45;pd&#45;to&#45;numeric#83689828&#45;&gt;http://purl.org/dj/python/lib/22216931 -->
<g id="edge7" class="edge">
<title>http://purl.org/dj/kaggle/pandas&#45;pd&#45;to&#45;numeric#83689828&#45;&gt;http://purl.org/dj/python/lib/22216931</title>
<path fill="none" stroke="black" d="M2095.93,-194.97C2111.19,-177.58 2135.02,-150.42 2152.34,-130.68"/>
<polygon fill="black" stroke="black" points="2155.12,-132.81 2159.09,-122.99 2149.86,-128.2 2155.12,-132.81"/>
<text text-anchor="middle" x="2187.49" y="-155.3" font-family="Times,serif" font-size="14.00">previousActivity</text>
</g>
<!-- http://purl.org/dj/python/lib/22216931&#45;&gt;http://purl.org/dj/kaggle/pandas&#45;pd&#45;to&#45;numeric -->
<g id="edge29" class="edge">
<title>http://purl.org/dj/python/lib/22216931&#45;&gt;http://purl.org/dj/kaggle/pandas&#45;pd&#45;to&#45;numeric</title>
<path fill="none" stroke="black" d="M2173.43,-86.56C2174.04,-75.82 2176.67,-62.52 2184.99,-54 2194.41,-44.35 2220.37,-36.71 2247.63,-31.06"/>
<polygon fill="black" stroke="black" points="2248.57,-34.44 2257.7,-29.07 2247.21,-27.57 2248.57,-34.44"/>
<text text-anchor="middle" x="2230.49" y="-57.8" font-family="Times,serif" font-size="14.00">previousActivity</text>
</g>
<!-- http://purl.org/dj/kaggle/pandas&#45;pd&#45;to&#45;numeric#427361219 -->
<g id="node7" class="node">
<title>http://purl.org/dj/kaggle/pandas&#45;pd&#45;to&#45;numeric#427361219</title>
<ellipse fill="none" stroke="black" cx="2177.99" cy="-408" rx="126.18" ry="18"/>
<text text-anchor="middle" x="2177.99" y="-404.3" font-family="Times,serif" font-size="14.00">427361219 (filename(0): Reuse)</text>
</g>
<!-- http://purl.org/dj/kaggle/pandas&#45;pd&#45;to&#45;numeric#427361219&#45;&gt;http://purl.org/dj/kaggle/pandas&#45;pd&#45;to&#45;numeric -->
<g id="edge8" class="edge">
<title>http://purl.org/dj/kaggle/pandas&#45;pd&#45;to&#45;numeric#427361219&#45;&gt;http://purl.org/dj/kaggle/pandas&#45;pd&#45;to&#45;numeric</title>
<path fill="none" stroke="black" d="M2256.66,-393.91C2362.36,-375.52 2539.23,-341.66 2557.99,-318 2618.63,-241.51 2478.93,-275.13 2432.99,-231 2401.29,-200.55 2423.79,-171.34 2391.99,-141 2376.41,-126.13 2360.63,-139.67 2346.99,-123 2329.44,-101.53 2325.98,-69.19 2326.1,-46.27"/>
<polygon fill="black" stroke="black" points="2329.6,-46.27 2326.39,-36.18 2322.61,-46.08 2329.6,-46.27"/>
<text text-anchor="middle" x="2459.49" y="-209.3" font-family="Times,serif" font-size="14.00">appearsIn</text>
</g>
<!-- http://purl.org/dj/kaggle/pandas&#45;pd&#45;to&#45;numeric#512164918 -->
<g id="node8" class="node">
<title>http://purl.org/dj/kaggle/pandas&#45;pd&#45;to&#45;numeric#512164918</title>
<ellipse fill="none" stroke="black" cx="2128.99" cy="-300" rx="129.18" ry="18"/>
<text text-anchor="middle" x="2128.99" y="-296.3" font-family="Times,serif" font-size="14.00">512164918 (filenames(0): Reuse)</text>
</g>
<!-- http://purl.org/dj/kaggle/pandas&#45;pd&#45;to&#45;numeric#427361219&#45;&gt;http://purl.org/dj/kaggle/pandas&#45;pd&#45;to&#45;numeric#512164918 -->
<g id="edge9" class="edge">
<title>http://purl.org/dj/kaggle/pandas&#45;pd&#45;to&#45;numeric#427361219&#45;&gt;http://purl.org/dj/kaggle/pandas&#45;pd&#45;to&#45;numeric#512164918</title>
<path fill="none" stroke="black" d="M2170.12,-389.97C2162.3,-373.05 2150.19,-346.86 2141.14,-327.28"/>
<polygon fill="black" stroke="black" points="2144.22,-325.6 2136.84,-317.99 2137.86,-328.53 2144.22,-325.6"/>
<text text-anchor="middle" x="2187.99" y="-350.3" font-family="Times,serif" font-size="14.00">iteratorOf</text>
</g>
<!-- http://purl.org/dj/kaggle/pandas&#45;pd&#45;to&#45;numeric#512164918&#45;&gt;http://purl.org/dj/kaggle/pandas&#45;pd&#45;to&#45;numeric -->
<g id="edge10" class="edge">
<title>http://purl.org/dj/kaggle/pandas&#45;pd&#45;to&#45;numeric#512164918&#45;&gt;http://purl.org/dj/kaggle/pandas&#45;pd&#45;to&#45;numeric</title>
<path fill="none" stroke="black" d="M2210.14,-285.95C2223.36,-280.85 2235.98,-273.78 2245.99,-264 2316.14,-195.41 2280.64,-146.26 2313.99,-54 2314.99,-51.23 2316.07,-48.35 2317.18,-45.49"/>
<polygon fill="black" stroke="black" points="2320.51,-46.59 2320.92,-36 2313.99,-44.02 2320.51,-46.59"/>
<text text-anchor="middle" x="2342.49" y="-155.3" font-family="Times,serif" font-size="14.00">previousActivity</text>
</g>
<!-- http://purl.org/dj/kaggle/pandas&#45;pd&#45;to&#45;numeric#512164918&#45;&gt;http://purl.org/dj/kaggle/pandas&#45;pd&#45;to&#45;numeric#820184443 -->
<g id="edge11" class="edge">
<title>http://purl.org/dj/kaggle/pandas&#45;pd&#45;to&#45;numeric#512164918&#45;&gt;http://purl.org/dj/kaggle/pandas&#45;pd&#45;to&#45;numeric#820184443</title>
<path fill="none" stroke="black" d="M2109.83,-281.99C2093.86,-267.89 2073.34,-250 2070.99,-249 2049.12,-239.69 1930.36,-229.57 1832.82,-222.61"/>
<polygon fill="black" stroke="black" points="1832.77,-219.1 1822.55,-221.89 1832.28,-226.08 1832.77,-219.1"/>
<text text-anchor="middle" x="2115.99" y="-252.8" font-family="Times,serif" font-size="14.00">iteratorOf</text>
</g>
<!-- http://purl.org/dj/kaggle/pandas&#45;pd&#45;to&#45;numeric#512164918&#45;&gt;http://purl.org/dj/kaggle/pandas&#45;pd&#45;to&#45;numeric#83689828 -->
<g id="edge12" class="edge">
<title>http://purl.org/dj/kaggle/pandas&#45;pd&#45;to&#45;numeric#512164918&#45;&gt;http://purl.org/dj/kaggle/pandas&#45;pd&#45;to&#45;numeric#83689828</title>
<path fill="none" stroke="black" d="M2142.81,-282.09C2149.25,-272.06 2154.25,-259.32 2147.99,-249 2144.81,-243.75 2140.56,-239.25 2135.73,-235.4"/>
<polygon fill="black" stroke="black" points="2137.37,-232.29 2127.14,-229.52 2133.42,-238.06 2137.37,-232.29"/>
<text text-anchor="middle" x="2196.49" y="-252.8" font-family="Times,serif" font-size="14.00">previousActivity</text>
</g>
<!-- http://purl.org/dj/kaggle/pandas&#45;pd&#45;to&#45;numeric#87294282 -->
<g id="node9" class="node">
<title>http://purl.org/dj/kaggle/pandas&#45;pd&#45;to&#45;numeric#87294282</title>
<ellipse fill="none" stroke="black" cx="2157.99" cy="-603" rx="102.88" ry="18"/>
<text text-anchor="middle" x="2157.99" y="-599.3" font-family="Times,serif" font-size="14.00">87294282 (s(0)$1: Reuse)</text>
</g>
<!-- http://purl.org/dj/kaggle/pandas&#45;pd&#45;to&#45;numeric#1380660025 -->
<g id="node10" class="node">
<title>http://purl.org/dj/kaggle/pandas&#45;pd&#45;to&#45;numeric#1380660025</title>
<ellipse fill="none" stroke="black" cx="673.99" cy="-354" rx="673.98" ry="18"/>
<text text-anchor="middle" x="673.99" y="-350.3" font-family="Times,serif" font-size="14.00">1380660025 ([&lt;_ast.Constant object at 0x12fc4fe80&gt;, &lt;_ast.Constant object at 0x12fc4f730&gt;, &lt;_ast.Constant object at 0x12fc4f670&gt;, &lt;_ast.UnaryOp object at 0x12fc4fe20&gt;](0): Reuse)</text>
</g>
<!-- http://purl.org/dj/kaggle/pandas&#45;pd&#45;to&#45;numeric#87294282&#45;&gt;http://purl.org/dj/kaggle/pandas&#45;pd&#45;to&#45;numeric#1380660025 -->
<g id="edge13" class="edge">
<title>http://purl.org/dj/kaggle/pandas&#45;pd&#45;to&#45;numeric#87294282&#45;&gt;http://purl.org/dj/kaggle/pandas&#45;pd&#45;to&#45;numeric#1380660025</title>
<path fill="none" stroke="black" d="M2080.82,-591.03C1937.84,-570.53 1622.14,-524.45 1356.99,-480 1147.99,-444.97 903.96,-399.1 771.56,-373.8"/>
<polygon fill="black" stroke="black" points="771.92,-370.31 761.44,-371.87 770.61,-377.19 771.92,-370.31"/>
<text text-anchor="middle" x="1703.99" y="-512.3" font-family="Times,serif" font-size="14.00">Series</text>
</g>
<!-- http://purl.org/dj/kaggle/pandas&#45;pd&#45;to&#45;numeric#132841899 -->
<g id="node11" class="node">
<title>http://purl.org/dj/kaggle/pandas&#45;pd&#45;to&#45;numeric#132841899</title>
<ellipse fill="none" stroke="black" cx="2805.99" cy="-516" rx="112.38" ry="18"/>
<text text-anchor="middle" x="2805.99" y="-512.3" font-family="Times,serif" font-size="14.00">132841899 (pd(0)$1: Reuse)</text>
</g>
<!-- http://purl.org/dj/kaggle/pandas&#45;pd&#45;to&#45;numeric#87294282&#45;&gt;http://purl.org/dj/kaggle/pandas&#45;pd&#45;to&#45;numeric#132841899 -->
<g id="edge14" class="edge">
<title>http://purl.org/dj/kaggle/pandas&#45;pd&#45;to&#45;numeric#87294282&#45;&gt;http://purl.org/dj/kaggle/pandas&#45;pd&#45;to&#45;numeric#132841899</title>
<path fill="none" stroke="black" d="M2237.45,-591.58C2357.3,-575.86 2583.9,-546.13 2711.86,-529.35"/>
<polygon fill="black" stroke="black" points="2712.57,-532.78 2722.03,-528.01 2711.66,-525.84 2712.57,-532.78"/>
<text text-anchor="middle" x="2537.99" y="-555.8" font-family="Times,serif" font-size="14.00">Series</text>
</g>
<!-- http://purl.org/dj/kaggle/pandas&#45;pd&#45;to&#45;numeric#1380660025&#45;&gt;http://purl.org/dj/kaggle/pandas&#45;pd&#45;to&#45;numeric -->
<g id="edge15" class="edge">
<title>http://purl.org/dj/kaggle/pandas&#45;pd&#45;to&#45;numeric#1380660025&#45;&gt;http://purl.org/dj/kaggle/pandas&#45;pd&#45;to&#45;numeric</title>
<path fill="none" stroke="black" d="M824.02,-336.38C911.2,-322.38 1003.99,-297.98 1003.99,-257.5 1003.99,-257.5 1003.99,-257.5 1003.99,-104 1003.99,-42.63 1921.78,-24.53 2229.09,-20.19"/>
<polygon fill="black" stroke="black" points="2229.37,-23.69 2239.32,-20.05 2229.27,-16.69 2229.37,-23.69"/>
<text text-anchor="middle" x="1049.49" y="-209.3" font-family="Times,serif" font-size="14.00">previousActivity</text>
</g>
<!-- http://purl.org/dj/kaggle/pandas&#45;pd&#45;to&#45;numeric#87228745 -->
<g id="node12" class="node">
<title>http://purl.org/dj/kaggle/pandas&#45;pd&#45;to&#45;numeric#87228745</title>
<ellipse fill="none" stroke="black" cx="2806.99" cy="-300" rx="102.88" ry="18"/>
<text text-anchor="middle" x="2806.99" y="-296.3" font-family="Times,serif" font-size="14.00">87228745 (s(0)$0: Reuse)</text>
</g>
<!-- http://purl.org/dj/kaggle/pandas&#45;pd&#45;to&#45;numeric#132841899&#45;&gt;http://purl.org/dj/kaggle/pandas&#45;pd&#45;to&#45;numeric#87228745 -->
<g id="edge16" class="edge">
<title>http://purl.org/dj/kaggle/pandas&#45;pd&#45;to&#45;numeric#132841899&#45;&gt;http://purl.org/dj/kaggle/pandas&#45;pd&#45;to&#45;numeric#87228745</title>
<path fill="none" stroke="black" d="M2828.01,-498.21C2833.24,-493 2838.13,-486.81 2840.99,-480 2865.76,-420.98 2866.48,-395.13 2841.99,-336 2840.44,-332.27 2838.28,-328.72 2835.79,-325.43"/>
<polygon fill="black" stroke="black" points="2838.29,-322.97 2829.05,-317.77 2833.03,-327.59 2838.29,-322.97"/>
<text text-anchor="middle" x="2890.49" y="-404.3" font-family="Times,serif" font-size="14.00">to_numeric</text>
</g>
<!-- http://purl.org/dj/kaggle/pandas&#45;pd&#45;to&#45;numeric#132776362 -->
<g id="node13" class="node">
<title>http://purl.org/dj/kaggle/pandas&#45;pd&#45;to&#45;numeric#132776362</title>
<ellipse fill="none" stroke="black" cx="2714.99" cy="-408" rx="112.38" ry="18"/>
<text text-anchor="middle" x="2714.99" y="-404.3" font-family="Times,serif" font-size="14.00">132776362 (pd(0)$0: Reuse)</text>
</g>
<!-- http://purl.org/dj/kaggle/pandas&#45;pd&#45;to&#45;numeric#132841899&#45;&gt;http://purl.org/dj/kaggle/pandas&#45;pd&#45;to&#45;numeric#132776362 -->
<g id="edge17" class="edge">
<title>http://purl.org/dj/kaggle/pandas&#45;pd&#45;to&#45;numeric#132841899&#45;&gt;http://purl.org/dj/kaggle/pandas&#45;pd&#45;to&#45;numeric#132776362</title>
<path fill="none" stroke="black" d="M2791.37,-497.97C2776.44,-480.58 2753.13,-453.42 2736.18,-433.68"/>
<polygon fill="black" stroke="black" points="2738.74,-431.3 2729.57,-425.99 2733.43,-435.86 2738.74,-431.3"/>
<text text-anchor="middle" x="2805.49" y="-458.3" font-family="Times,serif" font-size="14.00">to_numeric</text>
</g>
<!-- http://purl.org/dj/kaggle/pandas&#45;pd&#45;to&#45;numeric#87228745&#45;&gt;http://purl.org/dj/kaggle/pandas&#45;pd&#45;to&#45;numeric#1476011668 -->
<g id="edge18" class="edge">
<title>http://purl.org/dj/kaggle/pandas&#45;pd&#45;to&#45;numeric#87228745&#45;&gt;http://purl.org/dj/kaggle/pandas&#45;pd&#45;to&#45;numeric#1476011668</title>
<path fill="none" stroke="black" d="M2863.56,-284.91C2963.99,-259.89 3173.5,-207.7 3287.33,-179.34"/>
<polygon fill="black" stroke="black" points="3288.18,-182.74 3297.04,-176.93 3286.49,-175.95 3288.18,-182.74"/>
<text text-anchor="middle" x="3019.99" y="-252.8" font-family="Times,serif" font-size="14.00">Series</text>
</g>
<!-- http://purl.org/dj/kaggle/pandas&#45;pd&#45;to&#45;numeric#361235310 -->
<g id="node14" class="node">
<title>http://purl.org/dj/kaggle/pandas&#45;pd&#45;to&#45;numeric#361235310</title>
<ellipse fill="none" stroke="black" cx="2698.99" cy="-159" rx="125.38" ry="18"/>
<text text-anchor="middle" x="2698.99" y="-155.3" font-family="Times,serif" font-size="14.00">361235310 (example(0): Reuse)</text>
</g>
<!-- http://purl.org/dj/kaggle/pandas&#45;pd&#45;to&#45;numeric#87228745&#45;&gt;http://purl.org/dj/kaggle/pandas&#45;pd&#45;to&#45;numeric#361235310 -->
<g id="edge19" class="edge">
<title>http://purl.org/dj/kaggle/pandas&#45;pd&#45;to&#45;numeric#87228745&#45;&gt;http://purl.org/dj/kaggle/pandas&#45;pd&#45;to&#45;numeric#361235310</title>
<path fill="none" stroke="black" d="M2797.52,-281.81C2785.27,-260.33 2762.57,-223.02 2737.99,-195 2734.71,-191.26 2731.06,-187.53 2727.34,-183.96"/>
<polygon fill="black" stroke="black" points="2729.43,-181.14 2719.7,-176.94 2724.69,-186.29 2729.43,-181.14"/>
<text text-anchor="middle" x="2803.99" y="-252.8" font-family="Times,serif" font-size="14.00">Series</text>
</g>
<!-- http://purl.org/dj/kaggle/pandas&#45;pd&#45;to&#45;numeric#80085334 -->
<g id="node15" class="node">
<title>http://purl.org/dj/kaggle/pandas&#45;pd&#45;to&#45;numeric#80085334</title>
<ellipse fill="none" stroke="black" cx="2611.99" cy="-213" rx="116.98" ry="18"/>
<text text-anchor="middle" x="2611.99" y="-209.3" font-family="Times,serif" font-size="14.00">80085334 (pd(0): Movement)</text>
</g>
<!-- http://purl.org/dj/kaggle/pandas&#45;pd&#45;to&#45;numeric#87228745&#45;&gt;http://purl.org/dj/kaggle/pandas&#45;pd&#45;to&#45;numeric#80085334 -->
<g id="edge20" class="edge">
<title>http://purl.org/dj/kaggle/pandas&#45;pd&#45;to&#45;numeric#87228745&#45;&gt;http://purl.org/dj/kaggle/pandas&#45;pd&#45;to&#45;numeric#80085334</title>
<path fill="none" stroke="black" d="M2744.85,-285.59C2724.91,-280.17 2703.05,-273.02 2683.99,-264 2668.79,-256.81 2653.3,-246.51 2640.6,-237.12"/>
<polygon fill="black" stroke="black" points="2642.37,-234.08 2632.29,-230.82 2638.14,-239.65 2642.37,-234.08"/>
<text text-anchor="middle" x="2729.49" y="-252.8" font-family="Times,serif" font-size="14.00">previousActivity</text>
</g>
<!-- http://purl.org/dj/kaggle/pandas&#45;pd&#45;to&#45;numeric#132776362&#45;&gt;http://purl.org/dj/kaggle/pandas&#45;pd&#45;to&#45;numeric#87228745 -->
<g id="edge24" class="edge">
<title>http://purl.org/dj/kaggle/pandas&#45;pd&#45;to&#45;numeric#132776362&#45;&gt;http://purl.org/dj/kaggle/pandas&#45;pd&#45;to&#45;numeric#87228745</title>
<path fill="none" stroke="black" d="M2729.77,-389.97C2744.86,-372.58 2768.44,-345.42 2785.57,-325.68"/>
<polygon fill="black" stroke="black" points="2788.33,-327.83 2792.25,-317.99 2783.05,-323.25 2788.33,-327.83"/>
<text text-anchor="middle" x="2806.49" y="-350.3" font-family="Times,serif" font-size="14.00">to_numeric</text>
</g>
<!-- http://purl.org/dj/kaggle/pandas&#45;pd&#45;to&#45;numeric#132776362&#45;&gt;http://purl.org/dj/kaggle/pandas&#45;pd&#45;to&#45;numeric#80085334 -->
<g id="edge25" class="edge">
<title>http://purl.org/dj/kaggle/pandas&#45;pd&#45;to&#45;numeric#132776362&#45;&gt;http://purl.org/dj/kaggle/pandas&#45;pd&#45;to&#45;numeric#80085334</title>
<path fill="none" stroke="black" d="M2693.73,-390.32C2674.48,-374 2646.92,-347.38 2631.99,-318 2619.73,-293.88 2614.96,-263.13 2613.11,-241.34"/>
<polygon fill="black" stroke="black" points="2616.59,-240.87 2612.41,-231.14 2609.61,-241.36 2616.59,-240.87"/>
<text text-anchor="middle" x="2663.49" y="-296.3" font-family="Times,serif" font-size="14.00">to_numeric</text>
</g>
<!-- http://purl.org/dj/kaggle/pandas&#45;pd&#45;to&#45;numeric#361235310&#45;&gt;http://purl.org/dj/kaggle/pandas&#45;pd&#45;to&#45;numeric -->
<g id="edge21" class="edge">
<title>http://purl.org/dj/kaggle/pandas&#45;pd&#45;to&#45;numeric#361235310&#45;&gt;http://purl.org/dj/kaggle/pandas&#45;pd&#45;to&#45;numeric</title>
<path fill="none" stroke="black" d="M2693.95,-140.94C2688.87,-125.7 2679.92,-103.32 2666.99,-87 2652.03,-68.11 2646.31,-63.07 2623.99,-54 2588.45,-39.55 2494.78,-30.1 2422.24,-24.7"/>
<polygon fill="black" stroke="black" points="2422.38,-21.2 2412.15,-23.97 2421.87,-28.18 2422.38,-21.2"/>
<text text-anchor="middle" x="2732.49" y="-101.3" font-family="Times,serif" font-size="14.00">previousActivity</text>
</g>
<!-- http://purl.org/dj/kaggle/pandas&#45;pd&#45;to&#45;numeric#80085334&#45;&gt;http://purl.org/dj/kaggle/pandas&#45;pd&#45;to&#45;numeric -->
<g id="edge22" class="edge">
<title>http://purl.org/dj/kaggle/pandas&#45;pd&#45;to&#45;numeric#80085334&#45;&gt;http://purl.org/dj/kaggle/pandas&#45;pd&#45;to&#45;numeric</title>
<path fill="none" stroke="black" d="M2587.05,-195.28C2581.37,-190.15 2576.1,-183.98 2572.99,-177 2566.47,-162.39 2568.98,-156.49 2572.99,-141 2575.29,-132.14 2580.69,-131.86 2582.99,-123 2587,-107.51 2591.97,-100.24 2582.99,-87 2563.63,-58.47 2478.88,-39.98 2412.32,-29.59"/>
<polygon fill="black" stroke="black" points="2412.64,-26.09 2402.23,-28.05 2411.59,-33.02 2412.64,-26.09"/>
<text text-anchor="middle" x="2615.49" y="-101.3" font-family="Times,serif" font-size="14.00">appearsIn</text>
</g>
<!-- http://purl.org/dj/python/lib/144966264 -->
<g id="node16" class="node">
<title>http://purl.org/dj/python/lib/144966264</title>
<ellipse fill="none" stroke="black" cx="2464.99" cy="-105" rx="109.38" ry="18"/>
<text text-anchor="middle" x="2464.99" y="-101.3" font-family="Times,serif" font-size="14.00">144966264 (pandas: Reuse)</text>
</g>
<!-- http://purl.org/dj/kaggle/pandas&#45;pd&#45;to&#45;numeric#80085334&#45;&gt;http://purl.org/dj/python/lib/144966264 -->
<g id="edge23" class="edge">
<title>http://purl.org/dj/kaggle/pandas&#45;pd&#45;to&#45;numeric#80085334&#45;&gt;http://purl.org/dj/python/lib/144966264</title>
<path fill="none" stroke="black" d="M2528.17,-200.41C2501.35,-194.91 2476.4,-187.24 2467.99,-177 2458.16,-165.03 2457.25,-147.73 2458.88,-133.2"/>
<polygon fill="black" stroke="black" points="2462.35,-133.64 2460.42,-123.23 2455.43,-132.58 2462.35,-133.64"/>
<text text-anchor="middle" x="2506.49" y="-155.3" font-family="Times,serif" font-size="14.00">assignedFrom</text>
</g>
<!-- http://purl.org/dj/python/lib/144966264&#45;&gt;http://purl.org/dj/kaggle/pandas&#45;pd&#45;to&#45;numeric -->
<g id="edge32" class="edge">
<title>http://purl.org/dj/python/lib/144966264&#45;&gt;http://purl.org/dj/kaggle/pandas&#45;pd&#45;to&#45;numeric</title>
<path fill="none" stroke="black" d="M2438.25,-87.41C2416.71,-74.04 2386.25,-55.15 2362.81,-40.6"/>
<polygon fill="black" stroke="black" points="2364.54,-37.56 2354.2,-35.26 2360.85,-43.51 2364.54,-37.56"/>
<text text-anchor="middle" x="2450.49" y="-57.8" font-family="Times,serif" font-size="14.00">previousActivity</text>
</g>
<!-- http://purl.org/dj/kaggle/pandas&#45;pd&#45;to&#45;numeric#355533666 -->
<g id="node17" class="node">
<title>http://purl.org/dj/kaggle/pandas&#45;pd&#45;to&#45;numeric#355533666</title>
<ellipse fill="none" stroke="black" cx="1857.99" cy="-300" rx="124.28" ry="18"/>
<text text-anchor="middle" x="1857.99" y="-296.3" font-family="Times,serif" font-size="14.00">355533666 (dirname(0): Reuse)</text>
</g>
<!-- http://purl.org/dj/kaggle/pandas&#45;pd&#45;to&#45;numeric#355533666&#45;&gt;http://purl.org/dj/kaggle/pandas&#45;pd&#45;to&#45;numeric -->
<g id="edge26" class="edge">
<title>http://purl.org/dj/kaggle/pandas&#45;pd&#45;to&#45;numeric#355533666&#45;&gt;http://purl.org/dj/kaggle/pandas&#45;pd&#45;to&#45;numeric</title>
<path fill="none" stroke="black" d="M1858.34,-281.89C1859.71,-251.27 1866.1,-186.06 1894.99,-141 1929.01,-87.94 1948.56,-77.64 2006.99,-54 2046.61,-37.97 2152.91,-28.62 2232.41,-23.68"/>
<polygon fill="black" stroke="black" points="2232.68,-27.17 2242.45,-23.07 2232.26,-20.18 2232.68,-27.17"/>
<text text-anchor="middle" x="1940.49" y="-155.3" font-family="Times,serif" font-size="14.00">previousActivity</text>
</g>
<!-- http://purl.org/dj/kaggle/pandas&#45;pd&#45;to&#45;numeric#355533666&#45;&gt;http://purl.org/dj/kaggle/pandas&#45;pd&#45;to&#45;numeric#820184443 -->
<g id="edge27" class="edge">
<title>http://purl.org/dj/kaggle/pandas&#45;pd&#45;to&#45;numeric#355533666&#45;&gt;http://purl.org/dj/kaggle/pandas&#45;pd&#45;to&#45;numeric#820184443</title>
<path fill="none" stroke="black" d="M1826.96,-282.41C1801.87,-269 1766.36,-250.02 1739.11,-235.45"/>
<polygon fill="black" stroke="black" points="1740.69,-232.32 1730.22,-230.69 1737.39,-238.5 1740.69,-232.32"/>
<text text-anchor="middle" x="1815.99" y="-252.8" font-family="Times,serif" font-size="14.00">iteratorOf</text>
</g>
<!-- http://purl.org/dj/kaggle/pandas&#45;pd&#45;to&#45;numeric#355533666&#45;&gt;http://purl.org/dj/kaggle/pandas&#45;pd&#45;to&#45;numeric#83689828 -->
<g id="edge28" class="edge">
<title>http://purl.org/dj/kaggle/pandas&#45;pd&#45;to&#45;numeric#355533666&#45;&gt;http://purl.org/dj/kaggle/pandas&#45;pd&#45;to&#45;numeric#83689828</title>
<path fill="none" stroke="black" d="M1929.35,-285.27C1950.63,-279.95 1973.69,-272.94 1993.99,-264 2005.16,-259.08 2006.52,-255.27 2016.99,-249 2024.65,-244.42 2032.94,-239.71 2040.94,-235.28"/>
<polygon fill="black" stroke="black" points="2042.7,-238.31 2049.79,-230.43 2039.34,-232.17 2042.7,-238.31"/>
<text text-anchor="middle" x="2043.99" y="-252.8" font-family="Times,serif" font-size="14.00">iteratorOf</text>
</g>
<!-- http://purl.org/dj/kaggle/pandas&#45;pd&#45;to&#45;numeric#249692951 -->
<g id="node18" class="node">
<title>http://purl.org/dj/kaggle/pandas&#45;pd&#45;to&#45;numeric#249692951</title>
<ellipse fill="none" stroke="black" cx="1828.99" cy="-408" rx="136.48" ry="18"/>
<text text-anchor="middle" x="1828.99" y="-404.3" font-family="Times,serif" font-size="14.00">249692951 (print[1]: Visualisation)</text>
</g>
<!-- http://purl.org/dj/kaggle/pandas&#45;pd&#45;to&#45;numeric#249692951&#45;&gt;http://purl.org/dj/kaggle/pandas&#45;pd&#45;to&#45;numeric#820184443 -->
<g id="edge30" class="edge">
<title>http://purl.org/dj/kaggle/pandas&#45;pd&#45;to&#45;numeric#249692951&#45;&gt;http://purl.org/dj/kaggle/pandas&#45;pd&#45;to&#45;numeric#820184443</title>
<path fill="none" stroke="black" d="M1753.74,-392.89C1639.99,-371.2 1436.31,-330.85 1425.99,-318 1379.61,-260.26 1474.97,-234.55 1565.46,-223.12"/>
<polygon fill="black" stroke="black" points="1566.1,-226.57 1575.6,-221.89 1565.26,-219.62 1566.1,-226.57"/>
<text text-anchor="middle" x="1471.49" y="-296.3" font-family="Times,serif" font-size="14.00">previousActivity</text>
</g>
<!-- http://purl.org/dj/kaggle/pandas&#45;pd&#45;to&#45;numeric#249692951&#45;&gt;http://purl.org/dj/kaggle/pandas&#45;pd&#45;to&#45;numeric#355533666 -->
<g id="edge31" class="edge">
<title>http://purl.org/dj/kaggle/pandas&#45;pd&#45;to&#45;numeric#249692951&#45;&gt;http://purl.org/dj/kaggle/pandas&#45;pd&#45;to&#45;numeric#355533666</title>
<path fill="none" stroke="black" d="M1833.65,-389.97C1838.24,-373.2 1845.31,-347.34 1850.65,-327.81"/>
<polygon fill="black" stroke="black" points="1854.08,-328.56 1853.34,-317.99 1847.33,-326.71 1854.08,-328.56"/>
<text text-anchor="middle" x="1860.99" y="-350.3" font-family="Times,serif" font-size="14.00">print</text>
</g>
<!-- http://purl.org/dj/kaggle/pandas&#45;pd&#45;to&#45;numeric#87359819 -->
<g id="node19" class="node">
<title>http://purl.org/dj/kaggle/pandas&#45;pd&#45;to&#45;numeric#87359819</title>
<ellipse fill="none" stroke="black" cx="2958.99" cy="-603" rx="102.88" ry="18"/>
<text text-anchor="middle" x="2958.99" y="-599.3" font-family="Times,serif" font-size="14.00">87359819 (s(0)$2: Reuse)</text>
</g>
<!-- http://purl.org/dj/kaggle/pandas&#45;pd&#45;to&#45;numeric#87359819&#45;&gt;http://purl.org/dj/kaggle/pandas&#45;pd&#45;to&#45;numeric#132841899 -->
<g id="edge33" class="edge">
<title>http://purl.org/dj/kaggle/pandas&#45;pd&#45;to&#45;numeric#87359819&#45;&gt;http://purl.org/dj/kaggle/pandas&#45;pd&#45;to&#45;numeric#132841899</title>
<path fill="none" stroke="black" d="M2929.49,-585.61C2905.33,-572.19 2870.97,-553.1 2844.62,-538.46"/>
<polygon fill="black" stroke="black" points="2846.1,-535.28 2835.66,-533.48 2842.7,-541.4 2846.1,-535.28"/>
<text text-anchor="middle" x="2922.49" y="-555.8" font-family="Times,serif" font-size="14.00">to_numeric</text>
</g>
<!-- http://purl.org/dj/kaggle/pandas&#45;pd&#45;to&#45;numeric#87359819&#45;&gt;http://purl.org/dj/kaggle/pandas&#45;pd&#45;to&#45;numeric#87359819 -->
<g id="edge34" class="edge">
<title>http://purl.org/dj/kaggle/pandas&#45;pd&#45;to&#45;numeric#87359819&#45;&gt;http://purl.org/dj/kaggle/pandas&#45;pd&#45;to&#45;numeric#87359819</title>
<path fill="none" stroke="black" d="M3052.86,-610.34C3068.72,-609.32 3079.68,-606.88 3079.68,-603 3079.68,-600.03 3073.25,-597.9 3063.13,-596.61"/>
<polygon fill="black" stroke="black" points="3063.14,-593.1 3052.86,-595.66 3062.5,-600.07 3063.14,-593.1"/>
<text text-anchor="middle" x="3111.18" y="-599.3" font-family="Times,serif" font-size="14.00">to_numeric</text>
</g>
<!-- http://purl.org/dj/kaggle/pandas&#45;pd&#45;to&#45;numeric#284099315 -->
<g id="node20" class="node">
<title>http://purl.org/dj/kaggle/pandas&#45;pd&#45;to&#45;numeric#284099315</title>
<ellipse fill="none" stroke="black" cx="3476.99" cy="-462" rx="118.08" ry="18"/>
<text text-anchor="middle" x="3476.99" y="-458.3" font-family="Times,serif" font-size="14.00">284099315 (coerce(0): Reuse)</text>
</g>
<!-- http://purl.org/dj/kaggle/pandas&#45;pd&#45;to&#45;numeric#87359819&#45;&gt;http://purl.org/dj/kaggle/pandas&#45;pd&#45;to&#45;numeric#284099315 -->
<g id="edge35" class="edge">
<title>http://purl.org/dj/kaggle/pandas&#45;pd&#45;to&#45;numeric#87359819&#45;&gt;http://purl.org/dj/kaggle/pandas&#45;pd&#45;to&#45;numeric#284099315</title>
<path fill="none" stroke="black" d="M3012.96,-587.52C3108.73,-561.82 3308.02,-508.34 3411.48,-480.58"/>
<polygon fill="black" stroke="black" points="3412.44,-483.95 3421.19,-477.97 3410.62,-477.19 3412.44,-483.95"/>
<text text-anchor="middle" x="3172.49" y="-555.8" font-family="Times,serif" font-size="14.00">to_numeric</text>
</g>
<!-- http://purl.org/dj/kaggle/pandas&#45;pd&#45;to&#45;numeric#284099315&#45;&gt;http://purl.org/dj/kaggle/pandas&#45;pd&#45;to&#45;numeric -->
<g id="edge36" class="edge">
<title>http://purl.org/dj/kaggle/pandas&#45;pd&#45;to&#45;numeric#284099315&#45;&gt;http://purl.org/dj/kaggle/pandas&#45;pd&#45;to&#45;numeric</title>
<path fill="none" stroke="black" d="M3588.62,-455.97C3718.68,-446.99 3915.99,-422.28 3915.99,-355 3915.99,-355 3915.99,-355 3915.99,-104 3915.99,-29.09 2774.48,-20.1 2427.1,-19.1"/>
<polygon fill="black" stroke="black" points="2427.07,-15.6 2417.06,-19.07 2427.05,-22.6 2427.07,-15.6"/>
<text text-anchor="middle" x="3942.49" y="-252.8" font-family="Times,serif" font-size="14.00">appearsIn</text>
</g>
<!-- http://purl.org/dj/kaggle/pandas&#45;pd&#45;to&#45;numeric#249824024 -->
<g id="node21" class="node">
<title>http://purl.org/dj/kaggle/pandas&#45;pd&#45;to&#45;numeric#249824024</title>
<ellipse fill="none" stroke="black" cx="2177.99" cy="-516" rx="136.48" ry="18"/>
<text text-anchor="middle" x="2177.99" y="-512.3" font-family="Times,serif" font-size="14.00">249824024 (print[2]: Visualisation)</text>
</g>
<!-- http://purl.org/dj/kaggle/pandas&#45;pd&#45;to&#45;numeric#249824024&#45;&gt;http://purl.org/dj/kaggle/pandas&#45;pd&#45;to&#45;numeric#820184443 -->
<g id="edge37" class="edge">
<title>http://purl.org/dj/kaggle/pandas&#45;pd&#45;to&#45;numeric#249824024&#45;&gt;http://purl.org/dj/kaggle/pandas&#45;pd&#45;to&#45;numeric#820184443</title>
<path fill="none" stroke="black" d="M2046.81,-510.87C1844.33,-501.43 1470.35,-470.74 1387.99,-372 1351.26,-327.96 1380.03,-281.93 1426.99,-249 1448.6,-233.85 1502.49,-225.26 1556.66,-220.38"/>
<polygon fill="black" stroke="black" points="1557.11,-223.86 1566.77,-219.52 1556.51,-216.88 1557.11,-223.86"/>
<text text-anchor="middle" x="1433.49" y="-350.3" font-family="Times,serif" font-size="14.00">previousActivity</text>
</g>
<!-- http://purl.org/dj/kaggle/pandas&#45;pd&#45;to&#45;numeric#249824024&#45;&gt;http://purl.org/dj/kaggle/pandas&#45;pd&#45;to&#45;numeric#427361219 -->
<g id="edge38" class="edge">
<title>http://purl.org/dj/kaggle/pandas&#45;pd&#45;to&#45;numeric#249824024&#45;&gt;http://purl.org/dj/kaggle/pandas&#45;pd&#45;to&#45;numeric#427361219</title>
<path fill="none" stroke="black" d="M2177.99,-497.97C2177.99,-481.38 2177.99,-455.88 2177.99,-436.43"/>
<polygon fill="black" stroke="black" points="2181.49,-436.34 2177.99,-426.34 2174.49,-436.34 2181.49,-436.34"/>
<text text-anchor="middle" x="2190.99" y="-458.3" font-family="Times,serif" font-size="14.00">print</text>
</g>
<!-- http://purl.org/dj/kaggle/pandas&#45;pd&#45;to&#45;numeric#249824024&#45;&gt;http://purl.org/dj/kaggle/pandas&#45;pd&#45;to&#45;numeric#512164918 -->
<g id="edge39" class="edge">
<title>http://purl.org/dj/kaggle/pandas&#45;pd&#45;to&#45;numeric#249824024&#45;&gt;http://purl.org/dj/kaggle/pandas&#45;pd&#45;to&#45;numeric#512164918</title>
<path fill="none" stroke="black" d="M2220.95,-498.82C2270.11,-477.63 2340.51,-437.55 2312.99,-390 2291.44,-352.77 2249.04,-330.84 2210.37,-318.07"/>
<polygon fill="black" stroke="black" points="2211.22,-314.67 2200.63,-315.02 2209.13,-321.35 2211.22,-314.67"/>
<text text-anchor="middle" x="2365.49" y="-404.3" font-family="Times,serif" font-size="14.00">previousActivity</text>
</g>
<!-- http://purl.org/dj/kaggle/pandas&#45;pd&#45;to&#45;numeric#82575712 -->
<g id="node22" class="node">
<title>http://purl.org/dj/kaggle/pandas&#45;pd&#45;to&#45;numeric#82575712</title>
<ellipse fill="none" stroke="black" cx="4141.99" cy="-213" rx="116.98" ry="18"/>
<text text-anchor="middle" x="4141.99" y="-209.3" font-family="Times,serif" font-size="14.00">82575712 (np(0): Movement)</text>
</g>
<!-- http://purl.org/dj/kaggle/pandas&#45;pd&#45;to&#45;numeric#82575712&#45;&gt;http://purl.org/dj/kaggle/pandas&#45;pd&#45;to&#45;numeric -->
<g id="edge40" class="edge">
<title>http://purl.org/dj/kaggle/pandas&#45;pd&#45;to&#45;numeric#82575712&#45;&gt;http://purl.org/dj/kaggle/pandas&#45;pd&#45;to&#45;numeric</title>
<path fill="none" stroke="black" d="M4170.52,-195.46C4176.75,-190.39 4182.51,-184.21 4185.99,-177 4203.55,-140.6 4201.23,-115.92 4172.99,-87 4133.15,-46.2 4105.46,-61.97 4048.99,-54 3888.83,-31.39 2768.7,-21.99 2426.83,-19.63"/>
<polygon fill="black" stroke="black" points="2426.73,-16.13 2416.7,-19.56 2426.68,-23.13 2426.73,-16.13"/>
<text text-anchor="middle" x="4221.49" y="-101.3" font-family="Times,serif" font-size="14.00">appearsIn</text>
</g>
<!-- http://purl.org/dj/python/lib/111084090 -->
<g id="node23" class="node">
<title>http://purl.org/dj/python/lib/111084090</title>
<ellipse fill="none" stroke="black" cx="4053.99" cy="-105" rx="109.68" ry="18"/>
<text text-anchor="middle" x="4053.99" y="-101.3" font-family="Times,serif" font-size="14.00">111084090 (numpy: Reuse)</text>
</g>
<!-- http://purl.org/dj/kaggle/pandas&#45;pd&#45;to&#45;numeric#82575712&#45;&gt;http://purl.org/dj/python/lib/111084090 -->
<g id="edge41" class="edge">
<title>http://purl.org/dj/kaggle/pandas&#45;pd&#45;to&#45;numeric#82575712&#45;&gt;http://purl.org/dj/python/lib/111084090</title>
<path fill="none" stroke="black" d="M4125.2,-194.86C4119.9,-189.27 4114.09,-182.97 4108.99,-177 4096.32,-162.18 4082.9,-144.9 4072.49,-131.1"/>
<polygon fill="black" stroke="black" points="4075.23,-128.91 4066.43,-123 4069.63,-133.11 4075.23,-128.91"/>
<text text-anchor="middle" x="4147.49" y="-155.3" font-family="Times,serif" font-size="14.00">assignedFrom</text>
</g>
<!-- http://purl.org/dj/python/lib/111084090&#45;&gt;http://purl.org/dj/kaggle/pandas&#45;pd&#45;to&#45;numeric -->
<g id="edge42" class="edge">
<title>http://purl.org/dj/python/lib/111084090&#45;&gt;http://purl.org/dj/kaggle/pandas&#45;pd&#45;to&#45;numeric</title>
<path fill="none" stroke="black" d="M4022.61,-87.65C3998.12,-75.81 3962.85,-60.75 3929.99,-54 3783.62,-23.94 2754.52,-19.68 2427.49,-19.09"/>
<polygon fill="black" stroke="black" points="2427.1,-15.59 2417.09,-19.07 2427.09,-22.59 2427.1,-15.59"/>
<text text-anchor="middle" x="4011.99" y="-57.8" font-family="Times,serif" font-size="14.00">importedBy</text>
</g>
<!-- http://purl.org/dj/kaggle/pandas&#45;pd&#45;to&#45;numeric#249561878 -->
<g id="node24" class="node">
<title>http://purl.org/dj/kaggle/pandas&#45;pd&#45;to&#45;numeric#249561878</title>
<ellipse fill="none" stroke="black" cx="2412.99" cy="-300" rx="136.48" ry="18"/>
<text text-anchor="middle" x="2412.99" y="-296.3" font-family="Times,serif" font-size="14.00">249561878 (print[0]: Visualisation)</text>
</g>
<!-- http://purl.org/dj/kaggle/pandas&#45;pd&#45;to&#45;numeric#249561878&#45;&gt;http://purl.org/dj/kaggle/pandas&#45;pd&#45;to&#45;numeric#83689828 -->
<g id="edge43" class="edge">
<title>http://purl.org/dj/kaggle/pandas&#45;pd&#45;to&#45;numeric#249561878&#45;&gt;http://purl.org/dj/kaggle/pandas&#45;pd&#45;to&#45;numeric#83689828</title>
<path fill="none" stroke="black" d="M2363.96,-283.17C2330.84,-272.76 2286.02,-259.22 2245.99,-249 2218.32,-241.94 2187.79,-235.17 2160.59,-229.51"/>
<polygon fill="black" stroke="black" points="2161.23,-226.07 2150.73,-227.47 2159.81,-232.92 2161.23,-226.07"/>
<text text-anchor="middle" x="2342.49" y="-252.8" font-family="Times,serif" font-size="14.00">previousActivity</text>
</g>
</g>
</svg>
