<?xml version="1.0" encoding="UTF-8" standalone="no"?>
<!DOCTYPE svg PUBLIC "-//W3C//DTD SVG 1.1//EN"
 "http://www.w3.org/Graphics/SVG/1.1/DTD/svg11.dtd">
<!-- Generated by graphviz version 2.44.1 (20200629.0846)
 -->
<!-- Pages: 1 -->
<svg width="4155pt" height="413pt"
 viewBox="0.00 0.00 4154.99 413.00" xmlns="http://www.w3.org/2000/svg" xmlns:xlink="http://www.w3.org/1999/xlink">
<g id="graph0" class="graph" transform="scale(1 1) rotate(0) translate(4 409)">
<polygon fill="white" stroke="transparent" points="-4,4 -4,-409 4150.99,-409 4150.99,4 -4,4"/>
<!-- http://purl.org/dj/kaggle/pandas&#45;pd&#45;to&#45;numeric#1476011668 -->
<g id="node1" class="node">
<title>http://purl.org/dj/kaggle/pandas&#45;pd&#45;to&#45;numeric#1476011668</title>
<ellipse fill="none" stroke="black" cx="535.55" cy="-105" rx="535.6" ry="18"/>
<text text-anchor="middle" x="535.55" y="-101.3" font-family="Times,serif" font-size="14.00">1476011668 ([&lt;_ast.Constant object at 0x12f8ab8b0&gt;, &lt;_ast.Constant object at 0x12f8ab790&gt;, &lt;_ast.UnaryOp object at 0x12f8ab0a0&gt;](0): Reuse)</text>
</g>
<!-- http://purl.org/dj/kaggle/pandas&#45;pd&#45;to&#45;numeric -->
<g id="node2" class="node">
<title>http://purl.org/dj/kaggle/pandas&#45;pd&#45;to&#45;numeric</title>
<ellipse fill="none" stroke="black" cx="1608.55" cy="-18" rx="89.08" ry="18"/>
<text text-anchor="middle" x="1608.55" y="-14.3" font-family="Times,serif" font-size="14.00">pandas&#45;pd&#45;to&#45;numeric</text>
</g>
<!-- http://purl.org/dj/kaggle/pandas&#45;pd&#45;to&#45;numeric#1476011668&#45;&gt;http://purl.org/dj/kaggle/pandas&#45;pd&#45;to&#45;numeric -->
<g id="edge1" class="edge">
<title>http://purl.org/dj/kaggle/pandas&#45;pd&#45;to&#45;numeric#1476011668&#45;&gt;http://purl.org/dj/kaggle/pandas&#45;pd&#45;to&#45;numeric</title>
<path fill="none" stroke="black" d="M684.53,-87.7C784.57,-77.13 919.37,-63.58 1038.55,-54 1205.23,-40.6 1399.7,-29.67 1512.99,-23.76"/>
<polygon fill="black" stroke="black" points="1513.21,-27.26 1523.02,-23.24 1512.85,-20.27 1513.21,-27.26"/>
<text text-anchor="middle" x="1062.05" y="-57.8" font-family="Times,serif" font-size="14.00">previous</text>
</g>
<!-- http://purl.org/dj/kaggle/pandas&#45;pd&#45;to&#45;numeric#512164918 -->
<g id="node3" class="node">
<title>http://purl.org/dj/kaggle/pandas&#45;pd&#45;to&#45;numeric#512164918</title>
<ellipse fill="none" stroke="black" cx="1710.55" cy="-300" rx="129.18" ry="18"/>
<text text-anchor="middle" x="1710.55" y="-296.3" font-family="Times,serif" font-size="14.00">512164918 (filenames(0): Reuse)</text>
</g>
<!-- http://purl.org/dj/kaggle/pandas&#45;pd&#45;to&#45;numeric#512164918&#45;&gt;http://purl.org/dj/kaggle/pandas&#45;pd&#45;to&#45;numeric -->
<g id="edge2" class="edge">
<title>http://purl.org/dj/kaggle/pandas&#45;pd&#45;to&#45;numeric#512164918&#45;&gt;http://purl.org/dj/kaggle/pandas&#45;pd&#45;to&#45;numeric</title>
<path fill="none" stroke="black" d="M1617.18,-287.46C1604.63,-282.11 1593.14,-274.57 1584.55,-264 1532.87,-200.38 1572.09,-94.58 1595.02,-45.5"/>
<polygon fill="black" stroke="black" points="1598.32,-46.73 1599.5,-36.2 1592.01,-43.7 1598.32,-46.73"/>
<text text-anchor="middle" x="1587.05" y="-144.8" font-family="Times,serif" font-size="14.00">previous</text>
</g>
<!-- http://purl.org/dj/kaggle/pandas&#45;pd&#45;to&#45;numeric#83689828 -->
<g id="node4" class="node">
<title>http://purl.org/dj/kaggle/pandas&#45;pd&#45;to&#45;numeric#83689828</title>
<ellipse fill="none" stroke="black" cx="1426.55" cy="-192" rx="116.18" ry="18"/>
<text text-anchor="middle" x="1426.55" y="-188.3" font-family="Times,serif" font-size="14.00">83689828 (os(0): Movement)</text>
</g>
<!-- http://purl.org/dj/kaggle/pandas&#45;pd&#45;to&#45;numeric#512164918&#45;&gt;http://purl.org/dj/kaggle/pandas&#45;pd&#45;to&#45;numeric#83689828 -->
<g id="edge3" class="edge">
<title>http://purl.org/dj/kaggle/pandas&#45;pd&#45;to&#45;numeric#512164918&#45;&gt;http://purl.org/dj/kaggle/pandas&#45;pd&#45;to&#45;numeric#83689828</title>
<path fill="none" stroke="black" d="M1612.87,-288.13C1571.01,-282.23 1527.62,-274.06 1509.55,-264 1490.85,-253.58 1493.61,-242.16 1477.55,-228 1472.69,-223.71 1467.28,-219.5 1461.86,-215.56"/>
<polygon fill="black" stroke="black" points="1463.6,-212.51 1453.4,-209.64 1459.59,-218.25 1463.6,-212.51"/>
<text text-anchor="middle" x="1533.05" y="-242.3" font-family="Times,serif" font-size="14.00">previous</text>
</g>
<!-- http://purl.org/dj/kaggle/pandas&#45;pd&#45;to&#45;numeric#83689828&#45;&gt;http://purl.org/dj/kaggle/pandas&#45;pd&#45;to&#45;numeric -->
<g id="edge4" class="edge">
<title>http://purl.org/dj/kaggle/pandas&#45;pd&#45;to&#45;numeric#83689828&#45;&gt;http://purl.org/dj/kaggle/pandas&#45;pd&#45;to&#45;numeric</title>
<path fill="none" stroke="black" d="M1384.81,-175.18C1341.03,-156.21 1282.22,-122.53 1310.55,-87 1336.24,-54.79 1440.4,-36.64 1518.39,-27.34"/>
<polygon fill="black" stroke="black" points="1519.2,-30.77 1528.73,-26.14 1518.39,-23.81 1519.2,-30.77"/>
<text text-anchor="middle" x="1334.05" y="-101.3" font-family="Times,serif" font-size="14.00">previous</text>
</g>
<!-- http://purl.org/dj/python/lib/22216931 -->
<g id="node5" class="node">
<title>http://purl.org/dj/python/lib/22216931</title>
<ellipse fill="none" stroke="black" cx="1454.55" cy="-105" rx="88.28" ry="18"/>
<text text-anchor="middle" x="1454.55" y="-101.3" font-family="Times,serif" font-size="14.00">22216931 (os: Reuse)</text>
</g>
<!-- http://purl.org/dj/kaggle/pandas&#45;pd&#45;to&#45;numeric#83689828&#45;&gt;http://purl.org/dj/python/lib/22216931 -->
<g id="edge5" class="edge">
<title>http://purl.org/dj/kaggle/pandas&#45;pd&#45;to&#45;numeric#83689828&#45;&gt;http://purl.org/dj/python/lib/22216931</title>
<path fill="none" stroke="black" d="M1432.22,-173.8C1436.09,-162.05 1441.3,-146.24 1445.71,-132.84"/>
<polygon fill="black" stroke="black" points="1449.09,-133.77 1448.89,-123.18 1442.44,-131.58 1449.09,-133.77"/>
<text text-anchor="middle" x="1466.05" y="-144.8" font-family="Times,serif" font-size="14.00">previous</text>
</g>
<!-- http://purl.org/dj/python/lib/22216931&#45;&gt;http://purl.org/dj/kaggle/pandas&#45;pd&#45;to&#45;numeric -->
<g id="edge6" class="edge">
<title>http://purl.org/dj/python/lib/22216931&#45;&gt;http://purl.org/dj/kaggle/pandas&#45;pd&#45;to&#45;numeric</title>
<path fill="none" stroke="black" d="M1470.01,-86.8C1480.34,-76.16 1494.71,-62.87 1509.55,-54 1521.39,-46.92 1534.87,-40.97 1548,-36.1"/>
<polygon fill="black" stroke="black" points="1549.21,-39.39 1557.46,-32.75 1546.87,-32.79 1549.21,-39.39"/>
<text text-anchor="middle" x="1533.05" y="-57.8" font-family="Times,serif" font-size="14.00">previous</text>
</g>
<!-- http://purl.org/dj/kaggle/pandas&#45;pd&#45;to&#45;numeric#42008801 -->
<g id="node6" class="node">
<title>http://purl.org/dj/kaggle/pandas&#45;pd&#45;to&#45;numeric#42008801</title>
<ellipse fill="none" stroke="black" cx="1177.55" cy="-300" rx="94.78" ry="18"/>
<text text-anchor="middle" x="1177.55" y="-296.3" font-family="Times,serif" font-size="14.00">42008801 (_(0): Reuse)</text>
</g>
<!-- http://purl.org/dj/kaggle/pandas&#45;pd&#45;to&#45;numeric#42008801&#45;&gt;http://purl.org/dj/kaggle/pandas&#45;pd&#45;to&#45;numeric -->
<g id="edge7" class="edge">
<title>http://purl.org/dj/kaggle/pandas&#45;pd&#45;to&#45;numeric#42008801&#45;&gt;http://purl.org/dj/kaggle/pandas&#45;pd&#45;to&#45;numeric</title>
<path fill="none" stroke="black" d="M1181.83,-281.82C1194.86,-233.86 1239.09,-99.12 1334.55,-54 1365.69,-39.28 1448.13,-30.06 1514.51,-24.8"/>
<polygon fill="black" stroke="black" points="1514.9,-28.29 1524.6,-24.03 1514.36,-21.31 1514.9,-28.29"/>
<text text-anchor="middle" x="1266.05" y="-144.8" font-family="Times,serif" font-size="14.00">previous</text>
</g>
<!-- http://purl.org/dj/kaggle/pandas&#45;pd&#45;to&#45;numeric#42008801&#45;&gt;http://purl.org/dj/kaggle/pandas&#45;pd&#45;to&#45;numeric#83689828 -->
<g id="edge8" class="edge">
<title>http://purl.org/dj/kaggle/pandas&#45;pd&#45;to&#45;numeric#42008801&#45;&gt;http://purl.org/dj/kaggle/pandas&#45;pd&#45;to&#45;numeric#83689828</title>
<path fill="none" stroke="black" d="M1214.29,-283.36C1258.17,-264.68 1331.65,-233.4 1379.61,-212.98"/>
<polygon fill="black" stroke="black" points="1381.01,-216.19 1388.84,-209.05 1378.27,-209.75 1381.01,-216.19"/>
<text text-anchor="middle" x="1363.05" y="-242.3" font-family="Times,serif" font-size="14.00">previous</text>
</g>
<!-- http://purl.org/dj/kaggle/pandas&#45;pd&#45;to&#45;numeric#249824024 -->
<g id="node7" class="node">
<title>http://purl.org/dj/kaggle/pandas&#45;pd&#45;to&#45;numeric#249824024</title>
<ellipse fill="none" stroke="black" cx="922.55" cy="-387" rx="136.48" ry="18"/>
<text text-anchor="middle" x="922.55" y="-383.3" font-family="Times,serif" font-size="14.00">249824024 (print[2]: Visualisation)</text>
</g>
<!-- http://purl.org/dj/kaggle/pandas&#45;pd&#45;to&#45;numeric#249824024&#45;&gt;http://purl.org/dj/kaggle/pandas&#45;pd&#45;to&#45;numeric#512164918 -->
<g id="edge9" class="edge">
<title>http://purl.org/dj/kaggle/pandas&#45;pd&#45;to&#45;numeric#249824024&#45;&gt;http://purl.org/dj/kaggle/pandas&#45;pd&#45;to&#45;numeric#512164918</title>
<path fill="none" stroke="black" d="M994.85,-371.68C1055.84,-360.17 1145.56,-344.56 1224.55,-336 1378.08,-319.36 1417.7,-331.38 1571.55,-318 1584.19,-316.9 1597.46,-315.54 1610.57,-314.08"/>
<polygon fill="black" stroke="black" points="1611.01,-317.55 1620.55,-312.94 1610.22,-310.59 1611.01,-317.55"/>
<text text-anchor="middle" x="1248.05" y="-339.8" font-family="Times,serif" font-size="14.00">previous</text>
</g>
<!-- http://purl.org/dj/kaggle/pandas&#45;pd&#45;to&#45;numeric#427361219 -->
<g id="node8" class="node">
<title>http://purl.org/dj/kaggle/pandas&#45;pd&#45;to&#45;numeric#427361219</title>
<ellipse fill="none" stroke="black" cx="890.55" cy="-246" rx="126.18" ry="18"/>
<text text-anchor="middle" x="890.55" y="-242.3" font-family="Times,serif" font-size="14.00">427361219 (filename(0): Reuse)</text>
</g>
<!-- http://purl.org/dj/kaggle/pandas&#45;pd&#45;to&#45;numeric#249824024&#45;&gt;http://purl.org/dj/kaggle/pandas&#45;pd&#45;to&#45;numeric#427361219 -->
<g id="edge10" class="edge">
<title>http://purl.org/dj/kaggle/pandas&#45;pd&#45;to&#45;numeric#249824024&#45;&gt;http://purl.org/dj/kaggle/pandas&#45;pd&#45;to&#45;numeric#427361219</title>
<path fill="none" stroke="black" d="M850.35,-371.59C820.68,-361.73 789.19,-345.28 771.55,-318 762.87,-304.56 761.97,-294.81 771.55,-282 777.24,-274.4 784.49,-268.38 792.6,-263.62"/>
<polygon fill="black" stroke="black" points="794.42,-266.63 801.71,-258.94 791.22,-260.4 794.42,-266.63"/>
<text text-anchor="middle" x="829.05" y="-339.8" font-family="Times,serif" font-size="14.00">previous</text>
</g>
<!-- http://purl.org/dj/kaggle/pandas&#45;pd&#45;to&#45;numeric#820184443 -->
<g id="node9" class="node">
<title>http://purl.org/dj/kaggle/pandas&#45;pd&#45;to&#45;numeric#820184443</title>
<ellipse fill="none" stroke="black" cx="922.55" cy="-300" rx="141.88" ry="18"/>
<text text-anchor="middle" x="922.55" y="-296.3" font-family="Times,serif" font-size="14.00">820184443 (/kaggle/input(0): Reuse)</text>
</g>
<!-- http://purl.org/dj/kaggle/pandas&#45;pd&#45;to&#45;numeric#249824024&#45;&gt;http://purl.org/dj/kaggle/pandas&#45;pd&#45;to&#45;numeric#820184443 -->
<g id="edge11" class="edge">
<title>http://purl.org/dj/kaggle/pandas&#45;pd&#45;to&#45;numeric#249824024&#45;&gt;http://purl.org/dj/kaggle/pandas&#45;pd&#45;to&#45;numeric#820184443</title>
<path fill="none" stroke="black" d="M922.55,-368.8C922.55,-357.16 922.55,-341.55 922.55,-328.24"/>
<polygon fill="black" stroke="black" points="926.05,-328.18 922.55,-318.18 919.05,-328.18 926.05,-328.18"/>
<text text-anchor="middle" x="946.05" y="-339.8" font-family="Times,serif" font-size="14.00">previous</text>
</g>
<!-- http://purl.org/dj/kaggle/pandas&#45;pd&#45;to&#45;numeric#427361219&#45;&gt;http://purl.org/dj/kaggle/pandas&#45;pd&#45;to&#45;numeric -->
<g id="edge12" class="edge">
<title>http://purl.org/dj/kaggle/pandas&#45;pd&#45;to&#45;numeric#427361219&#45;&gt;http://purl.org/dj/kaggle/pandas&#45;pd&#45;to&#45;numeric</title>
<path fill="none" stroke="black" d="M919.93,-228.29C958.18,-206.06 1026.55,-164.67 1080.55,-123 1116.41,-95.33 1114.02,-72.07 1155.55,-54 1216.81,-27.34 1395.33,-20.64 1509.12,-19.15"/>
<polygon fill="black" stroke="black" points="1509.28,-22.65 1519.24,-19.03 1509.19,-15.65 1509.28,-22.65"/>
<text text-anchor="middle" x="1080.05" y="-144.8" font-family="Times,serif" font-size="14.00">previous</text>
</g>
<!-- http://purl.org/dj/kaggle/pandas&#45;pd&#45;to&#45;numeric#820184443&#45;&gt;http://purl.org/dj/kaggle/pandas&#45;pd&#45;to&#45;numeric -->
<g id="edge13" class="edge">
<title>http://purl.org/dj/kaggle/pandas&#45;pd&#45;to&#45;numeric#820184443&#45;&gt;http://purl.org/dj/kaggle/pandas&#45;pd&#45;to&#45;numeric</title>
<path fill="none" stroke="black" d="M979.31,-283.49C994.76,-278.27 1011.18,-271.76 1025.55,-264 1162.44,-190.12 1158.69,-105.28 1305.55,-54 1371.01,-31.14 1448.76,-22.51 1509.12,-19.53"/>
<polygon fill="black" stroke="black" points="1509.58,-23.02 1519.41,-19.07 1509.27,-16.02 1509.58,-23.02"/>
<text text-anchor="middle" x="1194.05" y="-144.8" font-family="Times,serif" font-size="14.00">previous</text>
</g>
<!-- http://purl.org/dj/kaggle/pandas&#45;pd&#45;to&#45;numeric#249561878 -->
<g id="node10" class="node">
<title>http://purl.org/dj/kaggle/pandas&#45;pd&#45;to&#45;numeric#249561878</title>
<ellipse fill="none" stroke="black" cx="1426.55" cy="-300" rx="136.48" ry="18"/>
<text text-anchor="middle" x="1426.55" y="-296.3" font-family="Times,serif" font-size="14.00">249561878 (print[0]: Visualisation)</text>
</g>
<!-- http://purl.org/dj/kaggle/pandas&#45;pd&#45;to&#45;numeric#249561878&#45;&gt;http://purl.org/dj/kaggle/pandas&#45;pd&#45;to&#45;numeric#83689828 -->
<g id="edge14" class="edge">
<title>http://purl.org/dj/kaggle/pandas&#45;pd&#45;to&#45;numeric#249561878&#45;&gt;http://purl.org/dj/kaggle/pandas&#45;pd&#45;to&#45;numeric#83689828</title>
<path fill="none" stroke="black" d="M1426.55,-281.97C1426.55,-265.38 1426.55,-239.88 1426.55,-220.43"/>
<polygon fill="black" stroke="black" points="1430.05,-220.34 1426.55,-210.34 1423.05,-220.34 1430.05,-220.34"/>
<text text-anchor="middle" x="1450.05" y="-242.3" font-family="Times,serif" font-size="14.00">previous</text>
</g>
<!-- http://purl.org/dj/kaggle/pandas&#45;pd&#45;to&#45;numeric#80085334 -->
<g id="node11" class="node">
<title>http://purl.org/dj/kaggle/pandas&#45;pd&#45;to&#45;numeric#80085334</title>
<ellipse fill="none" stroke="black" cx="2412.55" cy="-192" rx="116.98" ry="18"/>
<text text-anchor="middle" x="2412.55" y="-188.3" font-family="Times,serif" font-size="14.00">80085334 (pd(0): Movement)</text>
</g>
<!-- http://purl.org/dj/kaggle/pandas&#45;pd&#45;to&#45;numeric#80085334&#45;&gt;http://purl.org/dj/kaggle/pandas&#45;pd&#45;to&#45;numeric -->
<g id="edge15" class="edge">
<title>http://purl.org/dj/kaggle/pandas&#45;pd&#45;to&#45;numeric#80085334&#45;&gt;http://purl.org/dj/kaggle/pandas&#45;pd&#45;to&#45;numeric</title>
<path fill="none" stroke="black" d="M2424.93,-173.91C2439.5,-151.52 2459.24,-112.15 2438.55,-87 2392.91,-31.52 1917.88,-21.2 1707.68,-19.36"/>
<polygon fill="black" stroke="black" points="1707.6,-15.86 1697.57,-19.27 1707.54,-22.86 1707.6,-15.86"/>
<text text-anchor="middle" x="2471.05" y="-101.3" font-family="Times,serif" font-size="14.00">previous</text>
</g>
<!-- http://purl.org/dj/python/lib/144966264 -->
<g id="node12" class="node">
<title>http://purl.org/dj/python/lib/144966264</title>
<ellipse fill="none" stroke="black" cx="2320.55" cy="-105" rx="109.38" ry="18"/>
<text text-anchor="middle" x="2320.55" y="-101.3" font-family="Times,serif" font-size="14.00">144966264 (pandas: Reuse)</text>
</g>
<!-- http://purl.org/dj/kaggle/pandas&#45;pd&#45;to&#45;numeric#80085334&#45;&gt;http://purl.org/dj/python/lib/144966264 -->
<g id="edge16" class="edge">
<title>http://purl.org/dj/kaggle/pandas&#45;pd&#45;to&#45;numeric#80085334&#45;&gt;http://purl.org/dj/python/lib/144966264</title>
<path fill="none" stroke="black" d="M2394.38,-174.21C2380.64,-161.52 2361.61,-143.93 2346.3,-129.79"/>
<polygon fill="black" stroke="black" points="2348.41,-126.97 2338.69,-122.76 2343.66,-132.12 2348.41,-126.97"/>
<text text-anchor="middle" x="2396.05" y="-144.8" font-family="Times,serif" font-size="14.00">previous</text>
</g>
<!-- http://purl.org/dj/python/lib/144966264&#45;&gt;http://purl.org/dj/kaggle/pandas&#45;pd&#45;to&#45;numeric -->
<g id="edge17" class="edge">
<title>http://purl.org/dj/python/lib/144966264&#45;&gt;http://purl.org/dj/kaggle/pandas&#45;pd&#45;to&#45;numeric</title>
<path fill="none" stroke="black" d="M2279.8,-88.28C2247.87,-76.7 2202.05,-61.68 2160.55,-54 2004.21,-25.05 1819.18,-18.91 1707.98,-18.18"/>
<polygon fill="black" stroke="black" points="1707.81,-14.68 1697.79,-18.13 1707.77,-21.68 1707.81,-14.68"/>
<text text-anchor="middle" x="2243.05" y="-57.8" font-family="Times,serif" font-size="14.00">previous</text>
</g>
<!-- http://purl.org/dj/kaggle/pandas&#45;pd&#45;to&#45;numeric#284099315 -->
<g id="node13" class="node">
<title>http://purl.org/dj/kaggle/pandas&#45;pd&#45;to&#45;numeric#284099315</title>
<ellipse fill="none" stroke="black" cx="1992.55" cy="-105" rx="118.08" ry="18"/>
<text text-anchor="middle" x="1992.55" y="-101.3" font-family="Times,serif" font-size="14.00">284099315 (coerce(0): Reuse)</text>
</g>
<!-- http://purl.org/dj/kaggle/pandas&#45;pd&#45;to&#45;numeric#284099315&#45;&gt;http://purl.org/dj/kaggle/pandas&#45;pd&#45;to&#45;numeric -->
<g id="edge18" class="edge">
<title>http://purl.org/dj/kaggle/pandas&#45;pd&#45;to&#45;numeric#284099315&#45;&gt;http://purl.org/dj/kaggle/pandas&#45;pd&#45;to&#45;numeric</title>
<path fill="none" stroke="black" d="M1928.28,-89.77C1858.48,-74.32 1747.46,-49.75 1676.32,-34"/>
<polygon fill="black" stroke="black" points="1676.64,-30.49 1666.12,-31.74 1675.13,-37.32 1676.64,-30.49"/>
<text text-anchor="middle" x="1847.05" y="-57.8" font-family="Times,serif" font-size="14.00">previous</text>
</g>
<!-- http://purl.org/dj/kaggle/pandas&#45;pd&#45;to&#45;numeric#132776362 -->
<g id="node14" class="node">
<title>http://purl.org/dj/kaggle/pandas&#45;pd&#45;to&#45;numeric#132776362</title>
<ellipse fill="none" stroke="black" cx="2462.55" cy="-300" rx="112.38" ry="18"/>
<text text-anchor="middle" x="2462.55" y="-296.3" font-family="Times,serif" font-size="14.00">132776362 (pd(0)$0: Reuse)</text>
</g>
<!-- http://purl.org/dj/kaggle/pandas&#45;pd&#45;to&#45;numeric#132776362&#45;&gt;http://purl.org/dj/kaggle/pandas&#45;pd&#45;to&#45;numeric#80085334 -->
<g id="edge19" class="edge">
<title>http://purl.org/dj/kaggle/pandas&#45;pd&#45;to&#45;numeric#132776362&#45;&gt;http://purl.org/dj/kaggle/pandas&#45;pd&#45;to&#45;numeric#80085334</title>
<path fill="none" stroke="black" d="M2454.52,-281.97C2446.54,-265.05 2434.19,-238.86 2424.95,-219.28"/>
<polygon fill="black" stroke="black" points="2428,-217.54 2420.57,-209.99 2421.67,-220.53 2428,-217.54"/>
<text text-anchor="middle" x="2469.05" y="-242.3" font-family="Times,serif" font-size="14.00">previous</text>
</g>
<!-- http://purl.org/dj/kaggle/pandas&#45;pd&#45;to&#45;numeric#82575712 -->
<g id="node15" class="node">
<title>http://purl.org/dj/kaggle/pandas&#45;pd&#45;to&#45;numeric#82575712</title>
<ellipse fill="none" stroke="black" cx="1972.55" cy="-192" rx="116.98" ry="18"/>
<text text-anchor="middle" x="1972.55" y="-188.3" font-family="Times,serif" font-size="14.00">82575712 (np(0): Movement)</text>
</g>
<!-- http://purl.org/dj/kaggle/pandas&#45;pd&#45;to&#45;numeric#82575712&#45;&gt;http://purl.org/dj/kaggle/pandas&#45;pd&#45;to&#45;numeric -->
<g id="edge20" class="edge">
<title>http://purl.org/dj/kaggle/pandas&#45;pd&#45;to&#45;numeric#82575712&#45;&gt;http://purl.org/dj/kaggle/pandas&#45;pd&#45;to&#45;numeric</title>
<path fill="none" stroke="black" d="M2026.95,-175.96C2081.76,-158.2 2153.71,-126.07 2119.55,-87 2092.58,-56.15 1842.61,-34.63 1702.55,-24.89"/>
<polygon fill="black" stroke="black" points="1702.47,-21.37 1692.25,-24.18 1701.99,-28.36 1702.47,-21.37"/>
<text text-anchor="middle" x="2152.05" y="-101.3" font-family="Times,serif" font-size="14.00">previous</text>
</g>
<!-- http://purl.org/dj/python/lib/111084090 -->
<g id="node16" class="node">
<title>http://purl.org/dj/python/lib/111084090</title>
<ellipse fill="none" stroke="black" cx="1746.55" cy="-105" rx="109.68" ry="18"/>
<text text-anchor="middle" x="1746.55" y="-101.3" font-family="Times,serif" font-size="14.00">111084090 (numpy: Reuse)</text>
</g>
<!-- http://purl.org/dj/kaggle/pandas&#45;pd&#45;to&#45;numeric#82575712&#45;&gt;http://purl.org/dj/python/lib/111084090 -->
<g id="edge21" class="edge">
<title>http://purl.org/dj/kaggle/pandas&#45;pd&#45;to&#45;numeric#82575712&#45;&gt;http://purl.org/dj/python/lib/111084090</title>
<path fill="none" stroke="black" d="M1930.31,-175.11C1892.78,-161 1837.82,-140.33 1797.79,-125.27"/>
<polygon fill="black" stroke="black" points="1798.8,-121.91 1788.21,-121.67 1796.33,-128.46 1798.8,-121.91"/>
<text text-anchor="middle" x="1897.05" y="-144.8" font-family="Times,serif" font-size="14.00">previous</text>
</g>
<!-- http://purl.org/dj/python/lib/111084090&#45;&gt;http://purl.org/dj/kaggle/pandas&#45;pd&#45;to&#45;numeric -->
<g id="edge22" class="edge">
<title>http://purl.org/dj/python/lib/111084090&#45;&gt;http://purl.org/dj/kaggle/pandas&#45;pd&#45;to&#45;numeric</title>
<path fill="none" stroke="black" d="M1719.62,-87.41C1697.92,-74.04 1667.24,-55.15 1643.62,-40.6"/>
<polygon fill="black" stroke="black" points="1645.3,-37.52 1634.95,-35.26 1641.63,-43.48 1645.3,-37.52"/>
<text text-anchor="middle" x="1710.05" y="-57.8" font-family="Times,serif" font-size="14.00">previous</text>
</g>
<!-- http://purl.org/dj/kaggle/pandas&#45;pd&#45;to&#45;numeric#249692951 -->
<g id="node17" class="node">
<title>http://purl.org/dj/kaggle/pandas&#45;pd&#45;to&#45;numeric#249692951</title>
<ellipse fill="none" stroke="black" cx="1597.55" cy="-387" rx="136.48" ry="18"/>
<text text-anchor="middle" x="1597.55" y="-383.3" font-family="Times,serif" font-size="14.00">249692951 (print[1]: Visualisation)</text>
</g>
<!-- http://purl.org/dj/kaggle/pandas&#45;pd&#45;to&#45;numeric#249692951&#45;&gt;http://purl.org/dj/kaggle/pandas&#45;pd&#45;to&#45;numeric#820184443 -->
<g id="edge23" class="edge">
<title>http://purl.org/dj/kaggle/pandas&#45;pd&#45;to&#45;numeric#249692951&#45;&gt;http://purl.org/dj/kaggle/pandas&#45;pd&#45;to&#45;numeric#820184443</title>
<path fill="none" stroke="black" d="M1518.68,-372.28C1453.62,-361.32 1358.8,-346.16 1275.55,-336 1186.08,-325.08 1163.23,-327.04 1073.55,-318 1060.69,-316.7 1047.22,-315.28 1033.84,-313.83"/>
<polygon fill="black" stroke="black" points="1033.96,-310.32 1023.64,-312.71 1033.2,-317.28 1033.96,-310.32"/>
<text text-anchor="middle" x="1406.05" y="-339.8" font-family="Times,serif" font-size="14.00">previous</text>
</g>
<!-- http://purl.org/dj/kaggle/pandas&#45;pd&#45;to&#45;numeric#355533666 -->
<g id="node18" class="node">
<title>http://purl.org/dj/kaggle/pandas&#45;pd&#45;to&#45;numeric#355533666</title>
<ellipse fill="none" stroke="black" cx="1981.55" cy="-300" rx="124.28" ry="18"/>
<text text-anchor="middle" x="1981.55" y="-296.3" font-family="Times,serif" font-size="14.00">355533666 (dirname(0): Reuse)</text>
</g>
<!-- http://purl.org/dj/kaggle/pandas&#45;pd&#45;to&#45;numeric#249692951&#45;&gt;http://purl.org/dj/kaggle/pandas&#45;pd&#45;to&#45;numeric#355533666 -->
<g id="edge24" class="edge">
<title>http://purl.org/dj/kaggle/pandas&#45;pd&#45;to&#45;numeric#249692951&#45;&gt;http://purl.org/dj/kaggle/pandas&#45;pd&#45;to&#45;numeric#355533666</title>
<path fill="none" stroke="black" d="M1664.44,-371.19C1732.03,-356.23 1836.25,-333.16 1906.59,-317.59"/>
<polygon fill="black" stroke="black" points="1907.7,-320.93 1916.71,-315.35 1906.19,-314.1 1907.7,-320.93"/>
<text text-anchor="middle" x="1836.05" y="-339.8" font-family="Times,serif" font-size="14.00">previous</text>
</g>
<!-- http://purl.org/dj/kaggle/pandas&#45;pd&#45;to&#45;numeric#355533666&#45;&gt;http://purl.org/dj/kaggle/pandas&#45;pd&#45;to&#45;numeric -->
<g id="edge25" class="edge">
<title>http://purl.org/dj/kaggle/pandas&#45;pd&#45;to&#45;numeric#355533666&#45;&gt;http://purl.org/dj/kaggle/pandas&#45;pd&#45;to&#45;numeric</title>
<path fill="none" stroke="black" d="M1914.08,-284.78C1832.75,-263.94 1698.22,-216.92 1627.55,-123 1611.05,-101.07 1607.34,-69.28 1607.12,-46.62"/>
<polygon fill="black" stroke="black" points="1610.62,-46.36 1607.24,-36.32 1603.62,-46.28 1610.62,-46.36"/>
<text text-anchor="middle" x="1678.05" y="-144.8" font-family="Times,serif" font-size="14.00">previous</text>
</g>
<!-- http://purl.org/dj/kaggle/pandas&#45;pd&#45;to&#45;numeric#355533666&#45;&gt;http://purl.org/dj/kaggle/pandas&#45;pd&#45;to&#45;numeric#83689828 -->
<g id="edge26" class="edge">
<title>http://purl.org/dj/kaggle/pandas&#45;pd&#45;to&#45;numeric#355533666&#45;&gt;http://purl.org/dj/kaggle/pandas&#45;pd&#45;to&#45;numeric#83689828</title>
<path fill="none" stroke="black" d="M1894.35,-287.18C1879.1,-285.3 1863.38,-283.49 1848.55,-282 1794.46,-276.55 1655.05,-284.15 1604.55,-264 1581.08,-254.64 1583.07,-239.46 1560.55,-228 1544.79,-219.98 1527.02,-213.68 1509.7,-208.77"/>
<polygon fill="black" stroke="black" points="1510.14,-205.26 1499.57,-206.04 1508.31,-212.02 1510.14,-205.26"/>
<text text-anchor="middle" x="1628.05" y="-242.3" font-family="Times,serif" font-size="14.00">previous</text>
</g>
<!-- http://purl.org/dj/kaggle/pandas&#45;pd&#45;to&#45;numeric#87228745 -->
<g id="node19" class="node">
<title>http://purl.org/dj/kaggle/pandas&#45;pd&#45;to&#45;numeric#87228745</title>
<ellipse fill="none" stroke="black" cx="2229.55" cy="-300" rx="102.88" ry="18"/>
<text text-anchor="middle" x="2229.55" y="-296.3" font-family="Times,serif" font-size="14.00">87228745 (s(0)$0: Reuse)</text>
</g>
<!-- http://purl.org/dj/kaggle/pandas&#45;pd&#45;to&#45;numeric#87228745&#45;&gt;http://purl.org/dj/kaggle/pandas&#45;pd&#45;to&#45;numeric#80085334 -->
<g id="edge27" class="edge">
<title>http://purl.org/dj/kaggle/pandas&#45;pd&#45;to&#45;numeric#87228745&#45;&gt;http://purl.org/dj/kaggle/pandas&#45;pd&#45;to&#45;numeric#80085334</title>
<path fill="none" stroke="black" d="M2257.75,-282.67C2289.22,-264.44 2340.3,-234.85 2375.11,-214.69"/>
<polygon fill="black" stroke="black" points="2377.13,-217.56 2384.03,-209.52 2373.62,-211.51 2377.13,-217.56"/>
<text text-anchor="middle" x="2372.05" y="-242.3" font-family="Times,serif" font-size="14.00">previous</text>
</g>
<!-- http://purl.org/dj/kaggle/pandas&#45;pd&#45;to&#45;numeric#1380660025 -->
<g id="node20" class="node">
<title>http://purl.org/dj/kaggle/pandas&#45;pd&#45;to&#45;numeric#1380660025</title>
<ellipse fill="none" stroke="black" cx="3204.55" cy="-105" rx="673.98" ry="18"/>
<text text-anchor="middle" x="3204.55" y="-101.3" font-family="Times,serif" font-size="14.00">1380660025 ([&lt;_ast.Constant object at 0x12fc4fe80&gt;, &lt;_ast.Constant object at 0x12fc4f730&gt;, &lt;_ast.Constant object at 0x12fc4f670&gt;, &lt;_ast.UnaryOp object at 0x12fc4fe20&gt;](0): Reuse)</text>
</g>
<!-- http://purl.org/dj/kaggle/pandas&#45;pd&#45;to&#45;numeric#1380660025&#45;&gt;http://purl.org/dj/kaggle/pandas&#45;pd&#45;to&#45;numeric -->
<g id="edge28" class="edge">
<title>http://purl.org/dj/kaggle/pandas&#45;pd&#45;to&#45;numeric#1380660025&#45;&gt;http://purl.org/dj/kaggle/pandas&#45;pd&#45;to&#45;numeric</title>
<path fill="none" stroke="black" d="M2994.08,-87.88C2849.43,-77.2 2652.93,-63.46 2479.55,-54 2198.98,-38.69 1867.22,-27.18 1706.11,-22.01"/>
<polygon fill="black" stroke="black" points="1705.86,-18.5 1695.75,-21.68 1705.63,-25.49 1705.86,-18.5"/>
<text text-anchor="middle" x="2743.05" y="-57.8" font-family="Times,serif" font-size="14.00">previous</text>
</g>
<!-- http://purl.org/dj/kaggle/pandas&#45;pd&#45;to&#45;numeric#361235310 -->
<g id="node21" class="node">
<title>http://purl.org/dj/kaggle/pandas&#45;pd&#45;to&#45;numeric#361235310</title>
<ellipse fill="none" stroke="black" cx="4021.55" cy="-105" rx="125.38" ry="18"/>
<text text-anchor="middle" x="4021.55" y="-101.3" font-family="Times,serif" font-size="14.00">361235310 (example(0): Reuse)</text>
</g>
<!-- http://purl.org/dj/kaggle/pandas&#45;pd&#45;to&#45;numeric#361235310&#45;&gt;http://purl.org/dj/kaggle/pandas&#45;pd&#45;to&#45;numeric -->
<g id="edge29" class="edge">
<title>http://purl.org/dj/kaggle/pandas&#45;pd&#45;to&#45;numeric#361235310&#45;&gt;http://purl.org/dj/kaggle/pandas&#45;pd&#45;to&#45;numeric</title>
<path fill="none" stroke="black" d="M3935.54,-91.84C3919.61,-89.95 3903.1,-88.22 3887.55,-87 3046.26,-21.24 2025.71,-17.85 1707.87,-18.55"/>
<polygon fill="black" stroke="black" points="1707.76,-15.05 1697.77,-18.58 1707.78,-22.05 1707.76,-15.05"/>
<text text-anchor="middle" x="3601.05" y="-57.8" font-family="Times,serif" font-size="14.00">previous</text>
</g>
</g>
</svg>
