<?xml version="1.0" encoding="UTF-8" standalone="no"?>
<!DOCTYPE svg PUBLIC "-//W3C//DTD SVG 1.1//EN"
 "http://www.w3.org/Graphics/SVG/1.1/DTD/svg11.dtd">
<!-- Generated by graphviz version 2.44.1 (20200629.0846)
 -->
<!-- Pages: 1 -->
<svg width="10639pt" height="521pt"
 viewBox="0.00 0.00 10638.87 521.00" xmlns="http://www.w3.org/2000/svg" xmlns:xlink="http://www.w3.org/1999/xlink">
<g id="graph0" class="graph" transform="scale(1 1) rotate(0) translate(4 517)">
<polygon fill="white" stroke="transparent" points="-4,4 -4,-517 10634.87,-517 10634.87,4 -4,4"/>
<!-- http://purl.org/dj/kaggle/partial&#45;dependence&#45;plots#183697931 -->
<g id="node1" class="node">
<title>http://purl.org/dj/kaggle/partial&#45;dependence&#45;plots#183697931</title>
<ellipse fill="none" stroke="black" cx="1154.24" cy="-408" rx="122.38" ry="18"/>
<text text-anchor="middle" x="1154.24" y="-404.3" font-family="Times,serif" font-size="14.00">183697931 (clf(0)$0: Analysis)</text>
</g>
<!-- http://purl.org/dj/kaggle/partial&#45;dependence&#45;plots#118292919 -->
<g id="node2" class="node">
<title>http://purl.org/dj/kaggle/partial&#45;dependence&#45;plots#118292919</title>
<ellipse fill="none" stroke="black" cx="249.24" cy="-267" rx="104.78" ry="18"/>
<text text-anchor="middle" x="249.24" y="-263.3" font-family="Times,serif" font-size="14.00">118292919 (clf(0): Reuse)</text>
</g>
<!-- http://purl.org/dj/kaggle/partial&#45;dependence&#45;plots#183697931&#45;&gt;http://purl.org/dj/kaggle/partial&#45;dependence&#45;plots#118292919 -->
<g id="edge1" class="edge">
<title>http://purl.org/dj/kaggle/partial&#45;dependence&#45;plots#183697931&#45;&gt;http://purl.org/dj/kaggle/partial&#45;dependence&#45;plots#118292919</title>
<path fill="none" stroke="black" d="M1040.63,-401.26C956.97,-396.1 840.63,-386.98 739.24,-372 585.88,-349.35 408.52,-307.82 314.93,-284.68"/>
<polygon fill="black" stroke="black" points="315.59,-281.24 305.04,-282.23 313.9,-288.03 315.59,-281.24"/>
<text text-anchor="middle" x="762.74" y="-360.8" font-family="Times,serif" font-size="14.00">previous</text>
</g>
<!-- http://purl.org/dj/kaggle/partial&#45;dependence&#45;plots#676660378 -->
<g id="node3" class="node">
<title>http://purl.org/dj/kaggle/partial&#45;dependence&#45;plots#676660378</title>
<ellipse fill="none" stroke="black" cx="1970.24" cy="-321" rx="134.58" ry="18"/>
<text text-anchor="middle" x="1970.24" y="-317.3" font-family="Times,serif" font-size="14.00">676660378 (titanic_y(0)$0: Reuse)</text>
</g>
<!-- http://purl.org/dj/kaggle/partial&#45;dependence&#45;plots#183697931&#45;&gt;http://purl.org/dj/kaggle/partial&#45;dependence&#45;plots#676660378 -->
<g id="edge2" class="edge">
<title>http://purl.org/dj/kaggle/partial&#45;dependence&#45;plots#183697931&#45;&gt;http://purl.org/dj/kaggle/partial&#45;dependence&#45;plots#676660378</title>
<path fill="none" stroke="black" d="M1251.05,-396.92C1402.86,-381.1 1696.2,-350.55 1857.37,-333.76"/>
<polygon fill="black" stroke="black" points="1858.21,-337.19 1867.79,-332.67 1857.48,-330.23 1858.21,-337.19"/>
<text text-anchor="middle" x="1634.74" y="-360.8" font-family="Times,serif" font-size="14.00">previous</text>
</g>
<!-- http://purl.org/dj/kaggle/partial&#45;dependence&#45;plots#1709778587 -->
<g id="node4" class="node">
<title>http://purl.org/dj/kaggle/partial&#45;dependence&#45;plots#1709778587</title>
<ellipse fill="none" stroke="black" cx="600.24" cy="-159" rx="531.01" ry="18"/>
<text text-anchor="middle" x="600.24" y="-155.3" font-family="Times,serif" font-size="14.00">1709778587 ([&lt;_ast.Constant object at 0x12f8f5280&gt;, &lt;_ast.Constant object at 0x12f8f58e0&gt;, &lt;_ast.Constant object at 0x12f8f56a0&gt;](0): Reuse)</text>
</g>
<!-- http://purl.org/dj/kaggle/partial&#45;dependence&#45;plots#183697931&#45;&gt;http://purl.org/dj/kaggle/partial&#45;dependence&#45;plots#1709778587 -->
<g id="edge3" class="edge">
<title>http://purl.org/dj/kaggle/partial&#45;dependence&#45;plots#183697931&#45;&gt;http://purl.org/dj/kaggle/partial&#45;dependence&#45;plots#1709778587</title>
<path fill="none" stroke="black" d="M1117.89,-390.79C1021.03,-347.61 756.72,-229.77 647.96,-181.28"/>
<polygon fill="black" stroke="black" points="649.11,-177.96 638.55,-177.08 646.26,-184.35 649.11,-177.96"/>
<text text-anchor="middle" x="1025.74" y="-317.3" font-family="Times,serif" font-size="14.00">previous</text>
</g>
<!-- http://purl.org/dj/kaggle/partial&#45;dependence&#45;plots#628294861 -->
<g id="node5" class="node">
<title>http://purl.org/dj/kaggle/partial&#45;dependence&#45;plots#628294861</title>
<ellipse fill="none" stroke="black" cx="1154.24" cy="-267" rx="139.18" ry="18"/>
<text text-anchor="middle" x="1154.24" y="-263.3" font-family="Times,serif" font-size="14.00">628294861 (my_imputer(0): Reuse)</text>
</g>
<!-- http://purl.org/dj/kaggle/partial&#45;dependence&#45;plots#183697931&#45;&gt;http://purl.org/dj/kaggle/partial&#45;dependence&#45;plots#628294861 -->
<g id="edge4" class="edge">
<title>http://purl.org/dj/kaggle/partial&#45;dependence&#45;plots#183697931&#45;&gt;http://purl.org/dj/kaggle/partial&#45;dependence&#45;plots#628294861</title>
<path fill="none" stroke="black" d="M1154.24,-389.96C1154.24,-366.4 1154.24,-323.64 1154.24,-295.53"/>
<polygon fill="black" stroke="black" points="1157.74,-295.18 1154.24,-285.18 1150.74,-295.18 1157.74,-295.18"/>
<text text-anchor="middle" x="1177.74" y="-360.8" font-family="Times,serif" font-size="14.00">previous</text>
</g>
<!-- http://purl.org/dj/kaggle/partial&#45;dependence&#45;plots#663684217 -->
<g id="node6" class="node">
<title>http://purl.org/dj/kaggle/partial&#45;dependence&#45;plots#663684217</title>
<ellipse fill="none" stroke="black" cx="2272.24" cy="-321" rx="136.48" ry="18"/>
<text text-anchor="middle" x="2272.24" y="-317.3" font-family="Times,serif" font-size="14.00">663684217 (titanic_X(0)$0: Reuse)</text>
</g>
<!-- http://purl.org/dj/kaggle/partial&#45;dependence&#45;plots#183697931&#45;&gt;http://purl.org/dj/kaggle/partial&#45;dependence&#45;plots#663684217 -->
<g id="edge5" class="edge">
<title>http://purl.org/dj/kaggle/partial&#45;dependence&#45;plots#183697931&#45;&gt;http://purl.org/dj/kaggle/partial&#45;dependence&#45;plots#663684217</title>
<path fill="none" stroke="black" d="M1265.58,-400.51C1444.59,-389.77 1807.42,-366.7 2114.24,-339 2129.56,-337.62 2145.71,-336.03 2161.6,-334.39"/>
<polygon fill="black" stroke="black" points="2162.4,-337.83 2171.99,-333.31 2161.68,-330.86 2162.4,-337.83"/>
<text text-anchor="middle" x="1901.74" y="-360.8" font-family="Times,serif" font-size="14.00">previous</text>
</g>
<!-- http://purl.org/dj/kaggle/partial&#45;dependence&#45;plots -->
<g id="node7" class="node">
<title>http://purl.org/dj/kaggle/partial&#45;dependence&#45;plots</title>
<ellipse fill="none" stroke="black" cx="4011.24" cy="-18" rx="97.48" ry="18"/>
<text text-anchor="middle" x="4011.24" y="-14.3" font-family="Times,serif" font-size="14.00">partial&#45;dependence&#45;plots</text>
</g>
<!-- http://purl.org/dj/kaggle/partial&#45;dependence&#45;plots#118292919&#45;&gt;http://purl.org/dj/kaggle/partial&#45;dependence&#45;plots -->
<g id="edge6" class="edge">
<title>http://purl.org/dj/kaggle/partial&#45;dependence&#45;plots#118292919&#45;&gt;http://purl.org/dj/kaggle/partial&#45;dependence&#45;plots</title>
<path fill="none" stroke="black" d="M175.69,-254.11C87.68,-236.92 -41.4,-200.51 13.24,-141 166.64,26.09 803.68,-65.01 1030.24,-54 1606.43,-26.01 3439.49,-20.23 3903.62,-19.2"/>
<polygon fill="black" stroke="black" points="3903.68,-22.7 3913.67,-19.18 3903.67,-15.7 3903.68,-22.7"/>
<text text-anchor="middle" x="36.74" y="-155.3" font-family="Times,serif" font-size="14.00">previous</text>
</g>
<!-- http://purl.org/dj/kaggle/partial&#45;dependence&#45;plots#996214203 -->
<g id="node8" class="node">
<title>http://purl.org/dj/kaggle/partial&#45;dependence&#45;plots#996214203</title>
<ellipse fill="none" stroke="black" cx="2286.24" cy="-213" rx="162.47" ry="18"/>
<text text-anchor="middle" x="2286.24" y="-209.3" font-family="Times,serif" font-size="14.00">996214203 (titanic_data(0)$0: Movement)</text>
</g>
<!-- http://purl.org/dj/kaggle/partial&#45;dependence&#45;plots#676660378&#45;&gt;http://purl.org/dj/kaggle/partial&#45;dependence&#45;plots#996214203 -->
<g id="edge7" class="edge">
<title>http://purl.org/dj/kaggle/partial&#45;dependence&#45;plots#676660378&#45;&gt;http://purl.org/dj/kaggle/partial&#45;dependence&#45;plots#996214203</title>
<path fill="none" stroke="black" d="M2017.54,-304.13C2073.73,-285.28 2167.45,-253.85 2228.03,-233.53"/>
<polygon fill="black" stroke="black" points="2229.46,-236.74 2237.83,-230.24 2227.23,-230.1 2229.46,-236.74"/>
<text text-anchor="middle" x="2198.74" y="-263.3" font-family="Times,serif" font-size="14.00">previous</text>
</g>
<!-- http://purl.org/dj/kaggle/partial&#45;dependence&#45;plots#1709778587&#45;&gt;http://purl.org/dj/kaggle/partial&#45;dependence&#45;plots -->
<g id="edge8" class="edge">
<title>http://purl.org/dj/kaggle/partial&#45;dependence&#45;plots#1709778587&#45;&gt;http://purl.org/dj/kaggle/partial&#45;dependence&#45;plots</title>
<path fill="none" stroke="black" d="M667.44,-141.05C769.01,-116.34 968.08,-71.49 1140.24,-54 1418.45,-25.74 3414.89,-20.13 3903.52,-19.18"/>
<polygon fill="black" stroke="black" points="3903.75,-22.68 3913.74,-19.16 3903.73,-15.68 3903.75,-22.68"/>
<text text-anchor="middle" x="940.74" y="-101.3" font-family="Times,serif" font-size="14.00">previous</text>
</g>
<!-- http://purl.org/dj/kaggle/partial&#45;dependence&#45;plots#628294861&#45;&gt;http://purl.org/dj/kaggle/partial&#45;dependence&#45;plots -->
<g id="edge9" class="edge">
<title>http://purl.org/dj/kaggle/partial&#45;dependence&#45;plots#628294861&#45;&gt;http://purl.org/dj/kaggle/partial&#45;dependence&#45;plots</title>
<path fill="none" stroke="black" d="M1149.82,-248.75C1141.79,-212.94 1129.43,-130.26 1173.24,-87 1285.35,23.72 1368.89,-62.45 1526.24,-54 1999.44,-28.59 3490.17,-21.02 3903.84,-19.38"/>
<polygon fill="black" stroke="black" points="3904.02,-22.88 3914,-19.34 3903.99,-15.88 3904.02,-22.88"/>
<text text-anchor="middle" x="1169.74" y="-155.3" font-family="Times,serif" font-size="14.00">previous</text>
</g>
<!-- http://purl.org/dj/kaggle/partial&#45;dependence&#45;plots#663684217&#45;&gt;http://purl.org/dj/kaggle/partial&#45;dependence&#45;plots#996214203 -->
<g id="edge10" class="edge">
<title>http://purl.org/dj/kaggle/partial&#45;dependence&#45;plots#663684217&#45;&gt;http://purl.org/dj/kaggle/partial&#45;dependence&#45;plots#996214203</title>
<path fill="none" stroke="black" d="M2274.49,-302.97C2276.68,-286.38 2280.04,-260.88 2282.61,-241.43"/>
<polygon fill="black" stroke="black" points="2286.11,-241.71 2283.95,-231.34 2279.17,-240.8 2286.11,-241.71"/>
<text text-anchor="middle" x="2305.74" y="-263.3" font-family="Times,serif" font-size="14.00">previous</text>
</g>
<!-- http://purl.org/dj/kaggle/partial&#45;dependence&#45;plots#2579696159 -->
<g id="node15" class="node">
<title>http://purl.org/dj/kaggle/partial&#45;dependence&#45;plots#2579696159</title>
<ellipse fill="none" stroke="black" cx="2286.24" cy="-105" rx="181.97" ry="18"/>
<text text-anchor="middle" x="2286.24" y="-101.3" font-family="Times,serif" font-size="14.00">2579696159 (../input/titanic/train.csv(0): Reuse)</text>
</g>
<!-- http://purl.org/dj/kaggle/partial&#45;dependence&#45;plots#996214203&#45;&gt;http://purl.org/dj/kaggle/partial&#45;dependence&#45;plots#2579696159 -->
<g id="edge20" class="edge">
<title>http://purl.org/dj/kaggle/partial&#45;dependence&#45;plots#996214203&#45;&gt;http://purl.org/dj/kaggle/partial&#45;dependence&#45;plots#2579696159</title>
<path fill="none" stroke="black" d="M2286.24,-194.97C2286.24,-178.38 2286.24,-152.88 2286.24,-133.43"/>
<polygon fill="black" stroke="black" points="2289.74,-133.34 2286.24,-123.34 2282.74,-133.34 2289.74,-133.34"/>
<text text-anchor="middle" x="2309.74" y="-155.3" font-family="Times,serif" font-size="14.00">previous</text>
</g>
<!-- http://purl.org/dj/python/lib/144966264 -->
<g id="node16" class="node">
<title>http://purl.org/dj/python/lib/144966264</title>
<ellipse fill="none" stroke="black" cx="2595.24" cy="-105" rx="109.38" ry="18"/>
<text text-anchor="middle" x="2595.24" y="-101.3" font-family="Times,serif" font-size="14.00">144966264 (pandas: Reuse)</text>
</g>
<!-- http://purl.org/dj/kaggle/partial&#45;dependence&#45;plots#996214203&#45;&gt;http://purl.org/dj/python/lib/144966264 -->
<g id="edge21" class="edge">
<title>http://purl.org/dj/kaggle/partial&#45;dependence&#45;plots#996214203&#45;&gt;http://purl.org/dj/python/lib/144966264</title>
<path fill="none" stroke="black" d="M2333.84,-195.67C2389.65,-176.53 2481.95,-144.86 2540.62,-124.74"/>
<polygon fill="black" stroke="black" points="2541.77,-128.04 2550.09,-121.49 2539.5,-121.42 2541.77,-128.04"/>
<text text-anchor="middle" x="2510.74" y="-155.3" font-family="Times,serif" font-size="14.00">previous</text>
</g>
<!-- http://purl.org/dj/kaggle/partial&#45;dependence&#45;plots#80085334 -->
<g id="node17" class="node">
<title>http://purl.org/dj/kaggle/partial&#45;dependence&#45;plots#80085334</title>
<ellipse fill="none" stroke="black" cx="2822.24" cy="-105" rx="99.38" ry="18"/>
<text text-anchor="middle" x="2822.24" y="-101.3" font-family="Times,serif" font-size="14.00">80085334 (pd(0): Reuse)</text>
</g>
<!-- http://purl.org/dj/kaggle/partial&#45;dependence&#45;plots#996214203&#45;&gt;http://purl.org/dj/kaggle/partial&#45;dependence&#45;plots#80085334 -->
<g id="edge22" class="edge">
<title>http://purl.org/dj/kaggle/partial&#45;dependence&#45;plots#996214203&#45;&gt;http://purl.org/dj/kaggle/partial&#45;dependence&#45;plots#80085334</title>
<path fill="none" stroke="black" d="M2394.57,-199.54C2439.24,-193.73 2491.4,-186.08 2538.24,-177 2615.9,-161.94 2704.11,-138.95 2761.34,-123.23"/>
<polygon fill="black" stroke="black" points="2762.59,-126.52 2771.3,-120.49 2760.73,-119.77 2762.59,-126.52"/>
<text text-anchor="middle" x="2716.74" y="-155.3" font-family="Times,serif" font-size="14.00">previous</text>
</g>
<!-- http://purl.org/dj/kaggle/partial&#45;dependence&#45;plots#577176621 -->
<g id="node9" class="node">
<title>http://purl.org/dj/kaggle/partial&#45;dependence&#45;plots#577176621</title>
<ellipse fill="none" stroke="black" cx="1333.24" cy="-213" rx="151.37" ry="18"/>
<text text-anchor="middle" x="1333.24" y="-209.3" font-family="Times,serif" font-size="14.00">577176621 (my_model(0)$1: Analysis)</text>
</g>
<!-- http://purl.org/dj/kaggle/partial&#45;dependence&#45;plots#40173786 -->
<g id="node10" class="node">
<title>http://purl.org/dj/kaggle/partial&#45;dependence&#45;plots#40173786</title>
<ellipse fill="none" stroke="black" cx="1279.24" cy="-105" rx="96.68" ry="18"/>
<text text-anchor="middle" x="1279.24" y="-101.3" font-family="Times,serif" font-size="14.00">40173786 (X(0): Reuse)</text>
</g>
<!-- http://purl.org/dj/kaggle/partial&#45;dependence&#45;plots#577176621&#45;&gt;http://purl.org/dj/kaggle/partial&#45;dependence&#45;plots#40173786 -->
<g id="edge11" class="edge">
<title>http://purl.org/dj/kaggle/partial&#45;dependence&#45;plots#577176621&#45;&gt;http://purl.org/dj/kaggle/partial&#45;dependence&#45;plots#40173786</title>
<path fill="none" stroke="black" d="M1324.56,-194.97C1315.9,-177.97 1302.48,-151.62 1292.49,-132.01"/>
<polygon fill="black" stroke="black" points="1295.55,-130.31 1287.89,-122.99 1289.31,-133.49 1295.55,-130.31"/>
<text text-anchor="middle" x="1337.74" y="-155.3" font-family="Times,serif" font-size="14.00">previous</text>
</g>
<!-- http://purl.org/dj/kaggle/partial&#45;dependence&#45;plots#48824571 -->
<g id="node11" class="node">
<title>http://purl.org/dj/kaggle/partial&#45;dependence&#45;plots#48824571</title>
<ellipse fill="none" stroke="black" cx="1489.24" cy="-105" rx="94.78" ry="18"/>
<text text-anchor="middle" x="1489.24" y="-101.3" font-family="Times,serif" font-size="14.00">48824571 (y(0): Reuse)</text>
</g>
<!-- http://purl.org/dj/kaggle/partial&#45;dependence&#45;plots#577176621&#45;&gt;http://purl.org/dj/kaggle/partial&#45;dependence&#45;plots#48824571 -->
<g id="edge12" class="edge">
<title>http://purl.org/dj/kaggle/partial&#45;dependence&#45;plots#577176621&#45;&gt;http://purl.org/dj/kaggle/partial&#45;dependence&#45;plots#48824571</title>
<path fill="none" stroke="black" d="M1357.95,-195.2C1384.62,-177.09 1427.2,-148.16 1456.6,-128.18"/>
<polygon fill="black" stroke="black" points="1458.59,-131.06 1464.89,-122.54 1454.65,-125.27 1458.59,-131.06"/>
<text text-anchor="middle" x="1458.74" y="-155.3" font-family="Times,serif" font-size="14.00">previous</text>
</g>
<!-- http://purl.org/dj/kaggle/partial&#45;dependence&#45;plots#40173786&#45;&gt;http://purl.org/dj/kaggle/partial&#45;dependence&#45;plots -->
<g id="edge13" class="edge">
<title>http://purl.org/dj/kaggle/partial&#45;dependence&#45;plots#40173786&#45;&gt;http://purl.org/dj/kaggle/partial&#45;dependence&#45;plots</title>
<path fill="none" stroke="black" d="M1348.43,-92.32C1360.68,-90.42 1373.32,-88.57 1385.24,-87 1527.87,-68.27 1563.62,-62.43 1707.24,-54 2142.79,-28.42 3508.84,-21.02 3903.48,-19.39"/>
<polygon fill="black" stroke="black" points="3903.76,-22.89 3913.75,-19.35 3903.74,-15.89 3903.76,-22.89"/>
<text text-anchor="middle" x="1730.74" y="-57.8" font-family="Times,serif" font-size="14.00">previous</text>
</g>
<!-- http://purl.org/dj/kaggle/partial&#45;dependence&#45;plots#48824571&#45;&gt;http://purl.org/dj/kaggle/partial&#45;dependence&#45;plots -->
<g id="edge14" class="edge">
<title>http://purl.org/dj/kaggle/partial&#45;dependence&#45;plots#48824571&#45;&gt;http://purl.org/dj/kaggle/partial&#45;dependence&#45;plots</title>
<path fill="none" stroke="black" d="M1556.25,-92.21C1568.53,-90.29 1581.25,-88.45 1593.24,-87 1776.48,-64.76 1822.87,-62.95 2007.24,-54 2731.06,-18.86 3603.46,-17.73 3903.67,-18.53"/>
<polygon fill="black" stroke="black" points="3903.67,-22.03 3913.67,-18.56 3903.68,-15.03 3903.67,-22.03"/>
<text text-anchor="middle" x="2030.74" y="-57.8" font-family="Times,serif" font-size="14.00">previous</text>
</g>
<!-- http://purl.org/dj/kaggle/partial&#45;dependence&#45;plots#577111084 -->
<g id="node12" class="node">
<title>http://purl.org/dj/kaggle/partial&#45;dependence&#45;plots#577111084</title>
<ellipse fill="none" stroke="black" cx="1654.24" cy="-213" rx="151.37" ry="18"/>
<text text-anchor="middle" x="1654.24" y="-209.3" font-family="Times,serif" font-size="14.00">577111084 (my_model(0)$0: Analysis)</text>
</g>
<!-- http://purl.org/dj/kaggle/partial&#45;dependence&#45;plots#577111084&#45;&gt;http://purl.org/dj/kaggle/partial&#45;dependence&#45;plots#40173786 -->
<g id="edge15" class="edge">
<title>http://purl.org/dj/kaggle/partial&#45;dependence&#45;plots#577111084&#45;&gt;http://purl.org/dj/kaggle/partial&#45;dependence&#45;plots#40173786</title>
<path fill="none" stroke="black" d="M1590.27,-196.59C1572.97,-191.39 1554.53,-184.86 1538.24,-177 1512.92,-164.79 1512.27,-151.6 1486.24,-141 1483.16,-139.75 1416.27,-128.54 1359.36,-119.14"/>
<polygon fill="black" stroke="black" points="1359.67,-115.65 1349.23,-117.47 1358.53,-122.55 1359.67,-115.65"/>
<text text-anchor="middle" x="1561.74" y="-155.3" font-family="Times,serif" font-size="14.00">previous</text>
</g>
<!-- http://purl.org/dj/kaggle/partial&#45;dependence&#45;plots#577111084&#45;&gt;http://purl.org/dj/kaggle/partial&#45;dependence&#45;plots#48824571 -->
<g id="edge16" class="edge">
<title>http://purl.org/dj/kaggle/partial&#45;dependence&#45;plots#577111084&#45;&gt;http://purl.org/dj/kaggle/partial&#45;dependence&#45;plots#48824571</title>
<path fill="none" stroke="black" d="M1642.42,-194.84C1630.62,-178.88 1611.14,-155.45 1589.24,-141 1578.35,-133.82 1565.82,-127.93 1553.39,-123.17"/>
<polygon fill="black" stroke="black" points="1554.53,-119.86 1543.93,-119.74 1552.15,-126.44 1554.53,-119.86"/>
<text text-anchor="middle" x="1651.74" y="-155.3" font-family="Times,serif" font-size="14.00">previous</text>
</g>
<!-- http://purl.org/dj/kaggle/partial&#45;dependence&#45;plots#440271832 -->
<g id="node13" class="node">
<title>http://purl.org/dj/kaggle/partial&#45;dependence&#45;plots#440271832</title>
<ellipse fill="none" stroke="black" cx="1736.24" cy="-105" rx="133.78" ry="18"/>
<text text-anchor="middle" x="1736.24" y="-101.3" font-family="Times,serif" font-size="14.00">440271832 (my_model(0): Reuse)</text>
</g>
<!-- http://purl.org/dj/kaggle/partial&#45;dependence&#45;plots#577111084&#45;&gt;http://purl.org/dj/kaggle/partial&#45;dependence&#45;plots#440271832 -->
<g id="edge17" class="edge">
<title>http://purl.org/dj/kaggle/partial&#45;dependence&#45;plots#577111084&#45;&gt;http://purl.org/dj/kaggle/partial&#45;dependence&#45;plots#440271832</title>
<path fill="none" stroke="black" d="M1667.41,-194.97C1680.8,-177.66 1701.69,-150.66 1716.94,-130.94"/>
<polygon fill="black" stroke="black" points="1719.74,-133.04 1723.09,-122.99 1714.21,-128.76 1719.74,-133.04"/>
<text text-anchor="middle" x="1731.74" y="-155.3" font-family="Times,serif" font-size="14.00">previous</text>
</g>
<!-- http://purl.org/dj/kaggle/partial&#45;dependence&#45;plots#440271832&#45;&gt;http://purl.org/dj/kaggle/partial&#45;dependence&#45;plots -->
<g id="edge18" class="edge">
<title>http://purl.org/dj/kaggle/partial&#45;dependence&#45;plots#440271832&#45;&gt;http://purl.org/dj/kaggle/partial&#45;dependence&#45;plots</title>
<path fill="none" stroke="black" d="M1830.23,-92.15C1930.77,-80.05 2094.98,-61.95 2237.24,-54 2868.03,-18.75 3626.7,-17.52 3903.51,-18.42"/>
<polygon fill="black" stroke="black" points="3903.54,-21.92 3913.55,-18.45 3903.56,-14.92 3903.54,-21.92"/>
<text text-anchor="middle" x="2260.74" y="-57.8" font-family="Times,serif" font-size="14.00">previous</text>
</g>
<!-- http://purl.org/dj/kaggle/partial&#45;dependence&#45;plots#45809891 -->
<g id="node14" class="node">
<title>http://purl.org/dj/kaggle/partial&#45;dependence&#45;plots#45809891</title>
<ellipse fill="none" stroke="black" cx="1987.24" cy="-105" rx="99.38" ry="18"/>
<text text-anchor="middle" x="1987.24" y="-101.3" font-family="Times,serif" font-size="14.00">45809891 (10(0): Reuse)</text>
</g>
<!-- http://purl.org/dj/kaggle/partial&#45;dependence&#45;plots#45809891&#45;&gt;http://purl.org/dj/kaggle/partial&#45;dependence&#45;plots -->
<g id="edge19" class="edge">
<title>http://purl.org/dj/kaggle/partial&#45;dependence&#45;plots#45809891&#45;&gt;http://purl.org/dj/kaggle/partial&#45;dependence&#45;plots</title>
<path fill="none" stroke="black" d="M2056.83,-92.12C2069.58,-90.21 2082.79,-88.4 2095.24,-87 2309.49,-62.88 2363.86,-63.97 2579.24,-54 3073.94,-31.1 3665.51,-22.65 3903.9,-20.02"/>
<polygon fill="black" stroke="black" points="3903.99,-23.52 3913.95,-19.91 3903.91,-16.52 3903.99,-23.52"/>
<text text-anchor="middle" x="2602.74" y="-57.8" font-family="Times,serif" font-size="14.00">previous</text>
</g>
<!-- http://purl.org/dj/kaggle/partial&#45;dependence&#45;plots#2579696159&#45;&gt;http://purl.org/dj/kaggle/partial&#45;dependence&#45;plots -->
<g id="edge23" class="edge">
<title>http://purl.org/dj/kaggle/partial&#45;dependence&#45;plots#2579696159&#45;&gt;http://purl.org/dj/kaggle/partial&#45;dependence&#45;plots</title>
<path fill="none" stroke="black" d="M2401.65,-91.07C2509.89,-79.45 2676.33,-62.89 2821.24,-54 3220.08,-29.52 3695.21,-22.05 3903.92,-19.86"/>
<polygon fill="black" stroke="black" points="3904,-23.36 3913.96,-19.76 3903.93,-16.36 3904,-23.36"/>
<text text-anchor="middle" x="2844.74" y="-57.8" font-family="Times,serif" font-size="14.00">previous</text>
</g>
<!-- http://purl.org/dj/python/lib/144966264&#45;&gt;http://purl.org/dj/kaggle/partial&#45;dependence&#45;plots -->
<g id="edge24" class="edge">
<title>http://purl.org/dj/python/lib/144966264&#45;&gt;http://purl.org/dj/kaggle/partial&#45;dependence&#45;plots</title>
<path fill="none" stroke="black" d="M2673.26,-92.34C2686.91,-90.44 2700.97,-88.59 2714.24,-87 2865.42,-68.9 2903.31,-64.12 3055.24,-54 3363.08,-33.49 3727.56,-24.31 3904.37,-20.83"/>
<polygon fill="black" stroke="black" points="3904.52,-24.32 3914.45,-20.63 3904.39,-17.32 3904.52,-24.32"/>
<text text-anchor="middle" x="3078.74" y="-57.8" font-family="Times,serif" font-size="14.00">previous</text>
</g>
<!-- http://purl.org/dj/kaggle/partial&#45;dependence&#45;plots#80085334&#45;&gt;http://purl.org/dj/kaggle/partial&#45;dependence&#45;plots -->
<g id="edge25" class="edge">
<title>http://purl.org/dj/kaggle/partial&#45;dependence&#45;plots#80085334&#45;&gt;http://purl.org/dj/kaggle/partial&#45;dependence&#45;plots</title>
<path fill="none" stroke="black" d="M2893.03,-92.29C2905.42,-90.41 2918.19,-88.56 2930.24,-87 3285.2,-40.97 3709.93,-25.79 3904.44,-21.04"/>
<polygon fill="black" stroke="black" points="3904.75,-24.53 3914.66,-20.79 3904.58,-17.54 3904.75,-24.53"/>
<text text-anchor="middle" x="3248.74" y="-57.8" font-family="Times,serif" font-size="14.00">previous</text>
</g>
<!-- http://purl.org/dj/kaggle/partial&#45;dependence&#45;plots#31785146 -->
<g id="node18" class="node">
<title>http://purl.org/dj/kaggle/partial&#45;dependence&#45;plots#31785146</title>
<ellipse fill="none" stroke="black" cx="3034.24" cy="-105" rx="94.78" ry="18"/>
<text text-anchor="middle" x="3034.24" y="-101.3" font-family="Times,serif" font-size="14.00">31785146 (8(0): Reuse)</text>
</g>
<!-- http://purl.org/dj/kaggle/partial&#45;dependence&#45;plots#31785146&#45;&gt;http://purl.org/dj/kaggle/partial&#45;dependence&#45;plots -->
<g id="edge26" class="edge">
<title>http://purl.org/dj/kaggle/partial&#45;dependence&#45;plots#31785146&#45;&gt;http://purl.org/dj/kaggle/partial&#45;dependence&#45;plots</title>
<path fill="none" stroke="black" d="M3101.25,-92.19C3113.53,-90.27 3126.25,-88.44 3138.24,-87 3415.8,-53.57 3745.08,-33.08 3908.55,-24.19"/>
<polygon fill="black" stroke="black" points="3908.8,-27.68 3918.6,-23.64 3908.42,-20.69 3908.8,-27.68"/>
<text text-anchor="middle" x="3472.74" y="-57.8" font-family="Times,serif" font-size="14.00">previous</text>
</g>
<!-- http://purl.org/dj/kaggle/partial&#45;dependence&#45;plots#2209621749 -->
<g id="node19" class="node">
<title>http://purl.org/dj/kaggle/partial&#45;dependence&#45;plots#2209621749</title>
<ellipse fill="none" stroke="black" cx="3676.24" cy="-105" rx="529.11" ry="18"/>
<text text-anchor="middle" x="3676.24" y="-101.3" font-family="Times,serif" font-size="14.00">2209621749 ([&lt;_ast.Constant object at 0x12f8f5ac0&gt;, &lt;_ast.Constant object at 0x12f8f57c0&gt;, &lt;_ast.Constant object at 0x12f8f5f40&gt;](0): Reuse)</text>
</g>
<!-- http://purl.org/dj/kaggle/partial&#45;dependence&#45;plots#2209621749&#45;&gt;http://purl.org/dj/kaggle/partial&#45;dependence&#45;plots -->
<g id="edge27" class="edge">
<title>http://purl.org/dj/kaggle/partial&#45;dependence&#45;plots#2209621749&#45;&gt;http://purl.org/dj/kaggle/partial&#45;dependence&#45;plots</title>
<path fill="none" stroke="black" d="M3742.82,-87.11C3801.99,-72.09 3887.93,-50.29 3946.52,-35.42"/>
<polygon fill="black" stroke="black" points="3947.57,-38.76 3956.4,-32.91 3945.85,-31.98 3947.57,-38.76"/>
<text text-anchor="middle" x="3886.74" y="-57.8" font-family="Times,serif" font-size="14.00">previous</text>
</g>
<!-- http://purl.org/dj/kaggle/partial&#45;dependence&#45;plots#350618472 -->
<g id="node20" class="node">
<title>http://purl.org/dj/kaggle/partial&#45;dependence&#45;plots#350618472</title>
<ellipse fill="none" stroke="black" cx="4347.24" cy="-105" rx="123.48" ry="18"/>
<text text-anchor="middle" x="4347.24" y="-101.3" font-family="Times,serif" font-size="14.00">350618472 (Imputer(0): Reuse)</text>
</g>
<!-- http://purl.org/dj/kaggle/partial&#45;dependence&#45;plots#350618472&#45;&gt;http://purl.org/dj/kaggle/partial&#45;dependence&#45;plots -->
<g id="edge28" class="edge">
<title>http://purl.org/dj/kaggle/partial&#45;dependence&#45;plots#350618472&#45;&gt;http://purl.org/dj/kaggle/partial&#45;dependence&#45;plots</title>
<path fill="none" stroke="black" d="M4288.33,-89.1C4228.96,-74.08 4137.57,-50.96 4076.15,-35.42"/>
<polygon fill="black" stroke="black" points="4076.73,-31.96 4066.18,-32.9 4075.01,-38.74 4076.73,-31.96"/>
<text text-anchor="middle" x="4222.74" y="-57.8" font-family="Times,serif" font-size="14.00">previous</text>
</g>
<!-- http://purl.org/dj/kaggle/partial&#45;dependence&#45;plots#1144063571 -->
<g id="node21" class="node">
<title>http://purl.org/dj/kaggle/partial&#45;dependence&#45;plots#1144063571</title>
<ellipse fill="none" stroke="black" cx="1154.24" cy="-495" rx="151.37" ry="18"/>
<text text-anchor="middle" x="1154.24" y="-491.3" font-family="Times,serif" font-size="14.00">1144063571 (titanic_plots(0)$0: Reuse)</text>
</g>
<!-- http://purl.org/dj/kaggle/partial&#45;dependence&#45;plots#1144063571&#45;&gt;http://purl.org/dj/kaggle/partial&#45;dependence&#45;plots#183697931 -->
<g id="edge29" class="edge">
<title>http://purl.org/dj/kaggle/partial&#45;dependence&#45;plots#1144063571&#45;&gt;http://purl.org/dj/kaggle/partial&#45;dependence&#45;plots#183697931</title>
<path fill="none" stroke="black" d="M1154.24,-476.8C1154.24,-465.16 1154.24,-449.55 1154.24,-436.24"/>
<polygon fill="black" stroke="black" points="1157.74,-436.18 1154.24,-426.18 1150.74,-436.18 1157.74,-436.18"/>
<text text-anchor="middle" x="1177.74" y="-447.8" font-family="Times,serif" font-size="14.00">previous</text>
</g>
<!-- http://purl.org/dj/kaggle/partial&#45;dependence&#45;plots#2701986481 -->
<g id="node22" class="node">
<title>http://purl.org/dj/kaggle/partial&#45;dependence&#45;plots#2701986481</title>
<ellipse fill="none" stroke="black" cx="4685.24" cy="-105" rx="196.87" ry="18"/>
<text text-anchor="middle" x="4685.24" y="-101.3" font-family="Times,serif" font-size="14.00">2701986481 (GradientBoostingRegressor(0): Reuse)</text>
</g>
<!-- http://purl.org/dj/kaggle/partial&#45;dependence&#45;plots#2701986481&#45;&gt;http://purl.org/dj/kaggle/partial&#45;dependence&#45;plots -->
<g id="edge30" class="edge">
<title>http://purl.org/dj/kaggle/partial&#45;dependence&#45;plots#2701986481&#45;&gt;http://purl.org/dj/kaggle/partial&#45;dependence&#45;plots</title>
<path fill="none" stroke="black" d="M4574.69,-90.06C4441.74,-73.29 4221.28,-45.49 4099.27,-30.1"/>
<polygon fill="black" stroke="black" points="4099.57,-26.61 4089.21,-28.83 4098.7,-33.56 4099.57,-26.61"/>
<text text-anchor="middle" x="4411.74" y="-57.8" font-family="Times,serif" font-size="14.00">previous</text>
</g>
<!-- http://purl.org/dj/kaggle/partial&#45;dependence&#45;plots#1785731658 -->
<g id="node23" class="node">
<title>http://purl.org/dj/kaggle/partial&#45;dependence&#45;plots#1785731658</title>
<ellipse fill="none" stroke="black" cx="5287.24" cy="-105" rx="386.93" ry="18"/>
<text text-anchor="middle" x="5287.24" y="-101.3" font-family="Times,serif" font-size="14.00">1785731658 ([&lt;_ast.Constant object at 0x12fc4f2e0&gt;, &lt;_ast.Constant object at 0x12fc4f700&gt;](0): Reuse)</text>
</g>
<!-- http://purl.org/dj/kaggle/partial&#45;dependence&#45;plots#1785731658&#45;&gt;http://purl.org/dj/kaggle/partial&#45;dependence&#45;plots -->
<g id="edge31" class="edge">
<title>http://purl.org/dj/kaggle/partial&#45;dependence&#45;plots#1785731658&#45;&gt;http://purl.org/dj/kaggle/partial&#45;dependence&#45;plots</title>
<path fill="none" stroke="black" d="M5075.82,-89.92C4797.21,-71.36 4318.33,-39.46 4111.35,-25.67"/>
<polygon fill="black" stroke="black" points="4111.32,-22.16 4101.1,-24.99 4110.85,-29.14 4111.32,-22.16"/>
<text text-anchor="middle" x="4748.74" y="-57.8" font-family="Times,serif" font-size="14.00">previous</text>
</g>
<!-- http://purl.org/dj/kaggle/partial&#45;dependence&#45;plots#2422213111 -->
<g id="node24" class="node">
<title>http://purl.org/dj/kaggle/partial&#45;dependence&#45;plots#2422213111</title>
<ellipse fill="none" stroke="black" cx="5878.24" cy="-105" rx="185.77" ry="18"/>
<text text-anchor="middle" x="5878.24" y="-101.3" font-family="Times,serif" font-size="14.00">2422213111 (plot_partial_dependence(0): Reuse)</text>
</g>
<!-- http://purl.org/dj/kaggle/partial&#45;dependence&#45;plots#2422213111&#45;&gt;http://purl.org/dj/kaggle/partial&#45;dependence&#45;plots -->
<g id="edge32" class="edge">
<title>http://purl.org/dj/kaggle/partial&#45;dependence&#45;plots#2422213111&#45;&gt;http://purl.org/dj/kaggle/partial&#45;dependence&#45;plots</title>
<path fill="none" stroke="black" d="M5749.81,-91.95C5727.62,-90.12 5704.77,-88.38 5683.24,-87 5092.43,-49.25 4382.77,-28.51 4117.83,-21.62"/>
<polygon fill="black" stroke="black" points="4117.53,-18.11 4107.45,-21.35 4117.35,-25.11 4117.53,-18.11"/>
<text text-anchor="middle" x="5386.74" y="-57.8" font-family="Times,serif" font-size="14.00">previous</text>
</g>
<!-- http://purl.org/dj/kaggle/partial&#45;dependence&#45;plots#1244273021 -->
<g id="node25" class="node">
<title>http://purl.org/dj/kaggle/partial&#45;dependence&#45;plots#1244273021</title>
<ellipse fill="none" stroke="black" cx="6475.24" cy="-105" rx="393.43" ry="18"/>
<text text-anchor="middle" x="6475.24" y="-101.3" font-family="Times,serif" font-size="14.00">1244273021 ([&lt;_ast.Constant object at 0x130532c70&gt;, &lt;_ast.Constant object at 0x130532dc0&gt;](0): Reuse)</text>
</g>
<!-- http://purl.org/dj/kaggle/partial&#45;dependence&#45;plots#1244273021&#45;&gt;http://purl.org/dj/kaggle/partial&#45;dependence&#45;plots -->
<g id="edge33" class="edge">
<title>http://purl.org/dj/kaggle/partial&#45;dependence&#45;plots#1244273021&#45;&gt;http://purl.org/dj/kaggle/partial&#45;dependence&#45;plots</title>
<path fill="none" stroke="black" d="M6230.08,-90.9C6015.08,-79.79 5694.01,-64.08 5414.24,-54 4930.48,-36.57 4352.59,-25.11 4118.02,-20.86"/>
<polygon fill="black" stroke="black" points="4117.85,-17.35 4107.79,-20.67 4117.72,-24.35 4117.85,-17.35"/>
<text text-anchor="middle" x="5787.74" y="-57.8" font-family="Times,serif" font-size="14.00">previous</text>
</g>
<!-- http://purl.org/dj/kaggle/partial&#45;dependence&#45;plots#592774222 -->
<g id="node26" class="node">
<title>http://purl.org/dj/kaggle/partial&#45;dependence&#45;plots#592774222</title>
<ellipse fill="none" stroke="black" cx="1348.24" cy="-321" rx="137.28" ry="18"/>
<text text-anchor="middle" x="1348.24" y="-317.3" font-family="Times,serif" font-size="14.00">592774222 (my_plots(0)$1: Reuse)</text>
</g>
<!-- http://purl.org/dj/kaggle/partial&#45;dependence&#45;plots#592774222&#45;&gt;http://purl.org/dj/kaggle/partial&#45;dependence&#45;plots#577176621 -->
<g id="edge34" class="edge">
<title>http://purl.org/dj/kaggle/partial&#45;dependence&#45;plots#592774222&#45;&gt;http://purl.org/dj/kaggle/partial&#45;dependence&#45;plots#577176621</title>
<path fill="none" stroke="black" d="M1345.83,-302.97C1343.48,-286.38 1339.87,-260.88 1337.12,-241.43"/>
<polygon fill="black" stroke="black" points="1340.56,-240.75 1335.69,-231.34 1333.63,-241.73 1340.56,-240.75"/>
<text text-anchor="middle" x="1366.74" y="-263.3" font-family="Times,serif" font-size="14.00">previous</text>
</g>
<!-- http://purl.org/dj/kaggle/partial&#45;dependence&#45;plots#592774222&#45;&gt;http://purl.org/dj/kaggle/partial&#45;dependence&#45;plots#577111084 -->
<g id="edge35" class="edge">
<title>http://purl.org/dj/kaggle/partial&#45;dependence&#45;plots#592774222&#45;&gt;http://purl.org/dj/kaggle/partial&#45;dependence&#45;plots#577111084</title>
<path fill="none" stroke="black" d="M1394.38,-304.02C1448.86,-285.14 1539.46,-253.76 1598,-233.48"/>
<polygon fill="black" stroke="black" points="1599.16,-236.78 1607.47,-230.2 1596.87,-230.17 1599.16,-236.78"/>
<text text-anchor="middle" x="1570.74" y="-263.3" font-family="Times,serif" font-size="14.00">previous</text>
</g>
<!-- http://purl.org/dj/kaggle/partial&#45;dependence&#45;plots#1567688665 -->
<g id="node27" class="node">
<title>http://purl.org/dj/kaggle/partial&#45;dependence&#45;plots#1567688665</title>
<ellipse fill="none" stroke="black" cx="7054.24" cy="-105" rx="167.87" ry="18"/>
<text text-anchor="middle" x="7054.24" y="-101.3" font-family="Times,serif" font-size="14.00">1567688665 (partial_dependence(0): Reuse)</text>
</g>
<!-- http://purl.org/dj/kaggle/partial&#45;dependence&#45;plots#1567688665&#45;&gt;http://purl.org/dj/kaggle/partial&#45;dependence&#45;plots -->
<g id="edge36" class="edge">
<title>http://purl.org/dj/kaggle/partial&#45;dependence&#45;plots#1567688665&#45;&gt;http://purl.org/dj/kaggle/partial&#45;dependence&#45;plots</title>
<path fill="none" stroke="black" d="M6939.12,-91.85C6918.53,-89.99 6897.26,-88.27 6877.24,-87 5802.65,-18.77 4497.5,-17.3 4118.91,-18.48"/>
<polygon fill="black" stroke="black" points="4118.77,-14.98 4108.79,-18.51 4118.8,-21.98 4118.77,-14.98"/>
<text text-anchor="middle" x="6510.74" y="-57.8" font-family="Times,serif" font-size="14.00">previous</text>
</g>
<!-- http://purl.org/dj/kaggle/partial&#45;dependence&#45;plots#1501239798 -->
<g id="node28" class="node">
<title>http://purl.org/dj/kaggle/partial&#45;dependence&#45;plots#1501239798</title>
<ellipse fill="none" stroke="black" cx="7628.24" cy="-105" rx="388.03" ry="18"/>
<text text-anchor="middle" x="7628.24" y="-101.3" font-family="Times,serif" font-size="14.00">1501239798 ([&lt;_ast.Constant object at 0x12f8f5340&gt;, &lt;_ast.Constant object at 0x12f8f53d0&gt;](0): Reuse)</text>
</g>
<!-- http://purl.org/dj/kaggle/partial&#45;dependence&#45;plots#1501239798&#45;&gt;http://purl.org/dj/kaggle/partial&#45;dependence&#45;plots -->
<g id="edge37" class="edge">
<title>http://purl.org/dj/kaggle/partial&#45;dependence&#45;plots#1501239798&#45;&gt;http://purl.org/dj/kaggle/partial&#45;dependence&#45;plots</title>
<path fill="none" stroke="black" d="M7388.83,-90.81C7168.05,-79.18 6831.14,-62.74 6538.24,-54 5601.01,-26.02 4467.57,-20.36 4118.63,-19.26"/>
<polygon fill="black" stroke="black" points="4118.54,-15.76 4108.53,-19.23 4118.52,-22.76 4118.54,-15.76"/>
<text text-anchor="middle" x="6950.74" y="-57.8" font-family="Times,serif" font-size="14.00">previous</text>
</g>
<!-- http://purl.org/dj/kaggle/partial&#45;dependence&#45;plots#592708685 -->
<g id="node29" class="node">
<title>http://purl.org/dj/kaggle/partial&#45;dependence&#45;plots#592708685</title>
<ellipse fill="none" stroke="black" cx="1654.24" cy="-321" rx="137.28" ry="18"/>
<text text-anchor="middle" x="1654.24" y="-317.3" font-family="Times,serif" font-size="14.00">592708685 (my_plots(0)$0: Reuse)</text>
</g>
<!-- http://purl.org/dj/kaggle/partial&#45;dependence&#45;plots#592708685&#45;&gt;http://purl.org/dj/kaggle/partial&#45;dependence&#45;plots#577111084 -->
<g id="edge38" class="edge">
<title>http://purl.org/dj/kaggle/partial&#45;dependence&#45;plots#592708685&#45;&gt;http://purl.org/dj/kaggle/partial&#45;dependence&#45;plots#577111084</title>
<path fill="none" stroke="black" d="M1654.24,-302.97C1654.24,-286.38 1654.24,-260.88 1654.24,-241.43"/>
<polygon fill="black" stroke="black" points="1657.74,-241.34 1654.24,-231.34 1650.74,-241.34 1657.74,-241.34"/>
<text text-anchor="middle" x="1677.74" y="-263.3" font-family="Times,serif" font-size="14.00">previous</text>
</g>
<!-- http://purl.org/dj/kaggle/partial&#45;dependence&#45;plots#2882276090 -->
<g id="node30" class="node">
<title>http://purl.org/dj/kaggle/partial&#45;dependence&#45;plots#2882276090</title>
<ellipse fill="none" stroke="black" cx="8229.24" cy="-105" rx="194.97" ry="18"/>
<text text-anchor="middle" x="8229.24" y="-101.3" font-family="Times,serif" font-size="14.00">2882276090 (GradientBoostingClassifier(0): Reuse)</text>
</g>
<!-- http://purl.org/dj/kaggle/partial&#45;dependence&#45;plots#2882276090&#45;&gt;http://purl.org/dj/kaggle/partial&#45;dependence&#45;plots -->
<g id="edge39" class="edge">
<title>http://purl.org/dj/kaggle/partial&#45;dependence&#45;plots#2882276090&#45;&gt;http://purl.org/dj/kaggle/partial&#45;dependence&#45;plots</title>
<path fill="none" stroke="black" d="M8095.7,-91.88C8072.24,-90.03 8048.03,-88.31 8025.24,-87 7560.44,-60.33 7443.69,-64.08 6978.24,-54 5860.26,-29.79 4504.93,-21.47 4118.62,-19.5"/>
<polygon fill="black" stroke="black" points="4118.59,-16 4108.57,-19.45 4118.56,-23 4118.59,-16"/>
<text text-anchor="middle" x="7667.74" y="-57.8" font-family="Times,serif" font-size="14.00">previous</text>
</g>
<!-- http://purl.org/dj/python/lib/1582958755 -->
<g id="node31" class="node">
<title>http://purl.org/dj/python/lib/1582958755</title>
<ellipse fill="none" stroke="black" cx="8608.24" cy="-105" rx="165.97" ry="18"/>
<text text-anchor="middle" x="8608.24" y="-101.3" font-family="Times,serif" font-size="14.00">1582958755 (sklearn.preprocessing: Reuse)</text>
</g>
<!-- http://purl.org/dj/python/lib/1582958755&#45;&gt;http://purl.org/dj/kaggle/partial&#45;dependence&#45;plots -->
<g id="edge40" class="edge">
<title>http://purl.org/dj/python/lib/1582958755&#45;&gt;http://purl.org/dj/kaggle/partial&#45;dependence&#45;plots</title>
<path fill="none" stroke="black" d="M8493.46,-91.99C8473.4,-90.13 8452.72,-88.38 8433.24,-87 8105.73,-63.79 8023.44,-62.89 7695.24,-54 6281.36,-15.68 4561.26,-17.45 4118.95,-18.64"/>
<polygon fill="black" stroke="black" points="4118.73,-15.14 4108.74,-18.67 4118.75,-22.14 4118.73,-15.14"/>
<text text-anchor="middle" x="8161.74" y="-57.8" font-family="Times,serif" font-size="14.00">previous</text>
</g>
<!-- http://purl.org/dj/kaggle/partial&#45;dependence&#45;plots#2157061895 -->
<g id="node32" class="node">
<title>http://purl.org/dj/kaggle/partial&#45;dependence&#45;plots#2157061895</title>
<ellipse fill="none" stroke="black" cx="9325.24" cy="-105" rx="533.71" ry="18"/>
<text text-anchor="middle" x="9325.24" y="-101.3" font-family="Times,serif" font-size="14.00">2157061895 ([&lt;_ast.Constant object at 0x12f8ab1f0&gt;, &lt;_ast.Constant object at 0x12f8ab100&gt;, &lt;_ast.Constant object at 0x12f8ab8b0&gt;](0): Reuse)</text>
</g>
<!-- http://purl.org/dj/kaggle/partial&#45;dependence&#45;plots#2157061895&#45;&gt;http://purl.org/dj/kaggle/partial&#45;dependence&#45;plots -->
<g id="edge41" class="edge">
<title>http://purl.org/dj/kaggle/partial&#45;dependence&#45;plots#2157061895&#45;&gt;http://purl.org/dj/kaggle/partial&#45;dependence&#45;plots</title>
<path fill="none" stroke="black" d="M9055.92,-89.44C8825.8,-77.65 8485.87,-61.77 8189.24,-54 7361.78,-32.33 4689.13,-21.48 4118.9,-19.38"/>
<polygon fill="black" stroke="black" points="4118.64,-15.88 4108.63,-19.34 4118.62,-22.88 4118.64,-15.88"/>
<text text-anchor="middle" x="8618.74" y="-57.8" font-family="Times,serif" font-size="14.00">previous</text>
</g>
<!-- http://purl.org/dj/python/lib/919996010 -->
<g id="node33" class="node">
<title>http://purl.org/dj/python/lib/919996010</title>
<ellipse fill="none" stroke="black" cx="10023.24" cy="-105" rx="146.47" ry="18"/>
<text text-anchor="middle" x="10023.24" y="-101.3" font-family="Times,serif" font-size="14.00">919996010 (sklearn.ensemble: Reuse)</text>
</g>
<!-- http://purl.org/dj/python/lib/919996010&#45;&gt;http://purl.org/dj/kaggle/partial&#45;dependence&#45;plots -->
<g id="edge42" class="edge">
<title>http://purl.org/dj/python/lib/919996010&#45;&gt;http://purl.org/dj/kaggle/partial&#45;dependence&#45;plots</title>
<path fill="none" stroke="black" d="M9923.29,-91.82C9905,-89.94 9886.06,-88.22 9868.24,-87 9326.19,-50.02 9189.46,-63.39 8646.24,-54 6835.8,-22.72 4627.1,-19.39 4118.94,-19.04"/>
<polygon fill="black" stroke="black" points="4118.69,-15.54 4108.69,-19.03 4118.69,-22.54 4118.69,-15.54"/>
<text text-anchor="middle" x="9559.74" y="-57.8" font-family="Times,serif" font-size="14.00">previous</text>
</g>
<!-- http://purl.org/dj/python/lib/4201909743 -->
<g id="node34" class="node">
<title>http://purl.org/dj/python/lib/4201909743</title>
<ellipse fill="none" stroke="black" cx="10409.24" cy="-105" rx="221.76" ry="18"/>
<text text-anchor="middle" x="10409.24" y="-101.3" font-family="Times,serif" font-size="14.00">4201909743 (sklearn.ensemble.partial_dependence: Reuse)</text>
</g>
<!-- http://purl.org/dj/python/lib/4201909743&#45;&gt;http://purl.org/dj/kaggle/partial&#45;dependence&#45;plots -->
<g id="edge43" class="edge">
<title>http://purl.org/dj/python/lib/4201909743&#45;&gt;http://purl.org/dj/kaggle/partial&#45;dependence&#45;plots</title>
<path fill="none" stroke="black" d="M10255.97,-91.95C10090.96,-79.61 9820.7,-61.25 9587.24,-54 8464.55,-19.15 4795.56,-18.72 4119,-18.95"/>
<polygon fill="black" stroke="black" points="4118.78,-15.45 4108.78,-18.95 4118.78,-22.45 4118.78,-15.45"/>
<text text-anchor="middle" x="9926.74" y="-57.8" font-family="Times,serif" font-size="14.00">previous</text>
</g>
</g>
</svg>
