<?xml version="1.0" encoding="UTF-8" standalone="no"?>
<!DOCTYPE svg PUBLIC "-//W3C//DTD SVG 1.1//EN"
 "http://www.w3.org/Graphics/SVG/1.1/DTD/svg11.dtd">
<!-- Generated by graphviz version 2.44.1 (20200629.0846)
 -->
<!-- Pages: 1 -->
<svg width="3967pt" height="452pt"
 viewBox="0.00 0.00 3967.23 451.74" xmlns="http://www.w3.org/2000/svg" xmlns:xlink="http://www.w3.org/1999/xlink">
<g id="graph0" class="graph" transform="scale(1 1) rotate(0) translate(4 447.74)">
<polygon fill="white" stroke="transparent" points="-4,4 -4,-447.74 3963.23,-447.74 3963.23,4 -4,4"/>
<!-- http://purl.org/dj/kaggle/patterns&#45;of&#45;missing&#45;data#441523510 -->
<g id="node1" class="node">
<title>http://purl.org/dj/kaggle/patterns&#45;of&#45;missing&#45;data#441523510</title>
<ellipse fill="none" stroke="black" cx="3741.44" cy="-113.87" rx="217.58" ry="26.74"/>
<text text-anchor="middle" x="3741.44" y="-117.67" font-family="Times,serif" font-size="14.00">441523510 (default ratio for more complete: {:.1%} </text>
<text text-anchor="middle" x="3741.44" y="-102.67" font-family="Times,serif" font-size="14.00">default ratio for less complete: {:.1%}(0): Reuse)</text>
</g>
<!-- http://purl.org/dj/kaggle/patterns&#45;of&#45;missing&#45;data -->
<g id="node2" class="node">
<title>http://purl.org/dj/kaggle/patterns&#45;of&#45;missing&#45;data</title>
<ellipse fill="none" stroke="black" cx="1770.44" cy="-18" rx="96.68" ry="18"/>
<text text-anchor="middle" x="1770.44" y="-14.3" font-family="Times,serif" font-size="14.00">patterns&#45;of&#45;missing&#45;data</text>
</g>
<!-- http://purl.org/dj/kaggle/patterns&#45;of&#45;missing&#45;data#441523510&#45;&gt;http://purl.org/dj/kaggle/patterns&#45;of&#45;missing&#45;data -->
<g id="edge1" class="edge">
<title>http://purl.org/dj/kaggle/patterns&#45;of&#45;missing&#45;data#441523510&#45;&gt;http://purl.org/dj/kaggle/patterns&#45;of&#45;missing&#45;data</title>
<path fill="none" stroke="black" d="M3587.41,-94.83C3462.53,-81.01 3281.9,-62.87 3123.44,-54 2660.17,-28.07 2106.58,-21.32 1877.64,-19.59"/>
<polygon fill="black" stroke="black" points="1877.34,-16.08 1867.32,-19.51 1877.29,-23.08 1877.34,-16.08"/>
<text text-anchor="middle" x="3351.94" y="-57.8" font-family="Times,serif" font-size="14.00">previous</text>
</g>
<!-- http://purl.org/dj/kaggle/patterns&#45;of&#45;missing&#45;data#327877365 -->
<g id="node3" class="node">
<title>http://purl.org/dj/kaggle/patterns&#45;of&#45;missing&#45;data#327877365</title>
<ellipse fill="none" stroke="black" cx="1963.44" cy="-425.74" rx="144.87" ry="18"/>
<text text-anchor="middle" x="1963.44" y="-422.04" font-family="Times,serif" font-size="14.00">327877365 (train(0)$1: Visualisation)</text>
</g>
<!-- http://purl.org/dj/kaggle/patterns&#45;of&#45;missing&#45;data#327811828 -->
<g id="node4" class="node">
<title>http://purl.org/dj/kaggle/patterns&#45;of&#45;missing&#45;data#327811828</title>
<ellipse fill="none" stroke="black" cx="1033.44" cy="-338.74" rx="137.58" ry="18"/>
<text text-anchor="middle" x="1033.44" y="-335.04" font-family="Times,serif" font-size="14.00">327811828 (train(0)$0: Movement)</text>
</g>
<!-- http://purl.org/dj/kaggle/patterns&#45;of&#45;missing&#45;data#327877365&#45;&gt;http://purl.org/dj/kaggle/patterns&#45;of&#45;missing&#45;data#327811828 -->
<g id="edge2" class="edge">
<title>http://purl.org/dj/kaggle/patterns&#45;of&#45;missing&#45;data#327877365&#45;&gt;http://purl.org/dj/kaggle/patterns&#45;of&#45;missing&#45;data#327811828</title>
<path fill="none" stroke="black" d="M1870.37,-411.93C1787.37,-400.86 1662.49,-385.05 1553.44,-374.74 1422.98,-362.4 1273.7,-352.82 1168.65,-346.83"/>
<polygon fill="black" stroke="black" points="1168.81,-343.33 1158.63,-346.26 1168.41,-350.32 1168.81,-343.33"/>
<text text-anchor="middle" x="1712.94" y="-378.54" font-family="Times,serif" font-size="14.00">previous</text>
</g>
<!-- http://purl.org/dj/kaggle/patterns&#45;of&#45;missing&#45;data#29950131 -->
<g id="node5" class="node">
<title>http://purl.org/dj/kaggle/patterns&#45;of&#45;missing&#45;data#29950131</title>
<ellipse fill="none" stroke="black" cx="1856.44" cy="-113.87" rx="94.78" ry="18"/>
<text text-anchor="middle" x="1856.44" y="-110.17" font-family="Times,serif" font-size="14.00">29950131 (1(0): Reuse)</text>
</g>
<!-- http://purl.org/dj/kaggle/patterns&#45;of&#45;missing&#45;data#327877365&#45;&gt;http://purl.org/dj/kaggle/patterns&#45;of&#45;missing&#45;data#29950131 -->
<g id="edge3" class="edge">
<title>http://purl.org/dj/kaggle/patterns&#45;of&#45;missing&#45;data#327877365&#45;&gt;http://purl.org/dj/kaggle/patterns&#45;of&#45;missing&#45;data#29950131</title>
<path fill="none" stroke="black" d="M1979.16,-407.82C2011.78,-370.59 2080.57,-279.54 2040.44,-212.74 2025.24,-187.44 1954.7,-154.65 1905.52,-134.18"/>
<polygon fill="black" stroke="black" points="1906.57,-130.83 1895.99,-130.26 1903.91,-137.3 1906.57,-130.83"/>
<text text-anchor="middle" x="2075.94" y="-281.04" font-family="Times,serif" font-size="14.00">previous</text>
</g>
<!-- http://purl.org/dj/kaggle/patterns&#45;of&#45;missing&#45;data#80085334 -->
<g id="node6" class="node">
<title>http://purl.org/dj/kaggle/patterns&#45;of&#45;missing&#45;data#80085334</title>
<ellipse fill="none" stroke="black" cx="535.44" cy="-230.74" rx="124.28" ry="18"/>
<text text-anchor="middle" x="535.44" y="-227.04" font-family="Times,serif" font-size="14.00">80085334 (pd(0): Visualisation)</text>
</g>
<!-- http://purl.org/dj/kaggle/patterns&#45;of&#45;missing&#45;data#327811828&#45;&gt;http://purl.org/dj/kaggle/patterns&#45;of&#45;missing&#45;data#80085334 -->
<g id="edge4" class="edge">
<title>http://purl.org/dj/kaggle/patterns&#45;of&#45;missing&#45;data#327811828&#45;&gt;http://purl.org/dj/kaggle/patterns&#45;of&#45;missing&#45;data#80085334</title>
<path fill="none" stroke="black" d="M974.65,-322.39C915.29,-307.17 820.86,-283.74 738.44,-266.74 701.94,-259.21 661.52,-252.01 626.41,-246.12"/>
<polygon fill="black" stroke="black" points="626.62,-242.61 616.18,-244.41 625.47,-249.51 626.62,-242.61"/>
<text text-anchor="middle" x="915.94" y="-281.04" font-family="Times,serif" font-size="14.00">previous</text>
</g>
<!-- http://purl.org/dj/kaggle/patterns&#45;of&#45;missing&#45;data#3435531255 -->
<g id="node7" class="node">
<title>http://purl.org/dj/kaggle/patterns&#45;of&#45;missing&#45;data#3435531255</title>
<ellipse fill="none" stroke="black" cx="1033.44" cy="-176.74" rx="200.66" ry="18"/>
<text text-anchor="middle" x="1033.44" y="-173.04" font-family="Times,serif" font-size="14.00">3435531255 (../input/application_train.csv(0): Reuse)</text>
</g>
<!-- http://purl.org/dj/kaggle/patterns&#45;of&#45;missing&#45;data#327811828&#45;&gt;http://purl.org/dj/kaggle/patterns&#45;of&#45;missing&#45;data#3435531255 -->
<g id="edge5" class="edge">
<title>http://purl.org/dj/kaggle/patterns&#45;of&#45;missing&#45;data#327811828&#45;&gt;http://purl.org/dj/kaggle/patterns&#45;of&#45;missing&#45;data#3435531255</title>
<path fill="none" stroke="black" d="M1033.44,-320.62C1033.44,-293.09 1033.44,-238.75 1033.44,-205.59"/>
<polygon fill="black" stroke="black" points="1036.94,-205.22 1033.44,-195.22 1029.94,-205.22 1036.94,-205.22"/>
<text text-anchor="middle" x="1056.94" y="-281.04" font-family="Times,serif" font-size="14.00">previous</text>
</g>
<!-- http://purl.org/dj/kaggle/patterns&#45;of&#45;missing&#45;data#29950131&#45;&gt;http://purl.org/dj/kaggle/patterns&#45;of&#45;missing&#45;data -->
<g id="edge6" class="edge">
<title>http://purl.org/dj/kaggle/patterns&#45;of&#45;missing&#45;data#29950131&#45;&gt;http://purl.org/dj/kaggle/patterns&#45;of&#45;missing&#45;data</title>
<path fill="none" stroke="black" d="M1841.07,-96.09C1827.7,-81.5 1808.15,-60.16 1793.01,-43.63"/>
<polygon fill="black" stroke="black" points="1795.31,-40.96 1785.97,-35.95 1790.15,-45.69 1795.31,-40.96"/>
<text text-anchor="middle" x="1839.94" y="-57.8" font-family="Times,serif" font-size="14.00">previous</text>
</g>
<!-- http://purl.org/dj/kaggle/patterns&#45;of&#45;missing&#45;data#80085334&#45;&gt;http://purl.org/dj/kaggle/patterns&#45;of&#45;missing&#45;data -->
<g id="edge7" class="edge">
<title>http://purl.org/dj/kaggle/patterns&#45;of&#45;missing&#45;data#80085334&#45;&gt;http://purl.org/dj/kaggle/patterns&#45;of&#45;missing&#45;data</title>
<path fill="none" stroke="black" d="M532.61,-212.68C528.66,-182.46 525.52,-119.64 560.44,-87 600.49,-49.58 1377.23,-28.02 1664.67,-21.3"/>
<polygon fill="black" stroke="black" points="1664.77,-24.8 1674.68,-21.06 1664.61,-17.8 1664.77,-24.8"/>
<text text-anchor="middle" x="583.94" y="-110.17" font-family="Times,serif" font-size="14.00">previous</text>
</g>
<!-- http://purl.org/dj/python/lib/144966264 -->
<g id="node8" class="node">
<title>http://purl.org/dj/python/lib/144966264</title>
<ellipse fill="none" stroke="black" cx="725.44" cy="-113.87" rx="109.38" ry="18"/>
<text text-anchor="middle" x="725.44" y="-110.17" font-family="Times,serif" font-size="14.00">144966264 (pandas: Reuse)</text>
</g>
<!-- http://purl.org/dj/kaggle/patterns&#45;of&#45;missing&#45;data#80085334&#45;&gt;http://purl.org/dj/python/lib/144966264 -->
<g id="edge8" class="edge">
<title>http://purl.org/dj/kaggle/patterns&#45;of&#45;missing&#45;data#80085334&#45;&gt;http://purl.org/dj/python/lib/144966264</title>
<path fill="none" stroke="black" d="M554.32,-212.76C572.06,-197.37 599.8,-174.7 626.44,-158.74 641.4,-149.78 658.51,-141.55 674.26,-134.7"/>
<polygon fill="black" stroke="black" points="676.02,-137.76 683.85,-130.62 673.28,-131.32 676.02,-137.76"/>
<text text-anchor="middle" x="649.94" y="-173.04" font-family="Times,serif" font-size="14.00">previous</text>
</g>
<!-- http://purl.org/dj/kaggle/patterns&#45;of&#45;missing&#45;data#3435531255&#45;&gt;http://purl.org/dj/kaggle/patterns&#45;of&#45;missing&#45;data -->
<g id="edge9" class="edge">
<title>http://purl.org/dj/kaggle/patterns&#45;of&#45;missing&#45;data#3435531255&#45;&gt;http://purl.org/dj/kaggle/patterns&#45;of&#45;missing&#45;data</title>
<path fill="none" stroke="black" d="M1045.55,-158.74C1063.54,-133.58 1095.62,-89.17 1099.44,-87 1193.2,-33.79 1499.26,-21.95 1663.69,-19.49"/>
<polygon fill="black" stroke="black" points="1663.87,-22.99 1673.82,-19.35 1663.78,-15.99 1663.87,-22.99"/>
<text text-anchor="middle" x="1122.94" y="-110.17" font-family="Times,serif" font-size="14.00">previous</text>
</g>
<!-- http://purl.org/dj/python/lib/144966264&#45;&gt;http://purl.org/dj/kaggle/patterns&#45;of&#45;missing&#45;data -->
<g id="edge10" class="edge">
<title>http://purl.org/dj/python/lib/144966264&#45;&gt;http://purl.org/dj/kaggle/patterns&#45;of&#45;missing&#45;data</title>
<path fill="none" stroke="black" d="M772.24,-97.5C817.33,-83.43 887.75,-63.43 950.44,-54 1084.82,-33.79 1474.17,-24.27 1663.95,-20.72"/>
<polygon fill="black" stroke="black" points="1664.28,-24.22 1674.22,-20.53 1664.15,-17.22 1664.28,-24.22"/>
<text text-anchor="middle" x="973.94" y="-57.8" font-family="Times,serif" font-size="14.00">previous</text>
</g>
<!-- http://purl.org/dj/kaggle/patterns&#45;of&#45;missing&#45;data#177668671 -->
<g id="node9" class="node">
<title>http://purl.org/dj/kaggle/patterns&#45;of&#45;missing&#45;data#177668671</title>
<ellipse fill="none" stroke="black" cx="2227.44" cy="-230.74" rx="139.98" ry="18"/>
<text text-anchor="middle" x="2227.44" y="-227.04" font-family="Times,serif" font-size="14.00">177668671 (msno(0): Visualisation)</text>
</g>
<!-- http://purl.org/dj/kaggle/patterns&#45;of&#45;missing&#45;data#177668671&#45;&gt;http://purl.org/dj/kaggle/patterns&#45;of&#45;missing&#45;data -->
<g id="edge11" class="edge">
<title>http://purl.org/dj/kaggle/patterns&#45;of&#45;missing&#45;data#177668671&#45;&gt;http://purl.org/dj/kaggle/patterns&#45;of&#45;missing&#45;data</title>
<path fill="none" stroke="black" d="M2160.82,-214.9C2112.11,-201.57 2046.43,-178.22 1998.44,-140.74 1975.39,-122.74 1983.74,-104.69 1960.44,-87 1926.5,-61.23 1881.93,-44.6 1844.48,-34.23"/>
<polygon fill="black" stroke="black" points="1845.19,-30.8 1834.62,-31.61 1843.38,-37.57 1845.19,-30.8"/>
<text text-anchor="middle" x="2021.94" y="-110.17" font-family="Times,serif" font-size="14.00">previous</text>
</g>
<!-- http://purl.org/dj/python/lib/323093464 -->
<g id="node10" class="node">
<title>http://purl.org/dj/python/lib/323093464</title>
<ellipse fill="none" stroke="black" cx="2176.44" cy="-113.87" rx="121.58" ry="18"/>
<text text-anchor="middle" x="2176.44" y="-110.17" font-family="Times,serif" font-size="14.00">323093464 (missingno: Reuse)</text>
</g>
<!-- http://purl.org/dj/kaggle/patterns&#45;of&#45;missing&#45;data#177668671&#45;&gt;http://purl.org/dj/python/lib/323093464 -->
<g id="edge12" class="edge">
<title>http://purl.org/dj/kaggle/patterns&#45;of&#45;missing&#45;data#177668671&#45;&gt;http://purl.org/dj/python/lib/323093464</title>
<path fill="none" stroke="black" d="M2219.7,-212.29C2211.33,-193.46 2197.92,-163.24 2188.24,-141.45"/>
<polygon fill="black" stroke="black" points="2191.35,-139.82 2184.09,-132.1 2184.95,-142.66 2191.35,-139.82"/>
<text text-anchor="middle" x="2234.94" y="-173.04" font-family="Times,serif" font-size="14.00">previous</text>
</g>
<!-- http://purl.org/dj/python/lib/323093464&#45;&gt;http://purl.org/dj/kaggle/patterns&#45;of&#45;missing&#45;data -->
<g id="edge13" class="edge">
<title>http://purl.org/dj/python/lib/323093464&#45;&gt;http://purl.org/dj/kaggle/patterns&#45;of&#45;missing&#45;data</title>
<path fill="none" stroke="black" d="M2136.15,-96.86C2101.47,-83.65 2049.84,-65.28 2003.44,-54 1957.44,-42.81 1905.41,-34.59 1862.21,-28.93"/>
<polygon fill="black" stroke="black" points="1862.64,-25.46 1852.28,-27.66 1861.75,-32.4 1862.64,-25.46"/>
<text text-anchor="middle" x="2075.94" y="-57.8" font-family="Times,serif" font-size="14.00">previous</text>
</g>
<!-- http://purl.org/dj/kaggle/patterns&#45;of&#45;missing&#45;data#82575712 -->
<g id="node11" class="node">
<title>http://purl.org/dj/kaggle/patterns&#45;of&#45;missing&#45;data#82575712</title>
<ellipse fill="none" stroke="black" cx="2509.44" cy="-230.74" rx="124.28" ry="18"/>
<text text-anchor="middle" x="2509.44" y="-227.04" font-family="Times,serif" font-size="14.00">82575712 (np(0): Visualisation)</text>
</g>
<!-- http://purl.org/dj/kaggle/patterns&#45;of&#45;missing&#45;data#82575712&#45;&gt;http://purl.org/dj/kaggle/patterns&#45;of&#45;missing&#45;data -->
<g id="edge14" class="edge">
<title>http://purl.org/dj/kaggle/patterns&#45;of&#45;missing&#45;data#82575712&#45;&gt;http://purl.org/dj/kaggle/patterns&#45;of&#45;missing&#45;data</title>
<path fill="none" stroke="black" d="M2466.68,-213.69C2430.87,-198.74 2379.9,-173.79 2343.44,-140.74 2322.14,-121.43 2331.64,-102.52 2307.44,-87 2238.04,-42.47 2011.46,-27.04 1875.79,-21.73"/>
<polygon fill="black" stroke="black" points="1875.91,-18.24 1865.78,-21.36 1875.64,-25.23 1875.91,-18.24"/>
<text text-anchor="middle" x="2366.94" y="-110.17" font-family="Times,serif" font-size="14.00">previous</text>
</g>
<!-- http://purl.org/dj/python/lib/111084090 -->
<g id="node12" class="node">
<title>http://purl.org/dj/python/lib/111084090</title>
<ellipse fill="none" stroke="black" cx="2509.44" cy="-113.87" rx="109.68" ry="18"/>
<text text-anchor="middle" x="2509.44" y="-110.17" font-family="Times,serif" font-size="14.00">111084090 (numpy: Reuse)</text>
</g>
<!-- http://purl.org/dj/kaggle/patterns&#45;of&#45;missing&#45;data#82575712&#45;&gt;http://purl.org/dj/python/lib/111084090 -->
<g id="edge15" class="edge">
<title>http://purl.org/dj/kaggle/patterns&#45;of&#45;missing&#45;data#82575712&#45;&gt;http://purl.org/dj/python/lib/111084090</title>
<path fill="none" stroke="black" d="M2509.44,-212.29C2509.44,-193.72 2509.44,-164.06 2509.44,-142.34"/>
<polygon fill="black" stroke="black" points="2512.94,-142.1 2509.44,-132.1 2505.94,-142.1 2512.94,-142.1"/>
<text text-anchor="middle" x="2532.94" y="-173.04" font-family="Times,serif" font-size="14.00">previous</text>
</g>
<!-- http://purl.org/dj/python/lib/111084090&#45;&gt;http://purl.org/dj/kaggle/patterns&#45;of&#45;missing&#45;data -->
<g id="edge16" class="edge">
<title>http://purl.org/dj/python/lib/111084090&#45;&gt;http://purl.org/dj/kaggle/patterns&#45;of&#45;missing&#45;data</title>
<path fill="none" stroke="black" d="M2474.5,-96.73C2442.46,-82.76 2393.31,-63.35 2348.44,-54 2261.1,-35.79 2017.03,-26.01 1875.54,-21.72"/>
<polygon fill="black" stroke="black" points="1875.63,-18.22 1865.53,-21.42 1875.43,-25.22 1875.63,-18.22"/>
<text text-anchor="middle" x="2421.94" y="-57.8" font-family="Times,serif" font-size="14.00">previous</text>
</g>
<!-- http://purl.org/dj/kaggle/patterns&#45;of&#45;missing&#45;data#260965012 -->
<g id="node13" class="node">
<title>http://purl.org/dj/kaggle/patterns&#45;of&#45;missing&#45;data#260965012</title>
<ellipse fill="none" stroke="black" cx="421.44" cy="-425.74" rx="148.37" ry="18"/>
<text text-anchor="middle" x="421.44" y="-422.04" font-family="Times,serif" font-size="14.00">260965012 (msno(0)$1: Visualisation)</text>
</g>
<!-- http://purl.org/dj/kaggle/patterns&#45;of&#45;missing&#45;data#260965012&#45;&gt;http://purl.org/dj/kaggle/patterns&#45;of&#45;missing&#45;data#327811828 -->
<g id="edge17" class="edge">
<title>http://purl.org/dj/kaggle/patterns&#45;of&#45;missing&#45;data#260965012&#45;&gt;http://purl.org/dj/kaggle/patterns&#45;of&#45;missing&#45;data#327811828</title>
<path fill="none" stroke="black" d="M523.27,-412.64C576.41,-406.16 642.48,-397.86 701.44,-389.74 781.77,-378.67 872.83,-364.87 939.24,-354.57"/>
<polygon fill="black" stroke="black" points="939.92,-358.01 949.27,-353.01 938.85,-351.09 939.92,-358.01"/>
<text text-anchor="middle" x="825.94" y="-378.54" font-family="Times,serif" font-size="14.00">previous</text>
</g>
<!-- http://purl.org/dj/kaggle/patterns&#45;of&#45;missing&#45;data#49479919 -->
<g id="node14" class="node">
<title>http://purl.org/dj/kaggle/patterns&#45;of&#45;missing&#45;data#49479919</title>
<ellipse fill="none" stroke="black" cx="99.44" cy="-176.74" rx="99.38" ry="18"/>
<text text-anchor="middle" x="99.44" y="-173.04" font-family="Times,serif" font-size="14.00">49479919 (94(0): Reuse)</text>
</g>
<!-- http://purl.org/dj/kaggle/patterns&#45;of&#45;missing&#45;data#260965012&#45;&gt;http://purl.org/dj/kaggle/patterns&#45;of&#45;missing&#45;data#49479919 -->
<g id="edge18" class="edge">
<title>http://purl.org/dj/kaggle/patterns&#45;of&#45;missing&#45;data#260965012&#45;&gt;http://purl.org/dj/kaggle/patterns&#45;of&#45;missing&#45;data#49479919</title>
<path fill="none" stroke="black" d="M378.72,-408.5C349.66,-396.44 311.08,-378.37 280.44,-356.74 214.81,-310.42 151.14,-239.65 119.72,-202.49"/>
<polygon fill="black" stroke="black" points="122.27,-200.08 113.16,-194.66 116.9,-204.57 122.27,-200.08"/>
<text text-anchor="middle" x="303.94" y="-335.04" font-family="Times,serif" font-size="14.00">previous</text>
</g>
<!-- http://purl.org/dj/kaggle/patterns&#45;of&#45;missing&#45;data#29687986 -->
<g id="node15" class="node">
<title>http://purl.org/dj/kaggle/patterns&#45;of&#45;missing&#45;data#29687986</title>
<ellipse fill="none" stroke="black" cx="954.44" cy="-113.87" rx="94.78" ry="18"/>
<text text-anchor="middle" x="954.44" y="-110.17" font-family="Times,serif" font-size="14.00">29687986 (0(0): Reuse)</text>
</g>
<!-- http://purl.org/dj/kaggle/patterns&#45;of&#45;missing&#45;data#260965012&#45;&gt;http://purl.org/dj/kaggle/patterns&#45;of&#45;missing&#45;data#29687986 -->
<g id="edge19" class="edge">
<title>http://purl.org/dj/kaggle/patterns&#45;of&#45;missing&#45;data#260965012&#45;&gt;http://purl.org/dj/kaggle/patterns&#45;of&#45;missing&#45;data#29687986</title>
<path fill="none" stroke="black" d="M446.16,-407.94C454.53,-402.2 463.92,-395.73 472.44,-389.74 560.24,-328.04 585.75,-317.13 668.44,-248.74 686.37,-233.91 689.42,-228.59 706.44,-212.74 732.46,-188.52 733.98,-175.28 765.44,-158.74 796.93,-142.19 808.78,-148.78 843.44,-140.74 857.61,-137.45 872.8,-133.92 887.26,-130.55"/>
<polygon fill="black" stroke="black" points="888.18,-133.93 897.12,-128.25 886.59,-127.12 888.18,-133.93"/>
<text text-anchor="middle" x="668.94" y="-281.04" font-family="Times,serif" font-size="14.00">previous</text>
</g>
<!-- http://purl.org/dj/kaggle/patterns&#45;of&#45;missing&#45;data#64815379 -->
<g id="node16" class="node">
<title>http://purl.org/dj/kaggle/patterns&#45;of&#45;missing&#45;data#64815379</title>
<ellipse fill="none" stroke="black" cx="307.44" cy="-176.74" rx="103.98" ry="18"/>
<text text-anchor="middle" x="307.44" y="-173.04" font-family="Times,serif" font-size="14.00">64815379 (100(0): Reuse)</text>
</g>
<!-- http://purl.org/dj/kaggle/patterns&#45;of&#45;missing&#45;data#260965012&#45;&gt;http://purl.org/dj/kaggle/patterns&#45;of&#45;missing&#45;data#64815379 -->
<g id="edge20" class="edge">
<title>http://purl.org/dj/kaggle/patterns&#45;of&#45;missing&#45;data#260965012&#45;&gt;http://purl.org/dj/kaggle/patterns&#45;of&#45;missing&#45;data#64815379</title>
<path fill="none" stroke="black" d="M401.71,-407.59C378.14,-385.83 339.64,-345.89 321.44,-302.74 308.15,-271.23 305.88,-231.48 306.12,-205.38"/>
<polygon fill="black" stroke="black" points="309.63,-205.16 306.36,-195.09 302.63,-205.01 309.63,-205.16"/>
<text text-anchor="middle" x="377.94" y="-335.04" font-family="Times,serif" font-size="14.00">previous</text>
</g>
<!-- http://purl.org/dj/kaggle/patterns&#45;of&#45;missing&#45;data#46792934 -->
<g id="node17" class="node">
<title>http://purl.org/dj/kaggle/patterns&#45;of&#45;missing&#45;data#46792934</title>
<ellipse fill="none" stroke="black" cx="421.44" cy="-284.74" rx="99.38" ry="18"/>
<text text-anchor="middle" x="421.44" y="-281.04" font-family="Times,serif" font-size="14.00">46792934 (40(0): Reuse)</text>
</g>
<!-- http://purl.org/dj/kaggle/patterns&#45;of&#45;missing&#45;data#260965012&#45;&gt;http://purl.org/dj/kaggle/patterns&#45;of&#45;missing&#45;data#46792934 -->
<g id="edge21" class="edge">
<title>http://purl.org/dj/kaggle/patterns&#45;of&#45;missing&#45;data#260965012&#45;&gt;http://purl.org/dj/kaggle/patterns&#45;of&#45;missing&#45;data#46792934</title>
<path fill="none" stroke="black" d="M421.44,-407.7C421.44,-384.14 421.44,-341.38 421.44,-313.27"/>
<polygon fill="black" stroke="black" points="424.94,-312.92 421.44,-302.92 417.94,-312.92 424.94,-312.92"/>
<text text-anchor="middle" x="444.94" y="-378.54" font-family="Times,serif" font-size="14.00">previous</text>
</g>
<!-- http://purl.org/dj/kaggle/patterns&#45;of&#45;missing&#45;data#49479919&#45;&gt;http://purl.org/dj/kaggle/patterns&#45;of&#45;missing&#45;data -->
<g id="edge22" class="edge">
<title>http://purl.org/dj/kaggle/patterns&#45;of&#45;missing&#45;data#49479919&#45;&gt;http://purl.org/dj/kaggle/patterns&#45;of&#45;missing&#45;data</title>
<path fill="none" stroke="black" d="M126.01,-159.3C175.4,-129.97 285.72,-70.15 388.44,-54 512.84,-34.44 1362.06,-23.43 1664.09,-20.1"/>
<polygon fill="black" stroke="black" points="1664.21,-23.59 1674.17,-19.98 1664.13,-16.59 1664.21,-23.59"/>
<text text-anchor="middle" x="294.94" y="-110.17" font-family="Times,serif" font-size="14.00">previous</text>
</g>
<!-- http://purl.org/dj/kaggle/patterns&#45;of&#45;missing&#45;data#29687986&#45;&gt;http://purl.org/dj/kaggle/patterns&#45;of&#45;missing&#45;data -->
<g id="edge23" class="edge">
<title>http://purl.org/dj/kaggle/patterns&#45;of&#45;missing&#45;data#29687986&#45;&gt;http://purl.org/dj/kaggle/patterns&#45;of&#45;missing&#45;data</title>
<path fill="none" stroke="black" d="M969.34,-95.97C982.91,-81.89 1004.31,-62.78 1027.44,-54 1085.26,-32.05 1472.62,-23.35 1663.93,-20.36"/>
<polygon fill="black" stroke="black" points="1664.07,-23.86 1674.01,-20.21 1663.96,-16.86 1664.07,-23.86"/>
<text text-anchor="middle" x="1050.94" y="-57.8" font-family="Times,serif" font-size="14.00">previous</text>
</g>
<!-- http://purl.org/dj/kaggle/patterns&#45;of&#45;missing&#45;data#64815379&#45;&gt;http://purl.org/dj/kaggle/patterns&#45;of&#45;missing&#45;data -->
<g id="edge24" class="edge">
<title>http://purl.org/dj/kaggle/patterns&#45;of&#45;missing&#45;data#64815379&#45;&gt;http://purl.org/dj/kaggle/patterns&#45;of&#45;missing&#45;data</title>
<path fill="none" stroke="black" d="M315.98,-158.6C331.76,-129.3 368.69,-71.09 420.44,-54 479.05,-34.64 1354.92,-23.45 1663.69,-20.08"/>
<polygon fill="black" stroke="black" points="1664.03,-23.58 1673.99,-19.97 1663.95,-16.58 1664.03,-23.58"/>
<text text-anchor="middle" x="390.94" y="-110.17" font-family="Times,serif" font-size="14.00">previous</text>
</g>
<!-- http://purl.org/dj/kaggle/patterns&#45;of&#45;missing&#45;data#46792934&#45;&gt;http://purl.org/dj/kaggle/patterns&#45;of&#45;missing&#45;data -->
<g id="edge25" class="edge">
<title>http://purl.org/dj/kaggle/patterns&#45;of&#45;missing&#45;data#46792934&#45;&gt;http://purl.org/dj/kaggle/patterns&#45;of&#45;missing&#45;data</title>
<path fill="none" stroke="black" d="M409.97,-266.64C406.9,-261.16 404.01,-254.91 402.44,-248.74 398.5,-233.23 396.25,-227.49 402.44,-212.74 417.86,-175.97 496.09,-107.25 530.44,-87 574.78,-60.86 590.63,-62.2 641.44,-54 835.99,-22.61 1420.97,-18.93 1663.4,-18.8"/>
<polygon fill="black" stroke="black" points="1663.63,-22.31 1673.63,-18.8 1663.63,-15.31 1663.63,-22.31"/>
<text text-anchor="middle" x="466.94" y="-173.04" font-family="Times,serif" font-size="14.00">previous</text>
</g>
<!-- http://purl.org/dj/kaggle/patterns&#45;of&#45;missing&#45;data#66388247 -->
<g id="node18" class="node">
<title>http://purl.org/dj/kaggle/patterns&#45;of&#45;missing&#45;data#66388247</title>
<ellipse fill="none" stroke="black" cx="1574.44" cy="-284.74" rx="103.98" ry="18"/>
<text text-anchor="middle" x="1574.44" y="-281.04" font-family="Times,serif" font-size="14.00">66388247 (500(0): Reuse)</text>
</g>
<!-- http://purl.org/dj/kaggle/patterns&#45;of&#45;missing&#45;data#66388247&#45;&gt;http://purl.org/dj/kaggle/patterns&#45;of&#45;missing&#45;data -->
<g id="edge26" class="edge">
<title>http://purl.org/dj/kaggle/patterns&#45;of&#45;missing&#45;data#66388247&#45;&gt;http://purl.org/dj/kaggle/patterns&#45;of&#45;missing&#45;data</title>
<path fill="none" stroke="black" d="M1664.61,-275.6C1682.35,-270.22 1699.46,-261.8 1712.44,-248.74 1764.65,-196.22 1734.08,-158.74 1752.44,-87 1755.92,-73.41 1759.9,-58.33 1763.23,-45.83"/>
<polygon fill="black" stroke="black" points="1766.65,-46.59 1765.85,-36.03 1759.89,-44.78 1766.65,-46.59"/>
<text text-anchor="middle" x="1769.94" y="-173.04" font-family="Times,serif" font-size="14.00">previous</text>
</g>
<!-- http://purl.org/dj/kaggle/patterns&#45;of&#45;missing&#45;data#327942902 -->
<g id="node19" class="node">
<title>http://purl.org/dj/kaggle/patterns&#45;of&#45;missing&#45;data#327942902</title>
<ellipse fill="none" stroke="black" cx="860.44" cy="-230.74" rx="144.87" ry="18"/>
<text text-anchor="middle" x="860.44" y="-227.04" font-family="Times,serif" font-size="14.00">327942902 (train(0)$2: Visualisation)</text>
</g>
<!-- http://purl.org/dj/kaggle/patterns&#45;of&#45;missing&#45;data#327942902&#45;&gt;http://purl.org/dj/kaggle/patterns&#45;of&#45;missing&#45;data#29687986 -->
<g id="edge27" class="edge">
<title>http://purl.org/dj/kaggle/patterns&#45;of&#45;missing&#45;data#327942902&#45;&gt;http://purl.org/dj/kaggle/patterns&#45;of&#45;missing&#45;data#29687986</title>
<path fill="none" stroke="black" d="M799.03,-214.41C790.1,-209.55 782.05,-203.15 776.44,-194.74 767.57,-181.43 766.57,-171.33 776.44,-158.74 778.25,-156.43 837.19,-142.19 886.75,-130.55"/>
<polygon fill="black" stroke="black" points="887.58,-133.95 896.52,-128.26 885.99,-127.13 887.58,-133.95"/>
<text text-anchor="middle" x="799.94" y="-173.04" font-family="Times,serif" font-size="14.00">previous</text>
</g>
<!-- http://purl.org/dj/python/lib/452658310 -->
<g id="node20" class="node">
<title>http://purl.org/dj/python/lib/452658310</title>
<ellipse fill="none" stroke="black" cx="2841.44" cy="-113.87" rx="120.78" ry="18"/>
<text text-anchor="middle" x="2841.44" y="-110.17" font-family="Times,serif" font-size="14.00">452658310 (scipy.stats: Reuse)</text>
</g>
<!-- http://purl.org/dj/python/lib/452658310&#45;&gt;http://purl.org/dj/kaggle/patterns&#45;of&#45;missing&#45;data -->
<g id="edge28" class="edge">
<title>http://purl.org/dj/python/lib/452658310&#45;&gt;http://purl.org/dj/kaggle/patterns&#45;of&#45;missing&#45;data</title>
<path fill="none" stroke="black" d="M2804.37,-96.66C2770.1,-82.53 2717.38,-62.94 2669.44,-54 2520.61,-26.25 2081.69,-20.46 1877.35,-19.28"/>
<polygon fill="black" stroke="black" points="1877.22,-15.78 1867.2,-19.22 1877.18,-22.78 1877.22,-15.78"/>
<text text-anchor="middle" x="2750.94" y="-57.8" font-family="Times,serif" font-size="14.00">previous</text>
</g>
<!-- http://purl.org/dj/kaggle/patterns&#45;of&#45;missing&#45;data#1223821032 -->
<g id="node21" class="node">
<title>http://purl.org/dj/kaggle/patterns&#45;of&#45;missing&#45;data#1223821032</title>
<ellipse fill="none" stroke="black" cx="2838.44" cy="-230.74" rx="186.57" ry="18"/>
<text text-anchor="middle" x="2838.44" y="-227.04" font-family="Times,serif" font-size="14.00">1223821032 (chi2_contingency(0): Visualisation)</text>
</g>
<!-- http://purl.org/dj/kaggle/patterns&#45;of&#45;missing&#45;data#1223821032&#45;&gt;http://purl.org/dj/kaggle/patterns&#45;of&#45;missing&#45;data -->
<g id="edge29" class="edge">
<title>http://purl.org/dj/kaggle/patterns&#45;of&#45;missing&#45;data#1223821032&#45;&gt;http://purl.org/dj/kaggle/patterns&#45;of&#45;missing&#45;data</title>
<path fill="none" stroke="black" d="M2791.33,-213.25C2753.91,-198.47 2701.85,-173.99 2664.44,-140.74 2642.96,-121.64 2652.47,-102.79 2628.44,-87 2566.9,-46.56 2091.42,-28.08 1875.96,-21.72"/>
<polygon fill="black" stroke="black" points="1875.99,-18.22 1865.9,-21.42 1875.79,-25.22 1875.99,-18.22"/>
<text text-anchor="middle" x="2687.94" y="-110.17" font-family="Times,serif" font-size="14.00">previous</text>
</g>
<!-- http://purl.org/dj/kaggle/patterns&#45;of&#45;missing&#45;data#1223821032&#45;&gt;http://purl.org/dj/python/lib/452658310 -->
<g id="edge30" class="edge">
<title>http://purl.org/dj/kaggle/patterns&#45;of&#45;missing&#45;data#1223821032&#45;&gt;http://purl.org/dj/python/lib/452658310</title>
<path fill="none" stroke="black" d="M2838.9,-212.29C2839.38,-193.72 2840.16,-164.06 2840.72,-142.34"/>
<polygon fill="black" stroke="black" points="2844.23,-142.19 2840.99,-132.1 2837.23,-142.01 2844.23,-142.19"/>
<text text-anchor="middle" x="2863.94" y="-173.04" font-family="Times,serif" font-size="14.00">previous</text>
</g>
<!-- http://purl.org/dj/kaggle/patterns&#45;of&#45;missing&#45;data#261030549 -->
<g id="node22" class="node">
<title>http://purl.org/dj/kaggle/patterns&#45;of&#45;missing&#45;data#261030549</title>
<ellipse fill="none" stroke="black" cx="1033.44" cy="-425.74" rx="148.37" ry="18"/>
<text text-anchor="middle" x="1033.44" y="-422.04" font-family="Times,serif" font-size="14.00">261030549 (msno(0)$2: Visualisation)</text>
</g>
<!-- http://purl.org/dj/kaggle/patterns&#45;of&#45;missing&#45;data#261030549&#45;&gt;http://purl.org/dj/kaggle/patterns&#45;of&#45;missing&#45;data#327811828 -->
<g id="edge31" class="edge">
<title>http://purl.org/dj/kaggle/patterns&#45;of&#45;missing&#45;data#261030549&#45;&gt;http://purl.org/dj/kaggle/patterns&#45;of&#45;missing&#45;data#327811828</title>
<path fill="none" stroke="black" d="M1033.44,-407.54C1033.44,-395.9 1033.44,-380.29 1033.44,-366.98"/>
<polygon fill="black" stroke="black" points="1036.94,-366.92 1033.44,-356.92 1029.94,-366.92 1036.94,-366.92"/>
<text text-anchor="middle" x="1056.94" y="-378.54" font-family="Times,serif" font-size="14.00">previous</text>
</g>
<!-- http://purl.org/dj/kaggle/patterns&#45;of&#45;missing&#45;data#211223113 -->
<g id="node23" class="node">
<title>http://purl.org/dj/kaggle/patterns&#45;of&#45;missing&#45;data#211223113</title>
<ellipse fill="none" stroke="black" cx="1573.44" cy="-113.87" rx="129.98" ry="18"/>
<text text-anchor="middle" x="1573.44" y="-110.17" font-family="Times,serif" font-size="14.00">211223113 (TARGET(0): Reuse)</text>
</g>
<!-- http://purl.org/dj/kaggle/patterns&#45;of&#45;missing&#45;data#211223113&#45;&gt;http://purl.org/dj/kaggle/patterns&#45;of&#45;missing&#45;data -->
<g id="edge32" class="edge">
<title>http://purl.org/dj/kaggle/patterns&#45;of&#45;missing&#45;data#211223113&#45;&gt;http://purl.org/dj/kaggle/patterns&#45;of&#45;missing&#45;data</title>
<path fill="none" stroke="black" d="M1597.77,-96.14C1616.92,-83.46 1644.61,-66.19 1670.44,-54 1683.75,-47.72 1698.51,-41.94 1712.52,-36.97"/>
<polygon fill="black" stroke="black" points="1713.76,-40.24 1722.07,-33.66 1711.47,-33.63 1713.76,-40.24"/>
<text text-anchor="middle" x="1693.94" y="-57.8" font-family="Times,serif" font-size="14.00">previous</text>
</g>
<!-- http://purl.org/dj/kaggle/patterns&#45;of&#45;missing&#45;data#249955097 -->
<g id="node24" class="node">
<title>http://purl.org/dj/kaggle/patterns&#45;of&#45;missing&#45;data#249955097</title>
<ellipse fill="none" stroke="black" cx="1895.44" cy="-230.74" rx="136.48" ry="18"/>
<text text-anchor="middle" x="1895.44" y="-227.04" font-family="Times,serif" font-size="14.00">249955097 (print[3]: Visualisation)</text>
</g>
<!-- http://purl.org/dj/kaggle/patterns&#45;of&#45;missing&#45;data#249955097&#45;&gt;http://purl.org/dj/kaggle/patterns&#45;of&#45;missing&#45;data#29950131 -->
<g id="edge33" class="edge">
<title>http://purl.org/dj/kaggle/patterns&#45;of&#45;missing&#45;data#249955097&#45;&gt;http://purl.org/dj/kaggle/patterns&#45;of&#45;missing&#45;data#29950131</title>
<path fill="none" stroke="black" d="M1889.52,-212.29C1883.15,-193.55 1872.96,-163.52 1865.57,-141.75"/>
<polygon fill="black" stroke="black" points="1868.82,-140.45 1862.29,-132.1 1862.19,-142.7 1868.82,-140.45"/>
<text text-anchor="middle" x="1906.94" y="-173.04" font-family="Times,serif" font-size="14.00">previous</text>
</g>
<!-- http://purl.org/dj/kaggle/patterns&#45;of&#45;missing&#45;data#384500537 -->
<g id="node25" class="node">
<title>http://purl.org/dj/kaggle/patterns&#45;of&#45;missing&#45;data#384500537</title>
<ellipse fill="none" stroke="black" cx="1218.44" cy="-230.74" rx="156.77" ry="18"/>
<text text-anchor="middle" x="1218.44" y="-227.04" font-family="Times,serif" font-size="14.00">384500537 (mean_c(0)$0: Visualisation)</text>
</g>
<!-- http://purl.org/dj/kaggle/patterns&#45;of&#45;missing&#45;data#384500537&#45;&gt;http://purl.org/dj/kaggle/patterns&#45;of&#45;missing&#45;data#29687986 -->
<g id="edge34" class="edge">
<title>http://purl.org/dj/kaggle/patterns&#45;of&#45;missing&#45;data#384500537&#45;&gt;http://purl.org/dj/kaggle/patterns&#45;of&#45;missing&#45;data#29687986</title>
<path fill="none" stroke="black" d="M1230.07,-212.74C1239.34,-196.89 1248.75,-173.54 1235.44,-158.74 1210.19,-130.66 1103.69,-147 1066.44,-140.74 1050.78,-138.11 1034.04,-134.61 1018.39,-131.04"/>
<polygon fill="black" stroke="black" points="1018.83,-127.55 1008.3,-128.7 1017.24,-134.37 1018.83,-127.55"/>
<text text-anchor="middle" x="1265.94" y="-173.04" font-family="Times,serif" font-size="14.00">previous</text>
</g>
<!-- http://purl.org/dj/kaggle/patterns&#45;of&#45;missing&#45;data#384500537&#45;&gt;http://purl.org/dj/kaggle/patterns&#45;of&#45;missing&#45;data#211223113 -->
<g id="edge35" class="edge">
<title>http://purl.org/dj/kaggle/patterns&#45;of&#45;missing&#45;data#384500537&#45;&gt;http://purl.org/dj/kaggle/patterns&#45;of&#45;missing&#45;data#211223113</title>
<path fill="none" stroke="black" d="M1302.85,-215.47C1323.25,-210.38 1344.58,-203.62 1363.44,-194.74 1387.57,-183.38 1387.48,-170.43 1411.44,-158.74 1435.71,-146.9 1463.63,-137.88 1489.38,-131.2"/>
<polygon fill="black" stroke="black" points="1490.29,-134.58 1499.14,-128.75 1488.59,-127.79 1490.29,-134.58"/>
<text text-anchor="middle" x="1434.94" y="-173.04" font-family="Times,serif" font-size="14.00">previous</text>
</g>
<!-- http://purl.org/dj/kaggle/patterns&#45;of&#45;missing&#45;data#614532274 -->
<g id="node26" class="node">
<title>http://purl.org/dj/kaggle/patterns&#45;of&#45;missing&#45;data#614532274</title>
<ellipse fill="none" stroke="black" cx="1290.44" cy="-113.87" rx="134.58" ry="18"/>
<text text-anchor="middle" x="1290.44" y="-110.17" font-family="Times,serif" font-size="14.00">614532274 (incomplete(0): Reuse)</text>
</g>
<!-- http://purl.org/dj/kaggle/patterns&#45;of&#45;missing&#45;data#384500537&#45;&gt;http://purl.org/dj/kaggle/patterns&#45;of&#45;missing&#45;data#614532274 -->
<g id="edge36" class="edge">
<title>http://purl.org/dj/kaggle/patterns&#45;of&#45;missing&#45;data#384500537&#45;&gt;http://purl.org/dj/kaggle/patterns&#45;of&#45;missing&#45;data#614532274</title>
<path fill="none" stroke="black" d="M1282.87,-214.31C1291.77,-209.47 1299.79,-203.1 1305.44,-194.74 1316.07,-179.01 1311.38,-157.74 1304.54,-141.11"/>
<polygon fill="black" stroke="black" points="1307.69,-139.58 1300.36,-131.93 1301.31,-142.48 1307.69,-139.58"/>
<text text-anchor="middle" x="1335.94" y="-173.04" font-family="Times,serif" font-size="14.00">previous</text>
</g>
<!-- http://purl.org/dj/kaggle/patterns&#45;of&#45;missing&#45;data#614532274&#45;&gt;http://purl.org/dj/kaggle/patterns&#45;of&#45;missing&#45;data -->
<g id="edge37" class="edge">
<title>http://purl.org/dj/kaggle/patterns&#45;of&#45;missing&#45;data#614532274&#45;&gt;http://purl.org/dj/kaggle/patterns&#45;of&#45;missing&#45;data</title>
<path fill="none" stroke="black" d="M1363.08,-98.66C1453.14,-81.05 1605.8,-51.2 1696.47,-33.47"/>
<polygon fill="black" stroke="black" points="1697.25,-36.88 1706.39,-31.53 1695.91,-30.01 1697.25,-36.88"/>
<text text-anchor="middle" x="1611.94" y="-57.8" font-family="Times,serif" font-size="14.00">previous</text>
</g>
<!-- http://purl.org/dj/kaggle/patterns&#45;of&#45;missing&#45;data#386859839 -->
<g id="node27" class="node">
<title>http://purl.org/dj/kaggle/patterns&#45;of&#45;missing&#45;data#386859839</title>
<ellipse fill="none" stroke="black" cx="1548.44" cy="-230.74" rx="155.17" ry="18"/>
<text text-anchor="middle" x="1548.44" y="-227.04" font-family="Times,serif" font-size="14.00">386859839 (mean_i(0)$0: Visualisation)</text>
</g>
<!-- http://purl.org/dj/kaggle/patterns&#45;of&#45;missing&#45;data#386859839&#45;&gt;http://purl.org/dj/kaggle/patterns&#45;of&#45;missing&#45;data#29950131 -->
<g id="edge38" class="edge">
<title>http://purl.org/dj/kaggle/patterns&#45;of&#45;missing&#45;data#386859839&#45;&gt;http://purl.org/dj/kaggle/patterns&#45;of&#45;missing&#45;data#29950131</title>
<path fill="none" stroke="black" d="M1582.25,-213.1C1592.76,-207.59 1604.26,-201.2 1614.44,-194.74 1636.96,-180.45 1638.23,-169.93 1662.44,-158.74 1683.35,-149.08 1735.15,-137.57 1779.97,-128.77"/>
<polygon fill="black" stroke="black" points="1780.85,-132.16 1790,-126.82 1779.52,-125.29 1780.85,-132.16"/>
<text text-anchor="middle" x="1685.94" y="-173.04" font-family="Times,serif" font-size="14.00">previous</text>
</g>
<!-- http://purl.org/dj/kaggle/patterns&#45;of&#45;missing&#45;data#386859839&#45;&gt;http://purl.org/dj/kaggle/patterns&#45;of&#45;missing&#45;data#211223113 -->
<g id="edge39" class="edge">
<title>http://purl.org/dj/kaggle/patterns&#45;of&#45;missing&#45;data#386859839&#45;&gt;http://purl.org/dj/kaggle/patterns&#45;of&#45;missing&#45;data#211223113</title>
<path fill="none" stroke="black" d="M1552.24,-212.29C1556.3,-193.63 1562.79,-163.79 1567.53,-142.04"/>
<polygon fill="black" stroke="black" points="1570.98,-142.62 1569.69,-132.1 1564.14,-141.13 1570.98,-142.62"/>
<text text-anchor="middle" x="1586.94" y="-173.04" font-family="Times,serif" font-size="14.00">previous</text>
</g>
<!-- http://purl.org/dj/kaggle/patterns&#45;of&#45;missing&#45;data#386859839&#45;&gt;http://purl.org/dj/kaggle/patterns&#45;of&#45;missing&#45;data#614532274 -->
<g id="edge40" class="edge">
<title>http://purl.org/dj/kaggle/patterns&#45;of&#45;missing&#45;data#386859839&#45;&gt;http://purl.org/dj/kaggle/patterns&#45;of&#45;missing&#45;data#614532274</title>
<path fill="none" stroke="black" d="M1528.2,-212.85C1503.37,-192.15 1464.32,-159.69 1462.44,-158.74 1437.73,-146.19 1409.14,-137.04 1382.46,-130.45"/>
<polygon fill="black" stroke="black" points="1383.27,-127.05 1372.73,-128.14 1381.65,-133.86 1383.27,-127.05"/>
<text text-anchor="middle" x="1527.94" y="-173.04" font-family="Times,serif" font-size="14.00">previous</text>
</g>
<!-- http://purl.org/dj/kaggle/patterns&#45;of&#45;missing&#45;data#260899475 -->
<g id="node28" class="node">
<title>http://purl.org/dj/kaggle/patterns&#45;of&#45;missing&#45;data#260899475</title>
<ellipse fill="none" stroke="black" cx="1419.44" cy="-425.74" rx="148.37" ry="18"/>
<text text-anchor="middle" x="1419.44" y="-422.04" font-family="Times,serif" font-size="14.00">260899475 (msno(0)$0: Visualisation)</text>
</g>
<!-- http://purl.org/dj/kaggle/patterns&#45;of&#45;missing&#45;data#260899475&#45;&gt;http://purl.org/dj/kaggle/patterns&#45;of&#45;missing&#45;data#327811828 -->
<g id="edge41" class="edge">
<title>http://purl.org/dj/kaggle/patterns&#45;of&#45;missing&#45;data#260899475&#45;&gt;http://purl.org/dj/kaggle/patterns&#45;of&#45;missing&#45;data#327811828</title>
<path fill="none" stroke="black" d="M1351.32,-409.74C1283.97,-394.91 1181.06,-372.25 1110.69,-356.75"/>
<polygon fill="black" stroke="black" points="1111.08,-353.25 1100.56,-354.52 1109.57,-360.09 1111.08,-353.25"/>
<text text-anchor="middle" x="1273.94" y="-378.54" font-family="Times,serif" font-size="14.00">previous</text>
</g>
<!-- http://purl.org/dj/kaggle/patterns&#45;of&#45;missing&#45;data#260899475&#45;&gt;http://purl.org/dj/kaggle/patterns&#45;of&#45;missing&#45;data#66388247 -->
<g id="edge42" class="edge">
<title>http://purl.org/dj/kaggle/patterns&#45;of&#45;missing&#45;data#260899475&#45;&gt;http://purl.org/dj/kaggle/patterns&#45;of&#45;missing&#45;data#66388247</title>
<path fill="none" stroke="black" d="M1438.45,-407.7C1466.02,-382.97 1517.21,-337.06 1548.32,-309.17"/>
<polygon fill="black" stroke="black" points="1550.66,-311.77 1555.76,-302.49 1545.98,-306.56 1550.66,-311.77"/>
<text text-anchor="middle" x="1497.94" y="-378.54" font-family="Times,serif" font-size="14.00">previous</text>
</g>
<!-- http://purl.org/dj/kaggle/patterns&#45;of&#45;missing&#45;data#249561878 -->
<g id="node29" class="node">
<title>http://purl.org/dj/kaggle/patterns&#45;of&#45;missing&#45;data#249561878</title>
<ellipse fill="none" stroke="black" cx="3745.44" cy="-230.74" rx="136.48" ry="18"/>
<text text-anchor="middle" x="3745.44" y="-227.04" font-family="Times,serif" font-size="14.00">249561878 (print[0]: Visualisation)</text>
</g>
<!-- http://purl.org/dj/kaggle/patterns&#45;of&#45;missing&#45;data#249561878&#45;&gt;http://purl.org/dj/kaggle/patterns&#45;of&#45;missing&#45;data#441523510 -->
<g id="edge43" class="edge">
<title>http://purl.org/dj/kaggle/patterns&#45;of&#45;missing&#45;data#249561878&#45;&gt;http://purl.org/dj/kaggle/patterns&#45;of&#45;missing&#45;data#441523510</title>
<path fill="none" stroke="black" d="M3744.83,-212.29C3744.27,-196.15 3743.42,-171.65 3742.71,-151.25"/>
<polygon fill="black" stroke="black" points="3746.2,-150.9 3742.35,-141.03 3739.2,-151.14 3746.2,-150.9"/>
<text text-anchor="middle" x="3767.94" y="-173.04" font-family="Times,serif" font-size="14.00">previous</text>
</g>
<!-- http://purl.org/dj/kaggle/patterns&#45;of&#45;missing&#45;data#487654339 -->
<g id="node30" class="node">
<title>http://purl.org/dj/kaggle/patterns&#45;of&#45;missing&#45;data#487654339</title>
<ellipse fill="none" stroke="black" cx="3090.44" cy="-113.87" rx="94.51" ry="26.74"/>
<text text-anchor="middle" x="3090.44" y="-117.67" font-family="Times,serif" font-size="14.00">487654339 (</text>
<text text-anchor="middle" x="3090.44" y="-102.67" font-family="Times,serif" font-size="14.00"> p&#45;value= (0): Reuse)</text>
</g>
<!-- http://purl.org/dj/kaggle/patterns&#45;of&#45;missing&#45;data#487654339&#45;&gt;http://purl.org/dj/kaggle/patterns&#45;of&#45;missing&#45;data -->
<g id="edge44" class="edge">
<title>http://purl.org/dj/kaggle/patterns&#45;of&#45;missing&#45;data#487654339&#45;&gt;http://purl.org/dj/kaggle/patterns&#45;of&#45;missing&#45;data</title>
<path fill="none" stroke="black" d="M3019.69,-95.98C2956.78,-81.81 2862.07,-62.56 2778.44,-54 2606.24,-36.37 2098.79,-25.1 1876.63,-20.88"/>
<polygon fill="black" stroke="black" points="1876.66,-17.38 1866.6,-20.69 1876.53,-24.37 1876.66,-17.38"/>
<text text-anchor="middle" x="2905.94" y="-57.8" font-family="Times,serif" font-size="14.00">previous</text>
</g>
<!-- http://purl.org/dj/kaggle/patterns&#45;of&#45;missing&#45;data#80937273 -->
<g id="node31" class="node">
<title>http://purl.org/dj/kaggle/patterns&#45;of&#45;missing&#45;data#80937273</title>
<ellipse fill="none" stroke="black" cx="3462.44" cy="-230.74" rx="128.08" ry="18"/>
<text text-anchor="middle" x="3462.44" y="-227.04" font-family="Times,serif" font-size="14.00">80937273 (c(0)$0: Visualisation)</text>
</g>
<!-- http://purl.org/dj/kaggle/patterns&#45;of&#45;missing&#45;data#987825685 -->
<g id="node32" class="node">
<title>http://purl.org/dj/kaggle/patterns&#45;of&#45;missing&#45;data#987825685</title>
<ellipse fill="none" stroke="black" cx="3352.44" cy="-113.87" rx="144.87" ry="18"/>
<text text-anchor="middle" x="3352.44" y="-110.17" font-family="Times,serif" font-size="14.00">987825685 (log&#45;likelihood(0): Reuse)</text>
</g>
<!-- http://purl.org/dj/kaggle/patterns&#45;of&#45;missing&#45;data#80937273&#45;&gt;http://purl.org/dj/kaggle/patterns&#45;of&#45;missing&#45;data#987825685 -->
<g id="edge45" class="edge">
<title>http://purl.org/dj/kaggle/patterns&#45;of&#45;missing&#45;data#80937273&#45;&gt;http://purl.org/dj/kaggle/patterns&#45;of&#45;missing&#45;data#987825685</title>
<path fill="none" stroke="black" d="M3446.21,-212.79C3427.61,-193.36 3396.96,-161.36 3375.8,-139.26"/>
<polygon fill="black" stroke="black" points="3378.18,-136.69 3368.74,-131.89 3373.13,-141.53 3378.18,-136.69"/>
<text text-anchor="middle" x="3450.94" y="-173.04" font-family="Times,serif" font-size="14.00">previous</text>
</g>
<!-- http://purl.org/dj/kaggle/patterns&#45;of&#45;missing&#45;data#987825685&#45;&gt;http://purl.org/dj/kaggle/patterns&#45;of&#45;missing&#45;data -->
<g id="edge46" class="edge">
<title>http://purl.org/dj/kaggle/patterns&#45;of&#45;missing&#45;data#987825685&#45;&gt;http://purl.org/dj/kaggle/patterns&#45;of&#45;missing&#45;data</title>
<path fill="none" stroke="black" d="M3273.22,-98.77C3189.2,-84.51 3052.45,-63.29 2933.44,-54 2545.52,-23.71 2082.93,-19.19 1877.66,-18.8"/>
<polygon fill="black" stroke="black" points="1877.49,-15.3 1867.49,-18.79 1877.48,-22.3 1877.49,-15.3"/>
<text text-anchor="middle" x="3095.94" y="-57.8" font-family="Times,serif" font-size="14.00">previous</text>
</g>
<!-- http://purl.org/dj/kaggle/patterns&#45;of&#45;missing&#45;data#249692951 -->
<g id="node33" class="node">
<title>http://purl.org/dj/kaggle/patterns&#45;of&#45;missing&#45;data#249692951</title>
<ellipse fill="none" stroke="black" cx="3179.44" cy="-230.74" rx="136.48" ry="18"/>
<text text-anchor="middle" x="3179.44" y="-227.04" font-family="Times,serif" font-size="14.00">249692951 (print[1]: Visualisation)</text>
</g>
<!-- http://purl.org/dj/kaggle/patterns&#45;of&#45;missing&#45;data#249692951&#45;&gt;http://purl.org/dj/kaggle/patterns&#45;of&#45;missing&#45;data#487654339 -->
<g id="edge47" class="edge">
<title>http://purl.org/dj/kaggle/patterns&#45;of&#45;missing&#45;data#249692951&#45;&gt;http://purl.org/dj/kaggle/patterns&#45;of&#45;missing&#45;data#487654339</title>
<path fill="none" stroke="black" d="M3166.31,-212.79C3153.25,-195.93 3132.85,-169.6 3116.49,-148.49"/>
<polygon fill="black" stroke="black" points="3119.11,-146.16 3110.22,-140.39 3113.58,-150.44 3119.11,-146.16"/>
<text text-anchor="middle" x="3174.94" y="-173.04" font-family="Times,serif" font-size="14.00">previous</text>
</g>
</g>
</svg>
