<?xml version="1.0" encoding="UTF-8" standalone="no"?>
<!DOCTYPE svg PUBLIC "-//W3C//DTD SVG 1.1//EN"
 "http://www.w3.org/Graphics/SVG/1.1/DTD/svg11.dtd">
<!-- Generated by graphviz version 2.47.1 (20210417.1919)
 -->
<!-- Pages: 1 -->
<svg width="2313pt" height="935pt"
 viewBox="0.00 0.00 2312.53 935.00" xmlns="http://www.w3.org/2000/svg" xmlns:xlink="http://www.w3.org/1999/xlink">
<g id="graph0" class="graph" transform="scale(1 1) rotate(0) translate(4 931)">
<polygon fill="white" stroke="transparent" points="-4,4 -4,-931 2308.53,-931 2308.53,4 -4,4"/>
<!-- http://purl.org/dj/kaggle/pgh&#45;kaggle&#45;comp&#45;sf&#45;crime&#45;classification#159253010 -->
<g id="node1" class="node">
<title>http://purl.org/dj/kaggle/pgh&#45;kaggle&#45;comp&#45;sf&#45;crime&#45;classification#159253010</title>
<ellipse fill="none" stroke="black" cx="114.39" cy="-159" rx="114.28" ry="18"/>
<text text-anchor="middle" x="114.39" y="-155.3" font-family="Times,serif" font-size="14.00">159253010 (None(0): Reuse)</text>
</g>
<!-- http://purl.org/dj/kaggle/pgh&#45;kaggle&#45;comp&#45;sf&#45;crime&#45;classification -->
<g id="node2" class="node">
<title>http://purl.org/dj/kaggle/pgh&#45;kaggle&#45;comp&#45;sf&#45;crime&#45;classification</title>
<ellipse fill="none" stroke="black" cx="1350.39" cy="-18" rx="328.74" ry="18"/>
<text text-anchor="middle" x="1350.39" y="-14.3" font-family="Times,serif" font-size="14.00">pgh&#45;kaggle&#45;comp&#45;sf&#45;crime&#45;classification (pgh&#45;kaggle&#45;comp&#45;sf&#45;crime&#45;classification.ipynb)</text>
</g>
<!-- http://purl.org/dj/kaggle/pgh&#45;kaggle&#45;comp&#45;sf&#45;crime&#45;classification#159253010&#45;&gt;http://purl.org/dj/kaggle/pgh&#45;kaggle&#45;comp&#45;sf&#45;crime&#45;classification -->
<g id="edge1" class="edge">
<title>http://purl.org/dj/kaggle/pgh&#45;kaggle&#45;comp&#45;sf&#45;crime&#45;classification#159253010&#45;&gt;http://purl.org/dj/kaggle/pgh&#45;kaggle&#45;comp&#45;sf&#45;crime&#45;classification</title>
<path fill="none" stroke="black" d="M165.24,-142.86C216.36,-127.86 297.52,-104.63 368.39,-87 435.05,-70.41 451.26,-62.81 519.39,-54 618.1,-41.23 851.46,-32.07 1045.84,-26.33"/>
<polygon fill="black" stroke="black" points="1046.05,-29.82 1055.95,-26.03 1045.85,-22.82 1046.05,-29.82"/>
<text text-anchor="middle" x="401.39" y="-101.3" font-family="Times,serif" font-size="14.00">appearsIn ()</text>
</g>
<!-- http://purl.org/dj/kaggle/pgh&#45;kaggle&#45;comp&#45;sf&#45;crime&#45;classification#80085334 -->
<g id="node3" class="node">
<title>http://purl.org/dj/kaggle/pgh&#45;kaggle&#45;comp&#45;sf&#45;crime&#45;classification#80085334</title>
<ellipse fill="none" stroke="black" cx="592.39" cy="-213" rx="124.28" ry="18"/>
<text text-anchor="middle" x="592.39" y="-209.3" font-family="Times,serif" font-size="14.00">80085334 (pd(0): Visualisation)</text>
</g>
<!-- http://purl.org/dj/kaggle/pgh&#45;kaggle&#45;comp&#45;sf&#45;crime&#45;classification#80085334&#45;&gt;http://purl.org/dj/kaggle/pgh&#45;kaggle&#45;comp&#45;sf&#45;crime&#45;classification -->
<g id="edge2" class="edge">
<title>http://purl.org/dj/kaggle/pgh&#45;kaggle&#45;comp&#45;sf&#45;crime&#45;classification#80085334&#45;&gt;http://purl.org/dj/kaggle/pgh&#45;kaggle&#45;comp&#45;sf&#45;crime&#45;classification</title>
<path fill="none" stroke="black" d="M588.77,-194.91C586.39,-180.24 584.66,-158.72 590.39,-141 599.5,-112.83 603.94,-102.13 629.39,-87 695.75,-47.56 864.36,-30.31 1021.84,-23.04"/>
<polygon fill="black" stroke="black" points="1022.37,-26.52 1032.2,-22.57 1022.05,-19.52 1022.37,-26.52"/>
<text text-anchor="middle" x="662.39" y="-101.3" font-family="Times,serif" font-size="14.00">appearsIn ()</text>
</g>
<!-- http://purl.org/dj/python/lib/144966264 -->
<g id="node4" class="node">
<title>http://purl.org/dj/python/lib/144966264</title>
<ellipse fill="none" stroke="black" cx="813.39" cy="-105" rx="109.38" ry="18"/>
<text text-anchor="middle" x="813.39" y="-101.3" font-family="Times,serif" font-size="14.00">144966264 (pandas: Reuse)</text>
</g>
<!-- http://purl.org/dj/kaggle/pgh&#45;kaggle&#45;comp&#45;sf&#45;crime&#45;classification#80085334&#45;&gt;http://purl.org/dj/python/lib/144966264 -->
<g id="edge3" class="edge">
<title>http://purl.org/dj/kaggle/pgh&#45;kaggle&#45;comp&#45;sf&#45;crime&#45;classification#80085334&#45;&gt;http://purl.org/dj/python/lib/144966264</title>
<path fill="none" stroke="black" d="M590.45,-194.86C589.64,-178.69 591.29,-154.9 605.39,-141 613.78,-132.73 666.28,-123.93 716.43,-117.23"/>
<polygon fill="black" stroke="black" points="716.96,-120.69 726.42,-115.91 716.05,-113.75 716.96,-120.69"/>
<text text-anchor="middle" x="650.39" y="-155.3" font-family="Times,serif" font-size="14.00">assignedFrom ()</text>
</g>
<!-- http://purl.org/dj/python/lib/144966264&#45;&gt;http://purl.org/dj/kaggle/pgh&#45;kaggle&#45;comp&#45;sf&#45;crime&#45;classification -->
<g id="edge4" class="edge">
<title>http://purl.org/dj/python/lib/144966264&#45;&gt;http://purl.org/dj/kaggle/pgh&#45;kaggle&#45;comp&#45;sf&#45;crime&#45;classification</title>
<path fill="none" stroke="black" d="M845.37,-87.74C869.47,-76.27 903.68,-61.64 935.39,-54 981,-43.01 1030.15,-35.34 1078.11,-30.01"/>
<polygon fill="black" stroke="black" points="1078.76,-33.46 1088.33,-28.91 1078.01,-26.5 1078.76,-33.46"/>
<text text-anchor="middle" x="974.89" y="-57.8" font-family="Times,serif" font-size="14.00">importedBy ()</text>
</g>
<!-- http://purl.org/dj/kaggle/pgh&#45;kaggle&#45;comp&#45;sf&#45;crime&#45;classification#42008801 -->
<g id="node5" class="node">
<title>http://purl.org/dj/kaggle/pgh&#45;kaggle&#45;comp&#45;sf&#45;crime&#45;classification#42008801</title>
<ellipse fill="none" stroke="black" cx="1460.39" cy="-300" rx="120.48" ry="18"/>
<text text-anchor="middle" x="1460.39" y="-296.3" font-family="Times,serif" font-size="14.00">42008801 (_(0): Visualisation)</text>
</g>
<!-- http://purl.org/dj/kaggle/pgh&#45;kaggle&#45;comp&#45;sf&#45;crime&#45;classification#42008801&#45;&gt;http://purl.org/dj/kaggle/pgh&#45;kaggle&#45;comp&#45;sf&#45;crime&#45;classification -->
<g id="edge5" class="edge">
<title>http://purl.org/dj/kaggle/pgh&#45;kaggle&#45;comp&#45;sf&#45;crime&#45;classification#42008801&#45;&gt;http://purl.org/dj/kaggle/pgh&#45;kaggle&#45;comp&#45;sf&#45;crime&#45;classification</title>
<path fill="none" stroke="black" d="M1463.72,-281.97C1472.04,-237.63 1491.67,-119.82 1472.39,-87 1459.82,-65.6 1437.79,-50.44 1415.88,-39.95"/>
<polygon fill="black" stroke="black" points="1417.08,-36.65 1406.52,-35.74 1414.2,-43.03 1417.08,-36.65"/>
<text text-anchor="middle" x="1514.39" y="-155.3" font-family="Times,serif" font-size="14.00">appearsIn ()</text>
</g>
<!-- http://purl.org/dj/kaggle/pgh&#45;kaggle&#45;comp&#45;sf&#45;crime&#45;classification#83689828 -->
<g id="node6" class="node">
<title>http://purl.org/dj/kaggle/pgh&#45;kaggle&#45;comp&#45;sf&#45;crime&#45;classification#83689828</title>
<ellipse fill="none" stroke="black" cx="1316.39" cy="-213" rx="123.48" ry="18"/>
<text text-anchor="middle" x="1316.39" y="-209.3" font-family="Times,serif" font-size="14.00">83689828 (os(0): Visualisation)</text>
</g>
<!-- http://purl.org/dj/kaggle/pgh&#45;kaggle&#45;comp&#45;sf&#45;crime&#45;classification#42008801&#45;&gt;http://purl.org/dj/kaggle/pgh&#45;kaggle&#45;comp&#45;sf&#45;crime&#45;classification#83689828 -->
<g id="edge6" class="edge">
<title>http://purl.org/dj/kaggle/pgh&#45;kaggle&#45;comp&#45;sf&#45;crime&#45;classification#42008801&#45;&gt;http://purl.org/dj/kaggle/pgh&#45;kaggle&#45;comp&#45;sf&#45;crime&#45;classification#83689828</title>
<path fill="none" stroke="black" d="M1417.73,-283.05C1405.04,-277.65 1391.35,-271.16 1379.39,-264 1366.69,-256.4 1353.71,-246.52 1342.86,-237.56"/>
<polygon fill="black" stroke="black" points="1344.91,-234.71 1335.01,-230.93 1340.39,-240.06 1344.91,-234.71"/>
<text text-anchor="middle" x="1412.89" y="-252.8" font-family="Times,serif" font-size="14.00">iteratorOf ()</text>
</g>
<!-- http://purl.org/dj/kaggle/pgh&#45;kaggle&#45;comp&#45;sf&#45;crime&#45;classification#820184443 -->
<g id="node7" class="node">
<title>http://purl.org/dj/kaggle/pgh&#45;kaggle&#45;comp&#45;sf&#45;crime&#45;classification#820184443</title>
<ellipse fill="none" stroke="black" cx="1637.39" cy="-213" rx="141.88" ry="18"/>
<text text-anchor="middle" x="1637.39" y="-209.3" font-family="Times,serif" font-size="14.00">820184443 (/kaggle/input(0): Reuse)</text>
</g>
<!-- http://purl.org/dj/kaggle/pgh&#45;kaggle&#45;comp&#45;sf&#45;crime&#45;classification#42008801&#45;&gt;http://purl.org/dj/kaggle/pgh&#45;kaggle&#45;comp&#45;sf&#45;crime&#45;classification#820184443 -->
<g id="edge7" class="edge">
<title>http://purl.org/dj/kaggle/pgh&#45;kaggle&#45;comp&#45;sf&#45;crime&#45;classification#42008801&#45;&gt;http://purl.org/dj/kaggle/pgh&#45;kaggle&#45;comp&#45;sf&#45;crime&#45;classification#820184443</title>
<path fill="none" stroke="black" d="M1512.52,-283.69C1528.53,-278.26 1545.99,-271.59 1561.39,-264 1561.99,-263.7 1583.56,-249.51 1603.56,-236.32"/>
<polygon fill="black" stroke="black" points="1605.55,-239.2 1611.98,-230.77 1601.7,-233.36 1605.55,-239.2"/>
<text text-anchor="middle" x="1615.89" y="-252.8" font-family="Times,serif" font-size="14.00">iteratorOf ()</text>
</g>
<!-- http://purl.org/dj/kaggle/pgh&#45;kaggle&#45;comp&#45;sf&#45;crime&#45;classification#83689828&#45;&gt;http://purl.org/dj/kaggle/pgh&#45;kaggle&#45;comp&#45;sf&#45;crime&#45;classification -->
<g id="edge8" class="edge">
<title>http://purl.org/dj/kaggle/pgh&#45;kaggle&#45;comp&#45;sf&#45;crime&#45;classification#83689828&#45;&gt;http://purl.org/dj/kaggle/pgh&#45;kaggle&#45;comp&#45;sf&#45;crime&#45;classification</title>
<path fill="none" stroke="black" d="M1362.88,-196.27C1371.05,-191.39 1378.49,-185.08 1383.39,-177 1411.72,-130.24 1403.57,-104.81 1383.39,-54 1381.98,-50.45 1380.03,-47.06 1377.76,-43.87"/>
<polygon fill="black" stroke="black" points="1380.29,-41.44 1371.21,-35.97 1374.9,-45.91 1380.29,-41.44"/>
<text text-anchor="middle" x="1435.39" y="-101.3" font-family="Times,serif" font-size="14.00">appearsIn ()</text>
</g>
<!-- http://purl.org/dj/python/lib/22216931 -->
<g id="node8" class="node">
<title>http://purl.org/dj/python/lib/22216931</title>
<ellipse fill="none" stroke="black" cx="1273.39" cy="-105" rx="88.28" ry="18"/>
<text text-anchor="middle" x="1273.39" y="-101.3" font-family="Times,serif" font-size="14.00">22216931 (os: Reuse)</text>
</g>
<!-- http://purl.org/dj/kaggle/pgh&#45;kaggle&#45;comp&#45;sf&#45;crime&#45;classification#83689828&#45;&gt;http://purl.org/dj/python/lib/22216931 -->
<g id="edge9" class="edge">
<title>http://purl.org/dj/kaggle/pgh&#45;kaggle&#45;comp&#45;sf&#45;crime&#45;classification#83689828&#45;&gt;http://purl.org/dj/python/lib/22216931</title>
<path fill="none" stroke="black" d="M1303.58,-194.8C1299.92,-189.32 1296.17,-183.09 1293.39,-177 1287.06,-163.12 1282.29,-146.78 1279,-133.28"/>
<polygon fill="black" stroke="black" points="1282.32,-132.12 1276.67,-123.16 1275.5,-133.69 1282.32,-132.12"/>
<text text-anchor="middle" x="1338.39" y="-155.3" font-family="Times,serif" font-size="14.00">assignedFrom ()</text>
</g>
<!-- http://purl.org/dj/kaggle/pgh&#45;kaggle&#45;comp&#45;sf&#45;crime&#45;classification#820184443&#45;&gt;http://purl.org/dj/kaggle/pgh&#45;kaggle&#45;comp&#45;sf&#45;crime&#45;classification -->
<g id="edge10" class="edge">
<title>http://purl.org/dj/kaggle/pgh&#45;kaggle&#45;comp&#45;sf&#45;crime&#45;classification#820184443&#45;&gt;http://purl.org/dj/kaggle/pgh&#45;kaggle&#45;comp&#45;sf&#45;crime&#45;classification</title>
<path fill="none" stroke="black" d="M1628.18,-194.79C1609.62,-161.88 1564.41,-90.06 1505.39,-54 1494.99,-47.64 1483.56,-42.44 1471.77,-38.18"/>
<polygon fill="black" stroke="black" points="1472.84,-34.85 1462.24,-34.96 1470.6,-41.48 1472.84,-34.85"/>
<text text-anchor="middle" x="1611.39" y="-101.3" font-family="Times,serif" font-size="14.00">appearsIn ()</text>
</g>
<!-- http://purl.org/dj/python/lib/22216931&#45;&gt;http://purl.org/dj/kaggle/pgh&#45;kaggle&#45;comp&#45;sf&#45;crime&#45;classification -->
<g id="edge15" class="edge">
<title>http://purl.org/dj/python/lib/22216931&#45;&gt;http://purl.org/dj/kaggle/pgh&#45;kaggle&#45;comp&#45;sf&#45;crime&#45;classification</title>
<path fill="none" stroke="black" d="M1282.04,-86.73C1287.61,-76.57 1295.46,-63.83 1304.39,-54 1308.1,-49.92 1312.34,-45.97 1316.71,-42.29"/>
<polygon fill="black" stroke="black" points="1318.99,-44.96 1324.63,-35.99 1314.63,-39.48 1318.99,-44.96"/>
<text text-anchor="middle" x="1343.89" y="-57.8" font-family="Times,serif" font-size="14.00">importedBy ()</text>
</g>
<!-- http://purl.org/dj/kaggle/pgh&#45;kaggle&#45;comp&#45;sf&#45;crime&#45;classification#132776362 -->
<g id="node9" class="node">
<title>http://purl.org/dj/kaggle/pgh&#45;kaggle&#45;comp&#45;sf&#45;crime&#45;classification#132776362</title>
<ellipse fill="none" stroke="black" cx="397.39" cy="-300" rx="137.58" ry="18"/>
<text text-anchor="middle" x="397.39" y="-296.3" font-family="Times,serif" font-size="14.00">132776362 (pd(0)$0: Visualisation)</text>
</g>
<!-- http://purl.org/dj/kaggle/pgh&#45;kaggle&#45;comp&#45;sf&#45;crime&#45;classification#132776362&#45;&gt;http://purl.org/dj/kaggle/pgh&#45;kaggle&#45;comp&#45;sf&#45;crime&#45;classification#159253010 -->
<g id="edge11" class="edge">
<title>http://purl.org/dj/kaggle/pgh&#45;kaggle&#45;comp&#45;sf&#45;crime&#45;classification#132776362&#45;&gt;http://purl.org/dj/kaggle/pgh&#45;kaggle&#45;comp&#45;sf&#45;crime&#45;classification#159253010</title>
<path fill="none" stroke="black" d="M362.31,-282.58C349.98,-276.77 336.05,-270.14 323.39,-264 265.08,-235.71 198.07,-202.18 155.98,-181"/>
<polygon fill="black" stroke="black" points="157.38,-177.79 146.87,-176.41 154.23,-184.04 157.38,-177.79"/>
<text text-anchor="middle" x="358.39" y="-252.8" font-family="Times,serif" font-size="14.00">set_option ()</text>
</g>
<!-- http://purl.org/dj/kaggle/pgh&#45;kaggle&#45;comp&#45;sf&#45;crime&#45;classification#132776362&#45;&gt;http://purl.org/dj/kaggle/pgh&#45;kaggle&#45;comp&#45;sf&#45;crime&#45;classification#80085334 -->
<g id="edge12" class="edge">
<title>http://purl.org/dj/kaggle/pgh&#45;kaggle&#45;comp&#45;sf&#45;crime&#45;classification#132776362&#45;&gt;http://purl.org/dj/kaggle/pgh&#45;kaggle&#45;comp&#45;sf&#45;crime&#45;classification#80085334</title>
<path fill="none" stroke="black" d="M434.99,-282.61C466.65,-268.81 512.08,-249.01 546,-234.22"/>
<polygon fill="black" stroke="black" points="547.47,-237.4 555.24,-230.19 544.67,-230.98 547.47,-237.4"/>
<text text-anchor="middle" x="542.39" y="-252.8" font-family="Times,serif" font-size="14.00">set_option ()</text>
</g>
<!-- http://purl.org/dj/kaggle/pgh&#45;kaggle&#45;comp&#45;sf&#45;crime&#45;classification#1274283798 -->
<g id="node10" class="node">
<title>http://purl.org/dj/kaggle/pgh&#45;kaggle&#45;comp&#45;sf&#45;crime&#45;classification#1274283798</title>
<ellipse fill="none" stroke="black" cx="397.39" cy="-159" rx="163.57" ry="18"/>
<text text-anchor="middle" x="397.39" y="-155.3" font-family="Times,serif" font-size="14.00">1274283798 (display.max_rows(0): Reuse)</text>
</g>
<!-- http://purl.org/dj/kaggle/pgh&#45;kaggle&#45;comp&#45;sf&#45;crime&#45;classification#132776362&#45;&gt;http://purl.org/dj/kaggle/pgh&#45;kaggle&#45;comp&#45;sf&#45;crime&#45;classification#1274283798 -->
<g id="edge13" class="edge">
<title>http://purl.org/dj/kaggle/pgh&#45;kaggle&#45;comp&#45;sf&#45;crime&#45;classification#132776362&#45;&gt;http://purl.org/dj/kaggle/pgh&#45;kaggle&#45;comp&#45;sf&#45;crime&#45;classification#1274283798</title>
<path fill="none" stroke="black" d="M397.39,-281.96C397.39,-258.4 397.39,-215.64 397.39,-187.53"/>
<polygon fill="black" stroke="black" points="400.89,-187.18 397.39,-177.18 393.89,-187.18 400.89,-187.18"/>
<text text-anchor="middle" x="432.39" y="-252.8" font-family="Times,serif" font-size="14.00">set_option ()</text>
</g>
<!-- http://purl.org/dj/kaggle/pgh&#45;kaggle&#45;comp&#45;sf&#45;crime&#45;classification#1274283798&#45;&gt;http://purl.org/dj/kaggle/pgh&#45;kaggle&#45;comp&#45;sf&#45;crime&#45;classification -->
<g id="edge14" class="edge">
<title>http://purl.org/dj/kaggle/pgh&#45;kaggle&#45;comp&#45;sf&#45;crime&#45;classification#1274283798&#45;&gt;http://purl.org/dj/kaggle/pgh&#45;kaggle&#45;comp&#45;sf&#45;crime&#45;classification</title>
<path fill="none" stroke="black" d="M415.28,-140.93C443.68,-115.27 502.08,-68.24 562.39,-54 647.08,-34 841.91,-25.23 1016.63,-21.47"/>
<polygon fill="black" stroke="black" points="1016.86,-24.97 1026.78,-21.26 1016.71,-17.97 1016.86,-24.97"/>
<text text-anchor="middle" x="519.39" y="-101.3" font-family="Times,serif" font-size="14.00">appearsIn ()</text>
</g>
<!-- http://purl.org/dj/kaggle/pgh&#45;kaggle&#45;comp&#45;sf&#45;crime&#45;classification#188285460 -->
<g id="node11" class="node">
<title>http://purl.org/dj/kaggle/pgh&#45;kaggle&#45;comp&#45;sf&#45;crime&#45;classification#188285460</title>
<ellipse fill="none" stroke="black" cx="791.39" cy="-474" rx="133.48" ry="18"/>
<text text-anchor="middle" x="791.39" y="-470.3" font-family="Times,serif" font-size="14.00">188285460 (sfc(0)$2: Preparation)</text>
</g>
<!-- http://purl.org/dj/kaggle/pgh&#45;kaggle&#45;comp&#45;sf&#45;crime&#45;classification#188219923 -->
<g id="node12" class="node">
<title>http://purl.org/dj/kaggle/pgh&#45;kaggle&#45;comp&#45;sf&#45;crime&#45;classification#188219923</title>
<ellipse fill="none" stroke="black" cx="791.39" cy="-387" rx="133.48" ry="18"/>
<text text-anchor="middle" x="791.39" y="-383.3" font-family="Times,serif" font-size="14.00">188219923 (sfc(0)$1: Preparation)</text>
</g>
<!-- http://purl.org/dj/kaggle/pgh&#45;kaggle&#45;comp&#45;sf&#45;crime&#45;classification#188285460&#45;&gt;http://purl.org/dj/kaggle/pgh&#45;kaggle&#45;comp&#45;sf&#45;crime&#45;classification#188219923 -->
<g id="edge16" class="edge">
<title>http://purl.org/dj/kaggle/pgh&#45;kaggle&#45;comp&#45;sf&#45;crime&#45;classification#188285460&#45;&gt;http://purl.org/dj/kaggle/pgh&#45;kaggle&#45;comp&#45;sf&#45;crime&#45;classification#188219923</title>
<path fill="none" stroke="black" d="M791.39,-455.8C791.39,-444.16 791.39,-428.55 791.39,-415.24"/>
<polygon fill="black" stroke="black" points="794.89,-415.18 791.39,-405.18 787.89,-415.18 794.89,-415.18"/>
<text text-anchor="middle" x="810.89" y="-426.8" font-family="Times,serif" font-size="14.00">head ()</text>
</g>
<!-- http://purl.org/dj/kaggle/pgh&#45;kaggle&#45;comp&#45;sf&#45;crime&#45;classification#188154386 -->
<g id="node13" class="node">
<title>http://purl.org/dj/kaggle/pgh&#45;kaggle&#45;comp&#45;sf&#45;crime&#45;classification#188154386</title>
<ellipse fill="none" stroke="black" cx="791.39" cy="-300" rx="131.88" ry="18"/>
<text text-anchor="middle" x="791.39" y="-296.3" font-family="Times,serif" font-size="14.00">188154386 (sfc(0)$0: Movement)</text>
</g>
<!-- http://purl.org/dj/kaggle/pgh&#45;kaggle&#45;comp&#45;sf&#45;crime&#45;classification#188219923&#45;&gt;http://purl.org/dj/kaggle/pgh&#45;kaggle&#45;comp&#45;sf&#45;crime&#45;classification#188154386 -->
<g id="edge17" class="edge">
<title>http://purl.org/dj/kaggle/pgh&#45;kaggle&#45;comp&#45;sf&#45;crime&#45;classification#188219923&#45;&gt;http://purl.org/dj/kaggle/pgh&#45;kaggle&#45;comp&#45;sf&#45;crime&#45;classification#188154386</title>
<path fill="none" stroke="black" d="M791.39,-368.8C791.39,-357.16 791.39,-341.55 791.39,-328.24"/>
<polygon fill="black" stroke="black" points="794.89,-328.18 791.39,-318.18 787.89,-328.18 794.89,-328.18"/>
<text text-anchor="middle" x="810.89" y="-339.8" font-family="Times,serif" font-size="14.00">head ()</text>
</g>
<!-- http://purl.org/dj/kaggle/pgh&#45;kaggle&#45;comp&#45;sf&#45;crime&#45;classification#188154386&#45;&gt;http://purl.org/dj/kaggle/pgh&#45;kaggle&#45;comp&#45;sf&#45;crime&#45;classification#80085334 -->
<g id="edge18" class="edge">
<title>http://purl.org/dj/kaggle/pgh&#45;kaggle&#45;comp&#45;sf&#45;crime&#45;classification#188154386&#45;&gt;http://purl.org/dj/kaggle/pgh&#45;kaggle&#45;comp&#45;sf&#45;crime&#45;classification#80085334</title>
<path fill="none" stroke="black" d="M753.02,-282.61C720.71,-268.81 674.35,-249.01 639.73,-234.22"/>
<polygon fill="black" stroke="black" points="640.87,-230.9 630.3,-230.19 638.12,-237.34 640.87,-230.9"/>
<text text-anchor="middle" x="734.89" y="-252.8" font-family="Times,serif" font-size="14.00">read_csv ()</text>
</g>
<!-- http://purl.org/dj/kaggle/pgh&#45;kaggle&#45;comp&#45;sf&#45;crime&#45;classification#547032584 -->
<g id="node14" class="node">
<title>http://purl.org/dj/kaggle/pgh&#45;kaggle&#45;comp&#45;sf&#45;crime&#45;classification#547032584</title>
<ellipse fill="none" stroke="black" cx="923.39" cy="-159" rx="219.06" ry="18"/>
<text text-anchor="middle" x="923.39" y="-155.3" font-family="Times,serif" font-size="14.00">547032584 (/kaggle/input/sf&#45;crime/train.csv.zip(0): Reuse)</text>
</g>
<!-- http://purl.org/dj/kaggle/pgh&#45;kaggle&#45;comp&#45;sf&#45;crime&#45;classification#188154386&#45;&gt;http://purl.org/dj/kaggle/pgh&#45;kaggle&#45;comp&#45;sf&#45;crime&#45;classification#547032584 -->
<g id="edge19" class="edge">
<title>http://purl.org/dj/kaggle/pgh&#45;kaggle&#45;comp&#45;sf&#45;crime&#45;classification#188154386&#45;&gt;http://purl.org/dj/kaggle/pgh&#45;kaggle&#45;comp&#45;sf&#45;crime&#45;classification#547032584</title>
<path fill="none" stroke="black" d="M807.58,-281.96C830.73,-257.57 873.45,-212.59 900.03,-184.6"/>
<polygon fill="black" stroke="black" points="902.72,-186.85 907.07,-177.18 897.65,-182.02 902.72,-186.85"/>
<text text-anchor="middle" x="868.89" y="-252.8" font-family="Times,serif" font-size="14.00">read_csv ()</text>
</g>
<!-- http://purl.org/dj/kaggle/pgh&#45;kaggle&#45;comp&#45;sf&#45;crime&#45;classification#547032584&#45;&gt;http://purl.org/dj/kaggle/pgh&#45;kaggle&#45;comp&#45;sf&#45;crime&#45;classification -->
<g id="edge20" class="edge">
<title>http://purl.org/dj/kaggle/pgh&#45;kaggle&#45;comp&#45;sf&#45;crime&#45;classification#547032584&#45;&gt;http://purl.org/dj/kaggle/pgh&#45;kaggle&#45;comp&#45;sf&#45;crime&#45;classification</title>
<path fill="none" stroke="black" d="M952.58,-141C993.75,-117.79 1071.85,-76.49 1143.39,-54 1166,-46.89 1190.49,-41.14 1214.43,-36.5"/>
<polygon fill="black" stroke="black" points="1215.11,-39.94 1224.29,-34.65 1213.82,-33.06 1215.11,-39.94"/>
<text text-anchor="middle" x="1088.39" y="-101.3" font-family="Times,serif" font-size="14.00">appearsIn ()</text>
</g>
<!-- http://purl.org/dj/kaggle/pgh&#45;kaggle&#45;comp&#45;sf&#45;crime&#45;classification#417399731 -->
<g id="node15" class="node">
<title>http://purl.org/dj/kaggle/pgh&#45;kaggle&#45;comp&#45;sf&#45;crime&#45;classification#417399731</title>
<ellipse fill="none" stroke="black" cx="1172.39" cy="-474" rx="147.57" ry="18"/>
<text text-anchor="middle" x="1172.39" y="-470.3" font-family="Times,serif" font-size="14.00">417399731 (print[15/8]: Visualisation)</text>
</g>
<!-- http://purl.org/dj/kaggle/pgh&#45;kaggle&#45;comp&#45;sf&#45;crime&#45;classification#417399731&#45;&gt;http://purl.org/dj/kaggle/pgh&#45;kaggle&#45;comp&#45;sf&#45;crime&#45;classification#83689828 -->
<g id="edge21" class="edge">
<title>http://purl.org/dj/kaggle/pgh&#45;kaggle&#45;comp&#45;sf&#45;crime&#45;classification#417399731&#45;&gt;http://purl.org/dj/kaggle/pgh&#45;kaggle&#45;comp&#45;sf&#45;crime&#45;classification#83689828</title>
<path fill="none" stroke="black" d="M1139.9,-456.29C1079.87,-423.27 962.24,-347.2 1014.39,-282 1038.28,-252.13 1128.99,-234.45 1204.82,-224.64"/>
<polygon fill="black" stroke="black" points="1205.45,-228.09 1214.93,-223.37 1204.57,-221.15 1205.45,-228.09"/>
<text text-anchor="middle" x="1030.89" y="-339.8" font-family="Times,serif" font-size="14.00">print ()</text>
</g>
<!-- http://purl.org/dj/kaggle/pgh&#45;kaggle&#45;comp&#45;sf&#45;crime&#45;classification#355533666 -->
<g id="node16" class="node">
<title>http://purl.org/dj/kaggle/pgh&#45;kaggle&#45;comp&#45;sf&#45;crime&#45;classification#355533666</title>
<ellipse fill="none" stroke="black" cx="1172.39" cy="-300" rx="149.47" ry="18"/>
<text text-anchor="middle" x="1172.39" y="-296.3" font-family="Times,serif" font-size="14.00">355533666 (dirname(0): Visualisation)</text>
</g>
<!-- http://purl.org/dj/kaggle/pgh&#45;kaggle&#45;comp&#45;sf&#45;crime&#45;classification#417399731&#45;&gt;http://purl.org/dj/kaggle/pgh&#45;kaggle&#45;comp&#45;sf&#45;crime&#45;classification#355533666 -->
<g id="edge22" class="edge">
<title>http://purl.org/dj/kaggle/pgh&#45;kaggle&#45;comp&#45;sf&#45;crime&#45;classification#417399731&#45;&gt;http://purl.org/dj/kaggle/pgh&#45;kaggle&#45;comp&#45;sf&#45;crime&#45;classification#355533666</title>
<path fill="none" stroke="black" d="M1172.39,-455.88C1172.39,-426 1172.39,-364.11 1172.39,-328.27"/>
<polygon fill="black" stroke="black" points="1175.89,-328.05 1172.39,-318.05 1168.89,-328.05 1175.89,-328.05"/>
<text text-anchor="middle" x="1191.89" y="-383.3" font-family="Times,serif" font-size="14.00">print ()</text>
</g>
<!-- http://purl.org/dj/kaggle/pgh&#45;kaggle&#45;comp&#45;sf&#45;crime&#45;classification#427361219 -->
<g id="node17" class="node">
<title>http://purl.org/dj/kaggle/pgh&#45;kaggle&#45;comp&#45;sf&#45;crime&#45;classification#427361219</title>
<ellipse fill="none" stroke="black" cx="1752.39" cy="-387" rx="150.57" ry="18"/>
<text text-anchor="middle" x="1752.39" y="-383.3" font-family="Times,serif" font-size="14.00">427361219 (filename(0): Visualisation)</text>
</g>
<!-- http://purl.org/dj/kaggle/pgh&#45;kaggle&#45;comp&#45;sf&#45;crime&#45;classification#417399731&#45;&gt;http://purl.org/dj/kaggle/pgh&#45;kaggle&#45;comp&#45;sf&#45;crime&#45;classification#427361219 -->
<g id="edge23" class="edge">
<title>http://purl.org/dj/kaggle/pgh&#45;kaggle&#45;comp&#45;sf&#45;crime&#45;classification#417399731&#45;&gt;http://purl.org/dj/kaggle/pgh&#45;kaggle&#45;comp&#45;sf&#45;crime&#45;classification#427361219</title>
<path fill="none" stroke="black" d="M1262.7,-459.77C1367.83,-444.36 1541.02,-418.98 1650.77,-402.89"/>
<polygon fill="black" stroke="black" points="1651.47,-406.33 1660.86,-401.41 1650.46,-399.4 1651.47,-406.33"/>
<text text-anchor="middle" x="1516.89" y="-426.8" font-family="Times,serif" font-size="14.00">print ()</text>
</g>
<!-- http://purl.org/dj/kaggle/pgh&#45;kaggle&#45;comp&#45;sf&#45;crime&#45;classification#355533666&#45;&gt;http://purl.org/dj/kaggle/pgh&#45;kaggle&#45;comp&#45;sf&#45;crime&#45;classification -->
<g id="edge24" class="edge">
<title>http://purl.org/dj/kaggle/pgh&#45;kaggle&#45;comp&#45;sf&#45;crime&#45;classification#355533666&#45;&gt;http://purl.org/dj/kaggle/pgh&#45;kaggle&#45;comp&#45;sf&#45;crime&#45;classification</title>
<path fill="none" stroke="black" d="M1166.92,-281.97C1155.64,-243.3 1134.2,-147.56 1176.39,-87 1192.41,-64.01 1217.43,-48.79 1243.56,-38.72"/>
<polygon fill="black" stroke="black" points="1245,-41.92 1253.22,-35.24 1242.62,-35.34 1245,-41.92"/>
<text text-anchor="middle" x="1188.39" y="-155.3" font-family="Times,serif" font-size="14.00">appearsIn ()</text>
</g>
<!-- http://purl.org/dj/kaggle/pgh&#45;kaggle&#45;comp&#45;sf&#45;crime&#45;classification#355533666&#45;&gt;http://purl.org/dj/kaggle/pgh&#45;kaggle&#45;comp&#45;sf&#45;crime&#45;classification#83689828 -->
<g id="edge25" class="edge">
<title>http://purl.org/dj/kaggle/pgh&#45;kaggle&#45;comp&#45;sf&#45;crime&#45;classification#355533666&#45;&gt;http://purl.org/dj/kaggle/pgh&#45;kaggle&#45;comp&#45;sf&#45;crime&#45;classification#83689828</title>
<path fill="none" stroke="black" d="M1200.84,-282.21C1223.32,-268.93 1254.88,-250.31 1279.34,-235.87"/>
<polygon fill="black" stroke="black" points="1281.17,-238.86 1288,-230.76 1277.61,-232.83 1281.17,-238.86"/>
<text text-anchor="middle" x="1286.89" y="-252.8" font-family="Times,serif" font-size="14.00">iteratorOf ()</text>
</g>
<!-- http://purl.org/dj/kaggle/pgh&#45;kaggle&#45;comp&#45;sf&#45;crime&#45;classification#355533666&#45;&gt;http://purl.org/dj/kaggle/pgh&#45;kaggle&#45;comp&#45;sf&#45;crime&#45;classification#820184443 -->
<g id="edge26" class="edge">
<title>http://purl.org/dj/kaggle/pgh&#45;kaggle&#45;comp&#45;sf&#45;crime&#45;classification#355533666&#45;&gt;http://purl.org/dj/kaggle/pgh&#45;kaggle&#45;comp&#45;sf&#45;crime&#45;classification#820184443</title>
<path fill="none" stroke="black" d="M1276.82,-287.04C1348.44,-278.64 1433.48,-268.17 1450.39,-264 1468.82,-259.45 1472.23,-254.54 1490.39,-249 1512.04,-242.39 1535.8,-236.26 1557.78,-231.04"/>
<polygon fill="black" stroke="black" points="1558.8,-234.39 1567.74,-228.7 1557.2,-227.58 1558.8,-234.39"/>
<text text-anchor="middle" x="1523.89" y="-252.8" font-family="Times,serif" font-size="14.00">iteratorOf ()</text>
</g>
<!-- http://purl.org/dj/kaggle/pgh&#45;kaggle&#45;comp&#45;sf&#45;crime&#45;classification#427361219&#45;&gt;http://purl.org/dj/kaggle/pgh&#45;kaggle&#45;comp&#45;sf&#45;crime&#45;classification -->
<g id="edge27" class="edge">
<title>http://purl.org/dj/kaggle/pgh&#45;kaggle&#45;comp&#45;sf&#45;crime&#45;classification#427361219&#45;&gt;http://purl.org/dj/kaggle/pgh&#45;kaggle&#45;comp&#45;sf&#45;crime&#45;classification</title>
<path fill="none" stroke="black" d="M1855.88,-373.91C1896.86,-362.79 1934.39,-341.54 1934.39,-301 1934.39,-301 1934.39,-301 1934.39,-104 1934.39,-66.77 1746.17,-44.42 1583.44,-32.05"/>
<polygon fill="black" stroke="black" points="1583.49,-28.54 1573.26,-31.29 1582.97,-35.52 1583.49,-28.54"/>
<text text-anchor="middle" x="1967.39" y="-209.3" font-family="Times,serif" font-size="14.00">appearsIn ()</text>
</g>
<!-- http://purl.org/dj/kaggle/pgh&#45;kaggle&#45;comp&#45;sf&#45;crime&#45;classification#512164918 -->
<g id="node18" class="node">
<title>http://purl.org/dj/kaggle/pgh&#45;kaggle&#45;comp&#45;sf&#45;crime&#45;classification#512164918</title>
<ellipse fill="none" stroke="black" cx="1752.39" cy="-300" rx="154.07" ry="18"/>
<text text-anchor="middle" x="1752.39" y="-296.3" font-family="Times,serif" font-size="14.00">512164918 (filenames(0): Visualisation)</text>
</g>
<!-- http://purl.org/dj/kaggle/pgh&#45;kaggle&#45;comp&#45;sf&#45;crime&#45;classification#427361219&#45;&gt;http://purl.org/dj/kaggle/pgh&#45;kaggle&#45;comp&#45;sf&#45;crime&#45;classification#512164918 -->
<g id="edge28" class="edge">
<title>http://purl.org/dj/kaggle/pgh&#45;kaggle&#45;comp&#45;sf&#45;crime&#45;classification#427361219&#45;&gt;http://purl.org/dj/kaggle/pgh&#45;kaggle&#45;comp&#45;sf&#45;crime&#45;classification#512164918</title>
<path fill="none" stroke="black" d="M1752.39,-368.8C1752.39,-357.16 1752.39,-341.55 1752.39,-328.24"/>
<polygon fill="black" stroke="black" points="1755.89,-328.18 1752.39,-318.18 1748.89,-328.18 1755.89,-328.18"/>
<text text-anchor="middle" x="1785.89" y="-339.8" font-family="Times,serif" font-size="14.00">iteratorOf ()</text>
</g>
<!-- http://purl.org/dj/kaggle/pgh&#45;kaggle&#45;comp&#45;sf&#45;crime&#45;classification#512164918&#45;&gt;http://purl.org/dj/kaggle/pgh&#45;kaggle&#45;comp&#45;sf&#45;crime&#45;classification -->
<g id="edge33" class="edge">
<title>http://purl.org/dj/kaggle/pgh&#45;kaggle&#45;comp&#45;sf&#45;crime&#45;classification#512164918&#45;&gt;http://purl.org/dj/kaggle/pgh&#45;kaggle&#45;comp&#45;sf&#45;crime&#45;classification</title>
<path fill="none" stroke="black" d="M1800.6,-282.78C1808.48,-277.97 1815.62,-271.82 1820.39,-264 1823.86,-258.31 1822.15,-255.43 1820.39,-249 1792.63,-147.72 1742.26,-134.08 1648.39,-87 1599.37,-62.41 1541.37,-46.6 1489.62,-36.48"/>
<polygon fill="black" stroke="black" points="1490.18,-33.02 1479.7,-34.59 1488.87,-39.9 1490.18,-33.02"/>
<text text-anchor="middle" x="1821.39" y="-155.3" font-family="Times,serif" font-size="14.00">appearsIn ()</text>
</g>
<!-- http://purl.org/dj/kaggle/pgh&#45;kaggle&#45;comp&#45;sf&#45;crime&#45;classification#512164918&#45;&gt;http://purl.org/dj/kaggle/pgh&#45;kaggle&#45;comp&#45;sf&#45;crime&#45;classification#83689828 -->
<g id="edge34" class="edge">
<title>http://purl.org/dj/kaggle/pgh&#45;kaggle&#45;comp&#45;sf&#45;crime&#45;classification#512164918&#45;&gt;http://purl.org/dj/kaggle/pgh&#45;kaggle&#45;comp&#45;sf&#45;crime&#45;classification#83689828</title>
<path fill="none" stroke="black" d="M1708.35,-282.73C1695.75,-277.41 1682.23,-271.03 1670.39,-264 1661.14,-258.51 1661.36,-253.05 1651.39,-249 1648.72,-247.91 1521.88,-234.85 1425.07,-225"/>
<polygon fill="black" stroke="black" points="1425.21,-221.5 1414.91,-223.97 1424.5,-228.46 1425.21,-221.5"/>
<text text-anchor="middle" x="1703.89" y="-252.8" font-family="Times,serif" font-size="14.00">iteratorOf ()</text>
</g>
<!-- http://purl.org/dj/kaggle/pgh&#45;kaggle&#45;comp&#45;sf&#45;crime&#45;classification#512164918&#45;&gt;http://purl.org/dj/kaggle/pgh&#45;kaggle&#45;comp&#45;sf&#45;crime&#45;classification#820184443 -->
<g id="edge35" class="edge">
<title>http://purl.org/dj/kaggle/pgh&#45;kaggle&#45;comp&#45;sf&#45;crime&#45;classification#512164918&#45;&gt;http://purl.org/dj/kaggle/pgh&#45;kaggle&#45;comp&#45;sf&#45;crime&#45;classification#820184443</title>
<path fill="none" stroke="black" d="M1752.7,-281.8C1751.99,-271.15 1749.34,-257.86 1741.39,-249 1735.58,-242.53 1728.54,-237.25 1720.89,-232.95"/>
<polygon fill="black" stroke="black" points="1722.17,-229.68 1711.66,-228.34 1719.04,-235.94 1722.17,-229.68"/>
<text text-anchor="middle" x="1782.89" y="-252.8" font-family="Times,serif" font-size="14.00">iteratorOf ()</text>
</g>
<!-- http://purl.org/dj/python/lib/111084090 -->
<g id="node19" class="node">
<title>http://purl.org/dj/python/lib/111084090</title>
<ellipse fill="none" stroke="black" cx="2072.39" cy="-105" rx="109.68" ry="18"/>
<text text-anchor="middle" x="2072.39" y="-101.3" font-family="Times,serif" font-size="14.00">111084090 (numpy: Reuse)</text>
</g>
<!-- http://purl.org/dj/python/lib/111084090&#45;&gt;http://purl.org/dj/kaggle/pgh&#45;kaggle&#45;comp&#45;sf&#45;crime&#45;classification -->
<g id="edge29" class="edge">
<title>http://purl.org/dj/python/lib/111084090&#45;&gt;http://purl.org/dj/kaggle/pgh&#45;kaggle&#45;comp&#45;sf&#45;crime&#45;classification</title>
<path fill="none" stroke="black" d="M2040.43,-87.75C2015.92,-76.12 1980.89,-61.3 1948.39,-54 1890.71,-41.05 1766.34,-32.7 1645.88,-27.42"/>
<polygon fill="black" stroke="black" points="1645.88,-23.91 1635.73,-26.98 1645.57,-30.91 1645.88,-23.91"/>
<text text-anchor="middle" x="2032.89" y="-57.8" font-family="Times,serif" font-size="14.00">importedBy ()</text>
</g>
<!-- http://purl.org/dj/kaggle/pgh&#45;kaggle&#45;comp&#45;sf&#45;crime&#45;classification#188613145 -->
<g id="node20" class="node">
<title>http://purl.org/dj/kaggle/pgh&#45;kaggle&#45;comp&#45;sf&#45;crime&#45;classification#188613145</title>
<ellipse fill="none" stroke="black" cx="791.39" cy="-909" rx="114.28" ry="18"/>
<text text-anchor="middle" x="791.39" y="-905.3" font-family="Times,serif" font-size="14.00">188613145 (sfc(0)$7: Reuse)</text>
</g>
<!-- http://purl.org/dj/kaggle/pgh&#45;kaggle&#45;comp&#45;sf&#45;crime&#45;classification#188547608 -->
<g id="node21" class="node">
<title>http://purl.org/dj/kaggle/pgh&#45;kaggle&#45;comp&#45;sf&#45;crime&#45;classification#188547608</title>
<ellipse fill="none" stroke="black" cx="791.39" cy="-822" rx="114.28" ry="18"/>
<text text-anchor="middle" x="791.39" y="-818.3" font-family="Times,serif" font-size="14.00">188547608 (sfc(0)$6: Reuse)</text>
</g>
<!-- http://purl.org/dj/kaggle/pgh&#45;kaggle&#45;comp&#45;sf&#45;crime&#45;classification#188613145&#45;&gt;http://purl.org/dj/kaggle/pgh&#45;kaggle&#45;comp&#45;sf&#45;crime&#45;classification#188547608 -->
<g id="edge30" class="edge">
<title>http://purl.org/dj/kaggle/pgh&#45;kaggle&#45;comp&#45;sf&#45;crime&#45;classification#188613145&#45;&gt;http://purl.org/dj/kaggle/pgh&#45;kaggle&#45;comp&#45;sf&#45;crime&#45;classification#188547608</title>
<path fill="none" stroke="black" d="M791.39,-890.8C791.39,-879.16 791.39,-863.55 791.39,-850.24"/>
<polygon fill="black" stroke="black" points="794.89,-850.18 791.39,-840.18 787.89,-850.18 794.89,-850.18"/>
<text text-anchor="middle" x="833.89" y="-861.8" font-family="Times,serif" font-size="14.00">value_counts ()</text>
</g>
<!-- http://purl.org/dj/kaggle/pgh&#45;kaggle&#45;comp&#45;sf&#45;crime&#45;classification#188482071 -->
<g id="node22" class="node">
<title>http://purl.org/dj/kaggle/pgh&#45;kaggle&#45;comp&#45;sf&#45;crime&#45;classification#188482071</title>
<ellipse fill="none" stroke="black" cx="791.39" cy="-735" rx="114.28" ry="18"/>
<text text-anchor="middle" x="791.39" y="-731.3" font-family="Times,serif" font-size="14.00">188482071 (sfc(0)$5: Reuse)</text>
</g>
<!-- http://purl.org/dj/kaggle/pgh&#45;kaggle&#45;comp&#45;sf&#45;crime&#45;classification#188547608&#45;&gt;http://purl.org/dj/kaggle/pgh&#45;kaggle&#45;comp&#45;sf&#45;crime&#45;classification#188482071 -->
<g id="edge31" class="edge">
<title>http://purl.org/dj/kaggle/pgh&#45;kaggle&#45;comp&#45;sf&#45;crime&#45;classification#188547608&#45;&gt;http://purl.org/dj/kaggle/pgh&#45;kaggle&#45;comp&#45;sf&#45;crime&#45;classification#188482071</title>
<path fill="none" stroke="black" d="M791.39,-803.8C791.39,-792.16 791.39,-776.55 791.39,-763.24"/>
<polygon fill="black" stroke="black" points="794.89,-763.18 791.39,-753.18 787.89,-763.18 794.89,-763.18"/>
<text text-anchor="middle" x="833.89" y="-774.8" font-family="Times,serif" font-size="14.00">value_counts ()</text>
</g>
<!-- http://purl.org/dj/kaggle/pgh&#45;kaggle&#45;comp&#45;sf&#45;crime&#45;classification#188416534 -->
<g id="node23" class="node">
<title>http://purl.org/dj/kaggle/pgh&#45;kaggle&#45;comp&#45;sf&#45;crime&#45;classification#188416534</title>
<ellipse fill="none" stroke="black" cx="791.39" cy="-648" rx="114.28" ry="18"/>
<text text-anchor="middle" x="791.39" y="-644.3" font-family="Times,serif" font-size="14.00">188416534 (sfc(0)$4: Reuse)</text>
</g>
<!-- http://purl.org/dj/kaggle/pgh&#45;kaggle&#45;comp&#45;sf&#45;crime&#45;classification#188482071&#45;&gt;http://purl.org/dj/kaggle/pgh&#45;kaggle&#45;comp&#45;sf&#45;crime&#45;classification#188416534 -->
<g id="edge32" class="edge">
<title>http://purl.org/dj/kaggle/pgh&#45;kaggle&#45;comp&#45;sf&#45;crime&#45;classification#188482071&#45;&gt;http://purl.org/dj/kaggle/pgh&#45;kaggle&#45;comp&#45;sf&#45;crime&#45;classification#188416534</title>
<path fill="none" stroke="black" d="M791.39,-716.8C791.39,-705.16 791.39,-689.55 791.39,-676.24"/>
<polygon fill="black" stroke="black" points="794.89,-676.18 791.39,-666.18 787.89,-676.18 794.89,-676.18"/>
<text text-anchor="middle" x="833.89" y="-687.8" font-family="Times,serif" font-size="14.00">value_counts ()</text>
</g>
<!-- http://purl.org/dj/kaggle/pgh&#45;kaggle&#45;comp&#45;sf&#45;crime&#45;classification#188350997 -->
<g id="node25" class="node">
<title>http://purl.org/dj/kaggle/pgh&#45;kaggle&#45;comp&#45;sf&#45;crime&#45;classification#188350997</title>
<ellipse fill="none" stroke="black" cx="791.39" cy="-561" rx="114.28" ry="18"/>
<text text-anchor="middle" x="791.39" y="-557.3" font-family="Times,serif" font-size="14.00">188350997 (sfc(0)$3: Reuse)</text>
</g>
<!-- http://purl.org/dj/kaggle/pgh&#45;kaggle&#45;comp&#45;sf&#45;crime&#45;classification#188416534&#45;&gt;http://purl.org/dj/kaggle/pgh&#45;kaggle&#45;comp&#45;sf&#45;crime&#45;classification#188350997 -->
<g id="edge38" class="edge">
<title>http://purl.org/dj/kaggle/pgh&#45;kaggle&#45;comp&#45;sf&#45;crime&#45;classification#188416534&#45;&gt;http://purl.org/dj/kaggle/pgh&#45;kaggle&#45;comp&#45;sf&#45;crime&#45;classification#188350997</title>
<path fill="none" stroke="black" d="M791.39,-629.8C791.39,-618.16 791.39,-602.55 791.39,-589.24"/>
<polygon fill="black" stroke="black" points="794.89,-589.18 791.39,-579.18 787.89,-589.18 794.89,-589.18"/>
<text text-anchor="middle" x="833.89" y="-600.8" font-family="Times,serif" font-size="14.00">value_counts ()</text>
</g>
<!-- http://purl.org/dj/kaggle/pgh&#45;kaggle&#45;comp&#45;sf&#45;crime&#45;classification#82575712 -->
<g id="node24" class="node">
<title>http://purl.org/dj/kaggle/pgh&#45;kaggle&#45;comp&#45;sf&#45;crime&#45;classification#82575712</title>
<ellipse fill="none" stroke="black" cx="2180.39" cy="-213" rx="124.28" ry="18"/>
<text text-anchor="middle" x="2180.39" y="-209.3" font-family="Times,serif" font-size="14.00">82575712 (np(0): Visualisation)</text>
</g>
<!-- http://purl.org/dj/kaggle/pgh&#45;kaggle&#45;comp&#45;sf&#45;crime&#45;classification#82575712&#45;&gt;http://purl.org/dj/kaggle/pgh&#45;kaggle&#45;comp&#45;sf&#45;crime&#45;classification -->
<g id="edge36" class="edge">
<title>http://purl.org/dj/kaggle/pgh&#45;kaggle&#45;comp&#45;sf&#45;crime&#45;classification#82575712&#45;&gt;http://purl.org/dj/kaggle/pgh&#45;kaggle&#45;comp&#45;sf&#45;crime&#45;classification</title>
<path fill="none" stroke="black" d="M2195.1,-194.93C2198.88,-189.54 2202.43,-183.33 2204.39,-177 2216.35,-138.4 2219.34,-116.19 2191.39,-87 2154.61,-48.6 2128.85,-62.67 2076.39,-54 1996.59,-40.81 1814.67,-32.05 1652.91,-26.6"/>
<polygon fill="black" stroke="black" points="1652.89,-23.1 1642.77,-26.26 1652.65,-30.09 1652.89,-23.1"/>
<text text-anchor="middle" x="2244.39" y="-101.3" font-family="Times,serif" font-size="14.00">appearsIn ()</text>
</g>
<!-- http://purl.org/dj/kaggle/pgh&#45;kaggle&#45;comp&#45;sf&#45;crime&#45;classification#82575712&#45;&gt;http://purl.org/dj/python/lib/111084090 -->
<g id="edge37" class="edge">
<title>http://purl.org/dj/kaggle/pgh&#45;kaggle&#45;comp&#45;sf&#45;crime&#45;classification#82575712&#45;&gt;http://purl.org/dj/python/lib/111084090</title>
<path fill="none" stroke="black" d="M2141.37,-195.83C2131.85,-190.72 2122.18,-184.43 2114.39,-177 2101.26,-164.47 2090.83,-146.94 2083.66,-132.44"/>
<polygon fill="black" stroke="black" points="2086.63,-130.54 2079.21,-122.98 2080.3,-133.52 2086.63,-130.54"/>
<text text-anchor="middle" x="2159.39" y="-155.3" font-family="Times,serif" font-size="14.00">assignedFrom ()</text>
</g>
<!-- http://purl.org/dj/kaggle/pgh&#45;kaggle&#45;comp&#45;sf&#45;crime&#45;classification#188350997&#45;&gt;http://purl.org/dj/kaggle/pgh&#45;kaggle&#45;comp&#45;sf&#45;crime&#45;classification#188285460 -->
<g id="edge39" class="edge">
<title>http://purl.org/dj/kaggle/pgh&#45;kaggle&#45;comp&#45;sf&#45;crime&#45;classification#188350997&#45;&gt;http://purl.org/dj/kaggle/pgh&#45;kaggle&#45;comp&#45;sf&#45;crime&#45;classification#188285460</title>
<path fill="none" stroke="black" d="M791.39,-542.8C791.39,-531.16 791.39,-515.55 791.39,-502.24"/>
<polygon fill="black" stroke="black" points="794.89,-502.18 791.39,-492.18 787.89,-502.18 794.89,-502.18"/>
<text text-anchor="middle" x="833.89" y="-513.8" font-family="Times,serif" font-size="14.00">value_counts ()</text>
</g>
</g>
</svg>
