<?xml version="1.0" encoding="UTF-8" standalone="no"?>
<!DOCTYPE svg PUBLIC "-//W3C//DTD SVG 1.1//EN"
 "http://www.w3.org/Graphics/SVG/1.1/DTD/svg11.dtd">
<!-- Generated by graphviz version 2.47.1 (20210417.1919)
 -->
<!-- Pages: 1 -->
<svg width="1249pt" height="674pt"
 viewBox="0.00 0.00 1248.74 674.00" xmlns="http://www.w3.org/2000/svg" xmlns:xlink="http://www.w3.org/1999/xlink">
<g id="graph0" class="graph" transform="scale(1 1) rotate(0) translate(4 670)">
<polygon fill="white" stroke="transparent" points="-4,4 -4,-670 1244.74,-670 1244.74,4 -4,4"/>
<!-- http://purl.org/dj/kaggle/pipelines/activity/&#45;8303239806942031171 -->
<g id="node1" class="node">
<title>http://purl.org/dj/kaggle/pipelines/activity/&#45;8303239806942031171</title>
<ellipse fill="none" stroke="black" cx="126.74" cy="-279" rx="126.98" ry="18"/>
<text text-anchor="middle" x="126.74" y="-275.3" font-family="Times,serif" font-size="14.00">&#45;8303239806942031171 (Reuse)</text>
</g>
<!-- http://purl.org/dj/kaggle/pipelines/activity/3877197302422673954 -->
<g id="node2" class="node">
<title>http://purl.org/dj/kaggle/pipelines/activity/3877197302422673954</title>
<ellipse fill="none" stroke="black" cx="188.74" cy="-192" rx="141.88" ry="18"/>
<text text-anchor="middle" x="188.74" y="-188.3" font-family="Times,serif" font-size="14.00">3877197302422673954 (Movement)</text>
</g>
<!-- http://purl.org/dj/kaggle/pipelines/activity/&#45;8303239806942031171&#45;&gt;http://purl.org/dj/kaggle/pipelines/activity/3877197302422673954 -->
<g id="edge1" class="edge">
<title>http://purl.org/dj/kaggle/pipelines/activity/&#45;8303239806942031171&#45;&gt;http://purl.org/dj/kaggle/pipelines/activity/3877197302422673954</title>
<path fill="none" stroke="black" d="M139.29,-260.8C148.19,-248.59 160.3,-231.99 170.3,-218.28"/>
<polygon fill="black" stroke="black" points="173.15,-220.32 176.21,-210.18 167.49,-216.19 173.15,-220.32"/>
<text text-anchor="middle" x="185.24" y="-231.8" font-family="Times,serif" font-size="14.00">previous</text>
</g>
<!-- http://purl.org/dj/kaggle/pipelines/activity/&#45;5727446306090501012 -->
<g id="node3" class="node">
<title>http://purl.org/dj/kaggle/pipelines/activity/&#45;5727446306090501012</title>
<ellipse fill="none" stroke="black" cx="477.74" cy="-105" rx="126.98" ry="18"/>
<text text-anchor="middle" x="477.74" y="-101.3" font-family="Times,serif" font-size="14.00">&#45;5727446306090501012 (Reuse)</text>
</g>
<!-- http://purl.org/dj/kaggle/pipelines/activity/3877197302422673954&#45;&gt;http://purl.org/dj/kaggle/pipelines/activity/&#45;5727446306090501012 -->
<g id="edge2" class="edge">
<title>http://purl.org/dj/kaggle/pipelines/activity/3877197302422673954&#45;&gt;http://purl.org/dj/kaggle/pipelines/activity/&#45;5727446306090501012</title>
<path fill="none" stroke="black" d="M219.9,-174.29C241.28,-163.44 270.58,-149.73 297.74,-141 324.6,-132.37 354.43,-125.51 381.96,-120.25"/>
<polygon fill="black" stroke="black" points="382.8,-123.65 391.99,-118.38 381.51,-116.77 382.8,-123.65"/>
<text text-anchor="middle" x="321.24" y="-144.8" font-family="Times,serif" font-size="14.00">previous</text>
</g>
<!-- http://purl.org/dj/kaggle/pipelines/activity/&#45;5220902162932357797 -->
<g id="node4" class="node">
<title>http://purl.org/dj/kaggle/pipelines/activity/&#45;5220902162932357797</title>
<ellipse fill="none" stroke="black" cx="819.74" cy="-18" rx="145.67" ry="18"/>
<text text-anchor="middle" x="819.74" y="-14.3" font-family="Times,serif" font-size="14.00">&#45;5220902162932357797 (Preparation)</text>
</g>
<!-- http://purl.org/dj/kaggle/pipelines/activity/&#45;5727446306090501012&#45;&gt;http://purl.org/dj/kaggle/pipelines/activity/&#45;5220902162932357797 -->
<g id="edge3" class="edge">
<title>http://purl.org/dj/kaggle/pipelines/activity/&#45;5727446306090501012&#45;&gt;http://purl.org/dj/kaggle/pipelines/activity/&#45;5220902162932357797</title>
<path fill="none" stroke="black" d="M517.59,-87.84C545.53,-77.02 583.94,-63.13 618.74,-54 650.12,-45.77 684.77,-38.95 716.34,-33.58"/>
<polygon fill="black" stroke="black" points="717.19,-36.99 726.47,-31.89 716.03,-30.08 717.19,-36.99"/>
<text text-anchor="middle" x="642.24" y="-57.8" font-family="Times,serif" font-size="14.00">previous</text>
</g>
<!-- http://purl.org/dj/kaggle/pipelines -->
<g id="node5" class="node">
<title>http://purl.org/dj/kaggle/pipelines</title>
<ellipse fill="none" stroke="black" cx="477.74" cy="-18" rx="104.78" ry="18"/>
<text text-anchor="middle" x="477.74" y="-14.3" font-family="Times,serif" font-size="14.00">pipelines (pipelines.ipynb)</text>
</g>
<!-- http://purl.org/dj/kaggle/pipelines/activity/&#45;5727446306090501012&#45;&gt;http://purl.org/dj/kaggle/pipelines -->
<g id="edge4" class="edge">
<title>http://purl.org/dj/kaggle/pipelines/activity/&#45;5727446306090501012&#45;&gt;http://purl.org/dj/kaggle/pipelines</title>
<path fill="none" stroke="black" d="M477.74,-86.8C477.74,-75.16 477.74,-59.55 477.74,-46.24"/>
<polygon fill="black" stroke="black" points="481.24,-46.18 477.74,-36.18 474.24,-46.18 481.24,-46.18"/>
<text text-anchor="middle" x="501.24" y="-57.8" font-family="Times,serif" font-size="14.00">previous</text>
</g>
<!-- http://purl.org/dj/kaggle/pipelines/activity/&#45;5220902162932357797&#45;&gt;http://purl.org/dj/kaggle/pipelines/activity/&#45;8303239806942031171 -->
<g id="edge9" class="edge">
<title>http://purl.org/dj/kaggle/pipelines/activity/&#45;5220902162932357797&#45;&gt;http://purl.org/dj/kaggle/pipelines/activity/&#45;8303239806942031171</title>
<path fill="none" stroke="black" d="M699.05,-28.09C664.41,-30.68 626.58,-33.48 591.74,-36 477.98,-44.24 447.4,-30.72 335.74,-54 195.97,-83.15 116.55,-54.94 37.74,-174 17.54,-204.52 53.86,-235.96 86,-256.17"/>
<polygon fill="black" stroke="black" points="84.54,-259.37 94.91,-261.56 88.17,-253.39 84.54,-259.37"/>
<text text-anchor="middle" x="85.24" y="-144.8" font-family="Times,serif" font-size="14.00">previous</text>
</g>
<!-- http://purl.org/dj/kaggle/pipelines/activity/&#45;5220902162932357797&#45;&gt;http://purl.org/dj/kaggle/pipelines/activity/3877197302422673954 -->
<g id="edge10" class="edge">
<title>http://purl.org/dj/kaggle/pipelines/activity/&#45;5220902162932357797&#45;&gt;http://purl.org/dj/kaggle/pipelines/activity/3877197302422673954</title>
<path fill="none" stroke="black" d="M701.35,-28.57C634.38,-34.59 549.2,-43.25 473.74,-54 393.65,-65.41 366.53,-49.71 294.74,-87 258.31,-105.92 226.19,-141.54 207.11,-165.76"/>
<polygon fill="black" stroke="black" points="204.24,-163.75 200.92,-173.81 209.79,-168.02 204.24,-163.75"/>
<text text-anchor="middle" x="318.24" y="-101.3" font-family="Times,serif" font-size="14.00">previous</text>
</g>
<!-- http://purl.org/dj/kaggle/pipelines/activity/&#45;5220902162932357797&#45;&gt;http://purl.org/dj/kaggle/pipelines/activity/&#45;5727446306090501012 -->
<g id="edge11" class="edge">
<title>http://purl.org/dj/kaggle/pipelines/activity/&#45;5220902162932357797&#45;&gt;http://purl.org/dj/kaggle/pipelines/activity/&#45;5727446306090501012</title>
<path fill="none" stroke="black" d="M775.04,-35.22C744.54,-45.86 703.06,-59.51 665.74,-69 634.53,-76.94 599.98,-83.88 569.1,-89.45"/>
<polygon fill="black" stroke="black" points="568.44,-86.01 559.21,-91.21 569.67,-92.9 568.44,-86.01"/>
<text text-anchor="middle" x="740.24" y="-57.8" font-family="Times,serif" font-size="14.00">previous</text>
</g>
<!-- http://purl.org/dj/kaggle/pipelines/activity/8371713082531375799 -->
<g id="node6" class="node">
<title>http://purl.org/dj/kaggle/pipelines/activity/8371713082531375799</title>
<ellipse fill="none" stroke="black" cx="648.74" cy="-192" rx="142.97" ry="18"/>
<text text-anchor="middle" x="648.74" y="-188.3" font-family="Times,serif" font-size="14.00">8371713082531375799 (Preparation)</text>
</g>
<!-- http://purl.org/dj/kaggle/pipelines/activity/8371713082531375799&#45;&gt;http://purl.org/dj/kaggle/pipelines/activity/&#45;5727446306090501012 -->
<g id="edge5" class="edge">
<title>http://purl.org/dj/kaggle/pipelines/activity/8371713082531375799&#45;&gt;http://purl.org/dj/kaggle/pipelines/activity/&#45;5727446306090501012</title>
<path fill="none" stroke="black" d="M615.36,-174.41C588.09,-160.85 549.37,-141.6 519.94,-126.98"/>
<polygon fill="black" stroke="black" points="521.25,-123.72 510.74,-122.4 518.14,-129.99 521.25,-123.72"/>
<text text-anchor="middle" x="597.24" y="-144.8" font-family="Times,serif" font-size="14.00">previous</text>
</g>
<!-- http://purl.org/dj/kaggle/pipelines/activity/&#45;7402650381464860187 -->
<g id="node7" class="node">
<title>http://purl.org/dj/kaggle/pipelines/activity/&#45;7402650381464860187</title>
<ellipse fill="none" stroke="black" cx="632.74" cy="-279" rx="126.98" ry="18"/>
<text text-anchor="middle" x="632.74" y="-275.3" font-family="Times,serif" font-size="14.00">&#45;7402650381464860187 (Reuse)</text>
</g>
<!-- http://purl.org/dj/kaggle/pipelines/activity/8371713082531375799&#45;&gt;http://purl.org/dj/kaggle/pipelines/activity/&#45;7402650381464860187 -->
<g id="edge6" class="edge">
<title>http://purl.org/dj/kaggle/pipelines/activity/8371713082531375799&#45;&gt;http://purl.org/dj/kaggle/pipelines/activity/&#45;7402650381464860187</title>
<path fill="none" stroke="black" d="M653.57,-210.39C655.51,-220.13 656.67,-232.41 653.74,-243 652.9,-246.04 651.71,-249.09 650.33,-252.04"/>
<polygon fill="black" stroke="black" points="647.13,-250.59 645.41,-261.05 653.27,-253.95 647.13,-250.59"/>
<text text-anchor="middle" x="678.24" y="-231.8" font-family="Times,serif" font-size="14.00">previous</text>
</g>
<!-- http://purl.org/dj/kaggle/pipelines/activity/&#45;7402650381464860187&#45;&gt;http://purl.org/dj/kaggle/pipelines/activity/&#45;5220902162932357797 -->
<g id="edge8" class="edge">
<title>http://purl.org/dj/kaggle/pipelines/activity/&#45;7402650381464860187&#45;&gt;http://purl.org/dj/kaggle/pipelines/activity/&#45;5220902162932357797</title>
<path fill="none" stroke="black" d="M711.05,-264.82C743.89,-255.19 779.33,-238.59 800.74,-210 819.6,-184.81 820.97,-92.84 820.4,-46.32"/>
<polygon fill="black" stroke="black" points="823.89,-46.01 820.23,-36.07 816.89,-46.13 823.89,-46.01"/>
<text text-anchor="middle" x="840.24" y="-144.8" font-family="Times,serif" font-size="14.00">previous</text>
</g>
<!-- http://purl.org/dj/kaggle/pipelines/activity/&#45;7402650381464860187&#45;&gt;http://purl.org/dj/kaggle/pipelines/activity/8371713082531375799 -->
<g id="edge7" class="edge">
<title>http://purl.org/dj/kaggle/pipelines/activity/&#45;7402650381464860187&#45;&gt;http://purl.org/dj/kaggle/pipelines/activity/8371713082531375799</title>
<path fill="none" stroke="black" d="M612.59,-260.8C604.03,-251.33 597.16,-239.25 602.74,-228 604.8,-223.84 607.62,-220.04 610.85,-216.61"/>
<polygon fill="black" stroke="black" points="613.42,-219 618.46,-209.68 608.71,-213.83 613.42,-219"/>
<text text-anchor="middle" x="626.24" y="-231.8" font-family="Times,serif" font-size="14.00">previous</text>
</g>
<!-- http://purl.org/dj/kaggle/pipelines/activity/7332041046374309981 -->
<g id="node8" class="node">
<title>http://purl.org/dj/kaggle/pipelines/activity/7332041046374309981</title>
<ellipse fill="none" stroke="black" cx="901.74" cy="-279" rx="124.28" ry="18"/>
<text text-anchor="middle" x="901.74" y="-275.3" font-family="Times,serif" font-size="14.00">7332041046374309981 (Reuse)</text>
</g>
<!-- http://purl.org/dj/kaggle/pipelines/activity/7332041046374309981&#45;&gt;http://purl.org/dj/kaggle/pipelines/activity/&#45;5220902162932357797 -->
<g id="edge13" class="edge">
<title>http://purl.org/dj/kaggle/pipelines/activity/7332041046374309981&#45;&gt;http://purl.org/dj/kaggle/pipelines/activity/&#45;5220902162932357797</title>
<path fill="none" stroke="black" d="M898.85,-260.87C894.22,-234.69 884.25,-183.28 870.74,-141 859.93,-107.17 843.56,-69.68 832.3,-45.31"/>
<polygon fill="black" stroke="black" points="835.37,-43.6 827.96,-36.02 829.03,-46.56 835.37,-43.6"/>
<text text-anchor="middle" x="898.24" y="-144.8" font-family="Times,serif" font-size="14.00">previous</text>
</g>
<!-- http://purl.org/dj/kaggle/pipelines/activity/7332041046374309981&#45;&gt;http://purl.org/dj/kaggle/pipelines/activity/8371713082531375799 -->
<g id="edge12" class="edge">
<title>http://purl.org/dj/kaggle/pipelines/activity/7332041046374309981&#45;&gt;http://purl.org/dj/kaggle/pipelines/activity/8371713082531375799</title>
<path fill="none" stroke="black" d="M855.04,-262.31C813.01,-248.19 751.1,-227.39 706.08,-212.26"/>
<polygon fill="black" stroke="black" points="707.05,-208.9 696.45,-209.03 704.82,-215.53 707.05,-208.9"/>
<text text-anchor="middle" x="813.24" y="-231.8" font-family="Times,serif" font-size="14.00">previous</text>
</g>
<!-- http://purl.org/dj/kaggle/pipelines/activity/&#45;7793646923461156142 -->
<g id="node9" class="node">
<title>http://purl.org/dj/kaggle/pipelines/activity/&#45;7793646923461156142</title>
<ellipse fill="none" stroke="black" cx="806.74" cy="-474" rx="135.68" ry="18"/>
<text text-anchor="middle" x="806.74" y="-470.3" font-family="Times,serif" font-size="14.00">&#45;7793646923461156142 (Analysis)</text>
</g>
<!-- http://purl.org/dj/kaggle/pipelines/activity/&#45;7793646923461156142&#45;&gt;http://purl.org/dj/kaggle/pipelines/activity/&#45;5727446306090501012 -->
<g id="edge14" class="edge">
<title>http://purl.org/dj/kaggle/pipelines/activity/&#45;7793646923461156142&#45;&gt;http://purl.org/dj/kaggle/pipelines/activity/&#45;5727446306090501012</title>
<path fill="none" stroke="black" d="M680.2,-467.31C582.84,-459.97 459.69,-443.2 427.74,-405 360.56,-324.7 427.98,-188.65 461.37,-131.98"/>
<polygon fill="black" stroke="black" points="464.45,-133.66 466.61,-123.28 458.45,-130.05 464.45,-133.66"/>
<text text-anchor="middle" x="430.24" y="-275.3" font-family="Times,serif" font-size="14.00">previous</text>
</g>
<!-- http://purl.org/dj/kaggle/pipelines/activity/&#45;7793646923461156142&#45;&gt;http://purl.org/dj/kaggle/pipelines/activity/&#45;5220902162932357797 -->
<g id="edge16" class="edge">
<title>http://purl.org/dj/kaggle/pipelines/activity/&#45;7793646923461156142&#45;&gt;http://purl.org/dj/kaggle/pipelines/activity/&#45;5220902162932357797</title>
<path fill="none" stroke="black" d="M922.24,-464.46C1015.65,-454.26 1131.74,-432.62 1131.74,-388 1131.74,-388 1131.74,-388 1131.74,-104 1131.74,-63.39 1032.09,-41.53 945.43,-30.2"/>
<polygon fill="black" stroke="black" points="945.83,-26.73 935.47,-28.94 944.95,-33.67 945.83,-26.73"/>
<text text-anchor="middle" x="1155.24" y="-231.8" font-family="Times,serif" font-size="14.00">previous</text>
</g>
<!-- http://purl.org/dj/kaggle/pipelines/activity/&#45;7793646923461156142&#45;&gt;http://purl.org/dj/kaggle/pipelines/activity/&#45;7402650381464860187 -->
<g id="edge15" class="edge">
<title>http://purl.org/dj/kaggle/pipelines/activity/&#45;7793646923461156142&#45;&gt;http://purl.org/dj/kaggle/pipelines/activity/&#45;7402650381464860187</title>
<path fill="none" stroke="black" d="M796.08,-455.99C788.09,-442.58 777.43,-423.18 770.74,-405 756.58,-366.55 778.69,-344.97 750.74,-315 743.67,-307.42 735.04,-301.46 725.71,-296.77"/>
<polygon fill="black" stroke="black" points="727.12,-293.57 716.56,-292.65 724.24,-299.95 727.12,-293.57"/>
<text text-anchor="middle" x="794.24" y="-383.3" font-family="Times,serif" font-size="14.00">previous</text>
</g>
<!-- http://purl.org/dj/kaggle/pipelines/activity/&#45;7793646923461156142&#45;&gt;http://purl.org/dj/kaggle/pipelines/activity/7332041046374309981 -->
<g id="edge17" class="edge">
<title>http://purl.org/dj/kaggle/pipelines/activity/&#45;7793646923461156142&#45;&gt;http://purl.org/dj/kaggle/pipelines/activity/7332041046374309981</title>
<path fill="none" stroke="black" d="M809.76,-455.55C815.69,-424.94 831.04,-360.51 861.74,-315 864.44,-311 867.7,-307.18 871.18,-303.63"/>
<polygon fill="black" stroke="black" points="873.63,-306.13 878.54,-296.74 868.84,-301.02 873.63,-306.13"/>
<text text-anchor="middle" x="857.24" y="-383.3" font-family="Times,serif" font-size="14.00">previous</text>
</g>
<!-- http://purl.org/dj/kaggle/pipelines/activity/&#45;4497448217085843676 -->
<g id="node10" class="node">
<title>http://purl.org/dj/kaggle/pipelines/activity/&#45;4497448217085843676</title>
<ellipse fill="none" stroke="black" cx="582.74" cy="-387" rx="145.67" ry="18"/>
<text text-anchor="middle" x="582.74" y="-383.3" font-family="Times,serif" font-size="14.00">&#45;4497448217085843676 (Preparation)</text>
</g>
<!-- http://purl.org/dj/kaggle/pipelines/activity/&#45;7793646923461156142&#45;&gt;http://purl.org/dj/kaggle/pipelines/activity/&#45;4497448217085843676 -->
<g id="edge18" class="edge">
<title>http://purl.org/dj/kaggle/pipelines/activity/&#45;7793646923461156142&#45;&gt;http://purl.org/dj/kaggle/pipelines/activity/&#45;4497448217085843676</title>
<path fill="none" stroke="black" d="M758.04,-457.17C740.8,-451.37 721.33,-444.61 703.74,-438 679.17,-428.76 652.14,-417.68 629.87,-408.3"/>
<polygon fill="black" stroke="black" points="631.21,-405.07 620.64,-404.39 628.48,-411.51 631.21,-405.07"/>
<text text-anchor="middle" x="727.24" y="-426.8" font-family="Times,serif" font-size="14.00">previous</text>
</g>
<!-- http://purl.org/dj/kaggle/pipelines/activity/&#45;5812807861433756190 -->
<g id="node11" class="node">
<title>http://purl.org/dj/kaggle/pipelines/activity/&#45;5812807861433756190</title>
<ellipse fill="none" stroke="black" cx="989.74" cy="-333" rx="126.98" ry="18"/>
<text text-anchor="middle" x="989.74" y="-329.3" font-family="Times,serif" font-size="14.00">&#45;5812807861433756190 (Reuse)</text>
</g>
<!-- http://purl.org/dj/kaggle/pipelines/activity/&#45;7793646923461156142&#45;&gt;http://purl.org/dj/kaggle/pipelines/activity/&#45;5812807861433756190 -->
<g id="edge19" class="edge">
<title>http://purl.org/dj/kaggle/pipelines/activity/&#45;7793646923461156142&#45;&gt;http://purl.org/dj/kaggle/pipelines/activity/&#45;5812807861433756190</title>
<path fill="none" stroke="black" d="M834.29,-456.34C843.19,-450.73 853.02,-444.29 861.74,-438 897.79,-412.02 937.17,-379.31 962.6,-357.59"/>
<polygon fill="black" stroke="black" points="965.03,-360.11 970.34,-350.94 960.48,-354.8 965.03,-360.11"/>
<text text-anchor="middle" x="903.24" y="-426.8" font-family="Times,serif" font-size="14.00">previous</text>
</g>
<!-- http://purl.org/dj/kaggle/pipelines/activity/&#45;4497448217085843676&#45;&gt;http://purl.org/dj/kaggle/pipelines/activity/&#45;5727446306090501012 -->
<g id="edge20" class="edge">
<title>http://purl.org/dj/kaggle/pipelines/activity/&#45;4497448217085843676&#45;&gt;http://purl.org/dj/kaggle/pipelines/activity/&#45;5727446306090501012</title>
<path fill="none" stroke="black" d="M559.28,-369.17C538.94,-353.13 510.64,-327.03 496.74,-297 471.82,-243.2 472.36,-171.91 475.01,-133.44"/>
<polygon fill="black" stroke="black" points="478.53,-133.3 475.83,-123.06 471.55,-132.75 478.53,-133.3"/>
<text text-anchor="middle" x="504.24" y="-231.8" font-family="Times,serif" font-size="14.00">previous</text>
</g>
<!-- http://purl.org/dj/kaggle/pipelines/activity/&#45;4497448217085843676&#45;&gt;http://purl.org/dj/kaggle/pipelines/activity/&#45;7402650381464860187 -->
<g id="edge21" class="edge">
<title>http://purl.org/dj/kaggle/pipelines/activity/&#45;4497448217085843676&#45;&gt;http://purl.org/dj/kaggle/pipelines/activity/&#45;7402650381464860187</title>
<path fill="none" stroke="black" d="M587.69,-368.86C592.24,-354.15 599.66,-332.62 608.74,-315 610.38,-311.83 612.25,-308.6 614.22,-305.45"/>
<polygon fill="black" stroke="black" points="617.27,-307.18 619.88,-296.91 611.44,-303.31 617.27,-307.18"/>
<text text-anchor="middle" x="632.24" y="-329.3" font-family="Times,serif" font-size="14.00">previous</text>
</g>
<!-- http://purl.org/dj/kaggle/pipelines/activity/&#45;4497448217085843676&#45;&gt;http://purl.org/dj/kaggle/pipelines/activity/7332041046374309981 -->
<g id="edge22" class="edge">
<title>http://purl.org/dj/kaggle/pipelines/activity/&#45;4497448217085843676&#45;&gt;http://purl.org/dj/kaggle/pipelines/activity/7332041046374309981</title>
<path fill="none" stroke="black" d="M627.54,-369.84C668.76,-355.1 731.65,-332.96 786.74,-315 803.82,-309.43 822.42,-303.65 839.59,-298.43"/>
<polygon fill="black" stroke="black" points="840.95,-301.67 849.51,-295.42 838.92,-294.97 840.95,-301.67"/>
<text text-anchor="middle" x="810.24" y="-329.3" font-family="Times,serif" font-size="14.00">previous</text>
</g>
<!-- http://purl.org/dj/kaggle/pipelines/activity/&#45;5812807861433756190&#45;&gt;http://purl.org/dj/kaggle/pipelines/activity/&#45;5220902162932357797 -->
<g id="edge23" class="edge">
<title>http://purl.org/dj/kaggle/pipelines/activity/&#45;5812807861433756190&#45;&gt;http://purl.org/dj/kaggle/pipelines/activity/&#45;5220902162932357797</title>
<path fill="none" stroke="black" d="M1016.96,-315.08C1023.52,-309.94 1030,-303.83 1034.74,-297 1050.82,-273.85 1053.74,-264.68 1053.74,-236.5 1053.74,-236.5 1053.74,-236.5 1053.74,-104 1053.74,-72.4 977.38,-49.16 911.9,-35.05"/>
<polygon fill="black" stroke="black" points="912.42,-31.58 901.91,-32.95 910.97,-38.43 912.42,-31.58"/>
<text text-anchor="middle" x="1077.24" y="-188.3" font-family="Times,serif" font-size="14.00">previous</text>
</g>
<!-- http://purl.org/dj/kaggle/pipelines/activity/1897883805595794108 -->
<g id="node12" class="node">
<title>http://purl.org/dj/kaggle/pipelines/activity/1897883805595794108</title>
<ellipse fill="none" stroke="black" cx="806.74" cy="-561" rx="124.28" ry="18"/>
<text text-anchor="middle" x="806.74" y="-557.3" font-family="Times,serif" font-size="14.00">1897883805595794108 (Reuse)</text>
</g>
<!-- http://purl.org/dj/kaggle/pipelines/activity/1897883805595794108&#45;&gt;http://purl.org/dj/kaggle/pipelines/activity/&#45;5220902162932357797 -->
<g id="edge24" class="edge">
<title>http://purl.org/dj/kaggle/pipelines/activity/1897883805595794108&#45;&gt;http://purl.org/dj/kaggle/pipelines/activity/&#45;5220902162932357797</title>
<path fill="none" stroke="black" d="M927.07,-556.45C1040.67,-549.72 1193.74,-530.38 1193.74,-475 1193.74,-475 1193.74,-475 1193.74,-104 1193.74,-55.02 1070.2,-34.26 965.13,-25.47"/>
<polygon fill="black" stroke="black" points="965.27,-21.97 955.03,-24.65 964.71,-28.94 965.27,-21.97"/>
<text text-anchor="middle" x="1217.24" y="-275.3" font-family="Times,serif" font-size="14.00">previous</text>
</g>
<!-- http://purl.org/dj/kaggle/pipelines/activity/1897883805595794108&#45;&gt;http://purl.org/dj/kaggle/pipelines/activity/&#45;7793646923461156142 -->
<g id="edge25" class="edge">
<title>http://purl.org/dj/kaggle/pipelines/activity/1897883805595794108&#45;&gt;http://purl.org/dj/kaggle/pipelines/activity/&#45;7793646923461156142</title>
<path fill="none" stroke="black" d="M806.74,-542.8C806.74,-531.16 806.74,-515.55 806.74,-502.24"/>
<polygon fill="black" stroke="black" points="810.24,-502.18 806.74,-492.18 803.24,-502.18 810.24,-502.18"/>
<text text-anchor="middle" x="830.24" y="-513.8" font-family="Times,serif" font-size="14.00">previous</text>
</g>
<!-- http://purl.org/dj/kaggle/pipelines/activity/&#45;8015965313237684922 -->
<g id="node13" class="node">
<title>http://purl.org/dj/kaggle/pipelines/activity/&#45;8015965313237684922</title>
<ellipse fill="none" stroke="black" cx="349.74" cy="-648" rx="151.37" ry="18"/>
<text text-anchor="middle" x="349.74" y="-644.3" font-family="Times,serif" font-size="14.00">&#45;8015965313237684922 (Visualisation)</text>
</g>
<!-- http://purl.org/dj/kaggle/pipelines/activity/&#45;8015965313237684922&#45;&gt;http://purl.org/dj/kaggle/pipelines/activity/&#45;5727446306090501012 -->
<g id="edge26" class="edge">
<title>http://purl.org/dj/kaggle/pipelines/activity/&#45;8015965313237684922&#45;&gt;http://purl.org/dj/kaggle/pipelines/activity/&#45;5727446306090501012</title>
<path fill="none" stroke="black" d="M344.59,-629.92C339.91,-612.88 333.74,-585.88 333.74,-562 333.74,-562 333.74,-562 333.74,-429.5 333.74,-309.68 363.72,-279.91 419.74,-174 428.19,-158.02 440.96,-142.51 452.37,-130.34"/>
<polygon fill="black" stroke="black" points="455.17,-132.48 459.61,-122.86 450.14,-127.61 455.17,-132.48"/>
<text text-anchor="middle" x="361.24" y="-383.3" font-family="Times,serif" font-size="14.00">previous</text>
</g>
<!-- http://purl.org/dj/kaggle/pipelines/activity/&#45;8015965313237684922&#45;&gt;http://purl.org/dj/kaggle/pipelines/activity/1897883805595794108 -->
<g id="edge27" class="edge">
<title>http://purl.org/dj/kaggle/pipelines/activity/&#45;8015965313237684922&#45;&gt;http://purl.org/dj/kaggle/pipelines/activity/1897883805595794108</title>
<path fill="none" stroke="black" d="M427.52,-632.53C509.79,-617.23 639.1,-593.18 723.41,-577.5"/>
<polygon fill="black" stroke="black" points="724.27,-580.9 733.46,-575.63 722.99,-574.02 724.27,-580.9"/>
<text text-anchor="middle" x="628.24" y="-600.8" font-family="Times,serif" font-size="14.00">previous</text>
</g>
</g>
</svg>
