<?xml version="1.0" encoding="UTF-8" standalone="no"?>
<!DOCTYPE svg PUBLIC "-//W3C//DTD SVG 1.1//EN"
 "http://www.w3.org/Graphics/SVG/1.1/DTD/svg11.dtd">
<!-- Generated by graphviz version 2.44.1 (20200629.0846)
 -->
<!-- Pages: 1 -->
<svg width="8718pt" height="218pt"
 viewBox="0.00 0.00 8717.78 218.00" xmlns="http://www.w3.org/2000/svg" xmlns:xlink="http://www.w3.org/1999/xlink">
<g id="graph0" class="graph" transform="scale(1 1) rotate(0) translate(4 214)">
<polygon fill="white" stroke="transparent" points="-4,4 -4,-214 8713.78,-214 8713.78,4 -4,4"/>
<!-- http://purl.org/dj/kaggle/probing&#45;private&#45;lb#30736566 -->
<g id="node1" class="node">
<title>http://purl.org/dj/kaggle/probing&#45;private&#45;lb#30736566</title>
<ellipse fill="none" stroke="black" cx="94.89" cy="-105" rx="94.78" ry="18"/>
<text text-anchor="middle" x="94.89" y="-101.3" font-family="Times,serif" font-size="14.00">30736566 (4(0): Reuse)</text>
</g>
<!-- http://purl.org/dj/kaggle/probing&#45;private&#45;lb -->
<g id="node2" class="node">
<title>http://purl.org/dj/kaggle/probing&#45;private&#45;lb</title>
<ellipse fill="none" stroke="black" cx="2589.89" cy="-18" rx="75.29" ry="18"/>
<text text-anchor="middle" x="2589.89" y="-14.3" font-family="Times,serif" font-size="14.00">probing&#45;private&#45;lb</text>
</g>
<!-- http://purl.org/dj/kaggle/probing&#45;private&#45;lb#30736566&#45;&gt;http://purl.org/dj/kaggle/probing&#45;private&#45;lb -->
<g id="edge1" class="edge">
<title>http://purl.org/dj/kaggle/probing&#45;private&#45;lb#30736566&#45;&gt;http://purl.org/dj/kaggle/probing&#45;private&#45;lb</title>
<path fill="none" stroke="black" d="M162.79,-92.38C174.8,-90.47 187.2,-88.6 198.89,-87 331.79,-68.84 365.02,-62.46 498.89,-54 898.75,-28.72 2163.33,-21.01 2504.42,-19.37"/>
<polygon fill="black" stroke="black" points="2504.5,-22.87 2514.48,-19.32 2504.46,-15.87 2504.5,-22.87"/>
<text text-anchor="middle" x="522.39" y="-57.8" font-family="Times,serif" font-size="14.00">previous</text>
</g>
<!-- http://purl.org/dj/kaggle/probing&#45;private&#45;lb#32047291 -->
<g id="node3" class="node">
<title>http://purl.org/dj/kaggle/probing&#45;private&#45;lb#32047291</title>
<ellipse fill="none" stroke="black" cx="302.89" cy="-105" rx="94.78" ry="18"/>
<text text-anchor="middle" x="302.89" y="-101.3" font-family="Times,serif" font-size="14.00">32047291 (9(0): Reuse)</text>
</g>
<!-- http://purl.org/dj/kaggle/probing&#45;private&#45;lb#32047291&#45;&gt;http://purl.org/dj/kaggle/probing&#45;private&#45;lb -->
<g id="edge2" class="edge">
<title>http://purl.org/dj/kaggle/probing&#45;private&#45;lb#32047291&#45;&gt;http://purl.org/dj/kaggle/probing&#45;private&#45;lb</title>
<path fill="none" stroke="black" d="M370.5,-92.36C382.6,-90.44 395.1,-88.57 406.89,-87 547.73,-68.2 583.06,-62.67 724.89,-54 1078.13,-32.4 2187.63,-22.17 2504.57,-19.64"/>
<polygon fill="black" stroke="black" points="2504.64,-23.14 2514.61,-19.56 2504.59,-16.14 2504.64,-23.14"/>
<text text-anchor="middle" x="748.39" y="-57.8" font-family="Times,serif" font-size="14.00">previous</text>
</g>
<!-- http://purl.org/dj/kaggle/probing&#45;private&#45;lb#29687986 -->
<g id="node4" class="node">
<title>http://purl.org/dj/kaggle/probing&#45;private&#45;lb#29687986</title>
<ellipse fill="none" stroke="black" cx="510.89" cy="-105" rx="94.78" ry="18"/>
<text text-anchor="middle" x="510.89" y="-101.3" font-family="Times,serif" font-size="14.00">29687986 (0(0): Reuse)</text>
</g>
<!-- http://purl.org/dj/kaggle/probing&#45;private&#45;lb#29687986&#45;&gt;http://purl.org/dj/kaggle/probing&#45;private&#45;lb -->
<g id="edge3" class="edge">
<title>http://purl.org/dj/kaggle/probing&#45;private&#45;lb#29687986&#45;&gt;http://purl.org/dj/kaggle/probing&#45;private&#45;lb</title>
<path fill="none" stroke="black" d="M578.2,-92.26C590.39,-90.34 603,-88.5 614.89,-87 779.13,-66.3 820.6,-63.14 985.89,-54 1565.43,-21.94 2264.27,-18.88 2504.2,-18.85"/>
<polygon fill="black" stroke="black" points="2504.25,-22.35 2514.25,-18.86 2504.25,-15.35 2504.25,-22.35"/>
<text text-anchor="middle" x="1009.39" y="-57.8" font-family="Times,serif" font-size="14.00">previous</text>
</g>
<!-- http://purl.org/dj/kaggle/probing&#45;private&#45;lb#44630251 -->
<g id="node5" class="node">
<title>http://purl.org/dj/kaggle/probing&#45;private&#45;lb#44630251</title>
<ellipse fill="none" stroke="black" cx="733.89" cy="-105" rx="110.48" ry="18"/>
<text text-anchor="middle" x="733.89" y="-101.3" font-family="Times,serif" font-size="14.00">44630251 (i(0): Movement)</text>
</g>
<!-- http://purl.org/dj/kaggle/probing&#45;private&#45;lb#44630251&#45;&gt;http://purl.org/dj/kaggle/probing&#45;private&#45;lb -->
<g id="edge4" class="edge">
<title>http://purl.org/dj/kaggle/probing&#45;private&#45;lb#44630251&#45;&gt;http://purl.org/dj/kaggle/probing&#45;private&#45;lb</title>
<path fill="none" stroke="black" d="M811.57,-92.17C825.32,-90.28 839.51,-88.47 852.89,-87 1041.21,-66.26 1088.69,-63.86 1277.89,-54 1740.26,-29.9 2295.21,-22.01 2504.47,-19.78"/>
<polygon fill="black" stroke="black" points="2504.81,-23.27 2514.77,-19.67 2504.74,-16.27 2504.81,-23.27"/>
<text text-anchor="middle" x="1301.39" y="-57.8" font-family="Times,serif" font-size="14.00">previous</text>
</g>
<!-- http://purl.org/dj/kaggle/probing&#45;private&#45;lb#779817917 -->
<g id="node6" class="node">
<title>http://purl.org/dj/kaggle/probing&#45;private&#45;lb#779817917</title>
<ellipse fill="none" stroke="black" cx="1155.89" cy="-105" rx="293.55" ry="18"/>
<text text-anchor="middle" x="1155.89" y="-101.3" font-family="Times,serif" font-size="14.00">779817917 (../input/data&#45;science&#45;bowl&#45;2019/sample_submission.csv(0): Reuse)</text>
</g>
<!-- http://purl.org/dj/kaggle/probing&#45;private&#45;lb#779817917&#45;&gt;http://purl.org/dj/kaggle/probing&#45;private&#45;lb -->
<g id="edge5" class="edge">
<title>http://purl.org/dj/kaggle/probing&#45;private&#45;lb#779817917&#45;&gt;http://purl.org/dj/kaggle/probing&#45;private&#45;lb</title>
<path fill="none" stroke="black" d="M1227.95,-87.49C1281.86,-75.9 1357.59,-61.22 1424.89,-54 1634.16,-31.54 2272.64,-22.47 2504.56,-19.86"/>
<polygon fill="black" stroke="black" points="2504.67,-23.36 2514.63,-19.75 2504.59,-16.36 2504.67,-23.36"/>
<text text-anchor="middle" x="1448.39" y="-57.8" font-family="Times,serif" font-size="14.00">previous</text>
</g>
<!-- http://purl.org/dj/kaggle/probing&#45;private&#45;lb#82575712 -->
<g id="node7" class="node">
<title>http://purl.org/dj/kaggle/probing&#45;private&#45;lb#82575712</title>
<ellipse fill="none" stroke="black" cx="1520.89" cy="-192" rx="116.98" ry="18"/>
<text text-anchor="middle" x="1520.89" y="-188.3" font-family="Times,serif" font-size="14.00">82575712 (np(0): Movement)</text>
</g>
<!-- http://purl.org/dj/kaggle/probing&#45;private&#45;lb#82575712&#45;&gt;http://purl.org/dj/kaggle/probing&#45;private&#45;lb -->
<g id="edge6" class="edge">
<title>http://purl.org/dj/kaggle/probing&#45;private&#45;lb#82575712&#45;&gt;http://purl.org/dj/kaggle/probing&#45;private&#45;lb</title>
<path fill="none" stroke="black" d="M1508.36,-173.78C1493.63,-151.25 1473.7,-111.73 1494.89,-87 1557.23,-14.26 1612.54,-63.25 1707.89,-54 1999.12,-25.75 2346.56,-20.17 2504.36,-19.16"/>
<polygon fill="black" stroke="black" points="2504.5,-22.66 2514.48,-19.1 2504.46,-15.66 2504.5,-22.66"/>
<text text-anchor="middle" x="1518.39" y="-101.3" font-family="Times,serif" font-size="14.00">previous</text>
</g>
<!-- http://purl.org/dj/python/lib/111084090 -->
<g id="node8" class="node">
<title>http://purl.org/dj/python/lib/111084090</title>
<ellipse fill="none" stroke="black" cx="1660.89" cy="-105" rx="109.68" ry="18"/>
<text text-anchor="middle" x="1660.89" y="-101.3" font-family="Times,serif" font-size="14.00">111084090 (numpy: Reuse)</text>
</g>
<!-- http://purl.org/dj/kaggle/probing&#45;private&#45;lb#82575712&#45;&gt;http://purl.org/dj/python/lib/111084090 -->
<g id="edge7" class="edge">
<title>http://purl.org/dj/kaggle/probing&#45;private&#45;lb#82575712&#45;&gt;http://purl.org/dj/python/lib/111084090</title>
<path fill="none" stroke="black" d="M1548.22,-174.41C1570.09,-161.13 1600.96,-142.39 1624.85,-127.88"/>
<polygon fill="black" stroke="black" points="1626.9,-130.73 1633.63,-122.55 1623.27,-124.75 1626.9,-130.73"/>
<text text-anchor="middle" x="1623.39" y="-144.8" font-family="Times,serif" font-size="14.00">previous</text>
</g>
<!-- http://purl.org/dj/python/lib/111084090&#45;&gt;http://purl.org/dj/kaggle/probing&#45;private&#45;lb -->
<g id="edge8" class="edge">
<title>http://purl.org/dj/python/lib/111084090&#45;&gt;http://purl.org/dj/kaggle/probing&#45;private&#45;lb</title>
<path fill="none" stroke="black" d="M1682.57,-87.17C1698.97,-75.5 1722.57,-60.87 1745.89,-54 1817.19,-32.99 2304.84,-23.31 2504.71,-20.19"/>
<polygon fill="black" stroke="black" points="2504.93,-23.68 2514.87,-20.03 2504.82,-16.68 2504.93,-23.68"/>
<text text-anchor="middle" x="1769.39" y="-57.8" font-family="Times,serif" font-size="14.00">previous</text>
</g>
<!-- http://purl.org/dj/kaggle/probing&#45;private&#45;lb#756942058 -->
<g id="node9" class="node">
<title>http://purl.org/dj/kaggle/probing&#45;private&#45;lb#756942058</title>
<ellipse fill="none" stroke="black" cx="859.89" cy="-192" rx="157.07" ry="18"/>
<text text-anchor="middle" x="859.89" y="-188.3" font-family="Times,serif" font-size="14.00">756942058 (df_predict(0)$0: Movement)</text>
</g>
<!-- http://purl.org/dj/kaggle/probing&#45;private&#45;lb#756942058&#45;&gt;http://purl.org/dj/kaggle/probing&#45;private&#45;lb#779817917 -->
<g id="edge9" class="edge">
<title>http://purl.org/dj/kaggle/probing&#45;private&#45;lb#756942058&#45;&gt;http://purl.org/dj/kaggle/probing&#45;private&#45;lb#779817917</title>
<path fill="none" stroke="black" d="M915.22,-175.11C964.11,-161.07 1035.57,-140.55 1087.93,-125.52"/>
<polygon fill="black" stroke="black" points="1089.15,-128.81 1097.8,-122.68 1087.22,-122.08 1089.15,-128.81"/>
<text text-anchor="middle" x="1049.39" y="-144.8" font-family="Times,serif" font-size="14.00">previous</text>
</g>
<!-- http://purl.org/dj/kaggle/probing&#45;private&#45;lb#80085334 -->
<g id="node10" class="node">
<title>http://purl.org/dj/kaggle/probing&#45;private&#45;lb#80085334</title>
<ellipse fill="none" stroke="black" cx="1858.89" cy="-192" rx="116.98" ry="18"/>
<text text-anchor="middle" x="1858.89" y="-188.3" font-family="Times,serif" font-size="14.00">80085334 (pd(0): Movement)</text>
</g>
<!-- http://purl.org/dj/kaggle/probing&#45;private&#45;lb#80085334&#45;&gt;http://purl.org/dj/kaggle/probing&#45;private&#45;lb -->
<g id="edge10" class="edge">
<title>http://purl.org/dj/kaggle/probing&#45;private&#45;lb#80085334&#45;&gt;http://purl.org/dj/kaggle/probing&#45;private&#45;lb</title>
<path fill="none" stroke="black" d="M1841.76,-173.93C1821.37,-151.55 1792.8,-112.21 1815.89,-87 1861.71,-36.98 2313.39,-23.58 2504.84,-20.14"/>
<polygon fill="black" stroke="black" points="2504.92,-23.64 2514.86,-19.96 2504.8,-16.64 2504.92,-23.64"/>
<text text-anchor="middle" x="1839.39" y="-101.3" font-family="Times,serif" font-size="14.00">previous</text>
</g>
<!-- http://purl.org/dj/python/lib/144966264 -->
<g id="node11" class="node">
<title>http://purl.org/dj/python/lib/144966264</title>
<ellipse fill="none" stroke="black" cx="1980.89" cy="-105" rx="109.38" ry="18"/>
<text text-anchor="middle" x="1980.89" y="-101.3" font-family="Times,serif" font-size="14.00">144966264 (pandas: Reuse)</text>
</g>
<!-- http://purl.org/dj/kaggle/probing&#45;private&#45;lb#80085334&#45;&gt;http://purl.org/dj/python/lib/144966264 -->
<g id="edge11" class="edge">
<title>http://purl.org/dj/kaggle/probing&#45;private&#45;lb#80085334&#45;&gt;http://purl.org/dj/python/lib/144966264</title>
<path fill="none" stroke="black" d="M1882.99,-174.21C1901.71,-161.17 1927.85,-142.96 1948.41,-128.63"/>
<polygon fill="black" stroke="black" points="1950.63,-131.35 1956.84,-122.76 1946.63,-125.6 1950.63,-131.35"/>
<text text-anchor="middle" x="1951.39" y="-144.8" font-family="Times,serif" font-size="14.00">previous</text>
</g>
<!-- http://purl.org/dj/python/lib/144966264&#45;&gt;http://purl.org/dj/kaggle/probing&#45;private&#45;lb -->
<g id="edge12" class="edge">
<title>http://purl.org/dj/python/lib/144966264&#45;&gt;http://purl.org/dj/kaggle/probing&#45;private&#45;lb</title>
<path fill="none" stroke="black" d="M2058.61,-92.3C2127.89,-81.95 2232.1,-66.59 2322.89,-54 2387.71,-45.01 2461.47,-35.39 2515.02,-28.51"/>
<polygon fill="black" stroke="black" points="2515.64,-31.96 2525.11,-27.22 2514.75,-25.02 2515.64,-31.96"/>
<text text-anchor="middle" x="2346.39" y="-57.8" font-family="Times,serif" font-size="14.00">previous</text>
</g>
<!-- http://purl.org/dj/kaggle/probing&#45;private&#45;lb#30998711 -->
<g id="node12" class="node">
<title>http://purl.org/dj/kaggle/probing&#45;private&#45;lb#30998711</title>
<ellipse fill="none" stroke="black" cx="2202.89" cy="-105" rx="94.78" ry="18"/>
<text text-anchor="middle" x="2202.89" y="-101.3" font-family="Times,serif" font-size="14.00">30998711 (5(0): Reuse)</text>
</g>
<!-- http://purl.org/dj/kaggle/probing&#45;private&#45;lb#30998711&#45;&gt;http://purl.org/dj/kaggle/probing&#45;private&#45;lb -->
<g id="edge13" class="edge">
<title>http://purl.org/dj/kaggle/probing&#45;private&#45;lb#30998711&#45;&gt;http://purl.org/dj/kaggle/probing&#45;private&#45;lb</title>
<path fill="none" stroke="black" d="M2262.51,-90.91C2333.99,-75.2 2453.29,-49 2526.43,-32.94"/>
<polygon fill="black" stroke="black" points="2527.42,-36.3 2536.44,-30.74 2525.92,-29.47 2527.42,-36.3"/>
<text text-anchor="middle" x="2443.39" y="-57.8" font-family="Times,serif" font-size="14.00">previous</text>
</g>
<!-- http://purl.org/dj/kaggle/probing&#45;private&#45;lb#30474421 -->
<g id="node13" class="node">
<title>http://purl.org/dj/kaggle/probing&#45;private&#45;lb#30474421</title>
<ellipse fill="none" stroke="black" cx="2410.89" cy="-105" rx="94.78" ry="18"/>
<text text-anchor="middle" x="2410.89" y="-101.3" font-family="Times,serif" font-size="14.00">30474421 (3(0): Reuse)</text>
</g>
<!-- http://purl.org/dj/kaggle/probing&#45;private&#45;lb#30474421&#45;&gt;http://purl.org/dj/kaggle/probing&#45;private&#45;lb -->
<g id="edge14" class="edge">
<title>http://purl.org/dj/kaggle/probing&#45;private&#45;lb#30474421&#45;&gt;http://purl.org/dj/kaggle/probing&#45;private&#45;lb</title>
<path fill="none" stroke="black" d="M2444.56,-88.01C2473.93,-74.07 2516.65,-53.78 2548.18,-38.81"/>
<polygon fill="black" stroke="black" points="2550.05,-41.79 2557.58,-34.34 2547.05,-35.47 2550.05,-41.79"/>
<text text-anchor="middle" x="2535.39" y="-57.8" font-family="Times,serif" font-size="14.00">previous</text>
</g>
<!-- http://purl.org/dj/kaggle/probing&#45;private&#45;lb#129630682 -->
<g id="node14" class="node">
<title>http://purl.org/dj/kaggle/probing&#45;private&#45;lb#129630682</title>
<ellipse fill="none" stroke="black" cx="2649.89" cy="-105" rx="126.18" ry="18"/>
<text text-anchor="middle" x="2649.89" y="-101.3" font-family="Times,serif" font-size="14.00">129630682 (row(0): Movement)</text>
</g>
<!-- http://purl.org/dj/kaggle/probing&#45;private&#45;lb#129630682&#45;&gt;http://purl.org/dj/kaggle/probing&#45;private&#45;lb -->
<g id="edge15" class="edge">
<title>http://purl.org/dj/kaggle/probing&#45;private&#45;lb#129630682&#45;&gt;http://purl.org/dj/kaggle/probing&#45;private&#45;lb</title>
<path fill="none" stroke="black" d="M2637.75,-86.8C2629.15,-74.62 2617.48,-58.09 2607.82,-44.4"/>
<polygon fill="black" stroke="black" points="2610.44,-42.04 2601.81,-35.89 2604.72,-46.07 2610.44,-42.04"/>
<text text-anchor="middle" x="2647.39" y="-57.8" font-family="Times,serif" font-size="14.00">previous</text>
</g>
<!-- http://purl.org/dj/kaggle/probing&#45;private&#45;lb#800392483 -->
<g id="node15" class="node">
<title>http://purl.org/dj/kaggle/probing&#45;private&#45;lb#800392483</title>
<ellipse fill="none" stroke="black" cx="2410.89" cy="-192" rx="161.37" ry="18"/>
<text text-anchor="middle" x="2410.89" y="-188.3" font-family="Times,serif" font-size="14.00">800392483 (submission(0)$1: Movement)</text>
</g>
<!-- http://purl.org/dj/kaggle/probing&#45;private&#45;lb#800392483&#45;&gt;http://purl.org/dj/kaggle/probing&#45;private&#45;lb#30474421 -->
<g id="edge16" class="edge">
<title>http://purl.org/dj/kaggle/probing&#45;private&#45;lb#800392483&#45;&gt;http://purl.org/dj/kaggle/probing&#45;private&#45;lb#30474421</title>
<path fill="none" stroke="black" d="M2410.89,-173.8C2410.89,-162.16 2410.89,-146.55 2410.89,-133.24"/>
<polygon fill="black" stroke="black" points="2414.39,-133.18 2410.89,-123.18 2407.39,-133.18 2414.39,-133.18"/>
<text text-anchor="middle" x="2434.39" y="-144.8" font-family="Times,serif" font-size="14.00">previous</text>
</g>
<!-- http://purl.org/dj/kaggle/probing&#45;private&#45;lb#402719581 -->
<g id="node16" class="node">
<title>http://purl.org/dj/kaggle/probing&#45;private&#45;lb#402719581</title>
<ellipse fill="none" stroke="black" cx="510.89" cy="-192" rx="141.88" ry="18"/>
<text text-anchor="middle" x="510.89" y="-188.3" font-family="Times,serif" font-size="14.00">402719581 (target(0)$0: Movement)</text>
</g>
<!-- http://purl.org/dj/kaggle/probing&#45;private&#45;lb#402719581&#45;&gt;http://purl.org/dj/kaggle/probing&#45;private&#45;lb#29687986 -->
<g id="edge17" class="edge">
<title>http://purl.org/dj/kaggle/probing&#45;private&#45;lb#402719581&#45;&gt;http://purl.org/dj/kaggle/probing&#45;private&#45;lb#29687986</title>
<path fill="none" stroke="black" d="M510.89,-173.8C510.89,-162.16 510.89,-146.55 510.89,-133.24"/>
<polygon fill="black" stroke="black" points="514.39,-133.18 510.89,-123.18 507.39,-133.18 514.39,-133.18"/>
<text text-anchor="middle" x="534.39" y="-144.8" font-family="Times,serif" font-size="14.00">previous</text>
</g>
<!-- http://purl.org/dj/kaggle/probing&#45;private&#45;lb#31260856 -->
<g id="node17" class="node">
<title>http://purl.org/dj/kaggle/probing&#45;private&#45;lb#31260856</title>
<ellipse fill="none" stroke="black" cx="2888.89" cy="-105" rx="94.78" ry="18"/>
<text text-anchor="middle" x="2888.89" y="-101.3" font-family="Times,serif" font-size="14.00">31260856 (6(0): Reuse)</text>
</g>
<!-- http://purl.org/dj/kaggle/probing&#45;private&#45;lb#31260856&#45;&gt;http://purl.org/dj/kaggle/probing&#45;private&#45;lb -->
<g id="edge18" class="edge">
<title>http://purl.org/dj/kaggle/probing&#45;private&#45;lb#31260856&#45;&gt;http://purl.org/dj/kaggle/probing&#45;private&#45;lb</title>
<path fill="none" stroke="black" d="M2838.51,-89.68C2785.28,-74.55 2701.55,-50.74 2646.19,-35.01"/>
<polygon fill="black" stroke="black" points="2647.12,-31.63 2636.54,-32.26 2645.2,-38.36 2647.12,-31.63"/>
<text text-anchor="middle" x="2781.39" y="-57.8" font-family="Times,serif" font-size="14.00">previous</text>
</g>
<!-- http://purl.org/dj/kaggle/probing&#45;private&#45;lb#389284681 -->
<g id="node18" class="node">
<title>http://purl.org/dj/kaggle/probing&#45;private&#45;lb#389284681</title>
<ellipse fill="none" stroke="black" cx="3320.89" cy="-192" rx="141.88" ry="18"/>
<text text-anchor="middle" x="3320.89" y="-188.3" font-family="Times,serif" font-size="14.00">389284681 (labels(0)$0: Movement)</text>
</g>
<!-- http://purl.org/dj/kaggle/probing&#45;private&#45;lb#2965902843 -->
<g id="node19" class="node">
<title>http://purl.org/dj/kaggle/probing&#45;private&#45;lb#2965902843</title>
<ellipse fill="none" stroke="black" cx="3320.89" cy="-105" rx="319.24" ry="18"/>
<text text-anchor="middle" x="3320.89" y="-101.3" font-family="Times,serif" font-size="14.00">2965902843 (/kaggle/input/data&#45;science&#45;bowl&#45;2019/sample_submission.csv(0): Reuse)</text>
</g>
<!-- http://purl.org/dj/kaggle/probing&#45;private&#45;lb#389284681&#45;&gt;http://purl.org/dj/kaggle/probing&#45;private&#45;lb#2965902843 -->
<g id="edge19" class="edge">
<title>http://purl.org/dj/kaggle/probing&#45;private&#45;lb#389284681&#45;&gt;http://purl.org/dj/kaggle/probing&#45;private&#45;lb#2965902843</title>
<path fill="none" stroke="black" d="M3320.89,-173.8C3320.89,-162.16 3320.89,-146.55 3320.89,-133.24"/>
<polygon fill="black" stroke="black" points="3324.39,-133.18 3320.89,-123.18 3317.39,-133.18 3324.39,-133.18"/>
<text text-anchor="middle" x="3344.39" y="-144.8" font-family="Times,serif" font-size="14.00">previous</text>
</g>
<!-- http://purl.org/dj/kaggle/probing&#45;private&#45;lb#2965902843&#45;&gt;http://purl.org/dj/kaggle/probing&#45;private&#45;lb -->
<g id="edge20" class="edge">
<title>http://purl.org/dj/kaggle/probing&#45;private&#45;lb#2965902843&#45;&gt;http://purl.org/dj/kaggle/probing&#45;private&#45;lb</title>
<path fill="none" stroke="black" d="M3188.51,-88.61C3035.84,-70.85 2790.04,-42.27 2666.29,-27.88"/>
<polygon fill="black" stroke="black" points="2666.48,-24.38 2656.14,-26.7 2665.67,-31.34 2666.48,-24.38"/>
<text text-anchor="middle" x="3023.39" y="-57.8" font-family="Times,serif" font-size="14.00">previous</text>
</g>
<!-- http://purl.org/dj/kaggle/probing&#45;private&#45;lb#29950131 -->
<g id="node20" class="node">
<title>http://purl.org/dj/kaggle/probing&#45;private&#45;lb#29950131</title>
<ellipse fill="none" stroke="black" cx="3752.89" cy="-105" rx="94.78" ry="18"/>
<text text-anchor="middle" x="3752.89" y="-101.3" font-family="Times,serif" font-size="14.00">29950131 (1(0): Reuse)</text>
</g>
<!-- http://purl.org/dj/kaggle/probing&#45;private&#45;lb#29950131&#45;&gt;http://purl.org/dj/kaggle/probing&#45;private&#45;lb -->
<g id="edge21" class="edge">
<title>http://purl.org/dj/kaggle/probing&#45;private&#45;lb#29950131&#45;&gt;http://purl.org/dj/kaggle/probing&#45;private&#45;lb</title>
<path fill="none" stroke="black" d="M3686.45,-92.15C3674,-90.21 3661.07,-88.38 3648.89,-87 3287.73,-45.99 2854.26,-27.8 2674.44,-21.62"/>
<polygon fill="black" stroke="black" points="2674.37,-18.11 2664.26,-21.27 2674.13,-25.11 2674.37,-18.11"/>
<text text-anchor="middle" x="3470.39" y="-57.8" font-family="Times,serif" font-size="14.00">previous</text>
</g>
<!-- http://purl.org/dj/kaggle/probing&#45;private&#45;lb#1032259161 -->
<g id="node21" class="node">
<title>http://purl.org/dj/kaggle/probing&#45;private&#45;lb#1032259161</title>
<ellipse fill="none" stroke="black" cx="7605.89" cy="-105" rx="155.17" ry="18"/>
<text text-anchor="middle" x="7605.89" y="-101.3" font-family="Times,serif" font-size="14.00">1032259161 (accuracy_group(0): Reuse)</text>
</g>
<!-- http://purl.org/dj/kaggle/probing&#45;private&#45;lb#1032259161&#45;&gt;http://purl.org/dj/kaggle/probing&#45;private&#45;lb -->
<g id="edge22" class="edge">
<title>http://purl.org/dj/kaggle/probing&#45;private&#45;lb#1032259161&#45;&gt;http://purl.org/dj/kaggle/probing&#45;private&#45;lb</title>
<path fill="none" stroke="black" d="M7500.58,-91.68C7481.09,-89.8 7460.89,-88.12 7441.89,-87 6461.58,-29.44 3242.91,-20.32 2675.67,-19.15"/>
<polygon fill="black" stroke="black" points="2675.52,-15.65 2665.52,-19.13 2675.51,-22.65 2675.52,-15.65"/>
<text text-anchor="middle" x="6973.39" y="-57.8" font-family="Times,serif" font-size="14.00">previous</text>
</g>
<!-- http://purl.org/dj/kaggle/probing&#45;private&#45;lb#800458020 -->
<g id="node22" class="node">
<title>http://purl.org/dj/kaggle/probing&#45;private&#45;lb#800458020</title>
<ellipse fill="none" stroke="black" cx="7598.89" cy="-192" rx="161.37" ry="18"/>
<text text-anchor="middle" x="7598.89" y="-188.3" font-family="Times,serif" font-size="14.00">800458020 (submission(0)$2: Movement)</text>
</g>
<!-- http://purl.org/dj/kaggle/probing&#45;private&#45;lb#800458020&#45;&gt;http://purl.org/dj/kaggle/probing&#45;private&#45;lb#1032259161 -->
<g id="edge23" class="edge">
<title>http://purl.org/dj/kaggle/probing&#45;private&#45;lb#800458020&#45;&gt;http://purl.org/dj/kaggle/probing&#45;private&#45;lb#1032259161</title>
<path fill="none" stroke="black" d="M7600.31,-173.8C7601.27,-162.16 7602.55,-146.55 7603.65,-133.24"/>
<polygon fill="black" stroke="black" points="7607.14,-133.43 7604.48,-123.18 7600.17,-132.85 7607.14,-133.43"/>
<text text-anchor="middle" x="7625.39" y="-144.8" font-family="Times,serif" font-size="14.00">previous</text>
</g>
<!-- http://purl.org/dj/kaggle/probing&#45;private&#45;lb#1048512072 -->
<g id="node23" class="node">
<title>http://purl.org/dj/kaggle/probing&#45;private&#45;lb#1048512072</title>
<ellipse fill="none" stroke="black" cx="7932.89" cy="-105" rx="153.27" ry="18"/>
<text text-anchor="middle" x="7932.89" y="-101.3" font-family="Times,serif" font-size="14.00">1048512072 (submission.csv(0): Reuse)</text>
</g>
<!-- http://purl.org/dj/kaggle/probing&#45;private&#45;lb#1048512072&#45;&gt;http://purl.org/dj/kaggle/probing&#45;private&#45;lb -->
<g id="edge24" class="edge">
<title>http://purl.org/dj/kaggle/probing&#45;private&#45;lb#1048512072&#45;&gt;http://purl.org/dj/kaggle/probing&#45;private&#45;lb</title>
<path fill="none" stroke="black" d="M7826.44,-91.95C7807.62,-90.09 7788.19,-88.35 7769.89,-87 7428.72,-61.91 7342.87,-62.69 7000.89,-54 6112.97,-31.43 3212.65,-21.03 2675.78,-19.27"/>
<polygon fill="black" stroke="black" points="2675.42,-15.77 2665.41,-19.24 2675.4,-22.77 2675.42,-15.77"/>
<text text-anchor="middle" x="7513.39" y="-57.8" font-family="Times,serif" font-size="14.00">previous</text>
</g>
<!-- http://purl.org/dj/kaggle/probing&#45;private&#45;lb#430637889 -->
<g id="node24" class="node">
<title>http://purl.org/dj/kaggle/probing&#45;private&#45;lb#430637889</title>
<ellipse fill="none" stroke="black" cx="4094.89" cy="-192" rx="161.37" ry="18"/>
<text text-anchor="middle" x="4094.89" y="-188.3" font-family="Times,serif" font-size="14.00">430637889 (CSV_FILE(0)$0: Movement)</text>
</g>
<!-- http://purl.org/dj/kaggle/probing&#45;private&#45;lb#430637889&#45;&gt;http://purl.org/dj/kaggle/probing&#45;private&#45;lb#29950131 -->
<g id="edge25" class="edge">
<title>http://purl.org/dj/kaggle/probing&#45;private&#45;lb#430637889&#45;&gt;http://purl.org/dj/kaggle/probing&#45;private&#45;lb#29950131</title>
<path fill="none" stroke="black" d="M4032.16,-175.41C3971.43,-160.31 3879.73,-137.52 3818.15,-122.22"/>
<polygon fill="black" stroke="black" points="3818.71,-118.75 3808.16,-119.74 3817.02,-125.54 3818.71,-118.75"/>
<text text-anchor="middle" x="3968.39" y="-144.8" font-family="Times,serif" font-size="14.00">previous</text>
</g>
<!-- http://purl.org/dj/kaggle/probing&#45;private&#45;lb#4252699915 -->
<g id="node25" class="node">
<title>http://purl.org/dj/kaggle/probing&#45;private&#45;lb#4252699915</title>
<ellipse fill="none" stroke="black" cx="4094.89" cy="-105" rx="228.56" ry="18"/>
<text text-anchor="middle" x="4094.89" y="-101.3" font-family="Times,serif" font-size="14.00">4252699915 (../input/2019&#45;dsb&#45;private&#45;probing/{}(0): Reuse)</text>
</g>
<!-- http://purl.org/dj/kaggle/probing&#45;private&#45;lb#430637889&#45;&gt;http://purl.org/dj/kaggle/probing&#45;private&#45;lb#4252699915 -->
<g id="edge26" class="edge">
<title>http://purl.org/dj/kaggle/probing&#45;private&#45;lb#430637889&#45;&gt;http://purl.org/dj/kaggle/probing&#45;private&#45;lb#4252699915</title>
<path fill="none" stroke="black" d="M4094.89,-173.8C4094.89,-162.16 4094.89,-146.55 4094.89,-133.24"/>
<polygon fill="black" stroke="black" points="4098.39,-133.18 4094.89,-123.18 4091.39,-133.18 4098.39,-133.18"/>
<text text-anchor="middle" x="4118.39" y="-144.8" font-family="Times,serif" font-size="14.00">previous</text>
</g>
<!-- http://purl.org/dj/kaggle/probing&#45;private&#45;lb#1544191946 -->
<g id="node26" class="node">
<title>http://purl.org/dj/kaggle/probing&#45;private&#45;lb#1544191946</title>
<ellipse fill="none" stroke="black" cx="5886.89" cy="-105" rx="1545.63" ry="18"/>
<text text-anchor="middle" x="5886.89" y="-101.3" font-family="Times,serif" font-size="14.00">1544191946 ([&lt;_ast.Constant object at 0x12f8ab3d0&gt;, &lt;_ast.Constant object at 0x12f8ab280&gt;, &lt;_ast.Constant object at 0x12f8ab1f0&gt;, &lt;_ast.Constant object at 0x12f8ab040&gt;, &lt;_ast.Constant object at 0x12f8ab0d0&gt;, &lt;_ast.Constant object at 0x12f8aba60&gt;, &lt;_ast.Constant object at 0x12f8ab0a0&gt;, &lt;_ast.Constant object at 0x12f8ab310&gt;, &lt;_ast.Constant object at 0x12f8ab3a0&gt;, &lt;_ast.Constant object at 0x12f8ab190&gt;](0): Reuse)</text>
</g>
<!-- http://purl.org/dj/kaggle/probing&#45;private&#45;lb#430637889&#45;&gt;http://purl.org/dj/kaggle/probing&#45;private&#45;lb#1544191946 -->
<g id="edge27" class="edge">
<title>http://purl.org/dj/kaggle/probing&#45;private&#45;lb#430637889&#45;&gt;http://purl.org/dj/kaggle/probing&#45;private&#45;lb#1544191946</title>
<path fill="none" stroke="black" d="M4240.02,-184.12C4518.01,-170.93 5132.97,-141.76 5527.72,-123.04"/>
<polygon fill="black" stroke="black" points="5528.06,-126.52 5537.88,-122.55 5527.73,-119.53 5528.06,-126.52"/>
<text text-anchor="middle" x="5122.39" y="-144.8" font-family="Times,serif" font-size="14.00">previous</text>
</g>
<!-- http://purl.org/dj/kaggle/probing&#45;private&#45;lb#4252699915&#45;&gt;http://purl.org/dj/kaggle/probing&#45;private&#45;lb -->
<g id="edge28" class="edge">
<title>http://purl.org/dj/kaggle/probing&#45;private&#45;lb#4252699915&#45;&gt;http://purl.org/dj/kaggle/probing&#45;private&#45;lb</title>
<path fill="none" stroke="black" d="M3956.59,-90.64C3835.68,-79.38 3655.3,-63.62 3497.89,-54 3195.51,-35.52 2835.85,-25.07 2675,-21"/>
<polygon fill="black" stroke="black" points="2674.78,-17.5 2664.69,-20.74 2674.6,-24.49 2674.78,-17.5"/>
<text text-anchor="middle" x="3719.39" y="-57.8" font-family="Times,serif" font-size="14.00">previous</text>
</g>
<!-- http://purl.org/dj/kaggle/probing&#45;private&#45;lb#1544191946&#45;&gt;http://purl.org/dj/kaggle/probing&#45;private&#45;lb -->
<g id="edge29" class="edge">
<title>http://purl.org/dj/kaggle/probing&#45;private&#45;lb#1544191946&#45;&gt;http://purl.org/dj/kaggle/probing&#45;private&#45;lb</title>
<path fill="none" stroke="black" d="M5282.65,-88.42C4456.22,-67.12 3034.59,-30.46 2674.63,-21.18"/>
<polygon fill="black" stroke="black" points="2674.63,-17.68 2664.54,-20.92 2674.45,-24.68 2674.63,-17.68"/>
<text text-anchor="middle" x="4459.39" y="-57.8" font-family="Times,serif" font-size="14.00">previous</text>
</g>
<!-- http://purl.org/dj/kaggle/probing&#45;private&#45;lb#30212276 -->
<g id="node27" class="node">
<title>http://purl.org/dj/kaggle/probing&#45;private&#45;lb#30212276</title>
<ellipse fill="none" stroke="black" cx="8198.89" cy="-105" rx="94.78" ry="18"/>
<text text-anchor="middle" x="8198.89" y="-101.3" font-family="Times,serif" font-size="14.00">30212276 (2(0): Reuse)</text>
</g>
<!-- http://purl.org/dj/kaggle/probing&#45;private&#45;lb#30212276&#45;&gt;http://purl.org/dj/kaggle/probing&#45;private&#45;lb -->
<g id="edge30" class="edge">
<title>http://purl.org/dj/kaggle/probing&#45;private&#45;lb#30212276&#45;&gt;http://purl.org/dj/kaggle/probing&#45;private&#45;lb</title>
<path fill="none" stroke="black" d="M8132.45,-92.1C8120,-90.17 8107.07,-88.35 8094.89,-87 7849.74,-59.74 7787.41,-62.21 7540.89,-54 6538.42,-20.62 3249.03,-19.01 2675.55,-18.99"/>
<polygon fill="black" stroke="black" points="2675.29,-15.49 2665.29,-18.99 2675.29,-22.49 2675.29,-15.49"/>
<text text-anchor="middle" x="7926.39" y="-57.8" font-family="Times,serif" font-size="14.00">previous</text>
</g>
<!-- http://purl.org/dj/kaggle/probing&#45;private&#45;lb#31523001 -->
<g id="node28" class="node">
<title>http://purl.org/dj/kaggle/probing&#45;private&#45;lb#31523001</title>
<ellipse fill="none" stroke="black" cx="8406.89" cy="-105" rx="94.78" ry="18"/>
<text text-anchor="middle" x="8406.89" y="-101.3" font-family="Times,serif" font-size="14.00">31523001 (7(0): Reuse)</text>
</g>
<!-- http://purl.org/dj/kaggle/probing&#45;private&#45;lb#31523001&#45;&gt;http://purl.org/dj/kaggle/probing&#45;private&#45;lb -->
<g id="edge31" class="edge">
<title>http://purl.org/dj/kaggle/probing&#45;private&#45;lb#31523001&#45;&gt;http://purl.org/dj/kaggle/probing&#45;private&#45;lb</title>
<path fill="none" stroke="black" d="M8339.3,-92.27C8327.2,-90.36 8314.69,-88.52 8302.89,-87 8148.37,-67.09 8109.5,-61.85 7953.89,-54 7405.92,-26.36 3321.16,-19.95 2675.68,-19.1"/>
<polygon fill="black" stroke="black" points="2675.53,-15.6 2665.52,-19.09 2675.52,-22.6 2675.53,-15.6"/>
<text text-anchor="middle" x="8175.39" y="-57.8" font-family="Times,serif" font-size="14.00">previous</text>
</g>
<!-- http://purl.org/dj/kaggle/probing&#45;private&#45;lb#800523557 -->
<g id="node29" class="node">
<title>http://purl.org/dj/kaggle/probing&#45;private&#45;lb#800523557</title>
<ellipse fill="none" stroke="black" cx="7938.89" cy="-192" rx="161.37" ry="18"/>
<text text-anchor="middle" x="7938.89" y="-188.3" font-family="Times,serif" font-size="14.00">800523557 (submission(0)$3: Movement)</text>
</g>
<!-- http://purl.org/dj/kaggle/probing&#45;private&#45;lb#800523557&#45;&gt;http://purl.org/dj/kaggle/probing&#45;private&#45;lb#1048512072 -->
<g id="edge32" class="edge">
<title>http://purl.org/dj/kaggle/probing&#45;private&#45;lb#800523557&#45;&gt;http://purl.org/dj/kaggle/probing&#45;private&#45;lb#1048512072</title>
<path fill="none" stroke="black" d="M7937.68,-173.8C7936.86,-162.16 7935.75,-146.55 7934.81,-133.24"/>
<polygon fill="black" stroke="black" points="7938.3,-132.9 7934.1,-123.18 7931.32,-133.4 7938.3,-132.9"/>
<text text-anchor="middle" x="7959.39" y="-144.8" font-family="Times,serif" font-size="14.00">previous</text>
</g>
<!-- http://purl.org/dj/kaggle/probing&#45;private&#45;lb#31785146 -->
<g id="node30" class="node">
<title>http://purl.org/dj/kaggle/probing&#45;private&#45;lb#31785146</title>
<ellipse fill="none" stroke="black" cx="8614.89" cy="-105" rx="94.78" ry="18"/>
<text text-anchor="middle" x="8614.89" y="-101.3" font-family="Times,serif" font-size="14.00">31785146 (8(0): Reuse)</text>
</g>
<!-- http://purl.org/dj/kaggle/probing&#45;private&#45;lb#31785146&#45;&gt;http://purl.org/dj/kaggle/probing&#45;private&#45;lb -->
<g id="edge33" class="edge">
<title>http://purl.org/dj/kaggle/probing&#45;private&#45;lb#31785146&#45;&gt;http://purl.org/dj/kaggle/probing&#45;private&#45;lb</title>
<path fill="none" stroke="black" d="M8547,-92.35C8534.99,-90.44 8522.59,-88.58 8510.89,-87 8374.46,-68.55 8340.34,-61.77 8202.89,-54 7628.61,-21.53 3339.34,-19.18 2675.96,-19.01"/>
<polygon fill="black" stroke="black" points="2675.53,-15.51 2665.53,-19.01 2675.53,-22.51 2675.53,-15.51"/>
<text text-anchor="middle" x="8401.39" y="-57.8" font-family="Times,serif" font-size="14.00">previous</text>
</g>
<!-- http://purl.org/dj/kaggle/probing&#45;private&#45;lb#800326946 -->
<g id="node31" class="node">
<title>http://purl.org/dj/kaggle/probing&#45;private&#45;lb#800326946</title>
<ellipse fill="none" stroke="black" cx="1195.89" cy="-192" rx="161.37" ry="18"/>
<text text-anchor="middle" x="1195.89" y="-188.3" font-family="Times,serif" font-size="14.00">800326946 (submission(0)$0: Movement)</text>
</g>
<!-- http://purl.org/dj/kaggle/probing&#45;private&#45;lb#800326946&#45;&gt;http://purl.org/dj/kaggle/probing&#45;private&#45;lb#779817917 -->
<g id="edge34" class="edge">
<title>http://purl.org/dj/kaggle/probing&#45;private&#45;lb#800326946&#45;&gt;http://purl.org/dj/kaggle/probing&#45;private&#45;lb#779817917</title>
<path fill="none" stroke="black" d="M1187.8,-173.8C1182.21,-161.93 1174.68,-145.93 1168.34,-132.45"/>
<polygon fill="black" stroke="black" points="1171.4,-130.73 1163.97,-123.18 1165.07,-133.71 1171.4,-130.73"/>
<text text-anchor="middle" x="1202.39" y="-144.8" font-family="Times,serif" font-size="14.00">previous</text>
</g>
</g>
</svg>
