<?xml version="1.0" encoding="UTF-8" standalone="no"?>
<!DOCTYPE svg PUBLIC "-//W3C//DTD SVG 1.1//EN"
 "http://www.w3.org/Graphics/SVG/1.1/DTD/svg11.dtd">
<!-- Generated by graphviz version 2.47.1 (20210417.1919)
 -->
<!-- Pages: 1 -->
<svg width="1500pt" height="413pt"
 viewBox="0.00 0.00 1500.12 413.00" xmlns="http://www.w3.org/2000/svg" xmlns:xlink="http://www.w3.org/1999/xlink">
<g id="graph0" class="graph" transform="scale(1 1) rotate(0) translate(4 409)">
<polygon fill="white" stroke="transparent" points="-4,4 -4,-409 1496.12,-409 1496.12,4 -4,4"/>
<!-- http://purl.org/dj/kaggle/probing&#45;private&#45;lb/activity/&#45;3784883674463525319 -->
<g id="node1" class="node">
<title>http://purl.org/dj/kaggle/probing&#45;private&#45;lb/activity/&#45;3784883674463525319</title>
<ellipse fill="none" stroke="black" cx="1011.28" cy="-387" rx="151.37" ry="18"/>
<text text-anchor="middle" x="1011.28" y="-383.3" font-family="Times,serif" font-size="14.00">&#45;3784883674463525319 (Visualisation)</text>
</g>
<!-- http://purl.org/dj/kaggle/probing&#45;private&#45;lb/activity/&#45;8604944366528506325 -->
<g id="node2" class="node">
<title>http://purl.org/dj/kaggle/probing&#45;private&#45;lb/activity/&#45;8604944366528506325</title>
<ellipse fill="none" stroke="black" cx="1170.28" cy="-246" rx="144.07" ry="18"/>
<text text-anchor="middle" x="1170.28" y="-242.3" font-family="Times,serif" font-size="14.00">&#45;8604944366528506325 (Movement)</text>
</g>
<!-- http://purl.org/dj/kaggle/probing&#45;private&#45;lb/activity/&#45;3784883674463525319&#45;&gt;http://purl.org/dj/kaggle/probing&#45;private&#45;lb/activity/&#45;8604944366528506325 -->
<g id="edge1" class="edge">
<title>http://purl.org/dj/kaggle/probing&#45;private&#45;lb/activity/&#45;3784883674463525319&#45;&gt;http://purl.org/dj/kaggle/probing&#45;private&#45;lb/activity/&#45;8604944366528506325</title>
<path fill="none" stroke="black" d="M1088.44,-371.39C1101.08,-366.45 1113.29,-359.84 1123.28,-351 1145.93,-330.96 1158.28,-297.85 1164.56,-274.37"/>
<polygon fill="black" stroke="black" points="1168.04,-274.9 1167.03,-264.35 1161.24,-273.22 1168.04,-274.9"/>
<text text-anchor="middle" x="1159.78" y="-339.8" font-family="Times,serif" font-size="14.00">previous</text>
</g>
<!-- http://purl.org/dj/kaggle/probing&#45;private&#45;lb/activity/8020975935698882928 -->
<g id="node3" class="node">
<title>http://purl.org/dj/kaggle/probing&#45;private&#45;lb/activity/8020975935698882928</title>
<ellipse fill="none" stroke="black" cx="907.28" cy="-300" rx="141.88" ry="18"/>
<text text-anchor="middle" x="907.28" y="-296.3" font-family="Times,serif" font-size="14.00">8020975935698882928 (Movement)</text>
</g>
<!-- http://purl.org/dj/kaggle/probing&#45;private&#45;lb/activity/&#45;3784883674463525319&#45;&gt;http://purl.org/dj/kaggle/probing&#45;private&#45;lb/activity/8020975935698882928 -->
<g id="edge2" class="edge">
<title>http://purl.org/dj/kaggle/probing&#45;private&#45;lb/activity/&#45;3784883674463525319&#45;&gt;http://purl.org/dj/kaggle/probing&#45;private&#45;lb/activity/8020975935698882928</title>
<path fill="none" stroke="black" d="M990.24,-368.8C974.63,-356.04 953.17,-338.5 935.99,-324.46"/>
<polygon fill="black" stroke="black" points="937.9,-321.5 927.94,-317.89 933.47,-326.92 937.9,-321.5"/>
<text text-anchor="middle" x="988.78" y="-339.8" font-family="Times,serif" font-size="14.00">previous</text>
</g>
<!-- http://purl.org/dj/kaggle/probing&#45;private&#45;lb/activity/&#45;4516398660095875675 -->
<g id="node4" class="node">
<title>http://purl.org/dj/kaggle/probing&#45;private&#45;lb/activity/&#45;4516398660095875675</title>
<ellipse fill="none" stroke="black" cx="702.28" cy="-105" rx="126.98" ry="18"/>
<text text-anchor="middle" x="702.28" y="-101.3" font-family="Times,serif" font-size="14.00">&#45;4516398660095875675 (Reuse)</text>
</g>
<!-- http://purl.org/dj/kaggle/probing&#45;private&#45;lb/activity/&#45;8604944366528506325&#45;&gt;http://purl.org/dj/kaggle/probing&#45;private&#45;lb/activity/&#45;4516398660095875675 -->
<g id="edge3" class="edge">
<title>http://purl.org/dj/kaggle/probing&#45;private&#45;lb/activity/&#45;8604944366528506325&#45;&gt;http://purl.org/dj/kaggle/probing&#45;private&#45;lb/activity/&#45;4516398660095875675</title>
<path fill="none" stroke="black" d="M1231.7,-229.67C1240.62,-224.81 1248.68,-218.41 1254.28,-210 1263.16,-196.69 1264.82,-186.04 1254.28,-174 1226.69,-142.47 982.78,-122.44 828.55,-112.81"/>
<polygon fill="black" stroke="black" points="828.72,-109.31 818.53,-112.19 828.29,-116.3 828.72,-109.31"/>
<text text-anchor="middle" x="1284.78" y="-188.3" font-family="Times,serif" font-size="14.00">previous</text>
</g>
<!-- http://purl.org/dj/kaggle/probing&#45;private&#45;lb/activity/8020975935698882928&#45;&gt;http://purl.org/dj/kaggle/probing&#45;private&#45;lb/activity/&#45;4516398660095875675 -->
<g id="edge4" class="edge">
<title>http://purl.org/dj/kaggle/probing&#45;private&#45;lb/activity/8020975935698882928&#45;&gt;http://purl.org/dj/kaggle/probing&#45;private&#45;lb/activity/&#45;4516398660095875675</title>
<path fill="none" stroke="black" d="M904.34,-281.81C898.99,-255.43 885.33,-204.78 855.28,-174 832.57,-150.73 800.5,-134.82 771.58,-124.27"/>
<polygon fill="black" stroke="black" points="772.5,-120.89 761.91,-120.9 770.2,-127.5 772.5,-120.89"/>
<text text-anchor="middle" x="902.78" y="-188.3" font-family="Times,serif" font-size="14.00">previous</text>
</g>
<!-- http://purl.org/dj/kaggle/probing&#45;private&#45;lb/activity/7414079646375344211 -->
<g id="node5" class="node">
<title>http://purl.org/dj/kaggle/probing&#45;private&#45;lb/activity/7414079646375344211</title>
<ellipse fill="none" stroke="black" cx="391.28" cy="-192" rx="148.67" ry="18"/>
<text text-anchor="middle" x="391.28" y="-188.3" font-family="Times,serif" font-size="14.00">7414079646375344211 (Visualisation)</text>
</g>
<!-- http://purl.org/dj/kaggle/probing&#45;private&#45;lb/activity/8020975935698882928&#45;&gt;http://purl.org/dj/kaggle/probing&#45;private&#45;lb/activity/7414079646375344211 -->
<g id="edge5" class="edge">
<title>http://purl.org/dj/kaggle/probing&#45;private&#45;lb/activity/8020975935698882928&#45;&gt;http://purl.org/dj/kaggle/probing&#45;private&#45;lb/activity/7414079646375344211</title>
<path fill="none" stroke="black" d="M836.08,-284.37C741.19,-264.88 573.65,-230.46 473.49,-209.89"/>
<polygon fill="black" stroke="black" points="473.92,-206.4 463.42,-207.82 472.51,-213.26 473.92,-206.4"/>
<text text-anchor="middle" x="748.78" y="-242.3" font-family="Times,serif" font-size="14.00">previous</text>
</g>
<!-- http://purl.org/dj/kaggle/probing&#45;private&#45;lb/activity/9016696865303653986 -->
<g id="node6" class="node">
<title>http://purl.org/dj/kaggle/probing&#45;private&#45;lb/activity/9016696865303653986</title>
<ellipse fill="none" stroke="black" cx="1096.28" cy="-192" rx="148.67" ry="18"/>
<text text-anchor="middle" x="1096.28" y="-188.3" font-family="Times,serif" font-size="14.00">9016696865303653986 (Visualisation)</text>
</g>
<!-- http://purl.org/dj/kaggle/probing&#45;private&#45;lb/activity/8020975935698882928&#45;&gt;http://purl.org/dj/kaggle/probing&#45;private&#45;lb/activity/9016696865303653986 -->
<g id="edge6" class="edge">
<title>http://purl.org/dj/kaggle/probing&#45;private&#45;lb/activity/8020975935698882928&#45;&gt;http://purl.org/dj/kaggle/probing&#45;private&#45;lb/activity/9016696865303653986</title>
<path fill="none" stroke="black" d="M918.2,-281.81C929.38,-265.6 948.2,-241.79 970.28,-228 981.83,-220.79 994.88,-215.04 1008.09,-210.46"/>
<polygon fill="black" stroke="black" points="1009.3,-213.75 1017.72,-207.33 1007.13,-207.09 1009.3,-213.75"/>
<text text-anchor="middle" x="993.78" y="-242.3" font-family="Times,serif" font-size="14.00">previous</text>
</g>
<!-- http://purl.org/dj/kaggle/probing&#45;private&#45;lb -->
<g id="node7" class="node">
<title>http://purl.org/dj/kaggle/probing&#45;private&#45;lb</title>
<ellipse fill="none" stroke="black" cx="170.28" cy="-18" rx="170.07" ry="18"/>
<text text-anchor="middle" x="170.28" y="-14.3" font-family="Times,serif" font-size="14.00">probing&#45;private&#45;lb (probing&#45;private&#45;lb.ipynb)</text>
</g>
<!-- http://purl.org/dj/kaggle/probing&#45;private&#45;lb/activity/&#45;4516398660095875675&#45;&gt;http://purl.org/dj/kaggle/probing&#45;private&#45;lb -->
<g id="edge7" class="edge">
<title>http://purl.org/dj/kaggle/probing&#45;private&#45;lb/activity/&#45;4516398660095875675&#45;&gt;http://purl.org/dj/kaggle/probing&#45;private&#45;lb</title>
<path fill="none" stroke="black" d="M621.49,-91.09C527.25,-76.03 371.44,-51.14 269.83,-34.9"/>
<polygon fill="black" stroke="black" points="270.29,-31.43 259.86,-33.31 269.18,-38.35 270.29,-31.43"/>
<text text-anchor="middle" x="491.78" y="-57.8" font-family="Times,serif" font-size="14.00">previous</text>
</g>
<!-- http://purl.org/dj/kaggle/probing&#45;private&#45;lb/activity/7414079646375344211&#45;&gt;http://purl.org/dj/kaggle/probing&#45;private&#45;lb/activity/&#45;4516398660095875675 -->
<g id="edge8" class="edge">
<title>http://purl.org/dj/kaggle/probing&#45;private&#45;lb/activity/7414079646375344211&#45;&gt;http://purl.org/dj/kaggle/probing&#45;private&#45;lb/activity/&#45;4516398660095875675</title>
<path fill="none" stroke="black" d="M448.69,-175.31C501.92,-160.76 581.07,-139.13 636.76,-123.91"/>
<polygon fill="black" stroke="black" points="637.8,-127.25 646.52,-121.24 635.95,-120.5 637.8,-127.25"/>
<text text-anchor="middle" x="589.78" y="-144.8" font-family="Times,serif" font-size="14.00">previous</text>
</g>
<!-- http://purl.org/dj/kaggle/probing&#45;private&#45;lb/activity/7414079646375344211&#45;&gt;http://purl.org/dj/kaggle/probing&#45;private&#45;lb -->
<g id="edge9" class="edge">
<title>http://purl.org/dj/kaggle/probing&#45;private&#45;lb/activity/7414079646375344211&#45;&gt;http://purl.org/dj/kaggle/probing&#45;private&#45;lb</title>
<path fill="none" stroke="black" d="M369.29,-173.88C329.41,-142.84 245.15,-77.26 200.12,-42.22"/>
<polygon fill="black" stroke="black" points="202.24,-39.43 192.19,-36.05 197.94,-44.96 202.24,-39.43"/>
<text text-anchor="middle" x="326.78" y="-101.3" font-family="Times,serif" font-size="14.00">previous</text>
</g>
<!-- http://purl.org/dj/kaggle/probing&#45;private&#45;lb/activity/9016696865303653986&#45;&gt;http://purl.org/dj/kaggle/probing&#45;private&#45;lb/activity/&#45;4516398660095875675 -->
<g id="edge10" class="edge">
<title>http://purl.org/dj/kaggle/probing&#45;private&#45;lb/activity/9016696865303653986&#45;&gt;http://purl.org/dj/kaggle/probing&#45;private&#45;lb/activity/&#45;4516398660095875675</title>
<path fill="none" stroke="black" d="M1037.89,-175.31C998.13,-164.9 944.22,-151.3 896.28,-141 862.32,-133.7 824.8,-126.69 791.87,-120.88"/>
<polygon fill="black" stroke="black" points="792.26,-117.4 781.81,-119.12 791.05,-124.29 792.26,-117.4"/>
<text text-anchor="middle" x="979.78" y="-144.8" font-family="Times,serif" font-size="14.00">previous</text>
</g>
<!-- http://purl.org/dj/kaggle/probing&#45;private&#45;lb/activity/&#45;175872670640121109 -->
<g id="node8" class="node">
<title>http://purl.org/dj/kaggle/probing&#45;private&#45;lb/activity/&#45;175872670640121109</title>
<ellipse fill="none" stroke="black" cx="323.28" cy="-387" rx="147.57" ry="18"/>
<text text-anchor="middle" x="323.28" y="-383.3" font-family="Times,serif" font-size="14.00">&#45;175872670640121109 (Visualisation)</text>
</g>
<!-- http://purl.org/dj/kaggle/probing&#45;private&#45;lb/activity/&#45;175872670640121109&#45;&gt;http://purl.org/dj/kaggle/probing&#45;private&#45;lb/activity/8020975935698882928 -->
<g id="edge11" class="edge">
<title>http://purl.org/dj/kaggle/probing&#45;private&#45;lb/activity/&#45;175872670640121109&#45;&gt;http://purl.org/dj/kaggle/probing&#45;private&#45;lb/activity/8020975935698882928</title>
<path fill="none" stroke="black" d="M414.21,-372.77C521,-357.22 697.54,-331.53 807.87,-315.47"/>
<polygon fill="black" stroke="black" points="808.61,-318.9 818.01,-313.99 807.61,-311.97 808.61,-318.9"/>
<text text-anchor="middle" x="673.78" y="-339.8" font-family="Times,serif" font-size="14.00">previous</text>
</g>
<!-- http://purl.org/dj/kaggle/probing&#45;private&#45;lb/activity/&#45;175872670640121109&#45;&gt;http://purl.org/dj/kaggle/probing&#45;private&#45;lb/activity/&#45;4516398660095875675 -->
<g id="edge12" class="edge">
<title>http://purl.org/dj/kaggle/probing&#45;private&#45;lb/activity/&#45;175872670640121109&#45;&gt;http://purl.org/dj/kaggle/probing&#45;private&#45;lb/activity/&#45;4516398660095875675</title>
<path fill="none" stroke="black" d="M270.77,-370.04C223.23,-352.48 156.09,-319.17 125.28,-264 102.98,-224.05 139.88,-202.99 175.28,-174 197.05,-156.18 202.51,-149.61 229.28,-141 261.34,-130.69 445.54,-119.27 574.37,-112.36"/>
<polygon fill="black" stroke="black" points="574.91,-115.84 584.71,-111.81 574.53,-108.85 574.91,-115.84"/>
<text text-anchor="middle" x="148.78" y="-242.3" font-family="Times,serif" font-size="14.00">previous</text>
</g>
<!-- http://purl.org/dj/kaggle/probing&#45;private&#45;lb/activity/6556354594434725604 -->
<g id="node9" class="node">
<title>http://purl.org/dj/kaggle/probing&#45;private&#45;lb/activity/6556354594434725604</title>
<ellipse fill="none" stroke="black" cx="323.28" cy="-246" rx="141.88" ry="18"/>
<text text-anchor="middle" x="323.28" y="-242.3" font-family="Times,serif" font-size="14.00">6556354594434725604 (Movement)</text>
</g>
<!-- http://purl.org/dj/kaggle/probing&#45;private&#45;lb/activity/&#45;175872670640121109&#45;&gt;http://purl.org/dj/kaggle/probing&#45;private&#45;lb/activity/6556354594434725604 -->
<g id="edge13" class="edge">
<title>http://purl.org/dj/kaggle/probing&#45;private&#45;lb/activity/&#45;175872670640121109&#45;&gt;http://purl.org/dj/kaggle/probing&#45;private&#45;lb/activity/6556354594434725604</title>
<path fill="none" stroke="black" d="M323.28,-368.96C323.28,-345.4 323.28,-302.64 323.28,-274.53"/>
<polygon fill="black" stroke="black" points="326.78,-274.18 323.28,-264.18 319.78,-274.18 326.78,-274.18"/>
<text text-anchor="middle" x="346.78" y="-339.8" font-family="Times,serif" font-size="14.00">previous</text>
</g>
<!-- http://purl.org/dj/kaggle/probing&#45;private&#45;lb/activity/6556354594434725604&#45;&gt;http://purl.org/dj/kaggle/probing&#45;private&#45;lb/activity/&#45;4516398660095875675 -->
<g id="edge14" class="edge">
<title>http://purl.org/dj/kaggle/probing&#45;private&#45;lb/activity/6556354594434725604&#45;&gt;http://purl.org/dj/kaggle/probing&#45;private&#45;lb/activity/&#45;4516398660095875675</title>
<path fill="none" stroke="black" d="M236.64,-231.64C213.71,-226.25 193.36,-219.11 186.28,-210 176.47,-197.36 175.74,-186.03 186.28,-174 211.81,-144.89 434.43,-124.28 578.8,-113.84"/>
<polygon fill="black" stroke="black" points="579.33,-117.31 589.06,-113.1 578.83,-110.32 579.33,-117.31"/>
<text text-anchor="middle" x="209.78" y="-188.3" font-family="Times,serif" font-size="14.00">previous</text>
</g>
<!-- http://purl.org/dj/kaggle/probing&#45;private&#45;lb/activity/692645521134091817 -->
<g id="node10" class="node">
<title>http://purl.org/dj/kaggle/probing&#45;private&#45;lb/activity/692645521134091817</title>
<ellipse fill="none" stroke="black" cx="702.28" cy="-192" rx="144.07" ry="18"/>
<text text-anchor="middle" x="702.28" y="-188.3" font-family="Times,serif" font-size="14.00">692645521134091817 (Visualisation)</text>
</g>
<!-- http://purl.org/dj/kaggle/probing&#45;private&#45;lb/activity/692645521134091817&#45;&gt;http://purl.org/dj/kaggle/probing&#45;private&#45;lb/activity/&#45;4516398660095875675 -->
<g id="edge15" class="edge">
<title>http://purl.org/dj/kaggle/probing&#45;private&#45;lb/activity/692645521134091817&#45;&gt;http://purl.org/dj/kaggle/probing&#45;private&#45;lb/activity/&#45;4516398660095875675</title>
<path fill="none" stroke="black" d="M702.28,-173.8C702.28,-162.16 702.28,-146.55 702.28,-133.24"/>
<polygon fill="black" stroke="black" points="705.78,-133.18 702.28,-123.18 698.78,-133.18 705.78,-133.18"/>
<text text-anchor="middle" x="725.78" y="-144.8" font-family="Times,serif" font-size="14.00">previous</text>
</g>
<!-- http://purl.org/dj/kaggle/probing&#45;private&#45;lb/activity/3598003709167361375 -->
<g id="node11" class="node">
<title>http://purl.org/dj/kaggle/probing&#45;private&#45;lb/activity/3598003709167361375</title>
<ellipse fill="none" stroke="black" cx="1343.28" cy="-387" rx="148.67" ry="18"/>
<text text-anchor="middle" x="1343.28" y="-383.3" font-family="Times,serif" font-size="14.00">3598003709167361375 (Visualisation)</text>
</g>
<!-- http://purl.org/dj/kaggle/probing&#45;private&#45;lb/activity/3598003709167361375&#45;&gt;http://purl.org/dj/kaggle/probing&#45;private&#45;lb/activity/8020975935698882928 -->
<g id="edge16" class="edge">
<title>http://purl.org/dj/kaggle/probing&#45;private&#45;lb/activity/3598003709167361375&#45;&gt;http://purl.org/dj/kaggle/probing&#45;private&#45;lb/activity/8020975935698882928</title>
<path fill="none" stroke="black" d="M1230.57,-375.21C1182.71,-369.6 1126.48,-361.65 1076.28,-351 1038.31,-342.95 996.46,-330.59 963.91,-320.18"/>
<polygon fill="black" stroke="black" points="964.72,-316.76 954.13,-317.02 962.57,-323.42 964.72,-316.76"/>
<text text-anchor="middle" x="1099.78" y="-339.8" font-family="Times,serif" font-size="14.00">previous</text>
</g>
<!-- http://purl.org/dj/kaggle/probing&#45;private&#45;lb/activity/3598003709167361375&#45;&gt;http://purl.org/dj/kaggle/probing&#45;private&#45;lb/activity/&#45;4516398660095875675 -->
<g id="edge17" class="edge">
<title>http://purl.org/dj/kaggle/probing&#45;private&#45;lb/activity/3598003709167361375&#45;&gt;http://purl.org/dj/kaggle/probing&#45;private&#45;lb/activity/&#45;4516398660095875675</title>
<path fill="none" stroke="black" d="M1346.62,-368.97C1353.35,-329.04 1363.88,-228.63 1312.28,-174 1272.83,-132.23 1243.96,-150.44 1187.28,-141 1069.86,-121.44 934.65,-112.81 836.87,-109"/>
<polygon fill="black" stroke="black" points="836.75,-105.49 826.63,-108.61 836.49,-112.49 836.75,-105.49"/>
<text text-anchor="middle" x="1372.78" y="-242.3" font-family="Times,serif" font-size="14.00">previous</text>
</g>
</g>
</svg>
