<?xml version="1.0" encoding="UTF-8" standalone="no"?>
<!DOCTYPE svg PUBLIC "-//W3C//DTD SVG 1.1//EN"
 "http://www.w3.org/Graphics/SVG/1.1/DTD/svg11.dtd">
<!-- Generated by graphviz version 2.47.1 (20210417.1919)
 -->
<!-- Pages: 1 -->
<svg width="1516pt" height="608pt"
 viewBox="0.00 0.00 1516.00 608.00" xmlns="http://www.w3.org/2000/svg" xmlns:xlink="http://www.w3.org/1999/xlink">
<g id="graph0" class="graph" transform="scale(1 1) rotate(0) translate(4 604)">
<polygon fill="white" stroke="transparent" points="-4,4 -4,-604 1512,-604 1512,4 -4,4"/>
<!-- http://purl.org/dj/kaggle/pytorch&#45;bert&#45;inference/activity/6410646386216774170 -->
<g id="node1" class="node">
<title>http://purl.org/dj/kaggle/pytorch&#45;bert&#45;inference/activity/6410646386216774170</title>
<ellipse fill="none" stroke="black" cx="928" cy="-582" rx="148.67" ry="18"/>
<text text-anchor="middle" x="928" y="-578.3" font-family="Times,serif" font-size="14.00">6410646386216774170 (Visualisation)</text>
</g>
<!-- http://purl.org/dj/kaggle/pytorch&#45;bert&#45;inference/activity/1173693101289485146 -->
<g id="node2" class="node">
<title>http://purl.org/dj/kaggle/pytorch&#45;bert&#45;inference/activity/1173693101289485146</title>
<ellipse fill="none" stroke="black" cx="454" cy="-495" rx="142.97" ry="18"/>
<text text-anchor="middle" x="454" y="-491.3" font-family="Times,serif" font-size="14.00">1173693101289485146 (Preparation)</text>
</g>
<!-- http://purl.org/dj/kaggle/pytorch&#45;bert&#45;inference/activity/6410646386216774170&#45;&gt;http://purl.org/dj/kaggle/pytorch&#45;bert&#45;inference/activity/1173693101289485146 -->
<g id="edge1" class="edge">
<title>http://purl.org/dj/kaggle/pytorch&#45;bert&#45;inference/activity/6410646386216774170&#45;&gt;http://purl.org/dj/kaggle/pytorch&#45;bert&#45;inference/activity/1173693101289485146</title>
<path fill="none" stroke="black" d="M848.4,-566.72C763.84,-551.56 630.51,-527.65 542.66,-511.9"/>
<polygon fill="black" stroke="black" points="543.17,-508.44 532.71,-510.12 541.94,-515.33 543.17,-508.44"/>
<text text-anchor="middle" x="742.5" y="-534.8" font-family="Times,serif" font-size="14.00">previous</text>
</g>
<!-- http://purl.org/dj/kaggle/pytorch&#45;bert&#45;inference/activity/&#45;6156797266805176345 -->
<g id="node3" class="node">
<title>http://purl.org/dj/kaggle/pytorch&#45;bert&#45;inference/activity/&#45;6156797266805176345</title>
<ellipse fill="none" stroke="black" cx="907" cy="-105" rx="126.98" ry="18"/>
<text text-anchor="middle" x="907" y="-101.3" font-family="Times,serif" font-size="14.00">&#45;6156797266805176345 (Reuse)</text>
</g>
<!-- http://purl.org/dj/kaggle/pytorch&#45;bert&#45;inference/activity/6410646386216774170&#45;&gt;http://purl.org/dj/kaggle/pytorch&#45;bert&#45;inference/activity/&#45;6156797266805176345 -->
<g id="edge2" class="edge">
<title>http://purl.org/dj/kaggle/pytorch&#45;bert&#45;inference/activity/6410646386216774170&#45;&gt;http://purl.org/dj/kaggle/pytorch&#45;bert&#45;inference/activity/&#45;6156797266805176345</title>
<path fill="none" stroke="black" d="M1057.02,-572.97C1214.77,-561.38 1461,-536.76 1461,-496 1461,-496 1461,-496 1461,-191 1461,-134.86 1399.49,-154.53 1345,-141 1288.61,-127 1144.23,-117.27 1036.56,-111.68"/>
<polygon fill="black" stroke="black" points="1036.42,-108.17 1026.25,-111.15 1036.06,-115.16 1036.42,-108.17"/>
<text text-anchor="middle" x="1484.5" y="-329.3" font-family="Times,serif" font-size="14.00">previous</text>
</g>
<!-- http://purl.org/dj/kaggle/pytorch&#45;bert&#45;inference/activity/7597484460197780461 -->
<g id="node4" class="node">
<title>http://purl.org/dj/kaggle/pytorch&#45;bert&#45;inference/activity/7597484460197780461</title>
<ellipse fill="none" stroke="black" cx="1295" cy="-441" rx="142.97" ry="18"/>
<text text-anchor="middle" x="1295" y="-437.3" font-family="Times,serif" font-size="14.00">7597484460197780461 (Preparation)</text>
</g>
<!-- http://purl.org/dj/kaggle/pytorch&#45;bert&#45;inference/activity/6410646386216774170&#45;&gt;http://purl.org/dj/kaggle/pytorch&#45;bert&#45;inference/activity/7597484460197780461 -->
<g id="edge3" class="edge">
<title>http://purl.org/dj/kaggle/pytorch&#45;bert&#45;inference/activity/6410646386216774170&#45;&gt;http://purl.org/dj/kaggle/pytorch&#45;bert&#45;inference/activity/7597484460197780461</title>
<path fill="none" stroke="black" d="M1072.27,-577.5C1139.92,-573.35 1211.6,-564.52 1239,-546 1265.46,-528.11 1280.45,-493.49 1288.14,-469.13"/>
<polygon fill="black" stroke="black" points="1291.54,-469.97 1290.99,-459.39 1284.82,-468 1291.54,-469.97"/>
<text text-anchor="middle" x="1277.5" y="-534.8" font-family="Times,serif" font-size="14.00">previous</text>
</g>
<!-- http://purl.org/dj/kaggle/pytorch&#45;bert&#45;inference -->
<g id="node5" class="node">
<title>http://purl.org/dj/kaggle/pytorch&#45;bert&#45;inference</title>
<ellipse fill="none" stroke="black" cx="240" cy="-18" rx="199.56" ry="18"/>
<text text-anchor="middle" x="240" y="-14.3" font-family="Times,serif" font-size="14.00">pytorch&#45;bert&#45;inference (pytorch&#45;bert&#45;inference.ipynb)</text>
</g>
<!-- http://purl.org/dj/kaggle/pytorch&#45;bert&#45;inference/activity/6410646386216774170&#45;&gt;http://purl.org/dj/kaggle/pytorch&#45;bert&#45;inference -->
<g id="edge4" class="edge">
<title>http://purl.org/dj/kaggle/pytorch&#45;bert&#45;inference/activity/6410646386216774170&#45;&gt;http://purl.org/dj/kaggle/pytorch&#45;bert&#45;inference</title>
<path fill="none" stroke="black" d="M789.82,-575.31C531.22,-563.73 0,-535.17 0,-496 0,-496 0,-496 0,-104 0,-72.78 73.06,-50.14 138.56,-36.11"/>
<polygon fill="black" stroke="black" points="139.51,-39.49 148.58,-34.02 138.08,-32.63 139.51,-39.49"/>
<text text-anchor="middle" x="23.5" y="-275.3" font-family="Times,serif" font-size="14.00">previous</text>
</g>
<!-- http://purl.org/dj/kaggle/pytorch&#45;bert&#45;inference/activity/4155556323720692564 -->
<g id="node6" class="node">
<title>http://purl.org/dj/kaggle/pytorch&#45;bert&#45;inference/activity/4155556323720692564</title>
<ellipse fill="none" stroke="black" cx="928" cy="-495" rx="142.97" ry="18"/>
<text text-anchor="middle" x="928" y="-491.3" font-family="Times,serif" font-size="14.00">4155556323720692564 (Preparation)</text>
</g>
<!-- http://purl.org/dj/kaggle/pytorch&#45;bert&#45;inference/activity/6410646386216774170&#45;&gt;http://purl.org/dj/kaggle/pytorch&#45;bert&#45;inference/activity/4155556323720692564 -->
<g id="edge5" class="edge">
<title>http://purl.org/dj/kaggle/pytorch&#45;bert&#45;inference/activity/6410646386216774170&#45;&gt;http://purl.org/dj/kaggle/pytorch&#45;bert&#45;inference/activity/4155556323720692564</title>
<path fill="none" stroke="black" d="M928,-563.8C928,-552.16 928,-536.55 928,-523.24"/>
<polygon fill="black" stroke="black" points="931.5,-523.18 928,-513.18 924.5,-523.18 931.5,-523.18"/>
<text text-anchor="middle" x="951.5" y="-534.8" font-family="Times,serif" font-size="14.00">previous</text>
</g>
<!-- http://purl.org/dj/kaggle/pytorch&#45;bert&#45;inference/activity/1173693101289485146&#45;&gt;http://purl.org/dj/kaggle/pytorch&#45;bert&#45;inference/activity/6410646386216774170 -->
<g id="edge6" class="edge">
<title>http://purl.org/dj/kaggle/pytorch&#45;bert&#45;inference/activity/1173693101289485146&#45;&gt;http://purl.org/dj/kaggle/pytorch&#45;bert&#45;inference/activity/6410646386216774170</title>
<path fill="none" stroke="black" d="M497.03,-512.25C528.23,-523.41 571.68,-537.66 611,-546 669.12,-558.34 734.21,-566.48 790.22,-571.78"/>
<polygon fill="black" stroke="black" points="789.93,-575.27 800.21,-572.7 790.57,-568.3 789.93,-575.27"/>
<text text-anchor="middle" x="634.5" y="-534.8" font-family="Times,serif" font-size="14.00">previous</text>
</g>
<!-- http://purl.org/dj/kaggle/pytorch&#45;bert&#45;inference/activity/1173693101289485146&#45;&gt;http://purl.org/dj/kaggle/pytorch&#45;bert&#45;inference/activity/&#45;6156797266805176345 -->
<g id="edge7" class="edge">
<title>http://purl.org/dj/kaggle/pytorch&#45;bert&#45;inference/activity/1173693101289485146&#45;&gt;http://purl.org/dj/kaggle/pytorch&#45;bert&#45;inference/activity/&#45;6156797266805176345</title>
<path fill="none" stroke="black" d="M439.99,-476.75C386.07,-409.9 196.29,-170.17 224,-141 242.54,-121.48 577.67,-112.05 771.46,-108.21"/>
<polygon fill="black" stroke="black" points="771.8,-111.71 781.73,-108.01 771.66,-104.71 771.8,-111.71"/>
<text text-anchor="middle" x="325.5" y="-275.3" font-family="Times,serif" font-size="14.00">previous</text>
</g>
<!-- http://purl.org/dj/kaggle/pytorch&#45;bert&#45;inference/activity/6369810976826937526 -->
<g id="node7" class="node">
<title>http://purl.org/dj/kaggle/pytorch&#45;bert&#45;inference/activity/6369810976826937526</title>
<ellipse fill="none" stroke="black" cx="164" cy="-333" rx="148.67" ry="18"/>
<text text-anchor="middle" x="164" y="-329.3" font-family="Times,serif" font-size="14.00">6369810976826937526 (Visualisation)</text>
</g>
<!-- http://purl.org/dj/kaggle/pytorch&#45;bert&#45;inference/activity/1173693101289485146&#45;&gt;http://purl.org/dj/kaggle/pytorch&#45;bert&#45;inference/activity/6369810976826937526 -->
<g id="edge8" class="edge">
<title>http://purl.org/dj/kaggle/pytorch&#45;bert&#45;inference/activity/1173693101289485146&#45;&gt;http://purl.org/dj/kaggle/pytorch&#45;bert&#45;inference/activity/6369810976826937526</title>
<path fill="none" stroke="black" d="M335.77,-484.71C311.89,-479.37 287.76,-471.26 267,-459 226.58,-435.14 195.08,-389.24 178.05,-360.2"/>
<polygon fill="black" stroke="black" points="181.03,-358.36 173.04,-351.41 174.95,-361.83 181.03,-358.36"/>
<text text-anchor="middle" x="290.5" y="-437.3" font-family="Times,serif" font-size="14.00">previous</text>
</g>
<!-- http://purl.org/dj/kaggle/pytorch&#45;bert&#45;inference/activity/&#45;6156797266805176345&#45;&gt;http://purl.org/dj/kaggle/pytorch&#45;bert&#45;inference -->
<g id="edge9" class="edge">
<title>http://purl.org/dj/kaggle/pytorch&#45;bert&#45;inference/activity/&#45;6156797266805176345&#45;&gt;http://purl.org/dj/kaggle/pytorch&#45;bert&#45;inference</title>
<path fill="none" stroke="black" d="M816,-92.4C697.79,-77.34 491.08,-51 360.1,-34.3"/>
<polygon fill="black" stroke="black" points="360.38,-30.81 350.01,-33.02 359.49,-37.76 360.38,-30.81"/>
<text text-anchor="middle" x="637.5" y="-57.8" font-family="Times,serif" font-size="14.00">previous</text>
</g>
<!-- http://purl.org/dj/kaggle/pytorch&#45;bert&#45;inference/activity/7597484460197780461&#45;&gt;http://purl.org/dj/kaggle/pytorch&#45;bert&#45;inference/activity/6410646386216774170 -->
<g id="edge10" class="edge">
<title>http://purl.org/dj/kaggle/pytorch&#45;bert&#45;inference/activity/7597484460197780461&#45;&gt;http://purl.org/dj/kaggle/pytorch&#45;bert&#45;inference/activity/6410646386216774170</title>
<path fill="none" stroke="black" d="M1252.27,-458.18C1184.82,-483.73 1053.84,-533.34 980.67,-561.05"/>
<polygon fill="black" stroke="black" points="979.29,-557.83 971.18,-564.65 981.77,-564.38 979.29,-557.83"/>
<text text-anchor="middle" x="1080.5" y="-534.8" font-family="Times,serif" font-size="14.00">previous</text>
</g>
<!-- http://purl.org/dj/kaggle/pytorch&#45;bert&#45;inference/activity/7597484460197780461&#45;&gt;http://purl.org/dj/kaggle/pytorch&#45;bert&#45;inference/activity/&#45;6156797266805176345 -->
<g id="edge11" class="edge">
<title>http://purl.org/dj/kaggle/pytorch&#45;bert&#45;inference/activity/7597484460197780461&#45;&gt;http://purl.org/dj/kaggle/pytorch&#45;bert&#45;inference/activity/&#45;6156797266805176345</title>
<path fill="none" stroke="black" d="M1323.29,-423.17C1350.01,-404.91 1386,-373.05 1386,-334 1386,-334 1386,-334 1386,-191 1386,-146.79 1342.14,-154.39 1300,-141 1252.48,-125.9 1131.89,-116.65 1036.72,-111.49"/>
<polygon fill="black" stroke="black" points="1036.88,-107.99 1026.71,-110.95 1036.51,-114.98 1036.88,-107.99"/>
<text text-anchor="middle" x="1409.5" y="-275.3" font-family="Times,serif" font-size="14.00">previous</text>
</g>
<!-- http://purl.org/dj/kaggle/pytorch&#45;bert&#45;inference/activity/&#45;8849946010271404236 -->
<g id="node8" class="node">
<title>http://purl.org/dj/kaggle/pytorch&#45;bert&#45;inference/activity/&#45;8849946010271404236</title>
<ellipse fill="none" stroke="black" cx="1169" cy="-192" rx="151.37" ry="18"/>
<text text-anchor="middle" x="1169" y="-188.3" font-family="Times,serif" font-size="14.00">&#45;8849946010271404236 (Visualisation)</text>
</g>
<!-- http://purl.org/dj/kaggle/pytorch&#45;bert&#45;inference/activity/7597484460197780461&#45;&gt;http://purl.org/dj/kaggle/pytorch&#45;bert&#45;inference/activity/&#45;8849946010271404236 -->
<g id="edge12" class="edge">
<title>http://purl.org/dj/kaggle/pytorch&#45;bert&#45;inference/activity/7597484460197780461&#45;&gt;http://purl.org/dj/kaggle/pytorch&#45;bert&#45;inference/activity/&#45;8849946010271404236</title>
<path fill="none" stroke="black" d="M1299.02,-422.98C1309.2,-378.13 1333.53,-258.08 1310,-228 1303.89,-220.18 1288.2,-213.86 1269.42,-208.86"/>
<polygon fill="black" stroke="black" points="1270.21,-205.45 1259.66,-206.44 1268.52,-212.24 1270.21,-205.45"/>
<text text-anchor="middle" x="1340.5" y="-329.3" font-family="Times,serif" font-size="14.00">previous</text>
</g>
<!-- http://purl.org/dj/kaggle/pytorch&#45;bert&#45;inference/activity/4155556323720692564&#45;&gt;http://purl.org/dj/kaggle/pytorch&#45;bert&#45;inference/activity/&#45;6156797266805176345 -->
<g id="edge13" class="edge">
<title>http://purl.org/dj/kaggle/pytorch&#45;bert&#45;inference/activity/4155556323720692564&#45;&gt;http://purl.org/dj/kaggle/pytorch&#45;bert&#45;inference/activity/&#45;6156797266805176345</title>
<path fill="none" stroke="black" d="M922.94,-476.88C912.12,-438.5 888.06,-342.56 892,-261 894.17,-216.07 899.85,-164.07 903.57,-133.17"/>
<polygon fill="black" stroke="black" points="907.05,-133.51 904.79,-123.16 900.11,-132.66 907.05,-133.51"/>
<text text-anchor="middle" x="915.5" y="-275.3" font-family="Times,serif" font-size="14.00">previous</text>
</g>
<!-- http://purl.org/dj/kaggle/pytorch&#45;bert&#45;inference/activity/&#45;8864960539995414567 -->
<g id="node9" class="node">
<title>http://purl.org/dj/kaggle/pytorch&#45;bert&#45;inference/activity/&#45;8864960539995414567</title>
<ellipse fill="none" stroke="black" cx="1091" cy="-387" rx="144.07" ry="18"/>
<text text-anchor="middle" x="1091" y="-383.3" font-family="Times,serif" font-size="14.00">&#45;8864960539995414567 (Movement)</text>
</g>
<!-- http://purl.org/dj/kaggle/pytorch&#45;bert&#45;inference/activity/4155556323720692564&#45;&gt;http://purl.org/dj/kaggle/pytorch&#45;bert&#45;inference/activity/&#45;8864960539995414567 -->
<g id="edge14" class="edge">
<title>http://purl.org/dj/kaggle/pytorch&#45;bert&#45;inference/activity/4155556323720692564&#45;&gt;http://purl.org/dj/kaggle/pytorch&#45;bert&#45;inference/activity/&#45;8864960539995414567</title>
<path fill="none" stroke="black" d="M953.83,-477.2C981.61,-459.14 1025.92,-430.32 1056.63,-410.35"/>
<polygon fill="black" stroke="black" points="1058.82,-413.1 1065.29,-404.72 1055,-407.24 1058.82,-413.1"/>
<text text-anchor="middle" x="1056.5" y="-437.3" font-family="Times,serif" font-size="14.00">previous</text>
</g>
<!-- http://purl.org/dj/kaggle/pytorch&#45;bert&#45;inference/activity/6369810976826937526&#45;&gt;http://purl.org/dj/kaggle/pytorch&#45;bert&#45;inference/activity/&#45;6156797266805176345 -->
<g id="edge15" class="edge">
<title>http://purl.org/dj/kaggle/pytorch&#45;bert&#45;inference/activity/6369810976826937526&#45;&gt;http://purl.org/dj/kaggle/pytorch&#45;bert&#45;inference/activity/&#45;6156797266805176345</title>
<path fill="none" stroke="black" d="M159.84,-314.82C151.84,-277 139.09,-186.31 188,-141 209.03,-121.52 569.44,-111.98 771.81,-108.14"/>
<polygon fill="black" stroke="black" points="771.99,-111.64 781.92,-107.95 771.86,-104.64 771.99,-111.64"/>
<text text-anchor="middle" x="176.5" y="-231.8" font-family="Times,serif" font-size="14.00">previous</text>
</g>
<!-- http://purl.org/dj/kaggle/pytorch&#45;bert&#45;inference/activity/&#45;8849946010271404236&#45;&gt;http://purl.org/dj/kaggle/pytorch&#45;bert&#45;inference/activity/&#45;6156797266805176345 -->
<g id="edge22" class="edge">
<title>http://purl.org/dj/kaggle/pytorch&#45;bert&#45;inference/activity/&#45;8849946010271404236&#45;&gt;http://purl.org/dj/kaggle/pytorch&#45;bert&#45;inference/activity/&#45;6156797266805176345</title>
<path fill="none" stroke="black" d="M1119.41,-174.91C1075.51,-160.67 1011.39,-139.87 965.09,-124.85"/>
<polygon fill="black" stroke="black" points="966.09,-121.49 955.5,-121.73 963.93,-128.15 966.09,-121.49"/>
<text text-anchor="middle" x="1076.5" y="-144.8" font-family="Times,serif" font-size="14.00">previous</text>
</g>
<!-- http://purl.org/dj/kaggle/pytorch&#45;bert&#45;inference/activity/&#45;8864960539995414567&#45;&gt;http://purl.org/dj/kaggle/pytorch&#45;bert&#45;inference/activity/&#45;6156797266805176345 -->
<g id="edge17" class="edge">
<title>http://purl.org/dj/kaggle/pytorch&#45;bert&#45;inference/activity/&#45;8864960539995414567&#45;&gt;http://purl.org/dj/kaggle/pytorch&#45;bert&#45;inference/activity/&#45;6156797266805176345</title>
<path fill="none" stroke="black" d="M1136.13,-369.69C1195.03,-345.48 1294.63,-293.66 1329,-210 1335.08,-195.2 1339.37,-186.18 1329,-174 1292.43,-131.06 1150.51,-115.14 1041.23,-109.29"/>
<polygon fill="black" stroke="black" points="1041.27,-105.79 1031.1,-108.77 1040.91,-112.78 1041.27,-105.79"/>
<text text-anchor="middle" x="1342.5" y="-231.8" font-family="Times,serif" font-size="14.00">previous</text>
</g>
<!-- http://purl.org/dj/kaggle/pytorch&#45;bert&#45;inference/activity/4311857106262911870 -->
<g id="node11" class="node">
<title>http://purl.org/dj/kaggle/pytorch&#45;bert&#45;inference/activity/4311857106262911870</title>
<ellipse fill="none" stroke="black" cx="1091" cy="-279" rx="142.97" ry="18"/>
<text text-anchor="middle" x="1091" y="-275.3" font-family="Times,serif" font-size="14.00">4311857106262911870 (Preparation)</text>
</g>
<!-- http://purl.org/dj/kaggle/pytorch&#45;bert&#45;inference/activity/&#45;8864960539995414567&#45;&gt;http://purl.org/dj/kaggle/pytorch&#45;bert&#45;inference/activity/4311857106262911870 -->
<g id="edge18" class="edge">
<title>http://purl.org/dj/kaggle/pytorch&#45;bert&#45;inference/activity/&#45;8864960539995414567&#45;&gt;http://purl.org/dj/kaggle/pytorch&#45;bert&#45;inference/activity/4311857106262911870</title>
<path fill="none" stroke="black" d="M1091,-368.97C1091,-352.38 1091,-326.88 1091,-307.43"/>
<polygon fill="black" stroke="black" points="1094.5,-307.34 1091,-297.34 1087.5,-307.34 1094.5,-307.34"/>
<text text-anchor="middle" x="1114.5" y="-329.3" font-family="Times,serif" font-size="14.00">previous</text>
</g>
<!-- http://purl.org/dj/kaggle/pytorch&#45;bert&#45;inference/activity/2405093424476262557 -->
<g id="node10" class="node">
<title>http://purl.org/dj/kaggle/pytorch&#45;bert&#45;inference/activity/2405093424476262557</title>
<ellipse fill="none" stroke="black" cx="417" cy="-192" rx="148.67" ry="18"/>
<text text-anchor="middle" x="417" y="-188.3" font-family="Times,serif" font-size="14.00">2405093424476262557 (Visualisation)</text>
</g>
<!-- http://purl.org/dj/kaggle/pytorch&#45;bert&#45;inference/activity/2405093424476262557&#45;&gt;http://purl.org/dj/kaggle/pytorch&#45;bert&#45;inference/activity/&#45;6156797266805176345 -->
<g id="edge16" class="edge">
<title>http://purl.org/dj/kaggle/pytorch&#45;bert&#45;inference/activity/2405093424476262557&#45;&gt;http://purl.org/dj/kaggle/pytorch&#45;bert&#45;inference/activity/&#45;6156797266805176345</title>
<path fill="none" stroke="black" d="M498.46,-176.87C587.38,-161.44 729.2,-136.84 820.18,-121.06"/>
<polygon fill="black" stroke="black" points="820.94,-124.48 830.19,-119.32 819.74,-117.58 820.94,-124.48"/>
<text text-anchor="middle" x="714.5" y="-144.8" font-family="Times,serif" font-size="14.00">previous</text>
</g>
<!-- http://purl.org/dj/kaggle/pytorch&#45;bert&#45;inference/activity/4311857106262911870&#45;&gt;http://purl.org/dj/kaggle/pytorch&#45;bert&#45;inference/activity/&#45;6156797266805176345 -->
<g id="edge19" class="edge">
<title>http://purl.org/dj/kaggle/pytorch&#45;bert&#45;inference/activity/4311857106262911870&#45;&gt;http://purl.org/dj/kaggle/pytorch&#45;bert&#45;inference/activity/&#45;6156797266805176345</title>
<path fill="none" stroke="black" d="M1045.24,-261.83C1018.44,-250.56 985.38,-233.35 962,-210 950.22,-198.24 931.15,-159.3 918.84,-132.55"/>
<polygon fill="black" stroke="black" points="921.97,-130.98 914.64,-123.33 915.6,-133.88 921.97,-130.98"/>
<text text-anchor="middle" x="985.5" y="-188.3" font-family="Times,serif" font-size="14.00">previous</text>
</g>
<!-- http://purl.org/dj/kaggle/pytorch&#45;bert&#45;inference/activity/4311857106262911870&#45;&gt;http://purl.org/dj/kaggle/pytorch&#45;bert&#45;inference -->
<g id="edge20" class="edge">
<title>http://purl.org/dj/kaggle/pytorch&#45;bert&#45;inference/activity/4311857106262911870&#45;&gt;http://purl.org/dj/kaggle/pytorch&#45;bert&#45;inference</title>
<path fill="none" stroke="black" d="M988.44,-266.41C970.31,-264.5 951.61,-262.62 934,-261 859.1,-254.12 312.81,-262.55 259,-210 215.25,-167.27 224.46,-87.65 233.19,-45.98"/>
<polygon fill="black" stroke="black" points="236.65,-46.54 235.42,-36.02 229.82,-45.01 236.65,-46.54"/>
<text text-anchor="middle" x="254.5" y="-144.8" font-family="Times,serif" font-size="14.00">previous</text>
</g>
<!-- http://purl.org/dj/kaggle/pytorch&#45;bert&#45;inference/activity/4311857106262911870&#45;&gt;http://purl.org/dj/kaggle/pytorch&#45;bert&#45;inference/activity/&#45;8849946010271404236 -->
<g id="edge21" class="edge">
<title>http://purl.org/dj/kaggle/pytorch&#45;bert&#45;inference/activity/4311857106262911870&#45;&gt;http://purl.org/dj/kaggle/pytorch&#45;bert&#45;inference/activity/&#45;8849946010271404236</title>
<path fill="none" stroke="black" d="M1106.78,-260.8C1118.1,-248.47 1133.51,-231.68 1146.16,-217.89"/>
<polygon fill="black" stroke="black" points="1149.06,-219.91 1153.24,-210.18 1143.9,-215.18 1149.06,-219.91"/>
<text text-anchor="middle" x="1157.5" y="-231.8" font-family="Times,serif" font-size="14.00">previous</text>
</g>
<!-- http://purl.org/dj/kaggle/pytorch&#45;bert&#45;inference/activity/&#45;830514691084302732 -->
<g id="node12" class="node">
<title>http://purl.org/dj/kaggle/pytorch&#45;bert&#45;inference/activity/&#45;830514691084302732</title>
<ellipse fill="none" stroke="black" cx="731" cy="-192" rx="147.57" ry="18"/>
<text text-anchor="middle" x="731" y="-188.3" font-family="Times,serif" font-size="14.00">&#45;830514691084302732 (Visualisation)</text>
</g>
<!-- http://purl.org/dj/kaggle/pytorch&#45;bert&#45;inference/activity/&#45;830514691084302732&#45;&gt;http://purl.org/dj/kaggle/pytorch&#45;bert&#45;inference/activity/&#45;6156797266805176345 -->
<g id="edge23" class="edge">
<title>http://purl.org/dj/kaggle/pytorch&#45;bert&#45;inference/activity/&#45;830514691084302732&#45;&gt;http://purl.org/dj/kaggle/pytorch&#45;bert&#45;inference/activity/&#45;6156797266805176345</title>
<path fill="none" stroke="black" d="M765.35,-174.41C793.55,-160.79 833.62,-141.44 863.96,-126.79"/>
<polygon fill="black" stroke="black" points="865.55,-129.9 873.03,-122.4 862.51,-123.6 865.55,-129.9"/>
<text text-anchor="middle" x="852.5" y="-144.8" font-family="Times,serif" font-size="14.00">previous</text>
</g>
</g>
</svg>
