<?xml version="1.0" encoding="UTF-8" standalone="no"?>
<!DOCTYPE svg PUBLIC "-//W3C//DTD SVG 1.1//EN"
 "http://www.w3.org/Graphics/SVG/1.1/DTD/svg11.dtd">
<!-- Generated by graphviz version 2.44.1 (20200629.0846)
 -->
<!-- Pages: 1 -->
<svg width="3382pt" height="587pt"
 viewBox="0.00 0.00 3382.27 587.00" xmlns="http://www.w3.org/2000/svg" xmlns:xlink="http://www.w3.org/1999/xlink">
<g id="graph0" class="graph" transform="scale(1 1) rotate(0) translate(4 583)">
<polygon fill="white" stroke="transparent" points="-4,4 -4,-583 3378.27,-583 3378.27,4 -4,4"/>
<!-- http://purl.org/dj/kaggle/random&#45;forests#29950131 -->
<g id="node1" class="node">
<title>http://purl.org/dj/kaggle/random&#45;forests#29950131</title>
<ellipse fill="none" stroke="black" cx="176.44" cy="-333" rx="94.78" ry="18"/>
<text text-anchor="middle" x="176.44" y="-329.3" font-family="Times,serif" font-size="14.00">29950131 (1(0): Reuse)</text>
</g>
<!-- http://purl.org/dj/kaggle/random&#45;forests -->
<g id="node2" class="node">
<title>http://purl.org/dj/kaggle/random&#45;forests</title>
<ellipse fill="none" stroke="black" cx="1418.44" cy="-18" rx="64.19" ry="18"/>
<text text-anchor="middle" x="1418.44" y="-14.3" font-family="Times,serif" font-size="14.00">random&#45;forests</text>
</g>
<!-- http://purl.org/dj/kaggle/random&#45;forests#29950131&#45;&gt;http://purl.org/dj/kaggle/random&#45;forests -->
<g id="edge1" class="edge">
<title>http://purl.org/dj/kaggle/random&#45;forests#29950131&#45;&gt;http://purl.org/dj/kaggle/random&#45;forests</title>
<path fill="none" stroke="black" d="M99.76,-322.24C66.17,-316.52 31.63,-308.19 19.44,-297 -1.32,-277.94 0.44,-264.68 0.44,-236.5 0.44,-236.5 0.44,-236.5 0.44,-104 0.44,-36.02 1052.53,-22.09 1344.24,-19.53"/>
<polygon fill="black" stroke="black" points="1344.32,-23.03 1354.29,-19.44 1344.26,-16.03 1344.32,-23.03"/>
<text text-anchor="middle" x="23.94" y="-188.3" font-family="Times,serif" font-size="14.00">previous</text>
</g>
<!-- http://purl.org/dj/kaggle/random&#45;forests#1257244313 -->
<g id="node3" class="node">
<title>http://purl.org/dj/kaggle/random&#45;forests#1257244313</title>
<ellipse fill="none" stroke="black" cx="193.44" cy="-279" rx="165.17" ry="18"/>
<text text-anchor="middle" x="193.44" y="-275.3" font-family="Times,serif" font-size="14.00">1257244313 (melbourne_data(0)$1: Reuse)</text>
</g>
<!-- http://purl.org/dj/kaggle/random&#45;forests#1257178776 -->
<g id="node4" class="node">
<title>http://purl.org/dj/kaggle/random&#45;forests#1257178776</title>
<ellipse fill="none" stroke="black" cx="651.44" cy="-192" rx="182.77" ry="18"/>
<text text-anchor="middle" x="651.44" y="-188.3" font-family="Times,serif" font-size="14.00">1257178776 (melbourne_data(0)$0: Movement)</text>
</g>
<!-- http://purl.org/dj/kaggle/random&#45;forests#1257244313&#45;&gt;http://purl.org/dj/kaggle/random&#45;forests#1257178776 -->
<g id="edge2" class="edge">
<title>http://purl.org/dj/kaggle/random&#45;forests#1257244313&#45;&gt;http://purl.org/dj/kaggle/random&#45;forests#1257178776</title>
<path fill="none" stroke="black" d="M273.22,-263.19C353.13,-248.36 476,-225.56 559.85,-210"/>
<polygon fill="black" stroke="black" points="560.69,-213.4 569.88,-208.14 559.41,-206.52 560.69,-213.4"/>
<text text-anchor="middle" x="473.94" y="-231.8" font-family="Times,serif" font-size="14.00">previous</text>
</g>
<!-- http://purl.org/dj/kaggle/random&#45;forests#80085334 -->
<g id="node5" class="node">
<title>http://purl.org/dj/kaggle/random&#45;forests#80085334</title>
<ellipse fill="none" stroke="black" cx="909.44" cy="-105" rx="99.38" ry="18"/>
<text text-anchor="middle" x="909.44" y="-101.3" font-family="Times,serif" font-size="14.00">80085334 (pd(0): Reuse)</text>
</g>
<!-- http://purl.org/dj/kaggle/random&#45;forests#1257178776&#45;&gt;http://purl.org/dj/kaggle/random&#45;forests#80085334 -->
<g id="edge3" class="edge">
<title>http://purl.org/dj/kaggle/random&#45;forests#1257178776&#45;&gt;http://purl.org/dj/kaggle/random&#45;forests#80085334</title>
<path fill="none" stroke="black" d="M701.18,-174.61C744.97,-160.18 808.66,-139.2 854.06,-124.25"/>
<polygon fill="black" stroke="black" points="855.34,-127.51 863.74,-121.06 853.15,-120.86 855.34,-127.51"/>
<text text-anchor="middle" x="819.94" y="-144.8" font-family="Times,serif" font-size="14.00">previous</text>
</g>
<!-- http://purl.org/dj/python/lib/144966264 -->
<g id="node6" class="node">
<title>http://purl.org/dj/python/lib/144966264</title>
<ellipse fill="none" stroke="black" cx="1136.44" cy="-105" rx="109.38" ry="18"/>
<text text-anchor="middle" x="1136.44" y="-101.3" font-family="Times,serif" font-size="14.00">144966264 (pandas: Reuse)</text>
</g>
<!-- http://purl.org/dj/kaggle/random&#45;forests#1257178776&#45;&gt;http://purl.org/dj/python/lib/144966264 -->
<g id="edge4" class="edge">
<title>http://purl.org/dj/kaggle/random&#45;forests#1257178776&#45;&gt;http://purl.org/dj/python/lib/144966264</title>
<path fill="none" stroke="black" d="M736.75,-176.05C826.39,-160.34 966.38,-135.8 1054.67,-120.33"/>
<polygon fill="black" stroke="black" points="1055.39,-123.76 1064.64,-118.58 1054.18,-116.86 1055.39,-123.76"/>
<text text-anchor="middle" x="946.94" y="-144.8" font-family="Times,serif" font-size="14.00">previous</text>
</g>
<!-- http://purl.org/dj/kaggle/random&#45;forests#58004286 -->
<g id="node7" class="node">
<title>http://purl.org/dj/kaggle/random&#45;forests#58004286</title>
<ellipse fill="none" stroke="black" cx="517.44" cy="-105" rx="274.05" ry="18"/>
<text text-anchor="middle" x="517.44" y="-101.3" font-family="Times,serif" font-size="14.00">58004286 (../input/melbourne&#45;housing&#45;snapshot/melb_data.csv(0): Reuse)</text>
</g>
<!-- http://purl.org/dj/kaggle/random&#45;forests#1257178776&#45;&gt;http://purl.org/dj/kaggle/random&#45;forests#58004286 -->
<g id="edge5" class="edge">
<title>http://purl.org/dj/kaggle/random&#45;forests#1257178776&#45;&gt;http://purl.org/dj/kaggle/random&#45;forests#58004286</title>
<path fill="none" stroke="black" d="M624.64,-174C604.01,-160.92 575.31,-142.71 552.79,-128.43"/>
<polygon fill="black" stroke="black" points="554.51,-125.37 544.19,-122.97 550.76,-131.28 554.51,-125.37"/>
<text text-anchor="middle" x="616.94" y="-144.8" font-family="Times,serif" font-size="14.00">previous</text>
</g>
<!-- http://purl.org/dj/kaggle/random&#45;forests#80085334&#45;&gt;http://purl.org/dj/kaggle/random&#45;forests -->
<g id="edge6" class="edge">
<title>http://purl.org/dj/kaggle/random&#45;forests#80085334&#45;&gt;http://purl.org/dj/kaggle/random&#45;forests</title>
<path fill="none" stroke="black" d="M965.29,-89.94C1010.43,-78.97 1075.72,-63.96 1133.44,-54 1206.31,-41.42 1290.43,-31.67 1348.29,-25.69"/>
<polygon fill="black" stroke="black" points="1348.83,-29.15 1358.42,-24.65 1348.11,-22.19 1348.83,-29.15"/>
<text text-anchor="middle" x="1156.94" y="-57.8" font-family="Times,serif" font-size="14.00">previous</text>
</g>
<!-- http://purl.org/dj/python/lib/144966264&#45;&gt;http://purl.org/dj/kaggle/random&#45;forests -->
<g id="edge7" class="edge">
<title>http://purl.org/dj/python/lib/144966264&#45;&gt;http://purl.org/dj/kaggle/random&#45;forests</title>
<path fill="none" stroke="black" d="M1156.75,-87.25C1171.36,-76.09 1192.01,-62.04 1212.44,-54 1255.07,-37.21 1305.78,-28.47 1346.21,-23.92"/>
<polygon fill="black" stroke="black" points="1346.69,-27.39 1356.26,-22.85 1345.95,-20.43 1346.69,-27.39"/>
<text text-anchor="middle" x="1235.94" y="-57.8" font-family="Times,serif" font-size="14.00">previous</text>
</g>
<!-- http://purl.org/dj/kaggle/random&#45;forests#58004286&#45;&gt;http://purl.org/dj/kaggle/random&#45;forests -->
<g id="edge8" class="edge">
<title>http://purl.org/dj/kaggle/random&#45;forests#58004286&#45;&gt;http://purl.org/dj/kaggle/random&#45;forests</title>
<path fill="none" stroke="black" d="M654.95,-89.39C753.36,-79.08 889,-65.18 1008.44,-54 1127.13,-42.89 1265.28,-31.39 1347.1,-24.73"/>
<polygon fill="black" stroke="black" points="1347.6,-28.21 1357.28,-23.91 1347.03,-21.23 1347.6,-28.21"/>
<text text-anchor="middle" x="1031.94" y="-57.8" font-family="Times,serif" font-size="14.00">previous</text>
</g>
<!-- http://purl.org/dj/kaggle/random&#45;forests#477168555 -->
<g id="node8" class="node">
<title>http://purl.org/dj/kaggle/random&#45;forests#477168555</title>
<ellipse fill="none" stroke="black" cx="902.44" cy="-387" rx="149.47" ry="18"/>
<text text-anchor="middle" x="902.44" y="-383.3" font-family="Times,serif" font-size="14.00">477168555 (train_X(0)$0: Preparation)</text>
</g>
<!-- http://purl.org/dj/kaggle/random&#45;forests#477168555&#45;&gt;http://purl.org/dj/kaggle/random&#45;forests#1257244313 -->
<g id="edge9" class="edge">
<title>http://purl.org/dj/kaggle/random&#45;forests#477168555&#45;&gt;http://purl.org/dj/kaggle/random&#45;forests#1257244313</title>
<path fill="none" stroke="black" d="M812.64,-372.58C680.87,-352.87 435.71,-316.22 296.67,-295.43"/>
<polygon fill="black" stroke="black" points="296.85,-291.92 286.44,-293.9 295.81,-298.84 296.85,-291.92"/>
<text text-anchor="middle" x="676.94" y="-329.3" font-family="Times,serif" font-size="14.00">previous</text>
</g>
<!-- http://purl.org/dj/kaggle/random&#45;forests#29687986 -->
<g id="node9" class="node">
<title>http://purl.org/dj/kaggle/random&#45;forests#29687986</title>
<ellipse fill="none" stroke="black" cx="2715.44" cy="-279" rx="94.78" ry="18"/>
<text text-anchor="middle" x="2715.44" y="-275.3" font-family="Times,serif" font-size="14.00">29687986 (0(0): Reuse)</text>
</g>
<!-- http://purl.org/dj/kaggle/random&#45;forests#477168555&#45;&gt;http://purl.org/dj/kaggle/random&#45;forests#29687986 -->
<g id="edge10" class="edge">
<title>http://purl.org/dj/kaggle/random&#45;forests#477168555&#45;&gt;http://purl.org/dj/kaggle/random&#45;forests#29687986</title>
<path fill="none" stroke="black" d="M1004.76,-373.87C1023.27,-371.99 1042.41,-370.26 1060.44,-369 1090.77,-366.87 1581.66,-367.13 1607.44,-351 1622.78,-341.4 1611.03,-324.48 1626.44,-315 1673.05,-286.31 2556.93,-301.93 2611.44,-297 2620.77,-296.16 2630.53,-294.97 2640.17,-293.61"/>
<polygon fill="black" stroke="black" points="2640.77,-297.06 2650.16,-292.14 2639.75,-290.14 2640.77,-297.06"/>
<text text-anchor="middle" x="1649.94" y="-329.3" font-family="Times,serif" font-size="14.00">previous</text>
</g>
<!-- http://purl.org/dj/kaggle/random&#45;forests#2803652736 -->
<g id="node10" class="node">
<title>http://purl.org/dj/kaggle/random&#45;forests#2803652736</title>
<ellipse fill="none" stroke="black" cx="1489.44" cy="-279" rx="1112.9" ry="18"/>
<text text-anchor="middle" x="1489.44" y="-275.3" font-family="Times,serif" font-size="14.00">2803652736 ([&lt;_ast.Constant object at 0x12f989f10&gt;, &lt;_ast.Constant object at 0x12f989dc0&gt;, &lt;_ast.Constant object at 0x12f989fd0&gt;, &lt;_ast.Constant object at 0x12f9899a0&gt;, &lt;_ast.Constant object at 0x12f841e20&gt;, &lt;_ast.Constant object at 0x12f841d90&gt;, &lt;_ast.Constant object at 0x12f8ab100&gt;](0): Reuse)</text>
</g>
<!-- http://purl.org/dj/kaggle/random&#45;forests#477168555&#45;&gt;http://purl.org/dj/kaggle/random&#45;forests#2803652736 -->
<g id="edge11" class="edge">
<title>http://purl.org/dj/kaggle/random&#45;forests#477168555&#45;&gt;http://purl.org/dj/kaggle/random&#45;forests#2803652736</title>
<path fill="none" stroke="black" d="M1010.03,-374.43C1104.06,-364.31 1225.77,-351.19 1226.44,-351 1263.24,-340.82 1268.07,-326.64 1304.44,-315 1324.06,-308.72 1345.23,-303.41 1366,-298.98"/>
<polygon fill="black" stroke="black" points="1366.75,-302.4 1375.83,-296.94 1365.33,-295.54 1366.75,-302.4"/>
<text text-anchor="middle" x="1327.94" y="-329.3" font-family="Times,serif" font-size="14.00">previous</text>
</g>
<!-- http://purl.org/dj/kaggle/random&#45;forests#29687986&#45;&gt;http://purl.org/dj/kaggle/random&#45;forests -->
<g id="edge12" class="edge">
<title>http://purl.org/dj/kaggle/random&#45;forests#29687986&#45;&gt;http://purl.org/dj/kaggle/random&#45;forests</title>
<path fill="none" stroke="black" d="M2648.71,-266.2C2636.34,-264.27 2623.52,-262.43 2611.44,-261 2327.12,-227.26 1517.68,-339.61 1330.44,-123 1305.59,-94.26 1346.58,-60.63 1380.56,-39.57"/>
<polygon fill="black" stroke="black" points="1382.68,-42.39 1389.45,-34.24 1379.08,-36.38 1382.68,-42.39"/>
<text text-anchor="middle" x="1389.94" y="-144.8" font-family="Times,serif" font-size="14.00">previous</text>
</g>
<!-- http://purl.org/dj/kaggle/random&#45;forests#2803652736&#45;&gt;http://purl.org/dj/kaggle/random&#45;forests -->
<g id="edge13" class="edge">
<title>http://purl.org/dj/kaggle/random&#45;forests#2803652736&#45;&gt;http://purl.org/dj/kaggle/random&#45;forests</title>
<path fill="none" stroke="black" d="M1364.3,-260.98C1351.92,-256.32 1340.03,-250.42 1329.44,-243 1291.98,-216.75 1287.16,-199.94 1274.44,-156 1264.36,-121.2 1269.36,-82.74 1297.44,-54 1310.91,-40.21 1329.46,-31.77 1347.98,-26.63"/>
<polygon fill="black" stroke="black" points="1349.07,-29.96 1357.93,-24.16 1347.39,-23.17 1349.07,-29.96"/>
<text text-anchor="middle" x="1297.94" y="-144.8" font-family="Times,serif" font-size="14.00">previous</text>
</g>
<!-- http://purl.org/dj/kaggle/random&#45;forests#1989675282 -->
<g id="node11" class="node">
<title>http://purl.org/dj/kaggle/random&#45;forests#1989675282</title>
<ellipse fill="none" stroke="black" cx="1526.44" cy="-105" rx="186.57" ry="18"/>
<text text-anchor="middle" x="1526.44" y="-101.3" font-family="Times,serif" font-size="14.00">1989675282 (RandomForestRegressor(0): Reuse)</text>
</g>
<!-- http://purl.org/dj/kaggle/random&#45;forests#1989675282&#45;&gt;http://purl.org/dj/kaggle/random&#45;forests -->
<g id="edge14" class="edge">
<title>http://purl.org/dj/kaggle/random&#45;forests#1989675282&#45;&gt;http://purl.org/dj/kaggle/random&#45;forests</title>
<path fill="none" stroke="black" d="M1504.84,-87C1488.19,-73.9 1465.01,-55.65 1446.85,-41.36"/>
<polygon fill="black" stroke="black" points="1448.92,-38.54 1438.9,-35.1 1444.59,-44.04 1448.92,-38.54"/>
<text text-anchor="middle" x="1502.94" y="-57.8" font-family="Times,serif" font-size="14.00">previous</text>
</g>
<!-- http://purl.org/dj/kaggle/random&#45;forests#249561878 -->
<g id="node12" class="node">
<title>http://purl.org/dj/kaggle/random&#45;forests#249561878</title>
<ellipse fill="none" stroke="black" cx="2070.44" cy="-192" rx="136.48" ry="18"/>
<text text-anchor="middle" x="2070.44" y="-188.3" font-family="Times,serif" font-size="14.00">249561878 (print[0]: Visualisation)</text>
</g>
<!-- http://purl.org/dj/kaggle/random&#45;forests#1722550378 -->
<g id="node13" class="node">
<title>http://purl.org/dj/kaggle/random&#45;forests#1722550378</title>
<ellipse fill="none" stroke="black" cx="1905.44" cy="-105" rx="174.37" ry="18"/>
<text text-anchor="middle" x="1905.44" y="-101.3" font-family="Times,serif" font-size="14.00">1722550378 (mean_absolute_error(0): Reuse)</text>
</g>
<!-- http://purl.org/dj/kaggle/random&#45;forests#249561878&#45;&gt;http://purl.org/dj/kaggle/random&#45;forests#1722550378 -->
<g id="edge15" class="edge">
<title>http://purl.org/dj/kaggle/random&#45;forests#249561878&#45;&gt;http://purl.org/dj/kaggle/random&#45;forests#1722550378</title>
<path fill="none" stroke="black" d="M2038.23,-174.41C2012.2,-161 1975.35,-142.02 1947.08,-127.45"/>
<polygon fill="black" stroke="black" points="1948.34,-124.16 1937.84,-122.69 1945.13,-130.38 1948.34,-124.16"/>
<text text-anchor="middle" x="2021.94" y="-144.8" font-family="Times,serif" font-size="14.00">previous</text>
</g>
<!-- http://purl.org/dj/python/lib/816055830 -->
<g id="node14" class="node">
<title>http://purl.org/dj/python/lib/816055830</title>
<ellipse fill="none" stroke="black" cx="2236.44" cy="-105" rx="139.18" ry="18"/>
<text text-anchor="middle" x="2236.44" y="-101.3" font-family="Times,serif" font-size="14.00">816055830 (sklearn.metrics: Reuse)</text>
</g>
<!-- http://purl.org/dj/kaggle/random&#45;forests#249561878&#45;&gt;http://purl.org/dj/python/lib/816055830 -->
<g id="edge16" class="edge">
<title>http://purl.org/dj/kaggle/random&#45;forests#249561878&#45;&gt;http://purl.org/dj/python/lib/816055830</title>
<path fill="none" stroke="black" d="M2102.84,-174.41C2129.23,-160.89 2166.66,-141.73 2195.2,-127.12"/>
<polygon fill="black" stroke="black" points="2196.81,-130.22 2204.12,-122.55 2193.62,-123.99 2196.81,-130.22"/>
<text text-anchor="middle" x="2186.94" y="-144.8" font-family="Times,serif" font-size="14.00">previous</text>
</g>
<!-- http://purl.org/dj/kaggle/random&#45;forests#1722550378&#45;&gt;http://purl.org/dj/kaggle/random&#45;forests -->
<g id="edge17" class="edge">
<title>http://purl.org/dj/kaggle/random&#45;forests#1722550378&#45;&gt;http://purl.org/dj/kaggle/random&#45;forests</title>
<path fill="none" stroke="black" d="M1820.89,-89.24C1724.21,-72.37 1568.16,-45.13 1481.52,-30.01"/>
<polygon fill="black" stroke="black" points="1482.02,-26.54 1471.56,-28.27 1480.81,-33.44 1482.02,-26.54"/>
<text text-anchor="middle" x="1714.94" y="-57.8" font-family="Times,serif" font-size="14.00">previous</text>
</g>
<!-- http://purl.org/dj/python/lib/816055830&#45;&gt;http://purl.org/dj/kaggle/random&#45;forests -->
<g id="edge18" class="edge">
<title>http://purl.org/dj/python/lib/816055830&#45;&gt;http://purl.org/dj/kaggle/random&#45;forests</title>
<path fill="none" stroke="black" d="M2136.95,-92.39C2120.74,-90.55 2104.12,-88.7 2088.44,-87 1869.6,-63.33 1610.29,-37.7 1488.38,-25.79"/>
<polygon fill="black" stroke="black" points="1488.36,-22.27 1478.07,-24.79 1487.68,-29.24 1488.36,-22.27"/>
<text text-anchor="middle" x="1928.94" y="-57.8" font-family="Times,serif" font-size="14.00">previous</text>
</g>
<!-- http://purl.org/dj/kaggle/random&#45;forests#324600561 -->
<g id="node15" class="node">
<title>http://purl.org/dj/kaggle/random&#45;forests#324600561</title>
<ellipse fill="none" stroke="black" cx="1839.44" cy="-387" rx="142.17" ry="18"/>
<text text-anchor="middle" x="1839.44" y="-383.3" font-family="Times,serif" font-size="14.00">324600561 (val_y(0)$0: Preparation)</text>
</g>
<!-- http://purl.org/dj/kaggle/random&#45;forests#324600561&#45;&gt;http://purl.org/dj/kaggle/random&#45;forests#1257244313 -->
<g id="edge19" class="edge">
<title>http://purl.org/dj/kaggle/random&#45;forests#324600561&#45;&gt;http://purl.org/dj/kaggle/random&#45;forests#1257244313</title>
<path fill="none" stroke="black" d="M1734.12,-374.89C1658.27,-366.55 1568,-355.78 1560.44,-351 1544.39,-340.86 1554.02,-324.25 1537.44,-315 1509.05,-299.17 399.89,-298.83 367.44,-297 350.59,-296.05 332.86,-294.71 315.42,-293.2"/>
<polygon fill="black" stroke="black" points="315.46,-289.69 305.19,-292.28 314.84,-296.66 315.46,-289.69"/>
<text text-anchor="middle" x="1583.94" y="-329.3" font-family="Times,serif" font-size="14.00">previous</text>
</g>
<!-- http://purl.org/dj/kaggle/random&#45;forests#324600561&#45;&gt;http://purl.org/dj/kaggle/random&#45;forests#29687986 -->
<g id="edge20" class="edge">
<title>http://purl.org/dj/kaggle/random&#45;forests#324600561&#45;&gt;http://purl.org/dj/kaggle/random&#45;forests#29687986</title>
<path fill="none" stroke="black" d="M1947.05,-375.22C2096.42,-359.88 2374.92,-329.95 2611.44,-297 2619.77,-295.84 2628.47,-294.55 2637.13,-293.21"/>
<polygon fill="black" stroke="black" points="2637.92,-296.63 2647.26,-291.62 2636.84,-289.71 2637.92,-296.63"/>
<text text-anchor="middle" x="2487.94" y="-329.3" font-family="Times,serif" font-size="14.00">previous</text>
</g>
<!-- http://purl.org/dj/kaggle/random&#45;forests#324600561&#45;&gt;http://purl.org/dj/kaggle/random&#45;forests#2803652736 -->
<g id="edge21" class="edge">
<title>http://purl.org/dj/kaggle/random&#45;forests#324600561&#45;&gt;http://purl.org/dj/kaggle/random&#45;forests#2803652736</title>
<path fill="none" stroke="black" d="M1839.18,-368.76C1837.93,-352.27 1833.29,-328.03 1817.44,-315 1809.29,-308.3 1778.67,-302.56 1739.18,-297.78"/>
<polygon fill="black" stroke="black" points="1739.58,-294.3 1729.24,-296.61 1738.76,-301.25 1739.58,-294.3"/>
<text text-anchor="middle" x="1860.94" y="-329.3" font-family="Times,serif" font-size="14.00">previous</text>
</g>
<!-- http://purl.org/dj/kaggle/random&#45;forests#490144716 -->
<g id="node16" class="node">
<title>http://purl.org/dj/kaggle/random&#45;forests#490144716</title>
<ellipse fill="none" stroke="black" cx="1217.44" cy="-387" rx="147.57" ry="18"/>
<text text-anchor="middle" x="1217.44" y="-383.3" font-family="Times,serif" font-size="14.00">490144716 (train_y(0)$0: Preparation)</text>
</g>
<!-- http://purl.org/dj/kaggle/random&#45;forests#490144716&#45;&gt;http://purl.org/dj/kaggle/random&#45;forests#1257244313 -->
<g id="edge22" class="edge">
<title>http://purl.org/dj/kaggle/random&#45;forests#490144716&#45;&gt;http://purl.org/dj/kaggle/random&#45;forests#1257244313</title>
<path fill="none" stroke="black" d="M1133.27,-372.13C1031.85,-355.94 856.15,-329.52 704.44,-315 555.13,-300.71 517,-308.3 367.44,-297 351.65,-295.81 335.07,-294.4 318.67,-292.9"/>
<polygon fill="black" stroke="black" points="318.78,-289.4 308.5,-291.96 318.14,-296.37 318.78,-289.4"/>
<text text-anchor="middle" x="1007.94" y="-329.3" font-family="Times,serif" font-size="14.00">previous</text>
</g>
<!-- http://purl.org/dj/kaggle/random&#45;forests#490144716&#45;&gt;http://purl.org/dj/kaggle/random&#45;forests#29687986 -->
<g id="edge23" class="edge">
<title>http://purl.org/dj/kaggle/random&#45;forests#490144716&#45;&gt;http://purl.org/dj/kaggle/random&#45;forests#29687986</title>
<path fill="none" stroke="black" d="M1320.82,-374.08C1338.69,-372.23 1357.09,-370.45 1374.44,-369 1408.05,-366.18 1649.09,-369.26 1677.44,-351 1692.65,-341.2 1681.04,-324.49 1696.44,-315 1739.72,-288.32 2560.81,-301.61 2611.44,-297 2620.77,-296.15 2630.53,-294.96 2640.17,-293.6"/>
<polygon fill="black" stroke="black" points="2640.77,-297.05 2650.16,-292.13 2639.75,-290.12 2640.77,-297.05"/>
<text text-anchor="middle" x="1719.94" y="-329.3" font-family="Times,serif" font-size="14.00">previous</text>
</g>
<!-- http://purl.org/dj/kaggle/random&#45;forests#490144716&#45;&gt;http://purl.org/dj/kaggle/random&#45;forests#2803652736 -->
<g id="edge24" class="edge">
<title>http://purl.org/dj/kaggle/random&#45;forests#490144716&#45;&gt;http://purl.org/dj/kaggle/random&#45;forests#2803652736</title>
<path fill="none" stroke="black" d="M1289.37,-371.2C1310.95,-365.85 1334.45,-359.09 1355.44,-351 1389.83,-337.75 1426.68,-317.76 1453.02,-302.36"/>
<polygon fill="black" stroke="black" points="1455.04,-305.23 1461.87,-297.13 1451.48,-299.2 1455.04,-305.23"/>
<text text-anchor="middle" x="1453.94" y="-329.3" font-family="Times,serif" font-size="14.00">previous</text>
</g>
<!-- http://purl.org/dj/kaggle/random&#45;forests#249824024 -->
<g id="node17" class="node">
<title>http://purl.org/dj/kaggle/random&#45;forests#249824024</title>
<ellipse fill="none" stroke="black" cx="1332.44" cy="-561" rx="136.48" ry="18"/>
<text text-anchor="middle" x="1332.44" y="-557.3" font-family="Times,serif" font-size="14.00">249824024 (print[2]: Visualisation)</text>
</g>
<!-- http://purl.org/dj/kaggle/random&#45;forests#1013384666 -->
<g id="node18" class="node">
<title>http://purl.org/dj/kaggle/random&#45;forests#1013384666</title>
<ellipse fill="none" stroke="black" cx="1164.44" cy="-474" rx="163.57" ry="18"/>
<text text-anchor="middle" x="1164.44" y="-470.3" font-family="Times,serif" font-size="14.00">1013384666 (forest_model(0)$1: Analysis)</text>
</g>
<!-- http://purl.org/dj/kaggle/random&#45;forests#249824024&#45;&gt;http://purl.org/dj/kaggle/random&#45;forests#1013384666 -->
<g id="edge25" class="edge">
<title>http://purl.org/dj/kaggle/random&#45;forests#249824024&#45;&gt;http://purl.org/dj/kaggle/random&#45;forests#1013384666</title>
<path fill="none" stroke="black" d="M1299.65,-543.41C1273.02,-529.94 1235.3,-510.85 1206.46,-496.26"/>
<polygon fill="black" stroke="black" points="1207.94,-493.09 1197.43,-491.69 1204.78,-499.33 1207.94,-493.09"/>
<text text-anchor="middle" x="1282.94" y="-513.8" font-family="Times,serif" font-size="14.00">previous</text>
</g>
<!-- http://purl.org/dj/kaggle/random&#45;forests#764675315 -->
<g id="node19" class="node">
<title>http://purl.org/dj/kaggle/random&#45;forests#764675315</title>
<ellipse fill="none" stroke="black" cx="1520.44" cy="-474" rx="154.07" ry="18"/>
<text text-anchor="middle" x="1520.44" y="-470.3" font-family="Times,serif" font-size="14.00">764675315 (melb_preds(0)$0: Analysis)</text>
</g>
<!-- http://purl.org/dj/kaggle/random&#45;forests#249824024&#45;&gt;http://purl.org/dj/kaggle/random&#45;forests#764675315 -->
<g id="edge26" class="edge">
<title>http://purl.org/dj/kaggle/random&#45;forests#249824024&#45;&gt;http://purl.org/dj/kaggle/random&#45;forests#764675315</title>
<path fill="none" stroke="black" d="M1368.69,-543.61C1398.79,-530 1441.8,-510.55 1474.35,-495.84"/>
<polygon fill="black" stroke="black" points="1475.99,-498.94 1483.66,-491.63 1473.11,-492.56 1475.99,-498.94"/>
<text text-anchor="middle" x="1461.94" y="-513.8" font-family="Times,serif" font-size="14.00">previous</text>
</g>
<!-- http://purl.org/dj/kaggle/random&#45;forests#1013384666&#45;&gt;http://purl.org/dj/kaggle/random&#45;forests#29950131 -->
<g id="edge27" class="edge">
<title>http://purl.org/dj/kaggle/random&#45;forests#1013384666&#45;&gt;http://purl.org/dj/kaggle/random&#45;forests#29950131</title>
<path fill="none" stroke="black" d="M1067.91,-459.42C874.55,-432.22 442.69,-371.46 260.3,-345.8"/>
<polygon fill="black" stroke="black" points="260.61,-342.31 250.22,-344.38 259.64,-349.24 260.61,-342.31"/>
<text text-anchor="middle" x="938.94" y="-426.8" font-family="Times,serif" font-size="14.00">previous</text>
</g>
<!-- http://purl.org/dj/kaggle/random&#45;forests#1013384666&#45;&gt;http://purl.org/dj/kaggle/random&#45;forests#477168555 -->
<g id="edge28" class="edge">
<title>http://purl.org/dj/kaggle/random&#45;forests#1013384666&#45;&gt;http://purl.org/dj/kaggle/random&#45;forests#477168555</title>
<path fill="none" stroke="black" d="M1114.54,-456.81C1071.02,-442.69 1007.8,-422.18 961.71,-407.23"/>
<polygon fill="black" stroke="black" points="962.74,-403.88 952.15,-404.13 960.58,-410.54 962.74,-403.88"/>
<text text-anchor="middle" x="1072.94" y="-426.8" font-family="Times,serif" font-size="14.00">previous</text>
</g>
<!-- http://purl.org/dj/kaggle/random&#45;forests#1013384666&#45;&gt;http://purl.org/dj/kaggle/random&#45;forests#490144716 -->
<g id="edge29" class="edge">
<title>http://purl.org/dj/kaggle/random&#45;forests#1013384666&#45;&gt;http://purl.org/dj/kaggle/random&#45;forests#490144716</title>
<path fill="none" stroke="black" d="M1175.16,-455.8C1182.71,-443.7 1192.93,-427.3 1201.44,-413.67"/>
<polygon fill="black" stroke="black" points="1204.41,-415.51 1206.73,-405.18 1198.47,-411.81 1204.41,-415.51"/>
<text text-anchor="middle" x="1217.94" y="-426.8" font-family="Times,serif" font-size="14.00">previous</text>
</g>
<!-- http://purl.org/dj/kaggle/random&#45;forests#311624400 -->
<g id="node20" class="node">
<title>http://purl.org/dj/kaggle/random&#45;forests#311624400</title>
<ellipse fill="none" stroke="black" cx="1527.44" cy="-387" rx="144.07" ry="18"/>
<text text-anchor="middle" x="1527.44" y="-383.3" font-family="Times,serif" font-size="14.00">311624400 (val_X(0)$0: Preparation)</text>
</g>
<!-- http://purl.org/dj/kaggle/random&#45;forests#764675315&#45;&gt;http://purl.org/dj/kaggle/random&#45;forests#311624400 -->
<g id="edge30" class="edge">
<title>http://purl.org/dj/kaggle/random&#45;forests#764675315&#45;&gt;http://purl.org/dj/kaggle/random&#45;forests#311624400</title>
<path fill="none" stroke="black" d="M1521.86,-455.8C1522.81,-444.16 1524.1,-428.55 1525.2,-415.24"/>
<polygon fill="black" stroke="black" points="1528.69,-415.43 1526.02,-405.18 1521.72,-414.85 1528.69,-415.43"/>
<text text-anchor="middle" x="1547.94" y="-426.8" font-family="Times,serif" font-size="14.00">previous</text>
</g>
<!-- http://purl.org/dj/kaggle/random&#45;forests#311624400&#45;&gt;http://purl.org/dj/kaggle/random&#45;forests#1257244313 -->
<g id="edge33" class="edge">
<title>http://purl.org/dj/kaggle/random&#45;forests#311624400&#45;&gt;http://purl.org/dj/kaggle/random&#45;forests#1257244313</title>
<path fill="none" stroke="black" d="M1424.59,-374.28C1407.84,-372.46 1390.66,-370.63 1374.44,-369 1286.08,-360.1 1262.95,-366.11 1175.44,-351 1112.13,-340.07 1099.06,-323.92 1035.44,-315 888.38,-294.38 515.65,-306.23 367.44,-297 350.85,-295.97 333.4,-294.6 316.21,-293.09"/>
<polygon fill="black" stroke="black" points="316.41,-289.59 306.13,-292.18 315.78,-296.56 316.41,-289.59"/>
<text text-anchor="middle" x="1198.94" y="-329.3" font-family="Times,serif" font-size="14.00">previous</text>
</g>
<!-- http://purl.org/dj/kaggle/random&#45;forests#311624400&#45;&gt;http://purl.org/dj/kaggle/random&#45;forests#29687986 -->
<g id="edge34" class="edge">
<title>http://purl.org/dj/kaggle/random&#45;forests#311624400&#45;&gt;http://purl.org/dj/kaggle/random&#45;forests#29687986</title>
<path fill="none" stroke="black" d="M1628.36,-374.11C1681.3,-367.13 1737.28,-358.28 1747.44,-351 1762.15,-340.47 1751.05,-324.51 1766.44,-315 1806.39,-290.33 2564.68,-301.3 2611.44,-297 2620.77,-296.14 2630.53,-294.95 2640.17,-293.58"/>
<polygon fill="black" stroke="black" points="2640.77,-297.03 2650.15,-292.11 2639.75,-290.11 2640.77,-297.03"/>
<text text-anchor="middle" x="1789.94" y="-329.3" font-family="Times,serif" font-size="14.00">previous</text>
</g>
<!-- http://purl.org/dj/kaggle/random&#45;forests#311624400&#45;&gt;http://purl.org/dj/kaggle/random&#45;forests#2803652736 -->
<g id="edge35" class="edge">
<title>http://purl.org/dj/kaggle/random&#45;forests#311624400&#45;&gt;http://purl.org/dj/kaggle/random&#45;forests#2803652736</title>
<path fill="none" stroke="black" d="M1503.82,-369.04C1498.43,-363.91 1493.42,-357.8 1490.44,-351 1484.5,-337.46 1483.9,-321.02 1484.95,-307.38"/>
<polygon fill="black" stroke="black" points="1488.46,-307.46 1486.07,-297.14 1481.5,-306.7 1488.46,-307.46"/>
<text text-anchor="middle" x="1513.94" y="-329.3" font-family="Times,serif" font-size="14.00">previous</text>
</g>
<!-- http://purl.org/dj/kaggle/random&#45;forests#249692951 -->
<g id="node21" class="node">
<title>http://purl.org/dj/kaggle/random&#45;forests#249692951</title>
<ellipse fill="none" stroke="black" cx="1839.44" cy="-474" rx="136.48" ry="18"/>
<text text-anchor="middle" x="1839.44" y="-470.3" font-family="Times,serif" font-size="14.00">249692951 (print[1]: Visualisation)</text>
</g>
<!-- http://purl.org/dj/kaggle/random&#45;forests#249692951&#45;&gt;http://purl.org/dj/kaggle/random&#45;forests#324600561 -->
<g id="edge31" class="edge">
<title>http://purl.org/dj/kaggle/random&#45;forests#249692951&#45;&gt;http://purl.org/dj/kaggle/random&#45;forests#324600561</title>
<path fill="none" stroke="black" d="M1839.44,-455.8C1839.44,-444.16 1839.44,-428.55 1839.44,-415.24"/>
<polygon fill="black" stroke="black" points="1842.94,-415.18 1839.44,-405.18 1835.94,-415.18 1842.94,-415.18"/>
<text text-anchor="middle" x="1862.94" y="-426.8" font-family="Times,serif" font-size="14.00">previous</text>
</g>
<!-- http://purl.org/dj/python/lib/919996010 -->
<g id="node22" class="node">
<title>http://purl.org/dj/python/lib/919996010</title>
<ellipse fill="none" stroke="black" cx="2539.44" cy="-105" rx="146.47" ry="18"/>
<text text-anchor="middle" x="2539.44" y="-101.3" font-family="Times,serif" font-size="14.00">919996010 (sklearn.ensemble: Reuse)</text>
</g>
<!-- http://purl.org/dj/python/lib/919996010&#45;&gt;http://purl.org/dj/kaggle/random&#45;forests -->
<g id="edge32" class="edge">
<title>http://purl.org/dj/python/lib/919996010&#45;&gt;http://purl.org/dj/kaggle/random&#45;forests</title>
<path fill="none" stroke="black" d="M2436.1,-92.2C2418.86,-90.36 2401.15,-88.56 2384.44,-87 2051.31,-55.9 1652.36,-32.06 1491.23,-22.99"/>
<polygon fill="black" stroke="black" points="1491.14,-19.48 1480.96,-22.41 1490.75,-26.46 1491.14,-19.48"/>
<text text-anchor="middle" x="2196.94" y="-57.8" font-family="Times,serif" font-size="14.00">previous</text>
</g>
<!-- http://purl.org/dj/kaggle/random&#45;forests#1322649418 -->
<g id="node23" class="node">
<title>http://purl.org/dj/kaggle/random&#45;forests#1322649418</title>
<ellipse fill="none" stroke="black" cx="2855.44" cy="-105" rx="151.37" ry="18"/>
<text text-anchor="middle" x="2855.44" y="-101.3" font-family="Times,serif" font-size="14.00">1322649418 (train_test_split(0): Reuse)</text>
</g>
<!-- http://purl.org/dj/kaggle/random&#45;forests#1322649418&#45;&gt;http://purl.org/dj/kaggle/random&#45;forests -->
<g id="edge36" class="edge">
<title>http://purl.org/dj/kaggle/random&#45;forests#1322649418&#45;&gt;http://purl.org/dj/kaggle/random&#45;forests</title>
<path fill="none" stroke="black" d="M2748.54,-92.18C2730.49,-90.34 2711.94,-88.54 2694.44,-87 2238.52,-46.94 1688.73,-27.28 1492.47,-21.16"/>
<polygon fill="black" stroke="black" points="1492.38,-17.66 1482.28,-20.85 1492.17,-24.66 1492.38,-17.66"/>
<text text-anchor="middle" x="2474.94" y="-57.8" font-family="Times,serif" font-size="14.00">previous</text>
</g>
<!-- http://purl.org/dj/python/lib/1865222485 -->
<g id="node24" class="node">
<title>http://purl.org/dj/python/lib/1865222485</title>
<ellipse fill="none" stroke="black" cx="3199.44" cy="-105" rx="174.67" ry="18"/>
<text text-anchor="middle" x="3199.44" y="-101.3" font-family="Times,serif" font-size="14.00">1865222485 (sklearn.model_selection: Reuse)</text>
</g>
<!-- http://purl.org/dj/python/lib/1865222485&#45;&gt;http://purl.org/dj/kaggle/random&#45;forests -->
<g id="edge37" class="edge">
<title>http://purl.org/dj/python/lib/1865222485&#45;&gt;http://purl.org/dj/kaggle/random&#45;forests</title>
<path fill="none" stroke="black" d="M3076.26,-92.14C3055.95,-90.32 3035.11,-88.54 3015.44,-87 2787.67,-69.16 2730.64,-65.02 2502.44,-54 2122.81,-35.67 1667.9,-24.48 1492.46,-20.57"/>
<polygon fill="black" stroke="black" points="1492.38,-17.07 1482.31,-20.35 1492.23,-24.07 1492.38,-17.07"/>
<text text-anchor="middle" x="2790.94" y="-57.8" font-family="Times,serif" font-size="14.00">previous</text>
</g>
</g>
</svg>
