<?xml version="1.0" encoding="UTF-8" standalone="no"?>
<!DOCTYPE svg PUBLIC "-//W3C//DTD SVG 1.1//EN"
 "http://www.w3.org/Graphics/SVG/1.1/DTD/svg11.dtd">
<!-- Generated by graphviz version 2.47.1 (20210417.1919)
 -->
<!-- Pages: 1 -->
<svg width="747pt" height="392pt"
 viewBox="0.00 0.00 746.82 392.00" xmlns="http://www.w3.org/2000/svg" xmlns:xlink="http://www.w3.org/1999/xlink">
<g id="graph0" class="graph" transform="scale(1 1) rotate(0) translate(4 388)">
<polygon fill="white" stroke="transparent" points="-4,4 -4,-388 742.82,-388 742.82,4 -4,4"/>
<!-- http://purl.org/dj/kaggle/random&#45;forests/activity/6334772587392358923 -->
<g id="node1" class="node">
<title>http://purl.org/dj/kaggle/random&#45;forests/activity/6334772587392358923</title>
<ellipse fill="none" stroke="black" cx="387.84" cy="-105" rx="124.28" ry="18"/>
<text text-anchor="middle" x="387.84" y="-101.3" font-family="Times,serif" font-size="14.00">6334772587392358923 (Reuse)</text>
</g>
<!-- http://purl.org/dj/kaggle/random&#45;forests -->
<g id="node2" class="node">
<title>http://purl.org/dj/kaggle/random&#45;forests</title>
<ellipse fill="none" stroke="black" cx="148.84" cy="-18" rx="148.67" ry="18"/>
<text text-anchor="middle" x="148.84" y="-14.3" font-family="Times,serif" font-size="14.00">random&#45;forests (random&#45;forests.ipynb)</text>
</g>
<!-- http://purl.org/dj/kaggle/random&#45;forests/activity/6334772587392358923&#45;&gt;http://purl.org/dj/kaggle/random&#45;forests -->
<g id="edge1" class="edge">
<title>http://purl.org/dj/kaggle/random&#45;forests/activity/6334772587392358923&#45;&gt;http://purl.org/dj/kaggle/random&#45;forests</title>
<path fill="none" stroke="black" d="M343.16,-88.11C303.8,-74.11 246.33,-53.67 204.09,-38.65"/>
<polygon fill="black" stroke="black" points="205.11,-35.3 194.51,-35.24 202.76,-41.89 205.11,-35.3"/>
<text text-anchor="middle" x="306.34" y="-57.8" font-family="Times,serif" font-size="14.00">previous</text>
</g>
<!-- http://purl.org/dj/kaggle/random&#45;forests/activity/6756793680236105495 -->
<g id="node3" class="node">
<title>http://purl.org/dj/kaggle/random&#45;forests/activity/6756793680236105495</title>
<ellipse fill="none" stroke="black" cx="457.84" cy="-18" rx="141.88" ry="18"/>
<text text-anchor="middle" x="457.84" y="-14.3" font-family="Times,serif" font-size="14.00">6756793680236105495 (Movement)</text>
</g>
<!-- http://purl.org/dj/kaggle/random&#45;forests/activity/6334772587392358923&#45;&gt;http://purl.org/dj/kaggle/random&#45;forests/activity/6756793680236105495 -->
<g id="edge2" class="edge">
<title>http://purl.org/dj/kaggle/random&#45;forests/activity/6334772587392358923&#45;&gt;http://purl.org/dj/kaggle/random&#45;forests/activity/6756793680236105495</title>
<path fill="none" stroke="black" d="M384.02,-87C382.67,-76.7 382.74,-63.71 388.84,-54 392.04,-48.9 396.24,-44.51 400.98,-40.74"/>
<polygon fill="black" stroke="black" points="403.14,-43.51 409.41,-34.97 399.18,-37.73 403.14,-43.51"/>
<text text-anchor="middle" x="412.34" y="-57.8" font-family="Times,serif" font-size="14.00">previous</text>
</g>
<!-- http://purl.org/dj/kaggle/random&#45;forests/activity/6756793680236105495&#45;&gt;http://purl.org/dj/kaggle/random&#45;forests/activity/6334772587392358923 -->
<g id="edge3" class="edge">
<title>http://purl.org/dj/kaggle/random&#45;forests/activity/6756793680236105495&#45;&gt;http://purl.org/dj/kaggle/random&#45;forests/activity/6334772587392358923</title>
<path fill="none" stroke="black" d="M452.71,-36.43C449.12,-46.65 443.57,-59.4 435.84,-69 432.36,-73.32 428.23,-77.37 423.87,-81.07"/>
<polygon fill="black" stroke="black" points="421.58,-78.41 415.87,-87.34 425.9,-83.92 421.58,-78.41"/>
<text text-anchor="middle" x="467.34" y="-57.8" font-family="Times,serif" font-size="14.00">previous</text>
</g>
<!-- http://purl.org/dj/kaggle/random&#45;forests/activity/3394691231154131189 -->
<g id="node4" class="node">
<title>http://purl.org/dj/kaggle/random&#45;forests/activity/3394691231154131189</title>
<ellipse fill="none" stroke="black" cx="456.84" cy="-279" rx="133.48" ry="18"/>
<text text-anchor="middle" x="456.84" y="-275.3" font-family="Times,serif" font-size="14.00">3394691231154131189 (Analysis)</text>
</g>
<!-- http://purl.org/dj/kaggle/random&#45;forests/activity/3394691231154131189&#45;&gt;http://purl.org/dj/kaggle/random&#45;forests/activity/6334772587392358923 -->
<g id="edge4" class="edge">
<title>http://purl.org/dj/kaggle/random&#45;forests/activity/3394691231154131189&#45;&gt;http://purl.org/dj/kaggle/random&#45;forests/activity/6334772587392358923</title>
<path fill="none" stroke="black" d="M436.09,-260.98C422.4,-248.44 405.45,-230.12 396.84,-210 386.4,-185.63 384.95,-155.15 385.63,-133.5"/>
<polygon fill="black" stroke="black" points="389.13,-133.52 386.12,-123.36 382.14,-133.18 389.13,-133.52"/>
<text text-anchor="middle" x="420.34" y="-188.3" font-family="Times,serif" font-size="14.00">previous</text>
</g>
<!-- http://purl.org/dj/kaggle/random&#45;forests/activity/5163131472306203171 -->
<g id="node5" class="node">
<title>http://purl.org/dj/kaggle/random&#45;forests/activity/5163131472306203171</title>
<ellipse fill="none" stroke="black" cx="595.84" cy="-192" rx="142.97" ry="18"/>
<text text-anchor="middle" x="595.84" y="-188.3" font-family="Times,serif" font-size="14.00">5163131472306203171 (Preparation)</text>
</g>
<!-- http://purl.org/dj/kaggle/random&#45;forests/activity/3394691231154131189&#45;&gt;http://purl.org/dj/kaggle/random&#45;forests/activity/5163131472306203171 -->
<g id="edge5" class="edge">
<title>http://purl.org/dj/kaggle/random&#45;forests/activity/3394691231154131189&#45;&gt;http://purl.org/dj/kaggle/random&#45;forests/activity/5163131472306203171</title>
<path fill="none" stroke="black" d="M484.3,-261.21C505.91,-247.99 536.2,-229.47 559.76,-215.06"/>
<polygon fill="black" stroke="black" points="561.73,-217.96 568.43,-209.76 558.07,-211.99 561.73,-217.96"/>
<text text-anchor="middle" x="557.34" y="-231.8" font-family="Times,serif" font-size="14.00">previous</text>
</g>
<!-- http://purl.org/dj/kaggle/random&#45;forests/activity/5163131472306203171&#45;&gt;http://purl.org/dj/kaggle/random&#45;forests/activity/6334772587392358923 -->
<g id="edge6" class="edge">
<title>http://purl.org/dj/kaggle/random&#45;forests/activity/5163131472306203171&#45;&gt;http://purl.org/dj/kaggle/random&#45;forests/activity/6334772587392358923</title>
<path fill="none" stroke="black" d="M555.73,-174.61C521.81,-160.75 473.09,-140.84 436.86,-126.03"/>
<polygon fill="black" stroke="black" points="438.05,-122.74 427.46,-122.19 435.4,-129.22 438.05,-122.74"/>
<text text-anchor="middle" x="527.34" y="-144.8" font-family="Times,serif" font-size="14.00">previous</text>
</g>
<!-- http://purl.org/dj/kaggle/random&#45;forests/activity/&#45;3324961967981582240 -->
<g id="node6" class="node">
<title>http://purl.org/dj/kaggle/random&#45;forests/activity/&#45;3324961967981582240</title>
<ellipse fill="none" stroke="black" cx="456.84" cy="-366" rx="151.37" ry="18"/>
<text text-anchor="middle" x="456.84" y="-362.3" font-family="Times,serif" font-size="14.00">&#45;3324961967981582240 (Visualisation)</text>
</g>
<!-- http://purl.org/dj/kaggle/random&#45;forests/activity/&#45;3324961967981582240&#45;&gt;http://purl.org/dj/kaggle/random&#45;forests/activity/6334772587392358923 -->
<g id="edge7" class="edge">
<title>http://purl.org/dj/kaggle/random&#45;forests/activity/&#45;3324961967981582240&#45;&gt;http://purl.org/dj/kaggle/random&#45;forests/activity/6334772587392358923</title>
<path fill="none" stroke="black" d="M389.56,-349.78C361.42,-339.73 331.44,-323.37 314.84,-297 280.36,-242.27 331.95,-168.68 364.55,-130.81"/>
<polygon fill="black" stroke="black" points="367.58,-132.67 371.58,-122.86 362.33,-128.03 367.58,-132.67"/>
<text text-anchor="middle" x="331.34" y="-231.8" font-family="Times,serif" font-size="14.00">previous</text>
</g>
<!-- http://purl.org/dj/kaggle/random&#45;forests/activity/&#45;3324961967981582240&#45;&gt;http://purl.org/dj/kaggle/random&#45;forests/activity/3394691231154131189 -->
<g id="edge8" class="edge">
<title>http://purl.org/dj/kaggle/random&#45;forests/activity/&#45;3324961967981582240&#45;&gt;http://purl.org/dj/kaggle/random&#45;forests/activity/3394691231154131189</title>
<path fill="none" stroke="black" d="M456.84,-347.8C456.84,-336.16 456.84,-320.55 456.84,-307.24"/>
<polygon fill="black" stroke="black" points="460.34,-307.18 456.84,-297.18 453.34,-307.18 460.34,-307.18"/>
<text text-anchor="middle" x="480.34" y="-318.8" font-family="Times,serif" font-size="14.00">previous</text>
</g>
<!-- http://purl.org/dj/kaggle/random&#45;forests/activity/&#45;3324961967981582240&#45;&gt;http://purl.org/dj/kaggle/random&#45;forests/activity/5163131472306203171 -->
<g id="edge9" class="edge">
<title>http://purl.org/dj/kaggle/random&#45;forests/activity/&#45;3324961967981582240&#45;&gt;http://purl.org/dj/kaggle/random&#45;forests/activity/5163131472306203171</title>
<path fill="none" stroke="black" d="M524.11,-349.78C552.25,-339.73 582.23,-323.37 598.84,-297 613.3,-274.04 609.76,-242.22 604.36,-219.84"/>
<polygon fill="black" stroke="black" points="607.69,-218.74 601.72,-209.99 600.93,-220.56 607.69,-218.74"/>
<text text-anchor="middle" x="632.34" y="-275.3" font-family="Times,serif" font-size="14.00">previous</text>
</g>
</g>
</svg>
