<?xml version="1.0" encoding="UTF-8" standalone="no"?>
<!DOCTYPE svg PUBLIC "-//W3C//DTD SVG 1.1//EN"
 "http://www.w3.org/Graphics/SVG/1.1/DTD/svg11.dtd">
<!-- Generated by graphviz version 2.47.1 (20210417.1919)
 -->
<!-- Pages: 1 -->
<svg width="4213pt" height="869pt"
 viewBox="0.00 0.00 4213.08 869.00" xmlns="http://www.w3.org/2000/svg" xmlns:xlink="http://www.w3.org/1999/xlink">
<g id="graph0" class="graph" transform="scale(1 1) rotate(0) translate(4 865)">
<polygon fill="white" stroke="transparent" points="-4,4 -4,-865 4209.08,-865 4209.08,4 -4,4"/>
<!-- http://purl.org/dj/kaggle/random&#45;forests#1257178776 -->
<g id="node1" class="node">
<title>http://purl.org/dj/kaggle/random&#45;forests#1257178776</title>
<ellipse fill="none" stroke="black" cx="643.89" cy="-300" rx="182.77" ry="18"/>
<text text-anchor="middle" x="643.89" y="-296.3" font-family="Times,serif" font-size="14.00">1257178776 (melbourne_data(0)$0: Movement)</text>
</g>
<!-- http://purl.org/dj/kaggle/random&#45;forests#2019035306 -->
<g id="node2" class="node">
<title>http://purl.org/dj/kaggle/random&#45;forests#2019035306</title>
<ellipse fill="none" stroke="black" cx="390.89" cy="-192" rx="181.17" ry="18"/>
<text text-anchor="middle" x="390.89" y="-188.3" font-family="Times,serif" font-size="14.00">2019035306 (melbourne_file_path(0)$0: Reuse)</text>
</g>
<!-- http://purl.org/dj/kaggle/random&#45;forests#1257178776&#45;&gt;http://purl.org/dj/kaggle/random&#45;forests#2019035306 -->
<g id="edge1" class="edge">
<title>http://purl.org/dj/kaggle/random&#45;forests#1257178776&#45;&gt;http://purl.org/dj/kaggle/random&#45;forests#2019035306</title>
<path fill="none" stroke="black" d="M604.08,-282.32C559.6,-263.68 487.55,-233.5 439.7,-213.45"/>
<polygon fill="black" stroke="black" points="441.04,-210.22 430.47,-209.58 438.34,-216.67 441.04,-210.22"/>
<text text-anchor="middle" x="585.39" y="-242.3" font-family="Times,serif" font-size="14.00">read_csv ()</text>
</g>
<!-- http://purl.org/dj/kaggle/random&#45;forests#80085334 -->
<g id="node3" class="node">
<title>http://purl.org/dj/kaggle/random&#45;forests#80085334</title>
<ellipse fill="none" stroke="black" cx="740.89" cy="-192" rx="99.38" ry="18"/>
<text text-anchor="middle" x="740.89" y="-188.3" font-family="Times,serif" font-size="14.00">80085334 (pd(0): Reuse)</text>
</g>
<!-- http://purl.org/dj/kaggle/random&#45;forests#1257178776&#45;&gt;http://purl.org/dj/kaggle/random&#45;forests#80085334 -->
<g id="edge2" class="edge">
<title>http://purl.org/dj/kaggle/random&#45;forests#1257178776&#45;&gt;http://purl.org/dj/kaggle/random&#45;forests#80085334</title>
<path fill="none" stroke="black" d="M659.48,-281.97C675.46,-264.51 700.46,-237.18 718.55,-217.42"/>
<polygon fill="black" stroke="black" points="721.18,-219.73 725.35,-209.99 716.01,-215 721.18,-219.73"/>
<text text-anchor="middle" x="737.39" y="-242.3" font-family="Times,serif" font-size="14.00">read_csv ()</text>
</g>
<!-- http://purl.org/dj/kaggle/random&#45;forests#58004286 -->
<g id="node4" class="node">
<title>http://purl.org/dj/kaggle/random&#45;forests#58004286</title>
<ellipse fill="none" stroke="black" cx="339.89" cy="-105" rx="274.05" ry="18"/>
<text text-anchor="middle" x="339.89" y="-101.3" font-family="Times,serif" font-size="14.00">58004286 (../input/melbourne&#45;housing&#45;snapshot/melb_data.csv(0): Reuse)</text>
</g>
<!-- http://purl.org/dj/kaggle/random&#45;forests#2019035306&#45;&gt;http://purl.org/dj/kaggle/random&#45;forests#58004286 -->
<g id="edge3" class="edge">
<title>http://purl.org/dj/kaggle/random&#45;forests#2019035306&#45;&gt;http://purl.org/dj/kaggle/random&#45;forests#58004286</title>
<path fill="none" stroke="black" d="M380.57,-173.8C373.38,-161.82 363.66,-145.62 355.53,-132.06"/>
<polygon fill="black" stroke="black" points="358.34,-129.95 350.2,-123.18 352.34,-133.55 358.34,-129.95"/>
<text text-anchor="middle" x="413.89" y="-144.8" font-family="Times,serif" font-size="14.00">assignedFrom ()</text>
</g>
<!-- http://purl.org/dj/kaggle/random&#45;forests -->
<g id="node5" class="node">
<title>http://purl.org/dj/kaggle/random&#45;forests</title>
<ellipse fill="none" stroke="black" cx="1076.89" cy="-18" rx="148.67" ry="18"/>
<text text-anchor="middle" x="1076.89" y="-14.3" font-family="Times,serif" font-size="14.00">random&#45;forests (random&#45;forests.ipynb)</text>
</g>
<!-- http://purl.org/dj/kaggle/random&#45;forests#80085334&#45;&gt;http://purl.org/dj/kaggle/random&#45;forests -->
<g id="edge4" class="edge">
<title>http://purl.org/dj/kaggle/random&#45;forests#80085334&#45;&gt;http://purl.org/dj/kaggle/random&#45;forests</title>
<path fill="none" stroke="black" d="M792.71,-176.51C807.02,-171.26 822.12,-164.47 834.89,-156 870,-132.71 866.08,-112.14 899.89,-87 926.21,-67.43 935.49,-66.3 965.89,-54 980.33,-48.16 996.15,-42.66 1011.19,-37.82"/>
<polygon fill="black" stroke="black" points="1012.47,-41.09 1020.95,-34.75 1010.36,-34.42 1012.47,-41.09"/>
<text text-anchor="middle" x="932.89" y="-101.3" font-family="Times,serif" font-size="14.00">appearsIn ()</text>
</g>
<!-- http://purl.org/dj/python/lib/144966264 -->
<g id="node6" class="node">
<title>http://purl.org/dj/python/lib/144966264</title>
<ellipse fill="none" stroke="black" cx="740.89" cy="-105" rx="109.38" ry="18"/>
<text text-anchor="middle" x="740.89" y="-101.3" font-family="Times,serif" font-size="14.00">144966264 (pandas: Reuse)</text>
</g>
<!-- http://purl.org/dj/kaggle/random&#45;forests#80085334&#45;&gt;http://purl.org/dj/python/lib/144966264 -->
<g id="edge5" class="edge">
<title>http://purl.org/dj/kaggle/random&#45;forests#80085334&#45;&gt;http://purl.org/dj/python/lib/144966264</title>
<path fill="none" stroke="black" d="M740.89,-173.8C740.89,-162.16 740.89,-146.55 740.89,-133.24"/>
<polygon fill="black" stroke="black" points="744.39,-133.18 740.89,-123.18 737.39,-133.18 744.39,-133.18"/>
<text text-anchor="middle" x="785.89" y="-144.8" font-family="Times,serif" font-size="14.00">assignedFrom ()</text>
</g>
<!-- http://purl.org/dj/kaggle/random&#45;forests#58004286&#45;&gt;http://purl.org/dj/kaggle/random&#45;forests -->
<g id="edge6" class="edge">
<title>http://purl.org/dj/kaggle/random&#45;forests#58004286&#45;&gt;http://purl.org/dj/kaggle/random&#45;forests</title>
<path fill="none" stroke="black" d="M444.29,-88.34C516.52,-77.8 614.92,-64.06 701.89,-54 783.31,-44.58 874.91,-36 947.2,-29.68"/>
<polygon fill="black" stroke="black" points="947.61,-33.16 957.26,-28.81 947,-26.19 947.61,-33.16"/>
<text text-anchor="middle" x="734.89" y="-57.8" font-family="Times,serif" font-size="14.00">appearsIn ()</text>
</g>
<!-- http://purl.org/dj/python/lib/144966264&#45;&gt;http://purl.org/dj/kaggle/random&#45;forests -->
<g id="edge20" class="edge">
<title>http://purl.org/dj/python/lib/144966264&#45;&gt;http://purl.org/dj/kaggle/random&#45;forests</title>
<path fill="none" stroke="black" d="M753.9,-86.66C763.39,-75.38 777.29,-61.43 792.89,-54 818.81,-41.66 879.2,-33.33 937.66,-27.91"/>
<polygon fill="black" stroke="black" points="938.14,-31.38 947.78,-26.99 937.51,-24.41 938.14,-31.38"/>
<text text-anchor="middle" x="832.39" y="-57.8" font-family="Times,serif" font-size="14.00">importedBy ()</text>
</g>
<!-- http://purl.org/dj/kaggle/random&#45;forests#490144716 -->
<g id="node7" class="node">
<title>http://purl.org/dj/kaggle/random&#45;forests#490144716</title>
<ellipse fill="none" stroke="black" cx="1261.89" cy="-582" rx="147.57" ry="18"/>
<text text-anchor="middle" x="1261.89" y="-578.3" font-family="Times,serif" font-size="14.00">490144716 (train_y(0)$0: Preparation)</text>
</g>
<!-- http://purl.org/dj/kaggle/random&#45;forests#89588047 -->
<g id="node8" class="node">
<title>http://purl.org/dj/kaggle/random&#45;forests#89588047</title>
<ellipse fill="none" stroke="black" cx="1299.89" cy="-495" rx="103.98" ry="18"/>
<text text-anchor="middle" x="1299.89" y="-491.3" font-family="Times,serif" font-size="14.00">89588047 (y(0)$0: Reuse)</text>
</g>
<!-- http://purl.org/dj/kaggle/random&#45;forests#490144716&#45;&gt;http://purl.org/dj/kaggle/random&#45;forests#89588047 -->
<g id="edge7" class="edge">
<title>http://purl.org/dj/kaggle/random&#45;forests#490144716&#45;&gt;http://purl.org/dj/kaggle/random&#45;forests#89588047</title>
<path fill="none" stroke="black" d="M1259.02,-563.62C1258.14,-553.66 1258.39,-541.16 1262.89,-531 1264.62,-527.09 1267.02,-523.41 1269.77,-520"/>
<polygon fill="black" stroke="black" points="1272.41,-522.3 1276.68,-512.6 1267.3,-517.52 1272.41,-522.3"/>
<text text-anchor="middle" x="1309.89" y="-534.8" font-family="Times,serif" font-size="14.00">train_test_split ()</text>
</g>
<!-- http://purl.org/dj/kaggle/random&#45;forests#76611886 -->
<g id="node9" class="node">
<title>http://purl.org/dj/kaggle/random&#45;forests#76611886</title>
<ellipse fill="none" stroke="black" cx="1585.89" cy="-495" rx="105.88" ry="18"/>
<text text-anchor="middle" x="1585.89" y="-491.3" font-family="Times,serif" font-size="14.00">76611886 (X(0)$0: Reuse)</text>
</g>
<!-- http://purl.org/dj/kaggle/random&#45;forests#490144716&#45;&gt;http://purl.org/dj/kaggle/random&#45;forests#76611886 -->
<g id="edge8" class="edge">
<title>http://purl.org/dj/kaggle/random&#45;forests#490144716&#45;&gt;http://purl.org/dj/kaggle/random&#45;forests#76611886</title>
<path fill="none" stroke="black" d="M1313.99,-565.15C1328.31,-559.91 1343.55,-553.47 1356.89,-546 1366.28,-540.74 1366.05,-535.35 1375.89,-531 1407.65,-516.94 1444.39,-508.49 1478.18,-503.42"/>
<polygon fill="black" stroke="black" points="1478.68,-506.88 1488.09,-502.01 1477.7,-499.95 1478.68,-506.88"/>
<text text-anchor="middle" x="1422.89" y="-534.8" font-family="Times,serif" font-size="14.00">train_test_split ()</text>
</g>
<!-- http://purl.org/dj/kaggle/random&#45;forests#29687986 -->
<g id="node10" class="node">
<title>http://purl.org/dj/kaggle/random&#45;forests#29687986</title>
<ellipse fill="none" stroke="black" cx="939.89" cy="-300" rx="94.78" ry="18"/>
<text text-anchor="middle" x="939.89" y="-296.3" font-family="Times,serif" font-size="14.00">29687986 (0(0): Reuse)</text>
</g>
<!-- http://purl.org/dj/kaggle/random&#45;forests#490144716&#45;&gt;http://purl.org/dj/kaggle/random&#45;forests#29687986 -->
<g id="edge9" class="edge">
<title>http://purl.org/dj/kaggle/random&#45;forests#490144716&#45;&gt;http://purl.org/dj/kaggle/random&#45;forests#29687986</title>
<path fill="none" stroke="black" d="M1242.23,-563.91C1186.98,-515.86 1030.18,-379.51 966.89,-324.47"/>
<polygon fill="black" stroke="black" points="969.13,-321.79 959.29,-317.87 964.54,-327.07 969.13,-321.79"/>
<text text-anchor="middle" x="1166.89" y="-437.3" font-family="Times,serif" font-size="14.00">train_test_split ()</text>
</g>
<!-- http://purl.org/dj/kaggle/random&#45;forests#1257244313 -->
<g id="node11" class="node">
<title>http://purl.org/dj/kaggle/random&#45;forests#1257244313</title>
<ellipse fill="none" stroke="black" cx="1299.89" cy="-387" rx="165.17" ry="18"/>
<text text-anchor="middle" x="1299.89" y="-383.3" font-family="Times,serif" font-size="14.00">1257244313 (melbourne_data(0)$1: Reuse)</text>
</g>
<!-- http://purl.org/dj/kaggle/random&#45;forests#89588047&#45;&gt;http://purl.org/dj/kaggle/random&#45;forests#1257244313 -->
<g id="edge10" class="edge">
<title>http://purl.org/dj/kaggle/random&#45;forests#89588047&#45;&gt;http://purl.org/dj/kaggle/random&#45;forests#1257244313</title>
<path fill="none" stroke="black" d="M1299.89,-476.97C1299.89,-460.38 1299.89,-434.88 1299.89,-415.43"/>
<polygon fill="black" stroke="black" points="1303.39,-415.34 1299.89,-405.34 1296.39,-415.34 1303.39,-415.34"/>
<text text-anchor="middle" x="1344.89" y="-437.3" font-family="Times,serif" font-size="14.00">assignedFrom ()</text>
</g>
<!-- http://purl.org/dj/kaggle/random&#45;forests#76611886&#45;&gt;http://purl.org/dj/kaggle/random&#45;forests#1257244313 -->
<g id="edge11" class="edge">
<title>http://purl.org/dj/kaggle/random&#45;forests#76611886&#45;&gt;http://purl.org/dj/kaggle/random&#45;forests#1257244313</title>
<path fill="none" stroke="black" d="M1543.69,-478.36C1493.27,-459.67 1408.82,-428.37 1353.74,-407.96"/>
<polygon fill="black" stroke="black" points="1354.74,-404.6 1344.15,-404.4 1352.31,-411.16 1354.74,-404.6"/>
<text text-anchor="middle" x="1529.89" y="-437.3" font-family="Times,serif" font-size="14.00">assignedFrom ()</text>
</g>
<!-- http://purl.org/dj/kaggle/random&#45;forests#1867778141 -->
<g id="node12" class="node">
<title>http://purl.org/dj/kaggle/random&#45;forests#1867778141</title>
<ellipse fill="none" stroke="black" cx="1661.89" cy="-387" rx="178.97" ry="18"/>
<text text-anchor="middle" x="1661.89" y="-383.3" font-family="Times,serif" font-size="14.00">1867778141 (melbourne_features(0)$0: Reuse)</text>
</g>
<!-- http://purl.org/dj/kaggle/random&#45;forests#76611886&#45;&gt;http://purl.org/dj/kaggle/random&#45;forests#1867778141 -->
<g id="edge12" class="edge">
<title>http://purl.org/dj/kaggle/random&#45;forests#76611886&#45;&gt;http://purl.org/dj/kaggle/random&#45;forests#1867778141</title>
<path fill="none" stroke="black" d="M1609.35,-477.44C1615.9,-472.07 1622.65,-465.74 1627.89,-459 1638.23,-445.72 1646.48,-428.79 1652.27,-414.8"/>
<polygon fill="black" stroke="black" points="1655.64,-415.8 1656.05,-405.22 1649.12,-413.24 1655.64,-415.8"/>
<text text-anchor="middle" x="1692.89" y="-437.3" font-family="Times,serif" font-size="14.00">assignedFrom ()</text>
</g>
<!-- http://purl.org/dj/kaggle/random&#45;forests#29687986&#45;&gt;http://purl.org/dj/kaggle/random&#45;forests -->
<g id="edge13" class="edge">
<title>http://purl.org/dj/kaggle/random&#45;forests#29687986&#45;&gt;http://purl.org/dj/kaggle/random&#45;forests</title>
<path fill="none" stroke="black" d="M938.26,-281.92C936.14,-251.88 934.94,-188.3 956.89,-141 976.13,-99.55 1015.57,-63.87 1043.99,-41.98"/>
<polygon fill="black" stroke="black" points="1046.17,-44.72 1052.06,-35.91 1041.96,-39.13 1046.17,-44.72"/>
<text text-anchor="middle" x="989.89" y="-144.8" font-family="Times,serif" font-size="14.00">appearsIn ()</text>
</g>
<!-- http://purl.org/dj/kaggle/random&#45;forests#1257244313&#45;&gt;http://purl.org/dj/kaggle/random&#45;forests#1257178776 -->
<g id="edge14" class="edge">
<title>http://purl.org/dj/kaggle/random&#45;forests#1257244313&#45;&gt;http://purl.org/dj/kaggle/random&#45;forests#1257178776</title>
<path fill="none" stroke="black" d="M1198.11,-372.81C1079.5,-357.44 883.95,-332.11 759.66,-316"/>
<polygon fill="black" stroke="black" points="760.09,-312.53 749.72,-314.71 759.19,-319.47 760.09,-312.53"/>
<text text-anchor="middle" x="1037.39" y="-339.8" font-family="Times,serif" font-size="14.00">dropna ()</text>
</g>
<!-- http://purl.org/dj/kaggle/random&#45;forests#1257244313&#45;&gt;http://purl.org/dj/kaggle/random&#45;forests#29687986 -->
<g id="edge15" class="edge">
<title>http://purl.org/dj/kaggle/random&#45;forests#1257244313&#45;&gt;http://purl.org/dj/kaggle/random&#45;forests#29687986</title>
<path fill="none" stroke="black" d="M1284.29,-368.99C1272.69,-357.55 1255.83,-343.28 1237.89,-336 1157.66,-303.43 1129.78,-328.99 1043.89,-318 1035.26,-316.89 1026.24,-315.61 1017.27,-314.26"/>
<polygon fill="black" stroke="black" points="1017.62,-310.77 1007.2,-312.7 1016.55,-317.69 1017.62,-310.77"/>
<text text-anchor="middle" x="1288.39" y="-339.8" font-family="Times,serif" font-size="14.00">dropna ()</text>
</g>
<!-- http://purl.org/dj/kaggle/random&#45;forests#3426115589 -->
<g id="node14" class="node">
<title>http://purl.org/dj/kaggle/random&#45;forests#3426115589</title>
<ellipse fill="none" stroke="black" cx="2809.89" cy="-246" rx="1197.69" ry="18"/>
<text text-anchor="middle" x="2809.89" y="-242.3" font-family="Times,serif" font-size="14.00">3426115589 ([&lt;_ast.Constant object at 0x7fd4c048e7f0&gt;, &lt;_ast.Constant object at 0x7fd4c048ee80&gt;, &lt;_ast.Constant object at 0x7fd4c048efd0&gt;, &lt;_ast.Constant object at 0x7fd4c048e5b0&gt;, &lt;_ast.Constant object at 0x7fd4c048e970&gt;, &lt;_ast.Constant object at 0x7fd4c048e610&gt;, &lt;_ast.Constant object at 0x7fd4c048ef10&gt;](0): Reuse)</text>
</g>
<!-- http://purl.org/dj/kaggle/random&#45;forests#1867778141&#45;&gt;http://purl.org/dj/kaggle/random&#45;forests#3426115589 -->
<g id="edge19" class="edge">
<title>http://purl.org/dj/kaggle/random&#45;forests#1867778141&#45;&gt;http://purl.org/dj/kaggle/random&#45;forests#3426115589</title>
<path fill="none" stroke="black" d="M1771.45,-372.74C1978.22,-347.7 2426.23,-293.45 2660.43,-265.1"/>
<polygon fill="black" stroke="black" points="2660.88,-268.57 2670.38,-263.89 2660.04,-261.62 2660.88,-268.57"/>
<text text-anchor="middle" x="2110.89" y="-339.8" font-family="Times,serif" font-size="14.00">assignedFrom ()</text>
</g>
<!-- http://purl.org/dj/kaggle/random&#45;forests#477168555 -->
<g id="node13" class="node">
<title>http://purl.org/dj/kaggle/random&#45;forests#477168555</title>
<ellipse fill="none" stroke="black" cx="946.89" cy="-582" rx="149.47" ry="18"/>
<text text-anchor="middle" x="946.89" y="-578.3" font-family="Times,serif" font-size="14.00">477168555 (train_X(0)$0: Preparation)</text>
</g>
<!-- http://purl.org/dj/kaggle/random&#45;forests#477168555&#45;&gt;http://purl.org/dj/kaggle/random&#45;forests#89588047 -->
<g id="edge16" class="edge">
<title>http://purl.org/dj/kaggle/random&#45;forests#477168555&#45;&gt;http://purl.org/dj/kaggle/random&#45;forests#89588047</title>
<path fill="none" stroke="black" d="M941.98,-563.58C940.09,-552.84 940,-539.55 947.89,-531 964.17,-513.38 1091.66,-504.23 1188.57,-499.78"/>
<polygon fill="black" stroke="black" points="1188.91,-503.27 1198.74,-499.32 1188.59,-496.27 1188.91,-503.27"/>
<text text-anchor="middle" x="994.89" y="-534.8" font-family="Times,serif" font-size="14.00">train_test_split ()</text>
</g>
<!-- http://purl.org/dj/kaggle/random&#45;forests#477168555&#45;&gt;http://purl.org/dj/kaggle/random&#45;forests#76611886 -->
<g id="edge17" class="edge">
<title>http://purl.org/dj/kaggle/random&#45;forests#477168555&#45;&gt;http://purl.org/dj/kaggle/random&#45;forests#76611886</title>
<path fill="none" stroke="black" d="M1003.46,-565.28C1046.55,-553.94 1107.52,-539.22 1161.89,-531 1272.48,-514.28 1301.45,-522.47 1412.89,-513 1437.21,-510.93 1463.42,-508.48 1487.91,-506.08"/>
<polygon fill="black" stroke="black" points="1488.31,-509.56 1497.92,-505.1 1487.63,-502.59 1488.31,-509.56"/>
<text text-anchor="middle" x="1208.89" y="-534.8" font-family="Times,serif" font-size="14.00">train_test_split ()</text>
</g>
<!-- http://purl.org/dj/kaggle/random&#45;forests#477168555&#45;&gt;http://purl.org/dj/kaggle/random&#45;forests#29687986 -->
<g id="edge18" class="edge">
<title>http://purl.org/dj/kaggle/random&#45;forests#477168555&#45;&gt;http://purl.org/dj/kaggle/random&#45;forests#29687986</title>
<path fill="none" stroke="black" d="M941.53,-563.72C940.04,-558.12 938.63,-551.85 937.89,-546 937.05,-539.39 937.86,-537.67 937.89,-531 938.21,-457.72 939.1,-371.3 939.58,-328.24"/>
<polygon fill="black" stroke="black" points="943.08,-328.06 939.69,-318.02 936.08,-327.98 943.08,-328.06"/>
<text text-anchor="middle" x="985.89" y="-437.3" font-family="Times,serif" font-size="14.00">train_test_split ()</text>
</g>
<!-- http://purl.org/dj/kaggle/random&#45;forests#3426115589&#45;&gt;http://purl.org/dj/kaggle/random&#45;forests -->
<g id="edge32" class="edge">
<title>http://purl.org/dj/kaggle/random&#45;forests#3426115589&#45;&gt;http://purl.org/dj/kaggle/random&#45;forests</title>
<path fill="none" stroke="black" d="M2734.08,-227.97C2560.56,-189.74 2120.78,-97.08 1747.89,-54 1572.38,-33.72 1369.67,-25.19 1233.38,-21.6"/>
<polygon fill="black" stroke="black" points="1233.37,-18.1 1223.28,-21.34 1233.19,-25.09 1233.37,-18.1"/>
<text text-anchor="middle" x="2408.89" y="-144.8" font-family="Times,serif" font-size="14.00">appearsIn ()</text>
</g>
<!-- http://purl.org/dj/python/lib/964298441 -->
<g id="node15" class="node">
<title>http://purl.org/dj/python/lib/964298441</title>
<ellipse fill="none" stroke="black" cx="1196.89" cy="-192" rx="137.28" ry="18"/>
<text text-anchor="middle" x="1196.89" y="-188.3" font-family="Times,serif" font-size="14.00">964298441 (train_test_split: Reuse)</text>
</g>
<!-- http://purl.org/dj/python/lib/1865222485 -->
<g id="node16" class="node">
<title>http://purl.org/dj/python/lib/1865222485</title>
<ellipse fill="none" stroke="black" cx="1220.89" cy="-105" rx="174.67" ry="18"/>
<text text-anchor="middle" x="1220.89" y="-101.3" font-family="Times,serif" font-size="14.00">1865222485 (sklearn.model_selection: Reuse)</text>
</g>
<!-- http://purl.org/dj/python/lib/964298441&#45;&gt;http://purl.org/dj/python/lib/1865222485 -->
<g id="edge21" class="edge">
<title>http://purl.org/dj/python/lib/964298441&#45;&gt;http://purl.org/dj/python/lib/1865222485</title>
<path fill="none" stroke="black" d="M1201.75,-173.8C1205.07,-162.05 1209.53,-146.24 1213.31,-132.84"/>
<polygon fill="black" stroke="black" points="1216.69,-133.75 1216.04,-123.18 1209.96,-131.85 1216.69,-133.75"/>
<text text-anchor="middle" x="1250.39" y="-144.8" font-family="Times,serif" font-size="14.00">importedBy ()</text>
</g>
<!-- http://purl.org/dj/python/lib/1865222485&#45;&gt;http://purl.org/dj/kaggle/random&#45;forests -->
<g id="edge22" class="edge">
<title>http://purl.org/dj/python/lib/1865222485&#45;&gt;http://purl.org/dj/kaggle/random&#45;forests</title>
<path fill="none" stroke="black" d="M1192.44,-87.21C1169.96,-73.93 1138.4,-55.31 1113.94,-40.87"/>
<polygon fill="black" stroke="black" points="1115.67,-37.83 1105.28,-35.76 1112.11,-43.86 1115.67,-37.83"/>
<text text-anchor="middle" x="1197.39" y="-57.8" font-family="Times,serif" font-size="14.00">importedBy ()</text>
</g>
<!-- http://purl.org/dj/kaggle/random&#45;forests#1989675282 -->
<g id="node17" class="node">
<title>http://purl.org/dj/kaggle/random&#45;forests#1989675282</title>
<ellipse fill="none" stroke="black" cx="1559.89" cy="-300" rx="186.57" ry="18"/>
<text text-anchor="middle" x="1559.89" y="-296.3" font-family="Times,serif" font-size="14.00">1989675282 (RandomForestRegressor(0): Reuse)</text>
</g>
<!-- http://purl.org/dj/kaggle/random&#45;forests#1989675282&#45;&gt;http://purl.org/dj/kaggle/random&#45;forests -->
<g id="edge23" class="edge">
<title>http://purl.org/dj/kaggle/random&#45;forests#1989675282&#45;&gt;http://purl.org/dj/kaggle/random&#45;forests</title>
<path fill="none" stroke="black" d="M1571.21,-281.85C1584.49,-261.97 1605.39,-231.44 1610.89,-228 1650.64,-203.1 1684.68,-245.89 1714.89,-210 1750.1,-168.18 1751.25,-127.83 1714.89,-87 1683.01,-51.2 1405.59,-32.8 1227.22,-24.59"/>
<polygon fill="black" stroke="black" points="1227.36,-21.09 1217.21,-24.13 1227.04,-28.08 1227.36,-21.09"/>
<text text-anchor="middle" x="1773.89" y="-144.8" font-family="Times,serif" font-size="14.00">appearsIn ()</text>
</g>
<!-- http://purl.org/dj/python/lib/1541671057 -->
<g id="node18" class="node">
<title>http://purl.org/dj/python/lib/1541671057</title>
<ellipse fill="none" stroke="black" cx="1528.89" cy="-192" rx="176.57" ry="18"/>
<text text-anchor="middle" x="1528.89" y="-188.3" font-family="Times,serif" font-size="14.00">1541671057 (RandomForestRegressor: Reuse)</text>
</g>
<!-- http://purl.org/dj/kaggle/random&#45;forests#1989675282&#45;&gt;http://purl.org/dj/python/lib/1541671057 -->
<g id="edge24" class="edge">
<title>http://purl.org/dj/kaggle/random&#45;forests#1989675282&#45;&gt;http://purl.org/dj/python/lib/1541671057</title>
<path fill="none" stroke="black" d="M1512.04,-282.45C1504.41,-277.68 1497.52,-271.63 1492.89,-264 1484.6,-250.32 1486.66,-242.74 1492.89,-228 1494.45,-224.31 1496.61,-220.82 1499.1,-217.57"/>
<polygon fill="black" stroke="black" points="1501.78,-219.82 1505.84,-210.03 1496.56,-215.16 1501.78,-219.82"/>
<text text-anchor="middle" x="1537.89" y="-242.3" font-family="Times,serif" font-size="14.00">assignedFrom ()</text>
</g>
<!-- http://purl.org/dj/python/lib/919996010 -->
<g id="node19" class="node">
<title>http://purl.org/dj/python/lib/919996010</title>
<ellipse fill="none" stroke="black" cx="1559.89" cy="-105" rx="146.47" ry="18"/>
<text text-anchor="middle" x="1559.89" y="-101.3" font-family="Times,serif" font-size="14.00">919996010 (sklearn.ensemble: Reuse)</text>
</g>
<!-- http://purl.org/dj/python/lib/1541671057&#45;&gt;http://purl.org/dj/python/lib/919996010 -->
<g id="edge25" class="edge">
<title>http://purl.org/dj/python/lib/1541671057&#45;&gt;http://purl.org/dj/python/lib/919996010</title>
<path fill="none" stroke="black" d="M1535.16,-173.8C1539.45,-162.05 1545.22,-146.24 1550.1,-132.84"/>
<polygon fill="black" stroke="black" points="1553.49,-133.77 1553.63,-123.18 1546.91,-131.37 1553.49,-133.77"/>
<text text-anchor="middle" x="1585.39" y="-144.8" font-family="Times,serif" font-size="14.00">importedBy ()</text>
</g>
<!-- http://purl.org/dj/python/lib/919996010&#45;&gt;http://purl.org/dj/kaggle/random&#45;forests -->
<g id="edge26" class="edge">
<title>http://purl.org/dj/python/lib/919996010&#45;&gt;http://purl.org/dj/kaggle/random&#45;forests</title>
<path fill="none" stroke="black" d="M1479.86,-89.92C1393.81,-74.77 1257.29,-50.75 1167.39,-34.93"/>
<polygon fill="black" stroke="black" points="1167.93,-31.47 1157.48,-33.18 1166.72,-38.36 1167.93,-31.47"/>
<text text-anchor="middle" x="1387.39" y="-57.8" font-family="Times,serif" font-size="14.00">importedBy ()</text>
</g>
<!-- http://purl.org/dj/kaggle/random&#45;forests#324600561 -->
<g id="node20" class="node">
<title>http://purl.org/dj/kaggle/random&#45;forests#324600561</title>
<ellipse fill="none" stroke="black" cx="1940.89" cy="-582" rx="142.17" ry="18"/>
<text text-anchor="middle" x="1940.89" y="-578.3" font-family="Times,serif" font-size="14.00">324600561 (val_y(0)$0: Preparation)</text>
</g>
<!-- http://purl.org/dj/kaggle/random&#45;forests#324600561&#45;&gt;http://purl.org/dj/kaggle/random&#45;forests#89588047 -->
<g id="edge27" class="edge">
<title>http://purl.org/dj/kaggle/random&#45;forests#324600561&#45;&gt;http://purl.org/dj/kaggle/random&#45;forests#89588047</title>
<path fill="none" stroke="black" d="M1878.09,-565.77C1829.46,-554.53 1760.27,-539.73 1698.89,-531 1598.26,-516.69 1572.14,-522.03 1470.89,-513 1446.97,-510.87 1421.18,-508.39 1397.07,-506.01"/>
<polygon fill="black" stroke="black" points="1397.15,-502.5 1386.85,-504.99 1396.46,-509.46 1397.15,-502.5"/>
<text text-anchor="middle" x="1832.89" y="-534.8" font-family="Times,serif" font-size="14.00">train_test_split ()</text>
</g>
<!-- http://purl.org/dj/kaggle/random&#45;forests#324600561&#45;&gt;http://purl.org/dj/kaggle/random&#45;forests#76611886 -->
<g id="edge28" class="edge">
<title>http://purl.org/dj/kaggle/random&#45;forests#324600561&#45;&gt;http://purl.org/dj/kaggle/random&#45;forests#76611886</title>
<path fill="none" stroke="black" d="M1937.92,-563.84C1935.03,-552.64 1929.46,-538.72 1918.89,-531 1885.09,-506.33 1783.96,-498.34 1701.93,-496.07"/>
<polygon fill="black" stroke="black" points="1701.86,-492.56 1691.78,-495.81 1701.68,-499.56 1701.86,-492.56"/>
<text text-anchor="middle" x="1977.89" y="-534.8" font-family="Times,serif" font-size="14.00">train_test_split ()</text>
</g>
<!-- http://purl.org/dj/kaggle/random&#45;forests#324600561&#45;&gt;http://purl.org/dj/kaggle/random&#45;forests#29687986 -->
<g id="edge29" class="edge">
<title>http://purl.org/dj/kaggle/random&#45;forests#324600561&#45;&gt;http://purl.org/dj/kaggle/random&#45;forests#29687986</title>
<path fill="none" stroke="black" d="M2005.61,-565.93C2014.79,-561.04 2023.08,-554.57 2028.89,-546 2032.63,-540.48 2030.7,-537.42 2028.89,-531 1998.91,-424.43 1975.95,-378.89 1873.89,-336 1831.37,-318.13 1089.82,-322.23 1043.89,-318 1034.56,-317.14 1024.8,-315.94 1015.16,-314.58"/>
<polygon fill="black" stroke="black" points="1015.58,-311.11 1005.18,-313.11 1014.56,-318.03 1015.58,-311.11"/>
<text text-anchor="middle" x="2051.89" y="-437.3" font-family="Times,serif" font-size="14.00">train_test_split ()</text>
</g>
<!-- http://purl.org/dj/kaggle/random&#45;forests#1322649418 -->
<g id="node21" class="node">
<title>http://purl.org/dj/kaggle/random&#45;forests#1322649418</title>
<ellipse fill="none" stroke="black" cx="1203.89" cy="-300" rx="151.37" ry="18"/>
<text text-anchor="middle" x="1203.89" y="-296.3" font-family="Times,serif" font-size="14.00">1322649418 (train_test_split(0): Reuse)</text>
</g>
<!-- http://purl.org/dj/kaggle/random&#45;forests#1322649418&#45;&gt;http://purl.org/dj/kaggle/random&#45;forests -->
<g id="edge30" class="edge">
<title>http://purl.org/dj/kaggle/random&#45;forests#1322649418&#45;&gt;http://purl.org/dj/kaggle/random&#45;forests</title>
<path fill="none" stroke="black" d="M1153.85,-282.88C1119.34,-269.09 1075.42,-245.72 1050.89,-210 1019.75,-164.64 1022.44,-140.09 1036.89,-87 1041.03,-71.79 1049.53,-56.52 1057.64,-44.31"/>
<polygon fill="black" stroke="black" points="1060.57,-46.22 1063.4,-36 1054.82,-42.22 1060.57,-46.22"/>
<text text-anchor="middle" x="1060.89" y="-144.8" font-family="Times,serif" font-size="14.00">appearsIn ()</text>
</g>
<!-- http://purl.org/dj/kaggle/random&#45;forests#1322649418&#45;&gt;http://purl.org/dj/python/lib/964298441 -->
<g id="edge31" class="edge">
<title>http://purl.org/dj/kaggle/random&#45;forests#1322649418&#45;&gt;http://purl.org/dj/python/lib/964298441</title>
<path fill="none" stroke="black" d="M1202.77,-281.97C1201.67,-265.38 1199.99,-239.88 1198.7,-220.43"/>
<polygon fill="black" stroke="black" points="1202.19,-220.09 1198.04,-210.34 1195.2,-220.55 1202.19,-220.09"/>
<text text-anchor="middle" x="1246.89" y="-242.3" font-family="Times,serif" font-size="14.00">assignedFrom ()</text>
</g>
<!-- http://purl.org/dj/kaggle/random&#45;forests#1013384666 -->
<g id="node22" class="node">
<title>http://purl.org/dj/kaggle/random&#45;forests#1013384666</title>
<ellipse fill="none" stroke="black" cx="1142.89" cy="-669" rx="163.57" ry="18"/>
<text text-anchor="middle" x="1142.89" y="-665.3" font-family="Times,serif" font-size="14.00">1013384666 (forest_model(0)$1: Analysis)</text>
</g>
<!-- http://purl.org/dj/kaggle/random&#45;forests#1013384666&#45;&gt;http://purl.org/dj/kaggle/random&#45;forests#490144716 -->
<g id="edge33" class="edge">
<title>http://purl.org/dj/kaggle/random&#45;forests#1013384666&#45;&gt;http://purl.org/dj/kaggle/random&#45;forests#490144716</title>
<path fill="none" stroke="black" d="M1166.69,-651C1184.85,-638.03 1210.05,-620.03 1229.96,-605.81"/>
<polygon fill="black" stroke="black" points="1232.03,-608.63 1238.14,-599.97 1227.97,-602.93 1232.03,-608.63"/>
<text text-anchor="middle" x="1222.39" y="-621.8" font-family="Times,serif" font-size="14.00">fit ()</text>
</g>
<!-- http://purl.org/dj/kaggle/random&#45;forests#1013384666&#45;&gt;http://purl.org/dj/kaggle/random&#45;forests#477168555 -->
<g id="edge34" class="edge">
<title>http://purl.org/dj/kaggle/random&#45;forests#1013384666&#45;&gt;http://purl.org/dj/kaggle/random&#45;forests#477168555</title>
<path fill="none" stroke="black" d="M1104.64,-651.41C1073.07,-637.72 1028.13,-618.23 994.28,-603.55"/>
<polygon fill="black" stroke="black" points="995.62,-600.32 985.05,-599.55 992.83,-606.74 995.62,-600.32"/>
<text text-anchor="middle" x="1069.39" y="-621.8" font-family="Times,serif" font-size="14.00">fit ()</text>
</g>
<!-- http://purl.org/dj/kaggle/random&#45;forests#1013319129 -->
<g id="node23" class="node">
<title>http://purl.org/dj/kaggle/random&#45;forests#1013319129</title>
<ellipse fill="none" stroke="black" cx="547.89" cy="-582" rx="155.17" ry="18"/>
<text text-anchor="middle" x="547.89" y="-578.3" font-family="Times,serif" font-size="14.00">1013319129 (forest_model(0)$0: Reuse)</text>
</g>
<!-- http://purl.org/dj/kaggle/random&#45;forests#1013384666&#45;&gt;http://purl.org/dj/kaggle/random&#45;forests#1013319129 -->
<g id="edge35" class="edge">
<title>http://purl.org/dj/kaggle/random&#45;forests#1013384666&#45;&gt;http://purl.org/dj/kaggle/random&#45;forests#1013319129</title>
<path fill="none" stroke="black" d="M1047.29,-654.34C939.04,-638.88 763.24,-613.76 651.7,-597.83"/>
<polygon fill="black" stroke="black" points="652.17,-594.36 641.78,-596.41 651.18,-601.29 652.17,-594.36"/>
<text text-anchor="middle" x="894.39" y="-621.8" font-family="Times,serif" font-size="14.00">fit ()</text>
</g>
<!-- http://purl.org/dj/kaggle/random&#45;forests#29950131 -->
<g id="node24" class="node">
<title>http://purl.org/dj/kaggle/random&#45;forests#29950131</title>
<ellipse fill="none" stroke="black" cx="94.89" cy="-441" rx="94.78" ry="18"/>
<text text-anchor="middle" x="94.89" y="-437.3" font-family="Times,serif" font-size="14.00">29950131 (1(0): Reuse)</text>
</g>
<!-- http://purl.org/dj/kaggle/random&#45;forests#1013319129&#45;&gt;http://purl.org/dj/kaggle/random&#45;forests#29950131 -->
<g id="edge36" class="edge">
<title>http://purl.org/dj/kaggle/random&#45;forests#1013319129&#45;&gt;http://purl.org/dj/kaggle/random&#45;forests#29950131</title>
<path fill="none" stroke="black" d="M495.48,-564.92C409.96,-538.68 241.03,-486.84 152.35,-459.63"/>
<polygon fill="black" stroke="black" points="153.31,-456.26 142.72,-456.68 151.25,-462.95 153.31,-456.26"/>
<text text-anchor="middle" x="507.89" y="-534.8" font-family="Times,serif" font-size="14.00">RandomForestRegressor ()</text>
</g>
<!-- http://purl.org/dj/kaggle/random&#45;forests#29950131&#45;&gt;http://purl.org/dj/kaggle/random&#45;forests -->
<g id="edge37" class="edge">
<title>http://purl.org/dj/kaggle/random&#45;forests#29950131&#45;&gt;http://purl.org/dj/kaggle/random&#45;forests</title>
<path fill="none" stroke="black" d="M77.17,-423.15C60.44,-405.34 37.89,-375.59 37.89,-344.5 37.89,-344.5 37.89,-344.5 37.89,-104 37.89,-92.67 46.45,-91.39 56.89,-87 134.64,-54.29 659.47,-32.66 924.45,-23.69"/>
<polygon fill="black" stroke="black" points="924.66,-27.19 934.54,-23.35 924.43,-20.19 924.66,-27.19"/>
<text text-anchor="middle" x="70.89" y="-242.3" font-family="Times,serif" font-size="14.00">appearsIn ()</text>
</g>
<!-- http://purl.org/dj/kaggle/random&#45;forests#417137581 -->
<g id="node25" class="node">
<title>http://purl.org/dj/kaggle/random&#45;forests#417137581</title>
<ellipse fill="none" stroke="black" cx="1940.89" cy="-843" rx="147.57" ry="18"/>
<text text-anchor="middle" x="1940.89" y="-839.3" font-family="Times,serif" font-size="14.00">417137581 (print[53/0]: Visualisation)</text>
</g>
<!-- http://purl.org/dj/kaggle/random&#45;forests#417137581&#45;&gt;http://purl.org/dj/kaggle/random&#45;forests#324600561 -->
<g id="edge38" class="edge">
<title>http://purl.org/dj/kaggle/random&#45;forests#417137581&#45;&gt;http://purl.org/dj/kaggle/random&#45;forests#324600561</title>
<path fill="none" stroke="black" d="M1940.89,-824.6C1940.89,-780.46 1940.89,-663.83 1940.89,-610.42"/>
<polygon fill="black" stroke="black" points="1944.39,-610.32 1940.89,-600.32 1937.39,-610.32 1944.39,-610.32"/>
<text text-anchor="middle" x="1960.39" y="-708.8" font-family="Times,serif" font-size="14.00">print ()</text>
</g>
<!-- http://purl.org/dj/kaggle/random&#45;forests#1722550378 -->
<g id="node26" class="node">
<title>http://purl.org/dj/kaggle/random&#45;forests#1722550378</title>
<ellipse fill="none" stroke="black" cx="4030.89" cy="-300" rx="174.37" ry="18"/>
<text text-anchor="middle" x="4030.89" y="-296.3" font-family="Times,serif" font-size="14.00">1722550378 (mean_absolute_error(0): Reuse)</text>
</g>
<!-- http://purl.org/dj/kaggle/random&#45;forests#417137581&#45;&gt;http://purl.org/dj/kaggle/random&#45;forests#1722550378 -->
<g id="edge39" class="edge">
<title>http://purl.org/dj/kaggle/random&#45;forests#417137581&#45;&gt;http://purl.org/dj/kaggle/random&#45;forests#1722550378</title>
<path fill="none" stroke="black" d="M2083.82,-838.46C2386.55,-830.01 3064.89,-805.65 3064.89,-757 3064.89,-757 3064.89,-757 3064.89,-386 3064.89,-346.54 3583.07,-319.29 3860.39,-307.53"/>
<polygon fill="black" stroke="black" points="3860.72,-311.02 3870.56,-307.1 3860.42,-304.02 3860.72,-311.02"/>
<text text-anchor="middle" x="3084.39" y="-578.3" font-family="Times,serif" font-size="14.00">print ()</text>
</g>
<!-- http://purl.org/dj/kaggle/random&#45;forests#764675315 -->
<g id="node27" class="node">
<title>http://purl.org/dj/kaggle/random&#45;forests#764675315</title>
<ellipse fill="none" stroke="black" cx="1612.89" cy="-756" rx="154.07" ry="18"/>
<text text-anchor="middle" x="1612.89" y="-752.3" font-family="Times,serif" font-size="14.00">764675315 (melb_preds(0)$0: Analysis)</text>
</g>
<!-- http://purl.org/dj/kaggle/random&#45;forests#417137581&#45;&gt;http://purl.org/dj/kaggle/random&#45;forests#764675315 -->
<g id="edge40" class="edge">
<title>http://purl.org/dj/kaggle/random&#45;forests#417137581&#45;&gt;http://purl.org/dj/kaggle/random&#45;forests#764675315</title>
<path fill="none" stroke="black" d="M1881.11,-826.51C1825.3,-812.05 1742,-790.46 1683.07,-775.19"/>
<polygon fill="black" stroke="black" points="1683.65,-771.72 1673.09,-772.6 1681.89,-778.5 1683.65,-771.72"/>
<text text-anchor="middle" x="1815.39" y="-795.8" font-family="Times,serif" font-size="14.00">print ()</text>
</g>
<!-- http://purl.org/dj/kaggle/random&#45;forests#1722550378&#45;&gt;http://purl.org/dj/kaggle/random&#45;forests -->
<g id="edge41" class="edge">
<title>http://purl.org/dj/kaggle/random&#45;forests#1722550378&#45;&gt;http://purl.org/dj/kaggle/random&#45;forests</title>
<path fill="none" stroke="black" d="M4099.57,-283.35C4108.36,-278.53 4116.24,-272.23 4121.89,-264 4130.95,-250.81 4132.49,-239.99 4121.89,-228 3897.15,26.22 2943.7,-72.73 2604.89,-54 2105.68,-26.4 1513.57,-20.47 1235.75,-19.26"/>
<polygon fill="black" stroke="black" points="1235.61,-15.76 1225.59,-19.22 1235.58,-22.76 1235.61,-15.76"/>
<text text-anchor="middle" x="4049.89" y="-144.8" font-family="Times,serif" font-size="14.00">appearsIn ()</text>
</g>
<!-- http://purl.org/dj/python/lib/1307576297 -->
<g id="node28" class="node">
<title>http://purl.org/dj/python/lib/1307576297</title>
<ellipse fill="none" stroke="black" cx="3472.89" cy="-192" rx="163.57" ry="18"/>
<text text-anchor="middle" x="3472.89" y="-188.3" font-family="Times,serif" font-size="14.00">1307576297 (mean_absolute_error: Reuse)</text>
</g>
<!-- http://purl.org/dj/kaggle/random&#45;forests#1722550378&#45;&gt;http://purl.org/dj/python/lib/1307576297 -->
<g id="edge42" class="edge">
<title>http://purl.org/dj/kaggle/random&#45;forests#1722550378&#45;&gt;http://purl.org/dj/python/lib/1307576297</title>
<path fill="none" stroke="black" d="M4030.77,-281.93C4029.64,-265.32 4025.1,-240.79 4008.89,-228 3980.62,-205.71 3791.44,-197.57 3645.75,-194.63"/>
<polygon fill="black" stroke="black" points="3645.4,-191.12 3635.33,-194.43 3645.26,-198.12 3645.4,-191.12"/>
<text text-anchor="middle" x="4072.89" y="-242.3" font-family="Times,serif" font-size="14.00">assignedFrom ()</text>
</g>
<!-- http://purl.org/dj/kaggle/random&#45;forests#764675315&#45;&gt;http://purl.org/dj/kaggle/random&#45;forests#1013384666 -->
<g id="edge43" class="edge">
<title>http://purl.org/dj/kaggle/random&#45;forests#764675315&#45;&gt;http://purl.org/dj/kaggle/random&#45;forests#1013384666</title>
<path fill="none" stroke="black" d="M1533.16,-740.58C1450.32,-725.6 1320.88,-702.19 1234.04,-686.48"/>
<polygon fill="black" stroke="black" points="1234.66,-683.04 1224.2,-684.7 1233.41,-689.93 1234.66,-683.04"/>
<text text-anchor="middle" x="1432.39" y="-708.8" font-family="Times,serif" font-size="14.00">predict ()</text>
</g>
<!-- http://purl.org/dj/kaggle/random&#45;forests#311624400 -->
<g id="node29" class="node">
<title>http://purl.org/dj/kaggle/random&#45;forests#311624400</title>
<ellipse fill="none" stroke="black" cx="1612.89" cy="-582" rx="144.07" ry="18"/>
<text text-anchor="middle" x="1612.89" y="-578.3" font-family="Times,serif" font-size="14.00">311624400 (val_X(0)$0: Preparation)</text>
</g>
<!-- http://purl.org/dj/kaggle/random&#45;forests#764675315&#45;&gt;http://purl.org/dj/kaggle/random&#45;forests#311624400 -->
<g id="edge44" class="edge">
<title>http://purl.org/dj/kaggle/random&#45;forests#764675315&#45;&gt;http://purl.org/dj/kaggle/random&#45;forests#311624400</title>
<path fill="none" stroke="black" d="M1612.89,-737.88C1612.89,-708 1612.89,-646.11 1612.89,-610.27"/>
<polygon fill="black" stroke="black" points="1616.39,-610.05 1612.89,-600.05 1609.39,-610.05 1616.39,-610.05"/>
<text text-anchor="middle" x="1638.39" y="-665.3" font-family="Times,serif" font-size="14.00">predict ()</text>
</g>
<!-- http://purl.org/dj/python/lib/816055830 -->
<g id="node30" class="node">
<title>http://purl.org/dj/python/lib/816055830</title>
<ellipse fill="none" stroke="black" cx="2832.89" cy="-105" rx="139.18" ry="18"/>
<text text-anchor="middle" x="2832.89" y="-101.3" font-family="Times,serif" font-size="14.00">816055830 (sklearn.metrics: Reuse)</text>
</g>
<!-- http://purl.org/dj/python/lib/1307576297&#45;&gt;http://purl.org/dj/python/lib/816055830 -->
<g id="edge45" class="edge">
<title>http://purl.org/dj/python/lib/1307576297&#45;&gt;http://purl.org/dj/python/lib/816055830</title>
<path fill="none" stroke="black" d="M3372.89,-177.72C3253.98,-161.93 3056.51,-135.7 2936.17,-119.72"/>
<polygon fill="black" stroke="black" points="2936.58,-116.24 2926.21,-118.39 2935.66,-123.18 2936.58,-116.24"/>
<text text-anchor="middle" x="3230.39" y="-144.8" font-family="Times,serif" font-size="14.00">importedBy ()</text>
</g>
<!-- http://purl.org/dj/kaggle/random&#45;forests#311624400&#45;&gt;http://purl.org/dj/kaggle/random&#45;forests#89588047 -->
<g id="edge46" class="edge">
<title>http://purl.org/dj/kaggle/random&#45;forests#311624400&#45;&gt;http://purl.org/dj/kaggle/random&#45;forests#89588047</title>
<path fill="none" stroke="black" d="M1553.02,-565.59C1535.27,-560.23 1516.01,-553.63 1498.89,-546 1487.06,-540.73 1485.97,-535.68 1473.89,-531 1447.66,-520.84 1418.01,-513.48 1390.72,-508.21"/>
<polygon fill="black" stroke="black" points="1391.25,-504.75 1380.78,-506.36 1389.97,-511.63 1391.25,-504.75"/>
<text text-anchor="middle" x="1545.89" y="-534.8" font-family="Times,serif" font-size="14.00">train_test_split ()</text>
</g>
<!-- http://purl.org/dj/kaggle/random&#45;forests#311624400&#45;&gt;http://purl.org/dj/kaggle/random&#45;forests#76611886 -->
<g id="edge47" class="edge">
<title>http://purl.org/dj/kaggle/random&#45;forests#311624400&#45;&gt;http://purl.org/dj/kaggle/random&#45;forests#76611886</title>
<path fill="none" stroke="black" d="M1607.43,-563.8C1603.69,-552.05 1598.67,-536.24 1594.42,-522.84"/>
<polygon fill="black" stroke="black" points="1597.71,-521.65 1591.35,-513.18 1591.04,-523.77 1597.71,-521.65"/>
<text text-anchor="middle" x="1647.89" y="-534.8" font-family="Times,serif" font-size="14.00">train_test_split ()</text>
</g>
<!-- http://purl.org/dj/kaggle/random&#45;forests#311624400&#45;&gt;http://purl.org/dj/kaggle/random&#45;forests#29687986 -->
<g id="edge48" class="edge">
<title>http://purl.org/dj/kaggle/random&#45;forests#311624400&#45;&gt;http://purl.org/dj/kaggle/random&#45;forests#29687986</title>
<path fill="none" stroke="black" d="M1661.29,-564.89C1673.99,-559.72 1687.35,-553.38 1698.89,-546 1796.85,-483.37 1936.19,-419.12 1854.89,-336 1839.14,-319.89 1066.33,-320.07 1043.89,-318 1034.56,-317.14 1024.8,-315.94 1015.16,-314.58"/>
<polygon fill="black" stroke="black" points="1015.58,-311.1 1005.18,-313.1 1014.56,-318.03 1015.58,-311.1"/>
<text text-anchor="middle" x="1911.89" y="-437.3" font-family="Times,serif" font-size="14.00">train_test_split ()</text>
</g>
<!-- http://purl.org/dj/python/lib/816055830&#45;&gt;http://purl.org/dj/kaggle/random&#45;forests -->
<g id="edge49" class="edge">
<title>http://purl.org/dj/python/lib/816055830&#45;&gt;http://purl.org/dj/kaggle/random&#45;forests</title>
<path fill="none" stroke="black" d="M2736.85,-91.89C2639.51,-80.13 2484.49,-62.8 2349.89,-54 1949.43,-27.8 1476.86,-21.16 1235.77,-19.51"/>
<polygon fill="black" stroke="black" points="1235.55,-16.01 1225.52,-19.44 1235.5,-23.01 1235.55,-16.01"/>
<text text-anchor="middle" x="2561.39" y="-57.8" font-family="Times,serif" font-size="14.00">importedBy ()</text>
</g>
</g>
</svg>
