<?xml version="1.0" encoding="UTF-8" standalone="no"?>
<!DOCTYPE svg PUBLIC "-//W3C//DTD SVG 1.1//EN"
 "http://www.w3.org/Graphics/SVG/1.1/DTD/svg11.dtd">
<!-- Generated by graphviz version 2.47.1 (20210417.1919)
 -->
<!-- Pages: 1 -->
<svg width="1460pt" height="1088pt"
 viewBox="0.00 0.00 1460.08 1088.00" xmlns="http://www.w3.org/2000/svg" xmlns:xlink="http://www.w3.org/1999/xlink">
<g id="graph0" class="graph" transform="scale(1 1) rotate(0) translate(4 1084)">
<polygon fill="white" stroke="transparent" points="-4,4 -4,-1084 1456.08,-1084 1456.08,4 -4,4"/>
<!-- http://purl.org/dj/kaggle/rare&#45;visualization&#45;tools/activity/&#45;8480734213619780508 -->
<g id="node1" class="node">
<title>http://purl.org/dj/kaggle/rare&#45;visualization&#45;tools/activity/&#45;8480734213619780508</title>
<ellipse fill="none" stroke="black" cx="733.08" cy="-975" rx="151.37" ry="18"/>
<text text-anchor="middle" x="733.08" y="-971.3" font-family="Times,serif" font-size="14.00">&#45;8480734213619780508 (Visualisation)</text>
</g>
<!-- http://purl.org/dj/kaggle/rare&#45;visualization&#45;tools/activity/&#45;5677532042320400880 -->
<g id="node2" class="node">
<title>http://purl.org/dj/kaggle/rare&#45;visualization&#45;tools/activity/&#45;5677532042320400880</title>
<ellipse fill="none" stroke="black" cx="733.08" cy="-888" rx="145.67" ry="18"/>
<text text-anchor="middle" x="733.08" y="-884.3" font-family="Times,serif" font-size="14.00">&#45;5677532042320400880 (Preparation)</text>
</g>
<!-- http://purl.org/dj/kaggle/rare&#45;visualization&#45;tools/activity/&#45;8480734213619780508&#45;&gt;http://purl.org/dj/kaggle/rare&#45;visualization&#45;tools/activity/&#45;5677532042320400880 -->
<g id="edge1" class="edge">
<title>http://purl.org/dj/kaggle/rare&#45;visualization&#45;tools/activity/&#45;8480734213619780508&#45;&gt;http://purl.org/dj/kaggle/rare&#45;visualization&#45;tools/activity/&#45;5677532042320400880</title>
<path fill="none" stroke="black" d="M733.08,-956.8C733.08,-945.16 733.08,-929.55 733.08,-916.24"/>
<polygon fill="black" stroke="black" points="736.58,-916.18 733.08,-906.18 729.58,-916.18 736.58,-916.18"/>
<text text-anchor="middle" x="756.58" y="-927.8" font-family="Times,serif" font-size="14.00">previous</text>
</g>
<!-- http://purl.org/dj/kaggle/rare&#45;visualization&#45;tools/activity/1546614399463834700 -->
<g id="node3" class="node">
<title>http://purl.org/dj/kaggle/rare&#45;visualization&#45;tools/activity/1546614399463834700</title>
<ellipse fill="none" stroke="black" cx="507.08" cy="-801" rx="124.28" ry="18"/>
<text text-anchor="middle" x="507.08" y="-797.3" font-family="Times,serif" font-size="14.00">1546614399463834700 (Reuse)</text>
</g>
<!-- http://purl.org/dj/kaggle/rare&#45;visualization&#45;tools/activity/&#45;8480734213619780508&#45;&gt;http://purl.org/dj/kaggle/rare&#45;visualization&#45;tools/activity/1546614399463834700 -->
<g id="edge2" class="edge">
<title>http://purl.org/dj/kaggle/rare&#45;visualization&#45;tools/activity/&#45;8480734213619780508&#45;&gt;http://purl.org/dj/kaggle/rare&#45;visualization&#45;tools/activity/1546614399463834700</title>
<path fill="none" stroke="black" d="M603.82,-965.56C460.76,-954.88 246.94,-934.38 222.08,-906 168.49,-844.8 283.29,-819.59 382.81,-809.22"/>
<polygon fill="black" stroke="black" points="383.4,-812.68 393.01,-808.21 382.71,-805.72 383.4,-812.68"/>
<text text-anchor="middle" x="245.58" y="-884.3" font-family="Times,serif" font-size="14.00">previous</text>
</g>
<!-- http://purl.org/dj/kaggle/rare&#45;visualization&#45;tools/activity/4890572056698266371 -->
<g id="node4" class="node">
<title>http://purl.org/dj/kaggle/rare&#45;visualization&#45;tools/activity/4890572056698266371</title>
<ellipse fill="none" stroke="black" cx="1062.08" cy="-105" rx="142.97" ry="18"/>
<text text-anchor="middle" x="1062.08" y="-101.3" font-family="Times,serif" font-size="14.00">4890572056698266371 (Preparation)</text>
</g>
<!-- http://purl.org/dj/kaggle/rare&#45;visualization&#45;tools/activity/&#45;8480734213619780508&#45;&gt;http://purl.org/dj/kaggle/rare&#45;visualization&#45;tools/activity/4890572056698266371 -->
<g id="edge3" class="edge">
<title>http://purl.org/dj/kaggle/rare&#45;visualization&#45;tools/activity/&#45;8480734213619780508&#45;&gt;http://purl.org/dj/kaggle/rare&#45;visualization&#45;tools/activity/4890572056698266371</title>
<path fill="none" stroke="black" d="M777.22,-957.75C810.93,-946.12 858.79,-931.3 902.08,-924 944.75,-916.81 1256.8,-932.4 1291.08,-906 1313.41,-888.8 1310.08,-873.68 1310.08,-845.5 1310.08,-845.5 1310.08,-845.5 1310.08,-191 1310.08,-157.76 1229.34,-134.78 1160,-121.17"/>
<polygon fill="black" stroke="black" points="1160.35,-117.67 1149.87,-119.23 1159.03,-124.55 1160.35,-117.67"/>
<text text-anchor="middle" x="1333.58" y="-536.3" font-family="Times,serif" font-size="14.00">previous</text>
</g>
<!-- http://purl.org/dj/kaggle/rare&#45;visualization&#45;tools/activity/&#45;5677532042320400880&#45;&gt;http://purl.org/dj/kaggle/rare&#45;visualization&#45;tools/activity/1546614399463834700 -->
<g id="edge4" class="edge">
<title>http://purl.org/dj/kaggle/rare&#45;visualization&#45;tools/activity/&#45;5677532042320400880&#45;&gt;http://purl.org/dj/kaggle/rare&#45;visualization&#45;tools/activity/1546614399463834700</title>
<path fill="none" stroke="black" d="M689.77,-870.71C652.48,-856.68 598.56,-836.4 558.96,-821.51"/>
<polygon fill="black" stroke="black" points="560.07,-818.19 549.48,-817.95 557.61,-824.74 560.07,-818.19"/>
<text text-anchor="middle" x="656.58" y="-840.8" font-family="Times,serif" font-size="14.00">previous</text>
</g>
<!-- http://purl.org/dj/kaggle/rare&#45;visualization&#45;tools/activity/&#45;7584344760279254007 -->
<g id="node5" class="node">
<title>http://purl.org/dj/kaggle/rare&#45;visualization&#45;tools/activity/&#45;7584344760279254007</title>
<ellipse fill="none" stroke="black" cx="1062.08" cy="-453" rx="144.07" ry="18"/>
<text text-anchor="middle" x="1062.08" y="-449.3" font-family="Times,serif" font-size="14.00">&#45;7584344760279254007 (Movement)</text>
</g>
<!-- http://purl.org/dj/kaggle/rare&#45;visualization&#45;tools/activity/&#45;5677532042320400880&#45;&gt;http://purl.org/dj/kaggle/rare&#45;visualization&#45;tools/activity/&#45;7584344760279254007 -->
<g id="edge5" class="edge">
<title>http://purl.org/dj/kaggle/rare&#45;visualization&#45;tools/activity/&#45;5677532042320400880&#45;&gt;http://purl.org/dj/kaggle/rare&#45;visualization&#45;tools/activity/&#45;7584344760279254007</title>
<path fill="none" stroke="black" d="M798.67,-871.82C874.12,-851.42 997.77,-808.53 1077.08,-732 1118.76,-691.79 1129.36,-666.16 1120.08,-609 1111.08,-553.51 1101.89,-540.82 1080.08,-489 1078.88,-486.13 1077.53,-483.18 1076.13,-480.26"/>
<polygon fill="black" stroke="black" points="1079.2,-478.57 1071.59,-471.2 1072.94,-481.71 1079.2,-478.57"/>
<text text-anchor="middle" x="1144.58" y="-666.8" font-family="Times,serif" font-size="14.00">previous</text>
</g>
<!-- http://purl.org/dj/kaggle/rare&#45;visualization&#45;tools/activity/4018437827114967403 -->
<g id="node6" class="node">
<title>http://purl.org/dj/kaggle/rare&#45;visualization&#45;tools/activity/4018437827114967403</title>
<ellipse fill="none" stroke="black" cx="746.08" cy="-279" rx="148.67" ry="18"/>
<text text-anchor="middle" x="746.08" y="-275.3" font-family="Times,serif" font-size="14.00">4018437827114967403 (Visualisation)</text>
</g>
<!-- http://purl.org/dj/kaggle/rare&#45;visualization&#45;tools/activity/1546614399463834700&#45;&gt;http://purl.org/dj/kaggle/rare&#45;visualization&#45;tools/activity/4018437827114967403 -->
<g id="edge6" class="edge">
<title>http://purl.org/dj/kaggle/rare&#45;visualization&#45;tools/activity/1546614399463834700&#45;&gt;http://purl.org/dj/kaggle/rare&#45;visualization&#45;tools/activity/4018437827114967403</title>
<path fill="none" stroke="black" d="M577.03,-786.05C607.21,-776.22 639.74,-759.68 658.08,-732 715.74,-645.01 646.08,-601.86 646.08,-497.5 646.08,-497.5 646.08,-497.5 646.08,-365 646.08,-336.18 670.49,-315.09 695.18,-301.13"/>
<polygon fill="black" stroke="black" points="697.07,-304.09 704.25,-296.31 693.78,-297.91 697.07,-304.09"/>
<text text-anchor="middle" x="676.58" y="-536.3" font-family="Times,serif" font-size="14.00">previous</text>
</g>
<!-- http://purl.org/dj/kaggle/rare&#45;visualization&#45;tools -->
<g id="node7" class="node">
<title>http://purl.org/dj/kaggle/rare&#45;visualization&#45;tools</title>
<ellipse fill="none" stroke="black" cx="204.08" cy="-18" rx="204.16" ry="18"/>
<text text-anchor="middle" x="204.08" y="-14.3" font-family="Times,serif" font-size="14.00">rare&#45;visualization&#45;tools (rare&#45;visualization&#45;tools.ipynb)</text>
</g>
<!-- http://purl.org/dj/kaggle/rare&#45;visualization&#45;tools/activity/1546614399463834700&#45;&gt;http://purl.org/dj/kaggle/rare&#45;visualization&#45;tools -->
<g id="edge7" class="edge">
<title>http://purl.org/dj/kaggle/rare&#45;visualization&#45;tools/activity/1546614399463834700&#45;&gt;http://purl.org/dj/kaggle/rare&#45;visualization&#45;tools</title>
<path fill="none" stroke="black" d="M399.97,-791.78C307.3,-781.63 188.08,-759.85 188.08,-715 188.08,-715 188.08,-715 188.08,-104 188.08,-84.41 192.24,-62.72 196.31,-46.15"/>
<polygon fill="black" stroke="black" points="199.8,-46.64 198.93,-36.08 193.03,-44.88 199.8,-46.64"/>
<text text-anchor="middle" x="211.58" y="-405.8" font-family="Times,serif" font-size="14.00">previous</text>
</g>
<!-- http://purl.org/dj/kaggle/rare&#45;visualization&#45;tools/activity/&#45;450669962290669388 -->
<g id="node8" class="node">
<title>http://purl.org/dj/kaggle/rare&#45;visualization&#45;tools/activity/&#45;450669962290669388</title>
<ellipse fill="none" stroke="black" cx="507.08" cy="-714" rx="141.88" ry="18"/>
<text text-anchor="middle" x="507.08" y="-710.3" font-family="Times,serif" font-size="14.00">&#45;450669962290669388 (Preparation)</text>
</g>
<!-- http://purl.org/dj/kaggle/rare&#45;visualization&#45;tools/activity/1546614399463834700&#45;&gt;http://purl.org/dj/kaggle/rare&#45;visualization&#45;tools/activity/&#45;450669962290669388 -->
<g id="edge8" class="edge">
<title>http://purl.org/dj/kaggle/rare&#45;visualization&#45;tools/activity/1546614399463834700&#45;&gt;http://purl.org/dj/kaggle/rare&#45;visualization&#45;tools/activity/&#45;450669962290669388</title>
<path fill="none" stroke="black" d="M514.82,-782.9C516.97,-777.31 519,-771 520.08,-765 521.46,-757.35 520.41,-749.16 518.43,-741.66"/>
<polygon fill="black" stroke="black" points="521.7,-740.41 515.28,-731.98 515.05,-742.57 521.7,-740.41"/>
<text text-anchor="middle" x="543.58" y="-753.8" font-family="Times,serif" font-size="14.00">previous</text>
</g>
<!-- http://purl.org/dj/kaggle/rare&#45;visualization&#45;tools/activity/4890572056698266371&#45;&gt;http://purl.org/dj/kaggle/rare&#45;visualization&#45;tools/activity/1546614399463834700 -->
<g id="edge9" class="edge">
<title>http://purl.org/dj/kaggle/rare&#45;visualization&#45;tools/activity/4890572056698266371&#45;&gt;http://purl.org/dj/kaggle/rare&#45;visualization&#45;tools/activity/1546614399463834700</title>
<path fill="none" stroke="black" d="M919.71,-106.72C686.83,-109.81 250.08,-124.47 250.08,-191 250.08,-715 250.08,-715 250.08,-715 250.08,-747.71 274.76,-750.51 304.08,-765 329.54,-777.58 358.73,-785.72 386.89,-790.97"/>
<polygon fill="black" stroke="black" points="386.34,-794.42 396.8,-792.7 387.55,-787.53 386.34,-794.42"/>
<text text-anchor="middle" x="273.58" y="-449.3" font-family="Times,serif" font-size="14.00">previous</text>
</g>
<!-- http://purl.org/dj/kaggle/rare&#45;visualization&#45;tools/activity/4890572056698266371&#45;&gt;http://purl.org/dj/kaggle/rare&#45;visualization&#45;tools -->
<g id="edge10" class="edge">
<title>http://purl.org/dj/kaggle/rare&#45;visualization&#45;tools/activity/4890572056698266371&#45;&gt;http://purl.org/dj/kaggle/rare&#45;visualization&#45;tools</title>
<path fill="none" stroke="black" d="M953.42,-93.23C798.67,-77.9 514.74,-49.78 344.31,-32.89"/>
<polygon fill="black" stroke="black" points="344.56,-29.4 334.26,-31.9 343.87,-36.37 344.56,-29.4"/>
<text text-anchor="middle" x="707.58" y="-57.8" font-family="Times,serif" font-size="14.00">previous</text>
</g>
<!-- http://purl.org/dj/kaggle/rare&#45;visualization&#45;tools/activity/&#45;7584344760279254007&#45;&gt;http://purl.org/dj/kaggle/rare&#45;visualization&#45;tools/activity/1546614399463834700 -->
<g id="edge11" class="edge">
<title>http://purl.org/dj/kaggle/rare&#45;visualization&#45;tools/activity/&#45;7584344760279254007&#45;&gt;http://purl.org/dj/kaggle/rare&#45;visualization&#45;tools/activity/1546614399463834700</title>
<path fill="none" stroke="black" d="M1064.34,-471.22C1066.38,-488.37 1069.08,-515.46 1069.08,-539 1069.08,-715 1069.08,-715 1069.08,-715 1069.08,-758.92 797.31,-782.86 631.74,-793.37"/>
<polygon fill="black" stroke="black" points="631.25,-789.89 621.49,-794.01 631.69,-796.88 631.25,-789.89"/>
<text text-anchor="middle" x="1092.58" y="-623.3" font-family="Times,serif" font-size="14.00">previous</text>
</g>
<!-- http://purl.org/dj/kaggle/rare&#45;visualization&#45;tools/activity/&#45;7584344760279254007&#45;&gt;http://purl.org/dj/kaggle/rare&#45;visualization&#45;tools/activity/4890572056698266371 -->
<g id="edge12" class="edge">
<title>http://purl.org/dj/kaggle/rare&#45;visualization&#45;tools/activity/&#45;7584344760279254007&#45;&gt;http://purl.org/dj/kaggle/rare&#45;visualization&#45;tools/activity/4890572056698266371</title>
<path fill="none" stroke="black" d="M1062.08,-434.74C1062.08,-417.57 1062.08,-390.46 1062.08,-367 1062.08,-367 1062.08,-367 1062.08,-191 1062.08,-171.75 1062.08,-150.05 1062.08,-133.4"/>
<polygon fill="black" stroke="black" points="1065.58,-133.26 1062.08,-123.26 1058.58,-133.26 1065.58,-133.26"/>
<text text-anchor="middle" x="1085.58" y="-275.3" font-family="Times,serif" font-size="14.00">previous</text>
</g>
<!-- http://purl.org/dj/kaggle/rare&#45;visualization&#45;tools/activity/2254946945128033773 -->
<g id="node9" class="node">
<title>http://purl.org/dj/kaggle/rare&#45;visualization&#45;tools/activity/2254946945128033773</title>
<ellipse fill="none" stroke="black" cx="882.08" cy="-192" rx="124.28" ry="18"/>
<text text-anchor="middle" x="882.08" y="-188.3" font-family="Times,serif" font-size="14.00">2254946945128033773 (Reuse)</text>
</g>
<!-- http://purl.org/dj/kaggle/rare&#45;visualization&#45;tools/activity/4018437827114967403&#45;&gt;http://purl.org/dj/kaggle/rare&#45;visualization&#45;tools/activity/2254946945128033773 -->
<g id="edge13" class="edge">
<title>http://purl.org/dj/kaggle/rare&#45;visualization&#45;tools/activity/4018437827114967403&#45;&gt;http://purl.org/dj/kaggle/rare&#45;visualization&#45;tools/activity/2254946945128033773</title>
<path fill="none" stroke="black" d="M772.95,-261.21C794.09,-247.99 823.73,-229.47 846.79,-215.06"/>
<polygon fill="black" stroke="black" points="848.64,-218.03 855.27,-209.76 844.93,-212.09 848.64,-218.03"/>
<text text-anchor="middle" x="845.58" y="-231.8" font-family="Times,serif" font-size="14.00">previous</text>
</g>
<!-- http://purl.org/dj/kaggle/rare&#45;visualization&#45;tools/activity/&#45;450669962290669388&#45;&gt;http://purl.org/dj/kaggle/rare&#45;visualization&#45;tools/activity/1546614399463834700 -->
<g id="edge14" class="edge">
<title>http://purl.org/dj/kaggle/rare&#45;visualization&#45;tools/activity/&#45;450669962290669388&#45;&gt;http://purl.org/dj/kaggle/rare&#45;visualization&#45;tools/activity/1546614399463834700</title>
<path fill="none" stroke="black" d="M482.77,-731.82C477.24,-736.96 472.11,-743.1 469.08,-750 465.08,-759.14 468.79,-768.13 475.21,-775.91"/>
<polygon fill="black" stroke="black" points="472.87,-778.53 482.36,-783.26 477.89,-773.65 472.87,-778.53"/>
<text text-anchor="middle" x="492.58" y="-753.8" font-family="Times,serif" font-size="14.00">previous</text>
</g>
<!-- http://purl.org/dj/kaggle/rare&#45;visualization&#45;tools/activity/822218929329090567 -->
<g id="node10" class="node">
<title>http://purl.org/dj/kaggle/rare&#45;visualization&#45;tools/activity/822218929329090567</title>
<ellipse fill="none" stroke="black" cx="507.08" cy="-627" rx="144.07" ry="18"/>
<text text-anchor="middle" x="507.08" y="-623.3" font-family="Times,serif" font-size="14.00">822218929329090567 (Visualisation)</text>
</g>
<!-- http://purl.org/dj/kaggle/rare&#45;visualization&#45;tools/activity/&#45;450669962290669388&#45;&gt;http://purl.org/dj/kaggle/rare&#45;visualization&#45;tools/activity/822218929329090567 -->
<g id="edge15" class="edge">
<title>http://purl.org/dj/kaggle/rare&#45;visualization&#45;tools/activity/&#45;450669962290669388&#45;&gt;http://purl.org/dj/kaggle/rare&#45;visualization&#45;tools/activity/822218929329090567</title>
<path fill="none" stroke="black" d="M507.08,-695.8C507.08,-684.16 507.08,-668.55 507.08,-655.24"/>
<polygon fill="black" stroke="black" points="510.58,-655.18 507.08,-645.18 503.58,-655.18 510.58,-655.18"/>
<text text-anchor="middle" x="530.58" y="-666.8" font-family="Times,serif" font-size="14.00">previous</text>
</g>
<!-- http://purl.org/dj/kaggle/rare&#45;visualization&#45;tools/activity/2254946945128033773&#45;&gt;http://purl.org/dj/kaggle/rare&#45;visualization&#45;tools/activity/4890572056698266371 -->
<g id="edge16" class="edge">
<title>http://purl.org/dj/kaggle/rare&#45;visualization&#45;tools/activity/2254946945128033773&#45;&gt;http://purl.org/dj/kaggle/rare&#45;visualization&#45;tools/activity/4890572056698266371</title>
<path fill="none" stroke="black" d="M916.79,-174.61C945.58,-161.01 986.7,-141.6 1017.85,-126.89"/>
<polygon fill="black" stroke="black" points="1019.63,-129.92 1027.18,-122.48 1016.64,-123.59 1019.63,-129.92"/>
<text text-anchor="middle" x="1005.58" y="-144.8" font-family="Times,serif" font-size="14.00">previous</text>
</g>
<!-- http://purl.org/dj/kaggle/rare&#45;visualization&#45;tools/activity/6797456508068397021 -->
<g id="node14" class="node">
<title>http://purl.org/dj/kaggle/rare&#45;visualization&#45;tools/activity/6797456508068397021</title>
<ellipse fill="none" stroke="black" cx="467.08" cy="-540" rx="142.97" ry="18"/>
<text text-anchor="middle" x="467.08" y="-536.3" font-family="Times,serif" font-size="14.00">6797456508068397021 (Preparation)</text>
</g>
<!-- http://purl.org/dj/kaggle/rare&#45;visualization&#45;tools/activity/822218929329090567&#45;&gt;http://purl.org/dj/kaggle/rare&#45;visualization&#45;tools/activity/6797456508068397021 -->
<g id="edge37" class="edge">
<title>http://purl.org/dj/kaggle/rare&#45;visualization&#45;tools/activity/822218929329090567&#45;&gt;http://purl.org/dj/kaggle/rare&#45;visualization&#45;tools/activity/6797456508068397021</title>
<path fill="none" stroke="black" d="M498.99,-608.8C493.4,-596.93 485.87,-580.93 479.53,-567.45"/>
<polygon fill="black" stroke="black" points="482.59,-565.73 475.16,-558.18 476.26,-568.71 482.59,-565.73"/>
<text text-anchor="middle" x="512.58" y="-579.8" font-family="Times,serif" font-size="14.00">previous</text>
</g>
<!-- http://purl.org/dj/kaggle/rare&#45;visualization&#45;tools/activity/&#45;1423569392654387433 -->
<g id="node16" class="node">
<title>http://purl.org/dj/kaggle/rare&#45;visualization&#45;tools/activity/&#45;1423569392654387433</title>
<ellipse fill="none" stroke="black" cx="857.08" cy="-540" rx="145.67" ry="18"/>
<text text-anchor="middle" x="857.08" y="-536.3" font-family="Times,serif" font-size="14.00">&#45;1423569392654387433 (Preparation)</text>
</g>
<!-- http://purl.org/dj/kaggle/rare&#45;visualization&#45;tools/activity/822218929329090567&#45;&gt;http://purl.org/dj/kaggle/rare&#45;visualization&#45;tools/activity/&#45;1423569392654387433 -->
<g id="edge38" class="edge">
<title>http://purl.org/dj/kaggle/rare&#45;visualization&#45;tools/activity/822218929329090567&#45;&gt;http://purl.org/dj/kaggle/rare&#45;visualization&#45;tools/activity/&#45;1423569392654387433</title>
<path fill="none" stroke="black" d="M550.22,-609.72C579.93,-598.98 620.49,-585.25 657.08,-576 688.85,-567.97 723.91,-561.16 755.68,-555.74"/>
<polygon fill="black" stroke="black" points="756.6,-559.14 765.88,-554.03 755.44,-552.23 756.6,-559.14"/>
<text text-anchor="middle" x="680.58" y="-579.8" font-family="Times,serif" font-size="14.00">previous</text>
</g>
<!-- http://purl.org/dj/kaggle/rare&#45;visualization&#45;tools/activity/&#45;8677938243769136971 -->
<g id="node11" class="node">
<title>http://purl.org/dj/kaggle/rare&#45;visualization&#45;tools/activity/&#45;8677938243769136971</title>
<ellipse fill="none" stroke="black" cx="1131.08" cy="-888" rx="151.37" ry="18"/>
<text text-anchor="middle" x="1131.08" y="-884.3" font-family="Times,serif" font-size="14.00">&#45;8677938243769136971 (Visualisation)</text>
</g>
<!-- http://purl.org/dj/kaggle/rare&#45;visualization&#45;tools/activity/&#45;8677938243769136971&#45;&gt;http://purl.org/dj/kaggle/rare&#45;visualization&#45;tools/activity/1546614399463834700 -->
<g id="edge17" class="edge">
<title>http://purl.org/dj/kaggle/rare&#45;visualization&#45;tools/activity/&#45;8677938243769136971&#45;&gt;http://purl.org/dj/kaggle/rare&#45;visualization&#45;tools/activity/1546614399463834700</title>
<path fill="none" stroke="black" d="M1077.13,-871.15C1036.72,-859.89 979.88,-845.34 929.08,-837 831.14,-820.92 719.13,-812.07 635.13,-807.29"/>
<polygon fill="black" stroke="black" points="635.21,-803.79 625.03,-806.73 634.82,-810.78 635.21,-803.79"/>
<text text-anchor="middle" x="1024.58" y="-840.8" font-family="Times,serif" font-size="14.00">previous</text>
</g>
<!-- http://purl.org/dj/kaggle/rare&#45;visualization&#45;tools/activity/&#45;8677938243769136971&#45;&gt;http://purl.org/dj/kaggle/rare&#45;visualization&#45;tools/activity/4890572056698266371 -->
<g id="edge18" class="edge">
<title>http://purl.org/dj/kaggle/rare&#45;visualization&#45;tools/activity/&#45;8677938243769136971&#45;&gt;http://purl.org/dj/kaggle/rare&#45;visualization&#45;tools/activity/4890572056698266371</title>
<path fill="none" stroke="black" d="M1174.76,-870.74C1202.84,-857.16 1234.08,-834.69 1234.08,-802 1234.08,-802 1234.08,-802 1234.08,-191 1234.08,-154.31 1202.24,-133.46 1165.95,-121.6"/>
<polygon fill="black" stroke="black" points="1166.72,-118.18 1156.13,-118.64 1164.69,-124.88 1166.72,-118.18"/>
<text text-anchor="middle" x="1257.58" y="-492.8" font-family="Times,serif" font-size="14.00">previous</text>
</g>
<!-- http://purl.org/dj/kaggle/rare&#45;visualization&#45;tools/activity/&#45;5231598407315514106 -->
<g id="node12" class="node">
<title>http://purl.org/dj/kaggle/rare&#45;visualization&#45;tools/activity/&#45;5231598407315514106</title>
<ellipse fill="none" stroke="black" cx="480.08" cy="-453" rx="126.98" ry="18"/>
<text text-anchor="middle" x="480.08" y="-449.3" font-family="Times,serif" font-size="14.00">&#45;5231598407315514106 (Reuse)</text>
</g>
<!-- http://purl.org/dj/kaggle/rare&#45;visualization&#45;tools/activity/&#45;2995848476751380036 -->
<g id="node13" class="node">
<title>http://purl.org/dj/kaggle/rare&#45;visualization&#45;tools/activity/&#45;2995848476751380036</title>
<ellipse fill="none" stroke="black" cx="472.08" cy="-366" rx="145.67" ry="18"/>
<text text-anchor="middle" x="472.08" y="-362.3" font-family="Times,serif" font-size="14.00">&#45;2995848476751380036 (Preparation)</text>
</g>
<!-- http://purl.org/dj/kaggle/rare&#45;visualization&#45;tools/activity/&#45;5231598407315514106&#45;&gt;http://purl.org/dj/kaggle/rare&#45;visualization&#45;tools/activity/&#45;2995848476751380036 -->
<g id="edge19" class="edge">
<title>http://purl.org/dj/kaggle/rare&#45;visualization&#45;tools/activity/&#45;5231598407315514106&#45;&gt;http://purl.org/dj/kaggle/rare&#45;visualization&#45;tools/activity/&#45;2995848476751380036</title>
<path fill="none" stroke="black" d="M478.46,-434.8C477.37,-423.16 475.9,-407.55 474.65,-394.24"/>
<polygon fill="black" stroke="black" points="478.12,-393.8 473.7,-384.18 471.15,-394.46 478.12,-393.8"/>
<text text-anchor="middle" x="499.58" y="-405.8" font-family="Times,serif" font-size="14.00">previous</text>
</g>
<!-- http://purl.org/dj/kaggle/rare&#45;visualization&#45;tools/activity/&#45;2995848476751380036&#45;&gt;http://purl.org/dj/kaggle/rare&#45;visualization&#45;tools/activity/1546614399463834700 -->
<g id="edge20" class="edge">
<title>http://purl.org/dj/kaggle/rare&#45;visualization&#45;tools/activity/&#45;2995848476751380036&#45;&gt;http://purl.org/dj/kaggle/rare&#45;visualization&#45;tools/activity/1546614399463834700</title>
<path fill="none" stroke="black" d="M422.74,-382.94C396.14,-393.81 364.64,-410.7 344.08,-435 337.36,-442.94 296.08,-567.14 296.08,-582.5 296.08,-715 296.08,-715 296.08,-715 296.08,-759.61 337.17,-781.4 383.08,-791.83"/>
<polygon fill="black" stroke="black" points="382.43,-795.27 392.94,-793.88 383.86,-788.42 382.43,-795.27"/>
<text text-anchor="middle" x="319.58" y="-579.8" font-family="Times,serif" font-size="14.00">previous</text>
</g>
<!-- http://purl.org/dj/kaggle/rare&#45;visualization&#45;tools/activity/&#45;2995848476751380036&#45;&gt;http://purl.org/dj/kaggle/rare&#45;visualization&#45;tools/activity/4018437827114967403 -->
<g id="edge21" class="edge">
<title>http://purl.org/dj/kaggle/rare&#45;visualization&#45;tools/activity/&#45;2995848476751380036&#45;&gt;http://purl.org/dj/kaggle/rare&#45;visualization&#45;tools/activity/4018437827114967403</title>
<path fill="none" stroke="black" d="M505.01,-348.3C527.19,-337.59 557.34,-324.05 585.08,-315 607.57,-307.66 632.32,-301.42 655.54,-296.32"/>
<polygon fill="black" stroke="black" points="656.34,-299.73 665.38,-294.2 654.87,-292.88 656.34,-299.73"/>
<text text-anchor="middle" x="608.58" y="-318.8" font-family="Times,serif" font-size="14.00">previous</text>
</g>
<!-- http://purl.org/dj/kaggle/rare&#45;visualization&#45;tools/activity/6797456508068397021&#45;&gt;http://purl.org/dj/kaggle/rare&#45;visualization&#45;tools/activity/1546614399463834700 -->
<g id="edge22" class="edge">
<title>http://purl.org/dj/kaggle/rare&#45;visualization&#45;tools/activity/6797456508068397021&#45;&gt;http://purl.org/dj/kaggle/rare&#45;visualization&#45;tools/activity/1546614399463834700</title>
<path fill="none" stroke="black" d="M418.79,-557.01C394.79,-567.69 368,-584.38 354.08,-609 327.18,-656.59 325.88,-686.43 356.08,-732 372.49,-756.76 400.25,-772.61 427.53,-782.71"/>
<polygon fill="black" stroke="black" points="426.54,-786.07 437.14,-786.05 428.84,-779.46 426.54,-786.07"/>
<text text-anchor="middle" x="357.58" y="-666.8" font-family="Times,serif" font-size="14.00">previous</text>
</g>
<!-- http://purl.org/dj/kaggle/rare&#45;visualization&#45;tools/activity/6797456508068397021&#45;&gt;http://purl.org/dj/kaggle/rare&#45;visualization&#45;tools/activity/&#45;5231598407315514106 -->
<g id="edge23" class="edge">
<title>http://purl.org/dj/kaggle/rare&#45;visualization&#45;tools/activity/6797456508068397021&#45;&gt;http://purl.org/dj/kaggle/rare&#45;visualization&#45;tools/activity/&#45;5231598407315514106</title>
<path fill="none" stroke="black" d="M469.71,-521.8C471.49,-510.16 473.88,-494.55 475.92,-481.24"/>
<polygon fill="black" stroke="black" points="479.4,-481.59 477.46,-471.18 472.48,-480.53 479.4,-481.59"/>
<text text-anchor="middle" x="497.58" y="-492.8" font-family="Times,serif" font-size="14.00">previous</text>
</g>
<!-- http://purl.org/dj/kaggle/rare&#45;visualization&#45;tools/activity/5252581627837905124 -->
<g id="node15" class="node">
<title>http://purl.org/dj/kaggle/rare&#45;visualization&#45;tools/activity/5252581627837905124</title>
<ellipse fill="none" stroke="black" cx="909.08" cy="-627" rx="124.28" ry="18"/>
<text text-anchor="middle" x="909.08" y="-623.3" font-family="Times,serif" font-size="14.00">5252581627837905124 (Reuse)</text>
</g>
<!-- http://purl.org/dj/kaggle/rare&#45;visualization&#45;tools/activity/5252581627837905124&#45;&gt;http://purl.org/dj/kaggle/rare&#45;visualization&#45;tools/activity/4018437827114967403 -->
<g id="edge24" class="edge">
<title>http://purl.org/dj/kaggle/rare&#45;visualization&#45;tools/activity/5252581627837905124&#45;&gt;http://purl.org/dj/kaggle/rare&#45;visualization&#45;tools/activity/4018437827114967403</title>
<path fill="none" stroke="black" d="M951.1,-609.99C973.54,-599.02 999.14,-582.06 1012.08,-558 1019.66,-543.91 1016.88,-537.26 1012.08,-522 1006.72,-504.94 1004.31,-498.37 989.08,-489 940.52,-459.13 909.68,-502.38 862.08,-471 802.09,-431.44 768.18,-349.14 754.02,-306.65"/>
<polygon fill="black" stroke="black" points="757.31,-305.45 750.92,-297 750.65,-307.59 757.31,-305.45"/>
<text text-anchor="middle" x="885.58" y="-449.3" font-family="Times,serif" font-size="14.00">previous</text>
</g>
<!-- http://purl.org/dj/kaggle/rare&#45;visualization&#45;tools/activity/5252581627837905124&#45;&gt;http://purl.org/dj/kaggle/rare&#45;visualization&#45;tools/activity/&#45;1423569392654387433 -->
<g id="edge25" class="edge">
<title>http://purl.org/dj/kaggle/rare&#45;visualization&#45;tools/activity/5252581627837905124&#45;&gt;http://purl.org/dj/kaggle/rare&#45;visualization&#45;tools/activity/&#45;1423569392654387433</title>
<path fill="none" stroke="black" d="M898.56,-608.8C891.23,-596.82 881.32,-580.62 873.02,-567.06"/>
<polygon fill="black" stroke="black" points="875.79,-564.88 867.59,-558.18 869.82,-568.53 875.79,-564.88"/>
<text text-anchor="middle" x="909.58" y="-579.8" font-family="Times,serif" font-size="14.00">previous</text>
</g>
<!-- http://purl.org/dj/kaggle/rare&#45;visualization&#45;tools/activity/&#45;1423569392654387433&#45;&gt;http://purl.org/dj/kaggle/rare&#45;visualization&#45;tools/activity/1546614399463834700 -->
<g id="edge26" class="edge">
<title>http://purl.org/dj/kaggle/rare&#45;visualization&#45;tools/activity/&#45;1423569392654387433&#45;&gt;http://purl.org/dj/kaggle/rare&#45;visualization&#45;tools/activity/1546614399463834700</title>
<path fill="none" stroke="black" d="M775.23,-554.89C763.25,-559.92 751.98,-566.75 743.08,-576 682.86,-638.63 756.71,-705.83 693.08,-765 681.28,-775.98 651.21,-783.68 618.6,-789.01"/>
<polygon fill="black" stroke="black" points="617.77,-785.59 608.42,-790.58 618.84,-792.51 617.77,-785.59"/>
<text text-anchor="middle" x="742.58" y="-666.8" font-family="Times,serif" font-size="14.00">previous</text>
</g>
<!-- http://purl.org/dj/kaggle/rare&#45;visualization&#45;tools/activity/&#45;1423569392654387433&#45;&gt;http://purl.org/dj/kaggle/rare&#45;visualization&#45;tools/activity/&#45;7584344760279254007 -->
<g id="edge27" class="edge">
<title>http://purl.org/dj/kaggle/rare&#45;visualization&#45;tools/activity/&#45;1423569392654387433&#45;&gt;http://purl.org/dj/kaggle/rare&#45;visualization&#45;tools/activity/&#45;7584344760279254007</title>
<path fill="none" stroke="black" d="M896.61,-522.61C929.93,-508.79 977.75,-488.97 1013.42,-474.18"/>
<polygon fill="black" stroke="black" points="1014.78,-477.4 1022.68,-470.34 1012.1,-470.94 1014.78,-477.4"/>
<text text-anchor="middle" x="994.58" y="-492.8" font-family="Times,serif" font-size="14.00">previous</text>
</g>
<!-- http://purl.org/dj/kaggle/rare&#45;visualization&#45;tools/activity/&#45;1423569392654387433&#45;&gt;http://purl.org/dj/kaggle/rare&#45;visualization&#45;tools/activity/&#45;5231598407315514106 -->
<g id="edge28" class="edge">
<title>http://purl.org/dj/kaggle/rare&#45;visualization&#45;tools/activity/&#45;1423569392654387433&#45;&gt;http://purl.org/dj/kaggle/rare&#45;visualization&#45;tools/activity/&#45;5231598407315514106</title>
<path fill="none" stroke="black" d="M790.12,-523.9C723.97,-508.99 623.01,-486.23 554.41,-470.76"/>
<polygon fill="black" stroke="black" points="555.06,-467.32 544.54,-468.53 553.52,-474.15 555.06,-467.32"/>
<text text-anchor="middle" x="714.58" y="-492.8" font-family="Times,serif" font-size="14.00">previous</text>
</g>
<!-- http://purl.org/dj/kaggle/rare&#45;visualization&#45;tools/activity/&#45;903207754425153675 -->
<g id="node17" class="node">
<title>http://purl.org/dj/kaggle/rare&#45;visualization&#45;tools/activity/&#45;903207754425153675</title>
<ellipse fill="none" stroke="black" cx="1050.08" cy="-975" rx="147.57" ry="18"/>
<text text-anchor="middle" x="1050.08" y="-971.3" font-family="Times,serif" font-size="14.00">&#45;903207754425153675 (Visualisation)</text>
</g>
<!-- http://purl.org/dj/kaggle/rare&#45;visualization&#45;tools/activity/&#45;903207754425153675&#45;&gt;http://purl.org/dj/kaggle/rare&#45;visualization&#45;tools/activity/&#45;5677532042320400880 -->
<g id="edge29" class="edge">
<title>http://purl.org/dj/kaggle/rare&#45;visualization&#45;tools/activity/&#45;903207754425153675&#45;&gt;http://purl.org/dj/kaggle/rare&#45;visualization&#45;tools/activity/&#45;5677532042320400880</title>
<path fill="none" stroke="black" d="M991.94,-958.41C938.07,-943.96 857.92,-922.47 801.1,-907.24"/>
<polygon fill="black" stroke="black" points="801.69,-903.77 791.12,-904.56 799.88,-910.53 801.69,-903.77"/>
<text text-anchor="middle" x="933.58" y="-927.8" font-family="Times,serif" font-size="14.00">previous</text>
</g>
<!-- http://purl.org/dj/kaggle/rare&#45;visualization&#45;tools/activity/&#45;903207754425153675&#45;&gt;http://purl.org/dj/kaggle/rare&#45;visualization&#45;tools/activity/1546614399463834700 -->
<g id="edge30" class="edge">
<title>http://purl.org/dj/kaggle/rare&#45;visualization&#45;tools/activity/&#45;903207754425153675&#45;&gt;http://purl.org/dj/kaggle/rare&#45;visualization&#45;tools/activity/1546614399463834700</title>
<path fill="none" stroke="black" d="M1021.06,-957.12C1003.78,-947.22 981.34,-934.6 961.08,-924 944.88,-915.52 938.98,-916.61 924.08,-906 905.65,-892.87 908.14,-880.47 888.08,-870 811.12,-829.84 714.8,-812.89 638.26,-805.96"/>
<polygon fill="black" stroke="black" points="638.34,-802.45 628.08,-805.09 637.74,-809.43 638.34,-802.45"/>
<text text-anchor="middle" x="947.58" y="-884.3" font-family="Times,serif" font-size="14.00">previous</text>
</g>
<!-- http://purl.org/dj/kaggle/rare&#45;visualization&#45;tools/activity/&#45;903207754425153675&#45;&gt;http://purl.org/dj/kaggle/rare&#45;visualization&#45;tools/activity/4890572056698266371 -->
<g id="edge31" class="edge">
<title>http://purl.org/dj/kaggle/rare&#45;visualization&#45;tools/activity/&#45;903207754425153675&#45;&gt;http://purl.org/dj/kaggle/rare&#45;visualization&#45;tools/activity/4890572056698266371</title>
<path fill="none" stroke="black" d="M1181.77,-966.84C1282.8,-957.61 1405.08,-936.61 1405.08,-889 1405.08,-889 1405.08,-889 1405.08,-191 1405.08,-146.19 1293.4,-124.84 1197.49,-114.77"/>
<polygon fill="black" stroke="black" points="1197.67,-111.27 1187.37,-113.74 1196.96,-118.24 1197.67,-111.27"/>
<text text-anchor="middle" x="1428.58" y="-536.3" font-family="Times,serif" font-size="14.00">previous</text>
</g>
<!-- http://purl.org/dj/kaggle/rare&#45;visualization&#45;tools/activity/&#45;903207754425153675&#45;&gt;http://purl.org/dj/kaggle/rare&#45;visualization&#45;tools/activity/&#45;1423569392654387433 -->
<g id="edge32" class="edge">
<title>http://purl.org/dj/kaggle/rare&#45;visualization&#45;tools/activity/&#45;903207754425153675&#45;&gt;http://purl.org/dj/kaggle/rare&#45;visualization&#45;tools/activity/&#45;1423569392654387433</title>
<path fill="none" stroke="black" d="M1151.58,-961.92C1220.39,-951.4 1302.6,-933.46 1324.08,-906 1342.98,-881.84 1334.62,-865.8 1324.08,-837 1289.3,-741.93 1267.93,-707.68 1177.08,-663 1137.06,-643.32 806.9,-677.24 776.08,-645 750.97,-618.73 788.18,-585.03 820.06,-563.23"/>
<polygon fill="black" stroke="black" points="822.03,-566.12 828.43,-557.68 818.16,-560.29 822.03,-566.12"/>
<text text-anchor="middle" x="1316.58" y="-753.8" font-family="Times,serif" font-size="14.00">previous</text>
</g>
<!-- http://purl.org/dj/kaggle/rare&#45;visualization&#45;tools/activity/&#45;260324608898186962 -->
<g id="node18" class="node">
<title>http://purl.org/dj/kaggle/rare&#45;visualization&#45;tools/activity/&#45;260324608898186962</title>
<ellipse fill="none" stroke="black" cx="1050.08" cy="-1062" rx="141.88" ry="18"/>
<text text-anchor="middle" x="1050.08" y="-1058.3" font-family="Times,serif" font-size="14.00">&#45;260324608898186962 (Preparation)</text>
</g>
<!-- http://purl.org/dj/kaggle/rare&#45;visualization&#45;tools/activity/&#45;260324608898186962&#45;&gt;http://purl.org/dj/kaggle/rare&#45;visualization&#45;tools/activity/&#45;903207754425153675 -->
<g id="edge33" class="edge">
<title>http://purl.org/dj/kaggle/rare&#45;visualization&#45;tools/activity/&#45;260324608898186962&#45;&gt;http://purl.org/dj/kaggle/rare&#45;visualization&#45;tools/activity/&#45;903207754425153675</title>
<path fill="none" stroke="black" d="M1050.08,-1043.8C1050.08,-1032.16 1050.08,-1016.55 1050.08,-1003.24"/>
<polygon fill="black" stroke="black" points="1053.58,-1003.18 1050.08,-993.18 1046.58,-1003.18 1053.58,-1003.18"/>
<text text-anchor="middle" x="1073.58" y="-1014.8" font-family="Times,serif" font-size="14.00">previous</text>
</g>
<!-- http://purl.org/dj/kaggle/rare&#45;visualization&#45;tools/activity/6706759777017285855 -->
<g id="node19" class="node">
<title>http://purl.org/dj/kaggle/rare&#45;visualization&#45;tools/activity/6706759777017285855</title>
<ellipse fill="none" stroke="black" cx="744.08" cy="-1062" rx="142.97" ry="18"/>
<text text-anchor="middle" x="744.08" y="-1058.3" font-family="Times,serif" font-size="14.00">6706759777017285855 (Preparation)</text>
</g>
<!-- http://purl.org/dj/kaggle/rare&#45;visualization&#45;tools/activity/6706759777017285855&#45;&gt;http://purl.org/dj/kaggle/rare&#45;visualization&#45;tools/activity/&#45;8480734213619780508 -->
<g id="edge34" class="edge">
<title>http://purl.org/dj/kaggle/rare&#45;visualization&#45;tools/activity/6706759777017285855&#45;&gt;http://purl.org/dj/kaggle/rare&#45;visualization&#45;tools/activity/&#45;8480734213619780508</title>
<path fill="none" stroke="black" d="M741.86,-1043.8C740.35,-1032.16 738.33,-1016.55 736.61,-1003.24"/>
<polygon fill="black" stroke="black" points="740.06,-1002.64 735.3,-993.18 733.12,-1003.54 740.06,-1002.64"/>
<text text-anchor="middle" x="762.58" y="-1014.8" font-family="Times,serif" font-size="14.00">previous</text>
</g>
<!-- http://purl.org/dj/kaggle/rare&#45;visualization&#45;tools/activity/6706759777017285855&#45;&gt;http://purl.org/dj/kaggle/rare&#45;visualization&#45;tools/activity/&#45;903207754425153675 -->
<g id="edge35" class="edge">
<title>http://purl.org/dj/kaggle/rare&#45;visualization&#45;tools/activity/6706759777017285855&#45;&gt;http://purl.org/dj/kaggle/rare&#45;visualization&#45;tools/activity/&#45;903207754425153675</title>
<path fill="none" stroke="black" d="M800.21,-1045.41C851.94,-1031.04 928.78,-1009.7 983.57,-994.47"/>
<polygon fill="black" stroke="black" points="984.84,-997.76 993.54,-991.71 982.96,-991.01 984.84,-997.76"/>
<text text-anchor="middle" x="938.58" y="-1014.8" font-family="Times,serif" font-size="14.00">previous</text>
</g>
<!-- http://purl.org/dj/kaggle/rare&#45;visualization&#45;tools/activity/&#45;5955247539861925490 -->
<g id="node20" class="node">
<title>http://purl.org/dj/kaggle/rare&#45;visualization&#45;tools/activity/&#45;5955247539861925490</title>
<ellipse fill="none" stroke="black" cx="424.08" cy="-888" rx="145.67" ry="18"/>
<text text-anchor="middle" x="424.08" y="-884.3" font-family="Times,serif" font-size="14.00">&#45;5955247539861925490 (Preparation)</text>
</g>
<!-- http://purl.org/dj/kaggle/rare&#45;visualization&#45;tools/activity/&#45;5955247539861925490&#45;&gt;http://purl.org/dj/kaggle/rare&#45;visualization&#45;tools/activity/1546614399463834700 -->
<g id="edge36" class="edge">
<title>http://purl.org/dj/kaggle/rare&#45;visualization&#45;tools/activity/&#45;5955247539861925490&#45;&gt;http://purl.org/dj/kaggle/rare&#45;visualization&#45;tools/activity/1546614399463834700</title>
<path fill="none" stroke="black" d="M440.88,-869.8C453.11,-857.27 469.84,-840.14 483.42,-826.23"/>
<polygon fill="black" stroke="black" points="486.11,-828.49 490.59,-818.89 481.1,-823.59 486.11,-828.49"/>
<text text-anchor="middle" x="493.58" y="-840.8" font-family="Times,serif" font-size="14.00">previous</text>
</g>
</g>
</svg>
