<?xml version="1.0" encoding="UTF-8" standalone="no"?>
<!DOCTYPE svg PUBLIC "-//W3C//DTD SVG 1.1//EN"
 "http://www.w3.org/Graphics/SVG/1.1/DTD/svg11.dtd">
<!-- Generated by graphviz version 2.47.1 (20210417.1919)
 -->
<!-- Pages: 1 -->
<svg width="2209pt" height="587pt"
 viewBox="0.00 0.00 2209.28 587.00" xmlns="http://www.w3.org/2000/svg" xmlns:xlink="http://www.w3.org/1999/xlink">
<g id="graph0" class="graph" transform="scale(1 1) rotate(0) translate(4 583)">
<polygon fill="white" stroke="transparent" points="-4,4 -4,-583 2205.28,-583 2205.28,4 -4,4"/>
<!-- http://purl.org/dj/kaggle/reconstruction&#45;of&#45;ps&#45;reg&#45;03/activity/&#45;963057662063636223 -->
<g id="node1" class="node">
<title>http://purl.org/dj/kaggle/reconstruction&#45;of&#45;ps&#45;reg&#45;03/activity/&#45;963057662063636223</title>
<ellipse fill="none" stroke="black" cx="1916.28" cy="-192" rx="147.57" ry="18"/>
<text text-anchor="middle" x="1916.28" y="-188.3" font-family="Times,serif" font-size="14.00">&#45;963057662063636223 (Visualisation)</text>
</g>
<!-- http://purl.org/dj/kaggle/reconstruction&#45;of&#45;ps&#45;reg&#45;03/activity/&#45;6359866928118986117 -->
<g id="node2" class="node">
<title>http://purl.org/dj/kaggle/reconstruction&#45;of&#45;ps&#45;reg&#45;03/activity/&#45;6359866928118986117</title>
<ellipse fill="none" stroke="black" cx="1312.28" cy="-105" rx="126.98" ry="18"/>
<text text-anchor="middle" x="1312.28" y="-101.3" font-family="Times,serif" font-size="14.00">&#45;6359866928118986117 (Reuse)</text>
</g>
<!-- http://purl.org/dj/kaggle/reconstruction&#45;of&#45;ps&#45;reg&#45;03/activity/&#45;963057662063636223&#45;&gt;http://purl.org/dj/kaggle/reconstruction&#45;of&#45;ps&#45;reg&#45;03/activity/&#45;6359866928118986117 -->
<g id="edge1" class="edge">
<title>http://purl.org/dj/kaggle/reconstruction&#45;of&#45;ps&#45;reg&#45;03/activity/&#45;963057662063636223&#45;&gt;http://purl.org/dj/kaggle/reconstruction&#45;of&#45;ps&#45;reg&#45;03/activity/&#45;6359866928118986117</title>
<path fill="none" stroke="black" d="M1872.94,-174.76C1840.68,-163.38 1795.33,-148.86 1754.28,-141 1652.18,-121.45 1534.8,-112.79 1446.68,-108.96"/>
<polygon fill="black" stroke="black" points="1446.76,-105.46 1436.62,-108.54 1446.46,-112.46 1446.76,-105.46"/>
<text text-anchor="middle" x="1835.78" y="-144.8" font-family="Times,serif" font-size="14.00">previous</text>
</g>
<!-- http://purl.org/dj/kaggle/reconstruction&#45;of&#45;ps&#45;reg&#45;03 -->
<g id="node3" class="node">
<title>http://purl.org/dj/kaggle/reconstruction&#45;of&#45;ps&#45;reg&#45;03</title>
<ellipse fill="none" stroke="black" cx="235.28" cy="-18" rx="235.06" ry="18"/>
<text text-anchor="middle" x="235.28" y="-14.3" font-family="Times,serif" font-size="14.00">reconstruction&#45;of&#45;ps&#45;reg&#45;03 (reconstruction&#45;of&#45;ps&#45;reg&#45;03.ipynb)</text>
</g>
<!-- http://purl.org/dj/kaggle/reconstruction&#45;of&#45;ps&#45;reg&#45;03/activity/&#45;6359866928118986117&#45;&gt;http://purl.org/dj/kaggle/reconstruction&#45;of&#45;ps&#45;reg&#45;03 -->
<g id="edge2" class="edge">
<title>http://purl.org/dj/kaggle/reconstruction&#45;of&#45;ps&#45;reg&#45;03/activity/&#45;6359866928118986117&#45;&gt;http://purl.org/dj/kaggle/reconstruction&#45;of&#45;ps&#45;reg&#45;03</title>
<path fill="none" stroke="black" d="M1204.58,-95.5C1016.35,-80.64 626.32,-49.86 402.64,-32.21"/>
<polygon fill="black" stroke="black" points="402.69,-28.7 392.45,-31.4 402.14,-35.68 402.69,-28.7"/>
<text text-anchor="middle" x="861.78" y="-57.8" font-family="Times,serif" font-size="14.00">previous</text>
</g>
<!-- http://purl.org/dj/kaggle/reconstruction&#45;of&#45;ps&#45;reg&#45;03/activity/&#45;3955643111866586088 -->
<g id="node4" class="node">
<title>http://purl.org/dj/kaggle/reconstruction&#45;of&#45;ps&#45;reg&#45;03/activity/&#45;3955643111866586088</title>
<ellipse fill="none" stroke="black" cx="454.28" cy="-192" rx="145.67" ry="18"/>
<text text-anchor="middle" x="454.28" y="-188.3" font-family="Times,serif" font-size="14.00">&#45;3955643111866586088 (Preparation)</text>
</g>
<!-- http://purl.org/dj/kaggle/reconstruction&#45;of&#45;ps&#45;reg&#45;03/activity/&#45;3955643111866586088&#45;&gt;http://purl.org/dj/kaggle/reconstruction&#45;of&#45;ps&#45;reg&#45;03/activity/&#45;6359866928118986117 -->
<g id="edge3" class="edge">
<title>http://purl.org/dj/kaggle/reconstruction&#45;of&#45;ps&#45;reg&#45;03/activity/&#45;3955643111866586088&#45;&gt;http://purl.org/dj/kaggle/reconstruction&#45;of&#45;ps&#45;reg&#45;03/activity/&#45;6359866928118986117</title>
<path fill="none" stroke="black" d="M495.79,-174.64C527.23,-163.04 571.79,-148.29 612.28,-141 717,-122.14 1005.34,-112.71 1177.54,-108.63"/>
<polygon fill="black" stroke="black" points="1177.77,-112.13 1187.69,-108.4 1177.61,-105.13 1177.77,-112.13"/>
<text text-anchor="middle" x="635.78" y="-144.8" font-family="Times,serif" font-size="14.00">previous</text>
</g>
<!-- http://purl.org/dj/kaggle/reconstruction&#45;of&#45;ps&#45;reg&#45;03/activity/&#45;3955643111866586088&#45;&gt;http://purl.org/dj/kaggle/reconstruction&#45;of&#45;ps&#45;reg&#45;03 -->
<g id="edge4" class="edge">
<title>http://purl.org/dj/kaggle/reconstruction&#45;of&#45;ps&#45;reg&#45;03/activity/&#45;3955643111866586088&#45;&gt;http://purl.org/dj/kaggle/reconstruction&#45;of&#45;ps&#45;reg&#45;03</title>
<path fill="none" stroke="black" d="M432.88,-174.19C393.57,-143.32 309.78,-77.51 264.98,-42.33"/>
<polygon fill="black" stroke="black" points="267.11,-39.55 257.09,-36.13 262.79,-45.06 267.11,-39.55"/>
<text text-anchor="middle" x="390.78" y="-101.3" font-family="Times,serif" font-size="14.00">previous</text>
</g>
<!-- http://purl.org/dj/kaggle/reconstruction&#45;of&#45;ps&#45;reg&#45;03/activity/7736927399155568445 -->
<g id="node5" class="node">
<title>http://purl.org/dj/kaggle/reconstruction&#45;of&#45;ps&#45;reg&#45;03/activity/7736927399155568445</title>
<ellipse fill="none" stroke="black" cx="647.28" cy="-387" rx="142.97" ry="18"/>
<text text-anchor="middle" x="647.28" y="-383.3" font-family="Times,serif" font-size="14.00">7736927399155568445 (Preparation)</text>
</g>
<!-- http://purl.org/dj/kaggle/reconstruction&#45;of&#45;ps&#45;reg&#45;03/activity/7736927399155568445&#45;&gt;http://purl.org/dj/kaggle/reconstruction&#45;of&#45;ps&#45;reg&#45;03/activity/&#45;6359866928118986117 -->
<g id="edge5" class="edge">
<title>http://purl.org/dj/kaggle/reconstruction&#45;of&#45;ps&#45;reg&#45;03/activity/7736927399155568445&#45;&gt;http://purl.org/dj/kaggle/reconstruction&#45;of&#45;ps&#45;reg&#45;03/activity/&#45;6359866928118986117</title>
<path fill="none" stroke="black" d="M536.79,-375.54C435.71,-363.41 296.93,-339.42 263.28,-297 235.8,-262.36 281.54,-187.61 299.28,-174 367.16,-121.93 914.76,-109.73 1175.37,-106.87"/>
<polygon fill="black" stroke="black" points="1175.7,-110.37 1185.66,-106.76 1175.63,-103.37 1175.7,-110.37"/>
<text text-anchor="middle" x="287.78" y="-231.8" font-family="Times,serif" font-size="14.00">previous</text>
</g>
<!-- http://purl.org/dj/kaggle/reconstruction&#45;of&#45;ps&#45;reg&#45;03/activity/&#45;6638862490065750443 -->
<g id="node6" class="node">
<title>http://purl.org/dj/kaggle/reconstruction&#45;of&#45;ps&#45;reg&#45;03/activity/&#45;6638862490065750443</title>
<ellipse fill="none" stroke="black" cx="416.28" cy="-279" rx="144.07" ry="18"/>
<text text-anchor="middle" x="416.28" y="-275.3" font-family="Times,serif" font-size="14.00">&#45;6638862490065750443 (Movement)</text>
</g>
<!-- http://purl.org/dj/kaggle/reconstruction&#45;of&#45;ps&#45;reg&#45;03/activity/7736927399155568445&#45;&gt;http://purl.org/dj/kaggle/reconstruction&#45;of&#45;ps&#45;reg&#45;03/activity/&#45;6638862490065750443 -->
<g id="edge6" class="edge">
<title>http://purl.org/dj/kaggle/reconstruction&#45;of&#45;ps&#45;reg&#45;03/activity/7736927399155568445&#45;&gt;http://purl.org/dj/kaggle/reconstruction&#45;of&#45;ps&#45;reg&#45;03/activity/&#45;6638862490065750443</title>
<path fill="none" stroke="black" d="M611.44,-369.55C571.06,-351.03 505.36,-320.88 461.49,-300.75"/>
<polygon fill="black" stroke="black" points="462.75,-297.47 452.2,-296.48 459.83,-303.84 462.75,-297.47"/>
<text text-anchor="middle" x="589.78" y="-329.3" font-family="Times,serif" font-size="14.00">previous</text>
</g>
<!-- http://purl.org/dj/kaggle/reconstruction&#45;of&#45;ps&#45;reg&#45;03/activity/&#45;6638862490065750443&#45;&gt;http://purl.org/dj/kaggle/reconstruction&#45;of&#45;ps&#45;reg&#45;03/activity/&#45;6359866928118986117 -->
<g id="edge7" class="edge">
<title>http://purl.org/dj/kaggle/reconstruction&#45;of&#45;ps&#45;reg&#45;03/activity/&#45;6638862490065750443&#45;&gt;http://purl.org/dj/kaggle/reconstruction&#45;of&#45;ps&#45;reg&#45;03/activity/&#45;6359866928118986117</title>
<path fill="none" stroke="black" d="M467.38,-262.15C565.1,-232.59 785.72,-169.47 976.28,-141 1048.68,-130.18 1130.36,-121.59 1195.06,-115.63"/>
<polygon fill="black" stroke="black" points="1195.65,-119.09 1205.29,-114.7 1195.01,-112.12 1195.65,-119.09"/>
<text text-anchor="middle" x="818.78" y="-188.3" font-family="Times,serif" font-size="14.00">previous</text>
</g>
<!-- http://purl.org/dj/kaggle/reconstruction&#45;of&#45;ps&#45;reg&#45;03/activity/&#45;6638862490065750443&#45;&gt;http://purl.org/dj/kaggle/reconstruction&#45;of&#45;ps&#45;reg&#45;03/activity/&#45;3955643111866586088 -->
<g id="edge8" class="edge">
<title>http://purl.org/dj/kaggle/reconstruction&#45;of&#45;ps&#45;reg&#45;03/activity/&#45;6638862490065750443&#45;&gt;http://purl.org/dj/kaggle/reconstruction&#45;of&#45;ps&#45;reg&#45;03/activity/&#45;3955643111866586088</title>
<path fill="none" stroke="black" d="M423.97,-260.8C429.27,-248.93 436.43,-232.93 442.45,-219.45"/>
<polygon fill="black" stroke="black" points="445.71,-220.73 446.6,-210.18 439.32,-217.88 445.71,-220.73"/>
<text text-anchor="middle" x="461.78" y="-231.8" font-family="Times,serif" font-size="14.00">previous</text>
</g>
<!-- http://purl.org/dj/kaggle/reconstruction&#45;of&#45;ps&#45;reg&#45;03/activity/&#45;6992216235577022025 -->
<g id="node7" class="node">
<title>http://purl.org/dj/kaggle/reconstruction&#45;of&#45;ps&#45;reg&#45;03/activity/&#45;6992216235577022025</title>
<ellipse fill="none" stroke="black" cx="1125.28" cy="-192" rx="145.67" ry="18"/>
<text text-anchor="middle" x="1125.28" y="-188.3" font-family="Times,serif" font-size="14.00">&#45;6992216235577022025 (Preparation)</text>
</g>
<!-- http://purl.org/dj/kaggle/reconstruction&#45;of&#45;ps&#45;reg&#45;03/activity/&#45;6992216235577022025&#45;&gt;http://purl.org/dj/kaggle/reconstruction&#45;of&#45;ps&#45;reg&#45;03/activity/&#45;6359866928118986117 -->
<g id="edge9" class="edge">
<title>http://purl.org/dj/kaggle/reconstruction&#45;of&#45;ps&#45;reg&#45;03/activity/&#45;6992216235577022025&#45;&gt;http://purl.org/dj/kaggle/reconstruction&#45;of&#45;ps&#45;reg&#45;03/activity/&#45;6359866928118986117</title>
<path fill="none" stroke="black" d="M1161.78,-174.41C1191.86,-160.73 1234.68,-141.27 1266.96,-126.6"/>
<polygon fill="black" stroke="black" points="1268.53,-129.73 1276.19,-122.4 1265.64,-123.36 1268.53,-129.73"/>
<text text-anchor="middle" x="1253.78" y="-144.8" font-family="Times,serif" font-size="14.00">previous</text>
</g>
<!-- http://purl.org/dj/kaggle/reconstruction&#45;of&#45;ps&#45;reg&#45;03/activity/&#45;3568468456551857728 -->
<g id="node8" class="node">
<title>http://purl.org/dj/kaggle/reconstruction&#45;of&#45;ps&#45;reg&#45;03/activity/&#45;3568468456551857728</title>
<ellipse fill="none" stroke="black" cx="2026.28" cy="-561" rx="145.67" ry="18"/>
<text text-anchor="middle" x="2026.28" y="-557.3" font-family="Times,serif" font-size="14.00">&#45;3568468456551857728 (Preparation)</text>
</g>
<!-- http://purl.org/dj/kaggle/reconstruction&#45;of&#45;ps&#45;reg&#45;03/activity/&#45;3568468456551857728&#45;&gt;http://purl.org/dj/kaggle/reconstruction&#45;of&#45;ps&#45;reg&#45;03/activity/&#45;6359866928118986117 -->
<g id="edge10" class="edge">
<title>http://purl.org/dj/kaggle/reconstruction&#45;of&#45;ps&#45;reg&#45;03/activity/&#45;3568468456551857728&#45;&gt;http://purl.org/dj/kaggle/reconstruction&#45;of&#45;ps&#45;reg&#45;03/activity/&#45;6359866928118986117</title>
<path fill="none" stroke="black" d="M2086.53,-544.56C2119.73,-532.04 2154.28,-510.48 2154.28,-475 2154.28,-475 2154.28,-475 2154.28,-191 2154.28,-121.02 1687.96,-108.12 1449.38,-106.1"/>
<polygon fill="black" stroke="black" points="1449.27,-102.6 1439.25,-106.02 1449.22,-109.6 1449.27,-102.6"/>
<text text-anchor="middle" x="2177.78" y="-329.3" font-family="Times,serif" font-size="14.00">previous</text>
</g>
<!-- http://purl.org/dj/kaggle/reconstruction&#45;of&#45;ps&#45;reg&#45;03/activity/8778061005683277887 -->
<g id="node9" class="node">
<title>http://purl.org/dj/kaggle/reconstruction&#45;of&#45;ps&#45;reg&#45;03/activity/8778061005683277887</title>
<ellipse fill="none" stroke="black" cx="1400.28" cy="-474" rx="148.67" ry="18"/>
<text text-anchor="middle" x="1400.28" y="-470.3" font-family="Times,serif" font-size="14.00">8778061005683277887 (Visualisation)</text>
</g>
<!-- http://purl.org/dj/kaggle/reconstruction&#45;of&#45;ps&#45;reg&#45;03/activity/&#45;3568468456551857728&#45;&gt;http://purl.org/dj/kaggle/reconstruction&#45;of&#45;ps&#45;reg&#45;03/activity/8778061005683277887 -->
<g id="edge11" class="edge">
<title>http://purl.org/dj/kaggle/reconstruction&#45;of&#45;ps&#45;reg&#45;03/activity/&#45;3568468456551857728&#45;&gt;http://purl.org/dj/kaggle/reconstruction&#45;of&#45;ps&#45;reg&#45;03/activity/8778061005683277887</title>
<path fill="none" stroke="black" d="M1932.22,-547.23C1817.72,-531.68 1624.89,-505.5 1505.54,-489.29"/>
<polygon fill="black" stroke="black" points="1505.68,-485.78 1495.3,-487.9 1504.74,-492.72 1505.68,-485.78"/>
<text text-anchor="middle" x="1773.78" y="-513.8" font-family="Times,serif" font-size="14.00">previous</text>
</g>
<!-- http://purl.org/dj/kaggle/reconstruction&#45;of&#45;ps&#45;reg&#45;03/activity/8778061005683277887&#45;&gt;http://purl.org/dj/kaggle/reconstruction&#45;of&#45;ps&#45;reg&#45;03/activity/&#45;6359866928118986117 -->
<g id="edge12" class="edge">
<title>http://purl.org/dj/kaggle/reconstruction&#45;of&#45;ps&#45;reg&#45;03/activity/8778061005683277887&#45;&gt;http://purl.org/dj/kaggle/reconstruction&#45;of&#45;ps&#45;reg&#45;03/activity/&#45;6359866928118986117</title>
<path fill="none" stroke="black" d="M1547.28,-471.18C1665.01,-466.23 1816.79,-450.81 1856.28,-405 1866.73,-392.88 1864.06,-382.98 1856.28,-369 1848.9,-355.74 1837.56,-362.16 1827.28,-351 1785.67,-305.82 1801.1,-277.16 1764.28,-228 1743.36,-200.07 1735.24,-194.88 1707.28,-174 1683.83,-156.48 1678.12,-150.04 1650.28,-141 1611.6,-128.44 1516.57,-119.26 1437.09,-113.46"/>
<polygon fill="black" stroke="black" points="1437.21,-109.96 1426.98,-112.73 1436.71,-116.94 1437.21,-109.96"/>
<text text-anchor="middle" x="1818.78" y="-275.3" font-family="Times,serif" font-size="14.00">previous</text>
</g>
<!-- http://purl.org/dj/kaggle/reconstruction&#45;of&#45;ps&#45;reg&#45;03/activity/8778061005683277887&#45;&gt;http://purl.org/dj/kaggle/reconstruction&#45;of&#45;ps&#45;reg&#45;03/activity/&#45;3955643111866586088 -->
<g id="edge13" class="edge">
<title>http://purl.org/dj/kaggle/reconstruction&#45;of&#45;ps&#45;reg&#45;03/activity/8778061005683277887&#45;&gt;http://purl.org/dj/kaggle/reconstruction&#45;of&#45;ps&#45;reg&#45;03/activity/&#45;3955643111866586088</title>
<path fill="none" stroke="black" d="M1323.95,-458.49C1137.75,-422.76 670.79,-330.94 607.28,-297 586.76,-286.03 587.85,-275.01 569.28,-261 546.17,-243.57 518.26,-226.97 495.72,-214.54"/>
<polygon fill="black" stroke="black" points="497.2,-211.36 486.74,-209.65 493.85,-217.5 497.2,-211.36"/>
<text text-anchor="middle" x="821.78" y="-329.3" font-family="Times,serif" font-size="14.00">previous</text>
</g>
<!-- http://purl.org/dj/kaggle/reconstruction&#45;of&#45;ps&#45;reg&#45;03/activity/8778061005683277887&#45;&gt;http://purl.org/dj/kaggle/reconstruction&#45;of&#45;ps&#45;reg&#45;03/activity/7736927399155568445 -->
<g id="edge14" class="edge">
<title>http://purl.org/dj/kaggle/reconstruction&#45;of&#45;ps&#45;reg&#45;03/activity/8778061005683277887&#45;&gt;http://purl.org/dj/kaggle/reconstruction&#45;of&#45;ps&#45;reg&#45;03/activity/7736927399155568445</title>
<path fill="none" stroke="black" d="M1278.48,-463.56C1201.49,-457.23 1099.95,-448.19 1010.28,-438 961.06,-432.4 837.37,-415.11 748.04,-402.42"/>
<polygon fill="black" stroke="black" points="748.26,-398.92 737.87,-400.98 747.28,-405.85 748.26,-398.92"/>
<text text-anchor="middle" x="1033.78" y="-426.8" font-family="Times,serif" font-size="14.00">previous</text>
</g>
<!-- http://purl.org/dj/kaggle/reconstruction&#45;of&#45;ps&#45;reg&#45;03/activity/8778061005683277887&#45;&gt;http://purl.org/dj/kaggle/reconstruction&#45;of&#45;ps&#45;reg&#45;03/activity/&#45;6992216235577022025 -->
<g id="edge15" class="edge">
<title>http://purl.org/dj/kaggle/reconstruction&#45;of&#45;ps&#45;reg&#45;03/activity/8778061005683277887&#45;&gt;http://purl.org/dj/kaggle/reconstruction&#45;of&#45;ps&#45;reg&#45;03/activity/&#45;6992216235577022025</title>
<path fill="none" stroke="black" d="M1326.42,-458.32C1296.91,-448.44 1265.81,-432.05 1248.28,-405 1200.34,-331.03 1349.49,-321.91 1363.28,-297 1371.03,-283 1372.91,-273.77 1363.28,-261 1345.7,-237.69 1279.72,-219.97 1221.68,-208.47"/>
<polygon fill="black" stroke="black" points="1222.18,-205 1211.7,-206.53 1220.85,-211.87 1222.18,-205"/>
<text text-anchor="middle" x="1352.78" y="-329.3" font-family="Times,serif" font-size="14.00">previous</text>
</g>
<!-- http://purl.org/dj/kaggle/reconstruction&#45;of&#45;ps&#45;reg&#45;03/activity/2161245496854387966 -->
<g id="node10" class="node">
<title>http://purl.org/dj/kaggle/reconstruction&#45;of&#45;ps&#45;reg&#45;03/activity/2161245496854387966</title>
<ellipse fill="none" stroke="black" cx="1400.28" cy="-387" rx="142.97" ry="18"/>
<text text-anchor="middle" x="1400.28" y="-383.3" font-family="Times,serif" font-size="14.00">2161245496854387966 (Preparation)</text>
</g>
<!-- http://purl.org/dj/kaggle/reconstruction&#45;of&#45;ps&#45;reg&#45;03/activity/8778061005683277887&#45;&gt;http://purl.org/dj/kaggle/reconstruction&#45;of&#45;ps&#45;reg&#45;03/activity/2161245496854387966 -->
<g id="edge16" class="edge">
<title>http://purl.org/dj/kaggle/reconstruction&#45;of&#45;ps&#45;reg&#45;03/activity/8778061005683277887&#45;&gt;http://purl.org/dj/kaggle/reconstruction&#45;of&#45;ps&#45;reg&#45;03/activity/2161245496854387966</title>
<path fill="none" stroke="black" d="M1400.28,-455.8C1400.28,-444.16 1400.28,-428.55 1400.28,-415.24"/>
<polygon fill="black" stroke="black" points="1403.78,-415.18 1400.28,-405.18 1396.78,-415.18 1403.78,-415.18"/>
<text text-anchor="middle" x="1423.78" y="-426.8" font-family="Times,serif" font-size="14.00">previous</text>
</g>
<!-- http://purl.org/dj/kaggle/reconstruction&#45;of&#45;ps&#45;reg&#45;03/activity/5998003424013791993 -->
<g id="node11" class="node">
<title>http://purl.org/dj/kaggle/reconstruction&#45;of&#45;ps&#45;reg&#45;03/activity/5998003424013791993</title>
<ellipse fill="none" stroke="black" cx="1704.28" cy="-387" rx="142.97" ry="18"/>
<text text-anchor="middle" x="1704.28" y="-383.3" font-family="Times,serif" font-size="14.00">5998003424013791993 (Preparation)</text>
</g>
<!-- http://purl.org/dj/kaggle/reconstruction&#45;of&#45;ps&#45;reg&#45;03/activity/8778061005683277887&#45;&gt;http://purl.org/dj/kaggle/reconstruction&#45;of&#45;ps&#45;reg&#45;03/activity/5998003424013791993 -->
<g id="edge17" class="edge">
<title>http://purl.org/dj/kaggle/reconstruction&#45;of&#45;ps&#45;reg&#45;03/activity/8778061005683277887&#45;&gt;http://purl.org/dj/kaggle/reconstruction&#45;of&#45;ps&#45;reg&#45;03/activity/5998003424013791993</title>
<path fill="none" stroke="black" d="M1456.39,-457.31C1507.91,-442.91 1584.28,-421.55 1638.61,-406.36"/>
<polygon fill="black" stroke="black" points="1639.81,-409.66 1648.49,-403.6 1637.92,-402.92 1639.81,-409.66"/>
<text text-anchor="middle" x="1593.78" y="-426.8" font-family="Times,serif" font-size="14.00">previous</text>
</g>
<!-- http://purl.org/dj/kaggle/reconstruction&#45;of&#45;ps&#45;reg&#45;03/activity/836424970851460256 -->
<g id="node12" class="node">
<title>http://purl.org/dj/kaggle/reconstruction&#45;of&#45;ps&#45;reg&#45;03/activity/836424970851460256</title>
<ellipse fill="none" stroke="black" cx="1973.28" cy="-333" rx="138.38" ry="18"/>
<text text-anchor="middle" x="1973.28" y="-329.3" font-family="Times,serif" font-size="14.00">836424970851460256 (Preparation)</text>
</g>
<!-- http://purl.org/dj/kaggle/reconstruction&#45;of&#45;ps&#45;reg&#45;03/activity/8778061005683277887&#45;&gt;http://purl.org/dj/kaggle/reconstruction&#45;of&#45;ps&#45;reg&#45;03/activity/836424970851460256 -->
<g id="edge18" class="edge">
<title>http://purl.org/dj/kaggle/reconstruction&#45;of&#45;ps&#45;reg&#45;03/activity/8778061005683277887&#45;&gt;http://purl.org/dj/kaggle/reconstruction&#45;of&#45;ps&#45;reg&#45;03/activity/836424970851460256</title>
<path fill="none" stroke="black" d="M1542.27,-468.58C1675.63,-463.49 1859.1,-453.76 1889.28,-438 1921.93,-420.94 1946.38,-385.06 1960.25,-360.25"/>
<polygon fill="black" stroke="black" points="1963.39,-361.81 1965.05,-351.35 1957.22,-358.49 1963.39,-361.81"/>
<text text-anchor="middle" x="1933.78" y="-426.8" font-family="Times,serif" font-size="14.00">previous</text>
</g>
<!-- http://purl.org/dj/kaggle/reconstruction&#45;of&#45;ps&#45;reg&#45;03/activity/2161245496854387966&#45;&gt;http://purl.org/dj/kaggle/reconstruction&#45;of&#45;ps&#45;reg&#45;03/activity/&#45;6359866928118986117 -->
<g id="edge25" class="edge">
<title>http://purl.org/dj/kaggle/reconstruction&#45;of&#45;ps&#45;reg&#45;03/activity/2161245496854387966&#45;&gt;http://purl.org/dj/kaggle/reconstruction&#45;of&#45;ps&#45;reg&#45;03/activity/&#45;6359866928118986117</title>
<path fill="none" stroke="black" d="M1403.59,-368.96C1407.64,-344.45 1412.67,-298.14 1401.28,-261 1399.14,-254.04 1352.28,-173.94 1327.44,-131.71"/>
<polygon fill="black" stroke="black" points="1330.44,-129.91 1322.35,-123.07 1324.41,-133.46 1330.44,-129.91"/>
<text text-anchor="middle" x="1415.78" y="-231.8" font-family="Times,serif" font-size="14.00">previous</text>
</g>
<!-- http://purl.org/dj/kaggle/reconstruction&#45;of&#45;ps&#45;reg&#45;03/activity/5998003424013791993&#45;&gt;http://purl.org/dj/kaggle/reconstruction&#45;of&#45;ps&#45;reg&#45;03/activity/&#45;6359866928118986117 -->
<g id="edge26" class="edge">
<title>http://purl.org/dj/kaggle/reconstruction&#45;of&#45;ps&#45;reg&#45;03/activity/5998003424013791993&#45;&gt;http://purl.org/dj/kaggle/reconstruction&#45;of&#45;ps&#45;reg&#45;03/activity/&#45;6359866928118986117</title>
<path fill="none" stroke="black" d="M1708.69,-368.72C1717.78,-328.69 1733.76,-228.83 1683.28,-174 1650.6,-138.5 1532.58,-121.34 1438.32,-113.16"/>
<polygon fill="black" stroke="black" points="1438.37,-109.66 1428.12,-112.31 1437.79,-116.63 1438.37,-109.66"/>
<text text-anchor="middle" x="1737.78" y="-231.8" font-family="Times,serif" font-size="14.00">previous</text>
</g>
<!-- http://purl.org/dj/kaggle/reconstruction&#45;of&#45;ps&#45;reg&#45;03/activity/836424970851460256&#45;&gt;http://purl.org/dj/kaggle/reconstruction&#45;of&#45;ps&#45;reg&#45;03/activity/&#45;6359866928118986117 -->
<g id="edge30" class="edge">
<title>http://purl.org/dj/kaggle/reconstruction&#45;of&#45;ps&#45;reg&#45;03/activity/836424970851460256&#45;&gt;http://purl.org/dj/kaggle/reconstruction&#45;of&#45;ps&#45;reg&#45;03/activity/&#45;6359866928118986117</title>
<path fill="none" stroke="black" d="M1997.79,-315.26C2038.86,-285.2 2113.37,-220.88 2073.28,-174 2033.49,-127.48 1655.38,-112.69 1447.56,-108.06"/>
<polygon fill="black" stroke="black" points="1447.56,-104.56 1437.49,-107.84 1447.41,-111.56 1447.56,-104.56"/>
<text text-anchor="middle" x="2101.78" y="-231.8" font-family="Times,serif" font-size="14.00">previous</text>
</g>
<!-- http://purl.org/dj/kaggle/reconstruction&#45;of&#45;ps&#45;reg&#45;03/activity/&#45;1978000856825311370 -->
<g id="node13" class="node">
<title>http://purl.org/dj/kaggle/reconstruction&#45;of&#45;ps&#45;reg&#45;03/activity/&#45;1978000856825311370</title>
<ellipse fill="none" stroke="black" cx="994.28" cy="-474" rx="151.37" ry="18"/>
<text text-anchor="middle" x="994.28" y="-470.3" font-family="Times,serif" font-size="14.00">&#45;1978000856825311370 (Visualisation)</text>
</g>
<!-- http://purl.org/dj/kaggle/reconstruction&#45;of&#45;ps&#45;reg&#45;03/activity/&#45;1978000856825311370&#45;&gt;http://purl.org/dj/kaggle/reconstruction&#45;of&#45;ps&#45;reg&#45;03/activity/&#45;6359866928118986117 -->
<g id="edge19" class="edge">
<title>http://purl.org/dj/kaggle/reconstruction&#45;of&#45;ps&#45;reg&#45;03/activity/&#45;1978000856825311370&#45;&gt;http://purl.org/dj/kaggle/reconstruction&#45;of&#45;ps&#45;reg&#45;03/activity/&#45;6359866928118986117</title>
<path fill="none" stroke="black" d="M1014.09,-455.94C1026.2,-445.86 1042.21,-433.12 1057.28,-423 1138.55,-368.4 1162.8,-360.91 1249.28,-315 1265.08,-306.61 1274.83,-311.52 1285.28,-297 1320.58,-247.95 1319.53,-173.14 1315.84,-133.27"/>
<polygon fill="black" stroke="black" points="1319.31,-132.8 1314.78,-123.23 1312.34,-133.54 1319.31,-132.8"/>
<text text-anchor="middle" x="1327.78" y="-275.3" font-family="Times,serif" font-size="14.00">previous</text>
</g>
<!-- http://purl.org/dj/kaggle/reconstruction&#45;of&#45;ps&#45;reg&#45;03/activity/&#45;1978000856825311370&#45;&gt;http://purl.org/dj/kaggle/reconstruction&#45;of&#45;ps&#45;reg&#45;03/activity/&#45;3955643111866586088 -->
<g id="edge20" class="edge">
<title>http://purl.org/dj/kaggle/reconstruction&#45;of&#45;ps&#45;reg&#45;03/activity/&#45;1978000856825311370&#45;&gt;http://purl.org/dj/kaggle/reconstruction&#45;of&#45;ps&#45;reg&#45;03/activity/&#45;3955643111866586088</title>
<path fill="none" stroke="black" d="M871.76,-463.39C681.04,-445.39 328.19,-398.82 263.28,-297 254.68,-283.51 254.06,-274.07 263.28,-261 271.06,-249.97 338.14,-227.73 390.63,-211.68"/>
<polygon fill="black" stroke="black" points="391.7,-215.02 400.25,-208.76 389.66,-208.32 391.7,-215.02"/>
<text text-anchor="middle" x="352.78" y="-329.3" font-family="Times,serif" font-size="14.00">previous</text>
</g>
<!-- http://purl.org/dj/kaggle/reconstruction&#45;of&#45;ps&#45;reg&#45;03/activity/&#45;1978000856825311370&#45;&gt;http://purl.org/dj/kaggle/reconstruction&#45;of&#45;ps&#45;reg&#45;03/activity/7736927399155568445 -->
<g id="edge21" class="edge">
<title>http://purl.org/dj/kaggle/reconstruction&#45;of&#45;ps&#45;reg&#45;03/activity/&#45;1978000856825311370&#45;&gt;http://purl.org/dj/kaggle/reconstruction&#45;of&#45;ps&#45;reg&#45;03/activity/7736927399155568445</title>
<path fill="none" stroke="black" d="M931.44,-457.61C871.75,-442.98 782.06,-421.01 719.46,-405.68"/>
<polygon fill="black" stroke="black" points="720.2,-402.26 709.65,-403.28 718.53,-409.06 720.2,-402.26"/>
<text text-anchor="middle" x="865.78" y="-426.8" font-family="Times,serif" font-size="14.00">previous</text>
</g>
<!-- http://purl.org/dj/kaggle/reconstruction&#45;of&#45;ps&#45;reg&#45;03/activity/&#45;1978000856825311370&#45;&gt;http://purl.org/dj/kaggle/reconstruction&#45;of&#45;ps&#45;reg&#45;03/activity/&#45;6992216235577022025 -->
<g id="edge22" class="edge">
<title>http://purl.org/dj/kaggle/reconstruction&#45;of&#45;ps&#45;reg&#45;03/activity/&#45;1978000856825311370&#45;&gt;http://purl.org/dj/kaggle/reconstruction&#45;of&#45;ps&#45;reg&#45;03/activity/&#45;6992216235577022025</title>
<path fill="none" stroke="black" d="M972.84,-456.13C967.75,-450.92 963.02,-444.75 960.28,-438 951.07,-415.29 869.16,-401.53 965.28,-261 982.12,-236.38 1009.81,-220.63 1037.46,-210.58"/>
<polygon fill="black" stroke="black" points="1038.88,-213.79 1047.22,-207.25 1036.63,-207.16 1038.88,-213.79"/>
<text text-anchor="middle" x="956.78" y="-329.3" font-family="Times,serif" font-size="14.00">previous</text>
</g>
<!-- http://purl.org/dj/kaggle/reconstruction&#45;of&#45;ps&#45;reg&#45;03/activity/&#45;1978000856825311370&#45;&gt;http://purl.org/dj/kaggle/reconstruction&#45;of&#45;ps&#45;reg&#45;03/activity/2161245496854387966 -->
<g id="edge23" class="edge">
<title>http://purl.org/dj/kaggle/reconstruction&#45;of&#45;ps&#45;reg&#45;03/activity/&#45;1978000856825311370&#45;&gt;http://purl.org/dj/kaggle/reconstruction&#45;of&#45;ps&#45;reg&#45;03/activity/2161245496854387966</title>
<path fill="none" stroke="black" d="M1023.42,-456.09C1044.17,-444.85 1073.09,-430.77 1100.28,-423 1150.85,-408.54 1207.86,-400.04 1258.48,-395.05"/>
<polygon fill="black" stroke="black" points="1258.9,-398.52 1268.52,-394.1 1258.23,-391.56 1258.9,-398.52"/>
<text text-anchor="middle" x="1123.78" y="-426.8" font-family="Times,serif" font-size="14.00">previous</text>
</g>
<!-- http://purl.org/dj/kaggle/reconstruction&#45;of&#45;ps&#45;reg&#45;03/activity/&#45;1978000856825311370&#45;&gt;http://purl.org/dj/kaggle/reconstruction&#45;of&#45;ps&#45;reg&#45;03/activity/5998003424013791993 -->
<g id="edge24" class="edge">
<title>http://purl.org/dj/kaggle/reconstruction&#45;of&#45;ps&#45;reg&#45;03/activity/&#45;1978000856825311370&#45;&gt;http://purl.org/dj/kaggle/reconstruction&#45;of&#45;ps&#45;reg&#45;03/activity/5998003424013791993</title>
<path fill="none" stroke="black" d="M1082.38,-459.31C1154.12,-448.46 1258.07,-433.46 1349.28,-423 1439.27,-412.68 1462.15,-414.03 1552.28,-405 1565.23,-403.7 1578.79,-402.28 1592.25,-400.82"/>
<polygon fill="black" stroke="black" points="1592.96,-404.27 1602.52,-399.71 1592.2,-397.31 1592.96,-404.27"/>
<text text-anchor="middle" x="1372.78" y="-426.8" font-family="Times,serif" font-size="14.00">previous</text>
</g>
<!-- http://purl.org/dj/kaggle/reconstruction&#45;of&#45;ps&#45;reg&#45;03/activity/&#45;7441778592357671197 -->
<g id="node14" class="node">
<title>http://purl.org/dj/kaggle/reconstruction&#45;of&#45;ps&#45;reg&#45;03/activity/&#45;7441778592357671197</title>
<ellipse fill="none" stroke="black" cx="1528.28" cy="-192" rx="145.67" ry="18"/>
<text text-anchor="middle" x="1528.28" y="-188.3" font-family="Times,serif" font-size="14.00">&#45;7441778592357671197 (Preparation)</text>
</g>
<!-- http://purl.org/dj/kaggle/reconstruction&#45;of&#45;ps&#45;reg&#45;03/activity/&#45;7441778592357671197&#45;&gt;http://purl.org/dj/kaggle/reconstruction&#45;of&#45;ps&#45;reg&#45;03/activity/&#45;6359866928118986117 -->
<g id="edge27" class="edge">
<title>http://purl.org/dj/kaggle/reconstruction&#45;of&#45;ps&#45;reg&#45;03/activity/&#45;7441778592357671197&#45;&gt;http://purl.org/dj/kaggle/reconstruction&#45;of&#45;ps&#45;reg&#45;03/activity/&#45;6359866928118986117</title>
<path fill="none" stroke="black" d="M1486.89,-174.71C1451.58,-160.82 1400.69,-140.79 1362.95,-125.94"/>
<polygon fill="black" stroke="black" points="1363.75,-122.49 1353.16,-122.09 1361.19,-129.01 1363.75,-122.49"/>
<text text-anchor="middle" x="1455.78" y="-144.8" font-family="Times,serif" font-size="14.00">previous</text>
</g>
<!-- http://purl.org/dj/kaggle/reconstruction&#45;of&#45;ps&#45;reg&#45;03/activity/4774489600264614234 -->
<g id="node15" class="node">
<title>http://purl.org/dj/kaggle/reconstruction&#45;of&#45;ps&#45;reg&#45;03/activity/4774489600264614234</title>
<ellipse fill="none" stroke="black" cx="454.28" cy="-561" rx="142.97" ry="18"/>
<text text-anchor="middle" x="454.28" y="-557.3" font-family="Times,serif" font-size="14.00">4774489600264614234 (Preparation)</text>
</g>
<!-- http://purl.org/dj/kaggle/reconstruction&#45;of&#45;ps&#45;reg&#45;03/activity/4774489600264614234&#45;&gt;http://purl.org/dj/kaggle/reconstruction&#45;of&#45;ps&#45;reg&#45;03/activity/&#45;6359866928118986117 -->
<g id="edge28" class="edge">
<title>http://purl.org/dj/kaggle/reconstruction&#45;of&#45;ps&#45;reg&#45;03/activity/4774489600264614234&#45;&gt;http://purl.org/dj/kaggle/reconstruction&#45;of&#45;ps&#45;reg&#45;03/activity/&#45;6359866928118986117</title>
<path fill="none" stroke="black" d="M337.22,-550.55C246.55,-539.89 136.28,-518.07 136.28,-475 136.28,-475 136.28,-475 136.28,-191 136.28,-95.06 251.21,-153.91 346.28,-141 502.38,-119.8 949.05,-110.87 1176.16,-107.62"/>
<polygon fill="black" stroke="black" points="1176.52,-111.11 1186.47,-107.47 1176.42,-104.11 1176.52,-111.11"/>
<text text-anchor="middle" x="159.78" y="-329.3" font-family="Times,serif" font-size="14.00">previous</text>
</g>
<!-- http://purl.org/dj/kaggle/reconstruction&#45;of&#45;ps&#45;reg&#45;03/activity/4774489600264614234&#45;&gt;http://purl.org/dj/kaggle/reconstruction&#45;of&#45;ps&#45;reg&#45;03/activity/8778061005683277887 -->
<g id="edge29" class="edge">
<title>http://purl.org/dj/kaggle/reconstruction&#45;of&#45;ps&#45;reg&#45;03/activity/4774489600264614234&#45;&gt;http://purl.org/dj/kaggle/reconstruction&#45;of&#45;ps&#45;reg&#45;03/activity/8778061005683277887</title>
<path fill="none" stroke="black" d="M566.98,-549.87C744.74,-533.9 1089.02,-502.97 1274.55,-486.3"/>
<polygon fill="black" stroke="black" points="1274.98,-489.77 1284.63,-485.39 1274.36,-482.8 1274.98,-489.77"/>
<text text-anchor="middle" x="1007.78" y="-513.8" font-family="Times,serif" font-size="14.00">previous</text>
</g>
<!-- http://purl.org/dj/kaggle/reconstruction&#45;of&#45;ps&#45;reg&#45;03/activity/&#45;8848075083123757800 -->
<g id="node16" class="node">
<title>http://purl.org/dj/kaggle/reconstruction&#45;of&#45;ps&#45;reg&#45;03/activity/&#45;8848075083123757800</title>
<ellipse fill="none" stroke="black" cx="1125.28" cy="-279" rx="151.37" ry="18"/>
<text text-anchor="middle" x="1125.28" y="-275.3" font-family="Times,serif" font-size="14.00">&#45;8848075083123757800 (Visualisation)</text>
</g>
<!-- http://purl.org/dj/kaggle/reconstruction&#45;of&#45;ps&#45;reg&#45;03/activity/&#45;8848075083123757800&#45;&gt;http://purl.org/dj/kaggle/reconstruction&#45;of&#45;ps&#45;reg&#45;03/activity/&#45;6992216235577022025 -->
<g id="edge31" class="edge">
<title>http://purl.org/dj/kaggle/reconstruction&#45;of&#45;ps&#45;reg&#45;03/activity/&#45;8848075083123757800&#45;&gt;http://purl.org/dj/kaggle/reconstruction&#45;of&#45;ps&#45;reg&#45;03/activity/&#45;6992216235577022025</title>
<path fill="none" stroke="black" d="M1125.28,-260.8C1125.28,-249.16 1125.28,-233.55 1125.28,-220.24"/>
<polygon fill="black" stroke="black" points="1128.78,-220.18 1125.28,-210.18 1121.78,-220.18 1128.78,-220.18"/>
<text text-anchor="middle" x="1148.78" y="-231.8" font-family="Times,serif" font-size="14.00">previous</text>
</g>
<!-- http://purl.org/dj/kaggle/reconstruction&#45;of&#45;ps&#45;reg&#45;03/activity/&#45;1256871262368095562 -->
<g id="node17" class="node">
<title>http://purl.org/dj/kaggle/reconstruction&#45;of&#45;ps&#45;reg&#45;03/activity/&#45;1256871262368095562</title>
<ellipse fill="none" stroke="black" cx="767.28" cy="-279" rx="151.37" ry="18"/>
<text text-anchor="middle" x="767.28" y="-275.3" font-family="Times,serif" font-size="14.00">&#45;1256871262368095562 (Visualisation)</text>
</g>
<!-- http://purl.org/dj/kaggle/reconstruction&#45;of&#45;ps&#45;reg&#45;03/activity/&#45;1256871262368095562&#45;&gt;http://purl.org/dj/kaggle/reconstruction&#45;of&#45;ps&#45;reg&#45;03/activity/&#45;6359866928118986117 -->
<g id="edge32" class="edge">
<title>http://purl.org/dj/kaggle/reconstruction&#45;of&#45;ps&#45;reg&#45;03/activity/&#45;1256871262368095562&#45;&gt;http://purl.org/dj/kaggle/reconstruction&#45;of&#45;ps&#45;reg&#45;03/activity/&#45;6359866928118986117</title>
<path fill="none" stroke="black" d="M786.92,-260.91C815.08,-237.39 869.48,-195.52 923.28,-174 1008.41,-139.94 1110.77,-122.91 1189.11,-114.41"/>
<polygon fill="black" stroke="black" points="1189.94,-117.84 1199.52,-113.32 1189.21,-110.88 1189.94,-117.84"/>
<text text-anchor="middle" x="946.78" y="-188.3" font-family="Times,serif" font-size="14.00">previous</text>
</g>
<!-- http://purl.org/dj/kaggle/reconstruction&#45;of&#45;ps&#45;reg&#45;03/activity/&#45;1256871262368095562&#45;&gt;http://purl.org/dj/kaggle/reconstruction&#45;of&#45;ps&#45;reg&#45;03/activity/&#45;3955643111866586088 -->
<g id="edge33" class="edge">
<title>http://purl.org/dj/kaggle/reconstruction&#45;of&#45;ps&#45;reg&#45;03/activity/&#45;1256871262368095562&#45;&gt;http://purl.org/dj/kaggle/reconstruction&#45;of&#45;ps&#45;reg&#45;03/activity/&#45;3955643111866586088</title>
<path fill="none" stroke="black" d="M717.33,-261.98C684.72,-251.75 641.15,-238.48 602.28,-228 579.41,-221.84 554.39,-215.69 531.53,-210.31"/>
<polygon fill="black" stroke="black" points="532.08,-206.85 521.55,-207.98 530.49,-213.66 532.08,-206.85"/>
<text text-anchor="middle" x="676.78" y="-231.8" font-family="Times,serif" font-size="14.00">previous</text>
</g>
<!-- http://purl.org/dj/kaggle/reconstruction&#45;of&#45;ps&#45;reg&#45;03/activity/&#45;1256871262368095562&#45;&gt;http://purl.org/dj/kaggle/reconstruction&#45;of&#45;ps&#45;reg&#45;03/activity/&#45;6992216235577022025 -->
<g id="edge34" class="edge">
<title>http://purl.org/dj/kaggle/reconstruction&#45;of&#45;ps&#45;reg&#45;03/activity/&#45;1256871262368095562&#45;&gt;http://purl.org/dj/kaggle/reconstruction&#45;of&#45;ps&#45;reg&#45;03/activity/&#45;6992216235577022025</title>
<path fill="none" stroke="black" d="M805.95,-261.48C839.55,-247.14 883.18,-228.59 885.28,-228 922.69,-217.53 964.3,-210.07 1002.24,-204.79"/>
<polygon fill="black" stroke="black" points="1002.87,-208.24 1012.31,-203.43 1001.93,-201.3 1002.87,-208.24"/>
<text text-anchor="middle" x="908.78" y="-231.8" font-family="Times,serif" font-size="14.00">previous</text>
</g>
</g>
</svg>
