<?xml version="1.0" encoding="UTF-8" standalone="no"?>
<!DOCTYPE svg PUBLIC "-//W3C//DTD SVG 1.1//EN"
 "http://www.w3.org/Graphics/SVG/1.1/DTD/svg11.dtd">
<!-- Generated by graphviz version 2.44.1 (20200629.0846)
 -->
<!-- Pages: 1 -->
<svg width="3217pt" height="737pt"
 viewBox="0.00 0.00 3216.89 737.00" xmlns="http://www.w3.org/2000/svg" xmlns:xlink="http://www.w3.org/1999/xlink">
<g id="graph0" class="graph" transform="scale(1 1) rotate(0) translate(4 733)">
<polygon fill="white" stroke="transparent" points="-4,4 -4,-733 3212.89,-733 3212.89,4 -4,4"/>
<!-- http://purl.org/dj/kaggle/renaming&#45;and&#45;combining#496894939 -->
<g id="node1" class="node">
<title>http://purl.org/dj/kaggle/renaming&#45;and&#45;combining#496894939</title>
<ellipse fill="none" stroke="black" cx="996.89" cy="-429" rx="148.67" ry="18"/>
<text text-anchor="middle" x="996.89" y="-425.3" font-family="Times,serif" font-size="14.00">496894939 (reviews(0)$0: Movement)</text>
</g>
<!-- http://purl.org/dj/kaggle/renaming&#45;and&#45;combining#29687986 -->
<g id="node2" class="node">
<title>http://purl.org/dj/kaggle/renaming&#45;and&#45;combining#29687986</title>
<ellipse fill="none" stroke="black" cx="94.89" cy="-159" rx="94.78" ry="18"/>
<text text-anchor="middle" x="94.89" y="-155.3" font-family="Times,serif" font-size="14.00">29687986 (0(0): Reuse)</text>
</g>
<!-- http://purl.org/dj/kaggle/renaming&#45;and&#45;combining#496894939&#45;&gt;http://purl.org/dj/kaggle/renaming&#45;and&#45;combining#29687986 -->
<g id="edge1" class="edge">
<title>http://purl.org/dj/kaggle/renaming&#45;and&#45;combining#496894939&#45;&gt;http://purl.org/dj/kaggle/renaming&#45;and&#45;combining#29687986</title>
<path fill="none" stroke="black" d="M848.21,-427.79C629.23,-426.56 239.47,-420.46 180.89,-393 104.74,-357.3 94.71,-240.73 94.25,-187.25"/>
<polygon fill="black" stroke="black" points="97.75,-187.15 94.27,-177.15 90.75,-187.14 97.75,-187.15"/>
<text text-anchor="middle" x="151.39" y="-317.3" font-family="Times,serif" font-size="14.00">read_csv</text>
</g>
<!-- http://purl.org/dj/kaggle/renaming&#45;and&#45;combining#3018526890 -->
<g id="node3" class="node">
<title>http://purl.org/dj/kaggle/renaming&#45;and&#45;combining#3018526890</title>
<ellipse fill="none" stroke="black" cx="468.89" cy="-159" rx="273.75" ry="18"/>
<text text-anchor="middle" x="468.89" y="-155.3" font-family="Times,serif" font-size="14.00">3018526890 (../input/wine&#45;reviews/winemag&#45;data&#45;130k&#45;v2.csv(0): Reuse)</text>
</g>
<!-- http://purl.org/dj/kaggle/renaming&#45;and&#45;combining#496894939&#45;&gt;http://purl.org/dj/kaggle/renaming&#45;and&#45;combining#3018526890 -->
<g id="edge2" class="edge">
<title>http://purl.org/dj/kaggle/renaming&#45;and&#45;combining#496894939&#45;&gt;http://purl.org/dj/kaggle/renaming&#45;and&#45;combining#3018526890</title>
<path fill="none" stroke="black" d="M849.01,-426.69C625.41,-423.98 224.83,-415.93 202.89,-393 121.38,-307.81 311.88,-219.31 412.13,-180.4"/>
<polygon fill="black" stroke="black" points="413.46,-183.65 421.54,-176.8 410.95,-177.11 413.46,-183.65"/>
<text text-anchor="middle" x="227.39" y="-317.3" font-family="Times,serif" font-size="14.00">read_csv</text>
</g>
<!-- http://purl.org/dj/kaggle/renaming&#45;and&#45;combining#80085334 -->
<g id="node4" class="node">
<title>http://purl.org/dj/kaggle/renaming&#45;and&#45;combining#80085334</title>
<ellipse fill="none" stroke="black" cx="1356.89" cy="-213" rx="118.08" ry="18"/>
<text text-anchor="middle" x="1356.89" y="-209.3" font-family="Times,serif" font-size="14.00">80085334 (pd(0): Preparation)</text>
</g>
<!-- http://purl.org/dj/kaggle/renaming&#45;and&#45;combining#496894939&#45;&gt;http://purl.org/dj/kaggle/renaming&#45;and&#45;combining#80085334 -->
<g id="edge3" class="edge">
<title>http://purl.org/dj/kaggle/renaming&#45;and&#45;combining#496894939&#45;&gt;http://purl.org/dj/kaggle/renaming&#45;and&#45;combining#80085334</title>
<path fill="none" stroke="black" d="M998.73,-410.95C999.46,-394.61 997.63,-370.48 982.89,-357 954.86,-331.36 838.3,-367.24 812.89,-339 802.19,-327.11 802.53,-315.19 812.89,-303 827.28,-286.07 1107.14,-246.86 1259.69,-226.61"/>
<polygon fill="black" stroke="black" points="1260.54,-230.03 1270,-225.24 1259.62,-223.09 1260.54,-230.03"/>
<text text-anchor="middle" x="858.39" y="-317.3" font-family="Times,serif" font-size="14.00">previousActivity</text>
</g>
<!-- http://purl.org/dj/kaggle/renaming&#45;and&#45;combining#132776362 -->
<g id="node5" class="node">
<title>http://purl.org/dj/kaggle/renaming&#45;and&#45;combining#132776362</title>
<ellipse fill="none" stroke="black" cx="1639.89" cy="-321" rx="131.88" ry="18"/>
<text text-anchor="middle" x="1639.89" y="-317.3" font-family="Times,serif" font-size="14.00">132776362 (pd(0)$0: Preparation)</text>
</g>
<!-- http://purl.org/dj/kaggle/renaming&#45;and&#45;combining#496894939&#45;&gt;http://purl.org/dj/kaggle/renaming&#45;and&#45;combining#132776362 -->
<g id="edge4" class="edge">
<title>http://purl.org/dj/kaggle/renaming&#45;and&#45;combining#496894939&#45;&gt;http://purl.org/dj/kaggle/renaming&#45;and&#45;combining#132776362</title>
<path fill="none" stroke="black" d="M1115.23,-418.06C1169.38,-412.46 1234.19,-404.29 1291.89,-393 1351.15,-381.41 1363.89,-369.83 1422.89,-357 1460.9,-348.74 1503.03,-341.51 1539.99,-335.8"/>
<polygon fill="black" stroke="black" points="1540.91,-339.2 1550.27,-334.23 1539.86,-332.28 1540.91,-339.2"/>
<text text-anchor="middle" x="1447.39" y="-371.3" font-family="Times,serif" font-size="14.00">read_csv</text>
</g>
<!-- http://purl.org/dj/kaggle/renaming&#45;and&#45;combining -->
<g id="node6" class="node">
<title>http://purl.org/dj/kaggle/renaming&#45;and&#45;combining</title>
<ellipse fill="none" stroke="black" cx="1131.89" cy="-18" rx="100.98" ry="18"/>
<text text-anchor="middle" x="1131.89" y="-14.3" font-family="Times,serif" font-size="14.00">renaming&#45;and&#45;combining</text>
</g>
<!-- http://purl.org/dj/kaggle/renaming&#45;and&#45;combining#29687986&#45;&gt;http://purl.org/dj/kaggle/renaming&#45;and&#45;combining -->
<g id="edge5" class="edge">
<title>http://purl.org/dj/kaggle/renaming&#45;and&#45;combining#29687986&#45;&gt;http://purl.org/dj/kaggle/renaming&#45;and&#45;combining</title>
<path fill="none" stroke="black" d="M160.38,-145.96C238.53,-131.65 373.17,-107.17 488.89,-87 575.92,-71.83 597.22,-64.79 684.89,-54 801.43,-39.66 935.83,-30.06 1026.58,-24.6"/>
<polygon fill="black" stroke="black" points="1026.83,-28.1 1036.6,-24.01 1026.41,-21.11 1026.83,-28.1"/>
<text text-anchor="middle" x="515.39" y="-101.3" font-family="Times,serif" font-size="14.00">appearsIn</text>
</g>
<!-- http://purl.org/dj/kaggle/renaming&#45;and&#45;combining#3018526890&#45;&gt;http://purl.org/dj/kaggle/renaming&#45;and&#45;combining -->
<g id="edge6" class="edge">
<title>http://purl.org/dj/kaggle/renaming&#45;and&#45;combining#3018526890&#45;&gt;http://purl.org/dj/kaggle/renaming&#45;and&#45;combining</title>
<path fill="none" stroke="black" d="M504.39,-140.98C555.87,-117.15 654.84,-74.45 743.89,-54 836,-32.85 943.15,-24.36 1021.48,-21.01"/>
<polygon fill="black" stroke="black" points="1022,-24.49 1031.85,-20.59 1021.72,-17.5 1022,-24.49"/>
<text text-anchor="middle" x="660.39" y="-101.3" font-family="Times,serif" font-size="14.00">appearsIn</text>
</g>
<!-- http://purl.org/dj/kaggle/renaming&#45;and&#45;combining#80085334&#45;&gt;http://purl.org/dj/kaggle/renaming&#45;and&#45;combining -->
<g id="edge7" class="edge">
<title>http://purl.org/dj/kaggle/renaming&#45;and&#45;combining#80085334&#45;&gt;http://purl.org/dj/kaggle/renaming&#45;and&#45;combining</title>
<path fill="none" stroke="black" d="M1276.54,-199.71C1195.33,-185.44 1078.04,-159.17 1050.89,-123 1029.42,-94.39 1064.36,-61.95 1094.84,-41.02"/>
<polygon fill="black" stroke="black" points="1096.86,-43.87 1103.26,-35.43 1092.99,-38.04 1096.86,-43.87"/>
<text text-anchor="middle" x="1077.39" y="-101.3" font-family="Times,serif" font-size="14.00">appearsIn</text>
</g>
<!-- http://purl.org/dj/python/lib/144966264 -->
<g id="node7" class="node">
<title>http://purl.org/dj/python/lib/144966264</title>
<ellipse fill="none" stroke="black" cx="1221.89" cy="-105" rx="109.38" ry="18"/>
<text text-anchor="middle" x="1221.89" y="-101.3" font-family="Times,serif" font-size="14.00">144966264 (pandas: Reuse)</text>
</g>
<!-- http://purl.org/dj/kaggle/renaming&#45;and&#45;combining#80085334&#45;&gt;http://purl.org/dj/python/lib/144966264 -->
<g id="edge8" class="edge">
<title>http://purl.org/dj/kaggle/renaming&#45;and&#45;combining#80085334&#45;&gt;http://purl.org/dj/python/lib/144966264</title>
<path fill="none" stroke="black" d="M1335.5,-195.2C1312.79,-177.37 1276.74,-149.06 1251.35,-129.13"/>
<polygon fill="black" stroke="black" points="1253.21,-126.14 1243.18,-122.72 1248.89,-131.65 1253.21,-126.14"/>
<text text-anchor="middle" x="1347.39" y="-155.3" font-family="Times,serif" font-size="14.00">assignedFrom</text>
</g>
<!-- http://purl.org/dj/kaggle/renaming&#45;and&#45;combining#132776362&#45;&gt;http://purl.org/dj/kaggle/renaming&#45;and&#45;combining#80085334 -->
<g id="edge9" class="edge">
<title>http://purl.org/dj/kaggle/renaming&#45;and&#45;combining#132776362&#45;&gt;http://purl.org/dj/kaggle/renaming&#45;and&#45;combining#80085334</title>
<path fill="none" stroke="black" d="M1596.4,-303.85C1582.87,-298.36 1568.05,-291.87 1554.89,-285 1528.66,-271.31 1526.07,-260.7 1498.89,-249 1480.44,-241.06 1459.82,-234.68 1440.15,-229.66"/>
<polygon fill="black" stroke="black" points="1440.82,-226.22 1430.27,-227.23 1439.15,-233.02 1440.82,-226.22"/>
<text text-anchor="middle" x="1583.39" y="-263.3" font-family="Times,serif" font-size="14.00">set_option</text>
</g>
<!-- http://purl.org/dj/kaggle/renaming&#45;and&#45;combining#30998711 -->
<g id="node8" class="node">
<title>http://purl.org/dj/kaggle/renaming&#45;and&#45;combining#30998711</title>
<ellipse fill="none" stroke="black" cx="1083.89" cy="-213" rx="94.78" ry="18"/>
<text text-anchor="middle" x="1083.89" y="-209.3" font-family="Times,serif" font-size="14.00">30998711 (5(0): Reuse)</text>
</g>
<!-- http://purl.org/dj/kaggle/renaming&#45;and&#45;combining#132776362&#45;&gt;http://purl.org/dj/kaggle/renaming&#45;and&#45;combining#30998711 -->
<g id="edge10" class="edge">
<title>http://purl.org/dj/kaggle/renaming&#45;and&#45;combining#132776362&#45;&gt;http://purl.org/dj/kaggle/renaming&#45;and&#45;combining#30998711</title>
<path fill="none" stroke="black" d="M1559.69,-306.6C1522.59,-300.28 1477.95,-292.49 1437.89,-285 1339.82,-266.67 1226.85,-243.69 1155.42,-228.92"/>
<polygon fill="black" stroke="black" points="1155.69,-225.4 1145.19,-226.8 1154.27,-232.26 1155.69,-225.4"/>
<text text-anchor="middle" x="1466.39" y="-263.3" font-family="Times,serif" font-size="14.00">set_option</text>
</g>
<!-- http://purl.org/dj/kaggle/renaming&#45;and&#45;combining#445383666 -->
<g id="node9" class="node">
<title>http://purl.org/dj/kaggle/renaming&#45;and&#45;combining#445383666</title>
<ellipse fill="none" stroke="black" cx="1599.89" cy="-159" rx="131.88" ry="18"/>
<text text-anchor="middle" x="1599.89" y="-155.3" font-family="Times,serif" font-size="14.00">445383666 (max_rows(0): Reuse)</text>
</g>
<!-- http://purl.org/dj/kaggle/renaming&#45;and&#45;combining#132776362&#45;&gt;http://purl.org/dj/kaggle/renaming&#45;and&#45;combining#445383666 -->
<g id="edge11" class="edge">
<title>http://purl.org/dj/kaggle/renaming&#45;and&#45;combining#132776362&#45;&gt;http://purl.org/dj/kaggle/renaming&#45;and&#45;combining#445383666</title>
<path fill="none" stroke="black" d="M1635.61,-302.88C1628.66,-275.09 1614.88,-219.96 1606.62,-186.9"/>
<polygon fill="black" stroke="black" points="1609.96,-185.85 1604.14,-177 1603.17,-187.55 1609.96,-185.85"/>
<text text-anchor="middle" x="1675.39" y="-263.3" font-family="Times,serif" font-size="14.00">previousActivity</text>
</g>
<!-- http://purl.org/dj/python/lib/144966264&#45;&gt;http://purl.org/dj/kaggle/renaming&#45;and&#45;combining -->
<g id="edge14" class="edge">
<title>http://purl.org/dj/python/lib/144966264&#45;&gt;http://purl.org/dj/kaggle/renaming&#45;and&#45;combining</title>
<path fill="none" stroke="black" d="M1204.11,-87.21C1190.67,-74.52 1172.05,-56.93 1157.08,-42.79"/>
<polygon fill="black" stroke="black" points="1159.31,-40.08 1149.64,-35.76 1154.5,-45.17 1159.31,-40.08"/>
<text text-anchor="middle" x="1214.89" y="-57.8" font-family="Times,serif" font-size="14.00">importedBy</text>
</g>
<!-- http://purl.org/dj/kaggle/renaming&#45;and&#45;combining#30998711&#45;&gt;http://purl.org/dj/kaggle/renaming&#45;and&#45;combining -->
<g id="edge16" class="edge">
<title>http://purl.org/dj/kaggle/renaming&#45;and&#45;combining#30998711&#45;&gt;http://purl.org/dj/kaggle/renaming&#45;and&#45;combining</title>
<path fill="none" stroke="black" d="M1048.91,-196.17C1005.45,-174.17 940.11,-131.94 966.89,-87 983.64,-58.9 1014.63,-42.41 1045.28,-32.74"/>
<polygon fill="black" stroke="black" points="1046.59,-36 1055.2,-29.83 1044.62,-29.29 1046.59,-36"/>
<text text-anchor="middle" x="993.39" y="-101.3" font-family="Times,serif" font-size="14.00">appearsIn</text>
</g>
<!-- http://purl.org/dj/kaggle/renaming&#45;and&#45;combining#445383666&#45;&gt;http://purl.org/dj/kaggle/renaming&#45;and&#45;combining -->
<g id="edge17" class="edge">
<title>http://purl.org/dj/kaggle/renaming&#45;and&#45;combining#445383666&#45;&gt;http://purl.org/dj/kaggle/renaming&#45;and&#45;combining</title>
<path fill="none" stroke="black" d="M1495.53,-147.96C1447.69,-142.09 1396.99,-133.72 1375.89,-123 1355.72,-112.75 1358.92,-99.25 1339.89,-87 1304.77,-64.39 1291.52,-67.19 1251.89,-54 1233.3,-47.81 1212.9,-41.64 1194.28,-36.23"/>
<polygon fill="black" stroke="black" points="1195.01,-32.8 1184.43,-33.4 1193.07,-39.53 1195.01,-32.8"/>
<text text-anchor="middle" x="1402.39" y="-101.3" font-family="Times,serif" font-size="14.00">appearsIn</text>
</g>
<!-- http://purl.org/dj/kaggle/renaming&#45;and&#45;combining#284361465 -->
<g id="node10" class="node">
<title>http://purl.org/dj/kaggle/renaming&#45;and&#45;combining#284361465</title>
<ellipse fill="none" stroke="black" cx="2662.89" cy="-570" rx="114.28" ry="18"/>
<text text-anchor="middle" x="2662.89" y="-566.3" font-family="Times,serif" font-size="14.00">284361465 (fields(0): Reuse)</text>
</g>
<!-- http://purl.org/dj/kaggle/renaming&#45;and&#45;combining#284361465&#45;&gt;http://purl.org/dj/kaggle/renaming&#45;and&#45;combining -->
<g id="edge12" class="edge">
<title>http://purl.org/dj/kaggle/renaming&#45;and&#45;combining#284361465&#45;&gt;http://purl.org/dj/kaggle/renaming&#45;and&#45;combining</title>
<path fill="none" stroke="black" d="M2776.24,-567.38C2911,-562.3 3117.89,-543.17 3117.89,-473.5 3117.89,-473.5 3117.89,-473.5 3117.89,-104 3117.89,-56.67 1658.99,-28.03 1241.99,-20.81"/>
<polygon fill="black" stroke="black" points="1241.8,-17.31 1231.74,-20.64 1241.68,-24.31 1241.8,-17.31"/>
<text text-anchor="middle" x="3163.39" y="-317.3" font-family="Times,serif" font-size="14.00">previousActivity</text>
</g>
<!-- http://purl.org/dj/kaggle/renaming&#45;and&#45;combining#3997174956 -->
<g id="node11" class="node">
<title>http://purl.org/dj/kaggle/renaming&#45;and&#45;combining#3997174956</title>
<ellipse fill="none" stroke="black" cx="2090.89" cy="-267" rx="224.76" ry="18"/>
<text text-anchor="middle" x="2090.89" y="-263.3" font-family="Times,serif" font-size="14.00">3997174956 (../input/youtube&#45;new/GBvideos.csv(0): Reuse)</text>
</g>
<!-- http://purl.org/dj/kaggle/renaming&#45;and&#45;combining#3997174956&#45;&gt;http://purl.org/dj/kaggle/renaming&#45;and&#45;combining -->
<g id="edge13" class="edge">
<title>http://purl.org/dj/kaggle/renaming&#45;and&#45;combining#3997174956&#45;&gt;http://purl.org/dj/kaggle/renaming&#45;and&#45;combining</title>
<path fill="none" stroke="black" d="M2113.31,-248.98C2155.5,-214.99 2238.38,-137.63 2190.89,-87 2158.75,-52.73 1505.2,-29.89 1241.15,-22.03"/>
<polygon fill="black" stroke="black" points="1240.88,-18.52 1230.78,-21.73 1240.67,-25.52 1240.88,-18.52"/>
<text text-anchor="middle" x="2228.39" y="-155.3" font-family="Times,serif" font-size="14.00">appearsIn</text>
</g>
<!-- http://purl.org/dj/kaggle/renaming&#45;and&#45;combining#3992325287 -->
<g id="node12" class="node">
<title>http://purl.org/dj/kaggle/renaming&#45;and&#45;combining#3992325287</title>
<ellipse fill="none" stroke="black" cx="1137.89" cy="-321" rx="224.76" ry="18"/>
<text text-anchor="middle" x="1137.89" y="-317.3" font-family="Times,serif" font-size="14.00">3992325287 (../input/youtube&#45;new/CAvideos.csv(0): Reuse)</text>
</g>
<!-- http://purl.org/dj/kaggle/renaming&#45;and&#45;combining#3992325287&#45;&gt;http://purl.org/dj/kaggle/renaming&#45;and&#45;combining -->
<g id="edge15" class="edge">
<title>http://purl.org/dj/kaggle/renaming&#45;and&#45;combining#3992325287&#45;&gt;http://purl.org/dj/kaggle/renaming&#45;and&#45;combining</title>
<path fill="none" stroke="black" d="M1083.21,-303.45C1028.77,-283.52 949.1,-244.08 918.89,-177 894,-121.72 927.82,-88.19 977.89,-54 994.72,-42.51 1014.76,-34.74 1034.73,-29.5"/>
<polygon fill="black" stroke="black" points="1035.62,-32.88 1044.51,-27.12 1033.97,-26.08 1035.62,-32.88"/>
<text text-anchor="middle" x="945.39" y="-155.3" font-family="Times,serif" font-size="14.00">appearsIn</text>
</g>
<!-- http://purl.org/dj/kaggle/renaming&#45;and&#45;combining#1522796401 -->
<g id="node13" class="node">
<title>http://purl.org/dj/kaggle/renaming&#45;and&#45;combining#1522796401</title>
<ellipse fill="none" stroke="black" cx="1397.89" cy="-429" rx="189.57" ry="18"/>
<text text-anchor="middle" x="1397.89" y="-425.3" font-family="Times,serif" font-size="14.00">1522796401 (canadian_youtube(0)$0: Movement)</text>
</g>
<!-- http://purl.org/dj/kaggle/renaming&#45;and&#45;combining#1522796401&#45;&gt;http://purl.org/dj/kaggle/renaming&#45;and&#45;combining#80085334 -->
<g id="edge18" class="edge">
<title>http://purl.org/dj/kaggle/renaming&#45;and&#45;combining#1522796401&#45;&gt;http://purl.org/dj/kaggle/renaming&#45;and&#45;combining#80085334</title>
<path fill="none" stroke="black" d="M1394.8,-410.77C1392.2,-396.39 1388.37,-375.35 1384.89,-357 1377.25,-316.67 1368.05,-270.01 1362.33,-241.25"/>
<polygon fill="black" stroke="black" points="1365.71,-240.28 1360.32,-231.16 1358.84,-241.65 1365.71,-240.28"/>
<text text-anchor="middle" x="1426.39" y="-317.3" font-family="Times,serif" font-size="14.00">previousActivity</text>
</g>
<!-- http://purl.org/dj/kaggle/renaming&#45;and&#45;combining#1522796401&#45;&gt;http://purl.org/dj/kaggle/renaming&#45;and&#45;combining#132776362 -->
<g id="edge19" class="edge">
<title>http://purl.org/dj/kaggle/renaming&#45;and&#45;combining#1522796401&#45;&gt;http://purl.org/dj/kaggle/renaming&#45;and&#45;combining#132776362</title>
<path fill="none" stroke="black" d="M1433.08,-411.31C1464.36,-396.61 1511.42,-374.83 1552.89,-357 1564.58,-351.98 1577.23,-346.76 1589.17,-341.94"/>
<polygon fill="black" stroke="black" points="1590.59,-345.14 1598.57,-338.16 1587.99,-338.64 1590.59,-345.14"/>
<text text-anchor="middle" x="1598.39" y="-371.3" font-family="Times,serif" font-size="14.00">previousActivity</text>
</g>
<!-- http://purl.org/dj/kaggle/renaming&#45;and&#45;combining#1522796401&#45;&gt;http://purl.org/dj/kaggle/renaming&#45;and&#45;combining#3992325287 -->
<g id="edge20" class="edge">
<title>http://purl.org/dj/kaggle/renaming&#45;and&#45;combining#1522796401&#45;&gt;http://purl.org/dj/kaggle/renaming&#45;and&#45;combining#3992325287</title>
<path fill="none" stroke="black" d="M1262.59,-416.36C1241.1,-411.06 1219.76,-403.56 1200.89,-393 1181.48,-382.13 1165.02,-362.98 1153.8,-347.31"/>
<polygon fill="black" stroke="black" points="1156.66,-345.29 1148.12,-339.03 1150.89,-349.26 1156.66,-345.29"/>
<text text-anchor="middle" x="1246.39" y="-371.3" font-family="Times,serif" font-size="14.00">previousActivity</text>
</g>
<!-- http://purl.org/dj/kaggle/renaming&#45;and&#45;combining#496960476 -->
<g id="node14" class="node">
<title>http://purl.org/dj/kaggle/renaming&#45;and&#45;combining#496960476</title>
<ellipse fill="none" stroke="black" cx="1057.89" cy="-516" rx="150.27" ry="18"/>
<text text-anchor="middle" x="1057.89" y="-512.3" font-family="Times,serif" font-size="14.00">496960476 (reviews(0)$1: Preparation)</text>
</g>
<!-- http://purl.org/dj/kaggle/renaming&#45;and&#45;combining#496960476&#45;&gt;http://purl.org/dj/kaggle/renaming&#45;and&#45;combining#496894939 -->
<g id="edge21" class="edge">
<title>http://purl.org/dj/kaggle/renaming&#45;and&#45;combining#496960476&#45;&gt;http://purl.org/dj/kaggle/renaming&#45;and&#45;combining#496894939</title>
<path fill="none" stroke="black" d="M1045.55,-497.8C1036.87,-485.7 1025.1,-469.3 1015.31,-455.67"/>
<polygon fill="black" stroke="black" points="1017.89,-453.26 1009.22,-447.18 1012.2,-457.34 1017.89,-453.26"/>
<text text-anchor="middle" x="1077.39" y="-468.8" font-family="Times,serif" font-size="14.00">previousActivity</text>
</g>
<!-- http://purl.org/dj/kaggle/renaming&#45;and&#45;combining#326238964 -->
<g id="node15" class="node">
<title>http://purl.org/dj/kaggle/renaming&#45;and&#45;combining#326238964</title>
<ellipse fill="none" stroke="black" cx="2068.89" cy="-516" rx="139.98" ry="18"/>
<text text-anchor="middle" x="2068.89" y="-512.3" font-family="Times,serif" font-size="14.00">326238964 (right(0)$0: Preparation)</text>
</g>
<!-- http://purl.org/dj/kaggle/renaming&#45;and&#45;combining#1432225591 -->
<g id="node16" class="node">
<title>http://purl.org/dj/kaggle/renaming&#45;and&#45;combining#1432225591</title>
<ellipse fill="none" stroke="black" cx="2068.89" cy="-429" rx="180.87" ry="18"/>
<text text-anchor="middle" x="2068.89" y="-425.3" font-family="Times,serif" font-size="14.00">1432225591 (british_youtube(0)$0: Movement)</text>
</g>
<!-- http://purl.org/dj/kaggle/renaming&#45;and&#45;combining#326238964&#45;&gt;http://purl.org/dj/kaggle/renaming&#45;and&#45;combining#1432225591 -->
<g id="edge22" class="edge">
<title>http://purl.org/dj/kaggle/renaming&#45;and&#45;combining#326238964&#45;&gt;http://purl.org/dj/kaggle/renaming&#45;and&#45;combining#1432225591</title>
<path fill="none" stroke="black" d="M2068.89,-497.8C2068.89,-486.16 2068.89,-470.55 2068.89,-457.24"/>
<polygon fill="black" stroke="black" points="2072.39,-457.18 2068.89,-447.18 2065.39,-457.18 2072.39,-457.18"/>
<text text-anchor="middle" x="2094.89" y="-468.8" font-family="Times,serif" font-size="14.00">set_index</text>
</g>
<!-- http://purl.org/dj/kaggle/renaming&#45;and&#45;combining#1449859517 -->
<g id="node17" class="node">
<title>http://purl.org/dj/kaggle/renaming&#45;and&#45;combining#1449859517</title>
<ellipse fill="none" stroke="black" cx="2711.89" cy="-267" rx="391.03" ry="18"/>
<text text-anchor="middle" x="2711.89" y="-263.3" font-family="Times,serif" font-size="14.00">1449859517 ([&lt;_ast.Constant object at 0x12f8b3040&gt;, &lt;_ast.Constant object at 0x12f8b3490&gt;](0): Reuse)</text>
</g>
<!-- http://purl.org/dj/kaggle/renaming&#45;and&#45;combining#326238964&#45;&gt;http://purl.org/dj/kaggle/renaming&#45;and&#45;combining#1449859517 -->
<g id="edge23" class="edge">
<title>http://purl.org/dj/kaggle/renaming&#45;and&#45;combining#326238964&#45;&gt;http://purl.org/dj/kaggle/renaming&#45;and&#45;combining#1449859517</title>
<path fill="none" stroke="black" d="M2115.12,-498.93C2153.69,-485.41 2210.04,-465.39 2258.89,-447 2405.59,-391.78 2577.34,-322.69 2660.96,-288.76"/>
<polygon fill="black" stroke="black" points="2662.28,-292 2670.22,-284.99 2659.64,-285.51 2662.28,-292"/>
<text text-anchor="middle" x="2374.89" y="-425.3" font-family="Times,serif" font-size="14.00">set_index</text>
</g>
<!-- http://purl.org/dj/kaggle/renaming&#45;and&#45;combining#1432225591&#45;&gt;http://purl.org/dj/kaggle/renaming&#45;and&#45;combining#80085334 -->
<g id="edge24" class="edge">
<title>http://purl.org/dj/kaggle/renaming&#45;and&#45;combining#1432225591&#45;&gt;http://purl.org/dj/kaggle/renaming&#45;and&#45;combining#80085334</title>
<path fill="none" stroke="black" d="M2039.15,-411.04C1997.5,-386.47 1920.66,-338.07 1864.89,-285 1850.21,-271.03 1854.76,-258.56 1836.89,-249 1806.31,-232.64 1613.45,-222.78 1481.7,-217.87"/>
<polygon fill="black" stroke="black" points="1481.66,-214.36 1471.53,-217.49 1481.4,-221.36 1481.66,-214.36"/>
<text text-anchor="middle" x="1974.39" y="-317.3" font-family="Times,serif" font-size="14.00">previousActivity</text>
</g>
<!-- http://purl.org/dj/kaggle/renaming&#45;and&#45;combining#1432225591&#45;&gt;http://purl.org/dj/kaggle/renaming&#45;and&#45;combining#132776362 -->
<g id="edge25" class="edge">
<title>http://purl.org/dj/kaggle/renaming&#45;and&#45;combining#1432225591&#45;&gt;http://purl.org/dj/kaggle/renaming&#45;and&#45;combining#132776362</title>
<path fill="none" stroke="black" d="M1941.8,-416.18C1881.57,-409.76 1816.61,-401.43 1787.89,-393 1766.62,-386.75 1716.53,-361.87 1680.51,-343.32"/>
<polygon fill="black" stroke="black" points="1681.72,-340 1671.23,-338.51 1678.5,-346.21 1681.72,-340"/>
<text text-anchor="middle" x="1812.39" y="-371.3" font-family="Times,serif" font-size="14.00">read_csv</text>
</g>
<!-- http://purl.org/dj/kaggle/renaming&#45;and&#45;combining#1432225591&#45;&gt;http://purl.org/dj/kaggle/renaming&#45;and&#45;combining#3997174956 -->
<g id="edge26" class="edge">
<title>http://purl.org/dj/kaggle/renaming&#45;and&#45;combining#1432225591&#45;&gt;http://purl.org/dj/kaggle/renaming&#45;and&#45;combining#3997174956</title>
<path fill="none" stroke="black" d="M2071.25,-410.88C2075.05,-383.21 2082.58,-328.44 2087.13,-295.33"/>
<polygon fill="black" stroke="black" points="2090.66,-295.38 2088.55,-285 2083.72,-294.43 2090.66,-295.38"/>
<text text-anchor="middle" x="2102.39" y="-371.3" font-family="Times,serif" font-size="14.00">read_csv</text>
</g>
<!-- http://purl.org/dj/kaggle/renaming&#45;and&#45;combining#1449859517&#45;&gt;http://purl.org/dj/kaggle/renaming&#45;and&#45;combining -->
<g id="edge27" class="edge">
<title>http://purl.org/dj/kaggle/renaming&#45;and&#45;combining#1449859517&#45;&gt;http://purl.org/dj/kaggle/renaming&#45;and&#45;combining</title>
<path fill="none" stroke="black" d="M2671.07,-249.07C2586.61,-214.57 2386.03,-135.3 2211.89,-87 2139.83,-67.01 2121.16,-62.79 2046.89,-54 1894.19,-35.93 1449.75,-25.18 1241.7,-21.01"/>
<polygon fill="black" stroke="black" points="1241.74,-17.51 1231.68,-20.81 1241.6,-24.51 1241.74,-17.51"/>
<text text-anchor="middle" x="2506.39" y="-155.3" font-family="Times,serif" font-size="14.00">appearsIn</text>
</g>
<!-- http://purl.org/dj/kaggle/renaming&#45;and&#45;combining#1521687072 -->
<g id="node18" class="node">
<title>http://purl.org/dj/kaggle/renaming&#45;and&#45;combining#1521687072</title>
<ellipse fill="none" stroke="black" cx="592.89" cy="-375" rx="389.13" ry="18"/>
<text text-anchor="middle" x="592.89" y="-371.3" font-family="Times,serif" font-size="14.00">1521687072 ([&lt;_ast.Constant object at 0x12f8b3760&gt;, &lt;_ast.Constant object at 0x12f8b3af0&gt;](0): Reuse)</text>
</g>
<!-- http://purl.org/dj/kaggle/renaming&#45;and&#45;combining#1521687072&#45;&gt;http://purl.org/dj/kaggle/renaming&#45;and&#45;combining -->
<g id="edge28" class="edge">
<title>http://purl.org/dj/kaggle/renaming&#45;and&#45;combining#1521687072&#45;&gt;http://purl.org/dj/kaggle/renaming&#45;and&#45;combining</title>
<path fill="none" stroke="black" d="M665.26,-357.31C709.6,-342.31 757.89,-315.16 757.89,-268 757.89,-268 757.89,-268 757.89,-104 757.89,-49.12 912.98,-29.67 1023.42,-22.78"/>
<polygon fill="black" stroke="black" points="1023.85,-26.26 1033.63,-22.17 1023.44,-19.27 1023.85,-26.26"/>
<text text-anchor="middle" x="803.39" y="-209.3" font-family="Times,serif" font-size="14.00">previousActivity</text>
</g>
<!-- http://purl.org/dj/kaggle/renaming&#45;and&#45;combining#251265665 -->
<g id="node19" class="node">
<title>http://purl.org/dj/kaggle/renaming&#45;and&#45;combining#251265665</title>
<ellipse fill="none" stroke="black" cx="1397.89" cy="-516" rx="134.58" ry="18"/>
<text text-anchor="middle" x="1397.89" y="-512.3" font-family="Times,serif" font-size="14.00">251265665 (left(0)$0: Preparation)</text>
</g>
<!-- http://purl.org/dj/kaggle/renaming&#45;and&#45;combining#251265665&#45;&gt;http://purl.org/dj/kaggle/renaming&#45;and&#45;combining#1522796401 -->
<g id="edge29" class="edge">
<title>http://purl.org/dj/kaggle/renaming&#45;and&#45;combining#251265665&#45;&gt;http://purl.org/dj/kaggle/renaming&#45;and&#45;combining#1522796401</title>
<path fill="none" stroke="black" d="M1397.89,-497.8C1397.89,-486.16 1397.89,-470.55 1397.89,-457.24"/>
<polygon fill="black" stroke="black" points="1401.39,-457.18 1397.89,-447.18 1394.39,-457.18 1401.39,-457.18"/>
<text text-anchor="middle" x="1443.39" y="-468.8" font-family="Times,serif" font-size="14.00">previousActivity</text>
</g>
<!-- http://purl.org/dj/kaggle/renaming&#45;and&#45;combining#251265665&#45;&gt;http://purl.org/dj/kaggle/renaming&#45;and&#45;combining#1521687072 -->
<g id="edge30" class="edge">
<title>http://purl.org/dj/kaggle/renaming&#45;and&#45;combining#251265665&#45;&gt;http://purl.org/dj/kaggle/renaming&#45;and&#45;combining#1521687072</title>
<path fill="none" stroke="black" d="M1335.86,-499.97C1295.34,-488.68 1242.13,-471.04 1198.89,-447 1176.81,-434.72 1178.41,-420.23 1154.89,-411 1129.25,-400.94 1017.24,-392.95 899.89,-387.16"/>
<polygon fill="black" stroke="black" points="899.77,-383.65 889.61,-386.66 899.43,-390.64 899.77,-383.65"/>
<text text-anchor="middle" x="1315.39" y="-468.8" font-family="Times,serif" font-size="14.00">previousActivity</text>
</g>
<!-- http://purl.org/dj/kaggle/renaming&#45;and&#45;combining#1721439841 -->
<g id="node20" class="node">
<title>http://purl.org/dj/kaggle/renaming&#45;and&#45;combining#1721439841</title>
<ellipse fill="none" stroke="black" cx="1809.89" cy="-105" rx="371.53" ry="18"/>
<text text-anchor="middle" x="1809.89" y="-101.3" font-family="Times,serif" font-size="14.00">1721439841 ([&lt;_ast.Name object at 0x12f8b39d0&gt;, &lt;_ast.Name object at 0x12f8b3460&gt;](0): Reuse)</text>
</g>
<!-- http://purl.org/dj/kaggle/renaming&#45;and&#45;combining#1721439841&#45;&gt;http://purl.org/dj/kaggle/renaming&#45;and&#45;combining -->
<g id="edge31" class="edge">
<title>http://purl.org/dj/kaggle/renaming&#45;and&#45;combining#1721439841&#45;&gt;http://purl.org/dj/kaggle/renaming&#45;and&#45;combining</title>
<path fill="none" stroke="black" d="M1682.76,-88.06C1548.45,-71.22 1340.07,-45.1 1221.84,-30.28"/>
<polygon fill="black" stroke="black" points="1222.09,-26.78 1211.74,-29.01 1221.22,-33.73 1222.09,-26.78"/>
<text text-anchor="middle" x="1537.39" y="-57.8" font-family="Times,serif" font-size="14.00">appearsIn</text>
</g>
<!-- http://purl.org/dj/kaggle/renaming&#45;and&#45;combining#251331202 -->
<g id="node21" class="node">
<title>http://purl.org/dj/kaggle/renaming&#45;and&#45;combining#251331202</title>
<ellipse fill="none" stroke="black" cx="1684.89" cy="-624" rx="134.58" ry="18"/>
<text text-anchor="middle" x="1684.89" y="-620.3" font-family="Times,serif" font-size="14.00">251331202 (left(0)$1: Preparation)</text>
</g>
<!-- http://purl.org/dj/kaggle/renaming&#45;and&#45;combining#251331202&#45;&gt;http://purl.org/dj/kaggle/renaming&#45;and&#45;combining#326238964 -->
<g id="edge32" class="edge">
<title>http://purl.org/dj/kaggle/renaming&#45;and&#45;combining#251331202&#45;&gt;http://purl.org/dj/kaggle/renaming&#45;and&#45;combining#326238964</title>
<path fill="none" stroke="black" d="M1740.73,-607.59C1810.3,-588.38 1929.03,-555.61 2002.99,-535.19"/>
<polygon fill="black" stroke="black" points="2003.97,-538.55 2012.67,-532.52 2002.1,-531.81 2003.97,-538.55"/>
<text text-anchor="middle" x="1943.89" y="-566.3" font-family="Times,serif" font-size="14.00">join</text>
</g>
<!-- http://purl.org/dj/kaggle/renaming&#45;and&#45;combining#251331202&#45;&gt;http://purl.org/dj/kaggle/renaming&#45;and&#45;combining#251265665 -->
<g id="edge33" class="edge">
<title>http://purl.org/dj/kaggle/renaming&#45;and&#45;combining#251331202&#45;&gt;http://purl.org/dj/kaggle/renaming&#45;and&#45;combining#251265665</title>
<path fill="none" stroke="black" d="M1641.3,-606.9C1590.27,-588.05 1505.76,-556.84 1450.96,-536.6"/>
<polygon fill="black" stroke="black" points="1452.01,-533.26 1441.42,-533.08 1449.59,-539.82 1452.01,-533.26"/>
<text text-anchor="middle" x="1593.89" y="-566.3" font-family="Times,serif" font-size="14.00">join</text>
</g>
<!-- http://purl.org/dj/kaggle/renaming&#45;and&#45;combining#497091550 -->
<g id="node22" class="node">
<title>http://purl.org/dj/kaggle/renaming&#45;and&#45;combining#497091550</title>
<ellipse fill="none" stroke="black" cx="1625.89" cy="-711" rx="150.27" ry="18"/>
<text text-anchor="middle" x="1625.89" y="-707.3" font-family="Times,serif" font-size="14.00">497091550 (reviews(0)$3: Preparation)</text>
</g>
<!-- http://purl.org/dj/kaggle/renaming&#45;and&#45;combining#497091550&#45;&gt;http://purl.org/dj/kaggle/renaming&#45;and&#45;combining#284361465 -->
<g id="edge34" class="edge">
<title>http://purl.org/dj/kaggle/renaming&#45;and&#45;combining#497091550&#45;&gt;http://purl.org/dj/kaggle/renaming&#45;and&#45;combining#284361465</title>
<path fill="none" stroke="black" d="M1722.05,-697.11C1920.33,-670.53 2372.41,-609.94 2568.85,-583.6"/>
<polygon fill="black" stroke="black" points="2569.42,-587.06 2578.87,-582.26 2568.49,-580.12 2569.42,-587.06"/>
<text text-anchor="middle" x="2036.39" y="-663.8" font-family="Times,serif" font-size="14.00">previousActivity</text>
</g>
<!-- http://purl.org/dj/kaggle/renaming&#45;and&#45;combining#497026013 -->
<g id="node23" class="node">
<title>http://purl.org/dj/kaggle/renaming&#45;and&#45;combining#497026013</title>
<ellipse fill="none" stroke="black" cx="1373.89" cy="-624" rx="150.27" ry="18"/>
<text text-anchor="middle" x="1373.89" y="-620.3" font-family="Times,serif" font-size="14.00">497026013 (reviews(0)$2: Preparation)</text>
</g>
<!-- http://purl.org/dj/kaggle/renaming&#45;and&#45;combining#497091550&#45;&gt;http://purl.org/dj/kaggle/renaming&#45;and&#45;combining#497026013 -->
<g id="edge35" class="edge">
<title>http://purl.org/dj/kaggle/renaming&#45;and&#45;combining#497091550&#45;&gt;http://purl.org/dj/kaggle/renaming&#45;and&#45;combining#497026013</title>
<path fill="none" stroke="black" d="M1578.2,-693.91C1536.45,-679.83 1475.72,-659.35 1431.32,-644.37"/>
<polygon fill="black" stroke="black" points="1432.41,-641.05 1421.82,-641.17 1430.18,-647.68 1432.41,-641.05"/>
<text text-anchor="middle" x="1549.89" y="-663.8" font-family="Times,serif" font-size="14.00">rename_axis</text>
</g>
<!-- http://purl.org/dj/kaggle/renaming&#45;and&#45;combining#497026013&#45;&gt;http://purl.org/dj/kaggle/renaming&#45;and&#45;combining#496960476 -->
<g id="edge36" class="edge">
<title>http://purl.org/dj/kaggle/renaming&#45;and&#45;combining#497026013&#45;&gt;http://purl.org/dj/kaggle/renaming&#45;and&#45;combining#496960476</title>
<path fill="none" stroke="black" d="M1325.9,-606.9C1269.47,-587.97 1175.89,-556.58 1115.57,-536.35"/>
<polygon fill="black" stroke="black" points="1116.41,-532.94 1105.82,-533.08 1114.19,-539.58 1116.41,-532.94"/>
<text text-anchor="middle" x="1282.39" y="-566.3" font-family="Times,serif" font-size="14.00">rename</text>
</g>
<!-- http://purl.org/dj/kaggle/renaming&#45;and&#45;combining#132841899 -->
<g id="node24" class="node">
<title>http://purl.org/dj/kaggle/renaming&#45;and&#45;combining#132841899</title>
<ellipse fill="none" stroke="black" cx="1737.89" cy="-429" rx="131.88" ry="18"/>
<text text-anchor="middle" x="1737.89" y="-425.3" font-family="Times,serif" font-size="14.00">132841899 (pd(0)$1: Preparation)</text>
</g>
<!-- http://purl.org/dj/kaggle/renaming&#45;and&#45;combining#132841899&#45;&gt;http://purl.org/dj/kaggle/renaming&#45;and&#45;combining#132776362 -->
<g id="edge37" class="edge">
<title>http://purl.org/dj/kaggle/renaming&#45;and&#45;combining#132841899&#45;&gt;http://purl.org/dj/kaggle/renaming&#45;and&#45;combining#132776362</title>
<path fill="none" stroke="black" d="M1694.5,-411.94C1685.17,-406.96 1675.99,-400.7 1668.89,-393 1657.56,-380.71 1650.37,-363.4 1645.99,-348.95"/>
<polygon fill="black" stroke="black" points="1649.29,-347.76 1643.27,-339.05 1642.54,-349.61 1649.29,-347.76"/>
<text text-anchor="middle" x="1686.89" y="-371.3" font-family="Times,serif" font-size="14.00">concat</text>
</g>
<!-- http://purl.org/dj/kaggle/renaming&#45;and&#45;combining#132841899&#45;&gt;http://purl.org/dj/kaggle/renaming&#45;and&#45;combining#1721439841 -->
<g id="edge38" class="edge">
<title>http://purl.org/dj/kaggle/renaming&#45;and&#45;combining#132841899&#45;&gt;http://purl.org/dj/kaggle/renaming&#45;and&#45;combining#1721439841</title>
<path fill="none" stroke="black" d="M1769.03,-411.32C1775.65,-406.31 1781.85,-400.19 1785.89,-393 1810.56,-349.11 1811.27,-196.63 1810.45,-133.6"/>
<polygon fill="black" stroke="black" points="1813.94,-133.2 1810.29,-123.26 1806.94,-133.31 1813.94,-133.2"/>
<text text-anchor="middle" x="1825.89" y="-263.3" font-family="Times,serif" font-size="14.00">concat</text>
</g>
</g>
</svg>
