<?xml version="1.0" encoding="UTF-8" standalone="no"?>
<!DOCTYPE svg PUBLIC "-//W3C//DTD SVG 1.1//EN"
 "http://www.w3.org/Graphics/SVG/1.1/DTD/svg11.dtd">
<!-- Generated by graphviz version 2.44.1 (20200629.0846)
 -->
<!-- Pages: 1 -->
<svg width="3297pt" height="434pt"
 viewBox="0.00 0.00 3296.94 434.00" xmlns="http://www.w3.org/2000/svg" xmlns:xlink="http://www.w3.org/1999/xlink">
<g id="graph0" class="graph" transform="scale(1 1) rotate(0) translate(4 430)">
<polygon fill="white" stroke="transparent" points="-4,4 -4,-430 3292.94,-430 3292.94,4 -4,4"/>
<!-- http://purl.org/dj/kaggle/renaming&#45;and&#45;combining#80085334 -->
<g id="node1" class="node">
<title>http://purl.org/dj/kaggle/renaming&#45;and&#45;combining#80085334</title>
<ellipse fill="none" stroke="black" cx="1075.63" cy="-213" rx="118.08" ry="18"/>
<text text-anchor="middle" x="1075.63" y="-209.3" font-family="Times,serif" font-size="14.00">80085334 (pd(0): Preparation)</text>
</g>
<!-- http://purl.org/dj/python/lib/144966264 -->
<g id="node2" class="node">
<title>http://purl.org/dj/python/lib/144966264</title>
<ellipse fill="none" stroke="black" cx="1094.63" cy="-105" rx="109.38" ry="18"/>
<text text-anchor="middle" x="1094.63" y="-101.3" font-family="Times,serif" font-size="14.00">144966264 (pandas: Reuse)</text>
</g>
<!-- http://purl.org/dj/kaggle/renaming&#45;and&#45;combining#80085334&#45;&gt;http://purl.org/dj/python/lib/144966264 -->
<g id="edge1" class="edge">
<title>http://purl.org/dj/kaggle/renaming&#45;and&#45;combining#80085334&#45;&gt;http://purl.org/dj/python/lib/144966264</title>
<path fill="none" stroke="black" d="M985.22,-201.33C956.32,-195.93 929.5,-188.1 920.63,-177 910.64,-164.5 910.49,-153.38 920.63,-141 926.5,-133.83 965.28,-125.67 1004.74,-119.03"/>
<polygon fill="black" stroke="black" points="1005.47,-122.46 1014.77,-117.38 1004.33,-115.55 1005.47,-122.46"/>
<text text-anchor="middle" x="944.13" y="-155.3" font-family="Times,serif" font-size="14.00">previous</text>
</g>
<!-- http://purl.org/dj/kaggle/renaming&#45;and&#45;combining -->
<g id="node3" class="node">
<title>http://purl.org/dj/kaggle/renaming&#45;and&#45;combining</title>
<ellipse fill="none" stroke="black" cx="1280.63" cy="-18" rx="100.98" ry="18"/>
<text text-anchor="middle" x="1280.63" y="-14.3" font-family="Times,serif" font-size="14.00">renaming&#45;and&#45;combining</text>
</g>
<!-- http://purl.org/dj/kaggle/renaming&#45;and&#45;combining#80085334&#45;&gt;http://purl.org/dj/kaggle/renaming&#45;and&#45;combining -->
<g id="edge2" class="edge">
<title>http://purl.org/dj/kaggle/renaming&#45;and&#45;combining#80085334&#45;&gt;http://purl.org/dj/kaggle/renaming&#45;and&#45;combining</title>
<path fill="none" stroke="black" d="M1018.69,-197.06C1009.56,-192.14 1001.27,-185.63 995.63,-177 986.87,-163.61 984.79,-152.77 995.63,-141 1028.4,-105.4 1171.05,-147.76 1212.63,-123 1220.49,-118.32 1247.79,-74.17 1265.32,-44.92"/>
<polygon fill="black" stroke="black" points="1268.51,-46.4 1270.62,-36.02 1262.5,-42.81 1268.51,-46.4"/>
<text text-anchor="middle" x="1262.13" y="-101.3" font-family="Times,serif" font-size="14.00">previous</text>
</g>
<!-- http://purl.org/dj/python/lib/144966264&#45;&gt;http://purl.org/dj/kaggle/renaming&#45;and&#45;combining -->
<g id="edge3" class="edge">
<title>http://purl.org/dj/python/lib/144966264&#45;&gt;http://purl.org/dj/kaggle/renaming&#45;and&#45;combining</title>
<path fill="none" stroke="black" d="M1119.61,-87.27C1135.94,-76.81 1157.99,-63.56 1178.63,-54 1192.15,-47.74 1207.13,-41.98 1221.35,-37.03"/>
<polygon fill="black" stroke="black" points="1222.71,-40.26 1231.05,-33.73 1220.46,-33.64 1222.71,-40.26"/>
<text text-anchor="middle" x="1202.13" y="-57.8" font-family="Times,serif" font-size="14.00">previous</text>
</g>
<!-- http://purl.org/dj/kaggle/renaming&#45;and&#45;combining#496894939 -->
<g id="node4" class="node">
<title>http://purl.org/dj/kaggle/renaming&#45;and&#45;combining#496894939</title>
<ellipse fill="none" stroke="black" cx="728.63" cy="-321" rx="148.67" ry="18"/>
<text text-anchor="middle" x="728.63" y="-317.3" font-family="Times,serif" font-size="14.00">496894939 (reviews(0)$0: Movement)</text>
</g>
<!-- http://purl.org/dj/kaggle/renaming&#45;and&#45;combining#496894939&#45;&gt;http://purl.org/dj/kaggle/renaming&#45;and&#45;combining#80085334 -->
<g id="edge4" class="edge">
<title>http://purl.org/dj/kaggle/renaming&#45;and&#45;combining#496894939&#45;&gt;http://purl.org/dj/kaggle/renaming&#45;and&#45;combining#80085334</title>
<path fill="none" stroke="black" d="M851.65,-310.81C887.53,-305.65 926.3,-297.58 960.63,-285 969.27,-281.83 1010.57,-255.84 1041.21,-236.22"/>
<polygon fill="black" stroke="black" points="1043.41,-238.97 1049.94,-230.62 1039.63,-233.08 1043.41,-238.97"/>
<text text-anchor="middle" x="1044.13" y="-263.3" font-family="Times,serif" font-size="14.00">previous</text>
</g>
<!-- http://purl.org/dj/kaggle/renaming&#45;and&#45;combining#29687986 -->
<g id="node5" class="node">
<title>http://purl.org/dj/kaggle/renaming&#45;and&#45;combining#29687986</title>
<ellipse fill="none" stroke="black" cx="647.63" cy="-159" rx="94.78" ry="18"/>
<text text-anchor="middle" x="647.63" y="-155.3" font-family="Times,serif" font-size="14.00">29687986 (0(0): Reuse)</text>
</g>
<!-- http://purl.org/dj/kaggle/renaming&#45;and&#45;combining#496894939&#45;&gt;http://purl.org/dj/kaggle/renaming&#45;and&#45;combining#29687986 -->
<g id="edge5" class="edge">
<title>http://purl.org/dj/kaggle/renaming&#45;and&#45;combining#496894939&#45;&gt;http://purl.org/dj/kaggle/renaming&#45;and&#45;combining#29687986</title>
<path fill="none" stroke="black" d="M714.1,-303.05C700.1,-285.91 679.24,-258.15 666.63,-231 660.22,-217.21 655.66,-200.88 652.62,-187.36"/>
<polygon fill="black" stroke="black" points="655.97,-186.29 650.5,-177.22 649.12,-187.72 655.97,-186.29"/>
<text text-anchor="middle" x="723.13" y="-263.3" font-family="Times,serif" font-size="14.00">previous</text>
</g>
<!-- http://purl.org/dj/kaggle/renaming&#45;and&#45;combining#3018526890 -->
<g id="node6" class="node">
<title>http://purl.org/dj/kaggle/renaming&#45;and&#45;combining#3018526890</title>
<ellipse fill="none" stroke="black" cx="273.63" cy="-159" rx="273.75" ry="18"/>
<text text-anchor="middle" x="273.63" y="-155.3" font-family="Times,serif" font-size="14.00">3018526890 (../input/wine&#45;reviews/winemag&#45;data&#45;130k&#45;v2.csv(0): Reuse)</text>
</g>
<!-- http://purl.org/dj/kaggle/renaming&#45;and&#45;combining#496894939&#45;&gt;http://purl.org/dj/kaggle/renaming&#45;and&#45;combining#3018526890 -->
<g id="edge6" class="edge">
<title>http://purl.org/dj/kaggle/renaming&#45;and&#45;combining#496894939&#45;&gt;http://purl.org/dj/kaggle/renaming&#45;and&#45;combining#3018526890</title>
<path fill="none" stroke="black" d="M680.89,-303.93C663.48,-298.03 643.64,-291.26 625.63,-285 520.9,-248.61 399.07,-205.08 329.68,-180.17"/>
<polygon fill="black" stroke="black" points="330.84,-176.87 320.24,-176.78 328.47,-183.46 330.84,-176.87"/>
<text text-anchor="middle" x="649.13" y="-263.3" font-family="Times,serif" font-size="14.00">previous</text>
</g>
<!-- http://purl.org/dj/kaggle/renaming&#45;and&#45;combining#132776362 -->
<g id="node7" class="node">
<title>http://purl.org/dj/kaggle/renaming&#45;and&#45;combining#132776362</title>
<ellipse fill="none" stroke="black" cx="807.63" cy="-213" rx="131.88" ry="18"/>
<text text-anchor="middle" x="807.63" y="-209.3" font-family="Times,serif" font-size="14.00">132776362 (pd(0)$0: Preparation)</text>
</g>
<!-- http://purl.org/dj/kaggle/renaming&#45;and&#45;combining#496894939&#45;&gt;http://purl.org/dj/kaggle/renaming&#45;and&#45;combining#132776362 -->
<g id="edge7" class="edge">
<title>http://purl.org/dj/kaggle/renaming&#45;and&#45;combining#496894939&#45;&gt;http://purl.org/dj/kaggle/renaming&#45;and&#45;combining#132776362</title>
<path fill="none" stroke="black" d="M741.32,-302.97C754.16,-285.74 774.16,-258.9 788.84,-239.21"/>
<polygon fill="black" stroke="black" points="791.8,-241.1 794.96,-230.99 786.18,-236.92 791.8,-241.1"/>
<text text-anchor="middle" x="804.13" y="-263.3" font-family="Times,serif" font-size="14.00">previous</text>
</g>
<!-- http://purl.org/dj/kaggle/renaming&#45;and&#45;combining#29687986&#45;&gt;http://purl.org/dj/kaggle/renaming&#45;and&#45;combining -->
<g id="edge8" class="edge">
<title>http://purl.org/dj/kaggle/renaming&#45;and&#45;combining#29687986&#45;&gt;http://purl.org/dj/kaggle/renaming&#45;and&#45;combining</title>
<path fill="none" stroke="black" d="M580,-146.33C569.5,-144.53 558.77,-142.71 548.63,-141 524.42,-136.92 455.51,-141.72 439.63,-123 429.27,-110.8 428.79,-98.77 439.63,-87 488.11,-34.31 953.11,-22.44 1170.11,-19.77"/>
<polygon fill="black" stroke="black" points="1170.29,-23.27 1180.25,-19.65 1170.21,-16.27 1170.29,-23.27"/>
<text text-anchor="middle" x="463.13" y="-101.3" font-family="Times,serif" font-size="14.00">previous</text>
</g>
<!-- http://purl.org/dj/kaggle/renaming&#45;and&#45;combining#3018526890&#45;&gt;http://purl.org/dj/kaggle/renaming&#45;and&#45;combining -->
<g id="edge9" class="edge">
<title>http://purl.org/dj/kaggle/renaming&#45;and&#45;combining#3018526890&#45;&gt;http://purl.org/dj/kaggle/renaming&#45;and&#45;combining</title>
<path fill="none" stroke="black" d="M296.25,-140.79C317.46,-125.24 350.48,-102.48 381.63,-87 420.9,-67.48 431.57,-62.38 474.63,-54 604.39,-28.75 981.06,-21.71 1169.93,-19.75"/>
<polygon fill="black" stroke="black" points="1170.19,-23.25 1180.16,-19.65 1170.12,-16.25 1170.19,-23.25"/>
<text text-anchor="middle" x="405.13" y="-101.3" font-family="Times,serif" font-size="14.00">previous</text>
</g>
<!-- http://purl.org/dj/kaggle/renaming&#45;and&#45;combining#30998711 -->
<g id="node8" class="node">
<title>http://purl.org/dj/kaggle/renaming&#45;and&#45;combining#30998711</title>
<ellipse fill="none" stroke="black" cx="590.63" cy="-105" rx="94.78" ry="18"/>
<text text-anchor="middle" x="590.63" y="-101.3" font-family="Times,serif" font-size="14.00">30998711 (5(0): Reuse)</text>
</g>
<!-- http://purl.org/dj/kaggle/renaming&#45;and&#45;combining#132776362&#45;&gt;http://purl.org/dj/kaggle/renaming&#45;and&#45;combining#30998711 -->
<g id="edge10" class="edge">
<title>http://purl.org/dj/kaggle/renaming&#45;and&#45;combining#132776362&#45;&gt;http://purl.org/dj/kaggle/renaming&#45;and&#45;combining#30998711</title>
<path fill="none" stroke="black" d="M785.24,-194.95C778.87,-189.56 772.16,-183.35 766.63,-177 754.16,-162.68 759.15,-151.93 743.63,-141 731.47,-132.44 701.86,-124.81 671.89,-118.88"/>
<polygon fill="black" stroke="black" points="672.22,-115.38 661.74,-116.94 670.9,-122.26 672.22,-115.38"/>
<text text-anchor="middle" x="790.13" y="-155.3" font-family="Times,serif" font-size="14.00">previous</text>
</g>
<!-- http://purl.org/dj/kaggle/renaming&#45;and&#45;combining#445383666 -->
<g id="node9" class="node">
<title>http://purl.org/dj/kaggle/renaming&#45;and&#45;combining#445383666</title>
<ellipse fill="none" stroke="black" cx="835.63" cy="-105" rx="131.88" ry="18"/>
<text text-anchor="middle" x="835.63" y="-101.3" font-family="Times,serif" font-size="14.00">445383666 (max_rows(0): Reuse)</text>
</g>
<!-- http://purl.org/dj/kaggle/renaming&#45;and&#45;combining#132776362&#45;&gt;http://purl.org/dj/kaggle/renaming&#45;and&#45;combining#445383666 -->
<g id="edge11" class="edge">
<title>http://purl.org/dj/kaggle/renaming&#45;and&#45;combining#132776362&#45;&gt;http://purl.org/dj/kaggle/renaming&#45;and&#45;combining#445383666</title>
<path fill="none" stroke="black" d="M812.12,-194.97C816.53,-178.3 823.3,-152.65 828.45,-133.16"/>
<polygon fill="black" stroke="black" points="831.88,-133.9 831.05,-123.34 825.11,-132.12 831.88,-133.9"/>
<text text-anchor="middle" x="850.13" y="-155.3" font-family="Times,serif" font-size="14.00">previous</text>
</g>
<!-- http://purl.org/dj/kaggle/renaming&#45;and&#45;combining#30998711&#45;&gt;http://purl.org/dj/kaggle/renaming&#45;and&#45;combining -->
<g id="edge16" class="edge">
<title>http://purl.org/dj/kaggle/renaming&#45;and&#45;combining#30998711&#45;&gt;http://purl.org/dj/kaggle/renaming&#45;and&#45;combining</title>
<path fill="none" stroke="black" d="M658.81,-92.39C670.73,-90.49 683.03,-88.62 694.63,-87 866.93,-62.93 1068.59,-40.86 1184.78,-28.74"/>
<polygon fill="black" stroke="black" points="1185.48,-32.19 1195.06,-27.67 1184.76,-25.22 1185.48,-32.19"/>
<text text-anchor="middle" x="975.13" y="-57.8" font-family="Times,serif" font-size="14.00">previous</text>
</g>
<!-- http://purl.org/dj/kaggle/renaming&#45;and&#45;combining#445383666&#45;&gt;http://purl.org/dj/kaggle/renaming&#45;and&#45;combining -->
<g id="edge17" class="edge">
<title>http://purl.org/dj/kaggle/renaming&#45;and&#45;combining#445383666&#45;&gt;http://purl.org/dj/kaggle/renaming&#45;and&#45;combining</title>
<path fill="none" stroke="black" d="M909.11,-89.96C990.71,-74.38 1121.81,-49.34 1204.47,-33.55"/>
<polygon fill="black" stroke="black" points="1205.14,-36.98 1214.31,-31.67 1203.83,-30.11 1205.14,-36.98"/>
<text text-anchor="middle" x="1109.13" y="-57.8" font-family="Times,serif" font-size="14.00">previous</text>
</g>
<!-- http://purl.org/dj/kaggle/renaming&#45;and&#45;combining#3997174956 -->
<g id="node10" class="node">
<title>http://purl.org/dj/kaggle/renaming&#45;and&#45;combining#3997174956</title>
<ellipse fill="none" stroke="black" cx="1221.63" cy="-159" rx="224.76" ry="18"/>
<text text-anchor="middle" x="1221.63" y="-155.3" font-family="Times,serif" font-size="14.00">3997174956 (../input/youtube&#45;new/GBvideos.csv(0): Reuse)</text>
</g>
<!-- http://purl.org/dj/kaggle/renaming&#45;and&#45;combining#3997174956&#45;&gt;http://purl.org/dj/kaggle/renaming&#45;and&#45;combining -->
<g id="edge12" class="edge">
<title>http://purl.org/dj/kaggle/renaming&#45;and&#45;combining#3997174956&#45;&gt;http://purl.org/dj/kaggle/renaming&#45;and&#45;combining</title>
<path fill="none" stroke="black" d="M1271.57,-141.26C1279.15,-136.54 1285.99,-130.55 1290.63,-123 1304.87,-99.81 1298.98,-68.08 1291.67,-45.79"/>
<polygon fill="black" stroke="black" points="1294.93,-44.52 1288.28,-36.27 1288.34,-46.87 1294.93,-44.52"/>
<text text-anchor="middle" x="1323.13" y="-101.3" font-family="Times,serif" font-size="14.00">previous</text>
</g>
<!-- http://purl.org/dj/kaggle/renaming&#45;and&#45;combining#1432225591 -->
<g id="node11" class="node">
<title>http://purl.org/dj/kaggle/renaming&#45;and&#45;combining#1432225591</title>
<ellipse fill="none" stroke="black" cx="1116.63" cy="-321" rx="180.87" ry="18"/>
<text text-anchor="middle" x="1116.63" y="-317.3" font-family="Times,serif" font-size="14.00">1432225591 (british_youtube(0)$0: Movement)</text>
</g>
<!-- http://purl.org/dj/kaggle/renaming&#45;and&#45;combining#1432225591&#45;&gt;http://purl.org/dj/kaggle/renaming&#45;and&#45;combining#80085334 -->
<g id="edge13" class="edge">
<title>http://purl.org/dj/kaggle/renaming&#45;and&#45;combining#1432225591&#45;&gt;http://purl.org/dj/kaggle/renaming&#45;and&#45;combining#80085334</title>
<path fill="none" stroke="black" d="M1093.2,-302.96C1087.81,-297.82 1082.75,-291.74 1079.63,-285 1073.39,-271.57 1072.12,-255.14 1072.53,-241.47"/>
<polygon fill="black" stroke="black" points="1076.04,-241.4 1073.16,-231.21 1069.05,-240.97 1076.04,-241.4"/>
<text text-anchor="middle" x="1103.13" y="-263.3" font-family="Times,serif" font-size="14.00">previous</text>
</g>
<!-- http://purl.org/dj/kaggle/renaming&#45;and&#45;combining#1432225591&#45;&gt;http://purl.org/dj/kaggle/renaming&#45;and&#45;combining#132776362 -->
<g id="edge14" class="edge">
<title>http://purl.org/dj/kaggle/renaming&#45;and&#45;combining#1432225591&#45;&gt;http://purl.org/dj/kaggle/renaming&#45;and&#45;combining#132776362</title>
<path fill="none" stroke="black" d="M995.44,-307.64C967.93,-302.51 939.28,-295.26 913.63,-285 884.71,-273.43 855.57,-253.15 835.19,-237.22"/>
<polygon fill="black" stroke="black" points="837.28,-234.41 827.28,-230.91 832.92,-239.88 837.28,-234.41"/>
<text text-anchor="middle" x="937.13" y="-263.3" font-family="Times,serif" font-size="14.00">previous</text>
</g>
<!-- http://purl.org/dj/kaggle/renaming&#45;and&#45;combining#1432225591&#45;&gt;http://purl.org/dj/kaggle/renaming&#45;and&#45;combining#3997174956 -->
<g id="edge15" class="edge">
<title>http://purl.org/dj/kaggle/renaming&#45;and&#45;combining#1432225591&#45;&gt;http://purl.org/dj/kaggle/renaming&#45;and&#45;combining#3997174956</title>
<path fill="none" stroke="black" d="M1175.71,-303.9C1184.82,-299.12 1193.29,-292.95 1199.63,-285 1221.81,-257.16 1224.76,-214.68 1223.91,-187.12"/>
<polygon fill="black" stroke="black" points="1227.4,-186.82 1223.41,-177 1220.41,-187.17 1227.4,-186.82"/>
<text text-anchor="middle" x="1241.13" y="-263.3" font-family="Times,serif" font-size="14.00">previous</text>
</g>
<!-- http://purl.org/dj/kaggle/renaming&#45;and&#45;combining#3992325287 -->
<g id="node12" class="node">
<title>http://purl.org/dj/kaggle/renaming&#45;and&#45;combining#3992325287</title>
<ellipse fill="none" stroke="black" cx="2533.63" cy="-159" rx="224.76" ry="18"/>
<text text-anchor="middle" x="2533.63" y="-155.3" font-family="Times,serif" font-size="14.00">3992325287 (../input/youtube&#45;new/CAvideos.csv(0): Reuse)</text>
</g>
<!-- http://purl.org/dj/kaggle/renaming&#45;and&#45;combining#3992325287&#45;&gt;http://purl.org/dj/kaggle/renaming&#45;and&#45;combining -->
<g id="edge18" class="edge">
<title>http://purl.org/dj/kaggle/renaming&#45;and&#45;combining#3992325287&#45;&gt;http://purl.org/dj/kaggle/renaming&#45;and&#45;combining</title>
<path fill="none" stroke="black" d="M2375,-146.21C2250.69,-136.89 2096.32,-125.11 2081.63,-123 2004.75,-111.98 1987.31,-99.33 1910.63,-87 1780.37,-66.05 1746.79,-68.19 1615.63,-54 1534.75,-45.25 1442.85,-35.68 1375.79,-28.76"/>
<polygon fill="black" stroke="black" points="1375.97,-25.26 1365.66,-27.71 1375.25,-32.22 1375.97,-25.26"/>
<text text-anchor="middle" x="2105.13" y="-101.3" font-family="Times,serif" font-size="14.00">previous</text>
</g>
<!-- http://purl.org/dj/kaggle/renaming&#45;and&#45;combining#1522796401 -->
<g id="node13" class="node">
<title>http://purl.org/dj/kaggle/renaming&#45;and&#45;combining#1522796401</title>
<ellipse fill="none" stroke="black" cx="1984.63" cy="-321" rx="189.57" ry="18"/>
<text text-anchor="middle" x="1984.63" y="-317.3" font-family="Times,serif" font-size="14.00">1522796401 (canadian_youtube(0)$0: Movement)</text>
</g>
<!-- http://purl.org/dj/kaggle/renaming&#45;and&#45;combining#1522796401&#45;&gt;http://purl.org/dj/kaggle/renaming&#45;and&#45;combining#80085334 -->
<g id="edge19" class="edge">
<title>http://purl.org/dj/kaggle/renaming&#45;and&#45;combining#1522796401&#45;&gt;http://purl.org/dj/kaggle/renaming&#45;and&#45;combining#80085334</title>
<path fill="none" stroke="black" d="M1869.96,-306.63C1690.61,-285.71 1346.66,-245.61 1176.32,-225.74"/>
<polygon fill="black" stroke="black" points="1176.69,-222.26 1166.35,-224.58 1175.88,-229.21 1176.69,-222.26"/>
<text text-anchor="middle" x="1689.13" y="-263.3" font-family="Times,serif" font-size="14.00">previous</text>
</g>
<!-- http://purl.org/dj/kaggle/renaming&#45;and&#45;combining#1522796401&#45;&gt;http://purl.org/dj/kaggle/renaming&#45;and&#45;combining#132776362 -->
<g id="edge20" class="edge">
<title>http://purl.org/dj/kaggle/renaming&#45;and&#45;combining#1522796401&#45;&gt;http://purl.org/dj/kaggle/renaming&#45;and&#45;combining#132776362</title>
<path fill="none" stroke="black" d="M1836.38,-309.72C1797.74,-307.27 1756.13,-304.84 1717.63,-303 1686.26,-301.5 1180.36,-299.74 1152.63,-285 1135.2,-275.74 1143.72,-258.86 1126.63,-249 1092.18,-229.14 988.14,-235.38 948.63,-231 936.85,-229.69 924.53,-228.28 912.28,-226.84"/>
<polygon fill="black" stroke="black" points="912.36,-223.33 902.02,-225.64 911.54,-230.28 912.36,-223.33"/>
<text text-anchor="middle" x="1176.13" y="-263.3" font-family="Times,serif" font-size="14.00">previous</text>
</g>
<!-- http://purl.org/dj/kaggle/renaming&#45;and&#45;combining#1522796401&#45;&gt;http://purl.org/dj/kaggle/renaming&#45;and&#45;combining#3992325287 -->
<g id="edge21" class="edge">
<title>http://purl.org/dj/kaggle/renaming&#45;and&#45;combining#1522796401&#45;&gt;http://purl.org/dj/kaggle/renaming&#45;and&#45;combining#3992325287</title>
<path fill="none" stroke="black" d="M2101.55,-306.74C2190.02,-294.13 2313.33,-270.99 2415.63,-231 2446.82,-218.8 2479.22,-198.69 2502.15,-182.98"/>
<polygon fill="black" stroke="black" points="2504.25,-185.79 2510.46,-177.2 2500.25,-180.04 2504.25,-185.79"/>
<text text-anchor="middle" x="2383.13" y="-263.3" font-family="Times,serif" font-size="14.00">previous</text>
</g>
<!-- http://purl.org/dj/kaggle/renaming&#45;and&#45;combining#497091550 -->
<g id="node14" class="node">
<title>http://purl.org/dj/kaggle/renaming&#45;and&#45;combining#497091550</title>
<ellipse fill="none" stroke="black" cx="2256.63" cy="-213" rx="150.27" ry="18"/>
<text text-anchor="middle" x="2256.63" y="-209.3" font-family="Times,serif" font-size="14.00">497091550 (reviews(0)$3: Preparation)</text>
</g>
<!-- http://purl.org/dj/kaggle/renaming&#45;and&#45;combining#284361465 -->
<g id="node15" class="node">
<title>http://purl.org/dj/kaggle/renaming&#45;and&#45;combining#284361465</title>
<ellipse fill="none" stroke="black" cx="1787.63" cy="-105" rx="114.28" ry="18"/>
<text text-anchor="middle" x="1787.63" y="-101.3" font-family="Times,serif" font-size="14.00">284361465 (fields(0): Reuse)</text>
</g>
<!-- http://purl.org/dj/kaggle/renaming&#45;and&#45;combining#497091550&#45;&gt;http://purl.org/dj/kaggle/renaming&#45;and&#45;combining#284361465 -->
<g id="edge22" class="edge">
<title>http://purl.org/dj/kaggle/renaming&#45;and&#45;combining#497091550&#45;&gt;http://purl.org/dj/kaggle/renaming&#45;and&#45;combining#284361465</title>
<path fill="none" stroke="black" d="M2253.62,-195C2249.92,-176.23 2243.09,-147.77 2234.63,-141 2234.63,-141 2029.93,-124.97 1897.58,-114.61"/>
<polygon fill="black" stroke="black" points="1897.63,-111.1 1887.38,-113.81 1897.08,-118.08 1897.63,-111.1"/>
<text text-anchor="middle" x="2273.13" y="-155.3" font-family="Times,serif" font-size="14.00">previous</text>
</g>
<!-- http://purl.org/dj/kaggle/renaming&#45;and&#45;combining#284361465&#45;&gt;http://purl.org/dj/kaggle/renaming&#45;and&#45;combining -->
<g id="edge23" class="edge">
<title>http://purl.org/dj/kaggle/renaming&#45;and&#45;combining#284361465&#45;&gt;http://purl.org/dj/kaggle/renaming&#45;and&#45;combining</title>
<path fill="none" stroke="black" d="M1712.54,-91.41C1618.56,-75.66 1458.23,-48.78 1361.58,-32.57"/>
<polygon fill="black" stroke="black" points="1362.01,-29.09 1351.56,-30.89 1360.85,-36 1362.01,-29.09"/>
<text text-anchor="middle" x="1588.13" y="-57.8" font-family="Times,serif" font-size="14.00">previous</text>
</g>
<!-- http://purl.org/dj/kaggle/renaming&#45;and&#45;combining#326238964 -->
<g id="node16" class="node">
<title>http://purl.org/dj/kaggle/renaming&#45;and&#45;combining#326238964</title>
<ellipse fill="none" stroke="black" cx="1634.63" cy="-408" rx="139.98" ry="18"/>
<text text-anchor="middle" x="1634.63" y="-404.3" font-family="Times,serif" font-size="14.00">326238964 (right(0)$0: Preparation)</text>
</g>
<!-- http://purl.org/dj/kaggle/renaming&#45;and&#45;combining#326238964&#45;&gt;http://purl.org/dj/kaggle/renaming&#45;and&#45;combining#1432225591 -->
<g id="edge24" class="edge">
<title>http://purl.org/dj/kaggle/renaming&#45;and&#45;combining#326238964&#45;&gt;http://purl.org/dj/kaggle/renaming&#45;and&#45;combining#1432225591</title>
<path fill="none" stroke="black" d="M1551.97,-393.44C1460.57,-378.44 1313.35,-354.28 1215.8,-338.27"/>
<polygon fill="black" stroke="black" points="1216.37,-334.82 1205.93,-336.65 1215.23,-341.73 1216.37,-334.82"/>
<text text-anchor="middle" x="1431.13" y="-360.8" font-family="Times,serif" font-size="14.00">previous</text>
</g>
<!-- http://purl.org/dj/kaggle/renaming&#45;and&#45;combining#1449859517 -->
<g id="node17" class="node">
<title>http://purl.org/dj/kaggle/renaming&#45;and&#45;combining#1449859517</title>
<ellipse fill="none" stroke="black" cx="1842.63" cy="-159" rx="391.03" ry="18"/>
<text text-anchor="middle" x="1842.63" y="-155.3" font-family="Times,serif" font-size="14.00">1449859517 ([&lt;_ast.Constant object at 0x12f8b3040&gt;, &lt;_ast.Constant object at 0x12f8b3490&gt;](0): Reuse)</text>
</g>
<!-- http://purl.org/dj/kaggle/renaming&#45;and&#45;combining#326238964&#45;&gt;http://purl.org/dj/kaggle/renaming&#45;and&#45;combining#1449859517 -->
<g id="edge25" class="edge">
<title>http://purl.org/dj/kaggle/renaming&#45;and&#45;combining#326238964&#45;&gt;http://purl.org/dj/kaggle/renaming&#45;and&#45;combining#1449859517</title>
<path fill="none" stroke="black" d="M1635.41,-389.85C1637.68,-358.57 1646.49,-291.57 1680.63,-249 1706.13,-217.19 1746.22,-195.03 1780.14,-180.78"/>
<polygon fill="black" stroke="black" points="1781.58,-183.98 1789.53,-176.97 1778.94,-177.49 1781.58,-183.98"/>
<text text-anchor="middle" x="1676.13" y="-317.3" font-family="Times,serif" font-size="14.00">previous</text>
</g>
<!-- http://purl.org/dj/kaggle/renaming&#45;and&#45;combining#1449859517&#45;&gt;http://purl.org/dj/kaggle/renaming&#45;and&#45;combining -->
<g id="edge26" class="edge">
<title>http://purl.org/dj/kaggle/renaming&#45;and&#45;combining#1449859517&#45;&gt;http://purl.org/dj/kaggle/renaming&#45;and&#45;combining</title>
<path fill="none" stroke="black" d="M1717.93,-141.9C1685.12,-136.77 1649.89,-130.45 1617.63,-123 1515.2,-99.36 1398.58,-60.65 1332.88,-37.72"/>
<polygon fill="black" stroke="black" points="1333.77,-34.32 1323.17,-34.32 1331.45,-40.93 1333.77,-34.32"/>
<text text-anchor="middle" x="1641.13" y="-101.3" font-family="Times,serif" font-size="14.00">previous</text>
</g>
<!-- http://purl.org/dj/kaggle/renaming&#45;and&#45;combining#132841899 -->
<g id="node18" class="node">
<title>http://purl.org/dj/kaggle/renaming&#45;and&#45;combining#132841899</title>
<ellipse fill="none" stroke="black" cx="2772.63" cy="-213" rx="131.88" ry="18"/>
<text text-anchor="middle" x="2772.63" y="-209.3" font-family="Times,serif" font-size="14.00">132841899 (pd(0)$1: Preparation)</text>
</g>
<!-- http://purl.org/dj/kaggle/renaming&#45;and&#45;combining#1721439841 -->
<g id="node19" class="node">
<title>http://purl.org/dj/kaggle/renaming&#45;and&#45;combining#1721439841</title>
<ellipse fill="none" stroke="black" cx="2509.63" cy="-105" rx="371.53" ry="18"/>
<text text-anchor="middle" x="2509.63" y="-101.3" font-family="Times,serif" font-size="14.00">1721439841 ([&lt;_ast.Name object at 0x12f8b39d0&gt;, &lt;_ast.Name object at 0x12f8b3460&gt;](0): Reuse)</text>
</g>
<!-- http://purl.org/dj/kaggle/renaming&#45;and&#45;combining#132841899&#45;&gt;http://purl.org/dj/kaggle/renaming&#45;and&#45;combining#1721439841 -->
<g id="edge27" class="edge">
<title>http://purl.org/dj/kaggle/renaming&#45;and&#45;combining#132841899&#45;&gt;http://purl.org/dj/kaggle/renaming&#45;and&#45;combining#1721439841</title>
<path fill="none" stroke="black" d="M2774.65,-194.78C2775.52,-178.54 2773.92,-154.7 2759.63,-141 2751.61,-133.32 2736.98,-127.3 2718.66,-122.6"/>
<polygon fill="black" stroke="black" points="2719.29,-119.15 2708.75,-120.26 2717.68,-125.96 2719.29,-119.15"/>
<text text-anchor="middle" x="2798.13" y="-155.3" font-family="Times,serif" font-size="14.00">previous</text>
</g>
<!-- http://purl.org/dj/kaggle/renaming&#45;and&#45;combining#1721439841&#45;&gt;http://purl.org/dj/kaggle/renaming&#45;and&#45;combining -->
<g id="edge28" class="edge">
<title>http://purl.org/dj/kaggle/renaming&#45;and&#45;combining#1721439841&#45;&gt;http://purl.org/dj/kaggle/renaming&#45;and&#45;combining</title>
<path fill="none" stroke="black" d="M2380.7,-88.11C2286.81,-77.05 2156.51,-62.77 2041.63,-54 1809.98,-36.31 1537.93,-26.42 1389.99,-21.95"/>
<polygon fill="black" stroke="black" points="1389.65,-18.44 1379.55,-21.64 1389.45,-25.44 1389.65,-18.44"/>
<text text-anchor="middle" x="2220.13" y="-57.8" font-family="Times,serif" font-size="14.00">previous</text>
</g>
<!-- http://purl.org/dj/kaggle/renaming&#45;and&#45;combining#496960476 -->
<g id="node20" class="node">
<title>http://purl.org/dj/kaggle/renaming&#45;and&#45;combining#496960476</title>
<ellipse fill="none" stroke="black" cx="728.63" cy="-408" rx="150.27" ry="18"/>
<text text-anchor="middle" x="728.63" y="-404.3" font-family="Times,serif" font-size="14.00">496960476 (reviews(0)$1: Preparation)</text>
</g>
<!-- http://purl.org/dj/kaggle/renaming&#45;and&#45;combining#496960476&#45;&gt;http://purl.org/dj/kaggle/renaming&#45;and&#45;combining#496894939 -->
<g id="edge29" class="edge">
<title>http://purl.org/dj/kaggle/renaming&#45;and&#45;combining#496960476&#45;&gt;http://purl.org/dj/kaggle/renaming&#45;and&#45;combining#496894939</title>
<path fill="none" stroke="black" d="M728.63,-389.8C728.63,-378.16 728.63,-362.55 728.63,-349.24"/>
<polygon fill="black" stroke="black" points="732.13,-349.18 728.63,-339.18 725.13,-349.18 732.13,-349.18"/>
<text text-anchor="middle" x="752.13" y="-360.8" font-family="Times,serif" font-size="14.00">previous</text>
</g>
<!-- http://purl.org/dj/kaggle/renaming&#45;and&#45;combining#251265665 -->
<g id="node21" class="node">
<title>http://purl.org/dj/kaggle/renaming&#45;and&#45;combining#251265665</title>
<ellipse fill="none" stroke="black" cx="2016.63" cy="-408" rx="134.58" ry="18"/>
<text text-anchor="middle" x="2016.63" y="-404.3" font-family="Times,serif" font-size="14.00">251265665 (left(0)$0: Preparation)</text>
</g>
<!-- http://purl.org/dj/kaggle/renaming&#45;and&#45;combining#251265665&#45;&gt;http://purl.org/dj/kaggle/renaming&#45;and&#45;combining#1522796401 -->
<g id="edge30" class="edge">
<title>http://purl.org/dj/kaggle/renaming&#45;and&#45;combining#251265665&#45;&gt;http://purl.org/dj/kaggle/renaming&#45;and&#45;combining#1522796401</title>
<path fill="none" stroke="black" d="M2010.15,-389.8C2005.73,-378.05 1999.77,-362.24 1994.73,-348.84"/>
<polygon fill="black" stroke="black" points="1997.89,-347.3 1991.09,-339.18 1991.34,-349.77 1997.89,-347.3"/>
<text text-anchor="middle" x="2026.13" y="-360.8" font-family="Times,serif" font-size="14.00">previous</text>
</g>
<!-- http://purl.org/dj/kaggle/renaming&#45;and&#45;combining#1521687072 -->
<g id="node22" class="node">
<title>http://purl.org/dj/kaggle/renaming&#45;and&#45;combining#1521687072</title>
<ellipse fill="none" stroke="black" cx="2899.63" cy="-267" rx="389.13" ry="18"/>
<text text-anchor="middle" x="2899.63" y="-263.3" font-family="Times,serif" font-size="14.00">1521687072 ([&lt;_ast.Constant object at 0x12f8b3760&gt;, &lt;_ast.Constant object at 0x12f8b3af0&gt;](0): Reuse)</text>
</g>
<!-- http://purl.org/dj/kaggle/renaming&#45;and&#45;combining#251265665&#45;&gt;http://purl.org/dj/kaggle/renaming&#45;and&#45;combining#1521687072 -->
<g id="edge31" class="edge">
<title>http://purl.org/dj/kaggle/renaming&#45;and&#45;combining#251265665&#45;&gt;http://purl.org/dj/kaggle/renaming&#45;and&#45;combining#1521687072</title>
<path fill="none" stroke="black" d="M2100.09,-393.86C2259.06,-368.84 2605.42,-314.31 2785.59,-285.95"/>
<polygon fill="black" stroke="black" points="2786.3,-289.38 2795.63,-284.37 2785.21,-282.47 2786.3,-289.38"/>
<text text-anchor="middle" x="2351.13" y="-360.8" font-family="Times,serif" font-size="14.00">previous</text>
</g>
<!-- http://purl.org/dj/kaggle/renaming&#45;and&#45;combining#1521687072&#45;&gt;http://purl.org/dj/kaggle/renaming&#45;and&#45;combining -->
<g id="edge32" class="edge">
<title>http://purl.org/dj/kaggle/renaming&#45;and&#45;combining#1521687072&#45;&gt;http://purl.org/dj/kaggle/renaming&#45;and&#45;combining</title>
<path fill="none" stroke="black" d="M2907.95,-248.95C2910.27,-243.36 2912.46,-237.04 2913.63,-231 2925.88,-167.36 2939.94,-129.06 2890.63,-87 2833.63,-38.4 1744.95,-23.52 1390.87,-19.96"/>
<polygon fill="black" stroke="black" points="1390.89,-16.46 1380.86,-19.86 1390.82,-23.46 1390.89,-16.46"/>
<text text-anchor="middle" x="2949.13" y="-155.3" font-family="Times,serif" font-size="14.00">previous</text>
</g>
</g>
</svg>
