<?xml version="1.0" encoding="UTF-8" standalone="no"?>
<!DOCTYPE svg PUBLIC "-//W3C//DTD SVG 1.1//EN"
 "http://www.w3.org/Graphics/SVG/1.1/DTD/svg11.dtd">
<!-- Generated by graphviz version 2.47.1 (20210417.1919)
 -->
<!-- Pages: 1 -->
<svg width="2692pt" height="737pt"
 viewBox="0.00 0.00 2691.74 737.00" xmlns="http://www.w3.org/2000/svg" xmlns:xlink="http://www.w3.org/1999/xlink">
<g id="graph0" class="graph" transform="scale(1 1) rotate(0) translate(4 733)">
<polygon fill="white" stroke="transparent" points="-4,4 -4,-733 2687.74,-733 2687.74,4 -4,4"/>
<!-- http://purl.org/dj/kaggle/renaming&#45;and&#45;combining#3018526890 -->
<g id="node1" class="node">
<title>http://purl.org/dj/kaggle/renaming&#45;and&#45;combining#3018526890</title>
<ellipse fill="none" stroke="black" cx="293.74" cy="-321" rx="273.75" ry="18"/>
<text text-anchor="middle" x="293.74" y="-317.3" font-family="Times,serif" font-size="14.00">3018526890 (../input/wine&#45;reviews/winemag&#45;data&#45;130k&#45;v2.csv(0): Reuse)</text>
</g>
<!-- http://purl.org/dj/kaggle/renaming&#45;and&#45;combining -->
<g id="node2" class="node">
<title>http://purl.org/dj/kaggle/renaming&#45;and&#45;combining</title>
<ellipse fill="none" stroke="black" cx="1060.74" cy="-18" rx="221.76" ry="18"/>
<text text-anchor="middle" x="1060.74" y="-14.3" font-family="Times,serif" font-size="14.00">renaming&#45;and&#45;combining (renaming&#45;and&#45;combining.ipynb)</text>
</g>
<!-- http://purl.org/dj/kaggle/renaming&#45;and&#45;combining#3018526890&#45;&gt;http://purl.org/dj/kaggle/renaming&#45;and&#45;combining -->
<g id="edge1" class="edge">
<title>http://purl.org/dj/kaggle/renaming&#45;and&#45;combining#3018526890&#45;&gt;http://purl.org/dj/kaggle/renaming&#45;and&#45;combining</title>
<path fill="none" stroke="black" d="M305.59,-302.83C340.82,-253.44 450.62,-110.89 581.74,-54 626.81,-34.45 731.86,-25.48 832.13,-21.5"/>
<polygon fill="black" stroke="black" points="832.27,-24.99 842.13,-21.11 832.01,-18 832.27,-24.99"/>
<text text-anchor="middle" x="482.74" y="-155.3" font-family="Times,serif" font-size="14.00">appearsIn ()</text>
</g>
<!-- http://purl.org/dj/kaggle/renaming&#45;and&#45;combining#80085334 -->
<g id="node3" class="node">
<title>http://purl.org/dj/kaggle/renaming&#45;and&#45;combining#80085334</title>
<ellipse fill="none" stroke="black" cx="841.74" cy="-213" rx="124.28" ry="18"/>
<text text-anchor="middle" x="841.74" y="-209.3" font-family="Times,serif" font-size="14.00">80085334 (pd(0): Visualisation)</text>
</g>
<!-- http://purl.org/dj/kaggle/renaming&#45;and&#45;combining#80085334&#45;&gt;http://purl.org/dj/kaggle/renaming&#45;and&#45;combining -->
<g id="edge2" class="edge">
<title>http://purl.org/dj/kaggle/renaming&#45;and&#45;combining#80085334&#45;&gt;http://purl.org/dj/kaggle/renaming&#45;and&#45;combining</title>
<path fill="none" stroke="black" d="M821.91,-194.97C794.85,-169.68 752.63,-121.46 779.74,-87 799.15,-62.33 866.65,-45.54 930.63,-34.81"/>
<polygon fill="black" stroke="black" points="931.56,-38.21 940.86,-33.14 930.43,-31.3 931.56,-38.21"/>
<text text-anchor="middle" x="812.74" y="-101.3" font-family="Times,serif" font-size="14.00">appearsIn ()</text>
</g>
<!-- http://purl.org/dj/python/lib/144966264 -->
<g id="node4" class="node">
<title>http://purl.org/dj/python/lib/144966264</title>
<ellipse fill="none" stroke="black" cx="963.74" cy="-105" rx="109.38" ry="18"/>
<text text-anchor="middle" x="963.74" y="-101.3" font-family="Times,serif" font-size="14.00">144966264 (pandas: Reuse)</text>
</g>
<!-- http://purl.org/dj/kaggle/renaming&#45;and&#45;combining#80085334&#45;&gt;http://purl.org/dj/python/lib/144966264 -->
<g id="edge3" class="edge">
<title>http://purl.org/dj/kaggle/renaming&#45;and&#45;combining#80085334&#45;&gt;http://purl.org/dj/python/lib/144966264</title>
<path fill="none" stroke="black" d="M833.29,-195C826.86,-179.38 820.94,-156.37 832.74,-141 839.24,-132.54 857.55,-125.68 878.5,-120.36"/>
<polygon fill="black" stroke="black" points="879.37,-123.75 888.28,-118.02 877.74,-116.94 879.37,-123.75"/>
<text text-anchor="middle" x="877.74" y="-155.3" font-family="Times,serif" font-size="14.00">assignedFrom ()</text>
</g>
<!-- http://purl.org/dj/python/lib/144966264&#45;&gt;http://purl.org/dj/kaggle/renaming&#45;and&#45;combining -->
<g id="edge4" class="edge">
<title>http://purl.org/dj/python/lib/144966264&#45;&gt;http://purl.org/dj/kaggle/renaming&#45;and&#45;combining</title>
<path fill="none" stroke="black" d="M980.65,-86.87C990.62,-76.99 1003.62,-64.49 1015.74,-54 1020.25,-50.1 1025.12,-46.1 1029.95,-42.26"/>
<polygon fill="black" stroke="black" points="1032.23,-44.92 1037.94,-35.99 1027.91,-39.41 1032.23,-44.92"/>
<text text-anchor="middle" x="1055.24" y="-57.8" font-family="Times,serif" font-size="14.00">importedBy ()</text>
</g>
<!-- http://purl.org/dj/kaggle/renaming&#45;and&#45;combining#3992325287 -->
<g id="node5" class="node">
<title>http://purl.org/dj/kaggle/renaming&#45;and&#45;combining#3992325287</title>
<ellipse fill="none" stroke="black" cx="835.74" cy="-267" rx="224.76" ry="18"/>
<text text-anchor="middle" x="835.74" y="-263.3" font-family="Times,serif" font-size="14.00">3992325287 (../input/youtube&#45;new/CAvideos.csv(0): Reuse)</text>
</g>
<!-- http://purl.org/dj/kaggle/renaming&#45;and&#45;combining#3992325287&#45;&gt;http://purl.org/dj/kaggle/renaming&#45;and&#45;combining -->
<g id="edge5" class="edge">
<title>http://purl.org/dj/kaggle/renaming&#45;and&#45;combining#3992325287&#45;&gt;http://purl.org/dj/kaggle/renaming&#45;and&#45;combining</title>
<path fill="none" stroke="black" d="M749.33,-250.36C730.61,-245.19 714.63,-238.73 708.74,-231 704.32,-225.2 704.74,-152.32 709.74,-141 732.48,-89.52 750.97,-78.27 801.74,-54 820.6,-44.99 859.42,-37.93 901.39,-32.59"/>
<polygon fill="black" stroke="black" points="902.04,-36.03 911.54,-31.33 901.19,-29.08 902.04,-36.03"/>
<text text-anchor="middle" x="742.74" y="-155.3" font-family="Times,serif" font-size="14.00">appearsIn ()</text>
</g>
<!-- http://purl.org/dj/kaggle/renaming&#45;and&#45;combining#251265665 -->
<g id="node6" class="node">
<title>http://purl.org/dj/kaggle/renaming&#45;and&#45;combining#251265665</title>
<ellipse fill="none" stroke="black" cx="1095.74" cy="-516" rx="140.28" ry="18"/>
<text text-anchor="middle" x="1095.74" y="-512.3" font-family="Times,serif" font-size="14.00">251265665 (left(0)$0: Visualisation)</text>
</g>
<!-- http://purl.org/dj/kaggle/renaming&#45;and&#45;combining#1522796401 -->
<g id="node7" class="node">
<title>http://purl.org/dj/kaggle/renaming&#45;and&#45;combining#1522796401</title>
<ellipse fill="none" stroke="black" cx="1095.74" cy="-429" rx="189.57" ry="18"/>
<text text-anchor="middle" x="1095.74" y="-425.3" font-family="Times,serif" font-size="14.00">1522796401 (canadian_youtube(0)$0: Movement)</text>
</g>
<!-- http://purl.org/dj/kaggle/renaming&#45;and&#45;combining#251265665&#45;&gt;http://purl.org/dj/kaggle/renaming&#45;and&#45;combining#1522796401 -->
<g id="edge6" class="edge">
<title>http://purl.org/dj/kaggle/renaming&#45;and&#45;combining#251265665&#45;&gt;http://purl.org/dj/kaggle/renaming&#45;and&#45;combining#1522796401</title>
<path fill="none" stroke="black" d="M1095.74,-497.8C1095.74,-486.16 1095.74,-470.55 1095.74,-457.24"/>
<polygon fill="black" stroke="black" points="1099.24,-457.18 1095.74,-447.18 1092.24,-457.18 1099.24,-457.18"/>
<text text-anchor="middle" x="1128.24" y="-468.8" font-family="Times,serif" font-size="14.00">set_index ()</text>
</g>
<!-- http://purl.org/dj/kaggle/renaming&#45;and&#45;combining#4283505583 -->
<g id="node8" class="node">
<title>http://purl.org/dj/kaggle/renaming&#45;and&#45;combining#4283505583</title>
<ellipse fill="none" stroke="black" cx="595.74" cy="-375" rx="416.73" ry="18"/>
<text text-anchor="middle" x="595.74" y="-371.3" font-family="Times,serif" font-size="14.00">4283505583 ([&lt;_ast.Constant object at 0x7fd50080d8b0&gt;, &lt;_ast.Constant object at 0x7fd50080da00&gt;](0): Reuse)</text>
</g>
<!-- http://purl.org/dj/kaggle/renaming&#45;and&#45;combining#251265665&#45;&gt;http://purl.org/dj/kaggle/renaming&#45;and&#45;combining#4283505583 -->
<g id="edge7" class="edge">
<title>http://purl.org/dj/kaggle/renaming&#45;and&#45;combining#251265665&#45;&gt;http://purl.org/dj/kaggle/renaming&#45;and&#45;combining#4283505583</title>
<path fill="none" stroke="black" d="M1039.84,-499.46C948.22,-473.99 766.29,-423.41 666.06,-395.55"/>
<polygon fill="black" stroke="black" points="666.9,-392.15 656.33,-392.84 665.02,-398.89 666.9,-392.15"/>
<text text-anchor="middle" x="1002.24" y="-468.8" font-family="Times,serif" font-size="14.00">set_index ()</text>
</g>
<!-- http://purl.org/dj/kaggle/renaming&#45;and&#45;combining#1522796401&#45;&gt;http://purl.org/dj/kaggle/renaming&#45;and&#45;combining#3992325287 -->
<g id="edge8" class="edge">
<title>http://purl.org/dj/kaggle/renaming&#45;and&#45;combining#1522796401&#45;&gt;http://purl.org/dj/kaggle/renaming&#45;and&#45;combining#3992325287</title>
<path fill="none" stroke="black" d="M1101.63,-410.82C1105.79,-395.29 1108.87,-372.54 1097.74,-357 1070.31,-318.71 1025.45,-296.69 980.54,-284.1"/>
<polygon fill="black" stroke="black" points="981.23,-280.66 970.67,-281.48 979.43,-287.43 981.23,-280.66"/>
<text text-anchor="middle" x="1136.24" y="-371.3" font-family="Times,serif" font-size="14.00">read_csv ()</text>
</g>
<!-- http://purl.org/dj/kaggle/renaming&#45;and&#45;combining#132776362 -->
<g id="node9" class="node">
<title>http://purl.org/dj/kaggle/renaming&#45;and&#45;combining#132776362</title>
<ellipse fill="none" stroke="black" cx="1285.74" cy="-321" rx="137.58" ry="18"/>
<text text-anchor="middle" x="1285.74" y="-317.3" font-family="Times,serif" font-size="14.00">132776362 (pd(0)$0: Visualisation)</text>
</g>
<!-- http://purl.org/dj/kaggle/renaming&#45;and&#45;combining#1522796401&#45;&gt;http://purl.org/dj/kaggle/renaming&#45;and&#45;combining#132776362 -->
<g id="edge9" class="edge">
<title>http://purl.org/dj/kaggle/renaming&#45;and&#45;combining#1522796401&#45;&gt;http://purl.org/dj/kaggle/renaming&#45;and&#45;combining#132776362</title>
<path fill="none" stroke="black" d="M1143.8,-411.51C1157.34,-406.22 1171.88,-399.92 1184.74,-393 1210.34,-379.22 1237.16,-360.12 1256.73,-345.19"/>
<polygon fill="black" stroke="black" points="1258.87,-347.96 1264.64,-339.08 1254.59,-342.42 1258.87,-347.96"/>
<text text-anchor="middle" x="1269.24" y="-371.3" font-family="Times,serif" font-size="14.00">read_csv ()</text>
</g>
<!-- http://purl.org/dj/kaggle/renaming&#45;and&#45;combining#4283505583&#45;&gt;http://purl.org/dj/kaggle/renaming&#45;and&#45;combining -->
<g id="edge10" class="edge">
<title>http://purl.org/dj/kaggle/renaming&#45;and&#45;combining#4283505583&#45;&gt;http://purl.org/dj/kaggle/renaming&#45;and&#45;combining</title>
<path fill="none" stroke="black" d="M595.74,-356.74C595.74,-335.76 595.74,-299.28 595.74,-268 595.74,-268 595.74,-268 595.74,-104 595.74,-71.72 771.33,-47.02 906.71,-32.77"/>
<polygon fill="black" stroke="black" points="907.21,-36.23 916.8,-31.72 906.49,-29.27 907.21,-36.23"/>
<text text-anchor="middle" x="628.74" y="-209.3" font-family="Times,serif" font-size="14.00">appearsIn ()</text>
</g>
<!-- http://purl.org/dj/kaggle/renaming&#45;and&#45;combining#132776362&#45;&gt;http://purl.org/dj/kaggle/renaming&#45;and&#45;combining#80085334 -->
<g id="edge11" class="edge">
<title>http://purl.org/dj/kaggle/renaming&#45;and&#45;combining#132776362&#45;&gt;http://purl.org/dj/kaggle/renaming&#45;and&#45;combining#80085334</title>
<path fill="none" stroke="black" d="M1180.28,-309.41C1140.53,-303.81 1100.99,-295.82 1084.74,-285 1068.94,-274.48 1077.62,-259.41 1061.74,-249 1043.92,-237.32 1000.7,-229.22 957.23,-223.77"/>
<polygon fill="black" stroke="black" points="957.43,-220.27 947.08,-222.54 956.59,-227.22 957.43,-220.27"/>
<text text-anchor="middle" x="1119.74" y="-263.3" font-family="Times,serif" font-size="14.00">set_option ()</text>
</g>
<!-- http://purl.org/dj/kaggle/renaming&#45;and&#45;combining#445383666 -->
<g id="node10" class="node">
<title>http://purl.org/dj/kaggle/renaming&#45;and&#45;combining#445383666</title>
<ellipse fill="none" stroke="black" cx="1063.74" cy="-159" rx="131.88" ry="18"/>
<text text-anchor="middle" x="1063.74" y="-155.3" font-family="Times,serif" font-size="14.00">445383666 (max_rows(0): Reuse)</text>
</g>
<!-- http://purl.org/dj/kaggle/renaming&#45;and&#45;combining#132776362&#45;&gt;http://purl.org/dj/kaggle/renaming&#45;and&#45;combining#445383666 -->
<g id="edge12" class="edge">
<title>http://purl.org/dj/kaggle/renaming&#45;and&#45;combining#132776362&#45;&gt;http://purl.org/dj/kaggle/renaming&#45;and&#45;combining#445383666</title>
<path fill="none" stroke="black" d="M1249.82,-303.61C1238.92,-298.16 1227.1,-291.74 1216.74,-285 1169.19,-254.03 1119.2,-210.88 1089.78,-184.23"/>
<polygon fill="black" stroke="black" points="1091.79,-181.33 1082.05,-177.18 1087.07,-186.5 1091.79,-181.33"/>
<text text-anchor="middle" x="1251.74" y="-263.3" font-family="Times,serif" font-size="14.00">set_option ()</text>
</g>
<!-- http://purl.org/dj/kaggle/renaming&#45;and&#45;combining#30998711 -->
<g id="node11" class="node">
<title>http://purl.org/dj/kaggle/renaming&#45;and&#45;combining#30998711</title>
<ellipse fill="none" stroke="black" cx="1299.74" cy="-213" rx="94.78" ry="18"/>
<text text-anchor="middle" x="1299.74" y="-209.3" font-family="Times,serif" font-size="14.00">30998711 (5(0): Reuse)</text>
</g>
<!-- http://purl.org/dj/kaggle/renaming&#45;and&#45;combining#132776362&#45;&gt;http://purl.org/dj/kaggle/renaming&#45;and&#45;combining#30998711 -->
<g id="edge13" class="edge">
<title>http://purl.org/dj/kaggle/renaming&#45;and&#45;combining#132776362&#45;&gt;http://purl.org/dj/kaggle/renaming&#45;and&#45;combining#30998711</title>
<path fill="none" stroke="black" d="M1287.99,-302.97C1290.18,-286.38 1293.55,-260.88 1296.12,-241.43"/>
<polygon fill="black" stroke="black" points="1299.61,-241.71 1297.45,-231.34 1292.67,-240.8 1299.61,-241.71"/>
<text text-anchor="middle" x="1330.74" y="-263.3" font-family="Times,serif" font-size="14.00">set_option ()</text>
</g>
<!-- http://purl.org/dj/kaggle/renaming&#45;and&#45;combining#445383666&#45;&gt;http://purl.org/dj/kaggle/renaming&#45;and&#45;combining -->
<g id="edge14" class="edge">
<title>http://purl.org/dj/kaggle/renaming&#45;and&#45;combining#445383666&#45;&gt;http://purl.org/dj/kaggle/renaming&#45;and&#45;combining</title>
<path fill="none" stroke="black" d="M1075.96,-140.72C1089.16,-119.8 1106.78,-83.68 1094.74,-54 1093.32,-50.5 1091.36,-47.15 1089.09,-44.02"/>
<polygon fill="black" stroke="black" points="1091.66,-41.63 1082.54,-36.24 1086.31,-46.14 1091.66,-41.63"/>
<text text-anchor="middle" x="1130.74" y="-101.3" font-family="Times,serif" font-size="14.00">appearsIn ()</text>
</g>
<!-- http://purl.org/dj/kaggle/renaming&#45;and&#45;combining#30998711&#45;&gt;http://purl.org/dj/kaggle/renaming&#45;and&#45;combining -->
<g id="edge15" class="edge">
<title>http://purl.org/dj/kaggle/renaming&#45;and&#45;combining#30998711&#45;&gt;http://purl.org/dj/kaggle/renaming&#45;and&#45;combining</title>
<path fill="none" stroke="black" d="M1256.33,-196.81C1245.26,-191.63 1233.91,-185.07 1224.74,-177 1189.19,-145.73 1201.19,-120.51 1167.74,-87 1149.32,-68.55 1125.03,-52.61 1104.25,-40.81"/>
<polygon fill="black" stroke="black" points="1105.73,-37.63 1095.29,-35.85 1102.35,-43.76 1105.73,-37.63"/>
<text text-anchor="middle" x="1224.74" y="-101.3" font-family="Times,serif" font-size="14.00">appearsIn ()</text>
</g>
<!-- http://purl.org/dj/kaggle/renaming&#45;and&#45;combining#284361465 -->
<g id="node12" class="node">
<title>http://purl.org/dj/kaggle/renaming&#45;and&#45;combining#284361465</title>
<ellipse fill="none" stroke="black" cx="2242.74" cy="-570" rx="114.28" ry="18"/>
<text text-anchor="middle" x="2242.74" y="-566.3" font-family="Times,serif" font-size="14.00">284361465 (fields(0): Reuse)</text>
</g>
<!-- http://purl.org/dj/kaggle/renaming&#45;and&#45;combining#284361465&#45;&gt;http://purl.org/dj/kaggle/renaming&#45;and&#45;combining -->
<g id="edge16" class="edge">
<title>http://purl.org/dj/kaggle/renaming&#45;and&#45;combining#284361465&#45;&gt;http://purl.org/dj/kaggle/renaming&#45;and&#45;combining</title>
<path fill="none" stroke="black" d="M2347.7,-562.7C2458.64,-553.07 2617.74,-529.51 2617.74,-473.5 2617.74,-473.5 2617.74,-473.5 2617.74,-104 2617.74,-38.4 1724.98,-23.41 1291.5,-20"/>
<polygon fill="black" stroke="black" points="1291.37,-16.5 1281.34,-19.92 1291.32,-23.5 1291.37,-16.5"/>
<text text-anchor="middle" x="2650.74" y="-317.3" font-family="Times,serif" font-size="14.00">appearsIn ()</text>
</g>
<!-- http://purl.org/dj/kaggle/renaming&#45;and&#45;combining#1432225591 -->
<g id="node13" class="node">
<title>http://purl.org/dj/kaggle/renaming&#45;and&#45;combining#1432225591</title>
<ellipse fill="none" stroke="black" cx="1777.74" cy="-429" rx="180.87" ry="18"/>
<text text-anchor="middle" x="1777.74" y="-425.3" font-family="Times,serif" font-size="14.00">1432225591 (british_youtube(0)$0: Movement)</text>
</g>
<!-- http://purl.org/dj/kaggle/renaming&#45;and&#45;combining#1432225591&#45;&gt;http://purl.org/dj/kaggle/renaming&#45;and&#45;combining#132776362 -->
<g id="edge17" class="edge">
<title>http://purl.org/dj/kaggle/renaming&#45;and&#45;combining#1432225591&#45;&gt;http://purl.org/dj/kaggle/renaming&#45;and&#45;combining#132776362</title>
<path fill="none" stroke="black" d="M1705.67,-412.47C1614.51,-392.83 1458.1,-359.13 1364.06,-338.87"/>
<polygon fill="black" stroke="black" points="1364.55,-335.4 1354.04,-336.71 1363.07,-342.24 1364.55,-335.4"/>
<text text-anchor="middle" x="1634.24" y="-371.3" font-family="Times,serif" font-size="14.00">read_csv ()</text>
</g>
<!-- http://purl.org/dj/kaggle/renaming&#45;and&#45;combining#3997174956 -->
<g id="node14" class="node">
<title>http://purl.org/dj/kaggle/renaming&#45;and&#45;combining#3997174956</title>
<ellipse fill="none" stroke="black" cx="2251.74" cy="-159" rx="224.76" ry="18"/>
<text text-anchor="middle" x="2251.74" y="-155.3" font-family="Times,serif" font-size="14.00">3997174956 (../input/youtube&#45;new/GBvideos.csv(0): Reuse)</text>
</g>
<!-- http://purl.org/dj/kaggle/renaming&#45;and&#45;combining#1432225591&#45;&gt;http://purl.org/dj/kaggle/renaming&#45;and&#45;combining#3997174956 -->
<g id="edge18" class="edge">
<title>http://purl.org/dj/kaggle/renaming&#45;and&#45;combining#1432225591&#45;&gt;http://purl.org/dj/kaggle/renaming&#45;and&#45;combining#3997174956</title>
<path fill="none" stroke="black" d="M1769.92,-410.84C1755.3,-375.9 1728.7,-295.88 1767.74,-249 1790.3,-221.92 1984.83,-192.78 2120.29,-175.48"/>
<polygon fill="black" stroke="black" points="2120.86,-178.93 2130.34,-174.2 2119.98,-171.99 2120.86,-178.93"/>
<text text-anchor="middle" x="1779.24" y="-317.3" font-family="Times,serif" font-size="14.00">read_csv ()</text>
</g>
<!-- http://purl.org/dj/kaggle/renaming&#45;and&#45;combining#3997174956&#45;&gt;http://purl.org/dj/kaggle/renaming&#45;and&#45;combining -->
<g id="edge19" class="edge">
<title>http://purl.org/dj/kaggle/renaming&#45;and&#45;combining#3997174956&#45;&gt;http://purl.org/dj/kaggle/renaming&#45;and&#45;combining</title>
<path fill="none" stroke="black" d="M2130.43,-143.84C1905.22,-117.56 1424.31,-61.43 1191.88,-34.3"/>
<polygon fill="black" stroke="black" points="1192.02,-30.8 1181.68,-33.11 1191.21,-37.75 1192.02,-30.8"/>
<text text-anchor="middle" x="1982.74" y="-101.3" font-family="Times,serif" font-size="14.00">appearsIn ()</text>
</g>
<!-- http://purl.org/dj/kaggle/renaming&#45;and&#45;combining#496960476 -->
<g id="node15" class="node">
<title>http://purl.org/dj/kaggle/renaming&#45;and&#45;combining#496960476</title>
<ellipse fill="none" stroke="black" cx="761.74" cy="-516" rx="155.97" ry="18"/>
<text text-anchor="middle" x="761.74" y="-512.3" font-family="Times,serif" font-size="14.00">496960476 (reviews(0)$1: Visualisation)</text>
</g>
<!-- http://purl.org/dj/kaggle/renaming&#45;and&#45;combining#496894939 -->
<g id="node16" class="node">
<title>http://purl.org/dj/kaggle/renaming&#45;and&#45;combining#496894939</title>
<ellipse fill="none" stroke="black" cx="375.74" cy="-429" rx="148.67" ry="18"/>
<text text-anchor="middle" x="375.74" y="-425.3" font-family="Times,serif" font-size="14.00">496894939 (reviews(0)$0: Movement)</text>
</g>
<!-- http://purl.org/dj/kaggle/renaming&#45;and&#45;combining#496960476&#45;&gt;http://purl.org/dj/kaggle/renaming&#45;and&#45;combining#496894939 -->
<g id="edge20" class="edge">
<title>http://purl.org/dj/kaggle/renaming&#45;and&#45;combining#496960476&#45;&gt;http://purl.org/dj/kaggle/renaming&#45;and&#45;combining#496894939</title>
<path fill="none" stroke="black" d="M692.73,-499.8C625.77,-485.06 524.26,-462.71 454.25,-447.29"/>
<polygon fill="black" stroke="black" points="454.67,-443.8 444.15,-445.06 453.17,-450.63 454.67,-443.8"/>
<text text-anchor="middle" x="619.74" y="-468.8" font-family="Times,serif" font-size="14.00">rename ()</text>
</g>
<!-- http://purl.org/dj/kaggle/renaming&#45;and&#45;combining#496894939&#45;&gt;http://purl.org/dj/kaggle/renaming&#45;and&#45;combining#3018526890 -->
<g id="edge21" class="edge">
<title>http://purl.org/dj/kaggle/renaming&#45;and&#45;combining#496894939&#45;&gt;http://purl.org/dj/kaggle/renaming&#45;and&#45;combining#3018526890</title>
<path fill="none" stroke="black" d="M229.36,-425.58C176.44,-421.34 125.55,-412.15 108.74,-393 98.19,-380.97 98.53,-369.32 108.74,-357 114.89,-349.58 128.01,-343.73 144.56,-339.1"/>
<polygon fill="black" stroke="black" points="145.86,-342.39 154.68,-336.52 144.13,-335.6 145.86,-342.39"/>
<text text-anchor="middle" x="139.24" y="-371.3" font-family="Times,serif" font-size="14.00">read_csv ()</text>
</g>
<!-- http://purl.org/dj/kaggle/renaming&#45;and&#45;combining#496894939&#45;&gt;http://purl.org/dj/kaggle/renaming&#45;and&#45;combining#132776362 -->
<g id="edge22" class="edge">
<title>http://purl.org/dj/kaggle/renaming&#45;and&#45;combining#496894939&#45;&gt;http://purl.org/dj/kaggle/renaming&#45;and&#45;combining#132776362</title>
<path fill="none" stroke="black" d="M517.54,-423.49C699.01,-417.23 992.67,-405.31 1013.74,-393 1030.14,-383.43 1020.77,-367.26 1036.74,-357 1056.84,-344.09 1105.28,-335.82 1154.14,-330.58"/>
<polygon fill="black" stroke="black" points="1154.65,-334.05 1164.24,-329.54 1153.93,-327.09 1154.65,-334.05"/>
<text text-anchor="middle" x="1067.24" y="-371.3" font-family="Times,serif" font-size="14.00">read_csv ()</text>
</g>
<!-- http://purl.org/dj/kaggle/renaming&#45;and&#45;combining#29687986 -->
<g id="node17" class="node">
<title>http://purl.org/dj/kaggle/renaming&#45;and&#45;combining#29687986</title>
<ellipse fill="none" stroke="black" cx="191.74" cy="-105" rx="94.78" ry="18"/>
<text text-anchor="middle" x="191.74" y="-101.3" font-family="Times,serif" font-size="14.00">29687986 (0(0): Reuse)</text>
</g>
<!-- http://purl.org/dj/kaggle/renaming&#45;and&#45;combining#496894939&#45;&gt;http://purl.org/dj/kaggle/renaming&#45;and&#45;combining#29687986 -->
<g id="edge23" class="edge">
<title>http://purl.org/dj/kaggle/renaming&#45;and&#45;combining#496894939&#45;&gt;http://purl.org/dj/kaggle/renaming&#45;and&#45;combining#29687986</title>
<path fill="none" stroke="black" d="M237.29,-422.34C191.86,-417.41 141.76,-408.59 97.74,-393 54.84,-377.81 32.86,-378.77 10.74,-339 -36.59,-253.92 86.13,-166.74 152.48,-127.48"/>
<polygon fill="black" stroke="black" points="154.56,-130.32 161.45,-122.26 151.04,-124.27 154.56,-130.32"/>
<text text-anchor="middle" x="45.24" y="-263.3" font-family="Times,serif" font-size="14.00">read_csv ()</text>
</g>
<!-- http://purl.org/dj/kaggle/renaming&#45;and&#45;combining#29687986&#45;&gt;http://purl.org/dj/kaggle/renaming&#45;and&#45;combining -->
<g id="edge24" class="edge">
<title>http://purl.org/dj/kaggle/renaming&#45;and&#45;combining#29687986&#45;&gt;http://purl.org/dj/kaggle/renaming&#45;and&#45;combining</title>
<path fill="none" stroke="black" d="M227.38,-88.3C255.84,-76.57 297.05,-61.34 334.74,-54 427.24,-35.99 658.91,-27.08 835.88,-22.79"/>
<polygon fill="black" stroke="black" points="836.21,-26.28 846.12,-22.54 836.04,-19.28 836.21,-26.28"/>
<text text-anchor="middle" x="367.74" y="-57.8" font-family="Times,serif" font-size="14.00">appearsIn ()</text>
</g>
<!-- http://purl.org/dj/kaggle/renaming&#45;and&#45;combining#497091550 -->
<g id="node18" class="node">
<title>http://purl.org/dj/kaggle/renaming&#45;and&#45;combining#497091550</title>
<ellipse fill="none" stroke="black" cx="1317.74" cy="-711" rx="155.97" ry="18"/>
<text text-anchor="middle" x="1317.74" y="-707.3" font-family="Times,serif" font-size="14.00">497091550 (reviews(0)$3: Visualisation)</text>
</g>
<!-- http://purl.org/dj/kaggle/renaming&#45;and&#45;combining#497091550&#45;&gt;http://purl.org/dj/kaggle/renaming&#45;and&#45;combining#284361465 -->
<g id="edge25" class="edge">
<title>http://purl.org/dj/kaggle/renaming&#45;and&#45;combining#497091550&#45;&gt;http://purl.org/dj/kaggle/renaming&#45;and&#45;combining#284361465</title>
<path fill="none" stroke="black" d="M1408.54,-696.36C1585.92,-669.7 1976.53,-611 2153.03,-584.48"/>
<polygon fill="black" stroke="black" points="2153.7,-587.92 2163.07,-582.97 2152.66,-581 2153.7,-587.92"/>
<text text-anchor="middle" x="1683.74" y="-663.8" font-family="Times,serif" font-size="14.00">rename_axis ()</text>
</g>
<!-- http://purl.org/dj/kaggle/renaming&#45;and&#45;combining#497026013 -->
<g id="node19" class="node">
<title>http://purl.org/dj/kaggle/renaming&#45;and&#45;combining#497026013</title>
<ellipse fill="none" stroke="black" cx="1055.74" cy="-624" rx="155.97" ry="18"/>
<text text-anchor="middle" x="1055.74" y="-620.3" font-family="Times,serif" font-size="14.00">497026013 (reviews(0)$2: Visualisation)</text>
</g>
<!-- http://purl.org/dj/kaggle/renaming&#45;and&#45;combining#497091550&#45;&gt;http://purl.org/dj/kaggle/renaming&#45;and&#45;combining#497026013 -->
<g id="edge26" class="edge">
<title>http://purl.org/dj/kaggle/renaming&#45;and&#45;combining#497091550&#45;&gt;http://purl.org/dj/kaggle/renaming&#45;and&#45;combining#497026013</title>
<path fill="none" stroke="black" d="M1268.15,-693.91C1224.66,-679.8 1161.34,-659.26 1115.15,-644.28"/>
<polygon fill="black" stroke="black" points="1116.16,-640.92 1105.57,-641.17 1114,-647.58 1116.16,-640.92"/>
<text text-anchor="middle" x="1243.74" y="-663.8" font-family="Times,serif" font-size="14.00">rename_axis ()</text>
</g>
<!-- http://purl.org/dj/kaggle/renaming&#45;and&#45;combining#497026013&#45;&gt;http://purl.org/dj/kaggle/renaming&#45;and&#45;combining#496960476 -->
<g id="edge27" class="edge">
<title>http://purl.org/dj/kaggle/renaming&#45;and&#45;combining#497026013&#45;&gt;http://purl.org/dj/kaggle/renaming&#45;and&#45;combining#496960476</title>
<path fill="none" stroke="black" d="M1010.45,-606.67C958.33,-587.88 872.75,-557.03 816.83,-536.86"/>
<polygon fill="black" stroke="black" points="817.68,-533.45 807.09,-533.35 815.31,-540.03 817.68,-533.45"/>
<text text-anchor="middle" x="979.74" y="-566.3" font-family="Times,serif" font-size="14.00">rename ()</text>
</g>
<!-- http://purl.org/dj/kaggle/renaming&#45;and&#45;combining#3919910899 -->
<g id="node20" class="node">
<title>http://purl.org/dj/kaggle/renaming&#45;and&#45;combining#3919910899</title>
<ellipse fill="none" stroke="black" cx="1623.74" cy="-159" rx="397.53" ry="18"/>
<text text-anchor="middle" x="1623.74" y="-155.3" font-family="Times,serif" font-size="14.00">3919910899 ([&lt;_ast.Name object at 0x7fd50080d550&gt;, &lt;_ast.Name object at 0x7fd50080d5b0&gt;](0): Reuse)</text>
</g>
<!-- http://purl.org/dj/kaggle/renaming&#45;and&#45;combining#3919910899&#45;&gt;http://purl.org/dj/kaggle/renaming&#45;and&#45;combining -->
<g id="edge28" class="edge">
<title>http://purl.org/dj/kaggle/renaming&#45;and&#45;combining#3919910899&#45;&gt;http://purl.org/dj/kaggle/renaming&#45;and&#45;combining</title>
<path fill="none" stroke="black" d="M1562.78,-141.2C1484.69,-119.9 1345.07,-82.51 1224.74,-54 1200.22,-48.19 1173.52,-42.31 1148.93,-37.06"/>
<polygon fill="black" stroke="black" points="1149.41,-33.59 1138.9,-34.94 1147.96,-40.44 1149.41,-33.59"/>
<text text-anchor="middle" x="1523.74" y="-101.3" font-family="Times,serif" font-size="14.00">appearsIn ()</text>
</g>
<!-- http://purl.org/dj/kaggle/renaming&#45;and&#45;combining#251331202 -->
<g id="node21" class="node">
<title>http://purl.org/dj/kaggle/renaming&#45;and&#45;combining#251331202</title>
<ellipse fill="none" stroke="black" cx="1369.74" cy="-624" rx="140.28" ry="18"/>
<text text-anchor="middle" x="1369.74" y="-620.3" font-family="Times,serif" font-size="14.00">251331202 (left(0)$1: Visualisation)</text>
</g>
<!-- http://purl.org/dj/kaggle/renaming&#45;and&#45;combining#251331202&#45;&gt;http://purl.org/dj/kaggle/renaming&#45;and&#45;combining#251265665 -->
<g id="edge29" class="edge">
<title>http://purl.org/dj/kaggle/renaming&#45;and&#45;combining#251331202&#45;&gt;http://purl.org/dj/kaggle/renaming&#45;and&#45;combining#251265665</title>
<path fill="none" stroke="black" d="M1327.83,-606.79C1279.28,-588 1199.3,-557.06 1147.07,-536.86"/>
<polygon fill="black" stroke="black" points="1148.24,-533.56 1137.65,-533.21 1145.71,-540.09 1148.24,-533.56"/>
<text text-anchor="middle" x="1290.74" y="-566.3" font-family="Times,serif" font-size="14.00">join ()</text>
</g>
<!-- http://purl.org/dj/kaggle/renaming&#45;and&#45;combining#326238964 -->
<g id="node22" class="node">
<title>http://purl.org/dj/kaggle/renaming&#45;and&#45;combining#326238964</title>
<ellipse fill="none" stroke="black" cx="1777.74" cy="-516" rx="145.67" ry="18"/>
<text text-anchor="middle" x="1777.74" y="-512.3" font-family="Times,serif" font-size="14.00">326238964 (right(0)$0: Visualisation)</text>
</g>
<!-- http://purl.org/dj/kaggle/renaming&#45;and&#45;combining#251331202&#45;&gt;http://purl.org/dj/kaggle/renaming&#45;and&#45;combining#326238964 -->
<g id="edge30" class="edge">
<title>http://purl.org/dj/kaggle/renaming&#45;and&#45;combining#251331202&#45;&gt;http://purl.org/dj/kaggle/renaming&#45;and&#45;combining#326238964</title>
<path fill="none" stroke="black" d="M1429.07,-607.59C1503.14,-588.34 1629.65,-555.47 1708.2,-535.07"/>
<polygon fill="black" stroke="black" points="1709.21,-538.42 1718.01,-532.52 1707.45,-531.65 1709.21,-538.42"/>
<text text-anchor="middle" x="1650.74" y="-566.3" font-family="Times,serif" font-size="14.00">join ()</text>
</g>
<!-- http://purl.org/dj/kaggle/renaming&#45;and&#45;combining#326238964&#45;&gt;http://purl.org/dj/kaggle/renaming&#45;and&#45;combining#1432225591 -->
<g id="edge31" class="edge">
<title>http://purl.org/dj/kaggle/renaming&#45;and&#45;combining#326238964&#45;&gt;http://purl.org/dj/kaggle/renaming&#45;and&#45;combining#1432225591</title>
<path fill="none" stroke="black" d="M1777.74,-497.8C1777.74,-486.16 1777.74,-470.55 1777.74,-457.24"/>
<polygon fill="black" stroke="black" points="1781.24,-457.18 1777.74,-447.18 1774.24,-457.18 1781.24,-457.18"/>
<text text-anchor="middle" x="1810.24" y="-468.8" font-family="Times,serif" font-size="14.00">set_index ()</text>
</g>
<!-- http://purl.org/dj/kaggle/renaming&#45;and&#45;combining#4098562901 -->
<g id="node23" class="node">
<title>http://purl.org/dj/kaggle/renaming&#45;and&#45;combining#4098562901</title>
<ellipse fill="none" stroke="black" cx="2185.74" cy="-267" rx="417.03" ry="18"/>
<text text-anchor="middle" x="2185.74" y="-263.3" font-family="Times,serif" font-size="14.00">4098562901 ([&lt;_ast.Constant object at 0x7fd50080d160&gt;, &lt;_ast.Constant object at 0x7fd50080d640&gt;](0): Reuse)</text>
</g>
<!-- http://purl.org/dj/kaggle/renaming&#45;and&#45;combining#326238964&#45;&gt;http://purl.org/dj/kaggle/renaming&#45;and&#45;combining#4098562901 -->
<g id="edge32" class="edge">
<title>http://purl.org/dj/kaggle/renaming&#45;and&#45;combining#326238964&#45;&gt;http://purl.org/dj/kaggle/renaming&#45;and&#45;combining#4098562901</title>
<path fill="none" stroke="black" d="M1836.95,-499.54C1875.63,-488.09 1926.44,-470.41 1967.74,-447 2045.7,-402.82 2123.59,-330.34 2161.68,-292.6"/>
<polygon fill="black" stroke="black" points="2164.59,-294.64 2169.19,-285.09 2159.64,-289.68 2164.59,-294.64"/>
<text text-anchor="middle" x="2053.24" y="-425.3" font-family="Times,serif" font-size="14.00">set_index ()</text>
</g>
<!-- http://purl.org/dj/kaggle/renaming&#45;and&#45;combining#4098562901&#45;&gt;http://purl.org/dj/kaggle/renaming&#45;and&#45;combining -->
<g id="edge35" class="edge">
<title>http://purl.org/dj/kaggle/renaming&#45;and&#45;combining#4098562901&#45;&gt;http://purl.org/dj/kaggle/renaming&#45;and&#45;combining</title>
<path fill="none" stroke="black" d="M2329.77,-250.09C2428.03,-233.59 2531.42,-201.38 2477.74,-141 2400.42,-54.03 1668.58,-28.99 1288.11,-21.83"/>
<polygon fill="black" stroke="black" points="1288.14,-18.33 1278.07,-21.65 1288.01,-25.33 1288.14,-18.33"/>
<text text-anchor="middle" x="2524.74" y="-155.3" font-family="Times,serif" font-size="14.00">appearsIn ()</text>
</g>
<!-- http://purl.org/dj/kaggle/renaming&#45;and&#45;combining#132841899 -->
<g id="node24" class="node">
<title>http://purl.org/dj/kaggle/renaming&#45;and&#45;combining#132841899</title>
<ellipse fill="none" stroke="black" cx="1441.74" cy="-429" rx="137.58" ry="18"/>
<text text-anchor="middle" x="1441.74" y="-425.3" font-family="Times,serif" font-size="14.00">132841899 (pd(0)$1: Visualisation)</text>
</g>
<!-- http://purl.org/dj/kaggle/renaming&#45;and&#45;combining#132841899&#45;&gt;http://purl.org/dj/kaggle/renaming&#45;and&#45;combining#132776362 -->
<g id="edge33" class="edge">
<title>http://purl.org/dj/kaggle/renaming&#45;and&#45;combining#132841899&#45;&gt;http://purl.org/dj/kaggle/renaming&#45;and&#45;combining#132776362</title>
<path fill="none" stroke="black" d="M1417.02,-411.2C1390.44,-393.14 1348.03,-364.32 1318.64,-344.35"/>
<polygon fill="black" stroke="black" points="1320.58,-341.44 1310.34,-338.72 1316.65,-347.23 1320.58,-341.44"/>
<text text-anchor="middle" x="1412.24" y="-371.3" font-family="Times,serif" font-size="14.00">concat ()</text>
</g>
<!-- http://purl.org/dj/kaggle/renaming&#45;and&#45;combining#132841899&#45;&gt;http://purl.org/dj/kaggle/renaming&#45;and&#45;combining#3919910899 -->
<g id="edge34" class="edge">
<title>http://purl.org/dj/kaggle/renaming&#45;and&#45;combining#132841899&#45;&gt;http://purl.org/dj/kaggle/renaming&#45;and&#45;combining#3919910899</title>
<path fill="none" stroke="black" d="M1453.4,-410.83C1484.54,-364.97 1569.77,-239.48 1606.51,-185.38"/>
<polygon fill="black" stroke="black" points="1609.45,-187.27 1612.18,-177.03 1603.66,-183.34 1609.45,-187.27"/>
<text text-anchor="middle" x="1549.24" y="-317.3" font-family="Times,serif" font-size="14.00">concat ()</text>
</g>
</g>
</svg>
