<?xml version="1.0" encoding="UTF-8" standalone="no"?>
<!DOCTYPE svg PUBLIC "-//W3C//DTD SVG 1.1//EN"
 "http://www.w3.org/Graphics/SVG/1.1/DTD/svg11.dtd">
<!-- Generated by graphviz version 2.47.1 (20210417.1919)
 -->
<!-- Pages: 1 -->
<svg width="1988pt" height="608pt"
 viewBox="0.00 0.00 1988.38 608.00" xmlns="http://www.w3.org/2000/svg" xmlns:xlink="http://www.w3.org/1999/xlink">
<g id="graph0" class="graph" transform="scale(1 1) rotate(0) translate(4 604)">
<polygon fill="white" stroke="transparent" points="-4,4 -4,-604 1984.38,-604 1984.38,4 -4,4"/>
<!-- http://purl.org/dj/kaggle/santa&#45;s&#45;2019&#45;starter&#45;notebook/activity/&#45;5163047604993568634 -->
<g id="node1" class="node">
<title>http://purl.org/dj/kaggle/santa&#45;s&#45;2019&#45;starter&#45;notebook/activity/&#45;5163047604993568634</title>
<ellipse fill="none" stroke="black" cx="437.38" cy="-300" rx="144.07" ry="18"/>
<text text-anchor="middle" x="437.38" y="-296.3" font-family="Times,serif" font-size="14.00">&#45;5163047604993568634 (Movement)</text>
</g>
<!-- http://purl.org/dj/kaggle/santa&#45;s&#45;2019&#45;starter&#45;notebook/activity/2328686742662939994 -->
<g id="node2" class="node">
<title>http://purl.org/dj/kaggle/santa&#45;s&#45;2019&#45;starter&#45;notebook/activity/2328686742662939994</title>
<ellipse fill="none" stroke="black" cx="719.38" cy="-105" rx="124.28" ry="18"/>
<text text-anchor="middle" x="719.38" y="-101.3" font-family="Times,serif" font-size="14.00">2328686742662939994 (Reuse)</text>
</g>
<!-- http://purl.org/dj/kaggle/santa&#45;s&#45;2019&#45;starter&#45;notebook/activity/&#45;5163047604993568634&#45;&gt;http://purl.org/dj/kaggle/santa&#45;s&#45;2019&#45;starter&#45;notebook/activity/2328686742662939994 -->
<g id="edge1" class="edge">
<title>http://purl.org/dj/kaggle/santa&#45;s&#45;2019&#45;starter&#45;notebook/activity/&#45;5163047604993568634&#45;&gt;http://purl.org/dj/kaggle/santa&#45;s&#45;2019&#45;starter&#45;notebook/activity/2328686742662939994</title>
<path fill="none" stroke="black" d="M417.85,-282.11C398.09,-265.88 366.02,-241.84 334.38,-228 300.99,-213.39 277.15,-238.46 254.38,-210 244.38,-197.51 243.92,-186.1 254.38,-174 296.51,-125.26 463.64,-110.78 585.5,-106.83"/>
<polygon fill="black" stroke="black" points="585.78,-110.33 595.67,-106.52 585.57,-103.33 585.78,-110.33"/>
<text text-anchor="middle" x="277.88" y="-188.3" font-family="Times,serif" font-size="14.00">previous</text>
</g>
<!-- http://purl.org/dj/kaggle/santa&#45;s&#45;2019&#45;starter&#45;notebook/activity/&#45;4258983413812444970 -->
<g id="node3" class="node">
<title>http://purl.org/dj/kaggle/santa&#45;s&#45;2019&#45;starter&#45;notebook/activity/&#45;4258983413812444970</title>
<ellipse fill="none" stroke="black" cx="456.38" cy="-192" rx="145.67" ry="18"/>
<text text-anchor="middle" x="456.38" y="-188.3" font-family="Times,serif" font-size="14.00">&#45;4258983413812444970 (Preparation)</text>
</g>
<!-- http://purl.org/dj/kaggle/santa&#45;s&#45;2019&#45;starter&#45;notebook/activity/&#45;5163047604993568634&#45;&gt;http://purl.org/dj/kaggle/santa&#45;s&#45;2019&#45;starter&#45;notebook/activity/&#45;4258983413812444970 -->
<g id="edge2" class="edge">
<title>http://purl.org/dj/kaggle/santa&#45;s&#45;2019&#45;starter&#45;notebook/activity/&#45;5163047604993568634&#45;&gt;http://purl.org/dj/kaggle/santa&#45;s&#45;2019&#45;starter&#45;notebook/activity/&#45;4258983413812444970</title>
<path fill="none" stroke="black" d="M440.43,-281.97C443.41,-265.38 447.98,-239.88 451.46,-220.43"/>
<polygon fill="black" stroke="black" points="454.95,-220.8 453.27,-210.34 448.06,-219.57 454.95,-220.8"/>
<text text-anchor="middle" x="473.88" y="-242.3" font-family="Times,serif" font-size="14.00">previous</text>
</g>
<!-- http://purl.org/dj/kaggle/santa&#45;s&#45;2019&#45;starter&#45;notebook/activity/&#45;1760535635718411952 -->
<g id="node4" class="node">
<title>http://purl.org/dj/kaggle/santa&#45;s&#45;2019&#45;starter&#45;notebook/activity/&#45;1760535635718411952</title>
<ellipse fill="none" stroke="black" cx="1759.38" cy="-192" rx="145.67" ry="18"/>
<text text-anchor="middle" x="1759.38" y="-188.3" font-family="Times,serif" font-size="14.00">&#45;1760535635718411952 (Preparation)</text>
</g>
<!-- http://purl.org/dj/kaggle/santa&#45;s&#45;2019&#45;starter&#45;notebook/activity/&#45;5163047604993568634&#45;&gt;http://purl.org/dj/kaggle/santa&#45;s&#45;2019&#45;starter&#45;notebook/activity/&#45;1760535635718411952 -->
<g id="edge3" class="edge">
<title>http://purl.org/dj/kaggle/santa&#45;s&#45;2019&#45;starter&#45;notebook/activity/&#45;5163047604993568634&#45;&gt;http://purl.org/dj/kaggle/santa&#45;s&#45;2019&#45;starter&#45;notebook/activity/&#45;1760535635718411952</title>
<path fill="none" stroke="black" d="M471.53,-282.32C481.46,-276.95 492.12,-270.65 501.38,-264 520.54,-250.24 518.48,-236.78 540.38,-228 595.31,-205.99 1546.32,-213.75 1605.38,-210 1619.88,-209.08 1635.13,-207.79 1650.15,-206.33"/>
<polygon fill="black" stroke="black" points="1650.9,-209.77 1660.5,-205.29 1650.2,-202.8 1650.9,-209.77"/>
<text text-anchor="middle" x="563.88" y="-242.3" font-family="Times,serif" font-size="14.00">previous</text>
</g>
<!-- http://purl.org/dj/kaggle/santa&#45;s&#45;2019&#45;starter&#45;notebook/activity/&#45;5726015061838904787 -->
<g id="node5" class="node">
<title>http://purl.org/dj/kaggle/santa&#45;s&#45;2019&#45;starter&#45;notebook/activity/&#45;5726015061838904787</title>
<ellipse fill="none" stroke="black" cx="719.38" cy="-18" rx="145.67" ry="18"/>
<text text-anchor="middle" x="719.38" y="-14.3" font-family="Times,serif" font-size="14.00">&#45;5726015061838904787 (Preparation)</text>
</g>
<!-- http://purl.org/dj/kaggle/santa&#45;s&#45;2019&#45;starter&#45;notebook/activity/2328686742662939994&#45;&gt;http://purl.org/dj/kaggle/santa&#45;s&#45;2019&#45;starter&#45;notebook/activity/&#45;5726015061838904787 -->
<g id="edge4" class="edge">
<title>http://purl.org/dj/kaggle/santa&#45;s&#45;2019&#45;starter&#45;notebook/activity/2328686742662939994&#45;&gt;http://purl.org/dj/kaggle/santa&#45;s&#45;2019&#45;starter&#45;notebook/activity/&#45;5726015061838904787</title>
<path fill="none" stroke="black" d="M727.58,-87.02C731.26,-77.41 734.38,-65.12 732.38,-54 731.89,-51.28 731.21,-48.5 730.4,-45.75"/>
<polygon fill="black" stroke="black" points="733.65,-44.44 727.11,-36.1 727.03,-46.7 733.65,-44.44"/>
<text text-anchor="middle" x="756.88" y="-57.8" font-family="Times,serif" font-size="14.00">previous</text>
</g>
<!-- http://purl.org/dj/kaggle/santa&#45;s&#45;2019&#45;starter&#45;notebook -->
<g id="node6" class="node">
<title>http://purl.org/dj/kaggle/santa&#45;s&#45;2019&#45;starter&#45;notebook</title>
<ellipse fill="none" stroke="black" cx="1617.38" cy="-18" rx="252.36" ry="18"/>
<text text-anchor="middle" x="1617.38" y="-14.3" font-family="Times,serif" font-size="14.00">santa&#45;s&#45;2019&#45;starter&#45;notebook (santa&#45;s&#45;2019&#45;starter&#45;notebook.ipynb)</text>
</g>
<!-- http://purl.org/dj/kaggle/santa&#45;s&#45;2019&#45;starter&#45;notebook/activity/2328686742662939994&#45;&gt;http://purl.org/dj/kaggle/santa&#45;s&#45;2019&#45;starter&#45;notebook -->
<g id="edge5" class="edge">
<title>http://purl.org/dj/kaggle/santa&#45;s&#45;2019&#45;starter&#45;notebook/activity/2328686742662939994&#45;&gt;http://purl.org/dj/kaggle/santa&#45;s&#45;2019&#45;starter&#45;notebook</title>
<path fill="none" stroke="black" d="M820.21,-94.46C976.44,-79.67 1278.14,-51.11 1462.26,-33.68"/>
<polygon fill="black" stroke="black" points="1462.68,-37.16 1472.3,-32.73 1462.02,-30.19 1462.68,-37.16"/>
<text text-anchor="middle" x="1244.88" y="-57.8" font-family="Times,serif" font-size="14.00">previous</text>
</g>
<!-- http://purl.org/dj/kaggle/santa&#45;s&#45;2019&#45;starter&#45;notebook/activity/&#45;4258983413812444970&#45;&gt;http://purl.org/dj/kaggle/santa&#45;s&#45;2019&#45;starter&#45;notebook/activity/2328686742662939994 -->
<g id="edge6" class="edge">
<title>http://purl.org/dj/kaggle/santa&#45;s&#45;2019&#45;starter&#45;notebook/activity/&#45;4258983413812444970&#45;&gt;http://purl.org/dj/kaggle/santa&#45;s&#45;2019&#45;starter&#45;notebook/activity/2328686742662939994</title>
<path fill="none" stroke="black" d="M489.35,-174.44C511.55,-163.79 541.71,-150.26 569.38,-141 591.36,-133.65 615.65,-127.26 638.17,-122.03"/>
<polygon fill="black" stroke="black" points="639.06,-125.41 648.03,-119.78 637.51,-118.59 639.06,-125.41"/>
<text text-anchor="middle" x="592.88" y="-144.8" font-family="Times,serif" font-size="14.00">previous</text>
</g>
<!-- http://purl.org/dj/kaggle/santa&#45;s&#45;2019&#45;starter&#45;notebook/activity/&#45;1760535635718411952&#45;&gt;http://purl.org/dj/kaggle/santa&#45;s&#45;2019&#45;starter&#45;notebook/activity/2328686742662939994 -->
<g id="edge7" class="edge">
<title>http://purl.org/dj/kaggle/santa&#45;s&#45;2019&#45;starter&#45;notebook/activity/&#45;1760535635718411952&#45;&gt;http://purl.org/dj/kaggle/santa&#45;s&#45;2019&#45;starter&#45;notebook/activity/2328686742662939994</title>
<path fill="none" stroke="black" d="M1656.71,-179.2C1639.58,-177.36 1621.98,-175.56 1605.38,-174 1332.05,-148.31 1010.59,-125.48 840,-113.94"/>
<polygon fill="black" stroke="black" points="840.2,-110.45 829.98,-113.27 839.73,-117.43 840.2,-110.45"/>
<text text-anchor="middle" x="1409.88" y="-144.8" font-family="Times,serif" font-size="14.00">previous</text>
</g>
<!-- http://purl.org/dj/kaggle/santa&#45;s&#45;2019&#45;starter&#45;notebook/activity/&#45;1760535635718411952&#45;&gt;http://purl.org/dj/kaggle/santa&#45;s&#45;2019&#45;starter&#45;notebook -->
<g id="edge8" class="edge">
<title>http://purl.org/dj/kaggle/santa&#45;s&#45;2019&#45;starter&#45;notebook/activity/&#45;1760535635718411952&#45;&gt;http://purl.org/dj/kaggle/santa&#45;s&#45;2019&#45;starter&#45;notebook</title>
<path fill="none" stroke="black" d="M1745.24,-173.88C1720.05,-143.36 1667.27,-79.43 1638.01,-43.99"/>
<polygon fill="black" stroke="black" points="1640.52,-41.53 1631.46,-36.05 1635.12,-45.99 1640.52,-41.53"/>
<text text-anchor="middle" x="1725.88" y="-101.3" font-family="Times,serif" font-size="14.00">previous</text>
</g>
<!-- http://purl.org/dj/kaggle/santa&#45;s&#45;2019&#45;starter&#45;notebook/activity/&#45;5726015061838904787&#45;&gt;http://purl.org/dj/kaggle/santa&#45;s&#45;2019&#45;starter&#45;notebook/activity/&#45;5163047604993568634 -->
<g id="edge9" class="edge">
<title>http://purl.org/dj/kaggle/santa&#45;s&#45;2019&#45;starter&#45;notebook/activity/&#45;5726015061838904787&#45;&gt;http://purl.org/dj/kaggle/santa&#45;s&#45;2019&#45;starter&#45;notebook/activity/&#45;5163047604993568634</title>
<path fill="none" stroke="black" d="M618.2,-30.97C470.81,-50.9 209.21,-96.52 160.38,-174 151.85,-187.54 149.77,-198.03 160.38,-210 182.5,-234.96 280.35,-211.57 309.38,-228 327.02,-237.98 320.92,-252.17 337.38,-264 346.13,-270.29 356.11,-275.53 366.3,-279.88"/>
<polygon fill="black" stroke="black" points="365.1,-283.17 375.68,-283.62 367.69,-276.67 365.1,-283.17"/>
<text text-anchor="middle" x="216.88" y="-144.8" font-family="Times,serif" font-size="14.00">previous</text>
</g>
<!-- http://purl.org/dj/kaggle/santa&#45;s&#45;2019&#45;starter&#45;notebook/activity/&#45;5726015061838904787&#45;&gt;http://purl.org/dj/kaggle/santa&#45;s&#45;2019&#45;starter&#45;notebook/activity/2328686742662939994 -->
<g id="edge10" class="edge">
<title>http://purl.org/dj/kaggle/santa&#45;s&#45;2019&#45;starter&#45;notebook/activity/&#45;5726015061838904787&#45;&gt;http://purl.org/dj/kaggle/santa&#45;s&#45;2019&#45;starter&#45;notebook/activity/2328686742662939994</title>
<path fill="none" stroke="black" d="M694.65,-35.74C684.42,-44.89 676.04,-56.82 681.38,-69 683.08,-72.88 685.45,-76.52 688.18,-79.88"/>
<polygon fill="black" stroke="black" points="685.66,-82.31 695.07,-87.18 690.75,-77.5 685.66,-82.31"/>
<text text-anchor="middle" x="704.88" y="-57.8" font-family="Times,serif" font-size="14.00">previous</text>
</g>
<!-- http://purl.org/dj/kaggle/santa&#45;s&#45;2019&#45;starter&#45;notebook/activity/7869230263345146678 -->
<g id="node7" class="node">
<title>http://purl.org/dj/kaggle/santa&#45;s&#45;2019&#45;starter&#45;notebook/activity/7869230263345146678</title>
<ellipse fill="none" stroke="black" cx="767.38" cy="-354" rx="142.97" ry="18"/>
<text text-anchor="middle" x="767.38" y="-350.3" font-family="Times,serif" font-size="14.00">7869230263345146678 (Preparation)</text>
</g>
<!-- http://purl.org/dj/kaggle/santa&#45;s&#45;2019&#45;starter&#45;notebook/activity/7869230263345146678&#45;&gt;http://purl.org/dj/kaggle/santa&#45;s&#45;2019&#45;starter&#45;notebook/activity/2328686742662939994 -->
<g id="edge11" class="edge">
<title>http://purl.org/dj/kaggle/santa&#45;s&#45;2019&#45;starter&#45;notebook/activity/7869230263345146678&#45;&gt;http://purl.org/dj/kaggle/santa&#45;s&#45;2019&#45;starter&#45;notebook/activity/2328686742662939994</title>
<path fill="none" stroke="black" d="M753.83,-335.77C734.6,-310.12 700.3,-259.55 687.38,-210 680.39,-183.21 691.89,-153.01 703,-132.08"/>
<polygon fill="black" stroke="black" points="706.17,-133.6 708.01,-123.17 700.06,-130.17 706.17,-133.6"/>
<text text-anchor="middle" x="731.88" y="-242.3" font-family="Times,serif" font-size="14.00">previous</text>
</g>
<!-- http://purl.org/dj/kaggle/santa&#45;s&#45;2019&#45;starter&#45;notebook/activity/7656826430313979399 -->
<g id="node8" class="node">
<title>http://purl.org/dj/kaggle/santa&#45;s&#45;2019&#45;starter&#45;notebook/activity/7656826430313979399</title>
<ellipse fill="none" stroke="black" cx="167.38" cy="-582" rx="148.67" ry="18"/>
<text text-anchor="middle" x="167.38" y="-578.3" font-family="Times,serif" font-size="14.00">7656826430313979399 (Visualisation)</text>
</g>
<!-- http://purl.org/dj/kaggle/santa&#45;s&#45;2019&#45;starter&#45;notebook/activity/7656826430313979399&#45;&gt;http://purl.org/dj/kaggle/santa&#45;s&#45;2019&#45;starter&#45;notebook/activity/2328686742662939994 -->
<g id="edge12" class="edge">
<title>http://purl.org/dj/kaggle/santa&#45;s&#45;2019&#45;starter&#45;notebook/activity/7656826430313979399&#45;&gt;http://purl.org/dj/kaggle/santa&#45;s&#45;2019&#45;starter&#45;notebook/activity/2328686742662939994</title>
<path fill="none" stroke="black" d="M77.09,-567.56C38.16,-556.13 1.38,-535.02 1.38,-496 1.38,-496 1.38,-496 1.38,-299 1.38,-266.84 -4.14,-253.56 15.38,-228 68.09,-158.96 106.52,-163.64 190.38,-141 262.42,-121.55 455.43,-112.7 587.27,-108.82"/>
<polygon fill="black" stroke="black" points="587.55,-112.31 597.44,-108.53 587.35,-105.32 587.55,-112.31"/>
<text text-anchor="middle" x="24.88" y="-350.3" font-family="Times,serif" font-size="14.00">previous</text>
</g>
<!-- http://purl.org/dj/kaggle/santa&#45;s&#45;2019&#45;starter&#45;notebook/activity/&#45;2930738721182152020 -->
<g id="node9" class="node">
<title>http://purl.org/dj/kaggle/santa&#45;s&#45;2019&#45;starter&#45;notebook/activity/&#45;2930738721182152020</title>
<ellipse fill="none" stroke="black" cx="706.38" cy="-495" rx="126.98" ry="18"/>
<text text-anchor="middle" x="706.38" y="-491.3" font-family="Times,serif" font-size="14.00">&#45;2930738721182152020 (Reuse)</text>
</g>
<!-- http://purl.org/dj/kaggle/santa&#45;s&#45;2019&#45;starter&#45;notebook/activity/7656826430313979399&#45;&gt;http://purl.org/dj/kaggle/santa&#45;s&#45;2019&#45;starter&#45;notebook/activity/&#45;2930738721182152020 -->
<g id="edge13" class="edge">
<title>http://purl.org/dj/kaggle/santa&#45;s&#45;2019&#45;starter&#45;notebook/activity/7656826430313979399&#45;&gt;http://purl.org/dj/kaggle/santa&#45;s&#45;2019&#45;starter&#45;notebook/activity/&#45;2930738721182152020</title>
<path fill="none" stroke="black" d="M253.98,-567.34C352.8,-551.76 513.76,-526.38 614.67,-510.46"/>
<polygon fill="black" stroke="black" points="615.52,-513.87 624.85,-508.86 614.43,-506.96 615.52,-513.87"/>
<text text-anchor="middle" x="492.88" y="-534.8" font-family="Times,serif" font-size="14.00">previous</text>
</g>
<!-- http://purl.org/dj/kaggle/santa&#45;s&#45;2019&#45;starter&#45;notebook/activity/&#45;2930738721182152020&#45;&gt;http://purl.org/dj/kaggle/santa&#45;s&#45;2019&#45;starter&#45;notebook/activity/&#45;5726015061838904787 -->
<g id="edge14" class="edge">
<title>http://purl.org/dj/kaggle/santa&#45;s&#45;2019&#45;starter&#45;notebook/activity/&#45;2930738721182152020&#45;&gt;http://purl.org/dj/kaggle/santa&#45;s&#45;2019&#45;starter&#45;notebook/activity/&#45;5726015061838904787</title>
<path fill="none" stroke="black" d="M811.36,-484.84C1130.98,-454.88 2061.73,-351.45 1914.38,-174 1728.94,49.32 1560.43,-89.9 1272.38,-54 1136.53,-37.07 980.83,-28.15 869.33,-23.56"/>
<polygon fill="black" stroke="black" points="869.15,-20.05 859.02,-23.14 868.87,-27.04 869.15,-20.05"/>
<text text-anchor="middle" x="1948.88" y="-242.3" font-family="Times,serif" font-size="14.00">previous</text>
</g>
<!-- http://purl.org/dj/kaggle/santa&#45;s&#45;2019&#45;starter&#45;notebook/activity/&#45;2930738721182152020&#45;&gt;http://purl.org/dj/kaggle/santa&#45;s&#45;2019&#45;starter&#45;notebook/activity/7869230263345146678 -->
<g id="edge15" class="edge">
<title>http://purl.org/dj/kaggle/santa&#45;s&#45;2019&#45;starter&#45;notebook/activity/&#45;2930738721182152020&#45;&gt;http://purl.org/dj/kaggle/santa&#45;s&#45;2019&#45;starter&#45;notebook/activity/7869230263345146678</title>
<path fill="none" stroke="black" d="M718.92,-476.88C728.16,-463.57 740.46,-444.35 748.38,-426 754.4,-412.04 758.94,-395.7 762.06,-382.21"/>
<polygon fill="black" stroke="black" points="765.55,-382.62 764.27,-372.11 758.71,-381.13 765.55,-382.62"/>
<text text-anchor="middle" x="762.88" y="-447.8" font-family="Times,serif" font-size="14.00">previous</text>
</g>
<!-- http://purl.org/dj/kaggle/santa&#45;s&#45;2019&#45;starter&#45;notebook/activity/&#45;3604871730438879850 -->
<g id="node10" class="node">
<title>http://purl.org/dj/kaggle/santa&#45;s&#45;2019&#45;starter&#45;notebook/activity/&#45;3604871730438879850</title>
<ellipse fill="none" stroke="black" cx="162.38" cy="-246" rx="145.67" ry="18"/>
<text text-anchor="middle" x="162.38" y="-242.3" font-family="Times,serif" font-size="14.00">&#45;3604871730438879850 (Preparation)</text>
</g>
<!-- http://purl.org/dj/kaggle/santa&#45;s&#45;2019&#45;starter&#45;notebook/activity/&#45;2930738721182152020&#45;&gt;http://purl.org/dj/kaggle/santa&#45;s&#45;2019&#45;starter&#45;notebook/activity/&#45;3604871730438879850 -->
<g id="edge16" class="edge">
<title>http://purl.org/dj/kaggle/santa&#45;s&#45;2019&#45;starter&#45;notebook/activity/&#45;2930738721182152020&#45;&gt;http://purl.org/dj/kaggle/santa&#45;s&#45;2019&#45;starter&#45;notebook/activity/&#45;3604871730438879850</title>
<path fill="none" stroke="black" d="M605.84,-484C542.08,-474.88 459.14,-457.74 391.38,-426 306.77,-386.37 224.76,-310.43 185.85,-271.43"/>
<polygon fill="black" stroke="black" points="188.17,-268.8 178.65,-264.15 183.19,-273.72 188.17,-268.8"/>
<text text-anchor="middle" x="414.88" y="-404.3" font-family="Times,serif" font-size="14.00">previous</text>
</g>
<!-- http://purl.org/dj/kaggle/santa&#45;s&#45;2019&#45;starter&#45;notebook/activity/&#45;6972168100786362555 -->
<g id="node11" class="node">
<title>http://purl.org/dj/kaggle/santa&#45;s&#45;2019&#45;starter&#45;notebook/activity/&#45;6972168100786362555</title>
<ellipse fill="none" stroke="black" cx="593.38" cy="-408" rx="145.67" ry="18"/>
<text text-anchor="middle" x="593.38" y="-404.3" font-family="Times,serif" font-size="14.00">&#45;6972168100786362555 (Preparation)</text>
</g>
<!-- http://purl.org/dj/kaggle/santa&#45;s&#45;2019&#45;starter&#45;notebook/activity/&#45;2930738721182152020&#45;&gt;http://purl.org/dj/kaggle/santa&#45;s&#45;2019&#45;starter&#45;notebook/activity/&#45;6972168100786362555 -->
<g id="edge17" class="edge">
<title>http://purl.org/dj/kaggle/santa&#45;s&#45;2019&#45;starter&#45;notebook/activity/&#45;2930738721182152020&#45;&gt;http://purl.org/dj/kaggle/santa&#45;s&#45;2019&#45;starter&#45;notebook/activity/&#45;6972168100786362555</title>
<path fill="none" stroke="black" d="M684.05,-477.21C666.91,-464.31 643.04,-446.36 624.09,-432.1"/>
<polygon fill="black" stroke="black" points="626.14,-429.26 616.04,-426.05 621.93,-434.86 626.14,-429.26"/>
<text text-anchor="middle" x="680.88" y="-447.8" font-family="Times,serif" font-size="14.00">previous</text>
</g>
<!-- http://purl.org/dj/kaggle/santa&#45;s&#45;2019&#45;starter&#45;notebook/activity/&#45;3604871730438879850&#45;&gt;http://purl.org/dj/kaggle/santa&#45;s&#45;2019&#45;starter&#45;notebook/activity/2328686742662939994 -->
<g id="edge18" class="edge">
<title>http://purl.org/dj/kaggle/santa&#45;s&#45;2019&#45;starter&#45;notebook/activity/&#45;3604871730438879850&#45;&gt;http://purl.org/dj/kaggle/santa&#45;s&#45;2019&#45;starter&#45;notebook/activity/2328686742662939994</title>
<path fill="none" stroke="black" d="M161.98,-227.71C162.45,-212.31 165.26,-189.83 176.38,-174 192.77,-150.68 204.2,-149.59 231.38,-141 295.24,-120.82 465.59,-112.22 587.01,-108.59"/>
<polygon fill="black" stroke="black" points="587.24,-112.09 597.13,-108.3 587.03,-105.09 587.24,-112.09"/>
<text text-anchor="middle" x="199.88" y="-188.3" font-family="Times,serif" font-size="14.00">previous</text>
</g>
<!-- http://purl.org/dj/kaggle/santa&#45;s&#45;2019&#45;starter&#45;notebook/activity/&#45;6972168100786362555&#45;&gt;http://purl.org/dj/kaggle/santa&#45;s&#45;2019&#45;starter&#45;notebook/activity/&#45;5163047604993568634 -->
<g id="edge19" class="edge">
<title>http://purl.org/dj/kaggle/santa&#45;s&#45;2019&#45;starter&#45;notebook/activity/&#45;6972168100786362555&#45;&gt;http://purl.org/dj/kaggle/santa&#45;s&#45;2019&#45;starter&#45;notebook/activity/&#45;5163047604993568634</title>
<path fill="none" stroke="black" d="M568.66,-390.2C542.15,-372.19 499.92,-343.49 470.54,-323.53"/>
<polygon fill="black" stroke="black" points="472.48,-320.62 462.24,-317.89 468.54,-326.41 472.48,-320.62"/>
<text text-anchor="middle" x="562.88" y="-350.3" font-family="Times,serif" font-size="14.00">previous</text>
</g>
<!-- http://purl.org/dj/kaggle/santa&#45;s&#45;2019&#45;starter&#45;notebook/activity/&#45;6972168100786362555&#45;&gt;http://purl.org/dj/kaggle/santa&#45;s&#45;2019&#45;starter&#45;notebook/activity/2328686742662939994 -->
<g id="edge20" class="edge">
<title>http://purl.org/dj/kaggle/santa&#45;s&#45;2019&#45;starter&#45;notebook/activity/&#45;6972168100786362555&#45;&gt;http://purl.org/dj/kaggle/santa&#45;s&#45;2019&#45;starter&#45;notebook/activity/2328686742662939994</title>
<path fill="none" stroke="black" d="M596.89,-389.82C603.78,-357.46 620.44,-285.55 643.38,-228 659.58,-187.37 664.77,-177.16 689.38,-141 691.64,-137.67 694.18,-134.3 696.79,-131.03"/>
<polygon fill="black" stroke="black" points="699.6,-133.12 703.32,-123.19 694.23,-128.63 699.6,-133.12"/>
<text text-anchor="middle" x="666.88" y="-242.3" font-family="Times,serif" font-size="14.00">previous</text>
</g>
<!-- http://purl.org/dj/kaggle/santa&#45;s&#45;2019&#45;starter&#45;notebook/activity/1973834284908067461 -->
<g id="node12" class="node">
<title>http://purl.org/dj/kaggle/santa&#45;s&#45;2019&#45;starter&#45;notebook/activity/1973834284908067461</title>
<ellipse fill="none" stroke="black" cx="1143.38" cy="-192" rx="142.97" ry="18"/>
<text text-anchor="middle" x="1143.38" y="-188.3" font-family="Times,serif" font-size="14.00">1973834284908067461 (Preparation)</text>
</g>
<!-- http://purl.org/dj/kaggle/santa&#45;s&#45;2019&#45;starter&#45;notebook/activity/1973834284908067461&#45;&gt;http://purl.org/dj/kaggle/santa&#45;s&#45;2019&#45;starter&#45;notebook/activity/2328686742662939994 -->
<g id="edge21" class="edge">
<title>http://purl.org/dj/kaggle/santa&#45;s&#45;2019&#45;starter&#45;notebook/activity/1973834284908067461&#45;&gt;http://purl.org/dj/kaggle/santa&#45;s&#45;2019&#45;starter&#45;notebook/activity/2328686742662939994</title>
<path fill="none" stroke="black" d="M1070.49,-176.39C994.92,-161.24 877.13,-137.62 799.12,-121.99"/>
<polygon fill="black" stroke="black" points="799.35,-118.46 788.86,-119.93 797.97,-125.33 799.35,-118.46"/>
<text text-anchor="middle" x="980.88" y="-144.8" font-family="Times,serif" font-size="14.00">previous</text>
</g>
<!-- http://purl.org/dj/kaggle/santa&#45;s&#45;2019&#45;starter&#45;notebook/activity/6389011491395675755 -->
<g id="node13" class="node">
<title>http://purl.org/dj/kaggle/santa&#45;s&#45;2019&#45;starter&#45;notebook/activity/6389011491395675755</title>
<ellipse fill="none" stroke="black" cx="839.38" cy="-192" rx="142.97" ry="18"/>
<text text-anchor="middle" x="839.38" y="-188.3" font-family="Times,serif" font-size="14.00">6389011491395675755 (Preparation)</text>
</g>
<!-- http://purl.org/dj/kaggle/santa&#45;s&#45;2019&#45;starter&#45;notebook/activity/6389011491395675755&#45;&gt;http://purl.org/dj/kaggle/santa&#45;s&#45;2019&#45;starter&#45;notebook/activity/2328686742662939994 -->
<g id="edge22" class="edge">
<title>http://purl.org/dj/kaggle/santa&#45;s&#45;2019&#45;starter&#45;notebook/activity/6389011491395675755&#45;&gt;http://purl.org/dj/kaggle/santa&#45;s&#45;2019&#45;starter&#45;notebook/activity/2328686742662939994</title>
<path fill="none" stroke="black" d="M815.67,-174.21C797.26,-161.17 771.56,-142.96 751.33,-128.63"/>
<polygon fill="black" stroke="black" points="753.22,-125.68 743.04,-122.76 749.18,-131.39 753.22,-125.68"/>
<text text-anchor="middle" x="810.88" y="-144.8" font-family="Times,serif" font-size="14.00">previous</text>
</g>
<!-- http://purl.org/dj/kaggle/santa&#45;s&#45;2019&#45;starter&#45;notebook/activity/&#45;8363380608330814999 -->
<g id="node14" class="node">
<title>http://purl.org/dj/kaggle/santa&#45;s&#45;2019&#45;starter&#45;notebook/activity/&#45;8363380608330814999</title>
<ellipse fill="none" stroke="black" cx="1450.38" cy="-192" rx="145.67" ry="18"/>
<text text-anchor="middle" x="1450.38" y="-188.3" font-family="Times,serif" font-size="14.00">&#45;8363380608330814999 (Preparation)</text>
</g>
<!-- http://purl.org/dj/kaggle/santa&#45;s&#45;2019&#45;starter&#45;notebook/activity/&#45;8363380608330814999&#45;&gt;http://purl.org/dj/kaggle/santa&#45;s&#45;2019&#45;starter&#45;notebook/activity/2328686742662939994 -->
<g id="edge23" class="edge">
<title>http://purl.org/dj/kaggle/santa&#45;s&#45;2019&#45;starter&#45;notebook/activity/&#45;8363380608330814999&#45;&gt;http://purl.org/dj/kaggle/santa&#45;s&#45;2019&#45;starter&#45;notebook/activity/2328686742662939994</title>
<path fill="none" stroke="black" d="M1348.35,-179.14C1209.6,-163 962.73,-134.3 823.1,-118.06"/>
<polygon fill="black" stroke="black" points="823.16,-114.54 812.82,-116.87 822.35,-121.5 823.16,-114.54"/>
<text text-anchor="middle" x="1152.88" y="-144.8" font-family="Times,serif" font-size="14.00">previous</text>
</g>
<!-- http://purl.org/dj/kaggle/santa&#45;s&#45;2019&#45;starter&#45;notebook/activity/6083585692627864558 -->
<g id="node15" class="node">
<title>http://purl.org/dj/kaggle/santa&#45;s&#45;2019&#45;starter&#45;notebook/activity/6083585692627864558</title>
<ellipse fill="none" stroke="black" cx="1285.38" cy="-300" rx="148.67" ry="18"/>
<text text-anchor="middle" x="1285.38" y="-296.3" font-family="Times,serif" font-size="14.00">6083585692627864558 (Visualisation)</text>
</g>
<!-- http://purl.org/dj/kaggle/santa&#45;s&#45;2019&#45;starter&#45;notebook/activity/6083585692627864558&#45;&gt;http://purl.org/dj/kaggle/santa&#45;s&#45;2019&#45;starter&#45;notebook/activity/&#45;1760535635718411952 -->
<g id="edge24" class="edge">
<title>http://purl.org/dj/kaggle/santa&#45;s&#45;2019&#45;starter&#45;notebook/activity/6083585692627864558&#45;&gt;http://purl.org/dj/kaggle/santa&#45;s&#45;2019&#45;starter&#45;notebook/activity/&#45;1760535635718411952</title>
<path fill="none" stroke="black" d="M1352.79,-283.93C1439.75,-264.48 1590.69,-230.72 1682.17,-210.27"/>
<polygon fill="black" stroke="black" points="1683.21,-213.62 1692.2,-208.02 1681.68,-206.79 1683.21,-213.62"/>
<text text-anchor="middle" x="1615.88" y="-242.3" font-family="Times,serif" font-size="14.00">previous</text>
</g>
<!-- http://purl.org/dj/kaggle/santa&#45;s&#45;2019&#45;starter&#45;notebook/activity/6083585692627864558&#45;&gt;http://purl.org/dj/kaggle/santa&#45;s&#45;2019&#45;starter&#45;notebook/activity/6389011491395675755 -->
<g id="edge25" class="edge">
<title>http://purl.org/dj/kaggle/santa&#45;s&#45;2019&#45;starter&#45;notebook/activity/6083585692627864558&#45;&gt;http://purl.org/dj/kaggle/santa&#45;s&#45;2019&#45;starter&#45;notebook/activity/6389011491395675755</title>
<path fill="none" stroke="black" d="M1221,-283.7C1139.32,-264.29 998.78,-230.88 912.94,-210.48"/>
<polygon fill="black" stroke="black" points="913.55,-207.03 903.01,-208.12 911.93,-213.84 913.55,-207.03"/>
<text text-anchor="middle" x="1152.88" y="-242.3" font-family="Times,serif" font-size="14.00">previous</text>
</g>
<!-- http://purl.org/dj/kaggle/santa&#45;s&#45;2019&#45;starter&#45;notebook/activity/5043816531433412836 -->
<g id="node16" class="node">
<title>http://purl.org/dj/kaggle/santa&#45;s&#45;2019&#45;starter&#45;notebook/activity/5043816531433412836</title>
<ellipse fill="none" stroke="black" cx="1708.38" cy="-582" rx="142.97" ry="18"/>
<text text-anchor="middle" x="1708.38" y="-578.3" font-family="Times,serif" font-size="14.00">5043816531433412836 (Preparation)</text>
</g>
<!-- http://purl.org/dj/kaggle/santa&#45;s&#45;2019&#45;starter&#45;notebook/activity/5043816531433412836&#45;&gt;http://purl.org/dj/kaggle/santa&#45;s&#45;2019&#45;starter&#45;notebook/activity/2328686742662939994 -->
<g id="edge26" class="edge">
<title>http://purl.org/dj/kaggle/santa&#45;s&#45;2019&#45;starter&#45;notebook/activity/5043816531433412836&#45;&gt;http://purl.org/dj/kaggle/santa&#45;s&#45;2019&#45;starter&#45;notebook/activity/2328686742662939994</title>
<path fill="none" stroke="black" d="M1785.81,-566.86C1850.9,-552.7 1933.38,-528.36 1933.38,-496 1933.38,-496 1933.38,-496 1933.38,-245 1933.38,-212.33 1939.59,-194.77 1914.38,-174 1873.87,-140.62 1152.7,-117.57 850.7,-109.34"/>
<polygon fill="black" stroke="black" points="850.66,-105.83 840.57,-109.06 850.47,-112.83 850.66,-105.83"/>
<text text-anchor="middle" x="1956.88" y="-350.3" font-family="Times,serif" font-size="14.00">previous</text>
</g>
<!-- http://purl.org/dj/kaggle/santa&#45;s&#45;2019&#45;starter&#45;notebook/activity/5043816531433412836&#45;&gt;http://purl.org/dj/kaggle/santa&#45;s&#45;2019&#45;starter&#45;notebook/activity/&#45;2930738721182152020 -->
<g id="edge27" class="edge">
<title>http://purl.org/dj/kaggle/santa&#45;s&#45;2019&#45;starter&#45;notebook/activity/5043816531433412836&#45;&gt;http://purl.org/dj/kaggle/santa&#45;s&#45;2019&#45;starter&#45;notebook/activity/&#45;2930738721182152020</title>
<path fill="none" stroke="black" d="M1593.44,-571.25C1400.9,-554.92 1015.35,-522.21 822.22,-505.83"/>
<polygon fill="black" stroke="black" points="822.3,-502.32 812.04,-504.96 821.71,-509.3 822.3,-502.32"/>
<text text-anchor="middle" x="1289.88" y="-534.8" font-family="Times,serif" font-size="14.00">previous</text>
</g>
</g>
</svg>
