<?xml version="1.0" encoding="UTF-8" standalone="no"?>
<!DOCTYPE svg PUBLIC "-//W3C//DTD SVG 1.1//EN"
 "http://www.w3.org/Graphics/SVG/1.1/DTD/svg11.dtd">
<!-- Generated by graphviz version 2.47.1 (20210417.1919)
 -->
<!-- Pages: 1 -->
<svg width="2575pt" height="392pt"
 viewBox="0.00 0.00 2575.27 392.00" xmlns="http://www.w3.org/2000/svg" xmlns:xlink="http://www.w3.org/1999/xlink">
<g id="graph0" class="graph" transform="scale(1 1) rotate(0) translate(4 388)">
<polygon fill="white" stroke="transparent" points="-4,4 -4,-388 2571.27,-388 2571.27,4 -4,4"/>
<!-- http://purl.org/dj/kaggle/santa&#45;ip/activity/&#45;4155803116525919811 -->
<g id="node1" class="node">
<title>http://purl.org/dj/kaggle/santa&#45;ip/activity/&#45;4155803116525919811</title>
<ellipse fill="none" stroke="black" cx="2415.84" cy="-192" rx="151.37" ry="18"/>
<text text-anchor="middle" x="2415.84" y="-188.3" font-family="Times,serif" font-size="14.00">&#45;4155803116525919811 (Visualisation)</text>
</g>
<!-- http://purl.org/dj/kaggle/santa&#45;ip/activity/&#45;6437529749011384556 -->
<g id="node2" class="node">
<title>http://purl.org/dj/kaggle/santa&#45;ip/activity/&#45;6437529749011384556</title>
<ellipse fill="none" stroke="black" cx="1166.84" cy="-105" rx="126.98" ry="18"/>
<text text-anchor="middle" x="1166.84" y="-101.3" font-family="Times,serif" font-size="14.00">&#45;6437529749011384556 (Reuse)</text>
</g>
<!-- http://purl.org/dj/kaggle/santa&#45;ip/activity/&#45;4155803116525919811&#45;&gt;http://purl.org/dj/kaggle/santa&#45;ip/activity/&#45;6437529749011384556 -->
<g id="edge1" class="edge">
<title>http://purl.org/dj/kaggle/santa&#45;ip/activity/&#45;4155803116525919811&#45;&gt;http://purl.org/dj/kaggle/santa&#45;ip/activity/&#45;6437529749011384556</title>
<path fill="none" stroke="black" d="M2307.6,-179.38C2289.97,-177.54 2271.9,-175.69 2254.84,-174 2096.27,-158.3 2056.79,-152.15 1897.84,-141 1688.66,-126.33 1445.37,-116.03 1298.89,-110.56"/>
<polygon fill="black" stroke="black" points="1298.64,-107.05 1288.52,-110.18 1298.38,-114.04 1298.64,-107.05"/>
<text text-anchor="middle" x="2099.34" y="-144.8" font-family="Times,serif" font-size="14.00">previous</text>
</g>
<!-- http://purl.org/dj/kaggle/santa&#45;ip -->
<g id="node3" class="node">
<title>http://purl.org/dj/kaggle/santa&#45;ip</title>
<ellipse fill="none" stroke="black" cx="374.84" cy="-18" rx="96.68" ry="18"/>
<text text-anchor="middle" x="374.84" y="-14.3" font-family="Times,serif" font-size="14.00">santa&#45;ip (santa&#45;ip.ipynb)</text>
</g>
<!-- http://purl.org/dj/kaggle/santa&#45;ip/activity/&#45;6437529749011384556&#45;&gt;http://purl.org/dj/kaggle/santa&#45;ip -->
<g id="edge2" class="edge">
<title>http://purl.org/dj/kaggle/santa&#45;ip/activity/&#45;6437529749011384556&#45;&gt;http://purl.org/dj/kaggle/santa&#45;ip</title>
<path fill="none" stroke="black" d="M1068.93,-93.49C914.58,-76.93 616.84,-44.97 466.48,-28.84"/>
<polygon fill="black" stroke="black" points="466.67,-25.34 456.35,-27.75 465.92,-32.3 466.67,-25.34"/>
<text text-anchor="middle" x="842.34" y="-57.8" font-family="Times,serif" font-size="14.00">previous</text>
</g>
<!-- http://purl.org/dj/kaggle/santa&#45;ip/activity/4411966287869219257 -->
<g id="node4" class="node">
<title>http://purl.org/dj/kaggle/santa&#45;ip/activity/4411966287869219257</title>
<ellipse fill="none" stroke="black" cx="940.84" cy="-192" rx="148.67" ry="18"/>
<text text-anchor="middle" x="940.84" y="-188.3" font-family="Times,serif" font-size="14.00">4411966287869219257 (Visualisation)</text>
</g>
<!-- http://purl.org/dj/kaggle/santa&#45;ip/activity/4411966287869219257&#45;&gt;http://purl.org/dj/kaggle/santa&#45;ip/activity/&#45;6437529749011384556 -->
<g id="edge3" class="edge">
<title>http://purl.org/dj/kaggle/santa&#45;ip/activity/4411966287869219257&#45;&gt;http://purl.org/dj/kaggle/santa&#45;ip/activity/&#45;6437529749011384556</title>
<path fill="none" stroke="black" d="M980,-174.59C1004.3,-164.57 1036.24,-151.66 1064.84,-141 1079.3,-135.61 1095.02,-130.06 1109.7,-125.01"/>
<polygon fill="black" stroke="black" points="1110.84,-128.32 1119.17,-121.78 1108.57,-121.7 1110.84,-128.32"/>
<text text-anchor="middle" x="1088.34" y="-144.8" font-family="Times,serif" font-size="14.00">previous</text>
</g>
<!-- http://purl.org/dj/kaggle/santa&#45;ip/activity/&#45;8569914446436097991 -->
<g id="node5" class="node">
<title>http://purl.org/dj/kaggle/santa&#45;ip/activity/&#45;8569914446436097991</title>
<ellipse fill="none" stroke="black" cx="622.84" cy="-192" rx="151.37" ry="18"/>
<text text-anchor="middle" x="622.84" y="-188.3" font-family="Times,serif" font-size="14.00">&#45;8569914446436097991 (Visualisation)</text>
</g>
<!-- http://purl.org/dj/kaggle/santa&#45;ip/activity/&#45;8569914446436097991&#45;&gt;http://purl.org/dj/kaggle/santa&#45;ip/activity/&#45;6437529749011384556 -->
<g id="edge4" class="edge">
<title>http://purl.org/dj/kaggle/santa&#45;ip/activity/&#45;8569914446436097991&#45;&gt;http://purl.org/dj/kaggle/santa&#45;ip/activity/&#45;6437529749011384556</title>
<path fill="none" stroke="black" d="M710.54,-177.3C810.59,-161.66 973.45,-136.22 1075.14,-120.33"/>
<polygon fill="black" stroke="black" points="1075.75,-123.78 1085.09,-118.77 1074.67,-116.86 1075.75,-123.78"/>
<text text-anchor="middle" x="951.34" y="-144.8" font-family="Times,serif" font-size="14.00">previous</text>
</g>
<!-- http://purl.org/dj/kaggle/santa&#45;ip/activity/7794259372530016644 -->
<g id="node6" class="node">
<title>http://purl.org/dj/kaggle/santa&#45;ip/activity/7794259372530016644</title>
<ellipse fill="none" stroke="black" cx="1314.84" cy="-366" rx="148.67" ry="18"/>
<text text-anchor="middle" x="1314.84" y="-362.3" font-family="Times,serif" font-size="14.00">7794259372530016644 (Visualisation)</text>
</g>
<!-- http://purl.org/dj/kaggle/santa&#45;ip/activity/7794259372530016644&#45;&gt;http://purl.org/dj/kaggle/santa&#45;ip/activity/&#45;6437529749011384556 -->
<g id="edge5" class="edge">
<title>http://purl.org/dj/kaggle/santa&#45;ip/activity/7794259372530016644&#45;&gt;http://purl.org/dj/kaggle/santa&#45;ip/activity/&#45;6437529749011384556</title>
<path fill="none" stroke="black" d="M1374.25,-349.43C1472.26,-320.98 1650.39,-255.91 1580.84,-174 1545.21,-132.05 1407.37,-115.93 1300.41,-109.76"/>
<polygon fill="black" stroke="black" points="1300.34,-106.25 1290.16,-109.2 1299.96,-113.24 1300.34,-106.25"/>
<text text-anchor="middle" x="1616.34" y="-231.8" font-family="Times,serif" font-size="14.00">previous</text>
</g>
<!-- http://purl.org/dj/kaggle/santa&#45;ip/activity/&#45;6408185956643851388 -->
<g id="node7" class="node">
<title>http://purl.org/dj/kaggle/santa&#45;ip/activity/&#45;6408185956643851388</title>
<ellipse fill="none" stroke="black" cx="1314.84" cy="-279" rx="145.67" ry="18"/>
<text text-anchor="middle" x="1314.84" y="-275.3" font-family="Times,serif" font-size="14.00">&#45;6408185956643851388 (Preparation)</text>
</g>
<!-- http://purl.org/dj/kaggle/santa&#45;ip/activity/7794259372530016644&#45;&gt;http://purl.org/dj/kaggle/santa&#45;ip/activity/&#45;6408185956643851388 -->
<g id="edge6" class="edge">
<title>http://purl.org/dj/kaggle/santa&#45;ip/activity/7794259372530016644&#45;&gt;http://purl.org/dj/kaggle/santa&#45;ip/activity/&#45;6408185956643851388</title>
<path fill="none" stroke="black" d="M1314.84,-347.8C1314.84,-336.16 1314.84,-320.55 1314.84,-307.24"/>
<polygon fill="black" stroke="black" points="1318.34,-307.18 1314.84,-297.18 1311.34,-307.18 1318.34,-307.18"/>
<text text-anchor="middle" x="1338.34" y="-318.8" font-family="Times,serif" font-size="14.00">previous</text>
</g>
<!-- http://purl.org/dj/kaggle/santa&#45;ip/activity/&#45;2472470580855717498 -->
<g id="node8" class="node">
<title>http://purl.org/dj/kaggle/santa&#45;ip/activity/&#45;2472470580855717498</title>
<ellipse fill="none" stroke="black" cx="994.84" cy="-279" rx="145.67" ry="18"/>
<text text-anchor="middle" x="994.84" y="-275.3" font-family="Times,serif" font-size="14.00">&#45;2472470580855717498 (Preparation)</text>
</g>
<!-- http://purl.org/dj/kaggle/santa&#45;ip/activity/7794259372530016644&#45;&gt;http://purl.org/dj/kaggle/santa&#45;ip/activity/&#45;2472470580855717498 -->
<g id="edge7" class="edge">
<title>http://purl.org/dj/kaggle/santa&#45;ip/activity/7794259372530016644&#45;&gt;http://purl.org/dj/kaggle/santa&#45;ip/activity/&#45;2472470580855717498</title>
<path fill="none" stroke="black" d="M1256.14,-349.41C1201.65,-334.93 1120.52,-313.38 1063.14,-298.14"/>
<polygon fill="black" stroke="black" points="1063.99,-294.75 1053.43,-295.56 1062.19,-301.51 1063.99,-294.75"/>
<text text-anchor="middle" x="1198.34" y="-318.8" font-family="Times,serif" font-size="14.00">previous</text>
</g>
<!-- http://purl.org/dj/kaggle/santa&#45;ip/activity/&#45;6408185956643851388&#45;&gt;http://purl.org/dj/kaggle/santa&#45;ip/activity/&#45;6437529749011384556 -->
<g id="edge8" class="edge">
<title>http://purl.org/dj/kaggle/santa&#45;ip/activity/&#45;6408185956643851388&#45;&gt;http://purl.org/dj/kaggle/santa&#45;ip/activity/&#45;6437529749011384556</title>
<path fill="none" stroke="black" d="M1282.86,-261.19C1262.26,-249.12 1236.02,-231.25 1217.84,-210 1198.11,-186.94 1183.92,-154.93 1175.59,-132.54"/>
<polygon fill="black" stroke="black" points="1178.84,-131.23 1172.18,-122.99 1172.25,-133.59 1178.84,-131.23"/>
<text text-anchor="middle" x="1241.34" y="-188.3" font-family="Times,serif" font-size="14.00">previous</text>
</g>
<!-- http://purl.org/dj/kaggle/santa&#45;ip/activity/5136546014793251678 -->
<g id="node9" class="node">
<title>http://purl.org/dj/kaggle/santa&#45;ip/activity/5136546014793251678</title>
<ellipse fill="none" stroke="black" cx="1422.84" cy="-192" rx="148.67" ry="18"/>
<text text-anchor="middle" x="1422.84" y="-188.3" font-family="Times,serif" font-size="14.00">5136546014793251678 (Visualisation)</text>
</g>
<!-- http://purl.org/dj/kaggle/santa&#45;ip/activity/&#45;6408185956643851388&#45;&gt;http://purl.org/dj/kaggle/santa&#45;ip/activity/5136546014793251678 -->
<g id="edge9" class="edge">
<title>http://purl.org/dj/kaggle/santa&#45;ip/activity/&#45;6408185956643851388&#45;&gt;http://purl.org/dj/kaggle/santa&#45;ip/activity/5136546014793251678</title>
<path fill="none" stroke="black" d="M1336.43,-261C1352.77,-248.15 1375.38,-230.35 1393.37,-216.19"/>
<polygon fill="black" stroke="black" points="1395.58,-218.9 1401.28,-209.97 1391.26,-213.4 1395.58,-218.9"/>
<text text-anchor="middle" x="1399.34" y="-231.8" font-family="Times,serif" font-size="14.00">previous</text>
</g>
<!-- http://purl.org/dj/kaggle/santa&#45;ip/activity/&#45;2472470580855717498&#45;&gt;http://purl.org/dj/kaggle/santa&#45;ip/activity/&#45;6437529749011384556 -->
<g id="edge10" class="edge">
<title>http://purl.org/dj/kaggle/santa&#45;ip/activity/&#45;2472470580855717498&#45;&gt;http://purl.org/dj/kaggle/santa&#45;ip/activity/&#45;6437529749011384556</title>
<path fill="none" stroke="black" d="M1027.34,-261.39C1049.21,-249.17 1077.79,-231.05 1098.84,-210 1122.06,-186.78 1141.71,-154.39 1153.83,-131.96"/>
<polygon fill="black" stroke="black" points="1156.98,-133.48 1158.55,-123.01 1150.79,-130.22 1156.98,-133.48"/>
<text text-anchor="middle" x="1151.34" y="-188.3" font-family="Times,serif" font-size="14.00">previous</text>
</g>
<!-- http://purl.org/dj/kaggle/santa&#45;ip/activity/&#45;2472470580855717498&#45;&gt;http://purl.org/dj/kaggle/santa&#45;ip/activity/4411966287869219257 -->
<g id="edge11" class="edge">
<title>http://purl.org/dj/kaggle/santa&#45;ip/activity/&#45;2472470580855717498&#45;&gt;http://purl.org/dj/kaggle/santa&#45;ip/activity/4411966287869219257</title>
<path fill="none" stroke="black" d="M983.91,-260.8C976.22,-248.7 965.81,-232.3 957.14,-218.67"/>
<polygon fill="black" stroke="black" points="960.06,-216.74 951.75,-210.18 954.16,-220.49 960.06,-216.74"/>
<text text-anchor="middle" x="995.34" y="-231.8" font-family="Times,serif" font-size="14.00">previous</text>
</g>
<!-- http://purl.org/dj/kaggle/santa&#45;ip/activity/4307422583498017756 -->
<g id="node10" class="node">
<title>http://purl.org/dj/kaggle/santa&#45;ip/activity/4307422583498017756</title>
<ellipse fill="none" stroke="black" cx="304.84" cy="-192" rx="148.67" ry="18"/>
<text text-anchor="middle" x="304.84" y="-188.3" font-family="Times,serif" font-size="14.00">4307422583498017756 (Visualisation)</text>
</g>
<!-- http://purl.org/dj/kaggle/santa&#45;ip/activity/&#45;2472470580855717498&#45;&gt;http://purl.org/dj/kaggle/santa&#45;ip/activity/4307422583498017756 -->
<g id="edge12" class="edge">
<title>http://purl.org/dj/kaggle/santa&#45;ip/activity/&#45;2472470580855717498&#45;&gt;http://purl.org/dj/kaggle/santa&#45;ip/activity/4307422583498017756</title>
<path fill="none" stroke="black" d="M923.58,-263.26C866.75,-252.01 785,-236.97 712.84,-228 602.29,-214.26 573.79,-219.96 462.84,-210 448.88,-208.75 434.25,-207.32 419.75,-205.84"/>
<polygon fill="black" stroke="black" points="420.05,-202.36 409.75,-204.81 419.34,-209.32 420.05,-202.36"/>
<text text-anchor="middle" x="830.34" y="-231.8" font-family="Times,serif" font-size="14.00">previous</text>
</g>
<!-- http://purl.org/dj/kaggle/santa&#45;ip/activity/5136546014793251678&#45;&gt;http://purl.org/dj/kaggle/santa&#45;ip/activity/&#45;6437529749011384556 -->
<g id="edge13" class="edge">
<title>http://purl.org/dj/kaggle/santa&#45;ip/activity/5136546014793251678&#45;&gt;http://purl.org/dj/kaggle/santa&#45;ip/activity/&#45;6437529749011384556</title>
<path fill="none" stroke="black" d="M1374.38,-174.91C1331.57,-160.7 1269.1,-139.95 1223.88,-124.94"/>
<polygon fill="black" stroke="black" points="1224.82,-121.56 1214.23,-121.73 1222.61,-128.21 1224.82,-121.56"/>
<text text-anchor="middle" x="1334.34" y="-144.8" font-family="Times,serif" font-size="14.00">previous</text>
</g>
<!-- http://purl.org/dj/kaggle/santa&#45;ip/activity/4307422583498017756&#45;&gt;http://purl.org/dj/kaggle/santa&#45;ip/activity/&#45;6437529749011384556 -->
<g id="edge14" class="edge">
<title>http://purl.org/dj/kaggle/santa&#45;ip/activity/4307422583498017756&#45;&gt;http://purl.org/dj/kaggle/santa&#45;ip/activity/&#45;6437529749011384556</title>
<path fill="none" stroke="black" d="M411.48,-179.37C428.65,-177.54 446.23,-175.7 462.84,-174 671.24,-152.72 914.54,-129.61 1053.66,-116.55"/>
<polygon fill="black" stroke="black" points="1054.28,-120.01 1063.91,-115.59 1053.63,-113.04 1054.28,-120.01"/>
<text text-anchor="middle" x="814.34" y="-144.8" font-family="Times,serif" font-size="14.00">previous</text>
</g>
<!-- http://purl.org/dj/kaggle/santa&#45;ip/activity/4307422583498017756&#45;&gt;http://purl.org/dj/kaggle/santa&#45;ip -->
<g id="edge15" class="edge">
<title>http://purl.org/dj/kaggle/santa&#45;ip/activity/4307422583498017756&#45;&gt;http://purl.org/dj/kaggle/santa&#45;ip</title>
<path fill="none" stroke="black" d="M311.8,-173.88C324.07,-143.74 349.59,-81.04 364.11,-45.35"/>
<polygon fill="black" stroke="black" points="367.37,-46.63 367.9,-36.05 360.89,-43.99 367.37,-46.63"/>
<text text-anchor="middle" x="370.34" y="-101.3" font-family="Times,serif" font-size="14.00">previous</text>
</g>
<!-- http://purl.org/dj/kaggle/santa&#45;ip/activity/&#45;3051295971981368939 -->
<g id="node11" class="node">
<title>http://purl.org/dj/kaggle/santa&#45;ip/activity/&#45;3051295971981368939</title>
<ellipse fill="none" stroke="black" cx="460.84" cy="-366" rx="145.67" ry="18"/>
<text text-anchor="middle" x="460.84" y="-362.3" font-family="Times,serif" font-size="14.00">&#45;3051295971981368939 (Preparation)</text>
</g>
<!-- http://purl.org/dj/kaggle/santa&#45;ip/activity/5324312708597110464 -->
<g id="node12" class="node">
<title>http://purl.org/dj/kaggle/santa&#45;ip/activity/5324312708597110464</title>
<ellipse fill="none" stroke="black" cx="304.84" cy="-279" rx="141.88" ry="18"/>
<text text-anchor="middle" x="304.84" y="-275.3" font-family="Times,serif" font-size="14.00">5324312708597110464 (Movement)</text>
</g>
<!-- http://purl.org/dj/kaggle/santa&#45;ip/activity/&#45;3051295971981368939&#45;&gt;http://purl.org/dj/kaggle/santa&#45;ip/activity/5324312708597110464 -->
<g id="edge16" class="edge">
<title>http://purl.org/dj/kaggle/santa&#45;ip/activity/&#45;3051295971981368939&#45;&gt;http://purl.org/dj/kaggle/santa&#45;ip/activity/5324312708597110464</title>
<path fill="none" stroke="black" d="M430.02,-348.21C405.47,-334.83 370.95,-316.02 344.37,-301.54"/>
<polygon fill="black" stroke="black" points="345.78,-298.32 335.33,-296.61 342.43,-304.47 345.78,-298.32"/>
<text text-anchor="middle" x="416.34" y="-318.8" font-family="Times,serif" font-size="14.00">previous</text>
</g>
<!-- http://purl.org/dj/kaggle/santa&#45;ip/activity/5324312708597110464&#45;&gt;http://purl.org/dj/kaggle/santa&#45;ip/activity/&#45;6437529749011384556 -->
<g id="edge17" class="edge">
<title>http://purl.org/dj/kaggle/santa&#45;ip/activity/5324312708597110464&#45;&gt;http://purl.org/dj/kaggle/santa&#45;ip/activity/&#45;6437529749011384556</title>
<path fill="none" stroke="black" d="M220.49,-264.52C146.3,-249.28 56.35,-220.35 99.84,-174 131.33,-140.44 754.63,-118.06 1033.71,-109.68"/>
<polygon fill="black" stroke="black" points="1034.01,-113.18 1043.9,-109.38 1033.8,-106.18 1034.01,-113.18"/>
<text text-anchor="middle" x="123.34" y="-188.3" font-family="Times,serif" font-size="14.00">previous</text>
</g>
<!-- http://purl.org/dj/kaggle/santa&#45;ip/activity/5324312708597110464&#45;&gt;http://purl.org/dj/kaggle/santa&#45;ip/activity/4411966287869219257 -->
<g id="edge18" class="edge">
<title>http://purl.org/dj/kaggle/santa&#45;ip/activity/5324312708597110464&#45;&gt;http://purl.org/dj/kaggle/santa&#45;ip/activity/4411966287869219257</title>
<path fill="none" stroke="black" d="M398.68,-265.46C515.13,-249.89 713.19,-223.42 834.96,-207.15"/>
<polygon fill="black" stroke="black" points="835.6,-210.6 845.05,-205.8 834.67,-203.66 835.6,-210.6"/>
<text text-anchor="middle" x="685.34" y="-231.8" font-family="Times,serif" font-size="14.00">previous</text>
</g>
<!-- http://purl.org/dj/kaggle/santa&#45;ip/activity/5324312708597110464&#45;&gt;http://purl.org/dj/kaggle/santa&#45;ip/activity/4307422583498017756 -->
<g id="edge19" class="edge">
<title>http://purl.org/dj/kaggle/santa&#45;ip/activity/5324312708597110464&#45;&gt;http://purl.org/dj/kaggle/santa&#45;ip/activity/4307422583498017756</title>
<path fill="none" stroke="black" d="M304.84,-260.8C304.84,-249.16 304.84,-233.55 304.84,-220.24"/>
<polygon fill="black" stroke="black" points="308.34,-220.18 304.84,-210.18 301.34,-220.18 308.34,-220.18"/>
<text text-anchor="middle" x="328.34" y="-231.8" font-family="Times,serif" font-size="14.00">previous</text>
</g>
<!-- http://purl.org/dj/kaggle/santa&#45;ip/activity/4037840319107262376 -->
<g id="node13" class="node">
<title>http://purl.org/dj/kaggle/santa&#45;ip/activity/4037840319107262376</title>
<ellipse fill="none" stroke="black" cx="1776.84" cy="-192" rx="148.67" ry="18"/>
<text text-anchor="middle" x="1776.84" y="-188.3" font-family="Times,serif" font-size="14.00">4037840319107262376 (Visualisation)</text>
</g>
<!-- http://purl.org/dj/kaggle/santa&#45;ip/activity/4037840319107262376&#45;&gt;http://purl.org/dj/kaggle/santa&#45;ip/activity/&#45;6437529749011384556 -->
<g id="edge20" class="edge">
<title>http://purl.org/dj/kaggle/santa&#45;ip/activity/4037840319107262376&#45;&gt;http://purl.org/dj/kaggle/santa&#45;ip/activity/&#45;6437529749011384556</title>
<path fill="none" stroke="black" d="M1733.22,-174.76C1700.76,-163.38 1655.13,-148.85 1613.84,-141 1510.2,-121.29 1391.01,-112.64 1301.79,-108.87"/>
<polygon fill="black" stroke="black" points="1301.74,-105.36 1291.61,-108.45 1301.46,-112.36 1301.74,-105.36"/>
<text text-anchor="middle" x="1697.34" y="-144.8" font-family="Times,serif" font-size="14.00">previous</text>
</g>
<!-- http://purl.org/dj/kaggle/santa&#45;ip/activity/8956400117493210637 -->
<g id="node14" class="node">
<title>http://purl.org/dj/kaggle/santa&#45;ip/activity/8956400117493210637</title>
<ellipse fill="none" stroke="black" cx="148.84" cy="-366" rx="148.67" ry="18"/>
<text text-anchor="middle" x="148.84" y="-362.3" font-family="Times,serif" font-size="14.00">8956400117493210637 (Visualisation)</text>
</g>
<!-- http://purl.org/dj/kaggle/santa&#45;ip/activity/8956400117493210637&#45;&gt;http://purl.org/dj/kaggle/santa&#45;ip/activity/5324312708597110464 -->
<g id="edge21" class="edge">
<title>http://purl.org/dj/kaggle/santa&#45;ip/activity/8956400117493210637&#45;&gt;http://purl.org/dj/kaggle/santa&#45;ip/activity/5324312708597110464</title>
<path fill="none" stroke="black" d="M179.66,-348.21C204.2,-334.83 238.73,-316.02 265.31,-301.54"/>
<polygon fill="black" stroke="black" points="267.24,-304.47 274.35,-296.61 263.89,-298.32 267.24,-304.47"/>
<text text-anchor="middle" x="260.34" y="-318.8" font-family="Times,serif" font-size="14.00">previous</text>
</g>
<!-- http://purl.org/dj/kaggle/santa&#45;ip/activity/&#45;2193021953203190398 -->
<g id="node15" class="node">
<title>http://purl.org/dj/kaggle/santa&#45;ip/activity/&#45;2193021953203190398</title>
<ellipse fill="none" stroke="black" cx="2094.84" cy="-192" rx="151.37" ry="18"/>
<text text-anchor="middle" x="2094.84" y="-188.3" font-family="Times,serif" font-size="14.00">&#45;2193021953203190398 (Visualisation)</text>
</g>
<!-- http://purl.org/dj/kaggle/santa&#45;ip/activity/&#45;2193021953203190398&#45;&gt;http://purl.org/dj/kaggle/santa&#45;ip/activity/&#45;6437529749011384556 -->
<g id="edge22" class="edge">
<title>http://purl.org/dj/kaggle/santa&#45;ip/activity/&#45;2193021953203190398&#45;&gt;http://purl.org/dj/kaggle/santa&#45;ip/activity/&#45;6437529749011384556</title>
<path fill="none" stroke="black" d="M2006.83,-177.3C1931.99,-166.08 1821.6,-150.56 1724.84,-141 1578.45,-126.54 1409.82,-116.93 1296.6,-111.5"/>
<polygon fill="black" stroke="black" points="1296.65,-108 1286.5,-111.02 1296.32,-114.99 1296.65,-108"/>
<text text-anchor="middle" x="1870.34" y="-144.8" font-family="Times,serif" font-size="14.00">previous</text>
</g>
</g>
</svg>
