<?xml version="1.0" encoding="UTF-8" standalone="no"?>
<!DOCTYPE svg PUBLIC "-//W3C//DTD SVG 1.1//EN"
 "http://www.w3.org/Graphics/SVG/1.1/DTD/svg11.dtd">
<!-- Generated by graphviz version 2.44.1 (20200629.0846)
 -->
<!-- Pages: 1 -->
<svg width="4751pt" height="564pt"
 viewBox="0.00 0.00 4751.22 563.89" xmlns="http://www.w3.org/2000/svg" xmlns:xlink="http://www.w3.org/1999/xlink">
<g id="graph0" class="graph" transform="scale(1 1) rotate(0) translate(4 559.89)">
<polygon fill="white" stroke="transparent" points="-4,4 -4,-559.89 4747.22,-559.89 4747.22,4 -4,4"/>
<!-- http://purl.org/dj/kaggle/select&#45;from&#45;where#864093514 -->
<g id="node1" class="node">
<title>http://purl.org/dj/kaggle/select&#45;from&#45;where#864093514</title>
<ellipse fill="none" stroke="black" cx="2498.79" cy="-450.89" rx="144.07" ry="18"/>
<text text-anchor="middle" x="2498.79" y="-447.19" font-family="Times,serif" font-size="14.00">864093514 (safe_config(0)$0: Reuse)</text>
</g>
<!-- http://purl.org/dj/kaggle/select&#45;from&#45;where#302187174 -->
<g id="node2" class="node">
<title>http://purl.org/dj/kaggle/select&#45;from&#45;where#302187174</title>
<ellipse fill="none" stroke="black" cx="2507.79" cy="-363.89" rx="159.47" ry="18"/>
<text text-anchor="middle" x="2507.79" y="-360.19" font-family="Times,serif" font-size="14.00">302187174 (ONE_MB(0)$0: Preparation)</text>
</g>
<!-- http://purl.org/dj/kaggle/select&#45;from&#45;where#864093514&#45;&gt;http://purl.org/dj/kaggle/select&#45;from&#45;where#302187174 -->
<g id="edge1" class="edge">
<title>http://purl.org/dj/kaggle/select&#45;from&#45;where#864093514&#45;&gt;http://purl.org/dj/kaggle/select&#45;from&#45;where#302187174</title>
<path fill="none" stroke="black" d="M2500.61,-432.69C2501.84,-421.05 2503.49,-405.44 2504.9,-392.13"/>
<polygon fill="black" stroke="black" points="2508.39,-392.38 2505.97,-382.06 2501.43,-391.64 2508.39,-392.38"/>
<text text-anchor="middle" x="2528.29" y="-403.69" font-family="Times,serif" font-size="14.00">previous</text>
</g>
<!-- http://purl.org/dj/kaggle/select&#45;from&#45;where#86966595 -->
<g id="node3" class="node">
<title>http://purl.org/dj/kaggle/select&#45;from&#45;where#86966595</title>
<ellipse fill="none" stroke="black" cx="2843.79" cy="-190.94" rx="108.58" ry="18"/>
<text text-anchor="middle" x="2843.79" y="-187.24" font-family="Times,serif" font-size="14.00">86966595 (1000(0): Reuse)</text>
</g>
<!-- http://purl.org/dj/kaggle/select&#45;from&#45;where#302187174&#45;&gt;http://purl.org/dj/kaggle/select&#45;from&#45;where#86966595 -->
<g id="edge2" class="edge">
<title>http://purl.org/dj/kaggle/select&#45;from&#45;where#302187174&#45;&gt;http://purl.org/dj/kaggle/select&#45;from&#45;where#86966595</title>
<path fill="none" stroke="black" d="M2582.43,-347.97C2626.31,-337.22 2681.82,-320.12 2726.79,-294.89 2764.1,-273.95 2799.95,-239.61 2821.92,-216.4"/>
<polygon fill="black" stroke="black" points="2824.56,-218.7 2828.82,-208.99 2819.44,-213.93 2824.56,-218.7"/>
<text text-anchor="middle" x="2711.29" y="-316.69" font-family="Times,serif" font-size="14.00">previous</text>
</g>
<!-- http://purl.org/dj/kaggle/select&#45;from&#45;where -->
<g id="node4" class="node">
<title>http://purl.org/dj/kaggle/select&#45;from&#45;where</title>
<ellipse fill="none" stroke="black" cx="2151.79" cy="-18" rx="75.29" ry="18"/>
<text text-anchor="middle" x="2151.79" y="-14.3" font-family="Times,serif" font-size="14.00">select&#45;from&#45;where</text>
</g>
<!-- http://purl.org/dj/kaggle/select&#45;from&#45;where#86966595&#45;&gt;http://purl.org/dj/kaggle/select&#45;from&#45;where -->
<g id="edge3" class="edge">
<title>http://purl.org/dj/kaggle/select&#45;from&#45;where#86966595&#45;&gt;http://purl.org/dj/kaggle/select&#45;from&#45;where</title>
<path fill="none" stroke="black" d="M2830.4,-172.96C2810.59,-149.2 2771.01,-106.73 2726.79,-87 2640.81,-48.64 2372.81,-30.01 2235.19,-22.77"/>
<polygon fill="black" stroke="black" points="2235.27,-19.27 2225.11,-22.25 2234.91,-26.27 2235.27,-19.27"/>
<text text-anchor="middle" x="2683.29" y="-57.8" font-family="Times,serif" font-size="14.00">previous</text>
</g>
<!-- http://purl.org/dj/kaggle/select&#45;from&#45;where#316146398 -->
<g id="node5" class="node">
<title>http://purl.org/dj/kaggle/select&#45;from&#45;where#316146398</title>
<ellipse fill="none" stroke="black" cx="604.79" cy="-363.89" rx="145.67" ry="18"/>
<text text-anchor="middle" x="604.79" y="-360.19" font-family="Times,serif" font-size="14.00">316146398 (table(0)$0: Visualisation)</text>
</g>
<!-- http://purl.org/dj/kaggle/select&#45;from&#45;where#1561135094 -->
<g id="node6" class="node">
<title>http://purl.org/dj/kaggle/select&#45;from&#45;where#1561135094</title>
<ellipse fill="none" stroke="black" cx="163.79" cy="-190.94" rx="163.57" ry="18"/>
<text text-anchor="middle" x="163.79" y="-187.24" font-family="Times,serif" font-size="14.00">1561135094 (global_air_quality(0): Reuse)</text>
</g>
<!-- http://purl.org/dj/kaggle/select&#45;from&#45;where#316146398&#45;&gt;http://purl.org/dj/kaggle/select&#45;from&#45;where#1561135094 -->
<g id="edge4" class="edge">
<title>http://purl.org/dj/kaggle/select&#45;from&#45;where#316146398&#45;&gt;http://purl.org/dj/kaggle/select&#45;from&#45;where#1561135094</title>
<path fill="none" stroke="black" d="M524.58,-348.84C470.29,-337.82 397.66,-320.1 336.79,-294.89 284.62,-273.28 229.39,-237.95 195.75,-214.82"/>
<polygon fill="black" stroke="black" points="197.47,-211.75 187.26,-208.93 193.48,-217.5 197.47,-211.75"/>
<text text-anchor="middle" x="454.29" y="-316.69" font-family="Times,serif" font-size="14.00">previous</text>
</g>
<!-- http://purl.org/dj/kaggle/select&#45;from&#45;where#292619014 -->
<g id="node7" class="node">
<title>http://purl.org/dj/kaggle/select&#45;from&#45;where#292619014</title>
<ellipse fill="none" stroke="black" cx="829.79" cy="-190.94" rx="120.48" ry="18"/>
<text text-anchor="middle" x="829.79" y="-187.24" font-family="Times,serif" font-size="14.00">292619014 (openaq(0): Reuse)</text>
</g>
<!-- http://purl.org/dj/kaggle/select&#45;from&#45;where#316146398&#45;&gt;http://purl.org/dj/kaggle/select&#45;from&#45;where#292619014 -->
<g id="edge5" class="edge">
<title>http://purl.org/dj/kaggle/select&#45;from&#45;where#316146398&#45;&gt;http://purl.org/dj/kaggle/select&#45;from&#45;where#292619014</title>
<path fill="none" stroke="black" d="M641.55,-346.35C652.26,-340.98 663.76,-334.65 673.79,-327.89 724.37,-293.79 776.49,-245.11 805.85,-216.2"/>
<polygon fill="black" stroke="black" points="808.53,-218.47 813.16,-208.94 803.6,-213.5 808.53,-218.47"/>
<text text-anchor="middle" x="716.29" y="-316.69" font-family="Times,serif" font-size="14.00">previous</text>
</g>
<!-- http://purl.org/dj/python/lib/520815811 -->
<g id="node8" class="node">
<title>http://purl.org/dj/python/lib/520815811</title>
<ellipse fill="none" stroke="black" cx="1368.79" cy="-190.94" rx="130.78" ry="18"/>
<text text-anchor="middle" x="1368.79" y="-187.24" font-family="Times,serif" font-size="14.00">520815811 (google.cloud: Reuse)</text>
</g>
<!-- http://purl.org/dj/kaggle/select&#45;from&#45;where#316146398&#45;&gt;http://purl.org/dj/python/lib/520815811 -->
<g id="edge6" class="edge">
<title>http://purl.org/dj/kaggle/select&#45;from&#45;where#316146398&#45;&gt;http://purl.org/dj/python/lib/520815811</title>
<path fill="none" stroke="black" d="M707.28,-351.01C724.78,-349.17 742.8,-347.38 759.79,-345.89 880.92,-335.26 912.01,-342 1032.79,-327.89 1054.72,-325.33 1208.45,-303.5 1228.79,-294.89 1273.6,-275.92 1317.53,-239.98 1343.89,-215.99"/>
<polygon fill="black" stroke="black" points="1346.52,-218.32 1351.49,-208.96 1341.77,-213.18 1346.52,-218.32"/>
<text text-anchor="middle" x="1155.29" y="-316.69" font-family="Times,serif" font-size="14.00">previous</text>
</g>
<!-- http://purl.org/dj/kaggle/select&#45;from&#45;where#439485418 -->
<g id="node9" class="node">
<title>http://purl.org/dj/kaggle/select&#45;from&#45;where#439485418</title>
<ellipse fill="none" stroke="black" cx="1093.79" cy="-190.94" rx="126.18" ry="18"/>
<text text-anchor="middle" x="1093.79" y="-187.24" font-family="Times,serif" font-size="14.00">439485418 (bigquery(0): Reuse)</text>
</g>
<!-- http://purl.org/dj/kaggle/select&#45;from&#45;where#316146398&#45;&gt;http://purl.org/dj/kaggle/select&#45;from&#45;where#439485418 -->
<g id="edge7" class="edge">
<title>http://purl.org/dj/kaggle/select&#45;from&#45;where#316146398&#45;&gt;http://purl.org/dj/kaggle/select&#45;from&#45;where#439485418</title>
<path fill="none" stroke="black" d="M709.82,-351.35C788.84,-342.48 884.99,-331.2 893.79,-327.89 904.86,-323.73 905.39,-318.54 915.79,-312.89 933.99,-303 940.85,-305.25 958.79,-294.89 999.03,-271.64 1040.92,-237.97 1067.15,-215.54"/>
<polygon fill="black" stroke="black" points="1069.49,-218.15 1074.77,-208.97 1064.92,-212.85 1069.49,-218.15"/>
<text text-anchor="middle" x="939.29" y="-316.69" font-family="Times,serif" font-size="14.00">previous</text>
</g>
<!-- http://purl.org/dj/kaggle/select&#45;from&#45;where#1825900637 -->
<g id="node10" class="node">
<title>http://purl.org/dj/kaggle/select&#45;from&#45;where#1825900637</title>
<ellipse fill="none" stroke="black" cx="518.79" cy="-190.94" rx="172.77" ry="18"/>
<text text-anchor="middle" x="518.79" y="-187.24" font-family="Times,serif" font-size="14.00">1825900637 (bigquery&#45;public&#45;data(0): Reuse)</text>
</g>
<!-- http://purl.org/dj/kaggle/select&#45;from&#45;where#316146398&#45;&gt;http://purl.org/dj/kaggle/select&#45;from&#45;where#1825900637 -->
<g id="edge8" class="edge">
<title>http://purl.org/dj/kaggle/select&#45;from&#45;where#316146398&#45;&gt;http://purl.org/dj/kaggle/select&#45;from&#45;where#1825900637</title>
<path fill="none" stroke="black" d="M572.86,-346.17C565.71,-341.14 558.77,-335.02 553.79,-327.89 530.86,-295.14 522.94,-248.54 520.22,-219.29"/>
<polygon fill="black" stroke="black" points="523.68,-218.68 519.4,-208.99 516.7,-219.24 523.68,-218.68"/>
<text text-anchor="middle" x="577.29" y="-316.69" font-family="Times,serif" font-size="14.00">previous</text>
</g>
<!-- http://purl.org/dj/kaggle/select&#45;from&#45;where#1561135094&#45;&gt;http://purl.org/dj/kaggle/select&#45;from&#45;where -->
<g id="edge9" class="edge">
<title>http://purl.org/dj/kaggle/select&#45;from&#45;where#1561135094&#45;&gt;http://purl.org/dj/kaggle/select&#45;from&#45;where</title>
<path fill="none" stroke="black" d="M184.87,-172.92C215.98,-148.9 276.96,-105.89 336.79,-87 523.36,-28.08 580.37,-63.82 775.79,-54 1263.86,-29.46 1850.24,-21.79 2066.4,-19.7"/>
<polygon fill="black" stroke="black" points="2066.44,-23.2 2076.41,-19.6 2066.38,-16.2 2066.44,-23.2"/>
<text text-anchor="middle" x="799.29" y="-57.8" font-family="Times,serif" font-size="14.00">previous</text>
</g>
<!-- http://purl.org/dj/kaggle/select&#45;from&#45;where#292619014&#45;&gt;http://purl.org/dj/kaggle/select&#45;from&#45;where -->
<g id="edge10" class="edge">
<title>http://purl.org/dj/kaggle/select&#45;from&#45;where#292619014&#45;&gt;http://purl.org/dj/kaggle/select&#45;from&#45;where</title>
<path fill="none" stroke="black" d="M844.41,-173.01C866.43,-148.88 910.64,-105.5 958.79,-87 1010.44,-67.15 1804.96,-33.14 2067.96,-22.37"/>
<polygon fill="black" stroke="black" points="2068.37,-25.86 2078.21,-21.95 2068.08,-18.87 2068.37,-25.86"/>
<text text-anchor="middle" x="1396.29" y="-57.8" font-family="Times,serif" font-size="14.00">previous</text>
</g>
<!-- http://purl.org/dj/python/lib/520815811&#45;&gt;http://purl.org/dj/kaggle/select&#45;from&#45;where -->
<g id="edge11" class="edge">
<title>http://purl.org/dj/python/lib/520815811&#45;&gt;http://purl.org/dj/kaggle/select&#45;from&#45;where</title>
<path fill="none" stroke="black" d="M1384.97,-172.98C1409.24,-148.82 1457.69,-105.4 1508.79,-87 1574.33,-63.39 1752.49,-76.23 1821.79,-69 1912.78,-59.51 2017.07,-42.71 2083.63,-31.22"/>
<polygon fill="black" stroke="black" points="2084.32,-34.65 2093.58,-29.49 2083.13,-27.76 2084.32,-34.65"/>
<text text-anchor="middle" x="1964.29" y="-57.8" font-family="Times,serif" font-size="14.00">previous</text>
</g>
<!-- http://purl.org/dj/kaggle/select&#45;from&#45;where#439485418&#45;&gt;http://purl.org/dj/kaggle/select&#45;from&#45;where -->
<g id="edge12" class="edge">
<title>http://purl.org/dj/kaggle/select&#45;from&#45;where#439485418&#45;&gt;http://purl.org/dj/kaggle/select&#45;from&#45;where</title>
<path fill="none" stroke="black" d="M1109.25,-172.97C1132.49,-148.79 1179.01,-105.35 1228.79,-87 1297.07,-61.82 1483.18,-74.04 1555.79,-69 1741.3,-56.11 1958.95,-36.79 2072.97,-26.34"/>
<polygon fill="black" stroke="black" points="2073.37,-29.82 2083,-25.42 2072.73,-22.84 2073.37,-29.82"/>
<text text-anchor="middle" x="1776.29" y="-57.8" font-family="Times,serif" font-size="14.00">previous</text>
</g>
<!-- http://purl.org/dj/kaggle/select&#45;from&#45;where#1825900637&#45;&gt;http://purl.org/dj/kaggle/select&#45;from&#45;where -->
<g id="edge13" class="edge">
<title>http://purl.org/dj/kaggle/select&#45;from&#45;where#1825900637&#45;&gt;http://purl.org/dj/kaggle/select&#45;from&#45;where</title>
<path fill="none" stroke="black" d="M541.14,-172.98C574.08,-149.04 638.49,-106.13 700.79,-87 831.08,-46.99 1776.08,-26.06 2066.87,-20.52"/>
<polygon fill="black" stroke="black" points="2067,-24.02 2076.94,-20.33 2066.87,-17.02 2067,-24.02"/>
<text text-anchor="middle" x="1034.29" y="-57.8" font-family="Times,serif" font-size="14.00">previous</text>
</g>
<!-- http://purl.org/dj/kaggle/select&#45;from&#45;where#205201729 -->
<g id="node11" class="node">
<title>http://purl.org/dj/kaggle/select&#45;from&#45;where#205201729</title>
<ellipse fill="none" stroke="black" cx="3222.79" cy="-190.94" rx="252.37" ry="103.89"/>
<text text-anchor="middle" x="3222.79" y="-249.24" font-family="Times,serif" font-size="14.00">205201729 (</text>
<text text-anchor="middle" x="3222.79" y="-218.24" font-family="Times,serif" font-size="14.00"> &#160;&#160;&#160;&#160;&#160;&#160;&#160;SELECT *</text>
<text text-anchor="middle" x="3222.79" y="-187.24" font-family="Times,serif" font-size="14.00"> &#160;&#160;&#160;&#160;&#160;&#160;&#160;FROM `bigquery&#45;public&#45;data.openaq.global_air_quality`</text>
<text text-anchor="middle" x="3222.79" y="-156.24" font-family="Times,serif" font-size="14.00"> &#160;&#160;&#160;&#160;&#160;&#160;&#160;WHERE country = &#39;US&#39;</text>
<text text-anchor="middle" x="3222.79" y="-125.24" font-family="Times,serif" font-size="14.00"> &#160;&#160;&#160;&#160;&#160;&#160;&#160;(0): Reuse)</text>
</g>
<!-- http://purl.org/dj/kaggle/select&#45;from&#45;where#205201729&#45;&gt;http://purl.org/dj/kaggle/select&#45;from&#45;where -->
<g id="edge14" class="edge">
<title>http://purl.org/dj/kaggle/select&#45;from&#45;where#205201729&#45;&gt;http://purl.org/dj/kaggle/select&#45;from&#45;where</title>
<path fill="none" stroke="black" d="M3049.96,-114.96C3020.92,-104.34 2990.79,-94.5 2961.79,-87 2826.18,-51.91 2413.79,-30.35 2235.44,-22.44"/>
<polygon fill="black" stroke="black" points="2235.47,-18.94 2225.32,-21.99 2235.16,-25.93 2235.47,-18.94"/>
<text text-anchor="middle" x="2871.29" y="-57.8" font-family="Times,serif" font-size="14.00">previous</text>
</g>
<!-- http://purl.org/dj/kaggle/select&#45;from&#45;where#249561878 -->
<g id="node12" class="node">
<title>http://purl.org/dj/kaggle/select&#45;from&#45;where#249561878</title>
<ellipse fill="none" stroke="black" cx="3710.79" cy="-363.89" rx="136.48" ry="18"/>
<text text-anchor="middle" x="3710.79" y="-360.19" font-family="Times,serif" font-size="14.00">249561878 (print[0]: Visualisation)</text>
</g>
<!-- http://purl.org/dj/kaggle/select&#45;from&#45;where#4211215604 -->
<g id="node13" class="node">
<title>http://purl.org/dj/kaggle/select&#45;from&#45;where#4211215604</title>
<ellipse fill="none" stroke="black" cx="3710.79" cy="-190.94" rx="217.16" ry="18"/>
<text text-anchor="middle" x="3710.79" y="-187.24" font-family="Times,serif" font-size="14.00">4211215604 (This query will process {} bytes.(0): Reuse)</text>
</g>
<!-- http://purl.org/dj/kaggle/select&#45;from&#45;where#249561878&#45;&gt;http://purl.org/dj/kaggle/select&#45;from&#45;where#4211215604 -->
<g id="edge15" class="edge">
<title>http://purl.org/dj/kaggle/select&#45;from&#45;where#249561878&#45;&gt;http://purl.org/dj/kaggle/select&#45;from&#45;where#4211215604</title>
<path fill="none" stroke="black" d="M3710.79,-345.87C3710.79,-316.26 3710.79,-254.99 3710.79,-219.33"/>
<polygon fill="black" stroke="black" points="3714.29,-219.15 3710.79,-209.15 3707.29,-219.15 3714.29,-219.15"/>
<text text-anchor="middle" x="3734.29" y="-316.69" font-family="Times,serif" font-size="14.00">previous</text>
</g>
<!-- http://purl.org/dj/kaggle/select&#45;from&#45;where#4211215604&#45;&gt;http://purl.org/dj/kaggle/select&#45;from&#45;where -->
<g id="edge16" class="edge">
<title>http://purl.org/dj/kaggle/select&#45;from&#45;where#4211215604&#45;&gt;http://purl.org/dj/kaggle/select&#45;from&#45;where</title>
<path fill="none" stroke="black" d="M3682.64,-173.03C3640.92,-148.93 3559.42,-105.59 3483.79,-87 3246.2,-28.59 2493.23,-20.28 2237.63,-19.15"/>
<polygon fill="black" stroke="black" points="2237.31,-15.65 2227.29,-19.11 2237.28,-22.65 2237.31,-15.65"/>
<text text-anchor="middle" x="3400.29" y="-57.8" font-family="Times,serif" font-size="14.00">previous</text>
</g>
<!-- http://purl.org/dj/kaggle/select&#45;from&#45;where#677774494 -->
<g id="node14" class="node">
<title>http://purl.org/dj/kaggle/select&#45;from&#45;where#677774494</title>
<ellipse fill="none" stroke="black" cx="1625.79" cy="-363.89" rx="159.47" ry="18"/>
<text text-anchor="middle" x="1625.79" y="-360.19" font-family="Times,serif" font-size="14.00">677774494 (us_cities(0)$0: Visualisation)</text>
</g>
<!-- http://purl.org/dj/kaggle/select&#45;from&#45;where#677774494&#45;&gt;http://purl.org/dj/python/lib/520815811 -->
<g id="edge17" class="edge">
<title>http://purl.org/dj/kaggle/select&#45;from&#45;where#677774494&#45;&gt;http://purl.org/dj/python/lib/520815811</title>
<path fill="none" stroke="black" d="M1594.94,-346.16C1571.03,-332.9 1537.28,-313.57 1508.79,-294.89 1469.46,-269.11 1426.12,-236.56 1398.23,-215.04"/>
<polygon fill="black" stroke="black" points="1400.14,-212.09 1390.1,-208.73 1395.86,-217.62 1400.14,-212.09"/>
<text text-anchor="middle" x="1586.29" y="-316.69" font-family="Times,serif" font-size="14.00">previous</text>
</g>
<!-- http://purl.org/dj/kaggle/select&#45;from&#45;where#677774494&#45;&gt;http://purl.org/dj/kaggle/select&#45;from&#45;where#439485418 -->
<g id="edge18" class="edge">
<title>http://purl.org/dj/kaggle/select&#45;from&#45;where#677774494&#45;&gt;http://purl.org/dj/kaggle/select&#45;from&#45;where#439485418</title>
<path fill="none" stroke="black" d="M1468.7,-360.9C1373.66,-357.48 1262.77,-348.9 1219.79,-327.89 1206.51,-321.4 1147.46,-254.29 1115.13,-216.85"/>
<polygon fill="black" stroke="black" points="1117.46,-214.19 1108.28,-208.9 1112.16,-218.76 1117.46,-214.19"/>
<text text-anchor="middle" x="1243.29" y="-316.69" font-family="Times,serif" font-size="14.00">previous</text>
</g>
<!-- http://purl.org/dj/kaggle/select&#45;from&#45;where#3192791760 -->
<g id="node15" class="node">
<title>http://purl.org/dj/kaggle/select&#45;from&#45;where#3192791760</title>
<ellipse fill="none" stroke="black" cx="1769.79" cy="-190.94" rx="252.37" ry="103.89"/>
<text text-anchor="middle" x="1769.79" y="-249.24" font-family="Times,serif" font-size="14.00">3192791760 (</text>
<text text-anchor="middle" x="1769.79" y="-218.24" font-family="Times,serif" font-size="14.00"> &#160;&#160;&#160;&#160;&#160;&#160;&#160;SELECT city</text>
<text text-anchor="middle" x="1769.79" y="-187.24" font-family="Times,serif" font-size="14.00"> &#160;&#160;&#160;&#160;&#160;&#160;&#160;FROM `bigquery&#45;public&#45;data.openaq.global_air_quality`</text>
<text text-anchor="middle" x="1769.79" y="-156.24" font-family="Times,serif" font-size="14.00"> &#160;&#160;&#160;&#160;&#160;&#160;&#160;WHERE country = &#39;US&#39;</text>
<text text-anchor="middle" x="1769.79" y="-125.24" font-family="Times,serif" font-size="14.00"> &#160;&#160;&#160;&#160;&#160;&#160;&#160;(0): Reuse)</text>
</g>
<!-- http://purl.org/dj/kaggle/select&#45;from&#45;where#677774494&#45;&gt;http://purl.org/dj/kaggle/select&#45;from&#45;where#3192791760 -->
<g id="edge19" class="edge">
<title>http://purl.org/dj/kaggle/select&#45;from&#45;where#677774494&#45;&gt;http://purl.org/dj/kaggle/select&#45;from&#45;where#3192791760</title>
<path fill="none" stroke="black" d="M1640.12,-345.87C1650.37,-333.7 1665.13,-316.18 1681.04,-297.29"/>
<polygon fill="black" stroke="black" points="1683.91,-299.32 1687.68,-289.42 1678.56,-294.81 1683.91,-299.32"/>
<text text-anchor="middle" x="1688.29" y="-316.69" font-family="Times,serif" font-size="14.00">previous</text>
</g>
<!-- http://purl.org/dj/kaggle/select&#45;from&#45;where#3192791760&#45;&gt;http://purl.org/dj/kaggle/select&#45;from&#45;where -->
<g id="edge20" class="edge">
<title>http://purl.org/dj/kaggle/select&#45;from&#45;where#3192791760&#45;&gt;http://purl.org/dj/kaggle/select&#45;from&#45;where</title>
<path fill="none" stroke="black" d="M1939.56,-113.97C2001.86,-86.09 2067.21,-56.85 2108.65,-38.3"/>
<polygon fill="black" stroke="black" points="2110.19,-41.45 2117.89,-34.17 2107.33,-35.06 2110.19,-41.45"/>
<text text-anchor="middle" x="2093.29" y="-57.8" font-family="Times,serif" font-size="14.00">previous</text>
</g>
<!-- http://purl.org/dj/kaggle/select&#45;from&#45;where#1739917320 -->
<g id="node16" class="node">
<title>http://purl.org/dj/kaggle/select&#45;from&#45;where#1739917320</title>
<ellipse fill="none" stroke="black" cx="2048.79" cy="-363.89" rx="200.66" ry="18"/>
<text text-anchor="middle" x="2048.79" y="-360.19" font-family="Times,serif" font-size="14.00">1739917320 (dry_run_query_job(0)$0: Visualisation)</text>
</g>
<!-- http://purl.org/dj/kaggle/select&#45;from&#45;where#1739917320&#45;&gt;http://purl.org/dj/python/lib/520815811 -->
<g id="edge21" class="edge">
<title>http://purl.org/dj/kaggle/select&#45;from&#45;where#1739917320&#45;&gt;http://purl.org/dj/python/lib/520815811</title>
<path fill="none" stroke="black" d="M1990.9,-346.55C1947.92,-335.13 1887.66,-320.59 1833.79,-312.89 1762.18,-302.66 1576.86,-319.33 1508.79,-294.89 1462.47,-278.26 1418.33,-241.02 1392.41,-216.2"/>
<polygon fill="black" stroke="black" points="1394.56,-213.41 1384.96,-208.92 1389.67,-218.42 1394.56,-213.41"/>
<text text-anchor="middle" x="1935.29" y="-316.69" font-family="Times,serif" font-size="14.00">previous</text>
</g>
<!-- http://purl.org/dj/kaggle/select&#45;from&#45;where#1739917320&#45;&gt;http://purl.org/dj/kaggle/select&#45;from&#45;where#439485418 -->
<g id="edge22" class="edge">
<title>http://purl.org/dj/kaggle/select&#45;from&#45;where#1739917320&#45;&gt;http://purl.org/dj/kaggle/select&#45;from&#45;where#439485418</title>
<path fill="none" stroke="black" d="M1894.06,-352.39C1860.97,-350.2 1826.22,-347.93 1793.79,-345.89 1658.7,-337.39 1624.56,-340.39 1489.79,-327.89 1460.68,-325.19 1255.84,-305.97 1228.79,-294.89 1184.54,-276.77 1142.16,-240.28 1117.05,-215.97"/>
<polygon fill="black" stroke="black" points="1119.41,-213.38 1109.83,-208.86 1114.49,-218.37 1119.41,-213.38"/>
<text text-anchor="middle" x="1513.29" y="-316.69" font-family="Times,serif" font-size="14.00">previous</text>
</g>
<!-- http://purl.org/dj/kaggle/select&#45;from&#45;where#1491083581 -->
<g id="node17" class="node">
<title>http://purl.org/dj/kaggle/select&#45;from&#45;where#1491083581</title>
<ellipse fill="none" stroke="black" cx="2499.79" cy="-190.94" rx="217.58" ry="103.89"/>
<text text-anchor="middle" x="2499.79" y="-249.24" font-family="Times,serif" font-size="14.00">1491083581 (</text>
<text text-anchor="middle" x="2499.79" y="-218.24" font-family="Times,serif" font-size="14.00"> &#160;&#160;&#160;&#160;&#160;&#160;&#160;SELECT score, title</text>
<text text-anchor="middle" x="2499.79" y="-187.24" font-family="Times,serif" font-size="14.00"> &#160;&#160;&#160;&#160;&#160;&#160;&#160;FROM `bigquery&#45;public&#45;data.hacker_news.full`</text>
<text text-anchor="middle" x="2499.79" y="-156.24" font-family="Times,serif" font-size="14.00"> &#160;&#160;&#160;&#160;&#160;&#160;&#160;WHERE type = &quot;job&quot; </text>
<text text-anchor="middle" x="2499.79" y="-125.24" font-family="Times,serif" font-size="14.00"> &#160;&#160;&#160;&#160;&#160;&#160;&#160;(0): Reuse)</text>
</g>
<!-- http://purl.org/dj/kaggle/select&#45;from&#45;where#1739917320&#45;&gt;http://purl.org/dj/kaggle/select&#45;from&#45;where#1491083581 -->
<g id="edge23" class="edge">
<title>http://purl.org/dj/kaggle/select&#45;from&#45;where#1739917320&#45;&gt;http://purl.org/dj/kaggle/select&#45;from&#45;where#1491083581</title>
<path fill="none" stroke="black" d="M2104.06,-346.52C2165.06,-328.39 2256.79,-300.92 2272.79,-294.89 2293.69,-287.02 2315.39,-278.13 2336.71,-268.97"/>
<polygon fill="black" stroke="black" points="2338.37,-272.07 2346.15,-264.88 2335.59,-265.64 2338.37,-272.07"/>
<text text-anchor="middle" x="2237.29" y="-316.69" font-family="Times,serif" font-size="14.00">previous</text>
</g>
<!-- http://purl.org/dj/kaggle/select&#45;from&#45;where#165478946 -->
<g id="node18" class="node">
<title>http://purl.org/dj/kaggle/select&#45;from&#45;where#165478946</title>
<ellipse fill="none" stroke="black" cx="2151.79" cy="-190.94" rx="111.58" ry="18"/>
<text text-anchor="middle" x="2151.79" y="-187.24" font-family="Times,serif" font-size="14.00">165478946 (True(0): Reuse)</text>
</g>
<!-- http://purl.org/dj/kaggle/select&#45;from&#45;where#1739917320&#45;&gt;http://purl.org/dj/kaggle/select&#45;from&#45;where#165478946 -->
<g id="edge24" class="edge">
<title>http://purl.org/dj/kaggle/select&#45;from&#45;where#1739917320&#45;&gt;http://purl.org/dj/kaggle/select&#45;from&#45;where#165478946</title>
<path fill="none" stroke="black" d="M2059.04,-345.87C2077.16,-315.79 2114.95,-253.07 2136.28,-217.68"/>
<polygon fill="black" stroke="black" points="2139.41,-219.26 2141.57,-208.89 2133.42,-215.65 2139.41,-219.26"/>
<text text-anchor="middle" x="2100.29" y="-316.69" font-family="Times,serif" font-size="14.00">previous</text>
</g>
<!-- http://purl.org/dj/kaggle/select&#45;from&#45;where#1491083581&#45;&gt;http://purl.org/dj/kaggle/select&#45;from&#45;where -->
<g id="edge25" class="edge">
<title>http://purl.org/dj/kaggle/select&#45;from&#45;where#1491083581&#45;&gt;http://purl.org/dj/kaggle/select&#45;from&#45;where</title>
<path fill="none" stroke="black" d="M2348.92,-115.84C2291.72,-87.74 2231.13,-57.98 2192.46,-38.98"/>
<polygon fill="black" stroke="black" points="2193.64,-35.66 2183.12,-34.39 2190.55,-41.94 2193.64,-35.66"/>
<text text-anchor="middle" x="2269.29" y="-57.8" font-family="Times,serif" font-size="14.00">previous</text>
</g>
<!-- http://purl.org/dj/kaggle/select&#45;from&#45;where#165478946&#45;&gt;http://purl.org/dj/kaggle/select&#45;from&#45;where -->
<g id="edge26" class="edge">
<title>http://purl.org/dj/kaggle/select&#45;from&#45;where#165478946&#45;&gt;http://purl.org/dj/kaggle/select&#45;from&#45;where</title>
<path fill="none" stroke="black" d="M2151.79,-172.93C2151.79,-143.31 2151.79,-82.04 2151.79,-46.38"/>
<polygon fill="black" stroke="black" points="2155.29,-46.2 2151.79,-36.2 2148.29,-46.2 2155.29,-46.2"/>
<text text-anchor="middle" x="2175.29" y="-57.8" font-family="Times,serif" font-size="14.00">previous</text>
</g>
<!-- http://purl.org/dj/kaggle/select&#45;from&#45;where#1258817189 -->
<g id="node19" class="node">
<title>http://purl.org/dj/kaggle/select&#45;from&#45;where#1258817189</title>
<ellipse fill="none" stroke="black" cx="1673.79" cy="-537.89" rx="187.37" ry="18"/>
<text text-anchor="middle" x="1673.79" y="-534.19" font-family="Times,serif" font-size="14.00">1258817189 (safe_query_job(0)$1: Visualisation)</text>
</g>
<!-- http://purl.org/dj/kaggle/select&#45;from&#45;where#1258817189&#45;&gt;http://purl.org/dj/kaggle/select&#45;from&#45;where#864093514 -->
<g id="edge27" class="edge">
<title>http://purl.org/dj/kaggle/select&#45;from&#45;where#1258817189&#45;&gt;http://purl.org/dj/kaggle/select&#45;from&#45;where#864093514</title>
<path fill="none" stroke="black" d="M1796.41,-524.26C1954.09,-508.01 2226.04,-479.99 2381.23,-464"/>
<polygon fill="black" stroke="black" points="2381.69,-467.47 2391.28,-462.97 2380.97,-460.51 2381.69,-467.47"/>
<text text-anchor="middle" x="2159.29" y="-490.69" font-family="Times,serif" font-size="14.00">previous</text>
</g>
<!-- http://purl.org/dj/kaggle/select&#45;from&#45;where#1258817189&#45;&gt;http://purl.org/dj/python/lib/520815811 -->
<g id="edge28" class="edge">
<title>http://purl.org/dj/kaggle/select&#45;from&#45;where#1258817189&#45;&gt;http://purl.org/dj/python/lib/520815811</title>
<path fill="none" stroke="black" d="M1557.99,-523.71C1525.03,-518.27 1494.37,-511.05 1480.79,-501.89 1406.51,-451.81 1432.09,-399.9 1410.79,-312.89 1402.69,-279.83 1389.25,-243.05 1379.76,-218.82"/>
<polygon fill="black" stroke="black" points="1382.91,-217.26 1375.96,-209.26 1376.4,-219.85 1382.91,-217.26"/>
<text text-anchor="middle" x="1448.29" y="-403.69" font-family="Times,serif" font-size="14.00">previous</text>
</g>
<!-- http://purl.org/dj/kaggle/select&#45;from&#45;where#1258817189&#45;&gt;http://purl.org/dj/kaggle/select&#45;from&#45;where#439485418 -->
<g id="edge29" class="edge">
<title>http://purl.org/dj/kaggle/select&#45;from&#45;where#1258817189&#45;&gt;http://purl.org/dj/kaggle/select&#45;from&#45;where#439485418</title>
<path fill="none" stroke="black" d="M1523.34,-527.11C1389.76,-509.53 1201.76,-461.01 1108.79,-327.89 1086.38,-295.81 1086.6,-248.71 1089.61,-219.22"/>
<polygon fill="black" stroke="black" points="1093.09,-219.55 1090.8,-209.2 1086.14,-218.72 1093.09,-219.55"/>
<text text-anchor="middle" x="1219.29" y="-403.69" font-family="Times,serif" font-size="14.00">previous</text>
</g>
<!-- http://purl.org/dj/kaggle/select&#45;from&#45;where#1258817189&#45;&gt;http://purl.org/dj/kaggle/select&#45;from&#45;where#1491083581 -->
<g id="edge30" class="edge">
<title>http://purl.org/dj/kaggle/select&#45;from&#45;where#1258817189&#45;&gt;http://purl.org/dj/kaggle/select&#45;from&#45;where#1491083581</title>
<path fill="none" stroke="black" d="M1776.05,-522.76C1896.47,-503.24 2100.17,-461.12 2258.79,-381.89 2262.56,-380 2321.73,-333.38 2380.49,-286.8"/>
<polygon fill="black" stroke="black" points="2382.73,-289.49 2388.39,-280.53 2378.38,-284 2382.73,-289.49"/>
<text text-anchor="middle" x="2243.29" y="-403.69" font-family="Times,serif" font-size="14.00">previous</text>
</g>
<!-- http://purl.org/dj/kaggle/select&#45;from&#45;where#395510609 -->
<g id="node20" class="node">
<title>http://purl.org/dj/kaggle/select&#45;from&#45;where#395510609</title>
<ellipse fill="none" stroke="black" cx="917.79" cy="-363.89" rx="149.47" ry="18"/>
<text text-anchor="middle" x="917.79" y="-360.19" font-family="Times,serif" font-size="14.00">395510609 (tables(0)$0: Visualisation)</text>
</g>
<!-- http://purl.org/dj/kaggle/select&#45;from&#45;where#395510609&#45;&gt;http://purl.org/dj/kaggle/select&#45;from&#45;where#292619014 -->
<g id="edge31" class="edge">
<title>http://purl.org/dj/kaggle/select&#45;from&#45;where#395510609&#45;&gt;http://purl.org/dj/kaggle/select&#45;from&#45;where#292619014</title>
<path fill="none" stroke="black" d="M868.64,-346.72C860.2,-341.89 852.36,-335.73 846.79,-327.89 824.06,-295.96 823.54,-248.82 826.06,-219.27"/>
<polygon fill="black" stroke="black" points="829.55,-219.55 827.09,-209.24 822.59,-218.83 829.55,-219.55"/>
<text text-anchor="middle" x="870.29" y="-316.69" font-family="Times,serif" font-size="14.00">previous</text>
</g>
<!-- http://purl.org/dj/kaggle/select&#45;from&#45;where#395510609&#45;&gt;http://purl.org/dj/python/lib/520815811 -->
<g id="edge32" class="edge">
<title>http://purl.org/dj/kaggle/select&#45;from&#45;where#395510609&#45;&gt;http://purl.org/dj/python/lib/520815811</title>
<path fill="none" stroke="black" d="M1064.47,-360.34C1145.26,-356.61 1236.03,-347.91 1270.79,-327.89 1313.97,-303.02 1343.24,-250.57 1357.88,-218.58"/>
<polygon fill="black" stroke="black" points="1361.11,-219.93 1361.95,-209.37 1354.71,-217.1 1361.11,-219.93"/>
<text text-anchor="middle" x="1313.29" y="-316.69" font-family="Times,serif" font-size="14.00">previous</text>
</g>
<!-- http://purl.org/dj/kaggle/select&#45;from&#45;where#395510609&#45;&gt;http://purl.org/dj/kaggle/select&#45;from&#45;where#439485418 -->
<g id="edge33" class="edge">
<title>http://purl.org/dj/kaggle/select&#45;from&#45;where#395510609&#45;&gt;http://purl.org/dj/kaggle/select&#45;from&#45;where#439485418</title>
<path fill="none" stroke="black" d="M943.44,-346.01C951.19,-340.53 959.55,-334.23 966.79,-327.89 1007.46,-292.23 1049.26,-245.05 1073.32,-216.68"/>
<polygon fill="black" stroke="black" points="1076.14,-218.76 1079.9,-208.86 1070.78,-214.25 1076.14,-218.76"/>
<text text-anchor="middle" x="1005.29" y="-316.69" font-family="Times,serif" font-size="14.00">previous</text>
</g>
<!-- http://purl.org/dj/kaggle/select&#45;from&#45;where#395510609&#45;&gt;http://purl.org/dj/kaggle/select&#45;from&#45;where#1825900637 -->
<g id="edge34" class="edge">
<title>http://purl.org/dj/kaggle/select&#45;from&#45;where#395510609&#45;&gt;http://purl.org/dj/kaggle/select&#45;from&#45;where#1825900637</title>
<path fill="none" stroke="black" d="M811.34,-351.23C728.55,-342 627.01,-330.3 622.79,-327.89 578.56,-302.69 546.96,-250.36 530.89,-218.48"/>
<polygon fill="black" stroke="black" points="533.93,-216.74 526.4,-209.29 527.64,-219.81 533.93,-216.74"/>
<text text-anchor="middle" x="646.29" y="-316.69" font-family="Times,serif" font-size="14.00">previous</text>
</g>
<!-- http://purl.org/dj/kaggle/select&#45;from&#45;where#299434656 -->
<g id="node21" class="node">
<title>http://purl.org/dj/kaggle/select&#45;from&#45;where#299434656</title>
<ellipse fill="none" stroke="black" cx="2843.79" cy="-363.89" rx="157.07" ry="18"/>
<text text-anchor="middle" x="2843.79" y="-360.19" font-family="Times,serif" font-size="14.00">299434656 (ONE_GB(0)$0: Preparation)</text>
</g>
<!-- http://purl.org/dj/kaggle/select&#45;from&#45;where#299434656&#45;&gt;http://purl.org/dj/kaggle/select&#45;from&#45;where#86966595 -->
<g id="edge35" class="edge">
<title>http://purl.org/dj/kaggle/select&#45;from&#45;where#299434656&#45;&gt;http://purl.org/dj/kaggle/select&#45;from&#45;where#86966595</title>
<path fill="none" stroke="black" d="M2843.79,-345.87C2843.79,-316.26 2843.79,-254.99 2843.79,-219.33"/>
<polygon fill="black" stroke="black" points="2847.29,-219.15 2843.79,-209.15 2840.29,-219.15 2847.29,-219.15"/>
<text text-anchor="middle" x="2867.29" y="-316.69" font-family="Times,serif" font-size="14.00">previous</text>
</g>
<!-- http://purl.org/dj/kaggle/select&#45;from&#45;where#1411712804 -->
<g id="node22" class="node">
<title>http://purl.org/dj/kaggle/select&#45;from&#45;where#1411712804</title>
<ellipse fill="none" stroke="black" cx="2193.79" cy="-537.89" rx="189.57" ry="18"/>
<text text-anchor="middle" x="2193.79" y="-534.19" font-family="Times,serif" font-size="14.00">1411712804 (job_post_scores(0)$0: Visualisation)</text>
</g>
<!-- http://purl.org/dj/kaggle/select&#45;from&#45;where#1411712804&#45;&gt;http://purl.org/dj/python/lib/520815811 -->
<g id="edge36" class="edge">
<title>http://purl.org/dj/kaggle/select&#45;from&#45;where#1411712804&#45;&gt;http://purl.org/dj/python/lib/520815811</title>
<path fill="none" stroke="black" d="M2145.61,-520.46C2075.45,-495.53 1942.27,-444.37 1838.79,-381.89 1816.86,-368.65 1815.79,-359 1793.79,-345.89 1761.45,-326.62 1752.32,-321.96 1715.79,-312.89 1626.16,-290.63 1595.2,-327.45 1508.79,-294.89 1462.99,-277.63 1419.02,-240.91 1392.95,-216.32"/>
<polygon fill="black" stroke="black" points="1395.08,-213.52 1385.45,-209.11 1390.23,-218.57 1395.08,-213.52"/>
<text text-anchor="middle" x="1919.29" y="-403.69" font-family="Times,serif" font-size="14.00">previous</text>
</g>
<!-- http://purl.org/dj/kaggle/select&#45;from&#45;where#1411712804&#45;&gt;http://purl.org/dj/kaggle/select&#45;from&#45;where#439485418 -->
<g id="edge37" class="edge">
<title>http://purl.org/dj/kaggle/select&#45;from&#45;where#1411712804&#45;&gt;http://purl.org/dj/kaggle/select&#45;from&#45;where#439485418</title>
<path fill="none" stroke="black" d="M2032.41,-528.37C1845.18,-517.29 1556.53,-496.12 1513.79,-468.89 1483.7,-449.73 1501.78,-420.67 1472.79,-399.89 1347.6,-310.15 1246.8,-432.54 1133.79,-327.89 1103.43,-299.78 1095.69,-249.94 1093.96,-219.04"/>
<polygon fill="black" stroke="black" points="1097.45,-218.83 1093.57,-208.97 1090.46,-219.1 1097.45,-218.83"/>
<text text-anchor="middle" x="1510.29" y="-403.69" font-family="Times,serif" font-size="14.00">previous</text>
</g>
<!-- http://purl.org/dj/kaggle/select&#45;from&#45;where#1411712804&#45;&gt;http://purl.org/dj/kaggle/select&#45;from&#45;where#1491083581 -->
<g id="edge38" class="edge">
<title>http://purl.org/dj/kaggle/select&#45;from&#45;where#1411712804&#45;&gt;http://purl.org/dj/kaggle/select&#45;from&#45;where#1491083581</title>
<path fill="none" stroke="black" d="M2205.47,-519.87C2229.25,-485.65 2285.59,-406.61 2339.79,-345.89 2356.21,-327.48 2374.43,-308.66 2392.51,-290.77"/>
<polygon fill="black" stroke="black" points="2395.02,-293.21 2399.7,-283.7 2390.11,-288.22 2395.02,-293.21"/>
<text text-anchor="middle" x="2318.29" y="-403.69" font-family="Times,serif" font-size="14.00">previous</text>
</g>
<!-- http://purl.org/dj/kaggle/select&#45;from&#45;where#864159051 -->
<g id="node23" class="node">
<title>http://purl.org/dj/kaggle/select&#45;from&#45;where#864159051</title>
<ellipse fill="none" stroke="black" cx="2824.79" cy="-450.89" rx="144.07" ry="18"/>
<text text-anchor="middle" x="2824.79" y="-447.19" font-family="Times,serif" font-size="14.00">864159051 (safe_config(0)$1: Reuse)</text>
</g>
<!-- http://purl.org/dj/kaggle/select&#45;from&#45;where#1411712804&#45;&gt;http://purl.org/dj/kaggle/select&#45;from&#45;where#864159051 -->
<g id="edge39" class="edge">
<title>http://purl.org/dj/kaggle/select&#45;from&#45;where#1411712804&#45;&gt;http://purl.org/dj/kaggle/select&#45;from&#45;where#864159051</title>
<path fill="none" stroke="black" d="M2305.1,-523.27C2355.95,-516.95 2416.94,-509.23 2471.79,-501.89 2557.16,-490.47 2654.02,-476.69 2724.66,-466.49"/>
<polygon fill="black" stroke="black" points="2725.49,-469.91 2734.88,-465.01 2724.49,-462.98 2725.49,-469.91"/>
<text text-anchor="middle" x="2602.29" y="-490.69" font-family="Times,serif" font-size="14.00">previous</text>
</g>
<!-- http://purl.org/dj/kaggle/select&#45;from&#45;where#864159051&#45;&gt;http://purl.org/dj/kaggle/select&#45;from&#45;where#299434656 -->
<g id="edge40" class="edge">
<title>http://purl.org/dj/kaggle/select&#45;from&#45;where#864159051&#45;&gt;http://purl.org/dj/kaggle/select&#45;from&#45;where#299434656</title>
<path fill="none" stroke="black" d="M2828.63,-432.69C2831.23,-421.05 2834.72,-405.44 2837.7,-392.13"/>
<polygon fill="black" stroke="black" points="2841.18,-392.59 2839.95,-382.06 2834.35,-391.06 2841.18,-392.59"/>
<text text-anchor="middle" x="2859.29" y="-403.69" font-family="Times,serif" font-size="14.00">previous</text>
</g>
<!-- http://purl.org/dj/kaggle/select&#45;from&#45;where#677840031 -->
<g id="node24" class="node">
<title>http://purl.org/dj/kaggle/select&#45;from&#45;where#677840031</title>
<ellipse fill="none" stroke="black" cx="1675.79" cy="-450.89" rx="153.27" ry="18"/>
<text text-anchor="middle" x="1675.79" y="-447.19" font-family="Times,serif" font-size="14.00">677840031 (us_cities(0)$1: Preparation)</text>
</g>
<!-- http://purl.org/dj/kaggle/select&#45;from&#45;where#677840031&#45;&gt;http://purl.org/dj/kaggle/select&#45;from&#45;where#677774494 -->
<g id="edge41" class="edge">
<title>http://purl.org/dj/kaggle/select&#45;from&#45;where#677840031&#45;&gt;http://purl.org/dj/kaggle/select&#45;from&#45;where#677774494</title>
<path fill="none" stroke="black" d="M1665.67,-432.69C1658.62,-420.71 1649.09,-404.51 1641.11,-390.95"/>
<polygon fill="black" stroke="black" points="1643.98,-388.91 1635.89,-382.06 1637.94,-392.46 1643.98,-388.91"/>
<text text-anchor="middle" x="1677.29" y="-403.69" font-family="Times,serif" font-size="14.00">previous</text>
</g>
<!-- http://purl.org/dj/kaggle/select&#45;from&#45;where#223085194 -->
<g id="node25" class="node">
<title>http://purl.org/dj/kaggle/select&#45;from&#45;where#223085194</title>
<ellipse fill="none" stroke="black" cx="4082.79" cy="-190.94" rx="137.28" ry="18"/>
<text text-anchor="middle" x="4082.79" y="-187.24" font-family="Times,serif" font-size="14.00">223085194 (table(0): Visualisation)</text>
</g>
<!-- http://purl.org/dj/kaggle/select&#45;from&#45;where#223085194&#45;&gt;http://purl.org/dj/kaggle/select&#45;from&#45;where -->
<g id="edge42" class="edge">
<title>http://purl.org/dj/kaggle/select&#45;from&#45;where#223085194&#45;&gt;http://purl.org/dj/kaggle/select&#45;from&#45;where</title>
<path fill="none" stroke="black" d="M4065.74,-173.03C4040.22,-148.93 3989.43,-105.59 3936.79,-87 3775.79,-30.15 2570.89,-20.79 2237.22,-19.28"/>
<polygon fill="black" stroke="black" points="2237.14,-15.78 2227.13,-19.24 2237.11,-22.78 2237.14,-15.78"/>
<text text-anchor="middle" x="3836.29" y="-57.8" font-family="Times,serif" font-size="14.00">previous</text>
</g>
<!-- http://purl.org/dj/kaggle/select&#45;from&#45;where#1558128176 -->
<g id="node26" class="node">
<title>http://purl.org/dj/kaggle/select&#45;from&#45;where#1558128176</title>
<ellipse fill="none" stroke="black" cx="4490.79" cy="-190.94" rx="252.37" ry="103.89"/>
<text text-anchor="middle" x="4490.79" y="-249.24" font-family="Times,serif" font-size="14.00">1558128176 (</text>
<text text-anchor="middle" x="4490.79" y="-218.24" font-family="Times,serif" font-size="14.00"> &#160;&#160;&#160;&#160;&#160;&#160;&#160;SELECT city, country</text>
<text text-anchor="middle" x="4490.79" y="-187.24" font-family="Times,serif" font-size="14.00"> &#160;&#160;&#160;&#160;&#160;&#160;&#160;FROM `bigquery&#45;public&#45;data.openaq.global_air_quality`</text>
<text text-anchor="middle" x="4490.79" y="-156.24" font-family="Times,serif" font-size="14.00"> &#160;&#160;&#160;&#160;&#160;&#160;&#160;WHERE country = &#39;US&#39;</text>
<text text-anchor="middle" x="4490.79" y="-125.24" font-family="Times,serif" font-size="14.00"> &#160;&#160;&#160;&#160;&#160;&#160;&#160;(0): Reuse)</text>
</g>
<!-- http://purl.org/dj/kaggle/select&#45;from&#45;where#1558128176&#45;&gt;http://purl.org/dj/kaggle/select&#45;from&#45;where -->
<g id="edge43" class="edge">
<title>http://purl.org/dj/kaggle/select&#45;from&#45;where#1558128176&#45;&gt;http://purl.org/dj/kaggle/select&#45;from&#45;where</title>
<path fill="none" stroke="black" d="M4319.31,-114.59C4289.58,-103.84 4258.63,-94.06 4228.79,-87 4070.28,-49.51 4026.42,-63 3863.79,-54 3240.55,-19.5 2488,-18.05 2237.5,-18.64"/>
<polygon fill="black" stroke="black" points="2237.36,-15.14 2227.37,-18.67 2237.38,-22.14 2237.36,-15.14"/>
<text text-anchor="middle" x="4161.29" y="-57.8" font-family="Times,serif" font-size="14.00">previous</text>
</g>
</g>
</svg>
