<?xml version="1.0" encoding="UTF-8" standalone="no"?>
<!DOCTYPE svg PUBLIC "-//W3C//DTD SVG 1.1//EN"
 "http://www.w3.org/Graphics/SVG/1.1/DTD/svg11.dtd">
<!-- Generated by graphviz version 2.47.1 (20210417.1919)
 -->
<!-- Pages: 1 -->
<svg width="862pt" height="218pt"
 viewBox="0.00 0.00 861.67 218.00" xmlns="http://www.w3.org/2000/svg" xmlns:xlink="http://www.w3.org/1999/xlink">
<g id="graph0" class="graph" transform="scale(1 1) rotate(0) translate(4 214)">
<polygon fill="white" stroke="transparent" points="-4,4 -4,-214 857.67,-214 857.67,4 -4,4"/>
<!-- http://purl.org/dj/kaggle/shap&#45;values/activity/8932372578688487624 -->
<g id="node1" class="node">
<title>http://purl.org/dj/kaggle/shap&#45;values/activity/8932372578688487624</title>
<ellipse fill="none" stroke="black" cx="547.69" cy="-192" rx="133.48" ry="18"/>
<text text-anchor="middle" x="547.69" y="-188.3" font-family="Times,serif" font-size="14.00">8932372578688487624 (Analysis)</text>
</g>
<!-- http://purl.org/dj/kaggle/shap&#45;values/activity/6629191543625002520 -->
<g id="node2" class="node">
<title>http://purl.org/dj/kaggle/shap&#45;values/activity/6629191543625002520</title>
<ellipse fill="none" stroke="black" cx="477.69" cy="-105" rx="124.28" ry="18"/>
<text text-anchor="middle" x="477.69" y="-101.3" font-family="Times,serif" font-size="14.00">6629191543625002520 (Reuse)</text>
</g>
<!-- http://purl.org/dj/kaggle/shap&#45;values/activity/8932372578688487624&#45;&gt;http://purl.org/dj/kaggle/shap&#45;values/activity/6629191543625002520 -->
<g id="edge1" class="edge">
<title>http://purl.org/dj/kaggle/shap&#45;values/activity/8932372578688487624&#45;&gt;http://purl.org/dj/kaggle/shap&#45;values/activity/6629191543625002520</title>
<path fill="none" stroke="black" d="M499.26,-175.03C491.11,-170.19 483.69,-163.96 478.69,-156 474.45,-149.25 473.12,-140.91 473.16,-133"/>
<polygon fill="black" stroke="black" points="476.66,-133.22 473.87,-123 469.67,-132.72 476.66,-133.22"/>
<text text-anchor="middle" x="502.19" y="-144.8" font-family="Times,serif" font-size="14.00">previous</text>
</g>
<!-- http://purl.org/dj/kaggle/shap&#45;values/activity/6222576941938610110 -->
<g id="node3" class="node">
<title>http://purl.org/dj/kaggle/shap&#45;values/activity/6222576941938610110</title>
<ellipse fill="none" stroke="black" cx="710.69" cy="-18" rx="142.97" ry="18"/>
<text text-anchor="middle" x="710.69" y="-14.3" font-family="Times,serif" font-size="14.00">6222576941938610110 (Preparation)</text>
</g>
<!-- http://purl.org/dj/kaggle/shap&#45;values/activity/8932372578688487624&#45;&gt;http://purl.org/dj/kaggle/shap&#45;values/activity/6222576941938610110 -->
<g id="edge2" class="edge">
<title>http://purl.org/dj/kaggle/shap&#45;values/activity/8932372578688487624&#45;&gt;http://purl.org/dj/kaggle/shap&#45;values/activity/6222576941938610110</title>
<path fill="none" stroke="black" d="M568,-173.97C594.34,-151.39 641.01,-109.63 675.69,-69 682.15,-61.42 688.59,-52.67 694.15,-44.63"/>
<polygon fill="black" stroke="black" points="697.1,-46.51 699.79,-36.26 691.3,-42.59 697.1,-46.51"/>
<text text-anchor="middle" x="681.19" y="-101.3" font-family="Times,serif" font-size="14.00">previous</text>
</g>
<!-- http://purl.org/dj/kaggle/shap&#45;values/activity/6629191543625002520&#45;&gt;http://purl.org/dj/kaggle/shap&#45;values/activity/8932372578688487624 -->
<g id="edge3" class="edge">
<title>http://purl.org/dj/kaggle/shap&#45;values/activity/6629191543625002520&#45;&gt;http://purl.org/dj/kaggle/shap&#45;values/activity/8932372578688487624</title>
<path fill="none" stroke="black" d="M505.72,-122.66C512.89,-127.87 520.13,-134.09 525.69,-141 531.18,-147.83 535.58,-156.24 538.95,-164.21"/>
<polygon fill="black" stroke="black" points="535.7,-165.5 542.56,-173.57 542.23,-162.98 535.7,-165.5"/>
<text text-anchor="middle" x="558.19" y="-144.8" font-family="Times,serif" font-size="14.00">previous</text>
</g>
<!-- http://purl.org/dj/kaggle/shap&#45;values/activity/6629191543625002520&#45;&gt;http://purl.org/dj/kaggle/shap&#45;values/activity/6222576941938610110 -->
<g id="edge4" class="edge">
<title>http://purl.org/dj/kaggle/shap&#45;values/activity/6629191543625002520&#45;&gt;http://purl.org/dj/kaggle/shap&#45;values/activity/6222576941938610110</title>
<path fill="none" stroke="black" d="M529.18,-88.53C547.73,-82.72 568.75,-75.85 587.69,-69 612.82,-59.91 640.41,-48.8 663.09,-39.36"/>
<polygon fill="black" stroke="black" points="664.61,-42.52 672.48,-35.43 661.91,-36.06 664.61,-42.52"/>
<text text-anchor="middle" x="648.19" y="-57.8" font-family="Times,serif" font-size="14.00">previous</text>
</g>
<!-- http://purl.org/dj/kaggle/shap&#45;values/activity/7998283816230584801 -->
<g id="node4" class="node">
<title>http://purl.org/dj/kaggle/shap&#45;values/activity/7998283816230584801</title>
<ellipse fill="none" stroke="black" cx="141.69" cy="-18" rx="141.88" ry="18"/>
<text text-anchor="middle" x="141.69" y="-14.3" font-family="Times,serif" font-size="14.00">7998283816230584801 (Movement)</text>
</g>
<!-- http://purl.org/dj/kaggle/shap&#45;values/activity/6629191543625002520&#45;&gt;http://purl.org/dj/kaggle/shap&#45;values/activity/7998283816230584801 -->
<g id="edge5" class="edge">
<title>http://purl.org/dj/kaggle/shap&#45;values/activity/6629191543625002520&#45;&gt;http://purl.org/dj/kaggle/shap&#45;values/activity/7998283816230584801</title>
<path fill="none" stroke="black" d="M376.63,-94.51C336.83,-89.2 291.08,-81.12 250.69,-69 226.82,-61.84 201.45,-50.45 181.2,-40.34"/>
<polygon fill="black" stroke="black" points="182.77,-37.22 172.27,-35.81 179.6,-43.46 182.77,-37.22"/>
<text text-anchor="middle" x="274.19" y="-57.8" font-family="Times,serif" font-size="14.00">previous</text>
</g>
<!-- http://purl.org/dj/kaggle/shap&#45;values -->
<g id="node5" class="node">
<title>http://purl.org/dj/kaggle/shap&#45;values</title>
<ellipse fill="none" stroke="black" cx="425.69" cy="-18" rx="124.28" ry="18"/>
<text text-anchor="middle" x="425.69" y="-14.3" font-family="Times,serif" font-size="14.00">shap&#45;values (shap&#45;values.ipynb)</text>
</g>
<!-- http://purl.org/dj/kaggle/shap&#45;values/activity/6629191543625002520&#45;&gt;http://purl.org/dj/kaggle/shap&#45;values -->
<g id="edge6" class="edge">
<title>http://purl.org/dj/kaggle/shap&#45;values/activity/6629191543625002520&#45;&gt;http://purl.org/dj/kaggle/shap&#45;values</title>
<path fill="none" stroke="black" d="M467.16,-86.8C459.83,-74.82 449.92,-58.62 441.63,-45.06"/>
<polygon fill="black" stroke="black" points="444.4,-42.88 436.19,-36.18 438.43,-46.53 444.4,-42.88"/>
<text text-anchor="middle" x="479.19" y="-57.8" font-family="Times,serif" font-size="14.00">previous</text>
</g>
<!-- http://purl.org/dj/kaggle/shap&#45;values/activity/6222576941938610110&#45;&gt;http://purl.org/dj/kaggle/shap&#45;values/activity/6629191543625002520 -->
<g id="edge7" class="edge">
<title>http://purl.org/dj/kaggle/shap&#45;values/activity/6222576941938610110&#45;&gt;http://purl.org/dj/kaggle/shap&#45;values/activity/6629191543625002520</title>
<path fill="none" stroke="black" d="M608.51,-30.65C584.19,-35.82 558.88,-43.26 536.69,-54 523.4,-60.43 510.64,-70.56 500.41,-80.03"/>
<polygon fill="black" stroke="black" points="497.88,-77.61 493.11,-87.07 502.74,-82.65 497.88,-77.61"/>
<text text-anchor="middle" x="560.19" y="-57.8" font-family="Times,serif" font-size="14.00">previous</text>
</g>
<!-- http://purl.org/dj/kaggle/shap&#45;values/activity/7998283816230584801&#45;&gt;http://purl.org/dj/kaggle/shap&#45;values/activity/6629191543625002520 -->
<g id="edge8" class="edge">
<title>http://purl.org/dj/kaggle/shap&#45;values/activity/7998283816230584801&#45;&gt;http://purl.org/dj/kaggle/shap&#45;values/activity/6629191543625002520</title>
<path fill="none" stroke="black" d="M210.98,-33.76C238.1,-39.75 269.42,-46.91 297.69,-54 336.91,-63.84 380.63,-75.96 415.16,-85.8"/>
<polygon fill="black" stroke="black" points="414.52,-89.26 425.1,-88.64 416.45,-82.53 414.52,-89.26"/>
<text text-anchor="middle" x="376.19" y="-57.8" font-family="Times,serif" font-size="14.00">previous</text>
</g>
</g>
</svg>
