<?xml version="1.0" encoding="UTF-8" standalone="no"?>
<!DOCTYPE svg PUBLIC "-//W3C//DTD SVG 1.1//EN"
 "http://www.w3.org/Graphics/SVG/1.1/DTD/svg11.dtd">
<!-- Generated by graphviz version 2.47.1 (20210417.1919)
 -->
<!-- Pages: 1 -->
<svg width="1633pt" height="653pt"
 viewBox="0.00 0.00 1633.44 653.00" xmlns="http://www.w3.org/2000/svg" xmlns:xlink="http://www.w3.org/1999/xlink">
<g id="graph0" class="graph" transform="scale(1 1) rotate(0) translate(4 649)">
<polygon fill="white" stroke="transparent" points="-4,4 -4,-649 1629.44,-649 1629.44,4 -4,4"/>
<!-- http://purl.org/dj/kaggle/shuffle&#45;csvs/activity/1619294438495536113 -->
<g id="node1" class="node">
<title>http://purl.org/dj/kaggle/shuffle&#45;csvs/activity/1619294438495536113</title>
<ellipse fill="none" stroke="black" cx="507.44" cy="-540" rx="124.28" ry="18"/>
<text text-anchor="middle" x="507.44" y="-536.3" font-family="Times,serif" font-size="14.00">1619294438495536113 (Reuse)</text>
</g>
<!-- http://purl.org/dj/kaggle/shuffle&#45;csvs/activity/8614576294902553394 -->
<g id="node2" class="node">
<title>http://purl.org/dj/kaggle/shuffle&#45;csvs/activity/8614576294902553394</title>
<ellipse fill="none" stroke="black" cx="1181.44" cy="-453" rx="148.67" ry="18"/>
<text text-anchor="middle" x="1181.44" y="-449.3" font-family="Times,serif" font-size="14.00">8614576294902553394 (Visualisation)</text>
</g>
<!-- http://purl.org/dj/kaggle/shuffle&#45;csvs/activity/1619294438495536113&#45;&gt;http://purl.org/dj/kaggle/shuffle&#45;csvs/activity/8614576294902553394 -->
<g id="edge1" class="edge">
<title>http://purl.org/dj/kaggle/shuffle&#45;csvs/activity/1619294438495536113&#45;&gt;http://purl.org/dj/kaggle/shuffle&#45;csvs/activity/8614576294902553394</title>
<path fill="none" stroke="black" d="M597.64,-527.62C720.52,-512.13 940.32,-484.41 1072.33,-467.76"/>
<polygon fill="black" stroke="black" points="1072.99,-471.2 1082.47,-466.48 1072.11,-464.26 1072.99,-471.2"/>
<text text-anchor="middle" x="907.94" y="-492.8" font-family="Times,serif" font-size="14.00">previous</text>
</g>
<!-- http://purl.org/dj/kaggle/shuffle&#45;csvs/activity/3546183258369596644 -->
<g id="node3" class="node">
<title>http://purl.org/dj/kaggle/shuffle&#45;csvs/activity/3546183258369596644</title>
<ellipse fill="none" stroke="black" cx="507.44" cy="-453" rx="148.67" ry="18"/>
<text text-anchor="middle" x="507.44" y="-449.3" font-family="Times,serif" font-size="14.00">3546183258369596644 (Visualisation)</text>
</g>
<!-- http://purl.org/dj/kaggle/shuffle&#45;csvs/activity/1619294438495536113&#45;&gt;http://purl.org/dj/kaggle/shuffle&#45;csvs/activity/3546183258369596644 -->
<g id="edge2" class="edge">
<title>http://purl.org/dj/kaggle/shuffle&#45;csvs/activity/1619294438495536113&#45;&gt;http://purl.org/dj/kaggle/shuffle&#45;csvs/activity/3546183258369596644</title>
<path fill="none" stroke="black" d="M507.44,-521.8C507.44,-510.16 507.44,-494.55 507.44,-481.24"/>
<polygon fill="black" stroke="black" points="510.94,-481.18 507.44,-471.18 503.94,-481.18 510.94,-481.18"/>
<text text-anchor="middle" x="530.94" y="-492.8" font-family="Times,serif" font-size="14.00">previous</text>
</g>
<!-- http://purl.org/dj/kaggle/shuffle&#45;csvs/activity/&#45;5146932757998341577 -->
<g id="node4" class="node">
<title>http://purl.org/dj/kaggle/shuffle&#45;csvs/activity/&#45;5146932757998341577</title>
<ellipse fill="none" stroke="black" cx="849.44" cy="-366" rx="126.98" ry="18"/>
<text text-anchor="middle" x="849.44" y="-362.3" font-family="Times,serif" font-size="14.00">&#45;5146932757998341577 (Reuse)</text>
</g>
<!-- http://purl.org/dj/kaggle/shuffle&#45;csvs/activity/8614576294902553394&#45;&gt;http://purl.org/dj/kaggle/shuffle&#45;csvs/activity/&#45;5146932757998341577 -->
<g id="edge3" class="edge">
<title>http://purl.org/dj/kaggle/shuffle&#45;csvs/activity/8614576294902553394&#45;&gt;http://purl.org/dj/kaggle/shuffle&#45;csvs/activity/&#45;5146932757998341577</title>
<path fill="none" stroke="black" d="M1079.51,-439.88C1044.55,-434.46 1005.43,-426.99 970.44,-417 943.95,-409.44 915.42,-397.83 892.73,-387.7"/>
<polygon fill="black" stroke="black" points="893.93,-384.41 883.38,-383.47 891.04,-390.78 893.93,-384.41"/>
<text text-anchor="middle" x="993.94" y="-405.8" font-family="Times,serif" font-size="14.00">previous</text>
</g>
<!-- http://purl.org/dj/kaggle/shuffle&#45;csvs -->
<g id="node5" class="node">
<title>http://purl.org/dj/kaggle/shuffle&#45;csvs</title>
<ellipse fill="none" stroke="black" cx="1350.44" cy="-279" rx="125.38" ry="18"/>
<text text-anchor="middle" x="1350.44" y="-275.3" font-family="Times,serif" font-size="14.00">shuffle&#45;csvs (shuffle&#45;csvs.ipynb)</text>
</g>
<!-- http://purl.org/dj/kaggle/shuffle&#45;csvs/activity/8614576294902553394&#45;&gt;http://purl.org/dj/kaggle/shuffle&#45;csvs -->
<g id="edge4" class="edge">
<title>http://purl.org/dj/kaggle/shuffle&#45;csvs/activity/8614576294902553394&#45;&gt;http://purl.org/dj/kaggle/shuffle&#45;csvs</title>
<path fill="none" stroke="black" d="M1234.21,-436.12C1281.98,-418.61 1349.45,-385.34 1380.44,-330 1385.06,-321.74 1382.3,-312.84 1376.94,-304.88"/>
<polygon fill="black" stroke="black" points="1379.59,-302.59 1370.61,-296.98 1374.13,-306.97 1379.59,-302.59"/>
<text text-anchor="middle" x="1389.94" y="-362.3" font-family="Times,serif" font-size="14.00">previous</text>
</g>
<!-- http://purl.org/dj/kaggle/shuffle&#45;csvs/activity/3546183258369596644&#45;&gt;http://purl.org/dj/kaggle/shuffle&#45;csvs/activity/&#45;5146932757998341577 -->
<g id="edge5" class="edge">
<title>http://purl.org/dj/kaggle/shuffle&#45;csvs/activity/3546183258369596644&#45;&gt;http://purl.org/dj/kaggle/shuffle&#45;csvs/activity/&#45;5146932757998341577</title>
<path fill="none" stroke="black" d="M540.12,-435.26C562.92,-424.25 594.35,-410.37 623.44,-402 660.32,-391.38 701.57,-383.79 738.63,-378.46"/>
<polygon fill="black" stroke="black" points="739.55,-381.86 748.97,-377.01 738.58,-374.93 739.55,-381.86"/>
<text text-anchor="middle" x="646.94" y="-405.8" font-family="Times,serif" font-size="14.00">previous</text>
</g>
<!-- http://purl.org/dj/kaggle/shuffle&#45;csvs/activity/&#45;5146932757998341577&#45;&gt;http://purl.org/dj/kaggle/shuffle&#45;csvs/activity/8614576294902553394 -->
<g id="edge6" class="edge">
<title>http://purl.org/dj/kaggle/shuffle&#45;csvs/activity/&#45;5146932757998341577&#45;&gt;http://purl.org/dj/kaggle/shuffle&#45;csvs/activity/8614576294902553394</title>
<path fill="none" stroke="black" d="M931.77,-379.75C959.41,-385.19 990.14,-392.51 1017.44,-402 1031.52,-406.89 1033.48,-411.75 1047.44,-417 1065.08,-423.63 1084.49,-429.49 1102.93,-434.42"/>
<polygon fill="black" stroke="black" points="1102.19,-437.84 1112.75,-436.98 1103.96,-431.07 1102.19,-437.84"/>
<text text-anchor="middle" x="1070.94" y="-405.8" font-family="Times,serif" font-size="14.00">previous</text>
</g>
<!-- http://purl.org/dj/kaggle/shuffle&#45;csvs/activity/&#45;5146932757998341577&#45;&gt;http://purl.org/dj/kaggle/shuffle&#45;csvs -->
<g id="edge7" class="edge">
<title>http://purl.org/dj/kaggle/shuffle&#45;csvs/activity/&#45;5146932757998341577&#45;&gt;http://purl.org/dj/kaggle/shuffle&#45;csvs</title>
<path fill="none" stroke="black" d="M931.39,-352.24C972.54,-345.75 1023.16,-337.63 1068.44,-330 1134.93,-318.79 1210.1,-305.43 1266.11,-295.34"/>
<polygon fill="black" stroke="black" points="1266.76,-298.78 1275.98,-293.56 1265.52,-291.89 1266.76,-298.78"/>
<text text-anchor="middle" x="1176.94" y="-318.8" font-family="Times,serif" font-size="14.00">previous</text>
</g>
<!-- http://purl.org/dj/kaggle/shuffle&#45;csvs/activity/8625806872430066914 -->
<g id="node6" class="node">
<title>http://purl.org/dj/kaggle/shuffle&#45;csvs/activity/8625806872430066914</title>
<ellipse fill="none" stroke="black" cx="672.44" cy="-279" rx="148.67" ry="18"/>
<text text-anchor="middle" x="672.44" y="-275.3" font-family="Times,serif" font-size="14.00">8625806872430066914 (Visualisation)</text>
</g>
<!-- http://purl.org/dj/kaggle/shuffle&#45;csvs/activity/&#45;5146932757998341577&#45;&gt;http://purl.org/dj/kaggle/shuffle&#45;csvs/activity/8625806872430066914 -->
<g id="edge8" class="edge">
<title>http://purl.org/dj/kaggle/shuffle&#45;csvs/activity/&#45;5146932757998341577&#45;&gt;http://purl.org/dj/kaggle/shuffle&#45;csvs/activity/8625806872430066914</title>
<path fill="none" stroke="black" d="M758.56,-353.33C740.23,-348.16 721.87,-340.71 706.44,-330 697.73,-323.96 690.61,-314.91 685.17,-306.16"/>
<polygon fill="black" stroke="black" points="688.11,-304.25 680.11,-297.29 682.02,-307.71 688.11,-304.25"/>
<text text-anchor="middle" x="729.94" y="-318.8" font-family="Times,serif" font-size="14.00">previous</text>
</g>
<!-- http://purl.org/dj/kaggle/shuffle&#45;csvs/activity/&#45;6126014972696974804 -->
<g id="node7" class="node">
<title>http://purl.org/dj/kaggle/shuffle&#45;csvs/activity/&#45;6126014972696974804</title>
<ellipse fill="none" stroke="black" cx="1061.44" cy="-279" rx="145.67" ry="18"/>
<text text-anchor="middle" x="1061.44" y="-275.3" font-family="Times,serif" font-size="14.00">&#45;6126014972696974804 (Preparation)</text>
</g>
<!-- http://purl.org/dj/kaggle/shuffle&#45;csvs/activity/&#45;5146932757998341577&#45;&gt;http://purl.org/dj/kaggle/shuffle&#45;csvs/activity/&#45;6126014972696974804 -->
<g id="edge9" class="edge">
<title>http://purl.org/dj/kaggle/shuffle&#45;csvs/activity/&#45;5146932757998341577&#45;&gt;http://purl.org/dj/kaggle/shuffle&#45;csvs/activity/&#45;6126014972696974804</title>
<path fill="none" stroke="black" d="M928.92,-351.9C950.76,-346.69 974.04,-339.58 994.44,-330 1009.06,-323.13 1023.63,-312.79 1035.44,-303.28"/>
<polygon fill="black" stroke="black" points="1037.68,-305.97 1043.13,-296.89 1033.2,-300.59 1037.68,-305.97"/>
<text text-anchor="middle" x="1040.94" y="-318.8" font-family="Times,serif" font-size="14.00">previous</text>
</g>
<!-- http://purl.org/dj/kaggle/shuffle&#45;csvs/activity/8625806872430066914&#45;&gt;http://purl.org/dj/kaggle/shuffle&#45;csvs/activity/&#45;5146932757998341577 -->
<g id="edge10" class="edge">
<title>http://purl.org/dj/kaggle/shuffle&#45;csvs/activity/8625806872430066914&#45;&gt;http://purl.org/dj/kaggle/shuffle&#45;csvs/activity/&#45;5146932757998341577</title>
<path fill="none" stroke="black" d="M712.24,-296.52C725.45,-302.18 740.16,-308.68 753.44,-315 772.19,-323.92 792.65,-334.46 809.84,-343.56"/>
<polygon fill="black" stroke="black" points="808.55,-346.84 819.02,-348.44 811.84,-340.66 808.55,-346.84"/>
<text text-anchor="middle" x="805.94" y="-318.8" font-family="Times,serif" font-size="14.00">previous</text>
</g>
<!-- http://purl.org/dj/kaggle/shuffle&#45;csvs/activity/&#45;6126014972696974804&#45;&gt;http://purl.org/dj/kaggle/shuffle&#45;csvs/activity/8614576294902553394 -->
<g id="edge11" class="edge">
<title>http://purl.org/dj/kaggle/shuffle&#45;csvs/activity/&#45;6126014972696974804&#45;&gt;http://purl.org/dj/kaggle/shuffle&#45;csvs/activity/8614576294902553394</title>
<path fill="none" stroke="black" d="M1073.33,-297.05C1094.5,-327.39 1138.81,-390.91 1163.63,-426.48"/>
<polygon fill="black" stroke="black" points="1160.9,-428.68 1169.49,-434.88 1166.64,-424.68 1160.9,-428.68"/>
<text text-anchor="middle" x="1155.94" y="-362.3" font-family="Times,serif" font-size="14.00">previous</text>
</g>
<!-- http://purl.org/dj/kaggle/shuffle&#45;csvs/activity/&#45;6126014972696974804&#45;&gt;http://purl.org/dj/kaggle/shuffle&#45;csvs/activity/&#45;5146932757998341577 -->
<g id="edge12" class="edge">
<title>http://purl.org/dj/kaggle/shuffle&#45;csvs/activity/&#45;6126014972696974804&#45;&gt;http://purl.org/dj/kaggle/shuffle&#45;csvs/activity/&#45;5146932757998341577</title>
<path fill="none" stroke="black" d="M1000.9,-295.43C982.21,-300.86 961.73,-307.51 943.44,-315 923.95,-322.98 903.2,-333.75 886.16,-343.26"/>
<polygon fill="black" stroke="black" points="884.09,-340.41 877.11,-348.39 887.53,-346.5 884.09,-340.41"/>
<text text-anchor="middle" x="966.94" y="-318.8" font-family="Times,serif" font-size="14.00">previous</text>
</g>
<!-- http://purl.org/dj/kaggle/shuffle&#45;csvs/activity/2285788952142560353 -->
<g id="node8" class="node">
<title>http://purl.org/dj/kaggle/shuffle&#45;csvs/activity/2285788952142560353</title>
<ellipse fill="none" stroke="black" cx="1326.44" cy="-192" rx="148.67" ry="18"/>
<text text-anchor="middle" x="1326.44" y="-188.3" font-family="Times,serif" font-size="14.00">2285788952142560353 (Visualisation)</text>
</g>
<!-- http://purl.org/dj/kaggle/shuffle&#45;csvs/activity/&#45;6126014972696974804&#45;&gt;http://purl.org/dj/kaggle/shuffle&#45;csvs/activity/2285788952142560353 -->
<g id="edge13" class="edge">
<title>http://purl.org/dj/kaggle/shuffle&#45;csvs/activity/&#45;6126014972696974804&#45;&gt;http://purl.org/dj/kaggle/shuffle&#45;csvs/activity/2285788952142560353</title>
<path fill="none" stroke="black" d="M1116.69,-262.3C1136.82,-256.43 1159.71,-249.59 1180.44,-243 1210.57,-233.42 1243.94,-222.04 1271.17,-212.57"/>
<polygon fill="black" stroke="black" points="1272.62,-215.77 1280.9,-209.17 1270.31,-209.16 1272.62,-215.77"/>
<text text-anchor="middle" x="1247.94" y="-231.8" font-family="Times,serif" font-size="14.00">previous</text>
</g>
<!-- http://purl.org/dj/kaggle/shuffle&#45;csvs/activity/&#45;588070295106979130 -->
<g id="node9" class="node">
<title>http://purl.org/dj/kaggle/shuffle&#45;csvs/activity/&#45;588070295106979130</title>
<ellipse fill="none" stroke="black" cx="999.44" cy="-192" rx="122.38" ry="18"/>
<text text-anchor="middle" x="999.44" y="-188.3" font-family="Times,serif" font-size="14.00">&#45;588070295106979130 (Reuse)</text>
</g>
<!-- http://purl.org/dj/kaggle/shuffle&#45;csvs/activity/&#45;6126014972696974804&#45;&gt;http://purl.org/dj/kaggle/shuffle&#45;csvs/activity/&#45;588070295106979130 -->
<g id="edge14" class="edge">
<title>http://purl.org/dj/kaggle/shuffle&#45;csvs/activity/&#45;6126014972696974804&#45;&gt;http://purl.org/dj/kaggle/shuffle&#45;csvs/activity/&#45;588070295106979130</title>
<path fill="none" stroke="black" d="M1048.89,-260.8C1039.98,-248.59 1027.88,-231.99 1017.87,-218.28"/>
<polygon fill="black" stroke="black" points="1020.69,-216.19 1011.96,-210.18 1015.03,-220.32 1020.69,-216.19"/>
<text text-anchor="middle" x="1056.94" y="-231.8" font-family="Times,serif" font-size="14.00">previous</text>
</g>
<!-- http://purl.org/dj/kaggle/shuffle&#45;csvs/activity/8771757624562087130 -->
<g id="node10" class="node">
<title>http://purl.org/dj/kaggle/shuffle&#45;csvs/activity/8771757624562087130</title>
<ellipse fill="none" stroke="black" cx="1219.44" cy="-105" rx="141.88" ry="18"/>
<text text-anchor="middle" x="1219.44" y="-101.3" font-family="Times,serif" font-size="14.00">8771757624562087130 (Movement)</text>
</g>
<!-- http://purl.org/dj/kaggle/shuffle&#45;csvs/activity/2285788952142560353&#45;&gt;http://purl.org/dj/kaggle/shuffle&#45;csvs/activity/8771757624562087130 -->
<g id="edge15" class="edge">
<title>http://purl.org/dj/kaggle/shuffle&#45;csvs/activity/2285788952142560353&#45;&gt;http://purl.org/dj/kaggle/shuffle&#45;csvs/activity/8771757624562087130</title>
<path fill="none" stroke="black" d="M1305.04,-174C1288.86,-161.15 1266.45,-143.35 1248.63,-129.19"/>
<polygon fill="black" stroke="black" points="1250.8,-126.45 1240.8,-122.97 1246.45,-131.93 1250.8,-126.45"/>
<text text-anchor="middle" x="1301.94" y="-144.8" font-family="Times,serif" font-size="14.00">previous</text>
</g>
<!-- http://purl.org/dj/kaggle/shuffle&#45;csvs/activity/&#45;4100460332462560666 -->
<g id="node12" class="node">
<title>http://purl.org/dj/kaggle/shuffle&#45;csvs/activity/&#45;4100460332462560666</title>
<ellipse fill="none" stroke="black" cx="887.44" cy="-105" rx="151.37" ry="18"/>
<text text-anchor="middle" x="887.44" y="-101.3" font-family="Times,serif" font-size="14.00">&#45;4100460332462560666 (Visualisation)</text>
</g>
<!-- http://purl.org/dj/kaggle/shuffle&#45;csvs/activity/&#45;588070295106979130&#45;&gt;http://purl.org/dj/kaggle/shuffle&#45;csvs/activity/&#45;4100460332462560666 -->
<g id="edge20" class="edge">
<title>http://purl.org/dj/kaggle/shuffle&#45;csvs/activity/&#45;588070295106979130&#45;&gt;http://purl.org/dj/kaggle/shuffle&#45;csvs/activity/&#45;4100460332462560666</title>
<path fill="none" stroke="black" d="M977.31,-174.21C960.32,-161.31 936.66,-143.36 917.88,-129.1"/>
<polygon fill="black" stroke="black" points="919.98,-126.31 909.9,-123.05 915.75,-131.88 919.98,-126.31"/>
<text text-anchor="middle" x="972.94" y="-144.8" font-family="Times,serif" font-size="14.00">previous</text>
</g>
<!-- http://purl.org/dj/kaggle/shuffle&#45;csvs/activity/8771757624562087130&#45;&gt;http://purl.org/dj/kaggle/shuffle&#45;csvs/activity/8614576294902553394 -->
<g id="edge16" class="edge">
<title>http://purl.org/dj/kaggle/shuffle&#45;csvs/activity/8771757624562087130&#45;&gt;http://purl.org/dj/kaggle/shuffle&#45;csvs/activity/8614576294902553394</title>
<path fill="none" stroke="black" d="M1348.28,-112.52C1451.25,-121.38 1578.44,-142.2 1578.44,-191 1578.44,-323.5 1578.44,-323.5 1578.44,-323.5 1578.44,-352.43 1576.81,-365.66 1554.44,-384 1533.9,-400.84 1391.03,-423.47 1288.23,-437.9"/>
<polygon fill="black" stroke="black" points="1287.52,-434.46 1278.1,-439.31 1288.48,-441.4 1287.52,-434.46"/>
<text text-anchor="middle" x="1601.94" y="-275.3" font-family="Times,serif" font-size="14.00">previous</text>
</g>
<!-- http://purl.org/dj/kaggle/shuffle&#45;csvs/activity/8771757624562087130&#45;&gt;http://purl.org/dj/kaggle/shuffle&#45;csvs/activity/&#45;5146932757998341577 -->
<g id="edge17" class="edge">
<title>http://purl.org/dj/kaggle/shuffle&#45;csvs/activity/8771757624562087130&#45;&gt;http://purl.org/dj/kaggle/shuffle&#45;csvs/activity/&#45;5146932757998341577</title>
<path fill="none" stroke="black" d="M1206.99,-122.94C1190.72,-144.48 1160.72,-182.2 1130.44,-210 1111.9,-227.01 1107.97,-234.1 1084.44,-243 1010.06,-271.13 972.72,-217.09 906.44,-261 899.19,-265.8 876.69,-309.54 862.22,-338.75"/>
<polygon fill="black" stroke="black" points="858.94,-337.5 857.66,-348.02 865.22,-340.59 858.94,-337.5"/>
<text text-anchor="middle" x="1133.94" y="-231.8" font-family="Times,serif" font-size="14.00">previous</text>
</g>
<!-- http://purl.org/dj/kaggle/shuffle&#45;csvs/activity/6671869016045772165 -->
<g id="node11" class="node">
<title>http://purl.org/dj/kaggle/shuffle&#45;csvs/activity/6671869016045772165</title>
<ellipse fill="none" stroke="black" cx="511.44" cy="-18" rx="148.67" ry="18"/>
<text text-anchor="middle" x="511.44" y="-14.3" font-family="Times,serif" font-size="14.00">6671869016045772165 (Visualisation)</text>
</g>
<!-- http://purl.org/dj/kaggle/shuffle&#45;csvs/activity/8771757624562087130&#45;&gt;http://purl.org/dj/kaggle/shuffle&#45;csvs/activity/6671869016045772165 -->
<g id="edge18" class="edge">
<title>http://purl.org/dj/kaggle/shuffle&#45;csvs/activity/8771757624562087130&#45;&gt;http://purl.org/dj/kaggle/shuffle&#45;csvs/activity/6671869016045772165</title>
<path fill="none" stroke="black" d="M1120.25,-92.09C989.46,-76.39 759.97,-48.84 623.2,-32.42"/>
<polygon fill="black" stroke="black" points="623.45,-28.92 613.11,-31.21 622.62,-35.87 623.45,-28.92"/>
<text text-anchor="middle" x="930.94" y="-57.8" font-family="Times,serif" font-size="14.00">previous</text>
</g>
<!-- http://purl.org/dj/kaggle/shuffle&#45;csvs/activity/6671869016045772165&#45;&gt;http://purl.org/dj/kaggle/shuffle&#45;csvs/activity/&#45;5146932757998341577 -->
<g id="edge19" class="edge">
<title>http://purl.org/dj/kaggle/shuffle&#45;csvs/activity/6671869016045772165&#45;&gt;http://purl.org/dj/kaggle/shuffle&#45;csvs/activity/&#45;5146932757998341577</title>
<path fill="none" stroke="black" d="M506.29,-36.08C501.61,-53.12 495.44,-80.12 495.44,-104 495.44,-280 495.44,-280 495.44,-280 495.44,-328.17 620.93,-349.11 722.48,-358.17"/>
<polygon fill="black" stroke="black" points="722.28,-361.67 732.54,-359.04 722.88,-354.69 722.28,-361.67"/>
<text text-anchor="middle" x="518.94" y="-188.3" font-family="Times,serif" font-size="14.00">previous</text>
</g>
<!-- http://purl.org/dj/kaggle/shuffle&#45;csvs/activity/&#45;4100460332462560666&#45;&gt;http://purl.org/dj/kaggle/shuffle&#45;csvs/activity/&#45;5146932757998341577 -->
<g id="edge27" class="edge">
<title>http://purl.org/dj/kaggle/shuffle&#45;csvs/activity/&#45;4100460332462560666&#45;&gt;http://purl.org/dj/kaggle/shuffle&#45;csvs/activity/&#45;5146932757998341577</title>
<path fill="none" stroke="black" d="M881.76,-123.13C877.46,-136.77 871.74,-156.41 868.44,-174 857.57,-231.83 852.65,-300.75 850.65,-337.95"/>
<polygon fill="black" stroke="black" points="847.15,-337.83 850.14,-348 854.14,-338.19 847.15,-337.83"/>
<text text-anchor="middle" x="882.94" y="-231.8" font-family="Times,serif" font-size="14.00">previous</text>
</g>
<!-- http://purl.org/dj/kaggle/shuffle&#45;csvs/activity/5987496671376897151 -->
<g id="node13" class="node">
<title>http://purl.org/dj/kaggle/shuffle&#45;csvs/activity/5987496671376897151</title>
<ellipse fill="none" stroke="black" cx="1102.44" cy="-627" rx="148.67" ry="18"/>
<text text-anchor="middle" x="1102.44" y="-623.3" font-family="Times,serif" font-size="14.00">5987496671376897151 (Visualisation)</text>
</g>
<!-- http://purl.org/dj/kaggle/shuffle&#45;csvs/activity/5987496671376897151&#45;&gt;http://purl.org/dj/kaggle/shuffle&#45;csvs/activity/&#45;5146932757998341577 -->
<g id="edge21" class="edge">
<title>http://purl.org/dj/kaggle/shuffle&#45;csvs/activity/5987496671376897151&#45;&gt;http://purl.org/dj/kaggle/shuffle&#45;csvs/activity/&#45;5146932757998341577</title>
<path fill="none" stroke="black" d="M973.47,-617.86C877.44,-603.85 754.5,-566.94 703.44,-471 681.85,-430.44 733.74,-402.07 781.52,-385.32"/>
<polygon fill="black" stroke="black" points="782.64,-388.63 791,-382.12 780.41,-382 782.64,-388.63"/>
<text text-anchor="middle" x="747.94" y="-492.8" font-family="Times,serif" font-size="14.00">previous</text>
</g>
<!-- http://purl.org/dj/kaggle/shuffle&#45;csvs/activity/5987496671376897151&#45;&gt;http://purl.org/dj/kaggle/shuffle&#45;csvs/activity/&#45;6126014972696974804 -->
<g id="edge22" class="edge">
<title>http://purl.org/dj/kaggle/shuffle&#45;csvs/activity/5987496671376897151&#45;&gt;http://purl.org/dj/kaggle/shuffle&#45;csvs/activity/&#45;6126014972696974804</title>
<path fill="none" stroke="black" d="M1198.87,-613.24C1274.28,-600.47 1366.44,-577.41 1366.44,-541 1366.44,-541 1366.44,-541 1366.44,-365 1366.44,-342.38 1240.38,-313.72 1150.34,-296.12"/>
<polygon fill="black" stroke="black" points="1150.86,-292.66 1140.38,-294.19 1149.53,-299.53 1150.86,-292.66"/>
<text text-anchor="middle" x="1389.94" y="-449.3" font-family="Times,serif" font-size="14.00">previous</text>
</g>
<!-- http://purl.org/dj/kaggle/shuffle&#45;csvs/activity/7608248557608729929 -->
<g id="node14" class="node">
<title>http://purl.org/dj/kaggle/shuffle&#45;csvs/activity/7608248557608729929</title>
<ellipse fill="none" stroke="black" cx="1102.44" cy="-540" rx="142.97" ry="18"/>
<text text-anchor="middle" x="1102.44" y="-536.3" font-family="Times,serif" font-size="14.00">7608248557608729929 (Preparation)</text>
</g>
<!-- http://purl.org/dj/kaggle/shuffle&#45;csvs/activity/5987496671376897151&#45;&gt;http://purl.org/dj/kaggle/shuffle&#45;csvs/activity/7608248557608729929 -->
<g id="edge23" class="edge">
<title>http://purl.org/dj/kaggle/shuffle&#45;csvs/activity/5987496671376897151&#45;&gt;http://purl.org/dj/kaggle/shuffle&#45;csvs/activity/7608248557608729929</title>
<path fill="none" stroke="black" d="M1102.44,-608.8C1102.44,-597.16 1102.44,-581.55 1102.44,-568.24"/>
<polygon fill="black" stroke="black" points="1105.94,-568.18 1102.44,-558.18 1098.94,-568.18 1105.94,-568.18"/>
<text text-anchor="middle" x="1125.94" y="-579.8" font-family="Times,serif" font-size="14.00">previous</text>
</g>
<!-- http://purl.org/dj/kaggle/shuffle&#45;csvs/activity/7608248557608729929&#45;&gt;http://purl.org/dj/kaggle/shuffle&#45;csvs/activity/2285788952142560353 -->
<g id="edge24" class="edge">
<title>http://purl.org/dj/kaggle/shuffle&#45;csvs/activity/7608248557608729929&#45;&gt;http://purl.org/dj/kaggle/shuffle&#45;csvs/activity/2285788952142560353</title>
<path fill="none" stroke="black" d="M1241,-535.47C1356.91,-528.62 1503.44,-509.06 1503.44,-454 1503.44,-454 1503.44,-454 1503.44,-278 1503.44,-241.15 1471.88,-220.27 1435.42,-208.44"/>
<polygon fill="black" stroke="black" points="1436.13,-204.99 1425.54,-205.47 1434.12,-211.7 1436.13,-204.99"/>
<text text-anchor="middle" x="1526.94" y="-362.3" font-family="Times,serif" font-size="14.00">previous</text>
</g>
<!-- http://purl.org/dj/kaggle/shuffle&#45;csvs/activity/&#45;6719594153244631321 -->
<g id="node15" class="node">
<title>http://purl.org/dj/kaggle/shuffle&#45;csvs/activity/&#45;6719594153244631321</title>
<ellipse fill="none" stroke="black" cx="863.44" cy="-453" rx="151.37" ry="18"/>
<text text-anchor="middle" x="863.44" y="-449.3" font-family="Times,serif" font-size="14.00">&#45;6719594153244631321 (Visualisation)</text>
</g>
<!-- http://purl.org/dj/kaggle/shuffle&#45;csvs/activity/7608248557608729929&#45;&gt;http://purl.org/dj/kaggle/shuffle&#45;csvs/activity/&#45;6719594153244631321 -->
<g id="edge25" class="edge">
<title>http://purl.org/dj/kaggle/shuffle&#45;csvs/activity/7608248557608729929&#45;&gt;http://purl.org/dj/kaggle/shuffle&#45;csvs/activity/&#45;6719594153244631321</title>
<path fill="none" stroke="black" d="M1057.2,-522.91C1017.9,-508.94 960.86,-488.65 918.83,-473.7"/>
<polygon fill="black" stroke="black" points="919.89,-470.36 909.3,-470.31 917.55,-476.96 919.89,-470.36"/>
<text text-anchor="middle" x="1019.94" y="-492.8" font-family="Times,serif" font-size="14.00">previous</text>
</g>
<!-- http://purl.org/dj/kaggle/shuffle&#45;csvs/activity/&#45;6719594153244631321&#45;&gt;http://purl.org/dj/kaggle/shuffle&#45;csvs/activity/&#45;5146932757998341577 -->
<g id="edge30" class="edge">
<title>http://purl.org/dj/kaggle/shuffle&#45;csvs/activity/&#45;6719594153244631321&#45;&gt;http://purl.org/dj/kaggle/shuffle&#45;csvs/activity/&#45;5146932757998341577</title>
<path fill="none" stroke="black" d="M860.6,-434.8C858.69,-423.16 856.12,-407.55 853.92,-394.24"/>
<polygon fill="black" stroke="black" points="857.34,-393.47 852.27,-384.18 850.44,-394.61 857.34,-393.47"/>
<text text-anchor="middle" x="879.94" y="-405.8" font-family="Times,serif" font-size="14.00">previous</text>
</g>
<!-- http://purl.org/dj/kaggle/shuffle&#45;csvs/activity/&#45;5493180000453472785 -->
<g id="node16" class="node">
<title>http://purl.org/dj/kaggle/shuffle&#45;csvs/activity/&#45;5493180000453472785</title>
<ellipse fill="none" stroke="black" cx="151.44" cy="-453" rx="151.37" ry="18"/>
<text text-anchor="middle" x="151.44" y="-449.3" font-family="Times,serif" font-size="14.00">&#45;5493180000453472785 (Visualisation)</text>
</g>
<!-- http://purl.org/dj/kaggle/shuffle&#45;csvs/activity/&#45;5493180000453472785&#45;&gt;http://purl.org/dj/kaggle/shuffle&#45;csvs/activity/&#45;5146932757998341577 -->
<g id="edge26" class="edge">
<title>http://purl.org/dj/kaggle/shuffle&#45;csvs/activity/&#45;5493180000453472785&#45;&gt;http://purl.org/dj/kaggle/shuffle&#45;csvs/activity/&#45;5146932757998341577</title>
<path fill="none" stroke="black" d="M182.5,-435.38C205.74,-423.81 238.68,-409.22 269.44,-402 350.9,-382.88 570.34,-373.84 714.73,-369.85"/>
<polygon fill="black" stroke="black" points="715.09,-373.34 724.99,-369.57 714.9,-366.34 715.09,-373.34"/>
<text text-anchor="middle" x="292.94" y="-405.8" font-family="Times,serif" font-size="14.00">previous</text>
</g>
<!-- http://purl.org/dj/kaggle/shuffle&#45;csvs/activity/&#45;4135706561211083332 -->
<g id="node17" class="node">
<title>http://purl.org/dj/kaggle/shuffle&#45;csvs/activity/&#45;4135706561211083332</title>
<ellipse fill="none" stroke="black" cx="383.44" cy="-627" rx="151.37" ry="18"/>
<text text-anchor="middle" x="383.44" y="-623.3" font-family="Times,serif" font-size="14.00">&#45;4135706561211083332 (Visualisation)</text>
</g>
<!-- http://purl.org/dj/kaggle/shuffle&#45;csvs/activity/&#45;4135706561211083332&#45;&gt;http://purl.org/dj/kaggle/shuffle&#45;csvs/activity/1619294438495536113 -->
<g id="edge28" class="edge">
<title>http://purl.org/dj/kaggle/shuffle&#45;csvs/activity/&#45;4135706561211083332&#45;&gt;http://purl.org/dj/kaggle/shuffle&#45;csvs/activity/1619294438495536113</title>
<path fill="none" stroke="black" d="M407.93,-609.21C427.04,-596.11 453.76,-577.8 474.7,-563.44"/>
<polygon fill="black" stroke="black" points="476.72,-566.3 482.99,-557.76 472.76,-560.53 476.72,-566.3"/>
<text text-anchor="middle" x="476.94" y="-579.8" font-family="Times,serif" font-size="14.00">previous</text>
</g>
<!-- http://purl.org/dj/kaggle/shuffle&#45;csvs/activity/&#45;4135706561211083332&#45;&gt;http://purl.org/dj/kaggle/shuffle&#45;csvs/activity/&#45;5146932757998341577 -->
<g id="edge29" class="edge">
<title>http://purl.org/dj/kaggle/shuffle&#45;csvs/activity/&#45;4135706561211083332&#45;&gt;http://purl.org/dj/kaggle/shuffle&#45;csvs/activity/&#45;5146932757998341577</title>
<path fill="none" stroke="black" d="M372.27,-608.79C349.98,-572.09 305.76,-485.39 349.44,-435 373.87,-406.81 587.22,-386.02 727.22,-375.27"/>
<polygon fill="black" stroke="black" points="727.88,-378.73 737.58,-374.48 727.35,-371.75 727.88,-378.73"/>
<text text-anchor="middle" x="355.94" y="-492.8" font-family="Times,serif" font-size="14.00">previous</text>
</g>
</g>
</svg>
