<?xml version="1.0" encoding="UTF-8" standalone="no"?>
<!DOCTYPE svg PUBLIC "-//W3C//DTD SVG 1.1//EN"
 "http://www.w3.org/Graphics/SVG/1.1/DTD/svg11.dtd">
<!-- Generated by graphviz version 2.47.1 (20210417.1919)
 -->
<!-- Pages: 1 -->
<svg width="2910pt" height="653pt"
 viewBox="0.00 0.00 2909.78 653.00" xmlns="http://www.w3.org/2000/svg" xmlns:xlink="http://www.w3.org/1999/xlink">
<g id="graph0" class="graph" transform="scale(1 1) rotate(0) translate(4 649)">
<polygon fill="white" stroke="transparent" points="-4,4 -4,-649 2905.78,-649 2905.78,4 -4,4"/>
<!-- http://purl.org/dj/kaggle/simple&#45;recommendation&#45;engine/activity/&#45;4455221808919046183 -->
<g id="node1" class="node">
<title>http://purl.org/dj/kaggle/simple&#45;recommendation&#45;engine/activity/&#45;4455221808919046183</title>
<ellipse fill="none" stroke="black" cx="2675.78" cy="-192" rx="151.37" ry="18"/>
<text text-anchor="middle" x="2675.78" y="-188.3" font-family="Times,serif" font-size="14.00">&#45;4455221808919046183 (Visualisation)</text>
</g>
<!-- http://purl.org/dj/kaggle/simple&#45;recommendation&#45;engine/activity/7358004796070548965 -->
<g id="node2" class="node">
<title>http://purl.org/dj/kaggle/simple&#45;recommendation&#45;engine/activity/7358004796070548965</title>
<ellipse fill="none" stroke="black" cx="1323.78" cy="-105" rx="124.28" ry="18"/>
<text text-anchor="middle" x="1323.78" y="-101.3" font-family="Times,serif" font-size="14.00">7358004796070548965 (Reuse)</text>
</g>
<!-- http://purl.org/dj/kaggle/simple&#45;recommendation&#45;engine/activity/&#45;4455221808919046183&#45;&gt;http://purl.org/dj/kaggle/simple&#45;recommendation&#45;engine/activity/7358004796070548965 -->
<g id="edge1" class="edge">
<title>http://purl.org/dj/kaggle/simple&#45;recommendation&#45;engine/activity/&#45;4455221808919046183&#45;&gt;http://purl.org/dj/kaggle/simple&#45;recommendation&#45;engine/activity/7358004796070548965</title>
<path fill="none" stroke="black" d="M2567.54,-179.38C2549.91,-177.54 2531.84,-175.69 2514.78,-174 2356.21,-158.3 2316.76,-151.68 2157.78,-141 1909.57,-124.33 1619.25,-114.28 1454.89,-109.47"/>
<polygon fill="black" stroke="black" points="1454.83,-105.96 1444.73,-109.17 1454.62,-112.96 1454.83,-105.96"/>
<text text-anchor="middle" x="2359.28" y="-144.8" font-family="Times,serif" font-size="14.00">previous</text>
</g>
<!-- http://purl.org/dj/kaggle/simple&#45;recommendation&#45;engine -->
<g id="node3" class="node">
<title>http://purl.org/dj/kaggle/simple&#45;recommendation&#45;engine</title>
<ellipse fill="none" stroke="black" cx="267.78" cy="-18" rx="267.55" ry="18"/>
<text text-anchor="middle" x="267.78" y="-14.3" font-family="Times,serif" font-size="14.00">simple&#45;recommendation&#45;engine (simple&#45;recommendation&#45;engine.ipynb)</text>
</g>
<!-- http://purl.org/dj/kaggle/simple&#45;recommendation&#45;engine/activity/7358004796070548965&#45;&gt;http://purl.org/dj/kaggle/simple&#45;recommendation&#45;engine -->
<g id="edge2" class="edge">
<title>http://purl.org/dj/kaggle/simple&#45;recommendation&#45;engine/activity/7358004796070548965&#45;&gt;http://purl.org/dj/kaggle/simple&#45;recommendation&#45;engine</title>
<path fill="none" stroke="black" d="M1218.18,-95.5C1036.45,-80.87 662.87,-50.8 442.07,-33.03"/>
<polygon fill="black" stroke="black" points="442.25,-29.53 432,-32.22 441.69,-36.51 442.25,-29.53"/>
<text text-anchor="middle" x="883.28" y="-57.8" font-family="Times,serif" font-size="14.00">previous</text>
</g>
<!-- http://purl.org/dj/kaggle/simple&#45;recommendation&#45;engine/activity/6031762557524434513 -->
<g id="node4" class="node">
<title>http://purl.org/dj/kaggle/simple&#45;recommendation&#45;engine/activity/6031762557524434513</title>
<ellipse fill="none" stroke="black" cx="1980.78" cy="-366" rx="148.67" ry="18"/>
<text text-anchor="middle" x="1980.78" y="-362.3" font-family="Times,serif" font-size="14.00">6031762557524434513 (Visualisation)</text>
</g>
<!-- http://purl.org/dj/kaggle/simple&#45;recommendation&#45;engine/activity/6031762557524434513&#45;&gt;http://purl.org/dj/kaggle/simple&#45;recommendation&#45;engine/activity/7358004796070548965 -->
<g id="edge3" class="edge">
<title>http://purl.org/dj/kaggle/simple&#45;recommendation&#45;engine/activity/6031762557524434513&#45;&gt;http://purl.org/dj/kaggle/simple&#45;recommendation&#45;engine/activity/7358004796070548965</title>
<path fill="none" stroke="black" d="M1864.12,-354.81C1821.82,-349.34 1780.15,-341.33 1762.78,-330 1717.55,-300.51 1728.3,-271.84 1696.78,-228 1678.87,-203.09 1676.41,-194.71 1653.78,-174 1634.13,-156.03 1628.75,-150.23 1603.78,-141 1556.91,-123.69 1502.94,-114.61 1454.97,-109.96"/>
<polygon fill="black" stroke="black" points="1455.1,-106.46 1444.83,-109.03 1454.47,-113.43 1455.1,-106.46"/>
<text text-anchor="middle" x="1730.28" y="-231.8" font-family="Times,serif" font-size="14.00">previous</text>
</g>
<!-- http://purl.org/dj/kaggle/simple&#45;recommendation&#45;engine/activity/3210008644403612552 -->
<g id="node5" class="node">
<title>http://purl.org/dj/kaggle/simple&#45;recommendation&#45;engine/activity/3210008644403612552</title>
<ellipse fill="none" stroke="black" cx="1432.78" cy="-279" rx="141.88" ry="18"/>
<text text-anchor="middle" x="1432.78" y="-275.3" font-family="Times,serif" font-size="14.00">3210008644403612552 (Movement)</text>
</g>
<!-- http://purl.org/dj/kaggle/simple&#45;recommendation&#45;engine/activity/6031762557524434513&#45;&gt;http://purl.org/dj/kaggle/simple&#45;recommendation&#45;engine/activity/3210008644403612552 -->
<g id="edge4" class="edge">
<title>http://purl.org/dj/kaggle/simple&#45;recommendation&#45;engine/activity/6031762557524434513&#45;&gt;http://purl.org/dj/kaggle/simple&#45;recommendation&#45;engine/activity/3210008644403612552</title>
<path fill="none" stroke="black" d="M1862.58,-355.04C1802.28,-349.19 1727.89,-340.81 1661.78,-330 1608.57,-321.3 1549.11,-308.21 1504.11,-297.61"/>
<polygon fill="black" stroke="black" points="1504.69,-294.15 1494.16,-295.25 1503.08,-300.96 1504.69,-294.15"/>
<text text-anchor="middle" x="1685.28" y="-318.8" font-family="Times,serif" font-size="14.00">previous</text>
</g>
<!-- http://purl.org/dj/kaggle/simple&#45;recommendation&#45;engine/activity/3210008644403612552&#45;&gt;http://purl.org/dj/kaggle/simple&#45;recommendation&#45;engine/activity/7358004796070548965 -->
<g id="edge5" class="edge">
<title>http://purl.org/dj/kaggle/simple&#45;recommendation&#45;engine/activity/3210008644403612552&#45;&gt;http://purl.org/dj/kaggle/simple&#45;recommendation&#45;engine/activity/7358004796070548965</title>
<path fill="none" stroke="black" d="M1352.5,-264.01C1321.58,-254.28 1289.27,-237.81 1270.78,-210 1253.52,-184.03 1276.15,-151.71 1296.95,-130.06"/>
<polygon fill="black" stroke="black" points="1299.56,-132.41 1304.17,-122.87 1294.61,-127.45 1299.56,-132.41"/>
<text text-anchor="middle" x="1294.28" y="-188.3" font-family="Times,serif" font-size="14.00">previous</text>
</g>
<!-- http://purl.org/dj/kaggle/simple&#45;recommendation&#45;engine/activity/5419972157969701897 -->
<g id="node6" class="node">
<title>http://purl.org/dj/kaggle/simple&#45;recommendation&#45;engine/activity/5419972157969701897</title>
<ellipse fill="none" stroke="black" cx="230.78" cy="-192" rx="148.67" ry="18"/>
<text text-anchor="middle" x="230.78" y="-188.3" font-family="Times,serif" font-size="14.00">5419972157969701897 (Visualisation)</text>
</g>
<!-- http://purl.org/dj/kaggle/simple&#45;recommendation&#45;engine/activity/3210008644403612552&#45;&gt;http://purl.org/dj/kaggle/simple&#45;recommendation&#45;engine/activity/5419972157969701897 -->
<g id="edge6" class="edge">
<title>http://purl.org/dj/kaggle/simple&#45;recommendation&#45;engine/activity/3210008644403612552&#45;&gt;http://purl.org/dj/kaggle/simple&#45;recommendation&#45;engine/activity/5419972157969701897</title>
<path fill="none" stroke="black" d="M1311.65,-269.65C1275.18,-264.52 1235.61,-256.26 1200.78,-243 1189.37,-238.66 1189.41,-231.69 1177.78,-228 1125.53,-211.42 739.55,-212.03 684.78,-210 583.27,-206.25 468.99,-201.97 380.48,-198.64"/>
<polygon fill="black" stroke="black" points="380.49,-195.14 370.37,-198.26 380.23,-202.13 380.49,-195.14"/>
<text text-anchor="middle" x="1224.28" y="-231.8" font-family="Times,serif" font-size="14.00">previous</text>
</g>
<!-- http://purl.org/dj/kaggle/simple&#45;recommendation&#45;engine/activity/4669160977997450965 -->
<g id="node7" class="node">
<title>http://purl.org/dj/kaggle/simple&#45;recommendation&#45;engine/activity/4669160977997450965</title>
<ellipse fill="none" stroke="black" cx="1475.78" cy="-192" rx="148.67" ry="18"/>
<text text-anchor="middle" x="1475.78" y="-188.3" font-family="Times,serif" font-size="14.00">4669160977997450965 (Visualisation)</text>
</g>
<!-- http://purl.org/dj/kaggle/simple&#45;recommendation&#45;engine/activity/3210008644403612552&#45;&gt;http://purl.org/dj/kaggle/simple&#45;recommendation&#45;engine/activity/4669160977997450965 -->
<g id="edge7" class="edge">
<title>http://purl.org/dj/kaggle/simple&#45;recommendation&#45;engine/activity/3210008644403612552&#45;&gt;http://purl.org/dj/kaggle/simple&#45;recommendation&#45;engine/activity/4669160977997450965</title>
<path fill="none" stroke="black" d="M1441.48,-260.8C1447.48,-248.93 1455.58,-232.93 1462.4,-219.45"/>
<polygon fill="black" stroke="black" points="1465.7,-220.68 1467.09,-210.18 1459.45,-217.52 1465.7,-220.68"/>
<text text-anchor="middle" x="1481.28" y="-231.8" font-family="Times,serif" font-size="14.00">previous</text>
</g>
<!-- http://purl.org/dj/kaggle/simple&#45;recommendation&#45;engine/activity/5419972157969701897&#45;&gt;http://purl.org/dj/kaggle/simple&#45;recommendation&#45;engine/activity/7358004796070548965 -->
<g id="edge8" class="edge">
<title>http://purl.org/dj/kaggle/simple&#45;recommendation&#45;engine/activity/5419972157969701897&#45;&gt;http://purl.org/dj/kaggle/simple&#45;recommendation&#45;engine/activity/7358004796070548965</title>
<path fill="none" stroke="black" d="M261.22,-174.15C284.03,-162.47 316.4,-147.84 346.78,-141 426.75,-123 942.45,-112.23 1190.67,-108.04"/>
<polygon fill="black" stroke="black" points="1190.89,-111.53 1200.83,-107.86 1190.78,-104.53 1190.89,-111.53"/>
<text text-anchor="middle" x="370.28" y="-144.8" font-family="Times,serif" font-size="14.00">previous</text>
</g>
<!-- http://purl.org/dj/kaggle/simple&#45;recommendation&#45;engine/activity/5419972157969701897&#45;&gt;http://purl.org/dj/kaggle/simple&#45;recommendation&#45;engine -->
<g id="edge9" class="edge">
<title>http://purl.org/dj/kaggle/simple&#45;recommendation&#45;engine/activity/5419972157969701897&#45;&gt;http://purl.org/dj/kaggle/simple&#45;recommendation&#45;engine</title>
<path fill="none" stroke="black" d="M234.46,-173.88C240.89,-144 254.2,-82.11 261.91,-46.27"/>
<polygon fill="black" stroke="black" points="265.43,-46.56 264.11,-36.05 258.58,-45.09 265.43,-46.56"/>
<text text-anchor="middle" x="277.28" y="-101.3" font-family="Times,serif" font-size="14.00">previous</text>
</g>
<!-- http://purl.org/dj/kaggle/simple&#45;recommendation&#45;engine/activity/4669160977997450965&#45;&gt;http://purl.org/dj/kaggle/simple&#45;recommendation&#45;engine/activity/7358004796070548965 -->
<g id="edge10" class="edge">
<title>http://purl.org/dj/kaggle/simple&#45;recommendation&#45;engine/activity/4669160977997450965&#45;&gt;http://purl.org/dj/kaggle/simple&#45;recommendation&#45;engine/activity/7358004796070548965</title>
<path fill="none" stroke="black" d="M1445.75,-174.21C1421.83,-160.83 1388.19,-142.02 1362.29,-127.54"/>
<polygon fill="black" stroke="black" points="1363.92,-124.44 1353.49,-122.61 1360.5,-130.55 1363.92,-124.44"/>
<text text-anchor="middle" x="1433.28" y="-144.8" font-family="Times,serif" font-size="14.00">previous</text>
</g>
<!-- http://purl.org/dj/kaggle/simple&#45;recommendation&#45;engine/activity/93794843755343368 -->
<g id="node8" class="node">
<title>http://purl.org/dj/kaggle/simple&#45;recommendation&#45;engine/activity/93794843755343368</title>
<ellipse fill="none" stroke="black" cx="911.78" cy="-192" rx="139.98" ry="18"/>
<text text-anchor="middle" x="911.78" y="-188.3" font-family="Times,serif" font-size="14.00">93794843755343368 (Visualisation)</text>
</g>
<!-- http://purl.org/dj/kaggle/simple&#45;recommendation&#45;engine/activity/93794843755343368&#45;&gt;http://purl.org/dj/kaggle/simple&#45;recommendation&#45;engine/activity/7358004796070548965 -->
<g id="edge11" class="edge">
<title>http://purl.org/dj/kaggle/simple&#45;recommendation&#45;engine/activity/93794843755343368&#45;&gt;http://purl.org/dj/kaggle/simple&#45;recommendation&#45;engine/activity/7358004796070548965</title>
<path fill="none" stroke="black" d="M940.76,-174.32C961.74,-163.04 991.15,-148.81 1018.78,-141 1075.63,-124.92 1140.43,-116.2 1195.64,-111.48"/>
<polygon fill="black" stroke="black" points="1196.15,-114.95 1205.83,-110.65 1195.58,-107.98 1196.15,-114.95"/>
<text text-anchor="middle" x="1042.28" y="-144.8" font-family="Times,serif" font-size="14.00">previous</text>
</g>
<!-- http://purl.org/dj/kaggle/simple&#45;recommendation&#45;engine/activity/5048063247059705790 -->
<g id="node9" class="node">
<title>http://purl.org/dj/kaggle/simple&#45;recommendation&#45;engine/activity/5048063247059705790</title>
<ellipse fill="none" stroke="black" cx="761.78" cy="-453" rx="142.97" ry="18"/>
<text text-anchor="middle" x="761.78" y="-449.3" font-family="Times,serif" font-size="14.00">5048063247059705790 (Preparation)</text>
</g>
<!-- http://purl.org/dj/kaggle/simple&#45;recommendation&#45;engine/activity/93794843755343368&#45;&gt;http://purl.org/dj/kaggle/simple&#45;recommendation&#45;engine/activity/5048063247059705790 -->
<g id="edge12" class="edge">
<title>http://purl.org/dj/kaggle/simple&#45;recommendation&#45;engine/activity/93794843755343368&#45;&gt;http://purl.org/dj/kaggle/simple&#45;recommendation&#45;engine/activity/5048063247059705790</title>
<path fill="none" stroke="black" d="M904.56,-210.23C895.64,-231.1 879.7,-267.18 863.78,-297 859.36,-305.27 856.27,-306.3 852.78,-315 841.1,-344.13 853.57,-356.88 837.78,-384 827.47,-401.68 810.98,-417.26 795.99,-429.03"/>
<polygon fill="black" stroke="black" points="793.73,-426.35 787.86,-435.17 797.95,-431.93 793.73,-426.35"/>
<text text-anchor="middle" x="876.28" y="-318.8" font-family="Times,serif" font-size="14.00">previous</text>
</g>
<!-- http://purl.org/dj/kaggle/simple&#45;recommendation&#45;engine/activity/&#45;2804998413953825039 -->
<g id="node10" class="node">
<title>http://purl.org/dj/kaggle/simple&#45;recommendation&#45;engine/activity/&#45;2804998413953825039</title>
<ellipse fill="none" stroke="black" cx="1361.78" cy="-627" rx="145.67" ry="18"/>
<text text-anchor="middle" x="1361.78" y="-623.3" font-family="Times,serif" font-size="14.00">&#45;2804998413953825039 (Preparation)</text>
</g>
<!-- http://purl.org/dj/kaggle/simple&#45;recommendation&#45;engine/activity/93794843755343368&#45;&gt;http://purl.org/dj/kaggle/simple&#45;recommendation&#45;engine/activity/&#45;2804998413953825039 -->
<g id="edge13" class="edge">
<title>http://purl.org/dj/kaggle/simple&#45;recommendation&#45;engine/activity/93794843755343368&#45;&gt;http://purl.org/dj/kaggle/simple&#45;recommendation&#45;engine/activity/&#45;2804998413953825039</title>
<path fill="none" stroke="black" d="M930.63,-210.09C955.05,-232.75 998.22,-274.59 1029.78,-315 1052.02,-343.48 1042.87,-363.72 1072.78,-384 1110.15,-409.34 1133.68,-379.4 1172.78,-402 1257.24,-450.81 1321.19,-552.14 1347.99,-599.96"/>
<polygon fill="black" stroke="black" points="1344.95,-601.7 1352.85,-608.77 1351.08,-598.33 1344.95,-601.7"/>
<text text-anchor="middle" x="1219.28" y="-405.8" font-family="Times,serif" font-size="14.00">previous</text>
</g>
<!-- http://purl.org/dj/kaggle/simple&#45;recommendation&#45;engine/activity/5048063247059705790&#45;&gt;http://purl.org/dj/kaggle/simple&#45;recommendation&#45;engine/activity/7358004796070548965 -->
<g id="edge14" class="edge">
<title>http://purl.org/dj/kaggle/simple&#45;recommendation&#45;engine/activity/5048063247059705790&#45;&gt;http://purl.org/dj/kaggle/simple&#45;recommendation&#45;engine/activity/7358004796070548965</title>
<path fill="none" stroke="black" d="M639.04,-443.7C596.29,-434.64 551.61,-417.16 521.78,-384 503.36,-363.53 492.13,-284.32 506.78,-261 572.12,-156.97 636.91,-172.03 755.78,-141 834.95,-120.33 1049.48,-111.76 1191.05,-108.28"/>
<polygon fill="black" stroke="black" points="1191.2,-111.78 1201.12,-108.04 1191.03,-104.78 1191.2,-111.78"/>
<text text-anchor="middle" x="530.28" y="-275.3" font-family="Times,serif" font-size="14.00">previous</text>
</g>
<!-- http://purl.org/dj/kaggle/simple&#45;recommendation&#45;engine/activity/5048063247059705790&#45;&gt;http://purl.org/dj/kaggle/simple&#45;recommendation&#45;engine/activity/3210008644403612552 -->
<g id="edge15" class="edge">
<title>http://purl.org/dj/kaggle/simple&#45;recommendation&#45;engine/activity/5048063247059705790&#45;&gt;http://purl.org/dj/kaggle/simple&#45;recommendation&#45;engine/activity/3210008644403612552</title>
<path fill="none" stroke="black" d="M840.18,-437.9C862.76,-432.62 887.12,-425.73 908.78,-417 964.76,-394.42 969.05,-368.65 1025.78,-348 1114.7,-315.62 1220.22,-298.55 1301.54,-289.61"/>
<polygon fill="black" stroke="black" points="1302.27,-293.06 1311.84,-288.51 1301.52,-286.1 1302.27,-293.06"/>
<text text-anchor="middle" x="1049.28" y="-362.3" font-family="Times,serif" font-size="14.00">previous</text>
</g>
<!-- http://purl.org/dj/kaggle/simple&#45;recommendation&#45;engine/activity/5048063247059705790&#45;&gt;http://purl.org/dj/kaggle/simple&#45;recommendation&#45;engine/activity/93794843755343368 -->
<g id="edge16" class="edge">
<title>http://purl.org/dj/kaggle/simple&#45;recommendation&#45;engine/activity/5048063247059705790&#45;&gt;http://purl.org/dj/kaggle/simple&#45;recommendation&#45;engine/activity/93794843755343368</title>
<path fill="none" stroke="black" d="M802.15,-435.62C812.37,-430.48 822.94,-424.23 831.78,-417 869.77,-385.93 881.68,-375.62 899.78,-330 914.06,-293.99 915.06,-248.58 913.87,-220.16"/>
<polygon fill="black" stroke="black" points="917.37,-219.96 913.33,-210.16 910.38,-220.33 917.37,-219.96"/>
<text text-anchor="middle" x="929.28" y="-318.8" font-family="Times,serif" font-size="14.00">previous</text>
</g>
<!-- http://purl.org/dj/kaggle/simple&#45;recommendation&#45;engine/activity/&#45;6411370928940553318 -->
<g id="node11" class="node">
<title>http://purl.org/dj/kaggle/simple&#45;recommendation&#45;engine/activity/&#45;6411370928940553318</title>
<ellipse fill="none" stroke="black" cx="932.78" cy="-540" rx="151.37" ry="18"/>
<text text-anchor="middle" x="932.78" y="-536.3" font-family="Times,serif" font-size="14.00">&#45;6411370928940553318 (Visualisation)</text>
</g>
<!-- http://purl.org/dj/kaggle/simple&#45;recommendation&#45;engine/activity/5048063247059705790&#45;&gt;http://purl.org/dj/kaggle/simple&#45;recommendation&#45;engine/activity/&#45;6411370928940553318 -->
<g id="edge17" class="edge">
<title>http://purl.org/dj/kaggle/simple&#45;recommendation&#45;engine/activity/5048063247059705790&#45;&gt;http://purl.org/dj/kaggle/simple&#45;recommendation&#45;engine/activity/&#45;6411370928940553318</title>
<path fill="none" stroke="black" d="M768.08,-471.26C772.93,-482.21 780.71,-495.81 791.78,-504 802.36,-511.83 814.49,-517.92 827.09,-522.66"/>
<polygon fill="black" stroke="black" points="826.21,-526.06 836.81,-526.02 828.51,-519.44 826.21,-526.06"/>
<text text-anchor="middle" x="815.28" y="-492.8" font-family="Times,serif" font-size="14.00">previous</text>
</g>
<!-- http://purl.org/dj/kaggle/simple&#45;recommendation&#45;engine/activity/8067727652199969630 -->
<g id="node12" class="node">
<title>http://purl.org/dj/kaggle/simple&#45;recommendation&#45;engine/activity/8067727652199969630</title>
<ellipse fill="none" stroke="black" cx="325.78" cy="-366" rx="148.67" ry="18"/>
<text text-anchor="middle" x="325.78" y="-362.3" font-family="Times,serif" font-size="14.00">8067727652199969630 (Visualisation)</text>
</g>
<!-- http://purl.org/dj/kaggle/simple&#45;recommendation&#45;engine/activity/5048063247059705790&#45;&gt;http://purl.org/dj/kaggle/simple&#45;recommendation&#45;engine/activity/8067727652199969630 -->
<g id="edge18" class="edge">
<title>http://purl.org/dj/kaggle/simple&#45;recommendation&#45;engine/activity/5048063247059705790&#45;&gt;http://purl.org/dj/kaggle/simple&#45;recommendation&#45;engine/activity/8067727652199969630</title>
<path fill="none" stroke="black" d="M637.12,-444.09C563.17,-438.28 477.15,-429.27 441.78,-417 429.89,-412.88 429.04,-407.6 417.78,-402 406.78,-396.54 394.7,-391.38 383.02,-386.79"/>
<polygon fill="black" stroke="black" points="383.93,-383.39 373.34,-383.08 381.42,-389.93 383.93,-383.39"/>
<text text-anchor="middle" x="465.28" y="-405.8" font-family="Times,serif" font-size="14.00">previous</text>
</g>
<!-- http://purl.org/dj/kaggle/simple&#45;recommendation&#45;engine/activity/&#45;2804998413953825039&#45;&gt;http://purl.org/dj/kaggle/simple&#45;recommendation&#45;engine/activity/7358004796070548965 -->
<g id="edge19" class="edge">
<title>http://purl.org/dj/kaggle/simple&#45;recommendation&#45;engine/activity/&#45;2804998413953825039&#45;&gt;http://purl.org/dj/kaggle/simple&#45;recommendation&#45;engine/activity/7358004796070548965</title>
<path fill="none" stroke="black" d="M1506.97,-625.22C1882.15,-622.24 2854.78,-608.06 2854.78,-541 2854.78,-541 2854.78,-541 2854.78,-191 2854.78,-154.47 3004.43,-173.85 2386.78,-141 2051.77,-123.18 1656.87,-113.03 1455.82,-108.63"/>
<polygon fill="black" stroke="black" points="1455.88,-105.13 1445.8,-108.41 1455.73,-112.13 1455.88,-105.13"/>
<text text-anchor="middle" x="2878.28" y="-362.3" font-family="Times,serif" font-size="14.00">previous</text>
</g>
<!-- http://purl.org/dj/kaggle/simple&#45;recommendation&#45;engine/activity/&#45;2804998413953825039&#45;&gt;http://purl.org/dj/kaggle/simple&#45;recommendation&#45;engine/activity/3210008644403612552 -->
<g id="edge20" class="edge">
<title>http://purl.org/dj/kaggle/simple&#45;recommendation&#45;engine/activity/&#45;2804998413953825039&#45;&gt;http://purl.org/dj/kaggle/simple&#45;recommendation&#45;engine/activity/3210008644403612552</title>
<path fill="none" stroke="black" d="M1394.98,-609.18C1418.45,-594.68 1445.78,-571.29 1445.78,-541 1445.78,-541 1445.78,-541 1445.78,-365 1445.78,-345.53 1442.4,-323.83 1439.09,-307.24"/>
<polygon fill="black" stroke="black" points="1442.45,-306.2 1436.96,-297.14 1435.6,-307.65 1442.45,-306.2"/>
<text text-anchor="middle" x="1469.28" y="-449.3" font-family="Times,serif" font-size="14.00">previous</text>
</g>
<!-- http://purl.org/dj/kaggle/simple&#45;recommendation&#45;engine/activity/&#45;2804998413953825039&#45;&gt;http://purl.org/dj/kaggle/simple&#45;recommendation&#45;engine/activity/5419972157969701897 -->
<g id="edge21" class="edge">
<title>http://purl.org/dj/kaggle/simple&#45;recommendation&#45;engine/activity/&#45;2804998413953825039&#45;&gt;http://purl.org/dj/kaggle/simple&#45;recommendation&#45;engine/activity/5419972157969701897</title>
<path fill="none" stroke="black" d="M1219.06,-623.29C898.42,-616.25 148.78,-594.11 148.78,-541 148.78,-541 148.78,-541 148.78,-278 148.78,-251.51 169.66,-230.11 190.35,-215.4"/>
<polygon fill="black" stroke="black" points="192.48,-218.19 198.84,-209.71 188.58,-212.38 192.48,-218.19"/>
<text text-anchor="middle" x="172.28" y="-405.8" font-family="Times,serif" font-size="14.00">previous</text>
</g>
<!-- http://purl.org/dj/kaggle/simple&#45;recommendation&#45;engine/activity/&#45;2804998413953825039&#45;&gt;http://purl.org/dj/kaggle/simple&#45;recommendation&#45;engine/activity/4669160977997450965 -->
<g id="edge22" class="edge">
<title>http://purl.org/dj/kaggle/simple&#45;recommendation&#45;engine/activity/&#45;2804998413953825039&#45;&gt;http://purl.org/dj/kaggle/simple&#45;recommendation&#45;engine/activity/4669160977997450965</title>
<path fill="none" stroke="black" d="M1506.81,-625.3C1635.68,-620.61 1803.78,-602.68 1803.78,-541 1803.78,-541 1803.78,-541 1803.78,-408.5 1803.78,-380.32 1803.85,-368.75 1784.78,-348 1770.48,-332.45 1759.96,-338.86 1740.78,-330 1659.11,-292.28 1566.27,-242.68 1515.02,-214.68"/>
<polygon fill="black" stroke="black" points="1516.4,-211.45 1505.94,-209.71 1513.03,-217.59 1516.4,-211.45"/>
<text text-anchor="middle" x="1827.28" y="-405.8" font-family="Times,serif" font-size="14.00">previous</text>
</g>
<!-- http://purl.org/dj/kaggle/simple&#45;recommendation&#45;engine/activity/&#45;2804998413953825039&#45;&gt;http://purl.org/dj/kaggle/simple&#45;recommendation&#45;engine/activity/&#45;6411370928940553318 -->
<g id="edge23" class="edge">
<title>http://purl.org/dj/kaggle/simple&#45;recommendation&#45;engine/activity/&#45;2804998413953825039&#45;&gt;http://purl.org/dj/kaggle/simple&#45;recommendation&#45;engine/activity/&#45;6411370928940553318</title>
<path fill="none" stroke="black" d="M1266.59,-613.37C1225.57,-607.42 1177.16,-599.71 1133.78,-591 1088.95,-582 1039.07,-569.61 1000.22,-559.41"/>
<polygon fill="black" stroke="black" points="1000.64,-555.91 990.08,-556.74 998.85,-562.67 1000.64,-555.91"/>
<text text-anchor="middle" x="1157.28" y="-579.8" font-family="Times,serif" font-size="14.00">previous</text>
</g>
<!-- http://purl.org/dj/kaggle/simple&#45;recommendation&#45;engine/activity/&#45;2804998413953825039&#45;&gt;http://purl.org/dj/kaggle/simple&#45;recommendation&#45;engine/activity/8067727652199969630 -->
<g id="edge24" class="edge">
<title>http://purl.org/dj/kaggle/simple&#45;recommendation&#45;engine/activity/&#45;2804998413953825039&#45;&gt;http://purl.org/dj/kaggle/simple&#45;recommendation&#45;engine/activity/8067727652199969630</title>
<path fill="none" stroke="black" d="M1232.42,-618.68C1112.23,-610.08 928.84,-592.4 772.78,-558 577.6,-514.98 491.38,-553.9 345.78,-417 339.29,-410.9 334.86,-402.41 331.85,-394.17"/>
<polygon fill="black" stroke="black" points="335.14,-392.93 328.86,-384.4 328.44,-394.98 335.14,-392.93"/>
<text text-anchor="middle" x="498.28" y="-492.8" font-family="Times,serif" font-size="14.00">previous</text>
</g>
<!-- http://purl.org/dj/kaggle/simple&#45;recommendation&#45;engine/activity/5446008168430809614 -->
<g id="node13" class="node">
<title>http://purl.org/dj/kaggle/simple&#45;recommendation&#45;engine/activity/5446008168430809614</title>
<ellipse fill="none" stroke="black" cx="1892.78" cy="-279" rx="141.88" ry="18"/>
<text text-anchor="middle" x="1892.78" y="-275.3" font-family="Times,serif" font-size="14.00">5446008168430809614 (Movement)</text>
</g>
<!-- http://purl.org/dj/kaggle/simple&#45;recommendation&#45;engine/activity/&#45;2804998413953825039&#45;&gt;http://purl.org/dj/kaggle/simple&#45;recommendation&#45;engine/activity/5446008168430809614 -->
<g id="edge25" class="edge">
<title>http://purl.org/dj/kaggle/simple&#45;recommendation&#45;engine/activity/&#45;2804998413953825039&#45;&gt;http://purl.org/dj/kaggle/simple&#45;recommendation&#45;engine/activity/5446008168430809614</title>
<path fill="none" stroke="black" d="M1502.84,-622.43C1802.99,-613.9 2477.78,-589.35 2477.78,-541 2477.78,-541 2477.78,-541 2477.78,-365 2477.78,-320.25 2206.27,-297.03 2033.19,-286.76"/>
<polygon fill="black" stroke="black" points="2033.16,-283.26 2022.97,-286.17 2032.75,-290.24 2033.16,-283.26"/>
<text text-anchor="middle" x="2501.28" y="-449.3" font-family="Times,serif" font-size="14.00">previous</text>
</g>
<!-- http://purl.org/dj/kaggle/simple&#45;recommendation&#45;engine/activity/&#45;6411370928940553318&#45;&gt;http://purl.org/dj/kaggle/simple&#45;recommendation&#45;engine/activity/7358004796070548965 -->
<g id="edge26" class="edge">
<title>http://purl.org/dj/kaggle/simple&#45;recommendation&#45;engine/activity/&#45;6411370928940553318&#45;&gt;http://purl.org/dj/kaggle/simple&#45;recommendation&#45;engine/activity/7358004796070548965</title>
<path fill="none" stroke="black" d="M931.9,-521.84C930.84,-487.03 932.11,-406.48 961.78,-348 1024.9,-223.58 1068.39,-193.19 1197.78,-141 1214.65,-134.19 1233.31,-128.22 1250.99,-123.22"/>
<polygon fill="black" stroke="black" points="1251.98,-126.58 1260.69,-120.54 1250.12,-119.83 1251.98,-126.58"/>
<text text-anchor="middle" x="1002.28" y="-318.8" font-family="Times,serif" font-size="14.00">previous</text>
</g>
<!-- http://purl.org/dj/kaggle/simple&#45;recommendation&#45;engine/activity/&#45;6411370928940553318&#45;&gt;http://purl.org/dj/kaggle/simple&#45;recommendation&#45;engine/activity/3210008644403612552 -->
<g id="edge27" class="edge">
<title>http://purl.org/dj/kaggle/simple&#45;recommendation&#45;engine/activity/&#45;6411370928940553318&#45;&gt;http://purl.org/dj/kaggle/simple&#45;recommendation&#45;engine/activity/3210008644403612552</title>
<path fill="none" stroke="black" d="M949.49,-522.09C980.81,-491.66 1051.86,-428.38 1125.78,-402 1180.95,-382.31 1341.08,-418.01 1388.78,-384 1413.67,-366.25 1424.56,-331.54 1429.27,-307.12"/>
<polygon fill="black" stroke="black" points="1432.76,-307.48 1430.98,-297.04 1425.86,-306.31 1432.76,-307.48"/>
<text text-anchor="middle" x="1149.28" y="-405.8" font-family="Times,serif" font-size="14.00">previous</text>
</g>
<!-- http://purl.org/dj/kaggle/simple&#45;recommendation&#45;engine/activity/&#45;6411370928940553318&#45;&gt;http://purl.org/dj/kaggle/simple&#45;recommendation&#45;engine/activity/5048063247059705790 -->
<g id="edge28" class="edge">
<title>http://purl.org/dj/kaggle/simple&#45;recommendation&#45;engine/activity/&#45;6411370928940553318&#45;&gt;http://purl.org/dj/kaggle/simple&#45;recommendation&#45;engine/activity/5048063247059705790</title>
<path fill="none" stroke="black" d="M902.54,-522.3C884.24,-512.35 860.33,-499.62 838.78,-489 829.09,-484.23 818.62,-479.31 808.61,-474.73"/>
<polygon fill="black" stroke="black" points="809.75,-471.4 799.2,-470.45 806.86,-477.77 809.75,-471.4"/>
<text text-anchor="middle" x="891.28" y="-492.8" font-family="Times,serif" font-size="14.00">previous</text>
</g>
<!-- http://purl.org/dj/kaggle/simple&#45;recommendation&#45;engine/activity/8067727652199969630&#45;&gt;http://purl.org/dj/kaggle/simple&#45;recommendation&#45;engine/activity/7358004796070548965 -->
<g id="edge29" class="edge">
<title>http://purl.org/dj/kaggle/simple&#45;recommendation&#45;engine/activity/8067727652199969630&#45;&gt;http://purl.org/dj/kaggle/simple&#45;recommendation&#45;engine/activity/7358004796070548965</title>
<path fill="none" stroke="black" d="M331.77,-347.75C348.09,-303.81 397.91,-187.81 483.78,-141 543.93,-108.21 967.62,-104.69 1189.29,-105.14"/>
<polygon fill="black" stroke="black" points="1189.36,-108.64 1199.36,-105.17 1189.37,-101.65 1189.36,-108.64"/>
<text text-anchor="middle" x="416.28" y="-231.8" font-family="Times,serif" font-size="14.00">previous</text>
</g>
<!-- http://purl.org/dj/kaggle/simple&#45;recommendation&#45;engine/activity/8067727652199969630&#45;&gt;http://purl.org/dj/kaggle/simple&#45;recommendation&#45;engine/activity/5048063247059705790 -->
<g id="edge30" class="edge">
<title>http://purl.org/dj/kaggle/simple&#45;recommendation&#45;engine/activity/8067727652199969630&#45;&gt;http://purl.org/dj/kaggle/simple&#45;recommendation&#45;engine/activity/5048063247059705790</title>
<path fill="none" stroke="black" d="M334.84,-383.97C341.92,-395.39 352.88,-409.66 366.78,-417 408.11,-438.84 516.74,-447.36 609.64,-450.54"/>
<polygon fill="black" stroke="black" points="609.62,-454.04 619.73,-450.87 609.85,-447.05 609.62,-454.04"/>
<text text-anchor="middle" x="390.28" y="-405.8" font-family="Times,serif" font-size="14.00">previous</text>
</g>
<!-- http://purl.org/dj/kaggle/simple&#45;recommendation&#45;engine/activity/&#45;1476369809213239327 -->
<g id="node14" class="node">
<title>http://purl.org/dj/kaggle/simple&#45;recommendation&#45;engine/activity/&#45;1476369809213239327</title>
<ellipse fill="none" stroke="black" cx="708.78" cy="-279" rx="145.67" ry="18"/>
<text text-anchor="middle" x="708.78" y="-275.3" font-family="Times,serif" font-size="14.00">&#45;1476369809213239327 (Preparation)</text>
</g>
<!-- http://purl.org/dj/kaggle/simple&#45;recommendation&#45;engine/activity/8067727652199969630&#45;&gt;http://purl.org/dj/kaggle/simple&#45;recommendation&#45;engine/activity/&#45;1476369809213239327 -->
<g id="edge31" class="edge">
<title>http://purl.org/dj/kaggle/simple&#45;recommendation&#45;engine/activity/8067727652199969630&#45;&gt;http://purl.org/dj/kaggle/simple&#45;recommendation&#45;engine/activity/&#45;1476369809213239327</title>
<path fill="none" stroke="black" d="M393.81,-349.9C460.39,-335.12 561.7,-312.64 631.34,-297.19"/>
<polygon fill="black" stroke="black" points="632.37,-300.54 641.38,-294.96 630.86,-293.71 632.37,-300.54"/>
<text text-anchor="middle" x="564.28" y="-318.8" font-family="Times,serif" font-size="14.00">previous</text>
</g>
<!-- http://purl.org/dj/kaggle/simple&#45;recommendation&#45;engine/activity/5446008168430809614&#45;&gt;http://purl.org/dj/kaggle/simple&#45;recommendation&#45;engine/activity/7358004796070548965 -->
<g id="edge32" class="edge">
<title>http://purl.org/dj/kaggle/simple&#45;recommendation&#45;engine/activity/5446008168430809614&#45;&gt;http://purl.org/dj/kaggle/simple&#45;recommendation&#45;engine/activity/7358004796070548965</title>
<path fill="none" stroke="black" d="M1866.52,-261.21C1847.01,-248.22 1820.19,-229.26 1798.78,-210 1768.12,-182.43 1773.69,-159.36 1736.78,-141 1689.24,-117.35 1559.25,-109.33 1457.67,-106.79"/>
<polygon fill="black" stroke="black" points="1457.7,-103.29 1447.62,-106.55 1457.54,-110.29 1457.7,-103.29"/>
<text text-anchor="middle" x="1822.28" y="-188.3" font-family="Times,serif" font-size="14.00">previous</text>
</g>
<!-- http://purl.org/dj/kaggle/simple&#45;recommendation&#45;engine/activity/&#45;1476369809213239327&#45;&gt;http://purl.org/dj/kaggle/simple&#45;recommendation&#45;engine/activity/7358004796070548965 -->
<g id="edge33" class="edge">
<title>http://purl.org/dj/kaggle/simple&#45;recommendation&#45;engine/activity/&#45;1476369809213239327&#45;&gt;http://purl.org/dj/kaggle/simple&#45;recommendation&#45;engine/activity/7358004796070548965</title>
<path fill="none" stroke="black" d="M704,-260.67C698.81,-237.64 693.93,-197.18 715.78,-174 748.11,-139.7 1027.89,-120.28 1196.45,-111.59"/>
<polygon fill="black" stroke="black" points="1196.82,-115.07 1206.63,-111.07 1196.47,-108.08 1196.82,-115.07"/>
<text text-anchor="middle" x="739.28" y="-188.3" font-family="Times,serif" font-size="14.00">previous</text>
</g>
<!-- http://purl.org/dj/kaggle/simple&#45;recommendation&#45;engine/activity/&#45;1476369809213239327&#45;&gt;http://purl.org/dj/kaggle/simple&#45;recommendation&#45;engine/activity/93794843755343368 -->
<g id="edge34" class="edge">
<title>http://purl.org/dj/kaggle/simple&#45;recommendation&#45;engine/activity/&#45;1476369809213239327&#45;&gt;http://purl.org/dj/kaggle/simple&#45;recommendation&#45;engine/activity/93794843755343368</title>
<path fill="none" stroke="black" d="M744.98,-261.48C767.06,-251.52 795.92,-238.74 821.78,-228 833.99,-222.93 847.22,-217.66 859.69,-212.79"/>
<polygon fill="black" stroke="black" points="860.98,-216.04 869.04,-209.16 858.45,-209.52 860.98,-216.04"/>
<text text-anchor="middle" x="845.28" y="-231.8" font-family="Times,serif" font-size="14.00">previous</text>
</g>
<!-- http://purl.org/dj/kaggle/simple&#45;recommendation&#45;engine/activity/&#45;9184228699284979125 -->
<g id="node15" class="node">
<title>http://purl.org/dj/kaggle/simple&#45;recommendation&#45;engine/activity/&#45;9184228699284979125</title>
<ellipse fill="none" stroke="black" cx="2298.78" cy="-366" rx="151.37" ry="18"/>
<text text-anchor="middle" x="2298.78" y="-362.3" font-family="Times,serif" font-size="14.00">&#45;9184228699284979125 (Visualisation)</text>
</g>
<!-- http://purl.org/dj/kaggle/simple&#45;recommendation&#45;engine/activity/&#45;9184228699284979125&#45;&gt;http://purl.org/dj/kaggle/simple&#45;recommendation&#45;engine/activity/7358004796070548965 -->
<g id="edge35" class="edge">
<title>http://purl.org/dj/kaggle/simple&#45;recommendation&#45;engine/activity/&#45;9184228699284979125&#45;&gt;http://purl.org/dj/kaggle/simple&#45;recommendation&#45;engine/activity/7358004796070548965</title>
<path fill="none" stroke="black" d="M2261.16,-348.45C2211.76,-326.99 2122.11,-289.02 2043.78,-261 1971.5,-235.15 1943.63,-251.05 1878.78,-210 1860.44,-198.39 1863.67,-186.28 1845.78,-174 1812.71,-151.3 1800.86,-150.03 1761.78,-141 1661.68,-117.88 1545.69,-109.4 1458.23,-106.55"/>
<polygon fill="black" stroke="black" points="1458.08,-103.04 1447.97,-106.24 1457.86,-110.04 1458.08,-103.04"/>
<text text-anchor="middle" x="1992.28" y="-231.8" font-family="Times,serif" font-size="14.00">previous</text>
</g>
<!-- http://purl.org/dj/kaggle/simple&#45;recommendation&#45;engine/activity/&#45;9184228699284979125&#45;&gt;http://purl.org/dj/kaggle/simple&#45;recommendation&#45;engine/activity/3210008644403612552 -->
<g id="edge36" class="edge">
<title>http://purl.org/dj/kaggle/simple&#45;recommendation&#45;engine/activity/&#45;9184228699284979125&#45;&gt;http://purl.org/dj/kaggle/simple&#45;recommendation&#45;engine/activity/3210008644403612552</title>
<path fill="none" stroke="black" d="M2191.67,-353.21C2174,-351.39 2155.88,-349.58 2138.78,-348 2037.56,-338.63 2012,-339.29 1910.78,-330 1785.59,-318.51 1642.18,-303.23 1545.37,-292.59"/>
<polygon fill="black" stroke="black" points="1545.59,-289.1 1535.27,-291.48 1544.83,-296.06 1545.59,-289.1"/>
<text text-anchor="middle" x="1934.28" y="-318.8" font-family="Times,serif" font-size="14.00">previous</text>
</g>
<!-- http://purl.org/dj/kaggle/simple&#45;recommendation&#45;engine/activity/&#45;9184228699284979125&#45;&gt;http://purl.org/dj/kaggle/simple&#45;recommendation&#45;engine/activity/5446008168430809614 -->
<g id="edge37" class="edge">
<title>http://purl.org/dj/kaggle/simple&#45;recommendation&#45;engine/activity/&#45;9184228699284979125&#45;&gt;http://purl.org/dj/kaggle/simple&#45;recommendation&#45;engine/activity/5446008168430809614</title>
<path fill="none" stroke="black" d="M2191.78,-353.18C2110.5,-344.08 2011.1,-332.62 2001.78,-330 1977.44,-323.17 1951.67,-311.57 1931.3,-301.26"/>
<polygon fill="black" stroke="black" points="1932.84,-298.12 1922.35,-296.64 1929.63,-304.34 1932.84,-298.12"/>
<text text-anchor="middle" x="2025.28" y="-318.8" font-family="Times,serif" font-size="14.00">previous</text>
</g>
<!-- http://purl.org/dj/kaggle/simple&#45;recommendation&#45;engine/activity/8096819579306934404 -->
<g id="node16" class="node">
<title>http://purl.org/dj/kaggle/simple&#45;recommendation&#45;engine/activity/8096819579306934404</title>
<ellipse fill="none" stroke="black" cx="1230.78" cy="-366" rx="148.67" ry="18"/>
<text text-anchor="middle" x="1230.78" y="-362.3" font-family="Times,serif" font-size="14.00">8096819579306934404 (Visualisation)</text>
</g>
<!-- http://purl.org/dj/kaggle/simple&#45;recommendation&#45;engine/activity/8096819579306934404&#45;&gt;http://purl.org/dj/kaggle/simple&#45;recommendation&#45;engine/activity/7358004796070548965 -->
<g id="edge38" class="edge">
<title>http://purl.org/dj/kaggle/simple&#45;recommendation&#45;engine/activity/8096819579306934404&#45;&gt;http://purl.org/dj/kaggle/simple&#45;recommendation&#45;engine/activity/7358004796070548965</title>
<path fill="none" stroke="black" d="M1201.48,-348.16C1162.32,-323.34 1100.7,-274.83 1126.78,-228 1155.71,-176.05 1216.91,-143.42 1263.47,-125.11"/>
<polygon fill="black" stroke="black" points="1264.77,-128.36 1272.87,-121.53 1262.28,-121.82 1264.77,-128.36"/>
<text text-anchor="middle" x="1150.28" y="-231.8" font-family="Times,serif" font-size="14.00">previous</text>
</g>
<!-- http://purl.org/dj/kaggle/simple&#45;recommendation&#45;engine/activity/8096819579306934404&#45;&gt;http://purl.org/dj/kaggle/simple&#45;recommendation&#45;engine/activity/3210008644403612552 -->
<g id="edge39" class="edge">
<title>http://purl.org/dj/kaggle/simple&#45;recommendation&#45;engine/activity/8096819579306934404&#45;&gt;http://purl.org/dj/kaggle/simple&#45;recommendation&#45;engine/activity/3210008644403612552</title>
<path fill="none" stroke="black" d="M1268.57,-348.48C1291.21,-338.64 1320.58,-325.97 1346.78,-315 1358.39,-310.13 1370.92,-304.98 1382.74,-300.16"/>
<polygon fill="black" stroke="black" points="1384.08,-303.4 1392.02,-296.39 1381.44,-296.91 1384.08,-303.4"/>
<text text-anchor="middle" x="1370.28" y="-318.8" font-family="Times,serif" font-size="14.00">previous</text>
</g>
<!-- http://purl.org/dj/kaggle/simple&#45;recommendation&#45;engine/activity/&#45;1721498084005819967 -->
<g id="node17" class="node">
<title>http://purl.org/dj/kaggle/simple&#45;recommendation&#45;engine/activity/&#45;1721498084005819967</title>
<ellipse fill="none" stroke="black" cx="1624.78" cy="-366" rx="151.37" ry="18"/>
<text text-anchor="middle" x="1624.78" y="-362.3" font-family="Times,serif" font-size="14.00">&#45;1721498084005819967 (Visualisation)</text>
</g>
<!-- http://purl.org/dj/kaggle/simple&#45;recommendation&#45;engine/activity/&#45;1721498084005819967&#45;&gt;http://purl.org/dj/kaggle/simple&#45;recommendation&#45;engine/activity/7358004796070548965 -->
<g id="edge40" class="edge">
<title>http://purl.org/dj/kaggle/simple&#45;recommendation&#45;engine/activity/&#45;1721498084005819967&#45;&gt;http://purl.org/dj/kaggle/simple&#45;recommendation&#45;engine/activity/7358004796070548965</title>
<path fill="none" stroke="black" d="M1633.1,-347.95C1635.42,-342.36 1637.61,-336.04 1638.78,-330 1641.24,-317.23 1655.19,-199.67 1633.78,-174 1608.57,-143.78 1514.99,-126.11 1437.17,-116.4"/>
<polygon fill="black" stroke="black" points="1437.14,-112.87 1426.79,-115.14 1436.3,-119.82 1437.14,-112.87"/>
<text text-anchor="middle" x="1669.28" y="-231.8" font-family="Times,serif" font-size="14.00">previous</text>
</g>
<!-- http://purl.org/dj/kaggle/simple&#45;recommendation&#45;engine/activity/&#45;1721498084005819967&#45;&gt;http://purl.org/dj/kaggle/simple&#45;recommendation&#45;engine/activity/3210008644403612552 -->
<g id="edge41" class="edge">
<title>http://purl.org/dj/kaggle/simple&#45;recommendation&#45;engine/activity/&#45;1721498084005819967&#45;&gt;http://purl.org/dj/kaggle/simple&#45;recommendation&#45;engine/activity/3210008644403612552</title>
<path fill="none" stroke="black" d="M1550.2,-350.27C1531.86,-345.18 1512.66,-338.53 1495.78,-330 1482.14,-323.11 1468.65,-312.97 1457.67,-303.62"/>
<polygon fill="black" stroke="black" points="1459.97,-300.99 1450.15,-297.01 1455.35,-306.25 1459.97,-300.99"/>
<text text-anchor="middle" x="1519.28" y="-318.8" font-family="Times,serif" font-size="14.00">previous</text>
</g>
<!-- http://purl.org/dj/kaggle/simple&#45;recommendation&#45;engine/activity/5006941147733309145 -->
<g id="node18" class="node">
<title>http://purl.org/dj/kaggle/simple&#45;recommendation&#45;engine/activity/5006941147733309145</title>
<ellipse fill="none" stroke="black" cx="2036.78" cy="-192" rx="148.67" ry="18"/>
<text text-anchor="middle" x="2036.78" y="-188.3" font-family="Times,serif" font-size="14.00">5006941147733309145 (Visualisation)</text>
</g>
<!-- http://purl.org/dj/kaggle/simple&#45;recommendation&#45;engine/activity/5006941147733309145&#45;&gt;http://purl.org/dj/kaggle/simple&#45;recommendation&#45;engine/activity/7358004796070548965 -->
<g id="edge42" class="edge">
<title>http://purl.org/dj/kaggle/simple&#45;recommendation&#45;engine/activity/5006941147733309145&#45;&gt;http://purl.org/dj/kaggle/simple&#45;recommendation&#45;engine/activity/7358004796070548965</title>
<path fill="none" stroke="black" d="M1993.53,-174.7C1961.08,-163.21 1915.27,-148.58 1873.78,-141 1733.42,-115.37 1569.95,-107.73 1457.93,-105.81"/>
<polygon fill="black" stroke="black" points="1457.98,-102.31 1447.93,-105.65 1457.87,-109.31 1457.98,-102.31"/>
<text text-anchor="middle" x="1957.28" y="-144.8" font-family="Times,serif" font-size="14.00">previous</text>
</g>
<!-- http://purl.org/dj/kaggle/simple&#45;recommendation&#45;engine/activity/2528025239770058558 -->
<g id="node19" class="node">
<title>http://purl.org/dj/kaggle/simple&#45;recommendation&#45;engine/activity/2528025239770058558</title>
<ellipse fill="none" stroke="black" cx="679.78" cy="-366" rx="148.67" ry="18"/>
<text text-anchor="middle" x="679.78" y="-362.3" font-family="Times,serif" font-size="14.00">2528025239770058558 (Visualisation)</text>
</g>
<!-- http://purl.org/dj/kaggle/simple&#45;recommendation&#45;engine/activity/2528025239770058558&#45;&gt;http://purl.org/dj/kaggle/simple&#45;recommendation&#45;engine/activity/&#45;1476369809213239327 -->
<g id="edge43" class="edge">
<title>http://purl.org/dj/kaggle/simple&#45;recommendation&#45;engine/activity/2528025239770058558&#45;&gt;http://purl.org/dj/kaggle/simple&#45;recommendation&#45;engine/activity/&#45;1476369809213239327</title>
<path fill="none" stroke="black" d="M685.64,-347.8C689.65,-336.05 695.05,-320.24 699.62,-306.84"/>
<polygon fill="black" stroke="black" points="703,-307.77 702.92,-297.18 696.37,-305.51 703,-307.77"/>
<text text-anchor="middle" x="720.28" y="-318.8" font-family="Times,serif" font-size="14.00">previous</text>
</g>
<!-- http://purl.org/dj/kaggle/simple&#45;recommendation&#45;engine/activity/&#45;2336516718773683177 -->
<g id="node20" class="node">
<title>http://purl.org/dj/kaggle/simple&#45;recommendation&#45;engine/activity/&#45;2336516718773683177</title>
<ellipse fill="none" stroke="black" cx="2354.78" cy="-192" rx="151.37" ry="18"/>
<text text-anchor="middle" x="2354.78" y="-188.3" font-family="Times,serif" font-size="14.00">&#45;2336516718773683177 (Visualisation)</text>
</g>
<!-- http://purl.org/dj/kaggle/simple&#45;recommendation&#45;engine/activity/&#45;2336516718773683177&#45;&gt;http://purl.org/dj/kaggle/simple&#45;recommendation&#45;engine/activity/7358004796070548965 -->
<g id="edge44" class="edge">
<title>http://purl.org/dj/kaggle/simple&#45;recommendation&#45;engine/activity/&#45;2336516718773683177&#45;&gt;http://purl.org/dj/kaggle/simple&#45;recommendation&#45;engine/activity/7358004796070548965</title>
<path fill="none" stroke="black" d="M2267.91,-177.23C2193.08,-165.85 2082.06,-150.13 1984.78,-141 1801.2,-123.77 1588.09,-114.39 1454.58,-109.79"/>
<polygon fill="black" stroke="black" points="1454.42,-106.28 1444.31,-109.44 1454.18,-113.27 1454.42,-106.28"/>
<text text-anchor="middle" x="2130.28" y="-144.8" font-family="Times,serif" font-size="14.00">previous</text>
</g>
</g>
</svg>
