<?xml version="1.0" encoding="UTF-8" standalone="no"?>
<!DOCTYPE svg PUBLIC "-//W3C//DTD SVG 1.1//EN"
 "http://www.w3.org/Graphics/SVG/1.1/DTD/svg11.dtd">
<!-- Generated by graphviz version 2.47.1 (20210417.1919)
 -->
<!-- Pages: 1 -->
<svg width="3134pt" height="413pt"
 viewBox="0.00 0.00 3133.99 413.00" xmlns="http://www.w3.org/2000/svg" xmlns:xlink="http://www.w3.org/1999/xlink">
<g id="graph0" class="graph" transform="scale(1 1) rotate(0) translate(4 409)">
<polygon fill="white" stroke="transparent" points="-4,4 -4,-409 3129.99,-409 3129.99,4 -4,4"/>
<!-- http://purl.org/dj/kaggle/simple&#45;linear&#45;stacking&#45;lb&#45;9730/activity/352111658092472683 -->
<g id="node1" class="node">
<title>http://purl.org/dj/kaggle/simple&#45;linear&#45;stacking&#45;lb&#45;9730/activity/352111658092472683</title>
<ellipse fill="none" stroke="black" cx="705.99" cy="-387" rx="144.07" ry="18"/>
<text text-anchor="middle" x="705.99" y="-383.3" font-family="Times,serif" font-size="14.00">352111658092472683 (Visualisation)</text>
</g>
<!-- http://purl.org/dj/kaggle/simple&#45;linear&#45;stacking&#45;lb&#45;9730/activity/5755765558787823678 -->
<g id="node2" class="node">
<title>http://purl.org/dj/kaggle/simple&#45;linear&#45;stacking&#45;lb&#45;9730/activity/5755765558787823678</title>
<ellipse fill="none" stroke="black" cx="538.99" cy="-192" rx="142.97" ry="18"/>
<text text-anchor="middle" x="538.99" y="-188.3" font-family="Times,serif" font-size="14.00">5755765558787823678 (Preparation)</text>
</g>
<!-- http://purl.org/dj/kaggle/simple&#45;linear&#45;stacking&#45;lb&#45;9730/activity/352111658092472683&#45;&gt;http://purl.org/dj/kaggle/simple&#45;linear&#45;stacking&#45;lb&#45;9730/activity/5755765558787823678 -->
<g id="edge1" class="edge">
<title>http://purl.org/dj/kaggle/simple&#45;linear&#45;stacking&#45;lb&#45;9730/activity/352111658092472683&#45;&gt;http://purl.org/dj/kaggle/simple&#45;linear&#45;stacking&#45;lb&#45;9730/activity/5755765558787823678</title>
<path fill="none" stroke="black" d="M604.22,-374.19C569.26,-364.74 533.53,-347.89 511.99,-318 488.39,-285.26 483.54,-264.85 499.99,-228 501.65,-224.27 503.93,-220.78 506.55,-217.55"/>
<polygon fill="black" stroke="black" points="509.29,-219.75 513.64,-210.09 504.22,-214.93 509.29,-219.75"/>
<text text-anchor="middle" x="535.49" y="-296.3" font-family="Times,serif" font-size="14.00">previous</text>
</g>
<!-- http://purl.org/dj/kaggle/simple&#45;linear&#45;stacking&#45;lb&#45;9730/activity/&#45;5196971418596106231 -->
<g id="node3" class="node">
<title>http://purl.org/dj/kaggle/simple&#45;linear&#45;stacking&#45;lb&#45;9730/activity/&#45;5196971418596106231</title>
<ellipse fill="none" stroke="black" cx="1472.99" cy="-105" rx="126.98" ry="18"/>
<text text-anchor="middle" x="1472.99" y="-101.3" font-family="Times,serif" font-size="14.00">&#45;5196971418596106231 (Reuse)</text>
</g>
<!-- http://purl.org/dj/kaggle/simple&#45;linear&#45;stacking&#45;lb&#45;9730/activity/352111658092472683&#45;&gt;http://purl.org/dj/kaggle/simple&#45;linear&#45;stacking&#45;lb&#45;9730/activity/&#45;5196971418596106231 -->
<g id="edge2" class="edge">
<title>http://purl.org/dj/kaggle/simple&#45;linear&#45;stacking&#45;lb&#45;9730/activity/352111658092472683&#45;&gt;http://purl.org/dj/kaggle/simple&#45;linear&#45;stacking&#45;lb&#45;9730/activity/&#45;5196971418596106231</title>
<path fill="none" stroke="black" d="M821.15,-376.15C986.71,-361.47 1274.09,-333.91 1290.99,-318 1320.57,-290.15 1278.7,-257.16 1306.99,-228 1334.18,-199.97 1359.92,-230.77 1392.99,-210 1423.3,-190.96 1446.54,-156.11 1459.97,-132.03"/>
<polygon fill="black" stroke="black" points="1463.14,-133.54 1464.8,-123.08 1456.97,-130.22 1463.14,-133.54"/>
<text text-anchor="middle" x="1330.49" y="-242.3" font-family="Times,serif" font-size="14.00">previous</text>
</g>
<!-- http://purl.org/dj/kaggle/simple&#45;linear&#45;stacking&#45;lb&#45;9730/activity/4275094961740805831 -->
<g id="node4" class="node">
<title>http://purl.org/dj/kaggle/simple&#45;linear&#45;stacking&#45;lb&#45;9730/activity/4275094961740805831</title>
<ellipse fill="none" stroke="black" cx="142.99" cy="-246" rx="142.97" ry="18"/>
<text text-anchor="middle" x="142.99" y="-242.3" font-family="Times,serif" font-size="14.00">4275094961740805831 (Preparation)</text>
</g>
<!-- http://purl.org/dj/kaggle/simple&#45;linear&#45;stacking&#45;lb&#45;9730/activity/352111658092472683&#45;&gt;http://purl.org/dj/kaggle/simple&#45;linear&#45;stacking&#45;lb&#45;9730/activity/4275094961740805831 -->
<g id="edge3" class="edge">
<title>http://purl.org/dj/kaggle/simple&#45;linear&#45;stacking&#45;lb&#45;9730/activity/352111658092472683&#45;&gt;http://purl.org/dj/kaggle/simple&#45;linear&#45;stacking&#45;lb&#45;9730/activity/4275094961740805831</title>
<path fill="none" stroke="black" d="M566.67,-382.19C465.65,-377.95 338.44,-369.13 288.99,-351 241.12,-333.45 194.72,-295.77 167.52,-270.91"/>
<polygon fill="black" stroke="black" points="169.75,-268.21 160.04,-263.96 164.98,-273.33 169.75,-268.21"/>
<text text-anchor="middle" x="312.49" y="-339.8" font-family="Times,serif" font-size="14.00">previous</text>
</g>
<!-- http://purl.org/dj/kaggle/simple&#45;linear&#45;stacking&#45;lb&#45;9730/activity/6001991448573323771 -->
<g id="node5" class="node">
<title>http://purl.org/dj/kaggle/simple&#45;linear&#45;stacking&#45;lb&#45;9730/activity/6001991448573323771</title>
<ellipse fill="none" stroke="black" cx="2930.99" cy="-192" rx="142.97" ry="18"/>
<text text-anchor="middle" x="2930.99" y="-188.3" font-family="Times,serif" font-size="14.00">6001991448573323771 (Preparation)</text>
</g>
<!-- http://purl.org/dj/kaggle/simple&#45;linear&#45;stacking&#45;lb&#45;9730/activity/352111658092472683&#45;&gt;http://purl.org/dj/kaggle/simple&#45;linear&#45;stacking&#45;lb&#45;9730/activity/6001991448573323771 -->
<g id="edge4" class="edge">
<title>http://purl.org/dj/kaggle/simple&#45;linear&#45;stacking&#45;lb&#45;9730/activity/352111658092472683&#45;&gt;http://purl.org/dj/kaggle/simple&#45;linear&#45;stacking&#45;lb&#45;9730/activity/6001991448573323771</title>
<path fill="none" stroke="black" d="M816.79,-375.44C846.69,-372.94 879.05,-370.55 908.99,-369 1311.2,-348.18 1412.88,-373.6 1814.99,-351 1973.64,-342.08 2013.17,-336.52 2170.99,-318 2340.41,-298.12 2382.66,-291.67 2550.99,-264 2653.66,-247.12 2771.35,-224.65 2848.2,-209.54"/>
<polygon fill="black" stroke="black" points="2849.17,-212.92 2858.3,-207.55 2847.82,-206.05 2849.17,-212.92"/>
<text text-anchor="middle" x="2461.49" y="-296.3" font-family="Times,serif" font-size="14.00">previous</text>
</g>
<!-- http://purl.org/dj/kaggle/simple&#45;linear&#45;stacking&#45;lb&#45;9730/activity/&#45;6524971860531986329 -->
<g id="node6" class="node">
<title>http://purl.org/dj/kaggle/simple&#45;linear&#45;stacking&#45;lb&#45;9730/activity/&#45;6524971860531986329</title>
<ellipse fill="none" stroke="black" cx="781.99" cy="-300" rx="135.68" ry="18"/>
<text text-anchor="middle" x="781.99" y="-296.3" font-family="Times,serif" font-size="14.00">&#45;6524971860531986329 (Analysis)</text>
</g>
<!-- http://purl.org/dj/kaggle/simple&#45;linear&#45;stacking&#45;lb&#45;9730/activity/352111658092472683&#45;&gt;http://purl.org/dj/kaggle/simple&#45;linear&#45;stacking&#45;lb&#45;9730/activity/&#45;6524971860531986329 -->
<g id="edge5" class="edge">
<title>http://purl.org/dj/kaggle/simple&#45;linear&#45;stacking&#45;lb&#45;9730/activity/352111658092472683&#45;&gt;http://purl.org/dj/kaggle/simple&#45;linear&#45;stacking&#45;lb&#45;9730/activity/&#45;6524971860531986329</title>
<path fill="none" stroke="black" d="M721.37,-368.8C732.39,-356.47 747.4,-339.68 759.73,-325.89"/>
<polygon fill="black" stroke="black" points="762.57,-327.96 766.63,-318.18 757.36,-323.3 762.57,-327.96"/>
<text text-anchor="middle" x="772.49" y="-339.8" font-family="Times,serif" font-size="14.00">previous</text>
</g>
<!-- http://purl.org/dj/kaggle/simple&#45;linear&#45;stacking&#45;lb&#45;9730/activity/6895394841011699569 -->
<g id="node7" class="node">
<title>http://purl.org/dj/kaggle/simple&#45;linear&#45;stacking&#45;lb&#45;9730/activity/6895394841011699569</title>
<ellipse fill="none" stroke="black" cx="234.99" cy="-192" rx="142.97" ry="18"/>
<text text-anchor="middle" x="234.99" y="-188.3" font-family="Times,serif" font-size="14.00">6895394841011699569 (Preparation)</text>
</g>
<!-- http://purl.org/dj/kaggle/simple&#45;linear&#45;stacking&#45;lb&#45;9730/activity/352111658092472683&#45;&gt;http://purl.org/dj/kaggle/simple&#45;linear&#45;stacking&#45;lb&#45;9730/activity/6895394841011699569 -->
<g id="edge6" class="edge">
<title>http://purl.org/dj/kaggle/simple&#45;linear&#45;stacking&#45;lb&#45;9730/activity/352111658092472683&#45;&gt;http://purl.org/dj/kaggle/simple&#45;linear&#45;stacking&#45;lb&#45;9730/activity/6895394841011699569</title>
<path fill="none" stroke="black" d="M620.57,-372.49C590.69,-366.92 557.1,-359.71 526.99,-351 414.88,-318.56 395.16,-287.88 294.99,-228 287.93,-223.78 280.37,-219.32 273.08,-215.06"/>
<polygon fill="black" stroke="black" points="274.45,-211.81 264.05,-209.79 270.92,-217.85 274.45,-211.81"/>
<text text-anchor="middle" x="463.49" y="-296.3" font-family="Times,serif" font-size="14.00">previous</text>
</g>
<!-- http://purl.org/dj/kaggle/simple&#45;linear&#45;stacking&#45;lb&#45;9730/activity/&#45;6853708030589424039 -->
<g id="node8" class="node">
<title>http://purl.org/dj/kaggle/simple&#45;linear&#45;stacking&#45;lb&#45;9730/activity/&#45;6853708030589424039</title>
<ellipse fill="none" stroke="black" cx="1237.99" cy="-192" rx="145.67" ry="18"/>
<text text-anchor="middle" x="1237.99" y="-188.3" font-family="Times,serif" font-size="14.00">&#45;6853708030589424039 (Preparation)</text>
</g>
<!-- http://purl.org/dj/kaggle/simple&#45;linear&#45;stacking&#45;lb&#45;9730/activity/352111658092472683&#45;&gt;http://purl.org/dj/kaggle/simple&#45;linear&#45;stacking&#45;lb&#45;9730/activity/&#45;6853708030589424039 -->
<g id="edge7" class="edge">
<title>http://purl.org/dj/kaggle/simple&#45;linear&#45;stacking&#45;lb&#45;9730/activity/352111658092472683&#45;&gt;http://purl.org/dj/kaggle/simple&#45;linear&#45;stacking&#45;lb&#45;9730/activity/&#45;6853708030589424039</title>
<path fill="none" stroke="black" d="M773.84,-371.05C818.68,-359.76 877.98,-342.07 926.99,-318 951.89,-305.77 953.28,-294.62 977.99,-282 1039.29,-250.69 1114.07,-226.4 1167.67,-211.17"/>
<polygon fill="black" stroke="black" points="1168.74,-214.5 1177.42,-208.43 1166.85,-207.76 1168.74,-214.5"/>
<text text-anchor="middle" x="1001.49" y="-296.3" font-family="Times,serif" font-size="14.00">previous</text>
</g>
<!-- http://purl.org/dj/kaggle/simple&#45;linear&#45;stacking&#45;lb&#45;9730/activity/&#45;1409973279093487852 -->
<g id="node9" class="node">
<title>http://purl.org/dj/kaggle/simple&#45;linear&#45;stacking&#45;lb&#45;9730/activity/&#45;1409973279093487852</title>
<ellipse fill="none" stroke="black" cx="928.99" cy="-192" rx="145.67" ry="18"/>
<text text-anchor="middle" x="928.99" y="-188.3" font-family="Times,serif" font-size="14.00">&#45;1409973279093487852 (Preparation)</text>
</g>
<!-- http://purl.org/dj/kaggle/simple&#45;linear&#45;stacking&#45;lb&#45;9730/activity/352111658092472683&#45;&gt;http://purl.org/dj/kaggle/simple&#45;linear&#45;stacking&#45;lb&#45;9730/activity/&#45;1409973279093487852 -->
<g id="edge8" class="edge">
<title>http://purl.org/dj/kaggle/simple&#45;linear&#45;stacking&#45;lb&#45;9730/activity/352111658092472683&#45;&gt;http://purl.org/dj/kaggle/simple&#45;linear&#45;stacking&#45;lb&#45;9730/activity/&#45;1409973279093487852</title>
<path fill="none" stroke="black" d="M655.85,-370.05C631.38,-359.45 604.2,-342.81 589.99,-318 583.02,-305.85 592.64,-230.37 594.99,-228 622.33,-200.37 730.33,-214.05 768.99,-210 783.1,-208.52 797.9,-206.96 812.58,-205.41"/>
<polygon fill="black" stroke="black" points="813.13,-208.87 822.7,-204.33 812.39,-201.91 813.13,-208.87"/>
<text text-anchor="middle" x="613.49" y="-296.3" font-family="Times,serif" font-size="14.00">previous</text>
</g>
<!-- http://purl.org/dj/kaggle/simple&#45;linear&#45;stacking&#45;lb&#45;9730/activity/5755765558787823678&#45;&gt;http://purl.org/dj/kaggle/simple&#45;linear&#45;stacking&#45;lb&#45;9730/activity/&#45;5196971418596106231 -->
<g id="edge9" class="edge">
<title>http://purl.org/dj/kaggle/simple&#45;linear&#45;stacking&#45;lb&#45;9730/activity/5755765558787823678&#45;&gt;http://purl.org/dj/kaggle/simple&#45;linear&#45;stacking&#45;lb&#45;9730/activity/&#45;5196971418596106231</title>
<path fill="none" stroke="black" d="M570.01,-174.22C593.23,-162.57 626.17,-147.95 656.99,-141 782.15,-112.77 1138.16,-106.96 1336.07,-105.98"/>
<polygon fill="black" stroke="black" points="1336.27,-109.48 1346.25,-105.94 1336.24,-102.48 1336.27,-109.48"/>
<text text-anchor="middle" x="680.49" y="-144.8" font-family="Times,serif" font-size="14.00">previous</text>
</g>
<!-- http://purl.org/dj/kaggle/simple&#45;linear&#45;stacking&#45;lb&#45;9730 -->
<g id="node10" class="node">
<title>http://purl.org/dj/kaggle/simple&#45;linear&#45;stacking&#45;lb&#45;9730</title>
<ellipse fill="none" stroke="black" cx="2233.99" cy="-18" rx="259.95" ry="18"/>
<text text-anchor="middle" x="2233.99" y="-14.3" font-family="Times,serif" font-size="14.00">simple&#45;linear&#45;stacking&#45;lb&#45;9730 (simple&#45;linear&#45;stacking&#45;lb&#45;9730.ipynb)</text>
</g>
<!-- http://purl.org/dj/kaggle/simple&#45;linear&#45;stacking&#45;lb&#45;9730/activity/&#45;5196971418596106231&#45;&gt;http://purl.org/dj/kaggle/simple&#45;linear&#45;stacking&#45;lb&#45;9730 -->
<g id="edge10" class="edge">
<title>http://purl.org/dj/kaggle/simple&#45;linear&#45;stacking&#45;lb&#45;9730/activity/&#45;5196971418596106231&#45;&gt;http://purl.org/dj/kaggle/simple&#45;linear&#45;stacking&#45;lb&#45;9730</title>
<path fill="none" stroke="black" d="M1569.37,-93.23C1701.71,-78.45 1940.59,-51.77 2093.03,-34.74"/>
<polygon fill="black" stroke="black" points="2093.84,-38.18 2103.39,-33.59 2093.07,-31.22 2093.84,-38.18"/>
<text text-anchor="middle" x="1923.49" y="-57.8" font-family="Times,serif" font-size="14.00">previous</text>
</g>
<!-- http://purl.org/dj/kaggle/simple&#45;linear&#45;stacking&#45;lb&#45;9730/activity/4275094961740805831&#45;&gt;http://purl.org/dj/kaggle/simple&#45;linear&#45;stacking&#45;lb&#45;9730/activity/&#45;5196971418596106231 -->
<g id="edge11" class="edge">
<title>http://purl.org/dj/kaggle/simple&#45;linear&#45;stacking&#45;lb&#45;9730/activity/4275094961740805831&#45;&gt;http://purl.org/dj/kaggle/simple&#45;linear&#45;stacking&#45;lb&#45;9730/activity/&#45;5196971418596106231</title>
<path fill="none" stroke="black" d="M61.92,-231.05C51.77,-225.99 42.64,-219.18 35.99,-210 26.6,-197.05 25.14,-185.76 35.99,-174 79.67,-126.63 987.04,-111.44 1336.99,-107.33"/>
<polygon fill="black" stroke="black" points="1337.22,-110.83 1347.18,-107.22 1337.14,-103.83 1337.22,-110.83"/>
<text text-anchor="middle" x="59.49" y="-188.3" font-family="Times,serif" font-size="14.00">previous</text>
</g>
<!-- http://purl.org/dj/kaggle/simple&#45;linear&#45;stacking&#45;lb&#45;9730/activity/6001991448573323771&#45;&gt;http://purl.org/dj/kaggle/simple&#45;linear&#45;stacking&#45;lb&#45;9730/activity/&#45;5196971418596106231 -->
<g id="edge12" class="edge">
<title>http://purl.org/dj/kaggle/simple&#45;linear&#45;stacking&#45;lb&#45;9730/activity/6001991448573323771&#45;&gt;http://purl.org/dj/kaggle/simple&#45;linear&#45;stacking&#45;lb&#45;9730/activity/&#45;5196971418596106231</title>
<path fill="none" stroke="black" d="M2830.48,-179.16C2813.31,-177.31 2795.65,-175.51 2778.99,-174 2351.55,-135.2 1843.26,-116.63 1606.58,-109.56"/>
<polygon fill="black" stroke="black" points="1606.65,-106.06 1596.56,-109.26 1606.45,-113.06 1606.65,-106.06"/>
<text text-anchor="middle" x="2552.49" y="-144.8" font-family="Times,serif" font-size="14.00">previous</text>
</g>
<!-- http://purl.org/dj/kaggle/simple&#45;linear&#45;stacking&#45;lb&#45;9730/activity/6001991448573323771&#45;&gt;http://purl.org/dj/kaggle/simple&#45;linear&#45;stacking&#45;lb&#45;9730 -->
<g id="edge13" class="edge">
<title>http://purl.org/dj/kaggle/simple&#45;linear&#45;stacking&#45;lb&#45;9730/activity/6001991448573323771&#45;&gt;http://purl.org/dj/kaggle/simple&#45;linear&#45;stacking&#45;lb&#45;9730</title>
<path fill="none" stroke="black" d="M2869.13,-175.74C2741.51,-144.24 2449.34,-72.14 2310.27,-37.82"/>
<polygon fill="black" stroke="black" points="2311.07,-34.42 2300.52,-35.42 2309.39,-41.21 2311.07,-34.42"/>
<text text-anchor="middle" x="2674.49" y="-101.3" font-family="Times,serif" font-size="14.00">previous</text>
</g>
<!-- http://purl.org/dj/kaggle/simple&#45;linear&#45;stacking&#45;lb&#45;9730/activity/&#45;6524971860531986329&#45;&gt;http://purl.org/dj/kaggle/simple&#45;linear&#45;stacking&#45;lb&#45;9730/activity/5755765558787823678 -->
<g id="edge14" class="edge">
<title>http://purl.org/dj/kaggle/simple&#45;linear&#45;stacking&#45;lb&#45;9730/activity/&#45;6524971860531986329&#45;&gt;http://purl.org/dj/kaggle/simple&#45;linear&#45;stacking&#45;lb&#45;9730/activity/5755765558787823678</title>
<path fill="none" stroke="black" d="M683.1,-287.51C659.91,-282.34 635.89,-274.85 614.99,-264 603.21,-257.88 579.9,-235.38 562.18,-217.33"/>
<polygon fill="black" stroke="black" points="564.46,-214.65 554.98,-209.92 559.45,-219.53 564.46,-214.65"/>
<text text-anchor="middle" x="638.49" y="-242.3" font-family="Times,serif" font-size="14.00">previous</text>
</g>
<!-- http://purl.org/dj/kaggle/simple&#45;linear&#45;stacking&#45;lb&#45;9730/activity/&#45;6524971860531986329&#45;&gt;http://purl.org/dj/kaggle/simple&#45;linear&#45;stacking&#45;lb&#45;9730/activity/&#45;5196971418596106231 -->
<g id="edge15" class="edge">
<title>http://purl.org/dj/kaggle/simple&#45;linear&#45;stacking&#45;lb&#45;9730/activity/&#45;6524971860531986329&#45;&gt;http://purl.org/dj/kaggle/simple&#45;linear&#45;stacking&#45;lb&#45;9730/activity/&#45;5196971418596106231</title>
<path fill="none" stroke="black" d="M767.43,-281.99C753.94,-265.04 734.83,-237.61 726.99,-210 722.62,-194.61 716.2,-185.82 726.99,-174 767.27,-129.87 1134.15,-114.06 1337.97,-108.65"/>
<polygon fill="black" stroke="black" points="1338.24,-112.14 1348.15,-108.38 1338.06,-105.14 1338.24,-112.14"/>
<text text-anchor="middle" x="750.49" y="-188.3" font-family="Times,serif" font-size="14.00">previous</text>
</g>
<!-- http://purl.org/dj/kaggle/simple&#45;linear&#45;stacking&#45;lb&#45;9730/activity/&#45;6524971860531986329&#45;&gt;http://purl.org/dj/kaggle/simple&#45;linear&#45;stacking&#45;lb&#45;9730/activity/6001991448573323771 -->
<g id="edge16" class="edge">
<title>http://purl.org/dj/kaggle/simple&#45;linear&#45;stacking&#45;lb&#45;9730/activity/&#45;6524971860531986329&#45;&gt;http://purl.org/dj/kaggle/simple&#45;linear&#45;stacking&#45;lb&#45;9730/activity/6001991448573323771</title>
<path fill="none" stroke="black" d="M881.81,-287.76C903.29,-285.61 925.88,-283.55 946.99,-282 992.58,-278.66 1318.39,-286.83 1357.99,-264 1374.44,-254.52 1364.39,-237.23 1380.99,-228 1414.93,-209.12 2740.23,-212.41 2778.99,-210 2793.52,-209.1 2808.81,-207.8 2823.85,-206.32"/>
<polygon fill="black" stroke="black" points="2824.62,-209.76 2834.21,-205.27 2823.91,-202.79 2824.62,-209.76"/>
<text text-anchor="middle" x="1404.49" y="-242.3" font-family="Times,serif" font-size="14.00">previous</text>
</g>
<!-- http://purl.org/dj/kaggle/simple&#45;linear&#45;stacking&#45;lb&#45;9730/activity/&#45;6524971860531986329&#45;&gt;http://purl.org/dj/kaggle/simple&#45;linear&#45;stacking&#45;lb&#45;9730/activity/6895394841011699569 -->
<g id="edge17" class="edge">
<title>http://purl.org/dj/kaggle/simple&#45;linear&#45;stacking&#45;lb&#45;9730/activity/&#45;6524971860531986329&#45;&gt;http://purl.org/dj/kaggle/simple&#45;linear&#45;stacking&#45;lb&#45;9730/activity/6895394841011699569</title>
<path fill="none" stroke="black" d="M681.03,-287.91C632.97,-281.98 574.81,-273.86 522.99,-264 445.87,-249.33 358.48,-226.96 300.4,-211.26"/>
<polygon fill="black" stroke="black" points="301.18,-207.84 290.62,-208.6 299.35,-214.6 301.18,-207.84"/>
<text text-anchor="middle" x="546.49" y="-242.3" font-family="Times,serif" font-size="14.00">previous</text>
</g>
<!-- http://purl.org/dj/kaggle/simple&#45;linear&#45;stacking&#45;lb&#45;9730/activity/&#45;6524971860531986329&#45;&gt;http://purl.org/dj/kaggle/simple&#45;linear&#45;stacking&#45;lb&#45;9730/activity/&#45;6853708030589424039 -->
<g id="edge18" class="edge">
<title>http://purl.org/dj/kaggle/simple&#45;linear&#45;stacking&#45;lb&#45;9730/activity/&#45;6524971860531986329&#45;&gt;http://purl.org/dj/kaggle/simple&#45;linear&#45;stacking&#45;lb&#45;9730/activity/&#45;6853708030589424039</title>
<path fill="none" stroke="black" d="M858.19,-285.09C872.98,-280.07 887.7,-273.25 899.99,-264 915.16,-252.58 906.87,-238.03 922.99,-228 923.26,-227.83 1033.28,-215.63 1123.2,-205.68"/>
<polygon fill="black" stroke="black" points="1123.67,-209.15 1133.23,-204.57 1122.9,-202.2 1123.67,-209.15"/>
<text text-anchor="middle" x="946.49" y="-242.3" font-family="Times,serif" font-size="14.00">previous</text>
</g>
<!-- http://purl.org/dj/kaggle/simple&#45;linear&#45;stacking&#45;lb&#45;9730/activity/&#45;6524971860531986329&#45;&gt;http://purl.org/dj/kaggle/simple&#45;linear&#45;stacking&#45;lb&#45;9730/activity/&#45;1409973279093487852 -->
<g id="edge19" class="edge">
<title>http://purl.org/dj/kaggle/simple&#45;linear&#45;stacking&#45;lb&#45;9730/activity/&#45;6524971860531986329&#45;&gt;http://purl.org/dj/kaggle/simple&#45;linear&#45;stacking&#45;lb&#45;9730/activity/&#45;1409973279093487852</title>
<path fill="none" stroke="black" d="M776.83,-281.84C773.23,-266.1 770.97,-243.02 782.99,-228 789.56,-219.79 806.5,-213.27 826.62,-208.2"/>
<polygon fill="black" stroke="black" points="827.46,-211.6 836.39,-205.9 825.85,-204.79 827.46,-211.6"/>
<text text-anchor="middle" x="806.49" y="-242.3" font-family="Times,serif" font-size="14.00">previous</text>
</g>
<!-- http://purl.org/dj/kaggle/simple&#45;linear&#45;stacking&#45;lb&#45;9730/activity/6895394841011699569&#45;&gt;http://purl.org/dj/kaggle/simple&#45;linear&#45;stacking&#45;lb&#45;9730/activity/&#45;5196971418596106231 -->
<g id="edge20" class="edge">
<title>http://purl.org/dj/kaggle/simple&#45;linear&#45;stacking&#45;lb&#45;9730/activity/6895394841011699569&#45;&gt;http://purl.org/dj/kaggle/simple&#45;linear&#45;stacking&#45;lb&#45;9730/activity/&#45;5196971418596106231</title>
<path fill="none" stroke="black" d="M311.89,-176.77C378.17,-165.1 476.54,-149.22 562.99,-141 836.46,-114.98 1157.91,-108.16 1336.23,-106.46"/>
<polygon fill="black" stroke="black" points="1336.49,-109.96 1346.46,-106.37 1336.42,-102.96 1336.49,-109.96"/>
<text text-anchor="middle" x="586.49" y="-144.8" font-family="Times,serif" font-size="14.00">previous</text>
</g>
<!-- http://purl.org/dj/kaggle/simple&#45;linear&#45;stacking&#45;lb&#45;9730/activity/&#45;6853708030589424039&#45;&gt;http://purl.org/dj/kaggle/simple&#45;linear&#45;stacking&#45;lb&#45;9730/activity/&#45;5196971418596106231 -->
<g id="edge21" class="edge">
<title>http://purl.org/dj/kaggle/simple&#45;linear&#45;stacking&#45;lb&#45;9730/activity/&#45;6853708030589424039&#45;&gt;http://purl.org/dj/kaggle/simple&#45;linear&#45;stacking&#45;lb&#45;9730/activity/&#45;5196971418596106231</title>
<path fill="none" stroke="black" d="M1272.11,-174.44C1294.27,-164.04 1323.96,-150.8 1350.99,-141 1368.2,-134.76 1387.1,-128.88 1404.77,-123.78"/>
<polygon fill="black" stroke="black" points="1405.78,-127.14 1414.44,-121.04 1403.87,-120.4 1405.78,-127.14"/>
<text text-anchor="middle" x="1374.49" y="-144.8" font-family="Times,serif" font-size="14.00">previous</text>
</g>
<!-- http://purl.org/dj/kaggle/simple&#45;linear&#45;stacking&#45;lb&#45;9730/activity/&#45;1409973279093487852&#45;&gt;http://purl.org/dj/kaggle/simple&#45;linear&#45;stacking&#45;lb&#45;9730/activity/&#45;5196971418596106231 -->
<g id="edge22" class="edge">
<title>http://purl.org/dj/kaggle/simple&#45;linear&#45;stacking&#45;lb&#45;9730/activity/&#45;1409973279093487852&#45;&gt;http://purl.org/dj/kaggle/simple&#45;linear&#45;stacking&#45;lb&#45;9730/activity/&#45;5196971418596106231</title>
<path fill="none" stroke="black" d="M1015.49,-177.48C1115.43,-161.87 1279.21,-136.28 1381.3,-120.33"/>
<polygon fill="black" stroke="black" points="1381.95,-123.77 1391.29,-118.77 1380.87,-116.85 1381.95,-123.77"/>
<text text-anchor="middle" x="1257.49" y="-144.8" font-family="Times,serif" font-size="14.00">previous</text>
</g>
<!-- http://purl.org/dj/kaggle/simple&#45;linear&#45;stacking&#45;lb&#45;9730/activity/5829244794076174491 -->
<g id="node11" class="node">
<title>http://purl.org/dj/kaggle/simple&#45;linear&#45;stacking&#45;lb&#45;9730/activity/5829244794076174491</title>
<ellipse fill="none" stroke="black" cx="1703.99" cy="-192" rx="142.97" ry="18"/>
<text text-anchor="middle" x="1703.99" y="-188.3" font-family="Times,serif" font-size="14.00">5829244794076174491 (Preparation)</text>
</g>
<!-- http://purl.org/dj/kaggle/simple&#45;linear&#45;stacking&#45;lb&#45;9730/activity/5829244794076174491&#45;&gt;http://purl.org/dj/kaggle/simple&#45;linear&#45;stacking&#45;lb&#45;9730/activity/&#45;5196971418596106231 -->
<g id="edge23" class="edge">
<title>http://purl.org/dj/kaggle/simple&#45;linear&#45;stacking&#45;lb&#45;9730/activity/5829244794076174491&#45;&gt;http://purl.org/dj/kaggle/simple&#45;linear&#45;stacking&#45;lb&#45;9730/activity/&#45;5196971418596106231</title>
<path fill="none" stroke="black" d="M1659.99,-174.81C1621.82,-160.77 1566.46,-140.4 1525.88,-125.46"/>
<polygon fill="black" stroke="black" points="1527.02,-122.15 1516.42,-121.98 1524.6,-128.72 1527.02,-122.15"/>
<text text-anchor="middle" x="1626.49" y="-144.8" font-family="Times,serif" font-size="14.00">previous</text>
</g>
<!-- http://purl.org/dj/kaggle/simple&#45;linear&#45;stacking&#45;lb&#45;9730/activity/&#45;1079041709341790059 -->
<g id="node12" class="node">
<title>http://purl.org/dj/kaggle/simple&#45;linear&#45;stacking&#45;lb&#45;9730/activity/&#45;1079041709341790059</title>
<ellipse fill="none" stroke="black" cx="2010.99" cy="-300" rx="151.37" ry="18"/>
<text text-anchor="middle" x="2010.99" y="-296.3" font-family="Times,serif" font-size="14.00">&#45;1079041709341790059 (Visualisation)</text>
</g>
<!-- http://purl.org/dj/kaggle/simple&#45;linear&#45;stacking&#45;lb&#45;9730/activity/&#45;1079041709341790059&#45;&gt;http://purl.org/dj/kaggle/simple&#45;linear&#45;stacking&#45;lb&#45;9730/activity/&#45;5196971418596106231 -->
<g id="edge24" class="edge">
<title>http://purl.org/dj/kaggle/simple&#45;linear&#45;stacking&#45;lb&#45;9730/activity/&#45;1079041709341790059&#45;&gt;http://purl.org/dj/kaggle/simple&#45;linear&#45;stacking&#45;lb&#45;9730/activity/&#45;5196971418596106231</title>
<path fill="none" stroke="black" d="M1920.24,-285.54C1778.86,-264.21 1520.48,-223.68 1504.99,-210 1483.25,-190.81 1476.07,-157.24 1473.81,-133.44"/>
<polygon fill="black" stroke="black" points="1477.29,-133 1473.09,-123.28 1470.31,-133.5 1477.29,-133"/>
<text text-anchor="middle" x="1528.49" y="-188.3" font-family="Times,serif" font-size="14.00">previous</text>
</g>
<!-- http://purl.org/dj/kaggle/simple&#45;linear&#45;stacking&#45;lb&#45;9730/activity/&#45;1079041709341790059&#45;&gt;http://purl.org/dj/kaggle/simple&#45;linear&#45;stacking&#45;lb&#45;9730/activity/6001991448573323771 -->
<g id="edge25" class="edge">
<title>http://purl.org/dj/kaggle/simple&#45;linear&#45;stacking&#45;lb&#45;9730/activity/&#45;1079041709341790059&#45;&gt;http://purl.org/dj/kaggle/simple&#45;linear&#45;stacking&#45;lb&#45;9730/activity/6001991448573323771</title>
<path fill="none" stroke="black" d="M2094.48,-284.96C2192.33,-268.97 2359.5,-243.11 2503.99,-228 2625.81,-215.26 2656.98,-220.81 2778.99,-210 2792.5,-208.8 2806.68,-207.41 2820.71,-205.94"/>
<polygon fill="black" stroke="black" points="2821.32,-209.39 2830.89,-204.86 2820.58,-202.43 2821.32,-209.39"/>
<text text-anchor="middle" x="2527.49" y="-242.3" font-family="Times,serif" font-size="14.00">previous</text>
</g>
<!-- http://purl.org/dj/kaggle/simple&#45;linear&#45;stacking&#45;lb&#45;9730/activity/&#45;5795041601284343130 -->
<g id="node13" class="node">
<title>http://purl.org/dj/kaggle/simple&#45;linear&#45;stacking&#45;lb&#45;9730/activity/&#45;5795041601284343130</title>
<ellipse fill="none" stroke="black" cx="2010.99" cy="-192" rx="145.67" ry="18"/>
<text text-anchor="middle" x="2010.99" y="-188.3" font-family="Times,serif" font-size="14.00">&#45;5795041601284343130 (Preparation)</text>
</g>
<!-- http://purl.org/dj/kaggle/simple&#45;linear&#45;stacking&#45;lb&#45;9730/activity/&#45;1079041709341790059&#45;&gt;http://purl.org/dj/kaggle/simple&#45;linear&#45;stacking&#45;lb&#45;9730/activity/&#45;5795041601284343130 -->
<g id="edge26" class="edge">
<title>http://purl.org/dj/kaggle/simple&#45;linear&#45;stacking&#45;lb&#45;9730/activity/&#45;1079041709341790059&#45;&gt;http://purl.org/dj/kaggle/simple&#45;linear&#45;stacking&#45;lb&#45;9730/activity/&#45;5795041601284343130</title>
<path fill="none" stroke="black" d="M2010.99,-281.97C2010.99,-265.38 2010.99,-239.88 2010.99,-220.43"/>
<polygon fill="black" stroke="black" points="2014.49,-220.34 2010.99,-210.34 2007.49,-220.34 2014.49,-220.34"/>
<text text-anchor="middle" x="2034.49" y="-242.3" font-family="Times,serif" font-size="14.00">previous</text>
</g>
<!-- http://purl.org/dj/kaggle/simple&#45;linear&#45;stacking&#45;lb&#45;9730/activity/&#45;5795041601284343130&#45;&gt;http://purl.org/dj/kaggle/simple&#45;linear&#45;stacking&#45;lb&#45;9730/activity/&#45;5196971418596106231 -->
<g id="edge27" class="edge">
<title>http://purl.org/dj/kaggle/simple&#45;linear&#45;stacking&#45;lb&#45;9730/activity/&#45;5795041601284343130&#45;&gt;http://purl.org/dj/kaggle/simple&#45;linear&#45;stacking&#45;lb&#45;9730/activity/&#45;5196971418596106231</title>
<path fill="none" stroke="black" d="M1925.14,-177.44C1826.62,-161.87 1665.68,-136.44 1564.74,-120.5"/>
<polygon fill="black" stroke="black" points="1564.98,-116.99 1554.56,-118.89 1563.89,-123.91 1564.98,-116.99"/>
<text text-anchor="middle" x="1798.49" y="-144.8" font-family="Times,serif" font-size="14.00">previous</text>
</g>
<!-- http://purl.org/dj/kaggle/simple&#45;linear&#45;stacking&#45;lb&#45;9730/activity/&#45;8031070014678714698 -->
<g id="node14" class="node">
<title>http://purl.org/dj/kaggle/simple&#45;linear&#45;stacking&#45;lb&#45;9730/activity/&#45;8031070014678714698</title>
<ellipse fill="none" stroke="black" cx="2319.99" cy="-192" rx="145.67" ry="18"/>
<text text-anchor="middle" x="2319.99" y="-188.3" font-family="Times,serif" font-size="14.00">&#45;8031070014678714698 (Preparation)</text>
</g>
<!-- http://purl.org/dj/kaggle/simple&#45;linear&#45;stacking&#45;lb&#45;9730/activity/&#45;8031070014678714698&#45;&gt;http://purl.org/dj/kaggle/simple&#45;linear&#45;stacking&#45;lb&#45;9730/activity/&#45;5196971418596106231 -->
<g id="edge28" class="edge">
<title>http://purl.org/dj/kaggle/simple&#45;linear&#45;stacking&#45;lb&#45;9730/activity/&#45;8031070014678714698&#45;&gt;http://purl.org/dj/kaggle/simple&#45;linear&#45;stacking&#45;lb&#45;9730/activity/&#45;5196971418596106231</title>
<path fill="none" stroke="black" d="M2216.04,-179.35C2199.31,-177.53 2182.17,-175.69 2165.99,-174 1961.44,-152.68 1722.72,-129.66 1585.58,-116.62"/>
<polygon fill="black" stroke="black" points="1585.76,-113.13 1575.47,-115.66 1585.1,-120.09 1585.76,-113.13"/>
<text text-anchor="middle" x="1999.49" y="-144.8" font-family="Times,serif" font-size="14.00">previous</text>
</g>
<!-- http://purl.org/dj/kaggle/simple&#45;linear&#45;stacking&#45;lb&#45;9730/activity/1517312798971737839 -->
<g id="node15" class="node">
<title>http://purl.org/dj/kaggle/simple&#45;linear&#45;stacking&#45;lb&#45;9730/activity/1517312798971737839</title>
<ellipse fill="none" stroke="black" cx="1157.99" cy="-300" rx="124.28" ry="18"/>
<text text-anchor="middle" x="1157.99" y="-296.3" font-family="Times,serif" font-size="14.00">1517312798971737839 (Reuse)</text>
</g>
<!-- http://purl.org/dj/kaggle/simple&#45;linear&#45;stacking&#45;lb&#45;9730/activity/1517312798971737839&#45;&gt;http://purl.org/dj/kaggle/simple&#45;linear&#45;stacking&#45;lb&#45;9730/activity/5755765558787823678 -->
<g id="edge29" class="edge">
<title>http://purl.org/dj/kaggle/simple&#45;linear&#45;stacking&#45;lb&#45;9730/activity/1517312798971737839&#45;&gt;http://purl.org/dj/kaggle/simple&#45;linear&#45;stacking&#45;lb&#45;9730/activity/5755765558787823678</title>
<path fill="none" stroke="black" d="M1069.73,-287.3C1053.22,-285.35 1036.09,-283.48 1019.99,-282 954.14,-275.95 786.22,-283.34 722.99,-264 692.88,-254.79 690.92,-240.41 661.99,-228 646.78,-221.48 630,-215.79 613.86,-210.99"/>
<polygon fill="black" stroke="black" points="614.48,-207.53 603.91,-208.13 612.55,-214.26 614.48,-207.53"/>
<text text-anchor="middle" x="746.49" y="-242.3" font-family="Times,serif" font-size="14.00">previous</text>
</g>
<!-- http://purl.org/dj/kaggle/simple&#45;linear&#45;stacking&#45;lb&#45;9730/activity/1517312798971737839&#45;&gt;http://purl.org/dj/kaggle/simple&#45;linear&#45;stacking&#45;lb&#45;9730/activity/6001991448573323771 -->
<g id="edge30" class="edge">
<title>http://purl.org/dj/kaggle/simple&#45;linear&#45;stacking&#45;lb&#45;9730/activity/1517312798971737839&#45;&gt;http://purl.org/dj/kaggle/simple&#45;linear&#45;stacking&#45;lb&#45;9730/activity/6001991448573323771</title>
<path fill="none" stroke="black" d="M1258.18,-289.29C1441.87,-271.63 1826,-235.39 1959.99,-228 2323.52,-207.94 2415.71,-234.26 2778.99,-210 2793.3,-209.04 2808.35,-207.73 2823.17,-206.26"/>
<polygon fill="black" stroke="black" points="2823.8,-209.72 2833.39,-205.22 2823.09,-202.75 2823.8,-209.72"/>
<text text-anchor="middle" x="1983.49" y="-242.3" font-family="Times,serif" font-size="14.00">previous</text>
</g>
<!-- http://purl.org/dj/kaggle/simple&#45;linear&#45;stacking&#45;lb&#45;9730/activity/1517312798971737839&#45;&gt;http://purl.org/dj/kaggle/simple&#45;linear&#45;stacking&#45;lb&#45;9730/activity/&#45;6853708030589424039 -->
<g id="edge31" class="edge">
<title>http://purl.org/dj/kaggle/simple&#45;linear&#45;stacking&#45;lb&#45;9730/activity/1517312798971737839&#45;&gt;http://purl.org/dj/kaggle/simple&#45;linear&#45;stacking&#45;lb&#45;9730/activity/&#45;6853708030589424039</title>
<path fill="none" stroke="black" d="M1170.84,-281.97C1183.85,-264.74 1204.1,-237.9 1218.96,-218.21"/>
<polygon fill="black" stroke="black" points="1221.94,-220.08 1225.17,-209.99 1216.35,-215.86 1221.94,-220.08"/>
<text text-anchor="middle" x="1233.49" y="-242.3" font-family="Times,serif" font-size="14.00">previous</text>
</g>
<!-- http://purl.org/dj/kaggle/simple&#45;linear&#45;stacking&#45;lb&#45;9730/activity/1517312798971737839&#45;&gt;http://purl.org/dj/kaggle/simple&#45;linear&#45;stacking&#45;lb&#45;9730/activity/&#45;1409973279093487852 -->
<g id="edge32" class="edge">
<title>http://purl.org/dj/kaggle/simple&#45;linear&#45;stacking&#45;lb&#45;9730/activity/1517312798971737839&#45;&gt;http://purl.org/dj/kaggle/simple&#45;linear&#45;stacking&#45;lb&#45;9730/activity/&#45;1409973279093487852</title>
<path fill="none" stroke="black" d="M1067.45,-287.65C1051.63,-285.72 1035.33,-283.77 1019.99,-282 982.91,-277.72 877.93,-291.77 852.99,-264 842.3,-252.1 844.36,-241.47 852.99,-228 856.3,-222.83 860.59,-218.41 865.45,-214.64"/>
<polygon fill="black" stroke="black" points="867.7,-217.34 874.08,-208.88 863.82,-211.52 867.7,-217.34"/>
<text text-anchor="middle" x="876.49" y="-242.3" font-family="Times,serif" font-size="14.00">previous</text>
</g>
<!-- http://purl.org/dj/kaggle/simple&#45;linear&#45;stacking&#45;lb&#45;9730/activity/3258791003506203707 -->
<g id="node16" class="node">
<title>http://purl.org/dj/kaggle/simple&#45;linear&#45;stacking&#45;lb&#45;9730/activity/3258791003506203707</title>
<ellipse fill="none" stroke="black" cx="2626.99" cy="-192" rx="142.97" ry="18"/>
<text text-anchor="middle" x="2626.99" y="-188.3" font-family="Times,serif" font-size="14.00">3258791003506203707 (Preparation)</text>
</g>
<!-- http://purl.org/dj/kaggle/simple&#45;linear&#45;stacking&#45;lb&#45;9730/activity/3258791003506203707&#45;&gt;http://purl.org/dj/kaggle/simple&#45;linear&#45;stacking&#45;lb&#45;9730/activity/&#45;5196971418596106231 -->
<g id="edge33" class="edge">
<title>http://purl.org/dj/kaggle/simple&#45;linear&#45;stacking&#45;lb&#45;9730/activity/3258791003506203707&#45;&gt;http://purl.org/dj/kaggle/simple&#45;linear&#45;stacking&#45;lb&#45;9730/activity/&#45;5196971418596106231</title>
<path fill="none" stroke="black" d="M2526.07,-179.17C2509.03,-177.33 2491.51,-175.53 2474.99,-174 2160.94,-144.88 1790.43,-122.96 1600.04,-112.61"/>
<polygon fill="black" stroke="black" points="1600.17,-109.11 1589.99,-112.06 1599.79,-116.1 1600.17,-109.11"/>
<text text-anchor="middle" x="2278.49" y="-144.8" font-family="Times,serif" font-size="14.00">previous</text>
</g>
<!-- http://purl.org/dj/kaggle/simple&#45;linear&#45;stacking&#45;lb&#45;9730/activity/&#45;9164047556620341078 -->
<g id="node17" class="node">
<title>http://purl.org/dj/kaggle/simple&#45;linear&#45;stacking&#45;lb&#45;9730/activity/&#45;9164047556620341078</title>
<ellipse fill="none" stroke="black" cx="2239.99" cy="-387" rx="145.67" ry="18"/>
<text text-anchor="middle" x="2239.99" y="-383.3" font-family="Times,serif" font-size="14.00">&#45;9164047556620341078 (Preparation)</text>
</g>
<!-- http://purl.org/dj/kaggle/simple&#45;linear&#45;stacking&#45;lb&#45;9730/activity/&#45;9164047556620341078&#45;&gt;http://purl.org/dj/kaggle/simple&#45;linear&#45;stacking&#45;lb&#45;9730/activity/&#45;5196971418596106231 -->
<g id="edge34" class="edge">
<title>http://purl.org/dj/kaggle/simple&#45;linear&#45;stacking&#45;lb&#45;9730/activity/&#45;9164047556620341078&#45;&gt;http://purl.org/dj/kaggle/simple&#45;linear&#45;stacking&#45;lb&#45;9730/activity/&#45;5196971418596106231</title>
<path fill="none" stroke="black" d="M2355.78,-376.04C2610.01,-352.01 3186.47,-284.49 3082.99,-174 3057.87,-147.18 1989.08,-118.57 1607.02,-109.18"/>
<polygon fill="black" stroke="black" points="1606.83,-105.68 1596.75,-108.93 1606.66,-112.67 1606.83,-105.68"/>
<text text-anchor="middle" x="3102.49" y="-242.3" font-family="Times,serif" font-size="14.00">previous</text>
</g>
<!-- http://purl.org/dj/kaggle/simple&#45;linear&#45;stacking&#45;lb&#45;9730/activity/&#45;9164047556620341078&#45;&gt;http://purl.org/dj/kaggle/simple&#45;linear&#45;stacking&#45;lb&#45;9730/activity/1517312798971737839 -->
<g id="edge35" class="edge">
<title>http://purl.org/dj/kaggle/simple&#45;linear&#45;stacking&#45;lb&#45;9730/activity/&#45;9164047556620341078&#45;&gt;http://purl.org/dj/kaggle/simple&#45;linear&#45;stacking&#45;lb&#45;9730/activity/1517312798971737839</title>
<path fill="none" stroke="black" d="M2120.84,-376.64C1911.69,-360.21 1481.11,-326.38 1274.11,-310.12"/>
<polygon fill="black" stroke="black" points="1274.37,-306.63 1264.12,-309.34 1273.82,-313.61 1274.37,-306.63"/>
<text text-anchor="middle" x="1787.49" y="-339.8" font-family="Times,serif" font-size="14.00">previous</text>
</g>
<!-- http://purl.org/dj/kaggle/simple&#45;linear&#45;stacking&#45;lb&#45;9730/activity/1611638489283562292 -->
<g id="node18" class="node">
<title>http://purl.org/dj/kaggle/simple&#45;linear&#45;stacking&#45;lb&#45;9730/activity/1611638489283562292</title>
<ellipse fill="none" stroke="black" cx="1060.99" cy="-387" rx="142.97" ry="18"/>
<text text-anchor="middle" x="1060.99" y="-383.3" font-family="Times,serif" font-size="14.00">1611638489283562292 (Preparation)</text>
</g>
<!-- http://purl.org/dj/kaggle/simple&#45;linear&#45;stacking&#45;lb&#45;9730/activity/1611638489283562292&#45;&gt;http://purl.org/dj/kaggle/simple&#45;linear&#45;stacking&#45;lb&#45;9730/activity/&#45;5196971418596106231 -->
<g id="edge36" class="edge">
<title>http://purl.org/dj/kaggle/simple&#45;linear&#45;stacking&#45;lb&#45;9730/activity/1611638489283562292&#45;&gt;http://purl.org/dj/kaggle/simple&#45;linear&#45;stacking&#45;lb&#45;9730/activity/&#45;5196971418596106231</title>
<path fill="none" stroke="black" d="M1197.04,-381.37C1297.05,-376.62 1418.49,-367.53 1435.99,-351 1451.7,-336.16 1465.54,-193.68 1470.77,-133.07"/>
<polygon fill="black" stroke="black" points="1474.26,-133.34 1471.62,-123.08 1467.28,-132.75 1474.26,-133.34"/>
<text text-anchor="middle" x="1485.49" y="-242.3" font-family="Times,serif" font-size="14.00">previous</text>
</g>
<!-- http://purl.org/dj/kaggle/simple&#45;linear&#45;stacking&#45;lb&#45;9730/activity/1611638489283562292&#45;&gt;http://purl.org/dj/kaggle/simple&#45;linear&#45;stacking&#45;lb&#45;9730/activity/&#45;6524971860531986329 -->
<g id="edge37" class="edge">
<title>http://purl.org/dj/kaggle/simple&#45;linear&#45;stacking&#45;lb&#45;9730/activity/1611638489283562292&#45;&gt;http://purl.org/dj/kaggle/simple&#45;linear&#45;stacking&#45;lb&#45;9730/activity/&#45;6524971860531986329</title>
<path fill="none" stroke="black" d="M1009.16,-370.21C962.18,-355.9 892.89,-334.79 843.2,-319.65"/>
<polygon fill="black" stroke="black" points="844.12,-316.27 833.53,-316.7 842.08,-322.97 844.12,-316.27"/>
<text text-anchor="middle" x="962.49" y="-339.8" font-family="Times,serif" font-size="14.00">previous</text>
</g>
</g>
</svg>
