<?xml version="1.0" encoding="UTF-8" standalone="no"?>
<!DOCTYPE svg PUBLIC "-//W3C//DTD SVG 1.1//EN"
 "http://www.w3.org/Graphics/SVG/1.1/DTD/svg11.dtd">
<!-- Generated by graphviz version 2.44.1 (20200629.0846)
 -->
<!-- Pages: 1 -->
<svg width="4918pt" height="305pt"
 viewBox="0.00 0.00 4917.68 305.00" xmlns="http://www.w3.org/2000/svg" xmlns:xlink="http://www.w3.org/1999/xlink">
<g id="graph0" class="graph" transform="scale(1 1) rotate(0) translate(4 301)">
<polygon fill="white" stroke="transparent" points="-4,4 -4,-301 4913.68,-301 4913.68,4 -4,4"/>
<!-- http://purl.org/dj/kaggle/spell&#45;checker&#45;using&#45;word2vec#165478946 -->
<g id="node1" class="node">
<title>http://purl.org/dj/kaggle/spell&#45;checker&#45;using&#45;word2vec#165478946</title>
<ellipse fill="none" stroke="black" cx="111.79" cy="-105" rx="111.58" ry="18"/>
<text text-anchor="middle" x="111.79" y="-101.3" font-family="Times,serif" font-size="14.00">165478946 (True(0): Reuse)</text>
</g>
<!-- http://purl.org/dj/kaggle/spell&#45;checker&#45;using&#45;word2vec -->
<g id="node2" class="node">
<title>http://purl.org/dj/kaggle/spell&#45;checker&#45;using&#45;word2vec</title>
<ellipse fill="none" stroke="black" cx="2425.79" cy="-18" rx="116.98" ry="18"/>
<text text-anchor="middle" x="2425.79" y="-14.3" font-family="Times,serif" font-size="14.00">spell&#45;checker&#45;using&#45;word2vec</text>
</g>
<!-- http://purl.org/dj/kaggle/spell&#45;checker&#45;using&#45;word2vec#165478946&#45;&gt;http://purl.org/dj/kaggle/spell&#45;checker&#45;using&#45;word2vec -->
<g id="edge1" class="edge">
<title>http://purl.org/dj/kaggle/spell&#45;checker&#45;using&#45;word2vec#165478946&#45;&gt;http://purl.org/dj/kaggle/spell&#45;checker&#45;using&#45;word2vec</title>
<path fill="none" stroke="black" d="M170.27,-89.64C222.28,-77.6 300.59,-61.24 369.79,-54 560.64,-34.04 1881.14,-22.92 2299.18,-19.87"/>
<polygon fill="black" stroke="black" points="2299.21,-23.37 2309.19,-19.8 2299.16,-16.37 2299.21,-23.37"/>
<text text-anchor="middle" x="393.29" y="-57.8" font-family="Times,serif" font-size="14.00">previous</text>
</g>
<!-- http://purl.org/dj/kaggle/spell&#45;checker&#45;using&#45;word2vec#291963652 -->
<g id="node3" class="node">
<title>http://purl.org/dj/kaggle/spell&#45;checker&#45;using&#45;word2vec#291963652</title>
<ellipse fill="none" stroke="black" cx="362.79" cy="-105" rx="121.58" ry="18"/>
<text text-anchor="middle" x="362.79" y="-101.3" font-family="Times,serif" font-size="14.00">291963652 (w_rank(0): Reuse)</text>
</g>
<!-- http://purl.org/dj/kaggle/spell&#45;checker&#45;using&#45;word2vec#291963652&#45;&gt;http://purl.org/dj/kaggle/spell&#45;checker&#45;using&#45;word2vec -->
<g id="edge2" class="edge">
<title>http://purl.org/dj/kaggle/spell&#45;checker&#45;using&#45;word2vec#291963652&#45;&gt;http://purl.org/dj/kaggle/spell&#45;checker&#45;using&#45;word2vec</title>
<path fill="none" stroke="black" d="M387.45,-87.24C406.33,-75.45 433.52,-60.62 459.79,-54 548.86,-31.55 1878.09,-22.11 2298.98,-19.67"/>
<polygon fill="black" stroke="black" points="2299.08,-23.17 2309.06,-19.61 2299.04,-16.17 2299.08,-23.17"/>
<text text-anchor="middle" x="483.29" y="-57.8" font-family="Times,serif" font-size="14.00">previous</text>
</g>
<!-- http://purl.org/dj/kaggle/spell&#45;checker&#45;using&#45;word2vec#80085334 -->
<g id="node4" class="node">
<title>http://purl.org/dj/kaggle/spell&#45;checker&#45;using&#45;word2vec#80085334</title>
<ellipse fill="none" stroke="black" cx="607.79" cy="-192" rx="108.58" ry="18"/>
<text text-anchor="middle" x="607.79" y="-188.3" font-family="Times,serif" font-size="14.00">80085334 (pd(0): Analysis)</text>
</g>
<!-- http://purl.org/dj/kaggle/spell&#45;checker&#45;using&#45;word2vec#80085334&#45;&gt;http://purl.org/dj/kaggle/spell&#45;checker&#45;using&#45;word2vec -->
<g id="edge3" class="edge">
<title>http://purl.org/dj/kaggle/spell&#45;checker&#45;using&#45;word2vec#80085334&#45;&gt;http://purl.org/dj/kaggle/spell&#45;checker&#45;using&#45;word2vec</title>
<path fill="none" stroke="black" d="M580.23,-174.47C548.69,-153.52 504.48,-116.58 529.79,-87 587.28,-19.82 1882.71,-17.5 2298.54,-18.5"/>
<polygon fill="black" stroke="black" points="2298.78,-22 2308.79,-18.52 2298.8,-15 2298.78,-22"/>
<text text-anchor="middle" x="553.29" y="-101.3" font-family="Times,serif" font-size="14.00">previous</text>
</g>
<!-- http://purl.org/dj/python/lib/144966264 -->
<g id="node5" class="node">
<title>http://purl.org/dj/python/lib/144966264</title>
<ellipse fill="none" stroke="black" cx="694.79" cy="-105" rx="109.38" ry="18"/>
<text text-anchor="middle" x="694.79" y="-101.3" font-family="Times,serif" font-size="14.00">144966264 (pandas: Reuse)</text>
</g>
<!-- http://purl.org/dj/kaggle/spell&#45;checker&#45;using&#45;word2vec#80085334&#45;&gt;http://purl.org/dj/python/lib/144966264 -->
<g id="edge4" class="edge">
<title>http://purl.org/dj/kaggle/spell&#45;checker&#45;using&#45;word2vec#80085334&#45;&gt;http://purl.org/dj/python/lib/144966264</title>
<path fill="none" stroke="black" d="M624.98,-174.21C637.88,-161.6 655.73,-144.16 670.16,-130.07"/>
<polygon fill="black" stroke="black" points="672.63,-132.54 677.34,-123.05 667.74,-127.53 672.63,-132.54"/>
<text text-anchor="middle" x="680.29" y="-144.8" font-family="Times,serif" font-size="14.00">previous</text>
</g>
<!-- http://purl.org/dj/python/lib/144966264&#45;&gt;http://purl.org/dj/kaggle/spell&#45;checker&#45;using&#45;word2vec -->
<g id="edge5" class="edge">
<title>http://purl.org/dj/python/lib/144966264&#45;&gt;http://purl.org/dj/kaggle/spell&#45;checker&#45;using&#45;word2vec</title>
<path fill="none" stroke="black" d="M715.8,-87.28C731.98,-75.5 755.46,-60.69 778.79,-54 851.39,-33.19 1925.81,-22.89 2299.12,-19.93"/>
<polygon fill="black" stroke="black" points="2299.18,-23.43 2309.15,-19.85 2299.13,-16.43 2299.18,-23.43"/>
<text text-anchor="middle" x="802.29" y="-57.8" font-family="Times,serif" font-size="14.00">previous</text>
</g>
<!-- http://purl.org/dj/kaggle/spell&#45;checker&#45;using&#45;word2vec#347276130 -->
<g id="node6" class="node">
<title>http://purl.org/dj/kaggle/spell&#45;checker&#45;using&#45;word2vec#347276130</title>
<ellipse fill="none" stroke="black" cx="908.79" cy="-192" rx="131.88" ry="18"/>
<text text-anchor="middle" x="908.79" y="-188.3" font-family="Times,serif" font-size="14.00">347276130 (Counter(0): Analysis)</text>
</g>
<!-- http://purl.org/dj/kaggle/spell&#45;checker&#45;using&#45;word2vec#347276130&#45;&gt;http://purl.org/dj/kaggle/spell&#45;checker&#45;using&#45;word2vec -->
<g id="edge6" class="edge">
<title>http://purl.org/dj/kaggle/spell&#45;checker&#45;using&#45;word2vec#347276130&#45;&gt;http://purl.org/dj/kaggle/spell&#45;checker&#45;using&#45;word2vec</title>
<path fill="none" stroke="black" d="M886.61,-173.95C860.58,-151.96 823.92,-113.41 848.79,-87 898.23,-34.5 1932.89,-22.36 2298.88,-19.7"/>
<polygon fill="black" stroke="black" points="2299.01,-23.2 2308.99,-19.63 2298.96,-16.2 2299.01,-23.2"/>
<text text-anchor="middle" x="872.29" y="-101.3" font-family="Times,serif" font-size="14.00">previous</text>
</g>
<!-- http://purl.org/dj/python/lib/459736224 -->
<g id="node7" class="node">
<title>http://purl.org/dj/python/lib/459736224</title>
<ellipse fill="none" stroke="black" cx="1027.79" cy="-105" rx="122.68" ry="18"/>
<text text-anchor="middle" x="1027.79" y="-101.3" font-family="Times,serif" font-size="14.00">459736224 (collections: Reuse)</text>
</g>
<!-- http://purl.org/dj/kaggle/spell&#45;checker&#45;using&#45;word2vec#347276130&#45;&gt;http://purl.org/dj/python/lib/459736224 -->
<g id="edge7" class="edge">
<title>http://purl.org/dj/kaggle/spell&#45;checker&#45;using&#45;word2vec#347276130&#45;&gt;http://purl.org/dj/python/lib/459736224</title>
<path fill="none" stroke="black" d="M932.3,-174.21C950.56,-161.17 976.05,-142.96 996.1,-128.63"/>
<polygon fill="black" stroke="black" points="998.23,-131.42 1004.33,-122.76 994.16,-125.72 998.23,-131.42"/>
<text text-anchor="middle" x="999.29" y="-144.8" font-family="Times,serif" font-size="14.00">previous</text>
</g>
<!-- http://purl.org/dj/python/lib/459736224&#45;&gt;http://purl.org/dj/kaggle/spell&#45;checker&#45;using&#45;word2vec -->
<g id="edge8" class="edge">
<title>http://purl.org/dj/python/lib/459736224&#45;&gt;http://purl.org/dj/kaggle/spell&#45;checker&#45;using&#45;word2vec</title>
<path fill="none" stroke="black" d="M1113.25,-92.05C1128.72,-90.16 1144.72,-88.37 1159.79,-87 1577.52,-48.94 2074.88,-29.86 2301.83,-22.6"/>
<polygon fill="black" stroke="black" points="2302.22,-26.09 2312.1,-22.27 2302,-19.09 2302.22,-26.09"/>
<text text-anchor="middle" x="1601.29" y="-57.8" font-family="Times,serif" font-size="14.00">previous</text>
</g>
<!-- http://purl.org/dj/kaggle/spell&#45;checker&#45;using&#45;word2vec#2644643980 -->
<g id="node8" class="node">
<title>http://purl.org/dj/kaggle/spell&#45;checker&#45;using&#45;word2vec#2644643980</title>
<ellipse fill="none" stroke="black" cx="1436.79" cy="-105" rx="268.35" ry="18"/>
<text text-anchor="middle" x="1436.79" y="-101.3" font-family="Times,serif" font-size="14.00">2644643980 (../data/GoogleNews&#45;vectors&#45;negative300.bin.gz(0): Reuse)</text>
</g>
<!-- http://purl.org/dj/kaggle/spell&#45;checker&#45;using&#45;word2vec#2644643980&#45;&gt;http://purl.org/dj/kaggle/spell&#45;checker&#45;using&#45;word2vec -->
<g id="edge9" class="edge">
<title>http://purl.org/dj/kaggle/spell&#45;checker&#45;using&#45;word2vec#2644643980&#45;&gt;http://purl.org/dj/kaggle/spell&#45;checker&#45;using&#45;word2vec</title>
<path fill="none" stroke="black" d="M1594.59,-90.44C1796.54,-73.08 2141.18,-43.46 2316.45,-28.4"/>
<polygon fill="black" stroke="black" points="2316.8,-31.88 2326.47,-27.54 2316.2,-24.91 2316.8,-31.88"/>
<text text-anchor="middle" x="2014.29" y="-57.8" font-family="Times,serif" font-size="14.00">previous</text>
</g>
<!-- http://purl.org/dj/kaggle/spell&#45;checker&#45;using&#45;word2vec#525206600 -->
<g id="node9" class="node">
<title>http://purl.org/dj/kaggle/spell&#45;checker&#45;using&#45;word2vec#525206600</title>
<ellipse fill="none" stroke="black" cx="1854.79" cy="-105" rx="131.88" ry="18"/>
<text text-anchor="middle" x="1854.79" y="-101.3" font-family="Times,serif" font-size="14.00">525206600 (enumerate(0): Reuse)</text>
</g>
<!-- http://purl.org/dj/kaggle/spell&#45;checker&#45;using&#45;word2vec#525206600&#45;&gt;http://purl.org/dj/kaggle/spell&#45;checker&#45;using&#45;word2vec -->
<g id="edge10" class="edge">
<title>http://purl.org/dj/kaggle/spell&#45;checker&#45;using&#45;word2vec#525206600&#45;&gt;http://purl.org/dj/kaggle/spell&#45;checker&#45;using&#45;word2vec</title>
<path fill="none" stroke="black" d="M1940.27,-91.27C2046.32,-75.49 2226.35,-48.69 2334.86,-32.54"/>
<polygon fill="black" stroke="black" points="2335.43,-35.99 2344.81,-31.05 2334.4,-29.07 2335.43,-35.99"/>
<text text-anchor="middle" x="2198.29" y="-57.8" font-family="Times,serif" font-size="14.00">previous</text>
</g>
<!-- http://purl.org/dj/kaggle/spell&#45;checker&#45;using&#45;word2vec#44630251 -->
<g id="node10" class="node">
<title>http://purl.org/dj/kaggle/spell&#45;checker&#45;using&#45;word2vec#44630251</title>
<ellipse fill="none" stroke="black" cx="2097.79" cy="-105" rx="92.88" ry="18"/>
<text text-anchor="middle" x="2097.79" y="-101.3" font-family="Times,serif" font-size="14.00">44630251 (i(0): Reuse)</text>
</g>
<!-- http://purl.org/dj/kaggle/spell&#45;checker&#45;using&#45;word2vec#44630251&#45;&gt;http://purl.org/dj/kaggle/spell&#45;checker&#45;using&#45;word2vec -->
<g id="edge11" class="edge">
<title>http://purl.org/dj/kaggle/spell&#45;checker&#45;using&#45;word2vec#44630251&#45;&gt;http://purl.org/dj/kaggle/spell&#45;checker&#45;using&#45;word2vec</title>
<path fill="none" stroke="black" d="M2151.22,-90.15C2207.88,-75.47 2297.5,-52.25 2358.83,-36.35"/>
<polygon fill="black" stroke="black" points="2360,-39.66 2368.8,-33.77 2358.24,-32.89 2360,-39.66"/>
<text text-anchor="middle" x="2305.29" y="-57.8" font-family="Times,serif" font-size="14.00">previous</text>
</g>
<!-- http://purl.org/dj/kaggle/spell&#45;checker&#45;using&#45;word2vec#249824024 -->
<g id="node11" class="node">
<title>http://purl.org/dj/kaggle/spell&#45;checker&#45;using&#45;word2vec#249824024</title>
<ellipse fill="none" stroke="black" cx="2317.79" cy="-192" rx="136.48" ry="18"/>
<text text-anchor="middle" x="2317.79" y="-188.3" font-family="Times,serif" font-size="14.00">249824024 (print[2]: Visualisation)</text>
</g>
<!-- http://purl.org/dj/kaggle/spell&#45;checker&#45;using&#45;word2vec#164692489 -->
<g id="node12" class="node">
<title>http://purl.org/dj/kaggle/spell&#45;checker&#45;using&#45;word2vec#164692489</title>
<ellipse fill="none" stroke="black" cx="2317.79" cy="-105" rx="109.38" ry="18"/>
<text text-anchor="middle" x="2317.79" y="-101.3" font-family="Times,serif" font-size="14.00">164692489 (utf8(0): Reuse)</text>
</g>
<!-- http://purl.org/dj/kaggle/spell&#45;checker&#45;using&#45;word2vec#249824024&#45;&gt;http://purl.org/dj/kaggle/spell&#45;checker&#45;using&#45;word2vec#164692489 -->
<g id="edge12" class="edge">
<title>http://purl.org/dj/kaggle/spell&#45;checker&#45;using&#45;word2vec#249824024&#45;&gt;http://purl.org/dj/kaggle/spell&#45;checker&#45;using&#45;word2vec#164692489</title>
<path fill="none" stroke="black" d="M2317.79,-173.8C2317.79,-162.16 2317.79,-146.55 2317.79,-133.24"/>
<polygon fill="black" stroke="black" points="2321.29,-133.18 2317.79,-123.18 2314.29,-133.18 2321.29,-133.18"/>
<text text-anchor="middle" x="2341.29" y="-144.8" font-family="Times,serif" font-size="14.00">previous</text>
</g>
<!-- http://purl.org/dj/kaggle/spell&#45;checker&#45;using&#45;word2vec#164692489&#45;&gt;http://purl.org/dj/kaggle/spell&#45;checker&#45;using&#45;word2vec -->
<g id="edge13" class="edge">
<title>http://purl.org/dj/kaggle/spell&#45;checker&#45;using&#45;word2vec#164692489&#45;&gt;http://purl.org/dj/kaggle/spell&#45;checker&#45;using&#45;word2vec</title>
<path fill="none" stroke="black" d="M2339.13,-87.21C2355.55,-74.28 2378.42,-56.28 2396.54,-42.02"/>
<polygon fill="black" stroke="black" points="2398.8,-44.69 2404.5,-35.76 2394.47,-39.19 2398.8,-44.69"/>
<text text-anchor="middle" x="2402.29" y="-57.8" font-family="Times,serif" font-size="14.00">previous</text>
</g>
<!-- http://purl.org/dj/kaggle/spell&#45;checker&#45;using&#45;word2vec#81002841 -->
<g id="node13" class="node">
<title>http://purl.org/dj/kaggle/spell&#45;checker&#45;using&#45;word2vec#81002841</title>
<ellipse fill="none" stroke="black" cx="2587.79" cy="-192" rx="106.68" ry="18"/>
<text text-anchor="middle" x="2587.79" y="-188.3" font-family="Times,serif" font-size="14.00">81002841 (re(0): Analysis)</text>
</g>
<!-- http://purl.org/dj/kaggle/spell&#45;checker&#45;using&#45;word2vec#81002841&#45;&gt;http://purl.org/dj/kaggle/spell&#45;checker&#45;using&#45;word2vec -->
<g id="edge14" class="edge">
<title>http://purl.org/dj/kaggle/spell&#45;checker&#45;using&#45;word2vec#81002841&#45;&gt;http://purl.org/dj/kaggle/spell&#45;checker&#45;using&#45;word2vec</title>
<path fill="none" stroke="black" d="M2548.05,-175.29C2523.42,-163.88 2492.62,-146.34 2471.79,-123 2451.96,-100.77 2439.52,-68.62 2432.66,-45.96"/>
<polygon fill="black" stroke="black" points="2436,-44.94 2429.89,-36.29 2429.27,-46.86 2436,-44.94"/>
<text text-anchor="middle" x="2495.29" y="-101.3" font-family="Times,serif" font-size="14.00">previous</text>
</g>
<!-- http://purl.org/dj/python/lib/21692632 -->
<g id="node14" class="node">
<title>http://purl.org/dj/python/lib/21692632</title>
<ellipse fill="none" stroke="black" cx="2614.79" cy="-105" rx="87.18" ry="18"/>
<text text-anchor="middle" x="2614.79" y="-101.3" font-family="Times,serif" font-size="14.00">21692632 (re: Reuse)</text>
</g>
<!-- http://purl.org/dj/kaggle/spell&#45;checker&#45;using&#45;word2vec#81002841&#45;&gt;http://purl.org/dj/python/lib/21692632 -->
<g id="edge15" class="edge">
<title>http://purl.org/dj/kaggle/spell&#45;checker&#45;using&#45;word2vec#81002841&#45;&gt;http://purl.org/dj/python/lib/21692632</title>
<path fill="none" stroke="black" d="M2593.25,-173.8C2596.99,-162.05 2602.01,-146.24 2606.26,-132.84"/>
<polygon fill="black" stroke="black" points="2609.64,-133.77 2609.33,-123.18 2602.97,-131.65 2609.64,-133.77"/>
<text text-anchor="middle" x="2627.29" y="-144.8" font-family="Times,serif" font-size="14.00">previous</text>
</g>
<!-- http://purl.org/dj/python/lib/21692632&#45;&gt;http://purl.org/dj/kaggle/spell&#45;checker&#45;using&#45;word2vec -->
<g id="edge16" class="edge">
<title>http://purl.org/dj/python/lib/21692632&#45;&gt;http://purl.org/dj/kaggle/spell&#45;checker&#45;using&#45;word2vec</title>
<path fill="none" stroke="black" d="M2580.12,-88.41C2549.44,-74.61 2504.46,-54.38 2470.96,-39.32"/>
<polygon fill="black" stroke="black" points="2472.4,-36.12 2461.84,-35.21 2469.53,-42.51 2472.4,-36.12"/>
<text text-anchor="middle" x="2555.29" y="-57.8" font-family="Times,serif" font-size="14.00">previous</text>
</g>
<!-- http://purl.org/dj/kaggle/spell&#45;checker&#45;using&#45;word2vec#806684048 -->
<g id="node15" class="node">
<title>http://purl.org/dj/kaggle/spell&#45;checker&#45;using&#45;word2vec#806684048</title>
<ellipse fill="none" stroke="black" cx="2879.79" cy="-192" rx="151.37" ry="18"/>
<text text-anchor="middle" x="2879.79" y="-188.3" font-family="Times,serif" font-size="14.00">806684048 (check_output(0): Analysis)</text>
</g>
<!-- http://purl.org/dj/kaggle/spell&#45;checker&#45;using&#45;word2vec#806684048&#45;&gt;http://purl.org/dj/kaggle/spell&#45;checker&#45;using&#45;word2vec -->
<g id="edge17" class="edge">
<title>http://purl.org/dj/kaggle/spell&#45;checker&#45;using&#45;word2vec#806684048&#45;&gt;http://purl.org/dj/kaggle/spell&#45;checker&#45;using&#45;word2vec</title>
<path fill="none" stroke="black" d="M2839.81,-174.53C2812.38,-162.3 2775.83,-144.13 2746.79,-123 2728.49,-109.69 2730.44,-98.22 2710.79,-87 2656.31,-55.89 2588.16,-38.97 2532.17,-29.79"/>
<polygon fill="black" stroke="black" points="2532.65,-26.32 2522.22,-28.22 2531.55,-33.24 2532.65,-26.32"/>
<text text-anchor="middle" x="2770.29" y="-101.3" font-family="Times,serif" font-size="14.00">previous</text>
</g>
<!-- http://purl.org/dj/python/lib/397411402 -->
<g id="node16" class="node">
<title>http://purl.org/dj/python/lib/397411402</title>
<ellipse fill="none" stroke="black" cx="2925.79" cy="-105" rx="123.48" ry="18"/>
<text text-anchor="middle" x="2925.79" y="-101.3" font-family="Times,serif" font-size="14.00">397411402 (subprocess: Reuse)</text>
</g>
<!-- http://purl.org/dj/kaggle/spell&#45;checker&#45;using&#45;word2vec#806684048&#45;&gt;http://purl.org/dj/python/lib/397411402 -->
<g id="edge18" class="edge">
<title>http://purl.org/dj/kaggle/spell&#45;checker&#45;using&#45;word2vec#806684048&#45;&gt;http://purl.org/dj/python/lib/397411402</title>
<path fill="none" stroke="black" d="M2889.1,-173.8C2895.58,-161.82 2904.35,-145.62 2911.69,-132.06"/>
<polygon fill="black" stroke="black" points="2914.81,-133.64 2916.5,-123.18 2908.66,-130.3 2914.81,-133.64"/>
<text text-anchor="middle" x="2929.29" y="-144.8" font-family="Times,serif" font-size="14.00">previous</text>
</g>
<!-- http://purl.org/dj/python/lib/397411402&#45;&gt;http://purl.org/dj/kaggle/spell&#45;checker&#45;using&#45;word2vec -->
<g id="edge19" class="edge">
<title>http://purl.org/dj/python/lib/397411402&#45;&gt;http://purl.org/dj/kaggle/spell&#45;checker&#45;using&#45;word2vec</title>
<path fill="none" stroke="black" d="M2879.43,-88.31C2844.68,-77.12 2795.74,-62.61 2751.79,-54 2682.87,-40.5 2604.66,-31.89 2542.12,-26.58"/>
<polygon fill="black" stroke="black" points="2542.08,-23.06 2531.82,-25.72 2541.5,-30.04 2542.08,-23.06"/>
<text text-anchor="middle" x="2838.29" y="-57.8" font-family="Times,serif" font-size="14.00">previous</text>
</g>
<!-- http://purl.org/dj/kaggle/spell&#45;checker&#45;using&#45;word2vec#179110462 -->
<g id="node17" class="node">
<title>http://purl.org/dj/kaggle/spell&#45;checker&#45;using&#45;word2vec#179110462</title>
<ellipse fill="none" stroke="black" cx="3180.79" cy="-105" rx="113.18" ry="18"/>
<text text-anchor="middle" x="3180.79" y="-101.3" font-family="Times,serif" font-size="14.00">179110462 (word(0): Reuse)</text>
</g>
<!-- http://purl.org/dj/kaggle/spell&#45;checker&#45;using&#45;word2vec#179110462&#45;&gt;http://purl.org/dj/kaggle/spell&#45;checker&#45;using&#45;word2vec -->
<g id="edge20" class="edge">
<title>http://purl.org/dj/kaggle/spell&#45;checker&#45;using&#45;word2vec#179110462&#45;&gt;http://purl.org/dj/kaggle/spell&#45;checker&#45;using&#45;word2vec</title>
<path fill="none" stroke="black" d="M3109.39,-91.04C3045.69,-79.86 2949.78,-63.99 2865.79,-54 2756.8,-41.04 2632.04,-31.62 2543.26,-25.84"/>
<polygon fill="black" stroke="black" points="2543.37,-22.34 2533.16,-25.19 2542.92,-29.33 2543.37,-22.34"/>
<text text-anchor="middle" x="2994.29" y="-57.8" font-family="Times,serif" font-size="14.00">previous</text>
</g>
<!-- http://purl.org/dj/python/lib/111084090 -->
<g id="node18" class="node">
<title>http://purl.org/dj/python/lib/111084090</title>
<ellipse fill="none" stroke="black" cx="3504.79" cy="-105" rx="109.68" ry="18"/>
<text text-anchor="middle" x="3504.79" y="-101.3" font-family="Times,serif" font-size="14.00">111084090 (numpy: Reuse)</text>
</g>
<!-- http://purl.org/dj/python/lib/111084090&#45;&gt;http://purl.org/dj/kaggle/spell&#45;checker&#45;using&#45;word2vec -->
<g id="edge21" class="edge">
<title>http://purl.org/dj/python/lib/111084090&#45;&gt;http://purl.org/dj/kaggle/spell&#45;checker&#45;using&#45;word2vec</title>
<path fill="none" stroke="black" d="M3464.49,-88.23C3432.35,-76.46 3385.91,-61.21 3343.79,-54 3195.62,-28.62 2767.9,-21.64 2552.67,-19.72"/>
<polygon fill="black" stroke="black" points="2552.61,-16.22 2542.58,-19.64 2552.55,-23.22 2552.61,-16.22"/>
<text text-anchor="middle" x="3426.29" y="-57.8" font-family="Times,serif" font-size="14.00">previous</text>
</g>
<!-- http://purl.org/dj/kaggle/spell&#45;checker&#45;using&#45;word2vec#82575712 -->
<g id="node19" class="node">
<title>http://purl.org/dj/kaggle/spell&#45;checker&#45;using&#45;word2vec#82575712</title>
<ellipse fill="none" stroke="black" cx="3416.79" cy="-192" rx="108.58" ry="18"/>
<text text-anchor="middle" x="3416.79" y="-188.3" font-family="Times,serif" font-size="14.00">82575712 (np(0): Analysis)</text>
</g>
<!-- http://purl.org/dj/kaggle/spell&#45;checker&#45;using&#45;word2vec#82575712&#45;&gt;http://purl.org/dj/kaggle/spell&#45;checker&#45;using&#45;word2vec -->
<g id="edge22" class="edge">
<title>http://purl.org/dj/kaggle/spell&#45;checker&#45;using&#45;word2vec#82575712&#45;&gt;http://purl.org/dj/kaggle/spell&#45;checker&#45;using&#45;word2vec</title>
<path fill="none" stroke="black" d="M3396.58,-174.04C3380.63,-160.5 3357.96,-140.9 3338.79,-123 3322.25,-107.56 3323.15,-96.87 3302.79,-87 3236.64,-54.95 2773.9,-32.64 2548.55,-23.56"/>
<polygon fill="black" stroke="black" points="2548.46,-20.05 2538.33,-23.15 2548.18,-27.04 2548.46,-20.05"/>
<text text-anchor="middle" x="3362.29" y="-101.3" font-family="Times,serif" font-size="14.00">previous</text>
</g>
<!-- http://purl.org/dj/kaggle/spell&#45;checker&#45;using&#45;word2vec#82575712&#45;&gt;http://purl.org/dj/python/lib/111084090 -->
<g id="edge23" class="edge">
<title>http://purl.org/dj/kaggle/spell&#45;checker&#45;using&#45;word2vec#82575712&#45;&gt;http://purl.org/dj/python/lib/111084090</title>
<path fill="none" stroke="black" d="M3434.18,-174.21C3447.23,-161.6 3465.29,-144.16 3479.87,-130.07"/>
<polygon fill="black" stroke="black" points="3482.38,-132.51 3487.14,-123.05 3477.51,-127.48 3482.38,-132.51"/>
<text text-anchor="middle" x="3490.29" y="-144.8" font-family="Times,serif" font-size="14.00">previous</text>
</g>
<!-- http://purl.org/dj/python/lib/146342532 -->
<g id="node20" class="node">
<title>http://purl.org/dj/python/lib/146342532</title>
<ellipse fill="none" stroke="black" cx="3742.79" cy="-105" rx="110.48" ry="18"/>
<text text-anchor="middle" x="3742.79" y="-101.3" font-family="Times,serif" font-size="14.00">146342532 (gensim: Reuse)</text>
</g>
<!-- http://purl.org/dj/python/lib/146342532&#45;&gt;http://purl.org/dj/kaggle/spell&#45;checker&#45;using&#45;word2vec -->
<g id="edge24" class="edge">
<title>http://purl.org/dj/python/lib/146342532&#45;&gt;http://purl.org/dj/kaggle/spell&#45;checker&#45;using&#45;word2vec</title>
<path fill="none" stroke="black" d="M3678.58,-90.28C3620.24,-78.44 3531.67,-62.02 3453.79,-54 3282.59,-36.36 2786.37,-25.44 2551.65,-21.12"/>
<polygon fill="black" stroke="black" points="2551.42,-17.62 2541.36,-20.93 2551.3,-24.62 2551.42,-17.62"/>
<text text-anchor="middle" x="3581.29" y="-57.8" font-family="Times,serif" font-size="14.00">previous</text>
</g>
<!-- http://purl.org/dj/kaggle/spell&#45;checker&#45;using&#45;word2vec#249561878 -->
<g id="node21" class="node">
<title>http://purl.org/dj/kaggle/spell&#45;checker&#45;using&#45;word2vec#249561878</title>
<ellipse fill="none" stroke="black" cx="2879.79" cy="-279" rx="136.48" ry="18"/>
<text text-anchor="middle" x="2879.79" y="-275.3" font-family="Times,serif" font-size="14.00">249561878 (print[0]: Visualisation)</text>
</g>
<!-- http://purl.org/dj/kaggle/spell&#45;checker&#45;using&#45;word2vec#249561878&#45;&gt;http://purl.org/dj/kaggle/spell&#45;checker&#45;using&#45;word2vec#806684048 -->
<g id="edge25" class="edge">
<title>http://purl.org/dj/kaggle/spell&#45;checker&#45;using&#45;word2vec#249561878&#45;&gt;http://purl.org/dj/kaggle/spell&#45;checker&#45;using&#45;word2vec#806684048</title>
<path fill="none" stroke="black" d="M2879.79,-260.8C2879.79,-249.16 2879.79,-233.55 2879.79,-220.24"/>
<polygon fill="black" stroke="black" points="2883.29,-220.18 2879.79,-210.18 2876.29,-220.18 2883.29,-220.18"/>
<text text-anchor="middle" x="2903.29" y="-231.8" font-family="Times,serif" font-size="14.00">previous</text>
</g>
<!-- http://purl.org/dj/kaggle/spell&#45;checker&#45;using&#45;word2vec#1502550493 -->
<g id="node22" class="node">
<title>http://purl.org/dj/kaggle/spell&#45;checker&#45;using&#45;word2vec#1502550493</title>
<ellipse fill="none" stroke="black" cx="4260.79" cy="-105" rx="389.13" ry="18"/>
<text text-anchor="middle" x="4260.79" y="-101.3" font-family="Times,serif" font-size="14.00">1502550493 ([&lt;_ast.Constant object at 0x12f989f40&gt;, &lt;_ast.Constant object at 0x12f9899d0&gt;](0): Reuse)</text>
</g>
<!-- http://purl.org/dj/kaggle/spell&#45;checker&#45;using&#45;word2vec#1502550493&#45;&gt;http://purl.org/dj/kaggle/spell&#45;checker&#45;using&#45;word2vec -->
<g id="edge26" class="edge">
<title>http://purl.org/dj/kaggle/spell&#45;checker&#45;using&#45;word2vec#1502550493&#45;&gt;http://purl.org/dj/kaggle/spell&#45;checker&#45;using&#45;word2vec</title>
<path fill="none" stroke="black" d="M4091.05,-88.79C3959.54,-77.53 3772.75,-62.71 3608.79,-54 3224.02,-33.57 2768.18,-24.29 2551.85,-20.79"/>
<polygon fill="black" stroke="black" points="2551.78,-17.29 2541.73,-20.62 2551.67,-24.28 2551.78,-17.29"/>
<text text-anchor="middle" x="3865.29" y="-57.8" font-family="Times,serif" font-size="14.00">previous</text>
</g>
<!-- http://purl.org/dj/kaggle/spell&#45;checker&#45;using&#45;word2vec#249692951 -->
<g id="node23" class="node">
<title>http://purl.org/dj/kaggle/spell&#45;checker&#45;using&#45;word2vec#249692951</title>
<ellipse fill="none" stroke="black" cx="4260.79" cy="-192" rx="136.48" ry="18"/>
<text text-anchor="middle" x="4260.79" y="-188.3" font-family="Times,serif" font-size="14.00">249692951 (print[1]: Visualisation)</text>
</g>
<!-- http://purl.org/dj/kaggle/spell&#45;checker&#45;using&#45;word2vec#249692951&#45;&gt;http://purl.org/dj/kaggle/spell&#45;checker&#45;using&#45;word2vec#1502550493 -->
<g id="edge27" class="edge">
<title>http://purl.org/dj/kaggle/spell&#45;checker&#45;using&#45;word2vec#249692951&#45;&gt;http://purl.org/dj/kaggle/spell&#45;checker&#45;using&#45;word2vec#1502550493</title>
<path fill="none" stroke="black" d="M4260.79,-173.8C4260.79,-162.16 4260.79,-146.55 4260.79,-133.24"/>
<polygon fill="black" stroke="black" points="4264.29,-133.18 4260.79,-123.18 4257.29,-133.18 4264.29,-133.18"/>
<text text-anchor="middle" x="4284.29" y="-144.8" font-family="Times,serif" font-size="14.00">previous</text>
</g>
<!-- http://purl.org/dj/kaggle/spell&#45;checker&#45;using&#45;word2vec#289800965 -->
<g id="node24" class="node">
<title>http://purl.org/dj/kaggle/spell&#45;checker&#45;using&#45;word2vec#289800965</title>
<ellipse fill="none" stroke="black" cx="4788.79" cy="-105" rx="120.78" ry="18"/>
<text text-anchor="middle" x="4788.79" y="-101.3" font-family="Times,serif" font-size="14.00">289800965 (gensim(0): Reuse)</text>
</g>
<!-- http://purl.org/dj/kaggle/spell&#45;checker&#45;using&#45;word2vec#289800965&#45;&gt;http://purl.org/dj/kaggle/spell&#45;checker&#45;using&#45;word2vec -->
<g id="edge28" class="edge">
<title>http://purl.org/dj/kaggle/spell&#45;checker&#45;using&#45;word2vec#289800965&#45;&gt;http://purl.org/dj/kaggle/spell&#45;checker&#45;using&#45;word2vec</title>
<path fill="none" stroke="black" d="M4704.99,-91.95C4689.65,-90.06 4673.76,-88.3 4658.79,-87 4319.31,-57.55 4233.36,-65.4 3892.79,-54 3396.48,-37.39 2805.47,-25.78 2551.7,-21.19"/>
<polygon fill="black" stroke="black" points="2551.41,-17.68 2541.35,-21 2551.28,-24.68 2551.41,-17.68"/>
<text text-anchor="middle" x="4417.29" y="-57.8" font-family="Times,serif" font-size="14.00">previous</text>
</g>
</g>
</svg>
