<?xml version="1.0" encoding="UTF-8" standalone="no"?>
<!DOCTYPE svg PUBLIC "-//W3C//DTD SVG 1.1//EN"
 "http://www.w3.org/Graphics/SVG/1.1/DTD/svg11.dtd">
<!-- Generated by graphviz version 2.47.1 (20210417.1919)
 -->
<!-- Pages: 1 -->
<svg width="995pt" height="1190pt"
 viewBox="0.00 0.00 994.68 1189.95" xmlns="http://www.w3.org/2000/svg" xmlns:xlink="http://www.w3.org/1999/xlink">
<g id="graph0" class="graph" transform="scale(1 1) rotate(0) translate(4 1185.95)">
<polygon fill="white" stroke="transparent" points="-4,4 -4,-1185.95 990.68,-1185.95 990.68,4 -4,4"/>
<!-- http://purl.org/dj/kaggle/sql&#45;scavenger&#45;hunt&#45;handbook#870778211 -->
<g id="node1" class="node">
<title>http://purl.org/dj/kaggle/sql&#45;scavenger&#45;hunt&#45;handbook#870778211</title>
<ellipse fill="none" stroke="black" cx="581.4" cy="-620.95" rx="168.97" ry="18"/>
<text text-anchor="middle" x="581.4" y="-617.25" font-family="Times,serif" font-size="14.00">870778211 (hacker_news(0)$3: Preparation)</text>
</g>
<!-- http://purl.org/dj/kaggle/sql&#45;scavenger&#45;hunt&#45;handbook#173802037 -->
<g id="node2" class="node">
<title>http://purl.org/dj/kaggle/sql&#45;scavenger&#45;hunt&#45;handbook#173802037</title>
<ellipse fill="none" stroke="black" cx="741.4" cy="-387" rx="107.48" ry="18"/>
<text text-anchor="middle" x="741.4" y="-383.3" font-family="Times,serif" font-size="14.00">173802037 (full(0): Reuse)</text>
</g>
<!-- http://purl.org/dj/kaggle/sql&#45;scavenger&#45;hunt&#45;handbook#870778211&#45;&gt;http://purl.org/dj/kaggle/sql&#45;scavenger&#45;hunt&#45;handbook#173802037 -->
<g id="edge1" class="edge">
<title>http://purl.org/dj/kaggle/sql&#45;scavenger&#45;hunt&#45;handbook#870778211&#45;&gt;http://purl.org/dj/kaggle/sql&#45;scavenger&#45;hunt&#45;handbook#173802037</title>
<path fill="none" stroke="black" d="M595.62,-602.92C600.35,-597.23 605.62,-590.83 610.4,-584.95 643.69,-543.96 655.15,-535.97 684.4,-492 701.3,-466.58 717.75,-435.71 728.59,-414.24"/>
<polygon fill="black" stroke="black" points="731.83,-415.6 733.16,-405.09 725.57,-412.47 731.83,-415.6"/>
<text text-anchor="middle" x="724.9" y="-470.3" font-family="Times,serif" font-size="14.00">head ()</text>
</g>
<!-- http://purl.org/dj/kaggle/sql&#45;scavenger&#45;hunt&#45;handbook#870712674 -->
<g id="node3" class="node">
<title>http://purl.org/dj/kaggle/sql&#45;scavenger&#45;hunt&#45;handbook#870712674</title>
<ellipse fill="none" stroke="black" cx="526.4" cy="-474" rx="149.47" ry="18"/>
<text text-anchor="middle" x="526.4" y="-470.3" font-family="Times,serif" font-size="14.00">870712674 (hacker_news(0)$2: Reuse)</text>
</g>
<!-- http://purl.org/dj/kaggle/sql&#45;scavenger&#45;hunt&#45;handbook#870778211&#45;&gt;http://purl.org/dj/kaggle/sql&#45;scavenger&#45;hunt&#45;handbook#870712674 -->
<g id="edge2" class="edge">
<title>http://purl.org/dj/kaggle/sql&#45;scavenger&#45;hunt&#45;handbook#870778211&#45;&gt;http://purl.org/dj/kaggle/sql&#45;scavenger&#45;hunt&#45;handbook#870712674</title>
<path fill="none" stroke="black" d="M574.87,-602.76C565.4,-577.8 547.76,-531.32 536.58,-501.83"/>
<polygon fill="black" stroke="black" points="539.73,-500.28 532.91,-492.17 533.19,-502.77 539.73,-500.28"/>
<text text-anchor="middle" x="586.9" y="-543.78" font-family="Times,serif" font-size="14.00">head ()</text>
</g>
<!-- http://purl.org/dj/kaggle/sql&#45;scavenger&#45;hunt&#45;handbook -->
<g id="node4" class="node">
<title>http://purl.org/dj/kaggle/sql&#45;scavenger&#45;hunt&#45;handbook</title>
<ellipse fill="none" stroke="black" cx="641.4" cy="-18" rx="250.46" ry="18"/>
<text text-anchor="middle" x="641.4" y="-14.3" font-family="Times,serif" font-size="14.00">sql&#45;scavenger&#45;hunt&#45;handbook (sql&#45;scavenger&#45;hunt&#45;handbook.ipynb)</text>
</g>
<!-- http://purl.org/dj/kaggle/sql&#45;scavenger&#45;hunt&#45;handbook#173802037&#45;&gt;http://purl.org/dj/kaggle/sql&#45;scavenger&#45;hunt&#45;handbook -->
<g id="edge3" class="edge">
<title>http://purl.org/dj/kaggle/sql&#45;scavenger&#45;hunt&#45;handbook#173802037&#45;&gt;http://purl.org/dj/kaggle/sql&#45;scavenger&#45;hunt&#45;handbook</title>
<path fill="none" stroke="black" d="M755.28,-368.92C767.17,-352.53 782.4,-326.56 782.4,-301 782.4,-301 782.4,-301 782.4,-104 782.4,-71.88 755.23,-51.58 724.74,-38.91"/>
<polygon fill="black" stroke="black" points="725.79,-35.57 715.2,-35.22 723.26,-42.09 725.79,-35.57"/>
<text text-anchor="middle" x="815.4" y="-209.3" font-family="Times,serif" font-size="14.00">appearsIn ()</text>
</g>
<!-- http://purl.org/dj/kaggle/sql&#45;scavenger&#45;hunt&#45;handbook#870712674&#45;&gt;http://purl.org/dj/kaggle/sql&#45;scavenger&#45;hunt&#45;handbook#173802037 -->
<g id="edge4" class="edge">
<title>http://purl.org/dj/kaggle/sql&#45;scavenger&#45;hunt&#45;handbook#870712674&#45;&gt;http://purl.org/dj/kaggle/sql&#45;scavenger&#45;hunt&#45;handbook#173802037</title>
<path fill="none" stroke="black" d="M550.12,-456.22C566.22,-445.48 588.33,-431.92 609.4,-423 627.43,-415.36 647.57,-409.01 666.57,-403.91"/>
<polygon fill="black" stroke="black" points="667.6,-407.26 676.39,-401.35 665.83,-400.48 667.6,-407.26"/>
<text text-anchor="middle" x="653.4" y="-426.8" font-family="Times,serif" font-size="14.00">table_schema ()</text>
</g>
<!-- http://purl.org/dj/kaggle/sql&#45;scavenger&#45;hunt&#45;handbook#870647137 -->
<g id="node5" class="node">
<title>http://purl.org/dj/kaggle/sql&#45;scavenger&#45;hunt&#45;handbook#870647137</title>
<ellipse fill="none" stroke="black" cx="466.4" cy="-387" rx="149.47" ry="18"/>
<text text-anchor="middle" x="466.4" y="-383.3" font-family="Times,serif" font-size="14.00">870647137 (hacker_news(0)$1: Reuse)</text>
</g>
<!-- http://purl.org/dj/kaggle/sql&#45;scavenger&#45;hunt&#45;handbook#870712674&#45;&gt;http://purl.org/dj/kaggle/sql&#45;scavenger&#45;hunt&#45;handbook#870647137 -->
<g id="edge5" class="edge">
<title>http://purl.org/dj/kaggle/sql&#45;scavenger&#45;hunt&#45;handbook#870712674&#45;&gt;http://purl.org/dj/kaggle/sql&#45;scavenger&#45;hunt&#45;handbook#870647137</title>
<path fill="none" stroke="black" d="M506.39,-455.97C500.79,-450.59 494.98,-444.37 490.4,-438 485.2,-430.78 480.63,-422.25 476.91,-414.31"/>
<polygon fill="black" stroke="black" points="480.05,-412.76 472.8,-405.03 473.65,-415.59 480.05,-412.76"/>
<text text-anchor="middle" x="534.4" y="-426.8" font-family="Times,serif" font-size="14.00">table_schema ()</text>
</g>
<!-- http://purl.org/dj/kaggle/sql&#45;scavenger&#45;hunt&#45;handbook#870581600 -->
<g id="node14" class="node">
<title>http://purl.org/dj/kaggle/sql&#45;scavenger&#45;hunt&#45;handbook#870581600</title>
<ellipse fill="none" stroke="black" cx="466.4" cy="-300" rx="149.47" ry="18"/>
<text text-anchor="middle" x="466.4" y="-296.3" font-family="Times,serif" font-size="14.00">870581600 (hacker_news(0)$0: Reuse)</text>
</g>
<!-- http://purl.org/dj/kaggle/sql&#45;scavenger&#45;hunt&#45;handbook#870647137&#45;&gt;http://purl.org/dj/kaggle/sql&#45;scavenger&#45;hunt&#45;handbook#870581600 -->
<g id="edge24" class="edge">
<title>http://purl.org/dj/kaggle/sql&#45;scavenger&#45;hunt&#45;handbook#870647137&#45;&gt;http://purl.org/dj/kaggle/sql&#45;scavenger&#45;hunt&#45;handbook#870581600</title>
<path fill="none" stroke="black" d="M466.4,-368.8C466.4,-357.16 466.4,-341.55 466.4,-328.24"/>
<polygon fill="black" stroke="black" points="469.9,-328.18 466.4,-318.18 462.9,-328.18 469.9,-328.18"/>
<text text-anchor="middle" x="500.4" y="-339.8" font-family="Times,serif" font-size="14.00">list_tables ()</text>
</g>
<!-- http://purl.org/dj/kaggle/sql&#45;scavenger&#45;hunt&#45;handbook#759176595 -->
<g id="node6" class="node">
<title>http://purl.org/dj/kaggle/sql&#45;scavenger&#45;hunt&#45;handbook#759176595</title>
<ellipse fill="none" stroke="black" cx="228.4" cy="-547.48" rx="228.29" ry="37.45"/>
<text text-anchor="middle" x="228.4" y="-558.78" font-family="Times,serif" font-size="14.00">759176595 (SELECT score</text>
<text text-anchor="middle" x="228.4" y="-543.78" font-family="Times,serif" font-size="14.00"> &#160;&#160;&#160;&#160;&#160;&#160;&#160;&#160;&#160;&#160;&#160;FROM `bigquery&#45;public&#45;data.hacker_news.full`</text>
<text text-anchor="middle" x="228.4" y="-528.78" font-family="Times,serif" font-size="14.00"> &#160;&#160;&#160;&#160;&#160;&#160;&#160;&#160;&#160;&#160;&#160;WHERE type = &quot;job&quot; (0): Reuse)</text>
</g>
<!-- http://purl.org/dj/kaggle/sql&#45;scavenger&#45;hunt&#45;handbook#759176595&#45;&gt;http://purl.org/dj/kaggle/sql&#45;scavenger&#45;hunt&#45;handbook -->
<g id="edge6" class="edge">
<title>http://purl.org/dj/kaggle/sql&#45;scavenger&#45;hunt&#45;handbook#759176595&#45;&gt;http://purl.org/dj/kaggle/sql&#45;scavenger&#45;hunt&#45;handbook</title>
<path fill="none" stroke="black" d="M214.32,-510.04C206.93,-487.72 199.4,-458.37 199.4,-431.5 199.4,-431.5 199.4,-431.5 199.4,-104 199.4,-57.11 296.52,-35.51 399.71,-25.78"/>
<polygon fill="black" stroke="black" points="400.07,-29.26 409.72,-24.88 399.44,-22.29 400.07,-29.26"/>
<text text-anchor="middle" x="232.4" y="-296.3" font-family="Times,serif" font-size="14.00">appearsIn ()</text>
</g>
<!-- http://purl.org/dj/kaggle/sql&#45;scavenger&#45;hunt&#45;handbook#870843748 -->
<g id="node7" class="node">
<title>http://purl.org/dj/kaggle/sql&#45;scavenger&#45;hunt&#45;handbook#870843748</title>
<ellipse fill="none" stroke="black" cx="651.4" cy="-707.95" rx="168.97" ry="18"/>
<text text-anchor="middle" x="651.4" y="-704.25" font-family="Times,serif" font-size="14.00">870843748 (hacker_news(0)$4: Preparation)</text>
</g>
<!-- http://purl.org/dj/kaggle/sql&#45;scavenger&#45;hunt&#45;handbook#870843748&#45;&gt;http://purl.org/dj/kaggle/sql&#45;scavenger&#45;hunt&#45;handbook#870778211 -->
<g id="edge7" class="edge">
<title>http://purl.org/dj/kaggle/sql&#45;scavenger&#45;hunt&#45;handbook#870843748&#45;&gt;http://purl.org/dj/kaggle/sql&#45;scavenger&#45;hunt&#45;handbook#870778211</title>
<path fill="none" stroke="black" d="M637.23,-689.75C627.17,-677.54 613.51,-660.95 602.21,-647.23"/>
<polygon fill="black" stroke="black" points="604.6,-644.62 595.54,-639.13 599.2,-649.07 604.6,-644.62"/>
<text text-anchor="middle" x="639.9" y="-660.75" font-family="Times,serif" font-size="14.00">head ()</text>
</g>
<!-- http://purl.org/dj/kaggle/sql&#45;scavenger&#45;hunt&#45;handbook#870843748&#45;&gt;http://purl.org/dj/kaggle/sql&#45;scavenger&#45;hunt&#45;handbook#173802037 -->
<g id="edge8" class="edge">
<title>http://purl.org/dj/kaggle/sql&#45;scavenger&#45;hunt&#45;handbook#870843748&#45;&gt;http://purl.org/dj/kaggle/sql&#45;scavenger&#45;hunt&#45;handbook#173802037</title>
<path fill="none" stroke="black" d="M697.33,-690.54C720.36,-679.71 746.12,-663.01 759.4,-638.95 799.6,-566.12 770.02,-462.76 752.24,-414.61"/>
<polygon fill="black" stroke="black" points="755.49,-413.3 748.65,-405.2 748.94,-415.79 755.49,-413.3"/>
<text text-anchor="middle" x="798.9" y="-543.78" font-family="Times,serif" font-size="14.00">head ()</text>
</g>
<!-- http://purl.org/dj/kaggle/sql&#45;scavenger&#45;hunt&#45;handbook#1825900637 -->
<g id="node8" class="node">
<title>http://purl.org/dj/kaggle/sql&#45;scavenger&#45;hunt&#45;handbook#1825900637</title>
<ellipse fill="none" stroke="black" cx="387.4" cy="-159" rx="172.77" ry="18"/>
<text text-anchor="middle" x="387.4" y="-155.3" font-family="Times,serif" font-size="14.00">1825900637 (bigquery&#45;public&#45;data(0): Reuse)</text>
</g>
<!-- http://purl.org/dj/kaggle/sql&#45;scavenger&#45;hunt&#45;handbook#1825900637&#45;&gt;http://purl.org/dj/kaggle/sql&#45;scavenger&#45;hunt&#45;handbook -->
<g id="edge9" class="edge">
<title>http://purl.org/dj/kaggle/sql&#45;scavenger&#45;hunt&#45;handbook#1825900637&#45;&gt;http://purl.org/dj/kaggle/sql&#45;scavenger&#45;hunt&#45;handbook</title>
<path fill="none" stroke="black" d="M353.77,-141.21C347.19,-136.29 341.16,-130.24 337.4,-123 330.01,-108.81 327.39,-99.49 337.4,-87 357.78,-61.56 426.38,-45 493.27,-34.59"/>
<polygon fill="black" stroke="black" points="494.19,-38 503.56,-33.04 493.14,-31.07 494.19,-38"/>
<text text-anchor="middle" x="370.4" y="-101.3" font-family="Times,serif" font-size="14.00">appearsIn ()</text>
</g>
<!-- http://purl.org/dj/kaggle/sql&#45;scavenger&#45;hunt&#45;handbook#870974822 -->
<g id="node9" class="node">
<title>http://purl.org/dj/kaggle/sql&#45;scavenger&#45;hunt&#45;handbook#870974822</title>
<ellipse fill="none" stroke="black" cx="409.4" cy="-881.95" rx="149.47" ry="18"/>
<text text-anchor="middle" x="409.4" y="-878.25" font-family="Times,serif" font-size="14.00">870974822 (hacker_news(0)$6: Reuse)</text>
</g>
<!-- http://purl.org/dj/kaggle/sql&#45;scavenger&#45;hunt&#45;handbook#870909285 -->
<g id="node10" class="node">
<title>http://purl.org/dj/kaggle/sql&#45;scavenger&#45;hunt&#45;handbook#870909285</title>
<ellipse fill="none" stroke="black" cx="651.4" cy="-794.95" rx="149.47" ry="18"/>
<text text-anchor="middle" x="651.4" y="-791.25" font-family="Times,serif" font-size="14.00">870909285 (hacker_news(0)$5: Reuse)</text>
</g>
<!-- http://purl.org/dj/kaggle/sql&#45;scavenger&#45;hunt&#45;handbook#870974822&#45;&gt;http://purl.org/dj/kaggle/sql&#45;scavenger&#45;hunt&#45;handbook#870909285 -->
<g id="edge10" class="edge">
<title>http://purl.org/dj/kaggle/sql&#45;scavenger&#45;hunt&#45;handbook#870974822&#45;&gt;http://purl.org/dj/kaggle/sql&#45;scavenger&#45;hunt&#45;handbook#870909285</title>
<path fill="none" stroke="black" d="M455.48,-864.77C495.31,-850.78 552.97,-830.52 595.44,-815.61"/>
<polygon fill="black" stroke="black" points="596.79,-818.84 605.07,-812.23 594.47,-812.24 596.79,-818.84"/>
<text text-anchor="middle" x="611.4" y="-834.75" font-family="Times,serif" font-size="14.00">query_to_pandas_safe ()</text>
</g>
<!-- http://purl.org/dj/kaggle/sql&#45;scavenger&#45;hunt&#45;handbook#338166540 -->
<g id="node11" class="node">
<title>http://purl.org/dj/kaggle/sql&#45;scavenger&#45;hunt&#45;handbook#338166540</title>
<ellipse fill="none" stroke="black" cx="250.4" cy="-707.95" rx="124.28" ry="18"/>
<text text-anchor="middle" x="250.4" y="-704.25" font-family="Times,serif" font-size="14.00">338166540 (query(0)$0: Reuse)</text>
</g>
<!-- http://purl.org/dj/kaggle/sql&#45;scavenger&#45;hunt&#45;handbook#870974822&#45;&gt;http://purl.org/dj/kaggle/sql&#45;scavenger&#45;hunt&#45;handbook#338166540 -->
<g id="edge11" class="edge">
<title>http://purl.org/dj/kaggle/sql&#45;scavenger&#45;hunt&#45;handbook#870974822&#45;&gt;http://purl.org/dj/kaggle/sql&#45;scavenger&#45;hunt&#45;handbook#338166540</title>
<path fill="none" stroke="black" d="M393.57,-863.83C365.23,-833.18 305.76,-768.84 273.09,-733.5"/>
<polygon fill="black" stroke="black" points="275.52,-730.97 266.16,-726 270.38,-735.72 275.52,-730.97"/>
<text text-anchor="middle" x="413.4" y="-791.25" font-family="Times,serif" font-size="14.00">query_to_pandas_safe ()</text>
</g>
<!-- http://purl.org/dj/kaggle/sql&#45;scavenger&#45;hunt&#45;handbook#870909285&#45;&gt;http://purl.org/dj/kaggle/sql&#45;scavenger&#45;hunt&#45;handbook#870843748 -->
<g id="edge12" class="edge">
<title>http://purl.org/dj/kaggle/sql&#45;scavenger&#45;hunt&#45;handbook#870909285&#45;&gt;http://purl.org/dj/kaggle/sql&#45;scavenger&#45;hunt&#45;handbook#870843748</title>
<path fill="none" stroke="black" d="M651.4,-776.75C651.4,-765.12 651.4,-749.5 651.4,-736.19"/>
<polygon fill="black" stroke="black" points="654.9,-736.13 651.4,-726.13 647.9,-736.13 654.9,-736.13"/>
<text text-anchor="middle" x="713.4" y="-747.75" font-family="Times,serif" font-size="14.00">estimate_query_size ()</text>
</g>
<!-- http://purl.org/dj/kaggle/sql&#45;scavenger&#45;hunt&#45;handbook#870909285&#45;&gt;http://purl.org/dj/kaggle/sql&#45;scavenger&#45;hunt&#45;handbook#338166540 -->
<g id="edge13" class="edge">
<title>http://purl.org/dj/kaggle/sql&#45;scavenger&#45;hunt&#45;handbook#870909285&#45;&gt;http://purl.org/dj/kaggle/sql&#45;scavenger&#45;hunt&#45;handbook#338166540</title>
<path fill="none" stroke="black" d="M581.09,-779.05C510.08,-764 400.69,-740.81 327.38,-725.27"/>
<polygon fill="black" stroke="black" points="327.79,-721.78 317.28,-723.13 326.34,-728.63 327.79,-721.78"/>
<text text-anchor="middle" x="537.4" y="-747.75" font-family="Times,serif" font-size="14.00">estimate_query_size ()</text>
</g>
<!-- http://purl.org/dj/kaggle/sql&#45;scavenger&#45;hunt&#45;handbook#338166540&#45;&gt;http://purl.org/dj/kaggle/sql&#45;scavenger&#45;hunt&#45;handbook#759176595 -->
<g id="edge14" class="edge">
<title>http://purl.org/dj/kaggle/sql&#45;scavenger&#45;hunt&#45;handbook#338166540&#45;&gt;http://purl.org/dj/kaggle/sql&#45;scavenger&#45;hunt&#45;handbook#759176595</title>
<path fill="none" stroke="black" d="M248,-689.69C244.87,-667.18 239.29,-626.92 234.87,-595.13"/>
<polygon fill="black" stroke="black" points="238.33,-594.57 233.49,-585.14 231.39,-595.53 238.33,-594.57"/>
<text text-anchor="middle" x="290.4" y="-660.75" font-family="Times,serif" font-size="14.00">assignedFrom ()</text>
</g>
<!-- http://purl.org/dj/kaggle/sql&#45;scavenger&#45;hunt&#45;handbook#1411778341 -->
<g id="node12" class="node">
<title>http://purl.org/dj/kaggle/sql&#45;scavenger&#45;hunt&#45;handbook#1411778341</title>
<ellipse fill="none" stroke="black" cx="547.4" cy="-1076.95" rx="165.17" ry="18"/>
<text text-anchor="middle" x="547.4" y="-1073.25" font-family="Times,serif" font-size="14.00">1411778341 (job_post_scores(0)$1: Reuse)</text>
</g>
<!-- http://purl.org/dj/kaggle/sql&#45;scavenger&#45;hunt&#45;handbook#1411712804 -->
<g id="node13" class="node">
<title>http://purl.org/dj/kaggle/sql&#45;scavenger&#45;hunt&#45;handbook#1411712804</title>
<ellipse fill="none" stroke="black" cx="409.4" cy="-968.95" rx="165.17" ry="18"/>
<text text-anchor="middle" x="409.4" y="-965.25" font-family="Times,serif" font-size="14.00">1411712804 (job_post_scores(0)$0: Reuse)</text>
</g>
<!-- http://purl.org/dj/kaggle/sql&#45;scavenger&#45;hunt&#45;handbook#1411778341&#45;&gt;http://purl.org/dj/kaggle/sql&#45;scavenger&#45;hunt&#45;handbook#1411712804 -->
<g id="edge15" class="edge">
<title>http://purl.org/dj/kaggle/sql&#45;scavenger&#45;hunt&#45;handbook#1411778341&#45;&gt;http://purl.org/dj/kaggle/sql&#45;scavenger&#45;hunt&#45;handbook#1411712804</title>
<path fill="none" stroke="black" d="M525.22,-1058.92C501.99,-1041.07 465.33,-1012.92 439.49,-993.07"/>
<polygon fill="black" stroke="black" points="441.58,-990.26 431.51,-986.94 437.31,-995.81 441.58,-990.26"/>
<text text-anchor="middle" x="519.9" y="-1019.25" font-family="Times,serif" font-size="14.00">mean ()</text>
</g>
<!-- http://purl.org/dj/kaggle/sql&#45;scavenger&#45;hunt&#45;handbook#1411712804&#45;&gt;http://purl.org/dj/kaggle/sql&#45;scavenger&#45;hunt&#45;handbook#870974822 -->
<g id="edge16" class="edge">
<title>http://purl.org/dj/kaggle/sql&#45;scavenger&#45;hunt&#45;handbook#1411712804&#45;&gt;http://purl.org/dj/kaggle/sql&#45;scavenger&#45;hunt&#45;handbook#870974822</title>
<path fill="none" stroke="black" d="M409.4,-950.75C409.4,-939.12 409.4,-923.5 409.4,-910.19"/>
<polygon fill="black" stroke="black" points="412.9,-910.13 409.4,-900.13 405.9,-910.13 412.9,-910.13"/>
<text text-anchor="middle" x="476.4" y="-921.75" font-family="Times,serif" font-size="14.00">query_to_pandas_safe ()</text>
</g>
<!-- http://purl.org/dj/kaggle/sql&#45;scavenger&#45;hunt&#45;handbook#1411712804&#45;&gt;http://purl.org/dj/kaggle/sql&#45;scavenger&#45;hunt&#45;handbook#338166540 -->
<g id="edge17" class="edge">
<title>http://purl.org/dj/kaggle/sql&#45;scavenger&#45;hunt&#45;handbook#1411712804&#45;&gt;http://purl.org/dj/kaggle/sql&#45;scavenger&#45;hunt&#45;handbook#338166540</title>
<path fill="none" stroke="black" d="M346.46,-952.29C314.81,-941.79 277.7,-925.16 251.4,-899.95 232.17,-881.52 231.32,-871.92 225.4,-845.95 216.68,-807.75 229.02,-763 239.25,-735.31"/>
<polygon fill="black" stroke="black" points="242.54,-736.51 242.88,-725.92 236.01,-733.99 242.54,-736.51"/>
<text text-anchor="middle" x="292.4" y="-834.75" font-family="Times,serif" font-size="14.00">query_to_pandas_safe ()</text>
</g>
<!-- http://purl.org/dj/kaggle/sql&#45;scavenger&#45;hunt&#45;handbook#870581600&#45;&gt;http://purl.org/dj/kaggle/sql&#45;scavenger&#45;hunt&#45;handbook#1825900637 -->
<g id="edge18" class="edge">
<title>http://purl.org/dj/kaggle/sql&#45;scavenger&#45;hunt&#45;handbook#870581600&#45;&gt;http://purl.org/dj/kaggle/sql&#45;scavenger&#45;hunt&#45;handbook#1825900637</title>
<path fill="none" stroke="black" d="M430.31,-282.36C422.77,-277.41 415.55,-271.3 410.4,-264 394.44,-241.41 389.28,-209.73 387.74,-187.28"/>
<polygon fill="black" stroke="black" points="391.23,-186.9 387.25,-177.09 384.24,-187.24 391.23,-186.9"/>
<text text-anchor="middle" x="461.9" y="-252.8" font-family="Times,serif" font-size="14.00">BigQueryHelper ()</text>
</g>
<!-- http://purl.org/dj/kaggle/sql&#45;scavenger&#45;hunt&#45;handbook#870581600&#45;&gt;http://purl.org/dj/kaggle/sql&#45;scavenger&#45;hunt&#45;handbook#870581600 -->
<g id="edge19" class="edge">
<title>http://purl.org/dj/kaggle/sql&#45;scavenger&#45;hunt&#45;handbook#870581600&#45;&gt;http://purl.org/dj/kaggle/sql&#45;scavenger&#45;hunt&#45;handbook#870581600</title>
<path fill="none" stroke="black" d="M604.7,-306.88C622.29,-305.68 633.88,-303.38 633.88,-300 633.88,-297.33 626.66,-295.34 614.98,-294.03"/>
<polygon fill="black" stroke="black" points="614.97,-290.51 604.7,-293.12 614.35,-297.49 614.97,-290.51"/>
<text text-anchor="middle" x="685.38" y="-296.3" font-family="Times,serif" font-size="14.00">BigQueryHelper ()</text>
</g>
<!-- http://purl.org/dj/kaggle/sql&#45;scavenger&#45;hunt&#45;handbook#509281332 -->
<g id="node15" class="node">
<title>http://purl.org/dj/kaggle/sql&#45;scavenger&#45;hunt&#45;handbook#509281332</title>
<ellipse fill="none" stroke="black" cx="583.4" cy="-213" rx="129.98" ry="18"/>
<text text-anchor="middle" x="583.4" y="-209.3" font-family="Times,serif" font-size="14.00">509281332 (bq_helper(0): Reuse)</text>
</g>
<!-- http://purl.org/dj/kaggle/sql&#45;scavenger&#45;hunt&#45;handbook#870581600&#45;&gt;http://purl.org/dj/kaggle/sql&#45;scavenger&#45;hunt&#45;handbook#509281332 -->
<g id="edge20" class="edge">
<title>http://purl.org/dj/kaggle/sql&#45;scavenger&#45;hunt&#45;handbook#870581600&#45;&gt;http://purl.org/dj/kaggle/sql&#45;scavenger&#45;hunt&#45;handbook#509281332</title>
<path fill="none" stroke="black" d="M489.51,-282.21C507.38,-269.23 532.3,-251.12 551.98,-236.83"/>
<polygon fill="black" stroke="black" points="554.29,-239.47 560.33,-230.76 550.18,-233.8 554.29,-239.47"/>
<text text-anchor="middle" x="582.9" y="-252.8" font-family="Times,serif" font-size="14.00">BigQueryHelper ()</text>
</g>
<!-- http://purl.org/dj/kaggle/sql&#45;scavenger&#45;hunt&#45;handbook#509281332&#45;&gt;http://purl.org/dj/kaggle/sql&#45;scavenger&#45;hunt&#45;handbook -->
<g id="edge21" class="edge">
<title>http://purl.org/dj/kaggle/sql&#45;scavenger&#45;hunt&#45;handbook#509281332&#45;&gt;http://purl.org/dj/kaggle/sql&#45;scavenger&#45;hunt&#45;handbook</title>
<path fill="none" stroke="black" d="M645.05,-197.14C654.56,-192.22 663.25,-185.69 669.4,-177 700.97,-132.32 694.59,-104.85 674.4,-54 672.99,-50.45 671.03,-47.06 668.77,-43.87"/>
<polygon fill="black" stroke="black" points="671.29,-41.44 662.22,-35.97 665.91,-45.91 671.29,-41.44"/>
<text text-anchor="middle" x="723.4" y="-101.3" font-family="Times,serif" font-size="14.00">appearsIn ()</text>
</g>
<!-- http://purl.org/dj/python/lib/306250675 -->
<g id="node16" class="node">
<title>http://purl.org/dj/python/lib/306250675</title>
<ellipse fill="none" stroke="black" cx="532.4" cy="-105" rx="120.48" ry="18"/>
<text text-anchor="middle" x="532.4" y="-101.3" font-family="Times,serif" font-size="14.00">306250675 (bq_helper: Reuse)</text>
</g>
<!-- http://purl.org/dj/kaggle/sql&#45;scavenger&#45;hunt&#45;handbook#509281332&#45;&gt;http://purl.org/dj/python/lib/306250675 -->
<g id="edge22" class="edge">
<title>http://purl.org/dj/kaggle/sql&#45;scavenger&#45;hunt&#45;handbook#509281332&#45;&gt;http://purl.org/dj/python/lib/306250675</title>
<path fill="none" stroke="black" d="M580.08,-194.91C576.74,-180.05 570.73,-158.25 561.4,-141 559.6,-137.68 557.46,-134.38 555.17,-131.21"/>
<polygon fill="black" stroke="black" points="557.82,-128.91 548.9,-123.19 552.3,-133.22 557.82,-128.91"/>
<text text-anchor="middle" x="620.4" y="-155.3" font-family="Times,serif" font-size="14.00">assignedFrom ()</text>
</g>
<!-- http://purl.org/dj/python/lib/306250675&#45;&gt;http://purl.org/dj/kaggle/sql&#45;scavenger&#45;hunt&#45;handbook -->
<g id="edge23" class="edge">
<title>http://purl.org/dj/python/lib/306250675&#45;&gt;http://purl.org/dj/kaggle/sql&#45;scavenger&#45;hunt&#45;handbook</title>
<path fill="none" stroke="black" d="M553.31,-87.23C565.53,-77.47 581.28,-64.97 595.4,-54 600.39,-50.12 605.71,-46.03 610.89,-42.07"/>
<polygon fill="black" stroke="black" points="613.03,-44.84 618.86,-36 608.79,-39.27 613.03,-44.84"/>
<text text-anchor="middle" x="634.9" y="-57.8" font-family="Times,serif" font-size="14.00">importedBy ()</text>
</g>
<!-- http://purl.org/dj/kaggle/sql&#45;scavenger&#45;hunt&#45;handbook#1411843878 -->
<g id="node17" class="node">
<title>http://purl.org/dj/kaggle/sql&#45;scavenger&#45;hunt&#45;handbook#1411843878</title>
<ellipse fill="none" stroke="black" cx="650.4" cy="-1163.95" rx="165.17" ry="18"/>
<text text-anchor="middle" x="650.4" y="-1160.25" font-family="Times,serif" font-size="14.00">1411843878 (job_post_scores(0)$2: Reuse)</text>
</g>
<!-- http://purl.org/dj/kaggle/sql&#45;scavenger&#45;hunt&#45;handbook#1411843878&#45;&gt;http://purl.org/dj/kaggle/sql&#45;scavenger&#45;hunt&#45;handbook#1411778341 -->
<g id="edge25" class="edge">
<title>http://purl.org/dj/kaggle/sql&#45;scavenger&#45;hunt&#45;handbook#1411843878&#45;&gt;http://purl.org/dj/kaggle/sql&#45;scavenger&#45;hunt&#45;handbook#1411778341</title>
<path fill="none" stroke="black" d="M629.55,-1145.75C614.09,-1133 592.84,-1115.46 575.83,-1101.42"/>
<polygon fill="black" stroke="black" points="577.8,-1098.5 567.86,-1094.84 573.34,-1103.9 577.8,-1098.5"/>
<text text-anchor="middle" x="628.9" y="-1116.75" font-family="Times,serif" font-size="14.00">to_csv ()</text>
</g>
<!-- http://purl.org/dj/kaggle/sql&#45;scavenger&#45;hunt&#45;handbook#1727268938 -->
<g id="node18" class="node">
<title>http://purl.org/dj/kaggle/sql&#45;scavenger&#45;hunt&#45;handbook#1727268938</title>
<ellipse fill="none" stroke="black" cx="816.4" cy="-1022.95" rx="170.07" ry="18"/>
<text text-anchor="middle" x="816.4" y="-1019.25" font-family="Times,serif" font-size="14.00">1727268938 (job_post_scores.csv(0): Reuse)</text>
</g>
<!-- http://purl.org/dj/kaggle/sql&#45;scavenger&#45;hunt&#45;handbook#1411843878&#45;&gt;http://purl.org/dj/kaggle/sql&#45;scavenger&#45;hunt&#45;handbook#1727268938 -->
<g id="edge26" class="edge">
<title>http://purl.org/dj/kaggle/sql&#45;scavenger&#45;hunt&#45;handbook#1411843878&#45;&gt;http://purl.org/dj/kaggle/sql&#45;scavenger&#45;hunt&#45;handbook#1727268938</title>
<path fill="none" stroke="black" d="M670.75,-1145.91C700.2,-1121.25 754.81,-1075.52 788.15,-1047.61"/>
<polygon fill="black" stroke="black" points="790.71,-1050.02 796.13,-1040.92 786.22,-1044.66 790.71,-1050.02"/>
<text text-anchor="middle" x="732.9" y="-1116.75" font-family="Times,serif" font-size="14.00">to_csv ()</text>
</g>
<!-- http://purl.org/dj/kaggle/sql&#45;scavenger&#45;hunt&#45;handbook#1727268938&#45;&gt;http://purl.org/dj/kaggle/sql&#45;scavenger&#45;hunt&#45;handbook -->
<g id="edge27" class="edge">
<title>http://purl.org/dj/kaggle/sql&#45;scavenger&#45;hunt&#45;handbook#1727268938&#45;&gt;http://purl.org/dj/kaggle/sql&#45;scavenger&#45;hunt&#45;handbook</title>
<path fill="none" stroke="black" d="M835.38,-1004.95C852.96,-987.25 876.4,-957.78 876.4,-926.45 876.4,-926.45 876.4,-926.45 876.4,-104 876.4,-73.73 806.58,-51.21 743.06,-36.98"/>
<polygon fill="black" stroke="black" points="743.44,-33.48 732.93,-34.76 741.95,-40.32 743.44,-33.48"/>
<text text-anchor="middle" x="909.4" y="-543.78" font-family="Times,serif" font-size="14.00">appearsIn ()</text>
</g>
</g>
</svg>
