<?xml version="1.0" encoding="UTF-8" standalone="no"?>
<!DOCTYPE svg PUBLIC "-//W3C//DTD SVG 1.1//EN"
 "http://www.w3.org/Graphics/SVG/1.1/DTD/svg11.dtd">
<!-- Generated by graphviz version 2.44.1 (20200629.0846)
 -->
<!-- Pages: 1 -->
<svg width="1468pt" height="1169pt"
 viewBox="0.00 0.00 1467.53 1168.95" xmlns="http://www.w3.org/2000/svg" xmlns:xlink="http://www.w3.org/1999/xlink">
<g id="graph0" class="graph" transform="scale(1 1) rotate(0) translate(4 1164.95)">
<polygon fill="white" stroke="transparent" points="-4,4 -4,-1164.95 1463.53,-1164.95 1463.53,4 -4,4"/>
<!-- http://purl.org/dj/kaggle/sql&#45;scavenger&#45;hunt&#45;handbook#870581600 -->
<g id="node1" class="node">
<title>http://purl.org/dj/kaggle/sql&#45;scavenger&#45;hunt&#45;handbook#870581600</title>
<ellipse fill="none" stroke="black" cx="413.24" cy="-279" rx="149.47" ry="18"/>
<text text-anchor="middle" x="413.24" y="-275.3" font-family="Times,serif" font-size="14.00">870581600 (hacker_news(0)$0: Reuse)</text>
</g>
<!-- http://purl.org/dj/kaggle/sql&#45;scavenger&#45;hunt&#45;handbook#870581600&#45;&gt;http://purl.org/dj/kaggle/sql&#45;scavenger&#45;hunt&#45;handbook#870581600 -->
<g id="edge1" class="edge">
<title>http://purl.org/dj/kaggle/sql&#45;scavenger&#45;hunt&#45;handbook#870581600&#45;&gt;http://purl.org/dj/kaggle/sql&#45;scavenger&#45;hunt&#45;handbook#870581600</title>
<path fill="none" stroke="black" d="M551.54,-285.88C569.13,-284.68 580.73,-282.38 580.73,-279 580.73,-276.33 573.51,-274.34 561.82,-273.03"/>
<polygon fill="black" stroke="black" points="561.81,-269.51 551.54,-272.12 561.2,-276.49 561.81,-269.51"/>
<text text-anchor="middle" x="626.23" y="-275.3" font-family="Times,serif" font-size="14.00">BigQueryHelper</text>
</g>
<!-- http://purl.org/dj/kaggle/sql&#45;scavenger&#45;hunt&#45;handbook#1825900637 -->
<g id="node2" class="node">
<title>http://purl.org/dj/kaggle/sql&#45;scavenger&#45;hunt&#45;handbook#1825900637</title>
<ellipse fill="none" stroke="black" cx="845.24" cy="-192" rx="172.77" ry="18"/>
<text text-anchor="middle" x="845.24" y="-188.3" font-family="Times,serif" font-size="14.00">1825900637 (bigquery&#45;public&#45;data(0): Reuse)</text>
</g>
<!-- http://purl.org/dj/kaggle/sql&#45;scavenger&#45;hunt&#45;handbook#870581600&#45;&gt;http://purl.org/dj/kaggle/sql&#45;scavenger&#45;hunt&#45;handbook#1825900637 -->
<g id="edge2" class="edge">
<title>http://purl.org/dj/kaggle/sql&#45;scavenger&#45;hunt&#45;handbook#870581600&#45;&gt;http://purl.org/dj/kaggle/sql&#45;scavenger&#45;hunt&#45;handbook#1825900637</title>
<path fill="none" stroke="black" d="M488,-263.29C563.15,-248.5 678.92,-225.73 758.17,-210.13"/>
<polygon fill="black" stroke="black" points="758.99,-213.54 768.13,-208.17 757.64,-206.67 758.99,-213.54"/>
<text text-anchor="middle" x="699.74" y="-231.8" font-family="Times,serif" font-size="14.00">BigQueryHelper</text>
</g>
<!-- http://purl.org/dj/kaggle/sql&#45;scavenger&#45;hunt&#45;handbook#509281332 -->
<g id="node3" class="node">
<title>http://purl.org/dj/kaggle/sql&#45;scavenger&#45;hunt&#45;handbook#509281332</title>
<ellipse fill="none" stroke="black" cx="413.24" cy="-192" rx="129.98" ry="18"/>
<text text-anchor="middle" x="413.24" y="-188.3" font-family="Times,serif" font-size="14.00">509281332 (bq_helper(0): Reuse)</text>
</g>
<!-- http://purl.org/dj/kaggle/sql&#45;scavenger&#45;hunt&#45;handbook#870581600&#45;&gt;http://purl.org/dj/kaggle/sql&#45;scavenger&#45;hunt&#45;handbook#509281332 -->
<g id="edge3" class="edge">
<title>http://purl.org/dj/kaggle/sql&#45;scavenger&#45;hunt&#45;handbook#870581600&#45;&gt;http://purl.org/dj/kaggle/sql&#45;scavenger&#45;hunt&#45;handbook#509281332</title>
<path fill="none" stroke="black" d="M413.24,-260.8C413.24,-249.16 413.24,-233.55 413.24,-220.24"/>
<polygon fill="black" stroke="black" points="416.74,-220.18 413.24,-210.18 409.74,-220.18 416.74,-220.18"/>
<text text-anchor="middle" x="458.74" y="-231.8" font-family="Times,serif" font-size="14.00">BigQueryHelper</text>
</g>
<!-- http://purl.org/dj/kaggle/sql&#45;scavenger&#45;hunt&#45;handbook -->
<g id="node4" class="node">
<title>http://purl.org/dj/kaggle/sql&#45;scavenger&#45;hunt&#45;handbook</title>
<ellipse fill="none" stroke="black" cx="780.24" cy="-18" rx="115.08" ry="18"/>
<text text-anchor="middle" x="780.24" y="-14.3" font-family="Times,serif" font-size="14.00">sql&#45;scavenger&#45;hunt&#45;handbook</text>
</g>
<!-- http://purl.org/dj/kaggle/sql&#45;scavenger&#45;hunt&#45;handbook#1825900637&#45;&gt;http://purl.org/dj/kaggle/sql&#45;scavenger&#45;hunt&#45;handbook -->
<g id="edge4" class="edge">
<title>http://purl.org/dj/kaggle/sql&#45;scavenger&#45;hunt&#45;handbook#1825900637&#45;&gt;http://purl.org/dj/kaggle/sql&#45;scavenger&#45;hunt&#45;handbook</title>
<path fill="none" stroke="black" d="M843.14,-173.7C839.36,-146.84 829.8,-94.03 809.24,-54 807.52,-50.64 805.43,-47.32 803.16,-44.13"/>
<polygon fill="black" stroke="black" points="805.82,-41.84 796.92,-36.09 800.29,-46.14 805.82,-41.84"/>
<text text-anchor="middle" x="859.74" y="-101.3" font-family="Times,serif" font-size="14.00">appearsIn</text>
</g>
<!-- http://purl.org/dj/kaggle/sql&#45;scavenger&#45;hunt&#45;handbook#509281332&#45;&gt;http://purl.org/dj/kaggle/sql&#45;scavenger&#45;hunt&#45;handbook -->
<g id="edge5" class="edge">
<title>http://purl.org/dj/kaggle/sql&#45;scavenger&#45;hunt&#45;handbook#509281332&#45;&gt;http://purl.org/dj/kaggle/sql&#45;scavenger&#45;hunt&#45;handbook</title>
<path fill="none" stroke="black" d="M409.45,-173.77C405.52,-150.85 402.61,-110.52 424.24,-87 456.32,-52.13 573.86,-34.75 665.21,-26.36"/>
<polygon fill="black" stroke="black" points="665.72,-29.82 675.37,-25.45 665.1,-22.85 665.72,-29.82"/>
<text text-anchor="middle" x="469.74" y="-101.3" font-family="Times,serif" font-size="14.00">previousActivity</text>
</g>
<!-- http://purl.org/dj/python/lib/306250675 -->
<g id="node5" class="node">
<title>http://purl.org/dj/python/lib/306250675</title>
<ellipse fill="none" stroke="black" cx="644.24" cy="-105" rx="120.48" ry="18"/>
<text text-anchor="middle" x="644.24" y="-101.3" font-family="Times,serif" font-size="14.00">306250675 (bq_helper: Reuse)</text>
</g>
<!-- http://purl.org/dj/kaggle/sql&#45;scavenger&#45;hunt&#45;handbook#509281332&#45;&gt;http://purl.org/dj/python/lib/306250675 -->
<g id="edge6" class="edge">
<title>http://purl.org/dj/kaggle/sql&#45;scavenger&#45;hunt&#45;handbook#509281332&#45;&gt;http://purl.org/dj/python/lib/306250675</title>
<path fill="none" stroke="black" d="M456.69,-175.01C494.92,-160.94 550.7,-140.42 591.48,-125.41"/>
<polygon fill="black" stroke="black" points="592.81,-128.65 600.99,-121.92 590.39,-122.08 592.81,-128.65"/>
<text text-anchor="middle" x="580.74" y="-144.8" font-family="Times,serif" font-size="14.00">assignedFrom</text>
</g>
<!-- http://purl.org/dj/python/lib/306250675&#45;&gt;http://purl.org/dj/kaggle/sql&#45;scavenger&#45;hunt&#45;handbook -->
<g id="edge19" class="edge">
<title>http://purl.org/dj/python/lib/306250675&#45;&gt;http://purl.org/dj/kaggle/sql&#45;scavenger&#45;hunt&#45;handbook</title>
<path fill="none" stroke="black" d="M667.92,-87.29C682.28,-77.33 701.1,-64.61 718.24,-54 725.57,-49.47 733.5,-44.81 741.17,-40.42"/>
<polygon fill="black" stroke="black" points="743.02,-43.4 750,-35.43 739.57,-37.31 743.02,-43.4"/>
<text text-anchor="middle" x="763.74" y="-57.8" font-family="Times,serif" font-size="14.00">previousActivity</text>
</g>
<!-- http://purl.org/dj/kaggle/sql&#45;scavenger&#45;hunt&#45;handbook#870843748 -->
<g id="node6" class="node">
<title>http://purl.org/dj/kaggle/sql&#45;scavenger&#45;hunt&#45;handbook#870843748</title>
<ellipse fill="none" stroke="black" cx="515.24" cy="-686.95" rx="168.97" ry="18"/>
<text text-anchor="middle" x="515.24" y="-683.25" font-family="Times,serif" font-size="14.00">870843748 (hacker_news(0)$4: Preparation)</text>
</g>
<!-- http://purl.org/dj/kaggle/sql&#45;scavenger&#45;hunt&#45;handbook#173802037 -->
<g id="node7" class="node">
<title>http://purl.org/dj/kaggle/sql&#45;scavenger&#45;hunt&#45;handbook#173802037</title>
<ellipse fill="none" stroke="black" cx="107.24" cy="-366" rx="107.48" ry="18"/>
<text text-anchor="middle" x="107.24" y="-362.3" font-family="Times,serif" font-size="14.00">173802037 (full(0): Reuse)</text>
</g>
<!-- http://purl.org/dj/kaggle/sql&#45;scavenger&#45;hunt&#45;handbook#870843748&#45;&gt;http://purl.org/dj/kaggle/sql&#45;scavenger&#45;hunt&#45;handbook#173802037 -->
<g id="edge7" class="edge">
<title>http://purl.org/dj/kaggle/sql&#45;scavenger&#45;hunt&#45;handbook#870843748&#45;&gt;http://purl.org/dj/kaggle/sql&#45;scavenger&#45;hunt&#45;handbook#173802037</title>
<path fill="none" stroke="black" d="M411.8,-672.7C291.67,-654.94 104.51,-619.11 62.24,-563.95 22.87,-512.58 63.65,-432.92 89.48,-392.46"/>
<polygon fill="black" stroke="black" points="92.48,-394.26 95.04,-383.98 86.63,-390.42 92.48,-394.26"/>
<text text-anchor="middle" x="107.74" y="-522.78" font-family="Times,serif" font-size="14.00">previousActivity</text>
</g>
<!-- http://purl.org/dj/kaggle/sql&#45;scavenger&#45;hunt&#45;handbook#870778211 -->
<g id="node8" class="node">
<title>http://purl.org/dj/kaggle/sql&#45;scavenger&#45;hunt&#45;handbook#870778211</title>
<ellipse fill="none" stroke="black" cx="515.24" cy="-599.95" rx="168.97" ry="18"/>
<text text-anchor="middle" x="515.24" y="-596.25" font-family="Times,serif" font-size="14.00">870778211 (hacker_news(0)$3: Preparation)</text>
</g>
<!-- http://purl.org/dj/kaggle/sql&#45;scavenger&#45;hunt&#45;handbook#870843748&#45;&gt;http://purl.org/dj/kaggle/sql&#45;scavenger&#45;hunt&#45;handbook#870778211 -->
<g id="edge8" class="edge">
<title>http://purl.org/dj/kaggle/sql&#45;scavenger&#45;hunt&#45;handbook#870843748&#45;&gt;http://purl.org/dj/kaggle/sql&#45;scavenger&#45;hunt&#45;handbook#870778211</title>
<path fill="none" stroke="black" d="M515.24,-668.75C515.24,-657.12 515.24,-641.5 515.24,-628.19"/>
<polygon fill="black" stroke="black" points="518.74,-628.13 515.24,-618.13 511.74,-628.13 518.74,-628.13"/>
<text text-anchor="middle" x="528.24" y="-639.75" font-family="Times,serif" font-size="14.00">head</text>
</g>
<!-- http://purl.org/dj/kaggle/sql&#45;scavenger&#45;hunt&#45;handbook#173802037&#45;&gt;http://purl.org/dj/kaggle/sql&#45;scavenger&#45;hunt&#45;handbook -->
<g id="edge9" class="edge">
<title>http://purl.org/dj/kaggle/sql&#45;scavenger&#45;hunt&#45;handbook#173802037&#45;&gt;http://purl.org/dj/kaggle/sql&#45;scavenger&#45;hunt&#45;handbook</title>
<path fill="none" stroke="black" d="M125.78,-348.03C141.06,-332.1 160.24,-306.78 160.24,-280 160.24,-280 160.24,-280 160.24,-104 160.24,-54.12 479.33,-32.06 659.68,-23.58"/>
<polygon fill="black" stroke="black" points="659.93,-27.07 669.75,-23.11 659.6,-20.08 659.93,-27.07"/>
<text text-anchor="middle" x="186.74" y="-188.3" font-family="Times,serif" font-size="14.00">appearsIn</text>
</g>
<!-- http://purl.org/dj/kaggle/sql&#45;scavenger&#45;hunt&#45;handbook#870778211&#45;&gt;http://purl.org/dj/kaggle/sql&#45;scavenger&#45;hunt&#45;handbook#1825900637 -->
<g id="edge10" class="edge">
<title>http://purl.org/dj/kaggle/sql&#45;scavenger&#45;hunt&#45;handbook#870778211&#45;&gt;http://purl.org/dj/kaggle/sql&#45;scavenger&#45;hunt&#45;handbook#1825900637</title>
<path fill="none" stroke="black" d="M637.18,-587.46C670.37,-582.16 700.65,-574.6 713.24,-563.95 820.26,-473.46 840.53,-289.97 844.35,-220.5"/>
<polygon fill="black" stroke="black" points="847.86,-220.51 844.84,-210.36 840.86,-220.18 847.86,-220.51"/>
<text text-anchor="middle" x="871.74" y="-362.3" font-family="Times,serif" font-size="14.00">previousActivity</text>
</g>
<!-- http://purl.org/dj/kaggle/sql&#45;scavenger&#45;hunt&#45;handbook#870778211&#45;&gt;http://purl.org/dj/kaggle/sql&#45;scavenger&#45;hunt&#45;handbook#509281332 -->
<g id="edge11" class="edge">
<title>http://purl.org/dj/kaggle/sql&#45;scavenger&#45;hunt&#45;handbook#870778211&#45;&gt;http://purl.org/dj/kaggle/sql&#45;scavenger&#45;hunt&#45;handbook#509281332</title>
<path fill="none" stroke="black" d="M475.08,-582.38C411.54,-553.4 291.71,-486.64 259.24,-384 242.75,-331.85 225.17,-306.69 255.24,-261 271.77,-235.9 299.71,-220.02 327.55,-210"/>
<polygon fill="black" stroke="black" points="329.01,-213.2 337.37,-206.69 326.78,-206.57 329.01,-213.2"/>
<text text-anchor="middle" x="304.74" y="-362.3" font-family="Times,serif" font-size="14.00">previousActivity</text>
</g>
<!-- http://purl.org/dj/kaggle/sql&#45;scavenger&#45;hunt&#45;handbook#870778211&#45;&gt;http://purl.org/dj/python/lib/306250675 -->
<g id="edge13" class="edge">
<title>http://purl.org/dj/kaggle/sql&#45;scavenger&#45;hunt&#45;handbook#870778211&#45;&gt;http://purl.org/dj/python/lib/306250675</title>
<path fill="none" stroke="black" d="M567.48,-582.83C621.87,-562.41 699.24,-521.51 699.24,-454 699.24,-454 699.24,-454 699.24,-321.5 699.24,-269.43 676.19,-260.44 663.24,-210 656.64,-184.26 651.42,-154.38 648.14,-133.26"/>
<polygon fill="black" stroke="black" points="651.56,-132.46 646.61,-123.09 644.64,-133.5 651.56,-132.46"/>
<text text-anchor="middle" x="744.74" y="-318.8" font-family="Times,serif" font-size="14.00">previousActivity</text>
</g>
<!-- http://purl.org/dj/kaggle/sql&#45;scavenger&#45;hunt&#45;handbook#870778211&#45;&gt;http://purl.org/dj/kaggle/sql&#45;scavenger&#45;hunt&#45;handbook#173802037 -->
<g id="edge12" class="edge">
<title>http://purl.org/dj/kaggle/sql&#45;scavenger&#45;hunt&#45;handbook#870778211&#45;&gt;http://purl.org/dj/kaggle/sql&#45;scavenger&#45;hunt&#45;handbook#173802037</title>
<path fill="none" stroke="black" d="M374.83,-589.9C318.46,-584.5 261,-576.24 236.24,-563.95 184.45,-538.27 176.08,-519.91 145.24,-471 130.09,-446.96 119.76,-416.01 113.74,-394.15"/>
<polygon fill="black" stroke="black" points="117.06,-392.99 111.13,-384.21 110.29,-394.77 117.06,-392.99"/>
<text text-anchor="middle" x="190.74" y="-449.3" font-family="Times,serif" font-size="14.00">previousActivity</text>
</g>
<!-- http://purl.org/dj/kaggle/sql&#45;scavenger&#45;hunt&#45;handbook#870712674 -->
<g id="node9" class="node">
<title>http://purl.org/dj/kaggle/sql&#45;scavenger&#45;hunt&#45;handbook#870712674</title>
<ellipse fill="none" stroke="black" cx="508.24" cy="-453" rx="149.47" ry="18"/>
<text text-anchor="middle" x="508.24" y="-449.3" font-family="Times,serif" font-size="14.00">870712674 (hacker_news(0)$2: Reuse)</text>
</g>
<!-- http://purl.org/dj/kaggle/sql&#45;scavenger&#45;hunt&#45;handbook#870778211&#45;&gt;http://purl.org/dj/kaggle/sql&#45;scavenger&#45;hunt&#45;handbook#870712674 -->
<g id="edge14" class="edge">
<title>http://purl.org/dj/kaggle/sql&#45;scavenger&#45;hunt&#45;handbook#870778211&#45;&gt;http://purl.org/dj/kaggle/sql&#45;scavenger&#45;hunt&#45;handbook#870712674</title>
<path fill="none" stroke="black" d="M514.41,-581.76C513.21,-556.91 510.98,-510.72 509.55,-481.22"/>
<polygon fill="black" stroke="black" points="513.05,-480.99 509.07,-471.17 506.06,-481.33 513.05,-480.99"/>
<text text-anchor="middle" x="527.24" y="-522.78" font-family="Times,serif" font-size="14.00">head</text>
</g>
<!-- http://purl.org/dj/kaggle/sql&#45;scavenger&#45;hunt&#45;handbook#870712674&#45;&gt;http://purl.org/dj/kaggle/sql&#45;scavenger&#45;hunt&#45;handbook#173802037 -->
<g id="edge27" class="edge">
<title>http://purl.org/dj/kaggle/sql&#45;scavenger&#45;hunt&#45;handbook#870712674&#45;&gt;http://purl.org/dj/kaggle/sql&#45;scavenger&#45;hunt&#45;handbook#173802037</title>
<path fill="none" stroke="black" d="M437.93,-437.1C365.96,-421.84 254.55,-398.23 181.26,-382.69"/>
<polygon fill="black" stroke="black" points="181.68,-379.2 171.17,-380.55 180.23,-386.05 181.68,-379.2"/>
<text text-anchor="middle" x="369.74" y="-405.8" font-family="Times,serif" font-size="14.00">table_schema</text>
</g>
<!-- http://purl.org/dj/kaggle/sql&#45;scavenger&#45;hunt&#45;handbook#870647137 -->
<g id="node16" class="node">
<title>http://purl.org/dj/kaggle/sql&#45;scavenger&#45;hunt&#45;handbook#870647137</title>
<ellipse fill="none" stroke="black" cx="508.24" cy="-366" rx="149.47" ry="18"/>
<text text-anchor="middle" x="508.24" y="-362.3" font-family="Times,serif" font-size="14.00">870647137 (hacker_news(0)$1: Reuse)</text>
</g>
<!-- http://purl.org/dj/kaggle/sql&#45;scavenger&#45;hunt&#45;handbook#870712674&#45;&gt;http://purl.org/dj/kaggle/sql&#45;scavenger&#45;hunt&#45;handbook#870647137 -->
<g id="edge28" class="edge">
<title>http://purl.org/dj/kaggle/sql&#45;scavenger&#45;hunt&#45;handbook#870712674&#45;&gt;http://purl.org/dj/kaggle/sql&#45;scavenger&#45;hunt&#45;handbook#870647137</title>
<path fill="none" stroke="black" d="M508.24,-434.8C508.24,-423.16 508.24,-407.55 508.24,-394.24"/>
<polygon fill="black" stroke="black" points="511.74,-394.18 508.24,-384.18 504.74,-394.18 511.74,-394.18"/>
<text text-anchor="middle" x="545.74" y="-405.8" font-family="Times,serif" font-size="14.00">table_schema</text>
</g>
<!-- http://purl.org/dj/kaggle/sql&#45;scavenger&#45;hunt&#45;handbook#870909285 -->
<g id="node10" class="node">
<title>http://purl.org/dj/kaggle/sql&#45;scavenger&#45;hunt&#45;handbook#870909285</title>
<ellipse fill="none" stroke="black" cx="735.24" cy="-773.95" rx="149.47" ry="18"/>
<text text-anchor="middle" x="735.24" y="-770.25" font-family="Times,serif" font-size="14.00">870909285 (hacker_news(0)$5: Reuse)</text>
</g>
<!-- http://purl.org/dj/kaggle/sql&#45;scavenger&#45;hunt&#45;handbook#870909285&#45;&gt;http://purl.org/dj/kaggle/sql&#45;scavenger&#45;hunt&#45;handbook#870843748 -->
<g id="edge15" class="edge">
<title>http://purl.org/dj/kaggle/sql&#45;scavenger&#45;hunt&#45;handbook#870909285&#45;&gt;http://purl.org/dj/kaggle/sql&#45;scavenger&#45;hunt&#45;handbook#870843748</title>
<path fill="none" stroke="black" d="M658.04,-758.51C636.91,-753.3 614.3,-746.53 594.24,-737.95 577.43,-730.77 560.12,-720.23 546,-710.68"/>
<polygon fill="black" stroke="black" points="547.87,-707.71 537.66,-704.9 543.89,-713.47 547.87,-707.71"/>
<text text-anchor="middle" x="650.24" y="-726.75" font-family="Times,serif" font-size="14.00">estimate_query_size</text>
</g>
<!-- http://purl.org/dj/kaggle/sql&#45;scavenger&#45;hunt&#45;handbook#870909285&#45;&gt;http://purl.org/dj/kaggle/sql&#45;scavenger&#45;hunt&#45;handbook#870778211 -->
<g id="edge16" class="edge">
<title>http://purl.org/dj/kaggle/sql&#45;scavenger&#45;hunt&#45;handbook#870909285&#45;&gt;http://purl.org/dj/kaggle/sql&#45;scavenger&#45;hunt&#45;handbook#870778211</title>
<path fill="none" stroke="black" d="M732.67,-755.86C728.38,-733.11 717.7,-692.96 693.24,-668.95 668.74,-644.91 634.86,-629.19 603.22,-618.99"/>
<polygon fill="black" stroke="black" points="604.08,-615.59 593.49,-616 602.02,-622.28 604.08,-615.59"/>
<text text-anchor="middle" x="761.74" y="-683.25" font-family="Times,serif" font-size="14.00">previousActivity</text>
</g>
<!-- http://purl.org/dj/kaggle/sql&#45;scavenger&#45;hunt&#45;handbook#338166540 -->
<g id="node11" class="node">
<title>http://purl.org/dj/kaggle/sql&#45;scavenger&#45;hunt&#45;handbook#338166540</title>
<ellipse fill="none" stroke="black" cx="996.24" cy="-686.95" rx="124.28" ry="18"/>
<text text-anchor="middle" x="996.24" y="-683.25" font-family="Times,serif" font-size="14.00">338166540 (query(0)$0: Reuse)</text>
</g>
<!-- http://purl.org/dj/kaggle/sql&#45;scavenger&#45;hunt&#45;handbook#870909285&#45;&gt;http://purl.org/dj/kaggle/sql&#45;scavenger&#45;hunt&#45;handbook#338166540 -->
<g id="edge17" class="edge">
<title>http://purl.org/dj/kaggle/sql&#45;scavenger&#45;hunt&#45;handbook#870909285&#45;&gt;http://purl.org/dj/kaggle/sql&#45;scavenger&#45;hunt&#45;handbook#338166540</title>
<path fill="none" stroke="black" d="M751.23,-755.9C762.68,-744.74 779.06,-730.83 796.24,-722.95 822.18,-711.06 851.71,-703.19 879.98,-697.98"/>
<polygon fill="black" stroke="black" points="880.66,-701.42 889.91,-696.25 879.46,-694.52 880.66,-701.42"/>
<text text-anchor="middle" x="852.24" y="-726.75" font-family="Times,serif" font-size="14.00">estimate_query_size</text>
</g>
<!-- http://purl.org/dj/kaggle/sql&#45;scavenger&#45;hunt&#45;handbook#759176595 -->
<g id="node12" class="node">
<title>http://purl.org/dj/kaggle/sql&#45;scavenger&#45;hunt&#45;handbook#759176595</title>
<ellipse fill="none" stroke="black" cx="1046.24" cy="-526.48" rx="228.29" ry="37.45"/>
<text text-anchor="middle" x="1046.24" y="-537.78" font-family="Times,serif" font-size="14.00">759176595 (SELECT score</text>
<text text-anchor="middle" x="1046.24" y="-522.78" font-family="Times,serif" font-size="14.00"> &#160;&#160;&#160;&#160;&#160;&#160;&#160;&#160;&#160;&#160;&#160;FROM `bigquery&#45;public&#45;data.hacker_news.full`</text>
<text text-anchor="middle" x="1046.24" y="-507.78" font-family="Times,serif" font-size="14.00"> &#160;&#160;&#160;&#160;&#160;&#160;&#160;&#160;&#160;&#160;&#160;WHERE type = &quot;job&quot; (0): Reuse)</text>
</g>
<!-- http://purl.org/dj/kaggle/sql&#45;scavenger&#45;hunt&#45;handbook#338166540&#45;&gt;http://purl.org/dj/kaggle/sql&#45;scavenger&#45;hunt&#45;handbook#759176595 -->
<g id="edge18" class="edge">
<title>http://purl.org/dj/kaggle/sql&#45;scavenger&#45;hunt&#45;handbook#338166540&#45;&gt;http://purl.org/dj/kaggle/sql&#45;scavenger&#45;hunt&#45;handbook#759176595</title>
<path fill="none" stroke="black" d="M1001.69,-668.69C1008.82,-646.08 1021.6,-605.57 1031.65,-573.72"/>
<polygon fill="black" stroke="black" points="1035,-574.73 1034.67,-564.14 1028.32,-572.63 1035,-574.73"/>
<text text-anchor="middle" x="1049.74" y="-639.75" font-family="Times,serif" font-size="14.00">assignedFrom</text>
</g>
<!-- http://purl.org/dj/kaggle/sql&#45;scavenger&#45;hunt&#45;handbook#759176595&#45;&gt;http://purl.org/dj/kaggle/sql&#45;scavenger&#45;hunt&#45;handbook -->
<g id="edge20" class="edge">
<title>http://purl.org/dj/kaggle/sql&#45;scavenger&#45;hunt&#45;handbook#759176595&#45;&gt;http://purl.org/dj/kaggle/sql&#45;scavenger&#45;hunt&#45;handbook</title>
<path fill="none" stroke="black" d="M1046.24,-488.97C1046.24,-466.37 1046.24,-436.75 1046.24,-410.5 1046.24,-410.5 1046.24,-410.5 1046.24,-104 1046.24,-67.29 953.14,-44.26 877.1,-31.58"/>
<polygon fill="black" stroke="black" points="877.4,-28.09 866.97,-29.94 876.28,-34.99 877.4,-28.09"/>
<text text-anchor="middle" x="1091.74" y="-275.3" font-family="Times,serif" font-size="14.00">previousActivity</text>
</g>
<!-- http://purl.org/dj/kaggle/sql&#45;scavenger&#45;hunt&#45;handbook#1411712804 -->
<g id="node13" class="node">
<title>http://purl.org/dj/kaggle/sql&#45;scavenger&#45;hunt&#45;handbook#1411712804</title>
<ellipse fill="none" stroke="black" cx="1072.24" cy="-947.95" rx="165.17" ry="18"/>
<text text-anchor="middle" x="1072.24" y="-944.25" font-family="Times,serif" font-size="14.00">1411712804 (job_post_scores(0)$0: Reuse)</text>
</g>
<!-- http://purl.org/dj/kaggle/sql&#45;scavenger&#45;hunt&#45;handbook#1411712804&#45;&gt;http://purl.org/dj/kaggle/sql&#45;scavenger&#45;hunt&#45;handbook#338166540 -->
<g id="edge21" class="edge">
<title>http://purl.org/dj/kaggle/sql&#45;scavenger&#45;hunt&#45;handbook#1411712804&#45;&gt;http://purl.org/dj/kaggle/sql&#45;scavenger&#45;hunt&#45;handbook#338166540</title>
<path fill="none" stroke="black" d="M1074.6,-929.73C1078.57,-895.16 1083.86,-815.51 1058.24,-755.95 1050.97,-739.06 1037.71,-723.61 1025.3,-711.72"/>
<polygon fill="black" stroke="black" points="1027.49,-708.98 1017.76,-704.8 1022.76,-714.14 1027.49,-708.98"/>
<text text-anchor="middle" x="1135.74" y="-813.75" font-family="Times,serif" font-size="14.00">query_to_pandas_safe</text>
</g>
<!-- http://purl.org/dj/kaggle/sql&#45;scavenger&#45;hunt&#45;handbook#870974822 -->
<g id="node14" class="node">
<title>http://purl.org/dj/kaggle/sql&#45;scavenger&#45;hunt&#45;handbook#870974822</title>
<ellipse fill="none" stroke="black" cx="895.24" cy="-860.95" rx="149.47" ry="18"/>
<text text-anchor="middle" x="895.24" y="-857.25" font-family="Times,serif" font-size="14.00">870974822 (hacker_news(0)$6: Reuse)</text>
</g>
<!-- http://purl.org/dj/kaggle/sql&#45;scavenger&#45;hunt&#45;handbook#1411712804&#45;&gt;http://purl.org/dj/kaggle/sql&#45;scavenger&#45;hunt&#45;handbook#870974822 -->
<g id="edge22" class="edge">
<title>http://purl.org/dj/kaggle/sql&#45;scavenger&#45;hunt&#45;handbook#1411712804&#45;&gt;http://purl.org/dj/kaggle/sql&#45;scavenger&#45;hunt&#45;handbook#870974822</title>
<path fill="none" stroke="black" d="M984.35,-932.59C967.93,-927.62 951.47,-920.93 937.24,-911.95 927.36,-905.72 918.63,-896.4 911.72,-887.49"/>
<polygon fill="black" stroke="black" points="914.39,-885.22 905.68,-879.19 908.73,-889.33 914.39,-885.22"/>
<text text-anchor="middle" x="997.74" y="-900.75" font-family="Times,serif" font-size="14.00">query_to_pandas_safe</text>
</g>
<!-- http://purl.org/dj/kaggle/sql&#45;scavenger&#45;hunt&#45;handbook#870974822&#45;&gt;http://purl.org/dj/kaggle/sql&#45;scavenger&#45;hunt&#45;handbook#870909285 -->
<g id="edge23" class="edge">
<title>http://purl.org/dj/kaggle/sql&#45;scavenger&#45;hunt&#45;handbook#870974822&#45;&gt;http://purl.org/dj/kaggle/sql&#45;scavenger&#45;hunt&#45;handbook#870909285</title>
<path fill="none" stroke="black" d="M831.75,-844.65C816.58,-839.59 800.85,-833.11 787.24,-824.95 775.99,-818.22 765.25,-808.63 756.48,-799.65"/>
<polygon fill="black" stroke="black" points="759,-797.22 749.6,-792.32 753.89,-802.01 759,-797.22"/>
<text text-anchor="middle" x="847.74" y="-813.75" font-family="Times,serif" font-size="14.00">query_to_pandas_safe</text>
</g>
<!-- http://purl.org/dj/kaggle/sql&#45;scavenger&#45;hunt&#45;handbook#870974822&#45;&gt;http://purl.org/dj/kaggle/sql&#45;scavenger&#45;hunt&#45;handbook#338166540 -->
<g id="edge24" class="edge">
<title>http://purl.org/dj/kaggle/sql&#45;scavenger&#45;hunt&#45;handbook#870974822&#45;&gt;http://purl.org/dj/kaggle/sql&#45;scavenger&#45;hunt&#45;handbook#338166540</title>
<path fill="none" stroke="black" d="M901.88,-842.61C912.48,-815.08 932.51,-763.68 937.24,-755.95 946.81,-740.32 960,-724.73 971.48,-712.43"/>
<polygon fill="black" stroke="black" points="974.34,-714.51 978.72,-704.86 969.28,-709.67 974.34,-714.51"/>
<text text-anchor="middle" x="997.74" y="-770.25" font-family="Times,serif" font-size="14.00">query_to_pandas_safe</text>
</g>
<!-- http://purl.org/dj/kaggle/sql&#45;scavenger&#45;hunt&#45;handbook#1727268938 -->
<g id="node15" class="node">
<title>http://purl.org/dj/kaggle/sql&#45;scavenger&#45;hunt&#45;handbook#1727268938</title>
<ellipse fill="none" stroke="black" cx="1289.24" cy="-1001.95" rx="170.07" ry="18"/>
<text text-anchor="middle" x="1289.24" y="-998.25" font-family="Times,serif" font-size="14.00">1727268938 (job_post_scores.csv(0): Reuse)</text>
</g>
<!-- http://purl.org/dj/kaggle/sql&#45;scavenger&#45;hunt&#45;handbook#1727268938&#45;&gt;http://purl.org/dj/kaggle/sql&#45;scavenger&#45;hunt&#45;handbook -->
<g id="edge25" class="edge">
<title>http://purl.org/dj/kaggle/sql&#45;scavenger&#45;hunt&#45;handbook#1727268938&#45;&gt;http://purl.org/dj/kaggle/sql&#45;scavenger&#45;hunt&#45;handbook</title>
<path fill="none" stroke="black" d="M1291.55,-983.74C1293.92,-964.64 1297.24,-932.91 1297.24,-905.45 1297.24,-905.45 1297.24,-905.45 1297.24,-104 1297.24,-63.49 1046.85,-38.2 894.58,-26.56"/>
<polygon fill="black" stroke="black" points="894.48,-23.04 884.24,-25.78 893.95,-30.02 894.48,-23.04"/>
<text text-anchor="middle" x="1342.74" y="-522.78" font-family="Times,serif" font-size="14.00">previousActivity</text>
</g>
<!-- http://purl.org/dj/kaggle/sql&#45;scavenger&#45;hunt&#45;handbook#870647137&#45;&gt;http://purl.org/dj/kaggle/sql&#45;scavenger&#45;hunt&#45;handbook#870581600 -->
<g id="edge26" class="edge">
<title>http://purl.org/dj/kaggle/sql&#45;scavenger&#45;hunt&#45;handbook#870647137&#45;&gt;http://purl.org/dj/kaggle/sql&#45;scavenger&#45;hunt&#45;handbook#870581600</title>
<path fill="none" stroke="black" d="M489.02,-347.8C474.89,-335.16 455.51,-317.82 439.89,-303.85"/>
<polygon fill="black" stroke="black" points="441.9,-300.94 432.11,-296.89 437.23,-306.16 441.9,-300.94"/>
<text text-anchor="middle" x="494.74" y="-318.8" font-family="Times,serif" font-size="14.00">list_tables</text>
</g>
<!-- http://purl.org/dj/kaggle/sql&#45;scavenger&#45;hunt&#45;handbook#1411843878 -->
<g id="node17" class="node">
<title>http://purl.org/dj/kaggle/sql&#45;scavenger&#45;hunt&#45;handbook#1411843878</title>
<ellipse fill="none" stroke="black" cx="1184.24" cy="-1142.95" rx="165.17" ry="18"/>
<text text-anchor="middle" x="1184.24" y="-1139.25" font-family="Times,serif" font-size="14.00">1411843878 (job_post_scores(0)$2: Reuse)</text>
</g>
<!-- http://purl.org/dj/kaggle/sql&#45;scavenger&#45;hunt&#45;handbook#1411843878&#45;&gt;http://purl.org/dj/kaggle/sql&#45;scavenger&#45;hunt&#45;handbook#1727268938 -->
<g id="edge29" class="edge">
<title>http://purl.org/dj/kaggle/sql&#45;scavenger&#45;hunt&#45;handbook#1411843878&#45;&gt;http://purl.org/dj/kaggle/sql&#45;scavenger&#45;hunt&#45;handbook#1727268938</title>
<path fill="none" stroke="black" d="M1207.71,-1125.08C1223.91,-1112.48 1245,-1094.02 1259.24,-1073.95 1268.77,-1060.52 1276.08,-1043.58 1281.09,-1029.62"/>
<polygon fill="black" stroke="black" points="1284.43,-1030.67 1284.33,-1020.08 1277.8,-1028.42 1284.43,-1030.67"/>
<text text-anchor="middle" x="1261.24" y="-1095.75" font-family="Times,serif" font-size="14.00">to_csv</text>
</g>
<!-- http://purl.org/dj/kaggle/sql&#45;scavenger&#45;hunt&#45;handbook#1411778341 -->
<g id="node18" class="node">
<title>http://purl.org/dj/kaggle/sql&#45;scavenger&#45;hunt&#45;handbook#1411778341</title>
<ellipse fill="none" stroke="black" cx="1085.24" cy="-1055.95" rx="165.17" ry="18"/>
<text text-anchor="middle" x="1085.24" y="-1052.25" font-family="Times,serif" font-size="14.00">1411778341 (job_post_scores(0)$1: Reuse)</text>
</g>
<!-- http://purl.org/dj/kaggle/sql&#45;scavenger&#45;hunt&#45;handbook#1411843878&#45;&gt;http://purl.org/dj/kaggle/sql&#45;scavenger&#45;hunt&#45;handbook#1411778341 -->
<g id="edge30" class="edge">
<title>http://purl.org/dj/kaggle/sql&#45;scavenger&#45;hunt&#45;handbook#1411843878&#45;&gt;http://purl.org/dj/kaggle/sql&#45;scavenger&#45;hunt&#45;handbook#1411778341</title>
<path fill="none" stroke="black" d="M1164.21,-1124.75C1149.35,-1112 1128.92,-1094.46 1112.57,-1080.42"/>
<polygon fill="black" stroke="black" points="1114.77,-1077.7 1104.91,-1073.84 1110.21,-1083.01 1114.77,-1077.7"/>
<text text-anchor="middle" x="1158.24" y="-1095.75" font-family="Times,serif" font-size="14.00">to_csv</text>
</g>
<!-- http://purl.org/dj/kaggle/sql&#45;scavenger&#45;hunt&#45;handbook#1411778341&#45;&gt;http://purl.org/dj/kaggle/sql&#45;scavenger&#45;hunt&#45;handbook#1411712804 -->
<g id="edge31" class="edge">
<title>http://purl.org/dj/kaggle/sql&#45;scavenger&#45;hunt&#45;handbook#1411778341&#45;&gt;http://purl.org/dj/kaggle/sql&#45;scavenger&#45;hunt&#45;handbook#1411712804</title>
<path fill="none" stroke="black" d="M1082.07,-1037.9C1081.07,-1032.21 1080.03,-1025.82 1079.24,-1019.95 1077.31,-1005.66 1075.69,-989.69 1074.5,-976.52"/>
<polygon fill="black" stroke="black" points="1077.95,-975.87 1073.59,-966.21 1070.98,-976.48 1077.95,-975.87"/>
<text text-anchor="middle" x="1094.74" y="-998.25" font-family="Times,serif" font-size="14.00">mean</text>
</g>
</g>
</svg>
