<?xml version="1.0" encoding="UTF-8" standalone="no"?>
<!DOCTYPE svg PUBLIC "-//W3C//DTD SVG 1.1//EN"
 "http://www.w3.org/Graphics/SVG/1.1/DTD/svg11.dtd">
<!-- Generated by graphviz version 2.44.1 (20200629.0846)
 -->
<!-- Pages: 1 -->
<svg width="1558pt" height="734pt"
 viewBox="0.00 0.00 1557.83 734.17" xmlns="http://www.w3.org/2000/svg" xmlns:xlink="http://www.w3.org/1999/xlink">
<g id="graph0" class="graph" transform="scale(1 1) rotate(0) translate(4 730.17)">
<polygon fill="white" stroke="transparent" points="-4,4 -4,-730.17 1553.83,-730.17 1553.83,4 -4,4"/>
<!-- http://purl.org/dj/kaggle/sql&#45;scavenger&#45;hunt&#45;day&#45;1#480379835 -->
<g id="node1" class="node">
<title>http://purl.org/dj/kaggle/sql&#45;scavenger&#45;hunt&#45;day&#45;1#480379835</title>
<ellipse fill="none" stroke="black" cx="662.79" cy="-534.17" rx="152.97" ry="18"/>
<text text-anchor="middle" x="662.79" y="-530.47" font-family="Times,serif" font-size="14.00">480379835 (open_aq(0)$2: Preparation)</text>
</g>
<!-- http://purl.org/dj/kaggle/sql&#45;scavenger&#45;hunt&#45;day&#45;1#1561135094 -->
<g id="node2" class="node">
<title>http://purl.org/dj/kaggle/sql&#45;scavenger&#45;hunt&#45;day&#45;1#1561135094</title>
<ellipse fill="none" stroke="black" cx="163.79" cy="-333" rx="163.57" ry="18"/>
<text text-anchor="middle" x="163.79" y="-329.3" font-family="Times,serif" font-size="14.00">1561135094 (global_air_quality(0): Reuse)</text>
</g>
<!-- http://purl.org/dj/kaggle/sql&#45;scavenger&#45;hunt&#45;day&#45;1#480379835&#45;&gt;http://purl.org/dj/kaggle/sql&#45;scavenger&#45;hunt&#45;day&#45;1#1561135094 -->
<g id="edge1" class="edge">
<title>http://purl.org/dj/kaggle/sql&#45;scavenger&#45;hunt&#45;day&#45;1#480379835&#45;&gt;http://purl.org/dj/kaggle/sql&#45;scavenger&#45;hunt&#45;day&#45;1#1561135094</title>
<path fill="none" stroke="black" d="M517.9,-528.44C403.9,-523.54 260.58,-514.26 237.79,-498.17 192.23,-466 174.23,-398.95 167.5,-361.25"/>
<polygon fill="black" stroke="black" points="170.9,-360.31 165.83,-351 163.99,-361.44 170.9,-360.31"/>
<text text-anchor="middle" x="283.29" y="-486.97" font-family="Times,serif" font-size="14.00">previousActivity</text>
</g>
<!-- http://purl.org/dj/kaggle/sql&#45;scavenger&#45;hunt&#45;day&#45;1#1825900637 -->
<g id="node3" class="node">
<title>http://purl.org/dj/kaggle/sql&#45;scavenger&#45;hunt&#45;day&#45;1#1825900637</title>
<ellipse fill="none" stroke="black" cx="821.79" cy="-192" rx="172.77" ry="18"/>
<text text-anchor="middle" x="821.79" y="-188.3" font-family="Times,serif" font-size="14.00">1825900637 (bigquery&#45;public&#45;data(0): Reuse)</text>
</g>
<!-- http://purl.org/dj/kaggle/sql&#45;scavenger&#45;hunt&#45;day&#45;1#480379835&#45;&gt;http://purl.org/dj/kaggle/sql&#45;scavenger&#45;hunt&#45;day&#45;1#1825900637 -->
<g id="edge2" class="edge">
<title>http://purl.org/dj/kaggle/sql&#45;scavenger&#45;hunt&#45;day&#45;1#480379835&#45;&gt;http://purl.org/dj/kaggle/sql&#45;scavenger&#45;hunt&#45;day&#45;1#1825900637</title>
<path fill="none" stroke="black" d="M723.27,-517.58C752.14,-507.21 784.87,-490.67 805.79,-465.17 870.36,-386.43 849.25,-344.05 861.79,-243 862.61,-236.38 864.54,-234.07 861.79,-228 860.03,-224.12 857.6,-220.51 854.81,-217.19"/>
<polygon fill="black" stroke="black" points="857.26,-214.68 847.77,-209.98 852.25,-219.58 857.26,-214.68"/>
<text text-anchor="middle" x="902.29" y="-329.3" font-family="Times,serif" font-size="14.00">previousActivity</text>
</g>
<!-- http://purl.org/dj/kaggle/sql&#45;scavenger&#45;hunt&#45;day&#45;1#292619014 -->
<g id="node4" class="node">
<title>http://purl.org/dj/kaggle/sql&#45;scavenger&#45;hunt&#45;day&#45;1#292619014</title>
<ellipse fill="none" stroke="black" cx="1132.79" cy="-192" rx="120.48" ry="18"/>
<text text-anchor="middle" x="1132.79" y="-188.3" font-family="Times,serif" font-size="14.00">292619014 (openaq(0): Reuse)</text>
</g>
<!-- http://purl.org/dj/kaggle/sql&#45;scavenger&#45;hunt&#45;day&#45;1#480379835&#45;&gt;http://purl.org/dj/kaggle/sql&#45;scavenger&#45;hunt&#45;day&#45;1#292619014 -->
<g id="edge3" class="edge">
<title>http://purl.org/dj/kaggle/sql&#45;scavenger&#45;hunt&#45;day&#45;1#480379835&#45;&gt;http://purl.org/dj/kaggle/sql&#45;scavenger&#45;hunt&#45;day&#45;1#292619014</title>
<path fill="none" stroke="black" d="M733.4,-518.1C752.74,-512.88 773.42,-506.26 791.79,-498.17 939.37,-433.11 1067.33,-279.32 1113.98,-218.44"/>
<polygon fill="black" stroke="black" points="1117.01,-220.24 1120.26,-210.16 1111.43,-216.01 1117.01,-220.24"/>
<text text-anchor="middle" x="1075.29" y="-329.3" font-family="Times,serif" font-size="14.00">previousActivity</text>
</g>
<!-- http://purl.org/dj/kaggle/sql&#45;scavenger&#45;hunt&#45;day&#45;1#509281332 -->
<g id="node5" class="node">
<title>http://purl.org/dj/kaggle/sql&#45;scavenger&#45;hunt&#45;day&#45;1#509281332</title>
<ellipse fill="none" stroke="black" cx="500.79" cy="-192" rx="129.98" ry="18"/>
<text text-anchor="middle" x="500.79" y="-188.3" font-family="Times,serif" font-size="14.00">509281332 (bq_helper(0): Reuse)</text>
</g>
<!-- http://purl.org/dj/kaggle/sql&#45;scavenger&#45;hunt&#45;day&#45;1#480379835&#45;&gt;http://purl.org/dj/kaggle/sql&#45;scavenger&#45;hunt&#45;day&#45;1#509281332 -->
<g id="edge4" class="edge">
<title>http://purl.org/dj/kaggle/sql&#45;scavenger&#45;hunt&#45;day&#45;1#480379835&#45;&gt;http://purl.org/dj/kaggle/sql&#45;scavenger&#45;hunt&#45;day&#45;1#509281332</title>
<path fill="none" stroke="black" d="M597.01,-517.91C568.52,-507.81 537.67,-491.4 519.79,-465.17 468.12,-389.37 483.75,-272.5 494.43,-220.08"/>
<polygon fill="black" stroke="black" points="497.87,-220.7 496.54,-210.19 491.02,-219.24 497.87,-220.7"/>
<text text-anchor="middle" x="530.29" y="-329.3" font-family="Times,serif" font-size="14.00">previousActivity</text>
</g>
<!-- http://purl.org/dj/python/lib/306250675 -->
<g id="node6" class="node">
<title>http://purl.org/dj/python/lib/306250675</title>
<ellipse fill="none" stroke="black" cx="500.79" cy="-105" rx="120.48" ry="18"/>
<text text-anchor="middle" x="500.79" y="-101.3" font-family="Times,serif" font-size="14.00">306250675 (bq_helper: Reuse)</text>
</g>
<!-- http://purl.org/dj/kaggle/sql&#45;scavenger&#45;hunt&#45;day&#45;1#480379835&#45;&gt;http://purl.org/dj/python/lib/306250675 -->
<g id="edge5" class="edge">
<title>http://purl.org/dj/kaggle/sql&#45;scavenger&#45;hunt&#45;day&#45;1#480379835&#45;&gt;http://purl.org/dj/python/lib/306250675</title>
<path fill="none" stroke="black" d="M575.34,-519.3C480.6,-501.74 342.79,-467.68 342.79,-418.08 342.79,-418.08 342.79,-418.08 342.79,-191 342.79,-154.4 376.07,-133.49 412.09,-121.58"/>
<polygon fill="black" stroke="black" points="413.26,-124.88 421.79,-118.6 411.2,-118.19 413.26,-124.88"/>
<text text-anchor="middle" x="388.29" y="-275.3" font-family="Times,serif" font-size="14.00">previousActivity</text>
</g>
<!-- http://purl.org/dj/kaggle/sql&#45;scavenger&#45;hunt&#45;day&#45;1#480314298 -->
<g id="node7" class="node">
<title>http://purl.org/dj/kaggle/sql&#45;scavenger&#45;hunt&#45;day&#45;1#480314298</title>
<ellipse fill="none" stroke="black" cx="662.79" cy="-417.08" rx="133.78" ry="18"/>
<text text-anchor="middle" x="662.79" y="-413.38" font-family="Times,serif" font-size="14.00">480314298 (open_aq(0)$1: Reuse)</text>
</g>
<!-- http://purl.org/dj/kaggle/sql&#45;scavenger&#45;hunt&#45;day&#45;1#480379835&#45;&gt;http://purl.org/dj/kaggle/sql&#45;scavenger&#45;hunt&#45;day&#45;1#480314298 -->
<g id="edge6" class="edge">
<title>http://purl.org/dj/kaggle/sql&#45;scavenger&#45;hunt&#45;day&#45;1#480379835&#45;&gt;http://purl.org/dj/kaggle/sql&#45;scavenger&#45;hunt&#45;day&#45;1#480314298</title>
<path fill="none" stroke="black" d="M662.79,-515.69C662.79,-497.08 662.79,-467.36 662.79,-445.6"/>
<polygon fill="black" stroke="black" points="666.29,-445.35 662.79,-435.35 659.29,-445.35 666.29,-445.35"/>
<text text-anchor="middle" x="675.79" y="-486.97" font-family="Times,serif" font-size="14.00">head</text>
</g>
<!-- http://purl.org/dj/kaggle/sql&#45;scavenger&#45;hunt&#45;day&#45;1 -->
<g id="node8" class="node">
<title>http://purl.org/dj/kaggle/sql&#45;scavenger&#45;hunt&#45;day&#45;1</title>
<ellipse fill="none" stroke="black" cx="757.79" cy="-18" rx="100.98" ry="18"/>
<text text-anchor="middle" x="757.79" y="-14.3" font-family="Times,serif" font-size="14.00">sql&#45;scavenger&#45;hunt&#45;day&#45;1</text>
</g>
<!-- http://purl.org/dj/kaggle/sql&#45;scavenger&#45;hunt&#45;day&#45;1#1561135094&#45;&gt;http://purl.org/dj/kaggle/sql&#45;scavenger&#45;hunt&#45;day&#45;1 -->
<g id="edge7" class="edge">
<title>http://purl.org/dj/kaggle/sql&#45;scavenger&#45;hunt&#45;day&#45;1#1561135094&#45;&gt;http://purl.org/dj/kaggle/sql&#45;scavenger&#45;hunt&#45;day&#45;1</title>
<path fill="none" stroke="black" d="M172.62,-314.91C181.47,-296.18 193.79,-265 193.79,-236.5 193.79,-236.5 193.79,-236.5 193.79,-104 193.79,-58.17 488.72,-34.17 652.03,-24.4"/>
<polygon fill="black" stroke="black" points="652.33,-27.89 662.11,-23.8 651.92,-20.9 652.33,-27.89"/>
<text text-anchor="middle" x="239.29" y="-188.3" font-family="Times,serif" font-size="14.00">previousActivity</text>
</g>
<!-- http://purl.org/dj/kaggle/sql&#45;scavenger&#45;hunt&#45;day&#45;1#1825900637&#45;&gt;http://purl.org/dj/kaggle/sql&#45;scavenger&#45;hunt&#45;day&#45;1 -->
<g id="edge8" class="edge">
<title>http://purl.org/dj/kaggle/sql&#45;scavenger&#45;hunt&#45;day&#45;1#1825900637&#45;&gt;http://purl.org/dj/kaggle/sql&#45;scavenger&#45;hunt&#45;day&#45;1</title>
<path fill="none" stroke="black" d="M815.41,-173.88C804.25,-143.87 781.07,-81.58 767.76,-45.81"/>
<polygon fill="black" stroke="black" points="770.9,-44.2 764.13,-36.05 764.34,-46.64 770.9,-44.2"/>
<text text-anchor="middle" x="842.29" y="-101.3" font-family="Times,serif" font-size="14.00">previousActivity</text>
</g>
<!-- http://purl.org/dj/kaggle/sql&#45;scavenger&#45;hunt&#45;day&#45;1#292619014&#45;&gt;http://purl.org/dj/kaggle/sql&#45;scavenger&#45;hunt&#45;day&#45;1 -->
<g id="edge9" class="edge">
<title>http://purl.org/dj/kaggle/sql&#45;scavenger&#45;hunt&#45;day&#45;1#292619014&#45;&gt;http://purl.org/dj/kaggle/sql&#45;scavenger&#45;hunt&#45;day&#45;1</title>
<path fill="none" stroke="black" d="M1097.17,-174.66C1028.27,-143.06 876.91,-73.64 801.82,-39.2"/>
<polygon fill="black" stroke="black" points="803.17,-35.97 792.62,-34.98 800.25,-42.33 803.17,-35.97"/>
<text text-anchor="middle" x="1028.29" y="-101.3" font-family="Times,serif" font-size="14.00">previousActivity</text>
</g>
<!-- http://purl.org/dj/kaggle/sql&#45;scavenger&#45;hunt&#45;day&#45;1#509281332&#45;&gt;http://purl.org/dj/python/lib/306250675 -->
<g id="edge10" class="edge">
<title>http://purl.org/dj/kaggle/sql&#45;scavenger&#45;hunt&#45;day&#45;1#509281332&#45;&gt;http://purl.org/dj/python/lib/306250675</title>
<path fill="none" stroke="black" d="M500.79,-173.8C500.79,-162.16 500.79,-146.55 500.79,-133.24"/>
<polygon fill="black" stroke="black" points="504.29,-133.18 500.79,-123.18 497.29,-133.18 504.29,-133.18"/>
<text text-anchor="middle" x="539.29" y="-144.8" font-family="Times,serif" font-size="14.00">assignedFrom</text>
</g>
<!-- http://purl.org/dj/kaggle/sql&#45;scavenger&#45;hunt&#45;day&#45;1#509281332&#45;&gt;http://purl.org/dj/kaggle/sql&#45;scavenger&#45;hunt&#45;day&#45;1 -->
<g id="edge11" class="edge">
<title>http://purl.org/dj/kaggle/sql&#45;scavenger&#45;hunt&#45;day&#45;1#509281332&#45;&gt;http://purl.org/dj/kaggle/sql&#45;scavenger&#45;hunt&#45;day&#45;1</title>
<path fill="none" stroke="black" d="M542.32,-174.89C555.22,-169.4 569.32,-162.89 581.79,-156 640.2,-123.7 699.75,-72.78 732.42,-42.96"/>
<polygon fill="black" stroke="black" points="735.15,-45.21 740.13,-35.86 730.4,-40.06 735.15,-45.21"/>
<text text-anchor="middle" x="727.29" y="-101.3" font-family="Times,serif" font-size="14.00">previousActivity</text>
</g>
<!-- http://purl.org/dj/python/lib/306250675&#45;&gt;http://purl.org/dj/kaggle/sql&#45;scavenger&#45;hunt&#45;day&#45;1 -->
<g id="edge12" class="edge">
<title>http://purl.org/dj/python/lib/306250675&#45;&gt;http://purl.org/dj/kaggle/sql&#45;scavenger&#45;hunt&#45;day&#45;1</title>
<path fill="none" stroke="black" d="M519.61,-87.07C532.96,-75.97 551.82,-62.08 570.79,-54 598.91,-42.02 631.13,-34.13 660.82,-28.94"/>
<polygon fill="black" stroke="black" points="661.49,-32.37 670.78,-27.28 660.34,-25.47 661.49,-32.37"/>
<text text-anchor="middle" x="616.29" y="-57.8" font-family="Times,serif" font-size="14.00">previousActivity</text>
</g>
<!-- http://purl.org/dj/kaggle/sql&#45;scavenger&#45;hunt&#45;day&#45;1#480248761 -->
<g id="node9" class="node">
<title>http://purl.org/dj/kaggle/sql&#45;scavenger&#45;hunt&#45;day&#45;1#480248761</title>
<ellipse fill="none" stroke="black" cx="662.79" cy="-279" rx="133.78" ry="18"/>
<text text-anchor="middle" x="662.79" y="-275.3" font-family="Times,serif" font-size="14.00">480248761 (open_aq(0)$0: Reuse)</text>
</g>
<!-- http://purl.org/dj/kaggle/sql&#45;scavenger&#45;hunt&#45;day&#45;1#480314298&#45;&gt;http://purl.org/dj/kaggle/sql&#45;scavenger&#45;hunt&#45;day&#45;1#480248761 -->
<g id="edge13" class="edge">
<title>http://purl.org/dj/kaggle/sql&#45;scavenger&#45;hunt&#45;day&#45;1#480314298&#45;&gt;http://purl.org/dj/kaggle/sql&#45;scavenger&#45;hunt&#45;day&#45;1#480248761</title>
<path fill="none" stroke="black" d="M662.79,-398.85C662.79,-375.74 662.79,-334.47 662.79,-307.16"/>
<polygon fill="black" stroke="black" points="666.29,-307.1 662.79,-297.1 659.29,-307.1 666.29,-307.1"/>
<text text-anchor="middle" x="690.29" y="-329.3" font-family="Times,serif" font-size="14.00">list_tables</text>
</g>
<!-- http://purl.org/dj/kaggle/sql&#45;scavenger&#45;hunt&#45;day&#45;1#480248761&#45;&gt;http://purl.org/dj/kaggle/sql&#45;scavenger&#45;hunt&#45;day&#45;1#1825900637 -->
<g id="edge20" class="edge">
<title>http://purl.org/dj/kaggle/sql&#45;scavenger&#45;hunt&#45;day&#45;1#480248761&#45;&gt;http://purl.org/dj/kaggle/sql&#45;scavenger&#45;hunt&#45;day&#45;1#1825900637</title>
<path fill="none" stroke="black" d="M654.97,-260.96C651.4,-250.38 649.41,-237.1 656.79,-228 663.63,-219.55 680.38,-213.06 700.72,-208.1"/>
<polygon fill="black" stroke="black" points="701.64,-211.48 710.62,-205.86 700.1,-204.65 701.64,-211.48"/>
<text text-anchor="middle" x="702.29" y="-231.8" font-family="Times,serif" font-size="14.00">BigQueryHelper</text>
</g>
<!-- http://purl.org/dj/kaggle/sql&#45;scavenger&#45;hunt&#45;day&#45;1#480248761&#45;&gt;http://purl.org/dj/kaggle/sql&#45;scavenger&#45;hunt&#45;day&#45;1#292619014 -->
<g id="edge21" class="edge">
<title>http://purl.org/dj/kaggle/sql&#45;scavenger&#45;hunt&#45;day&#45;1#480248761&#45;&gt;http://purl.org/dj/kaggle/sql&#45;scavenger&#45;hunt&#45;day&#45;1#292619014</title>
<path fill="none" stroke="black" d="M724.88,-262.94C770.14,-252.29 833.04,-238.15 888.79,-228 916.74,-222.91 981.33,-213.69 1037.04,-205.98"/>
<polygon fill="black" stroke="black" points="1037.54,-209.45 1046.97,-204.61 1036.58,-202.51 1037.54,-209.45"/>
<text text-anchor="middle" x="934.29" y="-231.8" font-family="Times,serif" font-size="14.00">BigQueryHelper</text>
</g>
<!-- http://purl.org/dj/kaggle/sql&#45;scavenger&#45;hunt&#45;day&#45;1#480248761&#45;&gt;http://purl.org/dj/kaggle/sql&#45;scavenger&#45;hunt&#45;day&#45;1#509281332 -->
<g id="edge22" class="edge">
<title>http://purl.org/dj/kaggle/sql&#45;scavenger&#45;hunt&#45;day&#45;1#480248761&#45;&gt;http://purl.org/dj/kaggle/sql&#45;scavenger&#45;hunt&#45;day&#45;1#509281332</title>
<path fill="none" stroke="black" d="M603.51,-262.8C588.09,-257.64 571.87,-251.08 557.79,-243 545.71,-236.07 533.89,-226.34 524.17,-217.3"/>
<polygon fill="black" stroke="black" points="526.49,-214.68 516.86,-210.26 521.64,-219.72 526.49,-214.68"/>
<text text-anchor="middle" x="603.29" y="-231.8" font-family="Times,serif" font-size="14.00">BigQueryHelper</text>
</g>
<!-- http://purl.org/dj/kaggle/sql&#45;scavenger&#45;hunt&#45;day&#45;1#677840031 -->
<g id="node10" class="node">
<title>http://purl.org/dj/kaggle/sql&#45;scavenger&#45;hunt&#45;day&#45;1#677840031</title>
<ellipse fill="none" stroke="black" cx="1204.79" cy="-708.17" rx="153.27" ry="18"/>
<text text-anchor="middle" x="1204.79" y="-704.47" font-family="Times,serif" font-size="14.00">677840031 (us_cities(0)$1: Preparation)</text>
</g>
<!-- http://purl.org/dj/kaggle/sql&#45;scavenger&#45;hunt&#45;day&#45;1#677774494 -->
<g id="node11" class="node">
<title>http://purl.org/dj/kaggle/sql&#45;scavenger&#45;hunt&#45;day&#45;1#677774494</title>
<ellipse fill="none" stroke="black" cx="1123.79" cy="-621.17" rx="134.58" ry="18"/>
<text text-anchor="middle" x="1123.79" y="-617.47" font-family="Times,serif" font-size="14.00">677774494 (us_cities(0)$0: Reuse)</text>
</g>
<!-- http://purl.org/dj/kaggle/sql&#45;scavenger&#45;hunt&#45;day&#45;1#677840031&#45;&gt;http://purl.org/dj/kaggle/sql&#45;scavenger&#45;hunt&#45;day&#45;1#677774494 -->
<g id="edge14" class="edge">
<title>http://purl.org/dj/kaggle/sql&#45;scavenger&#45;hunt&#45;day&#45;1#677840031&#45;&gt;http://purl.org/dj/kaggle/sql&#45;scavenger&#45;hunt&#45;day&#45;1#677774494</title>
<path fill="none" stroke="black" d="M1188.39,-689.97C1176.46,-677.44 1160.13,-660.31 1146.88,-646.4"/>
<polygon fill="black" stroke="black" points="1149.31,-643.88 1139.88,-639.05 1144.24,-648.71 1149.31,-643.88"/>
<text text-anchor="middle" x="1181.79" y="-660.97" font-family="Times,serif" font-size="14.00">head</text>
</g>
<!-- http://purl.org/dj/kaggle/sql&#45;scavenger&#45;hunt&#45;day&#45;1#3050185374 -->
<g id="node12" class="node">
<title>http://purl.org/dj/kaggle/sql&#45;scavenger&#45;hunt&#45;day&#45;1#3050185374</title>
<ellipse fill="none" stroke="black" cx="1286.79" cy="-417.08" rx="263.09" ry="48.17"/>
<text text-anchor="middle" x="1286.79" y="-435.88" font-family="Times,serif" font-size="14.00">3050185374 (SELECT city</text>
<text text-anchor="middle" x="1286.79" y="-420.88" font-family="Times,serif" font-size="14.00"> &#160;&#160;&#160;&#160;&#160;&#160;&#160;&#160;&#160;&#160;&#160;FROM `bigquery&#45;public&#45;data.openaq.global_air_quality`</text>
<text text-anchor="middle" x="1286.79" y="-405.88" font-family="Times,serif" font-size="14.00"> &#160;&#160;&#160;&#160;&#160;&#160;&#160;&#160;&#160;&#160;&#160;WHERE country = &#39;US&#39;</text>
<text text-anchor="middle" x="1286.79" y="-390.88" font-family="Times,serif" font-size="14.00"> &#160;&#160;&#160;&#160;&#160;&#160;&#160;(0): Reuse)</text>
</g>
<!-- http://purl.org/dj/kaggle/sql&#45;scavenger&#45;hunt&#45;day&#45;1#677840031&#45;&gt;http://purl.org/dj/kaggle/sql&#45;scavenger&#45;hunt&#45;day&#45;1#3050185374 -->
<g id="edge15" class="edge">
<title>http://purl.org/dj/kaggle/sql&#45;scavenger&#45;hunt&#45;day&#45;1#677840031&#45;&gt;http://purl.org/dj/kaggle/sql&#45;scavenger&#45;hunt&#45;day&#45;1#3050185374</title>
<path fill="none" stroke="black" d="M1226.87,-690.09C1241.2,-677.65 1258.8,-659.48 1267.79,-639.17 1290.75,-587.25 1293.57,-521.85 1291.83,-475.69"/>
<polygon fill="black" stroke="black" points="1295.32,-475.39 1291.37,-465.56 1288.33,-475.71 1295.32,-475.39"/>
<text text-anchor="middle" x="1331.29" y="-573.97" font-family="Times,serif" font-size="14.00">previousActivity</text>
</g>
<!-- http://purl.org/dj/kaggle/sql&#45;scavenger&#45;hunt&#45;day&#45;1#677774494&#45;&gt;http://purl.org/dj/kaggle/sql&#45;scavenger&#45;hunt&#45;day&#45;1#480379835 -->
<g id="edge16" class="edge">
<title>http://purl.org/dj/kaggle/sql&#45;scavenger&#45;hunt&#45;day&#45;1#677774494&#45;&gt;http://purl.org/dj/kaggle/sql&#45;scavenger&#45;hunt&#45;day&#45;1#480379835</title>
<path fill="none" stroke="black" d="M1048.18,-606.23C966.85,-591.23 837.63,-567.41 751.54,-551.53"/>
<polygon fill="black" stroke="black" points="751.99,-548.06 741.52,-549.68 750.72,-554.94 751.99,-548.06"/>
<text text-anchor="middle" x="967.29" y="-573.97" font-family="Times,serif" font-size="14.00">previousActivity</text>
</g>
<!-- http://purl.org/dj/kaggle/sql&#45;scavenger&#45;hunt&#45;day&#45;1#338166540 -->
<g id="node13" class="node">
<title>http://purl.org/dj/kaggle/sql&#45;scavenger&#45;hunt&#45;day&#45;1#338166540</title>
<ellipse fill="none" stroke="black" cx="1131.79" cy="-534.17" rx="124.28" ry="18"/>
<text text-anchor="middle" x="1131.79" y="-530.47" font-family="Times,serif" font-size="14.00">338166540 (query(0)$0: Reuse)</text>
</g>
<!-- http://purl.org/dj/kaggle/sql&#45;scavenger&#45;hunt&#45;day&#45;1#677774494&#45;&gt;http://purl.org/dj/kaggle/sql&#45;scavenger&#45;hunt&#45;day&#45;1#338166540 -->
<g id="edge17" class="edge">
<title>http://purl.org/dj/kaggle/sql&#45;scavenger&#45;hunt&#45;day&#45;1#677774494&#45;&gt;http://purl.org/dj/kaggle/sql&#45;scavenger&#45;hunt&#45;day&#45;1#338166540</title>
<path fill="none" stroke="black" d="M1125.4,-602.97C1126.5,-591.33 1127.97,-575.71 1129.22,-562.4"/>
<polygon fill="black" stroke="black" points="1132.72,-562.63 1130.17,-552.34 1125.75,-561.97 1132.72,-562.63"/>
<text text-anchor="middle" x="1189.29" y="-573.97" font-family="Times,serif" font-size="14.00">query_to_pandas_safe</text>
</g>
<!-- http://purl.org/dj/kaggle/sql&#45;scavenger&#45;hunt&#45;day&#45;1#3050185374&#45;&gt;http://purl.org/dj/kaggle/sql&#45;scavenger&#45;hunt&#45;day&#45;1 -->
<g id="edge18" class="edge">
<title>http://purl.org/dj/kaggle/sql&#45;scavenger&#45;hunt&#45;day&#45;1#3050185374&#45;&gt;http://purl.org/dj/kaggle/sql&#45;scavenger&#45;hunt&#45;day&#45;1</title>
<path fill="none" stroke="black" d="M1287.82,-368.85C1288.31,-342.67 1288.79,-309.54 1288.79,-280 1288.79,-280 1288.79,-280 1288.79,-104 1288.79,-61.21 1016.41,-36.11 861.81,-25.31"/>
<polygon fill="black" stroke="black" points="862.02,-21.82 851.8,-24.62 861.54,-28.8 862.02,-21.82"/>
<text text-anchor="middle" x="1315.29" y="-188.3" font-family="Times,serif" font-size="14.00">appearsIn</text>
</g>
<!-- http://purl.org/dj/kaggle/sql&#45;scavenger&#45;hunt&#45;day&#45;1#338166540&#45;&gt;http://purl.org/dj/kaggle/sql&#45;scavenger&#45;hunt&#45;day&#45;1#3050185374 -->
<g id="edge19" class="edge">
<title>http://purl.org/dj/kaggle/sql&#45;scavenger&#45;hunt&#45;day&#45;1#338166540&#45;&gt;http://purl.org/dj/kaggle/sql&#45;scavenger&#45;hunt&#45;day&#45;1#3050185374</title>
<path fill="none" stroke="black" d="M1152.94,-516.27C1165.33,-506.47 1181.33,-493.97 1195.79,-483.17 1201.56,-478.85 1207.57,-474.41 1213.64,-469.99"/>
<polygon fill="black" stroke="black" points="1215.88,-472.68 1221.91,-463.97 1211.77,-467.02 1215.88,-472.68"/>
<text text-anchor="middle" x="1234.29" y="-486.97" font-family="Times,serif" font-size="14.00">assignedFrom</text>
</g>
</g>
</svg>
