<?xml version="1.0" encoding="UTF-8" standalone="no"?>
<!DOCTYPE svg PUBLIC "-//W3C//DTD SVG 1.1//EN"
 "http://www.w3.org/Graphics/SVG/1.1/DTD/svg11.dtd">
<!-- Generated by graphviz version 2.44.1 (20200629.0846)
 -->
<!-- Pages: 1 -->
<svg width="1393pt" height="668pt"
 viewBox="0.00 0.00 1392.97 668.38" xmlns="http://www.w3.org/2000/svg" xmlns:xlink="http://www.w3.org/1999/xlink">
<g id="graph0" class="graph" transform="scale(1 1) rotate(0) translate(4 664.38)">
<polygon fill="white" stroke="transparent" points="-4,4 -4,-664.38 1388.97,-664.38 1388.97,4 -4,4"/>
<!-- http://purl.org/dj/kaggle/sql&#45;scavenger&#45;hunt&#45;day&#45;2#870647137 -->
<g id="node1" class="node">
<title>http://purl.org/dj/kaggle/sql&#45;scavenger&#45;hunt&#45;day&#45;2#870647137</title>
<ellipse fill="none" stroke="black" cx="742.97" cy="-468.38" rx="168.97" ry="18"/>
<text text-anchor="middle" x="742.97" y="-464.68" font-family="Times,serif" font-size="14.00">870647137 (hacker_news(0)$1: Preparation)</text>
</g>
<!-- http://purl.org/dj/kaggle/sql&#45;scavenger&#45;hunt&#45;day&#45;2#509281332 -->
<g id="node2" class="node">
<title>http://purl.org/dj/kaggle/sql&#45;scavenger&#45;hunt&#45;day&#45;2#509281332</title>
<ellipse fill="none" stroke="black" cx="803.97" cy="-192" rx="129.98" ry="18"/>
<text text-anchor="middle" x="803.97" y="-188.3" font-family="Times,serif" font-size="14.00">509281332 (bq_helper(0): Reuse)</text>
</g>
<!-- http://purl.org/dj/kaggle/sql&#45;scavenger&#45;hunt&#45;day&#45;2#870647137&#45;&gt;http://purl.org/dj/kaggle/sql&#45;scavenger&#45;hunt&#45;day&#45;2#509281332 -->
<g id="edge1" class="edge">
<title>http://purl.org/dj/kaggle/sql&#45;scavenger&#45;hunt&#45;day&#45;2#870647137&#45;&gt;http://purl.org/dj/kaggle/sql&#45;scavenger&#45;hunt&#45;day&#45;2#509281332</title>
<path fill="none" stroke="black" d="M741.81,-450.35C740.05,-417.19 738.58,-341.96 755.97,-282 762.53,-259.38 775.4,-236.03 786.16,-218.92"/>
<polygon fill="black" stroke="black" points="789.37,-220.4 791.87,-210.1 783.5,-216.6 789.37,-220.4"/>
<text text-anchor="middle" x="801.47" y="-336.99" font-family="Times,serif" font-size="14.00">previousActivity</text>
</g>
<!-- http://purl.org/dj/kaggle/sql&#45;scavenger&#45;hunt&#45;day&#45;2#1825900637 -->
<g id="node3" class="node">
<title>http://purl.org/dj/kaggle/sql&#45;scavenger&#45;hunt&#45;day&#45;2#1825900637</title>
<ellipse fill="none" stroke="black" cx="1124.97" cy="-192" rx="172.77" ry="18"/>
<text text-anchor="middle" x="1124.97" y="-188.3" font-family="Times,serif" font-size="14.00">1825900637 (bigquery&#45;public&#45;data(0): Reuse)</text>
</g>
<!-- http://purl.org/dj/kaggle/sql&#45;scavenger&#45;hunt&#45;day&#45;2#870647137&#45;&gt;http://purl.org/dj/kaggle/sql&#45;scavenger&#45;hunt&#45;day&#45;2#1825900637 -->
<g id="edge2" class="edge">
<title>http://purl.org/dj/kaggle/sql&#45;scavenger&#45;hunt&#45;day&#45;2#870647137&#45;&gt;http://purl.org/dj/kaggle/sql&#45;scavenger&#45;hunt&#45;day&#45;2#1825900637</title>
<path fill="none" stroke="black" d="M885.41,-458.65C1033.31,-448.11 1246.69,-428.12 1271.97,-399.38 1306.43,-360.21 1296.59,-328 1271.97,-282 1254.29,-248.96 1218.57,-226.92 1186.78,-213.03"/>
<polygon fill="black" stroke="black" points="1188.07,-209.78 1177.49,-209.16 1185.37,-216.24 1188.07,-209.78"/>
<text text-anchor="middle" x="1339.47" y="-336.99" font-family="Times,serif" font-size="14.00">previousActivity</text>
</g>
<!-- http://purl.org/dj/python/lib/306250675 -->
<g id="node4" class="node">
<title>http://purl.org/dj/python/lib/306250675</title>
<ellipse fill="none" stroke="black" cx="646.97" cy="-105" rx="120.48" ry="18"/>
<text text-anchor="middle" x="646.97" y="-101.3" font-family="Times,serif" font-size="14.00">306250675 (bq_helper: Reuse)</text>
</g>
<!-- http://purl.org/dj/kaggle/sql&#45;scavenger&#45;hunt&#45;day&#45;2#870647137&#45;&gt;http://purl.org/dj/python/lib/306250675 -->
<g id="edge3" class="edge">
<title>http://purl.org/dj/kaggle/sql&#45;scavenger&#45;hunt&#45;day&#45;2#870647137&#45;&gt;http://purl.org/dj/python/lib/306250675</title>
<path fill="none" stroke="black" d="M735.08,-450.4C719.46,-416.01 684.57,-335.37 666.97,-264 655.9,-219.09 650.76,-165.41 648.52,-133.6"/>
<polygon fill="black" stroke="black" points="652,-133.06 647.85,-123.31 645.01,-133.51 652,-133.06"/>
<text text-anchor="middle" x="712.47" y="-242.3" font-family="Times,serif" font-size="14.00">previousActivity</text>
</g>
<!-- http://purl.org/dj/kaggle/sql&#45;scavenger&#45;hunt&#45;day&#45;2#440861672 -->
<g id="node5" class="node">
<title>http://purl.org/dj/kaggle/sql&#45;scavenger&#45;hunt&#45;day&#45;2#440861672</title>
<ellipse fill="none" stroke="black" cx="490.97" cy="-246" rx="131.88" ry="18"/>
<text text-anchor="middle" x="490.97" y="-242.3" font-family="Times,serif" font-size="14.00">440861672 (comments(0): Reuse)</text>
</g>
<!-- http://purl.org/dj/kaggle/sql&#45;scavenger&#45;hunt&#45;day&#45;2#870647137&#45;&gt;http://purl.org/dj/kaggle/sql&#45;scavenger&#45;hunt&#45;day&#45;2#440861672 -->
<g id="edge4" class="edge">
<title>http://purl.org/dj/kaggle/sql&#45;scavenger&#45;hunt&#45;day&#45;2#870647137&#45;&gt;http://purl.org/dj/kaggle/sql&#45;scavenger&#45;hunt&#45;day&#45;2#440861672</title>
<path fill="none" stroke="black" d="M612.59,-456.92C580.49,-451.72 552.1,-443.96 540.97,-432.38 494.24,-383.78 548.49,-343.55 520.97,-282 519.45,-278.58 517.48,-275.25 515.28,-272.08"/>
<polygon fill="black" stroke="black" points="517.98,-269.85 509.06,-264.13 512.46,-274.16 517.98,-269.85"/>
<text text-anchor="middle" x="586.47" y="-421.18" font-family="Times,serif" font-size="14.00">previousActivity</text>
</g>
<!-- http://purl.org/dj/kaggle/sql&#45;scavenger&#45;hunt&#45;day&#45;2#870581600 -->
<g id="node6" class="node">
<title>http://purl.org/dj/kaggle/sql&#45;scavenger&#45;hunt&#45;day&#45;2#870581600</title>
<ellipse fill="none" stroke="black" cx="1004.97" cy="-340.69" rx="149.47" ry="18"/>
<text text-anchor="middle" x="1004.97" y="-336.99" font-family="Times,serif" font-size="14.00">870581600 (hacker_news(0)$0: Reuse)</text>
</g>
<!-- http://purl.org/dj/kaggle/sql&#45;scavenger&#45;hunt&#45;day&#45;2#870647137&#45;&gt;http://purl.org/dj/kaggle/sql&#45;scavenger&#45;hunt&#45;day&#45;2#870581600 -->
<g id="edge5" class="edge">
<title>http://purl.org/dj/kaggle/sql&#45;scavenger&#45;hunt&#45;day&#45;2#870647137&#45;&gt;http://purl.org/dj/kaggle/sql&#45;scavenger&#45;hunt&#45;day&#45;2#870581600</title>
<path fill="none" stroke="black" d="M777.76,-450.69C825.07,-427.99 909.68,-387.4 961.23,-362.67"/>
<polygon fill="black" stroke="black" points="962.95,-365.73 970.45,-358.25 959.92,-359.42 962.95,-365.73"/>
<text text-anchor="middle" x="854.97" y="-421.18" font-family="Times,serif" font-size="14.00">head</text>
</g>
<!-- http://purl.org/dj/kaggle/sql&#45;scavenger&#45;hunt&#45;day&#45;2#509281332&#45;&gt;http://purl.org/dj/python/lib/306250675 -->
<g id="edge6" class="edge">
<title>http://purl.org/dj/kaggle/sql&#45;scavenger&#45;hunt&#45;day&#45;2#509281332&#45;&gt;http://purl.org/dj/python/lib/306250675</title>
<path fill="none" stroke="black" d="M755.6,-175.28C741.48,-169.93 726.28,-163.41 712.97,-156 699.43,-148.46 685.58,-138.41 674.1,-129.29"/>
<polygon fill="black" stroke="black" points="676.15,-126.45 666.19,-122.86 671.74,-131.88 676.15,-126.45"/>
<text text-anchor="middle" x="751.47" y="-144.8" font-family="Times,serif" font-size="14.00">assignedFrom</text>
</g>
<!-- http://purl.org/dj/kaggle/sql&#45;scavenger&#45;hunt&#45;day&#45;2 -->
<g id="node7" class="node">
<title>http://purl.org/dj/kaggle/sql&#45;scavenger&#45;hunt&#45;day&#45;2</title>
<ellipse fill="none" stroke="black" cx="646.97" cy="-18" rx="100.98" ry="18"/>
<text text-anchor="middle" x="646.97" y="-14.3" font-family="Times,serif" font-size="14.00">sql&#45;scavenger&#45;hunt&#45;day&#45;2</text>
</g>
<!-- http://purl.org/dj/kaggle/sql&#45;scavenger&#45;hunt&#45;day&#45;2#509281332&#45;&gt;http://purl.org/dj/kaggle/sql&#45;scavenger&#45;hunt&#45;day&#45;2 -->
<g id="edge7" class="edge">
<title>http://purl.org/dj/kaggle/sql&#45;scavenger&#45;hunt&#45;day&#45;2#509281332&#45;&gt;http://purl.org/dj/kaggle/sql&#45;scavenger&#45;hunt&#45;day&#45;2</title>
<path fill="none" stroke="black" d="M803.35,-173.72C801.72,-151.49 795.97,-112.66 775.97,-87 758.24,-64.24 730.74,-48.27 705.68,-37.56"/>
<polygon fill="black" stroke="black" points="706.8,-34.24 696.22,-33.7 704.16,-40.72 706.8,-34.24"/>
<text text-anchor="middle" x="838.47" y="-101.3" font-family="Times,serif" font-size="14.00">previousActivity</text>
</g>
<!-- http://purl.org/dj/kaggle/sql&#45;scavenger&#45;hunt&#45;day&#45;2#1825900637&#45;&gt;http://purl.org/dj/kaggle/sql&#45;scavenger&#45;hunt&#45;day&#45;2 -->
<g id="edge8" class="edge">
<title>http://purl.org/dj/kaggle/sql&#45;scavenger&#45;hunt&#45;day&#45;2#1825900637&#45;&gt;http://purl.org/dj/kaggle/sql&#45;scavenger&#45;hunt&#45;day&#45;2</title>
<path fill="none" stroke="black" d="M1091.04,-174.32C1045.56,-152.39 961.99,-113.54 887.97,-87 830.35,-66.34 763.21,-47.84 714.45,-35.37"/>
<polygon fill="black" stroke="black" points="715.2,-31.95 704.65,-32.88 713.48,-38.73 715.2,-31.95"/>
<text text-anchor="middle" x="1002.47" y="-101.3" font-family="Times,serif" font-size="14.00">appearsIn</text>
</g>
<!-- http://purl.org/dj/python/lib/306250675&#45;&gt;http://purl.org/dj/kaggle/sql&#45;scavenger&#45;hunt&#45;day&#45;2 -->
<g id="edge9" class="edge">
<title>http://purl.org/dj/python/lib/306250675&#45;&gt;http://purl.org/dj/kaggle/sql&#45;scavenger&#45;hunt&#45;day&#45;2</title>
<path fill="none" stroke="black" d="M646.97,-86.8C646.97,-75.16 646.97,-59.55 646.97,-46.24"/>
<polygon fill="black" stroke="black" points="650.47,-46.18 646.97,-36.18 643.47,-46.18 650.47,-46.18"/>
<text text-anchor="middle" x="679.97" y="-57.8" font-family="Times,serif" font-size="14.00">importedBy</text>
</g>
<!-- http://purl.org/dj/kaggle/sql&#45;scavenger&#45;hunt&#45;day&#45;2#440861672&#45;&gt;http://purl.org/dj/kaggle/sql&#45;scavenger&#45;hunt&#45;day&#45;2 -->
<g id="edge10" class="edge">
<title>http://purl.org/dj/kaggle/sql&#45;scavenger&#45;hunt&#45;day&#45;2#440861672&#45;&gt;http://purl.org/dj/kaggle/sql&#45;scavenger&#45;hunt&#45;day&#45;2</title>
<path fill="none" stroke="black" d="M489.28,-227.94C487.1,-196.8 486.77,-130.03 517.97,-87 534.71,-63.92 561.69,-47.99 586.65,-37.38"/>
<polygon fill="black" stroke="black" points="588.13,-40.56 596.1,-33.57 585.51,-34.07 588.13,-40.56"/>
<text text-anchor="middle" x="540.47" y="-144.8" font-family="Times,serif" font-size="14.00">previousActivity</text>
</g>
<!-- http://purl.org/dj/kaggle/sql&#45;scavenger&#45;hunt&#45;day&#45;2#870581600&#45;&gt;http://purl.org/dj/kaggle/sql&#45;scavenger&#45;hunt&#45;day&#45;2#509281332 -->
<g id="edge11" class="edge">
<title>http://purl.org/dj/kaggle/sql&#45;scavenger&#45;hunt&#45;day&#45;2#870581600&#45;&gt;http://purl.org/dj/kaggle/sql&#45;scavenger&#45;hunt&#45;day&#45;2#509281332</title>
<path fill="none" stroke="black" d="M981.92,-322.86C945.81,-296.52 875.88,-245.48 835.27,-215.84"/>
<polygon fill="black" stroke="black" points="837.21,-212.92 827.07,-209.86 833.08,-218.58 837.21,-212.92"/>
<text text-anchor="middle" x="943.47" y="-242.3" font-family="Times,serif" font-size="14.00">BigQueryHelper</text>
</g>
<!-- http://purl.org/dj/kaggle/sql&#45;scavenger&#45;hunt&#45;day&#45;2#870581600&#45;&gt;http://purl.org/dj/kaggle/sql&#45;scavenger&#45;hunt&#45;day&#45;2#1825900637 -->
<g id="edge12" class="edge">
<title>http://purl.org/dj/kaggle/sql&#45;scavenger&#45;hunt&#45;day&#45;2#870581600&#45;&gt;http://purl.org/dj/kaggle/sql&#45;scavenger&#45;hunt&#45;day&#45;2#1825900637</title>
<path fill="none" stroke="black" d="M1018.97,-322.58C1040.11,-296.74 1080.28,-247.64 1104.64,-217.86"/>
<polygon fill="black" stroke="black" points="1107.44,-219.96 1111.06,-210.01 1102.02,-215.53 1107.44,-219.96"/>
<text text-anchor="middle" x="1141.47" y="-242.3" font-family="Times,serif" font-size="14.00">BigQueryHelper</text>
</g>
<!-- http://purl.org/dj/kaggle/sql&#45;scavenger&#45;hunt&#45;day&#45;2#870581600&#45;&gt;http://purl.org/dj/kaggle/sql&#45;scavenger&#45;hunt&#45;day&#45;2#870581600 -->
<g id="edge13" class="edge">
<title>http://purl.org/dj/kaggle/sql&#45;scavenger&#45;hunt&#45;day&#45;2#870581600&#45;&gt;http://purl.org/dj/kaggle/sql&#45;scavenger&#45;hunt&#45;day&#45;2#870581600</title>
<path fill="none" stroke="black" d="M1087.27,-355.76C1131.79,-358.39 1172.46,-353.36 1172.46,-340.69 1172.46,-328.98 1137.75,-323.8 1097.36,-325.15"/>
<polygon fill="black" stroke="black" points="1097.1,-321.66 1087.27,-325.61 1097.42,-328.65 1097.1,-321.66"/>
<text text-anchor="middle" x="1217.96" y="-336.99" font-family="Times,serif" font-size="14.00">BigQueryHelper</text>
</g>
<!-- http://purl.org/dj/kaggle/sql&#45;scavenger&#45;hunt&#45;day&#45;2#338166540 -->
<g id="node8" class="node">
<title>http://purl.org/dj/kaggle/sql&#45;scavenger&#45;hunt&#45;day&#45;2#338166540</title>
<ellipse fill="none" stroke="black" cx="423.97" cy="-468.38" rx="124.28" ry="18"/>
<text text-anchor="middle" x="423.97" y="-464.68" font-family="Times,serif" font-size="14.00">338166540 (query(0)$0: Reuse)</text>
</g>
<!-- http://purl.org/dj/kaggle/sql&#45;scavenger&#45;hunt&#45;day&#45;2#812984855 -->
<g id="node9" class="node">
<title>http://purl.org/dj/kaggle/sql&#45;scavenger&#45;hunt&#45;day&#45;2#812984855</title>
<ellipse fill="none" stroke="black" cx="255.97" cy="-340.69" rx="255.95" ry="58.88"/>
<text text-anchor="middle" x="255.97" y="-366.99" font-family="Times,serif" font-size="14.00">812984855 (SELECT parent, COUNT(id)</text>
<text text-anchor="middle" x="255.97" y="-351.99" font-family="Times,serif" font-size="14.00"> &#160;&#160;&#160;&#160;&#160;&#160;&#160;&#160;&#160;&#160;&#160;FROM `bigquery&#45;public&#45;data.hacker_news.comments`</text>
<text text-anchor="middle" x="255.97" y="-336.99" font-family="Times,serif" font-size="14.00"> &#160;&#160;&#160;&#160;&#160;&#160;&#160;&#160;&#160;&#160;&#160;GROUP BY parent</text>
<text text-anchor="middle" x="255.97" y="-321.99" font-family="Times,serif" font-size="14.00"> &#160;&#160;&#160;&#160;&#160;&#160;&#160;&#160;&#160;&#160;&#160;HAVING COUNT(id) &gt; 10</text>
<text text-anchor="middle" x="255.97" y="-306.99" font-family="Times,serif" font-size="14.00"> &#160;&#160;&#160;&#160;&#160;&#160;&#160;(0): Reuse)</text>
</g>
<!-- http://purl.org/dj/kaggle/sql&#45;scavenger&#45;hunt&#45;day&#45;2#338166540&#45;&gt;http://purl.org/dj/kaggle/sql&#45;scavenger&#45;hunt&#45;day&#45;2#812984855 -->
<g id="edge14" class="edge">
<title>http://purl.org/dj/kaggle/sql&#45;scavenger&#45;hunt&#45;day&#45;2#338166540&#45;&gt;http://purl.org/dj/kaggle/sql&#45;scavenger&#45;hunt&#45;day&#45;2#812984855</title>
<path fill="none" stroke="black" d="M401.32,-450.43C384.81,-438.08 361.36,-420.54 338.1,-403.13"/>
<polygon fill="black" stroke="black" points="340,-400.18 329.89,-396.99 335.8,-405.79 340,-400.18"/>
<text text-anchor="middle" x="413.47" y="-421.18" font-family="Times,serif" font-size="14.00">assignedFrom</text>
</g>
<!-- http://purl.org/dj/kaggle/sql&#45;scavenger&#45;hunt&#45;day&#45;2#812984855&#45;&gt;http://purl.org/dj/kaggle/sql&#45;scavenger&#45;hunt&#45;day&#45;2 -->
<g id="edge15" class="edge">
<title>http://purl.org/dj/kaggle/sql&#45;scavenger&#45;hunt&#45;day&#45;2#812984855&#45;&gt;http://purl.org/dj/kaggle/sql&#45;scavenger&#45;hunt&#45;day&#45;2</title>
<path fill="none" stroke="black" d="M295.05,-282.48C342.91,-216.98 430.15,-111.36 530.97,-54 544.47,-46.32 559.83,-40.16 574.86,-35.28"/>
<polygon fill="black" stroke="black" points="576.14,-38.55 584.66,-32.25 574.07,-31.86 576.14,-38.55"/>
<text text-anchor="middle" x="442.47" y="-144.8" font-family="Times,serif" font-size="14.00">appearsIn</text>
</g>
<!-- http://purl.org/dj/kaggle/sql&#45;scavenger&#45;hunt&#45;day&#45;2#1445267266 -->
<g id="node10" class="node">
<title>http://purl.org/dj/kaggle/sql&#45;scavenger&#45;hunt&#45;day&#45;2#1445267266</title>
<ellipse fill="none" stroke="black" cx="271.97" cy="-642.38" rx="181.17" ry="18"/>
<text text-anchor="middle" x="271.97" y="-638.68" font-family="Times,serif" font-size="14.00">1445267266 (popular_stories(0)$1: Preparation)</text>
</g>
<!-- http://purl.org/dj/kaggle/sql&#45;scavenger&#45;hunt&#45;day&#45;2#1445267266&#45;&gt;http://purl.org/dj/kaggle/sql&#45;scavenger&#45;hunt&#45;day&#45;2#812984855 -->
<g id="edge16" class="edge">
<title>http://purl.org/dj/kaggle/sql&#45;scavenger&#45;hunt&#45;day&#45;2#1445267266&#45;&gt;http://purl.org/dj/kaggle/sql&#45;scavenger&#45;hunt&#45;day&#45;2#812984855</title>
<path fill="none" stroke="black" d="M271.04,-623.97C268.86,-583.13 263.32,-479.36 259.6,-409.67"/>
<polygon fill="black" stroke="black" points="263.1,-409.45 259.07,-399.65 256.11,-409.82 263.1,-409.45"/>
<text text-anchor="middle" x="311.47" y="-508.18" font-family="Times,serif" font-size="14.00">previousActivity</text>
</g>
<!-- http://purl.org/dj/kaggle/sql&#45;scavenger&#45;hunt&#45;day&#45;2#1445201729 -->
<g id="node11" class="node">
<title>http://purl.org/dj/kaggle/sql&#45;scavenger&#45;hunt&#45;day&#45;2#1445201729</title>
<ellipse fill="none" stroke="black" cx="445.97" cy="-555.38" rx="162.47" ry="18"/>
<text text-anchor="middle" x="445.97" y="-551.68" font-family="Times,serif" font-size="14.00">1445201729 (popular_stories(0)$0: Reuse)</text>
</g>
<!-- http://purl.org/dj/kaggle/sql&#45;scavenger&#45;hunt&#45;day&#45;2#1445267266&#45;&gt;http://purl.org/dj/kaggle/sql&#45;scavenger&#45;hunt&#45;day&#45;2#1445201729 -->
<g id="edge17" class="edge">
<title>http://purl.org/dj/kaggle/sql&#45;scavenger&#45;hunt&#45;day&#45;2#1445267266&#45;&gt;http://purl.org/dj/kaggle/sql&#45;scavenger&#45;hunt&#45;day&#45;2#1445201729</title>
<path fill="none" stroke="black" d="M306.35,-624.59C333.96,-611.1 372.91,-592.07 402.66,-577.54"/>
<polygon fill="black" stroke="black" points="404.51,-580.53 411.96,-572.99 401.44,-574.24 404.51,-580.53"/>
<text text-anchor="middle" x="382.97" y="-595.18" font-family="Times,serif" font-size="14.00">head</text>
</g>
<!-- http://purl.org/dj/kaggle/sql&#45;scavenger&#45;hunt&#45;day&#45;2#1445201729&#45;&gt;http://purl.org/dj/kaggle/sql&#45;scavenger&#45;hunt&#45;day&#45;2#870647137 -->
<g id="edge18" class="edge">
<title>http://purl.org/dj/kaggle/sql&#45;scavenger&#45;hunt&#45;day&#45;2#1445201729&#45;&gt;http://purl.org/dj/kaggle/sql&#45;scavenger&#45;hunt&#45;day&#45;2#870647137</title>
<path fill="none" stroke="black" d="M501.84,-538.39C551.64,-524.14 624.59,-503.26 677.2,-488.2"/>
<polygon fill="black" stroke="black" points="678.46,-491.48 687.11,-485.37 676.53,-484.75 678.46,-491.48"/>
<text text-anchor="middle" x="673.47" y="-508.18" font-family="Times,serif" font-size="14.00">query_to_pandas_safe</text>
</g>
<!-- http://purl.org/dj/kaggle/sql&#45;scavenger&#45;hunt&#45;day&#45;2#1445201729&#45;&gt;http://purl.org/dj/kaggle/sql&#45;scavenger&#45;hunt&#45;day&#45;2#338166540 -->
<g id="edge19" class="edge">
<title>http://purl.org/dj/kaggle/sql&#45;scavenger&#45;hunt&#45;day&#45;2#1445201729&#45;&gt;http://purl.org/dj/kaggle/sql&#45;scavenger&#45;hunt&#45;day&#45;2#338166540</title>
<path fill="none" stroke="black" d="M441.52,-537.18C438.51,-525.54 434.47,-509.93 431.02,-496.62"/>
<polygon fill="black" stroke="black" points="434.31,-495.36 428.42,-486.56 427.54,-497.11 434.31,-495.36"/>
<text text-anchor="middle" x="497.47" y="-508.18" font-family="Times,serif" font-size="14.00">query_to_pandas_safe</text>
</g>
</g>
</svg>
