<?xml version="1.0" encoding="UTF-8" standalone="no"?>
<!DOCTYPE svg PUBLIC "-//W3C//DTD SVG 1.1//EN"
 "http://www.w3.org/Graphics/SVG/1.1/DTD/svg11.dtd">
<!-- Generated by graphviz version 2.44.1 (20200629.0846)
 -->
<!-- Pages: 1 -->
<svg width="2673pt" height="413pt"
 viewBox="0.00 0.00 2672.76 413.00" xmlns="http://www.w3.org/2000/svg" xmlns:xlink="http://www.w3.org/1999/xlink">
<g id="graph0" class="graph" transform="scale(1 1) rotate(0) translate(4 409)">
<polygon fill="white" stroke="transparent" points="-4,4 -4,-409 2668.76,-409 2668.76,4 -4,4"/>
<!-- http://purl.org/dj/kaggle/student&#45;performance&#45;correlation#127074770 -->
<g id="node1" class="node">
<title>http://purl.org/dj/kaggle/student&#45;performance&#45;correlation#127074770</title>
<ellipse fill="none" stroke="black" cx="1229.92" cy="-105" rx="104.78" ry="18"/>
<text text-anchor="middle" x="1229.92" y="-101.3" font-family="Times,serif" font-size="14.00">127074770 (plt(0): Reuse)</text>
</g>
<!-- http://purl.org/dj/kaggle/student&#45;performance&#45;correlation -->
<g id="node2" class="node">
<title>http://purl.org/dj/kaggle/student&#45;performance&#45;correlation</title>
<ellipse fill="none" stroke="black" cx="1642.92" cy="-18" rx="124.58" ry="18"/>
<text text-anchor="middle" x="1642.92" y="-14.3" font-family="Times,serif" font-size="14.00">student&#45;performance&#45;correlation</text>
</g>
<!-- http://purl.org/dj/kaggle/student&#45;performance&#45;correlation#127074770&#45;&gt;http://purl.org/dj/kaggle/student&#45;performance&#45;correlation -->
<g id="edge1" class="edge">
<title>http://purl.org/dj/kaggle/student&#45;performance&#45;correlation#127074770&#45;&gt;http://purl.org/dj/kaggle/student&#45;performance&#45;correlation</title>
<path fill="none" stroke="black" d="M1294.45,-90.72C1367.44,-75.7 1486.3,-51.23 1564.56,-35.13"/>
<polygon fill="black" stroke="black" points="1565.29,-38.55 1574.37,-33.11 1563.87,-31.7 1565.29,-38.55"/>
<text text-anchor="middle" x="1485.42" y="-57.8" font-family="Times,serif" font-size="14.00">previous</text>
</g>
<!-- http://purl.org/dj/kaggle/student&#45;performance&#45;correlation#198115882 -->
<g id="node3" class="node">
<title>http://purl.org/dj/kaggle/student&#45;performance&#45;correlation#198115882</title>
<ellipse fill="none" stroke="black" cx="770.92" cy="-387" rx="115.08" ry="18"/>
<text text-anchor="middle" x="770.92" y="-383.3" font-family="Times,serif" font-size="14.00">198115882 (sns(0)$0: Reuse)</text>
</g>
<!-- http://purl.org/dj/kaggle/student&#45;performance&#45;correlation#128123297 -->
<g id="node4" class="node">
<title>http://purl.org/dj/kaggle/student&#45;performance&#45;correlation#128123297</title>
<ellipse fill="none" stroke="black" cx="770.92" cy="-300" rx="129.98" ry="18"/>
<text text-anchor="middle" x="770.92" y="-296.3" font-family="Times,serif" font-size="14.00">128123297 (df(0)$1: Preparation)</text>
</g>
<!-- http://purl.org/dj/kaggle/student&#45;performance&#45;correlation#198115882&#45;&gt;http://purl.org/dj/kaggle/student&#45;performance&#45;correlation#128123297 -->
<g id="edge2" class="edge">
<title>http://purl.org/dj/kaggle/student&#45;performance&#45;correlation#198115882&#45;&gt;http://purl.org/dj/kaggle/student&#45;performance&#45;correlation#128123297</title>
<path fill="none" stroke="black" d="M770.92,-368.8C770.92,-357.16 770.92,-341.55 770.92,-328.24"/>
<polygon fill="black" stroke="black" points="774.42,-328.18 770.92,-318.18 767.42,-328.18 774.42,-328.18"/>
<text text-anchor="middle" x="794.42" y="-339.8" font-family="Times,serif" font-size="14.00">previous</text>
</g>
<!-- http://purl.org/dj/kaggle/student&#45;performance&#45;correlation#128057760 -->
<g id="node5" class="node">
<title>http://purl.org/dj/kaggle/student&#45;performance&#45;correlation#128057760</title>
<ellipse fill="none" stroke="black" cx="770.92" cy="-213" rx="128.88" ry="18"/>
<text text-anchor="middle" x="770.92" y="-209.3" font-family="Times,serif" font-size="14.00">128057760 (df(0)$0: Movement)</text>
</g>
<!-- http://purl.org/dj/kaggle/student&#45;performance&#45;correlation#128123297&#45;&gt;http://purl.org/dj/kaggle/student&#45;performance&#45;correlation#128057760 -->
<g id="edge3" class="edge">
<title>http://purl.org/dj/kaggle/student&#45;performance&#45;correlation#128123297&#45;&gt;http://purl.org/dj/kaggle/student&#45;performance&#45;correlation#128057760</title>
<path fill="none" stroke="black" d="M770.92,-281.8C770.92,-270.16 770.92,-254.55 770.92,-241.24"/>
<polygon fill="black" stroke="black" points="774.42,-241.18 770.92,-231.18 767.42,-241.18 774.42,-241.18"/>
<text text-anchor="middle" x="794.42" y="-252.8" font-family="Times,serif" font-size="14.00">previous</text>
</g>
<!-- http://purl.org/dj/kaggle/student&#45;performance&#45;correlation#717297769 -->
<g id="node6" class="node">
<title>http://purl.org/dj/kaggle/student&#45;performance&#45;correlation#717297769</title>
<ellipse fill="none" stroke="black" cx="326.92" cy="-105" rx="326.84" ry="18"/>
<text text-anchor="middle" x="326.92" y="-101.3" font-family="Times,serif" font-size="14.00">717297769 (../input/students&#45;performance&#45;in&#45;exams/StudentsPerformance.csv(0): Reuse)</text>
</g>
<!-- http://purl.org/dj/kaggle/student&#45;performance&#45;correlation#128057760&#45;&gt;http://purl.org/dj/kaggle/student&#45;performance&#45;correlation#717297769 -->
<g id="edge4" class="edge">
<title>http://purl.org/dj/kaggle/student&#45;performance&#45;correlation#128057760&#45;&gt;http://purl.org/dj/kaggle/student&#45;performance&#45;correlation#717297769</title>
<path fill="none" stroke="black" d="M708.72,-197.15C629.66,-178.28 493.1,-145.67 406.53,-125.01"/>
<polygon fill="black" stroke="black" points="407.29,-121.59 396.75,-122.67 405.66,-128.4 407.29,-121.59"/>
<text text-anchor="middle" x="638.42" y="-155.3" font-family="Times,serif" font-size="14.00">previous</text>
</g>
<!-- http://purl.org/dj/kaggle/student&#45;performance&#45;correlation#80085334 -->
<g id="node7" class="node">
<title>http://purl.org/dj/kaggle/student&#45;performance&#45;correlation#80085334</title>
<ellipse fill="none" stroke="black" cx="770.92" cy="-105" rx="99.38" ry="18"/>
<text text-anchor="middle" x="770.92" y="-101.3" font-family="Times,serif" font-size="14.00">80085334 (pd(0): Reuse)</text>
</g>
<!-- http://purl.org/dj/kaggle/student&#45;performance&#45;correlation#128057760&#45;&gt;http://purl.org/dj/kaggle/student&#45;performance&#45;correlation#80085334 -->
<g id="edge5" class="edge">
<title>http://purl.org/dj/kaggle/student&#45;performance&#45;correlation#128057760&#45;&gt;http://purl.org/dj/kaggle/student&#45;performance&#45;correlation#80085334</title>
<path fill="none" stroke="black" d="M770.92,-194.97C770.92,-178.38 770.92,-152.88 770.92,-133.43"/>
<polygon fill="black" stroke="black" points="774.42,-133.34 770.92,-123.34 767.42,-133.34 774.42,-133.34"/>
<text text-anchor="middle" x="794.42" y="-155.3" font-family="Times,serif" font-size="14.00">previous</text>
</g>
<!-- http://purl.org/dj/python/lib/144966264 -->
<g id="node8" class="node">
<title>http://purl.org/dj/python/lib/144966264</title>
<ellipse fill="none" stroke="black" cx="997.92" cy="-105" rx="109.38" ry="18"/>
<text text-anchor="middle" x="997.92" y="-101.3" font-family="Times,serif" font-size="14.00">144966264 (pandas: Reuse)</text>
</g>
<!-- http://purl.org/dj/kaggle/student&#45;performance&#45;correlation#128057760&#45;&gt;http://purl.org/dj/python/lib/144966264 -->
<g id="edge6" class="edge">
<title>http://purl.org/dj/kaggle/student&#45;performance&#45;correlation#128057760&#45;&gt;http://purl.org/dj/python/lib/144966264</title>
<path fill="none" stroke="black" d="M805.89,-195.67C845.75,-177.06 910.95,-146.61 954.15,-126.44"/>
<polygon fill="black" stroke="black" points="955.7,-129.58 963.28,-122.17 952.74,-123.23 955.7,-129.58"/>
<text text-anchor="middle" x="942.42" y="-155.3" font-family="Times,serif" font-size="14.00">previous</text>
</g>
<!-- http://purl.org/dj/kaggle/student&#45;performance&#45;correlation#717297769&#45;&gt;http://purl.org/dj/kaggle/student&#45;performance&#45;correlation -->
<g id="edge7" class="edge">
<title>http://purl.org/dj/kaggle/student&#45;performance&#45;correlation#717297769&#45;&gt;http://purl.org/dj/kaggle/student&#45;performance&#45;correlation</title>
<path fill="none" stroke="black" d="M503.27,-89.83C638.13,-79.23 828.7,-64.77 995.92,-54 1176.72,-42.35 1386.1,-31.51 1516.55,-25.07"/>
<polygon fill="black" stroke="black" points="1516.77,-28.56 1526.58,-24.57 1516.42,-21.57 1516.77,-28.56"/>
<text text-anchor="middle" x="1019.42" y="-57.8" font-family="Times,serif" font-size="14.00">previous</text>
</g>
<!-- http://purl.org/dj/kaggle/student&#45;performance&#45;correlation#80085334&#45;&gt;http://purl.org/dj/kaggle/student&#45;performance&#45;correlation -->
<g id="edge11" class="edge">
<title>http://purl.org/dj/kaggle/student&#45;performance&#45;correlation#80085334&#45;&gt;http://purl.org/dj/kaggle/student&#45;performance&#45;correlation</title>
<path fill="none" stroke="black" d="M842.09,-92.37C854.67,-90.46 867.67,-88.59 879.92,-87 1105.52,-57.65 1370.33,-37.16 1521.2,-26.79"/>
<polygon fill="black" stroke="black" points="1521.68,-30.27 1531.42,-26.1 1521.2,-23.29 1521.68,-30.27"/>
<text text-anchor="middle" x="1196.42" y="-57.8" font-family="Times,serif" font-size="14.00">previous</text>
</g>
<!-- http://purl.org/dj/python/lib/144966264&#45;&gt;http://purl.org/dj/kaggle/student&#45;performance&#45;correlation -->
<g id="edge12" class="edge">
<title>http://purl.org/dj/python/lib/144966264&#45;&gt;http://purl.org/dj/kaggle/student&#45;performance&#45;correlation</title>
<path fill="none" stroke="black" d="M1076.93,-92.51C1089.95,-90.65 1103.31,-88.76 1115.92,-87 1224.74,-71.83 1251.96,-68.1 1360.92,-54 1420.44,-46.3 1487.08,-38.01 1540.63,-31.44"/>
<polygon fill="black" stroke="black" points="1541.31,-34.88 1550.81,-30.19 1540.46,-27.93 1541.31,-34.88"/>
<text text-anchor="middle" x="1384.42" y="-57.8" font-family="Times,serif" font-size="14.00">previous</text>
</g>
<!-- http://purl.org/dj/kaggle/student&#45;performance&#45;correlation#196018726 -->
<g id="node9" class="node">
<title>http://purl.org/dj/kaggle/student&#45;performance&#45;correlation#196018726</title>
<ellipse fill="none" stroke="black" cx="1373.92" cy="-213" rx="137.58" ry="18"/>
<text text-anchor="middle" x="1373.92" y="-209.3" font-family="Times,serif" font-size="14.00">196018726 (plt(0)$0: Visualisation)</text>
</g>
<!-- http://purl.org/dj/kaggle/student&#45;performance&#45;correlation#196018726&#45;&gt;http://purl.org/dj/kaggle/student&#45;performance&#45;correlation#127074770 -->
<g id="edge8" class="edge">
<title>http://purl.org/dj/kaggle/student&#45;performance&#45;correlation#196018726&#45;&gt;http://purl.org/dj/kaggle/student&#45;performance&#45;correlation#127074770</title>
<path fill="none" stroke="black" d="M1341.63,-195.38C1331.84,-189.91 1321.22,-183.55 1311.92,-177 1291.73,-162.78 1270.71,-144.49 1255.01,-130.04"/>
<polygon fill="black" stroke="black" points="1257.01,-127.13 1247.31,-122.88 1252.24,-132.25 1257.01,-127.13"/>
<text text-anchor="middle" x="1335.42" y="-155.3" font-family="Times,serif" font-size="14.00">previous</text>
</g>
<!-- http://purl.org/dj/python/lib/1065617167 -->
<g id="node10" class="node">
<title>http://purl.org/dj/python/lib/1065617167</title>
<ellipse fill="none" stroke="black" cx="1502.92" cy="-105" rx="150.57" ry="18"/>
<text text-anchor="middle" x="1502.92" y="-101.3" font-family="Times,serif" font-size="14.00">1065617167 (matplotlib.pyplot: Reuse)</text>
</g>
<!-- http://purl.org/dj/kaggle/student&#45;performance&#45;correlation#196018726&#45;&gt;http://purl.org/dj/python/lib/1065617167 -->
<g id="edge9" class="edge">
<title>http://purl.org/dj/kaggle/student&#45;performance&#45;correlation#196018726&#45;&gt;http://purl.org/dj/python/lib/1065617167</title>
<path fill="none" stroke="black" d="M1367.18,-194.95C1362.22,-179.28 1358.16,-156.25 1369.92,-141 1375.61,-133.62 1390.19,-127.49 1407.72,-122.53"/>
<polygon fill="black" stroke="black" points="1408.94,-125.82 1417.72,-119.89 1407.15,-119.06 1408.94,-125.82"/>
<text text-anchor="middle" x="1393.42" y="-155.3" font-family="Times,serif" font-size="14.00">previous</text>
</g>
<!-- http://purl.org/dj/python/lib/1065617167&#45;&gt;http://purl.org/dj/kaggle/student&#45;performance&#45;correlation -->
<g id="edge10" class="edge">
<title>http://purl.org/dj/python/lib/1065617167&#45;&gt;http://purl.org/dj/kaggle/student&#45;performance&#45;correlation</title>
<path fill="none" stroke="black" d="M1530.58,-87.21C1552.34,-73.99 1582.85,-55.47 1606.59,-41.06"/>
<polygon fill="black" stroke="black" points="1608.59,-43.94 1615.32,-35.76 1604.95,-37.96 1608.59,-43.94"/>
<text text-anchor="middle" x="1605.42" y="-57.8" font-family="Times,serif" font-size="14.00">previous</text>
</g>
<!-- http://purl.org/dj/kaggle/student&#45;performance&#45;correlation#196084263 -->
<g id="node11" class="node">
<title>http://purl.org/dj/kaggle/student&#45;performance&#45;correlation#196084263</title>
<ellipse fill="none" stroke="black" cx="1536.92" cy="-300" rx="131.88" ry="18"/>
<text text-anchor="middle" x="1536.92" y="-296.3" font-family="Times,serif" font-size="14.00">196084263 (plt(0)$1: Preparation)</text>
</g>
<!-- http://purl.org/dj/kaggle/student&#45;performance&#45;correlation#196084263&#45;&gt;http://purl.org/dj/kaggle/student&#45;performance&#45;correlation#196018726 -->
<g id="edge13" class="edge">
<title>http://purl.org/dj/kaggle/student&#45;performance&#45;correlation#196084263&#45;&gt;http://purl.org/dj/kaggle/student&#45;performance&#45;correlation#196018726</title>
<path fill="none" stroke="black" d="M1505.11,-282.41C1479.3,-268.95 1442.75,-249.89 1414.78,-235.31"/>
<polygon fill="black" stroke="black" points="1416.14,-232.07 1405.66,-230.55 1412.9,-238.28 1416.14,-232.07"/>
<text text-anchor="middle" x="1489.42" y="-252.8" font-family="Times,serif" font-size="14.00">previous</text>
</g>
<!-- http://purl.org/dj/kaggle/student&#45;performance&#45;correlation#2568098020 -->
<g id="node12" class="node">
<title>http://purl.org/dj/kaggle/student&#45;performance&#45;correlation#2568098020</title>
<ellipse fill="none" stroke="black" cx="1689.92" cy="-159" rx="263.75" ry="18"/>
<text text-anchor="middle" x="1689.92" y="-155.3" font-family="Times,serif" font-size="14.00">2568098020 (Correlation Heatmap for Student Performance(0): Reuse)</text>
</g>
<!-- http://purl.org/dj/kaggle/student&#45;performance&#45;correlation#196084263&#45;&gt;http://purl.org/dj/kaggle/student&#45;performance&#45;correlation#2568098020 -->
<g id="edge14" class="edge">
<title>http://purl.org/dj/kaggle/student&#45;performance&#45;correlation#196084263&#45;&gt;http://purl.org/dj/kaggle/student&#45;performance&#45;correlation#2568098020</title>
<path fill="none" stroke="black" d="M1555.68,-281.96C1582.64,-257.47 1632.46,-212.2 1663.24,-184.24"/>
<polygon fill="black" stroke="black" points="1665.96,-186.5 1671.01,-177.18 1661.25,-181.32 1665.96,-186.5"/>
<text text-anchor="middle" x="1614.42" y="-252.8" font-family="Times,serif" font-size="14.00">previous</text>
</g>
<!-- http://purl.org/dj/kaggle/student&#45;performance&#45;correlation#2568098020&#45;&gt;http://purl.org/dj/kaggle/student&#45;performance&#45;correlation -->
<g id="edge15" class="edge">
<title>http://purl.org/dj/kaggle/student&#45;performance&#45;correlation#2568098020&#45;&gt;http://purl.org/dj/kaggle/student&#45;performance&#45;correlation</title>
<path fill="none" stroke="black" d="M1684.16,-140.96C1676.12,-117.2 1661.48,-73.88 1651.98,-45.78"/>
<polygon fill="black" stroke="black" points="1655.25,-44.54 1648.73,-36.18 1648.62,-46.78 1655.25,-44.54"/>
<text text-anchor="middle" x="1702.42" y="-101.3" font-family="Times,serif" font-size="14.00">previous</text>
</g>
<!-- http://purl.org/dj/kaggle/student&#45;performance&#45;correlation#82575712 -->
<g id="node13" class="node">
<title>http://purl.org/dj/kaggle/student&#45;performance&#45;correlation#82575712</title>
<ellipse fill="none" stroke="black" cx="1853.92" cy="-105" rx="99.38" ry="18"/>
<text text-anchor="middle" x="1853.92" y="-101.3" font-family="Times,serif" font-size="14.00">82575712 (np(0): Reuse)</text>
</g>
<!-- http://purl.org/dj/kaggle/student&#45;performance&#45;correlation#82575712&#45;&gt;http://purl.org/dj/kaggle/student&#45;performance&#45;correlation -->
<g id="edge16" class="edge">
<title>http://purl.org/dj/kaggle/student&#45;performance&#45;correlation#82575712&#45;&gt;http://purl.org/dj/kaggle/student&#45;performance&#45;correlation</title>
<path fill="none" stroke="black" d="M1815.22,-88.41C1780.71,-74.51 1730,-54.08 1692.52,-38.98"/>
<polygon fill="black" stroke="black" points="1693.39,-35.56 1682.81,-35.07 1690.78,-42.05 1693.39,-35.56"/>
<text text-anchor="middle" x="1785.42" y="-57.8" font-family="Times,serif" font-size="14.00">previous</text>
</g>
<!-- http://purl.org/dj/python/lib/194380523 -->
<g id="node14" class="node">
<title>http://purl.org/dj/python/lib/194380523</title>
<ellipse fill="none" stroke="black" cx="2083.92" cy="-105" rx="112.38" ry="18"/>
<text text-anchor="middle" x="2083.92" y="-101.3" font-family="Times,serif" font-size="14.00">194380523 (seaborn: Reuse)</text>
</g>
<!-- http://purl.org/dj/python/lib/194380523&#45;&gt;http://purl.org/dj/kaggle/student&#45;performance&#45;correlation -->
<g id="edge17" class="edge">
<title>http://purl.org/dj/python/lib/194380523&#45;&gt;http://purl.org/dj/kaggle/student&#45;performance&#45;correlation</title>
<path fill="none" stroke="black" d="M2015.01,-90.72C1936.45,-75.58 1808.12,-50.84 1724.59,-34.74"/>
<polygon fill="black" stroke="black" points="1725.12,-31.28 1714.63,-32.82 1723.79,-38.15 1725.12,-31.28"/>
<text text-anchor="middle" x="1913.42" y="-57.8" font-family="Times,serif" font-size="14.00">previous</text>
</g>
<!-- http://purl.org/dj/kaggle/student&#45;performance&#45;correlation#128647638 -->
<g id="node15" class="node">
<title>http://purl.org/dj/kaggle/student&#45;performance&#45;correlation#128647638</title>
<ellipse fill="none" stroke="black" cx="2320.92" cy="-105" rx="106.68" ry="18"/>
<text text-anchor="middle" x="2320.92" y="-101.3" font-family="Times,serif" font-size="14.00">128647638 (sns(0): Reuse)</text>
</g>
<!-- http://purl.org/dj/kaggle/student&#45;performance&#45;correlation#128647638&#45;&gt;http://purl.org/dj/kaggle/student&#45;performance&#45;correlation -->
<g id="edge18" class="edge">
<title>http://purl.org/dj/kaggle/student&#45;performance&#45;correlation#128647638&#45;&gt;http://purl.org/dj/kaggle/student&#45;performance&#45;correlation</title>
<path fill="none" stroke="black" d="M2243.89,-92.48C2230.89,-90.6 2217.53,-88.71 2204.92,-87 2046.1,-65.44 1861.57,-43.75 1748.53,-30.85"/>
<polygon fill="black" stroke="black" points="1748.82,-27.36 1738.49,-29.71 1748.03,-34.32 1748.82,-27.36"/>
<text text-anchor="middle" x="2089.42" y="-57.8" font-family="Times,serif" font-size="14.00">previous</text>
</g>
<!-- http://purl.org/dj/python/lib/111084090 -->
<g id="node16" class="node">
<title>http://purl.org/dj/python/lib/111084090</title>
<ellipse fill="none" stroke="black" cx="2554.92" cy="-105" rx="109.68" ry="18"/>
<text text-anchor="middle" x="2554.92" y="-101.3" font-family="Times,serif" font-size="14.00">111084090 (numpy: Reuse)</text>
</g>
<!-- http://purl.org/dj/python/lib/111084090&#45;&gt;http://purl.org/dj/kaggle/student&#45;performance&#45;correlation -->
<g id="edge19" class="edge">
<title>http://purl.org/dj/python/lib/111084090&#45;&gt;http://purl.org/dj/kaggle/student&#45;performance&#45;correlation</title>
<path fill="none" stroke="black" d="M2476.91,-92.31C2463.58,-90.44 2449.86,-88.6 2436.92,-87 2199.78,-57.7 1921.23,-36.99 1765.07,-26.61"/>
<polygon fill="black" stroke="black" points="1765.17,-23.11 1754.96,-25.94 1764.71,-30.09 1765.17,-23.11"/>
<text text-anchor="middle" x="2286.42" y="-57.8" font-family="Times,serif" font-size="14.00">previous</text>
</g>
</g>
</svg>
