<?xml version="1.0" encoding="UTF-8" standalone="no"?>
<!DOCTYPE svg PUBLIC "-//W3C//DTD SVG 1.1//EN"
 "http://www.w3.org/Graphics/SVG/1.1/DTD/svg11.dtd">
<!-- Generated by graphviz version 2.44.1 (20200629.0846)
 -->
<!-- Pages: 1 -->
<svg width="1998pt" height="521pt"
 viewBox="0.00 0.00 1998.28 521.00" xmlns="http://www.w3.org/2000/svg" xmlns:xlink="http://www.w3.org/1999/xlink">
<g id="graph0" class="graph" transform="scale(1 1) rotate(0) translate(4 517)">
<polygon fill="white" stroke="transparent" points="-4,4 -4,-517 1994.28,-517 1994.28,4 -4,4"/>
<!-- http://purl.org/dj/kaggle/student&#45;performance&#45;correlation#128647638 -->
<g id="node1" class="node">
<title>http://purl.org/dj/kaggle/student&#45;performance&#45;correlation#128647638</title>
<ellipse fill="none" stroke="black" cx="240.44" cy="-213" rx="106.68" ry="18"/>
<text text-anchor="middle" x="240.44" y="-209.3" font-family="Times,serif" font-size="14.00">128647638 (sns(0): Reuse)</text>
</g>
<!-- http://purl.org/dj/python/lib/194380523 -->
<g id="node2" class="node">
<title>http://purl.org/dj/python/lib/194380523</title>
<ellipse fill="none" stroke="black" cx="112.44" cy="-105" rx="112.38" ry="18"/>
<text text-anchor="middle" x="112.44" y="-101.3" font-family="Times,serif" font-size="14.00">194380523 (seaborn: Reuse)</text>
</g>
<!-- http://purl.org/dj/kaggle/student&#45;performance&#45;correlation#128647638&#45;&gt;http://purl.org/dj/python/lib/194380523 -->
<g id="edge1" class="edge">
<title>http://purl.org/dj/kaggle/student&#45;performance&#45;correlation#128647638&#45;&gt;http://purl.org/dj/python/lib/194380523</title>
<path fill="none" stroke="black" d="M200.66,-196.16C189.95,-190.92 178.77,-184.48 169.44,-177 153.51,-164.22 139.14,-146.26 128.82,-131.6"/>
<polygon fill="black" stroke="black" points="131.46,-129.26 122.93,-122.97 125.68,-133.21 131.46,-129.26"/>
<text text-anchor="middle" x="207.94" y="-155.3" font-family="Times,serif" font-size="14.00">assignedFrom</text>
</g>
<!-- http://purl.org/dj/kaggle/student&#45;performance&#45;correlation -->
<g id="node3" class="node">
<title>http://purl.org/dj/kaggle/student&#45;performance&#45;correlation</title>
<ellipse fill="none" stroke="black" cx="1075.44" cy="-18" rx="124.58" ry="18"/>
<text text-anchor="middle" x="1075.44" y="-14.3" font-family="Times,serif" font-size="14.00">student&#45;performance&#45;correlation</text>
</g>
<!-- http://purl.org/dj/kaggle/student&#45;performance&#45;correlation#128647638&#45;&gt;http://purl.org/dj/kaggle/student&#45;performance&#45;correlation -->
<g id="edge2" class="edge">
<title>http://purl.org/dj/kaggle/student&#45;performance&#45;correlation#128647638&#45;&gt;http://purl.org/dj/kaggle/student&#45;performance&#45;correlation</title>
<path fill="none" stroke="black" d="M243.32,-194.84C248.93,-162.33 261.49,-94.31 269.44,-87 317.81,-42.54 726.24,-26.74 942.41,-21.46"/>
<polygon fill="black" stroke="black" points="942.65,-24.96 952.56,-21.22 942.48,-17.96 942.65,-24.96"/>
<text text-anchor="middle" x="314.94" y="-101.3" font-family="Times,serif" font-size="14.00">previousActivity</text>
</g>
<!-- http://purl.org/dj/python/lib/194380523&#45;&gt;http://purl.org/dj/kaggle/student&#45;performance&#45;correlation -->
<g id="edge3" class="edge">
<title>http://purl.org/dj/python/lib/194380523&#45;&gt;http://purl.org/dj/kaggle/student&#45;performance&#45;correlation</title>
<path fill="none" stroke="black" d="M122.03,-86.79C129.5,-75.26 141,-60.96 155.44,-54 224.15,-20.87 701.89,-17.69 940.48,-18.21"/>
<polygon fill="black" stroke="black" points="940.61,-21.71 950.62,-18.24 940.62,-14.71 940.61,-21.71"/>
<text text-anchor="middle" x="200.94" y="-57.8" font-family="Times,serif" font-size="14.00">previousActivity</text>
</g>
<!-- http://purl.org/dj/kaggle/student&#45;performance&#45;correlation#198115882 -->
<g id="node4" class="node">
<title>http://purl.org/dj/kaggle/student&#45;performance&#45;correlation#198115882</title>
<ellipse fill="none" stroke="black" cx="315.44" cy="-495" rx="115.08" ry="18"/>
<text text-anchor="middle" x="315.44" y="-491.3" font-family="Times,serif" font-size="14.00">198115882 (sns(0)$0: Reuse)</text>
</g>
<!-- http://purl.org/dj/kaggle/student&#45;performance&#45;correlation#198115882&#45;&gt;http://purl.org/dj/kaggle/student&#45;performance&#45;correlation#128647638 -->
<g id="edge4" class="edge">
<title>http://purl.org/dj/kaggle/student&#45;performance&#45;correlation#198115882&#45;&gt;http://purl.org/dj/kaggle/student&#45;performance&#45;correlation#128647638</title>
<path fill="none" stroke="black" d="M310.86,-476.91C298.26,-429.85 262.97,-298.11 247.67,-240.99"/>
<polygon fill="black" stroke="black" points="251.02,-239.98 245.05,-231.23 244.26,-241.79 251.02,-239.98"/>
<text text-anchor="middle" x="305.94" y="-360.8" font-family="Times,serif" font-size="14.00">heatmap</text>
</g>
<!-- http://purl.org/dj/kaggle/student&#45;performance&#45;correlation#128123297 -->
<g id="node5" class="node">
<title>http://purl.org/dj/kaggle/student&#45;performance&#45;correlation#128123297</title>
<ellipse fill="none" stroke="black" cx="470.44" cy="-408" rx="129.98" ry="18"/>
<text text-anchor="middle" x="470.44" y="-404.3" font-family="Times,serif" font-size="14.00">128123297 (df(0)$1: Preparation)</text>
</g>
<!-- http://purl.org/dj/kaggle/student&#45;performance&#45;correlation#198115882&#45;&gt;http://purl.org/dj/kaggle/student&#45;performance&#45;correlation#128123297 -->
<g id="edge5" class="edge">
<title>http://purl.org/dj/kaggle/student&#45;performance&#45;correlation#198115882&#45;&gt;http://purl.org/dj/kaggle/student&#45;performance&#45;correlation#128123297</title>
<path fill="none" stroke="black" d="M345.33,-477.61C369.72,-464.23 404.39,-445.22 431.05,-430.6"/>
<polygon fill="black" stroke="black" points="433.03,-433.51 440.12,-425.63 429.67,-427.37 433.03,-433.51"/>
<text text-anchor="middle" x="447.94" y="-447.8" font-family="Times,serif" font-size="14.00">previousActivity</text>
</g>
<!-- http://purl.org/dj/kaggle/student&#45;performance&#45;correlation#128057760 -->
<g id="node6" class="node">
<title>http://purl.org/dj/kaggle/student&#45;performance&#45;correlation#128057760</title>
<ellipse fill="none" stroke="black" cx="567.44" cy="-321" rx="128.88" ry="18"/>
<text text-anchor="middle" x="567.44" y="-317.3" font-family="Times,serif" font-size="14.00">128057760 (df(0)$0: Movement)</text>
</g>
<!-- http://purl.org/dj/kaggle/student&#45;performance&#45;correlation#128123297&#45;&gt;http://purl.org/dj/kaggle/student&#45;performance&#45;correlation#128057760 -->
<g id="edge6" class="edge">
<title>http://purl.org/dj/kaggle/student&#45;performance&#45;correlation#128123297&#45;&gt;http://purl.org/dj/kaggle/student&#45;performance&#45;correlation#128057760</title>
<path fill="none" stroke="black" d="M490.07,-389.8C504.49,-377.16 524.28,-359.82 540.23,-345.85"/>
<polygon fill="black" stroke="black" points="542.96,-348.11 548.17,-338.89 538.34,-342.84 542.96,-348.11"/>
<text text-anchor="middle" x="538.44" y="-360.8" font-family="Times,serif" font-size="14.00">head</text>
</g>
<!-- http://purl.org/dj/python/lib/144966264 -->
<g id="node7" class="node">
<title>http://purl.org/dj/python/lib/144966264</title>
<ellipse fill="none" stroke="black" cx="478.44" cy="-105" rx="109.38" ry="18"/>
<text text-anchor="middle" x="478.44" y="-101.3" font-family="Times,serif" font-size="14.00">144966264 (pandas: Reuse)</text>
</g>
<!-- http://purl.org/dj/kaggle/student&#45;performance&#45;correlation#128057760&#45;&gt;http://purl.org/dj/python/lib/144966264 -->
<g id="edge7" class="edge">
<title>http://purl.org/dj/kaggle/student&#45;performance&#45;correlation#128057760&#45;&gt;http://purl.org/dj/python/lib/144966264</title>
<path fill="none" stroke="black" d="M502.8,-305.3C463.5,-292.66 416.41,-270.08 392.44,-231 369.84,-194.15 411.55,-153.18 444.41,-128.52"/>
<polygon fill="black" stroke="black" points="446.5,-131.32 452.53,-122.61 442.38,-125.66 446.5,-131.32"/>
<text text-anchor="middle" x="437.94" y="-209.3" font-family="Times,serif" font-size="14.00">previousActivity</text>
</g>
<!-- http://purl.org/dj/kaggle/student&#45;performance&#45;correlation#80085334 -->
<g id="node8" class="node">
<title>http://purl.org/dj/kaggle/student&#45;performance&#45;correlation#80085334</title>
<ellipse fill="none" stroke="black" cx="591.44" cy="-213" rx="99.38" ry="18"/>
<text text-anchor="middle" x="591.44" y="-209.3" font-family="Times,serif" font-size="14.00">80085334 (pd(0): Reuse)</text>
</g>
<!-- http://purl.org/dj/kaggle/student&#45;performance&#45;correlation#128057760&#45;&gt;http://purl.org/dj/kaggle/student&#45;performance&#45;correlation#80085334 -->
<g id="edge8" class="edge">
<title>http://purl.org/dj/kaggle/student&#45;performance&#45;correlation#128057760&#45;&gt;http://purl.org/dj/kaggle/student&#45;performance&#45;correlation#80085334</title>
<path fill="none" stroke="black" d="M571.3,-302.97C575.09,-286.2 580.95,-260.34 585.37,-240.81"/>
<polygon fill="black" stroke="black" points="588.8,-241.51 587.59,-230.99 581.97,-239.97 588.8,-241.51"/>
<text text-anchor="middle" x="607.94" y="-263.3" font-family="Times,serif" font-size="14.00">read_csv</text>
</g>
<!-- http://purl.org/dj/kaggle/student&#45;performance&#45;correlation#717297769 -->
<g id="node9" class="node">
<title>http://purl.org/dj/kaggle/student&#45;performance&#45;correlation#717297769</title>
<ellipse fill="none" stroke="black" cx="927.44" cy="-159" rx="326.84" ry="18"/>
<text text-anchor="middle" x="927.44" y="-155.3" font-family="Times,serif" font-size="14.00">717297769 (../input/students&#45;performance&#45;in&#45;exams/StudentsPerformance.csv(0): Reuse)</text>
</g>
<!-- http://purl.org/dj/kaggle/student&#45;performance&#45;correlation#128057760&#45;&gt;http://purl.org/dj/kaggle/student&#45;performance&#45;correlation#717297769 -->
<g id="edge9" class="edge">
<title>http://purl.org/dj/kaggle/student&#45;performance&#45;correlation#128057760&#45;&gt;http://purl.org/dj/kaggle/student&#45;performance&#45;correlation#717297769</title>
<path fill="none" stroke="black" d="M604.27,-303.63C669.96,-274.44 807.22,-213.43 879.92,-181.12"/>
<polygon fill="black" stroke="black" points="881.59,-184.21 889.3,-176.95 878.74,-177.81 881.59,-184.21"/>
<text text-anchor="middle" x="748.94" y="-263.3" font-family="Times,serif" font-size="14.00">read_csv</text>
</g>
<!-- http://purl.org/dj/python/lib/144966264&#45;&gt;http://purl.org/dj/kaggle/student&#45;performance&#45;correlation -->
<g id="edge13" class="edge">
<title>http://purl.org/dj/python/lib/144966264&#45;&gt;http://purl.org/dj/kaggle/student&#45;performance&#45;correlation</title>
<path fill="none" stroke="black" d="M487.13,-86.93C493.96,-75.46 504.63,-61.18 518.44,-54 555.05,-34.97 789.54,-25.77 942.37,-21.74"/>
<polygon fill="black" stroke="black" points="942.87,-25.23 952.77,-21.47 942.69,-18.23 942.87,-25.23"/>
<text text-anchor="middle" x="563.94" y="-57.8" font-family="Times,serif" font-size="14.00">previousActivity</text>
</g>
<!-- http://purl.org/dj/kaggle/student&#45;performance&#45;correlation#80085334&#45;&gt;http://purl.org/dj/kaggle/student&#45;performance&#45;correlation -->
<g id="edge14" class="edge">
<title>http://purl.org/dj/kaggle/student&#45;performance&#45;correlation#80085334&#45;&gt;http://purl.org/dj/kaggle/student&#45;performance&#45;correlation</title>
<path fill="none" stroke="black" d="M588.37,-194.95C586.54,-179.07 586.66,-155.69 599.44,-141 647.93,-85.27 848.66,-49.11 973.45,-31.55"/>
<polygon fill="black" stroke="black" points="974,-35 983.42,-30.16 973.03,-28.07 974,-35"/>
<text text-anchor="middle" x="746.94" y="-101.3" font-family="Times,serif" font-size="14.00">previousActivity</text>
</g>
<!-- http://purl.org/dj/kaggle/student&#45;performance&#45;correlation#80085334&#45;&gt;http://purl.org/dj/python/lib/144966264 -->
<g id="edge15" class="edge">
<title>http://purl.org/dj/kaggle/student&#45;performance&#45;correlation#80085334&#45;&gt;http://purl.org/dj/python/lib/144966264</title>
<path fill="none" stroke="black" d="M527.36,-199.14C515.01,-194.05 503.21,-186.93 494.44,-177 483.94,-165.11 479.89,-147.81 478.49,-133.26"/>
<polygon fill="black" stroke="black" points="481.99,-133.04 477.89,-123.27 475,-133.47 481.99,-133.04"/>
<text text-anchor="middle" x="532.94" y="-155.3" font-family="Times,serif" font-size="14.00">assignedFrom</text>
</g>
<!-- http://purl.org/dj/kaggle/student&#45;performance&#45;correlation#717297769&#45;&gt;http://purl.org/dj/kaggle/student&#45;performance&#45;correlation -->
<g id="edge19" class="edge">
<title>http://purl.org/dj/kaggle/student&#45;performance&#45;correlation#717297769&#45;&gt;http://purl.org/dj/kaggle/student&#45;performance&#45;correlation</title>
<path fill="none" stroke="black" d="M945.59,-140.96C971.66,-116.47 1019.86,-71.2 1049.63,-43.24"/>
<polygon fill="black" stroke="black" points="1052.25,-45.58 1057.14,-36.18 1047.46,-40.48 1052.25,-45.58"/>
<text text-anchor="middle" x="1027.94" y="-101.3" font-family="Times,serif" font-size="14.00">appearsIn</text>
</g>
<!-- http://purl.org/dj/kaggle/student&#45;performance&#45;correlation#127074770 -->
<g id="node10" class="node">
<title>http://purl.org/dj/kaggle/student&#45;performance&#45;correlation#127074770</title>
<ellipse fill="none" stroke="black" cx="1265.44" cy="-213" rx="104.78" ry="18"/>
<text text-anchor="middle" x="1265.44" y="-209.3" font-family="Times,serif" font-size="14.00">127074770 (plt(0): Reuse)</text>
</g>
<!-- http://purl.org/dj/kaggle/student&#45;performance&#45;correlation#127074770&#45;&gt;http://purl.org/dj/kaggle/student&#45;performance&#45;correlation -->
<g id="edge10" class="edge">
<title>http://purl.org/dj/kaggle/student&#45;performance&#45;correlation#127074770&#45;&gt;http://purl.org/dj/kaggle/student&#45;performance&#45;correlation</title>
<path fill="none" stroke="black" d="M1268.14,-194.72C1269.6,-178.67 1268.89,-155.18 1255.44,-141 1226.77,-110.76 1199.37,-144.09 1163.44,-123 1131.25,-104.1 1105.3,-68.97 1090.13,-44.81"/>
<polygon fill="black" stroke="black" points="1093.05,-42.87 1084.86,-36.14 1087.07,-46.51 1093.05,-42.87"/>
<text text-anchor="middle" x="1189.94" y="-101.3" font-family="Times,serif" font-size="14.00">appearsIn</text>
</g>
<!-- http://purl.org/dj/python/lib/1065617167 -->
<g id="node11" class="node">
<title>http://purl.org/dj/python/lib/1065617167</title>
<ellipse fill="none" stroke="black" cx="1376.44" cy="-105" rx="150.57" ry="18"/>
<text text-anchor="middle" x="1376.44" y="-101.3" font-family="Times,serif" font-size="14.00">1065617167 (matplotlib.pyplot: Reuse)</text>
</g>
<!-- http://purl.org/dj/kaggle/student&#45;performance&#45;correlation#127074770&#45;&gt;http://purl.org/dj/python/lib/1065617167 -->
<g id="edge11" class="edge">
<title>http://purl.org/dj/kaggle/student&#45;performance&#45;correlation#127074770&#45;&gt;http://purl.org/dj/python/lib/1065617167</title>
<path fill="none" stroke="black" d="M1274.58,-194.92C1283.48,-179.45 1298.17,-156.74 1315.44,-141 1320.59,-136.3 1326.48,-131.96 1332.52,-128.05"/>
<polygon fill="black" stroke="black" points="1334.7,-130.82 1341.42,-122.63 1331.06,-124.84 1334.7,-130.82"/>
<text text-anchor="middle" x="1353.94" y="-155.3" font-family="Times,serif" font-size="14.00">assignedFrom</text>
</g>
<!-- http://purl.org/dj/python/lib/1065617167&#45;&gt;http://purl.org/dj/kaggle/student&#45;performance&#45;correlation -->
<g id="edge12" class="edge">
<title>http://purl.org/dj/python/lib/1065617167&#45;&gt;http://purl.org/dj/kaggle/student&#45;performance&#45;correlation</title>
<path fill="none" stroke="black" d="M1320.53,-88.21C1269.15,-73.7 1193.04,-52.21 1139.3,-37.03"/>
<polygon fill="black" stroke="black" points="1140.11,-33.62 1129.53,-34.27 1138.2,-40.36 1140.11,-33.62"/>
<text text-anchor="middle" x="1277.44" y="-57.8" font-family="Times,serif" font-size="14.00">importedBy</text>
</g>
<!-- http://purl.org/dj/kaggle/student&#45;performance&#45;correlation#82575712 -->
<g id="node12" class="node">
<title>http://purl.org/dj/kaggle/student&#45;performance&#45;correlation#82575712</title>
<ellipse fill="none" stroke="black" cx="1688.44" cy="-213" rx="99.38" ry="18"/>
<text text-anchor="middle" x="1688.44" y="-209.3" font-family="Times,serif" font-size="14.00">82575712 (np(0): Reuse)</text>
</g>
<!-- http://purl.org/dj/kaggle/student&#45;performance&#45;correlation#82575712&#45;&gt;http://purl.org/dj/kaggle/student&#45;performance&#45;correlation -->
<g id="edge16" class="edge">
<title>http://purl.org/dj/kaggle/student&#45;performance&#45;correlation#82575712&#45;&gt;http://purl.org/dj/kaggle/student&#45;performance&#45;correlation</title>
<path fill="none" stroke="black" d="M1681.86,-194.91C1667.53,-160.49 1629.89,-83.6 1569.44,-54 1537.56,-38.39 1341.3,-28.36 1205.96,-23.2"/>
<polygon fill="black" stroke="black" points="1206.04,-19.7 1195.92,-22.82 1205.78,-26.7 1206.04,-19.7"/>
<text text-anchor="middle" x="1686.94" y="-101.3" font-family="Times,serif" font-size="14.00">previousActivity</text>
</g>
<!-- http://purl.org/dj/python/lib/111084090 -->
<g id="node13" class="node">
<title>http://purl.org/dj/python/lib/111084090</title>
<ellipse fill="none" stroke="black" cx="1880.44" cy="-105" rx="109.68" ry="18"/>
<text text-anchor="middle" x="1880.44" y="-101.3" font-family="Times,serif" font-size="14.00">111084090 (numpy: Reuse)</text>
</g>
<!-- http://purl.org/dj/kaggle/student&#45;performance&#45;correlation#82575712&#45;&gt;http://purl.org/dj/python/lib/111084090 -->
<g id="edge17" class="edge">
<title>http://purl.org/dj/kaggle/student&#45;performance&#45;correlation#82575712&#45;&gt;http://purl.org/dj/python/lib/111084090</title>
<path fill="none" stroke="black" d="M1718.02,-195.67C1751.28,-177.31 1805.41,-147.42 1841.94,-127.25"/>
<polygon fill="black" stroke="black" points="1843.76,-130.25 1850.83,-122.35 1840.38,-124.12 1843.76,-130.25"/>
<text text-anchor="middle" x="1850.94" y="-155.3" font-family="Times,serif" font-size="14.00">assignedFrom</text>
</g>
<!-- http://purl.org/dj/python/lib/111084090&#45;&gt;http://purl.org/dj/kaggle/student&#45;performance&#45;correlation -->
<g id="edge18" class="edge">
<title>http://purl.org/dj/python/lib/111084090&#45;&gt;http://purl.org/dj/kaggle/student&#45;performance&#45;correlation</title>
<path fill="none" stroke="black" d="M1829.98,-88.98C1788.79,-77.39 1728.88,-62.01 1675.44,-54 1516.73,-30.22 1332.16,-22.38 1210.08,-19.91"/>
<polygon fill="black" stroke="black" points="1210,-16.41 1199.93,-19.71 1209.86,-23.41 1210,-16.41"/>
<text text-anchor="middle" x="1793.94" y="-57.8" font-family="Times,serif" font-size="14.00">previousActivity</text>
</g>
<!-- http://purl.org/dj/kaggle/student&#45;performance&#45;correlation#196084263 -->
<g id="node14" class="node">
<title>http://purl.org/dj/kaggle/student&#45;performance&#45;correlation#196084263</title>
<ellipse fill="none" stroke="black" cx="1561.44" cy="-408" rx="131.88" ry="18"/>
<text text-anchor="middle" x="1561.44" y="-404.3" font-family="Times,serif" font-size="14.00">196084263 (plt(0)$1: Preparation)</text>
</g>
<!-- http://purl.org/dj/kaggle/student&#45;performance&#45;correlation#196018726 -->
<g id="node15" class="node">
<title>http://purl.org/dj/kaggle/student&#45;performance&#45;correlation#196018726</title>
<ellipse fill="none" stroke="black" cx="1406.44" cy="-321" rx="137.58" ry="18"/>
<text text-anchor="middle" x="1406.44" y="-317.3" font-family="Times,serif" font-size="14.00">196018726 (plt(0)$0: Visualisation)</text>
</g>
<!-- http://purl.org/dj/kaggle/student&#45;performance&#45;correlation#196084263&#45;&gt;http://purl.org/dj/kaggle/student&#45;performance&#45;correlation#196018726 -->
<g id="edge20" class="edge">
<title>http://purl.org/dj/kaggle/student&#45;performance&#45;correlation#196084263&#45;&gt;http://purl.org/dj/kaggle/student&#45;performance&#45;correlation#196018726</title>
<path fill="none" stroke="black" d="M1531.19,-390.41C1506.83,-377.05 1472.42,-358.18 1445.9,-343.64"/>
<polygon fill="black" stroke="black" points="1447.33,-340.43 1436.88,-338.69 1443.97,-346.57 1447.33,-340.43"/>
<text text-anchor="middle" x="1504.44" y="-360.8" font-family="Times,serif" font-size="14.00">title</text>
</g>
<!-- http://purl.org/dj/kaggle/student&#45;performance&#45;correlation#2568098020 -->
<g id="node16" class="node">
<title>http://purl.org/dj/kaggle/student&#45;performance&#45;correlation#2568098020</title>
<ellipse fill="none" stroke="black" cx="1685.44" cy="-267" rx="263.75" ry="18"/>
<text text-anchor="middle" x="1685.44" y="-263.3" font-family="Times,serif" font-size="14.00">2568098020 (Correlation Heatmap for Student Performance(0): Reuse)</text>
</g>
<!-- http://purl.org/dj/kaggle/student&#45;performance&#45;correlation#196084263&#45;&gt;http://purl.org/dj/kaggle/student&#45;performance&#45;correlation#2568098020 -->
<g id="edge21" class="edge">
<title>http://purl.org/dj/kaggle/student&#45;performance&#45;correlation#196084263&#45;&gt;http://purl.org/dj/kaggle/student&#45;performance&#45;correlation#2568098020</title>
<path fill="none" stroke="black" d="M1576.64,-389.96C1598.31,-365.67 1638.18,-320.97 1663.18,-292.96"/>
<polygon fill="black" stroke="black" points="1666.07,-294.98 1670.11,-285.18 1660.84,-290.32 1666.07,-294.98"/>
<text text-anchor="middle" x="1615.44" y="-360.8" font-family="Times,serif" font-size="14.00">title</text>
</g>
<!-- http://purl.org/dj/kaggle/student&#45;performance&#45;correlation#196018726&#45;&gt;http://purl.org/dj/kaggle/student&#45;performance&#45;correlation#127074770 -->
<g id="edge22" class="edge">
<title>http://purl.org/dj/kaggle/student&#45;performance&#45;correlation#196018726&#45;&gt;http://purl.org/dj/kaggle/student&#45;performance&#45;correlation#127074770</title>
<path fill="none" stroke="black" d="M1337.1,-305.44C1324.27,-300.48 1311.7,-293.85 1301.44,-285 1288.09,-273.49 1279.11,-255.82 1273.45,-240.99"/>
<polygon fill="black" stroke="black" points="1276.66,-239.57 1270.06,-231.28 1270.05,-241.88 1276.66,-239.57"/>
<text text-anchor="middle" x="1346.94" y="-263.3" font-family="Times,serif" font-size="14.00">previousActivity</text>
</g>
<!-- http://purl.org/dj/kaggle/student&#45;performance&#45;correlation#196018726&#45;&gt;http://purl.org/dj/python/lib/1065617167 -->
<g id="edge23" class="edge">
<title>http://purl.org/dj/kaggle/student&#45;performance&#45;correlation#196018726&#45;&gt;http://purl.org/dj/python/lib/1065617167</title>
<path fill="none" stroke="black" d="M1407.07,-302.89C1407.82,-270.66 1407.44,-198.94 1392.44,-141 1391.7,-138.15 1390.74,-135.24 1389.66,-132.39"/>
<polygon fill="black" stroke="black" points="1392.8,-130.83 1385.66,-123 1386.37,-133.58 1392.8,-130.83"/>
<text text-anchor="middle" x="1451.94" y="-209.3" font-family="Times,serif" font-size="14.00">previousActivity</text>
</g>
<!-- http://purl.org/dj/kaggle/student&#45;performance&#45;correlation#2568098020&#45;&gt;http://purl.org/dj/kaggle/student&#45;performance&#45;correlation -->
<g id="edge24" class="edge">
<title>http://purl.org/dj/kaggle/student&#45;performance&#45;correlation#2568098020&#45;&gt;http://purl.org/dj/kaggle/student&#45;performance&#45;correlation</title>
<path fill="none" stroke="black" d="M1609.08,-249.73C1598.56,-244.99 1588.59,-238.88 1580.44,-231 1532.35,-184.47 1586.36,-131.57 1536.44,-87 1489.02,-44.66 1326.06,-28.67 1207.31,-22.65"/>
<polygon fill="black" stroke="black" points="1207.2,-19.14 1197.04,-22.14 1206.86,-26.13 1207.2,-19.14"/>
<text text-anchor="middle" x="1604.94" y="-155.3" font-family="Times,serif" font-size="14.00">previousActivity</text>
</g>
</g>
</svg>
