<?xml version="1.0" encoding="UTF-8" standalone="no"?>
<!DOCTYPE svg PUBLIC "-//W3C//DTD SVG 1.1//EN"
 "http://www.w3.org/Graphics/SVG/1.1/DTD/svg11.dtd">
<!-- Generated by graphviz version 2.44.1 (20200629.0846)
 -->
<!-- Pages: 1 -->
<svg width="3262pt" height="845pt"
 viewBox="0.00 0.00 3261.57 845.00" xmlns="http://www.w3.org/2000/svg" xmlns:xlink="http://www.w3.org/1999/xlink">
<g id="graph0" class="graph" transform="scale(1 1) rotate(0) translate(4 841)">
<polygon fill="white" stroke="transparent" points="-4,4 -4,-841 3257.57,-841 3257.57,4 -4,4"/>
<!-- http://purl.org/dj/kaggle/submitting&#45;from&#45;a&#45;kernel#398984013 -->
<g id="node1" class="node">
<title>http://purl.org/dj/kaggle/submitting&#45;from&#45;a&#45;kernel#398984013</title>
<ellipse fill="none" stroke="black" cx="801.04" cy="-408" rx="126.98" ry="18"/>
<text text-anchor="middle" x="801.04" y="-404.3" font-family="Times,serif" font-size="14.00">398984013 (test_X(0)$0: Reuse)</text>
</g>
<!-- http://purl.org/dj/kaggle/submitting&#45;from&#45;a&#45;kernel#1270154930 -->
<g id="node2" class="node">
<title>http://purl.org/dj/kaggle/submitting&#45;from&#45;a&#45;kernel#1270154930</title>
<ellipse fill="none" stroke="black" cx="1324.04" cy="-300" rx="158.67" ry="18"/>
<text text-anchor="middle" x="1324.04" y="-296.3" font-family="Times,serif" font-size="14.00">1270154930 (predictor_cols(0)$0: Reuse)</text>
</g>
<!-- http://purl.org/dj/kaggle/submitting&#45;from&#45;a&#45;kernel#398984013&#45;&gt;http://purl.org/dj/kaggle/submitting&#45;from&#45;a&#45;kernel#1270154930 -->
<g id="edge1" class="edge">
<title>http://purl.org/dj/kaggle/submitting&#45;from&#45;a&#45;kernel#398984013&#45;&gt;http://purl.org/dj/kaggle/submitting&#45;from&#45;a&#45;kernel#1270154930</title>
<path fill="none" stroke="black" d="M891.79,-395.4C906.57,-393.56 921.73,-391.7 936.04,-390 971.79,-385.75 1067.07,-391.96 1097.04,-372 1112.27,-361.85 1102.1,-346.57 1117.04,-336 1130.89,-326.21 1162.02,-318.91 1196.04,-313.59"/>
<polygon fill="black" stroke="black" points="1196.82,-317.01 1206.19,-312.07 1195.78,-310.09 1196.82,-317.01"/>
<text text-anchor="middle" x="1155.54" y="-350.3" font-family="Times,serif" font-size="14.00">assignedFrom</text>
</g>
<!-- http://purl.org/dj/kaggle/submitting&#45;from&#45;a&#45;kernel#261948054 -->
<g id="node3" class="node">
<title>http://purl.org/dj/kaggle/submitting&#45;from&#45;a&#45;kernel#261948054</title>
<ellipse fill="none" stroke="black" cx="720.04" cy="-300" rx="133.78" ry="18"/>
<text text-anchor="middle" x="720.04" y="-296.3" font-family="Times,serif" font-size="14.00">261948054 (test(0)$0: Movement)</text>
</g>
<!-- http://purl.org/dj/kaggle/submitting&#45;from&#45;a&#45;kernel#398984013&#45;&gt;http://purl.org/dj/kaggle/submitting&#45;from&#45;a&#45;kernel#261948054 -->
<g id="edge2" class="edge">
<title>http://purl.org/dj/kaggle/submitting&#45;from&#45;a&#45;kernel#398984013&#45;&gt;http://purl.org/dj/kaggle/submitting&#45;from&#45;a&#45;kernel#261948054</title>
<path fill="none" stroke="black" d="M788.02,-389.97C774.8,-372.66 754.17,-345.66 739.1,-325.94"/>
<polygon fill="black" stroke="black" points="741.87,-323.81 733.02,-317.99 736.31,-328.06 741.87,-323.81"/>
<text text-anchor="middle" x="818.54" y="-350.3" font-family="Times,serif" font-size="14.00">previousActivity</text>
</g>
<!-- http://purl.org/dj/kaggle/submitting&#45;from&#45;a&#45;kernel#1800680260 -->
<g id="node4" class="node">
<title>http://purl.org/dj/kaggle/submitting&#45;from&#45;a&#45;kernel#1800680260</title>
<ellipse fill="none" stroke="black" cx="1807.04" cy="-213" rx="679.68" ry="18"/>
<text text-anchor="middle" x="1807.04" y="-209.3" font-family="Times,serif" font-size="14.00">1800680260 ([&lt;_ast.Constant object at 0x12f8ab220&gt;, &lt;_ast.Constant object at 0x12f8ab790&gt;, &lt;_ast.Constant object at 0x12f8ab130&gt;, &lt;_ast.Constant object at 0x12f8ab190&gt;](0): Reuse)</text>
</g>
<!-- http://purl.org/dj/kaggle/submitting&#45;from&#45;a&#45;kernel#1270154930&#45;&gt;http://purl.org/dj/kaggle/submitting&#45;from&#45;a&#45;kernel#1800680260 -->
<g id="edge3" class="edge">
<title>http://purl.org/dj/kaggle/submitting&#45;from&#45;a&#45;kernel#1270154930&#45;&gt;http://purl.org/dj/kaggle/submitting&#45;from&#45;a&#45;kernel#1800680260</title>
<path fill="none" stroke="black" d="M1405.77,-284.52C1462.29,-274.52 1539.23,-260.92 1607.04,-249 1637.37,-243.67 1670.3,-237.9 1700.51,-232.61"/>
<polygon fill="black" stroke="black" points="1701.4,-236.01 1710.65,-230.84 1700.19,-229.11 1701.4,-236.01"/>
<text text-anchor="middle" x="1645.54" y="-252.8" font-family="Times,serif" font-size="14.00">assignedFrom</text>
</g>
<!-- http://purl.org/dj/python/lib/144966264 -->
<g id="node5" class="node">
<title>http://purl.org/dj/python/lib/144966264</title>
<ellipse fill="none" stroke="black" cx="812.04" cy="-105" rx="109.38" ry="18"/>
<text text-anchor="middle" x="812.04" y="-101.3" font-family="Times,serif" font-size="14.00">144966264 (pandas: Reuse)</text>
</g>
<!-- http://purl.org/dj/kaggle/submitting&#45;from&#45;a&#45;kernel#261948054&#45;&gt;http://purl.org/dj/python/lib/144966264 -->
<g id="edge4" class="edge">
<title>http://purl.org/dj/kaggle/submitting&#45;from&#45;a&#45;kernel#261948054&#45;&gt;http://purl.org/dj/python/lib/144966264</title>
<path fill="none" stroke="black" d="M728.2,-281.87C744.33,-248.04 780.37,-172.43 799.52,-132.26"/>
<polygon fill="black" stroke="black" points="802.75,-133.62 803.89,-123.09 796.43,-130.61 802.75,-133.62"/>
<text text-anchor="middle" x="815.54" y="-209.3" font-family="Times,serif" font-size="14.00">previousActivity</text>
</g>
<!-- http://purl.org/dj/kaggle/submitting&#45;from&#45;a&#45;kernel#80085334 -->
<g id="node6" class="node">
<title>http://purl.org/dj/kaggle/submitting&#45;from&#45;a&#45;kernel#80085334</title>
<ellipse fill="none" stroke="black" cx="629.04" cy="-213" rx="99.38" ry="18"/>
<text text-anchor="middle" x="629.04" y="-209.3" font-family="Times,serif" font-size="14.00">80085334 (pd(0): Reuse)</text>
</g>
<!-- http://purl.org/dj/kaggle/submitting&#45;from&#45;a&#45;kernel#261948054&#45;&gt;http://purl.org/dj/kaggle/submitting&#45;from&#45;a&#45;kernel#80085334 -->
<g id="edge5" class="edge">
<title>http://purl.org/dj/kaggle/submitting&#45;from&#45;a&#45;kernel#261948054&#45;&gt;http://purl.org/dj/kaggle/submitting&#45;from&#45;a&#45;kernel#80085334</title>
<path fill="none" stroke="black" d="M701.62,-281.8C688.09,-269.16 669.53,-251.82 654.57,-237.85"/>
<polygon fill="black" stroke="black" points="656.81,-235.15 647.12,-230.89 652.03,-240.27 656.81,-235.15"/>
<text text-anchor="middle" x="704.54" y="-252.8" font-family="Times,serif" font-size="14.00">read_csv</text>
</g>
<!-- http://purl.org/dj/kaggle/submitting&#45;from&#45;a&#45;kernel#1183844006 -->
<g id="node7" class="node">
<title>http://purl.org/dj/kaggle/submitting&#45;from&#45;a&#45;kernel#1183844006</title>
<ellipse fill="none" stroke="black" cx="439.04" cy="-159" rx="153.27" ry="18"/>
<text text-anchor="middle" x="439.04" y="-155.3" font-family="Times,serif" font-size="14.00">1183844006 (../input/test.csv(0): Reuse)</text>
</g>
<!-- http://purl.org/dj/kaggle/submitting&#45;from&#45;a&#45;kernel#261948054&#45;&gt;http://purl.org/dj/kaggle/submitting&#45;from&#45;a&#45;kernel#1183844006 -->
<g id="edge6" class="edge">
<title>http://purl.org/dj/kaggle/submitting&#45;from&#45;a&#45;kernel#261948054&#45;&gt;http://purl.org/dj/kaggle/submitting&#45;from&#45;a&#45;kernel#1183844006</title>
<path fill="none" stroke="black" d="M643.36,-285.19C620.89,-279.89 596.57,-272.92 575.04,-264 549.05,-253.24 543.75,-247.6 521.04,-231 501.23,-216.52 480.34,-198.39 464.61,-184.08"/>
<polygon fill="black" stroke="black" points="466.61,-181.17 456.88,-176.98 461.88,-186.32 466.61,-181.17"/>
<text text-anchor="middle" x="620.54" y="-252.8" font-family="Times,serif" font-size="14.00">previousActivity</text>
</g>
<!-- http://purl.org/dj/kaggle/submitting&#45;from&#45;a&#45;kernel -->
<g id="node8" class="node">
<title>http://purl.org/dj/kaggle/submitting&#45;from&#45;a&#45;kernel</title>
<ellipse fill="none" stroke="black" cx="1182.04" cy="-18" rx="100.98" ry="18"/>
<text text-anchor="middle" x="1182.04" y="-14.3" font-family="Times,serif" font-size="14.00">submitting&#45;from&#45;a&#45;kernel</text>
</g>
<!-- http://purl.org/dj/kaggle/submitting&#45;from&#45;a&#45;kernel#1800680260&#45;&gt;http://purl.org/dj/kaggle/submitting&#45;from&#45;a&#45;kernel -->
<g id="edge7" class="edge">
<title>http://purl.org/dj/kaggle/submitting&#45;from&#45;a&#45;kernel#1800680260&#45;&gt;http://purl.org/dj/kaggle/submitting&#45;from&#45;a&#45;kernel</title>
<path fill="none" stroke="black" d="M1752.12,-195.04C1634.64,-158.76 1359.86,-73.91 1239.84,-36.85"/>
<polygon fill="black" stroke="black" points="1240.68,-33.45 1230.1,-33.84 1238.62,-40.14 1240.68,-33.45"/>
<text text-anchor="middle" x="1561.54" y="-101.3" font-family="Times,serif" font-size="14.00">previousActivity</text>
</g>
<!-- http://purl.org/dj/python/lib/144966264&#45;&gt;http://purl.org/dj/kaggle/submitting&#45;from&#45;a&#45;kernel -->
<g id="edge8" class="edge">
<title>http://purl.org/dj/python/lib/144966264&#45;&gt;http://purl.org/dj/kaggle/submitting&#45;from&#45;a&#45;kernel</title>
<path fill="none" stroke="black" d="M850.06,-88.05C877.65,-77.04 916.11,-62.84 951.04,-54 995.27,-42.81 1045.23,-34.69 1087.34,-29.11"/>
<polygon fill="black" stroke="black" points="1087.85,-32.58 1097.31,-27.82 1086.95,-25.64 1087.85,-32.58"/>
<text text-anchor="middle" x="996.54" y="-57.8" font-family="Times,serif" font-size="14.00">previousActivity</text>
</g>
<!-- http://purl.org/dj/kaggle/submitting&#45;from&#45;a&#45;kernel#80085334&#45;&gt;http://purl.org/dj/python/lib/144966264 -->
<g id="edge9" class="edge">
<title>http://purl.org/dj/kaggle/submitting&#45;from&#45;a&#45;kernel#80085334&#45;&gt;http://purl.org/dj/python/lib/144966264</title>
<path fill="none" stroke="black" d="M637.75,-194.81C647.52,-176.18 663.26,-148.15 673.04,-141 686.18,-131.39 701.68,-124.41 717.48,-119.33"/>
<polygon fill="black" stroke="black" points="718.74,-122.61 727.34,-116.42 716.76,-115.9 718.74,-122.61"/>
<text text-anchor="middle" x="711.54" y="-155.3" font-family="Times,serif" font-size="14.00">assignedFrom</text>
</g>
<!-- http://purl.org/dj/kaggle/submitting&#45;from&#45;a&#45;kernel#80085334&#45;&gt;http://purl.org/dj/kaggle/submitting&#45;from&#45;a&#45;kernel -->
<g id="edge10" class="edge">
<title>http://purl.org/dj/kaggle/submitting&#45;from&#45;a&#45;kernel#80085334&#45;&gt;http://purl.org/dj/kaggle/submitting&#45;from&#45;a&#45;kernel</title>
<path fill="none" stroke="black" d="M624.72,-194.73C619.13,-167.77 613.11,-115.79 641.04,-87 670.88,-56.24 929.21,-34.97 1077.84,-25.16"/>
<polygon fill="black" stroke="black" points="1078.16,-28.64 1087.91,-24.5 1077.7,-21.66 1078.16,-28.64"/>
<text text-anchor="middle" x="667.54" y="-101.3" font-family="Times,serif" font-size="14.00">appearsIn</text>
</g>
<!-- http://purl.org/dj/kaggle/submitting&#45;from&#45;a&#45;kernel#1183844006&#45;&gt;http://purl.org/dj/kaggle/submitting&#45;from&#45;a&#45;kernel -->
<g id="edge11" class="edge">
<title>http://purl.org/dj/kaggle/submitting&#45;from&#45;a&#45;kernel#1183844006&#45;&gt;http://purl.org/dj/kaggle/submitting&#45;from&#45;a&#45;kernel</title>
<path fill="none" stroke="black" d="M460.02,-141.06C491.91,-116.48 555.5,-71.91 618.04,-54 700.22,-30.46 931.86,-22.75 1071.4,-20.23"/>
<polygon fill="black" stroke="black" points="1071.76,-23.72 1081.7,-20.05 1071.64,-16.72 1071.76,-23.72"/>
<text text-anchor="middle" x="567.54" y="-101.3" font-family="Times,serif" font-size="14.00">appearsIn</text>
</g>
<!-- http://purl.org/dj/kaggle/submitting&#45;from&#45;a&#45;kernel#1163527783 -->
<g id="node9" class="node">
<title>http://purl.org/dj/kaggle/submitting&#45;from&#45;a&#45;kernel#1163527783</title>
<ellipse fill="none" stroke="black" cx="642.04" cy="-732" rx="183.07" ry="18"/>
<text text-anchor="middle" x="642.04" y="-728.3" font-family="Times,serif" font-size="14.00">1163527783 (my_submission(0)$0: Preparation)</text>
</g>
<!-- http://purl.org/dj/kaggle/submitting&#45;from&#45;a&#45;kernel#1163527783&#45;&gt;http://purl.org/dj/kaggle/submitting&#45;from&#45;a&#45;kernel#261948054 -->
<g id="edge12" class="edge">
<title>http://purl.org/dj/kaggle/submitting&#45;from&#45;a&#45;kernel#1163527783&#45;&gt;http://purl.org/dj/kaggle/submitting&#45;from&#45;a&#45;kernel#261948054</title>
<path fill="none" stroke="black" d="M643.09,-713.75C644.27,-692.78 646.04,-656.31 646.04,-625 646.04,-625 646.04,-625 646.04,-407 646.04,-374.22 670.13,-344.34 690.82,-324.72"/>
<polygon fill="black" stroke="black" points="693.2,-327.29 698.24,-317.97 688.48,-322.11 693.2,-327.29"/>
<text text-anchor="middle" x="691.54" y="-512.3" font-family="Times,serif" font-size="14.00">previousActivity</text>
</g>
<!-- http://purl.org/dj/kaggle/submitting&#45;from&#45;a&#45;kernel#1163527783&#45;&gt;http://purl.org/dj/python/lib/144966264 -->
<g id="edge13" class="edge">
<title>http://purl.org/dj/kaggle/submitting&#45;from&#45;a&#45;kernel#1163527783&#45;&gt;http://purl.org/dj/python/lib/144966264</title>
<path fill="none" stroke="black" d="M552.69,-716.19C502.98,-702.28 451.04,-675.63 451.04,-625 451.04,-625 451.04,-625 451.04,-461 451.04,-430.44 499.3,-216.48 521.04,-195 544.51,-171.82 563.05,-190.75 593.04,-177 618.26,-165.44 618.59,-152.06 644.04,-141 667.09,-130.98 693.2,-123.76 717.84,-118.59"/>
<polygon fill="black" stroke="black" points="718.82,-121.96 727.93,-116.56 717.44,-115.1 718.82,-121.96"/>
<text text-anchor="middle" x="508.54" y="-404.3" font-family="Times,serif" font-size="14.00">previousActivity</text>
</g>
<!-- http://purl.org/dj/kaggle/submitting&#45;from&#45;a&#45;kernel#1163527783&#45;&gt;http://purl.org/dj/kaggle/submitting&#45;from&#45;a&#45;kernel#80085334 -->
<g id="edge14" class="edge">
<title>http://purl.org/dj/kaggle/submitting&#45;from&#45;a&#45;kernel#1163527783&#45;&gt;http://purl.org/dj/kaggle/submitting&#45;from&#45;a&#45;kernel#80085334</title>
<path fill="none" stroke="black" d="M620.83,-713.91C599.59,-694.73 570.04,-661.48 570.04,-625 570.04,-625 570.04,-625 570.04,-461 570.04,-381.38 550.04,-356.9 577.04,-282 582.87,-265.83 594.04,-250.39 604.55,-238.32"/>
<polygon fill="black" stroke="black" points="607.15,-240.66 611.29,-230.9 601.97,-235.95 607.15,-240.66"/>
<text text-anchor="middle" x="600.54" y="-458.3" font-family="Times,serif" font-size="14.00">DataFrame</text>
</g>
<!-- http://purl.org/dj/kaggle/submitting&#45;from&#45;a&#45;kernel#1538525039 -->
<g id="node10" class="node">
<title>http://purl.org/dj/kaggle/submitting&#45;from&#45;a&#45;kernel#1538525039</title>
<ellipse fill="none" stroke="black" cx="1283.04" cy="-624" rx="174.67" ry="18"/>
<text text-anchor="middle" x="1283.04" y="-620.3" font-family="Times,serif" font-size="14.00">1538525039 (predicted_prices(0)$0: Analysis)</text>
</g>
<!-- http://purl.org/dj/kaggle/submitting&#45;from&#45;a&#45;kernel#1163527783&#45;&gt;http://purl.org/dj/kaggle/submitting&#45;from&#45;a&#45;kernel#1538525039 -->
<g id="edge15" class="edge">
<title>http://purl.org/dj/kaggle/submitting&#45;from&#45;a&#45;kernel#1163527783&#45;&gt;http://purl.org/dj/kaggle/submitting&#45;from&#45;a&#45;kernel#1538525039</title>
<path fill="none" stroke="black" d="M737.42,-716.59C775.61,-710.58 819.97,-703.31 860.04,-696 938.58,-681.67 957.36,-673.61 1036.04,-660 1079.1,-652.55 1126.6,-645.54 1168.33,-639.77"/>
<polygon fill="black" stroke="black" points="1168.83,-643.24 1178.26,-638.41 1167.87,-636.3 1168.83,-643.24"/>
<text text-anchor="middle" x="1066.54" y="-674.3" font-family="Times,serif" font-size="14.00">DataFrame</text>
</g>
<!-- http://purl.org/dj/kaggle/submitting&#45;from&#45;a&#45;kernel#67305775 -->
<g id="node11" class="node">
<title>http://purl.org/dj/kaggle/submitting&#45;from&#45;a&#45;kernel#67305775</title>
<ellipse fill="none" stroke="black" cx="334.04" cy="-570" rx="98.28" ry="18"/>
<text text-anchor="middle" x="334.04" y="-566.3" font-family="Times,serif" font-size="14.00">67305775 (Id(0): Reuse)</text>
</g>
<!-- http://purl.org/dj/kaggle/submitting&#45;from&#45;a&#45;kernel#1163527783&#45;&gt;http://purl.org/dj/kaggle/submitting&#45;from&#45;a&#45;kernel#67305775 -->
<g id="edge16" class="edge">
<title>http://purl.org/dj/kaggle/submitting&#45;from&#45;a&#45;kernel#1163527783&#45;&gt;http://purl.org/dj/kaggle/submitting&#45;from&#45;a&#45;kernel#67305775</title>
<path fill="none" stroke="black" d="M479.37,-723.61C434.37,-718.55 393.17,-710.1 376.04,-696 347.04,-672.13 337.96,-627.53 335.18,-598.56"/>
<polygon fill="black" stroke="black" points="338.65,-598 334.39,-588.3 331.67,-598.54 338.65,-598"/>
<text text-anchor="middle" x="406.54" y="-674.3" font-family="Times,serif" font-size="14.00">DataFrame</text>
</g>
<!-- http://purl.org/dj/kaggle/submitting&#45;from&#45;a&#45;kernel#577111084 -->
<g id="node12" class="node">
<title>http://purl.org/dj/kaggle/submitting&#45;from&#45;a&#45;kernel#577111084</title>
<ellipse fill="none" stroke="black" cx="1283.04" cy="-516" rx="151.37" ry="18"/>
<text text-anchor="middle" x="1283.04" y="-512.3" font-family="Times,serif" font-size="14.00">577111084 (my_model(0)$0: Analysis)</text>
</g>
<!-- http://purl.org/dj/kaggle/submitting&#45;from&#45;a&#45;kernel#1163527783&#45;&gt;http://purl.org/dj/kaggle/submitting&#45;from&#45;a&#45;kernel#577111084 -->
<g id="edge17" class="edge">
<title>http://purl.org/dj/kaggle/submitting&#45;from&#45;a&#45;kernel#1163527783&#45;&gt;http://purl.org/dj/kaggle/submitting&#45;from&#45;a&#45;kernel#577111084</title>
<path fill="none" stroke="black" d="M669.38,-714.16C730.2,-677.62 882.31,-591.2 1022.04,-552 1048.67,-544.53 1108.42,-536.3 1164.04,-529.7"/>
<polygon fill="black" stroke="black" points="1164.49,-533.18 1174.01,-528.53 1163.67,-526.22 1164.49,-533.18"/>
<text text-anchor="middle" x="918.54" y="-620.3" font-family="Times,serif" font-size="14.00">previousActivity</text>
</g>
<!-- http://purl.org/dj/kaggle/submitting&#45;from&#45;a&#45;kernel#477627386 -->
<g id="node13" class="node">
<title>http://purl.org/dj/kaggle/submitting&#45;from&#45;a&#45;kernel#477627386</title>
<ellipse fill="none" stroke="black" cx="128.04" cy="-462" rx="128.08" ry="18"/>
<text text-anchor="middle" x="128.04" y="-458.3" font-family="Times,serif" font-size="14.00">477627386 (SalePrice(0): Reuse)</text>
</g>
<!-- http://purl.org/dj/kaggle/submitting&#45;from&#45;a&#45;kernel#1163527783&#45;&gt;http://purl.org/dj/kaggle/submitting&#45;from&#45;a&#45;kernel#477627386 -->
<g id="edge18" class="edge">
<title>http://purl.org/dj/kaggle/submitting&#45;from&#45;a&#45;kernel#1163527783&#45;&gt;http://purl.org/dj/kaggle/submitting&#45;from&#45;a&#45;kernel#477627386</title>
<path fill="none" stroke="black" d="M498.48,-720.74C437.83,-715.01 374.86,-706.82 347.04,-696 245.73,-656.58 171.27,-541.15 141.86,-489.05"/>
<polygon fill="black" stroke="black" points="144.81,-487.14 136.9,-480.09 138.68,-490.53 144.81,-487.14"/>
<text text-anchor="middle" x="292.54" y="-620.3" font-family="Times,serif" font-size="14.00">DataFrame</text>
</g>
<!-- http://purl.org/dj/kaggle/submitting&#45;from&#45;a&#45;kernel#1538525039&#45;&gt;http://purl.org/dj/kaggle/submitting&#45;from&#45;a&#45;kernel#398984013 -->
<g id="edge19" class="edge">
<title>http://purl.org/dj/kaggle/submitting&#45;from&#45;a&#45;kernel#1538525039&#45;&gt;http://purl.org/dj/kaggle/submitting&#45;from&#45;a&#45;kernel#398984013</title>
<path fill="none" stroke="black" d="M1245.62,-606.39C1158.48,-567.7 942.21,-471.68 847.13,-429.46"/>
<polygon fill="black" stroke="black" points="848.33,-426.17 837.77,-425.31 845.49,-432.57 848.33,-426.17"/>
<text text-anchor="middle" x="1102.04" y="-512.3" font-family="Times,serif" font-size="14.00">predict</text>
</g>
<!-- http://purl.org/dj/kaggle/submitting&#45;from&#45;a&#45;kernel#1538525039&#45;&gt;http://purl.org/dj/kaggle/submitting&#45;from&#45;a&#45;kernel#1800680260 -->
<g id="edge20" class="edge">
<title>http://purl.org/dj/kaggle/submitting&#45;from&#45;a&#45;kernel#1538525039&#45;&gt;http://purl.org/dj/kaggle/submitting&#45;from&#45;a&#45;kernel#1800680260</title>
<path fill="none" stroke="black" d="M1454.68,-620.38C1606.83,-613.24 1805.04,-589.94 1805.04,-517 1805.04,-517 1805.04,-517 1805.04,-299 1805.04,-279.75 1805.56,-258.05 1806.07,-241.39"/>
<polygon fill="black" stroke="black" points="1809.57,-241.36 1806.39,-231.25 1802.57,-241.14 1809.57,-241.36"/>
<text text-anchor="middle" x="1850.54" y="-404.3" font-family="Times,serif" font-size="14.00">previousActivity</text>
</g>
<!-- http://purl.org/dj/kaggle/submitting&#45;from&#45;a&#45;kernel#1538525039&#45;&gt;http://purl.org/dj/kaggle/submitting&#45;from&#45;a&#45;kernel#577111084 -->
<g id="edge21" class="edge">
<title>http://purl.org/dj/kaggle/submitting&#45;from&#45;a&#45;kernel#1538525039&#45;&gt;http://purl.org/dj/kaggle/submitting&#45;from&#45;a&#45;kernel#577111084</title>
<path fill="none" stroke="black" d="M1283.04,-605.97C1283.04,-589.38 1283.04,-563.88 1283.04,-544.43"/>
<polygon fill="black" stroke="black" points="1286.54,-544.34 1283.04,-534.34 1279.54,-544.34 1286.54,-544.34"/>
<text text-anchor="middle" x="1302.04" y="-566.3" font-family="Times,serif" font-size="14.00">predict</text>
</g>
<!-- http://purl.org/dj/kaggle/submitting&#45;from&#45;a&#45;kernel#67305775&#45;&gt;http://purl.org/dj/kaggle/submitting&#45;from&#45;a&#45;kernel -->
<g id="edge22" class="edge">
<title>http://purl.org/dj/kaggle/submitting&#45;from&#45;a&#45;kernel#67305775&#45;&gt;http://purl.org/dj/kaggle/submitting&#45;from&#45;a&#45;kernel</title>
<path fill="none" stroke="black" d="M316.15,-552.08C297.53,-532.56 271.04,-498.54 271.04,-463 271.04,-463 271.04,-463 271.04,-104 271.04,-64.04 833.95,-34.38 1074.8,-23.52"/>
<polygon fill="black" stroke="black" points="1075.14,-27.01 1084.98,-23.06 1074.83,-20.02 1075.14,-27.01"/>
<text text-anchor="middle" x="297.54" y="-296.3" font-family="Times,serif" font-size="14.00">appearsIn</text>
</g>
<!-- http://purl.org/dj/kaggle/submitting&#45;from&#45;a&#45;kernel#577111084&#45;&gt;http://purl.org/dj/kaggle/submitting&#45;from&#45;a&#45;kernel#1800680260 -->
<g id="edge23" class="edge">
<title>http://purl.org/dj/kaggle/submitting&#45;from&#45;a&#45;kernel#577111084&#45;&gt;http://purl.org/dj/kaggle/submitting&#45;from&#45;a&#45;kernel#1800680260</title>
<path fill="none" stroke="black" d="M1393.97,-503.74C1425.6,-498.53 1459.7,-490.96 1490.04,-480 1579.94,-447.51 1606.38,-437.47 1676.04,-372 1690.05,-358.83 1688.34,-351.26 1700.04,-336 1726.99,-300.84 1761.19,-262.85 1783.58,-238.77"/>
<polygon fill="black" stroke="black" points="1786.42,-240.86 1790.69,-231.16 1781.3,-236.08 1786.42,-240.86"/>
<text text-anchor="middle" x="1745.54" y="-350.3" font-family="Times,serif" font-size="14.00">previousActivity</text>
</g>
<!-- http://purl.org/dj/kaggle/submitting&#45;from&#45;a&#45;kernel#477168555 -->
<g id="node14" class="node">
<title>http://purl.org/dj/kaggle/submitting&#45;from&#45;a&#45;kernel#477168555</title>
<ellipse fill="none" stroke="black" cx="1351.04" cy="-408" rx="130.78" ry="18"/>
<text text-anchor="middle" x="1351.04" y="-404.3" font-family="Times,serif" font-size="14.00">477168555 (train_X(0)$0: Reuse)</text>
</g>
<!-- http://purl.org/dj/kaggle/submitting&#45;from&#45;a&#45;kernel#577111084&#45;&gt;http://purl.org/dj/kaggle/submitting&#45;from&#45;a&#45;kernel#477168555 -->
<g id="edge24" class="edge">
<title>http://purl.org/dj/kaggle/submitting&#45;from&#45;a&#45;kernel#577111084&#45;&gt;http://purl.org/dj/kaggle/submitting&#45;from&#45;a&#45;kernel#477168555</title>
<path fill="none" stroke="black" d="M1293.96,-497.97C1304.97,-480.82 1322.08,-454.14 1334.7,-434.47"/>
<polygon fill="black" stroke="black" points="1337.69,-436.3 1340.14,-425.99 1331.79,-432.52 1337.69,-436.3"/>
<text text-anchor="middle" x="1373.54" y="-458.3" font-family="Times,serif" font-size="14.00">previousActivity</text>
</g>
<!-- http://purl.org/dj/kaggle/submitting&#45;from&#45;a&#45;kernel#440271832 -->
<g id="node15" class="node">
<title>http://purl.org/dj/kaggle/submitting&#45;from&#45;a&#45;kernel#440271832</title>
<ellipse fill="none" stroke="black" cx="1539.04" cy="-354" rx="133.78" ry="18"/>
<text text-anchor="middle" x="1539.04" y="-350.3" font-family="Times,serif" font-size="14.00">440271832 (my_model(0): Reuse)</text>
</g>
<!-- http://purl.org/dj/kaggle/submitting&#45;from&#45;a&#45;kernel#577111084&#45;&gt;http://purl.org/dj/kaggle/submitting&#45;from&#45;a&#45;kernel#440271832 -->
<g id="edge25" class="edge">
<title>http://purl.org/dj/kaggle/submitting&#45;from&#45;a&#45;kernel#577111084&#45;&gt;http://purl.org/dj/kaggle/submitting&#45;from&#45;a&#45;kernel#440271832</title>
<path fill="none" stroke="black" d="M1364.71,-500.78C1384.39,-495.69 1404.95,-488.92 1423.04,-480 1457.65,-462.93 1464.82,-454.31 1491.04,-426 1503.73,-412.3 1515.51,-394.97 1524.23,-380.86"/>
<polygon fill="black" stroke="black" points="1527.33,-382.49 1529.49,-372.12 1521.33,-378.88 1527.33,-382.49"/>
<text text-anchor="middle" x="1480.04" y="-458.3" font-family="Times,serif" font-size="14.00">fit</text>
</g>
<!-- http://purl.org/dj/kaggle/submitting&#45;from&#45;a&#45;kernel#490144716 -->
<g id="node16" class="node">
<title>http://purl.org/dj/kaggle/submitting&#45;from&#45;a&#45;kernel#490144716</title>
<ellipse fill="none" stroke="black" cx="1074.04" cy="-408" rx="128.88" ry="18"/>
<text text-anchor="middle" x="1074.04" y="-404.3" font-family="Times,serif" font-size="14.00">490144716 (train_y(0)$0: Reuse)</text>
</g>
<!-- http://purl.org/dj/kaggle/submitting&#45;from&#45;a&#45;kernel#577111084&#45;&gt;http://purl.org/dj/kaggle/submitting&#45;from&#45;a&#45;kernel#490144716 -->
<g id="edge26" class="edge">
<title>http://purl.org/dj/kaggle/submitting&#45;from&#45;a&#45;kernel#577111084&#45;&gt;http://purl.org/dj/kaggle/submitting&#45;from&#45;a&#45;kernel#490144716</title>
<path fill="none" stroke="black" d="M1249.03,-498.38C1237.29,-492.61 1224.07,-486.06 1212.04,-480 1179.18,-463.45 1142.11,-444.35 1114.67,-430.13"/>
<polygon fill="black" stroke="black" points="1116.24,-427.01 1105.75,-425.51 1113.02,-433.22 1116.24,-427.01"/>
<text text-anchor="middle" x="1257.54" y="-458.3" font-family="Times,serif" font-size="14.00">previousActivity</text>
</g>
<!-- http://purl.org/dj/kaggle/submitting&#45;from&#45;a&#45;kernel#477627386&#45;&gt;http://purl.org/dj/kaggle/submitting&#45;from&#45;a&#45;kernel -->
<g id="edge27" class="edge">
<title>http://purl.org/dj/kaggle/submitting&#45;from&#45;a&#45;kernel#477627386&#45;&gt;http://purl.org/dj/kaggle/submitting&#45;from&#45;a&#45;kernel</title>
<path fill="none" stroke="black" d="M133.03,-443.91C138.66,-423.1 147.04,-386.78 147.04,-355 147.04,-355 147.04,-355 147.04,-104 147.04,-50.3 204.78,-66.36 257.04,-54 334.34,-35.72 843.97,-24.8 1072.03,-20.77"/>
<polygon fill="black" stroke="black" points="1072.41,-24.27 1082.35,-20.59 1072.29,-17.27 1072.41,-24.27"/>
<text text-anchor="middle" x="192.54" y="-252.8" font-family="Times,serif" font-size="14.00">previousActivity</text>
</g>
<!-- http://purl.org/dj/kaggle/submitting&#45;from&#45;a&#45;kernel#477168555&#45;&gt;http://purl.org/dj/kaggle/submitting&#45;from&#45;a&#45;kernel#1270154930 -->
<g id="edge30" class="edge">
<title>http://purl.org/dj/kaggle/submitting&#45;from&#45;a&#45;kernel#477168555&#45;&gt;http://purl.org/dj/kaggle/submitting&#45;from&#45;a&#45;kernel#1270154930</title>
<path fill="none" stroke="black" d="M1330.84,-389.93C1326.05,-384.72 1321.6,-378.6 1319.04,-372 1313.71,-358.28 1314.42,-341.95 1316.71,-328.41"/>
<polygon fill="black" stroke="black" points="1320.21,-328.76 1318.8,-318.26 1313.36,-327.35 1320.21,-328.76"/>
<text text-anchor="middle" x="1357.54" y="-350.3" font-family="Times,serif" font-size="14.00">assignedFrom</text>
</g>
<!-- http://purl.org/dj/kaggle/submitting&#45;from&#45;a&#45;kernel#327811828 -->
<g id="node18" class="node">
<title>http://purl.org/dj/kaggle/submitting&#45;from&#45;a&#45;kernel#327811828</title>
<ellipse fill="none" stroke="black" cx="1010.04" cy="-300" rx="137.58" ry="18"/>
<text text-anchor="middle" x="1010.04" y="-296.3" font-family="Times,serif" font-size="14.00">327811828 (train(0)$0: Movement)</text>
</g>
<!-- http://purl.org/dj/kaggle/submitting&#45;from&#45;a&#45;kernel#477168555&#45;&gt;http://purl.org/dj/kaggle/submitting&#45;from&#45;a&#45;kernel#327811828 -->
<g id="edge31" class="edge">
<title>http://purl.org/dj/kaggle/submitting&#45;from&#45;a&#45;kernel#477168555&#45;&gt;http://purl.org/dj/kaggle/submitting&#45;from&#45;a&#45;kernel#327811828</title>
<path fill="none" stroke="black" d="M1282.44,-392.63C1265.91,-387.54 1248.79,-380.8 1234.04,-372 1214.61,-360.4 1218.06,-346.54 1198.04,-336 1177.82,-325.35 1154.89,-317.9 1132.16,-312.7"/>
<polygon fill="black" stroke="black" points="1132.61,-309.21 1122.1,-310.53 1131.14,-316.06 1132.61,-309.21"/>
<text text-anchor="middle" x="1272.54" y="-350.3" font-family="Times,serif" font-size="14.00">assignedFrom</text>
</g>
<!-- http://purl.org/dj/kaggle/submitting&#45;from&#45;a&#45;kernel#440271832&#45;&gt;http://purl.org/dj/kaggle/submitting&#45;from&#45;a&#45;kernel -->
<g id="edge39" class="edge">
<title>http://purl.org/dj/kaggle/submitting&#45;from&#45;a&#45;kernel#440271832&#45;&gt;http://purl.org/dj/kaggle/submitting&#45;from&#45;a&#45;kernel</title>
<path fill="none" stroke="black" d="M1533.71,-335.64C1525.24,-311.38 1506.17,-268.18 1473.04,-249 1433.77,-226.27 1096.41,-263.79 1065.04,-231 1053.98,-219.44 1054.74,-207.25 1065.04,-195 1094.94,-159.42 1136.6,-211.22 1168.04,-177 1200.46,-141.72 1195.27,-81.4 1188.63,-46.39"/>
<polygon fill="black" stroke="black" points="1192.01,-45.47 1186.56,-36.39 1185.16,-46.89 1192.01,-45.47"/>
<text text-anchor="middle" x="1091.54" y="-209.3" font-family="Times,serif" font-size="14.00">appearsIn</text>
</g>
<!-- http://purl.org/dj/kaggle/submitting&#45;from&#45;a&#45;kernel#490144716&#45;&gt;http://purl.org/dj/kaggle/submitting&#45;from&#45;a&#45;kernel#327811828 -->
<g id="edge40" class="edge">
<title>http://purl.org/dj/kaggle/submitting&#45;from&#45;a&#45;kernel#490144716&#45;&gt;http://purl.org/dj/kaggle/submitting&#45;from&#45;a&#45;kernel#327811828</title>
<path fill="none" stroke="black" d="M1039.1,-390.61C1031.74,-385.62 1024.79,-379.44 1020.04,-372 1011.82,-359.12 1009.19,-342.27 1008.67,-328.22"/>
<polygon fill="black" stroke="black" points="1012.17,-328.12 1008.63,-318.14 1005.17,-328.15 1012.17,-328.12"/>
<text text-anchor="middle" x="1058.54" y="-350.3" font-family="Times,serif" font-size="14.00">assignedFrom</text>
</g>
<!-- http://purl.org/dj/kaggle/submitting&#45;from&#45;a&#45;kernel#249561878 -->
<g id="node17" class="node">
<title>http://purl.org/dj/kaggle/submitting&#45;from&#45;a&#45;kernel#249561878</title>
<ellipse fill="none" stroke="black" cx="1002.04" cy="-732" rx="136.48" ry="18"/>
<text text-anchor="middle" x="1002.04" y="-728.3" font-family="Times,serif" font-size="14.00">249561878 (print[0]: Visualisation)</text>
</g>
<!-- http://purl.org/dj/kaggle/submitting&#45;from&#45;a&#45;kernel#249561878&#45;&gt;http://purl.org/dj/kaggle/submitting&#45;from&#45;a&#45;kernel#1538525039 -->
<g id="edge28" class="edge">
<title>http://purl.org/dj/kaggle/submitting&#45;from&#45;a&#45;kernel#249561878&#45;&gt;http://purl.org/dj/kaggle/submitting&#45;from&#45;a&#45;kernel#1538525039</title>
<path fill="none" stroke="black" d="M1044.72,-714.9C1094.15,-696.25 1175.65,-665.51 1229.34,-645.26"/>
<polygon fill="black" stroke="black" points="1230.91,-648.41 1239.03,-641.6 1228.44,-641.86 1230.91,-648.41"/>
<text text-anchor="middle" x="1230.54" y="-674.3" font-family="Times,serif" font-size="14.00">previousActivity</text>
</g>
<!-- http://purl.org/dj/kaggle/submitting&#45;from&#45;a&#45;kernel#249561878&#45;&gt;http://purl.org/dj/kaggle/submitting&#45;from&#45;a&#45;kernel#577111084 -->
<g id="edge29" class="edge">
<title>http://purl.org/dj/kaggle/submitting&#45;from&#45;a&#45;kernel#249561878&#45;&gt;http://purl.org/dj/kaggle/submitting&#45;from&#45;a&#45;kernel#577111084</title>
<path fill="none" stroke="black" d="M997.33,-714.01C991.2,-687.89 983.89,-637.58 1008.04,-606 1041.26,-562.56 1096.03,-539.98 1147.98,-528.36"/>
<polygon fill="black" stroke="black" points="1148.92,-531.74 1157.99,-526.25 1147.48,-524.89 1148.92,-531.74"/>
<text text-anchor="middle" x="1053.54" y="-620.3" font-family="Times,serif" font-size="14.00">previousActivity</text>
</g>
<!-- http://purl.org/dj/kaggle/submitting&#45;from&#45;a&#45;kernel#327811828&#45;&gt;http://purl.org/dj/python/lib/144966264 -->
<g id="edge32" class="edge">
<title>http://purl.org/dj/kaggle/submitting&#45;from&#45;a&#45;kernel#327811828&#45;&gt;http://purl.org/dj/python/lib/144966264</title>
<path fill="none" stroke="black" d="M981.19,-282.36C946.84,-261.39 889.43,-222.53 852.04,-177 840.88,-163.41 831.12,-146.28 824.04,-132.24"/>
<polygon fill="black" stroke="black" points="827.11,-130.56 819.58,-123.11 820.82,-133.63 827.11,-130.56"/>
<text text-anchor="middle" x="952.54" y="-209.3" font-family="Times,serif" font-size="14.00">previousActivity</text>
</g>
<!-- http://purl.org/dj/kaggle/submitting&#45;from&#45;a&#45;kernel#327811828&#45;&gt;http://purl.org/dj/kaggle/submitting&#45;from&#45;a&#45;kernel#80085334 -->
<g id="edge33" class="edge">
<title>http://purl.org/dj/kaggle/submitting&#45;from&#45;a&#45;kernel#327811828&#45;&gt;http://purl.org/dj/kaggle/submitting&#45;from&#45;a&#45;kernel#80085334</title>
<path fill="none" stroke="black" d="M932.35,-285.05C900.01,-278.99 862.12,-271.55 828.04,-264 782.54,-253.92 731.58,-241.08 692.62,-230.94"/>
<polygon fill="black" stroke="black" points="693.04,-227.44 682.48,-228.29 691.27,-234.21 693.04,-227.44"/>
<text text-anchor="middle" x="852.54" y="-252.8" font-family="Times,serif" font-size="14.00">read_csv</text>
</g>
<!-- http://purl.org/dj/kaggle/submitting&#45;from&#45;a&#45;kernel#1310918404 -->
<g id="node19" class="node">
<title>http://purl.org/dj/kaggle/submitting&#45;from&#45;a&#45;kernel#1310918404</title>
<ellipse fill="none" stroke="black" cx="1010.04" cy="-159" rx="157.07" ry="18"/>
<text text-anchor="middle" x="1010.04" y="-155.3" font-family="Times,serif" font-size="14.00">1310918404 (../input/train.csv(0): Reuse)</text>
</g>
<!-- http://purl.org/dj/kaggle/submitting&#45;from&#45;a&#45;kernel#327811828&#45;&gt;http://purl.org/dj/kaggle/submitting&#45;from&#45;a&#45;kernel#1310918404 -->
<g id="edge34" class="edge">
<title>http://purl.org/dj/kaggle/submitting&#45;from&#45;a&#45;kernel#327811828&#45;&gt;http://purl.org/dj/kaggle/submitting&#45;from&#45;a&#45;kernel#1310918404</title>
<path fill="none" stroke="black" d="M1010.04,-281.96C1010.04,-258.4 1010.04,-215.64 1010.04,-187.53"/>
<polygon fill="black" stroke="black" points="1013.54,-187.18 1010.04,-177.18 1006.54,-187.18 1013.54,-187.18"/>
<text text-anchor="middle" x="1034.54" y="-252.8" font-family="Times,serif" font-size="14.00">read_csv</text>
</g>
<!-- http://purl.org/dj/kaggle/submitting&#45;from&#45;a&#45;kernel#1310918404&#45;&gt;http://purl.org/dj/kaggle/submitting&#45;from&#45;a&#45;kernel -->
<g id="edge35" class="edge">
<title>http://purl.org/dj/kaggle/submitting&#45;from&#45;a&#45;kernel#1310918404&#45;&gt;http://purl.org/dj/kaggle/submitting&#45;from&#45;a&#45;kernel</title>
<path fill="none" stroke="black" d="M1031.13,-140.96C1061.86,-116.12 1119.02,-69.93 1153.49,-42.08"/>
<polygon fill="black" stroke="black" points="1155.74,-44.76 1161.31,-35.75 1151.34,-39.31 1155.74,-44.76"/>
<text text-anchor="middle" x="1122.54" y="-101.3" font-family="Times,serif" font-size="14.00">appearsIn</text>
</g>
<!-- http://purl.org/dj/python/lib/111084090 -->
<g id="node20" class="node">
<title>http://purl.org/dj/python/lib/111084090</title>
<ellipse fill="none" stroke="black" cx="2662.04" cy="-105" rx="109.68" ry="18"/>
<text text-anchor="middle" x="2662.04" y="-101.3" font-family="Times,serif" font-size="14.00">111084090 (numpy: Reuse)</text>
</g>
<!-- http://purl.org/dj/python/lib/111084090&#45;&gt;http://purl.org/dj/kaggle/submitting&#45;from&#45;a&#45;kernel -->
<g id="edge36" class="edge">
<title>http://purl.org/dj/python/lib/111084090&#45;&gt;http://purl.org/dj/kaggle/submitting&#45;from&#45;a&#45;kernel</title>
<path fill="none" stroke="black" d="M2620.54,-88.23C2587.18,-76.37 2538.82,-61.01 2495.04,-54 2378.18,-35.29 1587.39,-23.91 1292.56,-20.27"/>
<polygon fill="black" stroke="black" points="1292.32,-16.77 1282.28,-20.15 1292.23,-23.77 1292.32,-16.77"/>
<text text-anchor="middle" x="2593.04" y="-57.8" font-family="Times,serif" font-size="14.00">importedBy</text>
</g>
<!-- http://purl.org/dj/kaggle/submitting&#45;from&#45;a&#45;kernel#82575712 -->
<g id="node21" class="node">
<title>http://purl.org/dj/kaggle/submitting&#45;from&#45;a&#45;kernel#82575712</title>
<ellipse fill="none" stroke="black" cx="2642.04" cy="-213" rx="99.38" ry="18"/>
<text text-anchor="middle" x="2642.04" y="-209.3" font-family="Times,serif" font-size="14.00">82575712 (np(0): Reuse)</text>
</g>
<!-- http://purl.org/dj/kaggle/submitting&#45;from&#45;a&#45;kernel#82575712&#45;&gt;http://purl.org/dj/kaggle/submitting&#45;from&#45;a&#45;kernel -->
<g id="edge37" class="edge">
<title>http://purl.org/dj/kaggle/submitting&#45;from&#45;a&#45;kernel#82575712&#45;&gt;http://purl.org/dj/kaggle/submitting&#45;from&#45;a&#45;kernel</title>
<path fill="none" stroke="black" d="M2603.81,-196.24C2570.73,-181.16 2523.12,-155.87 2490.04,-123 2464.73,-97.86 2479.8,-72.07 2449.04,-54 2399.65,-24.98 1592.11,-20.02 1292.64,-19.17"/>
<polygon fill="black" stroke="black" points="1292.64,-15.67 1282.63,-19.14 1292.62,-22.67 1292.64,-15.67"/>
<text text-anchor="middle" x="2516.54" y="-101.3" font-family="Times,serif" font-size="14.00">appearsIn</text>
</g>
<!-- http://purl.org/dj/kaggle/submitting&#45;from&#45;a&#45;kernel#82575712&#45;&gt;http://purl.org/dj/python/lib/111084090 -->
<g id="edge38" class="edge">
<title>http://purl.org/dj/kaggle/submitting&#45;from&#45;a&#45;kernel#82575712&#45;&gt;http://purl.org/dj/python/lib/111084090</title>
<path fill="none" stroke="black" d="M2645.25,-194.97C2648.38,-178.38 2653.19,-152.88 2656.86,-133.43"/>
<polygon fill="black" stroke="black" points="2660.35,-133.82 2658.77,-123.34 2653.47,-132.52 2660.35,-133.82"/>
<text text-anchor="middle" x="2692.54" y="-155.3" font-family="Times,serif" font-size="14.00">assignedFrom</text>
</g>
<!-- http://purl.org/dj/python/lib/919996010 -->
<g id="node22" class="node">
<title>http://purl.org/dj/python/lib/919996010</title>
<ellipse fill="none" stroke="black" cx="2936.04" cy="-105" rx="146.47" ry="18"/>
<text text-anchor="middle" x="2936.04" y="-101.3" font-family="Times,serif" font-size="14.00">919996010 (sklearn.ensemble: Reuse)</text>
</g>
<!-- http://purl.org/dj/python/lib/919996010&#45;&gt;http://purl.org/dj/kaggle/submitting&#45;from&#45;a&#45;kernel -->
<g id="edge41" class="edge">
<title>http://purl.org/dj/python/lib/919996010&#45;&gt;http://purl.org/dj/kaggle/submitting&#45;from&#45;a&#45;kernel</title>
<path fill="none" stroke="black" d="M2863.75,-89.3C2801.98,-77.43 2710.57,-61.52 2630.04,-54 2371,-29.82 1584.7,-21.86 1292.73,-19.7"/>
<polygon fill="black" stroke="black" points="1292.58,-16.2 1282.55,-19.63 1292.53,-23.2 1292.58,-16.2"/>
<text text-anchor="middle" x="2784.54" y="-57.8" font-family="Times,serif" font-size="14.00">previousActivity</text>
</g>
<!-- http://purl.org/dj/kaggle/submitting&#45;from&#45;a&#45;kernel#1989675282 -->
<g id="node23" class="node">
<title>http://purl.org/dj/kaggle/submitting&#45;from&#45;a&#45;kernel#1989675282</title>
<ellipse fill="none" stroke="black" cx="3067.04" cy="-300" rx="186.57" ry="18"/>
<text text-anchor="middle" x="3067.04" y="-296.3" font-family="Times,serif" font-size="14.00">1989675282 (RandomForestRegressor(0): Reuse)</text>
</g>
<!-- http://purl.org/dj/kaggle/submitting&#45;from&#45;a&#45;kernel#1989675282&#45;&gt;http://purl.org/dj/kaggle/submitting&#45;from&#45;a&#45;kernel -->
<g id="edge42" class="edge">
<title>http://purl.org/dj/kaggle/submitting&#45;from&#45;a&#45;kernel#1989675282&#45;&gt;http://purl.org/dj/kaggle/submitting&#45;from&#45;a&#45;kernel</title>
<path fill="none" stroke="black" d="M3086.59,-281.84C3099.39,-269.23 3115,-250.9 3122.04,-231 3138.17,-185.39 3095.65,-90.96 3091.04,-87 3022.57,-28.21 1690.2,-20.23 1292.92,-19.16"/>
<polygon fill="black" stroke="black" points="1292.86,-15.66 1282.86,-19.14 1292.85,-22.66 1292.86,-15.66"/>
<text text-anchor="middle" x="3167.54" y="-155.3" font-family="Times,serif" font-size="14.00">previousActivity</text>
</g>
<!-- http://purl.org/dj/python/lib/1541671057 -->
<g id="node24" class="node">
<title>http://purl.org/dj/python/lib/1541671057</title>
<ellipse fill="none" stroke="black" cx="2936.04" cy="-213" rx="176.57" ry="18"/>
<text text-anchor="middle" x="2936.04" y="-209.3" font-family="Times,serif" font-size="14.00">1541671057 (RandomForestRegressor: Reuse)</text>
</g>
<!-- http://purl.org/dj/kaggle/submitting&#45;from&#45;a&#45;kernel#1989675282&#45;&gt;http://purl.org/dj/python/lib/1541671057 -->
<g id="edge43" class="edge">
<title>http://purl.org/dj/kaggle/submitting&#45;from&#45;a&#45;kernel#1989675282&#45;&gt;http://purl.org/dj/python/lib/1541671057</title>
<path fill="none" stroke="black" d="M3040.84,-282C3020.67,-268.92 2992.61,-250.71 2970.6,-236.43"/>
<polygon fill="black" stroke="black" points="2972.48,-233.47 2962.19,-230.97 2968.67,-239.35 2972.48,-233.47"/>
<text text-anchor="middle" x="3047.54" y="-252.8" font-family="Times,serif" font-size="14.00">assignedFrom</text>
</g>
<!-- http://purl.org/dj/python/lib/1541671057&#45;&gt;http://purl.org/dj/python/lib/919996010 -->
<g id="edge44" class="edge">
<title>http://purl.org/dj/python/lib/1541671057&#45;&gt;http://purl.org/dj/python/lib/919996010</title>
<path fill="none" stroke="black" d="M2936.04,-194.97C2936.04,-178.38 2936.04,-152.88 2936.04,-133.43"/>
<polygon fill="black" stroke="black" points="2939.54,-133.34 2936.04,-123.34 2932.54,-133.34 2939.54,-133.34"/>
<text text-anchor="middle" x="2969.04" y="-155.3" font-family="Times,serif" font-size="14.00">importedBy</text>
</g>
<!-- http://purl.org/dj/kaggle/submitting&#45;from&#45;a&#45;kernel#1048512072 -->
<g id="node25" class="node">
<title>http://purl.org/dj/kaggle/submitting&#45;from&#45;a&#45;kernel#1048512072</title>
<ellipse fill="none" stroke="black" cx="1976.04" cy="-678" rx="153.27" ry="18"/>
<text text-anchor="middle" x="1976.04" y="-674.3" font-family="Times,serif" font-size="14.00">1048512072 (submission.csv(0): Reuse)</text>
</g>
<!-- http://purl.org/dj/kaggle/submitting&#45;from&#45;a&#45;kernel#1048512072&#45;&gt;http://purl.org/dj/kaggle/submitting&#45;from&#45;a&#45;kernel -->
<g id="edge45" class="edge">
<title>http://purl.org/dj/kaggle/submitting&#45;from&#45;a&#45;kernel#1048512072&#45;&gt;http://purl.org/dj/kaggle/submitting&#45;from&#45;a&#45;kernel</title>
<path fill="none" stroke="black" d="M2129.05,-676.26C2288.4,-671.23 2515.04,-650.16 2515.04,-571 2515.04,-571 2515.04,-571 2515.04,-255.5 2515.04,-227.32 2517.6,-213.15 2496.04,-195 2314.95,-42.53 1576.46,-21.45 1293.28,-19.05"/>
<polygon fill="black" stroke="black" points="1293.02,-15.55 1283,-18.97 1292.97,-22.55 1293.02,-15.55"/>
<text text-anchor="middle" x="2541.54" y="-350.3" font-family="Times,serif" font-size="14.00">appearsIn</text>
</g>
<!-- http://purl.org/dj/kaggle/submitting&#45;from&#45;a&#45;kernel#1163593320 -->
<g id="node26" class="node">
<title>http://purl.org/dj/kaggle/submitting&#45;from&#45;a&#45;kernel#1163593320</title>
<ellipse fill="none" stroke="black" cx="974.04" cy="-819" rx="164.37" ry="18"/>
<text text-anchor="middle" x="974.04" y="-815.3" font-family="Times,serif" font-size="14.00">1163593320 (my_submission(0)$1: Reuse)</text>
</g>
<!-- http://purl.org/dj/kaggle/submitting&#45;from&#45;a&#45;kernel#1163593320&#45;&gt;http://purl.org/dj/kaggle/submitting&#45;from&#45;a&#45;kernel#1163527783 -->
<g id="edge46" class="edge">
<title>http://purl.org/dj/kaggle/submitting&#45;from&#45;a&#45;kernel#1163593320&#45;&gt;http://purl.org/dj/kaggle/submitting&#45;from&#45;a&#45;kernel#1163527783</title>
<path fill="none" stroke="black" d="M912.37,-802.21C856.35,-787.87 773.68,-766.7 714.52,-751.56"/>
<polygon fill="black" stroke="black" points="715.06,-748.08 704.5,-748.99 713.32,-754.86 715.06,-748.08"/>
<text text-anchor="middle" x="873.54" y="-771.8" font-family="Times,serif" font-size="14.00">previousActivity</text>
</g>
<!-- http://purl.org/dj/kaggle/submitting&#45;from&#45;a&#45;kernel#1163593320&#45;&gt;http://purl.org/dj/kaggle/submitting&#45;from&#45;a&#45;kernel#1048512072 -->
<g id="edge47" class="edge">
<title>http://purl.org/dj/kaggle/submitting&#45;from&#45;a&#45;kernel#1163593320&#45;&gt;http://purl.org/dj/kaggle/submitting&#45;from&#45;a&#45;kernel#1048512072</title>
<path fill="none" stroke="black" d="M1071.48,-804.48C1260.61,-778.25 1675.94,-720.63 1870.97,-693.58"/>
<polygon fill="black" stroke="black" points="1871.52,-697.03 1880.94,-692.19 1870.55,-690.1 1871.52,-697.03"/>
<text text-anchor="middle" x="1345.04" y="-771.8" font-family="Times,serif" font-size="14.00">to_csv</text>
</g>
</g>
</svg>
