<?xml version="1.0" encoding="UTF-8" standalone="no"?>
<!DOCTYPE svg PUBLIC "-//W3C//DTD SVG 1.1//EN"
 "http://www.w3.org/Graphics/SVG/1.1/DTD/svg11.dtd">
<!-- Generated by graphviz version 2.44.1 (20200629.0846)
 -->
<!-- Pages: 1 -->
<svg width="4025pt" height="629pt"
 viewBox="0.00 0.00 4025.37 629.00" xmlns="http://www.w3.org/2000/svg" xmlns:xlink="http://www.w3.org/1999/xlink">
<g id="graph0" class="graph" transform="scale(1 1) rotate(0) translate(4 625)">
<polygon fill="white" stroke="transparent" points="-4,4 -4,-625 4021.37,-625 4021.37,4 -4,4"/>
<!-- http://purl.org/dj/kaggle/submitting&#45;from&#45;a&#45;kernel#1163593320 -->
<g id="node1" class="node">
<title>http://purl.org/dj/kaggle/submitting&#45;from&#45;a&#45;kernel#1163593320</title>
<ellipse fill="none" stroke="black" cx="2350.93" cy="-603" rx="164.37" ry="18"/>
<text text-anchor="middle" x="2350.93" y="-599.3" font-family="Times,serif" font-size="14.00">1163593320 (my_submission(0)$1: Reuse)</text>
</g>
<!-- http://purl.org/dj/kaggle/submitting&#45;from&#45;a&#45;kernel#1163527783 -->
<g id="node2" class="node">
<title>http://purl.org/dj/kaggle/submitting&#45;from&#45;a&#45;kernel#1163527783</title>
<ellipse fill="none" stroke="black" cx="2350.93" cy="-516" rx="183.07" ry="18"/>
<text text-anchor="middle" x="2350.93" y="-512.3" font-family="Times,serif" font-size="14.00">1163527783 (my_submission(0)$0: Preparation)</text>
</g>
<!-- http://purl.org/dj/kaggle/submitting&#45;from&#45;a&#45;kernel#1163593320&#45;&gt;http://purl.org/dj/kaggle/submitting&#45;from&#45;a&#45;kernel#1163527783 -->
<g id="edge1" class="edge">
<title>http://purl.org/dj/kaggle/submitting&#45;from&#45;a&#45;kernel#1163593320&#45;&gt;http://purl.org/dj/kaggle/submitting&#45;from&#45;a&#45;kernel#1163527783</title>
<path fill="none" stroke="black" d="M2350.93,-584.8C2350.93,-573.16 2350.93,-557.55 2350.93,-544.24"/>
<polygon fill="black" stroke="black" points="2354.43,-544.18 2350.93,-534.18 2347.43,-544.18 2354.43,-544.18"/>
<text text-anchor="middle" x="2374.43" y="-555.8" font-family="Times,serif" font-size="14.00">previous</text>
</g>
<!-- http://purl.org/dj/kaggle/submitting&#45;from&#45;a&#45;kernel#577111084 -->
<g id="node3" class="node">
<title>http://purl.org/dj/kaggle/submitting&#45;from&#45;a&#45;kernel#577111084</title>
<ellipse fill="none" stroke="black" cx="451.93" cy="-429" rx="151.37" ry="18"/>
<text text-anchor="middle" x="451.93" y="-425.3" font-family="Times,serif" font-size="14.00">577111084 (my_model(0)$0: Analysis)</text>
</g>
<!-- http://purl.org/dj/kaggle/submitting&#45;from&#45;a&#45;kernel#1163527783&#45;&gt;http://purl.org/dj/kaggle/submitting&#45;from&#45;a&#45;kernel#577111084 -->
<g id="edge2" class="edge">
<title>http://purl.org/dj/kaggle/submitting&#45;from&#45;a&#45;kernel#1163527783&#45;&gt;http://purl.org/dj/kaggle/submitting&#45;from&#45;a&#45;kernel#577111084</title>
<path fill="none" stroke="black" d="M2169.13,-513.68C1911.46,-511.03 1425.35,-503.15 1011.93,-480 858.79,-471.43 682.66,-454.54 569.46,-442.78"/>
<polygon fill="black" stroke="black" points="569.7,-439.28 559.39,-441.73 568.97,-446.24 569.7,-439.28"/>
<text text-anchor="middle" x="1035.43" y="-468.8" font-family="Times,serif" font-size="14.00">previous</text>
</g>
<!-- http://purl.org/dj/kaggle/submitting&#45;from&#45;a&#45;kernel#477627386 -->
<g id="node4" class="node">
<title>http://purl.org/dj/kaggle/submitting&#45;from&#45;a&#45;kernel#477627386</title>
<ellipse fill="none" stroke="black" cx="2555.93" cy="-375" rx="128.08" ry="18"/>
<text text-anchor="middle" x="2555.93" y="-371.3" font-family="Times,serif" font-size="14.00">477627386 (SalePrice(0): Reuse)</text>
</g>
<!-- http://purl.org/dj/kaggle/submitting&#45;from&#45;a&#45;kernel#1163527783&#45;&gt;http://purl.org/dj/kaggle/submitting&#45;from&#45;a&#45;kernel#477627386 -->
<g id="edge3" class="edge">
<title>http://purl.org/dj/kaggle/submitting&#45;from&#45;a&#45;kernel#1163527783&#45;&gt;http://purl.org/dj/kaggle/submitting&#45;from&#45;a&#45;kernel#477627386</title>
<path fill="none" stroke="black" d="M2391.73,-498.45C2403.4,-493.12 2415.94,-486.81 2426.93,-480 2465.31,-456.2 2505.14,-422.47 2530.2,-399.95"/>
<polygon fill="black" stroke="black" points="2532.74,-402.37 2537.79,-393.06 2528.03,-397.18 2532.74,-402.37"/>
<text text-anchor="middle" x="2471.43" y="-468.8" font-family="Times,serif" font-size="14.00">previous</text>
</g>
<!-- http://purl.org/dj/kaggle/submitting&#45;from&#45;a&#45;kernel#1538525039 -->
<g id="node5" class="node">
<title>http://purl.org/dj/kaggle/submitting&#45;from&#45;a&#45;kernel#1538525039</title>
<ellipse fill="none" stroke="black" cx="1767.93" cy="-429" rx="174.67" ry="18"/>
<text text-anchor="middle" x="1767.93" y="-425.3" font-family="Times,serif" font-size="14.00">1538525039 (predicted_prices(0)$0: Analysis)</text>
</g>
<!-- http://purl.org/dj/kaggle/submitting&#45;from&#45;a&#45;kernel#1163527783&#45;&gt;http://purl.org/dj/kaggle/submitting&#45;from&#45;a&#45;kernel#1538525039 -->
<g id="edge4" class="edge">
<title>http://purl.org/dj/kaggle/submitting&#45;from&#45;a&#45;kernel#1163527783&#45;&gt;http://purl.org/dj/kaggle/submitting&#45;from&#45;a&#45;kernel#1538525039</title>
<path fill="none" stroke="black" d="M2253.02,-500.72C2148.13,-485.43 1982.2,-461.24 1874.2,-445.49"/>
<polygon fill="black" stroke="black" points="1874.66,-442.02 1864.25,-444.04 1873.65,-448.95 1874.66,-442.02"/>
<text text-anchor="middle" x="2117.43" y="-468.8" font-family="Times,serif" font-size="14.00">previous</text>
</g>
<!-- http://purl.org/dj/kaggle/submitting&#45;from&#45;a&#45;kernel#261948054 -->
<g id="node6" class="node">
<title>http://purl.org/dj/kaggle/submitting&#45;from&#45;a&#45;kernel#261948054</title>
<ellipse fill="none" stroke="black" cx="2211.93" cy="-213" rx="133.78" ry="18"/>
<text text-anchor="middle" x="2211.93" y="-209.3" font-family="Times,serif" font-size="14.00">261948054 (test(0)$0: Movement)</text>
</g>
<!-- http://purl.org/dj/kaggle/submitting&#45;from&#45;a&#45;kernel#1163527783&#45;&gt;http://purl.org/dj/kaggle/submitting&#45;from&#45;a&#45;kernel#261948054 -->
<g id="edge5" class="edge">
<title>http://purl.org/dj/kaggle/submitting&#45;from&#45;a&#45;kernel#1163527783&#45;&gt;http://purl.org/dj/kaggle/submitting&#45;from&#45;a&#45;kernel#261948054</title>
<path fill="none" stroke="black" d="M2351.12,-497.75C2351.62,-448.7 2352.58,-311.47 2347.93,-303 2330.31,-270.96 2295.67,-248.55 2265.77,-234.23"/>
<polygon fill="black" stroke="black" points="2267.21,-231.04 2256.66,-230.05 2264.29,-237.4 2267.21,-231.04"/>
<text text-anchor="middle" x="2374.43" y="-371.3" font-family="Times,serif" font-size="14.00">previous</text>
</g>
<!-- http://purl.org/dj/python/lib/144966264 -->
<g id="node7" class="node">
<title>http://purl.org/dj/python/lib/144966264</title>
<ellipse fill="none" stroke="black" cx="2025.93" cy="-105" rx="109.38" ry="18"/>
<text text-anchor="middle" x="2025.93" y="-101.3" font-family="Times,serif" font-size="14.00">144966264 (pandas: Reuse)</text>
</g>
<!-- http://purl.org/dj/kaggle/submitting&#45;from&#45;a&#45;kernel#1163527783&#45;&gt;http://purl.org/dj/python/lib/144966264 -->
<g id="edge6" class="edge">
<title>http://purl.org/dj/kaggle/submitting&#45;from&#45;a&#45;kernel#1163527783&#45;&gt;http://purl.org/dj/python/lib/144966264</title>
<path fill="none" stroke="black" d="M2373.31,-498.06C2391.07,-482.52 2412.93,-457.76 2412.93,-430 2412.93,-430 2412.93,-430 2412.93,-212 2412.93,-86.49 2269.51,-138.16 2144.93,-123 2134.88,-121.78 2124.37,-120.41 2113.93,-118.99"/>
<polygon fill="black" stroke="black" points="2114.34,-115.52 2103.96,-117.62 2113.39,-122.45 2114.34,-115.52"/>
<text text-anchor="middle" x="2436.43" y="-317.3" font-family="Times,serif" font-size="14.00">previous</text>
</g>
<!-- http://purl.org/dj/kaggle/submitting&#45;from&#45;a&#45;kernel#80085334 -->
<g id="node8" class="node">
<title>http://purl.org/dj/kaggle/submitting&#45;from&#45;a&#45;kernel#80085334</title>
<ellipse fill="none" stroke="black" cx="1554.93" cy="-105" rx="99.38" ry="18"/>
<text text-anchor="middle" x="1554.93" y="-101.3" font-family="Times,serif" font-size="14.00">80085334 (pd(0): Reuse)</text>
</g>
<!-- http://purl.org/dj/kaggle/submitting&#45;from&#45;a&#45;kernel#1163527783&#45;&gt;http://purl.org/dj/kaggle/submitting&#45;from&#45;a&#45;kernel#80085334 -->
<g id="edge7" class="edge">
<title>http://purl.org/dj/kaggle/submitting&#45;from&#45;a&#45;kernel#1163527783&#45;&gt;http://purl.org/dj/kaggle/submitting&#45;from&#45;a&#45;kernel#80085334</title>
<path fill="none" stroke="black" d="M2167.63,-515.28C1726.49,-514.74 641.93,-505.73 641.93,-430 641.93,-430 641.93,-430 641.93,-212 641.93,-171.57 1214.4,-128.7 1452.72,-112.61"/>
<polygon fill="black" stroke="black" points="1453.04,-116.1 1462.78,-111.93 1452.57,-109.11 1453.04,-116.1"/>
<text text-anchor="middle" x="665.43" y="-317.3" font-family="Times,serif" font-size="14.00">previous</text>
</g>
<!-- http://purl.org/dj/kaggle/submitting&#45;from&#45;a&#45;kernel#67305775 -->
<g id="node9" class="node">
<title>http://purl.org/dj/kaggle/submitting&#45;from&#45;a&#45;kernel#67305775</title>
<ellipse fill="none" stroke="black" cx="2649.93" cy="-267" rx="98.28" ry="18"/>
<text text-anchor="middle" x="2649.93" y="-263.3" font-family="Times,serif" font-size="14.00">67305775 (Id(0): Reuse)</text>
</g>
<!-- http://purl.org/dj/kaggle/submitting&#45;from&#45;a&#45;kernel#1163527783&#45;&gt;http://purl.org/dj/kaggle/submitting&#45;from&#45;a&#45;kernel#67305775 -->
<g id="edge8" class="edge">
<title>http://purl.org/dj/kaggle/submitting&#45;from&#45;a&#45;kernel#1163527783&#45;&gt;http://purl.org/dj/kaggle/submitting&#45;from&#45;a&#45;kernel#67305775</title>
<path fill="none" stroke="black" d="M2486.97,-503.84C2559.66,-489.93 2642.67,-459.41 2684.93,-393 2704.6,-362.08 2685.15,-320 2668.35,-293.42"/>
<polygon fill="black" stroke="black" points="2671.25,-291.45 2662.82,-285.04 2665.41,-295.31 2671.25,-291.45"/>
<text text-anchor="middle" x="2692.43" y="-425.3" font-family="Times,serif" font-size="14.00">previous</text>
</g>
<!-- http://purl.org/dj/kaggle/submitting&#45;from&#45;a&#45;kernel#490144716 -->
<g id="node10" class="node">
<title>http://purl.org/dj/kaggle/submitting&#45;from&#45;a&#45;kernel#490144716</title>
<ellipse fill="none" stroke="black" cx="476.93" cy="-321" rx="128.88" ry="18"/>
<text text-anchor="middle" x="476.93" y="-317.3" font-family="Times,serif" font-size="14.00">490144716 (train_y(0)$0: Reuse)</text>
</g>
<!-- http://purl.org/dj/kaggle/submitting&#45;from&#45;a&#45;kernel#577111084&#45;&gt;http://purl.org/dj/kaggle/submitting&#45;from&#45;a&#45;kernel#490144716 -->
<g id="edge9" class="edge">
<title>http://purl.org/dj/kaggle/submitting&#45;from&#45;a&#45;kernel#577111084&#45;&gt;http://purl.org/dj/kaggle/submitting&#45;from&#45;a&#45;kernel#490144716</title>
<path fill="none" stroke="black" d="M455.94,-410.97C459.87,-394.3 465.92,-368.65 470.52,-349.16"/>
<polygon fill="black" stroke="black" points="473.95,-349.88 472.84,-339.34 467.13,-348.27 473.95,-349.88"/>
<text text-anchor="middle" x="491.43" y="-371.3" font-family="Times,serif" font-size="14.00">previous</text>
</g>
<!-- http://purl.org/dj/kaggle/submitting&#45;from&#45;a&#45;kernel#1800680260 -->
<g id="node11" class="node">
<title>http://purl.org/dj/kaggle/submitting&#45;from&#45;a&#45;kernel#1800680260</title>
<ellipse fill="none" stroke="black" cx="1386.93" cy="-321" rx="679.68" ry="18"/>
<text text-anchor="middle" x="1386.93" y="-317.3" font-family="Times,serif" font-size="14.00">1800680260 ([&lt;_ast.Constant object at 0x12f8ab220&gt;, &lt;_ast.Constant object at 0x12f8ab790&gt;, &lt;_ast.Constant object at 0x12f8ab130&gt;, &lt;_ast.Constant object at 0x12f8ab190&gt;](0): Reuse)</text>
</g>
<!-- http://purl.org/dj/kaggle/submitting&#45;from&#45;a&#45;kernel#577111084&#45;&gt;http://purl.org/dj/kaggle/submitting&#45;from&#45;a&#45;kernel#1800680260 -->
<g id="edge10" class="edge">
<title>http://purl.org/dj/kaggle/submitting&#45;from&#45;a&#45;kernel#577111084&#45;&gt;http://purl.org/dj/kaggle/submitting&#45;from&#45;a&#45;kernel#1800680260</title>
<path fill="none" stroke="black" d="M557.36,-416.05C721.58,-397.43 1039.38,-361.4 1230.4,-339.74"/>
<polygon fill="black" stroke="black" points="1230.99,-343.2 1240.53,-338.6 1230.2,-336.25 1230.99,-343.2"/>
<text text-anchor="middle" x="1080.43" y="-371.3" font-family="Times,serif" font-size="14.00">previous</text>
</g>
<!-- http://purl.org/dj/kaggle/submitting&#45;from&#45;a&#45;kernel#477168555 -->
<g id="node12" class="node">
<title>http://purl.org/dj/kaggle/submitting&#45;from&#45;a&#45;kernel#477168555</title>
<ellipse fill="none" stroke="black" cx="199.93" cy="-321" rx="130.78" ry="18"/>
<text text-anchor="middle" x="199.93" y="-317.3" font-family="Times,serif" font-size="14.00">477168555 (train_X(0)$0: Reuse)</text>
</g>
<!-- http://purl.org/dj/kaggle/submitting&#45;from&#45;a&#45;kernel#577111084&#45;&gt;http://purl.org/dj/kaggle/submitting&#45;from&#45;a&#45;kernel#477168555 -->
<g id="edge11" class="edge">
<title>http://purl.org/dj/kaggle/submitting&#45;from&#45;a&#45;kernel#577111084&#45;&gt;http://purl.org/dj/kaggle/submitting&#45;from&#45;a&#45;kernel#477168555</title>
<path fill="none" stroke="black" d="M412.83,-411.55C368.37,-392.85 295.78,-362.32 247.93,-342.19"/>
<polygon fill="black" stroke="black" points="249.28,-338.96 238.7,-338.31 246.56,-345.41 249.28,-338.96"/>
<text text-anchor="middle" x="386.43" y="-371.3" font-family="Times,serif" font-size="14.00">previous</text>
</g>
<!-- http://purl.org/dj/kaggle/submitting&#45;from&#45;a&#45;kernel#440271832 -->
<g id="node13" class="node">
<title>http://purl.org/dj/kaggle/submitting&#45;from&#45;a&#45;kernel#440271832</title>
<ellipse fill="none" stroke="black" cx="160.93" cy="-159" rx="133.78" ry="18"/>
<text text-anchor="middle" x="160.93" y="-155.3" font-family="Times,serif" font-size="14.00">440271832 (my_model(0): Reuse)</text>
</g>
<!-- http://purl.org/dj/kaggle/submitting&#45;from&#45;a&#45;kernel#577111084&#45;&gt;http://purl.org/dj/kaggle/submitting&#45;from&#45;a&#45;kernel#440271832 -->
<g id="edge12" class="edge">
<title>http://purl.org/dj/kaggle/submitting&#45;from&#45;a&#45;kernel#577111084&#45;&gt;http://purl.org/dj/kaggle/submitting&#45;from&#45;a&#45;kernel#440271832</title>
<path fill="none" stroke="black" d="M322.81,-419.54C207.68,-408.99 51.54,-386.22 12.93,-339 -33.71,-281.96 61.63,-215.15 120.03,-181.58"/>
<polygon fill="black" stroke="black" points="122.07,-184.45 129.06,-176.48 118.63,-178.35 122.07,-184.45"/>
<text text-anchor="middle" x="36.43" y="-317.3" font-family="Times,serif" font-size="14.00">previous</text>
</g>
<!-- http://purl.org/dj/kaggle/submitting&#45;from&#45;a&#45;kernel -->
<g id="node14" class="node">
<title>http://purl.org/dj/kaggle/submitting&#45;from&#45;a&#45;kernel</title>
<ellipse fill="none" stroke="black" cx="2487.93" cy="-18" rx="100.98" ry="18"/>
<text text-anchor="middle" x="2487.93" y="-14.3" font-family="Times,serif" font-size="14.00">submitting&#45;from&#45;a&#45;kernel</text>
</g>
<!-- http://purl.org/dj/kaggle/submitting&#45;from&#45;a&#45;kernel#477627386&#45;&gt;http://purl.org/dj/kaggle/submitting&#45;from&#45;a&#45;kernel -->
<g id="edge13" class="edge">
<title>http://purl.org/dj/kaggle/submitting&#45;from&#45;a&#45;kernel#477627386&#45;&gt;http://purl.org/dj/kaggle/submitting&#45;from&#45;a&#45;kernel</title>
<path fill="none" stroke="black" d="M2536.26,-357.02C2516.17,-337.68 2487.93,-304.08 2487.93,-268 2487.93,-268 2487.93,-268 2487.93,-104 2487.93,-84.75 2487.93,-63.05 2487.93,-46.4"/>
<polygon fill="black" stroke="black" points="2491.43,-46.26 2487.93,-36.26 2484.43,-46.26 2491.43,-46.26"/>
<text text-anchor="middle" x="2511.43" y="-209.3" font-family="Times,serif" font-size="14.00">previous</text>
</g>
<!-- http://purl.org/dj/kaggle/submitting&#45;from&#45;a&#45;kernel#1538525039&#45;&gt;http://purl.org/dj/kaggle/submitting&#45;from&#45;a&#45;kernel#1800680260 -->
<g id="edge14" class="edge">
<title>http://purl.org/dj/kaggle/submitting&#45;from&#45;a&#45;kernel#1538525039&#45;&gt;http://purl.org/dj/kaggle/submitting&#45;from&#45;a&#45;kernel#1800680260</title>
<path fill="none" stroke="black" d="M1710.06,-411.9C1642.46,-393.09 1530.63,-361.98 1457.86,-341.74"/>
<polygon fill="black" stroke="black" points="1458.43,-338.26 1447.86,-338.95 1456.56,-345.01 1458.43,-338.26"/>
<text text-anchor="middle" x="1656.43" y="-371.3" font-family="Times,serif" font-size="14.00">previous</text>
</g>
<!-- http://purl.org/dj/kaggle/submitting&#45;from&#45;a&#45;kernel#398984013 -->
<g id="node15" class="node">
<title>http://purl.org/dj/kaggle/submitting&#45;from&#45;a&#45;kernel#398984013</title>
<ellipse fill="none" stroke="black" cx="2211.93" cy="-321" rx="126.98" ry="18"/>
<text text-anchor="middle" x="2211.93" y="-317.3" font-family="Times,serif" font-size="14.00">398984013 (test_X(0)$0: Reuse)</text>
</g>
<!-- http://purl.org/dj/kaggle/submitting&#45;from&#45;a&#45;kernel#1538525039&#45;&gt;http://purl.org/dj/kaggle/submitting&#45;from&#45;a&#45;kernel#398984013 -->
<g id="edge15" class="edge">
<title>http://purl.org/dj/kaggle/submitting&#45;from&#45;a&#45;kernel#1538525039&#45;&gt;http://purl.org/dj/kaggle/submitting&#45;from&#45;a&#45;kernel#398984013</title>
<path fill="none" stroke="black" d="M1833.92,-412.25C1916.06,-392.63 2055.83,-359.27 2140.44,-339.07"/>
<polygon fill="black" stroke="black" points="2141.31,-342.46 2150.23,-336.73 2139.69,-335.65 2141.31,-342.46"/>
<text text-anchor="middle" x="2078.43" y="-371.3" font-family="Times,serif" font-size="14.00">previous</text>
</g>
<!-- http://purl.org/dj/kaggle/submitting&#45;from&#45;a&#45;kernel#261948054&#45;&gt;http://purl.org/dj/python/lib/144966264 -->
<g id="edge16" class="edge">
<title>http://purl.org/dj/kaggle/submitting&#45;from&#45;a&#45;kernel#261948054&#45;&gt;http://purl.org/dj/python/lib/144966264</title>
<path fill="none" stroke="black" d="M2199.3,-194.96C2186.52,-178.86 2165.34,-155.13 2141.93,-141 2129.41,-133.45 2115.15,-127.42 2101.01,-122.65"/>
<polygon fill="black" stroke="black" points="2101.85,-119.24 2091.26,-119.53 2099.72,-125.91 2101.85,-119.24"/>
<text text-anchor="middle" x="2206.43" y="-155.3" font-family="Times,serif" font-size="14.00">previous</text>
</g>
<!-- http://purl.org/dj/kaggle/submitting&#45;from&#45;a&#45;kernel#261948054&#45;&gt;http://purl.org/dj/kaggle/submitting&#45;from&#45;a&#45;kernel#80085334 -->
<g id="edge17" class="edge">
<title>http://purl.org/dj/kaggle/submitting&#45;from&#45;a&#45;kernel#261948054&#45;&gt;http://purl.org/dj/kaggle/submitting&#45;from&#45;a&#45;kernel#80085334</title>
<path fill="none" stroke="black" d="M2144.93,-197.41C2126.88,-192.21 2107.71,-185.48 2090.93,-177 2067.44,-165.14 2068.53,-150.33 2043.93,-141 2009.17,-127.82 1794.13,-116.33 1661.04,-110.36"/>
<polygon fill="black" stroke="black" points="1660.96,-106.85 1650.81,-109.9 1660.65,-113.84 1660.96,-106.85"/>
<text text-anchor="middle" x="2114.43" y="-155.3" font-family="Times,serif" font-size="14.00">previous</text>
</g>
<!-- http://purl.org/dj/kaggle/submitting&#45;from&#45;a&#45;kernel#1183844006 -->
<g id="node16" class="node">
<title>http://purl.org/dj/kaggle/submitting&#45;from&#45;a&#45;kernel#1183844006</title>
<ellipse fill="none" stroke="black" cx="2306.93" cy="-105" rx="153.27" ry="18"/>
<text text-anchor="middle" x="2306.93" y="-101.3" font-family="Times,serif" font-size="14.00">1183844006 (../input/test.csv(0): Reuse)</text>
</g>
<!-- http://purl.org/dj/kaggle/submitting&#45;from&#45;a&#45;kernel#261948054&#45;&gt;http://purl.org/dj/kaggle/submitting&#45;from&#45;a&#45;kernel#1183844006 -->
<g id="edge18" class="edge">
<title>http://purl.org/dj/kaggle/submitting&#45;from&#45;a&#45;kernel#261948054&#45;&gt;http://purl.org/dj/kaggle/submitting&#45;from&#45;a&#45;kernel#1183844006</title>
<path fill="none" stroke="black" d="M2227.19,-194.97C2242.77,-177.58 2267.11,-150.42 2284.81,-130.68"/>
<polygon fill="black" stroke="black" points="2287.63,-132.77 2291.7,-122.99 2282.42,-128.1 2287.63,-132.77"/>
<text text-anchor="middle" x="2296.43" y="-155.3" font-family="Times,serif" font-size="14.00">previous</text>
</g>
<!-- http://purl.org/dj/python/lib/144966264&#45;&gt;http://purl.org/dj/kaggle/submitting&#45;from&#45;a&#45;kernel -->
<g id="edge19" class="edge">
<title>http://purl.org/dj/python/lib/144966264&#45;&gt;http://purl.org/dj/kaggle/submitting&#45;from&#45;a&#45;kernel</title>
<path fill="none" stroke="black" d="M2095.84,-91.14C2180.49,-75.56 2322.6,-49.42 2410.49,-33.25"/>
<polygon fill="black" stroke="black" points="2411.21,-36.67 2420.41,-31.42 2409.94,-29.79 2411.21,-36.67"/>
<text text-anchor="middle" x="2307.43" y="-57.8" font-family="Times,serif" font-size="14.00">previous</text>
</g>
<!-- http://purl.org/dj/kaggle/submitting&#45;from&#45;a&#45;kernel#80085334&#45;&gt;http://purl.org/dj/kaggle/submitting&#45;from&#45;a&#45;kernel -->
<g id="edge20" class="edge">
<title>http://purl.org/dj/kaggle/submitting&#45;from&#45;a&#45;kernel#80085334&#45;&gt;http://purl.org/dj/kaggle/submitting&#45;from&#45;a&#45;kernel</title>
<path fill="none" stroke="black" d="M1603.87,-89.19C1644.87,-77.46 1705.16,-61.81 1758.93,-54 1875.19,-37.12 2205.51,-26.33 2378.78,-21.66"/>
<polygon fill="black" stroke="black" points="2379.05,-25.16 2388.95,-21.39 2378.86,-18.16 2379.05,-25.16"/>
<text text-anchor="middle" x="1782.43" y="-57.8" font-family="Times,serif" font-size="14.00">previous</text>
</g>
<!-- http://purl.org/dj/kaggle/submitting&#45;from&#45;a&#45;kernel#67305775&#45;&gt;http://purl.org/dj/kaggle/submitting&#45;from&#45;a&#45;kernel -->
<g id="edge21" class="edge">
<title>http://purl.org/dj/kaggle/submitting&#45;from&#45;a&#45;kernel#67305775&#45;&gt;http://purl.org/dj/kaggle/submitting&#45;from&#45;a&#45;kernel</title>
<path fill="none" stroke="black" d="M2636.23,-248.91C2615.41,-222.61 2575.05,-170.27 2544.93,-123 2528.52,-97.25 2511.99,-66.44 2500.99,-45.07"/>
<polygon fill="black" stroke="black" points="2504.01,-43.28 2496.35,-35.96 2497.77,-46.46 2504.01,-43.28"/>
<text text-anchor="middle" x="2604.43" y="-155.3" font-family="Times,serif" font-size="14.00">previous</text>
</g>
<!-- http://purl.org/dj/kaggle/submitting&#45;from&#45;a&#45;kernel#327811828 -->
<g id="node17" class="node">
<title>http://purl.org/dj/kaggle/submitting&#45;from&#45;a&#45;kernel#327811828</title>
<ellipse fill="none" stroke="black" cx="475.93" cy="-213" rx="137.58" ry="18"/>
<text text-anchor="middle" x="475.93" y="-209.3" font-family="Times,serif" font-size="14.00">327811828 (train(0)$0: Movement)</text>
</g>
<!-- http://purl.org/dj/kaggle/submitting&#45;from&#45;a&#45;kernel#490144716&#45;&gt;http://purl.org/dj/kaggle/submitting&#45;from&#45;a&#45;kernel#327811828 -->
<g id="edge22" class="edge">
<title>http://purl.org/dj/kaggle/submitting&#45;from&#45;a&#45;kernel#490144716&#45;&gt;http://purl.org/dj/kaggle/submitting&#45;from&#45;a&#45;kernel#327811828</title>
<path fill="none" stroke="black" d="M476.76,-302.97C476.61,-286.38 476.37,-260.88 476.18,-241.43"/>
<polygon fill="black" stroke="black" points="479.68,-241.31 476.09,-231.34 472.68,-241.37 479.68,-241.31"/>
<text text-anchor="middle" x="499.43" y="-263.3" font-family="Times,serif" font-size="14.00">previous</text>
</g>
<!-- http://purl.org/dj/kaggle/submitting&#45;from&#45;a&#45;kernel#1800680260&#45;&gt;http://purl.org/dj/kaggle/submitting&#45;from&#45;a&#45;kernel -->
<g id="edge23" class="edge">
<title>http://purl.org/dj/kaggle/submitting&#45;from&#45;a&#45;kernel#1800680260&#45;&gt;http://purl.org/dj/kaggle/submitting&#45;from&#45;a&#45;kernel</title>
<path fill="none" stroke="black" d="M1416.26,-303.01C1493.69,-259.03 1711.13,-141.17 1907.93,-87 2068.09,-42.91 2260.82,-27.4 2378.83,-21.95"/>
<polygon fill="black" stroke="black" points="2379.12,-25.44 2388.95,-21.5 2378.81,-18.45 2379.12,-25.44"/>
<text text-anchor="middle" x="1771.43" y="-155.3" font-family="Times,serif" font-size="14.00">previous</text>
</g>
<!-- http://purl.org/dj/kaggle/submitting&#45;from&#45;a&#45;kernel#477168555&#45;&gt;http://purl.org/dj/kaggle/submitting&#45;from&#45;a&#45;kernel#327811828 -->
<g id="edge24" class="edge">
<title>http://purl.org/dj/kaggle/submitting&#45;from&#45;a&#45;kernel#477168555&#45;&gt;http://purl.org/dj/kaggle/submitting&#45;from&#45;a&#45;kernel#327811828</title>
<path fill="none" stroke="black" d="M241.84,-303.9C290.68,-285.15 371.39,-254.15 424.11,-233.9"/>
<polygon fill="black" stroke="black" points="425.53,-237.1 433.61,-230.25 423.02,-230.57 425.53,-237.1"/>
<text text-anchor="middle" x="401.43" y="-263.3" font-family="Times,serif" font-size="14.00">previous</text>
</g>
<!-- http://purl.org/dj/kaggle/submitting&#45;from&#45;a&#45;kernel#440271832&#45;&gt;http://purl.org/dj/kaggle/submitting&#45;from&#45;a&#45;kernel -->
<g id="edge25" class="edge">
<title>http://purl.org/dj/kaggle/submitting&#45;from&#45;a&#45;kernel#440271832&#45;&gt;http://purl.org/dj/kaggle/submitting&#45;from&#45;a&#45;kernel</title>
<path fill="none" stroke="black" d="M252.83,-145.89C375.37,-130.16 599.1,-102.82 790.93,-87 1388.22,-37.74 2106.85,-23.84 2377.58,-20.2"/>
<polygon fill="black" stroke="black" points="2377.85,-23.69 2387.81,-20.06 2377.76,-16.69 2377.85,-23.69"/>
<text text-anchor="middle" x="814.43" y="-101.3" font-family="Times,serif" font-size="14.00">previous</text>
</g>
<!-- http://purl.org/dj/kaggle/submitting&#45;from&#45;a&#45;kernel#398984013&#45;&gt;http://purl.org/dj/kaggle/submitting&#45;from&#45;a&#45;kernel#261948054 -->
<g id="edge32" class="edge">
<title>http://purl.org/dj/kaggle/submitting&#45;from&#45;a&#45;kernel#398984013&#45;&gt;http://purl.org/dj/kaggle/submitting&#45;from&#45;a&#45;kernel#261948054</title>
<path fill="none" stroke="black" d="M2211.93,-302.97C2211.93,-286.38 2211.93,-260.88 2211.93,-241.43"/>
<polygon fill="black" stroke="black" points="2215.43,-241.34 2211.93,-231.34 2208.43,-241.34 2215.43,-241.34"/>
<text text-anchor="middle" x="2235.43" y="-263.3" font-family="Times,serif" font-size="14.00">previous</text>
</g>
<!-- http://purl.org/dj/kaggle/submitting&#45;from&#45;a&#45;kernel#1183844006&#45;&gt;http://purl.org/dj/kaggle/submitting&#45;from&#45;a&#45;kernel -->
<g id="edge33" class="edge">
<title>http://purl.org/dj/kaggle/submitting&#45;from&#45;a&#45;kernel#1183844006&#45;&gt;http://purl.org/dj/kaggle/submitting&#45;from&#45;a&#45;kernel</title>
<path fill="none" stroke="black" d="M2342.25,-87.41C2371.53,-73.66 2413.26,-54.06 2444.56,-39.37"/>
<polygon fill="black" stroke="black" points="2446.35,-42.39 2453.91,-34.97 2443.37,-36.06 2446.35,-42.39"/>
<text text-anchor="middle" x="2431.43" y="-57.8" font-family="Times,serif" font-size="14.00">previous</text>
</g>
<!-- http://purl.org/dj/kaggle/submitting&#45;from&#45;a&#45;kernel#327811828&#45;&gt;http://purl.org/dj/python/lib/144966264 -->
<g id="edge26" class="edge">
<title>http://purl.org/dj/kaggle/submitting&#45;from&#45;a&#45;kernel#327811828&#45;&gt;http://purl.org/dj/python/lib/144966264</title>
<path fill="none" stroke="black" d="M613.63,-211.69C941.67,-210.5 1750.96,-204.75 1870.93,-177 1913.92,-167.06 1959.4,-144.62 1989.89,-127.61"/>
<polygon fill="black" stroke="black" points="1991.89,-130.5 1998.86,-122.52 1988.43,-124.41 1991.89,-130.5"/>
<text text-anchor="middle" x="1984.43" y="-155.3" font-family="Times,serif" font-size="14.00">previous</text>
</g>
<!-- http://purl.org/dj/kaggle/submitting&#45;from&#45;a&#45;kernel#327811828&#45;&gt;http://purl.org/dj/kaggle/submitting&#45;from&#45;a&#45;kernel#80085334 -->
<g id="edge27" class="edge">
<title>http://purl.org/dj/kaggle/submitting&#45;from&#45;a&#45;kernel#327811828&#45;&gt;http://purl.org/dj/kaggle/submitting&#45;from&#45;a&#45;kernel#80085334</title>
<path fill="none" stroke="black" d="M510.24,-195.49C520.42,-190.08 531.39,-183.71 540.93,-177 560.48,-163.23 558.73,-149.91 580.93,-141 641.69,-116.61 1104.5,-125.44 1169.93,-123 1264.62,-119.46 1372.39,-114.64 1449.77,-111.03"/>
<polygon fill="black" stroke="black" points="1450.18,-114.51 1460.01,-110.55 1449.86,-107.52 1450.18,-114.51"/>
<text text-anchor="middle" x="604.43" y="-155.3" font-family="Times,serif" font-size="14.00">previous</text>
</g>
<!-- http://purl.org/dj/kaggle/submitting&#45;from&#45;a&#45;kernel#1310918404 -->
<g id="node18" class="node">
<title>http://purl.org/dj/kaggle/submitting&#45;from&#45;a&#45;kernel#1310918404</title>
<ellipse fill="none" stroke="black" cx="1003.93" cy="-105" rx="157.07" ry="18"/>
<text text-anchor="middle" x="1003.93" y="-101.3" font-family="Times,serif" font-size="14.00">1310918404 (../input/train.csv(0): Reuse)</text>
</g>
<!-- http://purl.org/dj/kaggle/submitting&#45;from&#45;a&#45;kernel#327811828&#45;&gt;http://purl.org/dj/kaggle/submitting&#45;from&#45;a&#45;kernel#1310918404 -->
<g id="edge28" class="edge">
<title>http://purl.org/dj/kaggle/submitting&#45;from&#45;a&#45;kernel#327811828&#45;&gt;http://purl.org/dj/kaggle/submitting&#45;from&#45;a&#45;kernel#1310918404</title>
<path fill="none" stroke="black" d="M475.03,-194.72C475.22,-178.21 478.4,-153.96 493.93,-141 520.14,-119.12 699.15,-110.9 837.77,-107.82"/>
<polygon fill="black" stroke="black" points="838.18,-111.31 848.1,-107.6 838.03,-104.31 838.18,-111.31"/>
<text text-anchor="middle" x="517.43" y="-155.3" font-family="Times,serif" font-size="14.00">previous</text>
</g>
<!-- http://purl.org/dj/kaggle/submitting&#45;from&#45;a&#45;kernel#1310918404&#45;&gt;http://purl.org/dj/kaggle/submitting&#45;from&#45;a&#45;kernel -->
<g id="edge34" class="edge">
<title>http://purl.org/dj/kaggle/submitting&#45;from&#45;a&#45;kernel#1310918404&#45;&gt;http://purl.org/dj/kaggle/submitting&#45;from&#45;a&#45;kernel</title>
<path fill="none" stroke="black" d="M1122.85,-93.2C1249.45,-82.02 1455.68,-64.72 1633.93,-54 1901.34,-37.91 2216.3,-27.11 2378.76,-22.14"/>
<polygon fill="black" stroke="black" points="2379.35,-25.62 2389.24,-21.82 2379.14,-18.62 2379.35,-25.62"/>
<text text-anchor="middle" x="1657.43" y="-57.8" font-family="Times,serif" font-size="14.00">previous</text>
</g>
<!-- http://purl.org/dj/kaggle/submitting&#45;from&#45;a&#45;kernel#1989675282 -->
<g id="node19" class="node">
<title>http://purl.org/dj/kaggle/submitting&#45;from&#45;a&#45;kernel#1989675282</title>
<ellipse fill="none" stroke="black" cx="2740.93" cy="-105" rx="186.57" ry="18"/>
<text text-anchor="middle" x="2740.93" y="-101.3" font-family="Times,serif" font-size="14.00">1989675282 (RandomForestRegressor(0): Reuse)</text>
</g>
<!-- http://purl.org/dj/kaggle/submitting&#45;from&#45;a&#45;kernel#1989675282&#45;&gt;http://purl.org/dj/kaggle/submitting&#45;from&#45;a&#45;kernel -->
<g id="edge29" class="edge">
<title>http://purl.org/dj/kaggle/submitting&#45;from&#45;a&#45;kernel#1989675282&#45;&gt;http://purl.org/dj/kaggle/submitting&#45;from&#45;a&#45;kernel</title>
<path fill="none" stroke="black" d="M2692.14,-87.61C2649.34,-73.23 2587.14,-52.33 2542.65,-37.39"/>
<polygon fill="black" stroke="black" points="2543.75,-34.06 2533.16,-34.2 2541.52,-40.7 2543.75,-34.06"/>
<text text-anchor="middle" x="2652.43" y="-57.8" font-family="Times,serif" font-size="14.00">previous</text>
</g>
<!-- http://purl.org/dj/kaggle/submitting&#45;from&#45;a&#45;kernel#249561878 -->
<g id="node20" class="node">
<title>http://purl.org/dj/kaggle/submitting&#45;from&#45;a&#45;kernel#249561878</title>
<ellipse fill="none" stroke="black" cx="509.93" cy="-516" rx="136.48" ry="18"/>
<text text-anchor="middle" x="509.93" y="-512.3" font-family="Times,serif" font-size="14.00">249561878 (print[0]: Visualisation)</text>
</g>
<!-- http://purl.org/dj/kaggle/submitting&#45;from&#45;a&#45;kernel#249561878&#45;&gt;http://purl.org/dj/kaggle/submitting&#45;from&#45;a&#45;kernel#577111084 -->
<g id="edge30" class="edge">
<title>http://purl.org/dj/kaggle/submitting&#45;from&#45;a&#45;kernel#249561878&#45;&gt;http://purl.org/dj/kaggle/submitting&#45;from&#45;a&#45;kernel#577111084</title>
<path fill="none" stroke="black" d="M461.37,-499.11C453.23,-494.26 445.85,-488.01 440.93,-480 436.67,-473.08 436.86,-464.72 438.86,-456.84"/>
<polygon fill="black" stroke="black" points="442.21,-457.85 442.16,-447.26 435.59,-455.57 442.21,-457.85"/>
<text text-anchor="middle" x="464.43" y="-468.8" font-family="Times,serif" font-size="14.00">previous</text>
</g>
<!-- http://purl.org/dj/kaggle/submitting&#45;from&#45;a&#45;kernel#249561878&#45;&gt;http://purl.org/dj/kaggle/submitting&#45;from&#45;a&#45;kernel#1538525039 -->
<g id="edge31" class="edge">
<title>http://purl.org/dj/kaggle/submitting&#45;from&#45;a&#45;kernel#249561878&#45;&gt;http://purl.org/dj/kaggle/submitting&#45;from&#45;a&#45;kernel#1538525039</title>
<path fill="none" stroke="black" d="M628.28,-507C857.64,-491.51 1362.35,-457.4 1616.05,-440.26"/>
<polygon fill="black" stroke="black" points="1616.34,-443.75 1626.08,-439.58 1615.87,-436.77 1616.34,-443.75"/>
<text text-anchor="middle" x="1237.43" y="-468.8" font-family="Times,serif" font-size="14.00">previous</text>
</g>
<!-- http://purl.org/dj/python/lib/111084090 -->
<g id="node21" class="node">
<title>http://purl.org/dj/python/lib/111084090</title>
<ellipse fill="none" stroke="black" cx="3054.93" cy="-105" rx="109.68" ry="18"/>
<text text-anchor="middle" x="3054.93" y="-101.3" font-family="Times,serif" font-size="14.00">111084090 (numpy: Reuse)</text>
</g>
<!-- http://purl.org/dj/python/lib/111084090&#45;&gt;http://purl.org/dj/kaggle/submitting&#45;from&#45;a&#45;kernel -->
<g id="edge35" class="edge">
<title>http://purl.org/dj/python/lib/111084090&#45;&gt;http://purl.org/dj/kaggle/submitting&#45;from&#45;a&#45;kernel</title>
<path fill="none" stroke="black" d="M2976.98,-92.31C2870.86,-76.41 2681.66,-48.04 2572.3,-31.65"/>
<polygon fill="black" stroke="black" points="2572.71,-28.17 2562.3,-30.15 2571.67,-35.09 2572.71,-28.17"/>
<text text-anchor="middle" x="2828.43" y="-57.8" font-family="Times,serif" font-size="14.00">previous</text>
</g>
<!-- http://purl.org/dj/kaggle/submitting&#45;from&#45;a&#45;kernel#1048512072 -->
<g id="node22" class="node">
<title>http://purl.org/dj/kaggle/submitting&#45;from&#45;a&#45;kernel#1048512072</title>
<ellipse fill="none" stroke="black" cx="3335.93" cy="-105" rx="153.27" ry="18"/>
<text text-anchor="middle" x="3335.93" y="-101.3" font-family="Times,serif" font-size="14.00">1048512072 (submission.csv(0): Reuse)</text>
</g>
<!-- http://purl.org/dj/kaggle/submitting&#45;from&#45;a&#45;kernel#1048512072&#45;&gt;http://purl.org/dj/kaggle/submitting&#45;from&#45;a&#45;kernel -->
<g id="edge36" class="edge">
<title>http://purl.org/dj/kaggle/submitting&#45;from&#45;a&#45;kernel#1048512072&#45;&gt;http://purl.org/dj/kaggle/submitting&#45;from&#45;a&#45;kernel</title>
<path fill="none" stroke="black" d="M3225.69,-92.42C3208.37,-90.6 3190.66,-88.75 3173.93,-87 3032.6,-72.25 2997.32,-68.06 2855.93,-54 2764.28,-44.89 2659.75,-34.99 2585.57,-28.06"/>
<polygon fill="black" stroke="black" points="2585.59,-24.54 2575.31,-27.1 2584.94,-31.51 2585.59,-24.54"/>
<text text-anchor="middle" x="3022.43" y="-57.8" font-family="Times,serif" font-size="14.00">previous</text>
</g>
<!-- http://purl.org/dj/python/lib/919996010 -->
<g id="node23" class="node">
<title>http://purl.org/dj/python/lib/919996010</title>
<ellipse fill="none" stroke="black" cx="3653.93" cy="-105" rx="146.47" ry="18"/>
<text text-anchor="middle" x="3653.93" y="-101.3" font-family="Times,serif" font-size="14.00">919996010 (sklearn.ensemble: Reuse)</text>
</g>
<!-- http://purl.org/dj/python/lib/919996010&#45;&gt;http://purl.org/dj/kaggle/submitting&#45;from&#45;a&#45;kernel -->
<g id="edge37" class="edge">
<title>http://purl.org/dj/python/lib/919996010&#45;&gt;http://purl.org/dj/kaggle/submitting&#45;from&#45;a&#45;kernel</title>
<path fill="none" stroke="black" d="M3550.34,-92.2C3532.86,-90.35 3514.88,-88.55 3497.93,-87 3168.56,-56.93 2777.63,-34.32 2593.64,-24.46"/>
<polygon fill="black" stroke="black" points="2593.61,-20.95 2583.43,-23.91 2593.23,-27.94 2593.61,-20.95"/>
<text text-anchor="middle" x="3299.43" y="-57.8" font-family="Times,serif" font-size="14.00">previous</text>
</g>
<!-- http://purl.org/dj/kaggle/submitting&#45;from&#45;a&#45;kernel#82575712 -->
<g id="node24" class="node">
<title>http://purl.org/dj/kaggle/submitting&#45;from&#45;a&#45;kernel#82575712</title>
<ellipse fill="none" stroke="black" cx="3917.93" cy="-105" rx="99.38" ry="18"/>
<text text-anchor="middle" x="3917.93" y="-101.3" font-family="Times,serif" font-size="14.00">82575712 (np(0): Reuse)</text>
</g>
<!-- http://purl.org/dj/kaggle/submitting&#45;from&#45;a&#45;kernel#82575712&#45;&gt;http://purl.org/dj/kaggle/submitting&#45;from&#45;a&#45;kernel -->
<g id="edge38" class="edge">
<title>http://purl.org/dj/kaggle/submitting&#45;from&#45;a&#45;kernel#82575712&#45;&gt;http://purl.org/dj/kaggle/submitting&#45;from&#45;a&#45;kernel</title>
<path fill="none" stroke="black" d="M3847.98,-92.18C3835.02,-90.25 3821.58,-88.42 3808.93,-87 3361.93,-36.94 2825.65,-23.67 2598.36,-20.21"/>
<polygon fill="black" stroke="black" points="2598.15,-16.7 2588.1,-20.05 2598.05,-23.7 2598.15,-16.7"/>
<text text-anchor="middle" x="3616.43" y="-57.8" font-family="Times,serif" font-size="14.00">previous</text>
</g>
</g>
</svg>
