<?xml version="1.0" encoding="UTF-8" standalone="no"?>
<!DOCTYPE svg PUBLIC "-//W3C//DTD SVG 1.1//EN"
 "http://www.w3.org/Graphics/SVG/1.1/DTD/svg11.dtd">
<!-- Generated by graphviz version 2.47.1 (20210417.1919)
 -->
<!-- Pages: 1 -->
<svg width="1522pt" height="392pt"
 viewBox="0.00 0.00 1521.74 392.00" xmlns="http://www.w3.org/2000/svg" xmlns:xlink="http://www.w3.org/1999/xlink">
<g id="graph0" class="graph" transform="scale(1 1) rotate(0) translate(4 388)">
<polygon fill="white" stroke="transparent" points="-4,4 -4,-388 1517.74,-388 1517.74,4 -4,4"/>
<!-- http://purl.org/dj/kaggle/submitting&#45;from&#45;a&#45;kernel/activity/&#45;7705494453088674528 -->
<g id="node1" class="node">
<title>http://purl.org/dj/kaggle/submitting&#45;from&#45;a&#45;kernel/activity/&#45;7705494453088674528</title>
<ellipse fill="none" stroke="black" cx="1033.74" cy="-366" rx="144.07" ry="18"/>
<text text-anchor="middle" x="1033.74" y="-362.3" font-family="Times,serif" font-size="14.00">&#45;7705494453088674528 (Movement)</text>
</g>
<!-- http://purl.org/dj/kaggle/submitting&#45;from&#45;a&#45;kernel/activity/4698079496262185970 -->
<g id="node2" class="node">
<title>http://purl.org/dj/kaggle/submitting&#45;from&#45;a&#45;kernel/activity/4698079496262185970</title>
<ellipse fill="none" stroke="black" cx="963.74" cy="-279" rx="124.28" ry="18"/>
<text text-anchor="middle" x="963.74" y="-275.3" font-family="Times,serif" font-size="14.00">4698079496262185970 (Reuse)</text>
</g>
<!-- http://purl.org/dj/kaggle/submitting&#45;from&#45;a&#45;kernel/activity/&#45;7705494453088674528&#45;&gt;http://purl.org/dj/kaggle/submitting&#45;from&#45;a&#45;kernel/activity/4698079496262185970 -->
<g id="edge1" class="edge">
<title>http://purl.org/dj/kaggle/submitting&#45;from&#45;a&#45;kernel/activity/&#45;7705494453088674528&#45;&gt;http://purl.org/dj/kaggle/submitting&#45;from&#45;a&#45;kernel/activity/4698079496262185970</title>
<path fill="none" stroke="black" d="M1028.61,-347.57C1025.02,-337.35 1019.47,-324.6 1011.74,-315 1008.26,-310.68 1004.13,-306.63 999.77,-302.93"/>
<polygon fill="black" stroke="black" points="1001.8,-300.08 991.77,-296.66 997.48,-305.59 1001.8,-300.08"/>
<text text-anchor="middle" x="1043.24" y="-318.8" font-family="Times,serif" font-size="14.00">previous</text>
</g>
<!-- http://purl.org/dj/kaggle/submitting&#45;from&#45;a&#45;kernel/activity/4698079496262185970&#45;&gt;http://purl.org/dj/kaggle/submitting&#45;from&#45;a&#45;kernel/activity/&#45;7705494453088674528 -->
<g id="edge2" class="edge">
<title>http://purl.org/dj/kaggle/submitting&#45;from&#45;a&#45;kernel/activity/4698079496262185970&#45;&gt;http://purl.org/dj/kaggle/submitting&#45;from&#45;a&#45;kernel/activity/&#45;7705494453088674528</title>
<path fill="none" stroke="black" d="M958,-296.99C955.61,-307.3 954.62,-320.29 960.74,-330 964,-335.18 968.27,-339.61 973.1,-343.4"/>
<polygon fill="black" stroke="black" points="971.44,-346.5 981.69,-349.18 975.35,-340.7 971.44,-346.5"/>
<text text-anchor="middle" x="984.24" y="-318.8" font-family="Times,serif" font-size="14.00">previous</text>
</g>
<!-- http://purl.org/dj/kaggle/submitting&#45;from&#45;a&#45;kernel/activity/4580202894360437435 -->
<g id="node3" class="node">
<title>http://purl.org/dj/kaggle/submitting&#45;from&#45;a&#45;kernel/activity/4580202894360437435</title>
<ellipse fill="none" stroke="black" cx="1170.74" cy="-192" rx="142.97" ry="18"/>
<text text-anchor="middle" x="1170.74" y="-188.3" font-family="Times,serif" font-size="14.00">4580202894360437435 (Preparation)</text>
</g>
<!-- http://purl.org/dj/kaggle/submitting&#45;from&#45;a&#45;kernel/activity/4698079496262185970&#45;&gt;http://purl.org/dj/kaggle/submitting&#45;from&#45;a&#45;kernel/activity/4580202894360437435 -->
<g id="edge3" class="edge">
<title>http://purl.org/dj/kaggle/submitting&#45;from&#45;a&#45;kernel/activity/4698079496262185970&#45;&gt;http://purl.org/dj/kaggle/submitting&#45;from&#45;a&#45;kernel/activity/4580202894360437435</title>
<path fill="none" stroke="black" d="M970.96,-260.55C976.43,-249.52 985.01,-235.9 996.74,-228 1011.51,-218.05 1028.48,-210.81 1045.9,-205.56"/>
<polygon fill="black" stroke="black" points="1046.93,-208.9 1055.62,-202.84 1045.04,-202.16 1046.93,-208.9"/>
<text text-anchor="middle" x="1020.24" y="-231.8" font-family="Times,serif" font-size="14.00">previous</text>
</g>
<!-- http://purl.org/dj/kaggle/submitting&#45;from&#45;a&#45;kernel -->
<g id="node4" class="node">
<title>http://purl.org/dj/kaggle/submitting&#45;from&#45;a&#45;kernel</title>
<ellipse fill="none" stroke="black" cx="389.74" cy="-192" rx="221.76" ry="18"/>
<text text-anchor="middle" x="389.74" y="-188.3" font-family="Times,serif" font-size="14.00">submitting&#45;from&#45;a&#45;kernel (submitting&#45;from&#45;a&#45;kernel.ipynb)</text>
</g>
<!-- http://purl.org/dj/kaggle/submitting&#45;from&#45;a&#45;kernel/activity/4698079496262185970&#45;&gt;http://purl.org/dj/kaggle/submitting&#45;from&#45;a&#45;kernel -->
<g id="edge4" class="edge">
<title>http://purl.org/dj/kaggle/submitting&#45;from&#45;a&#45;kernel/activity/4698079496262185970&#45;&gt;http://purl.org/dj/kaggle/submitting&#45;from&#45;a&#45;kernel</title>
<path fill="none" stroke="black" d="M880.27,-265.64C780.22,-250.82 612.17,-225.94 501.11,-209.49"/>
<polygon fill="black" stroke="black" points="501.62,-206.03 491.22,-208.03 500.6,-212.95 501.62,-206.03"/>
<text text-anchor="middle" x="735.24" y="-231.8" font-family="Times,serif" font-size="14.00">previous</text>
</g>
<!-- http://purl.org/dj/kaggle/submitting&#45;from&#45;a&#45;kernel/activity/4580202894360437435&#45;&gt;http://purl.org/dj/kaggle/submitting&#45;from&#45;a&#45;kernel/activity/&#45;7705494453088674528 -->
<g id="edge5" class="edge">
<title>http://purl.org/dj/kaggle/submitting&#45;from&#45;a&#45;kernel/activity/4580202894360437435&#45;&gt;http://purl.org/dj/kaggle/submitting&#45;from&#45;a&#45;kernel/activity/&#45;7705494453088674528</title>
<path fill="none" stroke="black" d="M1159.85,-210.36C1142.57,-237.3 1107.08,-290.21 1070.74,-330 1067.41,-333.64 1063.77,-337.36 1060.12,-340.95"/>
<polygon fill="black" stroke="black" points="1057.5,-338.62 1052.7,-348.06 1062.34,-343.67 1057.5,-338.62"/>
<text text-anchor="middle" x="1148.24" y="-275.3" font-family="Times,serif" font-size="14.00">previous</text>
</g>
<!-- http://purl.org/dj/kaggle/submitting&#45;from&#45;a&#45;kernel/activity/4580202894360437435&#45;&gt;http://purl.org/dj/kaggle/submitting&#45;from&#45;a&#45;kernel/activity/4698079496262185970 -->
<g id="edge6" class="edge">
<title>http://purl.org/dj/kaggle/submitting&#45;from&#45;a&#45;kernel/activity/4580202894360437435&#45;&gt;http://purl.org/dj/kaggle/submitting&#45;from&#45;a&#45;kernel/activity/4698079496262185970</title>
<path fill="none" stroke="black" d="M1115.73,-208.63C1099.6,-213.98 1082.17,-220.52 1066.74,-228 1055.76,-233.32 1054.48,-237.2 1043.74,-243 1034.14,-248.18 1023.61,-253.22 1013.44,-257.78"/>
<polygon fill="black" stroke="black" points="1011.98,-254.6 1004.24,-261.83 1014.8,-261.01 1011.98,-254.6"/>
<text text-anchor="middle" x="1090.24" y="-231.8" font-family="Times,serif" font-size="14.00">previous</text>
</g>
<!-- http://purl.org/dj/kaggle/submitting&#45;from&#45;a&#45;kernel/activity/1764413950490373691 -->
<g id="node5" class="node">
<title>http://purl.org/dj/kaggle/submitting&#45;from&#45;a&#45;kernel/activity/1764413950490373691</title>
<ellipse fill="none" stroke="black" cx="633.74" cy="-105" rx="133.48" ry="18"/>
<text text-anchor="middle" x="633.74" y="-101.3" font-family="Times,serif" font-size="14.00">1764413950490373691 (Analysis)</text>
</g>
<!-- http://purl.org/dj/kaggle/submitting&#45;from&#45;a&#45;kernel/activity/4580202894360437435&#45;&gt;http://purl.org/dj/kaggle/submitting&#45;from&#45;a&#45;kernel/activity/1764413950490373691 -->
<g id="edge7" class="edge">
<title>http://purl.org/dj/kaggle/submitting&#45;from&#45;a&#45;kernel/activity/4580202894360437435&#45;&gt;http://purl.org/dj/kaggle/submitting&#45;from&#45;a&#45;kernel/activity/1764413950490373691</title>
<path fill="none" stroke="black" d="M1111.89,-175.55C1068.23,-164.56 1007.11,-150.19 952.74,-141 887.82,-130.03 814.87,-121.73 755.13,-115.97"/>
<polygon fill="black" stroke="black" points="755.19,-112.46 744.9,-115 754.52,-119.43 755.19,-112.46"/>
<text text-anchor="middle" x="1048.24" y="-144.8" font-family="Times,serif" font-size="14.00">previous</text>
</g>
<!-- http://purl.org/dj/kaggle/submitting&#45;from&#45;a&#45;kernel/activity/4149123155570602566 -->
<g id="node6" class="node">
<title>http://purl.org/dj/kaggle/submitting&#45;from&#45;a&#45;kernel/activity/4149123155570602566</title>
<ellipse fill="none" stroke="black" cx="1040.74" cy="-105" rx="133.48" ry="18"/>
<text text-anchor="middle" x="1040.74" y="-101.3" font-family="Times,serif" font-size="14.00">4149123155570602566 (Analysis)</text>
</g>
<!-- http://purl.org/dj/kaggle/submitting&#45;from&#45;a&#45;kernel/activity/4580202894360437435&#45;&gt;http://purl.org/dj/kaggle/submitting&#45;from&#45;a&#45;kernel/activity/4149123155570602566 -->
<g id="edge8" class="edge">
<title>http://purl.org/dj/kaggle/submitting&#45;from&#45;a&#45;kernel/activity/4580202894360437435&#45;&gt;http://purl.org/dj/kaggle/submitting&#45;from&#45;a&#45;kernel/activity/4149123155570602566</title>
<path fill="none" stroke="black" d="M1145.05,-174.21C1124.93,-161.05 1096.76,-142.63 1074.77,-128.25"/>
<polygon fill="black" stroke="black" points="1076.65,-125.3 1066.37,-122.76 1072.82,-131.16 1076.65,-125.3"/>
<text text-anchor="middle" x="1136.24" y="-144.8" font-family="Times,serif" font-size="14.00">previous</text>
</g>
<!-- http://purl.org/dj/kaggle/submitting&#45;from&#45;a&#45;kernel/activity/1764413950490373691&#45;&gt;http://purl.org/dj/kaggle/submitting&#45;from&#45;a&#45;kernel/activity/4698079496262185970 -->
<g id="edge9" class="edge">
<title>http://purl.org/dj/kaggle/submitting&#45;from&#45;a&#45;kernel/activity/1764413950490373691&#45;&gt;http://purl.org/dj/kaggle/submitting&#45;from&#45;a&#45;kernel/activity/4698079496262185970</title>
<path fill="none" stroke="black" d="M515.14,-113.29C369.36,-123.48 137.95,-144.15 111.74,-174 101.18,-186.02 100.88,-198.24 111.74,-210 159.38,-261.6 602.48,-274.07 830.1,-277.06"/>
<polygon fill="black" stroke="black" points="830.07,-280.56 840.11,-277.19 830.16,-273.56 830.07,-280.56"/>
<text text-anchor="middle" x="135.24" y="-188.3" font-family="Times,serif" font-size="14.00">previous</text>
</g>
<!-- http://purl.org/dj/kaggle/submitting&#45;from&#45;a&#45;kernel/activity/&#45;4005461108910699745 -->
<g id="node7" class="node">
<title>http://purl.org/dj/kaggle/submitting&#45;from&#45;a&#45;kernel/activity/&#45;4005461108910699745</title>
<ellipse fill="none" stroke="black" cx="126.74" cy="-18" rx="126.98" ry="18"/>
<text text-anchor="middle" x="126.74" y="-14.3" font-family="Times,serif" font-size="14.00">&#45;4005461108910699745 (Reuse)</text>
</g>
<!-- http://purl.org/dj/kaggle/submitting&#45;from&#45;a&#45;kernel/activity/1764413950490373691&#45;&gt;http://purl.org/dj/kaggle/submitting&#45;from&#45;a&#45;kernel/activity/&#45;4005461108910699745 -->
<g id="edge10" class="edge">
<title>http://purl.org/dj/kaggle/submitting&#45;from&#45;a&#45;kernel/activity/1764413950490373691&#45;&gt;http://purl.org/dj/kaggle/submitting&#45;from&#45;a&#45;kernel/activity/&#45;4005461108910699745</title>
<path fill="none" stroke="black" d="M553.68,-90.58C461.65,-75.15 311.01,-49.89 215.47,-33.88"/>
<polygon fill="black" stroke="black" points="215.98,-30.41 205.54,-32.21 214.82,-37.32 215.98,-30.41"/>
<text text-anchor="middle" x="434.24" y="-57.8" font-family="Times,serif" font-size="14.00">previous</text>
</g>
<!-- http://purl.org/dj/kaggle/submitting&#45;from&#45;a&#45;kernel/activity/4149123155570602566&#45;&gt;http://purl.org/dj/kaggle/submitting&#45;from&#45;a&#45;kernel/activity/4698079496262185970 -->
<g id="edge11" class="edge">
<title>http://purl.org/dj/kaggle/submitting&#45;from&#45;a&#45;kernel/activity/4149123155570602566&#45;&gt;http://purl.org/dj/kaggle/submitting&#45;from&#45;a&#45;kernel/activity/4698079496262185970</title>
<path fill="none" stroke="black" d="M998.16,-122.08C989.93,-126.99 982.18,-133.22 976.74,-141 954.18,-173.26 955.27,-220.74 958.92,-250.49"/>
<polygon fill="black" stroke="black" points="955.48,-251.17 960.34,-260.59 962.41,-250.2 955.48,-251.17"/>
<text text-anchor="middle" x="986.24" y="-188.3" font-family="Times,serif" font-size="14.00">previous</text>
</g>
<!-- http://purl.org/dj/kaggle/submitting&#45;from&#45;a&#45;kernel/activity/&#45;940282435361005193 -->
<g id="node8" class="node">
<title>http://purl.org/dj/kaggle/submitting&#45;from&#45;a&#45;kernel/activity/&#45;940282435361005193</title>
<ellipse fill="none" stroke="black" cx="1344.74" cy="-18" rx="122.38" ry="18"/>
<text text-anchor="middle" x="1344.74" y="-14.3" font-family="Times,serif" font-size="14.00">&#45;940282435361005193 (Reuse)</text>
</g>
<!-- http://purl.org/dj/kaggle/submitting&#45;from&#45;a&#45;kernel/activity/4149123155570602566&#45;&gt;http://purl.org/dj/kaggle/submitting&#45;from&#45;a&#45;kernel/activity/&#45;940282435361005193 -->
<g id="edge12" class="edge">
<title>http://purl.org/dj/kaggle/submitting&#45;from&#45;a&#45;kernel/activity/4149123155570602566&#45;&gt;http://purl.org/dj/kaggle/submitting&#45;from&#45;a&#45;kernel/activity/&#45;940282435361005193</title>
<path fill="none" stroke="black" d="M1095.79,-88.61C1147.74,-74.08 1225.61,-52.31 1280.4,-36.99"/>
<polygon fill="black" stroke="black" points="1281.66,-40.27 1290.35,-34.21 1279.78,-33.53 1281.66,-40.27"/>
<text text-anchor="middle" x="1234.24" y="-57.8" font-family="Times,serif" font-size="14.00">previous</text>
</g>
<!-- http://purl.org/dj/kaggle/submitting&#45;from&#45;a&#45;kernel/activity/&#45;4005461108910699745&#45;&gt;http://purl.org/dj/kaggle/submitting&#45;from&#45;a&#45;kernel/activity/&#45;7705494453088674528 -->
<g id="edge13" class="edge">
<title>http://purl.org/dj/kaggle/submitting&#45;from&#45;a&#45;kernel/activity/&#45;4005461108910699745&#45;&gt;http://purl.org/dj/kaggle/submitting&#45;from&#45;a&#45;kernel/activity/&#45;7705494453088674528</title>
<path fill="none" stroke="black" d="M81.05,-34.94C51.97,-48.32 19.74,-70.67 19.74,-104 19.74,-280 19.74,-280 19.74,-280 19.74,-322.94 604.89,-349.69 886.17,-360.07"/>
<polygon fill="black" stroke="black" points="886.34,-363.58 896.46,-360.45 886.59,-356.59 886.34,-363.58"/>
<text text-anchor="middle" x="43.24" y="-188.3" font-family="Times,serif" font-size="14.00">previous</text>
</g>
<!-- http://purl.org/dj/kaggle/submitting&#45;from&#45;a&#45;kernel/activity/&#45;940282435361005193&#45;&gt;http://purl.org/dj/kaggle/submitting&#45;from&#45;a&#45;kernel/activity/&#45;7705494453088674528 -->
<g id="edge14" class="edge">
<title>http://purl.org/dj/kaggle/submitting&#45;from&#45;a&#45;kernel/activity/&#45;940282435361005193&#45;&gt;http://purl.org/dj/kaggle/submitting&#45;from&#45;a&#45;kernel/activity/&#45;7705494453088674528</title>
<path fill="none" stroke="black" d="M1399.67,-34.24C1432.05,-46.94 1466.74,-68.76 1466.74,-104 1466.74,-280 1466.74,-280 1466.74,-280 1466.74,-338.69 1311.62,-357.58 1187.07,-363.28"/>
<polygon fill="black" stroke="black" points="1186.86,-359.78 1177.02,-363.71 1187.16,-366.78 1186.86,-359.78"/>
<text text-anchor="middle" x="1490.24" y="-188.3" font-family="Times,serif" font-size="14.00">previous</text>
</g>
<!-- http://purl.org/dj/kaggle/submitting&#45;from&#45;a&#45;kernel/activity/5397399493089725441 -->
<g id="node9" class="node">
<title>http://purl.org/dj/kaggle/submitting&#45;from&#45;a&#45;kernel/activity/5397399493089725441</title>
<ellipse fill="none" stroke="black" cx="777.74" cy="-192" rx="148.67" ry="18"/>
<text text-anchor="middle" x="777.74" y="-188.3" font-family="Times,serif" font-size="14.00">5397399493089725441 (Visualisation)</text>
</g>
<!-- http://purl.org/dj/kaggle/submitting&#45;from&#45;a&#45;kernel/activity/5397399493089725441&#45;&gt;http://purl.org/dj/kaggle/submitting&#45;from&#45;a&#45;kernel/activity/1764413950490373691 -->
<g id="edge15" class="edge">
<title>http://purl.org/dj/kaggle/submitting&#45;from&#45;a&#45;kernel/activity/5397399493089725441&#45;&gt;http://purl.org/dj/kaggle/submitting&#45;from&#45;a&#45;kernel/activity/1764413950490373691</title>
<path fill="none" stroke="black" d="M749.29,-174.21C726.81,-160.93 695.25,-142.31 670.79,-127.87"/>
<polygon fill="black" stroke="black" points="672.52,-124.83 662.13,-122.76 668.96,-130.86 672.52,-124.83"/>
<text text-anchor="middle" x="738.24" y="-144.8" font-family="Times,serif" font-size="14.00">previous</text>
</g>
<!-- http://purl.org/dj/kaggle/submitting&#45;from&#45;a&#45;kernel/activity/5397399493089725441&#45;&gt;http://purl.org/dj/kaggle/submitting&#45;from&#45;a&#45;kernel/activity/4149123155570602566 -->
<g id="edge16" class="edge">
<title>http://purl.org/dj/kaggle/submitting&#45;from&#45;a&#45;kernel/activity/5397399493089725441&#45;&gt;http://purl.org/dj/kaggle/submitting&#45;from&#45;a&#45;kernel/activity/4149123155570602566</title>
<path fill="none" stroke="black" d="M814.69,-174.56C839.09,-164.08 871.94,-150.71 901.74,-141 921.97,-134.41 944.19,-128.31 964.82,-123.12"/>
<polygon fill="black" stroke="black" points="965.94,-126.45 974.81,-120.65 964.26,-119.66 965.94,-126.45"/>
<text text-anchor="middle" x="925.24" y="-144.8" font-family="Times,serif" font-size="14.00">previous</text>
</g>
<!-- http://purl.org/dj/kaggle/submitting&#45;from&#45;a&#45;kernel/activity/6519627432823374901 -->
<g id="node10" class="node">
<title>http://purl.org/dj/kaggle/submitting&#45;from&#45;a&#45;kernel/activity/6519627432823374901</title>
<ellipse fill="none" stroke="black" cx="1314.74" cy="-279" rx="124.28" ry="18"/>
<text text-anchor="middle" x="1314.74" y="-275.3" font-family="Times,serif" font-size="14.00">6519627432823374901 (Reuse)</text>
</g>
<!-- http://purl.org/dj/kaggle/submitting&#45;from&#45;a&#45;kernel/activity/6519627432823374901&#45;&gt;http://purl.org/dj/kaggle/submitting&#45;from&#45;a&#45;kernel/activity/4580202894360437435 -->
<g id="edge17" class="edge">
<title>http://purl.org/dj/kaggle/submitting&#45;from&#45;a&#45;kernel/activity/6519627432823374901&#45;&gt;http://purl.org/dj/kaggle/submitting&#45;from&#45;a&#45;kernel/activity/4580202894360437435</title>
<path fill="none" stroke="black" d="M1286.63,-261.41C1264.18,-248.16 1232.52,-229.47 1207.96,-214.97"/>
<polygon fill="black" stroke="black" points="1209.66,-211.91 1199.27,-209.84 1206.1,-217.94 1209.66,-211.91"/>
<text text-anchor="middle" x="1274.24" y="-231.8" font-family="Times,serif" font-size="14.00">previous</text>
</g>
</g>
</svg>
