<?xml version="1.0" encoding="UTF-8" standalone="no"?>
<!DOCTYPE svg PUBLIC "-//W3C//DTD SVG 1.1//EN"
 "http://www.w3.org/Graphics/SVG/1.1/DTD/svg11.dtd">
<!-- Generated by graphviz version 2.44.1 (20200629.0846)
 -->
<!-- Pages: 1 -->
<svg width="2144pt" height="716pt"
 viewBox="0.00 0.00 2144.38 716.00" xmlns="http://www.w3.org/2000/svg" xmlns:xlink="http://www.w3.org/1999/xlink">
<g id="graph0" class="graph" transform="scale(1 1) rotate(0) translate(4 712)">
<polygon fill="white" stroke="transparent" points="-4,4 -4,-712 2140.38,-712 2140.38,4 -4,4"/>
<!-- http://purl.org/dj/kaggle/summary&#45;functions&#45;and&#45;maps#3018526890 -->
<g id="node1" class="node">
<title>http://purl.org/dj/kaggle/summary&#45;functions&#45;and&#45;maps#3018526890</title>
<ellipse fill="none" stroke="black" cx="1503.54" cy="-105" rx="273.75" ry="18"/>
<text text-anchor="middle" x="1503.54" y="-101.3" font-family="Times,serif" font-size="14.00">3018526890 (../input/wine&#45;reviews/winemag&#45;data&#45;130k&#45;v2.csv(0): Reuse)</text>
</g>
<!-- http://purl.org/dj/kaggle/summary&#45;functions&#45;and&#45;maps -->
<g id="node2" class="node">
<title>http://purl.org/dj/kaggle/summary&#45;functions&#45;and&#45;maps</title>
<ellipse fill="none" stroke="black" cx="871.54" cy="-18" rx="117.78" ry="18"/>
<text text-anchor="middle" x="871.54" y="-14.3" font-family="Times,serif" font-size="14.00">summary&#45;functions&#45;and&#45;maps</text>
</g>
<!-- http://purl.org/dj/kaggle/summary&#45;functions&#45;and&#45;maps#3018526890&#45;&gt;http://purl.org/dj/kaggle/summary&#45;functions&#45;and&#45;maps -->
<g id="edge1" class="edge">
<title>http://purl.org/dj/kaggle/summary&#45;functions&#45;and&#45;maps#3018526890&#45;&gt;http://purl.org/dj/kaggle/summary&#45;functions&#45;and&#45;maps</title>
<path fill="none" stroke="black" d="M1389.09,-88.61C1268.23,-72.35 1079.88,-47.02 966.82,-31.82"/>
<polygon fill="black" stroke="black" points="967.17,-28.33 956.8,-30.47 966.24,-35.27 967.17,-28.33"/>
<text text-anchor="middle" x="1249.04" y="-57.8" font-family="Times,serif" font-size="14.00">previous</text>
</g>
<!-- http://purl.org/dj/kaggle/summary&#45;functions&#45;and&#45;maps#497353698 -->
<g id="node3" class="node">
<title>http://purl.org/dj/kaggle/summary&#45;functions&#45;and&#45;maps#497353698</title>
<ellipse fill="none" stroke="black" cx="549.54" cy="-516" rx="148.67" ry="18"/>
<text text-anchor="middle" x="549.54" y="-512.3" font-family="Times,serif" font-size="14.00">497353698 (reviews(0)$7: Movement)</text>
</g>
<!-- http://purl.org/dj/kaggle/summary&#45;functions&#45;and&#45;maps#924452342 -->
<g id="node4" class="node">
<title>http://purl.org/dj/kaggle/summary&#45;functions&#45;and&#45;maps#924452342</title>
<ellipse fill="none" stroke="black" cx="147.54" cy="-354" rx="147.57" ry="18"/>
<text text-anchor="middle" x="147.54" y="-350.3" font-family="Times,serif" font-size="14.00">924452342 (remean_points(0): Reuse)</text>
</g>
<!-- http://purl.org/dj/kaggle/summary&#45;functions&#45;and&#45;maps#497353698&#45;&gt;http://purl.org/dj/kaggle/summary&#45;functions&#45;and&#45;maps#924452342 -->
<g id="edge2" class="edge">
<title>http://purl.org/dj/kaggle/summary&#45;functions&#45;and&#45;maps#497353698&#45;&gt;http://purl.org/dj/kaggle/summary&#45;functions&#45;and&#45;maps#924452342</title>
<path fill="none" stroke="black" d="M508.41,-498.63C434.28,-469.13 278.51,-407.13 198.04,-375.1"/>
<polygon fill="black" stroke="black" points="199.2,-371.79 188.61,-371.35 196.61,-378.3 199.2,-371.79"/>
<text text-anchor="middle" x="479.04" y="-458.3" font-family="Times,serif" font-size="14.00">previous</text>
</g>
<!-- http://purl.org/dj/kaggle/summary&#45;functions&#45;and&#45;maps#497288161 -->
<g id="node5" class="node">
<title>http://purl.org/dj/kaggle/summary&#45;functions&#45;and&#45;maps#497288161</title>
<ellipse fill="none" stroke="black" cx="549.54" cy="-408" rx="150.27" ry="18"/>
<text text-anchor="middle" x="549.54" y="-404.3" font-family="Times,serif" font-size="14.00">497288161 (reviews(0)$6: Preparation)</text>
</g>
<!-- http://purl.org/dj/kaggle/summary&#45;functions&#45;and&#45;maps#497353698&#45;&gt;http://purl.org/dj/kaggle/summary&#45;functions&#45;and&#45;maps#497288161 -->
<g id="edge3" class="edge">
<title>http://purl.org/dj/kaggle/summary&#45;functions&#45;and&#45;maps#497353698&#45;&gt;http://purl.org/dj/kaggle/summary&#45;functions&#45;and&#45;maps#497288161</title>
<path fill="none" stroke="black" d="M549.54,-497.97C549.54,-481.38 549.54,-455.88 549.54,-436.43"/>
<polygon fill="black" stroke="black" points="553.04,-436.34 549.54,-426.34 546.04,-436.34 553.04,-436.34"/>
<text text-anchor="middle" x="573.04" y="-458.3" font-family="Times,serif" font-size="14.00">previous</text>
</g>
<!-- http://purl.org/dj/kaggle/summary&#45;functions&#45;and&#45;maps#924452342&#45;&gt;http://purl.org/dj/kaggle/summary&#45;functions&#45;and&#45;maps -->
<g id="edge4" class="edge">
<title>http://purl.org/dj/kaggle/summary&#45;functions&#45;and&#45;maps#924452342&#45;&gt;http://purl.org/dj/kaggle/summary&#45;functions&#45;and&#45;maps</title>
<path fill="none" stroke="black" d="M137.35,-336.04C126.1,-315.65 109.54,-280.04 109.54,-247 109.54,-247 109.54,-247 109.54,-104 109.54,-40.9 527.58,-24.64 744.39,-20.45"/>
<polygon fill="black" stroke="black" points="744.63,-23.95 754.56,-20.26 744.5,-16.95 744.63,-23.95"/>
<text text-anchor="middle" x="133.04" y="-188.3" font-family="Times,serif" font-size="14.00">previous</text>
</g>
<!-- http://purl.org/dj/kaggle/summary&#45;functions&#45;and&#45;maps#1890584676 -->
<g id="node6" class="node">
<title>http://purl.org/dj/kaggle/summary&#45;functions&#45;and&#45;maps#1890584676</title>
<ellipse fill="none" stroke="black" cx="796.54" cy="-300" rx="181.97" ry="18"/>
<text text-anchor="middle" x="796.54" y="-296.3" font-family="Times,serif" font-size="14.00">1890584676 (review_points_mean(0)$0: Reuse)</text>
</g>
<!-- http://purl.org/dj/kaggle/summary&#45;functions&#45;and&#45;maps#497288161&#45;&gt;http://purl.org/dj/kaggle/summary&#45;functions&#45;and&#45;maps#1890584676 -->
<g id="edge5" class="edge">
<title>http://purl.org/dj/kaggle/summary&#45;functions&#45;and&#45;maps#497288161&#45;&gt;http://purl.org/dj/kaggle/summary&#45;functions&#45;and&#45;maps#1890584676</title>
<path fill="none" stroke="black" d="M587.86,-390.55C631.09,-372 701.46,-341.8 748.37,-321.67"/>
<polygon fill="black" stroke="black" points="749.91,-324.82 757.72,-317.66 747.15,-318.39 749.91,-324.82"/>
<text text-anchor="middle" x="734.04" y="-350.3" font-family="Times,serif" font-size="14.00">previous</text>
</g>
<!-- http://purl.org/dj/kaggle/summary&#45;functions&#45;and&#45;maps#496894939 -->
<g id="node7" class="node">
<title>http://purl.org/dj/kaggle/summary&#45;functions&#45;and&#45;maps#496894939</title>
<ellipse fill="none" stroke="black" cx="1074.54" cy="-192" rx="148.67" ry="18"/>
<text text-anchor="middle" x="1074.54" y="-188.3" font-family="Times,serif" font-size="14.00">496894939 (reviews(0)$0: Movement)</text>
</g>
<!-- http://purl.org/dj/kaggle/summary&#45;functions&#45;and&#45;maps#497288161&#45;&gt;http://purl.org/dj/kaggle/summary&#45;functions&#45;and&#45;maps#496894939 -->
<g id="edge6" class="edge">
<title>http://purl.org/dj/kaggle/summary&#45;functions&#45;and&#45;maps#497288161&#45;&gt;http://purl.org/dj/kaggle/summary&#45;functions&#45;and&#45;maps#496894939</title>
<path fill="none" stroke="black" d="M654.66,-395.13C766.47,-380.86 934.41,-354.24 987.54,-318 1023.68,-293.34 1049.45,-248.33 1063.16,-219.58"/>
<polygon fill="black" stroke="black" points="1066.49,-220.7 1067.5,-210.15 1060.14,-217.77 1066.49,-220.7"/>
<text text-anchor="middle" x="1048.04" y="-296.3" font-family="Times,serif" font-size="14.00">previous</text>
</g>
<!-- http://purl.org/dj/kaggle/summary&#45;functions&#45;and&#45;maps#80085334 -->
<g id="node8" class="node">
<title>http://purl.org/dj/kaggle/summary&#45;functions&#45;and&#45;maps#80085334</title>
<ellipse fill="none" stroke="black" cx="466.54" cy="-192" rx="116.98" ry="18"/>
<text text-anchor="middle" x="466.54" y="-188.3" font-family="Times,serif" font-size="14.00">80085334 (pd(0): Movement)</text>
</g>
<!-- http://purl.org/dj/kaggle/summary&#45;functions&#45;and&#45;maps#497288161&#45;&gt;http://purl.org/dj/kaggle/summary&#45;functions&#45;and&#45;maps#80085334 -->
<g id="edge7" class="edge">
<title>http://purl.org/dj/kaggle/summary&#45;functions&#45;and&#45;maps#497288161&#45;&gt;http://purl.org/dj/kaggle/summary&#45;functions&#45;and&#45;maps#80085334</title>
<path fill="none" stroke="black" d="M531.74,-390.13C515.42,-373.47 492.08,-346.44 480.54,-318 467.68,-286.31 465.31,-246.61 465.41,-220.56"/>
<polygon fill="black" stroke="black" points="468.92,-220.35 465.59,-210.29 461.92,-220.23 468.92,-220.35"/>
<text text-anchor="middle" x="504.04" y="-296.3" font-family="Times,serif" font-size="14.00">previous</text>
</g>
<!-- http://purl.org/dj/kaggle/summary&#45;functions&#45;and&#45;maps#132776362 -->
<g id="node9" class="node">
<title>http://purl.org/dj/kaggle/summary&#45;functions&#45;and&#45;maps#132776362</title>
<ellipse fill="none" stroke="black" cx="756.54" cy="-192" rx="129.98" ry="18"/>
<text text-anchor="middle" x="756.54" y="-188.3" font-family="Times,serif" font-size="14.00">132776362 (pd(0)$0: Movement)</text>
</g>
<!-- http://purl.org/dj/kaggle/summary&#45;functions&#45;and&#45;maps#497288161&#45;&gt;http://purl.org/dj/kaggle/summary&#45;functions&#45;and&#45;maps#132776362 -->
<g id="edge8" class="edge">
<title>http://purl.org/dj/kaggle/summary&#45;functions&#45;and&#45;maps#497288161&#45;&gt;http://purl.org/dj/kaggle/summary&#45;functions&#45;and&#45;maps#132776362</title>
<path fill="none" stroke="black" d="M546.1,-389.77C539.92,-353.24 531.72,-268.08 579.54,-228 591.07,-218.33 618.89,-210.99 649.14,-205.59"/>
<polygon fill="black" stroke="black" points="649.76,-209.04 659.03,-203.91 648.58,-202.14 649.76,-209.04"/>
<text text-anchor="middle" x="571.04" y="-296.3" font-family="Times,serif" font-size="14.00">previous</text>
</g>
<!-- http://purl.org/dj/kaggle/summary&#45;functions&#45;and&#45;maps#46465266 -->
<g id="node10" class="node">
<title>http://purl.org/dj/kaggle/summary&#45;functions&#45;and&#45;maps#46465266</title>
<ellipse fill="none" stroke="black" cx="288.54" cy="-246" rx="94.78" ry="18"/>
<text text-anchor="middle" x="288.54" y="-242.3" font-family="Times,serif" font-size="14.00">46465266 (p(0): Reuse)</text>
</g>
<!-- http://purl.org/dj/kaggle/summary&#45;functions&#45;and&#45;maps#497288161&#45;&gt;http://purl.org/dj/kaggle/summary&#45;functions&#45;and&#45;maps#46465266 -->
<g id="edge9" class="edge">
<title>http://purl.org/dj/kaggle/summary&#45;functions&#45;and&#45;maps#497288161&#45;&gt;http://purl.org/dj/kaggle/summary&#45;functions&#45;and&#45;maps#46465266</title>
<path fill="none" stroke="black" d="M459.23,-393.53C440.69,-388.48 421.87,-381.53 405.54,-372 362.5,-346.87 325.65,-301.05 305.34,-272.41"/>
<polygon fill="black" stroke="black" points="308.16,-270.33 299.59,-264.11 302.41,-274.32 308.16,-270.33"/>
<text text-anchor="middle" x="429.04" y="-350.3" font-family="Times,serif" font-size="14.00">previous</text>
</g>
<!-- http://purl.org/dj/kaggle/summary&#45;functions&#45;and&#45;maps#1890584676&#45;&gt;http://purl.org/dj/kaggle/summary&#45;functions&#45;and&#45;maps#496894939 -->
<g id="edge10" class="edge">
<title>http://purl.org/dj/kaggle/summary&#45;functions&#45;and&#45;maps#1890584676&#45;&gt;http://purl.org/dj/kaggle/summary&#45;functions&#45;and&#45;maps#496894939</title>
<path fill="none" stroke="black" d="M836.64,-282.43C872.59,-267.72 926.86,-245.84 974.54,-228 988.39,-222.81 1003.42,-217.43 1017.5,-212.49"/>
<polygon fill="black" stroke="black" points="1018.79,-215.75 1027.08,-209.14 1016.48,-209.14 1018.79,-215.75"/>
<text text-anchor="middle" x="998.04" y="-242.3" font-family="Times,serif" font-size="14.00">previous</text>
</g>
<!-- http://purl.org/dj/kaggle/summary&#45;functions&#45;and&#45;maps#1890584676&#45;&gt;http://purl.org/dj/kaggle/summary&#45;functions&#45;and&#45;maps#80085334 -->
<g id="edge11" class="edge">
<title>http://purl.org/dj/kaggle/summary&#45;functions&#45;and&#45;maps#1890584676&#45;&gt;http://purl.org/dj/kaggle/summary&#45;functions&#45;and&#45;maps#80085334</title>
<path fill="none" stroke="black" d="M745.7,-282.67C685.98,-263.49 587.12,-231.73 524.48,-211.61"/>
<polygon fill="black" stroke="black" points="525.34,-208.21 514.75,-208.49 523.2,-214.88 525.34,-208.21"/>
<text text-anchor="middle" x="704.04" y="-242.3" font-family="Times,serif" font-size="14.00">previous</text>
</g>
<!-- http://purl.org/dj/kaggle/summary&#45;functions&#45;and&#45;maps#1890584676&#45;&gt;http://purl.org/dj/kaggle/summary&#45;functions&#45;and&#45;maps#132776362 -->
<g id="edge12" class="edge">
<title>http://purl.org/dj/kaggle/summary&#45;functions&#45;and&#45;maps#1890584676&#45;&gt;http://purl.org/dj/kaggle/summary&#45;functions&#45;and&#45;maps#132776362</title>
<path fill="none" stroke="black" d="M790.11,-281.97C783.75,-265.12 773.93,-239.1 766.55,-219.54"/>
<polygon fill="black" stroke="black" points="769.75,-218.11 762.95,-209.99 763.2,-220.58 769.75,-218.11"/>
<text text-anchor="middle" x="806.04" y="-242.3" font-family="Times,serif" font-size="14.00">previous</text>
</g>
<!-- http://purl.org/dj/kaggle/summary&#45;functions&#45;and&#45;maps#496894939&#45;&gt;http://purl.org/dj/kaggle/summary&#45;functions&#45;and&#45;maps#3018526890 -->
<g id="edge13" class="edge">
<title>http://purl.org/dj/kaggle/summary&#45;functions&#45;and&#45;maps#496894939&#45;&gt;http://purl.org/dj/kaggle/summary&#45;functions&#45;and&#45;maps#3018526890</title>
<path fill="none" stroke="black" d="M1148.77,-176.29C1221.79,-161.82 1333.43,-139.71 1411.92,-124.15"/>
<polygon fill="black" stroke="black" points="1412.68,-127.57 1421.81,-122.19 1411.32,-120.7 1412.68,-127.57"/>
<text text-anchor="middle" x="1339.04" y="-144.8" font-family="Times,serif" font-size="14.00">previous</text>
</g>
<!-- http://purl.org/dj/kaggle/summary&#45;functions&#45;and&#45;maps#29687986 -->
<g id="node11" class="node">
<title>http://purl.org/dj/kaggle/summary&#45;functions&#45;and&#45;maps#29687986</title>
<ellipse fill="none" stroke="black" cx="1116.54" cy="-105" rx="94.78" ry="18"/>
<text text-anchor="middle" x="1116.54" y="-101.3" font-family="Times,serif" font-size="14.00">29687986 (0(0): Reuse)</text>
</g>
<!-- http://purl.org/dj/kaggle/summary&#45;functions&#45;and&#45;maps#496894939&#45;&gt;http://purl.org/dj/kaggle/summary&#45;functions&#45;and&#45;maps#29687986 -->
<g id="edge14" class="edge">
<title>http://purl.org/dj/kaggle/summary&#45;functions&#45;and&#45;maps#496894939&#45;&gt;http://purl.org/dj/kaggle/summary&#45;functions&#45;and&#45;maps#29687986</title>
<path fill="none" stroke="black" d="M1083.04,-173.8C1088.9,-161.93 1096.81,-145.93 1103.47,-132.45"/>
<polygon fill="black" stroke="black" points="1106.76,-133.69 1108.05,-123.18 1100.48,-130.59 1106.76,-133.69"/>
<text text-anchor="middle" x="1122.04" y="-144.8" font-family="Times,serif" font-size="14.00">previous</text>
</g>
<!-- http://purl.org/dj/kaggle/summary&#45;functions&#45;and&#45;maps#80085334&#45;&gt;http://purl.org/dj/kaggle/summary&#45;functions&#45;and&#45;maps -->
<g id="edge15" class="edge">
<title>http://purl.org/dj/kaggle/summary&#45;functions&#45;and&#45;maps#80085334&#45;&gt;http://purl.org/dj/kaggle/summary&#45;functions&#45;and&#45;maps</title>
<path fill="none" stroke="black" d="M462.3,-173.76C457.79,-150.83 453.95,-110.48 475.54,-87 511.75,-47.62 646.74,-31.02 749.13,-24.04"/>
<polygon fill="black" stroke="black" points="749.5,-27.52 759.25,-23.37 749.04,-20.53 749.5,-27.52"/>
<text text-anchor="middle" x="499.04" y="-101.3" font-family="Times,serif" font-size="14.00">previous</text>
</g>
<!-- http://purl.org/dj/python/lib/144966264 -->
<g id="node12" class="node">
<title>http://purl.org/dj/python/lib/144966264</title>
<ellipse fill="none" stroke="black" cx="321.54" cy="-105" rx="109.38" ry="18"/>
<text text-anchor="middle" x="321.54" y="-101.3" font-family="Times,serif" font-size="14.00">144966264 (pandas: Reuse)</text>
</g>
<!-- http://purl.org/dj/kaggle/summary&#45;functions&#45;and&#45;maps#80085334&#45;&gt;http://purl.org/dj/python/lib/144966264 -->
<g id="edge16" class="edge">
<title>http://purl.org/dj/kaggle/summary&#45;functions&#45;and&#45;maps#80085334&#45;&gt;http://purl.org/dj/python/lib/144966264</title>
<path fill="none" stroke="black" d="M437.62,-174.54C427.46,-168.72 415.97,-162.1 405.54,-156 389.88,-146.85 372.67,-136.63 357.92,-127.83"/>
<polygon fill="black" stroke="black" points="359.47,-124.68 349.09,-122.55 355.88,-130.69 359.47,-124.68"/>
<text text-anchor="middle" x="429.04" y="-144.8" font-family="Times,serif" font-size="14.00">previous</text>
</g>
<!-- http://purl.org/dj/kaggle/summary&#45;functions&#45;and&#45;maps#445383666 -->
<g id="node13" class="node">
<title>http://purl.org/dj/kaggle/summary&#45;functions&#45;and&#45;maps#445383666</title>
<ellipse fill="none" stroke="black" cx="871.54" cy="-105" rx="131.88" ry="18"/>
<text text-anchor="middle" x="871.54" y="-101.3" font-family="Times,serif" font-size="14.00">445383666 (max_rows(0): Reuse)</text>
</g>
<!-- http://purl.org/dj/kaggle/summary&#45;functions&#45;and&#45;maps#132776362&#45;&gt;http://purl.org/dj/kaggle/summary&#45;functions&#45;and&#45;maps#445383666 -->
<g id="edge17" class="edge">
<title>http://purl.org/dj/kaggle/summary&#45;functions&#45;and&#45;maps#132776362&#45;&gt;http://purl.org/dj/kaggle/summary&#45;functions&#45;and&#45;maps#445383666</title>
<path fill="none" stroke="black" d="M779.26,-174.21C796.82,-161.23 821.32,-143.12 840.66,-128.83"/>
<polygon fill="black" stroke="black" points="842.9,-131.52 848.86,-122.76 838.74,-125.89 842.9,-131.52"/>
<text text-anchor="middle" x="845.04" y="-144.8" font-family="Times,serif" font-size="14.00">previous</text>
</g>
<!-- http://purl.org/dj/kaggle/summary&#45;functions&#45;and&#45;maps#30998711 -->
<g id="node14" class="node">
<title>http://purl.org/dj/kaggle/summary&#45;functions&#45;and&#45;maps#30998711</title>
<ellipse fill="none" stroke="black" cx="626.54" cy="-105" rx="94.78" ry="18"/>
<text text-anchor="middle" x="626.54" y="-101.3" font-family="Times,serif" font-size="14.00">30998711 (5(0): Reuse)</text>
</g>
<!-- http://purl.org/dj/kaggle/summary&#45;functions&#45;and&#45;maps#132776362&#45;&gt;http://purl.org/dj/kaggle/summary&#45;functions&#45;and&#45;maps#30998711 -->
<g id="edge18" class="edge">
<title>http://purl.org/dj/kaggle/summary&#45;functions&#45;and&#45;maps#132776362&#45;&gt;http://purl.org/dj/kaggle/summary&#45;functions&#45;and&#45;maps#30998711</title>
<path fill="none" stroke="black" d="M730.85,-174.21C710.6,-160.97 682.2,-142.39 660.14,-127.97"/>
<polygon fill="black" stroke="black" points="662.01,-125.01 651.73,-122.47 658.18,-130.87 662.01,-125.01"/>
<text text-anchor="middle" x="723.04" y="-144.8" font-family="Times,serif" font-size="14.00">previous</text>
</g>
<!-- http://purl.org/dj/kaggle/summary&#45;functions&#45;and&#45;maps#46465266&#45;&gt;http://purl.org/dj/kaggle/summary&#45;functions&#45;and&#45;maps -->
<g id="edge27" class="edge">
<title>http://purl.org/dj/kaggle/summary&#45;functions&#45;and&#45;maps#46465266&#45;&gt;http://purl.org/dj/kaggle/summary&#45;functions&#45;and&#45;maps</title>
<path fill="none" stroke="black" d="M267.29,-228.27C231.33,-197.95 165.87,-132.84 203.54,-87 237.33,-45.88 562.91,-28.82 746.73,-22.42"/>
<polygon fill="black" stroke="black" points="746.86,-25.92 756.73,-22.08 746.62,-18.92 746.86,-25.92"/>
<text text-anchor="middle" x="227.04" y="-144.8" font-family="Times,serif" font-size="14.00">previous</text>
</g>
<!-- http://purl.org/dj/kaggle/summary&#45;functions&#45;and&#45;maps#29687986&#45;&gt;http://purl.org/dj/kaggle/summary&#45;functions&#45;and&#45;maps -->
<g id="edge19" class="edge">
<title>http://purl.org/dj/kaggle/summary&#45;functions&#45;and&#45;maps#29687986&#45;&gt;http://purl.org/dj/kaggle/summary&#45;functions&#45;and&#45;maps</title>
<path fill="none" stroke="black" d="M1073.02,-88.9C1032.02,-74.68 970.46,-53.32 926.18,-37.96"/>
<polygon fill="black" stroke="black" points="927.32,-34.65 916.72,-34.68 925.02,-41.26 927.32,-34.65"/>
<text text-anchor="middle" x="1033.04" y="-57.8" font-family="Times,serif" font-size="14.00">previous</text>
</g>
<!-- http://purl.org/dj/python/lib/144966264&#45;&gt;http://purl.org/dj/kaggle/summary&#45;functions&#45;and&#45;maps -->
<g id="edge25" class="edge">
<title>http://purl.org/dj/python/lib/144966264&#45;&gt;http://purl.org/dj/kaggle/summary&#45;functions&#45;and&#45;maps</title>
<path fill="none" stroke="black" d="M343.35,-87.16C359.55,-75.64 382.72,-61.21 405.54,-54 466.71,-34.68 630.13,-25.87 746.13,-21.96"/>
<polygon fill="black" stroke="black" points="746.27,-25.46 756.15,-21.63 746.04,-18.46 746.27,-25.46"/>
<text text-anchor="middle" x="429.04" y="-57.8" font-family="Times,serif" font-size="14.00">previous</text>
</g>
<!-- http://purl.org/dj/kaggle/summary&#45;functions&#45;and&#45;maps#445383666&#45;&gt;http://purl.org/dj/kaggle/summary&#45;functions&#45;and&#45;maps -->
<g id="edge20" class="edge">
<title>http://purl.org/dj/kaggle/summary&#45;functions&#45;and&#45;maps#445383666&#45;&gt;http://purl.org/dj/kaggle/summary&#45;functions&#45;and&#45;maps</title>
<path fill="none" stroke="black" d="M871.54,-86.8C871.54,-75.16 871.54,-59.55 871.54,-46.24"/>
<polygon fill="black" stroke="black" points="875.04,-46.18 871.54,-36.18 868.04,-46.18 875.04,-46.18"/>
<text text-anchor="middle" x="895.04" y="-57.8" font-family="Times,serif" font-size="14.00">previous</text>
</g>
<!-- http://purl.org/dj/kaggle/summary&#45;functions&#45;and&#45;maps#30998711&#45;&gt;http://purl.org/dj/kaggle/summary&#45;functions&#45;and&#45;maps -->
<g id="edge26" class="edge">
<title>http://purl.org/dj/kaggle/summary&#45;functions&#45;and&#45;maps#30998711&#45;&gt;http://purl.org/dj/kaggle/summary&#45;functions&#45;and&#45;maps</title>
<path fill="none" stroke="black" d="M670.06,-88.9C711.05,-74.68 772.62,-53.32 816.9,-37.96"/>
<polygon fill="black" stroke="black" points="818.05,-41.26 826.35,-34.68 815.76,-34.65 818.05,-41.26"/>
<text text-anchor="middle" x="788.04" y="-57.8" font-family="Times,serif" font-size="14.00">previous</text>
</g>
<!-- http://purl.org/dj/kaggle/summary&#45;functions&#45;and&#45;maps#1890650213 -->
<g id="node15" class="node">
<title>http://purl.org/dj/kaggle/summary&#45;functions&#45;and&#45;maps#1890650213</title>
<ellipse fill="none" stroke="black" cx="908.54" cy="-690" rx="199.56" ry="18"/>
<text text-anchor="middle" x="908.54" y="-686.3" font-family="Times,serif" font-size="14.00">1890650213 (review_points_mean(0)$1: Movement)</text>
</g>
<!-- http://purl.org/dj/kaggle/summary&#45;functions&#45;and&#45;maps#497419235 -->
<g id="node16" class="node">
<title>http://purl.org/dj/kaggle/summary&#45;functions&#45;and&#45;maps#497419235</title>
<ellipse fill="none" stroke="black" cx="908.54" cy="-603" rx="150.27" ry="18"/>
<text text-anchor="middle" x="908.54" y="-599.3" font-family="Times,serif" font-size="14.00">497419235 (reviews(0)$8: Preparation)</text>
</g>
<!-- http://purl.org/dj/kaggle/summary&#45;functions&#45;and&#45;maps#1890650213&#45;&gt;http://purl.org/dj/kaggle/summary&#45;functions&#45;and&#45;maps#497419235 -->
<g id="edge21" class="edge">
<title>http://purl.org/dj/kaggle/summary&#45;functions&#45;and&#45;maps#1890650213&#45;&gt;http://purl.org/dj/kaggle/summary&#45;functions&#45;and&#45;maps#497419235</title>
<path fill="none" stroke="black" d="M908.54,-671.8C908.54,-660.16 908.54,-644.55 908.54,-631.24"/>
<polygon fill="black" stroke="black" points="912.04,-631.18 908.54,-621.18 905.04,-631.18 912.04,-631.18"/>
<text text-anchor="middle" x="932.04" y="-642.8" font-family="Times,serif" font-size="14.00">previous</text>
</g>
<!-- http://purl.org/dj/kaggle/summary&#45;functions&#45;and&#45;maps#497419235&#45;&gt;http://purl.org/dj/kaggle/summary&#45;functions&#45;and&#45;maps#497353698 -->
<g id="edge22" class="edge">
<title>http://purl.org/dj/kaggle/summary&#45;functions&#45;and&#45;maps#497419235&#45;&gt;http://purl.org/dj/kaggle/summary&#45;functions&#45;and&#45;maps#497353698</title>
<path fill="none" stroke="black" d="M843.94,-586.71C782.02,-572.04 688.62,-549.93 623.68,-534.56"/>
<polygon fill="black" stroke="black" points="624.45,-531.14 613.92,-532.24 622.84,-537.95 624.45,-531.14"/>
<text text-anchor="middle" x="774.04" y="-555.8" font-family="Times,serif" font-size="14.00">previous</text>
</g>
<!-- http://purl.org/dj/kaggle/summary&#45;functions&#45;and&#45;maps#29950131 -->
<g id="node17" class="node">
<title>http://purl.org/dj/kaggle/summary&#45;functions&#45;and&#45;maps#29950131</title>
<ellipse fill="none" stroke="black" cx="1535.54" cy="-462" rx="94.78" ry="18"/>
<text text-anchor="middle" x="1535.54" y="-458.3" font-family="Times,serif" font-size="14.00">29950131 (1(0): Reuse)</text>
</g>
<!-- http://purl.org/dj/kaggle/summary&#45;functions&#45;and&#45;maps#497419235&#45;&gt;http://purl.org/dj/kaggle/summary&#45;functions&#45;and&#45;maps#29950131 -->
<g id="edge23" class="edge">
<title>http://purl.org/dj/kaggle/summary&#45;functions&#45;and&#45;maps#497419235&#45;&gt;http://purl.org/dj/kaggle/summary&#45;functions&#45;and&#45;maps#29950131</title>
<path fill="none" stroke="black" d="M976.53,-586.93C1096.64,-560.3 1345.06,-505.23 1466.15,-478.38"/>
<polygon fill="black" stroke="black" points="1467.05,-481.77 1476.06,-476.19 1465.53,-474.93 1467.05,-481.77"/>
<text text-anchor="middle" x="1153.04" y="-555.8" font-family="Times,serif" font-size="14.00">previous</text>
</g>
<!-- http://purl.org/dj/kaggle/summary&#45;functions&#45;and&#45;maps#29950131&#45;&gt;http://purl.org/dj/kaggle/summary&#45;functions&#45;and&#45;maps -->
<g id="edge24" class="edge">
<title>http://purl.org/dj/kaggle/summary&#45;functions&#45;and&#45;maps#29950131&#45;&gt;http://purl.org/dj/kaggle/summary&#45;functions&#45;and&#45;maps</title>
<path fill="none" stroke="black" d="M1600.9,-448.83C1680.8,-432.04 1805.54,-398.81 1805.54,-355 1805.54,-355 1805.54,-355 1805.54,-104 1805.54,-92.67 1796.96,-91.43 1786.54,-87 1648.28,-28.21 1216.99,-19.14 999.56,-18.44"/>
<polygon fill="black" stroke="black" points="999.38,-14.94 989.37,-18.41 999.36,-21.94 999.38,-14.94"/>
<text text-anchor="middle" x="1829.04" y="-242.3" font-family="Times,serif" font-size="14.00">previous</text>
</g>
<!-- http://purl.org/dj/python/lib/111084090 -->
<g id="node18" class="node">
<title>http://purl.org/dj/python/lib/111084090</title>
<ellipse fill="none" stroke="black" cx="2026.54" cy="-105" rx="109.68" ry="18"/>
<text text-anchor="middle" x="2026.54" y="-101.3" font-family="Times,serif" font-size="14.00">111084090 (numpy: Reuse)</text>
</g>
<!-- http://purl.org/dj/python/lib/111084090&#45;&gt;http://purl.org/dj/kaggle/summary&#45;functions&#45;and&#45;maps -->
<g id="edge28" class="edge">
<title>http://purl.org/dj/python/lib/111084090&#45;&gt;http://purl.org/dj/kaggle/summary&#45;functions&#45;and&#45;maps</title>
<path fill="none" stroke="black" d="M1986.24,-88.2C1954.11,-76.41 1907.67,-61.15 1865.54,-54 1702.82,-26.38 1228.88,-20.49 999.23,-19.28"/>
<polygon fill="black" stroke="black" points="999.16,-15.78 989.15,-19.23 999.13,-22.78 999.16,-15.78"/>
<text text-anchor="middle" x="1947.04" y="-57.8" font-family="Times,serif" font-size="14.00">previous</text>
</g>
<!-- http://purl.org/dj/kaggle/summary&#45;functions&#45;and&#45;maps#82575712 -->
<g id="node19" class="node">
<title>http://purl.org/dj/kaggle/summary&#45;functions&#45;and&#45;maps#82575712</title>
<ellipse fill="none" stroke="black" cx="1988.54" cy="-192" rx="116.98" ry="18"/>
<text text-anchor="middle" x="1988.54" y="-188.3" font-family="Times,serif" font-size="14.00">82575712 (np(0): Movement)</text>
</g>
<!-- http://purl.org/dj/kaggle/summary&#45;functions&#45;and&#45;maps#82575712&#45;&gt;http://purl.org/dj/kaggle/summary&#45;functions&#45;and&#45;maps -->
<g id="edge29" class="edge">
<title>http://purl.org/dj/kaggle/summary&#45;functions&#45;and&#45;maps#82575712&#45;&gt;http://purl.org/dj/kaggle/summary&#45;functions&#45;and&#45;maps</title>
<path fill="none" stroke="black" d="M1945.66,-175.24C1918.87,-163.81 1884.94,-146.27 1860.54,-123 1834.72,-98.39 1850.21,-72.21 1819.54,-54 1784.88,-33.42 1248.74,-23.85 998.45,-20.48"/>
<polygon fill="black" stroke="black" points="998.26,-16.98 988.21,-20.35 998.16,-23.98 998.26,-16.98"/>
<text text-anchor="middle" x="1884.04" y="-101.3" font-family="Times,serif" font-size="14.00">previous</text>
</g>
<!-- http://purl.org/dj/kaggle/summary&#45;functions&#45;and&#45;maps#82575712&#45;&gt;http://purl.org/dj/python/lib/111084090 -->
<g id="edge30" class="edge">
<title>http://purl.org/dj/kaggle/summary&#45;functions&#45;and&#45;maps#82575712&#45;&gt;http://purl.org/dj/python/lib/111084090</title>
<path fill="none" stroke="black" d="M1996.23,-173.8C2001.53,-161.93 2008.69,-145.93 2014.71,-132.45"/>
<polygon fill="black" stroke="black" points="2017.97,-133.73 2018.86,-123.18 2011.58,-130.88 2017.97,-133.73"/>
<text text-anchor="middle" x="2033.04" y="-144.8" font-family="Times,serif" font-size="14.00">previous</text>
</g>
</g>
</svg>
