<?xml version="1.0" encoding="UTF-8" standalone="no"?>
<!DOCTYPE svg PUBLIC "-//W3C//DTD SVG 1.1//EN"
 "http://www.w3.org/Graphics/SVG/1.1/DTD/svg11.dtd">
<!-- Generated by graphviz version 2.44.1 (20200629.0846)
 -->
<!-- Pages: 1 -->
<svg width="1948pt" height="1367pt"
 viewBox="0.00 0.00 1947.53 1367.00" xmlns="http://www.w3.org/2000/svg" xmlns:xlink="http://www.w3.org/1999/xlink">
<g id="graph0" class="graph" transform="scale(1 1) rotate(0) translate(4 1363)">
<polygon fill="white" stroke="transparent" points="-4,4 -4,-1363 1943.53,-1363 1943.53,4 -4,4"/>
<!-- http://purl.org/dj/kaggle/summary&#45;functions&#45;and&#45;maps#497353698 -->
<g id="node1" class="node">
<title>http://purl.org/dj/kaggle/summary&#45;functions&#45;and&#45;maps#497353698</title>
<ellipse fill="none" stroke="black" cx="1033.99" cy="-1167" rx="148.67" ry="18"/>
<text text-anchor="middle" x="1033.99" y="-1163.3" font-family="Times,serif" font-size="14.00">497353698 (reviews(0)$7: Movement)</text>
</g>
<!-- http://purl.org/dj/kaggle/summary&#45;functions&#45;and&#45;maps#924452342 -->
<g id="node2" class="node">
<title>http://purl.org/dj/kaggle/summary&#45;functions&#45;and&#45;maps#924452342</title>
<ellipse fill="none" stroke="black" cx="1044.99" cy="-1005" rx="147.57" ry="18"/>
<text text-anchor="middle" x="1044.99" y="-1001.3" font-family="Times,serif" font-size="14.00">924452342 (remean_points(0): Reuse)</text>
</g>
<!-- http://purl.org/dj/kaggle/summary&#45;functions&#45;and&#45;maps#497353698&#45;&gt;http://purl.org/dj/kaggle/summary&#45;functions&#45;and&#45;maps#924452342 -->
<g id="edge1" class="edge">
<title>http://purl.org/dj/kaggle/summary&#45;functions&#45;and&#45;maps#497353698&#45;&gt;http://purl.org/dj/kaggle/summary&#45;functions&#45;and&#45;maps#924452342</title>
<path fill="none" stroke="black" d="M1035.17,-1148.88C1037.07,-1121.21 1040.83,-1066.44 1043.11,-1033.33"/>
<polygon fill="black" stroke="black" points="1046.63,-1033.22 1043.82,-1023 1039.64,-1032.74 1046.63,-1033.22"/>
<text text-anchor="middle" x="1054.49" y="-1109.3" font-family="Times,serif" font-size="14.00">apply</text>
</g>
<!-- http://purl.org/dj/kaggle/summary&#45;functions&#45;and&#45;maps#497288161 -->
<g id="node3" class="node">
<title>http://purl.org/dj/kaggle/summary&#45;functions&#45;and&#45;maps#497288161</title>
<ellipse fill="none" stroke="black" cx="709.99" cy="-1059" rx="150.27" ry="18"/>
<text text-anchor="middle" x="709.99" y="-1055.3" font-family="Times,serif" font-size="14.00">497288161 (reviews(0)$6: Preparation)</text>
</g>
<!-- http://purl.org/dj/kaggle/summary&#45;functions&#45;and&#45;maps#497353698&#45;&gt;http://purl.org/dj/kaggle/summary&#45;functions&#45;and&#45;maps#497288161 -->
<g id="edge2" class="edge">
<title>http://purl.org/dj/kaggle/summary&#45;functions&#45;and&#45;maps#497353698&#45;&gt;http://purl.org/dj/kaggle/summary&#45;functions&#45;and&#45;maps#497288161</title>
<path fill="none" stroke="black" d="M983.77,-1149.97C965.28,-1144.04 944.17,-1137.25 924.99,-1131 871.82,-1113.69 811.36,-1093.69 768.13,-1079.34"/>
<polygon fill="black" stroke="black" points="769.22,-1076.02 758.62,-1076.19 767.01,-1082.66 769.22,-1076.02"/>
<text text-anchor="middle" x="970.49" y="-1109.3" font-family="Times,serif" font-size="14.00">previousActivity</text>
</g>
<!-- http://purl.org/dj/kaggle/summary&#45;functions&#45;and&#45;maps -->
<g id="node4" class="node">
<title>http://purl.org/dj/kaggle/summary&#45;functions&#45;and&#45;maps</title>
<ellipse fill="none" stroke="black" cx="949.99" cy="-18" rx="117.78" ry="18"/>
<text text-anchor="middle" x="949.99" y="-14.3" font-family="Times,serif" font-size="14.00">summary&#45;functions&#45;and&#45;maps</text>
</g>
<!-- http://purl.org/dj/kaggle/summary&#45;functions&#45;and&#45;maps#924452342&#45;&gt;http://purl.org/dj/kaggle/summary&#45;functions&#45;and&#45;maps -->
<g id="edge3" class="edge">
<title>http://purl.org/dj/kaggle/summary&#45;functions&#45;and&#45;maps#924452342&#45;&gt;http://purl.org/dj/kaggle/summary&#45;functions&#45;and&#45;maps</title>
<path fill="none" stroke="black" d="M1062.02,-986.92C1079.76,-967.25 1104.99,-933.1 1104.99,-898 1104.99,-898 1104.99,-898 1104.99,-581 1104.99,-523.88 1106.99,-509.62 1106.99,-452.5 1106.99,-452.5 1106.99,-452.5 1106.99,-104 1106.99,-67.44 1073.66,-46.52 1037.71,-34.6"/>
<polygon fill="black" stroke="black" points="1038.62,-31.22 1028.03,-31.61 1036.55,-37.91 1038.62,-31.22"/>
<text text-anchor="middle" x="1151.49" y="-534.8" font-family="Times,serif" font-size="14.00">previousActivity</text>
</g>
<!-- http://purl.org/dj/kaggle/summary&#45;functions&#45;and&#45;maps#80085334 -->
<g id="node5" class="node">
<title>http://purl.org/dj/kaggle/summary&#45;functions&#45;and&#45;maps#80085334</title>
<ellipse fill="none" stroke="black" cx="116.99" cy="-213" rx="116.98" ry="18"/>
<text text-anchor="middle" x="116.99" y="-209.3" font-family="Times,serif" font-size="14.00">80085334 (pd(0): Movement)</text>
</g>
<!-- http://purl.org/dj/kaggle/summary&#45;functions&#45;and&#45;maps#497288161&#45;&gt;http://purl.org/dj/kaggle/summary&#45;functions&#45;and&#45;maps#80085334 -->
<g id="edge4" class="edge">
<title>http://purl.org/dj/kaggle/summary&#45;functions&#45;and&#45;maps#497288161&#45;&gt;http://purl.org/dj/kaggle/summary&#45;functions&#45;and&#45;maps#80085334</title>
<path fill="none" stroke="black" d="M566.71,-1053.53C442.77,-1048.66 273.49,-1039.28 207.99,-1023 132.49,-1004.23 47.99,-1029.8 47.99,-952 47.99,-952 47.99,-952 47.99,-320 47.99,-287.87 70.53,-257.85 89.84,-238.01"/>
<polygon fill="black" stroke="black" points="92.37,-240.44 97.03,-230.93 87.45,-235.45 92.37,-240.44"/>
<text text-anchor="middle" x="93.49" y="-621.8" font-family="Times,serif" font-size="14.00">previousActivity</text>
</g>
<!-- http://purl.org/dj/kaggle/summary&#45;functions&#45;and&#45;maps#496894939 -->
<g id="node6" class="node">
<title>http://purl.org/dj/kaggle/summary&#45;functions&#45;and&#45;maps#496894939</title>
<ellipse fill="none" stroke="black" cx="693.99" cy="-408" rx="148.67" ry="18"/>
<text text-anchor="middle" x="693.99" y="-404.3" font-family="Times,serif" font-size="14.00">496894939 (reviews(0)$0: Movement)</text>
</g>
<!-- http://purl.org/dj/kaggle/summary&#45;functions&#45;and&#45;maps#497288161&#45;&gt;http://purl.org/dj/kaggle/summary&#45;functions&#45;and&#45;maps#496894939 -->
<g id="edge5" class="edge">
<title>http://purl.org/dj/kaggle/summary&#45;functions&#45;and&#45;maps#497288161&#45;&gt;http://purl.org/dj/kaggle/summary&#45;functions&#45;and&#45;maps#496894939</title>
<path fill="none" stroke="black" d="M737.97,-1041.1C764.39,-1022.77 799.99,-990.87 799.99,-952 799.99,-952 799.99,-952 799.99,-494 799.99,-464.46 774.62,-443.48 748.71,-429.75"/>
<polygon fill="black" stroke="black" points="750.07,-426.52 739.56,-425.2 746.95,-432.79 750.07,-426.52"/>
<text text-anchor="middle" x="845.49" y="-708.8" font-family="Times,serif" font-size="14.00">previousActivity</text>
</g>
<!-- http://purl.org/dj/kaggle/summary&#45;functions&#45;and&#45;maps#132776362 -->
<g id="node7" class="node">
<title>http://purl.org/dj/kaggle/summary&#45;functions&#45;and&#45;maps#132776362</title>
<ellipse fill="none" stroke="black" cx="316.99" cy="-321" rx="129.98" ry="18"/>
<text text-anchor="middle" x="316.99" y="-317.3" font-family="Times,serif" font-size="14.00">132776362 (pd(0)$0: Movement)</text>
</g>
<!-- http://purl.org/dj/kaggle/summary&#45;functions&#45;and&#45;maps#497288161&#45;&gt;http://purl.org/dj/kaggle/summary&#45;functions&#45;and&#45;maps#132776362 -->
<g id="edge6" class="edge">
<title>http://purl.org/dj/kaggle/summary&#45;functions&#45;and&#45;maps#497288161&#45;&gt;http://purl.org/dj/kaggle/summary&#45;functions&#45;and&#45;maps#132776362</title>
<path fill="none" stroke="black" d="M594.45,-1047.45C431.55,-1030.99 153.99,-996.43 153.99,-952 153.99,-952 153.99,-952 153.99,-407 153.99,-370.53 186.48,-349.68 222.44,-337.77"/>
<polygon fill="black" stroke="black" points="223.62,-341.07 232.15,-334.79 221.56,-334.38 223.62,-341.07"/>
<text text-anchor="middle" x="199.49" y="-665.3" font-family="Times,serif" font-size="14.00">previousActivity</text>
</g>
<!-- http://purl.org/dj/kaggle/summary&#45;functions&#45;and&#45;maps#497222624 -->
<g id="node8" class="node">
<title>http://purl.org/dj/kaggle/summary&#45;functions&#45;and&#45;maps#497222624</title>
<ellipse fill="none" stroke="black" cx="495.99" cy="-843" rx="148.67" ry="18"/>
<text text-anchor="middle" x="495.99" y="-839.3" font-family="Times,serif" font-size="14.00">497222624 (reviews(0)$5: Movement)</text>
</g>
<!-- http://purl.org/dj/kaggle/summary&#45;functions&#45;and&#45;maps#497288161&#45;&gt;http://purl.org/dj/kaggle/summary&#45;functions&#45;and&#45;maps#497222624 -->
<g id="edge7" class="edge">
<title>http://purl.org/dj/kaggle/summary&#45;functions&#45;and&#45;maps#497288161&#45;&gt;http://purl.org/dj/kaggle/summary&#45;functions&#45;and&#45;maps#497222624</title>
<path fill="none" stroke="black" d="M710.91,-1040.57C711.35,-1014.32 708.44,-964.38 682.99,-933 654.6,-897.99 609.16,-875.92 570.19,-862.52"/>
<polygon fill="black" stroke="black" points="571.03,-859.11 560.43,-859.3 568.83,-865.76 571.03,-859.11"/>
<text text-anchor="middle" x="714.49" y="-947.3" font-family="Times,serif" font-size="14.00">map</text>
</g>
<!-- http://purl.org/dj/kaggle/summary&#45;functions&#45;and&#45;maps#46465266 -->
<g id="node9" class="node">
<title>http://purl.org/dj/kaggle/summary&#45;functions&#45;and&#45;maps#46465266</title>
<ellipse fill="none" stroke="black" cx="952.99" cy="-897" rx="94.78" ry="18"/>
<text text-anchor="middle" x="952.99" y="-893.3" font-family="Times,serif" font-size="14.00">46465266 (p(0): Reuse)</text>
</g>
<!-- http://purl.org/dj/kaggle/summary&#45;functions&#45;and&#45;maps#497288161&#45;&gt;http://purl.org/dj/kaggle/summary&#45;functions&#45;and&#45;maps#46465266 -->
<g id="edge8" class="edge">
<title>http://purl.org/dj/kaggle/summary&#45;functions&#45;and&#45;maps#497288161&#45;&gt;http://purl.org/dj/kaggle/summary&#45;functions&#45;and&#45;maps#46465266</title>
<path fill="none" stroke="black" d="M769.85,-1042.48C784.79,-1037.38 800.42,-1030.93 813.99,-1023 838.77,-1008.53 895.63,-954.41 928.44,-922.32"/>
<polygon fill="black" stroke="black" points="931.15,-924.56 935.83,-915.06 926.25,-919.57 931.15,-924.56"/>
<text text-anchor="middle" x="870.49" y="-1001.3" font-family="Times,serif" font-size="14.00">map</text>
</g>
<!-- http://purl.org/dj/kaggle/summary&#45;functions&#45;and&#45;maps#1890584676 -->
<g id="node10" class="node">
<title>http://purl.org/dj/kaggle/summary&#45;functions&#45;and&#45;maps#1890584676</title>
<ellipse fill="none" stroke="black" cx="491.99" cy="-951" rx="181.97" ry="18"/>
<text text-anchor="middle" x="491.99" y="-947.3" font-family="Times,serif" font-size="14.00">1890584676 (review_points_mean(0)$0: Reuse)</text>
</g>
<!-- http://purl.org/dj/kaggle/summary&#45;functions&#45;and&#45;maps#497288161&#45;&gt;http://purl.org/dj/kaggle/summary&#45;functions&#45;and&#45;maps#1890584676 -->
<g id="edge9" class="edge">
<title>http://purl.org/dj/kaggle/summary&#45;functions&#45;and&#45;maps#497288161&#45;&gt;http://purl.org/dj/kaggle/summary&#45;functions&#45;and&#45;maps#1890584676</title>
<path fill="none" stroke="black" d="M654.52,-1042.25C638.25,-1036.91 620.63,-1030.39 604.99,-1023 576.14,-1009.37 545.63,-989.86 523.59,-974.74"/>
<polygon fill="black" stroke="black" points="525.5,-971.8 515.29,-968.97 521.5,-977.55 525.5,-971.8"/>
<text text-anchor="middle" x="650.49" y="-1001.3" font-family="Times,serif" font-size="14.00">previousActivity</text>
</g>
<!-- http://purl.org/dj/kaggle/summary&#45;functions&#45;and&#45;maps#80085334&#45;&gt;http://purl.org/dj/kaggle/summary&#45;functions&#45;and&#45;maps -->
<g id="edge13" class="edge">
<title>http://purl.org/dj/kaggle/summary&#45;functions&#45;and&#45;maps#80085334&#45;&gt;http://purl.org/dj/kaggle/summary&#45;functions&#45;and&#45;maps</title>
<path fill="none" stroke="black" d="M120.74,-194.79C127.82,-166.93 145.95,-112.5 183.99,-87 236.03,-52.12 623.58,-31.83 826.64,-23.49"/>
<polygon fill="black" stroke="black" points="826.92,-26.98 836.77,-23.08 826.63,-19.99 826.92,-26.98"/>
<text text-anchor="middle" x="210.49" y="-101.3" font-family="Times,serif" font-size="14.00">appearsIn</text>
</g>
<!-- http://purl.org/dj/python/lib/144966264 -->
<g id="node15" class="node">
<title>http://purl.org/dj/python/lib/144966264</title>
<ellipse fill="none" stroke="black" cx="354.99" cy="-105" rx="109.38" ry="18"/>
<text text-anchor="middle" x="354.99" y="-101.3" font-family="Times,serif" font-size="14.00">144966264 (pandas: Reuse)</text>
</g>
<!-- http://purl.org/dj/kaggle/summary&#45;functions&#45;and&#45;maps#80085334&#45;&gt;http://purl.org/dj/python/lib/144966264 -->
<g id="edge14" class="edge">
<title>http://purl.org/dj/kaggle/summary&#45;functions&#45;and&#45;maps#80085334&#45;&gt;http://purl.org/dj/python/lib/144966264</title>
<path fill="none" stroke="black" d="M133.46,-195.06C150.23,-178.79 177.72,-154.73 205.99,-141 224.79,-131.87 246.09,-125.05 266.59,-119.98"/>
<polygon fill="black" stroke="black" points="267.65,-123.33 276.58,-117.63 266.04,-116.51 267.65,-123.33"/>
<text text-anchor="middle" x="251.49" y="-155.3" font-family="Times,serif" font-size="14.00">previousActivity</text>
</g>
<!-- http://purl.org/dj/kaggle/summary&#45;functions&#45;and&#45;maps#496894939&#45;&gt;http://purl.org/dj/kaggle/summary&#45;functions&#45;and&#45;maps#132776362 -->
<g id="edge17" class="edge">
<title>http://purl.org/dj/kaggle/summary&#45;functions&#45;and&#45;maps#496894939&#45;&gt;http://purl.org/dj/kaggle/summary&#45;functions&#45;and&#45;maps#132776362</title>
<path fill="none" stroke="black" d="M627.02,-391.9C561.08,-377.03 460.53,-354.36 391.95,-338.9"/>
<polygon fill="black" stroke="black" points="392.6,-335.46 382.07,-336.67 391.06,-342.29 392.6,-335.46"/>
<text text-anchor="middle" x="553.49" y="-360.8" font-family="Times,serif" font-size="14.00">read_csv</text>
</g>
<!-- http://purl.org/dj/kaggle/summary&#45;functions&#45;and&#45;maps#29687986 -->
<g id="node17" class="node">
<title>http://purl.org/dj/kaggle/summary&#45;functions&#45;and&#45;maps#29687986</title>
<ellipse fill="none" stroke="black" cx="957.99" cy="-159" rx="94.78" ry="18"/>
<text text-anchor="middle" x="957.99" y="-155.3" font-family="Times,serif" font-size="14.00">29687986 (0(0): Reuse)</text>
</g>
<!-- http://purl.org/dj/kaggle/summary&#45;functions&#45;and&#45;maps#496894939&#45;&gt;http://purl.org/dj/kaggle/summary&#45;functions&#45;and&#45;maps#29687986 -->
<g id="edge18" class="edge">
<title>http://purl.org/dj/kaggle/summary&#45;functions&#45;and&#45;maps#496894939&#45;&gt;http://purl.org/dj/kaggle/summary&#45;functions&#45;and&#45;maps#29687986</title>
<path fill="none" stroke="black" d="M749.3,-391.24C767.8,-385.61 788.42,-378.93 806.99,-372 878.4,-345.35 892.72,-330.03 963.99,-303 988.43,-293.73 1004.59,-306.13 1019.99,-285 1043.5,-252.75 1011.08,-210.24 984.97,-184.04"/>
<polygon fill="black" stroke="black" points="987.1,-181.23 977.49,-176.78 982.23,-186.25 987.1,-181.23"/>
<text text-anchor="middle" x="1009.49" y="-317.3" font-family="Times,serif" font-size="14.00">previousActivity</text>
</g>
<!-- http://purl.org/dj/kaggle/summary&#45;functions&#45;and&#45;maps#3018526890 -->
<g id="node18" class="node">
<title>http://purl.org/dj/kaggle/summary&#45;functions&#45;and&#45;maps#3018526890</title>
<ellipse fill="none" stroke="black" cx="744.99" cy="-267" rx="273.75" ry="18"/>
<text text-anchor="middle" x="744.99" y="-263.3" font-family="Times,serif" font-size="14.00">3018526890 (../input/wine&#45;reviews/winemag&#45;data&#45;130k&#45;v2.csv(0): Reuse)</text>
</g>
<!-- http://purl.org/dj/kaggle/summary&#45;functions&#45;and&#45;maps#496894939&#45;&gt;http://purl.org/dj/kaggle/summary&#45;functions&#45;and&#45;maps#3018526890 -->
<g id="edge19" class="edge">
<title>http://purl.org/dj/kaggle/summary&#45;functions&#45;and&#45;maps#496894939&#45;&gt;http://purl.org/dj/kaggle/summary&#45;functions&#45;and&#45;maps#3018526890</title>
<path fill="none" stroke="black" d="M700.24,-389.96C708.96,-366.2 724.85,-322.88 735.16,-294.78"/>
<polygon fill="black" stroke="black" points="738.53,-295.78 738.68,-285.18 731.95,-293.37 738.53,-295.78"/>
<text text-anchor="middle" x="757.49" y="-360.8" font-family="Times,serif" font-size="14.00">previousActivity</text>
</g>
<!-- http://purl.org/dj/kaggle/summary&#45;functions&#45;and&#45;maps#132776362&#45;&gt;http://purl.org/dj/kaggle/summary&#45;functions&#45;and&#45;maps#80085334 -->
<g id="edge20" class="edge">
<title>http://purl.org/dj/kaggle/summary&#45;functions&#45;and&#45;maps#132776362&#45;&gt;http://purl.org/dj/kaggle/summary&#45;functions&#45;and&#45;maps#80085334</title>
<path fill="none" stroke="black" d="M229.88,-307.62C212.95,-302.49 196.1,-295.24 181.99,-285 166.63,-273.85 171.54,-263.25 158.99,-249 155.55,-245.09 151.65,-241.26 147.66,-237.63"/>
<polygon fill="black" stroke="black" points="149.8,-234.86 139.94,-230.98 145.23,-240.16 149.8,-234.86"/>
<text text-anchor="middle" x="210.49" y="-263.3" font-family="Times,serif" font-size="14.00">set_option</text>
</g>
<!-- http://purl.org/dj/kaggle/summary&#45;functions&#45;and&#45;maps#445383666 -->
<g id="node16" class="node">
<title>http://purl.org/dj/kaggle/summary&#45;functions&#45;and&#45;maps#445383666</title>
<ellipse fill="none" stroke="black" cx="642.99" cy="-159" rx="131.88" ry="18"/>
<text text-anchor="middle" x="642.99" y="-155.3" font-family="Times,serif" font-size="14.00">445383666 (max_rows(0): Reuse)</text>
</g>
<!-- http://purl.org/dj/kaggle/summary&#45;functions&#45;and&#45;maps#132776362&#45;&gt;http://purl.org/dj/kaggle/summary&#45;functions&#45;and&#45;maps#445383666 -->
<g id="edge21" class="edge">
<title>http://purl.org/dj/kaggle/summary&#45;functions&#45;and&#45;maps#132776362&#45;&gt;http://purl.org/dj/kaggle/summary&#45;functions&#45;and&#45;maps#445383666</title>
<path fill="none" stroke="black" d="M336.93,-302.92C342.53,-297.54 348.36,-291.33 352.99,-285 363.55,-270.56 357.44,-260.68 370.99,-249 418.37,-208.13 484.96,-185.94 540.4,-173.93"/>
<polygon fill="black" stroke="black" points="541.18,-177.34 550.25,-171.87 539.75,-170.49 541.18,-177.34"/>
<text text-anchor="middle" x="416.49" y="-263.3" font-family="Times,serif" font-size="14.00">previousActivity</text>
</g>
<!-- http://purl.org/dj/kaggle/summary&#45;functions&#45;and&#45;maps#30998711 -->
<g id="node19" class="node">
<title>http://purl.org/dj/kaggle/summary&#45;functions&#45;and&#45;maps#30998711</title>
<ellipse fill="none" stroke="black" cx="400.99" cy="-159" rx="94.78" ry="18"/>
<text text-anchor="middle" x="400.99" y="-155.3" font-family="Times,serif" font-size="14.00">30998711 (5(0): Reuse)</text>
</g>
<!-- http://purl.org/dj/kaggle/summary&#45;functions&#45;and&#45;maps#132776362&#45;&gt;http://purl.org/dj/kaggle/summary&#45;functions&#45;and&#45;maps#30998711 -->
<g id="edge22" class="edge">
<title>http://purl.org/dj/kaggle/summary&#45;functions&#45;and&#45;maps#132776362&#45;&gt;http://purl.org/dj/kaggle/summary&#45;functions&#45;and&#45;maps#30998711</title>
<path fill="none" stroke="black" d="M279.79,-303.61C272.66,-298.69 266.13,-292.54 261.99,-285 254.29,-270.97 254.31,-263.04 261.99,-249 280.13,-215.85 316.46,-193.24 347.43,-179.1"/>
<polygon fill="black" stroke="black" points="349.08,-182.2 356.84,-174.99 346.27,-175.79 349.08,-182.2"/>
<text text-anchor="middle" x="307.49" y="-263.3" font-family="Times,serif" font-size="14.00">previousActivity</text>
</g>
<!-- http://purl.org/dj/kaggle/summary&#45;functions&#45;and&#45;maps#497157087 -->
<g id="node20" class="node">
<title>http://purl.org/dj/kaggle/summary&#45;functions&#45;and&#45;maps#497157087</title>
<ellipse fill="none" stroke="black" cx="495.99" cy="-756" rx="148.67" ry="18"/>
<text text-anchor="middle" x="495.99" y="-752.3" font-family="Times,serif" font-size="14.00">497157087 (reviews(0)$4: Movement)</text>
</g>
<!-- http://purl.org/dj/kaggle/summary&#45;functions&#45;and&#45;maps#497222624&#45;&gt;http://purl.org/dj/kaggle/summary&#45;functions&#45;and&#45;maps#497157087 -->
<g id="edge23" class="edge">
<title>http://purl.org/dj/kaggle/summary&#45;functions&#45;and&#45;maps#497222624&#45;&gt;http://purl.org/dj/kaggle/summary&#45;functions&#45;and&#45;maps#497157087</title>
<path fill="none" stroke="black" d="M495.99,-824.8C495.99,-813.16 495.99,-797.55 495.99,-784.24"/>
<polygon fill="black" stroke="black" points="499.49,-784.18 495.99,-774.18 492.49,-784.18 499.49,-784.18"/>
<text text-anchor="middle" x="531.99" y="-795.8" font-family="Times,serif" font-size="14.00">value_counts</text>
</g>
<!-- http://purl.org/dj/kaggle/summary&#45;functions&#45;and&#45;maps#46465266&#45;&gt;http://purl.org/dj/kaggle/summary&#45;functions&#45;and&#45;maps -->
<g id="edge24" class="edge">
<title>http://purl.org/dj/kaggle/summary&#45;functions&#45;and&#45;maps#46465266&#45;&gt;http://purl.org/dj/kaggle/summary&#45;functions&#45;and&#45;maps</title>
<path fill="none" stroke="black" d="M963.3,-879.08C973.63,-860.51 987.99,-829.46 987.99,-800.5 987.99,-800.5 987.99,-800.5 987.99,-537.5 987.99,-412.43 1068.99,-393.07 1068.99,-268 1068.99,-268 1068.99,-268 1068.99,-104 1068.99,-72.38 1040.83,-51.41 1011.91,-38.21"/>
<polygon fill="black" stroke="black" points="1013.1,-34.92 1002.53,-34.2 1010.35,-41.35 1013.1,-34.92"/>
<text text-anchor="middle" x="1041.49" y="-491.3" font-family="Times,serif" font-size="14.00">previousActivity</text>
</g>
<!-- http://purl.org/dj/kaggle/summary&#45;functions&#45;and&#45;maps#1890584676&#45;&gt;http://purl.org/dj/kaggle/summary&#45;functions&#45;and&#45;maps#80085334 -->
<g id="edge25" class="edge">
<title>http://purl.org/dj/kaggle/summary&#45;functions&#45;and&#45;maps#1890584676&#45;&gt;http://purl.org/dj/kaggle/summary&#45;functions&#45;and&#45;maps#80085334</title>
<path fill="none" stroke="black" d="M379.28,-936.77C325.62,-923.52 272.99,-897.01 272.99,-844 272.99,-844 272.99,-844 272.99,-711.5 272.99,-655.43 237.05,-651.11 213.99,-600 198.91,-566.59 142.18,-323.35 123.21,-241.1"/>
<polygon fill="black" stroke="black" points="126.6,-240.2 120.94,-231.24 119.78,-241.77 126.6,-240.2"/>
<text text-anchor="middle" x="259.49" y="-578.3" font-family="Times,serif" font-size="14.00">previousActivity</text>
</g>
<!-- http://purl.org/dj/kaggle/summary&#45;functions&#45;and&#45;maps#1890584676&#45;&gt;http://purl.org/dj/kaggle/summary&#45;functions&#45;and&#45;maps#496894939 -->
<g id="edge26" class="edge">
<title>http://purl.org/dj/kaggle/summary&#45;functions&#45;and&#45;maps#1890584676&#45;&gt;http://purl.org/dj/kaggle/summary&#45;functions&#45;and&#45;maps#496894939</title>
<path fill="none" stroke="black" d="M579.57,-935.15C629.01,-921.19 680.99,-894.51 680.99,-844 680.99,-844 680.99,-844 680.99,-494 680.99,-474.53 684.36,-452.83 687.67,-436.24"/>
<polygon fill="black" stroke="black" points="691.17,-436.65 689.8,-426.14 684.32,-435.2 691.17,-436.65"/>
<text text-anchor="middle" x="726.49" y="-665.3" font-family="Times,serif" font-size="14.00">previousActivity</text>
</g>
<!-- http://purl.org/dj/kaggle/summary&#45;functions&#45;and&#45;maps#1890584676&#45;&gt;http://purl.org/dj/kaggle/summary&#45;functions&#45;and&#45;maps#132776362 -->
<g id="edge27" class="edge">
<title>http://purl.org/dj/kaggle/summary&#45;functions&#45;and&#45;maps#1890584676&#45;&gt;http://purl.org/dj/kaggle/summary&#45;functions&#45;and&#45;maps#132776362</title>
<path fill="none" stroke="black" d="M416.86,-934.57C370.18,-920.1 318.99,-893.05 318.99,-844 318.99,-844 318.99,-844 318.99,-407 318.99,-387.75 318.47,-366.05 317.96,-349.39"/>
<polygon fill="black" stroke="black" points="321.45,-349.14 317.63,-339.25 314.46,-349.36 321.45,-349.14"/>
<text text-anchor="middle" x="364.49" y="-621.8" font-family="Times,serif" font-size="14.00">previousActivity</text>
</g>
<!-- http://purl.org/dj/kaggle/summary&#45;functions&#45;and&#45;maps#1890584676&#45;&gt;http://purl.org/dj/kaggle/summary&#45;functions&#45;and&#45;maps#497222624 -->
<g id="edge28" class="edge">
<title>http://purl.org/dj/kaggle/summary&#45;functions&#45;and&#45;maps#1890584676&#45;&gt;http://purl.org/dj/kaggle/summary&#45;functions&#45;and&#45;maps#497222624</title>
<path fill="none" stroke="black" d="M492.63,-932.97C493.26,-916.38 494.22,-890.88 494.95,-871.43"/>
<polygon fill="black" stroke="black" points="498.46,-871.47 495.34,-861.34 491.46,-871.2 498.46,-871.47"/>
<text text-anchor="middle" x="510.49" y="-893.3" font-family="Times,serif" font-size="14.00">mean</text>
</g>
<!-- http://purl.org/dj/kaggle/summary&#45;functions&#45;and&#45;maps#199885359 -->
<g id="node11" class="node">
<title>http://purl.org/dj/kaggle/summary&#45;functions&#45;and&#45;maps#199885359</title>
<ellipse fill="none" stroke="black" cx="1507.99" cy="-1341" rx="136.48" ry="18"/>
<text text-anchor="middle" x="1507.99" y="-1337.3" font-family="Times,serif" font-size="14.00">199885359 (row(1)$0: Preparation)</text>
</g>
<!-- http://purl.org/dj/kaggle/summary&#45;functions&#45;and&#45;maps#1612318737 -->
<g id="node12" class="node">
<title>http://purl.org/dj/kaggle/summary&#45;functions&#45;and&#45;maps#1612318737</title>
<ellipse fill="none" stroke="black" cx="1492.99" cy="-1254" rx="172.77" ry="18"/>
<text text-anchor="middle" x="1492.99" y="-1250.3" font-family="Times,serif" font-size="14.00">1612318737 (review_points_mean(1): Reuse)</text>
</g>
<!-- http://purl.org/dj/kaggle/summary&#45;functions&#45;and&#45;maps#199885359&#45;&gt;http://purl.org/dj/kaggle/summary&#45;functions&#45;and&#45;maps#1612318737 -->
<g id="edge10" class="edge">
<title>http://purl.org/dj/kaggle/summary&#45;functions&#45;and&#45;maps#199885359&#45;&gt;http://purl.org/dj/kaggle/summary&#45;functions&#45;and&#45;maps#1612318737</title>
<path fill="none" stroke="black" d="M1504.95,-1322.8C1502.9,-1311.16 1500.15,-1295.55 1497.8,-1282.24"/>
<polygon fill="black" stroke="black" points="1501.21,-1281.41 1496.02,-1272.18 1494.31,-1282.63 1501.21,-1281.41"/>
<text text-anchor="middle" x="1512.99" y="-1293.8" font-family="Times,serif" font-size="14.00">Sub</text>
</g>
<!-- http://purl.org/dj/kaggle/summary&#45;functions&#45;and&#45;maps#129761755 -->
<g id="node13" class="node">
<title>http://purl.org/dj/kaggle/summary&#45;functions&#45;and&#45;maps#129761755</title>
<ellipse fill="none" stroke="black" cx="1791.99" cy="-1254" rx="108.58" ry="18"/>
<text text-anchor="middle" x="1791.99" y="-1250.3" font-family="Times,serif" font-size="14.00">129761755 (row(1): Reuse)</text>
</g>
<!-- http://purl.org/dj/kaggle/summary&#45;functions&#45;and&#45;maps#199885359&#45;&gt;http://purl.org/dj/kaggle/summary&#45;functions&#45;and&#45;maps#129761755 -->
<g id="edge11" class="edge">
<title>http://purl.org/dj/kaggle/summary&#45;functions&#45;and&#45;maps#199885359&#45;&gt;http://purl.org/dj/kaggle/summary&#45;functions&#45;and&#45;maps#129761755</title>
<path fill="none" stroke="black" d="M1560.41,-1324.31C1608.94,-1309.78 1681.07,-1288.2 1731.91,-1272.98"/>
<polygon fill="black" stroke="black" points="1733.2,-1276.25 1741.78,-1270.03 1731.2,-1269.54 1733.2,-1276.25"/>
<text text-anchor="middle" x="1678.99" y="-1293.8" font-family="Times,serif" font-size="14.00">Sub</text>
</g>
<!-- http://purl.org/dj/kaggle/summary&#45;functions&#45;and&#45;maps#937887325 -->
<g id="node14" class="node">
<title>http://purl.org/dj/kaggle/summary&#45;functions&#45;and&#45;maps#937887325</title>
<ellipse fill="none" stroke="black" cx="1791.99" cy="-1167" rx="147.57" ry="18"/>
<text text-anchor="middle" x="1791.99" y="-1163.3" font-family="Times,serif" font-size="14.00">937887325 (remean_points[0]: Reuse)</text>
</g>
<!-- http://purl.org/dj/kaggle/summary&#45;functions&#45;and&#45;maps#129761755&#45;&gt;http://purl.org/dj/kaggle/summary&#45;functions&#45;and&#45;maps#937887325 -->
<g id="edge12" class="edge">
<title>http://purl.org/dj/kaggle/summary&#45;functions&#45;and&#45;maps#129761755&#45;&gt;http://purl.org/dj/kaggle/summary&#45;functions&#45;and&#45;maps#937887325</title>
<path fill="none" stroke="black" d="M1791.99,-1235.8C1791.99,-1224.16 1791.99,-1208.55 1791.99,-1195.24"/>
<polygon fill="black" stroke="black" points="1795.49,-1195.18 1791.99,-1185.18 1788.49,-1195.18 1795.49,-1195.18"/>
<text text-anchor="middle" x="1820.99" y="-1206.8" font-family="Times,serif" font-size="14.00">_argToVar</text>
</g>
<!-- http://purl.org/dj/python/lib/144966264&#45;&gt;http://purl.org/dj/kaggle/summary&#45;functions&#45;and&#45;maps -->
<g id="edge15" class="edge">
<title>http://purl.org/dj/python/lib/144966264&#45;&gt;http://purl.org/dj/kaggle/summary&#45;functions&#45;and&#45;maps</title>
<path fill="none" stroke="black" d="M379.01,-87.39C397.1,-75.82 422.98,-61.23 447.99,-54 516.02,-34.33 699.19,-25.54 824.4,-21.73"/>
<polygon fill="black" stroke="black" points="824.55,-25.23 834.44,-21.44 824.34,-18.23 824.55,-25.23"/>
<text text-anchor="middle" x="480.99" y="-57.8" font-family="Times,serif" font-size="14.00">importedBy</text>
</g>
<!-- http://purl.org/dj/kaggle/summary&#45;functions&#45;and&#45;maps#445383666&#45;&gt;http://purl.org/dj/kaggle/summary&#45;functions&#45;and&#45;maps -->
<g id="edge16" class="edge">
<title>http://purl.org/dj/kaggle/summary&#45;functions&#45;and&#45;maps#445383666&#45;&gt;http://purl.org/dj/kaggle/summary&#45;functions&#45;and&#45;maps</title>
<path fill="none" stroke="black" d="M652.43,-140.83C662,-124.86 678.21,-101.42 697.99,-87 740.13,-56.29 795.3,-39.45 843.27,-30.21"/>
<polygon fill="black" stroke="black" points="844.19,-33.6 853.39,-28.36 842.92,-26.72 844.19,-33.6"/>
<text text-anchor="middle" x="743.49" y="-101.3" font-family="Times,serif" font-size="14.00">previousActivity</text>
</g>
<!-- http://purl.org/dj/kaggle/summary&#45;functions&#45;and&#45;maps#29687986&#45;&gt;http://purl.org/dj/kaggle/summary&#45;functions&#45;and&#45;maps -->
<g id="edge32" class="edge">
<title>http://purl.org/dj/kaggle/summary&#45;functions&#45;and&#45;maps#29687986&#45;&gt;http://purl.org/dj/kaggle/summary&#45;functions&#45;and&#45;maps</title>
<path fill="none" stroke="black" d="M957.01,-140.96C955.65,-117.4 953.19,-74.64 951.57,-46.53"/>
<polygon fill="black" stroke="black" points="955.05,-45.97 950.98,-36.18 948.06,-46.37 955.05,-45.97"/>
<text text-anchor="middle" x="1001.49" y="-101.3" font-family="Times,serif" font-size="14.00">previousActivity</text>
</g>
<!-- http://purl.org/dj/kaggle/summary&#45;functions&#45;and&#45;maps#3018526890&#45;&gt;http://purl.org/dj/kaggle/summary&#45;functions&#45;and&#45;maps -->
<g id="edge33" class="edge">
<title>http://purl.org/dj/kaggle/summary&#45;functions&#45;and&#45;maps#3018526890&#45;&gt;http://purl.org/dj/kaggle/summary&#45;functions&#45;and&#45;maps</title>
<path fill="none" stroke="black" d="M751.5,-248.94C763.07,-219.11 787.27,-158.94 800.99,-141 832.78,-99.44 881.39,-63.09 914.37,-41.12"/>
<polygon fill="black" stroke="black" points="916.38,-44 922.82,-35.58 912.54,-38.14 916.38,-44"/>
<text text-anchor="middle" x="827.49" y="-155.3" font-family="Times,serif" font-size="14.00">appearsIn</text>
</g>
<!-- http://purl.org/dj/kaggle/summary&#45;functions&#45;and&#45;maps#30998711&#45;&gt;http://purl.org/dj/kaggle/summary&#45;functions&#45;and&#45;maps -->
<g id="edge34" class="edge">
<title>http://purl.org/dj/kaggle/summary&#45;functions&#45;and&#45;maps#30998711&#45;&gt;http://purl.org/dj/kaggle/summary&#45;functions&#45;and&#45;maps</title>
<path fill="none" stroke="black" d="M433.97,-141.97C467.54,-126.18 521.41,-102.26 569.99,-87 661.32,-58.31 769.03,-40.46 846.41,-30.29"/>
<polygon fill="black" stroke="black" points="847.18,-33.72 856.65,-28.97 846.28,-26.78 847.18,-33.72"/>
<text text-anchor="middle" x="615.49" y="-101.3" font-family="Times,serif" font-size="14.00">previousActivity</text>
</g>
<!-- http://purl.org/dj/kaggle/summary&#45;functions&#45;and&#45;maps#497091550 -->
<g id="node25" class="node">
<title>http://purl.org/dj/kaggle/summary&#45;functions&#45;and&#45;maps#497091550</title>
<ellipse fill="none" stroke="black" cx="495.99" cy="-669" rx="148.67" ry="18"/>
<text text-anchor="middle" x="495.99" y="-665.3" font-family="Times,serif" font-size="14.00">497091550 (reviews(0)$3: Movement)</text>
</g>
<!-- http://purl.org/dj/kaggle/summary&#45;functions&#45;and&#45;maps#497157087&#45;&gt;http://purl.org/dj/kaggle/summary&#45;functions&#45;and&#45;maps#497091550 -->
<g id="edge38" class="edge">
<title>http://purl.org/dj/kaggle/summary&#45;functions&#45;and&#45;maps#497157087&#45;&gt;http://purl.org/dj/kaggle/summary&#45;functions&#45;and&#45;maps#497091550</title>
<path fill="none" stroke="black" d="M495.99,-737.8C495.99,-726.16 495.99,-710.55 495.99,-697.24"/>
<polygon fill="black" stroke="black" points="499.49,-697.18 495.99,-687.18 492.49,-697.18 499.49,-697.18"/>
<text text-anchor="middle" x="514.49" y="-708.8" font-family="Times,serif" font-size="14.00">unique</text>
</g>
<!-- http://purl.org/dj/kaggle/summary&#45;functions&#45;and&#45;maps#497419235 -->
<g id="node21" class="node">
<title>http://purl.org/dj/kaggle/summary&#45;functions&#45;and&#45;maps#497419235</title>
<ellipse fill="none" stroke="black" cx="1137.99" cy="-1254" rx="150.27" ry="18"/>
<text text-anchor="middle" x="1137.99" y="-1250.3" font-family="Times,serif" font-size="14.00">497419235 (reviews(0)$8: Preparation)</text>
</g>
<!-- http://purl.org/dj/kaggle/summary&#45;functions&#45;and&#45;maps#497419235&#45;&gt;http://purl.org/dj/kaggle/summary&#45;functions&#45;and&#45;maps#497353698 -->
<g id="edge29" class="edge">
<title>http://purl.org/dj/kaggle/summary&#45;functions&#45;and&#45;maps#497419235&#45;&gt;http://purl.org/dj/kaggle/summary&#45;functions&#45;and&#45;maps#497353698</title>
<path fill="none" stroke="black" d="M1116.94,-1235.8C1101.34,-1223.04 1079.88,-1205.5 1062.7,-1191.46"/>
<polygon fill="black" stroke="black" points="1064.61,-1188.5 1054.65,-1184.89 1060.18,-1193.92 1064.61,-1188.5"/>
<text text-anchor="middle" x="1138.49" y="-1206.8" font-family="Times,serif" font-size="14.00">previousActivity</text>
</g>
<!-- http://purl.org/dj/kaggle/summary&#45;functions&#45;and&#45;maps#29950131 -->
<g id="node22" class="node">
<title>http://purl.org/dj/kaggle/summary&#45;functions&#45;and&#45;maps#29950131</title>
<ellipse fill="none" stroke="black" cx="1210.99" cy="-1113" rx="94.78" ry="18"/>
<text text-anchor="middle" x="1210.99" y="-1109.3" font-family="Times,serif" font-size="14.00">29950131 (1(0): Reuse)</text>
</g>
<!-- http://purl.org/dj/kaggle/summary&#45;functions&#45;and&#45;maps#497419235&#45;&gt;http://purl.org/dj/kaggle/summary&#45;functions&#45;and&#45;maps#29950131 -->
<g id="edge30" class="edge">
<title>http://purl.org/dj/kaggle/summary&#45;functions&#45;and&#45;maps#497419235&#45;&gt;http://purl.org/dj/kaggle/summary&#45;functions&#45;and&#45;maps#29950131</title>
<path fill="none" stroke="black" d="M1169.46,-1236.3C1176.47,-1231.26 1183.22,-1225.14 1187.99,-1218 1203.26,-1195.14 1208.55,-1163.75 1210.3,-1141.46"/>
<polygon fill="black" stroke="black" points="1213.81,-1141.51 1210.91,-1131.32 1206.82,-1141.09 1213.81,-1141.51"/>
<text text-anchor="middle" x="1241.49" y="-1206.8" font-family="Times,serif" font-size="14.00">previousActivity</text>
</g>
<!-- http://purl.org/dj/kaggle/summary&#45;functions&#45;and&#45;maps#29950131&#45;&gt;http://purl.org/dj/kaggle/summary&#45;functions&#45;and&#45;maps -->
<g id="edge31" class="edge">
<title>http://purl.org/dj/kaggle/summary&#45;functions&#45;and&#45;maps#29950131&#45;&gt;http://purl.org/dj/kaggle/summary&#45;functions&#45;and&#45;maps</title>
<path fill="none" stroke="black" d="M1210.99,-1094.74C1210.99,-1073.76 1210.99,-1037.28 1210.99,-1006 1210.99,-1006 1210.99,-1006 1210.99,-104 1210.99,-68.03 1120.22,-44.92 1045.74,-32.02"/>
<polygon fill="black" stroke="black" points="1046.26,-28.56 1035.81,-30.34 1045.09,-35.46 1046.26,-28.56"/>
<text text-anchor="middle" x="1256.49" y="-578.3" font-family="Times,serif" font-size="14.00">previousActivity</text>
</g>
<!-- http://purl.org/dj/kaggle/summary&#45;functions&#45;and&#45;maps#82575712 -->
<g id="node23" class="node">
<title>http://purl.org/dj/kaggle/summary&#45;functions&#45;and&#45;maps#82575712</title>
<ellipse fill="none" stroke="black" cx="1433.99" cy="-213" rx="116.98" ry="18"/>
<text text-anchor="middle" x="1433.99" y="-209.3" font-family="Times,serif" font-size="14.00">82575712 (np(0): Movement)</text>
</g>
<!-- http://purl.org/dj/kaggle/summary&#45;functions&#45;and&#45;maps#82575712&#45;&gt;http://purl.org/dj/kaggle/summary&#45;functions&#45;and&#45;maps -->
<g id="edge35" class="edge">
<title>http://purl.org/dj/kaggle/summary&#45;functions&#45;and&#45;maps#82575712&#45;&gt;http://purl.org/dj/kaggle/summary&#45;functions&#45;and&#45;maps</title>
<path fill="none" stroke="black" d="M1464.91,-195.43C1471.38,-190.42 1477.34,-184.27 1480.99,-177 1499.13,-140.88 1496.31,-115.83 1467.99,-87 1427.12,-45.39 1398.45,-63.97 1340.99,-54 1251.34,-38.45 1148.86,-29.6 1071.31,-24.69"/>
<polygon fill="black" stroke="black" points="1071.21,-21.18 1061.01,-24.05 1070.78,-28.16 1071.21,-21.18"/>
<text text-anchor="middle" x="1536.49" y="-101.3" font-family="Times,serif" font-size="14.00">previousActivity</text>
</g>
<!-- http://purl.org/dj/python/lib/111084090 -->
<g id="node24" class="node">
<title>http://purl.org/dj/python/lib/111084090</title>
<ellipse fill="none" stroke="black" cx="1348.99" cy="-105" rx="109.68" ry="18"/>
<text text-anchor="middle" x="1348.99" y="-101.3" font-family="Times,serif" font-size="14.00">111084090 (numpy: Reuse)</text>
</g>
<!-- http://purl.org/dj/kaggle/summary&#45;functions&#45;and&#45;maps#82575712&#45;&gt;http://purl.org/dj/python/lib/111084090 -->
<g id="edge36" class="edge">
<title>http://purl.org/dj/kaggle/summary&#45;functions&#45;and&#45;maps#82575712&#45;&gt;http://purl.org/dj/python/lib/111084090</title>
<path fill="none" stroke="black" d="M1409.71,-195.33C1402.86,-189.96 1395.72,-183.65 1389.99,-177 1378.44,-163.6 1368.44,-146.47 1361.21,-132.39"/>
<polygon fill="black" stroke="black" points="1364.24,-130.62 1356.66,-123.22 1357.96,-133.73 1364.24,-130.62"/>
<text text-anchor="middle" x="1435.49" y="-155.3" font-family="Times,serif" font-size="14.00">previousActivity</text>
</g>
<!-- http://purl.org/dj/python/lib/111084090&#45;&gt;http://purl.org/dj/kaggle/summary&#45;functions&#45;and&#45;maps -->
<g id="edge37" class="edge">
<title>http://purl.org/dj/python/lib/111084090&#45;&gt;http://purl.org/dj/kaggle/summary&#45;functions&#45;and&#45;maps</title>
<path fill="none" stroke="black" d="M1315.58,-87.79C1291.06,-76.58 1256.66,-62.25 1224.99,-54 1173.47,-40.57 1115.12,-32.21 1065.47,-27.05"/>
<polygon fill="black" stroke="black" points="1065.63,-23.55 1055.33,-26.03 1064.93,-30.52 1065.63,-23.55"/>
<text text-anchor="middle" x="1303.99" y="-57.8" font-family="Times,serif" font-size="14.00">importedBy</text>
</g>
<!-- http://purl.org/dj/kaggle/summary&#45;functions&#45;and&#45;maps#497026013 -->
<g id="node27" class="node">
<title>http://purl.org/dj/kaggle/summary&#45;functions&#45;and&#45;maps#497026013</title>
<ellipse fill="none" stroke="black" cx="499.99" cy="-582" rx="148.67" ry="18"/>
<text text-anchor="middle" x="499.99" y="-578.3" font-family="Times,serif" font-size="14.00">497026013 (reviews(0)$2: Movement)</text>
</g>
<!-- http://purl.org/dj/kaggle/summary&#45;functions&#45;and&#45;maps#497091550&#45;&gt;http://purl.org/dj/kaggle/summary&#45;functions&#45;and&#45;maps#497026013 -->
<g id="edge40" class="edge">
<title>http://purl.org/dj/kaggle/summary&#45;functions&#45;and&#45;maps#497091550&#45;&gt;http://purl.org/dj/kaggle/summary&#45;functions&#45;and&#45;maps#497026013</title>
<path fill="none" stroke="black" d="M496.8,-650.8C497.35,-639.16 498.08,-623.55 498.71,-610.24"/>
<polygon fill="black" stroke="black" points="502.21,-610.33 499.18,-600.18 495.22,-610 502.21,-610.33"/>
<text text-anchor="middle" x="514.49" y="-621.8" font-family="Times,serif" font-size="14.00">mean</text>
</g>
<!-- http://purl.org/dj/kaggle/summary&#45;functions&#45;and&#45;maps#1890650213 -->
<g id="node26" class="node">
<title>http://purl.org/dj/kaggle/summary&#45;functions&#45;and&#45;maps#1890650213</title>
<ellipse fill="none" stroke="black" cx="1137.99" cy="-1341" rx="199.56" ry="18"/>
<text text-anchor="middle" x="1137.99" y="-1337.3" font-family="Times,serif" font-size="14.00">1890650213 (review_points_mean(0)$1: Movement)</text>
</g>
<!-- http://purl.org/dj/kaggle/summary&#45;functions&#45;and&#45;maps#1890650213&#45;&gt;http://purl.org/dj/kaggle/summary&#45;functions&#45;and&#45;maps#497419235 -->
<g id="edge39" class="edge">
<title>http://purl.org/dj/kaggle/summary&#45;functions&#45;and&#45;maps#1890650213&#45;&gt;http://purl.org/dj/kaggle/summary&#45;functions&#45;and&#45;maps#497419235</title>
<path fill="none" stroke="black" d="M1137.99,-1322.8C1137.99,-1311.16 1137.99,-1295.55 1137.99,-1282.24"/>
<polygon fill="black" stroke="black" points="1141.49,-1282.18 1137.99,-1272.18 1134.49,-1282.18 1141.49,-1282.18"/>
<text text-anchor="middle" x="1183.49" y="-1293.8" font-family="Times,serif" font-size="14.00">previousActivity</text>
</g>
<!-- http://purl.org/dj/kaggle/summary&#45;functions&#45;and&#45;maps#496960476 -->
<g id="node28" class="node">
<title>http://purl.org/dj/kaggle/summary&#45;functions&#45;and&#45;maps#496960476</title>
<ellipse fill="none" stroke="black" cx="501.99" cy="-495" rx="148.67" ry="18"/>
<text text-anchor="middle" x="501.99" y="-491.3" font-family="Times,serif" font-size="14.00">496960476 (reviews(0)$1: Movement)</text>
</g>
<!-- http://purl.org/dj/kaggle/summary&#45;functions&#45;and&#45;maps#497026013&#45;&gt;http://purl.org/dj/kaggle/summary&#45;functions&#45;and&#45;maps#496960476 -->
<g id="edge41" class="edge">
<title>http://purl.org/dj/kaggle/summary&#45;functions&#45;and&#45;maps#497026013&#45;&gt;http://purl.org/dj/kaggle/summary&#45;functions&#45;and&#45;maps#496960476</title>
<path fill="none" stroke="black" d="M500.39,-563.8C500.67,-552.16 501.04,-536.55 501.35,-523.24"/>
<polygon fill="black" stroke="black" points="504.85,-523.26 501.59,-513.18 497.85,-523.09 504.85,-523.26"/>
<text text-anchor="middle" x="524.99" y="-534.8" font-family="Times,serif" font-size="14.00">describe</text>
</g>
<!-- http://purl.org/dj/kaggle/summary&#45;functions&#45;and&#45;maps#496960476&#45;&gt;http://purl.org/dj/kaggle/summary&#45;functions&#45;and&#45;maps#496894939 -->
<g id="edge42" class="edge">
<title>http://purl.org/dj/kaggle/summary&#45;functions&#45;and&#45;maps#496960476&#45;&gt;http://purl.org/dj/kaggle/summary&#45;functions&#45;and&#45;maps#496894939</title>
<path fill="none" stroke="black" d="M539.46,-477.41C570.26,-463.78 614.04,-444.4 647.14,-429.74"/>
<polygon fill="black" stroke="black" points="648.88,-432.8 656.61,-425.55 646.05,-426.4 648.88,-432.8"/>
<text text-anchor="middle" x="632.99" y="-447.8" font-family="Times,serif" font-size="14.00">describe</text>
</g>
</g>
</svg>
