<?xml version="1.0" encoding="UTF-8" standalone="no"?>
<!DOCTYPE svg PUBLIC "-//W3C//DTD SVG 1.1//EN"
 "http://www.w3.org/Graphics/SVG/1.1/DTD/svg11.dtd">
<!-- Generated by graphviz version 2.44.1 (20200629.0846)
 -->
<!-- Pages: 1 -->
<svg width="7413pt" height="434pt"
 viewBox="0.00 0.00 7412.68 434.00" xmlns="http://www.w3.org/2000/svg" xmlns:xlink="http://www.w3.org/1999/xlink">
<g id="graph0" class="graph" transform="scale(1 1) rotate(0) translate(4 430)">
<polygon fill="white" stroke="transparent" points="-4,4 -4,-430 7408.68,-430 7408.68,4 -4,4"/>
<!-- http://purl.org/dj/python/lib/263589533 -->
<g id="node1" class="node">
<title>http://purl.org/dj/python/lib/263589533</title>
<ellipse fill="none" stroke="black" cx="355.69" cy="-105" rx="213.66" ry="18"/>
<text text-anchor="middle" x="355.69" y="-101.3" font-family="Times,serif" font-size="14.00">263589533 (tensorflow.python.keras.applications: Reuse)</text>
</g>
<!-- http://purl.org/dj/kaggle/tensorflow&#45;programming -->
<g id="node2" class="node">
<title>http://purl.org/dj/kaggle/tensorflow&#45;programming</title>
<ellipse fill="none" stroke="black" cx="2884.69" cy="-18" rx="99.38" ry="18"/>
<text text-anchor="middle" x="2884.69" y="-14.3" font-family="Times,serif" font-size="14.00">tensorflow&#45;programming</text>
</g>
<!-- http://purl.org/dj/python/lib/263589533&#45;&gt;http://purl.org/dj/kaggle/tensorflow&#45;programming -->
<g id="edge1" class="edge">
<title>http://purl.org/dj/python/lib/263589533&#45;&gt;http://purl.org/dj/kaggle/tensorflow&#45;programming</title>
<path fill="none" stroke="black" d="M452.07,-88.88C532.28,-77.01 649.61,-61.32 752.69,-54 1151.89,-25.67 2397.61,-20.23 2775.15,-19.22"/>
<polygon fill="black" stroke="black" points="2775.26,-22.72 2785.25,-19.19 2775.24,-15.72 2775.26,-22.72"/>
<text text-anchor="middle" x="776.19" y="-57.8" font-family="Times,serif" font-size="14.00">previous</text>
</g>
<!-- http://purl.org/dj/python/lib/111084090 -->
<g id="node3" class="node">
<title>http://purl.org/dj/python/lib/111084090</title>
<ellipse fill="none" stroke="black" cx="1086.69" cy="-105" rx="109.68" ry="18"/>
<text text-anchor="middle" x="1086.69" y="-101.3" font-family="Times,serif" font-size="14.00">111084090 (numpy: Reuse)</text>
</g>
<!-- http://purl.org/dj/python/lib/111084090&#45;&gt;http://purl.org/dj/kaggle/tensorflow&#45;programming -->
<g id="edge2" class="edge">
<title>http://purl.org/dj/python/lib/111084090&#45;&gt;http://purl.org/dj/kaggle/tensorflow&#45;programming</title>
<path fill="none" stroke="black" d="M1107.98,-87.28C1124.37,-75.49 1148.13,-60.67 1171.69,-54 1248.77,-32.16 2409.76,-22.29 2775.33,-19.71"/>
<polygon fill="black" stroke="black" points="2775.41,-23.21 2785.39,-19.64 2775.36,-16.21 2775.41,-23.21"/>
<text text-anchor="middle" x="1195.19" y="-57.8" font-family="Times,serif" font-size="14.00">previous</text>
</g>
<!-- http://purl.org/dj/kaggle/tensorflow&#45;programming#594805846 -->
<g id="node4" class="node">
<title>http://purl.org/dj/kaggle/tensorflow&#45;programming#594805846</title>
<ellipse fill="none" stroke="black" cx="731.69" cy="-105" rx="144.07" ry="18"/>
<text text-anchor="middle" x="731.69" y="-101.3" font-family="Times,serif" font-size="14.00">594805846 (sDG5tPtsbSA(0): Reuse)</text>
</g>
<!-- http://purl.org/dj/kaggle/tensorflow&#45;programming#594805846&#45;&gt;http://purl.org/dj/kaggle/tensorflow&#45;programming -->
<g id="edge3" class="edge">
<title>http://purl.org/dj/kaggle/tensorflow&#45;programming#594805846&#45;&gt;http://purl.org/dj/kaggle/tensorflow&#45;programming</title>
<path fill="none" stroke="black" d="M762.45,-87.23C785.87,-75.43 819.33,-60.6 850.69,-54 945.29,-34.09 2366.3,-22.63 2775.32,-19.73"/>
<polygon fill="black" stroke="black" points="2775.4,-23.23 2785.37,-19.66 2775.35,-16.23 2775.4,-23.23"/>
<text text-anchor="middle" x="874.19" y="-57.8" font-family="Times,serif" font-size="14.00">previous</text>
</g>
<!-- http://purl.org/dj/kaggle/tensorflow&#45;programming#30474421 -->
<g id="node5" class="node">
<title>http://purl.org/dj/kaggle/tensorflow&#45;programming#30474421</title>
<ellipse fill="none" stroke="black" cx="1191.69" cy="-159" rx="94.78" ry="18"/>
<text text-anchor="middle" x="1191.69" y="-155.3" font-family="Times,serif" font-size="14.00">30474421 (3(0): Reuse)</text>
</g>
<!-- http://purl.org/dj/kaggle/tensorflow&#45;programming#30474421&#45;&gt;http://purl.org/dj/kaggle/tensorflow&#45;programming -->
<g id="edge4" class="edge">
<title>http://purl.org/dj/kaggle/tensorflow&#45;programming#30474421&#45;&gt;http://purl.org/dj/kaggle/tensorflow&#45;programming</title>
<path fill="none" stroke="black" d="M1198.86,-140.9C1206.78,-124.27 1221.19,-99.72 1241.69,-87 1323.08,-36.48 1359.27,-62.52 1454.69,-54 1710.68,-31.13 2487.53,-22.36 2775.64,-19.84"/>
<polygon fill="black" stroke="black" points="2775.71,-23.34 2785.68,-19.76 2775.65,-16.34 2775.71,-23.34"/>
<text text-anchor="middle" x="1265.19" y="-101.3" font-family="Times,serif" font-size="14.00">previous</text>
</g>
<!-- http://purl.org/dj/kaggle/tensorflow&#45;programming#172818994 -->
<g id="node6" class="node">
<title>http://purl.org/dj/kaggle/tensorflow&#45;programming#172818994</title>
<ellipse fill="none" stroke="black" cx="1312.69" cy="-213" rx="133.78" ry="18"/>
<text text-anchor="middle" x="1312.69" y="-209.3" font-family="Times,serif" font-size="14.00">172818994 (join(0): Visualisation)</text>
</g>
<!-- http://purl.org/dj/kaggle/tensorflow&#45;programming#172818994&#45;&gt;http://purl.org/dj/kaggle/tensorflow&#45;programming -->
<g id="edge5" class="edge">
<title>http://purl.org/dj/kaggle/tensorflow&#45;programming#172818994&#45;&gt;http://purl.org/dj/kaggle/tensorflow&#45;programming</title>
<path fill="none" stroke="black" d="M1369.77,-196.63C1387.91,-191.14 1407.87,-184.44 1425.69,-177 1472.66,-157.38 1483.24,-149.53 1526.69,-123 1550.68,-108.35 1553.02,-98.47 1578.69,-87 1636.26,-61.28 1654.18,-62.32 1716.69,-54 1919.12,-27.05 2525.58,-20.84 2775.35,-19.42"/>
<polygon fill="black" stroke="black" points="2775.55,-22.92 2785.53,-19.36 2775.51,-15.92 2775.55,-22.92"/>
<text text-anchor="middle" x="1602.19" y="-101.3" font-family="Times,serif" font-size="14.00">previous</text>
</g>
<!-- http://purl.org/dj/python/lib/182125246 -->
<g id="node7" class="node">
<title>http://purl.org/dj/python/lib/182125246</title>
<ellipse fill="none" stroke="black" cx="1407.69" cy="-105" rx="110.48" ry="18"/>
<text text-anchor="middle" x="1407.69" y="-101.3" font-family="Times,serif" font-size="14.00">182125246 (os.path: Reuse)</text>
</g>
<!-- http://purl.org/dj/kaggle/tensorflow&#45;programming#172818994&#45;&gt;http://purl.org/dj/python/lib/182125246 -->
<g id="edge6" class="edge">
<title>http://purl.org/dj/kaggle/tensorflow&#45;programming#172818994&#45;&gt;http://purl.org/dj/python/lib/182125246</title>
<path fill="none" stroke="black" d="M1327.95,-194.97C1343.53,-177.58 1367.87,-150.42 1385.57,-130.68"/>
<polygon fill="black" stroke="black" points="1388.39,-132.77 1392.46,-122.99 1383.18,-128.1 1388.39,-132.77"/>
<text text-anchor="middle" x="1398.19" y="-155.3" font-family="Times,serif" font-size="14.00">previous</text>
</g>
<!-- http://purl.org/dj/python/lib/182125246&#45;&gt;http://purl.org/dj/kaggle/tensorflow&#45;programming -->
<g id="edge7" class="edge">
<title>http://purl.org/dj/python/lib/182125246&#45;&gt;http://purl.org/dj/kaggle/tensorflow&#45;programming</title>
<path fill="none" stroke="black" d="M1428.99,-87.31C1445.38,-75.54 1469.15,-60.73 1492.69,-54 1614.31,-19.23 2467.6,-17.92 2774.81,-18.6"/>
<polygon fill="black" stroke="black" points="2775.05,-22.1 2785.06,-18.62 2775.07,-15.1 2775.05,-22.1"/>
<text text-anchor="middle" x="1516.19" y="-57.8" font-family="Times,serif" font-size="14.00">previous</text>
</g>
<!-- http://purl.org/dj/kaggle/tensorflow&#45;programming#775816518 -->
<g id="node8" class="node">
<title>http://purl.org/dj/kaggle/tensorflow&#45;programming#775816518</title>
<ellipse fill="none" stroke="black" cx="1638.69" cy="-213" rx="174.37" ry="18"/>
<text text-anchor="middle" x="1638.69" y="-209.3" font-family="Times,serif" font-size="14.00">775816518 (YouTubeVideo(0): Visualisation)</text>
</g>
<!-- http://purl.org/dj/kaggle/tensorflow&#45;programming#775816518&#45;&gt;http://purl.org/dj/kaggle/tensorflow&#45;programming -->
<g id="edge8" class="edge">
<title>http://purl.org/dj/kaggle/tensorflow&#45;programming#775816518&#45;&gt;http://purl.org/dj/kaggle/tensorflow&#45;programming</title>
<path fill="none" stroke="black" d="M1633.56,-194.84C1626.72,-168.02 1618.4,-116.24 1645.69,-87 1683.97,-45.97 2481.03,-26.68 2776.1,-20.92"/>
<polygon fill="black" stroke="black" points="2776.45,-24.42 2786.38,-20.72 2776.31,-17.42 2776.45,-24.42"/>
<text text-anchor="middle" x="1669.19" y="-101.3" font-family="Times,serif" font-size="14.00">previous</text>
</g>
<!-- http://purl.org/dj/python/lib/773260784 -->
<g id="node9" class="node">
<title>http://purl.org/dj/python/lib/773260784</title>
<ellipse fill="none" stroke="black" cx="1841.69" cy="-105" rx="140.28" ry="18"/>
<text text-anchor="middle" x="1841.69" y="-101.3" font-family="Times,serif" font-size="14.00">773260784 (IPython.display: Reuse)</text>
</g>
<!-- http://purl.org/dj/kaggle/tensorflow&#45;programming#775816518&#45;&gt;http://purl.org/dj/python/lib/773260784 -->
<g id="edge9" class="edge">
<title>http://purl.org/dj/kaggle/tensorflow&#45;programming#775816518&#45;&gt;http://purl.org/dj/python/lib/773260784</title>
<path fill="none" stroke="black" d="M1670.85,-195.2C1706,-176.85 1762.39,-147.41 1800.68,-127.41"/>
<polygon fill="black" stroke="black" points="1802.76,-130.27 1810,-122.54 1799.52,-124.07 1802.76,-130.27"/>
<text text-anchor="middle" x="1794.19" y="-155.3" font-family="Times,serif" font-size="14.00">previous</text>
</g>
<!-- http://purl.org/dj/python/lib/773260784&#45;&gt;http://purl.org/dj/kaggle/tensorflow&#45;programming -->
<g id="edge10" class="edge">
<title>http://purl.org/dj/python/lib/773260784&#45;&gt;http://purl.org/dj/kaggle/tensorflow&#45;programming</title>
<path fill="none" stroke="black" d="M1871.86,-87.17C1894.46,-75.5 1926.54,-60.86 1956.69,-54 2034.53,-36.27 2547.5,-25.02 2775.63,-20.84"/>
<polygon fill="black" stroke="black" points="2776.01,-24.34 2785.94,-20.65 2775.88,-17.34 2776.01,-24.34"/>
<text text-anchor="middle" x="1980.19" y="-57.8" font-family="Times,serif" font-size="14.00">previous</text>
</g>
<!-- http://purl.org/dj/kaggle/tensorflow&#45;programming#1332283223 -->
<g id="node10" class="node">
<title>http://purl.org/dj/kaggle/tensorflow&#45;programming#1332283223</title>
<ellipse fill="none" stroke="black" cx="2627.69" cy="-213" rx="184.67" ry="18"/>
<text text-anchor="middle" x="2627.69" y="-209.3" font-family="Times,serif" font-size="14.00">1332283223 (preprocess_input(0): Visualisation)</text>
</g>
<!-- http://purl.org/dj/kaggle/tensorflow&#45;programming#1332283223&#45;&gt;http://purl.org/dj/kaggle/tensorflow&#45;programming -->
<g id="edge11" class="edge">
<title>http://purl.org/dj/kaggle/tensorflow&#45;programming#1332283223&#45;&gt;http://purl.org/dj/kaggle/tensorflow&#45;programming</title>
<path fill="none" stroke="black" d="M2639.81,-194.8C2658.76,-168.85 2697.63,-119.3 2739.69,-87 2765.38,-67.26 2775.39,-67.83 2804.69,-54 2815.4,-48.94 2827.02,-43.71 2838,-38.89"/>
<polygon fill="black" stroke="black" points="2839.68,-41.97 2847.45,-34.77 2836.88,-35.56 2839.68,-41.97"/>
<text text-anchor="middle" x="2763.19" y="-101.3" font-family="Times,serif" font-size="14.00">previous</text>
</g>
<!-- http://purl.org/dj/python/lib/2743996865 -->
<g id="node11" class="node">
<title>http://purl.org/dj/python/lib/2743996865</title>
<ellipse fill="none" stroke="black" cx="2416.69" cy="-105" rx="250.76" ry="18"/>
<text text-anchor="middle" x="2416.69" y="-101.3" font-family="Times,serif" font-size="14.00">2743996865 (tensorflow.python.keras.applications.resnet50: Reuse)</text>
</g>
<!-- http://purl.org/dj/kaggle/tensorflow&#45;programming#1332283223&#45;&gt;http://purl.org/dj/python/lib/2743996865 -->
<g id="edge12" class="edge">
<title>http://purl.org/dj/kaggle/tensorflow&#45;programming#1332283223&#45;&gt;http://purl.org/dj/python/lib/2743996865</title>
<path fill="none" stroke="black" d="M2594.25,-195.2C2557.71,-176.84 2499.06,-147.38 2459.25,-127.38"/>
<polygon fill="black" stroke="black" points="2460.82,-124.25 2450.31,-122.89 2457.68,-130.51 2460.82,-124.25"/>
<text text-anchor="middle" x="2577.19" y="-155.3" font-family="Times,serif" font-size="14.00">previous</text>
</g>
<!-- http://purl.org/dj/python/lib/2743996865&#45;&gt;http://purl.org/dj/kaggle/tensorflow&#45;programming -->
<g id="edge13" class="edge">
<title>http://purl.org/dj/python/lib/2743996865&#45;&gt;http://purl.org/dj/kaggle/tensorflow&#45;programming</title>
<path fill="none" stroke="black" d="M2484.66,-87.58C2529.39,-77.12 2589.32,-63.75 2642.69,-54 2692.96,-44.82 2749.47,-36.53 2795.24,-30.33"/>
<polygon fill="black" stroke="black" points="2795.98,-33.76 2805.43,-28.96 2795.05,-26.82 2795.98,-33.76"/>
<text text-anchor="middle" x="2666.19" y="-57.8" font-family="Times,serif" font-size="14.00">previous</text>
</g>
<!-- http://purl.org/dj/kaggle/tensorflow&#45;programming#362611576 -->
<g id="node12" class="node">
<title>http://purl.org/dj/kaggle/tensorflow&#45;programming#362611576</title>
<ellipse fill="none" stroke="black" cx="1976.69" cy="-213" rx="145.67" ry="18"/>
<text text-anchor="middle" x="1976.69" y="-209.3" font-family="Times,serif" font-size="14.00">362611576 (display(0): Visualisation)</text>
</g>
<!-- http://purl.org/dj/kaggle/tensorflow&#45;programming#362611576&#45;&gt;http://purl.org/dj/kaggle/tensorflow&#45;programming -->
<g id="edge14" class="edge">
<title>http://purl.org/dj/kaggle/tensorflow&#45;programming#362611576&#45;&gt;http://purl.org/dj/kaggle/tensorflow&#45;programming</title>
<path fill="none" stroke="black" d="M1982.1,-194.82C1991.42,-167.97 2013,-116.15 2048.69,-87 2084.6,-57.66 2102.09,-62.51 2147.69,-54 2264.8,-32.13 2600.84,-23.56 2775.82,-20.51"/>
<polygon fill="black" stroke="black" points="2775.88,-24.01 2785.82,-20.34 2775.76,-17.01 2775.88,-24.01"/>
<text text-anchor="middle" x="2072.19" y="-101.3" font-family="Times,serif" font-size="14.00">previous</text>
</g>
<!-- http://purl.org/dj/kaggle/tensorflow&#45;programming#362611576&#45;&gt;http://purl.org/dj/python/lib/773260784 -->
<g id="edge15" class="edge">
<title>http://purl.org/dj/kaggle/tensorflow&#45;programming#362611576&#45;&gt;http://purl.org/dj/python/lib/773260784</title>
<path fill="none" stroke="black" d="M1955,-194.97C1932.36,-177.2 1896.72,-149.21 1871.46,-129.38"/>
<polygon fill="black" stroke="black" points="1873.35,-126.41 1863.32,-122.99 1869.03,-131.92 1873.35,-126.41"/>
<text text-anchor="middle" x="1953.19" y="-155.3" font-family="Times,serif" font-size="14.00">previous</text>
</g>
<!-- http://purl.org/dj/kaggle/tensorflow&#45;programming#430048203 -->
<g id="node13" class="node">
<title>http://purl.org/dj/kaggle/tensorflow&#45;programming#430048203</title>
<ellipse fill="none" stroke="black" cx="2983.69" cy="-213" rx="153.27" ry="18"/>
<text text-anchor="middle" x="2983.69" y="-209.3" font-family="Times,serif" font-size="14.00">430048203 (img_path(0): Visualisation)</text>
</g>
<!-- http://purl.org/dj/kaggle/tensorflow&#45;programming#430048203&#45;&gt;http://purl.org/dj/kaggle/tensorflow&#45;programming -->
<g id="edge16" class="edge">
<title>http://purl.org/dj/kaggle/tensorflow&#45;programming#430048203&#45;&gt;http://purl.org/dj/kaggle/tensorflow&#45;programming</title>
<path fill="none" stroke="black" d="M2909.66,-197.23C2868.51,-184.83 2820.7,-162.51 2795.69,-123 2776.05,-91.98 2812.52,-60.53 2844.53,-40.46"/>
<polygon fill="black" stroke="black" points="2846.64,-43.28 2853.39,-35.11 2843.02,-37.28 2846.64,-43.28"/>
<text text-anchor="middle" x="2819.19" y="-101.3" font-family="Times,serif" font-size="14.00">previous</text>
</g>
<!-- http://purl.org/dj/kaggle/tensorflow&#45;programming#525206600 -->
<g id="node14" class="node">
<title>http://purl.org/dj/kaggle/tensorflow&#45;programming#525206600</title>
<ellipse fill="none" stroke="black" cx="2983.69" cy="-105" rx="131.88" ry="18"/>
<text text-anchor="middle" x="2983.69" y="-101.3" font-family="Times,serif" font-size="14.00">525206600 (enumerate(0): Reuse)</text>
</g>
<!-- http://purl.org/dj/kaggle/tensorflow&#45;programming#430048203&#45;&gt;http://purl.org/dj/kaggle/tensorflow&#45;programming#525206600 -->
<g id="edge17" class="edge">
<title>http://purl.org/dj/kaggle/tensorflow&#45;programming#430048203&#45;&gt;http://purl.org/dj/kaggle/tensorflow&#45;programming#525206600</title>
<path fill="none" stroke="black" d="M2983.69,-194.97C2983.69,-178.38 2983.69,-152.88 2983.69,-133.43"/>
<polygon fill="black" stroke="black" points="2987.19,-133.34 2983.69,-123.34 2980.19,-133.34 2987.19,-133.34"/>
<text text-anchor="middle" x="3007.19" y="-155.3" font-family="Times,serif" font-size="14.00">previous</text>
</g>
<!-- http://purl.org/dj/kaggle/tensorflow&#45;programming#525206600&#45;&gt;http://purl.org/dj/kaggle/tensorflow&#45;programming -->
<g id="edge18" class="edge">
<title>http://purl.org/dj/kaggle/tensorflow&#45;programming#525206600&#45;&gt;http://purl.org/dj/kaggle/tensorflow&#45;programming</title>
<path fill="none" stroke="black" d="M2963.65,-86.8C2948.79,-74.04 2928.37,-56.5 2912.01,-42.46"/>
<polygon fill="black" stroke="black" points="2914.22,-39.74 2904.35,-35.89 2909.66,-45.06 2914.22,-39.74"/>
<text text-anchor="middle" x="2964.19" y="-57.8" font-family="Times,serif" font-size="14.00">previous</text>
</g>
<!-- http://purl.org/dj/kaggle/tensorflow&#45;programming#1233524931 -->
<g id="node15" class="node">
<title>http://purl.org/dj/kaggle/tensorflow&#45;programming#1233524931</title>
<ellipse fill="none" stroke="black" cx="3500.69" cy="-159" rx="334.14" ry="18"/>
<text text-anchor="middle" x="3500.69" y="-155.3" font-family="Times,serif" font-size="14.00">1233524931 (../input/resnet50/resnet50_weights_tf_dim_ordering_tf_kernels.h5(0): Reuse)</text>
</g>
<!-- http://purl.org/dj/kaggle/tensorflow&#45;programming#1233524931&#45;&gt;http://purl.org/dj/kaggle/tensorflow&#45;programming -->
<g id="edge19" class="edge">
<title>http://purl.org/dj/kaggle/tensorflow&#45;programming#1233524931&#45;&gt;http://purl.org/dj/kaggle/tensorflow&#45;programming</title>
<path fill="none" stroke="black" d="M3337.52,-143.28C3297.9,-138.01 3261.75,-131.28 3243.69,-123 3201.61,-103.71 3207.87,-73.05 3165.69,-54 3134.52,-39.93 3054.25,-30.82 2987.45,-25.43"/>
<polygon fill="black" stroke="black" points="2987.52,-21.92 2977.28,-24.63 2986.97,-28.9 2987.52,-21.92"/>
<text text-anchor="middle" x="3267.19" y="-101.3" font-family="Times,serif" font-size="14.00">previous</text>
</g>
<!-- http://purl.org/dj/kaggle/tensorflow&#45;programming#1384320840 -->
<g id="node16" class="node">
<title>http://purl.org/dj/kaggle/tensorflow&#45;programming#1384320840</title>
<ellipse fill="none" stroke="black" cx="4908.69" cy="-105" rx="233.16" ry="18"/>
<text text-anchor="middle" x="4908.69" y="-101.3" font-family="Times,serif" font-size="14.00">1384320840 (../input/dog&#45;breed&#45;identification/train/(0): Reuse)</text>
</g>
<!-- http://purl.org/dj/kaggle/tensorflow&#45;programming#1384320840&#45;&gt;http://purl.org/dj/kaggle/tensorflow&#45;programming -->
<g id="edge20" class="edge">
<title>http://purl.org/dj/kaggle/tensorflow&#45;programming#1384320840&#45;&gt;http://purl.org/dj/kaggle/tensorflow&#45;programming</title>
<path fill="none" stroke="black" d="M4747.64,-91.96C4720.62,-90.15 4692.87,-88.42 4666.69,-87 4032.27,-52.62 3269.88,-29.66 2992.35,-21.91"/>
<polygon fill="black" stroke="black" points="2992.38,-18.41 2982.29,-21.63 2992.19,-25.4 2992.38,-18.41"/>
<text text-anchor="middle" x="4300.19" y="-57.8" font-family="Times,serif" font-size="14.00">previous</text>
</g>
<!-- http://purl.org/dj/kaggle/tensorflow&#45;programming#665584786 -->
<g id="node17" class="node">
<title>http://purl.org/dj/kaggle/tensorflow&#45;programming#665584786</title>
<ellipse fill="none" stroke="black" cx="4251.69" cy="-213" rx="165.97" ry="18"/>
<text text-anchor="middle" x="4251.69" y="-209.3" font-family="Times,serif" font-size="14.00">665584786 (img_paths(0)$0: Visualisation)</text>
</g>
<!-- http://purl.org/dj/kaggle/tensorflow&#45;programming#665584786&#45;&gt;http://purl.org/dj/kaggle/tensorflow&#45;programming#1384320840 -->
<g id="edge21" class="edge">
<title>http://purl.org/dj/kaggle/tensorflow&#45;programming#665584786&#45;&gt;http://purl.org/dj/kaggle/tensorflow&#45;programming#1384320840</title>
<path fill="none" stroke="black" d="M4339.95,-197.76C4459.89,-178.41 4674.09,-143.85 4802.62,-123.11"/>
<polygon fill="black" stroke="black" points="4803.55,-126.51 4812.87,-121.46 4802.44,-119.6 4803.55,-126.51"/>
<text text-anchor="middle" x="4701.19" y="-155.3" font-family="Times,serif" font-size="14.00">previous</text>
</g>
<!-- http://purl.org/dj/kaggle/tensorflow&#45;programming#427361219 -->
<g id="node18" class="node">
<title>http://purl.org/dj/kaggle/tensorflow&#45;programming#427361219</title>
<ellipse fill="none" stroke="black" cx="5285.69" cy="-105" rx="126.18" ry="18"/>
<text text-anchor="middle" x="5285.69" y="-101.3" font-family="Times,serif" font-size="14.00">427361219 (filename(0): Reuse)</text>
</g>
<!-- http://purl.org/dj/kaggle/tensorflow&#45;programming#665584786&#45;&gt;http://purl.org/dj/kaggle/tensorflow&#45;programming#427361219 -->
<g id="edge22" class="edge">
<title>http://purl.org/dj/kaggle/tensorflow&#45;programming#665584786&#45;&gt;http://purl.org/dj/kaggle/tensorflow&#45;programming#427361219</title>
<path fill="none" stroke="black" d="M4393.27,-203.6C4488.25,-197.48 4616.12,-188.3 4728.69,-177 4891.18,-160.69 5079.52,-135.33 5190.3,-119.74"/>
<polygon fill="black" stroke="black" points="5191.03,-123.17 5200.45,-118.31 5190.05,-116.24 5191.03,-123.17"/>
<text text-anchor="middle" x="5056.19" y="-155.3" font-family="Times,serif" font-size="14.00">previous</text>
</g>
<!-- http://purl.org/dj/kaggle/tensorflow&#45;programming#2176529304 -->
<g id="node19" class="node">
<title>http://purl.org/dj/kaggle/tensorflow&#45;programming#2176529304</title>
<ellipse fill="none" stroke="black" cx="3978.69" cy="-105" rx="678.58" ry="18"/>
<text text-anchor="middle" x="3978.69" y="-101.3" font-family="Times,serif" font-size="14.00">2176529304 ([&lt;_ast.Constant object at 0x12f8ab370&gt;, &lt;_ast.Constant object at 0x12f8ab0a0&gt;, &lt;_ast.Constant object at 0x12f8ab3a0&gt;, &lt;_ast.Constant object at 0x12f8ab430&gt;](0): Reuse)</text>
</g>
<!-- http://purl.org/dj/kaggle/tensorflow&#45;programming#665584786&#45;&gt;http://purl.org/dj/kaggle/tensorflow&#45;programming#2176529304 -->
<g id="edge23" class="edge">
<title>http://purl.org/dj/kaggle/tensorflow&#45;programming#665584786&#45;&gt;http://purl.org/dj/kaggle/tensorflow&#45;programming#2176529304</title>
<path fill="none" stroke="black" d="M4209.33,-195.55C4161.53,-177 4083.71,-146.78 4031.86,-126.65"/>
<polygon fill="black" stroke="black" points="4033.09,-123.37 4022.5,-123.01 4030.55,-129.89 4033.09,-123.37"/>
<text text-anchor="middle" x="4179.19" y="-155.3" font-family="Times,serif" font-size="14.00">previous</text>
</g>
<!-- http://purl.org/dj/kaggle/tensorflow&#45;programming#427361219&#45;&gt;http://purl.org/dj/kaggle/tensorflow&#45;programming -->
<g id="edge24" class="edge">
<title>http://purl.org/dj/kaggle/tensorflow&#45;programming#427361219&#45;&gt;http://purl.org/dj/kaggle/tensorflow&#45;programming</title>
<path fill="none" stroke="black" d="M5198.66,-91.93C5182.72,-90.04 5166.22,-88.29 5150.69,-87 4785.86,-56.77 4693.57,-65.77 4327.69,-54 3829.22,-37.96 3233.68,-25.71 2993.25,-21.05"/>
<polygon fill="black" stroke="black" points="2993.18,-17.54 2983.12,-20.85 2993.05,-24.54 2993.18,-17.54"/>
<text text-anchor="middle" x="4905.19" y="-57.8" font-family="Times,serif" font-size="14.00">previous</text>
</g>
<!-- http://purl.org/dj/kaggle/tensorflow&#45;programming#2176529304&#45;&gt;http://purl.org/dj/kaggle/tensorflow&#45;programming -->
<g id="edge25" class="edge">
<title>http://purl.org/dj/kaggle/tensorflow&#45;programming#2176529304&#45;&gt;http://purl.org/dj/kaggle/tensorflow&#45;programming</title>
<path fill="none" stroke="black" d="M3770.98,-87.86C3535.57,-69.57 3161.59,-40.51 2984.26,-26.74"/>
<polygon fill="black" stroke="black" points="2984.4,-23.24 2974.15,-25.95 2983.85,-30.22 2984.4,-23.24"/>
<text text-anchor="middle" x="3521.19" y="-57.8" font-family="Times,serif" font-size="14.00">previous</text>
</g>
<!-- http://purl.org/dj/kaggle/tensorflow&#45;programming#807404927 -->
<g id="node20" class="node">
<title>http://purl.org/dj/kaggle/tensorflow&#45;programming#807404927</title>
<ellipse fill="none" stroke="black" cx="5513.69" cy="-213" rx="167.87" ry="18"/>
<text text-anchor="middle" x="5513.69" y="-209.3" font-family="Times,serif" font-size="14.00">807404927 (img_to_array(0): Visualisation)</text>
</g>
<!-- http://purl.org/dj/kaggle/tensorflow&#45;programming#807404927&#45;&gt;http://purl.org/dj/kaggle/tensorflow&#45;programming -->
<g id="edge26" class="edge">
<title>http://purl.org/dj/kaggle/tensorflow&#45;programming#807404927&#45;&gt;http://purl.org/dj/kaggle/tensorflow&#45;programming</title>
<path fill="none" stroke="black" d="M5503.43,-194.8C5484.4,-163.53 5443.48,-99.43 5420.69,-87 5229.84,17.09 5149.88,-63.19 4932.69,-54 4192.54,-22.67 3300.81,-19.15 2994.32,-18.93"/>
<polygon fill="black" stroke="black" points="2994.11,-15.43 2984.11,-18.92 2994.1,-22.43 2994.11,-15.43"/>
<text text-anchor="middle" x="5478.19" y="-101.3" font-family="Times,serif" font-size="14.00">previous</text>
</g>
<!-- http://purl.org/dj/python/lib/2174292299 -->
<g id="node21" class="node">
<title>http://purl.org/dj/python/lib/2174292299</title>
<ellipse fill="none" stroke="black" cx="5761.69" cy="-105" rx="248.86" ry="18"/>
<text text-anchor="middle" x="5761.69" y="-101.3" font-family="Times,serif" font-size="14.00">2174292299 (tensorflow.python.keras.preprocessing.image: Reuse)</text>
</g>
<!-- http://purl.org/dj/kaggle/tensorflow&#45;programming#807404927&#45;&gt;http://purl.org/dj/python/lib/2174292299 -->
<g id="edge27" class="edge">
<title>http://purl.org/dj/kaggle/tensorflow&#45;programming#807404927&#45;&gt;http://purl.org/dj/python/lib/2174292299</title>
<path fill="none" stroke="black" d="M5552.44,-195.44C5595.77,-176.92 5666.02,-146.89 5713.02,-126.8"/>
<polygon fill="black" stroke="black" points="5714.57,-129.94 5722.39,-122.8 5711.82,-123.51 5714.57,-129.94"/>
<text text-anchor="middle" x="5698.19" y="-155.3" font-family="Times,serif" font-size="14.00">previous</text>
</g>
<!-- http://purl.org/dj/python/lib/2174292299&#45;&gt;http://purl.org/dj/kaggle/tensorflow&#45;programming -->
<g id="edge28" class="edge">
<title>http://purl.org/dj/python/lib/2174292299&#45;&gt;http://purl.org/dj/kaggle/tensorflow&#45;programming</title>
<path fill="none" stroke="black" d="M5684.72,-87.87C5624.36,-76.02 5538.07,-60.84 5461.69,-54 5214.08,-31.81 3454.21,-21.77 2994.38,-19.51"/>
<polygon fill="black" stroke="black" points="2994.11,-16.01 2984.09,-19.46 2994.07,-23.01 2994.11,-16.01"/>
<text text-anchor="middle" x="5602.19" y="-57.8" font-family="Times,serif" font-size="14.00">previous</text>
</g>
<!-- http://purl.org/dj/kaggle/tensorflow&#45;programming#326959860 -->
<g id="node22" class="node">
<title>http://purl.org/dj/kaggle/tensorflow&#45;programming#326959860</title>
<ellipse fill="none" stroke="black" cx="3500.69" cy="-321" rx="131.88" ry="18"/>
<text text-anchor="middle" x="3500.69" y="-317.3" font-family="Times,serif" font-size="14.00">326959860 (preds(0)$0: Analysis)</text>
</g>
<!-- http://purl.org/dj/kaggle/tensorflow&#45;programming#326959860&#45;&gt;http://purl.org/dj/kaggle/tensorflow&#45;programming#172818994 -->
<g id="edge29" class="edge">
<title>http://purl.org/dj/kaggle/tensorflow&#45;programming#326959860&#45;&gt;http://purl.org/dj/kaggle/tensorflow&#45;programming#172818994</title>
<path fill="none" stroke="black" d="M3370.68,-317.72C3046.77,-311.29 2177.83,-289.56 1455.69,-231 1442.68,-229.95 1429.03,-228.61 1415.55,-227.16"/>
<polygon fill="black" stroke="black" points="1415.6,-223.65 1405.28,-226.03 1414.83,-230.61 1415.6,-223.65"/>
<text text-anchor="middle" x="2321.19" y="-263.3" font-family="Times,serif" font-size="14.00">previous</text>
</g>
<!-- http://purl.org/dj/kaggle/tensorflow&#45;programming#326959860&#45;&gt;http://purl.org/dj/kaggle/tensorflow&#45;programming#1233524931 -->
<g id="edge30" class="edge">
<title>http://purl.org/dj/kaggle/tensorflow&#45;programming#326959860&#45;&gt;http://purl.org/dj/kaggle/tensorflow&#45;programming#1233524931</title>
<path fill="none" stroke="black" d="M3500.69,-302.88C3500.69,-275.35 3500.69,-221.01 3500.69,-187.85"/>
<polygon fill="black" stroke="black" points="3504.19,-187.48 3500.69,-177.48 3497.19,-187.48 3504.19,-187.48"/>
<text text-anchor="middle" x="3524.19" y="-263.3" font-family="Times,serif" font-size="14.00">previous</text>
</g>
<!-- http://purl.org/dj/kaggle/tensorflow&#45;programming#326959860&#45;&gt;http://purl.org/dj/kaggle/tensorflow&#45;programming#665584786 -->
<g id="edge31" class="edge">
<title>http://purl.org/dj/kaggle/tensorflow&#45;programming#326959860&#45;&gt;http://purl.org/dj/kaggle/tensorflow&#45;programming#665584786</title>
<path fill="none" stroke="black" d="M3588.67,-307.58C3727.16,-288.03 3995.54,-250.15 4144.88,-229.08"/>
<polygon fill="black" stroke="black" points="4145.56,-232.51 4154.98,-227.65 4144.59,-225.58 4145.56,-232.51"/>
<text text-anchor="middle" x="4011.19" y="-263.3" font-family="Times,serif" font-size="14.00">previous</text>
</g>
<!-- http://purl.org/dj/kaggle/tensorflow&#45;programming#44630251 -->
<g id="node23" class="node">
<title>http://purl.org/dj/kaggle/tensorflow&#45;programming#44630251</title>
<ellipse fill="none" stroke="black" cx="3273.69" cy="-213" rx="118.08" ry="18"/>
<text text-anchor="middle" x="3273.69" y="-209.3" font-family="Times,serif" font-size="14.00">44630251 (i(0): Visualisation)</text>
</g>
<!-- http://purl.org/dj/kaggle/tensorflow&#45;programming#44630251&#45;&gt;http://purl.org/dj/kaggle/tensorflow&#45;programming -->
<g id="edge32" class="edge">
<title>http://purl.org/dj/kaggle/tensorflow&#45;programming#44630251&#45;&gt;http://purl.org/dj/kaggle/tensorflow&#45;programming</title>
<path fill="none" stroke="black" d="M3203.2,-198.49C3189.64,-193.44 3176.35,-186.51 3165.69,-177 3132.88,-147.74 3158.03,-115.64 3124.69,-87 3085.66,-53.48 3031.17,-36.42 2983.97,-27.77"/>
<polygon fill="black" stroke="black" points="2984.47,-24.31 2974.02,-26.05 2983.28,-31.2 2984.47,-24.31"/>
<text text-anchor="middle" x="3168.19" y="-101.3" font-family="Times,serif" font-size="14.00">previous</text>
</g>
<!-- http://purl.org/dj/kaggle/tensorflow&#45;programming#44630251&#45;&gt;http://purl.org/dj/kaggle/tensorflow&#45;programming#525206600 -->
<g id="edge33" class="edge">
<title>http://purl.org/dj/kaggle/tensorflow&#45;programming#44630251&#45;&gt;http://purl.org/dj/kaggle/tensorflow&#45;programming#525206600</title>
<path fill="none" stroke="black" d="M3181.35,-201.66C3151.67,-196.42 3119.14,-188.61 3090.69,-177 3086.61,-175.34 3046.85,-148.71 3016.98,-128.55"/>
<polygon fill="black" stroke="black" points="3018.71,-125.5 3008.47,-122.8 3014.79,-131.3 3018.71,-125.5"/>
<text text-anchor="middle" x="3114.19" y="-155.3" font-family="Times,serif" font-size="14.00">previous</text>
</g>
<!-- http://purl.org/dj/kaggle/tensorflow&#45;programming#373490488 -->
<g id="node24" class="node">
<title>http://purl.org/dj/kaggle/tensorflow&#45;programming#373490488</title>
<ellipse fill="none" stroke="black" cx="154.69" cy="-213" rx="154.87" ry="18"/>
<text text-anchor="middle" x="154.69" y="-209.3" font-family="Times,serif" font-size="14.00">373490488 (ResNet50(0): Visualisation)</text>
</g>
<!-- http://purl.org/dj/kaggle/tensorflow&#45;programming#373490488&#45;&gt;http://purl.org/dj/python/lib/263589533 -->
<g id="edge34" class="edge">
<title>http://purl.org/dj/kaggle/tensorflow&#45;programming#373490488&#45;&gt;http://purl.org/dj/python/lib/263589533</title>
<path fill="none" stroke="black" d="M186.54,-195.2C221.13,-176.96 276.51,-147.75 314.42,-127.76"/>
<polygon fill="black" stroke="black" points="316.44,-130.65 323.65,-122.89 313.18,-124.46 316.44,-130.65"/>
<text text-anchor="middle" x="309.19" y="-155.3" font-family="Times,serif" font-size="14.00">previous</text>
</g>
<!-- http://purl.org/dj/kaggle/tensorflow&#45;programming#373490488&#45;&gt;http://purl.org/dj/kaggle/tensorflow&#45;programming -->
<g id="edge35" class="edge">
<title>http://purl.org/dj/kaggle/tensorflow&#45;programming#373490488&#45;&gt;http://purl.org/dj/kaggle/tensorflow&#45;programming</title>
<path fill="none" stroke="black" d="M132.98,-194.95C102.71,-169.2 54.81,-119.89 85.69,-87 165.08,-2.42 490.77,-58.56 606.69,-54 1439.97,-21.23 2445.82,-18.7 2774.8,-18.82"/>
<polygon fill="black" stroke="black" points="2775.28,-22.32 2785.28,-18.83 2775.28,-15.32 2775.28,-22.32"/>
<text text-anchor="middle" x="109.19" y="-101.3" font-family="Times,serif" font-size="14.00">previous</text>
</g>
<!-- http://purl.org/dj/kaggle/tensorflow&#45;programming#1875773524 -->
<g id="node25" class="node">
<title>http://purl.org/dj/kaggle/tensorflow&#45;programming#1875773524</title>
<ellipse fill="none" stroke="black" cx="3500.69" cy="-408" rx="200.36" ry="18"/>
<text text-anchor="middle" x="3500.69" y="-404.3" font-family="Times,serif" font-size="14.00">1875773524 (most_likely_labels(0)$0: Visualisation)</text>
</g>
<!-- http://purl.org/dj/kaggle/tensorflow&#45;programming#1875773524&#45;&gt;http://purl.org/dj/kaggle/tensorflow&#45;programming#30474421 -->
<g id="edge36" class="edge">
<title>http://purl.org/dj/kaggle/tensorflow&#45;programming#1875773524&#45;&gt;http://purl.org/dj/kaggle/tensorflow&#45;programming#30474421</title>
<path fill="none" stroke="black" d="M3339.11,-397.35C3027.59,-378.43 2322.29,-333.97 1729.69,-285 1480.49,-264.41 1337.79,-416.1 1169.69,-231 1158.41,-218.58 1164.26,-200.46 1172.75,-185.64"/>
<polygon fill="black" stroke="black" points="1175.88,-187.24 1178.25,-176.91 1169.96,-183.51 1175.88,-187.24"/>
<text text-anchor="middle" x="2461.19" y="-317.3" font-family="Times,serif" font-size="14.00">previous</text>
</g>
<!-- http://purl.org/dj/kaggle/tensorflow&#45;programming#1875773524&#45;&gt;http://purl.org/dj/kaggle/tensorflow&#45;programming#326959860 -->
<g id="edge37" class="edge">
<title>http://purl.org/dj/kaggle/tensorflow&#45;programming#1875773524&#45;&gt;http://purl.org/dj/kaggle/tensorflow&#45;programming#326959860</title>
<path fill="none" stroke="black" d="M3500.69,-389.8C3500.69,-378.16 3500.69,-362.55 3500.69,-349.24"/>
<polygon fill="black" stroke="black" points="3504.19,-349.18 3500.69,-339.18 3497.19,-349.18 3504.19,-349.18"/>
<text text-anchor="middle" x="3524.19" y="-360.8" font-family="Times,serif" font-size="14.00">previous</text>
</g>
<!-- http://purl.org/dj/kaggle/tensorflow&#45;programming#2254049455 -->
<g id="node26" class="node">
<title>http://purl.org/dj/kaggle/tensorflow&#45;programming#2254049455</title>
<ellipse fill="none" stroke="black" cx="5226.69" cy="-267" rx="254.55" ry="18"/>
<text text-anchor="middle" x="5226.69" y="-263.3" font-family="Times,serif" font-size="14.00">2254049455 (../input/resnet50/imagenet_class_index.json(0): Reuse)</text>
</g>
<!-- http://purl.org/dj/kaggle/tensorflow&#45;programming#1875773524&#45;&gt;http://purl.org/dj/kaggle/tensorflow&#45;programming#2254049455 -->
<g id="edge38" class="edge">
<title>http://purl.org/dj/kaggle/tensorflow&#45;programming#1875773524&#45;&gt;http://purl.org/dj/kaggle/tensorflow&#45;programming#2254049455</title>
<path fill="none" stroke="black" d="M3644.51,-395.42C3960.79,-369.95 4715.59,-309.16 5055.54,-281.78"/>
<polygon fill="black" stroke="black" points="5056.04,-285.25 5065.73,-280.96 5055.48,-278.28 5056.04,-285.25"/>
<text text-anchor="middle" x="4132.19" y="-360.8" font-family="Times,serif" font-size="14.00">previous</text>
</g>
<!-- http://purl.org/dj/kaggle/tensorflow&#45;programming#2254049455&#45;&gt;http://purl.org/dj/kaggle/tensorflow&#45;programming -->
<g id="edge39" class="edge">
<title>http://purl.org/dj/kaggle/tensorflow&#45;programming#2254049455&#45;&gt;http://purl.org/dj/kaggle/tensorflow&#45;programming</title>
<path fill="none" stroke="black" d="M5470.85,-261.82C5700.83,-256.9 6013.59,-247.27 6036.69,-231 6091.4,-192.47 6125.17,-136.99 6080.69,-87 5996.8,7.27 5924.61,-62.1 5798.69,-54 5237.8,-17.91 3455.55,-18.1 2994.45,-18.78"/>
<polygon fill="black" stroke="black" points="2994.13,-15.28 2984.13,-18.8 2994.14,-22.28 2994.13,-15.28"/>
<text text-anchor="middle" x="6124.19" y="-155.3" font-family="Times,serif" font-size="14.00">previous</text>
</g>
<!-- http://purl.org/dj/kaggle/tensorflow&#45;programming#204014181 -->
<g id="node27" class="node">
<title>http://purl.org/dj/kaggle/tensorflow&#45;programming#204014181</title>
<ellipse fill="none" stroke="black" cx="2282.69" cy="-213" rx="142.17" ry="18"/>
<text text-anchor="middle" x="2282.69" y="-209.3" font-family="Times,serif" font-size="14.00">204014181 (Image(0): Visualisation)</text>
</g>
<!-- http://purl.org/dj/kaggle/tensorflow&#45;programming#204014181&#45;&gt;http://purl.org/dj/kaggle/tensorflow&#45;programming -->
<g id="edge40" class="edge">
<title>http://purl.org/dj/kaggle/tensorflow&#45;programming#204014181&#45;&gt;http://purl.org/dj/kaggle/tensorflow&#45;programming</title>
<path fill="none" stroke="black" d="M2227.4,-196.37C2161.71,-175.2 2066.13,-134.54 2109.69,-87 2153.76,-38.89 2572.87,-24.66 2775.73,-20.58"/>
<polygon fill="black" stroke="black" points="2775.89,-24.08 2785.81,-20.38 2775.75,-17.08 2775.89,-24.08"/>
<text text-anchor="middle" x="2133.19" y="-101.3" font-family="Times,serif" font-size="14.00">previous</text>
</g>
<!-- http://purl.org/dj/kaggle/tensorflow&#45;programming#204014181&#45;&gt;http://purl.org/dj/python/lib/773260784 -->
<g id="edge41" class="edge">
<title>http://purl.org/dj/kaggle/tensorflow&#45;programming#204014181&#45;&gt;http://purl.org/dj/python/lib/773260784</title>
<path fill="none" stroke="black" d="M2179.99,-200.51C2127.85,-193.94 2070.41,-185.36 2045.69,-177 2014.4,-166.42 2011.4,-153.13 1980.69,-141 1962.75,-133.91 1942.94,-127.91 1924.03,-122.99"/>
<polygon fill="black" stroke="black" points="1924.79,-119.57 1914.23,-120.51 1923.07,-126.35 1924.79,-119.57"/>
<text text-anchor="middle" x="2069.19" y="-155.3" font-family="Times,serif" font-size="14.00">previous</text>
</g>
<!-- http://purl.org/dj/kaggle/tensorflow&#45;programming#1550583785 -->
<g id="node28" class="node">
<title>http://purl.org/dj/kaggle/tensorflow&#45;programming#1550583785</title>
<ellipse fill="none" stroke="black" cx="6446.69" cy="-213" rx="192.27" ry="18"/>
<text text-anchor="middle" x="6446.69" y="-209.3" font-family="Times,serif" font-size="14.00">1550583785 (decode_predictions(0): Visualisation)</text>
</g>
<!-- http://purl.org/dj/kaggle/tensorflow&#45;programming#1550583785&#45;&gt;http://purl.org/dj/kaggle/tensorflow&#45;programming -->
<g id="edge42" class="edge">
<title>http://purl.org/dj/kaggle/tensorflow&#45;programming#1550583785&#45;&gt;http://purl.org/dj/kaggle/tensorflow&#45;programming</title>
<path fill="none" stroke="black" d="M6519.44,-196.32C6596.25,-176.62 6700.16,-138.96 6652.69,-87 6589.35,-17.67 3607.65,-18.01 2994.29,-18.81"/>
<polygon fill="black" stroke="black" points="2994.12,-15.31 2984.13,-18.82 2994.13,-22.31 2994.12,-15.31"/>
<text text-anchor="middle" x="6687.19" y="-101.3" font-family="Times,serif" font-size="14.00">previous</text>
</g>
<!-- http://purl.org/dj/python/lib/2077954388 -->
<g id="node29" class="node">
<title>http://purl.org/dj/python/lib/2077954388</title>
<ellipse fill="none" stroke="black" cx="6396.69" cy="-105" rx="246.96" ry="18"/>
<text text-anchor="middle" x="6396.69" y="-101.3" font-family="Times,serif" font-size="14.00">2077954388 (learntools.deep_learning.decode_predictions: Reuse)</text>
</g>
<!-- http://purl.org/dj/kaggle/tensorflow&#45;programming#1550583785&#45;&gt;http://purl.org/dj/python/lib/2077954388 -->
<g id="edge43" class="edge">
<title>http://purl.org/dj/kaggle/tensorflow&#45;programming#1550583785&#45;&gt;http://purl.org/dj/python/lib/2077954388</title>
<path fill="none" stroke="black" d="M6438.65,-194.97C6430.72,-178.15 6418.47,-152.17 6409.24,-132.62"/>
<polygon fill="black" stroke="black" points="6412.3,-130.89 6404.87,-123.34 6405.97,-133.88 6412.3,-130.89"/>
<text text-anchor="middle" x="6452.19" y="-155.3" font-family="Times,serif" font-size="14.00">previous</text>
</g>
<!-- http://purl.org/dj/python/lib/2077954388&#45;&gt;http://purl.org/dj/kaggle/tensorflow&#45;programming -->
<g id="edge44" class="edge">
<title>http://purl.org/dj/python/lib/2077954388&#45;&gt;http://purl.org/dj/kaggle/tensorflow&#45;programming</title>
<path fill="none" stroke="black" d="M6329.3,-87.66C6276.88,-75.78 6202.14,-60.67 6135.69,-54 5818.28,-22.15 3526.36,-19.26 2994.65,-19.02"/>
<polygon fill="black" stroke="black" points="2994.3,-15.52 2984.29,-19.01 2994.29,-22.52 2994.3,-15.52"/>
<text text-anchor="middle" x="6260.19" y="-57.8" font-family="Times,serif" font-size="14.00">previous</text>
</g>
<!-- http://purl.org/dj/kaggle/tensorflow&#45;programming#67567898 -->
<g id="node30" class="node">
<title>http://purl.org/dj/kaggle/tensorflow&#45;programming#67567898</title>
<ellipse fill="none" stroke="black" cx="6848.69" cy="-105" rx="103.98" ry="18"/>
<text text-anchor="middle" x="6848.69" y="-101.3" font-family="Times,serif" font-size="14.00">67567898 (800(0): Reuse)</text>
</g>
<!-- http://purl.org/dj/kaggle/tensorflow&#45;programming#67567898&#45;&gt;http://purl.org/dj/kaggle/tensorflow&#45;programming -->
<g id="edge45" class="edge">
<title>http://purl.org/dj/kaggle/tensorflow&#45;programming#67567898&#45;&gt;http://purl.org/dj/kaggle/tensorflow&#45;programming</title>
<path fill="none" stroke="black" d="M6810.63,-88.14C6779.73,-76.15 6734.72,-60.65 6693.69,-54 6506.55,-23.68 3598,-19.6 2994,-19.07"/>
<polygon fill="black" stroke="black" points="2993.99,-15.57 2983.99,-19.06 2993.99,-22.57 2993.99,-15.57"/>
<text text-anchor="middle" x="6777.19" y="-57.8" font-family="Times,serif" font-size="14.00">previous</text>
</g>
<!-- http://purl.org/dj/kaggle/tensorflow&#45;programming#82575712 -->
<g id="node31" class="node">
<title>http://purl.org/dj/kaggle/tensorflow&#45;programming#82575712</title>
<ellipse fill="none" stroke="black" cx="955.69" cy="-213" rx="124.28" ry="18"/>
<text text-anchor="middle" x="955.69" y="-209.3" font-family="Times,serif" font-size="14.00">82575712 (np(0): Visualisation)</text>
</g>
<!-- http://purl.org/dj/kaggle/tensorflow&#45;programming#82575712&#45;&gt;http://purl.org/dj/kaggle/tensorflow&#45;programming -->
<g id="edge46" class="edge">
<title>http://purl.org/dj/kaggle/tensorflow&#45;programming#82575712&#45;&gt;http://purl.org/dj/kaggle/tensorflow&#45;programming</title>
<path fill="none" stroke="black" d="M942.22,-194.94C923.27,-168.73 893.85,-118.31 920.69,-87 983.02,-14.26 1038.25,-62.31 1133.69,-54 1454.57,-26.06 2443.64,-20.39 2775.12,-19.27"/>
<polygon fill="black" stroke="black" points="2775.22,-22.77 2785.21,-19.24 2775.2,-15.77 2775.22,-22.77"/>
<text text-anchor="middle" x="944.19" y="-101.3" font-family="Times,serif" font-size="14.00">previous</text>
</g>
<!-- http://purl.org/dj/kaggle/tensorflow&#45;programming#82575712&#45;&gt;http://purl.org/dj/python/lib/111084090 -->
<g id="edge47" class="edge">
<title>http://purl.org/dj/kaggle/tensorflow&#45;programming#82575712&#45;&gt;http://purl.org/dj/python/lib/111084090</title>
<path fill="none" stroke="black" d="M975.4,-195.1C992.49,-180.55 1017.99,-159.1 1040.69,-141 1045.63,-137.06 1050.93,-132.94 1056.1,-128.96"/>
<polygon fill="black" stroke="black" points="1058.24,-131.73 1064.07,-122.89 1053.99,-126.17 1058.24,-131.73"/>
<text text-anchor="middle" x="1064.19" y="-155.3" font-family="Times,serif" font-size="14.00">previous</text>
</g>
<!-- http://purl.org/dj/kaggle/tensorflow&#45;programming#789382574 -->
<g id="node32" class="node">
<title>http://purl.org/dj/kaggle/tensorflow&#45;programming#789382574</title>
<ellipse fill="none" stroke="black" cx="6848.69" cy="-213" rx="174.37" ry="18"/>
<text text-anchor="middle" x="6848.69" y="-209.3" font-family="Times,serif" font-size="14.00">789382574 (YouTubeVideo[1]: Visualisation)</text>
</g>
<!-- http://purl.org/dj/kaggle/tensorflow&#45;programming#789382574&#45;&gt;http://purl.org/dj/kaggle/tensorflow&#45;programming#67567898 -->
<g id="edge48" class="edge">
<title>http://purl.org/dj/kaggle/tensorflow&#45;programming#789382574&#45;&gt;http://purl.org/dj/kaggle/tensorflow&#45;programming#67567898</title>
<path fill="none" stroke="black" d="M6848.69,-194.97C6848.69,-178.38 6848.69,-152.88 6848.69,-133.43"/>
<polygon fill="black" stroke="black" points="6852.19,-133.34 6848.69,-123.34 6845.19,-133.34 6852.19,-133.34"/>
<text text-anchor="middle" x="6872.19" y="-155.3" font-family="Times,serif" font-size="14.00">previous</text>
</g>
<!-- http://purl.org/dj/kaggle/tensorflow&#45;programming#425395134 -->
<g id="node33" class="node">
<title>http://purl.org/dj/kaggle/tensorflow&#45;programming#425395134</title>
<ellipse fill="none" stroke="black" cx="5874.69" cy="-213" rx="153.27" ry="18"/>
<text text-anchor="middle" x="5874.69" y="-209.3" font-family="Times,serif" font-size="14.00">425395134 (load_img(0): Visualisation)</text>
</g>
<!-- http://purl.org/dj/kaggle/tensorflow&#45;programming#425395134&#45;&gt;http://purl.org/dj/kaggle/tensorflow&#45;programming -->
<g id="edge49" class="edge">
<title>http://purl.org/dj/kaggle/tensorflow&#45;programming#425395134&#45;&gt;http://purl.org/dj/kaggle/tensorflow&#45;programming</title>
<path fill="none" stroke="black" d="M5919.91,-195.63C5975.89,-173 6059.27,-130.07 6019.69,-87 5967.43,-30.13 3543.16,-20.65 2994.34,-19.23"/>
<polygon fill="black" stroke="black" points="2994.06,-15.73 2984.05,-19.2 2994.05,-22.73 2994.06,-15.73"/>
<text text-anchor="middle" x="6053.19" y="-101.3" font-family="Times,serif" font-size="14.00">previous</text>
</g>
<!-- http://purl.org/dj/kaggle/tensorflow&#45;programming#425395134&#45;&gt;http://purl.org/dj/python/lib/2174292299 -->
<g id="edge50" class="edge">
<title>http://purl.org/dj/kaggle/tensorflow&#45;programming#425395134&#45;&gt;http://purl.org/dj/python/lib/2174292299</title>
<path fill="none" stroke="black" d="M5856.53,-194.97C5837.75,-177.35 5808.27,-149.7 5787.16,-129.89"/>
<polygon fill="black" stroke="black" points="5789.48,-127.28 5779.8,-122.99 5784.7,-132.38 5789.48,-127.28"/>
<text text-anchor="middle" x="5859.19" y="-155.3" font-family="Times,serif" font-size="14.00">previous</text>
</g>
<!-- http://purl.org/dj/kaggle/tensorflow&#45;programming#66912538 -->
<g id="node34" class="node">
<title>http://purl.org/dj/kaggle/tensorflow&#45;programming#66912538</title>
<ellipse fill="none" stroke="black" cx="7074.69" cy="-105" rx="103.98" ry="18"/>
<text text-anchor="middle" x="7074.69" y="-101.3" font-family="Times,serif" font-size="14.00">66912538 (224(0): Reuse)</text>
</g>
<!-- http://purl.org/dj/kaggle/tensorflow&#45;programming#66912538&#45;&gt;http://purl.org/dj/kaggle/tensorflow&#45;programming -->
<g id="edge51" class="edge">
<title>http://purl.org/dj/kaggle/tensorflow&#45;programming#66912538&#45;&gt;http://purl.org/dj/kaggle/tensorflow&#45;programming</title>
<path fill="none" stroke="black" d="M7016.11,-90.1C6961.7,-77.92 6878.24,-61.08 6804.69,-54 6417.12,-16.67 3590.13,-18.11 2994.62,-18.84"/>
<polygon fill="black" stroke="black" points="2994.32,-15.34 2984.32,-18.85 2994.32,-22.34 2994.32,-15.34"/>
<text text-anchor="middle" x="6932.19" y="-57.8" font-family="Times,serif" font-size="14.00">previous</text>
</g>
<!-- http://purl.org/dj/kaggle/tensorflow&#45;programming#67633435 -->
<g id="node35" class="node">
<title>http://purl.org/dj/kaggle/tensorflow&#45;programming#67633435</title>
<ellipse fill="none" stroke="black" cx="7300.69" cy="-105" rx="103.98" ry="18"/>
<text text-anchor="middle" x="7300.69" y="-101.3" font-family="Times,serif" font-size="14.00">67633435 (450(0): Reuse)</text>
</g>
<!-- http://purl.org/dj/kaggle/tensorflow&#45;programming#67633435&#45;&gt;http://purl.org/dj/kaggle/tensorflow&#45;programming -->
<g id="edge52" class="edge">
<title>http://purl.org/dj/kaggle/tensorflow&#45;programming#67633435&#45;&gt;http://purl.org/dj/kaggle/tensorflow&#45;programming</title>
<path fill="none" stroke="black" d="M7233.06,-91.25C7164.48,-78.99 7055.14,-61.28 6959.69,-54 6555.13,-23.13 3603.65,-19.48 2994.49,-19.06"/>
<polygon fill="black" stroke="black" points="2994.4,-15.56 2984.39,-19.05 2994.39,-22.56 2994.4,-15.56"/>
<text text-anchor="middle" x="7114.19" y="-57.8" font-family="Times,serif" font-size="14.00">previous</text>
</g>
</g>
</svg>
