<?xml version="1.0" encoding="UTF-8" standalone="no"?>
<!DOCTYPE svg PUBLIC "-//W3C//DTD SVG 1.1//EN"
 "http://www.w3.org/Graphics/SVG/1.1/DTD/svg11.dtd">
<!-- Generated by graphviz version 2.47.1 (20210417.1919)
 -->
<!-- Pages: 1 -->
<svg width="2245pt" height="305pt"
 viewBox="0.00 0.00 2245.48 305.00" xmlns="http://www.w3.org/2000/svg" xmlns:xlink="http://www.w3.org/1999/xlink">
<g id="graph0" class="graph" transform="scale(1 1) rotate(0) translate(4 301)">
<polygon fill="white" stroke="transparent" points="-4,4 -4,-301 2241.48,-301 2241.48,4 -4,4"/>
<!-- http://purl.org/dj/kaggle/the&#45;importance&#45;of&#45;cleaning&#45;text/activity/&#45;8069964345651768055 -->
<g id="node1" class="node">
<title>http://purl.org/dj/kaggle/the&#45;importance&#45;of&#45;cleaning&#45;text/activity/&#45;8069964345651768055</title>
<ellipse fill="none" stroke="black" cx="1058.48" cy="-279" rx="151.37" ry="18"/>
<text text-anchor="middle" x="1058.48" y="-275.3" font-family="Times,serif" font-size="14.00">&#45;8069964345651768055 (Visualisation)</text>
</g>
<!-- http://purl.org/dj/kaggle/the&#45;importance&#45;of&#45;cleaning&#45;text/activity/7358869146064680331 -->
<g id="node2" class="node">
<title>http://purl.org/dj/kaggle/the&#45;importance&#45;of&#45;cleaning&#45;text/activity/7358869146064680331</title>
<ellipse fill="none" stroke="black" cx="2030.48" cy="-192" rx="142.97" ry="18"/>
<text text-anchor="middle" x="2030.48" y="-188.3" font-family="Times,serif" font-size="14.00">7358869146064680331 (Preparation)</text>
</g>
<!-- http://purl.org/dj/kaggle/the&#45;importance&#45;of&#45;cleaning&#45;text/activity/&#45;8069964345651768055&#45;&gt;http://purl.org/dj/kaggle/the&#45;importance&#45;of&#45;cleaning&#45;text/activity/7358869146064680331 -->
<g id="edge1" class="edge">
<title>http://purl.org/dj/kaggle/the&#45;importance&#45;of&#45;cleaning&#45;text/activity/&#45;8069964345651768055&#45;&gt;http://purl.org/dj/kaggle/the&#45;importance&#45;of&#45;cleaning&#45;text/activity/7358869146064680331</title>
<path fill="none" stroke="black" d="M1121.7,-262.58C1172.82,-250.83 1246.83,-235.45 1312.48,-228 1562.55,-199.6 1627.44,-228 1878.48,-210 1892.68,-208.98 1907.6,-207.64 1922.32,-206.17"/>
<polygon fill="black" stroke="black" points="1922.87,-209.63 1932.46,-205.12 1922.16,-202.66 1922.87,-209.63"/>
<text text-anchor="middle" x="1335.98" y="-231.8" font-family="Times,serif" font-size="14.00">previous</text>
</g>
<!-- http://purl.org/dj/kaggle/the&#45;importance&#45;of&#45;cleaning&#45;text/activity/7391220493341398345 -->
<g id="node3" class="node">
<title>http://purl.org/dj/kaggle/the&#45;importance&#45;of&#45;cleaning&#45;text/activity/7391220493341398345</title>
<ellipse fill="none" stroke="black" cx="195.48" cy="-192" rx="142.97" ry="18"/>
<text text-anchor="middle" x="195.48" y="-188.3" font-family="Times,serif" font-size="14.00">7391220493341398345 (Preparation)</text>
</g>
<!-- http://purl.org/dj/kaggle/the&#45;importance&#45;of&#45;cleaning&#45;text/activity/&#45;8069964345651768055&#45;&gt;http://purl.org/dj/kaggle/the&#45;importance&#45;of&#45;cleaning&#45;text/activity/7391220493341398345 -->
<g id="edge2" class="edge">
<title>http://purl.org/dj/kaggle/the&#45;importance&#45;of&#45;cleaning&#45;text/activity/&#45;8069964345651768055&#45;&gt;http://purl.org/dj/kaggle/the&#45;importance&#45;of&#45;cleaning&#45;text/activity/7391220493341398345</title>
<path fill="none" stroke="black" d="M954.21,-265.91C935.35,-264.03 915.84,-262.29 897.48,-261 840.03,-256.97 433.55,-262.83 379.48,-243 369.38,-239.3 370.22,-232.57 360.48,-228 341.91,-219.29 321.15,-212.72 300.79,-207.78"/>
<polygon fill="black" stroke="black" points="301.37,-204.33 290.84,-205.49 299.79,-211.15 301.37,-204.33"/>
<text text-anchor="middle" x="402.98" y="-231.8" font-family="Times,serif" font-size="14.00">previous</text>
</g>
<!-- http://purl.org/dj/kaggle/the&#45;importance&#45;of&#45;cleaning&#45;text/activity/3603085436554278066 -->
<g id="node4" class="node">
<title>http://purl.org/dj/kaggle/the&#45;importance&#45;of&#45;cleaning&#45;text/activity/3603085436554278066</title>
<ellipse fill="none" stroke="black" cx="499.48" cy="-192" rx="142.97" ry="18"/>
<text text-anchor="middle" x="499.48" y="-188.3" font-family="Times,serif" font-size="14.00">3603085436554278066 (Preparation)</text>
</g>
<!-- http://purl.org/dj/kaggle/the&#45;importance&#45;of&#45;cleaning&#45;text/activity/&#45;8069964345651768055&#45;&gt;http://purl.org/dj/kaggle/the&#45;importance&#45;of&#45;cleaning&#45;text/activity/3603085436554278066 -->
<g id="edge3" class="edge">
<title>http://purl.org/dj/kaggle/the&#45;importance&#45;of&#45;cleaning&#45;text/activity/&#45;8069964345651768055&#45;&gt;http://purl.org/dj/kaggle/the&#45;importance&#45;of&#45;cleaning&#45;text/activity/3603085436554278066</title>
<path fill="none" stroke="black" d="M953.84,-265.93C902.43,-259.69 839.62,-251.58 783.48,-243 745.99,-237.27 736.82,-234.6 699.48,-228 663.62,-221.66 624.13,-214.74 589.79,-208.74"/>
<polygon fill="black" stroke="black" points="590.23,-205.26 579.77,-206.99 589.02,-212.16 590.23,-205.26"/>
<text text-anchor="middle" x="806.98" y="-231.8" font-family="Times,serif" font-size="14.00">previous</text>
</g>
<!-- http://purl.org/dj/kaggle/the&#45;importance&#45;of&#45;cleaning&#45;text/activity/8321538948798833627 -->
<g id="node5" class="node">
<title>http://purl.org/dj/kaggle/the&#45;importance&#45;of&#45;cleaning&#45;text/activity/8321538948798833627</title>
<ellipse fill="none" stroke="black" cx="1115.48" cy="-105" rx="124.28" ry="18"/>
<text text-anchor="middle" x="1115.48" y="-101.3" font-family="Times,serif" font-size="14.00">8321538948798833627 (Reuse)</text>
</g>
<!-- http://purl.org/dj/kaggle/the&#45;importance&#45;of&#45;cleaning&#45;text/activity/7358869146064680331&#45;&gt;http://purl.org/dj/kaggle/the&#45;importance&#45;of&#45;cleaning&#45;text/activity/8321538948798833627 -->
<g id="edge4" class="edge">
<title>http://purl.org/dj/kaggle/the&#45;importance&#45;of&#45;cleaning&#45;text/activity/7358869146064680331&#45;&gt;http://purl.org/dj/kaggle/the&#45;importance&#45;of&#45;cleaning&#45;text/activity/8321538948798833627</title>
<path fill="none" stroke="black" d="M1928.72,-179.3C1911.94,-177.47 1894.72,-175.63 1878.48,-174 1649.04,-150.91 1380.38,-127.91 1230.88,-115.46"/>
<polygon fill="black" stroke="black" points="1231.02,-111.96 1220.77,-114.62 1230.44,-118.94 1231.02,-111.96"/>
<text text-anchor="middle" x="1712.98" y="-144.8" font-family="Times,serif" font-size="14.00">previous</text>
</g>
<!-- http://purl.org/dj/kaggle/the&#45;importance&#45;of&#45;cleaning&#45;text/activity/7391220493341398345&#45;&gt;http://purl.org/dj/kaggle/the&#45;importance&#45;of&#45;cleaning&#45;text/activity/8321538948798833627 -->
<g id="edge5" class="edge">
<title>http://purl.org/dj/kaggle/the&#45;importance&#45;of&#45;cleaning&#45;text/activity/7391220493341398345&#45;&gt;http://purl.org/dj/kaggle/the&#45;importance&#45;of&#45;cleaning&#45;text/activity/8321538948798833627</title>
<path fill="none" stroke="black" d="M297.24,-179.29C314.01,-177.45 331.23,-175.63 347.48,-174 578.74,-150.83 849.6,-127.81 999.95,-115.39"/>
<polygon fill="black" stroke="black" points="1000.44,-118.86 1010.12,-114.55 999.87,-111.89 1000.44,-118.86"/>
<text text-anchor="middle" x="707.98" y="-144.8" font-family="Times,serif" font-size="14.00">previous</text>
</g>
<!-- http://purl.org/dj/kaggle/the&#45;importance&#45;of&#45;cleaning&#45;text -->
<g id="node6" class="node">
<title>http://purl.org/dj/kaggle/the&#45;importance&#45;of&#45;cleaning&#45;text</title>
<ellipse fill="none" stroke="black" cx="266.48" cy="-18" rx="266.45" ry="18"/>
<text text-anchor="middle" x="266.48" y="-14.3" font-family="Times,serif" font-size="14.00">the&#45;importance&#45;of&#45;cleaning&#45;text (the&#45;importance&#45;of&#45;cleaning&#45;text.ipynb)</text>
</g>
<!-- http://purl.org/dj/kaggle/the&#45;importance&#45;of&#45;cleaning&#45;text/activity/7391220493341398345&#45;&gt;http://purl.org/dj/kaggle/the&#45;importance&#45;of&#45;cleaning&#45;text -->
<g id="edge6" class="edge">
<title>http://purl.org/dj/kaggle/the&#45;importance&#45;of&#45;cleaning&#45;text/activity/7391220493341398345&#45;&gt;http://purl.org/dj/kaggle/the&#45;importance&#45;of&#45;cleaning&#45;text</title>
<path fill="none" stroke="black" d="M202.54,-173.88C214.98,-143.74 240.87,-81.04 255.6,-45.35"/>
<polygon fill="black" stroke="black" points="258.86,-46.63 259.44,-36.05 252.39,-43.96 258.86,-46.63"/>
<text text-anchor="middle" x="261.98" y="-101.3" font-family="Times,serif" font-size="14.00">previous</text>
</g>
<!-- http://purl.org/dj/kaggle/the&#45;importance&#45;of&#45;cleaning&#45;text/activity/3603085436554278066&#45;&gt;http://purl.org/dj/kaggle/the&#45;importance&#45;of&#45;cleaning&#45;text/activity/8321538948798833627 -->
<g id="edge7" class="edge">
<title>http://purl.org/dj/kaggle/the&#45;importance&#45;of&#45;cleaning&#45;text/activity/3603085436554278066&#45;&gt;http://purl.org/dj/kaggle/the&#45;importance&#45;of&#45;cleaning&#45;text/activity/8321538948798833627</title>
<path fill="none" stroke="black" d="M592.03,-178.23C706.91,-162.38 901.9,-135.47 1018.7,-119.35"/>
<polygon fill="black" stroke="black" points="1019.28,-122.81 1028.71,-117.97 1018.32,-115.87 1019.28,-122.81"/>
<text text-anchor="middle" x="867.98" y="-144.8" font-family="Times,serif" font-size="14.00">previous</text>
</g>
<!-- http://purl.org/dj/kaggle/the&#45;importance&#45;of&#45;cleaning&#45;text/activity/8321538948798833627&#45;&gt;http://purl.org/dj/kaggle/the&#45;importance&#45;of&#45;cleaning&#45;text -->
<g id="edge8" class="edge">
<title>http://purl.org/dj/kaggle/the&#45;importance&#45;of&#45;cleaning&#45;text/activity/8321538948798833627&#45;&gt;http://purl.org/dj/kaggle/the&#45;importance&#45;of&#45;cleaning&#45;text</title>
<path fill="none" stroke="black" d="M1016.42,-94.08C869.25,-79.35 591.63,-51.55 418.58,-34.23"/>
<polygon fill="black" stroke="black" points="418.92,-30.74 408.62,-33.23 418.22,-37.71 418.92,-30.74"/>
<text text-anchor="middle" x="765.98" y="-57.8" font-family="Times,serif" font-size="14.00">previous</text>
</g>
<!-- http://purl.org/dj/kaggle/the&#45;importance&#45;of&#45;cleaning&#45;text/activity/3697113882073884938 -->
<g id="node7" class="node">
<title>http://purl.org/dj/kaggle/the&#45;importance&#45;of&#45;cleaning&#45;text/activity/3697113882073884938</title>
<ellipse fill="none" stroke="black" cx="1542.48" cy="-279" rx="148.67" ry="18"/>
<text text-anchor="middle" x="1542.48" y="-275.3" font-family="Times,serif" font-size="14.00">3697113882073884938 (Visualisation)</text>
</g>
<!-- http://purl.org/dj/kaggle/the&#45;importance&#45;of&#45;cleaning&#45;text/activity/3697113882073884938&#45;&gt;http://purl.org/dj/kaggle/the&#45;importance&#45;of&#45;cleaning&#45;text/activity/7358869146064680331 -->
<g id="edge9" class="edge">
<title>http://purl.org/dj/kaggle/the&#45;importance&#45;of&#45;cleaning&#45;text/activity/3697113882073884938&#45;&gt;http://purl.org/dj/kaggle/the&#45;importance&#45;of&#45;cleaning&#45;text/activity/7358869146064680331</title>
<path fill="none" stroke="black" d="M1623.61,-263.87C1710.99,-248.65 1849.66,-224.49 1940.37,-208.69"/>
<polygon fill="black" stroke="black" points="1941.12,-212.12 1950.37,-206.95 1939.92,-205.22 1941.12,-212.12"/>
<text text-anchor="middle" x="1838.98" y="-231.8" font-family="Times,serif" font-size="14.00">previous</text>
</g>
<!-- http://purl.org/dj/kaggle/the&#45;importance&#45;of&#45;cleaning&#45;text/activity/3697113882073884938&#45;&gt;http://purl.org/dj/kaggle/the&#45;importance&#45;of&#45;cleaning&#45;text/activity/7391220493341398345 -->
<g id="edge10" class="edge">
<title>http://purl.org/dj/kaggle/the&#45;importance&#45;of&#45;cleaning&#45;text/activity/3697113882073884938&#45;&gt;http://purl.org/dj/kaggle/the&#45;importance&#45;of&#45;cleaning&#45;text/activity/7391220493341398345</title>
<path fill="none" stroke="black" d="M1409.28,-270.94C1350.75,-267.86 1281.2,-264.22 1218.48,-261 1138.7,-256.91 936.59,-263.82 859.48,-243 845.47,-239.22 844.51,-231.69 830.48,-228 726.6,-200.67 454.59,-217.97 347.48,-210 333.38,-208.95 318.58,-207.6 303.97,-206.13"/>
<polygon fill="black" stroke="black" points="304.21,-202.63 293.9,-205.09 303.49,-209.6 304.21,-202.63"/>
<text text-anchor="middle" x="882.98" y="-231.8" font-family="Times,serif" font-size="14.00">previous</text>
</g>
<!-- http://purl.org/dj/kaggle/the&#45;importance&#45;of&#45;cleaning&#45;text/activity/3697113882073884938&#45;&gt;http://purl.org/dj/kaggle/the&#45;importance&#45;of&#45;cleaning&#45;text/activity/3603085436554278066 -->
<g id="edge11" class="edge">
<title>http://purl.org/dj/kaggle/the&#45;importance&#45;of&#45;cleaning&#45;text/activity/3697113882073884938&#45;&gt;http://purl.org/dj/kaggle/the&#45;importance&#45;of&#45;cleaning&#45;text/activity/3603085436554278066</title>
<path fill="none" stroke="black" d="M1495.75,-261.87C1459.16,-250.07 1406.72,-234.95 1359.48,-228 1203.77,-205.09 808.49,-220.76 651.48,-210 637.16,-209.02 622.12,-207.7 607.29,-206.22"/>
<polygon fill="black" stroke="black" points="607.38,-202.71 597.08,-205.17 606.67,-209.67 607.38,-202.71"/>
<text text-anchor="middle" x="1454.98" y="-231.8" font-family="Times,serif" font-size="14.00">previous</text>
</g>
<!-- http://purl.org/dj/kaggle/the&#45;importance&#45;of&#45;cleaning&#45;text/activity/3697113882073884938&#45;&gt;http://purl.org/dj/kaggle/the&#45;importance&#45;of&#45;cleaning&#45;text/activity/8321538948798833627 -->
<g id="edge12" class="edge">
<title>http://purl.org/dj/kaggle/the&#45;importance&#45;of&#45;cleaning&#45;text/activity/3697113882073884938&#45;&gt;http://purl.org/dj/kaggle/the&#45;importance&#45;of&#45;cleaning&#45;text/activity/8321538948798833627</title>
<path fill="none" stroke="black" d="M1682.8,-272.87C1861.08,-264.88 2149.69,-246.45 2182.48,-210 2193.18,-198.1 2193.36,-185.73 2182.48,-174 2151.08,-140.17 1524.26,-117.86 1246.29,-109.59"/>
<polygon fill="black" stroke="black" points="1246.24,-106.09 1236.15,-109.29 1246.04,-113.08 1246.24,-106.09"/>
<text text-anchor="middle" x="2213.98" y="-188.3" font-family="Times,serif" font-size="14.00">previous</text>
</g>
<!-- http://purl.org/dj/kaggle/the&#45;importance&#45;of&#45;cleaning&#45;text/activity/&#45;5934784681608212634 -->
<g id="node8" class="node">
<title>http://purl.org/dj/kaggle/the&#45;importance&#45;of&#45;cleaning&#45;text/activity/&#45;5934784681608212634</title>
<ellipse fill="none" stroke="black" cx="495.48" cy="-279" rx="126.98" ry="18"/>
<text text-anchor="middle" x="495.48" y="-275.3" font-family="Times,serif" font-size="14.00">&#45;5934784681608212634 (Reuse)</text>
</g>
<!-- http://purl.org/dj/kaggle/the&#45;importance&#45;of&#45;cleaning&#45;text/activity/&#45;5934784681608212634&#45;&gt;http://purl.org/dj/kaggle/the&#45;importance&#45;of&#45;cleaning&#45;text/activity/7358869146064680331 -->
<g id="edge13" class="edge">
<title>http://purl.org/dj/kaggle/the&#45;importance&#45;of&#45;cleaning&#45;text/activity/&#45;5934784681608212634&#45;&gt;http://purl.org/dj/kaggle/the&#45;importance&#45;of&#45;cleaning&#45;text/activity/7358869146064680331</title>
<path fill="none" stroke="black" d="M583.53,-266.05C599.47,-264.15 615.95,-262.37 631.48,-261 708.61,-254.19 906.67,-269.38 979.48,-243 989.92,-239.22 988.97,-231.62 999.48,-228 1045.65,-212.08 1829.74,-213.22 1878.48,-210 1892.79,-209.05 1907.84,-207.75 1922.66,-206.28"/>
<polygon fill="black" stroke="black" points="1923.29,-209.74 1932.88,-205.24 1922.58,-202.77 1923.29,-209.74"/>
<text text-anchor="middle" x="1022.98" y="-231.8" font-family="Times,serif" font-size="14.00">previous</text>
</g>
<!-- http://purl.org/dj/kaggle/the&#45;importance&#45;of&#45;cleaning&#45;text/activity/&#45;5934784681608212634&#45;&gt;http://purl.org/dj/kaggle/the&#45;importance&#45;of&#45;cleaning&#45;text/activity/7391220493341398345 -->
<g id="edge14" class="edge">
<title>http://purl.org/dj/kaggle/the&#45;importance&#45;of&#45;cleaning&#45;text/activity/&#45;5934784681608212634&#45;&gt;http://purl.org/dj/kaggle/the&#45;importance&#45;of&#45;cleaning&#45;text/activity/7391220493341398345</title>
<path fill="none" stroke="black" d="M403,-266.6C334.12,-257.87 250.77,-246.72 243.48,-243 232.04,-237.16 221.79,-227.5 213.73,-218.22"/>
<polygon fill="black" stroke="black" points="216.28,-215.8 207.24,-210.26 210.85,-220.22 216.28,-215.8"/>
<text text-anchor="middle" x="266.98" y="-231.8" font-family="Times,serif" font-size="14.00">previous</text>
</g>
<!-- http://purl.org/dj/kaggle/the&#45;importance&#45;of&#45;cleaning&#45;text/activity/&#45;5934784681608212634&#45;&gt;http://purl.org/dj/kaggle/the&#45;importance&#45;of&#45;cleaning&#45;text/activity/3603085436554278066 -->
<g id="edge15" class="edge">
<title>http://purl.org/dj/kaggle/the&#45;importance&#45;of&#45;cleaning&#45;text/activity/&#45;5934784681608212634&#45;&gt;http://purl.org/dj/kaggle/the&#45;importance&#45;of&#45;cleaning&#45;text/activity/3603085436554278066</title>
<path fill="none" stroke="black" d="M498.4,-260.96C499.25,-255.27 500.06,-248.88 500.48,-243 501,-235.67 501.06,-227.72 500.92,-220.36"/>
<polygon fill="black" stroke="black" points="504.41,-220.02 500.59,-210.14 497.42,-220.25 504.41,-220.02"/>
<text text-anchor="middle" x="524.98" y="-231.8" font-family="Times,serif" font-size="14.00">previous</text>
</g>
<!-- http://purl.org/dj/kaggle/the&#45;importance&#45;of&#45;cleaning&#45;text/activity/&#45;3021391676071278202 -->
<g id="node9" class="node">
<title>http://purl.org/dj/kaggle/the&#45;importance&#45;of&#45;cleaning&#45;text/activity/&#45;3021391676071278202</title>
<ellipse fill="none" stroke="black" cx="199.48" cy="-279" rx="151.37" ry="18"/>
<text text-anchor="middle" x="199.48" y="-275.3" font-family="Times,serif" font-size="14.00">&#45;3021391676071278202 (Visualisation)</text>
</g>
<!-- http://purl.org/dj/kaggle/the&#45;importance&#45;of&#45;cleaning&#45;text/activity/&#45;3021391676071278202&#45;&gt;http://purl.org/dj/kaggle/the&#45;importance&#45;of&#45;cleaning&#45;text/activity/7358869146064680331 -->
<g id="edge16" class="edge">
<title>http://purl.org/dj/kaggle/the&#45;importance&#45;of&#45;cleaning&#45;text/activity/&#45;3021391676071278202&#45;&gt;http://purl.org/dj/kaggle/the&#45;importance&#45;of&#45;cleaning&#45;text/activity/7358869146064680331</title>
<path fill="none" stroke="black" d="M303.52,-265.83C322.13,-263.97 341.36,-262.26 359.48,-261 420.14,-256.78 848.67,-261.88 906.48,-243 917.73,-239.33 917.2,-231.6 928.48,-228 978.77,-211.96 1825.8,-213.44 1878.48,-210 1892.9,-209.06 1908.06,-207.75 1923,-206.27"/>
<polygon fill="black" stroke="black" points="1923.7,-209.72 1933.29,-205.22 1922.99,-202.75 1923.7,-209.72"/>
<text text-anchor="middle" x="951.98" y="-231.8" font-family="Times,serif" font-size="14.00">previous</text>
</g>
<!-- http://purl.org/dj/kaggle/the&#45;importance&#45;of&#45;cleaning&#45;text/activity/&#45;3021391676071278202&#45;&gt;http://purl.org/dj/kaggle/the&#45;importance&#45;of&#45;cleaning&#45;text/activity/7391220493341398345 -->
<g id="edge17" class="edge">
<title>http://purl.org/dj/kaggle/the&#45;importance&#45;of&#45;cleaning&#45;text/activity/&#45;3021391676071278202&#45;&gt;http://purl.org/dj/kaggle/the&#45;importance&#45;of&#45;cleaning&#45;text/activity/7391220493341398345</title>
<path fill="none" stroke="black" d="M183.56,-261.09C179.46,-255.71 175.62,-249.47 173.48,-243 170.85,-235.06 172.64,-226.66 176.12,-219.06"/>
<polygon fill="black" stroke="black" points="179.21,-220.71 181.02,-210.27 173.09,-217.3 179.21,-220.71"/>
<text text-anchor="middle" x="196.98" y="-231.8" font-family="Times,serif" font-size="14.00">previous</text>
</g>
<!-- http://purl.org/dj/kaggle/the&#45;importance&#45;of&#45;cleaning&#45;text/activity/&#45;3021391676071278202&#45;&gt;http://purl.org/dj/kaggle/the&#45;importance&#45;of&#45;cleaning&#45;text/activity/3603085436554278066 -->
<g id="edge18" class="edge">
<title>http://purl.org/dj/kaggle/the&#45;importance&#45;of&#45;cleaning&#45;text/activity/&#45;3021391676071278202&#45;&gt;http://purl.org/dj/kaggle/the&#45;importance&#45;of&#45;cleaning&#45;text/activity/3603085436554278066</title>
<path fill="none" stroke="black" d="M309.96,-266.68C358.16,-260.64 408.61,-252.48 430.48,-243 440.35,-238.72 440.84,-234.42 449.48,-228 454.96,-223.92 460.85,-219.68 466.6,-215.61"/>
<polygon fill="black" stroke="black" points="468.69,-218.42 474.86,-209.81 464.67,-212.69 468.69,-218.42"/>
<text text-anchor="middle" x="472.98" y="-231.8" font-family="Times,serif" font-size="14.00">previous</text>
</g>
<!-- http://purl.org/dj/kaggle/the&#45;importance&#45;of&#45;cleaning&#45;text/activity/&#45;5569906718968911529 -->
<g id="node10" class="node">
<title>http://purl.org/dj/kaggle/the&#45;importance&#45;of&#45;cleaning&#45;text/activity/&#45;5569906718968911529</title>
<ellipse fill="none" stroke="black" cx="806.48" cy="-192" rx="145.67" ry="18"/>
<text text-anchor="middle" x="806.48" y="-188.3" font-family="Times,serif" font-size="14.00">&#45;5569906718968911529 (Preparation)</text>
</g>
<!-- http://purl.org/dj/kaggle/the&#45;importance&#45;of&#45;cleaning&#45;text/activity/&#45;5569906718968911529&#45;&gt;http://purl.org/dj/kaggle/the&#45;importance&#45;of&#45;cleaning&#45;text/activity/8321538948798833627 -->
<g id="edge19" class="edge">
<title>http://purl.org/dj/kaggle/the&#45;importance&#45;of&#45;cleaning&#45;text/activity/&#45;5569906718968911529&#45;&gt;http://purl.org/dj/kaggle/the&#45;importance&#45;of&#45;cleaning&#45;text/activity/8321538948798833627</title>
<path fill="none" stroke="black" d="M863.15,-175.41C916.08,-160.85 995.02,-139.14 1050.48,-123.88"/>
<polygon fill="black" stroke="black" points="1051.49,-127.23 1060.2,-121.21 1049.63,-120.48 1051.49,-127.23"/>
<text text-anchor="middle" x="1003.98" y="-144.8" font-family="Times,serif" font-size="14.00">previous</text>
</g>
<!-- http://purl.org/dj/kaggle/the&#45;importance&#45;of&#45;cleaning&#45;text/activity/&#45;7250030331710110236 -->
<g id="node11" class="node">
<title>http://purl.org/dj/kaggle/the&#45;importance&#45;of&#45;cleaning&#45;text/activity/&#45;7250030331710110236</title>
<ellipse fill="none" stroke="black" cx="1115.48" cy="-192" rx="145.67" ry="18"/>
<text text-anchor="middle" x="1115.48" y="-188.3" font-family="Times,serif" font-size="14.00">&#45;7250030331710110236 (Preparation)</text>
</g>
<!-- http://purl.org/dj/kaggle/the&#45;importance&#45;of&#45;cleaning&#45;text/activity/&#45;7250030331710110236&#45;&gt;http://purl.org/dj/kaggle/the&#45;importance&#45;of&#45;cleaning&#45;text/activity/8321538948798833627 -->
<g id="edge20" class="edge">
<title>http://purl.org/dj/kaggle/the&#45;importance&#45;of&#45;cleaning&#45;text/activity/&#45;7250030331710110236&#45;&gt;http://purl.org/dj/kaggle/the&#45;importance&#45;of&#45;cleaning&#45;text/activity/8321538948798833627</title>
<path fill="none" stroke="black" d="M1115.48,-173.8C1115.48,-162.16 1115.48,-146.55 1115.48,-133.24"/>
<polygon fill="black" stroke="black" points="1118.98,-133.18 1115.48,-123.18 1111.98,-133.18 1118.98,-133.18"/>
<text text-anchor="middle" x="1138.98" y="-144.8" font-family="Times,serif" font-size="14.00">previous</text>
</g>
<!-- http://purl.org/dj/kaggle/the&#45;importance&#45;of&#45;cleaning&#45;text/activity/8812331547580798014 -->
<g id="node12" class="node">
<title>http://purl.org/dj/kaggle/the&#45;importance&#45;of&#45;cleaning&#45;text/activity/8812331547580798014</title>
<ellipse fill="none" stroke="black" cx="764.48" cy="-279" rx="124.28" ry="18"/>
<text text-anchor="middle" x="764.48" y="-275.3" font-family="Times,serif" font-size="14.00">8812331547580798014 (Reuse)</text>
</g>
<!-- http://purl.org/dj/kaggle/the&#45;importance&#45;of&#45;cleaning&#45;text/activity/8812331547580798014&#45;&gt;http://purl.org/dj/kaggle/the&#45;importance&#45;of&#45;cleaning&#45;text/activity/7358869146064680331 -->
<g id="edge21" class="edge">
<title>http://purl.org/dj/kaggle/the&#45;importance&#45;of&#45;cleaning&#45;text/activity/8812331547580798014&#45;&gt;http://purl.org/dj/kaggle/the&#45;importance&#45;of&#45;cleaning&#45;text/activity/7358869146064680331</title>
<path fill="none" stroke="black" d="M854.2,-266.51C868.99,-264.65 884.16,-262.76 898.48,-261 966,-252.72 982.95,-251.22 1050.48,-243 1103.83,-236.51 1116.88,-232.02 1170.48,-228 1484.36,-204.45 1564.44,-231.51 1878.48,-210 1892.79,-209.02 1907.83,-207.7 1922.66,-206.22"/>
<polygon fill="black" stroke="black" points="1923.29,-209.67 1932.88,-205.17 1922.57,-202.71 1923.29,-209.67"/>
<text text-anchor="middle" x="1193.98" y="-231.8" font-family="Times,serif" font-size="14.00">previous</text>
</g>
<!-- http://purl.org/dj/kaggle/the&#45;importance&#45;of&#45;cleaning&#45;text/activity/8812331547580798014&#45;&gt;http://purl.org/dj/kaggle/the&#45;importance&#45;of&#45;cleaning&#45;text/activity/7391220493341398345 -->
<g id="edge22" class="edge">
<title>http://purl.org/dj/kaggle/the&#45;importance&#45;of&#45;cleaning&#45;text/activity/8812331547580798014&#45;&gt;http://purl.org/dj/kaggle/the&#45;importance&#45;of&#45;cleaning&#45;text/activity/7391220493341398345</title>
<path fill="none" stroke="black" d="M678.01,-266.05C662.53,-264.17 646.54,-262.39 631.48,-261 560.99,-254.51 380.72,-265.08 313.48,-243 301.88,-239.19 301.38,-233.48 290.48,-228 279.2,-222.34 266.77,-217.1 254.73,-212.49"/>
<polygon fill="black" stroke="black" points="255.78,-209.14 245.19,-208.93 253.33,-215.7 255.78,-209.14"/>
<text text-anchor="middle" x="336.98" y="-231.8" font-family="Times,serif" font-size="14.00">previous</text>
</g>
<!-- http://purl.org/dj/kaggle/the&#45;importance&#45;of&#45;cleaning&#45;text/activity/8812331547580798014&#45;&gt;http://purl.org/dj/kaggle/the&#45;importance&#45;of&#45;cleaning&#45;text/activity/3603085436554278066 -->
<g id="edge23" class="edge">
<title>http://purl.org/dj/kaggle/the&#45;importance&#45;of&#45;cleaning&#45;text/activity/8812331547580798014&#45;&gt;http://purl.org/dj/kaggle/the&#45;importance&#45;of&#45;cleaning&#45;text/activity/3603085436554278066</title>
<path fill="none" stroke="black" d="M715.87,-262.41C671.65,-248.23 606.25,-227.25 558.93,-212.07"/>
<polygon fill="black" stroke="black" points="559.71,-208.65 549.12,-208.92 557.57,-215.31 559.71,-208.65"/>
<text text-anchor="middle" x="671.98" y="-231.8" font-family="Times,serif" font-size="14.00">previous</text>
</g>
<!-- http://purl.org/dj/kaggle/the&#45;importance&#45;of&#45;cleaning&#45;text/activity/5176124423888825774 -->
<g id="node13" class="node">
<title>http://purl.org/dj/kaggle/the&#45;importance&#45;of&#45;cleaning&#45;text/activity/5176124423888825774</title>
<ellipse fill="none" stroke="black" cx="1422.48" cy="-192" rx="142.97" ry="18"/>
<text text-anchor="middle" x="1422.48" y="-188.3" font-family="Times,serif" font-size="14.00">5176124423888825774 (Preparation)</text>
</g>
<!-- http://purl.org/dj/kaggle/the&#45;importance&#45;of&#45;cleaning&#45;text/activity/5176124423888825774&#45;&gt;http://purl.org/dj/kaggle/the&#45;importance&#45;of&#45;cleaning&#45;text/activity/8321538948798833627 -->
<g id="edge24" class="edge">
<title>http://purl.org/dj/kaggle/the&#45;importance&#45;of&#45;cleaning&#45;text/activity/5176124423888825774&#45;&gt;http://purl.org/dj/kaggle/the&#45;importance&#45;of&#45;cleaning&#45;text/activity/8321538948798833627</title>
<path fill="none" stroke="black" d="M1366.17,-175.41C1313.59,-160.85 1235.16,-139.14 1180.06,-123.88"/>
<polygon fill="black" stroke="black" points="1180.97,-120.5 1170.4,-121.21 1179.1,-127.25 1180.97,-120.5"/>
<text text-anchor="middle" x="1310.98" y="-144.8" font-family="Times,serif" font-size="14.00">previous</text>
</g>
<!-- http://purl.org/dj/kaggle/the&#45;importance&#45;of&#45;cleaning&#45;text/activity/6100955977602629796 -->
<g id="node14" class="node">
<title>http://purl.org/dj/kaggle/the&#45;importance&#45;of&#45;cleaning&#45;text/activity/6100955977602629796</title>
<ellipse fill="none" stroke="black" cx="1726.48" cy="-192" rx="142.97" ry="18"/>
<text text-anchor="middle" x="1726.48" y="-188.3" font-family="Times,serif" font-size="14.00">6100955977602629796 (Preparation)</text>
</g>
<!-- http://purl.org/dj/kaggle/the&#45;importance&#45;of&#45;cleaning&#45;text/activity/6100955977602629796&#45;&gt;http://purl.org/dj/kaggle/the&#45;importance&#45;of&#45;cleaning&#45;text/activity/8321538948798833627 -->
<g id="edge25" class="edge">
<title>http://purl.org/dj/kaggle/the&#45;importance&#45;of&#45;cleaning&#45;text/activity/6100955977602629796&#45;&gt;http://purl.org/dj/kaggle/the&#45;importance&#45;of&#45;cleaning&#45;text/activity/8321538948798833627</title>
<path fill="none" stroke="black" d="M1634.34,-178.18C1520.48,-162.34 1327.63,-135.51 1211.85,-119.41"/>
<polygon fill="black" stroke="black" points="1212.31,-115.94 1201.93,-118.03 1211.35,-122.87 1212.31,-115.94"/>
<text text-anchor="middle" x="1481.98" y="-144.8" font-family="Times,serif" font-size="14.00">previous</text>
</g>
</g>
</svg>
