<?xml version="1.0" encoding="UTF-8" standalone="no"?>
<!DOCTYPE svg PUBLIC "-//W3C//DTD SVG 1.1//EN"
 "http://www.w3.org/Graphics/SVG/1.1/DTD/svg11.dtd">
<!-- Generated by graphviz version 2.47.1 (20210417.1919)
 -->
<!-- Pages: 1 -->
<svg width="2498pt" height="413pt"
 viewBox="0.00 0.00 2498.35 413.00" xmlns="http://www.w3.org/2000/svg" xmlns:xlink="http://www.w3.org/1999/xlink">
<g id="graph0" class="graph" transform="scale(1 1) rotate(0) translate(4 409)">
<polygon fill="white" stroke="transparent" points="-4,4 -4,-409 2494.35,-409 2494.35,4 -4,4"/>
<!-- http://purl.org/dj/kaggle/time&#45;travel&#45;eda/activity/45813192552964589 -->
<g id="node1" class="node">
<title>http://purl.org/dj/kaggle/time&#45;travel&#45;eda/activity/45813192552964589</title>
<ellipse fill="none" stroke="black" cx="197.35" cy="-246" rx="133.78" ry="18"/>
<text text-anchor="middle" x="197.35" y="-242.3" font-family="Times,serif" font-size="14.00">45813192552964589 (Preparation)</text>
</g>
<!-- http://purl.org/dj/kaggle/time&#45;travel&#45;eda/activity/7798768734651882327 -->
<g id="node2" class="node">
<title>http://purl.org/dj/kaggle/time&#45;travel&#45;eda/activity/7798768734651882327</title>
<ellipse fill="none" stroke="black" cx="1309.35" cy="-105" rx="124.28" ry="18"/>
<text text-anchor="middle" x="1309.35" y="-101.3" font-family="Times,serif" font-size="14.00">7798768734651882327 (Reuse)</text>
</g>
<!-- http://purl.org/dj/kaggle/time&#45;travel&#45;eda/activity/45813192552964589&#45;&gt;http://purl.org/dj/kaggle/time&#45;travel&#45;eda/activity/7798768734651882327 -->
<g id="edge1" class="edge">
<title>http://purl.org/dj/kaggle/time&#45;travel&#45;eda/activity/45813192552964589&#45;&gt;http://purl.org/dj/kaggle/time&#45;travel&#45;eda/activity/7798768734651882327</title>
<path fill="none" stroke="black" d="M208.55,-227.78C225.62,-203.28 260.7,-159.3 303.35,-141 381.25,-107.57 918.98,-104.71 1174.74,-105.28"/>
<polygon fill="black" stroke="black" points="1174.83,-108.78 1184.84,-105.31 1174.85,-101.78 1174.83,-108.78"/>
<text text-anchor="middle" x="277.85" y="-188.3" font-family="Times,serif" font-size="14.00">previous</text>
</g>
<!-- http://purl.org/dj/kaggle/time&#45;travel&#45;eda -->
<g id="node3" class="node">
<title>http://purl.org/dj/kaggle/time&#45;travel&#45;eda</title>
<ellipse fill="none" stroke="black" cx="341.35" cy="-18" rx="149.47" ry="18"/>
<text text-anchor="middle" x="341.35" y="-14.3" font-family="Times,serif" font-size="14.00">time&#45;travel&#45;eda (time&#45;travel&#45;eda.ipynb)</text>
</g>
<!-- http://purl.org/dj/kaggle/time&#45;travel&#45;eda/activity/7798768734651882327&#45;&gt;http://purl.org/dj/kaggle/time&#45;travel&#45;eda -->
<g id="edge2" class="edge">
<title>http://purl.org/dj/kaggle/time&#45;travel&#45;eda/activity/7798768734651882327&#45;&gt;http://purl.org/dj/kaggle/time&#45;travel&#45;eda</title>
<path fill="none" stroke="black" d="M1206.21,-94.94C1027.82,-79.28 662.18,-47.17 468.41,-30.16"/>
<polygon fill="black" stroke="black" points="468.44,-26.65 458.17,-29.26 467.83,-33.62 468.44,-26.65"/>
<text text-anchor="middle" x="906.85" y="-57.8" font-family="Times,serif" font-size="14.00">previous</text>
</g>
<!-- http://purl.org/dj/kaggle/time&#45;travel&#45;eda/activity/8373233006271611125 -->
<g id="node4" class="node">
<title>http://purl.org/dj/kaggle/time&#45;travel&#45;eda/activity/8373233006271611125</title>
<ellipse fill="none" stroke="black" cx="1659.35" cy="-192" rx="148.67" ry="18"/>
<text text-anchor="middle" x="1659.35" y="-188.3" font-family="Times,serif" font-size="14.00">8373233006271611125 (Visualisation)</text>
</g>
<!-- http://purl.org/dj/kaggle/time&#45;travel&#45;eda/activity/8373233006271611125&#45;&gt;http://purl.org/dj/kaggle/time&#45;travel&#45;eda/activity/7798768734651882327 -->
<g id="edge3" class="edge">
<title>http://purl.org/dj/kaggle/time&#45;travel&#45;eda/activity/8373233006271611125&#45;&gt;http://purl.org/dj/kaggle/time&#45;travel&#45;eda/activity/7798768734651882327</title>
<path fill="none" stroke="black" d="M1611.95,-174.91C1579.64,-164.33 1535.72,-150.69 1496.35,-141 1464.8,-133.24 1429.89,-126.27 1398.86,-120.64"/>
<polygon fill="black" stroke="black" points="1399.39,-117.18 1388.93,-118.86 1398.16,-124.07 1399.39,-117.18"/>
<text text-anchor="middle" x="1574.85" y="-144.8" font-family="Times,serif" font-size="14.00">previous</text>
</g>
<!-- http://purl.org/dj/kaggle/time&#45;travel&#45;eda/activity/4035823135906175510 -->
<g id="node5" class="node">
<title>http://purl.org/dj/kaggle/time&#45;travel&#45;eda/activity/4035823135906175510</title>
<ellipse fill="none" stroke="black" cx="1191.35" cy="-192" rx="141.88" ry="18"/>
<text text-anchor="middle" x="1191.35" y="-188.3" font-family="Times,serif" font-size="14.00">4035823135906175510 (Movement)</text>
</g>
<!-- http://purl.org/dj/kaggle/time&#45;travel&#45;eda/activity/4035823135906175510&#45;&gt;http://purl.org/dj/kaggle/time&#45;travel&#45;eda/activity/7798768734651882327 -->
<g id="edge4" class="edge">
<title>http://purl.org/dj/kaggle/time&#45;travel&#45;eda/activity/4035823135906175510&#45;&gt;http://purl.org/dj/kaggle/time&#45;travel&#45;eda/activity/7798768734651882327</title>
<path fill="none" stroke="black" d="M1214.66,-174.21C1232.76,-161.17 1258.04,-142.96 1277.93,-128.63"/>
<polygon fill="black" stroke="black" points="1280.01,-131.44 1286.08,-122.76 1275.92,-125.76 1280.01,-131.44"/>
<text text-anchor="middle" x="1281.85" y="-144.8" font-family="Times,serif" font-size="14.00">previous</text>
</g>
<!-- http://purl.org/dj/kaggle/time&#45;travel&#45;eda/activity/&#45;7821259685988720544 -->
<g id="node6" class="node">
<title>http://purl.org/dj/kaggle/time&#45;travel&#45;eda/activity/&#45;7821259685988720544</title>
<ellipse fill="none" stroke="black" cx="583.35" cy="-387" rx="151.37" ry="18"/>
<text text-anchor="middle" x="583.35" y="-383.3" font-family="Times,serif" font-size="14.00">&#45;7821259685988720544 (Visualisation)</text>
</g>
<!-- http://purl.org/dj/kaggle/time&#45;travel&#45;eda/activity/&#45;7821259685988720544&#45;&gt;http://purl.org/dj/kaggle/time&#45;travel&#45;eda/activity/45813192552964589 -->
<g id="edge5" class="edge">
<title>http://purl.org/dj/kaggle/time&#45;travel&#45;eda/activity/&#45;7821259685988720544&#45;&gt;http://purl.org/dj/kaggle/time&#45;travel&#45;eda/activity/45813192552964589</title>
<path fill="none" stroke="black" d="M538.31,-369.78C466.89,-344.06 327.9,-294.01 251.28,-266.42"/>
<polygon fill="black" stroke="black" points="252.39,-263.1 241.8,-263.01 250.02,-269.69 252.39,-263.1"/>
<text text-anchor="middle" x="509.85" y="-339.8" font-family="Times,serif" font-size="14.00">previous</text>
</g>
<!-- http://purl.org/dj/kaggle/time&#45;travel&#45;eda/activity/&#45;7821259685988720544&#45;&gt;http://purl.org/dj/kaggle/time&#45;travel&#45;eda/activity/7798768734651882327 -->
<g id="edge6" class="edge">
<title>http://purl.org/dj/kaggle/time&#45;travel&#45;eda/activity/&#45;7821259685988720544&#45;&gt;http://purl.org/dj/kaggle/time&#45;travel&#45;eda/activity/7798768734651882327</title>
<path fill="none" stroke="black" d="M455.87,-377.27C303.68,-363.89 62.69,-332.3 7.35,-264 -2.73,-251.57 -2.06,-240.94 7.35,-228 80.97,-126.7 152,-162.66 275.35,-141 444.08,-111.36 935.49,-106.46 1174.99,-105.89"/>
<polygon fill="black" stroke="black" points="1175.16,-109.39 1185.15,-105.86 1175.14,-102.39 1175.16,-109.39"/>
<text text-anchor="middle" x="30.85" y="-242.3" font-family="Times,serif" font-size="14.00">previous</text>
</g>
<!-- http://purl.org/dj/kaggle/time&#45;travel&#45;eda/activity/3512488809629649973 -->
<g id="node7" class="node">
<title>http://purl.org/dj/kaggle/time&#45;travel&#45;eda/activity/3512488809629649973</title>
<ellipse fill="none" stroke="black" cx="887.35" cy="-300" rx="142.97" ry="18"/>
<text text-anchor="middle" x="887.35" y="-296.3" font-family="Times,serif" font-size="14.00">3512488809629649973 (Preparation)</text>
</g>
<!-- http://purl.org/dj/kaggle/time&#45;travel&#45;eda/activity/&#45;7821259685988720544&#45;&gt;http://purl.org/dj/kaggle/time&#45;travel&#45;eda/activity/3512488809629649973 -->
<g id="edge7" class="edge">
<title>http://purl.org/dj/kaggle/time&#45;travel&#45;eda/activity/&#45;7821259685988720544&#45;&gt;http://purl.org/dj/kaggle/time&#45;travel&#45;eda/activity/3512488809629649973</title>
<path fill="none" stroke="black" d="M677.61,-372.88C708.19,-367.47 742.03,-360.27 772.35,-351 797.19,-343.41 823.87,-332.03 845.26,-322.04"/>
<polygon fill="black" stroke="black" points="846.85,-325.16 854.39,-317.72 843.86,-318.83 846.85,-325.16"/>
<text text-anchor="middle" x="834.85" y="-339.8" font-family="Times,serif" font-size="14.00">previous</text>
</g>
<!-- http://purl.org/dj/kaggle/time&#45;travel&#45;eda/activity/3025646260561829646 -->
<g id="node8" class="node">
<title>http://purl.org/dj/kaggle/time&#45;travel&#45;eda/activity/3025646260561829646</title>
<ellipse fill="none" stroke="black" cx="583.35" cy="-300" rx="142.97" ry="18"/>
<text text-anchor="middle" x="583.35" y="-296.3" font-family="Times,serif" font-size="14.00">3025646260561829646 (Preparation)</text>
</g>
<!-- http://purl.org/dj/kaggle/time&#45;travel&#45;eda/activity/&#45;7821259685988720544&#45;&gt;http://purl.org/dj/kaggle/time&#45;travel&#45;eda/activity/3025646260561829646 -->
<g id="edge8" class="edge">
<title>http://purl.org/dj/kaggle/time&#45;travel&#45;eda/activity/&#45;7821259685988720544&#45;&gt;http://purl.org/dj/kaggle/time&#45;travel&#45;eda/activity/3025646260561829646</title>
<path fill="none" stroke="black" d="M583.35,-368.8C583.35,-357.16 583.35,-341.55 583.35,-328.24"/>
<polygon fill="black" stroke="black" points="586.85,-328.18 583.35,-318.18 579.85,-328.18 586.85,-328.18"/>
<text text-anchor="middle" x="606.85" y="-339.8" font-family="Times,serif" font-size="14.00">previous</text>
</g>
<!-- http://purl.org/dj/kaggle/time&#45;travel&#45;eda/activity/7525109088310894674 -->
<g id="node9" class="node">
<title>http://purl.org/dj/kaggle/time&#45;travel&#45;eda/activity/7525109088310894674</title>
<ellipse fill="none" stroke="black" cx="1191.35" cy="-300" rx="142.97" ry="18"/>
<text text-anchor="middle" x="1191.35" y="-296.3" font-family="Times,serif" font-size="14.00">7525109088310894674 (Preparation)</text>
</g>
<!-- http://purl.org/dj/kaggle/time&#45;travel&#45;eda/activity/&#45;7821259685988720544&#45;&gt;http://purl.org/dj/kaggle/time&#45;travel&#45;eda/activity/7525109088310894674 -->
<g id="edge9" class="edge">
<title>http://purl.org/dj/kaggle/time&#45;travel&#45;eda/activity/&#45;7821259685988720544&#45;&gt;http://purl.org/dj/kaggle/time&#45;travel&#45;eda/activity/7525109088310894674</title>
<path fill="none" stroke="black" d="M716.78,-378.44C838.71,-371.07 1004.48,-359.74 1034.35,-351 1047.9,-347.04 1049.23,-341.22 1062.35,-336 1079.09,-329.35 1097.53,-323.51 1115.12,-318.61"/>
<polygon fill="black" stroke="black" points="1116.05,-321.98 1124.78,-315.98 1114.21,-315.22 1116.05,-321.98"/>
<text text-anchor="middle" x="1085.85" y="-339.8" font-family="Times,serif" font-size="14.00">previous</text>
</g>
<!-- http://purl.org/dj/kaggle/time&#45;travel&#45;eda/activity/3512488809629649973&#45;&gt;http://purl.org/dj/kaggle/time&#45;travel&#45;eda/activity/4035823135906175510 -->
<g id="edge10" class="edge">
<title>http://purl.org/dj/kaggle/time&#45;travel&#45;eda/activity/3512488809629649973&#45;&gt;http://purl.org/dj/kaggle/time&#45;travel&#45;eda/activity/4035823135906175510</title>
<path fill="none" stroke="black" d="M917.99,-282.34C948.13,-266.52 995.84,-242.98 1039.35,-228 1060.33,-220.77 1083.45,-214.59 1105.2,-209.52"/>
<polygon fill="black" stroke="black" points="1106.11,-212.9 1115.08,-207.26 1104.55,-206.07 1106.11,-212.9"/>
<text text-anchor="middle" x="1062.85" y="-242.3" font-family="Times,serif" font-size="14.00">previous</text>
</g>
<!-- http://purl.org/dj/kaggle/time&#45;travel&#45;eda/activity/3025646260561829646&#45;&gt;http://purl.org/dj/kaggle/time&#45;travel&#45;eda/activity/7798768734651882327 -->
<g id="edge11" class="edge">
<title>http://purl.org/dj/kaggle/time&#45;travel&#45;eda/activity/3025646260561829646&#45;&gt;http://purl.org/dj/kaggle/time&#45;travel&#45;eda/activity/7798768734651882327</title>
<path fill="none" stroke="black" d="M515.8,-284.13C439.55,-264.42 332.02,-225.99 380.35,-174 433.25,-117.08 930.42,-107.3 1174.9,-105.96"/>
<polygon fill="black" stroke="black" points="1174.94,-109.46 1184.92,-105.91 1174.91,-102.46 1174.94,-109.46"/>
<text text-anchor="middle" x="403.85" y="-188.3" font-family="Times,serif" font-size="14.00">previous</text>
</g>
<!-- http://purl.org/dj/kaggle/time&#45;travel&#45;eda/activity/3025646260561829646&#45;&gt;http://purl.org/dj/kaggle/time&#45;travel&#45;eda -->
<g id="edge12" class="edge">
<title>http://purl.org/dj/kaggle/time&#45;travel&#45;eda/activity/3025646260561829646&#45;&gt;http://purl.org/dj/kaggle/time&#45;travel&#45;eda</title>
<path fill="none" stroke="black" d="M467.92,-289.37C430.54,-284.09 395.14,-276.07 381.35,-264 318.66,-209.16 327.82,-97.5 336.08,-46.06"/>
<polygon fill="black" stroke="black" points="339.56,-46.48 337.8,-36.04 332.66,-45.3 339.56,-46.48"/>
<text text-anchor="middle" x="355.85" y="-144.8" font-family="Times,serif" font-size="14.00">previous</text>
</g>
<!-- http://purl.org/dj/kaggle/time&#45;travel&#45;eda/activity/&#45;7112748194966727054 -->
<g id="node10" class="node">
<title>http://purl.org/dj/kaggle/time&#45;travel&#45;eda/activity/&#45;7112748194966727054</title>
<ellipse fill="none" stroke="black" cx="887.35" cy="-192" rx="144.07" ry="18"/>
<text text-anchor="middle" x="887.35" y="-188.3" font-family="Times,serif" font-size="14.00">&#45;7112748194966727054 (Movement)</text>
</g>
<!-- http://purl.org/dj/kaggle/time&#45;travel&#45;eda/activity/3025646260561829646&#45;&gt;http://purl.org/dj/kaggle/time&#45;travel&#45;eda/activity/&#45;7112748194966727054 -->
<g id="edge13" class="edge">
<title>http://purl.org/dj/kaggle/time&#45;travel&#45;eda/activity/3025646260561829646&#45;&gt;http://purl.org/dj/kaggle/time&#45;travel&#45;eda/activity/&#45;7112748194966727054</title>
<path fill="none" stroke="black" d="M629.52,-282.9C683.69,-264.01 773.46,-232.71 831.5,-212.47"/>
<polygon fill="black" stroke="black" points="832.95,-215.67 841.24,-209.08 830.65,-209.06 832.95,-215.67"/>
<text text-anchor="middle" x="803.85" y="-242.3" font-family="Times,serif" font-size="14.00">previous</text>
</g>
<!-- http://purl.org/dj/kaggle/time&#45;travel&#45;eda/activity/&#45;1029893053005828097 -->
<g id="node11" class="node">
<title>http://purl.org/dj/kaggle/time&#45;travel&#45;eda/activity/&#45;1029893053005828097</title>
<ellipse fill="none" stroke="black" cx="580.35" cy="-192" rx="144.07" ry="18"/>
<text text-anchor="middle" x="580.35" y="-188.3" font-family="Times,serif" font-size="14.00">&#45;1029893053005828097 (Movement)</text>
</g>
<!-- http://purl.org/dj/kaggle/time&#45;travel&#45;eda/activity/3025646260561829646&#45;&gt;http://purl.org/dj/kaggle/time&#45;travel&#45;eda/activity/&#45;1029893053005828097 -->
<g id="edge14" class="edge">
<title>http://purl.org/dj/kaggle/time&#45;travel&#45;eda/activity/3025646260561829646&#45;&gt;http://purl.org/dj/kaggle/time&#45;travel&#45;eda/activity/&#45;1029893053005828097</title>
<path fill="none" stroke="black" d="M590.49,-281.85C592.47,-276.26 594.35,-269.96 595.35,-264 597.98,-248.22 598.56,-243.67 595.35,-228 594.76,-225.15 593.93,-222.24 592.96,-219.38"/>
<polygon fill="black" stroke="black" points="596.19,-218.02 589.26,-210 589.67,-220.58 596.19,-218.02"/>
<text text-anchor="middle" x="621.85" y="-242.3" font-family="Times,serif" font-size="14.00">previous</text>
</g>
<!-- http://purl.org/dj/kaggle/time&#45;travel&#45;eda/activity/7525109088310894674&#45;&gt;http://purl.org/dj/kaggle/time&#45;travel&#45;eda/activity/7798768734651882327 -->
<g id="edge15" class="edge">
<title>http://purl.org/dj/kaggle/time&#45;travel&#45;eda/activity/7525109088310894674&#45;&gt;http://purl.org/dj/kaggle/time&#45;travel&#45;eda/activity/7798768734651882327</title>
<path fill="none" stroke="black" d="M1243.99,-283.24C1278.65,-269.81 1321.36,-246.73 1342.35,-210 1356.55,-185.14 1342.47,-153.37 1328.56,-131.53"/>
<polygon fill="black" stroke="black" points="1331.38,-129.45 1322.89,-123.11 1325.57,-133.36 1331.38,-129.45"/>
<text text-anchor="middle" x="1371.85" y="-188.3" font-family="Times,serif" font-size="14.00">previous</text>
</g>
<!-- http://purl.org/dj/kaggle/time&#45;travel&#45;eda/activity/7525109088310894674&#45;&gt;http://purl.org/dj/kaggle/time&#45;travel&#45;eda/activity/4035823135906175510 -->
<g id="edge16" class="edge">
<title>http://purl.org/dj/kaggle/time&#45;travel&#45;eda/activity/7525109088310894674&#45;&gt;http://purl.org/dj/kaggle/time&#45;travel&#45;eda/activity/4035823135906175510</title>
<path fill="none" stroke="black" d="M1191.35,-281.97C1191.35,-265.38 1191.35,-239.88 1191.35,-220.43"/>
<polygon fill="black" stroke="black" points="1194.85,-220.34 1191.35,-210.34 1187.85,-220.34 1194.85,-220.34"/>
<text text-anchor="middle" x="1214.85" y="-242.3" font-family="Times,serif" font-size="14.00">previous</text>
</g>
<!-- http://purl.org/dj/kaggle/time&#45;travel&#45;eda/activity/7525109088310894674&#45;&gt;http://purl.org/dj/kaggle/time&#45;travel&#45;eda/activity/&#45;7112748194966727054 -->
<g id="edge17" class="edge">
<title>http://purl.org/dj/kaggle/time&#45;travel&#45;eda/activity/7525109088310894674&#45;&gt;http://purl.org/dj/kaggle/time&#45;travel&#45;eda/activity/&#45;7112748194966727054</title>
<path fill="none" stroke="black" d="M1166.61,-282.09C1136.28,-261.38 1088.57,-228.9 1086.35,-228 1061.48,-217.94 1033.7,-210.77 1006.98,-205.66"/>
<polygon fill="black" stroke="black" points="1007.27,-202.15 996.8,-203.8 1006.01,-209.04 1007.27,-202.15"/>
<text text-anchor="middle" x="1163.85" y="-242.3" font-family="Times,serif" font-size="14.00">previous</text>
</g>
<!-- http://purl.org/dj/kaggle/time&#45;travel&#45;eda/activity/7525109088310894674&#45;&gt;http://purl.org/dj/kaggle/time&#45;travel&#45;eda/activity/&#45;1029893053005828097 -->
<g id="edge18" class="edge">
<title>http://purl.org/dj/kaggle/time&#45;travel&#45;eda/activity/7525109088310894674&#45;&gt;http://purl.org/dj/kaggle/time&#45;travel&#45;eda/activity/&#45;1029893053005828097</title>
<path fill="none" stroke="black" d="M1089.48,-287.33C1010.99,-278.22 914.34,-266.66 905.35,-264 870.27,-253.64 866.33,-238.66 831.35,-228 806.04,-220.29 749.13,-212.1 695.88,-205.59"/>
<polygon fill="black" stroke="black" points="695.99,-202.07 685.64,-204.35 695.15,-209.02 695.99,-202.07"/>
<text text-anchor="middle" x="928.85" y="-242.3" font-family="Times,serif" font-size="14.00">previous</text>
</g>
<!-- http://purl.org/dj/kaggle/time&#45;travel&#45;eda/activity/&#45;7112748194966727054&#45;&gt;http://purl.org/dj/kaggle/time&#45;travel&#45;eda/activity/7798768734651882327 -->
<g id="edge19" class="edge">
<title>http://purl.org/dj/kaggle/time&#45;travel&#45;eda/activity/&#45;7112748194966727054&#45;&gt;http://purl.org/dj/kaggle/time&#45;travel&#45;eda/activity/7798768734651882327</title>
<path fill="none" stroke="black" d="M959.89,-176.39C1034.99,-161.26 1151.99,-137.69 1229.64,-122.06"/>
<polygon fill="black" stroke="black" points="1230.74,-125.4 1239.85,-120 1229.35,-118.54 1230.74,-125.4"/>
<text text-anchor="middle" x="1147.85" y="-144.8" font-family="Times,serif" font-size="14.00">previous</text>
</g>
<!-- http://purl.org/dj/kaggle/time&#45;travel&#45;eda/activity/&#45;1029893053005828097&#45;&gt;http://purl.org/dj/kaggle/time&#45;travel&#45;eda/activity/7798768734651882327 -->
<g id="edge20" class="edge">
<title>http://purl.org/dj/kaggle/time&#45;travel&#45;eda/activity/&#45;1029893053005828097&#45;&gt;http://purl.org/dj/kaggle/time&#45;travel&#45;eda/activity/7798768734651882327</title>
<path fill="none" stroke="black" d="M681.71,-179.18C819.97,-163.06 1066.4,-134.33 1205.79,-118.07"/>
<polygon fill="black" stroke="black" points="1206.52,-121.51 1216.05,-116.88 1205.71,-114.56 1206.52,-121.51"/>
<text text-anchor="middle" x="1012.85" y="-144.8" font-family="Times,serif" font-size="14.00">previous</text>
</g>
<!-- http://purl.org/dj/kaggle/time&#45;travel&#45;eda/activity/&#45;1029893053005828097&#45;&gt;http://purl.org/dj/kaggle/time&#45;travel&#45;eda/activity/3025646260561829646 -->
<g id="edge21" class="edge">
<title>http://purl.org/dj/kaggle/time&#45;travel&#45;eda/activity/&#45;1029893053005828097&#45;&gt;http://purl.org/dj/kaggle/time&#45;travel&#45;eda/activity/3025646260561829646</title>
<path fill="none" stroke="black" d="M557.29,-210.03C552.05,-215.17 547.2,-221.26 544.35,-228 538.12,-242.74 537.83,-249.39 544.35,-264 546.01,-267.73 548.29,-271.22 550.91,-274.45"/>
<polygon fill="black" stroke="black" points="548.58,-277.07 558,-281.91 553.65,-272.25 548.58,-277.07"/>
<text text-anchor="middle" x="567.85" y="-242.3" font-family="Times,serif" font-size="14.00">previous</text>
</g>
<!-- http://purl.org/dj/kaggle/time&#45;travel&#45;eda/activity/7269871707538799667 -->
<g id="node12" class="node">
<title>http://purl.org/dj/kaggle/time&#45;travel&#45;eda/activity/7269871707538799667</title>
<ellipse fill="none" stroke="black" cx="1058.35" cy="-387" rx="148.67" ry="18"/>
<text text-anchor="middle" x="1058.35" y="-383.3" font-family="Times,serif" font-size="14.00">7269871707538799667 (Visualisation)</text>
</g>
<!-- http://purl.org/dj/kaggle/time&#45;travel&#45;eda/activity/7269871707538799667&#45;&gt;http://purl.org/dj/kaggle/time&#45;travel&#45;eda/activity/7798768734651882327 -->
<g id="edge22" class="edge">
<title>http://purl.org/dj/kaggle/time&#45;travel&#45;eda/activity/7269871707538799667&#45;&gt;http://purl.org/dj/kaggle/time&#45;travel&#45;eda/activity/7798768734651882327</title>
<path fill="none" stroke="black" d="M1197.48,-380.59C1253.97,-375.9 1311.13,-367.19 1333.35,-351 1401.2,-301.55 1436.76,-249.16 1399.35,-174 1389.52,-154.26 1370.93,-138.74 1353.19,-127.53"/>
<polygon fill="black" stroke="black" points="1354.97,-124.51 1344.59,-122.38 1351.37,-130.52 1354.97,-124.51"/>
<text text-anchor="middle" x="1438.85" y="-242.3" font-family="Times,serif" font-size="14.00">previous</text>
</g>
<!-- http://purl.org/dj/kaggle/time&#45;travel&#45;eda/activity/7269871707538799667&#45;&gt;http://purl.org/dj/kaggle/time&#45;travel&#45;eda/activity/3512488809629649973 -->
<g id="edge23" class="edge">
<title>http://purl.org/dj/kaggle/time&#45;travel&#45;eda/activity/7269871707538799667&#45;&gt;http://purl.org/dj/kaggle/time&#45;travel&#45;eda/activity/3512488809629649973</title>
<path fill="none" stroke="black" d="M1024.97,-369.41C997.78,-355.89 959.22,-336.73 929.83,-322.12"/>
<polygon fill="black" stroke="black" points="931.15,-318.87 920.64,-317.55 928.04,-325.13 931.15,-318.87"/>
<text text-anchor="middle" x="1006.85" y="-339.8" font-family="Times,serif" font-size="14.00">previous</text>
</g>
<!-- http://purl.org/dj/kaggle/time&#45;travel&#45;eda/activity/7269871707538799667&#45;&gt;http://purl.org/dj/kaggle/time&#45;travel&#45;eda/activity/3025646260561829646 -->
<g id="edge24" class="edge">
<title>http://purl.org/dj/kaggle/time&#45;travel&#45;eda/activity/7269871707538799667&#45;&gt;http://purl.org/dj/kaggle/time&#45;travel&#45;eda/activity/3025646260561829646</title>
<path fill="none" stroke="black" d="M922.64,-379.48C860.68,-374.58 786.7,-366 721.35,-351 690.27,-343.87 656.6,-331.76 630.3,-321.25"/>
<polygon fill="black" stroke="black" points="631.54,-317.98 620.96,-317.46 628.91,-324.46 631.54,-317.98"/>
<text text-anchor="middle" x="744.85" y="-339.8" font-family="Times,serif" font-size="14.00">previous</text>
</g>
<!-- http://purl.org/dj/kaggle/time&#45;travel&#45;eda/activity/7269871707538799667&#45;&gt;http://purl.org/dj/kaggle/time&#45;travel&#45;eda/activity/7525109088310894674 -->
<g id="edge25" class="edge">
<title>http://purl.org/dj/kaggle/time&#45;travel&#45;eda/activity/7269871707538799667&#45;&gt;http://purl.org/dj/kaggle/time&#45;travel&#45;eda/activity/7525109088310894674</title>
<path fill="none" stroke="black" d="M1084.66,-369.28C1093.75,-363.5 1104,-356.97 1113.35,-351 1127.47,-341.98 1143.02,-332.02 1156.49,-323.38"/>
<polygon fill="black" stroke="black" points="1158.48,-326.26 1165,-317.92 1154.7,-320.37 1158.48,-326.26"/>
<text text-anchor="middle" x="1158.85" y="-339.8" font-family="Times,serif" font-size="14.00">previous</text>
</g>
<!-- http://purl.org/dj/kaggle/time&#45;travel&#45;eda/activity/&#45;1842448220189130233 -->
<g id="node13" class="node">
<title>http://purl.org/dj/kaggle/time&#45;travel&#45;eda/activity/&#45;1842448220189130233</title>
<ellipse fill="none" stroke="black" cx="1451.35" cy="-387" rx="151.37" ry="18"/>
<text text-anchor="middle" x="1451.35" y="-383.3" font-family="Times,serif" font-size="14.00">&#45;1842448220189130233 (Visualisation)</text>
</g>
<!-- http://purl.org/dj/kaggle/time&#45;travel&#45;eda/activity/&#45;1842448220189130233&#45;&gt;http://purl.org/dj/kaggle/time&#45;travel&#45;eda/activity/7798768734651882327 -->
<g id="edge26" class="edge">
<title>http://purl.org/dj/kaggle/time&#45;travel&#45;eda/activity/&#45;1842448220189130233&#45;&gt;http://purl.org/dj/kaggle/time&#45;travel&#45;eda/activity/7798768734651882327</title>
<path fill="none" stroke="black" d="M1458.52,-368.84C1475.44,-325.35 1512.52,-209.37 1458.35,-141 1451.13,-131.89 1431.44,-124.92 1408.64,-119.69"/>
<polygon fill="black" stroke="black" points="1409.22,-116.23 1398.71,-117.55 1407.75,-123.07 1409.22,-116.23"/>
<text text-anchor="middle" x="1510.85" y="-242.3" font-family="Times,serif" font-size="14.00">previous</text>
</g>
<!-- http://purl.org/dj/kaggle/time&#45;travel&#45;eda/activity/&#45;1842448220189130233&#45;&gt;http://purl.org/dj/kaggle/time&#45;travel&#45;eda/activity/3025646260561829646 -->
<g id="edge27" class="edge">
<title>http://purl.org/dj/kaggle/time&#45;travel&#45;eda/activity/&#45;1842448220189130233&#45;&gt;http://purl.org/dj/kaggle/time&#45;travel&#45;eda/activity/3025646260561829646</title>
<path fill="none" stroke="black" d="M1385.32,-370.75C1331.96,-359.11 1254.73,-343.77 1186.35,-336 987.03,-313.34 935.38,-333.16 735.35,-318 721.36,-316.94 706.68,-315.59 692.18,-314.13"/>
<polygon fill="black" stroke="black" points="692.49,-310.64 682.18,-313.09 691.77,-317.6 692.49,-310.64"/>
<text text-anchor="middle" x="1305.85" y="-339.8" font-family="Times,serif" font-size="14.00">previous</text>
</g>
<!-- http://purl.org/dj/kaggle/time&#45;travel&#45;eda/activity/&#45;1842448220189130233&#45;&gt;http://purl.org/dj/kaggle/time&#45;travel&#45;eda/activity/7525109088310894674 -->
<g id="edge28" class="edge">
<title>http://purl.org/dj/kaggle/time&#45;travel&#45;eda/activity/&#45;1842448220189130233&#45;&gt;http://purl.org/dj/kaggle/time&#45;travel&#45;eda/activity/7525109088310894674</title>
<path fill="none" stroke="black" d="M1420.24,-369.31C1399.27,-358.61 1370.72,-345.06 1344.35,-336 1323.23,-328.74 1299.95,-322.55 1278.06,-317.47"/>
<polygon fill="black" stroke="black" points="1278.64,-314.02 1268.12,-315.22 1277.1,-320.84 1278.64,-314.02"/>
<text text-anchor="middle" x="1404.85" y="-339.8" font-family="Times,serif" font-size="14.00">previous</text>
</g>
<!-- http://purl.org/dj/kaggle/time&#45;travel&#45;eda/activity/&#45;7502193489437150021 -->
<g id="node14" class="node">
<title>http://purl.org/dj/kaggle/time&#45;travel&#45;eda/activity/&#45;7502193489437150021</title>
<ellipse fill="none" stroke="black" cx="2071.35" cy="-246" rx="145.67" ry="18"/>
<text text-anchor="middle" x="2071.35" y="-242.3" font-family="Times,serif" font-size="14.00">&#45;7502193489437150021 (Preparation)</text>
</g>
<!-- http://purl.org/dj/kaggle/time&#45;travel&#45;eda/activity/&#45;1842448220189130233&#45;&gt;http://purl.org/dj/kaggle/time&#45;travel&#45;eda/activity/&#45;7502193489437150021 -->
<g id="edge29" class="edge">
<title>http://purl.org/dj/kaggle/time&#45;travel&#45;eda/activity/&#45;1842448220189130233&#45;&gt;http://purl.org/dj/kaggle/time&#45;travel&#45;eda/activity/&#45;7502193489437150021</title>
<path fill="none" stroke="black" d="M1518.88,-370.86C1635.03,-344.82 1871.93,-291.71 1994.32,-264.27"/>
<polygon fill="black" stroke="black" points="1995.38,-267.62 2004.37,-262.02 1993.85,-260.79 1995.38,-267.62"/>
<text text-anchor="middle" x="1693.85" y="-339.8" font-family="Times,serif" font-size="14.00">previous</text>
</g>
<!-- http://purl.org/dj/kaggle/time&#45;travel&#45;eda/activity/&#45;7502193489437150021&#45;&gt;http://purl.org/dj/kaggle/time&#45;travel&#45;eda/activity/7798768734651882327 -->
<g id="edge30" class="edge">
<title>http://purl.org/dj/kaggle/time&#45;travel&#45;eda/activity/&#45;7502193489437150021&#45;&gt;http://purl.org/dj/kaggle/time&#45;travel&#45;eda/activity/7798768734651882327</title>
<path fill="none" stroke="black" d="M2210.07,-240.5C2306.33,-235.91 2419.95,-226.95 2435.35,-210 2446.11,-198.16 2446.23,-185.72 2435.35,-174 2401.96,-138.04 1730.6,-116.71 1440.74,-109.14"/>
<polygon fill="black" stroke="black" points="1440.68,-105.64 1430.59,-108.87 1440.49,-112.63 1440.68,-105.64"/>
<text text-anchor="middle" x="2466.85" y="-188.3" font-family="Times,serif" font-size="14.00">previous</text>
</g>
<!-- http://purl.org/dj/kaggle/time&#45;travel&#45;eda/activity/&#45;7053011187092660213 -->
<g id="node15" class="node">
<title>http://purl.org/dj/kaggle/time&#45;travel&#45;eda/activity/&#45;7053011187092660213</title>
<ellipse fill="none" stroke="black" cx="1971.35" cy="-192" rx="145.67" ry="18"/>
<text text-anchor="middle" x="1971.35" y="-188.3" font-family="Times,serif" font-size="14.00">&#45;7053011187092660213 (Preparation)</text>
</g>
<!-- http://purl.org/dj/kaggle/time&#45;travel&#45;eda/activity/&#45;7053011187092660213&#45;&gt;http://purl.org/dj/kaggle/time&#45;travel&#45;eda/activity/7798768734651882327 -->
<g id="edge31" class="edge">
<title>http://purl.org/dj/kaggle/time&#45;travel&#45;eda/activity/&#45;7053011187092660213&#45;&gt;http://purl.org/dj/kaggle/time&#45;travel&#45;eda/activity/7798768734651882327</title>
<path fill="none" stroke="black" d="M1878.9,-178.06C1804.29,-167.72 1696.62,-153.02 1602.35,-141 1539.55,-132.99 1469.1,-124.56 1413.02,-117.98"/>
<polygon fill="black" stroke="black" points="1413.42,-114.5 1403.08,-116.82 1412.61,-121.46 1413.42,-114.5"/>
<text text-anchor="middle" x="1737.85" y="-144.8" font-family="Times,serif" font-size="14.00">previous</text>
</g>
<!-- http://purl.org/dj/kaggle/time&#45;travel&#45;eda/activity/&#45;2158150632831264833 -->
<g id="node16" class="node">
<title>http://purl.org/dj/kaggle/time&#45;travel&#45;eda/activity/&#45;2158150632831264833</title>
<ellipse fill="none" stroke="black" cx="2280.35" cy="-192" rx="145.67" ry="18"/>
<text text-anchor="middle" x="2280.35" y="-188.3" font-family="Times,serif" font-size="14.00">&#45;2158150632831264833 (Preparation)</text>
</g>
<!-- http://purl.org/dj/kaggle/time&#45;travel&#45;eda/activity/&#45;2158150632831264833&#45;&gt;http://purl.org/dj/kaggle/time&#45;travel&#45;eda/activity/7798768734651882327 -->
<g id="edge32" class="edge">
<title>http://purl.org/dj/kaggle/time&#45;travel&#45;eda/activity/&#45;2158150632831264833&#45;&gt;http://purl.org/dj/kaggle/time&#45;travel&#45;eda/activity/7798768734651882327</title>
<path fill="none" stroke="black" d="M2176.83,-179.3C2159.96,-177.47 2142.67,-175.65 2126.35,-174 1966.05,-157.83 1925.89,-154.5 1765.35,-141 1650.76,-131.37 1519.89,-121.43 1427.83,-114.62"/>
<polygon fill="black" stroke="black" points="1427.87,-111.11 1417.64,-113.87 1427.35,-118.09 1427.87,-111.11"/>
<text text-anchor="middle" x="1962.85" y="-144.8" font-family="Times,serif" font-size="14.00">previous</text>
</g>
</g>
</svg>
