<?xml version="1.0" encoding="UTF-8" standalone="no"?>
<!DOCTYPE svg PUBLIC "-//W3C//DTD SVG 1.1//EN"
 "http://www.w3.org/Graphics/SVG/1.1/DTD/svg11.dtd">
<!-- Generated by graphviz version 2.47.1 (20210417.1919)
 -->
<!-- Pages: 1 -->
<svg width="2007pt" height="869pt"
 viewBox="0.00 0.00 2007.29 869.00" xmlns="http://www.w3.org/2000/svg" xmlns:xlink="http://www.w3.org/1999/xlink">
<g id="graph0" class="graph" transform="scale(1 1) rotate(0) translate(4 865)">
<polygon fill="white" stroke="transparent" points="-4,4 -4,-865 2003.29,-865 2003.29,4 -4,4"/>
<!-- http://purl.org/dj/kaggle/titanic&#45;lightgbm/activity/4441179086964511541 -->
<g id="node1" class="node">
<title>http://purl.org/dj/kaggle/titanic&#45;lightgbm/activity/4441179086964511541</title>
<ellipse fill="none" stroke="black" cx="500.29" cy="-300" rx="141.88" ry="18"/>
<text text-anchor="middle" x="500.29" y="-296.3" font-family="Times,serif" font-size="14.00">4441179086964511541 (Movement)</text>
</g>
<!-- http://purl.org/dj/kaggle/titanic&#45;lightgbm/activity/&#45;2389036021787997572 -->
<g id="node2" class="node">
<title>http://purl.org/dj/kaggle/titanic&#45;lightgbm/activity/&#45;2389036021787997572</title>
<ellipse fill="none" stroke="black" cx="836.29" cy="-192" rx="151.37" ry="18"/>
<text text-anchor="middle" x="836.29" y="-188.3" font-family="Times,serif" font-size="14.00">&#45;2389036021787997572 (Visualisation)</text>
</g>
<!-- http://purl.org/dj/kaggle/titanic&#45;lightgbm/activity/4441179086964511541&#45;&gt;http://purl.org/dj/kaggle/titanic&#45;lightgbm/activity/&#45;2389036021787997572 -->
<g id="edge1" class="edge">
<title>http://purl.org/dj/kaggle/titanic&#45;lightgbm/activity/4441179086964511541&#45;&gt;http://purl.org/dj/kaggle/titanic&#45;lightgbm/activity/&#45;2389036021787997572</title>
<path fill="none" stroke="black" d="M508.68,-281.83C518.58,-261.91 534.3,-231.36 539.29,-228 553.29,-218.56 629.8,-209.68 701.65,-203.22"/>
<polygon fill="black" stroke="black" points="702.1,-206.69 711.75,-202.32 701.48,-199.72 702.1,-206.69"/>
<text text-anchor="middle" x="562.79" y="-242.3" font-family="Times,serif" font-size="14.00">previous</text>
</g>
<!-- http://purl.org/dj/kaggle/titanic&#45;lightgbm/activity/459900336412209291 -->
<g id="node3" class="node">
<title>http://purl.org/dj/kaggle/titanic&#45;lightgbm/activity/459900336412209291</title>
<ellipse fill="none" stroke="black" cx="1098.29" cy="-105" rx="119.68" ry="18"/>
<text text-anchor="middle" x="1098.29" y="-101.3" font-family="Times,serif" font-size="14.00">459900336412209291 (Reuse)</text>
</g>
<!-- http://purl.org/dj/kaggle/titanic&#45;lightgbm/activity/4441179086964511541&#45;&gt;http://purl.org/dj/kaggle/titanic&#45;lightgbm/activity/459900336412209291 -->
<g id="edge2" class="edge">
<title>http://purl.org/dj/kaggle/titanic&#45;lightgbm/activity/4441179086964511541&#45;&gt;http://purl.org/dj/kaggle/titanic&#45;lightgbm/activity/459900336412209291</title>
<path fill="none" stroke="black" d="M501.57,-281.84C503.44,-266.53 508.03,-244.1 519.29,-228 519.89,-227.14 642.3,-141.36 643.29,-141 701.34,-120.19 857.04,-111.74 970.17,-108.32"/>
<polygon fill="black" stroke="black" points="970.4,-111.82 980.29,-108.03 970.19,-104.82 970.4,-111.82"/>
<text text-anchor="middle" x="618.79" y="-188.3" font-family="Times,serif" font-size="14.00">previous</text>
</g>
<!-- http://purl.org/dj/kaggle/titanic&#45;lightgbm/activity/&#45;7203906167064641724 -->
<g id="node4" class="node">
<title>http://purl.org/dj/kaggle/titanic&#45;lightgbm/activity/&#45;7203906167064641724</title>
<ellipse fill="none" stroke="black" cx="384.29" cy="-192" rx="151.37" ry="18"/>
<text text-anchor="middle" x="384.29" y="-188.3" font-family="Times,serif" font-size="14.00">&#45;7203906167064641724 (Visualisation)</text>
</g>
<!-- http://purl.org/dj/kaggle/titanic&#45;lightgbm/activity/4441179086964511541&#45;&gt;http://purl.org/dj/kaggle/titanic&#45;lightgbm/activity/&#45;7203906167064641724 -->
<g id="edge3" class="edge">
<title>http://purl.org/dj/kaggle/titanic&#45;lightgbm/activity/4441179086964511541&#45;&gt;http://purl.org/dj/kaggle/titanic&#45;lightgbm/activity/&#45;7203906167064641724</title>
<path fill="none" stroke="black" d="M469.73,-282.28C461.12,-276.95 452,-270.68 444.29,-264 428.58,-250.4 413.5,-232.52 402.39,-218.11"/>
<polygon fill="black" stroke="black" points="405.15,-215.95 396.33,-210.08 399.56,-220.17 405.15,-215.95"/>
<text text-anchor="middle" x="467.79" y="-242.3" font-family="Times,serif" font-size="14.00">previous</text>
</g>
<!-- http://purl.org/dj/kaggle/titanic&#45;lightgbm/activity/&#45;2389036021787997572&#45;&gt;http://purl.org/dj/kaggle/titanic&#45;lightgbm/activity/459900336412209291 -->
<g id="edge4" class="edge">
<title>http://purl.org/dj/kaggle/titanic&#45;lightgbm/activity/&#45;2389036021787997572&#45;&gt;http://purl.org/dj/kaggle/titanic&#45;lightgbm/activity/459900336412209291</title>
<path fill="none" stroke="black" d="M874.15,-174.53C898.94,-164.11 932.19,-150.8 962.29,-141 982.61,-134.38 1004.96,-128.19 1025.56,-122.91"/>
<polygon fill="black" stroke="black" points="1026.69,-126.24 1035.52,-120.4 1024.97,-119.45 1026.69,-126.24"/>
<text text-anchor="middle" x="985.79" y="-144.8" font-family="Times,serif" font-size="14.00">previous</text>
</g>
<!-- http://purl.org/dj/kaggle/titanic&#45;lightgbm -->
<g id="node5" class="node">
<title>http://purl.org/dj/kaggle/titanic&#45;lightgbm</title>
<ellipse fill="none" stroke="black" cx="159.29" cy="-18" rx="155.17" ry="18"/>
<text text-anchor="middle" x="159.29" y="-14.3" font-family="Times,serif" font-size="14.00">titanic&#45;lightgbm (titanic&#45;lightgbm.ipynb)</text>
</g>
<!-- http://purl.org/dj/kaggle/titanic&#45;lightgbm/activity/459900336412209291&#45;&gt;http://purl.org/dj/kaggle/titanic&#45;lightgbm -->
<g id="edge5" class="edge">
<title>http://purl.org/dj/kaggle/titanic&#45;lightgbm/activity/459900336412209291&#45;&gt;http://purl.org/dj/kaggle/titanic&#45;lightgbm</title>
<path fill="none" stroke="black" d="M998.69,-94.98C827.35,-79.47 477.02,-47.76 287.64,-30.62"/>
<polygon fill="black" stroke="black" points="287.9,-27.13 277.63,-29.71 287.27,-34.1 287.9,-27.13"/>
<text text-anchor="middle" x="707.79" y="-57.8" font-family="Times,serif" font-size="14.00">previous</text>
</g>
<!-- http://purl.org/dj/kaggle/titanic&#45;lightgbm/activity/&#45;7203906167064641724&#45;&gt;http://purl.org/dj/kaggle/titanic&#45;lightgbm/activity/459900336412209291 -->
<g id="edge6" class="edge">
<title>http://purl.org/dj/kaggle/titanic&#45;lightgbm/activity/&#45;7203906167064641724&#45;&gt;http://purl.org/dj/kaggle/titanic&#45;lightgbm/activity/459900336412209291</title>
<path fill="none" stroke="black" d="M417.58,-174.4C442.46,-162.84 477.66,-148.25 510.29,-141 594.74,-122.24 824.39,-112.99 970.43,-108.87"/>
<polygon fill="black" stroke="black" points="970.9,-112.36 980.8,-108.58 970.71,-105.36 970.9,-112.36"/>
<text text-anchor="middle" x="533.79" y="-144.8" font-family="Times,serif" font-size="14.00">previous</text>
</g>
<!-- http://purl.org/dj/kaggle/titanic&#45;lightgbm/activity/&#45;7203906167064641724&#45;&gt;http://purl.org/dj/kaggle/titanic&#45;lightgbm -->
<g id="edge7" class="edge">
<title>http://purl.org/dj/kaggle/titanic&#45;lightgbm/activity/&#45;7203906167064641724&#45;&gt;http://purl.org/dj/kaggle/titanic&#45;lightgbm</title>
<path fill="none" stroke="black" d="M361.89,-173.88C321.29,-142.84 235.5,-77.26 189.67,-42.22"/>
<polygon fill="black" stroke="black" points="191.66,-39.34 181.59,-36.05 187.41,-44.91 191.66,-39.34"/>
<text text-anchor="middle" x="317.79" y="-101.3" font-family="Times,serif" font-size="14.00">previous</text>
</g>
<!-- http://purl.org/dj/kaggle/titanic&#45;lightgbm/activity/&#45;1820955374779285433 -->
<g id="node6" class="node">
<title>http://purl.org/dj/kaggle/titanic&#45;lightgbm/activity/&#45;1820955374779285433</title>
<ellipse fill="none" stroke="black" cx="495.29" cy="-387" rx="151.37" ry="18"/>
<text text-anchor="middle" x="495.29" y="-383.3" font-family="Times,serif" font-size="14.00">&#45;1820955374779285433 (Visualisation)</text>
</g>
<!-- http://purl.org/dj/kaggle/titanic&#45;lightgbm/activity/&#45;1820955374779285433&#45;&gt;http://purl.org/dj/kaggle/titanic&#45;lightgbm/activity/4441179086964511541 -->
<g id="edge8" class="edge">
<title>http://purl.org/dj/kaggle/titanic&#45;lightgbm/activity/&#45;1820955374779285433&#45;&gt;http://purl.org/dj/kaggle/titanic&#45;lightgbm/activity/4441179086964511541</title>
<path fill="none" stroke="black" d="M496.3,-368.8C496.98,-357.16 497.9,-341.55 498.69,-328.24"/>
<polygon fill="black" stroke="black" points="502.18,-328.36 499.28,-318.18 495.2,-327.95 502.18,-328.36"/>
<text text-anchor="middle" x="520.79" y="-339.8" font-family="Times,serif" font-size="14.00">previous</text>
</g>
<!-- http://purl.org/dj/kaggle/titanic&#45;lightgbm/activity/&#45;5569445642450011541 -->
<g id="node7" class="node">
<title>http://purl.org/dj/kaggle/titanic&#45;lightgbm/activity/&#45;5569445642450011541</title>
<ellipse fill="none" stroke="black" cx="1070.29" cy="-561" rx="145.67" ry="18"/>
<text text-anchor="middle" x="1070.29" y="-557.3" font-family="Times,serif" font-size="14.00">&#45;5569445642450011541 (Preparation)</text>
</g>
<!-- http://purl.org/dj/kaggle/titanic&#45;lightgbm/activity/&#45;5569445642450011541&#45;&gt;http://purl.org/dj/kaggle/titanic&#45;lightgbm/activity/459900336412209291 -->
<g id="edge9" class="edge">
<title>http://purl.org/dj/kaggle/titanic&#45;lightgbm/activity/&#45;5569445642450011541&#45;&gt;http://purl.org/dj/kaggle/titanic&#45;lightgbm/activity/459900336412209291</title>
<path fill="none" stroke="black" d="M1119.74,-543.94C1149.74,-530.75 1182.29,-508.69 1182.29,-475 1182.29,-475 1182.29,-475 1182.29,-191 1182.29,-164.08 1160.7,-142.61 1139.41,-127.98"/>
<polygon fill="black" stroke="black" points="1141.3,-125.03 1131,-122.52 1137.49,-130.9 1141.3,-125.03"/>
<text text-anchor="middle" x="1205.79" y="-339.8" font-family="Times,serif" font-size="14.00">previous</text>
</g>
<!-- http://purl.org/dj/kaggle/titanic&#45;lightgbm/activity/&#45;8870238642579355067 -->
<g id="node8" class="node">
<title>http://purl.org/dj/kaggle/titanic&#45;lightgbm/activity/&#45;8870238642579355067</title>
<ellipse fill="none" stroke="black" cx="928.29" cy="-474" rx="151.37" ry="18"/>
<text text-anchor="middle" x="928.29" y="-470.3" font-family="Times,serif" font-size="14.00">&#45;8870238642579355067 (Visualisation)</text>
</g>
<!-- http://purl.org/dj/kaggle/titanic&#45;lightgbm/activity/&#45;5569445642450011541&#45;&gt;http://purl.org/dj/kaggle/titanic&#45;lightgbm/activity/&#45;8870238642579355067 -->
<g id="edge10" class="edge">
<title>http://purl.org/dj/kaggle/titanic&#45;lightgbm/activity/&#45;5569445642450011541&#45;&gt;http://purl.org/dj/kaggle/titanic&#45;lightgbm/activity/&#45;8870238642579355067</title>
<path fill="none" stroke="black" d="M1042.23,-543.21C1020.16,-529.99 989.21,-511.47 965.14,-497.06"/>
<polygon fill="black" stroke="black" points="966.66,-493.89 956.28,-491.76 963.07,-499.9 966.66,-493.89"/>
<text text-anchor="middle" x="1030.79" y="-513.8" font-family="Times,serif" font-size="14.00">previous</text>
</g>
<!-- http://purl.org/dj/kaggle/titanic&#45;lightgbm/activity/&#45;8870238642579355067&#45;&gt;http://purl.org/dj/kaggle/titanic&#45;lightgbm/activity/459900336412209291 -->
<g id="edge11" class="edge">
<title>http://purl.org/dj/kaggle/titanic&#45;lightgbm/activity/&#45;8870238642579355067&#45;&gt;http://purl.org/dj/kaggle/titanic&#45;lightgbm/activity/459900336412209291</title>
<path fill="none" stroke="black" d="M957.68,-456.13C976.46,-444.03 1000.06,-426.16 1015.29,-405 1076.94,-319.32 1092.84,-189.64 1096.91,-133.5"/>
<polygon fill="black" stroke="black" points="1100.41,-133.5 1097.57,-123.29 1093.43,-133.04 1100.41,-133.5"/>
<text text-anchor="middle" x="1093.79" y="-296.3" font-family="Times,serif" font-size="14.00">previous</text>
</g>
<!-- http://purl.org/dj/kaggle/titanic&#45;lightgbm/activity/&#45;7766277064441538710 -->
<g id="node9" class="node">
<title>http://purl.org/dj/kaggle/titanic&#45;lightgbm/activity/&#45;7766277064441538710</title>
<ellipse fill="none" stroke="black" cx="861.29" cy="-300" rx="145.67" ry="18"/>
<text text-anchor="middle" x="861.29" y="-296.3" font-family="Times,serif" font-size="14.00">&#45;7766277064441538710 (Preparation)</text>
</g>
<!-- http://purl.org/dj/kaggle/titanic&#45;lightgbm/activity/&#45;8870238642579355067&#45;&gt;http://purl.org/dj/kaggle/titanic&#45;lightgbm/activity/&#45;7766277064441538710 -->
<g id="edge12" class="edge">
<title>http://purl.org/dj/kaggle/titanic&#45;lightgbm/activity/&#45;8870238642579355067&#45;&gt;http://purl.org/dj/kaggle/titanic&#45;lightgbm/activity/&#45;7766277064441538710</title>
<path fill="none" stroke="black" d="M940.96,-456.03C955.15,-434.79 974.31,-397.71 959.29,-369 948.68,-348.73 928.97,-333.28 909.99,-322.28"/>
<polygon fill="black" stroke="black" points="911.52,-319.13 901.07,-317.39 908.15,-325.26 911.52,-319.13"/>
<text text-anchor="middle" x="987.79" y="-383.3" font-family="Times,serif" font-size="14.00">previous</text>
</g>
<!-- http://purl.org/dj/kaggle/titanic&#45;lightgbm/activity/4045347227751149249 -->
<g id="node10" class="node">
<title>http://purl.org/dj/kaggle/titanic&#45;lightgbm/activity/4045347227751149249</title>
<ellipse fill="none" stroke="black" cx="807.29" cy="-387" rx="142.97" ry="18"/>
<text text-anchor="middle" x="807.29" y="-383.3" font-family="Times,serif" font-size="14.00">4045347227751149249 (Preparation)</text>
</g>
<!-- http://purl.org/dj/kaggle/titanic&#45;lightgbm/activity/&#45;8870238642579355067&#45;&gt;http://purl.org/dj/kaggle/titanic&#45;lightgbm/activity/4045347227751149249 -->
<g id="edge13" class="edge">
<title>http://purl.org/dj/kaggle/titanic&#45;lightgbm/activity/&#45;8870238642579355067&#45;&gt;http://purl.org/dj/kaggle/titanic&#45;lightgbm/activity/4045347227751149249</title>
<path fill="none" stroke="black" d="M904.38,-456.21C885.82,-443.17 859.9,-424.96 839.51,-410.63"/>
<polygon fill="black" stroke="black" points="841.34,-407.64 831.14,-404.76 837.31,-413.37 841.34,-407.64"/>
<text text-anchor="middle" x="897.79" y="-426.8" font-family="Times,serif" font-size="14.00">previous</text>
</g>
<!-- http://purl.org/dj/kaggle/titanic&#45;lightgbm/activity/&#45;7766277064441538710&#45;&gt;http://purl.org/dj/kaggle/titanic&#45;lightgbm/activity/&#45;2389036021787997572 -->
<g id="edge14" class="edge">
<title>http://purl.org/dj/kaggle/titanic&#45;lightgbm/activity/&#45;7766277064441538710&#45;&gt;http://purl.org/dj/kaggle/titanic&#45;lightgbm/activity/&#45;2389036021787997572</title>
<path fill="none" stroke="black" d="M857.27,-281.97C853.34,-265.3 847.29,-239.65 842.69,-220.16"/>
<polygon fill="black" stroke="black" points="846.08,-219.27 840.38,-210.34 839.27,-220.88 846.08,-219.27"/>
<text text-anchor="middle" x="875.79" y="-242.3" font-family="Times,serif" font-size="14.00">previous</text>
</g>
<!-- http://purl.org/dj/kaggle/titanic&#45;lightgbm/activity/&#45;7766277064441538710&#45;&gt;http://purl.org/dj/kaggle/titanic&#45;lightgbm/activity/459900336412209291 -->
<g id="edge15" class="edge">
<title>http://purl.org/dj/kaggle/titanic&#45;lightgbm/activity/&#45;7766277064441538710&#45;&gt;http://purl.org/dj/kaggle/titanic&#45;lightgbm/activity/459900336412209291</title>
<path fill="none" stroke="black" d="M890.44,-282.26C918.65,-265.49 962.05,-238.2 996.29,-210 1026.37,-185.23 1057.19,-152.6 1076.96,-130.55"/>
<polygon fill="black" stroke="black" points="1079.7,-132.74 1083.72,-122.94 1074.47,-128.09 1079.7,-132.74"/>
<text text-anchor="middle" x="1058.79" y="-188.3" font-family="Times,serif" font-size="14.00">previous</text>
</g>
<!-- http://purl.org/dj/kaggle/titanic&#45;lightgbm/activity/&#45;7766277064441538710&#45;&gt;http://purl.org/dj/kaggle/titanic&#45;lightgbm/activity/&#45;7203906167064641724 -->
<g id="edge16" class="edge">
<title>http://purl.org/dj/kaggle/titanic&#45;lightgbm/activity/&#45;7766277064441538710&#45;&gt;http://purl.org/dj/kaggle/titanic&#45;lightgbm/activity/&#45;7203906167064641724</title>
<path fill="none" stroke="black" d="M734.26,-291.18C682.77,-286.02 630.48,-277.59 609.29,-264 593.3,-253.75 602.1,-238.51 586.29,-228 572.06,-218.54 540.09,-211.25 505.68,-205.83"/>
<polygon fill="black" stroke="black" points="505.85,-202.32 495.43,-204.29 504.8,-209.24 505.85,-202.32"/>
<text text-anchor="middle" x="632.79" y="-242.3" font-family="Times,serif" font-size="14.00">previous</text>
</g>
<!-- http://purl.org/dj/kaggle/titanic&#45;lightgbm/activity/4045347227751149249&#45;&gt;http://purl.org/dj/kaggle/titanic&#45;lightgbm/activity/4441179086964511541 -->
<g id="edge28" class="edge">
<title>http://purl.org/dj/kaggle/titanic&#45;lightgbm/activity/4045347227751149249&#45;&gt;http://purl.org/dj/kaggle/titanic&#45;lightgbm/activity/4441179086964511541</title>
<path fill="none" stroke="black" d="M714.98,-373.23C683.62,-367.77 648.6,-360.45 617.29,-351 591.96,-343.36 564.72,-331.92 542.9,-321.91"/>
<polygon fill="black" stroke="black" points="544.14,-318.63 533.59,-317.58 541.18,-324.98 544.14,-318.63"/>
<text text-anchor="middle" x="640.79" y="-339.8" font-family="Times,serif" font-size="14.00">previous</text>
</g>
<!-- http://purl.org/dj/kaggle/titanic&#45;lightgbm/activity/4045347227751149249&#45;&gt;http://purl.org/dj/kaggle/titanic&#45;lightgbm/activity/459900336412209291 -->
<g id="edge29" class="edge">
<title>http://purl.org/dj/kaggle/titanic&#45;lightgbm/activity/4045347227751149249&#45;&gt;http://purl.org/dj/kaggle/titanic&#45;lightgbm/activity/459900336412209291</title>
<path fill="none" stroke="black" d="M770.64,-369.52C748.95,-358.01 722.6,-340.63 706.29,-318 668.06,-264.97 633.9,-223.77 676.29,-174 713.59,-130.21 860.48,-114.52 970.55,-108.95"/>
<polygon fill="black" stroke="black" points="970.92,-112.44 980.74,-108.46 970.59,-105.45 970.92,-112.44"/>
<text text-anchor="middle" x="691.79" y="-242.3" font-family="Times,serif" font-size="14.00">previous</text>
</g>
<!-- http://purl.org/dj/kaggle/titanic&#45;lightgbm/activity/&#45;1974178065361561364 -->
<g id="node11" class="node">
<title>http://purl.org/dj/kaggle/titanic&#45;lightgbm/activity/&#45;1974178065361561364</title>
<ellipse fill="none" stroke="black" cx="1084.29" cy="-756" rx="135.68" ry="18"/>
<text text-anchor="middle" x="1084.29" y="-752.3" font-family="Times,serif" font-size="14.00">&#45;1974178065361561364 (Analysis)</text>
</g>
<!-- http://purl.org/dj/kaggle/titanic&#45;lightgbm/activity/&#45;1974178065361561364&#45;&gt;http://purl.org/dj/kaggle/titanic&#45;lightgbm/activity/&#45;7203906167064641724 -->
<g id="edge17" class="edge">
<title>http://purl.org/dj/kaggle/titanic&#45;lightgbm/activity/&#45;1974178065361561364&#45;&gt;http://purl.org/dj/kaggle/titanic&#45;lightgbm/activity/&#45;7203906167064641724</title>
<path fill="none" stroke="black" d="M949.63,-753.52C729.37,-749.29 316.29,-732.97 316.29,-670 316.29,-670 316.29,-670 316.29,-299 316.29,-267.01 338.5,-236.96 357.53,-217.09"/>
<polygon fill="black" stroke="black" points="360.03,-219.54 364.62,-209.98 355.08,-214.59 360.03,-219.54"/>
<text text-anchor="middle" x="339.79" y="-470.3" font-family="Times,serif" font-size="14.00">previous</text>
</g>
<!-- http://purl.org/dj/kaggle/titanic&#45;lightgbm/activity/&#45;1974178065361561364&#45;&gt;http://purl.org/dj/kaggle/titanic&#45;lightgbm/activity/&#45;8870238642579355067 -->
<g id="edge18" class="edge">
<title>http://purl.org/dj/kaggle/titanic&#45;lightgbm/activity/&#45;1974178065361561364&#45;&gt;http://purl.org/dj/kaggle/titanic&#45;lightgbm/activity/&#45;8870238642579355067</title>
<path fill="none" stroke="black" d="M986.41,-743.47C916.88,-733.03 832.14,-714.94 810.29,-687 761.37,-624.46 848.47,-539.07 897.8,-498.4"/>
<polygon fill="black" stroke="black" points="900.09,-501.04 905.66,-492.03 895.69,-495.61 900.09,-501.04"/>
<text text-anchor="middle" x="832.79" y="-611.3" font-family="Times,serif" font-size="14.00">previous</text>
</g>
<!-- http://purl.org/dj/kaggle/titanic&#45;lightgbm/activity/4278786779019352396 -->
<g id="node12" class="node">
<title>http://purl.org/dj/kaggle/titanic&#45;lightgbm/activity/4278786779019352396</title>
<ellipse fill="none" stroke="black" cx="968.29" cy="-669" rx="148.67" ry="18"/>
<text text-anchor="middle" x="968.29" y="-665.3" font-family="Times,serif" font-size="14.00">4278786779019352396 (Visualisation)</text>
</g>
<!-- http://purl.org/dj/kaggle/titanic&#45;lightgbm/activity/&#45;1974178065361561364&#45;&gt;http://purl.org/dj/kaggle/titanic&#45;lightgbm/activity/4278786779019352396 -->
<g id="edge19" class="edge">
<title>http://purl.org/dj/kaggle/titanic&#45;lightgbm/activity/&#45;1974178065361561364&#45;&gt;http://purl.org/dj/kaggle/titanic&#45;lightgbm/activity/4278786779019352396</title>
<path fill="none" stroke="black" d="M1061.37,-738.21C1043.77,-725.31 1019.27,-707.36 999.82,-693.1"/>
<polygon fill="black" stroke="black" points="1001.69,-690.14 991.55,-687.05 997.55,-695.78 1001.69,-690.14"/>
<text text-anchor="middle" x="1055.79" y="-708.8" font-family="Times,serif" font-size="14.00">previous</text>
</g>
<!-- http://purl.org/dj/kaggle/titanic&#45;lightgbm/activity/&#45;3774132892174042352 -->
<g id="node13" class="node">
<title>http://purl.org/dj/kaggle/titanic&#45;lightgbm/activity/&#45;3774132892174042352</title>
<ellipse fill="none" stroke="black" cx="1324.29" cy="-669" rx="151.37" ry="18"/>
<text text-anchor="middle" x="1324.29" y="-665.3" font-family="Times,serif" font-size="14.00">&#45;3774132892174042352 (Visualisation)</text>
</g>
<!-- http://purl.org/dj/kaggle/titanic&#45;lightgbm/activity/&#45;1974178065361561364&#45;&gt;http://purl.org/dj/kaggle/titanic&#45;lightgbm/activity/&#45;3774132892174042352 -->
<g id="edge20" class="edge">
<title>http://purl.org/dj/kaggle/titanic&#45;lightgbm/activity/&#45;1974178065361561364&#45;&gt;http://purl.org/dj/kaggle/titanic&#45;lightgbm/activity/&#45;3774132892174042352</title>
<path fill="none" stroke="black" d="M1136.96,-739.37C1155.77,-733.57 1177.07,-726.75 1196.29,-720 1222.5,-710.8 1251.35,-699.62 1275.02,-690.17"/>
<polygon fill="black" stroke="black" points="1276.51,-693.34 1284.49,-686.37 1273.9,-686.85 1276.51,-693.34"/>
<text text-anchor="middle" x="1257.79" y="-708.8" font-family="Times,serif" font-size="14.00">previous</text>
</g>
<!-- http://purl.org/dj/kaggle/titanic&#45;lightgbm/activity/1192822156663810795 -->
<g id="node14" class="node">
<title>http://purl.org/dj/kaggle/titanic&#45;lightgbm/activity/1192822156663810795</title>
<ellipse fill="none" stroke="black" cx="1200.29" cy="-615" rx="148.67" ry="18"/>
<text text-anchor="middle" x="1200.29" y="-611.3" font-family="Times,serif" font-size="14.00">1192822156663810795 (Visualisation)</text>
</g>
<!-- http://purl.org/dj/kaggle/titanic&#45;lightgbm/activity/&#45;1974178065361561364&#45;&gt;http://purl.org/dj/kaggle/titanic&#45;lightgbm/activity/1192822156663810795 -->
<g id="edge21" class="edge">
<title>http://purl.org/dj/kaggle/titanic&#45;lightgbm/activity/&#45;1974178065361561364&#45;&gt;http://purl.org/dj/kaggle/titanic&#45;lightgbm/activity/1192822156663810795</title>
<path fill="none" stroke="black" d="M1096.32,-737.84C1111.39,-716.72 1138.38,-680.09 1164.29,-651 1167.52,-647.37 1171.06,-643.65 1174.61,-640.07"/>
<polygon fill="black" stroke="black" points="1177.16,-642.47 1181.83,-632.96 1172.25,-637.48 1177.16,-642.47"/>
<text text-anchor="middle" x="1142.79" y="-708.8" font-family="Times,serif" font-size="14.00">previous</text>
</g>
<!-- http://purl.org/dj/kaggle/titanic&#45;lightgbm/activity/4278786779019352396&#45;&gt;http://purl.org/dj/kaggle/titanic&#45;lightgbm/activity/459900336412209291 -->
<g id="edge22" class="edge">
<title>http://purl.org/dj/kaggle/titanic&#45;lightgbm/activity/4278786779019352396&#45;&gt;http://purl.org/dj/kaggle/titanic&#45;lightgbm/activity/459900336412209291</title>
<path fill="none" stroke="black" d="M936.21,-651.27C929.55,-646.29 923.34,-640.2 919.29,-633 899.66,-598.1 888.8,-573.03 915.29,-543 936.47,-518.98 1029.86,-539.76 1058.29,-525 1143.63,-480.67 1112.29,-413.74 1121.29,-318 1126.47,-262.87 1112.3,-156.26 1109.29,-141 1108.76,-138.34 1108.11,-135.59 1107.38,-132.87"/>
<polygon fill="black" stroke="black" points="1110.73,-131.85 1104.54,-123.25 1104.02,-133.83 1110.73,-131.85"/>
<text text-anchor="middle" x="1142.79" y="-383.3" font-family="Times,serif" font-size="14.00">previous</text>
</g>
<!-- http://purl.org/dj/kaggle/titanic&#45;lightgbm/activity/4278786779019352396&#45;&gt;http://purl.org/dj/kaggle/titanic&#45;lightgbm/activity/&#45;5569445642450011541 -->
<g id="edge23" class="edge">
<title>http://purl.org/dj/kaggle/titanic&#45;lightgbm/activity/4278786779019352396&#45;&gt;http://purl.org/dj/kaggle/titanic&#45;lightgbm/activity/&#45;5569445642450011541</title>
<path fill="none" stroke="black" d="M943.97,-651.18C938.44,-646.04 933.31,-639.9 930.29,-633 923.86,-618.35 920.44,-609.61 930.29,-597 936.42,-589.14 952.26,-582.79 971.19,-577.77"/>
<polygon fill="black" stroke="black" points="972.15,-581.13 981.01,-575.33 970.46,-574.34 972.15,-581.13"/>
<text text-anchor="middle" x="953.79" y="-611.3" font-family="Times,serif" font-size="14.00">previous</text>
</g>
<!-- http://purl.org/dj/kaggle/titanic&#45;lightgbm/activity/&#45;3774132892174042352&#45;&gt;http://purl.org/dj/kaggle/titanic&#45;lightgbm/activity/459900336412209291 -->
<g id="edge24" class="edge">
<title>http://purl.org/dj/kaggle/titanic&#45;lightgbm/activity/&#45;3774132892174042352&#45;&gt;http://purl.org/dj/kaggle/titanic&#45;lightgbm/activity/459900336412209291</title>
<path fill="none" stroke="black" d="M1340.21,-651.09C1344.3,-645.71 1348.15,-639.47 1350.29,-633 1355.31,-617.81 1352,-612.91 1350.29,-597 1329.72,-405.71 1333.4,-351.13 1258.29,-174 1251.41,-157.77 1250.68,-151.18 1236.29,-141 1223.79,-132.16 1209.26,-125.55 1194.42,-120.61"/>
<polygon fill="black" stroke="black" points="1195.22,-117.19 1184.64,-117.59 1193.16,-123.88 1195.22,-117.19"/>
<text text-anchor="middle" x="1351.79" y="-383.3" font-family="Times,serif" font-size="14.00">previous</text>
</g>
<!-- http://purl.org/dj/kaggle/titanic&#45;lightgbm/activity/&#45;3774132892174042352&#45;&gt;http://purl.org/dj/kaggle/titanic&#45;lightgbm/activity/&#45;5569445642450011541 -->
<g id="edge25" class="edge">
<title>http://purl.org/dj/kaggle/titanic&#45;lightgbm/activity/&#45;3774132892174042352&#45;&gt;http://purl.org/dj/kaggle/titanic&#45;lightgbm/activity/&#45;5569445642450011541</title>
<path fill="none" stroke="black" d="M1207.78,-657.42C1114.62,-648.67 998.94,-637.06 995.29,-633 984.59,-621.1 986.69,-610.5 995.29,-597 998.6,-591.8 1002.91,-587.36 1007.79,-583.57"/>
<polygon fill="black" stroke="black" points="1010.09,-586.24 1016.47,-577.78 1006.2,-580.42 1010.09,-586.24"/>
<text text-anchor="middle" x="1018.79" y="-611.3" font-family="Times,serif" font-size="14.00">previous</text>
</g>
<!-- http://purl.org/dj/kaggle/titanic&#45;lightgbm/activity/1192822156663810795&#45;&gt;http://purl.org/dj/kaggle/titanic&#45;lightgbm/activity/459900336412209291 -->
<g id="edge26" class="edge">
<title>http://purl.org/dj/kaggle/titanic&#45;lightgbm/activity/1192822156663810795&#45;&gt;http://purl.org/dj/kaggle/titanic&#45;lightgbm/activity/459900336412209291</title>
<path fill="none" stroke="black" d="M1214.15,-596.88C1218.13,-591.4 1222.22,-585.15 1225.29,-579 1237.86,-553.77 1244.29,-546.68 1244.29,-518.5 1244.29,-518.5 1244.29,-518.5 1244.29,-191 1244.29,-156.01 1212.59,-135.18 1178.73,-122.9"/>
<polygon fill="black" stroke="black" points="1179.74,-119.55 1169.15,-119.66 1177.5,-126.18 1179.74,-119.55"/>
<text text-anchor="middle" x="1267.79" y="-383.3" font-family="Times,serif" font-size="14.00">previous</text>
</g>
<!-- http://purl.org/dj/kaggle/titanic&#45;lightgbm/activity/&#45;3498651821763926492 -->
<g id="node15" class="node">
<title>http://purl.org/dj/kaggle/titanic&#45;lightgbm/activity/&#45;3498651821763926492</title>
<ellipse fill="none" stroke="black" cx="154.29" cy="-246" rx="144.07" ry="18"/>
<text text-anchor="middle" x="154.29" y="-242.3" font-family="Times,serif" font-size="14.00">&#45;3498651821763926492 (Movement)</text>
</g>
<!-- http://purl.org/dj/kaggle/titanic&#45;lightgbm/activity/&#45;3498651821763926492&#45;&gt;http://purl.org/dj/kaggle/titanic&#45;lightgbm/activity/459900336412209291 -->
<g id="edge27" class="edge">
<title>http://purl.org/dj/kaggle/titanic&#45;lightgbm/activity/&#45;3498651821763926492&#45;&gt;http://purl.org/dj/kaggle/titanic&#45;lightgbm/activity/459900336412209291</title>
<path fill="none" stroke="black" d="M154.83,-227.77C156.34,-211.29 161.36,-187.06 177.29,-174 237.1,-124.95 730.09,-111.21 969.19,-107.42"/>
<polygon fill="black" stroke="black" points="969.39,-110.91 979.34,-107.26 969.29,-103.92 969.39,-110.91"/>
<text text-anchor="middle" x="200.79" y="-188.3" font-family="Times,serif" font-size="14.00">previous</text>
</g>
<!-- http://purl.org/dj/kaggle/titanic&#45;lightgbm/activity/9074998455529861080 -->
<g id="node16" class="node">
<title>http://purl.org/dj/kaggle/titanic&#45;lightgbm/activity/9074998455529861080</title>
<ellipse fill="none" stroke="black" cx="1718.29" cy="-843" rx="148.67" ry="18"/>
<text text-anchor="middle" x="1718.29" y="-839.3" font-family="Times,serif" font-size="14.00">9074998455529861080 (Visualisation)</text>
</g>
<!-- http://purl.org/dj/kaggle/titanic&#45;lightgbm/activity/9074998455529861080&#45;&gt;http://purl.org/dj/kaggle/titanic&#45;lightgbm/activity/459900336412209291 -->
<g id="edge30" class="edge">
<title>http://purl.org/dj/kaggle/titanic&#45;lightgbm/activity/9074998455529861080&#45;&gt;http://purl.org/dj/kaggle/titanic&#45;lightgbm/activity/459900336412209291</title>
<path fill="none" stroke="black" d="M1800.79,-827.99C1868.16,-814.12 1952.29,-790.17 1952.29,-757 1952.29,-757 1952.29,-757 1952.29,-191 1952.29,-119.12 1467.01,-107.31 1228.07,-105.85"/>
<polygon fill="black" stroke="black" points="1227.95,-102.35 1217.93,-105.79 1227.91,-109.35 1227.95,-102.35"/>
<text text-anchor="middle" x="1975.79" y="-470.3" font-family="Times,serif" font-size="14.00">previous</text>
</g>
<!-- http://purl.org/dj/kaggle/titanic&#45;lightgbm/activity/9074998455529861080&#45;&gt;http://purl.org/dj/kaggle/titanic&#45;lightgbm/activity/&#45;1974178065361561364 -->
<g id="edge31" class="edge">
<title>http://purl.org/dj/kaggle/titanic&#45;lightgbm/activity/9074998455529861080&#45;&gt;http://purl.org/dj/kaggle/titanic&#45;lightgbm/activity/&#45;1974178065361561364</title>
<path fill="none" stroke="black" d="M1622.68,-829.18C1505.09,-813.42 1306.31,-786.77 1185.99,-770.63"/>
<polygon fill="black" stroke="black" points="1186.4,-767.16 1176.03,-769.3 1185.47,-774.1 1186.4,-767.16"/>
<text text-anchor="middle" x="1461.79" y="-795.8" font-family="Times,serif" font-size="14.00">previous</text>
</g>
<!-- http://purl.org/dj/kaggle/titanic&#45;lightgbm/activity/7775034068390473059 -->
<g id="node17" class="node">
<title>http://purl.org/dj/kaggle/titanic&#45;lightgbm/activity/7775034068390473059</title>
<ellipse fill="none" stroke="black" cx="1459.29" cy="-192" rx="148.67" ry="18"/>
<text text-anchor="middle" x="1459.29" y="-188.3" font-family="Times,serif" font-size="14.00">7775034068390473059 (Visualisation)</text>
</g>
<!-- http://purl.org/dj/kaggle/titanic&#45;lightgbm/activity/7775034068390473059&#45;&gt;http://purl.org/dj/kaggle/titanic&#45;lightgbm/activity/459900336412209291 -->
<g id="edge32" class="edge">
<title>http://purl.org/dj/kaggle/titanic&#45;lightgbm/activity/7775034068390473059&#45;&gt;http://purl.org/dj/kaggle/titanic&#45;lightgbm/activity/459900336412209291</title>
<path fill="none" stroke="black" d="M1412.28,-174.9C1379.94,-164.25 1335.86,-150.53 1296.29,-141 1261.99,-132.74 1223.92,-125.55 1190.4,-119.87"/>
<polygon fill="black" stroke="black" points="1190.6,-116.35 1180.15,-118.16 1189.44,-123.26 1190.6,-116.35"/>
<text text-anchor="middle" x="1373.79" y="-144.8" font-family="Times,serif" font-size="14.00">previous</text>
</g>
<!-- http://purl.org/dj/kaggle/titanic&#45;lightgbm/activity/1978112825477497405 -->
<g id="node18" class="node">
<title>http://purl.org/dj/kaggle/titanic&#45;lightgbm/activity/1978112825477497405</title>
<ellipse fill="none" stroke="black" cx="1775.29" cy="-192" rx="148.67" ry="18"/>
<text text-anchor="middle" x="1775.29" y="-188.3" font-family="Times,serif" font-size="14.00">1978112825477497405 (Visualisation)</text>
</g>
<!-- http://purl.org/dj/kaggle/titanic&#45;lightgbm/activity/1978112825477497405&#45;&gt;http://purl.org/dj/kaggle/titanic&#45;lightgbm/activity/459900336412209291 -->
<g id="edge33" class="edge">
<title>http://purl.org/dj/kaggle/titanic&#45;lightgbm/activity/1978112825477497405&#45;&gt;http://purl.org/dj/kaggle/titanic&#45;lightgbm/activity/459900336412209291</title>
<path fill="none" stroke="black" d="M1681.59,-178C1605.98,-167.62 1496.85,-152.91 1401.29,-141 1334.85,-132.72 1260.13,-124.08 1201.51,-117.46"/>
<polygon fill="black" stroke="black" points="1201.83,-113.97 1191.5,-116.33 1201.05,-120.93 1201.83,-113.97"/>
<text text-anchor="middle" x="1537.79" y="-144.8" font-family="Times,serif" font-size="14.00">previous</text>
</g>
<!-- http://purl.org/dj/kaggle/titanic&#45;lightgbm/activity/238318360988364555 -->
<g id="node19" class="node">
<title>http://purl.org/dj/kaggle/titanic&#45;lightgbm/activity/238318360988364555</title>
<ellipse fill="none" stroke="black" cx="144.29" cy="-387" rx="144.07" ry="18"/>
<text text-anchor="middle" x="144.29" y="-383.3" font-family="Times,serif" font-size="14.00">238318360988364555 (Visualisation)</text>
</g>
<!-- http://purl.org/dj/kaggle/titanic&#45;lightgbm/activity/238318360988364555&#45;&gt;http://purl.org/dj/kaggle/titanic&#45;lightgbm/activity/4441179086964511541 -->
<g id="edge34" class="edge">
<title>http://purl.org/dj/kaggle/titanic&#45;lightgbm/activity/238318360988364555&#45;&gt;http://purl.org/dj/kaggle/titanic&#45;lightgbm/activity/4441179086964511541</title>
<path fill="none" stroke="black" d="M207.93,-370.8C269.35,-356.14 362.25,-333.96 426.79,-318.55"/>
<polygon fill="black" stroke="black" points="427.98,-321.86 436.89,-316.14 426.35,-315.05 427.98,-321.86"/>
<text text-anchor="middle" x="367.79" y="-339.8" font-family="Times,serif" font-size="14.00">previous</text>
</g>
<!-- http://purl.org/dj/kaggle/titanic&#45;lightgbm/activity/238318360988364555&#45;&gt;http://purl.org/dj/kaggle/titanic&#45;lightgbm/activity/&#45;3498651821763926492 -->
<g id="edge35" class="edge">
<title>http://purl.org/dj/kaggle/titanic&#45;lightgbm/activity/238318360988364555&#45;&gt;http://purl.org/dj/kaggle/titanic&#45;lightgbm/activity/&#45;3498651821763926492</title>
<path fill="none" stroke="black" d="M145.51,-368.96C147.21,-345.4 150.28,-302.64 152.31,-274.53"/>
<polygon fill="black" stroke="black" points="155.82,-274.41 153.05,-264.18 148.84,-273.91 155.82,-274.41"/>
<text text-anchor="middle" x="171.79" y="-339.8" font-family="Times,serif" font-size="14.00">previous</text>
</g>
</g>
</svg>
