<?xml version="1.0" encoding="UTF-8" standalone="no"?>
<!DOCTYPE svg PUBLIC "-//W3C//DTD SVG 1.1//EN"
 "http://www.w3.org/Graphics/SVG/1.1/DTD/svg11.dtd">
<!-- Generated by graphviz version 2.47.1 (20210417.1919)
 -->
<!-- Pages: 1 -->
<svg width="1397pt" height="848pt"
 viewBox="0.00 0.00 1396.58 848.00" xmlns="http://www.w3.org/2000/svg" xmlns:xlink="http://www.w3.org/1999/xlink">
<g id="graph0" class="graph" transform="scale(1 1) rotate(0) translate(4 844)">
<polygon fill="white" stroke="transparent" points="-4,4 -4,-844 1392.58,-844 1392.58,4 -4,4"/>
<!-- http://purl.org/dj/kaggle/titanic&#45;study3/activity/&#45;8274399595077965860 -->
<g id="node1" class="node">
<title>http://purl.org/dj/kaggle/titanic&#45;study3/activity/&#45;8274399595077965860</title>
<ellipse fill="none" stroke="black" cx="803.44" cy="-822" rx="151.37" ry="18"/>
<text text-anchor="middle" x="803.44" y="-818.3" font-family="Times,serif" font-size="14.00">&#45;8274399595077965860 (Visualisation)</text>
</g>
<!-- http://purl.org/dj/kaggle/titanic&#45;study3/activity/4279675346612557514 -->
<g id="node2" class="node">
<title>http://purl.org/dj/kaggle/titanic&#45;study3/activity/4279675346612557514</title>
<ellipse fill="none" stroke="black" cx="803.44" cy="-681" rx="124.28" ry="18"/>
<text text-anchor="middle" x="803.44" y="-677.3" font-family="Times,serif" font-size="14.00">4279675346612557514 (Reuse)</text>
</g>
<!-- http://purl.org/dj/kaggle/titanic&#45;study3/activity/&#45;8274399595077965860&#45;&gt;http://purl.org/dj/kaggle/titanic&#45;study3/activity/4279675346612557514 -->
<g id="edge1" class="edge">
<title>http://purl.org/dj/kaggle/titanic&#45;study3/activity/&#45;8274399595077965860&#45;&gt;http://purl.org/dj/kaggle/titanic&#45;study3/activity/4279675346612557514</title>
<path fill="none" stroke="black" d="M803.44,-803.96C803.44,-780.4 803.44,-737.64 803.44,-709.53"/>
<polygon fill="black" stroke="black" points="806.94,-709.18 803.44,-699.18 799.94,-709.18 806.94,-709.18"/>
<text text-anchor="middle" x="826.94" y="-774.8" font-family="Times,serif" font-size="14.00">previous</text>
</g>
<!-- http://purl.org/dj/kaggle/titanic&#45;study3/activity/&#45;4538532235986381481 -->
<g id="node3" class="node">
<title>http://purl.org/dj/kaggle/titanic&#45;study3/activity/&#45;4538532235986381481</title>
<ellipse fill="none" stroke="black" cx="529.44" cy="-453" rx="126.98" ry="18"/>
<text text-anchor="middle" x="529.44" y="-449.3" font-family="Times,serif" font-size="14.00">&#45;4538532235986381481 (Reuse)</text>
</g>
<!-- http://purl.org/dj/kaggle/titanic&#45;study3/activity/&#45;8274399595077965860&#45;&gt;http://purl.org/dj/kaggle/titanic&#45;study3/activity/&#45;4538532235986381481 -->
<g id="edge2" class="edge">
<title>http://purl.org/dj/kaggle/titanic&#45;study3/activity/&#45;8274399595077965860&#45;&gt;http://purl.org/dj/kaggle/titanic&#45;study3/activity/&#45;4538532235986381481</title>
<path fill="none" stroke="black" d="M671.93,-813.03C512.37,-801.56 264.44,-777.12 264.44,-736 264.44,-736 264.44,-736 264.44,-539 264.44,-503.05 353.99,-480.17 428.98,-467.32"/>
<polygon fill="black" stroke="black" points="429.69,-470.75 438.98,-465.65 428.54,-463.84 429.69,-470.75"/>
<text text-anchor="middle" x="287.94" y="-623.3" font-family="Times,serif" font-size="14.00">previous</text>
</g>
<!-- http://purl.org/dj/kaggle/titanic&#45;study3/activity/&#45;9168227622241999300 -->
<g id="node4" class="node">
<title>http://purl.org/dj/kaggle/titanic&#45;study3/activity/&#45;9168227622241999300</title>
<ellipse fill="none" stroke="black" cx="1030.44" cy="-735" rx="135.68" ry="18"/>
<text text-anchor="middle" x="1030.44" y="-731.3" font-family="Times,serif" font-size="14.00">&#45;9168227622241999300 (Analysis)</text>
</g>
<!-- http://purl.org/dj/kaggle/titanic&#45;study3/activity/&#45;8274399595077965860&#45;&gt;http://purl.org/dj/kaggle/titanic&#45;study3/activity/&#45;9168227622241999300 -->
<g id="edge3" class="edge">
<title>http://purl.org/dj/kaggle/titanic&#45;study3/activity/&#45;8274399595077965860&#45;&gt;http://purl.org/dj/kaggle/titanic&#45;study3/activity/&#45;9168227622241999300</title>
<path fill="none" stroke="black" d="M846.94,-804.71C884.28,-790.73 938.21,-770.53 977.95,-755.65"/>
<polygon fill="black" stroke="black" points="979.33,-758.87 987.47,-752.09 976.88,-752.32 979.33,-758.87"/>
<text text-anchor="middle" x="953.94" y="-774.8" font-family="Times,serif" font-size="14.00">previous</text>
</g>
<!-- http://purl.org/dj/kaggle/titanic&#45;study3/activity/1682436875684652426 -->
<g id="node5" class="node">
<title>http://purl.org/dj/kaggle/titanic&#45;study3/activity/1682436875684652426</title>
<ellipse fill="none" stroke="black" cx="1094.44" cy="-540" rx="141.88" ry="18"/>
<text text-anchor="middle" x="1094.44" y="-536.3" font-family="Times,serif" font-size="14.00">1682436875684652426 (Movement)</text>
</g>
<!-- http://purl.org/dj/kaggle/titanic&#45;study3/activity/4279675346612557514&#45;&gt;http://purl.org/dj/kaggle/titanic&#45;study3/activity/1682436875684652426 -->
<g id="edge4" class="edge">
<title>http://purl.org/dj/kaggle/titanic&#45;study3/activity/4279675346612557514&#45;&gt;http://purl.org/dj/kaggle/titanic&#45;study3/activity/1682436875684652426</title>
<path fill="none" stroke="black" d="M825.79,-663.15C847.5,-647.41 881.87,-624.13 914.44,-609 938.91,-597.63 947.04,-600.13 972.44,-591 997.51,-581.99 1025,-570.84 1047.52,-561.36"/>
<polygon fill="black" stroke="black" points="1049.01,-564.53 1056.85,-557.41 1046.28,-558.08 1049.01,-564.53"/>
<text text-anchor="middle" x="937.94" y="-623.3" font-family="Times,serif" font-size="14.00">previous</text>
</g>
<!-- http://purl.org/dj/kaggle/titanic&#45;study3/activity/728497215547138433 -->
<g id="node6" class="node">
<title>http://purl.org/dj/kaggle/titanic&#45;study3/activity/728497215547138433</title>
<ellipse fill="none" stroke="black" cx="138.44" cy="-366" rx="138.38" ry="18"/>
<text text-anchor="middle" x="138.44" y="-362.3" font-family="Times,serif" font-size="14.00">728497215547138433 (Preparation)</text>
</g>
<!-- http://purl.org/dj/kaggle/titanic&#45;study3/activity/&#45;4538532235986381481&#45;&gt;http://purl.org/dj/kaggle/titanic&#45;study3/activity/728497215547138433 -->
<g id="edge5" class="edge">
<title>http://purl.org/dj/kaggle/titanic&#45;study3/activity/&#45;4538532235986381481&#45;&gt;http://purl.org/dj/kaggle/titanic&#45;study3/activity/728497215547138433</title>
<path fill="none" stroke="black" d="M415.02,-445.14C364.24,-440.18 304.17,-431.65 251.44,-417 226.41,-410.05 199.78,-398.49 178.66,-388.23"/>
<polygon fill="black" stroke="black" points="180.18,-385.08 169.67,-383.78 177.08,-391.36 180.18,-385.08"/>
<text text-anchor="middle" x="274.94" y="-405.8" font-family="Times,serif" font-size="14.00">previous</text>
</g>
<!-- http://purl.org/dj/kaggle/titanic&#45;study3/activity/7290150218664181489 -->
<g id="node7" class="node">
<title>http://purl.org/dj/kaggle/titanic&#45;study3/activity/7290150218664181489</title>
<ellipse fill="none" stroke="black" cx="668.44" cy="-192" rx="142.97" ry="18"/>
<text text-anchor="middle" x="668.44" y="-188.3" font-family="Times,serif" font-size="14.00">7290150218664181489 (Preparation)</text>
</g>
<!-- http://purl.org/dj/kaggle/titanic&#45;study3/activity/&#45;4538532235986381481&#45;&gt;http://purl.org/dj/kaggle/titanic&#45;study3/activity/7290150218664181489 -->
<g id="edge6" class="edge">
<title>http://purl.org/dj/kaggle/titanic&#45;study3/activity/&#45;4538532235986381481&#45;&gt;http://purl.org/dj/kaggle/titanic&#45;study3/activity/7290150218664181489</title>
<path fill="none" stroke="black" d="M496.54,-435.42C477.51,-423.86 455.24,-406.48 444.44,-384 437.51,-369.58 437.01,-362.17 444.44,-348 479.85,-280.43 559.58,-236.47 613.71,-213.2"/>
<polygon fill="black" stroke="black" points="615.3,-216.32 623.17,-209.23 612.59,-209.87 615.3,-216.32"/>
<text text-anchor="middle" x="488.94" y="-318.8" font-family="Times,serif" font-size="14.00">previous</text>
</g>
<!-- http://purl.org/dj/kaggle/titanic&#45;study3 -->
<g id="node8" class="node">
<title>http://purl.org/dj/kaggle/titanic&#45;study3</title>
<ellipse fill="none" stroke="black" cx="900.44" cy="-366" rx="137.58" ry="18"/>
<text text-anchor="middle" x="900.44" y="-362.3" font-family="Times,serif" font-size="14.00">titanic&#45;study3 (titanic&#45;study3.ipynb)</text>
</g>
<!-- http://purl.org/dj/kaggle/titanic&#45;study3/activity/&#45;4538532235986381481&#45;&gt;http://purl.org/dj/kaggle/titanic&#45;study3 -->
<g id="edge7" class="edge">
<title>http://purl.org/dj/kaggle/titanic&#45;study3/activity/&#45;4538532235986381481&#45;&gt;http://purl.org/dj/kaggle/titanic&#45;study3</title>
<path fill="none" stroke="black" d="M593.21,-437.39C657.69,-422.62 757.28,-399.8 825.49,-384.17"/>
<polygon fill="black" stroke="black" points="826.35,-387.57 835.31,-381.92 824.79,-380.74 826.35,-387.57"/>
<text text-anchor="middle" x="759.94" y="-405.8" font-family="Times,serif" font-size="14.00">previous</text>
</g>
<!-- http://purl.org/dj/kaggle/titanic&#45;study3/activity/&#45;2854349479272075456 -->
<g id="node9" class="node">
<title>http://purl.org/dj/kaggle/titanic&#45;study3/activity/&#45;2854349479272075456</title>
<ellipse fill="none" stroke="black" cx="599.44" cy="-366" rx="145.67" ry="18"/>
<text text-anchor="middle" x="599.44" y="-362.3" font-family="Times,serif" font-size="14.00">&#45;2854349479272075456 (Preparation)</text>
</g>
<!-- http://purl.org/dj/kaggle/titanic&#45;study3/activity/&#45;4538532235986381481&#45;&gt;http://purl.org/dj/kaggle/titanic&#45;study3/activity/&#45;2854349479272075456 -->
<g id="edge8" class="edge">
<title>http://purl.org/dj/kaggle/titanic&#45;study3/activity/&#45;4538532235986381481&#45;&gt;http://purl.org/dj/kaggle/titanic&#45;study3/activity/&#45;2854349479272075456</title>
<path fill="none" stroke="black" d="M557.47,-435.34C564.64,-430.13 571.88,-423.91 577.44,-417 582.93,-410.17 587.33,-401.76 590.7,-393.79"/>
<polygon fill="black" stroke="black" points="593.98,-395.02 594.31,-384.43 587.45,-392.5 593.98,-395.02"/>
<text text-anchor="middle" x="608.94" y="-405.8" font-family="Times,serif" font-size="14.00">previous</text>
</g>
<!-- http://purl.org/dj/kaggle/titanic&#45;study3/activity/&#45;9168227622241999300&#45;&gt;http://purl.org/dj/kaggle/titanic&#45;study3/activity/&#45;4538532235986381481 -->
<g id="edge9" class="edge">
<title>http://purl.org/dj/kaggle/titanic&#45;study3/activity/&#45;9168227622241999300&#45;&gt;http://purl.org/dj/kaggle/titanic&#45;study3/activity/&#45;4538532235986381481</title>
<path fill="none" stroke="black" d="M1015.15,-716.81C1000.23,-699.5 977.51,-671.61 961.44,-645 930.38,-593.59 952.84,-558.89 905.44,-522 865.93,-491.26 742.34,-473.13 647.53,-463.43"/>
<polygon fill="black" stroke="black" points="647.88,-459.95 637.58,-462.43 647.18,-466.91 647.88,-459.95"/>
<text text-anchor="middle" x="964.94" y="-579.8" font-family="Times,serif" font-size="14.00">previous</text>
</g>
<!-- http://purl.org/dj/kaggle/titanic&#45;study3/activity/6116903487272263500 -->
<g id="node10" class="node">
<title>http://purl.org/dj/kaggle/titanic&#45;study3/activity/6116903487272263500</title>
<ellipse fill="none" stroke="black" cx="1094.44" cy="-627" rx="124.28" ry="18"/>
<text text-anchor="middle" x="1094.44" y="-623.3" font-family="Times,serif" font-size="14.00">6116903487272263500 (Reuse)</text>
</g>
<!-- http://purl.org/dj/kaggle/titanic&#45;study3/activity/&#45;9168227622241999300&#45;&gt;http://purl.org/dj/kaggle/titanic&#45;study3/activity/6116903487272263500 -->
<g id="edge10" class="edge">
<title>http://purl.org/dj/kaggle/titanic&#45;study3/activity/&#45;9168227622241999300&#45;&gt;http://purl.org/dj/kaggle/titanic&#45;study3/activity/6116903487272263500</title>
<path fill="none" stroke="black" d="M1040.72,-716.97C1051.03,-699.89 1067.04,-673.38 1078.9,-653.74"/>
<polygon fill="black" stroke="black" points="1082.01,-655.36 1084.18,-644.99 1076.02,-651.74 1082.01,-655.36"/>
<text text-anchor="middle" x="1094.94" y="-677.3" font-family="Times,serif" font-size="14.00">previous</text>
</g>
<!-- http://purl.org/dj/kaggle/titanic&#45;study3/activity/1101006666543553925 -->
<g id="node11" class="node">
<title>http://purl.org/dj/kaggle/titanic&#45;study3/activity/1101006666543553925</title>
<ellipse fill="none" stroke="black" cx="1264.44" cy="-453" rx="124.28" ry="18"/>
<text text-anchor="middle" x="1264.44" y="-449.3" font-family="Times,serif" font-size="14.00">1101006666543553925 (Reuse)</text>
</g>
<!-- http://purl.org/dj/kaggle/titanic&#45;study3/activity/&#45;9168227622241999300&#45;&gt;http://purl.org/dj/kaggle/titanic&#45;study3/activity/1101006666543553925 -->
<g id="edge11" class="edge">
<title>http://purl.org/dj/kaggle/titanic&#45;study3/activity/&#45;9168227622241999300&#45;&gt;http://purl.org/dj/kaggle/titanic&#45;study3/activity/1101006666543553925</title>
<path fill="none" stroke="black" d="M1102.25,-719.63C1145.24,-707.21 1197.23,-684.74 1227.44,-645 1264.41,-596.35 1267.61,-521.07 1266.3,-481.1"/>
<polygon fill="black" stroke="black" points="1269.79,-480.88 1265.85,-471.04 1262.8,-481.19 1269.79,-480.88"/>
<text text-anchor="middle" x="1280.94" y="-579.8" font-family="Times,serif" font-size="14.00">previous</text>
</g>
<!-- http://purl.org/dj/kaggle/titanic&#45;study3/activity/1682436875684652426&#45;&gt;http://purl.org/dj/kaggle/titanic&#45;study3/activity/&#45;4538532235986381481 -->
<g id="edge12" class="edge">
<title>http://purl.org/dj/kaggle/titanic&#45;study3/activity/1682436875684652426&#45;&gt;http://purl.org/dj/kaggle/titanic&#45;study3/activity/&#45;4538532235986381481</title>
<path fill="none" stroke="black" d="M1052.41,-522.69C1021.4,-511.35 977.9,-496.91 938.44,-489 847.47,-470.77 743.25,-462.03 662.79,-457.84"/>
<polygon fill="black" stroke="black" points="662.76,-454.34 652.6,-457.33 662.41,-461.33 662.76,-454.34"/>
<text text-anchor="middle" x="1017.94" y="-492.8" font-family="Times,serif" font-size="14.00">previous</text>
</g>
<!-- http://purl.org/dj/kaggle/titanic&#45;study3/activity/&#45;5601138735292703550 -->
<g id="node12" class="node">
<title>http://purl.org/dj/kaggle/titanic&#45;study3/activity/&#45;5601138735292703550</title>
<ellipse fill="none" stroke="black" cx="208.44" cy="-279" rx="151.37" ry="18"/>
<text text-anchor="middle" x="208.44" y="-275.3" font-family="Times,serif" font-size="14.00">&#45;5601138735292703550 (Visualisation)</text>
</g>
<!-- http://purl.org/dj/kaggle/titanic&#45;study3/activity/728497215547138433&#45;&gt;http://purl.org/dj/kaggle/titanic&#45;study3/activity/&#45;5601138735292703550 -->
<g id="edge13" class="edge">
<title>http://purl.org/dj/kaggle/titanic&#45;study3/activity/728497215547138433&#45;&gt;http://purl.org/dj/kaggle/titanic&#45;study3/activity/&#45;5601138735292703550</title>
<path fill="none" stroke="black" d="M152.6,-347.8C162.66,-335.59 176.33,-318.99 187.62,-305.28"/>
<polygon fill="black" stroke="black" points="190.64,-307.12 194.29,-297.18 185.23,-302.67 190.64,-307.12"/>
<text text-anchor="middle" x="201.94" y="-318.8" font-family="Times,serif" font-size="14.00">previous</text>
</g>
<!-- http://purl.org/dj/kaggle/titanic&#45;study3/activity/7290150218664181489&#45;&gt;http://purl.org/dj/kaggle/titanic&#45;study3/activity/&#45;4538532235986381481 -->
<g id="edge14" class="edge">
<title>http://purl.org/dj/kaggle/titanic&#45;study3/activity/7290150218664181489&#45;&gt;http://purl.org/dj/kaggle/titanic&#45;study3/activity/&#45;4538532235986381481</title>
<path fill="none" stroke="black" d="M577.66,-205.93C514.87,-220.43 436.98,-250.97 404.44,-315 381.74,-359.66 415.66,-382.97 452.44,-417 458.42,-422.54 465.44,-427.32 472.75,-431.42"/>
<polygon fill="black" stroke="black" points="471.63,-434.78 482.12,-436.24 474.83,-428.55 471.63,-434.78"/>
<text text-anchor="middle" x="427.94" y="-318.8" font-family="Times,serif" font-size="14.00">previous</text>
</g>
<!-- http://purl.org/dj/kaggle/titanic&#45;study3/activity/7290150218664181489&#45;&gt;http://purl.org/dj/kaggle/titanic&#45;study3/activity/1682436875684652426 -->
<g id="edge15" class="edge">
<title>http://purl.org/dj/kaggle/titanic&#45;study3/activity/7290150218664181489&#45;&gt;http://purl.org/dj/kaggle/titanic&#45;study3/activity/1682436875684652426</title>
<path fill="none" stroke="black" d="M807.1,-196.46C924.12,-200.66 1076.12,-209.6 1098.44,-228 1116.24,-242.68 1112.44,-254.92 1112.44,-278 1112.44,-454 1112.44,-454 1112.44,-454 1112.44,-473.67 1107.77,-495.37 1103.18,-511.91"/>
<polygon fill="black" stroke="black" points="1099.69,-511.39 1100.23,-521.97 1106.4,-513.36 1099.69,-511.39"/>
<text text-anchor="middle" x="1135.94" y="-362.3" font-family="Times,serif" font-size="14.00">previous</text>
</g>
<!-- http://purl.org/dj/kaggle/titanic&#45;study3/activity/8165419450298816594 -->
<g id="node13" class="node">
<title>http://purl.org/dj/kaggle/titanic&#45;study3/activity/8165419450298816594</title>
<ellipse fill="none" stroke="black" cx="893.44" cy="-105" rx="124.28" ry="18"/>
<text text-anchor="middle" x="893.44" y="-101.3" font-family="Times,serif" font-size="14.00">8165419450298816594 (Reuse)</text>
</g>
<!-- http://purl.org/dj/kaggle/titanic&#45;study3/activity/7290150218664181489&#45;&gt;http://purl.org/dj/kaggle/titanic&#45;study3/activity/8165419450298816594 -->
<g id="edge16" class="edge">
<title>http://purl.org/dj/kaggle/titanic&#45;study3/activity/7290150218664181489&#45;&gt;http://purl.org/dj/kaggle/titanic&#45;study3/activity/8165419450298816594</title>
<path fill="none" stroke="black" d="M711.29,-174.81C748.31,-160.82 801.93,-140.57 841.41,-125.65"/>
<polygon fill="black" stroke="black" points="843.01,-128.79 851.13,-121.98 840.54,-122.24 843.01,-128.79"/>
<text text-anchor="middle" x="816.94" y="-144.8" font-family="Times,serif" font-size="14.00">previous</text>
</g>
<!-- http://purl.org/dj/kaggle/titanic&#45;study3/activity/&#45;2854349479272075456&#45;&gt;http://purl.org/dj/kaggle/titanic&#45;study3/activity/&#45;4538532235986381481 -->
<g id="edge17" class="edge">
<title>http://purl.org/dj/kaggle/titanic&#45;study3/activity/&#45;2854349479272075456&#45;&gt;http://purl.org/dj/kaggle/titanic&#45;study3/activity/&#45;4538532235986381481</title>
<path fill="none" stroke="black" d="M547.39,-382.82C539.07,-387.65 531.53,-393.91 526.44,-402 522.19,-408.75 521.37,-417.09 522.07,-425.01"/>
<polygon fill="black" stroke="black" points="518.64,-425.7 523.7,-435.01 525.54,-424.58 518.64,-425.7"/>
<text text-anchor="middle" x="549.94" y="-405.8" font-family="Times,serif" font-size="14.00">previous</text>
</g>
<!-- http://purl.org/dj/kaggle/titanic&#45;study3/activity/6116903487272263500&#45;&gt;http://purl.org/dj/kaggle/titanic&#45;study3/activity/1682436875684652426 -->
<g id="edge23" class="edge">
<title>http://purl.org/dj/kaggle/titanic&#45;study3/activity/6116903487272263500&#45;&gt;http://purl.org/dj/kaggle/titanic&#45;study3/activity/1682436875684652426</title>
<path fill="none" stroke="black" d="M1094.44,-608.8C1094.44,-597.16 1094.44,-581.55 1094.44,-568.24"/>
<polygon fill="black" stroke="black" points="1097.94,-568.18 1094.44,-558.18 1090.94,-568.18 1097.94,-568.18"/>
<text text-anchor="middle" x="1117.94" y="-579.8" font-family="Times,serif" font-size="14.00">previous</text>
</g>
<!-- http://purl.org/dj/kaggle/titanic&#45;study3/activity/1101006666543553925&#45;&gt;http://purl.org/dj/kaggle/titanic&#45;study3/activity/7290150218664181489 -->
<g id="edge25" class="edge">
<title>http://purl.org/dj/kaggle/titanic&#45;study3/activity/1101006666543553925&#45;&gt;http://purl.org/dj/kaggle/titanic&#45;study3/activity/7290150218664181489</title>
<path fill="none" stroke="black" d="M1259.8,-434.99C1246.98,-391.62 1206.58,-276.86 1126.44,-228 1100.19,-212 939.46,-202.58 815.74,-197.61"/>
<polygon fill="black" stroke="black" points="815.53,-194.1 805.4,-197.21 815.25,-201.1 815.53,-194.1"/>
<text text-anchor="middle" x="1238.94" y="-318.8" font-family="Times,serif" font-size="14.00">previous</text>
</g>
<!-- http://purl.org/dj/kaggle/titanic&#45;study3/activity/1101006666543553925&#45;&gt;http://purl.org/dj/kaggle/titanic&#45;study3/activity/&#45;2854349479272075456 -->
<g id="edge26" class="edge">
<title>http://purl.org/dj/kaggle/titanic&#45;study3/activity/1101006666543553925&#45;&gt;http://purl.org/dj/kaggle/titanic&#45;study3/activity/&#45;2854349479272075456</title>
<path fill="none" stroke="black" d="M1174.75,-440.54C1053.22,-425 836.51,-397.3 706.56,-380.69"/>
<polygon fill="black" stroke="black" points="706.95,-377.21 696.59,-379.42 706.06,-384.16 706.95,-377.21"/>
<text text-anchor="middle" x="994.94" y="-405.8" font-family="Times,serif" font-size="14.00">previous</text>
</g>
<!-- http://purl.org/dj/kaggle/titanic&#45;study3/activity/&#45;5601138735292703550&#45;&gt;http://purl.org/dj/kaggle/titanic&#45;study3/activity/&#45;4538532235986381481 -->
<g id="edge18" class="edge">
<title>http://purl.org/dj/kaggle/titanic&#45;study3/activity/&#45;5601138735292703550&#45;&gt;http://purl.org/dj/kaggle/titanic&#45;study3/activity/&#45;4538532235986381481</title>
<path fill="none" stroke="black" d="M227.67,-297C260.46,-325.97 323.9,-382 326.44,-384 346.49,-399.8 350.1,-406.68 373.44,-417 392.83,-425.58 414.54,-432.15 435.46,-437.16"/>
<polygon fill="black" stroke="black" points="434.8,-440.6 445.33,-439.42 436.37,-433.77 434.8,-440.6"/>
<text text-anchor="middle" x="349.94" y="-362.3" font-family="Times,serif" font-size="14.00">previous</text>
</g>
<!-- http://purl.org/dj/kaggle/titanic&#45;study3/activity/&#45;5601138735292703550&#45;&gt;http://purl.org/dj/kaggle/titanic&#45;study3/activity/7290150218664181489 -->
<g id="edge19" class="edge">
<title>http://purl.org/dj/kaggle/titanic&#45;study3/activity/&#45;5601138735292703550&#45;&gt;http://purl.org/dj/kaggle/titanic&#45;study3/activity/7290150218664181489</title>
<path fill="none" stroke="black" d="M240.58,-261.28C263.81,-249.98 296.27,-235.75 326.44,-228 389.55,-211.79 461.03,-203.04 522.26,-198.34"/>
<polygon fill="black" stroke="black" points="522.68,-201.82 532.39,-197.59 522.16,-194.84 522.68,-201.82"/>
<text text-anchor="middle" x="349.94" y="-231.8" font-family="Times,serif" font-size="14.00">previous</text>
</g>
<!-- http://purl.org/dj/kaggle/titanic&#45;study3/activity/6307605040677746828 -->
<g id="node14" class="node">
<title>http://purl.org/dj/kaggle/titanic&#45;study3/activity/6307605040677746828</title>
<ellipse fill="none" stroke="black" cx="1050.44" cy="-18" rx="142.97" ry="18"/>
<text text-anchor="middle" x="1050.44" y="-14.3" font-family="Times,serif" font-size="14.00">6307605040677746828 (Preparation)</text>
</g>
<!-- http://purl.org/dj/kaggle/titanic&#45;study3/activity/8165419450298816594&#45;&gt;http://purl.org/dj/kaggle/titanic&#45;study3/activity/6307605040677746828 -->
<g id="edge20" class="edge">
<title>http://purl.org/dj/kaggle/titanic&#45;study3/activity/8165419450298816594&#45;&gt;http://purl.org/dj/kaggle/titanic&#45;study3/activity/6307605040677746828</title>
<path fill="none" stroke="black" d="M924.08,-87.41C948.75,-74.05 983.61,-55.18 1010.47,-40.64"/>
<polygon fill="black" stroke="black" points="1012.48,-43.53 1019.6,-35.69 1009.14,-37.38 1012.48,-43.53"/>
<text text-anchor="middle" x="1003.94" y="-57.8" font-family="Times,serif" font-size="14.00">previous</text>
</g>
<!-- http://purl.org/dj/kaggle/titanic&#45;study3/activity/6307605040677746828&#45;&gt;http://purl.org/dj/kaggle/titanic&#45;study3/activity/&#45;4538532235986381481 -->
<g id="edge21" class="edge">
<title>http://purl.org/dj/kaggle/titanic&#45;study3/activity/6307605040677746828&#45;&gt;http://purl.org/dj/kaggle/titanic&#45;study3/activity/&#45;4538532235986381481</title>
<path fill="none" stroke="black" d="M1052.66,-36.26C1061.45,-107.97 1090.04,-380.36 1022.44,-417 991.48,-433.78 797.54,-443.43 662.35,-448.2"/>
<polygon fill="black" stroke="black" points="662.19,-444.7 652.32,-448.54 662.43,-451.69 662.19,-444.7"/>
<text text-anchor="middle" x="1088.94" y="-231.8" font-family="Times,serif" font-size="14.00">previous</text>
</g>
<!-- http://purl.org/dj/kaggle/titanic&#45;study3/activity/&#45;6778240978809528230 -->
<g id="node15" class="node">
<title>http://purl.org/dj/kaggle/titanic&#45;study3/activity/&#45;6778240978809528230</title>
<ellipse fill="none" stroke="black" cx="138.44" cy="-453" rx="126.98" ry="18"/>
<text text-anchor="middle" x="138.44" y="-449.3" font-family="Times,serif" font-size="14.00">&#45;6778240978809528230 (Reuse)</text>
</g>
<!-- http://purl.org/dj/kaggle/titanic&#45;study3/activity/&#45;6778240978809528230&#45;&gt;http://purl.org/dj/kaggle/titanic&#45;study3/activity/728497215547138433 -->
<g id="edge22" class="edge">
<title>http://purl.org/dj/kaggle/titanic&#45;study3/activity/&#45;6778240978809528230&#45;&gt;http://purl.org/dj/kaggle/titanic&#45;study3/activity/728497215547138433</title>
<path fill="none" stroke="black" d="M138.44,-434.8C138.44,-423.16 138.44,-407.55 138.44,-394.24"/>
<polygon fill="black" stroke="black" points="141.94,-394.18 138.44,-384.18 134.94,-394.18 141.94,-394.18"/>
<text text-anchor="middle" x="161.94" y="-405.8" font-family="Times,serif" font-size="14.00">previous</text>
</g>
<!-- http://purl.org/dj/kaggle/titanic&#45;study3/activity/&#45;7467418564722699387 -->
<g id="node16" class="node">
<title>http://purl.org/dj/kaggle/titanic&#45;study3/activity/&#45;7467418564722699387</title>
<ellipse fill="none" stroke="black" cx="745.44" cy="-540" rx="151.37" ry="18"/>
<text text-anchor="middle" x="745.44" y="-536.3" font-family="Times,serif" font-size="14.00">&#45;7467418564722699387 (Visualisation)</text>
</g>
<!-- http://purl.org/dj/kaggle/titanic&#45;study3/activity/&#45;7467418564722699387&#45;&gt;http://purl.org/dj/kaggle/titanic&#45;study3/activity/&#45;4538532235986381481 -->
<g id="edge24" class="edge">
<title>http://purl.org/dj/kaggle/titanic&#45;study3/activity/&#45;7467418564722699387&#45;&gt;http://purl.org/dj/kaggle/titanic&#45;study3/activity/&#45;4538532235986381481</title>
<path fill="none" stroke="black" d="M703.79,-522.61C668.45,-508.71 617.65,-488.71 579.99,-473.89"/>
<polygon fill="black" stroke="black" points="580.81,-470.46 570.22,-470.05 578.25,-476.97 580.81,-470.46"/>
<text text-anchor="middle" x="672.94" y="-492.8" font-family="Times,serif" font-size="14.00">previous</text>
</g>
<!-- http://purl.org/dj/kaggle/titanic&#45;study3/activity/3812127446416777976 -->
<g id="node17" class="node">
<title>http://purl.org/dj/kaggle/titanic&#45;study3/activity/3812127446416777976</title>
<ellipse fill="none" stroke="black" cx="434.44" cy="-540" rx="141.88" ry="18"/>
<text text-anchor="middle" x="434.44" y="-536.3" font-family="Times,serif" font-size="14.00">3812127446416777976 (Movement)</text>
</g>
<!-- http://purl.org/dj/kaggle/titanic&#45;study3/activity/3812127446416777976&#45;&gt;http://purl.org/dj/kaggle/titanic&#45;study3/activity/&#45;4538532235986381481 -->
<g id="edge27" class="edge">
<title>http://purl.org/dj/kaggle/titanic&#45;study3/activity/3812127446416777976&#45;&gt;http://purl.org/dj/kaggle/titanic&#45;study3/activity/&#45;4538532235986381481</title>
<path fill="none" stroke="black" d="M453.66,-521.8C467.79,-509.16 487.17,-491.82 502.79,-477.85"/>
<polygon fill="black" stroke="black" points="505.45,-480.16 510.57,-470.89 500.78,-474.94 505.45,-480.16"/>
<text text-anchor="middle" x="510.94" y="-492.8" font-family="Times,serif" font-size="14.00">previous</text>
</g>
<!-- http://purl.org/dj/kaggle/titanic&#45;study3/activity/&#45;2493312459940520455 -->
<g id="node18" class="node">
<title>http://purl.org/dj/kaggle/titanic&#45;study3/activity/&#45;2493312459940520455</title>
<ellipse fill="none" stroke="black" cx="1229.44" cy="-105" rx="151.37" ry="18"/>
<text text-anchor="middle" x="1229.44" y="-101.3" font-family="Times,serif" font-size="14.00">&#45;2493312459940520455 (Visualisation)</text>
</g>
<!-- http://purl.org/dj/kaggle/titanic&#45;study3/activity/&#45;2493312459940520455&#45;&gt;http://purl.org/dj/kaggle/titanic&#45;study3/activity/6307605040677746828 -->
<g id="edge28" class="edge">
<title>http://purl.org/dj/kaggle/titanic&#45;study3/activity/&#45;2493312459940520455&#45;&gt;http://purl.org/dj/kaggle/titanic&#45;study3/activity/6307605040677746828</title>
<path fill="none" stroke="black" d="M1194.5,-87.41C1165.92,-73.84 1125.33,-54.56 1094.51,-39.93"/>
<polygon fill="black" stroke="black" points="1095.82,-36.68 1085.29,-35.55 1092.82,-43 1095.82,-36.68"/>
<text text-anchor="middle" x="1173.94" y="-57.8" font-family="Times,serif" font-size="14.00">previous</text>
</g>
</g>
</svg>
