<?xml version="1.0" encoding="UTF-8" standalone="no"?>
<!DOCTYPE svg PUBLIC "-//W3C//DTD SVG 1.1//EN"
 "http://www.w3.org/Graphics/SVG/1.1/DTD/svg11.dtd">
<!-- Generated by graphviz version 2.44.1 (20200629.0846)
 -->
<!-- Pages: 1 -->
<svg width="4358pt" height="608pt"
 viewBox="0.00 0.00 4357.97 608.00" xmlns="http://www.w3.org/2000/svg" xmlns:xlink="http://www.w3.org/1999/xlink">
<g id="graph0" class="graph" transform="scale(1 1) rotate(0) translate(4 604)">
<polygon fill="white" stroke="transparent" points="-4,4 -4,-604 4353.97,-604 4353.97,4 -4,4"/>
<!-- http://purl.org/dj/kaggle/underfitting&#45;and&#45;overfitting#1722550378 -->
<g id="node1" class="node">
<title>http://purl.org/dj/kaggle/underfitting&#45;and&#45;overfitting#1722550378</title>
<ellipse fill="none" stroke="black" cx="198.88" cy="-213" rx="198.76" ry="18"/>
<text text-anchor="middle" x="198.88" y="-209.3" font-family="Times,serif" font-size="14.00">1722550378 (mean_absolute_error(0): Visualisation)</text>
</g>
<!-- http://purl.org/dj/kaggle/underfitting&#45;and&#45;overfitting -->
<g id="node2" class="node">
<title>http://purl.org/dj/kaggle/underfitting&#45;and&#45;overfitting</title>
<ellipse fill="none" stroke="black" cx="2572.88" cy="-18" rx="106.68" ry="18"/>
<text text-anchor="middle" x="2572.88" y="-14.3" font-family="Times,serif" font-size="14.00">underfitting&#45;and&#45;overfitting</text>
</g>
<!-- http://purl.org/dj/kaggle/underfitting&#45;and&#45;overfitting#1722550378&#45;&gt;http://purl.org/dj/kaggle/underfitting&#45;and&#45;overfitting -->
<g id="edge1" class="edge">
<title>http://purl.org/dj/kaggle/underfitting&#45;and&#45;overfitting#1722550378&#45;&gt;http://purl.org/dj/kaggle/underfitting&#45;and&#45;overfitting</title>
<path fill="none" stroke="black" d="M193.5,-194.91C186.13,-167.72 176.87,-114.84 205.88,-87 291.52,-4.82 352.49,-62.33 470.88,-54 861.44,-26.51 2073.71,-20.51 2456.1,-19.29"/>
<polygon fill="black" stroke="black" points="2456.36,-22.79 2466.34,-19.26 2456.33,-15.79 2456.36,-22.79"/>
<text text-anchor="middle" x="229.38" y="-101.3" font-family="Times,serif" font-size="14.00">previous</text>
</g>
<!-- http://purl.org/dj/python/lib/816055830 -->
<g id="node3" class="node">
<title>http://purl.org/dj/python/lib/816055830</title>
<ellipse fill="none" stroke="black" cx="400.88" cy="-105" rx="139.18" ry="18"/>
<text text-anchor="middle" x="400.88" y="-101.3" font-family="Times,serif" font-size="14.00">816055830 (sklearn.metrics: Reuse)</text>
</g>
<!-- http://purl.org/dj/kaggle/underfitting&#45;and&#45;overfitting#1722550378&#45;&gt;http://purl.org/dj/python/lib/816055830 -->
<g id="edge2" class="edge">
<title>http://purl.org/dj/kaggle/underfitting&#45;and&#45;overfitting#1722550378&#45;&gt;http://purl.org/dj/python/lib/816055830</title>
<path fill="none" stroke="black" d="M196.99,-194.91C196.22,-178.78 197.9,-155.01 211.88,-141 222.6,-130.26 249.54,-122.74 279.83,-117.5"/>
<polygon fill="black" stroke="black" points="280.46,-120.94 289.76,-115.88 279.33,-114.03 280.46,-120.94"/>
<text text-anchor="middle" x="235.38" y="-155.3" font-family="Times,serif" font-size="14.00">previous</text>
</g>
<!-- http://purl.org/dj/python/lib/816055830&#45;&gt;http://purl.org/dj/kaggle/underfitting&#45;and&#45;overfitting -->
<g id="edge3" class="edge">
<title>http://purl.org/dj/python/lib/816055830&#45;&gt;http://purl.org/dj/kaggle/underfitting&#45;and&#45;overfitting</title>
<path fill="none" stroke="black" d="M431.94,-87.36C455.79,-75.53 489.94,-60.62 521.88,-54 616.87,-34.3 2036.32,-22.78 2456.53,-19.79"/>
<polygon fill="black" stroke="black" points="2456.59,-23.29 2466.57,-19.71 2456.55,-16.29 2456.59,-23.29"/>
<text text-anchor="middle" x="545.38" y="-57.8" font-family="Times,serif" font-size="14.00">previous</text>
</g>
<!-- http://purl.org/dj/kaggle/underfitting&#45;and&#45;overfitting#397607758 -->
<g id="node4" class="node">
<title>http://purl.org/dj/kaggle/underfitting&#45;and&#45;overfitting#397607758</title>
<ellipse fill="none" stroke="black" cx="1190.88" cy="-582" rx="159.77" ry="18"/>
<text text-anchor="middle" x="1190.88" y="-578.3" font-family="Times,serif" font-size="14.00">397607758 (my_mae(0)$0: Visualisation)</text>
</g>
<!-- http://purl.org/dj/kaggle/underfitting&#45;and&#45;overfitting#1021642295 -->
<g id="node5" class="node">
<title>http://purl.org/dj/kaggle/underfitting&#45;and&#45;overfitting#1021642295</title>
<ellipse fill="none" stroke="black" cx="2949.88" cy="-495" rx="157.07" ry="18"/>
<text text-anchor="middle" x="2949.88" y="-491.3" font-family="Times,serif" font-size="14.00">1021642295 (max_leaf_nodes(0): Reuse)</text>
</g>
<!-- http://purl.org/dj/kaggle/underfitting&#45;and&#45;overfitting#397607758&#45;&gt;http://purl.org/dj/kaggle/underfitting&#45;and&#45;overfitting#1021642295 -->
<g id="edge4" class="edge">
<title>http://purl.org/dj/kaggle/underfitting&#45;and&#45;overfitting#397607758&#45;&gt;http://purl.org/dj/kaggle/underfitting&#45;and&#45;overfitting#1021642295</title>
<path fill="none" stroke="black" d="M1332.39,-573.59C1533.73,-563.2 1914.46,-544.1 2238.88,-531 2481.04,-521.22 2542.08,-529.35 2783.88,-513 2799.44,-511.95 2815.8,-510.59 2831.92,-509.09"/>
<polygon fill="black" stroke="black" points="2832.3,-512.57 2841.93,-508.15 2831.64,-505.6 2832.3,-512.57"/>
<text text-anchor="middle" x="2262.38" y="-534.8" font-family="Times,serif" font-size="14.00">previous</text>
</g>
<!-- http://purl.org/dj/kaggle/underfitting&#45;and&#45;overfitting#311624400 -->
<g id="node6" class="node">
<title>http://purl.org/dj/kaggle/underfitting&#45;and&#45;overfitting#311624400</title>
<ellipse fill="none" stroke="black" cx="652.88" cy="-495" rx="144.07" ry="18"/>
<text text-anchor="middle" x="652.88" y="-491.3" font-family="Times,serif" font-size="14.00">311624400 (val_X(0)$0: Preparation)</text>
</g>
<!-- http://purl.org/dj/kaggle/underfitting&#45;and&#45;overfitting#397607758&#45;&gt;http://purl.org/dj/kaggle/underfitting&#45;and&#45;overfitting#311624400 -->
<g id="edge5" class="edge">
<title>http://purl.org/dj/kaggle/underfitting&#45;and&#45;overfitting#397607758&#45;&gt;http://purl.org/dj/kaggle/underfitting&#45;and&#45;overfitting#311624400</title>
<path fill="none" stroke="black" d="M1102.34,-567.01C1004.87,-551.61 848.73,-526.94 748.52,-511.11"/>
<polygon fill="black" stroke="black" points="748.82,-507.61 738.4,-509.51 747.73,-514.53 748.82,-507.61"/>
<text text-anchor="middle" x="978.38" y="-534.8" font-family="Times,serif" font-size="14.00">previous</text>
</g>
<!-- http://purl.org/dj/kaggle/underfitting&#45;and&#45;overfitting#477168555 -->
<g id="node7" class="node">
<title>http://purl.org/dj/kaggle/underfitting&#45;and&#45;overfitting#477168555</title>
<ellipse fill="none" stroke="black" cx="340.88" cy="-495" rx="149.47" ry="18"/>
<text text-anchor="middle" x="340.88" y="-491.3" font-family="Times,serif" font-size="14.00">477168555 (train_X(0)$0: Preparation)</text>
</g>
<!-- http://purl.org/dj/kaggle/underfitting&#45;and&#45;overfitting#397607758&#45;&gt;http://purl.org/dj/kaggle/underfitting&#45;and&#45;overfitting#477168555 -->
<g id="edge6" class="edge">
<title>http://purl.org/dj/kaggle/underfitting&#45;and&#45;overfitting#397607758&#45;&gt;http://purl.org/dj/kaggle/underfitting&#45;and&#45;overfitting#477168555</title>
<path fill="none" stroke="black" d="M1073.48,-569.75C935.97,-556.5 701.34,-533.68 499.88,-513 486.44,-511.62 472.36,-510.15 458.37,-508.67"/>
<polygon fill="black" stroke="black" points="458.52,-505.17 448.21,-507.6 457.78,-512.13 458.52,-505.17"/>
<text text-anchor="middle" x="845.38" y="-534.8" font-family="Times,serif" font-size="14.00">previous</text>
</g>
<!-- http://purl.org/dj/kaggle/underfitting&#45;and&#45;overfitting#324600561 -->
<g id="node8" class="node">
<title>http://purl.org/dj/kaggle/underfitting&#45;and&#45;overfitting#324600561</title>
<ellipse fill="none" stroke="black" cx="1270.88" cy="-495" rx="142.17" ry="18"/>
<text text-anchor="middle" x="1270.88" y="-491.3" font-family="Times,serif" font-size="14.00">324600561 (val_y(0)$0: Preparation)</text>
</g>
<!-- http://purl.org/dj/kaggle/underfitting&#45;and&#45;overfitting#397607758&#45;&gt;http://purl.org/dj/kaggle/underfitting&#45;and&#45;overfitting#324600561 -->
<g id="edge7" class="edge">
<title>http://purl.org/dj/kaggle/underfitting&#45;and&#45;overfitting#397607758&#45;&gt;http://purl.org/dj/kaggle/underfitting&#45;and&#45;overfitting#324600561</title>
<path fill="none" stroke="black" d="M1207.07,-563.8C1218.78,-551.36 1234.77,-534.36 1247.82,-520.5"/>
<polygon fill="black" stroke="black" points="1250.41,-522.86 1254.72,-513.18 1245.31,-518.06 1250.41,-522.86"/>
<text text-anchor="middle" x="1259.38" y="-534.8" font-family="Times,serif" font-size="14.00">previous</text>
</g>
<!-- http://purl.org/dj/kaggle/underfitting&#45;and&#45;overfitting#2190357407 -->
<g id="node9" class="node">
<title>http://purl.org/dj/kaggle/underfitting&#45;and&#45;overfitting#2190357407</title>
<ellipse fill="none" stroke="black" cx="2102.88" cy="-495" rx="672.08" ry="18"/>
<text text-anchor="middle" x="2102.88" y="-491.3" font-family="Times,serif" font-size="14.00">2190357407 ([&lt;_ast.Constant object at 0x12fc3f0d0&gt;, &lt;_ast.Constant object at 0x12fc3f070&gt;, &lt;_ast.Constant object at 0x12fc3f040&gt;, &lt;_ast.Constant object at 0x12fc3f4f0&gt;](0): Reuse)</text>
</g>
<!-- http://purl.org/dj/kaggle/underfitting&#45;and&#45;overfitting#397607758&#45;&gt;http://purl.org/dj/kaggle/underfitting&#45;and&#45;overfitting#2190357407 -->
<g id="edge8" class="edge">
<title>http://purl.org/dj/kaggle/underfitting&#45;and&#45;overfitting#397607758&#45;&gt;http://purl.org/dj/kaggle/underfitting&#45;and&#45;overfitting#2190357407</title>
<path fill="none" stroke="black" d="M1309.64,-569.93C1463.99,-555.55 1735.19,-530.27 1916.94,-513.33"/>
<polygon fill="black" stroke="black" points="1917.52,-516.79 1927.15,-512.38 1916.87,-509.82 1917.52,-516.79"/>
<text text-anchor="middle" x="1725.38" y="-534.8" font-family="Times,serif" font-size="14.00">previous</text>
</g>
<!-- http://purl.org/dj/kaggle/underfitting&#45;and&#45;overfitting#490144716 -->
<g id="node10" class="node">
<title>http://purl.org/dj/kaggle/underfitting&#45;and&#45;overfitting#490144716</title>
<ellipse fill="none" stroke="black" cx="962.88" cy="-495" rx="147.57" ry="18"/>
<text text-anchor="middle" x="962.88" y="-491.3" font-family="Times,serif" font-size="14.00">490144716 (train_y(0)$0: Preparation)</text>
</g>
<!-- http://purl.org/dj/kaggle/underfitting&#45;and&#45;overfitting#397607758&#45;&gt;http://purl.org/dj/kaggle/underfitting&#45;and&#45;overfitting#490144716 -->
<g id="edge9" class="edge">
<title>http://purl.org/dj/kaggle/underfitting&#45;and&#45;overfitting#397607758&#45;&gt;http://purl.org/dj/kaggle/underfitting&#45;and&#45;overfitting#490144716</title>
<path fill="none" stroke="black" d="M1146.92,-564.61C1109.62,-550.71 1055.99,-530.71 1016.24,-515.89"/>
<polygon fill="black" stroke="black" points="1017.3,-512.55 1006.71,-512.34 1014.86,-519.11 1017.3,-512.55"/>
<text text-anchor="middle" x="1114.38" y="-534.8" font-family="Times,serif" font-size="14.00">previous</text>
</g>
<!-- http://purl.org/dj/kaggle/underfitting&#45;and&#45;overfitting#1021642295&#45;&gt;http://purl.org/dj/kaggle/underfitting&#45;and&#45;overfitting -->
<g id="edge10" class="edge">
<title>http://purl.org/dj/kaggle/underfitting&#45;and&#45;overfitting#1021642295&#45;&gt;http://purl.org/dj/kaggle/underfitting&#45;and&#45;overfitting</title>
<path fill="none" stroke="black" d="M2950.09,-476.89C2950.61,-403.08 2948.58,-112.97 2885.88,-54 2871.03,-40.03 2767.19,-30.45 2683.12,-24.9"/>
<polygon fill="black" stroke="black" points="2683.18,-21.39 2672.98,-24.24 2682.73,-28.38 2683.18,-21.39"/>
<text text-anchor="middle" x="2967.38" y="-263.3" font-family="Times,serif" font-size="14.00">previous</text>
</g>
<!-- http://purl.org/dj/kaggle/underfitting&#45;and&#45;overfitting#29687986 -->
<g id="node11" class="node">
<title>http://purl.org/dj/kaggle/underfitting&#45;and&#45;overfitting#29687986</title>
<ellipse fill="none" stroke="black" cx="840.88" cy="-321" rx="94.78" ry="18"/>
<text text-anchor="middle" x="840.88" y="-317.3" font-family="Times,serif" font-size="14.00">29687986 (0(0): Reuse)</text>
</g>
<!-- http://purl.org/dj/kaggle/underfitting&#45;and&#45;overfitting#311624400&#45;&gt;http://purl.org/dj/kaggle/underfitting&#45;and&#45;overfitting#29687986 -->
<g id="edge11" class="edge">
<title>http://purl.org/dj/kaggle/underfitting&#45;and&#45;overfitting#311624400&#45;&gt;http://purl.org/dj/kaggle/underfitting&#45;and&#45;overfitting#29687986</title>
<path fill="none" stroke="black" d="M760.18,-482.91C789.99,-477.61 816.94,-469.95 826.88,-459 834.09,-451.06 838.07,-387.04 839.81,-349.39"/>
<polygon fill="black" stroke="black" points="843.32,-349.23 840.26,-339.09 836.32,-348.92 843.32,-349.23"/>
<text text-anchor="middle" x="861.38" y="-404.3" font-family="Times,serif" font-size="14.00">previous</text>
</g>
<!-- http://purl.org/dj/kaggle/underfitting&#45;and&#45;overfitting#76611886 -->
<g id="node12" class="node">
<title>http://purl.org/dj/kaggle/underfitting&#45;and&#45;overfitting#76611886</title>
<ellipse fill="none" stroke="black" cx="1119.88" cy="-408" rx="130.78" ry="18"/>
<text text-anchor="middle" x="1119.88" y="-404.3" font-family="Times,serif" font-size="14.00">76611886 (X(0)$0: Visualisation)</text>
</g>
<!-- http://purl.org/dj/kaggle/underfitting&#45;and&#45;overfitting#311624400&#45;&gt;http://purl.org/dj/kaggle/underfitting&#45;and&#45;overfitting#76611886 -->
<g id="edge12" class="edge">
<title>http://purl.org/dj/kaggle/underfitting&#45;and&#45;overfitting#311624400&#45;&gt;http://purl.org/dj/kaggle/underfitting&#45;and&#45;overfitting#76611886</title>
<path fill="none" stroke="black" d="M734.51,-480.14C771.31,-473.82 815.31,-466.16 854.88,-459 916.12,-447.92 985.22,-434.86 1037.5,-424.87"/>
<polygon fill="black" stroke="black" points="1038.23,-428.3 1047.39,-422.98 1036.91,-421.42 1038.23,-428.3"/>
<text text-anchor="middle" x="959.38" y="-447.8" font-family="Times,serif" font-size="14.00">previous</text>
</g>
<!-- http://purl.org/dj/kaggle/underfitting&#45;and&#45;overfitting#2743274054 -->
<g id="node13" class="node">
<title>http://purl.org/dj/kaggle/underfitting&#45;and&#45;overfitting#2743274054</title>
<ellipse fill="none" stroke="black" cx="584.88" cy="-408" rx="219.86" ry="18"/>
<text text-anchor="middle" x="584.88" y="-404.3" font-family="Times,serif" font-size="14.00">2743274054 (filtered_melbourne_data(0)$0: Visualisation)</text>
</g>
<!-- http://purl.org/dj/kaggle/underfitting&#45;and&#45;overfitting#311624400&#45;&gt;http://purl.org/dj/kaggle/underfitting&#45;and&#45;overfitting#2743274054 -->
<g id="edge13" class="edge">
<title>http://purl.org/dj/kaggle/underfitting&#45;and&#45;overfitting#311624400&#45;&gt;http://purl.org/dj/kaggle/underfitting&#45;and&#45;overfitting#2743274054</title>
<path fill="none" stroke="black" d="M592.19,-478.54C583.37,-473.7 575.42,-467.34 569.88,-459 565.25,-452.02 565.92,-443.56 568.66,-435.61"/>
<polygon fill="black" stroke="black" points="571.95,-436.84 572.82,-426.28 565.55,-433.99 571.95,-436.84"/>
<text text-anchor="middle" x="593.38" y="-447.8" font-family="Times,serif" font-size="14.00">previous</text>
</g>
<!-- http://purl.org/dj/kaggle/underfitting&#45;and&#45;overfitting#477168555&#45;&gt;http://purl.org/dj/kaggle/underfitting&#45;and&#45;overfitting#29687986 -->
<g id="edge14" class="edge">
<title>http://purl.org/dj/kaggle/underfitting&#45;and&#45;overfitting#477168555&#45;&gt;http://purl.org/dj/kaggle/underfitting&#45;and&#45;overfitting#29687986</title>
<path fill="none" stroke="black" d="M326.75,-476.82C310.04,-454.33 287.09,-414.86 308.88,-390 372.02,-317.98 641.92,-351.55 736.88,-339 745.45,-337.87 754.39,-336.57 763.29,-335.22"/>
<polygon fill="black" stroke="black" points="763.94,-338.66 773.28,-333.67 762.86,-331.74 763.94,-338.66"/>
<text text-anchor="middle" x="332.38" y="-404.3" font-family="Times,serif" font-size="14.00">previous</text>
</g>
<!-- http://purl.org/dj/kaggle/underfitting&#45;and&#45;overfitting#477168555&#45;&gt;http://purl.org/dj/kaggle/underfitting&#45;and&#45;overfitting#76611886 -->
<g id="edge15" class="edge">
<title>http://purl.org/dj/kaggle/underfitting&#45;and&#45;overfitting#477168555&#45;&gt;http://purl.org/dj/kaggle/underfitting&#45;and&#45;overfitting#76611886</title>
<path fill="none" stroke="black" d="M446.46,-482.17C464.28,-480.32 482.6,-478.53 499.88,-477 613.94,-466.91 644.43,-480.56 756.88,-459 778.42,-454.87 782.42,-448.5 803.88,-444 878.67,-428.3 898.93,-434.45 974.88,-426 987.63,-424.58 1001,-423.06 1014.26,-421.53"/>
<polygon fill="black" stroke="black" points="1014.82,-424.99 1024.35,-420.36 1014.02,-418.04 1014.82,-424.99"/>
<text text-anchor="middle" x="827.38" y="-447.8" font-family="Times,serif" font-size="14.00">previous</text>
</g>
<!-- http://purl.org/dj/kaggle/underfitting&#45;and&#45;overfitting#477168555&#45;&gt;http://purl.org/dj/kaggle/underfitting&#45;and&#45;overfitting#2743274054 -->
<g id="edge16" class="edge">
<title>http://purl.org/dj/kaggle/underfitting&#45;and&#45;overfitting#477168555&#45;&gt;http://purl.org/dj/kaggle/underfitting&#45;and&#45;overfitting#2743274054</title>
<path fill="none" stroke="black" d="M387.35,-477.81C427.12,-463.96 484.53,-443.96 527.23,-429.09"/>
<polygon fill="black" stroke="black" points="528.63,-432.3 536.92,-425.71 526.32,-425.69 528.63,-432.3"/>
<text text-anchor="middle" x="501.38" y="-447.8" font-family="Times,serif" font-size="14.00">previous</text>
</g>
<!-- http://purl.org/dj/kaggle/underfitting&#45;and&#45;overfitting#324600561&#45;&gt;http://purl.org/dj/kaggle/underfitting&#45;and&#45;overfitting#29687986 -->
<g id="edge17" class="edge">
<title>http://purl.org/dj/kaggle/underfitting&#45;and&#45;overfitting#324600561&#45;&gt;http://purl.org/dj/kaggle/underfitting&#45;and&#45;overfitting#29687986</title>
<path fill="none" stroke="black" d="M1277.81,-476.63C1288.07,-447.73 1303.04,-389.7 1272.88,-357 1251.1,-333.38 1066.03,-325.7 945.3,-323.2"/>
<polygon fill="black" stroke="black" points="945.34,-319.7 935.27,-323 945.2,-326.7 945.34,-319.7"/>
<text text-anchor="middle" x="1314.38" y="-404.3" font-family="Times,serif" font-size="14.00">previous</text>
</g>
<!-- http://purl.org/dj/kaggle/underfitting&#45;and&#45;overfitting#324600561&#45;&gt;http://purl.org/dj/kaggle/underfitting&#45;and&#45;overfitting#76611886 -->
<g id="edge18" class="edge">
<title>http://purl.org/dj/kaggle/underfitting&#45;and&#45;overfitting#324600561&#45;&gt;http://purl.org/dj/kaggle/underfitting&#45;and&#45;overfitting#76611886</title>
<path fill="none" stroke="black" d="M1241.05,-477.21C1217.29,-463.83 1183.87,-445.02 1158.15,-430.54"/>
<polygon fill="black" stroke="black" points="1159.83,-427.47 1149.4,-425.61 1156.39,-433.57 1159.83,-427.47"/>
<text text-anchor="middle" x="1228.38" y="-447.8" font-family="Times,serif" font-size="14.00">previous</text>
</g>
<!-- http://purl.org/dj/kaggle/underfitting&#45;and&#45;overfitting#324600561&#45;&gt;http://purl.org/dj/kaggle/underfitting&#45;and&#45;overfitting#2743274054 -->
<g id="edge19" class="edge">
<title>http://purl.org/dj/kaggle/underfitting&#45;and&#45;overfitting#324600561&#45;&gt;http://purl.org/dj/kaggle/underfitting&#45;and&#45;overfitting#2743274054</title>
<path fill="none" stroke="black" d="M1172.69,-481.96C1155.13,-480.09 1136.98,-478.34 1119.88,-477 1028.96,-469.89 796.71,-486.9 709.88,-459 698.26,-455.27 697.85,-449.35 686.88,-444 675.47,-438.43 662.94,-433.35 650.68,-428.89"/>
<polygon fill="black" stroke="black" points="651.54,-425.48 640.94,-425.46 649.21,-432.09 651.54,-425.48"/>
<text text-anchor="middle" x="733.38" y="-447.8" font-family="Times,serif" font-size="14.00">previous</text>
</g>
<!-- http://purl.org/dj/kaggle/underfitting&#45;and&#45;overfitting#2190357407&#45;&gt;http://purl.org/dj/kaggle/underfitting&#45;and&#45;overfitting -->
<g id="edge20" class="edge">
<title>http://purl.org/dj/kaggle/underfitting&#45;and&#45;overfitting#2190357407&#45;&gt;http://purl.org/dj/kaggle/underfitting&#45;and&#45;overfitting</title>
<path fill="none" stroke="black" d="M2531.51,-481.13C2707.98,-469.85 2871.88,-448.69 2871.88,-409 2871.88,-409 2871.88,-409 2871.88,-104 2871.88,-61.95 2761.09,-39.6 2674.39,-28.54"/>
<polygon fill="black" stroke="black" points="2674.57,-25.04 2664.22,-27.28 2673.71,-31.99 2674.57,-25.04"/>
<text text-anchor="middle" x="2895.38" y="-263.3" font-family="Times,serif" font-size="14.00">previous</text>
</g>
<!-- http://purl.org/dj/kaggle/underfitting&#45;and&#45;overfitting#490144716&#45;&gt;http://purl.org/dj/kaggle/underfitting&#45;and&#45;overfitting#29687986 -->
<g id="edge21" class="edge">
<title>http://purl.org/dj/kaggle/underfitting&#45;and&#45;overfitting#490144716&#45;&gt;http://purl.org/dj/kaggle/underfitting&#45;and&#45;overfitting#29687986</title>
<path fill="none" stroke="black" d="M950.56,-476.99C946.49,-471.3 941.95,-464.9 937.88,-459 916.95,-428.67 913.17,-420.09 891.88,-390 881.7,-375.61 869.92,-359.85 860.25,-347.12"/>
<polygon fill="black" stroke="black" points="862.78,-344.68 853.93,-338.85 857.22,-348.93 862.78,-344.68"/>
<text text-anchor="middle" x="939.38" y="-404.3" font-family="Times,serif" font-size="14.00">previous</text>
</g>
<!-- http://purl.org/dj/kaggle/underfitting&#45;and&#45;overfitting#490144716&#45;&gt;http://purl.org/dj/kaggle/underfitting&#45;and&#45;overfitting#76611886 -->
<g id="edge22" class="edge">
<title>http://purl.org/dj/kaggle/underfitting&#45;and&#45;overfitting#490144716&#45;&gt;http://purl.org/dj/kaggle/underfitting&#45;and&#45;overfitting#76611886</title>
<path fill="none" stroke="black" d="M1012.2,-477.92C1026.05,-472.64 1040.87,-466.24 1053.88,-459 1067.43,-451.46 1081.27,-441.41 1092.76,-432.29"/>
<polygon fill="black" stroke="black" points="1095.11,-434.88 1100.67,-425.86 1090.7,-429.45 1095.11,-434.88"/>
<text text-anchor="middle" x="1100.38" y="-447.8" font-family="Times,serif" font-size="14.00">previous</text>
</g>
<!-- http://purl.org/dj/kaggle/underfitting&#45;and&#45;overfitting#490144716&#45;&gt;http://purl.org/dj/kaggle/underfitting&#45;and&#45;overfitting#2743274054 -->
<g id="edge23" class="edge">
<title>http://purl.org/dj/kaggle/underfitting&#45;and&#45;overfitting#490144716&#45;&gt;http://purl.org/dj/kaggle/underfitting&#45;and&#45;overfitting#2743274054</title>
<path fill="none" stroke="black" d="M856.67,-482.49C762.53,-472.29 639.88,-459 639.88,-459 632.74,-455.79 620,-444.37 608.58,-433.26"/>
<polygon fill="black" stroke="black" points="610.91,-430.64 601.34,-426.1 605.98,-435.62 610.91,-430.64"/>
<text text-anchor="middle" x="663.38" y="-447.8" font-family="Times,serif" font-size="14.00">previous</text>
</g>
<!-- http://purl.org/dj/kaggle/underfitting&#45;and&#45;overfitting#29687986&#45;&gt;http://purl.org/dj/kaggle/underfitting&#45;and&#45;overfitting -->
<g id="edge24" class="edge">
<title>http://purl.org/dj/kaggle/underfitting&#45;and&#45;overfitting#29687986&#45;&gt;http://purl.org/dj/kaggle/underfitting&#45;and&#45;overfitting</title>
<path fill="none" stroke="black" d="M771.63,-308.65C710.23,-298.56 630.18,-285.35 629.88,-285 619.54,-272.8 618.88,-260.61 629.88,-249 655.52,-221.94 927.77,-234.44 964.88,-231 1549.84,-176.81 2249.32,-70.14 2488.17,-32.52"/>
<polygon fill="black" stroke="black" points="2488.84,-35.96 2498.17,-30.95 2487.75,-29.05 2488.84,-35.96"/>
<text text-anchor="middle" x="1752.38" y="-155.3" font-family="Times,serif" font-size="14.00">previous</text>
</g>
<!-- http://purl.org/dj/kaggle/underfitting&#45;and&#45;overfitting#585849246 -->
<g id="node14" class="node">
<title>http://purl.org/dj/kaggle/underfitting&#45;and&#45;overfitting#585849246</title>
<ellipse fill="none" stroke="black" cx="1739.88" cy="-267" rx="1108.6" ry="18"/>
<text text-anchor="middle" x="1739.88" y="-263.3" font-family="Times,serif" font-size="14.00">585849246 ([&lt;_ast.Constant object at 0x12f85ebe0&gt;, &lt;_ast.Constant object at 0x12f85e9d0&gt;, &lt;_ast.Constant object at 0x12f8ab790&gt;, &lt;_ast.Constant object at 0x12f8ab130&gt;, &lt;_ast.Constant object at 0x12f8ab040&gt;, &lt;_ast.Constant object at 0x12f8ab8b0&gt;, &lt;_ast.Constant object at 0x12f8ab0a0&gt;](0): Reuse)</text>
</g>
<!-- http://purl.org/dj/kaggle/underfitting&#45;and&#45;overfitting#76611886&#45;&gt;http://purl.org/dj/kaggle/underfitting&#45;and&#45;overfitting#585849246 -->
<g id="edge25" class="edge">
<title>http://purl.org/dj/kaggle/underfitting&#45;and&#45;overfitting#76611886&#45;&gt;http://purl.org/dj/kaggle/underfitting&#45;and&#45;overfitting#585849246</title>
<path fill="none" stroke="black" d="M1185.06,-392.39C1297.67,-367.14 1528.6,-315.37 1654.1,-287.23"/>
<polygon fill="black" stroke="black" points="1655.07,-290.6 1664.06,-285 1653.54,-283.77 1655.07,-290.6"/>
<text text-anchor="middle" x="1362.38" y="-360.8" font-family="Times,serif" font-size="14.00">previous</text>
</g>
<!-- http://purl.org/dj/kaggle/underfitting&#45;and&#45;overfitting#2743274054&#45;&gt;http://purl.org/dj/kaggle/underfitting&#45;and&#45;overfitting#29687986 -->
<g id="edge26" class="edge">
<title>http://purl.org/dj/kaggle/underfitting&#45;and&#45;overfitting#2743274054&#45;&gt;http://purl.org/dj/kaggle/underfitting&#45;and&#45;overfitting#29687986</title>
<path fill="none" stroke="black" d="M634.85,-390.41C678.36,-375.96 741.34,-355.05 786.19,-340.16"/>
<polygon fill="black" stroke="black" points="787.37,-343.46 795.76,-336.98 785.16,-336.81 787.37,-343.46"/>
<text text-anchor="middle" x="752.38" y="-360.8" font-family="Times,serif" font-size="14.00">previous</text>
</g>
<!-- http://purl.org/dj/kaggle/underfitting&#45;and&#45;overfitting#1257178776 -->
<g id="node15" class="node">
<title>http://purl.org/dj/kaggle/underfitting&#45;and&#45;overfitting#1257178776</title>
<ellipse fill="none" stroke="black" cx="544.88" cy="-321" rx="182.77" ry="18"/>
<text text-anchor="middle" x="544.88" y="-317.3" font-family="Times,serif" font-size="14.00">1257178776 (melbourne_data(0)$0: Movement)</text>
</g>
<!-- http://purl.org/dj/kaggle/underfitting&#45;and&#45;overfitting#2743274054&#45;&gt;http://purl.org/dj/kaggle/underfitting&#45;and&#45;overfitting#1257178776 -->
<g id="edge27" class="edge">
<title>http://purl.org/dj/kaggle/underfitting&#45;and&#45;overfitting#2743274054&#45;&gt;http://purl.org/dj/kaggle/underfitting&#45;and&#45;overfitting#1257178776</title>
<path fill="none" stroke="black" d="M576.79,-389.8C571.2,-377.93 563.67,-361.93 557.33,-348.45"/>
<polygon fill="black" stroke="black" points="560.39,-346.73 552.96,-339.18 554.06,-349.71 560.39,-346.73"/>
<text text-anchor="middle" x="591.38" y="-360.8" font-family="Times,serif" font-size="14.00">previous</text>
</g>
<!-- http://purl.org/dj/kaggle/underfitting&#45;and&#45;overfitting#585849246&#45;&gt;http://purl.org/dj/kaggle/underfitting&#45;and&#45;overfitting -->
<g id="edge28" class="edge">
<title>http://purl.org/dj/kaggle/underfitting&#45;and&#45;overfitting#585849246&#45;&gt;http://purl.org/dj/kaggle/underfitting&#45;and&#45;overfitting</title>
<path fill="none" stroke="black" d="M1797.14,-249.02C1948.47,-204.15 2358.03,-82.71 2512.67,-36.85"/>
<polygon fill="black" stroke="black" points="2513.89,-40.14 2522.48,-33.94 2511.9,-33.43 2513.89,-40.14"/>
<text text-anchor="middle" x="2180.38" y="-155.3" font-family="Times,serif" font-size="14.00">previous</text>
</g>
<!-- http://purl.org/dj/kaggle/underfitting&#45;and&#45;overfitting#80085334 -->
<g id="node16" class="node">
<title>http://purl.org/dj/kaggle/underfitting&#45;and&#45;overfitting#80085334</title>
<ellipse fill="none" stroke="black" cx="831.88" cy="-213" rx="124.28" ry="18"/>
<text text-anchor="middle" x="831.88" y="-209.3" font-family="Times,serif" font-size="14.00">80085334 (pd(0): Visualisation)</text>
</g>
<!-- http://purl.org/dj/kaggle/underfitting&#45;and&#45;overfitting#1257178776&#45;&gt;http://purl.org/dj/kaggle/underfitting&#45;and&#45;overfitting#80085334 -->
<g id="edge36" class="edge">
<title>http://purl.org/dj/kaggle/underfitting&#45;and&#45;overfitting#1257178776&#45;&gt;http://purl.org/dj/kaggle/underfitting&#45;and&#45;overfitting#80085334</title>
<path fill="none" stroke="black" d="M542,-302.82C540.35,-286.62 540.88,-262.81 554.88,-249 575.65,-228.53 638.07,-219.57 698.41,-215.82"/>
<polygon fill="black" stroke="black" points="698.67,-219.31 708.46,-215.24 698.27,-212.32 698.67,-219.31"/>
<text text-anchor="middle" x="578.38" y="-263.3" font-family="Times,serif" font-size="14.00">previous</text>
</g>
<!-- http://purl.org/dj/kaggle/underfitting&#45;and&#45;overfitting#58004286 -->
<g id="node21" class="node">
<title>http://purl.org/dj/kaggle/underfitting&#45;and&#45;overfitting#58004286</title>
<ellipse fill="none" stroke="black" cx="541.88" cy="-159" rx="274.05" ry="18"/>
<text text-anchor="middle" x="541.88" y="-155.3" font-family="Times,serif" font-size="14.00">58004286 (../input/melbourne&#45;housing&#45;snapshot/melb_data.csv(0): Reuse)</text>
</g>
<!-- http://purl.org/dj/kaggle/underfitting&#45;and&#45;overfitting#1257178776&#45;&gt;http://purl.org/dj/kaggle/underfitting&#45;and&#45;overfitting#58004286 -->
<g id="edge37" class="edge">
<title>http://purl.org/dj/kaggle/underfitting&#45;and&#45;overfitting#1257178776&#45;&gt;http://purl.org/dj/kaggle/underfitting&#45;and&#45;overfitting#58004286</title>
<path fill="none" stroke="black" d="M508.07,-303.29C501.18,-298.41 494.88,-292.36 490.88,-285 472.8,-251.74 497.84,-210.69 518.78,-184.92"/>
<polygon fill="black" stroke="black" points="521.59,-187.01 525.38,-177.12 516.25,-182.49 521.59,-187.01"/>
<text text-anchor="middle" x="514.38" y="-263.3" font-family="Times,serif" font-size="14.00">previous</text>
</g>
<!-- http://purl.org/dj/kaggle/underfitting&#45;and&#45;overfitting#80085334&#45;&gt;http://purl.org/dj/kaggle/underfitting&#45;and&#45;overfitting -->
<g id="edge29" class="edge">
<title>http://purl.org/dj/kaggle/underfitting&#45;and&#45;overfitting#80085334&#45;&gt;http://purl.org/dj/kaggle/underfitting&#45;and&#45;overfitting</title>
<path fill="none" stroke="black" d="M860.4,-195.34C867.72,-190.13 875.13,-183.91 880.88,-177 909.1,-143.06 894.53,-120.83 922.88,-87 939.28,-67.44 945.63,-61.96 969.88,-54 1040.19,-30.94 2099.7,-22.04 2456.57,-19.69"/>
<polygon fill="black" stroke="black" points="2456.69,-23.19 2466.66,-19.62 2456.64,-16.19 2456.69,-23.19"/>
<text text-anchor="middle" x="946.38" y="-101.3" font-family="Times,serif" font-size="14.00">previous</text>
</g>
<!-- http://purl.org/dj/python/lib/144966264 -->
<g id="node17" class="node">
<title>http://purl.org/dj/python/lib/144966264</title>
<ellipse fill="none" stroke="black" cx="763.88" cy="-105" rx="109.38" ry="18"/>
<text text-anchor="middle" x="763.88" y="-101.3" font-family="Times,serif" font-size="14.00">144966264 (pandas: Reuse)</text>
</g>
<!-- http://purl.org/dj/kaggle/underfitting&#45;and&#45;overfitting#80085334&#45;&gt;http://purl.org/dj/python/lib/144966264 -->
<g id="edge30" class="edge">
<title>http://purl.org/dj/kaggle/underfitting&#45;and&#45;overfitting#80085334&#45;&gt;http://purl.org/dj/python/lib/144966264</title>
<path fill="none" stroke="black" d="M831.84,-194.81C831.01,-179.47 827.8,-157.04 816.88,-141 813.7,-136.33 809.67,-132.12 805.26,-128.39"/>
<polygon fill="black" stroke="black" points="807.09,-125.39 797,-122.17 802.88,-130.98 807.09,-125.39"/>
<text text-anchor="middle" x="853.38" y="-155.3" font-family="Times,serif" font-size="14.00">previous</text>
</g>
<!-- http://purl.org/dj/python/lib/144966264&#45;&gt;http://purl.org/dj/kaggle/underfitting&#45;and&#45;overfitting -->
<g id="edge31" class="edge">
<title>http://purl.org/dj/python/lib/144966264&#45;&gt;http://purl.org/dj/kaggle/underfitting&#45;and&#45;overfitting</title>
<path fill="none" stroke="black" d="M784.89,-87.28C801.07,-75.49 824.55,-60.67 847.88,-54 925.03,-31.93 2081.78,-22.29 2456.61,-19.73"/>
<polygon fill="black" stroke="black" points="2456.68,-23.23 2466.66,-19.66 2456.64,-16.23 2456.68,-23.23"/>
<text text-anchor="middle" x="871.38" y="-57.8" font-family="Times,serif" font-size="14.00">previous</text>
</g>
<!-- http://purl.org/dj/kaggle/underfitting&#45;and&#45;overfitting#2910982067 -->
<g id="node18" class="node">
<title>http://purl.org/dj/kaggle/underfitting&#45;and&#45;overfitting#2910982067</title>
<ellipse fill="none" stroke="black" cx="3241.88" cy="-105" rx="303.55" ry="18"/>
<text text-anchor="middle" x="3241.88" y="-101.3" font-family="Times,serif" font-size="14.00">2910982067 (Max leaf nodes: %d &#160;		 Mean Absolute Error: &#160;%d(0): Reuse)</text>
</g>
<!-- http://purl.org/dj/kaggle/underfitting&#45;and&#45;overfitting#2910982067&#45;&gt;http://purl.org/dj/kaggle/underfitting&#45;and&#45;overfitting -->
<g id="edge32" class="edge">
<title>http://purl.org/dj/kaggle/underfitting&#45;and&#45;overfitting#2910982067&#45;&gt;http://purl.org/dj/kaggle/underfitting&#45;and&#45;overfitting</title>
<path fill="none" stroke="black" d="M3148.16,-87.84C3084.93,-77.28 2999.55,-63.71 2923.88,-54 2840.8,-43.34 2746.31,-34.08 2676.31,-27.76"/>
<polygon fill="black" stroke="black" points="2676.43,-24.26 2666.16,-26.85 2675.81,-31.23 2676.43,-24.26"/>
<text text-anchor="middle" x="3053.38" y="-57.8" font-family="Times,serif" font-size="14.00">previous</text>
</g>
<!-- http://purl.org/dj/kaggle/underfitting&#45;and&#45;overfitting#1322649418 -->
<g id="node19" class="node">
<title>http://purl.org/dj/kaggle/underfitting&#45;and&#45;overfitting#1322649418</title>
<ellipse fill="none" stroke="black" cx="3631.88" cy="-213" rx="176.57" ry="18"/>
<text text-anchor="middle" x="3631.88" y="-209.3" font-family="Times,serif" font-size="14.00">1322649418 (train_test_split(0): Visualisation)</text>
</g>
<!-- http://purl.org/dj/kaggle/underfitting&#45;and&#45;overfitting#1322649418&#45;&gt;http://purl.org/dj/kaggle/underfitting&#45;and&#45;overfitting -->
<g id="edge33" class="edge">
<title>http://purl.org/dj/kaggle/underfitting&#45;and&#45;overfitting#1322649418&#45;&gt;http://purl.org/dj/kaggle/underfitting&#45;and&#45;overfitting</title>
<path fill="none" stroke="black" d="M3623.78,-194.84C3608.66,-163.65 3575.82,-99.67 3554.88,-87 3482.36,-43.12 2932.43,-26.41 2688.64,-21.11"/>
<polygon fill="black" stroke="black" points="2688.4,-17.61 2678.32,-20.89 2688.25,-24.61 2688.4,-17.61"/>
<text text-anchor="middle" x="3606.38" y="-101.3" font-family="Times,serif" font-size="14.00">previous</text>
</g>
<!-- http://purl.org/dj/python/lib/1865222485 -->
<g id="node20" class="node">
<title>http://purl.org/dj/python/lib/1865222485</title>
<ellipse fill="none" stroke="black" cx="3821.88" cy="-105" rx="174.67" ry="18"/>
<text text-anchor="middle" x="3821.88" y="-101.3" font-family="Times,serif" font-size="14.00">1865222485 (sklearn.model_selection: Reuse)</text>
</g>
<!-- http://purl.org/dj/kaggle/underfitting&#45;and&#45;overfitting#1322649418&#45;&gt;http://purl.org/dj/python/lib/1865222485 -->
<g id="edge34" class="edge">
<title>http://purl.org/dj/kaggle/underfitting&#45;and&#45;overfitting#1322649418&#45;&gt;http://purl.org/dj/python/lib/1865222485</title>
<path fill="none" stroke="black" d="M3661.99,-195.2C3694.55,-177.04 3746.6,-148 3782.42,-128.02"/>
<polygon fill="black" stroke="black" points="3784.58,-130.82 3791.6,-122.89 3781.17,-124.71 3784.58,-130.82"/>
<text text-anchor="middle" x="3778.38" y="-155.3" font-family="Times,serif" font-size="14.00">previous</text>
</g>
<!-- http://purl.org/dj/python/lib/1865222485&#45;&gt;http://purl.org/dj/kaggle/underfitting&#45;and&#45;overfitting -->
<g id="edge35" class="edge">
<title>http://purl.org/dj/python/lib/1865222485&#45;&gt;http://purl.org/dj/kaggle/underfitting&#45;and&#45;overfitting</title>
<path fill="none" stroke="black" d="M3763.4,-87.96C3718.07,-76.29 3653.49,-61.3 3595.88,-54 3423.68,-32.19 2918.62,-23.29 2688.95,-20.29"/>
<polygon fill="black" stroke="black" points="2688.94,-16.79 2678.89,-20.16 2688.85,-23.79 2688.94,-16.79"/>
<text text-anchor="middle" x="3700.38" y="-57.8" font-family="Times,serif" font-size="14.00">previous</text>
</g>
<!-- http://purl.org/dj/kaggle/underfitting&#45;and&#45;overfitting#58004286&#45;&gt;http://purl.org/dj/kaggle/underfitting&#45;and&#45;overfitting -->
<g id="edge41" class="edge">
<title>http://purl.org/dj/kaggle/underfitting&#45;and&#45;overfitting#58004286&#45;&gt;http://purl.org/dj/kaggle/underfitting&#45;and&#45;overfitting</title>
<path fill="none" stroke="black" d="M550.68,-140.88C560.2,-124.24 576.99,-99.67 598.88,-87 681.03,-39.45 715.33,-62.29 809.88,-54 1130.95,-25.84 2116.53,-20.32 2456.3,-19.25"/>
<polygon fill="black" stroke="black" points="2456.42,-22.75 2466.41,-19.22 2456.4,-15.75 2456.42,-22.75"/>
<text text-anchor="middle" x="622.38" y="-101.3" font-family="Times,serif" font-size="14.00">previous</text>
</g>
<!-- http://purl.org/dj/kaggle/underfitting&#45;and&#45;overfitting#1967917308 -->
<g id="node22" class="node">
<title>http://purl.org/dj/kaggle/underfitting&#45;and&#45;overfitting#1967917308</title>
<ellipse fill="none" stroke="black" cx="4073.88" cy="-213" rx="206.86" ry="18"/>
<text text-anchor="middle" x="4073.88" y="-209.3" font-family="Times,serif" font-size="14.00">1967917308 (DecisionTreeRegressor(0): Visualisation)</text>
</g>
<!-- http://purl.org/dj/kaggle/underfitting&#45;and&#45;overfitting#1967917308&#45;&gt;http://purl.org/dj/kaggle/underfitting&#45;and&#45;overfitting -->
<g id="edge38" class="edge">
<title>http://purl.org/dj/kaggle/underfitting&#45;and&#45;overfitting#1967917308&#45;&gt;http://purl.org/dj/kaggle/underfitting&#45;and&#45;overfitting</title>
<path fill="none" stroke="black" d="M4069.94,-194.85C4062.58,-167.08 4043.93,-112.77 4005.88,-87 3902.87,-17.22 3851.96,-63.23 3727.88,-54 3348.73,-25.81 2897.94,-20.17 2689.39,-19.15"/>
<polygon fill="black" stroke="black" points="2689.35,-15.65 2679.34,-19.1 2689.32,-22.65 2689.35,-15.65"/>
<text text-anchor="middle" x="4062.38" y="-101.3" font-family="Times,serif" font-size="14.00">previous</text>
</g>
<!-- http://purl.org/dj/python/lib/532874447 -->
<g id="node23" class="node">
<title>http://purl.org/dj/python/lib/532874447</title>
<ellipse fill="none" stroke="black" cx="4223.88" cy="-105" rx="126.18" ry="18"/>
<text text-anchor="middle" x="4223.88" y="-101.3" font-family="Times,serif" font-size="14.00">532874447 (sklearn.tree: Reuse)</text>
</g>
<!-- http://purl.org/dj/kaggle/underfitting&#45;and&#45;overfitting#1967917308&#45;&gt;http://purl.org/dj/python/lib/532874447 -->
<g id="edge39" class="edge">
<title>http://purl.org/dj/kaggle/underfitting&#45;and&#45;overfitting#1967917308&#45;&gt;http://purl.org/dj/python/lib/532874447</title>
<path fill="none" stroke="black" d="M4097.98,-194.97C4123.35,-177.04 4163.43,-148.72 4191.53,-128.86"/>
<polygon fill="black" stroke="black" points="4193.7,-131.62 4199.84,-122.99 4189.66,-125.9 4193.7,-131.62"/>
<text text-anchor="middle" x="4194.38" y="-155.3" font-family="Times,serif" font-size="14.00">previous</text>
</g>
<!-- http://purl.org/dj/python/lib/532874447&#45;&gt;http://purl.org/dj/kaggle/underfitting&#45;and&#45;overfitting -->
<g id="edge40" class="edge">
<title>http://purl.org/dj/python/lib/532874447&#45;&gt;http://purl.org/dj/kaggle/underfitting&#45;and&#45;overfitting</title>
<path fill="none" stroke="black" d="M4179.46,-88.09C4144.07,-76.23 4092.98,-60.95 4046.88,-54 3914.48,-34.05 3013.91,-23.33 2689.25,-20.08"/>
<polygon fill="black" stroke="black" points="2688.92,-16.58 2678.88,-19.98 2688.85,-23.58 2688.92,-16.58"/>
<text text-anchor="middle" x="4139.38" y="-57.8" font-family="Times,serif" font-size="14.00">previous</text>
</g>
<!-- http://purl.org/dj/kaggle/underfitting&#45;and&#45;overfitting#249561878 -->
<g id="node24" class="node">
<title>http://purl.org/dj/kaggle/underfitting&#45;and&#45;overfitting#249561878</title>
<ellipse fill="none" stroke="black" cx="3241.88" cy="-213" rx="136.48" ry="18"/>
<text text-anchor="middle" x="3241.88" y="-209.3" font-family="Times,serif" font-size="14.00">249561878 (print[0]: Visualisation)</text>
</g>
<!-- http://purl.org/dj/kaggle/underfitting&#45;and&#45;overfitting#249561878&#45;&gt;http://purl.org/dj/kaggle/underfitting&#45;and&#45;overfitting#2910982067 -->
<g id="edge42" class="edge">
<title>http://purl.org/dj/kaggle/underfitting&#45;and&#45;overfitting#249561878&#45;&gt;http://purl.org/dj/kaggle/underfitting&#45;and&#45;overfitting#2910982067</title>
<path fill="none" stroke="black" d="M3241.88,-194.97C3241.88,-178.38 3241.88,-152.88 3241.88,-133.43"/>
<polygon fill="black" stroke="black" points="3245.38,-133.34 3241.88,-123.34 3238.38,-133.34 3245.38,-133.34"/>
<text text-anchor="middle" x="3265.38" y="-155.3" font-family="Times,serif" font-size="14.00">previous</text>
</g>
<!-- http://purl.org/dj/kaggle/underfitting&#45;and&#45;overfitting#249692951 -->
<g id="node25" class="node">
<title>http://purl.org/dj/kaggle/underfitting&#45;and&#45;overfitting#249692951</title>
<ellipse fill="none" stroke="black" cx="2525.88" cy="-582" rx="136.48" ry="18"/>
<text text-anchor="middle" x="2525.88" y="-578.3" font-family="Times,serif" font-size="14.00">249692951 (print[1]: Visualisation)</text>
</g>
<!-- http://purl.org/dj/kaggle/underfitting&#45;and&#45;overfitting#249692951&#45;&gt;http://purl.org/dj/kaggle/underfitting&#45;and&#45;overfitting#1021642295 -->
<g id="edge43" class="edge">
<title>http://purl.org/dj/kaggle/underfitting&#45;and&#45;overfitting#249692951&#45;&gt;http://purl.org/dj/kaggle/underfitting&#45;and&#45;overfitting#1021642295</title>
<path fill="none" stroke="black" d="M2597.81,-566.58C2671.9,-551.73 2787.3,-528.59 2865.62,-512.89"/>
<polygon fill="black" stroke="black" points="2866.35,-516.32 2875.46,-510.92 2864.97,-509.45 2866.35,-516.32"/>
<text text-anchor="middle" x="2787.38" y="-534.8" font-family="Times,serif" font-size="14.00">previous</text>
</g>
<!-- http://purl.org/dj/kaggle/underfitting&#45;and&#45;overfitting#249692951&#45;&gt;http://purl.org/dj/kaggle/underfitting&#45;and&#45;overfitting#2190357407 -->
<g id="edge44" class="edge">
<title>http://purl.org/dj/kaggle/underfitting&#45;and&#45;overfitting#249692951&#45;&gt;http://purl.org/dj/kaggle/underfitting&#45;and&#45;overfitting#2190357407</title>
<path fill="none" stroke="black" d="M2454.13,-566.58C2383.41,-552.37 2274.96,-530.58 2197.28,-514.97"/>
<polygon fill="black" stroke="black" points="2197.5,-511.44 2187.01,-512.9 2196.12,-518.31 2197.5,-511.44"/>
<text text-anchor="middle" x="2363.38" y="-534.8" font-family="Times,serif" font-size="14.00">previous</text>
</g>
</g>
</svg>
