<?xml version="1.0" encoding="UTF-8" standalone="no"?>
<!DOCTYPE svg PUBLIC "-//W3C//DTD SVG 1.1//EN"
 "http://www.w3.org/Graphics/SVG/1.1/DTD/svg11.dtd">
<!-- Generated by graphviz version 2.47.1 (20210417.1919)
 -->
<!-- Pages: 1 -->
<svg width="3147pt" height="827pt"
 viewBox="0.00 0.00 3147.27 827.00" xmlns="http://www.w3.org/2000/svg" xmlns:xlink="http://www.w3.org/1999/xlink">
<g id="graph0" class="graph" transform="scale(1 1) rotate(0) translate(4 823)">
<polygon fill="white" stroke="transparent" points="-4,4 -4,-823 3143.27,-823 3143.27,4 -4,4"/>
<!-- http://purl.org/dj/kaggle/unet34&#45;dice&#45;0&#45;87/activity/&#45;7504248398264691507 -->
<g id="node1" class="node">
<title>http://purl.org/dj/kaggle/unet34&#45;dice&#45;0&#45;87/activity/&#45;7504248398264691507</title>
<ellipse fill="none" stroke="black" cx="1325.69" cy="-627" rx="126.98" ry="18"/>
<text text-anchor="middle" x="1325.69" y="-623.3" font-family="Times,serif" font-size="14.00">&#45;7504248398264691507 (Reuse)</text>
</g>
<!-- http://purl.org/dj/kaggle/unet34&#45;dice&#45;0&#45;87/activity/530902506426474863 -->
<g id="node2" class="node">
<title>http://purl.org/dj/kaggle/unet34&#45;dice&#45;0&#45;87/activity/530902506426474863</title>
<ellipse fill="none" stroke="black" cx="1635.69" cy="-540" rx="128.88" ry="18"/>
<text text-anchor="middle" x="1635.69" y="-536.3" font-family="Times,serif" font-size="14.00">530902506426474863 (Analysis)</text>
</g>
<!-- http://purl.org/dj/kaggle/unet34&#45;dice&#45;0&#45;87/activity/&#45;7504248398264691507&#45;&gt;http://purl.org/dj/kaggle/unet34&#45;dice&#45;0&#45;87/activity/530902506426474863 -->
<g id="edge1" class="edge">
<title>http://purl.org/dj/kaggle/unet34&#45;dice&#45;0&#45;87/activity/&#45;7504248398264691507&#45;&gt;http://purl.org/dj/kaggle/unet34&#45;dice&#45;0&#45;87/activity/530902506426474863</title>
<path fill="none" stroke="black" d="M1381.11,-610.8C1434.09,-596.28 1514,-574.37 1570.12,-558.98"/>
<polygon fill="black" stroke="black" points="1571.24,-562.3 1579.96,-556.28 1569.39,-555.55 1571.24,-562.3"/>
<text text-anchor="middle" x="1522.19" y="-579.8" font-family="Times,serif" font-size="14.00">previous</text>
</g>
<!-- http://purl.org/dj/kaggle/unet34&#45;dice&#45;0&#45;87/activity/1345027233427741590 -->
<g id="node3" class="node">
<title>http://purl.org/dj/kaggle/unet34&#45;dice&#45;0&#45;87/activity/1345027233427741590</title>
<ellipse fill="none" stroke="black" cx="472.69" cy="-366" rx="133.48" ry="18"/>
<text text-anchor="middle" x="472.69" y="-362.3" font-family="Times,serif" font-size="14.00">1345027233427741590 (Analysis)</text>
</g>
<!-- http://purl.org/dj/kaggle/unet34&#45;dice&#45;0&#45;87/activity/&#45;7504248398264691507&#45;&gt;http://purl.org/dj/kaggle/unet34&#45;dice&#45;0&#45;87/activity/1345027233427741590 -->
<g id="edge2" class="edge">
<title>http://purl.org/dj/kaggle/unet34&#45;dice&#45;0&#45;87/activity/&#45;7504248398264691507&#45;&gt;http://purl.org/dj/kaggle/unet34&#45;dice&#45;0&#45;87/activity/1345027233427741590</title>
<path fill="none" stroke="black" d="M1290.06,-609.72C1197.96,-568.31 943.57,-458.3 720.69,-402 694.15,-395.3 633.72,-386.72 579.16,-379.73"/>
<polygon fill="black" stroke="black" points="579.41,-376.24 569.05,-378.45 578.53,-383.18 579.41,-376.24"/>
<text text-anchor="middle" x="1053.19" y="-492.8" font-family="Times,serif" font-size="14.00">previous</text>
</g>
<!-- http://purl.org/dj/kaggle/unet34&#45;dice&#45;0&#45;87/activity/&#45;6622771012353686163 -->
<g id="node4" class="node">
<title>http://purl.org/dj/kaggle/unet34&#45;dice&#45;0&#45;87/activity/&#45;6622771012353686163</title>
<ellipse fill="none" stroke="black" cx="2694.69" cy="-366" rx="135.68" ry="18"/>
<text text-anchor="middle" x="2694.69" y="-362.3" font-family="Times,serif" font-size="14.00">&#45;6622771012353686163 (Analysis)</text>
</g>
<!-- http://purl.org/dj/kaggle/unet34&#45;dice&#45;0&#45;87/activity/&#45;7504248398264691507&#45;&gt;http://purl.org/dj/kaggle/unet34&#45;dice&#45;0&#45;87/activity/&#45;6622771012353686163 -->
<g id="edge3" class="edge">
<title>http://purl.org/dj/kaggle/unet34&#45;dice&#45;0&#45;87/activity/&#45;7504248398264691507&#45;&gt;http://purl.org/dj/kaggle/unet34&#45;dice&#45;0&#45;87/activity/&#45;6622771012353686163</title>
<path fill="none" stroke="black" d="M1430.28,-616.77C1546.76,-606.55 1740.66,-589.71 1907.69,-576 1933.24,-573.9 2117.81,-574.19 2137.69,-558 2162.45,-537.84 2136.6,-512.98 2157.69,-489 2221.7,-416.21 2263.81,-426.16 2357.69,-402 2440.69,-380.64 2464.45,-392.99 2549.69,-384 2562.02,-382.7 2574.93,-381.27 2587.76,-379.82"/>
<polygon fill="black" stroke="black" points="2588.47,-383.26 2598.01,-378.65 2587.67,-376.31 2588.47,-383.26"/>
<text text-anchor="middle" x="2181.19" y="-492.8" font-family="Times,serif" font-size="14.00">previous</text>
</g>
<!-- http://purl.org/dj/kaggle/unet34&#45;dice&#45;0&#45;87/activity/&#45;3508337174149572472 -->
<g id="node5" class="node">
<title>http://purl.org/dj/kaggle/unet34&#45;dice&#45;0&#45;87/activity/&#45;3508337174149572472</title>
<ellipse fill="none" stroke="black" cx="1814.69" cy="-453" rx="126.98" ry="18"/>
<text text-anchor="middle" x="1814.69" y="-449.3" font-family="Times,serif" font-size="14.00">&#45;3508337174149572472 (Reuse)</text>
</g>
<!-- http://purl.org/dj/kaggle/unet34&#45;dice&#45;0&#45;87/activity/530902506426474863&#45;&gt;http://purl.org/dj/kaggle/unet34&#45;dice&#45;0&#45;87/activity/&#45;3508337174149572472 -->
<g id="edge4" class="edge">
<title>http://purl.org/dj/kaggle/unet34&#45;dice&#45;0&#45;87/activity/530902506426474863&#45;&gt;http://purl.org/dj/kaggle/unet34&#45;dice&#45;0&#45;87/activity/&#45;3508337174149572472</title>
<path fill="none" stroke="black" d="M1670.2,-522.61C1698.93,-508.97 1739.99,-489.47 1771,-474.74"/>
<polygon fill="black" stroke="black" points="1772.75,-477.79 1780.28,-470.34 1769.75,-471.47 1772.75,-477.79"/>
<text text-anchor="middle" x="1759.19" y="-492.8" font-family="Times,serif" font-size="14.00">previous</text>
</g>
<!-- http://purl.org/dj/kaggle/unet34&#45;dice&#45;0&#45;87/activity/&#45;435331790003112612 -->
<g id="node6" class="node">
<title>http://purl.org/dj/kaggle/unet34&#45;dice&#45;0&#45;87/activity/&#45;435331790003112612</title>
<ellipse fill="none" stroke="black" cx="1860.69" cy="-279" rx="122.38" ry="18"/>
<text text-anchor="middle" x="1860.69" y="-275.3" font-family="Times,serif" font-size="14.00">&#45;435331790003112612 (Reuse)</text>
</g>
<!-- http://purl.org/dj/kaggle/unet34&#45;dice&#45;0&#45;87/activity/530902506426474863&#45;&gt;http://purl.org/dj/kaggle/unet34&#45;dice&#45;0&#45;87/activity/&#45;435331790003112612 -->
<g id="edge5" class="edge">
<title>http://purl.org/dj/kaggle/unet34&#45;dice&#45;0&#45;87/activity/530902506426474863&#45;&gt;http://purl.org/dj/kaggle/unet34&#45;dice&#45;0&#45;87/activity/&#45;435331790003112612</title>
<path fill="none" stroke="black" d="M1628.6,-521.65C1618.07,-492.77 1602.61,-434.78 1632.69,-402 1664.2,-367.65 1807.2,-415.36 1841.69,-384 1862.53,-365.05 1865.21,-331.43 1864.01,-307.55"/>
<polygon fill="black" stroke="black" points="1867.49,-307.06 1863.24,-297.35 1860.51,-307.59 1867.49,-307.06"/>
<text text-anchor="middle" x="1656.19" y="-405.8" font-family="Times,serif" font-size="14.00">previous</text>
</g>
<!-- http://purl.org/dj/kaggle/unet34&#45;dice&#45;0&#45;87/activity/1345027233427741590&#45;&gt;http://purl.org/dj/kaggle/unet34&#45;dice&#45;0&#45;87/activity/&#45;7504248398264691507 -->
<g id="edge6" class="edge">
<title>http://purl.org/dj/kaggle/unet34&#45;dice&#45;0&#45;87/activity/1345027233427741590&#45;&gt;http://purl.org/dj/kaggle/unet34&#45;dice&#45;0&#45;87/activity/&#45;7504248398264691507</title>
<path fill="none" stroke="black" d="M520.81,-382.83C623.13,-416.34 870,-496.41 1078.69,-558 1139.48,-575.94 1209.12,-594.98 1258.93,-608.33"/>
<polygon fill="black" stroke="black" points="1258.05,-611.72 1268.62,-610.93 1259.86,-604.96 1258.05,-611.72"/>
<text text-anchor="middle" x="922.19" y="-492.8" font-family="Times,serif" font-size="14.00">previous</text>
</g>
<!-- http://purl.org/dj/kaggle/unet34&#45;dice&#45;0&#45;87/activity/1345027233427741590&#45;&gt;http://purl.org/dj/kaggle/unet34&#45;dice&#45;0&#45;87/activity/&#45;3508337174149572472 -->
<g id="edge7" class="edge">
<title>http://purl.org/dj/kaggle/unet34&#45;dice&#45;0&#45;87/activity/1345027233427741590&#45;&gt;http://purl.org/dj/kaggle/unet34&#45;dice&#45;0&#45;87/activity/&#45;3508337174149572472</title>
<path fill="none" stroke="black" d="M563.08,-379.23C580.19,-381.14 597.97,-382.86 614.69,-384 673.95,-388.04 1626.9,-384.6 1683.69,-402 1695.36,-405.58 1695.68,-411.74 1706.69,-417 1719.91,-423.32 1734.56,-428.92 1748.69,-433.68"/>
<polygon fill="black" stroke="black" points="1747.78,-437.07 1758.37,-436.85 1749.96,-430.41 1747.78,-437.07"/>
<text text-anchor="middle" x="1730.19" y="-405.8" font-family="Times,serif" font-size="14.00">previous</text>
</g>
<!-- http://purl.org/dj/kaggle/unet34&#45;dice&#45;0&#45;87/activity/1345027233427741590&#45;&gt;http://purl.org/dj/kaggle/unet34&#45;dice&#45;0&#45;87/activity/&#45;435331790003112612 -->
<g id="edge8" class="edge">
<title>http://purl.org/dj/kaggle/unet34&#45;dice&#45;0&#45;87/activity/1345027233427741590&#45;&gt;http://purl.org/dj/kaggle/unet34&#45;dice&#45;0&#45;87/activity/&#45;435331790003112612</title>
<path fill="none" stroke="black" d="M566.18,-353.11C582.34,-351.25 598.99,-349.47 614.69,-348 1021.5,-309.95 1505.18,-291.06 1731.66,-283.75"/>
<polygon fill="black" stroke="black" points="1732.04,-287.24 1741.92,-283.42 1731.81,-280.24 1732.04,-287.24"/>
<text text-anchor="middle" x="1048.19" y="-318.8" font-family="Times,serif" font-size="14.00">previous</text>
</g>
<!-- http://purl.org/dj/kaggle/unet34&#45;dice&#45;0&#45;87/activity/&#45;6622771012353686163&#45;&gt;http://purl.org/dj/kaggle/unet34&#45;dice&#45;0&#45;87/activity/&#45;435331790003112612 -->
<g id="edge9" class="edge">
<title>http://purl.org/dj/kaggle/unet34&#45;dice&#45;0&#45;87/activity/&#45;6622771012353686163&#45;&gt;http://purl.org/dj/kaggle/unet34&#45;dice&#45;0&#45;87/activity/&#45;435331790003112612</title>
<path fill="none" stroke="black" d="M2615.52,-351.31C2548.2,-340.09 2448.85,-324.57 2361.69,-315 2290.77,-307.21 2105.79,-295.08 1981.56,-287.34"/>
<polygon fill="black" stroke="black" points="1981.42,-283.82 1971.23,-286.7 1980.99,-290.81 1981.42,-283.82"/>
<text text-anchor="middle" x="2495.19" y="-318.8" font-family="Times,serif" font-size="14.00">previous</text>
</g>
<!-- http://purl.org/dj/kaggle/unet34&#45;dice&#45;0&#45;87 -->
<g id="node7" class="node">
<title>http://purl.org/dj/kaggle/unet34&#45;dice&#45;0&#45;87</title>
<ellipse fill="none" stroke="black" cx="2694.69" cy="-192" rx="162.47" ry="18"/>
<text text-anchor="middle" x="2694.69" y="-188.3" font-family="Times,serif" font-size="14.00">unet34&#45;dice&#45;0&#45;87 (unet34&#45;dice&#45;0&#45;87.ipynb)</text>
</g>
<!-- http://purl.org/dj/kaggle/unet34&#45;dice&#45;0&#45;87/activity/&#45;6622771012353686163&#45;&gt;http://purl.org/dj/kaggle/unet34&#45;dice&#45;0&#45;87 -->
<g id="edge10" class="edge">
<title>http://purl.org/dj/kaggle/unet34&#45;dice&#45;0&#45;87/activity/&#45;6622771012353686163&#45;&gt;http://purl.org/dj/kaggle/unet34&#45;dice&#45;0&#45;87</title>
<path fill="none" stroke="black" d="M2694.69,-347.88C2694.69,-318 2694.69,-256.11 2694.69,-220.27"/>
<polygon fill="black" stroke="black" points="2698.19,-220.05 2694.69,-210.05 2691.19,-220.05 2698.19,-220.05"/>
<text text-anchor="middle" x="2718.19" y="-275.3" font-family="Times,serif" font-size="14.00">previous</text>
</g>
<!-- http://purl.org/dj/kaggle/unet34&#45;dice&#45;0&#45;87/activity/&#45;3508337174149572472&#45;&gt;http://purl.org/dj/kaggle/unet34&#45;dice&#45;0&#45;87/activity/1345027233427741590 -->
<g id="edge11" class="edge">
<title>http://purl.org/dj/kaggle/unet34&#45;dice&#45;0&#45;87/activity/&#45;3508337174149572472&#45;&gt;http://purl.org/dj/kaggle/unet34&#45;dice&#45;0&#45;87/activity/1345027233427741590</title>
<path fill="none" stroke="black" d="M1800.03,-435.06C1788.72,-423.34 1771.94,-408.69 1753.69,-402 1694.26,-380.23 677.83,-388.27 614.69,-384 601.23,-383.09 587.09,-381.8 573.17,-380.34"/>
<polygon fill="black" stroke="black" points="573.4,-376.84 563.08,-379.24 572.64,-383.8 573.4,-376.84"/>
<text text-anchor="middle" x="1803.19" y="-405.8" font-family="Times,serif" font-size="14.00">previous</text>
</g>
<!-- http://purl.org/dj/kaggle/unet34&#45;dice&#45;0&#45;87/activity/&#45;3508337174149572472&#45;&gt;http://purl.org/dj/kaggle/unet34&#45;dice&#45;0&#45;87/activity/&#45;6622771012353686163 -->
<g id="edge12" class="edge">
<title>http://purl.org/dj/kaggle/unet34&#45;dice&#45;0&#45;87/activity/&#45;3508337174149572472&#45;&gt;http://purl.org/dj/kaggle/unet34&#45;dice&#45;0&#45;87/activity/&#45;6622771012353686163</title>
<path fill="none" stroke="black" d="M1854.67,-435.78C1867.35,-430.24 1881.3,-423.73 1893.69,-417 1904.41,-411.18 1905.04,-405.64 1916.69,-402 1983.84,-380.99 2479.51,-389.1 2549.69,-384 2563.21,-383.02 2577.42,-381.7 2591.44,-380.24"/>
<polygon fill="black" stroke="black" points="2592.02,-383.69 2601.59,-379.15 2591.27,-376.73 2592.02,-383.69"/>
<text text-anchor="middle" x="1940.19" y="-405.8" font-family="Times,serif" font-size="14.00">previous</text>
</g>
<!-- http://purl.org/dj/kaggle/unet34&#45;dice&#45;0&#45;87/activity/&#45;3351007991809368200 -->
<g id="node8" class="node">
<title>http://purl.org/dj/kaggle/unet34&#45;dice&#45;0&#45;87/activity/&#45;3351007991809368200</title>
<ellipse fill="none" stroke="black" cx="2062.69" cy="-366" rx="135.68" ry="18"/>
<text text-anchor="middle" x="2062.69" y="-362.3" font-family="Times,serif" font-size="14.00">&#45;3351007991809368200 (Analysis)</text>
</g>
<!-- http://purl.org/dj/kaggle/unet34&#45;dice&#45;0&#45;87/activity/&#45;3508337174149572472&#45;&gt;http://purl.org/dj/kaggle/unet34&#45;dice&#45;0&#45;87/activity/&#45;3351007991809368200 -->
<g id="edge13" class="edge">
<title>http://purl.org/dj/kaggle/unet34&#45;dice&#45;0&#45;87/activity/&#45;3508337174149572472&#45;&gt;http://purl.org/dj/kaggle/unet34&#45;dice&#45;0&#45;87/activity/&#45;3351007991809368200</title>
<path fill="none" stroke="black" d="M1821.24,-434.9C1826.43,-423.73 1834.8,-409.81 1846.69,-402 1863.23,-391.14 1902.06,-383.32 1942.32,-377.87"/>
<polygon fill="black" stroke="black" points="1942.83,-381.33 1952.29,-376.57 1941.93,-374.39 1942.83,-381.33"/>
<text text-anchor="middle" x="1870.19" y="-405.8" font-family="Times,serif" font-size="14.00">previous</text>
</g>
<!-- http://purl.org/dj/kaggle/unet34&#45;dice&#45;0&#45;87/activity/&#45;435331790003112612&#45;&gt;http://purl.org/dj/kaggle/unet34&#45;dice&#45;0&#45;87/activity/1345027233427741590 -->
<g id="edge14" class="edge">
<title>http://purl.org/dj/kaggle/unet34&#45;dice&#45;0&#45;87/activity/&#45;435331790003112612&#45;&gt;http://purl.org/dj/kaggle/unet34&#45;dice&#45;0&#45;87/activity/1345027233427741590</title>
<path fill="none" stroke="black" d="M1738.38,-279.35C1540.77,-279.35 1139.19,-283.72 800.69,-315 717.49,-322.69 623.27,-337.72 557.23,-349.3"/>
<polygon fill="black" stroke="black" points="556.52,-345.87 547.28,-351.05 557.74,-352.76 556.52,-345.87"/>
<text text-anchor="middle" x="824.19" y="-318.8" font-family="Times,serif" font-size="14.00">previous</text>
</g>
<!-- http://purl.org/dj/kaggle/unet34&#45;dice&#45;0&#45;87/activity/&#45;435331790003112612&#45;&gt;http://purl.org/dj/kaggle/unet34&#45;dice&#45;0&#45;87 -->
<g id="edge15" class="edge">
<title>http://purl.org/dj/kaggle/unet34&#45;dice&#45;0&#45;87/activity/&#45;435331790003112612&#45;&gt;http://purl.org/dj/kaggle/unet34&#45;dice&#45;0&#45;87</title>
<path fill="none" stroke="black" d="M1957.99,-268.08C2109.69,-252.62 2402.45,-222.78 2569.61,-205.75"/>
<polygon fill="black" stroke="black" points="2570.1,-209.22 2579.7,-204.72 2569.39,-202.25 2570.1,-209.22"/>
<text text-anchor="middle" x="2350.19" y="-231.8" font-family="Times,serif" font-size="14.00">previous</text>
</g>
<!-- http://purl.org/dj/kaggle/unet34&#45;dice&#45;0&#45;87/activity/&#45;7803573044988713867 -->
<g id="node9" class="node">
<title>http://purl.org/dj/kaggle/unet34&#45;dice&#45;0&#45;87/activity/&#45;7803573044988713867</title>
<ellipse fill="none" stroke="black" cx="1930.69" cy="-192" rx="135.68" ry="18"/>
<text text-anchor="middle" x="1930.69" y="-188.3" font-family="Times,serif" font-size="14.00">&#45;7803573044988713867 (Analysis)</text>
</g>
<!-- http://purl.org/dj/kaggle/unet34&#45;dice&#45;0&#45;87/activity/&#45;435331790003112612&#45;&gt;http://purl.org/dj/kaggle/unet34&#45;dice&#45;0&#45;87/activity/&#45;7803573044988713867 -->
<g id="edge16" class="edge">
<title>http://purl.org/dj/kaggle/unet34&#45;dice&#45;0&#45;87/activity/&#45;435331790003112612&#45;&gt;http://purl.org/dj/kaggle/unet34&#45;dice&#45;0&#45;87/activity/&#45;7803573044988713867</title>
<path fill="none" stroke="black" d="M1856.87,-261C1855.52,-250.7 1855.59,-237.71 1861.69,-228 1864.89,-222.9 1869.09,-218.51 1873.83,-214.74"/>
<polygon fill="black" stroke="black" points="1875.99,-217.51 1882.26,-208.97 1872.03,-211.73 1875.99,-217.51"/>
<text text-anchor="middle" x="1885.19" y="-231.8" font-family="Times,serif" font-size="14.00">previous</text>
</g>
<!-- http://purl.org/dj/kaggle/unet34&#45;dice&#45;0&#45;87/activity/&#45;3351007991809368200&#45;&gt;http://purl.org/dj/kaggle/unet34&#45;dice&#45;0&#45;87/activity/&#45;435331790003112612 -->
<g id="edge17" class="edge">
<title>http://purl.org/dj/kaggle/unet34&#45;dice&#45;0&#45;87/activity/&#45;3351007991809368200&#45;&gt;http://purl.org/dj/kaggle/unet34&#45;dice&#45;0&#45;87/activity/&#45;435331790003112612</title>
<path fill="none" stroke="black" d="M2023.74,-348.61C1990.94,-334.81 1943.88,-315.01 1908.75,-300.22"/>
<polygon fill="black" stroke="black" points="1909.75,-296.85 1899.17,-296.19 1907.03,-303.3 1909.75,-296.85"/>
<text text-anchor="middle" x="1997.19" y="-318.8" font-family="Times,serif" font-size="14.00">previous</text>
</g>
<!-- http://purl.org/dj/kaggle/unet34&#45;dice&#45;0&#45;87/activity/&#45;1843857828059853516 -->
<g id="node10" class="node">
<title>http://purl.org/dj/kaggle/unet34&#45;dice&#45;0&#45;87/activity/&#45;1843857828059853516</title>
<ellipse fill="none" stroke="black" cx="2278.69" cy="-279" rx="126.98" ry="18"/>
<text text-anchor="middle" x="2278.69" y="-275.3" font-family="Times,serif" font-size="14.00">&#45;1843857828059853516 (Reuse)</text>
</g>
<!-- http://purl.org/dj/kaggle/unet34&#45;dice&#45;0&#45;87/activity/&#45;3351007991809368200&#45;&gt;http://purl.org/dj/kaggle/unet34&#45;dice&#45;0&#45;87/activity/&#45;1843857828059853516 -->
<g id="edge18" class="edge">
<title>http://purl.org/dj/kaggle/unet34&#45;dice&#45;0&#45;87/activity/&#45;3351007991809368200&#45;&gt;http://purl.org/dj/kaggle/unet34&#45;dice&#45;0&#45;87/activity/&#45;1843857828059853516</title>
<path fill="none" stroke="black" d="M2174.29,-355.72C2234.53,-349.55 2298.47,-340.63 2307.69,-330 2314.26,-322.42 2311.27,-313.13 2305.19,-304.62"/>
<polygon fill="black" stroke="black" points="2307.72,-302.2 2298.62,-296.79 2302.36,-306.7 2307.72,-302.2"/>
<text text-anchor="middle" x="2334.19" y="-318.8" font-family="Times,serif" font-size="14.00">previous</text>
</g>
<!-- http://purl.org/dj/kaggle/unet34&#45;dice&#45;0&#45;87/activity/&#45;7803573044988713867&#45;&gt;http://purl.org/dj/kaggle/unet34&#45;dice&#45;0&#45;87/activity/&#45;435331790003112612 -->
<g id="edge20" class="edge">
<title>http://purl.org/dj/kaggle/unet34&#45;dice&#45;0&#45;87/activity/&#45;7803573044988713867&#45;&gt;http://purl.org/dj/kaggle/unet34&#45;dice&#45;0&#45;87/activity/&#45;435331790003112612</title>
<path fill="none" stroke="black" d="M1925.56,-210.43C1921.97,-220.65 1916.42,-233.4 1908.69,-243 1905.21,-247.32 1901.08,-251.37 1896.72,-255.07"/>
<polygon fill="black" stroke="black" points="1894.43,-252.41 1888.72,-261.34 1898.75,-257.92 1894.43,-252.41"/>
<text text-anchor="middle" x="1940.19" y="-231.8" font-family="Times,serif" font-size="14.00">previous</text>
</g>
<!-- http://purl.org/dj/kaggle/unet34&#45;dice&#45;0&#45;87/activity/3271494892699350147 -->
<g id="node12" class="node">
<title>http://purl.org/dj/kaggle/unet34&#45;dice&#45;0&#45;87/activity/3271494892699350147</title>
<ellipse fill="none" stroke="black" cx="1930.69" cy="-105" rx="124.28" ry="18"/>
<text text-anchor="middle" x="1930.69" y="-101.3" font-family="Times,serif" font-size="14.00">3271494892699350147 (Reuse)</text>
</g>
<!-- http://purl.org/dj/kaggle/unet34&#45;dice&#45;0&#45;87/activity/&#45;7803573044988713867&#45;&gt;http://purl.org/dj/kaggle/unet34&#45;dice&#45;0&#45;87/activity/3271494892699350147 -->
<g id="edge21" class="edge">
<title>http://purl.org/dj/kaggle/unet34&#45;dice&#45;0&#45;87/activity/&#45;7803573044988713867&#45;&gt;http://purl.org/dj/kaggle/unet34&#45;dice&#45;0&#45;87/activity/3271494892699350147</title>
<path fill="none" stroke="black" d="M1930.69,-173.8C1930.69,-162.16 1930.69,-146.55 1930.69,-133.24"/>
<polygon fill="black" stroke="black" points="1934.19,-133.18 1930.69,-123.18 1927.19,-133.18 1934.19,-133.18"/>
<text text-anchor="middle" x="1954.19" y="-144.8" font-family="Times,serif" font-size="14.00">previous</text>
</g>
<!-- http://purl.org/dj/kaggle/unet34&#45;dice&#45;0&#45;87/activity/&#45;1843857828059853516&#45;&gt;http://purl.org/dj/kaggle/unet34&#45;dice&#45;0&#45;87/activity/&#45;7803573044988713867 -->
<g id="edge35" class="edge">
<title>http://purl.org/dj/kaggle/unet34&#45;dice&#45;0&#45;87/activity/&#45;1843857828059853516&#45;&gt;http://purl.org/dj/kaggle/unet34&#45;dice&#45;0&#45;87/activity/&#45;7803573044988713867</title>
<path fill="none" stroke="black" d="M2217.67,-263.1C2157.63,-248.43 2065.96,-226.04 2002.45,-210.53"/>
<polygon fill="black" stroke="black" points="2003.06,-207.07 1992.51,-208.1 2001.4,-213.87 2003.06,-207.07"/>
<text text-anchor="middle" x="2148.19" y="-231.8" font-family="Times,serif" font-size="14.00">previous</text>
</g>
<!-- http://purl.org/dj/kaggle/unet34&#45;dice&#45;0&#45;87/activity/&#45;6447104795912408617 -->
<g id="node11" class="node">
<title>http://purl.org/dj/kaggle/unet34&#45;dice&#45;0&#45;87/activity/&#45;6447104795912408617</title>
<ellipse fill="none" stroke="black" cx="2090.69" cy="-18" rx="151.37" ry="18"/>
<text text-anchor="middle" x="2090.69" y="-14.3" font-family="Times,serif" font-size="14.00">&#45;6447104795912408617 (Visualisation)</text>
</g>
<!-- http://purl.org/dj/kaggle/unet34&#45;dice&#45;0&#45;87/activity/&#45;6447104795912408617&#45;&gt;http://purl.org/dj/kaggle/unet34&#45;dice&#45;0&#45;87/activity/&#45;435331790003112612 -->
<g id="edge19" class="edge">
<title>http://purl.org/dj/kaggle/unet34&#45;dice&#45;0&#45;87/activity/&#45;6447104795912408617&#45;&gt;http://purl.org/dj/kaggle/unet34&#45;dice&#45;0&#45;87/activity/&#45;435331790003112612</title>
<path fill="none" stroke="black" d="M2095.04,-36.03C2103.23,-72.38 2116.66,-158.44 2075.69,-210 2051.21,-240.81 2012.8,-257.91 1975.19,-267.31"/>
<polygon fill="black" stroke="black" points="1974.08,-263.98 1965.13,-269.65 1975.66,-270.8 1974.08,-263.98"/>
<text text-anchor="middle" x="2125.19" y="-144.8" font-family="Times,serif" font-size="14.00">previous</text>
</g>
<!-- http://purl.org/dj/kaggle/unet34&#45;dice&#45;0&#45;87/activity/3271494892699350147&#45;&gt;http://purl.org/dj/kaggle/unet34&#45;dice&#45;0&#45;87/activity/&#45;6447104795912408617 -->
<g id="edge37" class="edge">
<title>http://purl.org/dj/kaggle/unet34&#45;dice&#45;0&#45;87/activity/3271494892699350147&#45;&gt;http://purl.org/dj/kaggle/unet34&#45;dice&#45;0&#45;87/activity/&#45;6447104795912408617</title>
<path fill="none" stroke="black" d="M1961.92,-87.41C1987.16,-74 2022.89,-55.02 2050.31,-40.45"/>
<polygon fill="black" stroke="black" points="2052.07,-43.48 2059.26,-35.69 2048.79,-37.29 2052.07,-43.48"/>
<text text-anchor="middle" x="2043.19" y="-57.8" font-family="Times,serif" font-size="14.00">previous</text>
</g>
<!-- http://purl.org/dj/kaggle/unet34&#45;dice&#45;0&#45;87/activity/687734453497243006 -->
<g id="node19" class="node">
<title>http://purl.org/dj/kaggle/unet34&#45;dice&#45;0&#45;87/activity/687734453497243006</title>
<ellipse fill="none" stroke="black" cx="1773.69" cy="-18" rx="144.07" ry="18"/>
<text text-anchor="middle" x="1773.69" y="-14.3" font-family="Times,serif" font-size="14.00">687734453497243006 (Visualisation)</text>
</g>
<!-- http://purl.org/dj/kaggle/unet34&#45;dice&#45;0&#45;87/activity/3271494892699350147&#45;&gt;http://purl.org/dj/kaggle/unet34&#45;dice&#45;0&#45;87/activity/687734453497243006 -->
<g id="edge38" class="edge">
<title>http://purl.org/dj/kaggle/unet34&#45;dice&#45;0&#45;87/activity/3271494892699350147&#45;&gt;http://purl.org/dj/kaggle/unet34&#45;dice&#45;0&#45;87/activity/687734453497243006</title>
<path fill="none" stroke="black" d="M1900.04,-87.41C1875.38,-74.05 1840.52,-55.18 1813.66,-40.64"/>
<polygon fill="black" stroke="black" points="1814.98,-37.38 1804.52,-35.69 1811.65,-43.53 1814.98,-37.38"/>
<text text-anchor="middle" x="1884.19" y="-57.8" font-family="Times,serif" font-size="14.00">previous</text>
</g>
<!-- http://purl.org/dj/kaggle/unet34&#45;dice&#45;0&#45;87/activity/2398718703237716027 -->
<g id="node13" class="node">
<title>http://purl.org/dj/kaggle/unet34&#45;dice&#45;0&#45;87/activity/2398718703237716027</title>
<ellipse fill="none" stroke="black" cx="1007.69" cy="-801" rx="124.28" ry="18"/>
<text text-anchor="middle" x="1007.69" y="-797.3" font-family="Times,serif" font-size="14.00">2398718703237716027 (Reuse)</text>
</g>
<!-- http://purl.org/dj/kaggle/unet34&#45;dice&#45;0&#45;87/activity/2398718703237716027&#45;&gt;http://purl.org/dj/kaggle/unet34&#45;dice&#45;0&#45;87/activity/1345027233427741590 -->
<g id="edge22" class="edge">
<title>http://purl.org/dj/kaggle/unet34&#45;dice&#45;0&#45;87/activity/2398718703237716027&#45;&gt;http://purl.org/dj/kaggle/unet34&#45;dice&#45;0&#45;87/activity/1345027233427741590</title>
<path fill="none" stroke="black" d="M886.95,-796.74C693.77,-789.89 336.69,-769.82 336.69,-715 336.69,-715 336.69,-715 336.69,-452 336.69,-418.68 366.41,-397.93 398.07,-385.29"/>
<polygon fill="black" stroke="black" points="399.33,-388.55 407.48,-381.78 396.88,-382 399.33,-388.55"/>
<text text-anchor="middle" x="360.19" y="-579.8" font-family="Times,serif" font-size="14.00">previous</text>
</g>
<!-- http://purl.org/dj/kaggle/unet34&#45;dice&#45;0&#45;87/activity/2398718703237716027&#45;&gt;http://purl.org/dj/kaggle/unet34&#45;dice&#45;0&#45;87/activity/&#45;6622771012353686163 -->
<g id="edge23" class="edge">
<title>http://purl.org/dj/kaggle/unet34&#45;dice&#45;0&#45;87/activity/2398718703237716027&#45;&gt;http://purl.org/dj/kaggle/unet34&#45;dice&#45;0&#45;87/activity/&#45;6622771012353686163</title>
<path fill="none" stroke="black" d="M1131.88,-799.88C1508.43,-798.72 2611.69,-789.01 2611.69,-715 2611.69,-715 2611.69,-715 2611.69,-452 2611.69,-425.35 2632.83,-403.95 2653.77,-389.29"/>
<polygon fill="black" stroke="black" points="2655.94,-392.05 2662.36,-383.62 2652.09,-386.21 2655.94,-392.05"/>
<text text-anchor="middle" x="2635.19" y="-579.8" font-family="Times,serif" font-size="14.00">previous</text>
</g>
<!-- http://purl.org/dj/kaggle/unet34&#45;dice&#45;0&#45;87/activity/&#45;2580731140777423672 -->
<g id="node14" class="node">
<title>http://purl.org/dj/kaggle/unet34&#45;dice&#45;0&#45;87/activity/&#45;2580731140777423672</title>
<ellipse fill="none" stroke="black" cx="1007.69" cy="-714" rx="135.68" ry="18"/>
<text text-anchor="middle" x="1007.69" y="-710.3" font-family="Times,serif" font-size="14.00">&#45;2580731140777423672 (Analysis)</text>
</g>
<!-- http://purl.org/dj/kaggle/unet34&#45;dice&#45;0&#45;87/activity/2398718703237716027&#45;&gt;http://purl.org/dj/kaggle/unet34&#45;dice&#45;0&#45;87/activity/&#45;2580731140777423672 -->
<g id="edge24" class="edge">
<title>http://purl.org/dj/kaggle/unet34&#45;dice&#45;0&#45;87/activity/2398718703237716027&#45;&gt;http://purl.org/dj/kaggle/unet34&#45;dice&#45;0&#45;87/activity/&#45;2580731140777423672</title>
<path fill="none" stroke="black" d="M1007.69,-782.8C1007.69,-771.16 1007.69,-755.55 1007.69,-742.24"/>
<polygon fill="black" stroke="black" points="1011.19,-742.18 1007.69,-732.18 1004.19,-742.18 1011.19,-742.18"/>
<text text-anchor="middle" x="1031.19" y="-753.8" font-family="Times,serif" font-size="14.00">previous</text>
</g>
<!-- http://purl.org/dj/kaggle/unet34&#45;dice&#45;0&#45;87/activity/&#45;2580731140777423672&#45;&gt;http://purl.org/dj/kaggle/unet34&#45;dice&#45;0&#45;87/activity/&#45;7504248398264691507 -->
<g id="edge25" class="edge">
<title>http://purl.org/dj/kaggle/unet34&#45;dice&#45;0&#45;87/activity/&#45;2580731140777423672&#45;&gt;http://purl.org/dj/kaggle/unet34&#45;dice&#45;0&#45;87/activity/&#45;7504248398264691507</title>
<path fill="none" stroke="black" d="M1065.27,-697.61C1119.92,-683 1202.01,-661.06 1259.37,-645.73"/>
<polygon fill="black" stroke="black" points="1260.31,-649.1 1269.06,-643.14 1258.5,-642.34 1260.31,-649.1"/>
<text text-anchor="middle" x="1209.19" y="-666.8" font-family="Times,serif" font-size="14.00">previous</text>
</g>
<!-- http://purl.org/dj/kaggle/unet34&#45;dice&#45;0&#45;87/activity/&#45;2580731140777423672&#45;&gt;http://purl.org/dj/kaggle/unet34&#45;dice&#45;0&#45;87/activity/&#45;435331790003112612 -->
<g id="edge26" class="edge">
<title>http://purl.org/dj/kaggle/unet34&#45;dice&#45;0&#45;87/activity/&#45;2580731140777423672&#45;&gt;http://purl.org/dj/kaggle/unet34&#45;dice&#45;0&#45;87/activity/&#45;435331790003112612</title>
<path fill="none" stroke="black" d="M920.33,-700.15C698.77,-664.24 145.26,-551.85 330.69,-348 377.4,-296.65 1366.27,-283.83 1728.89,-280.84"/>
<polygon fill="black" stroke="black" points="1728.94,-284.34 1738.91,-280.76 1728.88,-277.34 1728.94,-284.34"/>
<text text-anchor="middle" x="353.19" y="-492.8" font-family="Times,serif" font-size="14.00">previous</text>
</g>
<!-- http://purl.org/dj/kaggle/unet34&#45;dice&#45;0&#45;87/activity/2118779544701806626 -->
<g id="node15" class="node">
<title>http://purl.org/dj/kaggle/unet34&#45;dice&#45;0&#45;87/activity/2118779544701806626</title>
<ellipse fill="none" stroke="black" cx="1985.69" cy="-540" rx="142.97" ry="18"/>
<text text-anchor="middle" x="1985.69" y="-536.3" font-family="Times,serif" font-size="14.00">2118779544701806626 (Preparation)</text>
</g>
<!-- http://purl.org/dj/kaggle/unet34&#45;dice&#45;0&#45;87/activity/2118779544701806626&#45;&gt;http://purl.org/dj/kaggle/unet34&#45;dice&#45;0&#45;87/activity/&#45;3508337174149572472 -->
<g id="edge27" class="edge">
<title>http://purl.org/dj/kaggle/unet34&#45;dice&#45;0&#45;87/activity/2118779544701806626&#45;&gt;http://purl.org/dj/kaggle/unet34&#45;dice&#45;0&#45;87/activity/&#45;3508337174149572472</title>
<path fill="none" stroke="black" d="M1952.31,-522.41C1925.04,-508.85 1886.31,-489.6 1856.89,-474.98"/>
<polygon fill="black" stroke="black" points="1858.2,-471.72 1847.69,-470.4 1855.09,-477.99 1858.2,-471.72"/>
<text text-anchor="middle" x="1933.19" y="-492.8" font-family="Times,serif" font-size="14.00">previous</text>
</g>
<!-- http://purl.org/dj/kaggle/unet34&#45;dice&#45;0&#45;87/activity/2118779544701806626&#45;&gt;http://purl.org/dj/kaggle/unet34&#45;dice&#45;0&#45;87/activity/&#45;435331790003112612 -->
<g id="edge28" class="edge">
<title>http://purl.org/dj/kaggle/unet34&#45;dice&#45;0&#45;87/activity/2118779544701806626&#45;&gt;http://purl.org/dj/kaggle/unet34&#45;dice&#45;0&#45;87/activity/&#45;435331790003112612</title>
<path fill="none" stroke="black" d="M1987.96,-521.7C1990.68,-493.4 1991.81,-436.88 1963.69,-402 1949.91,-384.91 1934.18,-398.5 1917.69,-384 1905.02,-372.86 1885.21,-333.37 1872.6,-306.38"/>
<polygon fill="black" stroke="black" points="1875.67,-304.69 1868.3,-297.08 1869.32,-307.63 1875.67,-304.69"/>
<text text-anchor="middle" x="1996.19" y="-405.8" font-family="Times,serif" font-size="14.00">previous</text>
</g>
<!-- http://purl.org/dj/kaggle/unet34&#45;dice&#45;0&#45;87/activity/&#45;2975106642924471758 -->
<g id="node16" class="node">
<title>http://purl.org/dj/kaggle/unet34&#45;dice&#45;0&#45;87/activity/&#45;2975106642924471758</title>
<ellipse fill="none" stroke="black" cx="2113.69" cy="-714" rx="145.67" ry="18"/>
<text text-anchor="middle" x="2113.69" y="-710.3" font-family="Times,serif" font-size="14.00">&#45;2975106642924471758 (Preparation)</text>
</g>
<!-- http://purl.org/dj/kaggle/unet34&#45;dice&#45;0&#45;87/activity/&#45;2975106642924471758&#45;&gt;http://purl.org/dj/kaggle/unet34&#45;dice&#45;0&#45;87/activity/&#45;7504248398264691507 -->
<g id="edge29" class="edge">
<title>http://purl.org/dj/kaggle/unet34&#45;dice&#45;0&#45;87/activity/&#45;2975106642924471758&#45;&gt;http://purl.org/dj/kaggle/unet34&#45;dice&#45;0&#45;87/activity/&#45;7504248398264691507</title>
<path fill="none" stroke="black" d="M2007.82,-701.58C1857.75,-685.39 1584.64,-655.93 1433.51,-639.63"/>
<polygon fill="black" stroke="black" points="1433.6,-636.12 1423.28,-638.53 1432.85,-643.08 1433.6,-636.12"/>
<text text-anchor="middle" x="1790.19" y="-666.8" font-family="Times,serif" font-size="14.00">previous</text>
</g>
<!-- http://purl.org/dj/kaggle/unet34&#45;dice&#45;0&#45;87/activity/&#45;2975106642924471758&#45;&gt;http://purl.org/dj/kaggle/unet34&#45;dice&#45;0&#45;87/activity/&#45;6622771012353686163 -->
<g id="edge30" class="edge">
<title>http://purl.org/dj/kaggle/unet34&#45;dice&#45;0&#45;87/activity/&#45;2975106642924471758&#45;&gt;http://purl.org/dj/kaggle/unet34&#45;dice&#45;0&#45;87/activity/&#45;6622771012353686163</title>
<path fill="none" stroke="black" d="M2206.47,-700.12C2280.43,-687.16 2371.69,-663.9 2371.69,-628 2371.69,-628 2371.69,-628 2371.69,-452 2371.69,-427.95 2507.3,-399.38 2602.78,-382.24"/>
<polygon fill="black" stroke="black" points="2603.53,-385.67 2612.76,-380.47 2602.3,-378.78 2603.53,-385.67"/>
<text text-anchor="middle" x="2395.19" y="-536.3" font-family="Times,serif" font-size="14.00">previous</text>
</g>
<!-- http://purl.org/dj/kaggle/unet34&#45;dice&#45;0&#45;87/activity/&#45;2975106642924471758&#45;&gt;http://purl.org/dj/kaggle/unet34&#45;dice&#45;0&#45;87/activity/&#45;3508337174149572472 -->
<g id="edge31" class="edge">
<title>http://purl.org/dj/kaggle/unet34&#45;dice&#45;0&#45;87/activity/&#45;2975106642924471758&#45;&gt;http://purl.org/dj/kaggle/unet34&#45;dice&#45;0&#45;87/activity/&#45;3508337174149572472</title>
<path fill="none" stroke="black" d="M2056.19,-697.43C1991.41,-676.74 1888.07,-633.7 1833.69,-558 1817.67,-535.71 1813.89,-503.98 1813.5,-481.44"/>
<polygon fill="black" stroke="black" points="1817,-481.21 1813.55,-471.19 1810,-481.18 1817,-481.21"/>
<text text-anchor="middle" x="1885.19" y="-579.8" font-family="Times,serif" font-size="14.00">previous</text>
</g>
<!-- http://purl.org/dj/kaggle/unet34&#45;dice&#45;0&#45;87/activity/&#45;2975106642924471758&#45;&gt;http://purl.org/dj/kaggle/unet34&#45;dice&#45;0&#45;87/activity/&#45;435331790003112612 -->
<g id="edge32" class="edge">
<title>http://purl.org/dj/kaggle/unet34&#45;dice&#45;0&#45;87/activity/&#45;2975106642924471758&#45;&gt;http://purl.org/dj/kaggle/unet34&#45;dice&#45;0&#45;87/activity/&#45;435331790003112612</title>
<path fill="none" stroke="black" d="M2163.58,-697.06C2193.85,-683.93 2226.69,-661.88 2226.69,-628 2226.69,-628 2226.69,-628 2226.69,-365 2226.69,-314.41 2092.3,-293.92 1986.4,-285.63"/>
<polygon fill="black" stroke="black" points="1986.48,-282.12 1976.24,-284.86 1985.95,-289.1 1986.48,-282.12"/>
<text text-anchor="middle" x="2250.19" y="-492.8" font-family="Times,serif" font-size="14.00">previous</text>
</g>
<!-- http://purl.org/dj/kaggle/unet34&#45;dice&#45;0&#45;87/activity/&#45;1462352341587582776 -->
<g id="node17" class="node">
<title>http://purl.org/dj/kaggle/unet34&#45;dice&#45;0&#45;87/activity/&#45;1462352341587582776</title>
<ellipse fill="none" stroke="black" cx="2993.69" cy="-366" rx="145.67" ry="18"/>
<text text-anchor="middle" x="2993.69" y="-362.3" font-family="Times,serif" font-size="14.00">&#45;1462352341587582776 (Preparation)</text>
</g>
<!-- http://purl.org/dj/kaggle/unet34&#45;dice&#45;0&#45;87/activity/&#45;1462352341587582776&#45;&gt;http://purl.org/dj/kaggle/unet34&#45;dice&#45;0&#45;87/activity/&#45;435331790003112612 -->
<g id="edge33" class="edge">
<title>http://purl.org/dj/kaggle/unet34&#45;dice&#45;0&#45;87/activity/&#45;1462352341587582776&#45;&gt;http://purl.org/dj/kaggle/unet34&#45;dice&#45;0&#45;87/activity/&#45;435331790003112612</title>
<path fill="none" stroke="black" d="M2889.32,-353.39C2872.72,-351.57 2855.73,-349.72 2839.69,-348 2698.84,-332.9 2663.93,-325.69 2522.69,-315 2354.09,-302.24 2311.52,-306.09 2142.69,-297 2089.54,-294.14 2030.77,-290.65 1980.7,-287.58"/>
<polygon fill="black" stroke="black" points="1980.68,-284.07 1970.48,-286.95 1980.25,-291.06 1980.68,-284.07"/>
<text text-anchor="middle" x="2704.19" y="-318.8" font-family="Times,serif" font-size="14.00">previous</text>
</g>
<!-- http://purl.org/dj/kaggle/unet34&#45;dice&#45;0&#45;87/activity/&#45;1462352341587582776&#45;&gt;http://purl.org/dj/kaggle/unet34&#45;dice&#45;0&#45;87 -->
<g id="edge34" class="edge">
<title>http://purl.org/dj/kaggle/unet34&#45;dice&#45;0&#45;87/activity/&#45;1462352341587582776&#45;&gt;http://purl.org/dj/kaggle/unet34&#45;dice&#45;0&#45;87</title>
<path fill="none" stroke="black" d="M2964.75,-348.35C2910.52,-317.16 2793.63,-249.92 2732.97,-215.02"/>
<polygon fill="black" stroke="black" points="2734.5,-211.86 2724.09,-209.91 2731.01,-217.93 2734.5,-211.86"/>
<text text-anchor="middle" x="2897.19" y="-275.3" font-family="Times,serif" font-size="14.00">previous</text>
</g>
<!-- http://purl.org/dj/kaggle/unet34&#45;dice&#45;0&#45;87/activity/8595534014425264465 -->
<g id="node18" class="node">
<title>http://purl.org/dj/kaggle/unet34&#45;dice&#45;0&#45;87/activity/8595534014425264465</title>
<ellipse fill="none" stroke="black" cx="2397.69" cy="-366" rx="142.97" ry="18"/>
<text text-anchor="middle" x="2397.69" y="-362.3" font-family="Times,serif" font-size="14.00">8595534014425264465 (Preparation)</text>
</g>
<!-- http://purl.org/dj/kaggle/unet34&#45;dice&#45;0&#45;87/activity/8595534014425264465&#45;&gt;http://purl.org/dj/kaggle/unet34&#45;dice&#45;0&#45;87/activity/&#45;435331790003112612 -->
<g id="edge36" class="edge">
<title>http://purl.org/dj/kaggle/unet34&#45;dice&#45;0&#45;87/activity/8595534014425264465&#45;&gt;http://purl.org/dj/kaggle/unet34&#45;dice&#45;0&#45;87/activity/&#45;435331790003112612</title>
<path fill="none" stroke="black" d="M2316.56,-351.09C2296.4,-345.97 2275.26,-339.1 2256.69,-330 2247.03,-325.26 2247.68,-318.99 2237.69,-315 2214.13,-305.58 2081.92,-294.8 1980.64,-287.72"/>
<polygon fill="black" stroke="black" points="1980.85,-284.22 1970.63,-287.02 1980.37,-291.21 1980.85,-284.22"/>
<text text-anchor="middle" x="2280.19" y="-318.8" font-family="Times,serif" font-size="14.00">previous</text>
</g>
<!-- http://purl.org/dj/kaggle/unet34&#45;dice&#45;0&#45;87/activity/687734453497243006&#45;&gt;http://purl.org/dj/kaggle/unet34&#45;dice&#45;0&#45;87/activity/&#45;435331790003112612 -->
<g id="edge39" class="edge">
<title>http://purl.org/dj/kaggle/unet34&#45;dice&#45;0&#45;87/activity/687734453497243006&#45;&gt;http://purl.org/dj/kaggle/unet34&#45;dice&#45;0&#45;87/activity/&#45;435331790003112612</title>
<path fill="none" stroke="black" d="M1770.66,-36.15C1765.38,-70.95 1757.52,-151.47 1785.69,-210 1794.43,-228.17 1810.41,-243.72 1825.37,-255.34"/>
<polygon fill="black" stroke="black" points="1823.41,-258.24 1833.53,-261.38 1827.58,-252.62 1823.41,-258.24"/>
<text text-anchor="middle" x="1792.19" y="-144.8" font-family="Times,serif" font-size="14.00">previous</text>
</g>
<!-- http://purl.org/dj/kaggle/unet34&#45;dice&#45;0&#45;87/activity/&#45;920778898645954244 -->
<g id="node20" class="node">
<title>http://purl.org/dj/kaggle/unet34&#45;dice&#45;0&#45;87/activity/&#45;920778898645954244</title>
<ellipse fill="none" stroke="black" cx="141.69" cy="-366" rx="141.88" ry="18"/>
<text text-anchor="middle" x="141.69" y="-362.3" font-family="Times,serif" font-size="14.00">&#45;920778898645954244 (Preparation)</text>
</g>
<!-- http://purl.org/dj/kaggle/unet34&#45;dice&#45;0&#45;87/activity/&#45;920778898645954244&#45;&gt;http://purl.org/dj/kaggle/unet34&#45;dice&#45;0&#45;87/activity/&#45;435331790003112612 -->
<g id="edge40" class="edge">
<title>http://purl.org/dj/kaggle/unet34&#45;dice&#45;0&#45;87/activity/&#45;920778898645954244&#45;&gt;http://purl.org/dj/kaggle/unet34&#45;dice&#45;0&#45;87/activity/&#45;435331790003112612</title>
<path fill="none" stroke="black" d="M169.69,-348.27C191.06,-336.49 221.67,-321.67 250.69,-315 392.54,-282.4 1369,-279.68 1728.34,-279.8"/>
<polygon fill="black" stroke="black" points="1728.53,-283.3 1738.53,-279.8 1728.53,-276.3 1728.53,-283.3"/>
<text text-anchor="middle" x="274.19" y="-318.8" font-family="Times,serif" font-size="14.00">previous</text>
</g>
<!-- http://purl.org/dj/kaggle/unet34&#45;dice&#45;0&#45;87/activity/&#45;6440755043429659786 -->
<g id="node21" class="node">
<title>http://purl.org/dj/kaggle/unet34&#45;dice&#45;0&#45;87/activity/&#45;6440755043429659786</title>
<ellipse fill="none" stroke="black" cx="769.69" cy="-366" rx="145.67" ry="18"/>
<text text-anchor="middle" x="769.69" y="-362.3" font-family="Times,serif" font-size="14.00">&#45;6440755043429659786 (Preparation)</text>
</g>
<!-- http://purl.org/dj/kaggle/unet34&#45;dice&#45;0&#45;87/activity/&#45;6440755043429659786&#45;&gt;http://purl.org/dj/kaggle/unet34&#45;dice&#45;0&#45;87/activity/&#45;435331790003112612 -->
<g id="edge41" class="edge">
<title>http://purl.org/dj/kaggle/unet34&#45;dice&#45;0&#45;87/activity/&#45;6440755043429659786&#45;&gt;http://purl.org/dj/kaggle/unet34&#45;dice&#45;0&#45;87/activity/&#45;435331790003112612</title>
<path fill="none" stroke="black" d="M872.36,-353.18C889.49,-351.35 907.08,-349.55 923.69,-348 1216.01,-320.68 1560.51,-298.16 1739.28,-287.2"/>
<polygon fill="black" stroke="black" points="1739.73,-290.68 1749.5,-286.57 1739.31,-283.69 1739.73,-290.68"/>
<text text-anchor="middle" x="1332.19" y="-318.8" font-family="Times,serif" font-size="14.00">previous</text>
</g>
<!-- http://purl.org/dj/kaggle/unet34&#45;dice&#45;0&#45;87/activity/&#45;1418006507029941628 -->
<g id="node22" class="node">
<title>http://purl.org/dj/kaggle/unet34&#45;dice&#45;0&#45;87/activity/&#45;1418006507029941628</title>
<ellipse fill="none" stroke="black" cx="1078.69" cy="-366" rx="145.67" ry="18"/>
<text text-anchor="middle" x="1078.69" y="-362.3" font-family="Times,serif" font-size="14.00">&#45;1418006507029941628 (Preparation)</text>
</g>
<!-- http://purl.org/dj/kaggle/unet34&#45;dice&#45;0&#45;87/activity/&#45;1418006507029941628&#45;&gt;http://purl.org/dj/kaggle/unet34&#45;dice&#45;0&#45;87/activity/&#45;435331790003112612 -->
<g id="edge42" class="edge">
<title>http://purl.org/dj/kaggle/unet34&#45;dice&#45;0&#45;87/activity/&#45;1418006507029941628&#45;&gt;http://purl.org/dj/kaggle/unet34&#45;dice&#45;0&#45;87/activity/&#45;435331790003112612</title>
<path fill="none" stroke="black" d="M1183.74,-353.46C1200.45,-351.63 1217.54,-349.76 1233.69,-348 1416.98,-328.01 1630.42,-304.9 1755.05,-291.42"/>
<polygon fill="black" stroke="black" points="1755.78,-294.86 1765.35,-290.3 1755.03,-287.9 1755.78,-294.86"/>
<text text-anchor="middle" x="1548.19" y="-318.8" font-family="Times,serif" font-size="14.00">previous</text>
</g>
<!-- http://purl.org/dj/kaggle/unet34&#45;dice&#45;0&#45;87/activity/3052280052838099091 -->
<g id="node23" class="node">
<title>http://purl.org/dj/kaggle/unet34&#45;dice&#45;0&#45;87/activity/3052280052838099091</title>
<ellipse fill="none" stroke="black" cx="1385.69" cy="-366" rx="142.97" ry="18"/>
<text text-anchor="middle" x="1385.69" y="-362.3" font-family="Times,serif" font-size="14.00">3052280052838099091 (Preparation)</text>
</g>
<!-- http://purl.org/dj/kaggle/unet34&#45;dice&#45;0&#45;87/activity/3052280052838099091&#45;&gt;http://purl.org/dj/kaggle/unet34&#45;dice&#45;0&#45;87/activity/&#45;435331790003112612 -->
<g id="edge43" class="edge">
<title>http://purl.org/dj/kaggle/unet34&#45;dice&#45;0&#45;87/activity/3052280052838099091&#45;&gt;http://purl.org/dj/kaggle/unet34&#45;dice&#45;0&#45;87/activity/&#45;435331790003112612</title>
<path fill="none" stroke="black" d="M1464.39,-350.92C1550.45,-335.52 1687.86,-310.93 1776.16,-295.13"/>
<polygon fill="black" stroke="black" points="1776.91,-298.55 1786.14,-293.34 1775.68,-291.66 1776.91,-298.55"/>
<text text-anchor="middle" x="1674.19" y="-318.8" font-family="Times,serif" font-size="14.00">previous</text>
</g>
<!-- http://purl.org/dj/kaggle/unet34&#45;dice&#45;0&#45;87/activity/7793175645983827716 -->
<g id="node24" class="node">
<title>http://purl.org/dj/kaggle/unet34&#45;dice&#45;0&#45;87/activity/7793175645983827716</title>
<ellipse fill="none" stroke="black" cx="1689.69" cy="-366" rx="142.97" ry="18"/>
<text text-anchor="middle" x="1689.69" y="-362.3" font-family="Times,serif" font-size="14.00">7793175645983827716 (Preparation)</text>
</g>
<!-- http://purl.org/dj/kaggle/unet34&#45;dice&#45;0&#45;87/activity/7793175645983827716&#45;&gt;http://purl.org/dj/kaggle/unet34&#45;dice&#45;0&#45;87/activity/&#45;435331790003112612 -->
<g id="edge44" class="edge">
<title>http://purl.org/dj/kaggle/unet34&#45;dice&#45;0&#45;87/activity/7793175645983827716&#45;&gt;http://purl.org/dj/kaggle/unet34&#45;dice&#45;0&#45;87/activity/&#45;435331790003112612</title>
<path fill="none" stroke="black" d="M1723.06,-348.41C1750.34,-334.85 1789.06,-315.6 1818.49,-300.98"/>
<polygon fill="black" stroke="black" points="1820.29,-303.99 1827.69,-296.4 1817.17,-297.72 1820.29,-303.99"/>
<text text-anchor="middle" x="1808.19" y="-318.8" font-family="Times,serif" font-size="14.00">previous</text>
</g>
</g>
</svg>
