<?xml version="1.0" encoding="UTF-8" standalone="no"?>
<!DOCTYPE svg PUBLIC "-//W3C//DTD SVG 1.1//EN"
 "http://www.w3.org/Graphics/SVG/1.1/DTD/svg11.dtd">
<!-- Generated by graphviz version 2.47.1 (20210417.1919)
 -->
<!-- Pages: 1 -->
<svg width="2630pt" height="566pt"
 viewBox="0.00 0.00 2630.00 566.00" xmlns="http://www.w3.org/2000/svg" xmlns:xlink="http://www.w3.org/1999/xlink">
<g id="graph0" class="graph" transform="scale(1 1) rotate(0) translate(4 562)">
<polygon fill="white" stroke="transparent" points="-4,4 -4,-562 2626,-562 2626,4 -4,4"/>
<!-- http://purl.org/dj/kaggle/using&#45;a&#45;baseline/activity/48578050032502477 -->
<g id="node1" class="node">
<title>http://purl.org/dj/kaggle/using&#45;a&#45;baseline/activity/48578050032502477</title>
<ellipse fill="none" stroke="black" cx="2077" cy="-540" rx="133.78" ry="18"/>
<text text-anchor="middle" x="2077" y="-536.3" font-family="Times,serif" font-size="14.00">48578050032502477 (Preparation)</text>
</g>
<!-- http://purl.org/dj/kaggle/using&#45;a&#45;baseline/activity/&#45;3778048975270745982 -->
<g id="node2" class="node">
<title>http://purl.org/dj/kaggle/using&#45;a&#45;baseline/activity/&#45;3778048975270745982</title>
<ellipse fill="none" stroke="black" cx="515" cy="-453" rx="144.07" ry="18"/>
<text text-anchor="middle" x="515" y="-449.3" font-family="Times,serif" font-size="14.00">&#45;3778048975270745982 (Movement)</text>
</g>
<!-- http://purl.org/dj/kaggle/using&#45;a&#45;baseline/activity/48578050032502477&#45;&gt;http://purl.org/dj/kaggle/using&#45;a&#45;baseline/activity/&#45;3778048975270745982 -->
<g id="edge1" class="edge">
<title>http://purl.org/dj/kaggle/using&#45;a&#45;baseline/activity/48578050032502477&#45;&gt;http://purl.org/dj/kaggle/using&#45;a&#45;baseline/activity/&#45;3778048975270745982</title>
<path fill="none" stroke="black" d="M1955.41,-532.38C1669.72,-516.84 957.06,-478.06 654.45,-461.59"/>
<polygon fill="black" stroke="black" points="654.47,-458.08 644.29,-461.04 654.09,-465.07 654.47,-458.08"/>
<text text-anchor="middle" x="1413.5" y="-492.8" font-family="Times,serif" font-size="14.00">previous</text>
</g>
<!-- http://purl.org/dj/kaggle/using&#45;a&#45;baseline/activity/5106752664629208548 -->
<g id="node3" class="node">
<title>http://purl.org/dj/kaggle/using&#45;a&#45;baseline/activity/5106752664629208548</title>
<ellipse fill="none" stroke="black" cx="1123" cy="-279" rx="124.28" ry="18"/>
<text text-anchor="middle" x="1123" y="-275.3" font-family="Times,serif" font-size="14.00">5106752664629208548 (Reuse)</text>
</g>
<!-- http://purl.org/dj/kaggle/using&#45;a&#45;baseline/activity/48578050032502477&#45;&gt;http://purl.org/dj/kaggle/using&#45;a&#45;baseline/activity/5106752664629208548 -->
<g id="edge2" class="edge">
<title>http://purl.org/dj/kaggle/using&#45;a&#45;baseline/activity/48578050032502477&#45;&gt;http://purl.org/dj/kaggle/using&#45;a&#45;baseline/activity/5106752664629208548</title>
<path fill="none" stroke="black" d="M2193.78,-531.14C2367.22,-515.3 2661.31,-469.95 2552,-348 2509.15,-300.2 1603.25,-285.25 1256.44,-281.27"/>
<polygon fill="black" stroke="black" points="1256.39,-277.77 1246.35,-281.16 1256.31,-284.77 1256.39,-277.77"/>
<text text-anchor="middle" x="2598.5" y="-405.8" font-family="Times,serif" font-size="14.00">previous</text>
</g>
<!-- http://purl.org/dj/kaggle/using&#45;a&#45;baseline/activity/&#45;3778048975270745982&#45;&gt;http://purl.org/dj/kaggle/using&#45;a&#45;baseline/activity/5106752664629208548 -->
<g id="edge3" class="edge">
<title>http://purl.org/dj/kaggle/using&#45;a&#45;baseline/activity/&#45;3778048975270745982&#45;&gt;http://purl.org/dj/kaggle/using&#45;a&#45;baseline/activity/5106752664629208548</title>
<path fill="none" stroke="black" d="M659.47,-452.46C1104.66,-453.17 2429.49,-449.73 2493,-384 2504.12,-372.49 2503.92,-359.69 2493,-348 2418.94,-268.75 2114.31,-320.82 2006,-315 1738.63,-300.65 1425.43,-289.6 1253.15,-284.02"/>
<polygon fill="black" stroke="black" points="1253.13,-280.51 1243.02,-283.69 1252.9,-287.51 1253.13,-280.51"/>
<text text-anchor="middle" x="2524.5" y="-362.3" font-family="Times,serif" font-size="14.00">previous</text>
</g>
<!-- http://purl.org/dj/kaggle/using&#45;a&#45;baseline/activity/3120055809919009523 -->
<g id="node4" class="node">
<title>http://purl.org/dj/kaggle/using&#45;a&#45;baseline/activity/3120055809919009523</title>
<ellipse fill="none" stroke="black" cx="515" cy="-366" rx="142.97" ry="18"/>
<text text-anchor="middle" x="515" y="-362.3" font-family="Times,serif" font-size="14.00">3120055809919009523 (Preparation)</text>
</g>
<!-- http://purl.org/dj/kaggle/using&#45;a&#45;baseline/activity/&#45;3778048975270745982&#45;&gt;http://purl.org/dj/kaggle/using&#45;a&#45;baseline/activity/3120055809919009523 -->
<g id="edge4" class="edge">
<title>http://purl.org/dj/kaggle/using&#45;a&#45;baseline/activity/&#45;3778048975270745982&#45;&gt;http://purl.org/dj/kaggle/using&#45;a&#45;baseline/activity/3120055809919009523</title>
<path fill="none" stroke="black" d="M515,-434.8C515,-423.16 515,-407.55 515,-394.24"/>
<polygon fill="black" stroke="black" points="518.5,-394.18 515,-384.18 511.5,-394.18 518.5,-394.18"/>
<text text-anchor="middle" x="538.5" y="-405.8" font-family="Times,serif" font-size="14.00">previous</text>
</g>
<!-- http://purl.org/dj/kaggle/using&#45;a&#45;baseline/activity/&#45;2702627597899565489 -->
<g id="node5" class="node">
<title>http://purl.org/dj/kaggle/using&#45;a&#45;baseline/activity/&#45;2702627597899565489</title>
<ellipse fill="none" stroke="black" cx="905" cy="-192" rx="145.67" ry="18"/>
<text text-anchor="middle" x="905" y="-188.3" font-family="Times,serif" font-size="14.00">&#45;2702627597899565489 (Preparation)</text>
</g>
<!-- http://purl.org/dj/kaggle/using&#45;a&#45;baseline/activity/5106752664629208548&#45;&gt;http://purl.org/dj/kaggle/using&#45;a&#45;baseline/activity/&#45;2702627597899565489 -->
<g id="edge5" class="edge">
<title>http://purl.org/dj/kaggle/using&#45;a&#45;baseline/activity/5106752664629208548&#45;&gt;http://purl.org/dj/kaggle/using&#45;a&#45;baseline/activity/&#45;2702627597899565489</title>
<path fill="none" stroke="black" d="M1081.74,-261.91C1046.12,-248.02 994.52,-227.9 956.26,-212.98"/>
<polygon fill="black" stroke="black" points="957.42,-209.68 946.83,-209.31 954.88,-216.2 957.42,-209.68"/>
<text text-anchor="middle" x="1051.5" y="-231.8" font-family="Times,serif" font-size="14.00">previous</text>
</g>
<!-- http://purl.org/dj/kaggle/using&#45;a&#45;baseline -->
<g id="node6" class="node">
<title>http://purl.org/dj/kaggle/using&#45;a&#45;baseline</title>
<ellipse fill="none" stroke="black" cx="1009" cy="-18" rx="156.77" ry="18"/>
<text text-anchor="middle" x="1009" y="-14.3" font-family="Times,serif" font-size="14.00">using&#45;a&#45;baseline (using&#45;a&#45;baseline.ipynb)</text>
</g>
<!-- http://purl.org/dj/kaggle/using&#45;a&#45;baseline/activity/5106752664629208548&#45;&gt;http://purl.org/dj/kaggle/using&#45;a&#45;baseline -->
<g id="edge6" class="edge">
<title>http://purl.org/dj/kaggle/using&#45;a&#45;baseline/activity/5106752664629208548&#45;&gt;http://purl.org/dj/kaggle/using&#45;a&#45;baseline</title>
<path fill="none" stroke="black" d="M1167.94,-262.09C1247.33,-231.6 1398.54,-161.33 1338,-87 1313.32,-56.7 1224.31,-39.48 1145.1,-29.96"/>
<polygon fill="black" stroke="black" points="1145.33,-26.47 1134.99,-28.78 1144.52,-33.42 1145.33,-26.47"/>
<text text-anchor="middle" x="1371.5" y="-144.8" font-family="Times,serif" font-size="14.00">previous</text>
</g>
<!-- http://purl.org/dj/kaggle/using&#45;a&#45;baseline/activity/3120055809919009523&#45;&gt;http://purl.org/dj/kaggle/using&#45;a&#45;baseline/activity/5106752664629208548 -->
<g id="edge7" class="edge">
<title>http://purl.org/dj/kaggle/using&#45;a&#45;baseline/activity/3120055809919009523&#45;&gt;http://purl.org/dj/kaggle/using&#45;a&#45;baseline/activity/5106752664629208548</title>
<path fill="none" stroke="black" d="M606.68,-352.18C719.87,-336.36 911.5,-309.57 1026.75,-293.46"/>
<polygon fill="black" stroke="black" points="1027.55,-296.88 1036.97,-292.03 1026.59,-289.95 1027.55,-296.88"/>
<text text-anchor="middle" x="879.5" y="-318.8" font-family="Times,serif" font-size="14.00">previous</text>
</g>
<!-- http://purl.org/dj/kaggle/using&#45;a&#45;baseline/activity/8121077666886892627 -->
<g id="node7" class="node">
<title>http://purl.org/dj/kaggle/using&#45;a&#45;baseline/activity/8121077666886892627</title>
<ellipse fill="none" stroke="black" cx="580" cy="-105" rx="141.88" ry="18"/>
<text text-anchor="middle" x="580" y="-101.3" font-family="Times,serif" font-size="14.00">8121077666886892627 (Movement)</text>
</g>
<!-- http://purl.org/dj/kaggle/using&#45;a&#45;baseline/activity/3120055809919009523&#45;&gt;http://purl.org/dj/kaggle/using&#45;a&#45;baseline/activity/8121077666886892627 -->
<g id="edge8" class="edge">
<title>http://purl.org/dj/kaggle/using&#45;a&#45;baseline/activity/3120055809919009523&#45;&gt;http://purl.org/dj/kaggle/using&#45;a&#45;baseline/activity/8121077666886892627</title>
<path fill="none" stroke="black" d="M519.26,-348.01C530.31,-304.01 559.9,-186.11 573.27,-132.81"/>
<polygon fill="black" stroke="black" points="576.68,-133.61 575.72,-123.06 569.89,-131.9 576.68,-133.61"/>
<text text-anchor="middle" x="572.5" y="-231.8" font-family="Times,serif" font-size="14.00">previous</text>
</g>
<!-- http://purl.org/dj/kaggle/using&#45;a&#45;baseline/activity/&#45;2702627597899565489&#45;&gt;http://purl.org/dj/kaggle/using&#45;a&#45;baseline/activity/5106752664629208548 -->
<g id="edge12" class="edge">
<title>http://purl.org/dj/kaggle/using&#45;a&#45;baseline/activity/&#45;2702627597899565489&#45;&gt;http://purl.org/dj/kaggle/using&#45;a&#45;baseline/activity/5106752664629208548</title>
<path fill="none" stroke="black" d="M915.95,-209.98C924.02,-221.1 936,-235.01 950,-243 968.69,-253.67 990.15,-261.12 1011.45,-266.32"/>
<polygon fill="black" stroke="black" points="1010.69,-269.73 1021.22,-268.55 1012.25,-262.91 1010.69,-269.73"/>
<text text-anchor="middle" x="973.5" y="-231.8" font-family="Times,serif" font-size="14.00">previous</text>
</g>
<!-- http://purl.org/dj/kaggle/using&#45;a&#45;baseline/activity/&#45;2702627597899565489&#45;&gt;http://purl.org/dj/kaggle/using&#45;a&#45;baseline/activity/8121077666886892627 -->
<g id="edge13" class="edge">
<title>http://purl.org/dj/kaggle/using&#45;a&#45;baseline/activity/&#45;2702627597899565489&#45;&gt;http://purl.org/dj/kaggle/using&#45;a&#45;baseline/activity/8121077666886892627</title>
<path fill="none" stroke="black" d="M845.77,-175.51C790.21,-160.98 707.16,-139.26 648.71,-123.97"/>
<polygon fill="black" stroke="black" points="649.39,-120.53 638.82,-121.38 647.61,-127.3 649.39,-120.53"/>
<text text-anchor="middle" x="785.5" y="-144.8" font-family="Times,serif" font-size="14.00">previous</text>
</g>
<!-- http://purl.org/dj/kaggle/using&#45;a&#45;baseline/activity/3771869364335990325 -->
<g id="node10" class="node">
<title>http://purl.org/dj/kaggle/using&#45;a&#45;baseline/activity/3771869364335990325</title>
<ellipse fill="none" stroke="black" cx="881" cy="-105" rx="141.88" ry="18"/>
<text text-anchor="middle" x="881" y="-101.3" font-family="Times,serif" font-size="14.00">3771869364335990325 (Movement)</text>
</g>
<!-- http://purl.org/dj/kaggle/using&#45;a&#45;baseline/activity/&#45;2702627597899565489&#45;&gt;http://purl.org/dj/kaggle/using&#45;a&#45;baseline/activity/3771869364335990325 -->
<g id="edge14" class="edge">
<title>http://purl.org/dj/kaggle/using&#45;a&#45;baseline/activity/&#45;2702627597899565489&#45;&gt;http://purl.org/dj/kaggle/using&#45;a&#45;baseline/activity/3771869364335990325</title>
<path fill="none" stroke="black" d="M900.14,-173.8C896.83,-162.05 892.36,-146.24 888.58,-132.84"/>
<polygon fill="black" stroke="black" points="891.94,-131.85 885.85,-123.18 885.2,-133.75 891.94,-131.85"/>
<text text-anchor="middle" x="918.5" y="-144.8" font-family="Times,serif" font-size="14.00">previous</text>
</g>
<!-- http://purl.org/dj/kaggle/using&#45;a&#45;baseline/activity/8121077666886892627&#45;&gt;http://purl.org/dj/kaggle/using&#45;a&#45;baseline/activity/5106752664629208548 -->
<g id="edge15" class="edge">
<title>http://purl.org/dj/kaggle/using&#45;a&#45;baseline/activity/8121077666886892627&#45;&gt;http://purl.org/dj/kaggle/using&#45;a&#45;baseline/activity/5106752664629208548</title>
<path fill="none" stroke="black" d="M594.7,-123.29C615.98,-147.04 657.78,-189.2 703,-210 793.69,-251.72 905.68,-268.35 991.21,-274.74"/>
<polygon fill="black" stroke="black" points="991.02,-278.24 1001.24,-275.45 991.51,-271.25 991.02,-278.24"/>
<text text-anchor="middle" x="726.5" y="-188.3" font-family="Times,serif" font-size="14.00">previous</text>
</g>
<!-- http://purl.org/dj/kaggle/using&#45;a&#45;baseline/activity/8121077666886892627&#45;&gt;http://purl.org/dj/kaggle/using&#45;a&#45;baseline -->
<g id="edge17" class="edge">
<title>http://purl.org/dj/kaggle/using&#45;a&#45;baseline/activity/8121077666886892627&#45;&gt;http://purl.org/dj/kaggle/using&#45;a&#45;baseline</title>
<path fill="none" stroke="black" d="M653.26,-89.48C728.31,-74.62 844.87,-51.52 923.95,-35.85"/>
<polygon fill="black" stroke="black" points="924.75,-39.26 933.88,-33.88 923.39,-32.39 924.75,-39.26"/>
<text text-anchor="middle" x="844.5" y="-57.8" font-family="Times,serif" font-size="14.00">previous</text>
</g>
<!-- http://purl.org/dj/kaggle/using&#45;a&#45;baseline/activity/7470618785269631327 -->
<g id="node9" class="node">
<title>http://purl.org/dj/kaggle/using&#45;a&#45;baseline/activity/7470618785269631327</title>
<ellipse fill="none" stroke="black" cx="412" cy="-18" rx="148.67" ry="18"/>
<text text-anchor="middle" x="412" y="-14.3" font-family="Times,serif" font-size="14.00">7470618785269631327 (Visualisation)</text>
</g>
<!-- http://purl.org/dj/kaggle/using&#45;a&#45;baseline/activity/8121077666886892627&#45;&gt;http://purl.org/dj/kaggle/using&#45;a&#45;baseline/activity/7470618785269631327 -->
<g id="edge16" class="edge">
<title>http://purl.org/dj/kaggle/using&#45;a&#45;baseline/activity/8121077666886892627&#45;&gt;http://purl.org/dj/kaggle/using&#45;a&#45;baseline/activity/7470618785269631327</title>
<path fill="none" stroke="black" d="M547.21,-87.41C520.58,-73.94 482.86,-54.85 454.02,-40.26"/>
<polygon fill="black" stroke="black" points="455.5,-37.09 444.99,-35.69 452.34,-43.33 455.5,-37.09"/>
<text text-anchor="middle" x="530.5" y="-57.8" font-family="Times,serif" font-size="14.00">previous</text>
</g>
<!-- http://purl.org/dj/kaggle/using&#45;a&#45;baseline/activity/&#45;8931087954412387179 -->
<g id="node8" class="node">
<title>http://purl.org/dj/kaggle/using&#45;a&#45;baseline/activity/&#45;8931087954412387179</title>
<ellipse fill="none" stroke="black" cx="210" cy="-366" rx="144.07" ry="18"/>
<text text-anchor="middle" x="210" y="-362.3" font-family="Times,serif" font-size="14.00">&#45;8931087954412387179 (Movement)</text>
</g>
<!-- http://purl.org/dj/kaggle/using&#45;a&#45;baseline/activity/&#45;8931087954412387179&#45;&gt;http://purl.org/dj/kaggle/using&#45;a&#45;baseline/activity/5106752664629208548 -->
<g id="edge9" class="edge">
<title>http://purl.org/dj/kaggle/using&#45;a&#45;baseline/activity/&#45;8931087954412387179&#45;&gt;http://purl.org/dj/kaggle/using&#45;a&#45;baseline/activity/5106752664629208548</title>
<path fill="none" stroke="black" d="M312.43,-353.31C329.32,-351.47 346.65,-349.64 363,-348 591.55,-325.08 859.15,-302.01 1008.05,-289.51"/>
<polygon fill="black" stroke="black" points="1008.46,-292.99 1018.13,-288.67 1007.87,-286.02 1008.46,-292.99"/>
<text text-anchor="middle" x="720.5" y="-318.8" font-family="Times,serif" font-size="14.00">previous</text>
</g>
<!-- http://purl.org/dj/kaggle/using&#45;a&#45;baseline/activity/&#45;8931087954412387179&#45;&gt;http://purl.org/dj/kaggle/using&#45;a&#45;baseline/activity/7470618785269631327 -->
<g id="edge10" class="edge">
<title>http://purl.org/dj/kaggle/using&#45;a&#45;baseline/activity/&#45;8931087954412387179&#45;&gt;http://purl.org/dj/kaggle/using&#45;a&#45;baseline/activity/7470618785269631327</title>
<path fill="none" stroke="black" d="M243.59,-348.28C267.35,-333.83 295,-310.47 295,-280 295,-280 295,-280 295,-104 295,-73.21 321.85,-52.41 349.83,-39.1"/>
<polygon fill="black" stroke="black" points="351.61,-42.14 359.32,-34.87 348.76,-35.74 351.61,-42.14"/>
<text text-anchor="middle" x="318.5" y="-188.3" font-family="Times,serif" font-size="14.00">previous</text>
</g>
<!-- http://purl.org/dj/kaggle/using&#45;a&#45;baseline/activity/7470618785269631327&#45;&gt;http://purl.org/dj/kaggle/using&#45;a&#45;baseline/activity/&#45;3778048975270745982 -->
<g id="edge11" class="edge">
<title>http://purl.org/dj/kaggle/using&#45;a&#45;baseline/activity/7470618785269631327&#45;&gt;http://purl.org/dj/kaggle/using&#45;a&#45;baseline/activity/&#45;3778048975270745982</title>
<path fill="none" stroke="black" d="M266.74,-22.01C148.13,-28.55 0,-47.95 0,-104 0,-323.5 0,-323.5 0,-323.5 0,-360.44 24.25,-366.9 57,-384 112.38,-412.92 269.35,-431.79 384.13,-442.15"/>
<polygon fill="black" stroke="black" points="384.13,-445.67 394.4,-443.07 384.75,-438.69 384.13,-445.67"/>
<text text-anchor="middle" x="23.5" y="-231.8" font-family="Times,serif" font-size="14.00">previous</text>
</g>
<!-- http://purl.org/dj/kaggle/using&#45;a&#45;baseline/activity/3771869364335990325&#45;&gt;http://purl.org/dj/kaggle/using&#45;a&#45;baseline/activity/5106752664629208548 -->
<g id="edge21" class="edge">
<title>http://purl.org/dj/kaggle/using&#45;a&#45;baseline/activity/3771869364335990325&#45;&gt;http://purl.org/dj/kaggle/using&#45;a&#45;baseline/activity/5106752664629208548</title>
<path fill="none" stroke="black" d="M950.3,-120.8C986.04,-131.11 1028.58,-147.83 1060,-174 1084.98,-194.81 1102.7,-228.22 1112.86,-251.54"/>
<polygon fill="black" stroke="black" points="1109.67,-252.97 1116.75,-260.85 1116.13,-250.27 1109.67,-252.97"/>
<text text-anchor="middle" x="1113.5" y="-188.3" font-family="Times,serif" font-size="14.00">previous</text>
</g>
<!-- http://purl.org/dj/kaggle/using&#45;a&#45;baseline/activity/230132660535971220 -->
<g id="node11" class="node">
<title>http://purl.org/dj/kaggle/using&#45;a&#45;baseline/activity/230132660535971220</title>
<ellipse fill="none" stroke="black" cx="158" cy="-540" rx="144.07" ry="18"/>
<text text-anchor="middle" x="158" y="-536.3" font-family="Times,serif" font-size="14.00">230132660535971220 (Visualisation)</text>
</g>
<!-- http://purl.org/dj/kaggle/using&#45;a&#45;baseline/activity/230132660535971220&#45;&gt;http://purl.org/dj/kaggle/using&#45;a&#45;baseline/activity/&#45;3778048975270745982 -->
<g id="edge18" class="edge">
<title>http://purl.org/dj/kaggle/using&#45;a&#45;baseline/activity/230132660535971220&#45;&gt;http://purl.org/dj/kaggle/using&#45;a&#45;baseline/activity/&#45;3778048975270745982</title>
<path fill="none" stroke="black" d="M221.82,-523.8C283.44,-509.13 376.67,-486.93 441.39,-471.53"/>
<polygon fill="black" stroke="black" points="442.21,-474.93 451.13,-469.21 440.59,-468.12 442.21,-474.93"/>
<text text-anchor="middle" x="381.5" y="-492.8" font-family="Times,serif" font-size="14.00">previous</text>
</g>
<!-- http://purl.org/dj/kaggle/using&#45;a&#45;baseline/activity/230132660535971220&#45;&gt;http://purl.org/dj/kaggle/using&#45;a&#45;baseline/activity/5106752664629208548 -->
<g id="edge19" class="edge">
<title>http://purl.org/dj/kaggle/using&#45;a&#45;baseline/activity/230132660535971220&#45;&gt;http://purl.org/dj/kaggle/using&#45;a&#45;baseline/activity/5106752664629208548</title>
<path fill="none" stroke="black" d="M136.66,-522.11C93.99,-486.41 6.41,-402.12 57,-348 88.49,-314.32 714.65,-291.92 992.33,-283.61"/>
<polygon fill="black" stroke="black" points="992.57,-287.11 1002.46,-283.31 992.36,-280.11 992.57,-287.11"/>
<text text-anchor="middle" x="72.5" y="-405.8" font-family="Times,serif" font-size="14.00">previous</text>
</g>
<!-- http://purl.org/dj/kaggle/using&#45;a&#45;baseline/activity/&#45;4164885236715701649 -->
<g id="node12" class="node">
<title>http://purl.org/dj/kaggle/using&#45;a&#45;baseline/activity/&#45;4164885236715701649</title>
<ellipse fill="none" stroke="black" cx="820" cy="-366" rx="144.07" ry="18"/>
<text text-anchor="middle" x="820" y="-362.3" font-family="Times,serif" font-size="14.00">&#45;4164885236715701649 (Movement)</text>
</g>
<!-- http://purl.org/dj/kaggle/using&#45;a&#45;baseline/activity/&#45;4164885236715701649&#45;&gt;http://purl.org/dj/kaggle/using&#45;a&#45;baseline/activity/5106752664629208548 -->
<g id="edge20" class="edge">
<title>http://purl.org/dj/kaggle/using&#45;a&#45;baseline/activity/&#45;4164885236715701649&#45;&gt;http://purl.org/dj/kaggle/using&#45;a&#45;baseline/activity/5106752664629208548</title>
<path fill="none" stroke="black" d="M875.93,-349.31C927.68,-334.79 1004.59,-313.22 1058.82,-298"/>
<polygon fill="black" stroke="black" points="1059.99,-301.31 1068.67,-295.24 1058.1,-294.57 1059.99,-301.31"/>
<text text-anchor="middle" x="1013.5" y="-318.8" font-family="Times,serif" font-size="14.00">previous</text>
</g>
<!-- http://purl.org/dj/kaggle/using&#45;a&#45;baseline/activity/&#45;6877982049652999669 -->
<g id="node13" class="node">
<title>http://purl.org/dj/kaggle/using&#45;a&#45;baseline/activity/&#45;6877982049652999669</title>
<ellipse fill="none" stroke="black" cx="1185" cy="-105" rx="144.07" ry="18"/>
<text text-anchor="middle" x="1185" y="-101.3" font-family="Times,serif" font-size="14.00">&#45;6877982049652999669 (Movement)</text>
</g>
<!-- http://purl.org/dj/kaggle/using&#45;a&#45;baseline/activity/&#45;6877982049652999669&#45;&gt;http://purl.org/dj/kaggle/using&#45;a&#45;baseline/activity/7470618785269631327 -->
<g id="edge22" class="edge">
<title>http://purl.org/dj/kaggle/using&#45;a&#45;baseline/activity/&#45;6877982049652999669&#45;&gt;http://purl.org/dj/kaggle/using&#45;a&#45;baseline/activity/7470618785269631327</title>
<path fill="none" stroke="black" d="M1107.43,-89.78C1044.24,-78.64 952.61,-63.49 872,-54 766.01,-41.52 645.72,-32.55 554.74,-26.82"/>
<polygon fill="black" stroke="black" points="554.84,-23.32 544.64,-26.19 554.4,-30.3 554.84,-23.32"/>
<text text-anchor="middle" x="999.5" y="-57.8" font-family="Times,serif" font-size="14.00">previous</text>
</g>
<!-- http://purl.org/dj/kaggle/using&#45;a&#45;baseline/activity/8066894248343689484 -->
<g id="node14" class="node">
<title>http://purl.org/dj/kaggle/using&#45;a&#45;baseline/activity/8066894248343689484</title>
<ellipse fill="none" stroke="black" cx="1125" cy="-366" rx="142.97" ry="18"/>
<text text-anchor="middle" x="1125" y="-362.3" font-family="Times,serif" font-size="14.00">8066894248343689484 (Preparation)</text>
</g>
<!-- http://purl.org/dj/kaggle/using&#45;a&#45;baseline/activity/8066894248343689484&#45;&gt;http://purl.org/dj/kaggle/using&#45;a&#45;baseline/activity/5106752664629208548 -->
<g id="edge23" class="edge">
<title>http://purl.org/dj/kaggle/using&#45;a&#45;baseline/activity/8066894248343689484&#45;&gt;http://purl.org/dj/kaggle/using&#45;a&#45;baseline/activity/5106752664629208548</title>
<path fill="none" stroke="black" d="M1124.6,-347.8C1124.32,-336.16 1123.95,-320.55 1123.64,-307.24"/>
<polygon fill="black" stroke="black" points="1127.14,-307.09 1123.4,-297.18 1120.14,-307.26 1127.14,-307.09"/>
<text text-anchor="middle" x="1148.5" y="-318.8" font-family="Times,serif" font-size="14.00">previous</text>
</g>
<!-- http://purl.org/dj/kaggle/using&#45;a&#45;baseline/activity/&#45;500034776052088731 -->
<g id="node15" class="node">
<title>http://purl.org/dj/kaggle/using&#45;a&#45;baseline/activity/&#45;500034776052088731</title>
<ellipse fill="none" stroke="black" cx="1428" cy="-366" rx="141.88" ry="18"/>
<text text-anchor="middle" x="1428" y="-362.3" font-family="Times,serif" font-size="14.00">&#45;500034776052088731 (Preparation)</text>
</g>
<!-- http://purl.org/dj/kaggle/using&#45;a&#45;baseline/activity/&#45;500034776052088731&#45;&gt;http://purl.org/dj/kaggle/using&#45;a&#45;baseline/activity/5106752664629208548 -->
<g id="edge24" class="edge">
<title>http://purl.org/dj/kaggle/using&#45;a&#45;baseline/activity/&#45;500034776052088731&#45;&gt;http://purl.org/dj/kaggle/using&#45;a&#45;baseline/activity/5106752664629208548</title>
<path fill="none" stroke="black" d="M1372.06,-349.41C1319.93,-334.88 1242.22,-313.23 1187.5,-297.98"/>
<polygon fill="black" stroke="black" points="1188.13,-294.52 1177.56,-295.21 1186.25,-301.26 1188.13,-294.52"/>
<text text-anchor="middle" x="1317.5" y="-318.8" font-family="Times,serif" font-size="14.00">previous</text>
</g>
<!-- http://purl.org/dj/kaggle/using&#45;a&#45;baseline/activity/&#45;9175547232491574903 -->
<g id="node16" class="node">
<title>http://purl.org/dj/kaggle/using&#45;a&#45;baseline/activity/&#45;9175547232491574903</title>
<ellipse fill="none" stroke="black" cx="1732" cy="-366" rx="144.07" ry="18"/>
<text text-anchor="middle" x="1732" y="-362.3" font-family="Times,serif" font-size="14.00">&#45;9175547232491574903 (Movement)</text>
</g>
<!-- http://purl.org/dj/kaggle/using&#45;a&#45;baseline/activity/&#45;9175547232491574903&#45;&gt;http://purl.org/dj/kaggle/using&#45;a&#45;baseline/activity/5106752664629208548 -->
<g id="edge25" class="edge">
<title>http://purl.org/dj/kaggle/using&#45;a&#45;baseline/activity/&#45;9175547232491574903&#45;&gt;http://purl.org/dj/kaggle/using&#45;a&#45;baseline/activity/5106752664629208548</title>
<path fill="none" stroke="black" d="M1639.84,-352.14C1526.38,-336.3 1334.61,-309.54 1219.29,-293.44"/>
<polygon fill="black" stroke="black" points="1219.45,-289.93 1209.07,-292.01 1218.49,-296.86 1219.45,-289.93"/>
<text text-anchor="middle" x="1487.5" y="-318.8" font-family="Times,serif" font-size="14.00">previous</text>
</g>
<!-- http://purl.org/dj/kaggle/using&#45;a&#45;baseline/activity/1544221179956940748 -->
<g id="node17" class="node">
<title>http://purl.org/dj/kaggle/using&#45;a&#45;baseline/activity/1544221179956940748</title>
<ellipse fill="none" stroke="black" cx="2036" cy="-366" rx="141.88" ry="18"/>
<text text-anchor="middle" x="2036" y="-362.3" font-family="Times,serif" font-size="14.00">1544221179956940748 (Movement)</text>
</g>
<!-- http://purl.org/dj/kaggle/using&#45;a&#45;baseline/activity/1544221179956940748&#45;&gt;http://purl.org/dj/kaggle/using&#45;a&#45;baseline/activity/5106752664629208548 -->
<g id="edge26" class="edge">
<title>http://purl.org/dj/kaggle/using&#45;a&#45;baseline/activity/1544221179956940748&#45;&gt;http://purl.org/dj/kaggle/using&#45;a&#45;baseline/activity/5106752664629208548</title>
<path fill="none" stroke="black" d="M1934.91,-353.29C1918.24,-351.46 1901.14,-349.63 1885,-348 1655.87,-324.88 1387.56,-301.88 1238.25,-289.45"/>
<polygon fill="black" stroke="black" points="1238.41,-285.95 1228.15,-288.61 1237.83,-292.93 1238.41,-285.95"/>
<text text-anchor="middle" x="1720.5" y="-318.8" font-family="Times,serif" font-size="14.00">previous</text>
</g>
<!-- http://purl.org/dj/kaggle/using&#45;a&#45;baseline/activity/&#45;2988044376563079596 -->
<g id="node18" class="node">
<title>http://purl.org/dj/kaggle/using&#45;a&#45;baseline/activity/&#45;2988044376563079596</title>
<ellipse fill="none" stroke="black" cx="2340" cy="-366" rx="144.07" ry="18"/>
<text text-anchor="middle" x="2340" y="-362.3" font-family="Times,serif" font-size="14.00">&#45;2988044376563079596 (Movement)</text>
</g>
<!-- http://purl.org/dj/kaggle/using&#45;a&#45;baseline/activity/&#45;2988044376563079596&#45;&gt;http://purl.org/dj/kaggle/using&#45;a&#45;baseline/activity/5106752664629208548 -->
<g id="edge27" class="edge">
<title>http://purl.org/dj/kaggle/using&#45;a&#45;baseline/activity/&#45;2988044376563079596&#45;&gt;http://purl.org/dj/kaggle/using&#45;a&#45;baseline/activity/5106752664629208548</title>
<path fill="none" stroke="black" d="M2238.41,-353.2C2221.26,-351.35 2203.63,-349.55 2187,-348 1849.15,-316.54 1449.58,-295.27 1249.91,-285.72"/>
<polygon fill="black" stroke="black" points="1249.84,-282.22 1239.68,-285.24 1249.5,-289.21 1249.84,-282.22"/>
<text text-anchor="middle" x="1978.5" y="-318.8" font-family="Times,serif" font-size="14.00">previous</text>
</g>
</g>
</svg>
