<?xml version="1.0" encoding="UTF-8" standalone="no"?>
<!DOCTYPE svg PUBLIC "-//W3C//DTD SVG 1.1//EN"
 "http://www.w3.org/Graphics/SVG/1.1/DTD/svg11.dtd">
<!-- Generated by graphviz version 2.44.1 (20200629.0846)
 -->
<!-- Pages: 1 -->
<svg width="3438pt" height="521pt"
 viewBox="0.00 0.00 3437.56 521.00" xmlns="http://www.w3.org/2000/svg" xmlns:xlink="http://www.w3.org/1999/xlink">
<g id="graph0" class="graph" transform="scale(1 1) rotate(0) translate(4 517)">
<polygon fill="white" stroke="transparent" points="-4,4 -4,-517 3433.56,-517 3433.56,4 -4,4"/>
<!-- http://purl.org/dj/kaggle/where&#45;is&#45;my&#45;output&#45;file#261948054 -->
<g id="node1" class="node">
<title>http://purl.org/dj/kaggle/where&#45;is&#45;my&#45;output&#45;file#261948054</title>
<ellipse fill="none" stroke="black" cx="390.19" cy="-213" rx="133.78" ry="18"/>
<text text-anchor="middle" x="390.19" y="-209.3" font-family="Times,serif" font-size="14.00">261948054 (test(0)$0: Movement)</text>
</g>
<!-- http://purl.org/dj/python/lib/144966264 -->
<g id="node2" class="node">
<title>http://purl.org/dj/python/lib/144966264</title>
<ellipse fill="none" stroke="black" cx="109.19" cy="-105" rx="109.38" ry="18"/>
<text text-anchor="middle" x="109.19" y="-101.3" font-family="Times,serif" font-size="14.00">144966264 (pandas: Reuse)</text>
</g>
<!-- http://purl.org/dj/kaggle/where&#45;is&#45;my&#45;output&#45;file#261948054&#45;&gt;http://purl.org/dj/python/lib/144966264 -->
<g id="edge1" class="edge">
<title>http://purl.org/dj/kaggle/where&#45;is&#45;my&#45;output&#45;file#261948054&#45;&gt;http://purl.org/dj/python/lib/144966264</title>
<path fill="none" stroke="black" d="M347.51,-195.9C297.36,-176.98 214.19,-145.61 160.55,-125.37"/>
<polygon fill="black" stroke="black" points="161.48,-121.99 150.89,-121.73 159.01,-128.53 161.48,-121.99"/>
<text text-anchor="middle" x="315.69" y="-155.3" font-family="Times,serif" font-size="14.00">previous</text>
</g>
<!-- http://purl.org/dj/kaggle/where&#45;is&#45;my&#45;output&#45;file#80085334 -->
<g id="node3" class="node">
<title>http://purl.org/dj/kaggle/where&#45;is&#45;my&#45;output&#45;file#80085334</title>
<ellipse fill="none" stroke="black" cx="661.19" cy="-105" rx="99.38" ry="18"/>
<text text-anchor="middle" x="661.19" y="-101.3" font-family="Times,serif" font-size="14.00">80085334 (pd(0): Reuse)</text>
</g>
<!-- http://purl.org/dj/kaggle/where&#45;is&#45;my&#45;output&#45;file#261948054&#45;&gt;http://purl.org/dj/kaggle/where&#45;is&#45;my&#45;output&#45;file#80085334 -->
<g id="edge2" class="edge">
<title>http://purl.org/dj/kaggle/where&#45;is&#45;my&#45;output&#45;file#261948054&#45;&gt;http://purl.org/dj/kaggle/where&#45;is&#45;my&#45;output&#45;file#80085334</title>
<path fill="none" stroke="black" d="M414.91,-195.2C423.28,-189.47 432.67,-182.99 441.19,-177 463.59,-161.25 466.12,-152 491.19,-141 507.4,-133.89 544.52,-125.93 579.95,-119.41"/>
<polygon fill="black" stroke="black" points="580.67,-122.84 589.88,-117.61 579.42,-115.95 580.67,-122.84"/>
<text text-anchor="middle" x="514.69" y="-155.3" font-family="Times,serif" font-size="14.00">previous</text>
</g>
<!-- http://purl.org/dj/kaggle/where&#45;is&#45;my&#45;output&#45;file#1183844006 -->
<g id="node4" class="node">
<title>http://purl.org/dj/kaggle/where&#45;is&#45;my&#45;output&#45;file#1183844006</title>
<ellipse fill="none" stroke="black" cx="390.19" cy="-105" rx="153.27" ry="18"/>
<text text-anchor="middle" x="390.19" y="-101.3" font-family="Times,serif" font-size="14.00">1183844006 (../input/test.csv(0): Reuse)</text>
</g>
<!-- http://purl.org/dj/kaggle/where&#45;is&#45;my&#45;output&#45;file#261948054&#45;&gt;http://purl.org/dj/kaggle/where&#45;is&#45;my&#45;output&#45;file#1183844006 -->
<g id="edge3" class="edge">
<title>http://purl.org/dj/kaggle/where&#45;is&#45;my&#45;output&#45;file#261948054&#45;&gt;http://purl.org/dj/kaggle/where&#45;is&#45;my&#45;output&#45;file#1183844006</title>
<path fill="none" stroke="black" d="M390.19,-194.97C390.19,-178.38 390.19,-152.88 390.19,-133.43"/>
<polygon fill="black" stroke="black" points="393.69,-133.34 390.19,-123.34 386.69,-133.34 393.69,-133.34"/>
<text text-anchor="middle" x="413.69" y="-155.3" font-family="Times,serif" font-size="14.00">previous</text>
</g>
<!-- http://purl.org/dj/kaggle/where&#45;is&#45;my&#45;output&#45;file -->
<g id="node5" class="node">
<title>http://purl.org/dj/kaggle/where&#45;is&#45;my&#45;output&#45;file</title>
<ellipse fill="none" stroke="black" cx="1034.19" cy="-18" rx="94.78" ry="18"/>
<text text-anchor="middle" x="1034.19" y="-14.3" font-family="Times,serif" font-size="14.00">where&#45;is&#45;my&#45;output&#45;file</text>
</g>
<!-- http://purl.org/dj/python/lib/144966264&#45;&gt;http://purl.org/dj/kaggle/where&#45;is&#45;my&#45;output&#45;file -->
<g id="edge4" class="edge">
<title>http://purl.org/dj/python/lib/144966264&#45;&gt;http://purl.org/dj/kaggle/where&#45;is&#45;my&#45;output&#45;file</title>
<path fill="none" stroke="black" d="M187.88,-92.44C201.32,-90.56 215.15,-88.68 228.19,-87 356.42,-70.52 388.44,-65.7 517.19,-54 661.77,-40.86 829.51,-30.38 933.76,-24.42"/>
<polygon fill="black" stroke="black" points="934.18,-27.91 943.96,-23.84 933.78,-20.92 934.18,-27.91"/>
<text text-anchor="middle" x="540.69" y="-57.8" font-family="Times,serif" font-size="14.00">previous</text>
</g>
<!-- http://purl.org/dj/kaggle/where&#45;is&#45;my&#45;output&#45;file#80085334&#45;&gt;http://purl.org/dj/kaggle/where&#45;is&#45;my&#45;output&#45;file -->
<g id="edge5" class="edge">
<title>http://purl.org/dj/kaggle/where&#45;is&#45;my&#45;output&#45;file#80085334&#45;&gt;http://purl.org/dj/kaggle/where&#45;is&#45;my&#45;output&#45;file</title>
<path fill="none" stroke="black" d="M680.47,-87.16C694.62,-75.8 714.84,-61.55 735.19,-54 770.93,-40.74 863.04,-31.22 935.66,-25.49"/>
<polygon fill="black" stroke="black" points="936.07,-28.97 945.77,-24.71 935.53,-21.99 936.07,-28.97"/>
<text text-anchor="middle" x="758.69" y="-57.8" font-family="Times,serif" font-size="14.00">previous</text>
</g>
<!-- http://purl.org/dj/kaggle/where&#45;is&#45;my&#45;output&#45;file#1183844006&#45;&gt;http://purl.org/dj/kaggle/where&#45;is&#45;my&#45;output&#45;file -->
<g id="edge6" class="edge">
<title>http://purl.org/dj/kaggle/where&#45;is&#45;my&#45;output&#45;file#1183844006&#45;&gt;http://purl.org/dj/kaggle/where&#45;is&#45;my&#45;output&#45;file</title>
<path fill="none" stroke="black" d="M460.46,-88.93C513.92,-77.93 589.41,-63.35 656.19,-54 750.82,-40.75 859.52,-31.29 935.98,-25.56"/>
<polygon fill="black" stroke="black" points="936.37,-29.05 946.09,-24.82 935.85,-22.06 936.37,-29.05"/>
<text text-anchor="middle" x="679.69" y="-57.8" font-family="Times,serif" font-size="14.00">previous</text>
</g>
<!-- http://purl.org/dj/kaggle/where&#45;is&#45;my&#45;output&#45;file#1250231974 -->
<g id="node6" class="node">
<title>http://purl.org/dj/kaggle/where&#45;is&#45;my&#45;output&#45;file#1250231974</title>
<ellipse fill="none" stroke="black" cx="614.19" cy="-495" rx="163.27" ry="18"/>
<text text-anchor="middle" x="614.19" y="-491.3" font-family="Times,serif" font-size="14.00">1250231974 (data_to_submit(0)$1: Reuse)</text>
</g>
<!-- http://purl.org/dj/kaggle/where&#45;is&#45;my&#45;output&#45;file#1250166437 -->
<g id="node7" class="node">
<title>http://purl.org/dj/kaggle/where&#45;is&#45;my&#45;output&#45;file#1250166437</title>
<ellipse fill="none" stroke="black" cx="614.19" cy="-408" rx="181.97" ry="18"/>
<text text-anchor="middle" x="614.19" y="-404.3" font-family="Times,serif" font-size="14.00">1250166437 (data_to_submit(0)$0: Preparation)</text>
</g>
<!-- http://purl.org/dj/kaggle/where&#45;is&#45;my&#45;output&#45;file#1250231974&#45;&gt;http://purl.org/dj/kaggle/where&#45;is&#45;my&#45;output&#45;file#1250166437 -->
<g id="edge7" class="edge">
<title>http://purl.org/dj/kaggle/where&#45;is&#45;my&#45;output&#45;file#1250231974&#45;&gt;http://purl.org/dj/kaggle/where&#45;is&#45;my&#45;output&#45;file#1250166437</title>
<path fill="none" stroke="black" d="M614.19,-476.8C614.19,-465.16 614.19,-449.55 614.19,-436.24"/>
<polygon fill="black" stroke="black" points="617.69,-436.18 614.19,-426.18 610.69,-436.18 617.69,-436.18"/>
<text text-anchor="middle" x="637.69" y="-447.8" font-family="Times,serif" font-size="14.00">previous</text>
</g>
<!-- http://purl.org/dj/kaggle/where&#45;is&#45;my&#45;output&#45;file#1250166437&#45;&gt;http://purl.org/dj/python/lib/144966264 -->
<g id="edge8" class="edge">
<title>http://purl.org/dj/kaggle/where&#45;is&#45;my&#45;output&#45;file#1250166437&#45;&gt;http://purl.org/dj/python/lib/144966264</title>
<path fill="none" stroke="black" d="M455.41,-399.09C396.09,-390.15 330.5,-372.64 278.19,-339 197.38,-287.04 142.63,-181.71 120.38,-132.48"/>
<polygon fill="black" stroke="black" points="123.49,-130.87 116.24,-123.14 117.09,-133.7 123.49,-130.87"/>
<text text-anchor="middle" x="239.69" y="-263.3" font-family="Times,serif" font-size="14.00">previous</text>
</g>
<!-- http://purl.org/dj/kaggle/where&#45;is&#45;my&#45;output&#45;file#1250166437&#45;&gt;http://purl.org/dj/kaggle/where&#45;is&#45;my&#45;output&#45;file#80085334 -->
<g id="edge9" class="edge">
<title>http://purl.org/dj/kaggle/where&#45;is&#45;my&#45;output&#45;file#1250166437&#45;&gt;http://purl.org/dj/kaggle/where&#45;is&#45;my&#45;output&#45;file#80085334</title>
<path fill="none" stroke="black" d="M603.52,-389.83C586.98,-361.21 557.87,-301.67 566.19,-249 574.06,-199.16 569.54,-180.3 601.19,-141 605.26,-135.95 610.27,-131.47 615.65,-127.55"/>
<polygon fill="black" stroke="black" points="617.88,-130.27 624.31,-121.85 614.03,-124.43 617.88,-130.27"/>
<text text-anchor="middle" x="589.69" y="-263.3" font-family="Times,serif" font-size="14.00">previous</text>
</g>
<!-- http://purl.org/dj/kaggle/where&#45;is&#45;my&#45;output&#45;file#29687986 -->
<g id="node8" class="node">
<title>http://purl.org/dj/kaggle/where&#45;is&#45;my&#45;output&#45;file#29687986</title>
<ellipse fill="none" stroke="black" cx="705.19" cy="-159" rx="94.78" ry="18"/>
<text text-anchor="middle" x="705.19" y="-155.3" font-family="Times,serif" font-size="14.00">29687986 (0(0): Reuse)</text>
</g>
<!-- http://purl.org/dj/kaggle/where&#45;is&#45;my&#45;output&#45;file#1250166437&#45;&gt;http://purl.org/dj/kaggle/where&#45;is&#45;my&#45;output&#45;file#29687986 -->
<g id="edge10" class="edge">
<title>http://purl.org/dj/kaggle/where&#45;is&#45;my&#45;output&#45;file#1250166437&#45;&gt;http://purl.org/dj/kaggle/where&#45;is&#45;my&#45;output&#45;file#29687986</title>
<path fill="none" stroke="black" d="M611.93,-389.84C608.75,-359.67 605.64,-295.91 628.19,-249 640.24,-223.93 661.26,-200.35 678.29,-183.77"/>
<polygon fill="black" stroke="black" points="680.94,-186.08 685.79,-176.67 676.12,-181 680.94,-186.08"/>
<text text-anchor="middle" x="636.69" y="-317.3" font-family="Times,serif" font-size="14.00">previous</text>
</g>
<!-- http://purl.org/dj/kaggle/where&#45;is&#45;my&#45;output&#45;file#262013591 -->
<g id="node9" class="node">
<title>http://purl.org/dj/kaggle/where&#45;is&#45;my&#45;output&#45;file#262013591</title>
<ellipse fill="none" stroke="black" cx="403.19" cy="-321" rx="116.18" ry="18"/>
<text text-anchor="middle" x="403.19" y="-317.3" font-family="Times,serif" font-size="14.00">262013591 (test(0)$1: Reuse)</text>
</g>
<!-- http://purl.org/dj/kaggle/where&#45;is&#45;my&#45;output&#45;file#1250166437&#45;&gt;http://purl.org/dj/kaggle/where&#45;is&#45;my&#45;output&#45;file#262013591 -->
<g id="edge11" class="edge">
<title>http://purl.org/dj/kaggle/where&#45;is&#45;my&#45;output&#45;file#1250166437&#45;&gt;http://purl.org/dj/kaggle/where&#45;is&#45;my&#45;output&#45;file#262013591</title>
<path fill="none" stroke="black" d="M547.76,-391.23C529.14,-385.98 509.11,-379.51 491.19,-372 472.77,-364.28 453.35,-353.55 437.46,-344.02"/>
<polygon fill="black" stroke="black" points="438.9,-340.79 428.54,-338.57 435.25,-346.77 438.9,-340.79"/>
<text text-anchor="middle" x="514.69" y="-360.8" font-family="Times,serif" font-size="14.00">previous</text>
</g>
<!-- http://purl.org/dj/kaggle/where&#45;is&#45;my&#45;output&#45;file#29950131 -->
<g id="node10" class="node">
<title>http://purl.org/dj/kaggle/where&#45;is&#45;my&#45;output&#45;file#29950131</title>
<ellipse fill="none" stroke="black" cx="724.19" cy="-267" rx="94.78" ry="18"/>
<text text-anchor="middle" x="724.19" y="-263.3" font-family="Times,serif" font-size="14.00">29950131 (1(0): Reuse)</text>
</g>
<!-- http://purl.org/dj/kaggle/where&#45;is&#45;my&#45;output&#45;file#1250166437&#45;&gt;http://purl.org/dj/kaggle/where&#45;is&#45;my&#45;output&#45;file#29950131 -->
<g id="edge12" class="edge">
<title>http://purl.org/dj/kaggle/where&#45;is&#45;my&#45;output&#45;file#1250166437&#45;&gt;http://purl.org/dj/kaggle/where&#45;is&#45;my&#45;output&#45;file#29950131</title>
<path fill="none" stroke="black" d="M627.68,-389.96C646.81,-365.78 681.97,-321.35 704.15,-293.32"/>
<polygon fill="black" stroke="black" points="707.13,-295.2 710.59,-285.18 701.64,-290.85 707.13,-295.2"/>
<text text-anchor="middle" x="676.69" y="-360.8" font-family="Times,serif" font-size="14.00">previous</text>
</g>
<!-- http://purl.org/dj/kaggle/where&#45;is&#45;my&#45;output&#45;file#673514711 -->
<g id="node11" class="node">
<title>http://purl.org/dj/kaggle/where&#45;is&#45;my&#45;output&#45;file#673514711</title>
<ellipse fill="none" stroke="black" cx="962.19" cy="-267" rx="137.58" ry="18"/>
<text text-anchor="middle" x="962.19" y="-263.3" font-family="Times,serif" font-size="14.00">673514711 (PassengerId(0): Reuse)</text>
</g>
<!-- http://purl.org/dj/kaggle/where&#45;is&#45;my&#45;output&#45;file#1250166437&#45;&gt;http://purl.org/dj/kaggle/where&#45;is&#45;my&#45;output&#45;file#673514711 -->
<g id="edge13" class="edge">
<title>http://purl.org/dj/kaggle/where&#45;is&#45;my&#45;output&#45;file#1250166437&#45;&gt;http://purl.org/dj/kaggle/where&#45;is&#45;my&#45;output&#45;file#673514711</title>
<path fill="none" stroke="black" d="M657.26,-390.37C672.15,-384.6 688.91,-378.05 704.19,-372 776.9,-343.21 860.84,-309.23 912.73,-288.15"/>
<polygon fill="black" stroke="black" points="914.09,-291.37 922.03,-284.37 911.45,-284.89 914.09,-291.37"/>
<text text-anchor="middle" x="763.69" y="-360.8" font-family="Times,serif" font-size="14.00">previous</text>
</g>
<!-- http://purl.org/dj/kaggle/where&#45;is&#45;my&#45;output&#45;file#437060570 -->
<g id="node12" class="node">
<title>http://purl.org/dj/kaggle/where&#45;is&#45;my&#45;output&#45;file#437060570</title>
<ellipse fill="none" stroke="black" cx="1115.19" cy="-159" rx="126.98" ry="18"/>
<text text-anchor="middle" x="1115.19" y="-155.3" font-family="Times,serif" font-size="14.00">437060570 (Survived(0): Reuse)</text>
</g>
<!-- http://purl.org/dj/kaggle/where&#45;is&#45;my&#45;output&#45;file#1250166437&#45;&gt;http://purl.org/dj/kaggle/where&#45;is&#45;my&#45;output&#45;file#437060570 -->
<g id="edge14" class="edge">
<title>http://purl.org/dj/kaggle/where&#45;is&#45;my&#45;output&#45;file#1250166437&#45;&gt;http://purl.org/dj/kaggle/where&#45;is&#45;my&#45;output&#45;file#437060570</title>
<path fill="none" stroke="black" d="M727.32,-393.87C855.66,-376.47 1053.39,-341.25 1101.19,-285 1124.04,-258.12 1123.62,-215.38 1120.21,-187.51"/>
<polygon fill="black" stroke="black" points="1123.62,-186.67 1118.74,-177.27 1116.69,-187.66 1123.62,-186.67"/>
<text text-anchor="middle" x="1100.69" y="-317.3" font-family="Times,serif" font-size="14.00">previous</text>
</g>
<!-- http://purl.org/dj/kaggle/where&#45;is&#45;my&#45;output&#45;file#29687986&#45;&gt;http://purl.org/dj/kaggle/where&#45;is&#45;my&#45;output&#45;file -->
<g id="edge15" class="edge">
<title>http://purl.org/dj/kaggle/where&#45;is&#45;my&#45;output&#45;file#29687986&#45;&gt;http://purl.org/dj/kaggle/where&#45;is&#45;my&#45;output&#45;file</title>
<path fill="none" stroke="black" d="M737.59,-142.07C747.98,-136.5 759.33,-129.9 769.19,-123 809.91,-94.51 811.48,-73.52 857.19,-54 884.25,-42.44 915.28,-34.65 943.72,-29.43"/>
<polygon fill="black" stroke="black" points="944.42,-32.86 953.66,-27.68 943.21,-25.96 944.42,-32.86"/>
<text text-anchor="middle" x="833.69" y="-101.3" font-family="Times,serif" font-size="14.00">previous</text>
</g>
<!-- http://purl.org/dj/kaggle/where&#45;is&#45;my&#45;output&#45;file#262013591&#45;&gt;http://purl.org/dj/kaggle/where&#45;is&#45;my&#45;output&#45;file#261948054 -->
<g id="edge16" class="edge">
<title>http://purl.org/dj/kaggle/where&#45;is&#45;my&#45;output&#45;file#262013591&#45;&gt;http://purl.org/dj/kaggle/where&#45;is&#45;my&#45;output&#45;file#261948054</title>
<path fill="none" stroke="black" d="M401.1,-302.97C399.07,-286.38 395.94,-260.88 393.55,-241.43"/>
<polygon fill="black" stroke="black" points="397.01,-240.84 392.32,-231.34 390.06,-241.69 397.01,-240.84"/>
<text text-anchor="middle" x="422.69" y="-263.3" font-family="Times,serif" font-size="14.00">previous</text>
</g>
<!-- http://purl.org/dj/kaggle/where&#45;is&#45;my&#45;output&#45;file#29950131&#45;&gt;http://purl.org/dj/kaggle/where&#45;is&#45;my&#45;output&#45;file -->
<g id="edge17" class="edge">
<title>http://purl.org/dj/kaggle/where&#45;is&#45;my&#45;output&#45;file#29950131&#45;&gt;http://purl.org/dj/kaggle/where&#45;is&#45;my&#45;output&#45;file</title>
<path fill="none" stroke="black" d="M741.8,-249.15C781.44,-211.67 881.47,-119.52 974.19,-54 980.84,-49.3 988.15,-44.65 995.32,-40.34"/>
<polygon fill="black" stroke="black" points="997.4,-43.18 1004.25,-35.1 993.86,-37.14 997.4,-43.18"/>
<text text-anchor="middle" x="885.69" y="-155.3" font-family="Times,serif" font-size="14.00">previous</text>
</g>
<!-- http://purl.org/dj/kaggle/where&#45;is&#45;my&#45;output&#45;file#673514711&#45;&gt;http://purl.org/dj/kaggle/where&#45;is&#45;my&#45;output&#45;file -->
<g id="edge18" class="edge">
<title>http://purl.org/dj/kaggle/where&#45;is&#45;my&#45;output&#45;file#673514711&#45;&gt;http://purl.org/dj/kaggle/where&#45;is&#45;my&#45;output&#45;file</title>
<path fill="none" stroke="black" d="M952.28,-248.83C939.59,-224.57 920.53,-178.98 932.19,-141 945.91,-96.34 959.63,-88.45 991.19,-54 994.93,-49.92 999.16,-45.91 1003.47,-42.14"/>
<polygon fill="black" stroke="black" points="1005.8,-44.75 1011.23,-35.65 1001.31,-39.38 1005.8,-44.75"/>
<text text-anchor="middle" x="955.69" y="-155.3" font-family="Times,serif" font-size="14.00">previous</text>
</g>
<!-- http://purl.org/dj/kaggle/where&#45;is&#45;my&#45;output&#45;file#437060570&#45;&gt;http://purl.org/dj/kaggle/where&#45;is&#45;my&#45;output&#45;file -->
<g id="edge19" class="edge">
<title>http://purl.org/dj/kaggle/where&#45;is&#45;my&#45;output&#45;file#437060570&#45;&gt;http://purl.org/dj/kaggle/where&#45;is&#45;my&#45;output&#45;file</title>
<path fill="none" stroke="black" d="M1039.69,-144.53C1017.73,-138.99 997.84,-131.78 991.19,-123 972.92,-98.86 992.53,-65.83 1010.85,-43.53"/>
<polygon fill="black" stroke="black" points="1013.6,-45.7 1017.47,-35.83 1008.29,-41.13 1013.6,-45.7"/>
<text text-anchor="middle" x="1014.69" y="-101.3" font-family="Times,serif" font-size="14.00">previous</text>
</g>
<!-- http://purl.org/dj/kaggle/where&#45;is&#45;my&#45;output&#45;file#249824024 -->
<g id="node13" class="node">
<title>http://purl.org/dj/kaggle/where&#45;is&#45;my&#45;output&#45;file#249824024</title>
<ellipse fill="none" stroke="black" cx="1279.19" cy="-213" rx="136.48" ry="18"/>
<text text-anchor="middle" x="1279.19" y="-209.3" font-family="Times,serif" font-size="14.00">249824024 (print[2]: Visualisation)</text>
</g>
<!-- http://purl.org/dj/kaggle/where&#45;is&#45;my&#45;output&#45;file#164692489 -->
<g id="node14" class="node">
<title>http://purl.org/dj/kaggle/where&#45;is&#45;my&#45;output&#45;file#164692489</title>
<ellipse fill="none" stroke="black" cx="1156.19" cy="-105" rx="109.38" ry="18"/>
<text text-anchor="middle" x="1156.19" y="-101.3" font-family="Times,serif" font-size="14.00">164692489 (utf8(0): Reuse)</text>
</g>
<!-- http://purl.org/dj/kaggle/where&#45;is&#45;my&#45;output&#45;file#249824024&#45;&gt;http://purl.org/dj/kaggle/where&#45;is&#45;my&#45;output&#45;file#164692489 -->
<g id="edge20" class="edge">
<title>http://purl.org/dj/kaggle/where&#45;is&#45;my&#45;output&#45;file#249824024&#45;&gt;http://purl.org/dj/kaggle/where&#45;is&#45;my&#45;output&#45;file#164692489</title>
<path fill="none" stroke="black" d="M1276.54,-194.88C1273.23,-178.95 1266.07,-155.54 1251.19,-141 1244.12,-134.09 1235.57,-128.52 1226.53,-124.05"/>
<polygon fill="black" stroke="black" points="1227.93,-120.84 1217.37,-119.93 1225.05,-127.22 1227.93,-120.84"/>
<text text-anchor="middle" x="1295.69" y="-155.3" font-family="Times,serif" font-size="14.00">previous</text>
</g>
<!-- http://purl.org/dj/kaggle/where&#45;is&#45;my&#45;output&#45;file#164692489&#45;&gt;http://purl.org/dj/kaggle/where&#45;is&#45;my&#45;output&#45;file -->
<g id="edge21" class="edge">
<title>http://purl.org/dj/kaggle/where&#45;is&#45;my&#45;output&#45;file#164692489&#45;&gt;http://purl.org/dj/kaggle/where&#45;is&#45;my&#45;output&#45;file</title>
<path fill="none" stroke="black" d="M1132.38,-87.41C1113.48,-74.25 1086.89,-55.72 1066.15,-41.27"/>
<polygon fill="black" stroke="black" points="1068.15,-38.39 1057.94,-35.55 1064.15,-44.14 1068.15,-38.39"/>
<text text-anchor="middle" x="1126.69" y="-57.8" font-family="Times,serif" font-size="14.00">previous</text>
</g>
<!-- http://purl.org/dj/python/lib/111084090 -->
<g id="node15" class="node">
<title>http://purl.org/dj/python/lib/111084090</title>
<ellipse fill="none" stroke="black" cx="1393.19" cy="-105" rx="109.68" ry="18"/>
<text text-anchor="middle" x="1393.19" y="-101.3" font-family="Times,serif" font-size="14.00">111084090 (numpy: Reuse)</text>
</g>
<!-- http://purl.org/dj/python/lib/111084090&#45;&gt;http://purl.org/dj/kaggle/where&#45;is&#45;my&#45;output&#45;file -->
<g id="edge22" class="edge">
<title>http://purl.org/dj/python/lib/111084090&#45;&gt;http://purl.org/dj/kaggle/where&#45;is&#45;my&#45;output&#45;file</title>
<path fill="none" stroke="black" d="M1333.51,-89.87C1269.41,-74.69 1167.79,-50.63 1101.05,-34.83"/>
<polygon fill="black" stroke="black" points="1101.59,-31.36 1091.05,-32.46 1099.98,-38.17 1101.59,-31.36"/>
<text text-anchor="middle" x="1258.69" y="-57.8" font-family="Times,serif" font-size="14.00">previous</text>
</g>
<!-- http://purl.org/dj/kaggle/where&#45;is&#45;my&#45;output&#45;file#249561878 -->
<g id="node16" class="node">
<title>http://purl.org/dj/kaggle/where&#45;is&#45;my&#45;output&#45;file#249561878</title>
<ellipse fill="none" stroke="black" cx="1778.19" cy="-213" rx="136.48" ry="18"/>
<text text-anchor="middle" x="1778.19" y="-209.3" font-family="Times,serif" font-size="14.00">249561878 (print[0]: Visualisation)</text>
</g>
<!-- http://purl.org/dj/kaggle/where&#45;is&#45;my&#45;output&#45;file#806684048 -->
<g id="node17" class="node">
<title>http://purl.org/dj/kaggle/where&#45;is&#45;my&#45;output&#45;file#806684048</title>
<ellipse fill="none" stroke="black" cx="1663.19" cy="-105" rx="142.17" ry="18"/>
<text text-anchor="middle" x="1663.19" y="-101.3" font-family="Times,serif" font-size="14.00">806684048 (check_output(0): Reuse)</text>
</g>
<!-- http://purl.org/dj/kaggle/where&#45;is&#45;my&#45;output&#45;file#249561878&#45;&gt;http://purl.org/dj/kaggle/where&#45;is&#45;my&#45;output&#45;file#806684048 -->
<g id="edge23" class="edge">
<title>http://purl.org/dj/kaggle/where&#45;is&#45;my&#45;output&#45;file#249561878&#45;&gt;http://purl.org/dj/kaggle/where&#45;is&#45;my&#45;output&#45;file#806684048</title>
<path fill="none" stroke="black" d="M1759.71,-194.97C1740.6,-177.35 1710.6,-149.7 1689.11,-129.89"/>
<polygon fill="black" stroke="black" points="1691.35,-127.19 1681.62,-122.99 1686.6,-132.34 1691.35,-127.19"/>
<text text-anchor="middle" x="1761.69" y="-155.3" font-family="Times,serif" font-size="14.00">previous</text>
</g>
<!-- http://purl.org/dj/python/lib/397411402 -->
<g id="node18" class="node">
<title>http://purl.org/dj/python/lib/397411402</title>
<ellipse fill="none" stroke="black" cx="1947.19" cy="-105" rx="123.48" ry="18"/>
<text text-anchor="middle" x="1947.19" y="-101.3" font-family="Times,serif" font-size="14.00">397411402 (subprocess: Reuse)</text>
</g>
<!-- http://purl.org/dj/kaggle/where&#45;is&#45;my&#45;output&#45;file#249561878&#45;&gt;http://purl.org/dj/python/lib/397411402 -->
<g id="edge24" class="edge">
<title>http://purl.org/dj/kaggle/where&#45;is&#45;my&#45;output&#45;file#249561878&#45;&gt;http://purl.org/dj/python/lib/397411402</title>
<path fill="none" stroke="black" d="M1804.97,-195.2C1833.89,-177.06 1880.1,-148.08 1911.96,-128.1"/>
<polygon fill="black" stroke="black" points="1913.93,-131 1920.54,-122.72 1910.21,-125.07 1913.93,-131"/>
<text text-anchor="middle" x="1911.69" y="-155.3" font-family="Times,serif" font-size="14.00">previous</text>
</g>
<!-- http://purl.org/dj/kaggle/where&#45;is&#45;my&#45;output&#45;file#806684048&#45;&gt;http://purl.org/dj/kaggle/where&#45;is&#45;my&#45;output&#45;file -->
<g id="edge25" class="edge">
<title>http://purl.org/dj/kaggle/where&#45;is&#45;my&#45;output&#45;file#806684048&#45;&gt;http://purl.org/dj/kaggle/where&#45;is&#45;my&#45;output&#45;file</title>
<path fill="none" stroke="black" d="M1569.7,-91.37C1447.83,-74.9 1236.42,-46.33 1118.99,-30.46"/>
<polygon fill="black" stroke="black" points="1119.34,-26.98 1108.96,-29.1 1118.4,-33.91 1119.34,-26.98"/>
<text text-anchor="middle" x="1410.69" y="-57.8" font-family="Times,serif" font-size="14.00">previous</text>
</g>
<!-- http://purl.org/dj/python/lib/397411402&#45;&gt;http://purl.org/dj/kaggle/where&#45;is&#45;my&#45;output&#45;file -->
<g id="edge26" class="edge">
<title>http://purl.org/dj/python/lib/397411402&#45;&gt;http://purl.org/dj/kaggle/where&#45;is&#45;my&#45;output&#45;file</title>
<path fill="none" stroke="black" d="M1859.61,-92.31C1844.48,-90.43 1828.89,-88.58 1814.19,-87 1568.71,-60.55 1278.9,-37.4 1131.25,-26.18"/>
<polygon fill="black" stroke="black" points="1131.11,-22.66 1120.87,-25.4 1130.58,-29.64 1131.11,-22.66"/>
<text text-anchor="middle" x="1645.69" y="-57.8" font-family="Times,serif" font-size="14.00">previous</text>
</g>
<!-- http://purl.org/dj/kaggle/where&#45;is&#45;my&#45;output&#45;file#1437534077 -->
<g id="node19" class="node">
<title>http://purl.org/dj/kaggle/where&#45;is&#45;my&#45;output&#45;file#1437534077</title>
<ellipse fill="none" stroke="black" cx="2254.19" cy="-105" rx="165.17" ry="18"/>
<text text-anchor="middle" x="2254.19" y="-101.3" font-family="Times,serif" font-size="14.00">1437534077 (csv_to_submit.csv(0): Reuse)</text>
</g>
<!-- http://purl.org/dj/kaggle/where&#45;is&#45;my&#45;output&#45;file#1437534077&#45;&gt;http://purl.org/dj/kaggle/where&#45;is&#45;my&#45;output&#45;file -->
<g id="edge27" class="edge">
<title>http://purl.org/dj/kaggle/where&#45;is&#45;my&#45;output&#45;file#1437534077&#45;&gt;http://purl.org/dj/kaggle/where&#45;is&#45;my&#45;output&#45;file</title>
<path fill="none" stroke="black" d="M2136.55,-92.32C2117.38,-90.49 2097.74,-88.65 2079.19,-87 1898.87,-70.91 1853.81,-66.29 1673.19,-54 1483.24,-41.08 1261.28,-29.77 1135.26,-23.71"/>
<polygon fill="black" stroke="black" points="1135.4,-20.21 1125.24,-23.23 1135.06,-27.21 1135.4,-20.21"/>
<text text-anchor="middle" x="1893.69" y="-57.8" font-family="Times,serif" font-size="14.00">previous</text>
</g>
<!-- http://purl.org/dj/kaggle/where&#45;is&#45;my&#45;output&#45;file#82575712 -->
<g id="node20" class="node">
<title>http://purl.org/dj/kaggle/where&#45;is&#45;my&#45;output&#45;file#82575712</title>
<ellipse fill="none" stroke="black" cx="2537.19" cy="-105" rx="99.38" ry="18"/>
<text text-anchor="middle" x="2537.19" y="-101.3" font-family="Times,serif" font-size="14.00">82575712 (np(0): Reuse)</text>
</g>
<!-- http://purl.org/dj/kaggle/where&#45;is&#45;my&#45;output&#45;file#82575712&#45;&gt;http://purl.org/dj/kaggle/where&#45;is&#45;my&#45;output&#45;file -->
<g id="edge28" class="edge">
<title>http://purl.org/dj/kaggle/where&#45;is&#45;my&#45;output&#45;file#82575712&#45;&gt;http://purl.org/dj/kaggle/where&#45;is&#45;my&#45;output&#45;file</title>
<path fill="none" stroke="black" d="M2467.24,-92.14C2454.29,-90.21 2440.85,-88.4 2428.19,-87 1948.52,-34.09 1371.47,-22.35 1138.88,-19.74"/>
<polygon fill="black" stroke="black" points="1138.78,-16.24 1128.74,-19.63 1138.7,-23.24 1138.78,-16.24"/>
<text text-anchor="middle" x="2263.69" y="-57.8" font-family="Times,serif" font-size="14.00">previous</text>
</g>
<!-- http://purl.org/dj/kaggle/where&#45;is&#45;my&#45;output&#45;file#249692951 -->
<g id="node21" class="node">
<title>http://purl.org/dj/kaggle/where&#45;is&#45;my&#45;output&#45;file#249692951</title>
<ellipse fill="none" stroke="black" cx="3042.19" cy="-213" rx="136.48" ry="18"/>
<text text-anchor="middle" x="3042.19" y="-209.3" font-family="Times,serif" font-size="14.00">249692951 (print[1]: Visualisation)</text>
</g>
<!-- http://purl.org/dj/kaggle/where&#45;is&#45;my&#45;output&#45;file#1683888733 -->
<g id="node22" class="node">
<title>http://purl.org/dj/kaggle/where&#45;is&#45;my&#45;output&#45;file#1683888733</title>
<ellipse fill="none" stroke="black" cx="3042.19" cy="-105" rx="387.23" ry="18"/>
<text text-anchor="middle" x="3042.19" y="-101.3" font-family="Times,serif" font-size="14.00">1683888733 ([&lt;_ast.Constant object at 0x12f85ef70&gt;, &lt;_ast.Constant object at 0x12f85eee0&gt;](0): Reuse)</text>
</g>
<!-- http://purl.org/dj/kaggle/where&#45;is&#45;my&#45;output&#45;file#249692951&#45;&gt;http://purl.org/dj/kaggle/where&#45;is&#45;my&#45;output&#45;file#1683888733 -->
<g id="edge29" class="edge">
<title>http://purl.org/dj/kaggle/where&#45;is&#45;my&#45;output&#45;file#249692951&#45;&gt;http://purl.org/dj/kaggle/where&#45;is&#45;my&#45;output&#45;file#1683888733</title>
<path fill="none" stroke="black" d="M3042.19,-194.97C3042.19,-178.38 3042.19,-152.88 3042.19,-133.43"/>
<polygon fill="black" stroke="black" points="3045.69,-133.34 3042.19,-123.34 3038.69,-133.34 3045.69,-133.34"/>
<text text-anchor="middle" x="3065.69" y="-155.3" font-family="Times,serif" font-size="14.00">previous</text>
</g>
<!-- http://purl.org/dj/kaggle/where&#45;is&#45;my&#45;output&#45;file#1683888733&#45;&gt;http://purl.org/dj/kaggle/where&#45;is&#45;my&#45;output&#45;file -->
<g id="edge30" class="edge">
<title>http://purl.org/dj/kaggle/where&#45;is&#45;my&#45;output&#45;file#1683888733&#45;&gt;http://purl.org/dj/kaggle/where&#45;is&#45;my&#45;output&#45;file</title>
<path fill="none" stroke="black" d="M2852.1,-89.31C2700.34,-78.07 2482.25,-63.02 2291.19,-54 1863.74,-33.83 1353.94,-24.03 1138.49,-20.54"/>
<polygon fill="black" stroke="black" points="1138.51,-17.04 1128.45,-20.38 1138.4,-24.04 1138.51,-17.04"/>
<text text-anchor="middle" x="2562.69" y="-57.8" font-family="Times,serif" font-size="14.00">previous</text>
</g>
</g>
</svg>
