<?xml version="1.0" encoding="UTF-8" standalone="no"?>
<!DOCTYPE svg PUBLIC "-//W3C//DTD SVG 1.1//EN"
 "http://www.w3.org/Graphics/SVG/1.1/DTD/svg11.dtd">
<!-- Generated by graphviz version 2.47.1 (20210417.1919)
 -->
<!-- Pages: 1 -->
<svg width="2633pt" height="758pt"
 viewBox="0.00 0.00 2633.09 758.00" xmlns="http://www.w3.org/2000/svg" xmlns:xlink="http://www.w3.org/1999/xlink">
<g id="graph0" class="graph" transform="scale(1 1) rotate(0) translate(4 754)">
<polygon fill="white" stroke="transparent" points="-4,4 -4,-754 2629.09,-754 2629.09,4 -4,4"/>
<!-- http://purl.org/dj/kaggle/where&#45;is&#45;my&#45;output&#45;file#361241641 -->
<g id="node1" class="node">
<title>http://purl.org/dj/kaggle/where&#45;is&#45;my&#45;output&#45;file#361241641</title>
<ellipse fill="none" stroke="black" cx="2038.09" cy="-159" rx="408.63" ry="18"/>
<text text-anchor="middle" x="2038.09" y="-155.3" font-family="Times,serif" font-size="14.00">361241641 ([&lt;_ast.Constant object at 0x7fd4c048eaf0&gt;, &lt;_ast.Constant object at 0x7fd4c048e880&gt;](0): Reuse)</text>
</g>
<!-- http://purl.org/dj/kaggle/where&#45;is&#45;my&#45;output&#45;file -->
<g id="node2" class="node">
<title>http://purl.org/dj/kaggle/where&#45;is&#45;my&#45;output&#45;file</title>
<ellipse fill="none" stroke="black" cx="1156.09" cy="-18" rx="209.86" ry="18"/>
<text text-anchor="middle" x="1156.09" y="-14.3" font-family="Times,serif" font-size="14.00">where&#45;is&#45;my&#45;output&#45;file (where&#45;is&#45;my&#45;output&#45;file.ipynb)</text>
</g>
<!-- http://purl.org/dj/kaggle/where&#45;is&#45;my&#45;output&#45;file#361241641&#45;&gt;http://purl.org/dj/kaggle/where&#45;is&#45;my&#45;output&#45;file -->
<g id="edge1" class="edge">
<title>http://purl.org/dj/kaggle/where&#45;is&#45;my&#45;output&#45;file#361241641&#45;&gt;http://purl.org/dj/kaggle/where&#45;is&#45;my&#45;output&#45;file</title>
<path fill="none" stroke="black" d="M1934.22,-141.58C1804.38,-121.06 1575.31,-84.88 1379.09,-54 1341.05,-48.01 1299.35,-41.47 1262.42,-35.67"/>
<polygon fill="black" stroke="black" points="1262.55,-32.15 1252.13,-34.06 1261.47,-39.06 1262.55,-32.15"/>
<text text-anchor="middle" x="1840.09" y="-101.3" font-family="Times,serif" font-size="14.00">appearsIn ()</text>
</g>
<!-- http://purl.org/dj/kaggle/where&#45;is&#45;my&#45;output&#45;file#1250231974 -->
<g id="node3" class="node">
<title>http://purl.org/dj/kaggle/where&#45;is&#45;my&#45;output&#45;file#1250231974</title>
<ellipse fill="none" stroke="black" cx="263.09" cy="-732" rx="163.27" ry="18"/>
<text text-anchor="middle" x="263.09" y="-728.3" font-family="Times,serif" font-size="14.00">1250231974 (data_to_submit(0)$1: Reuse)</text>
</g>
<!-- http://purl.org/dj/kaggle/where&#45;is&#45;my&#45;output&#45;file#1437534077 -->
<g id="node4" class="node">
<title>http://purl.org/dj/kaggle/where&#45;is&#45;my&#45;output&#45;file#1437534077</title>
<ellipse fill="none" stroke="black" cx="165.09" cy="-591" rx="165.17" ry="18"/>
<text text-anchor="middle" x="165.09" y="-587.3" font-family="Times,serif" font-size="14.00">1437534077 (csv_to_submit.csv(0): Reuse)</text>
</g>
<!-- http://purl.org/dj/kaggle/where&#45;is&#45;my&#45;output&#45;file#1250231974&#45;&gt;http://purl.org/dj/kaggle/where&#45;is&#45;my&#45;output&#45;file#1437534077 -->
<g id="edge2" class="edge">
<title>http://purl.org/dj/kaggle/where&#45;is&#45;my&#45;output&#45;file#1250231974&#45;&gt;http://purl.org/dj/kaggle/where&#45;is&#45;my&#45;output&#45;file#1437534077</title>
<path fill="none" stroke="black" d="M251.07,-713.96C234.1,-689.88 202.97,-645.74 183.19,-617.68"/>
<polygon fill="black" stroke="black" points="185.82,-615.34 177.2,-609.18 180.1,-619.37 185.82,-615.34"/>
<text text-anchor="middle" x="263.59" y="-684.8" font-family="Times,serif" font-size="14.00">to_csv ()</text>
</g>
<!-- http://purl.org/dj/kaggle/where&#45;is&#45;my&#45;output&#45;file#1250166437 -->
<g id="node5" class="node">
<title>http://purl.org/dj/kaggle/where&#45;is&#45;my&#45;output&#45;file#1250166437</title>
<ellipse fill="none" stroke="black" cx="498.09" cy="-645" rx="181.97" ry="18"/>
<text text-anchor="middle" x="498.09" y="-641.3" font-family="Times,serif" font-size="14.00">1250166437 (data_to_submit(0)$0: Preparation)</text>
</g>
<!-- http://purl.org/dj/kaggle/where&#45;is&#45;my&#45;output&#45;file#1250231974&#45;&gt;http://purl.org/dj/kaggle/where&#45;is&#45;my&#45;output&#45;file#1250166437 -->
<g id="edge3" class="edge">
<title>http://purl.org/dj/kaggle/where&#45;is&#45;my&#45;output&#45;file#1250231974&#45;&gt;http://purl.org/dj/kaggle/where&#45;is&#45;my&#45;output&#45;file#1250166437</title>
<path fill="none" stroke="black" d="M308.4,-714.61C346.8,-700.72 401.99,-680.76 442.95,-665.94"/>
<polygon fill="black" stroke="black" points="444.3,-669.18 452.51,-662.48 441.92,-662.59 444.3,-669.18"/>
<text text-anchor="middle" x="419.59" y="-684.8" font-family="Times,serif" font-size="14.00">to_csv ()</text>
</g>
<!-- http://purl.org/dj/kaggle/where&#45;is&#45;my&#45;output&#45;file#1437534077&#45;&gt;http://purl.org/dj/kaggle/where&#45;is&#45;my&#45;output&#45;file -->
<g id="edge4" class="edge">
<title>http://purl.org/dj/kaggle/where&#45;is&#45;my&#45;output&#45;file#1437534077&#45;&gt;http://purl.org/dj/kaggle/where&#45;is&#45;my&#45;output&#45;file</title>
<path fill="none" stroke="black" d="M172.32,-572.71C180.32,-552.01 192.09,-516.09 192.09,-484 192.09,-484 192.09,-484 192.09,-104 192.09,-18.4 293.49,-67.11 378.09,-54 483.01,-37.74 752.04,-28.25 944.32,-23.35"/>
<polygon fill="black" stroke="black" points="944.65,-26.85 954.56,-23.1 944.48,-19.85 944.65,-26.85"/>
<text text-anchor="middle" x="225.09" y="-317.3" font-family="Times,serif" font-size="14.00">appearsIn ()</text>
</g>
<!-- http://purl.org/dj/kaggle/where&#45;is&#45;my&#45;output&#45;file#673514711 -->
<g id="node6" class="node">
<title>http://purl.org/dj/kaggle/where&#45;is&#45;my&#45;output&#45;file#673514711</title>
<ellipse fill="none" stroke="black" cx="498.09" cy="-483" rx="137.58" ry="18"/>
<text text-anchor="middle" x="498.09" y="-479.3" font-family="Times,serif" font-size="14.00">673514711 (PassengerId(0): Reuse)</text>
</g>
<!-- http://purl.org/dj/kaggle/where&#45;is&#45;my&#45;output&#45;file#1250166437&#45;&gt;http://purl.org/dj/kaggle/where&#45;is&#45;my&#45;output&#45;file#673514711 -->
<g id="edge5" class="edge">
<title>http://purl.org/dj/kaggle/where&#45;is&#45;my&#45;output&#45;file#1250166437&#45;&gt;http://purl.org/dj/kaggle/where&#45;is&#45;my&#45;output&#45;file#673514711</title>
<path fill="none" stroke="black" d="M498.09,-626.88C498.09,-599.35 498.09,-545.01 498.09,-511.85"/>
<polygon fill="black" stroke="black" points="501.59,-511.48 498.09,-501.48 494.59,-511.48 501.59,-511.48"/>
<text text-anchor="middle" x="535.09" y="-587.3" font-family="Times,serif" font-size="14.00">DataFrame ()</text>
</g>
<!-- http://purl.org/dj/kaggle/where&#45;is&#45;my&#45;output&#45;file#80085334 -->
<g id="node7" class="node">
<title>http://purl.org/dj/kaggle/where&#45;is&#45;my&#45;output&#45;file#80085334</title>
<ellipse fill="none" stroke="black" cx="651.09" cy="-213" rx="99.38" ry="18"/>
<text text-anchor="middle" x="651.09" y="-209.3" font-family="Times,serif" font-size="14.00">80085334 (pd(0): Reuse)</text>
</g>
<!-- http://purl.org/dj/kaggle/where&#45;is&#45;my&#45;output&#45;file#1250166437&#45;&gt;http://purl.org/dj/kaggle/where&#45;is&#45;my&#45;output&#45;file#80085334 -->
<g id="edge6" class="edge">
<title>http://purl.org/dj/kaggle/where&#45;is&#45;my&#45;output&#45;file#1250166437&#45;&gt;http://purl.org/dj/kaggle/where&#45;is&#45;my&#45;output&#45;file#80085334</title>
<path fill="none" stroke="black" d="M559.43,-627.92C602,-612.64 651.09,-584.86 651.09,-538 651.09,-538 651.09,-538 651.09,-320 651.09,-293.24 651.09,-262.67 651.09,-241.26"/>
<polygon fill="black" stroke="black" points="654.59,-241.26 651.09,-231.26 647.59,-241.26 654.59,-241.26"/>
<text text-anchor="middle" x="688.09" y="-425.3" font-family="Times,serif" font-size="14.00">DataFrame ()</text>
</g>
<!-- http://purl.org/dj/kaggle/where&#45;is&#45;my&#45;output&#45;file#262079128 -->
<g id="node8" class="node">
<title>http://purl.org/dj/kaggle/where&#45;is&#45;my&#45;output&#45;file#262079128</title>
<ellipse fill="none" stroke="black" cx="1049.09" cy="-537" rx="116.18" ry="18"/>
<text text-anchor="middle" x="1049.09" y="-533.3" font-family="Times,serif" font-size="14.00">262079128 (test(0)$2: Reuse)</text>
</g>
<!-- http://purl.org/dj/kaggle/where&#45;is&#45;my&#45;output&#45;file#1250166437&#45;&gt;http://purl.org/dj/kaggle/where&#45;is&#45;my&#45;output&#45;file#262079128 -->
<g id="edge7" class="edge">
<title>http://purl.org/dj/kaggle/where&#45;is&#45;my&#45;output&#45;file#1250166437&#45;&gt;http://purl.org/dj/kaggle/where&#45;is&#45;my&#45;output&#45;file#262079128</title>
<path fill="none" stroke="black" d="M577.32,-628.76C681.76,-608.67 864.45,-573.52 969.21,-553.37"/>
<polygon fill="black" stroke="black" points="969.94,-556.79 979.09,-551.46 968.61,-549.92 969.94,-556.79"/>
<text text-anchor="middle" x="893.09" y="-587.3" font-family="Times,serif" font-size="14.00">DataFrame ()</text>
</g>
<!-- http://purl.org/dj/kaggle/where&#45;is&#45;my&#45;output&#45;file#437060570 -->
<g id="node9" class="node">
<title>http://purl.org/dj/kaggle/where&#45;is&#45;my&#45;output&#45;file#437060570</title>
<ellipse fill="none" stroke="black" cx="337.09" cy="-375" rx="126.98" ry="18"/>
<text text-anchor="middle" x="337.09" y="-371.3" font-family="Times,serif" font-size="14.00">437060570 (Survived(0): Reuse)</text>
</g>
<!-- http://purl.org/dj/kaggle/where&#45;is&#45;my&#45;output&#45;file#1250166437&#45;&gt;http://purl.org/dj/kaggle/where&#45;is&#45;my&#45;output&#45;file#437060570 -->
<g id="edge8" class="edge">
<title>http://purl.org/dj/kaggle/where&#45;is&#45;my&#45;output&#45;file#1250166437&#45;&gt;http://purl.org/dj/kaggle/where&#45;is&#45;my&#45;output&#45;file#437060570</title>
<path fill="none" stroke="black" d="M474.52,-627.14C442.75,-603.03 386.99,-555.56 359.09,-501 343.21,-469.96 338.56,-429.55 337.32,-403.2"/>
<polygon fill="black" stroke="black" points="340.81,-403.05 336.98,-393.17 333.82,-403.28 340.81,-403.05"/>
<text text-anchor="middle" x="433.09" y="-533.3" font-family="Times,serif" font-size="14.00">DataFrame ()</text>
</g>
<!-- http://purl.org/dj/kaggle/where&#45;is&#45;my&#45;output&#45;file#673514711&#45;&gt;http://purl.org/dj/kaggle/where&#45;is&#45;my&#45;output&#45;file -->
<g id="edge17" class="edge">
<title>http://purl.org/dj/kaggle/where&#45;is&#45;my&#45;output&#45;file#673514711&#45;&gt;http://purl.org/dj/kaggle/where&#45;is&#45;my&#45;output&#45;file</title>
<path fill="none" stroke="black" d="M493.09,-464.91C487.46,-444.1 479.09,-407.78 479.09,-376 479.09,-376 479.09,-376 479.09,-104 479.09,-56.29 528.13,-66.83 574.09,-54 641.26,-35.24 804.75,-26.54 941.41,-22.5"/>
<polygon fill="black" stroke="black" points="941.72,-25.99 951.61,-22.2 941.52,-18.99 941.72,-25.99"/>
<text text-anchor="middle" x="512.09" y="-263.3" font-family="Times,serif" font-size="14.00">appearsIn ()</text>
</g>
<!-- http://purl.org/dj/kaggle/where&#45;is&#45;my&#45;output&#45;file#80085334&#45;&gt;http://purl.org/dj/kaggle/where&#45;is&#45;my&#45;output&#45;file -->
<g id="edge18" class="edge">
<title>http://purl.org/dj/kaggle/where&#45;is&#45;my&#45;output&#45;file#80085334&#45;&gt;http://purl.org/dj/kaggle/where&#45;is&#45;my&#45;output&#45;file</title>
<path fill="none" stroke="black" d="M616.69,-196.04C570.87,-172.68 499.39,-127.54 534.09,-87 561.79,-54.63 789.11,-36.4 961,-27.13"/>
<polygon fill="black" stroke="black" points="961.4,-30.61 971.2,-26.59 961.03,-23.62 961.4,-30.61"/>
<text text-anchor="middle" x="567.09" y="-101.3" font-family="Times,serif" font-size="14.00">appearsIn ()</text>
</g>
<!-- http://purl.org/dj/python/lib/144966264 -->
<g id="node16" class="node">
<title>http://purl.org/dj/python/lib/144966264</title>
<ellipse fill="none" stroke="black" cx="718.09" cy="-105" rx="109.38" ry="18"/>
<text text-anchor="middle" x="718.09" y="-101.3" font-family="Times,serif" font-size="14.00">144966264 (pandas: Reuse)</text>
</g>
<!-- http://purl.org/dj/kaggle/where&#45;is&#45;my&#45;output&#45;file#80085334&#45;&gt;http://purl.org/dj/python/lib/144966264 -->
<g id="edge19" class="edge">
<title>http://purl.org/dj/kaggle/where&#45;is&#45;my&#45;output&#45;file#80085334&#45;&gt;http://purl.org/dj/python/lib/144966264</title>
<path fill="none" stroke="black" d="M644.9,-194.86C640.53,-179.56 637.04,-157.14 647.09,-141 650.51,-135.49 655.1,-130.82 660.29,-126.86"/>
<polygon fill="black" stroke="black" points="662.43,-129.64 668.87,-121.23 658.59,-123.79 662.43,-129.64"/>
<text text-anchor="middle" x="692.09" y="-155.3" font-family="Times,serif" font-size="14.00">assignedFrom ()</text>
</g>
<!-- http://purl.org/dj/kaggle/where&#45;is&#45;my&#45;output&#45;file#262013591 -->
<g id="node12" class="node">
<title>http://purl.org/dj/kaggle/where&#45;is&#45;my&#45;output&#45;file#262013591</title>
<ellipse fill="none" stroke="black" cx="1049.09" cy="-429" rx="116.18" ry="18"/>
<text text-anchor="middle" x="1049.09" y="-425.3" font-family="Times,serif" font-size="14.00">262013591 (test(0)$1: Reuse)</text>
</g>
<!-- http://purl.org/dj/kaggle/where&#45;is&#45;my&#45;output&#45;file#262079128&#45;&gt;http://purl.org/dj/kaggle/where&#45;is&#45;my&#45;output&#45;file#262013591 -->
<g id="edge20" class="edge">
<title>http://purl.org/dj/kaggle/where&#45;is&#45;my&#45;output&#45;file#262079128&#45;&gt;http://purl.org/dj/kaggle/where&#45;is&#45;my&#45;output&#45;file#262013591</title>
<path fill="none" stroke="black" d="M1049.09,-518.97C1049.09,-502.38 1049.09,-476.88 1049.09,-457.43"/>
<polygon fill="black" stroke="black" points="1052.59,-457.34 1049.09,-447.34 1045.59,-457.34 1052.59,-457.34"/>
<text text-anchor="middle" x="1094.09" y="-479.3" font-family="Times,serif" font-size="14.00">assignedFrom ()</text>
</g>
<!-- http://purl.org/dj/kaggle/where&#45;is&#45;my&#45;output&#45;file#29950131 -->
<g id="node17" class="node">
<title>http://purl.org/dj/kaggle/where&#45;is&#45;my&#45;output&#45;file#29950131</title>
<ellipse fill="none" stroke="black" cx="1312.09" cy="-267" rx="94.78" ry="18"/>
<text text-anchor="middle" x="1312.09" y="-263.3" font-family="Times,serif" font-size="14.00">29950131 (1(0): Reuse)</text>
</g>
<!-- http://purl.org/dj/kaggle/where&#45;is&#45;my&#45;output&#45;file#262079128&#45;&gt;http://purl.org/dj/kaggle/where&#45;is&#45;my&#45;output&#45;file#29950131 -->
<g id="edge21" class="edge">
<title>http://purl.org/dj/kaggle/where&#45;is&#45;my&#45;output&#45;file#262079128&#45;&gt;http://purl.org/dj/kaggle/where&#45;is&#45;my&#45;output&#45;file#29950131</title>
<path fill="none" stroke="black" d="M1105.56,-521.07C1118.65,-516.01 1131.99,-509.43 1143.09,-501 1219.2,-443.15 1275.94,-341.63 1299.75,-294.03"/>
<polygon fill="black" stroke="black" points="1302.92,-295.51 1304.2,-284.99 1296.64,-292.41 1302.92,-295.51"/>
<text text-anchor="middle" x="1272.09" y="-425.3" font-family="Times,serif" font-size="14.00">assignedFrom ()</text>
</g>
<!-- http://purl.org/dj/kaggle/where&#45;is&#45;my&#45;output&#45;file#437060570&#45;&gt;http://purl.org/dj/kaggle/where&#45;is&#45;my&#45;output&#45;file -->
<g id="edge22" class="edge">
<title>http://purl.org/dj/kaggle/where&#45;is&#45;my&#45;output&#45;file#437060570&#45;&gt;http://purl.org/dj/kaggle/where&#45;is&#45;my&#45;output&#45;file</title>
<path fill="none" stroke="black" d="M343.39,-357.01C350.5,-336.3 361.09,-300.08 361.09,-268 361.09,-268 361.09,-268 361.09,-104 361.09,-52.71 415.39,-66.66 465.09,-54 551.35,-32.03 769.37,-23.77 937.65,-20.7"/>
<polygon fill="black" stroke="black" points="937.96,-24.2 947.9,-20.52 937.84,-17.2 937.96,-24.2"/>
<text text-anchor="middle" x="394.09" y="-209.3" font-family="Times,serif" font-size="14.00">appearsIn ()</text>
</g>
<!-- http://purl.org/dj/kaggle/where&#45;is&#45;my&#45;output&#45;file#82575712 -->
<g id="node10" class="node">
<title>http://purl.org/dj/kaggle/where&#45;is&#45;my&#45;output&#45;file#82575712</title>
<ellipse fill="none" stroke="black" cx="1100.09" cy="-213" rx="99.38" ry="18"/>
<text text-anchor="middle" x="1100.09" y="-209.3" font-family="Times,serif" font-size="14.00">82575712 (np(0): Reuse)</text>
</g>
<!-- http://purl.org/dj/kaggle/where&#45;is&#45;my&#45;output&#45;file#82575712&#45;&gt;http://purl.org/dj/kaggle/where&#45;is&#45;my&#45;output&#45;file -->
<g id="edge9" class="edge">
<title>http://purl.org/dj/kaggle/where&#45;is&#45;my&#45;output&#45;file#82575712&#45;&gt;http://purl.org/dj/kaggle/where&#45;is&#45;my&#45;output&#45;file</title>
<path fill="none" stroke="black" d="M1153.28,-197.75C1163.27,-192.74 1172.61,-186.02 1179.09,-177 1211.09,-132.46 1209.33,-104.98 1189.09,-54 1187.68,-50.45 1185.72,-47.06 1183.46,-43.87"/>
<polygon fill="black" stroke="black" points="1185.98,-41.44 1176.91,-35.97 1180.59,-45.91 1185.98,-41.44"/>
<text text-anchor="middle" x="1237.09" y="-101.3" font-family="Times,serif" font-size="14.00">appearsIn ()</text>
</g>
<!-- http://purl.org/dj/python/lib/111084090 -->
<g id="node11" class="node">
<title>http://purl.org/dj/python/lib/111084090</title>
<ellipse fill="none" stroke="black" cx="1057.09" cy="-105" rx="109.68" ry="18"/>
<text text-anchor="middle" x="1057.09" y="-101.3" font-family="Times,serif" font-size="14.00">111084090 (numpy: Reuse)</text>
</g>
<!-- http://purl.org/dj/kaggle/where&#45;is&#45;my&#45;output&#45;file#82575712&#45;&gt;http://purl.org/dj/python/lib/111084090 -->
<g id="edge10" class="edge">
<title>http://purl.org/dj/kaggle/where&#45;is&#45;my&#45;output&#45;file#82575712&#45;&gt;http://purl.org/dj/python/lib/111084090</title>
<path fill="none" stroke="black" d="M1093.18,-194.97C1086.31,-178.05 1075.69,-151.86 1067.74,-132.28"/>
<polygon fill="black" stroke="black" points="1070.98,-130.94 1063.98,-122.99 1064.49,-133.57 1070.98,-130.94"/>
<text text-anchor="middle" x="1130.09" y="-155.3" font-family="Times,serif" font-size="14.00">assignedFrom ()</text>
</g>
<!-- http://purl.org/dj/python/lib/111084090&#45;&gt;http://purl.org/dj/kaggle/where&#45;is&#45;my&#45;output&#45;file -->
<g id="edge11" class="edge">
<title>http://purl.org/dj/python/lib/111084090&#45;&gt;http://purl.org/dj/kaggle/where&#45;is&#45;my&#45;output&#45;file</title>
<path fill="none" stroke="black" d="M1074.32,-86.85C1084.49,-76.97 1097.74,-64.47 1110.09,-54 1114.69,-50.09 1119.68,-46.09 1124.61,-42.24"/>
<polygon fill="black" stroke="black" points="1126.97,-44.84 1132.78,-35.98 1122.71,-39.29 1126.97,-44.84"/>
<text text-anchor="middle" x="1149.59" y="-57.8" font-family="Times,serif" font-size="14.00">importedBy ()</text>
</g>
<!-- http://purl.org/dj/kaggle/where&#45;is&#45;my&#45;output&#45;file#29687986 -->
<g id="node13" class="node">
<title>http://purl.org/dj/kaggle/where&#45;is&#45;my&#45;output&#45;file#29687986</title>
<ellipse fill="none" stroke="black" cx="1103.09" cy="-267" rx="94.78" ry="18"/>
<text text-anchor="middle" x="1103.09" y="-263.3" font-family="Times,serif" font-size="14.00">29687986 (0(0): Reuse)</text>
</g>
<!-- http://purl.org/dj/kaggle/where&#45;is&#45;my&#45;output&#45;file#262013591&#45;&gt;http://purl.org/dj/kaggle/where&#45;is&#45;my&#45;output&#45;file#29687986 -->
<g id="edge12" class="edge">
<title>http://purl.org/dj/kaggle/where&#45;is&#45;my&#45;output&#45;file#262013591&#45;&gt;http://purl.org/dj/kaggle/where&#45;is&#45;my&#45;output&#45;file#29687986</title>
<path fill="none" stroke="black" d="M1058.74,-410.86C1061.66,-405.27 1064.72,-398.97 1067.09,-393 1080.12,-360.16 1090.66,-320.78 1096.9,-295.11"/>
<polygon fill="black" stroke="black" points="1100.31,-295.87 1099.22,-285.34 1093.5,-294.25 1100.31,-295.87"/>
<text text-anchor="middle" x="1124.09" y="-371.3" font-family="Times,serif" font-size="14.00">assignedFrom ()</text>
</g>
<!-- http://purl.org/dj/kaggle/where&#45;is&#45;my&#45;output&#45;file#261948054 -->
<g id="node14" class="node">
<title>http://purl.org/dj/kaggle/where&#45;is&#45;my&#45;output&#45;file#261948054</title>
<ellipse fill="none" stroke="black" cx="899.09" cy="-321" rx="133.78" ry="18"/>
<text text-anchor="middle" x="899.09" y="-317.3" font-family="Times,serif" font-size="14.00">261948054 (test(0)$0: Movement)</text>
</g>
<!-- http://purl.org/dj/kaggle/where&#45;is&#45;my&#45;output&#45;file#262013591&#45;&gt;http://purl.org/dj/kaggle/where&#45;is&#45;my&#45;output&#45;file#261948054 -->
<g id="edge13" class="edge">
<title>http://purl.org/dj/kaggle/where&#45;is&#45;my&#45;output&#45;file#262013591&#45;&gt;http://purl.org/dj/kaggle/where&#45;is&#45;my&#45;output&#45;file#261948054</title>
<path fill="none" stroke="black" d="M1010.96,-411.96C999.68,-406.57 987.56,-400.09 977.09,-393 957.08,-379.44 936.96,-360.99 922.18,-346.3"/>
<polygon fill="black" stroke="black" points="924.48,-343.65 914.96,-339 919.5,-348.57 924.48,-343.65"/>
<text text-anchor="middle" x="1022.09" y="-371.3" font-family="Times,serif" font-size="14.00">assignedFrom ()</text>
</g>
<!-- http://purl.org/dj/kaggle/where&#45;is&#45;my&#45;output&#45;file#29687986&#45;&gt;http://purl.org/dj/kaggle/where&#45;is&#45;my&#45;output&#45;file -->
<g id="edge14" class="edge">
<title>http://purl.org/dj/kaggle/where&#45;is&#45;my&#45;output&#45;file#29687986&#45;&gt;http://purl.org/dj/kaggle/where&#45;is&#45;my&#45;output&#45;file</title>
<path fill="none" stroke="black" d="M1167.94,-253.75C1182.43,-248.61 1196.82,-241.32 1208.09,-231 1240.22,-201.55 1219.14,-174.46 1247.09,-141 1256.33,-129.93 1267.28,-135.72 1274.09,-123 1281.64,-108.89 1282.09,-100.85 1274.09,-87 1261.72,-65.59 1239.76,-50.33 1218.12,-39.76"/>
<polygon fill="black" stroke="black" points="1219.44,-36.52 1208.9,-35.52 1216.52,-42.88 1219.44,-36.52"/>
<text text-anchor="middle" x="1280.09" y="-155.3" font-family="Times,serif" font-size="14.00">appearsIn ()</text>
</g>
<!-- http://purl.org/dj/kaggle/where&#45;is&#45;my&#45;output&#45;file#261948054&#45;&gt;http://purl.org/dj/kaggle/where&#45;is&#45;my&#45;output&#45;file#80085334 -->
<g id="edge15" class="edge">
<title>http://purl.org/dj/kaggle/where&#45;is&#45;my&#45;output&#45;file#261948054&#45;&gt;http://purl.org/dj/kaggle/where&#45;is&#45;my&#45;output&#45;file#80085334</title>
<path fill="none" stroke="black" d="M860.21,-303.68C846.28,-297.81 830.47,-291.13 816.09,-285 775.87,-267.87 730.23,-248.21 697.16,-233.93"/>
<polygon fill="black" stroke="black" points="698.32,-230.62 687.75,-229.87 695.54,-237.05 698.32,-230.62"/>
<text text-anchor="middle" x="846.59" y="-263.3" font-family="Times,serif" font-size="14.00">read_csv ()</text>
</g>
<!-- http://purl.org/dj/kaggle/where&#45;is&#45;my&#45;output&#45;file#1183844006 -->
<g id="node15" class="node">
<title>http://purl.org/dj/kaggle/where&#45;is&#45;my&#45;output&#45;file#1183844006</title>
<ellipse fill="none" stroke="black" cx="899.09" cy="-159" rx="153.27" ry="18"/>
<text text-anchor="middle" x="899.09" y="-155.3" font-family="Times,serif" font-size="14.00">1183844006 (../input/test.csv(0): Reuse)</text>
</g>
<!-- http://purl.org/dj/kaggle/where&#45;is&#45;my&#45;output&#45;file#261948054&#45;&gt;http://purl.org/dj/kaggle/where&#45;is&#45;my&#45;output&#45;file#1183844006 -->
<g id="edge16" class="edge">
<title>http://purl.org/dj/kaggle/where&#45;is&#45;my&#45;output&#45;file#261948054&#45;&gt;http://purl.org/dj/kaggle/where&#45;is&#45;my&#45;output&#45;file#1183844006</title>
<path fill="none" stroke="black" d="M899.09,-302.88C899.09,-275.35 899.09,-221.01 899.09,-187.85"/>
<polygon fill="black" stroke="black" points="902.59,-187.48 899.09,-177.48 895.59,-187.48 902.59,-187.48"/>
<text text-anchor="middle" x="929.59" y="-263.3" font-family="Times,serif" font-size="14.00">read_csv ()</text>
</g>
<!-- http://purl.org/dj/kaggle/where&#45;is&#45;my&#45;output&#45;file#1183844006&#45;&gt;http://purl.org/dj/kaggle/where&#45;is&#45;my&#45;output&#45;file -->
<g id="edge24" class="edge">
<title>http://purl.org/dj/kaggle/where&#45;is&#45;my&#45;output&#45;file#1183844006&#45;&gt;http://purl.org/dj/kaggle/where&#45;is&#45;my&#45;output&#45;file</title>
<path fill="none" stroke="black" d="M882.28,-140.82C878.14,-135.53 874.26,-129.39 872.09,-123 866.92,-107.86 862.18,-99.56 872.09,-87 891.87,-61.92 961.01,-45.05 1026.11,-34.39"/>
<polygon fill="black" stroke="black" points="1026.77,-37.83 1036.09,-32.8 1025.67,-30.91 1026.77,-37.83"/>
<text text-anchor="middle" x="905.09" y="-101.3" font-family="Times,serif" font-size="14.00">appearsIn ()</text>
</g>
<!-- http://purl.org/dj/python/lib/144966264&#45;&gt;http://purl.org/dj/kaggle/where&#45;is&#45;my&#45;output&#45;file -->
<g id="edge23" class="edge">
<title>http://purl.org/dj/python/lib/144966264&#45;&gt;http://purl.org/dj/kaggle/where&#45;is&#45;my&#45;output&#45;file</title>
<path fill="none" stroke="black" d="M730.61,-86.99C740.08,-75.55 754.13,-61.28 770.09,-54 803.15,-38.91 877.04,-30.32 951.42,-25.44"/>
<polygon fill="black" stroke="black" points="951.68,-28.93 961.43,-24.8 951.23,-21.94 951.68,-28.93"/>
<text text-anchor="middle" x="809.59" y="-57.8" font-family="Times,serif" font-size="14.00">importedBy ()</text>
</g>
<!-- http://purl.org/dj/kaggle/where&#45;is&#45;my&#45;output&#45;file#29950131&#45;&gt;http://purl.org/dj/kaggle/where&#45;is&#45;my&#45;output&#45;file -->
<g id="edge28" class="edge">
<title>http://purl.org/dj/kaggle/where&#45;is&#45;my&#45;output&#45;file#29950131&#45;&gt;http://purl.org/dj/kaggle/where&#45;is&#45;my&#45;output&#45;file</title>
<path fill="none" stroke="black" d="M1314.38,-248.82C1317.13,-224.53 1320.51,-178.91 1313.09,-141 1308.1,-115.57 1303.91,-109.52 1291.09,-87 1281.98,-71.01 1281.11,-64.62 1266.09,-54 1257.53,-47.95 1247.88,-42.91 1237.94,-38.73"/>
<polygon fill="black" stroke="black" points="1238.93,-35.36 1228.34,-34.97 1236.38,-41.87 1238.93,-35.36"/>
<text text-anchor="middle" x="1351.09" y="-155.3" font-family="Times,serif" font-size="14.00">appearsIn ()</text>
</g>
<!-- http://purl.org/dj/kaggle/where&#45;is&#45;my&#45;output&#45;file#806684048 -->
<g id="node18" class="node">
<title>http://purl.org/dj/kaggle/where&#45;is&#45;my&#45;output&#45;file#806684048</title>
<ellipse fill="none" stroke="black" cx="2412.09" cy="-321" rx="142.17" ry="18"/>
<text text-anchor="middle" x="2412.09" y="-317.3" font-family="Times,serif" font-size="14.00">806684048 (check_output(0): Reuse)</text>
</g>
<!-- http://purl.org/dj/kaggle/where&#45;is&#45;my&#45;output&#45;file#806684048&#45;&gt;http://purl.org/dj/kaggle/where&#45;is&#45;my&#45;output&#45;file -->
<g id="edge25" class="edge">
<title>http://purl.org/dj/kaggle/where&#45;is&#45;my&#45;output&#45;file#806684048&#45;&gt;http://purl.org/dj/kaggle/where&#45;is&#45;my&#45;output&#45;file</title>
<path fill="none" stroke="black" d="M2468.04,-304.36C2481.16,-299.32 2494.63,-292.93 2506.09,-285 2532.25,-266.89 2541.93,-260.8 2553.09,-231 2567.33,-192.95 2566.05,-169.49 2537.09,-141 2455.61,-60.87 1735.03,-32.49 1368.4,-23.17"/>
<polygon fill="black" stroke="black" points="1368.28,-19.67 1358.2,-22.92 1368.11,-26.67 1368.28,-19.67"/>
<text text-anchor="middle" x="2592.09" y="-155.3" font-family="Times,serif" font-size="14.00">appearsIn ()</text>
</g>
<!-- http://purl.org/dj/python/lib/535233807 -->
<g id="node19" class="node">
<title>http://purl.org/dj/python/lib/535233807</title>
<ellipse fill="none" stroke="black" cx="2412.09" cy="-213" rx="131.88" ry="18"/>
<text text-anchor="middle" x="2412.09" y="-209.3" font-family="Times,serif" font-size="14.00">535233807 (check_output: Reuse)</text>
</g>
<!-- http://purl.org/dj/kaggle/where&#45;is&#45;my&#45;output&#45;file#806684048&#45;&gt;http://purl.org/dj/python/lib/535233807 -->
<g id="edge26" class="edge">
<title>http://purl.org/dj/kaggle/where&#45;is&#45;my&#45;output&#45;file#806684048&#45;&gt;http://purl.org/dj/python/lib/535233807</title>
<path fill="none" stroke="black" d="M2412.09,-302.97C2412.09,-286.38 2412.09,-260.88 2412.09,-241.43"/>
<polygon fill="black" stroke="black" points="2415.59,-241.34 2412.09,-231.34 2408.59,-241.34 2415.59,-241.34"/>
<text text-anchor="middle" x="2457.09" y="-263.3" font-family="Times,serif" font-size="14.00">assignedFrom ()</text>
</g>
<!-- http://purl.org/dj/python/lib/397411402 -->
<g id="node20" class="node">
<title>http://purl.org/dj/python/lib/397411402</title>
<ellipse fill="none" stroke="black" cx="2211.09" cy="-105" rx="123.48" ry="18"/>
<text text-anchor="middle" x="2211.09" y="-101.3" font-family="Times,serif" font-size="14.00">397411402 (subprocess: Reuse)</text>
</g>
<!-- http://purl.org/dj/python/lib/535233807&#45;&gt;http://purl.org/dj/python/lib/397411402 -->
<g id="edge27" class="edge">
<title>http://purl.org/dj/python/lib/535233807&#45;&gt;http://purl.org/dj/python/lib/397411402</title>
<path fill="none" stroke="black" d="M2435.14,-194.97C2440.38,-189.83 2445.24,-183.74 2448.09,-177 2454.31,-162.26 2458.54,-153.11 2448.09,-141 2433.24,-123.8 2387.92,-114.91 2340.83,-110.37"/>
<polygon fill="black" stroke="black" points="2341.04,-106.87 2330.76,-109.46 2340.41,-113.84 2341.04,-106.87"/>
<text text-anchor="middle" x="2493.59" y="-155.3" font-family="Times,serif" font-size="14.00">importedBy ()</text>
</g>
<!-- http://purl.org/dj/python/lib/397411402&#45;&gt;http://purl.org/dj/kaggle/where&#45;is&#45;my&#45;output&#45;file -->
<g id="edge33" class="edge">
<title>http://purl.org/dj/python/lib/397411402&#45;&gt;http://purl.org/dj/kaggle/where&#45;is&#45;my&#45;output&#45;file</title>
<path fill="none" stroke="black" d="M2126.75,-91.8C2045.34,-80.43 1918.52,-63.8 1808.09,-54 1656.77,-40.57 1485.21,-31.61 1356.07,-26.12"/>
<polygon fill="black" stroke="black" points="1356.2,-22.62 1346.06,-25.7 1355.9,-29.61 1356.2,-22.62"/>
<text text-anchor="middle" x="1980.59" y="-57.8" font-family="Times,serif" font-size="14.00">importedBy ()</text>
</g>
<!-- http://purl.org/dj/kaggle/where&#45;is&#45;my&#45;output&#45;file#415826857 -->
<g id="node21" class="node">
<title>http://purl.org/dj/kaggle/where&#45;is&#45;my&#45;output&#45;file#415826857</title>
<ellipse fill="none" stroke="black" cx="2038.09" cy="-429" rx="147.57" ry="18"/>
<text text-anchor="middle" x="2038.09" y="-425.3" font-family="Times,serif" font-size="14.00">415826857 (print[13/0]: Visualisation)</text>
</g>
<!-- http://purl.org/dj/kaggle/where&#45;is&#45;my&#45;output&#45;file#415826857&#45;&gt;http://purl.org/dj/kaggle/where&#45;is&#45;my&#45;output&#45;file#361241641 -->
<g id="edge29" class="edge">
<title>http://purl.org/dj/kaggle/where&#45;is&#45;my&#45;output&#45;file#415826857&#45;&gt;http://purl.org/dj/kaggle/where&#45;is&#45;my&#45;output&#45;file#361241641</title>
<path fill="none" stroke="black" d="M2038.09,-410.83C2038.09,-365.45 2038.09,-242.06 2038.09,-187.07"/>
<polygon fill="black" stroke="black" points="2041.59,-187.03 2038.09,-177.03 2034.59,-187.03 2041.59,-187.03"/>
<text text-anchor="middle" x="2057.59" y="-317.3" font-family="Times,serif" font-size="14.00">print ()</text>
</g>
<!-- http://purl.org/dj/kaggle/where&#45;is&#45;my&#45;output&#45;file#415826857&#45;&gt;http://purl.org/dj/kaggle/where&#45;is&#45;my&#45;output&#45;file#806684048 -->
<g id="edge30" class="edge">
<title>http://purl.org/dj/kaggle/where&#45;is&#45;my&#45;output&#45;file#415826857&#45;&gt;http://purl.org/dj/kaggle/where&#45;is&#45;my&#45;output&#45;file#806684048</title>
<path fill="none" stroke="black" d="M2093.67,-412.25C2161.31,-393.08 2275.31,-360.77 2346.98,-340.45"/>
<polygon fill="black" stroke="black" points="2348.14,-343.76 2356.8,-337.67 2346.23,-337.03 2348.14,-343.76"/>
<text text-anchor="middle" x="2299.59" y="-371.3" font-family="Times,serif" font-size="14.00">print ()</text>
</g>
<!-- http://purl.org/dj/kaggle/where&#45;is&#45;my&#45;output&#45;file#164692489 -->
<g id="node22" class="node">
<title>http://purl.org/dj/kaggle/where&#45;is&#45;my&#45;output&#45;file#164692489</title>
<ellipse fill="none" stroke="black" cx="1515.09" cy="-159" rx="109.38" ry="18"/>
<text text-anchor="middle" x="1515.09" y="-155.3" font-family="Times,serif" font-size="14.00">164692489 (utf8(0): Reuse)</text>
</g>
<!-- http://purl.org/dj/kaggle/where&#45;is&#45;my&#45;output&#45;file#415826857&#45;&gt;http://purl.org/dj/kaggle/where&#45;is&#45;my&#45;output&#45;file#164692489 -->
<g id="edge31" class="edge">
<title>http://purl.org/dj/kaggle/where&#45;is&#45;my&#45;output&#45;file#415826857&#45;&gt;http://purl.org/dj/kaggle/where&#45;is&#45;my&#45;output&#45;file#164692489</title>
<path fill="none" stroke="black" d="M2005.37,-411.24C1913.96,-364.4 1656.03,-232.23 1555.71,-180.82"/>
<polygon fill="black" stroke="black" points="1557.29,-177.69 1546.79,-176.25 1554.09,-183.92 1557.29,-177.69"/>
<text text-anchor="middle" x="1879.59" y="-317.3" font-family="Times,serif" font-size="14.00">print ()</text>
</g>
<!-- http://purl.org/dj/kaggle/where&#45;is&#45;my&#45;output&#45;file#164692489&#45;&gt;http://purl.org/dj/kaggle/where&#45;is&#45;my&#45;output&#45;file -->
<g id="edge32" class="edge">
<title>http://purl.org/dj/kaggle/where&#45;is&#45;my&#45;output&#45;file#164692489&#45;&gt;http://purl.org/dj/kaggle/where&#45;is&#45;my&#45;output&#45;file</title>
<path fill="none" stroke="black" d="M1494.22,-141.21C1464.06,-117.84 1405.69,-75.93 1349.09,-54 1328.41,-45.99 1305.76,-39.79 1283.49,-35"/>
<polygon fill="black" stroke="black" points="1284.14,-31.56 1273.63,-32.96 1282.72,-38.42 1284.14,-31.56"/>
<text text-anchor="middle" x="1501.09" y="-101.3" font-family="Times,serif" font-size="14.00">appearsIn ()</text>
</g>
</g>
</svg>
