<?xml version="1.0" encoding="UTF-8" standalone="no"?>
<!DOCTYPE svg PUBLIC "-//W3C//DTD SVG 1.1//EN"
 "http://www.w3.org/Graphics/SVG/1.1/DTD/svg11.dtd">
<!-- Generated by graphviz version 2.44.1 (20200629.0846)
 -->
<!-- Pages: 1 -->
<svg width="2656pt" height="737pt"
 viewBox="0.00 0.00 2656.23 737.00" xmlns="http://www.w3.org/2000/svg" xmlns:xlink="http://www.w3.org/1999/xlink">
<g id="graph0" class="graph" transform="scale(1 1) rotate(0) translate(4 733)">
<polygon fill="white" stroke="transparent" points="-4,4 -4,-733 2652.23,-733 2652.23,4 -4,4"/>
<!-- http://purl.org/dj/kaggle/where&#45;is&#45;my&#45;output&#45;file#261948054 -->
<g id="node1" class="node">
<title>http://purl.org/dj/kaggle/where&#45;is&#45;my&#45;output&#45;file#261948054</title>
<ellipse fill="none" stroke="black" cx="421.39" cy="-300" rx="133.78" ry="18"/>
<text text-anchor="middle" x="421.39" y="-296.3" font-family="Times,serif" font-size="14.00">261948054 (test(0)$0: Movement)</text>
</g>
<!-- http://purl.org/dj/python/lib/144966264 -->
<g id="node2" class="node">
<title>http://purl.org/dj/python/lib/144966264</title>
<ellipse fill="none" stroke="black" cx="539.39" cy="-105" rx="109.38" ry="18"/>
<text text-anchor="middle" x="539.39" y="-101.3" font-family="Times,serif" font-size="14.00">144966264 (pandas: Reuse)</text>
</g>
<!-- http://purl.org/dj/kaggle/where&#45;is&#45;my&#45;output&#45;file#261948054&#45;&gt;http://purl.org/dj/python/lib/144966264 -->
<g id="edge1" class="edge">
<title>http://purl.org/dj/kaggle/where&#45;is&#45;my&#45;output&#45;file#261948054&#45;&gt;http://purl.org/dj/python/lib/144966264</title>
<path fill="none" stroke="black" d="M443.84,-282.08C459.29,-269.45 479.29,-250.99 492.39,-231 512.58,-200.18 525.81,-159.46 532.95,-133"/>
<polygon fill="black" stroke="black" points="536.34,-133.84 535.47,-123.28 529.57,-132.08 536.34,-133.84"/>
<text text-anchor="middle" x="557.89" y="-209.3" font-family="Times,serif" font-size="14.00">previousActivity</text>
</g>
<!-- http://purl.org/dj/kaggle/where&#45;is&#45;my&#45;output&#45;file#80085334 -->
<g id="node3" class="node">
<title>http://purl.org/dj/kaggle/where&#45;is&#45;my&#45;output&#45;file#80085334</title>
<ellipse fill="none" stroke="black" cx="384.39" cy="-213" rx="99.38" ry="18"/>
<text text-anchor="middle" x="384.39" y="-209.3" font-family="Times,serif" font-size="14.00">80085334 (pd(0): Reuse)</text>
</g>
<!-- http://purl.org/dj/kaggle/where&#45;is&#45;my&#45;output&#45;file#261948054&#45;&gt;http://purl.org/dj/kaggle/where&#45;is&#45;my&#45;output&#45;file#80085334 -->
<g id="edge2" class="edge">
<title>http://purl.org/dj/kaggle/where&#45;is&#45;my&#45;output&#45;file#261948054&#45;&gt;http://purl.org/dj/kaggle/where&#45;is&#45;my&#45;output&#45;file#80085334</title>
<path fill="none" stroke="black" d="M413.9,-281.8C408.73,-269.93 401.77,-253.93 395.9,-240.45"/>
<polygon fill="black" stroke="black" points="399.06,-238.95 391.86,-231.18 392.64,-241.74 399.06,-238.95"/>
<text text-anchor="middle" x="429.89" y="-252.8" font-family="Times,serif" font-size="14.00">read_csv</text>
</g>
<!-- http://purl.org/dj/kaggle/where&#45;is&#45;my&#45;output&#45;file#1183844006 -->
<g id="node4" class="node">
<title>http://purl.org/dj/kaggle/where&#45;is&#45;my&#45;output&#45;file#1183844006</title>
<ellipse fill="none" stroke="black" cx="153.39" cy="-159" rx="153.27" ry="18"/>
<text text-anchor="middle" x="153.39" y="-155.3" font-family="Times,serif" font-size="14.00">1183844006 (../input/test.csv(0): Reuse)</text>
</g>
<!-- http://purl.org/dj/kaggle/where&#45;is&#45;my&#45;output&#45;file#261948054&#45;&gt;http://purl.org/dj/kaggle/where&#45;is&#45;my&#45;output&#45;file#1183844006 -->
<g id="edge3" class="edge">
<title>http://purl.org/dj/kaggle/where&#45;is&#45;my&#45;output&#45;file#261948054&#45;&gt;http://purl.org/dj/kaggle/where&#45;is&#45;my&#45;output&#45;file#1183844006</title>
<path fill="none" stroke="black" d="M384.32,-282.66C354.76,-269.39 312.5,-249.85 276.39,-231 246.73,-215.52 213.96,-196.51 189.71,-182.06"/>
<polygon fill="black" stroke="black" points="191.23,-178.89 180.86,-176.76 187.64,-184.89 191.23,-178.89"/>
<text text-anchor="middle" x="365.89" y="-252.8" font-family="Times,serif" font-size="14.00">read_csv</text>
</g>
<!-- http://purl.org/dj/kaggle/where&#45;is&#45;my&#45;output&#45;file -->
<g id="node5" class="node">
<title>http://purl.org/dj/kaggle/where&#45;is&#45;my&#45;output&#45;file</title>
<ellipse fill="none" stroke="black" cx="1563.39" cy="-18" rx="94.78" ry="18"/>
<text text-anchor="middle" x="1563.39" y="-14.3" font-family="Times,serif" font-size="14.00">where&#45;is&#45;my&#45;output&#45;file</text>
</g>
<!-- http://purl.org/dj/python/lib/144966264&#45;&gt;http://purl.org/dj/kaggle/where&#45;is&#45;my&#45;output&#45;file -->
<g id="edge4" class="edge">
<title>http://purl.org/dj/python/lib/144966264&#45;&gt;http://purl.org/dj/kaggle/where&#45;is&#45;my&#45;output&#45;file</title>
<path fill="none" stroke="black" d="M545.42,-86.91C550.46,-75.43 558.85,-61.15 571.39,-54 609.4,-32.31 1211.97,-23 1458.99,-20.09"/>
<polygon fill="black" stroke="black" points="1459.1,-23.58 1469.05,-19.97 1459.01,-16.59 1459.1,-23.58"/>
<text text-anchor="middle" x="616.89" y="-57.8" font-family="Times,serif" font-size="14.00">previousActivity</text>
</g>
<!-- http://purl.org/dj/kaggle/where&#45;is&#45;my&#45;output&#45;file#80085334&#45;&gt;http://purl.org/dj/python/lib/144966264 -->
<g id="edge5" class="edge">
<title>http://purl.org/dj/kaggle/where&#45;is&#45;my&#45;output&#45;file#80085334&#45;&gt;http://purl.org/dj/python/lib/144966264</title>
<path fill="none" stroke="black" d="M390.84,-194.93C397.78,-178.81 410.3,-155.06 428.39,-141 438.27,-133.32 449.87,-127.31 461.77,-122.6"/>
<polygon fill="black" stroke="black" points="463.16,-125.82 471.36,-119.11 460.77,-119.25 463.16,-125.82"/>
<text text-anchor="middle" x="466.89" y="-155.3" font-family="Times,serif" font-size="14.00">assignedFrom</text>
</g>
<!-- http://purl.org/dj/kaggle/where&#45;is&#45;my&#45;output&#45;file#80085334&#45;&gt;http://purl.org/dj/kaggle/where&#45;is&#45;my&#45;output&#45;file -->
<g id="edge6" class="edge">
<title>http://purl.org/dj/kaggle/where&#45;is&#45;my&#45;output&#45;file#80085334&#45;&gt;http://purl.org/dj/kaggle/where&#45;is&#45;my&#45;output&#45;file</title>
<path fill="none" stroke="black" d="M366.42,-194.87C341.44,-169.02 302.29,-119.58 330.39,-87 367.03,-44.5 1168.63,-26.03 1459.3,-20.72"/>
<polygon fill="black" stroke="black" points="1459.49,-24.21 1469.43,-20.53 1459.36,-17.21 1459.49,-24.21"/>
<text text-anchor="middle" x="375.89" y="-101.3" font-family="Times,serif" font-size="14.00">previousActivity</text>
</g>
<!-- http://purl.org/dj/kaggle/where&#45;is&#45;my&#45;output&#45;file#1183844006&#45;&gt;http://purl.org/dj/kaggle/where&#45;is&#45;my&#45;output&#45;file -->
<g id="edge7" class="edge">
<title>http://purl.org/dj/kaggle/where&#45;is&#45;my&#45;output&#45;file#1183844006&#45;&gt;http://purl.org/dj/kaggle/where&#45;is&#45;my&#45;output&#45;file</title>
<path fill="none" stroke="black" d="M170.33,-140.76C196.76,-115.35 250.67,-69.2 307.39,-54 416.85,-24.66 1176.22,-19.89 1458.25,-19.13"/>
<polygon fill="black" stroke="black" points="1458.49,-22.63 1468.48,-19.11 1458.47,-15.63 1458.49,-22.63"/>
<text text-anchor="middle" x="262.89" y="-101.3" font-family="Times,serif" font-size="14.00">appearsIn</text>
</g>
<!-- http://purl.org/dj/kaggle/where&#45;is&#45;my&#45;output&#45;file#249692951 -->
<g id="node6" class="node">
<title>http://purl.org/dj/kaggle/where&#45;is&#45;my&#45;output&#45;file#249692951</title>
<ellipse fill="none" stroke="black" cx="1091.39" cy="-213" rx="136.48" ry="18"/>
<text text-anchor="middle" x="1091.39" y="-209.3" font-family="Times,serif" font-size="14.00">249692951 (print[1]: Visualisation)</text>
</g>
<!-- http://purl.org/dj/kaggle/where&#45;is&#45;my&#45;output&#45;file#1683888733 -->
<g id="node7" class="node">
<title>http://purl.org/dj/kaggle/where&#45;is&#45;my&#45;output&#45;file#1683888733</title>
<ellipse fill="none" stroke="black" cx="1091.39" cy="-105" rx="387.23" ry="18"/>
<text text-anchor="middle" x="1091.39" y="-101.3" font-family="Times,serif" font-size="14.00">1683888733 ([&lt;_ast.Constant object at 0x12f85ef70&gt;, &lt;_ast.Constant object at 0x12f85eee0&gt;](0): Reuse)</text>
</g>
<!-- http://purl.org/dj/kaggle/where&#45;is&#45;my&#45;output&#45;file#249692951&#45;&gt;http://purl.org/dj/kaggle/where&#45;is&#45;my&#45;output&#45;file#1683888733 -->
<g id="edge8" class="edge">
<title>http://purl.org/dj/kaggle/where&#45;is&#45;my&#45;output&#45;file#249692951&#45;&gt;http://purl.org/dj/kaggle/where&#45;is&#45;my&#45;output&#45;file#1683888733</title>
<path fill="none" stroke="black" d="M1091.39,-194.97C1091.39,-178.38 1091.39,-152.88 1091.39,-133.43"/>
<polygon fill="black" stroke="black" points="1094.89,-133.34 1091.39,-123.34 1087.89,-133.34 1094.89,-133.34"/>
<text text-anchor="middle" x="1136.89" y="-155.3" font-family="Times,serif" font-size="14.00">previousActivity</text>
</g>
<!-- http://purl.org/dj/kaggle/where&#45;is&#45;my&#45;output&#45;file#1683888733&#45;&gt;http://purl.org/dj/kaggle/where&#45;is&#45;my&#45;output&#45;file -->
<g id="edge9" class="edge">
<title>http://purl.org/dj/kaggle/where&#45;is&#45;my&#45;output&#45;file#1683888733&#45;&gt;http://purl.org/dj/kaggle/where&#45;is&#45;my&#45;output&#45;file</title>
<path fill="none" stroke="black" d="M1183.23,-87.46C1271.88,-71.5 1404.53,-47.61 1487.4,-32.68"/>
<polygon fill="black" stroke="black" points="1488.03,-36.13 1497.26,-30.91 1486.79,-29.24 1488.03,-36.13"/>
<text text-anchor="middle" x="1382.89" y="-57.8" font-family="Times,serif" font-size="14.00">appearsIn</text>
</g>
<!-- http://purl.org/dj/kaggle/where&#45;is&#45;my&#45;output&#45;file#1250166437 -->
<g id="node8" class="node">
<title>http://purl.org/dj/kaggle/where&#45;is&#45;my&#45;output&#45;file#1250166437</title>
<ellipse fill="none" stroke="black" cx="982.39" cy="-624" rx="181.97" ry="18"/>
<text text-anchor="middle" x="982.39" y="-620.3" font-family="Times,serif" font-size="14.00">1250166437 (data_to_submit(0)$0: Preparation)</text>
</g>
<!-- http://purl.org/dj/kaggle/where&#45;is&#45;my&#45;output&#45;file#1250166437&#45;&gt;http://purl.org/dj/python/lib/144966264 -->
<g id="edge10" class="edge">
<title>http://purl.org/dj/kaggle/where&#45;is&#45;my&#45;output&#45;file#1250166437&#45;&gt;http://purl.org/dj/python/lib/144966264</title>
<path fill="none" stroke="black" d="M868.79,-609.86C768.59,-594.99 638.39,-566.21 638.39,-517 638.39,-517 638.39,-517 638.39,-212 638.39,-175.53 606.7,-146.4 579.18,-127.98"/>
<polygon fill="black" stroke="black" points="580.75,-124.82 570.44,-122.38 576.97,-130.72 580.75,-124.82"/>
<text text-anchor="middle" x="683.89" y="-350.3" font-family="Times,serif" font-size="14.00">previousActivity</text>
</g>
<!-- http://purl.org/dj/kaggle/where&#45;is&#45;my&#45;output&#45;file#1250166437&#45;&gt;http://purl.org/dj/kaggle/where&#45;is&#45;my&#45;output&#45;file#80085334 -->
<g id="edge11" class="edge">
<title>http://purl.org/dj/kaggle/where&#45;is&#45;my&#45;output&#45;file#1250166437&#45;&gt;http://purl.org/dj/kaggle/where&#45;is&#45;my&#45;output&#45;file#80085334</title>
<path fill="none" stroke="black" d="M818.38,-616.16C595.5,-604.63 224.39,-576.5 224.39,-517 224.39,-517 224.39,-517 224.39,-299 224.39,-260.29 261.36,-239.15 299.77,-227.64"/>
<polygon fill="black" stroke="black" points="300.85,-230.97 309.54,-224.92 298.97,-224.23 300.85,-230.97"/>
<text text-anchor="middle" x="269.89" y="-404.3" font-family="Times,serif" font-size="14.00">previousActivity</text>
</g>
<!-- http://purl.org/dj/kaggle/where&#45;is&#45;my&#45;output&#45;file#29687986 -->
<g id="node9" class="node">
<title>http://purl.org/dj/kaggle/where&#45;is&#45;my&#45;output&#45;file#29687986</title>
<ellipse fill="none" stroke="black" cx="866.39" cy="-300" rx="94.78" ry="18"/>
<text text-anchor="middle" x="866.39" y="-296.3" font-family="Times,serif" font-size="14.00">29687986 (0(0): Reuse)</text>
</g>
<!-- http://purl.org/dj/kaggle/where&#45;is&#45;my&#45;output&#45;file#1250166437&#45;&gt;http://purl.org/dj/kaggle/where&#45;is&#45;my&#45;output&#45;file#29687986 -->
<g id="edge12" class="edge">
<title>http://purl.org/dj/kaggle/where&#45;is&#45;my&#45;output&#45;file#1250166437&#45;&gt;http://purl.org/dj/kaggle/where&#45;is&#45;my&#45;output&#45;file#29687986</title>
<path fill="none" stroke="black" d="M982.15,-605.81C981.06,-550.59 975.06,-378.78 942.39,-336 937.61,-329.75 931.46,-324.58 924.72,-320.31"/>
<polygon fill="black" stroke="black" points="926.37,-317.22 915.94,-315.37 922.94,-323.32 926.37,-317.22"/>
<text text-anchor="middle" x="1020.89" y="-458.3" font-family="Times,serif" font-size="14.00">previousActivity</text>
</g>
<!-- http://purl.org/dj/kaggle/where&#45;is&#45;my&#45;output&#45;file#262013591 -->
<g id="node10" class="node">
<title>http://purl.org/dj/kaggle/where&#45;is&#45;my&#45;output&#45;file#262013591</title>
<ellipse fill="none" stroke="black" cx="782.39" cy="-408" rx="116.18" ry="18"/>
<text text-anchor="middle" x="782.39" y="-404.3" font-family="Times,serif" font-size="14.00">262013591 (test(0)$1: Reuse)</text>
</g>
<!-- http://purl.org/dj/kaggle/where&#45;is&#45;my&#45;output&#45;file#1250166437&#45;&gt;http://purl.org/dj/kaggle/where&#45;is&#45;my&#45;output&#45;file#262013591 -->
<g id="edge13" class="edge">
<title>http://purl.org/dj/kaggle/where&#45;is&#45;my&#45;output&#45;file#1250166437&#45;&gt;http://purl.org/dj/kaggle/where&#45;is&#45;my&#45;output&#45;file#262013591</title>
<path fill="none" stroke="black" d="M816.43,-616.58C729.52,-611.49 638.23,-602.71 624.39,-588 596.96,-558.87 602.11,-532.49 622.39,-498 642.86,-463.19 682.42,-441.01 717.08,-427.5"/>
<polygon fill="black" stroke="black" points="718.56,-430.68 726.71,-423.91 716.11,-424.12 718.56,-430.68"/>
<text text-anchor="middle" x="667.89" y="-512.3" font-family="Times,serif" font-size="14.00">previousActivity</text>
</g>
<!-- http://purl.org/dj/kaggle/where&#45;is&#45;my&#45;output&#45;file#262079128 -->
<g id="node11" class="node">
<title>http://purl.org/dj/kaggle/where&#45;is&#45;my&#45;output&#45;file#262079128</title>
<ellipse fill="none" stroke="black" cx="838.39" cy="-516" rx="116.18" ry="18"/>
<text text-anchor="middle" x="838.39" y="-512.3" font-family="Times,serif" font-size="14.00">262079128 (test(0)$2: Reuse)</text>
</g>
<!-- http://purl.org/dj/kaggle/where&#45;is&#45;my&#45;output&#45;file#1250166437&#45;&gt;http://purl.org/dj/kaggle/where&#45;is&#45;my&#45;output&#45;file#262079128 -->
<g id="edge14" class="edge">
<title>http://purl.org/dj/kaggle/where&#45;is&#45;my&#45;output&#45;file#1250166437&#45;&gt;http://purl.org/dj/kaggle/where&#45;is&#45;my&#45;output&#45;file#262079128</title>
<path fill="none" stroke="black" d="M940.02,-606.49C928.95,-601.31 917.34,-595.08 907.39,-588 888.95,-574.89 871.23,-556.49 858.37,-541.71"/>
<polygon fill="black" stroke="black" points="860.89,-539.27 851.74,-533.92 855.56,-543.81 860.89,-539.27"/>
<text text-anchor="middle" x="937.89" y="-566.3" font-family="Times,serif" font-size="14.00">DataFrame</text>
</g>
<!-- http://purl.org/dj/kaggle/where&#45;is&#45;my&#45;output&#45;file#29950131 -->
<g id="node12" class="node">
<title>http://purl.org/dj/kaggle/where&#45;is&#45;my&#45;output&#45;file#29950131</title>
<ellipse fill="none" stroke="black" cx="1105.39" cy="-408" rx="94.78" ry="18"/>
<text text-anchor="middle" x="1105.39" y="-404.3" font-family="Times,serif" font-size="14.00">29950131 (1(0): Reuse)</text>
</g>
<!-- http://purl.org/dj/kaggle/where&#45;is&#45;my&#45;output&#45;file#1250166437&#45;&gt;http://purl.org/dj/kaggle/where&#45;is&#45;my&#45;output&#45;file#29950131 -->
<g id="edge15" class="edge">
<title>http://purl.org/dj/kaggle/where&#45;is&#45;my&#45;output&#45;file#1250166437&#45;&gt;http://purl.org/dj/kaggle/where&#45;is&#45;my&#45;output&#45;file#29950131</title>
<path fill="none" stroke="black" d="M995.64,-605.69C1015.27,-579.51 1052.43,-527.83 1077.39,-480 1084.76,-465.87 1091.39,-449.33 1096.34,-435.78"/>
<polygon fill="black" stroke="black" points="1099.74,-436.68 1099.79,-426.08 1093.14,-434.33 1099.74,-436.68"/>
<text text-anchor="middle" x="1113.89" y="-512.3" font-family="Times,serif" font-size="14.00">previousActivity</text>
</g>
<!-- http://purl.org/dj/kaggle/where&#45;is&#45;my&#45;output&#45;file#673514711 -->
<g id="node13" class="node">
<title>http://purl.org/dj/kaggle/where&#45;is&#45;my&#45;output&#45;file#673514711</title>
<ellipse fill="none" stroke="black" cx="1337.39" cy="-462" rx="137.58" ry="18"/>
<text text-anchor="middle" x="1337.39" y="-458.3" font-family="Times,serif" font-size="14.00">673514711 (PassengerId(0): Reuse)</text>
</g>
<!-- http://purl.org/dj/kaggle/where&#45;is&#45;my&#45;output&#45;file#1250166437&#45;&gt;http://purl.org/dj/kaggle/where&#45;is&#45;my&#45;output&#45;file#673514711 -->
<g id="edge16" class="edge">
<title>http://purl.org/dj/kaggle/where&#45;is&#45;my&#45;output&#45;file#1250166437&#45;&gt;http://purl.org/dj/kaggle/where&#45;is&#45;my&#45;output&#45;file#673514711</title>
<path fill="none" stroke="black" d="M1052.35,-607.29C1071.78,-602.05 1092.68,-595.58 1111.39,-588 1182.77,-559.07 1260.11,-512.68 1303.28,-485.29"/>
<polygon fill="black" stroke="black" points="1305.41,-488.08 1311.96,-479.75 1301.64,-482.18 1305.41,-488.08"/>
<text text-anchor="middle" x="1215.89" y="-566.3" font-family="Times,serif" font-size="14.00">DataFrame</text>
</g>
<!-- http://purl.org/dj/kaggle/where&#45;is&#45;my&#45;output&#45;file#437060570 -->
<g id="node14" class="node">
<title>http://purl.org/dj/kaggle/where&#45;is&#45;my&#45;output&#45;file#437060570</title>
<ellipse fill="none" stroke="black" cx="1656.39" cy="-354" rx="126.98" ry="18"/>
<text text-anchor="middle" x="1656.39" y="-350.3" font-family="Times,serif" font-size="14.00">437060570 (Survived(0): Reuse)</text>
</g>
<!-- http://purl.org/dj/kaggle/where&#45;is&#45;my&#45;output&#45;file#1250166437&#45;&gt;http://purl.org/dj/kaggle/where&#45;is&#45;my&#45;output&#45;file#437060570 -->
<g id="edge17" class="edge">
<title>http://purl.org/dj/kaggle/where&#45;is&#45;my&#45;output&#45;file#1250166437&#45;&gt;http://purl.org/dj/kaggle/where&#45;is&#45;my&#45;output&#45;file#437060570</title>
<path fill="none" stroke="black" d="M1123.82,-612.63C1165.15,-607.43 1210.04,-599.65 1250.39,-588 1360.43,-556.22 1385.58,-537.95 1484.39,-480 1537.81,-448.67 1595.09,-404.71 1628.22,-378.14"/>
<polygon fill="black" stroke="black" points="1630.52,-380.78 1636.11,-371.78 1626.13,-375.33 1630.52,-380.78"/>
<text text-anchor="middle" x="1497.89" y="-512.3" font-family="Times,serif" font-size="14.00">previousActivity</text>
</g>
<!-- http://purl.org/dj/kaggle/where&#45;is&#45;my&#45;output&#45;file#29687986&#45;&gt;http://purl.org/dj/kaggle/where&#45;is&#45;my&#45;output&#45;file -->
<g id="edge18" class="edge">
<title>http://purl.org/dj/kaggle/where&#45;is&#45;my&#45;output&#45;file#29687986&#45;&gt;http://purl.org/dj/kaggle/where&#45;is&#45;my&#45;output&#45;file</title>
<path fill="none" stroke="black" d="M835.72,-282.7C770.96,-246.32 631.34,-156.26 695.39,-87 746.24,-32 1238.78,-21.41 1458.49,-19.42"/>
<polygon fill="black" stroke="black" points="1458.78,-22.92 1468.75,-19.34 1458.72,-15.92 1458.78,-22.92"/>
<text text-anchor="middle" x="744.89" y="-155.3" font-family="Times,serif" font-size="14.00">previousActivity</text>
</g>
<!-- http://purl.org/dj/kaggle/where&#45;is&#45;my&#45;output&#45;file#262013591&#45;&gt;http://purl.org/dj/kaggle/where&#45;is&#45;my&#45;output&#45;file#261948054 -->
<g id="edge19" class="edge">
<title>http://purl.org/dj/kaggle/where&#45;is&#45;my&#45;output&#45;file#262013591&#45;&gt;http://purl.org/dj/kaggle/where&#45;is&#45;my&#45;output&#45;file#261948054</title>
<path fill="none" stroke="black" d="M764.61,-390.01C759.37,-384.53 753.86,-378.25 749.39,-372 738.86,-357.28 745.33,-346.2 730.39,-336 702.98,-317.29 630.63,-308.48 562.83,-304.37"/>
<polygon fill="black" stroke="black" points="562.61,-300.85 552.43,-303.78 562.21,-307.84 562.61,-300.85"/>
<text text-anchor="middle" x="794.89" y="-350.3" font-family="Times,serif" font-size="14.00">previousActivity</text>
</g>
<!-- http://purl.org/dj/kaggle/where&#45;is&#45;my&#45;output&#45;file#262013591&#45;&gt;http://purl.org/dj/kaggle/where&#45;is&#45;my&#45;output&#45;file#29687986 -->
<g id="edge20" class="edge">
<title>http://purl.org/dj/kaggle/where&#45;is&#45;my&#45;output&#45;file#262013591&#45;&gt;http://purl.org/dj/kaggle/where&#45;is&#45;my&#45;output&#45;file#29687986</title>
<path fill="none" stroke="black" d="M821.53,-390.84C830.01,-385.84 838.26,-379.6 844.39,-372 854.39,-359.59 859.86,-342.63 862.85,-328.4"/>
<polygon fill="black" stroke="black" points="866.36,-328.62 864.68,-318.16 859.47,-327.39 866.36,-328.62"/>
<text text-anchor="middle" x="899.89" y="-350.3" font-family="Times,serif" font-size="14.00">assignedFrom</text>
</g>
<!-- http://purl.org/dj/kaggle/where&#45;is&#45;my&#45;output&#45;file#262079128&#45;&gt;http://purl.org/dj/kaggle/where&#45;is&#45;my&#45;output&#45;file#262013591 -->
<g id="edge21" class="edge">
<title>http://purl.org/dj/kaggle/where&#45;is&#45;my&#45;output&#45;file#262079128&#45;&gt;http://purl.org/dj/kaggle/where&#45;is&#45;my&#45;output&#45;file#262013591</title>
<path fill="none" stroke="black" d="M801.55,-498.76C794.3,-493.81 787.63,-487.61 783.39,-480 776.06,-466.88 775.49,-450.15 776.89,-436.23"/>
<polygon fill="black" stroke="black" points="780.37,-436.62 778.28,-426.23 773.44,-435.66 780.37,-436.62"/>
<text text-anchor="middle" x="821.89" y="-458.3" font-family="Times,serif" font-size="14.00">assignedFrom</text>
</g>
<!-- http://purl.org/dj/kaggle/where&#45;is&#45;my&#45;output&#45;file#262079128&#45;&gt;http://purl.org/dj/kaggle/where&#45;is&#45;my&#45;output&#45;file#29950131 -->
<g id="edge22" class="edge">
<title>http://purl.org/dj/kaggle/where&#45;is&#45;my&#45;output&#45;file#262079128&#45;&gt;http://purl.org/dj/kaggle/where&#45;is&#45;my&#45;output&#45;file#29950131</title>
<path fill="none" stroke="black" d="M849.18,-497.88C862.39,-476.94 883.05,-444.22 883.39,-444 904.02,-430.45 958.49,-421.74 1008.31,-416.4"/>
<polygon fill="black" stroke="black" points="1008.94,-419.86 1018.53,-415.35 1008.22,-412.89 1008.94,-419.86"/>
<text text-anchor="middle" x="921.89" y="-458.3" font-family="Times,serif" font-size="14.00">assignedFrom</text>
</g>
<!-- http://purl.org/dj/kaggle/where&#45;is&#45;my&#45;output&#45;file#29950131&#45;&gt;http://purl.org/dj/kaggle/where&#45;is&#45;my&#45;output&#45;file -->
<g id="edge23" class="edge">
<title>http://purl.org/dj/kaggle/where&#45;is&#45;my&#45;output&#45;file#29950131&#45;&gt;http://purl.org/dj/kaggle/where&#45;is&#45;my&#45;output&#45;file</title>
<path fill="none" stroke="black" d="M1134.11,-390.81C1201.83,-351.62 1374.29,-245.78 1487.39,-123 1511.87,-96.42 1508.33,-82.62 1530.39,-54 1533.16,-50.41 1536.24,-46.76 1539.37,-43.25"/>
<polygon fill="black" stroke="black" points="1542,-45.56 1546.22,-35.84 1536.86,-40.8 1542,-45.56"/>
<text text-anchor="middle" x="1455.89" y="-209.3" font-family="Times,serif" font-size="14.00">previousActivity</text>
</g>
<!-- http://purl.org/dj/kaggle/where&#45;is&#45;my&#45;output&#45;file#673514711&#45;&gt;http://purl.org/dj/kaggle/where&#45;is&#45;my&#45;output&#45;file -->
<g id="edge24" class="edge">
<title>http://purl.org/dj/kaggle/where&#45;is&#45;my&#45;output&#45;file#673514711&#45;&gt;http://purl.org/dj/kaggle/where&#45;is&#45;my&#45;output&#45;file</title>
<path fill="none" stroke="black" d="M1353.31,-443.97C1386.41,-407.65 1463.11,-318.76 1505.39,-231 1535.55,-168.38 1552.15,-87.55 1559.22,-46.12"/>
<polygon fill="black" stroke="black" points="1562.68,-46.67 1560.85,-36.23 1555.77,-45.53 1562.68,-46.67"/>
<text text-anchor="middle" x="1522.89" y="-252.8" font-family="Times,serif" font-size="14.00">appearsIn</text>
</g>
<!-- http://purl.org/dj/kaggle/where&#45;is&#45;my&#45;output&#45;file#437060570&#45;&gt;http://purl.org/dj/kaggle/where&#45;is&#45;my&#45;output&#45;file -->
<g id="edge25" class="edge">
<title>http://purl.org/dj/kaggle/where&#45;is&#45;my&#45;output&#45;file#437060570&#45;&gt;http://purl.org/dj/kaggle/where&#45;is&#45;my&#45;output&#45;file</title>
<path fill="none" stroke="black" d="M1632.16,-336.3C1610.57,-319.25 1582.39,-290.64 1582.39,-257.5 1582.39,-257.5 1582.39,-257.5 1582.39,-104 1582.39,-84.09 1577.36,-62.17 1572.48,-45.58"/>
<polygon fill="black" stroke="black" points="1575.81,-44.52 1569.5,-36.01 1569.13,-46.6 1575.81,-44.52"/>
<text text-anchor="middle" x="1608.89" y="-209.3" font-family="Times,serif" font-size="14.00">appearsIn</text>
</g>
<!-- http://purl.org/dj/kaggle/where&#45;is&#45;my&#45;output&#45;file#249824024 -->
<g id="node15" class="node">
<title>http://purl.org/dj/kaggle/where&#45;is&#45;my&#45;output&#45;file#249824024</title>
<ellipse fill="none" stroke="black" cx="1789.39" cy="-213" rx="136.48" ry="18"/>
<text text-anchor="middle" x="1789.39" y="-209.3" font-family="Times,serif" font-size="14.00">249824024 (print[2]: Visualisation)</text>
</g>
<!-- http://purl.org/dj/kaggle/where&#45;is&#45;my&#45;output&#45;file#164692489 -->
<g id="node16" class="node">
<title>http://purl.org/dj/kaggle/where&#45;is&#45;my&#45;output&#45;file#164692489</title>
<ellipse fill="none" stroke="black" cx="1719.39" cy="-105" rx="109.38" ry="18"/>
<text text-anchor="middle" x="1719.39" y="-101.3" font-family="Times,serif" font-size="14.00">164692489 (utf8(0): Reuse)</text>
</g>
<!-- http://purl.org/dj/kaggle/where&#45;is&#45;my&#45;output&#45;file#249824024&#45;&gt;http://purl.org/dj/kaggle/where&#45;is&#45;my&#45;output&#45;file#164692489 -->
<g id="edge26" class="edge">
<title>http://purl.org/dj/kaggle/where&#45;is&#45;my&#45;output&#45;file#249824024&#45;&gt;http://purl.org/dj/kaggle/where&#45;is&#45;my&#45;output&#45;file#164692489</title>
<path fill="none" stroke="black" d="M1778.14,-194.97C1766.81,-177.82 1749.2,-151.14 1736.21,-131.47"/>
<polygon fill="black" stroke="black" points="1739.04,-129.4 1730.61,-122.99 1733.2,-133.26 1739.04,-129.4"/>
<text text-anchor="middle" x="1810.89" y="-155.3" font-family="Times,serif" font-size="14.00">previousActivity</text>
</g>
<!-- http://purl.org/dj/kaggle/where&#45;is&#45;my&#45;output&#45;file#164692489&#45;&gt;http://purl.org/dj/kaggle/where&#45;is&#45;my&#45;output&#45;file -->
<g id="edge27" class="edge">
<title>http://purl.org/dj/kaggle/where&#45;is&#45;my&#45;output&#45;file#164692489&#45;&gt;http://purl.org/dj/kaggle/where&#45;is&#45;my&#45;output&#45;file</title>
<path fill="none" stroke="black" d="M1689.31,-87.61C1664.41,-74.04 1628.88,-54.68 1601.9,-39.98"/>
<polygon fill="black" stroke="black" points="1603.56,-36.91 1593.11,-35.19 1600.21,-43.05 1603.56,-36.91"/>
<text text-anchor="middle" x="1677.89" y="-57.8" font-family="Times,serif" font-size="14.00">appearsIn</text>
</g>
<!-- http://purl.org/dj/kaggle/where&#45;is&#45;my&#45;output&#45;file#249561878 -->
<g id="node17" class="node">
<title>http://purl.org/dj/kaggle/where&#45;is&#45;my&#45;output&#45;file#249561878</title>
<ellipse fill="none" stroke="black" cx="2038.39" cy="-408" rx="136.48" ry="18"/>
<text text-anchor="middle" x="2038.39" y="-404.3" font-family="Times,serif" font-size="14.00">249561878 (print[0]: Visualisation)</text>
</g>
<!-- http://purl.org/dj/python/lib/397411402 -->
<g id="node18" class="node">
<title>http://purl.org/dj/python/lib/397411402</title>
<ellipse fill="none" stroke="black" cx="1970.39" cy="-105" rx="123.48" ry="18"/>
<text text-anchor="middle" x="1970.39" y="-101.3" font-family="Times,serif" font-size="14.00">397411402 (subprocess: Reuse)</text>
</g>
<!-- http://purl.org/dj/kaggle/where&#45;is&#45;my&#45;output&#45;file#249561878&#45;&gt;http://purl.org/dj/python/lib/397411402 -->
<g id="edge28" class="edge">
<title>http://purl.org/dj/kaggle/where&#45;is&#45;my&#45;output&#45;file#249561878&#45;&gt;http://purl.org/dj/python/lib/397411402</title>
<path fill="none" stroke="black" d="M2020.41,-389.89C2004.35,-373.28 1981.93,-346.45 1972.39,-318 1951.1,-254.58 1959.03,-174.35 1965.42,-133.15"/>
<polygon fill="black" stroke="black" points="1968.91,-133.51 1967.08,-123.08 1962,-132.38 1968.91,-133.51"/>
<text text-anchor="middle" x="2006.89" y="-252.8" font-family="Times,serif" font-size="14.00">previousActivity</text>
</g>
<!-- http://purl.org/dj/kaggle/where&#45;is&#45;my&#45;output&#45;file#806684048 -->
<g id="node19" class="node">
<title>http://purl.org/dj/kaggle/where&#45;is&#45;my&#45;output&#45;file#806684048</title>
<ellipse fill="none" stroke="black" cx="2123.39" cy="-300" rx="142.17" ry="18"/>
<text text-anchor="middle" x="2123.39" y="-296.3" font-family="Times,serif" font-size="14.00">806684048 (check_output(0): Reuse)</text>
</g>
<!-- http://purl.org/dj/kaggle/where&#45;is&#45;my&#45;output&#45;file#249561878&#45;&gt;http://purl.org/dj/kaggle/where&#45;is&#45;my&#45;output&#45;file#806684048 -->
<g id="edge29" class="edge">
<title>http://purl.org/dj/kaggle/where&#45;is&#45;my&#45;output&#45;file#249561878&#45;&gt;http://purl.org/dj/kaggle/where&#45;is&#45;my&#45;output&#45;file#806684048</title>
<path fill="none" stroke="black" d="M2052.04,-389.97C2065.92,-372.66 2087.57,-345.66 2103.38,-325.94"/>
<polygon fill="black" stroke="black" points="2106.24,-327.98 2109.76,-317.99 2100.78,-323.6 2106.24,-327.98"/>
<text text-anchor="middle" x="2139.89" y="-350.3" font-family="Times,serif" font-size="14.00">previousActivity</text>
</g>
<!-- http://purl.org/dj/python/lib/397411402&#45;&gt;http://purl.org/dj/kaggle/where&#45;is&#45;my&#45;output&#45;file -->
<g id="edge30" class="edge">
<title>http://purl.org/dj/python/lib/397411402&#45;&gt;http://purl.org/dj/kaggle/where&#45;is&#45;my&#45;output&#45;file</title>
<path fill="none" stroke="black" d="M1902.72,-89.87C1828.52,-74.37 1709.98,-49.62 1634.46,-33.84"/>
<polygon fill="black" stroke="black" points="1635.06,-30.39 1624.55,-31.77 1633.62,-37.24 1635.06,-30.39"/>
<text text-anchor="middle" x="1836.89" y="-57.8" font-family="Times,serif" font-size="14.00">previousActivity</text>
</g>
<!-- http://purl.org/dj/kaggle/where&#45;is&#45;my&#45;output&#45;file#806684048&#45;&gt;http://purl.org/dj/kaggle/where&#45;is&#45;my&#45;output&#45;file -->
<g id="edge31" class="edge">
<title>http://purl.org/dj/kaggle/where&#45;is&#45;my&#45;output&#45;file#806684048&#45;&gt;http://purl.org/dj/kaggle/where&#45;is&#45;my&#45;output&#45;file</title>
<path fill="none" stroke="black" d="M2173.8,-283.04C2221.24,-265.24 2281.26,-233.79 2254.39,-195 2241.41,-176.27 2225.97,-188.64 2206.39,-177 2153.83,-145.78 2157.89,-112.62 2102.39,-87 2026.54,-51.99 1797.6,-32.87 1663.74,-24.42"/>
<polygon fill="black" stroke="black" points="1663.67,-20.91 1653.47,-23.78 1663.23,-27.89 1663.67,-20.91"/>
<text text-anchor="middle" x="2251.89" y="-155.3" font-family="Times,serif" font-size="14.00">previousActivity</text>
</g>
<!-- http://purl.org/dj/python/lib/535233807 -->
<g id="node20" class="node">
<title>http://purl.org/dj/python/lib/535233807</title>
<ellipse fill="none" stroke="black" cx="2113.39" cy="-213" rx="131.88" ry="18"/>
<text text-anchor="middle" x="2113.39" y="-209.3" font-family="Times,serif" font-size="14.00">535233807 (check_output: Reuse)</text>
</g>
<!-- http://purl.org/dj/kaggle/where&#45;is&#45;my&#45;output&#45;file#806684048&#45;&gt;http://purl.org/dj/python/lib/535233807 -->
<g id="edge32" class="edge">
<title>http://purl.org/dj/kaggle/where&#45;is&#45;my&#45;output&#45;file#806684048&#45;&gt;http://purl.org/dj/python/lib/535233807</title>
<path fill="none" stroke="black" d="M2121.36,-281.8C2119.99,-270.16 2118.16,-254.55 2116.59,-241.24"/>
<polygon fill="black" stroke="black" points="2120.05,-240.7 2115.41,-231.18 2113.1,-241.52 2120.05,-240.7"/>
<text text-anchor="middle" x="2157.89" y="-252.8" font-family="Times,serif" font-size="14.00">assignedFrom</text>
</g>
<!-- http://purl.org/dj/python/lib/535233807&#45;&gt;http://purl.org/dj/python/lib/397411402 -->
<g id="edge34" class="edge">
<title>http://purl.org/dj/python/lib/535233807&#45;&gt;http://purl.org/dj/python/lib/397411402</title>
<path fill="none" stroke="black" d="M2090.73,-195.2C2066.57,-177.29 2028.15,-148.82 2001.24,-128.87"/>
<polygon fill="black" stroke="black" points="2003.06,-125.86 1992.94,-122.72 1998.89,-131.48 2003.06,-125.86"/>
<text text-anchor="middle" x="2096.39" y="-155.3" font-family="Times,serif" font-size="14.00">importedBy</text>
</g>
<!-- http://purl.org/dj/kaggle/where&#45;is&#45;my&#45;output&#45;file#1437534077 -->
<g id="node21" class="node">
<title>http://purl.org/dj/kaggle/where&#45;is&#45;my&#45;output&#45;file#1437534077</title>
<ellipse fill="none" stroke="black" cx="2033.39" cy="-570" rx="165.17" ry="18"/>
<text text-anchor="middle" x="2033.39" y="-566.3" font-family="Times,serif" font-size="14.00">1437534077 (csv_to_submit.csv(0): Reuse)</text>
</g>
<!-- http://purl.org/dj/kaggle/where&#45;is&#45;my&#45;output&#45;file#1437534077&#45;&gt;http://purl.org/dj/kaggle/where&#45;is&#45;my&#45;output&#45;file -->
<g id="edge33" class="edge">
<title>http://purl.org/dj/kaggle/where&#45;is&#45;my&#45;output&#45;file#1437534077&#45;&gt;http://purl.org/dj/kaggle/where&#45;is&#45;my&#45;output&#45;file</title>
<path fill="none" stroke="black" d="M2114.92,-554.26C2196.95,-537.04 2311.39,-505.42 2311.39,-463 2311.39,-463 2311.39,-463 2311.39,-104 2311.39,-40.02 1873.73,-24.18 1667.96,-20.28"/>
<polygon fill="black" stroke="black" points="1667.8,-16.77 1657.74,-20.09 1667.68,-23.77 1667.8,-16.77"/>
<text text-anchor="middle" x="2356.89" y="-296.3" font-family="Times,serif" font-size="14.00">previousActivity</text>
</g>
<!-- http://purl.org/dj/kaggle/where&#45;is&#45;my&#45;output&#45;file#82575712 -->
<g id="node22" class="node">
<title>http://purl.org/dj/kaggle/where&#45;is&#45;my&#45;output&#45;file#82575712</title>
<ellipse fill="none" stroke="black" cx="2488.39" cy="-213" rx="99.38" ry="18"/>
<text text-anchor="middle" x="2488.39" y="-209.3" font-family="Times,serif" font-size="14.00">82575712 (np(0): Reuse)</text>
</g>
<!-- http://purl.org/dj/kaggle/where&#45;is&#45;my&#45;output&#45;file#82575712&#45;&gt;http://purl.org/dj/kaggle/where&#45;is&#45;my&#45;output&#45;file -->
<g id="edge35" class="edge">
<title>http://purl.org/dj/kaggle/where&#45;is&#45;my&#45;output&#45;file#82575712&#45;&gt;http://purl.org/dj/kaggle/where&#45;is&#45;my&#45;output&#45;file</title>
<path fill="none" stroke="black" d="M2459.68,-195.72C2433.2,-179.68 2393.91,-153.25 2366.39,-123 2342.38,-96.62 2355.98,-72.35 2325.39,-54 2270.51,-21.09 1864.2,-17.92 1668.36,-18.35"/>
<polygon fill="black" stroke="black" points="1668.33,-14.85 1658.33,-18.37 1668.34,-21.85 1668.33,-14.85"/>
<text text-anchor="middle" x="2392.89" y="-101.3" font-family="Times,serif" font-size="14.00">appearsIn</text>
</g>
<!-- http://purl.org/dj/python/lib/111084090 -->
<g id="node23" class="node">
<title>http://purl.org/dj/python/lib/111084090</title>
<ellipse fill="none" stroke="black" cx="2538.39" cy="-105" rx="109.68" ry="18"/>
<text text-anchor="middle" x="2538.39" y="-101.3" font-family="Times,serif" font-size="14.00">111084090 (numpy: Reuse)</text>
</g>
<!-- http://purl.org/dj/kaggle/where&#45;is&#45;my&#45;output&#45;file#82575712&#45;&gt;http://purl.org/dj/python/lib/111084090 -->
<g id="edge36" class="edge">
<title>http://purl.org/dj/kaggle/where&#45;is&#45;my&#45;output&#45;file#82575712&#45;&gt;http://purl.org/dj/python/lib/111084090</title>
<path fill="none" stroke="black" d="M2496.42,-194.97C2504.4,-178.05 2516.75,-151.86 2525.99,-132.28"/>
<polygon fill="black" stroke="black" points="2529.27,-133.53 2530.37,-122.99 2522.94,-130.54 2529.27,-133.53"/>
<text text-anchor="middle" x="2558.89" y="-155.3" font-family="Times,serif" font-size="14.00">assignedFrom</text>
</g>
<!-- http://purl.org/dj/python/lib/111084090&#45;&gt;http://purl.org/dj/kaggle/where&#45;is&#45;my&#45;output&#45;file -->
<g id="edge37" class="edge">
<title>http://purl.org/dj/python/lib/111084090&#45;&gt;http://purl.org/dj/kaggle/where&#45;is&#45;my&#45;output&#45;file</title>
<path fill="none" stroke="black" d="M2496.52,-88.31C2463.15,-76.58 2414.96,-61.35 2371.39,-54 2239.26,-31.71 1855.01,-23.2 1668.03,-20.32"/>
<polygon fill="black" stroke="black" points="1667.97,-16.81 1657.92,-20.16 1667.86,-23.81 1667.97,-16.81"/>
<text text-anchor="middle" x="2476.89" y="-57.8" font-family="Times,serif" font-size="14.00">previousActivity</text>
</g>
<!-- http://purl.org/dj/kaggle/where&#45;is&#45;my&#45;output&#45;file#1250231974 -->
<g id="node24" class="node">
<title>http://purl.org/dj/kaggle/where&#45;is&#45;my&#45;output&#45;file#1250231974</title>
<ellipse fill="none" stroke="black" cx="1139.39" cy="-711" rx="163.27" ry="18"/>
<text text-anchor="middle" x="1139.39" y="-707.3" font-family="Times,serif" font-size="14.00">1250231974 (data_to_submit(0)$1: Reuse)</text>
</g>
<!-- http://purl.org/dj/kaggle/where&#45;is&#45;my&#45;output&#45;file#1250231974&#45;&gt;http://purl.org/dj/kaggle/where&#45;is&#45;my&#45;output&#45;file#1250166437 -->
<g id="edge38" class="edge">
<title>http://purl.org/dj/kaggle/where&#45;is&#45;my&#45;output&#45;file#1250231974&#45;&gt;http://purl.org/dj/kaggle/where&#45;is&#45;my&#45;output&#45;file#1250166437</title>
<path fill="none" stroke="black" d="M1108.37,-693.21C1083.75,-679.88 1049.14,-661.14 1022.43,-646.68"/>
<polygon fill="black" stroke="black" points="1023.8,-643.44 1013.34,-641.76 1020.47,-649.6 1023.8,-643.44"/>
<text text-anchor="middle" x="1088.39" y="-663.8" font-family="Times,serif" font-size="14.00">to_csv</text>
</g>
<!-- http://purl.org/dj/kaggle/where&#45;is&#45;my&#45;output&#45;file#1250231974&#45;&gt;http://purl.org/dj/kaggle/where&#45;is&#45;my&#45;output&#45;file#1437534077 -->
<g id="edge39" class="edge">
<title>http://purl.org/dj/kaggle/where&#45;is&#45;my&#45;output&#45;file#1250231974&#45;&gt;http://purl.org/dj/kaggle/where&#45;is&#45;my&#45;output&#45;file#1437534077</title>
<path fill="none" stroke="black" d="M1229.61,-695.97C1397.6,-669.85 1757.13,-613.95 1932.72,-586.65"/>
<polygon fill="black" stroke="black" points="1933.39,-590.09 1942.74,-585.09 1932.32,-583.17 1933.39,-590.09"/>
<text text-anchor="middle" x="1472.39" y="-663.8" font-family="Times,serif" font-size="14.00">to_csv</text>
</g>
</g>
</svg>
