<?xml version="1.0" encoding="UTF-8" standalone="no"?>
<!DOCTYPE svg PUBLIC "-//W3C//DTD SVG 1.1//EN"
 "http://www.w3.org/Graphics/SVG/1.1/DTD/svg11.dtd">
<!-- Generated by graphviz version 2.47.1 (20210417.1919)
 -->
<!-- Pages: 1 -->
<svg width="2250pt" height="803pt"
 viewBox="0.00 0.00 2249.67 803.00" xmlns="http://www.w3.org/2000/svg" xmlns:xlink="http://www.w3.org/1999/xlink">
<g id="graph0" class="graph" transform="scale(1 1) rotate(0) translate(4 799)">
<polygon fill="white" stroke="transparent" points="-4,4 -4,-799 2245.67,-799 2245.67,4 -4,4"/>
<!-- http://purl.org/dj/kaggle/why&#45;not&#45;logistic&#45;regression/activity/5747831189245348964 -->
<g id="node1" class="node">
<title>http://purl.org/dj/kaggle/why&#45;not&#45;logistic&#45;regression/activity/5747831189245348964</title>
<ellipse fill="none" stroke="black" cx="397.44" cy="-192" rx="133.48" ry="18"/>
<text text-anchor="middle" x="397.44" y="-188.3" font-family="Times,serif" font-size="14.00">5747831189245348964 (Analysis)</text>
</g>
<!-- http://purl.org/dj/kaggle/why&#45;not&#45;logistic&#45;regression/activity/&#45;7865637835199568873 -->
<g id="node2" class="node">
<title>http://purl.org/dj/kaggle/why&#45;not&#45;logistic&#45;regression/activity/&#45;7865637835199568873</title>
<ellipse fill="none" stroke="black" cx="1219.44" cy="-105" rx="126.98" ry="18"/>
<text text-anchor="middle" x="1219.44" y="-101.3" font-family="Times,serif" font-size="14.00">&#45;7865637835199568873 (Reuse)</text>
</g>
<!-- http://purl.org/dj/kaggle/why&#45;not&#45;logistic&#45;regression/activity/5747831189245348964&#45;&gt;http://purl.org/dj/kaggle/why&#45;not&#45;logistic&#45;regression/activity/&#45;7865637835199568873 -->
<g id="edge1" class="edge">
<title>http://purl.org/dj/kaggle/why&#45;not&#45;logistic&#45;regression/activity/5747831189245348964&#45;&gt;http://purl.org/dj/kaggle/why&#45;not&#45;logistic&#45;regression/activity/&#45;7865637835199568873</title>
<path fill="none" stroke="black" d="M423.4,-174.24C442.92,-162.6 470.77,-147.98 497.44,-141 604.1,-113.08 904.49,-107 1082.41,-105.93"/>
<polygon fill="black" stroke="black" points="1082.65,-109.43 1092.63,-105.87 1082.61,-102.43 1082.65,-109.43"/>
<text text-anchor="middle" x="520.94" y="-144.8" font-family="Times,serif" font-size="14.00">previous</text>
</g>
<!-- http://purl.org/dj/kaggle/why&#45;not&#45;logistic&#45;regression -->
<g id="node3" class="node">
<title>http://purl.org/dj/kaggle/why&#45;not&#45;logistic&#45;regression</title>
<ellipse fill="none" stroke="black" cx="1695.44" cy="-18" rx="235.06" ry="18"/>
<text text-anchor="middle" x="1695.44" y="-14.3" font-family="Times,serif" font-size="14.00">why&#45;not&#45;logistic&#45;regression (why&#45;not&#45;logistic&#45;regression.ipynb)</text>
</g>
<!-- http://purl.org/dj/kaggle/why&#45;not&#45;logistic&#45;regression/activity/&#45;7865637835199568873&#45;&gt;http://purl.org/dj/kaggle/why&#45;not&#45;logistic&#45;regression -->
<g id="edge2" class="edge">
<title>http://purl.org/dj/kaggle/why&#45;not&#45;logistic&#45;regression/activity/&#45;7865637835199568873&#45;&gt;http://purl.org/dj/kaggle/why&#45;not&#45;logistic&#45;regression</title>
<path fill="none" stroke="black" d="M1294.86,-90.53C1376.73,-75.91 1507.75,-52.51 1597.51,-36.49"/>
<polygon fill="black" stroke="black" points="1598.2,-39.92 1607.43,-34.72 1596.97,-33.03 1598.2,-39.92"/>
<text text-anchor="middle" x="1509.94" y="-57.8" font-family="Times,serif" font-size="14.00">previous</text>
</g>
<!-- http://purl.org/dj/kaggle/why&#45;not&#45;logistic&#45;regression/activity/&#45;1884796743085500963 -->
<g id="node4" class="node">
<title>http://purl.org/dj/kaggle/why&#45;not&#45;logistic&#45;regression/activity/&#45;1884796743085500963</title>
<ellipse fill="none" stroke="black" cx="554.44" cy="-462" rx="151.37" ry="18"/>
<text text-anchor="middle" x="554.44" y="-458.3" font-family="Times,serif" font-size="14.00">&#45;1884796743085500963 (Visualisation)</text>
</g>
<!-- http://purl.org/dj/kaggle/why&#45;not&#45;logistic&#45;regression/activity/&#45;1884796743085500963&#45;&gt;http://purl.org/dj/kaggle/why&#45;not&#45;logistic&#45;regression/activity/&#45;7865637835199568873 -->
<g id="edge3" class="edge">
<title>http://purl.org/dj/kaggle/why&#45;not&#45;logistic&#45;regression/activity/&#45;1884796743085500963&#45;&gt;http://purl.org/dj/kaggle/why&#45;not&#45;logistic&#45;regression/activity/&#45;7865637835199568873</title>
<path fill="none" stroke="black" d="M568.92,-443.89C584.31,-423.91 606.44,-389.23 606.44,-355 606.44,-355 606.44,-355 606.44,-191 606.44,-149.45 645.93,-153.87 685.44,-141 756.63,-117.81 949.85,-109.95 1083.22,-107.31"/>
<polygon fill="black" stroke="black" points="1083.59,-110.8 1093.52,-107.11 1083.45,-103.8 1083.59,-110.8"/>
<text text-anchor="middle" x="629.94" y="-296.3" font-family="Times,serif" font-size="14.00">previous</text>
</g>
<!-- http://purl.org/dj/kaggle/why&#45;not&#45;logistic&#45;regression/activity/1389407507219550542 -->
<g id="node5" class="node">
<title>http://purl.org/dj/kaggle/why&#45;not&#45;logistic&#45;regression/activity/1389407507219550542</title>
<ellipse fill="none" stroke="black" cx="1095.44" cy="-192" rx="148.67" ry="18"/>
<text text-anchor="middle" x="1095.44" y="-188.3" font-family="Times,serif" font-size="14.00">1389407507219550542 (Visualisation)</text>
</g>
<!-- http://purl.org/dj/kaggle/why&#45;not&#45;logistic&#45;regression/activity/1389407507219550542&#45;&gt;http://purl.org/dj/kaggle/why&#45;not&#45;logistic&#45;regression/activity/&#45;7865637835199568873 -->
<g id="edge4" class="edge">
<title>http://purl.org/dj/kaggle/why&#45;not&#45;logistic&#45;regression/activity/1389407507219550542&#45;&gt;http://purl.org/dj/kaggle/why&#45;not&#45;logistic&#45;regression/activity/&#45;7865637835199568873</title>
<path fill="none" stroke="black" d="M1119.93,-174.21C1139.04,-161.11 1165.76,-142.8 1186.7,-128.44"/>
<polygon fill="black" stroke="black" points="1188.72,-131.3 1194.99,-122.76 1184.76,-125.53 1188.72,-131.3"/>
<text text-anchor="middle" x="1188.94" y="-144.8" font-family="Times,serif" font-size="14.00">previous</text>
</g>
<!-- http://purl.org/dj/kaggle/why&#45;not&#45;logistic&#45;regression/activity/3652529042460770712 -->
<g id="node6" class="node">
<title>http://purl.org/dj/kaggle/why&#45;not&#45;logistic&#45;regression/activity/3652529042460770712</title>
<ellipse fill="none" stroke="black" cx="1364.44" cy="-690" rx="142.97" ry="18"/>
<text text-anchor="middle" x="1364.44" y="-686.3" font-family="Times,serif" font-size="14.00">3652529042460770712 (Preparation)</text>
</g>
<!-- http://purl.org/dj/kaggle/why&#45;not&#45;logistic&#45;regression/activity/3652529042460770712&#45;&gt;http://purl.org/dj/kaggle/why&#45;not&#45;logistic&#45;regression/activity/&#45;7865637835199568873 -->
<g id="edge5" class="edge">
<title>http://purl.org/dj/kaggle/why&#45;not&#45;logistic&#45;regression/activity/3652529042460770712&#45;&gt;http://purl.org/dj/kaggle/why&#45;not&#45;logistic&#45;regression/activity/&#45;7865637835199568873</title>
<path fill="none" stroke="black" d="M1486.12,-680.5C1636.4,-668.33 1872.44,-643.01 1872.44,-604 1872.44,-604 1872.44,-604 1872.44,-191 1872.44,-139.02 1542.86,-118 1351.99,-110.18"/>
<polygon fill="black" stroke="black" points="1352.01,-106.68 1341.88,-109.77 1351.73,-113.67 1352.01,-106.68"/>
<text text-anchor="middle" x="1895.94" y="-404.3" font-family="Times,serif" font-size="14.00">previous</text>
</g>
<!-- http://purl.org/dj/kaggle/why&#45;not&#45;logistic&#45;regression/activity/3652529042460770712&#45;&gt;http://purl.org/dj/kaggle/why&#45;not&#45;logistic&#45;regression/activity/1389407507219550542 -->
<g id="edge6" class="edge">
<title>http://purl.org/dj/kaggle/why&#45;not&#45;logistic&#45;regression/activity/3652529042460770712&#45;&gt;http://purl.org/dj/kaggle/why&#45;not&#45;logistic&#45;regression/activity/1389407507219550542</title>
<path fill="none" stroke="black" d="M1260.01,-677.6C1171.18,-661.74 1048.83,-623.94 989.44,-534 939.52,-458.4 1091.44,-461.01 1111.44,-426 1131.09,-391.59 1111.4,-273.89 1100.99,-220.15"/>
<polygon fill="black" stroke="black" points="1104.42,-219.43 1099.05,-210.3 1097.55,-220.79 1104.42,-219.43"/>
<text text-anchor="middle" x="1108.94" y="-458.3" font-family="Times,serif" font-size="14.00">previous</text>
</g>
<!-- http://purl.org/dj/kaggle/why&#45;not&#45;logistic&#45;regression/activity/&#45;5083234466463898012 -->
<g id="node7" class="node">
<title>http://purl.org/dj/kaggle/why&#45;not&#45;logistic&#45;regression/activity/&#45;5083234466463898012</title>
<ellipse fill="none" stroke="black" cx="640.44" cy="-603" rx="135.68" ry="18"/>
<text text-anchor="middle" x="640.44" y="-599.3" font-family="Times,serif" font-size="14.00">&#45;5083234466463898012 (Analysis)</text>
</g>
<!-- http://purl.org/dj/kaggle/why&#45;not&#45;logistic&#45;regression/activity/3652529042460770712&#45;&gt;http://purl.org/dj/kaggle/why&#45;not&#45;logistic&#45;regression/activity/&#45;5083234466463898012 -->
<g id="edge7" class="edge">
<title>http://purl.org/dj/kaggle/why&#45;not&#45;logistic&#45;regression/activity/3652529042460770712&#45;&gt;http://purl.org/dj/kaggle/why&#45;not&#45;logistic&#45;regression/activity/&#45;5083234466463898012</title>
<path fill="none" stroke="black" d="M1263.77,-677.18C1128.25,-661.27 888.12,-633.08 748.78,-616.72"/>
<polygon fill="black" stroke="black" points="748.85,-613.2 738.51,-615.51 748.04,-620.16 748.85,-613.2"/>
<text text-anchor="middle" x="1069.94" y="-642.8" font-family="Times,serif" font-size="14.00">previous</text>
</g>
<!-- http://purl.org/dj/kaggle/why&#45;not&#45;logistic&#45;regression/activity/&#45;8063331312851595365 -->
<g id="node8" class="node">
<title>http://purl.org/dj/kaggle/why&#45;not&#45;logistic&#45;regression/activity/&#45;8063331312851595365</title>
<ellipse fill="none" stroke="black" cx="1490.44" cy="-603" rx="151.37" ry="18"/>
<text text-anchor="middle" x="1490.44" y="-599.3" font-family="Times,serif" font-size="14.00">&#45;8063331312851595365 (Visualisation)</text>
</g>
<!-- http://purl.org/dj/kaggle/why&#45;not&#45;logistic&#45;regression/activity/3652529042460770712&#45;&gt;http://purl.org/dj/kaggle/why&#45;not&#45;logistic&#45;regression/activity/&#45;8063331312851595365 -->
<g id="edge8" class="edge">
<title>http://purl.org/dj/kaggle/why&#45;not&#45;logistic&#45;regression/activity/3652529042460770712&#45;&gt;http://purl.org/dj/kaggle/why&#45;not&#45;logistic&#45;regression/activity/&#45;8063331312851595365</title>
<path fill="none" stroke="black" d="M1389.33,-672.21C1408.74,-659.11 1435.89,-640.8 1457.17,-626.44"/>
<polygon fill="black" stroke="black" points="1459.26,-629.25 1465.59,-620.76 1455.35,-623.45 1459.26,-629.25"/>
<text text-anchor="middle" x="1458.94" y="-642.8" font-family="Times,serif" font-size="14.00">previous</text>
</g>
<!-- http://purl.org/dj/kaggle/why&#45;not&#45;logistic&#45;regression/activity/5282665905713401905 -->
<g id="node9" class="node">
<title>http://purl.org/dj/kaggle/why&#45;not&#45;logistic&#45;regression/activity/5282665905713401905</title>
<ellipse fill="none" stroke="black" cx="1147.44" cy="-516" rx="148.67" ry="18"/>
<text text-anchor="middle" x="1147.44" y="-512.3" font-family="Times,serif" font-size="14.00">5282665905713401905 (Visualisation)</text>
</g>
<!-- http://purl.org/dj/kaggle/why&#45;not&#45;logistic&#45;regression/activity/3652529042460770712&#45;&gt;http://purl.org/dj/kaggle/why&#45;not&#45;logistic&#45;regression/activity/5282665905713401905 -->
<g id="edge9" class="edge">
<title>http://purl.org/dj/kaggle/why&#45;not&#45;logistic&#45;regression/activity/3652529042460770712&#45;&gt;http://purl.org/dj/kaggle/why&#45;not&#45;logistic&#45;regression/activity/5282665905713401905</title>
<path fill="none" stroke="black" d="M1330.56,-672.4C1319.81,-666.84 1307.97,-660.41 1297.44,-654 1275.63,-640.73 1269.94,-637.47 1250.44,-621 1220.69,-595.89 1189.66,-563.59 1169.54,-541.7"/>
<polygon fill="black" stroke="black" points="1171.97,-539.16 1162.64,-534.14 1166.79,-543.88 1171.97,-539.16"/>
<text text-anchor="middle" x="1273.94" y="-599.3" font-family="Times,serif" font-size="14.00">previous</text>
</g>
<!-- http://purl.org/dj/kaggle/why&#45;not&#45;logistic&#45;regression/activity/2528590645226434732 -->
<g id="node10" class="node">
<title>http://purl.org/dj/kaggle/why&#45;not&#45;logistic&#45;regression/activity/2528590645226434732</title>
<ellipse fill="none" stroke="black" cx="1272.44" cy="-300" rx="141.88" ry="18"/>
<text text-anchor="middle" x="1272.44" y="-296.3" font-family="Times,serif" font-size="14.00">2528590645226434732 (Movement)</text>
</g>
<!-- http://purl.org/dj/kaggle/why&#45;not&#45;logistic&#45;regression/activity/3652529042460770712&#45;&gt;http://purl.org/dj/kaggle/why&#45;not&#45;logistic&#45;regression/activity/2528590645226434732 -->
<g id="edge10" class="edge">
<title>http://purl.org/dj/kaggle/why&#45;not&#45;logistic&#45;regression/activity/3652529042460770712&#45;&gt;http://purl.org/dj/kaggle/why&#45;not&#45;logistic&#45;regression/activity/2528590645226434732</title>
<path fill="none" stroke="black" d="M1354.21,-671.97C1346.59,-658.56 1336.48,-639.16 1330.44,-621 1321.19,-593.23 1288.87,-400.5 1276.92,-328.26"/>
<polygon fill="black" stroke="black" points="1280.33,-327.43 1275.25,-318.13 1273.42,-328.57 1280.33,-327.43"/>
<text text-anchor="middle" x="1335.94" y="-512.3" font-family="Times,serif" font-size="14.00">previous</text>
</g>
<!-- http://purl.org/dj/kaggle/why&#45;not&#45;logistic&#45;regression/activity/&#45;3955555248971125565 -->
<g id="node11" class="node">
<title>http://purl.org/dj/kaggle/why&#45;not&#45;logistic&#45;regression/activity/&#45;3955555248971125565</title>
<ellipse fill="none" stroke="black" cx="1655.44" cy="-516" rx="144.07" ry="18"/>
<text text-anchor="middle" x="1655.44" y="-512.3" font-family="Times,serif" font-size="14.00">&#45;3955555248971125565 (Movement)</text>
</g>
<!-- http://purl.org/dj/kaggle/why&#45;not&#45;logistic&#45;regression/activity/3652529042460770712&#45;&gt;http://purl.org/dj/kaggle/why&#45;not&#45;logistic&#45;regression/activity/&#45;3955555248971125565 -->
<g id="edge11" class="edge">
<title>http://purl.org/dj/kaggle/why&#45;not&#45;logistic&#45;regression/activity/3652529042460770712&#45;&gt;http://purl.org/dj/kaggle/why&#45;not&#45;logistic&#45;regression/activity/&#45;3955555248971125565</title>
<path fill="none" stroke="black" d="M1467.66,-677.53C1539.71,-667.2 1627.01,-649.23 1650.44,-621 1667.96,-599.89 1666.46,-567.26 1662.34,-544.19"/>
<polygon fill="black" stroke="black" points="1665.76,-543.43 1660.32,-534.34 1658.9,-544.83 1665.76,-543.43"/>
<text text-anchor="middle" x="1687.94" y="-599.3" font-family="Times,serif" font-size="14.00">previous</text>
</g>
<!-- http://purl.org/dj/kaggle/why&#45;not&#45;logistic&#45;regression/activity/4170246738967127735 -->
<g id="node12" class="node">
<title>http://purl.org/dj/kaggle/why&#45;not&#45;logistic&#45;regression/activity/4170246738967127735</title>
<ellipse fill="none" stroke="black" cx="1695.44" cy="-192" rx="148.67" ry="18"/>
<text text-anchor="middle" x="1695.44" y="-188.3" font-family="Times,serif" font-size="14.00">4170246738967127735 (Visualisation)</text>
</g>
<!-- http://purl.org/dj/kaggle/why&#45;not&#45;logistic&#45;regression/activity/3652529042460770712&#45;&gt;http://purl.org/dj/kaggle/why&#45;not&#45;logistic&#45;regression/activity/4170246738967127735 -->
<g id="edge12" class="edge">
<title>http://purl.org/dj/kaggle/why&#45;not&#45;logistic&#45;regression/activity/3652529042460770712&#45;&gt;http://purl.org/dj/kaggle/why&#45;not&#45;logistic&#45;regression/activity/4170246738967127735</title>
<path fill="none" stroke="black" d="M1500.63,-684.51C1569.15,-677.03 1651.08,-659.72 1715.44,-621 1763.94,-591.82 1785.91,-585.92 1808.44,-534 1834.16,-474.71 1744.17,-287.92 1708.97,-218.94"/>
<polygon fill="black" stroke="black" points="1712.06,-217.3 1704.38,-210.01 1705.84,-220.5 1712.06,-217.3"/>
<text text-anchor="middle" x="1833.94" y="-458.3" font-family="Times,serif" font-size="14.00">previous</text>
</g>
<!-- http://purl.org/dj/kaggle/why&#45;not&#45;logistic&#45;regression/activity/&#45;5083234466463898012&#45;&gt;http://purl.org/dj/kaggle/why&#45;not&#45;logistic&#45;regression/activity/&#45;7865637835199568873 -->
<g id="edge13" class="edge">
<title>http://purl.org/dj/kaggle/why&#45;not&#45;logistic&#45;regression/activity/&#45;5083234466463898012&#45;&gt;http://purl.org/dj/kaggle/why&#45;not&#45;logistic&#45;regression/activity/&#45;7865637835199568873</title>
<path fill="none" stroke="black" d="M568.75,-587.67C511.83,-572 436.36,-540.56 402.44,-480 370.82,-423.55 433.74,-362.68 592.44,-174 605.79,-158.13 606.52,-149.5 625.44,-141 666.17,-122.71 922.78,-113.16 1085.12,-108.89"/>
<polygon fill="black" stroke="black" points="1085.29,-112.39 1095.19,-108.63 1085.1,-105.39 1085.29,-112.39"/>
<text text-anchor="middle" x="480.94" y="-350.3" font-family="Times,serif" font-size="14.00">previous</text>
</g>
<!-- http://purl.org/dj/kaggle/why&#45;not&#45;logistic&#45;regression/activity/&#45;5083234466463898012&#45;&gt;http://purl.org/dj/kaggle/why&#45;not&#45;logistic&#45;regression/activity/&#45;1884796743085500963 -->
<g id="edge14" class="edge">
<title>http://purl.org/dj/kaggle/why&#45;not&#45;logistic&#45;regression/activity/&#45;5083234466463898012&#45;&gt;http://purl.org/dj/kaggle/why&#45;not&#45;logistic&#45;regression/activity/&#45;1884796743085500963</title>
<path fill="none" stroke="black" d="M578.38,-586.74C569.34,-581.88 561.16,-575.46 555.44,-567 540.24,-544.54 542.53,-512.63 547.02,-490.09"/>
<polygon fill="black" stroke="black" points="550.47,-490.69 549.26,-480.17 543.65,-489.15 550.47,-490.69"/>
<text text-anchor="middle" x="578.94" y="-555.8" font-family="Times,serif" font-size="14.00">previous</text>
</g>
<!-- http://purl.org/dj/kaggle/why&#45;not&#45;logistic&#45;regression/activity/&#45;5083234466463898012&#45;&gt;http://purl.org/dj/kaggle/why&#45;not&#45;logistic&#45;regression/activity/1389407507219550542 -->
<g id="edge15" class="edge">
<title>http://purl.org/dj/kaggle/why&#45;not&#45;logistic&#45;regression/activity/&#45;5083234466463898012&#45;&gt;http://purl.org/dj/kaggle/why&#45;not&#45;logistic&#45;regression/activity/1389407507219550542</title>
<path fill="none" stroke="black" d="M633.33,-584.78C625.29,-562.25 615.71,-522.73 635.44,-498 657.89,-469.85 686.62,-502.88 714.44,-480 748.24,-452.19 725.16,-422.54 754.44,-390 834.63,-300.86 964.98,-241.4 1039.13,-212.79"/>
<polygon fill="black" stroke="black" points="1040.67,-215.95 1048.77,-209.12 1038.18,-209.4 1040.67,-215.95"/>
<text text-anchor="middle" x="777.94" y="-404.3" font-family="Times,serif" font-size="14.00">previous</text>
</g>
<!-- http://purl.org/dj/kaggle/why&#45;not&#45;logistic&#45;regression/activity/&#45;5083234466463898012&#45;&gt;http://purl.org/dj/kaggle/why&#45;not&#45;logistic&#45;regression/activity/5282665905713401905 -->
<g id="edge16" class="edge">
<title>http://purl.org/dj/kaggle/why&#45;not&#45;logistic&#45;regression/activity/&#45;5083234466463898012&#45;&gt;http://purl.org/dj/kaggle/why&#45;not&#45;logistic&#45;regression/activity/5282665905713401905</title>
<path fill="none" stroke="black" d="M721.05,-588.48C811.72,-573.28 958.74,-548.63 1054.26,-532.62"/>
<polygon fill="black" stroke="black" points="1054.92,-536.06 1064.2,-530.95 1053.76,-529.16 1054.92,-536.06"/>
<text text-anchor="middle" x="947.94" y="-555.8" font-family="Times,serif" font-size="14.00">previous</text>
</g>
<!-- http://purl.org/dj/kaggle/why&#45;not&#45;logistic&#45;regression/activity/&#45;5083234466463898012&#45;&gt;http://purl.org/dj/kaggle/why&#45;not&#45;logistic&#45;regression/activity/4170246738967127735 -->
<g id="edge17" class="edge">
<title>http://purl.org/dj/kaggle/why&#45;not&#45;logistic&#45;regression/activity/&#45;5083234466463898012&#45;&gt;http://purl.org/dj/kaggle/why&#45;not&#45;logistic&#45;regression/activity/4170246738967127735</title>
<path fill="none" stroke="black" d="M772.28,-598.56C950.89,-592.37 1259.41,-575.85 1363.44,-534 1399.24,-519.6 1412.39,-513.57 1431.44,-480 1451.35,-444.9 1435.35,-429.54 1443.44,-390 1448.43,-365.6 1443.37,-355.84 1458.44,-336 1504.63,-275.16 1584.83,-234.74 1639,-212.84"/>
<polygon fill="black" stroke="black" points="1640.45,-216.03 1648.46,-209.1 1637.88,-209.52 1640.45,-216.03"/>
<text text-anchor="middle" x="1466.94" y="-404.3" font-family="Times,serif" font-size="14.00">previous</text>
</g>
<!-- http://purl.org/dj/kaggle/why&#45;not&#45;logistic&#45;regression/activity/3760109773500676468 -->
<g id="node13" class="node">
<title>http://purl.org/dj/kaggle/why&#45;not&#45;logistic&#45;regression/activity/3760109773500676468</title>
<ellipse fill="none" stroke="black" cx="793.44" cy="-516" rx="148.67" ry="18"/>
<text text-anchor="middle" x="793.44" y="-512.3" font-family="Times,serif" font-size="14.00">3760109773500676468 (Visualisation)</text>
</g>
<!-- http://purl.org/dj/kaggle/why&#45;not&#45;logistic&#45;regression/activity/&#45;5083234466463898012&#45;&gt;http://purl.org/dj/kaggle/why&#45;not&#45;logistic&#45;regression/activity/3760109773500676468 -->
<g id="edge18" class="edge">
<title>http://purl.org/dj/kaggle/why&#45;not&#45;logistic&#45;regression/activity/&#45;5083234466463898012&#45;&gt;http://purl.org/dj/kaggle/why&#45;not&#45;logistic&#45;regression/activity/3760109773500676468</title>
<path fill="none" stroke="black" d="M670.3,-585.41C694.34,-572.05 728.31,-553.18 754.48,-538.64"/>
<polygon fill="black" stroke="black" points="756.35,-541.61 763.39,-533.69 752.95,-535.49 756.35,-541.61"/>
<text text-anchor="middle" x="749.94" y="-555.8" font-family="Times,serif" font-size="14.00">previous</text>
</g>
<!-- http://purl.org/dj/kaggle/why&#45;not&#45;logistic&#45;regression/activity/&#45;4435010778650542996 -->
<g id="node14" class="node">
<title>http://purl.org/dj/kaggle/why&#45;not&#45;logistic&#45;regression/activity/&#45;4435010778650542996</title>
<ellipse fill="none" stroke="black" cx="151.44" cy="-354" rx="151.37" ry="18"/>
<text text-anchor="middle" x="151.44" y="-350.3" font-family="Times,serif" font-size="14.00">&#45;4435010778650542996 (Visualisation)</text>
</g>
<!-- http://purl.org/dj/kaggle/why&#45;not&#45;logistic&#45;regression/activity/&#45;5083234466463898012&#45;&gt;http://purl.org/dj/kaggle/why&#45;not&#45;logistic&#45;regression/activity/&#45;4435010778650542996 -->
<g id="edge19" class="edge">
<title>http://purl.org/dj/kaggle/why&#45;not&#45;logistic&#45;regression/activity/&#45;5083234466463898012&#45;&gt;http://purl.org/dj/kaggle/why&#45;not&#45;logistic&#45;regression/activity/&#45;4435010778650542996</title>
<path fill="none" stroke="black" d="M517.51,-595.28C440.52,-589.84 349.16,-580.79 312.44,-567 229.05,-535.69 179.97,-431.37 160.8,-381.72"/>
<polygon fill="black" stroke="black" points="164.05,-380.41 157.26,-372.27 157.49,-382.86 164.05,-380.41"/>
<text text-anchor="middle" x="281.94" y="-512.3" font-family="Times,serif" font-size="14.00">previous</text>
</g>
<!-- http://purl.org/dj/kaggle/why&#45;not&#45;logistic&#45;regression/activity/2267201609387977077 -->
<g id="node15" class="node">
<title>http://purl.org/dj/kaggle/why&#45;not&#45;logistic&#45;regression/activity/2267201609387977077</title>
<ellipse fill="none" stroke="black" cx="335.44" cy="-246" rx="148.67" ry="18"/>
<text text-anchor="middle" x="335.44" y="-242.3" font-family="Times,serif" font-size="14.00">2267201609387977077 (Visualisation)</text>
</g>
<!-- http://purl.org/dj/kaggle/why&#45;not&#45;logistic&#45;regression/activity/&#45;5083234466463898012&#45;&gt;http://purl.org/dj/kaggle/why&#45;not&#45;logistic&#45;regression/activity/2267201609387977077 -->
<g id="edge20" class="edge">
<title>http://purl.org/dj/kaggle/why&#45;not&#45;logistic&#45;regression/activity/&#45;5083234466463898012&#45;&gt;http://purl.org/dj/kaggle/why&#45;not&#45;logistic&#45;regression/activity/2267201609387977077</title>
<path fill="none" stroke="black" d="M522.11,-594.11C463.67,-588.69 400.26,-580.06 374.44,-567 346.95,-553.1 326.44,-547.8 326.44,-517 326.44,-517 326.44,-517 326.44,-353 326.44,-326.14 329.34,-295.59 331.85,-274.21"/>
<polygon fill="black" stroke="black" points="335.33,-274.57 333.07,-264.22 328.38,-273.72 335.33,-274.57"/>
<text text-anchor="middle" x="349.94" y="-458.3" font-family="Times,serif" font-size="14.00">previous</text>
</g>
<!-- http://purl.org/dj/kaggle/why&#45;not&#45;logistic&#45;regression/activity/&#45;8063331312851595365&#45;&gt;http://purl.org/dj/kaggle/why&#45;not&#45;logistic&#45;regression/activity/&#45;7865637835199568873 -->
<g id="edge21" class="edge">
<title>http://purl.org/dj/kaggle/why&#45;not&#45;logistic&#45;regression/activity/&#45;8063331312851595365&#45;&gt;http://purl.org/dj/kaggle/why&#45;not&#45;logistic&#45;regression/activity/&#45;7865637835199568873</title>
<path fill="none" stroke="black" d="M1493.43,-584.63C1502.4,-526.49 1523.14,-336.3 1432.44,-228 1390.97,-178.49 1323.94,-144.84 1276.16,-125.63"/>
<polygon fill="black" stroke="black" points="1277.16,-122.26 1266.57,-121.86 1274.6,-128.77 1277.16,-122.26"/>
<text text-anchor="middle" x="1517.94" y="-350.3" font-family="Times,serif" font-size="14.00">previous</text>
</g>
<!-- http://purl.org/dj/kaggle/why&#45;not&#45;logistic&#45;regression/activity/&#45;8063331312851595365&#45;&gt;http://purl.org/dj/kaggle/why&#45;not&#45;logistic&#45;regression/activity/2528590645226434732 -->
<g id="edge22" class="edge">
<title>http://purl.org/dj/kaggle/why&#45;not&#45;logistic&#45;regression/activity/&#45;8063331312851595365&#45;&gt;http://purl.org/dj/kaggle/why&#45;not&#45;logistic&#45;regression/activity/2528590645226434732</title>
<path fill="none" stroke="black" d="M1470.98,-584.99C1447.1,-563.07 1407.01,-522.66 1384.44,-480 1353.48,-421.49 1388.75,-386.9 1346.44,-336 1342.04,-330.71 1336.67,-326.17 1330.84,-322.29"/>
<polygon fill="black" stroke="black" points="1332.42,-319.16 1322.03,-317.06 1328.84,-325.17 1332.42,-319.16"/>
<text text-anchor="middle" x="1407.94" y="-458.3" font-family="Times,serif" font-size="14.00">previous</text>
</g>
<!-- http://purl.org/dj/kaggle/why&#45;not&#45;logistic&#45;regression/activity/&#45;8063331312851595365&#45;&gt;http://purl.org/dj/kaggle/why&#45;not&#45;logistic&#45;regression/activity/&#45;3955555248971125565 -->
<g id="edge23" class="edge">
<title>http://purl.org/dj/kaggle/why&#45;not&#45;logistic&#45;regression/activity/&#45;8063331312851595365&#45;&gt;http://purl.org/dj/kaggle/why&#45;not&#45;logistic&#45;regression/activity/&#45;3955555248971125565</title>
<path fill="none" stroke="black" d="M1522.64,-585.41C1548.76,-571.95 1585.76,-552.89 1614.07,-538.31"/>
<polygon fill="black" stroke="black" points="1616.03,-541.24 1623.31,-533.55 1612.82,-535.02 1616.03,-541.24"/>
<text text-anchor="middle" x="1606.94" y="-555.8" font-family="Times,serif" font-size="14.00">previous</text>
</g>
<!-- http://purl.org/dj/kaggle/why&#45;not&#45;logistic&#45;regression/activity/5282665905713401905&#45;&gt;http://purl.org/dj/kaggle/why&#45;not&#45;logistic&#45;regression/activity/2528590645226434732 -->
<g id="edge24" class="edge">
<title>http://purl.org/dj/kaggle/why&#45;not&#45;logistic&#45;regression/activity/5282665905713401905&#45;&gt;http://purl.org/dj/kaggle/why&#45;not&#45;logistic&#45;regression/activity/2528590645226434732</title>
<path fill="none" stroke="black" d="M1157.45,-497.85C1179.31,-460.44 1231.36,-371.32 1257.26,-326.98"/>
<polygon fill="black" stroke="black" points="1260.35,-328.63 1262.37,-318.23 1254.3,-325.1 1260.35,-328.63"/>
<text text-anchor="middle" x="1243.94" y="-404.3" font-family="Times,serif" font-size="14.00">previous</text>
</g>
<!-- http://purl.org/dj/kaggle/why&#45;not&#45;logistic&#45;regression/activity/2528590645226434732&#45;&gt;http://purl.org/dj/kaggle/why&#45;not&#45;logistic&#45;regression/activity/&#45;7865637835199568873 -->
<g id="edge25" class="edge">
<title>http://purl.org/dj/kaggle/why&#45;not&#45;logistic&#45;regression/activity/2528590645226434732&#45;&gt;http://purl.org/dj/kaggle/why&#45;not&#45;logistic&#45;regression/activity/&#45;7865637835199568873</title>
<path fill="none" stroke="black" d="M1271.51,-281.63C1269.82,-257.13 1265.25,-211.24 1253.44,-174 1248.82,-159.46 1241.45,-144.2 1234.74,-131.82"/>
<polygon fill="black" stroke="black" points="1237.74,-130 1229.81,-122.98 1231.63,-133.41 1237.74,-130"/>
<text text-anchor="middle" x="1285.94" y="-188.3" font-family="Times,serif" font-size="14.00">previous</text>
</g>
<!-- http://purl.org/dj/kaggle/why&#45;not&#45;logistic&#45;regression/activity/2528590645226434732&#45;&gt;http://purl.org/dj/kaggle/why&#45;not&#45;logistic&#45;regression/activity/1389407507219550542 -->
<g id="edge26" class="edge">
<title>http://purl.org/dj/kaggle/why&#45;not&#45;logistic&#45;regression/activity/2528590645226434732&#45;&gt;http://purl.org/dj/kaggle/why&#45;not&#45;logistic&#45;regression/activity/1389407507219550542</title>
<path fill="none" stroke="black" d="M1244.39,-282.2C1214.1,-264.06 1165.7,-235.08 1132.34,-215.1"/>
<polygon fill="black" stroke="black" points="1133.73,-211.85 1123.35,-209.72 1130.13,-217.86 1133.73,-211.85"/>
<text text-anchor="middle" x="1233.94" y="-242.3" font-family="Times,serif" font-size="14.00">previous</text>
</g>
<!-- http://purl.org/dj/kaggle/why&#45;not&#45;logistic&#45;regression/activity/2528590645226434732&#45;&gt;http://purl.org/dj/kaggle/why&#45;not&#45;logistic&#45;regression/activity/4170246738967127735 -->
<g id="edge27" class="edge">
<title>http://purl.org/dj/kaggle/why&#45;not&#45;logistic&#45;regression/activity/2528590645226434732&#45;&gt;http://purl.org/dj/kaggle/why&#45;not&#45;logistic&#45;regression/activity/4170246738967127735</title>
<path fill="none" stroke="black" d="M1292.19,-281.99C1312.92,-265.19 1347.21,-240.27 1381.44,-228 1413.61,-216.47 1488.87,-207.87 1557.64,-202.08"/>
<polygon fill="black" stroke="black" points="1558.06,-205.56 1567.74,-201.25 1557.48,-198.58 1558.06,-205.56"/>
<text text-anchor="middle" x="1404.94" y="-242.3" font-family="Times,serif" font-size="14.00">previous</text>
</g>
<!-- http://purl.org/dj/kaggle/why&#45;not&#45;logistic&#45;regression/activity/&#45;3955555248971125565&#45;&gt;http://purl.org/dj/kaggle/why&#45;not&#45;logistic&#45;regression/activity/&#45;7865637835199568873 -->
<g id="edge28" class="edge">
<title>http://purl.org/dj/kaggle/why&#45;not&#45;logistic&#45;regression/activity/&#45;3955555248971125565&#45;&gt;http://purl.org/dj/kaggle/why&#45;not&#45;logistic&#45;regression/activity/&#45;7865637835199568873</title>
<path fill="none" stroke="black" d="M1649.16,-497.74C1623.39,-427.33 1525.71,-164.55 1494.44,-141 1471.59,-123.79 1410.66,-115.02 1351.95,-110.56"/>
<polygon fill="black" stroke="black" points="1352.01,-107.05 1341.79,-109.82 1351.51,-114.03 1352.01,-107.05"/>
<text text-anchor="middle" x="1603.94" y="-296.3" font-family="Times,serif" font-size="14.00">previous</text>
</g>
<!-- http://purl.org/dj/kaggle/why&#45;not&#45;logistic&#45;regression/activity/4170246738967127735&#45;&gt;http://purl.org/dj/kaggle/why&#45;not&#45;logistic&#45;regression/activity/&#45;7865637835199568873 -->
<g id="edge29" class="edge">
<title>http://purl.org/dj/kaggle/why&#45;not&#45;logistic&#45;regression/activity/4170246738967127735&#45;&gt;http://purl.org/dj/kaggle/why&#45;not&#45;logistic&#45;regression/activity/&#45;7865637835199568873</title>
<path fill="none" stroke="black" d="M1650.7,-174.81C1618.28,-163.68 1573.16,-149.45 1532.44,-141 1470.06,-128.06 1399.63,-119.65 1341.39,-114.33"/>
<polygon fill="black" stroke="black" points="1341.68,-110.84 1331.41,-113.43 1341.06,-117.81 1341.68,-110.84"/>
<text text-anchor="middle" x="1615.94" y="-144.8" font-family="Times,serif" font-size="14.00">previous</text>
</g>
<!-- http://purl.org/dj/kaggle/why&#45;not&#45;logistic&#45;regression/activity/4170246738967127735&#45;&gt;http://purl.org/dj/kaggle/why&#45;not&#45;logistic&#45;regression -->
<g id="edge30" class="edge">
<title>http://purl.org/dj/kaggle/why&#45;not&#45;logistic&#45;regression/activity/4170246738967127735&#45;&gt;http://purl.org/dj/kaggle/why&#45;not&#45;logistic&#45;regression</title>
<path fill="none" stroke="black" d="M1695.44,-173.88C1695.44,-144 1695.44,-82.11 1695.44,-46.27"/>
<polygon fill="black" stroke="black" points="1698.94,-46.05 1695.44,-36.05 1691.94,-46.05 1698.94,-46.05"/>
<text text-anchor="middle" x="1718.94" y="-101.3" font-family="Times,serif" font-size="14.00">previous</text>
</g>
<!-- http://purl.org/dj/kaggle/why&#45;not&#45;logistic&#45;regression/activity/3760109773500676468&#45;&gt;http://purl.org/dj/kaggle/why&#45;not&#45;logistic&#45;regression/activity/&#45;7865637835199568873 -->
<g id="edge31" class="edge">
<title>http://purl.org/dj/kaggle/why&#45;not&#45;logistic&#45;regression/activity/3760109773500676468&#45;&gt;http://purl.org/dj/kaggle/why&#45;not&#45;logistic&#45;regression/activity/&#45;7865637835199568873</title>
<path fill="none" stroke="black" d="M774.87,-497.77C747.47,-470.38 699.44,-413.96 699.44,-355 699.44,-355 699.44,-355 699.44,-191 699.44,-150.92 943.2,-125.87 1096.93,-114.07"/>
<polygon fill="black" stroke="black" points="1097.22,-117.56 1106.92,-113.31 1096.69,-110.58 1097.22,-117.56"/>
<text text-anchor="middle" x="722.94" y="-296.3" font-family="Times,serif" font-size="14.00">previous</text>
</g>
<!-- http://purl.org/dj/kaggle/why&#45;not&#45;logistic&#45;regression/activity/&#45;1878371262363115415 -->
<g id="node16" class="node">
<title>http://purl.org/dj/kaggle/why&#45;not&#45;logistic&#45;regression/activity/&#45;1878371262363115415</title>
<ellipse fill="none" stroke="black" cx="956.44" cy="-408" rx="145.67" ry="18"/>
<text text-anchor="middle" x="956.44" y="-404.3" font-family="Times,serif" font-size="14.00">&#45;1878371262363115415 (Preparation)</text>
</g>
<!-- http://purl.org/dj/kaggle/why&#45;not&#45;logistic&#45;regression/activity/3760109773500676468&#45;&gt;http://purl.org/dj/kaggle/why&#45;not&#45;logistic&#45;regression/activity/&#45;1878371262363115415 -->
<g id="edge32" class="edge">
<title>http://purl.org/dj/kaggle/why&#45;not&#45;logistic&#45;regression/activity/3760109773500676468&#45;&gt;http://purl.org/dj/kaggle/why&#45;not&#45;logistic&#45;regression/activity/&#45;1878371262363115415</title>
<path fill="none" stroke="black" d="M819.26,-498.2C847.04,-480.14 891.35,-451.32 922.06,-431.35"/>
<polygon fill="black" stroke="black" points="924.25,-434.1 930.73,-425.72 920.44,-428.24 924.25,-434.1"/>
<text text-anchor="middle" x="922.94" y="-458.3" font-family="Times,serif" font-size="14.00">previous</text>
</g>
<!-- http://purl.org/dj/kaggle/why&#45;not&#45;logistic&#45;regression/activity/&#45;4435010778650542996&#45;&gt;http://purl.org/dj/kaggle/why&#45;not&#45;logistic&#45;regression/activity/&#45;7865637835199568873 -->
<g id="edge33" class="edge">
<title>http://purl.org/dj/kaggle/why&#45;not&#45;logistic&#45;regression/activity/&#45;4435010778650542996&#45;&gt;http://purl.org/dj/kaggle/why&#45;not&#45;logistic&#45;regression/activity/&#45;7865637835199568873</title>
<path fill="none" stroke="black" d="M142.46,-335.94C130.67,-311.01 113.34,-263.73 130.44,-228 164.36,-157.09 207.39,-156.62 284.44,-141 432.8,-110.93 860.75,-106.09 1082.53,-105.69"/>
<polygon fill="black" stroke="black" points="1082.61,-109.19 1092.61,-105.67 1082.6,-102.19 1082.61,-109.19"/>
<text text-anchor="middle" x="153.94" y="-242.3" font-family="Times,serif" font-size="14.00">previous</text>
</g>
<!-- http://purl.org/dj/kaggle/why&#45;not&#45;logistic&#45;regression/activity/2267201609387977077&#45;&gt;http://purl.org/dj/kaggle/why&#45;not&#45;logistic&#45;regression/activity/&#45;7865637835199568873 -->
<g id="edge34" class="edge">
<title>http://purl.org/dj/kaggle/why&#45;not&#45;logistic&#45;regression/activity/2267201609387977077&#45;&gt;http://purl.org/dj/kaggle/why&#45;not&#45;logistic&#45;regression/activity/&#45;7865637835199568873</title>
<path fill="none" stroke="black" d="M254.38,-230.79C233.4,-225.39 214.88,-218.46 208.44,-210 198.74,-197.27 197.9,-186.04 208.44,-174 236.94,-141.46 818.63,-118.77 1086.5,-110.02"/>
<polygon fill="black" stroke="black" points="1086.79,-113.51 1096.67,-109.68 1086.56,-106.51 1086.79,-113.51"/>
<text text-anchor="middle" x="231.94" y="-188.3" font-family="Times,serif" font-size="14.00">previous</text>
</g>
<!-- http://purl.org/dj/kaggle/why&#45;not&#45;logistic&#45;regression/activity/&#45;1878371262363115415&#45;&gt;http://purl.org/dj/kaggle/why&#45;not&#45;logistic&#45;regression/activity/&#45;7865637835199568873 -->
<g id="edge35" class="edge">
<title>http://purl.org/dj/kaggle/why&#45;not&#45;logistic&#45;regression/activity/&#45;1878371262363115415&#45;&gt;http://purl.org/dj/kaggle/why&#45;not&#45;logistic&#45;regression/activity/&#45;7865637835199568873</title>
<path fill="none" stroke="black" d="M947.92,-389.81C928.48,-347.85 886.34,-238.89 937.44,-174 959.3,-146.24 1041.95,-128.48 1112.16,-118.1"/>
<polygon fill="black" stroke="black" points="1113.03,-121.51 1122.42,-116.62 1112.03,-114.58 1113.03,-121.51"/>
<text text-anchor="middle" x="938.94" y="-242.3" font-family="Times,serif" font-size="14.00">previous</text>
</g>
<!-- http://purl.org/dj/kaggle/why&#45;not&#45;logistic&#45;regression/activity/&#45;1878371262363115415&#45;&gt;http://purl.org/dj/kaggle/why&#45;not&#45;logistic&#45;regression/activity/2528590645226434732 -->
<g id="edge36" class="edge">
<title>http://purl.org/dj/kaggle/why&#45;not&#45;logistic&#45;regression/activity/&#45;1878371262363115415&#45;&gt;http://purl.org/dj/kaggle/why&#45;not&#45;logistic&#45;regression/activity/2528590645226434732</title>
<path fill="none" stroke="black" d="M1000.08,-390.69C1040.25,-375.86 1101.58,-353.65 1155.44,-336 1172.36,-330.45 1190.78,-324.78 1207.89,-319.65"/>
<polygon fill="black" stroke="black" points="1209.2,-322.92 1217.79,-316.71 1207.2,-316.21 1209.2,-322.92"/>
<text text-anchor="middle" x="1178.94" y="-350.3" font-family="Times,serif" font-size="14.00">previous</text>
</g>
<!-- http://purl.org/dj/kaggle/why&#45;not&#45;logistic&#45;regression/activity/&#45;6144897695296952430 -->
<g id="node17" class="node">
<title>http://purl.org/dj/kaggle/why&#45;not&#45;logistic&#45;regression/activity/&#45;6144897695296952430</title>
<ellipse fill="none" stroke="black" cx="908.44" cy="-690" rx="145.67" ry="18"/>
<text text-anchor="middle" x="908.44" y="-686.3" font-family="Times,serif" font-size="14.00">&#45;6144897695296952430 (Preparation)</text>
</g>
<!-- http://purl.org/dj/kaggle/why&#45;not&#45;logistic&#45;regression/activity/&#45;6144897695296952430&#45;&gt;http://purl.org/dj/kaggle/why&#45;not&#45;logistic&#45;regression/activity/&#45;5083234466463898012 -->
<g id="edge37" class="edge">
<title>http://purl.org/dj/kaggle/why&#45;not&#45;logistic&#45;regression/activity/&#45;6144897695296952430&#45;&gt;http://purl.org/dj/kaggle/why&#45;not&#45;logistic&#45;regression/activity/&#45;5083234466463898012</title>
<path fill="none" stroke="black" d="M821.27,-675.5C794.61,-670.16 765.46,-663.09 739.44,-654 718.23,-646.59 695.79,-635.55 677.65,-625.73"/>
<polygon fill="black" stroke="black" points="679.03,-622.5 668.58,-620.73 675.65,-628.62 679.03,-622.5"/>
<text text-anchor="middle" x="762.94" y="-642.8" font-family="Times,serif" font-size="14.00">previous</text>
</g>
<!-- http://purl.org/dj/kaggle/why&#45;not&#45;logistic&#45;regression/activity/&#45;6144897695296952430&#45;&gt;http://purl.org/dj/kaggle/why&#45;not&#45;logistic&#45;regression/activity/&#45;8063331312851595365 -->
<g id="edge38" class="edge">
<title>http://purl.org/dj/kaggle/why&#45;not&#45;logistic&#45;regression/activity/&#45;6144897695296952430&#45;&gt;http://purl.org/dj/kaggle/why&#45;not&#45;logistic&#45;regression/activity/&#45;8063331312851595365</title>
<path fill="none" stroke="black" d="M998.74,-675.81C1104.32,-660.39 1278.62,-634.94 1388.83,-618.84"/>
<polygon fill="black" stroke="black" points="1389.58,-622.27 1398.97,-617.36 1388.56,-615.34 1389.58,-622.27"/>
<text text-anchor="middle" x="1257.94" y="-642.8" font-family="Times,serif" font-size="14.00">previous</text>
</g>
<!-- http://purl.org/dj/kaggle/why&#45;not&#45;logistic&#45;regression/activity/&#45;631305713425551651 -->
<g id="node18" class="node">
<title>http://purl.org/dj/kaggle/why&#45;not&#45;logistic&#45;regression/activity/&#45;631305713425551651</title>
<ellipse fill="none" stroke="black" cx="1608.44" cy="-777" rx="147.57" ry="18"/>
<text text-anchor="middle" x="1608.44" y="-773.3" font-family="Times,serif" font-size="14.00">&#45;631305713425551651 (Visualisation)</text>
</g>
<!-- http://purl.org/dj/kaggle/why&#45;not&#45;logistic&#45;regression/activity/&#45;631305713425551651&#45;&gt;http://purl.org/dj/kaggle/why&#45;not&#45;logistic&#45;regression/activity/&#45;7865637835199568873 -->
<g id="edge39" class="edge">
<title>http://purl.org/dj/kaggle/why&#45;not&#45;logistic&#45;regression/activity/&#45;631305713425551651&#45;&gt;http://purl.org/dj/kaggle/why&#45;not&#45;logistic&#45;regression/activity/&#45;7865637835199568873</title>
<path fill="none" stroke="black" d="M1735.15,-767.71C1831.44,-757.8 1947.44,-736.43 1947.44,-691 1947.44,-691 1947.44,-691 1947.44,-191 1947.44,-132 1565.35,-113.88 1354.79,-108.37"/>
<polygon fill="black" stroke="black" points="1354.67,-104.86 1344.58,-108.11 1354.49,-111.86 1354.67,-104.86"/>
<text text-anchor="middle" x="1970.94" y="-458.3" font-family="Times,serif" font-size="14.00">previous</text>
</g>
<!-- http://purl.org/dj/kaggle/why&#45;not&#45;logistic&#45;regression/activity/&#45;631305713425551651&#45;&gt;http://purl.org/dj/kaggle/why&#45;not&#45;logistic&#45;regression/activity/3652529042460770712 -->
<g id="edge40" class="edge">
<title>http://purl.org/dj/kaggle/why&#45;not&#45;logistic&#45;regression/activity/&#45;631305713425551651&#45;&gt;http://purl.org/dj/kaggle/why&#45;not&#45;logistic&#45;regression/activity/3652529042460770712</title>
<path fill="none" stroke="black" d="M1577.11,-759.27C1556.35,-748.68 1528.29,-735.28 1502.44,-726 1483.63,-719.25 1462.94,-713.27 1443.43,-708.25"/>
<polygon fill="black" stroke="black" points="1444.21,-704.84 1433.66,-705.79 1442.5,-711.63 1444.21,-704.84"/>
<text text-anchor="middle" x="1561.94" y="-729.8" font-family="Times,serif" font-size="14.00">previous</text>
</g>
<!-- http://purl.org/dj/kaggle/why&#45;not&#45;logistic&#45;regression/activity/&#45;631305713425551651&#45;&gt;http://purl.org/dj/kaggle/why&#45;not&#45;logistic&#45;regression/activity/&#45;6144897695296952430 -->
<g id="edge41" class="edge">
<title>http://purl.org/dj/kaggle/why&#45;not&#45;logistic&#45;regression/activity/&#45;631305713425551651&#45;&gt;http://purl.org/dj/kaggle/why&#45;not&#45;logistic&#45;regression/activity/&#45;6144897695296952430</title>
<path fill="none" stroke="black" d="M1540.8,-760.99C1513.1,-754.82 1480.72,-747.59 1451.44,-741 1422.09,-734.39 1415.19,-730.45 1385.44,-726 1322.7,-716.62 1164.92,-705.97 1047.91,-698.91"/>
<polygon fill="black" stroke="black" points="1047.98,-695.4 1037.78,-698.3 1047.56,-702.39 1047.98,-695.4"/>
<text text-anchor="middle" x="1474.94" y="-729.8" font-family="Times,serif" font-size="14.00">previous</text>
</g>
<!-- http://purl.org/dj/kaggle/why&#45;not&#45;logistic&#45;regression/activity/9190414104776926072 -->
<g id="node19" class="node">
<title>http://purl.org/dj/kaggle/why&#45;not&#45;logistic&#45;regression/activity/9190414104776926072</title>
<ellipse fill="none" stroke="black" cx="1294.44" cy="-777" rx="148.67" ry="18"/>
<text text-anchor="middle" x="1294.44" y="-773.3" font-family="Times,serif" font-size="14.00">9190414104776926072 (Visualisation)</text>
</g>
<!-- http://purl.org/dj/kaggle/why&#45;not&#45;logistic&#45;regression/activity/9190414104776926072&#45;&gt;http://purl.org/dj/kaggle/why&#45;not&#45;logistic&#45;regression/activity/3652529042460770712 -->
<g id="edge42" class="edge">
<title>http://purl.org/dj/kaggle/why&#45;not&#45;logistic&#45;regression/activity/9190414104776926072&#45;&gt;http://purl.org/dj/kaggle/why&#45;not&#45;logistic&#45;regression/activity/3652529042460770712</title>
<path fill="none" stroke="black" d="M1308.6,-758.8C1318.66,-746.59 1332.33,-729.99 1343.62,-716.28"/>
<polygon fill="black" stroke="black" points="1346.64,-718.12 1350.29,-708.18 1341.23,-713.67 1346.64,-718.12"/>
<text text-anchor="middle" x="1357.94" y="-729.8" font-family="Times,serif" font-size="14.00">previous</text>
</g>
<!-- http://purl.org/dj/kaggle/why&#45;not&#45;logistic&#45;regression/activity/7844985561722759565 -->
<g id="node20" class="node">
<title>http://purl.org/dj/kaggle/why&#45;not&#45;logistic&#45;regression/activity/7844985561722759565</title>
<ellipse fill="none" stroke="black" cx="2108.44" cy="-192" rx="133.48" ry="18"/>
<text text-anchor="middle" x="2108.44" y="-188.3" font-family="Times,serif" font-size="14.00">7844985561722759565 (Analysis)</text>
</g>
<!-- http://purl.org/dj/kaggle/why&#45;not&#45;logistic&#45;regression/activity/7844985561722759565&#45;&gt;http://purl.org/dj/kaggle/why&#45;not&#45;logistic&#45;regression/activity/&#45;7865637835199568873 -->
<g id="edge43" class="edge">
<title>http://purl.org/dj/kaggle/why&#45;not&#45;logistic&#45;regression/activity/7844985561722759565&#45;&gt;http://purl.org/dj/kaggle/why&#45;not&#45;logistic&#45;regression/activity/&#45;7865637835199568873</title>
<path fill="none" stroke="black" d="M2070.24,-174.7C2041.03,-163.05 1999.44,-148.21 1961.44,-141 1932.02,-135.42 1554.69,-119.51 1349.78,-111.2"/>
<polygon fill="black" stroke="black" points="1349.69,-107.69 1339.56,-110.79 1349.41,-114.69 1349.69,-107.69"/>
<text text-anchor="middle" x="2037.94" y="-144.8" font-family="Times,serif" font-size="14.00">previous</text>
</g>
<!-- http://purl.org/dj/kaggle/why&#45;not&#45;logistic&#45;regression/activity/7844985561722759565&#45;&gt;http://purl.org/dj/kaggle/why&#45;not&#45;logistic&#45;regression -->
<g id="edge44" class="edge">
<title>http://purl.org/dj/kaggle/why&#45;not&#45;logistic&#45;regression/activity/7844985561722759565&#45;&gt;http://purl.org/dj/kaggle/why&#45;not&#45;logistic&#45;regression</title>
<path fill="none" stroke="black" d="M2097.48,-174.05C2089.71,-163.23 2078.38,-149.66 2065.44,-141 1983.35,-86.1 1874.54,-54.14 1796.2,-36.81"/>
<polygon fill="black" stroke="black" points="1796.83,-33.36 1786.32,-34.66 1795.35,-40.2 1796.83,-33.36"/>
<text text-anchor="middle" x="2058.94" y="-101.3" font-family="Times,serif" font-size="14.00">previous</text>
</g>
</g>
</svg>
