<?xml version="1.0" encoding="UTF-8" standalone="no"?>
<!DOCTYPE svg PUBLIC "-//W3C//DTD SVG 1.1//EN"
 "http://www.w3.org/Graphics/SVG/1.1/DTD/svg11.dtd">
<!-- Generated by graphviz version 2.47.1 (20210417.1919)
 -->
<!-- Pages: 1 -->
<svg width="1006pt" height="566pt"
 viewBox="0.00 0.00 1005.67 566.00" xmlns="http://www.w3.org/2000/svg" xmlns:xlink="http://www.w3.org/1999/xlink">
<g id="graph0" class="graph" transform="scale(1 1) rotate(0) translate(4 562)">
<polygon fill="white" stroke="transparent" points="-4,4 -4,-562 1001.67,-562 1001.67,4 -4,4"/>
<!-- http://purl.org/dj/kaggle/xgboost/activity/&#45;1796837090820094723 -->
<g id="node1" class="node">
<title>http://purl.org/dj/kaggle/xgboost/activity/&#45;1796837090820094723</title>
<ellipse fill="none" stroke="black" cx="564.44" cy="-192" rx="144.07" ry="18"/>
<text text-anchor="middle" x="564.44" y="-188.3" font-family="Times,serif" font-size="14.00">&#45;1796837090820094723 (Movement)</text>
</g>
<!-- http://purl.org/dj/kaggle/xgboost/activity/832535302380471474 -->
<g id="node2" class="node">
<title>http://purl.org/dj/kaggle/xgboost/activity/832535302380471474</title>
<ellipse fill="none" stroke="black" cx="392.44" cy="-105" rx="119.68" ry="18"/>
<text text-anchor="middle" x="392.44" y="-101.3" font-family="Times,serif" font-size="14.00">832535302380471474 (Reuse)</text>
</g>
<!-- http://purl.org/dj/kaggle/xgboost/activity/&#45;1796837090820094723&#45;&gt;http://purl.org/dj/kaggle/xgboost/activity/832535302380471474 -->
<g id="edge1" class="edge">
<title>http://purl.org/dj/kaggle/xgboost/activity/&#45;1796837090820094723&#45;&gt;http://purl.org/dj/kaggle/xgboost/activity/832535302380471474</title>
<path fill="none" stroke="black" d="M508.39,-175.34C492.79,-170.08 476.11,-163.59 461.44,-156 447.02,-148.55 432.29,-138.3 420.17,-129.02"/>
<polygon fill="black" stroke="black" points="422.25,-126.21 412.22,-122.8 417.94,-131.72 422.25,-126.21"/>
<text text-anchor="middle" x="484.94" y="-144.8" font-family="Times,serif" font-size="14.00">previous</text>
</g>
<!-- http://purl.org/dj/kaggle/xgboost/activity/832535302380471474&#45;&gt;http://purl.org/dj/kaggle/xgboost/activity/&#45;1796837090820094723 -->
<g id="edge2" class="edge">
<title>http://purl.org/dj/kaggle/xgboost/activity/832535302380471474&#45;&gt;http://purl.org/dj/kaggle/xgboost/activity/&#45;1796837090820094723</title>
<path fill="none" stroke="black" d="M457.38,-120.19C474.6,-125.38 492.75,-132.21 508.44,-141 520.64,-147.84 532.45,-157.73 542.05,-166.91"/>
<polygon fill="black" stroke="black" points="539.69,-169.49 549.25,-174.05 544.62,-164.53 539.69,-169.49"/>
<text text-anchor="middle" x="552.94" y="-144.8" font-family="Times,serif" font-size="14.00">previous</text>
</g>
<!-- http://purl.org/dj/kaggle/xgboost -->
<g id="node3" class="node">
<title>http://purl.org/dj/kaggle/xgboost</title>
<ellipse fill="none" stroke="black" cx="195.44" cy="-18" rx="96.68" ry="18"/>
<text text-anchor="middle" x="195.44" y="-14.3" font-family="Times,serif" font-size="14.00">xgboost (xgboost.ipynb)</text>
</g>
<!-- http://purl.org/dj/kaggle/xgboost/activity/832535302380471474&#45;&gt;http://purl.org/dj/kaggle/xgboost -->
<g id="edge3" class="edge">
<title>http://purl.org/dj/kaggle/xgboost/activity/832535302380471474&#45;&gt;http://purl.org/dj/kaggle/xgboost</title>
<path fill="none" stroke="black" d="M354.92,-87.81C322.57,-73.86 275.76,-53.66 241.21,-38.75"/>
<polygon fill="black" stroke="black" points="242.38,-35.44 231.82,-34.7 239.61,-41.87 242.38,-35.44"/>
<text text-anchor="middle" x="329.94" y="-57.8" font-family="Times,serif" font-size="14.00">previous</text>
</g>
<!-- http://purl.org/dj/kaggle/xgboost/activity/&#45;4111221526281304215 -->
<g id="node4" class="node">
<title>http://purl.org/dj/kaggle/xgboost/activity/&#45;4111221526281304215</title>
<ellipse fill="none" stroke="black" cx="151.44" cy="-192" rx="151.37" ry="18"/>
<text text-anchor="middle" x="151.44" y="-188.3" font-family="Times,serif" font-size="14.00">&#45;4111221526281304215 (Visualisation)</text>
</g>
<!-- http://purl.org/dj/kaggle/xgboost/activity/&#45;4111221526281304215&#45;&gt;http://purl.org/dj/kaggle/xgboost/activity/832535302380471474 -->
<g id="edge4" class="edge">
<title>http://purl.org/dj/kaggle/xgboost/activity/&#45;4111221526281304215&#45;&gt;http://purl.org/dj/kaggle/xgboost/activity/832535302380471474</title>
<path fill="none" stroke="black" d="M187.39,-174.4C210.54,-164.05 241.42,-150.88 269.44,-141 287.27,-134.71 306.86,-128.73 325.06,-123.55"/>
<polygon fill="black" stroke="black" points="326.03,-126.91 334.71,-120.84 324.14,-120.17 326.03,-126.91"/>
<text text-anchor="middle" x="292.94" y="-144.8" font-family="Times,serif" font-size="14.00">previous</text>
</g>
<!-- http://purl.org/dj/kaggle/xgboost/activity/&#45;4111221526281304215&#45;&gt;http://purl.org/dj/kaggle/xgboost -->
<g id="edge5" class="edge">
<title>http://purl.org/dj/kaggle/xgboost/activity/&#45;4111221526281304215&#45;&gt;http://purl.org/dj/kaggle/xgboost</title>
<path fill="none" stroke="black" d="M155.82,-173.88C163.49,-143.87 179.43,-81.58 188.58,-45.81"/>
<polygon fill="black" stroke="black" points="191.99,-46.61 191.07,-36.05 185.21,-44.87 191.99,-46.61"/>
<text text-anchor="middle" x="201.94" y="-101.3" font-family="Times,serif" font-size="14.00">previous</text>
</g>
<!-- http://purl.org/dj/kaggle/xgboost/activity/&#45;601198527801764557 -->
<g id="node5" class="node">
<title>http://purl.org/dj/kaggle/xgboost/activity/&#45;601198527801764557</title>
<ellipse fill="none" stroke="black" cx="623.44" cy="-540" rx="147.57" ry="18"/>
<text text-anchor="middle" x="623.44" y="-536.3" font-family="Times,serif" font-size="14.00">&#45;601198527801764557 (Visualisation)</text>
</g>
<!-- http://purl.org/dj/kaggle/xgboost/activity/&#45;601198527801764557&#45;&gt;http://purl.org/dj/kaggle/xgboost/activity/832535302380471474 -->
<g id="edge6" class="edge">
<title>http://purl.org/dj/kaggle/xgboost/activity/&#45;601198527801764557&#45;&gt;http://purl.org/dj/kaggle/xgboost/activity/832535302380471474</title>
<path fill="none" stroke="black" d="M514.33,-527.78C431.03,-516.08 330.44,-493.72 330.44,-454 330.44,-454 330.44,-454 330.44,-191 330.44,-167.14 346.58,-145.5 362.39,-130.02"/>
<polygon fill="black" stroke="black" points="365.09,-132.3 370.05,-122.94 360.33,-127.16 365.09,-132.3"/>
<text text-anchor="middle" x="353.94" y="-318.8" font-family="Times,serif" font-size="14.00">previous</text>
</g>
<!-- http://purl.org/dj/kaggle/xgboost/activity/&#45;7811986418621305464 -->
<g id="node6" class="node">
<title>http://purl.org/dj/kaggle/xgboost/activity/&#45;7811986418621305464</title>
<ellipse fill="none" stroke="black" cx="494.44" cy="-453" rx="135.68" ry="18"/>
<text text-anchor="middle" x="494.44" y="-449.3" font-family="Times,serif" font-size="14.00">&#45;7811986418621305464 (Analysis)</text>
</g>
<!-- http://purl.org/dj/kaggle/xgboost/activity/&#45;601198527801764557&#45;&gt;http://purl.org/dj/kaggle/xgboost/activity/&#45;7811986418621305464 -->
<g id="edge7" class="edge">
<title>http://purl.org/dj/kaggle/xgboost/activity/&#45;601198527801764557&#45;&gt;http://purl.org/dj/kaggle/xgboost/activity/&#45;7811986418621305464</title>
<path fill="none" stroke="black" d="M597.95,-522.21C578.07,-509.11 550.28,-490.8 528.5,-476.44"/>
<polygon fill="black" stroke="black" points="530.15,-473.34 519.87,-470.76 526.29,-479.18 530.15,-473.34"/>
<text text-anchor="middle" x="590.94" y="-492.8" font-family="Times,serif" font-size="14.00">previous</text>
</g>
<!-- http://purl.org/dj/kaggle/xgboost/activity/&#45;7279884564222987142 -->
<g id="node7" class="node">
<title>http://purl.org/dj/kaggle/xgboost/activity/&#45;7279884564222987142</title>
<ellipse fill="none" stroke="black" cx="564.44" cy="-366" rx="145.67" ry="18"/>
<text text-anchor="middle" x="564.44" y="-362.3" font-family="Times,serif" font-size="14.00">&#45;7279884564222987142 (Preparation)</text>
</g>
<!-- http://purl.org/dj/kaggle/xgboost/activity/&#45;601198527801764557&#45;&gt;http://purl.org/dj/kaggle/xgboost/activity/&#45;7279884564222987142 -->
<g id="edge8" class="edge">
<title>http://purl.org/dj/kaggle/xgboost/activity/&#45;601198527801764557&#45;&gt;http://purl.org/dj/kaggle/xgboost/activity/&#45;7279884564222987142</title>
<path fill="none" stroke="black" d="M631.74,-521.66C640.7,-500.37 652.09,-463.56 639.44,-435 631.33,-416.7 615.58,-401.22 600.61,-389.68"/>
<polygon fill="black" stroke="black" points="602.56,-386.76 592.42,-383.67 598.42,-392.41 602.56,-386.76"/>
<text text-anchor="middle" x="668.94" y="-449.3" font-family="Times,serif" font-size="14.00">previous</text>
</g>
<!-- http://purl.org/dj/kaggle/xgboost/activity/1400327611029093493 -->
<g id="node8" class="node">
<title>http://purl.org/dj/kaggle/xgboost/activity/1400327611029093493</title>
<ellipse fill="none" stroke="black" cx="864.44" cy="-453" rx="133.48" ry="18"/>
<text text-anchor="middle" x="864.44" y="-449.3" font-family="Times,serif" font-size="14.00">1400327611029093493 (Analysis)</text>
</g>
<!-- http://purl.org/dj/kaggle/xgboost/activity/&#45;601198527801764557&#45;&gt;http://purl.org/dj/kaggle/xgboost/activity/1400327611029093493 -->
<g id="edge9" class="edge">
<title>http://purl.org/dj/kaggle/xgboost/activity/&#45;601198527801764557&#45;&gt;http://purl.org/dj/kaggle/xgboost/activity/1400327611029093493</title>
<path fill="none" stroke="black" d="M669.33,-522.81C709.24,-508.74 767.16,-488.31 809.52,-473.37"/>
<polygon fill="black" stroke="black" points="810.85,-476.61 819.12,-469.98 808.52,-470.01 810.85,-476.61"/>
<text text-anchor="middle" x="780.94" y="-492.8" font-family="Times,serif" font-size="14.00">previous</text>
</g>
<!-- http://purl.org/dj/kaggle/xgboost/activity/&#45;7811986418621305464&#45;&gt;http://purl.org/dj/kaggle/xgboost/activity/&#45;7279884564222987142 -->
<g id="edge10" class="edge">
<title>http://purl.org/dj/kaggle/xgboost/activity/&#45;7811986418621305464&#45;&gt;http://purl.org/dj/kaggle/xgboost/activity/&#45;7279884564222987142</title>
<path fill="none" stroke="black" d="M508.6,-434.8C518.66,-422.59 532.33,-405.99 543.62,-392.28"/>
<polygon fill="black" stroke="black" points="546.64,-394.12 550.29,-384.18 541.23,-389.67 546.64,-394.12"/>
<text text-anchor="middle" x="557.94" y="-405.8" font-family="Times,serif" font-size="14.00">previous</text>
</g>
<!-- http://purl.org/dj/kaggle/xgboost/activity/&#45;7279884564222987142&#45;&gt;http://purl.org/dj/kaggle/xgboost/activity/832535302380471474 -->
<g id="edge11" class="edge">
<title>http://purl.org/dj/kaggle/xgboost/activity/&#45;7279884564222987142&#45;&gt;http://purl.org/dj/kaggle/xgboost/activity/832535302380471474</title>
<path fill="none" stroke="black" d="M514.55,-348.96C488.2,-338.13 457.29,-321.31 437.44,-297 398.45,-249.26 392.09,-173.61 391.72,-133.34"/>
<polygon fill="black" stroke="black" points="395.22,-133.21 391.75,-123.2 388.22,-133.19 395.22,-133.21"/>
<text text-anchor="middle" x="431.94" y="-231.8" font-family="Times,serif" font-size="14.00">previous</text>
</g>
<!-- http://purl.org/dj/kaggle/xgboost/activity/&#45;72549429843952754 -->
<g id="node9" class="node">
<title>http://purl.org/dj/kaggle/xgboost/activity/&#45;72549429843952754</title>
<ellipse fill="none" stroke="black" cx="564.44" cy="-279" rx="118.08" ry="18"/>
<text text-anchor="middle" x="564.44" y="-275.3" font-family="Times,serif" font-size="14.00">&#45;72549429843952754 (Reuse)</text>
</g>
<!-- http://purl.org/dj/kaggle/xgboost/activity/&#45;7279884564222987142&#45;&gt;http://purl.org/dj/kaggle/xgboost/activity/&#45;72549429843952754 -->
<g id="edge12" class="edge">
<title>http://purl.org/dj/kaggle/xgboost/activity/&#45;7279884564222987142&#45;&gt;http://purl.org/dj/kaggle/xgboost/activity/&#45;72549429843952754</title>
<path fill="none" stroke="black" d="M564.44,-347.8C564.44,-336.16 564.44,-320.55 564.44,-307.24"/>
<polygon fill="black" stroke="black" points="567.94,-307.18 564.44,-297.18 560.94,-307.18 567.94,-307.18"/>
<text text-anchor="middle" x="587.94" y="-318.8" font-family="Times,serif" font-size="14.00">previous</text>
</g>
<!-- http://purl.org/dj/kaggle/xgboost/activity/1400327611029093493&#45;&gt;http://purl.org/dj/kaggle/xgboost/activity/832535302380471474 -->
<g id="edge13" class="edge">
<title>http://purl.org/dj/kaggle/xgboost/activity/1400327611029093493&#45;&gt;http://purl.org/dj/kaggle/xgboost/activity/832535302380471474</title>
<path fill="none" stroke="black" d="M855.92,-434.89C848.34,-418.05 838.44,-391.38 838.44,-367 838.44,-367 838.44,-367 838.44,-191 838.44,-126.08 653.81,-109.52 522.14,-105.95"/>
<polygon fill="black" stroke="black" points="522.04,-102.45 511.96,-105.7 521.87,-109.45 522.04,-102.45"/>
<text text-anchor="middle" x="861.94" y="-275.3" font-family="Times,serif" font-size="14.00">previous</text>
</g>
<!-- http://purl.org/dj/kaggle/xgboost/activity/1400327611029093493&#45;&gt;http://purl.org/dj/kaggle/xgboost/activity/&#45;7279884564222987142 -->
<g id="edge14" class="edge">
<title>http://purl.org/dj/kaggle/xgboost/activity/1400327611029093493&#45;&gt;http://purl.org/dj/kaggle/xgboost/activity/&#45;7279884564222987142</title>
<path fill="none" stroke="black" d="M809.76,-436.51C759.01,-422.13 683.39,-400.7 629.54,-385.45"/>
<polygon fill="black" stroke="black" points="630.33,-382.03 619.75,-382.67 628.42,-388.77 630.33,-382.03"/>
<text text-anchor="middle" x="754.94" y="-405.8" font-family="Times,serif" font-size="14.00">previous</text>
</g>
<!-- http://purl.org/dj/kaggle/xgboost/activity/&#45;72549429843952754&#45;&gt;http://purl.org/dj/kaggle/xgboost/activity/&#45;1796837090820094723 -->
<g id="edge15" class="edge">
<title>http://purl.org/dj/kaggle/xgboost/activity/&#45;72549429843952754&#45;&gt;http://purl.org/dj/kaggle/xgboost/activity/&#45;1796837090820094723</title>
<path fill="none" stroke="black" d="M564.44,-260.8C564.44,-249.16 564.44,-233.55 564.44,-220.24"/>
<polygon fill="black" stroke="black" points="567.94,-220.18 564.44,-210.18 560.94,-220.18 567.94,-220.18"/>
<text text-anchor="middle" x="587.94" y="-231.8" font-family="Times,serif" font-size="14.00">previous</text>
</g>
</g>
</svg>
