<?xml version="1.0" encoding="UTF-8" standalone="no"?>
<!DOCTYPE svg PUBLIC "-//W3C//DTD SVG 1.1//EN"
 "http://www.w3.org/Graphics/SVG/1.1/DTD/svg11.dtd">
<!-- Generated by graphviz version 2.44.1 (20200629.0846)
 -->
<!-- Pages: 1 -->
<svg width="1972pt" height="845pt"
 viewBox="0.00 0.00 1971.69 845.00" xmlns="http://www.w3.org/2000/svg" xmlns:xlink="http://www.w3.org/1999/xlink">
<g id="graph0" class="graph" transform="scale(1 1) rotate(0) translate(4 841)">
<polygon fill="white" stroke="transparent" points="-4,4 -4,-841 1967.69,-841 1967.69,4 -4,4"/>
<!-- http://purl.org/dj/kaggle/your&#45;first&#45;machine&#45;learning&#45;model#249561878 -->
<g id="node1" class="node">
<title>http://purl.org/dj/kaggle/your&#45;first&#45;machine&#45;learning&#45;model#249561878</title>
<ellipse fill="none" stroke="black" cx="760.69" cy="-819" rx="136.48" ry="18"/>
<text text-anchor="middle" x="760.69" y="-815.3" font-family="Times,serif" font-size="14.00">249561878 (print[0]: Visualisation)</text>
</g>
<!-- http://purl.org/dj/kaggle/your&#45;first&#45;machine&#45;learning&#45;model#1580271551 -->
<g id="node2" class="node">
<title>http://purl.org/dj/kaggle/your&#45;first&#45;machine&#45;learning&#45;model#1580271551</title>
<ellipse fill="none" stroke="black" cx="167.69" cy="-678" rx="167.87" ry="18"/>
<text text-anchor="middle" x="167.69" y="-674.3" font-family="Times,serif" font-size="14.00">1580271551 (The predictions are(0): Reuse)</text>
</g>
<!-- http://purl.org/dj/kaggle/your&#45;first&#45;machine&#45;learning&#45;model#249561878&#45;&gt;http://purl.org/dj/kaggle/your&#45;first&#45;machine&#45;learning&#45;model#1580271551 -->
<g id="edge1" class="edge">
<title>http://purl.org/dj/kaggle/your&#45;first&#45;machine&#45;learning&#45;model#249561878&#45;&gt;http://purl.org/dj/kaggle/your&#45;first&#45;machine&#45;learning&#45;model#1580271551</title>
<path fill="none" stroke="black" d="M696.94,-803.06C587.07,-777.3 362.47,-724.66 244.29,-696.96"/>
<polygon fill="black" stroke="black" points="244.77,-693.47 234.23,-694.6 243.17,-700.29 244.77,-693.47"/>
<text text-anchor="middle" x="635.19" y="-771.8" font-family="Times,serif" font-size="14.00">previous</text>
</g>
<!-- http://purl.org/dj/kaggle/your&#45;first&#45;machine&#45;learning&#45;model#76742960 -->
<g id="node3" class="node">
<title>http://purl.org/dj/kaggle/your&#45;first&#45;machine&#45;learning&#45;model#76742960</title>
<ellipse fill="none" stroke="black" cx="1140.69" cy="-624" rx="124.58" ry="18"/>
<text text-anchor="middle" x="1140.69" y="-620.3" font-family="Times,serif" font-size="14.00">76742960 (X(0)$2: Preparation)</text>
</g>
<!-- http://purl.org/dj/kaggle/your&#45;first&#45;machine&#45;learning&#45;model#249561878&#45;&gt;http://purl.org/dj/kaggle/your&#45;first&#45;machine&#45;learning&#45;model#76742960 -->
<g id="edge2" class="edge">
<title>http://purl.org/dj/kaggle/your&#45;first&#45;machine&#45;learning&#45;model#249561878&#45;&gt;http://purl.org/dj/kaggle/your&#45;first&#45;machine&#45;learning&#45;model#76742960</title>
<path fill="none" stroke="black" d="M782.67,-800.87C811.72,-778.8 865.01,-740.15 914.69,-714 969.55,-685.12 1035.95,-660.05 1082.53,-643.95"/>
<polygon fill="black" stroke="black" points="1083.83,-647.2 1092.16,-640.65 1081.57,-640.58 1083.83,-647.2"/>
<text text-anchor="middle" x="938.19" y="-728.3" font-family="Times,serif" font-size="14.00">previous</text>
</g>
<!-- http://purl.org/dj/kaggle/your&#45;first&#45;machine&#45;learning&#45;model#1403979536 -->
<g id="node4" class="node">
<title>http://purl.org/dj/kaggle/your&#45;first&#45;machine&#45;learning&#45;model#1403979536</title>
<ellipse fill="none" stroke="black" cx="1442.69" cy="-732" rx="181.97" ry="18"/>
<text text-anchor="middle" x="1442.69" y="-728.3" font-family="Times,serif" font-size="14.00">1403979536 (melbourne_model(0)$1: Analysis)</text>
</g>
<!-- http://purl.org/dj/kaggle/your&#45;first&#45;machine&#45;learning&#45;model#249561878&#45;&gt;http://purl.org/dj/kaggle/your&#45;first&#45;machine&#45;learning&#45;model#1403979536 -->
<g id="edge3" class="edge">
<title>http://purl.org/dj/kaggle/your&#45;first&#45;machine&#45;learning&#45;model#249561878&#45;&gt;http://purl.org/dj/kaggle/your&#45;first&#45;machine&#45;learning&#45;model#1403979536</title>
<path fill="none" stroke="black" d="M856.23,-806.09C978.78,-790.82 1191.3,-764.33 1324.07,-747.78"/>
<polygon fill="black" stroke="black" points="1324.79,-751.22 1334.28,-746.51 1323.92,-744.27 1324.79,-751.22"/>
<text text-anchor="middle" x="1166.19" y="-771.8" font-family="Times,serif" font-size="14.00">previous</text>
</g>
<!-- http://purl.org/dj/kaggle/your&#45;first&#45;machine&#45;learning&#45;model#3415544220 -->
<g id="node5" class="node">
<title>http://purl.org/dj/kaggle/your&#45;first&#45;machine&#45;learning&#45;model#3415544220</title>
<ellipse fill="none" stroke="black" cx="348.69" cy="-570" rx="266.45" ry="18"/>
<text text-anchor="middle" x="348.69" y="-566.3" font-family="Times,serif" font-size="14.00">3415544220 (Making predictions for the following 5 houses:(0): Reuse)</text>
</g>
<!-- http://purl.org/dj/kaggle/your&#45;first&#45;machine&#45;learning&#45;model#249561878&#45;&gt;http://purl.org/dj/kaggle/your&#45;first&#45;machine&#45;learning&#45;model#3415544220 -->
<g id="edge4" class="edge">
<title>http://purl.org/dj/kaggle/your&#45;first&#45;machine&#45;learning&#45;model#249561878&#45;&gt;http://purl.org/dj/kaggle/your&#45;first&#45;machine&#45;learning&#45;model#3415544220</title>
<path fill="none" stroke="black" d="M732.69,-801.22C660.4,-757.88 467.47,-642.21 385.91,-593.32"/>
<polygon fill="black" stroke="black" points="387.37,-590.11 376.99,-587.97 383.77,-596.11 387.37,-590.11"/>
<text text-anchor="middle" x="671.19" y="-728.3" font-family="Times,serif" font-size="14.00">previous</text>
</g>
<!-- http://purl.org/dj/kaggle/your&#45;first&#45;machine&#45;learning&#45;model -->
<g id="node6" class="node">
<title>http://purl.org/dj/kaggle/your&#45;first&#45;machine&#45;learning&#45;model</title>
<ellipse fill="none" stroke="black" cx="1310.69" cy="-18" rx="133.78" ry="18"/>
<text text-anchor="middle" x="1310.69" y="-14.3" font-family="Times,serif" font-size="14.00">your&#45;first&#45;machine&#45;learning&#45;model</text>
</g>
<!-- http://purl.org/dj/kaggle/your&#45;first&#45;machine&#45;learning&#45;model#1580271551&#45;&gt;http://purl.org/dj/kaggle/your&#45;first&#45;machine&#45;learning&#45;model -->
<g id="edge5" class="edge">
<title>http://purl.org/dj/kaggle/your&#45;first&#45;machine&#45;learning&#45;model#1580271551&#45;&gt;http://purl.org/dj/kaggle/your&#45;first&#45;machine&#45;learning&#45;model</title>
<path fill="none" stroke="black" d="M106.38,-661.2C63.43,-646.01 13.69,-618.23 13.69,-571 13.69,-571 13.69,-571 13.69,-104 13.69,-84.33 60.56,-72.65 200.69,-54 383.04,-29.73 910.29,-22.2 1166.94,-19.93"/>
<polygon fill="black" stroke="black" points="1167.11,-23.43 1177.08,-19.84 1167.05,-16.43 1167.11,-23.43"/>
<text text-anchor="middle" x="37.19" y="-350.3" font-family="Times,serif" font-size="14.00">previous</text>
</g>
<!-- http://purl.org/dj/kaggle/your&#45;first&#45;machine&#45;learning&#45;model#76677423 -->
<g id="node7" class="node">
<title>http://purl.org/dj/kaggle/your&#45;first&#45;machine&#45;learning&#45;model#76677423</title>
<ellipse fill="none" stroke="black" cx="1245.69" cy="-516" rx="130.78" ry="18"/>
<text text-anchor="middle" x="1245.69" y="-512.3" font-family="Times,serif" font-size="14.00">76677423 (X(0)$1: Visualisation)</text>
</g>
<!-- http://purl.org/dj/kaggle/your&#45;first&#45;machine&#45;learning&#45;model#76742960&#45;&gt;http://purl.org/dj/kaggle/your&#45;first&#45;machine&#45;learning&#45;model#76677423 -->
<g id="edge6" class="edge">
<title>http://purl.org/dj/kaggle/your&#45;first&#45;machine&#45;learning&#45;model#76742960&#45;&gt;http://purl.org/dj/kaggle/your&#45;first&#45;machine&#45;learning&#45;model#76677423</title>
<path fill="none" stroke="black" d="M1157.56,-605.97C1174.93,-588.43 1202.16,-560.94 1221.76,-541.16"/>
<polygon fill="black" stroke="black" points="1224.31,-543.56 1228.86,-533.99 1219.33,-538.63 1224.31,-543.56"/>
<text text-anchor="middle" x="1233.19" y="-566.3" font-family="Times,serif" font-size="14.00">previous</text>
</g>
<!-- http://purl.org/dj/kaggle/your&#45;first&#45;machine&#45;learning&#45;model#1403979536&#45;&gt;http://purl.org/dj/kaggle/your&#45;first&#45;machine&#45;learning&#45;model#76742960 -->
<g id="edge7" class="edge">
<title>http://purl.org/dj/kaggle/your&#45;first&#45;machine&#45;learning&#45;model#1403979536&#45;&gt;http://purl.org/dj/kaggle/your&#45;first&#45;machine&#45;learning&#45;model#76742960</title>
<path fill="none" stroke="black" d="M1395.83,-714.55C1341.64,-695.53 1252.56,-664.27 1195.29,-644.16"/>
<polygon fill="black" stroke="black" points="1196.27,-640.8 1185.68,-640.79 1193.95,-647.41 1196.27,-640.8"/>
<text text-anchor="middle" x="1360.19" y="-674.3" font-family="Times,serif" font-size="14.00">previous</text>
</g>
<!-- http://purl.org/dj/kaggle/your&#45;first&#45;machine&#45;learning&#45;model#29687986 -->
<g id="node8" class="node">
<title>http://purl.org/dj/kaggle/your&#45;first&#45;machine&#45;learning&#45;model#29687986</title>
<ellipse fill="none" stroke="black" cx="1651.69" cy="-408" rx="94.78" ry="18"/>
<text text-anchor="middle" x="1651.69" y="-404.3" font-family="Times,serif" font-size="14.00">29687986 (0(0): Reuse)</text>
</g>
<!-- http://purl.org/dj/kaggle/your&#45;first&#45;machine&#45;learning&#45;model#1403979536&#45;&gt;http://purl.org/dj/kaggle/your&#45;first&#45;machine&#45;learning&#45;model#29687986 -->
<g id="edge8" class="edge">
<title>http://purl.org/dj/kaggle/your&#45;first&#45;machine&#45;learning&#45;model#1403979536&#45;&gt;http://purl.org/dj/kaggle/your&#45;first&#45;machine&#45;learning&#45;model#29687986</title>
<path fill="none" stroke="black" d="M1453.92,-713.69C1488.59,-660.27 1594.02,-497.85 1635.07,-434.6"/>
<polygon fill="black" stroke="black" points="1638.14,-436.3 1640.65,-426.01 1632.27,-432.49 1638.14,-436.3"/>
<text text-anchor="middle" x="1580.19" y="-566.3" font-family="Times,serif" font-size="14.00">previous</text>
</g>
<!-- http://purl.org/dj/kaggle/your&#45;first&#45;machine&#45;learning&#45;model#1257244313 -->
<g id="node9" class="node">
<title>http://purl.org/dj/kaggle/your&#45;first&#45;machine&#45;learning&#45;model#1257244313</title>
<ellipse fill="none" stroke="black" cx="1373.69" cy="-408" rx="165.17" ry="18"/>
<text text-anchor="middle" x="1373.69" y="-404.3" font-family="Times,serif" font-size="14.00">1257244313 (melbourne_data(0)$1: Reuse)</text>
</g>
<!-- http://purl.org/dj/kaggle/your&#45;first&#45;machine&#45;learning&#45;model#1403979536&#45;&gt;http://purl.org/dj/kaggle/your&#45;first&#45;machine&#45;learning&#45;model#1257244313 -->
<g id="edge9" class="edge">
<title>http://purl.org/dj/kaggle/your&#45;first&#45;machine&#45;learning&#45;model#1403979536&#45;&gt;http://purl.org/dj/kaggle/your&#45;first&#45;machine&#45;learning&#45;model#1257244313</title>
<path fill="none" stroke="black" d="M1444.81,-714C1449.79,-667.74 1458.51,-536.85 1411.69,-444 1409.78,-440.22 1407.28,-436.64 1404.47,-433.31"/>
<polygon fill="black" stroke="black" points="1406.95,-430.84 1397.5,-426.06 1401.91,-435.69 1406.95,-430.84"/>
<text text-anchor="middle" x="1471.19" y="-566.3" font-family="Times,serif" font-size="14.00">previous</text>
</g>
<!-- http://purl.org/dj/kaggle/your&#45;first&#45;machine&#45;learning&#45;model#29950131 -->
<g id="node10" class="node">
<title>http://purl.org/dj/kaggle/your&#45;first&#45;machine&#45;learning&#45;model#29950131</title>
<ellipse fill="none" stroke="black" cx="1847.69" cy="-462" rx="94.78" ry="18"/>
<text text-anchor="middle" x="1847.69" y="-458.3" font-family="Times,serif" font-size="14.00">29950131 (1(0): Reuse)</text>
</g>
<!-- http://purl.org/dj/kaggle/your&#45;first&#45;machine&#45;learning&#45;model#1403979536&#45;&gt;http://purl.org/dj/kaggle/your&#45;first&#45;machine&#45;learning&#45;model#29950131 -->
<g id="edge10" class="edge">
<title>http://purl.org/dj/kaggle/your&#45;first&#45;machine&#45;learning&#45;model#1403979536&#45;&gt;http://purl.org/dj/kaggle/your&#45;first&#45;machine&#45;learning&#45;model#29950131</title>
<path fill="none" stroke="black" d="M1554.97,-717.75C1575.26,-712.68 1595.66,-705.67 1613.69,-696 1711.41,-643.55 1795.07,-537.31 1830.11,-488.53"/>
<polygon fill="black" stroke="black" points="1833.15,-490.3 1836.08,-480.12 1827.44,-486.25 1833.15,-490.3"/>
<text text-anchor="middle" x="1753.19" y="-620.3" font-family="Times,serif" font-size="14.00">previous</text>
</g>
<!-- http://purl.org/dj/kaggle/your&#45;first&#45;machine&#45;learning&#45;model#3415544220&#45;&gt;http://purl.org/dj/kaggle/your&#45;first&#45;machine&#45;learning&#45;model -->
<g id="edge11" class="edge">
<title>http://purl.org/dj/kaggle/your&#45;first&#45;machine&#45;learning&#45;model#3415544220&#45;&gt;http://purl.org/dj/kaggle/your&#45;first&#45;machine&#45;learning&#45;model</title>
<path fill="none" stroke="black" d="M263.43,-552.87C183.33,-535.2 75.69,-503.87 75.69,-463 75.69,-463 75.69,-463 75.69,-104 75.69,-49.77 843.63,-28.21 1168.39,-21.52"/>
<polygon fill="black" stroke="black" points="1168.88,-25.01 1178.81,-21.31 1168.74,-18.01 1168.88,-25.01"/>
<text text-anchor="middle" x="99.19" y="-296.3" font-family="Times,serif" font-size="14.00">previous</text>
</g>
<!-- http://purl.org/dj/kaggle/your&#45;first&#45;machine&#45;learning&#45;model#76677423&#45;&gt;http://purl.org/dj/kaggle/your&#45;first&#45;machine&#45;learning&#45;model#29687986 -->
<g id="edge18" class="edge">
<title>http://purl.org/dj/kaggle/your&#45;first&#45;machine&#45;learning&#45;model#76677423&#45;&gt;http://purl.org/dj/kaggle/your&#45;first&#45;machine&#45;learning&#45;model#29687986</title>
<path fill="none" stroke="black" d="M1303.86,-499.81C1379.34,-480.1 1510.58,-445.84 1588.46,-425.51"/>
<polygon fill="black" stroke="black" points="1589.36,-428.89 1598.15,-422.98 1587.59,-422.12 1589.36,-428.89"/>
<text text-anchor="middle" x="1533.19" y="-458.3" font-family="Times,serif" font-size="14.00">previous</text>
</g>
<!-- http://purl.org/dj/kaggle/your&#45;first&#45;machine&#45;learning&#45;model#76677423&#45;&gt;http://purl.org/dj/kaggle/your&#45;first&#45;machine&#45;learning&#45;model#1257244313 -->
<g id="edge19" class="edge">
<title>http://purl.org/dj/kaggle/your&#45;first&#45;machine&#45;learning&#45;model#76677423&#45;&gt;http://purl.org/dj/kaggle/your&#45;first&#45;machine&#45;learning&#45;model#1257244313</title>
<path fill="none" stroke="black" d="M1250.7,-497.88C1256.18,-481.94 1266.41,-458.53 1282.69,-444 1289.2,-438.18 1296.78,-433.29 1304.74,-429.19"/>
<polygon fill="black" stroke="black" points="1306.31,-432.32 1313.85,-424.88 1303.31,-425.99 1306.31,-432.32"/>
<text text-anchor="middle" x="1306.19" y="-458.3" font-family="Times,serif" font-size="14.00">previous</text>
</g>
<!-- http://purl.org/dj/kaggle/your&#45;first&#45;machine&#45;learning&#45;model#2598452695 -->
<g id="node11" class="node">
<title>http://purl.org/dj/kaggle/your&#45;first&#45;machine&#45;learning&#45;model#2598452695</title>
<ellipse fill="none" stroke="black" cx="923.69" cy="-354" rx="833.45" ry="18"/>
<text text-anchor="middle" x="923.69" y="-350.3" font-family="Times,serif" font-size="14.00">2598452695 ([&lt;_ast.Constant object at 0x1305321c0&gt;, &lt;_ast.Constant object at 0x1305323d0&gt;, &lt;_ast.Constant object at 0x130532e50&gt;, &lt;_ast.Constant object at 0x1305325b0&gt;, &lt;_ast.Constant object at 0x1305326d0&gt;](0): Reuse)</text>
</g>
<!-- http://purl.org/dj/kaggle/your&#45;first&#45;machine&#45;learning&#45;model#76677423&#45;&gt;http://purl.org/dj/kaggle/your&#45;first&#45;machine&#45;learning&#45;model#2598452695 -->
<g id="edge17" class="edge">
<title>http://purl.org/dj/kaggle/your&#45;first&#45;machine&#45;learning&#45;model#76677423&#45;&gt;http://purl.org/dj/kaggle/your&#45;first&#45;machine&#45;learning&#45;model#2598452695</title>
<path fill="none" stroke="black" d="M1212.44,-498.48C1153.93,-469.41 1032.62,-409.13 967.41,-376.73"/>
<polygon fill="black" stroke="black" points="968.72,-373.47 958.21,-372.15 965.6,-379.74 968.72,-373.47"/>
<text text-anchor="middle" x="1194.19" y="-458.3" font-family="Times,serif" font-size="14.00">previous</text>
</g>
<!-- http://purl.org/dj/kaggle/your&#45;first&#45;machine&#45;learning&#45;model#29687986&#45;&gt;http://purl.org/dj/kaggle/your&#45;first&#45;machine&#45;learning&#45;model -->
<g id="edge20" class="edge">
<title>http://purl.org/dj/kaggle/your&#45;first&#45;machine&#45;learning&#45;model#29687986&#45;&gt;http://purl.org/dj/kaggle/your&#45;first&#45;machine&#45;learning&#45;model</title>
<path fill="none" stroke="black" d="M1730.29,-397.75C1766.09,-392.08 1803.43,-383.64 1816.69,-372 1841.82,-349.92 1841.69,-334.45 1841.69,-301 1841.69,-301 1841.69,-301 1841.69,-104 1841.69,-63.43 1596.92,-38.77 1439.74,-27.11"/>
<polygon fill="black" stroke="black" points="1439.75,-23.61 1429.52,-26.37 1439.24,-30.59 1439.75,-23.61"/>
<text text-anchor="middle" x="1865.19" y="-209.3" font-family="Times,serif" font-size="14.00">previous</text>
</g>
<!-- http://purl.org/dj/kaggle/your&#45;first&#45;machine&#45;learning&#45;model#1257178776 -->
<g id="node15" class="node">
<title>http://purl.org/dj/kaggle/your&#45;first&#45;machine&#45;learning&#45;model#1257178776</title>
<ellipse fill="none" stroke="black" cx="1249.69" cy="-300" rx="182.77" ry="18"/>
<text text-anchor="middle" x="1249.69" y="-296.3" font-family="Times,serif" font-size="14.00">1257178776 (melbourne_data(0)$0: Movement)</text>
</g>
<!-- http://purl.org/dj/kaggle/your&#45;first&#45;machine&#45;learning&#45;model#1257244313&#45;&gt;http://purl.org/dj/kaggle/your&#45;first&#45;machine&#45;learning&#45;model#1257178776 -->
<g id="edge21" class="edge">
<title>http://purl.org/dj/kaggle/your&#45;first&#45;machine&#45;learning&#45;model#1257244313&#45;&gt;http://purl.org/dj/kaggle/your&#45;first&#45;machine&#45;learning&#45;model#1257178776</title>
<path fill="none" stroke="black" d="M1491.13,-395.33C1510.04,-393.51 1529.4,-391.68 1547.69,-390 1571.01,-387.86 1741.85,-389.25 1757.69,-372 1768.5,-360.21 1768.6,-347.7 1757.69,-336 1735.85,-312.61 1576.29,-304.48 1441.74,-301.84"/>
<polygon fill="black" stroke="black" points="1441.75,-298.33 1431.69,-301.65 1441.62,-305.33 1441.75,-298.33"/>
<text text-anchor="middle" x="1789.19" y="-350.3" font-family="Times,serif" font-size="14.00">previous</text>
</g>
<!-- http://purl.org/dj/kaggle/your&#45;first&#45;machine&#45;learning&#45;model#29950131&#45;&gt;http://purl.org/dj/kaggle/your&#45;first&#45;machine&#45;learning&#45;model -->
<g id="edge22" class="edge">
<title>http://purl.org/dj/kaggle/your&#45;first&#45;machine&#45;learning&#45;model#29950131&#45;&gt;http://purl.org/dj/kaggle/your&#45;first&#45;machine&#45;learning&#45;model</title>
<path fill="none" stroke="black" d="M1867.64,-444.07C1888.02,-424.79 1916.69,-391.23 1916.69,-355 1916.69,-355 1916.69,-355 1916.69,-104 1916.69,-56.85 1625.29,-34.22 1446.63,-24.77"/>
<polygon fill="black" stroke="black" points="1446.79,-21.28 1436.62,-24.25 1446.42,-28.27 1446.79,-21.28"/>
<text text-anchor="middle" x="1940.19" y="-252.8" font-family="Times,serif" font-size="14.00">previous</text>
</g>
<!-- http://purl.org/dj/kaggle/your&#45;first&#45;machine&#45;learning&#45;model#2598452695&#45;&gt;http://purl.org/dj/kaggle/your&#45;first&#45;machine&#45;learning&#45;model -->
<g id="edge12" class="edge">
<title>http://purl.org/dj/kaggle/your&#45;first&#45;machine&#45;learning&#45;model#2598452695&#45;&gt;http://purl.org/dj/kaggle/your&#45;first&#45;machine&#45;learning&#45;model</title>
<path fill="none" stroke="black" d="M773.34,-336.22C732.68,-322.76 699.69,-299.04 699.69,-257.5 699.69,-257.5 699.69,-257.5 699.69,-104 699.69,-56.4 994.3,-33.92 1174.37,-24.63"/>
<polygon fill="black" stroke="black" points="1174.65,-28.12 1184.46,-24.11 1174.29,-21.13 1174.65,-28.12"/>
<text text-anchor="middle" x="723.19" y="-209.3" font-family="Times,serif" font-size="14.00">previous</text>
</g>
<!-- http://purl.org/dj/kaggle/your&#45;first&#45;machine&#45;learning&#45;model#1967917308 -->
<g id="node12" class="node">
<title>http://purl.org/dj/kaggle/your&#45;first&#45;machine&#45;learning&#45;model#1967917308</title>
<ellipse fill="none" stroke="black" cx="1598.69" cy="-213" rx="206.86" ry="18"/>
<text text-anchor="middle" x="1598.69" y="-209.3" font-family="Times,serif" font-size="14.00">1967917308 (DecisionTreeRegressor(0): Visualisation)</text>
</g>
<!-- http://purl.org/dj/kaggle/your&#45;first&#45;machine&#45;learning&#45;model#1967917308&#45;&gt;http://purl.org/dj/kaggle/your&#45;first&#45;machine&#45;learning&#45;model -->
<g id="edge13" class="edge">
<title>http://purl.org/dj/kaggle/your&#45;first&#45;machine&#45;learning&#45;model#1967917308&#45;&gt;http://purl.org/dj/kaggle/your&#45;first&#45;machine&#45;learning&#45;model</title>
<path fill="none" stroke="black" d="M1622.02,-194.97C1653.61,-169.87 1702.86,-122.15 1673.69,-87 1644.38,-51.69 1534.36,-34.61 1443.05,-26.41"/>
<polygon fill="black" stroke="black" points="1443.14,-22.9 1432.87,-25.52 1442.53,-29.88 1443.14,-22.9"/>
<text text-anchor="middle" x="1705.19" y="-101.3" font-family="Times,serif" font-size="14.00">previous</text>
</g>
<!-- http://purl.org/dj/python/lib/532874447 -->
<g id="node13" class="node">
<title>http://purl.org/dj/python/lib/532874447</title>
<ellipse fill="none" stroke="black" cx="1538.69" cy="-105" rx="126.18" ry="18"/>
<text text-anchor="middle" x="1538.69" y="-101.3" font-family="Times,serif" font-size="14.00">532874447 (sklearn.tree: Reuse)</text>
</g>
<!-- http://purl.org/dj/kaggle/your&#45;first&#45;machine&#45;learning&#45;model#1967917308&#45;&gt;http://purl.org/dj/python/lib/532874447 -->
<g id="edge14" class="edge">
<title>http://purl.org/dj/kaggle/your&#45;first&#45;machine&#45;learning&#45;model#1967917308&#45;&gt;http://purl.org/dj/python/lib/532874447</title>
<path fill="none" stroke="black" d="M1589.05,-194.97C1579.38,-177.89 1564.37,-151.38 1553.26,-131.74"/>
<polygon fill="black" stroke="black" points="1556.27,-129.97 1548.3,-122.99 1550.18,-133.42 1556.27,-129.97"/>
<text text-anchor="middle" x="1600.19" y="-155.3" font-family="Times,serif" font-size="14.00">previous</text>
</g>
<!-- http://purl.org/dj/python/lib/532874447&#45;&gt;http://purl.org/dj/kaggle/your&#45;first&#45;machine&#45;learning&#45;model -->
<g id="edge15" class="edge">
<title>http://purl.org/dj/python/lib/532874447&#45;&gt;http://purl.org/dj/kaggle/your&#45;first&#45;machine&#45;learning&#45;model</title>
<path fill="none" stroke="black" d="M1495.8,-88.01C1458.18,-73.99 1403.36,-53.55 1363.14,-38.56"/>
<polygon fill="black" stroke="black" points="1364.36,-35.27 1353.76,-35.06 1361.91,-41.83 1364.36,-35.27"/>
<text text-anchor="middle" x="1462.19" y="-57.8" font-family="Times,serif" font-size="14.00">previous</text>
</g>
<!-- http://purl.org/dj/kaggle/your&#45;first&#45;machine&#45;learning&#45;model#249692951 -->
<g id="node14" class="node">
<title>http://purl.org/dj/kaggle/your&#45;first&#45;machine&#45;learning&#45;model#249692951</title>
<ellipse fill="none" stroke="black" cx="1106.69" cy="-732" rx="136.48" ry="18"/>
<text text-anchor="middle" x="1106.69" y="-728.3" font-family="Times,serif" font-size="14.00">249692951 (print[1]: Visualisation)</text>
</g>
<!-- http://purl.org/dj/kaggle/your&#45;first&#45;machine&#45;learning&#45;model#249692951&#45;&gt;http://purl.org/dj/kaggle/your&#45;first&#45;machine&#45;learning&#45;model#76742960 -->
<g id="edge16" class="edge">
<title>http://purl.org/dj/kaggle/your&#45;first&#45;machine&#45;learning&#45;model#249692951&#45;&gt;http://purl.org/dj/kaggle/your&#45;first&#45;machine&#45;learning&#45;model#76742960</title>
<path fill="none" stroke="black" d="M1112.15,-713.97C1117.55,-697.12 1125.9,-671.1 1132.17,-651.54"/>
<polygon fill="black" stroke="black" points="1135.51,-652.58 1135.24,-641.99 1128.85,-650.44 1135.51,-652.58"/>
<text text-anchor="middle" x="1153.19" y="-674.3" font-family="Times,serif" font-size="14.00">previous</text>
</g>
<!-- http://purl.org/dj/kaggle/your&#45;first&#45;machine&#45;learning&#45;model#80085334 -->
<g id="node17" class="node">
<title>http://purl.org/dj/kaggle/your&#45;first&#45;machine&#45;learning&#45;model#80085334</title>
<ellipse fill="none" stroke="black" cx="1249.69" cy="-213" rx="124.28" ry="18"/>
<text text-anchor="middle" x="1249.69" y="-209.3" font-family="Times,serif" font-size="14.00">80085334 (pd(0): Visualisation)</text>
</g>
<!-- http://purl.org/dj/kaggle/your&#45;first&#45;machine&#45;learning&#45;model#1257178776&#45;&gt;http://purl.org/dj/kaggle/your&#45;first&#45;machine&#45;learning&#45;model#80085334 -->
<g id="edge26" class="edge">
<title>http://purl.org/dj/kaggle/your&#45;first&#45;machine&#45;learning&#45;model#1257178776&#45;&gt;http://purl.org/dj/kaggle/your&#45;first&#45;machine&#45;learning&#45;model#80085334</title>
<path fill="none" stroke="black" d="M1249.69,-281.8C1249.69,-270.16 1249.69,-254.55 1249.69,-241.24"/>
<polygon fill="black" stroke="black" points="1253.19,-241.18 1249.69,-231.18 1246.19,-241.18 1253.19,-241.18"/>
<text text-anchor="middle" x="1273.19" y="-252.8" font-family="Times,serif" font-size="14.00">previous</text>
</g>
<!-- http://purl.org/dj/kaggle/your&#45;first&#45;machine&#45;learning&#45;model#58004286 -->
<g id="node18" class="node">
<title>http://purl.org/dj/kaggle/your&#45;first&#45;machine&#45;learning&#45;model#58004286</title>
<ellipse fill="none" stroke="black" cx="988.69" cy="-159" rx="274.05" ry="18"/>
<text text-anchor="middle" x="988.69" y="-155.3" font-family="Times,serif" font-size="14.00">58004286 (../input/melbourne&#45;housing&#45;snapshot/melb_data.csv(0): Reuse)</text>
</g>
<!-- http://purl.org/dj/kaggle/your&#45;first&#45;machine&#45;learning&#45;model#1257178776&#45;&gt;http://purl.org/dj/kaggle/your&#45;first&#45;machine&#45;learning&#45;model#58004286 -->
<g id="edge27" class="edge">
<title>http://purl.org/dj/kaggle/your&#45;first&#45;machine&#45;learning&#45;model#1257178776&#45;&gt;http://purl.org/dj/kaggle/your&#45;first&#45;machine&#45;learning&#45;model#58004286</title>
<path fill="none" stroke="black" d="M1216.18,-282.26C1189.19,-268.69 1150.33,-248.93 1116.69,-231 1086.52,-214.93 1052.73,-196.15 1027.44,-181.94"/>
<polygon fill="black" stroke="black" points="1028.96,-178.78 1018.53,-176.93 1025.53,-184.88 1028.96,-178.78"/>
<text text-anchor="middle" x="1203.19" y="-252.8" font-family="Times,serif" font-size="14.00">previous</text>
</g>
<!-- http://purl.org/dj/python/lib/144966264 -->
<g id="node16" class="node">
<title>http://purl.org/dj/python/lib/144966264</title>
<ellipse fill="none" stroke="black" cx="1202.69" cy="-105" rx="109.38" ry="18"/>
<text text-anchor="middle" x="1202.69" y="-101.3" font-family="Times,serif" font-size="14.00">144966264 (pandas: Reuse)</text>
</g>
<!-- http://purl.org/dj/python/lib/144966264&#45;&gt;http://purl.org/dj/kaggle/your&#45;first&#45;machine&#45;learning&#45;model -->
<g id="edge23" class="edge">
<title>http://purl.org/dj/python/lib/144966264&#45;&gt;http://purl.org/dj/kaggle/your&#45;first&#45;machine&#45;learning&#45;model</title>
<path fill="none" stroke="black" d="M1224.02,-87.21C1240.34,-74.37 1263.02,-56.52 1281.09,-42.3"/>
<polygon fill="black" stroke="black" points="1283.33,-44.98 1289.02,-36.05 1279,-39.48 1283.33,-44.98"/>
<text text-anchor="middle" x="1287.19" y="-57.8" font-family="Times,serif" font-size="14.00">previous</text>
</g>
<!-- http://purl.org/dj/kaggle/your&#45;first&#45;machine&#45;learning&#45;model#80085334&#45;&gt;http://purl.org/dj/kaggle/your&#45;first&#45;machine&#45;learning&#45;model -->
<g id="edge24" class="edge">
<title>http://purl.org/dj/kaggle/your&#45;first&#45;machine&#45;learning&#45;model#80085334&#45;&gt;http://purl.org/dj/kaggle/your&#45;first&#45;machine&#45;learning&#45;model</title>
<path fill="none" stroke="black" d="M1298.45,-196.37C1306.86,-191.48 1314.54,-185.16 1319.69,-177 1344.93,-136.99 1332.14,-79.32 1321.06,-45.85"/>
<polygon fill="black" stroke="black" points="1324.33,-44.57 1317.73,-36.29 1317.72,-46.88 1324.33,-44.57"/>
<text text-anchor="middle" x="1358.19" y="-101.3" font-family="Times,serif" font-size="14.00">previous</text>
</g>
<!-- http://purl.org/dj/kaggle/your&#45;first&#45;machine&#45;learning&#45;model#80085334&#45;&gt;http://purl.org/dj/python/lib/144966264 -->
<g id="edge25" class="edge">
<title>http://purl.org/dj/kaggle/your&#45;first&#45;machine&#45;learning&#45;model#80085334&#45;&gt;http://purl.org/dj/python/lib/144966264</title>
<path fill="none" stroke="black" d="M1259.34,-194.85C1266.44,-179.75 1273.32,-157.63 1263.69,-141 1260.82,-136.05 1256.95,-131.73 1252.56,-127.99"/>
<polygon fill="black" stroke="black" points="1254.3,-124.94 1244.16,-121.86 1250.17,-130.59 1254.3,-124.94"/>
<text text-anchor="middle" x="1292.19" y="-155.3" font-family="Times,serif" font-size="14.00">previous</text>
</g>
<!-- http://purl.org/dj/kaggle/your&#45;first&#45;machine&#45;learning&#45;model#58004286&#45;&gt;http://purl.org/dj/kaggle/your&#45;first&#45;machine&#45;learning&#45;model -->
<g id="edge28" class="edge">
<title>http://purl.org/dj/kaggle/your&#45;first&#45;machine&#45;learning&#45;model#58004286&#45;&gt;http://purl.org/dj/kaggle/your&#45;first&#45;machine&#45;learning&#45;model</title>
<path fill="none" stroke="black" d="M996.03,-140.98C1003.94,-124.66 1018.1,-100.55 1037.69,-87 1082.3,-56.12 1139.61,-39.23 1190.19,-30.01"/>
<polygon fill="black" stroke="black" points="1190.95,-33.43 1200.21,-28.27 1189.75,-26.54 1190.95,-33.43"/>
<text text-anchor="middle" x="1061.19" y="-101.3" font-family="Times,serif" font-size="14.00">previous</text>
</g>
</g>
</svg>
