<?xml version="1.0" encoding="UTF-8" standalone="no"?>
<!DOCTYPE svg PUBLIC "-//W3C//DTD SVG 1.1//EN"
 "http://www.w3.org/Graphics/SVG/1.1/DTD/svg11.dtd">
<!-- Generated by graphviz version 2.44.1 (20200629.0846)
 -->
<!-- Pages: 1 -->
<svg width="3482pt" height="890pt"
 viewBox="0.00 0.00 3482.16 890.00" xmlns="http://www.w3.org/2000/svg" xmlns:xlink="http://www.w3.org/1999/xlink">
<g id="graph0" class="graph" transform="scale(1 1) rotate(0) translate(4 886)">
<polygon fill="white" stroke="transparent" points="-4,4 -4,-886 3478.16,-886 3478.16,4 -4,4"/>
<!-- http://purl.org/dj/kaggle/your&#45;first&#45;machine&#45;learning&#45;model#249561878 -->
<g id="node1" class="node">
<title>http://purl.org/dj/kaggle/your&#45;first&#45;machine&#45;learning&#45;model#249561878</title>
<ellipse fill="none" stroke="black" cx="825.48" cy="-864" rx="136.48" ry="18"/>
<text text-anchor="middle" x="825.48" y="-860.3" font-family="Times,serif" font-size="14.00">249561878 (print[0]: Visualisation)</text>
</g>
<!-- http://purl.org/dj/kaggle/your&#45;first&#45;machine&#45;learning&#45;model#3415544220 -->
<g id="node2" class="node">
<title>http://purl.org/dj/kaggle/your&#45;first&#45;machine&#45;learning&#45;model#3415544220</title>
<ellipse fill="none" stroke="black" cx="266.48" cy="-615" rx="266.45" ry="18"/>
<text text-anchor="middle" x="266.48" y="-611.3" font-family="Times,serif" font-size="14.00">3415544220 (Making predictions for the following 5 houses:(0): Reuse)</text>
</g>
<!-- http://purl.org/dj/kaggle/your&#45;first&#45;machine&#45;learning&#45;model#249561878&#45;&gt;http://purl.org/dj/kaggle/your&#45;first&#45;machine&#45;learning&#45;model#3415544220 -->
<g id="edge1" class="edge">
<title>http://purl.org/dj/kaggle/your&#45;first&#45;machine&#45;learning&#45;model#249561878&#45;&gt;http://purl.org/dj/kaggle/your&#45;first&#45;machine&#45;learning&#45;model#3415544220</title>
<path fill="none" stroke="black" d="M712.79,-853.81C569.56,-839.55 334.35,-806.62 280.48,-741 258.09,-713.73 258.38,-671.1 261.65,-643.35"/>
<polygon fill="black" stroke="black" points="265.15,-643.55 263.06,-633.16 258.22,-642.59 265.15,-643.55"/>
<text text-anchor="middle" x="424.98" y="-773.3" font-family="Times,serif" font-size="14.00">previousActivity</text>
</g>
<!-- http://purl.org/dj/kaggle/your&#45;first&#45;machine&#45;learning&#45;model#1403979536 -->
<g id="node3" class="node">
<title>http://purl.org/dj/kaggle/your&#45;first&#45;machine&#45;learning&#45;model#1403979536</title>
<ellipse fill="none" stroke="black" cx="1056.48" cy="-777" rx="181.97" ry="18"/>
<text text-anchor="middle" x="1056.48" y="-773.3" font-family="Times,serif" font-size="14.00">1403979536 (melbourne_model(0)$1: Analysis)</text>
</g>
<!-- http://purl.org/dj/kaggle/your&#45;first&#45;machine&#45;learning&#45;model#249561878&#45;&gt;http://purl.org/dj/kaggle/your&#45;first&#45;machine&#45;learning&#45;model#1403979536 -->
<g id="edge2" class="edge">
<title>http://purl.org/dj/kaggle/your&#45;first&#45;machine&#45;learning&#45;model#249561878&#45;&gt;http://purl.org/dj/kaggle/your&#45;first&#45;machine&#45;learning&#45;model#1403979536</title>
<path fill="none" stroke="black" d="M869.2,-846.91C906.98,-833.01 961.73,-812.86 1002.29,-797.94"/>
<polygon fill="black" stroke="black" points="1003.58,-801.19 1011.75,-794.46 1001.16,-794.63 1003.58,-801.19"/>
<text text-anchor="middle" x="968.48" y="-816.8" font-family="Times,serif" font-size="14.00">print</text>
</g>
<!-- http://purl.org/dj/kaggle/your&#45;first&#45;machine&#45;learning&#45;model#76742960 -->
<g id="node4" class="node">
<title>http://purl.org/dj/kaggle/your&#45;first&#45;machine&#45;learning&#45;model#76742960</title>
<ellipse fill="none" stroke="black" cx="1437.48" cy="-669" rx="124.58" ry="18"/>
<text text-anchor="middle" x="1437.48" y="-665.3" font-family="Times,serif" font-size="14.00">76742960 (X(0)$2: Preparation)</text>
</g>
<!-- http://purl.org/dj/kaggle/your&#45;first&#45;machine&#45;learning&#45;model#249561878&#45;&gt;http://purl.org/dj/kaggle/your&#45;first&#45;machine&#45;learning&#45;model#76742960 -->
<g id="edge3" class="edge">
<title>http://purl.org/dj/kaggle/your&#45;first&#45;machine&#45;learning&#45;model#249561878&#45;&gt;http://purl.org/dj/kaggle/your&#45;first&#45;machine&#45;learning&#45;model#76742960</title>
<path fill="none" stroke="black" d="M958.42,-859.77C1153.75,-853.63 1499.37,-836.92 1537.48,-795 1565.04,-764.68 1545.6,-734.8 1517.48,-705 1512.06,-699.26 1505.54,-694.41 1498.59,-690.33"/>
<polygon fill="black" stroke="black" points="1500.08,-687.15 1489.61,-685.55 1496.8,-693.33 1500.08,-687.15"/>
<text text-anchor="middle" x="1564.48" y="-773.3" font-family="Times,serif" font-size="14.00">print</text>
</g>
<!-- http://purl.org/dj/kaggle/your&#45;first&#45;machine&#45;learning&#45;model#1580271551 -->
<g id="node5" class="node">
<title>http://purl.org/dj/kaggle/your&#45;first&#45;machine&#45;learning&#45;model#1580271551</title>
<ellipse fill="none" stroke="black" cx="449.48" cy="-723" rx="167.87" ry="18"/>
<text text-anchor="middle" x="449.48" y="-719.3" font-family="Times,serif" font-size="14.00">1580271551 (The predictions are(0): Reuse)</text>
</g>
<!-- http://purl.org/dj/kaggle/your&#45;first&#45;machine&#45;learning&#45;model#249561878&#45;&gt;http://purl.org/dj/kaggle/your&#45;first&#45;machine&#45;learning&#45;model#1580271551 -->
<g id="edge4" class="edge">
<title>http://purl.org/dj/kaggle/your&#45;first&#45;machine&#45;learning&#45;model#249561878&#45;&gt;http://purl.org/dj/kaggle/your&#45;first&#45;machine&#45;learning&#45;model#1580271551</title>
<path fill="none" stroke="black" d="M781.98,-846.92C712.97,-821.41 578.56,-771.72 503.49,-743.97"/>
<polygon fill="black" stroke="black" points="504.34,-740.55 493.75,-740.37 501.91,-747.12 504.34,-740.55"/>
<text text-anchor="middle" x="743.48" y="-816.8" font-family="Times,serif" font-size="14.00">print</text>
</g>
<!-- http://purl.org/dj/kaggle/your&#45;first&#45;machine&#45;learning&#45;model -->
<g id="node6" class="node">
<title>http://purl.org/dj/kaggle/your&#45;first&#45;machine&#45;learning&#45;model</title>
<ellipse fill="none" stroke="black" cx="1363.48" cy="-18" rx="133.78" ry="18"/>
<text text-anchor="middle" x="1363.48" y="-14.3" font-family="Times,serif" font-size="14.00">your&#45;first&#45;machine&#45;learning&#45;model</text>
</g>
<!-- http://purl.org/dj/kaggle/your&#45;first&#45;machine&#45;learning&#45;model#3415544220&#45;&gt;http://purl.org/dj/kaggle/your&#45;first&#45;machine&#45;learning&#45;model -->
<g id="edge5" class="edge">
<title>http://purl.org/dj/kaggle/your&#45;first&#45;machine&#45;learning&#45;model#3415544220&#45;&gt;http://purl.org/dj/kaggle/your&#45;first&#45;machine&#45;learning&#45;model</title>
<path fill="none" stroke="black" d="M293.84,-596.95C319.67,-578.51 354.48,-546.51 354.48,-508 354.48,-508 354.48,-508 354.48,-104 354.48,-21.4 451.89,-66.94 533.48,-54 661.65,-33.67 1019.78,-24.63 1221.22,-21.05"/>
<polygon fill="black" stroke="black" points="1221.35,-24.55 1231.29,-20.87 1221.23,-17.55 1221.35,-24.55"/>
<text text-anchor="middle" x="399.98" y="-318.8" font-family="Times,serif" font-size="14.00">previousActivity</text>
</g>
<!-- http://purl.org/dj/kaggle/your&#45;first&#45;machine&#45;learning&#45;model#1403979536&#45;&gt;http://purl.org/dj/kaggle/your&#45;first&#45;machine&#45;learning&#45;model#76742960 -->
<g id="edge6" class="edge">
<title>http://purl.org/dj/kaggle/your&#45;first&#45;machine&#45;learning&#45;model#1403979536&#45;&gt;http://purl.org/dj/kaggle/your&#45;first&#45;machine&#45;learning&#45;model#76742960</title>
<path fill="none" stroke="black" d="M1173.19,-763.12C1200.73,-758 1229.59,-750.89 1255.48,-741 1283.82,-730.18 1285.72,-717.24 1313.48,-705 1329.22,-698.06 1346.69,-692.13 1363.44,-687.23"/>
<polygon fill="black" stroke="black" points="1364.53,-690.56 1373.19,-684.47 1362.62,-683.83 1364.53,-690.56"/>
<text text-anchor="middle" x="1358.98" y="-719.3" font-family="Times,serif" font-size="14.00">previousActivity</text>
</g>
<!-- http://purl.org/dj/kaggle/your&#45;first&#45;machine&#45;learning&#45;model#1403913999 -->
<g id="node7" class="node">
<title>http://purl.org/dj/kaggle/your&#45;first&#45;machine&#45;learning&#45;model#1403913999</title>
<ellipse fill="none" stroke="black" cx="875.48" cy="-669" rx="172.77" ry="18"/>
<text text-anchor="middle" x="875.48" y="-665.3" font-family="Times,serif" font-size="14.00">1403913999 (melbourne_model(0)$0: Reuse)</text>
</g>
<!-- http://purl.org/dj/kaggle/your&#45;first&#45;machine&#45;learning&#45;model#1403979536&#45;&gt;http://purl.org/dj/kaggle/your&#45;first&#45;machine&#45;learning&#45;model#1403913999 -->
<g id="edge7" class="edge">
<title>http://purl.org/dj/kaggle/your&#45;first&#45;machine&#45;learning&#45;model#1403979536&#45;&gt;http://purl.org/dj/kaggle/your&#45;first&#45;machine&#45;learning&#45;model#1403913999</title>
<path fill="none" stroke="black" d="M1027.8,-759.2C996.78,-741.04 947.19,-712 913.07,-692.02"/>
<polygon fill="black" stroke="black" points="914.72,-688.93 904.32,-686.89 911.18,-694.97 914.72,-688.93"/>
<text text-anchor="middle" x="999.48" y="-719.3" font-family="Times,serif" font-size="14.00">fit</text>
</g>
<!-- http://purl.org/dj/kaggle/your&#45;first&#45;machine&#45;learning&#45;model#1257244313 -->
<g id="node8" class="node">
<title>http://purl.org/dj/kaggle/your&#45;first&#45;machine&#45;learning&#45;model#1257244313</title>
<ellipse fill="none" stroke="black" cx="1425.48" cy="-366" rx="165.17" ry="18"/>
<text text-anchor="middle" x="1425.48" y="-362.3" font-family="Times,serif" font-size="14.00">1257244313 (melbourne_data(0)$1: Reuse)</text>
</g>
<!-- http://purl.org/dj/kaggle/your&#45;first&#45;machine&#45;learning&#45;model#1403979536&#45;&gt;http://purl.org/dj/kaggle/your&#45;first&#45;machine&#45;learning&#45;model#1257244313 -->
<g id="edge8" class="edge">
<title>http://purl.org/dj/kaggle/your&#45;first&#45;machine&#45;learning&#45;model#1403979536&#45;&gt;http://purl.org/dj/kaggle/your&#45;first&#45;machine&#45;learning&#45;model#1257244313</title>
<path fill="none" stroke="black" d="M1140.86,-760.99C1189.65,-746.92 1241.48,-720.16 1241.48,-670 1241.48,-670 1241.48,-670 1241.48,-452 1241.48,-428.92 1238.6,-417.74 1255.48,-402 1264.48,-393.6 1285.07,-387 1308.92,-381.9"/>
<polygon fill="black" stroke="black" points="1309.84,-385.29 1318.95,-379.88 1308.45,-378.42 1309.84,-385.29"/>
<text text-anchor="middle" x="1286.98" y="-557.3" font-family="Times,serif" font-size="14.00">previousActivity</text>
</g>
<!-- http://purl.org/dj/kaggle/your&#45;first&#45;machine&#45;learning&#45;model#29687986 -->
<g id="node9" class="node">
<title>http://purl.org/dj/kaggle/your&#45;first&#45;machine&#45;learning&#45;model#29687986</title>
<ellipse fill="none" stroke="black" cx="879.48" cy="-279" rx="94.78" ry="18"/>
<text text-anchor="middle" x="879.48" y="-275.3" font-family="Times,serif" font-size="14.00">29687986 (0(0): Reuse)</text>
</g>
<!-- http://purl.org/dj/kaggle/your&#45;first&#45;machine&#45;learning&#45;model#1403979536&#45;&gt;http://purl.org/dj/kaggle/your&#45;first&#45;machine&#45;learning&#45;model#29687986 -->
<g id="edge9" class="edge">
<title>http://purl.org/dj/kaggle/your&#45;first&#45;machine&#45;learning&#45;model#1403979536&#45;&gt;http://purl.org/dj/kaggle/your&#45;first&#45;machine&#45;learning&#45;model#29687986</title>
<path fill="none" stroke="black" d="M1060.87,-758.93C1066.38,-734 1073.31,-686.71 1057.48,-651 1023.69,-574.77 958.17,-598.33 918.48,-525 879.86,-453.67 876.96,-354.69 878.12,-307.35"/>
<polygon fill="black" stroke="black" points="881.62,-307.38 878.45,-297.27 874.62,-307.15 881.62,-307.38"/>
<text text-anchor="middle" x="963.98" y="-503.3" font-family="Times,serif" font-size="14.00">previousActivity</text>
</g>
<!-- http://purl.org/dj/kaggle/your&#45;first&#45;machine&#45;learning&#45;model#29950131 -->
<g id="node10" class="node">
<title>http://purl.org/dj/kaggle/your&#45;first&#45;machine&#45;learning&#45;model#29950131</title>
<ellipse fill="none" stroke="black" cx="713.48" cy="-561" rx="94.78" ry="18"/>
<text text-anchor="middle" x="713.48" y="-557.3" font-family="Times,serif" font-size="14.00">29950131 (1(0): Reuse)</text>
</g>
<!-- http://purl.org/dj/kaggle/your&#45;first&#45;machine&#45;learning&#45;model#1403979536&#45;&gt;http://purl.org/dj/kaggle/your&#45;first&#45;machine&#45;learning&#45;model#29950131 -->
<g id="edge10" class="edge">
<title>http://purl.org/dj/kaggle/your&#45;first&#45;machine&#45;learning&#45;model#1403979536&#45;&gt;http://purl.org/dj/kaggle/your&#45;first&#45;machine&#45;learning&#45;model#29950131</title>
<path fill="none" stroke="black" d="M906.82,-766.76C789.8,-756.04 640.72,-733.47 602.48,-687 571.57,-649.45 628.69,-607.49 671.84,-582.99"/>
<polygon fill="black" stroke="black" points="673.74,-585.94 680.8,-578.04 670.35,-579.82 673.74,-585.94"/>
<text text-anchor="middle" x="647.98" y="-665.3" font-family="Times,serif" font-size="14.00">previousActivity</text>
</g>
<!-- http://purl.org/dj/kaggle/your&#45;first&#45;machine&#45;learning&#45;model#89588047 -->
<g id="node11" class="node">
<title>http://purl.org/dj/kaggle/your&#45;first&#45;machine&#45;learning&#45;model#89588047</title>
<ellipse fill="none" stroke="black" cx="1122.48" cy="-507" rx="103.98" ry="18"/>
<text text-anchor="middle" x="1122.48" y="-503.3" font-family="Times,serif" font-size="14.00">89588047 (y(0)$0: Reuse)</text>
</g>
<!-- http://purl.org/dj/kaggle/your&#45;first&#45;machine&#45;learning&#45;model#1403979536&#45;&gt;http://purl.org/dj/kaggle/your&#45;first&#45;machine&#45;learning&#45;model#89588047 -->
<g id="edge11" class="edge">
<title>http://purl.org/dj/kaggle/your&#45;first&#45;machine&#45;learning&#45;model#1403979536&#45;&gt;http://purl.org/dj/kaggle/your&#45;first&#45;machine&#45;learning&#45;model#89588047</title>
<path fill="none" stroke="black" d="M1077.32,-758.86C1082.4,-753.65 1087.28,-747.55 1090.48,-741 1123.79,-672.68 1125.58,-580.52 1124.07,-535.31"/>
<polygon fill="black" stroke="black" points="1127.56,-534.97 1123.65,-525.13 1120.56,-535.27 1127.56,-534.97"/>
<text text-anchor="middle" x="1123.48" y="-665.3" font-family="Times,serif" font-size="14.00">fit</text>
</g>
<!-- http://purl.org/dj/kaggle/your&#45;first&#45;machine&#45;learning&#45;model#76677423 -->
<g id="node12" class="node">
<title>http://purl.org/dj/kaggle/your&#45;first&#45;machine&#45;learning&#45;model#76677423</title>
<ellipse fill="none" stroke="black" cx="1481.48" cy="-561" rx="130.78" ry="18"/>
<text text-anchor="middle" x="1481.48" y="-557.3" font-family="Times,serif" font-size="14.00">76677423 (X(0)$1: Visualisation)</text>
</g>
<!-- http://purl.org/dj/kaggle/your&#45;first&#45;machine&#45;learning&#45;model#76742960&#45;&gt;http://purl.org/dj/kaggle/your&#45;first&#45;machine&#45;learning&#45;model#76677423 -->
<g id="edge12" class="edge">
<title>http://purl.org/dj/kaggle/your&#45;first&#45;machine&#45;learning&#45;model#76742960&#45;&gt;http://purl.org/dj/kaggle/your&#45;first&#45;machine&#45;learning&#45;model#76677423</title>
<path fill="none" stroke="black" d="M1444.55,-650.97C1451.57,-634.05 1462.44,-607.86 1470.57,-588.28"/>
<polygon fill="black" stroke="black" points="1473.82,-589.57 1474.42,-578.99 1467.36,-586.88 1473.82,-589.57"/>
<text text-anchor="middle" x="1479.48" y="-611.3" font-family="Times,serif" font-size="14.00">head</text>
</g>
<!-- http://purl.org/dj/kaggle/your&#45;first&#45;machine&#45;learning&#45;model#1580271551&#45;&gt;http://purl.org/dj/kaggle/your&#45;first&#45;machine&#45;learning&#45;model -->
<g id="edge13" class="edge">
<title>http://purl.org/dj/kaggle/your&#45;first&#45;machine&#45;learning&#45;model#1580271551&#45;&gt;http://purl.org/dj/kaggle/your&#45;first&#45;machine&#45;learning&#45;model</title>
<path fill="none" stroke="black" d="M480.75,-705.21C509.43,-687.29 547.48,-655.97 547.48,-616 547.48,-616 547.48,-616 547.48,-104 547.48,-37.25 985.04,-22.68 1219.33,-19.66"/>
<polygon fill="black" stroke="black" points="1219.69,-23.16 1229.64,-19.53 1219.6,-16.16 1219.69,-23.16"/>
<text text-anchor="middle" x="592.98" y="-362.3" font-family="Times,serif" font-size="14.00">previousActivity</text>
</g>
<!-- http://purl.org/dj/kaggle/your&#45;first&#45;machine&#45;learning&#45;model#1403913999&#45;&gt;http://purl.org/dj/kaggle/your&#45;first&#45;machine&#45;learning&#45;model#29950131 -->
<g id="edge18" class="edge">
<title>http://purl.org/dj/kaggle/your&#45;first&#45;machine&#45;learning&#45;model#1403913999&#45;&gt;http://purl.org/dj/kaggle/your&#45;first&#45;machine&#45;learning&#45;model#29950131</title>
<path fill="none" stroke="black" d="M849.45,-650.97C821.69,-632.81 777.62,-603.97 747.22,-584.08"/>
<polygon fill="black" stroke="black" points="748.92,-581.01 738.64,-578.47 745.09,-586.87 748.92,-581.01"/>
<text text-anchor="middle" x="881.98" y="-611.3" font-family="Times,serif" font-size="14.00">DecisionTreeRegressor</text>
</g>
<!-- http://purl.org/dj/kaggle/your&#45;first&#45;machine&#45;learning&#45;model#1257244313&#45;&gt;http://purl.org/dj/kaggle/your&#45;first&#45;machine&#45;learning&#45;model#29687986 -->
<g id="edge19" class="edge">
<title>http://purl.org/dj/kaggle/your&#45;first&#45;machine&#45;learning&#45;model#1257244313&#45;&gt;http://purl.org/dj/kaggle/your&#45;first&#45;machine&#45;learning&#45;model#29687986</title>
<path fill="none" stroke="black" d="M1377.46,-348.71C1341.77,-337.3 1291.63,-322.77 1246.48,-315 1131.01,-295.14 1099.86,-310.47 983.48,-297 974.6,-295.97 965.33,-294.72 956.13,-293.36"/>
<polygon fill="black" stroke="black" points="956.61,-289.9 946.2,-291.86 955.56,-296.82 956.61,-289.9"/>
<text text-anchor="middle" x="1330.48" y="-318.8" font-family="Times,serif" font-size="14.00">dropna</text>
</g>
<!-- http://purl.org/dj/kaggle/your&#45;first&#45;machine&#45;learning&#45;model#1257178776 -->
<g id="node16" class="node">
<title>http://purl.org/dj/kaggle/your&#45;first&#45;machine&#45;learning&#45;model#1257178776</title>
<ellipse fill="none" stroke="black" cx="1175.48" cy="-279" rx="182.77" ry="18"/>
<text text-anchor="middle" x="1175.48" y="-275.3" font-family="Times,serif" font-size="14.00">1257178776 (melbourne_data(0)$0: Movement)</text>
</g>
<!-- http://purl.org/dj/kaggle/your&#45;first&#45;machine&#45;learning&#45;model#1257244313&#45;&gt;http://purl.org/dj/kaggle/your&#45;first&#45;machine&#45;learning&#45;model#1257178776 -->
<g id="edge20" class="edge">
<title>http://purl.org/dj/kaggle/your&#45;first&#45;machine&#45;learning&#45;model#1257244313&#45;&gt;http://purl.org/dj/kaggle/your&#45;first&#45;machine&#45;learning&#45;model#1257178776</title>
<path fill="none" stroke="black" d="M1406.95,-348.1C1393.79,-337.01 1375.21,-323.12 1356.48,-315 1337.46,-306.76 1316.49,-300.45 1295.76,-295.62"/>
<polygon fill="black" stroke="black" points="1296.47,-292.19 1285.94,-293.43 1294.94,-299.02 1296.47,-292.19"/>
<text text-anchor="middle" x="1428.98" y="-318.8" font-family="Times,serif" font-size="14.00">previousActivity</text>
</g>
<!-- http://purl.org/dj/kaggle/your&#45;first&#45;machine&#45;learning&#45;model#29687986&#45;&gt;http://purl.org/dj/kaggle/your&#45;first&#45;machine&#45;learning&#45;model -->
<g id="edge21" class="edge">
<title>http://purl.org/dj/kaggle/your&#45;first&#45;machine&#45;learning&#45;model#29687986&#45;&gt;http://purl.org/dj/kaggle/your&#45;first&#45;machine&#45;learning&#45;model</title>
<path fill="none" stroke="black" d="M868.83,-261.01C847.37,-224.36 804.52,-137.14 848.48,-87 873.64,-58.29 1090.79,-37.82 1234.97,-27.24"/>
<polygon fill="black" stroke="black" points="1235.5,-30.71 1245.22,-26.49 1234.99,-23.73 1235.5,-30.71"/>
<text text-anchor="middle" x="875.98" y="-144.8" font-family="Times,serif" font-size="14.00">previousActivity</text>
</g>
<!-- http://purl.org/dj/kaggle/your&#45;first&#45;machine&#45;learning&#45;model#29950131&#45;&gt;http://purl.org/dj/kaggle/your&#45;first&#45;machine&#45;learning&#45;model -->
<g id="edge22" class="edge">
<title>http://purl.org/dj/kaggle/your&#45;first&#45;machine&#45;learning&#45;model#29950131&#45;&gt;http://purl.org/dj/kaggle/your&#45;first&#45;machine&#45;learning&#45;model</title>
<path fill="none" stroke="black" d="M713.48,-542.74C713.48,-521.76 713.48,-485.28 713.48,-454 713.48,-454 713.48,-454 713.48,-104 713.48,-52.88 1033.62,-31.65 1224.55,-23.53"/>
<polygon fill="black" stroke="black" points="1224.82,-27.02 1234.67,-23.11 1224.53,-20.03 1224.82,-27.02"/>
<text text-anchor="middle" x="739.98" y="-275.3" font-family="Times,serif" font-size="14.00">appearsIn</text>
</g>
<!-- http://purl.org/dj/kaggle/your&#45;first&#45;machine&#45;learning&#45;model#89588047&#45;&gt;http://purl.org/dj/kaggle/your&#45;first&#45;machine&#45;learning&#45;model#1257244313 -->
<g id="edge23" class="edge">
<title>http://purl.org/dj/kaggle/your&#45;first&#45;machine&#45;learning&#45;model#89588047&#45;&gt;http://purl.org/dj/kaggle/your&#45;first&#45;machine&#45;learning&#45;model#1257244313</title>
<path fill="none" stroke="black" d="M1125.36,-488.75C1128.83,-472.95 1136.08,-449.83 1150.48,-435 1173.7,-411.09 1249.42,-393.44 1315.54,-382.12"/>
<polygon fill="black" stroke="black" points="1316.35,-385.53 1325.64,-380.42 1315.2,-378.63 1316.35,-385.53"/>
<text text-anchor="middle" x="1188.98" y="-449.3" font-family="Times,serif" font-size="14.00">assignedFrom</text>
</g>
<!-- http://purl.org/dj/kaggle/your&#45;first&#45;machine&#45;learning&#45;model#76677423&#45;&gt;http://purl.org/dj/kaggle/your&#45;first&#45;machine&#45;learning&#45;model#1257244313 -->
<g id="edge33" class="edge">
<title>http://purl.org/dj/kaggle/your&#45;first&#45;machine&#45;learning&#45;model#76677423&#45;&gt;http://purl.org/dj/kaggle/your&#45;first&#45;machine&#45;learning&#45;model#1257244313</title>
<path fill="none" stroke="black" d="M1469.72,-542.83C1458.55,-525.53 1442.32,-497.65 1434.48,-471 1427.07,-445.83 1425.16,-415.87 1424.9,-394.59"/>
<polygon fill="black" stroke="black" points="1428.4,-394.32 1424.9,-384.32 1421.4,-394.32 1428.4,-394.32"/>
<text text-anchor="middle" x="1479.98" y="-449.3" font-family="Times,serif" font-size="14.00">previousActivity</text>
</g>
<!-- http://purl.org/dj/kaggle/your&#45;first&#45;machine&#45;learning&#45;model#76677423&#45;&gt;http://purl.org/dj/kaggle/your&#45;first&#45;machine&#45;learning&#45;model#29687986 -->
<g id="edge34" class="edge">
<title>http://purl.org/dj/kaggle/your&#45;first&#45;machine&#45;learning&#45;model#76677423&#45;&gt;http://purl.org/dj/kaggle/your&#45;first&#45;machine&#45;learning&#45;model#29687986</title>
<path fill="none" stroke="black" d="M1449.75,-543.51C1402.52,-519.11 1310.75,-472.25 1231.48,-435 1123.04,-384.05 993.69,-328.38 926.01,-299.63"/>
<polygon fill="black" stroke="black" points="927.06,-296.27 916.48,-295.59 924.32,-302.72 927.06,-296.27"/>
<text text-anchor="middle" x="1236.98" y="-405.8" font-family="Times,serif" font-size="14.00">previousActivity</text>
</g>
<!-- http://purl.org/dj/kaggle/your&#45;first&#45;machine&#45;learning&#45;model#2598452695 -->
<g id="node15" class="node">
<title>http://purl.org/dj/kaggle/your&#45;first&#45;machine&#45;learning&#45;model#2598452695</title>
<ellipse fill="none" stroke="black" cx="2209.48" cy="-279" rx="833.45" ry="18"/>
<text text-anchor="middle" x="2209.48" y="-275.3" font-family="Times,serif" font-size="14.00">2598452695 ([&lt;_ast.Constant object at 0x1305321c0&gt;, &lt;_ast.Constant object at 0x1305323d0&gt;, &lt;_ast.Constant object at 0x130532e50&gt;, &lt;_ast.Constant object at 0x1305325b0&gt;, &lt;_ast.Constant object at 0x1305326d0&gt;](0): Reuse)</text>
</g>
<!-- http://purl.org/dj/kaggle/your&#45;first&#45;machine&#45;learning&#45;model#76677423&#45;&gt;http://purl.org/dj/kaggle/your&#45;first&#45;machine&#45;learning&#45;model#2598452695 -->
<g id="edge32" class="edge">
<title>http://purl.org/dj/kaggle/your&#45;first&#45;machine&#45;learning&#45;model#76677423&#45;&gt;http://purl.org/dj/kaggle/your&#45;first&#45;machine&#45;learning&#45;model#2598452695</title>
<path fill="none" stroke="black" d="M1564.67,-547.07C1684.73,-525.95 1910.94,-476.79 2082.48,-384 2122.28,-362.47 2161.58,-327.63 2185.67,-304.28"/>
<polygon fill="black" stroke="black" points="2188.27,-306.64 2192.95,-297.13 2183.36,-301.64 2188.27,-306.64"/>
<text text-anchor="middle" x="2087.98" y="-405.8" font-family="Times,serif" font-size="14.00">previousActivity</text>
</g>
<!-- http://purl.org/dj/kaggle/your&#45;first&#45;machine&#45;learning&#45;model#76611886 -->
<g id="node20" class="node">
<title>http://purl.org/dj/kaggle/your&#45;first&#45;machine&#45;learning&#45;model#76611886</title>
<ellipse fill="none" stroke="black" cx="1640.48" cy="-453" rx="105.88" ry="18"/>
<text text-anchor="middle" x="1640.48" y="-449.3" font-family="Times,serif" font-size="14.00">76611886 (X(0)$0: Reuse)</text>
</g>
<!-- http://purl.org/dj/kaggle/your&#45;first&#45;machine&#45;learning&#45;model#76677423&#45;&gt;http://purl.org/dj/kaggle/your&#45;first&#45;machine&#45;learning&#45;model#76611886 -->
<g id="edge35" class="edge">
<title>http://purl.org/dj/kaggle/your&#45;first&#45;machine&#45;learning&#45;model#76677423&#45;&gt;http://purl.org/dj/kaggle/your&#45;first&#45;machine&#45;learning&#45;model#76611886</title>
<path fill="none" stroke="black" d="M1506.67,-543.2C1533.85,-525.09 1577.24,-496.16 1607.21,-476.18"/>
<polygon fill="black" stroke="black" points="1609.28,-479 1615.66,-470.54 1605.4,-473.18 1609.28,-479"/>
<text text-anchor="middle" x="1608.48" y="-503.3" font-family="Times,serif" font-size="14.00">describe</text>
</g>
<!-- http://purl.org/dj/kaggle/your&#45;first&#45;machine&#45;learning&#45;model#80085334 -->
<g id="node13" class="node">
<title>http://purl.org/dj/kaggle/your&#45;first&#45;machine&#45;learning&#45;model#80085334</title>
<ellipse fill="none" stroke="black" cx="1548.48" cy="-192" rx="124.28" ry="18"/>
<text text-anchor="middle" x="1548.48" y="-188.3" font-family="Times,serif" font-size="14.00">80085334 (pd(0): Visualisation)</text>
</g>
<!-- http://purl.org/dj/kaggle/your&#45;first&#45;machine&#45;learning&#45;model#80085334&#45;&gt;http://purl.org/dj/kaggle/your&#45;first&#45;machine&#45;learning&#45;model -->
<g id="edge14" class="edge">
<title>http://purl.org/dj/kaggle/your&#45;first&#45;machine&#45;learning&#45;model#80085334&#45;&gt;http://purl.org/dj/kaggle/your&#45;first&#45;machine&#45;learning&#45;model</title>
<path fill="none" stroke="black" d="M1520.4,-174.36C1499.96,-161.59 1472.18,-142.84 1450.48,-123 1423.94,-98.75 1398.1,-66.42 1381.57,-44.28"/>
<polygon fill="black" stroke="black" points="1384.25,-42.02 1375.5,-36.04 1378.62,-46.17 1384.25,-42.02"/>
<text text-anchor="middle" x="1495.98" y="-101.3" font-family="Times,serif" font-size="14.00">previousActivity</text>
</g>
<!-- http://purl.org/dj/python/lib/144966264 -->
<g id="node14" class="node">
<title>http://purl.org/dj/python/lib/144966264</title>
<ellipse fill="none" stroke="black" cx="1659.48" cy="-105" rx="109.38" ry="18"/>
<text text-anchor="middle" x="1659.48" y="-101.3" font-family="Times,serif" font-size="14.00">144966264 (pandas: Reuse)</text>
</g>
<!-- http://purl.org/dj/kaggle/your&#45;first&#45;machine&#45;learning&#45;model#80085334&#45;&gt;http://purl.org/dj/python/lib/144966264 -->
<g id="edge15" class="edge">
<title>http://purl.org/dj/kaggle/your&#45;first&#45;machine&#45;learning&#45;model#80085334&#45;&gt;http://purl.org/dj/python/lib/144966264</title>
<path fill="none" stroke="black" d="M1570.41,-174.21C1587.28,-161.28 1610.79,-143.28 1629.42,-129.02"/>
<polygon fill="black" stroke="black" points="1631.78,-131.62 1637.59,-122.76 1627.52,-126.06 1631.78,-131.62"/>
<text text-anchor="middle" x="1649.98" y="-144.8" font-family="Times,serif" font-size="14.00">assignedFrom</text>
</g>
<!-- http://purl.org/dj/python/lib/144966264&#45;&gt;http://purl.org/dj/kaggle/your&#45;first&#45;machine&#45;learning&#45;model -->
<g id="edge16" class="edge">
<title>http://purl.org/dj/python/lib/144966264&#45;&gt;http://purl.org/dj/kaggle/your&#45;first&#45;machine&#45;learning&#45;model</title>
<path fill="none" stroke="black" d="M1607.58,-89.1C1557.4,-74.69 1481.24,-52.82 1427.36,-37.34"/>
<polygon fill="black" stroke="black" points="1428.15,-33.93 1417.57,-34.53 1426.21,-40.66 1428.15,-33.93"/>
<text text-anchor="middle" x="1562.48" y="-57.8" font-family="Times,serif" font-size="14.00">importedBy</text>
</g>
<!-- http://purl.org/dj/kaggle/your&#45;first&#45;machine&#45;learning&#45;model#2598452695&#45;&gt;http://purl.org/dj/kaggle/your&#45;first&#45;machine&#45;learning&#45;model -->
<g id="edge17" class="edge">
<title>http://purl.org/dj/kaggle/your&#45;first&#45;machine&#45;learning&#45;model#2598452695&#45;&gt;http://purl.org/dj/kaggle/your&#45;first&#45;machine&#45;learning&#45;model</title>
<path fill="none" stroke="black" d="M2177.95,-260.98C2107.95,-223.88 1933.38,-135.19 1777.48,-87 1700.61,-63.24 1678.84,-67.24 1599.48,-54 1554.66,-46.52 1504.91,-39.03 1462.69,-32.9"/>
<polygon fill="black" stroke="black" points="1463.09,-29.42 1452.69,-31.46 1462.08,-36.35 1463.09,-29.42"/>
<text text-anchor="middle" x="1985.98" y="-144.8" font-family="Times,serif" font-size="14.00">appearsIn</text>
</g>
<!-- http://purl.org/dj/kaggle/your&#45;first&#45;machine&#45;learning&#45;model#1257178776&#45;&gt;http://purl.org/dj/kaggle/your&#45;first&#45;machine&#45;learning&#45;model#80085334 -->
<g id="edge36" class="edge">
<title>http://purl.org/dj/kaggle/your&#45;first&#45;machine&#45;learning&#45;model#1257178776&#45;&gt;http://purl.org/dj/kaggle/your&#45;first&#45;machine&#45;learning&#45;model#80085334</title>
<path fill="none" stroke="black" d="M1244.32,-262.31C1309.7,-247.41 1407.67,-225.09 1474.64,-209.83"/>
<polygon fill="black" stroke="black" points="1475.73,-213.17 1484.7,-207.53 1474.17,-206.34 1475.73,-213.17"/>
<text text-anchor="middle" x="1408.98" y="-231.8" font-family="Times,serif" font-size="14.00">read_csv</text>
</g>
<!-- http://purl.org/dj/kaggle/your&#45;first&#45;machine&#45;learning&#45;model#58004286 -->
<g id="node22" class="node">
<title>http://purl.org/dj/kaggle/your&#45;first&#45;machine&#45;learning&#45;model#58004286</title>
<ellipse fill="none" stroke="black" cx="1131.48" cy="-105" rx="274.05" ry="18"/>
<text text-anchor="middle" x="1131.48" y="-101.3" font-family="Times,serif" font-size="14.00">58004286 (../input/melbourne&#45;housing&#45;snapshot/melb_data.csv(0): Reuse)</text>
</g>
<!-- http://purl.org/dj/kaggle/your&#45;first&#45;machine&#45;learning&#45;model#1257178776&#45;&gt;http://purl.org/dj/kaggle/your&#45;first&#45;machine&#45;learning&#45;model#58004286 -->
<g id="edge37" class="edge">
<title>http://purl.org/dj/kaggle/your&#45;first&#45;machine&#45;learning&#45;model#1257178776&#45;&gt;http://purl.org/dj/kaggle/your&#45;first&#45;machine&#45;learning&#45;model#58004286</title>
<path fill="none" stroke="black" d="M1086.97,-263.2C1029.45,-251.57 962.01,-233.43 944.48,-210 913.07,-168.02 973.14,-140.71 1033.36,-124.67"/>
<polygon fill="black" stroke="black" points="1034.59,-127.96 1043.4,-122.09 1032.85,-121.18 1034.59,-127.96"/>
<text text-anchor="middle" x="989.98" y="-188.3" font-family="Times,serif" font-size="14.00">previousActivity</text>
</g>
<!-- http://purl.org/dj/kaggle/your&#45;first&#45;machine&#45;learning&#45;model#2019035306 -->
<g id="node23" class="node">
<title>http://purl.org/dj/kaggle/your&#45;first&#45;machine&#45;learning&#45;model#2019035306</title>
<ellipse fill="none" stroke="black" cx="1225.48" cy="-192" rx="181.17" ry="18"/>
<text text-anchor="middle" x="1225.48" y="-188.3" font-family="Times,serif" font-size="14.00">2019035306 (melbourne_file_path(0)$0: Reuse)</text>
</g>
<!-- http://purl.org/dj/kaggle/your&#45;first&#45;machine&#45;learning&#45;model#1257178776&#45;&gt;http://purl.org/dj/kaggle/your&#45;first&#45;machine&#45;learning&#45;model#2019035306 -->
<g id="edge38" class="edge">
<title>http://purl.org/dj/kaggle/your&#45;first&#45;machine&#45;learning&#45;model#1257178776&#45;&gt;http://purl.org/dj/kaggle/your&#45;first&#45;machine&#45;learning&#45;model#2019035306</title>
<path fill="none" stroke="black" d="M1185.59,-260.8C1192.64,-248.82 1202.17,-232.62 1210.15,-219.06"/>
<polygon fill="black" stroke="black" points="1213.32,-220.57 1215.37,-210.18 1207.29,-217.02 1213.32,-220.57"/>
<text text-anchor="middle" x="1227.98" y="-231.8" font-family="Times,serif" font-size="14.00">read_csv</text>
</g>
<!-- http://purl.org/dj/kaggle/your&#45;first&#45;machine&#45;learning&#45;model#1967917308 -->
<g id="node17" class="node">
<title>http://purl.org/dj/kaggle/your&#45;first&#45;machine&#45;learning&#45;model#1967917308</title>
<ellipse fill="none" stroke="black" cx="3267.48" cy="-279" rx="206.86" ry="18"/>
<text text-anchor="middle" x="3267.48" y="-275.3" font-family="Times,serif" font-size="14.00">1967917308 (DecisionTreeRegressor(0): Visualisation)</text>
</g>
<!-- http://purl.org/dj/kaggle/your&#45;first&#45;machine&#45;learning&#45;model#1967917308&#45;&gt;http://purl.org/dj/kaggle/your&#45;first&#45;machine&#45;learning&#45;model -->
<g id="edge24" class="edge">
<title>http://purl.org/dj/kaggle/your&#45;first&#45;machine&#45;learning&#45;model#1967917308&#45;&gt;http://purl.org/dj/kaggle/your&#45;first&#45;machine&#45;learning&#45;model</title>
<path fill="none" stroke="black" d="M3167.83,-263.21C2916.35,-226.07 2235.45,-126.65 1666.48,-54 1602.8,-45.87 1531.49,-37.59 1474.05,-31.13"/>
<polygon fill="black" stroke="black" points="1474.19,-27.62 1463.86,-29.98 1473.41,-34.58 1474.19,-27.62"/>
<text text-anchor="middle" x="2435.98" y="-144.8" font-family="Times,serif" font-size="14.00">appearsIn</text>
</g>
<!-- http://purl.org/dj/python/lib/1524238459 -->
<g id="node18" class="node">
<title>http://purl.org/dj/python/lib/1524238459</title>
<ellipse fill="none" stroke="black" cx="3059.48" cy="-192" rx="171.67" ry="18"/>
<text text-anchor="middle" x="3059.48" y="-188.3" font-family="Times,serif" font-size="14.00">1524238459 (DecisionTreeRegressor: Reuse)</text>
</g>
<!-- http://purl.org/dj/kaggle/your&#45;first&#45;machine&#45;learning&#45;model#1967917308&#45;&gt;http://purl.org/dj/python/lib/1524238459 -->
<g id="edge25" class="edge">
<title>http://purl.org/dj/kaggle/your&#45;first&#45;machine&#45;learning&#45;model#1967917308&#45;&gt;http://purl.org/dj/python/lib/1524238459</title>
<path fill="none" stroke="black" d="M3223.38,-261.41C3208.44,-255.69 3191.69,-249.17 3176.48,-243 3153.4,-233.64 3127.96,-222.82 3106.71,-213.65"/>
<polygon fill="black" stroke="black" points="3107.84,-210.33 3097.27,-209.57 3105.06,-216.75 3107.84,-210.33"/>
<text text-anchor="middle" x="3214.98" y="-231.8" font-family="Times,serif" font-size="14.00">assignedFrom</text>
</g>
<!-- http://purl.org/dj/python/lib/532874447 -->
<g id="node19" class="node">
<title>http://purl.org/dj/python/lib/532874447</title>
<ellipse fill="none" stroke="black" cx="3059.48" cy="-105" rx="126.18" ry="18"/>
<text text-anchor="middle" x="3059.48" y="-101.3" font-family="Times,serif" font-size="14.00">532874447 (sklearn.tree: Reuse)</text>
</g>
<!-- http://purl.org/dj/kaggle/your&#45;first&#45;machine&#45;learning&#45;model#1967917308&#45;&gt;http://purl.org/dj/python/lib/532874447 -->
<g id="edge26" class="edge">
<title>http://purl.org/dj/kaggle/your&#45;first&#45;machine&#45;learning&#45;model#1967917308&#45;&gt;http://purl.org/dj/python/lib/532874447</title>
<path fill="none" stroke="black" d="M3267.64,-260.64C3266.91,-237.96 3262.31,-198.27 3240.48,-174 3216.87,-147.77 3182.13,-131.61 3149.38,-121.68"/>
<polygon fill="black" stroke="black" points="3150.33,-118.31 3139.76,-118.92 3148.4,-125.04 3150.33,-118.31"/>
<text text-anchor="middle" x="3304.98" y="-188.3" font-family="Times,serif" font-size="14.00">previousActivity</text>
</g>
<!-- http://purl.org/dj/python/lib/1524238459&#45;&gt;http://purl.org/dj/python/lib/532874447 -->
<g id="edge27" class="edge">
<title>http://purl.org/dj/python/lib/1524238459&#45;&gt;http://purl.org/dj/python/lib/532874447</title>
<path fill="none" stroke="black" d="M3059.48,-173.8C3059.48,-162.16 3059.48,-146.55 3059.48,-133.24"/>
<polygon fill="black" stroke="black" points="3062.98,-133.18 3059.48,-123.18 3055.98,-133.18 3062.98,-133.18"/>
<text text-anchor="middle" x="3092.48" y="-144.8" font-family="Times,serif" font-size="14.00">importedBy</text>
</g>
<!-- http://purl.org/dj/python/lib/532874447&#45;&gt;http://purl.org/dj/kaggle/your&#45;first&#45;machine&#45;learning&#45;model -->
<g id="edge28" class="edge">
<title>http://purl.org/dj/python/lib/532874447&#45;&gt;http://purl.org/dj/kaggle/your&#45;first&#45;machine&#45;learning&#45;model</title>
<path fill="none" stroke="black" d="M2969.23,-92.4C2873.99,-80.65 2719.44,-62.97 2585.48,-54 2196.06,-27.92 1735.56,-21.25 1507.03,-19.56"/>
<polygon fill="black" stroke="black" points="1507.02,-16.06 1496.99,-19.49 1506.97,-23.06 1507.02,-16.06"/>
<text text-anchor="middle" x="2788.48" y="-57.8" font-family="Times,serif" font-size="14.00">importedBy</text>
</g>
<!-- http://purl.org/dj/kaggle/your&#45;first&#45;machine&#45;learning&#45;model#76611886&#45;&gt;http://purl.org/dj/kaggle/your&#45;first&#45;machine&#45;learning&#45;model#1257244313 -->
<g id="edge29" class="edge">
<title>http://purl.org/dj/kaggle/your&#45;first&#45;machine&#45;learning&#45;model#76611886&#45;&gt;http://purl.org/dj/kaggle/your&#45;first&#45;machine&#45;learning&#45;model#1257244313</title>
<path fill="none" stroke="black" d="M1600.54,-436.21C1565.5,-422.36 1514.35,-402.14 1476.38,-387.13"/>
<polygon fill="black" stroke="black" points="1477.62,-383.85 1467.03,-383.43 1475.04,-390.36 1477.62,-383.85"/>
<text text-anchor="middle" x="1584.98" y="-405.8" font-family="Times,serif" font-size="14.00">assignedFrom</text>
</g>
<!-- http://purl.org/dj/kaggle/your&#45;first&#45;machine&#45;learning&#45;model#1867778141 -->
<g id="node21" class="node">
<title>http://purl.org/dj/kaggle/your&#45;first&#45;machine&#45;learning&#45;model#1867778141</title>
<ellipse fill="none" stroke="black" cx="1894.48" cy="-366" rx="178.97" ry="18"/>
<text text-anchor="middle" x="1894.48" y="-362.3" font-family="Times,serif" font-size="14.00">1867778141 (melbourne_features(0)$0: Reuse)</text>
</g>
<!-- http://purl.org/dj/kaggle/your&#45;first&#45;machine&#45;learning&#45;model#76611886&#45;&gt;http://purl.org/dj/kaggle/your&#45;first&#45;machine&#45;learning&#45;model#1867778141 -->
<g id="edge30" class="edge">
<title>http://purl.org/dj/kaggle/your&#45;first&#45;machine&#45;learning&#45;model#76611886&#45;&gt;http://purl.org/dj/kaggle/your&#45;first&#45;machine&#45;learning&#45;model#1867778141</title>
<path fill="none" stroke="black" d="M1686.18,-436.71C1728.1,-422.68 1790.39,-401.83 1835.94,-386.59"/>
<polygon fill="black" stroke="black" points="1837.3,-389.82 1845.68,-383.33 1835.08,-383.18 1837.3,-389.82"/>
<text text-anchor="middle" x="1821.98" y="-405.8" font-family="Times,serif" font-size="14.00">assignedFrom</text>
</g>
<!-- http://purl.org/dj/kaggle/your&#45;first&#45;machine&#45;learning&#45;model#1867778141&#45;&gt;http://purl.org/dj/kaggle/your&#45;first&#45;machine&#45;learning&#45;model#2598452695 -->
<g id="edge31" class="edge">
<title>http://purl.org/dj/kaggle/your&#45;first&#45;machine&#45;learning&#45;model#1867778141&#45;&gt;http://purl.org/dj/kaggle/your&#45;first&#45;machine&#45;learning&#45;model#2598452695</title>
<path fill="none" stroke="black" d="M1947.12,-348.79C1980.61,-338.66 2024.95,-325.58 2064.48,-315 2084.36,-309.68 2105.88,-304.29 2126.1,-299.38"/>
<polygon fill="black" stroke="black" points="2127.01,-302.76 2135.91,-297.02 2125.36,-295.96 2127.01,-302.76"/>
<text text-anchor="middle" x="2102.98" y="-318.8" font-family="Times,serif" font-size="14.00">assignedFrom</text>
</g>
<!-- http://purl.org/dj/kaggle/your&#45;first&#45;machine&#45;learning&#45;model#58004286&#45;&gt;http://purl.org/dj/kaggle/your&#45;first&#45;machine&#45;learning&#45;model -->
<g id="edge39" class="edge">
<title>http://purl.org/dj/kaggle/your&#45;first&#45;machine&#45;learning&#45;model#58004286&#45;&gt;http://purl.org/dj/kaggle/your&#45;first&#45;machine&#45;learning&#45;model</title>
<path fill="none" stroke="black" d="M1177.31,-87.21C1215.5,-73.22 1269.93,-53.27 1310.08,-38.56"/>
<polygon fill="black" stroke="black" points="1311.51,-41.77 1319.7,-35.04 1309.11,-35.19 1311.51,-41.77"/>
<text text-anchor="middle" x="1306.98" y="-57.8" font-family="Times,serif" font-size="14.00">previousActivity</text>
</g>
<!-- http://purl.org/dj/kaggle/your&#45;first&#45;machine&#45;learning&#45;model#2019035306&#45;&gt;http://purl.org/dj/kaggle/your&#45;first&#45;machine&#45;learning&#45;model#58004286 -->
<g id="edge40" class="edge">
<title>http://purl.org/dj/kaggle/your&#45;first&#45;machine&#45;learning&#45;model#2019035306&#45;&gt;http://purl.org/dj/kaggle/your&#45;first&#45;machine&#45;learning&#45;model#58004286</title>
<path fill="none" stroke="black" d="M1206.45,-173.8C1192.57,-161.24 1173.55,-144.05 1158.15,-130.12"/>
<polygon fill="black" stroke="black" points="1160.24,-127.29 1150.47,-123.18 1155.54,-132.48 1160.24,-127.29"/>
<text text-anchor="middle" x="1222.98" y="-144.8" font-family="Times,serif" font-size="14.00">assignedFrom</text>
</g>
<!-- http://purl.org/dj/kaggle/your&#45;first&#45;machine&#45;learning&#45;model#249692951 -->
<g id="node24" class="node">
<title>http://purl.org/dj/kaggle/your&#45;first&#45;machine&#45;learning&#45;model#249692951</title>
<ellipse fill="none" stroke="black" cx="1392.48" cy="-777" rx="136.48" ry="18"/>
<text text-anchor="middle" x="1392.48" y="-773.3" font-family="Times,serif" font-size="14.00">249692951 (print[1]: Visualisation)</text>
</g>
<!-- http://purl.org/dj/kaggle/your&#45;first&#45;machine&#45;learning&#45;model#249692951&#45;&gt;http://purl.org/dj/kaggle/your&#45;first&#45;machine&#45;learning&#45;model#76742960 -->
<g id="edge41" class="edge">
<title>http://purl.org/dj/kaggle/your&#45;first&#45;machine&#45;learning&#45;model#249692951&#45;&gt;http://purl.org/dj/kaggle/your&#45;first&#45;machine&#45;learning&#45;model#76742960</title>
<path fill="none" stroke="black" d="M1399.71,-758.97C1406.89,-742.05 1418.01,-715.86 1426.32,-696.28"/>
<polygon fill="black" stroke="black" points="1429.58,-697.56 1430.26,-686.99 1423.13,-694.83 1429.58,-697.56"/>
<text text-anchor="middle" x="1467.98" y="-719.3" font-family="Times,serif" font-size="14.00">previousActivity</text>
</g>
</g>
</svg>
